<svg width="782" height="240" viewBox="0 0 782 240" fill="none" xmlns="http://www.w3.org/2000/svg">
<g clip-path="url(#clip0_6290_4614)">
<rect width="782" height="240" fill="white"/>
<path d="M3.91406 36.5C3.91406 33.4624 6.3765 31 9.41406 31H70.9141V98H3.91406V36.5Z" fill="white" stroke="#7A7A7A"/>
<rect x="70.9141" y="31" width="66" height="67" fill="white" stroke="#7A7A7A"/>
<rect x="70.9141" y="31" width="66" height="67" fill="white" stroke="#7A7A7A"/>
<rect x="136.914" y="31" width="66" height="67" fill="white" stroke="#7A7A7A"/>
<rect x="136.914" y="31" width="66" height="67" fill="white" stroke="#7A7A7A"/>
<path d="M43.2715 74.5H31.2451V72.127H36.167V58.1523L31.582 60.6426L30.6445 58.4746L36.7383 55.2666H38.9941V72.127H43.2715V74.5Z" fill="#999999"/>
<path d="M111.385 64.8467C111.385 66.4189 111.214 67.8252 110.872 69.0654C110.53 70.3057 110.027 71.3555 109.363 72.2148C108.709 73.0645 107.908 73.7139 106.961 74.1631C106.014 74.6123 104.93 74.8369 103.709 74.8369C102.654 74.8369 101.683 74.6514 100.794 74.2803C99.9053 73.9092 99.1387 73.3281 98.4941 72.5371C97.8496 71.7363 97.3467 70.7158 96.9854 69.4756C96.624 68.2354 96.4434 66.751 96.4434 65.0225C96.4434 63.4502 96.6143 62.0439 96.9561 60.8037C97.3076 59.5635 97.8105 58.5186 98.4648 57.6689C99.1191 56.8096 99.9248 56.1553 100.882 55.7061C101.839 55.2568 102.923 55.0322 104.134 55.0322C105.188 55.0322 106.16 55.2178 107.049 55.5889C107.938 55.96 108.699 56.541 109.334 57.332C109.979 58.123 110.481 59.1387 110.843 60.3789C111.204 61.6191 111.385 63.1084 111.385 64.8467ZM100.047 64.9053C100.047 65.1006 100.047 65.2861 100.047 65.4619C100.047 65.6279 100.057 65.7988 100.076 65.9746L107.254 60.7891C106.912 59.8223 106.458 59.1094 105.892 58.6504C105.335 58.1816 104.676 57.9473 103.914 57.9473C103.367 57.9473 102.859 58.0889 102.391 58.3721C101.922 58.6455 101.512 59.0703 101.16 59.6465C100.818 60.2227 100.545 60.9453 100.34 61.8145C100.145 62.6836 100.047 63.7139 100.047 64.9053ZM107.781 64.9639C107.781 64.7979 107.776 64.6318 107.767 64.4658C107.757 64.29 107.752 64.124 107.752 63.9678L100.618 69.124C100.931 70.0713 101.37 70.7744 101.937 71.2334C102.503 71.6924 103.162 71.9219 103.914 71.9219C104.461 71.9219 104.969 71.7803 105.438 71.4971C105.916 71.2139 106.326 70.7891 106.668 70.2227C107.02 69.6465 107.293 68.9238 107.488 68.0547C107.684 67.1758 107.781 66.1455 107.781 64.9639Z" fill="black"/>
<path d="M176.066 68.6846C176.066 69.5244 175.896 70.3154 175.554 71.0576C175.212 71.79 174.699 72.4346 174.016 72.9912C173.332 73.5381 172.473 73.9727 171.438 74.2949C170.402 74.6074 169.196 74.7637 167.819 74.7637C167.058 74.7637 166.374 74.7393 165.769 74.6904C165.163 74.6416 164.597 74.5781 164.069 74.5V72.2148C164.675 72.3223 165.314 72.4053 165.988 72.4639C166.662 72.5225 167.351 72.5518 168.054 72.5518C169.011 72.5518 169.826 72.4688 170.5 72.3027C171.184 72.127 171.74 71.8779 172.17 71.5557C172.6 71.2334 172.912 70.8428 173.107 70.3838C173.303 69.9248 173.4 69.4072 173.4 68.8311C173.4 68.3037 173.283 67.8447 173.049 67.4541C172.814 67.0635 172.482 66.7363 172.053 66.4727C171.633 66.209 171.125 66.0137 170.529 65.8867C169.943 65.75 169.299 65.6816 168.596 65.6816H166.413V63.5869H168.625C169.201 63.5869 169.724 63.5137 170.192 63.3672C170.671 63.2109 171.076 62.9912 171.408 62.708C171.75 62.4248 172.009 62.0781 172.185 61.668C172.37 61.248 172.463 60.7744 172.463 60.2471C172.463 59.2217 172.15 58.4746 171.525 58.0059C170.9 57.5371 169.982 57.3027 168.771 57.3027C168.127 57.3027 167.463 57.3662 166.779 57.4932C166.096 57.6201 165.363 57.8105 164.582 58.0645V55.8379C164.914 55.7207 165.266 55.6182 165.637 55.5303C166.018 55.4326 166.394 55.3545 166.765 55.2959C167.146 55.2275 167.521 55.1787 167.893 55.1494C168.264 55.1104 168.62 55.0908 168.962 55.0908C169.978 55.0908 170.871 55.2031 171.643 55.4277C172.414 55.6426 173.059 55.9551 173.576 56.3652C174.094 56.7754 174.484 57.2734 174.748 57.8594C175.012 58.4453 175.144 59.1045 175.144 59.8369C175.144 60.9307 174.86 61.8486 174.294 62.5908C173.737 63.333 172.971 63.9238 171.994 64.3633C172.492 64.4414 172.98 64.5977 173.459 64.832C173.947 65.0664 174.382 65.3691 174.763 65.7402C175.153 66.1016 175.466 66.5312 175.7 67.0293C175.944 67.5273 176.066 68.0791 176.066 68.6846Z" fill="#999999"/>
<rect x="3.91406" y="98" width="67" height="66" fill="white" stroke="#7A7A7A"/>
<rect x="70.9141" y="98" width="66" height="66" stroke="#7A7A7A"/>
<rect x="137" y="99" width="66" height="65" fill="#EDEDED" stroke="#7A7A7A"/>
<rect x="71" y="98" width="66" height="66" fill="#EDEDED" stroke="#7A7A7A"/>
<path d="M44.3848 132.847C44.3848 134.419 44.2139 135.825 43.8721 137.065C43.5303 138.306 43.0273 139.355 42.3633 140.215C41.709 141.064 40.9082 141.714 39.9609 142.163C39.0137 142.612 37.9297 142.837 36.709 142.837C35.6543 142.837 34.6826 142.651 33.7939 142.28C32.9053 141.909 32.1387 141.328 31.4941 140.537C30.8496 139.736 30.3467 138.716 29.9854 137.476C29.624 136.235 29.4434 134.751 29.4434 133.022C29.4434 131.45 29.6143 130.044 29.9561 128.804C30.3076 127.563 30.8105 126.519 31.4648 125.669C32.1191 124.81 32.9248 124.155 33.8818 123.706C34.8389 123.257 35.9229 123.032 37.1338 123.032C38.1885 123.032 39.1602 123.218 40.0488 123.589C40.9375 123.96 41.6992 124.541 42.334 125.332C42.9785 126.123 43.4814 127.139 43.8428 128.379C44.2041 129.619 44.3848 131.108 44.3848 132.847ZM33.0469 132.905C33.0469 133.101 33.0469 133.286 33.0469 133.462C33.0469 133.628 33.0566 133.799 33.0762 133.975L40.2539 128.789C39.9121 127.822 39.458 127.109 38.8916 126.65C38.335 126.182 37.6758 125.947 36.9141 125.947C36.3672 125.947 35.8594 126.089 35.3906 126.372C34.9219 126.646 34.5117 127.07 34.1602 127.646C33.8184 128.223 33.5449 128.945 33.3398 129.814C33.1445 130.684 33.0469 131.714 33.0469 132.905ZM40.7812 132.964C40.7812 132.798 40.7764 132.632 40.7666 132.466C40.7568 132.29 40.752 132.124 40.752 131.968L33.6182 137.124C33.9307 138.071 34.3701 138.774 34.9365 139.233C35.5029 139.692 36.1621 139.922 36.9141 139.922C37.4609 139.922 37.9688 139.78 38.4375 139.497C38.916 139.214 39.3262 138.789 39.668 138.223C40.0195 137.646 40.293 136.924 40.4883 136.055C40.6836 135.176 40.7812 134.146 40.7812 132.964Z" fill="black"/>
<path d="M110.872 132.935C110.872 134.399 110.726 135.737 110.433 136.948C110.14 138.149 109.695 139.185 109.1 140.054C108.504 140.913 107.762 141.582 106.873 142.061C105.994 142.529 104.959 142.764 103.768 142.764C102.742 142.764 101.81 142.573 100.97 142.192C100.13 141.802 99.4121 141.206 98.8164 140.405C98.2207 139.604 97.7617 138.584 97.4395 137.344C97.1172 136.104 96.9561 134.634 96.9561 132.935C96.9561 131.47 97.1025 130.132 97.3955 128.921C97.6982 127.71 98.1426 126.675 98.7285 125.815C99.3242 124.946 100.066 124.277 100.955 123.809C101.844 123.33 102.879 123.091 104.061 123.091C105.086 123.091 106.019 123.286 106.858 123.677C107.698 124.058 108.416 124.653 109.012 125.464C109.607 126.265 110.066 127.285 110.389 128.525C110.711 129.766 110.872 131.235 110.872 132.935ZM108.294 133.022C108.294 132.69 108.279 132.363 108.25 132.041C108.23 131.709 108.206 131.387 108.177 131.074L100.076 137.095C100.223 137.603 100.408 138.071 100.633 138.501C100.857 138.931 101.126 139.302 101.438 139.614C101.761 139.917 102.122 140.156 102.522 140.332C102.933 140.498 103.396 140.581 103.914 140.581C104.578 140.581 105.179 140.42 105.716 140.098C106.263 139.775 106.727 139.297 107.107 138.662C107.488 138.027 107.781 137.241 107.986 136.304C108.191 135.356 108.294 134.263 108.294 133.022ZM99.5342 132.847C99.5342 133.149 99.5342 133.452 99.5342 133.755C99.5439 134.058 99.5635 134.351 99.5928 134.634L107.693 128.643C107.547 128.145 107.361 127.69 107.137 127.28C106.912 126.87 106.644 126.519 106.331 126.226C106.019 125.923 105.662 125.688 105.262 125.522C104.861 125.356 104.412 125.273 103.914 125.273C103.25 125.273 102.645 125.435 102.098 125.757C101.561 126.079 101.102 126.562 100.721 127.207C100.34 127.842 100.047 128.633 99.8418 129.58C99.6367 130.518 99.5342 131.606 99.5342 132.847Z" fill="#999999"/>
<path d="M176.433 137.695C176.433 138.506 176.267 139.229 175.935 139.863C175.603 140.488 175.139 141.016 174.543 141.445C173.947 141.875 173.244 142.202 172.434 142.427C171.623 142.651 170.744 142.764 169.797 142.764C168.752 142.764 167.829 142.646 167.028 142.412C166.237 142.178 165.573 141.851 165.036 141.431C164.499 141.011 164.094 140.513 163.82 139.937C163.547 139.36 163.41 138.726 163.41 138.032C163.41 136.86 163.737 135.85 164.392 135C165.046 134.15 166.057 133.379 167.424 132.686C166.174 132.051 165.261 131.348 164.685 130.576C164.108 129.795 163.82 128.901 163.82 127.896C163.82 127.28 163.947 126.685 164.201 126.108C164.455 125.532 164.836 125.02 165.344 124.57C165.861 124.121 166.506 123.765 167.277 123.501C168.049 123.228 168.957 123.091 170.002 123.091C170.988 123.091 171.853 123.198 172.595 123.413C173.347 123.618 173.977 123.916 174.484 124.307C174.992 124.697 175.373 125.171 175.627 125.728C175.881 126.284 176.008 126.904 176.008 127.588C176.008 128.701 175.695 129.648 175.07 130.43C174.455 131.211 173.576 131.895 172.434 132.48C173 132.764 173.527 133.076 174.016 133.418C174.504 133.76 174.929 134.141 175.29 134.561C175.651 134.98 175.93 135.449 176.125 135.967C176.33 136.484 176.433 137.061 176.433 137.695ZM173.4 127.793C173.4 126.924 173.093 126.279 172.478 125.859C171.872 125.43 171.018 125.215 169.914 125.215C168.82 125.215 167.966 125.425 167.351 125.845C166.745 126.265 166.442 126.895 166.442 127.734C166.442 128.115 166.516 128.467 166.662 128.789C166.809 129.111 167.033 129.414 167.336 129.697C167.648 129.98 168.034 130.259 168.493 130.532C168.952 130.806 169.499 131.084 170.134 131.367C171.237 130.85 172.058 130.312 172.595 129.756C173.132 129.189 173.4 128.535 173.4 127.793ZM173.664 137.886C173.664 137.524 173.605 137.173 173.488 136.831C173.371 136.489 173.161 136.152 172.858 135.82C172.556 135.488 172.15 135.156 171.643 134.824C171.135 134.492 170.49 134.15 169.709 133.799C169.045 134.121 168.483 134.443 168.024 134.766C167.575 135.078 167.209 135.4 166.926 135.732C166.652 136.055 166.457 136.392 166.34 136.743C166.223 137.095 166.164 137.466 166.164 137.856C166.164 138.296 166.257 138.687 166.442 139.028C166.638 139.36 166.901 139.644 167.233 139.878C167.565 140.112 167.961 140.288 168.42 140.405C168.879 140.522 169.377 140.581 169.914 140.581C170.432 140.581 170.92 140.527 171.379 140.42C171.838 140.312 172.233 140.151 172.565 139.937C172.907 139.712 173.176 139.434 173.371 139.102C173.566 138.76 173.664 138.354 173.664 137.886Z" fill="#999999"/>
<rect x="3.91406" y="164" width="67" height="66" fill="white" stroke="#7A7A7A"/>
<rect x="70.9141" y="164" width="66" height="66" fill="#EDEDED" stroke="#7A7A7A"/>
<rect x="136.914" y="164" width="66" height="66" fill="#EDEDED" stroke="#7A7A7A"/>
<path d="M35.0244 207.5H22.998V205.127H27.9199V191.152L23.335 193.643L22.3975 191.475L28.4912 188.267H30.7471V205.127H35.0244V207.5ZM51.5186 207.5H39.4922V205.127H44.4141V191.152L39.8291 193.643L38.8916 191.475L44.9854 188.267H47.2412V205.127H51.5186V207.5Z" fill="#999999"/>
<path d="M102.024 207.5H89.998V205.127H94.9199V191.152L90.335 193.643L89.3975 191.475L95.4912 188.267H97.7471V205.127H102.024V207.5ZM118.68 207.5H106.067V205.215L111.019 200.293C111.829 199.492 112.488 198.799 112.996 198.213C113.504 197.627 113.899 197.095 114.183 196.616C114.466 196.128 114.656 195.669 114.754 195.239C114.852 194.81 114.9 194.346 114.9 193.848C114.9 193.379 114.837 192.935 114.71 192.515C114.583 192.085 114.388 191.709 114.124 191.387C113.86 191.064 113.519 190.811 113.099 190.625C112.679 190.439 112.176 190.347 111.59 190.347C110.779 190.347 110.042 190.527 109.378 190.889C108.714 191.25 108.104 191.719 107.547 192.295L106.141 190.61C106.863 189.849 107.693 189.238 108.631 188.779C109.578 188.32 110.677 188.091 111.927 188.091C112.776 188.091 113.548 188.218 114.241 188.472C114.944 188.726 115.55 189.092 116.058 189.57C116.565 190.049 116.956 190.635 117.229 191.328C117.513 192.021 117.654 192.803 117.654 193.672C117.654 194.404 117.557 195.083 117.361 195.708C117.166 196.333 116.868 196.958 116.468 197.583C116.077 198.198 115.579 198.838 114.974 199.502C114.378 200.166 113.67 200.894 112.85 201.685L109.378 205.068H118.68V207.5Z" fill="#999999"/>
<path d="M168.024 207.5H155.998V205.127H160.92V191.152L156.335 193.643L155.397 191.475L161.491 188.267H163.747V205.127H168.024V207.5ZM184.313 201.685C184.313 202.524 184.143 203.315 183.801 204.058C183.459 204.79 182.946 205.435 182.263 205.991C181.579 206.538 180.72 206.973 179.685 207.295C178.649 207.607 177.443 207.764 176.066 207.764C175.305 207.764 174.621 207.739 174.016 207.69C173.41 207.642 172.844 207.578 172.316 207.5V205.215C172.922 205.322 173.562 205.405 174.235 205.464C174.909 205.522 175.598 205.552 176.301 205.552C177.258 205.552 178.073 205.469 178.747 205.303C179.431 205.127 179.987 204.878 180.417 204.556C180.847 204.233 181.159 203.843 181.354 203.384C181.55 202.925 181.647 202.407 181.647 201.831C181.647 201.304 181.53 200.845 181.296 200.454C181.062 200.063 180.729 199.736 180.3 199.473C179.88 199.209 179.372 199.014 178.776 198.887C178.19 198.75 177.546 198.682 176.843 198.682H174.66V196.587H176.872C177.448 196.587 177.971 196.514 178.439 196.367C178.918 196.211 179.323 195.991 179.655 195.708C179.997 195.425 180.256 195.078 180.432 194.668C180.617 194.248 180.71 193.774 180.71 193.247C180.71 192.222 180.397 191.475 179.772 191.006C179.147 190.537 178.229 190.303 177.019 190.303C176.374 190.303 175.71 190.366 175.026 190.493C174.343 190.62 173.61 190.811 172.829 191.064V188.838C173.161 188.721 173.513 188.618 173.884 188.53C174.265 188.433 174.641 188.354 175.012 188.296C175.393 188.228 175.769 188.179 176.14 188.149C176.511 188.11 176.867 188.091 177.209 188.091C178.225 188.091 179.118 188.203 179.89 188.428C180.661 188.643 181.306 188.955 181.823 189.365C182.341 189.775 182.731 190.273 182.995 190.859C183.259 191.445 183.391 192.104 183.391 192.837C183.391 193.931 183.107 194.849 182.541 195.591C181.984 196.333 181.218 196.924 180.241 197.363C180.739 197.441 181.228 197.598 181.706 197.832C182.194 198.066 182.629 198.369 183.01 198.74C183.4 199.102 183.713 199.531 183.947 200.029C184.191 200.527 184.313 201.079 184.313 201.685Z" fill="#999999"/>
<rect x="2.5" y="29.5" width="268" height="202" rx="6.5" fill="white" stroke="black" stroke-width="5"/>
<path d="M136.5 164H202.5V230H136.5V164Z" fill="#FFE2D3" stroke="#7A7A7A"/>
<path d="M3.91406 36.5C3.91406 33.4624 6.3765 31 9.41406 31H70.9141V98H3.91406V36.5Z" fill="white" stroke="#7A7A7A"/>
<rect x="70.9141" y="31" width="66" height="67" fill="white" stroke="#7A7A7A"/>
<rect x="70.9141" y="31" width="66" height="67" fill="white" stroke="#7A7A7A"/>
<path d="M3.91406 36.5C3.91406 33.4624 6.3765 31 9.41406 31H70.9141V98H3.91406V36.5Z" fill="#FFBD9B" stroke="#7A7A7A"/>
<rect x="70.9141" y="31" width="66" height="67" fill="white" stroke="#7A7A7A"/>
<rect x="71" y="31" width="66" height="67" fill="#FFD0B8" stroke="#7A7A7A"/>
<path d="M137 31H202.5V98H137V31Z" fill="#FFE2D3" stroke="#7A7A7A"/>
<path d="M43.4326 75H30.8203V72.7148L35.7715 67.793C36.582 66.9922 37.2412 66.2988 37.749 65.7129C38.2568 65.127 38.6523 64.5947 38.9355 64.1162C39.2188 63.6279 39.4092 63.1689 39.5068 62.7393C39.6045 62.3096 39.6533 61.8457 39.6533 61.3477C39.6533 60.8789 39.5898 60.4346 39.4629 60.0146C39.3359 59.585 39.1406 59.209 38.877 58.8867C38.6133 58.5645 38.2715 58.3105 37.8516 58.125C37.4316 57.9395 36.9287 57.8467 36.3428 57.8467C35.5322 57.8467 34.7949 58.0273 34.1309 58.3887C33.4668 58.75 32.8564 59.2188 32.2998 59.7949L30.8936 58.1104C31.6162 57.3486 32.4463 56.7383 33.3838 56.2793C34.3311 55.8203 35.4297 55.5908 36.6797 55.5908C37.5293 55.5908 38.3008 55.7178 38.9941 55.9717C39.6973 56.2256 40.3027 56.5918 40.8105 57.0703C41.3184 57.5488 41.709 58.1348 41.9824 58.8281C42.2656 59.5215 42.4072 60.3027 42.4072 61.1719C42.4072 61.9043 42.3096 62.583 42.1143 63.208C41.9189 63.833 41.6211 64.458 41.2207 65.083C40.8301 65.6982 40.332 66.3379 39.7266 67.002C39.1309 67.666 38.4229 68.3936 37.6025 69.1846L34.1309 72.5684H43.4326V75Z" fill="black"/>
<path d="M110.433 75H97.8203V72.7148L102.771 67.793C103.582 66.9922 104.241 66.2988 104.749 65.7129C105.257 65.127 105.652 64.5947 105.936 64.1162C106.219 63.6279 106.409 63.1689 106.507 62.7393C106.604 62.3096 106.653 61.8457 106.653 61.3477C106.653 60.8789 106.59 60.4346 106.463 60.0146C106.336 59.585 106.141 59.209 105.877 58.8867C105.613 58.5645 105.271 58.3105 104.852 58.125C104.432 57.9395 103.929 57.8467 103.343 57.8467C102.532 57.8467 101.795 58.0273 101.131 58.3887C100.467 58.75 99.8564 59.2188 99.2998 59.7949L97.8936 58.1104C98.6162 57.3486 99.4463 56.7383 100.384 56.2793C101.331 55.8203 102.43 55.5908 103.68 55.5908C104.529 55.5908 105.301 55.7178 105.994 55.9717C106.697 56.2256 107.303 56.5918 107.811 57.0703C108.318 57.5488 108.709 58.1348 108.982 58.8281C109.266 59.5215 109.407 60.3027 109.407 61.1719C109.407 61.9043 109.31 62.583 109.114 63.208C108.919 63.833 108.621 64.458 108.221 65.083C107.83 65.6982 107.332 66.3379 106.727 67.002C106.131 67.666 105.423 68.3936 104.603 69.1846L101.131 72.5684H110.433V75Z" fill="black"/>
<path d="M176.433 75H163.82V72.7148L168.771 67.793C169.582 66.9922 170.241 66.2988 170.749 65.7129C171.257 65.127 171.652 64.5947 171.936 64.1162C172.219 63.6279 172.409 63.1689 172.507 62.7393C172.604 62.3096 172.653 61.8457 172.653 61.3477C172.653 60.8789 172.59 60.4346 172.463 60.0146C172.336 59.585 172.141 59.209 171.877 58.8867C171.613 58.5645 171.271 58.3105 170.852 58.125C170.432 57.9395 169.929 57.8467 169.343 57.8467C168.532 57.8467 167.795 58.0273 167.131 58.3887C166.467 58.75 165.856 59.2188 165.3 59.7949L163.894 58.1104C164.616 57.3486 165.446 56.7383 166.384 56.2793C167.331 55.8203 168.43 55.5908 169.68 55.5908C170.529 55.5908 171.301 55.7178 171.994 55.9717C172.697 56.2256 173.303 56.5918 173.811 57.0703C174.318 57.5488 174.709 58.1348 174.982 58.8281C175.266 59.5215 175.407 60.3027 175.407 61.1719C175.407 61.9043 175.31 62.583 175.114 63.208C174.919 63.833 174.621 64.458 174.221 65.083C173.83 65.6982 173.332 66.3379 172.727 67.002C172.131 67.666 171.423 68.3936 170.603 69.1846L167.131 72.5684H176.433V75Z" fill="black"/>
<rect x="3.91406" y="98" width="67" height="66" fill="white" stroke="#7A7A7A"/>
<rect x="70.9141" y="98" width="66" height="66" stroke="#7A7A7A"/>
<rect x="136.5" y="98" width="66" height="66" fill="#FFEFE7" stroke="#7A7A7A"/>
<rect x="71" y="98" width="66" height="66" fill="white" stroke="#7A7A7A"/>
<path d="M43.8721 132.935C43.8721 134.399 43.7256 135.737 43.4326 136.948C43.1396 138.149 42.6953 139.185 42.0996 140.054C41.5039 140.913 40.7617 141.582 39.873 142.061C38.9941 142.529 37.959 142.764 36.7676 142.764C35.7422 142.764 34.8096 142.573 33.9697 142.192C33.1299 141.802 32.4121 141.206 31.8164 140.405C31.2207 139.604 30.7617 138.584 30.4395 137.344C30.1172 136.104 29.9561 134.634 29.9561 132.935C29.9561 131.47 30.1025 130.132 30.3955 128.921C30.6982 127.71 31.1426 126.675 31.7285 125.815C32.3242 124.946 33.0664 124.277 33.9551 123.809C34.8438 123.33 35.8789 123.091 37.0605 123.091C38.0859 123.091 39.0186 123.286 39.8584 123.677C40.6982 124.058 41.416 124.653 42.0117 125.464C42.6074 126.265 43.0664 127.285 43.3887 128.525C43.7109 129.766 43.8721 131.235 43.8721 132.935ZM41.2939 133.022C41.2939 132.69 41.2793 132.363 41.25 132.041C41.2305 131.709 41.2061 131.387 41.1768 131.074L33.0762 137.095C33.2227 137.603 33.4082 138.071 33.6328 138.501C33.8574 138.931 34.126 139.302 34.4385 139.614C34.7607 139.917 35.1221 140.156 35.5225 140.332C35.9326 140.498 36.3965 140.581 36.9141 140.581C37.5781 140.581 38.1787 140.42 38.7158 140.098C39.2627 139.775 39.7266 139.297 40.1074 138.662C40.4883 138.027 40.7812 137.241 40.9863 136.304C41.1914 135.356 41.2939 134.263 41.2939 133.022ZM32.5342 132.847C32.5342 133.149 32.5342 133.452 32.5342 133.755C32.5439 134.058 32.5635 134.351 32.5928 134.634L40.6934 128.643C40.5469 128.145 40.3613 127.69 40.1367 127.28C39.9121 126.87 39.6436 126.519 39.3311 126.226C39.0186 125.923 38.6621 125.688 38.2617 125.522C37.8613 125.356 37.4121 125.273 36.9141 125.273C36.25 125.273 35.6445 125.435 35.0977 125.757C34.5605 126.079 34.1016 126.562 33.7207 127.207C33.3398 127.842 33.0469 128.633 32.8418 129.58C32.6367 130.518 32.5342 131.606 32.5342 132.847Z" fill="#999999"/>
<path d="M110.872 132.935C110.872 134.399 110.726 135.737 110.433 136.948C110.14 138.149 109.695 139.185 109.1 140.054C108.504 140.913 107.762 141.582 106.873 142.061C105.994 142.529 104.959 142.764 103.768 142.764C102.742 142.764 101.81 142.573 100.97 142.192C100.13 141.802 99.4121 141.206 98.8164 140.405C98.2207 139.604 97.7617 138.584 97.4395 137.344C97.1172 136.104 96.9561 134.634 96.9561 132.935C96.9561 131.47 97.1025 130.132 97.3955 128.921C97.6982 127.71 98.1426 126.675 98.7285 125.815C99.3242 124.946 100.066 124.277 100.955 123.809C101.844 123.33 102.879 123.091 104.061 123.091C105.086 123.091 106.019 123.286 106.858 123.677C107.698 124.058 108.416 124.653 109.012 125.464C109.607 126.265 110.066 127.285 110.389 128.525C110.711 129.766 110.872 131.235 110.872 132.935ZM108.294 133.022C108.294 132.69 108.279 132.363 108.25 132.041C108.23 131.709 108.206 131.387 108.177 131.074L100.076 137.095C100.223 137.603 100.408 138.071 100.633 138.501C100.857 138.931 101.126 139.302 101.438 139.614C101.761 139.917 102.122 140.156 102.522 140.332C102.933 140.498 103.396 140.581 103.914 140.581C104.578 140.581 105.179 140.42 105.716 140.098C106.263 139.775 106.727 139.297 107.107 138.662C107.488 138.027 107.781 137.241 107.986 136.304C108.191 135.356 108.294 134.263 108.294 133.022ZM99.5342 132.847C99.5342 133.149 99.5342 133.452 99.5342 133.755C99.5439 134.058 99.5635 134.351 99.5928 134.634L107.693 128.643C107.547 128.145 107.361 127.69 107.137 127.28C106.912 126.87 106.644 126.519 106.331 126.226C106.019 125.923 105.662 125.688 105.262 125.522C104.861 125.356 104.412 125.273 103.914 125.273C103.25 125.273 102.645 125.435 102.098 125.757C101.561 126.079 101.102 126.562 100.721 127.207C100.34 127.842 100.047 128.633 99.8418 129.58C99.6367 130.518 99.5342 131.606 99.5342 132.847Z" fill="#999999"/>
<path d="M176.433 142.5H163.82V140.215L168.771 135.293C169.582 134.492 170.241 133.799 170.749 133.213C171.257 132.627 171.652 132.095 171.936 131.616C172.219 131.128 172.409 130.669 172.507 130.239C172.604 129.81 172.653 129.346 172.653 128.848C172.653 128.379 172.59 127.935 172.463 127.515C172.336 127.085 172.141 126.709 171.877 126.387C171.613 126.064 171.271 125.811 170.852 125.625C170.432 125.439 169.929 125.347 169.343 125.347C168.532 125.347 167.795 125.527 167.131 125.889C166.467 126.25 165.856 126.719 165.3 127.295L163.894 125.61C164.616 124.849 165.446 124.238 166.384 123.779C167.331 123.32 168.43 123.091 169.68 123.091C170.529 123.091 171.301 123.218 171.994 123.472C172.697 123.726 173.303 124.092 173.811 124.57C174.318 125.049 174.709 125.635 174.982 126.328C175.266 127.021 175.407 127.803 175.407 128.672C175.407 129.404 175.31 130.083 175.114 130.708C174.919 131.333 174.621 131.958 174.221 132.583C173.83 133.198 173.332 133.838 172.727 134.502C172.131 135.166 171.423 135.894 170.603 136.685L167.131 140.068H176.433V142.5Z" fill="black"/>
<path d="M3.91406 164H70.9141V230H9.41406C6.3765 230 3.91406 227.538 3.91406 224.5V164Z" fill="white" stroke="#7A7A7A"/>
<rect x="70.9141" y="164" width="66" height="66" fill="#FFD0B8" stroke="#7A7A7A"/>
<path d="M43.8721 197.935C43.8721 199.399 43.7256 200.737 43.4326 201.948C43.1396 203.149 42.6953 204.185 42.0996 205.054C41.5039 205.913 40.7617 206.582 39.873 207.061C38.9941 207.529 37.959 207.764 36.7676 207.764C35.7422 207.764 34.8096 207.573 33.9697 207.192C33.1299 206.802 32.4121 206.206 31.8164 205.405C31.2207 204.604 30.7617 203.584 30.4395 202.344C30.1172 201.104 29.9561 199.634 29.9561 197.935C29.9561 196.47 30.1025 195.132 30.3955 193.921C30.6982 192.71 31.1426 191.675 31.7285 190.815C32.3242 189.946 33.0664 189.277 33.9551 188.809C34.8438 188.33 35.8789 188.091 37.0605 188.091C38.0859 188.091 39.0186 188.286 39.8584 188.677C40.6982 189.058 41.416 189.653 42.0117 190.464C42.6074 191.265 43.0664 192.285 43.3887 193.525C43.7109 194.766 43.8721 196.235 43.8721 197.935ZM41.2939 198.022C41.2939 197.69 41.2793 197.363 41.25 197.041C41.2305 196.709 41.2061 196.387 41.1768 196.074L33.0762 202.095C33.2227 202.603 33.4082 203.071 33.6328 203.501C33.8574 203.931 34.126 204.302 34.4385 204.614C34.7607 204.917 35.1221 205.156 35.5225 205.332C35.9326 205.498 36.3965 205.581 36.9141 205.581C37.5781 205.581 38.1787 205.42 38.7158 205.098C39.2627 204.775 39.7266 204.297 40.1074 203.662C40.4883 203.027 40.7812 202.241 40.9863 201.304C41.1914 200.356 41.2939 199.263 41.2939 198.022ZM32.5342 197.847C32.5342 198.149 32.5342 198.452 32.5342 198.755C32.5439 199.058 32.5635 199.351 32.5928 199.634L40.6934 193.643C40.5469 193.145 40.3613 192.69 40.1367 192.28C39.9121 191.87 39.6436 191.519 39.3311 191.226C39.0186 190.923 38.6621 190.688 38.2617 190.522C37.8613 190.356 37.4121 190.273 36.9141 190.273C36.25 190.273 35.6445 190.435 35.0977 190.757C34.5605 191.079 34.1016 191.562 33.7207 192.207C33.3398 192.842 33.0469 193.633 32.8418 194.58C32.6367 195.518 32.5342 196.606 32.5342 197.847Z" fill="#999999"/>
<path d="M110.433 207.5H97.8203V205.215L102.771 200.293C103.582 199.492 104.241 198.799 104.749 198.213C105.257 197.627 105.652 197.095 105.936 196.616C106.219 196.128 106.409 195.669 106.507 195.239C106.604 194.81 106.653 194.346 106.653 193.848C106.653 193.379 106.59 192.935 106.463 192.515C106.336 192.085 106.141 191.709 105.877 191.387C105.613 191.064 105.271 190.811 104.852 190.625C104.432 190.439 103.929 190.347 103.343 190.347C102.532 190.347 101.795 190.527 101.131 190.889C100.467 191.25 99.8564 191.719 99.2998 192.295L97.8936 190.61C98.6162 189.849 99.4463 189.238 100.384 188.779C101.331 188.32 102.43 188.091 103.68 188.091C104.529 188.091 105.301 188.218 105.994 188.472C106.697 188.726 107.303 189.092 107.811 189.57C108.318 190.049 108.709 190.635 108.982 191.328C109.266 192.021 109.407 192.803 109.407 193.672C109.407 194.404 109.31 195.083 109.114 195.708C108.919 196.333 108.621 196.958 108.221 197.583C107.83 198.198 107.332 198.838 106.727 199.502C106.131 200.166 105.423 200.894 104.603 201.685L101.131 205.068H110.433V207.5Z" fill="black"/>
<path d="M176.433 207.5H163.82V205.215L168.771 200.293C169.582 199.492 170.241 198.799 170.749 198.213C171.257 197.627 171.652 197.095 171.936 196.616C172.219 196.128 172.409 195.669 172.507 195.239C172.604 194.81 172.653 194.346 172.653 193.848C172.653 193.379 172.59 192.935 172.463 192.515C172.336 192.085 172.141 191.709 171.877 191.387C171.613 191.064 171.271 190.811 170.852 190.625C170.432 190.439 169.929 190.347 169.343 190.347C168.532 190.347 167.795 190.527 167.131 190.889C166.467 191.25 165.856 191.719 165.3 192.295L163.894 190.61C164.616 189.849 165.446 189.238 166.384 188.779C167.331 188.32 168.43 188.091 169.68 188.091C170.529 188.091 171.301 188.218 171.994 188.472C172.697 188.726 173.303 189.092 173.811 189.57C174.318 190.049 174.709 190.635 174.982 191.328C175.266 192.021 175.407 192.803 175.407 193.672C175.407 194.404 175.31 195.083 175.114 195.708C174.919 196.333 174.621 196.958 174.221 197.583C173.83 198.198 173.332 198.838 172.727 199.502C172.131 200.166 171.423 200.894 170.603 201.685L167.131 205.068H176.433V207.5Z" fill="black"/>
<path d="M202.5 164H268.5V224.5C268.5 227.538 266.038 230 263 230H202.5V164Z" fill="white" stroke="#7A7A7A"/>
<path d="M202.5 30.5H263C266.038 30.5 268.5 32.9624 268.5 36V98.5H202.5V30.5Z" fill="white" stroke="#7A7A7A"/>
<path d="M242.872 64.9346C242.872 66.3994 242.726 67.7373 242.433 68.9482C242.14 70.1494 241.695 71.1846 241.1 72.0537C240.504 72.9131 239.762 73.582 238.873 74.0605C237.994 74.5293 236.959 74.7637 235.768 74.7637C234.742 74.7637 233.81 74.5732 232.97 74.1924C232.13 73.8018 231.412 73.2061 230.816 72.4053C230.221 71.6045 229.762 70.584 229.439 69.3438C229.117 68.1035 228.956 66.6338 228.956 64.9346C228.956 63.4697 229.103 62.1318 229.396 60.9209C229.698 59.71 230.143 58.6748 230.729 57.8154C231.324 56.9463 232.066 56.2773 232.955 55.8086C233.844 55.3301 234.879 55.0908 236.061 55.0908C237.086 55.0908 238.019 55.2861 238.858 55.6768C239.698 56.0576 240.416 56.6533 241.012 57.4639C241.607 58.2646 242.066 59.2852 242.389 60.5254C242.711 61.7656 242.872 63.2354 242.872 64.9346ZM240.294 65.0225C240.294 64.6904 240.279 64.3633 240.25 64.041C240.23 63.709 240.206 63.3867 240.177 63.0742L232.076 69.0947C232.223 69.6025 232.408 70.0713 232.633 70.501C232.857 70.9307 233.126 71.3018 233.438 71.6143C233.761 71.917 234.122 72.1562 234.522 72.332C234.933 72.498 235.396 72.5811 235.914 72.5811C236.578 72.5811 237.179 72.4199 237.716 72.0977C238.263 71.7754 238.727 71.2969 239.107 70.6621C239.488 70.0273 239.781 69.2412 239.986 68.3037C240.191 67.3564 240.294 66.2627 240.294 65.0225ZM231.534 64.8467C231.534 65.1494 231.534 65.4521 231.534 65.7549C231.544 66.0576 231.563 66.3506 231.593 66.6338L239.693 60.6426C239.547 60.1445 239.361 59.6904 239.137 59.2803C238.912 58.8701 238.644 58.5186 238.331 58.2256C238.019 57.9229 237.662 57.6885 237.262 57.5225C236.861 57.3564 236.412 57.2734 235.914 57.2734C235.25 57.2734 234.645 57.4346 234.098 57.7568C233.561 58.0791 233.102 58.5625 232.721 59.207C232.34 59.8418 232.047 60.6328 231.842 61.5801C231.637 62.5176 231.534 63.6064 231.534 64.8467Z" fill="#999999"/>
<rect x="202.5" y="98" width="66" height="66" fill="#FFE2D3" stroke="#7A7A7A"/>
<path d="M242.433 142.5H229.82V140.215L234.771 135.293C235.582 134.492 236.241 133.799 236.749 133.213C237.257 132.627 237.652 132.095 237.936 131.616C238.219 131.128 238.409 130.669 238.507 130.239C238.604 129.81 238.653 129.346 238.653 128.848C238.653 128.379 238.59 127.935 238.463 127.515C238.336 127.085 238.141 126.709 237.877 126.387C237.613 126.064 237.271 125.811 236.852 125.625C236.432 125.439 235.929 125.347 235.343 125.347C234.532 125.347 233.795 125.527 233.131 125.889C232.467 126.25 231.856 126.719 231.3 127.295L229.894 125.61C230.616 124.849 231.446 124.238 232.384 123.779C233.331 123.32 234.43 123.091 235.68 123.091C236.529 123.091 237.301 123.218 237.994 123.472C238.697 123.726 239.303 124.092 239.811 124.57C240.318 125.049 240.709 125.635 240.982 126.328C241.266 127.021 241.407 127.803 241.407 128.672C241.407 129.404 241.31 130.083 241.114 130.708C240.919 131.333 240.621 131.958 240.221 132.583C239.83 133.198 239.332 133.838 238.727 134.502C238.131 135.166 237.423 135.894 236.603 136.685L233.131 140.068H242.433V142.5Z" fill="black"/>
<path d="M242.872 197.935C242.872 199.399 242.726 200.737 242.433 201.948C242.14 203.149 241.695 204.185 241.1 205.054C240.504 205.913 239.762 206.582 238.873 207.061C237.994 207.529 236.959 207.764 235.768 207.764C234.742 207.764 233.81 207.573 232.97 207.192C232.13 206.802 231.412 206.206 230.816 205.405C230.221 204.604 229.762 203.584 229.439 202.344C229.117 201.104 228.956 199.634 228.956 197.935C228.956 196.47 229.103 195.132 229.396 193.921C229.698 192.71 230.143 191.675 230.729 190.815C231.324 189.946 232.066 189.277 232.955 188.809C233.844 188.33 234.879 188.091 236.061 188.091C237.086 188.091 238.019 188.286 238.858 188.677C239.698 189.058 240.416 189.653 241.012 190.464C241.607 191.265 242.066 192.285 242.389 193.525C242.711 194.766 242.872 196.235 242.872 197.935ZM240.294 198.022C240.294 197.69 240.279 197.363 240.25 197.041C240.23 196.709 240.206 196.387 240.177 196.074L232.076 202.095C232.223 202.603 232.408 203.071 232.633 203.501C232.857 203.931 233.126 204.302 233.438 204.614C233.761 204.917 234.122 205.156 234.522 205.332C234.933 205.498 235.396 205.581 235.914 205.581C236.578 205.581 237.179 205.42 237.716 205.098C238.263 204.775 238.727 204.297 239.107 203.662C239.488 203.027 239.781 202.241 239.986 201.304C240.191 200.356 240.294 199.263 240.294 198.022ZM231.534 197.847C231.534 198.149 231.534 198.452 231.534 198.755C231.544 199.058 231.563 199.351 231.593 199.634L239.693 193.643C239.547 193.145 239.361 192.69 239.137 192.28C238.912 191.87 238.644 191.519 238.331 191.226C238.019 190.923 237.662 190.688 237.262 190.522C236.861 190.356 236.412 190.273 235.914 190.273C235.25 190.273 234.645 190.435 234.098 190.757C233.561 191.079 233.102 191.562 232.721 192.207C232.34 192.842 232.047 193.633 231.842 194.58C231.637 195.518 231.534 196.606 231.534 197.847Z" fill="#999999"/>
<path opacity="0.5" d="M85.0127 17.9863C85.0127 18.5039 84.9248 18.9678 84.749 19.3779C84.5732 19.7881 84.334 20.1543 84.0312 20.4766C83.7285 20.7891 83.377 21.0576 82.9766 21.2822C82.5762 21.5068 82.1465 21.6924 81.6875 21.8389C81.2383 21.9854 80.7744 22.0928 80.2959 22.1611C79.8174 22.2295 79.3486 22.2637 78.8896 22.2637C77.8936 22.2637 76.9756 22.2197 76.1357 22.1318C75.3057 22.0439 74.4902 21.9023 73.6895 21.707V19.3633C74.5488 19.6074 75.4033 19.793 76.2529 19.9199C77.1025 20.0469 77.9473 20.1104 78.7871 20.1104C80.0078 20.1104 80.9111 19.9443 81.4971 19.6123C82.083 19.2803 82.376 18.8066 82.376 18.1914C82.376 17.9277 82.3271 17.6934 82.2295 17.4883C82.1416 17.2734 81.9756 17.0732 81.7314 16.8877C81.4873 16.6924 81.1064 16.4922 80.5889 16.2871C80.0811 16.082 79.3828 15.8477 78.4941 15.584C77.8301 15.3887 77.2148 15.1689 76.6484 14.9248C76.0918 14.6709 75.6084 14.373 75.1982 14.0312C74.7881 13.6895 74.4658 13.2891 74.2314 12.8301C73.9971 12.3711 73.8799 11.8291 73.8799 11.2041C73.8799 10.7939 73.9727 10.3447 74.1582 9.85645C74.3535 9.36816 74.6807 8.91406 75.1396 8.49414C75.5986 8.07422 76.2188 7.72754 77 7.4541C77.7812 7.1709 78.7578 7.0293 79.9297 7.0293C80.5059 7.0293 81.1455 7.06348 81.8486 7.13184C82.5518 7.19043 83.2842 7.29785 84.0459 7.4541V9.72461C83.2451 9.5293 82.4834 9.3877 81.7607 9.2998C81.0479 9.20215 80.4277 9.15332 79.9004 9.15332C79.2656 9.15332 78.7285 9.20215 78.2891 9.2998C77.8594 9.39746 77.5078 9.53418 77.2344 9.70996C76.9707 9.87598 76.7803 10.0762 76.6631 10.3105C76.5459 10.5352 76.4873 10.7793 76.4873 11.043C76.4873 11.3066 76.5361 11.5459 76.6338 11.7607C76.7412 11.9756 76.9316 12.1855 77.2051 12.3906C77.4883 12.5859 77.8789 12.7861 78.377 12.9912C78.875 13.1865 79.5244 13.4014 80.3252 13.6357C81.1943 13.8896 81.9268 14.1582 82.5225 14.4414C83.1182 14.7148 83.6016 15.0225 83.9727 15.3643C84.3438 15.7061 84.6074 16.0918 84.7637 16.5215C84.9297 16.9512 85.0127 17.4395 85.0127 17.9863ZM102.283 13.8701C102.283 14.2314 102.278 14.5342 102.269 14.7783C102.259 15.0225 102.244 15.252 102.225 15.4668H91.8975C91.8975 16.9707 92.3174 18.1279 93.1572 18.9385C93.9971 19.7393 95.208 20.1396 96.79 20.1396C97.2197 20.1396 97.6494 20.125 98.0791 20.0957C98.5088 20.0566 98.9238 20.0078 99.3242 19.9492C99.7246 19.8906 100.105 19.8271 100.467 19.7588C100.838 19.6807 101.18 19.5977 101.492 19.5098V21.6045C100.799 21.7998 100.013 21.9561 99.1338 22.0732C98.2646 22.2002 97.3613 22.2637 96.4238 22.2637C95.1641 22.2637 94.0801 22.0928 93.1719 21.751C92.2637 21.4092 91.5166 20.916 90.9307 20.2715C90.3545 19.6172 89.9248 18.8213 89.6416 17.8838C89.3682 16.9365 89.2314 15.8672 89.2314 14.6758C89.2314 13.6406 89.3779 12.6641 89.6709 11.7461C89.9736 10.8184 90.4082 10.0078 90.9746 9.31445C91.5508 8.61133 92.2539 8.05469 93.084 7.64453C93.9141 7.23438 94.8564 7.0293 95.9111 7.0293C96.9365 7.0293 97.8447 7.19043 98.6357 7.5127C99.4268 7.83496 100.091 8.29395 100.628 8.88965C101.175 9.47559 101.585 10.1934 101.858 11.043C102.142 11.8828 102.283 12.8252 102.283 13.8701ZM99.6318 13.5039C99.6611 12.8496 99.5977 12.2539 99.4414 11.7168C99.2852 11.1699 99.041 10.7012 98.709 10.3105C98.3867 9.91992 97.9814 9.61719 97.4932 9.40234C97.0049 9.17773 96.4385 9.06543 95.7939 9.06543C95.2373 9.06543 94.7295 9.17285 94.2705 9.3877C93.8115 9.60254 93.416 9.90527 93.084 10.2959C92.752 10.6865 92.4834 11.1553 92.2783 11.7021C92.0732 12.249 91.9463 12.8496 91.8975 13.5039H99.6318ZM117.781 21.458C117.117 21.7119 116.434 21.8975 115.73 22.0146C115.037 22.1416 114.319 22.2051 113.577 22.2051C111.253 22.2051 109.461 21.5752 108.201 20.3154C106.951 19.0557 106.326 17.2148 106.326 14.793C106.326 13.6309 106.507 12.5762 106.868 11.6289C107.229 10.6816 107.737 9.87109 108.392 9.19727C109.046 8.52344 109.827 8.00586 110.735 7.64453C111.644 7.27344 112.645 7.08789 113.738 7.08789C114.5 7.08789 115.213 7.1416 115.877 7.24902C116.541 7.35645 117.176 7.53223 117.781 7.77637V10.208C117.146 9.87598 116.497 9.63672 115.833 9.49023C115.179 9.33398 114.5 9.25586 113.797 9.25586C113.143 9.25586 112.522 9.38281 111.937 9.63672C111.36 9.88086 110.853 10.2373 110.413 10.7061C109.974 11.1748 109.627 11.7461 109.373 12.4199C109.119 13.0938 108.992 13.8555 108.992 14.7051C108.992 16.4824 109.422 17.8154 110.281 18.7041C111.15 19.583 112.352 20.0225 113.885 20.0225C114.578 20.0225 115.247 19.9443 115.892 19.7881C116.546 19.6318 117.176 19.3975 117.781 19.085V21.458ZM135.652 14.5293C135.652 15.6719 135.491 16.7217 135.169 17.6787C134.847 18.626 134.383 19.4414 133.777 20.125C133.172 20.7988 132.435 21.3262 131.565 21.707C130.696 22.0781 129.71 22.2637 128.606 22.2637C127.552 22.2637 126.604 22.1025 125.765 21.7803C124.935 21.4482 124.227 20.9648 123.641 20.3301C123.064 19.6953 122.62 18.9092 122.308 17.9717C122.005 17.0342 121.854 15.9551 121.854 14.7344C121.854 13.5918 122.015 12.5518 122.337 11.6143C122.659 10.667 123.123 9.85645 123.729 9.18262C124.334 8.49902 125.071 7.97168 125.94 7.60059C126.81 7.21973 127.796 7.0293 128.899 7.0293C129.954 7.0293 130.896 7.19531 131.727 7.52734C132.566 7.84961 133.274 8.32812 133.851 8.96289C134.437 9.58789 134.881 10.3691 135.184 11.3066C135.496 12.2441 135.652 13.3184 135.652 14.5293ZM133.045 14.6465C133.045 13.7383 132.942 12.9473 132.737 12.2734C132.542 11.5898 132.259 11.0234 131.888 10.5742C131.517 10.1152 131.062 9.77344 130.525 9.54883C129.998 9.31445 129.407 9.19727 128.753 9.19727C127.991 9.19727 127.337 9.34863 126.79 9.65137C126.253 9.94434 125.809 10.3398 125.457 10.8379C125.115 11.3359 124.861 11.917 124.695 12.5811C124.539 13.2354 124.461 13.9238 124.461 14.6465C124.461 15.5547 124.559 16.3506 124.754 17.0342C124.959 17.7178 125.247 18.2891 125.618 18.748C125.989 19.1973 126.438 19.5391 126.966 19.7734C127.493 19.998 128.089 20.1104 128.753 20.1104C129.515 20.1104 130.164 19.9639 130.701 19.6709C131.248 19.3682 131.692 18.9678 132.034 18.4697C132.386 17.9717 132.64 17.3955 132.796 16.7412C132.962 16.0771 133.045 15.3789 133.045 14.6465ZM139.344 7.29297H141.614L141.717 9.66602C142.146 9.1582 142.562 8.73828 142.962 8.40625C143.362 8.06445 143.753 7.79102 144.134 7.58594C144.524 7.38086 144.92 7.23926 145.32 7.16113C145.721 7.07324 146.136 7.0293 146.565 7.0293C148.079 7.0293 149.222 7.47852 149.993 8.37695C150.774 9.26562 151.165 10.6084 151.165 12.4053V22H148.616V12.6104C148.616 11.458 148.401 10.6084 147.972 10.0615C147.542 9.50488 146.902 9.22656 146.053 9.22656C145.74 9.22656 145.433 9.27539 145.13 9.37305C144.837 9.46094 144.529 9.62207 144.207 9.85645C143.885 10.0811 143.533 10.3887 143.152 10.7793C142.781 11.1699 142.361 11.6582 141.893 12.2441V22H139.344V7.29297ZM155.091 14.9541C155.091 13.7041 155.262 12.5957 155.604 11.6289C155.945 10.6523 156.429 9.83203 157.054 9.16797C157.688 8.49414 158.445 7.98633 159.324 7.64453C160.213 7.29297 161.199 7.11719 162.283 7.11719C162.752 7.11719 163.211 7.14648 163.66 7.20508C164.119 7.26367 164.568 7.35645 165.008 7.4834V1.30176H167.571V22H165.286L165.198 19.2168C164.485 20.252 163.714 21.0186 162.884 21.5166C162.054 22.0146 161.155 22.2637 160.188 22.2637C159.349 22.2637 158.606 22.0879 157.962 21.7363C157.327 21.3848 156.795 20.8916 156.365 20.2568C155.945 19.6123 155.628 18.8408 155.413 17.9424C155.198 17.0439 155.091 16.0479 155.091 14.9541ZM157.698 14.793C157.698 16.5703 157.957 17.8984 158.475 18.7773C159.002 19.6465 159.744 20.0811 160.701 20.0811C161.346 20.0811 162.024 19.793 162.737 19.2168C163.46 18.6406 164.217 17.7861 165.008 16.6533V9.82715C164.588 9.63184 164.124 9.48535 163.616 9.3877C163.108 9.28027 162.605 9.22656 162.107 9.22656C160.721 9.22656 159.637 9.67578 158.855 10.5742C158.084 11.4727 157.698 12.8789 157.698 14.793ZM200.882 16.1846C200.882 17.0244 200.711 17.8154 200.369 18.5576C200.027 19.29 199.515 19.9346 198.831 20.4912C198.147 21.0381 197.288 21.4727 196.253 21.7949C195.218 22.1074 194.012 22.2637 192.635 22.2637C191.873 22.2637 191.189 22.2393 190.584 22.1904C189.979 22.1416 189.412 22.0781 188.885 22V19.7148C189.49 19.8223 190.13 19.9053 190.804 19.9639C191.478 20.0225 192.166 20.0518 192.869 20.0518C193.826 20.0518 194.642 19.9688 195.315 19.8027C195.999 19.627 196.556 19.3779 196.985 19.0557C197.415 18.7334 197.728 18.3428 197.923 17.8838C198.118 17.4248 198.216 16.9072 198.216 16.3311C198.216 15.8037 198.099 15.3447 197.864 14.9541C197.63 14.5635 197.298 14.2363 196.868 13.9727C196.448 13.709 195.94 13.5137 195.345 13.3867C194.759 13.25 194.114 13.1816 193.411 13.1816H191.229V11.0869H193.44C194.017 11.0869 194.539 11.0137 195.008 10.8672C195.486 10.7109 195.892 10.4912 196.224 10.208C196.565 9.9248 196.824 9.57812 197 9.16797C197.186 8.74805 197.278 8.27441 197.278 7.74707C197.278 6.72168 196.966 5.97461 196.341 5.50586C195.716 5.03711 194.798 4.80273 193.587 4.80273C192.942 4.80273 192.278 4.86621 191.595 4.99316C190.911 5.12012 190.179 5.31055 189.397 5.56445V3.33789C189.729 3.2207 190.081 3.11816 190.452 3.03027C190.833 2.93262 191.209 2.85449 191.58 2.7959C191.961 2.72754 192.337 2.67871 192.708 2.64941C193.079 2.61035 193.436 2.59082 193.777 2.59082C194.793 2.59082 195.687 2.70313 196.458 2.92773C197.229 3.14258 197.874 3.45508 198.392 3.86523C198.909 4.27539 199.3 4.77344 199.563 5.35938C199.827 5.94531 199.959 6.60449 199.959 7.33691C199.959 8.43066 199.676 9.34863 199.109 10.0908C198.553 10.833 197.786 11.4238 196.81 11.8633C197.308 11.9414 197.796 12.0977 198.274 12.332C198.763 12.5664 199.197 12.8691 199.578 13.2402C199.969 13.6016 200.281 14.0312 200.516 14.5293C200.76 15.0273 200.882 15.5791 200.882 16.1846Z" fill="black"/>
<g opacity="0.5" filter="url(#filter0_d_6290_4614)">
<path d="M55.7929 64.7073C55.4024 64.3168 55.4024 63.6836 55.7929 63.2931L62.1568 56.9291C62.5473 56.5386 63.1805 56.5386 63.571 56.9291C63.9615 57.3196 63.9616 57.9528 63.571 58.3433L57.9142 64.0002L63.5711 69.657C63.9616 70.0475 63.9616 70.6807 63.5711 71.0712C63.1806 71.4617 62.5474 71.4617 62.1569 71.0712L55.7929 64.7073ZM56.5 63.0002L85 63L85 65L56.5 65.0002L56.5 63.0002Z" fill="black"/>
</g>
<path d="M396.337 58.4883C395.959 58.8799 395.976 59.5148 396.376 59.9064L402.893 66.2877C403.293 66.6792 403.924 66.6792 404.303 66.2877C404.681 65.8961 404.664 65.2612 404.264 64.8696L398.471 59.1973L403.957 53.525C404.336 53.1335 404.318 52.4986 403.919 52.107C403.519 51.7154 402.887 51.7154 402.509 52.107L396.337 58.4883ZM397.089 60.2L449.642 60.2L449.588 58.1946L397.034 58.1946L397.089 60.2Z" fill="black"/>
<path d="M607.689 137.468L668.068 137.468" stroke="black" stroke-width="2"/>
<path d="M585.19 160L585.19 189" stroke="black" stroke-width="2"/>
<path d="M583.922 82.0521L583.922 113.349" stroke="black" stroke-width="2"/>
<circle cx="365.506" cy="58.618" r="23.7454" transform="rotate(5.61091 365.506 58.618)" fill="#FFF4EF" stroke="#FF5500" stroke-width="2"/>
<path d="M371.709 68H359.097V65.7148L364.048 60.793C364.858 59.9922 365.518 59.2988 366.025 58.7129C366.533 58.127 366.929 57.5947 367.212 57.1162C367.495 56.6279 367.686 56.1689 367.783 55.7393C367.881 55.3096 367.93 54.8457 367.93 54.3477C367.93 53.8789 367.866 53.4346 367.739 53.0146C367.612 52.585 367.417 52.209 367.153 51.8867C366.89 51.5645 366.548 51.3105 366.128 51.125C365.708 50.9395 365.205 50.8467 364.619 50.8467C363.809 50.8467 363.071 51.0273 362.407 51.3887C361.743 51.75 361.133 52.2188 360.576 52.7949L359.17 51.1104C359.893 50.3486 360.723 49.7383 361.66 49.2793C362.607 48.8203 363.706 48.5908 364.956 48.5908C365.806 48.5908 366.577 48.7178 367.271 48.9717C367.974 49.2256 368.579 49.5918 369.087 50.0703C369.595 50.5488 369.985 51.1348 370.259 51.8281C370.542 52.5215 370.684 53.3027 370.684 54.1719C370.684 54.9043 370.586 55.583 370.391 56.208C370.195 56.833 369.897 57.458 369.497 58.083C369.106 58.6982 368.608 59.3379 368.003 60.002C367.407 60.666 366.699 61.3936 365.879 62.1846L362.407 65.5684H371.709V68Z" fill="black"/>
<circle cx="474.386" cy="58.618" r="23.7454" transform="rotate(5.61091 474.386 58.618)" fill="#FFF9F6" stroke="#FFA477" stroke-width="2"/>
<path d="M481.209 68H468.597V65.7148L473.548 60.793C474.358 59.9922 475.018 59.2988 475.525 58.7129C476.033 58.127 476.429 57.5947 476.712 57.1162C476.995 56.6279 477.186 56.1689 477.283 55.7393C477.381 55.3096 477.43 54.8457 477.43 54.3477C477.43 53.8789 477.366 53.4346 477.239 53.0146C477.112 52.585 476.917 52.209 476.653 51.8867C476.39 51.5645 476.048 51.3105 475.628 51.125C475.208 50.9395 474.705 50.8467 474.119 50.8467C473.309 50.8467 472.571 51.0273 471.907 51.3887C471.243 51.75 470.633 52.2188 470.076 52.7949L468.67 51.1104C469.393 50.3486 470.223 49.7383 471.16 49.2793C472.107 48.8203 473.206 48.5908 474.456 48.5908C475.306 48.5908 476.077 48.7178 476.771 48.9717C477.474 49.2256 478.079 49.5918 478.587 50.0703C479.095 50.5488 479.485 51.1348 479.759 51.8281C480.042 52.5215 480.184 53.3027 480.184 54.1719C480.184 54.9043 480.086 55.583 479.891 56.208C479.695 56.833 479.397 57.458 478.997 58.083C478.606 58.6982 478.108 59.3379 477.503 60.002C476.907 60.666 476.199 61.3936 475.379 62.1846L471.907 65.5684H481.209V68Z" fill="black"/>
<path d="M497.82 59.3012L558.494 59.1973" stroke="black" stroke-width="2"/>
<circle cx="474.386" cy="213.029" r="23.7454" transform="rotate(5.61091 474.386 213.029)" fill="#FFF9F6" stroke="#FFA477" stroke-width="2"/>
<path d="M481.209 222H468.597V219.715L473.548 214.793C474.358 213.992 475.018 213.299 475.525 212.713C476.033 212.127 476.429 211.595 476.712 211.116C476.995 210.628 477.186 210.169 477.283 209.739C477.381 209.31 477.43 208.846 477.43 208.348C477.43 207.879 477.366 207.435 477.239 207.015C477.112 206.585 476.917 206.209 476.653 205.887C476.39 205.564 476.048 205.311 475.628 205.125C475.208 204.939 474.705 204.847 474.119 204.847C473.309 204.847 472.571 205.027 471.907 205.389C471.243 205.75 470.633 206.219 470.076 206.795L468.67 205.11C469.393 204.349 470.223 203.738 471.16 203.279C472.107 202.82 473.206 202.591 474.456 202.591C475.306 202.591 476.077 202.718 476.771 202.972C477.474 203.226 478.079 203.592 478.587 204.07C479.095 204.549 479.485 205.135 479.759 205.828C480.042 206.521 480.184 207.303 480.184 208.172C480.184 208.904 480.086 209.583 479.891 210.208C479.695 210.833 479.397 211.458 478.997 212.083C478.606 212.698 478.108 213.338 477.503 214.002C476.907 214.666 476.199 215.394 475.379 216.185L471.907 219.568H481.209V222Z" fill="black"/>
<path d="M505.148 212.901C504.756 213.292 504.754 213.925 505.143 214.315L511.489 220.677C511.879 221.067 512.512 221.067 512.904 220.677C513.296 220.287 513.298 219.654 512.908 219.263L507.268 213.608L512.944 207.953C513.336 207.563 513.338 206.93 512.948 206.539C512.559 206.149 511.926 206.149 511.534 206.539L505.148 212.901ZM505.85 214.608L558.491 214.608L558.498 212.609L505.856 212.609L505.85 214.608Z" fill="black"/>
<circle cx="583.265" cy="58.618" r="23.7454" transform="rotate(5.61091 583.265 58.618)" fill="#FFF9F6" stroke="#FFA477" stroke-width="2"/>
<path d="M590.709 68H578.097V65.7148L583.048 60.793C583.858 59.9922 584.518 59.2988 585.025 58.7129C585.533 58.127 585.929 57.5947 586.212 57.1162C586.495 56.6279 586.686 56.1689 586.783 55.7393C586.881 55.3096 586.93 54.8457 586.93 54.3477C586.93 53.8789 586.866 53.4346 586.739 53.0146C586.612 52.585 586.417 52.209 586.153 51.8867C585.89 51.5645 585.548 51.3105 585.128 51.125C584.708 50.9395 584.205 50.8467 583.619 50.8467C582.809 50.8467 582.071 51.0273 581.407 51.3887C580.743 51.75 580.133 52.2188 579.576 52.7949L578.17 51.1104C578.893 50.3486 579.723 49.7383 580.66 49.2793C581.607 48.8203 582.706 48.5908 583.956 48.5908C584.806 48.5908 585.577 48.7178 586.271 48.9717C586.974 49.2256 587.579 49.5918 588.087 50.0703C588.595 50.5488 588.985 51.1348 589.259 51.8281C589.542 52.5215 589.684 53.3027 589.684 54.1719C589.684 54.9043 589.586 55.583 589.391 56.208C589.195 56.833 588.897 57.458 588.497 58.083C588.106 58.6982 587.608 59.3379 587.003 60.002C586.407 60.666 585.699 61.3936 584.879 62.1846L581.407 65.5684H590.709V68Z" fill="black"/>
<circle cx="583.265" cy="136.813" r="23.7454" transform="rotate(5.61091 583.265 136.813)" fill="#FFF9F6" stroke="#FFA477" stroke-width="2"/>
<path d="M590.709 146H578.097V143.715L583.048 138.793C583.858 137.992 584.518 137.299 585.025 136.713C585.533 136.127 585.929 135.595 586.212 135.116C586.495 134.628 586.686 134.169 586.783 133.739C586.881 133.31 586.93 132.846 586.93 132.348C586.93 131.879 586.866 131.435 586.739 131.015C586.612 130.585 586.417 130.209 586.153 129.887C585.89 129.564 585.548 129.311 585.128 129.125C584.708 128.939 584.205 128.847 583.619 128.847C582.809 128.847 582.071 129.027 581.407 129.389C580.743 129.75 580.133 130.219 579.576 130.795L578.17 129.11C578.893 128.349 579.723 127.738 580.66 127.279C581.607 126.82 582.706 126.591 583.956 126.591C584.806 126.591 585.577 126.718 586.271 126.972C586.974 127.226 587.579 127.592 588.087 128.07C588.595 128.549 588.985 129.135 589.259 129.828C589.542 130.521 589.684 131.303 589.684 132.172C589.684 132.904 589.586 133.583 589.391 134.208C589.195 134.833 588.897 135.458 588.497 136.083C588.106 136.698 587.608 137.338 587.003 138.002C586.407 138.666 585.699 139.394 584.879 140.185L581.407 143.568H590.709V146Z" fill="black"/>
<circle cx="583.265" cy="213.057" r="23.7454" transform="rotate(5.61091 583.265 213.057)" fill="#FFF9F6" stroke="#FFA477" stroke-width="2"/>
<path d="M590.709 222H578.097V219.715L583.048 214.793C583.858 213.992 584.518 213.299 585.025 212.713C585.533 212.127 585.929 211.595 586.212 211.116C586.495 210.628 586.686 210.169 586.783 209.739C586.881 209.31 586.93 208.846 586.93 208.348C586.93 207.879 586.866 207.435 586.739 207.015C586.612 206.585 586.417 206.209 586.153 205.887C585.89 205.564 585.548 205.311 585.128 205.125C584.708 204.939 584.205 204.847 583.619 204.847C582.809 204.847 582.071 205.027 581.407 205.389C580.743 205.75 580.133 206.219 579.576 206.795L578.17 205.11C578.893 204.349 579.723 203.738 580.66 203.279C581.607 202.82 582.706 202.591 583.956 202.591C584.806 202.591 585.577 202.718 586.271 202.972C586.974 203.226 587.579 203.592 588.087 204.07C588.595 204.549 588.985 205.135 589.259 205.828C589.542 206.521 589.684 207.303 589.684 208.172C589.684 208.904 589.586 209.583 589.391 210.208C589.195 210.833 588.897 211.458 588.497 212.083C588.106 212.698 587.608 213.338 587.003 214.002C586.407 214.666 585.699 215.394 584.879 216.185L581.407 219.568H590.709V222Z" fill="black"/>
<circle cx="692.144" cy="136.813" r="23.7454" transform="rotate(5.61091 692.144 136.813)" fill="#FFF9F6" stroke="#FFA477" stroke-width="2"/>
<path d="M698.209 146H685.597V143.715L690.548 138.793C691.358 137.992 692.018 137.299 692.525 136.713C693.033 136.127 693.429 135.595 693.712 135.116C693.995 134.628 694.186 134.169 694.283 133.739C694.381 133.31 694.43 132.846 694.43 132.348C694.43 131.879 694.366 131.435 694.239 131.015C694.112 130.585 693.917 130.209 693.653 129.887C693.39 129.564 693.048 129.311 692.628 129.125C692.208 128.939 691.705 128.847 691.119 128.847C690.309 128.847 689.571 129.027 688.907 129.389C688.243 129.75 687.633 130.219 687.076 130.795L685.67 129.11C686.393 128.349 687.223 127.738 688.16 127.279C689.107 126.82 690.206 126.591 691.456 126.591C692.306 126.591 693.077 126.718 693.771 126.972C694.474 127.226 695.079 127.592 695.587 128.07C696.095 128.549 696.485 129.135 696.759 129.828C697.042 130.521 697.184 131.303 697.184 132.172C697.184 132.904 697.086 133.583 696.891 134.208C696.695 134.833 696.397 135.458 695.997 136.083C695.606 136.698 695.108 137.338 694.503 138.002C693.907 138.666 693.199 139.394 692.379 140.185L688.907 143.568H698.209V146Z" fill="black"/>
<path opacity="0.5" d="M351.914 22.2041C351.914 22.9404 351.749 23.571 351.419 24.0957C351.097 24.612 350.666 25.0352 350.124 25.3652C349.591 25.6868 348.981 25.9196 348.296 26.0635C347.619 26.2158 346.925 26.292 346.214 26.292C345.266 26.292 344.411 26.2454 343.649 26.1523C342.888 26.0677 342.168 25.9408 341.491 25.7715V22.9785C342.287 23.3086 343.078 23.5498 343.865 23.7021C344.661 23.846 345.41 23.918 346.112 23.918C346.925 23.918 347.53 23.791 347.928 23.5371C348.334 23.2747 348.537 22.9362 348.537 22.5215C348.537 22.3268 348.495 22.1491 348.41 21.9883C348.326 21.8275 348.165 21.6751 347.928 21.5312C347.699 21.3789 347.373 21.2266 346.95 21.0742C346.527 20.9134 345.973 20.7357 345.287 20.541C344.652 20.3633 344.094 20.1644 343.611 19.9443C343.137 19.7158 342.744 19.4492 342.431 19.1445C342.118 18.8398 341.881 18.4886 341.72 18.0908C341.567 17.6846 341.491 17.2106 341.491 16.6689C341.491 16.1442 341.61 15.6491 341.847 15.1836C342.084 14.7181 342.435 14.3118 342.9 13.9648C343.374 13.6094 343.963 13.3301 344.665 13.127C345.368 12.9238 346.188 12.8223 347.128 12.8223C347.94 12.8223 348.66 12.8646 349.286 12.9492C349.912 13.0339 350.467 13.127 350.949 13.2285V15.7549C350.213 15.5179 349.519 15.3529 348.867 15.2598C348.224 15.1582 347.585 15.1074 346.95 15.1074C346.315 15.1074 345.803 15.2217 345.414 15.4502C345.033 15.6787 344.843 15.9961 344.843 16.4023C344.843 16.597 344.881 16.7705 344.957 16.9229C345.033 17.0752 345.181 17.2233 345.401 17.3672C345.63 17.5111 345.943 17.6634 346.341 17.8242C346.747 17.9766 347.28 18.1458 347.94 18.332C348.685 18.5436 349.312 18.7721 349.819 19.0176C350.327 19.2546 350.733 19.5254 351.038 19.8301C351.351 20.1348 351.576 20.4818 351.711 20.8711C351.846 21.2604 351.914 21.7048 351.914 22.2041ZM366.806 18.5605C366.806 18.7721 366.797 19.0472 366.78 19.3857C366.772 19.7243 366.755 20.0417 366.729 20.3379H358.249C358.249 20.9049 358.334 21.4043 358.503 21.8359C358.681 22.2676 358.926 22.6315 359.239 22.9277C359.561 23.2155 359.942 23.4355 360.382 23.5879C360.83 23.7402 361.326 23.8164 361.867 23.8164C362.493 23.8164 363.162 23.7699 363.873 23.6768C364.592 23.5752 365.337 23.4144 366.107 23.1943V25.6572C365.777 25.7503 365.418 25.835 365.028 25.9111C364.639 25.9873 364.241 26.055 363.835 26.1143C363.429 26.1735 363.018 26.2158 362.604 26.2412C362.189 26.2751 361.787 26.292 361.397 26.292C360.416 26.292 359.535 26.1523 358.757 25.873C357.978 25.5938 357.318 25.1833 356.776 24.6416C356.235 24.0915 355.82 23.4144 355.532 22.6104C355.244 21.8063 355.101 20.8753 355.101 19.8174C355.101 18.7679 355.244 17.8158 355.532 16.9609C355.82 16.0977 356.226 15.3613 356.751 14.752C357.276 14.1341 357.91 13.6602 358.655 13.3301C359.409 12.9915 360.246 12.8223 361.169 12.8223C362.083 12.8223 362.891 12.9661 363.594 13.2539C364.296 13.5332 364.884 13.9268 365.358 14.4346C365.832 14.9424 366.192 15.5475 366.438 16.25C366.683 16.9525 366.806 17.7227 366.806 18.5605ZM363.657 18.1162C363.666 17.6084 363.602 17.1683 363.467 16.7959C363.331 16.415 363.145 16.1019 362.908 15.8564C362.68 15.611 362.409 15.429 362.096 15.3105C361.791 15.1921 361.461 15.1328 361.105 15.1328C360.327 15.1328 359.688 15.3952 359.188 15.9199C358.689 16.4362 358.393 17.1683 358.3 18.1162H363.657ZM380.301 25.5049C379.691 25.7503 379.061 25.9323 378.409 26.0508C377.757 26.1693 377.076 26.2285 376.365 26.2285C375.341 26.2285 374.423 26.0889 373.61 25.8096C372.798 25.5303 372.108 25.1156 371.541 24.5654C370.974 24.0153 370.538 23.334 370.233 22.5215C369.937 21.709 369.789 20.7695 369.789 19.7031C369.789 18.6706 369.95 17.7354 370.271 16.8975C370.602 16.0596 371.063 15.3444 371.655 14.752C372.248 14.1595 372.959 13.7025 373.788 13.3809C374.626 13.0592 375.557 12.8984 376.581 12.8984C377.419 12.8984 378.121 12.945 378.688 13.0381C379.264 13.1227 379.78 13.2327 380.237 13.3682V16.377C379.713 16.1146 379.141 15.9115 378.523 15.7676C377.914 15.6237 377.334 15.5518 376.784 15.5518C376.209 15.5518 375.692 15.6491 375.235 15.8438C374.778 16.0384 374.393 16.3092 374.08 16.6562C373.767 17.0033 373.526 17.4264 373.356 17.9258C373.196 18.4167 373.115 18.9583 373.115 19.5508C373.115 20.1686 373.204 20.723 373.382 21.2139C373.56 21.7048 373.809 22.1237 374.131 22.4707C374.461 22.8092 374.854 23.0716 375.312 23.2578C375.769 23.4355 376.276 23.5244 376.835 23.5244C377.106 23.5244 377.389 23.5075 377.686 23.4736C377.99 23.4313 378.291 23.3763 378.587 23.3086C378.892 23.2324 379.188 23.1478 379.476 23.0547C379.772 22.9616 380.047 22.86 380.301 22.75V25.5049ZM395.776 19.4492C395.776 20.4648 395.632 21.3958 395.345 22.2422C395.057 23.0801 394.642 23.7995 394.101 24.4004C393.559 25.0013 392.895 25.4668 392.107 25.7969C391.32 26.127 390.423 26.292 389.416 26.292C388.46 26.292 387.605 26.1523 386.852 25.873C386.098 25.5938 385.459 25.179 384.935 24.6289C384.41 24.0703 384.008 23.3763 383.729 22.5469C383.449 21.709 383.31 20.7357 383.31 19.627C383.31 18.6029 383.453 17.6719 383.741 16.834C384.037 15.9961 384.456 15.2809 384.998 14.6885C385.548 14.096 386.217 13.639 387.004 13.3174C387.791 12.9873 388.68 12.8223 389.67 12.8223C390.635 12.8223 391.494 12.9661 392.247 13.2539C393 13.5332 393.639 13.9521 394.164 14.5107C394.689 15.0693 395.087 15.7633 395.357 16.5928C395.637 17.4137 395.776 18.3659 395.776 19.4492ZM392.552 19.5254C392.552 18.1882 392.298 17.1852 391.79 16.5166C391.291 15.8395 390.55 15.501 389.568 15.501C389.027 15.501 388.565 15.6068 388.185 15.8184C387.804 16.0299 387.491 16.3219 387.245 16.6943C387 17.0583 386.818 17.4857 386.699 17.9766C386.589 18.4674 386.534 18.9922 386.534 19.5508C386.534 20.8965 386.805 21.9121 387.347 22.5977C387.888 23.2747 388.629 23.6133 389.568 23.6133C390.085 23.6133 390.533 23.5117 390.914 23.3086C391.295 23.097 391.604 22.8092 391.841 22.4453C392.078 22.0729 392.256 21.637 392.374 21.1377C392.493 20.6383 392.552 20.1009 392.552 19.5254ZM406.148 26V17.5957C406.148 16.1823 405.624 15.4756 404.574 15.4756C404.049 15.4756 403.546 15.6872 403.063 16.1104C402.59 16.5335 402.086 17.109 401.553 17.8369V26H398.455V13.1016H401.134L401.21 15.0059C401.472 14.6758 401.743 14.3753 402.022 14.1045C402.31 13.8337 402.619 13.6051 402.949 13.4189C403.279 13.2243 403.635 13.0762 404.016 12.9746C404.396 12.873 404.824 12.8223 405.298 12.8223C405.958 12.8223 406.534 12.9323 407.024 13.1523C407.515 13.3639 407.926 13.6686 408.256 14.0664C408.586 14.4557 408.831 14.9297 408.992 15.4883C409.161 16.0384 409.246 16.6562 409.246 17.3418V26H406.148ZM420.862 26L420.786 24.0957C420.515 24.4258 420.236 24.7262 419.948 24.9971C419.66 25.2679 419.352 25.5007 419.021 25.6953C418.691 25.8815 418.336 26.0254 417.955 26.127C417.583 26.237 417.168 26.292 416.711 26.292C415.949 26.292 415.272 26.1396 414.68 25.835C414.087 25.5303 413.588 25.0986 413.182 24.54C412.784 23.973 412.479 23.2874 412.268 22.4834C412.056 21.6794 411.95 20.7822 411.95 19.792C411.95 18.6071 412.115 17.583 412.445 16.7197C412.784 15.848 413.249 15.1286 413.842 14.5615C414.434 13.986 415.137 13.5628 415.949 13.292C416.762 13.0127 417.646 12.873 418.603 12.873C418.924 12.873 419.246 12.8942 419.567 12.9365C419.897 12.9788 420.189 13.0339 420.443 13.1016V8.06152H423.541V26H420.862ZM415.2 19.6523C415.2 20.3633 415.247 20.9727 415.34 21.4805C415.441 21.9798 415.585 22.3903 415.771 22.7119C415.966 23.0335 416.203 23.2705 416.482 23.4229C416.762 23.5667 417.079 23.6387 417.435 23.6387C417.959 23.6387 418.459 23.4271 418.933 23.0039C419.407 22.5807 419.91 22.001 420.443 21.2646V15.6279C420.198 15.5348 419.893 15.4587 419.529 15.3994C419.174 15.3402 418.814 15.3105 418.45 15.3105C417.951 15.3105 417.502 15.4121 417.104 15.6152C416.707 15.8184 416.364 16.1061 416.076 16.4785C415.797 16.8509 415.581 17.3079 415.429 17.8496C415.276 18.3828 415.2 18.9837 415.2 19.6523ZM452.524 20.9346C452.524 21.7555 452.372 22.4961 452.067 23.1562C451.763 23.8079 451.293 24.3665 450.658 24.832C450.032 25.2891 449.241 25.6403 448.284 25.8857C447.328 26.1312 446.202 26.2539 444.907 26.2539C444.619 26.2539 444.315 26.2454 443.993 26.2285C443.68 26.2201 443.367 26.2031 443.054 26.1777C442.741 26.1608 442.436 26.1354 442.14 26.1016C441.843 26.0762 441.577 26.0423 441.34 26V23.3086C441.873 23.4102 442.47 23.4948 443.13 23.5625C443.799 23.6217 444.493 23.6514 445.212 23.6514C445.914 23.6514 446.52 23.5921 447.027 23.4736C447.535 23.3551 447.954 23.1859 448.284 22.9658C448.614 22.7373 448.855 22.458 449.008 22.1279C449.169 21.7979 449.249 21.4255 449.249 21.0107C449.249 20.6468 449.169 20.3167 449.008 20.0205C448.847 19.7243 448.602 19.4746 448.271 19.2715C447.941 19.0599 447.518 18.8991 447.002 18.7891C446.494 18.6706 445.889 18.6113 445.187 18.6113H443.346V16.25H445.034C445.694 16.25 446.24 16.1865 446.672 16.0596C447.112 15.9242 447.459 15.7464 447.713 15.5264C447.975 15.3063 448.161 15.0482 448.271 14.752C448.382 14.4473 448.437 14.1299 448.437 13.7998C448.437 13.1227 448.216 12.6107 447.776 12.2637C447.336 11.9082 446.655 11.7305 445.732 11.7305C445.072 11.7305 444.421 11.7939 443.777 11.9209C443.134 12.0479 442.47 12.2171 441.784 12.4287V9.82617C442.165 9.69922 442.529 9.59342 442.876 9.50879C443.223 9.42415 443.57 9.35221 443.917 9.29297C444.264 9.23372 444.615 9.19141 444.971 9.16602C445.326 9.14062 445.694 9.12793 446.075 9.12793C446.989 9.12793 447.789 9.22526 448.475 9.41992C449.169 9.61458 449.748 9.89388 450.214 10.2578C450.688 10.6133 451.043 11.0492 451.28 11.5654C451.517 12.0817 451.636 12.6572 451.636 13.292C451.636 14.2992 451.403 15.1159 450.938 15.7422C450.48 16.36 449.837 16.834 449.008 17.1641C449.541 17.2487 450.023 17.3968 450.455 17.6084C450.887 17.8115 451.255 18.0781 451.56 18.4082C451.873 18.7298 452.11 19.1022 452.271 19.5254C452.44 19.9486 452.524 20.4183 452.524 20.9346Z" fill="black"/>
</g>
<defs>
<filter id="filter0_d_6290_4614" x="51.5" y="56.6362" width="37.5" height="22.7279" filterUnits="userSpaceOnUse" color-interpolation-filters="sRGB">
<feFlood flood-opacity="0" result="BackgroundImageFix"/>
<feColorMatrix in="SourceAlpha" type="matrix" values="0 0 0 0 0 0 0 0 0 0 0 0 0 0 0 0 0 0 127 0" result="hardAlpha"/>
<feOffset dy="4"/>
<feGaussianBlur stdDeviation="2"/>
<feComposite in2="hardAlpha" operator="out"/>
<feColorMatrix type="matrix" values="0 0 0 0 0 0 0 0 0 0 0 0 0 0 0 0 0 0 0.25 0"/>
<feBlend mode="normal" in2="BackgroundImageFix" result="effect1_dropShadow_6290_4614"/>
<feBlend mode="normal" in="SourceGraphic" in2="effect1_dropShadow_6290_4614" result="shape"/>
</filter>
<clipPath id="clip0_6290_4614">
<rect width="782" height="240" fill="white"/>
</clipPath>
</defs>
</svg>
