<svg width="280" height="282" viewBox="0 0 280 282" fill="none" xmlns="http://www.w3.org/2000/svg">
<g clip-path="url(#clip0_6294_261)">
<rect width="280" height="282" fill="white"/>
<path d="M140 72H210" stroke="black" stroke-width="3"/>
<path d="M70 142H140" stroke="black" stroke-width="3"/>
<path d="M0 212H70" stroke="black" stroke-width="3"/>
<path d="M1 212L0.999997 282" stroke="black" stroke-width="3" stroke-dasharray="8 8"/>
<path d="M70 141L70 213" stroke="black" stroke-width="3"/>
<path d="M140 71L140 143" stroke="black" stroke-width="3"/>
<path d="M210 2L210 73" stroke="black" stroke-width="3"/>
<path d="M209 3.00001L280 3" stroke="black" stroke-width="3" stroke-dasharray="8 8"/>
<line x1="210" y1="3" x2="227" y2="3" stroke="black" stroke-width="3"/>
<line x1="234" y1="3" x2="251" y2="3" stroke="black" stroke-width="3"/>
<line x1="1" y1="213" x2="1" y2="230" stroke="black" stroke-width="3"/>
<line x1="1" y1="238" x2="1" y2="255" stroke="black" stroke-width="3"/>
<path d="M174.285 12.9219H170.805V11.2344H176.348V21.3008H179.852V23H170.418V21.3008H174.285V12.9219ZM175 6.30078C175.227 6.30078 175.438 6.34375 175.633 6.42969C175.828 6.50781 175.996 6.62109 176.137 6.76953C176.285 6.91797 176.398 7.08984 176.477 7.28516C176.562 7.47266 176.605 7.67969 176.605 7.90625C176.605 8.125 176.562 8.33203 176.477 8.52734C176.398 8.72266 176.285 8.89453 176.137 9.04297C175.996 9.19141 175.828 9.30859 175.633 9.39453C175.438 9.47266 175.227 9.51172 175 9.51172C174.773 9.51172 174.562 9.47266 174.367 9.39453C174.172 9.30859 174 9.19141 173.852 9.04297C173.711 8.89453 173.598 8.72266 173.512 8.52734C173.434 8.33203 173.395 8.125 173.395 7.90625C173.395 7.67969 173.434 7.47266 173.512 7.28516C173.598 7.08984 173.711 6.91797 173.852 6.76953C174 6.62109 174.172 6.50781 174.367 6.42969C174.562 6.34375 174.773 6.30078 175 6.30078Z" fill="black"/>
<path d="M174.293 57.7071C174.683 58.0976 175.317 58.0976 175.707 57.7071L182.071 51.3431C182.462 50.9526 182.462 50.3195 182.071 49.9289C181.681 49.5384 181.047 49.5384 180.657 49.9289L175 55.5858L169.343 49.9289C168.953 49.5384 168.319 49.5384 167.929 49.9289C167.538 50.3195 167.538 50.9526 167.929 51.3431L174.293 57.7071ZM174 30L174 57L176 57L176 30L174 30Z" fill="black"/>
<rect x="161" y="1" width="28" height="28" rx="6" stroke="black" stroke-width="2"/>
</g>
<defs>
<clipPath id="clip0_6294_261">
<rect width="280" height="282" fill="white"/>
</clipPath>
</defs>
</svg>
