<svg width="1131" height="154" viewBox="0 0 1131 154" fill="none" xmlns="http://www.w3.org/2000/svg">
<g clip-path="url(#clip0_6295_4035)">
<rect width="1131" height="154" fill="white"/>
<path d="M40.6045 91H28.5781V88.627H33.5V74.6523L28.915 77.1426L27.9775 74.9746L34.0713 71.7666H36.3271V88.627H40.6045V91ZM106.581 91H94.5547V88.627H99.4766V74.6523L94.8916 77.1426L93.9541 74.9746L100.048 71.7666H102.304V88.627H106.581V91ZM154.086 84.2178H145.326V81.8154H154.086V84.2178ZM172.353 85.1846C172.353 86.0244 172.182 86.8154 171.84 87.5576C171.498 88.29 170.985 88.9346 170.302 89.4912C169.618 90.0381 168.759 90.4727 167.724 90.7949C166.688 91.1074 165.482 91.2637 164.105 91.2637C163.344 91.2637 162.66 91.2393 162.055 91.1904C161.449 91.1416 160.883 91.0781 160.355 91V88.7148C160.961 88.8223 161.601 88.9053 162.274 88.9639C162.948 89.0225 163.637 89.0518 164.34 89.0518C165.297 89.0518 166.112 88.9688 166.786 88.8027C167.47 88.627 168.026 88.3779 168.456 88.0557C168.886 87.7334 169.198 87.3428 169.394 86.8838C169.589 86.4248 169.687 85.9072 169.687 85.3311C169.687 84.8037 169.569 84.3447 169.335 83.9541C169.101 83.5635 168.769 83.2363 168.339 82.9727C167.919 82.709 167.411 82.5137 166.815 82.3867C166.229 82.25 165.585 82.1816 164.882 82.1816H162.699V80.0869H164.911C165.487 80.0869 166.01 80.0137 166.479 79.8672C166.957 79.7109 167.362 79.4912 167.694 79.208C168.036 78.9248 168.295 78.5781 168.471 78.168C168.656 77.748 168.749 77.2744 168.749 76.7471C168.749 75.7217 168.437 74.9746 167.812 74.5059C167.187 74.0371 166.269 73.8027 165.058 73.8027C164.413 73.8027 163.749 73.8662 163.065 73.9932C162.382 74.1201 161.649 74.3105 160.868 74.5645V72.3379C161.2 72.2207 161.552 72.1182 161.923 72.0303C162.304 71.9326 162.68 71.8545 163.051 71.7959C163.432 71.7275 163.808 71.6787 164.179 71.6494C164.55 71.6104 164.906 71.5908 165.248 71.5908C166.264 71.5908 167.157 71.7031 167.929 71.9277C168.7 72.1426 169.345 72.4551 169.862 72.8652C170.38 73.2754 170.771 73.7734 171.034 74.3594C171.298 74.9453 171.43 75.6045 171.43 76.3369C171.43 77.4307 171.146 78.3486 170.58 79.0908C170.023 79.833 169.257 80.4238 168.28 80.8633C168.778 80.9414 169.267 81.0977 169.745 81.332C170.233 81.5664 170.668 81.8691 171.049 82.2402C171.439 82.6016 171.752 83.0312 171.986 83.5293C172.23 84.0273 172.353 84.5791 172.353 85.1846ZM238.695 91H226.083V88.7148L231.034 83.793C231.845 82.9922 232.504 82.2988 233.012 81.7129C233.52 81.127 233.915 80.5947 234.198 80.1162C234.481 79.6279 234.672 79.1689 234.77 78.7393C234.867 78.3096 234.916 77.8457 234.916 77.3477C234.916 76.8789 234.853 76.4346 234.726 76.0146C234.599 75.585 234.403 75.209 234.14 74.8867C233.876 74.5645 233.534 74.3105 233.114 74.125C232.694 73.9395 232.191 73.8467 231.605 73.8467C230.795 73.8467 230.058 74.0273 229.394 74.3887C228.729 74.75 228.119 75.2188 227.562 75.7949L226.156 74.1104C226.879 73.3486 227.709 72.7383 228.646 72.2793C229.594 71.8203 230.692 71.5908 231.942 71.5908C232.792 71.5908 233.563 71.7178 234.257 71.9717C234.96 72.2256 235.565 72.5918 236.073 73.0703C236.581 73.5488 236.972 74.1348 237.245 74.8281C237.528 75.5215 237.67 76.3027 237.67 77.1719C237.67 77.9043 237.572 78.583 237.377 79.208C237.182 79.833 236.884 80.458 236.483 81.083C236.093 81.6982 235.595 82.3379 234.989 83.002C234.394 83.666 233.686 84.3936 232.865 85.1846L229.394 88.5684H238.695V91ZM304.511 91H292.484V88.627H297.406V74.6523L292.821 77.1426L291.884 74.9746L297.978 71.7666H300.233V88.627H304.511V91ZM352.016 84.2178H343.256V81.8154H352.016V84.2178ZM371.601 86.7666H368.334V91H365.727V86.7666H356.513V84.5254L364.672 71.8545H368.334V84.5254H371.601V86.7666ZM365.727 74.3154L359.062 84.5254H365.727V74.3154ZM436.259 85.1846C436.259 86.0244 436.088 86.8154 435.746 87.5576C435.404 88.29 434.892 88.9346 434.208 89.4912C433.524 90.0381 432.665 90.4727 431.63 90.7949C430.595 91.1074 429.389 91.2637 428.012 91.2637C427.25 91.2637 426.566 91.2393 425.961 91.1904C425.355 91.1416 424.789 91.0781 424.262 91V88.7148C424.867 88.8223 425.507 88.9053 426.181 88.9639C426.854 89.0225 427.543 89.0518 428.246 89.0518C429.203 89.0518 430.019 88.9688 430.692 88.8027C431.376 88.627 431.933 88.3779 432.362 88.0557C432.792 87.7334 433.104 87.3428 433.3 86.8838C433.495 86.4248 433.593 85.9072 433.593 85.3311C433.593 84.8037 433.476 84.3447 433.241 83.9541C433.007 83.5635 432.675 83.2363 432.245 82.9727C431.825 82.709 431.317 82.5137 430.722 82.3867C430.136 82.25 429.491 82.1816 428.788 82.1816H426.605V80.0869H428.817C429.394 80.0869 429.916 80.0137 430.385 79.8672C430.863 79.7109 431.269 79.4912 431.601 79.208C431.942 78.9248 432.201 78.5781 432.377 78.168C432.562 77.748 432.655 77.2744 432.655 76.7471C432.655 75.7217 432.343 74.9746 431.718 74.5059C431.093 74.0371 430.175 73.8027 428.964 73.8027C428.319 73.8027 427.655 73.8662 426.972 73.9932C426.288 74.1201 425.556 74.3105 424.774 74.5645V72.3379C425.106 72.2207 425.458 72.1182 425.829 72.0303C426.21 71.9326 426.586 71.8545 426.957 71.7959C427.338 71.7275 427.714 71.6787 428.085 71.6494C428.456 71.6104 428.812 71.5908 429.154 71.5908C430.17 71.5908 431.063 71.7031 431.835 71.9277C432.606 72.1426 433.251 72.4551 433.769 72.8652C434.286 73.2754 434.677 73.7734 434.94 74.3594C435.204 74.9453 435.336 75.6045 435.336 76.3369C435.336 77.4307 435.053 78.3486 434.486 79.0908C433.93 79.833 433.163 80.4238 432.187 80.8633C432.685 80.9414 433.173 81.0977 433.651 81.332C434.14 81.5664 434.574 81.8691 434.955 82.2402C435.346 82.6016 435.658 83.0312 435.893 83.5293C436.137 84.0273 436.259 84.5791 436.259 85.1846ZM502.44 91H490.414V88.627H495.336V74.6523L490.751 77.1426L489.813 74.9746L495.907 71.7666H498.163V88.627H502.44V91Z" fill="black"/>
<path opacity="0.5" d="M39.1025 118.985C39.1025 120.06 38.9951 121.041 38.7803 121.929C38.5654 122.81 38.2396 123.569 37.8027 124.206C37.3659 124.836 36.8216 125.327 36.1699 125.678C35.5254 126.021 34.7663 126.193 33.8926 126.193C33.1406 126.193 32.4567 126.054 31.8408 125.774C31.2249 125.488 30.6986 125.051 30.2617 124.464C29.8249 123.877 29.4883 123.128 29.252 122.219C29.0156 121.309 28.8975 120.231 28.8975 118.985C28.8975 117.911 29.0049 116.93 29.2197 116.042C29.4417 115.154 29.7676 114.395 30.1973 113.765C30.6341 113.127 31.1784 112.637 31.8301 112.293C32.4818 111.942 33.2409 111.767 34.1074 111.767C34.8594 111.767 35.5433 111.91 36.1592 112.196C36.7751 112.476 37.3014 112.912 37.7383 113.507C38.1751 114.094 38.5117 114.842 38.748 115.752C38.9844 116.661 39.1025 117.739 39.1025 118.985ZM37.2119 119.05C37.2119 118.806 37.2012 118.566 37.1797 118.33C37.1654 118.087 37.1475 117.85 37.126 117.621L31.1855 122.036C31.293 122.409 31.429 122.752 31.5938 123.067C31.7585 123.382 31.9554 123.655 32.1846 123.884C32.4209 124.106 32.6859 124.281 32.9795 124.41C33.2803 124.532 33.6204 124.593 34 124.593C34.487 124.593 34.9274 124.475 35.3213 124.238C35.7223 124.002 36.0625 123.651 36.3418 123.186C36.6211 122.72 36.8359 122.144 36.9863 121.456C37.1367 120.761 37.2119 119.959 37.2119 119.05ZM30.7881 118.921C30.7881 119.143 30.7881 119.365 30.7881 119.587C30.7952 119.809 30.8096 120.024 30.8311 120.231L36.7715 115.838C36.6641 115.473 36.528 115.14 36.3633 114.839C36.1986 114.538 36.0016 114.28 35.7725 114.065C35.5433 113.843 35.2819 113.672 34.9883 113.55C34.6947 113.428 34.3652 113.367 34 113.367C33.513 113.367 33.069 113.485 32.668 113.722C32.2741 113.958 31.9375 114.312 31.6582 114.785C31.3789 115.251 31.1641 115.831 31.0137 116.525C30.8633 117.213 30.7881 118.011 30.7881 118.921Z" fill="black"/>
<path d="M9.88672 149.521C9.88672 149.97 9.81055 150.372 9.6582 150.728C9.50586 151.083 9.2985 151.4 9.03613 151.68C8.77376 151.951 8.46908 152.183 8.12207 152.378C7.77507 152.573 7.40267 152.733 7.00488 152.86C6.61556 152.987 6.21354 153.08 5.79883 153.14C5.38411 153.199 4.97786 153.229 4.58008 153.229C3.7168 153.229 2.92122 153.19 2.19336 153.114C1.47396 153.038 0.767253 152.915 0.0732422 152.746V150.715C0.818034 150.926 1.55859 151.087 2.29492 151.197C3.03125 151.307 3.76335 151.362 4.49121 151.362C5.54915 151.362 6.33203 151.218 6.83984 150.931C7.34766 150.643 7.60156 150.232 7.60156 149.699C7.60156 149.471 7.55924 149.268 7.47461 149.09C7.39844 148.904 7.25456 148.73 7.04297 148.569C6.83138 148.4 6.5013 148.227 6.05273 148.049C5.61263 147.871 5.00749 147.668 4.2373 147.439C3.66178 147.27 3.12858 147.08 2.6377 146.868C2.15527 146.648 1.73633 146.39 1.38086 146.094C1.02539 145.798 0.746094 145.451 0.542969 145.053C0.339844 144.655 0.238281 144.185 0.238281 143.644C0.238281 143.288 0.318685 142.899 0.479492 142.476C0.648763 142.052 0.932292 141.659 1.33008 141.295C1.72786 140.931 2.2653 140.631 2.94238 140.394C3.61947 140.148 4.46582 140.025 5.48145 140.025C5.98079 140.025 6.53516 140.055 7.14453 140.114C7.75391 140.165 8.38867 140.258 9.04883 140.394V142.361C8.35482 142.192 7.69466 142.069 7.06836 141.993C6.45052 141.909 5.91309 141.866 5.45605 141.866C4.90592 141.866 4.44043 141.909 4.05957 141.993C3.68717 142.078 3.38249 142.196 3.14551 142.349C2.91699 142.493 2.75195 142.666 2.65039 142.869C2.54883 143.064 2.49805 143.275 2.49805 143.504C2.49805 143.732 2.54036 143.94 2.625 144.126C2.7181 144.312 2.88314 144.494 3.12012 144.672C3.36556 144.841 3.7041 145.015 4.13574 145.192C4.56738 145.362 5.13021 145.548 5.82422 145.751C6.57747 145.971 7.21224 146.204 7.72852 146.449C8.24479 146.686 8.66374 146.953 8.98535 147.249C9.30697 147.545 9.53548 147.88 9.6709 148.252C9.81478 148.624 9.88672 149.048 9.88672 149.521ZM24.3594 152.822C23.86 152.949 23.3438 153.038 22.8105 153.089C22.2773 153.148 21.7357 153.178 21.1855 153.178C19.5859 153.178 18.3926 152.818 17.6055 152.099C16.8184 151.371 16.4248 150.258 16.4248 148.76V142.107H12.8574V140.254H16.4248V136.75L18.6338 136.179V140.254H24.3594V142.107H18.6338V148.582C18.6338 149.496 18.875 150.182 19.3574 150.639C19.8483 151.087 20.5677 151.312 21.5156 151.312C21.9219 151.312 22.3662 151.282 22.8486 151.223C23.3311 151.155 23.8346 151.053 24.3594 150.918V152.822ZM36.5723 153L36.5215 151.286C35.8275 151.972 35.1208 152.467 34.4014 152.771C33.6904 153.076 32.9414 153.229 32.1543 153.229C31.4264 153.229 30.8044 153.135 30.2881 152.949C29.7718 152.763 29.3444 152.509 29.0059 152.188C28.6758 151.857 28.4303 151.472 28.2695 151.032C28.1172 150.592 28.041 150.114 28.041 149.598C28.041 148.32 28.515 147.321 29.4629 146.602C30.4193 145.874 31.8285 145.51 33.6904 145.51H36.3311V144.393C36.3311 143.639 36.0898 143.038 35.6074 142.59C35.125 142.133 34.3887 141.904 33.3984 141.904C32.679 141.904 31.9681 141.985 31.2656 142.146C30.5716 142.306 29.8522 142.535 29.1074 142.831V140.838C29.3867 140.736 29.6956 140.639 30.0342 140.546C30.3812 140.444 30.7451 140.355 31.126 140.279C31.5068 140.203 31.9046 140.144 32.3193 140.102C32.734 140.051 33.153 140.025 33.5762 140.025C34.3464 140.025 35.0404 140.11 35.6582 140.279C36.276 140.449 36.7965 140.707 37.2197 141.054C37.6514 141.401 37.9814 141.837 38.21 142.361C38.4385 142.886 38.5527 143.504 38.5527 144.215V153H36.5723ZM36.3311 147.198H33.5254C32.9753 147.198 32.5013 147.253 32.1035 147.363C31.7057 147.473 31.3799 147.63 31.126 147.833C30.8721 148.036 30.6816 148.282 30.5547 148.569C30.4362 148.849 30.377 149.166 30.377 149.521C30.377 149.767 30.415 150.004 30.4912 150.232C30.5674 150.452 30.6901 150.651 30.8594 150.829C31.0286 150.998 31.2487 151.134 31.5195 151.235C31.7904 151.337 32.1204 151.388 32.5098 151.388C33.0176 151.388 33.5973 151.235 34.249 150.931C34.9092 150.618 35.6032 150.127 36.3311 149.458V147.198ZM43.1992 140.254H45.2178L45.2812 142.603C46.0345 141.697 46.7751 141.041 47.5029 140.635C48.2393 140.229 48.9798 140.025 49.7246 140.025C51.0449 140.025 52.0436 140.453 52.7207 141.308C53.4062 142.162 53.7236 143.432 53.6729 145.116H51.4385C51.4639 143.999 51.2988 143.191 50.9434 142.691C50.5964 142.184 50.0843 141.93 49.4072 141.93C49.111 141.93 48.8105 141.985 48.5059 142.095C48.2096 142.196 47.9007 142.366 47.5791 142.603C47.266 142.831 46.9316 143.127 46.5762 143.491C46.2207 143.855 45.8398 144.295 45.4336 144.812V153H43.1992V140.254ZM67.2441 152.822C66.7448 152.949 66.2285 153.038 65.6953 153.089C65.1621 153.148 64.6204 153.178 64.0703 153.178C62.4707 153.178 61.2773 152.818 60.4902 152.099C59.7031 151.371 59.3096 150.258 59.3096 148.76V142.107H55.7422V140.254H59.3096V136.75L61.5186 136.179V140.254H67.2441V142.107H61.5186V148.582C61.5186 149.496 61.7598 150.182 62.2422 150.639C62.7331 151.087 63.4525 151.312 64.4004 151.312C64.8066 151.312 65.251 151.282 65.7334 151.223C66.2158 151.155 66.7194 151.053 67.2441 150.918V152.822Z" fill="#FF5500"/>
<path opacity="0.5" d="M104.662 126H95.8428V124.26H99.4521V114.012L96.0898 115.838L95.4023 114.248L99.8711 111.896H101.525V124.26H104.662V126Z" fill="black"/>
<path opacity="0.5" d="M170.78 126H161.531V124.324L165.162 120.715C165.757 120.128 166.24 119.619 166.612 119.189C166.985 118.76 167.275 118.369 167.482 118.019C167.69 117.66 167.83 117.324 167.901 117.009C167.973 116.694 168.009 116.354 168.009 115.988C168.009 115.645 167.962 115.319 167.869 115.011C167.776 114.696 167.633 114.42 167.439 114.184C167.246 113.947 166.995 113.761 166.688 113.625C166.38 113.489 166.011 113.421 165.581 113.421C164.987 113.421 164.446 113.553 163.959 113.818C163.472 114.083 163.024 114.427 162.616 114.85L161.585 113.614C162.115 113.056 162.724 112.608 163.411 112.271C164.106 111.935 164.911 111.767 165.828 111.767C166.451 111.767 167.017 111.86 167.525 112.046C168.041 112.232 168.485 112.501 168.857 112.852C169.23 113.202 169.516 113.632 169.717 114.141C169.924 114.649 170.028 115.222 170.028 115.859C170.028 116.396 169.957 116.894 169.813 117.353C169.67 117.811 169.452 118.269 169.158 118.728C168.872 119.179 168.507 119.648 168.062 120.135C167.626 120.622 167.106 121.155 166.505 121.735L163.959 124.217H170.78V126Z" fill="black"/>
<path opacity="0.5" d="M236.512 121.735C236.512 122.351 236.386 122.931 236.136 123.476C235.885 124.013 235.509 124.485 235.008 124.894C234.507 125.295 233.876 125.613 233.117 125.85C232.358 126.079 231.474 126.193 230.464 126.193C229.905 126.193 229.404 126.175 228.96 126.14C228.516 126.104 228.101 126.057 227.714 126V124.324C228.158 124.403 228.627 124.464 229.121 124.507C229.615 124.55 230.12 124.571 230.636 124.571C231.338 124.571 231.936 124.51 232.43 124.389C232.931 124.26 233.339 124.077 233.654 123.841C233.969 123.604 234.199 123.318 234.342 122.981C234.485 122.645 234.557 122.265 234.557 121.843C234.557 121.456 234.471 121.119 234.299 120.833C234.127 120.547 233.883 120.307 233.568 120.113C233.26 119.92 232.888 119.777 232.451 119.684C232.021 119.583 231.549 119.533 231.033 119.533H229.433V117.997H231.055C231.477 117.997 231.86 117.943 232.204 117.836C232.555 117.721 232.852 117.56 233.096 117.353C233.346 117.145 233.536 116.891 233.665 116.59C233.801 116.282 233.869 115.935 233.869 115.548C233.869 114.796 233.64 114.248 233.182 113.904C232.723 113.561 232.05 113.389 231.162 113.389C230.689 113.389 230.202 113.435 229.701 113.528C229.2 113.621 228.663 113.761 228.09 113.947V112.314C228.333 112.229 228.591 112.153 228.863 112.089C229.143 112.017 229.418 111.96 229.69 111.917C229.97 111.867 230.245 111.831 230.518 111.81C230.79 111.781 231.051 111.767 231.302 111.767C232.047 111.767 232.702 111.849 233.268 112.014C233.833 112.171 234.306 112.4 234.686 112.701C235.065 113.002 235.352 113.367 235.545 113.797C235.738 114.227 235.835 114.71 235.835 115.247C235.835 116.049 235.627 116.722 235.212 117.267C234.804 117.811 234.242 118.244 233.525 118.566C233.891 118.624 234.249 118.738 234.6 118.91C234.958 119.082 235.276 119.304 235.556 119.576C235.842 119.841 236.071 120.156 236.243 120.521C236.422 120.887 236.512 121.291 236.512 121.735Z" fill="black"/>
<path opacity="0.5" d="M303.479 122.896H301.083V126H299.171V122.896H292.414V121.252L298.397 111.96H301.083V121.252H303.479V122.896ZM299.171 113.765L294.283 121.252H299.171V113.765Z" fill="black"/>
<path opacity="0.5" d="M369.426 121.51C369.426 122.204 369.275 122.838 368.975 123.411C368.674 123.984 368.258 124.478 367.729 124.894C367.206 125.302 366.586 125.62 365.87 125.85C365.154 126.079 364.381 126.193 363.55 126.193C363.342 126.193 363.117 126.186 362.873 126.172C362.637 126.165 362.4 126.15 362.164 126.129C361.928 126.115 361.695 126.097 361.466 126.075C361.244 126.054 361.043 126.029 360.864 126V124.303C361.251 124.396 361.691 124.464 362.186 124.507C362.687 124.55 363.192 124.571 363.7 124.571C364.273 124.571 364.789 124.503 365.247 124.367C365.705 124.231 366.096 124.038 366.418 123.787C366.74 123.529 366.987 123.221 367.159 122.863C367.331 122.498 367.417 122.09 367.417 121.639C367.417 120.765 367.102 120.131 366.472 119.737C365.849 119.336 364.95 119.136 363.775 119.136H361.111V111.96H368.674V113.593H362.873V117.535H364.098C364.771 117.535 365.426 117.596 366.063 117.718C366.701 117.84 367.267 118.054 367.761 118.362C368.262 118.663 368.663 119.071 368.964 119.587C369.272 120.095 369.426 120.736 369.426 121.51Z" fill="black"/>
<path opacity="0.5" d="M434.952 121.553C434.952 122.197 434.834 122.802 434.598 123.368C434.368 123.934 434.039 124.428 433.609 124.851C433.18 125.266 432.66 125.595 432.052 125.839C431.45 126.075 430.781 126.193 430.043 126.193C429.27 126.193 428.586 126.072 427.991 125.828C427.397 125.577 426.899 125.198 426.498 124.689C426.097 124.174 425.793 123.526 425.585 122.745C425.377 121.965 425.273 121.041 425.273 119.974C425.273 119.257 425.32 118.563 425.413 117.89C425.506 117.216 425.66 116.583 425.875 115.988C426.09 115.394 426.376 114.85 426.734 114.355C427.092 113.861 427.536 113.439 428.066 113.088C428.604 112.73 429.234 112.454 429.957 112.261C430.68 112.06 431.518 111.96 432.471 111.96H433.856V113.593H432.353C431.515 113.593 430.788 113.693 430.172 113.894C429.556 114.094 429.04 114.377 428.625 114.742C428.21 115.107 427.891 115.548 427.669 116.063C427.447 116.579 427.307 117.156 427.25 117.793L427.207 118.233C427.658 117.968 428.177 117.757 428.765 117.6C429.359 117.435 430 117.353 430.688 117.353C431.396 117.353 432.016 117.456 432.546 117.664C433.083 117.872 433.527 118.162 433.878 118.534C434.236 118.899 434.505 119.34 434.684 119.855C434.863 120.371 434.952 120.937 434.952 121.553ZM432.997 121.671C432.997 121.241 432.943 120.854 432.836 120.511C432.736 120.16 432.575 119.866 432.353 119.63C432.131 119.386 431.848 119.2 431.504 119.071C431.167 118.935 430.763 118.867 430.29 118.867C430.018 118.867 429.742 118.892 429.463 118.942C429.184 118.993 428.908 119.064 428.636 119.157C428.371 119.243 428.117 119.343 427.873 119.458C427.63 119.573 427.408 119.694 427.207 119.823C427.207 120.747 427.271 121.521 427.4 122.144C427.529 122.759 427.719 123.254 427.97 123.626C428.228 123.998 428.543 124.263 428.915 124.421C429.287 124.578 429.717 124.657 430.204 124.657C430.612 124.657 430.985 124.593 431.321 124.464C431.665 124.328 431.959 124.131 432.202 123.873C432.453 123.615 432.646 123.304 432.782 122.938C432.925 122.566 432.997 122.144 432.997 121.671Z" fill="black"/>
<path opacity="0.5" d="M500.705 113.7L494.818 126H492.681L498.793 113.7H491.209V111.96H500.705V113.7Z" fill="black"/>
<rect x="558" y="48" width="572" height="96" rx="10" fill="#EDEDED" stroke="#999999" stroke-width="2" stroke-dasharray="10 10"/>
<path d="M589.302 75.8223C588.802 75.9492 588.286 76.0381 587.753 76.0889C587.22 76.1481 586.678 76.1777 586.128 76.1777C584.528 76.1777 583.335 75.818 582.548 75.0986C581.761 74.3708 581.367 73.2578 581.367 71.7598V65.1074H577.8V63.2539H581.367V59.75L583.576 59.1787V63.2539H589.302V65.1074H583.576V71.582C583.576 72.4961 583.817 73.1816 584.3 73.6387C584.791 74.0872 585.51 74.3115 586.458 74.3115C586.864 74.3115 587.309 74.2819 587.791 74.2227C588.273 74.1549 588.777 74.0534 589.302 73.918V75.8223ZM601.515 76L601.464 74.2861C600.77 74.9717 600.063 75.4668 599.344 75.7715C598.633 76.0762 597.884 76.2285 597.097 76.2285C596.369 76.2285 595.747 76.1354 595.23 75.9492C594.714 75.763 594.287 75.5091 593.948 75.1875C593.618 74.8574 593.373 74.4723 593.212 74.0322C593.06 73.5921 592.983 73.1139 592.983 72.5977C592.983 71.3197 593.457 70.321 594.405 69.6016C595.362 68.8737 596.771 68.5098 598.633 68.5098H601.273V67.3926C601.273 66.6393 601.032 66.0384 600.55 65.5898C600.067 65.1328 599.331 64.9043 598.341 64.9043C597.621 64.9043 596.91 64.9847 596.208 65.1455C595.514 65.3063 594.795 65.5348 594.05 65.8311V63.8379C594.329 63.7363 594.638 63.639 594.977 63.5459C595.324 63.4443 595.688 63.3555 596.068 63.2793C596.449 63.2031 596.847 63.1439 597.262 63.1016C597.676 63.0508 598.095 63.0254 598.519 63.0254C599.289 63.0254 599.983 63.11 600.601 63.2793C601.218 63.4486 601.739 63.7067 602.162 64.0537C602.594 64.4007 602.924 64.8366 603.152 65.3613C603.381 65.8861 603.495 66.5039 603.495 67.2148V76H601.515ZM601.273 70.1982H598.468C597.918 70.1982 597.444 70.2533 597.046 70.3633C596.648 70.4733 596.322 70.6299 596.068 70.833C595.814 71.0361 595.624 71.2816 595.497 71.5693C595.379 71.8486 595.319 72.166 595.319 72.5215C595.319 72.7669 595.357 73.0039 595.434 73.2324C595.51 73.4525 595.632 73.6514 595.802 73.8291C595.971 73.9984 596.191 74.1338 596.462 74.2354C596.733 74.3369 597.063 74.3877 597.452 74.3877C597.96 74.3877 598.54 74.2354 599.191 73.9307C599.852 73.6175 600.546 73.1266 601.273 72.458V70.1982ZM607.621 63.2539H609.589L609.678 65.3105C610.05 64.8704 610.41 64.5065 610.757 64.2188C611.104 63.9225 611.442 63.6855 611.772 63.5078C612.111 63.3301 612.454 63.2074 612.801 63.1396C613.148 63.0635 613.507 63.0254 613.88 63.0254C615.192 63.0254 616.182 63.4147 616.851 64.1934C617.528 64.9635 617.866 66.1273 617.866 67.6846V76H615.657V67.8623C615.657 66.8636 615.471 66.1273 615.099 65.6533C614.726 65.1709 614.172 64.9297 613.436 64.9297C613.165 64.9297 612.898 64.972 612.636 65.0566C612.382 65.1328 612.115 65.2725 611.836 65.4756C611.557 65.6702 611.252 65.9368 610.922 66.2754C610.6 66.6139 610.236 67.0371 609.83 67.5449V76H607.621V63.2539ZM633.38 76H630.346L624.404 69.1699V76H622.195V58.0615H624.404V69.0811L630.13 63.2539H633.05L627.07 69.1318L633.38 76ZM661.703 70.0459H656.714V75.2256H654.53V70.0459H649.541V68.1162H654.53V62.9746H656.714V68.1162H661.703V70.0459ZM675.376 67.7988H664.458V65.9326H675.376V67.7988ZM675.376 72.2168H664.458V70.3506H675.376V72.2168ZM701.021 81.332C697.119 77.7181 695.168 73.7233 695.168 69.3477C695.168 68.3236 695.27 67.3037 695.473 66.2881C695.684 65.264 696.019 64.2399 696.476 63.2158C696.941 62.1917 697.55 61.1676 698.304 60.1436C699.065 59.1195 699.988 58.1038 701.071 57.0967L702.354 58.4043C699.07 61.6458 697.428 65.2386 697.428 69.1826C697.428 71.1462 697.842 73.0335 698.672 74.8447C699.501 76.6559 700.729 78.3656 702.354 79.9736L701.021 81.332ZM716.598 70.1221H709.006V68.04H716.598V70.1221ZM732.429 70.96C732.429 71.6878 732.281 72.3734 731.984 73.0166C731.688 73.6514 731.244 74.21 730.651 74.6924C730.059 75.1663 729.314 75.543 728.417 75.8223C727.52 76.0931 726.475 76.2285 725.281 76.2285C724.621 76.2285 724.029 76.2074 723.504 76.165C722.979 76.1227 722.488 76.0677 722.031 76V74.0195C722.556 74.1126 723.11 74.1846 723.694 74.2354C724.278 74.2861 724.875 74.3115 725.484 74.3115C726.314 74.3115 727.021 74.2396 727.604 74.0957C728.197 73.9434 728.679 73.7275 729.052 73.4482C729.424 73.1689 729.695 72.8304 729.864 72.4326C730.034 72.0348 730.118 71.5863 730.118 71.0869C730.118 70.6299 730.017 70.2321 729.813 69.8936C729.61 69.555 729.323 69.2715 728.95 69.043C728.586 68.8145 728.146 68.6452 727.63 68.5352C727.122 68.4167 726.563 68.3574 725.954 68.3574H724.062V66.542H725.979C726.479 66.542 726.932 66.4785 727.338 66.3516C727.753 66.2161 728.104 66.0257 728.392 65.7803C728.688 65.5348 728.912 65.2344 729.064 64.8789C729.225 64.515 729.306 64.1045 729.306 63.6475C729.306 62.7588 729.035 62.1113 728.493 61.7051C727.951 61.2988 727.156 61.0957 726.106 61.0957C725.548 61.0957 724.972 61.1507 724.38 61.2607C723.787 61.3708 723.153 61.5358 722.476 61.7559V59.8262C722.763 59.7246 723.068 59.6357 723.39 59.5596C723.72 59.4749 724.046 59.4072 724.367 59.3564C724.697 59.2972 725.023 59.2549 725.345 59.2295C725.666 59.1956 725.975 59.1787 726.271 59.1787C727.152 59.1787 727.926 59.276 728.595 59.4707C729.263 59.6569 729.822 59.9277 730.271 60.2832C730.719 60.6387 731.058 61.0703 731.286 61.5781C731.515 62.0859 731.629 62.6572 731.629 63.292C731.629 64.2399 731.383 65.0355 730.893 65.6787C730.41 66.3219 729.746 66.834 728.899 67.2148C729.331 67.2826 729.754 67.418 730.169 67.6211C730.592 67.8242 730.969 68.0866 731.299 68.4082C731.637 68.7214 731.908 69.0938 732.111 69.5254C732.323 69.957 732.429 70.4352 732.429 70.96ZM738.878 57.0967C742.78 60.7106 744.73 64.7308 744.73 69.1572C744.73 70.0713 744.637 71.0192 744.451 72.001C744.265 72.9827 743.948 73.9899 743.499 75.0225C743.05 76.0465 742.445 77.0876 741.684 78.1455C740.93 79.2035 739.978 80.2656 738.827 81.332L737.545 80.0244C739.195 78.391 740.427 76.6855 741.239 74.9082C742.052 73.1309 742.458 71.2689 742.458 69.3223C742.458 65.2936 740.82 61.6712 737.545 58.4551L738.878 57.0967Z" fill="black"/>
<path d="M675.606 96.7988H664.688V94.9326H675.606V96.7988ZM675.606 101.217H664.688V99.3506H675.606V101.217ZM702.533 99.1221H694.941V97.04H702.533V99.1221ZM718.542 105H708.119V102.943H712.385V90.832L708.411 92.9902L707.599 91.1113L712.88 88.3311H714.835V102.943H718.542V105ZM746.129 103.807L744.745 105.203L736.214 98.0811L744.745 90.959L746.129 92.3682L739.21 98.0557L746.129 103.807ZM776.242 96.71C776.242 97.9795 776.115 99.139 775.861 100.188C775.607 101.229 775.222 102.127 774.706 102.88C774.19 103.625 773.547 104.204 772.776 104.619C772.015 105.025 771.118 105.229 770.085 105.229C769.196 105.229 768.388 105.063 767.66 104.733C766.932 104.395 766.31 103.879 765.794 103.185C765.278 102.491 764.88 101.606 764.601 100.531C764.321 99.4564 764.182 98.1826 764.182 96.71C764.182 95.4404 764.309 94.2809 764.562 93.2314C764.825 92.182 765.21 91.2848 765.718 90.54C766.234 89.7868 766.877 89.207 767.647 88.8008C768.418 88.3861 769.315 88.1787 770.339 88.1787C771.228 88.1787 772.036 88.348 772.764 88.6865C773.492 89.0166 774.114 89.5329 774.63 90.2354C775.146 90.9294 775.544 91.8138 775.823 92.8887C776.103 93.9635 776.242 95.2373 776.242 96.71ZM774.008 96.7861C774.008 96.4984 773.995 96.2148 773.97 95.9355C773.953 95.6478 773.932 95.3685 773.906 95.0977L766.886 100.315C767.013 100.756 767.174 101.162 767.368 101.534C767.563 101.907 767.796 102.228 768.066 102.499C768.346 102.761 768.659 102.969 769.006 103.121C769.361 103.265 769.763 103.337 770.212 103.337C770.787 103.337 771.308 103.197 771.773 102.918C772.247 102.639 772.649 102.224 772.979 101.674C773.31 101.124 773.563 100.442 773.741 99.6299C773.919 98.8089 774.008 97.861 774.008 96.7861ZM766.416 96.6338C766.416 96.8962 766.416 97.1585 766.416 97.4209C766.424 97.6833 766.441 97.9372 766.467 98.1826L773.487 92.9902C773.36 92.5586 773.2 92.165 773.005 91.8096C772.81 91.4541 772.577 91.1494 772.307 90.8955C772.036 90.6331 771.727 90.43 771.38 90.2861C771.033 90.1423 770.644 90.0703 770.212 90.0703C769.636 90.0703 769.112 90.21 768.638 90.4893C768.172 90.7686 767.774 91.1875 767.444 91.7461C767.114 92.2962 766.86 92.9818 766.683 93.8027C766.505 94.6152 766.416 95.5589 766.416 96.6338Z" fill="black"/>
<path d="M639.934 131.53C639.358 131.75 638.766 131.911 638.156 132.013C637.555 132.123 636.933 132.178 636.29 132.178C634.276 132.178 632.723 131.632 631.631 130.54C630.548 129.448 630.006 127.853 630.006 125.754C630.006 124.747 630.162 123.833 630.476 123.012C630.789 122.191 631.229 121.488 631.796 120.904C632.363 120.32 633.04 119.872 633.827 119.559C634.614 119.237 635.482 119.076 636.43 119.076C637.09 119.076 637.708 119.123 638.283 119.216C638.859 119.309 639.409 119.461 639.934 119.673V121.78C639.383 121.493 638.821 121.285 638.245 121.158C637.678 121.023 637.09 120.955 636.48 120.955C635.913 120.955 635.376 121.065 634.868 121.285C634.369 121.497 633.929 121.806 633.548 122.212C633.167 122.618 632.867 123.113 632.646 123.697C632.426 124.281 632.316 124.941 632.316 125.678C632.316 127.218 632.689 128.373 633.434 129.144C634.187 129.905 635.228 130.286 636.557 130.286C637.158 130.286 637.737 130.218 638.296 130.083C638.863 129.948 639.409 129.744 639.934 129.474V131.53ZM652.515 132L652.464 130.286C651.77 130.972 651.063 131.467 650.344 131.771C649.633 132.076 648.884 132.229 648.097 132.229C647.369 132.229 646.747 132.135 646.23 131.949C645.714 131.763 645.287 131.509 644.948 131.188C644.618 130.857 644.373 130.472 644.212 130.032C644.06 129.592 643.983 129.114 643.983 128.598C643.983 127.32 644.457 126.321 645.405 125.602C646.362 124.874 647.771 124.51 649.633 124.51H652.273V123.393C652.273 122.639 652.032 122.038 651.55 121.59C651.067 121.133 650.331 120.904 649.341 120.904C648.621 120.904 647.91 120.985 647.208 121.146C646.514 121.306 645.795 121.535 645.05 121.831V119.838C645.329 119.736 645.638 119.639 645.977 119.546C646.324 119.444 646.688 119.355 647.068 119.279C647.449 119.203 647.847 119.144 648.262 119.102C648.676 119.051 649.095 119.025 649.519 119.025C650.289 119.025 650.983 119.11 651.601 119.279C652.218 119.449 652.739 119.707 653.162 120.054C653.594 120.401 653.924 120.837 654.152 121.361C654.381 121.886 654.495 122.504 654.495 123.215V132H652.515ZM652.273 126.198H649.468C648.918 126.198 648.444 126.253 648.046 126.363C647.648 126.473 647.322 126.63 647.068 126.833C646.814 127.036 646.624 127.282 646.497 127.569C646.379 127.849 646.319 128.166 646.319 128.521C646.319 128.767 646.357 129.004 646.434 129.232C646.51 129.452 646.632 129.651 646.802 129.829C646.971 129.998 647.191 130.134 647.462 130.235C647.733 130.337 648.063 130.388 648.452 130.388C648.96 130.388 649.54 130.235 650.191 129.931C650.852 129.618 651.546 129.127 652.273 128.458V126.198ZM658.621 119.254H660.589L660.678 121.311C661.05 120.87 661.41 120.507 661.757 120.219C662.104 119.923 662.442 119.686 662.772 119.508C663.111 119.33 663.454 119.207 663.801 119.14C664.148 119.063 664.507 119.025 664.88 119.025C666.192 119.025 667.182 119.415 667.851 120.193C668.528 120.964 668.866 122.127 668.866 123.685V132H666.657V123.862C666.657 122.864 666.471 122.127 666.099 121.653C665.726 121.171 665.172 120.93 664.436 120.93C664.165 120.93 663.898 120.972 663.636 121.057C663.382 121.133 663.115 121.272 662.836 121.476C662.557 121.67 662.252 121.937 661.922 122.275C661.6 122.614 661.236 123.037 660.83 123.545V132H658.621V119.254ZM672.916 119.254H674.884L674.973 121.311C675.345 120.87 675.705 120.507 676.052 120.219C676.399 119.923 676.737 119.686 677.067 119.508C677.406 119.33 677.749 119.207 678.096 119.14C678.443 119.063 678.802 119.025 679.175 119.025C680.487 119.025 681.477 119.415 682.146 120.193C682.823 120.964 683.161 122.127 683.161 123.685V132H680.952V123.862C680.952 122.864 680.766 122.127 680.394 121.653C680.021 121.171 679.467 120.93 678.73 120.93C678.46 120.93 678.193 120.972 677.931 121.057C677.677 121.133 677.41 121.272 677.131 121.476C676.852 121.67 676.547 121.937 676.217 122.275C675.895 122.614 675.531 123.037 675.125 123.545V132H672.916V119.254ZM698.307 125.525C698.307 126.516 698.167 127.425 697.888 128.255C697.608 129.076 697.206 129.783 696.682 130.375C696.157 130.959 695.518 131.416 694.765 131.746C694.011 132.068 693.157 132.229 692.2 132.229C691.286 132.229 690.465 132.089 689.737 131.81C689.018 131.522 688.404 131.103 687.896 130.553C687.397 130.003 687.012 129.321 686.741 128.509C686.479 127.696 686.348 126.761 686.348 125.703C686.348 124.713 686.487 123.812 686.767 122.999C687.046 122.178 687.448 121.476 687.973 120.892C688.497 120.299 689.136 119.842 689.89 119.521C690.643 119.19 691.498 119.025 692.454 119.025C693.368 119.025 694.185 119.169 694.904 119.457C695.632 119.736 696.246 120.151 696.745 120.701C697.253 121.243 697.638 121.92 697.9 122.732C698.171 123.545 698.307 124.476 698.307 125.525ZM696.047 125.627C696.047 124.84 695.958 124.154 695.78 123.57C695.611 122.978 695.366 122.487 695.044 122.098C694.722 121.7 694.329 121.404 693.863 121.209C693.406 121.006 692.894 120.904 692.327 120.904C691.667 120.904 691.1 121.035 690.626 121.298C690.16 121.552 689.775 121.895 689.471 122.326C689.174 122.758 688.954 123.261 688.811 123.837C688.675 124.404 688.607 125.001 688.607 125.627C688.607 126.414 688.692 127.104 688.861 127.696C689.039 128.289 689.289 128.784 689.61 129.182C689.932 129.571 690.321 129.867 690.778 130.07C691.235 130.265 691.752 130.362 692.327 130.362C692.987 130.362 693.55 130.235 694.016 129.981C694.49 129.719 694.875 129.372 695.171 128.94C695.476 128.509 695.696 128.009 695.831 127.442C695.975 126.867 696.047 126.262 696.047 125.627ZM711.776 131.822C711.277 131.949 710.761 132.038 710.228 132.089C709.694 132.148 709.153 132.178 708.603 132.178C707.003 132.178 705.81 131.818 705.022 131.099C704.235 130.371 703.842 129.258 703.842 127.76V121.107H700.274V119.254H703.842V115.75L706.051 115.179V119.254H711.776V121.107H706.051V127.582C706.051 128.496 706.292 129.182 706.774 129.639C707.265 130.087 707.985 130.312 708.933 130.312C709.339 130.312 709.783 130.282 710.266 130.223C710.748 130.155 711.252 130.053 711.776 129.918V131.822ZM739.186 132V122.847C739.186 122.449 739.169 122.123 739.135 121.869C739.109 121.615 739.063 121.416 738.995 121.272C738.936 121.12 738.855 121.014 738.754 120.955C738.661 120.896 738.542 120.866 738.398 120.866C738.229 120.866 738.073 120.917 737.929 121.019C737.785 121.12 737.628 121.285 737.459 121.514C737.298 121.742 737.116 122.047 736.913 122.428C736.718 122.8 736.486 123.261 736.215 123.812V132H734.196V123.088C734.196 122.622 734.179 122.246 734.146 121.958C734.12 121.67 734.074 121.446 734.006 121.285C733.947 121.124 733.866 121.014 733.765 120.955C733.663 120.896 733.54 120.866 733.396 120.866C733.244 120.866 733.1 120.909 732.965 120.993C732.829 121.078 732.677 121.23 732.508 121.45C732.347 121.67 732.165 121.971 731.962 122.352C731.759 122.732 731.518 123.219 731.238 123.812V132H729.207V119.254H730.896L730.997 121.679C731.217 121.196 731.429 120.786 731.632 120.447C731.843 120.109 732.059 119.838 732.279 119.635C732.499 119.423 732.732 119.271 732.978 119.178C733.231 119.076 733.511 119.025 733.815 119.025C734.501 119.025 735.021 119.25 735.377 119.698C735.732 120.147 735.91 120.841 735.91 121.78C736.113 121.34 736.312 120.951 736.507 120.612C736.701 120.265 736.909 119.978 737.129 119.749C737.357 119.512 737.607 119.334 737.878 119.216C738.149 119.089 738.462 119.025 738.817 119.025C740.417 119.025 741.217 120.257 741.217 122.72V132H739.186ZM752.579 132L752.528 130.286C751.834 130.972 751.128 131.467 750.408 131.771C749.697 132.076 748.948 132.229 748.161 132.229C747.433 132.229 746.811 132.135 746.295 131.949C745.779 131.763 745.351 131.509 745.013 131.188C744.683 130.857 744.437 130.472 744.276 130.032C744.124 129.592 744.048 129.114 744.048 128.598C744.048 127.32 744.522 126.321 745.47 125.602C746.426 124.874 747.835 124.51 749.697 124.51H752.338V123.393C752.338 122.639 752.097 122.038 751.614 121.59C751.132 121.133 750.396 120.904 749.405 120.904C748.686 120.904 747.975 120.985 747.272 121.146C746.578 121.306 745.859 121.535 745.114 121.831V119.838C745.394 119.736 745.702 119.639 746.041 119.546C746.388 119.444 746.752 119.355 747.133 119.279C747.514 119.203 747.911 119.144 748.326 119.102C748.741 119.051 749.16 119.025 749.583 119.025C750.353 119.025 751.047 119.11 751.665 119.279C752.283 119.449 752.803 119.707 753.227 120.054C753.658 120.401 753.988 120.837 754.217 121.361C754.445 121.886 754.56 122.504 754.56 123.215V132H752.579ZM752.338 126.198H749.532C748.982 126.198 748.508 126.253 748.11 126.363C747.713 126.473 747.387 126.63 747.133 126.833C746.879 127.036 746.688 127.282 746.562 127.569C746.443 127.849 746.384 128.166 746.384 128.521C746.384 128.767 746.422 129.004 746.498 129.232C746.574 129.452 746.697 129.651 746.866 129.829C747.035 129.998 747.256 130.134 747.526 130.235C747.797 130.337 748.127 130.388 748.517 130.388C749.024 130.388 749.604 130.235 750.256 129.931C750.916 129.618 751.61 129.127 752.338 128.458V126.198ZM770.149 132H767.115L761.174 125.17V132H758.965V114.062H761.174V125.081L766.899 119.254H769.819L763.84 125.132L770.149 132ZM783.746 124.954C783.746 125.267 783.742 125.53 783.733 125.741C783.725 125.953 783.712 126.152 783.695 126.338H774.745C774.745 127.641 775.109 128.644 775.837 129.347C776.565 130.041 777.614 130.388 778.985 130.388C779.358 130.388 779.73 130.375 780.103 130.35C780.475 130.316 780.835 130.273 781.182 130.223C781.529 130.172 781.859 130.117 782.172 130.058C782.493 129.99 782.79 129.918 783.061 129.842V131.657C782.46 131.826 781.778 131.962 781.017 132.063C780.263 132.174 779.48 132.229 778.668 132.229C777.576 132.229 776.637 132.08 775.85 131.784C775.062 131.488 774.415 131.061 773.907 130.502C773.408 129.935 773.035 129.245 772.79 128.433C772.553 127.612 772.435 126.685 772.435 125.652C772.435 124.755 772.562 123.909 772.815 123.113C773.078 122.309 773.454 121.607 773.945 121.006C774.445 120.396 775.054 119.914 775.773 119.559C776.493 119.203 777.31 119.025 778.224 119.025C779.112 119.025 779.899 119.165 780.585 119.444C781.271 119.724 781.846 120.121 782.312 120.638C782.785 121.146 783.141 121.768 783.378 122.504C783.623 123.232 783.746 124.049 783.746 124.954ZM781.448 124.637C781.474 124.07 781.419 123.553 781.283 123.088C781.148 122.614 780.936 122.208 780.648 121.869C780.369 121.531 780.018 121.268 779.595 121.082C779.172 120.887 778.681 120.79 778.122 120.79C777.64 120.79 777.2 120.883 776.802 121.069C776.404 121.256 776.061 121.518 775.773 121.856C775.486 122.195 775.253 122.601 775.075 123.075C774.897 123.549 774.787 124.07 774.745 124.637H781.448ZM805.912 121.082H802.142V119.254H808.146V130.159H811.942V132H801.723V130.159H805.912V121.082ZM806.687 113.909C806.932 113.909 807.16 113.956 807.372 114.049C807.584 114.133 807.766 114.256 807.918 114.417C808.079 114.578 808.201 114.764 808.286 114.976C808.379 115.179 808.426 115.403 808.426 115.648C808.426 115.885 808.379 116.11 808.286 116.321C808.201 116.533 808.079 116.719 807.918 116.88C807.766 117.041 807.584 117.168 807.372 117.261C807.16 117.345 806.932 117.388 806.687 117.388C806.441 117.388 806.213 117.345 806.001 117.261C805.789 117.168 805.603 117.041 805.442 116.88C805.29 116.719 805.167 116.533 805.074 116.321C804.99 116.11 804.947 115.885 804.947 115.648C804.947 115.403 804.99 115.179 805.074 114.976C805.167 114.764 805.29 114.578 805.442 114.417C805.603 114.256 805.789 114.133 806.001 114.049C806.213 113.956 806.441 113.909 806.687 113.909ZM826.136 131.822C825.636 131.949 825.12 132.038 824.587 132.089C824.054 132.148 823.512 132.178 822.962 132.178C821.362 132.178 820.169 131.818 819.382 131.099C818.595 130.371 818.201 129.258 818.201 127.76V121.107H814.634V119.254H818.201V115.75L820.41 115.179V119.254H826.136V121.107H820.41V127.582C820.41 128.496 820.651 129.182 821.134 129.639C821.625 130.087 822.344 130.312 823.292 130.312C823.698 130.312 824.143 130.282 824.625 130.223C825.107 130.155 825.611 130.053 826.136 129.918V131.822ZM854.726 131.822C854.226 131.949 853.71 132.038 853.177 132.089C852.644 132.148 852.102 132.178 851.552 132.178C849.952 132.178 848.759 131.818 847.972 131.099C847.185 130.371 846.791 129.258 846.791 127.76V121.107H843.224V119.254H846.791V115.75L849 115.179V119.254H854.726V121.107H849V127.582C849 128.496 849.241 129.182 849.724 129.639C850.215 130.087 850.934 130.312 851.882 130.312C852.288 130.312 852.732 130.282 853.215 130.223C853.697 130.155 854.201 130.053 854.726 129.918V131.822ZM869.846 125.525C869.846 126.516 869.706 127.425 869.427 128.255C869.147 129.076 868.745 129.783 868.221 130.375C867.696 130.959 867.057 131.416 866.304 131.746C865.55 132.068 864.696 132.229 863.739 132.229C862.825 132.229 862.004 132.089 861.276 131.81C860.557 131.522 859.943 131.103 859.436 130.553C858.936 130.003 858.551 129.321 858.28 128.509C858.018 127.696 857.887 126.761 857.887 125.703C857.887 124.713 858.026 123.812 858.306 122.999C858.585 122.178 858.987 121.476 859.512 120.892C860.036 120.299 860.675 119.842 861.429 119.521C862.182 119.19 863.037 119.025 863.993 119.025C864.907 119.025 865.724 119.169 866.443 119.457C867.171 119.736 867.785 120.151 868.284 120.701C868.792 121.243 869.177 121.92 869.439 122.732C869.71 123.545 869.846 124.476 869.846 125.525ZM867.586 125.627C867.586 124.84 867.497 124.154 867.319 123.57C867.15 122.978 866.905 122.487 866.583 122.098C866.261 121.7 865.868 121.404 865.402 121.209C864.945 121.006 864.433 120.904 863.866 120.904C863.206 120.904 862.639 121.035 862.165 121.298C861.7 121.552 861.314 121.895 861.01 122.326C860.714 122.758 860.493 123.261 860.35 123.837C860.214 124.404 860.146 125.001 860.146 125.627C860.146 126.414 860.231 127.104 860.4 127.696C860.578 128.289 860.828 128.784 861.149 129.182C861.471 129.571 861.86 129.867 862.317 130.07C862.774 130.265 863.291 130.362 863.866 130.362C864.526 130.362 865.089 130.235 865.555 129.981C866.029 129.719 866.414 129.372 866.71 128.94C867.015 128.509 867.235 128.009 867.37 127.442C867.514 126.867 867.586 126.262 867.586 125.627ZM897.61 131.822C897.111 131.949 896.595 132.038 896.062 132.089C895.528 132.148 894.987 132.178 894.437 132.178C892.837 132.178 891.644 131.818 890.856 131.099C890.069 130.371 889.676 129.258 889.676 127.76V121.107H886.108V119.254H889.676V115.75L891.885 115.179V119.254H897.61V121.107H891.885V127.582C891.885 128.496 892.126 129.182 892.608 129.639C893.099 130.087 893.819 130.312 894.767 130.312C895.173 130.312 895.617 130.282 896.1 130.223C896.582 130.155 897.086 130.053 897.61 129.918V131.822ZM911.88 132H909.671V123.862C909.671 122.881 909.485 122.148 909.112 121.666C908.748 121.175 908.224 120.93 907.538 120.93C907.242 120.93 906.963 120.972 906.7 121.057C906.446 121.133 906.18 121.272 905.9 121.476C905.621 121.67 905.316 121.937 904.986 122.275C904.656 122.614 904.275 123.037 903.844 123.545V132H901.635V114.062H903.844V119.254L903.768 121.26C904.115 120.845 904.453 120.498 904.783 120.219C905.122 119.931 905.456 119.698 905.786 119.521C906.125 119.343 906.467 119.216 906.814 119.14C907.161 119.063 907.521 119.025 907.894 119.025C909.163 119.025 910.145 119.415 910.839 120.193C911.533 120.964 911.88 122.127 911.88 123.685V132ZM926.695 124.954C926.695 125.267 926.691 125.53 926.683 125.741C926.674 125.953 926.661 126.152 926.645 126.338H917.694C917.694 127.641 918.058 128.644 918.786 129.347C919.514 130.041 920.563 130.388 921.935 130.388C922.307 130.388 922.679 130.375 923.052 130.35C923.424 130.316 923.784 130.273 924.131 130.223C924.478 130.172 924.808 130.117 925.121 130.058C925.443 129.99 925.739 129.918 926.01 129.842V131.657C925.409 131.826 924.728 131.962 923.966 132.063C923.213 132.174 922.43 132.229 921.617 132.229C920.525 132.229 919.586 132.08 918.799 131.784C918.012 131.488 917.364 131.061 916.856 130.502C916.357 129.935 915.985 129.245 915.739 128.433C915.502 127.612 915.384 126.685 915.384 125.652C915.384 124.755 915.511 123.909 915.765 123.113C916.027 122.309 916.404 121.607 916.895 121.006C917.394 120.396 918.003 119.914 918.723 119.559C919.442 119.203 920.259 119.025 921.173 119.025C922.062 119.025 922.849 119.165 923.534 119.444C924.22 119.724 924.795 120.121 925.261 120.638C925.735 121.146 926.09 121.768 926.327 122.504C926.573 123.232 926.695 124.049 926.695 124.954ZM924.397 124.637C924.423 124.07 924.368 123.553 924.232 123.088C924.097 122.614 923.885 122.208 923.598 121.869C923.318 121.531 922.967 121.268 922.544 121.082C922.121 120.887 921.63 120.79 921.071 120.79C920.589 120.79 920.149 120.883 919.751 121.069C919.353 121.256 919.01 121.518 918.723 121.856C918.435 122.195 918.202 122.601 918.024 123.075C917.847 123.549 917.737 124.07 917.694 124.637H924.397ZM944.52 119.254H946.487L946.576 121.311C946.949 120.87 947.308 120.507 947.655 120.219C948.002 119.923 948.341 119.686 948.671 119.508C949.009 119.33 949.352 119.207 949.699 119.14C950.046 119.063 950.406 119.025 950.778 119.025C952.09 119.025 953.08 119.415 953.749 120.193C954.426 120.964 954.765 122.127 954.765 123.685V132H952.556V123.862C952.556 122.864 952.369 122.127 951.997 121.653C951.625 121.171 951.07 120.93 950.334 120.93C950.063 120.93 949.797 120.972 949.534 121.057C949.28 121.133 949.014 121.272 948.734 121.476C948.455 121.67 948.15 121.937 947.82 122.275C947.499 122.614 947.135 123.037 946.729 123.545V132H944.52V119.254ZM969.58 124.954C969.58 125.267 969.576 125.53 969.567 125.741C969.559 125.953 969.546 126.152 969.529 126.338H960.579C960.579 127.641 960.943 128.644 961.671 129.347C962.399 130.041 963.448 130.388 964.819 130.388C965.192 130.388 965.564 130.375 965.937 130.35C966.309 130.316 966.669 130.273 967.016 130.223C967.363 130.172 967.693 130.117 968.006 130.058C968.327 129.99 968.624 129.918 968.895 129.842V131.657C968.294 131.826 967.612 131.962 966.851 132.063C966.097 132.174 965.314 132.229 964.502 132.229C963.41 132.229 962.471 132.08 961.684 131.784C960.896 131.488 960.249 131.061 959.741 130.502C959.242 129.935 958.869 129.245 958.624 128.433C958.387 127.612 958.269 126.685 958.269 125.652C958.269 124.755 958.396 123.909 958.649 123.113C958.912 122.309 959.288 121.607 959.779 121.006C960.279 120.396 960.888 119.914 961.607 119.559C962.327 119.203 963.144 119.025 964.058 119.025C964.946 119.025 965.733 119.165 966.419 119.444C967.104 119.724 967.68 120.121 968.146 120.638C968.619 121.146 968.975 121.768 969.212 122.504C969.457 123.232 969.58 124.049 969.58 124.954ZM967.282 124.637C967.308 124.07 967.253 123.553 967.117 123.088C966.982 122.614 966.77 122.208 966.482 121.869C966.203 121.531 965.852 121.268 965.429 121.082C965.006 120.887 964.515 120.79 963.956 120.79C963.474 120.79 963.034 120.883 962.636 121.069C962.238 121.256 961.895 121.518 961.607 121.856C961.32 122.195 961.087 122.601 960.909 123.075C960.731 123.549 960.621 124.07 960.579 124.637H967.282ZM984.599 132H981.666L978.226 127.138L974.823 132H971.967L976.905 125.602L972.195 119.254H975.026L978.378 124.154L981.666 119.254H984.396L979.609 125.652L984.599 132ZM997.675 131.822C997.175 131.949 996.659 132.038 996.126 132.089C995.593 132.148 995.051 132.178 994.501 132.178C992.901 132.178 991.708 131.818 990.921 131.099C990.134 130.371 989.74 129.258 989.74 127.76V121.107H986.173V119.254H989.74V115.75L991.949 115.179V119.254H997.675V121.107H991.949V127.582C991.949 128.496 992.19 129.182 992.673 129.639C993.164 130.087 993.883 130.312 994.831 130.312C995.237 130.312 995.682 130.282 996.164 130.223C996.646 130.155 997.15 130.053 997.675 129.918V131.822ZM1026.09 128.521C1026.09 128.97 1026.01 129.372 1025.86 129.728C1025.71 130.083 1025.5 130.4 1025.24 130.68C1024.97 130.951 1024.67 131.183 1024.32 131.378C1023.98 131.573 1023.6 131.733 1023.21 131.86C1022.82 131.987 1022.41 132.08 1022 132.14C1021.58 132.199 1021.18 132.229 1020.78 132.229C1019.92 132.229 1019.12 132.19 1018.39 132.114C1017.67 132.038 1016.97 131.915 1016.27 131.746V129.715C1017.02 129.926 1017.76 130.087 1018.5 130.197C1019.23 130.307 1019.96 130.362 1020.69 130.362C1021.75 130.362 1022.53 130.218 1023.04 129.931C1023.55 129.643 1023.8 129.232 1023.8 128.699C1023.8 128.471 1023.76 128.268 1023.67 128.09C1023.6 127.904 1023.45 127.73 1023.24 127.569C1023.03 127.4 1022.7 127.227 1022.25 127.049C1021.81 126.871 1021.21 126.668 1020.44 126.439C1019.86 126.27 1019.33 126.08 1018.84 125.868C1018.36 125.648 1017.94 125.39 1017.58 125.094C1017.23 124.798 1016.95 124.451 1016.74 124.053C1016.54 123.655 1016.44 123.185 1016.44 122.644C1016.44 122.288 1016.52 121.899 1016.68 121.476C1016.85 121.052 1017.13 120.659 1017.53 120.295C1017.93 119.931 1018.47 119.631 1019.14 119.394C1019.82 119.148 1020.67 119.025 1021.68 119.025C1022.18 119.025 1022.74 119.055 1023.34 119.114C1023.95 119.165 1024.59 119.258 1025.25 119.394V121.361C1024.56 121.192 1023.89 121.069 1023.27 120.993C1022.65 120.909 1022.11 120.866 1021.66 120.866C1021.11 120.866 1020.64 120.909 1020.26 120.993C1019.89 121.078 1019.58 121.196 1019.35 121.349C1019.12 121.493 1018.95 121.666 1018.85 121.869C1018.75 122.064 1018.7 122.275 1018.7 122.504C1018.7 122.732 1018.74 122.94 1018.83 123.126C1018.92 123.312 1019.08 123.494 1019.32 123.672C1019.57 123.841 1019.9 124.015 1020.34 124.192C1020.77 124.362 1021.33 124.548 1022.02 124.751C1022.78 124.971 1023.41 125.204 1023.93 125.449C1024.44 125.686 1024.86 125.953 1025.19 126.249C1025.51 126.545 1025.74 126.88 1025.87 127.252C1026.01 127.624 1026.09 128.048 1026.09 128.521ZM1040.56 131.822C1040.06 131.949 1039.54 132.038 1039.01 132.089C1038.48 132.148 1037.94 132.178 1037.39 132.178C1035.79 132.178 1034.59 131.818 1033.81 131.099C1033.02 130.371 1032.62 129.258 1032.62 127.76V121.107H1029.06V119.254H1032.62V115.75L1034.83 115.179V119.254H1040.56V121.107H1034.83V127.582C1034.83 128.496 1035.08 129.182 1035.56 129.639C1036.05 130.087 1036.77 130.312 1037.72 130.312C1038.12 130.312 1038.57 130.282 1039.05 130.223C1039.53 130.155 1040.03 130.053 1040.56 129.918V131.822ZM1052.77 132L1052.72 130.286C1052.03 130.972 1051.32 131.467 1050.6 131.771C1049.89 132.076 1049.14 132.229 1048.35 132.229C1047.63 132.229 1047 132.135 1046.49 131.949C1045.97 131.763 1045.54 131.509 1045.21 131.188C1044.88 130.857 1044.63 130.472 1044.47 130.032C1044.32 129.592 1044.24 129.114 1044.24 128.598C1044.24 127.32 1044.72 126.321 1045.66 125.602C1046.62 124.874 1048.03 124.51 1049.89 124.51H1052.53V123.393C1052.53 122.639 1052.29 122.038 1051.81 121.59C1051.33 121.133 1050.59 120.904 1049.6 120.904C1048.88 120.904 1048.17 120.985 1047.47 121.146C1046.77 121.306 1046.05 121.535 1045.31 121.831V119.838C1045.59 119.736 1045.9 119.639 1046.23 119.546C1046.58 119.444 1046.95 119.355 1047.33 119.279C1047.71 119.203 1048.1 119.144 1048.52 119.102C1048.93 119.051 1049.35 119.025 1049.78 119.025C1050.55 119.025 1051.24 119.11 1051.86 119.279C1052.48 119.449 1053 119.707 1053.42 120.054C1053.85 120.401 1054.18 120.837 1054.41 121.361C1054.64 121.886 1054.75 122.504 1054.75 123.215V132H1052.77ZM1052.53 126.198H1049.73C1049.18 126.198 1048.7 126.253 1048.3 126.363C1047.91 126.473 1047.58 126.63 1047.33 126.833C1047.07 127.036 1046.88 127.282 1046.75 127.569C1046.64 127.849 1046.58 128.166 1046.58 128.521C1046.58 128.767 1046.62 129.004 1046.69 129.232C1046.77 129.452 1046.89 129.651 1047.06 129.829C1047.23 129.998 1047.45 130.134 1047.72 130.235C1047.99 130.337 1048.32 130.388 1048.71 130.388C1049.22 130.388 1049.8 130.235 1050.45 129.931C1051.11 129.618 1051.8 129.127 1052.53 128.458V126.198ZM1069.15 131.822C1068.65 131.949 1068.13 132.038 1067.6 132.089C1067.07 132.148 1066.53 132.178 1065.98 132.178C1064.38 132.178 1063.18 131.818 1062.4 131.099C1061.61 130.371 1061.21 129.258 1061.21 127.76V121.107H1057.65V119.254H1061.21V115.75L1063.42 115.179V119.254H1069.15V121.107H1063.42V127.582C1063.42 128.496 1063.67 129.182 1064.15 129.639C1064.64 130.087 1065.36 130.312 1066.31 130.312C1066.71 130.312 1067.16 130.282 1067.64 130.223C1068.12 130.155 1068.62 130.053 1069.15 129.918V131.822ZM1077.52 121.082H1073.75V119.254H1079.75V130.159H1083.55V132H1073.33V130.159H1077.52V121.082ZM1078.29 113.909C1078.54 113.909 1078.76 113.956 1078.98 114.049C1079.19 114.133 1079.37 114.256 1079.52 114.417C1079.68 114.578 1079.81 114.764 1079.89 114.976C1079.98 115.179 1080.03 115.403 1080.03 115.648C1080.03 115.885 1079.98 116.11 1079.89 116.321C1079.81 116.533 1079.68 116.719 1079.52 116.88C1079.37 117.041 1079.19 117.168 1078.98 117.261C1078.76 117.345 1078.54 117.388 1078.29 117.388C1078.04 117.388 1077.82 117.345 1077.6 117.261C1077.39 117.168 1077.21 117.041 1077.05 116.88C1076.89 116.719 1076.77 116.533 1076.68 116.321C1076.59 116.11 1076.55 115.885 1076.55 115.648C1076.55 115.403 1076.59 115.179 1076.68 114.976C1076.77 114.764 1076.89 114.578 1077.05 114.417C1077.21 114.256 1077.39 114.133 1077.6 114.049C1077.82 113.956 1078.04 113.909 1078.29 113.909ZM1098.56 125.525C1098.56 126.516 1098.42 127.425 1098.15 128.255C1097.87 129.076 1097.46 129.783 1096.94 130.375C1096.41 130.959 1095.78 131.416 1095.02 131.746C1094.27 132.068 1093.41 132.229 1092.46 132.229C1091.54 132.229 1090.72 132.089 1090 131.81C1089.28 131.522 1088.66 131.103 1088.15 130.553C1087.65 130.003 1087.27 129.321 1087 128.509C1086.74 127.696 1086.61 126.761 1086.61 125.703C1086.61 124.713 1086.75 123.812 1087.02 122.999C1087.3 122.178 1087.71 121.476 1088.23 120.892C1088.76 120.299 1089.39 119.842 1090.15 119.521C1090.9 119.19 1091.76 119.025 1092.71 119.025C1093.63 119.025 1094.44 119.169 1095.16 119.457C1095.89 119.736 1096.5 120.151 1097 120.701C1097.51 121.243 1097.9 121.92 1098.16 122.732C1098.43 123.545 1098.56 124.476 1098.56 125.525ZM1096.3 125.627C1096.3 124.84 1096.22 124.154 1096.04 123.57C1095.87 122.978 1095.62 122.487 1095.3 122.098C1094.98 121.7 1094.59 121.404 1094.12 121.209C1093.66 121.006 1093.15 120.904 1092.58 120.904C1091.92 120.904 1091.36 121.035 1090.88 121.298C1090.42 121.552 1090.03 121.895 1089.73 122.326C1089.43 122.758 1089.21 123.261 1089.07 123.837C1088.93 124.404 1088.87 125.001 1088.87 125.627C1088.87 126.414 1088.95 127.104 1089.12 127.696C1089.3 128.289 1089.55 128.784 1089.87 129.182C1090.19 129.571 1090.58 129.867 1091.04 130.07C1091.49 130.265 1092.01 130.362 1092.58 130.362C1093.25 130.362 1093.81 130.235 1094.27 129.981C1094.75 129.719 1095.13 129.372 1095.43 128.94C1095.73 128.509 1095.95 128.009 1096.09 127.442C1096.23 126.867 1096.3 126.262 1096.3 125.627ZM1101.76 119.254H1103.73L1103.82 121.311C1104.19 120.87 1104.55 120.507 1104.9 120.219C1105.25 119.923 1105.58 119.686 1105.92 119.508C1106.25 119.33 1106.6 119.207 1106.94 119.14C1107.29 119.063 1107.65 119.025 1108.02 119.025C1109.33 119.025 1110.32 119.415 1110.99 120.193C1111.67 120.964 1112.01 122.127 1112.01 123.685V132H1109.8V123.862C1109.8 122.864 1109.61 122.127 1109.24 121.653C1108.87 121.171 1108.31 120.93 1107.58 120.93C1107.31 120.93 1107.04 120.972 1106.78 121.057C1106.52 121.133 1106.26 121.272 1105.98 121.476C1105.7 121.67 1105.39 121.937 1105.06 122.275C1104.74 122.614 1104.38 123.037 1103.97 123.545V132H1101.76V119.254Z" fill="black"/>
<path d="M618.707 126.707C619.098 126.317 619.098 125.683 618.707 125.293L612.343 118.929C611.953 118.538 611.319 118.538 610.929 118.929C610.538 119.319 610.538 119.953 610.929 120.343L616.586 126L610.929 131.657C610.538 132.047 610.538 132.681 610.929 133.071C611.319 133.462 611.953 133.462 612.343 133.071L618.707 126.707ZM576.5 127H618L618 125H576.5L576.5 127Z" fill="black"/>
<path d="M166.345 12.7617H163.154V11.2148H168.235V20.4424H171.447V22H162.8V20.4424H166.345V12.7617ZM167 6.69238C167.208 6.69238 167.401 6.73177 167.58 6.81055C167.759 6.88216 167.913 6.986 168.042 7.12207C168.178 7.25814 168.282 7.41569 168.354 7.59473C168.432 7.7666 168.472 7.95638 168.472 8.16406C168.472 8.36458 168.432 8.55436 168.354 8.7334C168.282 8.91243 168.178 9.06999 168.042 9.20605C167.913 9.34212 167.759 9.44954 167.58 9.52832C167.401 9.59993 167.208 9.63574 167 9.63574C166.792 9.63574 166.599 9.59993 166.42 9.52832C166.241 9.44954 166.083 9.34212 165.947 9.20605C165.818 9.06999 165.715 8.91243 165.636 8.7334C165.564 8.55436 165.528 8.36458 165.528 8.16406C165.528 7.95638 165.564 7.7666 165.636 7.59473C165.715 7.41569 165.818 7.25814 165.947 7.12207C166.083 6.986 166.241 6.88216 166.42 6.81055C166.599 6.73177 166.792 6.69238 167 6.69238Z" fill="black"/>
<path d="M165.293 59.7071C165.683 60.0976 166.317 60.0976 166.707 59.7071L173.071 53.3431C173.462 52.9526 173.462 52.3195 173.071 51.9289C172.681 51.5384 172.047 51.5384 171.657 51.9289L166 57.5858L160.343 51.9289C159.953 51.5384 159.319 51.5384 158.929 51.9289C158.538 52.3195 158.538 52.9526 158.929 53.3431L165.293 59.7071ZM165 29L165 59L167 59L167 29L165 29Z" fill="black"/>
<rect x="152" y="1" width="28" height="28" rx="6" stroke="black" stroke-width="2"/>
</g>
<defs>
<clipPath id="clip0_6295_4035">
<rect width="1131" height="154" fill="white"/>
</clipPath>
</defs>
</svg>
