<svg width="472" height="340" viewBox="0 0 472 340" fill="none" xmlns="http://www.w3.org/2000/svg">
<g clip-path="url(#clip0_3187_686)">
<circle cx="122" cy="26" r="8" fill="#FF5500" fill-opacity="0.3"/>
<path d="M36 1.00004L36 292L414 292" stroke="#CFCFCF" stroke-width="3"/>
<path opacity="0.5" d="M11.1025 291.985C11.1025 293.06 10.9951 294.041 10.7803 294.929C10.5654 295.81 10.2396 296.569 9.80273 297.206C9.36589 297.836 8.82161 298.327 8.16992 298.678C7.52539 299.021 6.76628 299.193 5.89258 299.193C5.14062 299.193 4.45671 299.054 3.84082 298.774C3.22493 298.488 2.69857 298.051 2.26172 297.464C1.82487 296.877 1.48828 296.128 1.25195 295.219C1.01562 294.309 0.897461 293.231 0.897461 291.985C0.897461 290.911 1.00488 289.93 1.21973 289.042C1.44173 288.154 1.76758 287.395 2.19727 286.765C2.63411 286.127 3.17839 285.637 3.83008 285.293C4.48177 284.942 5.24089 284.767 6.10742 284.767C6.85938 284.767 7.54329 284.91 8.15918 285.196C8.77507 285.476 9.30143 285.912 9.73828 286.507C10.1751 287.094 10.5117 287.842 10.748 288.752C10.9844 289.661 11.1025 290.739 11.1025 291.985ZM9.21191 292.05C9.21191 291.806 9.20117 291.566 9.17969 291.33C9.16536 291.087 9.14746 290.85 9.12598 290.621L3.18555 295.036C3.29297 295.409 3.42904 295.752 3.59375 296.067C3.75846 296.382 3.9554 296.655 4.18457 296.884C4.4209 297.106 4.68587 297.281 4.97949 297.41C5.28027 297.532 5.62044 297.593 6 297.593C6.48698 297.593 6.92741 297.475 7.32129 297.238C7.72233 297.002 8.0625 296.651 8.3418 296.186C8.62109 295.72 8.83594 295.144 8.98633 294.456C9.13672 293.761 9.21191 292.959 9.21191 292.05ZM2.78809 291.921C2.78809 292.143 2.78809 292.365 2.78809 292.587C2.79525 292.809 2.80957 293.024 2.83105 293.231L8.77148 288.838C8.66406 288.473 8.52799 288.14 8.36328 287.839C8.19857 287.538 8.00163 287.28 7.77246 287.065C7.54329 286.843 7.2819 286.672 6.98828 286.55C6.69466 286.428 6.36523 286.367 6 286.367C5.51302 286.367 5.06901 286.485 4.66797 286.722C4.27409 286.958 3.9375 287.312 3.6582 287.785C3.37891 288.251 3.16406 288.831 3.01367 289.525C2.86328 290.213 2.78809 291.011 2.78809 291.921Z" fill="black"/>
<path opacity="0.5" d="M41.1025 309.985C41.1025 311.06 40.9951 312.041 40.7803 312.929C40.5654 313.81 40.2396 314.569 39.8027 315.206C39.3659 315.836 38.8216 316.327 38.1699 316.678C37.5254 317.021 36.7663 317.193 35.8926 317.193C35.1406 317.193 34.4567 317.054 33.8408 316.774C33.2249 316.488 32.6986 316.051 32.2617 315.464C31.8249 314.877 31.4883 314.128 31.252 313.219C31.0156 312.309 30.8975 311.231 30.8975 309.985C30.8975 308.911 31.0049 307.93 31.2197 307.042C31.4417 306.154 31.7676 305.395 32.1973 304.765C32.6341 304.127 33.1784 303.637 33.8301 303.293C34.4818 302.942 35.2409 302.767 36.1074 302.767C36.8594 302.767 37.5433 302.91 38.1592 303.196C38.7751 303.476 39.3014 303.912 39.7383 304.507C40.1751 305.094 40.5117 305.842 40.748 306.752C40.9844 307.661 41.1025 308.739 41.1025 309.985ZM39.2119 310.05C39.2119 309.806 39.2012 309.566 39.1797 309.33C39.1654 309.087 39.1475 308.85 39.126 308.621L33.1855 313.036C33.293 313.409 33.429 313.752 33.5938 314.067C33.7585 314.382 33.9554 314.655 34.1846 314.884C34.4209 315.106 34.6859 315.281 34.9795 315.41C35.2803 315.532 35.6204 315.593 36 315.593C36.487 315.593 36.9274 315.475 37.3213 315.238C37.7223 315.002 38.0625 314.651 38.3418 314.186C38.6211 313.72 38.8359 313.144 38.9863 312.456C39.1367 311.761 39.2119 310.959 39.2119 310.05ZM32.7881 309.921C32.7881 310.143 32.7881 310.365 32.7881 310.587C32.7952 310.809 32.8096 311.024 32.8311 311.231L38.7715 306.838C38.6641 306.473 38.528 306.14 38.3633 305.839C38.1986 305.538 38.0016 305.28 37.7725 305.065C37.5433 304.843 37.2819 304.672 36.9883 304.55C36.6947 304.428 36.3652 304.367 36 304.367C35.513 304.367 35.069 304.485 34.668 304.722C34.2741 304.958 33.9375 305.312 33.6582 305.785C33.3789 306.251 33.1641 306.831 33.0137 307.525C32.8633 308.213 32.7881 309.011 32.7881 309.921Z" fill="black"/>
<path opacity="0.5" d="M126.162 317H117.343V315.26H120.952V305.012L117.59 306.838L116.902 305.248L121.371 302.896H123.025V315.26H126.162V317Z" fill="black"/>
<path opacity="0.5" d="M212.28 317H203.031V315.324L206.662 311.715C207.257 311.128 207.74 310.619 208.112 310.189C208.485 309.76 208.775 309.369 208.982 309.019C209.19 308.66 209.33 308.324 209.401 308.009C209.473 307.694 209.509 307.354 209.509 306.988C209.509 306.645 209.462 306.319 209.369 306.011C209.276 305.696 209.133 305.42 208.939 305.184C208.746 304.947 208.495 304.761 208.188 304.625C207.88 304.489 207.511 304.421 207.081 304.421C206.487 304.421 205.946 304.553 205.459 304.818C204.972 305.083 204.524 305.427 204.116 305.85L203.085 304.614C203.615 304.056 204.224 303.608 204.911 303.271C205.606 302.935 206.411 302.767 207.328 302.767C207.951 302.767 208.517 302.86 209.025 303.046C209.541 303.232 209.985 303.501 210.357 303.852C210.73 304.202 211.016 304.632 211.217 305.141C211.424 305.649 211.528 306.222 211.528 306.859C211.528 307.396 211.457 307.894 211.313 308.353C211.17 308.811 210.952 309.269 210.658 309.728C210.372 310.179 210.007 310.648 209.562 311.135C209.126 311.622 208.606 312.155 208.005 312.735L205.459 315.217H212.28V317Z" fill="black"/>
<path opacity="0.5" d="M298.512 312.735C298.512 313.351 298.386 313.931 298.136 314.476C297.885 315.013 297.509 315.485 297.008 315.894C296.507 316.295 295.876 316.613 295.117 316.85C294.358 317.079 293.474 317.193 292.464 317.193C291.905 317.193 291.404 317.175 290.96 317.14C290.516 317.104 290.101 317.057 289.714 317V315.324C290.158 315.403 290.627 315.464 291.121 315.507C291.615 315.55 292.12 315.571 292.636 315.571C293.338 315.571 293.936 315.51 294.43 315.389C294.931 315.26 295.339 315.077 295.654 314.841C295.969 314.604 296.199 314.318 296.342 313.981C296.485 313.645 296.557 313.265 296.557 312.843C296.557 312.456 296.471 312.119 296.299 311.833C296.127 311.547 295.883 311.307 295.568 311.113C295.26 310.92 294.888 310.777 294.451 310.684C294.021 310.583 293.549 310.533 293.033 310.533H291.433V308.997H293.055C293.477 308.997 293.86 308.943 294.204 308.836C294.555 308.721 294.852 308.56 295.096 308.353C295.346 308.145 295.536 307.891 295.665 307.59C295.801 307.282 295.869 306.935 295.869 306.548C295.869 305.796 295.64 305.248 295.182 304.904C294.723 304.561 294.05 304.389 293.162 304.389C292.689 304.389 292.202 304.435 291.701 304.528C291.2 304.621 290.663 304.761 290.09 304.947V303.314C290.333 303.229 290.591 303.153 290.863 303.089C291.143 303.017 291.418 302.96 291.69 302.917C291.97 302.867 292.245 302.831 292.518 302.81C292.79 302.781 293.051 302.767 293.302 302.767C294.047 302.767 294.702 302.849 295.268 303.014C295.833 303.171 296.306 303.4 296.686 303.701C297.065 304.002 297.352 304.367 297.545 304.797C297.738 305.227 297.835 305.71 297.835 306.247C297.835 307.049 297.627 307.722 297.212 308.267C296.804 308.811 296.242 309.244 295.525 309.566C295.891 309.624 296.249 309.738 296.6 309.91C296.958 310.082 297.276 310.304 297.556 310.576C297.842 310.841 298.071 311.156 298.243 311.521C298.422 311.887 298.512 312.291 298.512 312.735Z" fill="black"/>
<path opacity="0.5" d="M386.479 313.896H384.083V317H382.171V313.896H375.414V312.252L381.397 302.96H384.083V312.252H386.479V313.896ZM382.171 304.765L377.283 312.252H382.171V304.765Z" fill="black"/>
<path opacity="0.5" d="M10.6621 231H1.84277V229.26H5.45215V219.012L2.08984 220.838L1.40234 219.248L5.87109 216.896H7.52539V229.26H10.6621V231Z" fill="black"/>
<path opacity="0.5" d="M10.7803 165H1.53125V163.324L5.16211 159.715C5.75651 159.128 6.23991 158.619 6.6123 158.189C6.9847 157.76 7.27474 157.369 7.48242 157.019C7.6901 156.66 7.82975 156.324 7.90137 156.009C7.97298 155.694 8.00879 155.354 8.00879 154.988C8.00879 154.645 7.96224 154.319 7.86914 154.011C7.77604 153.696 7.63281 153.42 7.43945 153.184C7.24609 152.947 6.99544 152.761 6.6875 152.625C6.37956 152.489 6.01074 152.421 5.58105 152.421C4.98665 152.421 4.44596 152.553 3.95898 152.818C3.47201 153.083 3.02441 153.427 2.61621 153.85L1.58496 152.614C2.11491 152.056 2.72363 151.608 3.41113 151.271C4.10579 150.935 4.91146 150.767 5.82812 150.767C6.45117 150.767 7.01693 150.86 7.52539 151.046C8.04102 151.232 8.48503 151.501 8.85742 151.852C9.22982 152.202 9.51628 152.632 9.7168 153.141C9.92448 153.649 10.0283 154.222 10.0283 154.859C10.0283 155.396 9.95671 155.894 9.81348 156.353C9.67025 156.811 9.45182 157.269 9.1582 157.728C8.87174 158.179 8.50651 158.648 8.0625 159.135C7.62565 159.622 7.10645 160.155 6.50488 160.735L3.95898 163.217H10.7803V165Z" fill="black"/>
<path opacity="0.5" d="M10.5117 95.7354C10.5117 96.3512 10.3864 96.9313 10.1357 97.4756C9.88509 98.0127 9.50911 98.4854 9.00781 98.8936C8.50651 99.2946 7.8763 99.6133 7.11719 99.8496C6.35807 100.079 5.47363 100.193 4.46387 100.193C3.90527 100.193 3.40397 100.175 2.95996 100.14C2.51595 100.104 2.10059 100.057 1.71387 100V98.3242C2.15788 98.403 2.62695 98.4639 3.12109 98.5068C3.61523 98.5498 4.12012 98.5713 4.63574 98.5713C5.33757 98.5713 5.93555 98.5104 6.42969 98.3887C6.93099 98.2598 7.33919 98.0771 7.6543 97.8408C7.9694 97.6045 8.19857 97.318 8.3418 96.9814C8.48503 96.6449 8.55664 96.2653 8.55664 95.8428C8.55664 95.4561 8.4707 95.1195 8.29883 94.833C8.12695 94.5465 7.88346 94.3066 7.56836 94.1133C7.26042 93.9199 6.88802 93.7767 6.45117 93.6836C6.02148 93.5833 5.54883 93.5332 5.0332 93.5332H3.43262V91.9971H5.05469C5.47721 91.9971 5.86035 91.9434 6.2041 91.8359C6.55501 91.7214 6.85221 91.5602 7.0957 91.3525C7.34635 91.1449 7.53613 90.8906 7.66504 90.5898C7.80111 90.2819 7.86914 89.9346 7.86914 89.5479C7.86914 88.7959 7.63997 88.248 7.18164 87.9043C6.72331 87.5605 6.05013 87.3887 5.16211 87.3887C4.68945 87.3887 4.20247 87.4352 3.70117 87.5283C3.19987 87.6214 2.66276 87.7611 2.08984 87.9473V86.3145C2.33333 86.2285 2.59115 86.1533 2.86328 86.0889C3.14258 86.0173 3.41829 85.96 3.69043 85.917C3.96973 85.8669 4.24544 85.8311 4.51758 85.8096C4.78971 85.7809 5.05111 85.7666 5.30176 85.7666C6.04655 85.7666 6.70182 85.849 7.26758 86.0137C7.83333 86.1712 8.30599 86.4004 8.68555 86.7012C9.0651 87.002 9.35156 87.3672 9.54492 87.7969C9.73828 88.2266 9.83496 88.71 9.83496 89.2471C9.83496 90.0492 9.62728 90.7223 9.21191 91.2666C8.80371 91.8109 8.24154 92.2441 7.52539 92.5664C7.89062 92.6237 8.2487 92.7383 8.59961 92.9102C8.95768 93.082 9.27637 93.304 9.55566 93.5762C9.84212 93.8411 10.0713 94.1562 10.2432 94.5215C10.4222 94.8867 10.5117 95.2913 10.5117 95.7354Z" fill="black"/>
<path opacity="0.5" d="M11.4785 30.8955H9.08301V34H7.1709V30.8955H0.414062V29.252L6.39746 19.96H9.08301V29.252H11.4785V30.8955ZM7.1709 21.7646L2.2832 29.252H7.1709V21.7646Z" fill="black"/>
<path d="M36 224L122 26" stroke="black" stroke-width="3"/>
<path d="M208 92L122 26" stroke="black" stroke-width="3"/>
<path d="M294 157L208 92" stroke="black" stroke-width="3"/>
<path d="M294 157L381 92" stroke="black" stroke-width="3"/>
<path d="M193.653 329.762H190.463V328.215H195.544V337.442H198.756V339H190.108V337.442H193.653V329.762ZM194.309 323.692C194.516 323.692 194.71 323.732 194.889 323.811C195.068 323.882 195.222 323.986 195.351 324.122C195.487 324.258 195.59 324.416 195.662 324.595C195.741 324.767 195.78 324.956 195.78 325.164C195.78 325.365 195.741 325.554 195.662 325.733C195.59 325.912 195.487 326.07 195.351 326.206C195.222 326.342 195.068 326.45 194.889 326.528C194.71 326.6 194.516 326.636 194.309 326.636C194.101 326.636 193.908 326.6 193.729 326.528C193.549 326.45 193.392 326.342 193.256 326.206C193.127 326.07 193.023 325.912 192.944 325.733C192.873 325.554 192.837 325.365 192.837 325.164C192.837 324.956 192.873 324.767 192.944 324.595C193.023 324.416 193.127 324.258 193.256 324.122C193.392 323.986 193.549 323.882 193.729 323.811C193.908 323.732 194.101 323.692 194.309 323.692ZM202.075 328.215H203.74L203.815 329.955C204.131 329.583 204.435 329.275 204.729 329.031C205.022 328.781 205.309 328.58 205.588 328.43C205.874 328.279 206.164 328.175 206.458 328.118C206.752 328.054 207.056 328.021 207.371 328.021C208.481 328.021 209.319 328.351 209.885 329.01C210.458 329.661 210.744 330.646 210.744 331.964V339H208.875V332.114C208.875 331.269 208.717 330.646 208.402 330.245C208.087 329.837 207.618 329.633 206.995 329.633C206.766 329.633 206.54 329.669 206.318 329.74C206.104 329.805 205.878 329.923 205.642 330.095C205.405 330.259 205.147 330.485 204.868 330.771C204.596 331.058 204.288 331.416 203.944 331.846V339H202.075V328.215ZM213.623 333.833C213.623 332.916 213.748 332.104 213.999 331.395C214.25 330.678 214.604 330.077 215.062 329.59C215.528 329.096 216.083 328.723 216.728 328.473C217.379 328.215 218.103 328.086 218.897 328.086C219.241 328.086 219.578 328.107 219.907 328.15C220.244 328.193 220.573 328.261 220.896 328.354V323.821H222.775V339H221.1L221.035 336.959C220.512 337.718 219.947 338.28 219.338 338.646C218.729 339.011 218.07 339.193 217.361 339.193C216.745 339.193 216.201 339.064 215.729 338.807C215.263 338.549 214.873 338.187 214.558 337.722C214.25 337.249 214.017 336.683 213.859 336.024C213.702 335.366 213.623 334.635 213.623 333.833ZM215.535 333.715C215.535 335.018 215.725 335.992 216.104 336.637C216.491 337.274 217.035 337.593 217.737 337.593C218.21 337.593 218.708 337.382 219.23 336.959C219.76 336.536 220.315 335.91 220.896 335.079V330.073C220.588 329.93 220.247 329.823 219.875 329.751C219.503 329.672 219.134 329.633 218.769 329.633C217.752 329.633 216.957 329.962 216.384 330.621C215.818 331.28 215.535 332.311 215.535 333.715ZM235.376 333.038C235.376 333.303 235.372 333.525 235.365 333.704C235.358 333.883 235.347 334.051 235.333 334.209H227.76C227.76 335.312 228.068 336.16 228.684 336.755C229.299 337.342 230.188 337.636 231.348 337.636C231.663 337.636 231.978 337.625 232.293 337.604C232.608 337.575 232.912 337.539 233.206 337.496C233.5 337.453 233.779 337.407 234.044 337.356C234.316 337.299 234.567 337.238 234.796 337.174V338.71C234.287 338.853 233.711 338.968 233.066 339.054C232.429 339.147 231.767 339.193 231.079 339.193C230.155 339.193 229.36 339.068 228.694 338.817C228.028 338.567 227.48 338.205 227.051 337.732C226.628 337.253 226.313 336.669 226.105 335.981C225.905 335.287 225.805 334.503 225.805 333.629C225.805 332.87 225.912 332.154 226.127 331.48C226.349 330.8 226.668 330.206 227.083 329.697C227.506 329.182 228.021 328.773 228.63 328.473C229.239 328.172 229.93 328.021 230.703 328.021C231.455 328.021 232.121 328.14 232.701 328.376C233.281 328.612 233.768 328.949 234.162 329.386C234.563 329.815 234.864 330.342 235.064 330.965C235.272 331.581 235.376 332.272 235.376 333.038ZM233.432 332.77C233.453 332.29 233.407 331.853 233.292 331.459C233.177 331.058 232.998 330.714 232.755 330.428C232.519 330.141 232.221 329.919 231.863 329.762C231.505 329.597 231.09 329.515 230.617 329.515C230.209 329.515 229.837 329.593 229.5 329.751C229.163 329.909 228.873 330.131 228.63 330.417C228.386 330.703 228.189 331.047 228.039 331.448C227.889 331.849 227.796 332.29 227.76 332.77H233.432ZM248.084 339H245.603L242.691 334.886L239.812 339H237.396L241.574 333.586L237.589 328.215H239.984L242.82 332.361L245.603 328.215H247.912L243.862 333.629L248.084 339Z" fill="#666666"/>
<path d="M49.6035 2.87695H45.833V1.06152H51.8379V17.1592H55.6338V19H45.4141V17.1592H49.6035V2.87695ZM70.6523 12.5254C70.6523 13.5156 70.5127 14.4255 70.2334 15.2549C69.9541 16.0758 69.5521 16.7826 69.0273 17.375C68.5026 17.959 67.8636 18.416 67.1104 18.7461C66.3571 19.0677 65.5023 19.2285 64.5459 19.2285C63.6318 19.2285 62.8109 19.0889 62.083 18.8096C61.3636 18.5218 60.75 18.1029 60.2422 17.5527C59.7428 17.0026 59.3577 16.3213 59.0869 15.5088C58.8245 14.6963 58.6934 13.7611 58.6934 12.7031C58.6934 11.7129 58.833 10.8115 59.1123 9.99902C59.3916 9.17806 59.7936 8.47559 60.3184 7.8916C60.8431 7.29915 61.4821 6.84212 62.2354 6.52051C62.9886 6.19043 63.8434 6.02539 64.7998 6.02539C65.7139 6.02539 66.5306 6.16927 67.25 6.45703C67.9779 6.73633 68.5915 7.15104 69.0908 7.70117C69.5986 8.24284 69.9837 8.91992 70.2461 9.73242C70.5169 10.5449 70.6523 11.4759 70.6523 12.5254ZM68.3926 12.627C68.3926 11.8398 68.3037 11.1543 68.126 10.5703C67.9567 9.97786 67.7113 9.48698 67.3896 9.09766C67.068 8.69987 66.6745 8.40365 66.209 8.20898C65.752 8.00586 65.2399 7.9043 64.6729 7.9043C64.0127 7.9043 63.4456 8.03548 62.9717 8.29785C62.5062 8.55176 62.1211 8.89453 61.8164 9.32617C61.5202 9.75781 61.3001 10.2614 61.1562 10.8369C61.0208 11.404 60.9531 12.0007 60.9531 12.627C60.9531 13.4141 61.0378 14.1038 61.207 14.6963C61.3848 15.2887 61.6344 15.7839 61.9561 16.1816C62.2777 16.571 62.667 16.8672 63.124 17.0703C63.5811 17.265 64.0973 17.3623 64.6729 17.3623C65.333 17.3623 65.8958 17.2354 66.3613 16.9814C66.8353 16.7191 67.2204 16.3721 67.5166 15.9404C67.8213 15.5088 68.0413 15.0094 68.1768 14.4424C68.3206 13.8669 68.3926 13.2617 68.3926 12.627ZM83.7539 18.5303C83.1784 18.7503 82.5859 18.9111 81.9766 19.0127C81.3757 19.1227 80.7536 19.1777 80.1104 19.1777C78.096 19.1777 76.543 18.6318 75.4512 17.54C74.3678 16.4482 73.8262 14.8529 73.8262 12.7539C73.8262 11.7467 73.9827 10.8327 74.2959 10.0117C74.609 9.19076 75.0492 8.48828 75.6162 7.9043C76.1833 7.32031 76.8604 6.87174 77.6475 6.55859C78.4346 6.23698 79.3021 6.07617 80.25 6.07617C80.9102 6.07617 81.528 6.12272 82.1035 6.21582C82.679 6.30892 83.2292 6.46126 83.7539 6.67285V8.78027C83.2038 8.49251 82.641 8.28516 82.0654 8.1582C81.4984 8.02279 80.9102 7.95508 80.3008 7.95508C79.7337 7.95508 79.1963 8.0651 78.6885 8.28516C78.1891 8.49674 77.749 8.80566 77.3682 9.21191C76.9873 9.61816 76.6868 10.1133 76.4668 10.6973C76.2467 11.2812 76.1367 11.9414 76.1367 12.6777C76.1367 14.2181 76.5091 15.3734 77.2539 16.1436C78.0072 16.9053 79.0482 17.2861 80.377 17.2861C80.9779 17.2861 81.5576 17.2184 82.1162 17.083C82.6833 16.9476 83.2292 16.7445 83.7539 16.4736V18.5303ZM96.335 19L96.2842 17.2861C95.5902 17.9717 94.8835 18.4668 94.1641 18.7715C93.4531 19.0762 92.7041 19.2285 91.917 19.2285C91.1891 19.2285 90.5671 19.1354 90.0508 18.9492C89.5345 18.763 89.1071 18.5091 88.7686 18.1875C88.4385 17.8574 88.193 17.4723 88.0322 17.0322C87.8799 16.5921 87.8037 16.1139 87.8037 15.5977C87.8037 14.3197 88.2777 13.321 89.2256 12.6016C90.182 11.8737 91.5911 11.5098 93.4531 11.5098H96.0938V10.3926C96.0938 9.63932 95.8525 9.03841 95.3701 8.58984C94.8877 8.13281 94.1514 7.9043 93.1611 7.9043C92.4417 7.9043 91.7308 7.9847 91.0283 8.14551C90.3343 8.30632 89.6149 8.53483 88.8701 8.83105V6.83789C89.1494 6.73633 89.4583 6.639 89.7969 6.5459C90.1439 6.44434 90.5078 6.35547 90.8887 6.2793C91.2695 6.20312 91.6673 6.14388 92.082 6.10156C92.4967 6.05078 92.9157 6.02539 93.3389 6.02539C94.109 6.02539 94.8031 6.11003 95.4209 6.2793C96.0387 6.44857 96.5592 6.70671 96.9824 7.05371C97.4141 7.40072 97.7441 7.83659 97.9727 8.36133C98.2012 8.88607 98.3154 9.50391 98.3154 10.2148V19H96.335ZM96.0938 13.1982H93.2881C92.738 13.1982 92.264 13.2533 91.8662 13.3633C91.4684 13.4733 91.1426 13.6299 90.8887 13.833C90.6348 14.0361 90.4443 14.2816 90.3174 14.5693C90.1989 14.8486 90.1396 15.166 90.1396 15.5215C90.1396 15.7669 90.1777 16.0039 90.2539 16.2324C90.3301 16.4525 90.4528 16.6514 90.6221 16.8291C90.7913 16.9984 91.0114 17.1338 91.2822 17.2354C91.5531 17.3369 91.8831 17.3877 92.2725 17.3877C92.7803 17.3877 93.36 17.2354 94.0117 16.9307C94.6719 16.6175 95.3659 16.1266 96.0938 15.458V13.1982ZM106.783 2.87695H103.013V1.06152H109.018V17.1592H112.813V19H102.594V17.1592H106.783V2.87695ZM140.121 19V9.84668C140.121 9.44889 140.104 9.12305 140.07 8.86914C140.045 8.61523 139.998 8.41634 139.931 8.27246C139.871 8.12012 139.791 8.01432 139.689 7.95508C139.596 7.89583 139.478 7.86621 139.334 7.86621C139.165 7.86621 139.008 7.91699 138.864 8.01855C138.72 8.12012 138.564 8.28516 138.395 8.51367C138.234 8.74219 138.052 9.04688 137.849 9.42773C137.654 9.80013 137.421 10.2614 137.15 10.8115V19H135.132V10.0879C135.132 9.6224 135.115 9.24577 135.081 8.95801C135.056 8.67025 135.009 8.44596 134.941 8.28516C134.882 8.12435 134.802 8.01432 134.7 7.95508C134.599 7.89583 134.476 7.86621 134.332 7.86621C134.18 7.86621 134.036 7.90853 133.9 7.99316C133.765 8.0778 133.613 8.23014 133.443 8.4502C133.283 8.67025 133.101 8.9707 132.897 9.35156C132.694 9.73242 132.453 10.2191 132.174 10.8115V19H130.143V6.25391H131.831L131.933 8.67871C132.153 8.19629 132.364 7.78581 132.567 7.44727C132.779 7.10872 132.995 6.83789 133.215 6.63477C133.435 6.42318 133.668 6.27083 133.913 6.17773C134.167 6.07617 134.446 6.02539 134.751 6.02539C135.437 6.02539 135.957 6.24967 136.312 6.69824C136.668 7.14681 136.846 7.84082 136.846 8.78027C137.049 8.34017 137.248 7.95085 137.442 7.6123C137.637 7.2653 137.844 6.97754 138.064 6.74902C138.293 6.51204 138.543 6.33431 138.813 6.21582C139.084 6.08887 139.397 6.02539 139.753 6.02539C141.353 6.02539 142.152 7.25684 142.152 9.71973V19H140.121ZM153.515 19L153.464 17.2861C152.77 17.9717 152.063 18.4668 151.344 18.7715C150.633 19.0762 149.884 19.2285 149.097 19.2285C148.369 19.2285 147.747 19.1354 147.23 18.9492C146.714 18.763 146.287 18.5091 145.948 18.1875C145.618 17.8574 145.373 17.4723 145.212 17.0322C145.06 16.5921 144.983 16.1139 144.983 15.5977C144.983 14.3197 145.457 13.321 146.405 12.6016C147.362 11.8737 148.771 11.5098 150.633 11.5098H153.273V10.3926C153.273 9.63932 153.032 9.03841 152.55 8.58984C152.067 8.13281 151.331 7.9043 150.341 7.9043C149.621 7.9043 148.91 7.9847 148.208 8.14551C147.514 8.30632 146.795 8.53483 146.05 8.83105V6.83789C146.329 6.73633 146.638 6.639 146.977 6.5459C147.324 6.44434 147.688 6.35547 148.068 6.2793C148.449 6.20312 148.847 6.14388 149.262 6.10156C149.676 6.05078 150.095 6.02539 150.519 6.02539C151.289 6.02539 151.983 6.11003 152.601 6.2793C153.218 6.44857 153.739 6.70671 154.162 7.05371C154.594 7.40072 154.924 7.83659 155.152 8.36133C155.381 8.88607 155.495 9.50391 155.495 10.2148V19H153.515ZM153.273 13.1982H150.468C149.918 13.1982 149.444 13.2533 149.046 13.3633C148.648 13.4733 148.322 13.6299 148.068 13.833C147.814 14.0361 147.624 14.2816 147.497 14.5693C147.379 14.8486 147.319 15.166 147.319 15.5215C147.319 15.7669 147.357 16.0039 147.434 16.2324C147.51 16.4525 147.632 16.6514 147.802 16.8291C147.971 16.9984 148.191 17.1338 148.462 17.2354C148.733 17.3369 149.063 17.3877 149.452 17.3877C149.96 17.3877 150.54 17.2354 151.191 16.9307C151.852 16.6175 152.546 16.1266 153.273 15.458V13.1982ZM171.11 19H168.178L164.737 14.1377L161.335 19H158.479L163.417 12.6016L158.707 6.25391H161.538L164.89 11.1543L168.178 6.25391H170.907L166.121 12.6523L171.11 19ZM178.258 8.08203H174.487V6.25391H180.492V17.1592H184.288V19H174.068V17.1592H178.258V8.08203ZM179.032 0.90918C179.278 0.90918 179.506 0.955729 179.718 1.04883C179.929 1.13346 180.111 1.25618 180.264 1.41699C180.424 1.5778 180.547 1.764 180.632 1.97559C180.725 2.17871 180.771 2.40299 180.771 2.64844C180.771 2.88542 180.725 3.1097 180.632 3.32129C180.547 3.53288 180.424 3.71908 180.264 3.87988C180.111 4.04069 179.929 4.16764 179.718 4.26074C179.506 4.34538 179.278 4.3877 179.032 4.3877C178.787 4.3877 178.558 4.34538 178.347 4.26074C178.135 4.16764 177.949 4.04069 177.788 3.87988C177.636 3.71908 177.513 3.53288 177.42 3.32129C177.335 3.1097 177.293 2.88542 177.293 2.64844C177.293 2.40299 177.335 2.17871 177.42 1.97559C177.513 1.764 177.636 1.5778 177.788 1.41699C177.949 1.25618 178.135 1.13346 178.347 1.04883C178.558 0.955729 178.787 0.90918 179.032 0.90918ZM197.301 19V9.84668C197.301 9.44889 197.284 9.12305 197.25 8.86914C197.225 8.61523 197.178 8.41634 197.11 8.27246C197.051 8.12012 196.971 8.01432 196.869 7.95508C196.776 7.89583 196.658 7.86621 196.514 7.86621C196.344 7.86621 196.188 7.91699 196.044 8.01855C195.9 8.12012 195.743 8.28516 195.574 8.51367C195.413 8.74219 195.231 9.04688 195.028 9.42773C194.834 9.80013 194.601 10.2614 194.33 10.8115V19H192.312V10.0879C192.312 9.6224 192.295 9.24577 192.261 8.95801C192.235 8.67025 192.189 8.44596 192.121 8.28516C192.062 8.12435 191.981 8.01432 191.88 7.95508C191.778 7.89583 191.656 7.86621 191.512 7.86621C191.359 7.86621 191.215 7.90853 191.08 7.99316C190.945 8.0778 190.792 8.23014 190.623 8.4502C190.462 8.67025 190.28 8.9707 190.077 9.35156C189.874 9.73242 189.633 10.2191 189.354 10.8115V19H187.322V6.25391H189.011L189.112 8.67871C189.332 8.19629 189.544 7.78581 189.747 7.44727C189.959 7.10872 190.174 6.83789 190.395 6.63477C190.615 6.42318 190.847 6.27083 191.093 6.17773C191.347 6.07617 191.626 6.02539 191.931 6.02539C192.616 6.02539 193.137 6.24967 193.492 6.69824C193.848 7.14681 194.025 7.84082 194.025 8.78027C194.229 8.34017 194.427 7.95085 194.622 7.6123C194.817 7.2653 195.024 6.97754 195.244 6.74902C195.473 6.51204 195.722 6.33431 195.993 6.21582C196.264 6.08887 196.577 6.02539 196.933 6.02539C198.532 6.02539 199.332 7.25684 199.332 9.71973V19H197.301ZM210.694 19L210.644 17.2861C209.95 17.9717 209.243 18.4668 208.523 18.7715C207.812 19.0762 207.063 19.2285 206.276 19.2285C205.549 19.2285 204.926 19.1354 204.41 18.9492C203.894 18.763 203.466 18.5091 203.128 18.1875C202.798 17.8574 202.552 17.4723 202.392 17.0322C202.239 16.5921 202.163 16.1139 202.163 15.5977C202.163 14.3197 202.637 13.321 203.585 12.6016C204.541 11.8737 205.951 11.5098 207.812 11.5098H210.453V10.3926C210.453 9.63932 210.212 9.03841 209.729 8.58984C209.247 8.13281 208.511 7.9043 207.521 7.9043C206.801 7.9043 206.09 7.9847 205.388 8.14551C204.694 8.30632 203.974 8.53483 203.229 8.83105V6.83789C203.509 6.73633 203.818 6.639 204.156 6.5459C204.503 6.44434 204.867 6.35547 205.248 6.2793C205.629 6.20312 206.027 6.14388 206.441 6.10156C206.856 6.05078 207.275 6.02539 207.698 6.02539C208.468 6.02539 209.162 6.11003 209.78 6.2793C210.398 6.44857 210.919 6.70671 211.342 7.05371C211.773 7.40072 212.104 7.83659 212.332 8.36133C212.561 8.88607 212.675 9.50391 212.675 10.2148V19H210.694ZM210.453 13.1982H207.647C207.097 13.1982 206.623 13.2533 206.226 13.3633C205.828 13.4733 205.502 13.6299 205.248 13.833C204.994 14.0361 204.804 14.2816 204.677 14.5693C204.558 14.8486 204.499 15.166 204.499 15.5215C204.499 15.7669 204.537 16.0039 204.613 16.2324C204.689 16.4525 204.812 16.6514 204.981 16.8291C205.151 16.9984 205.371 17.1338 205.642 17.2354C205.912 17.3369 206.243 17.3877 206.632 17.3877C207.14 17.3877 207.719 17.2354 208.371 16.9307C209.031 16.6175 209.725 16.1266 210.453 15.458V13.1982Z" fill="#FF5500"/>
<path d="M308.604 64.877H304.833V63.0615H310.838V79.1592H314.634V81H304.414V79.1592H308.604V64.877ZM329.652 74.5254C329.652 75.5156 329.513 76.4255 329.233 77.2549C328.954 78.0758 328.552 78.7826 328.027 79.375C327.503 79.959 326.864 80.416 326.11 80.7461C325.357 81.0677 324.502 81.2285 323.546 81.2285C322.632 81.2285 321.811 81.0889 321.083 80.8096C320.364 80.5218 319.75 80.1029 319.242 79.5527C318.743 79.0026 318.358 78.3213 318.087 77.5088C317.825 76.6963 317.693 75.7611 317.693 74.7031C317.693 73.7129 317.833 72.8115 318.112 71.999C318.392 71.1781 318.794 70.4756 319.318 69.8916C319.843 69.2992 320.482 68.8421 321.235 68.5205C321.989 68.1904 322.843 68.0254 323.8 68.0254C324.714 68.0254 325.531 68.1693 326.25 68.457C326.978 68.7363 327.591 69.151 328.091 69.7012C328.599 70.2428 328.984 70.9199 329.246 71.7324C329.517 72.5449 329.652 73.4759 329.652 74.5254ZM327.393 74.627C327.393 73.8398 327.304 73.1543 327.126 72.5703C326.957 71.9779 326.711 71.487 326.39 71.0977C326.068 70.6999 325.674 70.4036 325.209 70.209C324.752 70.0059 324.24 69.9043 323.673 69.9043C323.013 69.9043 322.446 70.0355 321.972 70.2979C321.506 70.5518 321.121 70.8945 320.816 71.3262C320.52 71.7578 320.3 72.2614 320.156 72.8369C320.021 73.404 319.953 74.0007 319.953 74.627C319.953 75.4141 320.038 76.1038 320.207 76.6963C320.385 77.2887 320.634 77.7839 320.956 78.1816C321.278 78.571 321.667 78.8672 322.124 79.0703C322.581 79.265 323.097 79.3623 323.673 79.3623C324.333 79.3623 324.896 79.2354 325.361 78.9814C325.835 78.7191 326.22 78.3721 326.517 77.9404C326.821 77.5088 327.041 77.0094 327.177 76.4424C327.321 75.8669 327.393 75.2617 327.393 74.627ZM342.754 80.5303C342.178 80.7503 341.586 80.9111 340.977 81.0127C340.376 81.1227 339.754 81.1777 339.11 81.1777C337.096 81.1777 335.543 80.6318 334.451 79.54C333.368 78.4482 332.826 76.8529 332.826 74.7539C332.826 73.7467 332.983 72.8327 333.296 72.0117C333.609 71.1908 334.049 70.4883 334.616 69.9043C335.183 69.3203 335.86 68.8717 336.647 68.5586C337.435 68.237 338.302 68.0762 339.25 68.0762C339.91 68.0762 340.528 68.1227 341.104 68.2158C341.679 68.3089 342.229 68.4613 342.754 68.6729V70.7803C342.204 70.4925 341.641 70.2852 341.065 70.1582C340.498 70.0228 339.91 69.9551 339.301 69.9551C338.734 69.9551 338.196 70.0651 337.688 70.2852C337.189 70.4967 336.749 70.8057 336.368 71.2119C335.987 71.6182 335.687 72.1133 335.467 72.6973C335.247 73.2812 335.137 73.9414 335.137 74.6777C335.137 76.2181 335.509 77.3734 336.254 78.1436C337.007 78.9053 338.048 79.2861 339.377 79.2861C339.978 79.2861 340.558 79.2184 341.116 79.083C341.683 78.9476 342.229 78.7445 342.754 78.4736V80.5303ZM355.335 81L355.284 79.2861C354.59 79.9717 353.883 80.4668 353.164 80.7715C352.453 81.0762 351.704 81.2285 350.917 81.2285C350.189 81.2285 349.567 81.1354 349.051 80.9492C348.535 80.763 348.107 80.5091 347.769 80.1875C347.438 79.8574 347.193 79.4723 347.032 79.0322C346.88 78.5921 346.804 78.1139 346.804 77.5977C346.804 76.3197 347.278 75.321 348.226 74.6016C349.182 73.8737 350.591 73.5098 352.453 73.5098H355.094V72.3926C355.094 71.6393 354.853 71.0384 354.37 70.5898C353.888 70.1328 353.151 69.9043 352.161 69.9043C351.442 69.9043 350.731 69.9847 350.028 70.1455C349.334 70.3063 348.615 70.5348 347.87 70.8311V68.8379C348.149 68.7363 348.458 68.639 348.797 68.5459C349.144 68.4443 349.508 68.3555 349.889 68.2793C350.27 68.2031 350.667 68.1439 351.082 68.1016C351.497 68.0508 351.916 68.0254 352.339 68.0254C353.109 68.0254 353.803 68.11 354.421 68.2793C355.039 68.4486 355.559 68.7067 355.982 69.0537C356.414 69.4007 356.744 69.8366 356.973 70.3613C357.201 70.8861 357.315 71.5039 357.315 72.2148V81H355.335ZM355.094 75.1982H352.288C351.738 75.1982 351.264 75.2533 350.866 75.3633C350.468 75.4733 350.143 75.6299 349.889 75.833C349.635 76.0361 349.444 76.2816 349.317 76.5693C349.199 76.8486 349.14 77.166 349.14 77.5215C349.14 77.7669 349.178 78.0039 349.254 78.2324C349.33 78.4525 349.453 78.6514 349.622 78.8291C349.791 78.9984 350.011 79.1338 350.282 79.2354C350.553 79.3369 350.883 79.3877 351.272 79.3877C351.78 79.3877 352.36 79.2354 353.012 78.9307C353.672 78.6175 354.366 78.1266 355.094 77.458V75.1982ZM365.783 64.877H362.013V63.0615H368.018V79.1592H371.813V81H361.594V79.1592H365.783V64.877ZM399.121 81V71.8467C399.121 71.4489 399.104 71.123 399.07 70.8691C399.045 70.6152 398.998 70.4163 398.931 70.2725C398.871 70.1201 398.791 70.0143 398.689 69.9551C398.596 69.8958 398.478 69.8662 398.334 69.8662C398.165 69.8662 398.008 69.917 397.864 70.0186C397.72 70.1201 397.564 70.2852 397.395 70.5137C397.234 70.7422 397.052 71.0469 396.849 71.4277C396.654 71.8001 396.421 72.2614 396.15 72.8115V81H394.132V72.0879C394.132 71.6224 394.115 71.2458 394.081 70.958C394.056 70.6702 394.009 70.446 393.941 70.2852C393.882 70.1243 393.802 70.0143 393.7 69.9551C393.599 69.8958 393.476 69.8662 393.332 69.8662C393.18 69.8662 393.036 69.9085 392.9 69.9932C392.765 70.0778 392.613 70.2301 392.443 70.4502C392.283 70.6702 392.101 70.9707 391.897 71.3516C391.694 71.7324 391.453 72.2191 391.174 72.8115V81H389.143V68.2539H390.831L390.933 70.6787C391.153 70.1963 391.364 69.7858 391.567 69.4473C391.779 69.1087 391.995 68.8379 392.215 68.6348C392.435 68.4232 392.668 68.2708 392.913 68.1777C393.167 68.0762 393.446 68.0254 393.751 68.0254C394.437 68.0254 394.957 68.2497 395.312 68.6982C395.668 69.1468 395.846 69.8408 395.846 70.7803C396.049 70.3402 396.248 69.9508 396.442 69.6123C396.637 69.2653 396.844 68.9775 397.064 68.749C397.293 68.512 397.543 68.3343 397.813 68.2158C398.084 68.0889 398.397 68.0254 398.753 68.0254C400.353 68.0254 401.152 69.2568 401.152 71.7197V81H399.121ZM412.515 81L412.464 79.2861C411.77 79.9717 411.063 80.4668 410.344 80.7715C409.633 81.0762 408.884 81.2285 408.097 81.2285C407.369 81.2285 406.747 81.1354 406.23 80.9492C405.714 80.763 405.287 80.5091 404.948 80.1875C404.618 79.8574 404.373 79.4723 404.212 79.0322C404.06 78.5921 403.983 78.1139 403.983 77.5977C403.983 76.3197 404.457 75.321 405.405 74.6016C406.362 73.8737 407.771 73.5098 409.633 73.5098H412.273V72.3926C412.273 71.6393 412.032 71.0384 411.55 70.5898C411.067 70.1328 410.331 69.9043 409.341 69.9043C408.621 69.9043 407.91 69.9847 407.208 70.1455C406.514 70.3063 405.795 70.5348 405.05 70.8311V68.8379C405.329 68.7363 405.638 68.639 405.977 68.5459C406.324 68.4443 406.688 68.3555 407.068 68.2793C407.449 68.2031 407.847 68.1439 408.262 68.1016C408.676 68.0508 409.095 68.0254 409.519 68.0254C410.289 68.0254 410.983 68.11 411.601 68.2793C412.218 68.4486 412.739 68.7067 413.162 69.0537C413.594 69.4007 413.924 69.8366 414.152 70.3613C414.381 70.8861 414.495 71.5039 414.495 72.2148V81H412.515ZM412.273 75.1982H409.468C408.918 75.1982 408.444 75.2533 408.046 75.3633C407.648 75.4733 407.322 75.6299 407.068 75.833C406.814 76.0361 406.624 76.2816 406.497 76.5693C406.379 76.8486 406.319 77.166 406.319 77.5215C406.319 77.7669 406.357 78.0039 406.434 78.2324C406.51 78.4525 406.632 78.6514 406.802 78.8291C406.971 78.9984 407.191 79.1338 407.462 79.2354C407.733 79.3369 408.063 79.3877 408.452 79.3877C408.96 79.3877 409.54 79.2354 410.191 78.9307C410.852 78.6175 411.546 78.1266 412.273 77.458V75.1982ZM430.11 81H427.178L423.737 76.1377L420.335 81H417.479L422.417 74.6016L417.707 68.2539H420.538L423.89 73.1543L427.178 68.2539H429.907L425.121 74.6523L430.11 81ZM437.258 70.082H433.487V68.2539H439.492V79.1592H443.288V81H433.068V79.1592H437.258V70.082ZM438.032 62.9092C438.278 62.9092 438.506 62.9557 438.718 63.0488C438.929 63.1335 439.111 63.2562 439.264 63.417C439.424 63.5778 439.547 63.764 439.632 63.9756C439.725 64.1787 439.771 64.403 439.771 64.6484C439.771 64.8854 439.725 65.1097 439.632 65.3213C439.547 65.5329 439.424 65.7191 439.264 65.8799C439.111 66.0407 438.929 66.1676 438.718 66.2607C438.506 66.3454 438.278 66.3877 438.032 66.3877C437.787 66.3877 437.558 66.3454 437.347 66.2607C437.135 66.1676 436.949 66.0407 436.788 65.8799C436.636 65.7191 436.513 65.5329 436.42 65.3213C436.335 65.1097 436.293 64.8854 436.293 64.6484C436.293 64.403 436.335 64.1787 436.42 63.9756C436.513 63.764 436.636 63.5778 436.788 63.417C436.949 63.2562 437.135 63.1335 437.347 63.0488C437.558 62.9557 437.787 62.9092 438.032 62.9092ZM456.301 81V71.8467C456.301 71.4489 456.284 71.123 456.25 70.8691C456.225 70.6152 456.178 70.4163 456.11 70.2725C456.051 70.1201 455.971 70.0143 455.869 69.9551C455.776 69.8958 455.658 69.8662 455.514 69.8662C455.344 69.8662 455.188 69.917 455.044 70.0186C454.9 70.1201 454.743 70.2852 454.574 70.5137C454.413 70.7422 454.231 71.0469 454.028 71.4277C453.834 71.8001 453.601 72.2614 453.33 72.8115V81H451.312V72.0879C451.312 71.6224 451.295 71.2458 451.261 70.958C451.235 70.6702 451.189 70.446 451.121 70.2852C451.062 70.1243 450.981 70.0143 450.88 69.9551C450.778 69.8958 450.656 69.8662 450.512 69.8662C450.359 69.8662 450.215 69.9085 450.08 69.9932C449.945 70.0778 449.792 70.2301 449.623 70.4502C449.462 70.6702 449.28 70.9707 449.077 71.3516C448.874 71.7324 448.633 72.2191 448.354 72.8115V81H446.322V68.2539H448.011L448.112 70.6787C448.332 70.1963 448.544 69.7858 448.747 69.4473C448.959 69.1087 449.174 68.8379 449.395 68.6348C449.615 68.4232 449.847 68.2708 450.093 68.1777C450.347 68.0762 450.626 68.0254 450.931 68.0254C451.616 68.0254 452.137 68.2497 452.492 68.6982C452.848 69.1468 453.025 69.8408 453.025 70.7803C453.229 70.3402 453.427 69.9508 453.622 69.6123C453.817 69.2653 454.024 68.9775 454.244 68.749C454.473 68.512 454.722 68.3343 454.993 68.2158C455.264 68.0889 455.577 68.0254 455.933 68.0254C457.532 68.0254 458.332 69.2568 458.332 71.7197V81H456.301ZM469.694 81L469.644 79.2861C468.95 79.9717 468.243 80.4668 467.523 80.7715C466.812 81.0762 466.063 81.2285 465.276 81.2285C464.549 81.2285 463.926 81.1354 463.41 80.9492C462.894 80.763 462.466 80.5091 462.128 80.1875C461.798 79.8574 461.552 79.4723 461.392 79.0322C461.239 78.5921 461.163 78.1139 461.163 77.5977C461.163 76.3197 461.637 75.321 462.585 74.6016C463.541 73.8737 464.951 73.5098 466.812 73.5098H469.453V72.3926C469.453 71.6393 469.212 71.0384 468.729 70.5898C468.247 70.1328 467.511 69.9043 466.521 69.9043C465.801 69.9043 465.09 69.9847 464.388 70.1455C463.694 70.3063 462.974 70.5348 462.229 70.8311V68.8379C462.509 68.7363 462.818 68.639 463.156 68.5459C463.503 68.4443 463.867 68.3555 464.248 68.2793C464.629 68.2031 465.027 68.1439 465.441 68.1016C465.856 68.0508 466.275 68.0254 466.698 68.0254C467.468 68.0254 468.162 68.11 468.78 68.2793C469.398 68.4486 469.919 68.7067 470.342 69.0537C470.773 69.4007 471.104 69.8366 471.332 70.3613C471.561 70.8861 471.675 71.5039 471.675 72.2148V81H469.694ZM469.453 75.1982H466.647C466.097 75.1982 465.623 75.2533 465.226 75.3633C464.828 75.4733 464.502 75.6299 464.248 75.833C463.994 76.0361 463.804 76.2816 463.677 76.5693C463.558 76.8486 463.499 77.166 463.499 77.5215C463.499 77.7669 463.537 78.0039 463.613 78.2324C463.689 78.4525 463.812 78.6514 463.981 78.8291C464.151 78.9984 464.371 79.1338 464.642 79.2354C464.912 79.3369 465.243 79.3877 465.632 79.3877C466.14 79.3877 466.719 79.2354 467.371 78.9307C468.031 78.6175 468.725 78.1266 469.453 77.458V75.1982Z" fill="#FF5500"/>
<circle cx="122" cy="26" r="4" fill="black"/>
<circle cx="381" cy="92" r="8" fill="#FF5500" fill-opacity="0.3"/>
<circle cx="208" cy="92" r="4" fill="black"/>
<circle cx="294" cy="157" r="4" fill="black"/>
<circle cx="381" cy="92" r="4" fill="black"/>
<circle cx="36" cy="224" r="4" fill="black"/>
</g>
<defs>
<clipPath id="clip0_3187_686">
<rect width="472" height="340" fill="white"/>
</clipPath>
</defs>
</svg>
