<svg width="831" height="77" viewBox="0 0 831 77" fill="none" xmlns="http://www.w3.org/2000/svg">
<g clip-path="url(#clip0_6295_1659)">
<rect width="831" height="77" fill="white"/>
<path d="M9.79199 45L9.7334 43.0225C8.93262 43.8135 8.11719 44.3848 7.28711 44.7363C6.4668 45.0879 5.60254 45.2637 4.69434 45.2637C3.85449 45.2637 3.13672 45.1562 2.54102 44.9414C1.94531 44.7266 1.45215 44.4336 1.06152 44.0625C0.680664 43.6816 0.397461 43.2373 0.211914 42.7295C0.0361328 42.2217 -0.0517578 41.6699 -0.0517578 41.0742C-0.0517578 39.5996 0.495117 38.4473 1.58887 37.6172C2.69238 36.7773 4.31836 36.3574 6.4668 36.3574H9.51367V35.0684C9.51367 34.1992 9.23535 33.5059 8.67871 32.9883C8.12207 32.4609 7.27246 32.1973 6.12988 32.1973C5.2998 32.1973 4.47949 32.29 3.66895 32.4756C2.86816 32.6611 2.03809 32.9248 1.17871 33.2666V30.9668C1.50098 30.8496 1.85742 30.7373 2.24805 30.6299C2.64844 30.5127 3.06836 30.4102 3.50781 30.3223C3.94727 30.2344 4.40625 30.166 4.88477 30.1172C5.36328 30.0586 5.84668 30.0293 6.33496 30.0293C7.22363 30.0293 8.02441 30.127 8.7373 30.3223C9.4502 30.5176 10.0508 30.8154 10.5391 31.2158C11.0371 31.6162 11.418 32.1191 11.6816 32.7246C11.9453 33.3301 12.0771 34.043 12.0771 34.8633V45H9.79199ZM9.51367 38.3057H6.27637C5.6416 38.3057 5.09473 38.3691 4.63574 38.4961C4.17676 38.623 3.80078 38.8037 3.50781 39.0381C3.21484 39.2725 2.99512 39.5557 2.84863 39.8877C2.71191 40.21 2.64355 40.5762 2.64355 40.9863C2.64355 41.2695 2.6875 41.543 2.77539 41.8066C2.86328 42.0605 3.00488 42.29 3.2002 42.4951C3.39551 42.6904 3.64941 42.8467 3.96191 42.9639C4.27441 43.0811 4.65527 43.1396 5.10449 43.1396C5.69043 43.1396 6.35938 42.9639 7.11133 42.6123C7.87305 42.251 8.67383 41.6846 9.51367 40.9131V38.3057ZM59.4062 37.3828C59.4062 38.6035 59.2354 39.6973 58.8936 40.6641C58.5615 41.6211 58.083 42.4365 57.458 43.1104C56.8428 43.7744 56.0908 44.2871 55.2021 44.6484C54.3135 45 53.3125 45.1758 52.1992 45.1758C51.3301 45.1758 50.4414 45.0928 49.5332 44.9268C48.625 44.7607 47.7266 44.4971 46.8379 44.1357V24.3018H49.3867V30L49.2695 32.7246C50.002 31.7383 50.7832 31.0449 51.6133 30.6445C52.4531 30.2344 53.3516 30.0293 54.3086 30.0293C55.1484 30.0293 55.8857 30.2051 56.5205 30.5566C57.1553 30.9082 57.6875 31.4062 58.1172 32.0508C58.5469 32.6855 58.8691 33.457 59.084 34.3652C59.2988 35.2637 59.4062 36.2695 59.4062 37.3828ZM56.7988 37.5C56.7988 36.7285 56.7402 36.0205 56.623 35.376C56.5156 34.7314 56.3398 34.1797 56.0957 33.7207C55.8516 33.2617 55.5391 32.9053 55.1582 32.6514C54.7773 32.3877 54.3232 32.2559 53.7959 32.2559C53.4736 32.2559 53.1465 32.3096 52.8145 32.417C52.4824 32.5146 52.1357 32.6855 51.7744 32.9297C51.4229 33.1641 51.0469 33.4814 50.6465 33.8818C50.2559 34.2725 49.8359 34.7607 49.3867 35.3467V42.4805C49.8848 42.6758 50.3926 42.832 50.9102 42.9492C51.4277 43.0566 51.9209 43.1104 52.3896 43.1104C52.9756 43.1104 53.5322 43.0176 54.0596 42.832C54.5967 42.6465 55.0654 42.3389 55.4658 41.9092C55.876 41.4697 56.1982 40.8936 56.4326 40.1807C56.6768 39.458 56.7988 38.5645 56.7988 37.5ZM104.758 44.458C104.094 44.7119 103.41 44.8975 102.707 45.0146C102.014 45.1416 101.296 45.2051 100.554 45.2051C98.2295 45.2051 96.4375 44.5752 95.1777 43.3154C93.9277 42.0557 93.3027 40.2148 93.3027 37.793C93.3027 36.6309 93.4834 35.5762 93.8447 34.6289C94.2061 33.6816 94.7139 32.8711 95.3682 32.1973C96.0225 31.5234 96.8037 31.0059 97.7119 30.6445C98.6201 30.2734 99.6211 30.0879 100.715 30.0879C101.477 30.0879 102.189 30.1416 102.854 30.249C103.518 30.3564 104.152 30.5322 104.758 30.7764V33.208C104.123 32.876 103.474 32.6367 102.81 32.4902C102.155 32.334 101.477 32.2559 100.773 32.2559C100.119 32.2559 99.499 32.3828 98.9131 32.6367C98.3369 32.8809 97.8291 33.2373 97.3896 33.7061C96.9502 34.1748 96.6035 34.7461 96.3496 35.4199C96.0957 36.0938 95.9688 36.8555 95.9688 37.7051C95.9688 39.4824 96.3984 40.8154 97.2578 41.7041C98.127 42.583 99.3281 43.0225 100.861 43.0225C101.555 43.0225 102.224 42.9443 102.868 42.7881C103.522 42.6318 104.152 42.3975 104.758 42.085V44.458ZM151.252 44.458C150.588 44.7119 149.904 44.8975 149.201 45.0146C148.508 45.1416 147.79 45.2051 147.048 45.2051C144.724 45.2051 142.932 44.5752 141.672 43.3154C140.422 42.0557 139.797 40.2148 139.797 37.793C139.797 36.6309 139.978 35.5762 140.339 34.6289C140.7 33.6816 141.208 32.8711 141.862 32.1973C142.517 31.5234 143.298 31.0059 144.206 30.6445C145.114 30.2734 146.115 30.0879 147.209 30.0879C147.971 30.0879 148.684 30.1416 149.348 30.249C150.012 30.3564 150.646 30.5322 151.252 30.7764V33.208C150.617 32.876 149.968 32.6367 149.304 32.4902C148.649 32.334 147.971 32.2559 147.268 32.2559C146.613 32.2559 145.993 32.3828 145.407 32.6367C144.831 32.8809 144.323 33.2373 143.884 33.7061C143.444 34.1748 143.098 34.7461 142.844 35.4199C142.59 36.0938 142.463 36.8555 142.463 37.7051C142.463 39.4824 142.893 40.8154 143.752 41.7041C144.621 42.583 145.822 43.0225 147.355 43.0225C148.049 43.0225 148.718 42.9443 149.362 42.7881C150.017 42.6318 150.646 42.3975 151.252 42.085V44.458ZM198.889 37.3828C198.889 38.6035 198.718 39.6973 198.376 40.6641C198.044 41.6211 197.565 42.4365 196.94 43.1104C196.325 43.7744 195.573 44.2871 194.685 44.6484C193.796 45 192.795 45.1758 191.682 45.1758C190.812 45.1758 189.924 45.0928 189.016 44.9268C188.107 44.7607 187.209 44.4971 186.32 44.1357V24.3018H188.869V30L188.752 32.7246C189.484 31.7383 190.266 31.0449 191.096 30.6445C191.936 30.2344 192.834 30.0293 193.791 30.0293C194.631 30.0293 195.368 30.2051 196.003 30.5566C196.638 30.9082 197.17 31.4062 197.6 32.0508C198.029 32.6855 198.352 33.457 198.566 34.3652C198.781 35.2637 198.889 36.2695 198.889 37.3828ZM196.281 37.5C196.281 36.7285 196.223 36.0205 196.105 35.376C195.998 34.7314 195.822 34.1797 195.578 33.7207C195.334 33.2617 195.021 32.9053 194.641 32.6514C194.26 32.3877 193.806 32.2559 193.278 32.2559C192.956 32.2559 192.629 32.3096 192.297 32.417C191.965 32.5146 191.618 32.6855 191.257 32.9297C190.905 33.1641 190.529 33.4814 190.129 33.8818C189.738 34.2725 189.318 34.7607 188.869 35.3467V42.4805C189.367 42.6758 189.875 42.832 190.393 42.9492C190.91 43.0566 191.403 43.1104 191.872 43.1104C192.458 43.1104 193.015 43.0176 193.542 42.832C194.079 42.6465 194.548 42.3389 194.948 41.9092C195.358 41.4697 195.681 40.8936 195.915 40.1807C196.159 39.458 196.281 38.5645 196.281 37.5ZM242.263 45L242.204 43.0225C241.403 43.8135 240.588 44.3848 239.758 44.7363C238.938 45.0879 238.073 45.2637 237.165 45.2637C236.325 45.2637 235.607 45.1562 235.012 44.9414C234.416 44.7266 233.923 44.4336 233.532 44.0625C233.151 43.6816 232.868 43.2373 232.683 42.7295C232.507 42.2217 232.419 41.6699 232.419 41.0742C232.419 39.5996 232.966 38.4473 234.06 37.6172C235.163 36.7773 236.789 36.3574 238.938 36.3574H241.984V35.0684C241.984 34.1992 241.706 33.5059 241.149 32.9883C240.593 32.4609 239.743 32.1973 238.601 32.1973C237.771 32.1973 236.95 32.29 236.14 32.4756C235.339 32.6611 234.509 32.9248 233.649 33.2666V30.9668C233.972 30.8496 234.328 30.7373 234.719 30.6299C235.119 30.5127 235.539 30.4102 235.979 30.3223C236.418 30.2344 236.877 30.166 237.355 30.1172C237.834 30.0586 238.317 30.0293 238.806 30.0293C239.694 30.0293 240.495 30.127 241.208 30.3223C241.921 30.5176 242.521 30.8154 243.01 31.2158C243.508 31.6162 243.889 32.1191 244.152 32.7246C244.416 33.3301 244.548 34.043 244.548 34.8633V45H242.263ZM241.984 38.3057H238.747C238.112 38.3057 237.565 38.3691 237.106 38.4961C236.647 38.623 236.271 38.8037 235.979 39.0381C235.686 39.2725 235.466 39.5557 235.319 39.8877C235.183 40.21 235.114 40.5762 235.114 40.9863C235.114 41.2695 235.158 41.543 235.246 41.8066C235.334 42.0605 235.476 42.29 235.671 42.4951C235.866 42.6904 236.12 42.8467 236.433 42.9639C236.745 43.0811 237.126 43.1396 237.575 43.1396C238.161 43.1396 238.83 42.9639 239.582 42.6123C240.344 42.251 241.145 41.6846 241.984 40.9131V38.3057ZM291.877 37.3828C291.877 38.6035 291.706 39.6973 291.364 40.6641C291.032 41.6211 290.554 42.4365 289.929 43.1104C289.313 43.7744 288.562 44.2871 287.673 44.6484C286.784 45 285.783 45.1758 284.67 45.1758C283.801 45.1758 282.912 45.0928 282.004 44.9268C281.096 44.7607 280.197 44.4971 279.309 44.1357V24.3018H281.857V30L281.74 32.7246C282.473 31.7383 283.254 31.0449 284.084 30.6445C284.924 30.2344 285.822 30.0293 286.779 30.0293C287.619 30.0293 288.356 30.2051 288.991 30.5566C289.626 30.9082 290.158 31.4062 290.588 32.0508C291.018 32.6855 291.34 33.457 291.555 34.3652C291.77 35.2637 291.877 36.2695 291.877 37.3828ZM289.27 37.5C289.27 36.7285 289.211 36.0205 289.094 35.376C288.986 34.7314 288.811 34.1797 288.566 33.7207C288.322 33.2617 288.01 32.9053 287.629 32.6514C287.248 32.3877 286.794 32.2559 286.267 32.2559C285.944 32.2559 285.617 32.3096 285.285 32.417C284.953 32.5146 284.606 32.6855 284.245 32.9297C283.894 33.1641 283.518 33.4814 283.117 33.8818C282.727 34.2725 282.307 34.7607 281.857 35.3467V42.4805C282.355 42.6758 282.863 42.832 283.381 42.9492C283.898 43.0566 284.392 43.1104 284.86 43.1104C285.446 43.1104 286.003 43.0176 286.53 42.832C287.067 42.6465 287.536 42.3389 287.937 41.9092C288.347 41.4697 288.669 40.8936 288.903 40.1807C289.147 39.458 289.27 38.5645 289.27 37.5ZM335.251 45L335.192 43.0225C334.392 43.8135 333.576 44.3848 332.746 44.7363C331.926 45.0879 331.062 45.2637 330.153 45.2637C329.313 45.2637 328.596 45.1562 328 44.9414C327.404 44.7266 326.911 44.4336 326.521 44.0625C326.14 43.6816 325.856 43.2373 325.671 42.7295C325.495 42.2217 325.407 41.6699 325.407 41.0742C325.407 39.5996 325.954 38.4473 327.048 37.6172C328.151 36.7773 329.777 36.3574 331.926 36.3574H334.973V35.0684C334.973 34.1992 334.694 33.5059 334.138 32.9883C333.581 32.4609 332.731 32.1973 331.589 32.1973C330.759 32.1973 329.938 32.29 329.128 32.4756C328.327 32.6611 327.497 32.9248 326.638 33.2666V30.9668C326.96 30.8496 327.316 30.7373 327.707 30.6299C328.107 30.5127 328.527 30.4102 328.967 30.3223C329.406 30.2344 329.865 30.166 330.344 30.1172C330.822 30.0586 331.306 30.0293 331.794 30.0293C332.683 30.0293 333.483 30.127 334.196 30.3223C334.909 30.5176 335.51 30.8154 335.998 31.2158C336.496 31.6162 336.877 32.1191 337.141 32.7246C337.404 33.3301 337.536 34.043 337.536 34.8633V45H335.251ZM334.973 38.3057H331.735C331.101 38.3057 330.554 38.3691 330.095 38.4961C329.636 38.623 329.26 38.8037 328.967 39.0381C328.674 39.2725 328.454 39.5557 328.308 39.8877C328.171 40.21 328.103 40.5762 328.103 40.9863C328.103 41.2695 328.146 41.543 328.234 41.8066C328.322 42.0605 328.464 42.29 328.659 42.4951C328.854 42.6904 329.108 42.8467 329.421 42.9639C329.733 43.0811 330.114 43.1396 330.563 43.1396C331.149 43.1396 331.818 42.9639 332.57 42.6123C333.332 42.251 334.133 41.6846 334.973 40.9131V38.3057Z" fill="black"/>
<path d="M439.121 19V9.84668C439.121 9.44889 439.104 9.12305 439.07 8.86914C439.045 8.61523 438.998 8.41634 438.931 8.27246C438.871 8.12012 438.791 8.01432 438.689 7.95508C438.596 7.89583 438.478 7.86621 438.334 7.86621C438.165 7.86621 438.008 7.91699 437.864 8.01855C437.72 8.12012 437.564 8.28516 437.395 8.51367C437.234 8.74219 437.052 9.04688 436.849 9.42773C436.654 9.80013 436.421 10.2614 436.15 10.8115V19H434.132V10.0879C434.132 9.6224 434.115 9.24577 434.081 8.95801C434.056 8.67025 434.009 8.44596 433.941 8.28516C433.882 8.12435 433.802 8.01432 433.7 7.95508C433.599 7.89583 433.476 7.86621 433.332 7.86621C433.18 7.86621 433.036 7.90853 432.9 7.99316C432.765 8.0778 432.613 8.23014 432.443 8.4502C432.283 8.67025 432.101 8.9707 431.897 9.35156C431.694 9.73242 431.453 10.2191 431.174 10.8115V19H429.143V6.25391H430.831L430.933 8.67871C431.153 8.19629 431.364 7.78581 431.567 7.44727C431.779 7.10872 431.995 6.83789 432.215 6.63477C432.435 6.42318 432.668 6.27083 432.913 6.17773C433.167 6.07617 433.446 6.02539 433.751 6.02539C434.437 6.02539 434.957 6.24967 435.312 6.69824C435.668 7.14681 435.846 7.84082 435.846 8.78027C436.049 8.34017 436.248 7.95085 436.442 7.6123C436.637 7.2653 436.844 6.97754 437.064 6.74902C437.293 6.51204 437.543 6.33431 437.813 6.21582C438.084 6.08887 438.397 6.02539 438.753 6.02539C440.353 6.02539 441.152 7.25684 441.152 9.71973V19H439.121ZM452.515 19L452.464 17.2861C451.77 17.9717 451.063 18.4668 450.344 18.7715C449.633 19.0762 448.884 19.2285 448.097 19.2285C447.369 19.2285 446.747 19.1354 446.23 18.9492C445.714 18.763 445.287 18.5091 444.948 18.1875C444.618 17.8574 444.373 17.4723 444.212 17.0322C444.06 16.5921 443.983 16.1139 443.983 15.5977C443.983 14.3197 444.457 13.321 445.405 12.6016C446.362 11.8737 447.771 11.5098 449.633 11.5098H452.273V10.3926C452.273 9.63932 452.032 9.03841 451.55 8.58984C451.067 8.13281 450.331 7.9043 449.341 7.9043C448.621 7.9043 447.91 7.9847 447.208 8.14551C446.514 8.30632 445.795 8.53483 445.05 8.83105V6.83789C445.329 6.73633 445.638 6.639 445.977 6.5459C446.324 6.44434 446.688 6.35547 447.068 6.2793C447.449 6.20312 447.847 6.14388 448.262 6.10156C448.676 6.05078 449.095 6.02539 449.519 6.02539C450.289 6.02539 450.983 6.11003 451.601 6.2793C452.218 6.44857 452.739 6.70671 453.162 7.05371C453.594 7.40072 453.924 7.83659 454.152 8.36133C454.381 8.88607 454.495 9.50391 454.495 10.2148V19H452.515ZM452.273 13.1982H449.468C448.918 13.1982 448.444 13.2533 448.046 13.3633C447.648 13.4733 447.322 13.6299 447.068 13.833C446.814 14.0361 446.624 14.2816 446.497 14.5693C446.379 14.8486 446.319 15.166 446.319 15.5215C446.319 15.7669 446.357 16.0039 446.434 16.2324C446.51 16.4525 446.632 16.6514 446.802 16.8291C446.971 16.9984 447.191 17.1338 447.462 17.2354C447.733 17.3369 448.063 17.3877 448.452 17.3877C448.96 17.3877 449.54 17.2354 450.191 16.9307C450.852 16.6175 451.546 16.1266 452.273 15.458V13.1982ZM459.142 6.25391H461.16L461.224 8.60254C461.977 7.69694 462.717 7.04102 463.445 6.63477C464.182 6.22852 464.922 6.02539 465.667 6.02539C466.987 6.02539 467.986 6.4528 468.663 7.30762C469.349 8.16243 469.666 9.43197 469.615 11.1162H467.381C467.406 9.99902 467.241 9.19076 466.886 8.69141C466.539 8.18359 466.027 7.92969 465.35 7.92969C465.053 7.92969 464.753 7.9847 464.448 8.09473C464.152 8.19629 463.843 8.36556 463.521 8.60254C463.208 8.83105 462.874 9.12728 462.519 9.49121C462.163 9.85514 461.782 10.2952 461.376 10.8115V19H459.142V6.25391ZM484.38 19H481.346L475.404 12.1699V19H473.195V1.06152H475.404V12.0811L481.13 6.25391H484.05L478.07 12.1318L484.38 19ZM509.694 19L509.644 17.2861C508.95 17.9717 508.243 18.4668 507.523 18.7715C506.812 19.0762 506.063 19.2285 505.276 19.2285C504.549 19.2285 503.926 19.1354 503.41 18.9492C502.894 18.763 502.466 18.5091 502.128 18.1875C501.798 17.8574 501.552 17.4723 501.392 17.0322C501.239 16.5921 501.163 16.1139 501.163 15.5977C501.163 14.3197 501.637 13.321 502.585 12.6016C503.541 11.8737 504.951 11.5098 506.812 11.5098H509.453V10.3926C509.453 9.63932 509.212 9.03841 508.729 8.58984C508.247 8.13281 507.511 7.9043 506.521 7.9043C505.801 7.9043 505.09 7.9847 504.388 8.14551C503.694 8.30632 502.974 8.53483 502.229 8.83105V6.83789C502.509 6.73633 502.818 6.639 503.156 6.5459C503.503 6.44434 503.867 6.35547 504.248 6.2793C504.629 6.20312 505.027 6.14388 505.441 6.10156C505.856 6.05078 506.275 6.02539 506.698 6.02539C507.468 6.02539 508.162 6.11003 508.78 6.2793C509.398 6.44857 509.919 6.70671 510.342 7.05371C510.773 7.40072 511.104 7.83659 511.332 8.36133C511.561 8.88607 511.675 9.50391 511.675 10.2148V19H509.694ZM509.453 13.1982H506.647C506.097 13.1982 505.623 13.2533 505.226 13.3633C504.828 13.4733 504.502 13.6299 504.248 13.833C503.994 14.0361 503.804 14.2816 503.677 14.5693C503.558 14.8486 503.499 15.166 503.499 15.5215C503.499 15.7669 503.537 16.0039 503.613 16.2324C503.689 16.4525 503.812 16.6514 503.981 16.8291C504.151 16.9984 504.371 17.1338 504.642 17.2354C504.912 17.3369 505.243 17.3877 505.632 17.3877C506.14 17.3877 506.719 17.2354 507.371 16.9307C508.031 16.6175 508.725 16.1266 509.453 15.458V13.1982ZM520.143 2.87695H516.372V1.06152H522.377V17.1592H526.173V19H515.953V17.1592H520.143V2.87695ZM534.438 2.87695H530.667V1.06152H536.672V17.1592H540.468V19H530.248V17.1592H534.438V2.87695ZM563.027 2.87695H559.257V1.06152H565.262V17.1592H569.058V19H558.838V17.1592H563.027V2.87695ZM583.746 11.9541C583.746 12.2673 583.742 12.5296 583.733 12.7412C583.725 12.9528 583.712 13.1517 583.695 13.3379H574.745C574.745 14.6413 575.109 15.6442 575.837 16.3467C576.565 17.0407 577.614 17.3877 578.985 17.3877C579.358 17.3877 579.73 17.375 580.103 17.3496C580.475 17.3158 580.835 17.2734 581.182 17.2227C581.529 17.1719 581.859 17.1169 582.172 17.0576C582.493 16.9899 582.79 16.918 583.061 16.8418V18.6572C582.46 18.8265 581.778 18.9619 581.017 19.0635C580.263 19.1735 579.48 19.2285 578.668 19.2285C577.576 19.2285 576.637 19.0804 575.85 18.7842C575.062 18.488 574.415 18.0605 573.907 17.502C573.408 16.9349 573.035 16.2451 572.79 15.4326C572.553 14.6117 572.435 13.6849 572.435 12.6523C572.435 11.7552 572.562 10.9089 572.815 10.1133C573.078 9.30924 573.454 8.60677 573.945 8.00586C574.445 7.39648 575.054 6.91406 575.773 6.55859C576.493 6.20312 577.31 6.02539 578.224 6.02539C579.112 6.02539 579.899 6.16504 580.585 6.44434C581.271 6.72363 581.846 7.12142 582.312 7.6377C582.785 8.14551 583.141 8.76758 583.378 9.50391C583.623 10.2318 583.746 11.0485 583.746 11.9541ZM581.448 11.6367C581.474 11.0697 581.419 10.5534 581.283 10.0879C581.148 9.61393 580.936 9.20768 580.648 8.86914C580.369 8.5306 580.018 8.26823 579.595 8.08203C579.172 7.88737 578.681 7.79004 578.122 7.79004C577.64 7.79004 577.2 7.88314 576.802 8.06934C576.404 8.25553 576.061 8.5179 575.773 8.85645C575.486 9.19499 575.253 9.60124 575.075 10.0752C574.897 10.5492 574.787 11.0697 574.745 11.6367H581.448ZM587.275 6.25391H589.243L589.332 8.31055C589.704 7.87044 590.064 7.50651 590.411 7.21875C590.758 6.92253 591.097 6.68555 591.427 6.50781C591.765 6.33008 592.108 6.20736 592.455 6.13965C592.802 6.06348 593.162 6.02539 593.534 6.02539C594.846 6.02539 595.836 6.41471 596.505 7.19336C597.182 7.96354 597.521 9.12728 597.521 10.6846V19H595.312V10.8623C595.312 9.86361 595.125 9.12728 594.753 8.65332C594.381 8.1709 593.826 7.92969 593.09 7.92969C592.819 7.92969 592.552 7.97201 592.29 8.05664C592.036 8.13281 591.77 8.27246 591.49 8.47559C591.211 8.67025 590.906 8.93685 590.576 9.27539C590.255 9.61393 589.891 10.0371 589.484 10.5449V19H587.275V6.25391ZM610.749 8.05664C610.986 8.35286 611.168 8.69987 611.295 9.09766C611.43 9.48698 611.498 9.91016 611.498 10.3672C611.498 11.0273 611.375 11.6325 611.13 12.1826C610.893 12.7243 610.554 13.1898 610.114 13.5791C609.674 13.9684 609.145 14.2731 608.527 14.4932C607.918 14.7048 607.245 14.8105 606.509 14.8105C605.976 14.8105 605.476 14.7555 605.011 14.6455C604.545 14.527 604.177 14.3831 603.906 14.2139C603.745 14.4508 603.61 14.6751 603.5 14.8867C603.39 15.0983 603.335 15.3353 603.335 15.5977C603.335 15.9193 603.487 16.1859 603.792 16.3975C604.105 16.609 604.516 16.7233 605.023 16.7402L608.375 16.8672C609.01 16.8841 609.594 16.9645 610.127 17.1084C610.669 17.2523 611.13 17.4596 611.511 17.7305C611.9 18.0013 612.201 18.3356 612.412 18.7334C612.632 19.1312 612.742 19.5924 612.742 20.1172C612.742 20.6842 612.619 21.2217 612.374 21.7295C612.129 22.2373 611.748 22.6816 611.231 23.0625C610.724 23.4518 610.076 23.7607 609.289 23.9893C608.502 24.2178 607.567 24.332 606.483 24.332C605.451 24.332 604.571 24.2474 603.843 24.0781C603.123 23.9173 602.531 23.6888 602.065 23.3926C601.6 23.1048 601.261 22.7578 601.05 22.3516C600.838 21.9538 600.732 21.5137 600.732 21.0312C600.732 20.4134 600.876 19.8717 601.164 19.4062C601.452 18.9408 601.896 18.4922 602.497 18.0605C602.277 17.959 602.087 17.832 601.926 17.6797C601.765 17.5273 601.634 17.3623 601.532 17.1846C601.431 16.9984 601.354 16.8037 601.304 16.6006C601.253 16.3975 601.228 16.1986 601.228 16.0039C601.228 15.4538 601.354 14.9502 601.608 14.4932C601.871 14.0361 602.18 13.6045 602.535 13.1982C602.374 13.0036 602.23 12.8132 602.104 12.627C601.985 12.4408 601.879 12.2419 601.786 12.0303C601.701 11.8102 601.634 11.5775 601.583 11.332C601.541 11.0781 601.52 10.7904 601.52 10.4688C601.52 9.80859 601.638 9.20768 601.875 8.66602C602.12 8.11589 602.459 7.64616 602.891 7.25684C603.331 6.86751 603.855 6.56706 604.465 6.35547C605.083 6.13542 605.764 6.02539 606.509 6.02539C606.822 6.02539 607.122 6.04655 607.41 6.08887C607.698 6.13118 607.952 6.1862 608.172 6.25391H612.793V8.05664H610.749ZM603.081 20.8408C603.081 21.4417 603.394 21.8776 604.021 22.1484C604.647 22.4277 605.519 22.5674 606.636 22.5674C607.338 22.5674 607.926 22.5039 608.4 22.377C608.883 22.25 609.268 22.0807 609.556 21.8691C609.852 21.666 610.063 21.429 610.19 21.1582C610.317 20.8958 610.381 20.625 610.381 20.3457C610.381 19.8294 610.169 19.4486 609.746 19.2031C609.323 18.9577 608.675 18.8138 607.804 18.7715L604.478 18.6572C604.198 18.8434 603.965 19.0254 603.779 19.2031C603.602 19.3809 603.462 19.5586 603.36 19.7363C603.259 19.9225 603.187 20.1045 603.145 20.2822C603.102 20.4684 603.081 20.6546 603.081 20.8408ZM603.754 10.418C603.754 10.8242 603.822 11.1966 603.957 11.5352C604.092 11.8737 604.283 12.1615 604.528 12.3984C604.774 12.6354 605.062 12.8216 605.392 12.957C605.73 13.084 606.103 13.1475 606.509 13.1475C606.949 13.1475 607.338 13.0755 607.677 12.9316C608.024 12.7793 608.312 12.5762 608.54 12.3223C608.777 12.0684 608.955 11.7764 609.073 11.4463C609.2 11.1162 609.264 10.7734 609.264 10.418C609.264 10.0117 609.196 9.63932 609.061 9.30078C608.925 8.96224 608.735 8.67448 608.489 8.4375C608.244 8.20052 607.952 8.01855 607.613 7.8916C607.283 7.75618 606.915 7.68848 606.509 7.68848C606.069 7.68848 605.675 7.76465 605.328 7.91699C604.99 8.06934 604.702 8.27246 604.465 8.52637C604.236 8.77181 604.059 9.05957 603.932 9.38965C603.813 9.71973 603.754 10.0625 603.754 10.418ZM626.136 18.8223C625.636 18.9492 625.12 19.0381 624.587 19.0889C624.054 19.1481 623.512 19.1777 622.962 19.1777C621.362 19.1777 620.169 18.818 619.382 18.0986C618.595 17.3708 618.201 16.2578 618.201 14.7598V8.10742H614.634V6.25391H618.201V2.75L620.41 2.17871V6.25391H626.136V8.10742H620.41V14.582C620.41 15.4961 620.651 16.1816 621.134 16.6387C621.625 17.0872 622.344 17.3115 623.292 17.3115C623.698 17.3115 624.143 17.2819 624.625 17.2227C625.107 17.1549 625.611 17.0534 626.136 16.918V18.8223ZM640.405 19H638.196V10.8623C638.196 9.88053 638.01 9.14844 637.638 8.66602C637.274 8.17513 636.749 7.92969 636.063 7.92969C635.767 7.92969 635.488 7.97201 635.226 8.05664C634.972 8.13281 634.705 8.27246 634.426 8.47559C634.146 8.67025 633.842 8.93685 633.512 9.27539C633.182 9.61393 632.801 10.0371 632.369 10.5449V19H630.16V1.06152H632.369V6.25391L632.293 8.25977C632.64 7.84505 632.979 7.49805 633.309 7.21875C633.647 6.93099 633.981 6.69824 634.312 6.52051C634.65 6.34277 634.993 6.21582 635.34 6.13965C635.687 6.06348 636.047 6.02539 636.419 6.02539C637.688 6.02539 638.67 6.41471 639.364 7.19336C640.058 7.96354 640.405 9.12728 640.405 10.6846V19ZM669.516 19H658.585V17.0195L662.876 12.7539C663.578 12.0599 664.15 11.459 664.59 10.9512C665.03 10.4434 665.373 9.9821 665.618 9.56738C665.864 9.14421 666.029 8.74642 666.113 8.37402C666.198 8.00163 666.24 7.59961 666.24 7.16797C666.24 6.76172 666.185 6.37663 666.075 6.0127C665.965 5.6403 665.796 5.31445 665.567 5.03516C665.339 4.75586 665.043 4.53581 664.679 4.375C664.315 4.21419 663.879 4.13379 663.371 4.13379C662.669 4.13379 662.03 4.29036 661.454 4.60352C660.879 4.91667 660.35 5.32292 659.867 5.82227L658.648 4.3623C659.275 3.70215 659.994 3.17318 660.807 2.77539C661.628 2.3776 662.58 2.17871 663.663 2.17871C664.399 2.17871 665.068 2.28874 665.669 2.50879C666.278 2.72884 666.803 3.04622 667.243 3.46094C667.683 3.87565 668.022 4.38346 668.259 4.98438C668.504 5.58529 668.627 6.26237 668.627 7.01562C668.627 7.65039 668.542 8.23861 668.373 8.78027C668.204 9.32194 667.946 9.86361 667.599 10.4053C667.26 10.9385 666.828 11.4928 666.304 12.0684C665.787 12.6439 665.174 13.2744 664.463 13.96L661.454 16.8926H669.516V19ZM697.433 15.5215C697.433 15.9701 697.356 16.3721 697.204 16.7275C697.052 17.083 696.844 17.4004 696.582 17.6797C696.32 17.9505 696.015 18.1833 695.668 18.3779C695.321 18.5726 694.949 18.7334 694.551 18.8604C694.161 18.9873 693.759 19.0804 693.345 19.1396C692.93 19.1989 692.524 19.2285 692.126 19.2285C691.263 19.2285 690.467 19.1904 689.739 19.1143C689.02 19.0381 688.313 18.9154 687.619 18.7461V16.7148C688.364 16.9264 689.104 17.0872 689.841 17.1973C690.577 17.3073 691.309 17.3623 692.037 17.3623C693.095 17.3623 693.878 17.2184 694.386 16.9307C694.894 16.6429 695.147 16.2324 695.147 15.6992C695.147 15.4707 695.105 15.2676 695.021 15.0898C694.944 14.9036 694.8 14.7301 694.589 14.5693C694.377 14.4001 694.047 14.2266 693.599 14.0488C693.159 13.8711 692.553 13.668 691.783 13.4395C691.208 13.2702 690.674 13.0798 690.184 12.8682C689.701 12.6481 689.282 12.39 688.927 12.0938C688.571 11.7975 688.292 11.4505 688.089 11.0527C687.886 10.6549 687.784 10.1852 687.784 9.64355C687.784 9.28809 687.865 8.89876 688.025 8.47559C688.195 8.05241 688.478 7.65885 688.876 7.29492C689.274 6.93099 689.811 6.63053 690.488 6.39355C691.165 6.14811 692.012 6.02539 693.027 6.02539C693.527 6.02539 694.081 6.05501 694.69 6.11426C695.3 6.16504 695.935 6.25814 696.595 6.39355V8.36133C695.901 8.19206 695.241 8.06934 694.614 7.99316C693.996 7.90853 693.459 7.86621 693.002 7.86621C692.452 7.86621 691.986 7.90853 691.605 7.99316C691.233 8.0778 690.928 8.19629 690.691 8.34863C690.463 8.49251 690.298 8.66602 690.196 8.86914C690.095 9.0638 690.044 9.27539 690.044 9.50391C690.044 9.73242 690.086 9.93978 690.171 10.126C690.264 10.3122 690.429 10.4941 690.666 10.6719C690.911 10.8411 691.25 11.0146 691.682 11.1924C692.113 11.3617 692.676 11.5479 693.37 11.751C694.123 11.971 694.758 12.2038 695.274 12.4492C695.791 12.6862 696.21 12.9528 696.531 13.249C696.853 13.5452 697.081 13.8796 697.217 14.252C697.361 14.6243 697.433 15.0475 697.433 15.5215ZM711.88 19H709.899L709.823 16.9434C709.442 17.3835 709.078 17.7516 708.731 18.0479C708.393 18.3356 708.054 18.5684 707.716 18.7461C707.377 18.9238 707.035 19.0465 706.688 19.1143C706.349 19.1904 705.989 19.2285 705.608 19.2285C704.297 19.2285 703.306 18.8434 702.638 18.0732C701.969 17.3031 701.635 16.1393 701.635 14.582V6.25391H703.844V14.4043C703.844 16.3594 704.58 17.3369 706.053 17.3369C706.324 17.3369 706.586 17.2988 706.84 17.2227C707.102 17.138 707.373 16.9984 707.652 16.8037C707.94 16.6006 708.245 16.3298 708.566 15.9912C708.896 15.6527 709.265 15.2253 709.671 14.709V6.25391H711.88V19ZM726.822 12.3984C726.822 13.4564 726.674 14.4043 726.378 15.2422C726.09 16.0716 725.675 16.7783 725.134 17.3623C724.601 17.9378 723.949 18.3822 723.179 18.6953C722.409 19 721.541 19.1523 720.576 19.1523C719.823 19.1523 719.053 19.0804 718.266 18.9365C717.479 18.7926 716.7 18.5641 715.93 18.251V1.06152H718.139V6L718.037 8.36133C718.672 7.50651 719.349 6.9056 720.068 6.55859C720.796 6.20312 721.575 6.02539 722.404 6.02539C723.132 6.02539 723.771 6.17773 724.321 6.48242C724.871 6.78711 725.333 7.21875 725.705 7.77734C726.077 8.32747 726.357 8.99609 726.543 9.7832C726.729 10.5618 726.822 11.4336 726.822 12.3984ZM724.562 12.5C724.562 11.8314 724.512 11.2178 724.41 10.6592C724.317 10.1006 724.165 9.6224 723.953 9.22461C723.742 8.82682 723.471 8.5179 723.141 8.29785C722.811 8.06934 722.417 7.95508 721.96 7.95508C721.681 7.95508 721.397 8.00163 721.109 8.09473C720.822 8.17936 720.521 8.32747 720.208 8.53906C719.903 8.74219 719.577 9.01725 719.23 9.36426C718.892 9.7028 718.528 10.126 718.139 10.6338V16.8164C718.57 16.9857 719.01 17.1211 719.459 17.2227C719.908 17.3158 720.335 17.3623 720.741 17.3623C721.249 17.3623 721.731 17.2819 722.188 17.1211C722.654 16.9603 723.06 16.6937 723.407 16.3213C723.763 15.9404 724.042 15.4411 724.245 14.8232C724.457 14.1969 724.562 13.4225 724.562 12.5ZM740.317 15.5215C740.317 15.9701 740.241 16.3721 740.089 16.7275C739.937 17.083 739.729 17.4004 739.467 17.6797C739.204 17.9505 738.9 18.1833 738.553 18.3779C738.206 18.5726 737.833 18.7334 737.436 18.8604C737.046 18.9873 736.644 19.0804 736.229 19.1396C735.815 19.1989 735.409 19.2285 735.011 19.2285C734.147 19.2285 733.352 19.1904 732.624 19.1143C731.905 19.0381 731.198 18.9154 730.504 18.7461V16.7148C731.249 16.9264 731.989 17.0872 732.726 17.1973C733.462 17.3073 734.194 17.3623 734.922 17.3623C735.98 17.3623 736.763 17.2184 737.271 16.9307C737.778 16.6429 738.032 16.2324 738.032 15.6992C738.032 15.4707 737.99 15.2676 737.905 15.0898C737.829 14.9036 737.685 14.7301 737.474 14.5693C737.262 14.4001 736.932 14.2266 736.483 14.0488C736.043 13.8711 735.438 13.668 734.668 13.4395C734.092 13.2702 733.559 13.0798 733.068 12.8682C732.586 12.6481 732.167 12.39 731.812 12.0938C731.456 11.7975 731.177 11.4505 730.974 11.0527C730.771 10.6549 730.669 10.1852 730.669 9.64355C730.669 9.28809 730.749 8.89876 730.91 8.47559C731.079 8.05241 731.363 7.65885 731.761 7.29492C732.159 6.93099 732.696 6.63053 733.373 6.39355C734.05 6.14811 734.896 6.02539 735.912 6.02539C736.411 6.02539 736.966 6.05501 737.575 6.11426C738.185 6.16504 738.819 6.25814 739.479 6.39355V8.36133C738.785 8.19206 738.125 8.06934 737.499 7.99316C736.881 7.90853 736.344 7.86621 735.887 7.86621C735.337 7.86621 734.871 7.90853 734.49 7.99316C734.118 8.0778 733.813 8.19629 733.576 8.34863C733.348 8.49251 733.183 8.66602 733.081 8.86914C732.979 9.0638 732.929 9.27539 732.929 9.50391C732.929 9.73242 732.971 9.93978 733.056 10.126C733.149 10.3122 733.314 10.4941 733.551 10.6719C733.796 10.8411 734.135 11.0146 734.566 11.1924C734.998 11.3617 735.561 11.5479 736.255 11.751C737.008 11.971 737.643 12.2038 738.159 12.4492C738.675 12.6862 739.094 12.9528 739.416 13.249C739.738 13.5452 739.966 13.8796 740.102 14.252C740.245 14.6243 740.317 15.0475 740.317 15.5215ZM754.79 18.8223C754.291 18.9492 753.774 19.0381 753.241 19.0889C752.708 19.1481 752.166 19.1777 751.616 19.1777C750.017 19.1777 748.823 18.818 748.036 18.0986C747.249 17.3708 746.855 16.2578 746.855 14.7598V8.10742H743.288V6.25391H746.855V2.75L749.064 2.17871V6.25391H754.79V8.10742H749.064V14.582C749.064 15.4961 749.306 16.1816 749.788 16.6387C750.279 17.0872 750.998 17.3115 751.946 17.3115C752.353 17.3115 752.797 17.2819 753.279 17.2227C753.762 17.1549 754.265 17.0534 754.79 16.918V18.8223ZM759.335 6.25391H761.354L761.417 8.60254C762.17 7.69694 762.911 7.04102 763.639 6.63477C764.375 6.22852 765.116 6.02539 765.86 6.02539C767.181 6.02539 768.179 6.4528 768.856 7.30762C769.542 8.16243 769.859 9.43197 769.809 11.1162H767.574C767.6 9.99902 767.435 9.19076 767.079 8.69141C766.732 8.18359 766.22 7.92969 765.543 7.92969C765.247 7.92969 764.946 7.9847 764.642 8.09473C764.345 8.19629 764.036 8.36556 763.715 8.60254C763.402 8.83105 763.067 9.12728 762.712 9.49121C762.356 9.85514 761.976 10.2952 761.569 10.8115V19H759.335V6.25391ZM777.451 8.08203H773.681V6.25391H779.686V17.1592H783.481V19H773.262V17.1592H777.451V8.08203ZM778.226 0.90918C778.471 0.90918 778.7 0.955729 778.911 1.04883C779.123 1.13346 779.305 1.25618 779.457 1.41699C779.618 1.5778 779.741 1.764 779.825 1.97559C779.918 2.17871 779.965 2.40299 779.965 2.64844C779.965 2.88542 779.918 3.1097 779.825 3.32129C779.741 3.53288 779.618 3.71908 779.457 3.87988C779.305 4.04069 779.123 4.16764 778.911 4.26074C778.7 4.34538 778.471 4.3877 778.226 4.3877C777.98 4.3877 777.752 4.34538 777.54 4.26074C777.328 4.16764 777.142 4.04069 776.981 3.87988C776.829 3.71908 776.706 3.53288 776.613 3.32129C776.529 3.1097 776.486 2.88542 776.486 2.64844C776.486 2.40299 776.529 2.17871 776.613 1.97559C776.706 1.764 776.829 1.5778 776.981 1.41699C777.142 1.25618 777.328 1.13346 777.54 1.04883C777.752 0.955729 777.98 0.90918 778.226 0.90918ZM787.404 6.25391H789.372L789.461 8.31055C789.833 7.87044 790.193 7.50651 790.54 7.21875C790.887 6.92253 791.226 6.68555 791.556 6.50781C791.894 6.33008 792.237 6.20736 792.584 6.13965C792.931 6.06348 793.291 6.02539 793.663 6.02539C794.975 6.02539 795.965 6.41471 796.634 7.19336C797.311 7.96354 797.649 9.12728 797.649 10.6846V19H795.44V10.8623C795.44 9.86361 795.254 9.12728 794.882 8.65332C794.509 8.1709 793.955 7.92969 793.219 7.92969C792.948 7.92969 792.681 7.97201 792.419 8.05664C792.165 8.13281 791.898 8.27246 791.619 8.47559C791.34 8.67025 791.035 8.93685 790.705 9.27539C790.383 9.61393 790.02 10.0371 789.613 10.5449V19H787.404V6.25391ZM810.878 8.05664C811.115 8.35286 811.297 8.69987 811.424 9.09766C811.559 9.48698 811.627 9.91016 811.627 10.3672C811.627 11.0273 811.504 11.6325 811.259 12.1826C811.022 12.7243 810.683 13.1898 810.243 13.5791C809.803 13.9684 809.274 14.2731 808.656 14.4932C808.047 14.7048 807.374 14.8105 806.638 14.8105C806.104 14.8105 805.605 14.7555 805.14 14.6455C804.674 14.527 804.306 14.3831 804.035 14.2139C803.874 14.4508 803.739 14.6751 803.629 14.8867C803.519 15.0983 803.464 15.3353 803.464 15.5977C803.464 15.9193 803.616 16.1859 803.921 16.3975C804.234 16.609 804.645 16.7233 805.152 16.7402L808.504 16.8672C809.139 16.8841 809.723 16.9645 810.256 17.1084C810.798 17.2523 811.259 17.4596 811.64 17.7305C812.029 18.0013 812.329 18.3356 812.541 18.7334C812.761 19.1312 812.871 19.5924 812.871 20.1172C812.871 20.6842 812.748 21.2217 812.503 21.7295C812.257 22.2373 811.877 22.6816 811.36 23.0625C810.853 23.4518 810.205 23.7607 809.418 23.9893C808.631 24.2178 807.696 24.332 806.612 24.332C805.58 24.332 804.7 24.2474 803.972 24.0781C803.252 23.9173 802.66 23.6888 802.194 23.3926C801.729 23.1048 801.39 22.7578 801.179 22.3516C800.967 21.9538 800.861 21.5137 800.861 21.0312C800.861 20.4134 801.005 19.8717 801.293 19.4062C801.581 18.9408 802.025 18.4922 802.626 18.0605C802.406 17.959 802.215 17.832 802.055 17.6797C801.894 17.5273 801.763 17.3623 801.661 17.1846C801.56 16.9984 801.483 16.8037 801.433 16.6006C801.382 16.3975 801.356 16.1986 801.356 16.0039C801.356 15.4538 801.483 14.9502 801.737 14.4932C802 14.0361 802.309 13.6045 802.664 13.1982C802.503 13.0036 802.359 12.8132 802.232 12.627C802.114 12.4408 802.008 12.2419 801.915 12.0303C801.83 11.8102 801.763 11.5775 801.712 11.332C801.67 11.0781 801.648 10.7904 801.648 10.4688C801.648 9.80859 801.767 9.20768 802.004 8.66602C802.249 8.11589 802.588 7.64616 803.02 7.25684C803.46 6.86751 803.984 6.56706 804.594 6.35547C805.212 6.13542 805.893 6.02539 806.638 6.02539C806.951 6.02539 807.251 6.04655 807.539 6.08887C807.827 6.13118 808.081 6.1862 808.301 6.25391H812.922V8.05664H810.878ZM803.21 20.8408C803.21 21.4417 803.523 21.8776 804.149 22.1484C804.776 22.4277 805.647 22.5674 806.765 22.5674C807.467 22.5674 808.055 22.5039 808.529 22.377C809.012 22.25 809.397 22.0807 809.685 21.8691C809.981 21.666 810.192 21.429 810.319 21.1582C810.446 20.8958 810.51 20.625 810.51 20.3457C810.51 19.8294 810.298 19.4486 809.875 19.2031C809.452 18.9577 808.804 18.8138 807.933 18.7715L804.606 18.6572C804.327 18.8434 804.094 19.0254 803.908 19.2031C803.73 19.3809 803.591 19.5586 803.489 19.7363C803.388 19.9225 803.316 20.1045 803.273 20.2822C803.231 20.4684 803.21 20.6546 803.21 20.8408ZM803.883 10.418C803.883 10.8242 803.951 11.1966 804.086 11.5352C804.221 11.8737 804.412 12.1615 804.657 12.3984C804.903 12.6354 805.19 12.8216 805.521 12.957C805.859 13.084 806.231 13.1475 806.638 13.1475C807.078 13.1475 807.467 13.0755 807.806 12.9316C808.153 12.7793 808.44 12.5762 808.669 12.3223C808.906 12.0684 809.084 11.7764 809.202 11.4463C809.329 11.1162 809.393 10.7734 809.393 10.418C809.393 10.0117 809.325 9.63932 809.189 9.30078C809.054 8.96224 808.864 8.67448 808.618 8.4375C808.373 8.20052 808.081 8.01855 807.742 7.8916C807.412 7.75618 807.044 7.68848 806.638 7.68848C806.198 7.68848 805.804 7.76465 805.457 7.91699C805.118 8.06934 804.831 8.27246 804.594 8.52637C804.365 8.77181 804.188 9.05957 804.061 9.38965C803.942 9.71973 803.883 10.0625 803.883 10.418ZM826.087 15.5215C826.087 15.9701 826.011 16.3721 825.858 16.7275C825.706 17.083 825.499 17.4004 825.236 17.6797C824.974 17.9505 824.669 18.1833 824.322 18.3779C823.975 18.5726 823.603 18.7334 823.205 18.8604C822.816 18.9873 822.414 19.0804 821.999 19.1396C821.584 19.1989 821.178 19.2285 820.78 19.2285C819.917 19.2285 819.121 19.1904 818.394 19.1143C817.674 19.0381 816.967 18.9154 816.273 18.7461V16.7148C817.018 16.9264 817.759 17.0872 818.495 17.1973C819.231 17.3073 819.964 17.3623 820.691 17.3623C821.749 17.3623 822.532 17.2184 823.04 16.9307C823.548 16.6429 823.802 16.2324 823.802 15.6992C823.802 15.4707 823.759 15.2676 823.675 15.0898C823.599 14.9036 823.455 14.7301 823.243 14.5693C823.032 14.4001 822.701 14.2266 822.253 14.0488C821.813 13.8711 821.208 13.668 820.438 13.4395C819.862 13.2702 819.329 13.0798 818.838 12.8682C818.355 12.6481 817.937 12.39 817.581 12.0938C817.226 11.7975 816.946 11.4505 816.743 11.0527C816.54 10.6549 816.438 10.1852 816.438 9.64355C816.438 9.28809 816.519 8.89876 816.68 8.47559C816.849 8.05241 817.132 7.65885 817.53 7.29492C817.928 6.93099 818.465 6.63053 819.143 6.39355C819.82 6.14811 820.666 6.02539 821.682 6.02539C822.181 6.02539 822.735 6.05501 823.345 6.11426C823.954 6.16504 824.589 6.25814 825.249 6.39355V8.36133C824.555 8.19206 823.895 8.06934 823.269 7.99316C822.651 7.90853 822.113 7.86621 821.656 7.86621C821.106 7.86621 820.641 7.90853 820.26 7.99316C819.887 8.0778 819.583 8.19629 819.346 8.34863C819.117 8.49251 818.952 8.66602 818.851 8.86914C818.749 9.0638 818.698 9.27539 818.698 9.50391C818.698 9.73242 818.741 9.93978 818.825 10.126C818.918 10.3122 819.083 10.4941 819.32 10.6719C819.566 10.8411 819.904 11.0146 820.336 11.1924C820.768 11.3617 821.33 11.5479 822.024 11.751C822.778 11.971 823.412 12.2038 823.929 12.4492C824.445 12.6862 824.864 12.9528 825.186 13.249C825.507 13.5452 825.736 13.8796 825.871 14.252C826.015 14.6243 826.087 15.0475 826.087 15.5215ZM441.838 32.2539L439.984 45H437.306L435.465 39.668L435.097 38.373L434.678 39.7441L432.913 45H430.311L428.47 32.2539H430.628L431.694 40.9121L431.923 42.8418L432.469 41.1533L434.322 35.4277H435.909L437.902 41.0771L438.474 42.7656L438.664 40.9756L439.654 32.2539H441.838ZM454.571 45H452.362V36.8623C452.362 35.8805 452.176 35.1484 451.804 34.666C451.44 34.1751 450.915 33.9297 450.229 33.9297C449.933 33.9297 449.654 33.972 449.392 34.0566C449.138 34.1328 448.871 34.2725 448.592 34.4756C448.312 34.6702 448.008 34.9368 447.678 35.2754C447.348 35.6139 446.967 36.0371 446.535 36.5449V45H444.326V27.0615H446.535V32.2539L446.459 34.2598C446.806 33.8451 447.145 33.498 447.475 33.2188C447.813 32.931 448.147 32.6982 448.478 32.5205C448.816 32.3428 449.159 32.2158 449.506 32.1396C449.853 32.0635 450.213 32.0254 450.585 32.0254C451.854 32.0254 452.836 32.4147 453.53 33.1934C454.224 33.9635 454.571 35.1273 454.571 36.6846V45ZM469.387 37.9541C469.387 38.2673 469.382 38.5296 469.374 38.7412C469.366 38.9528 469.353 39.1517 469.336 39.3379H460.386C460.386 40.6413 460.75 41.6442 461.478 42.3467C462.205 43.0407 463.255 43.3877 464.626 43.3877C464.998 43.3877 465.371 43.375 465.743 43.3496C466.116 43.3158 466.475 43.2734 466.822 43.2227C467.169 43.1719 467.499 43.1169 467.812 43.0576C468.134 42.9899 468.43 42.918 468.701 42.8418V44.6572C468.1 44.8265 467.419 44.9619 466.657 45.0635C465.904 45.1735 465.121 45.2285 464.309 45.2285C463.217 45.2285 462.277 45.0804 461.49 44.7842C460.703 44.488 460.056 44.0605 459.548 43.502C459.049 42.9349 458.676 42.2451 458.431 41.4326C458.194 40.6117 458.075 39.6849 458.075 38.6523C458.075 37.7552 458.202 36.9089 458.456 36.1133C458.718 35.3092 459.095 34.6068 459.586 34.0059C460.085 33.3965 460.695 32.9141 461.414 32.5586C462.133 32.2031 462.95 32.0254 463.864 32.0254C464.753 32.0254 465.54 32.165 466.226 32.4443C466.911 32.7236 467.487 33.1214 467.952 33.6377C468.426 34.1455 468.782 34.7676 469.019 35.5039C469.264 36.2318 469.387 37.0485 469.387 37.9541ZM467.089 37.6367C467.114 37.0697 467.059 36.5534 466.924 36.0879C466.788 35.6139 466.577 35.2077 466.289 34.8691C466.01 34.5306 465.659 34.2682 465.235 34.082C464.812 33.8874 464.321 33.79 463.763 33.79C463.28 33.79 462.84 33.8831 462.442 34.0693C462.045 34.2555 461.702 34.5179 461.414 34.8564C461.126 35.195 460.894 35.6012 460.716 36.0752C460.538 36.5492 460.428 37.0697 460.386 37.6367H467.089ZM473.437 32.2539H475.455L475.519 34.6025C476.272 33.6969 477.012 33.041 477.74 32.6348C478.477 32.2285 479.217 32.0254 479.962 32.0254C481.282 32.0254 482.281 32.4528 482.958 33.3076C483.644 34.1624 483.961 35.432 483.91 37.1162H481.676C481.701 35.999 481.536 35.1908 481.181 34.6914C480.834 34.1836 480.322 33.9297 479.645 33.9297C479.348 33.9297 479.048 33.9847 478.743 34.0947C478.447 34.1963 478.138 34.3656 477.816 34.6025C477.503 34.8311 477.169 35.1273 476.813 35.4912C476.458 35.8551 476.077 36.2952 475.671 36.8115V45H473.437V32.2539ZM497.977 37.9541C497.977 38.2673 497.972 38.5296 497.964 38.7412C497.955 38.9528 497.943 39.1517 497.926 39.3379H488.976C488.976 40.6413 489.34 41.6442 490.067 42.3467C490.795 43.0407 491.845 43.3877 493.216 43.3877C493.588 43.3877 493.961 43.375 494.333 43.3496C494.705 43.3158 495.065 43.2734 495.412 43.2227C495.759 43.1719 496.089 43.1169 496.402 43.0576C496.724 42.9899 497.02 42.918 497.291 42.8418V44.6572C496.69 44.8265 496.009 44.9619 495.247 45.0635C494.494 45.1735 493.711 45.2285 492.898 45.2285C491.807 45.2285 490.867 45.0804 490.08 44.7842C489.293 44.488 488.646 44.0605 488.138 43.502C487.638 42.9349 487.266 42.2451 487.021 41.4326C486.784 40.6117 486.665 39.6849 486.665 38.6523C486.665 37.7552 486.792 36.9089 487.046 36.1133C487.308 35.3092 487.685 34.6068 488.176 34.0059C488.675 33.3965 489.285 32.9141 490.004 32.5586C490.723 32.2031 491.54 32.0254 492.454 32.0254C493.343 32.0254 494.13 32.165 494.815 32.4443C495.501 32.7236 496.076 33.1214 496.542 33.6377C497.016 34.1455 497.371 34.7676 497.608 35.5039C497.854 36.2318 497.977 37.0485 497.977 37.9541ZM495.679 37.6367C495.704 37.0697 495.649 36.5534 495.514 36.0879C495.378 35.6139 495.167 35.2077 494.879 34.8691C494.6 34.5306 494.248 34.2682 493.825 34.082C493.402 33.8874 492.911 33.79 492.353 33.79C491.87 33.79 491.43 33.8831 491.032 34.0693C490.634 34.2555 490.292 34.5179 490.004 34.8564C489.716 35.195 489.483 35.6012 489.306 36.0752C489.128 36.5492 489.018 37.0697 488.976 37.6367H495.679ZM526.693 38.3984C526.693 39.4564 526.545 40.4043 526.249 41.2422C525.961 42.0716 525.547 42.7783 525.005 43.3623C524.472 43.9378 523.82 44.3822 523.05 44.6953C522.28 45 521.412 45.1523 520.447 45.1523C519.694 45.1523 518.924 45.0804 518.137 44.9365C517.35 44.7926 516.571 44.5641 515.801 44.251V27.0615H518.01V32L517.908 34.3613C518.543 33.5065 519.22 32.9056 519.939 32.5586C520.667 32.2031 521.446 32.0254 522.275 32.0254C523.003 32.0254 523.642 32.1777 524.192 32.4824C524.743 32.7871 525.204 33.2188 525.576 33.7773C525.949 34.3275 526.228 34.9961 526.414 35.7832C526.6 36.5618 526.693 37.4336 526.693 38.3984ZM524.434 38.5C524.434 37.8314 524.383 37.2178 524.281 36.6592C524.188 36.1006 524.036 35.6224 523.824 35.2246C523.613 34.8268 523.342 34.5179 523.012 34.2979C522.682 34.0693 522.288 33.9551 521.831 33.9551C521.552 33.9551 521.268 34.0016 520.98 34.0947C520.693 34.1794 520.392 34.3275 520.079 34.5391C519.774 34.7422 519.449 35.0173 519.102 35.3643C518.763 35.7028 518.399 36.126 518.01 36.6338V42.8164C518.441 42.9857 518.882 43.1211 519.33 43.2227C519.779 43.3158 520.206 43.3623 520.612 43.3623C521.12 43.3623 521.603 43.2819 522.06 43.1211C522.525 42.9603 522.931 42.6937 523.278 42.3213C523.634 41.9404 523.913 41.4411 524.116 40.8232C524.328 40.1969 524.434 39.4225 524.434 38.5ZM541.191 38.5254C541.191 39.5156 541.052 40.4255 540.772 41.2549C540.493 42.0758 540.091 42.7826 539.566 43.375C539.042 43.959 538.403 44.416 537.649 44.7461C536.896 45.0677 536.041 45.2285 535.085 45.2285C534.171 45.2285 533.35 45.0889 532.622 44.8096C531.903 44.5218 531.289 44.1029 530.781 43.5527C530.282 43.0026 529.897 42.3213 529.626 41.5088C529.364 40.6963 529.232 39.7611 529.232 38.7031C529.232 37.7129 529.372 36.8115 529.651 35.999C529.931 35.1781 530.333 34.4756 530.857 33.8916C531.382 33.2992 532.021 32.8421 532.774 32.5205C533.528 32.1904 534.382 32.0254 535.339 32.0254C536.253 32.0254 537.07 32.1693 537.789 32.457C538.517 32.7363 539.131 33.151 539.63 33.7012C540.138 34.2428 540.523 34.9199 540.785 35.7324C541.056 36.5449 541.191 37.4759 541.191 38.5254ZM538.932 38.627C538.932 37.8398 538.843 37.1543 538.665 36.5703C538.496 35.9779 538.25 35.487 537.929 35.0977C537.607 34.6999 537.214 34.4036 536.748 34.209C536.291 34.0059 535.779 33.9043 535.212 33.9043C534.552 33.9043 533.985 34.0355 533.511 34.2979C533.045 34.5518 532.66 34.8945 532.355 35.3262C532.059 35.7578 531.839 36.2614 531.695 36.8369C531.56 37.404 531.492 38.0007 531.492 38.627C531.492 39.4141 531.577 40.1038 531.746 40.6963C531.924 41.2887 532.174 41.7839 532.495 42.1816C532.817 42.571 533.206 42.8672 533.663 43.0703C534.12 43.265 534.636 43.3623 535.212 43.3623C535.872 43.3623 536.435 43.2354 536.9 42.9814C537.374 42.7191 537.759 42.3721 538.056 41.9404C538.36 41.5088 538.58 41.0094 538.716 40.4424C538.86 39.8669 538.932 39.2617 538.932 38.627ZM554.661 44.8223C554.162 44.9492 553.646 45.0381 553.112 45.0889C552.579 45.1481 552.037 45.1777 551.487 45.1777C549.888 45.1777 548.694 44.818 547.907 44.0986C547.12 43.3708 546.727 42.2578 546.727 40.7598V34.1074H543.159V32.2539H546.727V28.75L548.936 28.1787V32.2539H554.661V34.1074H548.936V40.582C548.936 41.4961 549.177 42.1816 549.659 42.6387C550.15 43.0872 550.869 43.3115 551.817 43.3115C552.224 43.3115 552.668 43.2819 553.15 43.2227C553.633 43.1549 554.136 43.0534 554.661 42.918V44.8223ZM568.931 45H566.722V36.8623C566.722 35.8805 566.535 35.1484 566.163 34.666C565.799 34.1751 565.274 33.9297 564.589 33.9297C564.293 33.9297 564.013 33.972 563.751 34.0566C563.497 34.1328 563.23 34.2725 562.951 34.4756C562.672 34.6702 562.367 34.9368 562.037 35.2754C561.707 35.6139 561.326 36.0371 560.895 36.5449V45H558.686V27.0615H560.895V32.2539L560.818 34.2598C561.165 33.8451 561.504 33.498 561.834 33.2188C562.173 32.931 562.507 32.6982 562.837 32.5205C563.175 32.3428 563.518 32.2158 563.865 32.1396C564.212 32.0635 564.572 32.0254 564.944 32.0254C566.214 32.0254 567.196 32.4147 567.89 33.1934C568.584 33.9635 568.931 35.1273 568.931 36.6846V45ZM597.178 44.5303C596.602 44.7503 596.01 44.9111 595.4 45.0127C594.799 45.1227 594.177 45.1777 593.534 45.1777C591.52 45.1777 589.967 44.6318 588.875 43.54C587.792 42.4482 587.25 40.8529 587.25 38.7539C587.25 37.7467 587.407 36.8327 587.72 36.0117C588.033 35.1908 588.473 34.4883 589.04 33.9043C589.607 33.3203 590.284 32.8717 591.071 32.5586C591.858 32.237 592.726 32.0762 593.674 32.0762C594.334 32.0762 594.952 32.1227 595.527 32.2158C596.103 32.3089 596.653 32.4613 597.178 32.6729V34.7803C596.628 34.4925 596.065 34.2852 595.489 34.1582C594.922 34.0228 594.334 33.9551 593.725 33.9551C593.158 33.9551 592.62 34.0651 592.112 34.2852C591.613 34.4967 591.173 34.8057 590.792 35.2119C590.411 35.6182 590.111 36.1133 589.891 36.6973C589.671 37.2812 589.561 37.9414 589.561 38.6777C589.561 40.2181 589.933 41.3734 590.678 42.1436C591.431 42.9053 592.472 43.2861 593.801 43.2861C594.402 43.2861 594.981 43.2184 595.54 43.083C596.107 42.9476 596.653 42.7445 597.178 42.4736V44.5303ZM611.815 45H609.606V36.8623C609.606 35.8805 609.42 35.1484 609.048 34.666C608.684 34.1751 608.159 33.9297 607.474 33.9297C607.177 33.9297 606.898 33.972 606.636 34.0566C606.382 34.1328 606.115 34.2725 605.836 34.4756C605.557 34.6702 605.252 34.9368 604.922 35.2754C604.592 35.6139 604.211 36.0371 603.779 36.5449V45H601.57V27.0615H603.779V32.2539L603.703 34.2598C604.05 33.8451 604.389 33.498 604.719 33.2188C605.057 32.931 605.392 32.6982 605.722 32.5205C606.06 32.3428 606.403 32.2158 606.75 32.1396C607.097 32.0635 607.457 32.0254 607.829 32.0254C609.099 32.0254 610.08 32.4147 610.774 33.1934C611.468 33.9635 611.815 35.1273 611.815 36.6846V45ZM624.054 45L624.003 43.2861C623.309 43.9717 622.602 44.4668 621.883 44.7715C621.172 45.0762 620.423 45.2285 619.636 45.2285C618.908 45.2285 618.286 45.1354 617.77 44.9492C617.253 44.763 616.826 44.5091 616.487 44.1875C616.157 43.8574 615.912 43.4723 615.751 43.0322C615.599 42.5921 615.522 42.1139 615.522 41.5977C615.522 40.3197 615.996 39.321 616.944 38.6016C617.901 37.8737 619.31 37.5098 621.172 37.5098H623.812V36.3926C623.812 35.6393 623.571 35.0384 623.089 34.5898C622.606 34.1328 621.87 33.9043 620.88 33.9043C620.16 33.9043 619.45 33.9847 618.747 34.1455C618.053 34.3063 617.334 34.5348 616.589 34.8311V32.8379C616.868 32.7363 617.177 32.639 617.516 32.5459C617.863 32.4443 618.227 32.3555 618.607 32.2793C618.988 32.2031 619.386 32.1439 619.801 32.1016C620.215 32.0508 620.634 32.0254 621.058 32.0254C621.828 32.0254 622.522 32.11 623.14 32.2793C623.757 32.4486 624.278 32.7067 624.701 33.0537C625.133 33.4007 625.463 33.8366 625.691 34.3613C625.92 34.8861 626.034 35.5039 626.034 36.2148V45H624.054ZM623.812 39.1982H621.007C620.457 39.1982 619.983 39.2533 619.585 39.3633C619.187 39.4733 618.861 39.6299 618.607 39.833C618.354 40.0361 618.163 40.2816 618.036 40.5693C617.918 40.8486 617.858 41.166 617.858 41.5215C617.858 41.7669 617.896 42.0039 617.973 42.2324C618.049 42.4525 618.172 42.6514 618.341 42.8291C618.51 42.9984 618.73 43.1338 619.001 43.2354C619.272 43.3369 619.602 43.3877 619.991 43.3877C620.499 43.3877 621.079 43.2354 621.73 42.9307C622.391 42.6175 623.085 42.1266 623.812 41.458V39.1982ZM630.681 32.2539H632.699L632.763 34.6025C633.516 33.6969 634.257 33.041 634.984 32.6348C635.721 32.2285 636.461 32.0254 637.206 32.0254C638.526 32.0254 639.525 32.4528 640.202 33.3076C640.888 34.1624 641.205 35.432 641.154 37.1162H638.92C638.945 35.999 638.78 35.1908 638.425 34.6914C638.078 34.1836 637.566 33.9297 636.889 33.9297C636.592 33.9297 636.292 33.9847 635.987 34.0947C635.691 34.1963 635.382 34.3656 635.061 34.6025C634.747 34.8311 634.413 35.1273 634.058 35.4912C633.702 35.8551 633.321 36.2952 632.915 36.8115V45H630.681V32.2539ZM652.644 45L652.593 43.2861C651.899 43.9717 651.192 44.4668 650.473 44.7715C649.762 45.0762 649.013 45.2285 648.226 45.2285C647.498 45.2285 646.876 45.1354 646.359 44.9492C645.843 44.763 645.416 44.5091 645.077 44.1875C644.747 43.8574 644.502 43.4723 644.341 43.0322C644.188 42.5921 644.112 42.1139 644.112 41.5977C644.112 40.3197 644.586 39.321 645.534 38.6016C646.491 37.8737 647.9 37.5098 649.762 37.5098H652.402V36.3926C652.402 35.6393 652.161 35.0384 651.679 34.5898C651.196 34.1328 650.46 33.9043 649.47 33.9043C648.75 33.9043 648.039 33.9847 647.337 34.1455C646.643 34.3063 645.924 34.5348 645.179 34.8311V32.8379C645.458 32.7363 645.767 32.639 646.105 32.5459C646.452 32.4443 646.816 32.3555 647.197 32.2793C647.578 32.2031 647.976 32.1439 648.391 32.1016C648.805 32.0508 649.224 32.0254 649.647 32.0254C650.418 32.0254 651.112 32.11 651.729 32.2793C652.347 32.4486 652.868 32.7067 653.291 33.0537C653.723 33.4007 654.053 33.8366 654.281 34.3613C654.51 34.8861 654.624 35.5039 654.624 36.2148V45H652.644ZM652.402 39.1982H649.597C649.047 39.1982 648.573 39.2533 648.175 39.3633C647.777 39.4733 647.451 39.6299 647.197 39.833C646.943 40.0361 646.753 40.2816 646.626 40.5693C646.507 40.8486 646.448 41.166 646.448 41.5215C646.448 41.7669 646.486 42.0039 646.562 42.2324C646.639 42.4525 646.761 42.6514 646.931 42.8291C647.1 42.9984 647.32 43.1338 647.591 43.2354C647.862 43.3369 648.192 43.3877 648.581 43.3877C649.089 43.3877 649.669 43.2354 650.32 42.9307C650.98 42.6175 651.674 42.1266 652.402 41.458V39.1982ZM668.652 44.5303C668.077 44.7503 667.484 44.9111 666.875 45.0127C666.274 45.1227 665.652 45.1777 665.009 45.1777C662.994 45.1777 661.441 44.6318 660.35 43.54C659.266 42.4482 658.725 40.8529 658.725 38.7539C658.725 37.7467 658.881 36.8327 659.194 36.0117C659.507 35.1908 659.948 34.4883 660.515 33.9043C661.082 33.3203 661.759 32.8717 662.546 32.5586C663.333 32.237 664.201 32.0762 665.148 32.0762C665.809 32.0762 666.426 32.1227 667.002 32.2158C667.577 32.3089 668.128 32.4613 668.652 32.6729V34.7803C668.102 34.4925 667.539 34.2852 666.964 34.1582C666.397 34.0228 665.809 33.9551 665.199 33.9551C664.632 33.9551 664.095 34.0651 663.587 34.2852C663.088 34.4967 662.647 34.8057 662.267 35.2119C661.886 35.6182 661.585 36.1133 661.365 36.6973C661.145 37.2812 661.035 37.9414 661.035 38.6777C661.035 40.2181 661.408 41.3734 662.152 42.1436C662.906 42.9053 663.947 43.2861 665.275 43.2861C665.876 43.2861 666.456 43.2184 667.015 43.083C667.582 42.9476 668.128 42.7445 668.652 42.4736V44.5303ZM683.315 44.8223C682.816 44.9492 682.3 45.0381 681.767 45.0889C681.233 45.1481 680.692 45.1777 680.142 45.1777C678.542 45.1777 677.349 44.818 676.562 44.0986C675.774 43.3708 675.381 42.2578 675.381 40.7598V34.1074H671.813V32.2539H675.381V28.75L677.59 28.1787V32.2539H683.315V34.1074H677.59V40.582C677.59 41.4961 677.831 42.1816 678.313 42.6387C678.804 43.0872 679.524 43.3115 680.472 43.3115C680.878 43.3115 681.322 43.2819 681.805 43.2227C682.287 43.1549 682.791 43.0534 683.315 42.918V44.8223ZM698.105 37.9541C698.105 38.2673 698.101 38.5296 698.093 38.7412C698.084 38.9528 698.072 39.1517 698.055 39.3379H689.104C689.104 40.6413 689.468 41.6442 690.196 42.3467C690.924 43.0407 691.974 43.3877 693.345 43.3877C693.717 43.3877 694.09 43.375 694.462 43.3496C694.834 43.3158 695.194 43.2734 695.541 43.2227C695.888 43.1719 696.218 43.1169 696.531 43.0576C696.853 42.9899 697.149 42.918 697.42 42.8418V44.6572C696.819 44.8265 696.138 44.9619 695.376 45.0635C694.623 45.1735 693.84 45.2285 693.027 45.2285C691.936 45.2285 690.996 45.0804 690.209 44.7842C689.422 44.488 688.774 44.0605 688.267 43.502C687.767 42.9349 687.395 42.2451 687.149 41.4326C686.912 40.6117 686.794 39.6849 686.794 38.6523C686.794 37.7552 686.921 36.9089 687.175 36.1133C687.437 35.3092 687.814 34.6068 688.305 34.0059C688.804 33.3965 689.413 32.9141 690.133 32.5586C690.852 32.2031 691.669 32.0254 692.583 32.0254C693.472 32.0254 694.259 32.165 694.944 32.4443C695.63 32.7236 696.205 33.1214 696.671 33.6377C697.145 34.1455 697.5 34.7676 697.737 35.5039C697.983 36.2318 698.105 37.0485 698.105 37.9541ZM695.808 37.6367C695.833 37.0697 695.778 36.5534 695.643 36.0879C695.507 35.6139 695.296 35.2077 695.008 34.8691C694.729 34.5306 694.377 34.2682 693.954 34.082C693.531 33.8874 693.04 33.79 692.481 33.79C691.999 33.79 691.559 33.8831 691.161 34.0693C690.763 34.2555 690.421 34.5179 690.133 34.8564C689.845 35.195 689.612 35.6012 689.435 36.0752C689.257 36.5492 689.147 37.0697 689.104 37.6367H695.808ZM702.155 32.2539H704.174L704.237 34.6025C704.991 33.6969 705.731 33.041 706.459 32.6348C707.195 32.2285 707.936 32.0254 708.681 32.0254C710.001 32.0254 711 32.4528 711.677 33.3076C712.362 34.1624 712.68 35.432 712.629 37.1162H710.395C710.42 35.999 710.255 35.1908 709.899 34.6914C709.552 34.1836 709.04 33.9297 708.363 33.9297C708.067 33.9297 707.767 33.9847 707.462 34.0947C707.166 34.1963 706.857 34.3656 706.535 34.6025C706.222 34.8311 705.888 35.1273 705.532 35.4912C705.177 35.8551 704.796 36.2952 704.39 36.8115V45H702.155V32.2539ZM726.022 41.5215C726.022 41.9701 725.946 42.3721 725.794 42.7275C725.642 43.083 725.434 43.4004 725.172 43.6797C724.91 43.9505 724.605 44.1833 724.258 44.3779C723.911 44.5726 723.538 44.7334 723.141 44.8604C722.751 44.9873 722.349 45.0804 721.935 45.1396C721.52 45.1989 721.114 45.2285 720.716 45.2285C719.853 45.2285 719.057 45.1904 718.329 45.1143C717.61 45.0381 716.903 44.9154 716.209 44.7461V42.7148C716.954 42.9264 717.694 43.0872 718.431 43.1973C719.167 43.3073 719.899 43.3623 720.627 43.3623C721.685 43.3623 722.468 43.2184 722.976 42.9307C723.483 42.6429 723.737 42.2324 723.737 41.6992C723.737 41.4707 723.695 41.2676 723.61 41.0898C723.534 40.9036 723.39 40.7301 723.179 40.5693C722.967 40.4001 722.637 40.2266 722.188 40.0488C721.748 39.8711 721.143 39.668 720.373 39.4395C719.798 39.2702 719.264 39.0798 718.773 38.8682C718.291 38.6481 717.872 38.39 717.517 38.0938C717.161 37.7975 716.882 37.4505 716.679 37.0527C716.476 36.6549 716.374 36.1852 716.374 35.6436C716.374 35.2881 716.454 34.8988 716.615 34.4756C716.785 34.0524 717.068 33.6589 717.466 33.2949C717.864 32.931 718.401 32.6305 719.078 32.3936C719.755 32.1481 720.602 32.0254 721.617 32.0254C722.117 32.0254 722.671 32.055 723.28 32.1143C723.89 32.165 724.524 32.2581 725.185 32.3936V34.3613C724.491 34.1921 723.83 34.0693 723.204 33.9932C722.586 33.9085 722.049 33.8662 721.592 33.8662C721.042 33.8662 720.576 33.9085 720.195 33.9932C719.823 34.0778 719.518 34.1963 719.281 34.3486C719.053 34.4925 718.888 34.666 718.786 34.8691C718.685 35.0638 718.634 35.2754 718.634 35.5039C718.634 35.7324 718.676 35.9398 718.761 36.126C718.854 36.3122 719.019 36.4941 719.256 36.6719C719.501 36.8411 719.84 37.0146 720.271 37.1924C720.703 37.3617 721.266 37.5479 721.96 37.751C722.713 37.971 723.348 38.2038 723.864 38.4492C724.381 38.6862 724.799 38.9528 725.121 39.249C725.443 39.5452 725.671 39.8796 725.807 40.252C725.951 40.6243 726.022 41.0475 726.022 41.5215ZM752.708 45L752.657 43.2861C751.963 43.9717 751.257 44.4668 750.537 44.7715C749.826 45.0762 749.077 45.2285 748.29 45.2285C747.562 45.2285 746.94 45.1354 746.424 44.9492C745.908 44.763 745.48 44.5091 745.142 44.1875C744.812 43.8574 744.566 43.4723 744.405 43.0322C744.253 42.5921 744.177 42.1139 744.177 41.5977C744.177 40.3197 744.651 39.321 745.599 38.6016C746.555 37.8737 747.964 37.5098 749.826 37.5098H752.467V36.3926C752.467 35.6393 752.226 35.0384 751.743 34.5898C751.261 34.1328 750.524 33.9043 749.534 33.9043C748.815 33.9043 748.104 33.9847 747.401 34.1455C746.707 34.3063 745.988 34.5348 745.243 34.8311V32.8379C745.522 32.7363 745.831 32.639 746.17 32.5459C746.517 32.4443 746.881 32.3555 747.262 32.2793C747.643 32.2031 748.04 32.1439 748.455 32.1016C748.87 32.0508 749.289 32.0254 749.712 32.0254C750.482 32.0254 751.176 32.11 751.794 32.2793C752.412 32.4486 752.932 32.7067 753.355 33.0537C753.787 33.4007 754.117 33.8366 754.346 34.3613C754.574 34.8861 754.688 35.5039 754.688 36.2148V45H752.708ZM752.467 39.1982H749.661C749.111 39.1982 748.637 39.2533 748.239 39.3633C747.841 39.4733 747.516 39.6299 747.262 39.833C747.008 40.0361 746.817 40.2816 746.69 40.5693C746.572 40.8486 746.513 41.166 746.513 41.5215C746.513 41.7669 746.551 42.0039 746.627 42.2324C746.703 42.4525 746.826 42.6514 746.995 42.8291C747.164 42.9984 747.384 43.1338 747.655 43.2354C747.926 43.3369 748.256 43.3877 748.646 43.3877C749.153 43.3877 749.733 43.2354 750.385 42.9307C751.045 42.6175 751.739 42.1266 752.467 41.458V39.1982ZM759.335 32.2539H761.354L761.417 34.6025C762.17 33.6969 762.911 33.041 763.639 32.6348C764.375 32.2285 765.116 32.0254 765.86 32.0254C767.181 32.0254 768.179 32.4528 768.856 33.3076C769.542 34.1624 769.859 35.432 769.809 37.1162H767.574C767.6 35.999 767.435 35.1908 767.079 34.6914C766.732 34.1836 766.22 33.9297 765.543 33.9297C765.247 33.9297 764.946 33.9847 764.642 34.0947C764.345 34.1963 764.036 34.3656 763.715 34.6025C763.402 34.8311 763.067 35.1273 762.712 35.4912C762.356 35.8551 761.976 36.2952 761.569 36.8115V45H759.335V32.2539ZM783.875 37.9541C783.875 38.2673 783.871 38.5296 783.862 38.7412C783.854 38.9528 783.841 39.1517 783.824 39.3379H774.874C774.874 40.6413 775.238 41.6442 775.966 42.3467C776.694 43.0407 777.743 43.3877 779.114 43.3877C779.487 43.3877 779.859 43.375 780.231 43.3496C780.604 43.3158 780.964 43.2734 781.311 43.2227C781.658 43.1719 781.988 43.1169 782.301 43.0576C782.622 42.9899 782.919 42.918 783.189 42.8418V44.6572C782.589 44.8265 781.907 44.9619 781.146 45.0635C780.392 45.1735 779.609 45.2285 778.797 45.2285C777.705 45.2285 776.766 45.0804 775.979 44.7842C775.191 44.488 774.544 44.0605 774.036 43.502C773.537 42.9349 773.164 42.2451 772.919 41.4326C772.682 40.6117 772.563 39.6849 772.563 38.6523C772.563 37.7552 772.69 36.9089 772.944 36.1133C773.207 35.3092 773.583 34.6068 774.074 34.0059C774.574 33.3965 775.183 32.9141 775.902 32.5586C776.622 32.2031 777.438 32.0254 778.353 32.0254C779.241 32.0254 780.028 32.165 780.714 32.4443C781.399 32.7236 781.975 33.1214 782.44 33.6377C782.914 34.1455 783.27 34.7676 783.507 35.5039C783.752 36.2318 783.875 37.0485 783.875 37.9541ZM781.577 37.6367C781.603 37.0697 781.548 36.5534 781.412 36.0879C781.277 35.6139 781.065 35.2077 780.777 34.8691C780.498 34.5306 780.147 34.2682 779.724 34.082C779.3 33.8874 778.81 33.79 778.251 33.79C777.769 33.79 777.328 33.8831 776.931 34.0693C776.533 34.2555 776.19 34.5179 775.902 34.8564C775.615 35.195 775.382 35.6012 775.204 36.0752C775.026 36.5492 774.916 37.0697 774.874 37.6367H781.577ZM440.302 70.8223C439.802 70.9492 439.286 71.0381 438.753 71.0889C438.22 71.1481 437.678 71.1777 437.128 71.1777C435.528 71.1777 434.335 70.818 433.548 70.0986C432.761 69.3708 432.367 68.2578 432.367 66.7598V60.1074H428.8V58.2539H432.367V54.75L434.576 54.1787V58.2539H440.302V60.1074H434.576V66.582C434.576 67.4961 434.817 68.1816 435.3 68.6387C435.791 69.0872 436.51 69.3115 437.458 69.3115C437.864 69.3115 438.309 69.2819 438.791 69.2227C439.273 69.1549 439.777 69.0534 440.302 68.918V70.8223ZM454.571 71H452.362V62.8623C452.362 61.8805 452.176 61.1484 451.804 60.666C451.44 60.1751 450.915 59.9297 450.229 59.9297C449.933 59.9297 449.654 59.972 449.392 60.0566C449.138 60.1328 448.871 60.2725 448.592 60.4756C448.312 60.6702 448.008 60.9368 447.678 61.2754C447.348 61.6139 446.967 62.0371 446.535 62.5449V71H444.326V53.0615H446.535V58.2539L446.459 60.2598C446.806 59.8451 447.145 59.498 447.475 59.2188C447.813 58.931 448.147 58.6982 448.478 58.5205C448.816 58.3428 449.159 58.2158 449.506 58.1396C449.853 58.0635 450.213 58.0254 450.585 58.0254C451.854 58.0254 452.836 58.4147 453.53 59.1934C454.224 59.9635 454.571 61.1273 454.571 62.6846V71ZM469.387 63.9541C469.387 64.2673 469.382 64.5296 469.374 64.7412C469.366 64.9528 469.353 65.1517 469.336 65.3379H460.386C460.386 66.6413 460.75 67.6442 461.478 68.3467C462.205 69.0407 463.255 69.3877 464.626 69.3877C464.998 69.3877 465.371 69.375 465.743 69.3496C466.116 69.3158 466.475 69.2734 466.822 69.2227C467.169 69.1719 467.499 69.1169 467.812 69.0576C468.134 68.9899 468.43 68.918 468.701 68.8418V70.6572C468.1 70.8265 467.419 70.9619 466.657 71.0635C465.904 71.1735 465.121 71.2285 464.309 71.2285C463.217 71.2285 462.277 71.0804 461.49 70.7842C460.703 70.488 460.056 70.0605 459.548 69.502C459.049 68.9349 458.676 68.2451 458.431 67.4326C458.194 66.6117 458.075 65.6849 458.075 64.6523C458.075 63.7552 458.202 62.9089 458.456 62.1133C458.718 61.3092 459.095 60.6068 459.586 60.0059C460.085 59.3965 460.695 58.9141 461.414 58.5586C462.133 58.2031 462.95 58.0254 463.864 58.0254C464.753 58.0254 465.54 58.165 466.226 58.4443C466.911 58.7236 467.487 59.1214 467.952 59.6377C468.426 60.1455 468.782 60.7676 469.019 61.5039C469.264 62.2318 469.387 63.0485 469.387 63.9541ZM467.089 63.6367C467.114 63.0697 467.059 62.5534 466.924 62.0879C466.788 61.6139 466.577 61.2077 466.289 60.8691C466.01 60.5306 465.659 60.2682 465.235 60.082C464.812 59.8874 464.321 59.79 463.763 59.79C463.28 59.79 462.84 59.8831 462.442 60.0693C462.045 60.2555 461.702 60.5179 461.414 60.8564C461.126 61.195 460.894 61.6012 460.716 62.0752C460.538 62.5492 460.428 63.0697 460.386 63.6367H467.089ZM511.599 67.5215C511.599 67.9701 511.522 68.3721 511.37 68.7275C511.218 69.083 511.01 69.4004 510.748 69.6797C510.486 69.9505 510.181 70.1833 509.834 70.3779C509.487 70.5726 509.115 70.7334 508.717 70.8604C508.327 70.9873 507.925 71.0804 507.511 71.1396C507.096 71.1989 506.69 71.2285 506.292 71.2285C505.429 71.2285 504.633 71.1904 503.905 71.1143C503.186 71.0381 502.479 70.9154 501.785 70.7461V68.7148C502.53 68.9264 503.271 69.0872 504.007 69.1973C504.743 69.3073 505.475 69.3623 506.203 69.3623C507.261 69.3623 508.044 69.2184 508.552 68.9307C509.06 68.6429 509.313 68.2324 509.313 67.6992C509.313 67.4707 509.271 67.2676 509.187 67.0898C509.11 66.9036 508.966 66.7301 508.755 66.5693C508.543 66.4001 508.213 66.2266 507.765 66.0488C507.325 65.8711 506.719 65.668 505.949 65.4395C505.374 65.2702 504.84 65.0798 504.35 64.8682C503.867 64.6481 503.448 64.39 503.093 64.0938C502.737 63.7975 502.458 63.4505 502.255 63.0527C502.052 62.6549 501.95 62.1852 501.95 61.6436C501.95 61.2881 502.031 60.8988 502.191 60.4756C502.361 60.0524 502.644 59.6589 503.042 59.2949C503.44 58.931 503.977 58.6305 504.654 58.3936C505.331 58.1481 506.178 58.0254 507.193 58.0254C507.693 58.0254 508.247 58.055 508.856 58.1143C509.466 58.165 510.101 58.2581 510.761 58.3936V60.3613C510.067 60.1921 509.407 60.0693 508.78 59.9932C508.162 59.9085 507.625 59.8662 507.168 59.8662C506.618 59.8662 506.152 59.9085 505.771 59.9932C505.399 60.0778 505.094 60.1963 504.857 60.3486C504.629 60.4925 504.464 60.666 504.362 60.8691C504.261 61.0638 504.21 61.2754 504.21 61.5039C504.21 61.7324 504.252 61.9398 504.337 62.126C504.43 62.3122 504.595 62.4941 504.832 62.6719C505.077 62.8411 505.416 63.0146 505.848 63.1924C506.279 63.3617 506.842 63.5479 507.536 63.751C508.289 63.971 508.924 64.2038 509.44 64.4492C509.957 64.6862 510.376 64.9528 510.697 65.249C511.019 65.5452 511.247 65.8796 511.383 66.252C511.527 66.6243 511.599 67.0475 511.599 67.5215ZM523.989 71L523.938 69.2861C523.244 69.9717 522.538 70.4668 521.818 70.7715C521.107 71.0762 520.358 71.2285 519.571 71.2285C518.843 71.2285 518.221 71.1354 517.705 70.9492C517.189 70.763 516.761 70.5091 516.423 70.1875C516.093 69.8574 515.847 69.4723 515.687 69.0322C515.534 68.5921 515.458 68.1139 515.458 67.5977C515.458 66.3197 515.932 65.321 516.88 64.6016C517.836 63.8737 519.245 63.5098 521.107 63.5098H523.748V62.3926C523.748 61.6393 523.507 61.0384 523.024 60.5898C522.542 60.1328 521.806 59.9043 520.815 59.9043C520.096 59.9043 519.385 59.9847 518.683 60.1455C517.989 60.3063 517.269 60.5348 516.524 60.8311V58.8379C516.804 58.7363 517.113 58.639 517.451 58.5459C517.798 58.4443 518.162 58.3555 518.543 58.2793C518.924 58.2031 519.322 58.1439 519.736 58.1016C520.151 58.0508 520.57 58.0254 520.993 58.0254C521.763 58.0254 522.457 58.11 523.075 58.2793C523.693 58.4486 524.214 58.7067 524.637 59.0537C525.068 59.4007 525.398 59.8366 525.627 60.3613C525.855 60.8861 525.97 61.5039 525.97 62.2148V71H523.989ZM523.748 65.1982H520.942C520.392 65.1982 519.918 65.2533 519.521 65.3633C519.123 65.4733 518.797 65.6299 518.543 65.833C518.289 66.0361 518.099 66.2816 517.972 66.5693C517.853 66.8486 517.794 67.166 517.794 67.5215C517.794 67.7669 517.832 68.0039 517.908 68.2324C517.984 68.4525 518.107 68.6514 518.276 68.8291C518.446 68.9984 518.666 69.1338 518.937 69.2354C519.207 69.3369 519.537 69.3877 519.927 69.3877C520.435 69.3877 521.014 69.2354 521.666 68.9307C522.326 68.6175 523.02 68.1266 523.748 67.458V65.1982ZM539.186 71V61.8467C539.186 61.4489 539.169 61.123 539.135 60.8691C539.109 60.6152 539.063 60.4163 538.995 60.2725C538.936 60.1201 538.855 60.0143 538.754 59.9551C538.661 59.8958 538.542 59.8662 538.398 59.8662C538.229 59.8662 538.073 59.917 537.929 60.0186C537.785 60.1201 537.628 60.2852 537.459 60.5137C537.298 60.7422 537.116 61.0469 536.913 61.4277C536.718 61.8001 536.486 62.2614 536.215 62.8115V71H534.196V62.0879C534.196 61.6224 534.179 61.2458 534.146 60.958C534.12 60.6702 534.074 60.446 534.006 60.2852C533.947 60.1243 533.866 60.0143 533.765 59.9551C533.663 59.8958 533.54 59.8662 533.396 59.8662C533.244 59.8662 533.1 59.9085 532.965 59.9932C532.829 60.0778 532.677 60.2301 532.508 60.4502C532.347 60.6702 532.165 60.9707 531.962 61.3516C531.759 61.7324 531.518 62.2191 531.238 62.8115V71H529.207V58.2539H530.896L530.997 60.6787C531.217 60.1963 531.429 59.7858 531.632 59.4473C531.843 59.1087 532.059 58.8379 532.279 58.6348C532.499 58.4232 532.732 58.2708 532.978 58.1777C533.231 58.0762 533.511 58.0254 533.815 58.0254C534.501 58.0254 535.021 58.2497 535.377 58.6982C535.732 59.1468 535.91 59.8408 535.91 60.7803C536.113 60.3402 536.312 59.9508 536.507 59.6123C536.701 59.2653 536.909 58.9775 537.129 58.749C537.357 58.512 537.607 58.3343 537.878 58.2158C538.149 58.0889 538.462 58.0254 538.817 58.0254C540.417 58.0254 541.217 59.2568 541.217 61.7197V71H539.186ZM555.156 63.9541C555.156 64.2673 555.152 64.5296 555.144 64.7412C555.135 64.9528 555.122 65.1517 555.105 65.3379H546.155C546.155 66.6413 546.519 67.6442 547.247 68.3467C547.975 69.0407 549.024 69.3877 550.396 69.3877C550.768 69.3877 551.14 69.375 551.513 69.3496C551.885 69.3158 552.245 69.2734 552.592 69.2227C552.939 69.1719 553.269 69.1169 553.582 69.0576C553.904 68.9899 554.2 68.918 554.471 68.8418V70.6572C553.87 70.8265 553.188 70.9619 552.427 71.0635C551.674 71.1735 550.891 71.2285 550.078 71.2285C548.986 71.2285 548.047 71.0804 547.26 70.7842C546.473 70.488 545.825 70.0605 545.317 69.502C544.818 68.9349 544.446 68.2451 544.2 67.4326C543.963 66.6117 543.845 65.6849 543.845 64.6523C543.845 63.7552 543.972 62.9089 544.226 62.1133C544.488 61.3092 544.865 60.6068 545.355 60.0059C545.855 59.3965 546.464 58.9141 547.184 58.5586C547.903 58.2031 548.72 58.0254 549.634 58.0254C550.522 58.0254 551.31 58.165 551.995 58.4443C552.681 58.7236 553.256 59.1214 553.722 59.6377C554.196 60.1455 554.551 60.7676 554.788 61.5039C555.034 62.2318 555.156 63.0485 555.156 63.9541ZM552.858 63.6367C552.884 63.0697 552.829 62.5534 552.693 62.0879C552.558 61.6139 552.346 61.2077 552.059 60.8691C551.779 60.5306 551.428 60.2682 551.005 60.082C550.582 59.8874 550.091 59.79 549.532 59.79C549.05 59.79 548.61 59.8831 548.212 60.0693C547.814 60.2555 547.471 60.5179 547.184 60.8564C546.896 61.195 546.663 61.6012 546.485 62.0752C546.308 62.5492 546.198 63.0697 546.155 63.6367H552.858ZM581.169 71L581.118 69.2861C580.424 69.9717 579.717 70.4668 578.998 70.7715C578.287 71.0762 577.538 71.2285 576.751 71.2285C576.023 71.2285 575.401 71.1354 574.885 70.9492C574.368 70.763 573.941 70.5091 573.603 70.1875C573.272 69.8574 573.027 69.4723 572.866 69.0322C572.714 68.5921 572.638 68.1139 572.638 67.5977C572.638 66.3197 573.112 65.321 574.06 64.6016C575.016 63.8737 576.425 63.5098 578.287 63.5098H580.928V62.3926C580.928 61.6393 580.687 61.0384 580.204 60.5898C579.722 60.1328 578.985 59.9043 577.995 59.9043C577.276 59.9043 576.565 59.9847 575.862 60.1455C575.168 60.3063 574.449 60.5348 573.704 60.8311V58.8379C573.983 58.7363 574.292 58.639 574.631 58.5459C574.978 58.4443 575.342 58.3555 575.723 58.2793C576.104 58.2031 576.501 58.1439 576.916 58.1016C577.331 58.0508 577.75 58.0254 578.173 58.0254C578.943 58.0254 579.637 58.11 580.255 58.2793C580.873 58.4486 581.393 58.7067 581.816 59.0537C582.248 59.4007 582.578 59.8366 582.807 60.3613C583.035 60.8861 583.149 61.5039 583.149 62.2148V71H581.169ZM580.928 65.1982H578.122C577.572 65.1982 577.098 65.2533 576.7 65.3633C576.302 65.4733 575.977 65.6299 575.723 65.833C575.469 66.0361 575.278 66.2816 575.151 66.5693C575.033 66.8486 574.974 67.166 574.974 67.5215C574.974 67.7669 575.012 68.0039 575.088 68.2324C575.164 68.4525 575.287 68.6514 575.456 68.8291C575.625 68.9984 575.845 69.1338 576.116 69.2354C576.387 69.3369 576.717 69.3877 577.106 69.3877C577.614 69.3877 578.194 69.2354 578.846 68.9307C579.506 68.6175 580.2 68.1266 580.928 67.458V65.1982ZM597.368 67.5215C597.368 67.9701 597.292 68.3721 597.14 68.7275C596.987 69.083 596.78 69.4004 596.518 69.6797C596.255 69.9505 595.951 70.1833 595.604 70.3779C595.257 70.5726 594.884 70.7334 594.486 70.8604C594.097 70.9873 593.695 71.0804 593.28 71.1396C592.866 71.1989 592.459 71.2285 592.062 71.2285C591.198 71.2285 590.403 71.1904 589.675 71.1143C588.955 71.0381 588.249 70.9154 587.555 70.7461V68.7148C588.299 68.9264 589.04 69.0872 589.776 69.1973C590.513 69.3073 591.245 69.3623 591.973 69.3623C593.031 69.3623 593.813 69.2184 594.321 68.9307C594.829 68.6429 595.083 68.2324 595.083 67.6992C595.083 67.4707 595.041 67.2676 594.956 67.0898C594.88 66.9036 594.736 66.7301 594.524 66.5693C594.313 66.4001 593.983 66.2266 593.534 66.0488C593.094 65.8711 592.489 65.668 591.719 65.4395C591.143 65.2702 590.61 65.0798 590.119 64.8682C589.637 64.6481 589.218 64.39 588.862 64.0938C588.507 63.7975 588.228 63.4505 588.024 63.0527C587.821 62.6549 587.72 62.1852 587.72 61.6436C587.72 61.2881 587.8 60.8988 587.961 60.4756C588.13 60.0524 588.414 59.6589 588.812 59.2949C589.209 58.931 589.747 58.6305 590.424 58.3936C591.101 58.1481 591.947 58.0254 592.963 58.0254C593.462 58.0254 594.017 58.055 594.626 58.1143C595.235 58.165 595.87 58.2581 596.53 58.3936V60.3613C595.836 60.1921 595.176 60.0693 594.55 59.9932C593.932 59.9085 593.395 59.8662 592.938 59.8662C592.387 59.8662 591.922 59.9085 591.541 59.9932C591.169 60.0778 590.864 60.1963 590.627 60.3486C590.398 60.4925 590.233 60.666 590.132 60.8691C590.03 61.0638 589.979 61.2754 589.979 61.5039C589.979 61.7324 590.022 61.9398 590.106 62.126C590.2 62.3122 590.365 62.4941 590.602 62.6719C590.847 62.8411 591.186 63.0146 591.617 63.1924C592.049 63.3617 592.612 63.5479 593.306 63.751C594.059 63.971 594.694 64.2038 595.21 64.4492C595.726 64.6862 596.145 64.9528 596.467 65.249C596.788 65.5452 597.017 65.8796 597.152 66.252C597.296 66.6243 597.368 67.0475 597.368 67.5215ZM626.758 64.3984C626.758 65.5326 626.597 66.5228 626.275 67.3691C625.962 68.2155 625.526 68.918 624.968 69.4766C624.409 70.0352 623.749 70.4541 622.987 70.7334C622.226 71.0127 621.4 71.1523 620.512 71.1523C620.105 71.1523 619.699 71.1312 619.293 71.0889C618.895 71.0465 618.489 70.9746 618.074 70.873V76.2051H615.865V58.2539H617.833L617.973 60.3867C618.607 59.515 619.285 58.9056 620.004 58.5586C620.723 58.2031 621.502 58.0254 622.34 58.0254C623.068 58.0254 623.707 58.1777 624.257 58.4824C624.807 58.7871 625.268 59.2188 625.641 59.7773C626.013 60.3275 626.292 60.9961 626.479 61.7832C626.665 62.5618 626.758 63.4336 626.758 64.3984ZM624.498 64.5C624.498 63.8314 624.447 63.2178 624.346 62.6592C624.253 62.1006 624.1 61.6224 623.889 61.2246C623.677 60.8268 623.406 60.5179 623.076 60.2979C622.746 60.0693 622.353 59.9551 621.896 59.9551C621.616 59.9551 621.333 60.0016 621.045 60.0947C620.757 60.1794 620.457 60.3275 620.144 60.5391C619.839 60.7422 619.513 61.0173 619.166 61.3643C618.827 61.7028 618.464 62.126 618.074 62.6338V68.8164C618.48 68.9857 618.908 69.1211 619.356 69.2227C619.805 69.3158 620.245 69.3623 620.677 69.3623C621.87 69.3623 622.805 68.9603 623.482 68.1562C624.16 67.3438 624.498 66.125 624.498 64.5ZM638.349 71L638.298 69.2861C637.604 69.9717 636.897 70.4668 636.178 70.7715C635.467 71.0762 634.718 71.2285 633.931 71.2285C633.203 71.2285 632.581 71.1354 632.064 70.9492C631.548 70.763 631.121 70.5091 630.782 70.1875C630.452 69.8574 630.207 69.4723 630.046 69.0322C629.894 68.5921 629.817 68.1139 629.817 67.5977C629.817 66.3197 630.291 65.321 631.239 64.6016C632.196 63.8737 633.605 63.5098 635.467 63.5098H638.107V62.3926C638.107 61.6393 637.866 61.0384 637.384 60.5898C636.901 60.1328 636.165 59.9043 635.175 59.9043C634.455 59.9043 633.744 59.9847 633.042 60.1455C632.348 60.3063 631.629 60.5348 630.884 60.8311V58.8379C631.163 58.7363 631.472 58.639 631.811 58.5459C632.158 58.4443 632.521 58.3555 632.902 58.2793C633.283 58.2031 633.681 58.1439 634.096 58.1016C634.51 58.0508 634.929 58.0254 635.353 58.0254C636.123 58.0254 636.817 58.11 637.435 58.2793C638.052 58.4486 638.573 58.7067 638.996 59.0537C639.428 59.4007 639.758 59.8366 639.986 60.3613C640.215 60.8861 640.329 61.5039 640.329 62.2148V71H638.349ZM638.107 65.1982H635.302C634.752 65.1982 634.278 65.2533 633.88 65.3633C633.482 65.4733 633.156 65.6299 632.902 65.833C632.648 66.0361 632.458 66.2816 632.331 66.5693C632.213 66.8486 632.153 67.166 632.153 67.5215C632.153 67.7669 632.191 68.0039 632.268 68.2324C632.344 68.4525 632.466 68.6514 632.636 68.8291C632.805 68.9984 633.025 69.1338 633.296 69.2354C633.567 69.3369 633.897 69.3877 634.286 69.3877C634.794 69.3877 635.374 69.2354 636.025 68.9307C636.686 68.6175 637.38 68.1266 638.107 67.458V65.1982ZM648.797 54.877H645.026V53.0615H651.031V69.1592H654.827V71H644.607V69.1592H648.797V54.877ZM663.092 60.082H659.321V58.2539H665.326V69.1592H669.122V71H658.902V69.1592H663.092V60.082ZM663.866 52.9092C664.112 52.9092 664.34 52.9557 664.552 53.0488C664.763 53.1335 664.945 53.2562 665.098 53.417C665.258 53.5778 665.381 53.764 665.466 53.9756C665.559 54.1787 665.605 54.403 665.605 54.6484C665.605 54.8854 665.559 55.1097 665.466 55.3213C665.381 55.5329 665.258 55.7191 665.098 55.8799C664.945 56.0407 664.763 56.1676 664.552 56.2607C664.34 56.3454 664.112 56.3877 663.866 56.3877C663.621 56.3877 663.392 56.3454 663.181 56.2607C662.969 56.1676 662.783 56.0407 662.622 55.8799C662.47 55.7191 662.347 55.5329 662.254 55.3213C662.169 55.1097 662.127 54.8854 662.127 54.6484C662.127 54.403 662.169 54.1787 662.254 53.9756C662.347 53.764 662.47 53.5778 662.622 53.417C662.783 53.2562 662.969 53.1335 663.181 53.0488C663.392 52.9557 663.621 52.9092 663.866 52.9092ZM673.045 58.2539H675.013L675.102 60.3105C675.474 59.8704 675.834 59.5065 676.181 59.2188C676.528 58.9225 676.866 58.6855 677.196 58.5078C677.535 58.3301 677.878 58.2074 678.225 58.1396C678.572 58.0635 678.931 58.0254 679.304 58.0254C680.616 58.0254 681.606 58.4147 682.274 59.1934C682.951 59.9635 683.29 61.1273 683.29 62.6846V71H681.081V62.8623C681.081 61.8636 680.895 61.1273 680.522 60.6533C680.15 60.1709 679.596 59.9297 678.859 59.9297C678.589 59.9297 678.322 59.972 678.06 60.0566C677.806 60.1328 677.539 60.2725 677.26 60.4756C676.98 60.6702 676.676 60.9368 676.346 61.2754C676.024 61.6139 675.66 62.0371 675.254 62.5449V71H673.045V58.2539ZM686.692 64.8936C686.692 63.8102 686.84 62.8496 687.137 62.0117C687.433 61.1654 687.852 60.4544 688.394 59.8789C688.944 59.2949 689.6 58.8548 690.361 58.5586C691.132 58.2539 691.986 58.1016 692.926 58.1016C693.332 58.1016 693.73 58.127 694.119 58.1777C694.517 58.2285 694.906 58.3089 695.287 58.4189V53.0615H697.509V71H695.528L695.452 68.5879C694.834 69.485 694.166 70.1494 693.446 70.5811C692.727 71.0127 691.948 71.2285 691.11 71.2285C690.382 71.2285 689.739 71.0762 689.181 70.7715C688.631 70.4668 688.169 70.0394 687.797 69.4893C687.433 68.9307 687.158 68.262 686.972 67.4834C686.785 66.7048 686.692 65.8415 686.692 64.8936ZM688.952 64.7539C688.952 66.2943 689.176 67.4453 689.625 68.207C690.082 68.9603 690.725 69.3369 691.555 69.3369C692.113 69.3369 692.701 69.0872 693.319 68.5879C693.946 68.0885 694.602 67.348 695.287 66.3662V60.4502C694.923 60.2809 694.521 60.154 694.081 60.0693C693.641 59.9762 693.205 59.9297 692.773 59.9297C691.572 59.9297 690.632 60.319 689.955 61.0977C689.286 61.8763 688.952 63.0951 688.952 64.7539ZM702.155 58.2539H704.174L704.237 60.6025C704.991 59.6969 705.731 59.041 706.459 58.6348C707.195 58.2285 707.936 58.0254 708.681 58.0254C710.001 58.0254 711 58.4528 711.677 59.3076C712.362 60.1624 712.68 61.432 712.629 63.1162H710.395C710.42 61.999 710.255 61.1908 709.899 60.6914C709.552 60.1836 709.04 59.9297 708.363 59.9297C708.067 59.9297 707.767 59.9847 707.462 60.0947C707.166 60.1963 706.857 60.3656 706.535 60.6025C706.222 60.8311 705.888 61.1273 705.532 61.4912C705.177 61.8551 704.796 62.2952 704.39 62.8115V71H702.155V58.2539ZM727.025 64.5254C727.025 65.5156 726.886 66.4255 726.606 67.2549C726.327 68.0758 725.925 68.7826 725.4 69.375C724.876 69.959 724.237 70.416 723.483 70.7461C722.73 71.0677 721.875 71.2285 720.919 71.2285C720.005 71.2285 719.184 71.0889 718.456 70.8096C717.737 70.5218 717.123 70.1029 716.615 69.5527C716.116 69.0026 715.731 68.3213 715.46 67.5088C715.198 66.6963 715.066 65.7611 715.066 64.7031C715.066 63.7129 715.206 62.8115 715.485 61.999C715.765 61.1781 716.167 60.4756 716.691 59.8916C717.216 59.2992 717.855 58.8421 718.608 58.5205C719.362 58.1904 720.216 58.0254 721.173 58.0254C722.087 58.0254 722.904 58.1693 723.623 58.457C724.351 58.7363 724.965 59.151 725.464 59.7012C725.972 60.2428 726.357 60.9199 726.619 61.7324C726.89 62.5449 727.025 63.4759 727.025 64.5254ZM724.766 64.627C724.766 63.8398 724.677 63.1543 724.499 62.5703C724.33 61.9779 724.084 61.487 723.763 61.0977C723.441 60.6999 723.048 60.4036 722.582 60.209C722.125 60.0059 721.613 59.9043 721.046 59.9043C720.386 59.9043 719.819 60.0355 719.345 60.2979C718.879 60.5518 718.494 60.8945 718.189 61.3262C717.893 61.7578 717.673 62.2614 717.529 62.8369C717.394 63.404 717.326 64.0007 717.326 64.627C717.326 65.4141 717.411 66.1038 717.58 66.6963C717.758 67.2887 718.007 67.7839 718.329 68.1816C718.651 68.571 719.04 68.8672 719.497 69.0703C719.954 69.265 720.47 69.3623 721.046 69.3623C721.706 69.3623 722.269 69.2354 722.734 68.9814C723.208 68.7191 723.593 68.3721 723.89 67.9404C724.194 67.5088 724.414 67.0094 724.55 66.4424C724.694 65.8669 724.766 65.2617 724.766 64.627ZM739.314 71V61.8467C739.314 61.4489 739.298 61.123 739.264 60.8691C739.238 60.6152 739.192 60.4163 739.124 60.2725C739.065 60.1201 738.984 60.0143 738.883 59.9551C738.79 59.8958 738.671 59.8662 738.527 59.8662C738.358 59.8662 738.201 59.917 738.058 60.0186C737.914 60.1201 737.757 60.2852 737.588 60.5137C737.427 60.7422 737.245 61.0469 737.042 61.4277C736.847 61.8001 736.615 62.2614 736.344 62.8115V71H734.325V62.0879C734.325 61.6224 734.308 61.2458 734.274 60.958C734.249 60.6702 734.202 60.446 734.135 60.2852C734.076 60.1243 733.995 60.0143 733.894 59.9551C733.792 59.8958 733.669 59.8662 733.525 59.8662C733.373 59.8662 733.229 59.9085 733.094 59.9932C732.958 60.0778 732.806 60.2301 732.637 60.4502C732.476 60.6702 732.294 60.9707 732.091 61.3516C731.888 61.7324 731.646 62.2191 731.367 62.8115V71H729.336V58.2539H731.024L731.126 60.6787C731.346 60.1963 731.558 59.7858 731.761 59.4473C731.972 59.1087 732.188 58.8379 732.408 58.6348C732.628 58.4232 732.861 58.2708 733.106 58.1777C733.36 58.0762 733.64 58.0254 733.944 58.0254C734.63 58.0254 735.15 58.2497 735.506 58.6982C735.861 59.1468 736.039 59.8408 736.039 60.7803C736.242 60.3402 736.441 59.9508 736.636 59.6123C736.83 59.2653 737.038 58.9775 737.258 58.749C737.486 58.512 737.736 58.3343 738.007 58.2158C738.278 58.0889 738.591 58.0254 738.946 58.0254C740.546 58.0254 741.346 59.2568 741.346 61.7197V71H739.314ZM755.285 63.9541C755.285 64.2673 755.281 64.5296 755.272 64.7412C755.264 64.9528 755.251 65.1517 755.234 65.3379H746.284C746.284 66.6413 746.648 67.6442 747.376 68.3467C748.104 69.0407 749.153 69.3877 750.524 69.3877C750.897 69.3877 751.269 69.375 751.642 69.3496C752.014 69.3158 752.374 69.2734 752.721 69.2227C753.068 69.1719 753.398 69.1169 753.711 69.0576C754.033 68.9899 754.329 68.918 754.6 68.8418V70.6572C753.999 70.8265 753.317 70.9619 752.556 71.0635C751.802 71.1735 751.02 71.2285 750.207 71.2285C749.115 71.2285 748.176 71.0804 747.389 70.7842C746.602 70.488 745.954 70.0605 745.446 69.502C744.947 68.9349 744.575 68.2451 744.329 67.4326C744.092 66.6117 743.974 65.6849 743.974 64.6523C743.974 63.7552 744.101 62.9089 744.354 62.1133C744.617 61.3092 744.993 60.6068 745.484 60.0059C745.984 59.3965 746.593 58.9141 747.312 58.5586C748.032 58.2031 748.849 58.0254 749.763 58.0254C750.651 58.0254 751.438 58.165 752.124 58.4443C752.81 58.7236 753.385 59.1214 753.851 59.6377C754.325 60.1455 754.68 60.7676 754.917 61.5039C755.162 62.2318 755.285 63.0485 755.285 63.9541ZM752.987 63.6367C753.013 63.0697 752.958 62.5534 752.822 62.0879C752.687 61.6139 752.475 61.2077 752.188 60.8691C751.908 60.5306 751.557 60.2682 751.134 60.082C750.711 59.8874 750.22 59.79 749.661 59.79C749.179 59.79 748.739 59.8831 748.341 60.0693C747.943 60.2555 747.6 60.5179 747.312 60.8564C747.025 61.195 746.792 61.6012 746.614 62.0752C746.437 62.5492 746.326 63.0697 746.284 63.6367H752.987ZM768.907 67.5215C768.907 67.9701 768.831 68.3721 768.679 68.7275C768.526 69.083 768.319 69.4004 768.057 69.6797C767.794 69.9505 767.49 70.1833 767.143 70.3779C766.796 70.5726 766.423 70.7334 766.025 70.8604C765.636 70.9873 765.234 71.0804 764.819 71.1396C764.405 71.1989 763.998 71.2285 763.601 71.2285C762.737 71.2285 761.942 71.1904 761.214 71.1143C760.494 71.0381 759.788 70.9154 759.094 70.7461V68.7148C759.839 68.9264 760.579 69.0872 761.315 69.1973C762.052 69.3073 762.784 69.3623 763.512 69.3623C764.57 69.3623 765.353 69.2184 765.86 68.9307C766.368 68.6429 766.622 68.2324 766.622 67.6992C766.622 67.4707 766.58 67.2676 766.495 67.0898C766.419 66.9036 766.275 66.7301 766.063 66.5693C765.852 66.4001 765.522 66.2266 765.073 66.0488C764.633 65.8711 764.028 65.668 763.258 65.4395C762.682 65.2702 762.149 65.0798 761.658 64.8682C761.176 64.6481 760.757 64.39 760.401 64.0938C760.046 63.7975 759.767 63.4505 759.563 63.0527C759.36 62.6549 759.259 62.1852 759.259 61.6436C759.259 61.2881 759.339 60.8988 759.5 60.4756C759.669 60.0524 759.953 59.6589 760.351 59.2949C760.748 58.931 761.286 58.6305 761.963 58.3936C762.64 58.1481 763.486 58.0254 764.502 58.0254C765.001 58.0254 765.556 58.055 766.165 58.1143C766.774 58.165 767.409 58.2581 768.069 58.3936V60.3613C767.375 60.1921 766.715 60.0693 766.089 59.9932C765.471 59.9085 764.934 59.8662 764.477 59.8662C763.926 59.8662 763.461 59.9085 763.08 59.9932C762.708 60.0778 762.403 60.1963 762.166 60.3486C761.938 60.4925 761.772 60.666 761.671 60.8691C761.569 61.0638 761.519 61.2754 761.519 61.5039C761.519 61.7324 761.561 61.9398 761.646 62.126C761.739 62.3122 761.904 62.4941 762.141 62.6719C762.386 62.8411 762.725 63.0146 763.156 63.1924C763.588 63.3617 764.151 63.5479 764.845 63.751C765.598 63.971 766.233 64.2038 766.749 64.4492C767.265 64.6862 767.684 64.9528 768.006 65.249C768.327 65.5452 768.556 65.8796 768.691 66.252C768.835 66.6243 768.907 67.0475 768.907 67.5215Z" fill="#333333"/>
<path d="M358 37.5C357.448 37.5 357 37.9477 357 38.5C357 39.0523 357.448 39.5 358 39.5V37.5ZM412.207 39.2071C412.598 38.8166 412.598 38.1834 412.207 37.7929L405.843 31.4289C405.453 31.0384 404.819 31.0384 404.429 31.4289C404.038 31.8195 404.038 32.4526 404.429 32.8431L410.086 38.5L404.429 44.1569C404.038 44.5474 404.038 45.1805 404.429 45.5711C404.819 45.9616 405.453 45.9616 405.843 45.5711L412.207 39.2071ZM358 39.5H411.5V37.5H358V39.5Z" fill="#666666"/>
<path d="M8 49V55H51V49" stroke="#AAAAAA" stroke-width="2"/>
<path d="M55 49V55H98V49" stroke="#AAAAAA" stroke-width="2"/>
<path d="M102 49V55H144V49" stroke="black" stroke-width="2"/>
<path d="M148 49V55H190V49" stroke="#AAAAAA" stroke-width="2"/>
<path d="M194 49V55H236V49" stroke="#AAAAAA" stroke-width="2"/>
<path d="M240 49V55H283V49" stroke="#AAAAAA" stroke-width="2"/>
<path d="M287 49V55H330V49" stroke="#AAAAAA" stroke-width="2"/>
</g>
<defs>
<clipPath id="clip0_6295_1659">
<rect width="831" height="77" fill="white"/>
</clipPath>
</defs>
</svg>
