<svg width="497" height="316" viewBox="0 0 497 316" fill="none" xmlns="http://www.w3.org/2000/svg">
<g clip-path="url(#clip0_6292_3092)">
<rect width="497" height="316" fill="white"/>
<path d="M10.6387 293.623C10.6387 294.6 10.541 295.492 10.3457 296.299C10.1504 297.1 9.85417 297.79 9.45703 298.369C9.0599 298.942 8.5651 299.388 7.97266 299.707C7.38672 300.02 6.69661 300.176 5.90234 300.176C5.21875 300.176 4.59701 300.049 4.03711 299.795C3.47721 299.535 2.9987 299.137 2.60156 298.604C2.20443 298.07 1.89844 297.389 1.68359 296.562C1.46875 295.736 1.36133 294.756 1.36133 293.623C1.36133 292.646 1.45898 291.755 1.6543 290.947C1.85612 290.14 2.15234 289.45 2.54297 288.877C2.9401 288.298 3.4349 287.852 4.02734 287.539C4.61979 287.22 5.3099 287.061 6.09766 287.061C6.78125 287.061 7.40299 287.191 7.96289 287.451C8.52279 287.705 9.0013 288.102 9.39844 288.643C9.79557 289.176 10.1016 289.857 10.3164 290.684C10.5312 291.51 10.6387 292.49 10.6387 293.623ZM8.91992 293.682C8.91992 293.46 8.91016 293.242 8.89062 293.027C8.8776 292.806 8.86133 292.591 8.8418 292.383L3.44141 296.396C3.53906 296.735 3.66276 297.048 3.8125 297.334C3.96224 297.62 4.14128 297.868 4.34961 298.076C4.56445 298.278 4.80534 298.438 5.07227 298.555C5.3457 298.665 5.65495 298.721 6 298.721C6.44271 298.721 6.8431 298.613 7.20117 298.398C7.56576 298.184 7.875 297.865 8.12891 297.441C8.38281 297.018 8.57812 296.494 8.71484 295.869C8.85156 295.238 8.91992 294.508 8.91992 293.682ZM3.08008 293.564C3.08008 293.766 3.08008 293.968 3.08008 294.17C3.08659 294.372 3.09961 294.567 3.11914 294.756L8.51953 290.762C8.42188 290.43 8.29818 290.127 8.14844 289.854C7.9987 289.58 7.81966 289.346 7.61133 289.15C7.40299 288.949 7.16536 288.792 6.89844 288.682C6.63151 288.571 6.33203 288.516 6 288.516C5.55729 288.516 5.15365 288.623 4.78906 288.838C4.43099 289.053 4.125 289.375 3.87109 289.805C3.61719 290.228 3.42188 290.755 3.28516 291.387C3.14844 292.012 3.08008 292.738 3.08008 293.564Z" fill="#808080"/>
<path d="M29.6387 309.123C29.6387 310.1 29.541 310.992 29.3457 311.799C29.1504 312.6 28.8542 313.29 28.457 313.869C28.0599 314.442 27.5651 314.888 26.9727 315.207C26.3867 315.52 25.6966 315.676 24.9023 315.676C24.2188 315.676 23.597 315.549 23.0371 315.295C22.4772 315.035 21.9987 314.637 21.6016 314.104C21.2044 313.57 20.8984 312.889 20.6836 312.062C20.4688 311.236 20.3613 310.256 20.3613 309.123C20.3613 308.146 20.459 307.255 20.6543 306.447C20.8561 305.64 21.1523 304.95 21.543 304.377C21.9401 303.798 22.4349 303.352 23.0273 303.039C23.6198 302.72 24.3099 302.561 25.0977 302.561C25.7812 302.561 26.403 302.691 26.9629 302.951C27.5228 303.205 28.0013 303.602 28.3984 304.143C28.7956 304.676 29.1016 305.357 29.3164 306.184C29.5312 307.01 29.6387 307.99 29.6387 309.123ZM27.9199 309.182C27.9199 308.96 27.9102 308.742 27.8906 308.527C27.8776 308.306 27.8613 308.091 27.8418 307.883L22.4414 311.896C22.5391 312.235 22.6628 312.548 22.8125 312.834C22.9622 313.12 23.1413 313.368 23.3496 313.576C23.5645 313.778 23.8053 313.938 24.0723 314.055C24.3457 314.165 24.6549 314.221 25 314.221C25.4427 314.221 25.8431 314.113 26.2012 313.898C26.5658 313.684 26.875 313.365 27.1289 312.941C27.3828 312.518 27.5781 311.994 27.7148 311.369C27.8516 310.738 27.9199 310.008 27.9199 309.182ZM22.0801 309.064C22.0801 309.266 22.0801 309.468 22.0801 309.67C22.0866 309.872 22.0996 310.067 22.1191 310.256L27.5195 306.262C27.4219 305.93 27.2982 305.627 27.1484 305.354C26.9987 305.08 26.8197 304.846 26.6113 304.65C26.403 304.449 26.1654 304.292 25.8984 304.182C25.6315 304.071 25.332 304.016 25 304.016C24.5573 304.016 24.1536 304.123 23.7891 304.338C23.431 304.553 23.125 304.875 22.8711 305.305C22.6172 305.728 22.4219 306.255 22.2852 306.887C22.1484 307.512 22.0801 308.238 22.0801 309.064Z" fill="black" fill-opacity="0.5"/>
<path d="M72.2383 315H64.2207V313.418H67.502V304.102L64.4453 305.762L63.8203 304.316L67.8828 302.178H69.3867V313.418H72.2383V315Z" fill="black" fill-opacity="0.5"/>
<path d="M115.846 315.5H107.438V313.977L110.738 310.695C111.279 310.161 111.718 309.699 112.057 309.309C112.395 308.918 112.659 308.563 112.848 308.244C113.036 307.919 113.163 307.613 113.229 307.326C113.294 307.04 113.326 306.73 113.326 306.398C113.326 306.086 113.284 305.79 113.199 305.51C113.115 305.223 112.984 304.973 112.809 304.758C112.633 304.543 112.405 304.374 112.125 304.25C111.845 304.126 111.51 304.064 111.119 304.064C110.579 304.064 110.087 304.185 109.645 304.426C109.202 304.667 108.795 304.979 108.424 305.363L107.486 304.24C107.968 303.732 108.521 303.326 109.146 303.02C109.778 302.714 110.51 302.561 111.344 302.561C111.91 302.561 112.424 302.645 112.887 302.814C113.355 302.984 113.759 303.228 114.098 303.547C114.436 303.866 114.697 304.257 114.879 304.719C115.068 305.181 115.162 305.702 115.162 306.281C115.162 306.77 115.097 307.222 114.967 307.639C114.837 308.055 114.638 308.472 114.371 308.889C114.111 309.299 113.779 309.725 113.375 310.168C112.978 310.611 112.506 311.096 111.959 311.623L109.645 313.879H115.846V315.5Z" fill="black" fill-opacity="0.5"/>
<path d="M159.602 311.623C159.602 312.183 159.488 312.71 159.26 313.205C159.032 313.693 158.69 314.123 158.234 314.494C157.779 314.859 157.206 315.148 156.516 315.363C155.826 315.572 155.021 315.676 154.104 315.676C153.596 315.676 153.14 315.66 152.736 315.627C152.333 315.594 151.955 315.552 151.604 315.5V313.977C152.007 314.048 152.434 314.104 152.883 314.143C153.332 314.182 153.791 314.201 154.26 314.201C154.898 314.201 155.441 314.146 155.891 314.035C156.346 313.918 156.717 313.752 157.004 313.537C157.29 313.322 157.499 313.062 157.629 312.756C157.759 312.45 157.824 312.105 157.824 311.721C157.824 311.369 157.746 311.063 157.59 310.803C157.434 310.542 157.212 310.324 156.926 310.148C156.646 309.973 156.307 309.842 155.91 309.758C155.52 309.667 155.09 309.621 154.621 309.621H153.166V308.225H154.641C155.025 308.225 155.373 308.176 155.686 308.078C156.005 307.974 156.275 307.827 156.496 307.639C156.724 307.45 156.896 307.219 157.014 306.945C157.137 306.665 157.199 306.35 157.199 305.998C157.199 305.314 156.991 304.816 156.574 304.504C156.158 304.191 155.546 304.035 154.738 304.035C154.309 304.035 153.866 304.077 153.41 304.162C152.954 304.247 152.466 304.374 151.945 304.543V303.059C152.167 302.98 152.401 302.912 152.648 302.854C152.902 302.788 153.153 302.736 153.4 302.697C153.654 302.652 153.905 302.619 154.152 302.6C154.4 302.574 154.637 302.561 154.865 302.561C155.542 302.561 156.138 302.635 156.652 302.785C157.167 302.928 157.596 303.137 157.941 303.41C158.286 303.684 158.547 304.016 158.723 304.406C158.898 304.797 158.986 305.236 158.986 305.725C158.986 306.454 158.798 307.066 158.42 307.561C158.049 308.055 157.538 308.449 156.887 308.742C157.219 308.794 157.544 308.898 157.863 309.055C158.189 309.211 158.479 309.413 158.732 309.66C158.993 309.901 159.201 310.188 159.357 310.52C159.52 310.852 159.602 311.219 159.602 311.623Z" fill="black" fill-opacity="0.5"/>
<path d="M46.7852 8.19531L43.4453 16.9648C43.1003 17.8568 42.7422 18.625 42.3711 19.2695C42.0065 19.9141 41.6061 20.4414 41.1699 20.8516C40.7337 21.2682 40.2552 21.5742 39.7344 21.7695C39.2135 21.9648 38.6309 22.0625 37.9863 22.0625C37.8171 22.0625 37.6641 22.0592 37.5273 22.0527C37.3906 22.0462 37.2409 22.0365 37.0781 22.0234V20.4805C37.2214 20.5 37.3776 20.5163 37.5469 20.5293C37.7161 20.5488 37.8952 20.5586 38.084 20.5586C38.3965 20.5586 38.6862 20.513 38.9531 20.4219C39.2266 20.3307 39.4837 20.181 39.7246 19.9727C39.9655 19.7708 40.1966 19.5072 40.418 19.1816C40.6393 18.8561 40.8542 18.4622 41.0625 18L37.1465 8.19531H39.0801L41.5605 14.6797L42.0586 16.2031L42.625 14.6406L44.9199 8.19531H46.7852Z" fill="black" fill-opacity="0.5"/>
<path d="M10.2383 254H2.2207V252.418H5.50195V243.102L2.44531 244.762L1.82031 243.316L5.88281 241.178H7.38672V252.418H10.2383V254Z" fill="#808080"/>
<path d="M10.3457 211H1.9375V209.477L5.23828 206.195C5.77865 205.661 6.2181 205.199 6.55664 204.809C6.89518 204.418 7.15885 204.063 7.34766 203.744C7.53646 203.419 7.66341 203.113 7.72852 202.826C7.79362 202.54 7.82617 202.23 7.82617 201.898C7.82617 201.586 7.78385 201.29 7.69922 201.01C7.61458 200.723 7.48438 200.473 7.30859 200.258C7.13281 200.043 6.90495 199.874 6.625 199.75C6.34505 199.626 6.00977 199.564 5.61914 199.564C5.07878 199.564 4.58724 199.685 4.14453 199.926C3.70182 200.167 3.29492 200.479 2.92383 200.863L1.98633 199.74C2.4681 199.232 3.02148 198.826 3.64648 198.52C4.27799 198.214 5.01042 198.061 5.84375 198.061C6.41016 198.061 6.92448 198.145 7.38672 198.314C7.85547 198.484 8.25911 198.728 8.59766 199.047C8.9362 199.366 9.19661 199.757 9.37891 200.219C9.56771 200.681 9.66211 201.202 9.66211 201.781C9.66211 202.27 9.59701 202.722 9.4668 203.139C9.33659 203.555 9.13802 203.972 8.87109 204.389C8.61068 204.799 8.27865 205.225 7.875 205.668C7.47786 206.111 7.00586 206.596 6.45898 207.123L4.14453 209.379H10.3457V211Z" fill="#808080"/>
<path d="M10.1016 164.123C10.1016 164.683 9.98763 165.21 9.75977 165.705C9.5319 166.193 9.1901 166.623 8.73438 166.994C8.27865 167.359 7.70573 167.648 7.01562 167.863C6.32552 168.072 5.52148 168.176 4.60352 168.176C4.0957 168.176 3.63997 168.16 3.23633 168.127C2.83268 168.094 2.45508 168.052 2.10352 168V166.477C2.50716 166.548 2.93359 166.604 3.38281 166.643C3.83203 166.682 4.29102 166.701 4.75977 166.701C5.39779 166.701 5.94141 166.646 6.39062 166.535C6.84635 166.418 7.21745 166.252 7.50391 166.037C7.79036 165.822 7.9987 165.562 8.12891 165.256C8.25911 164.95 8.32422 164.605 8.32422 164.221C8.32422 163.869 8.24609 163.563 8.08984 163.303C7.93359 163.042 7.71224 162.824 7.42578 162.648C7.14583 162.473 6.80729 162.342 6.41016 162.258C6.01953 162.167 5.58984 162.121 5.12109 162.121H3.66602V160.725H5.14062C5.52474 160.725 5.87305 160.676 6.18555 160.578C6.50456 160.474 6.77474 160.327 6.99609 160.139C7.22396 159.95 7.39648 159.719 7.51367 159.445C7.63737 159.165 7.69922 158.85 7.69922 158.498C7.69922 157.814 7.49089 157.316 7.07422 157.004C6.65755 156.691 6.04557 156.535 5.23828 156.535C4.80859 156.535 4.36589 156.577 3.91016 156.662C3.45443 156.747 2.96615 156.874 2.44531 157.043V155.559C2.66667 155.48 2.90104 155.412 3.14844 155.354C3.40234 155.288 3.65299 155.236 3.90039 155.197C4.1543 155.152 4.40495 155.119 4.65234 155.1C4.89974 155.074 5.13737 155.061 5.36523 155.061C6.04232 155.061 6.63802 155.135 7.15234 155.285C7.66667 155.428 8.09635 155.637 8.44141 155.91C8.78646 156.184 9.04688 156.516 9.22266 156.906C9.39844 157.297 9.48633 157.736 9.48633 158.225C9.48633 158.954 9.29753 159.566 8.91992 160.061C8.54883 160.555 8.03776 160.949 7.38672 161.242C7.71875 161.294 8.04427 161.398 8.36328 161.555C8.6888 161.711 8.97852 161.913 9.23242 162.16C9.49284 162.401 9.70117 162.688 9.85742 163.02C10.0202 163.352 10.1016 163.719 10.1016 164.123Z" fill="#808080"/>
<path d="M10.9805 121.178H8.80273V124H7.06445V121.178H0.921875V119.684L6.36133 111.236H8.80273V119.684H10.9805V121.178ZM7.06445 112.877L2.62109 119.684H7.06445V112.877Z" fill="#808080"/>
<path d="M10.0234 77.918C10.0234 78.5495 9.88672 79.1257 9.61328 79.6465C9.33984 80.1673 8.96224 80.6165 8.48047 80.9941C8.00521 81.3652 7.44206 81.6549 6.79102 81.8633C6.13997 82.0716 5.43685 82.1758 4.68164 82.1758C4.49284 82.1758 4.28776 82.1693 4.06641 82.1562C3.85156 82.1497 3.63672 82.1367 3.42188 82.1172C3.20703 82.1042 2.99544 82.0879 2.78711 82.0684C2.58529 82.0488 2.40299 82.026 2.24023 82V80.457C2.5918 80.5417 2.99219 80.6035 3.44141 80.6426C3.89714 80.6816 4.35612 80.7012 4.81836 80.7012C5.33919 80.7012 5.80794 80.6393 6.22461 80.5156C6.64128 80.3919 6.99609 80.2161 7.28906 79.9883C7.58203 79.7539 7.80664 79.474 7.96289 79.1484C8.11914 78.8164 8.19727 78.4453 8.19727 78.0352C8.19727 77.2409 7.91081 76.6647 7.33789 76.3066C6.77148 75.9421 5.95443 75.7598 4.88672 75.7598H2.46484V69.2363H9.33984V70.7207H4.06641V74.3047H5.17969C5.79167 74.3047 6.38737 74.36 6.9668 74.4707C7.54622 74.5814 8.06055 74.7767 8.50977 75.0566C8.96549 75.3301 9.33008 75.7012 9.60352 76.1699C9.88346 76.6322 10.0234 77.2148 10.0234 77.918Z" fill="#808080"/>
<path d="M10.502 31.957C10.502 32.543 10.3945 33.0931 10.1797 33.6074C9.97135 34.1217 9.67188 34.571 9.28125 34.9551C8.89062 35.3327 8.41862 35.6322 7.86523 35.8535C7.31836 36.0684 6.70964 36.1758 6.03906 36.1758C5.33594 36.1758 4.71419 36.0651 4.17383 35.8438C3.63346 35.6159 3.18099 35.2708 2.81641 34.8086C2.45182 34.3398 2.17513 33.7507 1.98633 33.041C1.79753 32.3314 1.70312 31.4915 1.70312 30.5215C1.70312 29.8704 1.74544 29.2389 1.83008 28.627C1.91471 28.015 2.05469 27.4388 2.25 26.8984C2.44531 26.3581 2.70573 25.8633 3.03125 25.4141C3.35677 24.9648 3.76042 24.5807 4.24219 24.2617C4.73047 23.9362 5.30339 23.6855 5.96094 23.5098C6.61849 23.3275 7.38021 23.2363 8.24609 23.2363H9.50586V24.7207H8.13867C7.37695 24.7207 6.71615 24.8118 6.15625 24.9941C5.59635 25.1764 5.1276 25.4336 4.75 25.7656C4.3724 26.0977 4.08268 26.498 3.88086 26.9668C3.67904 27.4355 3.55208 27.9596 3.5 28.5391L3.46094 28.9395C3.87109 28.6986 4.3431 28.5065 4.87695 28.3633C5.41732 28.2135 6 28.1387 6.625 28.1387C7.26953 28.1387 7.83268 28.2331 8.31445 28.4219C8.80273 28.6107 9.20638 28.8743 9.52539 29.2129C9.85091 29.5449 10.0951 29.9453 10.2578 30.4141C10.4206 30.8828 10.502 31.3971 10.502 31.957ZM8.72461 32.0645C8.72461 31.6738 8.67578 31.3223 8.57812 31.0098C8.48698 30.6908 8.34049 30.4238 8.13867 30.209C7.93685 29.9876 7.67969 29.8184 7.36719 29.7012C7.0612 29.5775 6.69336 29.5156 6.26367 29.5156C6.01628 29.5156 5.76562 29.5384 5.51172 29.584C5.25781 29.6296 5.00716 29.6947 4.75977 29.7793C4.51888 29.8574 4.28776 29.9486 4.06641 30.0527C3.84505 30.1569 3.64323 30.2676 3.46094 30.3848C3.46094 31.2246 3.51953 31.9277 3.63672 32.4941C3.75391 33.054 3.92643 33.5033 4.1543 33.8418C4.38867 34.1803 4.67513 34.4212 5.01367 34.5645C5.35221 34.7077 5.74284 34.7793 6.18555 34.7793C6.55664 34.7793 6.89518 34.7207 7.20117 34.6035C7.51367 34.4798 7.7806 34.3008 8.00195 34.0664C8.22982 33.832 8.4056 33.5488 8.5293 33.2168C8.65951 32.8783 8.72461 32.4941 8.72461 32.0645Z" fill="#808080"/>
<path d="M156.5 244.256C157.115 244.256 157.691 244.373 158.229 244.607C158.775 244.842 159.249 245.164 159.649 245.574C160.06 245.975 160.382 246.448 160.616 246.995C160.851 247.532 160.968 248.108 160.968 248.724C160.968 249.339 160.851 249.92 160.616 250.467C160.382 251.004 160.06 251.478 159.649 251.888C159.249 252.288 158.775 252.605 158.229 252.84C157.691 253.074 157.115 253.191 156.5 253.191C155.885 253.191 155.304 253.074 154.757 252.84C154.22 252.605 153.746 252.288 153.336 251.888C152.936 251.478 152.618 251.004 152.384 250.467C152.149 249.92 152.032 249.339 152.032 248.724C152.032 248.108 152.149 247.532 152.384 246.995C152.618 246.448 152.936 245.975 153.336 245.574C153.746 245.164 154.22 244.842 154.757 244.607C155.304 244.373 155.885 244.256 156.5 244.256Z" fill="black"/>
<path d="M112.5 200.256C113.115 200.256 113.691 200.373 114.229 200.607C114.775 200.842 115.249 201.164 115.649 201.574C116.06 201.975 116.382 202.448 116.616 202.995C116.851 203.532 116.968 204.108 116.968 204.724C116.968 205.339 116.851 205.92 116.616 206.467C116.382 207.004 116.06 207.478 115.649 207.888C115.249 208.288 114.775 208.605 114.229 208.84C113.691 209.074 113.115 209.191 112.5 209.191C111.885 209.191 111.304 209.074 110.757 208.84C110.22 208.605 109.746 208.288 109.336 207.888C108.936 207.478 108.618 207.004 108.384 206.467C108.149 205.92 108.032 205.339 108.032 204.724C108.032 204.108 108.149 203.532 108.384 202.995C108.618 202.448 108.936 201.975 109.336 201.574C109.746 201.164 110.22 200.842 110.757 200.607C111.304 200.373 111.885 200.256 112.5 200.256Z" fill="black"/>
<path d="M467.5 72.2559C468.115 72.2559 468.691 72.373 469.229 72.6074C469.775 72.8418 470.249 73.1641 470.649 73.5742C471.06 73.9746 471.382 74.4482 471.616 74.9951C471.851 75.5322 471.968 76.1084 471.968 76.7236C471.968 77.3389 471.851 77.9199 471.616 78.4668C471.382 79.0039 471.06 79.4775 470.649 79.8877C470.249 80.2881 469.775 80.6055 469.229 80.8398C468.691 81.0742 468.115 81.1914 467.5 81.1914C466.885 81.1914 466.304 81.0742 465.757 80.8398C465.22 80.6055 464.746 80.2881 464.336 79.8877C463.936 79.4775 463.618 79.0039 463.384 78.4668C463.149 77.9199 463.032 77.3389 463.032 76.7236C463.032 76.1084 463.149 75.5322 463.384 74.9951C463.618 74.4482 463.936 73.9746 464.336 73.5742C464.746 73.1641 465.22 72.8418 465.757 72.6074C466.304 72.373 466.885 72.2559 467.5 72.2559Z" fill="black"/>
<path d="M67.5 72.2559C68.1152 72.2559 68.6914 72.373 69.2285 72.6074C69.7754 72.8418 70.249 73.1641 70.6494 73.5742C71.0596 73.9746 71.3818 74.4482 71.6162 74.9951C71.8506 75.5322 71.9678 76.1084 71.9678 76.7236C71.9678 77.3389 71.8506 77.9199 71.6162 78.4668C71.3818 79.0039 71.0596 79.4775 70.6494 79.8877C70.249 80.2881 69.7754 80.6055 69.2285 80.8398C68.6914 81.0742 68.1152 81.1914 67.5 81.1914C66.8848 81.1914 66.3037 81.0742 65.7568 80.8398C65.2197 80.6055 64.7461 80.2881 64.3359 79.8877C63.9355 79.4775 63.6182 79.0039 63.3838 78.4668C63.1494 77.9199 63.0322 77.3389 63.0322 76.7236C63.0322 76.1084 63.1494 75.5322 63.3838 74.9951C63.6182 74.4482 63.9355 73.9746 64.3359 73.5742C64.7461 73.1641 65.2197 72.8418 65.7568 72.6074C66.3037 72.373 66.8848 72.2559 67.5 72.2559Z" fill="black"/>
<path d="M112.5 205L157 248.5" stroke="black" stroke-width="2"/>
<path d="M68 76.5L112.5 205" stroke="black" stroke-width="2"/>
<path d="M24 292.5H23L23 293.5L24 293.5L24 292.5ZM24.7071 2.29291C24.3166 1.90237 23.6834 1.90237 23.2929 2.29291L16.9289 8.65686C16.5384 9.04736 16.5384 9.68054 16.9289 10.0711C17.3195 10.4616 17.9526 10.4616 18.3431 10.0711L24 4.41422L29.6569 10.0711C30.0474 10.4616 30.6805 10.4616 31.0711 10.0711C31.4616 9.68054 31.4616 9.04739 31.0711 8.65686L24.7071 2.29291ZM496.707 293.207C497.098 292.817 497.098 292.183 496.707 291.793L490.343 285.429C489.953 285.038 489.319 285.038 488.929 285.429C488.538 285.819 488.538 286.453 488.929 286.843L494.586 292.5L488.929 298.157C488.538 298.547 488.538 299.18 488.929 299.571C489.319 299.962 489.953 299.962 490.343 299.571L496.707 293.207ZM25 292.5L25 3L23 3L23 292.5H25ZM24 293.5L496 293.5L496 291.5L24 291.5L24 293.5Z" fill="#666666"/>
<path d="M467.5 76L422 205" stroke="black" stroke-width="2"/>
<path d="M421.5 201.256C422.115 201.256 422.691 201.373 423.229 201.607C423.775 201.842 424.249 202.164 424.649 202.574C425.06 202.975 425.382 203.448 425.616 203.995C425.851 204.532 425.968 205.108 425.968 205.724C425.968 206.339 425.851 206.92 425.616 207.467C425.382 208.004 425.06 208.478 424.649 208.888C424.249 209.288 423.775 209.605 423.229 209.84C422.691 210.074 422.115 210.191 421.5 210.191C420.885 210.191 420.304 210.074 419.757 209.84C419.22 209.605 418.746 209.288 418.336 208.888C417.936 208.478 417.618 208.004 417.384 207.467C417.149 206.92 417.032 206.339 417.032 205.724C417.032 205.108 417.149 204.532 417.384 203.995C417.618 203.448 417.936 202.975 418.336 202.574C418.746 202.164 419.22 201.842 419.757 201.607C420.304 201.373 420.885 201.256 421.5 201.256Z" fill="black"/>
<path d="M377 248.5L422 205.5" stroke="black" stroke-width="2"/>
<path d="M376.5 244.256C377.115 244.256 377.691 244.373 378.229 244.607C378.775 244.842 379.249 245.164 379.649 245.574C380.06 245.975 380.382 246.448 380.616 246.995C380.851 247.532 380.968 248.108 380.968 248.724C380.968 249.339 380.851 249.92 380.616 250.467C380.382 251.004 380.06 251.478 379.649 251.888C379.249 252.288 378.775 252.605 378.229 252.84C377.691 253.074 377.115 253.191 376.5 253.191C375.885 253.191 375.304 253.074 374.757 252.84C374.22 252.605 373.746 252.288 373.336 251.888C372.936 251.478 372.618 251.004 372.384 250.467C372.149 249.92 372.032 249.339 372.032 248.724C372.032 248.108 372.149 247.532 372.384 246.995C372.618 246.448 372.936 245.975 373.336 245.574C373.746 245.164 374.22 244.842 374.757 244.607C375.304 244.373 375.885 244.256 376.5 244.256Z" fill="black"/>
<path d="M495.902 275H493.646L491 271.26L488.383 275H486.186L489.984 270.078L486.361 265.195H488.539L491.117 268.965L493.646 265.195H495.746L492.064 270.117L495.902 275Z" fill="black" fill-opacity="0.5"/>
<path d="M204.98 312.678H202.803V315.5H201.064V312.678H194.922V311.184L200.361 302.736H202.803V311.184H204.98V312.678ZM201.064 304.377L196.621 311.184H201.064V304.377Z" fill="black" fill-opacity="0.5"/>
<path d="M249.023 311.418C249.023 312.049 248.887 312.626 248.613 313.146C248.34 313.667 247.962 314.117 247.48 314.494C247.005 314.865 246.442 315.155 245.791 315.363C245.14 315.572 244.437 315.676 243.682 315.676C243.493 315.676 243.288 315.669 243.066 315.656C242.852 315.65 242.637 315.637 242.422 315.617C242.207 315.604 241.995 315.588 241.787 315.568C241.585 315.549 241.403 315.526 241.24 315.5V313.957C241.592 314.042 241.992 314.104 242.441 314.143C242.897 314.182 243.356 314.201 243.818 314.201C244.339 314.201 244.808 314.139 245.225 314.016C245.641 313.892 245.996 313.716 246.289 313.488C246.582 313.254 246.807 312.974 246.963 312.648C247.119 312.316 247.197 311.945 247.197 311.535C247.197 310.741 246.911 310.165 246.338 309.807C245.771 309.442 244.954 309.26 243.887 309.26H241.465V302.736H248.34V304.221H243.066V307.805H244.18C244.792 307.805 245.387 307.86 245.967 307.971C246.546 308.081 247.061 308.277 247.51 308.557C247.965 308.83 248.33 309.201 248.604 309.67C248.883 310.132 249.023 310.715 249.023 311.418Z" fill="black" fill-opacity="0.5"/>
<path d="M294.502 311.457C294.502 312.043 294.395 312.593 294.18 313.107C293.971 313.622 293.672 314.071 293.281 314.455C292.891 314.833 292.419 315.132 291.865 315.354C291.318 315.568 290.71 315.676 290.039 315.676C289.336 315.676 288.714 315.565 288.174 315.344C287.633 315.116 287.181 314.771 286.816 314.309C286.452 313.84 286.175 313.251 285.986 312.541C285.798 311.831 285.703 310.992 285.703 310.021C285.703 309.37 285.745 308.739 285.83 308.127C285.915 307.515 286.055 306.939 286.25 306.398C286.445 305.858 286.706 305.363 287.031 304.914C287.357 304.465 287.76 304.081 288.242 303.762C288.73 303.436 289.303 303.186 289.961 303.01C290.618 302.827 291.38 302.736 292.246 302.736H293.506V304.221H292.139C291.377 304.221 290.716 304.312 290.156 304.494C289.596 304.676 289.128 304.934 288.75 305.266C288.372 305.598 288.083 305.998 287.881 306.467C287.679 306.936 287.552 307.46 287.5 308.039L287.461 308.439C287.871 308.199 288.343 308.007 288.877 307.863C289.417 307.714 290 307.639 290.625 307.639C291.27 307.639 291.833 307.733 292.314 307.922C292.803 308.111 293.206 308.374 293.525 308.713C293.851 309.045 294.095 309.445 294.258 309.914C294.421 310.383 294.502 310.897 294.502 311.457ZM292.725 311.564C292.725 311.174 292.676 310.822 292.578 310.51C292.487 310.191 292.34 309.924 292.139 309.709C291.937 309.488 291.68 309.318 291.367 309.201C291.061 309.077 290.693 309.016 290.264 309.016C290.016 309.016 289.766 309.038 289.512 309.084C289.258 309.13 289.007 309.195 288.76 309.279C288.519 309.357 288.288 309.449 288.066 309.553C287.845 309.657 287.643 309.768 287.461 309.885C287.461 310.725 287.52 311.428 287.637 311.994C287.754 312.554 287.926 313.003 288.154 313.342C288.389 313.68 288.675 313.921 289.014 314.064C289.352 314.208 289.743 314.279 290.186 314.279C290.557 314.279 290.895 314.221 291.201 314.104C291.514 313.98 291.781 313.801 292.002 313.566C292.23 313.332 292.406 313.049 292.529 312.717C292.66 312.378 292.725 311.994 292.725 311.564Z" fill="black" fill-opacity="0.5"/>
<path d="M339.277 304.318L333.926 315.5H331.982L337.539 304.318H330.645V302.736H339.277V304.318Z" fill="black" fill-opacity="0.5"/>
</g>
<defs>
<clipPath id="clip0_6292_3092">
<rect width="497" height="316" fill="white"/>
</clipPath>
</defs>
</svg>
