<svg width="1524" height="448" viewBox="0 0 1524 448" fill="none" xmlns="http://www.w3.org/2000/svg">
<g clip-path="url(#clip0_6292_3317)">
<rect width="1524" height="448" fill="white"/>
<path d="M938.5 325.5V261.5H861V197.5H804V325.5H938.5Z" fill="#DDF5FF"/>
<path d="M360.5 99.5V4" stroke="#999999" stroke-width="2"/>
<path d="M30 294.5V218" stroke="#999999" stroke-width="2"/>
<path d="M29 294L171 294" stroke="#999999" stroke-width="2"/>
<path d="M833 294.5V218" stroke="#00B2FF" stroke-width="3"/>
<path d="M961.061 295.061C961.646 294.475 961.646 293.525 961.061 292.939L951.515 283.393C950.929 282.808 949.979 282.808 949.393 283.393C948.808 283.979 948.808 284.929 949.393 285.515L957.879 294L949.393 302.485C948.808 303.071 948.808 304.021 949.393 304.607C949.979 305.192 950.929 305.192 951.515 304.607L961.061 295.061ZM832 295.5L960 295.5L960 292.5L832 292.5L832 295.5Z" fill="#00B2FF"/>
<path d="M169 99.5L361.5 99.5" stroke="#999999" stroke-width="2"/>
<path d="M327.5 47.5V69H135.5V261.5H58V197H1V325.5H135.5V447H265.5V383H201.5V129H327.5V319.5H451.5L468 336" stroke="black" stroke-width="2"/>
<path d="M327.5 39.5V6" stroke="black" stroke-width="2" stroke-dasharray="8 8"/>
<path d="M389.5 39.5V6" stroke="black" stroke-width="2" stroke-dasharray="8 8"/>
<path d="M170 294.5V100" stroke="#999999" stroke-width="2"/>
<path opacity="0.2" d="M450.914 100.914C451.695 100.133 451.695 98.8668 450.914 98.0858L438.186 85.3579C437.405 84.5768 436.139 84.5768 435.358 85.3579C434.577 86.1389 434.577 87.4052 435.358 88.1863L446.672 99.5L435.358 110.814C434.577 111.595 434.577 112.861 435.358 113.642C436.139 114.423 437.405 114.423 438.186 113.642L450.914 100.914ZM383.5 101.5L449.5 101.5L449.5 97.5L383.5 97.5L383.5 101.5Z" fill="black"/>
<path d="M389.5 48V67H522V1H714V67H594.5V129H390V261.5H454L469.5 246" stroke="black" stroke-width="2"/>
<path d="M0 194.5H59" stroke="black" stroke-width="10"/>
<path d="M265.5 382L265.5 448" stroke="black" stroke-width="10"/>
<path d="M714.5 0L714.5 68" stroke="black" stroke-width="10"/>
<path opacity="0.2" d="M478.207 107.753C477.357 108.095 476.532 108.349 475.731 108.515C474.94 108.681 474.115 108.764 473.256 108.764C471.879 108.764 470.658 108.563 469.594 108.163C468.539 107.753 467.646 107.147 466.913 106.347C466.19 105.546 465.639 104.555 465.258 103.373C464.887 102.182 464.701 100.8 464.701 99.2275C464.701 97.6162 464.906 96.1855 465.316 94.9355C465.727 93.6758 466.312 92.6162 467.074 91.7568C467.836 90.8877 468.759 90.2285 469.843 89.7793C470.937 89.3203 472.162 89.0908 473.52 89.0908C473.959 89.0908 474.369 89.1006 474.75 89.1201C475.141 89.1396 475.521 89.1787 475.893 89.2373C476.264 89.2861 476.64 89.3545 477.021 89.4424C477.401 89.5303 477.797 89.6426 478.207 89.7793V93.3535C477.377 92.9629 476.586 92.6846 475.834 92.5186C475.082 92.3525 474.398 92.2695 473.783 92.2695C472.875 92.2695 472.099 92.4355 471.454 92.7676C470.81 93.0898 470.277 93.5488 469.857 94.1445C469.447 94.7305 469.145 95.4336 468.949 96.2539C468.754 97.0645 468.656 97.958 468.656 98.9346C468.656 99.9697 468.754 100.897 468.949 101.718C469.154 102.528 469.467 103.217 469.887 103.783C470.307 104.35 470.844 104.784 471.498 105.087C472.152 105.38 472.929 105.526 473.827 105.526C474.149 105.526 474.496 105.497 474.867 105.438C475.248 105.37 475.629 105.287 476.01 105.189C476.4 105.082 476.781 104.96 477.152 104.823C477.533 104.677 477.885 104.53 478.207 104.384V107.753Z" fill="black"/>
<path opacity="0.2" d="M359.086 189.914C359.867 190.695 361.133 190.695 361.914 189.914L374.642 177.186C375.423 176.405 375.423 175.139 374.642 174.358C373.861 173.577 372.595 173.577 371.814 174.358L360.5 185.672L349.186 174.358C348.405 173.577 347.139 173.577 346.358 174.358C345.577 175.139 345.577 176.405 346.358 177.186L359.086 189.914ZM358.5 122.5L358.5 188.5L362.5 188.5L362.5 122.5L358.5 122.5Z" fill="black"/>
<path opacity="0.2" d="M353.39 218V198.854H359.571C361.749 198.854 363.38 199.235 364.464 199.997C365.558 200.759 366.104 201.911 366.104 203.454C366.104 203.933 366.046 204.401 365.929 204.86C365.821 205.31 365.65 205.725 365.416 206.105C365.182 206.486 364.889 206.823 364.537 207.116C364.186 207.409 363.771 207.639 363.292 207.805C363.771 207.883 364.225 208.039 364.654 208.273C365.094 208.498 365.475 208.796 365.797 209.167C366.129 209.528 366.388 209.958 366.573 210.456C366.769 210.954 366.866 211.511 366.866 212.126C366.866 214.079 366.212 215.549 364.903 216.535C363.595 217.512 361.705 218 359.234 218H353.39ZM362.354 204.084C362.354 203.723 362.296 203.396 362.179 203.103C362.062 202.81 361.871 202.561 361.607 202.355C361.354 202.15 361.021 201.994 360.611 201.887C360.211 201.77 359.723 201.711 359.146 201.711H356.964V206.779H359.146C359.732 206.779 360.226 206.711 360.626 206.574C361.036 206.428 361.368 206.232 361.622 205.988C361.886 205.734 362.071 205.446 362.179 205.124C362.296 204.802 362.354 204.455 362.354 204.084ZM359.483 215.056C360.06 215.056 360.562 214.982 360.992 214.836C361.432 214.689 361.798 214.489 362.091 214.235C362.384 213.972 362.604 213.664 362.75 213.312C362.906 212.961 362.984 212.585 362.984 212.185C362.984 211.354 362.672 210.705 362.047 210.236C361.432 209.768 360.484 209.533 359.205 209.533H356.964V215.056H359.483Z" fill="black"/>
<path opacity="0.2" d="M168.586 391.914C169.367 392.695 170.633 392.695 171.414 391.914L184.142 379.186C184.923 378.405 184.923 377.139 184.142 376.358C183.361 375.577 182.095 375.577 181.314 376.358L170 387.672L158.686 376.358C157.905 375.577 156.639 375.577 155.858 376.358C155.077 377.139 155.077 378.405 155.858 379.186L168.586 391.914ZM168 324.5L168 390.5L172 390.5L172 324.5L168 324.5Z" fill="black"/>
<path opacity="0.2" d="M163.695 423V403.854H175.224V406.901H167.357V411.662H174.857V414.636H167.357V419.953H175.224V423H163.695Z" fill="black"/>
<path d="M270.086 98.0858C269.305 98.8668 269.305 100.133 270.086 100.914L282.814 113.642C283.595 114.423 284.861 114.423 285.642 113.642C286.423 112.861 286.423 111.595 285.642 110.814L274.328 99.5L285.642 88.1863C286.423 87.4052 286.423 86.1389 285.642 85.3579C284.861 84.5768 283.595 84.5768 282.814 85.3579L270.086 98.0858ZM337.5 97.5L271.5 97.5L271.5 101.5L337.5 101.5L337.5 97.5Z" fill="#00BD36"/>
<path d="M256.848 109.5H254.006L252.673 105.325H244.704L243.356 109.5H240.646L247.004 90.3545H250.578L256.848 109.5ZM251.926 102.996L248.688 92.7568L245.451 102.996H251.926Z" fill="#00BD36"/>
<path d="M71.5858 292.086C70.8047 292.867 70.8047 294.133 71.5858 294.914L84.3137 307.642C85.0948 308.423 86.3611 308.423 87.1421 307.642C87.9232 306.861 87.9232 305.595 87.1421 304.814L75.8284 293.5L87.1421 282.186C87.9232 281.405 87.9232 280.139 87.1421 279.358C86.3611 278.577 85.0948 278.577 84.3137 279.358L71.5858 292.086ZM139 291.5L73 291.5L73 295.5L139 295.5L139 291.5Z" fill="#00BD36"/>
<path d="M57.7178 293.686C57.7178 295.17 57.5322 296.518 57.1611 297.729C56.7998 298.939 56.2285 299.975 55.4473 300.834C54.6758 301.684 53.6846 302.343 52.4736 302.812C51.2627 303.271 49.8125 303.5 48.123 303.5H43.2598V284.354H48.9287C50.3936 284.354 51.6729 284.54 52.7666 284.911C53.8701 285.272 54.7881 285.834 55.5205 286.596C56.2529 287.357 56.7998 288.324 57.1611 289.496C57.5322 290.668 57.7178 292.064 57.7178 293.686ZM53.8506 293.92C53.8506 292.885 53.7676 291.962 53.6016 291.151C53.4355 290.341 53.1523 289.657 52.752 289.101C52.3613 288.534 51.834 288.104 51.1699 287.812C50.5059 287.519 49.6807 287.372 48.6943 287.372H46.8633V300.482H48.4453C50.2129 300.482 51.5557 299.955 52.4736 298.9C53.3916 297.846 53.8506 296.186 53.8506 293.92Z" fill="#00BD36"/>
<path d="M1163.5 99.5V4" stroke="#999999" stroke-width="2"/>
<path d="M972 99.5L1164.5 99.5" stroke="#999999" stroke-width="2"/>
<path d="M1130.5 47.5V69H938.5V261.5H861V197H804V325.5H938.5V447H1068.5V383H1004.5V129H1130.5V319.5H1254.5L1271 336" stroke="black" stroke-width="2"/>
<path d="M1130.5 39.5V6" stroke="black" stroke-width="2" stroke-dasharray="8 8"/>
<path d="M1192.5 39.5V6" stroke="black" stroke-width="2" stroke-dasharray="8 8"/>
<path d="M973 285V100" stroke="#999999" stroke-width="2"/>
<path opacity="0.2" d="M1253.91 100.914C1254.7 100.133 1254.7 98.8668 1253.91 98.0858L1241.19 85.3579C1240.41 84.5768 1239.14 84.5768 1238.36 85.3579C1237.58 86.1389 1237.58 87.4052 1238.36 88.1863L1249.67 99.5L1238.36 110.814C1237.58 111.595 1237.58 112.861 1238.36 113.642C1239.14 114.423 1240.41 114.423 1241.19 113.642L1253.91 100.914ZM1186.5 101.5L1252.5 101.5L1252.5 97.5L1186.5 97.5L1186.5 101.5Z" fill="black"/>
<path d="M1192.5 48V67H1325V1H1517V67H1397.5V129H1193V261.5H1257L1272.5 246" stroke="black" stroke-width="2"/>
<path d="M803 194.5H862" stroke="black" stroke-width="10"/>
<path d="M1068.5 382L1068.5 448" stroke="black" stroke-width="10"/>
<path d="M1517.5 0L1517.5 68" stroke="black" stroke-width="10"/>
<path d="M776.397 350.113C776.397 351.537 776.198 352.813 775.799 353.941C775.412 355.058 774.854 356.009 774.125 356.795C773.407 357.57 772.529 358.168 771.493 358.59C770.456 359 769.288 359.205 767.989 359.205C766.975 359.205 765.938 359.108 764.879 358.915C763.819 358.721 762.771 358.413 761.734 357.992V334.852H764.708V341.5L764.571 344.679C765.426 343.528 766.337 342.719 767.306 342.252C768.285 341.773 769.334 341.534 770.45 341.534C771.43 341.534 772.29 341.739 773.031 342.149C773.771 342.56 774.392 343.141 774.894 343.893C775.395 344.633 775.771 345.533 776.021 346.593C776.272 347.641 776.397 348.814 776.397 350.113ZM773.355 350.25C773.355 349.35 773.287 348.524 773.15 347.772C773.025 347.02 772.82 346.376 772.535 345.841C772.25 345.305 771.886 344.889 771.441 344.593C770.997 344.286 770.467 344.132 769.852 344.132C769.476 344.132 769.094 344.194 768.707 344.32C768.32 344.434 767.915 344.633 767.494 344.918C767.083 345.191 766.645 345.562 766.178 346.029C765.722 346.485 765.232 347.054 764.708 347.738V356.061C765.289 356.288 765.882 356.471 766.485 356.607C767.089 356.733 767.665 356.795 768.211 356.795C768.895 356.795 769.544 356.687 770.16 356.471C770.786 356.254 771.333 355.895 771.8 355.394C772.279 354.881 772.655 354.209 772.928 353.377C773.213 352.534 773.355 351.492 773.355 350.25ZM792 359L791.932 356.693C790.998 357.616 790.047 358.282 789.078 358.692C788.121 359.103 787.113 359.308 786.053 359.308C785.073 359.308 784.236 359.182 783.541 358.932C782.846 358.681 782.271 358.339 781.815 357.906C781.371 357.462 781.04 356.944 780.824 356.351C780.619 355.759 780.516 355.115 780.516 354.42C780.516 352.7 781.154 351.355 782.43 350.387C783.718 349.407 785.615 348.917 788.121 348.917H791.676V347.413C791.676 346.399 791.351 345.59 790.702 344.986C790.052 344.371 789.061 344.063 787.728 344.063C786.76 344.063 785.803 344.172 784.857 344.388C783.923 344.605 782.954 344.912 781.952 345.311V342.628C782.328 342.491 782.743 342.36 783.199 342.235C783.666 342.098 784.156 341.979 784.669 341.876C785.182 341.773 785.717 341.694 786.275 341.637C786.834 341.568 787.398 341.534 787.967 341.534C789.004 341.534 789.938 341.648 790.77 341.876C791.602 342.104 792.302 342.451 792.872 342.918C793.453 343.386 793.897 343.972 794.205 344.679C794.513 345.385 794.667 346.217 794.667 347.174V359H792ZM791.676 351.19H787.899C787.158 351.19 786.52 351.264 785.985 351.412C785.449 351.56 785.011 351.771 784.669 352.044C784.327 352.318 784.071 352.648 783.9 353.036C783.74 353.412 783.661 353.839 783.661 354.317C783.661 354.648 783.712 354.967 783.814 355.274C783.917 355.571 784.082 355.838 784.31 356.078C784.538 356.306 784.834 356.488 785.199 356.625C785.563 356.761 786.008 356.83 786.532 356.83C787.215 356.83 787.996 356.625 788.873 356.214C789.762 355.793 790.696 355.132 791.676 354.232V351.19ZM813.551 358.368C812.776 358.664 811.979 358.88 811.158 359.017C810.349 359.165 809.512 359.239 808.646 359.239C805.934 359.239 803.844 358.504 802.374 357.035C800.916 355.565 800.187 353.417 800.187 350.592C800.187 349.236 800.397 348.006 800.819 346.9C801.24 345.795 801.833 344.85 802.596 344.063C803.36 343.277 804.271 342.674 805.331 342.252C806.39 341.819 807.558 341.603 808.834 341.603C809.723 341.603 810.554 341.665 811.329 341.791C812.104 341.916 812.844 342.121 813.551 342.406V345.243C812.81 344.855 812.053 344.576 811.278 344.405C810.514 344.223 809.723 344.132 808.902 344.132C808.139 344.132 807.416 344.28 806.732 344.576C806.06 344.861 805.467 345.277 804.955 345.824C804.442 346.371 804.037 347.037 803.741 347.823C803.445 348.609 803.297 349.498 803.297 350.489C803.297 352.563 803.798 354.118 804.801 355.155C805.815 356.18 807.216 356.693 809.005 356.693C809.814 356.693 810.594 356.602 811.346 356.419C812.11 356.237 812.844 355.964 813.551 355.599V358.368ZM834.896 359H830.812L822.813 349.806V359H819.84V334.852H822.813V349.686L830.521 341.842H834.452L826.402 349.754L834.896 359ZM852.533 358.761C851.861 358.932 851.166 359.051 850.448 359.12C849.73 359.199 849.001 359.239 848.26 359.239C846.107 359.239 844.5 358.755 843.441 357.787C842.381 356.807 841.852 355.309 841.852 353.292V344.337H837.049V341.842H841.852V337.125L844.825 336.356V341.842H852.533V344.337H844.825V353.053C844.825 354.283 845.15 355.206 845.799 355.821C846.46 356.425 847.429 356.727 848.705 356.727C849.251 356.727 849.85 356.687 850.499 356.607C851.148 356.516 851.826 356.38 852.533 356.197V358.761ZM858.651 341.842H861.368L861.454 345.003C862.468 343.784 863.465 342.901 864.444 342.354C865.436 341.808 866.432 341.534 867.435 341.534C869.212 341.534 870.557 342.11 871.468 343.26C872.391 344.411 872.818 346.12 872.75 348.387H869.742C869.776 346.883 869.554 345.795 869.076 345.123C868.609 344.439 867.919 344.098 867.008 344.098C866.609 344.098 866.205 344.172 865.794 344.32C865.396 344.457 864.98 344.684 864.547 345.003C864.125 345.311 863.675 345.71 863.197 346.2C862.718 346.69 862.206 347.282 861.659 347.977V359H858.651V341.842ZM888.216 359L888.148 356.693C887.214 357.616 886.262 358.282 885.294 358.692C884.337 359.103 883.329 359.308 882.269 359.308C881.289 359.308 880.452 359.182 879.757 358.932C879.062 358.681 878.486 358.339 878.031 357.906C877.586 357.462 877.256 356.944 877.04 356.351C876.834 355.759 876.732 355.115 876.732 354.42C876.732 352.7 877.37 351.355 878.646 350.387C879.933 349.407 881.83 348.917 884.337 348.917H887.892V347.413C887.892 346.399 887.567 345.59 886.917 344.986C886.268 344.371 885.277 344.063 883.944 344.063C882.975 344.063 882.018 344.172 881.073 344.388C880.139 344.605 879.17 344.912 878.167 345.311V342.628C878.543 342.491 878.959 342.36 879.415 342.235C879.882 342.098 880.372 341.979 880.885 341.876C881.397 341.773 881.933 341.694 882.491 341.637C883.049 341.568 883.613 341.534 884.183 341.534C885.22 341.534 886.154 341.648 886.986 341.876C887.818 342.104 888.518 342.451 889.088 342.918C889.669 343.386 890.113 343.972 890.421 344.679C890.729 345.385 890.882 346.217 890.882 347.174V359H888.216ZM887.892 351.19H884.115C883.374 351.19 882.736 351.264 882.201 351.412C881.665 351.56 881.227 351.771 880.885 352.044C880.543 352.318 880.287 352.648 880.116 353.036C879.956 353.412 879.876 353.839 879.876 354.317C879.876 354.648 879.928 354.967 880.03 355.274C880.133 355.571 880.298 355.838 880.526 356.078C880.754 356.306 881.05 356.488 881.415 356.625C881.779 356.761 882.223 356.83 882.748 356.83C883.431 356.83 884.212 356.625 885.089 356.214C885.978 355.793 886.912 355.132 887.892 354.232V351.19ZM909.767 358.368C908.992 358.664 908.194 358.88 907.374 359.017C906.565 359.165 905.728 359.239 904.862 359.239C902.15 359.239 900.06 358.504 898.59 357.035C897.132 355.565 896.402 353.417 896.402 350.592C896.402 349.236 896.613 348.006 897.035 346.9C897.456 345.795 898.049 344.85 898.812 344.063C899.575 343.277 900.487 342.674 901.546 342.252C902.606 341.819 903.774 341.603 905.05 341.603C905.938 341.603 906.77 341.665 907.545 341.791C908.32 341.916 909.06 342.121 909.767 342.406V345.243C909.026 344.855 908.268 344.576 907.494 344.405C906.73 344.223 905.938 344.132 905.118 344.132C904.355 344.132 903.631 344.28 902.948 344.576C902.276 344.861 901.683 345.277 901.17 345.824C900.658 346.371 900.253 347.037 899.957 347.823C899.661 348.609 899.513 349.498 899.513 350.489C899.513 352.563 900.014 354.118 901.017 355.155C902.031 356.18 903.432 356.693 905.221 356.693C906.03 356.693 906.81 356.602 907.562 356.419C908.325 356.237 909.06 355.964 909.767 355.599V358.368ZM931.112 359H927.027L919.029 349.806V359H916.056V334.852H919.029V349.686L926.737 341.842H930.667L922.618 349.754L931.112 359Z" fill="#00B2FF"/>
<path opacity="0.2" d="M1281.21 107.753C1280.36 108.095 1279.53 108.349 1278.73 108.515C1277.94 108.681 1277.12 108.764 1276.26 108.764C1274.88 108.764 1273.66 108.563 1272.59 108.163C1271.54 107.753 1270.65 107.147 1269.91 106.347C1269.19 105.546 1268.64 104.555 1268.26 103.373C1267.89 102.182 1267.7 100.8 1267.7 99.2275C1267.7 97.6162 1267.91 96.1855 1268.32 94.9355C1268.73 93.6758 1269.31 92.6162 1270.07 91.7568C1270.84 90.8877 1271.76 90.2285 1272.84 89.7793C1273.94 89.3203 1275.16 89.0908 1276.52 89.0908C1276.96 89.0908 1277.37 89.1006 1277.75 89.1201C1278.14 89.1396 1278.52 89.1787 1278.89 89.2373C1279.26 89.2861 1279.64 89.3545 1280.02 89.4424C1280.4 89.5303 1280.8 89.6426 1281.21 89.7793V93.3535C1280.38 92.9629 1279.59 92.6846 1278.83 92.5186C1278.08 92.3525 1277.4 92.2695 1276.78 92.2695C1275.88 92.2695 1275.1 92.4355 1274.45 92.7676C1273.81 93.0898 1273.28 93.5488 1272.86 94.1445C1272.45 94.7305 1272.14 95.4336 1271.95 96.2539C1271.75 97.0645 1271.66 97.958 1271.66 98.9346C1271.66 99.9697 1271.75 100.897 1271.95 101.718C1272.15 102.528 1272.47 103.217 1272.89 103.783C1273.31 104.35 1273.84 104.784 1274.5 105.087C1275.15 105.38 1275.93 105.526 1276.83 105.526C1277.15 105.526 1277.5 105.497 1277.87 105.438C1278.25 105.37 1278.63 105.287 1279.01 105.189C1279.4 105.082 1279.78 104.96 1280.15 104.823C1280.53 104.677 1280.88 104.53 1281.21 104.384V107.753Z" fill="black"/>
<path opacity="0.2" d="M1162.09 189.914C1162.87 190.695 1164.13 190.695 1164.91 189.914L1177.64 177.186C1178.42 176.405 1178.42 175.139 1177.64 174.358C1176.86 173.577 1175.59 173.577 1174.81 174.358L1163.5 185.672L1152.19 174.358C1151.41 173.577 1150.14 173.577 1149.36 174.358C1148.58 175.139 1148.58 176.405 1149.36 177.186L1162.09 189.914ZM1161.5 122.5L1161.5 188.5L1165.5 188.5L1165.5 122.5L1161.5 122.5Z" fill="black"/>
<path opacity="0.2" d="M1156.39 218V198.854H1162.57C1164.75 198.854 1166.38 199.235 1167.46 199.997C1168.56 200.759 1169.1 201.911 1169.1 203.454C1169.1 203.933 1169.05 204.401 1168.93 204.86C1168.82 205.31 1168.65 205.725 1168.42 206.105C1168.18 206.486 1167.89 206.823 1167.54 207.116C1167.19 207.409 1166.77 207.639 1166.29 207.805C1166.77 207.883 1167.22 208.039 1167.65 208.273C1168.09 208.498 1168.47 208.796 1168.8 209.167C1169.13 209.528 1169.39 209.958 1169.57 210.456C1169.77 210.954 1169.87 211.511 1169.87 212.126C1169.87 214.079 1169.21 215.549 1167.9 216.535C1166.59 217.512 1164.71 218 1162.23 218H1156.39ZM1165.35 204.084C1165.35 203.723 1165.3 203.396 1165.18 203.103C1165.06 202.81 1164.87 202.561 1164.61 202.355C1164.35 202.15 1164.02 201.994 1163.61 201.887C1163.21 201.77 1162.72 201.711 1162.15 201.711H1159.96V206.779H1162.15C1162.73 206.779 1163.23 206.711 1163.63 206.574C1164.04 206.428 1164.37 206.232 1164.62 205.988C1164.89 205.734 1165.07 205.446 1165.18 205.124C1165.3 204.802 1165.35 204.455 1165.35 204.084ZM1162.48 215.056C1163.06 215.056 1163.56 214.982 1163.99 214.836C1164.43 214.689 1164.8 214.489 1165.09 214.235C1165.38 213.972 1165.6 213.664 1165.75 213.312C1165.91 212.961 1165.98 212.585 1165.98 212.185C1165.98 211.354 1165.67 210.705 1165.05 210.236C1164.43 209.768 1163.48 209.533 1162.21 209.533H1159.96V215.056H1162.48Z" fill="black"/>
<path d="M971.586 391.914C972.367 392.695 973.633 392.695 974.414 391.914L987.142 379.186C987.923 378.405 987.923 377.139 987.142 376.358C986.361 375.577 985.095 375.577 984.314 376.358L973 387.672L961.686 376.358C960.905 375.577 959.639 375.577 958.858 376.358C958.077 377.139 958.077 378.405 958.858 379.186L971.586 391.914ZM971 324.5L971 390.5L975 390.5L975 324.5L971 324.5Z" fill="#FF5500"/>
<path d="M966.695 423V403.854H978.224V406.901H970.357V411.662H977.857V414.636H970.357V419.953H978.224V423H966.695Z" fill="#FF5500"/>
<path d="M1073.09 98.0858C1072.3 98.8668 1072.3 100.133 1073.09 100.914L1085.81 113.642C1086.59 114.423 1087.86 114.423 1088.64 113.642C1089.42 112.861 1089.42 111.595 1088.64 110.814L1077.33 99.5L1088.64 88.1863C1089.42 87.4052 1089.42 86.1389 1088.64 85.3579C1087.86 84.5768 1086.59 84.5768 1085.81 85.3579L1073.09 98.0858ZM1140.5 97.5L1074.5 97.5L1074.5 101.5L1140.5 101.5L1140.5 97.5Z" fill="#00BD36"/>
<path d="M1059.85 109.5H1057.01L1055.67 105.325H1047.7L1046.36 109.5H1043.65L1050 90.3545H1053.58L1059.85 109.5ZM1054.93 102.996L1051.69 92.7568L1048.45 102.996H1054.93Z" fill="#00BD36"/>
<circle cx="973" cy="293.5" r="8" fill="#E6E6E6" stroke="#999999" stroke-width="2"/>
<circle cx="30" cy="215" r="8" fill="#E6E6E6" stroke="#999999" stroke-width="2"/>
</g>
<defs>
<clipPath id="clip0_6292_3317">
<rect width="1524" height="448" fill="white"/>
</clipPath>
</defs>
</svg>
