<svg width="625" height="227" viewBox="0 0 625 227" fill="none" xmlns="http://www.w3.org/2000/svg">
<rect width="625" height="227" fill="white"/>
<rect x="1" y="111" width="250" height="114" rx="12" fill="#F4F4F4"/>
<rect x="1" y="111" width="250" height="114" rx="12" stroke="black" stroke-width="1.2" stroke-dasharray="6 6"/>
<path d="M20.672 142V130.32H23.376L24.448 134C24.5653 134.384 24.6507 134.72 24.704 135.008C24.768 135.296 24.8053 135.499 24.816 135.616C24.8267 135.499 24.8587 135.296 24.912 135.008C24.976 134.72 25.0613 134.384 25.168 134L26.224 130.32H28.928V142H26.736V138.8C26.736 138.213 26.7467 137.6 26.768 136.96C26.8 136.309 26.8373 135.664 26.88 135.024C26.9227 134.384 26.9707 133.787 27.024 133.232C27.0773 132.667 27.1253 132.176 27.168 131.76L25.824 137.04H23.792L22.384 131.76C22.4373 132.155 22.4907 132.629 22.544 133.184C22.5973 133.728 22.6453 134.32 22.688 134.96C22.7413 135.589 22.784 136.235 22.816 136.896C22.848 137.557 22.864 138.192 22.864 138.8V142H20.672ZM32.4578 142.16C31.5724 142.16 30.8684 141.92 30.3457 141.44C29.8337 140.96 29.5777 140.309 29.5777 139.488C29.5777 138.603 29.8817 137.925 30.4897 137.456C31.1084 136.976 31.9937 136.736 33.1458 136.736H34.9697V136.08C34.9697 135.739 34.8471 135.467 34.6017 135.264C34.3671 135.061 34.0471 134.96 33.6417 134.96C33.2684 134.96 32.9591 135.045 32.7137 135.216C32.4684 135.387 32.3191 135.621 32.2657 135.92H29.9457C30.0417 135.035 30.4257 134.336 31.0977 133.824C31.7804 133.301 32.6551 133.04 33.7218 133.04C34.8418 133.04 35.7271 133.317 36.3778 133.872C37.0391 134.416 37.3698 135.152 37.3698 136.08V142H35.0498V140.56H34.6658L35.0658 140C35.0658 140.661 34.8258 141.189 34.3457 141.584C33.8764 141.968 33.2471 142.16 32.4578 142.16ZM33.3538 140.4C33.8231 140.4 34.2071 140.277 34.5058 140.032C34.8151 139.776 34.9697 139.445 34.9697 139.04V138.096H33.1937C32.8311 138.096 32.5378 138.203 32.3138 138.416C32.0898 138.619 31.9778 138.891 31.9778 139.232C31.9778 139.595 32.1004 139.883 32.3458 140.096C32.5911 140.299 32.9271 140.4 33.3538 140.4ZM43.3475 142C42.4515 142 41.7475 141.744 41.2355 141.232C40.7235 140.72 40.4675 140.016 40.4675 139.12V135.36H38.1475V133.2H40.4675V130.72H42.8675V133.2H46.1475V135.36H42.8675V139.12C42.8675 139.6 43.1075 139.84 43.5875 139.84H45.9875V142H43.3475ZM47.4373 142V130.32H49.8373V133.2L49.7573 134.88H50.4613L49.7573 135.44C49.7573 134.693 49.9706 134.107 50.3973 133.68C50.8239 133.253 51.3999 133.04 52.1253 133.04C52.9786 133.04 53.6613 133.339 54.1733 133.936C54.6959 134.533 54.9573 135.328 54.9573 136.32V142H52.5573V136.56C52.5573 136.101 52.4346 135.749 52.1893 135.504C51.9546 135.248 51.6186 135.12 51.1813 135.12C50.7546 135.12 50.4239 135.248 50.1893 135.504C49.9546 135.749 49.8373 136.101 49.8373 136.56V142H47.4373ZM22.24 158.504V156.936H27.36V158.504H22.24ZM38.9315 163V151.32H42.5955C43.3315 151.32 43.9715 151.464 44.5155 151.752C45.0595 152.029 45.4808 152.424 45.7795 152.936C46.0888 153.448 46.2435 154.051 46.2435 154.744C46.2435 155.523 46.0408 156.2 45.6355 156.776C45.2408 157.341 44.7022 157.741 44.0195 157.976L46.4035 163H44.4355L42.3075 158.2H40.6595V163H38.9315ZM40.6595 156.68H42.5955C43.1715 156.68 43.6302 156.509 43.9715 156.168C44.3128 155.816 44.4835 155.352 44.4835 154.776C44.4835 154.179 44.3128 153.709 43.9715 153.368C43.6302 153.027 43.1715 152.856 42.5955 152.856H40.6595V156.68ZM51.1813 163.16C50.4666 163.16 49.8373 163.021 49.2933 162.744C48.7599 162.456 48.3493 162.056 48.0613 161.544C47.7733 161.032 47.6293 160.435 47.6293 159.752V157.448C47.6293 156.755 47.7733 156.157 48.0613 155.656C48.3493 155.144 48.7599 154.749 49.2933 154.472C49.8373 154.184 50.4666 154.04 51.1813 154.04C51.9066 154.04 52.5359 154.184 53.0693 154.472C53.6026 154.749 54.0133 155.144 54.3013 155.656C54.5893 156.157 54.7333 156.755 54.7333 157.448V159.016H49.2933V159.752C49.2933 160.403 49.4533 160.899 49.7733 161.24C50.1039 161.581 50.5786 161.752 51.1973 161.752C51.6986 161.752 52.1039 161.667 52.4133 161.496C52.7226 161.315 52.9146 161.053 52.9893 160.712H54.7013C54.5733 161.459 54.1893 162.056 53.5493 162.504C52.9093 162.941 52.1199 163.16 51.1813 163.16ZM53.0693 157.976V157.432C53.0693 156.792 52.9093 156.296 52.5893 155.944C52.2693 155.592 51.7999 155.416 51.1813 155.416C50.5733 155.416 50.1039 155.592 49.7733 155.944C49.4533 156.296 49.2933 156.797 49.2933 157.448V157.848L53.1973 157.832L53.0693 157.976ZM58.839 163L55.927 154.2H57.687L59.495 159.832C59.6123 160.163 59.7137 160.499 59.799 160.84C59.895 161.171 59.9643 161.432 60.007 161.624C60.0603 161.432 60.1297 161.171 60.215 160.84C60.311 160.499 60.407 160.163 60.503 159.832L62.279 154.2H64.023L61.111 163H58.839ZM68.7688 163.16C68.0541 163.16 67.4248 163.021 66.8808 162.744C66.3474 162.456 65.9368 162.056 65.6488 161.544C65.3608 161.032 65.2168 160.435 65.2168 159.752V157.448C65.2168 156.755 65.3608 156.157 65.6488 155.656C65.9368 155.144 66.3474 154.749 66.8808 154.472C67.4248 154.184 68.0541 154.04 68.7688 154.04C69.4941 154.04 70.1234 154.184 70.6568 154.472C71.1901 154.749 71.6008 155.144 71.8888 155.656C72.1768 156.157 72.3208 156.755 72.3208 157.448V159.016H66.8808V159.752C66.8808 160.403 67.0408 160.899 67.3608 161.24C67.6914 161.581 68.1661 161.752 68.7848 161.752C69.2861 161.752 69.6914 161.667 70.0008 161.496C70.3101 161.315 70.5021 161.053 70.5768 160.712H72.2888C72.1608 161.459 71.7768 162.056 71.1368 162.504C70.4968 162.941 69.7074 163.16 68.7688 163.16ZM70.6568 157.976V157.432C70.6568 156.792 70.4968 156.296 70.1768 155.944C69.8568 155.592 69.3874 155.416 68.7688 155.416C68.1608 155.416 67.6914 155.592 67.3608 155.944C67.0408 156.296 66.8808 156.797 66.8808 157.448V157.848L70.7848 157.832L70.6568 157.976ZM74.3945 163V154.2H76.0585V155.88H76.4745L75.9465 156.92C75.9465 155.971 76.1545 155.256 76.5705 154.776C76.9865 154.285 77.6052 154.04 78.4265 154.04C79.3652 154.04 80.1065 154.333 80.6505 154.92C81.2052 155.496 81.4825 156.291 81.4825 157.304V157.896H79.7065V157.448C79.7065 156.819 79.5465 156.339 79.2265 156.008C78.9172 155.667 78.4798 155.496 77.9145 155.496C77.3492 155.496 76.9065 155.667 76.5865 156.008C76.2772 156.349 76.1225 156.829 76.1225 157.448V163H74.3945ZM86.0523 163.144C85.4229 163.144 84.8683 163.043 84.3883 162.84C83.9189 162.637 83.5456 162.36 83.2683 162.008C83.0016 161.645 82.8469 161.219 82.8043 160.728H84.5323C84.5749 161.016 84.7296 161.251 84.9963 161.432C85.2629 161.603 85.6149 161.688 86.0523 161.688H86.7403C87.2629 161.688 87.6576 161.581 87.9243 161.368C88.1909 161.155 88.3243 160.872 88.3243 160.52C88.3243 160.179 88.2016 159.912 87.9563 159.72C87.7216 159.517 87.3696 159.384 86.9003 159.32L85.7643 159.144C84.8256 158.995 84.1323 158.728 83.6843 158.344C83.2469 157.949 83.0283 157.368 83.0283 156.6C83.0283 155.789 83.2896 155.165 83.8123 154.728C84.3456 154.28 85.1296 154.056 86.1643 154.056H86.7723C87.6896 154.056 88.4203 154.269 88.9643 154.696C89.5189 155.112 89.8336 155.672 89.9083 156.376H88.1803C88.1376 156.12 87.9936 155.912 87.7483 155.752C87.5136 155.592 87.1883 155.512 86.7723 155.512H86.1643C85.6629 155.512 85.2949 155.608 85.0603 155.8C84.8363 155.981 84.7243 156.253 84.7243 156.616C84.7243 156.936 84.8256 157.176 85.0283 157.336C85.2309 157.496 85.5456 157.608 85.9723 157.672L87.1403 157.864C88.1323 158.003 88.8576 158.28 89.3163 158.696C89.7856 159.101 90.0203 159.693 90.0203 160.472C90.0203 161.315 89.7429 161.971 89.1883 162.44C88.6443 162.909 87.8283 163.144 86.7403 163.144H86.0523ZM95.15 163.16C94.4353 163.16 93.806 163.021 93.262 162.744C92.7287 162.456 92.318 162.056 92.03 161.544C91.742 161.032 91.598 160.435 91.598 159.752V157.448C91.598 156.755 91.742 156.157 92.03 155.656C92.318 155.144 92.7287 154.749 93.262 154.472C93.806 154.184 94.4353 154.04 95.15 154.04C95.8753 154.04 96.5047 154.184 97.038 154.472C97.5713 154.749 97.982 155.144 98.27 155.656C98.558 156.157 98.702 156.755 98.702 157.448V159.016H93.262V159.752C93.262 160.403 93.422 160.899 93.742 161.24C94.0727 161.581 94.5473 161.752 95.166 161.752C95.6673 161.752 96.0727 161.667 96.382 161.496C96.6913 161.315 96.8833 161.053 96.958 160.712H98.67C98.542 161.459 98.158 162.056 97.518 162.504C96.878 162.941 96.0887 163.16 95.15 163.16ZM97.038 157.976V157.432C97.038 156.792 96.878 156.296 96.558 155.944C96.238 155.592 95.7687 155.416 95.15 155.416C94.542 155.416 94.0727 155.592 93.742 155.944C93.422 156.296 93.262 156.797 93.262 157.448V157.848L97.166 157.832L97.038 157.976ZM112.594 163.16C111.858 163.16 111.218 163.021 110.674 162.744C110.13 162.467 109.708 162.077 109.41 161.576C109.122 161.064 108.978 160.472 108.978 159.8H110.706C110.706 160.387 110.871 160.845 111.202 161.176C111.543 161.507 112.012 161.672 112.61 161.672C113.218 161.672 113.687 161.501 114.018 161.16C114.348 160.819 114.514 160.365 114.514 159.8V158.936C114.514 158.339 114.348 157.88 114.018 157.56C113.687 157.229 113.218 157.064 112.61 157.064H111.362V155.432L114.082 152.84H109.474V151.32H115.842V152.952L112.626 155.976V155.56C113.735 155.56 114.615 155.864 115.266 156.472C115.916 157.08 116.242 157.896 116.242 158.92V159.8C116.242 160.472 116.092 161.064 115.794 161.576C115.495 162.077 115.068 162.467 114.514 162.744C113.97 163.021 113.33 163.16 112.594 163.16ZM118.091 163V161.288L121.707 157.56C122.262 156.984 122.667 156.467 122.923 156.008C123.19 155.539 123.323 155.075 123.323 154.616C123.323 154.019 123.158 153.549 122.827 153.208C122.507 152.867 122.065 152.696 121.499 152.696C120.881 152.696 120.39 152.877 120.027 153.24C119.675 153.592 119.499 154.077 119.499 154.696H117.771C117.793 153.971 117.958 153.347 118.267 152.824C118.577 152.291 119.009 151.88 119.563 151.592C120.118 151.304 120.769 151.16 121.515 151.16C122.23 151.16 122.854 151.299 123.387 151.576C123.921 151.853 124.331 152.243 124.619 152.744C124.907 153.245 125.051 153.837 125.051 154.52C125.051 155.213 124.87 155.891 124.507 156.552C124.155 157.213 123.574 157.949 122.763 158.76L120.123 161.432H125.227V163H118.091ZM127.765 158.504V156.936H132.885V158.504H127.765ZM139.743 163.16C139.017 163.16 138.441 162.963 138.015 162.568C137.588 162.163 137.375 161.613 137.375 160.92L137.743 161.32H137.375V163H135.663V151.32H137.391V153.832L137.343 155.88H137.743L137.375 156.28C137.375 155.587 137.588 155.043 138.015 154.648C138.452 154.243 139.028 154.04 139.743 154.04C140.628 154.04 141.337 154.339 141.871 154.936C142.404 155.533 142.671 156.344 142.671 157.368V159.848C142.671 160.861 142.404 161.667 141.871 162.264C141.337 162.861 140.628 163.16 139.743 163.16ZM139.151 161.656C139.716 161.656 140.159 161.496 140.479 161.176C140.799 160.845 140.959 160.371 140.959 159.752V157.448C140.959 156.829 140.799 156.36 140.479 156.04C140.159 155.709 139.716 155.544 139.151 155.544C138.607 155.544 138.175 155.715 137.855 156.056C137.545 156.387 137.391 156.851 137.391 157.448V159.752C137.391 160.349 137.545 160.819 137.855 161.16C138.175 161.491 138.607 161.656 139.151 161.656ZM144.409 163V161.432H147.497V155.768H144.809V154.2H149.177V161.432H152.009V163H144.409ZM148.169 152.68C147.795 152.68 147.497 152.584 147.273 152.392C147.049 152.189 146.937 151.923 146.937 151.592C146.937 151.251 147.049 150.984 147.273 150.792C147.497 150.589 147.795 150.488 148.169 150.488C148.542 150.488 148.841 150.589 149.065 150.792C149.289 150.984 149.401 151.251 149.401 151.592C149.401 151.923 149.289 152.189 149.065 152.392C148.841 152.584 148.542 152.68 148.169 152.68ZM157.666 163C156.866 163 156.242 162.781 155.794 162.344C155.346 161.907 155.122 161.299 155.122 160.52V155.768H152.69V154.2H155.122V151.72H156.85V154.2H160.29V155.768H156.85V160.52C156.85 161.128 157.144 161.432 157.73 161.432H160.13V163H157.666ZM171.062 163V161.464H173.414V152.856H171.062V151.32H177.526V152.856H175.174V161.464H177.526V163H171.062ZM179.632 163V154.2H181.344V155.88H181.76L181.344 156.28C181.344 155.576 181.552 155.027 181.968 154.632C182.384 154.237 182.96 154.04 183.696 154.04C184.57 154.04 185.269 154.323 185.792 154.888C186.314 155.443 186.576 156.195 186.576 157.144V163H184.848V157.336C184.848 156.76 184.693 156.317 184.384 156.008C184.074 155.699 183.653 155.544 183.12 155.544C182.576 155.544 182.144 155.709 181.824 156.04C181.514 156.36 181.36 156.829 181.36 157.448V163H179.632ZM192.841 163C192.041 163 191.417 162.781 190.969 162.344C190.521 161.907 190.297 161.299 190.297 160.52V155.768H187.865V154.2H190.297V151.72H192.025V154.2H195.465V155.768H192.025V160.52C192.025 161.128 192.319 161.432 192.905 161.432H195.305V163H192.841ZM200.675 163.16C199.96 163.16 199.331 163.021 198.787 162.744C198.254 162.456 197.843 162.056 197.555 161.544C197.267 161.032 197.123 160.435 197.123 159.752V157.448C197.123 156.755 197.267 156.157 197.555 155.656C197.843 155.144 198.254 154.749 198.787 154.472C199.331 154.184 199.96 154.04 200.675 154.04C201.4 154.04 202.03 154.184 202.563 154.472C203.096 154.749 203.507 155.144 203.795 155.656C204.083 156.157 204.227 156.755 204.227 157.448V159.016H198.787V159.752C198.787 160.403 198.947 160.899 199.267 161.24C199.598 161.581 200.072 161.752 200.691 161.752C201.192 161.752 201.598 161.667 201.907 161.496C202.216 161.315 202.408 161.053 202.483 160.712H204.195C204.067 161.459 203.683 162.056 203.043 162.504C202.403 162.941 201.614 163.16 200.675 163.16ZM202.563 157.976V157.432C202.563 156.792 202.403 156.296 202.083 155.944C201.763 155.592 201.294 155.416 200.675 155.416C200.067 155.416 199.598 155.592 199.267 155.944C198.947 156.296 198.787 156.797 198.787 157.448V157.848L202.691 157.832L202.563 157.976ZM207.165 165.88V164.392H209.869C210.317 164.392 210.647 164.285 210.861 164.072C211.085 163.859 211.197 163.544 211.197 163.128V162.248L211.229 160.616H210.861L211.213 160.296C211.213 160.968 210.999 161.496 210.573 161.88C210.157 162.264 209.591 162.456 208.877 162.456C207.97 162.456 207.255 162.157 206.733 161.56C206.21 160.963 205.949 160.157 205.949 159.144V157.352C205.949 156.339 206.21 155.533 206.733 154.936C207.255 154.339 207.97 154.04 208.877 154.04C209.591 154.04 210.157 154.237 210.573 154.632C210.999 155.016 211.213 155.544 211.213 156.216L210.861 155.88H211.213L211.197 154.2H212.909V163.16C212.909 164.003 212.642 164.664 212.109 165.144C211.575 165.635 210.834 165.88 209.885 165.88H207.165ZM209.437 160.968C209.981 160.968 210.407 160.803 210.717 160.472C211.037 160.131 211.197 159.661 211.197 159.064V157.448C211.197 156.851 211.037 156.387 210.717 156.056C210.407 155.715 209.981 155.544 209.437 155.544C208.871 155.544 208.434 155.709 208.125 156.04C207.826 156.36 207.677 156.829 207.677 157.448V159.064C207.677 159.672 207.826 160.141 208.125 160.472C208.434 160.803 208.871 160.968 209.437 160.968ZM218.262 163.16C217.548 163.16 216.918 163.021 216.374 162.744C215.841 162.456 215.43 162.056 215.142 161.544C214.854 161.032 214.71 160.435 214.71 159.752V157.448C214.71 156.755 214.854 156.157 215.142 155.656C215.43 155.144 215.841 154.749 216.374 154.472C216.918 154.184 217.548 154.04 218.262 154.04C218.988 154.04 219.617 154.184 220.15 154.472C220.684 154.749 221.094 155.144 221.382 155.656C221.67 156.157 221.814 156.755 221.814 157.448V159.016H216.374V159.752C216.374 160.403 216.534 160.899 216.854 161.24C217.185 161.581 217.66 161.752 218.278 161.752C218.78 161.752 219.185 161.667 219.494 161.496C219.804 161.315 219.996 161.053 220.07 160.712H221.782C221.654 161.459 221.27 162.056 220.63 162.504C219.99 162.941 219.201 163.16 218.262 163.16ZM220.15 157.976V157.432C220.15 156.792 219.99 156.296 219.67 155.944C219.35 155.592 218.881 155.416 218.262 155.416C217.654 155.416 217.185 155.592 216.854 155.944C216.534 156.296 216.374 156.797 216.374 157.448V157.848L220.278 157.832L220.15 157.976ZM223.888 163V154.2H225.552V155.88H225.968L225.44 156.92C225.44 155.971 225.648 155.256 226.064 154.776C226.48 154.285 227.099 154.04 227.92 154.04C228.859 154.04 229.6 154.333 230.144 154.92C230.699 155.496 230.976 156.291 230.976 157.304V157.896H229.2V157.448C229.2 156.819 229.04 156.339 228.72 156.008C228.411 155.667 227.974 155.496 227.408 155.496C226.843 155.496 226.4 155.667 226.08 156.008C225.771 156.349 225.616 156.829 225.616 157.448V163H223.888ZM22.24 179.504V177.936H27.36V179.504H22.24ZM41.5235 184V173.904H38.4035V172.304H46.3715V173.904H43.2515V184H41.5235ZM47.7253 184V172.32H49.4533V175.2L49.4373 176.88H49.8533L49.4373 177.28C49.4373 176.576 49.6453 176.027 50.0613 175.632C50.4773 175.237 51.0533 175.04 51.7893 175.04C52.6639 175.04 53.3626 175.323 53.8853 175.888C54.4079 176.443 54.6693 177.195 54.6693 178.144V184H52.9413V178.336C52.9413 177.76 52.7866 177.312 52.4773 176.992C52.1679 176.672 51.7466 176.512 51.2133 176.512C50.6693 176.512 50.2373 176.683 49.9173 177.024C49.6079 177.355 49.4533 177.829 49.4533 178.448V184H47.7253ZM59.975 184.16C59.2603 184.16 58.631 184.021 58.087 183.744C57.5537 183.456 57.143 183.056 56.855 182.544C56.567 182.032 56.423 181.435 56.423 180.752V178.448C56.423 177.755 56.567 177.157 56.855 176.656C57.143 176.144 57.5537 175.749 58.087 175.472C58.631 175.184 59.2603 175.04 59.975 175.04C60.7003 175.04 61.3297 175.184 61.863 175.472C62.3963 175.749 62.807 176.144 63.095 176.656C63.383 177.157 63.527 177.755 63.527 178.448V180.016H58.087V180.752C58.087 181.403 58.247 181.899 58.567 182.24C58.8977 182.581 59.3723 182.752 59.991 182.752C60.4923 182.752 60.8977 182.667 61.207 182.496C61.5163 182.315 61.7083 182.053 61.783 181.712H63.495C63.367 182.459 62.983 183.056 62.343 183.504C61.703 183.941 60.9137 184.16 59.975 184.16ZM61.863 178.976V178.432C61.863 177.792 61.703 177.296 61.383 176.944C61.063 176.592 60.5937 176.416 59.975 176.416C59.367 176.416 58.8977 176.592 58.567 176.944C58.247 177.296 58.087 177.797 58.087 178.448V178.848L61.991 178.832L61.863 178.976ZM77.0825 184.16C75.9305 184.16 75.0238 183.84 74.3625 183.2C73.7012 182.56 73.3705 181.691 73.3705 180.592H75.0825C75.0825 181.243 75.2585 181.749 75.6105 182.112C75.9625 182.464 76.4532 182.64 77.0825 182.64C77.7118 182.64 78.2025 182.464 78.5545 182.112C78.9065 181.749 79.0825 181.248 79.0825 180.608V173.904H76.3305V172.32H80.7945V180.608C80.7945 181.707 80.4585 182.576 79.7865 183.216C79.1252 183.845 78.2238 184.16 77.0825 184.16ZM86.3563 184.144C85.6309 184.144 85.0016 184.005 84.4683 183.728C83.9349 183.451 83.5243 183.056 83.2363 182.544C82.9483 182.032 82.8043 181.429 82.8043 180.736V178.464C82.8043 177.76 82.9483 177.157 83.2363 176.656C83.5243 176.144 83.9349 175.749 84.4683 175.472C85.0016 175.195 85.6309 175.056 86.3563 175.056C87.0816 175.056 87.7109 175.195 88.2443 175.472C88.7776 175.749 89.1883 176.144 89.4763 176.656C89.7643 177.157 89.9083 177.76 89.9083 178.464V180.736C89.9083 181.429 89.7643 182.032 89.4763 182.544C89.1883 183.056 88.7776 183.451 88.2443 183.728C87.7109 184.005 87.0816 184.144 86.3563 184.144ZM86.3563 182.624C86.9429 182.624 87.3963 182.464 87.7163 182.144C88.0363 181.813 88.1963 181.344 88.1963 180.736V178.464C88.1963 177.845 88.0363 177.376 87.7163 177.056C87.3963 176.736 86.9429 176.576 86.3563 176.576C85.7803 176.576 85.3269 176.736 84.9963 177.056C84.6763 177.376 84.5163 177.845 84.5163 178.464V180.736C84.5163 181.344 84.6763 181.813 84.9963 182.144C85.3269 182.464 85.7803 182.624 86.3563 182.624ZM94.846 184.144C94.2167 184.144 93.662 184.043 93.182 183.84C92.7127 183.637 92.3393 183.36 92.062 183.008C91.7953 182.645 91.6407 182.219 91.598 181.728H93.326C93.3687 182.016 93.5233 182.251 93.79 182.432C94.0567 182.603 94.4087 182.688 94.846 182.688H95.534C96.0567 182.688 96.4513 182.581 96.718 182.368C96.9847 182.155 97.118 181.872 97.118 181.52C97.118 181.179 96.9953 180.912 96.75 180.72C96.5153 180.517 96.1633 180.384 95.694 180.32L94.558 180.144C93.6193 179.995 92.926 179.728 92.478 179.344C92.0407 178.949 91.822 178.368 91.822 177.6C91.822 176.789 92.0833 176.165 92.606 175.728C93.1393 175.28 93.9233 175.056 94.958 175.056H95.566C96.4833 175.056 97.214 175.269 97.758 175.696C98.3127 176.112 98.6273 176.672 98.702 177.376H96.974C96.9313 177.12 96.7873 176.912 96.542 176.752C96.3073 176.592 95.982 176.512 95.566 176.512H94.958C94.4567 176.512 94.0887 176.608 93.854 176.8C93.63 176.981 93.518 177.253 93.518 177.616C93.518 177.936 93.6193 178.176 93.822 178.336C94.0247 178.496 94.3393 178.608 94.766 178.672L95.934 178.864C96.926 179.003 97.6513 179.28 98.11 179.696C98.5793 180.101 98.814 180.693 98.814 181.472C98.814 182.315 98.5367 182.971 97.982 183.44C97.438 183.909 96.622 184.144 95.534 184.144H94.846ZM103.944 184.16C103.229 184.16 102.6 184.021 102.056 183.744C101.522 183.456 101.112 183.056 100.824 182.544C100.536 182.032 100.392 181.435 100.392 180.752V178.448C100.392 177.755 100.536 177.157 100.824 176.656C101.112 176.144 101.522 175.749 102.056 175.472C102.6 175.184 103.229 175.04 103.944 175.04C104.669 175.04 105.298 175.184 105.832 175.472C106.365 175.749 106.776 176.144 107.064 176.656C107.352 177.157 107.496 177.755 107.496 178.448V180.016H102.056V180.752C102.056 181.403 102.216 181.899 102.536 182.24C102.866 182.581 103.341 182.752 103.96 182.752C104.461 182.752 104.866 182.667 105.176 182.496C105.485 182.315 105.677 182.053 105.752 181.712H107.464C107.336 182.459 106.952 183.056 106.312 183.504C105.672 183.941 104.882 184.16 103.944 184.16ZM105.832 178.976V178.432C105.832 177.792 105.672 177.296 105.352 176.944C105.032 176.592 104.562 176.416 103.944 176.416C103.336 176.416 102.866 176.592 102.536 176.944C102.216 177.296 102.056 177.797 102.056 178.448V178.848L105.96 178.832L105.832 178.976ZM109.282 186.88V175.2H110.994V176.88H111.362L110.994 177.28C110.994 176.587 111.207 176.043 111.634 175.648C112.071 175.243 112.652 175.04 113.378 175.04C114.263 175.04 114.967 175.339 115.49 175.936C116.023 176.523 116.29 177.328 116.29 178.352V180.832C116.29 181.515 116.167 182.107 115.922 182.608C115.687 183.099 115.351 183.483 114.914 183.76C114.487 184.027 113.975 184.16 113.378 184.16C112.663 184.16 112.087 183.963 111.65 183.568C111.212 183.163 110.994 182.613 110.994 181.92L111.362 182.32H110.962L111.01 184.368V186.88H109.282ZM112.786 182.656C113.351 182.656 113.788 182.496 114.098 182.176C114.418 181.845 114.578 181.371 114.578 180.752V178.448C114.578 177.829 114.418 177.36 114.098 177.04C113.788 176.709 113.351 176.544 112.786 176.544C112.242 176.544 111.81 176.715 111.49 177.056C111.17 177.387 111.01 177.851 111.01 178.448V180.752C111.01 181.349 111.17 181.819 111.49 182.16C111.81 182.491 112.242 182.656 112.786 182.656ZM118.075 184V172.32H119.803V175.2L119.787 176.88H120.203L119.787 177.28C119.787 176.576 119.995 176.027 120.411 175.632C120.827 175.237 121.403 175.04 122.139 175.04C123.014 175.04 123.713 175.323 124.235 175.888C124.758 176.443 125.019 177.195 125.019 178.144V184H123.291V178.336C123.291 177.76 123.137 177.312 122.827 176.992C122.518 176.672 122.097 176.512 121.563 176.512C121.019 176.512 120.587 176.683 120.267 177.024C119.958 177.355 119.803 177.829 119.803 178.448V184H118.075ZM130.309 184.16C129.253 184.16 128.41 183.856 127.781 183.248C127.152 182.629 126.837 181.792 126.837 180.736V175.2H128.565V180.736C128.565 181.344 128.72 181.819 129.029 182.16C129.338 182.491 129.765 182.656 130.309 182.656C130.864 182.656 131.296 182.491 131.605 182.16C131.925 181.819 132.085 181.344 132.085 180.736V175.2H133.813V180.736C133.813 181.792 133.493 182.629 132.853 183.248C132.224 183.856 131.376 184.16 130.309 184.16ZM138.815 184.144C138.185 184.144 137.631 184.043 137.151 183.84C136.681 183.637 136.308 183.36 136.031 183.008C135.764 182.645 135.609 182.219 135.567 181.728H137.295C137.337 182.016 137.492 182.251 137.759 182.432C138.025 182.603 138.377 182.688 138.815 182.688H139.503C140.025 182.688 140.42 182.581 140.687 182.368C140.953 182.155 141.087 181.872 141.087 181.52C141.087 181.179 140.964 180.912 140.719 180.72C140.484 180.517 140.132 180.384 139.663 180.32L138.527 180.144C137.588 179.995 136.895 179.728 136.447 179.344C136.009 178.949 135.791 178.368 135.791 177.6C135.791 176.789 136.052 176.165 136.575 175.728C137.108 175.28 137.892 175.056 138.927 175.056H139.535C140.452 175.056 141.183 175.269 141.727 175.696C142.281 176.112 142.596 176.672 142.671 177.376H140.943C140.9 177.12 140.756 176.912 140.511 176.752C140.276 176.592 139.951 176.512 139.535 176.512H138.927C138.425 176.512 138.057 176.608 137.823 176.8C137.599 176.981 137.487 177.253 137.487 177.616C137.487 177.936 137.588 178.176 137.791 178.336C137.993 178.496 138.308 178.608 138.735 178.672L139.903 178.864C140.895 179.003 141.62 179.28 142.079 179.696C142.548 180.101 142.783 180.693 142.783 181.472C142.783 182.315 142.505 182.971 141.951 183.44C141.407 183.909 140.591 184.144 139.503 184.144H138.815ZM153.25 184V172.32H157.074C157.832 172.32 158.488 172.464 159.042 172.752C159.608 173.04 160.04 173.451 160.338 173.984C160.648 174.507 160.802 175.125 160.802 175.84C160.802 176.544 160.648 177.163 160.338 177.696C160.029 178.229 159.597 178.64 159.042 178.928C158.488 179.216 157.832 179.36 157.074 179.36H154.978V184H153.25ZM154.978 177.808H157.074C157.672 177.808 158.146 177.632 158.498 177.28C158.861 176.917 159.042 176.437 159.042 175.84C159.042 175.232 158.861 174.752 158.498 174.4C158.146 174.048 157.672 173.872 157.074 173.872H154.978V177.808ZM162.332 184V175.2H163.996V176.88H164.412L163.884 177.92C163.884 176.971 164.092 176.256 164.508 175.776C164.924 175.285 165.543 175.04 166.364 175.04C167.303 175.04 168.044 175.333 168.588 175.92C169.143 176.496 169.42 177.291 169.42 178.304V178.896H167.644V178.448C167.644 177.819 167.484 177.339 167.164 177.008C166.855 176.667 166.417 176.496 165.852 176.496C165.287 176.496 164.844 176.667 164.524 177.008C164.215 177.349 164.06 177.829 164.06 178.448V184H162.332ZM174.294 184.144C173.568 184.144 172.939 184.005 172.406 183.728C171.872 183.451 171.462 183.056 171.174 182.544C170.886 182.032 170.742 181.429 170.742 180.736V178.464C170.742 177.76 170.886 177.157 171.174 176.656C171.462 176.144 171.872 175.749 172.406 175.472C172.939 175.195 173.568 175.056 174.294 175.056C175.019 175.056 175.648 175.195 176.182 175.472C176.715 175.749 177.126 176.144 177.414 176.656C177.702 177.157 177.846 177.76 177.846 178.464V180.736C177.846 181.429 177.702 182.032 177.414 182.544C177.126 183.056 176.715 183.451 176.182 183.728C175.648 184.005 175.019 184.144 174.294 184.144ZM174.294 182.624C174.88 182.624 175.334 182.464 175.654 182.144C175.974 181.813 176.134 181.344 176.134 180.736V178.464C176.134 177.845 175.974 177.376 175.654 177.056C175.334 176.736 174.88 176.576 174.294 176.576C173.718 176.576 173.264 176.736 172.934 177.056C172.614 177.376 172.454 177.845 172.454 178.464V180.736C172.454 181.344 172.614 181.813 172.934 182.144C173.264 182.464 173.718 182.624 174.294 182.624ZM183.712 184.16C182.986 184.16 182.41 183.963 181.984 183.568C181.557 183.163 181.344 182.613 181.344 181.92L181.712 182.32H181.344V184H179.632V172.32H181.36V174.832L181.312 176.88H181.712L181.344 177.28C181.344 176.587 181.557 176.043 181.984 175.648C182.421 175.243 182.997 175.04 183.712 175.04C184.597 175.04 185.306 175.339 185.84 175.936C186.373 176.533 186.64 177.344 186.64 178.368V180.848C186.64 181.861 186.373 182.667 185.84 183.264C185.306 183.861 184.597 184.16 183.712 184.16ZM183.12 182.656C183.685 182.656 184.128 182.496 184.448 182.176C184.768 181.845 184.928 181.371 184.928 180.752V178.448C184.928 177.829 184.768 177.36 184.448 177.04C184.128 176.709 183.685 176.544 183.12 176.544C182.576 176.544 182.144 176.715 181.824 177.056C181.514 177.387 181.36 177.851 181.36 178.448V180.752C181.36 181.349 181.514 181.819 181.824 182.16C182.144 182.491 182.576 182.656 183.12 182.656ZM193.145 184C192.601 184 192.127 183.893 191.721 183.68C191.316 183.456 190.996 183.141 190.761 182.736C190.537 182.331 190.425 181.861 190.425 181.328V173.888H187.545V172.32H192.153V181.328C192.153 181.669 192.249 181.941 192.441 182.144C192.633 182.336 192.895 182.432 193.225 182.432H195.945V184H193.145ZM200.675 184.16C199.96 184.16 199.331 184.021 198.787 183.744C198.254 183.456 197.843 183.056 197.555 182.544C197.267 182.032 197.123 181.435 197.123 180.752V178.448C197.123 177.755 197.267 177.157 197.555 176.656C197.843 176.144 198.254 175.749 198.787 175.472C199.331 175.184 199.96 175.04 200.675 175.04C201.4 175.04 202.03 175.184 202.563 175.472C203.096 175.749 203.507 176.144 203.795 176.656C204.083 177.157 204.227 177.755 204.227 178.448V180.016H198.787V180.752C198.787 181.403 198.947 181.899 199.267 182.24C199.598 182.581 200.072 182.752 200.691 182.752C201.192 182.752 201.598 182.667 201.907 182.496C202.216 182.315 202.408 182.053 202.483 181.712H204.195C204.067 182.459 203.683 183.056 203.043 183.504C202.403 183.941 201.614 184.16 200.675 184.16ZM202.563 178.976V178.432C202.563 177.792 202.403 177.296 202.083 176.944C201.763 176.592 201.294 176.416 200.675 176.416C200.067 176.416 199.598 176.592 199.267 176.944C198.947 177.296 198.787 177.797 198.787 178.448V178.848L202.691 178.832L202.563 178.976ZM205.613 184V175.2H207.053V176.32H207.373L207.133 176.656C207.133 176.165 207.266 175.776 207.533 175.488C207.799 175.189 208.157 175.04 208.605 175.04C209.085 175.04 209.453 175.227 209.709 175.6C209.975 175.973 210.109 176.485 210.109 177.136L209.725 176.32H210.333L210.077 176.656C210.077 176.165 210.21 175.776 210.477 175.488C210.754 175.189 211.122 175.04 211.581 175.04C212.125 175.04 212.551 175.248 212.861 175.664C213.17 176.069 213.325 176.613 213.325 177.296V184H211.789V177.344C211.789 177.013 211.714 176.757 211.565 176.576C211.426 176.395 211.223 176.304 210.957 176.304C210.69 176.304 210.482 176.395 210.333 176.576C210.194 176.747 210.125 176.997 210.125 177.328V184H208.829V177.344C208.829 177.003 208.754 176.747 208.605 176.576C208.455 176.395 208.242 176.304 207.965 176.304C207.698 176.304 207.495 176.395 207.357 176.576C207.229 176.747 207.165 176.997 207.165 177.328V184H205.613ZM22.24 200.504V198.936H27.36V200.504H22.24ZM41.5235 205V194.904H38.4035V193.304H46.3715V194.904H43.2515V205H41.5235ZM48.0133 205V196.2H49.6773V197.88H50.0933L49.5653 198.92C49.5653 197.971 49.7733 197.256 50.1893 196.776C50.6053 196.285 51.2239 196.04 52.0453 196.04C52.9839 196.04 53.7253 196.333 54.2693 196.92C54.8239 197.496 55.1013 198.291 55.1013 199.304V199.896H53.3253V199.448C53.3253 198.819 53.1653 198.339 52.8453 198.008C52.5359 197.667 52.0986 197.496 51.5333 197.496C50.9679 197.496 50.5253 197.667 50.2053 198.008C49.8959 198.349 49.7413 198.829 49.7413 199.448V205H48.0133ZM56.471 205V203.432H59.559V197.768H56.871V196.2H61.239V203.432H64.071V205H56.471ZM60.231 194.68C59.8577 194.68 59.559 194.584 59.335 194.392C59.111 194.189 58.999 193.923 58.999 193.592C58.999 193.251 59.111 192.984 59.335 192.792C59.559 192.589 59.8577 192.488 60.231 192.488C60.6043 192.488 60.903 192.589 61.127 192.792C61.351 192.984 61.463 193.251 61.463 193.592C61.463 193.923 61.351 194.189 61.127 194.392C60.903 194.584 60.6043 194.68 60.231 194.68ZM67.8888 205.16C66.9714 205.16 66.2461 204.925 65.7128 204.456C65.1901 203.976 64.9288 203.325 64.9288 202.504C64.9288 201.672 65.2061 201.021 65.7608 200.552C66.3261 200.072 67.0994 199.832 68.0807 199.832H70.5288V199.016C70.5288 198.536 70.3794 198.163 70.0808 197.896C69.7821 197.629 69.3608 197.496 68.8168 197.496C68.3368 197.496 67.9368 197.603 67.6168 197.816C67.2968 198.019 67.1101 198.291 67.0568 198.632H65.3608C65.4568 197.843 65.8194 197.213 66.4488 196.744C67.0888 196.275 67.8941 196.04 68.8648 196.04C69.9101 196.04 70.7368 196.307 71.3448 196.84C71.9528 197.363 72.2568 198.077 72.2568 198.984V205H70.5768V203.384H70.2888L70.5768 203.064C70.5768 203.704 70.3314 204.216 69.8408 204.6C69.3501 204.973 68.6994 205.16 67.8888 205.16ZM68.4008 203.832C69.0194 203.832 69.5261 203.677 69.9208 203.368C70.3261 203.048 70.5288 202.643 70.5288 202.152V201H68.1128C67.6648 201 67.3074 201.123 67.0408 201.368C66.7848 201.613 66.6568 201.949 66.6568 202.376C66.6568 202.824 66.8114 203.181 67.1208 203.448C67.4301 203.704 67.8568 203.832 68.4008 203.832ZM74.1065 205V196.2H75.8185V197.88H76.2345L75.8185 198.28C75.8185 197.576 76.0265 197.027 76.4425 196.632C76.8585 196.237 77.4345 196.04 78.1705 196.04C79.0452 196.04 79.7438 196.323 80.2665 196.888C80.7892 197.443 81.0505 198.195 81.0505 199.144V205H79.3225V199.336C79.3225 198.76 79.1678 198.317 78.8585 198.008C78.5492 197.699 78.1278 197.544 77.5945 197.544C77.0505 197.544 76.6185 197.709 76.2985 198.04C75.9892 198.36 75.8345 198.829 75.8345 199.448V205H74.1065ZM84.0523 207.88V206.392H86.7563C87.2043 206.392 87.5349 206.285 87.7483 206.072C87.9723 205.859 88.0843 205.544 88.0843 205.128V204.248L88.1163 202.616H87.7483L88.1003 202.296C88.1003 202.968 87.8869 203.496 87.4603 203.88C87.0443 204.264 86.4789 204.456 85.7643 204.456C84.8576 204.456 84.1429 204.157 83.6203 203.56C83.0976 202.963 82.8363 202.157 82.8363 201.144V199.352C82.8363 198.339 83.0976 197.533 83.6203 196.936C84.1429 196.339 84.8576 196.04 85.7643 196.04C86.4789 196.04 87.0443 196.237 87.4603 196.632C87.8869 197.016 88.1003 197.544 88.1003 198.216L87.7483 197.88H88.1003L88.0843 196.2H89.7963V205.16C89.7963 206.003 89.5296 206.664 88.9963 207.144C88.4629 207.635 87.7216 207.88 86.7723 207.88H84.0523ZM86.3243 202.968C86.8683 202.968 87.2949 202.803 87.6043 202.472C87.9243 202.131 88.0843 201.661 88.0843 201.064V199.448C88.0843 198.851 87.9243 198.387 87.6043 198.056C87.2949 197.715 86.8683 197.544 86.3243 197.544C85.7589 197.544 85.3216 197.709 85.0123 198.04C84.7136 198.36 84.5643 198.829 84.5643 199.448V201.064C84.5643 201.672 84.7136 202.141 85.0123 202.472C85.3216 202.803 85.7589 202.968 86.3243 202.968ZM96.414 205C95.87 205 95.3953 204.893 94.99 204.68C94.5847 204.456 94.2647 204.141 94.03 203.736C93.806 203.331 93.694 202.861 93.694 202.328V194.888H90.814V193.32H95.422V202.328C95.422 202.669 95.518 202.941 95.71 203.144C95.902 203.336 96.1633 203.432 96.494 203.432H99.214V205H96.414ZM103.944 205.16C103.229 205.16 102.6 205.021 102.056 204.744C101.522 204.456 101.112 204.056 100.824 203.544C100.536 203.032 100.392 202.435 100.392 201.752V199.448C100.392 198.755 100.536 198.157 100.824 197.656C101.112 197.144 101.522 196.749 102.056 196.472C102.6 196.184 103.229 196.04 103.944 196.04C104.669 196.04 105.298 196.184 105.832 196.472C106.365 196.749 106.776 197.144 107.064 197.656C107.352 198.157 107.496 198.755 107.496 199.448V201.016H102.056V201.752C102.056 202.403 102.216 202.899 102.536 203.24C102.866 203.581 103.341 203.752 103.96 203.752C104.461 203.752 104.866 203.667 105.176 203.496C105.485 203.315 105.677 203.053 105.752 202.712H107.464C107.336 203.459 106.952 204.056 106.312 204.504C105.672 204.941 104.882 205.16 103.944 205.16ZM105.832 199.976V199.432C105.832 198.792 105.672 198.296 105.352 197.944C105.032 197.592 104.562 197.416 103.944 197.416C103.336 197.416 102.866 197.592 102.536 197.944C102.216 198.296 102.056 198.797 102.056 199.448V199.848L105.96 199.832L105.832 199.976ZM118.027 205V193.32H120.203L123.611 203.032C123.59 202.723 123.563 202.355 123.531 201.928C123.499 201.501 123.473 201.059 123.451 200.6C123.441 200.141 123.435 199.725 123.435 199.352V193.32H125.035V205H122.859L119.467 195.288C119.489 195.565 119.51 195.912 119.531 196.328C119.563 196.744 119.585 197.176 119.595 197.624C119.617 198.072 119.627 198.488 119.627 198.872V205H118.027ZM130.309 205.16C129.253 205.16 128.41 204.856 127.781 204.248C127.152 203.629 126.837 202.792 126.837 201.736V196.2H128.565V201.736C128.565 202.344 128.72 202.819 129.029 203.16C129.338 203.491 129.765 203.656 130.309 203.656C130.864 203.656 131.296 203.491 131.605 203.16C131.925 202.819 132.085 202.344 132.085 201.736V196.2H133.813V201.736C133.813 202.792 133.493 203.629 132.853 204.248C132.224 204.856 131.376 205.16 130.309 205.16ZM135.263 205V196.2H136.703V197.32H137.023L136.783 197.656C136.783 197.165 136.916 196.776 137.183 196.488C137.449 196.189 137.807 196.04 138.255 196.04C138.735 196.04 139.103 196.227 139.359 196.6C139.625 196.973 139.759 197.485 139.759 198.136L139.375 197.32H139.983L139.727 197.656C139.727 197.165 139.86 196.776 140.127 196.488C140.404 196.189 140.772 196.04 141.231 196.04C141.775 196.04 142.201 196.248 142.511 196.664C142.82 197.069 142.975 197.613 142.975 198.296V205H141.439V198.344C141.439 198.013 141.364 197.757 141.215 197.576C141.076 197.395 140.873 197.304 140.607 197.304C140.34 197.304 140.132 197.395 139.983 197.576C139.844 197.747 139.775 197.997 139.775 198.328V205H138.479V198.344C138.479 198.003 138.404 197.747 138.255 197.576C138.105 197.395 137.892 197.304 137.615 197.304C137.348 197.304 137.145 197.395 137.007 197.576C136.879 197.747 136.815 197.997 136.815 198.328V205H135.263ZM148.537 205.16C147.811 205.16 147.235 204.963 146.809 204.568C146.382 204.163 146.169 203.613 146.169 202.92L146.537 203.32H146.169V205H144.457V193.32H146.185V195.832L146.137 197.88H146.537L146.169 198.28C146.169 197.587 146.382 197.043 146.809 196.648C147.246 196.243 147.822 196.04 148.537 196.04C149.422 196.04 150.131 196.339 150.665 196.936C151.198 197.533 151.465 198.344 151.465 199.368V201.848C151.465 202.861 151.198 203.667 150.665 204.264C150.131 204.861 149.422 205.16 148.537 205.16ZM147.945 203.656C148.51 203.656 148.953 203.496 149.273 203.176C149.593 202.845 149.753 202.371 149.753 201.752V199.448C149.753 198.829 149.593 198.36 149.273 198.04C148.953 197.709 148.51 197.544 147.945 197.544C147.401 197.544 146.969 197.715 146.649 198.056C146.339 198.387 146.185 198.851 146.185 199.448V201.752C146.185 202.349 146.339 202.819 146.649 203.16C146.969 203.491 147.401 203.656 147.945 203.656ZM156.706 205.16C155.992 205.16 155.362 205.021 154.818 204.744C154.285 204.456 153.874 204.056 153.586 203.544C153.298 203.032 153.154 202.435 153.154 201.752V199.448C153.154 198.755 153.298 198.157 153.586 197.656C153.874 197.144 154.285 196.749 154.818 196.472C155.362 196.184 155.992 196.04 156.706 196.04C157.432 196.04 158.061 196.184 158.594 196.472C159.128 196.749 159.538 197.144 159.826 197.656C160.114 198.157 160.258 198.755 160.258 199.448V201.016H154.818V201.752C154.818 202.403 154.978 202.899 155.298 203.24C155.629 203.581 156.104 203.752 156.722 203.752C157.224 203.752 157.629 203.667 157.938 203.496C158.248 203.315 158.44 203.053 158.514 202.712H160.226C160.098 203.459 159.714 204.056 159.074 204.504C158.434 204.941 157.645 205.16 156.706 205.16ZM158.594 199.976V199.432C158.594 198.792 158.434 198.296 158.114 197.944C157.794 197.592 157.325 197.416 156.706 197.416C156.098 197.416 155.629 197.592 155.298 197.944C154.978 198.296 154.818 198.797 154.818 199.448V199.848L158.722 199.832L158.594 199.976ZM162.332 205V196.2H163.996V197.88H164.412L163.884 198.92C163.884 197.971 164.092 197.256 164.508 196.776C164.924 196.285 165.543 196.04 166.364 196.04C167.303 196.04 168.044 196.333 168.588 196.92C169.143 197.496 169.42 198.291 169.42 199.304V199.896H167.644V199.448C167.644 198.819 167.484 198.339 167.164 198.008C166.855 197.667 166.417 197.496 165.852 197.496C165.287 197.496 164.844 197.667 164.524 198.008C164.215 198.349 164.06 198.829 164.06 199.448V205H162.332ZM173.99 205.144C173.36 205.144 172.806 205.043 172.326 204.84C171.856 204.637 171.483 204.36 171.206 204.008C170.939 203.645 170.784 203.219 170.742 202.728H172.47C172.512 203.016 172.667 203.251 172.934 203.432C173.2 203.603 173.552 203.688 173.99 203.688H174.678C175.2 203.688 175.595 203.581 175.862 203.368C176.128 203.155 176.262 202.872 176.262 202.52C176.262 202.179 176.139 201.912 175.894 201.72C175.659 201.517 175.307 201.384 174.838 201.32L173.702 201.144C172.763 200.995 172.07 200.728 171.622 200.344C171.184 199.949 170.966 199.368 170.966 198.6C170.966 197.789 171.227 197.165 171.75 196.728C172.283 196.28 173.067 196.056 174.102 196.056H174.71C175.627 196.056 176.358 196.269 176.902 196.696C177.456 197.112 177.771 197.672 177.846 198.376H176.118C176.075 198.12 175.931 197.912 175.686 197.752C175.451 197.592 175.126 197.512 174.71 197.512H174.102C173.6 197.512 173.232 197.608 172.998 197.8C172.774 197.981 172.662 198.253 172.662 198.616C172.662 198.936 172.763 199.176 172.966 199.336C173.168 199.496 173.483 199.608 173.91 199.672L175.078 199.864C176.07 200.003 176.795 200.28 177.254 200.696C177.723 201.101 177.958 201.693 177.958 202.472C177.958 203.315 177.68 203.971 177.126 204.44C176.582 204.909 175.766 205.144 174.678 205.144H173.99Z" fill="black"/>
<rect x="210.8" y="0.8" width="222.4" height="45.4" rx="15.2" fill="white"/>
<rect x="210.8" y="0.8" width="222.4" height="45.4" rx="15.2" stroke="black" stroke-width="1.6"/>
<path d="M231.016 30V16.86H234.058L235.264 21C235.396 21.432 235.492 21.81 235.552 22.134C235.624 22.458 235.666 22.686 235.678 22.818C235.69 22.686 235.726 22.458 235.786 22.134C235.858 21.81 235.954 21.432 236.074 21L237.262 16.86H240.304V30H237.838V26.4C237.838 25.74 237.85 25.05 237.874 24.33C237.91 23.598 237.952 22.872 238 22.152C238.048 21.432 238.102 20.76 238.162 20.136C238.222 19.5 238.276 18.948 238.324 18.48L236.812 24.42H234.526L232.942 18.48C233.002 18.924 233.062 19.458 233.122 20.082C233.182 20.694 233.236 21.36 233.284 22.08C233.344 22.788 233.392 23.514 233.428 24.258C233.464 25.002 233.482 25.716 233.482 26.4V30H231.016ZM245.175 30.18C244.179 30.18 243.387 29.91 242.799 29.37C242.223 28.83 241.935 28.098 241.935 27.174C241.935 26.178 242.277 25.416 242.961 24.888C243.657 24.348 244.653 24.078 245.949 24.078H248.001V23.34C248.001 22.956 247.863 22.65 247.587 22.422C247.323 22.194 246.963 22.08 246.507 22.08C246.087 22.08 245.739 22.176 245.463 22.368C245.187 22.56 245.019 22.824 244.959 23.16H242.349C242.457 22.164 242.889 21.378 243.645 20.802C244.413 20.214 245.397 19.92 246.597 19.92C247.857 19.92 248.853 20.232 249.585 20.856C250.329 21.468 250.701 22.296 250.701 23.34V30H248.091V28.38H247.659L248.109 27.75C248.109 28.494 247.839 29.088 247.299 29.532C246.771 29.964 246.063 30.18 245.175 30.18ZM246.183 28.2C246.711 28.2 247.143 28.062 247.479 27.786C247.827 27.498 248.001 27.126 248.001 26.67V25.608H246.003C245.595 25.608 245.265 25.728 245.013 25.968C244.761 26.196 244.635 26.502 244.635 26.886C244.635 27.294 244.773 27.618 245.049 27.858C245.325 28.086 245.703 28.2 246.183 28.2ZM258.326 30C257.318 30 256.526 29.712 255.95 29.136C255.374 28.56 255.086 27.768 255.086 26.76V22.53H252.476V20.1H255.086V17.31H257.786V20.1H261.476V22.53H257.786V26.76C257.786 27.3 258.056 27.57 258.596 27.57H261.296V30H258.326ZM263.827 30V16.86H266.527V20.1L266.437 21.99H267.229L266.437 22.62C266.437 21.78 266.677 21.12 267.157 20.64C267.637 20.16 268.285 19.92 269.101 19.92C270.061 19.92 270.829 20.256 271.405 20.928C271.993 21.6 272.287 22.494 272.287 23.61V30H269.587V23.88C269.587 23.364 269.449 22.968 269.173 22.692C268.909 22.404 268.531 22.26 268.039 22.26C267.559 22.26 267.187 22.404 266.923 22.692C266.659 22.968 266.527 23.364 266.527 23.88V30H263.827ZM288.347 30.18C287.351 30.18 286.559 29.91 285.971 29.37C285.395 28.83 285.107 28.098 285.107 27.174C285.107 26.178 285.449 25.416 286.133 24.888C286.829 24.348 287.825 24.078 289.121 24.078H291.173V23.34C291.173 22.956 291.035 22.65 290.759 22.422C290.495 22.194 290.135 22.08 289.679 22.08C289.259 22.08 288.911 22.176 288.635 22.368C288.359 22.56 288.191 22.824 288.131 23.16H285.521C285.629 22.164 286.061 21.378 286.817 20.802C287.585 20.214 288.569 19.92 289.769 19.92C291.029 19.92 292.025 20.232 292.757 20.856C293.501 21.468 293.873 22.296 293.873 23.34V30H291.263V28.38H290.831L291.281 27.75C291.281 28.494 291.011 29.088 290.471 29.532C289.943 29.964 289.235 30.18 288.347 30.18ZM289.355 28.2C289.883 28.2 290.315 28.062 290.651 27.786C290.999 27.498 291.173 27.126 291.173 26.67V25.608H289.175C288.767 25.608 288.437 25.728 288.185 25.968C287.933 26.196 287.807 26.502 287.807 26.886C287.807 27.294 287.945 27.618 288.221 27.858C288.497 28.086 288.875 28.2 289.355 28.2ZM296.206 30V20.1H298.816V21.99H299.608L298.816 22.62C298.816 21.78 299.056 21.12 299.536 20.64C300.016 20.16 300.664 19.92 301.48 19.92C302.44 19.92 303.208 20.256 303.784 20.928C304.372 21.6 304.666 22.494 304.666 23.61V30H301.966V23.88C301.966 23.364 301.828 22.968 301.552 22.692C301.288 22.404 300.91 22.26 300.418 22.26C299.938 22.26 299.566 22.404 299.302 22.692C299.038 22.968 298.906 23.364 298.906 23.88V30H296.206ZM310.185 30.18C309.189 30.18 308.391 29.832 307.791 29.136C307.191 28.44 306.891 27.498 306.891 26.31V23.79C306.891 22.614 307.191 21.678 307.791 20.982C308.391 20.274 309.189 19.92 310.185 19.92C311.001 19.92 311.643 20.16 312.111 20.64C312.579 21.108 312.813 21.768 312.813 22.62L312.183 21.99H312.813L312.723 19.56V16.86H315.423V30H312.813V28.11H312.183L312.813 27.48C312.813 28.332 312.579 28.998 312.111 29.478C311.643 29.946 311.001 30.18 310.185 30.18ZM311.157 27.84C311.649 27.84 312.033 27.702 312.309 27.426C312.585 27.138 312.723 26.736 312.723 26.22V23.88C312.723 23.364 312.585 22.968 312.309 22.692C312.033 22.404 311.649 22.26 311.157 22.26C310.653 22.26 310.263 22.404 309.987 22.692C309.723 22.968 309.591 23.364 309.591 23.88V26.22C309.591 26.736 309.723 27.138 309.987 27.426C310.263 27.702 310.653 27.84 311.157 27.84ZM332.868 30.18C331.992 30.18 331.224 30.018 330.564 29.694C329.904 29.358 329.388 28.896 329.016 28.308C328.656 27.708 328.476 27.012 328.476 26.22V20.64C328.476 19.836 328.656 19.14 329.016 18.552C329.388 17.964 329.904 17.508 330.564 17.184C331.224 16.848 331.992 16.68 332.868 16.68C333.756 16.68 334.524 16.848 335.172 17.184C335.832 17.508 336.342 17.964 336.702 18.552C337.074 19.14 337.26 19.836 337.26 20.64H334.56C334.56 20.112 334.41 19.71 334.11 19.434C333.822 19.158 333.408 19.02 332.868 19.02C332.328 19.02 331.908 19.158 331.608 19.434C331.32 19.71 331.176 20.112 331.176 20.64V26.22C331.176 26.736 331.32 27.138 331.608 27.426C331.908 27.702 332.328 27.84 332.868 27.84C333.408 27.84 333.822 27.702 334.11 27.426C334.41 27.138 334.56 26.736 334.56 26.22V25.086H332.616V22.8H337.26V26.22C337.26 27.012 337.074 27.708 336.702 28.308C336.342 28.896 335.832 29.358 335.172 29.694C334.524 30.018 333.756 30.18 332.868 30.18ZM343.607 30.18C342.731 30.18 341.963 30.018 341.303 29.694C340.655 29.358 340.151 28.896 339.791 28.308C339.443 27.708 339.269 27.012 339.269 26.22V23.88C339.269 23.088 339.443 22.398 339.791 21.81C340.151 21.21 340.655 20.748 341.303 20.424C341.963 20.088 342.731 19.92 343.607 19.92C344.483 19.92 345.239 20.088 345.875 20.424C346.523 20.748 347.021 21.21 347.369 21.81C347.729 22.398 347.909 23.088 347.909 23.88V25.68H341.843V26.22C341.843 26.844 341.993 27.318 342.293 27.642C342.593 27.954 343.043 28.11 343.643 28.11C344.063 28.11 344.399 28.038 344.651 27.894C344.915 27.75 345.089 27.552 345.173 27.3H347.819C347.603 28.164 347.111 28.86 346.343 29.388C345.587 29.916 344.675 30.18 343.607 30.18ZM345.335 24.294V23.844C345.335 23.232 345.191 22.764 344.903 22.44C344.627 22.116 344.195 21.954 343.607 21.954C343.019 21.954 342.575 22.122 342.275 22.458C341.987 22.794 341.843 23.268 341.843 23.88V24.15L345.515 24.114L345.335 24.294ZM354.382 30.18C353.506 30.18 352.744 30.018 352.096 29.694C351.448 29.358 350.944 28.896 350.584 28.308C350.236 27.708 350.062 27.012 350.062 26.22V23.88C350.062 23.088 350.236 22.398 350.584 21.81C350.944 21.21 351.448 20.748 352.096 20.424C352.744 20.088 353.506 19.92 354.382 19.92C355.27 19.92 356.032 20.088 356.668 20.424C357.316 20.748 357.814 21.21 358.162 21.81C358.522 22.398 358.702 23.088 358.702 23.88V26.22C358.702 27.012 358.522 27.708 358.162 28.308C357.814 28.896 357.316 29.358 356.668 29.694C356.032 30.018 355.27 30.18 354.382 30.18ZM354.382 27.84C354.91 27.84 355.312 27.702 355.588 27.426C355.864 27.138 356.002 26.736 356.002 26.22V23.88C356.002 23.352 355.864 22.95 355.588 22.674C355.312 22.398 354.91 22.26 354.382 22.26C353.866 22.26 353.464 22.398 353.176 22.674C352.9 22.95 352.762 23.352 352.762 23.88V26.22C352.762 26.736 352.9 27.138 353.176 27.426C353.464 27.702 353.866 27.84 354.382 27.84ZM360.531 30V20.1H362.655V21.54H363.087L362.745 21.792C362.745 21.228 362.907 20.778 363.231 20.442C363.555 20.094 363.957 19.92 364.437 19.92C364.953 19.92 365.355 20.142 365.643 20.586C365.931 21.03 366.075 21.618 366.075 22.35L365.751 21.54H366.255L366.093 21.792C366.093 21.228 366.249 20.778 366.561 20.442C366.873 20.094 367.293 19.92 367.821 19.92C368.421 19.92 368.907 20.148 369.279 20.604C369.651 21.048 369.837 21.66 369.837 22.44V30H367.515V22.62C367.515 22.344 367.455 22.134 367.335 21.99C367.215 21.834 367.041 21.756 366.813 21.756C366.585 21.756 366.411 21.834 366.291 21.99C366.171 22.134 366.111 22.344 366.111 22.62V30H364.257V22.62C364.257 22.344 364.197 22.134 364.077 21.99C363.957 21.834 363.783 21.756 363.555 21.756C363.327 21.756 363.153 21.834 363.033 21.99C362.913 22.134 362.853 22.344 362.853 22.62V30H360.531ZM375.986 30.18C375.11 30.18 374.342 30.018 373.682 29.694C373.034 29.358 372.53 28.896 372.17 28.308C371.822 27.708 371.648 27.012 371.648 26.22V23.88C371.648 23.088 371.822 22.398 372.17 21.81C372.53 21.21 373.034 20.748 373.682 20.424C374.342 20.088 375.11 19.92 375.986 19.92C376.862 19.92 377.618 20.088 378.254 20.424C378.902 20.748 379.4 21.21 379.748 21.81C380.108 22.398 380.288 23.088 380.288 23.88V25.68H374.222V26.22C374.222 26.844 374.372 27.318 374.672 27.642C374.972 27.954 375.422 28.11 376.022 28.11C376.442 28.11 376.778 28.038 377.03 27.894C377.294 27.75 377.468 27.552 377.552 27.3H380.198C379.982 28.164 379.49 28.86 378.722 29.388C377.966 29.916 377.054 30.18 375.986 30.18ZM377.714 24.294V23.844C377.714 23.232 377.57 22.764 377.282 22.44C377.006 22.116 376.574 21.954 375.986 21.954C375.398 21.954 374.954 22.122 374.654 22.458C374.366 22.794 374.222 23.268 374.222 23.88V24.15L377.894 24.114L377.714 24.294ZM387.841 30C386.833 30 386.041 29.712 385.465 29.136C384.889 28.56 384.601 27.768 384.601 26.76V22.53H381.991V20.1H384.601V17.31H387.301V20.1H390.991V22.53H387.301V26.76C387.301 27.3 387.571 27.57 388.111 27.57H390.811V30H387.841ZM393.63 30V20.1H396.15V21.99H396.834L396.06 23.142C396.06 22.074 396.306 21.27 396.798 20.73C397.29 20.19 398.01 19.92 398.958 19.92C400.05 19.92 400.896 20.25 401.496 20.91C402.108 21.57 402.414 22.5 402.414 23.7V24.51H399.534V23.88C399.534 23.34 399.384 22.92 399.084 22.62C398.796 22.32 398.406 22.17 397.914 22.17C397.398 22.17 397.002 22.32 396.726 22.62C396.462 22.92 396.33 23.34 396.33 23.88V30H393.63ZM405.773 33.24L407.123 29.514L403.415 20.1H406.349L407.843 24.42C407.951 24.744 408.059 25.14 408.167 25.608C408.287 26.064 408.377 26.436 408.437 26.724C408.497 26.436 408.581 26.064 408.689 25.608C408.809 25.14 408.923 24.744 409.031 24.42L410.471 20.1H413.279L408.599 33.24H405.773Z" fill="black"/>
<path d="M322.8 55L326.619 47L317.381 47L321.2 55L322.8 55ZM321.2 51.9687L321.2 55.2812L322.8 55.2813L322.8 51.9688L321.2 51.9687ZM321.2 58.5937L321.2 61.9062L322.8 61.9063L322.8 58.5938L321.2 58.5937ZM321.2 65.2187L321.2 68.5312L322.8 68.5313L322.8 65.2188L321.2 65.2187ZM321.2 71.8437L321.2 73.5L322.8 73.5L322.8 71.8438L321.2 71.8437Z" fill="black"/>
<path d="M125.434 101.566C125.747 101.878 126.253 101.878 126.566 101.566L131.657 96.4745C131.969 96.1621 131.969 95.6556 131.657 95.3431C131.344 95.0307 130.838 95.0307 130.525 95.3431L126 99.8686L121.475 95.3431C121.162 95.0307 120.656 95.0307 120.343 95.3431C120.031 95.6556 120.031 96.1621 120.343 96.4745L125.434 101.566ZM126 73V72.2H125.2V73H126ZM494 73H494.8V72.2H494V73ZM493.434 101.566C493.747 101.878 494.253 101.878 494.566 101.566L499.657 96.4744C499.969 96.162 499.969 95.6555 499.657 95.3431C499.344 95.0306 498.838 95.0306 498.525 95.3431L494 99.8685L489.475 95.3431C489.162 95.0306 488.656 95.0306 488.343 95.3431C488.031 95.6555 488.031 96.162 488.343 96.4744L493.434 101.566ZM126.8 101V99.25H125.2V101H126.8ZM126.8 95.75V92.25H125.2V95.75H126.8ZM126.8 88.75V85.25H125.2V88.75H126.8ZM126.8 81.75V78.25H125.2V81.75H126.8ZM126.8 74.75V73H125.2V74.75H126.8ZM126 73.8H127.586V72.2H126V73.8ZM130.759 73.8H133.931V72.2H130.759V73.8ZM137.103 73.8H140.276V72.2H137.103V73.8ZM143.448 73.8H146.621V72.2H143.448V73.8ZM149.793 73.8H152.966V72.2H149.793V73.8ZM156.138 73.8H159.31V72.2H156.138V73.8ZM162.483 73.8H165.655V72.2H162.483V73.8ZM168.828 73.8H172V72.2H168.828V73.8ZM175.172 73.8H178.345V72.2H175.172V73.8ZM181.517 73.8H184.69V72.2H181.517V73.8ZM187.862 73.8H191.034V72.2H187.862V73.8ZM194.207 73.8H197.379V72.2H194.207V73.8ZM200.552 73.8H203.724V72.2H200.552V73.8ZM206.897 73.8H210.069V72.2H206.897V73.8ZM213.241 73.8H216.414V72.2H213.241V73.8ZM219.586 73.8H222.759V72.2H219.586V73.8ZM225.931 73.8H229.103V72.2H225.931V73.8ZM232.276 73.8H235.448V72.2H232.276V73.8ZM238.621 73.8H241.793V72.2H238.621V73.8ZM244.966 73.8H248.138V72.2H244.966V73.8ZM251.31 73.8H254.483V72.2H251.31V73.8ZM257.655 73.8H260.828V72.2H257.655V73.8ZM264 73.8H267.172V72.2H264V73.8ZM270.345 73.8H273.517V72.2H270.345V73.8ZM276.69 73.8H279.862V72.2H276.69V73.8ZM283.034 73.8H286.207V72.2H283.034V73.8ZM289.379 73.8H292.552V72.2H289.379V73.8ZM295.724 73.8H298.897V72.2H295.724V73.8ZM302.069 73.8H305.241V72.2H302.069V73.8ZM308.414 73.8H311.586V72.2H308.414V73.8ZM314.759 73.8H317.931V72.2H314.759V73.8ZM321.103 73.8H324.276V72.2H321.103V73.8ZM327.448 73.8H330.621V72.2H327.448V73.8ZM333.793 73.8H336.965V72.2H333.793V73.8ZM340.138 73.8H343.31V72.2H340.138V73.8ZM346.483 73.8H349.655V72.2H346.483V73.8ZM352.827 73.8H356V72.2H352.827V73.8ZM359.172 73.8H362.345V72.2H359.172V73.8ZM365.517 73.8H368.69V72.2H365.517V73.8ZM371.862 73.8H375.034V72.2H371.862V73.8ZM378.207 73.8H381.379V72.2H378.207V73.8ZM384.552 73.8H387.724V72.2H384.552V73.8ZM390.896 73.8H394.069V72.2H390.896V73.8ZM397.241 73.8H400.414V72.2H397.241V73.8ZM403.586 73.8H406.759V72.2H403.586V73.8ZM409.931 73.8H413.103V72.2H409.931V73.8ZM416.276 73.8H419.448V72.2H416.276V73.8ZM422.621 73.8H425.793V72.2H422.621V73.8ZM428.966 73.8H432.138V72.2H428.966V73.8ZM435.31 73.8H438.483V72.2H435.31V73.8ZM441.655 73.8H444.828V72.2H441.655V73.8ZM448 73.8H451.172V72.2H448V73.8ZM454.345 73.8H457.517V72.2H454.345V73.8ZM460.69 73.8H463.862V72.2H460.69V73.8ZM467.035 73.8H470.207V72.2H467.035V73.8ZM473.379 73.8H476.552V72.2H473.379V73.8ZM479.724 73.8H482.897V72.2H479.724V73.8ZM486.069 73.8H489.242V72.2H486.069V73.8ZM492.414 73.8H494V72.2H492.414V73.8ZM493.2 73V74.75H494.8V73H493.2ZM493.2 78.25V81.75H494.8V78.25H493.2ZM493.2 85.25V88.75H494.8V85.25H493.2ZM493.2 92.2499V95.7499H494.8V92.2499H493.2ZM493.2 99.2499V101H494.8V99.2499H493.2Z" fill="black"/>
<rect x="356" y="111" width="268" height="93" rx="12" fill="#F4F4F4"/>
<rect x="356" y="111" width="268" height="93" rx="12" stroke="black" stroke-width="1.2" stroke-dasharray="6 6"/>
<path d="M379.864 142.16C379.085 142.16 378.403 142.016 377.816 141.728C377.229 141.429 376.771 141.019 376.44 140.496C376.12 139.963 375.96 139.344 375.96 138.64V133.68C375.96 132.965 376.12 132.347 376.44 131.824C376.771 131.301 377.229 130.896 377.816 130.608C378.403 130.309 379.085 130.16 379.864 130.16C380.653 130.16 381.336 130.309 381.912 130.608C382.499 130.896 382.952 131.301 383.272 131.824C383.603 132.347 383.768 132.965 383.768 133.68H381.368C381.368 133.211 381.235 132.853 380.968 132.608C380.712 132.363 380.344 132.24 379.864 132.24C379.384 132.24 379.011 132.363 378.744 132.608C378.488 132.853 378.36 133.211 378.36 133.68V138.64C378.36 139.099 378.488 139.456 378.744 139.712C379.011 139.957 379.384 140.08 379.864 140.08C380.344 140.08 380.712 139.957 380.968 139.712C381.235 139.456 381.368 139.099 381.368 138.64V137.632H379.64V135.6H383.768V138.64C383.768 139.344 383.603 139.963 383.272 140.496C382.952 141.019 382.499 141.429 381.912 141.728C381.336 142.016 380.653 142.16 379.864 142.16ZM388.61 142.16C387.831 142.16 387.148 142.016 386.562 141.728C385.986 141.429 385.538 141.019 385.218 140.496C384.908 139.963 384.754 139.344 384.754 138.64V136.56C384.754 135.856 384.908 135.243 385.218 134.72C385.538 134.187 385.986 133.776 386.562 133.488C387.148 133.189 387.831 133.04 388.61 133.04C389.388 133.04 390.06 133.189 390.626 133.488C391.202 133.776 391.644 134.187 391.954 134.72C392.274 135.243 392.434 135.856 392.434 136.56V138.16H387.042V138.64C387.042 139.195 387.175 139.616 387.442 139.904C387.708 140.181 388.108 140.32 388.642 140.32C389.015 140.32 389.314 140.256 389.538 140.128C389.772 140 389.927 139.824 390.002 139.6H392.354C392.162 140.368 391.724 140.987 391.042 141.456C390.37 141.925 389.559 142.16 388.61 142.16ZM390.146 136.928V136.528C390.146 135.984 390.018 135.568 389.762 135.28C389.516 134.992 389.132 134.848 388.61 134.848C388.087 134.848 387.692 134.997 387.426 135.296C387.17 135.595 387.042 136.016 387.042 136.56V136.8L390.306 136.768L390.146 136.928ZM397.387 142.16C396.609 142.16 395.931 142.016 395.355 141.728C394.779 141.429 394.331 141.019 394.011 140.496C393.702 139.963 393.547 139.344 393.547 138.64V136.56C393.547 135.856 393.702 135.243 394.011 134.72C394.331 134.187 394.779 133.776 395.355 133.488C395.931 133.189 396.609 133.04 397.387 133.04C398.177 133.04 398.854 133.189 399.419 133.488C399.996 133.776 400.438 134.187 400.748 134.72C401.068 135.243 401.227 135.856 401.227 136.56V138.64C401.227 139.344 401.068 139.963 400.748 140.496C400.438 141.019 399.996 141.429 399.419 141.728C398.854 142.016 398.177 142.16 397.387 142.16ZM397.387 140.08C397.857 140.08 398.214 139.957 398.459 139.712C398.705 139.456 398.827 139.099 398.827 138.64V136.56C398.827 136.091 398.705 135.733 398.459 135.488C398.214 135.243 397.857 135.12 397.387 135.12C396.929 135.12 396.571 135.243 396.315 135.488C396.07 135.733 395.947 136.091 395.947 136.56V138.64C395.947 139.099 396.07 139.456 396.315 139.712C396.571 139.957 396.929 140.08 397.387 140.08ZM402.053 142V133.2H403.941V134.48H404.325L404.021 134.704C404.021 134.203 404.165 133.803 404.453 133.504C404.741 133.195 405.099 133.04 405.525 133.04C405.984 133.04 406.341 133.237 406.597 133.632C406.853 134.027 406.981 134.549 406.981 135.2L406.693 134.48H407.141L406.997 134.704C406.997 134.203 407.136 133.803 407.413 133.504C407.691 133.195 408.064 133.04 408.533 133.04C409.067 133.04 409.499 133.243 409.829 133.648C410.16 134.043 410.325 134.587 410.325 135.28V142H408.261V135.44C408.261 135.195 408.208 135.008 408.101 134.88C407.995 134.741 407.84 134.672 407.637 134.672C407.435 134.672 407.28 134.741 407.173 134.88C407.067 135.008 407.013 135.195 407.013 135.44V142H405.365V135.44C405.365 135.195 405.312 135.008 405.205 134.88C405.099 134.741 404.944 134.672 404.741 134.672C404.539 134.672 404.384 134.741 404.277 134.88C404.171 135.008 404.117 135.195 404.117 135.44V142H402.053ZM414.991 142.16C414.212 142.16 413.53 142.016 412.943 141.728C412.367 141.429 411.919 141.019 411.599 140.496C411.29 139.963 411.135 139.344 411.135 138.64V136.56C411.135 135.856 411.29 135.243 411.599 134.72C411.919 134.187 412.367 133.776 412.943 133.488C413.53 133.189 414.212 133.04 414.991 133.04C415.77 133.04 416.442 133.189 417.007 133.488C417.583 133.776 418.026 134.187 418.335 134.72C418.655 135.243 418.815 135.856 418.815 136.56V138.16H413.423V138.64C413.423 139.195 413.556 139.616 413.823 139.904C414.09 140.181 414.49 140.32 415.023 140.32C415.396 140.32 415.695 140.256 415.919 140.128C416.154 140 416.308 139.824 416.383 139.6H418.735C418.543 140.368 418.106 140.987 417.423 141.456C416.751 141.925 415.94 142.16 414.991 142.16ZM416.527 136.928V136.528C416.527 135.984 416.399 135.568 416.143 135.28C415.898 134.992 415.514 134.848 414.991 134.848C414.468 134.848 414.074 134.997 413.807 135.296C413.551 135.595 413.423 136.016 413.423 136.56V136.8L416.687 136.768L416.527 136.928ZM424.729 142C423.833 142 423.129 141.744 422.617 141.232C422.105 140.72 421.849 140.016 421.849 139.12V135.36H419.529V133.2H421.849V130.72H424.249V133.2H427.529V135.36H424.249V139.12C424.249 139.6 424.489 139.84 424.969 139.84H427.369V142H424.729ZM429.075 142V133.2H431.315V134.88H431.923L431.235 135.904C431.235 134.955 431.453 134.24 431.891 133.76C432.328 133.28 432.968 133.04 433.811 133.04C434.781 133.04 435.533 133.333 436.067 133.92C436.611 134.507 436.883 135.333 436.883 136.4V137.12H434.323V136.56C434.323 136.08 434.189 135.707 433.923 135.44C433.667 135.173 433.32 135.04 432.883 135.04C432.424 135.04 432.072 135.173 431.827 135.44C431.592 135.707 431.475 136.08 431.475 136.56V142H429.075ZM439.068 144.88L440.268 141.568L436.972 133.2H439.58L440.908 137.04C441.004 137.328 441.1 137.68 441.196 138.096C441.303 138.501 441.383 138.832 441.436 139.088C441.49 138.832 441.564 138.501 441.66 138.096C441.767 137.68 441.868 137.328 441.964 137.04L443.244 133.2H445.74L441.58 144.88H439.068ZM377.24 158.504V156.936H382.36V158.504H377.24ZM397.435 163.16C396.646 163.16 395.969 163.032 395.403 162.776C394.838 162.509 394.401 162.136 394.091 161.656C393.782 161.165 393.627 160.584 393.627 159.912H395.339C395.339 160.445 395.526 160.867 395.899 161.176C396.273 161.475 396.79 161.624 397.451 161.624C398.07 161.624 398.555 161.475 398.907 161.176C399.26 160.877 399.436 160.467 399.436 159.944C399.436 159.507 399.313 159.128 399.068 158.808C398.833 158.488 398.491 158.269 398.043 158.152L396.571 157.72C395.718 157.475 395.057 157.059 394.587 156.472C394.129 155.875 393.899 155.165 393.899 154.344C393.899 153.704 394.043 153.144 394.331 152.664C394.619 152.184 395.03 151.811 395.563 151.544C396.097 151.277 396.726 151.144 397.451 151.144C398.518 151.144 399.371 151.432 400.011 152.008C400.662 152.584 400.993 153.357 401.003 154.328H399.275C399.275 153.816 399.11 153.416 398.78 153.128C398.459 152.829 398.006 152.68 397.419 152.68C396.854 152.68 396.411 152.819 396.091 153.096C395.771 153.363 395.611 153.741 395.611 154.232C395.611 154.669 395.729 155.048 395.963 155.368C396.209 155.688 396.555 155.912 397.003 156.04L398.491 156.488C399.345 156.723 400.001 157.139 400.459 157.736C400.918 158.333 401.148 159.048 401.148 159.88C401.148 160.531 400.993 161.107 400.684 161.608C400.374 162.099 399.942 162.483 399.387 162.76C398.833 163.027 398.182 163.16 397.435 163.16ZM402.725 165.88V154.2H404.437V155.88H404.805L404.437 156.28C404.437 155.587 404.651 155.043 405.077 154.648C405.515 154.243 406.096 154.04 406.821 154.04C407.707 154.04 408.411 154.339 408.933 154.936C409.467 155.523 409.733 156.328 409.733 157.352V159.832C409.733 160.515 409.611 161.107 409.365 161.608C409.131 162.099 408.795 162.483 408.357 162.76C407.931 163.027 407.419 163.16 406.821 163.16C406.107 163.16 405.531 162.963 405.093 162.568C404.656 162.163 404.437 161.613 404.437 160.92L404.805 161.32H404.405L404.453 163.368V165.88H402.725ZM406.229 161.656C406.795 161.656 407.232 161.496 407.541 161.176C407.861 160.845 408.021 160.371 408.021 159.752V157.448C408.021 156.829 407.861 156.36 407.541 156.04C407.232 155.709 406.795 155.544 406.229 155.544C405.685 155.544 405.253 155.715 404.933 156.056C404.613 156.387 404.453 156.851 404.453 157.448V159.752C404.453 160.349 404.613 160.819 404.933 161.16C405.253 161.491 405.685 161.656 406.229 161.656ZM411.471 163V161.432H414.559V155.768H411.871V154.2H416.239V161.432H419.071V163H411.471ZM415.231 152.68C414.858 152.68 414.559 152.584 414.335 152.392C414.111 152.189 413.999 151.923 413.999 151.592C413.999 151.251 414.111 150.984 414.335 150.792C414.559 150.589 414.858 150.488 415.231 150.488C415.604 150.488 415.903 150.589 416.127 150.792C416.351 150.984 416.463 151.251 416.463 151.592C416.463 151.923 416.351 152.189 416.127 152.392C415.903 152.584 415.604 152.68 415.231 152.68ZM420.601 163V154.2H422.265V155.88H422.681L422.153 156.92C422.153 155.971 422.361 155.256 422.777 154.776C423.193 154.285 423.811 154.04 424.633 154.04C425.571 154.04 426.313 154.333 426.857 154.92C427.411 155.496 427.689 156.291 427.689 157.304V157.896H425.913V157.448C425.913 156.819 425.753 156.339 425.433 156.008C425.123 155.667 424.686 155.496 424.121 155.496C423.555 155.496 423.113 155.667 422.793 156.008C422.483 156.349 422.329 156.829 422.329 157.448V163H420.601ZM431.683 163.16C430.765 163.16 430.04 162.925 429.507 162.456C428.984 161.976 428.723 161.325 428.723 160.504C428.723 159.672 429 159.021 429.555 158.552C430.12 158.072 430.893 157.832 431.875 157.832H434.323V157.016C434.323 156.536 434.173 156.163 433.875 155.896C433.576 155.629 433.155 155.496 432.611 155.496C432.131 155.496 431.731 155.603 431.411 155.816C431.091 156.019 430.904 156.291 430.851 156.632H429.155C429.251 155.843 429.613 155.213 430.243 154.744C430.883 154.275 431.688 154.04 432.659 154.04C433.704 154.04 434.531 154.307 435.139 154.84C435.747 155.363 436.051 156.077 436.051 156.984V163H434.371V161.384H434.083L434.371 161.064C434.371 161.704 434.125 162.216 433.635 162.6C433.144 162.973 432.493 163.16 431.683 163.16ZM432.195 161.832C432.813 161.832 433.32 161.677 433.715 161.368C434.12 161.048 434.323 160.643 434.323 160.152V159H431.907C431.459 159 431.101 159.123 430.835 159.368C430.579 159.613 430.451 159.949 430.451 160.376C430.451 160.824 430.605 161.181 430.915 161.448C431.224 161.704 431.651 161.832 432.195 161.832ZM442.62 163C442.076 163 441.602 162.893 441.196 162.68C440.791 162.456 440.471 162.141 440.236 161.736C440.012 161.331 439.9 160.861 439.9 160.328V152.888H437.02V151.32H441.628V160.328C441.628 160.669 441.724 160.941 441.916 161.144C442.108 161.336 442.37 161.432 442.7 161.432H445.42V163H442.62ZM458.08 163V152.904H454.96V151.304H462.928V152.904H459.808V163H458.08ZM464.57 163V154.2H466.234V155.88H466.65L466.122 156.92C466.122 155.971 466.33 155.256 466.746 154.776C467.162 154.285 467.78 154.04 468.602 154.04C469.54 154.04 470.282 154.333 470.826 154.92C471.38 155.496 471.658 156.291 471.658 157.304V157.896H469.882V157.448C469.882 156.819 469.722 156.339 469.402 156.008C469.092 155.667 468.655 155.496 468.09 155.496C467.524 155.496 467.082 155.667 466.762 156.008C466.452 156.349 466.298 156.829 466.298 157.448V163H464.57ZM475.651 163.16C474.734 163.16 474.009 162.925 473.475 162.456C472.953 161.976 472.691 161.325 472.691 160.504C472.691 159.672 472.969 159.021 473.523 158.552C474.089 158.072 474.862 157.832 475.843 157.832H478.291V157.016C478.291 156.536 478.142 156.163 477.843 155.896C477.545 155.629 477.123 155.496 476.579 155.496C476.099 155.496 475.699 155.603 475.379 155.816C475.059 156.019 474.873 156.291 474.819 156.632H473.123C473.219 155.843 473.582 155.213 474.211 154.744C474.851 154.275 475.657 154.04 476.627 154.04C477.673 154.04 478.499 154.307 479.107 154.84C479.715 155.363 480.019 156.077 480.019 156.984V163H478.339V161.384H478.051L478.339 161.064C478.339 161.704 478.094 162.216 477.603 162.6C477.113 162.973 476.462 163.16 475.651 163.16ZM476.163 161.832C476.782 161.832 477.289 161.677 477.683 161.368C478.089 161.048 478.291 160.643 478.291 160.152V159H475.875C475.427 159 475.07 159.123 474.803 159.368C474.547 159.613 474.419 159.949 474.419 160.376C474.419 160.824 474.574 161.181 474.883 161.448C475.193 161.704 475.619 161.832 476.163 161.832ZM484.189 163L481.277 154.2H483.037L484.845 159.832C484.962 160.163 485.064 160.499 485.149 160.84C485.245 161.171 485.314 161.432 485.357 161.624C485.41 161.432 485.48 161.171 485.565 160.84C485.661 160.499 485.757 160.163 485.853 159.832L487.629 154.2H489.373L486.461 163H484.189ZM494.119 163.16C493.404 163.16 492.775 163.021 492.231 162.744C491.697 162.456 491.287 162.056 490.999 161.544C490.711 161.032 490.567 160.435 490.567 159.752V157.448C490.567 156.755 490.711 156.157 490.999 155.656C491.287 155.144 491.697 154.749 492.231 154.472C492.775 154.184 493.404 154.04 494.119 154.04C494.844 154.04 495.473 154.184 496.007 154.472C496.54 154.749 496.951 155.144 497.239 155.656C497.527 156.157 497.671 156.755 497.671 157.448V159.016H492.231V159.752C492.231 160.403 492.391 160.899 492.711 161.24C493.041 161.581 493.516 161.752 494.135 161.752C494.636 161.752 495.041 161.667 495.351 161.496C495.66 161.315 495.852 161.053 495.927 160.712H497.639C497.511 161.459 497.127 162.056 496.487 162.504C495.847 162.941 495.057 163.16 494.119 163.16ZM496.007 157.976V157.432C496.007 156.792 495.847 156.296 495.527 155.944C495.207 155.592 494.737 155.416 494.119 155.416C493.511 155.416 493.041 155.592 492.711 155.944C492.391 156.296 492.231 156.797 492.231 157.448V157.848L496.135 157.832L496.007 157.976ZM499.745 163V154.2H501.409V155.88H501.825L501.297 156.92C501.297 155.971 501.505 155.256 501.921 154.776C502.337 154.285 502.955 154.04 503.777 154.04C504.715 154.04 505.457 154.333 506.001 154.92C506.555 155.496 506.833 156.291 506.833 157.304V157.896H505.057V157.448C505.057 156.819 504.897 156.339 504.577 156.008C504.267 155.667 503.83 155.496 503.265 155.496C502.699 155.496 502.257 155.667 501.937 156.008C501.627 156.349 501.473 156.829 501.473 157.448V163H499.745ZM511.402 163.144C510.773 163.144 510.218 163.043 509.738 162.84C509.269 162.637 508.896 162.36 508.618 162.008C508.352 161.645 508.197 161.219 508.154 160.728H509.882C509.925 161.016 510.08 161.251 510.346 161.432C510.613 161.603 510.965 161.688 511.402 161.688H512.09C512.613 161.688 513.008 161.581 513.274 161.368C513.541 161.155 513.674 160.872 513.674 160.52C513.674 160.179 513.552 159.912 513.306 159.72C513.072 159.517 512.72 159.384 512.25 159.32L511.114 159.144C510.176 158.995 509.482 158.728 509.034 158.344C508.597 157.949 508.378 157.368 508.378 156.6C508.378 155.789 508.64 155.165 509.162 154.728C509.696 154.28 510.48 154.056 511.514 154.056H512.122C513.04 154.056 513.77 154.269 514.314 154.696C514.869 155.112 515.184 155.672 515.258 156.376H513.53C513.488 156.12 513.344 155.912 513.098 155.752C512.864 155.592 512.538 155.512 512.122 155.512H511.514C511.013 155.512 510.645 155.608 510.41 155.8C510.186 155.981 510.074 156.253 510.074 156.616C510.074 156.936 510.176 157.176 510.378 157.336C510.581 157.496 510.896 157.608 511.322 157.672L512.49 157.864C513.482 158.003 514.208 158.28 514.666 158.696C515.136 159.101 515.37 159.693 515.37 160.472C515.37 161.315 515.093 161.971 514.538 162.44C513.994 162.909 513.178 163.144 512.09 163.144H511.402ZM519.62 163.16C518.703 163.16 517.977 162.925 517.444 162.456C516.921 161.976 516.66 161.325 516.66 160.504C516.66 159.672 516.937 159.021 517.492 158.552C518.057 158.072 518.831 157.832 519.812 157.832H522.26V157.016C522.26 156.536 522.111 156.163 521.812 155.896C521.513 155.629 521.092 155.496 520.548 155.496C520.068 155.496 519.668 155.603 519.348 155.816C519.028 156.019 518.841 156.291 518.788 156.632H517.092C517.188 155.843 517.551 155.213 518.18 154.744C518.82 154.275 519.625 154.04 520.596 154.04C521.641 154.04 522.468 154.307 523.076 154.84C523.684 155.363 523.988 156.077 523.988 156.984V163H522.308V161.384H522.02L522.308 161.064C522.308 161.704 522.063 162.216 521.572 162.6C521.081 162.973 520.431 163.16 519.62 163.16ZM520.132 161.832C520.751 161.832 521.257 161.677 521.652 161.368C522.057 161.048 522.26 160.643 522.26 160.152V159H519.844C519.396 159 519.039 159.123 518.772 159.368C518.516 159.613 518.388 159.949 518.388 160.376C518.388 160.824 518.543 161.181 518.852 161.448C519.161 161.704 519.588 161.832 520.132 161.832ZM530.558 163C530.014 163 529.539 162.893 529.134 162.68C528.728 162.456 528.408 162.141 528.174 161.736C527.95 161.331 527.838 160.861 527.838 160.328V152.888H524.958V151.32H529.566V160.328C529.566 160.669 529.662 160.941 529.854 161.144C530.046 161.336 530.307 161.432 530.638 161.432H533.358V163H530.558ZM377.24 179.504V177.936H382.36V179.504H377.24ZM393.643 184V172.32H395.771L396.939 176.064C397.057 176.416 397.158 176.757 397.243 177.088C397.329 177.408 397.387 177.648 397.419 177.808C397.462 177.648 397.521 177.408 397.595 177.088C397.681 176.757 397.777 176.416 397.884 176.064L399.003 172.32H401.132V184H399.499V180.064C399.499 179.563 399.51 179.008 399.531 178.4C399.563 177.781 399.606 177.163 399.66 176.544C399.713 175.915 399.766 175.317 399.819 174.752C399.873 174.176 399.921 173.675 399.964 173.248L398.235 178.928H396.571L394.811 173.248C394.865 173.664 394.918 174.149 394.971 174.704C395.025 175.248 395.073 175.829 395.115 176.448C395.158 177.067 395.195 177.691 395.227 178.32C395.259 178.939 395.275 179.52 395.275 180.064V184H393.643ZM405.301 184.16C404.384 184.16 403.659 183.925 403.125 183.456C402.603 182.976 402.341 182.325 402.341 181.504C402.341 180.672 402.619 180.021 403.173 179.552C403.739 179.072 404.512 178.832 405.493 178.832H407.941V178.016C407.941 177.536 407.792 177.163 407.493 176.896C407.195 176.629 406.773 176.496 406.229 176.496C405.749 176.496 405.349 176.603 405.029 176.816C404.709 177.019 404.523 177.291 404.469 177.632H402.773C402.869 176.843 403.232 176.213 403.861 175.744C404.501 175.275 405.307 175.04 406.277 175.04C407.323 175.04 408.149 175.307 408.757 175.84C409.365 176.363 409.669 177.077 409.669 177.984V184H407.989V182.384H407.701L407.989 182.064C407.989 182.704 407.744 183.216 407.253 183.6C406.763 183.973 406.112 184.16 405.301 184.16ZM405.813 182.832C406.432 182.832 406.939 182.677 407.333 182.368C407.739 182.048 407.941 181.643 407.941 181.152V180H405.525C405.077 180 404.72 180.123 404.453 180.368C404.197 180.613 404.069 180.949 404.069 181.376C404.069 181.824 404.224 182.181 404.533 182.448C404.843 182.704 405.269 182.832 405.813 182.832ZM410.863 184L413.951 179.456L411.055 175.2H413.039L414.591 177.632C414.666 177.76 414.74 177.899 414.815 178.048C414.89 178.187 414.948 178.304 414.991 178.4C415.023 178.304 415.076 178.187 415.151 178.048C415.226 177.899 415.3 177.76 415.375 177.632L416.927 175.2H418.911L416.015 179.472L419.087 184H417.103L415.391 181.36C415.316 181.232 415.242 181.088 415.167 180.928C415.092 180.768 415.034 180.64 414.991 180.544C414.948 180.64 414.884 180.768 414.799 180.928C414.724 181.088 414.644 181.232 414.559 181.36L412.831 184H410.863ZM420.265 184V182.432H423.353V176.768H420.665V175.2H425.033V182.432H427.865V184H420.265ZM424.025 173.68C423.651 173.68 423.353 173.584 423.129 173.392C422.905 173.189 422.793 172.923 422.793 172.592C422.793 172.251 422.905 171.984 423.129 171.792C423.353 171.589 423.651 171.488 424.025 171.488C424.398 171.488 424.697 171.589 424.921 171.792C425.145 171.984 425.257 172.251 425.257 172.592C425.257 172.923 425.145 173.189 424.921 173.392C424.697 173.584 424.398 173.68 424.025 173.68ZM428.707 184V175.2H430.147V176.32H430.467L430.227 176.656C430.227 176.165 430.36 175.776 430.627 175.488C430.893 175.189 431.251 175.04 431.699 175.04C432.179 175.04 432.547 175.227 432.803 175.6C433.069 175.973 433.203 176.485 433.203 177.136L432.819 176.32H433.427L433.171 176.656C433.171 176.165 433.304 175.776 433.571 175.488C433.848 175.189 434.216 175.04 434.675 175.04C435.219 175.04 435.645 175.248 435.955 175.664C436.264 176.069 436.419 176.613 436.419 177.296V184H434.883V177.344C434.883 177.013 434.808 176.757 434.659 176.576C434.52 176.395 434.317 176.304 434.051 176.304C433.784 176.304 433.576 176.395 433.427 176.576C433.288 176.747 433.219 176.997 433.219 177.328V184H431.923V177.344C431.923 177.003 431.848 176.747 431.699 176.576C431.549 176.395 431.336 176.304 431.059 176.304C430.792 176.304 430.589 176.395 430.451 176.576C430.323 176.747 430.259 176.997 430.259 177.328V184H428.707ZM441.34 184.16C440.284 184.16 439.442 183.856 438.812 183.248C438.183 182.629 437.868 181.792 437.868 180.736V175.2H439.596V180.736C439.596 181.344 439.751 181.819 440.06 182.16C440.37 182.491 440.796 182.656 441.34 182.656C441.895 182.656 442.327 182.491 442.636 182.16C442.956 181.819 443.116 181.344 443.116 180.736V175.2H444.844V180.736C444.844 181.792 444.524 182.629 443.884 183.248C443.255 183.856 442.407 184.16 441.34 184.16ZM446.294 184V175.2H447.734V176.32H448.054L447.814 176.656C447.814 176.165 447.947 175.776 448.214 175.488C448.481 175.189 448.838 175.04 449.286 175.04C449.766 175.04 450.134 175.227 450.39 175.6C450.657 175.973 450.79 176.485 450.79 177.136L450.406 176.32H451.014L450.758 176.656C450.758 176.165 450.891 175.776 451.158 175.488C451.435 175.189 451.803 175.04 452.262 175.04C452.806 175.04 453.233 175.248 453.542 175.664C453.851 176.069 454.006 176.613 454.006 177.296V184H452.47V177.344C452.47 177.013 452.395 176.757 452.246 176.576C452.107 176.395 451.905 176.304 451.638 176.304C451.371 176.304 451.163 176.395 451.014 176.576C450.875 176.747 450.806 176.997 450.806 177.328V184H449.51V177.344C449.51 177.003 449.435 176.747 449.286 176.576C449.137 176.395 448.923 176.304 448.646 176.304C448.379 176.304 448.177 176.395 448.038 176.576C447.91 176.747 447.846 176.997 447.846 177.328V184H446.294ZM467.802 184.16C467.076 184.16 466.442 184.027 465.898 183.76C465.364 183.483 464.948 183.088 464.65 182.576C464.362 182.053 464.218 181.445 464.218 180.752V175.568C464.218 174.864 464.362 174.256 464.65 173.744C464.948 173.232 465.364 172.843 465.898 172.576C466.442 172.299 467.076 172.16 467.802 172.16C468.527 172.16 469.156 172.299 469.69 172.576C470.223 172.853 470.634 173.248 470.922 173.76C471.22 174.261 471.37 174.864 471.37 175.568H469.642C469.642 174.96 469.482 174.496 469.162 174.176C468.842 173.856 468.388 173.696 467.802 173.696C467.215 173.696 466.756 173.856 466.426 174.176C466.106 174.496 465.946 174.955 465.946 175.552V180.752C465.946 181.349 466.106 181.813 466.426 182.144C466.756 182.464 467.215 182.624 467.802 182.624C468.388 182.624 468.842 182.464 469.162 182.144C469.482 181.813 469.642 181.349 469.642 180.752H471.37C471.37 181.445 471.22 182.048 470.922 182.56C470.634 183.072 470.223 183.467 469.69 183.744C469.156 184.021 468.527 184.16 467.802 184.16ZM476.531 184.144C475.806 184.144 475.177 184.005 474.643 183.728C474.11 183.451 473.699 183.056 473.411 182.544C473.123 182.032 472.979 181.429 472.979 180.736V178.464C472.979 177.76 473.123 177.157 473.411 176.656C473.699 176.144 474.11 175.749 474.643 175.472C475.177 175.195 475.806 175.056 476.531 175.056C477.257 175.056 477.886 175.195 478.419 175.472C478.953 175.749 479.363 176.144 479.651 176.656C479.939 177.157 480.083 177.76 480.083 178.464V180.736C480.083 181.429 479.939 182.032 479.651 182.544C479.363 183.056 478.953 183.451 478.419 183.728C477.886 184.005 477.257 184.144 476.531 184.144ZM476.531 182.624C477.118 182.624 477.571 182.464 477.891 182.144C478.211 181.813 478.371 181.344 478.371 180.736V178.464C478.371 177.845 478.211 177.376 477.891 177.056C477.571 176.736 477.118 176.576 476.531 176.576C475.955 176.576 475.502 176.736 475.171 177.056C474.851 177.376 474.691 177.845 474.691 178.464V180.736C474.691 181.344 474.851 181.813 475.171 182.144C475.502 182.464 475.955 182.624 476.531 182.624ZM486.589 184C486.045 184 485.57 183.893 485.165 183.68C484.76 183.456 484.44 183.141 484.205 182.736C483.981 182.331 483.869 181.861 483.869 181.328V173.888H480.989V172.32H485.597V181.328C485.597 181.669 485.693 181.941 485.885 182.144C486.077 182.336 486.338 182.432 486.669 182.432H489.389V184H486.589ZM495.383 184C494.839 184 494.364 183.893 493.959 183.68C493.553 183.456 493.233 183.141 492.999 182.736C492.775 182.331 492.663 181.861 492.663 181.328V173.888H489.783V172.32H494.391V181.328C494.391 181.669 494.487 181.941 494.679 182.144C494.871 182.336 495.132 182.432 495.463 182.432H498.183V184H495.383ZM499.409 184V182.432H502.497V176.768H499.809V175.2H504.177V182.432H507.009V184H499.409ZM503.169 173.68C502.795 173.68 502.497 173.584 502.273 173.392C502.049 173.189 501.937 172.923 501.937 172.592C501.937 172.251 502.049 171.984 502.273 171.792C502.497 171.589 502.795 171.488 503.169 171.488C503.542 171.488 503.841 171.589 504.065 171.792C504.289 171.984 504.401 172.251 504.401 172.592C504.401 172.923 504.289 173.189 504.065 173.392C503.841 173.584 503.542 173.68 503.169 173.68ZM508.25 184V175.2H509.962V176.88H510.378L509.962 177.28C509.962 176.576 510.17 176.027 510.586 175.632C511.002 175.237 511.578 175.04 512.314 175.04C513.189 175.04 513.888 175.323 514.41 175.888C514.933 176.443 515.194 177.195 515.194 178.144V184H513.466V178.336C513.466 177.76 513.312 177.317 513.002 177.008C512.693 176.699 512.272 176.544 511.738 176.544C511.194 176.544 510.762 176.709 510.442 177.04C510.133 177.36 509.978 177.829 509.978 178.448V184H508.25ZM520.5 184.16C519.785 184.16 519.156 184.021 518.612 183.744C518.079 183.456 517.668 183.056 517.38 182.544C517.092 182.032 516.948 181.435 516.948 180.752V178.448C516.948 177.755 517.092 177.157 517.38 176.656C517.668 176.144 518.079 175.749 518.612 175.472C519.156 175.184 519.785 175.04 520.5 175.04C521.225 175.04 521.855 175.184 522.388 175.472C522.921 175.749 523.332 176.144 523.62 176.656C523.908 177.157 524.052 177.755 524.052 178.448V180.016H518.612V180.752C518.612 181.403 518.772 181.899 519.092 182.24C519.423 182.581 519.897 182.752 520.516 182.752C521.017 182.752 521.423 182.667 521.732 182.496C522.041 182.315 522.233 182.053 522.308 181.712H524.02C523.892 182.459 523.508 183.056 522.868 183.504C522.228 183.941 521.439 184.16 520.5 184.16ZM522.388 178.976V178.432C522.388 177.792 522.228 177.296 521.908 176.944C521.588 176.592 521.119 176.416 520.5 176.416C519.892 176.416 519.423 176.592 519.092 176.944C518.772 177.296 518.612 177.797 518.612 178.448V178.848L522.516 178.832L522.388 178.976ZM528.414 184.16C527.496 184.16 526.771 183.925 526.238 183.456C525.715 182.976 525.454 182.325 525.454 181.504C525.454 180.672 525.731 180.021 526.286 179.552C526.851 179.072 527.624 178.832 528.606 178.832H531.054V178.016C531.054 177.536 530.904 177.163 530.606 176.896C530.307 176.629 529.886 176.496 529.342 176.496C528.862 176.496 528.462 176.603 528.142 176.816C527.822 177.019 527.635 177.291 527.582 177.632H525.886C525.982 176.843 526.344 176.213 526.974 175.744C527.614 175.275 528.419 175.04 529.39 175.04C530.435 175.04 531.262 175.307 531.87 175.84C532.478 176.363 532.782 177.077 532.782 177.984V184H531.102V182.384H530.814L531.102 182.064C531.102 182.704 530.856 183.216 530.366 183.6C529.875 183.973 529.224 184.16 528.414 184.16ZM528.926 182.832C529.544 182.832 530.051 182.677 530.446 182.368C530.851 182.048 531.054 181.643 531.054 181.152V180H528.638C528.19 180 527.832 180.123 527.566 180.368C527.31 180.613 527.182 180.949 527.182 181.376C527.182 181.824 527.336 182.181 527.646 182.448C527.955 182.704 528.382 182.832 528.926 182.832ZM534.92 184V175.2H536.584V176.88H537L536.472 177.92C536.472 176.971 536.68 176.256 537.096 175.776C537.512 175.285 538.13 175.04 538.952 175.04C539.89 175.04 540.632 175.333 541.176 175.92C541.73 176.496 542.008 177.291 542.008 178.304V178.896H540.232V178.448C540.232 177.819 540.072 177.339 539.752 177.008C539.442 176.667 539.005 176.496 538.44 176.496C537.874 176.496 537.432 176.667 537.112 177.008C536.802 177.349 536.648 177.829 536.648 178.448V184H534.92ZM552.219 184V172.32H556.043C556.8 172.32 557.456 172.464 558.011 172.752C558.576 173.04 559.008 173.451 559.307 173.984C559.616 174.507 559.771 175.125 559.771 175.84C559.771 176.544 559.616 177.163 559.307 177.696C558.998 178.229 558.566 178.64 558.011 178.928C557.456 179.216 556.8 179.36 556.043 179.36H553.947V184H552.219ZM553.947 177.808H556.043C556.64 177.808 557.115 177.632 557.467 177.28C557.83 176.917 558.011 176.437 558.011 175.84C558.011 175.232 557.83 174.752 557.467 174.4C557.115 174.048 556.64 173.872 556.043 173.872H553.947V177.808ZM564.469 184.144C563.743 184.144 563.114 184.005 562.581 183.728C562.047 183.451 561.637 183.056 561.349 182.544C561.061 182.032 560.917 181.429 560.917 180.736V178.464C560.917 177.76 561.061 177.157 561.349 176.656C561.637 176.144 562.047 175.749 562.581 175.472C563.114 175.195 563.743 175.056 564.469 175.056C565.194 175.056 565.823 175.195 566.357 175.472C566.89 175.749 567.301 176.144 567.589 176.656C567.877 177.157 568.021 177.76 568.021 178.464V180.736C568.021 181.429 567.877 182.032 567.589 182.544C567.301 183.056 566.89 183.451 566.357 183.728C565.823 184.005 565.194 184.144 564.469 184.144ZM564.469 182.624C565.055 182.624 565.509 182.464 565.829 182.144C566.149 181.813 566.309 181.344 566.309 180.736V178.464C566.309 177.845 566.149 177.376 565.829 177.056C565.509 176.736 565.055 176.576 564.469 176.576C563.893 176.576 563.439 176.736 563.109 177.056C562.789 177.376 562.629 177.845 562.629 178.464V180.736C562.629 181.344 562.789 181.813 563.109 182.144C563.439 182.464 563.893 182.624 564.469 182.624ZM569.758 184V182.432H572.846V176.768H570.158V175.2H574.526V182.432H577.358V184H569.758ZM573.518 173.68C573.145 173.68 572.846 173.584 572.622 173.392C572.398 173.189 572.286 172.923 572.286 172.592C572.286 172.251 572.398 171.984 572.622 171.792C572.846 171.589 573.145 171.488 573.518 171.488C573.892 171.488 574.19 171.589 574.414 171.792C574.638 171.984 574.75 172.251 574.75 172.592C574.75 172.923 574.638 173.189 574.414 173.392C574.19 173.584 573.892 173.68 573.518 173.68ZM578.6 184V175.2H580.312V176.88H580.728L580.312 177.28C580.312 176.576 580.52 176.027 580.936 175.632C581.352 175.237 581.928 175.04 582.664 175.04C583.539 175.04 584.238 175.323 584.76 175.888C585.283 176.443 585.544 177.195 585.544 178.144V184H583.816V178.336C583.816 177.76 583.662 177.317 583.352 177.008C583.043 176.699 582.622 176.544 582.088 176.544C581.544 176.544 581.112 176.709 580.792 177.04C580.483 177.36 580.328 177.829 580.328 178.448V184H578.6ZM591.81 184C591.01 184 590.386 183.781 589.938 183.344C589.49 182.907 589.266 182.299 589.266 181.52V176.768H586.834V175.2H589.266V172.72H590.994V175.2H594.434V176.768H590.994V181.52C590.994 182.128 591.287 182.432 591.874 182.432H594.274V184H591.81ZM599.34 184.144C598.71 184.144 598.156 184.043 597.676 183.84C597.206 183.637 596.833 183.36 596.556 183.008C596.289 182.645 596.134 182.219 596.092 181.728H597.82C597.862 182.016 598.017 182.251 598.284 182.432C598.55 182.603 598.902 182.688 599.34 182.688H600.028C600.55 182.688 600.945 182.581 601.212 182.368C601.478 182.155 601.612 181.872 601.612 181.52C601.612 181.179 601.489 180.912 601.244 180.72C601.009 180.517 600.657 180.384 600.188 180.32L599.052 180.144C598.113 179.995 597.42 179.728 596.972 179.344C596.534 178.949 596.316 178.368 596.316 177.6C596.316 176.789 596.577 176.165 597.1 175.728C597.633 175.28 598.417 175.056 599.452 175.056H600.06C600.977 175.056 601.708 175.269 602.252 175.696C602.806 176.112 603.121 176.672 603.196 177.376H601.468C601.425 177.12 601.281 176.912 601.036 176.752C600.801 176.592 600.476 176.512 600.06 176.512H599.452C598.95 176.512 598.582 176.608 598.348 176.8C598.124 176.981 598.012 177.253 598.012 177.616C598.012 177.936 598.113 178.176 598.316 178.336C598.518 178.496 598.833 178.608 599.26 178.672L600.428 178.864C601.42 179.003 602.145 179.28 602.604 179.696C603.073 180.101 603.308 180.693 603.308 181.472C603.308 182.315 603.03 182.971 602.476 183.44C601.932 183.909 601.116 184.144 600.028 184.144H599.34Z" fill="black"/>
</svg>
