<svg width="356" height="296" viewBox="0 0 356 296" fill="none" xmlns="http://www.w3.org/2000/svg">
<g clip-path="url(#clip0_6175_1272)">
<rect width="356" height="296" fill="white"/>
<path d="M58.8926 12.9209C58.8926 14.0739 58.7673 15.1051 58.5166 16.0146C58.266 16.9242 57.8971 17.694 57.4102 18.3242C56.9303 18.9473 56.3431 19.4235 55.6484 19.7529C54.9538 20.0824 54.1589 20.2471 53.2637 20.2471C52.4902 20.2471 51.7777 20.111 51.126 19.8389C50.4743 19.5667 49.9121 19.1406 49.4395 18.5605C48.9668 17.9733 48.598 17.2249 48.333 16.3154C48.068 15.4059 47.9355 14.3174 47.9355 13.0498C47.9355 11.8968 48.0609 10.8656 48.3115 9.95605C48.5693 9.04655 48.9382 8.28027 49.418 7.65723C49.8978 7.02702 50.4886 6.5472 51.1904 6.21777C51.8923 5.88835 52.6872 5.72363 53.5752 5.72363C54.3486 5.72363 55.0612 5.8597 55.7129 6.13184C56.3646 6.40397 56.9232 6.83008 57.3887 7.41016C57.8613 7.99023 58.2301 8.73503 58.4951 9.64453C58.7601 10.554 58.8926 11.6462 58.8926 12.9209ZM50.5781 12.9639C50.5781 13.1071 50.5781 13.2432 50.5781 13.3721C50.5781 13.4938 50.5853 13.6191 50.5996 13.748L55.8633 9.94531C55.6126 9.23633 55.2796 8.71354 54.8643 8.37695C54.4561 8.0332 53.9727 7.86133 53.4141 7.86133C53.013 7.86133 52.6406 7.96517 52.2969 8.17285C51.9531 8.37337 51.6523 8.6849 51.3945 9.10742C51.1439 9.52995 50.9434 10.0599 50.793 10.6973C50.6497 11.3346 50.5781 12.0902 50.5781 12.9639ZM56.25 13.0068C56.25 12.8851 56.2464 12.7633 56.2393 12.6416C56.2321 12.5127 56.2285 12.391 56.2285 12.2764L50.9971 16.0576C51.2262 16.7523 51.5485 17.2679 51.9639 17.6045C52.3792 17.9411 52.8626 18.1094 53.4141 18.1094C53.8151 18.1094 54.1875 18.0055 54.5312 17.7979C54.8822 17.5902 55.1829 17.2786 55.4336 16.8633C55.6914 16.4408 55.8919 15.9108 56.0352 15.2734C56.1784 14.6289 56.25 13.8734 56.25 13.0068Z" fill="black"/>
<path opacity="0.5" d="M126.076 20H117.257V18.2598H120.866V8.01172L117.504 9.83789L116.816 8.24805L121.285 5.89551H122.939V18.2598H126.076V20Z" fill="black"/>
<path opacity="0.5" d="M192.78 20.1599H183.531V18.4841L187.162 14.8748C187.757 14.2875 188.24 13.7791 188.612 13.3494C188.985 12.9197 189.275 12.5294 189.482 12.1785C189.69 11.8204 189.83 11.4838 189.901 11.1687C189.973 10.8536 190.009 10.5134 190.009 10.1482C190.009 9.80444 189.962 9.4786 189.869 9.17065C189.776 8.85555 189.633 8.57983 189.439 8.34351C189.246 8.10718 188.995 7.92098 188.688 7.78491C188.38 7.64884 188.011 7.58081 187.581 7.58081C186.987 7.58081 186.446 7.7133 185.959 7.97827C185.472 8.24325 185.024 8.587 184.616 9.00952L183.585 7.77417C184.115 7.21558 184.724 6.76799 185.411 6.4314C186.106 6.09481 186.911 5.92651 187.828 5.92651C188.451 5.92651 189.017 6.01961 189.525 6.20581C190.041 6.39201 190.485 6.66056 190.857 7.01147C191.23 7.36239 191.516 7.79207 191.717 8.30054C191.924 8.809 192.028 9.38192 192.028 10.0193C192.028 10.5564 191.957 11.0541 191.813 11.5125C191.67 11.9708 191.452 12.4291 191.158 12.8875C190.872 13.3386 190.507 13.8077 190.062 14.2947C189.626 14.7817 189.106 15.3152 188.505 15.8953L185.959 18.3767H192.78V20.1599Z" fill="black"/>
<path opacity="0.5" d="M256.512 15.8953C256.512 16.5111 256.386 17.0912 256.136 17.6355C255.885 18.1726 255.509 18.6453 255.008 19.0535C254.507 19.4545 253.876 19.7732 253.117 20.0095C252.358 20.2387 251.474 20.3533 250.464 20.3533C249.905 20.3533 249.404 20.3354 248.96 20.2996C248.516 20.2638 248.101 20.2172 247.714 20.1599V18.4841C248.158 18.5629 248.627 18.6238 249.121 18.6667C249.615 18.7097 250.12 18.7312 250.636 18.7312C251.338 18.7312 251.936 18.6703 252.43 18.5486C252.931 18.4197 253.339 18.2371 253.654 18.0007C253.969 17.7644 254.199 17.4779 254.342 17.1414C254.485 16.8048 254.557 16.4252 254.557 16.0027C254.557 15.616 254.471 15.2794 254.299 14.9929C254.127 14.7065 253.883 14.4666 253.568 14.2732C253.26 14.0798 252.888 13.9366 252.451 13.8435C252.021 13.7432 251.549 13.6931 251.033 13.6931H249.433V12.157H251.055C251.477 12.157 251.86 12.1033 252.204 11.9958C252.555 11.8813 252.852 11.7201 253.096 11.5125C253.346 11.3048 253.536 11.0505 253.665 10.7498C253.801 10.4418 253.869 10.0945 253.869 9.70776C253.869 8.95581 253.64 8.40796 253.182 8.06421C252.723 7.72046 252.05 7.54858 251.162 7.54858C250.689 7.54858 250.202 7.59513 249.701 7.68823C249.2 7.78133 248.663 7.92098 248.09 8.10718V6.47437C248.333 6.38843 248.591 6.31323 248.863 6.24878C249.143 6.17716 249.418 6.11987 249.69 6.0769C249.97 6.02677 250.245 5.99097 250.518 5.96948C250.79 5.94084 251.051 5.92651 251.302 5.92651C252.047 5.92651 252.702 6.00887 253.268 6.17358C253.833 6.33114 254.306 6.5603 254.686 6.86108C255.065 7.16187 255.352 7.5271 255.545 7.95679C255.738 8.38647 255.835 8.86987 255.835 9.40698C255.835 10.2091 255.627 10.8822 255.212 11.4265C254.804 11.9708 254.242 12.4041 253.525 12.7263C253.891 12.7836 254.249 12.8982 254.6 13.0701C254.958 13.2419 255.276 13.4639 255.556 13.7361C255.842 14.0011 256.071 14.3162 256.243 14.6814C256.422 15.0466 256.512 15.4513 256.512 15.8953Z" fill="black"/>
<path opacity="0.5" d="M323.479 17.0554H321.083V20.1599H319.171V17.0554H312.414V15.4119L318.397 6.11987H321.083V15.4119H323.479V17.0554ZM319.171 7.92456L314.283 15.4119H319.171V7.92456Z" fill="black"/>
<rect x="19.5" y="26.5" width="334" height="267" rx="6.5" fill="white" stroke="black" stroke-width="5"/>
<path d="M20.9141 33C20.9141 29.9624 23.3765 27.5 26.4141 27.5H87.9141V94.5H20.9141V33Z" fill="#FFE7DC" stroke="#7A7A7A"/>
<rect x="87.9141" y="27.5" width="66" height="67" fill="white" stroke="#7A7A7A"/>
<rect x="87.9141" y="27.5" width="66" height="67" fill="#FFE7DC" stroke="#7A7A7A"/>
<rect x="153.914" y="27.5" width="66" height="67" fill="white" stroke="#7A7A7A"/>
<rect x="153.914" y="27.5" width="66" height="67" fill="#FFE7DC" stroke="#7A7A7A"/>
<rect x="219.914" y="27.5" width="66" height="67" fill="white" stroke="#7A7A7A"/>
<rect x="219.914" y="27.5" width="66" height="67" fill="#FFE7DC" stroke="#7A7A7A"/>
<path d="M284.914 27.5H346.414C349.452 27.5 351.914 29.9624 351.914 33V94.5H284.914V27.5Z" fill="#FFE7DC" stroke="#7A7A7A"/>
<path d="M60.2715 71H48.2451V68.627H53.167V54.6523L48.582 57.1426L47.6445 54.9746L53.7383 51.7666H55.9941V68.627H60.2715V71Z" fill="#999999"/>
<path d="M128.385 61.3467C128.385 62.9189 128.214 64.3252 127.872 65.5654C127.53 66.8057 127.027 67.8555 126.363 68.7148C125.709 69.5645 124.908 70.2139 123.961 70.6631C123.014 71.1123 121.93 71.3369 120.709 71.3369C119.654 71.3369 118.683 71.1514 117.794 70.7803C116.905 70.4092 116.139 69.8281 115.494 69.0371C114.85 68.2363 114.347 67.2158 113.985 65.9756C113.624 64.7354 113.443 63.251 113.443 61.5225C113.443 59.9502 113.614 58.5439 113.956 57.3037C114.308 56.0635 114.811 55.0186 115.465 54.1689C116.119 53.3096 116.925 52.6553 117.882 52.2061C118.839 51.7568 119.923 51.5322 121.134 51.5322C122.188 51.5322 123.16 51.7178 124.049 52.0889C124.938 52.46 125.699 53.041 126.334 53.832C126.979 54.623 127.481 55.6387 127.843 56.8789C128.204 58.1191 128.385 59.6084 128.385 61.3467ZM117.047 61.4053C117.047 61.6006 117.047 61.7861 117.047 61.9619C117.047 62.1279 117.057 62.2988 117.076 62.4746L124.254 57.2891C123.912 56.3223 123.458 55.6094 122.892 55.1504C122.335 54.6816 121.676 54.4473 120.914 54.4473C120.367 54.4473 119.859 54.5889 119.391 54.8721C118.922 55.1455 118.512 55.5703 118.16 56.1465C117.818 56.7227 117.545 57.4453 117.34 58.3145C117.145 59.1836 117.047 60.2139 117.047 61.4053ZM124.781 61.4639C124.781 61.2979 124.776 61.1318 124.767 60.9658C124.757 60.79 124.752 60.624 124.752 60.4678L117.618 65.624C117.931 66.5713 118.37 67.2744 118.937 67.7334C119.503 68.1924 120.162 68.4219 120.914 68.4219C121.461 68.4219 121.969 68.2803 122.438 67.9971C122.916 67.7139 123.326 67.2891 123.668 66.7227C124.02 66.1465 124.293 65.4238 124.488 64.5547C124.684 63.6758 124.781 62.6455 124.781 61.4639Z" fill="black"/>
<path d="M193.066 65.1846C193.066 66.0244 192.896 66.8154 192.554 67.5576C192.212 68.29 191.699 68.9346 191.016 69.4912C190.332 70.0381 189.473 70.4727 188.438 70.7949C187.402 71.1074 186.196 71.2637 184.819 71.2637C184.058 71.2637 183.374 71.2393 182.769 71.1904C182.163 71.1416 181.597 71.0781 181.069 71V68.7148C181.675 68.8223 182.314 68.9053 182.988 68.9639C183.662 69.0225 184.351 69.0518 185.054 69.0518C186.011 69.0518 186.826 68.9688 187.5 68.8027C188.184 68.627 188.74 68.3779 189.17 68.0557C189.6 67.7334 189.912 67.3428 190.107 66.8838C190.303 66.4248 190.4 65.9072 190.4 65.3311C190.4 64.8037 190.283 64.3447 190.049 63.9541C189.814 63.5635 189.482 63.2363 189.053 62.9727C188.633 62.709 188.125 62.5137 187.529 62.3867C186.943 62.25 186.299 62.1816 185.596 62.1816H183.413V60.0869H185.625C186.201 60.0869 186.724 60.0137 187.192 59.8672C187.671 59.7109 188.076 59.4912 188.408 59.208C188.75 58.9248 189.009 58.5781 189.185 58.168C189.37 57.748 189.463 57.2744 189.463 56.7471C189.463 55.7217 189.15 54.9746 188.525 54.5059C187.9 54.0371 186.982 53.8027 185.771 53.8027C185.127 53.8027 184.463 53.8662 183.779 53.9932C183.096 54.1201 182.363 54.3105 181.582 54.5645V52.3379C181.914 52.2207 182.266 52.1182 182.637 52.0303C183.018 51.9326 183.394 51.8545 183.765 51.7959C184.146 51.7275 184.521 51.6787 184.893 51.6494C185.264 51.6104 185.62 51.5908 185.962 51.5908C186.978 51.5908 187.871 51.7031 188.643 51.9277C189.414 52.1426 190.059 52.4551 190.576 52.8652C191.094 53.2754 191.484 53.7734 191.748 54.3594C192.012 54.9453 192.144 55.6045 192.144 56.3369C192.144 57.4307 191.86 58.3486 191.294 59.0908C190.737 59.833 189.971 60.4238 188.994 60.8633C189.492 60.9414 189.98 61.0977 190.459 61.332C190.947 61.5664 191.382 61.8691 191.763 62.2402C192.153 62.6016 192.466 63.0312 192.7 63.5293C192.944 64.0273 193.066 64.5791 193.066 65.1846Z" fill="#999999"/>
<path d="M260.385 66.7666H257.118V71H254.511V66.7666H245.297V64.5254L253.456 51.8545H257.118V64.5254H260.385V66.7666ZM254.511 54.3154L247.846 64.5254H254.511V54.3154Z" fill="#999999"/>
<path d="M326.385 61.3467C326.385 62.9189 326.214 64.3252 325.872 65.5654C325.53 66.8057 325.027 67.8555 324.363 68.7148C323.709 69.5645 322.908 70.2139 321.961 70.6631C321.014 71.1123 319.93 71.3369 318.709 71.3369C317.654 71.3369 316.683 71.1514 315.794 70.7803C314.905 70.4092 314.139 69.8281 313.494 69.0371C312.85 68.2363 312.347 67.2158 311.985 65.9756C311.624 64.7354 311.443 63.251 311.443 61.5225C311.443 59.9502 311.614 58.5439 311.956 57.3037C312.308 56.0635 312.811 55.0186 313.465 54.1689C314.119 53.3096 314.925 52.6553 315.882 52.2061C316.839 51.7568 317.923 51.5322 319.134 51.5322C320.188 51.5322 321.16 51.7178 322.049 52.0889C322.938 52.46 323.699 53.041 324.334 53.832C324.979 54.623 325.481 55.6387 325.843 56.8789C326.204 58.1191 326.385 59.6084 326.385 61.3467ZM315.047 61.4053C315.047 61.6006 315.047 61.7861 315.047 61.9619C315.047 62.1279 315.057 62.2988 315.076 62.4746L322.254 57.2891C321.912 56.3223 321.458 55.6094 320.892 55.1504C320.335 54.6816 319.676 54.4473 318.914 54.4473C318.367 54.4473 317.859 54.5889 317.391 54.8721C316.922 55.1455 316.512 55.5703 316.16 56.1465C315.818 56.7227 315.545 57.4453 315.34 58.3145C315.145 59.1836 315.047 60.2139 315.047 61.4053ZM322.781 61.4639C322.781 61.2979 322.776 61.1318 322.767 60.9658C322.757 60.79 322.752 60.624 322.752 60.4678L315.618 65.624C315.931 66.5713 316.37 67.2744 316.937 67.7334C317.503 68.1924 318.162 68.4219 318.914 68.4219C319.461 68.4219 319.969 68.2803 320.438 67.9971C320.916 67.7139 321.326 67.2891 321.668 66.7227C322.02 66.1465 322.293 65.4238 322.488 64.5547C322.684 63.6758 322.781 62.6455 322.781 61.4639Z" fill="black"/>
<path d="M11.4785 62.0808C11.4785 63.2338 11.3532 64.2651 11.1025 65.1746C10.8519 66.0841 10.4831 66.8539 9.99609 67.4841C9.51628 68.1072 8.92904 68.5834 8.23438 68.9128C7.53971 69.2423 6.74479 69.407 5.84961 69.407C5.07617 69.407 4.36361 69.2709 3.71191 68.9988C3.06022 68.7266 2.49805 68.3005 2.02539 67.7205C1.55273 67.1332 1.18392 66.3848 0.918945 65.4753C0.653971 64.5658 0.521484 63.4773 0.521484 62.2097C0.521484 61.0567 0.64681 60.0255 0.897461 59.116C1.15527 58.2065 1.52409 57.4402 2.00391 56.8171C2.48372 56.1869 3.07454 55.7071 3.77637 55.3777C4.47819 55.0483 5.27311 54.8835 6.16113 54.8835C6.93457 54.8835 7.64714 55.0196 8.29883 55.2917C8.95052 55.5639 9.50911 55.99 9.97461 56.5701C10.4473 57.1501 10.8161 57.8949 11.0811 58.8044C11.346 59.7139 11.4785 60.8061 11.4785 62.0808ZM3.16406 62.1238C3.16406 62.267 3.16406 62.4031 3.16406 62.532C3.16406 62.6537 3.17122 62.7791 3.18555 62.908L8.44922 59.1052C8.19857 58.3962 7.86556 57.8735 7.4502 57.5369C7.04199 57.1931 6.55859 57.0212 6 57.0212C5.59896 57.0212 5.22656 57.1251 4.88281 57.3328C4.53906 57.5333 4.23828 57.8448 3.98047 58.2673C3.72982 58.6899 3.5293 59.2198 3.37891 59.8572C3.23568 60.4945 3.16406 61.2501 3.16406 62.1238ZM8.83594 62.1667C8.83594 62.045 8.83236 61.9233 8.8252 61.8015C8.81803 61.6726 8.81445 61.5509 8.81445 61.4363L3.58301 65.2175C3.81217 65.9122 4.13444 66.4278 4.5498 66.7644C4.96517 67.101 5.44857 67.2693 6 67.2693C6.40104 67.2693 6.77344 67.1654 7.11719 66.9578C7.4681 66.7501 7.76888 66.4386 8.01953 66.0232C8.27734 65.6007 8.47786 65.0707 8.62109 64.4333C8.76432 63.7888 8.83594 63.0333 8.83594 62.1667Z" fill="black"/>
<g filter="url(#filter0_d_6175_1272)">
<path d="M121.707 77.2929C121.317 76.9024 120.683 76.9024 120.293 77.2929L113.929 83.6569C113.538 84.0474 113.538 84.6805 113.929 85.0711C114.319 85.4616 114.953 85.4616 115.343 85.0711L121 79.4142L126.657 85.0711C127.047 85.4616 127.681 85.4616 128.071 85.0711C128.462 84.6805 128.462 84.0474 128.071 83.6569L121.707 77.2929ZM122 114L122 78L120 78L120 114L122 114Z" fill="black"/>
</g>
<rect x="20.9141" y="94.5" width="67" height="66" fill="#FFE7DC" stroke="#7A7A7A"/>
<rect x="87.9141" y="94.5" width="66" height="66" stroke="#7A7A7A"/>
<rect x="153.914" y="94.5" width="66" height="66" fill="white" stroke="#7A7A7A"/>
<rect x="219.914" y="94.5" width="66" height="66" fill="white" stroke="#7A7A7A"/>
<rect x="284.914" y="94.5" width="67" height="66" fill="white" stroke="#7A7A7A"/>
<path d="M61.3848 129.347C61.3848 130.919 61.2139 132.325 60.8721 133.565C60.5303 134.806 60.0273 135.855 59.3633 136.715C58.709 137.564 57.9082 138.214 56.9609 138.663C56.0137 139.112 54.9297 139.337 53.709 139.337C52.6543 139.337 51.6826 139.151 50.7939 138.78C49.9053 138.409 49.1387 137.828 48.4941 137.037C47.8496 136.236 47.3467 135.216 46.9854 133.976C46.624 132.735 46.4434 131.251 46.4434 129.522C46.4434 127.95 46.6143 126.544 46.9561 125.304C47.3076 124.063 47.8105 123.019 48.4648 122.169C49.1191 121.31 49.9248 120.655 50.8818 120.206C51.8389 119.757 52.9229 119.532 54.1338 119.532C55.1885 119.532 56.1602 119.718 57.0488 120.089C57.9375 120.46 58.6992 121.041 59.334 121.832C59.9785 122.623 60.4814 123.639 60.8428 124.879C61.2041 126.119 61.3848 127.608 61.3848 129.347ZM50.0469 129.405C50.0469 129.601 50.0469 129.786 50.0469 129.962C50.0469 130.128 50.0566 130.299 50.0762 130.475L57.2539 125.289C56.9121 124.322 56.458 123.609 55.8916 123.15C55.335 122.682 54.6758 122.447 53.9141 122.447C53.3672 122.447 52.8594 122.589 52.3906 122.872C51.9219 123.146 51.5117 123.57 51.1602 124.146C50.8184 124.723 50.5449 125.445 50.3398 126.314C50.1445 127.184 50.0469 128.214 50.0469 129.405ZM57.7812 129.464C57.7812 129.298 57.7764 129.132 57.7666 128.966C57.7568 128.79 57.752 128.624 57.752 128.468L50.6182 133.624C50.9307 134.571 51.3701 135.274 51.9365 135.733C52.5029 136.192 53.1621 136.422 53.9141 136.422C54.4609 136.422 54.9688 136.28 55.4375 135.997C55.916 135.714 56.3262 135.289 56.668 134.723C57.0195 134.146 57.293 133.424 57.4883 132.555C57.6836 131.676 57.7812 130.646 57.7812 129.464Z" fill="black"/>
<path d="M127.872 129.435C127.872 130.899 127.726 132.237 127.433 133.448C127.14 134.649 126.695 135.685 126.1 136.554C125.504 137.413 124.762 138.082 123.873 138.561C122.994 139.029 121.959 139.264 120.768 139.264C119.742 139.264 118.81 139.073 117.97 138.692C117.13 138.302 116.412 137.706 115.816 136.905C115.221 136.104 114.762 135.084 114.439 133.844C114.117 132.604 113.956 131.134 113.956 129.435C113.956 127.97 114.103 126.632 114.396 125.421C114.698 124.21 115.143 123.175 115.729 122.315C116.324 121.446 117.066 120.777 117.955 120.309C118.844 119.83 119.879 119.591 121.061 119.591C122.086 119.591 123.019 119.786 123.858 120.177C124.698 120.558 125.416 121.153 126.012 121.964C126.607 122.765 127.066 123.785 127.389 125.025C127.711 126.266 127.872 127.735 127.872 129.435ZM125.294 129.522C125.294 129.19 125.279 128.863 125.25 128.541C125.23 128.209 125.206 127.887 125.177 127.574L117.076 133.595C117.223 134.103 117.408 134.571 117.633 135.001C117.857 135.431 118.126 135.802 118.438 136.114C118.761 136.417 119.122 136.656 119.522 136.832C119.933 136.998 120.396 137.081 120.914 137.081C121.578 137.081 122.179 136.92 122.716 136.598C123.263 136.275 123.727 135.797 124.107 135.162C124.488 134.527 124.781 133.741 124.986 132.804C125.191 131.856 125.294 130.763 125.294 129.522ZM116.534 129.347C116.534 129.649 116.534 129.952 116.534 130.255C116.544 130.558 116.563 130.851 116.593 131.134L124.693 125.143C124.547 124.645 124.361 124.19 124.137 123.78C123.912 123.37 123.644 123.019 123.331 122.726C123.019 122.423 122.662 122.188 122.262 122.022C121.861 121.856 121.412 121.773 120.914 121.773C120.25 121.773 119.645 121.935 119.098 122.257C118.561 122.579 118.102 123.062 117.721 123.707C117.34 124.342 117.047 125.133 116.842 126.08C116.637 127.018 116.534 128.106 116.534 129.347Z" fill="#999999"/>
<path d="M193.433 134.195C193.433 135.006 193.267 135.729 192.935 136.363C192.603 136.988 192.139 137.516 191.543 137.945C190.947 138.375 190.244 138.702 189.434 138.927C188.623 139.151 187.744 139.264 186.797 139.264C185.752 139.264 184.829 139.146 184.028 138.912C183.237 138.678 182.573 138.351 182.036 137.931C181.499 137.511 181.094 137.013 180.82 136.437C180.547 135.86 180.41 135.226 180.41 134.532C180.41 133.36 180.737 132.35 181.392 131.5C182.046 130.65 183.057 129.879 184.424 129.186C183.174 128.551 182.261 127.848 181.685 127.076C181.108 126.295 180.82 125.401 180.82 124.396C180.82 123.78 180.947 123.185 181.201 122.608C181.455 122.032 181.836 121.52 182.344 121.07C182.861 120.621 183.506 120.265 184.277 120.001C185.049 119.728 185.957 119.591 187.002 119.591C187.988 119.591 188.853 119.698 189.595 119.913C190.347 120.118 190.977 120.416 191.484 120.807C191.992 121.197 192.373 121.671 192.627 122.228C192.881 122.784 193.008 123.404 193.008 124.088C193.008 125.201 192.695 126.148 192.07 126.93C191.455 127.711 190.576 128.395 189.434 128.98C190 129.264 190.527 129.576 191.016 129.918C191.504 130.26 191.929 130.641 192.29 131.061C192.651 131.48 192.93 131.949 193.125 132.467C193.33 132.984 193.433 133.561 193.433 134.195ZM190.4 124.293C190.4 123.424 190.093 122.779 189.478 122.359C188.872 121.93 188.018 121.715 186.914 121.715C185.82 121.715 184.966 121.925 184.351 122.345C183.745 122.765 183.442 123.395 183.442 124.234C183.442 124.615 183.516 124.967 183.662 125.289C183.809 125.611 184.033 125.914 184.336 126.197C184.648 126.48 185.034 126.759 185.493 127.032C185.952 127.306 186.499 127.584 187.134 127.867C188.237 127.35 189.058 126.812 189.595 126.256C190.132 125.689 190.4 125.035 190.4 124.293ZM190.664 134.386C190.664 134.024 190.605 133.673 190.488 133.331C190.371 132.989 190.161 132.652 189.858 132.32C189.556 131.988 189.15 131.656 188.643 131.324C188.135 130.992 187.49 130.65 186.709 130.299C186.045 130.621 185.483 130.943 185.024 131.266C184.575 131.578 184.209 131.9 183.926 132.232C183.652 132.555 183.457 132.892 183.34 133.243C183.223 133.595 183.164 133.966 183.164 134.356C183.164 134.796 183.257 135.187 183.442 135.528C183.638 135.86 183.901 136.144 184.233 136.378C184.565 136.612 184.961 136.788 185.42 136.905C185.879 137.022 186.377 137.081 186.914 137.081C187.432 137.081 187.92 137.027 188.379 136.92C188.838 136.812 189.233 136.651 189.565 136.437C189.907 136.212 190.176 135.934 190.371 135.602C190.566 135.26 190.664 134.854 190.664 134.386Z" fill="#999999"/>
<path d="M259.33 128.351C259.33 130.216 259.105 131.822 258.656 133.17C258.207 134.508 257.543 135.611 256.664 136.48C255.785 137.34 254.696 137.975 253.397 138.385C252.099 138.795 250.6 139 248.9 139H247.304V136.773H249.076C250.336 136.773 251.425 136.646 252.343 136.393C253.261 136.139 254.022 135.768 254.628 135.279C255.243 134.781 255.712 134.181 256.034 133.478C256.356 132.765 256.557 131.954 256.635 131.046L256.693 130.445C256.078 130.807 255.37 131.1 254.569 131.324C253.769 131.539 252.899 131.646 251.962 131.646C250.995 131.646 250.146 131.505 249.413 131.222C248.681 130.938 248.07 130.543 247.582 130.035C247.104 129.527 246.742 128.927 246.498 128.233C246.254 127.53 246.132 126.769 246.132 125.948C246.132 125.06 246.293 124.229 246.615 123.458C246.938 122.687 247.387 122.018 247.963 121.451C248.549 120.875 249.247 120.421 250.058 120.089C250.868 119.757 251.762 119.591 252.738 119.591C253.686 119.591 254.56 119.747 255.36 120.06C256.171 120.372 256.869 120.88 257.455 121.583C258.041 122.276 258.5 123.18 258.832 124.293C259.164 125.406 259.33 126.759 259.33 128.351ZM252.621 121.686C252.074 121.686 251.566 121.778 251.098 121.964C250.639 122.14 250.238 122.403 249.896 122.755C249.564 123.097 249.301 123.521 249.105 124.029C248.91 124.537 248.812 125.118 248.812 125.772C248.812 126.368 248.881 126.9 249.018 127.369C249.164 127.838 249.384 128.238 249.677 128.57C249.979 128.893 250.365 129.142 250.834 129.317C251.303 129.493 251.859 129.581 252.504 129.581C252.865 129.581 253.236 129.547 253.617 129.479C254.008 129.41 254.384 129.317 254.745 129.2C255.116 129.083 255.468 128.946 255.8 128.79C256.132 128.634 256.43 128.468 256.693 128.292C256.693 127.032 256.601 125.982 256.415 125.143C256.229 124.293 255.961 123.614 255.609 123.106C255.258 122.589 254.828 122.223 254.32 122.008C253.822 121.793 253.256 121.686 252.621 121.686Z" fill="#999999"/>
<path d="M317.024 139H304.998V136.627H309.92V122.652L305.335 125.143L304.397 122.975L310.491 119.767H312.747V136.627H317.024V139ZM334.119 129.435C334.119 130.899 333.973 132.237 333.68 133.448C333.387 134.649 332.942 135.685 332.347 136.554C331.751 137.413 331.009 138.082 330.12 138.561C329.241 139.029 328.206 139.264 327.015 139.264C325.989 139.264 325.057 139.073 324.217 138.692C323.377 138.302 322.659 137.706 322.063 136.905C321.468 136.104 321.009 135.084 320.687 133.844C320.364 132.604 320.203 131.134 320.203 129.435C320.203 127.97 320.35 126.632 320.643 125.421C320.945 124.21 321.39 123.175 321.976 122.315C322.571 121.446 323.313 120.777 324.202 120.309C325.091 119.83 326.126 119.591 327.308 119.591C328.333 119.591 329.266 119.786 330.105 120.177C330.945 120.558 331.663 121.153 332.259 121.964C332.854 122.765 333.313 123.785 333.636 125.025C333.958 126.266 334.119 127.735 334.119 129.435ZM331.541 129.522C331.541 129.19 331.526 128.863 331.497 128.541C331.478 128.209 331.453 127.887 331.424 127.574L323.323 133.595C323.47 134.103 323.655 134.571 323.88 135.001C324.104 135.431 324.373 135.802 324.686 136.114C325.008 136.417 325.369 136.656 325.77 136.832C326.18 136.998 326.644 137.081 327.161 137.081C327.825 137.081 328.426 136.92 328.963 136.598C329.51 136.275 329.974 135.797 330.354 135.162C330.735 134.527 331.028 133.741 331.233 132.804C331.438 131.856 331.541 130.763 331.541 129.522ZM322.781 129.347C322.781 129.649 322.781 129.952 322.781 130.255C322.791 130.558 322.811 130.851 322.84 131.134L330.94 125.143C330.794 124.645 330.608 124.19 330.384 123.78C330.159 123.37 329.891 123.019 329.578 122.726C329.266 122.423 328.909 122.188 328.509 122.022C328.108 121.856 327.659 121.773 327.161 121.773C326.497 121.773 325.892 121.935 325.345 122.257C324.808 122.579 324.349 123.062 323.968 123.707C323.587 124.342 323.294 125.133 323.089 126.08C322.884 127.018 322.781 128.106 322.781 129.347Z" fill="#999999"/>
<path opacity="0.5" d="M10.6621 137.16H1.84277V135.42H5.45215V125.172L2.08984 126.998L1.40234 125.408L5.87109 123.055H7.52539V135.42H10.6621V137.16Z" fill="black"/>
<rect x="20.9141" y="160.5" width="67" height="66" fill="#FFE7DC" stroke="#7A7A7A"/>
<rect x="87.9141" y="160.5" width="66" height="66" fill="white" stroke="#7A7A7A"/>
<rect x="153.914" y="160.5" width="66" height="66" fill="white" stroke="#7A7A7A"/>
<rect x="219.914" y="160.5" width="66" height="66" fill="white" stroke="#7A7A7A"/>
<rect x="284.914" y="160.5" width="67" height="66" fill="white" stroke="#7A7A7A"/>
<path d="M52.0244 204H39.998V201.627H44.9199V187.652L40.335 190.143L39.3975 187.975L45.4912 184.767H47.7471V201.627H52.0244V204ZM68.5186 204H56.4922V201.627H61.4141V187.652L56.8291 190.143L55.8916 187.975L61.9854 184.767H64.2412V201.627H68.5186V204Z" fill="#999999"/>
<path d="M119.024 204H106.998V201.627H111.92V187.652L107.335 190.143L106.397 187.975L112.491 184.767H114.747V201.627H119.024V204ZM135.68 204H123.067V201.715L128.019 196.793C128.829 195.992 129.488 195.299 129.996 194.713C130.504 194.127 130.899 193.595 131.183 193.116C131.466 192.628 131.656 192.169 131.754 191.739C131.852 191.31 131.9 190.846 131.9 190.348C131.9 189.879 131.837 189.435 131.71 189.015C131.583 188.585 131.388 188.209 131.124 187.887C130.86 187.564 130.519 187.311 130.099 187.125C129.679 186.939 129.176 186.847 128.59 186.847C127.779 186.847 127.042 187.027 126.378 187.389C125.714 187.75 125.104 188.219 124.547 188.795L123.141 187.11C123.863 186.349 124.693 185.738 125.631 185.279C126.578 184.82 127.677 184.591 128.927 184.591C129.776 184.591 130.548 184.718 131.241 184.972C131.944 185.226 132.55 185.592 133.058 186.07C133.565 186.549 133.956 187.135 134.229 187.828C134.513 188.521 134.654 189.303 134.654 190.172C134.654 190.904 134.557 191.583 134.361 192.208C134.166 192.833 133.868 193.458 133.468 194.083C133.077 194.698 132.579 195.338 131.974 196.002C131.378 196.666 130.67 197.394 129.85 198.185L126.378 201.568H135.68V204Z" fill="#999999"/>
<path d="M185.024 204H172.998V201.627H177.92V187.652L173.335 190.143L172.397 187.975L178.491 184.767H180.747V201.627H185.024V204ZM201.313 198.185C201.313 199.024 201.143 199.815 200.801 200.558C200.459 201.29 199.946 201.935 199.263 202.491C198.579 203.038 197.72 203.473 196.685 203.795C195.649 204.107 194.443 204.264 193.066 204.264C192.305 204.264 191.621 204.239 191.016 204.19C190.41 204.142 189.844 204.078 189.316 204V201.715C189.922 201.822 190.562 201.905 191.235 201.964C191.909 202.022 192.598 202.052 193.301 202.052C194.258 202.052 195.073 201.969 195.747 201.803C196.431 201.627 196.987 201.378 197.417 201.056C197.847 200.733 198.159 200.343 198.354 199.884C198.55 199.425 198.647 198.907 198.647 198.331C198.647 197.804 198.53 197.345 198.296 196.954C198.062 196.563 197.729 196.236 197.3 195.973C196.88 195.709 196.372 195.514 195.776 195.387C195.19 195.25 194.546 195.182 193.843 195.182H191.66V193.087H193.872C194.448 193.087 194.971 193.014 195.439 192.867C195.918 192.711 196.323 192.491 196.655 192.208C196.997 191.925 197.256 191.578 197.432 191.168C197.617 190.748 197.71 190.274 197.71 189.747C197.71 188.722 197.397 187.975 196.772 187.506C196.147 187.037 195.229 186.803 194.019 186.803C193.374 186.803 192.71 186.866 192.026 186.993C191.343 187.12 190.61 187.311 189.829 187.564V185.338C190.161 185.221 190.513 185.118 190.884 185.03C191.265 184.933 191.641 184.854 192.012 184.796C192.393 184.728 192.769 184.679 193.14 184.649C193.511 184.61 193.867 184.591 194.209 184.591C195.225 184.591 196.118 184.703 196.89 184.928C197.661 185.143 198.306 185.455 198.823 185.865C199.341 186.275 199.731 186.773 199.995 187.359C200.259 187.945 200.391 188.604 200.391 189.337C200.391 190.431 200.107 191.349 199.541 192.091C198.984 192.833 198.218 193.424 197.241 193.863C197.739 193.941 198.228 194.098 198.706 194.332C199.194 194.566 199.629 194.869 200.01 195.24C200.4 195.602 200.713 196.031 200.947 196.529C201.191 197.027 201.313 197.579 201.313 198.185Z" fill="#999999"/>
<path d="M251.024 204H238.998V201.627H243.92V187.652L239.335 190.143L238.397 187.975L244.491 184.767H246.747V201.627H251.024V204ZM268.632 199.767H265.365V204H262.758V199.767H253.544V197.525L261.703 184.854H265.365V197.525H268.632V199.767ZM262.758 187.315L256.093 197.525H262.758V187.315Z" fill="#999999"/>
<path d="M317.024 204H304.998V201.627H309.92V187.652L305.335 190.143L304.397 187.975L310.491 184.767H312.747V201.627H317.024V204ZM333.196 197.877C333.196 198.824 332.991 199.688 332.581 200.47C332.171 201.251 331.604 201.925 330.882 202.491C330.169 203.048 329.324 203.482 328.348 203.795C327.371 204.107 326.316 204.264 325.184 204.264C324.9 204.264 324.593 204.254 324.261 204.234C323.938 204.225 323.616 204.205 323.294 204.176C322.972 204.156 322.654 204.132 322.342 204.103C322.039 204.073 321.766 204.039 321.521 204V201.686C322.049 201.812 322.649 201.905 323.323 201.964C324.007 202.022 324.695 202.052 325.389 202.052C326.17 202.052 326.873 201.959 327.498 201.773C328.123 201.588 328.655 201.324 329.095 200.982C329.534 200.631 329.871 200.211 330.105 199.723C330.34 199.225 330.457 198.668 330.457 198.053C330.457 196.861 330.027 195.997 329.168 195.46C328.318 194.913 327.093 194.64 325.491 194.64H321.858V184.854H332.171V187.081H324.261V192.457H325.931C326.849 192.457 327.742 192.54 328.611 192.706C329.48 192.872 330.252 193.165 330.926 193.585C331.609 193.995 332.156 194.552 332.566 195.255C332.986 195.948 333.196 196.822 333.196 197.877Z" fill="#999999"/>
<path opacity="0.5" d="M10.7803 201.16H1.53125V199.484L5.16211 195.875C5.75651 195.288 6.23991 194.779 6.6123 194.349C6.9847 193.92 7.27474 193.529 7.48242 193.178C7.6901 192.82 7.82975 192.484 7.90137 192.169C7.97298 191.854 8.00879 191.513 8.00879 191.148C8.00879 190.804 7.96224 190.479 7.86914 190.171C7.77604 189.856 7.63281 189.58 7.43945 189.344C7.24609 189.107 6.99544 188.921 6.6875 188.785C6.37956 188.649 6.01074 188.581 5.58105 188.581C4.98665 188.581 4.44596 188.713 3.95898 188.978C3.47201 189.243 3.02441 189.587 2.61621 190.01L1.58496 188.774C2.11491 188.216 2.72363 187.768 3.41113 187.431C4.10579 187.095 4.91146 186.927 5.82812 186.927C6.45117 186.927 7.01693 187.02 7.52539 187.206C8.04102 187.392 8.48503 187.661 8.85742 188.011C9.22982 188.362 9.51628 188.792 9.7168 189.301C9.92448 189.809 10.0283 190.382 10.0283 191.019C10.0283 191.556 9.95671 192.054 9.81348 192.512C9.67025 192.971 9.45182 193.429 9.1582 193.887C8.87174 194.339 8.50651 194.808 8.0625 195.295C7.62565 195.782 7.10645 196.315 6.50488 196.895L3.95898 199.377H10.7803V201.16Z" fill="black"/>
<path d="M20.9141 226.5H87.9141V292.5H26.4141C23.3765 292.5 20.9141 290.038 20.9141 287V226.5Z" fill="#FFE7DC" stroke="#7A7A7A"/>
<rect x="87.9141" y="226.5" width="66" height="66" fill="white" stroke="#7A7A7A"/>
<rect x="153.914" y="226.5" width="66" height="66" fill="white" stroke="#7A7A7A"/>
<rect x="219.914" y="226.5" width="66" height="66" fill="white" stroke="#7A7A7A"/>
<path d="M284.914 226.5H351.914V287C351.914 290.038 349.452 292.5 346.414 292.5H284.914V226.5Z" fill="white" stroke="#7A7A7A"/>
<path d="M61.3848 260.347C61.3848 261.919 61.2139 263.325 60.8721 264.565C60.5303 265.806 60.0273 266.855 59.3633 267.715C58.709 268.564 57.9082 269.214 56.9609 269.663C56.0137 270.112 54.9297 270.337 53.709 270.337C52.6543 270.337 51.6826 270.151 50.7939 269.78C49.9053 269.409 49.1387 268.828 48.4941 268.037C47.8496 267.236 47.3467 266.216 46.9854 264.976C46.624 263.735 46.4434 262.251 46.4434 260.522C46.4434 258.95 46.6143 257.544 46.9561 256.304C47.3076 255.063 47.8105 254.019 48.4648 253.169C49.1191 252.31 49.9248 251.655 50.8818 251.206C51.8389 250.757 52.9229 250.532 54.1338 250.532C55.1885 250.532 56.1602 250.718 57.0488 251.089C57.9375 251.46 58.6992 252.041 59.334 252.832C59.9785 253.623 60.4814 254.639 60.8428 255.879C61.2041 257.119 61.3848 258.608 61.3848 260.347ZM50.0469 260.405C50.0469 260.601 50.0469 260.786 50.0469 260.962C50.0469 261.128 50.0566 261.299 50.0762 261.475L57.2539 256.289C56.9121 255.322 56.458 254.609 55.8916 254.15C55.335 253.682 54.6758 253.447 53.9141 253.447C53.3672 253.447 52.8594 253.589 52.3906 253.872C51.9219 254.146 51.5117 254.57 51.1602 255.146C50.8184 255.723 50.5449 256.445 50.3398 257.314C50.1445 258.184 50.0469 259.214 50.0469 260.405ZM57.7812 260.464C57.7812 260.298 57.7764 260.132 57.7666 259.966C57.7568 259.79 57.752 259.624 57.752 259.468L50.6182 264.624C50.9307 265.571 51.3701 266.274 51.9365 266.733C52.5029 267.192 53.1621 267.422 53.9141 267.422C54.4609 267.422 54.9688 267.28 55.4375 266.997C55.916 266.714 56.3262 266.289 56.668 265.723C57.0195 265.146 57.293 264.424 57.4883 263.555C57.6836 262.676 57.7812 261.646 57.7812 260.464Z" fill="black"/>
<path d="M119.024 270H106.998V267.627H111.92V253.652L107.335 256.143L106.397 253.975L112.491 250.767H114.747V267.627H119.024V270ZM135.577 253.228L127.55 270H124.635L132.97 253.228H122.628V250.854H135.577V253.228Z" fill="#999999"/>
<path d="M185.024 270H172.998V267.627H177.92V253.652L173.335 256.143L172.397 253.975L178.491 250.767H180.747V267.627H185.024V270ZM201.68 265.195C201.68 266.006 201.514 266.729 201.182 267.363C200.85 267.988 200.386 268.516 199.79 268.945C199.194 269.375 198.491 269.702 197.681 269.927C196.87 270.151 195.991 270.264 195.044 270.264C193.999 270.264 193.076 270.146 192.275 269.912C191.484 269.678 190.82 269.351 190.283 268.931C189.746 268.511 189.341 268.013 189.067 267.437C188.794 266.86 188.657 266.226 188.657 265.532C188.657 264.36 188.984 263.35 189.639 262.5C190.293 261.65 191.304 260.879 192.671 260.186C191.421 259.551 190.508 258.848 189.932 258.076C189.355 257.295 189.067 256.401 189.067 255.396C189.067 254.78 189.194 254.185 189.448 253.608C189.702 253.032 190.083 252.52 190.591 252.07C191.108 251.621 191.753 251.265 192.524 251.001C193.296 250.728 194.204 250.591 195.249 250.591C196.235 250.591 197.1 250.698 197.842 250.913C198.594 251.118 199.224 251.416 199.731 251.807C200.239 252.197 200.62 252.671 200.874 253.228C201.128 253.784 201.255 254.404 201.255 255.088C201.255 256.201 200.942 257.148 200.317 257.93C199.702 258.711 198.823 259.395 197.681 259.98C198.247 260.264 198.774 260.576 199.263 260.918C199.751 261.26 200.176 261.641 200.537 262.061C200.898 262.48 201.177 262.949 201.372 263.467C201.577 263.984 201.68 264.561 201.68 265.195ZM198.647 255.293C198.647 254.424 198.34 253.779 197.725 253.359C197.119 252.93 196.265 252.715 195.161 252.715C194.067 252.715 193.213 252.925 192.598 253.345C191.992 253.765 191.689 254.395 191.689 255.234C191.689 255.615 191.763 255.967 191.909 256.289C192.056 256.611 192.28 256.914 192.583 257.197C192.896 257.48 193.281 257.759 193.74 258.032C194.199 258.306 194.746 258.584 195.381 258.867C196.484 258.35 197.305 257.812 197.842 257.256C198.379 256.689 198.647 256.035 198.647 255.293ZM198.911 265.386C198.911 265.024 198.853 264.673 198.735 264.331C198.618 263.989 198.408 263.652 198.105 263.32C197.803 262.988 197.397 262.656 196.89 262.324C196.382 261.992 195.737 261.65 194.956 261.299C194.292 261.621 193.73 261.943 193.271 262.266C192.822 262.578 192.456 262.9 192.173 263.232C191.899 263.555 191.704 263.892 191.587 264.243C191.47 264.595 191.411 264.966 191.411 265.356C191.411 265.796 191.504 266.187 191.689 266.528C191.885 266.86 192.148 267.144 192.48 267.378C192.812 267.612 193.208 267.788 193.667 267.905C194.126 268.022 194.624 268.081 195.161 268.081C195.679 268.081 196.167 268.027 196.626 267.92C197.085 267.812 197.48 267.651 197.812 267.437C198.154 267.212 198.423 266.934 198.618 266.602C198.813 266.26 198.911 265.854 198.911 265.386Z" fill="#999999"/>
<path d="M251.024 270H238.998V267.627H243.92V253.652L239.335 256.143L238.397 253.975L244.491 250.767H246.747V267.627H251.024V270ZM267.577 259.351C267.577 261.216 267.353 262.822 266.903 264.17C266.454 265.508 265.79 266.611 264.911 267.48C264.032 268.34 262.943 268.975 261.645 269.385C260.346 269.795 258.847 270 257.147 270H255.551V267.773H257.323C258.583 267.773 259.672 267.646 260.59 267.393C261.508 267.139 262.27 266.768 262.875 266.279C263.49 265.781 263.959 265.181 264.281 264.478C264.604 263.765 264.804 262.954 264.882 262.046L264.94 261.445C264.325 261.807 263.617 262.1 262.816 262.324C262.016 262.539 261.146 262.646 260.209 262.646C259.242 262.646 258.393 262.505 257.66 262.222C256.928 261.938 256.317 261.543 255.829 261.035C255.351 260.527 254.989 259.927 254.745 259.233C254.501 258.53 254.379 257.769 254.379 256.948C254.379 256.06 254.54 255.229 254.862 254.458C255.185 253.687 255.634 253.018 256.21 252.451C256.796 251.875 257.494 251.421 258.305 251.089C259.115 250.757 260.009 250.591 260.985 250.591C261.933 250.591 262.807 250.747 263.607 251.06C264.418 251.372 265.116 251.88 265.702 252.583C266.288 253.276 266.747 254.18 267.079 255.293C267.411 256.406 267.577 257.759 267.577 259.351ZM260.868 252.686C260.321 252.686 259.813 252.778 259.345 252.964C258.886 253.14 258.485 253.403 258.144 253.755C257.812 254.097 257.548 254.521 257.353 255.029C257.157 255.537 257.06 256.118 257.06 256.772C257.06 257.368 257.128 257.9 257.265 258.369C257.411 258.838 257.631 259.238 257.924 259.57C258.227 259.893 258.612 260.142 259.081 260.317C259.55 260.493 260.106 260.581 260.751 260.581C261.112 260.581 261.483 260.547 261.864 260.479C262.255 260.41 262.631 260.317 262.992 260.2C263.363 260.083 263.715 259.946 264.047 259.79C264.379 259.634 264.677 259.468 264.94 259.292C264.94 258.032 264.848 256.982 264.662 256.143C264.477 255.293 264.208 254.614 263.856 254.106C263.505 253.589 263.075 253.223 262.567 253.008C262.069 252.793 261.503 252.686 260.868 252.686Z" fill="#999999"/>
<path d="M325.872 260.435C325.872 261.899 325.726 263.237 325.433 264.448C325.14 265.649 324.695 266.685 324.1 267.554C323.504 268.413 322.762 269.082 321.873 269.561C320.994 270.029 319.959 270.264 318.768 270.264C317.742 270.264 316.81 270.073 315.97 269.692C315.13 269.302 314.412 268.706 313.816 267.905C313.221 267.104 312.762 266.084 312.439 264.844C312.117 263.604 311.956 262.134 311.956 260.435C311.956 258.97 312.103 257.632 312.396 256.421C312.698 255.21 313.143 254.175 313.729 253.315C314.324 252.446 315.066 251.777 315.955 251.309C316.844 250.83 317.879 250.591 319.061 250.591C320.086 250.591 321.019 250.786 321.858 251.177C322.698 251.558 323.416 252.153 324.012 252.964C324.607 253.765 325.066 254.785 325.389 256.025C325.711 257.266 325.872 258.735 325.872 260.435ZM323.294 260.522C323.294 260.19 323.279 259.863 323.25 259.541C323.23 259.209 323.206 258.887 323.177 258.574L315.076 264.595C315.223 265.103 315.408 265.571 315.633 266.001C315.857 266.431 316.126 266.802 316.438 267.114C316.761 267.417 317.122 267.656 317.522 267.832C317.933 267.998 318.396 268.081 318.914 268.081C319.578 268.081 320.179 267.92 320.716 267.598C321.263 267.275 321.727 266.797 322.107 266.162C322.488 265.527 322.781 264.741 322.986 263.804C323.191 262.856 323.294 261.763 323.294 260.522ZM314.534 260.347C314.534 260.649 314.534 260.952 314.534 261.255C314.544 261.558 314.563 261.851 314.593 262.134L322.693 256.143C322.547 255.645 322.361 255.19 322.137 254.78C321.912 254.37 321.644 254.019 321.331 253.726C321.019 253.423 320.662 253.188 320.262 253.022C319.861 252.856 319.412 252.773 318.914 252.773C318.25 252.773 317.645 252.935 317.098 253.257C316.561 253.579 316.102 254.062 315.721 254.707C315.34 255.342 315.047 256.133 314.842 257.08C314.637 258.018 314.534 259.106 314.534 260.347Z" fill="#999999"/>
<path opacity="0.5" d="M10.5117 263.895C10.5117 264.511 10.3864 265.091 10.1357 265.635C9.88509 266.173 9.50911 266.645 9.00781 267.053C8.50651 267.455 7.8763 267.773 7.11719 268.01C6.35807 268.239 5.47363 268.353 4.46387 268.353C3.90527 268.353 3.40397 268.335 2.95996 268.3C2.51595 268.264 2.10059 268.217 1.71387 268.16V266.484C2.15788 266.563 2.62695 266.624 3.12109 266.667C3.61523 266.71 4.12012 266.731 4.63574 266.731C5.33757 266.731 5.93555 266.67 6.42969 266.549C6.93099 266.42 7.33919 266.237 7.6543 266.001C7.9694 265.764 8.19857 265.478 8.3418 265.141C8.48503 264.805 8.55664 264.425 8.55664 264.003C8.55664 263.616 8.4707 263.279 8.29883 262.993C8.12695 262.706 7.88346 262.467 7.56836 262.273C7.26042 262.08 6.88802 261.937 6.45117 261.844C6.02148 261.743 5.54883 261.693 5.0332 261.693H3.43262V260.157H5.05469C5.47721 260.157 5.86035 260.103 6.2041 259.996C6.55501 259.881 6.85221 259.72 7.0957 259.512C7.34635 259.305 7.53613 259.051 7.66504 258.75C7.80111 258.442 7.86914 258.094 7.86914 257.708C7.86914 256.956 7.63997 256.408 7.18164 256.064C6.72331 255.72 6.05013 255.549 5.16211 255.549C4.68945 255.549 4.20247 255.595 3.70117 255.688C3.19987 255.781 2.66276 255.921 2.08984 256.107V254.474C2.33333 254.388 2.59115 254.313 2.86328 254.249C3.14258 254.177 3.41829 254.12 3.69043 254.077C3.96973 254.027 4.24544 253.991 4.51758 253.969C4.78971 253.941 5.05111 253.927 5.30176 253.927C6.04655 253.927 6.70182 254.009 7.26758 254.174C7.83333 254.331 8.30599 254.56 8.68555 254.861C9.0651 255.162 9.35156 255.527 9.54492 255.957C9.73828 256.386 9.83496 256.87 9.83496 257.407C9.83496 258.209 9.62728 258.882 9.21191 259.427C8.80371 259.971 8.24154 260.404 7.52539 260.726C7.89062 260.784 8.2487 260.898 8.59961 261.07C8.95768 261.242 9.27637 261.464 9.55566 261.736C9.84212 262.001 10.0713 262.316 10.2432 262.681C10.4222 263.047 10.5117 263.451 10.5117 263.895Z" fill="black"/>
<g filter="url(#filter1_d_6175_1272)">
<path d="M319.707 77.2929C319.317 76.9024 318.683 76.9024 318.293 77.2929L311.929 83.6569C311.538 84.0474 311.538 84.6805 311.929 85.0711C312.319 85.4616 312.953 85.4616 313.343 85.0711L319 79.4142L324.657 85.0711C325.047 85.4616 325.681 85.4616 326.071 85.0711C326.462 84.6805 326.462 84.0474 326.071 83.6569L319.707 77.2929ZM320 245L320 78L318 78L318 245L320 245Z" fill="black"/>
</g>
<g filter="url(#filter2_d_6175_1272)">
<path d="M70.2929 128.293C69.9024 128.683 69.9024 129.317 70.2929 129.707L76.6569 136.071C77.0474 136.462 77.6805 136.462 78.0711 136.071C78.4616 135.681 78.4616 135.047 78.0711 134.657L72.4142 129L78.0711 123.343C78.4616 122.953 78.4616 122.319 78.0711 121.929C77.6805 121.538 77.0474 121.538 76.6569 121.929L70.2929 128.293ZM109 128L71 128L71 130L109 130L109 128Z" fill="black"/>
</g>
<g filter="url(#filter3_d_6175_1272)">
<path d="M70.2929 259.293C69.9024 259.683 69.9024 260.317 70.2929 260.707L76.6569 267.071C77.0474 267.462 77.6806 267.462 78.0711 267.071C78.4616 266.681 78.4616 266.047 78.0711 265.657L72.4142 260L78.0711 254.343C78.4616 253.953 78.4616 253.319 78.0711 252.929C77.6806 252.538 77.0474 252.538 76.6569 252.929L70.2929 259.293ZM306 259L71 259V261L306 261V259Z" fill="black"/>
</g>
<line x1="88" y1="294" x2="88" y2="95" stroke="black" stroke-width="2"/>
<line x1="87" y1="95" x2="352" y2="95" stroke="black" stroke-width="2"/>
</g>
<defs>
<filter id="filter0_d_6175_1272" x="109.636" y="77" width="22.728" height="45" filterUnits="userSpaceOnUse" color-interpolation-filters="sRGB">
<feFlood flood-opacity="0" result="BackgroundImageFix"/>
<feColorMatrix in="SourceAlpha" type="matrix" values="0 0 0 0 0 0 0 0 0 0 0 0 0 0 0 0 0 0 127 0" result="hardAlpha"/>
<feOffset dy="4"/>
<feGaussianBlur stdDeviation="2"/>
<feComposite in2="hardAlpha" operator="out"/>
<feColorMatrix type="matrix" values="0 0 0 0 0 0 0 0 0 0 0 0 0 0 0 0 0 0 0.25 0"/>
<feBlend mode="normal" in2="BackgroundImageFix" result="effect1_dropShadow_6175_1272"/>
<feBlend mode="normal" in="SourceGraphic" in2="effect1_dropShadow_6175_1272" result="shape"/>
</filter>
<filter id="filter1_d_6175_1272" x="307.636" y="77" width="22.728" height="176" filterUnits="userSpaceOnUse" color-interpolation-filters="sRGB">
<feFlood flood-opacity="0" result="BackgroundImageFix"/>
<feColorMatrix in="SourceAlpha" type="matrix" values="0 0 0 0 0 0 0 0 0 0 0 0 0 0 0 0 0 0 127 0" result="hardAlpha"/>
<feOffset dy="4"/>
<feGaussianBlur stdDeviation="2"/>
<feComposite in2="hardAlpha" operator="out"/>
<feColorMatrix type="matrix" values="0 0 0 0 0 0 0 0 0 0 0 0 0 0 0 0 0 0 0.25 0"/>
<feBlend mode="normal" in2="BackgroundImageFix" result="effect1_dropShadow_6175_1272"/>
<feBlend mode="normal" in="SourceGraphic" in2="effect1_dropShadow_6175_1272" result="shape"/>
</filter>
<filter id="filter2_d_6175_1272" x="66" y="121.636" width="47" height="22.728" filterUnits="userSpaceOnUse" color-interpolation-filters="sRGB">
<feFlood flood-opacity="0" result="BackgroundImageFix"/>
<feColorMatrix in="SourceAlpha" type="matrix" values="0 0 0 0 0 0 0 0 0 0 0 0 0 0 0 0 0 0 127 0" result="hardAlpha"/>
<feOffset dy="4"/>
<feGaussianBlur stdDeviation="2"/>
<feComposite in2="hardAlpha" operator="out"/>
<feColorMatrix type="matrix" values="0 0 0 0 0 0 0 0 0 0 0 0 0 0 0 0 0 0 0.25 0"/>
<feBlend mode="normal" in2="BackgroundImageFix" result="effect1_dropShadow_6175_1272"/>
<feBlend mode="normal" in="SourceGraphic" in2="effect1_dropShadow_6175_1272" result="shape"/>
</filter>
<filter id="filter3_d_6175_1272" x="66" y="252.636" width="244" height="22.728" filterUnits="userSpaceOnUse" color-interpolation-filters="sRGB">
<feFlood flood-opacity="0" result="BackgroundImageFix"/>
<feColorMatrix in="SourceAlpha" type="matrix" values="0 0 0 0 0 0 0 0 0 0 0 0 0 0 0 0 0 0 127 0" result="hardAlpha"/>
<feOffset dy="4"/>
<feGaussianBlur stdDeviation="2"/>
<feComposite in2="hardAlpha" operator="out"/>
<feColorMatrix type="matrix" values="0 0 0 0 0 0 0 0 0 0 0 0 0 0 0 0 0 0 0.25 0"/>
<feBlend mode="normal" in2="BackgroundImageFix" result="effect1_dropShadow_6175_1272"/>
<feBlend mode="normal" in="SourceGraphic" in2="effect1_dropShadow_6175_1272" result="shape"/>
</filter>
<clipPath id="clip0_6175_1272">
<rect width="356" height="296" fill="white"/>
</clipPath>
</defs>
</svg>
