<svg width="899" height="179" viewBox="0 0 899 179" fill="none" xmlns="http://www.w3.org/2000/svg">
<rect width="899" height="179" fill="white"/>
<rect x="435" y="17" width="28" height="28" rx="6" fill="#FFF4EF" stroke="#FF5500" stroke-width="2"/>
<circle cx="351" cy="90" r="14.25" stroke="#FF5500" stroke-width="1.5" stroke-dasharray="6 6"/>
<circle cx="400" cy="90" r="14.25" stroke="#FF5500" stroke-width="1.5" stroke-dasharray="6 6"/>
<path d="M110.248 100H97.6357V97.7148L102.587 92.793C103.397 91.9922 104.057 91.2988 104.564 90.7129C105.072 90.127 105.468 89.5947 105.751 89.1162C106.034 88.6279 106.225 88.1689 106.322 87.7393C106.42 87.3096 106.469 86.8457 106.469 86.3477C106.469 85.8789 106.405 85.4346 106.278 85.0146C106.151 84.585 105.956 84.209 105.692 83.8867C105.429 83.5645 105.087 83.3105 104.667 83.125C104.247 82.9395 103.744 82.8467 103.158 82.8467C102.348 82.8467 101.61 83.0273 100.946 83.3887C100.282 83.75 99.6719 84.2188 99.1152 84.7949L97.709 83.1104C98.4316 82.3486 99.2617 81.7383 100.199 81.2793C101.146 80.8203 102.245 80.5908 103.495 80.5908C104.345 80.5908 105.116 80.7178 105.81 80.9717C106.513 81.2256 107.118 81.5918 107.626 82.0703C108.134 82.5488 108.524 83.1348 108.798 83.8281C109.081 84.5215 109.223 85.3027 109.223 86.1719C109.223 86.9043 109.125 87.583 108.93 88.208C108.734 88.833 108.437 89.458 108.036 90.083C107.646 90.6982 107.147 91.3379 106.542 92.002C105.946 92.666 105.238 93.3936 104.418 94.1846L100.946 97.5684H110.248V100ZM159.73 95.1953C159.73 96.0059 159.564 96.7285 159.232 97.3633C158.9 97.9883 158.437 98.5156 157.841 98.9453C157.245 99.375 156.542 99.7021 155.731 99.9268C154.921 100.151 154.042 100.264 153.095 100.264C152.05 100.264 151.127 100.146 150.326 99.9121C149.535 99.6777 148.871 99.3506 148.334 98.9307C147.797 98.5107 147.392 98.0127 147.118 97.4365C146.845 96.8604 146.708 96.2256 146.708 95.5322C146.708 94.3604 147.035 93.3496 147.689 92.5C148.344 91.6504 149.354 90.8789 150.722 90.1855C149.472 89.5508 148.559 88.8477 147.982 88.0762C147.406 87.2949 147.118 86.4014 147.118 85.3955C147.118 84.7803 147.245 84.1846 147.499 83.6084C147.753 83.0322 148.134 82.5195 148.642 82.0703C149.159 81.6211 149.804 81.2646 150.575 81.001C151.347 80.7275 152.255 80.5908 153.3 80.5908C154.286 80.5908 155.15 80.6982 155.893 80.9131C156.645 81.1182 157.274 81.416 157.782 81.8066C158.29 82.1973 158.671 82.6709 158.925 83.2275C159.179 83.7842 159.306 84.4043 159.306 85.0879C159.306 86.2012 158.993 87.1484 158.368 87.9297C157.753 88.7109 156.874 89.3945 155.731 89.9805C156.298 90.2637 156.825 90.5762 157.313 90.918C157.802 91.2598 158.227 91.6406 158.588 92.0605C158.949 92.4805 159.228 92.9492 159.423 93.4668C159.628 93.9844 159.73 94.5605 159.73 95.1953ZM156.698 85.293C156.698 84.4238 156.391 83.7793 155.775 83.3594C155.17 82.9297 154.315 82.7148 153.212 82.7148C152.118 82.7148 151.264 82.9248 150.648 83.3447C150.043 83.7646 149.74 84.3945 149.74 85.2344C149.74 85.6152 149.813 85.9668 149.96 86.2891C150.106 86.6113 150.331 86.9141 150.634 87.1973C150.946 87.4805 151.332 87.7588 151.791 88.0322C152.25 88.3057 152.797 88.584 153.432 88.8672C154.535 88.3496 155.355 87.8125 155.893 87.2559C156.43 86.6895 156.698 86.0352 156.698 85.293ZM156.962 95.3857C156.962 95.0244 156.903 94.6729 156.786 94.3311C156.669 93.9893 156.459 93.6523 156.156 93.3203C155.854 92.9883 155.448 92.6562 154.94 92.3242C154.433 91.9922 153.788 91.6504 153.007 91.2988C152.343 91.6211 151.781 91.9434 151.322 92.2656C150.873 92.5781 150.507 92.9004 150.224 93.2324C149.95 93.5547 149.755 93.8916 149.638 94.2432C149.521 94.5947 149.462 94.9658 149.462 95.3564C149.462 95.7959 149.555 96.1865 149.74 96.5283C149.936 96.8604 150.199 97.1436 150.531 97.3779C150.863 97.6123 151.259 97.7881 151.718 97.9053C152.177 98.0225 152.675 98.0811 153.212 98.0811C153.729 98.0811 154.218 98.0273 154.677 97.9199C155.136 97.8125 155.531 97.6514 155.863 97.4365C156.205 97.2119 156.474 96.9336 156.669 96.6016C156.864 96.2598 156.962 95.8545 156.962 95.3857ZM258.534 100H246.508V97.627H251.43V83.6523L246.845 86.1426L245.907 83.9746L252.001 80.7666H254.257V97.627H258.534V100ZM308.617 90.4346C308.617 91.8994 308.471 93.2373 308.178 94.4482C307.885 95.6494 307.44 96.6846 306.845 97.5537C306.249 98.4131 305.507 99.082 304.618 99.5605C303.739 100.029 302.704 100.264 301.513 100.264C300.487 100.264 299.555 100.073 298.715 99.6924C297.875 99.3018 297.157 98.7061 296.562 97.9053C295.966 97.1045 295.507 96.084 295.185 94.8438C294.862 93.6035 294.701 92.1338 294.701 90.4346C294.701 88.9697 294.848 87.6318 295.141 86.4209C295.443 85.21 295.888 84.1748 296.474 83.3154C297.069 82.4463 297.812 81.7773 298.7 81.3086C299.589 80.8301 300.624 80.5908 301.806 80.5908C302.831 80.5908 303.764 80.7861 304.604 81.1768C305.443 81.5576 306.161 82.1533 306.757 82.9639C307.353 83.7646 307.812 84.7852 308.134 86.0254C308.456 87.2656 308.617 88.7354 308.617 90.4346ZM306.039 90.5225C306.039 90.1904 306.024 89.8633 305.995 89.541C305.976 89.209 305.951 88.8867 305.922 88.5742L297.821 94.5947C297.968 95.1025 298.153 95.5713 298.378 96.001C298.603 96.4307 298.871 96.8018 299.184 97.1143C299.506 97.417 299.867 97.6562 300.268 97.832C300.678 97.998 301.142 98.0811 301.659 98.0811C302.323 98.0811 302.924 97.9199 303.461 97.5977C304.008 97.2754 304.472 96.7969 304.853 96.1621C305.233 95.5273 305.526 94.7412 305.731 93.8037C305.937 92.8564 306.039 91.7627 306.039 90.5225ZM297.279 90.3467C297.279 90.6494 297.279 90.9521 297.279 91.2549C297.289 91.5576 297.309 91.8506 297.338 92.1338L305.438 86.1426C305.292 85.6445 305.106 85.1904 304.882 84.7803C304.657 84.3701 304.389 84.0186 304.076 83.7256C303.764 83.4229 303.407 83.1885 303.007 83.0225C302.606 82.8564 302.157 82.7734 301.659 82.7734C300.995 82.7734 300.39 82.9346 299.843 83.2568C299.306 83.5791 298.847 84.0625 298.466 84.707C298.085 85.3418 297.792 86.1328 297.587 87.0801C297.382 88.0176 297.279 89.1064 297.279 90.3467ZM407.04 83.2275L399.013 100H396.098L404.433 83.2275H394.091V80.8545H407.04V83.2275Z" fill="black"/>
<path d="M61.2637 91.1299H55.5068V97.1064H52.9873V91.1299H47.2305V88.9033H52.9873V82.9707H55.5068V88.9033H61.2637V91.1299Z" fill="#999999"/>
<path d="M207.627 91.2178H198.867V88.8154H207.627V91.2178Z" fill="black"/>
<path d="M358.264 91.1299H352.507V97.1064H349.987V91.1299H344.23V88.9033H349.987V82.9707H352.507V88.9033H358.264V91.1299Z" fill="black"/>
<path d="M351.53 54.4697C351.237 54.1768 350.763 54.1768 350.47 54.4697L345.697 59.2426C345.404 59.5355 345.404 60.0104 345.697 60.3033C345.99 60.5962 346.464 60.5962 346.757 60.3033L351 56.0607L355.243 60.3033C355.536 60.5962 356.01 60.5962 356.303 60.3033C356.596 60.0104 356.596 59.5355 356.303 59.2426L351.53 54.4697ZM351.75 75L351.75 55L350.25 55L350.25 75L351.75 75Z" fill="#FF5500"/>
<path d="M399.47 125.53C399.763 125.823 400.237 125.823 400.53 125.53L405.303 120.757C405.596 120.464 405.596 119.99 405.303 119.697C405.01 119.404 404.536 119.404 404.243 119.697L400 123.939L395.757 119.697C395.464 119.404 394.99 119.404 394.697 119.697C394.404 119.99 394.404 120.464 394.697 120.757L399.47 125.53ZM399.25 104L399.25 125L400.75 125L400.75 104L399.25 104Z" fill="#FF5500"/>
<path d="M306.124 44.5215C306.124 44.9701 306.048 45.3721 305.896 45.7275C305.743 46.083 305.536 46.4004 305.273 46.6797C305.011 46.9505 304.706 47.1833 304.359 47.3779C304.012 47.5726 303.64 47.7334 303.242 47.8604C302.853 47.9873 302.451 48.0804 302.036 48.1396C301.621 48.1989 301.215 48.2285 300.817 48.2285C299.954 48.2285 299.159 48.1904 298.431 48.1143C297.711 48.0381 297.005 47.9154 296.311 47.7461V45.7148C297.055 45.9264 297.796 46.0872 298.532 46.1973C299.269 46.3073 300.001 46.3623 300.729 46.3623C301.786 46.3623 302.569 46.2184 303.077 45.9307C303.585 45.6429 303.839 45.2324 303.839 44.6992C303.839 44.4707 303.797 44.2676 303.712 44.0898C303.636 43.9036 303.492 43.7301 303.28 43.5693C303.069 43.4001 302.739 43.2266 302.29 43.0488C301.85 42.8711 301.245 42.668 300.475 42.4395C299.899 42.2702 299.366 42.0798 298.875 41.8682C298.393 41.6481 297.974 41.39 297.618 41.0938C297.263 40.7975 296.983 40.4505 296.78 40.0527C296.577 39.6549 296.476 39.1852 296.476 38.6436C296.476 38.2881 296.556 37.8988 296.717 37.4756C296.886 37.0524 297.17 36.6589 297.567 36.2949C297.965 35.931 298.503 35.6305 299.18 35.3936C299.857 35.1481 300.703 35.0254 301.719 35.0254C302.218 35.0254 302.772 35.055 303.382 35.1143C303.991 35.165 304.626 35.2581 305.286 35.3936V37.3613C304.592 37.1921 303.932 37.0693 303.306 36.9932C302.688 36.9085 302.15 36.8662 301.693 36.8662C301.143 36.8662 300.678 36.9085 300.297 36.9932C299.924 37.0778 299.62 37.1963 299.383 37.3486C299.154 37.4925 298.989 37.666 298.888 37.8691C298.786 38.0638 298.735 38.2754 298.735 38.5039C298.735 38.7324 298.778 38.9398 298.862 39.126C298.955 39.3122 299.12 39.4941 299.357 39.6719C299.603 39.8411 299.941 40.0146 300.373 40.1924C300.805 40.3617 301.368 40.5479 302.062 40.751C302.815 40.971 303.45 41.2038 303.966 41.4492C304.482 41.6862 304.901 41.9528 305.223 42.249C305.544 42.5452 305.773 42.8796 305.908 43.252C306.052 43.6243 306.124 44.0475 306.124 44.5215ZM314.668 37.082H310.897V35.2539H316.902V46.1592H320.698V48H310.479V46.1592H314.668V37.082ZM315.442 29.9092C315.688 29.9092 315.916 29.9557 316.128 30.0488C316.34 30.1335 316.521 30.2562 316.674 30.417C316.835 30.5778 316.957 30.764 317.042 30.9756C317.135 31.1787 317.182 31.403 317.182 31.6484C317.182 31.8854 317.135 32.1097 317.042 32.3213C316.957 32.5329 316.835 32.7191 316.674 32.8799C316.521 33.0407 316.34 33.1676 316.128 33.2607C315.916 33.3454 315.688 33.3877 315.442 33.3877C315.197 33.3877 314.968 33.3454 314.757 33.2607C314.545 33.1676 314.359 33.0407 314.198 32.8799C314.046 32.7191 313.923 32.5329 313.83 32.3213C313.745 32.1097 313.703 31.8854 313.703 31.6484C313.703 31.403 313.745 31.1787 313.83 30.9756C313.923 30.764 314.046 30.5778 314.198 30.417C314.359 30.2562 314.545 30.1335 314.757 30.0488C314.968 29.9557 315.197 29.9092 315.442 29.9092ZM333.8 37.0566C334.037 37.3529 334.219 37.6999 334.346 38.0977C334.481 38.487 334.549 38.9102 334.549 39.3672C334.549 40.0273 334.426 40.6325 334.181 41.1826C333.944 41.7243 333.605 42.1898 333.165 42.5791C332.725 42.9684 332.196 43.2731 331.578 43.4932C330.969 43.7048 330.296 43.8105 329.56 43.8105C329.026 43.8105 328.527 43.7555 328.062 43.6455C327.596 43.527 327.228 43.3831 326.957 43.2139C326.796 43.4508 326.661 43.6751 326.551 43.8867C326.441 44.0983 326.386 44.3353 326.386 44.5977C326.386 44.9193 326.538 45.1859 326.843 45.3975C327.156 45.609 327.566 45.7233 328.074 45.7402L331.426 45.8672C332.061 45.8841 332.645 45.9645 333.178 46.1084C333.719 46.2523 334.181 46.4596 334.562 46.7305C334.951 47.0013 335.251 47.3356 335.463 47.7334C335.683 48.1312 335.793 48.5924 335.793 49.1172C335.793 49.6842 335.67 50.2217 335.425 50.7295C335.179 51.2373 334.799 51.6816 334.282 52.0625C333.774 52.4518 333.127 52.7607 332.34 52.9893C331.553 53.2178 330.618 53.332 329.534 53.332C328.502 53.332 327.621 53.2474 326.894 53.0781C326.174 52.9173 325.582 52.6888 325.116 52.3926C324.651 52.1048 324.312 51.7578 324.101 51.3516C323.889 50.9538 323.783 50.5137 323.783 50.0312C323.783 49.4134 323.927 48.8717 324.215 48.4062C324.503 47.9408 324.947 47.4922 325.548 47.0605C325.328 46.959 325.137 46.832 324.977 46.6797C324.816 46.5273 324.685 46.3623 324.583 46.1846C324.481 45.9984 324.405 45.8037 324.354 45.6006C324.304 45.3975 324.278 45.1986 324.278 45.0039C324.278 44.4538 324.405 43.9502 324.659 43.4932C324.922 43.0361 325.23 42.6045 325.586 42.1982C325.425 42.0036 325.281 41.8132 325.154 41.627C325.036 41.4408 324.93 41.2419 324.837 41.0303C324.752 40.8102 324.685 40.5775 324.634 40.332C324.591 40.0781 324.57 39.7904 324.57 39.4688C324.57 38.8086 324.689 38.2077 324.926 37.666C325.171 37.1159 325.51 36.6462 325.941 36.2568C326.382 35.8675 326.906 35.5671 327.516 35.3555C328.133 35.1354 328.815 35.0254 329.56 35.0254C329.873 35.0254 330.173 35.0465 330.461 35.0889C330.749 35.1312 331.003 35.1862 331.223 35.2539H335.844V37.0566H333.8ZM326.132 49.8408C326.132 50.4417 326.445 50.8776 327.071 51.1484C327.698 51.4277 328.569 51.5674 329.687 51.5674C330.389 51.5674 330.977 51.5039 331.451 51.377C331.934 51.25 332.319 51.0807 332.606 50.8691C332.903 50.666 333.114 50.429 333.241 50.1582C333.368 49.8958 333.432 49.625 333.432 49.3457C333.432 48.8294 333.22 48.4486 332.797 48.2031C332.374 47.9577 331.726 47.8138 330.854 47.7715L327.528 47.6572C327.249 47.8434 327.016 48.0254 326.83 48.2031C326.652 48.3809 326.513 48.5586 326.411 48.7363C326.31 48.9225 326.238 49.1045 326.195 49.2822C326.153 49.4684 326.132 49.6546 326.132 49.8408ZM326.805 39.418C326.805 39.8242 326.872 40.1966 327.008 40.5352C327.143 40.8737 327.334 41.1615 327.579 41.3984C327.825 41.6354 328.112 41.8216 328.442 41.957C328.781 42.084 329.153 42.1475 329.56 42.1475C330 42.1475 330.389 42.0755 330.728 41.9316C331.075 41.7793 331.362 41.5762 331.591 41.3223C331.828 41.0684 332.006 40.7764 332.124 40.4463C332.251 40.1162 332.314 39.7734 332.314 39.418C332.314 39.0117 332.247 38.6393 332.111 38.3008C331.976 37.9622 331.785 37.6745 331.54 37.4375C331.295 37.2005 331.003 37.0186 330.664 36.8916C330.334 36.7562 329.966 36.6885 329.56 36.6885C329.119 36.6885 328.726 36.7646 328.379 36.917C328.04 37.0693 327.753 37.2725 327.516 37.5264C327.287 37.7718 327.109 38.0596 326.982 38.3896C326.864 38.7197 326.805 39.0625 326.805 39.418ZM338.916 35.2539H340.884L340.973 37.3105C341.345 36.8704 341.705 36.5065 342.052 36.2188C342.399 35.9225 342.737 35.6855 343.067 35.5078C343.406 35.3301 343.749 35.2074 344.096 35.1396C344.443 35.0635 344.802 35.0254 345.175 35.0254C346.487 35.0254 347.477 35.4147 348.146 36.1934C348.823 36.9635 349.161 38.1273 349.161 39.6846V48H346.952V39.8623C346.952 38.8636 346.766 38.1273 346.394 37.6533C346.021 37.1709 345.467 36.9297 344.73 36.9297C344.46 36.9297 344.193 36.972 343.931 37.0566C343.677 37.1328 343.41 37.2725 343.131 37.4756C342.852 37.6702 342.547 37.9368 342.217 38.2754C341.895 38.6139 341.531 39.0371 341.125 39.5449V48H338.916V35.2539ZM378.081 39.7988H367.163V37.9326H378.081V39.7988ZM378.081 44.2168H367.163V42.3506H378.081V44.2168ZM406.722 48H396.299V45.9434H400.564V33.832L396.591 35.9902L395.778 34.1113L401.06 31.3311H403.015V45.9434H406.722V48Z" fill="black"/>
<path d="M323.934 149.53C323.358 149.75 322.766 149.911 322.156 150.013C321.555 150.123 320.933 150.178 320.29 150.178C318.276 150.178 316.723 149.632 315.631 148.54C314.548 147.448 314.006 145.853 314.006 143.754C314.006 142.747 314.162 141.833 314.476 141.012C314.789 140.191 315.229 139.488 315.796 138.904C316.363 138.32 317.04 137.872 317.827 137.559C318.614 137.237 319.482 137.076 320.43 137.076C321.09 137.076 321.708 137.123 322.283 137.216C322.859 137.309 323.409 137.461 323.934 137.673V139.78C323.383 139.493 322.821 139.285 322.245 139.158C321.678 139.023 321.09 138.955 320.48 138.955C319.913 138.955 319.376 139.065 318.868 139.285C318.369 139.497 317.929 139.806 317.548 140.212C317.167 140.618 316.867 141.113 316.646 141.697C316.426 142.281 316.316 142.941 316.316 143.678C316.316 145.218 316.689 146.373 317.434 147.144C318.187 147.905 319.228 148.286 320.557 148.286C321.158 148.286 321.737 148.218 322.296 148.083C322.863 147.948 323.409 147.744 323.934 147.474V149.53ZM338.571 150H336.591L336.515 147.943C336.134 148.383 335.77 148.752 335.423 149.048C335.084 149.336 334.746 149.568 334.407 149.746C334.069 149.924 333.726 150.047 333.379 150.114C333.04 150.19 332.681 150.229 332.3 150.229C330.988 150.229 329.998 149.843 329.329 149.073C328.66 148.303 328.326 147.139 328.326 145.582V137.254H330.535V145.404C330.535 147.359 331.271 148.337 332.744 148.337C333.015 148.337 333.277 148.299 333.531 148.223C333.794 148.138 334.064 147.998 334.344 147.804C334.632 147.601 334.936 147.33 335.258 146.991C335.588 146.653 335.956 146.225 336.362 145.709V137.254H338.571V150ZM343.142 137.254H345.16L345.224 139.603C345.977 138.697 346.717 138.041 347.445 137.635C348.182 137.229 348.922 137.025 349.667 137.025C350.987 137.025 351.986 137.453 352.663 138.308C353.349 139.162 353.666 140.432 353.615 142.116H351.381C351.406 140.999 351.241 140.191 350.886 139.691C350.539 139.184 350.027 138.93 349.35 138.93C349.053 138.93 348.753 138.985 348.448 139.095C348.152 139.196 347.843 139.366 347.521 139.603C347.208 139.831 346.874 140.127 346.519 140.491C346.163 140.855 345.782 141.295 345.376 141.812V150H343.142V137.254ZM357.437 137.254H359.455L359.519 139.603C360.272 138.697 361.012 138.041 361.74 137.635C362.477 137.229 363.217 137.025 363.962 137.025C365.282 137.025 366.281 137.453 366.958 138.308C367.644 139.162 367.961 140.432 367.91 142.116H365.676C365.701 140.999 365.536 140.191 365.181 139.691C364.834 139.184 364.322 138.93 363.645 138.93C363.348 138.93 363.048 138.985 362.743 139.095C362.447 139.196 362.138 139.366 361.816 139.603C361.503 139.831 361.169 140.127 360.813 140.491C360.458 140.855 360.077 141.295 359.671 141.812V150H357.437V137.254ZM383.475 155.205H369.18V153.377H383.475V155.205ZM385.506 137.254H387.474L387.562 139.311C387.935 138.87 388.295 138.507 388.642 138.219C388.989 137.923 389.327 137.686 389.657 137.508C389.996 137.33 390.339 137.207 390.686 137.14C391.033 137.063 391.392 137.025 391.765 137.025C393.076 137.025 394.067 137.415 394.735 138.193C395.412 138.964 395.751 140.127 395.751 141.685V150H393.542V141.862C393.542 140.864 393.356 140.127 392.983 139.653C392.611 139.171 392.057 138.93 391.32 138.93C391.049 138.93 390.783 138.972 390.521 139.057C390.267 139.133 390 139.272 389.721 139.476C389.441 139.67 389.137 139.937 388.807 140.275C388.485 140.614 388.121 141.037 387.715 141.545V150H385.506V137.254ZM410.046 150H408.065L407.989 147.943C407.608 148.383 407.244 148.752 406.897 149.048C406.559 149.336 406.22 149.568 405.882 149.746C405.543 149.924 405.201 150.047 404.854 150.114C404.515 150.19 404.155 150.229 403.774 150.229C402.463 150.229 401.472 149.843 400.804 149.073C400.135 148.303 399.801 147.139 399.801 145.582V137.254H402.01V145.404C402.01 147.359 402.746 148.337 404.219 148.337C404.49 148.337 404.752 148.299 405.006 148.223C405.268 148.138 405.539 147.998 405.818 147.804C406.106 147.601 406.411 147.33 406.732 146.991C407.062 146.653 407.431 146.225 407.837 145.709V137.254H410.046V150ZM423.186 150V140.847C423.186 140.449 423.169 140.123 423.135 139.869C423.109 139.615 423.063 139.416 422.995 139.272C422.936 139.12 422.855 139.014 422.754 138.955C422.661 138.896 422.542 138.866 422.398 138.866C422.229 138.866 422.073 138.917 421.929 139.019C421.785 139.12 421.628 139.285 421.459 139.514C421.298 139.742 421.116 140.047 420.913 140.428C420.718 140.8 420.486 141.261 420.215 141.812V150H418.196V141.088C418.196 140.622 418.179 140.246 418.146 139.958C418.12 139.67 418.074 139.446 418.006 139.285C417.947 139.124 417.866 139.014 417.765 138.955C417.663 138.896 417.54 138.866 417.396 138.866C417.244 138.866 417.1 138.909 416.965 138.993C416.829 139.078 416.677 139.23 416.508 139.45C416.347 139.67 416.165 139.971 415.962 140.352C415.759 140.732 415.518 141.219 415.238 141.812V150H413.207V137.254H414.896L414.997 139.679C415.217 139.196 415.429 138.786 415.632 138.447C415.843 138.109 416.059 137.838 416.279 137.635C416.499 137.423 416.732 137.271 416.978 137.178C417.231 137.076 417.511 137.025 417.815 137.025C418.501 137.025 419.021 137.25 419.377 137.698C419.732 138.147 419.91 138.841 419.91 139.78C420.113 139.34 420.312 138.951 420.507 138.612C420.701 138.265 420.909 137.978 421.129 137.749C421.357 137.512 421.607 137.334 421.878 137.216C422.149 137.089 422.462 137.025 422.817 137.025C424.417 137.025 425.217 138.257 425.217 140.72V150H423.186ZM453.261 141.799H442.343V139.933H453.261V141.799ZM453.261 146.217H442.343V144.351H453.261V146.217ZM481.952 135.464L474.995 150H472.469L479.692 135.464H470.729V133.407H481.952V135.464Z" fill="black"/>
<path d="M448.904 29.6016H446.004V28.1953H450.623V36.584H453.543V38H445.682V36.584H448.904V29.6016ZM449.5 24.084C449.689 24.084 449.865 24.1198 450.027 24.1914C450.19 24.2565 450.33 24.3509 450.447 24.4746C450.571 24.5983 450.665 24.7415 450.73 24.9043C450.802 25.0605 450.838 25.2331 450.838 25.4219C450.838 25.6042 450.802 25.7767 450.73 25.9395C450.665 26.1022 450.571 26.2454 450.447 26.3691C450.33 26.4928 450.19 26.5905 450.027 26.6621C449.865 26.7272 449.689 26.7598 449.5 26.7598C449.311 26.7598 449.135 26.7272 448.973 26.6621C448.81 26.5905 448.667 26.4928 448.543 26.3691C448.426 26.2454 448.331 26.1022 448.26 25.9395C448.195 25.7767 448.162 25.6042 448.162 25.4219C448.162 25.2331 448.195 25.0605 448.26 24.9043C448.331 24.7415 448.426 24.5983 448.543 24.4746C448.667 24.3509 448.81 24.2565 448.973 24.1914C449.135 24.1198 449.311 24.084 449.5 24.084Z" fill="#FF5500"/>
<path d="M448.293 73.7071C448.683 74.0976 449.317 74.0976 449.707 73.7071L456.071 67.3431C456.462 66.9526 456.462 66.3195 456.071 65.9289C455.681 65.5384 455.047 65.5384 454.657 65.9289L449 71.5858L443.343 65.9289C442.953 65.5384 442.319 65.5384 441.929 65.9289C441.538 66.3195 441.538 66.9526 441.929 67.3431L448.293 73.7071ZM448 46L448 73L450 73L450 46L448 46Z" fill="#FF5500"/>
<rect x="509" y="1" width="386" height="174" rx="10" fill="#EDEDED" stroke="#999999" stroke-width="2" stroke-dasharray="10 10"/>
<path d="M540.552 31.2539H542.57L542.634 33.6025C543.387 32.6969 544.128 32.041 544.855 31.6348C545.592 31.2285 546.332 31.0254 547.077 31.0254C548.397 31.0254 549.396 31.4528 550.073 32.3076C550.759 33.1624 551.076 34.432 551.025 36.1162H548.791C548.816 34.999 548.651 34.1908 548.296 33.6914C547.949 33.1836 547.437 32.9297 546.76 32.9297C546.464 32.9297 546.163 32.9847 545.858 33.0947C545.562 33.1963 545.253 33.3656 544.932 33.6025C544.618 33.8311 544.284 34.1273 543.929 34.4912C543.573 34.8551 543.192 35.2952 542.786 35.8115V44H540.552V31.2539ZM565.092 36.9541C565.092 37.2673 565.088 37.5296 565.079 37.7412C565.071 37.9528 565.058 38.1517 565.041 38.3379H556.091C556.091 39.6413 556.455 40.6442 557.183 41.3467C557.91 42.0407 558.96 42.3877 560.331 42.3877C560.703 42.3877 561.076 42.375 561.448 42.3496C561.821 42.3158 562.18 42.2734 562.527 42.2227C562.874 42.1719 563.204 42.1169 563.518 42.0576C563.839 41.9899 564.135 41.918 564.406 41.8418V43.6572C563.805 43.8265 563.124 43.9619 562.362 44.0635C561.609 44.1735 560.826 44.2285 560.014 44.2285C558.922 44.2285 557.982 44.0804 557.195 43.7842C556.408 43.488 555.761 43.0605 555.253 42.502C554.754 41.9349 554.381 41.2451 554.136 40.4326C553.899 39.6117 553.78 38.6849 553.78 37.6523C553.78 36.7552 553.907 35.9089 554.161 35.1133C554.424 34.3092 554.8 33.6068 555.291 33.0059C555.79 32.3965 556.4 31.9141 557.119 31.5586C557.839 31.2031 558.655 31.0254 559.569 31.0254C560.458 31.0254 561.245 31.165 561.931 31.4443C562.616 31.7236 563.192 32.1214 563.657 32.6377C564.131 33.1455 564.487 33.7676 564.724 34.5039C564.969 35.2318 565.092 36.0485 565.092 36.9541ZM562.794 36.6367C562.819 36.0697 562.764 35.5534 562.629 35.0879C562.493 34.6139 562.282 34.2077 561.994 33.8691C561.715 33.5306 561.364 33.2682 560.94 33.082C560.517 32.8874 560.026 32.79 559.468 32.79C558.985 32.79 558.545 32.8831 558.147 33.0693C557.75 33.2555 557.407 33.5179 557.119 33.8564C556.831 34.195 556.599 34.6012 556.421 35.0752C556.243 35.5492 556.133 36.0697 556.091 36.6367H562.794ZM578.714 40.5215C578.714 40.9701 578.638 41.3721 578.485 41.7275C578.333 42.083 578.126 42.4004 577.863 42.6797C577.601 42.9505 577.296 43.1833 576.949 43.3779C576.602 43.5726 576.23 43.7334 575.832 43.8604C575.443 43.9873 575.041 44.0804 574.626 44.1396C574.211 44.1989 573.805 44.2285 573.407 44.2285C572.544 44.2285 571.748 44.1904 571.021 44.1143C570.301 44.0381 569.594 43.9154 568.9 43.7461V41.7148C569.645 41.9264 570.386 42.0872 571.122 42.1973C571.858 42.3073 572.59 42.3623 573.318 42.3623C574.376 42.3623 575.159 42.2184 575.667 41.9307C576.175 41.6429 576.429 41.2324 576.429 40.6992C576.429 40.4707 576.386 40.2676 576.302 40.0898C576.226 39.9036 576.082 39.7301 575.87 39.5693C575.659 39.4001 575.328 39.2266 574.88 39.0488C574.44 38.8711 573.835 38.668 573.064 38.4395C572.489 38.2702 571.956 38.0798 571.465 37.8682C570.982 37.6481 570.563 37.39 570.208 37.0938C569.853 36.7975 569.573 36.4505 569.37 36.0527C569.167 35.6549 569.065 35.1852 569.065 34.6436C569.065 34.2881 569.146 33.8988 569.307 33.4756C569.476 33.0524 569.759 32.6589 570.157 32.2949C570.555 31.931 571.092 31.6305 571.77 31.3936C572.447 31.1481 573.293 31.0254 574.309 31.0254C574.808 31.0254 575.362 31.055 575.972 31.1143C576.581 31.165 577.216 31.2581 577.876 31.3936V33.3613C577.182 33.1921 576.522 33.0693 575.896 32.9932C575.278 32.9085 574.74 32.8662 574.283 32.8662C573.733 32.8662 573.268 32.9085 572.887 32.9932C572.514 33.0778 572.21 33.1963 571.973 33.3486C571.744 33.4925 571.579 33.666 571.478 33.8691C571.376 34.0638 571.325 34.2754 571.325 34.5039C571.325 34.7324 571.368 34.9398 571.452 35.126C571.545 35.3122 571.71 35.4941 571.947 35.6719C572.193 35.8411 572.531 36.0146 572.963 36.1924C573.395 36.3617 573.957 36.5479 574.651 36.751C575.405 36.971 576.039 37.2038 576.556 37.4492C577.072 37.6862 577.491 37.9528 577.812 38.249C578.134 38.5452 578.363 38.8796 578.498 39.252C578.642 39.6243 578.714 40.0475 578.714 40.5215ZM608.408 38.0459H603.419V43.2256H601.235V38.0459H596.246V36.1162H601.235V30.9746H603.419V36.1162H608.408V38.0459ZM622.081 35.7988H611.163V33.9326H622.081V35.7988ZM622.081 40.2168H611.163V38.3506H622.081V40.2168ZM650.188 40.5215C650.188 40.9701 650.112 41.3721 649.96 41.7275C649.808 42.083 649.6 42.4004 649.338 42.6797C649.076 42.9505 648.771 43.1833 648.424 43.3779C648.077 43.5726 647.704 43.7334 647.307 43.8604C646.917 43.9873 646.515 44.0804 646.101 44.1396C645.686 44.1989 645.28 44.2285 644.882 44.2285C644.019 44.2285 643.223 44.1904 642.495 44.1143C641.776 44.0381 641.069 43.9154 640.375 43.7461V41.7148C641.12 41.9264 641.86 42.0872 642.597 42.1973C643.333 42.3073 644.065 42.3623 644.793 42.3623C645.851 42.3623 646.634 42.2184 647.142 41.9307C647.649 41.6429 647.903 41.2324 647.903 40.6992C647.903 40.4707 647.861 40.2676 647.776 40.0898C647.7 39.9036 647.556 39.7301 647.345 39.5693C647.133 39.4001 646.803 39.2266 646.354 39.0488C645.914 38.8711 645.309 38.668 644.539 38.4395C643.964 38.2702 643.43 38.0798 642.939 37.8682C642.457 37.6481 642.038 37.39 641.683 37.0938C641.327 36.7975 641.048 36.4505 640.845 36.0527C640.642 35.6549 640.54 35.1852 640.54 34.6436C640.54 34.2881 640.62 33.8988 640.781 33.4756C640.951 33.0524 641.234 32.6589 641.632 32.2949C642.03 31.931 642.567 31.6305 643.244 31.3936C643.921 31.1481 644.768 31.0254 645.783 31.0254C646.283 31.0254 646.837 31.055 647.446 31.1143C648.056 31.165 648.69 31.2581 649.351 31.3936V33.3613C648.657 33.1921 647.996 33.0693 647.37 32.9932C646.752 32.9085 646.215 32.8662 645.758 32.8662C645.208 32.8662 644.742 32.9085 644.361 32.9932C643.989 33.0778 643.684 33.1963 643.447 33.3486C643.219 33.4925 643.054 33.666 642.952 33.8691C642.851 34.0638 642.8 34.2754 642.8 34.5039C642.8 34.7324 642.842 34.9398 642.927 35.126C643.02 35.3122 643.185 35.4941 643.422 35.6719C643.667 35.8411 644.006 36.0146 644.438 36.1924C644.869 36.3617 645.432 36.5479 646.126 36.751C646.879 36.971 647.514 37.2038 648.03 37.4492C648.547 37.6862 648.965 37.9528 649.287 38.249C649.609 38.5452 649.837 38.8796 649.973 39.252C650.117 39.6243 650.188 40.0475 650.188 40.5215ZM658.732 33.082H654.962V31.2539H660.967V42.1592H664.763V44H654.543V42.1592H658.732V33.082ZM659.507 25.9092C659.752 25.9092 659.981 25.9557 660.192 26.0488C660.404 26.1335 660.586 26.2562 660.738 26.417C660.899 26.5778 661.022 26.764 661.106 26.9756C661.2 27.1787 661.246 27.403 661.246 27.6484C661.246 27.8854 661.2 28.1097 661.106 28.3213C661.022 28.5329 660.899 28.7191 660.738 28.8799C660.586 29.0407 660.404 29.1676 660.192 29.2607C659.981 29.3454 659.752 29.3877 659.507 29.3877C659.261 29.3877 659.033 29.3454 658.821 29.2607C658.61 29.1676 658.424 29.0407 658.263 28.8799C658.11 28.7191 657.988 28.5329 657.895 28.3213C657.81 28.1097 657.768 27.8854 657.768 27.6484C657.768 27.403 657.81 27.1787 657.895 26.9756C657.988 26.764 658.11 26.5778 658.263 26.417C658.424 26.2562 658.61 26.1335 658.821 26.0488C659.033 25.9557 659.261 25.9092 659.507 25.9092ZM677.864 33.0566C678.101 33.3529 678.283 33.6999 678.41 34.0977C678.546 34.487 678.613 34.9102 678.613 35.3672C678.613 36.0273 678.491 36.6325 678.245 37.1826C678.008 37.7243 677.67 38.1898 677.229 38.5791C676.789 38.9684 676.26 39.2731 675.643 39.4932C675.033 39.7048 674.36 39.8105 673.624 39.8105C673.091 39.8105 672.591 39.7555 672.126 39.6455C671.66 39.527 671.292 39.3831 671.021 39.2139C670.861 39.4508 670.725 39.6751 670.615 39.8867C670.505 40.0983 670.45 40.3353 670.45 40.5977C670.45 40.9193 670.603 41.1859 670.907 41.3975C671.22 41.609 671.631 41.7233 672.139 41.7402L675.49 41.8672C676.125 41.8841 676.709 41.9645 677.242 42.1084C677.784 42.2523 678.245 42.4596 678.626 42.7305C679.015 43.0013 679.316 43.3356 679.527 43.7334C679.747 44.1312 679.857 44.5924 679.857 45.1172C679.857 45.6842 679.735 46.2217 679.489 46.7295C679.244 47.2373 678.863 47.6816 678.347 48.0625C677.839 48.4518 677.191 48.7607 676.404 48.9893C675.617 49.2178 674.682 49.332 673.599 49.332C672.566 49.332 671.686 49.2474 670.958 49.0781C670.239 48.9173 669.646 48.6888 669.181 48.3926C668.715 48.1048 668.377 47.7578 668.165 47.3516C667.953 46.9538 667.848 46.5137 667.848 46.0312C667.848 45.4134 667.992 44.8717 668.279 44.4062C668.567 43.9408 669.011 43.4922 669.612 43.0605C669.392 42.959 669.202 42.832 669.041 42.6797C668.88 42.5273 668.749 42.3623 668.647 42.1846C668.546 41.9984 668.47 41.8037 668.419 41.6006C668.368 41.3975 668.343 41.1986 668.343 41.0039C668.343 40.4538 668.47 39.9502 668.724 39.4932C668.986 39.0361 669.295 38.6045 669.65 38.1982C669.49 38.0036 669.346 37.8132 669.219 37.627C669.1 37.4408 668.994 37.2419 668.901 37.0303C668.817 36.8102 668.749 36.5775 668.698 36.332C668.656 36.0781 668.635 35.7904 668.635 35.4688C668.635 34.8086 668.753 34.2077 668.99 33.666C669.236 33.1159 669.574 32.6462 670.006 32.2568C670.446 31.8675 670.971 31.5671 671.58 31.3555C672.198 31.1354 672.879 31.0254 673.624 31.0254C673.937 31.0254 674.238 31.0465 674.525 31.0889C674.813 31.1312 675.067 31.1862 675.287 31.2539H679.908V33.0566H677.864ZM670.196 45.8408C670.196 46.4417 670.509 46.8776 671.136 47.1484C671.762 47.4277 672.634 47.5674 673.751 47.5674C674.453 47.5674 675.042 47.5039 675.516 47.377C675.998 47.25 676.383 47.0807 676.671 46.8691C676.967 46.666 677.179 46.429 677.306 46.1582C677.433 45.8958 677.496 45.625 677.496 45.3457C677.496 44.8294 677.285 44.4486 676.861 44.2031C676.438 43.9577 675.791 43.8138 674.919 43.7715L671.593 43.6572C671.313 43.8434 671.081 44.0254 670.895 44.2031C670.717 44.3809 670.577 44.5586 670.476 44.7363C670.374 44.9225 670.302 45.1045 670.26 45.2822C670.217 45.4684 670.196 45.6546 670.196 45.8408ZM670.869 35.418C670.869 35.8242 670.937 36.1966 671.072 36.5352C671.208 36.8737 671.398 37.1615 671.644 37.3984C671.889 37.6354 672.177 37.8216 672.507 37.957C672.845 38.084 673.218 38.1475 673.624 38.1475C674.064 38.1475 674.453 38.0755 674.792 37.9316C675.139 37.7793 675.427 37.5762 675.655 37.3223C675.892 37.0684 676.07 36.7764 676.188 36.4463C676.315 36.1162 676.379 35.7734 676.379 35.418C676.379 35.0117 676.311 34.6393 676.176 34.3008C676.04 33.9622 675.85 33.6745 675.604 33.4375C675.359 33.2005 675.067 33.0186 674.729 32.8916C674.398 32.7562 674.03 32.6885 673.624 32.6885C673.184 32.6885 672.79 32.7646 672.443 32.917C672.105 33.0693 671.817 33.2725 671.58 33.5264C671.352 33.7718 671.174 34.0596 671.047 34.3896C670.928 34.7197 670.869 35.0625 670.869 35.418ZM682.98 31.2539H684.948L685.037 33.3105C685.41 32.8704 685.769 32.5065 686.116 32.2188C686.463 31.9225 686.802 31.6855 687.132 31.5078C687.47 31.3301 687.813 31.2074 688.16 31.1396C688.507 31.0635 688.867 31.0254 689.239 31.0254C690.551 31.0254 691.541 31.4147 692.21 32.1934C692.887 32.9635 693.226 34.1273 693.226 35.6846V44H691.017V35.8623C691.017 34.8636 690.83 34.1273 690.458 33.6533C690.086 33.1709 689.531 32.9297 688.795 32.9297C688.524 32.9297 688.257 32.972 687.995 33.0566C687.741 33.1328 687.475 33.2725 687.195 33.4756C686.916 33.6702 686.611 33.9368 686.281 34.2754C685.96 34.6139 685.596 35.0371 685.189 35.5449V44H682.98V31.2539ZM735.768 43.5303C735.192 43.7503 734.6 43.9111 733.99 44.0127C733.389 44.1227 732.767 44.1777 732.124 44.1777C730.11 44.1777 728.557 43.6318 727.465 42.54C726.382 41.4482 725.84 39.8529 725.84 37.7539C725.84 36.7467 725.996 35.8327 726.31 35.0117C726.623 34.1908 727.063 33.4883 727.63 32.9043C728.197 32.3203 728.874 31.8717 729.661 31.5586C730.448 31.237 731.316 31.0762 732.264 31.0762C732.924 31.0762 733.542 31.1227 734.117 31.2158C734.693 31.3089 735.243 31.4613 735.768 31.6729V33.7803C735.217 33.4925 734.655 33.2852 734.079 33.1582C733.512 33.0228 732.924 32.9551 732.314 32.9551C731.747 32.9551 731.21 33.0651 730.702 33.2852C730.203 33.4967 729.763 33.8057 729.382 34.2119C729.001 34.6182 728.701 35.1133 728.48 35.6973C728.26 36.2812 728.15 36.9414 728.15 37.6777C728.15 39.2181 728.523 40.3734 729.268 41.1436C730.021 41.9053 731.062 42.2861 732.391 42.2861C732.992 42.2861 733.571 42.2184 734.13 42.083C734.697 41.9476 735.243 41.7445 735.768 41.4736V43.5303ZM750.405 44H748.425L748.349 41.9434C747.968 42.3835 747.604 42.7516 747.257 43.0479C746.918 43.3356 746.58 43.5684 746.241 43.7461C745.903 43.9238 745.56 44.0465 745.213 44.1143C744.874 44.1904 744.515 44.2285 744.134 44.2285C742.822 44.2285 741.832 43.8434 741.163 43.0732C740.494 42.3031 740.16 41.1393 740.16 39.582V31.2539H742.369V39.4043C742.369 41.3594 743.105 42.3369 744.578 42.3369C744.849 42.3369 745.111 42.2988 745.365 42.2227C745.628 42.138 745.898 41.9984 746.178 41.8037C746.465 41.6006 746.77 41.3298 747.092 40.9912C747.422 40.6527 747.79 40.2253 748.196 39.709V31.2539H750.405V44ZM754.976 31.2539H756.994L757.058 33.6025C757.811 32.6969 758.551 32.041 759.279 31.6348C760.016 31.2285 760.756 31.0254 761.501 31.0254C762.821 31.0254 763.82 31.4528 764.497 32.3076C765.183 33.1624 765.5 34.432 765.449 36.1162H763.215C763.24 34.999 763.075 34.1908 762.72 33.6914C762.373 33.1836 761.861 32.9297 761.184 32.9297C760.887 32.9297 760.587 32.9847 760.282 33.0947C759.986 33.1963 759.677 33.3656 759.355 33.6025C759.042 33.8311 758.708 34.1273 758.353 34.4912C757.997 34.8551 757.616 35.2952 757.21 35.8115V44H754.976V31.2539ZM769.271 31.2539H771.289L771.353 33.6025C772.106 32.6969 772.846 32.041 773.574 31.6348C774.311 31.2285 775.051 31.0254 775.796 31.0254C777.116 31.0254 778.115 31.4528 778.792 32.3076C779.478 33.1624 779.795 34.432 779.744 36.1162H777.51C777.535 34.999 777.37 34.1908 777.015 33.6914C776.668 33.1836 776.156 32.9297 775.479 32.9297C775.182 32.9297 774.882 32.9847 774.577 33.0947C774.281 33.1963 773.972 33.3656 773.65 33.6025C773.337 33.8311 773.003 34.1273 772.647 34.4912C772.292 34.8551 771.911 35.2952 771.505 35.8115V44H769.271V31.2539ZM795.309 49.2051H781.014V47.377H795.309V49.2051ZM797.34 31.2539H799.308L799.396 33.3105C799.769 32.8704 800.129 32.5065 800.476 32.2188C800.823 31.9225 801.161 31.6855 801.491 31.5078C801.83 31.3301 802.173 31.2074 802.52 31.1396C802.867 31.0635 803.226 31.0254 803.599 31.0254C804.91 31.0254 805.901 31.4147 806.569 32.1934C807.246 32.9635 807.585 34.1273 807.585 35.6846V44H805.376V35.8623C805.376 34.8636 805.19 34.1273 804.817 33.6533C804.445 33.1709 803.891 32.9297 803.154 32.9297C802.883 32.9297 802.617 32.972 802.354 33.0566C802.101 33.1328 801.834 33.2725 801.555 33.4756C801.275 33.6702 800.971 33.9368 800.641 34.2754C800.319 34.6139 799.955 35.0371 799.549 35.5449V44H797.34V31.2539ZM821.88 44H819.899L819.823 41.9434C819.442 42.3835 819.078 42.7516 818.731 43.0479C818.393 43.3356 818.054 43.5684 817.716 43.7461C817.377 43.9238 817.035 44.0465 816.688 44.1143C816.349 44.1904 815.989 44.2285 815.608 44.2285C814.297 44.2285 813.306 43.8434 812.638 43.0732C811.969 42.3031 811.635 41.1393 811.635 39.582V31.2539H813.844V39.4043C813.844 41.3594 814.58 42.3369 816.053 42.3369C816.324 42.3369 816.586 42.2988 816.84 42.2227C817.102 42.138 817.373 41.9984 817.652 41.8037C817.94 41.6006 818.245 41.3298 818.566 40.9912C818.896 40.6527 819.265 40.2253 819.671 39.709V31.2539H821.88V44ZM835.02 44V34.8467C835.02 34.4489 835.003 34.123 834.969 33.8691C834.943 33.6152 834.897 33.4163 834.829 33.2725C834.77 33.1201 834.689 33.0143 834.588 32.9551C834.495 32.8958 834.376 32.8662 834.232 32.8662C834.063 32.8662 833.907 32.917 833.763 33.0186C833.619 33.1201 833.462 33.2852 833.293 33.5137C833.132 33.7422 832.95 34.0469 832.747 34.4277C832.552 34.8001 832.32 35.2614 832.049 35.8115V44H830.03V35.0879C830.03 34.6224 830.013 34.2458 829.979 33.958C829.954 33.6702 829.908 33.446 829.84 33.2852C829.781 33.1243 829.7 33.0143 829.599 32.9551C829.497 32.8958 829.374 32.8662 829.23 32.8662C829.078 32.8662 828.934 32.9085 828.799 32.9932C828.663 33.0778 828.511 33.2301 828.342 33.4502C828.181 33.6702 827.999 33.9707 827.796 34.3516C827.593 34.7324 827.352 35.2191 827.072 35.8115V44H825.041V31.2539H826.729L826.831 33.6787C827.051 33.1963 827.263 32.7858 827.466 32.4473C827.677 32.1087 827.893 31.8379 828.113 31.6348C828.333 31.4232 828.566 31.2708 828.812 31.1777C829.065 31.0762 829.345 31.0254 829.649 31.0254C830.335 31.0254 830.855 31.2497 831.211 31.6982C831.566 32.1468 831.744 32.8408 831.744 33.7803C831.947 33.3402 832.146 32.9508 832.341 32.6123C832.535 32.2653 832.743 31.9775 832.963 31.749C833.191 31.512 833.441 31.3343 833.712 31.2158C833.983 31.0889 834.296 31.0254 834.651 31.0254C836.251 31.0254 837.051 32.2568 837.051 34.7197V44H835.02ZM608.408 72.0459H603.419V77.2256H601.235V72.0459H596.246V70.1162H601.235V64.9746H603.419V70.1162H608.408V72.0459ZM622.081 69.7988H611.163V67.9326H622.081V69.7988ZM622.081 74.2168H611.163V72.3506H622.081V74.2168ZM650.772 63.4639L643.815 78H641.289L648.513 63.4639H639.55V61.4072H650.772V63.4639ZM622.081 103.799H611.163V101.933H622.081V103.799ZM622.081 108.217H611.163V106.351H622.081V108.217ZM650.861 112H639.931V110.02L644.222 105.754C644.924 105.06 645.495 104.459 645.936 103.951C646.376 103.443 646.718 102.982 646.964 102.567C647.209 102.144 647.374 101.746 647.459 101.374C647.544 101.002 647.586 100.6 647.586 100.168C647.586 99.7617 647.531 99.3766 647.421 99.0127C647.311 98.6403 647.142 98.3145 646.913 98.0352C646.685 97.7559 646.388 97.5358 646.024 97.375C645.66 97.2142 645.225 97.1338 644.717 97.1338C644.014 97.1338 643.375 97.2904 642.8 97.6035C642.224 97.9167 641.695 98.3229 641.213 98.8223L639.994 97.3623C640.62 96.7021 641.34 96.1732 642.152 95.7754C642.973 95.3776 643.925 95.1787 645.009 95.1787C645.745 95.1787 646.414 95.2887 647.015 95.5088C647.624 95.7288 648.149 96.0462 648.589 96.4609C649.029 96.8757 649.368 97.3835 649.604 97.9844C649.85 98.5853 649.973 99.2624 649.973 100.016C649.973 100.65 649.888 101.239 649.719 101.78C649.549 102.322 649.291 102.864 648.944 103.405C648.606 103.938 648.174 104.493 647.649 105.068C647.133 105.644 646.52 106.274 645.809 106.96L642.8 109.893H650.861V112ZM664.737 106.693C664.737 107.514 664.56 108.263 664.204 108.94C663.849 109.618 663.358 110.201 662.731 110.692C662.114 111.175 661.382 111.551 660.535 111.822C659.689 112.093 658.775 112.229 657.793 112.229C657.548 112.229 657.281 112.22 656.993 112.203C656.714 112.195 656.435 112.178 656.155 112.152C655.876 112.135 655.601 112.114 655.33 112.089C655.068 112.063 654.831 112.034 654.619 112V109.994C655.076 110.104 655.597 110.185 656.181 110.235C656.773 110.286 657.37 110.312 657.971 110.312C658.648 110.312 659.257 110.231 659.799 110.07C660.34 109.91 660.802 109.681 661.183 109.385C661.563 109.08 661.855 108.716 662.059 108.293C662.262 107.861 662.363 107.379 662.363 106.846C662.363 105.813 661.991 105.064 661.246 104.599C660.51 104.125 659.448 103.888 658.06 103.888H654.911V95.4072H663.849V97.3369H656.993V101.996H658.44C659.236 101.996 660.01 102.068 660.764 102.212C661.517 102.356 662.186 102.61 662.77 102.974C663.362 103.329 663.836 103.812 664.191 104.421C664.555 105.022 664.737 105.779 664.737 106.693ZM550.124 142.521C550.124 142.97 550.048 143.372 549.896 143.728C549.743 144.083 549.536 144.4 549.273 144.68C549.011 144.951 548.706 145.183 548.359 145.378C548.012 145.573 547.64 145.733 547.242 145.86C546.853 145.987 546.451 146.08 546.036 146.14C545.621 146.199 545.215 146.229 544.817 146.229C543.954 146.229 543.159 146.19 542.431 146.114C541.711 146.038 541.005 145.915 540.311 145.746V143.715C541.055 143.926 541.796 144.087 542.532 144.197C543.269 144.307 544.001 144.362 544.729 144.362C545.786 144.362 546.569 144.218 547.077 143.931C547.585 143.643 547.839 143.232 547.839 142.699C547.839 142.471 547.797 142.268 547.712 142.09C547.636 141.904 547.492 141.73 547.28 141.569C547.069 141.4 546.739 141.227 546.29 141.049C545.85 140.871 545.245 140.668 544.475 140.439C543.899 140.27 543.366 140.08 542.875 139.868C542.393 139.648 541.974 139.39 541.618 139.094C541.263 138.798 540.983 138.451 540.78 138.053C540.577 137.655 540.476 137.185 540.476 136.644C540.476 136.288 540.556 135.899 540.717 135.476C540.886 135.052 541.17 134.659 541.567 134.295C541.965 133.931 542.503 133.631 543.18 133.394C543.857 133.148 544.703 133.025 545.719 133.025C546.218 133.025 546.772 133.055 547.382 133.114C547.991 133.165 548.626 133.258 549.286 133.394V135.361C548.592 135.192 547.932 135.069 547.306 134.993C546.688 134.909 546.15 134.866 545.693 134.866C545.143 134.866 544.678 134.909 544.297 134.993C543.924 135.078 543.62 135.196 543.383 135.349C543.154 135.493 542.989 135.666 542.888 135.869C542.786 136.064 542.735 136.275 542.735 136.504C542.735 136.732 542.778 136.94 542.862 137.126C542.955 137.312 543.12 137.494 543.357 137.672C543.603 137.841 543.941 138.015 544.373 138.192C544.805 138.362 545.368 138.548 546.062 138.751C546.815 138.971 547.45 139.204 547.966 139.449C548.482 139.686 548.901 139.953 549.223 140.249C549.544 140.545 549.773 140.88 549.908 141.252C550.052 141.624 550.124 142.048 550.124 142.521ZM558.668 135.082H554.897V133.254H560.902V144.159H564.698V146H554.479V144.159H558.668V135.082ZM559.442 127.909C559.688 127.909 559.916 127.956 560.128 128.049C560.34 128.133 560.521 128.256 560.674 128.417C560.835 128.578 560.957 128.764 561.042 128.976C561.135 129.179 561.182 129.403 561.182 129.648C561.182 129.885 561.135 130.11 561.042 130.321C560.957 130.533 560.835 130.719 560.674 130.88C560.521 131.041 560.34 131.168 560.128 131.261C559.916 131.345 559.688 131.388 559.442 131.388C559.197 131.388 558.968 131.345 558.757 131.261C558.545 131.168 558.359 131.041 558.198 130.88C558.046 130.719 557.923 130.533 557.83 130.321C557.745 130.11 557.703 129.885 557.703 129.648C557.703 129.403 557.745 129.179 557.83 128.976C557.923 128.764 558.046 128.578 558.198 128.417C558.359 128.256 558.545 128.133 558.757 128.049C558.968 127.956 559.197 127.909 559.442 127.909ZM577.8 135.057C578.037 135.353 578.219 135.7 578.346 136.098C578.481 136.487 578.549 136.91 578.549 137.367C578.549 138.027 578.426 138.632 578.181 139.183C577.944 139.724 577.605 140.19 577.165 140.579C576.725 140.968 576.196 141.273 575.578 141.493C574.969 141.705 574.296 141.811 573.56 141.811C573.026 141.811 572.527 141.756 572.062 141.646C571.596 141.527 571.228 141.383 570.957 141.214C570.796 141.451 570.661 141.675 570.551 141.887C570.441 142.098 570.386 142.335 570.386 142.598C570.386 142.919 570.538 143.186 570.843 143.397C571.156 143.609 571.566 143.723 572.074 143.74L575.426 143.867C576.061 143.884 576.645 143.965 577.178 144.108C577.719 144.252 578.181 144.46 578.562 144.73C578.951 145.001 579.251 145.336 579.463 145.733C579.683 146.131 579.793 146.592 579.793 147.117C579.793 147.684 579.67 148.222 579.425 148.729C579.179 149.237 578.799 149.682 578.282 150.062C577.774 150.452 577.127 150.761 576.34 150.989C575.553 151.218 574.618 151.332 573.534 151.332C572.502 151.332 571.621 151.247 570.894 151.078C570.174 150.917 569.582 150.689 569.116 150.393C568.651 150.105 568.312 149.758 568.101 149.352C567.889 148.954 567.783 148.514 567.783 148.031C567.783 147.413 567.927 146.872 568.215 146.406C568.503 145.941 568.947 145.492 569.548 145.061C569.328 144.959 569.137 144.832 568.977 144.68C568.816 144.527 568.685 144.362 568.583 144.185C568.481 143.998 568.405 143.804 568.354 143.601C568.304 143.397 568.278 143.199 568.278 143.004C568.278 142.454 568.405 141.95 568.659 141.493C568.922 141.036 569.23 140.604 569.586 140.198C569.425 140.004 569.281 139.813 569.154 139.627C569.036 139.441 568.93 139.242 568.837 139.03C568.752 138.81 568.685 138.577 568.634 138.332C568.591 138.078 568.57 137.79 568.57 137.469C568.57 136.809 568.689 136.208 568.926 135.666C569.171 135.116 569.51 134.646 569.941 134.257C570.382 133.868 570.906 133.567 571.516 133.355C572.133 133.135 572.815 133.025 573.56 133.025C573.873 133.025 574.173 133.047 574.461 133.089C574.749 133.131 575.003 133.186 575.223 133.254H579.844V135.057H577.8ZM570.132 147.841C570.132 148.442 570.445 148.878 571.071 149.148C571.698 149.428 572.569 149.567 573.687 149.567C574.389 149.567 574.977 149.504 575.451 149.377C575.934 149.25 576.319 149.081 576.606 148.869C576.903 148.666 577.114 148.429 577.241 148.158C577.368 147.896 577.432 147.625 577.432 147.346C577.432 146.829 577.22 146.449 576.797 146.203C576.374 145.958 575.726 145.814 574.854 145.771L571.528 145.657C571.249 145.843 571.016 146.025 570.83 146.203C570.652 146.381 570.513 146.559 570.411 146.736C570.31 146.923 570.238 147.104 570.195 147.282C570.153 147.468 570.132 147.655 570.132 147.841ZM570.805 137.418C570.805 137.824 570.872 138.197 571.008 138.535C571.143 138.874 571.334 139.161 571.579 139.398C571.825 139.635 572.112 139.822 572.442 139.957C572.781 140.084 573.153 140.147 573.56 140.147C574 140.147 574.389 140.076 574.728 139.932C575.075 139.779 575.362 139.576 575.591 139.322C575.828 139.068 576.006 138.776 576.124 138.446C576.251 138.116 576.314 137.773 576.314 137.418C576.314 137.012 576.247 136.639 576.111 136.301C575.976 135.962 575.785 135.674 575.54 135.438C575.295 135.201 575.003 135.019 574.664 134.892C574.334 134.756 573.966 134.688 573.56 134.688C573.119 134.688 572.726 134.765 572.379 134.917C572.04 135.069 571.753 135.272 571.516 135.526C571.287 135.772 571.109 136.06 570.982 136.39C570.864 136.72 570.805 137.062 570.805 137.418ZM582.916 133.254H584.884L584.973 135.311C585.345 134.87 585.705 134.507 586.052 134.219C586.399 133.923 586.737 133.686 587.067 133.508C587.406 133.33 587.749 133.207 588.096 133.14C588.443 133.063 588.802 133.025 589.175 133.025C590.487 133.025 591.477 133.415 592.146 134.193C592.823 134.964 593.161 136.127 593.161 137.685V146H590.952V137.862C590.952 136.864 590.766 136.127 590.394 135.653C590.021 135.171 589.467 134.93 588.73 134.93C588.46 134.93 588.193 134.972 587.931 135.057C587.677 135.133 587.41 135.272 587.131 135.476C586.852 135.67 586.547 135.937 586.217 136.275C585.895 136.614 585.531 137.037 585.125 137.545V146H582.916V133.254ZM622.081 137.799H611.163V135.933H622.081V137.799ZM622.081 142.217H611.163V140.351H622.081V142.217ZM650.722 146H640.299V143.943H644.564V131.832L640.591 133.99L639.778 132.111L645.06 129.331H647.015V143.943H650.722V146ZM655.381 148.603C655.812 148.619 656.231 148.581 656.638 148.488C657.044 148.395 657.399 148.256 657.704 148.069C658.017 147.892 658.267 147.667 658.453 147.396C658.639 147.126 658.732 146.817 658.732 146.47C658.732 146.114 658.669 145.826 658.542 145.606C658.424 145.386 658.288 145.183 658.136 144.997C657.983 144.811 657.844 144.612 657.717 144.4C657.598 144.189 657.539 143.905 657.539 143.55C657.539 143.372 657.573 143.186 657.641 142.991C657.708 142.797 657.81 142.619 657.945 142.458C658.089 142.297 658.267 142.166 658.479 142.064C658.699 141.963 658.957 141.912 659.253 141.912C659.549 141.912 659.833 141.976 660.104 142.103C660.383 142.221 660.624 142.407 660.827 142.661C661.039 142.915 661.204 143.232 661.322 143.613C661.449 143.994 661.513 144.443 661.513 144.959C661.513 145.661 661.382 146.334 661.119 146.978C660.865 147.629 660.48 148.205 659.964 148.704C659.456 149.203 658.817 149.601 658.047 149.897C657.285 150.194 656.396 150.342 655.381 150.342V148.603ZM692.883 145.53C692.307 145.75 691.715 145.911 691.105 146.013C690.505 146.123 689.882 146.178 689.239 146.178C687.225 146.178 685.672 145.632 684.58 144.54C683.497 143.448 682.955 141.853 682.955 139.754C682.955 138.747 683.112 137.833 683.425 137.012C683.738 136.191 684.178 135.488 684.745 134.904C685.312 134.32 685.989 133.872 686.776 133.559C687.563 133.237 688.431 133.076 689.379 133.076C690.039 133.076 690.657 133.123 691.232 133.216C691.808 133.309 692.358 133.461 692.883 133.673V135.78C692.333 135.493 691.77 135.285 691.194 135.158C690.627 135.023 690.039 134.955 689.43 134.955C688.863 134.955 688.325 135.065 687.817 135.285C687.318 135.497 686.878 135.806 686.497 136.212C686.116 136.618 685.816 137.113 685.596 137.697C685.376 138.281 685.266 138.941 685.266 139.678C685.266 141.218 685.638 142.373 686.383 143.144C687.136 143.905 688.177 144.286 689.506 144.286C690.107 144.286 690.687 144.218 691.245 144.083C691.812 143.948 692.358 143.744 692.883 143.474V145.53ZM707.521 146H705.54L705.464 143.943C705.083 144.383 704.719 144.752 704.372 145.048C704.034 145.336 703.695 145.568 703.356 145.746C703.018 145.924 702.675 146.047 702.328 146.114C701.99 146.19 701.63 146.229 701.249 146.229C699.937 146.229 698.947 145.843 698.278 145.073C697.61 144.303 697.275 143.139 697.275 141.582V133.254H699.484V141.404C699.484 143.359 700.221 144.337 701.693 144.337C701.964 144.337 702.227 144.299 702.48 144.223C702.743 144.138 703.014 143.998 703.293 143.804C703.581 143.601 703.885 143.33 704.207 142.991C704.537 142.653 704.905 142.225 705.312 141.709V133.254H707.521V146ZM712.091 133.254H714.109L714.173 135.603C714.926 134.697 715.667 134.041 716.395 133.635C717.131 133.229 717.871 133.025 718.616 133.025C719.937 133.025 720.935 133.453 721.612 134.308C722.298 135.162 722.615 136.432 722.564 138.116H720.33C720.355 136.999 720.19 136.191 719.835 135.691C719.488 135.184 718.976 134.93 718.299 134.93C718.003 134.93 717.702 134.985 717.397 135.095C717.101 135.196 716.792 135.366 716.471 135.603C716.158 135.831 715.823 136.127 715.468 136.491C715.112 136.855 714.731 137.295 714.325 137.812V146H712.091V133.254ZM726.386 133.254H728.404L728.468 135.603C729.221 134.697 729.962 134.041 730.689 133.635C731.426 133.229 732.166 133.025 732.911 133.025C734.231 133.025 735.23 133.453 735.907 134.308C736.593 135.162 736.91 136.432 736.859 138.116H734.625C734.65 136.999 734.485 136.191 734.13 135.691C733.783 135.184 733.271 134.93 732.594 134.93C732.298 134.93 731.997 134.985 731.692 135.095C731.396 135.196 731.087 135.366 730.766 135.603C730.452 135.831 730.118 136.127 729.763 136.491C729.407 136.855 729.026 137.295 728.62 137.812V146H726.386V133.254ZM752.424 151.205H738.129V149.377H752.424V151.205ZM754.455 133.254H756.423L756.512 135.311C756.884 134.87 757.244 134.507 757.591 134.219C757.938 133.923 758.276 133.686 758.606 133.508C758.945 133.33 759.288 133.207 759.635 133.14C759.982 133.063 760.341 133.025 760.714 133.025C762.026 133.025 763.016 133.415 763.685 134.193C764.362 134.964 764.7 136.127 764.7 137.685V146H762.491V137.862C762.491 136.864 762.305 136.127 761.933 135.653C761.56 135.171 761.006 134.93 760.27 134.93C759.999 134.93 759.732 134.972 759.47 135.057C759.216 135.133 758.949 135.272 758.67 135.476C758.391 135.67 758.086 135.937 757.756 136.275C757.434 136.614 757.07 137.037 756.664 137.545V146H754.455V133.254ZM778.995 146H777.015L776.938 143.943C776.558 144.383 776.194 144.752 775.847 145.048C775.508 145.336 775.17 145.568 774.831 145.746C774.493 145.924 774.15 146.047 773.803 146.114C773.464 146.19 773.104 146.229 772.724 146.229C771.412 146.229 770.422 145.843 769.753 145.073C769.084 144.303 768.75 143.139 768.75 141.582V133.254H770.959V141.404C770.959 143.359 771.695 144.337 773.168 144.337C773.439 144.337 773.701 144.299 773.955 144.223C774.217 144.138 774.488 143.998 774.768 143.804C775.055 143.601 775.36 143.33 775.682 142.991C776.012 142.653 776.38 142.225 776.786 141.709V133.254H778.995V146ZM792.135 146V136.847C792.135 136.449 792.118 136.123 792.084 135.869C792.059 135.615 792.012 135.416 791.944 135.272C791.885 135.12 791.805 135.014 791.703 134.955C791.61 134.896 791.492 134.866 791.348 134.866C791.178 134.866 791.022 134.917 790.878 135.019C790.734 135.12 790.577 135.285 790.408 135.514C790.247 135.742 790.065 136.047 789.862 136.428C789.668 136.8 789.435 137.261 789.164 137.812V146H787.146V137.088C787.146 136.622 787.129 136.246 787.095 135.958C787.069 135.67 787.023 135.446 786.955 135.285C786.896 135.124 786.815 135.014 786.714 134.955C786.612 134.896 786.49 134.866 786.346 134.866C786.193 134.866 786.049 134.909 785.914 134.993C785.779 135.078 785.626 135.23 785.457 135.45C785.296 135.67 785.114 135.971 784.911 136.352C784.708 136.732 784.467 137.219 784.188 137.812V146H782.156V133.254H783.845L783.946 135.679C784.166 135.196 784.378 134.786 784.581 134.447C784.793 134.109 785.008 133.838 785.229 133.635C785.449 133.423 785.681 133.271 785.927 133.178C786.181 133.076 786.46 133.025 786.765 133.025C787.45 133.025 787.971 133.25 788.326 133.698C788.682 134.147 788.859 134.841 788.859 135.78C789.062 135.34 789.261 134.951 789.456 134.612C789.651 134.265 789.858 133.978 790.078 133.749C790.307 133.512 790.556 133.334 790.827 133.216C791.098 133.089 791.411 133.025 791.767 133.025C793.366 133.025 794.166 134.257 794.166 136.72V146H792.135ZM822.21 137.799H811.292V135.933H822.21V137.799ZM822.21 142.217H811.292V140.351H822.21V142.217ZM851.371 137.71C851.371 138.979 851.244 140.139 850.99 141.188C850.736 142.229 850.351 143.127 849.835 143.88C849.319 144.625 848.675 145.204 847.905 145.619C847.144 146.025 846.246 146.229 845.214 146.229C844.325 146.229 843.517 146.063 842.789 145.733C842.061 145.395 841.439 144.879 840.923 144.185C840.407 143.491 840.009 142.606 839.729 141.531C839.45 140.456 839.311 139.183 839.311 137.71C839.311 136.44 839.438 135.281 839.691 134.231C839.954 133.182 840.339 132.285 840.847 131.54C841.363 130.787 842.006 130.207 842.776 129.801C843.547 129.386 844.444 129.179 845.468 129.179C846.356 129.179 847.165 129.348 847.893 129.687C848.62 130.017 849.243 130.533 849.759 131.235C850.275 131.929 850.673 132.814 850.952 133.889C851.231 134.964 851.371 136.237 851.371 137.71ZM849.137 137.786C849.137 137.498 849.124 137.215 849.099 136.936C849.082 136.648 849.061 136.368 849.035 136.098L842.015 141.315C842.142 141.756 842.302 142.162 842.497 142.534C842.692 142.907 842.924 143.228 843.195 143.499C843.475 143.761 843.788 143.969 844.135 144.121C844.49 144.265 844.892 144.337 845.341 144.337C845.916 144.337 846.437 144.197 846.902 143.918C847.376 143.639 847.778 143.224 848.108 142.674C848.438 142.124 848.692 141.442 848.87 140.63C849.048 139.809 849.137 138.861 849.137 137.786ZM841.545 137.634C841.545 137.896 841.545 138.159 841.545 138.421C841.553 138.683 841.57 138.937 841.596 139.183L848.616 133.99C848.489 133.559 848.328 133.165 848.134 132.81C847.939 132.454 847.706 132.149 847.436 131.896C847.165 131.633 846.856 131.43 846.509 131.286C846.162 131.142 845.772 131.07 845.341 131.07C844.765 131.07 844.241 131.21 843.767 131.489C843.301 131.769 842.903 132.188 842.573 132.746C842.243 133.296 841.989 133.982 841.812 134.803C841.634 135.615 841.545 136.559 841.545 137.634Z" fill="black"/>
<path d="M710.13 35.3857C710.462 35.3857 710.774 35.4492 711.067 35.5762C711.37 35.7031 711.629 35.8789 711.844 36.1035C712.068 36.3281 712.244 36.5918 712.371 36.8945C712.498 37.1875 712.562 37.5049 712.562 37.8467C712.562 38.1787 712.498 38.4912 712.371 38.7842C712.244 39.0771 712.068 39.3359 711.844 39.5605C711.629 39.7754 711.37 39.9463 711.067 40.0732C710.774 40.2002 710.462 40.2637 710.13 40.2637C709.788 40.2637 709.471 40.2002 709.178 40.0732C708.885 39.9463 708.626 39.7754 708.401 39.5605C708.187 39.3359 708.016 39.0771 707.889 38.7842C707.762 38.4912 707.698 38.1787 707.698 37.8467C707.698 37.5049 707.762 37.1875 707.889 36.8945C708.016 36.5918 708.187 36.3281 708.401 36.1035C708.626 35.8789 708.885 35.7031 709.178 35.5762C709.471 35.4492 709.788 35.3857 710.13 35.3857Z" fill="black"/>
</svg>
