<svg width="809" height="101" viewBox="0 0 809 101" fill="none" xmlns="http://www.w3.org/2000/svg">
<g clip-path="url(#clip0_1135_1533)">
<rect width="809" height="101" fill="white"/>
<rect x="534" y="32" width="28" height="28" rx="9" fill="#FFF2F2" stroke="#FF0000" stroke-width="2"/>
<path d="M10.2197 55L10.1689 53.2861C9.47493 53.9717 8.76823 54.4668 8.04883 54.7715C7.33789 55.0762 6.58887 55.2285 5.80176 55.2285C5.07389 55.2285 4.45182 55.1354 3.93555 54.9492C3.41927 54.763 2.99186 54.5091 2.65332 54.1875C2.32324 53.8574 2.0778 53.4723 1.91699 53.0322C1.76465 52.5921 1.68848 52.1139 1.68848 51.5977C1.68848 50.3197 2.16243 49.321 3.11035 48.6016C4.06673 47.8737 5.47591 47.5098 7.33789 47.5098H9.97852V46.3926C9.97852 45.6393 9.7373 45.0384 9.25488 44.5898C8.77246 44.1328 8.03613 43.9043 7.0459 43.9043C6.3265 43.9043 5.61556 43.9847 4.91309 44.1455C4.21908 44.3063 3.49967 44.5348 2.75488 44.8311V42.8379C3.03418 42.7363 3.3431 42.639 3.68164 42.5459C4.02865 42.4443 4.39258 42.3555 4.77344 42.2793C5.1543 42.2031 5.55208 42.1439 5.9668 42.1016C6.38151 42.0508 6.80046 42.0254 7.22363 42.0254C7.99382 42.0254 8.68783 42.11 9.30566 42.2793C9.9235 42.4486 10.444 42.7067 10.8672 43.0537C11.2988 43.4007 11.6289 43.8366 11.8574 44.3613C12.0859 44.8861 12.2002 45.5039 12.2002 46.2148V55H10.2197ZM9.97852 49.1982H7.17285C6.62272 49.1982 6.14876 49.2533 5.75098 49.3633C5.35319 49.4733 5.02734 49.6299 4.77344 49.833C4.51953 50.0361 4.3291 50.2816 4.20215 50.5693C4.08366 50.8486 4.02441 51.166 4.02441 51.5215C4.02441 51.7669 4.0625 52.0039 4.13867 52.2324C4.21484 52.4525 4.33757 52.6514 4.50684 52.8291C4.67611 52.9984 4.89616 53.1338 5.16699 53.2354C5.43783 53.3369 5.7679 53.3877 6.15723 53.3877C6.66504 53.3877 7.24479 53.2354 7.89648 52.9307C8.55664 52.6175 9.25065 52.1266 9.97852 51.458V49.1982ZM26.2285 54.5303C25.653 54.7503 25.0605 54.9111 24.4512 55.0127C23.8503 55.1227 23.2282 55.1777 22.585 55.1777C20.5706 55.1777 19.0176 54.6318 17.9258 53.54C16.8424 52.4482 16.3008 50.8529 16.3008 48.7539C16.3008 47.7467 16.4574 46.8327 16.7705 46.0117C17.0837 45.1908 17.5238 44.4883 18.0908 43.9043C18.6579 43.3203 19.335 42.8717 20.1221 42.5586C20.9092 42.237 21.7767 42.0762 22.7246 42.0762C23.3848 42.0762 24.0026 42.1227 24.5781 42.2158C25.1536 42.3089 25.7038 42.4613 26.2285 42.6729V44.7803C25.6784 44.4925 25.1156 44.2852 24.54 44.1582C23.973 44.0228 23.3848 43.9551 22.7754 43.9551C22.2083 43.9551 21.6709 44.0651 21.1631 44.2852C20.6637 44.4967 20.2236 44.8057 19.8428 45.2119C19.4619 45.6182 19.1615 46.1133 18.9414 46.6973C18.7214 47.2812 18.6113 47.9414 18.6113 48.6777C18.6113 50.2181 18.9837 51.3734 19.7285 52.1436C20.4818 52.9053 21.5228 53.2861 22.8516 53.2861C23.4525 53.2861 24.0322 53.2184 24.5908 53.083C25.1579 52.9476 25.7038 52.7445 26.2285 52.4736V54.5303ZM40.8916 54.8223C40.3923 54.9492 39.876 55.0381 39.3428 55.0889C38.8096 55.1481 38.2679 55.1777 37.7178 55.1777C36.1182 55.1777 34.9248 54.818 34.1377 54.0986C33.3506 53.3708 32.957 52.2578 32.957 50.7598V44.1074H29.3896V42.2539H32.957V38.75L35.166 38.1787V42.2539H40.8916V44.1074H35.166V50.582C35.166 51.4961 35.4072 52.1816 35.8896 52.6387C36.3805 53.0872 37.0999 53.3115 38.0479 53.3115C38.4541 53.3115 38.8984 53.2819 39.3809 53.2227C39.8633 53.1549 40.3669 53.0534 40.8916 52.918V54.8223ZM49.2578 44.082H45.4873V42.2539H51.4922V53.1592H55.2881V55H45.0684V53.1592H49.2578V44.082ZM50.0322 36.9092C50.2777 36.9092 50.5062 36.9557 50.7178 37.0488C50.9294 37.1335 51.1113 37.2562 51.2637 37.417C51.4245 37.5778 51.5472 37.764 51.6318 37.9756C51.7249 38.1787 51.7715 38.403 51.7715 38.6484C51.7715 38.8854 51.7249 39.1097 51.6318 39.3213C51.5472 39.5329 51.4245 39.7191 51.2637 39.8799C51.1113 40.0407 50.9294 40.1676 50.7178 40.2607C50.5062 40.3454 50.2777 40.3877 50.0322 40.3877C49.7868 40.3877 49.5583 40.3454 49.3467 40.2607C49.1351 40.1676 48.9489 40.0407 48.7881 39.8799C48.6357 39.7191 48.513 39.5329 48.4199 39.3213C48.3353 39.1097 48.293 38.8854 48.293 38.6484C48.293 38.403 48.3353 38.1787 48.4199 37.9756C48.513 37.764 48.6357 37.5778 48.7881 37.417C48.9489 37.2562 49.1351 37.1335 49.3467 37.0488C49.5583 36.9557 49.7868 36.9092 50.0322 36.9092ZM58.0176 42.2539H60.5312L63.6543 50.6836L64.3271 52.7402L65.0254 50.6328L68.123 42.2539H70.5479L65.5459 55H63.0068L58.0176 42.2539ZM84.2715 47.9541C84.2715 48.2673 84.2673 48.5296 84.2588 48.7412C84.2503 48.9528 84.2376 49.1517 84.2207 49.3379H75.2705C75.2705 50.6413 75.6344 51.6442 76.3623 52.3467C77.0902 53.0407 78.1396 53.3877 79.5107 53.3877C79.8831 53.3877 80.2555 53.375 80.6279 53.3496C81.0003 53.3158 81.36 53.2734 81.707 53.2227C82.054 53.1719 82.3841 53.1169 82.6973 53.0576C83.0189 52.9899 83.3151 52.918 83.5859 52.8418V54.6572C82.985 54.8265 82.3037 54.9619 81.542 55.0635C80.7887 55.1735 80.0059 55.2285 79.1934 55.2285C78.1016 55.2285 77.1621 55.0804 76.375 54.7842C75.5879 54.488 74.9404 54.0605 74.4326 53.502C73.9333 52.9349 73.5609 52.2451 73.3154 51.4326C73.0785 50.6117 72.96 49.6849 72.96 48.6523C72.96 47.7552 73.0869 46.9089 73.3408 46.1133C73.6032 45.3092 73.9798 44.6068 74.4707 44.0059C74.9701 43.3965 75.5794 42.9141 76.2988 42.5586C77.0182 42.2031 77.835 42.0254 78.749 42.0254C79.6377 42.0254 80.4248 42.165 81.1104 42.4443C81.7959 42.7236 82.3714 43.1214 82.8369 43.6377C83.3109 44.1455 83.6663 44.7676 83.9033 45.5039C84.1488 46.2318 84.2715 47.0485 84.2715 47.9541ZM81.9736 47.6367C81.999 47.0697 81.944 46.5534 81.8086 46.0879C81.6732 45.6139 81.4616 45.2077 81.1738 44.8691C80.8945 44.5306 80.5433 44.2682 80.1201 44.082C79.6969 43.8874 79.2061 43.79 78.6475 43.79C78.165 43.79 77.7249 43.8831 77.3271 44.0693C76.9294 44.2555 76.5866 44.5179 76.2988 44.8564C76.0111 45.195 75.7783 45.6012 75.6006 46.0752C75.4229 46.5492 75.3128 47.0697 75.2705 47.6367H81.9736ZM100.064 60.2051H85.7695V58.377H100.064V60.2051ZM106.438 44.082H102.667V42.2539H108.672V53.1592H112.468V55H102.248V53.1592H106.438V44.082ZM107.212 36.9092C107.457 36.9092 107.686 36.9557 107.897 37.0488C108.109 37.1335 108.291 37.2562 108.443 37.417C108.604 37.5778 108.727 37.764 108.812 37.9756C108.905 38.1787 108.951 38.403 108.951 38.6484C108.951 38.8854 108.905 39.1097 108.812 39.3213C108.727 39.5329 108.604 39.7191 108.443 39.8799C108.291 40.0407 108.109 40.1676 107.897 40.2607C107.686 40.3454 107.457 40.3877 107.212 40.3877C106.966 40.3877 106.738 40.3454 106.526 40.2607C106.315 40.1676 106.129 40.0407 105.968 39.8799C105.815 39.7191 105.693 39.5329 105.6 39.3213C105.515 39.1097 105.473 38.8854 105.473 38.6484C105.473 38.403 105.515 38.1787 105.6 37.9756C105.693 37.764 105.815 37.5778 105.968 37.417C106.129 37.2562 106.315 37.1335 106.526 37.0488C106.738 36.9557 106.966 36.9092 107.212 36.9092ZM116.391 42.2539H118.358L118.447 44.3105C118.82 43.8704 119.179 43.5065 119.526 43.2188C119.873 42.9225 120.212 42.6855 120.542 42.5078C120.881 42.3301 121.223 42.2074 121.57 42.1396C121.917 42.0635 122.277 42.0254 122.649 42.0254C123.961 42.0254 124.951 42.4147 125.62 43.1934C126.297 43.9635 126.636 45.1273 126.636 46.6846V55H124.427V46.8623C124.427 45.8636 124.241 45.1273 123.868 44.6533C123.496 44.1709 122.941 43.9297 122.205 43.9297C121.934 43.9297 121.668 43.972 121.405 44.0566C121.151 44.1328 120.885 44.2725 120.605 44.4756C120.326 44.6702 120.021 44.9368 119.691 45.2754C119.37 45.6139 119.006 46.0371 118.6 46.5449V55H116.391V42.2539ZM140.956 54.8223C140.457 54.9492 139.94 55.0381 139.407 55.0889C138.874 55.1481 138.332 55.1777 137.782 55.1777C136.183 55.1777 134.989 54.818 134.202 54.0986C133.415 53.3708 133.021 52.2578 133.021 50.7598V44.1074H129.454V42.2539H133.021V38.75L135.23 38.1787V42.2539H140.956V44.1074H135.23V50.582C135.23 51.4961 135.472 52.1816 135.954 52.6387C136.445 53.0872 137.164 53.3115 138.112 53.3115C138.519 53.3115 138.963 53.2819 139.445 53.2227C139.928 53.1549 140.431 53.0534 140.956 52.918V54.8223ZM155.746 47.9541C155.746 48.2673 155.742 48.5296 155.733 48.7412C155.725 48.9528 155.712 49.1517 155.695 49.3379H146.745C146.745 50.6413 147.109 51.6442 147.837 52.3467C148.565 53.0407 149.614 53.3877 150.985 53.3877C151.358 53.3877 151.73 53.375 152.103 53.3496C152.475 53.3158 152.835 53.2734 153.182 53.2227C153.529 53.1719 153.859 53.1169 154.172 53.0576C154.493 52.9899 154.79 52.918 155.061 52.8418V54.6572C154.46 54.8265 153.778 54.9619 153.017 55.0635C152.263 55.1735 151.48 55.2285 150.668 55.2285C149.576 55.2285 148.637 55.0804 147.85 54.7842C147.062 54.488 146.415 54.0605 145.907 53.502C145.408 52.9349 145.035 52.2451 144.79 51.4326C144.553 50.6117 144.435 49.6849 144.435 48.6523C144.435 47.7552 144.562 46.9089 144.815 46.1133C145.078 45.3092 145.454 44.6068 145.945 44.0059C146.445 43.3965 147.054 42.9141 147.773 42.5586C148.493 42.2031 149.31 42.0254 150.224 42.0254C151.112 42.0254 151.899 42.165 152.585 42.4443C153.271 42.7236 153.846 43.1214 154.312 43.6377C154.785 44.1455 155.141 44.7676 155.378 45.5039C155.623 46.2318 155.746 47.0485 155.746 47.9541ZM153.448 47.6367C153.474 47.0697 153.419 46.5534 153.283 46.0879C153.148 45.6139 152.936 45.2077 152.648 44.8691C152.369 44.5306 152.018 44.2682 151.595 44.082C151.172 43.8874 150.681 43.79 150.122 43.79C149.64 43.79 149.2 43.8831 148.802 44.0693C148.404 44.2555 148.061 44.5179 147.773 44.8564C147.486 45.195 147.253 45.6012 147.075 46.0752C146.897 46.5492 146.787 47.0697 146.745 47.6367H153.448ZM159.796 42.2539H161.814L161.878 44.6025C162.631 43.6969 163.372 43.041 164.1 42.6348C164.836 42.2285 165.576 42.0254 166.321 42.0254C167.642 42.0254 168.64 42.4528 169.317 43.3076C170.003 44.1624 170.32 45.432 170.27 47.1162H168.035C168.061 45.999 167.896 45.1908 167.54 44.6914C167.193 44.1836 166.681 43.9297 166.004 43.9297C165.708 43.9297 165.407 43.9847 165.103 44.0947C164.806 44.1963 164.497 44.3656 164.176 44.6025C163.863 44.8311 163.528 45.1273 163.173 45.4912C162.817 45.8551 162.437 46.2952 162.03 46.8115V55H159.796V42.2539ZM172.377 42.2539H174.891L178.014 50.6836L178.687 52.7402L179.385 50.6328L182.482 42.2539H184.907L179.905 55H177.366L172.377 42.2539ZM196.054 55L196.003 53.2861C195.309 53.9717 194.602 54.4668 193.883 54.7715C193.172 55.0762 192.423 55.2285 191.636 55.2285C190.908 55.2285 190.286 55.1354 189.77 54.9492C189.253 54.763 188.826 54.5091 188.487 54.1875C188.157 53.8574 187.912 53.4723 187.751 53.0322C187.599 52.5921 187.522 52.1139 187.522 51.5977C187.522 50.3197 187.996 49.321 188.944 48.6016C189.901 47.8737 191.31 47.5098 193.172 47.5098H195.812V46.3926C195.812 45.6393 195.571 45.0384 195.089 44.5898C194.606 44.1328 193.87 43.9043 192.88 43.9043C192.16 43.9043 191.45 43.9847 190.747 44.1455C190.053 44.3063 189.334 44.5348 188.589 44.8311V42.8379C188.868 42.7363 189.177 42.639 189.516 42.5459C189.863 42.4443 190.227 42.3555 190.607 42.2793C190.988 42.2031 191.386 42.1439 191.801 42.1016C192.215 42.0508 192.634 42.0254 193.058 42.0254C193.828 42.0254 194.522 42.11 195.14 42.2793C195.757 42.4486 196.278 42.7067 196.701 43.0537C197.133 43.4007 197.463 43.8366 197.691 44.3613C197.92 44.8861 198.034 45.5039 198.034 46.2148V55H196.054ZM195.812 49.1982H193.007C192.457 49.1982 191.983 49.2533 191.585 49.3633C191.187 49.4733 190.861 49.6299 190.607 49.833C190.354 50.0361 190.163 50.2816 190.036 50.5693C189.918 50.8486 189.858 51.166 189.858 51.5215C189.858 51.7669 189.896 52.0039 189.973 52.2324C190.049 52.4525 190.172 52.6514 190.341 52.8291C190.51 52.9984 190.73 53.1338 191.001 53.2354C191.272 53.3369 191.602 53.3877 191.991 53.3877C192.499 53.3877 193.079 53.2354 193.73 52.9307C194.391 52.6175 195.085 52.1266 195.812 51.458V49.1982ZM206.502 38.877H202.731V37.0615H208.736V53.1592H212.532V55H202.312V53.1592H206.502V38.877ZM226.548 51.5215C226.548 51.9701 226.472 52.3721 226.319 52.7275C226.167 53.083 225.96 53.4004 225.697 53.6797C225.435 53.9505 225.13 54.1833 224.783 54.3779C224.436 54.5726 224.064 54.7334 223.666 54.8604C223.277 54.9873 222.875 55.0804 222.46 55.1396C222.045 55.1989 221.639 55.2285 221.241 55.2285C220.378 55.2285 219.582 55.1904 218.854 55.1143C218.135 55.0381 217.428 54.9154 216.734 54.7461V52.7148C217.479 52.9264 218.22 53.0872 218.956 53.1973C219.692 53.3073 220.424 53.3623 221.152 53.3623C222.21 53.3623 222.993 53.2184 223.501 52.9307C224.009 52.6429 224.263 52.2324 224.263 51.6992C224.263 51.4707 224.22 51.2676 224.136 51.0898C224.06 50.9036 223.916 50.7301 223.704 50.5693C223.493 50.4001 223.162 50.2266 222.714 50.0488C222.274 49.8711 221.669 49.668 220.898 49.4395C220.323 49.2702 219.79 49.0798 219.299 48.8682C218.816 48.6481 218.397 48.39 218.042 48.0938C217.687 47.7975 217.407 47.4505 217.204 47.0527C217.001 46.6549 216.899 46.1852 216.899 45.6436C216.899 45.2881 216.98 44.8988 217.141 44.4756C217.31 44.0524 217.593 43.6589 217.991 43.2949C218.389 42.931 218.926 42.6305 219.604 42.3936C220.281 42.1481 221.127 42.0254 222.143 42.0254C222.642 42.0254 223.196 42.055 223.806 42.1143C224.415 42.165 225.05 42.2581 225.71 42.3936V44.3613C225.016 44.1921 224.356 44.0693 223.729 43.9932C223.112 43.9085 222.574 43.8662 222.117 43.8662C221.567 43.8662 221.102 43.9085 220.721 43.9932C220.348 44.0778 220.044 44.1963 219.807 44.3486C219.578 44.4925 219.413 44.666 219.312 44.8691C219.21 45.0638 219.159 45.2754 219.159 45.5039C219.159 45.7324 219.201 45.9398 219.286 46.126C219.379 46.3122 219.544 46.4941 219.781 46.6719C220.027 46.8411 220.365 47.0146 220.797 47.1924C221.229 47.3617 221.791 47.5479 222.485 47.751C223.239 47.971 223.873 48.2038 224.39 48.4492C224.906 48.6862 225.325 48.9528 225.646 49.249C225.968 49.5452 226.197 49.8796 226.332 50.252C226.476 50.6243 226.548 51.0475 226.548 51.5215ZM255.62 46.7988H244.702V44.9326H255.62V46.7988ZM255.62 51.2168H244.702V49.3506H255.62V51.2168ZM284.083 49.96C284.083 50.6878 283.935 51.3734 283.639 52.0166C283.342 52.6514 282.898 53.21 282.306 53.6924C281.713 54.1663 280.968 54.543 280.071 54.8223C279.174 55.0931 278.129 55.2285 276.936 55.2285C276.275 55.2285 275.683 55.2074 275.158 55.165C274.633 55.1227 274.143 55.0677 273.686 55V53.0195C274.21 53.1126 274.765 53.1846 275.349 53.2354C275.933 53.2861 276.529 53.3115 277.139 53.3115C277.968 53.3115 278.675 53.2396 279.259 53.0957C279.851 52.9434 280.334 52.7275 280.706 52.4482C281.078 52.1689 281.349 51.8304 281.519 51.4326C281.688 51.0348 281.772 50.5863 281.772 50.0869C281.772 49.6299 281.671 49.2321 281.468 48.8936C281.265 48.555 280.977 48.2715 280.604 48.043C280.241 47.8145 279.8 47.6452 279.284 47.5352C278.776 47.4167 278.218 47.3574 277.608 47.3574H275.717V45.542H277.634C278.133 45.542 278.586 45.4785 278.992 45.3516C279.407 45.2161 279.758 45.0257 280.046 44.7803C280.342 44.5348 280.566 44.2344 280.719 43.8789C280.88 43.515 280.96 43.1045 280.96 42.6475C280.96 41.7588 280.689 41.1113 280.147 40.7051C279.606 40.2988 278.81 40.0957 277.761 40.0957C277.202 40.0957 276.627 40.1507 276.034 40.2607C275.442 40.3708 274.807 40.5358 274.13 40.7559V38.8262C274.418 38.7246 274.722 38.6357 275.044 38.5596C275.374 38.4749 275.7 38.4072 276.021 38.3564C276.352 38.2972 276.677 38.2549 276.999 38.2295C277.321 38.1956 277.63 38.1787 277.926 38.1787C278.806 38.1787 279.58 38.276 280.249 38.4707C280.918 38.6569 281.476 38.9277 281.925 39.2832C282.373 39.6387 282.712 40.0703 282.94 40.5781C283.169 41.0859 283.283 41.6572 283.283 42.292C283.283 43.2399 283.038 44.0355 282.547 44.6787C282.064 45.3219 281.4 45.834 280.554 46.2148C280.985 46.2826 281.409 46.418 281.823 46.6211C282.246 46.8242 282.623 47.0866 282.953 47.4082C283.292 47.7214 283.562 48.0938 283.766 48.5254C283.977 48.957 284.083 49.4352 284.083 49.96Z" fill="black"/>
<path d="M524.606 46.7988H513.688V44.9326H524.606V46.7988ZM524.606 51.2168H513.688V49.3506H524.606V51.2168ZM554.212 51.3311H551.381V55H549.121V51.3311H541.136V49.3887L548.207 38.4072H551.381V49.3887H554.212V51.3311ZM549.121 40.54L543.345 49.3887H549.121V40.54Z" fill="black"/>
<path d="M359.892 7.39844C359.892 8.53255 359.731 9.52279 359.409 10.3691C359.096 11.2155 358.66 11.918 358.102 12.4766C357.543 13.0352 356.883 13.4541 356.121 13.7334C355.359 14.0127 354.534 14.1523 353.646 14.1523C353.239 14.1523 352.833 14.1312 352.427 14.0889C352.029 14.0465 351.623 13.9746 351.208 13.873V19.2051H348.999V1.25391H350.967L351.106 3.38672C351.741 2.51497 352.418 1.9056 353.138 1.55859C353.857 1.20312 354.636 1.02539 355.474 1.02539C356.201 1.02539 356.84 1.17773 357.391 1.48242C357.941 1.78711 358.402 2.21875 358.774 2.77734C359.147 3.32747 359.426 3.99609 359.612 4.7832C359.799 5.56185 359.892 6.43359 359.892 7.39844ZM357.632 7.5C357.632 6.83138 357.581 6.21777 357.479 5.65918C357.386 5.10059 357.234 4.6224 357.022 4.22461C356.811 3.82682 356.54 3.5179 356.21 3.29785C355.88 3.06934 355.486 2.95508 355.029 2.95508C354.75 2.95508 354.466 3.00163 354.179 3.09473C353.891 3.17936 353.59 3.32747 353.277 3.53906C352.973 3.74219 352.647 4.01725 352.3 4.36426C351.961 4.7028 351.597 5.12598 351.208 5.63379V11.8164C351.614 11.9857 352.042 12.1211 352.49 12.2227C352.939 12.3158 353.379 12.3623 353.811 12.3623C355.004 12.3623 355.939 11.9603 356.616 11.1562C357.293 10.3438 357.632 9.125 357.632 7.5ZM363.814 1.25391H365.833L365.896 3.60254C366.65 2.69694 367.39 2.04102 368.118 1.63477C368.854 1.22852 369.595 1.02539 370.34 1.02539C371.66 1.02539 372.659 1.4528 373.336 2.30762C374.021 3.16243 374.339 4.43197 374.288 6.11621H372.054C372.079 4.99902 371.914 4.19076 371.559 3.69141C371.212 3.18359 370.7 2.92969 370.022 2.92969C369.726 2.92969 369.426 2.9847 369.121 3.09473C368.825 3.19629 368.516 3.36556 368.194 3.60254C367.881 3.83105 367.547 4.12728 367.191 4.49121C366.836 4.85514 366.455 5.29525 366.049 5.81152V14H363.814V1.25391ZM388.685 7.52539C388.685 8.51562 388.545 9.42546 388.266 10.2549C387.986 11.0758 387.584 11.7826 387.06 12.375C386.535 12.959 385.896 13.416 385.143 13.7461C384.389 14.0677 383.535 14.2285 382.578 14.2285C381.664 14.2285 380.843 14.0889 380.115 13.8096C379.396 13.5218 378.782 13.1029 378.274 12.5527C377.775 12.0026 377.39 11.3213 377.119 10.5088C376.857 9.69629 376.726 8.76107 376.726 7.70312C376.726 6.71289 376.865 5.81152 377.145 4.99902C377.424 4.17806 377.826 3.47559 378.351 2.8916C378.875 2.29915 379.514 1.84212 380.268 1.52051C381.021 1.19043 381.876 1.02539 382.832 1.02539C383.746 1.02539 384.563 1.16927 385.282 1.45703C386.01 1.73633 386.624 2.15104 387.123 2.70117C387.631 3.24284 388.016 3.91992 388.278 4.73242C388.549 5.54492 388.685 6.47591 388.685 7.52539ZM386.425 7.62695C386.425 6.83984 386.336 6.1543 386.158 5.57031C385.989 4.97786 385.743 4.48698 385.422 4.09766C385.1 3.69987 384.707 3.40365 384.241 3.20898C383.784 3.00586 383.272 2.9043 382.705 2.9043C382.045 2.9043 381.478 3.03548 381.004 3.29785C380.538 3.55176 380.153 3.89453 379.849 4.32617C379.552 4.75781 379.332 5.26139 379.188 5.83691C379.053 6.40397 378.985 7.00065 378.985 7.62695C378.985 8.41406 379.07 9.10384 379.239 9.69629C379.417 10.2887 379.667 10.7839 379.988 11.1816C380.31 11.571 380.699 11.8672 381.156 12.0703C381.613 12.265 382.13 12.3623 382.705 12.3623C383.365 12.3623 383.928 12.2354 384.394 11.9814C384.868 11.7191 385.253 11.3721 385.549 10.9404C385.854 10.5088 386.074 10.0094 386.209 9.44238C386.353 8.86686 386.425 8.26172 386.425 7.62695ZM401.786 13.5303C401.211 13.7503 400.618 13.9111 400.009 14.0127C399.408 14.1227 398.786 14.1777 398.143 14.1777C396.128 14.1777 394.575 13.6318 393.483 12.54C392.4 11.4482 391.858 9.85286 391.858 7.75391C391.858 6.74674 392.015 5.83268 392.328 5.01172C392.641 4.19076 393.081 3.48828 393.648 2.9043C394.215 2.32031 394.893 1.87174 395.68 1.55859C396.467 1.23698 397.334 1.07617 398.282 1.07617C398.942 1.07617 399.56 1.12272 400.136 1.21582C400.711 1.30892 401.261 1.46126 401.786 1.67285V3.78027C401.236 3.49251 400.673 3.28516 400.098 3.1582C399.531 3.02279 398.942 2.95508 398.333 2.95508C397.766 2.95508 397.229 3.0651 396.721 3.28516C396.221 3.49674 395.781 3.80566 395.4 4.21191C395.02 4.61816 394.719 5.11328 394.499 5.69727C394.279 6.28125 394.169 6.94141 394.169 7.67773C394.169 9.2181 394.541 10.3734 395.286 11.1436C396.039 11.9053 397.08 12.2861 398.409 12.2861C399.01 12.2861 399.59 12.2184 400.148 12.083C400.715 11.9476 401.261 11.7445 401.786 11.4736V13.5303ZM416.944 6.9541C416.944 7.26725 416.94 7.52962 416.932 7.74121C416.923 7.9528 416.91 8.15169 416.894 8.33789H407.943C407.943 9.64128 408.307 10.6442 409.035 11.3467C409.763 12.0407 410.812 12.3877 412.184 12.3877C412.556 12.3877 412.928 12.375 413.301 12.3496C413.673 12.3158 414.033 12.2734 414.38 12.2227C414.727 12.1719 415.057 12.1169 415.37 12.0576C415.692 11.9899 415.988 11.918 416.259 11.8418V13.6572C415.658 13.8265 414.977 13.9619 414.215 14.0635C413.462 14.1735 412.679 14.2285 411.866 14.2285C410.774 14.2285 409.835 14.0804 409.048 13.7842C408.261 13.488 407.613 13.0605 407.105 12.502C406.606 11.9349 406.234 11.2451 405.988 10.4326C405.751 9.61165 405.633 8.6849 405.633 7.65234C405.633 6.75521 405.76 5.90885 406.014 5.11328C406.276 4.30924 406.653 3.60677 407.144 3.00586C407.643 2.39648 408.252 1.91406 408.972 1.55859C409.691 1.20312 410.508 1.02539 411.422 1.02539C412.311 1.02539 413.098 1.16504 413.783 1.44434C414.469 1.72363 415.044 2.12142 415.51 2.6377C415.984 3.14551 416.339 3.76758 416.576 4.50391C416.822 5.23177 416.944 6.0485 416.944 6.9541ZM414.646 6.63672C414.672 6.06966 414.617 5.55339 414.481 5.08789C414.346 4.61393 414.134 4.20768 413.847 3.86914C413.567 3.5306 413.216 3.26823 412.793 3.08203C412.37 2.88737 411.879 2.79004 411.32 2.79004C410.838 2.79004 410.398 2.88314 410 3.06934C409.602 3.25553 409.259 3.5179 408.972 3.85645C408.684 4.19499 408.451 4.60124 408.273 5.0752C408.096 5.54915 407.986 6.06966 407.943 6.63672H414.646ZM430.566 10.5215C430.566 10.9701 430.49 11.3721 430.338 11.7275C430.186 12.083 429.978 12.4004 429.716 12.6797C429.453 12.9505 429.149 13.1833 428.802 13.3779C428.455 13.5726 428.082 13.7334 427.685 13.8604C427.295 13.9873 426.893 14.0804 426.479 14.1396C426.064 14.1989 425.658 14.2285 425.26 14.2285C424.396 14.2285 423.601 14.1904 422.873 14.1143C422.154 14.0381 421.447 13.9154 420.753 13.7461V11.7148C421.498 11.9264 422.238 12.0872 422.975 12.1973C423.711 12.3073 424.443 12.3623 425.171 12.3623C426.229 12.3623 427.012 12.2184 427.52 11.9307C428.027 11.6429 428.281 11.2324 428.281 10.6992C428.281 10.4707 428.239 10.2676 428.154 10.0898C428.078 9.90365 427.934 9.73014 427.723 9.56934C427.511 9.40007 427.181 9.22656 426.732 9.04883C426.292 8.87109 425.687 8.66797 424.917 8.43945C424.341 8.27018 423.808 8.07975 423.317 7.86816C422.835 7.64811 422.416 7.38997 422.061 7.09375C421.705 6.79753 421.426 6.45052 421.223 6.05273C421.02 5.65495 420.918 5.18522 420.918 4.64355C420.918 4.28809 420.998 3.89876 421.159 3.47559C421.328 3.05241 421.612 2.65885 422.01 2.29492C422.408 1.93099 422.945 1.63053 423.622 1.39355C424.299 1.14811 425.146 1.02539 426.161 1.02539C426.66 1.02539 427.215 1.05501 427.824 1.11426C428.434 1.16504 429.068 1.25814 429.729 1.39355V3.36133C429.035 3.19206 428.374 3.06934 427.748 2.99316C427.13 2.90853 426.593 2.86621 426.136 2.86621C425.586 2.86621 425.12 2.90853 424.739 2.99316C424.367 3.0778 424.062 3.19629 423.825 3.34863C423.597 3.49251 423.432 3.66602 423.33 3.86914C423.229 4.0638 423.178 4.27539 423.178 4.50391C423.178 4.73242 423.22 4.93978 423.305 5.12598C423.398 5.31217 423.563 5.49414 423.8 5.67188C424.045 5.84115 424.384 6.01465 424.815 6.19238C425.247 6.36165 425.81 6.54785 426.504 6.75098C427.257 6.97103 427.892 7.20378 428.408 7.44922C428.924 7.6862 429.343 7.9528 429.665 8.24902C429.987 8.54525 430.215 8.87956 430.351 9.25195C430.494 9.62435 430.566 10.0475 430.566 10.5215ZM444.861 10.5215C444.861 10.9701 444.785 11.3721 444.633 11.7275C444.48 12.083 444.273 12.4004 444.011 12.6797C443.748 12.9505 443.444 13.1833 443.097 13.3779C442.75 13.5726 442.377 13.7334 441.979 13.8604C441.59 13.9873 441.188 14.0804 440.773 14.1396C440.359 14.1989 439.952 14.2285 439.555 14.2285C438.691 14.2285 437.896 14.1904 437.168 14.1143C436.449 14.0381 435.742 13.9154 435.048 13.7461V11.7148C435.793 11.9264 436.533 12.0872 437.27 12.1973C438.006 12.3073 438.738 12.3623 439.466 12.3623C440.524 12.3623 441.307 12.2184 441.814 11.9307C442.322 11.6429 442.576 11.2324 442.576 10.6992C442.576 10.4707 442.534 10.2676 442.449 10.0898C442.373 9.90365 442.229 9.73014 442.018 9.56934C441.806 9.40007 441.476 9.22656 441.027 9.04883C440.587 8.87109 439.982 8.66797 439.212 8.43945C438.636 8.27018 438.103 8.07975 437.612 7.86816C437.13 7.64811 436.711 7.38997 436.355 7.09375C436 6.79753 435.721 6.45052 435.518 6.05273C435.314 5.65495 435.213 5.18522 435.213 4.64355C435.213 4.28809 435.293 3.89876 435.454 3.47559C435.623 3.05241 435.907 2.65885 436.305 2.29492C436.702 1.93099 437.24 1.63053 437.917 1.39355C438.594 1.14811 439.44 1.02539 440.456 1.02539C440.955 1.02539 441.51 1.05501 442.119 1.11426C442.729 1.16504 443.363 1.25814 444.023 1.39355V3.36133C443.329 3.19206 442.669 3.06934 442.043 2.99316C441.425 2.90853 440.888 2.86621 440.431 2.86621C439.881 2.86621 439.415 2.90853 439.034 2.99316C438.662 3.0778 438.357 3.19629 438.12 3.34863C437.892 3.49251 437.727 3.66602 437.625 3.86914C437.523 4.0638 437.473 4.27539 437.473 4.50391C437.473 4.73242 437.515 4.93978 437.6 5.12598C437.693 5.31217 437.858 5.49414 438.095 5.67188C438.34 5.84115 438.679 6.01465 439.11 6.19238C439.542 6.36165 440.105 6.54785 440.799 6.75098C441.552 6.97103 442.187 7.20378 442.703 7.44922C443.219 7.6862 443.638 7.9528 443.96 8.24902C444.282 8.54525 444.51 8.87956 444.646 9.25195C444.789 9.62435 444.861 10.0475 444.861 10.5215ZM330.502 36.5215C330.502 36.9701 330.426 37.3721 330.273 37.7275C330.121 38.083 329.914 38.4004 329.651 38.6797C329.389 38.9505 329.084 39.1833 328.737 39.3779C328.39 39.5726 328.018 39.7334 327.62 39.8604C327.231 39.9873 326.829 40.0804 326.414 40.1396C325.999 40.1989 325.593 40.2285 325.195 40.2285C324.332 40.2285 323.536 40.1904 322.809 40.1143C322.089 40.0381 321.382 39.9154 320.688 39.7461V37.7148C321.433 37.9264 322.174 38.0872 322.91 38.1973C323.646 38.3073 324.379 38.3623 325.106 38.3623C326.164 38.3623 326.947 38.2184 327.455 37.9307C327.963 37.6429 328.217 37.2324 328.217 36.6992C328.217 36.4707 328.174 36.2676 328.09 36.0898C328.014 35.9036 327.87 35.7301 327.658 35.5693C327.447 35.4001 327.117 35.2266 326.668 35.0488C326.228 34.8711 325.623 34.668 324.853 34.4395C324.277 34.2702 323.744 34.0798 323.253 33.8682C322.771 33.6481 322.352 33.39 321.996 33.0938C321.641 32.7975 321.361 32.4505 321.158 32.0527C320.955 31.6549 320.854 31.1852 320.854 30.6436C320.854 30.2881 320.934 29.8988 321.095 29.4756C321.264 29.0524 321.548 28.6589 321.945 28.2949C322.343 27.931 322.881 27.6305 323.558 27.3936C324.235 27.1481 325.081 27.0254 326.097 27.0254C326.596 27.0254 327.15 27.055 327.76 27.1143C328.369 27.165 329.004 27.2581 329.664 27.3936V29.3613C328.97 29.1921 328.31 29.0693 327.684 28.9932C327.066 28.9085 326.528 28.8662 326.071 28.8662C325.521 28.8662 325.056 28.9085 324.675 28.9932C324.302 29.0778 323.998 29.1963 323.761 29.3486C323.532 29.4925 323.367 29.666 323.266 29.8691C323.164 30.0638 323.113 30.2754 323.113 30.5039C323.113 30.7324 323.156 30.9398 323.24 31.126C323.333 31.3122 323.498 31.4941 323.735 31.6719C323.981 31.8411 324.319 32.0146 324.751 32.1924C325.183 32.3617 325.745 32.5479 326.439 32.751C327.193 32.971 327.827 33.2038 328.344 33.4492C328.86 33.6862 329.279 33.9528 329.601 34.249C329.922 34.5452 330.151 34.8796 330.286 35.252C330.43 35.6243 330.502 36.0475 330.502 36.5215ZM344.975 39.8223C344.475 39.9492 343.959 40.0381 343.426 40.0889C342.893 40.1481 342.351 40.1777 341.801 40.1777C340.201 40.1777 339.008 39.818 338.221 39.0986C337.434 38.3708 337.04 37.2578 337.04 35.7598V29.1074H333.473V27.2539H337.04V23.75L339.249 23.1787V27.2539H344.975V29.1074H339.249V35.582C339.249 36.4961 339.49 37.1816 339.973 37.6387C340.464 38.0872 341.183 38.3115 342.131 38.3115C342.537 38.3115 342.981 38.2819 343.464 38.2227C343.946 38.1549 344.45 38.0534 344.975 37.918V39.8223ZM357.188 40L357.137 38.2861C356.443 38.9717 355.736 39.4668 355.017 39.7715C354.306 40.0762 353.557 40.2285 352.77 40.2285C352.042 40.2285 351.42 40.1354 350.903 39.9492C350.387 39.763 349.96 39.5091 349.621 39.1875C349.291 38.8574 349.046 38.4723 348.885 38.0322C348.732 37.5921 348.656 37.1139 348.656 36.5977C348.656 35.3197 349.13 34.321 350.078 33.6016C351.035 32.8737 352.444 32.5098 354.306 32.5098H356.946V31.3926C356.946 30.6393 356.705 30.0384 356.223 29.5898C355.74 29.1328 355.004 28.9043 354.014 28.9043C353.294 28.9043 352.583 28.9847 351.881 29.1455C351.187 29.3063 350.467 29.5348 349.723 29.8311V27.8379C350.002 27.7363 350.311 27.639 350.649 27.5459C350.996 27.4443 351.36 27.3555 351.741 27.2793C352.122 27.2031 352.52 27.1439 352.935 27.1016C353.349 27.0508 353.768 27.0254 354.191 27.0254C354.962 27.0254 355.656 27.11 356.273 27.2793C356.891 27.4486 357.412 27.7067 357.835 28.0537C358.267 28.4007 358.597 28.8366 358.825 29.3613C359.054 29.8861 359.168 30.5039 359.168 31.2148V40H357.188ZM356.946 34.1982H354.141C353.59 34.1982 353.117 34.2533 352.719 34.3633C352.321 34.4733 351.995 34.6299 351.741 34.833C351.487 35.0361 351.297 35.2816 351.17 35.5693C351.051 35.8486 350.992 36.166 350.992 36.5215C350.992 36.7669 351.03 37.0039 351.106 37.2324C351.183 37.4525 351.305 37.6514 351.475 37.8291C351.644 37.9984 351.864 38.1338 352.135 38.2354C352.406 38.3369 352.736 38.3877 353.125 38.3877C353.633 38.3877 354.213 38.2354 354.864 37.9307C355.524 37.6175 356.218 37.1266 356.946 36.458V34.1982ZM363.814 27.2539H365.833L365.896 29.6025C366.65 28.6969 367.39 28.041 368.118 27.6348C368.854 27.2285 369.595 27.0254 370.34 27.0254C371.66 27.0254 372.659 27.4528 373.336 28.3076C374.021 29.1624 374.339 30.432 374.288 32.1162H372.054C372.079 30.999 371.914 30.1908 371.559 29.6914C371.212 29.1836 370.7 28.9297 370.022 28.9297C369.726 28.9297 369.426 28.9847 369.121 29.0947C368.825 29.1963 368.516 29.3656 368.194 29.6025C367.881 29.8311 367.547 30.1273 367.191 30.4912C366.836 30.8551 366.455 31.2952 366.049 31.8115V40H363.814V27.2539ZM387.859 39.8223C387.36 39.9492 386.844 40.0381 386.311 40.0889C385.777 40.1481 385.236 40.1777 384.686 40.1777C383.086 40.1777 381.893 39.818 381.105 39.0986C380.318 38.3708 379.925 37.2578 379.925 35.7598V29.1074H376.357V27.2539H379.925V23.75L382.134 23.1787V27.2539H387.859V29.1074H382.134V35.582C382.134 36.4961 382.375 37.1816 382.857 37.6387C383.348 38.0872 384.068 38.3115 385.016 38.3115C385.422 38.3115 385.866 38.2819 386.349 38.2227C386.831 38.1549 387.335 38.0534 387.859 37.918V39.8223ZM417.071 33.3984C417.071 34.5326 416.91 35.5228 416.589 36.3691C416.276 37.2155 415.84 37.918 415.281 38.4766C414.723 39.0352 414.062 39.4541 413.301 39.7334C412.539 40.0127 411.714 40.1523 410.825 40.1523C410.419 40.1523 410.013 40.1312 409.606 40.0889C409.209 40.0465 408.802 39.9746 408.388 39.873V45.2051H406.179V27.2539H408.146L408.286 29.3867C408.921 28.515 409.598 27.9056 410.317 27.5586C411.037 27.2031 411.815 27.0254 412.653 27.0254C413.381 27.0254 414.02 27.1777 414.57 27.4824C415.12 27.7871 415.582 28.2188 415.954 28.7773C416.326 29.3275 416.606 29.9961 416.792 30.7832C416.978 31.5618 417.071 32.4336 417.071 33.3984ZM414.812 33.5C414.812 32.8314 414.761 32.2178 414.659 31.6592C414.566 31.1006 414.414 30.6224 414.202 30.2246C413.991 29.8268 413.72 29.5179 413.39 29.2979C413.06 29.0693 412.666 28.9551 412.209 28.9551C411.93 28.9551 411.646 29.0016 411.358 29.0947C411.071 29.1794 410.77 29.3275 410.457 29.5391C410.152 29.7422 409.826 30.0173 409.479 30.3643C409.141 30.7028 408.777 31.126 408.388 31.6338V37.8164C408.794 37.9857 409.221 38.1211 409.67 38.2227C410.118 38.3158 410.559 38.3623 410.99 38.3623C412.184 38.3623 413.119 37.9603 413.796 37.1562C414.473 36.3438 414.812 35.125 414.812 33.5ZM431.569 33.5254C431.569 34.5156 431.43 35.4255 431.15 36.2549C430.871 37.0758 430.469 37.7826 429.944 38.375C429.42 38.959 428.781 39.416 428.027 39.7461C427.274 40.0677 426.419 40.2285 425.463 40.2285C424.549 40.2285 423.728 40.0889 423 39.8096C422.281 39.5218 421.667 39.1029 421.159 38.5527C420.66 38.0026 420.275 37.3213 420.004 36.5088C419.742 35.6963 419.61 34.7611 419.61 33.7031C419.61 32.7129 419.75 31.8115 420.029 30.999C420.309 30.1781 420.711 29.4756 421.235 28.8916C421.76 28.2992 422.399 27.8421 423.152 27.5205C423.906 27.1904 424.76 27.0254 425.717 27.0254C426.631 27.0254 427.448 27.1693 428.167 27.457C428.895 27.7363 429.508 28.151 430.008 28.7012C430.516 29.2428 430.901 29.9199 431.163 30.7324C431.434 31.5449 431.569 32.4759 431.569 33.5254ZM429.31 33.627C429.31 32.8398 429.221 32.1543 429.043 31.5703C428.874 30.9779 428.628 30.487 428.307 30.0977C427.985 29.6999 427.591 29.4036 427.126 29.209C426.669 29.0059 426.157 28.9043 425.59 28.9043C424.93 28.9043 424.363 29.0355 423.889 29.2979C423.423 29.5518 423.038 29.8945 422.733 30.3262C422.437 30.7578 422.217 31.2614 422.073 31.8369C421.938 32.404 421.87 33.0007 421.87 33.627C421.87 34.4141 421.955 35.1038 422.124 35.6963C422.302 36.2887 422.551 36.7839 422.873 37.1816C423.195 37.571 423.584 37.8672 424.041 38.0703C424.498 38.265 425.014 38.3623 425.59 38.3623C426.25 38.3623 426.813 38.2354 427.278 37.9814C427.752 37.7191 428.137 37.3721 428.434 36.9404C428.738 36.5088 428.958 36.0094 429.094 35.4424C429.238 34.8669 429.31 34.2617 429.31 33.627ZM439.11 29.082H435.34V27.2539H441.345V38.1592H445.141V40H434.921V38.1592H439.11V29.082ZM439.885 21.9092C440.13 21.9092 440.359 21.9557 440.57 22.0488C440.782 22.1335 440.964 22.2562 441.116 22.417C441.277 22.5778 441.4 22.764 441.484 22.9756C441.577 23.1787 441.624 23.403 441.624 23.6484C441.624 23.8854 441.577 24.1097 441.484 24.3213C441.4 24.5329 441.277 24.7191 441.116 24.8799C440.964 25.0407 440.782 25.1676 440.57 25.2607C440.359 25.3454 440.13 25.3877 439.885 25.3877C439.639 25.3877 439.411 25.3454 439.199 25.2607C438.988 25.1676 438.801 25.0407 438.641 24.8799C438.488 24.7191 438.366 24.5329 438.272 24.3213C438.188 24.1097 438.146 23.8854 438.146 23.6484C438.146 23.403 438.188 23.1787 438.272 22.9756C438.366 22.764 438.488 22.5778 438.641 22.417C438.801 22.2562 438.988 22.1335 439.199 22.0488C439.411 21.9557 439.639 21.9092 439.885 21.9092ZM449.063 27.2539H451.031L451.12 29.3105C451.493 28.8704 451.852 28.5065 452.199 28.2188C452.546 27.9225 452.885 27.6855 453.215 27.5078C453.553 27.3301 453.896 27.2074 454.243 27.1396C454.59 27.0635 454.95 27.0254 455.322 27.0254C456.634 27.0254 457.624 27.4147 458.293 28.1934C458.97 28.9635 459.309 30.1273 459.309 31.6846V40H457.1V31.8623C457.1 30.8636 456.913 30.1273 456.541 29.6533C456.169 29.1709 455.614 28.9297 454.878 28.9297C454.607 28.9297 454.34 28.972 454.078 29.0566C453.824 29.1328 453.558 29.2725 453.278 29.4756C452.999 29.6702 452.694 29.9368 452.364 30.2754C452.043 30.6139 451.679 31.0371 451.272 31.5449V40H449.063V27.2539ZM473.629 39.8223C473.13 39.9492 472.613 40.0381 472.08 40.0889C471.547 40.1481 471.005 40.1777 470.455 40.1777C468.855 40.1777 467.662 39.818 466.875 39.0986C466.088 38.3708 465.694 37.2578 465.694 35.7598V29.1074H462.127V27.2539H465.694V23.75L467.903 23.1787V27.2539H473.629V29.1074H467.903V35.582C467.903 36.4961 468.145 37.1816 468.627 37.6387C469.118 38.0872 469.837 38.3115 470.785 38.3115C471.191 38.3115 471.636 38.2819 472.118 38.2227C472.601 38.1549 473.104 38.0534 473.629 37.918V39.8223Z" fill="#00B2FF"/>
<path d="M621.392 7.39844C621.392 8.53255 621.231 9.52279 620.909 10.3691C620.596 11.2155 620.16 11.918 619.602 12.4766C619.043 13.0352 618.383 13.4541 617.621 13.7334C616.859 14.0127 616.034 14.1523 615.146 14.1523C614.739 14.1523 614.333 14.1312 613.927 14.0889C613.529 14.0465 613.123 13.9746 612.708 13.873V19.2051H610.499V1.25391H612.467L612.606 3.38672C613.241 2.51497 613.918 1.9056 614.638 1.55859C615.357 1.20312 616.136 1.02539 616.974 1.02539C617.701 1.02539 618.34 1.17773 618.891 1.48242C619.441 1.78711 619.902 2.21875 620.274 2.77734C620.647 3.32747 620.926 3.99609 621.112 4.7832C621.299 5.56185 621.392 6.43359 621.392 7.39844ZM619.132 7.5C619.132 6.83138 619.081 6.21777 618.979 5.65918C618.886 5.10059 618.734 4.6224 618.522 4.22461C618.311 3.82682 618.04 3.5179 617.71 3.29785C617.38 3.06934 616.986 2.95508 616.529 2.95508C616.25 2.95508 615.966 3.00163 615.679 3.09473C615.391 3.17936 615.09 3.32747 614.777 3.53906C614.473 3.74219 614.147 4.01725 613.8 4.36426C613.461 4.7028 613.097 5.12598 612.708 5.63379V11.8164C613.114 11.9857 613.542 12.1211 613.99 12.2227C614.439 12.3158 614.879 12.3623 615.311 12.3623C616.504 12.3623 617.439 11.9603 618.116 11.1562C618.793 10.3438 619.132 9.125 619.132 7.5ZM625.314 1.25391H627.333L627.396 3.60254C628.15 2.69694 628.89 2.04102 629.618 1.63477C630.354 1.22852 631.095 1.02539 631.84 1.02539C633.16 1.02539 634.159 1.4528 634.836 2.30762C635.521 3.16243 635.839 4.43197 635.788 6.11621H633.554C633.579 4.99902 633.414 4.19076 633.059 3.69141C632.712 3.18359 632.2 2.92969 631.522 2.92969C631.226 2.92969 630.926 2.9847 630.621 3.09473C630.325 3.19629 630.016 3.36556 629.694 3.60254C629.381 3.83105 629.047 4.12728 628.691 4.49121C628.336 4.85514 627.955 5.29525 627.549 5.81152V14H625.314V1.25391ZM650.185 7.52539C650.185 8.51562 650.045 9.42546 649.766 10.2549C649.486 11.0758 649.084 11.7826 648.56 12.375C648.035 12.959 647.396 13.416 646.643 13.7461C645.889 14.0677 645.035 14.2285 644.078 14.2285C643.164 14.2285 642.343 14.0889 641.615 13.8096C640.896 13.5218 640.282 13.1029 639.774 12.5527C639.275 12.0026 638.89 11.3213 638.619 10.5088C638.357 9.69629 638.226 8.76107 638.226 7.70312C638.226 6.71289 638.365 5.81152 638.645 4.99902C638.924 4.17806 639.326 3.47559 639.851 2.8916C640.375 2.29915 641.014 1.84212 641.768 1.52051C642.521 1.19043 643.376 1.02539 644.332 1.02539C645.246 1.02539 646.063 1.16927 646.782 1.45703C647.51 1.73633 648.124 2.15104 648.623 2.70117C649.131 3.24284 649.516 3.91992 649.778 4.73242C650.049 5.54492 650.185 6.47591 650.185 7.52539ZM647.925 7.62695C647.925 6.83984 647.836 6.1543 647.658 5.57031C647.489 4.97786 647.243 4.48698 646.922 4.09766C646.6 3.69987 646.207 3.40365 645.741 3.20898C645.284 3.00586 644.772 2.9043 644.205 2.9043C643.545 2.9043 642.978 3.03548 642.504 3.29785C642.038 3.55176 641.653 3.89453 641.349 4.32617C641.052 4.75781 640.832 5.26139 640.688 5.83691C640.553 6.40397 640.485 7.00065 640.485 7.62695C640.485 8.41406 640.57 9.10384 640.739 9.69629C640.917 10.2887 641.167 10.7839 641.488 11.1816C641.81 11.571 642.199 11.8672 642.656 12.0703C643.113 12.265 643.63 12.3623 644.205 12.3623C644.865 12.3623 645.428 12.2354 645.894 11.9814C646.368 11.7191 646.753 11.3721 647.049 10.9404C647.354 10.5088 647.574 10.0094 647.709 9.44238C647.853 8.86686 647.925 8.26172 647.925 7.62695ZM663.286 13.5303C662.711 13.7503 662.118 13.9111 661.509 14.0127C660.908 14.1227 660.286 14.1777 659.643 14.1777C657.628 14.1777 656.075 13.6318 654.983 12.54C653.9 11.4482 653.358 9.85286 653.358 7.75391C653.358 6.74674 653.515 5.83268 653.828 5.01172C654.141 4.19076 654.581 3.48828 655.148 2.9043C655.715 2.32031 656.393 1.87174 657.18 1.55859C657.967 1.23698 658.834 1.07617 659.782 1.07617C660.442 1.07617 661.06 1.12272 661.636 1.21582C662.211 1.30892 662.761 1.46126 663.286 1.67285V3.78027C662.736 3.49251 662.173 3.28516 661.598 3.1582C661.031 3.02279 660.442 2.95508 659.833 2.95508C659.266 2.95508 658.729 3.0651 658.221 3.28516C657.721 3.49674 657.281 3.80566 656.9 4.21191C656.52 4.61816 656.219 5.11328 655.999 5.69727C655.779 6.28125 655.669 6.94141 655.669 7.67773C655.669 9.2181 656.041 10.3734 656.786 11.1436C657.539 11.9053 658.58 12.2861 659.909 12.2861C660.51 12.2861 661.09 12.2184 661.648 12.083C662.215 11.9476 662.761 11.7445 663.286 11.4736V13.5303ZM678.444 6.9541C678.444 7.26725 678.44 7.52962 678.432 7.74121C678.423 7.9528 678.41 8.15169 678.394 8.33789H669.443C669.443 9.64128 669.807 10.6442 670.535 11.3467C671.263 12.0407 672.312 12.3877 673.684 12.3877C674.056 12.3877 674.428 12.375 674.801 12.3496C675.173 12.3158 675.533 12.2734 675.88 12.2227C676.227 12.1719 676.557 12.1169 676.87 12.0576C677.192 11.9899 677.488 11.918 677.759 11.8418V13.6572C677.158 13.8265 676.477 13.9619 675.715 14.0635C674.962 14.1735 674.179 14.2285 673.366 14.2285C672.274 14.2285 671.335 14.0804 670.548 13.7842C669.761 13.488 669.113 13.0605 668.605 12.502C668.106 11.9349 667.734 11.2451 667.488 10.4326C667.251 9.61165 667.133 8.6849 667.133 7.65234C667.133 6.75521 667.26 5.90885 667.514 5.11328C667.776 4.30924 668.153 3.60677 668.644 3.00586C669.143 2.39648 669.752 1.91406 670.472 1.55859C671.191 1.20312 672.008 1.02539 672.922 1.02539C673.811 1.02539 674.598 1.16504 675.283 1.44434C675.969 1.72363 676.544 2.12142 677.01 2.6377C677.484 3.14551 677.839 3.76758 678.076 4.50391C678.322 5.23177 678.444 6.0485 678.444 6.9541ZM676.146 6.63672C676.172 6.06966 676.117 5.55339 675.981 5.08789C675.846 4.61393 675.634 4.20768 675.347 3.86914C675.067 3.5306 674.716 3.26823 674.293 3.08203C673.87 2.88737 673.379 2.79004 672.82 2.79004C672.338 2.79004 671.898 2.88314 671.5 3.06934C671.102 3.25553 670.759 3.5179 670.472 3.85645C670.184 4.19499 669.951 4.60124 669.773 5.0752C669.596 5.54915 669.486 6.06966 669.443 6.63672H676.146ZM692.066 10.5215C692.066 10.9701 691.99 11.3721 691.838 11.7275C691.686 12.083 691.478 12.4004 691.216 12.6797C690.953 12.9505 690.649 13.1833 690.302 13.3779C689.955 13.5726 689.582 13.7334 689.185 13.8604C688.795 13.9873 688.393 14.0804 687.979 14.1396C687.564 14.1989 687.158 14.2285 686.76 14.2285C685.896 14.2285 685.101 14.1904 684.373 14.1143C683.654 14.0381 682.947 13.9154 682.253 13.7461V11.7148C682.998 11.9264 683.738 12.0872 684.475 12.1973C685.211 12.3073 685.943 12.3623 686.671 12.3623C687.729 12.3623 688.512 12.2184 689.02 11.9307C689.527 11.6429 689.781 11.2324 689.781 10.6992C689.781 10.4707 689.739 10.2676 689.654 10.0898C689.578 9.90365 689.434 9.73014 689.223 9.56934C689.011 9.40007 688.681 9.22656 688.232 9.04883C687.792 8.87109 687.187 8.66797 686.417 8.43945C685.841 8.27018 685.308 8.07975 684.817 7.86816C684.335 7.64811 683.916 7.38997 683.561 7.09375C683.205 6.79753 682.926 6.45052 682.723 6.05273C682.52 5.65495 682.418 5.18522 682.418 4.64355C682.418 4.28809 682.498 3.89876 682.659 3.47559C682.828 3.05241 683.112 2.65885 683.51 2.29492C683.908 1.93099 684.445 1.63053 685.122 1.39355C685.799 1.14811 686.646 1.02539 687.661 1.02539C688.16 1.02539 688.715 1.05501 689.324 1.11426C689.934 1.16504 690.568 1.25814 691.229 1.39355V3.36133C690.535 3.19206 689.874 3.06934 689.248 2.99316C688.63 2.90853 688.093 2.86621 687.636 2.86621C687.086 2.86621 686.62 2.90853 686.239 2.99316C685.867 3.0778 685.562 3.19629 685.325 3.34863C685.097 3.49251 684.932 3.66602 684.83 3.86914C684.729 4.0638 684.678 4.27539 684.678 4.50391C684.678 4.73242 684.72 4.93978 684.805 5.12598C684.898 5.31217 685.063 5.49414 685.3 5.67188C685.545 5.84115 685.884 6.01465 686.315 6.19238C686.747 6.36165 687.31 6.54785 688.004 6.75098C688.757 6.97103 689.392 7.20378 689.908 7.44922C690.424 7.6862 690.843 7.9528 691.165 8.24902C691.487 8.54525 691.715 8.87956 691.851 9.25195C691.994 9.62435 692.066 10.0475 692.066 10.5215ZM706.361 10.5215C706.361 10.9701 706.285 11.3721 706.133 11.7275C705.98 12.083 705.773 12.4004 705.511 12.6797C705.248 12.9505 704.944 13.1833 704.597 13.3779C704.25 13.5726 703.877 13.7334 703.479 13.8604C703.09 13.9873 702.688 14.0804 702.273 14.1396C701.859 14.1989 701.452 14.2285 701.055 14.2285C700.191 14.2285 699.396 14.1904 698.668 14.1143C697.949 14.0381 697.242 13.9154 696.548 13.7461V11.7148C697.293 11.9264 698.033 12.0872 698.77 12.1973C699.506 12.3073 700.238 12.3623 700.966 12.3623C702.024 12.3623 702.807 12.2184 703.314 11.9307C703.822 11.6429 704.076 11.2324 704.076 10.6992C704.076 10.4707 704.034 10.2676 703.949 10.0898C703.873 9.90365 703.729 9.73014 703.518 9.56934C703.306 9.40007 702.976 9.22656 702.527 9.04883C702.087 8.87109 701.482 8.66797 700.712 8.43945C700.136 8.27018 699.603 8.07975 699.112 7.86816C698.63 7.64811 698.211 7.38997 697.855 7.09375C697.5 6.79753 697.221 6.45052 697.018 6.05273C696.814 5.65495 696.713 5.18522 696.713 4.64355C696.713 4.28809 696.793 3.89876 696.954 3.47559C697.123 3.05241 697.407 2.65885 697.805 2.29492C698.202 1.93099 698.74 1.63053 699.417 1.39355C700.094 1.14811 700.94 1.02539 701.956 1.02539C702.455 1.02539 703.01 1.05501 703.619 1.11426C704.229 1.16504 704.863 1.25814 705.523 1.39355V3.36133C704.829 3.19206 704.169 3.06934 703.543 2.99316C702.925 2.90853 702.388 2.86621 701.931 2.86621C701.381 2.86621 700.915 2.90853 700.534 2.99316C700.162 3.0778 699.857 3.19629 699.62 3.34863C699.392 3.49251 699.227 3.66602 699.125 3.86914C699.023 4.0638 698.973 4.27539 698.973 4.50391C698.973 4.73242 699.015 4.93978 699.1 5.12598C699.193 5.31217 699.358 5.49414 699.595 5.67188C699.84 5.84115 700.179 6.01465 700.61 6.19238C701.042 6.36165 701.605 6.54785 702.299 6.75098C703.052 6.97103 703.687 7.20378 704.203 7.44922C704.719 7.6862 705.138 7.9528 705.46 8.24902C705.782 8.54525 706.01 8.87956 706.146 9.25195C706.289 9.62435 706.361 10.0475 706.361 10.5215ZM606.97 32.9541C606.97 33.2673 606.965 33.5296 606.957 33.7412C606.949 33.9528 606.936 34.1517 606.919 34.3379H597.969C597.969 35.6413 598.333 36.6442 599.061 37.3467C599.788 38.0407 600.838 38.3877 602.209 38.3877C602.581 38.3877 602.954 38.375 603.326 38.3496C603.699 38.3158 604.058 38.2734 604.405 38.2227C604.752 38.1719 605.082 38.1169 605.396 38.0576C605.717 37.9899 606.013 37.918 606.284 37.8418V39.6572C605.683 39.8265 605.002 39.9619 604.24 40.0635C603.487 40.1735 602.704 40.2285 601.892 40.2285C600.8 40.2285 599.86 40.0804 599.073 39.7842C598.286 39.488 597.639 39.0605 597.131 38.502C596.632 37.9349 596.259 37.2451 596.014 36.4326C595.777 35.6117 595.658 34.6849 595.658 33.6523C595.658 32.7552 595.785 31.9089 596.039 31.1133C596.301 30.3092 596.678 29.6068 597.169 29.0059C597.668 28.3965 598.278 27.9141 598.997 27.5586C599.716 27.2031 600.533 27.0254 601.447 27.0254C602.336 27.0254 603.123 27.165 603.809 27.4443C604.494 27.7236 605.07 28.1214 605.535 28.6377C606.009 29.1455 606.365 29.7676 606.602 30.5039C606.847 31.2318 606.97 32.0485 606.97 32.9541ZM604.672 32.6367C604.697 32.0697 604.642 31.5534 604.507 31.0879C604.371 30.6139 604.16 30.2077 603.872 29.8691C603.593 29.5306 603.242 29.2682 602.818 29.082C602.395 28.8874 601.904 28.79 601.346 28.79C600.863 28.79 600.423 28.8831 600.025 29.0693C599.628 29.2555 599.285 29.5179 598.997 29.8564C598.709 30.195 598.477 30.6012 598.299 31.0752C598.121 31.5492 598.011 32.0697 597.969 32.6367H604.672ZM610.499 27.2539H612.467L612.556 29.3105C612.928 28.8704 613.288 28.5065 613.635 28.2188C613.982 27.9225 614.32 27.6855 614.65 27.5078C614.989 27.3301 615.332 27.2074 615.679 27.1396C616.026 27.0635 616.385 27.0254 616.758 27.0254C618.07 27.0254 619.06 27.4147 619.729 28.1934C620.406 28.9635 620.744 30.1273 620.744 31.6846V40H618.535V31.8623C618.535 30.8636 618.349 30.1273 617.977 29.6533C617.604 29.1709 617.05 28.9297 616.313 28.9297C616.043 28.9297 615.776 28.972 615.514 29.0566C615.26 29.1328 614.993 29.2725 614.714 29.4756C614.435 29.6702 614.13 29.9368 613.8 30.2754C613.478 30.6139 613.114 31.0371 612.708 31.5449V40H610.499V27.2539ZM624.146 33.8936C624.146 32.8102 624.295 31.8496 624.591 31.0117C624.887 30.1654 625.306 29.4544 625.848 28.8789C626.398 28.2949 627.054 27.8548 627.815 27.5586C628.586 27.2539 629.44 27.1016 630.38 27.1016C630.786 27.1016 631.184 27.127 631.573 27.1777C631.971 27.2285 632.36 27.3089 632.741 27.4189V22.0615H634.963V40H632.982L632.906 37.5879C632.288 38.485 631.62 39.1494 630.9 39.5811C630.181 40.0127 629.402 40.2285 628.564 40.2285C627.837 40.2285 627.193 40.0762 626.635 39.7715C626.085 39.4668 625.623 39.0394 625.251 38.4893C624.887 37.9307 624.612 37.262 624.426 36.4834C624.24 35.7048 624.146 34.8415 624.146 33.8936ZM626.406 33.7539C626.406 35.2943 626.631 36.4453 627.079 37.207C627.536 37.9603 628.179 38.3369 629.009 38.3369C629.567 38.3369 630.156 38.0872 630.773 37.5879C631.4 37.0885 632.056 36.348 632.741 35.3662V29.4502C632.377 29.2809 631.975 29.154 631.535 29.0693C631.095 28.9762 630.659 28.9297 630.228 28.9297C629.026 28.9297 628.086 29.319 627.409 30.0977C626.741 30.8763 626.406 32.0951 626.406 33.7539ZM664.276 33.3984C664.276 34.5326 664.116 35.5228 663.794 36.3691C663.481 37.2155 663.045 37.918 662.486 38.4766C661.928 39.0352 661.268 39.4541 660.506 39.7334C659.744 40.0127 658.919 40.1523 658.03 40.1523C657.624 40.1523 657.218 40.1312 656.812 40.0889C656.414 40.0465 656.007 39.9746 655.593 39.873V45.2051H653.384V27.2539H655.352L655.491 29.3867C656.126 28.515 656.803 27.9056 657.522 27.5586C658.242 27.2031 659.021 27.0254 659.858 27.0254C660.586 27.0254 661.225 27.1777 661.775 27.4824C662.326 27.7871 662.787 28.2188 663.159 28.7773C663.532 29.3275 663.811 29.9961 663.997 30.7832C664.183 31.5618 664.276 32.4336 664.276 33.3984ZM662.017 33.5C662.017 32.8314 661.966 32.2178 661.864 31.6592C661.771 31.1006 661.619 30.6224 661.407 30.2246C661.196 29.8268 660.925 29.5179 660.595 29.2979C660.265 29.0693 659.871 28.9551 659.414 28.9551C659.135 28.9551 658.851 29.0016 658.563 29.0947C658.276 29.1794 657.975 29.3275 657.662 29.5391C657.357 29.7422 657.032 30.0173 656.685 30.3643C656.346 30.7028 655.982 31.126 655.593 31.6338V37.8164C655.999 37.9857 656.426 38.1211 656.875 38.2227C657.324 38.3158 657.764 38.3623 658.195 38.3623C659.389 38.3623 660.324 37.9603 661.001 37.1562C661.678 36.3438 662.017 35.125 662.017 33.5ZM678.774 33.5254C678.774 34.5156 678.635 35.4255 678.355 36.2549C678.076 37.0758 677.674 37.7826 677.149 38.375C676.625 38.959 675.986 39.416 675.232 39.7461C674.479 40.0677 673.624 40.2285 672.668 40.2285C671.754 40.2285 670.933 40.0889 670.205 39.8096C669.486 39.5218 668.872 39.1029 668.364 38.5527C667.865 38.0026 667.48 37.3213 667.209 36.5088C666.947 35.6963 666.815 34.7611 666.815 33.7031C666.815 32.7129 666.955 31.8115 667.234 30.999C667.514 30.1781 667.916 29.4756 668.44 28.8916C668.965 28.2992 669.604 27.8421 670.357 27.5205C671.111 27.1904 671.965 27.0254 672.922 27.0254C673.836 27.0254 674.653 27.1693 675.372 27.457C676.1 27.7363 676.714 28.151 677.213 28.7012C677.721 29.2428 678.106 29.9199 678.368 30.7324C678.639 31.5449 678.774 32.4759 678.774 33.5254ZM676.515 33.627C676.515 32.8398 676.426 32.1543 676.248 31.5703C676.079 30.9779 675.833 30.487 675.512 30.0977C675.19 29.6999 674.797 29.4036 674.331 29.209C673.874 29.0059 673.362 28.9043 672.795 28.9043C672.135 28.9043 671.568 29.0355 671.094 29.2979C670.628 29.5518 670.243 29.8945 669.938 30.3262C669.642 30.7578 669.422 31.2614 669.278 31.8369C669.143 32.404 669.075 33.0007 669.075 33.627C669.075 34.4141 669.16 35.1038 669.329 35.6963C669.507 36.2887 669.757 36.7839 670.078 37.1816C670.4 37.571 670.789 37.8672 671.246 38.0703C671.703 38.265 672.219 38.3623 672.795 38.3623C673.455 38.3623 674.018 38.2354 674.483 37.9814C674.957 37.7191 675.342 37.3721 675.639 36.9404C675.943 36.5088 676.163 36.0094 676.299 35.4424C676.443 34.8669 676.515 34.2617 676.515 33.627ZM686.315 29.082H682.545V27.2539H688.55V38.1592H692.346V40H682.126V38.1592H686.315V29.082ZM687.09 21.9092C687.335 21.9092 687.564 21.9557 687.775 22.0488C687.987 22.1335 688.169 22.2562 688.321 22.417C688.482 22.5778 688.605 22.764 688.689 22.9756C688.783 23.1787 688.829 23.403 688.829 23.6484C688.829 23.8854 688.783 24.1097 688.689 24.3213C688.605 24.5329 688.482 24.7191 688.321 24.8799C688.169 25.0407 687.987 25.1676 687.775 25.2607C687.564 25.3454 687.335 25.3877 687.09 25.3877C686.844 25.3877 686.616 25.3454 686.404 25.2607C686.193 25.1676 686.007 25.0407 685.846 24.8799C685.693 24.7191 685.571 24.5329 685.478 24.3213C685.393 24.1097 685.351 23.8854 685.351 23.6484C685.351 23.403 685.393 23.1787 685.478 22.9756C685.571 22.764 685.693 22.5778 685.846 22.417C686.007 22.2562 686.193 22.1335 686.404 22.0488C686.616 21.9557 686.844 21.9092 687.09 21.9092ZM696.269 27.2539H698.236L698.325 29.3105C698.698 28.8704 699.057 28.5065 699.404 28.2188C699.751 27.9225 700.09 27.6855 700.42 27.5078C700.758 27.3301 701.101 27.2074 701.448 27.1396C701.795 27.0635 702.155 27.0254 702.527 27.0254C703.839 27.0254 704.829 27.4147 705.498 28.1934C706.175 28.9635 706.514 30.1273 706.514 31.6846V40H704.305V31.8623C704.305 30.8636 704.118 30.1273 703.746 29.6533C703.374 29.1709 702.819 28.9297 702.083 28.9297C701.812 28.9297 701.546 28.972 701.283 29.0566C701.029 29.1328 700.763 29.2725 700.483 29.4756C700.204 29.6702 699.899 29.9368 699.569 30.2754C699.248 30.6139 698.884 31.0371 698.478 31.5449V40H696.269V27.2539ZM720.834 39.8223C720.335 39.9492 719.818 40.0381 719.285 40.0889C718.752 40.1481 718.21 40.1777 717.66 40.1777C716.061 40.1777 714.867 39.818 714.08 39.0986C713.293 38.3708 712.899 37.2578 712.899 35.7598V29.1074H709.332V27.2539H712.899V23.75L715.108 23.1787V27.2539H720.834V29.1074H715.108V35.582C715.108 36.4961 715.35 37.1816 715.832 37.6387C716.323 38.0872 717.042 38.3115 717.99 38.3115C718.396 38.3115 718.841 38.2819 719.323 38.2227C719.806 38.1549 720.309 38.0534 720.834 37.918V39.8223Z" fill="#FF5500"/>
<path d="M487.707 49.7071C488.098 49.3166 488.098 48.6834 487.707 48.2929L481.343 41.9289C480.953 41.5384 480.319 41.5384 479.929 41.9289C479.538 42.3195 479.538 42.9526 479.929 43.3431L485.586 49L479.929 54.6569C479.538 55.0474 479.538 55.6805 479.929 56.0711C480.319 56.4616 480.953 56.4616 481.343 56.0711L487.707 49.7071ZM311 50H487V48H311V50Z" fill="#00B2FF"/>
<path d="M738.707 49.7071C739.098 49.3166 739.098 48.6834 738.707 48.2929L732.343 41.9289C731.953 41.5384 731.319 41.5384 730.929 41.9289C730.538 42.3195 730.538 42.9526 730.929 43.3431L736.586 49L730.929 54.6569C730.538 55.0474 730.538 55.6805 730.929 56.0711C731.319 56.4616 731.953 56.4616 732.343 56.0711L738.707 49.7071ZM582 50H738V48H582V50Z" fill="#FF5500"/>
<path d="M607.838 81.2539L605.984 94H603.306L601.465 88.668L601.097 87.373L600.678 88.7441L598.913 94H596.311L594.47 81.2539H596.628L597.694 89.9121L597.923 91.8418L598.469 90.1533L600.322 84.4277H601.909L603.902 90.0771L604.474 91.7656L604.664 89.9756L605.654 81.2539H607.838ZM610.847 81.2539H612.865L612.929 83.6025C613.682 82.6969 614.423 82.041 615.15 81.6348C615.887 81.2285 616.627 81.0254 617.372 81.0254C618.692 81.0254 619.691 81.4528 620.368 82.3076C621.054 83.1624 621.371 84.432 621.32 86.1162H619.086C619.111 84.999 618.946 84.1908 618.591 83.6914C618.244 83.1836 617.732 82.9297 617.055 82.9297C616.758 82.9297 616.458 82.9847 616.153 83.0947C615.857 83.1963 615.548 83.3656 615.227 83.6025C614.913 83.8311 614.579 84.1273 614.224 84.4912C613.868 84.8551 613.487 85.2952 613.081 85.8115V94H610.847V81.2539ZM635.717 87.5254C635.717 88.5156 635.577 89.4255 635.298 90.2549C635.019 91.0758 634.617 91.7826 634.092 92.375C633.567 92.959 632.928 93.416 632.175 93.7461C631.422 94.0677 630.567 94.2285 629.61 94.2285C628.696 94.2285 627.875 94.0889 627.147 93.8096C626.428 93.5218 625.814 93.1029 625.307 92.5527C624.807 92.0026 624.422 91.3213 624.151 90.5088C623.889 89.6963 623.758 88.7611 623.758 87.7031C623.758 86.7129 623.897 85.8115 624.177 84.999C624.456 84.1781 624.858 83.4756 625.383 82.8916C625.908 82.2992 626.547 81.8421 627.3 81.5205C628.053 81.1904 628.908 81.0254 629.864 81.0254C630.778 81.0254 631.595 81.1693 632.314 81.457C633.042 81.7363 633.656 82.151 634.155 82.7012C634.663 83.2428 635.048 83.9199 635.311 84.7324C635.581 85.5449 635.717 86.4759 635.717 87.5254ZM633.457 87.627C633.457 86.8398 633.368 86.1543 633.19 85.5703C633.021 84.9779 632.776 84.487 632.454 84.0977C632.132 83.6999 631.739 83.4036 631.273 83.209C630.816 83.0059 630.304 82.9043 629.737 82.9043C629.077 82.9043 628.51 83.0355 628.036 83.2979C627.571 83.5518 627.186 83.8945 626.881 84.3262C626.585 84.7578 626.365 85.2614 626.221 85.8369C626.085 86.404 626.018 87.0007 626.018 87.627C626.018 88.4141 626.102 89.1038 626.271 89.6963C626.449 90.2887 626.699 90.7839 627.021 91.1816C627.342 91.571 627.731 91.8672 628.188 92.0703C628.646 92.265 629.162 92.3623 629.737 92.3623C630.397 92.3623 630.96 92.2354 631.426 91.9814C631.9 91.7191 632.285 91.3721 632.581 90.9404C632.886 90.5088 633.106 90.0094 633.241 89.4424C633.385 88.8669 633.457 88.2617 633.457 87.627ZM638.916 81.2539H640.884L640.973 83.3105C641.345 82.8704 641.705 82.5065 642.052 82.2188C642.399 81.9225 642.737 81.6855 643.067 81.5078C643.406 81.3301 643.749 81.2074 644.096 81.1396C644.443 81.0635 644.802 81.0254 645.175 81.0254C646.487 81.0254 647.477 81.4147 648.146 82.1934C648.823 82.9635 649.161 84.1273 649.161 85.6846V94H646.952V85.8623C646.952 84.8636 646.766 84.1273 646.394 83.6533C646.021 83.1709 645.467 82.9297 644.73 82.9297C644.46 82.9297 644.193 82.972 643.931 83.0566C643.677 83.1328 643.41 83.2725 643.131 83.4756C642.852 83.6702 642.547 83.9368 642.217 84.2754C641.895 84.6139 641.531 85.0371 641.125 85.5449V94H638.916V81.2539ZM662.39 83.0566C662.627 83.3529 662.809 83.6999 662.936 84.0977C663.071 84.487 663.139 84.9102 663.139 85.3672C663.139 86.0273 663.016 86.6325 662.771 87.1826C662.534 87.7243 662.195 88.1898 661.755 88.5791C661.315 88.9684 660.786 89.2731 660.168 89.4932C659.559 89.7048 658.886 89.8105 658.149 89.8105C657.616 89.8105 657.117 89.7555 656.651 89.6455C656.186 89.527 655.818 89.3831 655.547 89.2139C655.386 89.4508 655.251 89.6751 655.141 89.8867C655.031 90.0983 654.976 90.3353 654.976 90.5977C654.976 90.9193 655.128 91.1859 655.433 91.3975C655.746 91.609 656.156 91.7233 656.664 91.7402L660.016 91.8672C660.65 91.8841 661.234 91.9645 661.768 92.1084C662.309 92.2523 662.771 92.4596 663.151 92.7305C663.541 93.0013 663.841 93.3356 664.053 93.7334C664.273 94.1312 664.383 94.5924 664.383 95.1172C664.383 95.6842 664.26 96.2217 664.015 96.7295C663.769 97.2373 663.388 97.6816 662.872 98.0625C662.364 98.4518 661.717 98.7607 660.93 98.9893C660.143 99.2178 659.207 99.332 658.124 99.332C657.091 99.332 656.211 99.2474 655.483 99.0781C654.764 98.9173 654.172 98.6888 653.706 98.3926C653.241 98.1048 652.902 97.7578 652.69 97.3516C652.479 96.9538 652.373 96.5137 652.373 96.0312C652.373 95.4134 652.517 94.8717 652.805 94.4062C653.092 93.9408 653.537 93.4922 654.138 93.0605C653.918 92.959 653.727 92.832 653.566 92.6797C653.406 92.5273 653.274 92.3623 653.173 92.1846C653.071 91.9984 652.995 91.8037 652.944 91.6006C652.894 91.3975 652.868 91.1986 652.868 91.0039C652.868 90.4538 652.995 89.9502 653.249 89.4932C653.511 89.0361 653.82 88.6045 654.176 88.1982C654.015 88.0036 653.871 87.8132 653.744 87.627C653.626 87.4408 653.52 87.2419 653.427 87.0303C653.342 86.8102 653.274 86.5775 653.224 86.332C653.181 86.0781 653.16 85.7904 653.16 85.4688C653.16 84.8086 653.279 84.2077 653.516 83.666C653.761 83.1159 654.1 82.6462 654.531 82.2568C654.971 81.8675 655.496 81.5671 656.105 81.3555C656.723 81.1354 657.405 81.0254 658.149 81.0254C658.463 81.0254 658.763 81.0465 659.051 81.0889C659.339 81.1312 659.592 81.1862 659.812 81.2539H664.434V83.0566H662.39ZM654.722 95.8408C654.722 96.4417 655.035 96.8776 655.661 97.1484C656.287 97.4277 657.159 97.5674 658.276 97.5674C658.979 97.5674 659.567 97.5039 660.041 97.377C660.523 97.25 660.909 97.0807 661.196 96.8691C661.493 96.666 661.704 96.429 661.831 96.1582C661.958 95.8958 662.021 95.625 662.021 95.3457C662.021 94.8294 661.81 94.4486 661.387 94.2031C660.964 93.9577 660.316 93.8138 659.444 93.7715L656.118 93.6572C655.839 93.8434 655.606 94.0254 655.42 94.2031C655.242 94.3809 655.103 94.5586 655.001 94.7363C654.899 94.9225 654.827 95.1045 654.785 95.2822C654.743 95.4684 654.722 95.6546 654.722 95.8408ZM655.395 85.418C655.395 85.8242 655.462 86.1966 655.598 86.5352C655.733 86.8737 655.924 87.1615 656.169 87.3984C656.414 87.6354 656.702 87.8216 657.032 87.957C657.371 88.084 657.743 88.1475 658.149 88.1475C658.59 88.1475 658.979 88.0755 659.317 87.9316C659.664 87.7793 659.952 87.5762 660.181 87.3223C660.418 87.0684 660.595 86.7764 660.714 86.4463C660.841 86.1162 660.904 85.7734 660.904 85.418C660.904 85.0117 660.837 84.6393 660.701 84.3008C660.566 83.9622 660.375 83.6745 660.13 83.4375C659.884 83.2005 659.592 83.0186 659.254 82.8916C658.924 82.7562 658.556 82.6885 658.149 82.6885C657.709 82.6885 657.316 82.7646 656.969 82.917C656.63 83.0693 656.342 83.2725 656.105 83.5264C655.877 83.7718 655.699 84.0596 655.572 84.3896C655.454 84.7197 655.395 85.0625 655.395 85.418ZM672.622 81.0254C672.884 81.0254 673.134 81.0804 673.371 81.1904C673.608 81.292 673.815 81.4316 673.993 81.6094C674.171 81.7871 674.311 81.9945 674.412 82.2314C674.522 82.4684 674.577 82.7181 674.577 82.9805C674.577 83.2513 674.522 83.5052 674.412 83.7422C674.311 83.9707 674.171 84.1738 673.993 84.3516C673.815 84.5293 673.608 84.6689 673.371 84.7705C673.134 84.8721 672.884 84.9229 672.622 84.9229C672.351 84.9229 672.097 84.8721 671.86 84.7705C671.632 84.6689 671.429 84.5293 671.251 84.3516C671.073 84.1738 670.934 83.9707 670.832 83.7422C670.73 83.5052 670.68 83.2513 670.68 82.9805C670.68 82.7181 670.73 82.4684 670.832 82.2314C670.934 81.9945 671.073 81.7871 671.251 81.6094C671.429 81.4316 671.632 81.292 671.86 81.1904C672.097 81.0804 672.351 81.0254 672.622 81.0254ZM672.622 90.3311C672.884 90.3311 673.134 90.3861 673.371 90.4961C673.608 90.5977 673.815 90.7373 673.993 90.915C674.171 91.0928 674.311 91.3001 674.412 91.5371C674.522 91.7741 674.577 92.0238 674.577 92.2861C674.577 92.557 674.522 92.8109 674.412 93.0479C674.311 93.2764 674.171 93.4795 673.993 93.6572C673.815 93.835 673.608 93.9746 673.371 94.0762C673.134 94.1777 672.884 94.2285 672.622 94.2285C672.351 94.2285 672.097 94.1777 671.86 94.0762C671.632 93.9746 671.429 93.835 671.251 93.6572C671.073 93.4795 670.934 93.2764 670.832 93.0479C670.73 92.8109 670.68 92.557 670.68 92.2861C670.68 92.0238 670.73 91.7741 670.832 91.5371C670.934 91.3001 671.073 91.0928 671.251 90.915C671.429 90.7373 671.632 90.5977 671.86 90.4961C672.097 90.3861 672.351 90.3311 672.622 90.3311ZM706.366 93.8223C705.867 93.9492 705.351 94.0381 704.817 94.0889C704.284 94.1481 703.743 94.1777 703.192 94.1777C701.593 94.1777 700.399 93.818 699.612 93.0986C698.825 92.3708 698.432 91.2578 698.432 89.7598V83.1074H694.864V81.2539H698.432V77.75L700.641 77.1787V81.2539H706.366V83.1074H700.641V89.582C700.641 90.4961 700.882 91.1816 701.364 91.6387C701.855 92.0872 702.575 92.3115 703.522 92.3115C703.929 92.3115 704.373 92.2819 704.855 92.2227C705.338 92.1549 705.841 92.0534 706.366 91.918V93.8223ZM721.486 87.5254C721.486 88.5156 721.347 89.4255 721.067 90.2549C720.788 91.0758 720.386 91.7826 719.861 92.375C719.337 92.959 718.698 93.416 717.944 93.7461C717.191 94.0677 716.336 94.2285 715.38 94.2285C714.466 94.2285 713.645 94.0889 712.917 93.8096C712.198 93.5218 711.584 93.1029 711.076 92.5527C710.577 92.0026 710.192 91.3213 709.921 90.5088C709.659 89.6963 709.527 88.7611 709.527 87.7031C709.527 86.7129 709.667 85.8115 709.946 84.999C710.226 84.1781 710.628 83.4756 711.152 82.8916C711.677 82.2992 712.316 81.8421 713.069 81.5205C713.823 81.1904 714.677 81.0254 715.634 81.0254C716.548 81.0254 717.365 81.1693 718.084 81.457C718.812 81.7363 719.425 82.151 719.925 82.7012C720.433 83.2428 720.818 83.9199 721.08 84.7324C721.351 85.5449 721.486 86.4759 721.486 87.5254ZM719.227 87.627C719.227 86.8398 719.138 86.1543 718.96 85.5703C718.791 84.9779 718.545 84.487 718.224 84.0977C717.902 83.6999 717.508 83.4036 717.043 83.209C716.586 83.0059 716.074 82.9043 715.507 82.9043C714.847 82.9043 714.28 83.0355 713.806 83.2979C713.34 83.5518 712.955 83.8945 712.65 84.3262C712.354 84.7578 712.134 85.2614 711.99 85.8369C711.855 86.404 711.787 87.0007 711.787 87.627C711.787 88.4141 711.872 89.1038 712.041 89.6963C712.219 90.2887 712.468 90.7839 712.79 91.1816C713.112 91.571 713.501 91.8672 713.958 92.0703C714.415 92.265 714.931 92.3623 715.507 92.3623C716.167 92.3623 716.73 92.2354 717.195 91.9814C717.669 91.7191 718.054 91.3721 718.351 90.9404C718.655 90.5088 718.875 90.0094 719.011 89.4424C719.155 88.8669 719.227 88.2617 719.227 87.627ZM735.781 87.5254C735.781 88.5156 735.642 89.4255 735.362 90.2549C735.083 91.0758 734.681 91.7826 734.156 92.375C733.632 92.959 732.993 93.416 732.239 93.7461C731.486 94.0677 730.631 94.2285 729.675 94.2285C728.761 94.2285 727.94 94.0889 727.212 93.8096C726.493 93.5218 725.879 93.1029 725.371 92.5527C724.872 92.0026 724.487 91.3213 724.216 90.5088C723.953 89.6963 723.822 88.7611 723.822 87.7031C723.822 86.7129 723.962 85.8115 724.241 84.999C724.521 84.1781 724.923 83.4756 725.447 82.8916C725.972 82.2992 726.611 81.8421 727.364 81.5205C728.118 81.1904 728.972 81.0254 729.929 81.0254C730.843 81.0254 731.66 81.1693 732.379 81.457C733.107 81.7363 733.72 82.151 734.22 82.7012C734.728 83.2428 735.113 83.9199 735.375 84.7324C735.646 85.5449 735.781 86.4759 735.781 87.5254ZM733.521 87.627C733.521 86.8398 733.433 86.1543 733.255 85.5703C733.086 84.9779 732.84 84.487 732.519 84.0977C732.197 83.6999 731.803 83.4036 731.338 83.209C730.881 83.0059 730.369 82.9043 729.802 82.9043C729.142 82.9043 728.575 83.0355 728.101 83.2979C727.635 83.5518 727.25 83.8945 726.945 84.3262C726.649 84.7578 726.429 85.2614 726.285 85.8369C726.15 86.404 726.082 87.0007 726.082 87.627C726.082 88.4141 726.167 89.1038 726.336 89.6963C726.514 90.2887 726.763 90.7839 727.085 91.1816C727.407 91.571 727.796 91.8672 728.253 92.0703C728.71 92.265 729.226 92.3623 729.802 92.3623C730.462 92.3623 731.025 92.2354 731.49 91.9814C731.964 91.7191 732.349 91.3721 732.646 90.9404C732.95 90.5088 733.17 90.0094 733.306 89.4424C733.45 88.8669 733.521 88.2617 733.521 87.627ZM763.521 94H761.312V85.8623C761.312 84.8805 761.125 84.1484 760.753 83.666C760.389 83.1751 759.864 82.9297 759.179 82.9297C758.882 82.9297 758.603 82.972 758.341 83.0566C758.087 83.1328 757.82 83.2725 757.541 83.4756C757.262 83.6702 756.957 83.9368 756.627 84.2754C756.297 84.6139 755.916 85.0371 755.484 85.5449V94H753.275V76.0615H755.484V81.2539L755.408 83.2598C755.755 82.8451 756.094 82.498 756.424 82.2188C756.762 81.931 757.097 81.6982 757.427 81.5205C757.765 81.3428 758.108 81.2158 758.455 81.1396C758.802 81.0635 759.162 81.0254 759.534 81.0254C760.804 81.0254 761.785 81.4147 762.479 82.1934C763.174 82.9635 763.521 84.1273 763.521 85.6846V94ZM771.912 83.082H768.142V81.2539H774.146V92.1592H777.942V94H767.723V92.1592H771.912V83.082ZM772.687 75.9092C772.932 75.9092 773.16 75.9557 773.372 76.0488C773.584 76.1335 773.766 76.2562 773.918 76.417C774.079 76.5778 774.201 76.764 774.286 76.9756C774.379 77.1787 774.426 77.403 774.426 77.6484C774.426 77.8854 774.379 78.1097 774.286 78.3213C774.201 78.5329 774.079 78.7191 773.918 78.8799C773.766 79.0407 773.584 79.1676 773.372 79.2607C773.16 79.3454 772.932 79.3877 772.687 79.3877C772.441 79.3877 772.213 79.3454 772.001 79.2607C771.789 79.1676 771.603 79.0407 771.442 78.8799C771.29 78.7191 771.167 78.5329 771.074 78.3213C770.99 78.1097 770.947 77.8854 770.947 77.6484C770.947 77.403 770.99 77.1787 771.074 76.9756C771.167 76.764 771.29 76.5778 771.442 76.417C771.603 76.2562 771.789 76.1335 772.001 76.0488C772.213 75.9557 772.441 75.9092 772.687 75.9092ZM791.044 83.0566C791.281 83.3529 791.463 83.6999 791.59 84.0977C791.725 84.487 791.793 84.9102 791.793 85.3672C791.793 86.0273 791.67 86.6325 791.425 87.1826C791.188 87.7243 790.849 88.1898 790.409 88.5791C789.969 88.9684 789.44 89.2731 788.822 89.4932C788.213 89.7048 787.54 89.8105 786.804 89.8105C786.271 89.8105 785.771 89.7555 785.306 89.6455C784.84 89.527 784.472 89.3831 784.201 89.2139C784.04 89.4508 783.905 89.6751 783.795 89.8867C783.685 90.0983 783.63 90.3353 783.63 90.5977C783.63 90.9193 783.782 91.1859 784.087 91.3975C784.4 91.609 784.811 91.7233 785.318 91.7402L788.67 91.8672C789.305 91.8841 789.889 91.9645 790.422 92.1084C790.964 92.2523 791.425 92.4596 791.806 92.7305C792.195 93.0013 792.495 93.3356 792.707 93.7334C792.927 94.1312 793.037 94.5924 793.037 95.1172C793.037 95.6842 792.914 96.2217 792.669 96.7295C792.424 97.2373 792.043 97.6816 791.526 98.0625C791.019 98.4518 790.371 98.7607 789.584 98.9893C788.797 99.2178 787.862 99.332 786.778 99.332C785.746 99.332 784.866 99.2474 784.138 99.0781C783.418 98.9173 782.826 98.6888 782.36 98.3926C781.895 98.1048 781.556 97.7578 781.345 97.3516C781.133 96.9538 781.027 96.5137 781.027 96.0312C781.027 95.4134 781.171 94.8717 781.459 94.4062C781.747 93.9408 782.191 93.4922 782.792 93.0605C782.572 92.959 782.382 92.832 782.221 92.6797C782.06 92.5273 781.929 92.3623 781.827 92.1846C781.726 91.9984 781.649 91.8037 781.599 91.6006C781.548 91.3975 781.522 91.1986 781.522 91.0039C781.522 90.4538 781.649 89.9502 781.903 89.4932C782.166 89.0361 782.475 88.6045 782.83 88.1982C782.669 88.0036 782.525 87.8132 782.398 87.627C782.28 87.4408 782.174 87.2419 782.081 87.0303C781.996 86.8102 781.929 86.5775 781.878 86.332C781.836 86.0781 781.814 85.7904 781.814 85.4688C781.814 84.8086 781.933 84.2077 782.17 83.666C782.415 83.1159 782.754 82.6462 783.186 82.2568C783.626 81.8675 784.15 81.5671 784.76 81.3555C785.378 81.1354 786.059 81.0254 786.804 81.0254C787.117 81.0254 787.417 81.0465 787.705 81.0889C787.993 81.1312 788.247 81.1862 788.467 81.2539H793.088V83.0566H791.044ZM783.376 95.8408C783.376 96.4417 783.689 96.8776 784.315 97.1484C784.942 97.4277 785.813 97.5674 786.931 97.5674C787.633 97.5674 788.221 97.5039 788.695 97.377C789.178 97.25 789.563 97.0807 789.851 96.8691C790.147 96.666 790.358 96.429 790.485 96.1582C790.612 95.8958 790.676 95.625 790.676 95.3457C790.676 94.8294 790.464 94.4486 790.041 94.2031C789.618 93.9577 788.97 93.8138 788.099 93.7715L784.772 93.6572C784.493 93.8434 784.26 94.0254 784.074 94.2031C783.896 94.3809 783.757 94.5586 783.655 94.7363C783.554 94.9225 783.482 95.1045 783.439 95.2822C783.397 95.4684 783.376 95.6546 783.376 95.8408ZM784.049 85.418C784.049 85.8242 784.117 86.1966 784.252 86.5352C784.387 86.8737 784.578 87.1615 784.823 87.3984C785.069 87.6354 785.356 87.8216 785.687 87.957C786.025 88.084 786.397 88.1475 786.804 88.1475C787.244 88.1475 787.633 88.0755 787.972 87.9316C788.319 87.7793 788.606 87.5762 788.835 87.3223C789.072 87.0684 789.25 86.7764 789.368 86.4463C789.495 86.1162 789.559 85.7734 789.559 85.418C789.559 85.0117 789.491 84.6393 789.355 84.3008C789.22 83.9622 789.03 83.6745 788.784 83.4375C788.539 83.2005 788.247 83.0186 787.908 82.8916C787.578 82.7562 787.21 82.6885 786.804 82.6885C786.364 82.6885 785.97 82.7646 785.623 82.917C785.285 83.0693 784.997 83.2725 784.76 83.5264C784.531 83.7718 784.354 84.0596 784.227 84.3896C784.108 84.7197 784.049 85.0625 784.049 85.418ZM806.405 94H804.196V85.8623C804.196 84.8805 804.01 84.1484 803.638 83.666C803.274 83.1751 802.749 82.9297 802.063 82.9297C801.767 82.9297 801.488 82.972 801.226 83.0566C800.972 83.1328 800.705 83.2725 800.426 83.4756C800.146 83.6702 799.842 83.9368 799.512 84.2754C799.182 84.6139 798.801 85.0371 798.369 85.5449V94H796.16V76.0615H798.369V81.2539L798.293 83.2598C798.64 82.8451 798.979 82.498 799.309 82.2188C799.647 81.931 799.981 81.6982 800.312 81.5205C800.65 81.3428 800.993 81.2158 801.34 81.1396C801.687 81.0635 802.047 81.0254 802.419 81.0254C803.688 81.0254 804.67 81.4147 805.364 82.1934C806.058 82.9635 806.405 84.1273 806.405 85.6846V94Z" fill="#FF0000"/>
<path d="M589 87.9998L579.205 94.1143L578.807 82.5741L589 87.9998ZM549 58.9999C549 67.6108 551.653 74.4916 556.772 79.3052C561.904 84.1304 569.642 86.9974 580.036 87.3102L579.976 89.3093C569.262 88.9869 560.996 86.0218 555.402 80.7623C549.796 75.4912 547 68.0346 547 58.9999L549 58.9999Z" fill="#FF0000"/>
<path d="M773.606 46.7988H762.688V44.9326H773.606V46.7988ZM773.606 51.2168H762.688V49.3506H773.606V51.2168ZM802.069 49.96C802.069 50.6878 801.921 51.3734 801.625 52.0166C801.329 52.6514 800.884 53.21 800.292 53.6924C799.7 54.1663 798.955 54.543 798.058 54.8223C797.16 55.0931 796.115 55.2285 794.922 55.2285C794.262 55.2285 793.669 55.2074 793.145 55.165C792.62 55.1227 792.129 55.0677 791.672 55V53.0195C792.197 53.1126 792.751 53.1846 793.335 53.2354C793.919 53.2861 794.516 53.3115 795.125 53.3115C795.954 53.3115 796.661 53.2396 797.245 53.0957C797.838 52.9434 798.32 52.7275 798.692 52.4482C799.065 52.1689 799.336 51.8304 799.505 51.4326C799.674 51.0348 799.759 50.5863 799.759 50.0869C799.759 49.6299 799.657 49.2321 799.454 48.8936C799.251 48.555 798.963 48.2715 798.591 48.043C798.227 47.8145 797.787 47.6452 797.271 47.5352C796.763 47.4167 796.204 47.3574 795.595 47.3574H793.703V45.542H795.62C796.119 45.542 796.572 45.4785 796.979 45.3516C797.393 45.2161 797.744 45.0257 798.032 44.7803C798.328 44.5348 798.553 44.2344 798.705 43.8789C798.866 43.515 798.946 43.1045 798.946 42.6475C798.946 41.7588 798.675 41.1113 798.134 40.7051C797.592 40.2988 796.797 40.0957 795.747 40.0957C795.188 40.0957 794.613 40.1507 794.021 40.2607C793.428 40.3708 792.793 40.5358 792.116 40.7559V38.8262C792.404 38.7246 792.709 38.6357 793.03 38.5596C793.36 38.4749 793.686 38.4072 794.008 38.3564C794.338 38.2972 794.664 38.2549 794.985 38.2295C795.307 38.1956 795.616 38.1787 795.912 38.1787C796.792 38.1787 797.567 38.276 798.235 38.4707C798.904 38.6569 799.463 38.9277 799.911 39.2832C800.36 39.6387 800.698 40.0703 800.927 40.5781C801.155 41.0859 801.27 41.6572 801.27 42.292C801.27 43.2399 801.024 44.0355 800.533 44.6787C800.051 45.3219 799.386 45.834 798.54 46.2148C798.972 46.2826 799.395 46.418 799.81 46.6211C800.233 46.8242 800.609 47.0866 800.939 47.4082C801.278 47.7214 801.549 48.0938 801.752 48.5254C801.964 48.957 802.069 49.4352 802.069 49.96Z" fill="black"/>
</g>
<defs>
<clipPath id="clip0_1135_1533">
<rect width="809" height="101" fill="white"/>
</clipPath>
</defs>
</svg>
