<svg width="570" height="260" viewBox="0 0 570 260" fill="none" xmlns="http://www.w3.org/2000/svg">
<g clip-path="url(#clip0_6290_5096)">
<rect width="570" height="260" fill="white"/>
<path d="M257 24C258.596 24.163 264.082 25.2992 264.082 28.5471C264.082 30.373 264.082 127.205 264.082 130.453C264.082 133.701 270 135 270 135" stroke="#999999" stroke-width="2" stroke-linecap="round"/>
<path d="M257 246C258.596 245.837 264.082 244.701 264.082 241.453C264.082 239.627 264.082 142.795 264.082 139.547C264.082 136.299 270 135 270 135" stroke="#999999" stroke-width="2" stroke-linecap="round"/>
<line x1="185.5" y1="20" x2="185.5" y2="245" stroke="#D2D2D2"/>
<line x1="18" y1="78.5" x2="240" y2="78.5" stroke="#D2D2D2"/>
<line x1="18" y1="134.5" x2="240" y2="134.5" stroke="#D2D2D2"/>
<line x1="74.5" y1="21" x2="74.5" y2="245" stroke="#D2D2D2"/>
<line x1="129.5" y1="21" x2="129.5" y2="245" stroke="#D2D2D2"/>
<path d="M53.2964 117.237H41.27V114.864H46.1919V100.889L41.6069 103.38L40.6694 101.212L46.7632 98.0035H49.019V114.864H53.2964V117.237Z" fill="#FF5500"/>
<path d="M108.405 117.237H96.379V114.864H101.301V100.889L96.7159 103.38L95.7784 101.212L101.872 98.0035H104.128V114.864H108.405V117.237Z" fill="#FF5500"/>
<path d="M162.974 61.8057H150.948V59.4326H155.87V45.458L151.285 47.9482L150.347 45.7803L156.441 42.5723H158.697V59.4326H162.974V61.8057Z" fill="#FF5500"/>
<path d="M219.224 52.5625C219.224 54.0273 219.078 55.3652 218.785 56.5762C218.492 57.7773 218.047 58.8125 217.452 59.6816C216.856 60.541 216.114 61.21 215.225 61.6885C214.346 62.1572 213.311 62.3916 212.12 62.3916C211.094 62.3916 210.161 62.2012 209.322 61.8203C208.482 61.4297 207.764 60.834 207.168 60.0332C206.573 59.2324 206.114 58.2119 205.791 56.9717C205.469 55.7314 205.308 54.2617 205.308 52.5625C205.308 51.0977 205.454 49.7598 205.747 48.5488C206.05 47.3379 206.495 46.3027 207.08 45.4434C207.676 44.5742 208.418 43.9053 209.307 43.4365C210.196 42.958 211.231 42.7188 212.412 42.7188C213.438 42.7188 214.37 42.9141 215.21 43.3047C216.05 43.6855 216.768 44.2812 217.364 45.0918C217.959 45.8926 218.418 46.9131 218.741 48.1533C219.063 49.3936 219.224 50.8633 219.224 52.5625ZM216.646 52.6504C216.646 52.3184 216.631 51.9912 216.602 51.6689C216.582 51.3369 216.558 51.0146 216.529 50.7021L208.428 56.7227C208.575 57.2305 208.76 57.6992 208.985 58.1289C209.209 58.5586 209.478 58.9297 209.79 59.2422C210.113 59.5449 210.474 59.7842 210.874 59.96C211.285 60.126 211.748 60.209 212.266 60.209C212.93 60.209 213.531 60.0479 214.068 59.7256C214.615 59.4033 215.078 58.9248 215.459 58.29C215.84 57.6553 216.133 56.8691 216.338 55.9316C216.543 54.9844 216.646 53.8906 216.646 52.6504ZM207.886 52.4746C207.886 52.7773 207.886 53.0801 207.886 53.3828C207.896 53.6855 207.915 53.9785 207.945 54.2617L216.045 48.2705C215.899 47.7725 215.713 47.3184 215.489 46.9082C215.264 46.498 214.995 46.1465 214.683 45.8535C214.37 45.5508 214.014 45.3164 213.614 45.1504C213.213 44.9844 212.764 44.9014 212.266 44.9014C211.602 44.9014 210.996 45.0625 210.45 45.3848C209.912 45.707 209.453 46.1904 209.073 46.835C208.692 47.4697 208.399 48.2607 208.194 49.208C207.989 50.1455 207.886 51.2344 207.886 52.4746Z" fill="#CCCCCC"/>
<path d="M219.224 163.24C219.224 164.705 219.078 166.043 218.785 167.254C218.492 168.455 218.047 169.49 217.452 170.359C216.856 171.219 216.114 171.888 215.225 172.366C214.346 172.835 213.311 173.069 212.12 173.069C211.094 173.069 210.161 172.879 209.322 172.498C208.482 172.107 207.764 171.512 207.168 170.711C206.573 169.91 206.114 168.89 205.791 167.649C205.469 166.409 205.308 164.939 205.308 163.24C205.308 161.775 205.454 160.438 205.747 159.227C206.05 158.016 206.495 156.98 207.08 156.121C207.676 155.252 208.418 154.583 209.307 154.114C210.196 153.636 211.231 153.396 212.412 153.396C213.438 153.396 214.37 153.592 215.21 153.982C216.05 154.363 216.768 154.959 217.364 155.77C217.959 156.57 218.418 157.591 218.741 158.831C219.063 160.071 219.224 161.541 219.224 163.24ZM216.646 163.328C216.646 162.996 216.631 162.669 216.602 162.347C216.582 162.015 216.558 161.692 216.529 161.38L208.428 167.4C208.575 167.908 208.76 168.377 208.985 168.807C209.209 169.236 209.478 169.607 209.79 169.92C210.113 170.223 210.474 170.462 210.874 170.638C211.285 170.804 211.748 170.887 212.266 170.887C212.93 170.887 213.531 170.726 214.068 170.403C214.615 170.081 215.078 169.603 215.459 168.968C215.84 168.333 216.133 167.547 216.338 166.609C216.543 165.662 216.646 164.568 216.646 163.328ZM207.886 163.152C207.886 163.455 207.886 163.758 207.886 164.061C207.896 164.363 207.915 164.656 207.945 164.939L216.045 158.948C215.899 158.45 215.713 157.996 215.489 157.586C215.264 157.176 214.995 156.824 214.683 156.531C214.37 156.229 214.014 155.994 213.614 155.828C213.213 155.662 212.764 155.579 212.266 155.579C211.602 155.579 210.996 155.74 210.45 156.062C209.912 156.385 209.453 156.868 209.073 157.513C208.692 158.147 208.399 158.938 208.194 159.886C207.989 160.823 207.886 161.912 207.886 163.152Z" fill="#CCCCCC"/>
<path d="M109.006 217.89C109.006 219.354 108.859 220.692 108.567 221.903C108.274 223.104 107.829 224.14 107.234 225.009C106.638 225.868 105.896 226.537 105.007 227.016C104.128 227.484 103.093 227.719 101.901 227.719C100.876 227.719 99.9435 227.528 99.1036 227.147C98.2638 226.757 97.546 226.161 96.9503 225.36C96.3546 224.559 95.8956 223.539 95.5734 222.299C95.2511 221.058 95.09 219.589 95.09 217.89C95.09 216.425 95.2365 215.087 95.5294 213.876C95.8322 212.665 96.2765 211.63 96.8624 210.77C97.4581 209.901 98.2003 209.232 99.089 208.764C99.9777 208.285 101.013 208.046 102.194 208.046C103.22 208.046 104.152 208.241 104.992 208.632C105.832 209.013 106.55 209.608 107.146 210.419C107.741 211.22 108.2 212.24 108.523 213.48C108.845 214.721 109.006 216.19 109.006 217.89ZM106.428 217.977C106.428 217.645 106.413 217.318 106.384 216.996C106.364 216.664 106.34 216.342 106.311 216.029L98.2101 222.05C98.3566 222.557 98.5421 223.026 98.7667 223.456C98.9913 223.886 99.2599 224.257 99.5724 224.569C99.8947 224.872 100.256 225.111 100.656 225.287C101.067 225.453 101.53 225.536 102.048 225.536C102.712 225.536 103.313 225.375 103.85 225.053C104.397 224.73 104.86 224.252 105.241 223.617C105.622 222.982 105.915 222.196 106.12 221.259C106.325 220.311 106.428 219.218 106.428 217.977ZM97.6681 217.802C97.6681 218.104 97.6681 218.407 97.6681 218.71C97.6779 219.013 97.6974 219.306 97.7267 219.589L105.827 213.598C105.681 213.099 105.495 212.645 105.271 212.235C105.046 211.825 104.777 211.474 104.465 211.181C104.152 210.878 103.796 210.643 103.396 210.477C102.995 210.311 102.546 210.228 102.048 210.228C101.384 210.228 100.778 210.39 100.232 210.712C99.6945 211.034 99.2355 211.517 98.8546 212.162C98.4738 212.797 98.1808 213.588 97.9757 214.535C97.7706 215.473 97.6681 216.561 97.6681 217.802Z" fill="#CCCCCC"/>
<path d="M163.575 164.24C163.575 165.705 163.428 167.043 163.135 168.254C162.842 169.455 162.398 170.49 161.802 171.359C161.207 172.219 160.464 172.888 159.576 173.366C158.697 173.835 157.662 174.069 156.47 174.069C155.445 174.069 154.512 173.879 153.672 173.498C152.833 173.107 152.115 172.512 151.519 171.711C150.923 170.91 150.464 169.89 150.142 168.649C149.82 167.409 149.659 165.939 149.659 164.24C149.659 162.775 149.805 161.438 150.098 160.227C150.401 159.016 150.845 157.98 151.431 157.121C152.027 156.252 152.769 155.583 153.658 155.114C154.546 154.636 155.582 154.396 156.763 154.396C157.789 154.396 158.721 154.592 159.561 154.982C160.401 155.363 161.119 155.959 161.714 156.77C162.31 157.57 162.769 158.591 163.091 159.831C163.414 161.071 163.575 162.541 163.575 164.24ZM160.997 164.328C160.997 163.996 160.982 163.669 160.953 163.347C160.933 163.015 160.909 162.692 160.879 162.38L152.779 168.4C152.925 168.908 153.111 169.377 153.335 169.807C153.56 170.236 153.829 170.607 154.141 170.92C154.463 171.223 154.825 171.462 155.225 171.638C155.635 171.804 156.099 171.887 156.617 171.887C157.281 171.887 157.881 171.726 158.418 171.403C158.965 171.081 159.429 170.603 159.81 169.968C160.191 169.333 160.484 168.547 160.689 167.609C160.894 166.662 160.997 165.568 160.997 164.328ZM152.237 164.152C152.237 164.455 152.237 164.758 152.237 165.061C152.247 165.363 152.266 165.656 152.295 165.939L160.396 159.948C160.25 159.45 160.064 158.996 159.839 158.586C159.615 158.176 159.346 157.824 159.034 157.531C158.721 157.229 158.365 156.994 157.964 156.828C157.564 156.662 157.115 156.579 156.617 156.579C155.953 156.579 155.347 156.74 154.8 157.062C154.263 157.385 153.804 157.868 153.423 158.513C153.042 159.147 152.75 159.938 152.544 160.886C152.339 161.823 152.237 162.912 152.237 164.152Z" fill="#CCCCCC"/>
<path d="M164.115 217.89C164.115 219.354 163.969 220.692 163.676 221.903C163.383 223.104 162.938 224.14 162.343 225.009C161.747 225.868 161.005 226.537 160.116 227.016C159.237 227.484 158.202 227.719 157.01 227.719C155.985 227.719 155.052 227.528 154.213 227.147C153.373 226.757 152.655 226.161 152.059 225.36C151.464 224.559 151.005 223.539 150.682 222.299C150.36 221.058 150.199 219.589 150.199 217.89C150.199 216.425 150.345 215.087 150.638 213.876C150.941 212.665 151.385 211.63 151.971 210.77C152.567 209.901 153.309 209.232 154.198 208.764C155.087 208.285 156.122 208.046 157.303 208.046C158.329 208.046 159.261 208.241 160.101 208.632C160.941 209.013 161.659 209.608 162.255 210.419C162.85 211.22 163.309 212.24 163.632 213.48C163.954 214.721 164.115 216.19 164.115 217.89ZM161.537 217.977C161.537 217.645 161.522 217.318 161.493 216.996C161.473 216.664 161.449 216.342 161.42 216.029L153.319 222.05C153.466 222.557 153.651 223.026 153.876 223.456C154.1 223.886 154.369 224.257 154.681 224.569C155.004 224.872 155.365 225.111 155.765 225.287C156.176 225.453 156.639 225.536 157.157 225.536C157.821 225.536 158.422 225.375 158.959 225.053C159.506 224.73 159.969 224.252 160.35 223.617C160.731 222.982 161.024 222.196 161.229 221.259C161.434 220.311 161.537 219.218 161.537 217.977ZM152.777 217.802C152.777 218.104 152.777 218.407 152.777 218.71C152.787 219.013 152.806 219.306 152.836 219.589L160.936 213.598C160.79 213.099 160.604 212.645 160.38 212.235C160.155 211.825 159.886 211.474 159.574 211.181C159.261 210.878 158.905 210.643 158.505 210.477C158.104 210.311 157.655 210.228 157.157 210.228C156.493 210.228 155.887 210.39 155.341 210.712C154.803 211.034 154.344 211.517 153.964 212.162C153.583 212.797 153.29 213.588 153.085 214.535C152.88 215.473 152.777 216.561 152.777 217.802Z" fill="#CCCCCC"/>
<path d="M219.224 107.672C219.224 109.136 219.078 110.474 218.785 111.685C218.492 112.886 218.047 113.922 217.452 114.791C216.856 115.65 216.114 116.319 215.225 116.797C214.346 117.266 213.311 117.501 212.12 117.501C211.094 117.501 210.161 117.31 209.322 116.929C208.482 116.539 207.764 115.943 207.168 115.142C206.573 114.341 206.114 113.321 205.791 112.081C205.469 110.84 205.308 109.371 205.308 107.672C205.308 106.207 205.454 104.869 205.747 103.658C206.05 102.447 206.495 101.412 207.08 100.552C207.676 99.6832 208.418 99.0143 209.307 98.5455C210.196 98.067 211.231 97.8278 212.412 97.8278C213.438 97.8278 214.37 98.0231 215.21 98.4137C216.05 98.7946 216.768 99.3903 217.364 100.201C217.959 101.002 218.418 102.022 218.741 103.262C219.063 104.503 219.224 105.972 219.224 107.672ZM216.646 107.759C216.646 107.427 216.631 107.1 216.602 106.778C216.582 106.446 216.558 106.124 216.529 105.811L208.428 111.832C208.575 112.339 208.76 112.808 208.985 113.238C209.209 113.668 209.478 114.039 209.79 114.351C210.113 114.654 210.474 114.893 210.874 115.069C211.285 115.235 211.748 115.318 212.266 115.318C212.93 115.318 213.531 115.157 214.068 114.835C214.615 114.512 215.078 114.034 215.459 113.399C215.84 112.764 216.133 111.978 216.338 111.041C216.543 110.093 216.646 109 216.646 107.759ZM207.886 107.584C207.886 107.886 207.886 108.189 207.886 108.492C207.896 108.795 207.915 109.088 207.945 109.371L216.045 103.38C215.899 102.881 215.713 102.427 215.489 102.017C215.264 101.607 214.995 101.255 214.683 100.963C214.37 100.66 214.014 100.425 213.614 100.259C213.213 100.093 212.764 100.01 212.266 100.01C211.602 100.01 210.996 100.172 210.45 100.494C209.912 100.816 209.453 101.299 209.073 101.944C208.692 102.579 208.399 103.37 208.194 104.317C207.989 105.255 207.886 106.343 207.886 107.584Z" fill="#CCCCCC"/>
<path d="M219.224 218.349C219.224 219.814 219.078 221.152 218.785 222.363C218.492 223.564 218.047 224.599 217.452 225.468C216.856 226.328 216.114 226.997 215.225 227.475C214.346 227.944 213.311 228.178 212.12 228.178C211.094 228.178 210.161 227.988 209.322 227.607C208.482 227.216 207.764 226.621 207.168 225.82C206.573 225.019 206.114 223.999 205.791 222.758C205.469 221.518 205.308 220.048 205.308 218.349C205.308 216.884 205.454 215.547 205.747 214.336C206.05 213.125 206.495 212.089 207.08 211.23C207.676 210.361 208.418 209.692 209.307 209.223C210.196 208.745 211.231 208.505 212.412 208.505C213.438 208.505 214.37 208.701 215.21 209.091C216.05 209.472 216.768 210.068 217.364 210.879C217.959 211.679 218.418 212.7 218.741 213.94C219.063 215.18 219.224 216.65 219.224 218.349ZM216.646 218.437C216.646 218.105 216.631 217.778 216.602 217.456C216.582 217.124 216.558 216.801 216.529 216.489L208.428 222.509C208.575 223.017 208.76 223.486 208.985 223.916C209.209 224.345 209.478 224.716 209.79 225.029C210.113 225.332 210.474 225.571 210.874 225.747C211.285 225.913 211.748 225.996 212.266 225.996C212.93 225.996 213.531 225.835 214.068 225.512C214.615 225.19 215.078 224.712 215.459 224.077C215.84 223.442 216.133 222.656 216.338 221.718C216.543 220.771 216.646 219.677 216.646 218.437ZM207.886 218.261C207.886 218.564 207.886 218.867 207.886 219.17C207.896 219.472 207.915 219.765 207.945 220.048L216.045 214.057C215.899 213.559 215.713 213.105 215.489 212.695C215.264 212.285 214.995 211.933 214.683 211.64C214.37 211.338 214.014 211.103 213.614 210.937C213.213 210.771 212.764 210.688 212.266 210.688C211.602 210.688 210.996 210.849 210.45 211.172C209.912 211.494 209.453 211.977 209.073 212.622C208.692 213.256 208.399 214.047 208.194 214.995C207.989 215.932 207.886 217.021 207.886 218.261Z" fill="#CCCCCC"/>
<path d="M53.897 163.781C53.897 165.245 53.7505 166.583 53.4575 167.794C53.1646 168.995 52.7202 170.031 52.1245 170.9C51.5288 171.759 50.7866 172.428 49.8979 172.906C49.019 173.375 47.9839 173.61 46.7925 173.61C45.7671 173.61 44.8345 173.419 43.9946 173.038C43.1548 172.648 42.437 172.052 41.8413 171.251C41.2456 170.45 40.7866 169.43 40.4644 168.19C40.1421 166.949 39.981 165.48 39.981 163.781C39.981 162.316 40.1274 160.978 40.4204 159.767C40.7231 158.556 41.1675 157.521 41.7534 156.661C42.3491 155.792 43.0913 155.123 43.98 154.655C44.8687 154.176 45.9038 153.937 47.0854 153.937C48.1108 153.937 49.0435 154.132 49.8833 154.523C50.7231 154.904 51.4409 155.499 52.0366 156.31C52.6323 157.111 53.0913 158.131 53.4136 159.371C53.7358 160.612 53.897 162.081 53.897 163.781ZM51.3188 163.868C51.3188 163.536 51.3042 163.209 51.2749 162.887C51.2554 162.555 51.231 162.233 51.2017 161.92L43.1011 167.941C43.2476 168.448 43.4331 168.917 43.6577 169.347C43.8823 169.777 44.1509 170.148 44.4634 170.46C44.7856 170.763 45.147 171.002 45.5474 171.178C45.9575 171.344 46.4214 171.427 46.939 171.427C47.603 171.427 48.2036 171.266 48.7407 170.944C49.2876 170.621 49.7515 170.143 50.1323 169.508C50.5132 168.873 50.8062 168.087 51.0112 167.15C51.2163 166.202 51.3188 165.109 51.3188 163.868ZM42.5591 163.693C42.5591 163.995 42.5591 164.298 42.5591 164.601C42.5688 164.904 42.5884 165.197 42.6177 165.48L50.7183 159.489C50.5718 158.99 50.3862 158.536 50.1616 158.126C49.937 157.716 49.6685 157.365 49.356 157.072C49.0435 156.769 48.687 156.534 48.2866 156.368C47.8862 156.202 47.437 156.119 46.939 156.119C46.2749 156.119 45.6694 156.281 45.1226 156.603C44.5854 156.925 44.1265 157.408 43.7456 158.053C43.3647 158.688 43.0718 159.479 42.8667 160.426C42.6616 161.364 42.5591 162.452 42.5591 163.693Z" fill="#CCCCCC"/>
<path d="M108.575 52.5625C108.575 54.0273 108.428 55.3652 108.135 56.5762C107.842 57.7773 107.398 58.8125 106.802 59.6816C106.207 60.541 105.464 61.21 104.576 61.6885C103.697 62.1572 102.662 62.3916 101.47 62.3916C100.445 62.3916 99.5122 62.2012 98.6724 61.8203C97.8325 61.4297 97.1147 60.834 96.519 60.0332C95.9233 59.2324 95.4644 58.2119 95.1421 56.9717C94.8198 55.7314 94.6587 54.2617 94.6587 52.5625C94.6587 51.0977 94.8052 49.7598 95.0981 48.5488C95.4009 47.3379 95.8452 46.3027 96.4312 45.4434C97.0269 44.5742 97.769 43.9053 98.6577 43.4365C99.5464 42.958 100.582 42.7188 101.763 42.7188C102.789 42.7188 103.721 42.9141 104.561 43.3047C105.401 43.6855 106.119 44.2812 106.714 45.0918C107.31 45.8926 107.769 46.9131 108.091 48.1533C108.414 49.3936 108.575 50.8633 108.575 52.5625ZM105.997 52.6504C105.997 52.3184 105.982 51.9912 105.953 51.6689C105.933 51.3369 105.909 51.0146 105.879 50.7021L97.7788 56.7227C97.9253 57.2305 98.1108 57.6992 98.3354 58.1289C98.5601 58.5586 98.8286 58.9297 99.1411 59.2422C99.4634 59.5449 99.8247 59.7842 100.225 59.96C100.635 60.126 101.099 60.209 101.617 60.209C102.281 60.209 102.881 60.0479 103.418 59.7256C103.965 59.4033 104.429 58.9248 104.81 58.29C105.191 57.6553 105.484 56.8691 105.689 55.9316C105.894 54.9844 105.997 53.8906 105.997 52.6504ZM97.2368 52.4746C97.2368 52.7773 97.2368 53.0801 97.2368 53.3828C97.2466 53.6855 97.2661 53.9785 97.2954 54.2617L105.396 48.2705C105.25 47.7725 105.064 47.3184 104.839 46.9082C104.615 46.498 104.346 46.1465 104.034 45.8535C103.721 45.5508 103.365 45.3164 102.964 45.1504C102.564 44.9844 102.115 44.9014 101.617 44.9014C100.953 44.9014 100.347 45.0625 99.8003 45.3848C99.2632 45.707 98.8042 46.1904 98.4233 46.835C98.0425 47.4697 97.7495 48.2607 97.5444 49.208C97.3394 50.1455 97.2368 51.2344 97.2368 52.4746Z" fill="#CCCCCC"/>
<path d="M53.5747 52.5625C53.5747 54.0273 53.4282 55.3652 53.1353 56.5762C52.8423 57.7773 52.3979 58.8125 51.8022 59.6816C51.2065 60.541 50.4644 61.21 49.5757 61.6885C48.6968 62.1572 47.6616 62.3916 46.4702 62.3916C45.4448 62.3916 44.5122 62.2012 43.6724 61.8203C42.8325 61.4297 42.1147 60.834 41.519 60.0332C40.9233 59.2324 40.4644 58.2119 40.1421 56.9717C39.8198 55.7314 39.6587 54.2617 39.6587 52.5625C39.6587 51.0977 39.8052 49.7598 40.0981 48.5488C40.4009 47.3379 40.8452 46.3027 41.4312 45.4434C42.0269 44.5742 42.769 43.9053 43.6577 43.4365C44.5464 42.958 45.5815 42.7188 46.7632 42.7188C47.7886 42.7188 48.7212 42.9141 49.561 43.3047C50.4009 43.6855 51.1187 44.2812 51.7144 45.0918C52.3101 45.8926 52.769 46.9131 53.0913 48.1533C53.4136 49.3936 53.5747 50.8633 53.5747 52.5625ZM50.9966 52.6504C50.9966 52.3184 50.9819 51.9912 50.9526 51.6689C50.9331 51.3369 50.9087 51.0146 50.8794 50.7021L42.7788 56.7227C42.9253 57.2305 43.1108 57.6992 43.3354 58.1289C43.5601 58.5586 43.8286 58.9297 44.1411 59.2422C44.4634 59.5449 44.8247 59.7842 45.2251 59.96C45.6353 60.126 46.0991 60.209 46.6167 60.209C47.2808 60.209 47.8813 60.0479 48.4185 59.7256C48.9653 59.4033 49.4292 58.9248 49.8101 58.29C50.1909 57.6553 50.4839 56.8691 50.689 55.9316C50.894 54.9844 50.9966 53.8906 50.9966 52.6504ZM42.2368 52.4746C42.2368 52.7773 42.2368 53.0801 42.2368 53.3828C42.2466 53.6855 42.2661 53.9785 42.2954 54.2617L50.396 48.2705C50.2495 47.7725 50.064 47.3184 49.8394 46.9082C49.6147 46.498 49.3462 46.1465 49.0337 45.8535C48.7212 45.5508 48.3647 45.3164 47.9644 45.1504C47.564 44.9844 47.1147 44.9014 46.6167 44.9014C45.9526 44.9014 45.3472 45.0625 44.8003 45.3848C44.2632 45.707 43.8042 46.1904 43.4233 46.835C43.0425 47.4697 42.7495 48.2607 42.5444 49.208C42.3394 50.1455 42.2368 51.2344 42.2368 52.4746Z" fill="#CCCCCC"/>
<path d="M53.897 217.89C53.897 219.354 53.7505 220.692 53.4575 221.903C53.1646 223.104 52.7202 224.14 52.1245 225.009C51.5288 225.868 50.7866 226.537 49.8979 227.016C49.019 227.484 47.9839 227.719 46.7925 227.719C45.7671 227.719 44.8345 227.528 43.9946 227.147C43.1548 226.757 42.437 226.161 41.8413 225.36C41.2456 224.559 40.7866 223.539 40.4644 222.299C40.1421 221.058 39.981 219.589 39.981 217.89C39.981 216.425 40.1274 215.087 40.4204 213.876C40.7231 212.665 41.1675 211.63 41.7534 210.77C42.3491 209.901 43.0913 209.232 43.98 208.764C44.8687 208.285 45.9038 208.046 47.0854 208.046C48.1108 208.046 49.0435 208.241 49.8833 208.632C50.7231 209.013 51.4409 209.608 52.0366 210.419C52.6323 211.22 53.0913 212.24 53.4136 213.48C53.7358 214.721 53.897 216.19 53.897 217.89ZM51.3188 217.977C51.3188 217.645 51.3042 217.318 51.2749 216.996C51.2554 216.664 51.231 216.342 51.2017 216.029L43.1011 222.05C43.2476 222.557 43.4331 223.026 43.6577 223.456C43.8823 223.886 44.1509 224.257 44.4634 224.569C44.7856 224.872 45.147 225.111 45.5474 225.287C45.9575 225.453 46.4214 225.536 46.939 225.536C47.603 225.536 48.2036 225.375 48.7407 225.053C49.2876 224.73 49.7515 224.252 50.1323 223.617C50.5132 222.982 50.8062 222.196 51.0112 221.259C51.2163 220.311 51.3188 219.218 51.3188 217.977ZM42.5591 217.802C42.5591 218.104 42.5591 218.407 42.5591 218.71C42.5688 219.013 42.5884 219.306 42.6177 219.589L50.7183 213.598C50.5718 213.099 50.3862 212.645 50.1616 212.235C49.937 211.825 49.6685 211.474 49.356 211.181C49.0435 210.878 48.687 210.643 48.2866 210.477C47.8862 210.311 47.437 210.228 46.939 210.228C46.2749 210.228 45.6694 210.39 45.1226 210.712C44.5854 211.034 44.1265 211.517 43.7456 212.162C43.3647 212.797 43.0718 213.588 42.8667 214.535C42.6616 215.473 42.5591 216.561 42.5591 217.802Z" fill="#CCCCCC"/>
<path d="M163.514 117.237H151.488V114.864H156.41V100.889L151.825 103.38L150.887 101.212L156.981 98.0035H159.237V114.864H163.514V117.237Z" fill="#FF5500"/>
<path d="M107.974 173.346H95.9478V170.973H100.87V156.998L96.2847 159.489L95.3472 157.321L101.441 154.113H103.697V170.973H107.974V173.346Z" fill="#FF5500"/>
<rect x="18" y="22" width="224" height="224" rx="8" stroke="black" stroke-width="4"/>
<line x1="20" y1="189.5" x2="240" y2="189.5" stroke="#D2D2D2"/>
<path opacity="0.5" d="M52.1025 7.98535C52.1025 9.05957 51.9951 10.0407 51.7803 10.9287C51.5654 11.8096 51.2396 12.5687 50.8027 13.2061C50.3659 13.8363 49.8216 14.3268 49.1699 14.6777C48.5254 15.0215 47.7663 15.1934 46.8926 15.1934C46.1406 15.1934 45.4567 15.0537 44.8408 14.7744C44.2249 14.488 43.6986 14.0511 43.2617 13.4639C42.8249 12.8766 42.4883 12.1283 42.252 11.2188C42.0156 10.3092 41.8975 9.23145 41.8975 7.98535C41.8975 6.91113 42.0049 5.93001 42.2197 5.04199C42.4417 4.15397 42.7676 3.39486 43.1973 2.76465C43.6341 2.12728 44.1784 1.63672 44.8301 1.29297C45.4818 0.942057 46.2409 0.766602 47.1074 0.766602C47.8594 0.766602 48.5433 0.909831 49.1592 1.19629C49.7751 1.47559 50.3014 1.91243 50.7383 2.50684C51.1751 3.09408 51.5117 3.84245 51.748 4.75195C51.9844 5.66146 52.1025 6.73926 52.1025 7.98535ZM50.2119 8.0498C50.2119 7.80632 50.2012 7.56641 50.1797 7.33008C50.1654 7.08659 50.1475 6.85026 50.126 6.62109L44.1855 11.0361C44.293 11.4085 44.429 11.7523 44.5938 12.0674C44.7585 12.3825 44.9554 12.6546 45.1846 12.8838C45.4209 13.1058 45.6859 13.2812 45.9795 13.4102C46.2803 13.5319 46.6204 13.5928 47 13.5928C47.487 13.5928 47.9274 13.4746 48.3213 13.2383C48.7223 13.002 49.0625 12.651 49.3418 12.1855C49.6211 11.7201 49.8359 11.1436 49.9863 10.4561C50.1367 9.76139 50.2119 8.95931 50.2119 8.0498ZM43.7881 7.9209C43.7881 8.1429 43.7881 8.36491 43.7881 8.58691C43.7952 8.80892 43.8096 9.02376 43.8311 9.23145L49.7715 4.83789C49.6641 4.47266 49.528 4.13965 49.3633 3.83887C49.1986 3.53809 49.0016 3.28027 48.7725 3.06543C48.5433 2.84342 48.2819 2.67155 47.9883 2.5498C47.6947 2.42806 47.3652 2.36719 47 2.36719C46.513 2.36719 46.069 2.48535 45.668 2.72168C45.2741 2.95801 44.9375 3.3125 44.6582 3.78516C44.3789 4.25065 44.1641 4.83073 44.0137 5.52539C43.8633 6.21289 43.7881 7.01139 43.7881 7.9209Z" fill="black"/>
<path opacity="0.5" d="M106.662 15H97.8428V13.2598H101.452V3.01172L98.0898 4.83789L97.4023 3.24805L101.871 0.895508H103.525V13.2598H106.662V15Z" fill="black"/>
<path opacity="0.5" d="M162.28 15H153.031V13.3242L156.662 9.71484C157.257 9.1276 157.74 8.61914 158.112 8.18945C158.485 7.75977 158.775 7.36947 158.982 7.01855C159.19 6.66048 159.33 6.32389 159.401 6.00879C159.473 5.69368 159.509 5.35352 159.509 4.98828C159.509 4.64453 159.462 4.31868 159.369 4.01074C159.276 3.69564 159.133 3.41992 158.939 3.18359C158.746 2.94727 158.495 2.76107 158.188 2.625C157.88 2.48893 157.511 2.4209 157.081 2.4209C156.487 2.4209 155.946 2.55339 155.459 2.81836C154.972 3.08333 154.524 3.42708 154.116 3.84961L153.085 2.61426C153.615 2.05566 154.224 1.60807 154.911 1.27148C155.606 0.934896 156.411 0.766602 157.328 0.766602C157.951 0.766602 158.517 0.859701 159.025 1.0459C159.541 1.2321 159.985 1.50065 160.357 1.85156C160.73 2.20247 161.016 2.63216 161.217 3.14062C161.424 3.64909 161.528 4.22201 161.528 4.85938C161.528 5.39648 161.457 5.89421 161.313 6.35254C161.17 6.81087 160.952 7.26921 160.658 7.72754C160.372 8.17871 160.007 8.64779 159.562 9.13477C159.126 9.62174 158.606 10.1553 158.005 10.7354L155.459 13.2168H162.28V15Z" fill="black"/>
<path opacity="0.5" d="M216.512 10.7354C216.512 11.3512 216.386 11.9313 216.136 12.4756C215.885 13.0127 215.509 13.4854 215.008 13.8936C214.507 14.2946 213.876 14.6133 213.117 14.8496C212.358 15.0788 211.474 15.1934 210.464 15.1934C209.905 15.1934 209.404 15.1755 208.96 15.1396C208.516 15.1038 208.101 15.0573 207.714 15V13.3242C208.158 13.403 208.627 13.4639 209.121 13.5068C209.615 13.5498 210.12 13.5713 210.636 13.5713C211.338 13.5713 211.936 13.5104 212.43 13.3887C212.931 13.2598 213.339 13.0771 213.654 12.8408C213.969 12.6045 214.199 12.318 214.342 11.9814C214.485 11.6449 214.557 11.2653 214.557 10.8428C214.557 10.4561 214.471 10.1195 214.299 9.83301C214.127 9.54655 213.883 9.30664 213.568 9.11328C213.26 8.91992 212.888 8.77669 212.451 8.68359C212.021 8.58333 211.549 8.5332 211.033 8.5332H209.433V6.99707H211.055C211.477 6.99707 211.86 6.94336 212.204 6.83594C212.555 6.72135 212.852 6.56022 213.096 6.35254C213.346 6.14486 213.536 5.89062 213.665 5.58984C213.801 5.2819 213.869 4.93457 213.869 4.54785C213.869 3.7959 213.64 3.24805 213.182 2.9043C212.723 2.56055 212.05 2.38867 211.162 2.38867C210.689 2.38867 210.202 2.43522 209.701 2.52832C209.2 2.62142 208.663 2.76107 208.09 2.94727V1.31445C208.333 1.22852 208.591 1.15332 208.863 1.08887C209.143 1.01725 209.418 0.959961 209.69 0.916992C209.97 0.866862 210.245 0.831055 210.518 0.80957C210.79 0.780924 211.051 0.766602 211.302 0.766602C212.047 0.766602 212.702 0.848958 213.268 1.01367C213.833 1.17122 214.306 1.40039 214.686 1.70117C215.065 2.00195 215.352 2.36719 215.545 2.79688C215.738 3.22656 215.835 3.70996 215.835 4.24707C215.835 5.04915 215.627 5.72233 215.212 6.2666C214.804 6.81087 214.242 7.24414 213.525 7.56641C213.891 7.6237 214.249 7.73828 214.6 7.91016C214.958 8.08203 215.276 8.30404 215.556 8.57617C215.842 8.84115 216.071 9.15625 216.243 9.52148C216.422 9.88672 216.512 10.2913 216.512 10.7354Z" fill="black"/>
<path opacity="0.5" d="M11.1025 52.9854C11.1025 54.0596 10.9951 55.0407 10.7803 55.9287C10.5654 56.8096 10.2396 57.5687 9.80273 58.2061C9.36589 58.8363 8.82161 59.3268 8.16992 59.6777C7.52539 60.0215 6.76628 60.1934 5.89258 60.1934C5.14062 60.1934 4.45671 60.0537 3.84082 59.7744C3.22493 59.488 2.69857 59.0511 2.26172 58.4639C1.82487 57.8766 1.48828 57.1283 1.25195 56.2188C1.01562 55.3092 0.897461 54.2314 0.897461 52.9854C0.897461 51.9111 1.00488 50.93 1.21973 50.042C1.44173 49.154 1.76758 48.3949 2.19727 47.7646C2.63411 47.1273 3.17839 46.6367 3.83008 46.293C4.48177 45.9421 5.24089 45.7666 6.10742 45.7666C6.85938 45.7666 7.54329 45.9098 8.15918 46.1963C8.77507 46.4756 9.30143 46.9124 9.73828 47.5068C10.1751 48.0941 10.5117 48.8424 10.748 49.752C10.9844 50.6615 11.1025 51.7393 11.1025 52.9854ZM9.21191 53.0498C9.21191 52.8063 9.20117 52.5664 9.17969 52.3301C9.16536 52.0866 9.14746 51.8503 9.12598 51.6211L3.18555 56.0361C3.29297 56.4085 3.42904 56.7523 3.59375 57.0674C3.75846 57.3825 3.9554 57.6546 4.18457 57.8838C4.4209 58.1058 4.68587 58.2812 4.97949 58.4102C5.28027 58.5319 5.62044 58.5928 6 58.5928C6.48698 58.5928 6.92741 58.4746 7.32129 58.2383C7.72233 58.002 8.0625 57.651 8.3418 57.1855C8.62109 56.7201 8.83594 56.1436 8.98633 55.4561C9.13672 54.7614 9.21191 53.9593 9.21191 53.0498ZM2.78809 52.9209C2.78809 53.1429 2.78809 53.3649 2.78809 53.5869C2.79525 53.8089 2.80957 54.0238 2.83105 54.2314L8.77148 49.8379C8.66406 49.4727 8.52799 49.1396 8.36328 48.8389C8.19857 48.5381 8.00163 48.2803 7.77246 48.0654C7.54329 47.8434 7.2819 47.6715 6.98828 47.5498C6.69466 47.4281 6.36523 47.3672 6 47.3672C5.51302 47.3672 5.06901 47.4854 4.66797 47.7217C4.27409 47.958 3.9375 48.3125 3.6582 48.7852C3.37891 49.2507 3.16406 49.8307 3.01367 50.5254C2.86328 51.2129 2.78809 52.0114 2.78809 52.9209Z" fill="black"/>
<path opacity="0.5" d="M10.6621 115H1.84277V113.26H5.45215V103.012L2.08984 104.838L1.40234 103.248L5.87109 100.896H7.52539V113.26H10.6621V115Z" fill="black"/>
<path opacity="0.5" d="M10.2803 171H1.03125V169.324L4.66211 165.715C5.25651 165.128 5.73991 164.619 6.1123 164.189C6.4847 163.76 6.77474 163.369 6.98242 163.019C7.1901 162.66 7.32975 162.324 7.40137 162.009C7.47298 161.694 7.50879 161.354 7.50879 160.988C7.50879 160.645 7.46224 160.319 7.36914 160.011C7.27604 159.696 7.13281 159.42 6.93945 159.184C6.74609 158.947 6.49544 158.761 6.1875 158.625C5.87956 158.489 5.51074 158.421 5.08105 158.421C4.48665 158.421 3.94596 158.553 3.45898 158.818C2.97201 159.083 2.52441 159.427 2.11621 159.85L1.08496 158.614C1.61491 158.056 2.22363 157.608 2.91113 157.271C3.60579 156.935 4.41146 156.767 5.32812 156.767C5.95117 156.767 6.51693 156.86 7.02539 157.046C7.54102 157.232 7.98503 157.501 8.35742 157.852C8.72982 158.202 9.01628 158.632 9.2168 159.141C9.42448 159.649 9.52832 160.222 9.52832 160.859C9.52832 161.396 9.45671 161.894 9.31348 162.353C9.17025 162.811 8.95182 163.269 8.6582 163.728C8.37174 164.179 8.00651 164.648 7.5625 165.135C7.12565 165.622 6.60645 166.155 6.00488 166.735L3.45898 169.217H10.2803V171Z" fill="black"/>
<path opacity="0.5" d="M10.5117 219.735C10.5117 220.351 10.3864 220.931 10.1357 221.476C9.88509 222.013 9.50911 222.485 9.00781 222.894C8.50651 223.295 7.8763 223.613 7.11719 223.85C6.35807 224.079 5.47363 224.193 4.46387 224.193C3.90527 224.193 3.40397 224.175 2.95996 224.14C2.51595 224.104 2.10059 224.057 1.71387 224V222.324C2.15788 222.403 2.62695 222.464 3.12109 222.507C3.61523 222.55 4.12012 222.571 4.63574 222.571C5.33757 222.571 5.93555 222.51 6.42969 222.389C6.93099 222.26 7.33919 222.077 7.6543 221.841C7.9694 221.604 8.19857 221.318 8.3418 220.981C8.48503 220.645 8.55664 220.265 8.55664 219.843C8.55664 219.456 8.4707 219.119 8.29883 218.833C8.12695 218.547 7.88346 218.307 7.56836 218.113C7.26042 217.92 6.88802 217.777 6.45117 217.684C6.02148 217.583 5.54883 217.533 5.0332 217.533H3.43262V215.997H5.05469C5.47721 215.997 5.86035 215.943 6.2041 215.836C6.55501 215.721 6.85221 215.56 7.0957 215.353C7.34635 215.145 7.53613 214.891 7.66504 214.59C7.80111 214.282 7.86914 213.935 7.86914 213.548C7.86914 212.796 7.63997 212.248 7.18164 211.904C6.72331 211.561 6.05013 211.389 5.16211 211.389C4.68945 211.389 4.20247 211.435 3.70117 211.528C3.19987 211.621 2.66276 211.761 2.08984 211.947V210.314C2.33333 210.229 2.59115 210.153 2.86328 210.089C3.14258 210.017 3.41829 209.96 3.69043 209.917C3.96973 209.867 4.24544 209.831 4.51758 209.81C4.78971 209.781 5.05111 209.767 5.30176 209.767C6.04655 209.767 6.70182 209.849 7.26758 210.014C7.83333 210.171 8.30599 210.4 8.68555 210.701C9.0651 211.002 9.35156 211.367 9.54492 211.797C9.73828 212.227 9.83496 212.71 9.83496 213.247C9.83496 214.049 9.62728 214.722 9.21191 215.267C8.80371 215.811 8.24154 216.244 7.52539 216.566C7.89062 216.624 8.2487 216.738 8.59961 216.91C8.95768 217.082 9.27637 217.304 9.55566 217.576C9.84212 217.841 10.0713 218.156 10.2432 218.521C10.4222 218.887 10.5117 219.291 10.5117 219.735Z" fill="black"/>
<circle cx="348" cy="135" r="23.75" fill="#FFF4EF" stroke="#FF5500" stroke-width="2.5"/>
<circle cx="446" cy="135" r="23.75" fill="#FFF4EF" stroke="#FF5500" stroke-width="2.5"/>
<circle cx="544" cy="135" r="23.75" fill="#FFF4EF" stroke="#FF5500" stroke-width="2.5"/>
<circle cx="446" cy="232" r="23.75" fill="#FFF4EF" stroke="#FF5500" stroke-width="2.5"/>
<circle cx="544" cy="37" r="23.75" fill="#FFF4EF" stroke="#FF5500" stroke-width="2.5"/>
<path d="M354.857 145H342.831V142.627H347.753V128.652L343.168 131.143L342.23 128.975L348.324 125.767H350.58V142.627H354.857V145Z" fill="black"/>
<path d="M452.857 145H440.831V142.627H445.753V128.652L441.168 131.143L440.23 128.975L446.324 125.767H448.58V142.627H452.857V145Z" fill="black"/>
<path d="M550.857 145H538.831V142.627H543.753V128.652L539.168 131.143L538.23 128.975L544.324 125.767H546.58V142.627H550.857V145Z" fill="black"/>
<path d="M452.857 241H440.831V238.627H445.753V224.652L441.168 227.143L440.23 224.975L446.324 221.767H448.58V238.627H452.857V241Z" fill="black"/>
<path d="M550.857 46H538.831V43.627H543.753V29.6523L539.168 32.1426L538.23 29.9746L544.324 26.7666H546.58V43.627H550.857V46Z" fill="black"/>
<line x1="372" y1="135.75" x2="422" y2="135.75" stroke="black" stroke-width="2.5"/>
<line x1="470" y1="135.75" x2="520" y2="135.75" stroke="black" stroke-width="2.5"/>
<line x1="446.25" y1="158" x2="446.25" y2="208" stroke="black" stroke-width="2.5"/>
<line x1="543.75" y1="111" x2="543.75" y2="61" stroke="black" stroke-width="2.5"/>
</g>
<defs>
<clipPath id="clip0_6290_5096">
<rect width="570" height="260" fill="white"/>
</clipPath>
</defs>
</svg>
