<svg width="910" height="235" viewBox="0 0 910 235" fill="none" xmlns="http://www.w3.org/2000/svg">
<g clip-path="url(#clip0_6289_5674)">
<rect width="910" height="235" fill="white"/>
<rect x="53" y="3" width="69" height="28" rx="6" stroke="#666666" stroke-width="2"/>
<rect x="576" y="3" width="69" height="28" rx="6" stroke="#666666" stroke-width="2"/>
<path d="M604.206 85.5C607.67 79.5 616.33 79.5 619.794 85.5L697.736 220.5C701.201 226.5 696.87 234 689.942 234H534.058C527.13 234 522.799 226.5 526.263 220.5L604.206 85.5Z" fill="#FAF0FF" stroke="#AE0DFF" stroke-width="2"/>
<circle cx="193" cy="19" r="18" stroke="black" stroke-width="2"/>
<circle cx="717" cy="19" r="18" stroke="black" stroke-width="2"/>
<path d="M212 25L298.5 81" stroke="black" stroke-width="2" stroke-linecap="round"/>
<path d="M736 25L822.5 81" stroke="black" stroke-width="2" stroke-linecap="round"/>
<path d="M174.5 25L88 81" stroke="black" stroke-width="2" stroke-linecap="round"/>
<path d="M361 145C360.448 145 360 145.448 360 146C360 146.552 360.448 147 361 147V145ZM549 146L539 140.226V151.774L549 146ZM361 147H540V145H361V147Z" fill="black"/>
<path d="M123 16C122.448 16 122 16.4477 122 17C122 17.5523 122.448 18 123 18L123 16ZM171.707 17.7071C172.098 17.3166 172.098 16.6834 171.707 16.2929L165.343 9.92894C164.953 9.53841 164.319 9.53841 163.929 9.92894C163.538 10.3195 163.538 10.9526 163.929 11.3431L169.586 17L163.929 22.6569C163.538 23.0474 163.538 23.6805 163.929 24.0711C164.319 24.4616 164.953 24.4616 165.343 24.0711L171.707 17.7071ZM123 18L171 18L171 16L123 16L123 18Z" fill="#666666"/>
<path d="M699.5 25L613 81" stroke="black" stroke-width="2" stroke-linecap="round"/>
<path d="M378.589 105.057C378.589 105.436 378.524 105.776 378.396 106.077C378.267 106.378 378.091 106.646 377.869 106.883C377.647 107.112 377.389 107.309 377.096 107.474C376.802 107.638 376.487 107.774 376.15 107.882C375.821 107.989 375.481 108.068 375.13 108.118C374.779 108.168 374.435 108.193 374.099 108.193C373.368 108.193 372.695 108.161 372.079 108.097C371.47 108.032 370.872 107.928 370.285 107.785V106.066C370.915 106.245 371.542 106.382 372.165 106.475C372.788 106.568 373.408 106.614 374.023 106.614C374.919 106.614 375.581 106.493 376.011 106.249C376.44 106.006 376.655 105.658 376.655 105.207C376.655 105.014 376.619 104.842 376.548 104.691C376.483 104.534 376.362 104.387 376.183 104.251C376.004 104.108 375.724 103.961 375.345 103.811C374.972 103.66 374.46 103.488 373.809 103.295C373.322 103.152 372.87 102.991 372.455 102.812C372.047 102.625 371.692 102.407 371.392 102.156C371.091 101.906 370.854 101.612 370.683 101.275C370.511 100.939 370.425 100.541 370.425 100.083C370.425 99.7822 370.493 99.4528 370.629 99.0947C370.772 98.7367 371.012 98.4036 371.349 98.0957C371.685 97.7878 372.14 97.5335 372.713 97.333C373.286 97.1253 374.002 97.0215 374.861 97.0215C375.284 97.0215 375.753 97.0465 376.269 97.0967C376.784 97.1396 377.321 97.2184 377.88 97.333V98.998C377.293 98.8548 376.734 98.751 376.204 98.6865C375.681 98.6149 375.227 98.5791 374.84 98.5791C374.374 98.5791 373.98 98.6149 373.658 98.6865C373.343 98.7581 373.085 98.8584 372.885 98.9873C372.691 99.109 372.552 99.2559 372.466 99.4277C372.38 99.5924 372.337 99.7715 372.337 99.9648C372.337 100.158 372.373 100.334 372.444 100.491C372.523 100.649 372.663 100.803 372.863 100.953C373.071 101.096 373.357 101.243 373.723 101.394C374.088 101.537 374.564 101.694 375.151 101.866C375.789 102.052 376.326 102.249 376.763 102.457C377.2 102.658 377.554 102.883 377.826 103.134C378.098 103.384 378.292 103.667 378.406 103.982C378.528 104.298 378.589 104.656 378.589 105.057ZM392.135 97.2148L390.566 108H388.3L386.742 103.488L386.431 102.393L386.076 103.553L384.583 108H382.381L380.823 97.2148H382.649L383.552 104.541L383.745 106.174L384.207 104.745L385.775 99.9004H387.118L388.805 104.681L389.288 106.109L389.449 104.595L390.287 97.2148H392.135ZM401.169 108L401.126 106.55C400.539 107.13 399.941 107.549 399.332 107.807C398.73 108.064 398.097 108.193 397.431 108.193C396.815 108.193 396.288 108.115 395.852 107.957C395.415 107.799 395.053 107.585 394.767 107.312C394.487 107.033 394.28 106.707 394.144 106.335C394.015 105.963 393.95 105.558 393.95 105.121C393.95 104.04 394.351 103.195 395.153 102.586C395.963 101.97 397.155 101.662 398.73 101.662H400.965V100.717C400.965 100.079 400.761 99.571 400.353 99.1914C399.944 98.8047 399.321 98.6113 398.483 98.6113C397.875 98.6113 397.273 98.6794 396.679 98.8154C396.091 98.9515 395.483 99.1449 394.853 99.3955V97.709C395.089 97.623 395.35 97.5407 395.637 97.4619C395.93 97.376 396.238 97.3008 396.561 97.2363C396.883 97.1719 397.219 97.1217 397.57 97.0859C397.921 97.043 398.276 97.0215 398.634 97.0215C399.285 97.0215 399.873 97.0931 400.396 97.2363C400.918 97.3796 401.359 97.598 401.717 97.8916C402.082 98.1852 402.361 98.554 402.555 98.998C402.748 99.4421 402.845 99.9648 402.845 100.566V108H401.169ZM400.965 103.091H398.591C398.125 103.091 397.724 103.137 397.388 103.23C397.051 103.324 396.775 103.456 396.561 103.628C396.346 103.8 396.185 104.007 396.077 104.251C395.977 104.487 395.927 104.756 395.927 105.057C395.927 105.264 395.959 105.465 396.023 105.658C396.088 105.844 396.192 106.013 396.335 106.163C396.478 106.306 396.664 106.421 396.894 106.507C397.123 106.593 397.402 106.636 397.731 106.636C398.161 106.636 398.652 106.507 399.203 106.249C399.762 105.984 400.349 105.569 400.965 105.003V103.091ZM415.553 102.414C415.553 103.374 415.417 104.212 415.145 104.928C414.88 105.644 414.511 106.238 414.038 106.711C413.565 107.184 413.007 107.538 412.362 107.774C411.718 108.011 411.02 108.129 410.268 108.129C409.924 108.129 409.58 108.111 409.236 108.075C408.9 108.039 408.556 107.979 408.205 107.893V112.404H406.336V97.2148H408.001L408.119 99.0195C408.656 98.2819 409.229 97.7663 409.838 97.4727C410.447 97.1719 411.105 97.0215 411.814 97.0215C412.43 97.0215 412.971 97.1504 413.437 97.4082C413.902 97.666 414.292 98.0312 414.607 98.5039C414.923 98.9694 415.159 99.5352 415.316 100.201C415.474 100.86 415.553 101.598 415.553 102.414ZM413.641 102.5C413.641 101.934 413.598 101.415 413.512 100.942C413.433 100.47 413.304 100.065 413.125 99.7285C412.946 99.3919 412.717 99.1305 412.438 98.9443C412.158 98.751 411.825 98.6543 411.438 98.6543C411.202 98.6543 410.962 98.6937 410.719 98.7725C410.475 98.8441 410.221 98.9694 409.956 99.1484C409.698 99.3203 409.423 99.5531 409.129 99.8467C408.842 100.133 408.535 100.491 408.205 100.921V106.152C408.549 106.296 408.91 106.41 409.29 106.496C409.67 106.575 410.042 106.614 410.407 106.614C411.417 106.614 412.208 106.274 412.781 105.594C413.354 104.906 413.641 103.875 413.641 102.5ZM430.527 97.2148H432.192L432.268 98.9551C432.583 98.5827 432.887 98.2747 433.181 98.0312C433.474 97.7806 433.761 97.5801 434.04 97.4297C434.326 97.2793 434.617 97.1755 434.91 97.1182C435.204 97.0537 435.508 97.0215 435.823 97.0215C436.933 97.0215 437.771 97.3509 438.337 98.0098C438.91 98.6615 439.196 99.6462 439.196 100.964V108H437.327V101.114C437.327 100.269 437.17 99.6462 436.854 99.2451C436.539 98.8369 436.07 98.6328 435.447 98.6328C435.218 98.6328 434.993 98.6686 434.771 98.7402C434.556 98.8047 434.33 98.9229 434.094 99.0947C433.857 99.2594 433.6 99.485 433.32 99.7715C433.048 100.058 432.74 100.416 432.396 100.846V108H430.527V97.2148ZM452.012 102.521C452.012 103.359 451.894 104.129 451.657 104.831C451.421 105.526 451.081 106.124 450.637 106.625C450.193 107.119 449.652 107.506 449.015 107.785C448.377 108.057 447.654 108.193 446.845 108.193C446.071 108.193 445.377 108.075 444.761 107.839C444.152 107.595 443.633 107.241 443.203 106.775C442.781 106.31 442.455 105.733 442.226 105.046C442.004 104.358 441.893 103.567 441.893 102.672C441.893 101.834 442.011 101.071 442.247 100.384C442.483 99.6891 442.824 99.0947 443.268 98.6006C443.712 98.0993 444.252 97.7126 444.89 97.4404C445.527 97.1611 446.25 97.0215 447.06 97.0215C447.833 97.0215 448.524 97.1432 449.133 97.3867C449.749 97.623 450.268 97.974 450.69 98.4395C451.12 98.8978 451.446 99.4707 451.668 100.158C451.897 100.846 452.012 101.633 452.012 102.521ZM450.1 102.607C450.1 101.941 450.024 101.361 449.874 100.867C449.731 100.366 449.523 99.9505 449.251 99.6211C448.979 99.2845 448.646 99.0339 448.252 98.8691C447.865 98.6973 447.432 98.6113 446.952 98.6113C446.394 98.6113 445.914 98.7223 445.513 98.9443C445.119 99.1592 444.793 99.4492 444.535 99.8145C444.285 100.18 444.098 100.606 443.977 101.093C443.862 101.573 443.805 102.077 443.805 102.607C443.805 103.273 443.876 103.857 444.02 104.358C444.17 104.86 444.381 105.279 444.653 105.615C444.925 105.945 445.255 106.195 445.642 106.367C446.028 106.532 446.465 106.614 446.952 106.614C447.511 106.614 447.987 106.507 448.381 106.292C448.782 106.07 449.108 105.776 449.358 105.411C449.616 105.046 449.802 104.623 449.917 104.144C450.039 103.657 450.1 103.145 450.1 102.607ZM454.171 102.833C454.171 101.916 454.296 101.104 454.547 100.395C454.798 99.6784 455.152 99.0768 455.61 98.5898C456.076 98.0957 456.631 97.7233 457.275 97.4727C457.927 97.2148 458.65 97.0859 459.445 97.0859C459.789 97.0859 460.126 97.1074 460.455 97.1504C460.792 97.1934 461.121 97.2614 461.443 97.3545V92.8213H463.323V108H461.647L461.583 105.959C461.06 106.718 460.494 107.28 459.886 107.646C459.277 108.011 458.618 108.193 457.909 108.193C457.293 108.193 456.749 108.064 456.276 107.807C455.811 107.549 455.421 107.187 455.105 106.722C454.798 106.249 454.565 105.683 454.407 105.024C454.25 104.366 454.171 103.635 454.171 102.833ZM456.083 102.715C456.083 104.018 456.273 104.992 456.652 105.637C457.039 106.274 457.583 106.593 458.285 106.593C458.758 106.593 459.256 106.382 459.778 105.959C460.308 105.536 460.863 104.91 461.443 104.079V99.0732C461.135 98.93 460.795 98.8226 460.423 98.751C460.05 98.6722 459.682 98.6328 459.316 98.6328C458.299 98.6328 457.505 98.9622 456.932 99.6211C456.366 100.28 456.083 101.311 456.083 102.715ZM475.924 102.038C475.924 102.303 475.92 102.525 475.913 102.704C475.906 102.883 475.895 103.051 475.881 103.209H468.308C468.308 104.312 468.616 105.16 469.231 105.755C469.847 106.342 470.735 106.636 471.896 106.636C472.211 106.636 472.526 106.625 472.841 106.604C473.156 106.575 473.46 106.539 473.754 106.496C474.048 106.453 474.327 106.407 474.592 106.356C474.864 106.299 475.115 106.238 475.344 106.174V107.71C474.835 107.853 474.259 107.968 473.614 108.054C472.977 108.147 472.314 108.193 471.627 108.193C470.703 108.193 469.908 108.068 469.242 107.817C468.576 107.567 468.028 107.205 467.599 106.732C467.176 106.253 466.861 105.669 466.653 104.981C466.453 104.287 466.353 103.503 466.353 102.629C466.353 101.87 466.46 101.154 466.675 100.48C466.897 99.8001 467.215 99.2057 467.631 98.6973C468.053 98.1816 468.569 97.7734 469.178 97.4727C469.786 97.1719 470.478 97.0215 471.251 97.0215C472.003 97.0215 472.669 97.1396 473.249 97.376C473.829 97.6123 474.316 97.9489 474.71 98.3857C475.111 98.8154 475.412 99.3418 475.612 99.9648C475.82 100.581 475.924 101.272 475.924 102.038ZM473.979 101.77C474.001 101.29 473.954 100.853 473.84 100.459C473.725 100.058 473.546 99.7142 473.303 99.4277C473.066 99.1413 472.769 98.9193 472.411 98.7617C472.053 98.597 471.638 98.5146 471.165 98.5146C470.757 98.5146 470.384 98.5934 470.048 98.751C469.711 98.9085 469.421 99.1305 469.178 99.417C468.934 99.7035 468.737 100.047 468.587 100.448C468.437 100.849 468.343 101.29 468.308 101.77H473.979ZM483.153 104.616C483.397 104.616 483.626 104.663 483.841 104.756C484.063 104.849 484.253 104.978 484.41 105.143C484.575 105.307 484.704 105.501 484.797 105.723C484.89 105.938 484.937 106.17 484.937 106.421C484.937 106.664 484.89 106.894 484.797 107.108C484.704 107.323 484.575 107.513 484.41 107.678C484.253 107.835 484.063 107.961 483.841 108.054C483.626 108.147 483.397 108.193 483.153 108.193C482.903 108.193 482.67 108.147 482.455 108.054C482.24 107.961 482.05 107.835 481.886 107.678C481.728 107.513 481.603 107.323 481.51 107.108C481.417 106.894 481.37 106.664 481.37 106.421C481.37 106.17 481.417 105.938 481.51 105.723C481.603 105.501 481.728 105.307 481.886 105.143C482.05 104.978 482.24 104.849 482.455 104.756C482.67 104.663 482.903 104.616 483.153 104.616ZM494.68 94.3574H491.489V92.8213H496.57V106.442H499.782V108H491.135V106.442H494.68V94.3574ZM512.211 102.038C512.211 102.303 512.207 102.525 512.2 102.704C512.193 102.883 512.182 103.051 512.168 103.209H504.595C504.595 104.312 504.903 105.16 505.519 105.755C506.134 106.342 507.022 106.636 508.183 106.636C508.498 106.636 508.813 106.625 509.128 106.604C509.443 106.575 509.747 106.539 510.041 106.496C510.335 106.453 510.614 106.407 510.879 106.356C511.151 106.299 511.402 106.238 511.631 106.174V107.71C511.122 107.853 510.546 107.968 509.901 108.054C509.264 108.147 508.602 108.193 507.914 108.193C506.99 108.193 506.195 108.068 505.529 107.817C504.863 107.567 504.315 107.205 503.886 106.732C503.463 106.253 503.148 105.669 502.94 104.981C502.74 104.287 502.64 103.503 502.64 102.629C502.64 101.87 502.747 101.154 502.962 100.48C503.184 99.8001 503.503 99.2057 503.918 98.6973C504.34 98.1816 504.856 97.7734 505.465 97.4727C506.074 97.1719 506.765 97.0215 507.538 97.0215C508.29 97.0215 508.956 97.1396 509.536 97.376C510.116 97.6123 510.603 97.9489 510.997 98.3857C511.398 98.8154 511.699 99.3418 511.899 99.9648C512.107 100.581 512.211 101.272 512.211 102.038ZM510.267 101.77C510.288 101.29 510.242 100.853 510.127 100.459C510.012 100.058 509.833 99.7142 509.59 99.4277C509.354 99.1413 509.056 98.9193 508.698 98.7617C508.34 98.597 507.925 98.5146 507.452 98.5146C507.044 98.5146 506.672 98.5934 506.335 98.751C505.998 98.9085 505.708 99.1305 505.465 99.417C505.221 99.7035 505.024 100.047 504.874 100.448C504.724 100.849 504.631 101.29 504.595 101.77H510.267ZM524.769 94.5615C523.787 94.3538 522.942 94.25 522.233 94.25C520.55 94.25 519.709 95.1309 519.709 96.8926V98.7832H524.436V100.341H519.709V108H517.808V100.341H514.338V98.7832H517.808V97C517.808 94.1283 519.304 92.6924 522.298 92.6924C523.043 92.6924 523.866 92.7783 524.769 92.9502V94.5615ZM535.983 107.85C535.561 107.957 535.124 108.032 534.673 108.075C534.222 108.125 533.763 108.15 533.298 108.15C531.944 108.15 530.935 107.846 530.269 107.237C529.603 106.621 529.27 105.68 529.27 104.412V98.7832H526.251V97.2148H529.27V94.25L531.139 93.7666V97.2148H535.983V98.7832H531.139V104.262C531.139 105.035 531.343 105.615 531.751 106.002C532.166 106.382 532.775 106.571 533.577 106.571C533.921 106.571 534.297 106.546 534.705 106.496C535.113 106.439 535.539 106.353 535.983 106.238V107.85ZM376.978 137L376.935 135.55C376.347 136.13 375.749 136.549 375.141 136.807C374.539 137.064 373.905 137.193 373.239 137.193C372.623 137.193 372.097 137.115 371.66 136.957C371.223 136.799 370.862 136.585 370.575 136.312C370.296 136.033 370.088 135.707 369.952 135.335C369.823 134.963 369.759 134.558 369.759 134.121C369.759 133.04 370.16 132.195 370.962 131.586C371.771 130.97 372.964 130.662 374.539 130.662H376.773V129.717C376.773 129.079 376.569 128.571 376.161 128.191C375.753 127.805 375.13 127.611 374.292 127.611C373.683 127.611 373.082 127.679 372.487 127.815C371.9 127.951 371.291 128.145 370.661 128.396V126.709C370.897 126.623 371.159 126.541 371.445 126.462C371.739 126.376 372.047 126.301 372.369 126.236C372.691 126.172 373.028 126.122 373.379 126.086C373.73 126.043 374.084 126.021 374.442 126.021C375.094 126.021 375.681 126.093 376.204 126.236C376.727 126.38 377.167 126.598 377.525 126.892C377.891 127.185 378.17 127.554 378.363 127.998C378.557 128.442 378.653 128.965 378.653 129.566V137H376.978ZM376.773 132.091H374.399C373.934 132.091 373.533 132.137 373.196 132.23C372.86 132.324 372.584 132.456 372.369 132.628C372.154 132.8 371.993 133.007 371.886 133.251C371.785 133.487 371.735 133.756 371.735 134.057C371.735 134.264 371.768 134.465 371.832 134.658C371.896 134.844 372 135.013 372.144 135.163C372.287 135.306 372.473 135.421 372.702 135.507C372.931 135.593 373.211 135.636 373.54 135.636C373.97 135.636 374.46 135.507 375.012 135.249C375.57 134.984 376.158 134.569 376.773 134.003V132.091ZM382.145 126.215H383.81L383.885 127.955C384.2 127.583 384.504 127.275 384.798 127.031C385.091 126.781 385.378 126.58 385.657 126.43C385.944 126.279 386.234 126.175 386.527 126.118C386.821 126.054 387.125 126.021 387.44 126.021C388.55 126.021 389.388 126.351 389.954 127.01C390.527 127.661 390.813 128.646 390.813 129.964V137H388.944V130.114C388.944 129.269 388.787 128.646 388.472 128.245C388.157 127.837 387.688 127.633 387.064 127.633C386.835 127.633 386.61 127.669 386.388 127.74C386.173 127.805 385.947 127.923 385.711 128.095C385.475 128.259 385.217 128.485 384.938 128.771C384.665 129.058 384.357 129.416 384.014 129.846V137H382.145V126.215ZM393.692 131.833C393.692 130.916 393.818 130.104 394.068 129.395C394.319 128.678 394.674 128.077 395.132 127.59C395.597 127.096 396.152 126.723 396.797 126.473C397.449 126.215 398.172 126.086 398.967 126.086C399.311 126.086 399.647 126.107 399.977 126.15C400.313 126.193 400.643 126.261 400.965 126.354V121.821H402.845V137H401.169L401.104 134.959C400.582 135.718 400.016 136.28 399.407 136.646C398.799 137.011 398.14 137.193 397.431 137.193C396.815 137.193 396.271 137.064 395.798 136.807C395.332 136.549 394.942 136.187 394.627 135.722C394.319 135.249 394.086 134.683 393.929 134.024C393.771 133.366 393.692 132.635 393.692 131.833ZM395.604 131.715C395.604 133.018 395.794 133.992 396.174 134.637C396.561 135.274 397.105 135.593 397.807 135.593C398.279 135.593 398.777 135.382 399.3 134.959C399.83 134.536 400.385 133.91 400.965 133.079V128.073C400.657 127.93 400.317 127.823 399.944 127.751C399.572 127.672 399.203 127.633 398.838 127.633C397.821 127.633 397.026 127.962 396.453 128.621C395.887 129.28 395.604 130.311 395.604 131.715ZM418.432 126.215H420.097L420.172 127.955C420.487 127.583 420.791 127.275 421.085 127.031C421.379 126.781 421.665 126.58 421.944 126.43C422.231 126.279 422.521 126.175 422.814 126.118C423.108 126.054 423.412 126.021 423.728 126.021C424.838 126.021 425.675 126.351 426.241 127.01C426.814 127.661 427.101 128.646 427.101 129.964V137H425.231V130.114C425.231 129.269 425.074 128.646 424.759 128.245C424.444 127.837 423.975 127.633 423.352 127.633C423.122 127.633 422.897 127.669 422.675 127.74C422.46 127.805 422.234 127.923 421.998 128.095C421.762 128.259 421.504 128.485 421.225 128.771C420.952 129.058 420.645 129.416 420.301 129.846V137H418.432V126.215ZM439.916 131.521C439.916 132.359 439.798 133.129 439.562 133.831C439.325 134.526 438.985 135.124 438.541 135.625C438.097 136.119 437.556 136.506 436.919 136.785C436.282 137.057 435.558 137.193 434.749 137.193C433.976 137.193 433.281 137.075 432.665 136.839C432.056 136.595 431.537 136.241 431.107 135.775C430.685 135.31 430.359 134.733 430.13 134.046C429.908 133.358 429.797 132.567 429.797 131.672C429.797 130.834 429.915 130.071 430.151 129.384C430.388 128.689 430.728 128.095 431.172 127.601C431.616 127.099 432.157 126.713 432.794 126.44C433.431 126.161 434.155 126.021 434.964 126.021C435.737 126.021 436.428 126.143 437.037 126.387C437.653 126.623 438.172 126.974 438.595 127.439C439.024 127.898 439.35 128.471 439.572 129.158C439.801 129.846 439.916 130.633 439.916 131.521ZM438.004 131.607C438.004 130.941 437.929 130.361 437.778 129.867C437.635 129.366 437.427 128.951 437.155 128.621C436.883 128.285 436.55 128.034 436.156 127.869C435.77 127.697 435.336 127.611 434.856 127.611C434.298 127.611 433.818 127.722 433.417 127.944C433.023 128.159 432.697 128.449 432.439 128.814C432.189 129.18 432.003 129.606 431.881 130.093C431.766 130.573 431.709 131.077 431.709 131.607C431.709 132.273 431.781 132.857 431.924 133.358C432.074 133.86 432.285 134.279 432.558 134.615C432.83 134.945 433.159 135.195 433.546 135.367C433.933 135.532 434.369 135.614 434.856 135.614C435.415 135.614 435.891 135.507 436.285 135.292C436.686 135.07 437.012 134.776 437.263 134.411C437.521 134.046 437.707 133.623 437.821 133.144C437.943 132.657 438.004 132.145 438.004 131.607ZM442.075 131.833C442.075 130.916 442.201 130.104 442.451 129.395C442.702 128.678 443.056 128.077 443.515 127.59C443.98 127.096 444.535 126.723 445.18 126.473C445.831 126.215 446.555 126.086 447.35 126.086C447.693 126.086 448.03 126.107 448.359 126.15C448.696 126.193 449.025 126.261 449.348 126.354V121.821H451.228V137H449.552L449.487 134.959C448.965 135.718 448.399 136.28 447.79 136.646C447.181 137.011 446.522 137.193 445.813 137.193C445.198 137.193 444.653 137.064 444.181 136.807C443.715 136.549 443.325 136.187 443.01 135.722C442.702 135.249 442.469 134.683 442.312 134.024C442.154 133.366 442.075 132.635 442.075 131.833ZM443.987 131.715C443.987 133.018 444.177 133.992 444.557 134.637C444.943 135.274 445.488 135.593 446.189 135.593C446.662 135.593 447.16 135.382 447.683 134.959C448.213 134.536 448.768 133.91 449.348 133.079V128.073C449.04 127.93 448.7 127.823 448.327 127.751C447.955 127.672 447.586 127.633 447.221 127.633C446.204 127.633 445.409 127.962 444.836 128.621C444.27 129.28 443.987 130.311 443.987 131.715ZM463.828 131.038C463.828 131.303 463.825 131.525 463.817 131.704C463.81 131.883 463.799 132.051 463.785 132.209H456.212C456.212 133.312 456.52 134.16 457.136 134.755C457.752 135.342 458.64 135.636 459.8 135.636C460.115 135.636 460.43 135.625 460.745 135.604C461.06 135.575 461.365 135.539 461.658 135.496C461.952 135.453 462.231 135.407 462.496 135.356C462.768 135.299 463.019 135.238 463.248 135.174V136.71C462.74 136.853 462.163 136.968 461.519 137.054C460.881 137.147 460.219 137.193 459.531 137.193C458.607 137.193 457.812 137.068 457.146 136.817C456.48 136.567 455.933 136.205 455.503 135.732C455.08 135.253 454.765 134.669 454.558 133.981C454.357 133.287 454.257 132.503 454.257 131.629C454.257 130.87 454.364 130.154 454.579 129.48C454.801 128.8 455.12 128.206 455.535 127.697C455.958 127.182 456.473 126.773 457.082 126.473C457.691 126.172 458.382 126.021 459.155 126.021C459.907 126.021 460.573 126.14 461.153 126.376C461.733 126.612 462.22 126.949 462.614 127.386C463.015 127.815 463.316 128.342 463.517 128.965C463.724 129.581 463.828 130.272 463.828 131.038ZM461.884 130.77C461.905 130.29 461.859 129.853 461.744 129.459C461.63 129.058 461.451 128.714 461.207 128.428C460.971 128.141 460.674 127.919 460.315 127.762C459.957 127.597 459.542 127.515 459.069 127.515C458.661 127.515 458.289 127.593 457.952 127.751C457.616 127.909 457.326 128.131 457.082 128.417C456.839 128.703 456.642 129.047 456.491 129.448C456.341 129.849 456.248 130.29 456.212 130.77H461.884ZM471.058 133.616C471.301 133.616 471.53 133.663 471.745 133.756C471.967 133.849 472.157 133.978 472.314 134.143C472.479 134.307 472.608 134.501 472.701 134.723C472.794 134.938 472.841 135.17 472.841 135.421C472.841 135.664 472.794 135.894 472.701 136.108C472.608 136.323 472.479 136.513 472.314 136.678C472.157 136.835 471.967 136.961 471.745 137.054C471.53 137.147 471.301 137.193 471.058 137.193C470.807 137.193 470.574 137.147 470.359 137.054C470.145 136.961 469.955 136.835 469.79 136.678C469.632 136.513 469.507 136.323 469.414 136.108C469.321 135.894 469.274 135.664 469.274 135.421C469.274 135.17 469.321 134.938 469.414 134.723C469.507 134.501 469.632 134.307 469.79 134.143C469.955 133.978 470.145 133.849 470.359 133.756C470.574 133.663 470.807 133.616 471.058 133.616ZM479.351 126.215H481.059L481.112 128.202C481.75 127.436 482.376 126.881 482.992 126.537C483.615 126.193 484.242 126.021 484.872 126.021C485.989 126.021 486.834 126.383 487.407 127.106C487.987 127.83 488.256 128.904 488.213 130.329H486.322C486.344 129.384 486.204 128.7 485.903 128.277C485.61 127.848 485.176 127.633 484.604 127.633C484.353 127.633 484.099 127.679 483.841 127.772C483.59 127.858 483.329 128.002 483.057 128.202C482.792 128.396 482.509 128.646 482.208 128.954C481.907 129.262 481.585 129.634 481.241 130.071V137H479.351V126.215ZM494.68 127.762H491.489V126.215H496.57V135.442H499.782V137H491.135V135.442H494.68V127.762ZM495.335 121.692C495.543 121.692 495.736 121.732 495.915 121.811C496.094 121.882 496.248 121.986 496.377 122.122C496.513 122.258 496.617 122.416 496.688 122.595C496.767 122.767 496.807 122.956 496.807 123.164C496.807 123.365 496.767 123.554 496.688 123.733C496.617 123.912 496.513 124.07 496.377 124.206C496.248 124.342 496.094 124.45 495.915 124.528C495.736 124.6 495.543 124.636 495.335 124.636C495.127 124.636 494.934 124.6 494.755 124.528C494.576 124.45 494.418 124.342 494.282 124.206C494.153 124.07 494.049 123.912 493.971 123.733C493.899 123.554 493.863 123.365 493.863 123.164C493.863 122.956 493.899 122.767 493.971 122.595C494.049 122.416 494.153 122.258 494.282 122.122C494.418 121.986 494.576 121.882 494.755 121.811C494.934 121.732 495.127 121.692 495.335 121.692ZM510.868 127.74C511.069 127.991 511.223 128.285 511.33 128.621C511.445 128.951 511.502 129.309 511.502 129.695C511.502 130.254 511.398 130.766 511.19 131.231C510.99 131.69 510.703 132.084 510.331 132.413C509.959 132.743 509.511 133 508.988 133.187C508.473 133.366 507.903 133.455 507.28 133.455C506.829 133.455 506.407 133.409 506.013 133.315C505.619 133.215 505.307 133.093 505.078 132.95C504.942 133.151 504.827 133.34 504.734 133.52C504.641 133.699 504.595 133.899 504.595 134.121C504.595 134.393 504.724 134.619 504.981 134.798C505.246 134.977 505.594 135.074 506.023 135.088L508.859 135.195C509.396 135.21 509.891 135.278 510.342 135.399C510.8 135.521 511.19 135.697 511.513 135.926C511.842 136.155 512.096 136.438 512.275 136.774C512.462 137.111 512.555 137.501 512.555 137.945C512.555 138.425 512.451 138.88 512.243 139.31C512.035 139.739 511.713 140.115 511.276 140.438C510.847 140.767 510.299 141.028 509.633 141.222C508.967 141.415 508.175 141.512 507.259 141.512C506.385 141.512 505.64 141.44 505.024 141.297C504.416 141.161 503.914 140.967 503.521 140.717C503.127 140.473 502.84 140.18 502.661 139.836C502.482 139.499 502.393 139.127 502.393 138.719C502.393 138.196 502.514 137.738 502.758 137.344C503.001 136.95 503.377 136.57 503.886 136.205C503.7 136.119 503.538 136.012 503.402 135.883C503.266 135.754 503.155 135.614 503.069 135.464C502.983 135.306 502.919 135.142 502.876 134.97C502.833 134.798 502.812 134.63 502.812 134.465C502.812 133.999 502.919 133.573 503.134 133.187C503.356 132.8 503.617 132.435 503.918 132.091C503.782 131.926 503.66 131.765 503.553 131.607C503.452 131.45 503.363 131.282 503.284 131.103C503.213 130.916 503.155 130.719 503.112 130.512C503.076 130.297 503.059 130.053 503.059 129.781C503.059 129.223 503.159 128.714 503.359 128.256C503.567 127.79 503.854 127.393 504.219 127.063C504.591 126.734 505.035 126.48 505.551 126.301C506.074 126.115 506.65 126.021 507.28 126.021C507.545 126.021 507.799 126.039 508.043 126.075C508.286 126.111 508.501 126.158 508.688 126.215H512.598V127.74H510.868ZM504.38 138.558C504.38 139.066 504.645 139.435 505.175 139.664C505.705 139.9 506.442 140.019 507.388 140.019C507.982 140.019 508.48 139.965 508.881 139.857C509.289 139.75 509.615 139.607 509.858 139.428C510.109 139.256 510.288 139.055 510.396 138.826C510.503 138.604 510.557 138.375 510.557 138.139C510.557 137.702 510.378 137.38 510.02 137.172C509.661 136.964 509.114 136.842 508.376 136.807L505.562 136.71C505.325 136.868 505.128 137.021 504.971 137.172C504.82 137.322 504.702 137.473 504.616 137.623C504.53 137.781 504.469 137.935 504.434 138.085C504.398 138.243 504.38 138.4 504.38 138.558ZM504.949 129.738C504.949 130.082 505.007 130.397 505.121 130.684C505.236 130.97 505.397 131.214 505.604 131.414C505.812 131.615 506.056 131.772 506.335 131.887C506.621 131.994 506.937 132.048 507.28 132.048C507.653 132.048 507.982 131.987 508.269 131.865C508.562 131.736 508.806 131.564 508.999 131.35C509.2 131.135 509.35 130.888 509.45 130.608C509.558 130.329 509.611 130.039 509.611 129.738C509.611 129.395 509.554 129.079 509.439 128.793C509.325 128.507 509.164 128.263 508.956 128.062C508.748 127.862 508.501 127.708 508.215 127.601C507.936 127.486 507.624 127.429 507.28 127.429C506.908 127.429 506.575 127.493 506.281 127.622C505.995 127.751 505.751 127.923 505.551 128.138C505.357 128.345 505.207 128.589 505.1 128.868C504.999 129.147 504.949 129.438 504.949 129.738ZM523.866 137H521.997V130.114C521.997 129.284 521.84 128.664 521.524 128.256C521.216 127.84 520.772 127.633 520.192 127.633C519.942 127.633 519.705 127.669 519.483 127.74C519.269 127.805 519.043 127.923 518.807 128.095C518.57 128.259 518.312 128.485 518.033 128.771C517.754 129.058 517.432 129.416 517.066 129.846V137H515.197V121.821H517.066V126.215L517.002 127.912C517.296 127.561 517.582 127.268 517.861 127.031C518.148 126.788 518.431 126.591 518.71 126.44C518.996 126.29 519.286 126.183 519.58 126.118C519.874 126.054 520.178 126.021 520.493 126.021C521.567 126.021 522.398 126.351 522.985 127.01C523.573 127.661 523.866 128.646 523.866 129.964V137ZM535.983 136.85C535.561 136.957 535.124 137.032 534.673 137.075C534.222 137.125 533.763 137.15 533.298 137.15C531.944 137.15 530.935 136.846 530.269 136.237C529.603 135.621 529.27 134.68 529.27 133.412V127.783H526.251V126.215H529.27V123.25L531.139 122.767V126.215H535.983V127.783H531.139V133.262C531.139 134.035 531.343 134.615 531.751 135.002C532.166 135.382 532.775 135.571 533.577 135.571C533.921 135.571 534.297 135.546 534.705 135.496C535.113 135.439 535.539 135.353 535.983 135.238V136.85Z" fill="black"/>
<path d="M80.2058 85.5C83.6699 79.5 92.3301 79.5 95.7942 85.5L173.736 220.5C177.201 226.5 172.87 234 165.942 234H10.0577C3.12952 234 -1.20062 226.5 2.26348 220.5L80.2058 85.5Z" fill="#F2FBFF" stroke="#00B2FF" stroke-width="2"/>
<path d="M815.206 85.5C818.67 79.5 827.33 79.5 830.794 85.5L908.736 220.5C912.201 226.5 907.87 234 900.942 234H745.058C738.13 234 733.799 226.5 737.263 220.5L815.206 85.5Z" fill="#F2FBFF" stroke="#00B2FF" stroke-width="2"/>
<path d="M63.8389 150.474H60.1953V148.062H67.0127V163.588H70.7324V166H59.751V163.588H63.8389V150.474ZM85.2051 158.561C85.2051 158.772 85.1966 159.047 85.1797 159.386C85.1712 159.724 85.1543 160.042 85.1289 160.338H76.6484C76.6484 160.905 76.7331 161.404 76.9023 161.836C77.0801 162.268 77.3255 162.632 77.6387 162.928C77.9603 163.215 78.3411 163.436 78.7812 163.588C79.2298 163.74 79.7249 163.816 80.2666 163.816C80.8929 163.816 81.5615 163.77 82.2725 163.677C82.9919 163.575 83.7367 163.414 84.5068 163.194V165.657C84.1768 165.75 83.8171 165.835 83.4277 165.911C83.0384 165.987 82.6406 166.055 82.2344 166.114C81.8281 166.174 81.4176 166.216 81.0029 166.241C80.5882 166.275 80.1862 166.292 79.7969 166.292C78.8151 166.292 77.9349 166.152 77.1562 165.873C76.3776 165.594 75.7174 165.183 75.1758 164.642C74.6341 164.091 74.2194 163.414 73.9316 162.61C73.6439 161.806 73.5 160.875 73.5 159.817C73.5 158.768 73.6439 157.816 73.9316 156.961C74.2194 156.098 74.6257 155.361 75.1504 154.752C75.6751 154.134 76.3099 153.66 77.0547 153.33C77.8079 152.992 78.6458 152.822 79.5684 152.822C80.4824 152.822 81.2907 152.966 81.9932 153.254C82.6956 153.533 83.2839 153.927 83.7578 154.435C84.2318 154.942 84.5915 155.548 84.8369 156.25C85.0824 156.952 85.2051 157.723 85.2051 158.561ZM82.0566 158.116C82.0651 157.608 82.0016 157.168 81.8662 156.796C81.7308 156.415 81.5446 156.102 81.3076 155.856C81.0791 155.611 80.8083 155.429 80.4951 155.311C80.1904 155.192 79.8604 155.133 79.5049 155.133C78.7262 155.133 78.0872 155.395 77.5879 155.92C77.0885 156.436 76.7923 157.168 76.6992 158.116H82.0566ZM99.8428 150.689C99.4704 150.571 99.026 150.474 98.5098 150.397C98.002 150.313 97.4814 150.271 96.9482 150.271C96.5843 150.271 96.2458 150.321 95.9326 150.423C95.6195 150.516 95.3486 150.668 95.1201 150.88C94.8916 151.091 94.7096 151.362 94.5742 151.692C94.4473 152.014 94.3838 152.408 94.3838 152.873V154.955H99.4492V157.367H94.3838V166H91.2607V157.367H87.5156V154.955H91.2607V153C91.2607 152.086 91.3919 151.303 91.6543 150.651C91.9251 149.991 92.3018 149.454 92.7842 149.039C93.2751 148.616 93.8633 148.307 94.5488 148.112C95.2344 147.918 96.0003 147.82 96.8467 147.82C97.4053 147.82 97.9342 147.858 98.4336 147.935C98.9414 148.002 99.4111 148.087 99.8428 148.188V150.689ZM113.198 165.873C112.64 166 112.077 166.102 111.51 166.178C110.943 166.254 110.405 166.292 109.897 166.292C109.051 166.292 108.319 166.203 107.701 166.025C107.092 165.848 106.584 165.577 106.178 165.213C105.78 164.849 105.484 164.388 105.289 163.829C105.103 163.262 105.01 162.589 105.01 161.811V155.514H101.544V153.102H105.01V149.801L108.184 148.976V153.102H113.198V155.514H108.184V161.582C108.184 162.318 108.353 162.877 108.691 163.258C109.03 163.63 109.597 163.816 110.393 163.816C110.9 163.816 111.396 163.774 111.878 163.689C112.36 163.605 112.8 163.507 113.198 163.397V165.873ZM48.8711 196.204C48.8711 196.94 48.7061 197.571 48.376 198.096C48.0544 198.612 47.6227 199.035 47.0811 199.365C46.5479 199.687 45.9385 199.92 45.2529 200.063C44.5758 200.216 43.8818 200.292 43.1709 200.292C42.223 200.292 41.3682 200.245 40.6064 200.152C39.8447 200.068 39.1253 199.941 38.4482 199.771V196.979C39.2438 197.309 40.0352 197.55 40.8223 197.702C41.6178 197.846 42.3669 197.918 43.0693 197.918C43.8818 197.918 44.487 197.791 44.8848 197.537C45.291 197.275 45.4941 196.936 45.4941 196.521C45.4941 196.327 45.4518 196.149 45.3672 195.988C45.2826 195.827 45.1217 195.675 44.8848 195.531C44.6562 195.379 44.3304 195.227 43.9072 195.074C43.484 194.913 42.9297 194.736 42.2441 194.541C41.6094 194.363 41.0508 194.164 40.5684 193.944C40.0944 193.716 39.7008 193.449 39.3877 193.145C39.0745 192.84 38.8376 192.489 38.6768 192.091C38.5244 191.685 38.4482 191.211 38.4482 190.669C38.4482 190.144 38.5667 189.649 38.8037 189.184C39.0407 188.718 39.3919 188.312 39.8574 187.965C40.3314 187.609 40.9196 187.33 41.6221 187.127C42.3245 186.924 43.1455 186.822 44.085 186.822C44.8975 186.822 45.6169 186.865 46.2432 186.949C46.8695 187.034 47.4238 187.127 47.9062 187.229V189.755C47.1699 189.518 46.4759 189.353 45.8242 189.26C45.181 189.158 44.542 189.107 43.9072 189.107C43.2725 189.107 42.7604 189.222 42.3711 189.45C41.9902 189.679 41.7998 189.996 41.7998 190.402C41.7998 190.597 41.8379 190.771 41.9141 190.923C41.9902 191.075 42.1383 191.223 42.3584 191.367C42.5869 191.511 42.9001 191.663 43.2979 191.824C43.7041 191.977 44.2373 192.146 44.8975 192.332C45.6423 192.544 46.2686 192.772 46.7764 193.018C47.2842 193.255 47.6904 193.525 47.9951 193.83C48.3083 194.135 48.5326 194.482 48.668 194.871C48.8034 195.26 48.8711 195.705 48.8711 196.204ZM55.5996 187.102V195.506C55.5996 196.208 55.7308 196.742 55.9932 197.105C56.2555 197.461 56.6533 197.639 57.1865 197.639C57.7028 197.639 58.1979 197.427 58.6719 197.004C59.1543 196.572 59.6621 195.993 60.1953 195.265V187.102H63.293V200H60.6143L60.5381 198.096C60.2673 198.426 59.9922 198.726 59.7129 198.997C59.4336 199.268 59.1289 199.501 58.7988 199.695C58.4772 199.882 58.1217 200.025 57.7324 200.127C57.3516 200.237 56.9284 200.292 56.4629 200.292C55.8027 200.292 55.223 200.186 54.7236 199.975C54.2327 199.755 53.8223 199.446 53.4922 199.048C53.1621 198.65 52.9124 198.176 52.7432 197.626C52.5824 197.067 52.502 196.445 52.502 195.76V187.102H55.5996ZM78.4258 193.322C78.4258 194.507 78.2565 195.531 77.918 196.395C77.5879 197.258 77.1224 197.977 76.5215 198.553C75.929 199.12 75.2266 199.543 74.4141 199.822C73.6016 200.093 72.7171 200.229 71.7607 200.229C70.8213 200.229 69.9453 200.157 69.1328 200.013C68.3288 199.877 67.5586 199.691 66.8223 199.454V182.062H69.9199V186.276L69.793 188.815C70.2585 188.215 70.8001 187.732 71.418 187.368C72.0443 187.004 72.7933 186.822 73.665 186.822C74.4268 186.822 75.1038 186.975 75.6963 187.279C76.2887 187.584 76.7839 188.02 77.1816 188.587C77.5879 189.146 77.8968 189.827 78.1084 190.631C78.32 191.426 78.4258 192.324 78.4258 193.322ZM75.1758 193.449C75.1758 192.738 75.125 192.133 75.0234 191.634C74.9219 191.134 74.7738 190.724 74.5791 190.402C74.3929 190.081 74.1602 189.848 73.8809 189.704C73.61 189.552 73.2969 189.476 72.9414 189.476C72.4167 189.476 71.9131 189.687 71.4307 190.11C70.9567 190.534 70.4531 191.109 69.9199 191.837V197.474C70.1654 197.567 70.4658 197.643 70.8213 197.702C71.1852 197.761 71.5534 197.791 71.9258 197.791C72.4167 197.791 72.861 197.689 73.2588 197.486C73.665 197.283 74.0078 196.995 74.2871 196.623C74.5749 196.251 74.7949 195.798 74.9473 195.265C75.0996 194.723 75.1758 194.118 75.1758 193.449ZM91.7559 199.873C91.1973 200 90.6344 200.102 90.0674 200.178C89.5003 200.254 88.9629 200.292 88.4551 200.292C87.6087 200.292 86.8766 200.203 86.2588 200.025C85.6494 199.848 85.1416 199.577 84.7354 199.213C84.3376 198.849 84.0413 198.388 83.8467 197.829C83.6605 197.262 83.5674 196.589 83.5674 195.811V189.514H80.1016V187.102H83.5674V183.801L86.7412 182.976V187.102H91.7559V189.514H86.7412V195.582C86.7412 196.318 86.9105 196.877 87.249 197.258C87.5876 197.63 88.1546 197.816 88.9502 197.816C89.458 197.816 89.9531 197.774 90.4355 197.689C90.918 197.605 91.3581 197.507 91.7559 197.397V199.873ZM103.715 192.116C103.732 191.634 103.706 191.223 103.639 190.885C103.579 190.546 103.478 190.267 103.334 190.047C103.199 189.827 103.029 189.666 102.826 189.564C102.623 189.463 102.39 189.412 102.128 189.412C101.671 189.412 101.197 189.603 100.706 189.983C100.224 190.356 99.6904 190.974 99.1064 191.837V200H95.9326V187.102H98.7383L98.8525 188.98C99.0641 188.65 99.3011 188.354 99.5635 188.092C99.8343 187.829 100.131 187.605 100.452 187.419C100.782 187.224 101.146 187.076 101.544 186.975C101.942 186.873 102.378 186.822 102.852 186.822C103.503 186.822 104.079 186.937 104.578 187.165C105.086 187.385 105.509 187.715 105.848 188.155C106.195 188.595 106.449 189.15 106.609 189.818C106.779 190.479 106.851 191.244 106.825 192.116H103.715ZM120.942 192.561C120.942 192.772 120.934 193.047 120.917 193.386C120.909 193.724 120.892 194.042 120.866 194.338H112.386C112.386 194.905 112.47 195.404 112.64 195.836C112.817 196.268 113.063 196.632 113.376 196.928C113.698 197.215 114.078 197.436 114.519 197.588C114.967 197.74 115.462 197.816 116.004 197.816C116.63 197.816 117.299 197.77 118.01 197.677C118.729 197.575 119.474 197.414 120.244 197.194V199.657C119.914 199.75 119.554 199.835 119.165 199.911C118.776 199.987 118.378 200.055 117.972 200.114C117.565 200.174 117.155 200.216 116.74 200.241C116.326 200.275 115.924 200.292 115.534 200.292C114.552 200.292 113.672 200.152 112.894 199.873C112.115 199.594 111.455 199.183 110.913 198.642C110.371 198.091 109.957 197.414 109.669 196.61C109.381 195.806 109.237 194.875 109.237 193.817C109.237 192.768 109.381 191.816 109.669 190.961C109.957 190.098 110.363 189.361 110.888 188.752C111.412 188.134 112.047 187.66 112.792 187.33C113.545 186.992 114.383 186.822 115.306 186.822C116.22 186.822 117.028 186.966 117.73 187.254C118.433 187.533 119.021 187.927 119.495 188.435C119.969 188.942 120.329 189.548 120.574 190.25C120.82 190.952 120.942 191.723 120.942 192.561ZM117.794 192.116C117.802 191.608 117.739 191.168 117.604 190.796C117.468 190.415 117.282 190.102 117.045 189.856C116.816 189.611 116.546 189.429 116.232 189.311C115.928 189.192 115.598 189.133 115.242 189.133C114.464 189.133 113.825 189.395 113.325 189.92C112.826 190.436 112.53 191.168 112.437 192.116H117.794ZM135.237 192.561C135.237 192.772 135.229 193.047 135.212 193.386C135.203 193.724 135.187 194.042 135.161 194.338H126.681C126.681 194.905 126.765 195.404 126.935 195.836C127.112 196.268 127.358 196.632 127.671 196.928C127.993 197.215 128.373 197.436 128.813 197.588C129.262 197.74 129.757 197.816 130.299 197.816C130.925 197.816 131.594 197.77 132.305 197.677C133.024 197.575 133.769 197.414 134.539 197.194V199.657C134.209 199.75 133.849 199.835 133.46 199.911C133.071 199.987 132.673 200.055 132.267 200.114C131.86 200.174 131.45 200.216 131.035 200.241C130.62 200.275 130.218 200.292 129.829 200.292C128.847 200.292 127.967 200.152 127.188 199.873C126.41 199.594 125.75 199.183 125.208 198.642C124.666 198.091 124.252 197.414 123.964 196.61C123.676 195.806 123.532 194.875 123.532 193.817C123.532 192.768 123.676 191.816 123.964 190.961C124.252 190.098 124.658 189.361 125.183 188.752C125.707 188.134 126.342 187.66 127.087 187.33C127.84 186.992 128.678 186.822 129.601 186.822C130.515 186.822 131.323 186.966 132.025 187.254C132.728 187.533 133.316 187.927 133.79 188.435C134.264 188.942 134.624 189.548 134.869 190.25C135.115 190.952 135.237 191.723 135.237 192.561ZM132.089 192.116C132.097 191.608 132.034 191.168 131.898 190.796C131.763 190.415 131.577 190.102 131.34 189.856C131.111 189.611 130.84 189.429 130.527 189.311C130.223 189.192 129.893 189.133 129.537 189.133C128.758 189.133 128.119 189.395 127.62 189.92C127.121 190.436 126.825 191.168 126.731 192.116H132.089Z" fill="black"/>
<path d="M586.83 158.116C586.847 157.634 586.822 157.223 586.754 156.885C586.695 156.546 586.593 156.267 586.449 156.047C586.314 155.827 586.145 155.666 585.941 155.564C585.738 155.463 585.506 155.412 585.243 155.412C584.786 155.412 584.312 155.603 583.821 155.983C583.339 156.356 582.806 156.974 582.222 157.837V166H579.048V153.102H581.854L581.968 154.98C582.179 154.65 582.416 154.354 582.679 154.092C582.95 153.829 583.246 153.605 583.567 153.419C583.897 153.224 584.261 153.076 584.659 152.975C585.057 152.873 585.493 152.822 585.967 152.822C586.618 152.822 587.194 152.937 587.693 153.165C588.201 153.385 588.624 153.715 588.963 154.155C589.31 154.595 589.564 155.15 589.725 155.818C589.894 156.479 589.966 157.244 589.94 158.116H586.83ZM600.414 149.572C600.414 149.852 600.363 150.114 600.262 150.359C600.16 150.605 600.016 150.821 599.83 151.007C599.652 151.185 599.441 151.328 599.195 151.438C598.95 151.54 598.683 151.591 598.396 151.591C598.108 151.591 597.837 151.54 597.583 151.438C597.338 151.328 597.122 151.185 596.936 151.007C596.758 150.821 596.618 150.605 596.517 150.359C596.415 150.114 596.364 149.852 596.364 149.572C596.364 149.293 596.415 149.031 596.517 148.785C596.618 148.54 596.758 148.324 596.936 148.138C597.122 147.951 597.338 147.808 597.583 147.706C597.837 147.596 598.108 147.541 598.396 147.541C598.683 147.541 598.95 147.596 599.195 147.706C599.441 147.808 599.652 147.951 599.83 148.138C600.016 148.324 600.16 148.54 600.262 148.785C600.363 149.031 600.414 149.293 600.414 149.572ZM596.986 155.514H593.343V153.102H600.16V163.588H603.88V166H592.898V163.588H596.986V155.514ZM616.791 155.361C617.028 155.658 617.193 155.971 617.286 156.301C617.388 156.622 617.438 156.952 617.438 157.291C617.438 158.01 617.312 158.645 617.058 159.195C616.812 159.745 616.461 160.207 616.004 160.579C615.555 160.951 615.014 161.235 614.379 161.43C613.753 161.616 613.059 161.709 612.297 161.709C611.848 161.709 611.434 161.667 611.053 161.582C610.672 161.489 610.384 161.383 610.189 161.265C610.046 161.409 609.923 161.569 609.821 161.747C609.72 161.916 609.669 162.111 609.669 162.331C609.669 162.466 609.703 162.602 609.771 162.737C609.838 162.873 609.936 162.995 610.062 163.105C610.198 163.207 610.354 163.292 610.532 163.359C610.718 163.427 610.926 163.465 611.154 163.474L614.214 163.588C614.899 163.605 615.517 163.694 616.067 163.854C616.626 164.007 617.104 164.227 617.502 164.515C617.9 164.802 618.204 165.154 618.416 165.568C618.636 165.975 618.746 166.44 618.746 166.965C618.746 167.566 618.611 168.133 618.34 168.666C618.069 169.199 617.659 169.66 617.108 170.05C616.567 170.448 615.89 170.761 615.077 170.989C614.265 171.218 613.321 171.332 612.246 171.332C611.205 171.332 610.308 171.247 609.555 171.078C608.81 170.917 608.196 170.689 607.714 170.393C607.24 170.096 606.889 169.741 606.66 169.326C606.432 168.92 606.317 168.471 606.317 167.98C606.317 167.684 606.355 167.409 606.432 167.155C606.508 166.901 606.622 166.656 606.774 166.419C606.927 166.19 607.117 165.966 607.346 165.746C607.574 165.526 607.845 165.306 608.158 165.086C607.743 164.849 607.426 164.544 607.206 164.172C606.994 163.799 606.889 163.402 606.889 162.979C606.889 162.691 606.927 162.424 607.003 162.179C607.079 161.925 607.176 161.684 607.295 161.455C607.422 161.227 607.566 161.007 607.727 160.795C607.887 160.583 608.057 160.376 608.234 160.173C607.921 159.86 607.659 159.483 607.447 159.043C607.244 158.594 607.143 158.036 607.143 157.367C607.143 156.648 607.27 156.009 607.523 155.45C607.786 154.883 608.146 154.409 608.603 154.028C609.06 153.639 609.601 153.347 610.228 153.152C610.862 152.949 611.552 152.848 612.297 152.848C612.678 152.848 613.042 152.869 613.389 152.911C613.744 152.945 614.066 153.008 614.354 153.102H618.822V155.361H616.791ZM609.491 167.714C609.491 168.213 609.741 168.581 610.24 168.818C610.748 169.055 611.459 169.174 612.373 169.174C612.957 169.174 613.448 169.119 613.846 169.009C614.252 168.899 614.582 168.755 614.836 168.577C615.09 168.399 615.272 168.192 615.382 167.955C615.492 167.718 615.547 167.473 615.547 167.219C615.547 166.99 615.492 166.796 615.382 166.635C615.28 166.482 615.132 166.351 614.938 166.241C614.751 166.14 614.527 166.059 614.265 166C614.011 165.949 613.727 165.915 613.414 165.898L610.685 165.848C610.439 166.017 610.236 166.178 610.075 166.33C609.923 166.482 609.8 166.631 609.707 166.774C609.622 166.927 609.563 167.079 609.529 167.231C609.504 167.384 609.491 167.545 609.491 167.714ZM610.012 157.367C610.012 158.053 610.211 158.599 610.608 159.005C611.015 159.403 611.577 159.602 612.297 159.602C612.678 159.602 613.008 159.538 613.287 159.411C613.575 159.284 613.812 159.115 613.998 158.903C614.184 158.692 614.324 158.446 614.417 158.167C614.51 157.888 614.557 157.596 614.557 157.291C614.557 156.572 614.354 156.013 613.947 155.615C613.549 155.209 612.991 155.006 612.271 155.006C611.891 155.006 611.556 155.069 611.269 155.196C610.989 155.323 610.757 155.497 610.57 155.717C610.384 155.928 610.244 156.178 610.151 156.466C610.058 156.754 610.012 157.054 610.012 157.367ZM629.105 166V157.596C629.105 156.182 628.581 155.476 627.531 155.476C627.007 155.476 626.503 155.687 626.021 156.11C625.547 156.534 625.043 157.109 624.51 157.837V166H621.412V148.062H624.51V152.479L624.357 154.815C624.62 154.502 624.886 154.223 625.157 153.978C625.428 153.724 625.72 153.512 626.033 153.343C626.346 153.174 626.685 153.047 627.049 152.962C627.413 152.869 627.815 152.822 628.255 152.822C628.915 152.822 629.491 152.932 629.981 153.152C630.472 153.364 630.883 153.669 631.213 154.066C631.543 154.456 631.788 154.93 631.949 155.488C632.118 156.038 632.203 156.656 632.203 157.342V166H629.105ZM646.346 165.873C645.787 166 645.224 166.102 644.657 166.178C644.09 166.254 643.553 166.292 643.045 166.292C642.199 166.292 641.466 166.203 640.849 166.025C640.239 165.848 639.731 165.577 639.325 165.213C638.927 164.849 638.631 164.388 638.437 163.829C638.25 163.262 638.157 162.589 638.157 161.811V155.514H634.691V153.102H638.157V149.801L641.331 148.976V153.102H646.346V155.514H641.331V161.582C641.331 162.318 641.5 162.877 641.839 163.258C642.177 163.63 642.744 163.816 643.54 163.816C644.048 163.816 644.543 163.774 645.025 163.689C645.508 163.605 645.948 163.507 646.346 163.397V165.873ZM574.871 196.204C574.871 196.94 574.706 197.571 574.376 198.096C574.054 198.612 573.623 199.035 573.081 199.365C572.548 199.687 571.938 199.92 571.253 200.063C570.576 200.216 569.882 200.292 569.171 200.292C568.223 200.292 567.368 200.245 566.606 200.152C565.845 200.068 565.125 199.941 564.448 199.771V196.979C565.244 197.309 566.035 197.55 566.822 197.702C567.618 197.846 568.367 197.918 569.069 197.918C569.882 197.918 570.487 197.791 570.885 197.537C571.291 197.275 571.494 196.936 571.494 196.521C571.494 196.327 571.452 196.149 571.367 195.988C571.283 195.827 571.122 195.675 570.885 195.531C570.656 195.379 570.33 195.227 569.907 195.074C569.484 194.913 568.93 194.736 568.244 194.541C567.609 194.363 567.051 194.164 566.568 193.944C566.094 193.716 565.701 193.449 565.388 193.145C565.075 192.84 564.838 192.489 564.677 192.091C564.524 191.685 564.448 191.211 564.448 190.669C564.448 190.144 564.567 189.649 564.804 189.184C565.041 188.718 565.392 188.312 565.857 187.965C566.331 187.609 566.92 187.33 567.622 187.127C568.325 186.924 569.146 186.822 570.085 186.822C570.897 186.822 571.617 186.865 572.243 186.949C572.869 187.034 573.424 187.127 573.906 187.229V189.755C573.17 189.518 572.476 189.353 571.824 189.26C571.181 189.158 570.542 189.107 569.907 189.107C569.272 189.107 568.76 189.222 568.371 189.45C567.99 189.679 567.8 189.996 567.8 190.402C567.8 190.597 567.838 190.771 567.914 190.923C567.99 191.075 568.138 191.223 568.358 191.367C568.587 191.511 568.9 191.663 569.298 191.824C569.704 191.977 570.237 192.146 570.897 192.332C571.642 192.544 572.269 192.772 572.776 193.018C573.284 193.255 573.69 193.525 573.995 193.83C574.308 194.135 574.533 194.482 574.668 194.871C574.803 195.26 574.871 195.705 574.871 196.204ZM581.6 187.102V195.506C581.6 196.208 581.731 196.742 581.993 197.105C582.256 197.461 582.653 197.639 583.187 197.639C583.703 197.639 584.198 197.427 584.672 197.004C585.154 196.572 585.662 195.993 586.195 195.265V187.102H589.293V200H586.614L586.538 198.096C586.267 198.426 585.992 198.726 585.713 198.997C585.434 199.268 585.129 199.501 584.799 199.695C584.477 199.882 584.122 200.025 583.732 200.127C583.352 200.237 582.928 200.292 582.463 200.292C581.803 200.292 581.223 200.186 580.724 199.975C580.233 199.755 579.822 199.446 579.492 199.048C579.162 198.65 578.912 198.176 578.743 197.626C578.582 197.067 578.502 196.445 578.502 195.76V187.102H581.6ZM604.426 193.322C604.426 194.507 604.257 195.531 603.918 196.395C603.588 197.258 603.122 197.977 602.521 198.553C601.929 199.12 601.227 199.543 600.414 199.822C599.602 200.093 598.717 200.229 597.761 200.229C596.821 200.229 595.945 200.157 595.133 200.013C594.329 199.877 593.559 199.691 592.822 199.454V182.062H595.92V186.276L595.793 188.815C596.258 188.215 596.8 187.732 597.418 187.368C598.044 187.004 598.793 186.822 599.665 186.822C600.427 186.822 601.104 186.975 601.696 187.279C602.289 187.584 602.784 188.02 603.182 188.587C603.588 189.146 603.897 189.827 604.108 190.631C604.32 191.426 604.426 192.324 604.426 193.322ZM601.176 193.449C601.176 192.738 601.125 192.133 601.023 191.634C600.922 191.134 600.774 190.724 600.579 190.402C600.393 190.081 600.16 189.848 599.881 189.704C599.61 189.552 599.297 189.476 598.941 189.476C598.417 189.476 597.913 189.687 597.431 190.11C596.957 190.534 596.453 191.109 595.92 191.837V197.474C596.165 197.567 596.466 197.643 596.821 197.702C597.185 197.761 597.553 197.791 597.926 197.791C598.417 197.791 598.861 197.689 599.259 197.486C599.665 197.283 600.008 196.995 600.287 196.623C600.575 196.251 600.795 195.798 600.947 195.265C601.1 194.723 601.176 194.118 601.176 193.449ZM617.756 199.873C617.197 200 616.634 200.102 616.067 200.178C615.5 200.254 614.963 200.292 614.455 200.292C613.609 200.292 612.877 200.203 612.259 200.025C611.649 199.848 611.142 199.577 610.735 199.213C610.338 198.849 610.041 198.388 609.847 197.829C609.66 197.262 609.567 196.589 609.567 195.811V189.514H606.102V187.102H609.567V183.801L612.741 182.976V187.102H617.756V189.514H612.741V195.582C612.741 196.318 612.91 196.877 613.249 197.258C613.588 197.63 614.155 197.816 614.95 197.816C615.458 197.816 615.953 197.774 616.436 197.689C616.918 197.605 617.358 197.507 617.756 197.397V199.873ZM629.715 192.116C629.732 191.634 629.706 191.223 629.639 190.885C629.579 190.546 629.478 190.267 629.334 190.047C629.199 189.827 629.029 189.666 628.826 189.564C628.623 189.463 628.39 189.412 628.128 189.412C627.671 189.412 627.197 189.603 626.706 189.983C626.224 190.356 625.69 190.974 625.106 191.837V200H621.933V187.102H624.738L624.853 188.98C625.064 188.65 625.301 188.354 625.563 188.092C625.834 187.829 626.131 187.605 626.452 187.419C626.782 187.224 627.146 187.076 627.544 186.975C627.942 186.873 628.378 186.822 628.852 186.822C629.503 186.822 630.079 186.937 630.578 187.165C631.086 187.385 631.509 187.715 631.848 188.155C632.195 188.595 632.449 189.15 632.609 189.818C632.779 190.479 632.851 191.244 632.825 192.116H629.715ZM646.942 192.561C646.942 192.772 646.934 193.047 646.917 193.386C646.909 193.724 646.892 194.042 646.866 194.338H638.386C638.386 194.905 638.47 195.404 638.64 195.836C638.817 196.268 639.063 196.632 639.376 196.928C639.698 197.215 640.078 197.436 640.519 197.588C640.967 197.74 641.462 197.816 642.004 197.816C642.63 197.816 643.299 197.77 644.01 197.677C644.729 197.575 645.474 197.414 646.244 197.194V199.657C645.914 199.75 645.554 199.835 645.165 199.911C644.776 199.987 644.378 200.055 643.972 200.114C643.565 200.174 643.155 200.216 642.74 200.241C642.326 200.275 641.924 200.292 641.534 200.292C640.552 200.292 639.672 200.152 638.894 199.873C638.115 199.594 637.455 199.183 636.913 198.642C636.371 198.091 635.957 197.414 635.669 196.61C635.381 195.806 635.237 194.875 635.237 193.817C635.237 192.768 635.381 191.816 635.669 190.961C635.957 190.098 636.363 189.361 636.888 188.752C637.412 188.134 638.047 187.66 638.792 187.33C639.545 186.992 640.383 186.822 641.306 186.822C642.22 186.822 643.028 186.966 643.73 187.254C644.433 187.533 645.021 187.927 645.495 188.435C645.969 188.942 646.329 189.548 646.574 190.25C646.82 190.952 646.942 191.723 646.942 192.561ZM643.794 192.116C643.802 191.608 643.739 191.168 643.604 190.796C643.468 190.415 643.282 190.102 643.045 189.856C642.816 189.611 642.546 189.429 642.232 189.311C641.928 189.192 641.598 189.133 641.242 189.133C640.464 189.133 639.825 189.395 639.325 189.92C638.826 190.436 638.53 191.168 638.437 192.116H643.794ZM661.237 192.561C661.237 192.772 661.229 193.047 661.212 193.386C661.203 193.724 661.187 194.042 661.161 194.338H652.681C652.681 194.905 652.765 195.404 652.935 195.836C653.112 196.268 653.358 196.632 653.671 196.928C653.993 197.215 654.373 197.436 654.813 197.588C655.262 197.74 655.757 197.816 656.299 197.816C656.925 197.816 657.594 197.77 658.305 197.677C659.024 197.575 659.769 197.414 660.539 197.194V199.657C660.209 199.75 659.849 199.835 659.46 199.911C659.071 199.987 658.673 200.055 658.267 200.114C657.86 200.174 657.45 200.216 657.035 200.241C656.62 200.275 656.218 200.292 655.829 200.292C654.847 200.292 653.967 200.152 653.188 199.873C652.41 199.594 651.75 199.183 651.208 198.642C650.666 198.091 650.252 197.414 649.964 196.61C649.676 195.806 649.532 194.875 649.532 193.817C649.532 192.768 649.676 191.816 649.964 190.961C650.252 190.098 650.658 189.361 651.183 188.752C651.707 188.134 652.342 187.66 653.087 187.33C653.84 186.992 654.678 186.822 655.601 186.822C656.515 186.822 657.323 186.966 658.025 187.254C658.728 187.533 659.316 187.927 659.79 188.435C660.264 188.942 660.624 189.548 660.869 190.25C661.115 190.952 661.237 191.723 661.237 192.561ZM658.089 192.116C658.097 191.608 658.034 191.168 657.898 190.796C657.763 190.415 657.577 190.102 657.34 189.856C657.111 189.611 656.84 189.429 656.527 189.311C656.223 189.192 655.893 189.133 655.537 189.133C654.758 189.133 654.119 189.395 653.62 189.92C653.121 190.436 652.825 191.168 652.731 192.116H658.089Z" fill="black"/>
<path d="M291.206 85.5C294.67 79.5 303.33 79.5 306.794 85.5L384.736 220.5C388.201 226.5 383.87 234 376.942 234H221.058C214.13 234 209.799 226.5 213.263 220.5L291.206 85.5Z" fill="#FAF0FF" stroke="#AE0DFF" stroke-width="2"/>
<path d="M274.83 158.116C274.847 157.634 274.822 157.223 274.754 156.885C274.695 156.546 274.593 156.267 274.449 156.047C274.314 155.827 274.145 155.666 273.941 155.564C273.738 155.463 273.506 155.412 273.243 155.412C272.786 155.412 272.312 155.603 271.821 155.983C271.339 156.356 270.806 156.974 270.222 157.837V166H267.048V153.102H269.854L269.968 154.98C270.179 154.65 270.416 154.354 270.679 154.092C270.95 153.829 271.246 153.605 271.567 153.419C271.897 153.224 272.261 153.076 272.659 152.975C273.057 152.873 273.493 152.822 273.967 152.822C274.618 152.822 275.194 152.937 275.693 153.165C276.201 153.385 276.624 153.715 276.963 154.155C277.31 154.595 277.564 155.15 277.725 155.818C277.894 156.479 277.966 157.244 277.94 158.116H274.83ZM288.414 149.572C288.414 149.852 288.363 150.114 288.262 150.359C288.16 150.605 288.016 150.821 287.83 151.007C287.652 151.185 287.441 151.328 287.195 151.438C286.95 151.54 286.683 151.591 286.396 151.591C286.108 151.591 285.837 151.54 285.583 151.438C285.338 151.328 285.122 151.185 284.936 151.007C284.758 150.821 284.618 150.605 284.517 150.359C284.415 150.114 284.364 149.852 284.364 149.572C284.364 149.293 284.415 149.031 284.517 148.785C284.618 148.54 284.758 148.324 284.936 148.138C285.122 147.951 285.338 147.808 285.583 147.706C285.837 147.596 286.108 147.541 286.396 147.541C286.683 147.541 286.95 147.596 287.195 147.706C287.441 147.808 287.652 147.951 287.83 148.138C288.016 148.324 288.16 148.54 288.262 148.785C288.363 149.031 288.414 149.293 288.414 149.572ZM284.986 155.514H281.343V153.102H288.16V163.588H291.88V166H280.898V163.588H284.986V155.514ZM304.791 155.361C305.028 155.658 305.193 155.971 305.286 156.301C305.388 156.622 305.438 156.952 305.438 157.291C305.438 158.01 305.312 158.645 305.058 159.195C304.812 159.745 304.461 160.207 304.004 160.579C303.555 160.951 303.014 161.235 302.379 161.43C301.753 161.616 301.059 161.709 300.297 161.709C299.848 161.709 299.434 161.667 299.053 161.582C298.672 161.489 298.384 161.383 298.189 161.265C298.046 161.409 297.923 161.569 297.821 161.747C297.72 161.916 297.669 162.111 297.669 162.331C297.669 162.466 297.703 162.602 297.771 162.737C297.838 162.873 297.936 162.995 298.062 163.105C298.198 163.207 298.354 163.292 298.532 163.359C298.718 163.427 298.926 163.465 299.154 163.474L302.214 163.588C302.899 163.605 303.517 163.694 304.067 163.854C304.626 164.007 305.104 164.227 305.502 164.515C305.9 164.802 306.204 165.154 306.416 165.568C306.636 165.975 306.746 166.44 306.746 166.965C306.746 167.566 306.611 168.133 306.34 168.666C306.069 169.199 305.659 169.66 305.108 170.05C304.567 170.448 303.89 170.761 303.077 170.989C302.265 171.218 301.321 171.332 300.246 171.332C299.205 171.332 298.308 171.247 297.555 171.078C296.81 170.917 296.196 170.689 295.714 170.393C295.24 170.096 294.889 169.741 294.66 169.326C294.432 168.92 294.317 168.471 294.317 167.98C294.317 167.684 294.355 167.409 294.432 167.155C294.508 166.901 294.622 166.656 294.774 166.419C294.927 166.19 295.117 165.966 295.346 165.746C295.574 165.526 295.845 165.306 296.158 165.086C295.743 164.849 295.426 164.544 295.206 164.172C294.994 163.799 294.889 163.402 294.889 162.979C294.889 162.691 294.927 162.424 295.003 162.179C295.079 161.925 295.176 161.684 295.295 161.455C295.422 161.227 295.566 161.007 295.727 160.795C295.887 160.583 296.057 160.376 296.234 160.173C295.921 159.86 295.659 159.483 295.447 159.043C295.244 158.594 295.143 158.036 295.143 157.367C295.143 156.648 295.27 156.009 295.523 155.45C295.786 154.883 296.146 154.409 296.603 154.028C297.06 153.639 297.601 153.347 298.228 153.152C298.862 152.949 299.552 152.848 300.297 152.848C300.678 152.848 301.042 152.869 301.389 152.911C301.744 152.945 302.066 153.008 302.354 153.102H306.822V155.361H304.791ZM297.491 167.714C297.491 168.213 297.741 168.581 298.24 168.818C298.748 169.055 299.459 169.174 300.373 169.174C300.957 169.174 301.448 169.119 301.846 169.009C302.252 168.899 302.582 168.755 302.836 168.577C303.09 168.399 303.272 168.192 303.382 167.955C303.492 167.718 303.547 167.473 303.547 167.219C303.547 166.99 303.492 166.796 303.382 166.635C303.28 166.482 303.132 166.351 302.938 166.241C302.751 166.14 302.527 166.059 302.265 166C302.011 165.949 301.727 165.915 301.414 165.898L298.685 165.848C298.439 166.017 298.236 166.178 298.075 166.33C297.923 166.482 297.8 166.631 297.707 166.774C297.622 166.927 297.563 167.079 297.529 167.231C297.504 167.384 297.491 167.545 297.491 167.714ZM298.012 157.367C298.012 158.053 298.211 158.599 298.608 159.005C299.015 159.403 299.577 159.602 300.297 159.602C300.678 159.602 301.008 159.538 301.287 159.411C301.575 159.284 301.812 159.115 301.998 158.903C302.184 158.692 302.324 158.446 302.417 158.167C302.51 157.888 302.557 157.596 302.557 157.291C302.557 156.572 302.354 156.013 301.947 155.615C301.549 155.209 300.991 155.006 300.271 155.006C299.891 155.006 299.556 155.069 299.269 155.196C298.989 155.323 298.757 155.497 298.57 155.717C298.384 155.928 298.244 156.178 298.151 156.466C298.058 156.754 298.012 157.054 298.012 157.367ZM317.105 166V157.596C317.105 156.182 316.581 155.476 315.531 155.476C315.007 155.476 314.503 155.687 314.021 156.11C313.547 156.534 313.043 157.109 312.51 157.837V166H309.412V148.062H312.51V152.479L312.357 154.815C312.62 154.502 312.886 154.223 313.157 153.978C313.428 153.724 313.72 153.512 314.033 153.343C314.346 153.174 314.685 153.047 315.049 152.962C315.413 152.869 315.815 152.822 316.255 152.822C316.915 152.822 317.491 152.932 317.981 153.152C318.472 153.364 318.883 153.669 319.213 154.066C319.543 154.456 319.788 154.93 319.949 155.488C320.118 156.038 320.203 156.656 320.203 157.342V166H317.105ZM334.346 165.873C333.787 166 333.224 166.102 332.657 166.178C332.09 166.254 331.553 166.292 331.045 166.292C330.199 166.292 329.466 166.203 328.849 166.025C328.239 165.848 327.731 165.577 327.325 165.213C326.927 164.849 326.631 164.388 326.437 163.829C326.25 163.262 326.157 162.589 326.157 161.811V155.514H322.691V153.102H326.157V149.801L329.331 148.976V153.102H334.346V155.514H329.331V161.582C329.331 162.318 329.5 162.877 329.839 163.258C330.177 163.63 330.744 163.816 331.54 163.816C332.048 163.816 332.543 163.774 333.025 163.689C333.508 163.605 333.948 163.507 334.346 163.397V165.873ZM262.871 196.204C262.871 196.94 262.706 197.571 262.376 198.096C262.054 198.612 261.623 199.035 261.081 199.365C260.548 199.687 259.938 199.92 259.253 200.063C258.576 200.216 257.882 200.292 257.171 200.292C256.223 200.292 255.368 200.245 254.606 200.152C253.845 200.068 253.125 199.941 252.448 199.771V196.979C253.244 197.309 254.035 197.55 254.822 197.702C255.618 197.846 256.367 197.918 257.069 197.918C257.882 197.918 258.487 197.791 258.885 197.537C259.291 197.275 259.494 196.936 259.494 196.521C259.494 196.327 259.452 196.149 259.367 195.988C259.283 195.827 259.122 195.675 258.885 195.531C258.656 195.379 258.33 195.227 257.907 195.074C257.484 194.913 256.93 194.736 256.244 194.541C255.609 194.363 255.051 194.164 254.568 193.944C254.094 193.716 253.701 193.449 253.388 193.145C253.075 192.84 252.838 192.489 252.677 192.091C252.524 191.685 252.448 191.211 252.448 190.669C252.448 190.144 252.567 189.649 252.804 189.184C253.041 188.718 253.392 188.312 253.857 187.965C254.331 187.609 254.92 187.33 255.622 187.127C256.325 186.924 257.146 186.822 258.085 186.822C258.897 186.822 259.617 186.865 260.243 186.949C260.869 187.034 261.424 187.127 261.906 187.229V189.755C261.17 189.518 260.476 189.353 259.824 189.26C259.181 189.158 258.542 189.107 257.907 189.107C257.272 189.107 256.76 189.222 256.371 189.45C255.99 189.679 255.8 189.996 255.8 190.402C255.8 190.597 255.838 190.771 255.914 190.923C255.99 191.075 256.138 191.223 256.358 191.367C256.587 191.511 256.9 191.663 257.298 191.824C257.704 191.977 258.237 192.146 258.897 192.332C259.642 192.544 260.269 192.772 260.776 193.018C261.284 193.255 261.69 193.525 261.995 193.83C262.308 194.135 262.533 194.482 262.668 194.871C262.803 195.26 262.871 195.705 262.871 196.204ZM269.6 187.102V195.506C269.6 196.208 269.731 196.742 269.993 197.105C270.256 197.461 270.653 197.639 271.187 197.639C271.703 197.639 272.198 197.427 272.672 197.004C273.154 196.572 273.662 195.993 274.195 195.265V187.102H277.293V200H274.614L274.538 198.096C274.267 198.426 273.992 198.726 273.713 198.997C273.434 199.268 273.129 199.501 272.799 199.695C272.477 199.882 272.122 200.025 271.732 200.127C271.352 200.237 270.928 200.292 270.463 200.292C269.803 200.292 269.223 200.186 268.724 199.975C268.233 199.755 267.822 199.446 267.492 199.048C267.162 198.65 266.912 198.176 266.743 197.626C266.582 197.067 266.502 196.445 266.502 195.76V187.102H269.6ZM292.426 193.322C292.426 194.507 292.257 195.531 291.918 196.395C291.588 197.258 291.122 197.977 290.521 198.553C289.929 199.12 289.227 199.543 288.414 199.822C287.602 200.093 286.717 200.229 285.761 200.229C284.821 200.229 283.945 200.157 283.133 200.013C282.329 199.877 281.559 199.691 280.822 199.454V182.062H283.92V186.276L283.793 188.815C284.258 188.215 284.8 187.732 285.418 187.368C286.044 187.004 286.793 186.822 287.665 186.822C288.427 186.822 289.104 186.975 289.696 187.279C290.289 187.584 290.784 188.02 291.182 188.587C291.588 189.146 291.897 189.827 292.108 190.631C292.32 191.426 292.426 192.324 292.426 193.322ZM289.176 193.449C289.176 192.738 289.125 192.133 289.023 191.634C288.922 191.134 288.774 190.724 288.579 190.402C288.393 190.081 288.16 189.848 287.881 189.704C287.61 189.552 287.297 189.476 286.941 189.476C286.417 189.476 285.913 189.687 285.431 190.11C284.957 190.534 284.453 191.109 283.92 191.837V197.474C284.165 197.567 284.466 197.643 284.821 197.702C285.185 197.761 285.553 197.791 285.926 197.791C286.417 197.791 286.861 197.689 287.259 197.486C287.665 197.283 288.008 196.995 288.287 196.623C288.575 196.251 288.795 195.798 288.947 195.265C289.1 194.723 289.176 194.118 289.176 193.449ZM305.756 199.873C305.197 200 304.634 200.102 304.067 200.178C303.5 200.254 302.963 200.292 302.455 200.292C301.609 200.292 300.877 200.203 300.259 200.025C299.649 199.848 299.142 199.577 298.735 199.213C298.338 198.849 298.041 198.388 297.847 197.829C297.66 197.262 297.567 196.589 297.567 195.811V189.514H294.102V187.102H297.567V183.801L300.741 182.976V187.102H305.756V189.514H300.741V195.582C300.741 196.318 300.91 196.877 301.249 197.258C301.588 197.63 302.155 197.816 302.95 197.816C303.458 197.816 303.953 197.774 304.436 197.689C304.918 197.605 305.358 197.507 305.756 197.397V199.873ZM317.715 192.116C317.732 191.634 317.706 191.223 317.639 190.885C317.579 190.546 317.478 190.267 317.334 190.047C317.199 189.827 317.029 189.666 316.826 189.564C316.623 189.463 316.39 189.412 316.128 189.412C315.671 189.412 315.197 189.603 314.706 189.983C314.224 190.356 313.69 190.974 313.106 191.837V200H309.933V187.102H312.738L312.853 188.98C313.064 188.65 313.301 188.354 313.563 188.092C313.834 187.829 314.131 187.605 314.452 187.419C314.782 187.224 315.146 187.076 315.544 186.975C315.942 186.873 316.378 186.822 316.852 186.822C317.503 186.822 318.079 186.937 318.578 187.165C319.086 187.385 319.509 187.715 319.848 188.155C320.195 188.595 320.449 189.15 320.609 189.818C320.779 190.479 320.851 191.244 320.825 192.116H317.715ZM334.942 192.561C334.942 192.772 334.934 193.047 334.917 193.386C334.909 193.724 334.892 194.042 334.866 194.338H326.386C326.386 194.905 326.47 195.404 326.64 195.836C326.817 196.268 327.063 196.632 327.376 196.928C327.698 197.215 328.078 197.436 328.519 197.588C328.967 197.74 329.462 197.816 330.004 197.816C330.63 197.816 331.299 197.77 332.01 197.677C332.729 197.575 333.474 197.414 334.244 197.194V199.657C333.914 199.75 333.554 199.835 333.165 199.911C332.776 199.987 332.378 200.055 331.972 200.114C331.565 200.174 331.155 200.216 330.74 200.241C330.326 200.275 329.924 200.292 329.534 200.292C328.552 200.292 327.672 200.152 326.894 199.873C326.115 199.594 325.455 199.183 324.913 198.642C324.371 198.091 323.957 197.414 323.669 196.61C323.381 195.806 323.237 194.875 323.237 193.817C323.237 192.768 323.381 191.816 323.669 190.961C323.957 190.098 324.363 189.361 324.888 188.752C325.412 188.134 326.047 187.66 326.792 187.33C327.545 186.992 328.383 186.822 329.306 186.822C330.22 186.822 331.028 186.966 331.73 187.254C332.433 187.533 333.021 187.927 333.495 188.435C333.969 188.942 334.329 189.548 334.574 190.25C334.82 190.952 334.942 191.723 334.942 192.561ZM331.794 192.116C331.802 191.608 331.739 191.168 331.604 190.796C331.468 190.415 331.282 190.102 331.045 189.856C330.816 189.611 330.546 189.429 330.232 189.311C329.928 189.192 329.598 189.133 329.242 189.133C328.464 189.133 327.825 189.395 327.325 189.92C326.826 190.436 326.53 191.168 326.437 192.116H331.794ZM349.237 192.561C349.237 192.772 349.229 193.047 349.212 193.386C349.203 193.724 349.187 194.042 349.161 194.338H340.681C340.681 194.905 340.765 195.404 340.935 195.836C341.112 196.268 341.358 196.632 341.671 196.928C341.993 197.215 342.373 197.436 342.813 197.588C343.262 197.74 343.757 197.816 344.299 197.816C344.925 197.816 345.594 197.77 346.305 197.677C347.024 197.575 347.769 197.414 348.539 197.194V199.657C348.209 199.75 347.849 199.835 347.46 199.911C347.071 199.987 346.673 200.055 346.267 200.114C345.86 200.174 345.45 200.216 345.035 200.241C344.62 200.275 344.218 200.292 343.829 200.292C342.847 200.292 341.967 200.152 341.188 199.873C340.41 199.594 339.75 199.183 339.208 198.642C338.666 198.091 338.252 197.414 337.964 196.61C337.676 195.806 337.532 194.875 337.532 193.817C337.532 192.768 337.676 191.816 337.964 190.961C338.252 190.098 338.658 189.361 339.183 188.752C339.707 188.134 340.342 187.66 341.087 187.33C341.84 186.992 342.678 186.822 343.601 186.822C344.515 186.822 345.323 186.966 346.025 187.254C346.728 187.533 347.316 187.927 347.79 188.435C348.264 188.942 348.624 189.548 348.869 190.25C349.115 190.952 349.237 191.723 349.237 192.561ZM346.089 192.116C346.097 191.608 346.034 191.168 345.898 190.796C345.763 190.415 345.577 190.102 345.34 189.856C345.111 189.611 344.84 189.429 344.527 189.311C344.223 189.192 343.893 189.133 343.537 189.133C342.758 189.133 342.119 189.395 341.62 189.92C341.121 190.436 340.825 191.168 340.731 192.116H346.089Z" fill="black"/>
<path d="M799.839 150.474H796.195V148.062H803.013V163.588H806.732V166H795.751V163.588H799.839V150.474ZM821.205 158.561C821.205 158.772 821.197 159.047 821.18 159.386C821.171 159.724 821.154 160.042 821.129 160.338H812.648C812.648 160.905 812.733 161.404 812.902 161.836C813.08 162.268 813.326 162.632 813.639 162.928C813.96 163.215 814.341 163.436 814.781 163.588C815.23 163.74 815.725 163.816 816.267 163.816C816.893 163.816 817.562 163.77 818.272 163.677C818.992 163.575 819.737 163.414 820.507 163.194V165.657C820.177 165.75 819.817 165.835 819.428 165.911C819.038 165.987 818.641 166.055 818.234 166.114C817.828 166.174 817.418 166.216 817.003 166.241C816.588 166.275 816.186 166.292 815.797 166.292C814.815 166.292 813.935 166.152 813.156 165.873C812.378 165.594 811.717 165.183 811.176 164.642C810.634 164.091 810.219 163.414 809.932 162.61C809.644 161.806 809.5 160.875 809.5 159.817C809.5 158.768 809.644 157.816 809.932 156.961C810.219 156.098 810.626 155.361 811.15 154.752C811.675 154.134 812.31 153.66 813.055 153.33C813.808 152.992 814.646 152.822 815.568 152.822C816.482 152.822 817.291 152.966 817.993 153.254C818.696 153.533 819.284 153.927 819.758 154.435C820.232 154.942 820.591 155.548 820.837 156.25C821.082 156.952 821.205 157.723 821.205 158.561ZM818.057 158.116C818.065 157.608 818.002 157.168 817.866 156.796C817.731 156.415 817.545 156.102 817.308 155.856C817.079 155.611 816.808 155.429 816.495 155.311C816.19 155.192 815.86 155.133 815.505 155.133C814.726 155.133 814.087 155.395 813.588 155.92C813.089 156.436 812.792 157.168 812.699 158.116H818.057ZM835.843 150.689C835.47 150.571 835.026 150.474 834.51 150.397C834.002 150.313 833.481 150.271 832.948 150.271C832.584 150.271 832.246 150.321 831.933 150.423C831.619 150.516 831.349 150.668 831.12 150.88C830.892 151.091 830.71 151.362 830.574 151.692C830.447 152.014 830.384 152.408 830.384 152.873V154.955H835.449V157.367H830.384V166H827.261V157.367H823.516V154.955H827.261V153C827.261 152.086 827.392 151.303 827.654 150.651C827.925 149.991 828.302 149.454 828.784 149.039C829.275 148.616 829.863 148.307 830.549 148.112C831.234 147.918 832 147.82 832.847 147.82C833.405 147.82 833.934 147.858 834.434 147.935C834.941 148.002 835.411 148.087 835.843 148.188V150.689ZM849.198 165.873C848.64 166 848.077 166.102 847.51 166.178C846.943 166.254 846.405 166.292 845.897 166.292C845.051 166.292 844.319 166.203 843.701 166.025C843.092 165.848 842.584 165.577 842.178 165.213C841.78 164.849 841.484 164.388 841.289 163.829C841.103 163.262 841.01 162.589 841.01 161.811V155.514H837.544V153.102H841.01V149.801L844.184 148.976V153.102H849.198V155.514H844.184V161.582C844.184 162.318 844.353 162.877 844.691 163.258C845.03 163.63 845.597 163.816 846.393 163.816C846.9 163.816 847.396 163.774 847.878 163.689C848.36 163.605 848.8 163.507 849.198 163.397V165.873ZM784.871 196.204C784.871 196.94 784.706 197.571 784.376 198.096C784.054 198.612 783.623 199.035 783.081 199.365C782.548 199.687 781.938 199.92 781.253 200.063C780.576 200.216 779.882 200.292 779.171 200.292C778.223 200.292 777.368 200.245 776.606 200.152C775.845 200.068 775.125 199.941 774.448 199.771V196.979C775.244 197.309 776.035 197.55 776.822 197.702C777.618 197.846 778.367 197.918 779.069 197.918C779.882 197.918 780.487 197.791 780.885 197.537C781.291 197.275 781.494 196.936 781.494 196.521C781.494 196.327 781.452 196.149 781.367 195.988C781.283 195.827 781.122 195.675 780.885 195.531C780.656 195.379 780.33 195.227 779.907 195.074C779.484 194.913 778.93 194.736 778.244 194.541C777.609 194.363 777.051 194.164 776.568 193.944C776.094 193.716 775.701 193.449 775.388 193.145C775.075 192.84 774.838 192.489 774.677 192.091C774.524 191.685 774.448 191.211 774.448 190.669C774.448 190.144 774.567 189.649 774.804 189.184C775.041 188.718 775.392 188.312 775.857 187.965C776.331 187.609 776.92 187.33 777.622 187.127C778.325 186.924 779.146 186.822 780.085 186.822C780.897 186.822 781.617 186.865 782.243 186.949C782.869 187.034 783.424 187.127 783.906 187.229V189.755C783.17 189.518 782.476 189.353 781.824 189.26C781.181 189.158 780.542 189.107 779.907 189.107C779.272 189.107 778.76 189.222 778.371 189.45C777.99 189.679 777.8 189.996 777.8 190.402C777.8 190.597 777.838 190.771 777.914 190.923C777.99 191.075 778.138 191.223 778.358 191.367C778.587 191.511 778.9 191.663 779.298 191.824C779.704 191.977 780.237 192.146 780.897 192.332C781.642 192.544 782.269 192.772 782.776 193.018C783.284 193.255 783.69 193.525 783.995 193.83C784.308 194.135 784.533 194.482 784.668 194.871C784.803 195.26 784.871 195.705 784.871 196.204ZM791.6 187.102V195.506C791.6 196.208 791.731 196.742 791.993 197.105C792.256 197.461 792.653 197.639 793.187 197.639C793.703 197.639 794.198 197.427 794.672 197.004C795.154 196.572 795.662 195.993 796.195 195.265V187.102H799.293V200H796.614L796.538 198.096C796.267 198.426 795.992 198.726 795.713 198.997C795.434 199.268 795.129 199.501 794.799 199.695C794.477 199.882 794.122 200.025 793.732 200.127C793.352 200.237 792.928 200.292 792.463 200.292C791.803 200.292 791.223 200.186 790.724 199.975C790.233 199.755 789.822 199.446 789.492 199.048C789.162 198.65 788.912 198.176 788.743 197.626C788.582 197.067 788.502 196.445 788.502 195.76V187.102H791.6ZM814.426 193.322C814.426 194.507 814.257 195.531 813.918 196.395C813.588 197.258 813.122 197.977 812.521 198.553C811.929 199.12 811.227 199.543 810.414 199.822C809.602 200.093 808.717 200.229 807.761 200.229C806.821 200.229 805.945 200.157 805.133 200.013C804.329 199.877 803.559 199.691 802.822 199.454V182.062H805.92V186.276L805.793 188.815C806.258 188.215 806.8 187.732 807.418 187.368C808.044 187.004 808.793 186.822 809.665 186.822C810.427 186.822 811.104 186.975 811.696 187.279C812.289 187.584 812.784 188.02 813.182 188.587C813.588 189.146 813.897 189.827 814.108 190.631C814.32 191.426 814.426 192.324 814.426 193.322ZM811.176 193.449C811.176 192.738 811.125 192.133 811.023 191.634C810.922 191.134 810.774 190.724 810.579 190.402C810.393 190.081 810.16 189.848 809.881 189.704C809.61 189.552 809.297 189.476 808.941 189.476C808.417 189.476 807.913 189.687 807.431 190.11C806.957 190.534 806.453 191.109 805.92 191.837V197.474C806.165 197.567 806.466 197.643 806.821 197.702C807.185 197.761 807.553 197.791 807.926 197.791C808.417 197.791 808.861 197.689 809.259 197.486C809.665 197.283 810.008 196.995 810.287 196.623C810.575 196.251 810.795 195.798 810.947 195.265C811.1 194.723 811.176 194.118 811.176 193.449ZM827.756 199.873C827.197 200 826.634 200.102 826.067 200.178C825.5 200.254 824.963 200.292 824.455 200.292C823.609 200.292 822.877 200.203 822.259 200.025C821.649 199.848 821.142 199.577 820.735 199.213C820.338 198.849 820.041 198.388 819.847 197.829C819.66 197.262 819.567 196.589 819.567 195.811V189.514H816.102V187.102H819.567V183.801L822.741 182.976V187.102H827.756V189.514H822.741V195.582C822.741 196.318 822.91 196.877 823.249 197.258C823.588 197.63 824.155 197.816 824.95 197.816C825.458 197.816 825.953 197.774 826.436 197.689C826.918 197.605 827.358 197.507 827.756 197.397V199.873ZM839.715 192.116C839.732 191.634 839.706 191.223 839.639 190.885C839.579 190.546 839.478 190.267 839.334 190.047C839.199 189.827 839.029 189.666 838.826 189.564C838.623 189.463 838.39 189.412 838.128 189.412C837.671 189.412 837.197 189.603 836.706 189.983C836.224 190.356 835.69 190.974 835.106 191.837V200H831.933V187.102H834.738L834.853 188.98C835.064 188.65 835.301 188.354 835.563 188.092C835.834 187.829 836.131 187.605 836.452 187.419C836.782 187.224 837.146 187.076 837.544 186.975C837.942 186.873 838.378 186.822 838.852 186.822C839.503 186.822 840.079 186.937 840.578 187.165C841.086 187.385 841.509 187.715 841.848 188.155C842.195 188.595 842.449 189.15 842.609 189.818C842.779 190.479 842.851 191.244 842.825 192.116H839.715ZM856.942 192.561C856.942 192.772 856.934 193.047 856.917 193.386C856.909 193.724 856.892 194.042 856.866 194.338H848.386C848.386 194.905 848.47 195.404 848.64 195.836C848.817 196.268 849.063 196.632 849.376 196.928C849.698 197.215 850.078 197.436 850.519 197.588C850.967 197.74 851.462 197.816 852.004 197.816C852.63 197.816 853.299 197.77 854.01 197.677C854.729 197.575 855.474 197.414 856.244 197.194V199.657C855.914 199.75 855.554 199.835 855.165 199.911C854.776 199.987 854.378 200.055 853.972 200.114C853.565 200.174 853.155 200.216 852.74 200.241C852.326 200.275 851.924 200.292 851.534 200.292C850.552 200.292 849.672 200.152 848.894 199.873C848.115 199.594 847.455 199.183 846.913 198.642C846.371 198.091 845.957 197.414 845.669 196.61C845.381 195.806 845.237 194.875 845.237 193.817C845.237 192.768 845.381 191.816 845.669 190.961C845.957 190.098 846.363 189.361 846.888 188.752C847.412 188.134 848.047 187.66 848.792 187.33C849.545 186.992 850.383 186.822 851.306 186.822C852.22 186.822 853.028 186.966 853.73 187.254C854.433 187.533 855.021 187.927 855.495 188.435C855.969 188.942 856.329 189.548 856.574 190.25C856.82 190.952 856.942 191.723 856.942 192.561ZM853.794 192.116C853.802 191.608 853.739 191.168 853.604 190.796C853.468 190.415 853.282 190.102 853.045 189.856C852.816 189.611 852.546 189.429 852.232 189.311C851.928 189.192 851.598 189.133 851.242 189.133C850.464 189.133 849.825 189.395 849.325 189.92C848.826 190.436 848.53 191.168 848.437 192.116H853.794ZM871.237 192.561C871.237 192.772 871.229 193.047 871.212 193.386C871.203 193.724 871.187 194.042 871.161 194.338H862.681C862.681 194.905 862.765 195.404 862.935 195.836C863.112 196.268 863.358 196.632 863.671 196.928C863.993 197.215 864.373 197.436 864.813 197.588C865.262 197.74 865.757 197.816 866.299 197.816C866.925 197.816 867.594 197.77 868.305 197.677C869.024 197.575 869.769 197.414 870.539 197.194V199.657C870.209 199.75 869.849 199.835 869.46 199.911C869.071 199.987 868.673 200.055 868.267 200.114C867.86 200.174 867.45 200.216 867.035 200.241C866.62 200.275 866.218 200.292 865.829 200.292C864.847 200.292 863.967 200.152 863.188 199.873C862.41 199.594 861.75 199.183 861.208 198.642C860.666 198.091 860.252 197.414 859.964 196.61C859.676 195.806 859.532 194.875 859.532 193.817C859.532 192.768 859.676 191.816 859.964 190.961C860.252 190.098 860.658 189.361 861.183 188.752C861.707 188.134 862.342 187.66 863.087 187.33C863.84 186.992 864.678 186.822 865.601 186.822C866.515 186.822 867.323 186.966 868.025 187.254C868.728 187.533 869.316 187.927 869.79 188.435C870.264 188.942 870.624 189.548 870.869 190.25C871.115 190.952 871.237 191.723 871.237 192.561ZM868.089 192.116C868.097 191.608 868.034 191.168 867.898 190.796C867.763 190.415 867.577 190.102 867.34 189.856C867.111 189.611 866.84 189.429 866.527 189.311C866.223 189.192 865.893 189.133 865.537 189.133C864.758 189.133 864.119 189.395 863.62 189.92C863.121 190.436 862.825 191.168 862.731 192.116H868.089Z" fill="black"/>
<path d="M62.9844 13.2344H64.8008L64.8828 15.1328C65.2266 14.7266 65.5586 14.3906 65.8789 14.125C66.1992 13.8516 66.5117 13.6328 66.8164 13.4688C67.1289 13.3047 67.4453 13.1914 67.7656 13.1289C68.0859 13.0586 68.418 13.0234 68.7617 13.0234C69.9727 13.0234 70.8867 13.3828 71.5039 14.1016C72.1289 14.8125 72.4414 15.8867 72.4414 17.3242V25H70.4023V17.4883C70.4023 16.5664 70.2305 15.8867 69.8867 15.4492C69.543 15.0039 69.0312 14.7812 68.3516 14.7812C68.1016 14.7812 67.8555 14.8203 67.6133 14.8984C67.3789 14.9688 67.1328 15.0977 66.875 15.2852C66.6172 15.4648 66.3359 15.7109 66.0312 16.0234C65.7344 16.3359 65.3984 16.7266 65.0234 17.1953V25H62.9844V13.2344ZM86.4219 19.0234C86.4219 19.9375 86.293 20.7773 86.0352 21.543C85.7773 22.3008 85.4062 22.9531 84.9219 23.5C84.4375 24.0391 83.8477 24.4609 83.1523 24.7656C82.457 25.0625 81.668 25.2109 80.7852 25.2109C79.9414 25.2109 79.1836 25.082 78.5117 24.8242C77.8477 24.5586 77.2812 24.1719 76.8125 23.6641C76.3516 23.1562 75.9961 22.5273 75.7461 21.7773C75.5039 21.0273 75.3828 20.1641 75.3828 19.1875C75.3828 18.2734 75.5117 17.4414 75.7695 16.6914C76.0273 15.9336 76.3984 15.2852 76.8828 14.7461C77.3672 14.1992 77.957 13.7773 78.6523 13.4805C79.3477 13.1758 80.1367 13.0234 81.0195 13.0234C81.8633 13.0234 82.6172 13.1562 83.2812 13.4219C83.9531 13.6797 84.5195 14.0625 84.9805 14.5703C85.4492 15.0703 85.8047 15.6953 86.0469 16.4453C86.2969 17.1953 86.4219 18.0547 86.4219 19.0234ZM84.3359 19.1172C84.3359 18.3906 84.2539 17.7578 84.0898 17.2188C83.9336 16.6719 83.707 16.2188 83.4102 15.8594C83.1133 15.4922 82.75 15.2188 82.3203 15.0391C81.8984 14.8516 81.4258 14.7578 80.9023 14.7578C80.293 14.7578 79.7695 14.8789 79.332 15.1211C78.9023 15.3555 78.5469 15.6719 78.2656 16.0703C77.9922 16.4688 77.7891 16.9336 77.6562 17.4648C77.5312 17.9883 77.4688 18.5391 77.4688 19.1172C77.4688 19.8438 77.5469 20.4805 77.7031 21.0273C77.8672 21.5742 78.0977 22.0312 78.3945 22.3984C78.6914 22.7578 79.0508 23.0312 79.4727 23.2188C79.8945 23.3984 80.3711 23.4883 80.9023 23.4883C81.5117 23.4883 82.0312 23.3711 82.4609 23.1367C82.8984 22.8945 83.2539 22.5742 83.5273 22.1758C83.8086 21.7773 84.0117 21.3164 84.1367 20.793C84.2695 20.2617 84.3359 19.7031 84.3359 19.1172ZM88.7773 19.3633C88.7773 18.3633 88.9141 17.4766 89.1875 16.7031C89.4609 15.9219 89.8477 15.2656 90.3477 14.7344C90.8555 14.1953 91.4609 13.7891 92.1641 13.5156C92.875 13.2344 93.6641 13.0938 94.5312 13.0938C94.9062 13.0938 95.2734 13.1172 95.6328 13.1641C96 13.2109 96.3594 13.2852 96.7109 13.3867V8.44141H98.7617V25H96.9336L96.8633 22.7734C96.293 23.6016 95.6758 24.2148 95.0117 24.6133C94.3477 25.0117 93.6289 25.2109 92.8555 25.2109C92.1836 25.2109 91.5898 25.0703 91.0742 24.7891C90.5664 24.5078 90.1406 24.1133 89.7969 23.6055C89.4609 23.0898 89.207 22.4727 89.0352 21.7539C88.8633 21.0352 88.7773 20.2383 88.7773 19.3633ZM90.8633 19.2344C90.8633 20.6562 91.0703 21.7188 91.4844 22.4219C91.9062 23.1172 92.5 23.4648 93.2656 23.4648C93.7812 23.4648 94.3242 23.2344 94.8945 22.7734C95.4727 22.3125 96.0781 21.6289 96.7109 20.7227V15.2617C96.375 15.1055 96.0039 14.9883 95.5977 14.9102C95.1914 14.8242 94.7891 14.7812 94.3906 14.7812C93.2812 14.7812 92.4141 15.1406 91.7891 15.8594C91.1719 16.5781 90.8633 17.7031 90.8633 19.2344ZM112.508 18.4961C112.508 18.7852 112.504 19.0273 112.496 19.2227C112.488 19.418 112.477 19.6016 112.461 19.7734H104.199C104.199 20.9766 104.535 21.9023 105.207 22.5508C105.879 23.1914 106.848 23.5117 108.113 23.5117C108.457 23.5117 108.801 23.5 109.145 23.4766C109.488 23.4453 109.82 23.4062 110.141 23.3594C110.461 23.3125 110.766 23.2617 111.055 23.207C111.352 23.1445 111.625 23.0781 111.875 23.0078V24.6836C111.32 24.8398 110.691 24.9648 109.988 25.0586C109.293 25.1602 108.57 25.2109 107.82 25.2109C106.812 25.2109 105.945 25.0742 105.219 24.8008C104.492 24.5273 103.895 24.1328 103.426 23.6172C102.965 23.0938 102.621 22.457 102.395 21.707C102.176 20.9492 102.066 20.0938 102.066 19.1406C102.066 18.3125 102.184 17.5312 102.418 16.7969C102.66 16.0547 103.008 15.4062 103.461 14.8516C103.922 14.2891 104.484 13.8438 105.148 13.5156C105.812 13.1875 106.566 13.0234 107.41 13.0234C108.23 13.0234 108.957 13.1523 109.59 13.4102C110.223 13.668 110.754 14.0352 111.184 14.5117C111.621 14.9805 111.949 15.5547 112.168 16.2344C112.395 16.9062 112.508 17.6602 112.508 18.4961ZM110.387 18.2031C110.41 17.6797 110.359 17.2031 110.234 16.7734C110.109 16.3359 109.914 15.9609 109.648 15.6484C109.391 15.3359 109.066 15.0938 108.676 14.9219C108.285 14.7422 107.832 14.6523 107.316 14.6523C106.871 14.6523 106.465 14.7383 106.098 14.9102C105.73 15.082 105.414 15.3242 105.148 15.6367C104.883 15.9492 104.668 16.3242 104.504 16.7617C104.34 17.1992 104.238 17.6797 104.199 18.2031H110.387Z" fill="#666666"/>
<path d="M646 16C645.448 16 645 16.4477 645 17C645 17.5523 645.448 18 646 18L646 16ZM694.707 17.7071C695.098 17.3166 695.098 16.6834 694.707 16.2929L688.343 9.92894C687.953 9.53841 687.319 9.53841 686.929 9.92894C686.538 10.3195 686.538 10.9526 686.929 11.3431L692.586 17L686.929 22.6569C686.538 23.0474 686.538 23.6805 686.929 24.0711C687.319 24.4616 687.953 24.4616 688.343 24.0711L694.707 17.7071ZM646 18L694 18L694 16L646 16L646 18Z" fill="#666666"/>
<path d="M585.984 13.2344H587.801L587.883 15.1328C588.227 14.7266 588.559 14.3906 588.879 14.125C589.199 13.8516 589.512 13.6328 589.816 13.4688C590.129 13.3047 590.445 13.1914 590.766 13.1289C591.086 13.0586 591.418 13.0234 591.762 13.0234C592.973 13.0234 593.887 13.3828 594.504 14.1016C595.129 14.8125 595.441 15.8867 595.441 17.3242V25H593.402V17.4883C593.402 16.5664 593.23 15.8867 592.887 15.4492C592.543 15.0039 592.031 14.7812 591.352 14.7812C591.102 14.7812 590.855 14.8203 590.613 14.8984C590.379 14.9688 590.133 15.0977 589.875 15.2852C589.617 15.4648 589.336 15.7109 589.031 16.0234C588.734 16.3359 588.398 16.7266 588.023 17.1953V25H585.984V13.2344ZM609.422 19.0234C609.422 19.9375 609.293 20.7773 609.035 21.543C608.777 22.3008 608.406 22.9531 607.922 23.5C607.438 24.0391 606.848 24.4609 606.152 24.7656C605.457 25.0625 604.668 25.2109 603.785 25.2109C602.941 25.2109 602.184 25.082 601.512 24.8242C600.848 24.5586 600.281 24.1719 599.812 23.6641C599.352 23.1562 598.996 22.5273 598.746 21.7773C598.504 21.0273 598.383 20.1641 598.383 19.1875C598.383 18.2734 598.512 17.4414 598.77 16.6914C599.027 15.9336 599.398 15.2852 599.883 14.7461C600.367 14.1992 600.957 13.7773 601.652 13.4805C602.348 13.1758 603.137 13.0234 604.02 13.0234C604.863 13.0234 605.617 13.1562 606.281 13.4219C606.953 13.6797 607.52 14.0625 607.98 14.5703C608.449 15.0703 608.805 15.6953 609.047 16.4453C609.297 17.1953 609.422 18.0547 609.422 19.0234ZM607.336 19.1172C607.336 18.3906 607.254 17.7578 607.09 17.2188C606.934 16.6719 606.707 16.2188 606.41 15.8594C606.113 15.4922 605.75 15.2188 605.32 15.0391C604.898 14.8516 604.426 14.7578 603.902 14.7578C603.293 14.7578 602.77 14.8789 602.332 15.1211C601.902 15.3555 601.547 15.6719 601.266 16.0703C600.992 16.4688 600.789 16.9336 600.656 17.4648C600.531 17.9883 600.469 18.5391 600.469 19.1172C600.469 19.8438 600.547 20.4805 600.703 21.0273C600.867 21.5742 601.098 22.0312 601.395 22.3984C601.691 22.7578 602.051 23.0312 602.473 23.2188C602.895 23.3984 603.371 23.4883 603.902 23.4883C604.512 23.4883 605.031 23.3711 605.461 23.1367C605.898 22.8945 606.254 22.5742 606.527 22.1758C606.809 21.7773 607.012 21.3164 607.137 20.793C607.27 20.2617 607.336 19.7031 607.336 19.1172ZM611.777 19.3633C611.777 18.3633 611.914 17.4766 612.188 16.7031C612.461 15.9219 612.848 15.2656 613.348 14.7344C613.855 14.1953 614.461 13.7891 615.164 13.5156C615.875 13.2344 616.664 13.0938 617.531 13.0938C617.906 13.0938 618.273 13.1172 618.633 13.1641C619 13.2109 619.359 13.2852 619.711 13.3867V8.44141H621.762V25H619.934L619.863 22.7734C619.293 23.6016 618.676 24.2148 618.012 24.6133C617.348 25.0117 616.629 25.2109 615.855 25.2109C615.184 25.2109 614.59 25.0703 614.074 24.7891C613.566 24.5078 613.141 24.1133 612.797 23.6055C612.461 23.0898 612.207 22.4727 612.035 21.7539C611.863 21.0352 611.777 20.2383 611.777 19.3633ZM613.863 19.2344C613.863 20.6562 614.07 21.7188 614.484 22.4219C614.906 23.1172 615.5 23.4648 616.266 23.4648C616.781 23.4648 617.324 23.2344 617.895 22.7734C618.473 22.3125 619.078 21.6289 619.711 20.7227V15.2617C619.375 15.1055 619.004 14.9883 618.598 14.9102C618.191 14.8242 617.789 14.7812 617.391 14.7812C616.281 14.7812 615.414 15.1406 614.789 15.8594C614.172 16.5781 613.863 17.7031 613.863 19.2344ZM635.508 18.4961C635.508 18.7852 635.504 19.0273 635.496 19.2227C635.488 19.418 635.477 19.6016 635.461 19.7734H627.199C627.199 20.9766 627.535 21.9023 628.207 22.5508C628.879 23.1914 629.848 23.5117 631.113 23.5117C631.457 23.5117 631.801 23.5 632.145 23.4766C632.488 23.4453 632.82 23.4062 633.141 23.3594C633.461 23.3125 633.766 23.2617 634.055 23.207C634.352 23.1445 634.625 23.0781 634.875 23.0078V24.6836C634.32 24.8398 633.691 24.9648 632.988 25.0586C632.293 25.1602 631.57 25.2109 630.82 25.2109C629.812 25.2109 628.945 25.0742 628.219 24.8008C627.492 24.5273 626.895 24.1328 626.426 23.6172C625.965 23.0938 625.621 22.457 625.395 21.707C625.176 20.9492 625.066 20.0938 625.066 19.1406C625.066 18.3125 625.184 17.5312 625.418 16.7969C625.66 16.0547 626.008 15.4062 626.461 14.8516C626.922 14.2891 627.484 13.8438 628.148 13.5156C628.812 13.1875 629.566 13.0234 630.41 13.0234C631.23 13.0234 631.957 13.1523 632.59 13.4102C633.223 13.668 633.754 14.0352 634.184 14.5117C634.621 14.9805 634.949 15.5547 635.168 16.2344C635.395 16.9062 635.508 17.6602 635.508 18.4961ZM633.387 18.2031C633.41 17.6797 633.359 17.2031 633.234 16.7734C633.109 16.3359 632.914 15.9609 632.648 15.6484C632.391 15.3359 632.066 15.0938 631.676 14.9219C631.285 14.7422 630.832 14.6523 630.316 14.6523C629.871 14.6523 629.465 14.7383 629.098 14.9102C628.73 15.082 628.414 15.3242 628.148 15.6367C627.883 15.9492 627.668 16.3242 627.504 16.7617C627.34 17.1992 627.238 17.6797 627.199 18.2031H633.387Z" fill="#666666"/>
</g>
<defs>
<clipPath id="clip0_6289_5674">
<rect width="910" height="235" fill="white"/>
</clipPath>
</defs>
</svg>
