<svg width="822" height="392" viewBox="0 0 822 392" fill="none" xmlns="http://www.w3.org/2000/svg">
<g clip-path="url(#clip0_6267_3289)">
<rect width="822" height="392" fill="white"/>
<rect x="249.5" y="28.5" width="269" height="203" rx="7.5" fill="#F5F5F5" stroke="black" stroke-width="5"/>
<rect x="318.914" y="30.5" width="66" height="67" fill="#F5F5F5" stroke="#999999"/>
<rect x="384.914" y="30.5" width="66" height="67" fill="#F5F5F5" stroke="#999999"/>
<path d="M251.914 36C251.914 32.9624 254.376 30.5 257.414 30.5H318.914V97.5H251.914V36Z" fill="white" stroke="#999999"/>
<path d="M251.914 163.5H318.914V229.5H257.414C254.376 229.5 251.914 227.037 251.914 224V163.5Z" fill="white" stroke="#999999"/>
<rect x="251.914" y="97.5" width="67" height="66" fill="white" stroke="#999999"/>
<rect x="318.914" y="30.5" width="66" height="67" fill="white" stroke="#999999"/>
<rect x="318.914" y="163.5" width="66" height="66" fill="white" stroke="#999999"/>
<rect x="318.914" y="97.5" width="66" height="66" fill="white" stroke="#999999"/>
<rect x="384.914" y="163.5" width="66" height="66" fill="white" stroke="#999999"/>
<rect x="384.914" y="97.5" width="66" height="66" fill="white" stroke="#999999"/>
<rect x="384.914" y="30.5" width="66" height="67" fill="white" stroke="#999999"/>
<path d="M450.914 30.5H511.414C514.452 30.5 516.914 32.9624 516.914 36V97.5H450.914V30.5Z" fill="white" stroke="#999999"/>
<path d="M450.914 163.5H516.914V224C516.914 227.037 514.452 229.5 511.414 229.5H450.914V163.5Z" fill="white" stroke="#999999"/>
<rect x="450.914" y="97.5" width="66" height="66" fill="white" stroke="#999999"/>
<path d="M488.102 11.123C488.102 11.6829 487.988 12.2103 487.76 12.7051C487.532 13.1934 487.19 13.623 486.734 13.9941C486.279 14.3587 485.706 14.6484 485.016 14.8633C484.326 15.0716 483.521 15.1758 482.604 15.1758C482.096 15.1758 481.64 15.1595 481.236 15.127C480.833 15.0944 480.455 15.0521 480.104 15V13.4766C480.507 13.5482 480.934 13.6035 481.383 13.6426C481.832 13.6816 482.291 13.7012 482.76 13.7012C483.398 13.7012 483.941 13.6458 484.391 13.5352C484.846 13.418 485.217 13.252 485.504 13.0371C485.79 12.8223 485.999 12.5618 486.129 12.2559C486.259 11.9499 486.324 11.6048 486.324 11.2207C486.324 10.8691 486.246 10.5632 486.09 10.3027C485.934 10.0423 485.712 9.82422 485.426 9.64844C485.146 9.47266 484.807 9.34245 484.41 9.25781C484.02 9.16667 483.59 9.12109 483.121 9.12109H481.666V7.72461H483.141C483.525 7.72461 483.873 7.67578 484.186 7.57812C484.505 7.47396 484.775 7.32747 484.996 7.13867C485.224 6.94987 485.396 6.71875 485.514 6.44531C485.637 6.16536 485.699 5.84961 485.699 5.49805C485.699 4.81445 485.491 4.31641 485.074 4.00391C484.658 3.69141 484.046 3.53516 483.238 3.53516C482.809 3.53516 482.366 3.57747 481.91 3.66211C481.454 3.74674 480.966 3.8737 480.445 4.04297V2.55859C480.667 2.48047 480.901 2.41211 481.148 2.35352C481.402 2.28841 481.653 2.23633 481.9 2.19727C482.154 2.15169 482.405 2.11914 482.652 2.09961C482.9 2.07357 483.137 2.06055 483.365 2.06055C484.042 2.06055 484.638 2.13542 485.152 2.28516C485.667 2.42839 486.096 2.63672 486.441 2.91016C486.786 3.18359 487.047 3.51562 487.223 3.90625C487.398 4.29688 487.486 4.73633 487.486 5.22461C487.486 5.95378 487.298 6.56576 486.92 7.06055C486.549 7.55534 486.038 7.94922 485.387 8.24219C485.719 8.29427 486.044 8.39844 486.363 8.55469C486.689 8.71094 486.979 8.91276 487.232 9.16016C487.493 9.40104 487.701 9.6875 487.857 10.0195C488.02 10.3516 488.102 10.7194 488.102 11.123Z" fill="black" fill-opacity="0.5"/>
<path d="M422.346 15H413.938V13.4766L417.238 10.1953C417.779 9.66146 418.218 9.19922 418.557 8.80859C418.895 8.41797 419.159 8.06315 419.348 7.74414C419.536 7.41862 419.663 7.11263 419.729 6.82617C419.794 6.53971 419.826 6.23047 419.826 5.89844C419.826 5.58594 419.784 5.28971 419.699 5.00977C419.615 4.72331 419.484 4.47266 419.309 4.25781C419.133 4.04297 418.905 3.8737 418.625 3.75C418.345 3.6263 418.01 3.56445 417.619 3.56445C417.079 3.56445 416.587 3.6849 416.145 3.92578C415.702 4.16667 415.295 4.47917 414.924 4.86328L413.986 3.74023C414.468 3.23242 415.021 2.82552 415.646 2.51953C416.278 2.21354 417.01 2.06055 417.844 2.06055C418.41 2.06055 418.924 2.14518 419.387 2.31445C419.855 2.48372 420.259 2.72786 420.598 3.04688C420.936 3.36589 421.197 3.75651 421.379 4.21875C421.568 4.68099 421.662 5.20182 421.662 5.78125C421.662 6.26953 421.597 6.72201 421.467 7.13867C421.337 7.55534 421.138 7.97201 420.871 8.38867C420.611 8.79883 420.279 9.22526 419.875 9.66797C419.478 10.1107 419.006 10.5957 418.459 11.123L416.145 13.3789H422.346V15Z" fill="black" fill-opacity="0.5"/>
<path d="M356.238 15H348.221V13.418H351.502V4.10156L348.445 5.76172L347.82 4.31641L351.883 2.17773H353.387V13.418H356.238V15Z" fill="black" fill-opacity="0.5"/>
<path d="M289.639 8.62305C289.639 9.59961 289.541 10.4915 289.346 11.2988C289.15 12.0996 288.854 12.7897 288.457 13.3691C288.06 13.9421 287.565 14.388 286.973 14.707C286.387 15.0195 285.697 15.1758 284.902 15.1758C284.219 15.1758 283.597 15.0488 283.037 14.7949C282.477 14.5345 281.999 14.1374 281.602 13.6035C281.204 13.0697 280.898 12.3893 280.684 11.5625C280.469 10.7357 280.361 9.75586 280.361 8.62305C280.361 7.64648 280.459 6.75456 280.654 5.94727C280.856 5.13997 281.152 4.44987 281.543 3.87695C281.94 3.29753 282.435 2.85156 283.027 2.53906C283.62 2.22005 284.31 2.06055 285.098 2.06055C285.781 2.06055 286.403 2.19076 286.963 2.45117C287.523 2.70508 288.001 3.10221 288.398 3.64258C288.796 4.17643 289.102 4.85677 289.316 5.68359C289.531 6.51042 289.639 7.49023 289.639 8.62305ZM287.92 8.68164C287.92 8.46029 287.91 8.24219 287.891 8.02734C287.878 7.80599 287.861 7.59115 287.842 7.38281L282.441 11.3965C282.539 11.735 282.663 12.0475 282.812 12.334C282.962 12.6204 283.141 12.8678 283.35 13.0762C283.564 13.278 283.805 13.4375 284.072 13.5547C284.346 13.6654 284.655 13.7207 285 13.7207C285.443 13.7207 285.843 13.6133 286.201 13.3984C286.566 13.1836 286.875 12.8646 287.129 12.4414C287.383 12.0182 287.578 11.4941 287.715 10.8691C287.852 10.2376 287.92 9.50846 287.92 8.68164ZM282.08 8.56445C282.08 8.76628 282.08 8.9681 282.08 9.16992C282.087 9.37174 282.1 9.56706 282.119 9.75586L287.52 5.76172C287.422 5.42969 287.298 5.12695 287.148 4.85352C286.999 4.58008 286.82 4.3457 286.611 4.15039C286.403 3.94857 286.165 3.79232 285.898 3.68164C285.632 3.57096 285.332 3.51562 285 3.51562C284.557 3.51562 284.154 3.62305 283.789 3.83789C283.431 4.05273 283.125 4.375 282.871 4.80469C282.617 5.22786 282.422 5.75521 282.285 6.38672C282.148 7.01172 282.08 7.73763 282.08 8.56445Z" fill="black" fill-opacity="0.5"/>
<path d="M233.639 64.623C233.639 65.5996 233.541 66.4915 233.346 67.2988C233.15 68.0996 232.854 68.7897 232.457 69.3691C232.06 69.9421 231.565 70.388 230.973 70.707C230.387 71.0195 229.697 71.1758 228.902 71.1758C228.219 71.1758 227.597 71.0488 227.037 70.7949C226.477 70.5345 225.999 70.1374 225.602 69.6035C225.204 69.0697 224.898 68.3893 224.684 67.5625C224.469 66.7357 224.361 65.7559 224.361 64.623C224.361 63.6465 224.459 62.7546 224.654 61.9473C224.856 61.14 225.152 60.4499 225.543 59.877C225.94 59.2975 226.435 58.8516 227.027 58.5391C227.62 58.2201 228.31 58.0605 229.098 58.0605C229.781 58.0605 230.403 58.1908 230.963 58.4512C231.523 58.7051 232.001 59.1022 232.398 59.6426C232.796 60.1764 233.102 60.8568 233.316 61.6836C233.531 62.5104 233.639 63.4902 233.639 64.623ZM231.92 64.6816C231.92 64.4603 231.91 64.2422 231.891 64.0273C231.878 63.806 231.861 63.5911 231.842 63.3828L226.441 67.3965C226.539 67.735 226.663 68.0475 226.812 68.334C226.962 68.6204 227.141 68.8678 227.35 69.0762C227.564 69.278 227.805 69.4375 228.072 69.5547C228.346 69.6654 228.655 69.7207 229 69.7207C229.443 69.7207 229.843 69.6133 230.201 69.3984C230.566 69.1836 230.875 68.8646 231.129 68.4414C231.383 68.0182 231.578 67.4941 231.715 66.8691C231.852 66.2376 231.92 65.5085 231.92 64.6816ZM226.08 64.5645C226.08 64.7663 226.08 64.9681 226.08 65.1699C226.087 65.3717 226.1 65.5671 226.119 65.7559L231.52 61.7617C231.422 61.4297 231.298 61.127 231.148 60.8535C230.999 60.5801 230.82 60.3457 230.611 60.1504C230.403 59.9486 230.165 59.7923 229.898 59.6816C229.632 59.571 229.332 59.5156 229 59.5156C228.557 59.5156 228.154 59.623 227.789 59.8379C227.431 60.0527 227.125 60.375 226.871 60.8047C226.617 61.2279 226.422 61.7552 226.285 62.3867C226.148 63.0117 226.08 63.7376 226.08 64.5645Z" fill="black" fill-opacity="0.5"/>
<path d="M233.238 137H225.221V135.418H228.502V126.102L225.445 127.762L224.82 126.316L228.883 124.178H230.387V135.418H233.238V137Z" fill="black" fill-opacity="0.5"/>
<path d="M233.346 203H224.938V201.477L228.238 198.195C228.779 197.661 229.218 197.199 229.557 196.809C229.895 196.418 230.159 196.063 230.348 195.744C230.536 195.419 230.663 195.113 230.729 194.826C230.794 194.54 230.826 194.23 230.826 193.898C230.826 193.586 230.784 193.29 230.699 193.01C230.615 192.723 230.484 192.473 230.309 192.258C230.133 192.043 229.905 191.874 229.625 191.75C229.345 191.626 229.01 191.564 228.619 191.564C228.079 191.564 227.587 191.685 227.145 191.926C226.702 192.167 226.295 192.479 225.924 192.863L224.986 191.74C225.468 191.232 226.021 190.826 226.646 190.52C227.278 190.214 228.01 190.061 228.844 190.061C229.41 190.061 229.924 190.145 230.387 190.314C230.855 190.484 231.259 190.728 231.598 191.047C231.936 191.366 232.197 191.757 232.379 192.219C232.568 192.681 232.662 193.202 232.662 193.781C232.662 194.27 232.597 194.722 232.467 195.139C232.337 195.555 232.138 195.972 231.871 196.389C231.611 196.799 231.279 197.225 230.875 197.668C230.478 198.111 230.006 198.596 229.459 199.123L227.145 201.379H233.346V203Z" fill="black" fill-opacity="0.5"/>
<rect x="265" y="47" width="236" height="33" rx="8" fill="#FF5500" fill-opacity="0.15"/>
<rect x="265" y="113" width="236" height="33" rx="8" fill="#FF5500" fill-opacity="0.25"/>
<rect x="265" y="179" width="236" height="33" rx="8" fill="#FF5500" fill-opacity="0.4"/>
<path d="M482.185 198.96C482.185 199.688 482.036 200.373 481.74 201.017C481.444 201.651 481 202.21 480.407 202.692C479.815 203.166 479.07 203.543 478.173 203.822C477.276 204.093 476.23 204.229 475.037 204.229C474.377 204.229 473.785 204.207 473.26 204.165C472.735 204.123 472.244 204.068 471.787 204V202.02C472.312 202.113 472.866 202.185 473.45 202.235C474.034 202.286 474.631 202.312 475.24 202.312C476.07 202.312 476.776 202.24 477.36 202.096C477.953 201.943 478.435 201.728 478.808 201.448C479.18 201.169 479.451 200.83 479.62 200.433C479.789 200.035 479.874 199.586 479.874 199.087C479.874 198.63 479.772 198.232 479.569 197.894C479.366 197.555 479.078 197.271 478.706 197.043C478.342 196.814 477.902 196.645 477.386 196.535C476.878 196.417 476.319 196.357 475.71 196.357H473.818V194.542H475.735C476.235 194.542 476.688 194.479 477.094 194.352C477.508 194.216 477.86 194.026 478.147 193.78C478.444 193.535 478.668 193.234 478.82 192.879C478.981 192.515 479.062 192.104 479.062 191.647C479.062 190.759 478.791 190.111 478.249 189.705C477.707 189.299 476.912 189.096 475.862 189.096C475.304 189.096 474.728 189.151 474.136 189.261C473.543 189.371 472.909 189.536 472.231 189.756V187.826C472.519 187.725 472.824 187.636 473.146 187.56C473.476 187.475 473.801 187.407 474.123 187.356C474.453 187.297 474.779 187.255 475.101 187.229C475.422 187.196 475.731 187.179 476.027 187.179C476.908 187.179 477.682 187.276 478.351 187.471C479.019 187.657 479.578 187.928 480.026 188.283C480.475 188.639 480.813 189.07 481.042 189.578C481.271 190.086 481.385 190.657 481.385 191.292C481.385 192.24 481.139 193.035 480.648 193.679C480.166 194.322 479.502 194.834 478.655 195.215C479.087 195.283 479.51 195.418 479.925 195.621C480.348 195.824 480.725 196.087 481.055 196.408C481.393 196.721 481.664 197.094 481.867 197.525C482.079 197.957 482.185 198.435 482.185 198.96ZM496.479 198.96C496.479 199.688 496.331 200.373 496.035 201.017C495.739 201.651 495.295 202.21 494.702 202.692C494.11 203.166 493.365 203.543 492.468 203.822C491.571 204.093 490.525 204.229 489.332 204.229C488.672 204.229 488.079 204.207 487.555 204.165C487.03 204.123 486.539 204.068 486.082 204V202.02C486.607 202.113 487.161 202.185 487.745 202.235C488.329 202.286 488.926 202.312 489.535 202.312C490.365 202.312 491.071 202.24 491.655 202.096C492.248 201.943 492.73 201.728 493.103 201.448C493.475 201.169 493.746 200.83 493.915 200.433C494.084 200.035 494.169 199.586 494.169 199.087C494.169 198.63 494.067 198.232 493.864 197.894C493.661 197.555 493.373 197.271 493.001 197.043C492.637 196.814 492.197 196.645 491.681 196.535C491.173 196.417 490.614 196.357 490.005 196.357H488.113V194.542H490.03C490.53 194.542 490.982 194.479 491.389 194.352C491.803 194.216 492.155 194.026 492.442 193.78C492.739 193.535 492.963 193.234 493.115 192.879C493.276 192.515 493.356 192.104 493.356 191.647C493.356 190.759 493.086 190.111 492.544 189.705C492.002 189.299 491.207 189.096 490.157 189.096C489.599 189.096 489.023 189.151 488.431 189.261C487.838 189.371 487.203 189.536 486.526 189.756V187.826C486.814 187.725 487.119 187.636 487.44 187.56C487.771 187.475 488.096 187.407 488.418 187.356C488.748 187.297 489.074 187.255 489.396 187.229C489.717 187.196 490.026 187.179 490.322 187.179C491.202 187.179 491.977 187.276 492.646 187.471C493.314 187.657 493.873 187.928 494.321 188.283C494.77 188.639 495.108 189.07 495.337 189.578C495.565 190.086 495.68 190.657 495.68 191.292C495.68 192.24 495.434 193.035 494.943 193.679C494.461 194.322 493.797 194.834 492.95 195.215C493.382 195.283 493.805 195.418 494.22 195.621C494.643 195.824 495.02 196.087 495.35 196.408C495.688 196.721 495.959 197.094 496.162 197.525C496.374 197.957 496.479 198.435 496.479 198.96Z" fill="black"/>
<path d="M416.002 204H405.071V202.02L409.362 197.754C410.065 197.06 410.636 196.459 411.076 195.951C411.516 195.443 411.859 194.982 412.104 194.567C412.35 194.144 412.515 193.746 412.6 193.374C412.684 193.002 412.727 192.6 412.727 192.168C412.727 191.762 412.672 191.377 412.562 191.013C412.451 190.64 412.282 190.314 412.054 190.035C411.825 189.756 411.529 189.536 411.165 189.375C410.801 189.214 410.365 189.134 409.857 189.134C409.155 189.134 408.516 189.29 407.94 189.604C407.365 189.917 406.836 190.323 406.354 190.822L405.135 189.362C405.761 188.702 406.48 188.173 407.293 187.775C408.114 187.378 409.066 187.179 410.149 187.179C410.886 187.179 411.554 187.289 412.155 187.509C412.765 187.729 413.289 188.046 413.729 188.461C414.17 188.876 414.508 189.383 414.745 189.984C414.991 190.585 415.113 191.262 415.113 192.016C415.113 192.65 415.029 193.239 414.859 193.78C414.69 194.322 414.432 194.864 414.085 195.405C413.746 195.938 413.315 196.493 412.79 197.068C412.274 197.644 411.66 198.274 410.949 198.96L407.94 201.893H416.002V204ZM431.122 200.331H428.291V204H426.031V200.331H418.046V198.389L425.117 187.407H428.291V198.389H431.122V200.331ZM426.031 189.54L420.255 198.389H426.031V189.54Z" fill="black"/>
<path d="M350.002 204H339.071V202.02L343.362 197.754C344.065 197.06 344.636 196.459 345.076 195.951C345.516 195.443 345.859 194.982 346.104 194.567C346.35 194.144 346.515 193.746 346.6 193.374C346.684 193.002 346.727 192.6 346.727 192.168C346.727 191.762 346.672 191.377 346.562 191.013C346.451 190.64 346.282 190.314 346.054 190.035C345.825 189.756 345.529 189.536 345.165 189.375C344.801 189.214 344.365 189.134 343.857 189.134C343.155 189.134 342.516 189.29 341.94 189.604C341.365 189.917 340.836 190.323 340.354 190.822L339.135 189.362C339.761 188.702 340.48 188.173 341.293 187.775C342.114 187.378 343.066 187.179 344.149 187.179C344.886 187.179 345.554 187.289 346.155 187.509C346.765 187.729 347.289 188.046 347.729 188.461C348.17 188.876 348.508 189.383 348.745 189.984C348.991 190.585 349.113 191.262 349.113 192.016C349.113 192.65 349.029 193.239 348.859 193.78C348.69 194.322 348.432 194.864 348.085 195.405C347.746 195.938 347.315 196.493 346.79 197.068C346.274 197.644 345.66 198.274 344.949 198.96L341.94 201.893H350.002V204ZM364.157 204H353.734V201.943H358V189.832L354.026 191.99L353.214 190.111L358.495 187.331H360.45V201.943H364.157V204Z" fill="black"/>
<path d="M283.002 204H272.071V202.02L276.362 197.754C277.065 197.06 277.636 196.459 278.076 195.951C278.516 195.443 278.859 194.982 279.104 194.567C279.35 194.144 279.515 193.746 279.6 193.374C279.684 193.002 279.727 192.6 279.727 192.168C279.727 191.762 279.672 191.377 279.562 191.013C279.451 190.64 279.282 190.314 279.054 190.035C278.825 189.756 278.529 189.536 278.165 189.375C277.801 189.214 277.365 189.134 276.857 189.134C276.155 189.134 275.516 189.29 274.94 189.604C274.365 189.917 273.836 190.323 273.354 190.822L272.135 189.362C272.761 188.702 273.48 188.173 274.293 187.775C275.114 187.378 276.066 187.179 277.149 187.179C277.886 187.179 278.554 187.289 279.155 187.509C279.765 187.729 280.289 188.046 280.729 188.461C281.17 188.876 281.508 189.383 281.745 189.984C281.991 190.585 282.113 191.262 282.113 192.016C282.113 192.65 282.029 193.239 281.859 193.78C281.69 194.322 281.432 194.864 281.085 195.405C280.746 195.938 280.315 196.493 279.79 197.068C279.274 197.644 278.66 198.274 277.949 198.96L274.94 201.893H283.002V204ZM297.678 195.71C297.678 196.979 297.551 198.139 297.297 199.188C297.043 200.229 296.658 201.127 296.142 201.88C295.625 202.625 294.982 203.204 294.212 203.619C293.45 204.025 292.553 204.229 291.521 204.229C290.632 204.229 289.824 204.063 289.096 203.733C288.368 203.395 287.746 202.879 287.229 202.185C286.713 201.491 286.315 200.606 286.036 199.531C285.757 198.456 285.617 197.183 285.617 195.71C285.617 194.44 285.744 193.281 285.998 192.231C286.26 191.182 286.646 190.285 287.153 189.54C287.67 188.787 288.313 188.207 289.083 187.801C289.853 187.386 290.75 187.179 291.774 187.179C292.663 187.179 293.471 187.348 294.199 187.687C294.927 188.017 295.549 188.533 296.065 189.235C296.582 189.929 296.979 190.814 297.259 191.889C297.538 192.964 297.678 194.237 297.678 195.71ZM295.443 195.786C295.443 195.498 295.431 195.215 295.405 194.936C295.388 194.648 295.367 194.368 295.342 194.098L288.321 199.315C288.448 199.756 288.609 200.162 288.804 200.534C288.998 200.907 289.231 201.228 289.502 201.499C289.781 201.761 290.094 201.969 290.441 202.121C290.797 202.265 291.199 202.337 291.647 202.337C292.223 202.337 292.743 202.197 293.209 201.918C293.683 201.639 294.085 201.224 294.415 200.674C294.745 200.124 294.999 199.442 295.177 198.63C295.354 197.809 295.443 196.861 295.443 195.786ZM287.852 195.634C287.852 195.896 287.852 196.159 287.852 196.421C287.86 196.683 287.877 196.937 287.902 197.183L294.923 191.99C294.796 191.559 294.635 191.165 294.44 190.81C294.246 190.454 294.013 190.149 293.742 189.896C293.471 189.633 293.162 189.43 292.815 189.286C292.468 189.142 292.079 189.07 291.647 189.07C291.072 189.07 290.547 189.21 290.073 189.489C289.608 189.769 289.21 190.188 288.88 190.746C288.55 191.296 288.296 191.982 288.118 192.803C287.94 193.615 287.852 194.559 287.852 195.634Z" fill="black"/>
<rect x="537" y="324" width="270" height="33" rx="8" fill="#FF5500" fill-opacity="0.4"/>
<path d="M779.185 343.96C779.185 344.688 779.036 345.373 778.74 346.017C778.444 346.651 778 347.21 777.407 347.692C776.815 348.166 776.07 348.543 775.173 348.822C774.276 349.093 773.23 349.229 772.037 349.229C771.377 349.229 770.785 349.207 770.26 349.165C769.735 349.123 769.244 349.068 768.787 349V347.02C769.312 347.113 769.866 347.185 770.45 347.235C771.034 347.286 771.631 347.312 772.24 347.312C773.07 347.312 773.776 347.24 774.36 347.096C774.953 346.943 775.435 346.728 775.808 346.448C776.18 346.169 776.451 345.83 776.62 345.433C776.789 345.035 776.874 344.586 776.874 344.087C776.874 343.63 776.772 343.232 776.569 342.894C776.366 342.555 776.078 342.271 775.706 342.043C775.342 341.814 774.902 341.645 774.386 341.535C773.878 341.417 773.319 341.357 772.71 341.357H770.818V339.542H772.735C773.235 339.542 773.688 339.479 774.094 339.352C774.508 339.216 774.86 339.026 775.147 338.78C775.444 338.535 775.668 338.234 775.82 337.879C775.981 337.515 776.062 337.104 776.062 336.647C776.062 335.759 775.791 335.111 775.249 334.705C774.707 334.299 773.912 334.096 772.862 334.096C772.304 334.096 771.728 334.151 771.136 334.261C770.543 334.371 769.909 334.536 769.231 334.756V332.826C769.519 332.725 769.824 332.636 770.146 332.56C770.476 332.475 770.801 332.407 771.123 332.356C771.453 332.297 771.779 332.255 772.101 332.229C772.422 332.196 772.731 332.179 773.027 332.179C773.908 332.179 774.682 332.276 775.351 332.471C776.019 332.657 776.578 332.928 777.026 333.283C777.475 333.639 777.813 334.07 778.042 334.578C778.271 335.086 778.385 335.657 778.385 336.292C778.385 337.24 778.139 338.035 777.648 338.679C777.166 339.322 776.502 339.834 775.655 340.215C776.087 340.283 776.51 340.418 776.925 340.621C777.348 340.824 777.725 341.087 778.055 341.408C778.393 341.721 778.664 342.094 778.867 342.525C779.079 342.957 779.185 343.435 779.185 343.96ZM793.479 343.96C793.479 344.688 793.331 345.373 793.035 346.017C792.739 346.651 792.295 347.21 791.702 347.692C791.11 348.166 790.365 348.543 789.468 348.822C788.571 349.093 787.525 349.229 786.332 349.229C785.672 349.229 785.079 349.207 784.555 349.165C784.03 349.123 783.539 349.068 783.082 349V347.02C783.607 347.113 784.161 347.185 784.745 347.235C785.329 347.286 785.926 347.312 786.535 347.312C787.365 347.312 788.071 347.24 788.655 347.096C789.248 346.943 789.73 346.728 790.103 346.448C790.475 346.169 790.746 345.83 790.915 345.433C791.084 345.035 791.169 344.586 791.169 344.087C791.169 343.63 791.067 343.232 790.864 342.894C790.661 342.555 790.373 342.271 790.001 342.043C789.637 341.814 789.197 341.645 788.681 341.535C788.173 341.417 787.614 341.357 787.005 341.357H785.113V339.542H787.03C787.53 339.542 787.982 339.479 788.389 339.352C788.803 339.216 789.155 339.026 789.442 338.78C789.739 338.535 789.963 338.234 790.115 337.879C790.276 337.515 790.356 337.104 790.356 336.647C790.356 335.759 790.086 335.111 789.544 334.705C789.002 334.299 788.207 334.096 787.157 334.096C786.599 334.096 786.023 334.151 785.431 334.261C784.838 334.371 784.203 334.536 783.526 334.756V332.826C783.814 332.725 784.119 332.636 784.44 332.56C784.771 332.475 785.096 332.407 785.418 332.356C785.748 332.297 786.074 332.255 786.396 332.229C786.717 332.196 787.026 332.179 787.322 332.179C788.202 332.179 788.977 332.276 789.646 332.471C790.314 332.657 790.873 332.928 791.321 333.283C791.77 333.639 792.108 334.07 792.337 334.578C792.565 335.086 792.68 335.657 792.68 336.292C792.68 337.24 792.434 338.035 791.943 338.679C791.461 339.322 790.797 339.834 789.95 340.215C790.382 340.283 790.805 340.418 791.22 340.621C791.643 340.824 792.02 341.087 792.35 341.408C792.688 341.721 792.959 342.094 793.162 342.525C793.374 342.957 793.479 343.435 793.479 343.96Z" fill="black"/>
<path d="M707.002 349H696.071V347.02L700.362 342.754C701.065 342.06 701.636 341.459 702.076 340.951C702.516 340.443 702.859 339.982 703.104 339.567C703.35 339.144 703.515 338.746 703.6 338.374C703.684 338.002 703.727 337.6 703.727 337.168C703.727 336.762 703.672 336.377 703.562 336.013C703.451 335.64 703.282 335.314 703.054 335.035C702.825 334.756 702.529 334.536 702.165 334.375C701.801 334.214 701.365 334.134 700.857 334.134C700.155 334.134 699.516 334.29 698.94 334.604C698.365 334.917 697.836 335.323 697.354 335.822L696.135 334.362C696.761 333.702 697.48 333.173 698.293 332.775C699.114 332.378 700.066 332.179 701.149 332.179C701.886 332.179 702.554 332.289 703.155 332.509C703.765 332.729 704.289 333.046 704.729 333.461C705.17 333.876 705.508 334.383 705.745 334.984C705.991 335.585 706.113 336.262 706.113 337.016C706.113 337.65 706.029 338.239 705.859 338.78C705.69 339.322 705.432 339.864 705.085 340.405C704.746 340.938 704.315 341.493 703.79 342.068C703.274 342.644 702.66 343.274 701.949 343.96L698.94 346.893H707.002V349ZM722.122 345.331H719.291V349H717.031V345.331H709.046V343.389L716.117 332.407H719.291V343.389H722.122V345.331ZM717.031 334.54L711.255 343.389H717.031V334.54Z" fill="black"/>
<path d="M635.002 349H624.071V347.02L628.362 342.754C629.065 342.06 629.636 341.459 630.076 340.951C630.516 340.443 630.859 339.982 631.104 339.567C631.35 339.144 631.515 338.746 631.6 338.374C631.684 338.002 631.727 337.6 631.727 337.168C631.727 336.762 631.672 336.377 631.562 336.013C631.451 335.64 631.282 335.314 631.054 335.035C630.825 334.756 630.529 334.536 630.165 334.375C629.801 334.214 629.365 334.134 628.857 334.134C628.155 334.134 627.516 334.29 626.94 334.604C626.365 334.917 625.836 335.323 625.354 335.822L624.135 334.362C624.761 333.702 625.48 333.173 626.293 332.775C627.114 332.378 628.066 332.179 629.149 332.179C629.886 332.179 630.554 332.289 631.155 332.509C631.765 332.729 632.289 333.046 632.729 333.461C633.17 333.876 633.508 334.383 633.745 334.984C633.991 335.585 634.113 336.262 634.113 337.016C634.113 337.65 634.029 338.239 633.859 338.78C633.69 339.322 633.432 339.864 633.085 340.405C632.746 340.938 632.315 341.493 631.79 342.068C631.274 342.644 630.66 343.274 629.949 343.96L626.94 346.893H635.002V349ZM649.157 349H638.734V346.943H643V334.832L639.026 336.99L638.214 335.111L643.495 332.331H645.45V346.943H649.157V349Z" fill="black"/>
<path d="M562.002 349H551.071V347.02L555.362 342.754C556.065 342.06 556.636 341.459 557.076 340.951C557.516 340.443 557.859 339.982 558.104 339.567C558.35 339.144 558.515 338.746 558.6 338.374C558.684 338.002 558.727 337.6 558.727 337.168C558.727 336.762 558.672 336.377 558.562 336.013C558.451 335.64 558.282 335.314 558.054 335.035C557.825 334.756 557.529 334.536 557.165 334.375C556.801 334.214 556.365 334.134 555.857 334.134C555.155 334.134 554.516 334.29 553.94 334.604C553.365 334.917 552.836 335.323 552.354 335.822L551.135 334.362C551.761 333.702 552.48 333.173 553.293 332.775C554.114 332.378 555.066 332.179 556.149 332.179C556.886 332.179 557.554 332.289 558.155 332.509C558.765 332.729 559.289 333.046 559.729 333.461C560.17 333.876 560.508 334.383 560.745 334.984C560.991 335.585 561.113 336.262 561.113 337.016C561.113 337.65 561.029 338.239 560.859 338.78C560.69 339.322 560.432 339.864 560.085 340.405C559.746 340.938 559.315 341.493 558.79 342.068C558.274 342.644 557.66 343.274 556.949 343.96L553.94 346.893H562.002V349ZM576.678 340.71C576.678 341.979 576.551 343.139 576.297 344.188C576.043 345.229 575.658 346.127 575.142 346.88C574.625 347.625 573.982 348.204 573.212 348.619C572.45 349.025 571.553 349.229 570.521 349.229C569.632 349.229 568.824 349.063 568.096 348.733C567.368 348.395 566.746 347.879 566.229 347.185C565.713 346.491 565.315 345.606 565.036 344.531C564.757 343.456 564.617 342.183 564.617 340.71C564.617 339.44 564.744 338.281 564.998 337.231C565.26 336.182 565.646 335.285 566.153 334.54C566.67 333.787 567.313 333.207 568.083 332.801C568.853 332.386 569.75 332.179 570.774 332.179C571.663 332.179 572.471 332.348 573.199 332.687C573.927 333.017 574.549 333.533 575.065 334.235C575.582 334.929 575.979 335.814 576.259 336.889C576.538 337.964 576.678 339.237 576.678 340.71ZM574.443 340.786C574.443 340.498 574.431 340.215 574.405 339.936C574.388 339.648 574.367 339.368 574.342 339.098L567.321 344.315C567.448 344.756 567.609 345.162 567.804 345.534C567.998 345.907 568.231 346.228 568.502 346.499C568.781 346.761 569.094 346.969 569.441 347.121C569.797 347.265 570.199 347.337 570.647 347.337C571.223 347.337 571.743 347.197 572.209 346.918C572.683 346.639 573.085 346.224 573.415 345.674C573.745 345.124 573.999 344.442 574.177 343.63C574.354 342.809 574.443 341.861 574.443 340.786ZM566.852 340.634C566.852 340.896 566.852 341.159 566.852 341.421C566.86 341.683 566.877 341.937 566.902 342.183L573.923 336.99C573.796 336.559 573.635 336.165 573.44 335.81C573.246 335.454 573.013 335.149 572.742 334.896C572.471 334.633 572.162 334.43 571.815 334.286C571.468 334.142 571.079 334.07 570.647 334.07C570.072 334.07 569.547 334.21 569.073 334.489C568.608 334.769 568.21 335.188 567.88 335.746C567.55 336.296 567.296 336.982 567.118 337.803C566.94 338.615 566.852 339.559 566.852 340.634Z" fill="black"/>
<path d="M482.362 138H471.939V135.943H476.205V123.832L472.231 125.99L471.419 124.111L476.7 121.331H478.655V135.943H482.362V138ZM496.708 123.464L489.751 138H487.225L494.448 123.464H485.485V121.407H496.708V123.464Z" fill="black"/>
<path d="M415.862 138H405.439V135.943H409.705V123.832L405.731 125.99L404.919 124.111L410.2 121.331H412.155V135.943H415.862V138ZM430.157 138H419.734V135.943H424V123.832L420.026 125.99L419.214 124.111L424.495 121.331H426.45V135.943H430.157V138Z" fill="black"/>
<path d="M349.862 138H339.439V135.943H343.705V123.832L339.731 125.99L338.919 124.111L344.2 121.331H346.155V135.943H349.862V138ZM364.678 129.71C364.678 130.979 364.551 132.139 364.297 133.188C364.043 134.229 363.658 135.127 363.142 135.88C362.625 136.625 361.982 137.204 361.212 137.619C360.45 138.025 359.553 138.229 358.521 138.229C357.632 138.229 356.824 138.063 356.096 137.733C355.368 137.395 354.746 136.879 354.229 136.185C353.713 135.491 353.315 134.606 353.036 133.531C352.757 132.456 352.617 131.183 352.617 129.71C352.617 128.44 352.744 127.281 352.998 126.231C353.26 125.182 353.646 124.285 354.153 123.54C354.67 122.787 355.313 122.207 356.083 121.801C356.853 121.386 357.75 121.179 358.774 121.179C359.663 121.179 360.471 121.348 361.199 121.687C361.927 122.017 362.549 122.533 363.065 123.235C363.582 123.929 363.979 124.814 364.259 125.889C364.538 126.964 364.678 128.237 364.678 129.71ZM362.443 129.786C362.443 129.498 362.431 129.215 362.405 128.936C362.388 128.648 362.367 128.368 362.342 128.098L355.321 133.315C355.448 133.756 355.609 134.162 355.804 134.534C355.998 134.907 356.231 135.228 356.502 135.499C356.781 135.761 357.094 135.969 357.441 136.121C357.797 136.265 358.199 136.337 358.647 136.337C359.223 136.337 359.743 136.197 360.209 135.918C360.683 135.639 361.085 135.224 361.415 134.674C361.745 134.124 361.999 133.442 362.177 132.63C362.354 131.809 362.443 130.861 362.443 129.786ZM354.852 129.634C354.852 129.896 354.852 130.159 354.852 130.421C354.86 130.683 354.877 130.937 354.902 131.183L361.923 125.99C361.796 125.559 361.635 125.165 361.44 124.81C361.246 124.454 361.013 124.149 360.742 123.896C360.471 123.633 360.162 123.43 359.815 123.286C359.468 123.142 359.079 123.07 358.647 123.07C358.072 123.07 357.547 123.21 357.073 123.489C356.608 123.769 356.21 124.188 355.88 124.746C355.55 125.296 355.296 125.982 355.118 126.803C354.94 127.615 354.852 128.559 354.852 129.634Z" fill="black"/>
<path d="M290.561 123.464L283.604 138H281.077L288.301 123.464H279.338V121.407H290.561V123.464Z" fill="black"/>
<rect x="260" y="324" width="255" height="33" rx="8" fill="#FF5500" fill-opacity="0.25"/>
<path d="M488.362 349H477.939V346.943H482.205V334.832L478.231 336.99L477.419 335.111L482.7 332.331H484.655V346.943H488.362V349ZM502.708 334.464L495.751 349H493.225L500.448 334.464H491.485V332.407H502.708V334.464Z" fill="black"/>
<path d="M415.862 349H405.439V346.943H409.705V334.832L405.731 336.99L404.919 335.111L410.2 332.331H412.155V346.943H415.862V349ZM430.157 349H419.734V346.943H424V334.832L420.026 336.99L419.214 335.111L424.495 332.331H426.45V346.943H430.157V349Z" fill="black"/>
<path d="M343.862 349H333.439V346.943H337.705V334.832L333.731 336.99L332.919 335.111L338.2 332.331H340.155V346.943H343.862V349ZM358.678 340.71C358.678 341.979 358.551 343.139 358.297 344.188C358.043 345.229 357.658 346.127 357.142 346.88C356.625 347.625 355.982 348.204 355.212 348.619C354.45 349.025 353.553 349.229 352.521 349.229C351.632 349.229 350.824 349.063 350.096 348.733C349.368 348.395 348.746 347.879 348.229 347.185C347.713 346.491 347.315 345.606 347.036 344.531C346.757 343.456 346.617 342.183 346.617 340.71C346.617 339.44 346.744 338.281 346.998 337.231C347.26 336.182 347.646 335.285 348.153 334.54C348.67 333.787 349.313 333.207 350.083 332.801C350.853 332.386 351.75 332.179 352.774 332.179C353.663 332.179 354.471 332.348 355.199 332.687C355.927 333.017 356.549 333.533 357.065 334.235C357.582 334.929 357.979 335.814 358.259 336.889C358.538 337.964 358.678 339.237 358.678 340.71ZM356.443 340.786C356.443 340.498 356.431 340.215 356.405 339.936C356.388 339.648 356.367 339.368 356.342 339.098L349.321 344.315C349.448 344.756 349.609 345.162 349.804 345.534C349.998 345.907 350.231 346.228 350.502 346.499C350.781 346.761 351.094 346.969 351.441 347.121C351.797 347.265 352.199 347.337 352.647 347.337C353.223 347.337 353.743 347.197 354.209 346.918C354.683 346.639 355.085 346.224 355.415 345.674C355.745 345.124 355.999 344.442 356.177 343.63C356.354 342.809 356.443 341.861 356.443 340.786ZM348.852 340.634C348.852 340.896 348.852 341.159 348.852 341.421C348.86 341.683 348.877 341.937 348.902 342.183L355.923 336.99C355.796 336.559 355.635 336.165 355.44 335.81C355.246 335.454 355.013 335.149 354.742 334.896C354.471 334.633 354.162 334.43 353.815 334.286C353.468 334.142 353.079 334.07 352.647 334.07C352.072 334.07 351.547 334.21 351.073 334.489C350.608 334.769 350.21 335.188 349.88 335.746C349.55 336.296 349.296 336.982 349.118 337.803C348.94 338.615 348.852 339.559 348.852 340.634Z" fill="black"/>
<path d="M284.561 334.464L277.604 349H275.077L282.301 334.464H273.338V332.407H284.561V334.464Z" fill="black"/>
<path d="M489.853 66.7441C489.853 67.5059 489.713 68.221 489.434 68.8896C489.163 69.5583 488.773 70.1423 488.266 70.6416C487.758 71.1325 487.144 71.5218 486.425 71.8096C485.714 72.0889 484.923 72.2285 484.051 72.2285C483.137 72.2285 482.328 72.0846 481.626 71.7969C480.924 71.5007 480.335 71.0521 479.861 70.4512C479.387 69.8418 479.028 69.0758 478.782 68.1533C478.537 67.2308 478.414 66.139 478.414 64.8779C478.414 64.0316 478.469 63.2106 478.579 62.415C478.689 61.6195 478.871 60.8704 479.125 60.168C479.379 59.4655 479.717 58.8223 480.141 58.2383C480.564 57.6543 481.089 57.1549 481.715 56.7402C482.35 56.3171 483.094 55.9912 483.949 55.7627C484.804 55.5257 485.794 55.4072 486.92 55.4072H488.558V57.3369H486.78C485.79 57.3369 484.931 57.4554 484.203 57.6924C483.475 57.9294 482.866 58.2637 482.375 58.6953C481.884 59.127 481.507 59.6475 481.245 60.2568C480.983 60.8662 480.818 61.5475 480.75 62.3008L480.699 62.8213C481.232 62.5081 481.846 62.2585 482.54 62.0723C483.243 61.8776 484 61.7803 484.812 61.7803C485.65 61.7803 486.382 61.903 487.009 62.1484C487.644 62.3939 488.168 62.7367 488.583 63.1768C489.006 63.6084 489.324 64.1289 489.535 64.7383C489.747 65.3477 489.853 66.0163 489.853 66.7441ZM487.542 66.8838C487.542 66.376 487.479 65.9189 487.352 65.5127C487.233 65.098 487.043 64.751 486.78 64.4717C486.518 64.1839 486.184 63.9639 485.777 63.8115C485.38 63.6507 484.901 63.5703 484.343 63.5703C484.021 63.5703 483.695 63.5999 483.365 63.6592C483.035 63.7184 482.709 63.8031 482.388 63.9131C482.075 64.0146 481.774 64.1331 481.486 64.2686C481.199 64.404 480.936 64.5479 480.699 64.7002C480.699 65.792 480.775 66.7061 480.928 67.4424C481.08 68.1702 481.304 68.7542 481.601 69.1943C481.905 69.6344 482.278 69.9476 482.718 70.1338C483.158 70.32 483.666 70.4131 484.241 70.4131C484.724 70.4131 485.164 70.3369 485.562 70.1846C485.968 70.0238 486.315 69.791 486.603 69.4863C486.899 69.1816 487.127 68.8135 487.288 68.3818C487.457 67.9417 487.542 67.4424 487.542 66.8838Z" fill="black"/>
<path d="M424.475 68.3311H421.644V72H419.384V68.3311H411.398V66.3887L418.47 55.4072H421.644V66.3887H424.475V68.3311ZM419.384 57.54L413.607 66.3887H419.384V57.54Z" fill="black"/>
<path d="M357.332 66.96C357.332 67.6878 357.184 68.3734 356.888 69.0166C356.591 69.6514 356.147 70.21 355.555 70.6924C354.962 71.1663 354.217 71.543 353.32 71.8223C352.423 72.0931 351.378 72.2285 350.185 72.2285C349.524 72.2285 348.932 72.2074 348.407 72.165C347.882 72.1227 347.392 72.0677 346.935 72V70.0195C347.459 70.1126 348.014 70.1846 348.598 70.2354C349.182 70.2861 349.778 70.3115 350.388 70.3115C351.217 70.3115 351.924 70.2396 352.508 70.0957C353.1 69.9434 353.583 69.7275 353.955 69.4482C354.327 69.1689 354.598 68.8304 354.768 68.4326C354.937 68.0348 355.021 67.5863 355.021 67.0869C355.021 66.6299 354.92 66.2321 354.717 65.8936C354.514 65.555 354.226 65.2715 353.854 65.043C353.49 64.8145 353.049 64.6452 352.533 64.5352C352.025 64.4167 351.467 64.3574 350.857 64.3574H348.966V62.542H350.883C351.382 62.542 351.835 62.4785 352.241 62.3516C352.656 62.2161 353.007 62.0257 353.295 61.7803C353.591 61.5348 353.815 61.2344 353.968 60.8789C354.129 60.515 354.209 60.1045 354.209 59.6475C354.209 58.7588 353.938 58.1113 353.396 57.7051C352.855 57.2988 352.059 57.0957 351.01 57.0957C350.451 57.0957 349.876 57.1507 349.283 57.2607C348.691 57.3708 348.056 57.5358 347.379 57.7559V55.8262C347.667 55.7246 347.971 55.6357 348.293 55.5596C348.623 55.4749 348.949 55.4072 349.271 55.3564C349.601 55.2972 349.926 55.2549 350.248 55.2295C350.57 55.1956 350.879 55.1787 351.175 55.1787C352.055 55.1787 352.829 55.276 353.498 55.4707C354.167 55.6569 354.725 55.9277 355.174 56.2832C355.622 56.6387 355.961 57.0703 356.189 57.5781C356.418 58.0859 356.532 58.6572 356.532 59.292C356.532 60.2399 356.287 61.0355 355.796 61.6787C355.313 62.3219 354.649 62.834 353.803 63.2148C354.234 63.2826 354.658 63.418 355.072 63.6211C355.495 63.8242 355.872 64.0866 356.202 64.4082C356.541 64.7214 356.812 65.0938 357.015 65.5254C357.226 65.957 357.332 66.4352 357.332 66.96Z" fill="black"/>
<path d="M290.649 72H279.719V70.0195L284.01 65.7539C284.712 65.0599 285.284 64.459 285.724 63.9512C286.164 63.4434 286.507 62.9821 286.752 62.5674C286.997 62.1442 287.162 61.7464 287.247 61.374C287.332 61.0016 287.374 60.5996 287.374 60.168C287.374 59.7617 287.319 59.3766 287.209 59.0127C287.099 58.6403 286.93 58.3145 286.701 58.0352C286.473 57.7559 286.176 57.5358 285.812 57.375C285.449 57.2142 285.013 57.1338 284.505 57.1338C283.802 57.1338 283.163 57.2904 282.588 57.6035C282.012 57.9167 281.483 58.3229 281.001 58.8223L279.782 57.3623C280.409 56.7021 281.128 56.1732 281.94 55.7754C282.761 55.3776 283.714 55.1787 284.797 55.1787C285.533 55.1787 286.202 55.2887 286.803 55.5088C287.412 55.7288 287.937 56.0462 288.377 56.4609C288.817 56.8757 289.156 57.3835 289.393 57.9844C289.638 58.5853 289.761 59.2624 289.761 60.0156C289.761 60.6504 289.676 61.2386 289.507 61.7803C289.338 62.3219 289.079 62.8636 288.732 63.4053C288.394 63.9385 287.962 64.4928 287.438 65.0684C286.921 65.6439 286.308 66.2744 285.597 66.96L282.588 69.8926H290.649V72Z" fill="black"/>
<rect x="15" y="324" width="236" height="33" rx="8" fill="#FF5500" fill-opacity="0.15"/>
<path d="M223.853 343.744C223.853 344.506 223.713 345.221 223.434 345.89C223.163 346.558 222.773 347.142 222.266 347.642C221.758 348.132 221.144 348.522 220.425 348.81C219.714 349.089 218.923 349.229 218.051 349.229C217.137 349.229 216.328 349.085 215.626 348.797C214.924 348.501 214.335 348.052 213.861 347.451C213.387 346.842 213.028 346.076 212.782 345.153C212.537 344.231 212.414 343.139 212.414 341.878C212.414 341.032 212.469 340.211 212.579 339.415C212.689 338.619 212.871 337.87 213.125 337.168C213.379 336.465 213.717 335.822 214.141 335.238C214.564 334.654 215.089 334.155 215.715 333.74C216.35 333.317 217.094 332.991 217.949 332.763C218.804 332.526 219.794 332.407 220.92 332.407H222.558V334.337H220.78C219.79 334.337 218.931 334.455 218.203 334.692C217.475 334.929 216.866 335.264 216.375 335.695C215.884 336.127 215.507 336.647 215.245 337.257C214.983 337.866 214.818 338.548 214.75 339.301L214.699 339.821C215.232 339.508 215.846 339.258 216.54 339.072C217.243 338.878 218 338.78 218.812 338.78C219.65 338.78 220.382 338.903 221.009 339.148C221.644 339.394 222.168 339.737 222.583 340.177C223.006 340.608 223.324 341.129 223.535 341.738C223.747 342.348 223.853 343.016 223.853 343.744ZM221.542 343.884C221.542 343.376 221.479 342.919 221.352 342.513C221.233 342.098 221.043 341.751 220.78 341.472C220.518 341.184 220.184 340.964 219.777 340.812C219.38 340.651 218.901 340.57 218.343 340.57C218.021 340.57 217.695 340.6 217.365 340.659C217.035 340.718 216.709 340.803 216.388 340.913C216.075 341.015 215.774 341.133 215.486 341.269C215.199 341.404 214.936 341.548 214.699 341.7C214.699 342.792 214.775 343.706 214.928 344.442C215.08 345.17 215.304 345.754 215.601 346.194C215.905 346.634 216.278 346.948 216.718 347.134C217.158 347.32 217.666 347.413 218.241 347.413C218.724 347.413 219.164 347.337 219.562 347.185C219.968 347.024 220.315 346.791 220.603 346.486C220.899 346.182 221.127 345.813 221.288 345.382C221.457 344.942 221.542 344.442 221.542 343.884Z" fill="black"/>
<path d="M163.475 345.331H160.644V349H158.384V345.331H150.398V343.389L157.47 332.407H160.644V343.389H163.475V345.331ZM158.384 334.54L152.607 343.389H158.384V334.54Z" fill="black"/>
<path d="M101.332 343.96C101.332 344.688 101.184 345.373 100.888 346.017C100.591 346.651 100.147 347.21 99.5547 347.692C98.9622 348.166 98.2174 348.543 97.3203 348.822C96.4232 349.093 95.3779 349.229 94.1846 349.229C93.5244 349.229 92.932 349.207 92.4072 349.165C91.8825 349.123 91.3916 349.068 90.9346 349V347.02C91.4593 347.113 92.0137 347.185 92.5977 347.235C93.1816 347.286 93.7783 347.312 94.3877 347.312C95.2171 347.312 95.9238 347.24 96.5078 347.096C97.1003 346.943 97.5827 346.728 97.9551 346.448C98.3275 346.169 98.5983 345.83 98.7676 345.433C98.9368 345.035 99.0215 344.586 99.0215 344.087C99.0215 343.63 98.9199 343.232 98.7168 342.894C98.5137 342.555 98.2259 342.271 97.8535 342.043C97.4896 341.814 97.0495 341.645 96.5332 341.535C96.0254 341.417 95.4668 341.357 94.8574 341.357H92.9658V339.542H94.8828C95.3822 339.542 95.835 339.479 96.2412 339.352C96.6559 339.216 97.0072 339.026 97.2949 338.78C97.5911 338.535 97.8154 338.234 97.9678 337.879C98.1286 337.515 98.209 337.104 98.209 336.647C98.209 335.759 97.9382 335.111 97.3965 334.705C96.8548 334.299 96.0592 334.096 95.0098 334.096C94.4512 334.096 93.8757 334.151 93.2832 334.261C92.6908 334.371 92.056 334.536 91.3789 334.756V332.826C91.6667 332.725 91.9714 332.636 92.293 332.56C92.623 332.475 92.9489 332.407 93.2705 332.356C93.6006 332.297 93.9264 332.255 94.248 332.229C94.5697 332.196 94.8786 332.179 95.1748 332.179C96.055 332.179 96.8294 332.276 97.498 332.471C98.1667 332.657 98.7253 332.928 99.1738 333.283C99.6224 333.639 99.9609 334.07 100.189 334.578C100.418 335.086 100.532 335.657 100.532 336.292C100.532 337.24 100.287 338.035 99.7959 338.679C99.3135 339.322 98.6491 339.834 97.8027 340.215C98.2344 340.283 98.6576 340.418 99.0723 340.621C99.4954 340.824 99.8721 341.087 100.202 341.408C100.541 341.721 100.812 342.094 101.015 342.525C101.226 342.957 101.332 343.435 101.332 343.96Z" fill="black"/>
<path d="M40.6494 349H29.7188V347.02L34.0098 342.754C34.7122 342.06 35.2835 341.459 35.7236 340.951C36.1637 340.443 36.5065 339.982 36.752 339.567C36.9974 339.144 37.1624 338.746 37.2471 338.374C37.3317 338.002 37.374 337.6 37.374 337.168C37.374 336.762 37.319 336.377 37.209 336.013C37.099 335.64 36.9297 335.314 36.7012 335.035C36.4727 334.756 36.1764 334.536 35.8125 334.375C35.4486 334.214 35.0127 334.134 34.5049 334.134C33.8024 334.134 33.1634 334.29 32.5879 334.604C32.0124 334.917 31.4834 335.323 31.001 335.822L29.7822 334.362C30.4085 333.702 31.1279 333.173 31.9404 332.775C32.7614 332.378 33.7135 332.179 34.7969 332.179C35.5332 332.179 36.2018 332.289 36.8027 332.509C37.4121 332.729 37.9368 333.046 38.377 333.461C38.8171 333.876 39.1556 334.383 39.3926 334.984C39.638 335.585 39.7607 336.262 39.7607 337.016C39.7607 337.65 39.6761 338.239 39.5068 338.78C39.3376 339.322 39.0794 339.864 38.7324 340.405C38.3939 340.938 37.9622 341.493 37.4375 342.068C36.9212 342.644 36.3076 343.274 35.5967 343.96L32.5879 346.893H40.6494V349Z" fill="black"/>
<path d="M779.74 384H771.723V382.418H775.004V373.102L771.947 374.762L771.322 373.316L775.385 371.178H776.889V382.418H779.74V384ZM790.736 384H782.719V382.418H786V373.102L782.943 374.762L782.318 373.316L786.381 371.178H787.885V382.418H790.736V384Z" fill="black" fill-opacity="0.5"/>
<path d="M707.24 384H699.223V382.418H702.504V373.102L699.447 374.762L698.822 373.316L702.885 371.178H704.389V382.418H707.24V384ZM718.637 377.623C718.637 378.6 718.539 379.492 718.344 380.299C718.148 381.1 717.852 381.79 717.455 382.369C717.058 382.942 716.563 383.388 715.971 383.707C715.385 384.02 714.695 384.176 713.9 384.176C713.217 384.176 712.595 384.049 712.035 383.795C711.475 383.535 710.997 383.137 710.6 382.604C710.202 382.07 709.896 381.389 709.682 380.562C709.467 379.736 709.359 378.756 709.359 377.623C709.359 376.646 709.457 375.755 709.652 374.947C709.854 374.14 710.15 373.45 710.541 372.877C710.938 372.298 711.433 371.852 712.025 371.539C712.618 371.22 713.308 371.061 714.096 371.061C714.779 371.061 715.401 371.191 715.961 371.451C716.521 371.705 716.999 372.102 717.396 372.643C717.794 373.176 718.1 373.857 718.314 374.684C718.529 375.51 718.637 376.49 718.637 377.623ZM716.918 377.682C716.918 377.46 716.908 377.242 716.889 377.027C716.876 376.806 716.859 376.591 716.84 376.383L711.439 380.396C711.537 380.735 711.661 381.048 711.811 381.334C711.96 381.62 712.139 381.868 712.348 382.076C712.562 382.278 712.803 382.438 713.07 382.555C713.344 382.665 713.653 382.721 713.998 382.721C714.441 382.721 714.841 382.613 715.199 382.398C715.564 382.184 715.873 381.865 716.127 381.441C716.381 381.018 716.576 380.494 716.713 379.869C716.85 379.238 716.918 378.508 716.918 377.682ZM711.078 377.564C711.078 377.766 711.078 377.968 711.078 378.17C711.085 378.372 711.098 378.567 711.117 378.756L716.518 374.762C716.42 374.43 716.296 374.127 716.146 373.854C715.997 373.58 715.818 373.346 715.609 373.15C715.401 372.949 715.163 372.792 714.896 372.682C714.63 372.571 714.33 372.516 713.998 372.516C713.555 372.516 713.152 372.623 712.787 372.838C712.429 373.053 712.123 373.375 711.869 373.805C711.615 374.228 711.42 374.755 711.283 375.387C711.146 376.012 711.078 376.738 711.078 377.564Z" fill="black" fill-opacity="0.5"/>
<path d="M640.777 376.9C640.777 378.144 640.628 379.215 640.328 380.113C640.029 381.005 639.586 381.741 639 382.32C638.414 382.893 637.688 383.316 636.822 383.59C635.956 383.863 634.957 384 633.824 384H632.76V382.516H633.941C634.781 382.516 635.507 382.431 636.119 382.262C636.731 382.092 637.239 381.845 637.643 381.52C638.053 381.188 638.365 380.787 638.58 380.318C638.795 379.843 638.928 379.303 638.98 378.697L639.02 378.297C638.609 378.538 638.137 378.733 637.604 378.883C637.07 379.026 636.49 379.098 635.865 379.098C635.221 379.098 634.654 379.003 634.166 378.814C633.678 378.626 633.271 378.362 632.945 378.023C632.626 377.685 632.385 377.285 632.223 376.822C632.06 376.354 631.979 375.846 631.979 375.299C631.979 374.706 632.086 374.153 632.301 373.639C632.516 373.124 632.815 372.678 633.199 372.301C633.59 371.917 634.055 371.614 634.596 371.393C635.136 371.171 635.732 371.061 636.383 371.061C637.014 371.061 637.597 371.165 638.131 371.373C638.671 371.581 639.137 371.92 639.527 372.389C639.918 372.851 640.224 373.453 640.445 374.195C640.667 374.938 640.777 375.839 640.777 376.9ZM636.305 372.457C635.94 372.457 635.602 372.519 635.289 372.643C634.983 372.76 634.716 372.936 634.488 373.17C634.267 373.398 634.091 373.681 633.961 374.02C633.831 374.358 633.766 374.745 633.766 375.182C633.766 375.579 633.811 375.934 633.902 376.246C634 376.559 634.146 376.826 634.342 377.047C634.544 377.262 634.801 377.428 635.113 377.545C635.426 377.662 635.797 377.721 636.227 377.721C636.467 377.721 636.715 377.698 636.969 377.652C637.229 377.607 637.48 377.545 637.721 377.467C637.968 377.389 638.202 377.298 638.424 377.193C638.645 377.089 638.844 376.979 639.02 376.861C639.02 376.021 638.958 375.322 638.834 374.762C638.71 374.195 638.531 373.743 638.297 373.404C638.062 373.059 637.776 372.815 637.438 372.672C637.105 372.529 636.728 372.457 636.305 372.457Z" fill="black" fill-opacity="0.5"/>
<path d="M567.846 380.797C567.846 381.337 567.735 381.819 567.514 382.242C567.292 382.659 566.983 383.01 566.586 383.297C566.189 383.583 565.72 383.801 565.18 383.951C564.639 384.101 564.053 384.176 563.422 384.176C562.725 384.176 562.11 384.098 561.576 383.941C561.049 383.785 560.606 383.567 560.248 383.287C559.89 383.007 559.62 382.675 559.438 382.291C559.255 381.907 559.164 381.484 559.164 381.021C559.164 380.24 559.382 379.566 559.818 379C560.255 378.434 560.928 377.919 561.84 377.457C561.007 377.034 560.398 376.565 560.014 376.051C559.63 375.53 559.438 374.934 559.438 374.264C559.438 373.854 559.522 373.456 559.691 373.072C559.861 372.688 560.115 372.346 560.453 372.047C560.798 371.747 561.228 371.51 561.742 371.334C562.257 371.152 562.862 371.061 563.559 371.061C564.216 371.061 564.792 371.132 565.287 371.275C565.788 371.412 566.208 371.611 566.547 371.871C566.885 372.132 567.139 372.447 567.309 372.818C567.478 373.189 567.562 373.603 567.562 374.059C567.562 374.801 567.354 375.432 566.938 375.953C566.527 376.474 565.941 376.93 565.18 377.32C565.557 377.509 565.909 377.717 566.234 377.945C566.56 378.173 566.843 378.427 567.084 378.707C567.325 378.987 567.51 379.299 567.641 379.645C567.777 379.99 567.846 380.374 567.846 380.797ZM565.824 374.195C565.824 373.616 565.619 373.186 565.209 372.906C564.805 372.62 564.236 372.477 563.5 372.477C562.771 372.477 562.201 372.617 561.791 372.896C561.387 373.176 561.186 373.596 561.186 374.156C561.186 374.41 561.234 374.645 561.332 374.859C561.43 375.074 561.579 375.276 561.781 375.465C561.99 375.654 562.247 375.839 562.553 376.021C562.859 376.204 563.223 376.389 563.646 376.578C564.382 376.233 564.929 375.875 565.287 375.504C565.645 375.126 565.824 374.69 565.824 374.195ZM566 380.924C566 380.683 565.961 380.449 565.883 380.221C565.805 379.993 565.665 379.768 565.463 379.547C565.261 379.326 564.991 379.104 564.652 378.883C564.314 378.661 563.884 378.434 563.363 378.199C562.921 378.414 562.546 378.629 562.24 378.844C561.941 379.052 561.697 379.267 561.508 379.488C561.326 379.703 561.195 379.928 561.117 380.162C561.039 380.396 561 380.644 561 380.904C561 381.197 561.062 381.458 561.186 381.686C561.316 381.907 561.492 382.096 561.713 382.252C561.934 382.408 562.198 382.525 562.504 382.604C562.81 382.682 563.142 382.721 563.5 382.721C563.845 382.721 564.171 382.685 564.477 382.613C564.783 382.542 565.046 382.434 565.268 382.291C565.495 382.141 565.674 381.956 565.805 381.734C565.935 381.507 566 381.236 566 380.924Z" fill="black" fill-opacity="0.5"/>
<path d="M494.277 373.818L488.926 385H486.982L492.539 373.818H485.645V372.236H494.277V373.818Z" fill="black" fill-opacity="0.5"/>
<path d="M422.002 380.957C422.002 381.543 421.895 382.093 421.68 382.607C421.471 383.122 421.172 383.571 420.781 383.955C420.391 384.333 419.919 384.632 419.365 384.854C418.818 385.068 418.21 385.176 417.539 385.176C416.836 385.176 416.214 385.065 415.674 384.844C415.133 384.616 414.681 384.271 414.316 383.809C413.952 383.34 413.675 382.751 413.486 382.041C413.298 381.331 413.203 380.492 413.203 379.521C413.203 378.87 413.245 378.239 413.33 377.627C413.415 377.015 413.555 376.439 413.75 375.898C413.945 375.358 414.206 374.863 414.531 374.414C414.857 373.965 415.26 373.581 415.742 373.262C416.23 372.936 416.803 372.686 417.461 372.51C418.118 372.327 418.88 372.236 419.746 372.236H421.006V373.721H419.639C418.877 373.721 418.216 373.812 417.656 373.994C417.096 374.176 416.628 374.434 416.25 374.766C415.872 375.098 415.583 375.498 415.381 375.967C415.179 376.436 415.052 376.96 415 377.539L414.961 377.939C415.371 377.699 415.843 377.507 416.377 377.363C416.917 377.214 417.5 377.139 418.125 377.139C418.77 377.139 419.333 377.233 419.814 377.422C420.303 377.611 420.706 377.874 421.025 378.213C421.351 378.545 421.595 378.945 421.758 379.414C421.921 379.883 422.002 380.397 422.002 380.957ZM420.225 381.064C420.225 380.674 420.176 380.322 420.078 380.01C419.987 379.691 419.84 379.424 419.639 379.209C419.437 378.988 419.18 378.818 418.867 378.701C418.561 378.577 418.193 378.516 417.764 378.516C417.516 378.516 417.266 378.538 417.012 378.584C416.758 378.63 416.507 378.695 416.26 378.779C416.019 378.857 415.788 378.949 415.566 379.053C415.345 379.157 415.143 379.268 414.961 379.385C414.961 380.225 415.02 380.928 415.137 381.494C415.254 382.054 415.426 382.503 415.654 382.842C415.889 383.18 416.175 383.421 416.514 383.564C416.852 383.708 417.243 383.779 417.686 383.779C418.057 383.779 418.395 383.721 418.701 383.604C419.014 383.48 419.281 383.301 419.502 383.066C419.73 382.832 419.906 382.549 420.029 382.217C420.16 381.878 420.225 381.494 420.225 381.064Z" fill="black" fill-opacity="0.5"/>
<path d="M349.523 380.918C349.523 381.549 349.387 382.126 349.113 382.646C348.84 383.167 348.462 383.617 347.98 383.994C347.505 384.365 346.942 384.655 346.291 384.863C345.64 385.072 344.937 385.176 344.182 385.176C343.993 385.176 343.788 385.169 343.566 385.156C343.352 385.15 343.137 385.137 342.922 385.117C342.707 385.104 342.495 385.088 342.287 385.068C342.085 385.049 341.903 385.026 341.74 385V383.457C342.092 383.542 342.492 383.604 342.941 383.643C343.397 383.682 343.856 383.701 344.318 383.701C344.839 383.701 345.308 383.639 345.725 383.516C346.141 383.392 346.496 383.216 346.789 382.988C347.082 382.754 347.307 382.474 347.463 382.148C347.619 381.816 347.697 381.445 347.697 381.035C347.697 380.241 347.411 379.665 346.838 379.307C346.271 378.942 345.454 378.76 344.387 378.76H341.965V372.236H348.84V373.721H343.566V377.305H344.68C345.292 377.305 345.887 377.36 346.467 377.471C347.046 377.581 347.561 377.777 348.01 378.057C348.465 378.33 348.83 378.701 349.104 379.17C349.383 379.632 349.523 380.215 349.523 380.918Z" fill="black" fill-opacity="0.5"/>
<path d="M283.98 382.178H281.803V385H280.064V382.178H273.922V380.684L279.361 372.236H281.803V380.684H283.98V382.178ZM280.064 373.877L275.621 380.684H280.064V373.877Z" fill="black" fill-opacity="0.5"/>
<path d="M222.102 381.123C222.102 381.683 221.988 382.21 221.76 382.705C221.532 383.193 221.19 383.623 220.734 383.994C220.279 384.359 219.706 384.648 219.016 384.863C218.326 385.072 217.521 385.176 216.604 385.176C216.096 385.176 215.64 385.16 215.236 385.127C214.833 385.094 214.455 385.052 214.104 385V383.477C214.507 383.548 214.934 383.604 215.383 383.643C215.832 383.682 216.291 383.701 216.76 383.701C217.398 383.701 217.941 383.646 218.391 383.535C218.846 383.418 219.217 383.252 219.504 383.037C219.79 382.822 219.999 382.562 220.129 382.256C220.259 381.95 220.324 381.605 220.324 381.221C220.324 380.869 220.246 380.563 220.09 380.303C219.934 380.042 219.712 379.824 219.426 379.648C219.146 379.473 218.807 379.342 218.41 379.258C218.02 379.167 217.59 379.121 217.121 379.121H215.666V377.725H217.141C217.525 377.725 217.873 377.676 218.186 377.578C218.505 377.474 218.775 377.327 218.996 377.139C219.224 376.95 219.396 376.719 219.514 376.445C219.637 376.165 219.699 375.85 219.699 375.498C219.699 374.814 219.491 374.316 219.074 374.004C218.658 373.691 218.046 373.535 217.238 373.535C216.809 373.535 216.366 373.577 215.91 373.662C215.454 373.747 214.966 373.874 214.445 374.043V372.559C214.667 372.48 214.901 372.412 215.148 372.354C215.402 372.288 215.653 372.236 215.9 372.197C216.154 372.152 216.405 372.119 216.652 372.1C216.9 372.074 217.137 372.061 217.365 372.061C218.042 372.061 218.638 372.135 219.152 372.285C219.667 372.428 220.096 372.637 220.441 372.91C220.786 373.184 221.047 373.516 221.223 373.906C221.398 374.297 221.486 374.736 221.486 375.225C221.486 375.954 221.298 376.566 220.92 377.061C220.549 377.555 220.038 377.949 219.387 378.242C219.719 378.294 220.044 378.398 220.363 378.555C220.689 378.711 220.979 378.913 221.232 379.16C221.493 379.401 221.701 379.688 221.857 380.02C222.02 380.352 222.102 380.719 222.102 381.123Z" fill="black" fill-opacity="0.5"/>
<path d="M161.346 385H152.938V383.477L156.238 380.195C156.779 379.661 157.218 379.199 157.557 378.809C157.895 378.418 158.159 378.063 158.348 377.744C158.536 377.419 158.663 377.113 158.729 376.826C158.794 376.54 158.826 376.23 158.826 375.898C158.826 375.586 158.784 375.29 158.699 375.01C158.615 374.723 158.484 374.473 158.309 374.258C158.133 374.043 157.905 373.874 157.625 373.75C157.345 373.626 157.01 373.564 156.619 373.564C156.079 373.564 155.587 373.685 155.145 373.926C154.702 374.167 154.295 374.479 153.924 374.863L152.986 373.74C153.468 373.232 154.021 372.826 154.646 372.52C155.278 372.214 156.01 372.061 156.844 372.061C157.41 372.061 157.924 372.145 158.387 372.314C158.855 372.484 159.259 372.728 159.598 373.047C159.936 373.366 160.197 373.757 160.379 374.219C160.568 374.681 160.662 375.202 160.662 375.781C160.662 376.27 160.597 376.722 160.467 377.139C160.337 377.555 160.138 377.972 159.871 378.389C159.611 378.799 159.279 379.225 158.875 379.668C158.478 380.111 158.006 380.596 157.459 381.123L155.145 383.379H161.346V385Z" fill="black" fill-opacity="0.5"/>
<path d="M100.238 385H92.2207V383.418H95.502V374.102L92.4453 375.762L91.8203 374.316L95.8828 372.178H97.3867V383.418H100.238V385Z" fill="black" fill-opacity="0.5"/>
<path d="M39.6387 378.623C39.6387 379.6 39.541 380.492 39.3457 381.299C39.1504 382.1 38.8542 382.79 38.457 383.369C38.0599 383.942 37.5651 384.388 36.9727 384.707C36.3867 385.02 35.6966 385.176 34.9023 385.176C34.2188 385.176 33.597 385.049 33.0371 384.795C32.4772 384.535 31.9987 384.137 31.6016 383.604C31.2044 383.07 30.8984 382.389 30.6836 381.562C30.4688 380.736 30.3613 379.756 30.3613 378.623C30.3613 377.646 30.459 376.755 30.6543 375.947C30.8561 375.14 31.1523 374.45 31.543 373.877C31.9401 373.298 32.4349 372.852 33.0273 372.539C33.6198 372.22 34.3099 372.061 35.0977 372.061C35.7812 372.061 36.403 372.191 36.9629 372.451C37.5228 372.705 38.0013 373.102 38.3984 373.643C38.7956 374.176 39.1016 374.857 39.3164 375.684C39.5312 376.51 39.6387 377.49 39.6387 378.623ZM37.9199 378.682C37.9199 378.46 37.9102 378.242 37.8906 378.027C37.8776 377.806 37.8613 377.591 37.8418 377.383L32.4414 381.396C32.5391 381.735 32.6628 382.048 32.8125 382.334C32.9622 382.62 33.1413 382.868 33.3496 383.076C33.5645 383.278 33.8053 383.438 34.0723 383.555C34.3457 383.665 34.6549 383.721 35 383.721C35.4427 383.721 35.8431 383.613 36.2012 383.398C36.5658 383.184 36.875 382.865 37.1289 382.441C37.3828 382.018 37.5781 381.494 37.7148 380.869C37.8516 380.238 37.9199 379.508 37.9199 378.682ZM32.0801 378.564C32.0801 378.766 32.0801 378.968 32.0801 379.17C32.0866 379.372 32.0996 379.567 32.1191 379.756L37.5195 375.762C37.4219 375.43 37.2982 375.127 37.1484 374.854C36.9987 374.58 36.8197 374.346 36.6113 374.15C36.403 373.949 36.1654 373.792 35.8984 373.682C35.6315 373.571 35.332 373.516 35 373.516C34.5573 373.516 34.1536 373.623 33.7891 373.838C33.431 374.053 33.125 374.375 32.8711 374.805C32.6172 375.228 32.4219 375.755 32.2852 376.387C32.1484 377.012 32.0801 377.738 32.0801 378.564Z" fill="black" fill-opacity="0.5"/>
<path d="M7.49121 354.205H1.23242V330.617H7.49121V332.395H3.33984V352.428H7.49121V354.205Z" fill="black"/>
<path d="M814.509 354.205H820.768V330.617H814.509V332.395H818.66V352.428H814.509V354.205Z" fill="black"/>
<path d="M210 65.5C210.828 65.5 211.5 64.8284 211.5 64C211.5 63.1716 210.828 62.5 210 62.5V65.5ZM127 64V62.5H125.5V64H127ZM125.939 315.061C126.525 315.646 127.475 315.646 128.061 315.061L137.607 305.515C138.192 304.929 138.192 303.979 137.607 303.393C137.021 302.808 136.071 302.808 135.485 303.393L127 311.879L118.515 303.393C117.929 302.808 116.979 302.808 116.393 303.393C115.808 303.979 115.808 304.929 116.393 305.515L125.939 315.061ZM210 62.5H127V65.5H210V62.5ZM125.5 64V314H128.5V64H125.5Z" fill="#FF5500" fill-opacity="0.25"/>
<path d="M210 134.5C210.828 134.5 211.5 133.828 211.5 133C211.5 132.172 210.828 131.5 210 131.5V134.5ZM178 133V131.5H176.5V133H178ZM178 276.486H176.5V277.986H178V276.486ZM387 276.486H388.5V274.986H387V276.486ZM385.939 314.061C386.525 314.646 387.475 314.646 388.061 314.061L397.607 304.515C398.192 303.929 398.192 302.979 397.607 302.393C397.021 301.808 396.071 301.808 395.485 302.393L387 310.879L378.515 302.393C377.929 301.808 376.979 301.808 376.393 302.393C375.808 302.979 375.808 303.929 376.393 304.515L385.939 314.061ZM210 131.5H178V134.5H210V131.5ZM176.5 133V276.486H179.5V133H176.5ZM178 277.986H387V274.986H178V277.986ZM385.5 276.486V313H388.5V276.486H385.5Z" fill="#FF5500" fill-opacity="0.45"/>
<path d="M528.5 198.5C527.672 198.5 527 197.828 527 197C527 196.172 527.672 195.5 528.5 195.5V198.5ZM672 197V195.5H673.5V197H672ZM673.061 313.561C672.475 314.146 671.525 314.146 670.939 313.561L661.393 304.015C660.808 303.429 660.808 302.479 661.393 301.893C661.979 301.308 662.929 301.308 663.515 301.893L672 310.379L680.485 301.893C681.071 301.308 682.021 301.308 682.607 301.893C683.192 302.479 683.192 303.429 682.607 304.015L673.061 313.561ZM528.5 195.5H672V198.5H528.5V195.5ZM673.5 197V312.5H670.5V197H673.5Z" fill="#F39464"/>
</g>
<defs>
<clipPath id="clip0_6267_3289">
<rect width="822" height="392" fill="white"/>
</clipPath>
</defs>
</svg>
