<svg width="189" height="449" viewBox="0 0 189 449" fill="none" xmlns="http://www.w3.org/2000/svg">
<g clip-path="url(#clip0_6294_109)">
<rect width="189" height="449" fill="white"/>
<path d="M36.0205 19H32.9863L27.0449 12.1699V19H24.8359V1.06152H27.0449V12.0811L32.7705 6.25391H35.6904L29.7109 12.1318L36.0205 19ZM49.6172 11.9541C49.6172 12.2673 49.613 12.5296 49.6045 12.7412C49.596 12.9528 49.5833 13.1517 49.5664 13.3379H40.6162C40.6162 14.6413 40.9801 15.6442 41.708 16.3467C42.4359 17.0407 43.4854 17.3877 44.8564 17.3877C45.2288 17.3877 45.6012 17.375 45.9736 17.3496C46.346 17.3158 46.7057 17.2734 47.0527 17.2227C47.3997 17.1719 47.7298 17.1169 48.043 17.0576C48.3646 16.9899 48.6608 16.918 48.9316 16.8418V18.6572C48.3307 18.8265 47.6494 18.9619 46.8877 19.0635C46.1344 19.1735 45.3516 19.2285 44.5391 19.2285C43.4473 19.2285 42.5078 19.0804 41.7207 18.7842C40.9336 18.488 40.2861 18.0605 39.7783 17.502C39.279 16.9349 38.9066 16.2451 38.6611 15.4326C38.4242 14.6117 38.3057 13.6849 38.3057 12.6523C38.3057 11.7552 38.4326 10.9089 38.6865 10.1133C38.9489 9.30924 39.3255 8.60677 39.8164 8.00586C40.3158 7.39648 40.9251 6.91406 41.6445 6.55859C42.3639 6.20312 43.1807 6.02539 44.0947 6.02539C44.9834 6.02539 45.7705 6.16504 46.4561 6.44434C47.1416 6.72363 47.7171 7.12142 48.1826 7.6377C48.6566 8.14551 49.012 8.76758 49.249 9.50391C49.4945 10.2318 49.6172 11.0485 49.6172 11.9541ZM47.3193 11.6367C47.3447 11.0697 47.2897 10.5534 47.1543 10.0879C47.0189 9.61393 46.8073 9.20768 46.5195 8.86914C46.2402 8.5306 45.889 8.26823 45.4658 8.08203C45.0426 7.88737 44.5518 7.79004 43.9932 7.79004C43.5107 7.79004 43.0706 7.88314 42.6729 8.06934C42.2751 8.25553 41.9323 8.5179 41.6445 8.85645C41.3568 9.19499 41.124 9.60124 40.9463 10.0752C40.7686 10.5492 40.6585 11.0697 40.6162 11.6367H47.3193ZM64.4834 6.25391L60.1416 17.6543C59.693 18.8138 59.2275 19.8125 58.7451 20.6504C58.2712 21.4883 57.7507 22.1738 57.1836 22.707C56.6165 23.2487 55.9945 23.6465 55.3174 23.9004C54.6403 24.1543 53.8828 24.2812 53.0449 24.2812C52.8249 24.2812 52.626 24.277 52.4482 24.2686C52.2705 24.2601 52.0758 24.2474 51.8643 24.2305V22.2246C52.0505 22.25 52.2536 22.2712 52.4736 22.2881C52.6937 22.3135 52.9264 22.3262 53.1719 22.3262C53.5781 22.3262 53.9548 22.2669 54.3018 22.1484C54.6572 22.0299 54.9915 21.8353 55.3047 21.5645C55.6178 21.3021 55.9183 20.9593 56.2061 20.5361C56.4938 20.113 56.7731 19.6009 57.0439 19L51.9531 6.25391H54.4668L57.6914 14.6836L58.3389 16.6641L59.0752 14.6328L62.0586 6.25391H64.4834ZM78.334 12.3984C78.334 13.5326 78.1732 14.5228 77.8516 15.3691C77.5384 16.2155 77.1025 16.918 76.5439 17.4766C75.9854 18.0352 75.3252 18.4541 74.5635 18.7334C73.8018 19.0127 72.9766 19.1523 72.0879 19.1523C71.6816 19.1523 71.2754 19.1312 70.8691 19.0889C70.4714 19.0465 70.0651 18.9746 69.6504 18.873V24.2051H67.4414V6.25391H69.4092L69.5488 8.38672C70.1836 7.51497 70.8607 6.9056 71.5801 6.55859C72.2995 6.20312 73.0781 6.02539 73.916 6.02539C74.6439 6.02539 75.2829 6.17773 75.833 6.48242C76.3831 6.78711 76.8444 7.21875 77.2168 7.77734C77.5892 8.32747 77.8685 8.99609 78.0547 9.7832C78.2409 10.5618 78.334 11.4336 78.334 12.3984ZM76.0742 12.5C76.0742 11.8314 76.0234 11.2178 75.9219 10.6592C75.8288 10.1006 75.6764 9.6224 75.4648 9.22461C75.2533 8.82682 74.9824 8.5179 74.6523 8.29785C74.3223 8.06934 73.9287 7.95508 73.4717 7.95508C73.1924 7.95508 72.9089 8.00163 72.6211 8.09473C72.3333 8.17936 72.0329 8.32747 71.7197 8.53906C71.415 8.74219 71.0892 9.01725 70.7422 9.36426C70.4036 9.7028 70.0397 10.126 69.6504 10.6338V16.8164C70.0566 16.9857 70.484 17.1211 70.9326 17.2227C71.3812 17.3158 71.8213 17.3623 72.2529 17.3623C73.4463 17.3623 74.3815 16.9603 75.0586 16.1562C75.7357 15.3438 76.0742 14.125 76.0742 12.5ZM89.9248 19L89.874 17.2861C89.18 17.9717 88.4733 18.4668 87.7539 18.7715C87.043 19.0762 86.2939 19.2285 85.5068 19.2285C84.779 19.2285 84.1569 19.1354 83.6406 18.9492C83.1243 18.763 82.6969 18.5091 82.3584 18.1875C82.0283 17.8574 81.7829 17.4723 81.6221 17.0322C81.4697 16.5921 81.3936 16.1139 81.3936 15.5977C81.3936 14.3197 81.8675 13.321 82.8154 12.6016C83.7718 11.8737 85.181 11.5098 87.043 11.5098H89.6836V10.3926C89.6836 9.63932 89.4424 9.03841 88.96 8.58984C88.4775 8.13281 87.7412 7.9043 86.751 7.9043C86.0316 7.9043 85.3206 7.9847 84.6182 8.14551C83.9242 8.30632 83.2048 8.53483 82.46 8.83105V6.83789C82.7393 6.73633 83.0482 6.639 83.3867 6.5459C83.7337 6.44434 84.0977 6.35547 84.4785 6.2793C84.8594 6.20312 85.2572 6.14388 85.6719 6.10156C86.0866 6.05078 86.5055 6.02539 86.9287 6.02539C87.6989 6.02539 88.3929 6.11003 89.0107 6.2793C89.6286 6.44857 90.1491 6.70671 90.5723 7.05371C91.0039 7.40072 91.334 7.83659 91.5625 8.36133C91.791 8.88607 91.9053 9.50391 91.9053 10.2148V19H89.9248ZM89.6836 13.1982H86.8779C86.3278 13.1982 85.8538 13.2533 85.4561 13.3633C85.0583 13.4733 84.7324 13.6299 84.4785 13.833C84.2246 14.0361 84.0342 14.2816 83.9072 14.5693C83.7887 14.8486 83.7295 15.166 83.7295 15.5215C83.7295 15.7669 83.7676 16.0039 83.8438 16.2324C83.9199 16.4525 84.0426 16.6514 84.2119 16.8291C84.3812 16.9984 84.6012 17.1338 84.8721 17.2354C85.1429 17.3369 85.473 17.3877 85.8623 17.3877C86.3701 17.3877 86.9499 17.2354 87.6016 16.9307C88.2617 16.6175 88.9557 16.1266 89.6836 15.458V13.1982ZM95.3838 12.8936C95.3838 11.8102 95.5319 10.8496 95.8281 10.0117C96.1243 9.16536 96.5433 8.45443 97.085 7.87891C97.6351 7.29492 98.291 6.85482 99.0527 6.55859C99.8229 6.25391 100.678 6.10156 101.617 6.10156C102.023 6.10156 102.421 6.12695 102.811 6.17773C103.208 6.22852 103.598 6.30892 103.979 6.41895V1.06152H106.2V19H104.22L104.144 16.5879C103.526 17.485 102.857 18.1494 102.138 18.5811C101.418 19.0127 100.64 19.2285 99.8018 19.2285C99.0739 19.2285 98.4307 19.0762 97.8721 18.7715C97.3219 18.4668 96.8607 18.0394 96.4883 17.4893C96.1243 16.9307 95.8493 16.262 95.6631 15.4834C95.4769 14.7048 95.3838 13.8415 95.3838 12.8936ZM97.6436 12.7539C97.6436 14.2943 97.8678 15.4453 98.3164 16.207C98.7734 16.9603 99.4167 17.3369 100.246 17.3369C100.805 17.3369 101.393 17.0872 102.011 16.5879C102.637 16.0885 103.293 15.348 103.979 14.3662V8.4502C103.615 8.28092 103.213 8.15397 102.772 8.06934C102.332 7.97624 101.896 7.92969 101.465 7.92969C100.263 7.92969 99.3236 8.31901 98.6465 9.09766C97.9779 9.8763 97.6436 11.0951 97.6436 12.7539ZM122.59 24.2051H108.295V22.377H122.59V24.2051ZM133.711 19V9.84668C133.711 9.44889 133.694 9.12305 133.66 8.86914C133.635 8.61523 133.588 8.41634 133.521 8.27246C133.461 8.12012 133.381 8.01432 133.279 7.95508C133.186 7.89583 133.068 7.86621 132.924 7.86621C132.755 7.86621 132.598 7.91699 132.454 8.01855C132.31 8.12012 132.154 8.28516 131.984 8.51367C131.824 8.74219 131.642 9.04688 131.438 9.42773C131.244 9.80013 131.011 10.2614 130.74 10.8115V19H128.722V10.0879C128.722 9.6224 128.705 9.24577 128.671 8.95801C128.646 8.67025 128.599 8.44596 128.531 8.28516C128.472 8.12435 128.392 8.01432 128.29 7.95508C128.188 7.89583 128.066 7.86621 127.922 7.86621C127.77 7.86621 127.626 7.90853 127.49 7.99316C127.355 8.0778 127.202 8.23014 127.033 8.4502C126.872 8.67025 126.69 8.9707 126.487 9.35156C126.284 9.73242 126.043 10.2191 125.764 10.8115V19H123.732V6.25391H125.421L125.522 8.67871C125.743 8.19629 125.954 7.78581 126.157 7.44727C126.369 7.10872 126.585 6.83789 126.805 6.63477C127.025 6.42318 127.257 6.27083 127.503 6.17773C127.757 6.07617 128.036 6.02539 128.341 6.02539C129.026 6.02539 129.547 6.24967 129.902 6.69824C130.258 7.14681 130.436 7.84082 130.436 8.78027C130.639 8.34017 130.838 7.95085 131.032 7.6123C131.227 7.2653 131.434 6.97754 131.654 6.74902C131.883 6.51204 132.132 6.33431 132.403 6.21582C132.674 6.08887 132.987 6.02539 133.343 6.02539C134.942 6.02539 135.742 7.25684 135.742 9.71973V19H133.711ZM147.104 19L147.054 17.2861C146.36 17.9717 145.653 18.4668 144.934 18.7715C144.223 19.0762 143.474 19.2285 142.687 19.2285C141.959 19.2285 141.337 19.1354 140.82 18.9492C140.304 18.763 139.877 18.5091 139.538 18.1875C139.208 17.8574 138.963 17.4723 138.802 17.0322C138.649 16.5921 138.573 16.1139 138.573 15.5977C138.573 14.3197 139.047 13.321 139.995 12.6016C140.951 11.8737 142.361 11.5098 144.223 11.5098H146.863V10.3926C146.863 9.63932 146.622 9.03841 146.14 8.58984C145.657 8.13281 144.921 7.9043 143.931 7.9043C143.211 7.9043 142.5 7.9847 141.798 8.14551C141.104 8.30632 140.384 8.53483 139.64 8.83105V6.83789C139.919 6.73633 140.228 6.639 140.566 6.5459C140.913 6.44434 141.277 6.35547 141.658 6.2793C142.039 6.20312 142.437 6.14388 142.852 6.10156C143.266 6.05078 143.685 6.02539 144.108 6.02539C144.879 6.02539 145.573 6.11003 146.19 6.2793C146.808 6.44857 147.329 6.70671 147.752 7.05371C148.184 7.40072 148.514 7.83659 148.742 8.36133C148.971 8.88607 149.085 9.50391 149.085 10.2148V19H147.104ZM146.863 13.1982H144.058C143.507 13.1982 143.034 13.2533 142.636 13.3633C142.238 13.4733 141.912 13.6299 141.658 13.833C141.404 14.0361 141.214 14.2816 141.087 14.5693C140.968 14.8486 140.909 15.166 140.909 15.5215C140.909 15.7669 140.947 16.0039 141.023 16.2324C141.1 16.4525 141.222 16.6514 141.392 16.8291C141.561 16.9984 141.781 17.1338 142.052 17.2354C142.323 17.3369 142.653 17.3877 143.042 17.3877C143.55 17.3877 144.13 17.2354 144.781 16.9307C145.441 16.6175 146.135 16.1266 146.863 15.458V13.1982ZM164.104 12.3984C164.104 13.5326 163.943 14.5228 163.621 15.3691C163.308 16.2155 162.872 16.918 162.313 17.4766C161.755 18.0352 161.095 18.4541 160.333 18.7334C159.571 19.0127 158.746 19.1523 157.857 19.1523C157.451 19.1523 157.045 19.1312 156.639 19.0889C156.241 19.0465 155.835 18.9746 155.42 18.873V24.2051H153.211V6.25391H155.179L155.318 8.38672C155.953 7.51497 156.63 6.9056 157.35 6.55859C158.069 6.20312 158.848 6.02539 159.686 6.02539C160.413 6.02539 161.052 6.17773 161.603 6.48242C162.153 6.78711 162.614 7.21875 162.986 7.77734C163.359 8.32747 163.638 8.99609 163.824 9.7832C164.01 10.5618 164.104 11.4336 164.104 12.3984ZM161.844 12.5C161.844 11.8314 161.793 11.2178 161.691 10.6592C161.598 10.1006 161.446 9.6224 161.234 9.22461C161.023 8.82682 160.752 8.5179 160.422 8.29785C160.092 8.06934 159.698 7.95508 159.241 7.95508C158.962 7.95508 158.678 8.00163 158.391 8.09473C158.103 8.17936 157.802 8.32747 157.489 8.53906C157.185 8.74219 156.859 9.01725 156.512 9.36426C156.173 9.7028 155.809 10.126 155.42 10.6338V16.8164C155.826 16.9857 156.254 17.1211 156.702 17.2227C157.151 17.3158 157.591 17.3623 158.022 17.3623C159.216 17.3623 160.151 16.9603 160.828 16.1562C161.505 15.3438 161.844 14.125 161.844 12.5Z" fill="black"/>
<rect x="1" y="29" width="187" height="396" rx="9" stroke="black" stroke-width="2"/>
<path d="M72 36L72 421" stroke="#DEDEDE" stroke-linecap="round"/>
<path d="M10.0742 439.303C10.0742 438.469 10.1882 437.73 10.416 437.086C10.6439 436.435 10.9661 435.888 11.3828 435.445C11.806 434.996 12.3105 434.658 12.8965 434.43C13.4889 434.195 14.1465 434.078 14.8691 434.078C15.1816 434.078 15.4876 434.098 15.7871 434.137C16.0931 434.176 16.3926 434.238 16.6855 434.322V430.201H18.3945V444H16.8711L16.8125 442.145C16.3372 442.835 15.8229 443.346 15.2695 443.678C14.7161 444.01 14.1172 444.176 13.4727 444.176C12.9128 444.176 12.418 444.059 11.9883 443.824C11.5651 443.59 11.2103 443.261 10.9238 442.838C10.6439 442.408 10.4323 441.894 10.2891 441.295C10.1458 440.696 10.0742 440.032 10.0742 439.303ZM11.8125 439.195C11.8125 440.38 11.985 441.266 12.3301 441.852C12.6816 442.431 13.1764 442.721 13.8145 442.721C14.2441 442.721 14.6966 442.529 15.1719 442.145C15.6536 441.76 16.1582 441.191 16.6855 440.436V435.885C16.4056 435.755 16.0964 435.657 15.7578 435.592C15.4193 435.52 15.084 435.484 14.752 435.484C13.8275 435.484 13.1048 435.784 12.584 436.383C12.0697 436.982 11.8125 437.919 11.8125 439.195ZM24.9082 435.602H22.0078V434.195H26.627V442.584H29.5469V444H21.6855V442.584H24.9082V435.602ZM25.5039 430.084C25.6927 430.084 25.8685 430.12 26.0312 430.191C26.194 430.257 26.334 430.351 26.4512 430.475C26.5749 430.598 26.6693 430.742 26.7344 430.904C26.806 431.061 26.8418 431.233 26.8418 431.422C26.8418 431.604 26.806 431.777 26.7344 431.939C26.6693 432.102 26.5749 432.245 26.4512 432.369C26.334 432.493 26.194 432.59 26.0312 432.662C25.8685 432.727 25.6927 432.76 25.5039 432.76C25.3151 432.76 25.1393 432.727 24.9766 432.662C24.8138 432.59 24.6706 432.493 24.5469 432.369C24.4297 432.245 24.3353 432.102 24.2637 431.939C24.1986 431.777 24.166 431.604 24.166 431.422C24.166 431.233 24.1986 431.061 24.2637 430.904C24.3353 430.742 24.4297 430.598 24.5469 430.475C24.6706 430.351 24.8138 430.257 24.9766 430.191C25.1393 430.12 25.3151 430.084 25.5039 430.084ZM39.625 435.582C39.8073 435.81 39.9473 436.077 40.0449 436.383C40.1491 436.682 40.2012 437.008 40.2012 437.359C40.2012 437.867 40.1068 438.333 39.918 438.756C39.7357 439.173 39.4753 439.531 39.1367 439.83C38.7982 440.13 38.3913 440.364 37.916 440.533C37.4473 440.696 36.9297 440.777 36.3633 440.777C35.9531 440.777 35.569 440.735 35.2109 440.65C34.8529 440.559 34.5697 440.449 34.3613 440.318C34.2376 440.501 34.1335 440.673 34.0488 440.836C33.9642 440.999 33.9219 441.181 33.9219 441.383C33.9219 441.63 34.0391 441.835 34.2734 441.998C34.5143 442.161 34.8301 442.249 35.2207 442.262L37.7988 442.359C38.2871 442.372 38.7363 442.434 39.1465 442.545C39.5632 442.656 39.918 442.815 40.2109 443.023C40.5104 443.232 40.7415 443.489 40.9043 443.795C41.0736 444.101 41.1582 444.456 41.1582 444.859C41.1582 445.296 41.0638 445.709 40.875 446.1C40.6862 446.49 40.3932 446.832 39.9961 447.125C39.6055 447.424 39.1074 447.662 38.502 447.838C37.8965 448.014 37.1771 448.102 36.3438 448.102C35.5495 448.102 34.8724 448.036 34.3125 447.906C33.7591 447.783 33.3034 447.607 32.9453 447.379C32.5872 447.158 32.3268 446.891 32.1641 446.578C32.0013 446.272 31.9199 445.934 31.9199 445.562C31.9199 445.087 32.0306 444.671 32.252 444.312C32.4733 443.954 32.8151 443.609 33.2773 443.277C33.1081 443.199 32.9616 443.102 32.8379 442.984C32.7142 442.867 32.6133 442.74 32.5352 442.604C32.457 442.46 32.3984 442.311 32.3594 442.154C32.3203 441.998 32.3008 441.845 32.3008 441.695C32.3008 441.272 32.3984 440.885 32.5938 440.533C32.7956 440.182 33.0332 439.85 33.3066 439.537C33.1829 439.387 33.0723 439.241 32.9746 439.098C32.8835 438.954 32.8021 438.801 32.7305 438.639C32.6654 438.469 32.6133 438.29 32.5742 438.102C32.5417 437.906 32.5254 437.685 32.5254 437.438C32.5254 436.93 32.6165 436.467 32.7988 436.051C32.9876 435.628 33.248 435.266 33.5801 434.967C33.9186 434.667 34.3223 434.436 34.791 434.273C35.2663 434.104 35.7904 434.02 36.3633 434.02C36.6042 434.02 36.8353 434.036 37.0566 434.068C37.278 434.101 37.4733 434.143 37.6426 434.195H41.1973V435.582H39.625ZM33.7266 445.416C33.7266 445.878 33.9674 446.214 34.4492 446.422C34.931 446.637 35.6016 446.744 36.4609 446.744C37.0013 446.744 37.4538 446.695 37.8184 446.598C38.1895 446.5 38.4857 446.37 38.707 446.207C38.9349 446.051 39.0977 445.868 39.1953 445.66C39.293 445.458 39.3418 445.25 39.3418 445.035C39.3418 444.638 39.179 444.345 38.8535 444.156C38.528 443.967 38.0299 443.857 37.3594 443.824L34.8008 443.736C34.5859 443.88 34.4069 444.02 34.2637 444.156C34.127 444.293 34.0195 444.43 33.9414 444.566C33.8633 444.71 33.8079 444.85 33.7754 444.986C33.7428 445.13 33.7266 445.273 33.7266 445.416ZM34.2441 437.398C34.2441 437.711 34.2962 437.997 34.4004 438.258C34.5046 438.518 34.651 438.74 34.8398 438.922C35.0286 439.104 35.25 439.247 35.5039 439.352C35.7643 439.449 36.0508 439.498 36.3633 439.498C36.7018 439.498 37.0013 439.443 37.2617 439.332C37.5286 439.215 37.75 439.059 37.9258 438.863C38.1081 438.668 38.2448 438.443 38.3359 438.189C38.4336 437.936 38.4824 437.672 38.4824 437.398C38.4824 437.086 38.4303 436.799 38.3262 436.539C38.222 436.279 38.0755 436.057 37.8867 435.875C37.6979 435.693 37.4733 435.553 37.2129 435.455C36.959 435.351 36.6758 435.299 36.3633 435.299C36.0247 435.299 35.722 435.357 35.4551 435.475C35.1947 435.592 34.9733 435.748 34.791 435.943C34.6152 436.132 34.4785 436.354 34.3809 436.607C34.2897 436.861 34.2441 437.125 34.2441 437.398ZM46.9004 435.602H44V434.195H48.6191V442.584H51.5391V444H43.6777V442.584H46.9004V435.602ZM47.4961 430.084C47.6849 430.084 47.8607 430.12 48.0234 430.191C48.1862 430.257 48.3262 430.351 48.4434 430.475C48.5671 430.598 48.6615 430.742 48.7266 430.904C48.7982 431.061 48.834 431.233 48.834 431.422C48.834 431.604 48.7982 431.777 48.7266 431.939C48.6615 432.102 48.5671 432.245 48.4434 432.369C48.3262 432.493 48.1862 432.59 48.0234 432.662C47.8607 432.727 47.6849 432.76 47.4961 432.76C47.3073 432.76 47.1315 432.727 46.9688 432.662C46.806 432.59 46.6628 432.493 46.5391 432.369C46.4219 432.245 46.3275 432.102 46.2559 431.939C46.1908 431.777 46.1582 431.604 46.1582 431.422C46.1582 431.233 46.1908 431.061 46.2559 430.904C46.3275 430.742 46.4219 430.598 46.5391 430.475C46.6628 430.351 46.806 430.257 46.9688 430.191C47.1315 430.12 47.3073 430.084 47.4961 430.084ZM62.457 443.863C62.0729 443.961 61.6758 444.029 61.2656 444.068C60.8555 444.114 60.4388 444.137 60.0156 444.137C58.7852 444.137 57.8672 443.86 57.2617 443.307C56.6562 442.747 56.3535 441.891 56.3535 440.738V435.621H53.6094V434.195H56.3535V431.5L58.0527 431.061V434.195H62.457V435.621H58.0527V440.602C58.0527 441.305 58.2383 441.832 58.6094 442.184C58.987 442.529 59.5404 442.701 60.2695 442.701C60.582 442.701 60.9238 442.678 61.2949 442.633C61.666 442.581 62.0534 442.503 62.457 442.398V443.863Z" fill="#666666"/>
<path d="M23.165 47.0615L22.7969 53.0156H20.6133L20.2578 47.0615H23.165ZM41.6494 65H30.7188V63.0195L35.0098 58.7539C35.7122 58.0599 36.2835 57.459 36.7236 56.9512C37.1637 56.4434 37.5065 55.9821 37.752 55.5674C37.9974 55.1442 38.1624 54.7464 38.2471 54.374C38.3317 54.0016 38.374 53.5996 38.374 53.168C38.374 52.7617 38.319 52.3766 38.209 52.0127C38.099 51.6403 37.9297 51.3145 37.7012 51.0352C37.4727 50.7559 37.1764 50.5358 36.8125 50.375C36.4486 50.2142 36.0127 50.1338 35.5049 50.1338C34.8024 50.1338 34.1634 50.2904 33.5879 50.6035C33.0124 50.9167 32.4834 51.3229 32.001 51.8223L30.7822 50.3623C31.4085 49.7021 32.1279 49.1732 32.9404 48.7754C33.7614 48.3776 34.7135 48.1787 35.7969 48.1787C36.5332 48.1787 37.2018 48.2887 37.8027 48.5088C38.4121 48.7288 38.9368 49.0462 39.377 49.4609C39.8171 49.8757 40.1556 50.3835 40.3926 50.9844C40.638 51.5853 40.7607 52.2624 40.7607 53.0156C40.7607 53.6504 40.6761 54.2386 40.5068 54.7803C40.3376 55.3219 40.0794 55.8636 39.7324 56.4053C39.3939 56.9385 38.9622 57.4928 38.4375 58.0684C37.9212 58.6439 37.3076 59.2744 36.5967 59.96L33.5879 62.8926H41.6494V65ZM51.7549 47.0615L51.3867 53.0156H49.2031L48.8477 47.0615H51.7549Z" fill="black"/>
<path d="M101.844 47.0615L101.488 53.0156H99.4062L99.0381 47.0615H101.844ZM106.782 47.0615L106.427 53.0156H104.345L103.977 47.0615H106.782ZM120.277 65L120.227 63.2861C119.533 63.9717 118.826 64.4668 118.106 64.7715C117.396 65.0762 116.646 65.2285 115.859 65.2285C115.132 65.2285 114.509 65.1354 113.993 64.9492C113.477 64.763 113.049 64.5091 112.711 64.1875C112.381 63.8574 112.135 63.4723 111.975 63.0322C111.822 62.5921 111.746 62.1139 111.746 61.5977C111.746 60.3197 112.22 59.321 113.168 58.6016C114.124 57.8737 115.534 57.5098 117.396 57.5098H120.036V56.3926C120.036 55.6393 119.795 55.0384 119.312 54.5898C118.83 54.1328 118.094 53.9043 117.104 53.9043C116.384 53.9043 115.673 53.9847 114.971 54.1455C114.277 54.3063 113.557 54.5348 112.812 54.8311V52.8379C113.092 52.7363 113.401 52.639 113.739 52.5459C114.086 52.4443 114.45 52.3555 114.831 52.2793C115.212 52.2031 115.61 52.1439 116.024 52.1016C116.439 52.0508 116.858 52.0254 117.281 52.0254C118.051 52.0254 118.745 52.11 119.363 52.2793C119.981 52.4486 120.502 52.7067 120.925 53.0537C121.356 53.4007 121.687 53.8366 121.915 54.3613C122.144 54.8861 122.258 55.5039 122.258 56.2148V65H120.277ZM120.036 59.1982H117.23C116.68 59.1982 116.206 59.2533 115.809 59.3633C115.411 59.4733 115.085 59.6299 114.831 59.833C114.577 60.0361 114.387 60.2816 114.26 60.5693C114.141 60.8486 114.082 61.166 114.082 61.5215C114.082 61.7669 114.12 62.0039 114.196 62.2324C114.272 62.4525 114.395 62.6514 114.564 62.8291C114.734 62.9984 114.954 63.1338 115.225 63.2354C115.495 63.3369 115.826 63.3877 116.215 63.3877C116.723 63.3877 117.302 63.2354 117.954 62.9307C118.614 62.6175 119.308 62.1266 120.036 61.458V59.1982ZM137.276 58.3984C137.276 59.4564 137.128 60.4043 136.832 61.2422C136.544 62.0716 136.13 62.7783 135.588 63.3623C135.055 63.9378 134.403 64.3822 133.633 64.6953C132.863 65 131.995 65.1523 131.03 65.1523C130.277 65.1523 129.507 65.0804 128.72 64.9365C127.933 64.7926 127.154 64.5641 126.384 64.251V47.0615H128.593V52L128.491 54.3613C129.126 53.5065 129.803 52.9056 130.522 52.5586C131.25 52.2031 132.029 52.0254 132.858 52.0254C133.586 52.0254 134.225 52.1777 134.775 52.4824C135.326 52.7871 135.787 53.2188 136.159 53.7773C136.532 54.3275 136.811 54.9961 136.997 55.7832C137.183 56.5618 137.276 57.4336 137.276 58.3984ZM135.017 58.5C135.017 57.8314 134.966 57.2178 134.864 56.6592C134.771 56.1006 134.619 55.6224 134.407 55.2246C134.196 54.8268 133.925 54.5179 133.595 54.2979C133.265 54.0693 132.871 53.9551 132.414 53.9551C132.135 53.9551 131.851 54.0016 131.563 54.0947C131.276 54.1794 130.975 54.3275 130.662 54.5391C130.357 54.7422 130.032 55.0173 129.685 55.3643C129.346 55.7028 128.982 56.126 128.593 56.6338V62.8164C129.024 62.9857 129.465 63.1211 129.913 63.2227C130.362 63.3158 130.789 63.3623 131.195 63.3623C131.703 63.3623 132.186 63.2819 132.643 63.1211C133.108 62.9603 133.514 62.6937 133.861 62.3213C134.217 61.9404 134.496 61.4411 134.699 60.8232C134.911 60.1969 135.017 59.4225 135.017 58.5ZM150.581 64.5303C150.006 64.7503 149.413 64.9111 148.804 65.0127C148.203 65.1227 147.581 65.1777 146.938 65.1777C144.923 65.1777 143.37 64.6318 142.278 63.54C141.195 62.4482 140.653 60.8529 140.653 58.7539C140.653 57.7467 140.81 56.8327 141.123 56.0117C141.436 55.1908 141.876 54.4883 142.443 53.9043C143.01 53.3203 143.688 52.8717 144.475 52.5586C145.262 52.237 146.129 52.0762 147.077 52.0762C147.737 52.0762 148.355 52.1227 148.931 52.2158C149.506 52.3089 150.056 52.4613 150.581 52.6729V54.7803C150.031 54.4925 149.468 54.2852 148.893 54.1582C148.326 54.0228 147.737 53.9551 147.128 53.9551C146.561 53.9551 146.023 54.0651 145.516 54.2852C145.016 54.4967 144.576 54.8057 144.195 55.2119C143.814 55.6182 143.514 56.1133 143.294 56.6973C143.074 57.2812 142.964 57.9414 142.964 58.6777C142.964 60.2181 143.336 61.3734 144.081 62.1436C144.834 62.9053 145.875 63.2861 147.204 63.2861C147.805 63.2861 148.385 63.2184 148.943 63.083C149.51 62.9476 150.056 62.7445 150.581 62.4736V64.5303ZM159.023 47.0615L158.668 53.0156H156.586L156.218 47.0615H159.023ZM163.962 47.0615L163.606 53.0156H161.524L161.156 47.0615H163.962Z" fill="black"/>
<path d="M23.165 96.0615L22.7969 102.016H20.6133L20.2578 96.0615H23.165ZM41.332 108.96C41.332 109.688 41.1839 110.373 40.8877 111.017C40.5915 111.651 40.1471 112.21 39.5547 112.692C38.9622 113.166 38.2174 113.543 37.3203 113.822C36.4232 114.093 35.3779 114.229 34.1846 114.229C33.5244 114.229 32.932 114.207 32.4072 114.165C31.8825 114.123 31.3916 114.068 30.9346 114V112.02C31.4593 112.113 32.0137 112.185 32.5977 112.235C33.1816 112.286 33.7783 112.312 34.3877 112.312C35.2171 112.312 35.9238 112.24 36.5078 112.096C37.1003 111.943 37.5827 111.728 37.9551 111.448C38.3275 111.169 38.5983 110.83 38.7676 110.433C38.9368 110.035 39.0215 109.586 39.0215 109.087C39.0215 108.63 38.9199 108.232 38.7168 107.894C38.5137 107.555 38.2259 107.271 37.8535 107.043C37.4896 106.814 37.0495 106.645 36.5332 106.535C36.0254 106.417 35.4668 106.357 34.8574 106.357H32.9658V104.542H34.8828C35.3822 104.542 35.835 104.479 36.2412 104.352C36.6559 104.216 37.0072 104.026 37.2949 103.78C37.5911 103.535 37.8154 103.234 37.9678 102.879C38.1286 102.515 38.209 102.104 38.209 101.647C38.209 100.759 37.9382 100.111 37.3965 99.7051C36.8548 99.2988 36.0592 99.0957 35.0098 99.0957C34.4512 99.0957 33.8757 99.1507 33.2832 99.2607C32.6908 99.3708 32.056 99.5358 31.3789 99.7559V97.8262C31.6667 97.7246 31.9714 97.6357 32.293 97.5596C32.623 97.4749 32.9489 97.4072 33.2705 97.3564C33.6006 97.2972 33.9264 97.2549 34.248 97.2295C34.5697 97.1956 34.8786 97.1787 35.1748 97.1787C36.055 97.1787 36.8294 97.276 37.498 97.4707C38.1667 97.6569 38.7253 97.9277 39.1738 98.2832C39.6224 98.6387 39.9609 99.0703 40.1895 99.5781C40.418 100.086 40.5322 100.657 40.5322 101.292C40.5322 102.24 40.2868 103.035 39.7959 103.679C39.3135 104.322 38.6491 104.834 37.8027 105.215C38.2344 105.283 38.6576 105.418 39.0723 105.621C39.4954 105.824 39.8721 106.087 40.2021 106.408C40.5407 106.721 40.8115 107.094 41.0146 107.525C41.2262 107.957 41.332 108.435 41.332 108.96ZM51.7549 96.0615L51.3867 102.016H49.2031L48.8477 96.0615H51.7549Z" fill="black"/>
<path d="M101.844 96.0615L101.488 102.016H99.4062L99.0381 96.0615H101.844ZM106.782 96.0615L106.427 102.016H104.345L103.977 96.0615H106.782ZM111.441 107.894C111.441 106.81 111.59 105.85 111.886 105.012C112.182 104.165 112.601 103.454 113.143 102.879C113.693 102.295 114.349 101.855 115.11 101.559C115.881 101.254 116.735 101.102 117.675 101.102C118.081 101.102 118.479 101.127 118.868 101.178C119.266 101.229 119.655 101.309 120.036 101.419V96.0615H122.258V114H120.277L120.201 111.588C119.583 112.485 118.915 113.149 118.195 113.581C117.476 114.013 116.697 114.229 115.859 114.229C115.132 114.229 114.488 114.076 113.93 113.771C113.38 113.467 112.918 113.039 112.546 112.489C112.182 111.931 111.907 111.262 111.721 110.483C111.535 109.705 111.441 108.841 111.441 107.894ZM113.701 107.754C113.701 109.294 113.925 110.445 114.374 111.207C114.831 111.96 115.474 112.337 116.304 112.337C116.862 112.337 117.451 112.087 118.068 111.588C118.695 111.089 119.351 110.348 120.036 109.366V103.45C119.672 103.281 119.27 103.154 118.83 103.069C118.39 102.976 117.954 102.93 117.522 102.93C116.321 102.93 115.381 103.319 114.704 104.098C114.035 104.876 113.701 106.095 113.701 107.754ZM137.149 106.954C137.149 107.267 137.145 107.53 137.137 107.741C137.128 107.953 137.116 108.152 137.099 108.338H128.148C128.148 109.641 128.512 110.644 129.24 111.347C129.968 112.041 131.018 112.388 132.389 112.388C132.761 112.388 133.133 112.375 133.506 112.35C133.878 112.316 134.238 112.273 134.585 112.223C134.932 112.172 135.262 112.117 135.575 112.058C135.897 111.99 136.193 111.918 136.464 111.842V113.657C135.863 113.826 135.182 113.962 134.42 114.063C133.667 114.174 132.884 114.229 132.071 114.229C130.979 114.229 130.04 114.08 129.253 113.784C128.466 113.488 127.818 113.061 127.311 112.502C126.811 111.935 126.439 111.245 126.193 110.433C125.956 109.612 125.838 108.685 125.838 107.652C125.838 106.755 125.965 105.909 126.219 105.113C126.481 104.309 126.858 103.607 127.349 103.006C127.848 102.396 128.457 101.914 129.177 101.559C129.896 101.203 130.713 101.025 131.627 101.025C132.516 101.025 133.303 101.165 133.988 101.444C134.674 101.724 135.249 102.121 135.715 102.638C136.189 103.146 136.544 103.768 136.781 104.504C137.027 105.232 137.149 106.049 137.149 106.954ZM134.852 106.637C134.877 106.07 134.822 105.553 134.687 105.088C134.551 104.614 134.34 104.208 134.052 103.869C133.772 103.531 133.421 103.268 132.998 103.082C132.575 102.887 132.084 102.79 131.525 102.79C131.043 102.79 130.603 102.883 130.205 103.069C129.807 103.256 129.465 103.518 129.177 103.856C128.889 104.195 128.656 104.601 128.479 105.075C128.301 105.549 128.191 106.07 128.148 106.637H134.852ZM151.99 98.1182C150.831 97.8727 149.832 97.75 148.994 97.75C147.005 97.75 146.011 98.791 146.011 100.873V103.107H151.597V104.948H146.011V114H143.764V104.948H139.663V103.107H143.764V101C143.764 97.6061 145.533 95.9092 149.07 95.9092C149.951 95.9092 150.924 96.0107 151.99 96.2139V98.1182ZM159.023 96.0615L158.668 102.016H156.586L156.218 96.0615H159.023ZM163.962 96.0615L163.606 102.016H161.524L161.156 96.0615H163.962Z" fill="black"/>
<path d="M23.165 145.062L22.7969 151.016H20.6133L20.2578 145.062H23.165ZM42.4746 159.331H39.6436V163H37.3838V159.331H29.3984V157.389L36.4697 146.407H39.6436V157.389H42.4746V159.331ZM37.3838 148.54L31.6074 157.389H37.3838V148.54ZM51.7549 145.062L51.3867 151.016H49.2031L48.8477 145.062H51.7549Z" fill="black"/>
<path d="M101.844 145.062L101.488 151.016H99.4062L99.0381 145.062H101.844ZM106.782 145.062L106.427 151.016H104.345L103.977 145.062H106.782ZM121.268 152.057C121.505 152.353 121.687 152.7 121.813 153.098C121.949 153.487 122.017 153.91 122.017 154.367C122.017 155.027 121.894 155.632 121.648 156.183C121.411 156.724 121.073 157.19 120.633 157.579C120.193 157.968 119.664 158.273 119.046 158.493C118.437 158.705 117.764 158.811 117.027 158.811C116.494 158.811 115.995 158.756 115.529 158.646C115.064 158.527 114.696 158.383 114.425 158.214C114.264 158.451 114.129 158.675 114.019 158.887C113.909 159.098 113.854 159.335 113.854 159.598C113.854 159.919 114.006 160.186 114.311 160.397C114.624 160.609 115.034 160.723 115.542 160.74L118.894 160.867C119.528 160.884 120.112 160.965 120.646 161.108C121.187 161.252 121.648 161.46 122.029 161.73C122.419 162.001 122.719 162.336 122.931 162.733C123.151 163.131 123.261 163.592 123.261 164.117C123.261 164.684 123.138 165.222 122.893 165.729C122.647 166.237 122.266 166.682 121.75 167.062C121.242 167.452 120.595 167.761 119.808 167.989C119.021 168.218 118.085 168.332 117.002 168.332C115.969 168.332 115.089 168.247 114.361 168.078C113.642 167.917 113.049 167.689 112.584 167.393C112.118 167.105 111.78 166.758 111.568 166.352C111.357 165.954 111.251 165.514 111.251 165.031C111.251 164.413 111.395 163.872 111.683 163.406C111.97 162.941 112.415 162.492 113.016 162.061C112.796 161.959 112.605 161.832 112.444 161.68C112.284 161.527 112.152 161.362 112.051 161.185C111.949 160.998 111.873 160.804 111.822 160.601C111.771 160.397 111.746 160.199 111.746 160.004C111.746 159.454 111.873 158.95 112.127 158.493C112.389 158.036 112.698 157.604 113.054 157.198C112.893 157.004 112.749 156.813 112.622 156.627C112.504 156.441 112.398 156.242 112.305 156.03C112.22 155.81 112.152 155.577 112.102 155.332C112.059 155.078 112.038 154.79 112.038 154.469C112.038 153.809 112.157 153.208 112.394 152.666C112.639 152.116 112.978 151.646 113.409 151.257C113.849 150.868 114.374 150.567 114.983 150.355C115.601 150.135 116.283 150.025 117.027 150.025C117.34 150.025 117.641 150.047 117.929 150.089C118.216 150.131 118.47 150.186 118.69 150.254H123.312V152.057H121.268ZM113.6 164.841C113.6 165.442 113.913 165.878 114.539 166.148C115.165 166.428 116.037 166.567 117.154 166.567C117.857 166.567 118.445 166.504 118.919 166.377C119.401 166.25 119.786 166.081 120.074 165.869C120.37 165.666 120.582 165.429 120.709 165.158C120.836 164.896 120.899 164.625 120.899 164.346C120.899 163.829 120.688 163.449 120.265 163.203C119.841 162.958 119.194 162.814 118.322 162.771L114.996 162.657C114.717 162.843 114.484 163.025 114.298 163.203C114.12 163.381 113.98 163.559 113.879 163.736C113.777 163.923 113.705 164.104 113.663 164.282C113.621 164.468 113.6 164.655 113.6 164.841ZM114.272 154.418C114.272 154.824 114.34 155.197 114.476 155.535C114.611 155.874 114.801 156.161 115.047 156.398C115.292 156.635 115.58 156.822 115.91 156.957C116.249 157.084 116.621 157.147 117.027 157.147C117.467 157.147 117.857 157.076 118.195 156.932C118.542 156.779 118.83 156.576 119.059 156.322C119.296 156.068 119.473 155.776 119.592 155.446C119.719 155.116 119.782 154.773 119.782 154.418C119.782 154.012 119.715 153.639 119.579 153.301C119.444 152.962 119.253 152.674 119.008 152.438C118.762 152.201 118.47 152.019 118.132 151.892C117.802 151.756 117.434 151.688 117.027 151.688C116.587 151.688 116.194 151.765 115.847 151.917C115.508 152.069 115.22 152.272 114.983 152.526C114.755 152.772 114.577 153.06 114.45 153.39C114.332 153.72 114.272 154.062 114.272 154.418ZM136.629 163H134.42V154.862C134.42 153.881 134.234 153.148 133.861 152.666C133.497 152.175 132.973 151.93 132.287 151.93C131.991 151.93 131.712 151.972 131.449 152.057C131.195 152.133 130.929 152.272 130.649 152.476C130.37 152.67 130.065 152.937 129.735 153.275C129.405 153.614 129.024 154.037 128.593 154.545V163H126.384V145.062H128.593V150.254L128.517 152.26C128.864 151.845 129.202 151.498 129.532 151.219C129.871 150.931 130.205 150.698 130.535 150.521C130.874 150.343 131.216 150.216 131.563 150.14C131.91 150.063 132.27 150.025 132.643 150.025C133.912 150.025 134.894 150.415 135.588 151.193C136.282 151.964 136.629 153.127 136.629 154.685V163ZM145.021 152.082H141.25V150.254H147.255V161.159H151.051V163H140.831V161.159H145.021V152.082ZM145.795 144.909C146.04 144.909 146.269 144.956 146.48 145.049C146.692 145.133 146.874 145.256 147.026 145.417C147.187 145.578 147.31 145.764 147.395 145.976C147.488 146.179 147.534 146.403 147.534 146.648C147.534 146.885 147.488 147.11 147.395 147.321C147.31 147.533 147.187 147.719 147.026 147.88C146.874 148.041 146.692 148.168 146.48 148.261C146.269 148.345 146.04 148.388 145.795 148.388C145.549 148.388 145.321 148.345 145.109 148.261C144.898 148.168 144.712 148.041 144.551 147.88C144.398 147.719 144.276 147.533 144.183 147.321C144.098 147.11 144.056 146.885 144.056 146.648C144.056 146.403 144.098 146.179 144.183 145.976C144.276 145.764 144.398 145.578 144.551 145.417C144.712 145.256 144.898 145.133 145.109 145.049C145.321 144.956 145.549 144.909 145.795 144.909ZM159.023 145.062L158.668 151.016H156.586L156.218 145.062H159.023ZM163.962 145.062L163.606 151.016H161.524L161.156 145.062H163.962Z" fill="black"/>
<path d="M23.165 194.062L22.7969 200.016H20.6133L20.2578 194.062H23.165ZM41.2305 206.693C41.2305 207.514 41.0527 208.263 40.6973 208.94C40.3418 209.618 39.8509 210.201 39.2246 210.692C38.6068 211.175 37.8747 211.551 37.0283 211.822C36.182 212.093 35.2679 212.229 34.2861 212.229C34.0407 212.229 33.7741 212.22 33.4863 212.203C33.207 212.195 32.9277 212.178 32.6484 212.152C32.3691 212.135 32.0941 212.114 31.8232 212.089C31.5609 212.063 31.3239 212.034 31.1123 212V209.994C31.5693 210.104 32.0898 210.185 32.6738 210.235C33.2663 210.286 33.863 210.312 34.4639 210.312C35.141 210.312 35.7503 210.231 36.292 210.07C36.8337 209.91 37.2949 209.681 37.6758 209.385C38.0566 209.08 38.3486 208.716 38.5518 208.293C38.7549 207.861 38.8564 207.379 38.8564 206.846C38.8564 205.813 38.484 205.064 37.7393 204.599C37.0029 204.125 35.9408 203.888 34.5527 203.888H31.4043V195.407H40.3418V197.337H33.4863V201.996H34.9336C35.7292 201.996 36.5036 202.068 37.2568 202.212C38.0101 202.356 38.6787 202.61 39.2627 202.974C39.8551 203.329 40.3291 203.812 40.6846 204.421C41.0485 205.022 41.2305 205.779 41.2305 206.693ZM51.7549 194.062L51.3867 200.016H49.2031L48.8477 194.062H51.7549Z" fill="black"/>
<path d="M101.844 194.062L101.488 200.016H99.4062L99.0381 194.062H101.844ZM106.782 194.062L106.427 200.016H104.345L103.977 194.062H106.782ZM120.722 199.254V211.771C120.722 212.66 120.595 213.447 120.341 214.133C120.087 214.827 119.723 215.411 119.249 215.885C118.775 216.359 118.191 216.718 117.497 216.964C116.812 217.209 116.037 217.332 115.174 217.332C114.548 217.332 113.934 217.273 113.333 217.154C112.741 217.044 112.203 216.888 111.721 216.685V214.577C111.983 214.713 112.262 214.835 112.559 214.945C112.863 215.055 113.172 215.148 113.485 215.225C113.807 215.301 114.129 215.356 114.45 215.39C114.772 215.432 115.085 215.453 115.39 215.453C116.354 215.453 117.112 215.148 117.662 214.539C118.212 213.93 118.487 213.033 118.487 211.848V201.082H112.241V199.254H120.722ZM119.389 193.909C119.634 193.909 119.863 193.956 120.074 194.049C120.286 194.133 120.468 194.256 120.62 194.417C120.781 194.578 120.904 194.764 120.988 194.976C121.081 195.187 121.128 195.411 121.128 195.648C121.128 195.894 121.081 196.122 120.988 196.334C120.904 196.537 120.781 196.719 120.62 196.88C120.468 197.041 120.286 197.168 120.074 197.261C119.863 197.345 119.634 197.388 119.389 197.388C119.143 197.388 118.915 197.345 118.703 197.261C118.492 197.168 118.305 197.041 118.145 196.88C117.992 196.719 117.869 196.537 117.776 196.334C117.692 196.122 117.649 195.894 117.649 195.648C117.649 195.411 117.692 195.187 117.776 194.976C117.869 194.764 117.992 194.578 118.145 194.417C118.305 194.256 118.492 194.133 118.703 194.049C118.915 193.956 119.143 193.909 119.389 193.909ZM137.848 212H134.813L128.872 205.17V212H126.663V194.062H128.872V205.081L134.598 199.254H137.518L131.538 205.132L137.848 212ZM145.021 195.877H141.25V194.062H147.255V210.159H151.051V212H140.831V210.159H145.021V195.877ZM159.023 194.062L158.668 200.016H156.586L156.218 194.062H159.023ZM163.962 194.062L163.606 200.016H161.524L161.156 194.062H163.962Z" fill="black"/>
<path d="M23.165 243.062L22.7969 249.016H20.6133L20.2578 243.062H23.165ZM41.8525 255.744C41.8525 256.506 41.7129 257.221 41.4336 257.89C41.1628 258.558 40.7734 259.142 40.2656 259.642C39.7578 260.132 39.1442 260.522 38.4248 260.81C37.7139 261.089 36.9225 261.229 36.0508 261.229C35.1367 261.229 34.3285 261.085 33.626 260.797C32.9235 260.501 32.3353 260.052 31.8613 259.451C31.3874 258.842 31.0277 258.076 30.7822 257.153C30.5368 256.231 30.4141 255.139 30.4141 253.878C30.4141 253.032 30.4691 252.211 30.5791 251.415C30.6891 250.619 30.8711 249.87 31.125 249.168C31.3789 248.465 31.7174 247.822 32.1406 247.238C32.5638 246.654 33.0885 246.155 33.7148 245.74C34.3496 245.317 35.0944 244.991 35.9492 244.763C36.804 244.526 37.7943 244.407 38.9199 244.407H40.5576V246.337H38.7803C37.79 246.337 36.931 246.455 36.2031 246.692C35.4753 246.929 34.8659 247.264 34.375 247.695C33.8841 248.127 33.5075 248.647 33.2451 249.257C32.9827 249.866 32.8177 250.548 32.75 251.301L32.6992 251.821C33.2324 251.508 33.846 251.258 34.54 251.072C35.2425 250.878 36 250.78 36.8125 250.78C37.6504 250.78 38.3825 250.903 39.0088 251.148C39.6436 251.394 40.1683 251.737 40.583 252.177C41.0062 252.608 41.3236 253.129 41.5352 253.738C41.7467 254.348 41.8525 255.016 41.8525 255.744ZM39.542 255.884C39.542 255.376 39.4785 254.919 39.3516 254.513C39.2331 254.098 39.0426 253.751 38.7803 253.472C38.5179 253.184 38.1836 252.964 37.7773 252.812C37.3796 252.651 36.9014 252.57 36.3428 252.57C36.0212 252.57 35.6953 252.6 35.3652 252.659C35.0352 252.718 34.7093 252.803 34.3877 252.913C34.0745 253.015 33.7741 253.133 33.4863 253.269C33.1986 253.404 32.9362 253.548 32.6992 253.7C32.6992 254.792 32.7754 255.706 32.9277 256.442C33.0801 257.17 33.3044 257.754 33.6006 258.194C33.9053 258.634 34.2777 258.948 34.7178 259.134C35.1579 259.32 35.6657 259.413 36.2412 259.413C36.7236 259.413 37.1637 259.337 37.5615 259.185C37.9678 259.024 38.3148 258.791 38.6025 258.486C38.8988 258.182 39.1273 257.813 39.2881 257.382C39.4574 256.942 39.542 256.442 39.542 255.884ZM51.7549 243.062L51.3867 249.016H49.2031L48.8477 243.062H51.7549Z" fill="black"/>
<path d="M101.844 243.062L101.488 249.016H99.4062L99.0381 243.062H101.844ZM106.782 243.062L106.427 249.016H104.345L103.977 243.062H106.782ZM121.179 261V251.847C121.179 251.449 121.162 251.123 121.128 250.869C121.103 250.615 121.056 250.416 120.988 250.272C120.929 250.12 120.849 250.014 120.747 249.955C120.654 249.896 120.535 249.866 120.392 249.866C120.222 249.866 120.066 249.917 119.922 250.019C119.778 250.12 119.621 250.285 119.452 250.514C119.291 250.742 119.109 251.047 118.906 251.428C118.712 251.8 118.479 252.261 118.208 252.812V261H116.189V252.088C116.189 251.622 116.173 251.246 116.139 250.958C116.113 250.67 116.067 250.446 115.999 250.285C115.94 250.124 115.859 250.014 115.758 249.955C115.656 249.896 115.534 249.866 115.39 249.866C115.237 249.866 115.093 249.909 114.958 249.993C114.823 250.078 114.67 250.23 114.501 250.45C114.34 250.67 114.158 250.971 113.955 251.352C113.752 251.732 113.511 252.219 113.231 252.812V261H111.2V248.254H112.889L112.99 250.679C113.21 250.196 113.422 249.786 113.625 249.447C113.837 249.109 114.052 248.838 114.272 248.635C114.493 248.423 114.725 248.271 114.971 248.178C115.225 248.076 115.504 248.025 115.809 248.025C116.494 248.025 117.015 248.25 117.37 248.698C117.726 249.147 117.903 249.841 117.903 250.78C118.106 250.34 118.305 249.951 118.5 249.612C118.695 249.265 118.902 248.978 119.122 248.749C119.351 248.512 119.6 248.334 119.871 248.216C120.142 248.089 120.455 248.025 120.811 248.025C122.41 248.025 123.21 249.257 123.21 251.72V261H121.179ZM126.384 248.254H128.352L128.44 250.311C128.813 249.87 129.173 249.507 129.52 249.219C129.867 248.923 130.205 248.686 130.535 248.508C130.874 248.33 131.216 248.207 131.563 248.14C131.91 248.063 132.27 248.025 132.643 248.025C133.954 248.025 134.945 248.415 135.613 249.193C136.29 249.964 136.629 251.127 136.629 252.685V261H134.42V252.862C134.42 251.864 134.234 251.127 133.861 250.653C133.489 250.171 132.935 249.93 132.198 249.93C131.927 249.93 131.661 249.972 131.398 250.057C131.145 250.133 130.878 250.272 130.599 250.476C130.319 250.67 130.015 250.937 129.685 251.275C129.363 251.614 128.999 252.037 128.593 252.545V261H126.384V248.254ZM151.774 254.525C151.774 255.516 151.635 256.425 151.355 257.255C151.076 258.076 150.674 258.783 150.149 259.375C149.625 259.959 148.986 260.416 148.232 260.746C147.479 261.068 146.624 261.229 145.668 261.229C144.754 261.229 143.933 261.089 143.205 260.81C142.486 260.522 141.872 260.103 141.364 259.553C140.865 259.003 140.48 258.321 140.209 257.509C139.947 256.696 139.815 255.761 139.815 254.703C139.815 253.713 139.955 252.812 140.234 251.999C140.514 251.178 140.916 250.476 141.44 249.892C141.965 249.299 142.604 248.842 143.357 248.521C144.111 248.19 144.965 248.025 145.922 248.025C146.836 248.025 147.653 248.169 148.372 248.457C149.1 248.736 149.714 249.151 150.213 249.701C150.721 250.243 151.106 250.92 151.368 251.732C151.639 252.545 151.774 253.476 151.774 254.525ZM149.515 254.627C149.515 253.84 149.426 253.154 149.248 252.57C149.079 251.978 148.833 251.487 148.512 251.098C148.19 250.7 147.797 250.404 147.331 250.209C146.874 250.006 146.362 249.904 145.795 249.904C145.135 249.904 144.568 250.035 144.094 250.298C143.628 250.552 143.243 250.895 142.938 251.326C142.642 251.758 142.422 252.261 142.278 252.837C142.143 253.404 142.075 254.001 142.075 254.627C142.075 255.414 142.16 256.104 142.329 256.696C142.507 257.289 142.757 257.784 143.078 258.182C143.4 258.571 143.789 258.867 144.246 259.07C144.703 259.265 145.219 259.362 145.795 259.362C146.455 259.362 147.018 259.235 147.483 258.981C147.957 258.719 148.342 258.372 148.639 257.94C148.943 257.509 149.163 257.009 149.299 256.442C149.443 255.867 149.515 255.262 149.515 254.627ZM159.023 243.062L158.668 249.016H156.586L156.218 243.062H159.023ZM163.962 243.062L163.606 249.016H161.524L161.156 243.062H163.962Z" fill="black"/>
<path d="M23.165 292.062L22.7969 298.016H20.6133L20.2578 292.062H23.165ZM41.5605 295.464L34.6035 310H32.0771L39.3008 295.464H30.3379V293.407H41.5605V295.464ZM51.7549 292.062L51.3867 298.016H49.2031L48.8477 292.062H51.7549Z" fill="black"/>
<path d="M94.6963 292.062L94.3408 298.016H92.2588L91.8906 292.062H94.6963ZM99.6348 292.062L99.2793 298.016H97.1973L96.8291 292.062H99.6348ZM115.834 303.398C115.834 304.533 115.673 305.523 115.352 306.369C115.038 307.215 114.603 307.918 114.044 308.477C113.485 309.035 112.825 309.454 112.063 309.733C111.302 310.013 110.477 310.152 109.588 310.152C109.182 310.152 108.775 310.131 108.369 310.089C107.971 310.047 107.565 309.975 107.15 309.873V315.205H104.941V297.254H106.909L107.049 299.387C107.684 298.515 108.361 297.906 109.08 297.559C109.799 297.203 110.578 297.025 111.416 297.025C112.144 297.025 112.783 297.178 113.333 297.482C113.883 297.787 114.344 298.219 114.717 298.777C115.089 299.327 115.368 299.996 115.555 300.783C115.741 301.562 115.834 302.434 115.834 303.398ZM113.574 303.5C113.574 302.831 113.523 302.218 113.422 301.659C113.329 301.101 113.176 300.622 112.965 300.225C112.753 299.827 112.482 299.518 112.152 299.298C111.822 299.069 111.429 298.955 110.972 298.955C110.692 298.955 110.409 299.002 110.121 299.095C109.833 299.179 109.533 299.327 109.22 299.539C108.915 299.742 108.589 300.017 108.242 300.364C107.904 300.703 107.54 301.126 107.15 301.634V307.816C107.557 307.986 107.984 308.121 108.433 308.223C108.881 308.316 109.321 308.362 109.753 308.362C110.946 308.362 111.882 307.96 112.559 307.156C113.236 306.344 113.574 305.125 113.574 303.5ZM118.589 303.894C118.589 302.979 118.707 302.112 118.944 301.291C119.19 300.47 119.562 299.751 120.062 299.133C120.569 298.507 121.217 298.011 122.004 297.647C122.791 297.284 123.73 297.102 124.822 297.102C125.254 297.102 125.681 297.135 126.104 297.203C126.528 297.271 126.976 297.377 127.45 297.521L129.405 297.025V315.205H127.184V310.394L127.298 307.664C126.096 309.374 124.666 310.229 123.007 310.229C122.262 310.229 121.615 310.076 121.064 309.771C120.514 309.467 120.053 309.035 119.681 308.477C119.317 307.918 119.042 307.249 118.855 306.471C118.678 305.692 118.589 304.833 118.589 303.894ZM120.849 303.754C120.849 304.465 120.899 305.104 121.001 305.671C121.111 306.238 121.272 306.72 121.483 307.118C121.703 307.507 121.974 307.808 122.296 308.02C122.626 308.231 123.011 308.337 123.451 308.337C124.01 308.337 124.598 308.087 125.216 307.588C125.842 307.089 126.498 306.348 127.184 305.366V299.45C126.845 299.289 126.46 299.158 126.028 299.057C125.605 298.955 125.152 298.904 124.67 298.904C123.426 298.904 122.478 299.315 121.826 300.136C121.174 300.957 120.849 302.163 120.849 303.754ZM134.052 297.254H136.07L136.134 299.603C136.887 298.697 137.628 298.041 138.355 297.635C139.092 297.229 139.832 297.025 140.577 297.025C141.897 297.025 142.896 297.453 143.573 298.308C144.259 299.162 144.576 300.432 144.525 302.116H142.291C142.316 300.999 142.151 300.191 141.796 299.691C141.449 299.184 140.937 298.93 140.26 298.93C139.964 298.93 139.663 298.985 139.358 299.095C139.062 299.196 138.753 299.366 138.432 299.603C138.118 299.831 137.784 300.127 137.429 300.491C137.073 300.855 136.692 301.295 136.286 301.812V310H134.052V297.254ZM157.919 306.521C157.919 306.97 157.843 307.372 157.69 307.728C157.538 308.083 157.331 308.4 157.068 308.68C156.806 308.951 156.501 309.183 156.154 309.378C155.807 309.573 155.435 309.733 155.037 309.86C154.648 309.987 154.246 310.08 153.831 310.14C153.416 310.199 153.01 310.229 152.612 310.229C151.749 310.229 150.953 310.19 150.226 310.114C149.506 310.038 148.799 309.915 148.105 309.746V307.715C148.85 307.926 149.591 308.087 150.327 308.197C151.063 308.307 151.796 308.362 152.523 308.362C153.581 308.362 154.364 308.218 154.872 307.931C155.38 307.643 155.634 307.232 155.634 306.699C155.634 306.471 155.591 306.268 155.507 306.09C155.431 305.904 155.287 305.73 155.075 305.569C154.864 305.4 154.534 305.227 154.085 305.049C153.645 304.871 153.04 304.668 152.27 304.439C151.694 304.27 151.161 304.08 150.67 303.868C150.188 303.648 149.769 303.39 149.413 303.094C149.058 302.798 148.778 302.451 148.575 302.053C148.372 301.655 148.271 301.185 148.271 300.644C148.271 300.288 148.351 299.899 148.512 299.476C148.681 299.052 148.965 298.659 149.362 298.295C149.76 297.931 150.298 297.631 150.975 297.394C151.652 297.148 152.498 297.025 153.514 297.025C154.013 297.025 154.567 297.055 155.177 297.114C155.786 297.165 156.421 297.258 157.081 297.394V299.361C156.387 299.192 155.727 299.069 155.101 298.993C154.483 298.909 153.945 298.866 153.488 298.866C152.938 298.866 152.473 298.909 152.092 298.993C151.719 299.078 151.415 299.196 151.178 299.349C150.949 299.493 150.784 299.666 150.683 299.869C150.581 300.064 150.53 300.275 150.53 300.504C150.53 300.732 150.573 300.94 150.657 301.126C150.75 301.312 150.915 301.494 151.152 301.672C151.398 301.841 151.736 302.015 152.168 302.192C152.6 302.362 153.162 302.548 153.856 302.751C154.61 302.971 155.244 303.204 155.761 303.449C156.277 303.686 156.696 303.953 157.018 304.249C157.339 304.545 157.568 304.88 157.703 305.252C157.847 305.624 157.919 306.048 157.919 306.521ZM166.171 292.062L165.815 298.016H163.733L163.365 292.062H166.171ZM171.109 292.062L170.754 298.016H168.672L168.304 292.062H171.109Z" fill="black"/>
<path d="M23.165 341.062L22.7969 347.016H20.6133L20.2578 341.062H23.165ZM41.6494 354.836C41.6494 355.538 41.5055 356.165 41.2178 356.715C40.93 357.257 40.528 357.714 40.0117 358.086C39.4954 358.458 38.8861 358.742 38.1836 358.937C37.4811 359.131 36.7194 359.229 35.8984 359.229C34.9928 359.229 34.193 359.127 33.499 358.924C32.8135 358.721 32.238 358.437 31.7725 358.073C31.307 357.709 30.9557 357.278 30.7188 356.778C30.4818 356.279 30.3633 355.729 30.3633 355.128C30.3633 354.112 30.6468 353.236 31.2139 352.5C31.7809 351.764 32.6569 351.095 33.8418 350.494C32.7585 349.944 31.9671 349.335 31.4678 348.666C30.9684 347.989 30.7188 347.215 30.7188 346.343C30.7188 345.81 30.8288 345.293 31.0488 344.794C31.2689 344.295 31.599 343.85 32.0391 343.461C32.4876 343.072 33.0462 342.763 33.7148 342.534C34.3835 342.297 35.1706 342.179 36.0762 342.179C36.931 342.179 37.68 342.272 38.3232 342.458C38.9749 342.636 39.5208 342.894 39.9609 343.232C40.401 343.571 40.7311 343.981 40.9512 344.464C41.1712 344.946 41.2812 345.484 41.2812 346.076C41.2812 347.041 41.0104 347.862 40.4688 348.539C39.9355 349.216 39.1738 349.809 38.1836 350.316C38.6745 350.562 39.1315 350.833 39.5547 351.129C39.9779 351.425 40.346 351.755 40.6592 352.119C40.9723 352.483 41.2135 352.889 41.3828 353.338C41.5605 353.786 41.6494 354.286 41.6494 354.836ZM39.0215 346.254C39.0215 345.501 38.7549 344.942 38.2217 344.578C37.6969 344.206 36.9564 344.02 36 344.02C35.0521 344.02 34.3115 344.201 33.7783 344.565C33.2536 344.929 32.9912 345.475 32.9912 346.203C32.9912 346.533 33.0547 346.838 33.1816 347.117C33.3086 347.396 33.5033 347.659 33.7656 347.904C34.0365 348.15 34.3708 348.391 34.7686 348.628C35.1663 348.865 35.6403 349.106 36.1904 349.352C37.1468 348.903 37.8577 348.438 38.3232 347.955C38.7887 347.464 39.0215 346.897 39.0215 346.254ZM39.25 355.001C39.25 354.688 39.1992 354.383 39.0977 354.087C38.9961 353.791 38.8141 353.499 38.5518 353.211C38.2894 352.923 37.9382 352.635 37.498 352.348C37.0579 352.06 36.4993 351.764 35.8223 351.459C35.2467 351.738 34.7601 352.018 34.3623 352.297C33.973 352.568 33.6556 352.847 33.4102 353.135C33.1732 353.414 33.0039 353.706 32.9023 354.011C32.8008 354.315 32.75 354.637 32.75 354.976C32.75 355.356 32.8304 355.695 32.9912 355.991C33.1605 356.279 33.389 356.524 33.6768 356.728C33.9645 356.931 34.3073 357.083 34.7051 357.185C35.1029 357.286 35.5345 357.337 36 357.337C36.4486 357.337 36.8717 357.29 37.2695 357.197C37.6673 357.104 38.0101 356.965 38.2979 356.778C38.5941 356.584 38.8268 356.342 38.9961 356.055C39.1654 355.758 39.25 355.407 39.25 355.001ZM51.7549 341.062L51.3867 347.016H49.2031L48.8477 341.062H51.7549Z" fill="black"/>
<path d="M101.844 341.062L101.488 347.016H99.4062L99.0381 341.062H101.844ZM106.782 341.062L106.427 347.016H104.345L103.977 341.062H106.782ZM122.359 358.822C121.86 358.949 121.344 359.038 120.811 359.089C120.277 359.148 119.736 359.178 119.186 359.178C117.586 359.178 116.393 358.818 115.605 358.099C114.818 357.371 114.425 356.258 114.425 354.76V348.107H110.857V346.254H114.425V342.75L116.634 342.179V346.254H122.359V348.107H116.634V354.582C116.634 355.496 116.875 356.182 117.357 356.639C117.848 357.087 118.568 357.312 119.516 357.312C119.922 357.312 120.366 357.282 120.849 357.223C121.331 357.155 121.835 357.053 122.359 356.918V358.822ZM136.629 359H134.648L134.572 356.943C134.191 357.383 133.827 357.752 133.48 358.048C133.142 358.336 132.803 358.568 132.465 358.746C132.126 358.924 131.784 359.047 131.437 359.114C131.098 359.19 130.738 359.229 130.357 359.229C129.046 359.229 128.055 358.843 127.387 358.073C126.718 357.303 126.384 356.139 126.384 354.582V346.254H128.593V354.404C128.593 356.359 129.329 357.337 130.802 357.337C131.073 357.337 131.335 357.299 131.589 357.223C131.851 357.138 132.122 356.998 132.401 356.804C132.689 356.601 132.994 356.33 133.315 355.991C133.646 355.653 134.014 355.225 134.42 354.709V346.254H136.629V359ZM139.485 346.254H141.999L145.122 354.684L145.795 356.74L146.493 354.633L149.591 346.254H152.016L147.014 359H144.475L139.485 346.254ZM159.023 341.062L158.668 347.016H156.586L156.218 341.062H159.023ZM163.962 341.062L163.606 347.016H161.524L161.156 341.062H163.962Z" fill="black"/>
<path d="M23.165 389.062L22.7969 395.016H20.6133L20.2578 389.062H23.165ZM41.5605 397.771C41.5605 399.387 41.3659 400.779 40.9766 401.947C40.5872 403.107 40.0117 404.063 39.25 404.816C38.4883 405.561 37.5446 406.111 36.4189 406.467C35.2933 406.822 33.9941 407 32.5215 407H31.1377V405.07H32.6738C33.7656 405.07 34.7093 404.96 35.5049 404.74C36.3005 404.52 36.9606 404.199 37.4854 403.775C38.0186 403.344 38.4248 402.823 38.7041 402.214C38.9834 401.596 39.1569 400.894 39.2246 400.106L39.2754 399.586C38.7422 399.899 38.1286 400.153 37.4346 400.348C36.7406 400.534 35.9873 400.627 35.1748 400.627C34.3369 400.627 33.6006 400.504 32.9658 400.259C32.3311 400.013 31.8021 399.671 31.3789 399.23C30.9642 398.79 30.651 398.27 30.4395 397.669C30.2279 397.06 30.1221 396.399 30.1221 395.688C30.1221 394.918 30.2617 394.199 30.541 393.53C30.8203 392.862 31.2096 392.282 31.709 391.791C32.2168 391.292 32.8219 390.898 33.5244 390.61C34.2269 390.323 35.0013 390.179 35.8477 390.179C36.6686 390.179 37.4261 390.314 38.1201 390.585C38.8226 390.856 39.4277 391.296 39.9355 391.905C40.4434 392.506 40.8411 393.289 41.1289 394.254C41.4167 395.219 41.5605 396.391 41.5605 397.771ZM35.7461 391.994C35.2721 391.994 34.832 392.075 34.4258 392.235C34.028 392.388 33.681 392.616 33.3848 392.921C33.097 393.217 32.8685 393.585 32.6992 394.025C32.5299 394.465 32.4453 394.969 32.4453 395.536C32.4453 396.052 32.5046 396.514 32.623 396.92C32.75 397.326 32.9404 397.673 33.1943 397.961C33.4567 398.24 33.791 398.456 34.1973 398.608C34.6035 398.761 35.0859 398.837 35.6445 398.837C35.9577 398.837 36.2793 398.807 36.6094 398.748C36.9479 398.689 37.2738 398.608 37.5869 398.507C37.9085 398.405 38.2132 398.287 38.501 398.151C38.7887 398.016 39.0469 397.872 39.2754 397.72C39.2754 396.628 39.195 395.718 39.0342 394.99C38.8734 394.254 38.6406 393.666 38.3359 393.226C38.0312 392.777 37.6589 392.46 37.2188 392.273C36.7871 392.087 36.2962 391.994 35.7461 391.994ZM51.7549 389.062L51.3867 395.016H49.2031L48.8477 389.062H51.7549Z" fill="black"/>
<path d="M94.6963 390.062L94.3408 396.016H92.2588L91.8906 390.062H94.6963ZM99.6348 390.062L99.2793 396.016H97.1973L96.8291 390.062H99.6348ZM116.748 395.254L114.895 408H112.216L110.375 402.668L110.007 401.373L109.588 402.744L107.823 408H105.221L103.38 395.254H105.538L106.604 403.912L106.833 405.842L107.379 404.153L109.232 398.428H110.819L112.812 404.077L113.384 405.766L113.574 403.976L114.564 395.254H116.748ZM130.726 408H127.793L124.353 403.138L120.95 408H118.094L123.032 401.602L118.322 395.254H121.153L124.505 400.154L127.793 395.254H130.522L125.736 401.652L130.726 408ZM144.868 395.254L140.526 406.654C140.078 407.814 139.612 408.812 139.13 409.65C138.656 410.488 138.135 411.174 137.568 411.707C137.001 412.249 136.379 412.646 135.702 412.9C135.025 413.154 134.268 413.281 133.43 413.281C133.21 413.281 133.011 413.277 132.833 413.269C132.655 413.26 132.461 413.247 132.249 413.23V411.225C132.435 411.25 132.638 411.271 132.858 411.288C133.078 411.313 133.311 411.326 133.557 411.326C133.963 411.326 134.34 411.267 134.687 411.148C135.042 411.03 135.376 410.835 135.689 410.564C136.003 410.302 136.303 409.959 136.591 409.536C136.879 409.113 137.158 408.601 137.429 408L132.338 395.254H134.852L138.076 403.684L138.724 405.664L139.46 403.633L142.443 395.254H144.868ZM158.147 408H147.877V406.413L155.075 397.107H148.055V395.254H157.729V396.98L150.657 406.134H158.147V408ZM166.171 390.062L165.815 396.016H163.733L163.365 390.062H166.171ZM171.109 390.062L170.754 396.016H168.672L168.304 390.062H171.109Z" fill="black"/>
<path d="M97.416 430.598H94.5156V429.201H99.1348V441.584H102.055V443H94.1934V441.584H97.416V430.598ZM113.354 437.58C113.354 437.821 113.35 438.023 113.344 438.186C113.337 438.348 113.327 438.501 113.314 438.645H106.43C106.43 439.647 106.71 440.419 107.27 440.959C107.829 441.493 108.637 441.76 109.691 441.76C109.978 441.76 110.264 441.75 110.551 441.73C110.837 441.704 111.114 441.672 111.381 441.633C111.648 441.594 111.902 441.551 112.143 441.506C112.39 441.454 112.618 441.398 112.826 441.34V442.736C112.364 442.867 111.84 442.971 111.254 443.049C110.674 443.133 110.072 443.176 109.447 443.176C108.607 443.176 107.885 443.062 107.279 442.834C106.674 442.606 106.176 442.277 105.785 441.848C105.401 441.411 105.115 440.881 104.926 440.256C104.743 439.624 104.652 438.911 104.652 438.117C104.652 437.427 104.75 436.776 104.945 436.164C105.147 435.546 105.437 435.005 105.814 434.543C106.199 434.074 106.667 433.703 107.221 433.43C107.774 433.156 108.402 433.02 109.105 433.02C109.789 433.02 110.395 433.127 110.922 433.342C111.449 433.557 111.892 433.863 112.25 434.26C112.615 434.65 112.888 435.129 113.07 435.695C113.259 436.255 113.354 436.883 113.354 437.58ZM111.586 437.336C111.605 436.9 111.563 436.503 111.459 436.145C111.355 435.78 111.192 435.467 110.971 435.207C110.756 434.947 110.486 434.745 110.16 434.602C109.835 434.452 109.457 434.377 109.027 434.377C108.656 434.377 108.318 434.449 108.012 434.592C107.706 434.735 107.442 434.937 107.221 435.197C106.999 435.458 106.82 435.77 106.684 436.135C106.547 436.499 106.462 436.9 106.43 437.336H111.586ZM123.969 442.863C123.585 442.961 123.188 443.029 122.777 443.068C122.367 443.114 121.951 443.137 121.527 443.137C120.297 443.137 119.379 442.86 118.773 442.307C118.168 441.747 117.865 440.891 117.865 439.738V434.621H115.121V433.195H117.865V430.5L119.564 430.061V433.195H123.969V434.621H119.564V439.602C119.564 440.305 119.75 440.832 120.121 441.184C120.499 441.529 121.052 441.701 121.781 441.701C122.094 441.701 122.436 441.678 122.807 441.633C123.178 441.581 123.565 441.503 123.969 441.398V442.863ZM134.965 442.863C134.581 442.961 134.184 443.029 133.773 443.068C133.363 443.114 132.947 443.137 132.523 443.137C131.293 443.137 130.375 442.86 129.77 442.307C129.164 441.747 128.861 440.891 128.861 439.738V434.621H126.117V433.195H128.861V430.5L130.561 430.061V433.195H134.965V434.621H130.561V439.602C130.561 440.305 130.746 440.832 131.117 441.184C131.495 441.529 132.048 441.701 132.777 441.701C133.09 441.701 133.432 441.678 133.803 441.633C134.174 441.581 134.561 441.503 134.965 441.398V442.863ZM146.342 437.58C146.342 437.821 146.339 438.023 146.332 438.186C146.326 438.348 146.316 438.501 146.303 438.645H139.418C139.418 439.647 139.698 440.419 140.258 440.959C140.818 441.493 141.625 441.76 142.68 441.76C142.966 441.76 143.253 441.75 143.539 441.73C143.826 441.704 144.102 441.672 144.369 441.633C144.636 441.594 144.89 441.551 145.131 441.506C145.378 441.454 145.606 441.398 145.814 441.34V442.736C145.352 442.867 144.828 442.971 144.242 443.049C143.663 443.133 143.061 443.176 142.436 443.176C141.596 443.176 140.873 443.062 140.268 442.834C139.662 442.606 139.164 442.277 138.773 441.848C138.389 441.411 138.103 440.881 137.914 440.256C137.732 439.624 137.641 438.911 137.641 438.117C137.641 437.427 137.738 436.776 137.934 436.164C138.135 435.546 138.425 435.005 138.803 434.543C139.187 434.074 139.656 433.703 140.209 433.43C140.762 433.156 141.391 433.02 142.094 433.02C142.777 433.02 143.383 433.127 143.91 433.342C144.438 433.557 144.88 433.863 145.238 434.26C145.603 434.65 145.876 435.129 146.059 435.695C146.247 436.255 146.342 436.883 146.342 437.58ZM144.574 437.336C144.594 436.9 144.551 436.503 144.447 436.145C144.343 435.78 144.18 435.467 143.959 435.207C143.744 434.947 143.474 434.745 143.148 434.602C142.823 434.452 142.445 434.377 142.016 434.377C141.645 434.377 141.306 434.449 141 434.592C140.694 434.735 140.43 434.937 140.209 435.197C139.988 435.458 139.809 435.77 139.672 436.135C139.535 436.499 139.451 436.9 139.418 437.336H144.574ZM149.457 433.195H151.01L151.059 435.002C151.638 434.305 152.208 433.801 152.768 433.488C153.334 433.176 153.904 433.02 154.477 433.02C155.492 433.02 156.26 433.348 156.781 434.006C157.309 434.663 157.553 435.64 157.514 436.936H155.795C155.814 436.076 155.688 435.454 155.414 435.07C155.147 434.68 154.753 434.484 154.232 434.484C154.005 434.484 153.773 434.527 153.539 434.611C153.311 434.689 153.074 434.82 152.826 435.002C152.585 435.178 152.328 435.406 152.055 435.686C151.781 435.965 151.488 436.304 151.176 436.701V443H149.457V433.195ZM167.816 440.324C167.816 440.669 167.758 440.979 167.641 441.252C167.523 441.525 167.364 441.77 167.162 441.984C166.96 442.193 166.726 442.372 166.459 442.521C166.192 442.671 165.906 442.795 165.6 442.893C165.3 442.99 164.991 443.062 164.672 443.107C164.353 443.153 164.04 443.176 163.734 443.176C163.07 443.176 162.458 443.146 161.898 443.088C161.345 443.029 160.801 442.935 160.268 442.805V441.242C160.84 441.405 161.41 441.529 161.977 441.613C162.543 441.698 163.106 441.74 163.666 441.74C164.48 441.74 165.082 441.63 165.473 441.408C165.863 441.187 166.059 440.871 166.059 440.461C166.059 440.285 166.026 440.129 165.961 439.992C165.902 439.849 165.792 439.715 165.629 439.592C165.466 439.462 165.212 439.328 164.867 439.191C164.529 439.055 164.063 438.898 163.471 438.723C163.028 438.592 162.618 438.446 162.24 438.283C161.869 438.114 161.547 437.915 161.273 437.688C161 437.46 160.785 437.193 160.629 436.887C160.473 436.581 160.395 436.219 160.395 435.803C160.395 435.529 160.456 435.23 160.58 434.904C160.71 434.579 160.928 434.276 161.234 433.996C161.54 433.716 161.954 433.485 162.475 433.303C162.995 433.114 163.646 433.02 164.428 433.02C164.812 433.02 165.238 433.042 165.707 433.088C166.176 433.127 166.664 433.199 167.172 433.303V434.816C166.638 434.686 166.13 434.592 165.648 434.533C165.173 434.468 164.76 434.436 164.408 434.436C163.985 434.436 163.627 434.468 163.334 434.533C163.048 434.598 162.813 434.689 162.631 434.807C162.455 434.917 162.328 435.051 162.25 435.207C162.172 435.357 162.133 435.52 162.133 435.695C162.133 435.871 162.165 436.031 162.23 436.174C162.302 436.317 162.429 436.457 162.611 436.594C162.8 436.724 163.061 436.857 163.393 436.994C163.725 437.124 164.158 437.268 164.691 437.424C165.271 437.593 165.759 437.772 166.156 437.961C166.553 438.143 166.876 438.348 167.123 438.576C167.37 438.804 167.546 439.061 167.65 439.348C167.761 439.634 167.816 439.96 167.816 440.324Z" fill="#666666"/>
</g>
<defs>
<clipPath id="clip0_6294_109">
<rect width="189" height="449" fill="white"/>
</clipPath>
</defs>
</svg>
