<svg width="341" height="116" viewBox="0 0 341 116" fill="none" xmlns="http://www.w3.org/2000/svg">
<g clip-path="url(#clip0_3248_7065)">
<rect width="341" height="116" fill="white"/>
<rect x="177" y="1" width="69" height="28" rx="6" fill="#FFF4EF" stroke="#FF5500" stroke-width="2"/>
<path d="M40.832 83.96C40.832 84.6878 40.6839 85.3734 40.3877 86.0166C40.0915 86.6514 39.6471 87.21 39.0547 87.6924C38.4622 88.1663 37.7174 88.543 36.8203 88.8223C35.9232 89.0931 34.8779 89.2285 33.6846 89.2285C33.0244 89.2285 32.432 89.2074 31.9072 89.165C31.3825 89.1227 30.8916 89.0677 30.4346 89V87.0195C30.9593 87.1126 31.5137 87.1846 32.0977 87.2354C32.6816 87.2861 33.2783 87.3115 33.8877 87.3115C34.7171 87.3115 35.4238 87.2396 36.0078 87.0957C36.6003 86.9434 37.0827 86.7275 37.4551 86.4482C37.8275 86.1689 38.0983 85.8304 38.2676 85.4326C38.4368 85.0348 38.5215 84.5863 38.5215 84.0869C38.5215 83.6299 38.4199 83.2321 38.2168 82.8936C38.0137 82.555 37.7259 82.2715 37.3535 82.043C36.9896 81.8145 36.5495 81.6452 36.0332 81.5352C35.5254 81.4167 34.9668 81.3574 34.3574 81.3574H32.4658V79.542H34.3828C34.8822 79.542 35.335 79.4785 35.7412 79.3516C36.1559 79.2161 36.5072 79.0257 36.7949 78.7803C37.0911 78.5348 37.3154 78.2344 37.4678 77.8789C37.6286 77.515 37.709 77.1045 37.709 76.6475C37.709 75.7588 37.4382 75.1113 36.8965 74.7051C36.3548 74.2988 35.5592 74.0957 34.5098 74.0957C33.9512 74.0957 33.3757 74.1507 32.7832 74.2607C32.1908 74.3708 31.556 74.5358 30.8789 74.7559V72.8262C31.1667 72.7246 31.4714 72.6357 31.793 72.5596C32.123 72.4749 32.4489 72.4072 32.7705 72.3564C33.1006 72.2972 33.4264 72.2549 33.748 72.2295C34.0697 72.1956 34.3786 72.1787 34.6748 72.1787C35.555 72.1787 36.3294 72.276 36.998 72.4707C37.6667 72.6569 38.2253 72.9277 38.6738 73.2832C39.1224 73.6387 39.4609 74.0703 39.6895 74.5781C39.918 75.0859 40.0322 75.6572 40.0322 76.292C40.0322 77.2399 39.7868 78.0355 39.2959 78.6787C38.8135 79.3219 38.1491 79.834 37.3027 80.2148C37.7344 80.2826 38.1576 80.418 38.5723 80.6211C38.9954 80.8242 39.3721 81.0866 39.7021 81.4082C40.0407 81.7214 40.3115 82.0938 40.5146 82.5254C40.7262 82.957 40.832 83.4352 40.832 83.96Z" fill="black" fill-opacity="0.2"/>
<path d="M11.9912 94.2051H5.73242V70.6172H11.9912V72.3945H7.83984V92.4277H11.9912V94.2051Z" fill="black"/>
<path d="M333.009 94.2051H339.268V70.6172H333.009V72.3945H337.16V92.4277H333.009V94.2051Z" fill="black"/>
<path d="M129.975 85.3311H127.144V89H124.884V85.3311H116.898V83.3887L123.97 72.4072H127.144V83.3887H129.975V85.3311ZM124.884 74.54L119.107 83.3887H124.884V74.54Z" fill="black" fill-opacity="0.2"/>
<path d="M40.1387 108.623C40.1387 109.6 40.041 110.492 39.8457 111.299C39.6504 112.1 39.3542 112.79 38.957 113.369C38.5599 113.942 38.0651 114.388 37.4727 114.707C36.8867 115.02 36.1966 115.176 35.4023 115.176C34.7188 115.176 34.097 115.049 33.5371 114.795C32.9772 114.535 32.4987 114.137 32.1016 113.604C31.7044 113.07 31.3984 112.389 31.1836 111.562C30.9688 110.736 30.8613 109.756 30.8613 108.623C30.8613 107.646 30.959 106.755 31.1543 105.947C31.3561 105.14 31.6523 104.45 32.043 103.877C32.4401 103.298 32.9349 102.852 33.5273 102.539C34.1198 102.22 34.8099 102.061 35.5977 102.061C36.2812 102.061 36.903 102.191 37.4629 102.451C38.0228 102.705 38.5013 103.102 38.8984 103.643C39.2956 104.176 39.6016 104.857 39.8164 105.684C40.0312 106.51 40.1387 107.49 40.1387 108.623ZM38.4199 108.682C38.4199 108.46 38.4102 108.242 38.3906 108.027C38.3776 107.806 38.3613 107.591 38.3418 107.383L32.9414 111.396C33.0391 111.735 33.1628 112.048 33.3125 112.334C33.4622 112.62 33.6413 112.868 33.8496 113.076C34.0645 113.278 34.3053 113.438 34.5723 113.555C34.8457 113.665 35.1549 113.721 35.5 113.721C35.9427 113.721 36.3431 113.613 36.7012 113.398C37.0658 113.184 37.375 112.865 37.6289 112.441C37.8828 112.018 38.0781 111.494 38.2148 110.869C38.3516 110.238 38.4199 109.508 38.4199 108.682ZM32.5801 108.564C32.5801 108.766 32.5801 108.968 32.5801 109.17C32.5866 109.372 32.5996 109.567 32.6191 109.756L38.0195 105.762C37.9219 105.43 37.7982 105.127 37.6484 104.854C37.4987 104.58 37.3197 104.346 37.1113 104.15C36.903 103.949 36.6654 103.792 36.3984 103.682C36.1315 103.571 35.832 103.516 35.5 103.516C35.0573 103.516 34.6536 103.623 34.2891 103.838C33.931 104.053 33.625 104.375 33.3711 104.805C33.1172 105.228 32.9219 105.755 32.7852 106.387C32.6484 107.012 32.5801 107.738 32.5801 108.564Z" fill="black" fill-opacity="0.2"/>
<path d="M127.738 115H119.721V113.418H123.002V104.102L119.945 105.762L119.32 104.316L123.383 102.178H124.887V113.418H127.738V115Z" fill="black" fill-opacity="0.2"/>
<path d="M217.353 83.7441C217.353 84.5059 217.213 85.221 216.934 85.8896C216.663 86.5583 216.273 87.1423 215.766 87.6416C215.258 88.1325 214.644 88.5218 213.925 88.8096C213.214 89.0889 212.423 89.2285 211.551 89.2285C210.637 89.2285 209.828 89.0846 209.126 88.7969C208.424 88.5007 207.835 88.0521 207.361 87.4512C206.887 86.8418 206.528 86.0758 206.282 85.1533C206.037 84.2308 205.914 83.139 205.914 81.8779C205.914 81.0316 205.969 80.2106 206.079 79.415C206.189 78.6195 206.371 77.8704 206.625 77.168C206.879 76.4655 207.217 75.8223 207.641 75.2383C208.064 74.6543 208.589 74.1549 209.215 73.7402C209.85 73.3171 210.594 72.9912 211.449 72.7627C212.304 72.5257 213.294 72.4072 214.42 72.4072H216.058V74.3369H214.28C213.29 74.3369 212.431 74.4554 211.703 74.6924C210.975 74.9294 210.366 75.2637 209.875 75.6953C209.384 76.127 209.007 76.6475 208.745 77.2568C208.483 77.8662 208.318 78.5475 208.25 79.3008L208.199 79.8213C208.732 79.5081 209.346 79.2585 210.04 79.0723C210.743 78.8776 211.5 78.7803 212.312 78.7803C213.15 78.7803 213.882 78.903 214.509 79.1484C215.144 79.3939 215.668 79.7367 216.083 80.1768C216.506 80.6084 216.824 81.1289 217.035 81.7383C217.247 82.3477 217.353 83.0163 217.353 83.7441ZM215.042 83.8838C215.042 83.376 214.979 82.9189 214.852 82.5127C214.733 82.098 214.543 81.751 214.28 81.4717C214.018 81.1839 213.684 80.9639 213.277 80.8115C212.88 80.6507 212.401 80.5703 211.843 80.5703C211.521 80.5703 211.195 80.5999 210.865 80.6592C210.535 80.7184 210.209 80.8031 209.888 80.9131C209.575 81.0146 209.274 81.1331 208.986 81.2686C208.699 81.404 208.436 81.5479 208.199 81.7002C208.199 82.792 208.275 83.7061 208.428 84.4424C208.58 85.1702 208.804 85.7542 209.101 86.1943C209.405 86.6344 209.778 86.9476 210.218 87.1338C210.658 87.32 211.166 87.4131 211.741 87.4131C212.224 87.4131 212.664 87.3369 213.062 87.1846C213.468 87.0238 213.815 86.791 214.103 86.4863C214.399 86.1816 214.627 85.8135 214.788 85.3818C214.957 84.9417 215.042 84.4424 215.042 83.8838Z" fill="black"/>
<path d="M304.642 89H294.219V86.9434H298.485V74.832L294.511 76.9902L293.699 75.1113L298.98 72.3311H300.935V86.9434H304.642V89ZM317.898 80.71C317.898 81.9795 317.771 83.139 317.517 84.1885C317.263 85.2295 316.878 86.1266 316.362 86.8799C315.845 87.6247 315.202 88.2044 314.432 88.6191C313.67 89.0254 312.773 89.2285 311.741 89.2285C310.852 89.2285 310.044 89.0635 309.316 88.7334C308.588 88.3949 307.966 87.8786 307.449 87.1846C306.933 86.4906 306.535 85.6061 306.256 84.5312C305.977 83.4564 305.837 82.1826 305.837 80.71C305.837 79.4404 305.964 78.2809 306.218 77.2314C306.48 76.182 306.866 75.2848 307.373 74.54C307.89 73.7868 308.533 73.207 309.303 72.8008C310.073 72.3861 310.97 72.1787 311.994 72.1787C312.883 72.1787 313.691 72.348 314.419 72.6865C315.147 73.0166 315.769 73.5329 316.285 74.2354C316.802 74.9294 317.199 75.8138 317.479 76.8887C317.758 77.9635 317.898 79.2373 317.898 80.71ZM315.663 80.7861C315.663 80.4984 315.651 80.2148 315.625 79.9355C315.608 79.6478 315.587 79.3685 315.562 79.0977L308.541 84.3154C308.668 84.7555 308.829 85.1618 309.024 85.5342C309.218 85.9066 309.451 86.2282 309.722 86.499C310.001 86.7614 310.314 86.9688 310.661 87.1211C311.017 87.265 311.419 87.3369 311.867 87.3369C312.443 87.3369 312.963 87.1973 313.429 86.918C313.903 86.6387 314.305 86.224 314.635 85.6738C314.965 85.1237 315.219 84.4424 315.397 83.6299C315.574 82.8089 315.663 81.861 315.663 80.7861ZM308.072 80.6338C308.072 80.8962 308.072 81.1585 308.072 81.4209C308.08 81.6833 308.097 81.9372 308.122 82.1826L315.143 76.9902C315.016 76.5586 314.855 76.165 314.66 75.8096C314.466 75.4541 314.233 75.1494 313.962 74.8955C313.691 74.6331 313.382 74.43 313.035 74.2861C312.688 74.1423 312.299 74.0703 311.867 74.0703C311.292 74.0703 310.767 74.21 310.293 74.4893C309.828 74.7686 309.43 75.1875 309.1 75.7461C308.77 76.2962 308.516 76.9818 308.338 77.8027C308.16 78.6152 308.072 79.5589 308.072 80.6338Z" fill="black"/>
<path d="M215.846 115H207.438V113.477L210.738 110.195C211.279 109.661 211.718 109.199 212.057 108.809C212.395 108.418 212.659 108.063 212.848 107.744C213.036 107.419 213.163 107.113 213.229 106.826C213.294 106.54 213.326 106.23 213.326 105.898C213.326 105.586 213.284 105.29 213.199 105.01C213.115 104.723 212.984 104.473 212.809 104.258C212.633 104.043 212.405 103.874 212.125 103.75C211.845 103.626 211.51 103.564 211.119 103.564C210.579 103.564 210.087 103.685 209.645 103.926C209.202 104.167 208.795 104.479 208.424 104.863L207.486 103.74C207.968 103.232 208.521 102.826 209.146 102.52C209.778 102.214 210.51 102.061 211.344 102.061C211.91 102.061 212.424 102.145 212.887 102.314C213.355 102.484 213.759 102.728 214.098 103.047C214.436 103.366 214.697 103.757 214.879 104.219C215.068 104.681 215.162 105.202 215.162 105.781C215.162 106.27 215.097 106.722 214.967 107.139C214.837 107.555 214.638 107.972 214.371 108.389C214.111 108.799 213.779 109.225 213.375 109.668C212.978 110.111 212.506 110.596 211.959 111.123L209.645 113.379H215.846V115Z" fill="black" fill-opacity="0.5"/>
<path d="M309.602 111.123C309.602 111.683 309.488 112.21 309.26 112.705C309.032 113.193 308.69 113.623 308.234 113.994C307.779 114.359 307.206 114.648 306.516 114.863C305.826 115.072 305.021 115.176 304.104 115.176C303.596 115.176 303.14 115.16 302.736 115.127C302.333 115.094 301.955 115.052 301.604 115V113.477C302.007 113.548 302.434 113.604 302.883 113.643C303.332 113.682 303.791 113.701 304.26 113.701C304.898 113.701 305.441 113.646 305.891 113.535C306.346 113.418 306.717 113.252 307.004 113.037C307.29 112.822 307.499 112.562 307.629 112.256C307.759 111.95 307.824 111.605 307.824 111.221C307.824 110.869 307.746 110.563 307.59 110.303C307.434 110.042 307.212 109.824 306.926 109.648C306.646 109.473 306.307 109.342 305.91 109.258C305.52 109.167 305.09 109.121 304.621 109.121H303.166V107.725H304.641C305.025 107.725 305.373 107.676 305.686 107.578C306.005 107.474 306.275 107.327 306.496 107.139C306.724 106.95 306.896 106.719 307.014 106.445C307.137 106.165 307.199 105.85 307.199 105.498C307.199 104.814 306.991 104.316 306.574 104.004C306.158 103.691 305.546 103.535 304.738 103.535C304.309 103.535 303.866 103.577 303.41 103.662C302.954 103.747 302.466 103.874 301.945 104.043V102.559C302.167 102.48 302.401 102.412 302.648 102.354C302.902 102.288 303.153 102.236 303.4 102.197C303.654 102.152 303.905 102.119 304.152 102.1C304.4 102.074 304.637 102.061 304.865 102.061C305.542 102.061 306.138 102.135 306.652 102.285C307.167 102.428 307.596 102.637 307.941 102.91C308.286 103.184 308.547 103.516 308.723 103.906C308.898 104.297 308.986 104.736 308.986 105.225C308.986 105.954 308.798 106.566 308.42 107.061C308.049 107.555 307.538 107.949 306.887 108.242C307.219 108.294 307.544 108.398 307.863 108.555C308.189 108.711 308.479 108.913 308.732 109.16C308.993 109.401 309.201 109.688 309.357 110.02C309.52 110.352 309.602 110.719 309.602 111.123Z" fill="black" fill-opacity="0.5"/>
<path d="M194.91 9.59766H192.01V8.20117H196.629V20.584H199.549V22H191.688V20.584H194.91V9.59766ZM210.848 16.5801C210.848 16.821 210.844 17.0228 210.838 17.1855C210.831 17.3483 210.822 17.5013 210.809 17.6445H203.924C203.924 18.6471 204.204 19.4186 204.764 19.959C205.324 20.4928 206.131 20.7598 207.186 20.7598C207.472 20.7598 207.758 20.75 208.045 20.7305C208.331 20.7044 208.608 20.6719 208.875 20.6328C209.142 20.5938 209.396 20.5514 209.637 20.5059C209.884 20.4538 210.112 20.3984 210.32 20.3398V21.7363C209.858 21.8665 209.334 21.9707 208.748 22.0488C208.169 22.1335 207.566 22.1758 206.941 22.1758C206.102 22.1758 205.379 22.0618 204.773 21.834C204.168 21.6061 203.67 21.2773 203.279 20.8477C202.895 20.4115 202.609 19.8809 202.42 19.2559C202.238 18.6243 202.146 17.9115 202.146 17.1172C202.146 16.4271 202.244 15.776 202.439 15.1641C202.641 14.5456 202.931 14.0052 203.309 13.543C203.693 13.0742 204.161 12.7031 204.715 12.4297C205.268 12.1562 205.896 12.0195 206.6 12.0195C207.283 12.0195 207.889 12.127 208.416 12.3418C208.943 12.5566 209.386 12.8626 209.744 13.2598C210.109 13.6504 210.382 14.1289 210.564 14.6953C210.753 15.2552 210.848 15.8835 210.848 16.5801ZM209.08 16.3359C209.1 15.8997 209.057 15.5026 208.953 15.1445C208.849 14.7799 208.686 14.4674 208.465 14.207C208.25 13.9466 207.98 13.7448 207.654 13.6016C207.329 13.4518 206.951 13.377 206.521 13.377C206.15 13.377 205.812 13.4486 205.506 13.5918C205.2 13.735 204.936 13.9368 204.715 14.1973C204.493 14.4577 204.314 14.7702 204.178 15.1348C204.041 15.4993 203.956 15.8997 203.924 16.3359H209.08ZM222.264 9.7832C221.372 9.5944 220.604 9.5 219.959 9.5C218.429 9.5 217.664 10.3008 217.664 11.9023V13.6211H221.961V15.0371H217.664V22H215.936V15.0371H212.781V13.6211H215.936V12C215.936 9.38932 217.296 8.08398 220.018 8.08398C220.695 8.08398 221.443 8.16211 222.264 8.31836V9.7832ZM232.459 21.8633C232.075 21.9609 231.678 22.0293 231.268 22.0684C230.857 22.1139 230.441 22.1367 230.018 22.1367C228.787 22.1367 227.869 21.86 227.264 21.3066C226.658 20.7467 226.355 19.8906 226.355 18.7383V13.6211H223.611V12.1953H226.355V9.5L228.055 9.06055V12.1953H232.459V13.6211H228.055V18.6016C228.055 19.3047 228.24 19.832 228.611 20.1836C228.989 20.5286 229.542 20.7012 230.271 20.7012C230.584 20.7012 230.926 20.6784 231.297 20.6328C231.668 20.5807 232.055 20.5026 232.459 20.3984V21.8633Z" fill="#FF5500"/>
<path d="M279.973 11.1953H281.525L281.574 13.002C282.154 12.3053 282.723 11.8008 283.283 11.4883C283.85 11.1758 284.419 11.0195 284.992 11.0195C286.008 11.0195 286.776 11.3483 287.297 12.0059C287.824 12.6634 288.068 13.64 288.029 14.9355H286.311C286.33 14.0762 286.203 13.4544 285.93 13.0703C285.663 12.6797 285.269 12.4844 284.748 12.4844C284.52 12.4844 284.289 12.5267 284.055 12.6113C283.827 12.6895 283.589 12.8197 283.342 13.002C283.101 13.1777 282.844 13.4056 282.57 13.6855C282.297 13.9655 282.004 14.304 281.691 14.7012V21H279.973V11.1953ZM293.908 12.6016H291.008V11.1953H295.627V19.584H298.547V21H290.686V19.584H293.908V12.6016ZM294.504 7.08398C294.693 7.08398 294.868 7.11979 295.031 7.19141C295.194 7.25651 295.334 7.35091 295.451 7.47461C295.575 7.59831 295.669 7.74154 295.734 7.9043C295.806 8.06055 295.842 8.23307 295.842 8.42188C295.842 8.60417 295.806 8.77669 295.734 8.93945C295.669 9.10221 295.575 9.24544 295.451 9.36914C295.334 9.49284 295.194 9.59049 295.031 9.66211C294.868 9.72721 294.693 9.75977 294.504 9.75977C294.315 9.75977 294.139 9.72721 293.977 9.66211C293.814 9.59049 293.671 9.49284 293.547 9.36914C293.43 9.24544 293.335 9.10221 293.264 8.93945C293.199 8.77669 293.166 8.60417 293.166 8.42188C293.166 8.23307 293.199 8.06055 293.264 7.9043C293.335 7.74154 293.43 7.59831 293.547 7.47461C293.671 7.35091 293.814 7.25651 293.977 7.19141C294.139 7.11979 294.315 7.08398 294.504 7.08398ZM308.625 12.582C308.807 12.8099 308.947 13.0768 309.045 13.3828C309.149 13.6823 309.201 14.0078 309.201 14.3594C309.201 14.8672 309.107 15.3327 308.918 15.7559C308.736 16.1725 308.475 16.5306 308.137 16.8301C307.798 17.1296 307.391 17.3639 306.916 17.5332C306.447 17.696 305.93 17.7773 305.363 17.7773C304.953 17.7773 304.569 17.735 304.211 17.6504C303.853 17.5592 303.57 17.4486 303.361 17.3184C303.238 17.5007 303.133 17.6732 303.049 17.8359C302.964 17.9987 302.922 18.181 302.922 18.3828C302.922 18.6302 303.039 18.8353 303.273 18.998C303.514 19.1608 303.83 19.2487 304.221 19.2617L306.799 19.3594C307.287 19.3724 307.736 19.4342 308.146 19.5449C308.563 19.6556 308.918 19.8151 309.211 20.0234C309.51 20.2318 309.742 20.4889 309.904 20.7949C310.074 21.1009 310.158 21.4557 310.158 21.8594C310.158 22.2956 310.064 22.709 309.875 23.0996C309.686 23.4902 309.393 23.832 308.996 24.125C308.605 24.4245 308.107 24.6621 307.502 24.8379C306.896 25.0137 306.177 25.1016 305.344 25.1016C304.549 25.1016 303.872 25.0365 303.312 24.9062C302.759 24.7826 302.303 24.6068 301.945 24.3789C301.587 24.1576 301.327 23.8906 301.164 23.5781C301.001 23.2721 300.92 22.9336 300.92 22.5625C300.92 22.0872 301.031 21.6706 301.252 21.3125C301.473 20.9544 301.815 20.6094 302.277 20.2773C302.108 20.1992 301.962 20.1016 301.838 19.9844C301.714 19.8672 301.613 19.7402 301.535 19.6035C301.457 19.4603 301.398 19.3105 301.359 19.1543C301.32 18.998 301.301 18.8451 301.301 18.6953C301.301 18.2721 301.398 17.8848 301.594 17.5332C301.796 17.1816 302.033 16.8496 302.307 16.5371C302.183 16.3874 302.072 16.2409 301.975 16.0977C301.883 15.9544 301.802 15.8014 301.73 15.6387C301.665 15.4694 301.613 15.2904 301.574 15.1016C301.542 14.9062 301.525 14.6849 301.525 14.4375C301.525 13.9297 301.617 13.4674 301.799 13.0508C301.988 12.6276 302.248 12.2663 302.58 11.9668C302.919 11.6673 303.322 11.4362 303.791 11.2734C304.266 11.1042 304.79 11.0195 305.363 11.0195C305.604 11.0195 305.835 11.0358 306.057 11.0684C306.278 11.1009 306.473 11.1432 306.643 11.1953H310.197V12.582H308.625ZM302.727 22.416C302.727 22.8783 302.967 23.2135 303.449 23.4219C303.931 23.6367 304.602 23.7441 305.461 23.7441C306.001 23.7441 306.454 23.6953 306.818 23.5977C307.189 23.5 307.486 23.3698 307.707 23.207C307.935 23.0508 308.098 22.8685 308.195 22.6602C308.293 22.4583 308.342 22.25 308.342 22.0352C308.342 21.638 308.179 21.3451 307.854 21.1562C307.528 20.9674 307.03 20.8568 306.359 20.8242L303.801 20.7363C303.586 20.8796 303.407 21.0195 303.264 21.1562C303.127 21.293 303.02 21.4297 302.941 21.5664C302.863 21.7096 302.808 21.8496 302.775 21.9863C302.743 22.1296 302.727 22.2728 302.727 22.416ZM303.244 14.3984C303.244 14.7109 303.296 14.9974 303.4 15.2578C303.505 15.5182 303.651 15.7396 303.84 15.9219C304.029 16.1042 304.25 16.2474 304.504 16.3516C304.764 16.4492 305.051 16.498 305.363 16.498C305.702 16.498 306.001 16.4427 306.262 16.332C306.529 16.2148 306.75 16.0586 306.926 15.8633C307.108 15.668 307.245 15.4434 307.336 15.1895C307.434 14.9355 307.482 14.6719 307.482 14.3984C307.482 14.0859 307.43 13.7995 307.326 13.5391C307.222 13.2786 307.076 13.0573 306.887 12.875C306.698 12.6927 306.473 12.5527 306.213 12.4551C305.959 12.3509 305.676 12.2988 305.363 12.2988C305.025 12.2988 304.722 12.3574 304.455 12.4746C304.195 12.5918 303.973 12.748 303.791 12.9434C303.615 13.1322 303.479 13.3535 303.381 13.6074C303.29 13.8613 303.244 14.125 303.244 14.3984ZM320.441 21H318.742V14.7402C318.742 13.985 318.599 13.4219 318.312 13.0508C318.033 12.6732 317.629 12.4844 317.102 12.4844C316.874 12.4844 316.659 12.5169 316.457 12.582C316.262 12.6406 316.057 12.748 315.842 12.9043C315.627 13.054 315.393 13.2591 315.139 13.5195C314.885 13.7799 314.592 14.1055 314.26 14.4961V21H312.561V7.20117H314.26V11.1953L314.201 12.7383C314.468 12.4193 314.729 12.1523 314.982 11.9375C315.243 11.7161 315.5 11.5371 315.754 11.4004C316.014 11.2637 316.278 11.166 316.545 11.1074C316.812 11.0488 317.089 11.0195 317.375 11.0195C318.352 11.0195 319.107 11.319 319.641 11.918C320.174 12.5104 320.441 13.4056 320.441 14.6035V21ZM331.457 20.8633C331.073 20.9609 330.676 21.0293 330.266 21.0684C329.855 21.1139 329.439 21.1367 329.016 21.1367C327.785 21.1367 326.867 20.86 326.262 20.3066C325.656 19.7467 325.354 18.8906 325.354 17.7383V12.6211H322.609V11.1953H325.354V8.5L327.053 8.06055V11.1953H331.457V12.6211H327.053V17.6016C327.053 18.3047 327.238 18.832 327.609 19.1836C327.987 19.5286 328.54 19.7012 329.27 19.7012C329.582 19.7012 329.924 19.6784 330.295 19.6328C330.666 19.5807 331.053 19.5026 331.457 19.3984V20.8633Z" fill="#666666"/>
<path d="M210.293 57.7071C210.683 58.0976 211.317 58.0976 211.707 57.7071L218.071 51.3431C218.462 50.9526 218.462 50.3195 218.071 49.9289C217.681 49.5384 217.047 49.5384 216.657 49.9289L211 55.5858L205.343 49.9289C204.953 49.5384 204.319 49.5384 203.929 49.9289C203.538 50.3195 203.538 50.9526 203.929 51.3431L210.293 57.7071ZM210 30L210 57L212 57L212 30L210 30Z" fill="#FF5500"/>
<path d="M19.5 83L143.5 83" stroke="#CCCCCC" stroke-width="2"/>
<path d="M304.293 57.7071C304.683 58.0976 305.317 58.0976 305.707 57.7071L312.071 51.3431C312.462 50.9526 312.462 50.3195 312.071 49.9289C311.681 49.5384 311.047 49.5384 310.657 49.9289L305 55.5858L299.343 49.9289C298.953 49.5384 298.319 49.5384 297.929 49.9289C297.538 50.3195 297.538 50.9526 297.929 51.3431L304.293 57.7071ZM304 30L304 57L306 57L306 30L304 30Z" fill="#666666"/>
<rect x="271" y="1" width="69" height="28" rx="6" stroke="#666666" stroke-width="2"/>
<path d="M116.061 21V13.959C116.061 13.653 116.048 13.4023 116.021 13.207C116.002 13.0117 115.966 12.8587 115.914 12.748C115.868 12.6309 115.807 12.5495 115.729 12.5039C115.657 12.4583 115.566 12.4355 115.455 12.4355C115.325 12.4355 115.204 12.4746 115.094 12.5527C114.983 12.6309 114.863 12.7578 114.732 12.9336C114.609 13.1094 114.469 13.3438 114.312 13.6367C114.163 13.9232 113.984 14.278 113.775 14.7012V21H112.223V14.1445C112.223 13.7865 112.21 13.4967 112.184 13.2754C112.164 13.054 112.128 12.8815 112.076 12.7578C112.031 12.6341 111.969 12.5495 111.891 12.5039C111.812 12.4583 111.718 12.4355 111.607 12.4355C111.49 12.4355 111.38 12.4681 111.275 12.5332C111.171 12.5983 111.054 12.7155 110.924 12.8848C110.8 13.054 110.66 13.2852 110.504 13.5781C110.348 13.8711 110.162 14.2454 109.947 14.7012V21H108.385V11.1953H109.684L109.762 13.0605C109.931 12.6895 110.094 12.3737 110.25 12.1133C110.413 11.8529 110.579 11.6445 110.748 11.4883C110.917 11.3255 111.096 11.2083 111.285 11.1367C111.48 11.0586 111.695 11.0195 111.93 11.0195C112.457 11.0195 112.857 11.1921 113.131 11.5371C113.404 11.8822 113.541 12.416 113.541 13.1387C113.697 12.8001 113.85 12.5007 114 12.2402C114.15 11.9733 114.309 11.752 114.479 11.5762C114.654 11.3939 114.846 11.2572 115.055 11.166C115.263 11.0684 115.504 11.0195 115.777 11.0195C117.008 11.0195 117.623 11.9668 117.623 13.8613V21H116.061ZM123.404 12.6016H120.504V11.1953H125.123V19.584H128.043V21H120.182V19.584H123.404V12.6016ZM124 7.08398C124.189 7.08398 124.365 7.11979 124.527 7.19141C124.69 7.25651 124.83 7.35091 124.947 7.47461C125.071 7.59831 125.165 7.74154 125.23 7.9043C125.302 8.06055 125.338 8.23307 125.338 8.42188C125.338 8.60417 125.302 8.77669 125.23 8.93945C125.165 9.10221 125.071 9.24544 124.947 9.36914C124.83 9.49284 124.69 9.59049 124.527 9.66211C124.365 9.72721 124.189 9.75977 124 9.75977C123.811 9.75977 123.635 9.72721 123.473 9.66211C123.31 9.59049 123.167 9.49284 123.043 9.36914C122.926 9.24544 122.831 9.10221 122.76 8.93945C122.695 8.77669 122.662 8.60417 122.662 8.42188C122.662 8.23307 122.695 8.06055 122.76 7.9043C122.831 7.74154 122.926 7.59831 123.043 7.47461C123.167 7.35091 123.31 7.25651 123.473 7.19141C123.635 7.11979 123.811 7.08398 124 7.08398ZM130.562 16.3027C130.562 15.4694 130.676 14.7305 130.904 14.0859C131.132 13.4349 131.454 12.888 131.871 12.4453C132.294 11.9961 132.799 11.6576 133.385 11.4297C133.977 11.1953 134.635 11.0781 135.357 11.0781C135.67 11.0781 135.976 11.0977 136.275 11.1367C136.581 11.1758 136.881 11.2376 137.174 11.3223V7.20117H138.883V21H137.359L137.301 19.1445C136.826 19.8346 136.311 20.3457 135.758 20.6777C135.204 21.0098 134.605 21.1758 133.961 21.1758C133.401 21.1758 132.906 21.0586 132.477 20.8242C132.053 20.5898 131.699 20.2611 131.412 19.8379C131.132 19.4082 130.921 18.8939 130.777 18.2949C130.634 17.696 130.562 17.0319 130.562 16.3027ZM132.301 16.1953C132.301 17.3802 132.473 18.2656 132.818 18.8516C133.17 19.431 133.665 19.7207 134.303 19.7207C134.732 19.7207 135.185 19.5286 135.66 19.1445C136.142 18.7604 136.646 18.1908 137.174 17.4355V12.8848C136.894 12.7546 136.585 12.6569 136.246 12.5918C135.908 12.5202 135.572 12.4844 135.24 12.4844C134.316 12.4844 133.593 12.7839 133.072 13.3828C132.558 13.9818 132.301 14.9193 132.301 16.1953Z" fill="black" fill-opacity="0.2"/>
<path d="M122.293 57.7071C122.683 58.0976 123.317 58.0976 123.707 57.7071L130.071 51.3431C130.462 50.9526 130.462 50.3195 130.071 49.9289C129.681 49.5384 129.047 49.5384 128.657 49.9289L123 55.5858L117.343 49.9289C116.953 49.5384 116.319 49.5384 115.929 49.9289C115.538 50.3195 115.538 50.9526 115.929 51.3431L122.293 57.7071ZM122 30L122 57L124 57L124 30L122 30Z" fill="#CCCCCC"/>
<rect x="89" y="1" width="69" height="28" rx="6" stroke="#CCCCCC" stroke-width="2"/>
<path d="M199.092 67.0919C199.644 67.0919 200.092 66.6442 200.092 66.0919L200.092 57.0919C200.092 56.5397 199.644 56.0919 199.092 56.0919C198.54 56.0919 198.092 56.5397 198.092 57.0919L198.092 65.0919L190.092 65.0919C189.54 65.0919 189.092 65.5397 189.092 66.0919C189.092 66.6442 189.54 67.0919 190.092 67.0919L199.092 67.0919ZM36.7071 66.799C37.654 65.8521 38.6205 64.9291 39.6055 64.0298L38.257 62.5527C37.2498 63.4723 36.2614 64.4162 35.2929 65.3848L36.7071 66.799ZM45.755 58.8991C47.8815 57.2782 50.0761 55.7519 52.3313 54.3185L51.2585 52.6306C48.9566 54.0937 46.7153 55.6524 44.5426 57.3084L45.755 58.8991ZM59.2693 50.2967C61.6308 49.0515 64.045 47.8973 66.5045 46.8324L65.7099 44.997C63.2047 46.0817 60.7444 47.2579 58.3365 48.5275L59.2693 50.2967ZM73.9841 43.914C76.5059 43.033 79.0647 42.2386 81.6533 41.5292L81.1247 39.6003C78.493 40.3215 75.8905 41.1295 73.3245 42.0259L73.9841 43.914ZM89.4686 39.6614C92.0899 39.124 94.7332 38.6691 97.3912 38.2951L97.1125 36.3146C94.4141 36.6943 91.7298 37.1563 89.067 37.7022L89.4686 39.6614ZM105.384 37.416C108.056 37.2028 110.736 37.0686 113.416 37.012L113.374 35.0125C110.655 35.0698 107.936 35.206 105.224 35.4224L105.384 37.416ZM121.461 37.0741C124.146 37.1719 126.824 37.3466 129.488 37.5965L129.675 35.6053C126.973 35.3518 124.257 35.1746 121.533 35.0754L121.461 37.0741ZM137.471 38.5773C140.134 38.9827 142.775 39.4639 145.386 40.0193L145.802 38.0631C143.153 37.4995 140.474 37.0113 137.772 36.6L137.471 38.5773ZM153.192 41.9264C155.795 42.6469 158.358 43.4435 160.874 44.3143L161.528 42.4244C158.972 41.5395 156.368 40.7304 153.725 39.9989L153.192 41.9264ZM168.369 47.1909C170.86 48.2452 173.291 49.3769 175.652 50.5839L176.562 48.8031C174.157 47.5735 171.682 46.4215 169.148 45.349L168.369 47.1909ZM182.641 54.504C184.947 55.9208 187.167 57.4171 189.291 58.9907L190.481 57.3836C188.309 55.7743 186.041 54.2458 183.688 52.8L182.641 54.504ZM195.487 64.0497C196.482 64.9462 197.448 65.8627 198.385 66.799L199.799 65.3848C198.838 64.4235 197.846 63.4831 196.826 62.564L195.487 64.0497ZM199.092 67.0919C199.644 67.0919 200.092 66.6442 200.092 66.0919L200.092 57.0919C200.092 56.5397 199.644 56.0919 199.092 56.0919C198.54 56.0919 198.092 56.5397 198.092 57.0919L198.092 65.0919L190.092 65.0919C189.54 65.0919 189.092 65.5397 189.092 66.0919C189.092 66.6442 189.54 67.0919 190.092 67.0919L199.092 67.0919ZM36.7071 66.799C37.654 65.8521 38.6205 64.9291 39.6055 64.0298L38.257 62.5527C37.2498 63.4723 36.2614 64.4162 35.2929 65.3848L36.7071 66.799ZM45.755 58.8991C47.8815 57.2782 50.0761 55.7519 52.3313 54.3185L51.2585 52.6306C48.9566 54.0937 46.7153 55.6524 44.5426 57.3084L45.755 58.8991ZM59.2693 50.2967C61.6308 49.0515 64.045 47.8973 66.5045 46.8324L65.7099 44.997C63.2047 46.0817 60.7444 47.2579 58.3365 48.5275L59.2693 50.2967ZM73.9841 43.914C76.5059 43.033 79.0647 42.2386 81.6533 41.5292L81.1247 39.6003C78.493 40.3215 75.8905 41.1295 73.3245 42.0259L73.9841 43.914ZM89.4686 39.6614C92.0899 39.124 94.7332 38.6691 97.3912 38.2951L97.1125 36.3146C94.4141 36.6943 91.7298 37.1563 89.067 37.7022L89.4686 39.6614ZM105.384 37.416C108.056 37.2028 110.736 37.0686 113.416 37.012L113.374 35.0125C110.655 35.0698 107.936 35.206 105.224 35.4224L105.384 37.416ZM121.461 37.0741C124.146 37.1719 126.824 37.3466 129.488 37.5965L129.675 35.6053C126.973 35.3518 124.257 35.1746 121.533 35.0754L121.461 37.0741ZM137.471 38.5773C140.134 38.9827 142.775 39.4639 145.386 40.0193L145.802 38.0631C143.153 37.4995 140.474 37.0113 137.772 36.6L137.471 38.5773ZM153.192 41.9264C155.795 42.6469 158.358 43.4435 160.874 44.3143L161.528 42.4244C158.972 41.5395 156.368 40.7304 153.725 39.9989L153.192 41.9264ZM168.369 47.1909C170.86 48.2452 173.291 49.3769 175.652 50.5839L176.562 48.8031C174.157 47.5735 171.682 46.4215 169.148 45.349L168.369 47.1909ZM182.641 54.504C184.947 55.9208 187.167 57.4171 189.291 58.9907L190.481 57.3836C188.309 55.7743 186.041 54.2458 183.688 52.8L182.641 54.504ZM195.487 64.0497C196.482 64.9462 197.448 65.8627 198.385 66.799L199.799 65.3848C198.838 64.4235 197.846 63.4831 196.826 62.564L195.487 64.0497Z" fill="#FF5500"/>
</g>
<defs>
<clipPath id="clip0_3248_7065">
<rect width="341" height="116" fill="white"/>
</clipPath>
</defs>
</svg>
