<svg width="630" height="156" viewBox="0 0 630 156" fill="none" xmlns="http://www.w3.org/2000/svg">
<g clip-path="url(#clip0_6293_4685)">
<rect width="630" height="156" fill="white"/>
<path d="M310.275 28.0059H303.054V0.789062H310.275V2.83984H305.485V25.9551H310.275V28.0059ZM325.935 28.0059H318.713V25.9551H323.474V2.83984H318.713V0.789062H325.935V28.0059Z" fill="black"/>
<path d="M7.27539 156.006H0.0537109V128.789H7.27539V130.84H2.48535V153.955H7.27539V156.006ZM26.0986 150H14.0723V147.627H18.9941V133.652L14.4092 136.143L13.4717 133.975L19.5654 130.767H21.8213V147.627H26.0986V150ZM39.4287 156.006H32.207V153.955H36.9678V130.84H32.207V128.789H39.4287V156.006Z" fill="black"/>
<path d="M302.275 156.006H295.054V128.789H302.275V130.84H297.485V153.955H302.275V156.006ZM321.26 150H308.647V147.715L313.599 142.793C314.409 141.992 315.068 141.299 315.576 140.713C316.084 140.127 316.479 139.595 316.763 139.116C317.046 138.628 317.236 138.169 317.334 137.739C317.432 137.31 317.48 136.846 317.48 136.348C317.48 135.879 317.417 135.435 317.29 135.015C317.163 134.585 316.968 134.209 316.704 133.887C316.44 133.564 316.099 133.311 315.679 133.125C315.259 132.939 314.756 132.847 314.17 132.847C313.359 132.847 312.622 133.027 311.958 133.389C311.294 133.75 310.684 134.219 310.127 134.795L308.721 133.11C309.443 132.349 310.273 131.738 311.211 131.279C312.158 130.82 313.257 130.591 314.507 130.591C315.356 130.591 316.128 130.718 316.821 130.972C317.524 131.226 318.13 131.592 318.638 132.07C319.146 132.549 319.536 133.135 319.81 133.828C320.093 134.521 320.234 135.303 320.234 136.172C320.234 136.904 320.137 137.583 319.941 138.208C319.746 138.833 319.448 139.458 319.048 140.083C318.657 140.698 318.159 141.338 317.554 142.002C316.958 142.666 316.25 143.394 315.43 144.185L311.958 147.568H321.26V150ZM334.429 156.006H327.207V153.955H331.968V130.84H327.207V128.789H334.429V156.006Z" fill="black"/>
<path d="M329.43 75.5664C328.898 75.7695 328.352 75.918 327.789 76.0117C327.234 76.1133 326.66 76.1641 326.066 76.1641C324.207 76.1641 322.773 75.6602 321.766 74.6523C320.766 73.6445 320.266 72.1719 320.266 70.2344C320.266 69.3047 320.41 68.4609 320.699 67.7031C320.988 66.9453 321.395 66.2969 321.918 65.7578C322.441 65.2188 323.066 64.8047 323.793 64.5156C324.52 64.2188 325.32 64.0703 326.195 64.0703C326.805 64.0703 327.375 64.1133 327.906 64.1992C328.438 64.2852 328.945 64.4258 329.43 64.6211V66.5664C328.922 66.3008 328.402 66.1094 327.871 65.9922C327.348 65.8672 326.805 65.8047 326.242 65.8047C325.719 65.8047 325.223 65.9062 324.754 66.1094C324.293 66.3047 323.887 66.5898 323.535 66.9648C323.184 67.3398 322.906 67.7969 322.703 68.3359C322.5 68.875 322.398 69.4844 322.398 70.1641C322.398 71.5859 322.742 72.6523 323.43 73.3633C324.125 74.0664 325.086 74.418 326.312 74.418C326.867 74.418 327.402 74.3555 327.918 74.2305C328.441 74.1055 328.945 73.918 329.43 73.668V75.5664ZM342.941 76H340.902V68.4883C340.902 67.582 340.73 66.9062 340.387 66.4609C340.051 66.0078 339.566 65.7812 338.934 65.7812C338.66 65.7812 338.402 65.8203 338.16 65.8984C337.926 65.9688 337.68 66.0977 337.422 66.2852C337.164 66.4648 336.883 66.7109 336.578 67.0234C336.273 67.3359 335.922 67.7266 335.523 68.1953V76H333.484V59.4414H335.523V64.2344L335.453 66.0859C335.773 65.7031 336.086 65.3828 336.391 65.125C336.703 64.8594 337.012 64.6445 337.316 64.4805C337.629 64.3164 337.945 64.1992 338.266 64.1289C338.586 64.0586 338.918 64.0234 339.262 64.0234C340.434 64.0234 341.34 64.3828 341.98 65.1016C342.621 65.8125 342.941 66.8867 342.941 68.3242V76ZM356.922 70.0234C356.922 70.9375 356.793 71.7773 356.535 72.543C356.277 73.3008 355.906 73.9531 355.422 74.5C354.938 75.0391 354.348 75.4609 353.652 75.7656C352.957 76.0625 352.168 76.2109 351.285 76.2109C350.441 76.2109 349.684 76.082 349.012 75.8242C348.348 75.5586 347.781 75.1719 347.312 74.6641C346.852 74.1562 346.496 73.5273 346.246 72.7773C346.004 72.0273 345.883 71.1641 345.883 70.1875C345.883 69.2734 346.012 68.4414 346.27 67.6914C346.527 66.9336 346.898 66.2852 347.383 65.7461C347.867 65.1992 348.457 64.7773 349.152 64.4805C349.848 64.1758 350.637 64.0234 351.52 64.0234C352.363 64.0234 353.117 64.1562 353.781 64.4219C354.453 64.6797 355.02 65.0625 355.48 65.5703C355.949 66.0703 356.305 66.6953 356.547 67.4453C356.797 68.1953 356.922 69.0547 356.922 70.0234ZM354.836 70.1172C354.836 69.3906 354.754 68.7578 354.59 68.2188C354.434 67.6719 354.207 67.2188 353.91 66.8594C353.613 66.4922 353.25 66.2188 352.82 66.0391C352.398 65.8516 351.926 65.7578 351.402 65.7578C350.793 65.7578 350.27 65.8789 349.832 66.1211C349.402 66.3555 349.047 66.6719 348.766 67.0703C348.492 67.4688 348.289 67.9336 348.156 68.4648C348.031 68.9883 347.969 69.5391 347.969 70.1172C347.969 70.8438 348.047 71.4805 348.203 72.0273C348.367 72.5742 348.598 73.0312 348.895 73.3984C349.191 73.7578 349.551 74.0312 349.973 74.2188C350.395 74.3984 350.871 74.4883 351.402 74.4883C352.012 74.4883 352.531 74.3711 352.961 74.1367C353.398 73.8945 353.754 73.5742 354.027 73.1758C354.309 72.7773 354.512 72.3164 354.637 71.793C354.77 71.2617 354.836 70.7031 354.836 70.1172ZM370.117 70.0234C370.117 70.9375 369.988 71.7773 369.73 72.543C369.473 73.3008 369.102 73.9531 368.617 74.5C368.133 75.0391 367.543 75.4609 366.848 75.7656C366.152 76.0625 365.363 76.2109 364.48 76.2109C363.637 76.2109 362.879 76.082 362.207 75.8242C361.543 75.5586 360.977 75.1719 360.508 74.6641C360.047 74.1562 359.691 73.5273 359.441 72.7773C359.199 72.0273 359.078 71.1641 359.078 70.1875C359.078 69.2734 359.207 68.4414 359.465 67.6914C359.723 66.9336 360.094 66.2852 360.578 65.7461C361.062 65.1992 361.652 64.7773 362.348 64.4805C363.043 64.1758 363.832 64.0234 364.715 64.0234C365.559 64.0234 366.312 64.1562 366.977 64.4219C367.648 64.6797 368.215 65.0625 368.676 65.5703C369.145 66.0703 369.5 66.6953 369.742 67.4453C369.992 68.1953 370.117 69.0547 370.117 70.0234ZM368.031 70.1172C368.031 69.3906 367.949 68.7578 367.785 68.2188C367.629 67.6719 367.402 67.2188 367.105 66.8594C366.809 66.4922 366.445 66.2188 366.016 66.0391C365.594 65.8516 365.121 65.7578 364.598 65.7578C363.988 65.7578 363.465 65.8789 363.027 66.1211C362.598 66.3555 362.242 66.6719 361.961 67.0703C361.688 67.4688 361.484 67.9336 361.352 68.4648C361.227 68.9883 361.164 69.5391 361.164 70.1172C361.164 70.8438 361.242 71.4805 361.398 72.0273C361.562 72.5742 361.793 73.0312 362.09 73.3984C362.387 73.7578 362.746 74.0312 363.168 74.2188C363.59 74.3984 364.066 74.4883 364.598 74.4883C365.207 74.4883 365.727 74.3711 366.156 74.1367C366.594 73.8945 366.949 73.5742 367.223 73.1758C367.504 72.7773 367.707 72.3164 367.832 71.793C367.965 71.2617 368.031 70.7031 368.031 70.1172ZM382.387 72.7891C382.387 73.2031 382.316 73.5742 382.176 73.9023C382.035 74.2305 381.844 74.5234 381.602 74.7812C381.359 75.0312 381.078 75.2461 380.758 75.4258C380.438 75.6055 380.094 75.7539 379.727 75.8711C379.367 75.9883 378.996 76.0742 378.613 76.1289C378.23 76.1836 377.855 76.2109 377.488 76.2109C376.691 76.2109 375.957 76.1758 375.285 76.1055C374.621 76.0352 373.969 75.9219 373.328 75.7656V73.8906C374.016 74.0859 374.699 74.2344 375.379 74.3359C376.059 74.4375 376.734 74.4883 377.406 74.4883C378.383 74.4883 379.105 74.3555 379.574 74.0898C380.043 73.8242 380.277 73.4453 380.277 72.9531C380.277 72.7422 380.238 72.5547 380.16 72.3906C380.09 72.2188 379.957 72.0586 379.762 71.9102C379.566 71.7539 379.262 71.5938 378.848 71.4297C378.441 71.2656 377.883 71.0781 377.172 70.8672C376.641 70.7109 376.148 70.5352 375.695 70.3398C375.25 70.1367 374.863 69.8984 374.535 69.625C374.207 69.3516 373.949 69.0312 373.762 68.6641C373.574 68.2969 373.48 67.8633 373.48 67.3633C373.48 67.0352 373.555 66.6758 373.703 66.2852C373.859 65.8945 374.121 65.5312 374.488 65.1953C374.855 64.8594 375.352 64.582 375.977 64.3633C376.602 64.1367 377.383 64.0234 378.32 64.0234C378.781 64.0234 379.293 64.0508 379.855 64.1055C380.418 64.1523 381.004 64.2383 381.613 64.3633V66.1797C380.973 66.0234 380.363 65.9102 379.785 65.8398C379.215 65.7617 378.719 65.7227 378.297 65.7227C377.789 65.7227 377.359 65.7617 377.008 65.8398C376.664 65.918 376.383 66.0273 376.164 66.168C375.953 66.3008 375.801 66.4609 375.707 66.6484C375.613 66.8281 375.566 67.0234 375.566 67.2344C375.566 67.4453 375.605 67.6367 375.684 67.8086C375.77 67.9805 375.922 68.1484 376.141 68.3125C376.367 68.4688 376.68 68.6289 377.078 68.793C377.477 68.9492 377.996 69.1211 378.637 69.3086C379.332 69.5117 379.918 69.7266 380.395 69.9531C380.871 70.1719 381.258 70.418 381.555 70.6914C381.852 70.9648 382.062 71.2734 382.188 71.6172C382.32 71.9609 382.387 72.3516 382.387 72.7891ZM396.203 69.4961C396.203 69.7852 396.199 70.0273 396.191 70.2227C396.184 70.418 396.172 70.6016 396.156 70.7734H387.895C387.895 71.9766 388.23 72.9023 388.902 73.5508C389.574 74.1914 390.543 74.5117 391.809 74.5117C392.152 74.5117 392.496 74.5 392.84 74.4766C393.184 74.4453 393.516 74.4062 393.836 74.3594C394.156 74.3125 394.461 74.2617 394.75 74.207C395.047 74.1445 395.32 74.0781 395.57 74.0078V75.6836C395.016 75.8398 394.387 75.9648 393.684 76.0586C392.988 76.1602 392.266 76.2109 391.516 76.2109C390.508 76.2109 389.641 76.0742 388.914 75.8008C388.188 75.5273 387.59 75.1328 387.121 74.6172C386.66 74.0938 386.316 73.457 386.09 72.707C385.871 71.9492 385.762 71.0938 385.762 70.1406C385.762 69.3125 385.879 68.5312 386.113 67.7969C386.355 67.0547 386.703 66.4062 387.156 65.8516C387.617 65.2891 388.18 64.8438 388.844 64.5156C389.508 64.1875 390.262 64.0234 391.105 64.0234C391.926 64.0234 392.652 64.1523 393.285 64.4102C393.918 64.668 394.449 65.0352 394.879 65.5117C395.316 65.9805 395.645 66.5547 395.863 67.2344C396.09 67.9062 396.203 68.6602 396.203 69.4961ZM394.082 69.2031C394.105 68.6797 394.055 68.2031 393.93 67.7734C393.805 67.3359 393.609 66.9609 393.344 66.6484C393.086 66.3359 392.762 66.0938 392.371 65.9219C391.98 65.7422 391.527 65.6523 391.012 65.6523C390.566 65.6523 390.16 65.7383 389.793 65.9102C389.426 66.082 389.109 66.3242 388.844 66.6367C388.578 66.9492 388.363 67.3242 388.199 67.7617C388.035 68.1992 387.934 68.6797 387.895 69.2031H394.082ZM363.215 100H353.125V98.1719L357.086 94.2344C357.734 93.5938 358.262 93.0391 358.668 92.5703C359.074 92.1016 359.391 91.6758 359.617 91.293C359.844 90.9023 359.996 90.5352 360.074 90.1914C360.152 89.8477 360.191 89.4766 360.191 89.0781C360.191 88.7031 360.141 88.3477 360.039 88.0117C359.938 87.668 359.781 87.3672 359.57 87.1094C359.359 86.8516 359.086 86.6484 358.75 86.5C358.414 86.3516 358.012 86.2773 357.543 86.2773C356.895 86.2773 356.305 86.4219 355.773 86.7109C355.242 87 354.754 87.375 354.309 87.8359L353.184 86.4883C353.762 85.8789 354.426 85.3906 355.176 85.0234C355.934 84.6562 356.812 84.4727 357.812 84.4727C358.492 84.4727 359.109 84.5742 359.664 84.7773C360.227 84.9805 360.711 85.2734 361.117 85.6562C361.523 86.0391 361.836 86.5078 362.055 87.0625C362.281 87.6172 362.395 88.2422 362.395 88.9375C362.395 89.5234 362.316 90.0664 362.16 90.5664C362.004 91.0664 361.766 91.5664 361.445 92.0664C361.133 92.5586 360.734 93.0703 360.25 93.6016C359.773 94.1328 359.207 94.7148 358.551 95.3477L355.773 98.0547H363.215V100Z" fill="#FF5500"/>
<path d="M93.4297 59.5664C92.8984 59.7695 92.3516 59.918 91.7891 60.0117C91.2344 60.1133 90.6602 60.1641 90.0664 60.1641C88.207 60.1641 86.7734 59.6602 85.7656 58.6523C84.7656 57.6445 84.2656 56.1719 84.2656 54.2344C84.2656 53.3047 84.4102 52.4609 84.6992 51.7031C84.9883 50.9453 85.3945 50.2969 85.918 49.7578C86.4414 49.2188 87.0664 48.8047 87.793 48.5156C88.5195 48.2188 89.3203 48.0703 90.1953 48.0703C90.8047 48.0703 91.375 48.1133 91.9062 48.1992C92.4375 48.2852 92.9453 48.4258 93.4297 48.6211V50.5664C92.9219 50.3008 92.4023 50.1094 91.8711 49.9922C91.3477 49.8672 90.8047 49.8047 90.2422 49.8047C89.7188 49.8047 89.2227 49.9062 88.7539 50.1094C88.293 50.3047 87.8867 50.5898 87.5352 50.9648C87.1836 51.3398 86.9062 51.7969 86.7031 52.3359C86.5 52.875 86.3984 53.4844 86.3984 54.1641C86.3984 55.5859 86.7422 56.6523 87.4297 57.3633C88.125 58.0664 89.0859 58.418 90.3125 58.418C90.8672 58.418 91.4023 58.3555 91.918 58.2305C92.4414 58.1055 92.9453 57.918 93.4297 57.668V59.5664ZM106.941 60H104.902V52.4883C104.902 51.582 104.73 50.9062 104.387 50.4609C104.051 50.0078 103.566 49.7812 102.934 49.7812C102.66 49.7812 102.402 49.8203 102.16 49.8984C101.926 49.9688 101.68 50.0977 101.422 50.2852C101.164 50.4648 100.883 50.7109 100.578 51.0234C100.273 51.3359 99.9219 51.7266 99.5234 52.1953V60H97.4844V43.4414H99.5234V48.2344L99.4531 50.0859C99.7734 49.7031 100.086 49.3828 100.391 49.125C100.703 48.8594 101.012 48.6445 101.316 48.4805C101.629 48.3164 101.945 48.1992 102.266 48.1289C102.586 48.0586 102.918 48.0234 103.262 48.0234C104.434 48.0234 105.34 48.3828 105.98 49.1016C106.621 49.8125 106.941 50.8867 106.941 52.3242V60ZM120.922 54.0234C120.922 54.9375 120.793 55.7773 120.535 56.543C120.277 57.3008 119.906 57.9531 119.422 58.5C118.938 59.0391 118.348 59.4609 117.652 59.7656C116.957 60.0625 116.168 60.2109 115.285 60.2109C114.441 60.2109 113.684 60.082 113.012 59.8242C112.348 59.5586 111.781 59.1719 111.312 58.6641C110.852 58.1562 110.496 57.5273 110.246 56.7773C110.004 56.0273 109.883 55.1641 109.883 54.1875C109.883 53.2734 110.012 52.4414 110.27 51.6914C110.527 50.9336 110.898 50.2852 111.383 49.7461C111.867 49.1992 112.457 48.7773 113.152 48.4805C113.848 48.1758 114.637 48.0234 115.52 48.0234C116.363 48.0234 117.117 48.1562 117.781 48.4219C118.453 48.6797 119.02 49.0625 119.48 49.5703C119.949 50.0703 120.305 50.6953 120.547 51.4453C120.797 52.1953 120.922 53.0547 120.922 54.0234ZM118.836 54.1172C118.836 53.3906 118.754 52.7578 118.59 52.2188C118.434 51.6719 118.207 51.2188 117.91 50.8594C117.613 50.4922 117.25 50.2188 116.82 50.0391C116.398 49.8516 115.926 49.7578 115.402 49.7578C114.793 49.7578 114.27 49.8789 113.832 50.1211C113.402 50.3555 113.047 50.6719 112.766 51.0703C112.492 51.4688 112.289 51.9336 112.156 52.4648C112.031 52.9883 111.969 53.5391 111.969 54.1172C111.969 54.8438 112.047 55.4805 112.203 56.0273C112.367 56.5742 112.598 57.0312 112.895 57.3984C113.191 57.7578 113.551 58.0312 113.973 58.2188C114.395 58.3984 114.871 58.4883 115.402 58.4883C116.012 58.4883 116.531 58.3711 116.961 58.1367C117.398 57.8945 117.754 57.5742 118.027 57.1758C118.309 56.7773 118.512 56.3164 118.637 55.793C118.77 55.2617 118.836 54.7031 118.836 54.1172ZM134.117 54.0234C134.117 54.9375 133.988 55.7773 133.73 56.543C133.473 57.3008 133.102 57.9531 132.617 58.5C132.133 59.0391 131.543 59.4609 130.848 59.7656C130.152 60.0625 129.363 60.2109 128.48 60.2109C127.637 60.2109 126.879 60.082 126.207 59.8242C125.543 59.5586 124.977 59.1719 124.508 58.6641C124.047 58.1562 123.691 57.5273 123.441 56.7773C123.199 56.0273 123.078 55.1641 123.078 54.1875C123.078 53.2734 123.207 52.4414 123.465 51.6914C123.723 50.9336 124.094 50.2852 124.578 49.7461C125.062 49.1992 125.652 48.7773 126.348 48.4805C127.043 48.1758 127.832 48.0234 128.715 48.0234C129.559 48.0234 130.312 48.1562 130.977 48.4219C131.648 48.6797 132.215 49.0625 132.676 49.5703C133.145 50.0703 133.5 50.6953 133.742 51.4453C133.992 52.1953 134.117 53.0547 134.117 54.0234ZM132.031 54.1172C132.031 53.3906 131.949 52.7578 131.785 52.2188C131.629 51.6719 131.402 51.2188 131.105 50.8594C130.809 50.4922 130.445 50.2188 130.016 50.0391C129.594 49.8516 129.121 49.7578 128.598 49.7578C127.988 49.7578 127.465 49.8789 127.027 50.1211C126.598 50.3555 126.242 50.6719 125.961 51.0703C125.688 51.4688 125.484 51.9336 125.352 52.4648C125.227 52.9883 125.164 53.5391 125.164 54.1172C125.164 54.8438 125.242 55.4805 125.398 56.0273C125.562 56.5742 125.793 57.0312 126.09 57.3984C126.387 57.7578 126.746 58.0312 127.168 58.2188C127.59 58.3984 128.066 58.4883 128.598 58.4883C129.207 58.4883 129.727 58.3711 130.156 58.1367C130.594 57.8945 130.949 57.5742 131.223 57.1758C131.504 56.7773 131.707 56.3164 131.832 55.793C131.965 55.2617 132.031 54.7031 132.031 54.1172ZM146.387 56.7891C146.387 57.2031 146.316 57.5742 146.176 57.9023C146.035 58.2305 145.844 58.5234 145.602 58.7812C145.359 59.0312 145.078 59.2461 144.758 59.4258C144.438 59.6055 144.094 59.7539 143.727 59.8711C143.367 59.9883 142.996 60.0742 142.613 60.1289C142.23 60.1836 141.855 60.2109 141.488 60.2109C140.691 60.2109 139.957 60.1758 139.285 60.1055C138.621 60.0352 137.969 59.9219 137.328 59.7656V57.8906C138.016 58.0859 138.699 58.2344 139.379 58.3359C140.059 58.4375 140.734 58.4883 141.406 58.4883C142.383 58.4883 143.105 58.3555 143.574 58.0898C144.043 57.8242 144.277 57.4453 144.277 56.9531C144.277 56.7422 144.238 56.5547 144.16 56.3906C144.09 56.2188 143.957 56.0586 143.762 55.9102C143.566 55.7539 143.262 55.5938 142.848 55.4297C142.441 55.2656 141.883 55.0781 141.172 54.8672C140.641 54.7109 140.148 54.5352 139.695 54.3398C139.25 54.1367 138.863 53.8984 138.535 53.625C138.207 53.3516 137.949 53.0312 137.762 52.6641C137.574 52.2969 137.48 51.8633 137.48 51.3633C137.48 51.0352 137.555 50.6758 137.703 50.2852C137.859 49.8945 138.121 49.5312 138.488 49.1953C138.855 48.8594 139.352 48.582 139.977 48.3633C140.602 48.1367 141.383 48.0234 142.32 48.0234C142.781 48.0234 143.293 48.0508 143.855 48.1055C144.418 48.1523 145.004 48.2383 145.613 48.3633V50.1797C144.973 50.0234 144.363 49.9102 143.785 49.8398C143.215 49.7617 142.719 49.7227 142.297 49.7227C141.789 49.7227 141.359 49.7617 141.008 49.8398C140.664 49.918 140.383 50.0273 140.164 50.168C139.953 50.3008 139.801 50.4609 139.707 50.6484C139.613 50.8281 139.566 51.0234 139.566 51.2344C139.566 51.4453 139.605 51.6367 139.684 51.8086C139.77 51.9805 139.922 52.1484 140.141 52.3125C140.367 52.4688 140.68 52.6289 141.078 52.793C141.477 52.9492 141.996 53.1211 142.637 53.3086C143.332 53.5117 143.918 53.7266 144.395 53.9531C144.871 54.1719 145.258 54.418 145.555 54.6914C145.852 54.9648 146.062 55.2734 146.188 55.6172C146.32 55.9609 146.387 56.3516 146.387 56.7891ZM160.203 53.4961C160.203 53.7852 160.199 54.0273 160.191 54.2227C160.184 54.418 160.172 54.6016 160.156 54.7734H151.895C151.895 55.9766 152.23 56.9023 152.902 57.5508C153.574 58.1914 154.543 58.5117 155.809 58.5117C156.152 58.5117 156.496 58.5 156.84 58.4766C157.184 58.4453 157.516 58.4062 157.836 58.3594C158.156 58.3125 158.461 58.2617 158.75 58.207C159.047 58.1445 159.32 58.0781 159.57 58.0078V59.6836C159.016 59.8398 158.387 59.9648 157.684 60.0586C156.988 60.1602 156.266 60.2109 155.516 60.2109C154.508 60.2109 153.641 60.0742 152.914 59.8008C152.188 59.5273 151.59 59.1328 151.121 58.6172C150.66 58.0938 150.316 57.457 150.09 56.707C149.871 55.9492 149.762 55.0938 149.762 54.1406C149.762 53.3125 149.879 52.5312 150.113 51.7969C150.355 51.0547 150.703 50.4062 151.156 49.8516C151.617 49.2891 152.18 48.8438 152.844 48.5156C153.508 48.1875 154.262 48.0234 155.105 48.0234C155.926 48.0234 156.652 48.1523 157.285 48.4102C157.918 48.668 158.449 49.0352 158.879 49.5117C159.316 49.9805 159.645 50.5547 159.863 51.2344C160.09 51.9062 160.203 52.6602 160.203 53.4961ZM158.082 53.2031C158.105 52.6797 158.055 52.2031 157.93 51.7734C157.805 51.3359 157.609 50.9609 157.344 50.6484C157.086 50.3359 156.762 50.0938 156.371 49.9219C155.98 49.7422 155.527 49.6523 155.012 49.6523C154.566 49.6523 154.16 49.7383 153.793 49.9102C153.426 50.082 153.109 50.3242 152.844 50.6367C152.578 50.9492 152.363 51.3242 152.199 51.7617C152.035 52.1992 151.934 52.6797 151.895 53.2031H158.082ZM127.086 84H117.465V82.1016H121.402V70.9219L117.734 72.9141L116.984 71.1797L121.859 68.6133H123.664V82.1016H127.086V84Z" fill="#FF5500"/>
<path d="M477.43 59.5664C476.898 59.7695 476.352 59.918 475.789 60.0117C475.234 60.1133 474.66 60.1641 474.066 60.1641C472.207 60.1641 470.773 59.6602 469.766 58.6523C468.766 57.6445 468.266 56.1719 468.266 54.2344C468.266 53.3047 468.41 52.4609 468.699 51.7031C468.988 50.9453 469.395 50.2969 469.918 49.7578C470.441 49.2188 471.066 48.8047 471.793 48.5156C472.52 48.2188 473.32 48.0703 474.195 48.0703C474.805 48.0703 475.375 48.1133 475.906 48.1992C476.438 48.2852 476.945 48.4258 477.43 48.6211V50.5664C476.922 50.3008 476.402 50.1094 475.871 49.9922C475.348 49.8672 474.805 49.8047 474.242 49.8047C473.719 49.8047 473.223 49.9062 472.754 50.1094C472.293 50.3047 471.887 50.5898 471.535 50.9648C471.184 51.3398 470.906 51.7969 470.703 52.3359C470.5 52.875 470.398 53.4844 470.398 54.1641C470.398 55.5859 470.742 56.6523 471.43 57.3633C472.125 58.0664 473.086 58.418 474.312 58.418C474.867 58.418 475.402 58.3555 475.918 58.2305C476.441 58.1055 476.945 57.918 477.43 57.668V59.5664ZM490.941 60H488.902V52.4883C488.902 51.582 488.73 50.9062 488.387 50.4609C488.051 50.0078 487.566 49.7812 486.934 49.7812C486.66 49.7812 486.402 49.8203 486.16 49.8984C485.926 49.9688 485.68 50.0977 485.422 50.2852C485.164 50.4648 484.883 50.7109 484.578 51.0234C484.273 51.3359 483.922 51.7266 483.523 52.1953V60H481.484V43.4414H483.523V48.2344L483.453 50.0859C483.773 49.7031 484.086 49.3828 484.391 49.125C484.703 48.8594 485.012 48.6445 485.316 48.4805C485.629 48.3164 485.945 48.1992 486.266 48.1289C486.586 48.0586 486.918 48.0234 487.262 48.0234C488.434 48.0234 489.34 48.3828 489.98 49.1016C490.621 49.8125 490.941 50.8867 490.941 52.3242V60ZM504.922 54.0234C504.922 54.9375 504.793 55.7773 504.535 56.543C504.277 57.3008 503.906 57.9531 503.422 58.5C502.938 59.0391 502.348 59.4609 501.652 59.7656C500.957 60.0625 500.168 60.2109 499.285 60.2109C498.441 60.2109 497.684 60.082 497.012 59.8242C496.348 59.5586 495.781 59.1719 495.312 58.6641C494.852 58.1562 494.496 57.5273 494.246 56.7773C494.004 56.0273 493.883 55.1641 493.883 54.1875C493.883 53.2734 494.012 52.4414 494.27 51.6914C494.527 50.9336 494.898 50.2852 495.383 49.7461C495.867 49.1992 496.457 48.7773 497.152 48.4805C497.848 48.1758 498.637 48.0234 499.52 48.0234C500.363 48.0234 501.117 48.1562 501.781 48.4219C502.453 48.6797 503.02 49.0625 503.48 49.5703C503.949 50.0703 504.305 50.6953 504.547 51.4453C504.797 52.1953 504.922 53.0547 504.922 54.0234ZM502.836 54.1172C502.836 53.3906 502.754 52.7578 502.59 52.2188C502.434 51.6719 502.207 51.2188 501.91 50.8594C501.613 50.4922 501.25 50.2188 500.82 50.0391C500.398 49.8516 499.926 49.7578 499.402 49.7578C498.793 49.7578 498.27 49.8789 497.832 50.1211C497.402 50.3555 497.047 50.6719 496.766 51.0703C496.492 51.4688 496.289 51.9336 496.156 52.4648C496.031 52.9883 495.969 53.5391 495.969 54.1172C495.969 54.8438 496.047 55.4805 496.203 56.0273C496.367 56.5742 496.598 57.0312 496.895 57.3984C497.191 57.7578 497.551 58.0312 497.973 58.2188C498.395 58.3984 498.871 58.4883 499.402 58.4883C500.012 58.4883 500.531 58.3711 500.961 58.1367C501.398 57.8945 501.754 57.5742 502.027 57.1758C502.309 56.7773 502.512 56.3164 502.637 55.793C502.77 55.2617 502.836 54.7031 502.836 54.1172ZM518.117 54.0234C518.117 54.9375 517.988 55.7773 517.73 56.543C517.473 57.3008 517.102 57.9531 516.617 58.5C516.133 59.0391 515.543 59.4609 514.848 59.7656C514.152 60.0625 513.363 60.2109 512.48 60.2109C511.637 60.2109 510.879 60.082 510.207 59.8242C509.543 59.5586 508.977 59.1719 508.508 58.6641C508.047 58.1562 507.691 57.5273 507.441 56.7773C507.199 56.0273 507.078 55.1641 507.078 54.1875C507.078 53.2734 507.207 52.4414 507.465 51.6914C507.723 50.9336 508.094 50.2852 508.578 49.7461C509.062 49.1992 509.652 48.7773 510.348 48.4805C511.043 48.1758 511.832 48.0234 512.715 48.0234C513.559 48.0234 514.312 48.1562 514.977 48.4219C515.648 48.6797 516.215 49.0625 516.676 49.5703C517.145 50.0703 517.5 50.6953 517.742 51.4453C517.992 52.1953 518.117 53.0547 518.117 54.0234ZM516.031 54.1172C516.031 53.3906 515.949 52.7578 515.785 52.2188C515.629 51.6719 515.402 51.2188 515.105 50.8594C514.809 50.4922 514.445 50.2188 514.016 50.0391C513.594 49.8516 513.121 49.7578 512.598 49.7578C511.988 49.7578 511.465 49.8789 511.027 50.1211C510.598 50.3555 510.242 50.6719 509.961 51.0703C509.688 51.4688 509.484 51.9336 509.352 52.4648C509.227 52.9883 509.164 53.5391 509.164 54.1172C509.164 54.8438 509.242 55.4805 509.398 56.0273C509.562 56.5742 509.793 57.0312 510.09 57.3984C510.387 57.7578 510.746 58.0312 511.168 58.2188C511.59 58.3984 512.066 58.4883 512.598 58.4883C513.207 58.4883 513.727 58.3711 514.156 58.1367C514.594 57.8945 514.949 57.5742 515.223 57.1758C515.504 56.7773 515.707 56.3164 515.832 55.793C515.965 55.2617 516.031 54.7031 516.031 54.1172ZM530.387 56.7891C530.387 57.2031 530.316 57.5742 530.176 57.9023C530.035 58.2305 529.844 58.5234 529.602 58.7812C529.359 59.0312 529.078 59.2461 528.758 59.4258C528.438 59.6055 528.094 59.7539 527.727 59.8711C527.367 59.9883 526.996 60.0742 526.613 60.1289C526.23 60.1836 525.855 60.2109 525.488 60.2109C524.691 60.2109 523.957 60.1758 523.285 60.1055C522.621 60.0352 521.969 59.9219 521.328 59.7656V57.8906C522.016 58.0859 522.699 58.2344 523.379 58.3359C524.059 58.4375 524.734 58.4883 525.406 58.4883C526.383 58.4883 527.105 58.3555 527.574 58.0898C528.043 57.8242 528.277 57.4453 528.277 56.9531C528.277 56.7422 528.238 56.5547 528.16 56.3906C528.09 56.2188 527.957 56.0586 527.762 55.9102C527.566 55.7539 527.262 55.5938 526.848 55.4297C526.441 55.2656 525.883 55.0781 525.172 54.8672C524.641 54.7109 524.148 54.5352 523.695 54.3398C523.25 54.1367 522.863 53.8984 522.535 53.625C522.207 53.3516 521.949 53.0312 521.762 52.6641C521.574 52.2969 521.48 51.8633 521.48 51.3633C521.48 51.0352 521.555 50.6758 521.703 50.2852C521.859 49.8945 522.121 49.5312 522.488 49.1953C522.855 48.8594 523.352 48.582 523.977 48.3633C524.602 48.1367 525.383 48.0234 526.32 48.0234C526.781 48.0234 527.293 48.0508 527.855 48.1055C528.418 48.1523 529.004 48.2383 529.613 48.3633V50.1797C528.973 50.0234 528.363 49.9102 527.785 49.8398C527.215 49.7617 526.719 49.7227 526.297 49.7227C525.789 49.7227 525.359 49.7617 525.008 49.8398C524.664 49.918 524.383 50.0273 524.164 50.168C523.953 50.3008 523.801 50.4609 523.707 50.6484C523.613 50.8281 523.566 51.0234 523.566 51.2344C523.566 51.4453 523.605 51.6367 523.684 51.8086C523.77 51.9805 523.922 52.1484 524.141 52.3125C524.367 52.4688 524.68 52.6289 525.078 52.793C525.477 52.9492 525.996 53.1211 526.637 53.3086C527.332 53.5117 527.918 53.7266 528.395 53.9531C528.871 54.1719 529.258 54.418 529.555 54.6914C529.852 54.9648 530.062 55.2734 530.188 55.6172C530.32 55.9609 530.387 56.3516 530.387 56.7891ZM544.203 53.4961C544.203 53.7852 544.199 54.0273 544.191 54.2227C544.184 54.418 544.172 54.6016 544.156 54.7734H535.895C535.895 55.9766 536.23 56.9023 536.902 57.5508C537.574 58.1914 538.543 58.5117 539.809 58.5117C540.152 58.5117 540.496 58.5 540.84 58.4766C541.184 58.4453 541.516 58.4062 541.836 58.3594C542.156 58.3125 542.461 58.2617 542.75 58.207C543.047 58.1445 543.32 58.0781 543.57 58.0078V59.6836C543.016 59.8398 542.387 59.9648 541.684 60.0586C540.988 60.1602 540.266 60.2109 539.516 60.2109C538.508 60.2109 537.641 60.0742 536.914 59.8008C536.188 59.5273 535.59 59.1328 535.121 58.6172C534.66 58.0938 534.316 57.457 534.09 56.707C533.871 55.9492 533.762 55.0938 533.762 54.1406C533.762 53.3125 533.879 52.5312 534.113 51.7969C534.355 51.0547 534.703 50.4062 535.156 49.8516C535.617 49.2891 536.18 48.8438 536.844 48.5156C537.508 48.1875 538.262 48.0234 539.105 48.0234C539.926 48.0234 540.652 48.1523 541.285 48.4102C541.918 48.668 542.449 49.0352 542.879 49.5117C543.316 49.9805 543.645 50.5547 543.863 51.2344C544.09 51.9062 544.203 52.6602 544.203 53.4961ZM542.082 53.2031C542.105 52.6797 542.055 52.2031 541.93 51.7734C541.805 51.3359 541.609 50.9609 541.344 50.6484C541.086 50.3359 540.762 50.0938 540.371 49.9219C539.98 49.7422 539.527 49.6523 539.012 49.6523C538.566 49.6523 538.16 49.7383 537.793 49.9102C537.426 50.082 537.109 50.3242 536.844 50.6367C536.578 50.9492 536.363 51.3242 536.199 51.7617C536.035 52.1992 535.934 52.6797 535.895 53.2031H542.082ZM510.922 79.3477C510.922 80.0195 510.785 80.6523 510.512 81.2461C510.238 81.832 509.828 82.3477 509.281 82.793C508.734 83.2305 508.047 83.5781 507.219 83.8359C506.391 84.0859 505.426 84.2109 504.324 84.2109C503.715 84.2109 503.168 84.1914 502.684 84.1523C502.199 84.1133 501.746 84.0625 501.324 84V82.1719C501.809 82.2578 502.32 82.3242 502.859 82.3711C503.398 82.418 503.949 82.4414 504.512 82.4414C505.277 82.4414 505.93 82.375 506.469 82.2422C507.016 82.1016 507.461 81.9023 507.805 81.6445C508.148 81.3867 508.398 81.0742 508.555 80.707C508.711 80.3398 508.789 79.9258 508.789 79.4648C508.789 79.043 508.695 78.6758 508.508 78.3633C508.32 78.0508 508.055 77.7891 507.711 77.5781C507.375 77.3672 506.969 77.2109 506.492 77.1094C506.023 77 505.508 76.9453 504.945 76.9453H503.199V75.2695H504.969C505.43 75.2695 505.848 75.2109 506.223 75.0938C506.605 74.9688 506.93 74.793 507.195 74.5664C507.469 74.3398 507.676 74.0625 507.816 73.7344C507.965 73.3984 508.039 73.0195 508.039 72.5977C508.039 71.7773 507.789 71.1797 507.289 70.8047C506.789 70.4297 506.055 70.2422 505.086 70.2422C504.57 70.2422 504.039 70.293 503.492 70.3945C502.945 70.4961 502.359 70.6484 501.734 70.8516V69.0703C502 68.9766 502.281 68.8945 502.578 68.8242C502.883 68.7461 503.184 68.6836 503.48 68.6367C503.785 68.582 504.086 68.543 504.383 68.5195C504.68 68.4883 504.965 68.4727 505.238 68.4727C506.051 68.4727 506.766 68.5625 507.383 68.7422C508 68.9141 508.516 69.1641 508.93 69.4922C509.344 69.8203 509.656 70.2188 509.867 70.6875C510.078 71.1562 510.184 71.6836 510.184 72.2695C510.184 73.1445 509.957 73.8789 509.504 74.4727C509.059 75.0664 508.445 75.5391 507.664 75.8906C508.062 75.9531 508.453 76.0781 508.836 76.2656C509.227 76.4531 509.574 76.6953 509.879 76.9922C510.191 77.2812 510.441 77.625 510.629 78.0234C510.824 78.4219 510.922 78.8633 510.922 79.3477Z" fill="#FF5500"/>
<path d="M314.766 37.4639C315.299 37.3168 315.611 36.766 315.464 36.2337C315.317 35.7014 314.766 35.389 314.234 35.5361L314.766 37.4639ZM18.6301 117.507C18.3577 117.987 18.5263 118.597 19.0067 118.87L26.8356 123.309C27.316 123.582 27.9263 123.413 28.1987 122.933C28.4712 122.452 28.3026 121.842 27.8221 121.57L20.8631 117.623L24.8093 110.664C25.0818 110.184 24.9132 109.574 24.4327 109.301C23.9523 109.029 23.342 109.197 23.0696 109.678L18.6301 117.507ZM314.234 35.5361L19.2337 117.036L19.7663 118.964L314.766 37.4639L314.234 35.5361Z" fill="black"/>
<path d="M315.5 36.5C315.5 35.9477 315.052 35.5 314.5 35.5C313.948 35.5 313.5 35.9477 313.5 36.5H315.5ZM313.793 119.207C314.183 119.598 314.817 119.598 315.207 119.207L321.571 112.843C321.962 112.453 321.962 111.819 321.571 111.429C321.181 111.038 320.547 111.038 320.157 111.429L314.5 117.086L308.843 111.429C308.453 111.038 307.819 111.038 307.429 111.429C307.038 111.819 307.038 112.453 307.429 112.843L313.793 119.207ZM313.5 36.5V118.5H315.5V36.5H313.5Z" fill="black"/>
<path d="M597.534 156.006H590.312V128.789H597.534V130.84H592.744V153.955H597.534V156.006ZM616.152 144.185C616.152 145.024 615.981 145.815 615.64 146.558C615.298 147.29 614.785 147.935 614.102 148.491C613.418 149.038 612.559 149.473 611.523 149.795C610.488 150.107 609.282 150.264 607.905 150.264C607.144 150.264 606.46 150.239 605.854 150.19C605.249 150.142 604.683 150.078 604.155 150V147.715C604.761 147.822 605.4 147.905 606.074 147.964C606.748 148.022 607.437 148.052 608.14 148.052C609.097 148.052 609.912 147.969 610.586 147.803C611.27 147.627 611.826 147.378 612.256 147.056C612.686 146.733 612.998 146.343 613.193 145.884C613.389 145.425 613.486 144.907 613.486 144.331C613.486 143.804 613.369 143.345 613.135 142.954C612.9 142.563 612.568 142.236 612.139 141.973C611.719 141.709 611.211 141.514 610.615 141.387C610.029 141.25 609.385 141.182 608.682 141.182H606.499V139.087H608.711C609.287 139.087 609.81 139.014 610.278 138.867C610.757 138.711 611.162 138.491 611.494 138.208C611.836 137.925 612.095 137.578 612.271 137.168C612.456 136.748 612.549 136.274 612.549 135.747C612.549 134.722 612.236 133.975 611.611 133.506C610.986 133.037 610.068 132.803 608.857 132.803C608.213 132.803 607.549 132.866 606.865 132.993C606.182 133.12 605.449 133.311 604.668 133.564V131.338C605 131.221 605.352 131.118 605.723 131.03C606.104 130.933 606.479 130.854 606.851 130.796C607.231 130.728 607.607 130.679 607.979 130.649C608.35 130.61 608.706 130.591 609.048 130.591C610.063 130.591 610.957 130.703 611.729 130.928C612.5 131.143 613.145 131.455 613.662 131.865C614.18 132.275 614.57 132.773 614.834 133.359C615.098 133.945 615.229 134.604 615.229 135.337C615.229 136.431 614.946 137.349 614.38 138.091C613.823 138.833 613.057 139.424 612.08 139.863C612.578 139.941 613.066 140.098 613.545 140.332C614.033 140.566 614.468 140.869 614.849 141.24C615.239 141.602 615.552 142.031 615.786 142.529C616.03 143.027 616.152 143.579 616.152 144.185ZM629.688 156.006H622.466V153.955H627.227V130.84H622.466V128.789H629.688V156.006Z" fill="black"/>
<path d="M314.734 37.4639C314.201 37.3168 313.889 36.766 314.036 36.2337C314.183 35.7014 314.734 35.389 315.266 35.5361L314.734 37.4639ZM610.87 117.507C611.142 117.987 610.974 118.597 610.493 118.87L602.664 123.309C602.184 123.582 601.574 123.413 601.301 122.933C601.029 122.452 601.197 121.842 601.678 121.57L608.637 117.623L604.691 110.664C604.418 110.184 604.587 109.574 605.067 109.301C605.548 109.029 606.158 109.197 606.43 109.678L610.87 117.507ZM315.266 35.5361L610.266 117.036L609.734 118.964L314.734 37.4639L315.266 35.5361Z" fill="black"/>
</g>
<defs>
<clipPath id="clip0_6293_4685">
<rect width="630" height="156" fill="white"/>
</clipPath>
</defs>
</svg>
