<svg width="965" height="240" viewBox="0 0 965 240" fill="none" xmlns="http://www.w3.org/2000/svg">
<g clip-path="url(#clip0_6290_4785)">
<rect width="965" height="240" fill="white"/>
<path opacity="0.5" d="M118.013 16.9863C118.013 17.5039 117.925 17.9678 117.749 18.3779C117.573 18.7881 117.334 19.1543 117.031 19.4766C116.729 19.7891 116.377 20.0576 115.977 20.2822C115.576 20.5068 115.146 20.6924 114.688 20.8389C114.238 20.9854 113.774 21.0928 113.296 21.1611C112.817 21.2295 112.349 21.2637 111.89 21.2637C110.894 21.2637 109.976 21.2197 109.136 21.1318C108.306 21.0439 107.49 20.9023 106.689 20.707V18.3633C107.549 18.6074 108.403 18.793 109.253 18.9199C110.103 19.0469 110.947 19.1104 111.787 19.1104C113.008 19.1104 113.911 18.9443 114.497 18.6123C115.083 18.2803 115.376 17.8066 115.376 17.1914C115.376 16.9277 115.327 16.6934 115.229 16.4883C115.142 16.2734 114.976 16.0732 114.731 15.8877C114.487 15.6924 114.106 15.4922 113.589 15.2871C113.081 15.082 112.383 14.8477 111.494 14.584C110.83 14.3887 110.215 14.1689 109.648 13.9248C109.092 13.6709 108.608 13.373 108.198 13.0312C107.788 12.6895 107.466 12.2891 107.231 11.8301C106.997 11.3711 106.88 10.8291 106.88 10.2041C106.88 9.79395 106.973 9.34473 107.158 8.85645C107.354 8.36816 107.681 7.91406 108.14 7.49414C108.599 7.07422 109.219 6.72754 110 6.4541C110.781 6.1709 111.758 6.0293 112.93 6.0293C113.506 6.0293 114.146 6.06348 114.849 6.13184C115.552 6.19043 116.284 6.29785 117.046 6.4541V8.72461C116.245 8.5293 115.483 8.3877 114.761 8.2998C114.048 8.20215 113.428 8.15332 112.9 8.15332C112.266 8.15332 111.729 8.20215 111.289 8.2998C110.859 8.39746 110.508 8.53418 110.234 8.70996C109.971 8.87598 109.78 9.07617 109.663 9.31055C109.546 9.53516 109.487 9.7793 109.487 10.043C109.487 10.3066 109.536 10.5459 109.634 10.7607C109.741 10.9756 109.932 11.1855 110.205 11.3906C110.488 11.5859 110.879 11.7861 111.377 11.9912C111.875 12.1865 112.524 12.4014 113.325 12.6357C114.194 12.8896 114.927 13.1582 115.522 13.4414C116.118 13.7148 116.602 14.0225 116.973 14.3643C117.344 14.7061 117.607 15.0918 117.764 15.5215C117.93 15.9512 118.013 16.4395 118.013 16.9863ZM135.283 12.8701C135.283 13.2314 135.278 13.5342 135.269 13.7783C135.259 14.0225 135.244 14.252 135.225 14.4668H124.897C124.897 15.9707 125.317 17.1279 126.157 17.9385C126.997 18.7393 128.208 19.1396 129.79 19.1396C130.22 19.1396 130.649 19.125 131.079 19.0957C131.509 19.0566 131.924 19.0078 132.324 18.9492C132.725 18.8906 133.105 18.8271 133.467 18.7588C133.838 18.6807 134.18 18.5977 134.492 18.5098V20.6045C133.799 20.7998 133.013 20.9561 132.134 21.0732C131.265 21.2002 130.361 21.2637 129.424 21.2637C128.164 21.2637 127.08 21.0928 126.172 20.751C125.264 20.4092 124.517 19.916 123.931 19.2715C123.354 18.6172 122.925 17.8213 122.642 16.8838C122.368 15.9365 122.231 14.8672 122.231 13.6758C122.231 12.6406 122.378 11.6641 122.671 10.7461C122.974 9.81836 123.408 9.00781 123.975 8.31445C124.551 7.61133 125.254 7.05469 126.084 6.64453C126.914 6.23438 127.856 6.0293 128.911 6.0293C129.937 6.0293 130.845 6.19043 131.636 6.5127C132.427 6.83496 133.091 7.29395 133.628 7.88965C134.175 8.47559 134.585 9.19336 134.858 10.043C135.142 10.8828 135.283 11.8252 135.283 12.8701ZM132.632 12.5039C132.661 11.8496 132.598 11.2539 132.441 10.7168C132.285 10.1699 132.041 9.70117 131.709 9.31055C131.387 8.91992 130.981 8.61719 130.493 8.40234C130.005 8.17773 129.438 8.06543 128.794 8.06543C128.237 8.06543 127.729 8.17285 127.271 8.3877C126.812 8.60254 126.416 8.90527 126.084 9.2959C125.752 9.68652 125.483 10.1553 125.278 10.7021C125.073 11.249 124.946 11.8496 124.897 12.5039H132.632ZM150.781 20.458C150.117 20.7119 149.434 20.8975 148.73 21.0146C148.037 21.1416 147.319 21.2051 146.577 21.2051C144.253 21.2051 142.461 20.5752 141.201 19.3154C139.951 18.0557 139.326 16.2148 139.326 13.793C139.326 12.6309 139.507 11.5762 139.868 10.6289C140.229 9.68164 140.737 8.87109 141.392 8.19727C142.046 7.52344 142.827 7.00586 143.735 6.64453C144.644 6.27344 145.645 6.08789 146.738 6.08789C147.5 6.08789 148.213 6.1416 148.877 6.24902C149.541 6.35645 150.176 6.53223 150.781 6.77637V9.20801C150.146 8.87598 149.497 8.63672 148.833 8.49023C148.179 8.33398 147.5 8.25586 146.797 8.25586C146.143 8.25586 145.522 8.38281 144.937 8.63672C144.36 8.88086 143.853 9.2373 143.413 9.70605C142.974 10.1748 142.627 10.7461 142.373 11.4199C142.119 12.0938 141.992 12.8555 141.992 13.7051C141.992 15.4824 142.422 16.8154 143.281 17.7041C144.15 18.583 145.352 19.0225 146.885 19.0225C147.578 19.0225 148.247 18.9443 148.892 18.7881C149.546 18.6318 150.176 18.3975 150.781 18.085V20.458ZM168.652 13.5293C168.652 14.6719 168.491 15.7217 168.169 16.6787C167.847 17.626 167.383 18.4414 166.777 19.125C166.172 19.7988 165.435 20.3262 164.565 20.707C163.696 21.0781 162.71 21.2637 161.606 21.2637C160.552 21.2637 159.604 21.1025 158.765 20.7803C157.935 20.4482 157.227 19.9648 156.641 19.3301C156.064 18.6953 155.62 17.9092 155.308 16.9717C155.005 16.0342 154.854 14.9551 154.854 13.7344C154.854 12.5918 155.015 11.5518 155.337 10.6143C155.659 9.66699 156.123 8.85645 156.729 8.18262C157.334 7.49902 158.071 6.97168 158.94 6.60059C159.81 6.21973 160.796 6.0293 161.899 6.0293C162.954 6.0293 163.896 6.19531 164.727 6.52734C165.566 6.84961 166.274 7.32812 166.851 7.96289C167.437 8.58789 167.881 9.36914 168.184 10.3066C168.496 11.2441 168.652 12.3184 168.652 13.5293ZM166.045 13.6465C166.045 12.7383 165.942 11.9473 165.737 11.2734C165.542 10.5898 165.259 10.0234 164.888 9.57422C164.517 9.11523 164.062 8.77344 163.525 8.54883C162.998 8.31445 162.407 8.19727 161.753 8.19727C160.991 8.19727 160.337 8.34863 159.79 8.65137C159.253 8.94434 158.809 9.33984 158.457 9.83789C158.115 10.3359 157.861 10.917 157.695 11.5811C157.539 12.2354 157.461 12.9238 157.461 13.6465C157.461 14.5547 157.559 15.3506 157.754 16.0342C157.959 16.7178 158.247 17.2891 158.618 17.748C158.989 18.1973 159.438 18.5391 159.966 18.7734C160.493 18.998 161.089 19.1104 161.753 19.1104C162.515 19.1104 163.164 18.9639 163.701 18.6709C164.248 18.3682 164.692 17.9678 165.034 17.4697C165.386 16.9717 165.64 16.3955 165.796 15.7412C165.962 15.0771 166.045 14.3789 166.045 13.6465ZM172.344 6.29297H174.614L174.717 8.66602C175.146 8.1582 175.562 7.73828 175.962 7.40625C176.362 7.06445 176.753 6.79102 177.134 6.58594C177.524 6.38086 177.92 6.23926 178.32 6.16113C178.721 6.07324 179.136 6.0293 179.565 6.0293C181.079 6.0293 182.222 6.47852 182.993 7.37695C183.774 8.26562 184.165 9.6084 184.165 11.4053V21H181.616V11.6104C181.616 10.458 181.401 9.6084 180.972 9.06152C180.542 8.50488 179.902 8.22656 179.053 8.22656C178.74 8.22656 178.433 8.27539 178.13 8.37305C177.837 8.46094 177.529 8.62207 177.207 8.85645C176.885 9.08105 176.533 9.38867 176.152 9.7793C175.781 10.1699 175.361 10.6582 174.893 11.2441V21H172.344V6.29297ZM188.091 13.9541C188.091 12.7041 188.262 11.5957 188.604 10.6289C188.945 9.65234 189.429 8.83203 190.054 8.16797C190.688 7.49414 191.445 6.98633 192.324 6.64453C193.213 6.29297 194.199 6.11719 195.283 6.11719C195.752 6.11719 196.211 6.14648 196.66 6.20508C197.119 6.26367 197.568 6.35645 198.008 6.4834V0.301758H200.571V21H198.286L198.198 18.2168C197.485 19.252 196.714 20.0186 195.884 20.5166C195.054 21.0146 194.155 21.2637 193.188 21.2637C192.349 21.2637 191.606 21.0879 190.962 20.7363C190.327 20.3848 189.795 19.8916 189.365 19.2568C188.945 18.6123 188.628 17.8408 188.413 16.9424C188.198 16.0439 188.091 15.0479 188.091 13.9541ZM190.698 13.793C190.698 15.5703 190.957 16.8984 191.475 17.7773C192.002 18.6465 192.744 19.0811 193.701 19.0811C194.346 19.0811 195.024 18.793 195.737 18.2168C196.46 17.6406 197.217 16.7861 198.008 15.6533V8.82715C197.588 8.63184 197.124 8.48535 196.616 8.3877C196.108 8.28027 195.605 8.22656 195.107 8.22656C193.721 8.22656 192.637 8.67578 191.855 9.57422C191.084 10.4727 190.698 11.8789 190.698 13.793ZM234.248 21H221.636V18.7148L226.587 13.793C227.397 12.9922 228.057 12.2988 228.564 11.7129C229.072 11.127 229.468 10.5947 229.751 10.1162C230.034 9.62793 230.225 9.16895 230.322 8.73926C230.42 8.30957 230.469 7.8457 230.469 7.34766C230.469 6.87891 230.405 6.43457 230.278 6.01465C230.151 5.58496 229.956 5.20898 229.692 4.88672C229.429 4.56445 229.087 4.31055 228.667 4.125C228.247 3.93945 227.744 3.84668 227.158 3.84668C226.348 3.84668 225.61 4.02734 224.946 4.38867C224.282 4.75 223.672 5.21875 223.115 5.79492L221.709 4.11035C222.432 3.34863 223.262 2.73828 224.199 2.2793C225.146 1.82031 226.245 1.59082 227.495 1.59082C228.345 1.59082 229.116 1.71777 229.81 1.97168C230.513 2.22559 231.118 2.5918 231.626 3.07031C232.134 3.54883 232.524 4.13477 232.798 4.82812C233.081 5.52148 233.223 6.30273 233.223 7.17188C233.223 7.9043 233.125 8.58301 232.93 9.20801C232.734 9.83301 232.437 10.458 232.036 11.083C231.646 11.6982 231.147 12.3379 230.542 13.002C229.946 13.666 229.238 14.3936 228.418 15.1846L224.946 18.5684H234.248V21Z" fill="black"/>
<path opacity="0.5" d="M523.944 139.521C523.944 139.97 523.868 140.372 523.716 140.728C523.563 141.083 523.356 141.4 523.094 141.68C522.831 141.951 522.527 142.183 522.18 142.378C521.833 142.573 521.46 142.733 521.062 142.86C520.673 142.987 520.271 143.08 519.856 143.14C519.442 143.199 519.035 143.229 518.638 143.229C517.774 143.229 516.979 143.19 516.251 143.114C515.532 143.038 514.825 142.915 514.131 142.746V140.715C514.876 140.926 515.616 141.087 516.353 141.197C517.089 141.307 517.821 141.362 518.549 141.362C519.607 141.362 520.39 141.218 520.897 140.931C521.405 140.643 521.659 140.232 521.659 139.699C521.659 139.471 521.617 139.268 521.532 139.09C521.456 138.904 521.312 138.73 521.101 138.569C520.889 138.4 520.559 138.227 520.11 138.049C519.67 137.871 519.065 137.668 518.295 137.439C517.719 137.27 517.186 137.08 516.695 136.868C516.213 136.648 515.794 136.39 515.438 136.094C515.083 135.798 514.804 135.451 514.601 135.053C514.397 134.655 514.296 134.185 514.296 133.644C514.296 133.288 514.376 132.899 514.537 132.476C514.706 132.052 514.99 131.659 515.388 131.295C515.785 130.931 516.323 130.631 517 130.394C517.677 130.148 518.523 130.025 519.539 130.025C520.038 130.025 520.593 130.055 521.202 130.114C521.812 130.165 522.446 130.258 523.106 130.394V132.361C522.412 132.192 521.752 132.069 521.126 131.993C520.508 131.909 519.971 131.866 519.514 131.866C518.964 131.866 518.498 131.909 518.117 131.993C517.745 132.078 517.44 132.196 517.203 132.349C516.975 132.493 516.81 132.666 516.708 132.869C516.606 133.064 516.556 133.275 516.556 133.504C516.556 133.732 516.598 133.94 516.683 134.126C516.776 134.312 516.941 134.494 517.178 134.672C517.423 134.841 517.762 135.015 518.193 135.192C518.625 135.362 519.188 135.548 519.882 135.751C520.635 135.971 521.27 136.204 521.786 136.449C522.302 136.686 522.721 136.953 523.043 137.249C523.365 137.545 523.593 137.88 523.729 138.252C523.872 138.624 523.944 139.048 523.944 139.521ZM538.912 135.954C538.912 136.267 538.908 136.53 538.899 136.741C538.891 136.953 538.878 137.152 538.861 137.338H529.911C529.911 138.641 530.275 139.644 531.003 140.347C531.731 141.041 532.78 141.388 534.151 141.388C534.524 141.388 534.896 141.375 535.269 141.35C535.641 141.316 536.001 141.273 536.348 141.223C536.695 141.172 537.025 141.117 537.338 141.058C537.66 140.99 537.956 140.918 538.227 140.842V142.657C537.626 142.826 536.944 142.962 536.183 143.063C535.429 143.174 534.646 143.229 533.834 143.229C532.742 143.229 531.803 143.08 531.016 142.784C530.229 142.488 529.581 142.061 529.073 141.502C528.574 140.935 528.201 140.245 527.956 139.433C527.719 138.612 527.601 137.685 527.601 136.652C527.601 135.755 527.728 134.909 527.981 134.113C528.244 133.309 528.62 132.607 529.111 132.006C529.611 131.396 530.22 130.914 530.939 130.559C531.659 130.203 532.476 130.025 533.39 130.025C534.278 130.025 535.065 130.165 535.751 130.444C536.437 130.724 537.012 131.121 537.478 131.638C537.951 132.146 538.307 132.768 538.544 133.504C538.789 134.232 538.912 135.049 538.912 135.954ZM536.614 135.637C536.64 135.07 536.585 134.553 536.449 134.088C536.314 133.614 536.102 133.208 535.814 132.869C535.535 132.531 535.184 132.268 534.761 132.082C534.338 131.887 533.847 131.79 533.288 131.79C532.806 131.79 532.366 131.883 531.968 132.069C531.57 132.256 531.227 132.518 530.939 132.856C530.652 133.195 530.419 133.601 530.241 134.075C530.063 134.549 529.953 135.07 529.911 135.637H536.614ZM552.344 142.53C551.768 142.75 551.176 142.911 550.566 143.013C549.965 143.123 549.343 143.178 548.7 143.178C546.686 143.178 545.133 142.632 544.041 141.54C542.958 140.448 542.416 138.853 542.416 136.754C542.416 135.747 542.573 134.833 542.886 134.012C543.199 133.191 543.639 132.488 544.206 131.904C544.773 131.32 545.45 130.872 546.237 130.559C547.024 130.237 547.892 130.076 548.84 130.076C549.5 130.076 550.118 130.123 550.693 130.216C551.269 130.309 551.819 130.461 552.344 130.673V132.78C551.794 132.493 551.231 132.285 550.655 132.158C550.088 132.023 549.5 131.955 548.891 131.955C548.324 131.955 547.786 132.065 547.278 132.285C546.779 132.497 546.339 132.806 545.958 133.212C545.577 133.618 545.277 134.113 545.057 134.697C544.837 135.281 544.727 135.941 544.727 136.678C544.727 138.218 545.099 139.373 545.844 140.144C546.597 140.905 547.638 141.286 548.967 141.286C549.568 141.286 550.147 141.218 550.706 141.083C551.273 140.948 551.819 140.744 552.344 140.474V142.53ZM567.832 136.525C567.832 137.516 567.692 138.425 567.413 139.255C567.134 140.076 566.732 140.783 566.207 141.375C565.682 141.959 565.043 142.416 564.29 142.746C563.537 143.068 562.682 143.229 561.726 143.229C560.812 143.229 559.991 143.089 559.263 142.81C558.543 142.522 557.93 142.103 557.422 141.553C556.923 141.003 556.537 140.321 556.267 139.509C556.004 138.696 555.873 137.761 555.873 136.703C555.873 135.713 556.013 134.812 556.292 133.999C556.571 133.178 556.973 132.476 557.498 131.892C558.023 131.299 558.662 130.842 559.415 130.521C560.168 130.19 561.023 130.025 561.979 130.025C562.894 130.025 563.71 130.169 564.43 130.457C565.158 130.736 565.771 131.151 566.271 131.701C566.778 132.243 567.163 132.92 567.426 133.732C567.697 134.545 567.832 135.476 567.832 136.525ZM565.572 136.627C565.572 135.84 565.483 135.154 565.306 134.57C565.136 133.978 564.891 133.487 564.569 133.098C564.248 132.7 563.854 132.404 563.389 132.209C562.932 132.006 562.42 131.904 561.853 131.904C561.192 131.904 560.625 132.035 560.151 132.298C559.686 132.552 559.301 132.895 558.996 133.326C558.7 133.758 558.48 134.261 558.336 134.837C558.201 135.404 558.133 136.001 558.133 136.627C558.133 137.414 558.217 138.104 558.387 138.696C558.564 139.289 558.814 139.784 559.136 140.182C559.457 140.571 559.847 140.867 560.304 141.07C560.761 141.265 561.277 141.362 561.853 141.362C562.513 141.362 563.076 141.235 563.541 140.981C564.015 140.719 564.4 140.372 564.696 139.94C565.001 139.509 565.221 139.009 565.356 138.442C565.5 137.867 565.572 137.262 565.572 136.627ZM571.031 130.254H572.999L573.088 132.311C573.46 131.87 573.82 131.507 574.167 131.219C574.514 130.923 574.853 130.686 575.183 130.508C575.521 130.33 575.864 130.207 576.211 130.14C576.558 130.063 576.918 130.025 577.29 130.025C578.602 130.025 579.592 130.415 580.261 131.193C580.938 131.964 581.276 133.127 581.276 134.685V143H579.067V134.862C579.067 133.864 578.881 133.127 578.509 132.653C578.136 132.171 577.582 131.93 576.846 131.93C576.575 131.93 576.308 131.972 576.046 132.057C575.792 132.133 575.525 132.272 575.246 132.476C574.967 132.67 574.662 132.937 574.332 133.275C574.01 133.614 573.646 134.037 573.24 134.545V143H571.031V130.254ZM584.679 136.894C584.679 135.81 584.827 134.85 585.123 134.012C585.419 133.165 585.838 132.454 586.38 131.879C586.93 131.295 587.586 130.855 588.348 130.559C589.118 130.254 589.973 130.102 590.912 130.102C591.318 130.102 591.716 130.127 592.105 130.178C592.503 130.229 592.893 130.309 593.273 130.419V125.062H595.495V143H593.515L593.438 140.588C592.821 141.485 592.152 142.149 591.433 142.581C590.713 143.013 589.935 143.229 589.097 143.229C588.369 143.229 587.726 143.076 587.167 142.771C586.617 142.467 586.156 142.039 585.783 141.489C585.419 140.931 585.144 140.262 584.958 139.483C584.772 138.705 584.679 137.841 584.679 136.894ZM586.938 136.754C586.938 138.294 587.163 139.445 587.611 140.207C588.068 140.96 588.712 141.337 589.541 141.337C590.1 141.337 590.688 141.087 591.306 140.588C591.932 140.089 592.588 139.348 593.273 138.366V132.45C592.91 132.281 592.507 132.154 592.067 132.069C591.627 131.976 591.191 131.93 590.76 131.93C589.558 131.93 588.618 132.319 587.941 133.098C587.273 133.876 586.938 135.095 586.938 136.754ZM624.682 143H613.751V141.02L618.042 136.754C618.744 136.06 619.316 135.459 619.756 134.951C620.196 134.443 620.539 133.982 620.784 133.567C621.03 133.144 621.195 132.746 621.279 132.374C621.364 132.002 621.406 131.6 621.406 131.168C621.406 130.762 621.351 130.377 621.241 130.013C621.131 129.64 620.962 129.314 620.733 129.035C620.505 128.756 620.209 128.536 619.845 128.375C619.481 128.214 619.045 128.134 618.537 128.134C617.835 128.134 617.196 128.29 616.62 128.604C616.045 128.917 615.516 129.323 615.033 129.822L613.814 128.362C614.441 127.702 615.16 127.173 615.973 126.775C616.794 126.378 617.746 126.179 618.829 126.179C619.565 126.179 620.234 126.289 620.835 126.509C621.444 126.729 621.969 127.046 622.409 127.461C622.849 127.876 623.188 128.383 623.425 128.984C623.67 129.585 623.793 130.262 623.793 131.016C623.793 131.65 623.708 132.239 623.539 132.78C623.37 133.322 623.112 133.864 622.765 134.405C622.426 134.938 621.994 135.493 621.47 136.068C620.953 136.644 620.34 137.274 619.629 137.96L616.62 140.893H624.682V143Z" fill="black"/>
<path opacity="0.5" d="M789.944 20.5215C789.944 20.9701 789.868 21.3721 789.716 21.7275C789.563 22.083 789.356 22.4004 789.094 22.6797C788.831 22.9505 788.527 23.1833 788.18 23.3779C787.833 23.5726 787.46 23.7334 787.062 23.8604C786.673 23.9873 786.271 24.0804 785.856 24.1396C785.442 24.1989 785.035 24.2285 784.638 24.2285C783.774 24.2285 782.979 24.1904 782.251 24.1143C781.532 24.0381 780.825 23.9154 780.131 23.7461V21.7148C780.876 21.9264 781.616 22.0872 782.353 22.1973C783.089 22.3073 783.821 22.3623 784.549 22.3623C785.607 22.3623 786.39 22.2184 786.897 21.9307C787.405 21.6429 787.659 21.2324 787.659 20.6992C787.659 20.4707 787.617 20.2676 787.532 20.0898C787.456 19.9036 787.312 19.7301 787.101 19.5693C786.889 19.4001 786.559 19.2266 786.11 19.0488C785.67 18.8711 785.065 18.668 784.295 18.4395C783.719 18.2702 783.186 18.0798 782.695 17.8682C782.213 17.6481 781.794 17.39 781.438 17.0938C781.083 16.7975 780.804 16.4505 780.601 16.0527C780.397 15.6549 780.296 15.1852 780.296 14.6436C780.296 14.2881 780.376 13.8988 780.537 13.4756C780.706 13.0524 780.99 12.6589 781.388 12.2949C781.785 11.931 782.323 11.6305 783 11.3936C783.677 11.1481 784.523 11.0254 785.539 11.0254C786.038 11.0254 786.593 11.055 787.202 11.1143C787.812 11.165 788.446 11.2581 789.106 11.3936V13.3613C788.412 13.1921 787.752 13.0693 787.126 12.9932C786.508 12.9085 785.971 12.8662 785.514 12.8662C784.964 12.8662 784.498 12.9085 784.117 12.9932C783.745 13.0778 783.44 13.1963 783.203 13.3486C782.975 13.4925 782.81 13.666 782.708 13.8691C782.606 14.0638 782.556 14.2754 782.556 14.5039C782.556 14.7324 782.598 14.9398 782.683 15.126C782.776 15.3122 782.941 15.4941 783.178 15.6719C783.423 15.8411 783.762 16.0146 784.193 16.1924C784.625 16.3617 785.188 16.5479 785.882 16.751C786.635 16.971 787.27 17.2038 787.786 17.4492C788.302 17.6862 788.721 17.9528 789.043 18.249C789.365 18.5452 789.593 18.8796 789.729 19.252C789.872 19.6243 789.944 20.0475 789.944 20.5215ZM804.912 16.9541C804.912 17.2673 804.908 17.5296 804.899 17.7412C804.891 17.9528 804.878 18.1517 804.861 18.3379H795.911C795.911 19.6413 796.275 20.6442 797.003 21.3467C797.731 22.0407 798.78 22.3877 800.151 22.3877C800.524 22.3877 800.896 22.375 801.269 22.3496C801.641 22.3158 802.001 22.2734 802.348 22.2227C802.695 22.1719 803.025 22.1169 803.338 22.0576C803.66 21.9899 803.956 21.918 804.227 21.8418V23.6572C803.626 23.8265 802.944 23.9619 802.183 24.0635C801.429 24.1735 800.646 24.2285 799.834 24.2285C798.742 24.2285 797.803 24.0804 797.016 23.7842C796.229 23.488 795.581 23.0605 795.073 22.502C794.574 21.9349 794.201 21.2451 793.956 20.4326C793.719 19.6117 793.601 18.6849 793.601 17.6523C793.601 16.7552 793.728 15.9089 793.981 15.1133C794.244 14.3092 794.62 13.6068 795.111 13.0059C795.611 12.3965 796.22 11.9141 796.939 11.5586C797.659 11.2031 798.476 11.0254 799.39 11.0254C800.278 11.0254 801.065 11.165 801.751 11.4443C802.437 11.7236 803.012 12.1214 803.478 12.6377C803.951 13.1455 804.307 13.7676 804.544 14.5039C804.789 15.2318 804.912 16.0485 804.912 16.9541ZM802.614 16.6367C802.64 16.0697 802.585 15.5534 802.449 15.0879C802.314 14.6139 802.102 14.2077 801.814 13.8691C801.535 13.5306 801.184 13.2682 800.761 13.082C800.338 12.8874 799.847 12.79 799.288 12.79C798.806 12.79 798.366 12.8831 797.968 13.0693C797.57 13.2555 797.227 13.5179 796.939 13.8564C796.652 14.195 796.419 14.6012 796.241 15.0752C796.063 15.5492 795.953 16.0697 795.911 16.6367H802.614ZM818.344 23.5303C817.768 23.7503 817.176 23.9111 816.566 24.0127C815.965 24.1227 815.343 24.1777 814.7 24.1777C812.686 24.1777 811.133 23.6318 810.041 22.54C808.958 21.4482 808.416 19.8529 808.416 17.7539C808.416 16.7467 808.573 15.8327 808.886 15.0117C809.199 14.1908 809.639 13.4883 810.206 12.9043C810.773 12.3203 811.45 11.8717 812.237 11.5586C813.024 11.237 813.892 11.0762 814.84 11.0762C815.5 11.0762 816.118 11.1227 816.693 11.2158C817.269 11.3089 817.819 11.4613 818.344 11.6729V13.7803C817.794 13.4925 817.231 13.2852 816.655 13.1582C816.088 13.0228 815.5 12.9551 814.891 12.9551C814.324 12.9551 813.786 13.0651 813.278 13.2852C812.779 13.4967 812.339 13.8057 811.958 14.2119C811.577 14.6182 811.277 15.1133 811.057 15.6973C810.837 16.2812 810.727 16.9414 810.727 17.6777C810.727 19.2181 811.099 20.3734 811.844 21.1436C812.597 21.9053 813.638 22.2861 814.967 22.2861C815.568 22.2861 816.147 22.2184 816.706 22.083C817.273 21.9476 817.819 21.7445 818.344 21.4736V23.5303ZM833.832 17.5254C833.832 18.5156 833.692 19.4255 833.413 20.2549C833.134 21.0758 832.732 21.7826 832.207 22.375C831.682 22.959 831.043 23.416 830.29 23.7461C829.537 24.0677 828.682 24.2285 827.726 24.2285C826.812 24.2285 825.991 24.0889 825.263 23.8096C824.543 23.5218 823.93 23.1029 823.422 22.5527C822.923 22.0026 822.537 21.3213 822.267 20.5088C822.004 19.6963 821.873 18.7611 821.873 17.7031C821.873 16.7129 822.013 15.8115 822.292 14.999C822.571 14.1781 822.973 13.4756 823.498 12.8916C824.023 12.2992 824.662 11.8421 825.415 11.5205C826.168 11.1904 827.023 11.0254 827.979 11.0254C828.894 11.0254 829.71 11.1693 830.43 11.457C831.158 11.7363 831.771 12.151 832.271 12.7012C832.778 13.2428 833.163 13.9199 833.426 14.7324C833.697 15.5449 833.832 16.4759 833.832 17.5254ZM831.572 17.627C831.572 16.8398 831.483 16.1543 831.306 15.5703C831.136 14.9779 830.891 14.487 830.569 14.0977C830.248 13.6999 829.854 13.4036 829.389 13.209C828.932 13.0059 828.42 12.9043 827.853 12.9043C827.192 12.9043 826.625 13.0355 826.151 13.2979C825.686 13.5518 825.301 13.8945 824.996 14.3262C824.7 14.7578 824.48 15.2614 824.336 15.8369C824.201 16.404 824.133 17.0007 824.133 17.627C824.133 18.4141 824.217 19.1038 824.387 19.6963C824.564 20.2887 824.814 20.7839 825.136 21.1816C825.457 21.571 825.847 21.8672 826.304 22.0703C826.761 22.265 827.277 22.3623 827.853 22.3623C828.513 22.3623 829.076 22.2354 829.541 21.9814C830.015 21.7191 830.4 21.3721 830.696 20.9404C831.001 20.5088 831.221 20.0094 831.356 19.4424C831.5 18.8669 831.572 18.2617 831.572 17.627ZM837.031 11.2539H838.999L839.088 13.3105C839.46 12.8704 839.82 12.5065 840.167 12.2188C840.514 11.9225 840.853 11.6855 841.183 11.5078C841.521 11.3301 841.864 11.2074 842.211 11.1396C842.558 11.0635 842.918 11.0254 843.29 11.0254C844.602 11.0254 845.592 11.4147 846.261 12.1934C846.938 12.9635 847.276 14.1273 847.276 15.6846V24H845.067V15.8623C845.067 14.8636 844.881 14.1273 844.509 13.6533C844.136 13.1709 843.582 12.9297 842.846 12.9297C842.575 12.9297 842.308 12.972 842.046 13.0566C841.792 13.1328 841.525 13.2725 841.246 13.4756C840.967 13.6702 840.662 13.9368 840.332 14.2754C840.01 14.6139 839.646 15.0371 839.24 15.5449V24H837.031V11.2539ZM850.679 17.8936C850.679 16.8102 850.827 15.8496 851.123 15.0117C851.419 14.1654 851.838 13.4544 852.38 12.8789C852.93 12.2949 853.586 11.8548 854.348 11.5586C855.118 11.2539 855.973 11.1016 856.912 11.1016C857.318 11.1016 857.716 11.127 858.105 11.1777C858.503 11.2285 858.893 11.3089 859.273 11.4189V6.06152H861.495V24H859.515L859.438 21.5879C858.821 22.485 858.152 23.1494 857.433 23.5811C856.713 24.0127 855.935 24.2285 855.097 24.2285C854.369 24.2285 853.726 24.0762 853.167 23.7715C852.617 23.4668 852.156 23.0394 851.783 22.4893C851.419 21.9307 851.144 21.262 850.958 20.4834C850.772 19.7048 850.679 18.8415 850.679 17.8936ZM852.938 17.7539C852.938 19.2943 853.163 20.4453 853.611 21.207C854.068 21.9603 854.712 22.3369 855.541 22.3369C856.1 22.3369 856.688 22.0872 857.306 21.5879C857.932 21.0885 858.588 20.348 859.273 19.3662V13.4502C858.91 13.2809 858.507 13.154 858.067 13.0693C857.627 12.9762 857.191 12.9297 856.76 12.9297C855.558 12.9297 854.618 13.319 853.941 14.0977C853.273 14.8763 852.938 16.0951 852.938 17.7539ZM890.682 24H879.751V22.0195L884.042 17.7539C884.744 17.0599 885.316 16.459 885.756 15.9512C886.196 15.4434 886.539 14.9821 886.784 14.5674C887.03 14.1442 887.195 13.7464 887.279 13.374C887.364 13.0016 887.406 12.5996 887.406 12.168C887.406 11.7617 887.351 11.3766 887.241 11.0127C887.131 10.6403 886.962 10.3145 886.733 10.0352C886.505 9.75586 886.209 9.53581 885.845 9.375C885.481 9.21419 885.045 9.13379 884.537 9.13379C883.835 9.13379 883.196 9.29036 882.62 9.60352C882.045 9.91667 881.516 10.3229 881.033 10.8223L879.814 9.3623C880.441 8.70215 881.16 8.17318 881.973 7.77539C882.794 7.3776 883.746 7.17871 884.829 7.17871C885.565 7.17871 886.234 7.28874 886.835 7.50879C887.444 7.72884 887.969 8.04622 888.409 8.46094C888.849 8.87565 889.188 9.38346 889.425 9.98438C889.67 10.5853 889.793 11.2624 889.793 12.0156C889.793 12.6504 889.708 13.2386 889.539 13.7803C889.37 14.3219 889.112 14.8636 888.765 15.4053C888.426 15.9385 887.994 16.4928 887.47 17.0684C886.953 17.6439 886.34 18.2744 885.629 18.96L882.62 21.8926H890.682V24Z" fill="black"/>
<path opacity="0.5" d="M680.944 182.521C680.944 182.97 680.868 183.372 680.716 183.728C680.563 184.083 680.356 184.4 680.094 184.68C679.831 184.951 679.527 185.183 679.18 185.378C678.833 185.573 678.46 185.733 678.062 185.86C677.673 185.987 677.271 186.08 676.856 186.14C676.442 186.199 676.035 186.229 675.638 186.229C674.774 186.229 673.979 186.19 673.251 186.114C672.532 186.038 671.825 185.915 671.131 185.746V183.715C671.876 183.926 672.616 184.087 673.353 184.197C674.089 184.307 674.821 184.362 675.549 184.362C676.607 184.362 677.39 184.218 677.897 183.931C678.405 183.643 678.659 183.232 678.659 182.699C678.659 182.471 678.617 182.268 678.532 182.09C678.456 181.904 678.312 181.73 678.101 181.569C677.889 181.4 677.559 181.227 677.11 181.049C676.67 180.871 676.065 180.668 675.295 180.439C674.719 180.27 674.186 180.08 673.695 179.868C673.213 179.648 672.794 179.39 672.438 179.094C672.083 178.798 671.804 178.451 671.601 178.053C671.397 177.655 671.296 177.185 671.296 176.644C671.296 176.288 671.376 175.899 671.537 175.476C671.706 175.052 671.99 174.659 672.388 174.295C672.785 173.931 673.323 173.631 674 173.394C674.677 173.148 675.523 173.025 676.539 173.025C677.038 173.025 677.593 173.055 678.202 173.114C678.812 173.165 679.446 173.258 680.106 173.394V175.361C679.412 175.192 678.752 175.069 678.126 174.993C677.508 174.909 676.971 174.866 676.514 174.866C675.964 174.866 675.498 174.909 675.117 174.993C674.745 175.078 674.44 175.196 674.203 175.349C673.975 175.493 673.81 175.666 673.708 175.869C673.606 176.064 673.556 176.275 673.556 176.504C673.556 176.732 673.598 176.94 673.683 177.126C673.776 177.312 673.941 177.494 674.178 177.672C674.423 177.841 674.762 178.015 675.193 178.192C675.625 178.362 676.188 178.548 676.882 178.751C677.635 178.971 678.27 179.204 678.786 179.449C679.302 179.686 679.721 179.953 680.043 180.249C680.365 180.545 680.593 180.88 680.729 181.252C680.872 181.624 680.944 182.048 680.944 182.521ZM695.912 178.954C695.912 179.267 695.908 179.53 695.899 179.741C695.891 179.953 695.878 180.152 695.861 180.338H686.911C686.911 181.641 687.275 182.644 688.003 183.347C688.731 184.041 689.78 184.388 691.151 184.388C691.524 184.388 691.896 184.375 692.269 184.35C692.641 184.316 693.001 184.273 693.348 184.223C693.695 184.172 694.025 184.117 694.338 184.058C694.66 183.99 694.956 183.918 695.227 183.842V185.657C694.626 185.826 693.944 185.962 693.183 186.063C692.429 186.174 691.646 186.229 690.834 186.229C689.742 186.229 688.803 186.08 688.016 185.784C687.229 185.488 686.581 185.061 686.073 184.502C685.574 183.935 685.201 183.245 684.956 182.433C684.719 181.612 684.601 180.685 684.601 179.652C684.601 178.755 684.728 177.909 684.981 177.113C685.244 176.309 685.62 175.607 686.111 175.006C686.611 174.396 687.22 173.914 687.939 173.559C688.659 173.203 689.476 173.025 690.39 173.025C691.278 173.025 692.065 173.165 692.751 173.444C693.437 173.724 694.012 174.121 694.478 174.638C694.951 175.146 695.307 175.768 695.544 176.504C695.789 177.232 695.912 178.049 695.912 178.954ZM693.614 178.637C693.64 178.07 693.585 177.553 693.449 177.088C693.314 176.614 693.102 176.208 692.814 175.869C692.535 175.531 692.184 175.268 691.761 175.082C691.338 174.887 690.847 174.79 690.288 174.79C689.806 174.79 689.366 174.883 688.968 175.069C688.57 175.256 688.227 175.518 687.939 175.856C687.652 176.195 687.419 176.601 687.241 177.075C687.063 177.549 686.953 178.07 686.911 178.637H693.614ZM709.344 185.53C708.768 185.75 708.176 185.911 707.566 186.013C706.965 186.123 706.343 186.178 705.7 186.178C703.686 186.178 702.133 185.632 701.041 184.54C699.958 183.448 699.416 181.853 699.416 179.754C699.416 178.747 699.573 177.833 699.886 177.012C700.199 176.191 700.639 175.488 701.206 174.904C701.773 174.32 702.45 173.872 703.237 173.559C704.024 173.237 704.892 173.076 705.84 173.076C706.5 173.076 707.118 173.123 707.693 173.216C708.269 173.309 708.819 173.461 709.344 173.673V175.78C708.794 175.493 708.231 175.285 707.655 175.158C707.088 175.023 706.5 174.955 705.891 174.955C705.324 174.955 704.786 175.065 704.278 175.285C703.779 175.497 703.339 175.806 702.958 176.212C702.577 176.618 702.277 177.113 702.057 177.697C701.837 178.281 701.727 178.941 701.727 179.678C701.727 181.218 702.099 182.373 702.844 183.144C703.597 183.905 704.638 184.286 705.967 184.286C706.568 184.286 707.147 184.218 707.706 184.083C708.273 183.948 708.819 183.744 709.344 183.474V185.53ZM724.832 179.525C724.832 180.516 724.692 181.425 724.413 182.255C724.134 183.076 723.732 183.783 723.207 184.375C722.682 184.959 722.043 185.416 721.29 185.746C720.537 186.068 719.682 186.229 718.726 186.229C717.812 186.229 716.991 186.089 716.263 185.81C715.543 185.522 714.93 185.103 714.422 184.553C713.923 184.003 713.537 183.321 713.267 182.509C713.004 181.696 712.873 180.761 712.873 179.703C712.873 178.713 713.013 177.812 713.292 176.999C713.571 176.178 713.973 175.476 714.498 174.892C715.023 174.299 715.662 173.842 716.415 173.521C717.168 173.19 718.023 173.025 718.979 173.025C719.894 173.025 720.71 173.169 721.43 173.457C722.158 173.736 722.771 174.151 723.271 174.701C723.778 175.243 724.163 175.92 724.426 176.732C724.697 177.545 724.832 178.476 724.832 179.525ZM722.572 179.627C722.572 178.84 722.483 178.154 722.306 177.57C722.136 176.978 721.891 176.487 721.569 176.098C721.248 175.7 720.854 175.404 720.389 175.209C719.932 175.006 719.42 174.904 718.853 174.904C718.192 174.904 717.625 175.035 717.151 175.298C716.686 175.552 716.301 175.895 715.996 176.326C715.7 176.758 715.48 177.261 715.336 177.837C715.201 178.404 715.133 179.001 715.133 179.627C715.133 180.414 715.217 181.104 715.387 181.696C715.564 182.289 715.814 182.784 716.136 183.182C716.457 183.571 716.847 183.867 717.304 184.07C717.761 184.265 718.277 184.362 718.853 184.362C719.513 184.362 720.076 184.235 720.541 183.981C721.015 183.719 721.4 183.372 721.696 182.94C722.001 182.509 722.221 182.009 722.356 181.442C722.5 180.867 722.572 180.262 722.572 179.627ZM728.031 173.254H729.999L730.088 175.311C730.46 174.87 730.82 174.507 731.167 174.219C731.514 173.923 731.853 173.686 732.183 173.508C732.521 173.33 732.864 173.207 733.211 173.14C733.558 173.063 733.918 173.025 734.29 173.025C735.602 173.025 736.592 173.415 737.261 174.193C737.938 174.964 738.276 176.127 738.276 177.685V186H736.067V177.862C736.067 176.864 735.881 176.127 735.509 175.653C735.136 175.171 734.582 174.93 733.846 174.93C733.575 174.93 733.308 174.972 733.046 175.057C732.792 175.133 732.525 175.272 732.246 175.476C731.967 175.67 731.662 175.937 731.332 176.275C731.01 176.614 730.646 177.037 730.24 177.545V186H728.031V173.254ZM741.679 179.894C741.679 178.81 741.827 177.85 742.123 177.012C742.419 176.165 742.838 175.454 743.38 174.879C743.93 174.295 744.586 173.855 745.348 173.559C746.118 173.254 746.973 173.102 747.912 173.102C748.318 173.102 748.716 173.127 749.105 173.178C749.503 173.229 749.893 173.309 750.273 173.419V168.062H752.495V186H750.515L750.438 183.588C749.821 184.485 749.152 185.149 748.433 185.581C747.713 186.013 746.935 186.229 746.097 186.229C745.369 186.229 744.726 186.076 744.167 185.771C743.617 185.467 743.156 185.039 742.783 184.489C742.419 183.931 742.144 183.262 741.958 182.483C741.772 181.705 741.679 180.841 741.679 179.894ZM743.938 179.754C743.938 181.294 744.163 182.445 744.611 183.207C745.068 183.96 745.712 184.337 746.541 184.337C747.1 184.337 747.688 184.087 748.306 183.588C748.932 183.089 749.588 182.348 750.273 181.366V175.45C749.91 175.281 749.507 175.154 749.067 175.069C748.627 174.976 748.191 174.93 747.76 174.93C746.558 174.93 745.618 175.319 744.941 176.098C744.273 176.876 743.938 178.095 743.938 179.754ZM781.682 186H770.751V184.02L775.042 179.754C775.744 179.06 776.316 178.459 776.756 177.951C777.196 177.443 777.539 176.982 777.784 176.567C778.03 176.144 778.195 175.746 778.279 175.374C778.364 175.002 778.406 174.6 778.406 174.168C778.406 173.762 778.351 173.377 778.241 173.013C778.131 172.64 777.962 172.314 777.733 172.035C777.505 171.756 777.209 171.536 776.845 171.375C776.481 171.214 776.045 171.134 775.537 171.134C774.835 171.134 774.196 171.29 773.62 171.604C773.045 171.917 772.516 172.323 772.033 172.822L770.814 171.362C771.441 170.702 772.16 170.173 772.973 169.775C773.794 169.378 774.746 169.179 775.829 169.179C776.565 169.179 777.234 169.289 777.835 169.509C778.444 169.729 778.969 170.046 779.409 170.461C779.849 170.876 780.188 171.383 780.425 171.984C780.67 172.585 780.793 173.262 780.793 174.016C780.793 174.65 780.708 175.239 780.539 175.78C780.37 176.322 780.112 176.864 779.765 177.405C779.426 177.938 778.994 178.493 778.47 179.068C777.953 179.644 777.34 180.274 776.629 180.96L773.62 183.893H781.682V186Z" fill="black"/>
<path d="M3.91406 37.5C3.91406 34.4624 6.3765 32 9.41406 32H70.9141V99H3.91406V37.5Z" fill="white" stroke="#7A7A7A"/>
<rect x="70.9141" y="32" width="66" height="67" fill="white" stroke="#7A7A7A"/>
<rect x="70.9141" y="32" width="66" height="67" fill="white" stroke="#7A7A7A"/>
<rect x="136.914" y="32" width="66" height="67" fill="white" stroke="#7A7A7A"/>
<rect x="136.914" y="32" width="66" height="67" fill="white" stroke="#7A7A7A"/>
<path d="M43.2715 75.5H31.2451V73.127H36.167V59.1523L31.582 61.6426L30.6445 59.4746L36.7383 56.2666H38.9941V73.127H43.2715V75.5Z" fill="#999999"/>
<path d="M111.385 65.8467C111.385 67.4189 111.214 68.8252 110.872 70.0654C110.53 71.3057 110.027 72.3555 109.363 73.2148C108.709 74.0645 107.908 74.7139 106.961 75.1631C106.014 75.6123 104.93 75.8369 103.709 75.8369C102.654 75.8369 101.683 75.6514 100.794 75.2803C99.9053 74.9092 99.1387 74.3281 98.4941 73.5371C97.8496 72.7363 97.3467 71.7158 96.9854 70.4756C96.624 69.2354 96.4434 67.751 96.4434 66.0225C96.4434 64.4502 96.6143 63.0439 96.9561 61.8037C97.3076 60.5635 97.8105 59.5186 98.4648 58.6689C99.1191 57.8096 99.9248 57.1553 100.882 56.7061C101.839 56.2568 102.923 56.0322 104.134 56.0322C105.188 56.0322 106.16 56.2178 107.049 56.5889C107.938 56.96 108.699 57.541 109.334 58.332C109.979 59.123 110.481 60.1387 110.843 61.3789C111.204 62.6191 111.385 64.1084 111.385 65.8467ZM100.047 65.9053C100.047 66.1006 100.047 66.2861 100.047 66.4619C100.047 66.6279 100.057 66.7988 100.076 66.9746L107.254 61.7891C106.912 60.8223 106.458 60.1094 105.892 59.6504C105.335 59.1816 104.676 58.9473 103.914 58.9473C103.367 58.9473 102.859 59.0889 102.391 59.3721C101.922 59.6455 101.512 60.0703 101.16 60.6465C100.818 61.2227 100.545 61.9453 100.34 62.8145C100.145 63.6836 100.047 64.7139 100.047 65.9053ZM107.781 65.9639C107.781 65.7979 107.776 65.6318 107.767 65.4658C107.757 65.29 107.752 65.124 107.752 64.9678L100.618 70.124C100.931 71.0713 101.37 71.7744 101.937 72.2334C102.503 72.6924 103.162 72.9219 103.914 72.9219C104.461 72.9219 104.969 72.7803 105.438 72.4971C105.916 72.2139 106.326 71.7891 106.668 71.2227C107.02 70.6465 107.293 69.9238 107.488 69.0547C107.684 68.1758 107.781 67.1455 107.781 65.9639Z" fill="black"/>
<path d="M176.066 69.6846C176.066 70.5244 175.896 71.3154 175.554 72.0576C175.212 72.79 174.699 73.4346 174.016 73.9912C173.332 74.5381 172.473 74.9727 171.438 75.2949C170.402 75.6074 169.196 75.7637 167.819 75.7637C167.058 75.7637 166.374 75.7393 165.769 75.6904C165.163 75.6416 164.597 75.5781 164.069 75.5V73.2148C164.675 73.3223 165.314 73.4053 165.988 73.4639C166.662 73.5225 167.351 73.5518 168.054 73.5518C169.011 73.5518 169.826 73.4688 170.5 73.3027C171.184 73.127 171.74 72.8779 172.17 72.5557C172.6 72.2334 172.912 71.8428 173.107 71.3838C173.303 70.9248 173.4 70.4072 173.4 69.8311C173.4 69.3037 173.283 68.8447 173.049 68.4541C172.814 68.0635 172.482 67.7363 172.053 67.4727C171.633 67.209 171.125 67.0137 170.529 66.8867C169.943 66.75 169.299 66.6816 168.596 66.6816H166.413V64.5869H168.625C169.201 64.5869 169.724 64.5137 170.192 64.3672C170.671 64.2109 171.076 63.9912 171.408 63.708C171.75 63.4248 172.009 63.0781 172.185 62.668C172.37 62.248 172.463 61.7744 172.463 61.2471C172.463 60.2217 172.15 59.4746 171.525 59.0059C170.9 58.5371 169.982 58.3027 168.771 58.3027C168.127 58.3027 167.463 58.3662 166.779 58.4932C166.096 58.6201 165.363 58.8105 164.582 59.0645V56.8379C164.914 56.7207 165.266 56.6182 165.637 56.5303C166.018 56.4326 166.394 56.3545 166.765 56.2959C167.146 56.2275 167.521 56.1787 167.893 56.1494C168.264 56.1104 168.62 56.0908 168.962 56.0908C169.978 56.0908 170.871 56.2031 171.643 56.4277C172.414 56.6426 173.059 56.9551 173.576 57.3652C174.094 57.7754 174.484 58.2734 174.748 58.8594C175.012 59.4453 175.144 60.1045 175.144 60.8369C175.144 61.9307 174.86 62.8486 174.294 63.5908C173.737 64.333 172.971 64.9238 171.994 65.3633C172.492 65.4414 172.98 65.5977 173.459 65.832C173.947 66.0664 174.382 66.3691 174.763 66.7402C175.153 67.1016 175.466 67.5312 175.7 68.0293C175.944 68.5273 176.066 69.0791 176.066 69.6846Z" fill="#999999"/>
<rect x="3.91406" y="99" width="67" height="66" fill="white" stroke="#7A7A7A"/>
<rect x="70.9141" y="99" width="66" height="66" stroke="#7A7A7A"/>
<rect x="137" y="100" width="66" height="65" fill="#EDEDED" stroke="#7A7A7A"/>
<rect x="71" y="99" width="66" height="66" fill="#EDEDED" stroke="#7A7A7A"/>
<path d="M44.3848 133.847C44.3848 135.419 44.2139 136.825 43.8721 138.065C43.5303 139.306 43.0273 140.355 42.3633 141.215C41.709 142.064 40.9082 142.714 39.9609 143.163C39.0137 143.612 37.9297 143.837 36.709 143.837C35.6543 143.837 34.6826 143.651 33.7939 143.28C32.9053 142.909 32.1387 142.328 31.4941 141.537C30.8496 140.736 30.3467 139.716 29.9854 138.476C29.624 137.235 29.4434 135.751 29.4434 134.022C29.4434 132.45 29.6143 131.044 29.9561 129.804C30.3076 128.563 30.8105 127.519 31.4648 126.669C32.1191 125.81 32.9248 125.155 33.8818 124.706C34.8389 124.257 35.9229 124.032 37.1338 124.032C38.1885 124.032 39.1602 124.218 40.0488 124.589C40.9375 124.96 41.6992 125.541 42.334 126.332C42.9785 127.123 43.4814 128.139 43.8428 129.379C44.2041 130.619 44.3848 132.108 44.3848 133.847ZM33.0469 133.905C33.0469 134.101 33.0469 134.286 33.0469 134.462C33.0469 134.628 33.0566 134.799 33.0762 134.975L40.2539 129.789C39.9121 128.822 39.458 128.109 38.8916 127.65C38.335 127.182 37.6758 126.947 36.9141 126.947C36.3672 126.947 35.8594 127.089 35.3906 127.372C34.9219 127.646 34.5117 128.07 34.1602 128.646C33.8184 129.223 33.5449 129.945 33.3398 130.814C33.1445 131.684 33.0469 132.714 33.0469 133.905ZM40.7812 133.964C40.7812 133.798 40.7764 133.632 40.7666 133.466C40.7568 133.29 40.752 133.124 40.752 132.968L33.6182 138.124C33.9307 139.071 34.3701 139.774 34.9365 140.233C35.5029 140.692 36.1621 140.922 36.9141 140.922C37.4609 140.922 37.9688 140.78 38.4375 140.497C38.916 140.214 39.3262 139.789 39.668 139.223C40.0195 138.646 40.293 137.924 40.4883 137.055C40.6836 136.176 40.7812 135.146 40.7812 133.964Z" fill="black"/>
<path d="M110.872 133.935C110.872 135.399 110.726 136.737 110.433 137.948C110.14 139.149 109.695 140.185 109.1 141.054C108.504 141.913 107.762 142.582 106.873 143.061C105.994 143.529 104.959 143.764 103.768 143.764C102.742 143.764 101.81 143.573 100.97 143.192C100.13 142.802 99.4121 142.206 98.8164 141.405C98.2207 140.604 97.7617 139.584 97.4395 138.344C97.1172 137.104 96.9561 135.634 96.9561 133.935C96.9561 132.47 97.1025 131.132 97.3955 129.921C97.6982 128.71 98.1426 127.675 98.7285 126.815C99.3242 125.946 100.066 125.277 100.955 124.809C101.844 124.33 102.879 124.091 104.061 124.091C105.086 124.091 106.019 124.286 106.858 124.677C107.698 125.058 108.416 125.653 109.012 126.464C109.607 127.265 110.066 128.285 110.389 129.525C110.711 130.766 110.872 132.235 110.872 133.935ZM108.294 134.022C108.294 133.69 108.279 133.363 108.25 133.041C108.23 132.709 108.206 132.387 108.177 132.074L100.076 138.095C100.223 138.603 100.408 139.071 100.633 139.501C100.857 139.931 101.126 140.302 101.438 140.614C101.761 140.917 102.122 141.156 102.522 141.332C102.933 141.498 103.396 141.581 103.914 141.581C104.578 141.581 105.179 141.42 105.716 141.098C106.263 140.775 106.727 140.297 107.107 139.662C107.488 139.027 107.781 138.241 107.986 137.304C108.191 136.356 108.294 135.263 108.294 134.022ZM99.5342 133.847C99.5342 134.149 99.5342 134.452 99.5342 134.755C99.5439 135.058 99.5635 135.351 99.5928 135.634L107.693 129.643C107.547 129.145 107.361 128.69 107.137 128.28C106.912 127.87 106.644 127.519 106.331 127.226C106.019 126.923 105.662 126.688 105.262 126.522C104.861 126.356 104.412 126.273 103.914 126.273C103.25 126.273 102.645 126.435 102.098 126.757C101.561 127.079 101.102 127.562 100.721 128.207C100.34 128.842 100.047 129.633 99.8418 130.58C99.6367 131.518 99.5342 132.606 99.5342 133.847Z" fill="#999999"/>
<path d="M176.433 138.695C176.433 139.506 176.267 140.229 175.935 140.863C175.603 141.488 175.139 142.016 174.543 142.445C173.947 142.875 173.244 143.202 172.434 143.427C171.623 143.651 170.744 143.764 169.797 143.764C168.752 143.764 167.829 143.646 167.028 143.412C166.237 143.178 165.573 142.851 165.036 142.431C164.499 142.011 164.094 141.513 163.82 140.937C163.547 140.36 163.41 139.726 163.41 139.032C163.41 137.86 163.737 136.85 164.392 136C165.046 135.15 166.057 134.379 167.424 133.686C166.174 133.051 165.261 132.348 164.685 131.576C164.108 130.795 163.82 129.901 163.82 128.896C163.82 128.28 163.947 127.685 164.201 127.108C164.455 126.532 164.836 126.02 165.344 125.57C165.861 125.121 166.506 124.765 167.277 124.501C168.049 124.228 168.957 124.091 170.002 124.091C170.988 124.091 171.853 124.198 172.595 124.413C173.347 124.618 173.977 124.916 174.484 125.307C174.992 125.697 175.373 126.171 175.627 126.728C175.881 127.284 176.008 127.904 176.008 128.588C176.008 129.701 175.695 130.648 175.07 131.43C174.455 132.211 173.576 132.895 172.434 133.48C173 133.764 173.527 134.076 174.016 134.418C174.504 134.76 174.929 135.141 175.29 135.561C175.651 135.98 175.93 136.449 176.125 136.967C176.33 137.484 176.433 138.061 176.433 138.695ZM173.4 128.793C173.4 127.924 173.093 127.279 172.478 126.859C171.872 126.43 171.018 126.215 169.914 126.215C168.82 126.215 167.966 126.425 167.351 126.845C166.745 127.265 166.442 127.895 166.442 128.734C166.442 129.115 166.516 129.467 166.662 129.789C166.809 130.111 167.033 130.414 167.336 130.697C167.648 130.98 168.034 131.259 168.493 131.532C168.952 131.806 169.499 132.084 170.134 132.367C171.237 131.85 172.058 131.312 172.595 130.756C173.132 130.189 173.4 129.535 173.4 128.793ZM173.664 138.886C173.664 138.524 173.605 138.173 173.488 137.831C173.371 137.489 173.161 137.152 172.858 136.82C172.556 136.488 172.15 136.156 171.643 135.824C171.135 135.492 170.49 135.15 169.709 134.799C169.045 135.121 168.483 135.443 168.024 135.766C167.575 136.078 167.209 136.4 166.926 136.732C166.652 137.055 166.457 137.392 166.34 137.743C166.223 138.095 166.164 138.466 166.164 138.856C166.164 139.296 166.257 139.687 166.442 140.028C166.638 140.36 166.901 140.644 167.233 140.878C167.565 141.112 167.961 141.288 168.42 141.405C168.879 141.522 169.377 141.581 169.914 141.581C170.432 141.581 170.92 141.527 171.379 141.42C171.838 141.312 172.233 141.151 172.565 140.937C172.907 140.712 173.176 140.434 173.371 140.102C173.566 139.76 173.664 139.354 173.664 138.886Z" fill="#999999"/>
<rect x="3.91406" y="165" width="67" height="66" fill="white" stroke="#7A7A7A"/>
<rect x="70.9141" y="165" width="66" height="66" fill="#EDEDED" stroke="#7A7A7A"/>
<rect x="136.914" y="165" width="66" height="66" fill="#EDEDED" stroke="#7A7A7A"/>
<path d="M35.0244 208.5H22.998V206.127H27.9199V192.152L23.335 194.643L22.3975 192.475L28.4912 189.267H30.7471V206.127H35.0244V208.5ZM51.5186 208.5H39.4922V206.127H44.4141V192.152L39.8291 194.643L38.8916 192.475L44.9854 189.267H47.2412V206.127H51.5186V208.5Z" fill="#999999"/>
<path d="M102.024 208.5H89.998V206.127H94.9199V192.152L90.335 194.643L89.3975 192.475L95.4912 189.267H97.7471V206.127H102.024V208.5ZM118.68 208.5H106.067V206.215L111.019 201.293C111.829 200.492 112.488 199.799 112.996 199.213C113.504 198.627 113.899 198.095 114.183 197.616C114.466 197.128 114.656 196.669 114.754 196.239C114.852 195.81 114.9 195.346 114.9 194.848C114.9 194.379 114.837 193.935 114.71 193.515C114.583 193.085 114.388 192.709 114.124 192.387C113.86 192.064 113.519 191.811 113.099 191.625C112.679 191.439 112.176 191.347 111.59 191.347C110.779 191.347 110.042 191.527 109.378 191.889C108.714 192.25 108.104 192.719 107.547 193.295L106.141 191.61C106.863 190.849 107.693 190.238 108.631 189.779C109.578 189.32 110.677 189.091 111.927 189.091C112.776 189.091 113.548 189.218 114.241 189.472C114.944 189.726 115.55 190.092 116.058 190.57C116.565 191.049 116.956 191.635 117.229 192.328C117.513 193.021 117.654 193.803 117.654 194.672C117.654 195.404 117.557 196.083 117.361 196.708C117.166 197.333 116.868 197.958 116.468 198.583C116.077 199.198 115.579 199.838 114.974 200.502C114.378 201.166 113.67 201.894 112.85 202.685L109.378 206.068H118.68V208.5Z" fill="#999999"/>
<path d="M168.024 208.5H155.998V206.127H160.92V192.152L156.335 194.643L155.397 192.475L161.491 189.267H163.747V206.127H168.024V208.5ZM184.313 202.685C184.313 203.524 184.143 204.315 183.801 205.058C183.459 205.79 182.946 206.435 182.263 206.991C181.579 207.538 180.72 207.973 179.685 208.295C178.649 208.607 177.443 208.764 176.066 208.764C175.305 208.764 174.621 208.739 174.016 208.69C173.41 208.642 172.844 208.578 172.316 208.5V206.215C172.922 206.322 173.562 206.405 174.235 206.464C174.909 206.522 175.598 206.552 176.301 206.552C177.258 206.552 178.073 206.469 178.747 206.303C179.431 206.127 179.987 205.878 180.417 205.556C180.847 205.233 181.159 204.843 181.354 204.384C181.55 203.925 181.647 203.407 181.647 202.831C181.647 202.304 181.53 201.845 181.296 201.454C181.062 201.063 180.729 200.736 180.3 200.473C179.88 200.209 179.372 200.014 178.776 199.887C178.19 199.75 177.546 199.682 176.843 199.682H174.66V197.587H176.872C177.448 197.587 177.971 197.514 178.439 197.367C178.918 197.211 179.323 196.991 179.655 196.708C179.997 196.425 180.256 196.078 180.432 195.668C180.617 195.248 180.71 194.774 180.71 194.247C180.71 193.222 180.397 192.475 179.772 192.006C179.147 191.537 178.229 191.303 177.019 191.303C176.374 191.303 175.71 191.366 175.026 191.493C174.343 191.62 173.61 191.811 172.829 192.064V189.838C173.161 189.721 173.513 189.618 173.884 189.53C174.265 189.433 174.641 189.354 175.012 189.296C175.393 189.228 175.769 189.179 176.14 189.149C176.511 189.11 176.867 189.091 177.209 189.091C178.225 189.091 179.118 189.203 179.89 189.428C180.661 189.643 181.306 189.955 181.823 190.365C182.341 190.775 182.731 191.273 182.995 191.859C183.259 192.445 183.391 193.104 183.391 193.837C183.391 194.931 183.107 195.849 182.541 196.591C181.984 197.333 181.218 197.924 180.241 198.363C180.739 198.441 181.228 198.598 181.706 198.832C182.194 199.066 182.629 199.369 183.01 199.74C183.4 200.102 183.713 200.531 183.947 201.029C184.191 201.527 184.313 202.079 184.313 202.685Z" fill="#999999"/>
<rect x="2.5" y="30.5" width="334" height="202" rx="6.5" fill="white" stroke="black" stroke-width="5"/>
<path d="M136.5 165H202.5V231H136.5V165Z" fill="white" stroke="#7A7A7A"/>
<path d="M3.91406 37.5C3.91406 34.4624 6.3765 32 9.41406 32H70.9141V99H3.91406V37.5Z" fill="white" stroke="#7A7A7A"/>
<rect x="70.9141" y="32" width="66" height="67" fill="white" stroke="#7A7A7A"/>
<rect x="70.9141" y="32" width="66" height="67" fill="white" stroke="#7A7A7A"/>
<path d="M3.91406 37.5C3.91406 34.4624 6.3765 32 9.41406 32H70.9141V99H3.91406V37.5Z" fill="#FFE2D3" stroke="#7A7A7A"/>
<rect x="70.9141" y="32" width="66" height="67" fill="white" stroke="#7A7A7A"/>
<rect x="71" y="32" width="66" height="67" fill="#FFEFE7" stroke="#7A7A7A"/>
<path d="M137 32H202.5V99H137V32Z" fill="#FFE2D3" stroke="#7A7A7A"/>
<path d="M43.4326 76H30.8203V73.7148L35.7715 68.793C36.582 67.9922 37.2412 67.2988 37.749 66.7129C38.2568 66.127 38.6523 65.5947 38.9355 65.1162C39.2188 64.6279 39.4092 64.1689 39.5068 63.7393C39.6045 63.3096 39.6533 62.8457 39.6533 62.3477C39.6533 61.8789 39.5898 61.4346 39.4629 61.0146C39.3359 60.585 39.1406 60.209 38.877 59.8867C38.6133 59.5645 38.2715 59.3105 37.8516 59.125C37.4316 58.9395 36.9287 58.8467 36.3428 58.8467C35.5322 58.8467 34.7949 59.0273 34.1309 59.3887C33.4668 59.75 32.8564 60.2188 32.2998 60.7949L30.8936 59.1104C31.6162 58.3486 32.4463 57.7383 33.3838 57.2793C34.3311 56.8203 35.4297 56.5908 36.6797 56.5908C37.5293 56.5908 38.3008 56.7178 38.9941 56.9717C39.6973 57.2256 40.3027 57.5918 40.8105 58.0703C41.3184 58.5488 41.709 59.1348 41.9824 59.8281C42.2656 60.5215 42.4072 61.3027 42.4072 62.1719C42.4072 62.9043 42.3096 63.583 42.1143 64.208C41.9189 64.833 41.6211 65.458 41.2207 66.083C40.8301 66.6982 40.332 67.3379 39.7266 68.002C39.1309 68.666 38.4229 69.3936 37.6025 70.1846L34.1309 73.5684H43.4326V76Z" fill="black"/>
<path d="M110.433 76H97.8203V73.7148L102.771 68.793C103.582 67.9922 104.241 67.2988 104.749 66.7129C105.257 66.127 105.652 65.5947 105.936 65.1162C106.219 64.6279 106.409 64.1689 106.507 63.7393C106.604 63.3096 106.653 62.8457 106.653 62.3477C106.653 61.8789 106.59 61.4346 106.463 61.0146C106.336 60.585 106.141 60.209 105.877 59.8867C105.613 59.5645 105.271 59.3105 104.852 59.125C104.432 58.9395 103.929 58.8467 103.343 58.8467C102.532 58.8467 101.795 59.0273 101.131 59.3887C100.467 59.75 99.8564 60.2188 99.2998 60.7949L97.8936 59.1104C98.6162 58.3486 99.4463 57.7383 100.384 57.2793C101.331 56.8203 102.43 56.5908 103.68 56.5908C104.529 56.5908 105.301 56.7178 105.994 56.9717C106.697 57.2256 107.303 57.5918 107.811 58.0703C108.318 58.5488 108.709 59.1348 108.982 59.8281C109.266 60.5215 109.407 61.3027 109.407 62.1719C109.407 62.9043 109.31 63.583 109.114 64.208C108.919 64.833 108.621 65.458 108.221 66.083C107.83 66.6982 107.332 67.3379 106.727 68.002C106.131 68.666 105.423 69.3936 104.603 70.1846L101.131 73.5684H110.433V76Z" fill="black"/>
<path d="M176.433 76H163.82V73.7148L168.771 68.793C169.582 67.9922 170.241 67.2988 170.749 66.7129C171.257 66.127 171.652 65.5947 171.936 65.1162C172.219 64.6279 172.409 64.1689 172.507 63.7393C172.604 63.3096 172.653 62.8457 172.653 62.3477C172.653 61.8789 172.59 61.4346 172.463 61.0146C172.336 60.585 172.141 60.209 171.877 59.8867C171.613 59.5645 171.271 59.3105 170.852 59.125C170.432 58.9395 169.929 58.8467 169.343 58.8467C168.532 58.8467 167.795 59.0273 167.131 59.3887C166.467 59.75 165.856 60.2188 165.3 60.7949L163.894 59.1104C164.616 58.3486 165.446 57.7383 166.384 57.2793C167.331 56.8203 168.43 56.5908 169.68 56.5908C170.529 56.5908 171.301 56.7178 171.994 56.9717C172.697 57.2256 173.303 57.5918 173.811 58.0703C174.318 58.5488 174.709 59.1348 174.982 59.8281C175.266 60.5215 175.407 61.3027 175.407 62.1719C175.407 62.9043 175.31 63.583 175.114 64.208C174.919 64.833 174.621 65.458 174.221 66.083C173.83 66.6982 173.332 67.3379 172.727 68.002C172.131 68.666 171.423 69.3936 170.603 70.1846L167.131 73.5684H176.433V76Z" fill="black"/>
<rect x="3.91406" y="99" width="67" height="66" fill="#FFD0B8" stroke="#7A7A7A"/>
<rect x="70.9141" y="99" width="66" height="66" stroke="#7A7A7A"/>
<rect x="136.5" y="99" width="66" height="66" fill="white" stroke="#7A7A7A"/>
<rect x="71" y="99" width="66" height="66" fill="white" stroke="#7A7A7A"/>
<path d="M43.4326 143.5H30.8203V141.215L35.7715 136.293C36.582 135.492 37.2412 134.799 37.749 134.213C38.2568 133.627 38.6523 133.095 38.9355 132.616C39.2188 132.128 39.4092 131.669 39.5068 131.239C39.6045 130.81 39.6533 130.346 39.6533 129.848C39.6533 129.379 39.5898 128.935 39.4629 128.515C39.3359 128.085 39.1406 127.709 38.877 127.387C38.6133 127.064 38.2715 126.811 37.8516 126.625C37.4316 126.439 36.9287 126.347 36.3428 126.347C35.5322 126.347 34.7949 126.527 34.1309 126.889C33.4668 127.25 32.8564 127.719 32.2998 128.295L30.8936 126.61C31.6162 125.849 32.4463 125.238 33.3838 124.779C34.3311 124.32 35.4297 124.091 36.6797 124.091C37.5293 124.091 38.3008 124.218 38.9941 124.472C39.6973 124.726 40.3027 125.092 40.8105 125.57C41.3184 126.049 41.709 126.635 41.9824 127.328C42.2656 128.021 42.4072 128.803 42.4072 129.672C42.4072 130.404 42.3096 131.083 42.1143 131.708C41.9189 132.333 41.6211 132.958 41.2207 133.583C40.8301 134.198 40.332 134.838 39.7266 135.502C39.1309 136.166 38.4229 136.894 37.6025 137.685L34.1309 141.068H43.4326V143.5Z" fill="black"/>
<path d="M110.872 133.935C110.872 135.399 110.726 136.737 110.433 137.948C110.14 139.149 109.695 140.185 109.1 141.054C108.504 141.913 107.762 142.582 106.873 143.061C105.994 143.529 104.959 143.764 103.768 143.764C102.742 143.764 101.81 143.573 100.97 143.192C100.13 142.802 99.4121 142.206 98.8164 141.405C98.2207 140.604 97.7617 139.584 97.4395 138.344C97.1172 137.104 96.9561 135.634 96.9561 133.935C96.9561 132.47 97.1025 131.132 97.3955 129.921C97.6982 128.71 98.1426 127.675 98.7285 126.815C99.3242 125.946 100.066 125.277 100.955 124.809C101.844 124.33 102.879 124.091 104.061 124.091C105.086 124.091 106.019 124.286 106.858 124.677C107.698 125.058 108.416 125.653 109.012 126.464C109.607 127.265 110.066 128.285 110.389 129.525C110.711 130.766 110.872 132.235 110.872 133.935ZM108.294 134.022C108.294 133.69 108.279 133.363 108.25 133.041C108.23 132.709 108.206 132.387 108.177 132.074L100.076 138.095C100.223 138.603 100.408 139.071 100.633 139.501C100.857 139.931 101.126 140.302 101.438 140.614C101.761 140.917 102.122 141.156 102.522 141.332C102.933 141.498 103.396 141.581 103.914 141.581C104.578 141.581 105.179 141.42 105.716 141.098C106.263 140.775 106.727 140.297 107.107 139.662C107.488 139.027 107.781 138.241 107.986 137.304C108.191 136.356 108.294 135.263 108.294 134.022ZM99.5342 133.847C99.5342 134.149 99.5342 134.452 99.5342 134.755C99.5439 135.058 99.5635 135.351 99.5928 135.634L107.693 129.643C107.547 129.145 107.361 128.69 107.137 128.28C106.912 127.87 106.644 127.519 106.331 127.226C106.019 126.923 105.662 126.688 105.262 126.522C104.861 126.356 104.412 126.273 103.914 126.273C103.25 126.273 102.645 126.435 102.098 126.757C101.561 127.079 101.102 127.562 100.721 128.207C100.34 128.842 100.047 129.633 99.8418 130.58C99.6367 131.518 99.5342 132.606 99.5342 133.847Z" fill="#999999"/>
<path d="M176.872 133.935C176.872 135.399 176.726 136.737 176.433 137.948C176.14 139.149 175.695 140.185 175.1 141.054C174.504 141.913 173.762 142.582 172.873 143.061C171.994 143.529 170.959 143.764 169.768 143.764C168.742 143.764 167.81 143.573 166.97 143.192C166.13 142.802 165.412 142.206 164.816 141.405C164.221 140.604 163.762 139.584 163.439 138.344C163.117 137.104 162.956 135.634 162.956 133.935C162.956 132.47 163.103 131.132 163.396 129.921C163.698 128.71 164.143 127.675 164.729 126.815C165.324 125.946 166.066 125.277 166.955 124.809C167.844 124.33 168.879 124.091 170.061 124.091C171.086 124.091 172.019 124.286 172.858 124.677C173.698 125.058 174.416 125.653 175.012 126.464C175.607 127.265 176.066 128.285 176.389 129.525C176.711 130.766 176.872 132.235 176.872 133.935ZM174.294 134.022C174.294 133.69 174.279 133.363 174.25 133.041C174.23 132.709 174.206 132.387 174.177 132.074L166.076 138.095C166.223 138.603 166.408 139.071 166.633 139.501C166.857 139.931 167.126 140.302 167.438 140.614C167.761 140.917 168.122 141.156 168.522 141.332C168.933 141.498 169.396 141.581 169.914 141.581C170.578 141.581 171.179 141.42 171.716 141.098C172.263 140.775 172.727 140.297 173.107 139.662C173.488 139.027 173.781 138.241 173.986 137.304C174.191 136.356 174.294 135.263 174.294 134.022ZM165.534 133.847C165.534 134.149 165.534 134.452 165.534 134.755C165.544 135.058 165.563 135.351 165.593 135.634L173.693 129.643C173.547 129.145 173.361 128.69 173.137 128.28C172.912 127.87 172.644 127.519 172.331 127.226C172.019 126.923 171.662 126.688 171.262 126.522C170.861 126.356 170.412 126.273 169.914 126.273C169.25 126.273 168.645 126.435 168.098 126.757C167.561 127.079 167.102 127.562 166.721 128.207C166.34 128.842 166.047 129.633 165.842 130.58C165.637 131.518 165.534 132.606 165.534 133.847Z" fill="#999999"/>
<path d="M3.91406 165H70.9141V231H9.41406C6.3765 231 3.91406 228.538 3.91406 225.5V165Z" fill="#FFE2D3" stroke="#7A7A7A"/>
<rect x="70.9141" y="165" width="66" height="66" fill="#FFEFE7" stroke="#7A7A7A"/>
<path d="M43.4326 208.5H30.8203V206.215L35.7715 201.293C36.582 200.492 37.2412 199.799 37.749 199.213C38.2568 198.627 38.6523 198.095 38.9355 197.616C39.2188 197.128 39.4092 196.669 39.5068 196.239C39.6045 195.81 39.6533 195.346 39.6533 194.848C39.6533 194.379 39.5898 193.935 39.4629 193.515C39.3359 193.085 39.1406 192.709 38.877 192.387C38.6133 192.064 38.2715 191.811 37.8516 191.625C37.4316 191.439 36.9287 191.347 36.3428 191.347C35.5322 191.347 34.7949 191.527 34.1309 191.889C33.4668 192.25 32.8564 192.719 32.2998 193.295L30.8936 191.61C31.6162 190.849 32.4463 190.238 33.3838 189.779C34.3311 189.32 35.4297 189.091 36.6797 189.091C37.5293 189.091 38.3008 189.218 38.9941 189.472C39.6973 189.726 40.3027 190.092 40.8105 190.57C41.3184 191.049 41.709 191.635 41.9824 192.328C42.2656 193.021 42.4072 193.803 42.4072 194.672C42.4072 195.404 42.3096 196.083 42.1143 196.708C41.9189 197.333 41.6211 197.958 41.2207 198.583C40.8301 199.198 40.332 199.838 39.7266 200.502C39.1309 201.166 38.4229 201.894 37.6025 202.685L34.1309 206.068H43.4326V208.5Z" fill="black"/>
<path d="M110.433 208.5H97.8203V206.215L102.771 201.293C103.582 200.492 104.241 199.799 104.749 199.213C105.257 198.627 105.652 198.095 105.936 197.616C106.219 197.128 106.409 196.669 106.507 196.239C106.604 195.81 106.653 195.346 106.653 194.848C106.653 194.379 106.59 193.935 106.463 193.515C106.336 193.085 106.141 192.709 105.877 192.387C105.613 192.064 105.271 191.811 104.852 191.625C104.432 191.439 103.929 191.347 103.343 191.347C102.532 191.347 101.795 191.527 101.131 191.889C100.467 192.25 99.8564 192.719 99.2998 193.295L97.8936 191.61C98.6162 190.849 99.4463 190.238 100.384 189.779C101.331 189.32 102.43 189.091 103.68 189.091C104.529 189.091 105.301 189.218 105.994 189.472C106.697 189.726 107.303 190.092 107.811 190.57C108.318 191.049 108.709 191.635 108.982 192.328C109.266 193.021 109.407 193.803 109.407 194.672C109.407 195.404 109.31 196.083 109.114 196.708C108.919 197.333 108.621 197.958 108.221 198.583C107.83 199.198 107.332 199.838 106.727 200.502C106.131 201.166 105.423 201.894 104.603 202.685L101.131 206.068H110.433V208.5Z" fill="black"/>
<path d="M176.872 198.935C176.872 200.399 176.726 201.737 176.433 202.948C176.14 204.149 175.695 205.185 175.1 206.054C174.504 206.913 173.762 207.582 172.873 208.061C171.994 208.529 170.959 208.764 169.768 208.764C168.742 208.764 167.81 208.573 166.97 208.192C166.13 207.802 165.412 207.206 164.816 206.405C164.221 205.604 163.762 204.584 163.439 203.344C163.117 202.104 162.956 200.634 162.956 198.935C162.956 197.47 163.103 196.132 163.396 194.921C163.698 193.71 164.143 192.675 164.729 191.815C165.324 190.946 166.066 190.277 166.955 189.809C167.844 189.33 168.879 189.091 170.061 189.091C171.086 189.091 172.019 189.286 172.858 189.677C173.698 190.058 174.416 190.653 175.012 191.464C175.607 192.265 176.066 193.285 176.389 194.525C176.711 195.766 176.872 197.235 176.872 198.935ZM174.294 199.022C174.294 198.69 174.279 198.363 174.25 198.041C174.23 197.709 174.206 197.387 174.177 197.074L166.076 203.095C166.223 203.603 166.408 204.071 166.633 204.501C166.857 204.931 167.126 205.302 167.438 205.614C167.761 205.917 168.122 206.156 168.522 206.332C168.933 206.498 169.396 206.581 169.914 206.581C170.578 206.581 171.179 206.42 171.716 206.098C172.263 205.775 172.727 205.297 173.107 204.662C173.488 204.027 173.781 203.241 173.986 202.304C174.191 201.356 174.294 200.263 174.294 199.022ZM165.534 198.847C165.534 199.149 165.534 199.452 165.534 199.755C165.544 200.058 165.563 200.351 165.593 200.634L173.693 194.643C173.547 194.145 173.361 193.69 173.137 193.28C172.912 192.87 172.644 192.519 172.331 192.226C172.019 191.923 171.662 191.688 171.262 191.522C170.861 191.356 170.412 191.273 169.914 191.273C169.25 191.273 168.645 191.435 168.098 191.757C167.561 192.079 167.102 192.562 166.721 193.207C166.34 193.842 166.047 194.633 165.842 195.58C165.637 196.518 165.534 197.606 165.534 198.847Z" fill="#999999"/>
<path d="M202.5 165H268.5V231H202.5V165Z" fill="white" stroke="#7A7A7A"/>
<path d="M202.5 31.5H268.5V99.5H202.5V31.5Z" fill="white" stroke="#7A7A7A"/>
<path d="M242.872 65.9346C242.872 67.3994 242.726 68.7373 242.433 69.9482C242.14 71.1494 241.695 72.1846 241.1 73.0537C240.504 73.9131 239.762 74.582 238.873 75.0605C237.994 75.5293 236.959 75.7637 235.768 75.7637C234.742 75.7637 233.81 75.5732 232.97 75.1924C232.13 74.8018 231.412 74.2061 230.816 73.4053C230.221 72.6045 229.762 71.584 229.439 70.3438C229.117 69.1035 228.956 67.6338 228.956 65.9346C228.956 64.4697 229.103 63.1318 229.396 61.9209C229.698 60.71 230.143 59.6748 230.729 58.8154C231.324 57.9463 232.066 57.2773 232.955 56.8086C233.844 56.3301 234.879 56.0908 236.061 56.0908C237.086 56.0908 238.019 56.2861 238.858 56.6768C239.698 57.0576 240.416 57.6533 241.012 58.4639C241.607 59.2646 242.066 60.2852 242.389 61.5254C242.711 62.7656 242.872 64.2354 242.872 65.9346ZM240.294 66.0225C240.294 65.6904 240.279 65.3633 240.25 65.041C240.23 64.709 240.206 64.3867 240.177 64.0742L232.076 70.0947C232.223 70.6025 232.408 71.0713 232.633 71.501C232.857 71.9307 233.126 72.3018 233.438 72.6143C233.761 72.917 234.122 73.1562 234.522 73.332C234.933 73.498 235.396 73.5811 235.914 73.5811C236.578 73.5811 237.179 73.4199 237.716 73.0977C238.263 72.7754 238.727 72.2969 239.107 71.6621C239.488 71.0273 239.781 70.2412 239.986 69.3037C240.191 68.3564 240.294 67.2627 240.294 66.0225ZM231.534 65.8467C231.534 66.1494 231.534 66.4521 231.534 66.7549C231.544 67.0576 231.563 67.3506 231.593 67.6338L239.693 61.6426C239.547 61.1445 239.361 60.6904 239.137 60.2803C238.912 59.8701 238.644 59.5186 238.331 59.2256C238.019 58.9229 237.662 58.6885 237.262 58.5225C236.861 58.3564 236.412 58.2734 235.914 58.2734C235.25 58.2734 234.645 58.4346 234.098 58.7568C233.561 59.0791 233.102 59.5625 232.721 60.207C232.34 60.8418 232.047 61.6328 231.842 62.5801C231.637 63.5176 231.534 64.6064 231.534 65.8467Z" fill="#999999"/>
<rect x="202.5" y="99" width="66" height="66" fill="#FFD0B8" stroke="#7A7A7A"/>
<path d="M242.433 143.5H229.82V141.215L234.771 136.293C235.582 135.492 236.241 134.799 236.749 134.213C237.257 133.627 237.652 133.095 237.936 132.616C238.219 132.128 238.409 131.669 238.507 131.239C238.604 130.81 238.653 130.346 238.653 129.848C238.653 129.379 238.59 128.935 238.463 128.515C238.336 128.085 238.141 127.709 237.877 127.387C237.613 127.064 237.271 126.811 236.852 126.625C236.432 126.439 235.929 126.347 235.343 126.347C234.532 126.347 233.795 126.527 233.131 126.889C232.467 127.25 231.856 127.719 231.3 128.295L229.894 126.61C230.616 125.849 231.446 125.238 232.384 124.779C233.331 124.32 234.43 124.091 235.68 124.091C236.529 124.091 237.301 124.218 237.994 124.472C238.697 124.726 239.303 125.092 239.811 125.57C240.318 126.049 240.709 126.635 240.982 127.328C241.266 128.021 241.407 128.803 241.407 129.672C241.407 130.404 241.31 131.083 241.114 131.708C240.919 132.333 240.621 132.958 240.221 133.583C239.83 134.198 239.332 134.838 238.727 135.502C238.131 136.166 237.423 136.894 236.603 137.685L233.131 141.068H242.433V143.5Z" fill="black"/>
<path d="M242.872 198.935C242.872 200.399 242.726 201.737 242.433 202.948C242.14 204.149 241.695 205.185 241.1 206.054C240.504 206.913 239.762 207.582 238.873 208.061C237.994 208.529 236.959 208.764 235.768 208.764C234.742 208.764 233.81 208.573 232.97 208.192C232.13 207.802 231.412 207.206 230.816 206.405C230.221 205.604 229.762 204.584 229.439 203.344C229.117 202.104 228.956 200.634 228.956 198.935C228.956 197.47 229.103 196.132 229.396 194.921C229.698 193.71 230.143 192.675 230.729 191.815C231.324 190.946 232.066 190.277 232.955 189.809C233.844 189.33 234.879 189.091 236.061 189.091C237.086 189.091 238.019 189.286 238.858 189.677C239.698 190.058 240.416 190.653 241.012 191.464C241.607 192.265 242.066 193.285 242.389 194.525C242.711 195.766 242.872 197.235 242.872 198.935ZM240.294 199.022C240.294 198.69 240.279 198.363 240.25 198.041C240.23 197.709 240.206 197.387 240.177 197.074L232.076 203.095C232.223 203.603 232.408 204.071 232.633 204.501C232.857 204.931 233.126 205.302 233.438 205.614C233.761 205.917 234.122 206.156 234.522 206.332C234.933 206.498 235.396 206.581 235.914 206.581C236.578 206.581 237.179 206.42 237.716 206.098C238.263 205.775 238.727 205.297 239.107 204.662C239.488 204.027 239.781 203.241 239.986 202.304C240.191 201.356 240.294 200.263 240.294 199.022ZM231.534 198.847C231.534 199.149 231.534 199.452 231.534 199.755C231.544 200.058 231.563 200.351 231.593 200.634L239.693 194.643C239.547 194.145 239.361 193.69 239.137 193.28C238.912 192.87 238.644 192.519 238.331 192.226C238.019 191.923 237.662 191.688 237.262 191.522C236.861 191.356 236.412 191.273 235.914 191.273C235.25 191.273 234.645 191.435 234.098 191.757C233.561 192.079 233.102 192.562 232.721 193.207C232.34 193.842 232.047 194.633 231.842 195.58C231.637 196.518 231.534 197.606 231.534 198.847Z" fill="#999999"/>
<path d="M268.5 165H334.5V225.5C334.5 228.538 332.038 231 329 231H268.5V165Z" fill="#FFEFE7" stroke="#7A7A7A"/>
<path d="M268.5 31.5H329C332.038 31.5 334.5 33.9624 334.5 37V99.5H268.5V31.5Z" fill="#FFD0B8" stroke="#7A7A7A"/>
<path d="M308.433 75.5H295.82V73.2148L300.771 68.293C301.582 67.4922 302.241 66.7988 302.749 66.2129C303.257 65.627 303.652 65.0947 303.936 64.6162C304.219 64.1279 304.409 63.6689 304.507 63.2393C304.604 62.8096 304.653 62.3457 304.653 61.8477C304.653 61.3789 304.59 60.9346 304.463 60.5146C304.336 60.085 304.141 59.709 303.877 59.3867C303.613 59.0645 303.271 58.8105 302.852 58.625C302.432 58.4395 301.929 58.3467 301.343 58.3467C300.532 58.3467 299.795 58.5273 299.131 58.8887C298.467 59.25 297.856 59.7188 297.3 60.2949L295.894 58.6104C296.616 57.8486 297.446 57.2383 298.384 56.7793C299.331 56.3203 300.43 56.0908 301.68 56.0908C302.529 56.0908 303.301 56.2178 303.994 56.4717C304.697 56.7256 305.303 57.0918 305.811 57.5703C306.318 58.0488 306.709 58.6348 306.982 59.3281C307.266 60.0215 307.407 60.8027 307.407 61.6719C307.407 62.4043 307.31 63.083 307.114 63.708C306.919 64.333 306.621 64.958 306.221 65.583C305.83 66.1982 305.332 66.8379 304.727 67.502C304.131 68.166 303.423 68.8936 302.603 69.6846L299.131 73.0684H308.433V75.5Z" fill="black"/>
<rect x="268.5" y="99" width="66" height="66" fill="#FFE2D3" stroke="#7A7A7A"/>
<path d="M308.433 143.5H295.82V141.215L300.771 136.293C301.582 135.492 302.241 134.799 302.749 134.213C303.257 133.627 303.652 133.095 303.936 132.616C304.219 132.128 304.409 131.669 304.507 131.239C304.604 130.81 304.653 130.346 304.653 129.848C304.653 129.379 304.59 128.935 304.463 128.515C304.336 128.085 304.141 127.709 303.877 127.387C303.613 127.064 303.271 126.811 302.852 126.625C302.432 126.439 301.929 126.347 301.343 126.347C300.532 126.347 299.795 126.527 299.131 126.889C298.467 127.25 297.856 127.719 297.3 128.295L295.894 126.61C296.616 125.849 297.446 125.238 298.384 124.779C299.331 124.32 300.43 124.091 301.68 124.091C302.529 124.091 303.301 124.218 303.994 124.472C304.697 124.726 305.303 125.092 305.811 125.57C306.318 126.049 306.709 126.635 306.982 127.328C307.266 128.021 307.407 128.803 307.407 129.672C307.407 130.404 307.31 131.083 307.114 131.708C306.919 132.333 306.621 132.958 306.221 133.583C305.83 134.198 305.332 134.838 304.727 135.502C304.131 136.166 303.423 136.894 302.603 137.685L299.131 141.068H308.433V143.5Z" fill="black"/>
<path d="M308.433 208.5H295.82V206.215L300.771 201.293C301.582 200.492 302.241 199.799 302.749 199.213C303.257 198.627 303.652 198.095 303.936 197.616C304.219 197.128 304.409 196.669 304.507 196.239C304.604 195.81 304.653 195.346 304.653 194.848C304.653 194.379 304.59 193.935 304.463 193.515C304.336 193.085 304.141 192.709 303.877 192.387C303.613 192.064 303.271 191.811 302.852 191.625C302.432 191.439 301.929 191.347 301.343 191.347C300.532 191.347 299.795 191.527 299.131 191.889C298.467 192.25 297.856 192.719 297.3 193.295L295.894 191.61C296.616 190.849 297.446 190.238 298.384 189.779C299.331 189.32 300.43 189.091 301.68 189.091C302.529 189.091 303.301 189.218 303.994 189.472C304.697 189.726 305.303 190.092 305.811 190.57C306.318 191.049 306.709 191.635 306.982 192.328C307.266 193.021 307.407 193.803 307.407 194.672C307.407 195.404 307.31 196.083 307.114 196.708C306.919 197.333 306.621 197.958 306.221 198.583C305.83 199.198 305.332 199.838 304.727 200.502C304.131 201.166 303.423 201.894 302.603 202.685L299.131 206.068H308.433V208.5Z" fill="black"/>
<path d="M481.707 165.293C481.317 164.902 480.683 164.902 480.293 165.293L473.929 171.657C473.538 172.047 473.538 172.681 473.929 173.071C474.319 173.462 474.953 173.462 475.343 173.071L481 167.414L486.657 173.071C487.047 173.462 487.681 173.462 488.071 173.071C488.462 172.681 488.462 172.047 488.071 171.657L481.707 165.293ZM480 166L480 190L482 190L482 166L480 166Z" fill="black"/>
<path d="M479.956 109.072C480.346 109.462 480.979 109.462 481.37 109.072L487.734 102.708C488.124 102.317 488.124 101.684 487.734 101.294C487.343 100.903 486.71 100.903 486.32 101.294L480.663 106.951L475.006 101.294C474.615 100.903 473.982 100.903 473.592 101.294C473.201 101.684 473.201 102.317 473.592 102.708L479.956 109.072ZM479.663 83.7468L479.663 108.365L481.663 108.365L481.663 83.7468L479.663 83.7468Z" fill="black"/>
<circle cx="480.907" cy="59.4485" r="23.618" transform="rotate(5.61091 480.907 59.4485)" fill="#FFF9F6" stroke="#FFA477" stroke-width="2"/>
<path d="M488.019 68H475.406V65.7148L480.357 60.793C481.168 59.9922 481.827 59.2988 482.335 58.7129C482.843 58.127 483.238 57.5947 483.521 57.1162C483.805 56.6279 483.995 56.1689 484.093 55.7393C484.19 55.3096 484.239 54.8457 484.239 54.3477C484.239 53.8789 484.176 53.4346 484.049 53.0146C483.922 52.585 483.727 52.209 483.463 51.8867C483.199 51.5645 482.857 51.3105 482.438 51.125C482.018 50.9395 481.515 50.8467 480.929 50.8467C480.118 50.8467 479.381 51.0273 478.717 51.3887C478.053 51.75 477.442 52.2188 476.886 52.7949L475.479 51.1104C476.202 50.3486 477.032 49.7383 477.97 49.2793C478.917 48.8203 480.016 48.5908 481.266 48.5908C482.115 48.5908 482.887 48.7178 483.58 48.9717C484.283 49.2256 484.889 49.5918 485.396 50.0703C485.904 50.5488 486.295 51.1348 486.568 51.8281C486.852 52.5215 486.993 53.3027 486.993 54.1719C486.993 54.9043 486.896 55.583 486.7 56.208C486.505 56.833 486.207 57.458 485.807 58.083C485.416 58.6982 484.918 59.3379 484.312 60.002C483.717 60.666 483.009 61.3936 482.188 62.1846L478.717 65.5684H488.019V68Z" fill="black"/>
<circle cx="589.226" cy="59.4485" r="23.618" transform="rotate(5.61091 589.226 59.4485)" fill="#FFF9F6" stroke="#FFA477" stroke-width="2"/>
<path d="M596.019 68H583.406V65.7148L588.357 60.793C589.168 59.9922 589.827 59.2988 590.335 58.7129C590.843 58.127 591.238 57.5947 591.521 57.1162C591.805 56.6279 591.995 56.1689 592.093 55.7393C592.19 55.3096 592.239 54.8457 592.239 54.3477C592.239 53.8789 592.176 53.4346 592.049 53.0146C591.922 52.585 591.727 52.209 591.463 51.8867C591.199 51.5645 590.857 51.3105 590.438 51.125C590.018 50.9395 589.515 50.8467 588.929 50.8467C588.118 50.8467 587.381 51.0273 586.717 51.3887C586.053 51.75 585.442 52.2188 584.886 52.7949L583.479 51.1104C584.202 50.3486 585.032 49.7383 585.97 49.2793C586.917 48.8203 588.016 48.5908 589.266 48.5908C590.115 48.5908 590.887 48.7178 591.58 48.9717C592.283 49.2256 592.889 49.5918 593.396 50.0703C593.904 50.5488 594.295 51.1348 594.568 51.8281C594.852 52.5215 594.993 53.3027 594.993 54.1719C594.993 54.9043 594.896 55.583 594.7 56.208C594.505 56.833 594.207 57.458 593.807 58.083C593.416 58.6982 592.918 59.3379 592.312 60.002C591.717 60.666 591.009 61.3936 590.188 62.1846L586.717 65.5684H596.019V68Z" fill="black"/>
<path d="M505.326 60.1281L564.704 60.0248" stroke="black" stroke-width="2"/>
<path d="M613.524 60.1281L672.902 60.0248" stroke="black" stroke-width="2"/>
<circle cx="480.907" cy="213.065" r="23.618" transform="rotate(5.61091 480.907 213.065)" fill="#FFF9F6" stroke="#FFA477" stroke-width="2"/>
<path d="M488.019 222H475.406V219.715L480.357 214.793C481.168 213.992 481.827 213.299 482.335 212.713C482.843 212.127 483.238 211.595 483.521 211.116C483.805 210.628 483.995 210.169 484.093 209.739C484.19 209.31 484.239 208.846 484.239 208.348C484.239 207.879 484.176 207.435 484.049 207.015C483.922 206.585 483.727 206.209 483.463 205.887C483.199 205.564 482.857 205.311 482.438 205.125C482.018 204.939 481.515 204.847 480.929 204.847C480.118 204.847 479.381 205.027 478.717 205.389C478.053 205.75 477.442 206.219 476.886 206.795L475.479 205.11C476.202 204.349 477.032 203.738 477.97 203.279C478.917 202.82 480.016 202.591 481.266 202.591C482.115 202.591 482.887 202.718 483.58 202.972C484.283 203.226 484.889 203.592 485.396 204.07C485.904 204.549 486.295 205.135 486.568 205.828C486.852 206.521 486.993 207.303 486.993 208.172C486.993 208.904 486.896 209.583 486.7 210.208C486.505 210.833 486.207 211.458 485.807 212.083C485.416 212.698 484.918 213.338 484.312 214.002C483.717 214.666 483.009 215.394 482.188 216.185L478.717 219.568H488.019V222Z" fill="black"/>
<path d="M505.206 213.744L564.583 213.641" stroke="black" stroke-width="2"/>
<circle cx="697.545" cy="59.4485" r="23.618" transform="rotate(5.61091 697.545 59.4485)" fill="#FFF9F6" stroke="#FFA477" stroke-width="2"/>
<path d="M704.019 68H691.406V65.7148L696.357 60.793C697.168 59.9922 697.827 59.2988 698.335 58.7129C698.843 58.127 699.238 57.5947 699.521 57.1162C699.805 56.6279 699.995 56.1689 700.093 55.7393C700.19 55.3096 700.239 54.8457 700.239 54.3477C700.239 53.8789 700.176 53.4346 700.049 53.0146C699.922 52.585 699.727 52.209 699.463 51.8867C699.199 51.5645 698.857 51.3105 698.438 51.125C698.018 50.9395 697.515 50.8467 696.929 50.8467C696.118 50.8467 695.381 51.0273 694.717 51.3887C694.053 51.75 693.442 52.2188 692.886 52.7949L691.479 51.1104C692.202 50.3486 693.032 49.7383 693.97 49.2793C694.917 48.8203 696.016 48.5908 697.266 48.5908C698.115 48.5908 698.887 48.7178 699.58 48.9717C700.283 49.2256 700.889 49.5918 701.396 50.0703C701.904 50.5488 702.295 51.1348 702.568 51.8281C702.852 52.5215 702.993 53.3027 702.993 54.1719C702.993 54.9043 702.896 55.583 702.7 56.208C702.505 56.833 702.207 57.458 701.807 58.083C701.416 58.6982 700.918 59.3379 700.312 60.002C699.717 60.666 699.009 61.3936 698.188 62.1846L694.717 65.5684H704.019V68Z" fill="black"/>
<path d="M755.365 138.628C754.975 138.238 754.975 137.604 755.365 137.214L761.729 130.85C762.12 130.459 762.753 130.459 763.143 130.85C763.534 131.24 763.534 131.874 763.143 132.264L757.486 137.921L763.143 143.578C763.534 143.968 763.534 144.602 763.143 144.992C762.753 145.383 762.12 145.383 761.729 144.992L755.365 138.628ZM811.107 138.921L756.072 138.921L756.072 136.921L811.107 136.921L811.107 138.921Z" fill="black"/>
<circle cx="24.618" cy="24.618" r="23.618" transform="matrix(-0.995209 0.0977725 0.0977725 0.995209 749.18 110.334)" fill="#FFF4EF" stroke="#FF5500" stroke-width="2"/>
<path d="M734.019 146H721.406V143.715L726.357 138.793C727.168 137.992 727.827 137.299 728.335 136.713C728.843 136.127 729.238 135.595 729.521 135.116C729.805 134.628 729.995 134.169 730.093 133.739C730.19 133.31 730.239 132.846 730.239 132.348C730.239 131.879 730.176 131.435 730.049 131.015C729.922 130.585 729.727 130.209 729.463 129.887C729.199 129.564 728.857 129.311 728.438 129.125C728.018 128.939 727.515 128.847 726.929 128.847C726.118 128.847 725.381 129.027 724.717 129.389C724.053 129.75 723.442 130.219 722.886 130.795L721.479 129.11C722.202 128.349 723.032 127.738 723.97 127.279C724.917 126.82 726.016 126.591 727.266 126.591C728.115 126.591 728.887 126.718 729.58 126.972C730.283 127.226 730.889 127.592 731.396 128.07C731.904 128.549 732.295 129.135 732.568 129.828C732.852 130.521 732.993 131.303 732.993 132.172C732.993 132.904 732.896 133.583 732.7 134.208C732.505 134.833 732.207 135.458 731.807 136.083C731.416 136.698 730.918 137.338 730.312 138.002C729.717 138.666 729.009 139.394 728.188 140.185L724.717 143.568H734.019V146Z" fill="black"/>
<circle cx="480.907" cy="137.241" r="23.618" transform="rotate(5.61091 480.907 137.241)" fill="#FFF4EF" stroke="#FF5500" stroke-width="2"/>
<path d="M488.019 146H475.406V143.715L480.357 138.793C481.168 137.992 481.827 137.299 482.335 136.713C482.843 136.127 483.238 135.595 483.521 135.116C483.805 134.628 483.995 134.169 484.093 133.739C484.19 133.31 484.239 132.846 484.239 132.348C484.239 131.879 484.176 131.435 484.049 131.015C483.922 130.585 483.727 130.209 483.463 129.887C483.199 129.564 482.857 129.311 482.438 129.125C482.018 128.939 481.515 128.847 480.929 128.847C480.118 128.847 479.381 129.027 478.717 129.389C478.053 129.75 477.442 130.219 476.886 130.795L475.479 129.11C476.202 128.349 477.032 127.738 477.97 127.279C478.917 126.82 480.016 126.591 481.266 126.591C482.115 126.591 482.887 126.718 483.58 126.972C484.283 127.226 484.889 127.592 485.396 128.07C485.904 128.549 486.295 129.135 486.568 129.828C486.852 130.521 486.993 131.303 486.993 132.172C486.993 132.904 486.896 133.583 486.7 134.208C486.505 134.833 486.207 135.458 485.807 136.083C485.416 136.698 484.918 137.338 484.312 138.002C483.717 138.666 483.009 139.394 482.188 140.185L478.717 143.568H488.019V146Z" fill="black"/>
<path d="M835 161L835 190" stroke="black" stroke-width="2"/>
<path d="M835.793 86.5646C835.403 86.1741 834.77 86.1741 834.379 86.5646L828.015 92.9287C827.625 93.3192 827.625 93.9524 828.015 94.3429C828.406 94.7334 829.039 94.7334 829.43 94.3429L835.086 88.6859L840.743 94.3427C841.134 94.7332 841.767 94.7332 842.158 94.3427C842.548 93.9521 842.548 93.319 842.158 92.9285L835.793 86.5646ZM834.086 87.2717L834.087 114.883L836.087 114.883L836.086 87.2717L834.086 87.2717Z" fill="black"/>
<circle cx="835.515" cy="59.4485" r="23.618" transform="rotate(5.61091 835.515 59.4485)" fill="#FFF4EF" stroke="#FF5500" stroke-width="2"/>
<path d="M842.519 68H829.906V65.7148L834.857 60.793C835.668 59.9922 836.327 59.2988 836.835 58.7129C837.343 58.127 837.738 57.5947 838.021 57.1162C838.305 56.6279 838.495 56.1689 838.593 55.7393C838.69 55.3096 838.739 54.8457 838.739 54.3477C838.739 53.8789 838.676 53.4346 838.549 53.0146C838.422 52.585 838.227 52.209 837.963 51.8867C837.699 51.5645 837.357 51.3105 836.938 51.125C836.518 50.9395 836.015 50.8467 835.429 50.8467C834.618 50.8467 833.881 51.0273 833.217 51.3887C832.553 51.75 831.942 52.2188 831.386 52.7949L829.979 51.1104C830.702 50.3486 831.532 49.7383 832.47 49.2793C833.417 48.8203 834.516 48.5908 835.766 48.5908C836.615 48.5908 837.387 48.7178 838.08 48.9717C838.783 49.2256 839.389 49.5918 839.896 50.0703C840.404 50.5488 840.795 51.1348 841.068 51.8281C841.352 52.5215 841.493 53.3027 841.493 54.1719C841.493 54.9043 841.396 55.583 841.2 56.208C841.005 56.833 840.707 57.458 840.307 58.083C839.916 58.6982 839.418 59.3379 838.812 60.002C838.217 60.666 837.509 61.3936 836.688 62.1846L833.217 65.5684H842.519V68Z" fill="black"/>
<circle cx="835.515" cy="213.065" r="23.618" transform="rotate(5.61091 835.515 213.065)" fill="#FFF9F6" stroke="#FFA477" stroke-width="2"/>
<path d="M842.519 222H829.906V219.715L834.857 214.793C835.668 213.992 836.327 213.299 836.835 212.713C837.343 212.127 837.738 211.595 838.021 211.116C838.305 210.628 838.495 210.169 838.593 209.739C838.69 209.31 838.739 208.846 838.739 208.348C838.739 207.879 838.676 207.435 838.549 207.015C838.422 206.585 838.227 206.209 837.963 205.887C837.699 205.564 837.357 205.311 836.938 205.125C836.518 204.939 836.015 204.847 835.429 204.847C834.618 204.847 833.881 205.027 833.217 205.389C832.553 205.75 831.942 206.219 831.386 206.795L829.979 205.11C830.702 204.349 831.532 203.738 832.47 203.279C833.417 202.82 834.516 202.591 835.766 202.591C836.615 202.591 837.387 202.718 838.08 202.972C838.783 203.226 839.389 203.592 839.896 204.07C840.404 204.549 840.795 205.135 841.068 205.828C841.352 206.521 841.493 207.303 841.493 208.172C841.493 208.904 841.396 209.583 841.2 210.208C841.005 210.833 840.707 211.458 840.307 212.083C839.916 212.698 839.418 213.338 838.812 214.002C838.217 214.666 837.509 215.394 836.688 216.185L833.217 219.568H842.519V222Z" fill="black"/>
<circle cx="835.515" cy="137.241" r="23.618" transform="rotate(5.61091 835.515 137.241)" fill="#FFF9F6" stroke="#FFA477" stroke-width="2"/>
<path d="M842.519 146H829.906V143.715L834.857 138.793C835.668 137.992 836.327 137.299 836.835 136.713C837.343 136.127 837.738 135.595 838.021 135.116C838.305 134.628 838.495 134.169 838.593 133.739C838.69 133.31 838.739 132.846 838.739 132.348C838.739 131.879 838.676 131.435 838.549 131.015C838.422 130.585 838.227 130.209 837.963 129.887C837.699 129.564 837.357 129.311 836.938 129.125C836.518 128.939 836.015 128.847 835.429 128.847C834.618 128.847 833.881 129.027 833.217 129.389C832.553 129.75 831.942 130.219 831.386 130.795L829.979 129.11C830.702 128.349 831.532 127.738 832.47 127.279C833.417 126.82 834.516 126.591 835.766 126.591C836.615 126.591 837.387 126.718 838.08 126.972C838.783 127.226 839.389 127.592 839.896 128.07C840.404 128.549 840.795 129.135 841.068 129.828C841.352 130.521 841.493 131.303 841.493 132.172C841.493 132.904 841.396 133.583 841.2 134.208C841.005 134.833 840.707 135.458 840.307 136.083C839.916 136.698 839.418 137.338 838.812 138.002C838.217 138.666 837.509 139.394 836.688 140.185L833.217 143.568H842.519V146Z" fill="black"/>
<circle cx="589.226" cy="213.093" r="23.618" transform="rotate(5.61091 589.226 213.093)" fill="#FFF9F6" stroke="#FFA477" stroke-width="2"/>
<path d="M596.019 222H583.406V219.715L588.357 214.793C589.168 213.992 589.827 213.299 590.335 212.713C590.843 212.127 591.238 211.595 591.521 211.116C591.805 210.628 591.995 210.169 592.093 209.739C592.19 209.31 592.239 208.846 592.239 208.348C592.239 207.879 592.176 207.435 592.049 207.015C591.922 206.585 591.727 206.209 591.463 205.887C591.199 205.564 590.857 205.311 590.438 205.125C590.018 204.939 589.515 204.847 588.929 204.847C588.118 204.847 587.381 205.027 586.717 205.389C586.053 205.75 585.442 206.219 584.886 206.795L583.479 205.11C584.202 204.349 585.032 203.738 585.97 203.279C586.917 202.82 588.016 202.591 589.266 202.591C590.115 202.591 590.887 202.718 591.58 202.972C592.283 203.226 592.889 203.592 593.396 204.07C593.904 204.549 594.295 205.135 594.568 205.828C594.852 206.521 594.993 207.303 594.993 208.172C594.993 208.904 594.896 209.583 594.7 210.208C594.505 210.833 594.207 211.458 593.807 212.083C593.416 212.698 592.918 213.338 592.312 214.002C591.717 214.666 591.009 215.394 590.188 216.185L586.717 219.568H596.019V222Z" fill="black"/>
<g opacity="0.5" filter="url(#filter0_d_6290_4785)">
<path d="M37.7073 113.207C37.3168 113.598 36.6836 113.598 36.2931 113.207L29.9291 106.843C29.5386 106.453 29.5386 105.82 29.9291 105.429C30.3196 105.038 30.9528 105.038 31.3433 105.429L37.0002 111.086L42.657 105.429C43.0475 105.038 43.6807 105.038 44.0712 105.429C44.4617 105.819 44.4617 106.453 44.0712 106.843L37.7073 113.207ZM36.0002 112.5L36 84L38 84L38.0002 112.5L36.0002 112.5Z" fill="black"/>
</g>
<g opacity="0.5" filter="url(#filter1_d_6290_4785)">
<path d="M36.2927 152.793C36.6832 152.402 37.3164 152.402 37.7069 152.793L44.0709 159.157C44.4614 159.547 44.4614 160.18 44.0709 160.571C43.6804 160.962 43.0472 160.962 42.6567 160.571L36.9998 154.914L31.343 160.571C30.9525 160.962 30.3193 160.962 29.9288 160.571C29.5383 160.181 29.5383 159.547 29.9288 159.157L36.2927 152.793ZM37.9998 153.5L38 182L36 182L35.9998 153.5L37.9998 153.5Z" fill="black"/>
</g>
<g opacity="0.5" filter="url(#filter2_d_6290_4785)">
<path d="M254.293 133.707C253.902 133.317 253.902 132.684 254.293 132.293L260.657 125.929C261.047 125.539 261.68 125.539 262.071 125.929C262.462 126.32 262.462 126.953 262.071 127.343L256.414 133L262.071 138.657C262.462 139.048 262.462 139.681 262.071 140.071C261.681 140.462 261.047 140.462 260.657 140.071L254.293 133.707ZM255 132L283.5 132L283.5 134L255 134L255 132Z" fill="black"/>
</g>
<g opacity="0.5" filter="url(#filter3_d_6290_4785)">
<path d="M301.293 85.2929C301.683 84.9024 302.316 84.9024 302.707 85.2929L309.071 91.6568C309.461 92.0473 309.461 92.6805 309.071 93.071C308.68 93.4615 308.047 93.4616 307.657 93.071L302 87.4142L296.343 93.0711C295.952 93.4616 295.319 93.4616 294.929 93.0711C294.538 92.6806 294.538 92.0474 294.929 91.6569L301.293 85.2929ZM303 86L303 114.5L301 114.5L301 86L303 86Z" fill="black"/>
</g>
</g>
<defs>
<filter id="filter0_d_6290_4785" x="25.6362" y="84" width="22.7279" height="37.5" filterUnits="userSpaceOnUse" color-interpolation-filters="sRGB">
<feFlood flood-opacity="0" result="BackgroundImageFix"/>
<feColorMatrix in="SourceAlpha" type="matrix" values="0 0 0 0 0 0 0 0 0 0 0 0 0 0 0 0 0 0 127 0" result="hardAlpha"/>
<feOffset dy="4"/>
<feGaussianBlur stdDeviation="2"/>
<feComposite in2="hardAlpha" operator="out"/>
<feColorMatrix type="matrix" values="0 0 0 0 0 0 0 0 0 0 0 0 0 0 0 0 0 0 0.25 0"/>
<feBlend mode="normal" in2="BackgroundImageFix" result="effect1_dropShadow_6290_4785"/>
<feBlend mode="normal" in="SourceGraphic" in2="effect1_dropShadow_6290_4785" result="shape"/>
</filter>
<filter id="filter1_d_6290_4785" x="25.6359" y="152.5" width="22.7279" height="37.5" filterUnits="userSpaceOnUse" color-interpolation-filters="sRGB">
<feFlood flood-opacity="0" result="BackgroundImageFix"/>
<feColorMatrix in="SourceAlpha" type="matrix" values="0 0 0 0 0 0 0 0 0 0 0 0 0 0 0 0 0 0 127 0" result="hardAlpha"/>
<feOffset dy="4"/>
<feGaussianBlur stdDeviation="2"/>
<feComposite in2="hardAlpha" operator="out"/>
<feColorMatrix type="matrix" values="0 0 0 0 0 0 0 0 0 0 0 0 0 0 0 0 0 0 0.25 0"/>
<feBlend mode="normal" in2="BackgroundImageFix" result="effect1_dropShadow_6290_4785"/>
<feBlend mode="normal" in="SourceGraphic" in2="effect1_dropShadow_6290_4785" result="shape"/>
</filter>
<filter id="filter2_d_6290_4785" x="250" y="125.636" width="37.5" height="22.7278" filterUnits="userSpaceOnUse" color-interpolation-filters="sRGB">
<feFlood flood-opacity="0" result="BackgroundImageFix"/>
<feColorMatrix in="SourceAlpha" type="matrix" values="0 0 0 0 0 0 0 0 0 0 0 0 0 0 0 0 0 0 127 0" result="hardAlpha"/>
<feOffset dy="4"/>
<feGaussianBlur stdDeviation="2"/>
<feComposite in2="hardAlpha" operator="out"/>
<feColorMatrix type="matrix" values="0 0 0 0 0 0 0 0 0 0 0 0 0 0 0 0 0 0 0.25 0"/>
<feBlend mode="normal" in2="BackgroundImageFix" result="effect1_dropShadow_6290_4785"/>
<feBlend mode="normal" in="SourceGraphic" in2="effect1_dropShadow_6290_4785" result="shape"/>
</filter>
<filter id="filter3_d_6290_4785" x="290.636" y="85" width="22.7279" height="37.5" filterUnits="userSpaceOnUse" color-interpolation-filters="sRGB">
<feFlood flood-opacity="0" result="BackgroundImageFix"/>
<feColorMatrix in="SourceAlpha" type="matrix" values="0 0 0 0 0 0 0 0 0 0 0 0 0 0 0 0 0 0 127 0" result="hardAlpha"/>
<feOffset dy="4"/>
<feGaussianBlur stdDeviation="2"/>
<feComposite in2="hardAlpha" operator="out"/>
<feColorMatrix type="matrix" values="0 0 0 0 0 0 0 0 0 0 0 0 0 0 0 0 0 0 0.25 0"/>
<feBlend mode="normal" in2="BackgroundImageFix" result="effect1_dropShadow_6290_4785"/>
<feBlend mode="normal" in="SourceGraphic" in2="effect1_dropShadow_6290_4785" result="shape"/>
</filter>
<clipPath id="clip0_6290_4785">
<rect width="965" height="240" fill="white"/>
</clipPath>
</defs>
</svg>
