<svg width="458" height="95" viewBox="0 0 458 95" fill="none" xmlns="http://www.w3.org/2000/svg">
<g clip-path="url(#clip0_6252_379)">
<rect width="458" height="95" fill="white"/>
<rect x="68" y="1" width="62" height="28" rx="6" fill="#FFF4EF" stroke="#FF5500" stroke-width="2"/>
<rect x="1" y="1" width="62" height="28" rx="6" fill="#F2FBFF" stroke="#00B2FF" stroke-width="2"/>
<circle cx="65" cy="70" r="23.75" stroke="black" stroke-width="2.5"/>
<path d="M72.458 70.4346C72.458 71.8994 72.3115 73.2373 72.0186 74.4482C71.7256 75.6494 71.2812 76.6846 70.6855 77.5537C70.0898 78.4131 69.3477 79.082 68.459 79.5605C67.5801 80.0293 66.5449 80.2637 65.3535 80.2637C64.3281 80.2637 63.3955 80.0732 62.5557 79.6924C61.7158 79.3018 60.998 78.7061 60.4023 77.9053C59.8066 77.1045 59.3477 76.084 59.0254 74.8438C58.7031 73.6035 58.542 72.1338 58.542 70.4346C58.542 68.9697 58.6885 67.6318 58.9814 66.4209C59.2842 65.21 59.7285 64.1748 60.3145 63.3154C60.9102 62.4463 61.6523 61.7773 62.541 61.3086C63.4297 60.8301 64.4648 60.5908 65.6465 60.5908C66.6719 60.5908 67.6045 60.7861 68.4443 61.1768C69.2842 61.5576 70.002 62.1533 70.5977 62.9639C71.1934 63.7646 71.6523 64.7852 71.9746 66.0254C72.2969 67.2656 72.458 68.7354 72.458 70.4346ZM69.8799 70.5225C69.8799 70.1904 69.8652 69.8633 69.8359 69.541C69.8164 69.209 69.792 68.8867 69.7627 68.5742L61.6621 74.5947C61.8086 75.1025 61.9941 75.5713 62.2188 76.001C62.4434 76.4307 62.7119 76.8018 63.0244 77.1143C63.3467 77.417 63.708 77.6562 64.1084 77.832C64.5186 77.998 64.9824 78.0811 65.5 78.0811C66.1641 78.0811 66.7646 77.9199 67.3018 77.5977C67.8486 77.2754 68.3125 76.7969 68.6934 76.1621C69.0742 75.5273 69.3672 74.7412 69.5723 73.8037C69.7773 72.8564 69.8799 71.7627 69.8799 70.5225ZM61.1201 70.3467C61.1201 70.6494 61.1201 70.9521 61.1201 71.2549C61.1299 71.5576 61.1494 71.8506 61.1787 72.1338L69.2793 66.1426C69.1328 65.6445 68.9473 65.1904 68.7227 64.7803C68.498 64.3701 68.2295 64.0186 67.917 63.7256C67.6045 63.4229 67.248 63.1885 66.8477 63.0225C66.4473 62.8564 65.998 62.7734 65.5 62.7734C64.8359 62.7734 64.2305 62.9346 63.6836 63.2568C63.1465 63.5791 62.6875 64.0625 62.3066 64.707C61.9258 65.3418 61.6328 66.1328 61.4277 67.0801C61.2227 68.0176 61.1201 69.1064 61.1201 70.3467Z" fill="black"/>
<path d="M159.884 70.8839C160.372 70.3957 160.372 69.6043 159.884 69.1161L151.929 61.1612C151.441 60.673 150.649 60.673 150.161 61.1612C149.673 61.6493 149.673 62.4408 150.161 62.9289L157.232 70L150.161 77.0711C149.673 77.5592 149.673 78.3507 150.161 78.8388C150.649 79.327 151.441 79.327 151.929 78.8388L159.884 70.8839ZM89 71.25H159V68.75H89V71.25Z" fill="black"/>
<circle cx="187" cy="70" r="23.75" stroke="black" stroke-width="2.5"/>
<path d="M193.857 80H181.831V77.627H186.753V63.6523L182.168 66.1426L181.23 63.9746L187.324 60.7666H189.58V77.627H193.857V80Z" fill="black"/>
<path d="M282.884 70.8839C283.372 70.3957 283.372 69.6043 282.884 69.1161L274.929 61.1612C274.441 60.673 273.649 60.673 273.161 61.1612C272.673 61.6493 272.673 62.4408 273.161 62.9289L280.232 70L273.161 77.0711C272.673 77.5592 272.673 78.3507 273.161 78.8388C273.649 79.327 274.441 79.327 274.929 78.8388L282.884 70.8839ZM212 71.25H282V68.75H212V71.25Z" fill="black"/>
<circle cx="310" cy="70" r="23.75" stroke="black" stroke-width="2.5"/>
<path d="M316.019 80H303.406V77.7148L308.357 72.793C309.168 71.9922 309.827 71.2988 310.335 70.7129C310.843 70.127 311.238 69.5947 311.521 69.1162C311.805 68.6279 311.995 68.1689 312.093 67.7393C312.19 67.3096 312.239 66.8457 312.239 66.3477C312.239 65.8789 312.176 65.4346 312.049 65.0146C311.922 64.585 311.727 64.209 311.463 63.8867C311.199 63.5645 310.857 63.3105 310.438 63.125C310.018 62.9395 309.515 62.8467 308.929 62.8467C308.118 62.8467 307.381 63.0273 306.717 63.3887C306.053 63.75 305.442 64.2188 304.886 64.7949L303.479 63.1104C304.202 62.3486 305.032 61.7383 305.97 61.2793C306.917 60.8203 308.016 60.5908 309.266 60.5908C310.115 60.5908 310.887 60.7178 311.58 60.9717C312.283 61.2256 312.889 61.5918 313.396 62.0703C313.904 62.5488 314.295 63.1348 314.568 63.8281C314.852 64.5215 314.993 65.3027 314.993 66.1719C314.993 66.9043 314.896 67.583 314.7 68.208C314.505 68.833 314.207 69.458 313.807 70.083C313.416 70.6982 312.918 71.3379 312.312 72.002C311.717 72.666 311.009 73.3936 310.188 74.1846L306.717 77.5684H316.019V80Z" fill="black"/>
<path d="M405.884 70.8839C406.372 70.3957 406.372 69.6043 405.884 69.1161L397.929 61.1612C397.441 60.673 396.649 60.673 396.161 61.1612C395.673 61.6493 395.673 62.4408 396.161 62.9289L403.232 70L396.161 77.0711C395.673 77.5592 395.673 78.3507 396.161 78.8388C396.649 79.327 397.441 79.327 397.929 78.8388L405.884 70.8839ZM335 71.25H405V68.75H335V71.25Z" fill="black"/>
<circle cx="433" cy="70" r="23.75" stroke="black" stroke-width="2.5"/>
<path d="M439.652 74.1846C439.652 75.0244 439.481 75.8154 439.14 76.5576C438.798 77.29 438.285 77.9346 437.602 78.4912C436.918 79.0381 436.059 79.4727 435.023 79.7949C433.988 80.1074 432.782 80.2637 431.405 80.2637C430.644 80.2637 429.96 80.2393 429.354 80.1904C428.749 80.1416 428.183 80.0781 427.655 80V77.7148C428.261 77.8223 428.9 77.9053 429.574 77.9639C430.248 78.0225 430.937 78.0518 431.64 78.0518C432.597 78.0518 433.412 77.9688 434.086 77.8027C434.77 77.627 435.326 77.3779 435.756 77.0557C436.186 76.7334 436.498 76.3428 436.693 75.8838C436.889 75.4248 436.986 74.9072 436.986 74.3311C436.986 73.8037 436.869 73.3447 436.635 72.9541C436.4 72.5635 436.068 72.2363 435.639 71.9727C435.219 71.709 434.711 71.5137 434.115 71.3867C433.529 71.25 432.885 71.1816 432.182 71.1816H429.999V69.0869H432.211C432.787 69.0869 433.31 69.0137 433.778 68.8672C434.257 68.7109 434.662 68.4912 434.994 68.208C435.336 67.9248 435.595 67.5781 435.771 67.168C435.956 66.748 436.049 66.2744 436.049 65.7471C436.049 64.7217 435.736 63.9746 435.111 63.5059C434.486 63.0371 433.568 62.8027 432.357 62.8027C431.713 62.8027 431.049 62.8662 430.365 62.9932C429.682 63.1201 428.949 63.3105 428.168 63.5645V61.3379C428.5 61.2207 428.852 61.1182 429.223 61.0303C429.604 60.9326 429.979 60.8545 430.351 60.7959C430.731 60.7275 431.107 60.6787 431.479 60.6494C431.85 60.6104 432.206 60.5908 432.548 60.5908C433.563 60.5908 434.457 60.7031 435.229 60.9277C436 61.1426 436.645 61.4551 437.162 61.8652C437.68 62.2754 438.07 62.7734 438.334 63.3594C438.598 63.9453 438.729 64.6045 438.729 65.3369C438.729 66.4307 438.446 67.3486 437.88 68.0908C437.323 68.833 436.557 69.4238 435.58 69.8633C436.078 69.9414 436.566 70.0977 437.045 70.332C437.533 70.5664 437.968 70.8691 438.349 71.2402C438.739 71.6016 439.052 72.0312 439.286 72.5293C439.53 73.0273 439.652 73.5791 439.652 74.1846Z" fill="black"/>
<path d="M19.334 19.3242C19.334 19.6693 19.2754 19.9785 19.1582 20.252C19.041 20.5254 18.8815 20.7695 18.6797 20.9844C18.4779 21.1927 18.2435 21.3717 17.9766 21.5215C17.7096 21.6712 17.4232 21.7949 17.1172 21.8926C16.8177 21.9902 16.5085 22.0618 16.1895 22.1074C15.8704 22.153 15.5579 22.1758 15.252 22.1758C14.5879 22.1758 13.9759 22.1465 13.416 22.0879C12.8626 22.0293 12.319 21.9349 11.7852 21.8047V20.2422C12.3581 20.4049 12.9277 20.5286 13.4941 20.6133C14.0605 20.6979 14.6237 20.7402 15.1836 20.7402C15.9974 20.7402 16.5996 20.6296 16.9902 20.4082C17.3809 20.1868 17.5762 19.8711 17.5762 19.4609C17.5762 19.2852 17.5436 19.1289 17.4785 18.9922C17.4199 18.849 17.3092 18.7155 17.1465 18.5918C16.9837 18.4616 16.7298 18.3281 16.3848 18.1914C16.0462 18.0547 15.5807 17.8984 14.9883 17.7227C14.5456 17.5924 14.1354 17.446 13.7578 17.2832C13.3867 17.1139 13.0645 16.9154 12.791 16.6875C12.5176 16.4596 12.3027 16.1927 12.1465 15.8867C11.9902 15.5807 11.9121 15.2194 11.9121 14.8027C11.9121 14.5293 11.974 14.2298 12.0977 13.9043C12.2279 13.5788 12.446 13.276 12.752 12.9961C13.0579 12.7161 13.4714 12.485 13.9922 12.3027C14.513 12.1139 15.1641 12.0195 15.9453 12.0195C16.3294 12.0195 16.7559 12.0423 17.2246 12.0879C17.6934 12.127 18.1816 12.1986 18.6895 12.3027V13.8164C18.1556 13.6862 17.6478 13.5918 17.166 13.5332C16.6908 13.4681 16.2773 13.4355 15.9258 13.4355C15.5026 13.4355 15.1445 13.4681 14.8516 13.5332C14.5651 13.5983 14.3307 13.6895 14.1484 13.8066C13.9727 13.9173 13.8457 14.0508 13.7676 14.207C13.6895 14.3568 13.6504 14.5195 13.6504 14.6953C13.6504 14.8711 13.6829 15.0306 13.748 15.1738C13.8197 15.3171 13.9466 15.457 14.1289 15.5938C14.3177 15.724 14.5781 15.8574 14.9102 15.9941C15.2422 16.1243 15.6751 16.2676 16.209 16.4238C16.7884 16.5931 17.2767 16.7721 17.6738 16.9609C18.071 17.1432 18.3932 17.3483 18.6406 17.5762C18.888 17.804 19.0638 18.0612 19.168 18.3477C19.2786 18.6341 19.334 18.9596 19.334 19.3242ZM25.9062 9.59766H23.0059V8.20117H27.625V20.584H30.5449V22H22.6836V20.584H25.9062V9.59766ZM42.0977 17.0195C42.0977 17.7812 41.9902 18.4811 41.7754 19.1191C41.5605 19.7507 41.2513 20.2943 40.8477 20.75C40.444 21.1992 39.9525 21.5508 39.373 21.8047C38.7936 22.0521 38.1361 22.1758 37.4004 22.1758C36.6973 22.1758 36.0658 22.0684 35.5059 21.8535C34.9525 21.6322 34.4805 21.3099 34.0898 20.8867C33.7057 20.4635 33.4095 19.9395 33.2012 19.3145C32.9993 18.6895 32.8984 17.9701 32.8984 17.1562C32.8984 16.3945 33.0059 15.7012 33.2207 15.0762C33.4355 14.4447 33.7448 13.9043 34.1484 13.4551C34.5521 12.9993 35.0436 12.6478 35.623 12.4004C36.2025 12.1465 36.86 12.0195 37.5957 12.0195C38.2988 12.0195 38.9271 12.1302 39.4805 12.3516C40.0404 12.5664 40.5124 12.8854 40.8965 13.3086C41.2871 13.7253 41.5833 14.2461 41.7852 14.8711C41.9935 15.4961 42.0977 16.2122 42.0977 17.0195ZM40.3594 17.0977C40.3594 16.4922 40.291 15.9648 40.1543 15.5156C40.0241 15.0599 39.8353 14.6823 39.5879 14.3828C39.3405 14.0768 39.0378 13.849 38.6797 13.6992C38.3281 13.543 37.9342 13.4648 37.498 13.4648C36.9902 13.4648 36.554 13.5658 36.1895 13.7676C35.8314 13.9629 35.5352 14.2266 35.3008 14.5586C35.0729 14.8906 34.9036 15.278 34.793 15.7207C34.6888 16.1569 34.6367 16.6159 34.6367 17.0977C34.6367 17.7031 34.7018 18.2337 34.832 18.6895C34.9688 19.1452 35.1608 19.526 35.4082 19.832C35.6556 20.1315 35.9551 20.3594 36.3066 20.5156C36.6582 20.6654 37.0553 20.7402 37.498 20.7402C38.0059 20.7402 38.4388 20.6426 38.7969 20.4473C39.1615 20.2454 39.4577 19.9785 39.6855 19.6465C39.9199 19.3145 40.0892 18.9303 40.1934 18.4941C40.304 18.0514 40.3594 17.5859 40.3594 17.0977ZM53.6406 12.1953L52.2148 22H50.1543L48.7383 17.8984L48.4551 16.9023L48.1328 17.957L46.7754 22H44.7734L43.3574 12.1953H45.0176L45.8379 18.8555L46.0137 20.3398L46.4336 19.041L47.8594 14.6367H49.0801L50.6133 18.9824L51.0527 20.2812L51.1992 18.9043L51.9609 12.1953H53.6406Z" fill="#00B2FF"/>
<path d="M87.2715 9.7832C86.3796 9.5944 85.6113 9.5 84.9668 9.5C83.4368 9.5 82.6719 10.3008 82.6719 11.9023V13.6211H86.9688V15.0371H82.6719V22H80.9434V15.0371H77.7891V13.6211H80.9434V12C80.9434 9.38932 82.304 8.08398 85.0254 8.08398C85.7025 8.08398 86.4512 8.16211 87.2715 8.31836V9.7832ZM95.8652 22L95.8262 20.6816C95.2923 21.209 94.7487 21.5898 94.1953 21.8242C93.6484 22.0586 93.0723 22.1758 92.4668 22.1758C91.9069 22.1758 91.4284 22.1042 91.0312 21.9609C90.6341 21.8177 90.3053 21.6224 90.0449 21.375C89.791 21.1211 89.6022 20.8249 89.4785 20.4863C89.3613 20.1478 89.3027 19.7799 89.3027 19.3828C89.3027 18.3997 89.6673 17.6315 90.3965 17.0781C91.1322 16.5182 92.2161 16.2383 93.6484 16.2383H95.6797V15.3789C95.6797 14.7995 95.4941 14.3372 95.123 13.9922C94.752 13.6406 94.1855 13.4648 93.4238 13.4648C92.8704 13.4648 92.3236 13.5267 91.7832 13.6504C91.2493 13.7741 90.696 13.9499 90.123 14.1777V12.6445C90.3379 12.5664 90.5755 12.4915 90.8359 12.4199C91.1029 12.3418 91.3828 12.2734 91.6758 12.2148C91.9688 12.1562 92.2747 12.1107 92.5938 12.0781C92.9128 12.0391 93.235 12.0195 93.5605 12.0195C94.153 12.0195 94.6868 12.0846 95.1621 12.2148C95.6374 12.3451 96.0378 12.5436 96.3633 12.8105C96.6953 13.0775 96.9492 13.4128 97.125 13.8164C97.3008 14.2201 97.3887 14.6953 97.3887 15.2422V22H95.8652ZM95.6797 17.5371H93.5215C93.0983 17.5371 92.7337 17.5794 92.4277 17.6641C92.1217 17.7487 91.8711 17.8691 91.6758 18.0254C91.4805 18.1816 91.334 18.3704 91.2363 18.5918C91.1452 18.8066 91.0996 19.0508 91.0996 19.3242C91.0996 19.513 91.1289 19.6953 91.1875 19.8711C91.2461 20.0404 91.3405 20.1934 91.4707 20.3301C91.6009 20.4603 91.7702 20.5645 91.9785 20.6426C92.1868 20.7207 92.4408 20.7598 92.7402 20.7598C93.1309 20.7598 93.5768 20.6426 94.0781 20.4082C94.5859 20.1673 95.1198 19.7897 95.6797 19.2754V17.5371ZM108.326 19.3242C108.326 19.6693 108.268 19.9785 108.15 20.252C108.033 20.5254 107.874 20.7695 107.672 20.9844C107.47 21.1927 107.236 21.3717 106.969 21.5215C106.702 21.6712 106.415 21.7949 106.109 21.8926C105.81 21.9902 105.501 22.0618 105.182 22.1074C104.863 22.153 104.55 22.1758 104.244 22.1758C103.58 22.1758 102.968 22.1465 102.408 22.0879C101.855 22.0293 101.311 21.9349 100.777 21.8047V20.2422C101.35 20.4049 101.92 20.5286 102.486 20.6133C103.053 20.6979 103.616 20.7402 104.176 20.7402C104.99 20.7402 105.592 20.6296 105.982 20.4082C106.373 20.1868 106.568 19.8711 106.568 19.4609C106.568 19.2852 106.536 19.1289 106.471 18.9922C106.412 18.849 106.301 18.7155 106.139 18.5918C105.976 18.4616 105.722 18.3281 105.377 18.1914C105.038 18.0547 104.573 17.8984 103.98 17.7227C103.538 17.5924 103.128 17.446 102.75 17.2832C102.379 17.1139 102.057 16.9154 101.783 16.6875C101.51 16.4596 101.295 16.1927 101.139 15.8867C100.982 15.5807 100.904 15.2194 100.904 14.8027C100.904 14.5293 100.966 14.2298 101.09 13.9043C101.22 13.5788 101.438 13.276 101.744 12.9961C102.05 12.7161 102.464 12.485 102.984 12.3027C103.505 12.1139 104.156 12.0195 104.938 12.0195C105.322 12.0195 105.748 12.0423 106.217 12.0879C106.686 12.127 107.174 12.1986 107.682 12.3027V13.8164C107.148 13.6862 106.64 13.5918 106.158 13.5332C105.683 13.4681 105.27 13.4355 104.918 13.4355C104.495 13.4355 104.137 13.4681 103.844 13.5332C103.557 13.5983 103.323 13.6895 103.141 13.8066C102.965 13.9173 102.838 14.0508 102.76 14.207C102.682 14.3568 102.643 14.5195 102.643 14.6953C102.643 14.8711 102.675 15.0306 102.74 15.1738C102.812 15.3171 102.939 15.457 103.121 15.5938C103.31 15.724 103.57 15.8574 103.902 15.9941C104.234 16.1243 104.667 16.2676 105.201 16.4238C105.781 16.5931 106.269 16.7721 106.666 16.9609C107.063 17.1432 107.385 17.3483 107.633 17.5762C107.88 17.804 108.056 18.0612 108.16 18.3477C108.271 18.6341 108.326 18.9596 108.326 19.3242ZM119.459 21.8633C119.075 21.9609 118.678 22.0293 118.268 22.0684C117.857 22.1139 117.441 22.1367 117.018 22.1367C115.787 22.1367 114.869 21.86 114.264 21.3066C113.658 20.7467 113.355 19.8906 113.355 18.7383V13.6211H110.611V12.1953H113.355V9.5L115.055 9.06055V12.1953H119.459V13.6211H115.055V18.6016C115.055 19.3047 115.24 19.832 115.611 20.1836C115.989 20.5286 116.542 20.7012 117.271 20.7012C117.584 20.7012 117.926 20.6784 118.297 20.6328C118.668 20.5807 119.055 20.5026 119.459 20.3984V21.8633Z" fill="#FF5500"/>
<path d="M47.8809 49.9929C48.4292 50.0587 48.9271 49.6675 48.9929 49.1191L50.0652 40.1833C50.131 39.6349 49.7398 39.137 49.1915 39.0712C48.6431 39.0054 48.1452 39.3966 48.0794 39.945L47.1263 47.888L39.1833 46.9348C38.6349 46.869 38.137 47.2602 38.0712 47.8085C38.0054 48.3569 38.3966 48.8548 38.945 48.9206L47.8809 49.9929ZM36 29C36 33.984 37.4558 37.4311 39.6191 40.5121C40.6859 42.0315 41.9231 43.4597 43.2111 44.9194C44.5078 46.389 45.8604 47.8955 47.2137 49.6178L48.7863 48.3822C47.3896 46.6045 45.9922 45.0485 44.7108 43.5962C43.4206 42.134 42.2516 40.7809 41.2559 39.3629C39.2942 36.5689 38 33.516 38 29H36Z" fill="#00B2FF"/>
<path d="M81.9338 49.9929C81.3855 50.0587 80.8876 49.6675 80.8218 49.1191L79.7495 40.1833C79.6837 39.6349 80.0749 39.137 80.6232 39.0712C81.1716 39.0054 81.6695 39.3966 81.7353 39.945L82.6884 47.888L90.6314 46.9348C91.1798 46.869 91.6777 47.2602 91.7435 47.8085C91.8093 48.3569 91.4181 48.8548 90.8697 48.9206L81.9338 49.9929ZM93.8147 29C93.8147 33.984 92.3589 37.4311 90.1956 40.5121C89.1288 42.0315 87.8916 43.4597 86.6036 44.9194C85.3069 46.389 83.9543 47.8955 82.601 49.6178L81.0284 48.3822C82.4251 46.6045 83.8225 45.0485 85.1039 43.5962C86.3941 42.134 87.5631 40.7809 88.5588 39.3629C90.5205 36.5689 91.8147 33.516 91.8147 29H93.8147Z" fill="#FF5500"/>
</g>
<defs>
<clipPath id="clip0_6252_379">
<rect width="458" height="95" fill="white"/>
</clipPath>
</defs>
</svg>
