<svg width="1088" height="136" viewBox="0 0 1088 136" fill="none" xmlns="http://www.w3.org/2000/svg">
<g clip-path="url(#clip0_6296_4869)">
<rect width="1088" height="136" fill="white"/>
<rect x="142" y="98" width="38" height="38" rx="19" fill="#FF5500" fill-opacity="0.2"/>
<rect x="274" y="98" width="38" height="38" rx="19" fill="#FF5500" fill-opacity="0.2"/>
<rect x="142" y="48" width="38" height="38" rx="19" fill="#FF5500" fill-opacity="0.2"/>
<rect x="274" y="48" width="38" height="38" rx="19" fill="#FF5500" fill-opacity="0.2"/>
<rect x="398" y="98" width="38" height="38" rx="19" fill="#00B2FF" fill-opacity="0.2"/>
<rect x="530" y="98" width="38" height="38" rx="19" fill="#00B2FF" fill-opacity="0.2"/>
<rect x="662" y="98" width="38" height="38" rx="19" fill="#00B2FF" fill-opacity="0.2"/>
<rect x="398" y="1" width="38" height="38" rx="19" fill="#00B2FF" fill-opacity="0.2"/>
<rect x="530" y="1" width="38" height="38" rx="19" fill="#00B2FF" fill-opacity="0.2"/>
<rect x="76" y="1" width="38" height="38" rx="19" fill="#00B2FF" fill-opacity="0.2"/>
<rect x="208" y="1" width="38" height="38" rx="19" fill="#00B2FF" fill-opacity="0.2"/>
<rect x="76" y="98" width="38" height="38" rx="19" fill="#00B2FF" fill-opacity="0.2"/>
<rect x="208" y="98" width="38" height="38" rx="19" fill="#00B2FF" fill-opacity="0.2"/>
<rect x="662" y="1" width="38" height="38" rx="19" fill="#00B2FF" fill-opacity="0.2"/>
<rect x="464" y="49" width="38" height="38" rx="19" fill="#FF5500" fill-opacity="0.2"/>
<rect x="596" y="49" width="38" height="38" rx="19" fill="#FF5500" fill-opacity="0.2"/>
<rect x="728" y="49" width="38" height="38" rx="19" fill="#FF5500" fill-opacity="0.2"/>
<rect x="464" y="98" width="38" height="38" rx="19" fill="#FF5500" fill-opacity="0.2"/>
<rect x="596" y="98" width="38" height="38" rx="19" fill="#FF5500" fill-opacity="0.2"/>
<rect x="728" y="98" width="38" height="38" rx="19" fill="#FF5500" fill-opacity="0.2"/>
<path d="M344.426 64.9238C344.647 64.9238 344.855 64.9661 345.051 65.0508C345.253 65.1354 345.425 65.2526 345.568 65.4023C345.718 65.5521 345.835 65.7279 345.92 65.9297C346.005 66.125 346.047 66.3366 346.047 66.5645C346.047 66.7858 346.005 66.9941 345.92 67.1895C345.835 67.3848 345.718 67.5573 345.568 67.707C345.425 67.8503 345.253 67.9642 345.051 68.0488C344.855 68.1335 344.647 68.1758 344.426 68.1758C344.198 68.1758 343.986 68.1335 343.791 68.0488C343.596 67.9642 343.423 67.8503 343.273 67.707C343.13 67.5573 343.016 67.3848 342.932 67.1895C342.847 66.9941 342.805 66.7858 342.805 66.5645C342.805 66.3366 342.847 66.125 342.932 65.9297C343.016 65.7279 343.13 65.5521 343.273 65.4023C343.423 65.2526 343.596 65.1354 343.791 65.0508C343.986 64.9661 344.198 64.9238 344.426 64.9238ZM355.422 64.9238C355.643 64.9238 355.852 64.9661 356.047 65.0508C356.249 65.1354 356.421 65.2526 356.564 65.4023C356.714 65.5521 356.831 65.7279 356.916 65.9297C357.001 66.125 357.043 66.3366 357.043 66.5645C357.043 66.7858 357.001 66.9941 356.916 67.1895C356.831 67.3848 356.714 67.5573 356.564 67.707C356.421 67.8503 356.249 67.9642 356.047 68.0488C355.852 68.1335 355.643 68.1758 355.422 68.1758C355.194 68.1758 354.982 68.1335 354.787 68.0488C354.592 67.9642 354.419 67.8503 354.27 67.707C354.126 67.5573 354.012 67.3848 353.928 67.1895C353.843 66.9941 353.801 66.7858 353.801 66.5645C353.801 66.3366 353.843 66.125 353.928 65.9297C354.012 65.7279 354.126 65.5521 354.27 65.4023C354.419 65.2526 354.592 65.1354 354.787 65.0508C354.982 64.9661 355.194 64.9238 355.422 64.9238ZM366.418 64.9238C366.639 64.9238 366.848 64.9661 367.043 65.0508C367.245 65.1354 367.417 65.2526 367.561 65.4023C367.71 65.5521 367.827 65.7279 367.912 65.9297C367.997 66.125 368.039 66.3366 368.039 66.5645C368.039 66.7858 367.997 66.9941 367.912 67.1895C367.827 67.3848 367.71 67.5573 367.561 67.707C367.417 67.8503 367.245 67.9642 367.043 68.0488C366.848 68.1335 366.639 68.1758 366.418 68.1758C366.19 68.1758 365.979 68.1335 365.783 68.0488C365.588 67.9642 365.415 67.8503 365.266 67.707C365.122 67.5573 365.008 67.3848 364.924 67.1895C364.839 66.9941 364.797 66.7858 364.797 66.5645C364.797 66.3366 364.839 66.125 364.924 65.9297C365.008 65.7279 365.122 65.5521 365.266 65.4023C365.415 65.2526 365.588 65.1354 365.783 65.0508C365.979 64.9661 366.19 64.9238 366.418 64.9238Z" fill="black"/>
<path d="M424.205 67.4346C424.205 68.8994 424.059 70.2373 423.766 71.4482C423.473 72.6494 423.028 73.6846 422.433 74.5537C421.837 75.4131 421.095 76.082 420.206 76.5605C419.327 77.0293 418.292 77.2637 417.101 77.2637C416.075 77.2637 415.143 77.0732 414.303 76.6924C413.463 76.3018 412.745 75.7061 412.149 74.9053C411.554 74.1045 411.095 73.084 410.772 71.8438C410.45 70.6035 410.289 69.1338 410.289 67.4346C410.289 65.9697 410.436 64.6318 410.729 63.4209C411.031 62.21 411.476 61.1748 412.062 60.3154C412.657 59.4463 413.399 58.7773 414.288 58.3086C415.177 57.8301 416.212 57.5908 417.394 57.5908C418.419 57.5908 419.352 57.7861 420.191 58.1768C421.031 58.5576 421.749 59.1533 422.345 59.9639C422.94 60.7646 423.399 61.7852 423.722 63.0254C424.044 64.2656 424.205 65.7354 424.205 67.4346ZM421.627 67.5225C421.627 67.1904 421.612 66.8633 421.583 66.541C421.563 66.209 421.539 65.8867 421.51 65.5742L413.409 71.5947C413.556 72.1025 413.741 72.5713 413.966 73.001C414.19 73.4307 414.459 73.8018 414.771 74.1143C415.094 74.417 415.455 74.6562 415.855 74.832C416.266 74.998 416.729 75.0811 417.247 75.0811C417.911 75.0811 418.512 74.9199 419.049 74.5977C419.596 74.2754 420.06 73.7969 420.44 73.1621C420.821 72.5273 421.114 71.7412 421.319 70.8037C421.524 69.8564 421.627 68.7627 421.627 67.5225ZM412.867 67.3467C412.867 67.6494 412.867 67.9521 412.867 68.2549C412.877 68.5576 412.896 68.8506 412.926 69.1338L421.026 63.1426C420.88 62.6445 420.694 62.1904 420.47 61.7803C420.245 61.3701 419.977 61.0186 419.664 60.7256C419.352 60.4229 418.995 60.1885 418.595 60.0225C418.194 59.8564 417.745 59.7734 417.247 59.7734C416.583 59.7734 415.978 59.9346 415.431 60.2568C414.894 60.5791 414.435 61.0625 414.054 61.707C413.673 62.3418 413.38 63.1328 413.175 64.0801C412.97 65.0176 412.867 66.1064 412.867 67.3467ZM489.599 77H477.572V74.627H482.494V60.6523L477.909 63.1426L476.972 60.9746L483.065 57.7666H485.321V74.627H489.599V77ZM556.193 67.4346C556.193 68.8994 556.047 70.2373 555.754 71.4482C555.461 72.6494 555.017 73.6846 554.421 74.5537C553.825 75.4131 553.083 76.082 552.194 76.5605C551.315 77.0293 550.28 77.2637 549.089 77.2637C548.063 77.2637 547.131 77.0732 546.291 76.6924C545.451 76.3018 544.733 75.7061 544.138 74.9053C543.542 74.1045 543.083 73.084 542.761 71.8438C542.438 70.6035 542.277 69.1338 542.277 67.4346C542.277 65.9697 542.424 64.6318 542.717 63.4209C543.02 62.21 543.464 61.1748 544.05 60.3154C544.646 59.4463 545.388 58.7773 546.276 58.3086C547.165 57.8301 548.2 57.5908 549.382 57.5908C550.407 57.5908 551.34 57.7861 552.18 58.1768C553.02 58.5576 553.737 59.1533 554.333 59.9639C554.929 60.7646 555.388 61.7852 555.71 63.0254C556.032 64.2656 556.193 65.7354 556.193 67.4346ZM553.615 67.5225C553.615 67.1904 553.601 66.8633 553.571 66.541C553.552 66.209 553.527 65.8867 553.498 65.5742L545.397 71.5947C545.544 72.1025 545.729 72.5713 545.954 73.001C546.179 73.4307 546.447 73.8018 546.76 74.1143C547.082 74.417 547.443 74.6562 547.844 74.832C548.254 74.998 548.718 75.0811 549.235 75.0811C549.899 75.0811 550.5 74.9199 551.037 74.5977C551.584 74.2754 552.048 73.7969 552.429 73.1621C552.81 72.5273 553.103 71.7412 553.308 70.8037C553.513 69.8564 553.615 68.7627 553.615 67.5225ZM544.855 67.3467C544.855 67.6494 544.855 67.9521 544.855 68.2549C544.865 68.5576 544.885 68.8506 544.914 69.1338L553.015 63.1426C552.868 62.6445 552.683 62.1904 552.458 61.7803C552.233 61.3701 551.965 61.0186 551.652 60.7256C551.34 60.4229 550.983 60.1885 550.583 60.0225C550.183 59.8564 549.733 59.7734 549.235 59.7734C548.571 59.7734 547.966 59.9346 547.419 60.2568C546.882 60.5791 546.423 61.0625 546.042 61.707C545.661 62.3418 545.368 63.1328 545.163 64.0801C544.958 65.0176 544.855 66.1064 544.855 67.3467ZM621.587 77H609.561V74.627H614.482V60.6523L609.897 63.1426L608.96 60.9746L615.054 57.7666H617.31V74.627H621.587V77ZM688.182 67.4346C688.182 68.8994 688.035 70.2373 687.742 71.4482C687.449 72.6494 687.005 73.6846 686.409 74.5537C685.813 75.4131 685.071 76.082 684.183 76.5605C683.304 77.0293 682.269 77.2637 681.077 77.2637C680.052 77.2637 679.119 77.0732 678.279 76.6924C677.439 76.3018 676.722 75.7061 676.126 74.9053C675.53 74.1045 675.071 73.084 674.749 71.8438C674.427 70.6035 674.266 69.1338 674.266 67.4346C674.266 65.9697 674.412 64.6318 674.705 63.4209C675.008 62.21 675.452 61.1748 676.038 60.3154C676.634 59.4463 677.376 58.7773 678.265 58.3086C679.153 57.8301 680.188 57.5908 681.37 57.5908C682.396 57.5908 683.328 57.7861 684.168 58.1768C685.008 58.5576 685.726 59.1533 686.321 59.9639C686.917 60.7646 687.376 61.7852 687.698 63.0254C688.021 64.2656 688.182 65.7354 688.182 67.4346ZM685.604 67.5225C685.604 67.1904 685.589 66.8633 685.56 66.541C685.54 66.209 685.516 65.8867 685.486 65.5742L677.386 71.5947C677.532 72.1025 677.718 72.5713 677.942 73.001C678.167 73.4307 678.436 73.8018 678.748 74.1143C679.07 74.417 679.432 74.6562 679.832 74.832C680.242 74.998 680.706 75.0811 681.224 75.0811C681.888 75.0811 682.488 74.9199 683.025 74.5977C683.572 74.2754 684.036 73.7969 684.417 73.1621C684.798 72.5273 685.091 71.7412 685.296 70.8037C685.501 69.8564 685.604 68.7627 685.604 67.5225ZM676.844 67.3467C676.844 67.6494 676.844 67.9521 676.844 68.2549C676.854 68.5576 676.873 68.8506 676.902 69.1338L685.003 63.1426C684.856 62.6445 684.671 62.1904 684.446 61.7803C684.222 61.3701 683.953 61.0186 683.641 60.7256C683.328 60.4229 682.972 60.1885 682.571 60.0225C682.171 59.8564 681.722 59.7734 681.224 59.7734C680.56 59.7734 679.954 59.9346 679.407 60.2568C678.87 60.5791 678.411 61.0625 678.03 61.707C677.649 62.3418 677.356 63.1328 677.151 64.0801C676.946 65.0176 676.844 66.1064 676.844 67.3467ZM754.176 67.4346C754.176 68.8994 754.029 70.2373 753.736 71.4482C753.443 72.6494 752.999 73.6846 752.403 74.5537C751.808 75.4131 751.065 76.082 750.177 76.5605C749.298 77.0293 748.263 77.2637 747.071 77.2637C746.046 77.2637 745.113 77.0732 744.273 76.6924C743.434 76.3018 742.716 75.7061 742.12 74.9053C741.524 74.1045 741.065 73.084 740.743 71.8438C740.421 70.6035 740.26 69.1338 740.26 67.4346C740.26 65.9697 740.406 64.6318 740.699 63.4209C741.002 62.21 741.446 61.1748 742.032 60.3154C742.628 59.4463 743.37 58.7773 744.259 58.3086C745.147 57.8301 746.183 57.5908 747.364 57.5908C748.39 57.5908 749.322 57.7861 750.162 58.1768C751.002 58.5576 751.72 59.1533 752.315 59.9639C752.911 60.7646 753.37 61.7852 753.692 63.0254C754.015 64.2656 754.176 65.7354 754.176 67.4346ZM751.598 67.5225C751.598 67.1904 751.583 66.8633 751.554 66.541C751.534 66.209 751.51 65.8867 751.48 65.5742L743.38 71.5947C743.526 72.1025 743.712 72.5713 743.937 73.001C744.161 73.4307 744.43 73.8018 744.742 74.1143C745.064 74.417 745.426 74.6562 745.826 74.832C746.236 74.998 746.7 75.0811 747.218 75.0811C747.882 75.0811 748.482 74.9199 749.02 74.5977C749.566 74.2754 750.03 73.7969 750.411 73.1621C750.792 72.5273 751.085 71.7412 751.29 70.8037C751.495 69.8564 751.598 68.7627 751.598 67.5225ZM742.838 67.3467C742.838 67.6494 742.838 67.9521 742.838 68.2549C742.848 68.5576 742.867 68.8506 742.896 69.1338L750.997 63.1426C750.851 62.6445 750.665 62.1904 750.44 61.7803C750.216 61.3701 749.947 61.0186 749.635 60.7256C749.322 60.4229 748.966 60.1885 748.565 60.0225C748.165 59.8564 747.716 59.7734 747.218 59.7734C746.554 59.7734 745.948 59.9346 745.401 60.2568C744.864 60.5791 744.405 61.0625 744.024 61.707C743.644 62.3418 743.351 63.1328 743.146 64.0801C742.94 65.0176 742.838 66.1064 742.838 67.3467Z" fill="black"/>
<path d="M102.205 67.4346C102.205 68.8994 102.059 70.2373 101.766 71.4482C101.473 72.6494 101.028 73.6846 100.433 74.5537C99.8369 75.4131 99.0947 76.082 98.2061 76.5605C97.3271 77.0293 96.292 77.2637 95.1006 77.2637C94.0752 77.2637 93.1426 77.0732 92.3027 76.6924C91.4629 76.3018 90.7451 75.7061 90.1494 74.9053C89.5537 74.1045 89.0947 73.084 88.7725 71.8438C88.4502 70.6035 88.2891 69.1338 88.2891 67.4346C88.2891 65.9697 88.4355 64.6318 88.7285 63.4209C89.0312 62.21 89.4756 61.1748 90.0615 60.3154C90.6572 59.4463 91.3994 58.7773 92.2881 58.3086C93.1768 57.8301 94.2119 57.5908 95.3936 57.5908C96.4189 57.5908 97.3516 57.7861 98.1914 58.1768C99.0312 58.5576 99.749 59.1533 100.345 59.9639C100.94 60.7646 101.399 61.7852 101.722 63.0254C102.044 64.2656 102.205 65.7354 102.205 67.4346ZM99.627 67.5225C99.627 67.1904 99.6123 66.8633 99.583 66.541C99.5635 66.209 99.5391 65.8867 99.5098 65.5742L91.4092 71.5947C91.5557 72.1025 91.7412 72.5713 91.9658 73.001C92.1904 73.4307 92.459 73.8018 92.7715 74.1143C93.0938 74.417 93.4551 74.6562 93.8555 74.832C94.2656 74.998 94.7295 75.0811 95.2471 75.0811C95.9111 75.0811 96.5117 74.9199 97.0488 74.5977C97.5957 74.2754 98.0596 73.7969 98.4404 73.1621C98.8213 72.5273 99.1143 71.7412 99.3193 70.8037C99.5244 69.8564 99.627 68.7627 99.627 67.5225ZM90.8672 67.3467C90.8672 67.6494 90.8672 67.9521 90.8672 68.2549C90.877 68.5576 90.8965 68.8506 90.9258 69.1338L99.0264 63.1426C98.8799 62.6445 98.6943 62.1904 98.4697 61.7803C98.2451 61.3701 97.9766 61.0186 97.6641 60.7256C97.3516 60.4229 96.9951 60.1885 96.5947 60.0225C96.1943 59.8564 95.7451 59.7734 95.2471 59.7734C94.583 59.7734 93.9775 59.9346 93.4307 60.2568C92.8936 60.5791 92.4346 61.0625 92.0537 61.707C91.6729 62.3418 91.3799 63.1328 91.1748 64.0801C90.9697 65.0176 90.8672 66.1064 90.8672 67.3467ZM168.199 67.4346C168.199 68.8994 168.053 70.2373 167.76 71.4482C167.467 72.6494 167.022 73.6846 166.427 74.5537C165.831 75.4131 165.089 76.082 164.2 76.5605C163.321 77.0293 162.286 77.2637 161.095 77.2637C160.069 77.2637 159.137 77.0732 158.297 76.6924C157.457 76.3018 156.739 75.7061 156.144 74.9053C155.548 74.1045 155.089 73.084 154.767 71.8438C154.444 70.6035 154.283 69.1338 154.283 67.4346C154.283 65.9697 154.43 64.6318 154.723 63.4209C155.025 62.21 155.47 61.1748 156.056 60.3154C156.651 59.4463 157.394 58.7773 158.282 58.3086C159.171 57.8301 160.206 57.5908 161.388 57.5908C162.413 57.5908 163.346 57.7861 164.186 58.1768C165.025 58.5576 165.743 59.1533 166.339 59.9639C166.935 60.7646 167.394 61.7852 167.716 63.0254C168.038 64.2656 168.199 65.7354 168.199 67.4346ZM165.621 67.5225C165.621 67.1904 165.606 66.8633 165.577 66.541C165.558 66.209 165.533 65.8867 165.504 65.5742L157.403 71.5947C157.55 72.1025 157.735 72.5713 157.96 73.001C158.185 73.4307 158.453 73.8018 158.766 74.1143C159.088 74.417 159.449 74.6562 159.85 74.832C160.26 74.998 160.724 75.0811 161.241 75.0811C161.905 75.0811 162.506 74.9199 163.043 74.5977C163.59 74.2754 164.054 73.7969 164.435 73.1621C164.815 72.5273 165.108 71.7412 165.313 70.8037C165.519 69.8564 165.621 68.7627 165.621 67.5225ZM156.861 67.3467C156.861 67.6494 156.861 67.9521 156.861 68.2549C156.871 68.5576 156.891 68.8506 156.92 69.1338L165.021 63.1426C164.874 62.6445 164.688 62.1904 164.464 61.7803C164.239 61.3701 163.971 61.0186 163.658 60.7256C163.346 60.4229 162.989 60.1885 162.589 60.0225C162.188 59.8564 161.739 59.7734 161.241 59.7734C160.577 59.7734 159.972 59.9346 159.425 60.2568C158.888 60.5791 158.429 61.0625 158.048 61.707C157.667 62.3418 157.374 63.1328 157.169 64.0801C156.964 65.0176 156.861 66.1064 156.861 67.3467ZM234.193 67.4346C234.193 68.8994 234.047 70.2373 233.754 71.4482C233.461 72.6494 233.017 73.6846 232.421 74.5537C231.825 75.4131 231.083 76.082 230.194 76.5605C229.315 77.0293 228.28 77.2637 227.089 77.2637C226.063 77.2637 225.131 77.0732 224.291 76.6924C223.451 76.3018 222.733 75.7061 222.138 74.9053C221.542 74.1045 221.083 73.084 220.761 71.8438C220.438 70.6035 220.277 69.1338 220.277 67.4346C220.277 65.9697 220.424 64.6318 220.717 63.4209C221.02 62.21 221.464 61.1748 222.05 60.3154C222.646 59.4463 223.388 58.7773 224.276 58.3086C225.165 57.8301 226.2 57.5908 227.382 57.5908C228.407 57.5908 229.34 57.7861 230.18 58.1768C231.02 58.5576 231.737 59.1533 232.333 59.9639C232.929 60.7646 233.388 61.7852 233.71 63.0254C234.032 64.2656 234.193 65.7354 234.193 67.4346ZM231.615 67.5225C231.615 67.1904 231.601 66.8633 231.571 66.541C231.552 66.209 231.527 65.8867 231.498 65.5742L223.397 71.5947C223.544 72.1025 223.729 72.5713 223.954 73.001C224.179 73.4307 224.447 73.8018 224.76 74.1143C225.082 74.417 225.443 74.6562 225.844 74.832C226.254 74.998 226.718 75.0811 227.235 75.0811C227.899 75.0811 228.5 74.9199 229.037 74.5977C229.584 74.2754 230.048 73.7969 230.429 73.1621C230.81 72.5273 231.103 71.7412 231.308 70.8037C231.513 69.8564 231.615 68.7627 231.615 67.5225ZM222.855 67.3467C222.855 67.6494 222.855 67.9521 222.855 68.2549C222.865 68.5576 222.885 68.8506 222.914 69.1338L231.015 63.1426C230.868 62.6445 230.683 62.1904 230.458 61.7803C230.233 61.3701 229.965 61.0186 229.652 60.7256C229.34 60.4229 228.983 60.1885 228.583 60.0225C228.183 59.8564 227.733 59.7734 227.235 59.7734C226.571 59.7734 225.966 59.9346 225.419 60.2568C224.882 60.5791 224.423 61.0625 224.042 61.707C223.661 62.3418 223.368 63.1328 223.163 64.0801C222.958 65.0176 222.855 66.1064 222.855 67.3467ZM300.188 67.4346C300.188 68.8994 300.041 70.2373 299.748 71.4482C299.455 72.6494 299.011 73.6846 298.415 74.5537C297.819 75.4131 297.077 76.082 296.188 76.5605C295.31 77.0293 294.274 77.2637 293.083 77.2637C292.058 77.2637 291.125 77.0732 290.285 76.6924C289.445 76.3018 288.728 75.7061 288.132 74.9053C287.536 74.1045 287.077 73.084 286.755 71.8438C286.433 70.6035 286.271 69.1338 286.271 67.4346C286.271 65.9697 286.418 64.6318 286.711 63.4209C287.014 62.21 287.458 61.1748 288.044 60.3154C288.64 59.4463 289.382 58.7773 290.271 58.3086C291.159 57.8301 292.194 57.5908 293.376 57.5908C294.401 57.5908 295.334 57.7861 296.174 58.1768C297.014 58.5576 297.731 59.1533 298.327 59.9639C298.923 60.7646 299.382 61.7852 299.704 63.0254C300.026 64.2656 300.188 65.7354 300.188 67.4346ZM297.609 67.5225C297.609 67.1904 297.595 66.8633 297.565 66.541C297.546 66.209 297.521 65.8867 297.492 65.5742L289.392 71.5947C289.538 72.1025 289.724 72.5713 289.948 73.001C290.173 73.4307 290.441 73.8018 290.754 74.1143C291.076 74.417 291.438 74.6562 291.838 74.832C292.248 74.998 292.712 75.0811 293.229 75.0811C293.894 75.0811 294.494 74.9199 295.031 74.5977C295.578 74.2754 296.042 73.7969 296.423 73.1621C296.804 72.5273 297.097 71.7412 297.302 70.8037C297.507 69.8564 297.609 68.7627 297.609 67.5225ZM288.85 67.3467C288.85 67.6494 288.85 67.9521 288.85 68.2549C288.859 68.5576 288.879 68.8506 288.908 69.1338L297.009 63.1426C296.862 62.6445 296.677 62.1904 296.452 61.7803C296.228 61.3701 295.959 61.0186 295.646 60.7256C295.334 60.4229 294.978 60.1885 294.577 60.0225C294.177 59.8564 293.728 59.7734 293.229 59.7734C292.565 59.7734 291.96 59.9346 291.413 60.2568C290.876 60.5791 290.417 61.0625 290.036 61.707C289.655 62.3418 289.362 63.1328 289.157 64.0801C288.952 65.0176 288.85 66.1064 288.85 67.3467Z" fill="black"/>
<path d="M344.426 16.9238C344.647 16.9238 344.855 16.9661 345.051 17.0508C345.253 17.1354 345.425 17.2526 345.568 17.4023C345.718 17.5521 345.835 17.7279 345.92 17.9297C346.005 18.125 346.047 18.3366 346.047 18.5645C346.047 18.7858 346.005 18.9941 345.92 19.1895C345.835 19.3848 345.718 19.5573 345.568 19.707C345.425 19.8503 345.253 19.9642 345.051 20.0488C344.855 20.1335 344.647 20.1758 344.426 20.1758C344.198 20.1758 343.986 20.1335 343.791 20.0488C343.596 19.9642 343.423 19.8503 343.273 19.707C343.13 19.5573 343.016 19.3848 342.932 19.1895C342.847 18.9941 342.805 18.7858 342.805 18.5645C342.805 18.3366 342.847 18.125 342.932 17.9297C343.016 17.7279 343.13 17.5521 343.273 17.4023C343.423 17.2526 343.596 17.1354 343.791 17.0508C343.986 16.9661 344.198 16.9238 344.426 16.9238ZM355.422 16.9238C355.643 16.9238 355.852 16.9661 356.047 17.0508C356.249 17.1354 356.421 17.2526 356.564 17.4023C356.714 17.5521 356.831 17.7279 356.916 17.9297C357.001 18.125 357.043 18.3366 357.043 18.5645C357.043 18.7858 357.001 18.9941 356.916 19.1895C356.831 19.3848 356.714 19.5573 356.564 19.707C356.421 19.8503 356.249 19.9642 356.047 20.0488C355.852 20.1335 355.643 20.1758 355.422 20.1758C355.194 20.1758 354.982 20.1335 354.787 20.0488C354.592 19.9642 354.419 19.8503 354.27 19.707C354.126 19.5573 354.012 19.3848 353.928 19.1895C353.843 18.9941 353.801 18.7858 353.801 18.5645C353.801 18.3366 353.843 18.125 353.928 17.9297C354.012 17.7279 354.126 17.5521 354.27 17.4023C354.419 17.2526 354.592 17.1354 354.787 17.0508C354.982 16.9661 355.194 16.9238 355.422 16.9238ZM366.418 16.9238C366.639 16.9238 366.848 16.9661 367.043 17.0508C367.245 17.1354 367.417 17.2526 367.561 17.4023C367.71 17.5521 367.827 17.7279 367.912 17.9297C367.997 18.125 368.039 18.3366 368.039 18.5645C368.039 18.7858 367.997 18.9941 367.912 19.1895C367.827 19.3848 367.71 19.5573 367.561 19.707C367.417 19.8503 367.245 19.9642 367.043 20.0488C366.848 20.1335 366.639 20.1758 366.418 20.1758C366.19 20.1758 365.979 20.1335 365.783 20.0488C365.588 19.9642 365.415 19.8503 365.266 19.707C365.122 19.5573 365.008 19.3848 364.924 19.1895C364.839 18.9941 364.797 18.7858 364.797 18.5645C364.797 18.3366 364.839 18.125 364.924 17.9297C365.008 17.7279 365.122 17.5521 365.266 17.4023C365.415 17.2526 365.588 17.1354 365.783 17.0508C365.979 16.9661 366.19 16.9238 366.418 16.9238Z" fill="black"/>
<path d="M424.205 19.4346C424.205 20.8994 424.059 22.2373 423.766 23.4482C423.473 24.6494 423.028 25.6846 422.433 26.5537C421.837 27.4131 421.095 28.082 420.206 28.5605C419.327 29.0293 418.292 29.2637 417.101 29.2637C416.075 29.2637 415.143 29.0732 414.303 28.6924C413.463 28.3018 412.745 27.7061 412.149 26.9053C411.554 26.1045 411.095 25.084 410.772 23.8438C410.45 22.6035 410.289 21.1338 410.289 19.4346C410.289 17.9697 410.436 16.6318 410.729 15.4209C411.031 14.21 411.476 13.1748 412.062 12.3154C412.657 11.4463 413.399 10.7773 414.288 10.3086C415.177 9.83008 416.212 9.59082 417.394 9.59082C418.419 9.59082 419.352 9.78613 420.191 10.1768C421.031 10.5576 421.749 11.1533 422.345 11.9639C422.94 12.7646 423.399 13.7852 423.722 15.0254C424.044 16.2656 424.205 17.7354 424.205 19.4346ZM421.627 19.5225C421.627 19.1904 421.612 18.8633 421.583 18.541C421.563 18.209 421.539 17.8867 421.51 17.5742L413.409 23.5947C413.556 24.1025 413.741 24.5713 413.966 25.001C414.19 25.4307 414.459 25.8018 414.771 26.1143C415.094 26.417 415.455 26.6562 415.855 26.832C416.266 26.998 416.729 27.0811 417.247 27.0811C417.911 27.0811 418.512 26.9199 419.049 26.5977C419.596 26.2754 420.06 25.7969 420.44 25.1621C420.821 24.5273 421.114 23.7412 421.319 22.8037C421.524 21.8564 421.627 20.7627 421.627 19.5225ZM412.867 19.3467C412.867 19.6494 412.867 19.9521 412.867 20.2549C412.877 20.5576 412.896 20.8506 412.926 21.1338L421.026 15.1426C420.88 14.6445 420.694 14.1904 420.47 13.7803C420.245 13.3701 419.977 13.0186 419.664 12.7256C419.352 12.4229 418.995 12.1885 418.595 12.0225C418.194 11.8564 417.745 11.7734 417.247 11.7734C416.583 11.7734 415.978 11.9346 415.431 12.2568C414.894 12.5791 414.435 13.0625 414.054 13.707C413.673 14.3418 413.38 15.1328 413.175 16.0801C412.97 17.0176 412.867 18.1064 412.867 19.3467ZM490.199 19.4346C490.199 20.8994 490.053 22.2373 489.76 23.4482C489.467 24.6494 489.022 25.6846 488.427 26.5537C487.831 27.4131 487.089 28.082 486.2 28.5605C485.321 29.0293 484.286 29.2637 483.095 29.2637C482.069 29.2637 481.137 29.0732 480.297 28.6924C479.457 28.3018 478.739 27.7061 478.144 26.9053C477.548 26.1045 477.089 25.084 476.767 23.8438C476.444 22.6035 476.283 21.1338 476.283 19.4346C476.283 17.9697 476.43 16.6318 476.723 15.4209C477.025 14.21 477.47 13.1748 478.056 12.3154C478.651 11.4463 479.394 10.7773 480.282 10.3086C481.171 9.83008 482.206 9.59082 483.388 9.59082C484.413 9.59082 485.346 9.78613 486.186 10.1768C487.025 10.5576 487.743 11.1533 488.339 11.9639C488.935 12.7646 489.394 13.7852 489.716 15.0254C490.038 16.2656 490.199 17.7354 490.199 19.4346ZM487.621 19.5225C487.621 19.1904 487.606 18.8633 487.577 18.541C487.558 18.209 487.533 17.8867 487.504 17.5742L479.403 23.5947C479.55 24.1025 479.735 24.5713 479.96 25.001C480.185 25.4307 480.453 25.8018 480.766 26.1143C481.088 26.417 481.449 26.6562 481.85 26.832C482.26 26.998 482.724 27.0811 483.241 27.0811C483.905 27.0811 484.506 26.9199 485.043 26.5977C485.59 26.2754 486.054 25.7969 486.435 25.1621C486.815 24.5273 487.108 23.7412 487.313 22.8037C487.519 21.8564 487.621 20.7627 487.621 19.5225ZM478.861 19.3467C478.861 19.6494 478.861 19.9521 478.861 20.2549C478.871 20.5576 478.891 20.8506 478.92 21.1338L487.021 15.1426C486.874 14.6445 486.688 14.1904 486.464 13.7803C486.239 13.3701 485.971 13.0186 485.658 12.7256C485.346 12.4229 484.989 12.1885 484.589 12.0225C484.188 11.8564 483.739 11.7734 483.241 11.7734C482.577 11.7734 481.972 11.9346 481.425 12.2568C480.888 12.5791 480.429 13.0625 480.048 13.707C479.667 14.3418 479.374 15.1328 479.169 16.0801C478.964 17.0176 478.861 18.1064 478.861 19.3467ZM556.193 19.4346C556.193 20.8994 556.047 22.2373 555.754 23.4482C555.461 24.6494 555.017 25.6846 554.421 26.5537C553.825 27.4131 553.083 28.082 552.194 28.5605C551.315 29.0293 550.28 29.2637 549.089 29.2637C548.063 29.2637 547.131 29.0732 546.291 28.6924C545.451 28.3018 544.733 27.7061 544.138 26.9053C543.542 26.1045 543.083 25.084 542.761 23.8438C542.438 22.6035 542.277 21.1338 542.277 19.4346C542.277 17.9697 542.424 16.6318 542.717 15.4209C543.02 14.21 543.464 13.1748 544.05 12.3154C544.646 11.4463 545.388 10.7773 546.276 10.3086C547.165 9.83008 548.2 9.59082 549.382 9.59082C550.407 9.59082 551.34 9.78613 552.18 10.1768C553.02 10.5576 553.737 11.1533 554.333 11.9639C554.929 12.7646 555.388 13.7852 555.71 15.0254C556.032 16.2656 556.193 17.7354 556.193 19.4346ZM553.615 19.5225C553.615 19.1904 553.601 18.8633 553.571 18.541C553.552 18.209 553.527 17.8867 553.498 17.5742L545.397 23.5947C545.544 24.1025 545.729 24.5713 545.954 25.001C546.179 25.4307 546.447 25.8018 546.76 26.1143C547.082 26.417 547.443 26.6562 547.844 26.832C548.254 26.998 548.718 27.0811 549.235 27.0811C549.899 27.0811 550.5 26.9199 551.037 26.5977C551.584 26.2754 552.048 25.7969 552.429 25.1621C552.81 24.5273 553.103 23.7412 553.308 22.8037C553.513 21.8564 553.615 20.7627 553.615 19.5225ZM544.855 19.3467C544.855 19.6494 544.855 19.9521 544.855 20.2549C544.865 20.5576 544.885 20.8506 544.914 21.1338L553.015 15.1426C552.868 14.6445 552.683 14.1904 552.458 13.7803C552.233 13.3701 551.965 13.0186 551.652 12.7256C551.34 12.4229 550.983 12.1885 550.583 12.0225C550.183 11.8564 549.733 11.7734 549.235 11.7734C548.571 11.7734 547.966 11.9346 547.419 12.2568C546.882 12.5791 546.423 13.0625 546.042 13.707C545.661 14.3418 545.368 15.1328 545.163 16.0801C544.958 17.0176 544.855 18.1064 544.855 19.3467ZM622.188 19.4346C622.188 20.8994 622.041 22.2373 621.748 23.4482C621.455 24.6494 621.011 25.6846 620.415 26.5537C619.819 27.4131 619.077 28.082 618.188 28.5605C617.31 29.0293 616.274 29.2637 615.083 29.2637C614.058 29.2637 613.125 29.0732 612.285 28.6924C611.445 28.3018 610.728 27.7061 610.132 26.9053C609.536 26.1045 609.077 25.084 608.755 23.8438C608.433 22.6035 608.271 21.1338 608.271 19.4346C608.271 17.9697 608.418 16.6318 608.711 15.4209C609.014 14.21 609.458 13.1748 610.044 12.3154C610.64 11.4463 611.382 10.7773 612.271 10.3086C613.159 9.83008 614.194 9.59082 615.376 9.59082C616.401 9.59082 617.334 9.78613 618.174 10.1768C619.014 10.5576 619.731 11.1533 620.327 11.9639C620.923 12.7646 621.382 13.7852 621.704 15.0254C622.026 16.2656 622.188 17.7354 622.188 19.4346ZM619.609 19.5225C619.609 19.1904 619.595 18.8633 619.565 18.541C619.546 18.209 619.521 17.8867 619.492 17.5742L611.392 23.5947C611.538 24.1025 611.724 24.5713 611.948 25.001C612.173 25.4307 612.441 25.8018 612.754 26.1143C613.076 26.417 613.438 26.6562 613.838 26.832C614.248 26.998 614.712 27.0811 615.229 27.0811C615.894 27.0811 616.494 26.9199 617.031 26.5977C617.578 26.2754 618.042 25.7969 618.423 25.1621C618.804 24.5273 619.097 23.7412 619.302 22.8037C619.507 21.8564 619.609 20.7627 619.609 19.5225ZM610.85 19.3467C610.85 19.6494 610.85 19.9521 610.85 20.2549C610.859 20.5576 610.879 20.8506 610.908 21.1338L619.009 15.1426C618.862 14.6445 618.677 14.1904 618.452 13.7803C618.228 13.3701 617.959 13.0186 617.646 12.7256C617.334 12.4229 616.978 12.1885 616.577 12.0225C616.177 11.8564 615.728 11.7734 615.229 11.7734C614.565 11.7734 613.96 11.9346 613.413 12.2568C612.876 12.5791 612.417 13.0625 612.036 13.707C611.655 14.3418 611.362 15.1328 611.157 16.0801C610.952 17.0176 610.85 18.1064 610.85 19.3467ZM687.581 29H675.555V26.627H680.477V12.6523L675.892 15.1426L674.954 12.9746L681.048 9.7666H683.304V26.627H687.581V29ZM754.176 19.4346C754.176 20.8994 754.029 22.2373 753.736 23.4482C753.443 24.6494 752.999 25.6846 752.403 26.5537C751.808 27.4131 751.065 28.082 750.177 28.5605C749.298 29.0293 748.263 29.2637 747.071 29.2637C746.046 29.2637 745.113 29.0732 744.273 28.6924C743.434 28.3018 742.716 27.7061 742.12 26.9053C741.524 26.1045 741.065 25.084 740.743 23.8438C740.421 22.6035 740.26 21.1338 740.26 19.4346C740.26 17.9697 740.406 16.6318 740.699 15.4209C741.002 14.21 741.446 13.1748 742.032 12.3154C742.628 11.4463 743.37 10.7773 744.259 10.3086C745.147 9.83008 746.183 9.59082 747.364 9.59082C748.39 9.59082 749.322 9.78613 750.162 10.1768C751.002 10.5576 751.72 11.1533 752.315 11.9639C752.911 12.7646 753.37 13.7852 753.692 15.0254C754.015 16.2656 754.176 17.7354 754.176 19.4346ZM751.598 19.5225C751.598 19.1904 751.583 18.8633 751.554 18.541C751.534 18.209 751.51 17.8867 751.48 17.5742L743.38 23.5947C743.526 24.1025 743.712 24.5713 743.937 25.001C744.161 25.4307 744.43 25.8018 744.742 26.1143C745.064 26.417 745.426 26.6562 745.826 26.832C746.236 26.998 746.7 27.0811 747.218 27.0811C747.882 27.0811 748.482 26.9199 749.02 26.5977C749.566 26.2754 750.03 25.7969 750.411 25.1621C750.792 24.5273 751.085 23.7412 751.29 22.8037C751.495 21.8564 751.598 20.7627 751.598 19.5225ZM742.838 19.3467C742.838 19.6494 742.838 19.9521 742.838 20.2549C742.848 20.5576 742.867 20.8506 742.896 21.1338L750.997 15.1426C750.851 14.6445 750.665 14.1904 750.44 13.7803C750.216 13.3701 749.947 13.0186 749.635 12.7256C749.322 12.4229 748.966 12.1885 748.565 12.0225C748.165 11.8564 747.716 11.7734 747.218 11.7734C746.554 11.7734 745.948 11.9346 745.401 12.2568C744.864 12.5791 744.405 13.0625 744.024 13.707C743.644 14.3418 743.351 15.1328 743.146 16.0801C742.94 17.0176 742.838 18.1064 742.838 19.3467Z" fill="black"/>
<path d="M102.205 19.4346C102.205 20.8994 102.059 22.2373 101.766 23.4482C101.473 24.6494 101.028 25.6846 100.433 26.5537C99.8369 27.4131 99.0947 28.082 98.2061 28.5605C97.3271 29.0293 96.292 29.2637 95.1006 29.2637C94.0752 29.2637 93.1426 29.0732 92.3027 28.6924C91.4629 28.3018 90.7451 27.7061 90.1494 26.9053C89.5537 26.1045 89.0947 25.084 88.7725 23.8438C88.4502 22.6035 88.2891 21.1338 88.2891 19.4346C88.2891 17.9697 88.4355 16.6318 88.7285 15.4209C89.0312 14.21 89.4756 13.1748 90.0615 12.3154C90.6572 11.4463 91.3994 10.7773 92.2881 10.3086C93.1768 9.83008 94.2119 9.59082 95.3936 9.59082C96.4189 9.59082 97.3516 9.78613 98.1914 10.1768C99.0312 10.5576 99.749 11.1533 100.345 11.9639C100.94 12.7646 101.399 13.7852 101.722 15.0254C102.044 16.2656 102.205 17.7354 102.205 19.4346ZM99.627 19.5225C99.627 19.1904 99.6123 18.8633 99.583 18.541C99.5635 18.209 99.5391 17.8867 99.5098 17.5742L91.4092 23.5947C91.5557 24.1025 91.7412 24.5713 91.9658 25.001C92.1904 25.4307 92.459 25.8018 92.7715 26.1143C93.0938 26.417 93.4551 26.6562 93.8555 26.832C94.2656 26.998 94.7295 27.0811 95.2471 27.0811C95.9111 27.0811 96.5117 26.9199 97.0488 26.5977C97.5957 26.2754 98.0596 25.7969 98.4404 25.1621C98.8213 24.5273 99.1143 23.7412 99.3193 22.8037C99.5244 21.8564 99.627 20.7627 99.627 19.5225ZM90.8672 19.3467C90.8672 19.6494 90.8672 19.9521 90.8672 20.2549C90.877 20.5576 90.8965 20.8506 90.9258 21.1338L99.0264 15.1426C98.8799 14.6445 98.6943 14.1904 98.4697 13.7803C98.2451 13.3701 97.9766 13.0186 97.6641 12.7256C97.3516 12.4229 96.9951 12.1885 96.5947 12.0225C96.1943 11.8564 95.7451 11.7734 95.2471 11.7734C94.583 11.7734 93.9775 11.9346 93.4307 12.2568C92.8936 12.5791 92.4346 13.0625 92.0537 13.707C91.6729 14.3418 91.3799 15.1328 91.1748 16.0801C90.9697 17.0176 90.8672 18.1064 90.8672 19.3467ZM168.199 19.4346C168.199 20.8994 168.053 22.2373 167.76 23.4482C167.467 24.6494 167.022 25.6846 166.427 26.5537C165.831 27.4131 165.089 28.082 164.2 28.5605C163.321 29.0293 162.286 29.2637 161.095 29.2637C160.069 29.2637 159.137 29.0732 158.297 28.6924C157.457 28.3018 156.739 27.7061 156.144 26.9053C155.548 26.1045 155.089 25.084 154.767 23.8438C154.444 22.6035 154.283 21.1338 154.283 19.4346C154.283 17.9697 154.43 16.6318 154.723 15.4209C155.025 14.21 155.47 13.1748 156.056 12.3154C156.651 11.4463 157.394 10.7773 158.282 10.3086C159.171 9.83008 160.206 9.59082 161.388 9.59082C162.413 9.59082 163.346 9.78613 164.186 10.1768C165.025 10.5576 165.743 11.1533 166.339 11.9639C166.935 12.7646 167.394 13.7852 167.716 15.0254C168.038 16.2656 168.199 17.7354 168.199 19.4346ZM165.621 19.5225C165.621 19.1904 165.606 18.8633 165.577 18.541C165.558 18.209 165.533 17.8867 165.504 17.5742L157.403 23.5947C157.55 24.1025 157.735 24.5713 157.96 25.001C158.185 25.4307 158.453 25.8018 158.766 26.1143C159.088 26.417 159.449 26.6562 159.85 26.832C160.26 26.998 160.724 27.0811 161.241 27.0811C161.905 27.0811 162.506 26.9199 163.043 26.5977C163.59 26.2754 164.054 25.7969 164.435 25.1621C164.815 24.5273 165.108 23.7412 165.313 22.8037C165.519 21.8564 165.621 20.7627 165.621 19.5225ZM156.861 19.3467C156.861 19.6494 156.861 19.9521 156.861 20.2549C156.871 20.5576 156.891 20.8506 156.92 21.1338L165.021 15.1426C164.874 14.6445 164.688 14.1904 164.464 13.7803C164.239 13.3701 163.971 13.0186 163.658 12.7256C163.346 12.4229 162.989 12.1885 162.589 12.0225C162.188 11.8564 161.739 11.7734 161.241 11.7734C160.577 11.7734 159.972 11.9346 159.425 12.2568C158.888 12.5791 158.429 13.0625 158.048 13.707C157.667 14.3418 157.374 15.1328 157.169 16.0801C156.964 17.0176 156.861 18.1064 156.861 19.3467ZM234.193 19.4346C234.193 20.8994 234.047 22.2373 233.754 23.4482C233.461 24.6494 233.017 25.6846 232.421 26.5537C231.825 27.4131 231.083 28.082 230.194 28.5605C229.315 29.0293 228.28 29.2637 227.089 29.2637C226.063 29.2637 225.131 29.0732 224.291 28.6924C223.451 28.3018 222.733 27.7061 222.138 26.9053C221.542 26.1045 221.083 25.084 220.761 23.8438C220.438 22.6035 220.277 21.1338 220.277 19.4346C220.277 17.9697 220.424 16.6318 220.717 15.4209C221.02 14.21 221.464 13.1748 222.05 12.3154C222.646 11.4463 223.388 10.7773 224.276 10.3086C225.165 9.83008 226.2 9.59082 227.382 9.59082C228.407 9.59082 229.34 9.78613 230.18 10.1768C231.02 10.5576 231.737 11.1533 232.333 11.9639C232.929 12.7646 233.388 13.7852 233.71 15.0254C234.032 16.2656 234.193 17.7354 234.193 19.4346ZM231.615 19.5225C231.615 19.1904 231.601 18.8633 231.571 18.541C231.552 18.209 231.527 17.8867 231.498 17.5742L223.397 23.5947C223.544 24.1025 223.729 24.5713 223.954 25.001C224.179 25.4307 224.447 25.8018 224.76 26.1143C225.082 26.417 225.443 26.6562 225.844 26.832C226.254 26.998 226.718 27.0811 227.235 27.0811C227.899 27.0811 228.5 26.9199 229.037 26.5977C229.584 26.2754 230.048 25.7969 230.429 25.1621C230.81 24.5273 231.103 23.7412 231.308 22.8037C231.513 21.8564 231.615 20.7627 231.615 19.5225ZM222.855 19.3467C222.855 19.6494 222.855 19.9521 222.855 20.2549C222.865 20.5576 222.885 20.8506 222.914 21.1338L231.015 15.1426C230.868 14.6445 230.683 14.1904 230.458 13.7803C230.233 13.3701 229.965 13.0186 229.652 12.7256C229.34 12.4229 228.983 12.1885 228.583 12.0225C228.183 11.8564 227.733 11.7734 227.235 11.7734C226.571 11.7734 225.966 11.9346 225.419 12.2568C224.882 12.5791 224.423 13.0625 224.042 13.707C223.661 14.3418 223.368 15.1328 223.163 16.0801C222.958 17.0176 222.855 18.1064 222.855 19.3467ZM300.188 19.4346C300.188 20.8994 300.041 22.2373 299.748 23.4482C299.455 24.6494 299.011 25.6846 298.415 26.5537C297.819 27.4131 297.077 28.082 296.188 28.5605C295.31 29.0293 294.274 29.2637 293.083 29.2637C292.058 29.2637 291.125 29.0732 290.285 28.6924C289.445 28.3018 288.728 27.7061 288.132 26.9053C287.536 26.1045 287.077 25.084 286.755 23.8438C286.433 22.6035 286.271 21.1338 286.271 19.4346C286.271 17.9697 286.418 16.6318 286.711 15.4209C287.014 14.21 287.458 13.1748 288.044 12.3154C288.64 11.4463 289.382 10.7773 290.271 10.3086C291.159 9.83008 292.194 9.59082 293.376 9.59082C294.401 9.59082 295.334 9.78613 296.174 10.1768C297.014 10.5576 297.731 11.1533 298.327 11.9639C298.923 12.7646 299.382 13.7852 299.704 15.0254C300.026 16.2656 300.188 17.7354 300.188 19.4346ZM297.609 19.5225C297.609 19.1904 297.595 18.8633 297.565 18.541C297.546 18.209 297.521 17.8867 297.492 17.5742L289.392 23.5947C289.538 24.1025 289.724 24.5713 289.948 25.001C290.173 25.4307 290.441 25.8018 290.754 26.1143C291.076 26.417 291.438 26.6562 291.838 26.832C292.248 26.998 292.712 27.0811 293.229 27.0811C293.894 27.0811 294.494 26.9199 295.031 26.5977C295.578 26.2754 296.042 25.7969 296.423 25.1621C296.804 24.5273 297.097 23.7412 297.302 22.8037C297.507 21.8564 297.609 20.7627 297.609 19.5225ZM288.85 19.3467C288.85 19.6494 288.85 19.9521 288.85 20.2549C288.859 20.5576 288.879 20.8506 288.908 21.1338L297.009 15.1426C296.862 14.6445 296.677 14.1904 296.452 13.7803C296.228 13.3701 295.959 13.0186 295.646 12.7256C295.334 12.4229 294.978 12.1885 294.577 12.0225C294.177 11.8564 293.728 11.7734 293.229 11.7734C292.565 11.7734 291.96 11.9346 291.413 12.2568C290.876 12.5791 290.417 13.0625 290.036 13.707C289.655 14.3418 289.362 15.1328 289.157 16.0801C288.952 17.0176 288.85 18.1064 288.85 19.3467Z" fill="black"/>
<path d="M13.5967 67.5957C13.5967 69.0853 13.4189 70.3717 13.0635 71.4551C12.7165 72.5384 12.2425 73.4355 11.6416 74.1465C11.0492 74.849 10.3509 75.3737 9.54688 75.7207C8.7513 76.0592 7.90918 76.2285 7.02051 76.2285C5.9541 76.2285 5.02311 76.0381 4.22754 75.6572C3.44043 75.2679 2.78451 74.7093 2.25977 73.9814C1.74349 73.2536 1.3584 72.3691 1.10449 71.3281C0.850586 70.2786 0.723633 69.098 0.723633 67.7861C0.723633 66.3135 0.897135 65.0355 1.24414 63.9521C1.59115 62.8688 2.06087 61.9759 2.65332 61.2734C3.25423 60.5625 3.95247 60.0378 4.74805 59.6992C5.54362 59.3522 6.38574 59.1787 7.27441 59.1787C8.34082 59.1787 9.26758 59.3734 10.0547 59.7627C10.8503 60.152 11.5104 60.7106 12.0352 61.4385C12.5599 62.1579 12.9492 63.0381 13.2031 64.0791C13.4655 65.1201 13.5967 66.2923 13.5967 67.5957ZM11.248 67.7607C11.248 66.7874 11.1719 65.8988 11.0195 65.0947C10.8757 64.2822 10.6387 63.584 10.3086 63C9.97852 62.416 9.55111 61.9632 9.02637 61.6416C8.51009 61.32 7.88379 61.1592 7.14746 61.1592C6.43652 61.1592 5.82292 61.3327 5.30664 61.6797C4.79883 62.0182 4.37988 62.4837 4.0498 63.0762C3.71973 63.6602 3.47428 64.3499 3.31348 65.1455C3.15267 65.9326 3.07227 66.7705 3.07227 67.6592C3.07227 68.641 3.14844 69.5381 3.30078 70.3506C3.45312 71.1546 3.6901 71.8486 4.01172 72.4326C4.3418 73.0081 4.76497 73.4567 5.28125 73.7783C5.79753 74.0999 6.4196 74.2607 7.14746 74.2607C7.8584 74.2607 8.47201 74.0915 8.98828 73.7529C9.50456 73.4059 9.92773 72.9404 10.2578 72.3564C10.5964 71.764 10.846 71.0742 11.0068 70.2871C11.1676 69.5 11.248 68.6579 11.248 67.7607ZM27.6377 76H25.0859L22.6104 70.6934C22.4242 70.2871 22.2337 69.9528 22.0391 69.6904C21.8444 69.4196 21.6328 69.208 21.4043 69.0557C21.1842 68.8949 20.9388 68.7806 20.668 68.7129C20.4056 68.6452 20.1094 68.6113 19.7793 68.6113H18.7129V76H16.4531V59.4072H20.8965C21.8613 59.4072 22.6908 59.513 23.3848 59.7246C24.0788 59.9362 24.6458 60.2324 25.0859 60.6133C25.5345 60.9941 25.8604 61.4554 26.0635 61.9971C26.2751 62.5303 26.3809 63.1227 26.3809 63.7744C26.3809 64.2907 26.3047 64.7816 26.1523 65.2471C26 65.7041 25.7715 66.123 25.4668 66.5039C25.1706 66.8763 24.7982 67.2021 24.3496 67.4814C23.9095 67.7523 23.4017 67.9554 22.8262 68.0908C23.2917 68.2516 23.6852 68.5352 24.0068 68.9414C24.3369 69.3392 24.6712 69.8724 25.0098 70.541L27.6377 76ZM24.0195 63.9648C24.0195 63.0762 23.7402 62.4118 23.1816 61.9717C22.6315 61.5316 21.8529 61.3115 20.8457 61.3115H18.7129V66.7959H20.541C21.0742 66.7959 21.5524 66.7367 21.9756 66.6182C22.4072 66.4912 22.7712 66.3092 23.0674 66.0723C23.3721 65.8268 23.6048 65.5306 23.7656 65.1836C23.9349 64.8281 24.0195 64.4219 24.0195 63.9648Z" fill="black"/>
<path d="M0 92H764" stroke="black" stroke-width="2"/>
<path d="M344.426 113.924C344.647 113.924 344.855 113.966 345.051 114.051C345.253 114.135 345.425 114.253 345.568 114.402C345.718 114.552 345.835 114.728 345.92 114.93C346.005 115.125 346.047 115.337 346.047 115.564C346.047 115.786 346.005 115.994 345.92 116.189C345.835 116.385 345.718 116.557 345.568 116.707C345.425 116.85 345.253 116.964 345.051 117.049C344.855 117.133 344.647 117.176 344.426 117.176C344.198 117.176 343.986 117.133 343.791 117.049C343.596 116.964 343.423 116.85 343.273 116.707C343.13 116.557 343.016 116.385 342.932 116.189C342.847 115.994 342.805 115.786 342.805 115.564C342.805 115.337 342.847 115.125 342.932 114.93C343.016 114.728 343.13 114.552 343.273 114.402C343.423 114.253 343.596 114.135 343.791 114.051C343.986 113.966 344.198 113.924 344.426 113.924ZM355.422 113.924C355.643 113.924 355.852 113.966 356.047 114.051C356.249 114.135 356.421 114.253 356.564 114.402C356.714 114.552 356.831 114.728 356.916 114.93C357.001 115.125 357.043 115.337 357.043 115.564C357.043 115.786 357.001 115.994 356.916 116.189C356.831 116.385 356.714 116.557 356.564 116.707C356.421 116.85 356.249 116.964 356.047 117.049C355.852 117.133 355.643 117.176 355.422 117.176C355.194 117.176 354.982 117.133 354.787 117.049C354.592 116.964 354.419 116.85 354.27 116.707C354.126 116.557 354.012 116.385 353.928 116.189C353.843 115.994 353.801 115.786 353.801 115.564C353.801 115.337 353.843 115.125 353.928 114.93C354.012 114.728 354.126 114.552 354.27 114.402C354.419 114.253 354.592 114.135 354.787 114.051C354.982 113.966 355.194 113.924 355.422 113.924ZM366.418 113.924C366.639 113.924 366.848 113.966 367.043 114.051C367.245 114.135 367.417 114.253 367.561 114.402C367.71 114.552 367.827 114.728 367.912 114.93C367.997 115.125 368.039 115.337 368.039 115.564C368.039 115.786 367.997 115.994 367.912 116.189C367.827 116.385 367.71 116.557 367.561 116.707C367.417 116.85 367.245 116.964 367.043 117.049C366.848 117.133 366.639 117.176 366.418 117.176C366.19 117.176 365.979 117.133 365.783 117.049C365.588 116.964 365.415 116.85 365.266 116.707C365.122 116.557 365.008 116.385 364.924 116.189C364.839 115.994 364.797 115.786 364.797 115.564C364.797 115.337 364.839 115.125 364.924 114.93C365.008 114.728 365.122 114.552 365.266 114.402C365.415 114.253 365.588 114.135 365.783 114.051C365.979 113.966 366.19 113.924 366.418 113.924Z" fill="black"/>
<path d="M424.205 116.435C424.205 117.899 424.059 119.237 423.766 120.448C423.473 121.649 423.028 122.685 422.433 123.554C421.837 124.413 421.095 125.082 420.206 125.561C419.327 126.029 418.292 126.264 417.101 126.264C416.075 126.264 415.143 126.073 414.303 125.692C413.463 125.302 412.745 124.706 412.149 123.905C411.554 123.104 411.095 122.084 410.772 120.844C410.45 119.604 410.289 118.134 410.289 116.435C410.289 114.97 410.436 113.632 410.729 112.421C411.031 111.21 411.476 110.175 412.062 109.315C412.657 108.446 413.399 107.777 414.288 107.309C415.177 106.83 416.212 106.591 417.394 106.591C418.419 106.591 419.352 106.786 420.191 107.177C421.031 107.558 421.749 108.153 422.345 108.964C422.94 109.765 423.399 110.785 423.722 112.025C424.044 113.266 424.205 114.735 424.205 116.435ZM421.627 116.522C421.627 116.19 421.612 115.863 421.583 115.541C421.563 115.209 421.539 114.887 421.51 114.574L413.409 120.595C413.556 121.103 413.741 121.571 413.966 122.001C414.19 122.431 414.459 122.802 414.771 123.114C415.094 123.417 415.455 123.656 415.855 123.832C416.266 123.998 416.729 124.081 417.247 124.081C417.911 124.081 418.512 123.92 419.049 123.598C419.596 123.275 420.06 122.797 420.44 122.162C420.821 121.527 421.114 120.741 421.319 119.804C421.524 118.856 421.627 117.763 421.627 116.522ZM412.867 116.347C412.867 116.649 412.867 116.952 412.867 117.255C412.877 117.558 412.896 117.851 412.926 118.134L421.026 112.143C420.88 111.645 420.694 111.19 420.47 110.78C420.245 110.37 419.977 110.019 419.664 109.726C419.352 109.423 418.995 109.188 418.595 109.022C418.194 108.856 417.745 108.773 417.247 108.773C416.583 108.773 415.978 108.935 415.431 109.257C414.894 109.579 414.435 110.062 414.054 110.707C413.673 111.342 413.38 112.133 413.175 113.08C412.97 114.018 412.867 115.106 412.867 116.347ZM489.599 126H477.572V123.627H482.494V109.652L477.909 112.143L476.972 109.975L483.065 106.767H485.321V123.627H489.599V126ZM556.193 116.435C556.193 117.899 556.047 119.237 555.754 120.448C555.461 121.649 555.017 122.685 554.421 123.554C553.825 124.413 553.083 125.082 552.194 125.561C551.315 126.029 550.28 126.264 549.089 126.264C548.063 126.264 547.131 126.073 546.291 125.692C545.451 125.302 544.733 124.706 544.138 123.905C543.542 123.104 543.083 122.084 542.761 120.844C542.438 119.604 542.277 118.134 542.277 116.435C542.277 114.97 542.424 113.632 542.717 112.421C543.02 111.21 543.464 110.175 544.05 109.315C544.646 108.446 545.388 107.777 546.276 107.309C547.165 106.83 548.2 106.591 549.382 106.591C550.407 106.591 551.34 106.786 552.18 107.177C553.02 107.558 553.737 108.153 554.333 108.964C554.929 109.765 555.388 110.785 555.71 112.025C556.032 113.266 556.193 114.735 556.193 116.435ZM553.615 116.522C553.615 116.19 553.601 115.863 553.571 115.541C553.552 115.209 553.527 114.887 553.498 114.574L545.397 120.595C545.544 121.103 545.729 121.571 545.954 122.001C546.179 122.431 546.447 122.802 546.76 123.114C547.082 123.417 547.443 123.656 547.844 123.832C548.254 123.998 548.718 124.081 549.235 124.081C549.899 124.081 550.5 123.92 551.037 123.598C551.584 123.275 552.048 122.797 552.429 122.162C552.81 121.527 553.103 120.741 553.308 119.804C553.513 118.856 553.615 117.763 553.615 116.522ZM544.855 116.347C544.855 116.649 544.855 116.952 544.855 117.255C544.865 117.558 544.885 117.851 544.914 118.134L553.015 112.143C552.868 111.645 552.683 111.19 552.458 110.78C552.233 110.37 551.965 110.019 551.652 109.726C551.34 109.423 550.983 109.188 550.583 109.022C550.183 108.856 549.733 108.773 549.235 108.773C548.571 108.773 547.966 108.935 547.419 109.257C546.882 109.579 546.423 110.062 546.042 110.707C545.661 111.342 545.368 112.133 545.163 113.08C544.958 114.018 544.855 115.106 544.855 116.347ZM621.587 126H609.561V123.627H614.482V109.652L609.897 112.143L608.96 109.975L615.054 106.767H617.31V123.627H621.587V126ZM687.581 126H675.555V123.627H680.477V109.652L675.892 112.143L674.954 109.975L681.048 106.767H683.304V123.627H687.581V126ZM754.176 116.435C754.176 117.899 754.029 119.237 753.736 120.448C753.443 121.649 752.999 122.685 752.403 123.554C751.808 124.413 751.065 125.082 750.177 125.561C749.298 126.029 748.263 126.264 747.071 126.264C746.046 126.264 745.113 126.073 744.273 125.692C743.434 125.302 742.716 124.706 742.12 123.905C741.524 123.104 741.065 122.084 740.743 120.844C740.421 119.604 740.26 118.134 740.26 116.435C740.26 114.97 740.406 113.632 740.699 112.421C741.002 111.21 741.446 110.175 742.032 109.315C742.628 108.446 743.37 107.777 744.259 107.309C745.147 106.83 746.183 106.591 747.364 106.591C748.39 106.591 749.322 106.786 750.162 107.177C751.002 107.558 751.72 108.153 752.315 108.964C752.911 109.765 753.37 110.785 753.692 112.025C754.015 113.266 754.176 114.735 754.176 116.435ZM751.598 116.522C751.598 116.19 751.583 115.863 751.554 115.541C751.534 115.209 751.51 114.887 751.48 114.574L743.38 120.595C743.526 121.103 743.712 121.571 743.937 122.001C744.161 122.431 744.43 122.802 744.742 123.114C745.064 123.417 745.426 123.656 745.826 123.832C746.236 123.998 746.7 124.081 747.218 124.081C747.882 124.081 748.482 123.92 749.02 123.598C749.566 123.275 750.03 122.797 750.411 122.162C750.792 121.527 751.085 120.741 751.29 119.804C751.495 118.856 751.598 117.763 751.598 116.522ZM742.838 116.347C742.838 116.649 742.838 116.952 742.838 117.255C742.848 117.558 742.867 117.851 742.896 118.134L750.997 112.143C750.851 111.645 750.665 111.19 750.44 110.78C750.216 110.37 749.947 110.019 749.635 109.726C749.322 109.423 748.966 109.188 748.565 109.022C748.165 108.856 747.716 108.773 747.218 108.773C746.554 108.773 745.948 108.935 745.401 109.257C744.864 109.579 744.405 110.062 744.024 110.707C743.644 111.342 743.351 112.133 743.146 113.08C742.94 114.018 742.838 115.106 742.838 116.347Z" fill="black"/>
<path d="M102.205 116.435C102.205 117.899 102.059 119.237 101.766 120.448C101.473 121.649 101.028 122.685 100.433 123.554C99.8369 124.413 99.0947 125.082 98.2061 125.561C97.3271 126.029 96.292 126.264 95.1006 126.264C94.0752 126.264 93.1426 126.073 92.3027 125.692C91.4629 125.302 90.7451 124.706 90.1494 123.905C89.5537 123.104 89.0947 122.084 88.7725 120.844C88.4502 119.604 88.2891 118.134 88.2891 116.435C88.2891 114.97 88.4355 113.632 88.7285 112.421C89.0312 111.21 89.4756 110.175 90.0615 109.315C90.6572 108.446 91.3994 107.777 92.2881 107.309C93.1768 106.83 94.2119 106.591 95.3936 106.591C96.4189 106.591 97.3516 106.786 98.1914 107.177C99.0312 107.558 99.749 108.153 100.345 108.964C100.94 109.765 101.399 110.785 101.722 112.025C102.044 113.266 102.205 114.735 102.205 116.435ZM99.627 116.522C99.627 116.19 99.6123 115.863 99.583 115.541C99.5635 115.209 99.5391 114.887 99.5098 114.574L91.4092 120.595C91.5557 121.103 91.7412 121.571 91.9658 122.001C92.1904 122.431 92.459 122.802 92.7715 123.114C93.0938 123.417 93.4551 123.656 93.8555 123.832C94.2656 123.998 94.7295 124.081 95.2471 124.081C95.9111 124.081 96.5117 123.92 97.0488 123.598C97.5957 123.275 98.0596 122.797 98.4404 122.162C98.8213 121.527 99.1143 120.741 99.3193 119.804C99.5244 118.856 99.627 117.763 99.627 116.522ZM90.8672 116.347C90.8672 116.649 90.8672 116.952 90.8672 117.255C90.877 117.558 90.8965 117.851 90.9258 118.134L99.0264 112.143C98.8799 111.645 98.6943 111.19 98.4697 110.78C98.2451 110.37 97.9766 110.019 97.6641 109.726C97.3516 109.423 96.9951 109.188 96.5947 109.022C96.1943 108.856 95.7451 108.773 95.2471 108.773C94.583 108.773 93.9775 108.935 93.4307 109.257C92.8936 109.579 92.4346 110.062 92.0537 110.707C91.6729 111.342 91.3799 112.133 91.1748 113.08C90.9697 114.018 90.8672 115.106 90.8672 116.347ZM168.199 116.435C168.199 117.899 168.053 119.237 167.76 120.448C167.467 121.649 167.022 122.685 166.427 123.554C165.831 124.413 165.089 125.082 164.2 125.561C163.321 126.029 162.286 126.264 161.095 126.264C160.069 126.264 159.137 126.073 158.297 125.692C157.457 125.302 156.739 124.706 156.144 123.905C155.548 123.104 155.089 122.084 154.767 120.844C154.444 119.604 154.283 118.134 154.283 116.435C154.283 114.97 154.43 113.632 154.723 112.421C155.025 111.21 155.47 110.175 156.056 109.315C156.651 108.446 157.394 107.777 158.282 107.309C159.171 106.83 160.206 106.591 161.388 106.591C162.413 106.591 163.346 106.786 164.186 107.177C165.025 107.558 165.743 108.153 166.339 108.964C166.935 109.765 167.394 110.785 167.716 112.025C168.038 113.266 168.199 114.735 168.199 116.435ZM165.621 116.522C165.621 116.19 165.606 115.863 165.577 115.541C165.558 115.209 165.533 114.887 165.504 114.574L157.403 120.595C157.55 121.103 157.735 121.571 157.96 122.001C158.185 122.431 158.453 122.802 158.766 123.114C159.088 123.417 159.449 123.656 159.85 123.832C160.26 123.998 160.724 124.081 161.241 124.081C161.905 124.081 162.506 123.92 163.043 123.598C163.59 123.275 164.054 122.797 164.435 122.162C164.815 121.527 165.108 120.741 165.313 119.804C165.519 118.856 165.621 117.763 165.621 116.522ZM156.861 116.347C156.861 116.649 156.861 116.952 156.861 117.255C156.871 117.558 156.891 117.851 156.92 118.134L165.021 112.143C164.874 111.645 164.688 111.19 164.464 110.78C164.239 110.37 163.971 110.019 163.658 109.726C163.346 109.423 162.989 109.188 162.589 109.022C162.188 108.856 161.739 108.773 161.241 108.773C160.577 108.773 159.972 108.935 159.425 109.257C158.888 109.579 158.429 110.062 158.048 110.707C157.667 111.342 157.374 112.133 157.169 113.08C156.964 114.018 156.861 115.106 156.861 116.347ZM234.193 116.435C234.193 117.899 234.047 119.237 233.754 120.448C233.461 121.649 233.017 122.685 232.421 123.554C231.825 124.413 231.083 125.082 230.194 125.561C229.315 126.029 228.28 126.264 227.089 126.264C226.063 126.264 225.131 126.073 224.291 125.692C223.451 125.302 222.733 124.706 222.138 123.905C221.542 123.104 221.083 122.084 220.761 120.844C220.438 119.604 220.277 118.134 220.277 116.435C220.277 114.97 220.424 113.632 220.717 112.421C221.02 111.21 221.464 110.175 222.05 109.315C222.646 108.446 223.388 107.777 224.276 107.309C225.165 106.83 226.2 106.591 227.382 106.591C228.407 106.591 229.34 106.786 230.18 107.177C231.02 107.558 231.737 108.153 232.333 108.964C232.929 109.765 233.388 110.785 233.71 112.025C234.032 113.266 234.193 114.735 234.193 116.435ZM231.615 116.522C231.615 116.19 231.601 115.863 231.571 115.541C231.552 115.209 231.527 114.887 231.498 114.574L223.397 120.595C223.544 121.103 223.729 121.571 223.954 122.001C224.179 122.431 224.447 122.802 224.76 123.114C225.082 123.417 225.443 123.656 225.844 123.832C226.254 123.998 226.718 124.081 227.235 124.081C227.899 124.081 228.5 123.92 229.037 123.598C229.584 123.275 230.048 122.797 230.429 122.162C230.81 121.527 231.103 120.741 231.308 119.804C231.513 118.856 231.615 117.763 231.615 116.522ZM222.855 116.347C222.855 116.649 222.855 116.952 222.855 117.255C222.865 117.558 222.885 117.851 222.914 118.134L231.015 112.143C230.868 111.645 230.683 111.19 230.458 110.78C230.233 110.37 229.965 110.019 229.652 109.726C229.34 109.423 228.983 109.188 228.583 109.022C228.183 108.856 227.733 108.773 227.235 108.773C226.571 108.773 225.966 108.935 225.419 109.257C224.882 109.579 224.423 110.062 224.042 110.707C223.661 111.342 223.368 112.133 223.163 113.08C222.958 114.018 222.855 115.106 222.855 116.347ZM300.188 116.435C300.188 117.899 300.041 119.237 299.748 120.448C299.455 121.649 299.011 122.685 298.415 123.554C297.819 124.413 297.077 125.082 296.188 125.561C295.31 126.029 294.274 126.264 293.083 126.264C292.058 126.264 291.125 126.073 290.285 125.692C289.445 125.302 288.728 124.706 288.132 123.905C287.536 123.104 287.077 122.084 286.755 120.844C286.433 119.604 286.271 118.134 286.271 116.435C286.271 114.97 286.418 113.632 286.711 112.421C287.014 111.21 287.458 110.175 288.044 109.315C288.64 108.446 289.382 107.777 290.271 107.309C291.159 106.83 292.194 106.591 293.376 106.591C294.401 106.591 295.334 106.786 296.174 107.177C297.014 107.558 297.731 108.153 298.327 108.964C298.923 109.765 299.382 110.785 299.704 112.025C300.026 113.266 300.188 114.735 300.188 116.435ZM297.609 116.522C297.609 116.19 297.595 115.863 297.565 115.541C297.546 115.209 297.521 114.887 297.492 114.574L289.392 120.595C289.538 121.103 289.724 121.571 289.948 122.001C290.173 122.431 290.441 122.802 290.754 123.114C291.076 123.417 291.438 123.656 291.838 123.832C292.248 123.998 292.712 124.081 293.229 124.081C293.894 124.081 294.494 123.92 295.031 123.598C295.578 123.275 296.042 122.797 296.423 122.162C296.804 121.527 297.097 120.741 297.302 119.804C297.507 118.856 297.609 117.763 297.609 116.522ZM288.85 116.347C288.85 116.649 288.85 116.952 288.85 117.255C288.859 117.558 288.879 117.851 288.908 118.134L297.009 112.143C296.862 111.645 296.677 111.19 296.452 110.78C296.228 110.37 295.959 110.019 295.646 109.726C295.334 109.423 294.978 109.188 294.577 109.022C294.177 108.856 293.728 108.773 293.229 108.773C292.565 108.773 291.96 108.935 291.413 109.257C290.876 109.579 290.417 110.062 290.036 110.707C289.655 111.342 289.362 112.133 289.157 113.08C288.952 114.018 288.85 115.106 288.85 116.347Z" fill="black"/>
<path opacity="0.5" d="M789.147 80.1523C784.646 75.9824 782.395 71.373 782.395 66.3242C782.395 65.1426 782.512 63.9658 782.746 62.7939C782.99 61.6123 783.376 60.4307 783.903 59.249C784.44 58.0674 785.144 56.8857 786.013 55.7041C786.892 54.5225 787.956 53.3506 789.206 52.1885L790.686 53.6973C786.896 57.4375 785.002 61.583 785.002 66.1338C785.002 68.3994 785.48 70.5771 786.438 72.667C787.395 74.7568 788.811 76.7295 790.686 78.585L789.147 80.1523ZM808.483 69.9863C808.483 70.5039 808.396 70.9678 808.22 71.3779C808.044 71.7881 807.805 72.1543 807.502 72.4766C807.199 72.7891 806.848 73.0576 806.447 73.2822C806.047 73.5068 805.617 73.6924 805.158 73.8389C804.709 73.9854 804.245 74.0928 803.767 74.1611C803.288 74.2295 802.819 74.2637 802.36 74.2637C801.364 74.2637 800.446 74.2197 799.606 74.1318C798.776 74.0439 797.961 73.9023 797.16 73.707V71.3633C798.02 71.6074 798.874 71.793 799.724 71.9199C800.573 72.0469 801.418 72.1104 802.258 72.1104C803.479 72.1104 804.382 71.9443 804.968 71.6123C805.554 71.2803 805.847 70.8066 805.847 70.1914C805.847 69.9277 805.798 69.6934 805.7 69.4883C805.612 69.2734 805.446 69.0732 805.202 68.8877C804.958 68.6924 804.577 68.4922 804.06 68.2871C803.552 68.082 802.854 67.8477 801.965 67.584C801.301 67.3887 800.686 67.1689 800.119 66.9248C799.562 66.6709 799.079 66.373 798.669 66.0312C798.259 65.6895 797.937 65.2891 797.702 64.8301C797.468 64.3711 797.351 63.8291 797.351 63.2041C797.351 62.7939 797.443 62.3447 797.629 61.8564C797.824 61.3682 798.151 60.9141 798.61 60.4941C799.069 60.0742 799.689 59.7275 800.471 59.4541C801.252 59.1709 802.229 59.0293 803.4 59.0293C803.977 59.0293 804.616 59.0635 805.319 59.1318C806.022 59.1904 806.755 59.2979 807.517 59.4541V61.7246C806.716 61.5293 805.954 61.3877 805.231 61.2998C804.519 61.2021 803.898 61.1533 803.371 61.1533C802.736 61.1533 802.199 61.2021 801.76 61.2998C801.33 61.3975 800.979 61.5342 800.705 61.71C800.441 61.876 800.251 62.0762 800.134 62.3105C800.017 62.5352 799.958 62.7793 799.958 63.043C799.958 63.3066 800.007 63.5459 800.104 63.7607C800.212 63.9756 800.402 64.1855 800.676 64.3906C800.959 64.5859 801.35 64.7861 801.848 64.9912C802.346 65.1865 802.995 65.4014 803.796 65.6357C804.665 65.8896 805.397 66.1582 805.993 66.4414C806.589 66.7148 807.072 67.0225 807.443 67.3643C807.814 67.7061 808.078 68.0918 808.234 68.5215C808.4 68.9512 808.483 69.4395 808.483 69.9863ZM825.153 74H822.604V64.6104C822.604 63.4775 822.39 62.6328 821.96 62.0762C821.54 61.5098 820.935 61.2266 820.144 61.2266C819.802 61.2266 819.479 61.2754 819.177 61.373C818.884 61.4609 818.576 61.6221 818.254 61.8564C817.932 62.0811 817.58 62.3887 817.199 62.7793C816.818 63.1699 816.379 63.6582 815.881 64.2441V74H813.332V53.3018H815.881V59.293L815.793 61.6074C816.193 61.1289 816.584 60.7285 816.965 60.4062C817.355 60.0742 817.741 59.8057 818.122 59.6006C818.513 59.3955 818.908 59.249 819.309 59.1611C819.709 59.0732 820.124 59.0293 820.554 59.0293C822.019 59.0293 823.151 59.4785 823.952 60.377C824.753 61.2656 825.153 62.6084 825.153 64.4053V74ZM834.836 61.4023H830.485V59.293H837.414V71.876H841.794V74H830.002V71.876H834.836V61.4023ZM835.729 53.126C836.013 53.126 836.276 53.1797 836.521 53.2871C836.765 53.3848 836.975 53.5264 837.15 53.7119C837.336 53.8975 837.478 54.1123 837.575 54.3564C837.683 54.5908 837.736 54.8496 837.736 55.1328C837.736 55.4062 837.683 55.665 837.575 55.9092C837.478 56.1533 837.336 56.3682 837.15 56.5537C836.975 56.7393 836.765 56.8857 836.521 56.9932C836.276 57.0908 836.013 57.1396 835.729 57.1396C835.446 57.1396 835.183 57.0908 834.938 56.9932C834.694 56.8857 834.479 56.7393 834.294 56.5537C834.118 56.3682 833.977 56.1533 833.869 55.9092C833.771 55.665 833.723 55.4062 833.723 55.1328C833.723 54.8496 833.771 54.5908 833.869 54.3564C833.977 54.1123 834.118 53.8975 834.294 53.7119C834.479 53.5264 834.694 53.3848 834.938 53.2871C835.183 53.1797 835.446 53.126 835.729 53.126ZM859.372 55.6748C858.034 55.3916 856.882 55.25 855.915 55.25C853.62 55.25 852.473 56.4512 852.473 58.8535V61.4316H858.918V63.5557H852.473V74H849.88V63.5557H845.148V61.4316H849.88V59C849.88 55.084 851.921 53.126 856.003 53.126C857.019 53.126 858.142 53.2432 859.372 53.4775V55.6748ZM874.665 73.7949C874.089 73.9414 873.493 74.0439 872.878 74.1025C872.263 74.1709 871.638 74.2051 871.003 74.2051C869.157 74.2051 867.78 73.79 866.872 72.96C865.964 72.1201 865.51 70.8359 865.51 69.1074V61.4316H861.394V59.293H865.51V55.25L868.059 54.5908V59.293H874.665V61.4316H868.059V68.9023C868.059 69.957 868.337 70.748 868.894 71.2754C869.46 71.793 870.29 72.0518 871.384 72.0518C871.853 72.0518 872.365 72.0176 872.922 71.9492C873.479 71.8711 874.06 71.7539 874.665 71.5977V73.7949ZM891.73 65.8701C891.73 66.2314 891.726 66.5342 891.716 66.7783C891.706 67.0225 891.691 67.252 891.672 67.4668H881.345C881.345 68.9707 881.765 70.1279 882.604 70.9385C883.444 71.7393 884.655 72.1396 886.237 72.1396C886.667 72.1396 887.097 72.125 887.526 72.0957C887.956 72.0566 888.371 72.0078 888.771 71.9492C889.172 71.8906 889.553 71.8271 889.914 71.7588C890.285 71.6807 890.627 71.5977 890.939 71.5098V73.6045C890.246 73.7998 889.46 73.9561 888.581 74.0732C887.712 74.2002 886.809 74.2637 885.871 74.2637C884.611 74.2637 883.527 74.0928 882.619 73.751C881.711 73.4092 880.964 72.916 880.378 72.2715C879.802 71.6172 879.372 70.8213 879.089 69.8838C878.815 68.9365 878.679 67.8672 878.679 66.6758C878.679 65.6406 878.825 64.6641 879.118 63.7461C879.421 62.8184 879.855 62.0078 880.422 61.3145C880.998 60.6113 881.701 60.0547 882.531 59.6445C883.361 59.2344 884.304 59.0293 885.358 59.0293C886.384 59.0293 887.292 59.1904 888.083 59.5127C888.874 59.835 889.538 60.2939 890.075 60.8896C890.622 61.4756 891.032 62.1934 891.306 63.043C891.589 63.8828 891.73 64.8252 891.73 65.8701ZM889.079 65.5039C889.108 64.8496 889.045 64.2539 888.889 63.7168C888.732 63.1699 888.488 62.7012 888.156 62.3105C887.834 61.9199 887.429 61.6172 886.94 61.4023C886.452 61.1777 885.886 61.0654 885.241 61.0654C884.685 61.0654 884.177 61.1729 883.718 61.3877C883.259 61.6025 882.863 61.9053 882.531 62.2959C882.199 62.6865 881.931 63.1553 881.726 63.7021C881.521 64.249 881.394 64.8496 881.345 65.5039H889.079ZM895.056 66.9541C895.056 65.7041 895.227 64.5957 895.568 63.6289C895.91 62.6523 896.394 61.832 897.019 61.168C897.653 60.4941 898.41 59.9863 899.289 59.6445C900.178 59.293 901.164 59.1172 902.248 59.1172C902.717 59.1172 903.176 59.1465 903.625 59.2051C904.084 59.2637 904.533 59.3564 904.973 59.4834V53.3018H907.536V74H905.251L905.163 71.2168C904.45 72.252 903.679 73.0186 902.849 73.5166C902.019 74.0146 901.12 74.2637 900.153 74.2637C899.313 74.2637 898.571 74.0879 897.927 73.7363C897.292 73.3848 896.76 72.8916 896.33 72.2568C895.91 71.6123 895.593 70.8408 895.378 69.9424C895.163 69.0439 895.056 68.0479 895.056 66.9541ZM897.663 66.793C897.663 68.5703 897.922 69.8984 898.439 70.7773C898.967 71.6465 899.709 72.0811 900.666 72.0811C901.311 72.0811 901.989 71.793 902.702 71.2168C903.425 70.6406 904.182 69.7861 904.973 68.6533V61.8271C904.553 61.6318 904.089 61.4854 903.581 61.3877C903.073 61.2803 902.57 61.2266 902.072 61.2266C900.686 61.2266 899.602 61.6758 898.82 62.5742C898.049 63.4727 897.663 64.8789 897.663 66.793ZM941.594 66.5293C941.594 67.6719 941.433 68.7217 941.11 69.6787C940.788 70.626 940.324 71.4414 939.719 72.125C939.113 72.7988 938.376 73.3262 937.507 73.707C936.638 74.0781 935.651 74.2637 934.548 74.2637C933.493 74.2637 932.546 74.1025 931.706 73.7803C930.876 73.4482 930.168 72.9648 929.582 72.3301C929.006 71.6953 928.562 70.9092 928.249 69.9717C927.946 69.0342 927.795 67.9551 927.795 66.7344C927.795 65.5918 927.956 64.5518 928.278 63.6143C928.601 62.667 929.064 61.8564 929.67 61.1826C930.275 60.499 931.013 59.9717 931.882 59.6006C932.751 59.2197 933.737 59.0293 934.841 59.0293C935.896 59.0293 936.838 59.1953 937.668 59.5273C938.508 59.8496 939.216 60.3281 939.792 60.9629C940.378 61.5879 940.822 62.3691 941.125 63.3066C941.438 64.2441 941.594 65.3184 941.594 66.5293ZM938.986 66.6465C938.986 65.7383 938.884 64.9473 938.679 64.2734C938.483 63.5898 938.2 63.0234 937.829 62.5742C937.458 62.1152 937.004 61.7734 936.467 61.5488C935.939 61.3145 935.349 61.1973 934.694 61.1973C933.933 61.1973 933.278 61.3486 932.731 61.6514C932.194 61.9443 931.75 62.3398 931.398 62.8379C931.057 63.3359 930.803 63.917 930.637 64.5811C930.48 65.2354 930.402 65.9238 930.402 66.6465C930.402 67.5547 930.5 68.3506 930.695 69.0342C930.9 69.7178 931.188 70.2891 931.56 70.748C931.931 71.1973 932.38 71.5391 932.907 71.7734C933.435 71.998 934.03 72.1104 934.694 72.1104C935.456 72.1104 936.105 71.9639 936.643 71.6709C937.189 71.3682 937.634 70.9678 937.976 70.4697C938.327 69.9717 938.581 69.3955 938.737 68.7412C938.903 68.0771 938.986 67.3789 938.986 66.6465ZM944.538 66.9541C944.538 65.7041 944.709 64.5957 945.051 63.6289C945.393 62.6523 945.876 61.832 946.501 61.168C947.136 60.4941 947.893 59.9863 948.771 59.6445C949.66 59.293 950.646 59.1172 951.73 59.1172C952.199 59.1172 952.658 59.1465 953.107 59.2051C953.566 59.2637 954.016 59.3564 954.455 59.4834V53.3018H957.019V74H954.733L954.646 71.2168C953.933 72.252 953.161 73.0186 952.331 73.5166C951.501 74.0146 950.603 74.2637 949.636 74.2637C948.796 74.2637 948.054 74.0879 947.409 73.7363C946.774 73.3848 946.242 72.8916 945.812 72.2568C945.393 71.6123 945.075 70.8408 944.86 69.9424C944.646 69.0439 944.538 68.0479 944.538 66.9541ZM947.146 66.793C947.146 68.5703 947.404 69.8984 947.922 70.7773C948.449 71.6465 949.191 72.0811 950.148 72.0811C950.793 72.0811 951.472 71.793 952.185 71.2168C952.907 70.6406 953.664 69.7861 954.455 68.6533V61.8271C954.035 61.6318 953.571 61.4854 953.063 61.3877C952.556 61.2803 952.053 61.2266 951.555 61.2266C950.168 61.2266 949.084 61.6758 948.303 62.5742C947.531 63.4727 947.146 64.8789 947.146 66.793ZM961.032 66.9541C961.032 65.7041 961.203 64.5957 961.545 63.6289C961.887 62.6523 962.37 61.832 962.995 61.168C963.63 60.4941 964.387 59.9863 965.266 59.6445C966.154 59.293 967.141 59.1172 968.225 59.1172C968.693 59.1172 969.152 59.1465 969.602 59.2051C970.061 59.2637 970.51 59.3564 970.949 59.4834V53.3018H973.513V74H971.228L971.14 71.2168C970.427 72.252 969.655 73.0186 968.825 73.5166C967.995 74.0146 967.097 74.2637 966.13 74.2637C965.29 74.2637 964.548 74.0879 963.903 73.7363C963.269 73.3848 962.736 72.8916 962.307 72.2568C961.887 71.6123 961.569 70.8408 961.354 69.9424C961.14 69.0439 961.032 68.0479 961.032 66.9541ZM963.64 66.793C963.64 68.5703 963.898 69.8984 964.416 70.7773C964.943 71.6465 965.686 72.0811 966.643 72.0811C967.287 72.0811 967.966 71.793 968.679 71.2168C969.401 70.6406 970.158 69.7861 970.949 68.6533V61.8271C970.529 61.6318 970.065 61.4854 969.558 61.3877C969.05 61.2803 968.547 61.2266 968.049 61.2266C966.662 61.2266 965.578 61.6758 964.797 62.5742C964.025 63.4727 963.64 64.8789 963.64 66.793ZM992.424 80.0059H975.93V77.8965H992.424V80.0059ZM1007.34 66.3828C1007.34 67.6035 1007.17 68.6973 1006.82 69.6641C1006.49 70.6211 1006.01 71.4365 1005.39 72.1104C1004.77 72.7744 1004.02 73.2871 1003.13 73.6484C1002.24 74 1001.24 74.1758 1000.13 74.1758C999.26 74.1758 998.371 74.0928 997.463 73.9268C996.555 73.7607 995.656 73.4971 994.768 73.1357V53.3018H997.316V59L997.199 61.7246C997.932 60.7383 998.713 60.0449 999.543 59.6445C1000.38 59.2344 1001.28 59.0293 1002.24 59.0293C1003.08 59.0293 1003.82 59.2051 1004.45 59.5566C1005.08 59.9082 1005.62 60.4062 1006.05 61.0508C1006.48 61.6855 1006.8 62.457 1007.01 63.3652C1007.23 64.2637 1007.34 65.2695 1007.34 66.3828ZM1004.73 66.5C1004.73 65.7285 1004.67 65.0205 1004.55 64.376C1004.45 63.7314 1004.27 63.1797 1004.03 62.7207C1003.78 62.2617 1003.47 61.9053 1003.09 61.6514C1002.71 61.3877 1002.25 61.2559 1001.73 61.2559C1001.4 61.2559 1001.08 61.3096 1000.74 61.417C1000.41 61.5146 1000.07 61.6855 999.704 61.9297C999.353 62.1641 998.977 62.4814 998.576 62.8818C998.186 63.2725 997.766 63.7607 997.316 64.3467V71.4805C997.814 71.6758 998.322 71.832 998.84 71.9492C999.357 72.0566 999.851 72.1104 1000.32 72.1104C1000.91 72.1104 1001.46 72.0176 1001.99 71.832C1002.53 71.6465 1003 71.3389 1003.4 70.9092C1003.81 70.4697 1004.13 69.8936 1004.36 69.1807C1004.61 68.458 1004.73 67.5645 1004.73 66.5ZM1016.27 61.4023H1011.92V59.293H1018.85V71.876H1023.23V74H1011.44V71.876H1016.27V61.4023ZM1017.17 53.126C1017.45 53.126 1017.71 53.1797 1017.96 53.2871C1018.2 53.3848 1018.41 53.5264 1018.59 53.7119C1018.77 53.8975 1018.91 54.1123 1019.01 54.3564C1019.12 54.5908 1019.17 54.8496 1019.17 55.1328C1019.17 55.4062 1019.12 55.665 1019.01 55.9092C1018.91 56.1533 1018.77 56.3682 1018.59 56.5537C1018.41 56.7393 1018.2 56.8857 1017.96 56.9932C1017.71 57.0908 1017.45 57.1396 1017.17 57.1396C1016.88 57.1396 1016.62 57.0908 1016.37 56.9932C1016.13 56.8857 1015.92 56.7393 1015.73 56.5537C1015.55 56.3682 1015.41 56.1533 1015.3 55.9092C1015.21 55.665 1015.16 55.4062 1015.16 55.1328C1015.16 54.8496 1015.21 54.5908 1015.3 54.3564C1015.41 54.1123 1015.55 53.8975 1015.73 53.7119C1015.92 53.5264 1016.13 53.3848 1016.37 53.2871C1016.62 53.1797 1016.88 53.126 1017.17 53.126ZM1039.61 73.7949C1039.03 73.9414 1038.43 74.0439 1037.82 74.1025C1037.2 74.1709 1036.58 74.2051 1035.94 74.2051C1034.1 74.2051 1032.72 73.79 1031.81 72.96C1030.91 72.1201 1030.45 70.8359 1030.45 69.1074V61.4316H1026.33V59.293H1030.45V55.25L1033 54.5908V59.293H1039.61V61.4316H1033V68.9023C1033 69.957 1033.28 70.748 1033.83 71.2754C1034.4 71.793 1035.23 72.0518 1036.33 72.0518C1036.79 72.0518 1037.31 72.0176 1037.86 71.9492C1038.42 71.8711 1039 71.7539 1039.61 71.5977V73.7949ZM1055.9 69.9863C1055.9 70.5039 1055.81 70.9678 1055.63 71.3779C1055.46 71.7881 1055.22 72.1543 1054.91 72.4766C1054.61 72.7891 1054.26 73.0576 1053.86 73.2822C1053.46 73.5068 1053.03 73.6924 1052.57 73.8389C1052.12 73.9854 1051.66 74.0928 1051.18 74.1611C1050.7 74.2295 1050.23 74.2637 1049.77 74.2637C1048.78 74.2637 1047.86 74.2197 1047.02 74.1318C1046.19 74.0439 1045.37 73.9023 1044.57 73.707V71.3633C1045.43 71.6074 1046.29 71.793 1047.14 71.9199C1047.99 72.0469 1048.83 72.1104 1049.67 72.1104C1050.89 72.1104 1051.79 71.9443 1052.38 71.6123C1052.97 71.2803 1053.26 70.8066 1053.26 70.1914C1053.26 69.9277 1053.21 69.6934 1053.11 69.4883C1053.02 69.2734 1052.86 69.0732 1052.61 68.8877C1052.37 68.6924 1051.99 68.4922 1051.47 68.2871C1050.96 68.082 1050.27 67.8477 1049.38 67.584C1048.71 67.3887 1048.1 67.1689 1047.53 66.9248C1046.97 66.6709 1046.49 66.373 1046.08 66.0312C1045.67 65.6895 1045.35 65.2891 1045.11 64.8301C1044.88 64.3711 1044.76 63.8291 1044.76 63.2041C1044.76 62.7939 1044.86 62.3447 1045.04 61.8564C1045.24 61.3682 1045.56 60.9141 1046.02 60.4941C1046.48 60.0742 1047.1 59.7275 1047.88 59.4541C1048.66 59.1709 1049.64 59.0293 1050.81 59.0293C1051.39 59.0293 1052.03 59.0635 1052.73 59.1318C1053.43 59.1904 1054.17 59.2979 1054.93 59.4541V61.7246C1054.13 61.5293 1053.37 61.3877 1052.64 61.2998C1051.93 61.2021 1051.31 61.1533 1050.78 61.1533C1050.15 61.1533 1049.61 61.2021 1049.17 61.2998C1048.74 61.3975 1048.39 61.5342 1048.12 61.71C1047.85 61.876 1047.66 62.0762 1047.55 62.3105C1047.43 62.5352 1047.37 62.7793 1047.37 63.043C1047.37 63.3066 1047.42 63.5459 1047.52 63.7607C1047.62 63.9756 1047.81 64.1855 1048.09 64.3906C1048.37 64.5859 1048.76 64.7861 1049.26 64.9912C1049.76 65.1865 1050.41 65.4014 1051.21 65.6357C1052.08 65.8896 1052.81 66.1582 1053.41 66.4414C1054 66.7148 1054.48 67.0225 1054.86 67.3643C1055.23 67.7061 1055.49 68.0918 1055.65 68.5215C1055.81 68.9512 1055.9 69.4395 1055.9 69.9863ZM1063.75 52.1885C1068.25 56.3584 1070.5 60.9971 1070.5 66.1045C1070.5 67.1592 1070.39 68.2529 1070.18 69.3857C1069.96 70.5186 1069.6 71.6807 1069.08 72.8721C1068.56 74.0537 1067.86 75.2549 1066.98 76.4756C1066.12 77.6963 1065.02 78.9219 1063.69 80.1523L1062.21 78.6436C1064.11 76.7588 1065.53 74.791 1066.47 72.7402C1067.41 70.6895 1067.88 68.541 1067.88 66.2949C1067.88 61.6465 1065.99 57.4668 1062.21 53.7559L1063.75 52.1885Z" fill="black"/>
<path opacity="0.5" d="M789.147 32.1523C784.646 27.9824 782.395 23.373 782.395 18.3242C782.395 17.1426 782.512 15.9658 782.746 14.7939C782.99 13.6123 783.376 12.4307 783.903 11.249C784.44 10.0674 785.144 8.88574 786.013 7.7041C786.892 6.52246 787.956 5.35059 789.206 4.18848L790.686 5.69727C786.896 9.4375 785.002 13.583 785.002 18.1338C785.002 20.3994 785.48 22.5771 786.438 24.667C787.395 26.7568 788.811 28.7295 790.686 30.585L789.147 32.1523ZM808.483 21.9863C808.483 22.5039 808.396 22.9678 808.22 23.3779C808.044 23.7881 807.805 24.1543 807.502 24.4766C807.199 24.7891 806.848 25.0576 806.447 25.2822C806.047 25.5068 805.617 25.6924 805.158 25.8389C804.709 25.9854 804.245 26.0928 803.767 26.1611C803.288 26.2295 802.819 26.2637 802.36 26.2637C801.364 26.2637 800.446 26.2197 799.606 26.1318C798.776 26.0439 797.961 25.9023 797.16 25.707V23.3633C798.02 23.6074 798.874 23.793 799.724 23.9199C800.573 24.0469 801.418 24.1104 802.258 24.1104C803.479 24.1104 804.382 23.9443 804.968 23.6123C805.554 23.2803 805.847 22.8066 805.847 22.1914C805.847 21.9277 805.798 21.6934 805.7 21.4883C805.612 21.2734 805.446 21.0732 805.202 20.8877C804.958 20.6924 804.577 20.4922 804.06 20.2871C803.552 20.082 802.854 19.8477 801.965 19.584C801.301 19.3887 800.686 19.1689 800.119 18.9248C799.562 18.6709 799.079 18.373 798.669 18.0312C798.259 17.6895 797.937 17.2891 797.702 16.8301C797.468 16.3711 797.351 15.8291 797.351 15.2041C797.351 14.7939 797.443 14.3447 797.629 13.8564C797.824 13.3682 798.151 12.9141 798.61 12.4941C799.069 12.0742 799.689 11.7275 800.471 11.4541C801.252 11.1709 802.229 11.0293 803.4 11.0293C803.977 11.0293 804.616 11.0635 805.319 11.1318C806.022 11.1904 806.755 11.2979 807.517 11.4541V13.7246C806.716 13.5293 805.954 13.3877 805.231 13.2998C804.519 13.2021 803.898 13.1533 803.371 13.1533C802.736 13.1533 802.199 13.2021 801.76 13.2998C801.33 13.3975 800.979 13.5342 800.705 13.71C800.441 13.876 800.251 14.0762 800.134 14.3105C800.017 14.5352 799.958 14.7793 799.958 15.043C799.958 15.3066 800.007 15.5459 800.104 15.7607C800.212 15.9756 800.402 16.1855 800.676 16.3906C800.959 16.5859 801.35 16.7861 801.848 16.9912C802.346 17.1865 802.995 17.4014 803.796 17.6357C804.665 17.8896 805.397 18.1582 805.993 18.4414C806.589 18.7148 807.072 19.0225 807.443 19.3643C807.814 19.7061 808.078 20.0918 808.234 20.5215C808.4 20.9512 808.483 21.4395 808.483 21.9863ZM825.153 26H822.604V16.6104C822.604 15.4775 822.39 14.6328 821.96 14.0762C821.54 13.5098 820.935 13.2266 820.144 13.2266C819.802 13.2266 819.479 13.2754 819.177 13.373C818.884 13.4609 818.576 13.6221 818.254 13.8564C817.932 14.0811 817.58 14.3887 817.199 14.7793C816.818 15.1699 816.379 15.6582 815.881 16.2441V26H813.332V5.30176H815.881V11.293L815.793 13.6074C816.193 13.1289 816.584 12.7285 816.965 12.4062C817.355 12.0742 817.741 11.8057 818.122 11.6006C818.513 11.3955 818.908 11.249 819.309 11.1611C819.709 11.0732 820.124 11.0293 820.554 11.0293C822.019 11.0293 823.151 11.4785 823.952 12.377C824.753 13.2656 825.153 14.6084 825.153 16.4053V26ZM834.836 13.4023H830.485V11.293H837.414V23.876H841.794V26H830.002V23.876H834.836V13.4023ZM835.729 5.12598C836.013 5.12598 836.276 5.17969 836.521 5.28711C836.765 5.38477 836.975 5.52637 837.15 5.71191C837.336 5.89746 837.478 6.1123 837.575 6.35645C837.683 6.59082 837.736 6.84961 837.736 7.13281C837.736 7.40625 837.683 7.66504 837.575 7.90918C837.478 8.15332 837.336 8.36816 837.15 8.55371C836.975 8.73926 836.765 8.88574 836.521 8.99316C836.276 9.09082 836.013 9.13965 835.729 9.13965C835.446 9.13965 835.183 9.09082 834.938 8.99316C834.694 8.88574 834.479 8.73926 834.294 8.55371C834.118 8.36816 833.977 8.15332 833.869 7.90918C833.771 7.66504 833.723 7.40625 833.723 7.13281C833.723 6.84961 833.771 6.59082 833.869 6.35645C833.977 6.1123 834.118 5.89746 834.294 5.71191C834.479 5.52637 834.694 5.38477 834.938 5.28711C835.183 5.17969 835.446 5.12598 835.729 5.12598ZM859.372 7.6748C858.034 7.3916 856.882 7.25 855.915 7.25C853.62 7.25 852.473 8.45117 852.473 10.8535V13.4316H858.918V15.5557H852.473V26H849.88V15.5557H845.148V13.4316H849.88V11C849.88 7.08398 851.921 5.12598 856.003 5.12598C857.019 5.12598 858.142 5.24316 859.372 5.47754V7.6748ZM874.665 25.7949C874.089 25.9414 873.493 26.0439 872.878 26.1025C872.263 26.1709 871.638 26.2051 871.003 26.2051C869.157 26.2051 867.78 25.79 866.872 24.96C865.964 24.1201 865.51 22.8359 865.51 21.1074V13.4316H861.394V11.293H865.51V7.25L868.059 6.59082V11.293H874.665V13.4316H868.059V20.9023C868.059 21.957 868.337 22.748 868.894 23.2754C869.46 23.793 870.29 24.0518 871.384 24.0518C871.853 24.0518 872.365 24.0176 872.922 23.9492C873.479 23.8711 874.06 23.7539 874.665 23.5977V25.7949ZM891.73 17.8701C891.73 18.2314 891.726 18.5342 891.716 18.7783C891.706 19.0225 891.691 19.252 891.672 19.4668H881.345C881.345 20.9707 881.765 22.1279 882.604 22.9385C883.444 23.7393 884.655 24.1396 886.237 24.1396C886.667 24.1396 887.097 24.125 887.526 24.0957C887.956 24.0566 888.371 24.0078 888.771 23.9492C889.172 23.8906 889.553 23.8271 889.914 23.7588C890.285 23.6807 890.627 23.5977 890.939 23.5098V25.6045C890.246 25.7998 889.46 25.9561 888.581 26.0732C887.712 26.2002 886.809 26.2637 885.871 26.2637C884.611 26.2637 883.527 26.0928 882.619 25.751C881.711 25.4092 880.964 24.916 880.378 24.2715C879.802 23.6172 879.372 22.8213 879.089 21.8838C878.815 20.9365 878.679 19.8672 878.679 18.6758C878.679 17.6406 878.825 16.6641 879.118 15.7461C879.421 14.8184 879.855 14.0078 880.422 13.3145C880.998 12.6113 881.701 12.0547 882.531 11.6445C883.361 11.2344 884.304 11.0293 885.358 11.0293C886.384 11.0293 887.292 11.1904 888.083 11.5127C888.874 11.835 889.538 12.2939 890.075 12.8896C890.622 13.4756 891.032 14.1934 891.306 15.043C891.589 15.8828 891.73 16.8252 891.73 17.8701ZM889.079 17.5039C889.108 16.8496 889.045 16.2539 888.889 15.7168C888.732 15.1699 888.488 14.7012 888.156 14.3105C887.834 13.9199 887.429 13.6172 886.94 13.4023C886.452 13.1777 885.886 13.0654 885.241 13.0654C884.685 13.0654 884.177 13.1729 883.718 13.3877C883.259 13.6025 882.863 13.9053 882.531 14.2959C882.199 14.6865 881.931 15.1553 881.726 15.7021C881.521 16.249 881.394 16.8496 881.345 17.5039H889.079ZM895.056 18.9541C895.056 17.7041 895.227 16.5957 895.568 15.6289C895.91 14.6523 896.394 13.832 897.019 13.168C897.653 12.4941 898.41 11.9863 899.289 11.6445C900.178 11.293 901.164 11.1172 902.248 11.1172C902.717 11.1172 903.176 11.1465 903.625 11.2051C904.084 11.2637 904.533 11.3564 904.973 11.4834V5.30176H907.536V26H905.251L905.163 23.2168C904.45 24.252 903.679 25.0186 902.849 25.5166C902.019 26.0146 901.12 26.2637 900.153 26.2637C899.313 26.2637 898.571 26.0879 897.927 25.7363C897.292 25.3848 896.76 24.8916 896.33 24.2568C895.91 23.6123 895.593 22.8408 895.378 21.9424C895.163 21.0439 895.056 20.0479 895.056 18.9541ZM897.663 18.793C897.663 20.5703 897.922 21.8984 898.439 22.7773C898.967 23.6465 899.709 24.0811 900.666 24.0811C901.311 24.0811 901.989 23.793 902.702 23.2168C903.425 22.6406 904.182 21.7861 904.973 20.6533V13.8271C904.553 13.6318 904.089 13.4854 903.581 13.3877C903.073 13.2803 902.57 13.2266 902.072 13.2266C900.686 13.2266 899.602 13.6758 898.82 14.5742C898.049 15.4727 897.663 16.8789 897.663 18.793ZM941.213 17.8701C941.213 18.2314 941.208 18.5342 941.198 18.7783C941.188 19.0225 941.174 19.252 941.154 19.4668H930.827C930.827 20.9707 931.247 22.1279 932.087 22.9385C932.927 23.7393 934.138 24.1396 935.72 24.1396C936.149 24.1396 936.579 24.125 937.009 24.0957C937.438 24.0566 937.854 24.0078 938.254 23.9492C938.654 23.8906 939.035 23.8271 939.396 23.7588C939.768 23.6807 940.109 23.5977 940.422 23.5098V25.6045C939.729 25.7998 938.942 25.9561 938.063 26.0732C937.194 26.2002 936.291 26.2637 935.354 26.2637C934.094 26.2637 933.01 26.0928 932.102 25.751C931.193 25.4092 930.446 24.916 929.86 24.2715C929.284 23.6172 928.854 22.8213 928.571 21.8838C928.298 20.9365 928.161 19.8672 928.161 18.6758C928.161 17.6406 928.308 16.6641 928.601 15.7461C928.903 14.8184 929.338 14.0078 929.904 13.3145C930.48 12.6113 931.184 12.0547 932.014 11.6445C932.844 11.2344 933.786 11.0293 934.841 11.0293C935.866 11.0293 936.774 11.1904 937.565 11.5127C938.356 11.835 939.021 12.2939 939.558 12.8896C940.104 13.4756 940.515 14.1934 940.788 15.043C941.071 15.8828 941.213 16.8252 941.213 17.8701ZM938.562 17.5039C938.591 16.8496 938.527 16.2539 938.371 15.7168C938.215 15.1699 937.971 14.7012 937.639 14.3105C937.316 13.9199 936.911 13.6172 936.423 13.4023C935.935 13.1777 935.368 13.0654 934.724 13.0654C934.167 13.0654 933.659 13.1729 933.2 13.3877C932.741 13.6025 932.346 13.9053 932.014 14.2959C931.682 14.6865 931.413 15.1553 931.208 15.7021C931.003 16.249 930.876 16.8496 930.827 17.5039H938.562ZM943.908 11.293H946.809L950.412 21.0195L951.188 23.3926L951.994 20.9609L955.568 11.293H958.366L952.595 26H949.665L943.908 11.293ZM974.201 17.8701C974.201 18.2314 974.196 18.5342 974.187 18.7783C974.177 19.0225 974.162 19.252 974.143 19.4668H963.815C963.815 20.9707 964.235 22.1279 965.075 22.9385C965.915 23.7393 967.126 24.1396 968.708 24.1396C969.138 24.1396 969.567 24.125 969.997 24.0957C970.427 24.0566 970.842 24.0078 971.242 23.9492C971.643 23.8906 972.023 23.8271 972.385 23.7588C972.756 23.6807 973.098 23.5977 973.41 23.5098V25.6045C972.717 25.7998 971.931 25.9561 971.052 26.0732C970.183 26.2002 969.279 26.2637 968.342 26.2637C967.082 26.2637 965.998 26.0928 965.09 25.751C964.182 25.4092 963.435 24.916 962.849 24.2715C962.272 23.6172 961.843 22.8213 961.56 21.8838C961.286 20.9365 961.149 19.8672 961.149 18.6758C961.149 17.6406 961.296 16.6641 961.589 15.7461C961.892 14.8184 962.326 14.0078 962.893 13.3145C963.469 12.6113 964.172 12.0547 965.002 11.6445C965.832 11.2344 966.774 11.0293 967.829 11.0293C968.854 11.0293 969.763 11.1904 970.554 11.5127C971.345 11.835 972.009 12.2939 972.546 12.8896C973.093 13.4756 973.503 14.1934 973.776 15.043C974.06 15.8828 974.201 16.8252 974.201 17.8701ZM971.55 17.5039C971.579 16.8496 971.516 16.2539 971.359 15.7168C971.203 15.1699 970.959 14.7012 970.627 14.3105C970.305 13.9199 969.899 13.6172 969.411 13.4023C968.923 13.1777 968.356 13.0654 967.712 13.0654C967.155 13.0654 966.647 13.1729 966.188 13.3877C965.729 13.6025 965.334 13.9053 965.002 14.2959C964.67 14.6865 964.401 15.1553 964.196 15.7021C963.991 16.249 963.864 16.8496 963.815 17.5039H971.55ZM978.273 11.293H980.544L980.646 13.666C981.076 13.1582 981.491 12.7383 981.892 12.4062C982.292 12.0645 982.683 11.791 983.063 11.5859C983.454 11.3809 983.85 11.2393 984.25 11.1611C984.65 11.0732 985.065 11.0293 985.495 11.0293C987.009 11.0293 988.151 11.4785 988.923 12.377C989.704 13.2656 990.095 14.6084 990.095 16.4053V26H987.546V16.6104C987.546 15.458 987.331 14.6084 986.901 14.0615C986.472 13.5049 985.832 13.2266 984.982 13.2266C984.67 13.2266 984.362 13.2754 984.06 13.373C983.767 13.4609 983.459 13.6221 983.137 13.8564C982.814 14.0811 982.463 14.3887 982.082 14.7793C981.711 15.1699 981.291 15.6582 980.822 16.2441V26H978.273V11.293ZM1008.92 32.0059H992.424V29.8965H1008.92V32.0059ZM1023.83 18.3828C1023.83 19.6035 1023.66 20.6973 1023.32 21.6641C1022.99 22.6211 1022.51 23.4365 1021.88 24.1104C1021.27 24.7744 1020.51 25.2871 1019.63 25.6484C1018.74 26 1017.74 26.1758 1016.62 26.1758C1015.75 26.1758 1014.87 26.0928 1013.96 25.9268C1013.05 25.7607 1012.15 25.4971 1011.26 25.1357V5.30176H1013.81V11L1013.69 13.7246C1014.43 12.7383 1015.21 12.0449 1016.04 11.6445C1016.88 11.2344 1017.78 11.0293 1018.73 11.0293C1019.57 11.0293 1020.31 11.2051 1020.94 11.5566C1021.58 11.9082 1022.11 12.4062 1022.54 13.0508C1022.97 13.6855 1023.29 14.457 1023.51 15.3652C1023.72 16.2637 1023.83 17.2695 1023.83 18.3828ZM1021.22 18.5C1021.22 17.7285 1021.16 17.0205 1021.05 16.376C1020.94 15.7314 1020.76 15.1797 1020.52 14.7207C1020.28 14.2617 1019.96 13.9053 1019.58 13.6514C1019.2 13.3877 1018.75 13.2559 1018.22 13.2559C1017.9 13.2559 1017.57 13.3096 1017.24 13.417C1016.91 13.5146 1016.56 13.6855 1016.2 13.9297C1015.85 14.1641 1015.47 14.4814 1015.07 14.8818C1014.68 15.2725 1014.26 15.7607 1013.81 16.3467V23.4805C1014.31 23.6758 1014.82 23.832 1015.33 23.9492C1015.85 24.0566 1016.34 24.1104 1016.81 24.1104C1017.4 24.1104 1017.96 24.0176 1018.48 23.832C1019.02 23.6465 1019.49 23.3389 1019.89 22.9092C1020.3 22.4697 1020.62 21.8936 1020.86 21.1807C1021.1 20.458 1021.22 19.5645 1021.22 18.5ZM1032.77 13.4023H1028.42V11.293H1035.34V23.876H1039.72V26H1027.93V23.876H1032.77V13.4023ZM1033.66 5.12598C1033.94 5.12598 1034.21 5.17969 1034.45 5.28711C1034.69 5.38477 1034.9 5.52637 1035.08 5.71191C1035.27 5.89746 1035.41 6.1123 1035.5 6.35645C1035.61 6.59082 1035.67 6.84961 1035.67 7.13281C1035.67 7.40625 1035.61 7.66504 1035.5 7.90918C1035.41 8.15332 1035.27 8.36816 1035.08 8.55371C1034.9 8.73926 1034.69 8.88574 1034.45 8.99316C1034.21 9.09082 1033.94 9.13965 1033.66 9.13965C1033.38 9.13965 1033.11 9.09082 1032.87 8.99316C1032.62 8.88574 1032.41 8.73926 1032.22 8.55371C1032.05 8.36816 1031.91 8.15332 1031.8 7.90918C1031.7 7.66504 1031.65 7.40625 1031.65 7.13281C1031.65 6.84961 1031.7 6.59082 1031.8 6.35645C1031.91 6.1123 1032.05 5.89746 1032.22 5.71191C1032.41 5.52637 1032.62 5.38477 1032.87 5.28711C1033.11 5.17969 1033.38 5.12598 1033.66 5.12598ZM1056.1 25.7949C1055.52 25.9414 1054.93 26.0439 1054.31 26.1025C1053.7 26.1709 1053.07 26.2051 1052.44 26.2051C1050.59 26.2051 1049.22 25.79 1048.31 24.96C1047.4 24.1201 1046.95 22.8359 1046.95 21.1074V13.4316H1042.83V11.293H1046.95V7.25L1049.49 6.59082V11.293H1056.1V13.4316H1049.49V20.9023C1049.49 21.957 1049.77 22.748 1050.33 23.2754C1050.9 23.793 1051.73 24.0518 1052.82 24.0518C1053.29 24.0518 1053.8 24.0176 1054.36 23.9492C1054.91 23.8711 1055.5 23.7539 1056.1 23.5977V25.7949ZM1072.39 21.9863C1072.39 22.5039 1072.3 22.9678 1072.13 23.3779C1071.95 23.7881 1071.71 24.1543 1071.41 24.4766C1071.11 24.7891 1070.75 25.0576 1070.35 25.2822C1069.95 25.5068 1069.52 25.6924 1069.06 25.8389C1068.62 25.9854 1068.15 26.0928 1067.67 26.1611C1067.19 26.2295 1066.73 26.2637 1066.27 26.2637C1065.27 26.2637 1064.35 26.2197 1063.51 26.1318C1062.68 26.0439 1061.87 25.9023 1061.07 25.707V23.3633C1061.93 23.6074 1062.78 23.793 1063.63 23.9199C1064.48 24.0469 1065.32 24.1104 1066.16 24.1104C1067.38 24.1104 1068.29 23.9443 1068.87 23.6123C1069.46 23.2803 1069.75 22.8066 1069.75 22.1914C1069.75 21.9277 1069.7 21.6934 1069.61 21.4883C1069.52 21.2734 1069.35 21.0732 1069.11 20.8877C1068.86 20.6924 1068.48 20.4922 1067.97 20.2871C1067.46 20.082 1066.76 19.8477 1065.87 19.584C1065.21 19.3887 1064.59 19.1689 1064.03 18.9248C1063.47 18.6709 1062.99 18.373 1062.58 18.0312C1062.17 17.6895 1061.84 17.2891 1061.61 16.8301C1061.37 16.3711 1061.26 15.8291 1061.26 15.2041C1061.26 14.7939 1061.35 14.3447 1061.54 13.8564C1061.73 13.3682 1062.06 12.9141 1062.52 12.4941C1062.98 12.0742 1063.6 11.7275 1064.38 11.4541C1065.16 11.1709 1066.13 11.0293 1067.31 11.0293C1067.88 11.0293 1068.52 11.0635 1069.23 11.1318C1069.93 11.1904 1070.66 11.2979 1071.42 11.4541V13.7246C1070.62 13.5293 1069.86 13.3877 1069.14 13.2998C1068.42 13.2021 1067.8 13.1533 1067.28 13.1533C1066.64 13.1533 1066.11 13.2021 1065.67 13.2998C1065.24 13.3975 1064.88 13.5342 1064.61 13.71C1064.35 13.876 1064.16 14.0762 1064.04 14.3105C1063.92 14.5352 1063.86 14.7793 1063.86 15.043C1063.86 15.3066 1063.91 15.5459 1064.01 15.7607C1064.12 15.9756 1064.31 16.1855 1064.58 16.3906C1064.87 16.5859 1065.26 16.7861 1065.75 16.9912C1066.25 17.1865 1066.9 17.4014 1067.7 17.6357C1068.57 17.8896 1069.3 18.1582 1069.9 18.4414C1070.5 18.7148 1070.98 19.0225 1071.35 19.3643C1071.72 19.7061 1071.98 20.0918 1072.14 20.5215C1072.31 20.9512 1072.39 21.4395 1072.39 21.9863ZM1080.24 4.18848C1084.74 8.3584 1086.99 12.9971 1086.99 18.1045C1086.99 19.1592 1086.89 20.2529 1086.67 21.3857C1086.46 22.5186 1086.09 23.6807 1085.57 24.8721C1085.06 26.0537 1084.36 27.2549 1083.48 28.4756C1082.61 29.6963 1081.51 30.9219 1080.18 32.1523L1078.7 30.6436C1080.61 28.7588 1082.03 26.791 1082.97 24.7402C1083.9 22.6895 1084.37 20.541 1084.37 18.2949C1084.37 13.6465 1082.48 9.4668 1078.7 5.75586L1080.24 4.18848Z" fill="black"/>
</g>
<defs>
<clipPath id="clip0_6296_4869">
<rect width="1088" height="136" fill="white"/>
</clipPath>
</defs>
</svg>
