<svg width="831" height="44" viewBox="0 0 831 44" fill="none" xmlns="http://www.w3.org/2000/svg">
<g clip-path="url(#clip0_6103_222)">
<rect width="831" height="44" fill="white"/>
<path d="M8.52832 38.0059H1.30664V10.7891H8.52832V12.8398H3.73828V35.9551H8.52832V38.0059Z" fill="black"/>
<path d="M340.693 38.0059H333.472V35.9551H338.232V12.8398H333.472V10.7891H340.693V38.0059Z" fill="black"/>
<path d="M19.6328 29.2178H10.873V26.8154H19.6328V29.2178ZM38.1045 36H26.0781V33.627H31V19.6523L26.415 22.1426L25.4775 19.9746L31.5713 16.7666H33.8271V33.627H38.1045V36Z" fill="black"/>
<path d="M93.5186 36H80.9062V33.7148L85.8574 28.793C86.668 27.9922 87.3271 27.2988 87.835 26.7129C88.3428 26.127 88.7383 25.5947 89.0215 25.1162C89.3047 24.6279 89.4951 24.1689 89.5928 23.7393C89.6904 23.3096 89.7393 22.8457 89.7393 22.3477C89.7393 21.8789 89.6758 21.4346 89.5488 21.0146C89.4219 20.585 89.2266 20.209 88.9629 19.8867C88.6992 19.5645 88.3574 19.3105 87.9375 19.125C87.5176 18.9395 87.0146 18.8467 86.4287 18.8467C85.6182 18.8467 84.8809 19.0273 84.2168 19.3887C83.5527 19.75 82.9424 20.2188 82.3857 20.7949L80.9795 19.1104C81.7021 18.3486 82.5322 17.7383 83.4697 17.2793C84.417 16.8203 85.5156 16.5908 86.7656 16.5908C87.6152 16.5908 88.3867 16.7178 89.0801 16.9717C89.7832 17.2256 90.3887 17.5918 90.8965 18.0703C91.4043 18.5488 91.7949 19.1348 92.0684 19.8281C92.3516 20.5215 92.4932 21.3027 92.4932 22.1719C92.4932 22.9043 92.3955 23.583 92.2002 24.208C92.0049 24.833 91.707 25.458 91.3066 26.083C90.916 26.6982 90.418 27.3379 89.8125 28.002C89.2168 28.666 88.5088 29.3936 87.6885 30.1846L84.2168 33.5684H93.5186V36Z" fill="black"/>
<path d="M323.519 36H310.906V33.7148L315.857 28.793C316.668 27.9922 317.327 27.2988 317.835 26.7129C318.343 26.127 318.738 25.5947 319.021 25.1162C319.305 24.6279 319.495 24.1689 319.593 23.7393C319.69 23.3096 319.739 22.8457 319.739 22.3477C319.739 21.8789 319.676 21.4346 319.549 21.0146C319.422 20.585 319.227 20.209 318.963 19.8867C318.699 19.5645 318.357 19.3105 317.938 19.125C317.518 18.9395 317.015 18.8467 316.429 18.8467C315.618 18.8467 314.881 19.0273 314.217 19.3887C313.553 19.75 312.942 20.2188 312.386 20.7949L310.979 19.1104C311.702 18.3486 312.532 17.7383 313.47 17.2793C314.417 16.8203 315.516 16.5908 316.766 16.5908C317.615 16.5908 318.387 16.7178 319.08 16.9717C319.783 17.2256 320.389 17.5918 320.896 18.0703C321.404 18.5488 321.795 19.1348 322.068 19.8281C322.352 20.5215 322.493 21.3027 322.493 22.1719C322.493 22.9043 322.396 23.583 322.2 24.208C322.005 24.833 321.707 25.458 321.307 26.083C320.916 26.6982 320.418 27.3379 319.812 28.002C319.217 28.666 318.509 29.3936 317.688 30.1846L314.217 33.5684H323.519V36Z" fill="black"/>
<path d="M133.633 29.2178H124.873V26.8154H133.633V29.2178ZM152.266 36H139.653V33.7148L144.604 28.793C145.415 27.9922 146.074 27.2988 146.582 26.7129C147.09 26.127 147.485 25.5947 147.769 25.1162C148.052 24.6279 148.242 24.1689 148.34 23.7393C148.438 23.3096 148.486 22.8457 148.486 22.3477C148.486 21.8789 148.423 21.4346 148.296 21.0146C148.169 20.585 147.974 20.209 147.71 19.8867C147.446 19.5645 147.104 19.3105 146.685 19.125C146.265 18.9395 145.762 18.8467 145.176 18.8467C144.365 18.8467 143.628 19.0273 142.964 19.3887C142.3 19.75 141.689 20.2188 141.133 20.7949L139.727 19.1104C140.449 18.3486 141.279 17.7383 142.217 17.2793C143.164 16.8203 144.263 16.5908 145.513 16.5908C146.362 16.5908 147.134 16.7178 147.827 16.9717C148.53 17.2256 149.136 17.5918 149.644 18.0703C150.151 18.5488 150.542 19.1348 150.815 19.8281C151.099 20.5215 151.24 21.3027 151.24 22.1719C151.24 22.9043 151.143 23.583 150.947 24.208C150.752 24.833 150.454 25.458 150.054 26.083C149.663 26.6982 149.165 27.3379 148.56 28.002C147.964 28.666 147.256 29.3936 146.436 30.1846L142.964 33.5684H152.266V36Z" fill="black"/>
<path d="M209.357 36H197.331V33.627H202.253V19.6523L197.668 22.1426L196.73 19.9746L202.824 16.7666H205.08V33.627H209.357V36Z" fill="black"/>
<path d="M247.633 29.2178H238.873V26.8154H247.633V29.2178ZM266.104 36H254.078V33.627H259V19.6523L254.415 22.1426L253.478 19.9746L259.571 16.7666H261.827V33.627H266.104V36Z" fill="black"/>
<path d="M495.528 38.0059H488.307V10.7891H495.528V12.8398H490.738V35.9551H495.528V38.0059Z" fill="black"/>
<path d="M827.693 38.0059H820.472V35.9551H825.232V12.8398H820.472V10.7891H827.693V38.0059Z" fill="black"/>
<path d="M753.519 34H740.906V31.7148L745.857 26.793C746.668 25.9922 747.327 25.2988 747.835 24.7129C748.343 24.127 748.738 23.5947 749.021 23.1162C749.305 22.6279 749.495 22.1689 749.593 21.7393C749.69 21.3096 749.739 20.8457 749.739 20.3477C749.739 19.8789 749.676 19.4346 749.549 19.0146C749.422 18.585 749.227 18.209 748.963 17.8867C748.699 17.5645 748.357 17.3105 747.938 17.125C747.518 16.9395 747.015 16.8467 746.429 16.8467C745.618 16.8467 744.881 17.0273 744.217 17.3887C743.553 17.75 742.942 18.2188 742.386 18.7949L740.979 17.1104C741.702 16.3486 742.532 15.7383 743.47 15.2793C744.417 14.8203 745.516 14.5908 746.766 14.5908C747.615 14.5908 748.387 14.7178 749.08 14.9717C749.783 15.2256 750.389 15.5918 750.896 16.0703C751.404 16.5488 751.795 17.1348 752.068 17.8281C752.352 18.5215 752.493 19.3027 752.493 20.1719C752.493 20.9043 752.396 21.583 752.2 22.208C752.005 22.833 751.707 23.458 751.307 24.083C750.916 24.6982 750.418 25.3379 749.812 26.002C749.217 26.666 748.509 27.3936 747.688 28.1846L744.217 31.5684H753.519V34Z" fill="black"/>
<path d="M810.519 34H797.906V31.7148L802.857 26.793C803.668 25.9922 804.327 25.2988 804.835 24.7129C805.343 24.127 805.738 23.5947 806.021 23.1162C806.305 22.6279 806.495 22.1689 806.593 21.7393C806.69 21.3096 806.739 20.8457 806.739 20.3477C806.739 19.8789 806.676 19.4346 806.549 19.0146C806.422 18.585 806.227 18.209 805.963 17.8867C805.699 17.5645 805.357 17.3105 804.938 17.125C804.518 16.9395 804.015 16.8467 803.429 16.8467C802.618 16.8467 801.881 17.0273 801.217 17.3887C800.553 17.75 799.942 18.2188 799.386 18.7949L797.979 17.1104C798.702 16.3486 799.532 15.7383 800.47 15.2793C801.417 14.8203 802.516 14.5908 803.766 14.5908C804.615 14.5908 805.387 14.7178 806.08 14.9717C806.783 15.2256 807.389 15.5918 807.896 16.0703C808.404 16.5488 808.795 17.1348 809.068 17.8281C809.352 18.5215 809.493 19.3027 809.493 20.1719C809.493 20.9043 809.396 21.583 809.2 22.208C809.005 22.833 808.707 23.458 808.307 24.083C807.916 24.6982 807.418 25.3379 806.812 26.002C806.217 26.666 805.509 27.3936 804.688 28.1846L801.217 31.5684H810.519V34Z" fill="black"/>
<path d="M509.633 27.2178H500.873V24.8154H509.633V27.2178ZM528.266 34H515.653V31.7148L520.604 26.793C521.415 25.9922 522.074 25.2988 522.582 24.7129C523.09 24.127 523.485 23.5947 523.769 23.1162C524.052 22.6279 524.242 22.1689 524.34 21.7393C524.438 21.3096 524.486 20.8457 524.486 20.3477C524.486 19.8789 524.423 19.4346 524.296 19.0146C524.169 18.585 523.974 18.209 523.71 17.8867C523.446 17.5645 523.104 17.3105 522.685 17.125C522.265 16.9395 521.762 16.8467 521.176 16.8467C520.365 16.8467 519.628 17.0273 518.964 17.3887C518.3 17.75 517.689 18.2188 517.133 18.7949L515.727 17.1104C516.449 16.3486 517.279 15.7383 518.217 15.2793C519.164 14.8203 520.263 14.5908 521.513 14.5908C522.362 14.5908 523.134 14.7178 523.827 14.9717C524.53 15.2256 525.136 15.5918 525.644 16.0703C526.151 16.5488 526.542 17.1348 526.815 17.8281C527.099 18.5215 527.24 19.3027 527.24 20.1719C527.24 20.9043 527.143 21.583 526.947 22.208C526.752 22.833 526.454 23.458 526.054 24.083C525.663 24.6982 525.165 25.3379 524.56 26.002C523.964 26.666 523.256 27.3936 522.436 28.1846L518.964 31.5684H528.266V34Z" fill="black"/>
<path d="M696.357 34H684.331V31.627H689.253V17.6523L684.668 20.1426L683.73 17.9746L689.824 14.7666H692.08V31.627H696.357V34Z" fill="black"/>
<path d="M562.633 27.2178H553.873V24.8154H562.633V27.2178ZM581.104 34H569.078V31.627H574V17.6523L569.415 20.1426L568.478 17.9746L574.571 14.7666H576.827V31.627H581.104V34Z" fill="black"/>
<path d="M456.707 32.7071C457.098 32.3166 457.098 31.6834 456.707 31.2929L450.343 24.9289C449.953 24.5384 449.319 24.5384 448.929 24.9289C448.538 25.3195 448.538 25.9526 448.929 26.3432L454.586 32L448.929 37.6569C448.538 38.0474 448.538 38.6805 448.929 39.0711C449.319 39.4616 449.953 39.4616 450.343 39.0711L456.707 32.7071ZM376 33L456 33L456 31L376 31L376 33Z" fill="black"/>
<path d="M399.034 23.5215C399.034 23.9701 398.958 24.3721 398.806 24.7275C398.653 25.083 398.446 25.4004 398.184 25.6797C397.921 25.9505 397.617 26.1833 397.27 26.3779C396.923 26.5726 396.55 26.7334 396.152 26.8604C395.763 26.9873 395.361 27.0804 394.946 27.1396C394.532 27.1989 394.125 27.2285 393.728 27.2285C392.864 27.2285 392.069 27.1904 391.341 27.1143C390.621 27.0381 389.915 26.9154 389.221 26.7461V24.7148C389.965 24.9264 390.706 25.0872 391.442 25.1973C392.179 25.3073 392.911 25.3623 393.639 25.3623C394.697 25.3623 395.479 25.2184 395.987 24.9307C396.495 24.6429 396.749 24.2324 396.749 23.6992C396.749 23.4707 396.707 23.2676 396.622 23.0898C396.546 22.9036 396.402 22.7301 396.19 22.5693C395.979 22.4001 395.649 22.2266 395.2 22.0488C394.76 21.8711 394.155 21.668 393.385 21.4395C392.809 21.2702 392.276 21.0798 391.785 20.8682C391.303 20.6481 390.884 20.39 390.528 20.0938C390.173 19.7975 389.894 19.4505 389.69 19.0527C389.487 18.6549 389.386 18.1852 389.386 17.6436C389.386 17.2881 389.466 16.8988 389.627 16.4756C389.796 16.0524 390.08 15.6589 390.478 15.2949C390.875 14.931 391.413 14.6305 392.09 14.3936C392.767 14.1481 393.613 14.0254 394.629 14.0254C395.128 14.0254 395.683 14.055 396.292 14.1143C396.901 14.165 397.536 14.2581 398.196 14.3936V16.3613C397.502 16.1921 396.842 16.0693 396.216 15.9932C395.598 15.9085 395.061 15.8662 394.604 15.8662C394.053 15.8662 393.588 15.9085 393.207 15.9932C392.835 16.0778 392.53 16.1963 392.293 16.3486C392.064 16.4925 391.899 16.666 391.798 16.8691C391.696 17.0638 391.646 17.2754 391.646 17.5039C391.646 17.7324 391.688 17.9398 391.772 18.126C391.866 18.3122 392.031 18.4941 392.268 18.6719C392.513 18.8411 392.852 19.0146 393.283 19.1924C393.715 19.3617 394.278 19.5479 394.972 19.751C395.725 19.971 396.36 20.2038 396.876 20.4492C397.392 20.6862 397.811 20.9528 398.133 21.249C398.454 21.5452 398.683 21.8796 398.818 22.252C398.962 22.6243 399.034 23.0475 399.034 23.5215ZM414.332 20.5254C414.332 21.5156 414.192 22.4255 413.913 23.2549C413.634 24.0758 413.232 24.7826 412.707 25.375C412.182 25.959 411.543 26.416 410.79 26.7461C410.037 27.0677 409.182 27.2285 408.226 27.2285C407.312 27.2285 406.491 27.0889 405.763 26.8096C405.043 26.5218 404.43 26.1029 403.922 25.5527C403.423 25.0026 403.037 24.3213 402.767 23.5088C402.504 22.6963 402.373 21.7611 402.373 20.7031C402.373 19.7129 402.513 18.8115 402.792 17.999C403.071 17.1781 403.473 16.4756 403.998 15.8916C404.523 15.2992 405.162 14.8421 405.915 14.5205C406.668 14.1904 407.523 14.0254 408.479 14.0254C409.394 14.0254 410.21 14.1693 410.93 14.457C411.658 14.7363 412.271 15.151 412.771 15.7012C413.278 16.2428 413.663 16.9199 413.926 17.7324C414.197 18.5449 414.332 19.4759 414.332 20.5254ZM412.072 20.627C412.072 19.8398 411.983 19.1543 411.806 18.5703C411.636 17.9779 411.391 17.487 411.069 17.0977C410.748 16.6999 410.354 16.4036 409.889 16.209C409.432 16.0059 408.92 15.9043 408.353 15.9043C407.692 15.9043 407.125 16.0355 406.651 16.2979C406.186 16.5518 405.801 16.8945 405.496 17.3262C405.2 17.7578 404.98 18.2614 404.836 18.8369C404.701 19.404 404.633 20.0007 404.633 20.627C404.633 21.4141 404.717 22.1038 404.887 22.6963C405.064 23.2887 405.314 23.7839 405.636 24.1816C405.957 24.571 406.347 24.8672 406.804 25.0703C407.261 25.265 407.777 25.3623 408.353 25.3623C409.013 25.3623 409.576 25.2354 410.041 24.9814C410.515 24.7191 410.9 24.3721 411.196 23.9404C411.501 23.5088 411.721 23.0094 411.856 22.4424C412 21.8669 412.072 21.2617 412.072 20.627ZM418.052 14.2539H420.07L420.134 16.6025C420.887 15.6969 421.628 15.041 422.355 14.6348C423.092 14.2285 423.832 14.0254 424.577 14.0254C425.897 14.0254 426.896 14.4528 427.573 15.3076C428.259 16.1624 428.576 17.432 428.525 19.1162H426.291C426.316 17.999 426.151 17.1908 425.796 16.6914C425.449 16.1836 424.937 15.9297 424.26 15.9297C423.964 15.9297 423.663 15.9847 423.358 16.0947C423.062 16.1963 422.753 16.3656 422.432 16.6025C422.118 16.8311 421.784 17.1273 421.429 17.4912C421.073 17.8551 420.692 18.2952 420.286 18.8115V27H418.052V14.2539ZM442.097 26.8223C441.597 26.9492 441.081 27.0381 440.548 27.0889C440.015 27.1481 439.473 27.1777 438.923 27.1777C437.323 27.1777 436.13 26.818 435.343 26.0986C434.556 25.3708 434.162 24.2578 434.162 22.7598V16.1074H430.595V14.2539H434.162V10.75L436.371 10.1787V14.2539H442.097V16.1074H436.371V22.582C436.371 23.4961 436.612 24.1816 437.095 24.6387C437.586 25.0872 438.305 25.3115 439.253 25.3115C439.659 25.3115 440.104 25.2819 440.586 25.2227C441.068 25.1549 441.572 25.0534 442.097 24.918V26.8223Z" fill="black"/>
<path d="M620.633 27.2178H611.873V24.8154H620.633V27.2178ZM639.104 34H627.078V31.627H632V17.6523L627.415 20.1426L626.478 17.9746L632.571 14.7666H634.827V31.627H639.104V34Z" fill="black"/>
</g>
<defs>
<clipPath id="clip0_6103_222">
<rect width="831" height="44" fill="white"/>
</clipPath>
</defs>
</svg>
