<svg width="1093" height="76" viewBox="0 0 1093 76" fill="none" xmlns="http://www.w3.org/2000/svg">
<g clip-path="url(#clip0_6296_4819)">
<rect width="1093" height="76" fill="white"/>
<path opacity="0.5" d="M223.399 15.1846C223.399 16.0244 223.229 16.8154 222.887 17.5576C222.545 18.29 222.032 18.9346 221.349 19.4912C220.665 20.0381 219.806 20.4727 218.771 20.7949C217.735 21.1074 216.529 21.2637 215.152 21.2637C214.391 21.2637 213.707 21.2393 213.102 21.1904C212.496 21.1416 211.93 21.0781 211.402 21V18.7148C212.008 18.8223 212.647 18.9053 213.321 18.9639C213.995 19.0225 214.684 19.0518 215.387 19.0518C216.344 19.0518 217.159 18.9688 217.833 18.8027C218.517 18.627 219.073 18.3779 219.503 18.0557C219.933 17.7334 220.245 17.3428 220.44 16.8838C220.636 16.4248 220.733 15.9072 220.733 15.3311C220.733 14.8037 220.616 14.3447 220.382 13.9541C220.147 13.5635 219.815 13.2363 219.386 12.9727C218.966 12.709 218.458 12.5137 217.862 12.3867C217.276 12.25 216.632 12.1816 215.929 12.1816H213.746V10.0869H215.958C216.534 10.0869 217.057 10.0137 217.525 9.86719C218.004 9.71094 218.409 9.49121 218.741 9.20801C219.083 8.9248 219.342 8.57812 219.518 8.16797C219.703 7.74805 219.796 7.27441 219.796 6.74707C219.796 5.72168 219.483 4.97461 218.858 4.50586C218.233 4.03711 217.315 3.80273 216.104 3.80273C215.46 3.80273 214.796 3.86621 214.112 3.99316C213.429 4.12012 212.696 4.31055 211.915 4.56445V2.33789C212.247 2.2207 212.599 2.11816 212.97 2.03027C213.351 1.93262 213.727 1.85449 214.098 1.7959C214.479 1.72754 214.854 1.67871 215.226 1.64941C215.597 1.61035 215.953 1.59082 216.295 1.59082C217.311 1.59082 218.204 1.70313 218.976 1.92773C219.747 2.14258 220.392 2.45508 220.909 2.86523C221.427 3.27539 221.817 3.77344 222.081 4.35938C222.345 4.94531 222.477 5.60449 222.477 6.33691C222.477 7.43066 222.193 8.34863 221.627 9.09082C221.07 9.83301 220.304 10.4238 219.327 10.8633C219.825 10.9414 220.313 11.0977 220.792 11.332C221.28 11.5664 221.715 11.8691 222.096 12.2402C222.486 12.6016 222.799 13.0312 223.033 13.5293C223.277 14.0273 223.399 14.5791 223.399 15.1846ZM240.099 21H228.072V18.627H232.994V4.65234L228.409 7.14258L227.472 4.97461L233.565 1.7666H235.821V18.627H240.099V21ZM289.376 15.1846C289.376 16.0244 289.205 16.8154 288.863 17.5576C288.521 18.29 288.009 18.9346 287.325 19.4912C286.642 20.0381 285.782 20.4727 284.747 20.7949C283.712 21.1074 282.506 21.2637 281.129 21.2637C280.367 21.2637 279.684 21.2393 279.078 21.1904C278.473 21.1416 277.906 21.0781 277.379 21V18.7148C277.984 18.8223 278.624 18.9053 279.298 18.9639C279.972 19.0225 280.66 19.0518 281.363 19.0518C282.32 19.0518 283.136 18.9688 283.81 18.8027C284.493 18.627 285.05 18.3779 285.479 18.0557C285.909 17.7334 286.222 17.3428 286.417 16.8838C286.612 16.4248 286.71 15.9072 286.71 15.3311C286.71 14.8037 286.593 14.3447 286.358 13.9541C286.124 13.5635 285.792 13.2363 285.362 12.9727C284.942 12.709 284.435 12.5137 283.839 12.3867C283.253 12.25 282.608 12.1816 281.905 12.1816H279.723V10.0869H281.935C282.511 10.0869 283.033 10.0137 283.502 9.86719C283.98 9.71094 284.386 9.49121 284.718 9.20801C285.06 8.9248 285.318 8.57812 285.494 8.16797C285.68 7.74805 285.772 7.27441 285.772 6.74707C285.772 5.72168 285.46 4.97461 284.835 4.50586C284.21 4.03711 283.292 3.80273 282.081 3.80273C281.437 3.80273 280.772 3.86621 280.089 3.99316C279.405 4.12012 278.673 4.31055 277.892 4.56445V2.33789C278.224 2.2207 278.575 2.11816 278.946 2.03027C279.327 1.93262 279.703 1.85449 280.074 1.7959C280.455 1.72754 280.831 1.67871 281.202 1.64941C281.573 1.61035 281.93 1.59082 282.271 1.59082C283.287 1.59082 284.181 1.70313 284.952 1.92773C285.724 2.14258 286.368 2.45508 286.886 2.86523C287.403 3.27539 287.794 3.77344 288.058 4.35938C288.321 4.94531 288.453 5.60449 288.453 6.33691C288.453 7.43066 288.17 8.34863 287.604 9.09082C287.047 9.83301 286.28 10.4238 285.304 10.8633C285.802 10.9414 286.29 11.0977 286.769 11.332C287.257 11.5664 287.691 11.8691 288.072 12.2402C288.463 12.6016 288.775 13.0312 289.01 13.5293C289.254 14.0273 289.376 14.5791 289.376 15.1846ZM306.676 11.4346C306.676 12.8994 306.529 14.2373 306.236 15.4482C305.943 16.6494 305.499 17.6846 304.903 18.5537C304.308 19.4131 303.565 20.082 302.677 20.5605C301.798 21.0293 300.763 21.2637 299.571 21.2637C298.546 21.2637 297.613 21.0732 296.773 20.6924C295.934 20.3018 295.216 19.7061 294.62 18.9053C294.024 18.1045 293.565 17.084 293.243 15.8438C292.921 14.6035 292.76 13.1338 292.76 11.4346C292.76 9.96973 292.906 8.63184 293.199 7.4209C293.502 6.20996 293.946 5.1748 294.532 4.31543C295.128 3.44629 295.87 2.77734 296.759 2.30859C297.647 1.83008 298.683 1.59082 299.864 1.59082C300.89 1.59082 301.822 1.78613 302.662 2.17676C303.502 2.55762 304.22 3.15332 304.815 3.96387C305.411 4.76465 305.87 5.78516 306.192 7.02539C306.515 8.26562 306.676 9.73535 306.676 11.4346ZM304.098 11.5225C304.098 11.1904 304.083 10.8633 304.054 10.541C304.034 10.209 304.01 9.88672 303.98 9.57422L295.88 15.5947C296.026 16.1025 296.212 16.5713 296.437 17.001C296.661 17.4307 296.93 17.8018 297.242 18.1143C297.564 18.417 297.926 18.6562 298.326 18.832C298.736 18.998 299.2 19.0811 299.718 19.0811C300.382 19.0811 300.982 18.9199 301.52 18.5977C302.066 18.2754 302.53 17.7969 302.911 17.1621C303.292 16.5273 303.585 15.7412 303.79 14.8037C303.995 13.8564 304.098 12.7627 304.098 11.5225ZM295.338 11.3467C295.338 11.6494 295.338 11.9521 295.338 12.2549C295.348 12.5576 295.367 12.8506 295.396 13.1338L303.497 7.14258C303.351 6.64453 303.165 6.19043 302.94 5.78027C302.716 5.37012 302.447 5.01855 302.135 4.72559C301.822 4.42285 301.466 4.18848 301.065 4.02246C300.665 3.85645 300.216 3.77344 299.718 3.77344C299.054 3.77344 298.448 3.93457 297.901 4.25684C297.364 4.5791 296.905 5.0625 296.524 5.70703C296.144 6.3418 295.851 7.13281 295.646 8.08008C295.44 9.01758 295.338 10.1064 295.338 11.3467ZM355.719 21H343.106V18.7148L348.058 13.793C348.868 12.9922 349.527 12.2988 350.035 11.7129C350.543 11.127 350.938 10.5947 351.222 10.1162C351.505 9.62793 351.695 9.16895 351.793 8.73926C351.891 8.30957 351.939 7.8457 351.939 7.34766C351.939 6.87891 351.876 6.43457 351.749 6.01465C351.622 5.58496 351.427 5.20898 351.163 4.88672C350.899 4.56445 350.558 4.31055 350.138 4.125C349.718 3.93945 349.215 3.84668 348.629 3.84668C347.818 3.84668 347.081 4.02734 346.417 4.38867C345.753 4.75 345.143 5.21875 344.586 5.79492L343.18 4.11035C343.902 3.34863 344.732 2.73828 345.67 2.2793C346.617 1.82031 347.716 1.59082 348.966 1.59082C349.815 1.59082 350.587 1.71777 351.28 1.97168C351.983 2.22559 352.589 2.5918 353.097 3.07031C353.604 3.54883 353.995 4.13477 354.269 4.82812C354.552 5.52148 354.693 6.30273 354.693 7.17188C354.693 7.9043 354.596 8.58301 354.4 9.20801C354.205 9.83301 353.907 10.458 353.507 11.083C353.116 11.6982 352.618 12.3379 352.013 13.002C351.417 13.666 350.709 14.3936 349.889 15.1846L346.417 18.5684H355.719V21ZM372.11 10.3506C372.11 12.2158 371.886 13.8223 371.437 15.1699C370.987 16.5078 370.323 17.6113 369.444 18.4805C368.565 19.3398 367.477 19.9746 366.178 20.3848C364.879 20.7949 363.38 21 361.681 21H360.084V18.7734H361.856C363.116 18.7734 364.205 18.6465 365.123 18.3926C366.041 18.1387 366.803 17.7676 367.408 17.2793C368.023 16.7812 368.492 16.1807 368.814 15.4775C369.137 14.7646 369.337 13.9541 369.415 13.0459L369.474 12.4453C368.858 12.8066 368.15 13.0996 367.35 13.3242C366.549 13.5391 365.68 13.6465 364.742 13.6465C363.775 13.6465 362.926 13.5049 362.193 13.2217C361.461 12.9385 360.851 12.543 360.362 12.0352C359.884 11.5273 359.522 10.9268 359.278 10.2334C359.034 9.53027 358.912 8.76855 358.912 7.94824C358.912 7.05957 359.073 6.22949 359.396 5.45801C359.718 4.68652 360.167 4.01758 360.743 3.45117C361.329 2.875 362.027 2.4209 362.838 2.08887C363.648 1.75684 364.542 1.59082 365.519 1.59082C366.466 1.59082 367.34 1.74707 368.141 2.05957C368.951 2.37207 369.649 2.87988 370.235 3.58301C370.821 4.27637 371.28 5.17969 371.612 6.29297C371.944 7.40625 372.11 8.75879 372.11 10.3506ZM365.401 3.68555C364.854 3.68555 364.347 3.77832 363.878 3.96387C363.419 4.13965 363.019 4.40332 362.677 4.75488C362.345 5.09668 362.081 5.52148 361.886 6.0293C361.69 6.53711 361.593 7.11816 361.593 7.77246C361.593 8.36816 361.661 8.90039 361.798 9.36914C361.944 9.83789 362.164 10.2383 362.457 10.5703C362.76 10.8926 363.146 11.1416 363.614 11.3174C364.083 11.4932 364.64 11.5811 365.284 11.5811C365.646 11.5811 366.017 11.5469 366.397 11.4785C366.788 11.4102 367.164 11.3174 367.525 11.2002C367.896 11.083 368.248 10.9463 368.58 10.79C368.912 10.6338 369.21 10.4678 369.474 10.292C369.474 9.03223 369.381 7.98242 369.195 7.14258C369.01 6.29297 368.741 5.61426 368.39 5.10645C368.038 4.58887 367.608 4.22266 367.101 4.00781C366.603 3.79297 366.036 3.68555 365.401 3.68555ZM421.695 21H409.083V18.7148L414.034 13.793C414.845 12.9922 415.504 12.2988 416.012 11.7129C416.52 11.127 416.915 10.5947 417.198 10.1162C417.481 9.62793 417.672 9.16895 417.77 8.73926C417.867 8.30957 417.916 7.8457 417.916 7.34766C417.916 6.87891 417.853 6.43457 417.726 6.01465C417.599 5.58496 417.403 5.20898 417.14 4.88672C416.876 4.56445 416.534 4.31055 416.114 4.125C415.694 3.93945 415.191 3.84668 414.605 3.84668C413.795 3.84668 413.058 4.02734 412.394 4.38867C411.729 4.75 411.119 5.21875 410.562 5.79492L409.156 4.11035C409.879 3.34863 410.709 2.73828 411.646 2.2793C412.594 1.82031 413.692 1.59082 414.942 1.59082C415.792 1.59082 416.563 1.71777 417.257 1.97168C417.96 2.22559 418.565 2.5918 419.073 3.07031C419.581 3.54883 419.972 4.13477 420.245 4.82812C420.528 5.52148 420.67 6.30273 420.67 7.17188C420.67 7.9043 420.572 8.58301 420.377 9.20801C420.182 9.83301 419.884 10.458 419.483 11.083C419.093 11.6982 418.595 12.3379 417.989 13.002C417.394 13.666 416.686 14.3936 415.865 15.1846L412.394 18.5684H421.695V21ZM438.189 16.1953C438.189 17.0059 438.023 17.7285 437.691 18.3633C437.359 18.9883 436.896 19.5156 436.3 19.9453C435.704 20.375 435.001 20.7021 434.19 20.9268C433.38 21.1514 432.501 21.2637 431.554 21.2637C430.509 21.2637 429.586 21.1465 428.785 20.9121C427.994 20.6777 427.33 20.3506 426.793 19.9307C426.256 19.5107 425.851 19.0127 425.577 18.4365C425.304 17.8604 425.167 17.2256 425.167 16.5322C425.167 15.3604 425.494 14.3496 426.148 13.5C426.803 12.6504 427.813 11.8789 429.181 11.1855C427.931 10.5508 427.018 9.84766 426.441 9.07617C425.865 8.29492 425.577 7.40137 425.577 6.39551C425.577 5.78027 425.704 5.18457 425.958 4.6084C426.212 4.03223 426.593 3.51953 427.101 3.07031C427.618 2.62109 428.263 2.26465 429.034 2.00098C429.806 1.72754 430.714 1.59082 431.759 1.59082C432.745 1.59082 433.609 1.69824 434.352 1.91309C435.104 2.11816 435.733 2.41602 436.241 2.80664C436.749 3.19727 437.13 3.6709 437.384 4.22754C437.638 4.78418 437.765 5.4043 437.765 6.08789C437.765 7.20117 437.452 8.14844 436.827 8.92969C436.212 9.71094 435.333 10.3945 434.19 10.9805C434.757 11.2637 435.284 11.5762 435.772 11.918C436.261 12.2598 436.686 12.6406 437.047 13.0605C437.408 13.4805 437.687 13.9492 437.882 14.4668C438.087 14.9844 438.189 15.5605 438.189 16.1953ZM435.157 6.29297C435.157 5.42383 434.85 4.7793 434.234 4.35938C433.629 3.92969 432.774 3.71484 431.671 3.71484C430.577 3.71484 429.723 3.9248 429.107 4.34473C428.502 4.76465 428.199 5.39453 428.199 6.23438C428.199 6.61523 428.272 6.9668 428.419 7.28906C428.565 7.61133 428.79 7.91406 429.093 8.19727C429.405 8.48047 429.791 8.75879 430.25 9.03223C430.709 9.30566 431.256 9.58398 431.891 9.86719C432.994 9.34961 433.814 8.8125 434.352 8.25586C434.889 7.68945 435.157 7.03516 435.157 6.29297ZM435.421 16.3857C435.421 16.0244 435.362 15.6729 435.245 15.3311C435.128 14.9893 434.918 14.6523 434.615 14.3203C434.312 13.9883 433.907 13.6562 433.399 13.3242C432.892 12.9922 432.247 12.6504 431.466 12.2988C430.802 12.6211 430.24 12.9434 429.781 13.2656C429.332 13.5781 428.966 13.9004 428.683 14.2324C428.409 14.5547 428.214 14.8916 428.097 15.2432C427.979 15.5947 427.921 15.9658 427.921 16.3564C427.921 16.7959 428.014 17.1865 428.199 17.5283C428.395 17.8604 428.658 18.1436 428.99 18.3779C429.322 18.6123 429.718 18.7881 430.177 18.9053C430.636 19.0225 431.134 19.0811 431.671 19.0811C432.188 19.0811 432.677 19.0273 433.136 18.9199C433.595 18.8125 433.99 18.6514 434.322 18.4365C434.664 18.2119 434.933 17.9336 435.128 17.6016C435.323 17.2598 435.421 16.8545 435.421 16.3857ZM553.165 14.877C553.165 15.8242 552.96 16.6885 552.55 17.4697C552.14 18.251 551.573 18.9248 550.851 19.4912C550.138 20.0479 549.293 20.4824 548.316 20.7949C547.34 21.1074 546.285 21.2637 545.152 21.2637C544.869 21.2637 544.562 21.2539 544.229 21.2344C543.907 21.2246 543.585 21.2051 543.263 21.1758C542.94 21.1562 542.623 21.1318 542.311 21.1025C542.008 21.0732 541.734 21.0391 541.49 21V18.6855C542.018 18.8125 542.618 18.9053 543.292 18.9639C543.976 19.0225 544.664 19.0518 545.357 19.0518C546.139 19.0518 546.842 18.959 547.467 18.7734C548.092 18.5879 548.624 18.3242 549.063 17.9824C549.503 17.6309 549.84 17.2109 550.074 16.7227C550.309 16.2246 550.426 15.668 550.426 15.0527C550.426 13.8613 549.996 12.9971 549.137 12.46C548.287 11.9131 547.062 11.6396 545.46 11.6396H541.827V1.85449H552.14V4.08105H544.229V9.45703H545.899C546.817 9.45703 547.711 9.54004 548.58 9.70605C549.449 9.87207 550.221 10.165 550.895 10.585C551.578 10.9951 552.125 11.5518 552.535 12.2549C552.955 12.9482 553.165 13.8223 553.165 14.877ZM620.577 16.7666H617.311V21H614.703V16.7666H605.489V14.5254L613.648 1.85449H617.311V14.5254H620.577V16.7666ZM614.703 4.31543L608.038 14.5254H614.703V4.31543ZM685.235 15.1846C685.235 16.0244 685.064 16.8154 684.723 17.5576C684.381 18.29 683.868 18.9346 683.185 19.4912C682.501 20.0381 681.642 20.4727 680.606 20.7949C679.571 21.1074 678.365 21.2637 676.988 21.2637C676.227 21.2637 675.543 21.2393 674.938 21.1904C674.332 21.1416 673.766 21.0781 673.238 21V18.7148C673.844 18.8223 674.483 18.9053 675.157 18.9639C675.831 19.0225 676.52 19.0518 677.223 19.0518C678.18 19.0518 678.995 18.9688 679.669 18.8027C680.353 18.627 680.909 18.3779 681.339 18.0557C681.769 17.7334 682.081 17.3428 682.276 16.8838C682.472 16.4248 682.569 15.9072 682.569 15.3311C682.569 14.8037 682.452 14.3447 682.218 13.9541C681.983 13.5635 681.651 13.2363 681.222 12.9727C680.802 12.709 680.294 12.5137 679.698 12.3867C679.112 12.25 678.468 12.1816 677.765 12.1816H675.582V10.0869H677.794C678.37 10.0869 678.893 10.0137 679.361 9.86719C679.84 9.71094 680.245 9.49121 680.577 9.20801C680.919 8.9248 681.178 8.57812 681.354 8.16797C681.539 7.74805 681.632 7.27441 681.632 6.74707C681.632 5.72168 681.319 4.97461 680.694 4.50586C680.069 4.03711 679.151 3.80273 677.94 3.80273C677.296 3.80273 676.632 3.86621 675.948 3.99316C675.265 4.12012 674.532 4.31055 673.751 4.56445V2.33789C674.083 2.2207 674.435 2.11816 674.806 2.03027C675.187 1.93262 675.562 1.85449 675.934 1.7959C676.314 1.72754 676.69 1.67871 677.062 1.64941C677.433 1.61035 677.789 1.59082 678.131 1.59082C679.146 1.59082 680.04 1.70313 680.812 1.92773C681.583 2.14258 682.228 2.45508 682.745 2.86523C683.263 3.27539 683.653 3.77344 683.917 4.35938C684.181 4.94531 684.312 5.60449 684.312 6.33691C684.312 7.43066 684.029 8.34863 683.463 9.09082C682.906 9.83301 682.14 10.4238 681.163 10.8633C681.661 10.9414 682.149 11.0977 682.628 11.332C683.116 11.5664 683.551 11.8691 683.932 12.2402C684.322 12.6016 684.635 13.0312 684.869 13.5293C685.113 14.0273 685.235 14.5791 685.235 15.1846ZM751.578 21H738.966V18.7148L743.917 13.793C744.728 12.9922 745.387 12.2988 745.895 11.7129C746.402 11.127 746.798 10.5947 747.081 10.1162C747.364 9.62793 747.555 9.16895 747.652 8.73926C747.75 8.30957 747.799 7.8457 747.799 7.34766C747.799 6.87891 747.735 6.43457 747.608 6.01465C747.481 5.58496 747.286 5.20898 747.022 4.88672C746.759 4.56445 746.417 4.31055 745.997 4.125C745.577 3.93945 745.074 3.84668 744.488 3.84668C743.678 3.84668 742.94 4.02734 742.276 4.38867C741.612 4.75 741.002 5.21875 740.445 5.79492L739.039 4.11035C739.762 3.34863 740.592 2.73828 741.529 2.2793C742.477 1.82031 743.575 1.59082 744.825 1.59082C745.675 1.59082 746.446 1.71777 747.14 1.97168C747.843 2.22559 748.448 2.5918 748.956 3.07031C749.464 3.54883 749.854 4.13477 750.128 4.82812C750.411 5.52148 750.553 6.30273 750.553 7.17188C750.553 7.9043 750.455 8.58301 750.26 9.20801C750.064 9.83301 749.767 10.458 749.366 11.083C748.976 11.6982 748.478 12.3379 747.872 13.002C747.276 13.666 746.568 14.3936 745.748 15.1846L742.276 18.5684H751.578V21ZM817.394 21H805.367V18.627H810.289V4.65234L805.704 7.14258L804.767 4.97461L810.86 1.7666H813.116V18.627H817.394V21ZM883.971 11.4346C883.971 12.8994 883.824 14.2373 883.531 15.4482C883.238 16.6494 882.794 17.6846 882.198 18.5537C881.603 19.4131 880.86 20.082 879.972 20.5605C879.093 21.0293 878.058 21.2637 876.866 21.2637C875.841 21.2637 874.908 21.0732 874.068 20.6924C873.229 20.3018 872.511 19.7061 871.915 18.9053C871.319 18.1045 870.86 17.084 870.538 15.8438C870.216 14.6035 870.055 13.1338 870.055 11.4346C870.055 9.96973 870.201 8.63184 870.494 7.4209C870.797 6.20996 871.241 5.1748 871.827 4.31543C872.423 3.44629 873.165 2.77734 874.054 2.30859C874.942 1.83008 875.978 1.59082 877.159 1.59082C878.185 1.59082 879.117 1.78613 879.957 2.17676C880.797 2.55762 881.515 3.15332 882.11 3.96387C882.706 4.76465 883.165 5.78516 883.487 7.02539C883.81 8.26562 883.971 9.73535 883.971 11.4346ZM881.393 11.5225C881.393 11.1904 881.378 10.8633 881.349 10.541C881.329 10.209 881.305 9.88672 881.275 9.57422L873.175 15.5947C873.321 16.1025 873.507 16.5713 873.731 17.001C873.956 17.4307 874.225 17.8018 874.537 18.1143C874.859 18.417 875.221 18.6562 875.621 18.832C876.031 18.998 876.495 19.0811 877.013 19.0811C877.677 19.0811 878.277 18.9199 878.814 18.5977C879.361 18.2754 879.825 17.7969 880.206 17.1621C880.587 16.5273 880.88 15.7412 881.085 14.8037C881.29 13.8564 881.393 12.7627 881.393 11.5225ZM872.633 11.3467C872.633 11.6494 872.633 11.9521 872.633 12.2549C872.643 12.5576 872.662 12.8506 872.691 13.1338L880.792 7.14258C880.646 6.64453 880.46 6.19043 880.235 5.78027C880.011 5.37012 879.742 5.01855 879.43 4.72559C879.117 4.42285 878.761 4.18848 878.36 4.02246C877.96 3.85645 877.511 3.77344 877.013 3.77344C876.349 3.77344 875.743 3.93457 875.196 4.25684C874.659 4.5791 874.2 5.0625 873.819 5.70703C873.438 6.3418 873.146 7.13281 872.94 8.08008C872.735 9.01758 872.633 10.1064 872.633 11.3467Z" fill="black"/>
<path d="M63.127 63.5254C63.127 64.5156 62.9873 65.4255 62.708 66.2549C62.4287 67.0758 62.0267 67.7826 61.502 68.375C60.9772 68.959 60.3382 69.416 59.585 69.7461C58.8317 70.0677 57.9769 70.2285 57.0205 70.2285C56.1064 70.2285 55.2855 70.0889 54.5576 69.8096C53.8382 69.5218 53.2246 69.1029 52.7168 68.5527C52.2174 68.0026 51.8324 67.3213 51.5615 66.5088C51.2992 65.6963 51.168 64.7611 51.168 63.7031C51.168 62.7129 51.3076 61.8115 51.5869 60.999C51.8662 60.1781 52.2682 59.4756 52.793 58.8916C53.3177 58.2992 53.9567 57.8421 54.71 57.5205C55.4632 57.1904 56.318 57.0254 57.2744 57.0254C58.1885 57.0254 59.0052 57.1693 59.7246 57.457C60.4525 57.7363 61.0661 58.151 61.5654 58.7012C62.0732 59.2428 62.4583 59.9199 62.7207 60.7324C62.9915 61.5449 63.127 62.4759 63.127 63.5254ZM60.8672 63.627C60.8672 62.8398 60.7783 62.1543 60.6006 61.5703C60.4313 60.9779 60.1859 60.487 59.8643 60.0977C59.5426 59.6999 59.1491 59.4036 58.6836 59.209C58.2266 59.0059 57.7145 58.9043 57.1475 58.9043C56.4873 58.9043 55.9202 59.0355 55.4463 59.2979C54.9808 59.5518 54.5957 59.8945 54.291 60.3262C53.9948 60.7578 53.7747 61.2614 53.6309 61.8369C53.4954 62.404 53.4277 63.0007 53.4277 63.627C53.4277 64.4141 53.5124 65.1038 53.6816 65.6963C53.8594 66.2887 54.109 66.7839 54.4307 67.1816C54.7523 67.571 55.1416 67.8672 55.5986 68.0703C56.0557 68.265 56.5719 68.3623 57.1475 68.3623C57.8076 68.3623 58.3704 68.2354 58.8359 67.9814C59.3099 67.7191 59.695 67.3721 59.9912 66.9404C60.2959 66.5088 60.516 66.0094 60.6514 65.4424C60.7952 64.8669 60.8672 64.2617 60.8672 63.627ZM65.6787 63.8936C65.6787 62.8102 65.8268 61.8496 66.123 61.0117C66.4193 60.1654 66.8382 59.4544 67.3799 58.8789C67.93 58.2949 68.5859 57.8548 69.3477 57.5586C70.1178 57.2539 70.9727 57.1016 71.9121 57.1016C72.3184 57.1016 72.7161 57.127 73.1055 57.1777C73.5033 57.2285 73.8926 57.3089 74.2734 57.4189V52.0615H76.4951V70H74.5146L74.4385 67.5879C73.8206 68.485 73.152 69.1494 72.4326 69.5811C71.7132 70.0127 70.9346 70.2285 70.0967 70.2285C69.3688 70.2285 68.7256 70.0762 68.167 69.7715C67.6169 69.4668 67.1556 69.0394 66.7832 68.4893C66.4193 67.9307 66.1442 67.262 65.958 66.4834C65.7718 65.7048 65.6787 64.8415 65.6787 63.8936ZM67.9385 63.7539C67.9385 65.2943 68.1628 66.4453 68.6113 67.207C69.0684 67.9603 69.7116 68.3369 70.541 68.3369C71.0996 68.3369 71.6878 68.0872 72.3057 67.5879C72.932 67.0885 73.5879 66.348 74.2734 65.3662V59.4502C73.9095 59.2809 73.5075 59.154 73.0674 59.0693C72.6273 58.9762 72.1914 58.9297 71.7598 58.9297C70.5579 58.9297 69.6185 59.319 68.9414 60.0977C68.2728 60.8763 67.9385 62.0951 67.9385 63.7539ZM79.9736 63.8936C79.9736 62.8102 80.1217 61.8496 80.418 61.0117C80.7142 60.1654 81.1331 59.4544 81.6748 58.8789C82.2249 58.2949 82.8809 57.8548 83.6426 57.5586C84.4128 57.2539 85.2676 57.1016 86.207 57.1016C86.6133 57.1016 87.0111 57.127 87.4004 57.1777C87.7982 57.2285 88.1875 57.3089 88.5684 57.4189V52.0615H90.79V70H88.8096L88.7334 67.5879C88.1156 68.485 87.4469 69.1494 86.7275 69.5811C86.0081 70.0127 85.2295 70.2285 84.3916 70.2285C83.6637 70.2285 83.0205 70.0762 82.4619 69.7715C81.9118 69.4668 81.4505 69.0394 81.0781 68.4893C80.7142 67.9307 80.4391 67.262 80.2529 66.4834C80.0667 65.7048 79.9736 64.8415 79.9736 63.8936ZM82.2334 63.7539C82.2334 65.2943 82.4577 66.4453 82.9062 67.207C83.3633 67.9603 84.0065 68.3369 84.8359 68.3369C85.3945 68.3369 85.9827 68.0872 86.6006 67.5879C87.2269 67.0885 87.8828 66.348 88.5684 65.3662V59.4502C88.2044 59.2809 87.8024 59.154 87.3623 59.0693C86.9222 58.9762 86.4863 58.9297 86.0547 58.9297C84.8529 58.9297 83.9134 59.319 83.2363 60.0977C82.5677 60.8763 82.2334 62.0951 82.2334 63.7539ZM107.18 75.2051H92.8848V73.377H107.18V75.2051ZM118.301 70V60.8467C118.301 60.4489 118.284 60.123 118.25 59.8691C118.225 59.6152 118.178 59.4163 118.11 59.2725C118.051 59.1201 117.971 59.0143 117.869 58.9551C117.776 58.8958 117.658 58.8662 117.514 58.8662C117.344 58.8662 117.188 58.917 117.044 59.0186C116.9 59.1201 116.743 59.2852 116.574 59.5137C116.413 59.7422 116.231 60.0469 116.028 60.4277C115.834 60.8001 115.601 61.2614 115.33 61.8115V70H113.312V61.0879C113.312 60.6224 113.295 60.2458 113.261 59.958C113.235 59.6702 113.189 59.446 113.121 59.2852C113.062 59.1243 112.981 59.0143 112.88 58.9551C112.778 58.8958 112.656 58.8662 112.512 58.8662C112.359 58.8662 112.215 58.9085 112.08 58.9932C111.945 59.0778 111.792 59.2301 111.623 59.4502C111.462 59.6702 111.28 59.9707 111.077 60.3516C110.874 60.7324 110.633 61.2191 110.354 61.8115V70H108.322V57.2539H110.011L110.112 59.6787C110.332 59.1963 110.544 58.7858 110.747 58.4473C110.959 58.1087 111.174 57.8379 111.395 57.6348C111.615 57.4232 111.847 57.2708 112.093 57.1777C112.347 57.0762 112.626 57.0254 112.931 57.0254C113.616 57.0254 114.137 57.2497 114.492 57.6982C114.848 58.1468 115.025 58.8408 115.025 59.7803C115.229 59.3402 115.427 58.9508 115.622 58.6123C115.817 58.2653 116.024 57.9775 116.244 57.749C116.473 57.512 116.722 57.3343 116.993 57.2158C117.264 57.0889 117.577 57.0254 117.933 57.0254C119.532 57.0254 120.332 58.2568 120.332 60.7197V70H118.301ZM131.694 70L131.644 68.2861C130.95 68.9717 130.243 69.4668 129.523 69.7715C128.812 70.0762 128.063 70.2285 127.276 70.2285C126.549 70.2285 125.926 70.1354 125.41 69.9492C124.894 69.763 124.466 69.5091 124.128 69.1875C123.798 68.8574 123.552 68.4723 123.392 68.0322C123.239 67.5921 123.163 67.1139 123.163 66.5977C123.163 65.3197 123.637 64.321 124.585 63.6016C125.541 62.8737 126.951 62.5098 128.812 62.5098H131.453V61.3926C131.453 60.6393 131.212 60.0384 130.729 59.5898C130.247 59.1328 129.511 58.9043 128.521 58.9043C127.801 58.9043 127.09 58.9847 126.388 59.1455C125.694 59.3063 124.974 59.5348 124.229 59.8311V57.8379C124.509 57.7363 124.818 57.639 125.156 57.5459C125.503 57.4443 125.867 57.3555 126.248 57.2793C126.629 57.2031 127.027 57.1439 127.441 57.1016C127.856 57.0508 128.275 57.0254 128.698 57.0254C129.468 57.0254 130.162 57.11 130.78 57.2793C131.398 57.4486 131.919 57.7067 132.342 58.0537C132.773 58.4007 133.104 58.8366 133.332 59.3613C133.561 59.8861 133.675 60.5039 133.675 61.2148V70H131.694ZM131.453 64.1982H128.647C128.097 64.1982 127.623 64.2533 127.226 64.3633C126.828 64.4733 126.502 64.6299 126.248 64.833C125.994 65.0361 125.804 65.2816 125.677 65.5693C125.558 65.8486 125.499 66.166 125.499 66.5215C125.499 66.7669 125.537 67.0039 125.613 67.2324C125.689 67.4525 125.812 67.6514 125.981 67.8291C126.151 67.9984 126.371 68.1338 126.642 68.2354C126.912 68.3369 127.243 68.3877 127.632 68.3877C128.14 68.3877 128.719 68.2354 129.371 67.9307C130.031 67.6175 130.725 67.1266 131.453 66.458V64.1982ZM147.894 66.5215C147.894 66.9701 147.817 67.3721 147.665 67.7275C147.513 68.083 147.305 68.4004 147.043 68.6797C146.781 68.9505 146.476 69.1833 146.129 69.3779C145.782 69.5726 145.41 69.7334 145.012 69.8604C144.622 69.9873 144.22 70.0804 143.806 70.1396C143.391 70.1989 142.985 70.2285 142.587 70.2285C141.724 70.2285 140.928 70.1904 140.2 70.1143C139.481 70.0381 138.774 69.9154 138.08 69.7461V67.7148C138.825 67.9264 139.565 68.0872 140.302 68.1973C141.038 68.3073 141.77 68.3623 142.498 68.3623C143.556 68.3623 144.339 68.2184 144.847 67.9307C145.354 67.6429 145.608 67.2324 145.608 66.6992C145.608 66.4707 145.566 66.2676 145.481 66.0898C145.405 65.9036 145.261 65.7301 145.05 65.5693C144.838 65.4001 144.508 65.2266 144.06 65.0488C143.619 64.8711 143.014 64.668 142.244 64.4395C141.669 64.2702 141.135 64.0798 140.645 63.8682C140.162 63.6481 139.743 63.39 139.388 63.0938C139.032 62.7975 138.753 62.4505 138.55 62.0527C138.347 61.6549 138.245 61.1852 138.245 60.6436C138.245 60.2881 138.326 59.8988 138.486 59.4756C138.656 59.0524 138.939 58.6589 139.337 58.2949C139.735 57.931 140.272 57.6305 140.949 57.3936C141.626 57.1481 142.473 57.0254 143.488 57.0254C143.988 57.0254 144.542 57.055 145.151 57.1143C145.761 57.165 146.396 57.2581 147.056 57.3936V59.3613C146.362 59.1921 145.701 59.0693 145.075 58.9932C144.457 58.9085 143.92 58.8662 143.463 58.8662C142.913 58.8662 142.447 58.9085 142.066 58.9932C141.694 59.0778 141.389 59.1963 141.152 59.3486C140.924 59.4925 140.759 59.666 140.657 59.8691C140.556 60.0638 140.505 60.2754 140.505 60.5039C140.505 60.7324 140.547 60.9398 140.632 61.126C140.725 61.3122 140.89 61.4941 141.127 61.6719C141.372 61.8411 141.711 62.0146 142.143 62.1924C142.574 62.3617 143.137 62.5479 143.831 62.751C144.584 62.971 145.219 63.2038 145.735 63.4492C146.252 63.6862 146.671 63.9528 146.992 64.249C147.314 64.5452 147.542 64.8796 147.678 65.252C147.822 65.6243 147.894 66.0475 147.894 66.5215ZM163.56 70H160.525L154.584 63.1699V70H152.375V52.0615H154.584V63.0811L160.31 57.2539H163.229L157.25 63.1318L163.56 70ZM191.261 61.7988H180.343V59.9326H191.261V61.7988ZM191.261 66.2168H180.343V64.3506H191.261V66.2168Z" fill="black"/>
<path opacity="0.5" d="M212 32H886" stroke="black" stroke-width="2"/>
<path d="M474.426 58.9238C474.647 58.9238 474.855 58.9661 475.051 59.0508C475.253 59.1354 475.425 59.2526 475.568 59.4023C475.718 59.5521 475.835 59.7279 475.92 59.9297C476.005 60.125 476.047 60.3366 476.047 60.5645C476.047 60.7858 476.005 60.9941 475.92 61.1895C475.835 61.3848 475.718 61.5573 475.568 61.707C475.425 61.8503 475.253 61.9642 475.051 62.0488C474.855 62.1335 474.647 62.1758 474.426 62.1758C474.198 62.1758 473.986 62.1335 473.791 62.0488C473.596 61.9642 473.423 61.8503 473.273 61.707C473.13 61.5573 473.016 61.3848 472.932 61.1895C472.847 60.9941 472.805 60.7858 472.805 60.5645C472.805 60.3366 472.847 60.125 472.932 59.9297C473.016 59.7279 473.13 59.5521 473.273 59.4023C473.423 59.2526 473.596 59.1354 473.791 59.0508C473.986 58.9661 474.198 58.9238 474.426 58.9238ZM485.422 58.9238C485.643 58.9238 485.852 58.9661 486.047 59.0508C486.249 59.1354 486.421 59.2526 486.564 59.4023C486.714 59.5521 486.831 59.7279 486.916 59.9297C487.001 60.125 487.043 60.3366 487.043 60.5645C487.043 60.7858 487.001 60.9941 486.916 61.1895C486.831 61.3848 486.714 61.5573 486.564 61.707C486.421 61.8503 486.249 61.9642 486.047 62.0488C485.852 62.1335 485.643 62.1758 485.422 62.1758C485.194 62.1758 484.982 62.1335 484.787 62.0488C484.592 61.9642 484.419 61.8503 484.27 61.707C484.126 61.5573 484.012 61.3848 483.928 61.1895C483.843 60.9941 483.801 60.7858 483.801 60.5645C483.801 60.3366 483.843 60.125 483.928 59.9297C484.012 59.7279 484.126 59.5521 484.27 59.4023C484.419 59.2526 484.592 59.1354 484.787 59.0508C484.982 58.9661 485.194 58.9238 485.422 58.9238ZM496.418 58.9238C496.639 58.9238 496.848 58.9661 497.043 59.0508C497.245 59.1354 497.417 59.2526 497.561 59.4023C497.71 59.5521 497.827 59.7279 497.912 59.9297C497.997 60.125 498.039 60.3366 498.039 60.5645C498.039 60.7858 497.997 60.9941 497.912 61.1895C497.827 61.3848 497.71 61.5573 497.561 61.707C497.417 61.8503 497.245 61.9642 497.043 62.0488C496.848 62.1335 496.639 62.1758 496.418 62.1758C496.19 62.1758 495.979 62.1335 495.783 62.0488C495.588 61.9642 495.415 61.8503 495.266 61.707C495.122 61.5573 495.008 61.3848 494.924 61.1895C494.839 60.9941 494.797 60.7858 494.797 60.5645C494.797 60.3366 494.839 60.125 494.924 59.9297C495.008 59.7279 495.122 59.5521 495.266 59.4023C495.415 59.2526 495.588 59.1354 495.783 59.0508C495.979 58.9661 496.19 58.9238 496.418 58.9238Z" fill="black"/>
<path d="M553.604 71H541.578V68.627H546.5V54.6523L541.915 57.1426L540.978 54.9746L547.071 51.7666H549.327V68.627H553.604V71ZM620.199 61.4346C620.199 62.8994 620.053 64.2373 619.76 65.4482C619.467 66.6494 619.022 67.6846 618.427 68.5537C617.831 69.4131 617.089 70.082 616.2 70.5605C615.321 71.0293 614.286 71.2637 613.095 71.2637C612.069 71.2637 611.137 71.0732 610.297 70.6924C609.457 70.3018 608.739 69.7061 608.144 68.9053C607.548 68.1045 607.089 67.084 606.767 65.8438C606.444 64.6035 606.283 63.1338 606.283 61.4346C606.283 59.9697 606.43 58.6318 606.723 57.4209C607.025 56.21 607.47 55.1748 608.056 54.3154C608.651 53.4463 609.394 52.7773 610.282 52.3086C611.171 51.8301 612.206 51.5908 613.388 51.5908C614.413 51.5908 615.346 51.7861 616.186 52.1768C617.025 52.5576 617.743 53.1533 618.339 53.9639C618.935 54.7646 619.394 55.7852 619.716 57.0254C620.038 58.2656 620.199 59.7354 620.199 61.4346ZM617.621 61.5225C617.621 61.1904 617.606 60.8633 617.577 60.541C617.558 60.209 617.533 59.8867 617.504 59.5742L609.403 65.5947C609.55 66.1025 609.735 66.5713 609.96 67.001C610.185 67.4307 610.453 67.8018 610.766 68.1143C611.088 68.417 611.449 68.6562 611.85 68.832C612.26 68.998 612.724 69.0811 613.241 69.0811C613.905 69.0811 614.506 68.9199 615.043 68.5977C615.59 68.2754 616.054 67.7969 616.435 67.1621C616.815 66.5273 617.108 65.7412 617.313 64.8037C617.519 63.8564 617.621 62.7627 617.621 61.5225ZM608.861 61.3467C608.861 61.6494 608.861 61.9521 608.861 62.2549C608.871 62.5576 608.891 62.8506 608.92 63.1338L617.021 57.1426C616.874 56.6445 616.688 56.1904 616.464 55.7803C616.239 55.3701 615.971 55.0186 615.658 54.7256C615.346 54.4229 614.989 54.1885 614.589 54.0225C614.188 53.8564 613.739 53.7734 613.241 53.7734C612.577 53.7734 611.972 53.9346 611.425 54.2568C610.888 54.5791 610.429 55.0625 610.048 55.707C609.667 56.3418 609.374 57.1328 609.169 58.0801C608.964 59.0176 608.861 60.1064 608.861 61.3467ZM685.593 71H673.566V68.627H678.488V54.6523L673.903 57.1426L672.966 54.9746L679.06 51.7666H681.315V68.627H685.593V71ZM752.188 61.4346C752.188 62.8994 752.041 64.2373 751.748 65.4482C751.455 66.6494 751.011 67.6846 750.415 68.5537C749.819 69.4131 749.077 70.082 748.188 70.5605C747.31 71.0293 746.274 71.2637 745.083 71.2637C744.058 71.2637 743.125 71.0732 742.285 70.6924C741.445 70.3018 740.728 69.7061 740.132 68.9053C739.536 68.1045 739.077 67.084 738.755 65.8438C738.433 64.6035 738.271 63.1338 738.271 61.4346C738.271 59.9697 738.418 58.6318 738.711 57.4209C739.014 56.21 739.458 55.1748 740.044 54.3154C740.64 53.4463 741.382 52.7773 742.271 52.3086C743.159 51.8301 744.194 51.5908 745.376 51.5908C746.401 51.5908 747.334 51.7861 748.174 52.1768C749.014 52.5576 749.731 53.1533 750.327 53.9639C750.923 54.7646 751.382 55.7852 751.704 57.0254C752.026 58.2656 752.188 59.7354 752.188 61.4346ZM749.609 61.5225C749.609 61.1904 749.595 60.8633 749.565 60.541C749.546 60.209 749.521 59.8867 749.492 59.5742L741.392 65.5947C741.538 66.1025 741.724 66.5713 741.948 67.001C742.173 67.4307 742.441 67.8018 742.754 68.1143C743.076 68.417 743.438 68.6562 743.838 68.832C744.248 68.998 744.712 69.0811 745.229 69.0811C745.894 69.0811 746.494 68.9199 747.031 68.5977C747.578 68.2754 748.042 67.7969 748.423 67.1621C748.804 66.5273 749.097 65.7412 749.302 64.8037C749.507 63.8564 749.609 62.7627 749.609 61.5225ZM740.85 61.3467C740.85 61.6494 740.85 61.9521 740.85 62.2549C740.859 62.5576 740.879 62.8506 740.908 63.1338L749.009 57.1426C748.862 56.6445 748.677 56.1904 748.452 55.7803C748.228 55.3701 747.959 55.0186 747.646 54.7256C747.334 54.4229 746.978 54.1885 746.577 54.0225C746.177 53.8564 745.728 53.7734 745.229 53.7734C744.565 53.7734 743.96 53.9346 743.413 54.2568C742.876 54.5791 742.417 55.0625 742.036 55.707C741.655 56.3418 741.362 57.1328 741.157 58.0801C740.952 59.0176 740.85 60.1064 740.85 61.3467ZM817.581 71H805.555V68.627H810.477V54.6523L805.892 57.1426L804.954 54.9746L811.048 51.7666H813.304V68.627H817.581V71ZM884.176 61.4346C884.176 62.8994 884.029 64.2373 883.736 65.4482C883.443 66.6494 882.999 67.6846 882.403 68.5537C881.808 69.4131 881.065 70.082 880.177 70.5605C879.298 71.0293 878.263 71.2637 877.071 71.2637C876.046 71.2637 875.113 71.0732 874.273 70.6924C873.434 70.3018 872.716 69.7061 872.12 68.9053C871.524 68.1045 871.065 67.084 870.743 65.8438C870.421 64.6035 870.26 63.1338 870.26 61.4346C870.26 59.9697 870.406 58.6318 870.699 57.4209C871.002 56.21 871.446 55.1748 872.032 54.3154C872.628 53.4463 873.37 52.7773 874.259 52.3086C875.147 51.8301 876.183 51.5908 877.364 51.5908C878.39 51.5908 879.322 51.7861 880.162 52.1768C881.002 52.5576 881.72 53.1533 882.315 53.9639C882.911 54.7646 883.37 55.7852 883.692 57.0254C884.015 58.2656 884.176 59.7354 884.176 61.4346ZM881.598 61.5225C881.598 61.1904 881.583 60.8633 881.554 60.541C881.534 60.209 881.51 59.8867 881.48 59.5742L873.38 65.5947C873.526 66.1025 873.712 66.5713 873.937 67.001C874.161 67.4307 874.43 67.8018 874.742 68.1143C875.064 68.417 875.426 68.6562 875.826 68.832C876.236 68.998 876.7 69.0811 877.218 69.0811C877.882 69.0811 878.482 68.9199 879.02 68.5977C879.566 68.2754 880.03 67.7969 880.411 67.1621C880.792 66.5273 881.085 65.7412 881.29 64.8037C881.495 63.8564 881.598 62.7627 881.598 61.5225ZM872.838 61.3467C872.838 61.6494 872.838 61.9521 872.838 62.2549C872.848 62.5576 872.867 62.8506 872.896 63.1338L880.997 57.1426C880.851 56.6445 880.665 56.1904 880.44 55.7803C880.216 55.3701 879.947 55.0186 879.635 54.7256C879.322 54.4229 878.966 54.1885 878.565 54.0225C878.165 53.8564 877.716 53.7734 877.218 53.7734C876.554 53.7734 875.948 53.9346 875.401 54.2568C874.864 54.5791 874.405 55.0625 874.024 55.707C873.644 56.3418 873.351 57.1328 873.146 58.0801C872.94 59.0176 872.838 60.1064 872.838 61.3467Z" fill="black"/>
<path d="M231.604 71H219.578V68.627H224.5V54.6523L219.915 57.1426L218.978 54.9746L225.071 51.7666H227.327V68.627H231.604V71ZM298.199 61.4346C298.199 62.8994 298.053 64.2373 297.76 65.4482C297.467 66.6494 297.022 67.6846 296.427 68.5537C295.831 69.4131 295.089 70.082 294.2 70.5605C293.321 71.0293 292.286 71.2637 291.095 71.2637C290.069 71.2637 289.137 71.0732 288.297 70.6924C287.457 70.3018 286.739 69.7061 286.144 68.9053C285.548 68.1045 285.089 67.084 284.767 65.8438C284.444 64.6035 284.283 63.1338 284.283 61.4346C284.283 59.9697 284.43 58.6318 284.723 57.4209C285.025 56.21 285.47 55.1748 286.056 54.3154C286.651 53.4463 287.394 52.7773 288.282 52.3086C289.171 51.8301 290.206 51.5908 291.388 51.5908C292.413 51.5908 293.346 51.7861 294.186 52.1768C295.025 52.5576 295.743 53.1533 296.339 53.9639C296.935 54.7646 297.394 55.7852 297.716 57.0254C298.038 58.2656 298.199 59.7354 298.199 61.4346ZM295.621 61.5225C295.621 61.1904 295.606 60.8633 295.577 60.541C295.558 60.209 295.533 59.8867 295.504 59.5742L287.403 65.5947C287.55 66.1025 287.735 66.5713 287.96 67.001C288.185 67.4307 288.453 67.8018 288.766 68.1143C289.088 68.417 289.449 68.6562 289.85 68.832C290.26 68.998 290.724 69.0811 291.241 69.0811C291.905 69.0811 292.506 68.9199 293.043 68.5977C293.59 68.2754 294.054 67.7969 294.435 67.1621C294.815 66.5273 295.108 65.7412 295.313 64.8037C295.519 63.8564 295.621 62.7627 295.621 61.5225ZM286.861 61.3467C286.861 61.6494 286.861 61.9521 286.861 62.2549C286.871 62.5576 286.891 62.8506 286.92 63.1338L295.021 57.1426C294.874 56.6445 294.688 56.1904 294.464 55.7803C294.239 55.3701 293.971 55.0186 293.658 54.7256C293.346 54.4229 292.989 54.1885 292.589 54.0225C292.188 53.8564 291.739 53.7734 291.241 53.7734C290.577 53.7734 289.972 53.9346 289.425 54.2568C288.888 54.5791 288.429 55.0625 288.048 55.707C287.667 56.3418 287.374 57.1328 287.169 58.0801C286.964 59.0176 286.861 60.1064 286.861 61.3467ZM363.593 71H351.566V68.627H356.488V54.6523L351.903 57.1426L350.966 54.9746L357.06 51.7666H359.315V68.627H363.593V71ZM430.188 61.4346C430.188 62.8994 430.041 64.2373 429.748 65.4482C429.455 66.6494 429.011 67.6846 428.415 68.5537C427.819 69.4131 427.077 70.082 426.188 70.5605C425.31 71.0293 424.274 71.2637 423.083 71.2637C422.058 71.2637 421.125 71.0732 420.285 70.6924C419.445 70.3018 418.728 69.7061 418.132 68.9053C417.536 68.1045 417.077 67.084 416.755 65.8438C416.433 64.6035 416.271 63.1338 416.271 61.4346C416.271 59.9697 416.418 58.6318 416.711 57.4209C417.014 56.21 417.458 55.1748 418.044 54.3154C418.64 53.4463 419.382 52.7773 420.271 52.3086C421.159 51.8301 422.194 51.5908 423.376 51.5908C424.401 51.5908 425.334 51.7861 426.174 52.1768C427.014 52.5576 427.731 53.1533 428.327 53.9639C428.923 54.7646 429.382 55.7852 429.704 57.0254C430.026 58.2656 430.188 59.7354 430.188 61.4346ZM427.609 61.5225C427.609 61.1904 427.595 60.8633 427.565 60.541C427.546 60.209 427.521 59.8867 427.492 59.5742L419.392 65.5947C419.538 66.1025 419.724 66.5713 419.948 67.001C420.173 67.4307 420.441 67.8018 420.754 68.1143C421.076 68.417 421.438 68.6562 421.838 68.832C422.248 68.998 422.712 69.0811 423.229 69.0811C423.894 69.0811 424.494 68.9199 425.031 68.5977C425.578 68.2754 426.042 67.7969 426.423 67.1621C426.804 66.5273 427.097 65.7412 427.302 64.8037C427.507 63.8564 427.609 62.7627 427.609 61.5225ZM418.85 61.3467C418.85 61.6494 418.85 61.9521 418.85 62.2549C418.859 62.5576 418.879 62.8506 418.908 63.1338L427.009 57.1426C426.862 56.6445 426.677 56.1904 426.452 55.7803C426.228 55.3701 425.959 55.0186 425.646 54.7256C425.334 54.4229 424.978 54.1885 424.577 54.0225C424.177 53.8564 423.728 53.7734 423.229 53.7734C422.565 53.7734 421.96 53.9346 421.413 54.2568C420.876 54.5791 420.417 55.0625 420.036 55.707C419.655 56.3418 419.362 57.1328 419.157 58.0801C418.952 59.0176 418.85 60.1064 418.85 61.3467Z" fill="black"/>
</g>
<defs>
<clipPath id="clip0_6296_4819">
<rect width="1093" height="76" fill="white"/>
</clipPath>
</defs>
</svg>
