<svg width="583" height="191" viewBox="0 0 583 191" fill="none" xmlns="http://www.w3.org/2000/svg">
<g clip-path="url(#clip0_6175_444)">
<rect width="583" height="191" fill="white"/>
<path d="M436.399 89.1846C436.399 90.0244 436.229 90.8154 435.887 91.5576C435.545 92.29 435.032 92.9346 434.349 93.4912C433.665 94.0381 432.806 94.4727 431.771 94.7949C430.735 95.1074 429.529 95.2637 428.152 95.2637C427.391 95.2637 426.707 95.2393 426.102 95.1904C425.496 95.1416 424.93 95.0781 424.402 95V92.7148C425.008 92.8223 425.647 92.9053 426.321 92.9639C426.995 93.0225 427.684 93.0518 428.387 93.0518C429.344 93.0518 430.159 92.9688 430.833 92.8027C431.517 92.627 432.073 92.3779 432.503 92.0557C432.933 91.7334 433.245 91.3428 433.44 90.8838C433.636 90.4248 433.733 89.9072 433.733 89.3311C433.733 88.8037 433.616 88.3447 433.382 87.9541C433.147 87.5635 432.815 87.2363 432.386 86.9727C431.966 86.709 431.458 86.5137 430.862 86.3867C430.276 86.25 429.632 86.1816 428.929 86.1816H426.746V84.0869H428.958C429.534 84.0869 430.057 84.0137 430.525 83.8672C431.004 83.7109 431.409 83.4912 431.741 83.208C432.083 82.9248 432.342 82.5781 432.518 82.168C432.703 81.748 432.796 81.2744 432.796 80.7471C432.796 79.7217 432.483 78.9746 431.858 78.5059C431.233 78.0371 430.315 77.8027 429.104 77.8027C428.46 77.8027 427.796 77.8662 427.112 77.9932C426.429 78.1201 425.696 78.3105 424.915 78.5645V76.3379C425.247 76.2207 425.599 76.1182 425.97 76.0303C426.351 75.9326 426.727 75.8545 427.098 75.7959C427.479 75.7275 427.854 75.6787 428.226 75.6494C428.597 75.6104 428.953 75.5908 429.295 75.5908C430.311 75.5908 431.204 75.7031 431.976 75.9277C432.747 76.1426 433.392 76.4551 433.909 76.8652C434.427 77.2754 434.817 77.7734 435.081 78.3594C435.345 78.9453 435.477 79.6045 435.477 80.3369C435.477 81.4307 435.193 82.3486 434.627 83.0908C434.07 83.833 433.304 84.4238 432.327 84.8633C432.825 84.9414 433.313 85.0977 433.792 85.332C434.28 85.5664 434.715 85.8691 435.096 86.2402C435.486 86.6016 435.799 87.0312 436.033 87.5293C436.277 88.0273 436.399 88.5791 436.399 89.1846Z" fill="black"/>
<path d="M426.627 56.2178H417.867V53.8154H426.627V56.2178ZM445.099 63H433.072V60.627H437.994V46.6523L433.409 49.1426L432.472 46.9746L438.565 43.7666H440.821V60.627H445.099V63Z" fill="black"/>
<path d="M437.718 123.767H434.451V128H431.844V123.767H422.63V121.525L430.789 108.854H434.451V121.525H437.718V123.767ZM431.844 111.315L425.179 121.525H431.844V111.315Z" fill="black"/>
<path d="M436.766 158H424.153V155.715L429.104 150.793C429.915 149.992 430.574 149.299 431.082 148.713C431.59 148.127 431.985 147.595 432.269 147.116C432.552 146.628 432.742 146.169 432.84 145.739C432.938 145.31 432.986 144.846 432.986 144.348C432.986 143.879 432.923 143.435 432.796 143.015C432.669 142.585 432.474 142.209 432.21 141.887C431.946 141.564 431.604 141.311 431.185 141.125C430.765 140.939 430.262 140.847 429.676 140.847C428.865 140.847 428.128 141.027 427.464 141.389C426.8 141.75 426.189 142.219 425.633 142.795L424.227 141.11C424.949 140.349 425.779 139.738 426.717 139.279C427.664 138.82 428.763 138.591 430.013 138.591C430.862 138.591 431.634 138.718 432.327 138.972C433.03 139.226 433.636 139.592 434.144 140.07C434.651 140.549 435.042 141.135 435.315 141.828C435.599 142.521 435.74 143.303 435.74 144.172C435.74 144.904 435.643 145.583 435.447 146.208C435.252 146.833 434.954 147.458 434.554 148.083C434.163 148.698 433.665 149.338 433.06 150.002C432.464 150.666 431.756 151.394 430.936 152.185L427.464 155.568H436.766V158Z" fill="black"/>
<path d="M536.604 95H524.578V92.627H529.5V78.6523L524.915 81.1426L523.978 78.9746L530.071 75.7666H532.327V92.627H536.604V95Z" fill="black"/>
<path d="M536.205 53.4346C536.205 54.8994 536.059 56.2373 535.766 57.4482C535.473 58.6494 535.028 59.6846 534.433 60.5537C533.837 61.4131 533.095 62.082 532.206 62.5605C531.327 63.0293 530.292 63.2637 529.101 63.2637C528.075 63.2637 527.143 63.0732 526.303 62.6924C525.463 62.3018 524.745 61.7061 524.149 60.9053C523.554 60.1045 523.095 59.084 522.772 57.8438C522.45 56.6035 522.289 55.1338 522.289 53.4346C522.289 51.9697 522.436 50.6318 522.729 49.4209C523.031 48.21 523.476 47.1748 524.062 46.3154C524.657 45.4463 525.399 44.7773 526.288 44.3086C527.177 43.8301 528.212 43.5908 529.394 43.5908C530.419 43.5908 531.352 43.7861 532.191 44.1768C533.031 44.5576 533.749 45.1533 534.345 45.9639C534.94 46.7646 535.399 47.7852 535.722 49.0254C536.044 50.2656 536.205 51.7354 536.205 53.4346ZM533.627 53.5225C533.627 53.1904 533.612 52.8633 533.583 52.541C533.563 52.209 533.539 51.8867 533.51 51.5742L525.409 57.5947C525.556 58.1025 525.741 58.5713 525.966 59.001C526.19 59.4307 526.459 59.8018 526.771 60.1143C527.094 60.417 527.455 60.6562 527.855 60.832C528.266 60.998 528.729 61.0811 529.247 61.0811C529.911 61.0811 530.512 60.9199 531.049 60.5977C531.596 60.2754 532.06 59.7969 532.44 59.1621C532.821 58.5273 533.114 57.7412 533.319 56.8037C533.524 55.8564 533.627 54.7627 533.627 53.5225ZM524.867 53.3467C524.867 53.6494 524.867 53.9521 524.867 54.2549C524.877 54.5576 524.896 54.8506 524.926 55.1338L533.026 49.1426C532.88 48.6445 532.694 48.1904 532.47 47.7803C532.245 47.3701 531.977 47.0186 531.664 46.7256C531.352 46.4229 530.995 46.1885 530.595 46.0225C530.194 45.8564 529.745 45.7734 529.247 45.7734C528.583 45.7734 527.978 45.9346 527.431 46.2568C526.894 46.5791 526.435 47.0625 526.054 47.707C525.673 48.3418 525.38 49.1328 525.175 50.0801C524.97 51.0176 524.867 52.1064 524.867 53.3467Z" fill="black"/>
<path d="M536.766 128H524.153V125.715L529.104 120.793C529.915 119.992 530.574 119.299 531.082 118.713C531.59 118.127 531.985 117.595 532.269 117.116C532.552 116.628 532.742 116.169 532.84 115.739C532.938 115.31 532.986 114.846 532.986 114.348C532.986 113.879 532.923 113.435 532.796 113.015C532.669 112.585 532.474 112.209 532.21 111.887C531.946 111.564 531.604 111.311 531.185 111.125C530.765 110.939 530.262 110.847 529.676 110.847C528.865 110.847 528.128 111.027 527.464 111.389C526.8 111.75 526.189 112.219 525.633 112.795L524.227 111.11C524.949 110.349 525.779 109.738 526.717 109.279C527.664 108.82 528.763 108.591 530.013 108.591C530.862 108.591 531.634 108.718 532.327 108.972C533.03 109.226 533.636 109.592 534.144 110.07C534.651 110.549 535.042 111.135 535.315 111.828C535.599 112.521 535.74 113.303 535.74 114.172C535.74 114.904 535.643 115.583 535.447 116.208C535.252 116.833 534.954 117.458 534.554 118.083C534.163 118.698 533.665 119.338 533.06 120.002C532.464 120.666 531.756 121.394 530.936 122.185L527.464 125.568H536.766V128Z" fill="black"/>
<path d="M536.399 152.185C536.399 153.024 536.229 153.815 535.887 154.558C535.545 155.29 535.032 155.935 534.349 156.491C533.665 157.038 532.806 157.473 531.771 157.795C530.735 158.107 529.529 158.264 528.152 158.264C527.391 158.264 526.707 158.239 526.102 158.19C525.496 158.142 524.93 158.078 524.402 158V155.715C525.008 155.822 525.647 155.905 526.321 155.964C526.995 156.022 527.684 156.052 528.387 156.052C529.344 156.052 530.159 155.969 530.833 155.803C531.517 155.627 532.073 155.378 532.503 155.056C532.933 154.733 533.245 154.343 533.44 153.884C533.636 153.425 533.733 152.907 533.733 152.331C533.733 151.804 533.616 151.345 533.382 150.954C533.147 150.563 532.815 150.236 532.386 149.973C531.966 149.709 531.458 149.514 530.862 149.387C530.276 149.25 529.632 149.182 528.929 149.182H526.746V147.087H528.958C529.534 147.087 530.057 147.014 530.525 146.867C531.004 146.711 531.409 146.491 531.741 146.208C532.083 145.925 532.342 145.578 532.518 145.168C532.703 144.748 532.796 144.274 532.796 143.747C532.796 142.722 532.483 141.975 531.858 141.506C531.233 141.037 530.315 140.803 529.104 140.803C528.46 140.803 527.796 140.866 527.112 140.993C526.429 141.12 525.696 141.311 524.915 141.564V139.338C525.247 139.221 525.599 139.118 525.97 139.03C526.351 138.933 526.727 138.854 527.098 138.796C527.479 138.728 527.854 138.679 528.226 138.649C528.597 138.61 528.953 138.591 529.295 138.591C530.311 138.591 531.204 138.703 531.976 138.928C532.747 139.143 533.392 139.455 533.909 139.865C534.427 140.275 534.817 140.773 535.081 141.359C535.345 141.945 535.477 142.604 535.477 143.337C535.477 144.431 535.193 145.349 534.627 146.091C534.07 146.833 533.304 147.424 532.327 147.863C532.825 147.941 533.313 148.098 533.792 148.332C534.28 148.566 534.715 148.869 535.096 149.24C535.486 149.602 535.799 150.031 536.033 150.529C536.277 151.027 536.399 151.579 536.399 152.185Z" fill="black"/>
<path d="M442.276 19H440.067V10.8623C440.067 9.88053 439.881 9.14844 439.509 8.66602C439.145 8.17513 438.62 7.92969 437.935 7.92969C437.638 7.92969 437.359 7.97201 437.097 8.05664C436.843 8.13281 436.576 8.27246 436.297 8.47559C436.018 8.67025 435.713 8.93685 435.383 9.27539C435.053 9.61393 434.672 10.0371 434.24 10.5449V19H432.031V1.06152H434.24V6.25391L434.164 8.25977C434.511 7.84505 434.85 7.49805 435.18 7.21875C435.518 6.93099 435.853 6.69824 436.183 6.52051C436.521 6.34277 436.864 6.21582 437.211 6.13965C437.558 6.06348 437.918 6.02539 438.29 6.02539C439.56 6.02539 440.541 6.41471 441.235 7.19336C441.929 7.96354 442.276 9.12728 442.276 10.6846V19ZM454.515 19L454.464 17.2861C453.77 17.9717 453.063 18.4668 452.344 18.7715C451.633 19.0762 450.884 19.2285 450.097 19.2285C449.369 19.2285 448.747 19.1354 448.23 18.9492C447.714 18.763 447.287 18.5091 446.948 18.1875C446.618 17.8574 446.373 17.4723 446.212 17.0322C446.06 16.5921 445.983 16.1139 445.983 15.5977C445.983 14.3197 446.457 13.321 447.405 12.6016C448.362 11.8737 449.771 11.5098 451.633 11.5098H454.273V10.3926C454.273 9.63932 454.032 9.03841 453.55 8.58984C453.067 8.13281 452.331 7.9043 451.341 7.9043C450.621 7.9043 449.91 7.9847 449.208 8.14551C448.514 8.30632 447.795 8.53483 447.05 8.83105V6.83789C447.329 6.73633 447.638 6.639 447.977 6.5459C448.324 6.44434 448.688 6.35547 449.068 6.2793C449.449 6.20312 449.847 6.14388 450.262 6.10156C450.676 6.05078 451.095 6.02539 451.519 6.02539C452.289 6.02539 452.983 6.11003 453.601 6.2793C454.218 6.44857 454.739 6.70671 455.162 7.05371C455.594 7.40072 455.924 7.83659 456.152 8.36133C456.381 8.88607 456.495 9.50391 456.495 10.2148V19H454.515ZM454.273 13.1982H451.468C450.918 13.1982 450.444 13.2533 450.046 13.3633C449.648 13.4733 449.322 13.6299 449.068 13.833C448.814 14.0361 448.624 14.2816 448.497 14.5693C448.379 14.8486 448.319 15.166 448.319 15.5215C448.319 15.7669 448.357 16.0039 448.434 16.2324C448.51 16.4525 448.632 16.6514 448.802 16.8291C448.971 16.9984 449.191 17.1338 449.462 17.2354C449.733 17.3369 450.063 17.3877 450.452 17.3877C450.96 17.3877 451.54 17.2354 452.191 16.9307C452.852 16.6175 453.546 16.1266 454.273 15.458V13.1982ZM470.714 15.5215C470.714 15.9701 470.638 16.3721 470.485 16.7275C470.333 17.083 470.126 17.4004 469.863 17.6797C469.601 17.9505 469.296 18.1833 468.949 18.3779C468.602 18.5726 468.23 18.7334 467.832 18.8604C467.443 18.9873 467.041 19.0804 466.626 19.1396C466.211 19.1989 465.805 19.2285 465.407 19.2285C464.544 19.2285 463.748 19.1904 463.021 19.1143C462.301 19.0381 461.594 18.9154 460.9 18.7461V16.7148C461.645 16.9264 462.386 17.0872 463.122 17.1973C463.858 17.3073 464.59 17.3623 465.318 17.3623C466.376 17.3623 467.159 17.2184 467.667 16.9307C468.175 16.6429 468.429 16.2324 468.429 15.6992C468.429 15.4707 468.386 15.2676 468.302 15.0898C468.226 14.9036 468.082 14.7301 467.87 14.5693C467.659 14.4001 467.328 14.2266 466.88 14.0488C466.44 13.8711 465.835 13.668 465.064 13.4395C464.489 13.2702 463.956 13.0798 463.465 12.8682C462.982 12.6481 462.563 12.39 462.208 12.0938C461.853 11.7975 461.573 11.4505 461.37 11.0527C461.167 10.6549 461.065 10.1852 461.065 9.64355C461.065 9.28809 461.146 8.89876 461.307 8.47559C461.476 8.05241 461.759 7.65885 462.157 7.29492C462.555 6.93099 463.092 6.63053 463.77 6.39355C464.447 6.14811 465.293 6.02539 466.309 6.02539C466.808 6.02539 467.362 6.05501 467.972 6.11426C468.581 6.16504 469.216 6.25814 469.876 6.39355V8.36133C469.182 8.19206 468.522 8.06934 467.896 7.99316C467.278 7.90853 466.74 7.86621 466.283 7.86621C465.733 7.86621 465.268 7.90853 464.887 7.99316C464.514 8.0778 464.21 8.19629 463.973 8.34863C463.744 8.49251 463.579 8.66602 463.478 8.86914C463.376 9.0638 463.325 9.27539 463.325 9.50391C463.325 9.73242 463.368 9.93978 463.452 10.126C463.545 10.3122 463.71 10.4941 463.947 10.6719C464.193 10.8411 464.531 11.0146 464.963 11.1924C465.395 11.3617 465.957 11.5479 466.651 11.751C467.405 11.971 468.039 12.2038 468.556 12.4492C469.072 12.6862 469.491 12.9528 469.812 13.249C470.134 13.5452 470.363 13.8796 470.498 14.252C470.642 14.6243 470.714 15.0475 470.714 15.5215ZM485.161 19H482.952V10.8623C482.952 9.88053 482.766 9.14844 482.394 8.66602C482.03 8.17513 481.505 7.92969 480.819 7.92969C480.523 7.92969 480.244 7.97201 479.981 8.05664C479.728 8.13281 479.461 8.27246 479.182 8.47559C478.902 8.67025 478.598 8.93685 478.268 9.27539C477.938 9.61393 477.557 10.0371 477.125 10.5449V19H474.916V1.06152H477.125V6.25391L477.049 8.25977C477.396 7.84505 477.734 7.49805 478.064 7.21875C478.403 6.93099 478.737 6.69824 479.067 6.52051C479.406 6.34277 479.749 6.21582 480.096 6.13965C480.443 6.06348 480.802 6.02539 481.175 6.02539C482.444 6.02539 483.426 6.41471 484.12 7.19336C484.814 7.96354 485.161 9.12728 485.161 10.6846V19ZM498.301 19V9.84668C498.301 9.44889 498.284 9.12305 498.25 8.86914C498.225 8.61523 498.178 8.41634 498.11 8.27246C498.051 8.12012 497.971 8.01432 497.869 7.95508C497.776 7.89583 497.658 7.86621 497.514 7.86621C497.344 7.86621 497.188 7.91699 497.044 8.01855C496.9 8.12012 496.743 8.28516 496.574 8.51367C496.413 8.74219 496.231 9.04688 496.028 9.42773C495.834 9.80013 495.601 10.2614 495.33 10.8115V19H493.312V10.0879C493.312 9.6224 493.295 9.24577 493.261 8.95801C493.235 8.67025 493.189 8.44596 493.121 8.28516C493.062 8.12435 492.981 8.01432 492.88 7.95508C492.778 7.89583 492.656 7.86621 492.512 7.86621C492.359 7.86621 492.215 7.90853 492.08 7.99316C491.945 8.0778 491.792 8.23014 491.623 8.4502C491.462 8.67025 491.28 8.9707 491.077 9.35156C490.874 9.73242 490.633 10.2191 490.354 10.8115V19H488.322V6.25391H490.011L490.112 8.67871C490.332 8.19629 490.544 7.78581 490.747 7.44727C490.959 7.10872 491.174 6.83789 491.395 6.63477C491.615 6.42318 491.847 6.27083 492.093 6.17773C492.347 6.07617 492.626 6.02539 492.931 6.02539C493.616 6.02539 494.137 6.24967 494.492 6.69824C494.848 7.14681 495.025 7.84082 495.025 8.78027C495.229 8.34017 495.427 7.95085 495.622 7.6123C495.817 7.2653 496.024 6.97754 496.244 6.74902C496.473 6.51204 496.722 6.33431 496.993 6.21582C497.264 6.08887 497.577 6.02539 497.933 6.02539C499.532 6.02539 500.332 7.25684 500.332 9.71973V19H498.301ZM511.694 19L511.644 17.2861C510.95 17.9717 510.243 18.4668 509.523 18.7715C508.812 19.0762 508.063 19.2285 507.276 19.2285C506.549 19.2285 505.926 19.1354 505.41 18.9492C504.894 18.763 504.466 18.5091 504.128 18.1875C503.798 17.8574 503.552 17.4723 503.392 17.0322C503.239 16.5921 503.163 16.1139 503.163 15.5977C503.163 14.3197 503.637 13.321 504.585 12.6016C505.541 11.8737 506.951 11.5098 508.812 11.5098H511.453V10.3926C511.453 9.63932 511.212 9.03841 510.729 8.58984C510.247 8.13281 509.511 7.9043 508.521 7.9043C507.801 7.9043 507.09 7.9847 506.388 8.14551C505.694 8.30632 504.974 8.53483 504.229 8.83105V6.83789C504.509 6.73633 504.818 6.639 505.156 6.5459C505.503 6.44434 505.867 6.35547 506.248 6.2793C506.629 6.20312 507.027 6.14388 507.441 6.10156C507.856 6.05078 508.275 6.02539 508.698 6.02539C509.468 6.02539 510.162 6.11003 510.78 6.2793C511.398 6.44857 511.919 6.70671 512.342 7.05371C512.773 7.40072 513.104 7.83659 513.332 8.36133C513.561 8.88607 513.675 9.50391 513.675 10.2148V19H511.694ZM511.453 13.1982H508.647C508.097 13.1982 507.623 13.2533 507.226 13.3633C506.828 13.4733 506.502 13.6299 506.248 13.833C505.994 14.0361 505.804 14.2816 505.677 14.5693C505.558 14.8486 505.499 15.166 505.499 15.5215C505.499 15.7669 505.537 16.0039 505.613 16.2324C505.689 16.4525 505.812 16.6514 505.981 16.8291C506.151 16.9984 506.371 17.1338 506.642 17.2354C506.912 17.3369 507.243 17.3877 507.632 17.3877C508.14 17.3877 508.719 17.2354 509.371 16.9307C510.031 16.6175 510.725 16.1266 511.453 15.458V13.1982ZM528.693 12.3984C528.693 13.5326 528.533 14.5228 528.211 15.3691C527.898 16.2155 527.462 16.918 526.903 17.4766C526.345 18.0352 525.685 18.4541 524.923 18.7334C524.161 19.0127 523.336 19.1523 522.447 19.1523C522.041 19.1523 521.635 19.1312 521.229 19.0889C520.831 19.0465 520.424 18.9746 520.01 18.873V24.2051H517.801V6.25391H519.769L519.908 8.38672C520.543 7.51497 521.22 6.9056 521.939 6.55859C522.659 6.20312 523.438 6.02539 524.275 6.02539C525.003 6.02539 525.642 6.17773 526.192 6.48242C526.743 6.78711 527.204 7.21875 527.576 7.77734C527.949 8.32747 528.228 8.99609 528.414 9.7832C528.6 10.5618 528.693 11.4336 528.693 12.3984ZM526.434 12.5C526.434 11.8314 526.383 11.2178 526.281 10.6592C526.188 10.1006 526.036 9.6224 525.824 9.22461C525.613 8.82682 525.342 8.5179 525.012 8.29785C524.682 8.06934 524.288 7.95508 523.831 7.95508C523.552 7.95508 523.268 8.00163 522.98 8.09473C522.693 8.17936 522.392 8.32747 522.079 8.53906C521.774 8.74219 521.449 9.01725 521.102 9.36426C520.763 9.7028 520.399 10.126 520.01 10.6338V16.8164C520.416 16.9857 520.843 17.1211 521.292 17.2227C521.741 17.3158 522.181 17.3623 522.612 17.3623C523.806 17.3623 524.741 16.9603 525.418 16.1562C526.095 15.3438 526.434 14.125 526.434 12.5Z" fill="black"/>
<rect x="380" y="27" width="202" height="145" rx="9" stroke="black" stroke-width="2"/>
<path d="M481 37L481 163" stroke="#DEDEDE" stroke-linecap="round"/>
<path d="M414.562 180.195H416.076L416.145 181.777C416.431 181.439 416.708 181.159 416.975 180.938C417.242 180.71 417.502 180.527 417.756 180.391C418.016 180.254 418.28 180.16 418.547 180.107C418.814 180.049 419.09 180.02 419.377 180.02C420.386 180.02 421.148 180.319 421.662 180.918C422.183 181.51 422.443 182.406 422.443 183.604V190H420.744V183.74C420.744 182.972 420.601 182.406 420.314 182.041C420.028 181.67 419.602 181.484 419.035 181.484C418.827 181.484 418.622 181.517 418.42 181.582C418.225 181.641 418.02 181.748 417.805 181.904C417.59 182.054 417.355 182.259 417.102 182.52C416.854 182.78 416.574 183.105 416.262 183.496V190H414.562V180.195ZM433.439 190H431.916L431.857 188.418C431.564 188.757 431.285 189.04 431.018 189.268C430.757 189.489 430.497 189.668 430.236 189.805C429.976 189.941 429.712 190.036 429.445 190.088C429.185 190.146 428.908 190.176 428.615 190.176C427.606 190.176 426.844 189.88 426.33 189.287C425.816 188.695 425.559 187.799 425.559 186.602V180.195H427.258V186.465C427.258 187.969 427.824 188.721 428.957 188.721C429.165 188.721 429.367 188.691 429.562 188.633C429.764 188.568 429.973 188.46 430.188 188.311C430.409 188.154 430.643 187.946 430.891 187.686C431.145 187.425 431.428 187.096 431.74 186.699V180.195H433.439V190ZM443.547 190V182.959C443.547 182.653 443.534 182.402 443.508 182.207C443.488 182.012 443.452 181.859 443.4 181.748C443.355 181.631 443.293 181.549 443.215 181.504C443.143 181.458 443.052 181.436 442.941 181.436C442.811 181.436 442.691 181.475 442.58 181.553C442.469 181.631 442.349 181.758 442.219 181.934C442.095 182.109 441.955 182.344 441.799 182.637C441.649 182.923 441.47 183.278 441.262 183.701V190H439.709V183.145C439.709 182.786 439.696 182.497 439.67 182.275C439.65 182.054 439.615 181.882 439.562 181.758C439.517 181.634 439.455 181.549 439.377 181.504C439.299 181.458 439.204 181.436 439.094 181.436C438.977 181.436 438.866 181.468 438.762 181.533C438.658 181.598 438.54 181.715 438.41 181.885C438.286 182.054 438.146 182.285 437.99 182.578C437.834 182.871 437.648 183.245 437.434 183.701V190H435.871V180.195H437.17L437.248 182.061C437.417 181.689 437.58 181.374 437.736 181.113C437.899 180.853 438.065 180.645 438.234 180.488C438.404 180.326 438.583 180.208 438.771 180.137C438.967 180.059 439.182 180.02 439.416 180.02C439.943 180.02 440.344 180.192 440.617 180.537C440.891 180.882 441.027 181.416 441.027 182.139C441.184 181.8 441.337 181.501 441.486 181.24C441.636 180.973 441.796 180.752 441.965 180.576C442.141 180.394 442.333 180.257 442.541 180.166C442.749 180.068 442.99 180.02 443.264 180.02C444.494 180.02 445.109 180.967 445.109 182.861V190H443.547Z" fill="#999999"/>
<path d="M505.902 181.602H503.002V180.195H507.621V188.584H510.541V190H502.68V188.584H505.902V181.602ZM506.498 176.084C506.687 176.084 506.863 176.12 507.025 176.191C507.188 176.257 507.328 176.351 507.445 176.475C507.569 176.598 507.663 176.742 507.729 176.904C507.8 177.061 507.836 177.233 507.836 177.422C507.836 177.604 507.8 177.777 507.729 177.939C507.663 178.102 507.569 178.245 507.445 178.369C507.328 178.493 507.188 178.59 507.025 178.662C506.863 178.727 506.687 178.76 506.498 178.76C506.309 178.76 506.133 178.727 505.971 178.662C505.808 178.59 505.665 178.493 505.541 178.369C505.424 178.245 505.329 178.102 505.258 177.939C505.193 177.777 505.16 177.604 505.16 177.422C505.16 177.233 505.193 177.061 505.258 176.904C505.329 176.742 505.424 176.598 505.541 176.475C505.665 176.351 505.808 176.257 505.971 176.191C506.133 176.12 506.309 176.084 506.498 176.084ZM513.559 180.195H515.072L515.141 181.777C515.427 181.439 515.704 181.159 515.971 180.938C516.238 180.71 516.498 180.527 516.752 180.391C517.012 180.254 517.276 180.16 517.543 180.107C517.81 180.049 518.087 180.02 518.373 180.02C519.382 180.02 520.144 180.319 520.658 180.918C521.179 181.51 521.439 182.406 521.439 183.604V190H519.74V183.74C519.74 182.972 519.597 182.406 519.311 182.041C519.024 181.67 518.598 181.484 518.031 181.484C517.823 181.484 517.618 181.517 517.416 181.582C517.221 181.641 517.016 181.748 516.801 181.904C516.586 182.054 516.352 182.259 516.098 182.52C515.85 182.78 515.57 183.105 515.258 183.496V190H513.559V180.195ZM524.057 185.303C524.057 184.469 524.171 183.73 524.398 183.086C524.626 182.435 524.949 181.888 525.365 181.445C525.788 180.996 526.293 180.658 526.879 180.43C527.471 180.195 528.129 180.078 528.852 180.078C529.164 180.078 529.47 180.098 529.77 180.137C530.076 180.176 530.375 180.238 530.668 180.322V176.201H532.377V190H530.854L530.795 188.145C530.32 188.835 529.805 189.346 529.252 189.678C528.699 190.01 528.1 190.176 527.455 190.176C526.895 190.176 526.4 190.059 525.971 189.824C525.548 189.59 525.193 189.261 524.906 188.838C524.626 188.408 524.415 187.894 524.271 187.295C524.128 186.696 524.057 186.032 524.057 185.303ZM525.795 185.195C525.795 186.38 525.967 187.266 526.312 187.852C526.664 188.431 527.159 188.721 527.797 188.721C528.227 188.721 528.679 188.529 529.154 188.145C529.636 187.76 530.141 187.191 530.668 186.436V181.885C530.388 181.755 530.079 181.657 529.74 181.592C529.402 181.52 529.066 181.484 528.734 181.484C527.81 181.484 527.087 181.784 526.566 182.383C526.052 182.982 525.795 183.919 525.795 185.195ZM543.832 184.58C543.832 184.821 543.829 185.023 543.822 185.186C543.816 185.348 543.806 185.501 543.793 185.645H536.908C536.908 186.647 537.188 187.419 537.748 187.959C538.308 188.493 539.115 188.76 540.17 188.76C540.456 188.76 540.743 188.75 541.029 188.73C541.316 188.704 541.592 188.672 541.859 188.633C542.126 188.594 542.38 188.551 542.621 188.506C542.868 188.454 543.096 188.398 543.305 188.34V189.736C542.842 189.867 542.318 189.971 541.732 190.049C541.153 190.133 540.551 190.176 539.926 190.176C539.086 190.176 538.363 190.062 537.758 189.834C537.152 189.606 536.654 189.277 536.264 188.848C535.88 188.411 535.593 187.881 535.404 187.256C535.222 186.624 535.131 185.911 535.131 185.117C535.131 184.427 535.229 183.776 535.424 183.164C535.626 182.546 535.915 182.005 536.293 181.543C536.677 181.074 537.146 180.703 537.699 180.43C538.253 180.156 538.881 180.02 539.584 180.02C540.268 180.02 540.873 180.127 541.4 180.342C541.928 180.557 542.37 180.863 542.729 181.26C543.093 181.65 543.367 182.129 543.549 182.695C543.738 183.255 543.832 183.883 543.832 184.58ZM542.064 184.336C542.084 183.9 542.042 183.503 541.938 183.145C541.833 182.78 541.671 182.467 541.449 182.207C541.234 181.947 540.964 181.745 540.639 181.602C540.313 181.452 539.936 181.377 539.506 181.377C539.135 181.377 538.796 181.449 538.49 181.592C538.184 181.735 537.921 181.937 537.699 182.197C537.478 182.458 537.299 182.77 537.162 183.135C537.025 183.499 536.941 183.9 536.908 184.336H542.064ZM555.385 190H553.129L550.482 186.26L547.865 190H545.668L549.467 185.078L545.844 180.195H548.021L550.6 183.965L553.129 180.195H555.229L551.547 185.117L555.385 190Z" fill="#999999"/>
<path d="M24.6328 106.218H15.873V103.815H24.6328V106.218ZM43.1045 113H31.0781V110.627H36V96.6523L31.415 99.1426L30.4775 96.9746L36.5713 93.7666H38.8271V110.627H43.1045V113Z" fill="black"/>
<path d="M106.652 107.185C106.652 108.024 106.481 108.815 106.14 109.558C105.798 110.29 105.285 110.935 104.602 111.491C103.918 112.038 103.059 112.473 102.023 112.795C100.988 113.107 99.7822 113.264 98.4053 113.264C97.6436 113.264 96.96 113.239 96.3545 113.19C95.749 113.142 95.1826 113.078 94.6553 113V110.715C95.2607 110.822 95.9004 110.905 96.5742 110.964C97.248 111.022 97.9365 111.052 98.6396 111.052C99.5967 111.052 100.412 110.969 101.086 110.803C101.77 110.627 102.326 110.378 102.756 110.056C103.186 109.733 103.498 109.343 103.693 108.884C103.889 108.425 103.986 107.907 103.986 107.331C103.986 106.804 103.869 106.345 103.635 105.954C103.4 105.563 103.068 105.236 102.639 104.973C102.219 104.709 101.711 104.514 101.115 104.387C100.529 104.25 99.8848 104.182 99.1816 104.182H96.999V102.087H99.2109C99.7871 102.087 100.31 102.014 100.778 101.867C101.257 101.711 101.662 101.491 101.994 101.208C102.336 100.925 102.595 100.578 102.771 100.168C102.956 99.748 103.049 99.2744 103.049 98.7471C103.049 97.7217 102.736 96.9746 102.111 96.5059C101.486 96.0371 100.568 95.8027 99.3574 95.8027C98.7129 95.8027 98.0488 95.8662 97.3652 95.9932C96.6816 96.1201 95.9492 96.3105 95.168 96.5645V94.3379C95.5 94.2207 95.8516 94.1182 96.2227 94.0303C96.6035 93.9326 96.9795 93.8545 97.3506 93.7959C97.7314 93.7275 98.1074 93.6787 98.4785 93.6494C98.8496 93.6104 99.2061 93.5908 99.5479 93.5908C100.563 93.5908 101.457 93.7031 102.229 93.9277C103 94.1426 103.645 94.4551 104.162 94.8652C104.68 95.2754 105.07 95.7734 105.334 96.3594C105.598 96.9453 105.729 97.6045 105.729 98.3369C105.729 99.4307 105.446 100.349 104.88 101.091C104.323 101.833 103.557 102.424 102.58 102.863C103.078 102.941 103.566 103.098 104.045 103.332C104.533 103.566 104.968 103.869 105.349 104.24C105.739 104.602 106.052 105.031 106.286 105.529C106.53 106.027 106.652 106.579 106.652 107.185Z" fill="black"/>
<path d="M171.971 108.767H168.704V113H166.097V108.767H156.883V106.525L165.042 93.8545H168.704V106.525H171.971V108.767ZM166.097 96.3154L159.432 106.525H166.097V96.3154Z" fill="black"/>
<path d="M235.019 113H222.406V110.715L227.357 105.793C228.168 104.992 228.827 104.299 229.335 103.713C229.843 103.127 230.238 102.595 230.521 102.116C230.805 101.628 230.995 101.169 231.093 100.739C231.19 100.31 231.239 99.8457 231.239 99.3477C231.239 98.8789 231.176 98.4346 231.049 98.0146C230.922 97.585 230.727 97.209 230.463 96.8867C230.199 96.5645 229.857 96.3105 229.438 96.125C229.018 95.9395 228.515 95.8467 227.929 95.8467C227.118 95.8467 226.381 96.0273 225.717 96.3887C225.053 96.75 224.442 97.2188 223.886 97.7949L222.479 96.1104C223.202 95.3486 224.032 94.7383 224.97 94.2793C225.917 93.8203 227.016 93.5908 228.266 93.5908C229.115 93.5908 229.887 93.7178 230.58 93.9717C231.283 94.2256 231.889 94.5918 232.396 95.0703C232.904 95.5488 233.295 96.1348 233.568 96.8281C233.852 97.5215 233.993 98.3027 233.993 99.1719C233.993 99.9043 233.896 100.583 233.7 101.208C233.505 101.833 233.207 102.458 232.807 103.083C232.416 103.698 231.918 104.338 231.312 105.002C230.717 105.666 230.009 106.394 229.188 107.185L225.717 110.568H235.019V113Z" fill="black"/>
<path d="M8.27539 116.006H1.05371V88.7891H8.27539V90.8398H3.48535V113.955H8.27539V116.006Z" fill="black"/>
<path d="M263.44 116.006H256.219V113.955H260.979V90.8398H256.219V88.7891H263.44V116.006Z" fill="black"/>
<path opacity="0.5" d="M41.6025 131.985C41.6025 133.06 41.4951 134.041 41.2803 134.929C41.0654 135.81 40.7396 136.569 40.3027 137.206C39.8659 137.836 39.3216 138.327 38.6699 138.678C38.0254 139.021 37.2663 139.193 36.3926 139.193C35.6406 139.193 34.9567 139.054 34.3408 138.774C33.7249 138.488 33.1986 138.051 32.7617 137.464C32.3249 136.877 31.9883 136.128 31.752 135.219C31.5156 134.309 31.3975 133.231 31.3975 131.985C31.3975 130.911 31.5049 129.93 31.7197 129.042C31.9417 128.154 32.2676 127.395 32.6973 126.765C33.1341 126.127 33.6784 125.637 34.3301 125.293C34.9818 124.942 35.7409 124.767 36.6074 124.767C37.3594 124.767 38.0433 124.91 38.6592 125.196C39.2751 125.476 39.8014 125.912 40.2383 126.507C40.6751 127.094 41.0117 127.842 41.248 128.752C41.4844 129.661 41.6025 130.739 41.6025 131.985ZM39.7119 132.05C39.7119 131.806 39.7012 131.566 39.6797 131.33C39.6654 131.087 39.6475 130.85 39.626 130.621L33.6855 135.036C33.793 135.409 33.929 135.752 34.0938 136.067C34.2585 136.382 34.4554 136.655 34.6846 136.884C34.9209 137.106 35.1859 137.281 35.4795 137.41C35.7803 137.532 36.1204 137.593 36.5 137.593C36.987 137.593 37.4274 137.475 37.8213 137.238C38.2223 137.002 38.5625 136.651 38.8418 136.186C39.1211 135.72 39.3359 135.144 39.4863 134.456C39.6367 133.761 39.7119 132.959 39.7119 132.05ZM33.2881 131.921C33.2881 132.143 33.2881 132.365 33.2881 132.587C33.2952 132.809 33.3096 133.024 33.3311 133.231L39.2715 128.838C39.1641 128.473 39.028 128.14 38.8633 127.839C38.6986 127.538 38.5016 127.28 38.2725 127.065C38.0433 126.843 37.7819 126.672 37.4883 126.55C37.1947 126.428 36.8652 126.367 36.5 126.367C36.013 126.367 35.569 126.485 35.168 126.722C34.7741 126.958 34.4375 127.312 34.1582 127.785C33.8789 128.251 33.6641 128.831 33.5137 129.525C33.3633 130.213 33.2881 131.011 33.2881 131.921Z" fill="black"/>
<path opacity="0.5" d="M105.162 139H96.3428V137.26H99.9521V127.012L96.5898 128.838L95.9023 127.248L100.371 124.896H102.025V137.26H105.162V139Z" fill="black"/>
<path opacity="0.5" d="M169.28 139H160.031V137.324L163.662 133.715C164.257 133.128 164.74 132.619 165.112 132.189C165.485 131.76 165.775 131.369 165.982 131.019C166.19 130.66 166.33 130.324 166.401 130.009C166.473 129.694 166.509 129.354 166.509 128.988C166.509 128.645 166.462 128.319 166.369 128.011C166.276 127.696 166.133 127.42 165.939 127.184C165.746 126.947 165.495 126.761 165.188 126.625C164.88 126.489 164.511 126.421 164.081 126.421C163.487 126.421 162.946 126.553 162.459 126.818C161.972 127.083 161.524 127.427 161.116 127.85L160.085 126.614C160.615 126.056 161.224 125.608 161.911 125.271C162.606 124.935 163.411 124.767 164.328 124.767C164.951 124.767 165.517 124.86 166.025 125.046C166.541 125.232 166.985 125.501 167.357 125.852C167.73 126.202 168.016 126.632 168.217 127.141C168.424 127.649 168.528 128.222 168.528 128.859C168.528 129.396 168.457 129.894 168.313 130.353C168.17 130.811 167.952 131.269 167.658 131.728C167.372 132.179 167.007 132.648 166.562 133.135C166.126 133.622 165.606 134.155 165.005 134.735L162.459 137.217H169.28V139Z" fill="black"/>
<path opacity="0.5" d="M233.012 134.735C233.012 135.351 232.886 135.931 232.636 136.476C232.385 137.013 232.009 137.485 231.508 137.894C231.007 138.295 230.376 138.613 229.617 138.85C228.858 139.079 227.974 139.193 226.964 139.193C226.405 139.193 225.904 139.175 225.46 139.14C225.016 139.104 224.601 139.057 224.214 139V137.324C224.658 137.403 225.127 137.464 225.621 137.507C226.115 137.55 226.62 137.571 227.136 137.571C227.838 137.571 228.436 137.51 228.93 137.389C229.431 137.26 229.839 137.077 230.154 136.841C230.469 136.604 230.699 136.318 230.842 135.981C230.985 135.645 231.057 135.265 231.057 134.843C231.057 134.456 230.971 134.119 230.799 133.833C230.627 133.547 230.383 133.307 230.068 133.113C229.76 132.92 229.388 132.777 228.951 132.684C228.521 132.583 228.049 132.533 227.533 132.533H225.933V130.997H227.555C227.977 130.997 228.36 130.943 228.704 130.836C229.055 130.721 229.352 130.56 229.596 130.353C229.846 130.145 230.036 129.891 230.165 129.59C230.301 129.282 230.369 128.935 230.369 128.548C230.369 127.796 230.14 127.248 229.682 126.904C229.223 126.561 228.55 126.389 227.662 126.389C227.189 126.389 226.702 126.435 226.201 126.528C225.7 126.621 225.163 126.761 224.59 126.947V125.314C224.833 125.229 225.091 125.153 225.363 125.089C225.643 125.017 225.918 124.96 226.19 124.917C226.47 124.867 226.745 124.831 227.018 124.81C227.29 124.781 227.551 124.767 227.802 124.767C228.547 124.767 229.202 124.849 229.768 125.014C230.333 125.171 230.806 125.4 231.186 125.701C231.565 126.002 231.852 126.367 232.045 126.797C232.238 127.227 232.335 127.71 232.335 128.247C232.335 129.049 232.127 129.722 231.712 130.267C231.304 130.811 230.742 131.244 230.025 131.566C230.391 131.624 230.749 131.738 231.1 131.91C231.458 132.082 231.776 132.304 232.056 132.576C232.342 132.841 232.571 133.156 232.743 133.521C232.922 133.887 233.012 134.291 233.012 134.735Z" fill="black"/>
<path d="M294 102C293.448 102 293 102.448 293 103C293 103.552 293.448 104 294 104V102ZM348.707 103.707C349.098 103.317 349.098 102.683 348.707 102.293L342.343 95.9289C341.953 95.5384 341.319 95.5384 340.929 95.9289C340.538 96.3195 340.538 96.9526 340.929 97.3431L346.586 103L340.929 108.657C340.538 109.047 340.538 109.681 340.929 110.071C341.319 110.462 341.953 110.462 342.343 110.071L348.707 103.707ZM294 104H348V102H294V104Z" fill="black"/>
</g>
<defs>
<clipPath id="clip0_6175_444">
<rect width="583" height="191" fill="white"/>
</clipPath>
</defs>
</svg>
