<svg width="417" height="50" viewBox="0 0 417 50" fill="none" xmlns="http://www.w3.org/2000/svg">
<circle cx="25" cy="25" r="23.75" stroke="black" stroke-width="2.5"/>
<path d="M31.8574 35H19.8311V32.627H24.7529V18.6523L20.168 21.1426L19.2305 18.9746L25.3242 15.7666H27.5801V32.627H31.8574V35Z" fill="black"/>
<path d="M119.884 25.8839C120.372 25.3957 120.372 24.6043 119.884 24.1161L111.929 16.1612C111.441 15.673 110.649 15.673 110.161 16.1612C109.673 16.6493 109.673 17.4408 110.161 17.9289L117.232 25L110.161 32.0711C109.673 32.5592 109.673 33.3507 110.161 33.8388C110.649 34.327 111.441 34.327 111.929 33.8388L119.884 25.8839ZM49 26.25H119V23.75H49V26.25Z" fill="black"/>
<circle cx="146" cy="25" r="23.75" stroke="black" stroke-width="2.5"/>
<path d="M153.019 35H140.406V32.7148L145.357 27.793C146.168 26.9922 146.827 26.2988 147.335 25.7129C147.843 25.127 148.238 24.5947 148.521 24.1162C148.805 23.6279 148.995 23.1689 149.093 22.7393C149.19 22.3096 149.239 21.8457 149.239 21.3477C149.239 20.8789 149.176 20.4346 149.049 20.0146C148.922 19.585 148.727 19.209 148.463 18.8867C148.199 18.5645 147.857 18.3105 147.438 18.125C147.018 17.9395 146.515 17.8467 145.929 17.8467C145.118 17.8467 144.381 18.0273 143.717 18.3887C143.053 18.75 142.442 19.2188 141.886 19.7949L140.479 18.1104C141.202 17.3486 142.032 16.7383 142.97 16.2793C143.917 15.8203 145.016 15.5908 146.266 15.5908C147.115 15.5908 147.887 15.7178 148.58 15.9717C149.283 16.2256 149.889 16.5918 150.396 17.0703C150.904 17.5488 151.295 18.1348 151.568 18.8281C151.852 19.5215 151.993 20.3027 151.993 21.1719C151.993 21.9043 151.896 22.583 151.7 23.208C151.505 23.833 151.207 24.458 150.807 25.083C150.416 25.6982 149.918 26.3379 149.312 27.002C148.717 27.666 148.009 28.3936 147.188 29.1846L143.717 32.5684H153.019V35Z" fill="black"/>
<path d="M241.884 25.8839C242.372 25.3957 242.372 24.6043 241.884 24.1161L233.929 16.1612C233.441 15.673 232.649 15.673 232.161 16.1612C231.673 16.6493 231.673 17.4408 232.161 17.9289L239.232 25L232.161 32.0711C231.673 32.5592 231.673 33.3507 232.161 33.8388C232.649 34.327 233.441 34.327 233.929 33.8388L241.884 25.8839ZM171 26.25H241V23.75H171V26.25Z" fill="black"/>
<circle cx="269" cy="25" r="23.75" stroke="black" stroke-width="2.5"/>
<path d="M275.857 35H263.831V32.627H268.753V18.6523L264.168 21.1426L263.23 18.9746L269.324 15.7666H271.58V32.627H275.857V35Z" fill="black"/>
<path d="M364.884 25.8839C365.372 25.3957 365.372 24.6043 364.884 24.1161L356.929 16.1612C356.441 15.673 355.649 15.673 355.161 16.1612C354.673 16.6493 354.673 17.4408 355.161 17.9289L362.232 25L355.161 32.0711C354.673 32.5592 354.673 33.3507 355.161 33.8388C355.649 34.327 356.441 34.327 356.929 33.8388L364.884 25.8839ZM294 26.25H364V23.75H294V26.25Z" fill="black"/>
<circle cx="391" cy="25" r="23.75" stroke="black" stroke-width="2.5"/>
<path d="M398.019 35H385.406V32.7148L390.357 27.793C391.168 26.9922 391.827 26.2988 392.335 25.7129C392.843 25.127 393.238 24.5947 393.521 24.1162C393.805 23.6279 393.995 23.1689 394.093 22.7393C394.19 22.3096 394.239 21.8457 394.239 21.3477C394.239 20.8789 394.176 20.4346 394.049 20.0146C393.922 19.585 393.727 19.209 393.463 18.8867C393.199 18.5645 392.857 18.3105 392.438 18.125C392.018 17.9395 391.515 17.8467 390.929 17.8467C390.118 17.8467 389.381 18.0273 388.717 18.3887C388.053 18.75 387.442 19.2188 386.886 19.7949L385.479 18.1104C386.202 17.3486 387.032 16.7383 387.97 16.2793C388.917 15.8203 390.016 15.5908 391.266 15.5908C392.115 15.5908 392.887 15.7178 393.58 15.9717C394.283 16.2256 394.889 16.5918 395.396 17.0703C395.904 17.5488 396.295 18.1348 396.568 18.8281C396.852 19.5215 396.993 20.3027 396.993 21.1719C396.993 21.9043 396.896 22.583 396.7 23.208C396.505 23.833 396.207 24.458 395.807 25.083C395.416 25.6982 394.918 26.3379 394.312 27.002C393.717 27.666 393.009 28.3936 392.188 29.1846L388.717 32.5684H398.019V35Z" fill="black"/>
</svg>
