<svg width="574" height="197" viewBox="0 0 574 197" fill="none" xmlns="http://www.w3.org/2000/svg">
<g clip-path="url(#clip0_6295_3840)">
<rect width="574" height="197" fill="white"/>
<path d="M7.27539 114.006H0.0537109V86.7891H7.27539V88.8398H2.48535V111.955H7.27539V114.006ZM42.6514 97.3506C42.6514 99.2158 42.4268 100.822 41.9775 102.17C41.5283 103.508 40.8643 104.611 39.9854 105.48C39.1064 106.34 38.0176 106.975 36.7188 107.385C35.4199 107.795 33.9209 108 32.2217 108H30.625V105.773H32.3975C33.6572 105.773 34.7461 105.646 35.6641 105.393C36.582 105.139 37.3438 104.768 37.9492 104.279C38.5645 103.781 39.0332 103.181 39.3555 102.478C39.6777 101.765 39.8779 100.954 39.9561 100.046L40.0146 99.4453C39.3994 99.8066 38.6914 100.1 37.8906 100.324C37.0898 100.539 36.2207 100.646 35.2832 100.646C34.3164 100.646 33.4668 100.505 32.7344 100.222C32.002 99.9385 31.3916 99.543 30.9033 99.0352C30.4248 98.5273 30.0635 97.9268 29.8193 97.2334C29.5752 96.5303 29.4531 95.7686 29.4531 94.9482C29.4531 94.0596 29.6143 93.2295 29.9365 92.458C30.2588 91.6865 30.708 91.0176 31.2842 90.4512C31.8701 89.875 32.5684 89.4209 33.3789 89.0889C34.1895 88.7568 35.083 88.5908 36.0596 88.5908C37.0068 88.5908 37.8809 88.7471 38.6816 89.0596C39.4922 89.3721 40.1904 89.8799 40.7764 90.583C41.3623 91.2764 41.8213 92.1797 42.1533 93.293C42.4854 94.4062 42.6514 95.7588 42.6514 97.3506ZM35.9424 90.6855C35.3955 90.6855 34.8877 90.7783 34.4189 90.9639C33.96 91.1396 33.5596 91.4033 33.2178 91.7549C32.8857 92.0967 32.6221 92.5215 32.4268 93.0293C32.2314 93.5371 32.1338 94.1182 32.1338 94.7725C32.1338 95.3682 32.2021 95.9004 32.3389 96.3691C32.4854 96.8379 32.7051 97.2383 32.998 97.5703C33.3008 97.8926 33.6865 98.1416 34.1553 98.3174C34.624 98.4932 35.1807 98.5811 35.8252 98.5811C36.1865 98.5811 36.5576 98.5469 36.9385 98.4785C37.3291 98.4102 37.7051 98.3174 38.0664 98.2002C38.4375 98.083 38.7891 97.9463 39.1211 97.79C39.4531 97.6338 39.751 97.4678 40.0146 97.292C40.0146 96.0322 39.9219 94.9824 39.7363 94.1426C39.5508 93.293 39.2822 92.6143 38.9307 92.1064C38.5791 91.5889 38.1494 91.2227 37.6416 91.0078C37.1436 90.793 36.5771 90.6855 35.9424 90.6855ZM108.965 101.936C108.965 102.814 108.804 103.64 108.481 104.411C108.169 105.183 107.72 105.856 107.134 106.433C106.548 106.999 105.84 107.448 105.01 107.78C104.189 108.103 103.276 108.264 102.271 108.264C101.216 108.264 100.283 108.098 99.4727 107.766C98.6621 107.424 97.9834 106.906 97.4365 106.213C96.8896 105.51 96.4746 104.626 96.1914 103.562C95.9082 102.497 95.7666 101.237 95.7666 99.7822C95.7666 98.8057 95.8301 97.8584 95.957 96.9404C96.084 96.0225 96.2939 95.1582 96.5869 94.3477C96.8799 93.5371 97.2705 92.7949 97.7588 92.1211C98.2471 91.4473 98.8525 90.8711 99.5752 90.3926C100.308 89.9043 101.167 89.5283 102.153 89.2646C103.14 88.9912 104.282 88.8545 105.581 88.8545H107.471V91.0811H105.42C104.277 91.0811 103.286 91.2178 102.446 91.4912C101.606 91.7646 100.903 92.1504 100.337 92.6484C99.7705 93.1465 99.3359 93.7471 99.0332 94.4502C98.7305 95.1533 98.54 95.9395 98.4619 96.8086L98.4033 97.4092C99.0186 97.0479 99.7266 96.7598 100.527 96.5449C101.338 96.3203 102.212 96.208 103.149 96.208C104.116 96.208 104.961 96.3496 105.684 96.6328C106.416 96.916 107.021 97.3115 107.5 97.8193C107.988 98.3174 108.354 98.918 108.599 99.6211C108.843 100.324 108.965 101.096 108.965 101.936ZM106.299 102.097C106.299 101.511 106.226 100.983 106.079 100.515C105.942 100.036 105.723 99.6357 105.42 99.3135C105.117 98.9814 104.731 98.7275 104.263 98.5518C103.804 98.3662 103.252 98.2734 102.607 98.2734C102.236 98.2734 101.86 98.3076 101.479 98.376C101.099 98.4443 100.723 98.542 100.352 98.6689C99.9902 98.7861 99.6436 98.9229 99.3115 99.0791C98.9795 99.2354 98.6768 99.4014 98.4033 99.5771C98.4033 100.837 98.4912 101.892 98.667 102.741C98.8428 103.581 99.1016 104.255 99.4434 104.763C99.7949 105.271 100.225 105.632 100.732 105.847C101.24 106.062 101.826 106.169 102.49 106.169C103.047 106.169 103.555 106.081 104.014 105.905C104.482 105.72 104.883 105.451 105.215 105.1C105.557 104.748 105.82 104.323 106.006 103.825C106.201 103.317 106.299 102.741 106.299 102.097ZM174.604 91.2275L166.577 108H163.662L171.997 91.2275H161.655V88.8545H174.604V91.2275ZM241.123 98.4346C241.123 99.8994 240.977 101.237 240.684 102.448C240.391 103.649 239.946 104.685 239.351 105.554C238.755 106.413 238.013 107.082 237.124 107.561C236.245 108.029 235.21 108.264 234.019 108.264C232.993 108.264 232.061 108.073 231.221 107.692C230.381 107.302 229.663 106.706 229.067 105.905C228.472 105.104 228.013 104.084 227.69 102.844C227.368 101.604 227.207 100.134 227.207 98.4346C227.207 96.9697 227.354 95.6318 227.646 94.4209C227.949 93.21 228.394 92.1748 228.979 91.3154C229.575 90.4463 230.317 89.7773 231.206 89.3086C232.095 88.8301 233.13 88.5908 234.312 88.5908C235.337 88.5908 236.27 88.7861 237.109 89.1768C237.949 89.5576 238.667 90.1533 239.263 90.9639C239.858 91.7646 240.317 92.7852 240.64 94.0254C240.962 95.2656 241.123 96.7354 241.123 98.4346ZM238.545 98.5225C238.545 98.1904 238.53 97.8633 238.501 97.541C238.481 97.209 238.457 96.8867 238.428 96.5742L230.327 102.595C230.474 103.103 230.659 103.571 230.884 104.001C231.108 104.431 231.377 104.802 231.689 105.114C232.012 105.417 232.373 105.656 232.773 105.832C233.184 105.998 233.647 106.081 234.165 106.081C234.829 106.081 235.43 105.92 235.967 105.598C236.514 105.275 236.978 104.797 237.358 104.162C237.739 103.527 238.032 102.741 238.237 101.804C238.442 100.856 238.545 99.7627 238.545 98.5225ZM229.785 98.3467C229.785 98.6494 229.785 98.9521 229.785 99.2549C229.795 99.5576 229.814 99.8506 229.844 100.134L237.944 94.1426C237.798 93.6445 237.612 93.1904 237.388 92.7803C237.163 92.3701 236.895 92.0186 236.582 91.7256C236.27 91.4229 235.913 91.1885 235.513 91.0225C235.112 90.8564 234.663 90.7734 234.165 90.7734C233.501 90.7734 232.896 90.9346 232.349 91.2568C231.812 91.5791 231.353 92.0625 230.972 92.707C230.591 93.3418 230.298 94.1328 230.093 95.0801C229.888 96.0176 229.785 97.1064 229.785 98.3467ZM307.612 103.767H304.346V108H301.738V103.767H292.524V101.525L300.684 88.8545H304.346V101.525H307.612V103.767ZM301.738 91.3154L295.073 101.525H301.738V91.3154ZM372.637 108H360.024V105.715L364.976 100.793C365.786 99.9922 366.445 99.2988 366.953 98.7129C367.461 98.127 367.856 97.5947 368.14 97.1162C368.423 96.6279 368.613 96.1689 368.711 95.7393C368.809 95.3096 368.857 94.8457 368.857 94.3477C368.857 93.8789 368.794 93.4346 368.667 93.0146C368.54 92.585 368.345 92.209 368.081 91.8867C367.817 91.5645 367.476 91.3105 367.056 91.125C366.636 90.9395 366.133 90.8467 365.547 90.8467C364.736 90.8467 363.999 91.0273 363.335 91.3887C362.671 91.75 362.061 92.2188 361.504 92.7949L360.098 91.1104C360.82 90.3486 361.65 89.7383 362.588 89.2793C363.535 88.8203 364.634 88.5908 365.884 88.5908C366.733 88.5908 367.505 88.7178 368.198 88.9717C368.901 89.2256 369.507 89.5918 370.015 90.0703C370.522 90.5488 370.913 91.1348 371.187 91.8281C371.47 92.5215 371.611 93.3027 371.611 94.1719C371.611 94.9043 371.514 95.583 371.318 96.208C371.123 96.833 370.825 97.458 370.425 98.083C370.034 98.6982 369.536 99.3379 368.931 100.002C368.335 100.666 367.627 101.394 366.807 102.185L363.335 105.568H372.637V108ZM439.053 98.4346C439.053 99.8994 438.906 101.237 438.613 102.448C438.32 103.649 437.876 104.685 437.28 105.554C436.685 106.413 435.942 107.082 435.054 107.561C434.175 108.029 433.14 108.264 431.948 108.264C430.923 108.264 429.99 108.073 429.15 107.692C428.311 107.302 427.593 106.706 426.997 105.905C426.401 105.104 425.942 104.084 425.62 102.844C425.298 101.604 425.137 100.134 425.137 98.4346C425.137 96.9697 425.283 95.6318 425.576 94.4209C425.879 93.21 426.323 92.1748 426.909 91.3154C427.505 90.4463 428.247 89.7773 429.136 89.3086C430.024 88.8301 431.06 88.5908 432.241 88.5908C433.267 88.5908 434.199 88.7861 435.039 89.1768C435.879 89.5576 436.597 90.1533 437.192 90.9639C437.788 91.7646 438.247 92.7852 438.569 94.0254C438.892 95.2656 439.053 96.7354 439.053 98.4346ZM436.475 98.5225C436.475 98.1904 436.46 97.8633 436.431 97.541C436.411 97.209 436.387 96.8867 436.357 96.5742L428.257 102.595C428.403 103.103 428.589 103.571 428.813 104.001C429.038 104.431 429.307 104.802 429.619 105.114C429.941 105.417 430.303 105.656 430.703 105.832C431.113 105.998 431.577 106.081 432.095 106.081C432.759 106.081 433.359 105.92 433.896 105.598C434.443 105.275 434.907 104.797 435.288 104.162C435.669 103.527 435.962 102.741 436.167 101.804C436.372 100.856 436.475 99.7627 436.475 98.5225ZM427.715 98.3467C427.715 98.6494 427.715 98.9521 427.715 99.2549C427.725 99.5576 427.744 99.8506 427.773 100.134L435.874 94.1426C435.728 93.6445 435.542 93.1904 435.317 92.7803C435.093 92.3701 434.824 92.0186 434.512 91.7256C434.199 91.4229 433.843 91.1885 433.442 91.0225C433.042 90.8564 432.593 90.7734 432.095 90.7734C431.431 90.7734 430.825 90.9346 430.278 91.2568C429.741 91.5791 429.282 92.0625 428.901 92.707C428.521 93.3418 428.228 94.1328 428.022 95.0801C427.817 96.0176 427.715 97.1064 427.715 98.3467ZM504.106 101.877C504.106 102.824 503.901 103.688 503.491 104.47C503.081 105.251 502.515 105.925 501.792 106.491C501.079 107.048 500.234 107.482 499.258 107.795C498.281 108.107 497.227 108.264 496.094 108.264C495.811 108.264 495.503 108.254 495.171 108.234C494.849 108.225 494.526 108.205 494.204 108.176C493.882 108.156 493.564 108.132 493.252 108.103C492.949 108.073 492.676 108.039 492.432 108V105.686C492.959 105.812 493.56 105.905 494.233 105.964C494.917 106.022 495.605 106.052 496.299 106.052C497.08 106.052 497.783 105.959 498.408 105.773C499.033 105.588 499.565 105.324 500.005 104.982C500.444 104.631 500.781 104.211 501.016 103.723C501.25 103.225 501.367 102.668 501.367 102.053C501.367 100.861 500.938 99.9971 500.078 99.46C499.229 98.9131 498.003 98.6396 496.401 98.6396H492.769V88.8545H503.081V91.0811H495.171V96.457H496.841C497.759 96.457 498.652 96.54 499.521 96.7061C500.391 96.8721 501.162 97.165 501.836 97.585C502.52 97.9951 503.066 98.5518 503.477 99.2549C503.896 99.9482 504.106 100.822 504.106 101.877ZM534.253 114.006H527.031V111.955H531.792V88.8398H527.031V86.7891H534.253V114.006Z" fill="black"/>
<path d="M371.481 77.1455C371.009 77.4323 370.859 78.0474 371.145 78.5194C371.432 78.9913 372.047 79.1414 372.519 78.8545L371.481 77.1455ZM497.226 78.9742C497.764 78.8496 498.099 78.3125 497.974 77.7744L495.944 69.0064C495.819 68.4684 495.282 68.1332 494.744 68.2578C494.206 68.3824 493.871 68.9195 493.995 69.4576L495.8 77.2514L488.006 79.0561C487.468 79.1807 487.133 79.7178 487.258 80.2559C487.382 80.7939 487.92 81.1291 488.458 81.0045L497.226 78.9742ZM372.519 78.8545C393.457 66.129 447.575 48.3395 496.471 78.8484L497.529 77.1516C447.737 46.0832 392.757 64.2138 371.481 77.1455L372.519 78.8545Z" fill="#00B2FF"/>
<path d="M300.462 77.1571C299.996 77.4543 299.86 78.0726 300.157 78.5381C300.454 79.0036 301.073 79.1401 301.538 78.8429L300.462 77.1571ZM497.204 78.979C497.744 78.8665 498.092 78.3369 497.979 77.7962L496.145 68.9851C496.032 68.4444 495.503 68.0973 494.962 68.2098C494.421 68.3224 494.074 68.8519 494.187 69.3926L495.817 77.2248L487.985 78.855C487.444 78.9676 487.097 79.4971 487.21 80.0378C487.322 80.5785 487.852 80.9256 488.393 80.8131L497.204 78.979ZM301.538 78.8429C334.462 57.8228 419.544 28.4294 496.452 78.8364L497.548 77.1636C419.714 26.1492 333.729 55.9183 300.462 77.1571L301.538 78.8429Z" fill="#00B2FF"/>
<path d="M168.503 77.1321C168.024 77.4064 167.858 78.0173 168.132 78.4967C168.406 78.976 169.017 79.1422 169.497 78.8679L168.503 77.1321ZM497.252 78.9679C497.786 78.829 498.107 78.283 497.968 77.7485L495.704 69.0378C495.565 68.5033 495.02 68.1825 494.485 68.3214C493.95 68.4603 493.63 69.0063 493.769 69.5408L495.781 77.2836L488.038 79.2957C487.503 79.4346 487.183 79.9805 487.321 80.515C487.46 81.0496 488.006 81.3703 488.541 81.2314L497.252 78.9679ZM169.497 78.8679C224.714 47.2692 367.445 3.04877 496.493 78.8622L497.507 77.1378C367.598 0.81913 224.054 45.3424 168.503 77.1321L169.497 78.8679Z" fill="#00B2FF"/>
<path d="M103.449 77.1652C102.988 77.4693 102.861 78.0896 103.165 78.5506C103.469 79.0116 104.09 79.1389 104.551 78.8348L103.449 77.1652ZM497.189 78.982C497.731 78.8776 498.086 78.3533 497.982 77.8109L496.28 68.9733C496.176 68.4309 495.652 68.0759 495.109 68.1804C494.567 68.2848 494.212 68.8091 494.316 69.3514L495.829 77.2071L487.973 78.7196C487.431 78.824 487.076 79.3483 487.18 79.8906C487.285 80.4329 487.809 80.7879 488.351 80.6835L497.189 78.982ZM104.551 78.8348C170.738 35.1801 341.776 -25.8951 496.439 78.828L497.561 77.172C341.95 -28.1921 169.981 33.2835 103.449 77.1652L104.551 78.8348Z" fill="#00B2FF"/>
<path d="M35.4068 77.1949C34.9622 77.5225 34.8673 78.1485 35.1949 78.5932C35.5225 79.0378 36.1485 79.1327 36.5932 78.8051L35.4068 77.1949ZM497.137 78.9905C497.684 78.9146 498.066 78.4096 497.991 77.8626L496.754 68.948C496.678 68.4009 496.173 68.019 495.626 68.0948C495.079 68.1707 494.697 68.6757 494.773 69.2228L495.872 77.1469L487.948 78.2461C487.401 78.322 487.019 78.827 487.095 79.374C487.171 79.921 487.676 80.303 488.223 80.2271L497.137 78.9905ZM36.5932 78.8051C114.262 21.5807 314.924 -58.4624 496.397 78.7976L497.603 77.2024C315.116 -60.8243 113.421 19.7165 35.4068 77.1949L36.5932 78.8051Z" fill="#00B2FF"/>
<rect x="486" y="131" width="23" height="23" rx="11.5" fill="#FFF4EF" stroke="#FF5500" stroke-width="2"/>
<path d="M420.384 190.694C420.384 189.61 420.532 188.65 420.828 187.812C421.124 186.965 421.543 186.254 422.085 185.679C422.635 185.095 423.291 184.655 424.053 184.359C424.823 184.054 425.678 183.902 426.617 183.902C427.023 183.902 427.421 183.927 427.811 183.978C428.208 184.029 428.598 184.109 428.979 184.219V178.862H431.2V196.8H429.22L429.144 194.388C428.526 195.285 427.857 195.949 427.138 196.381C426.418 196.813 425.64 197.029 424.802 197.029C424.074 197.029 423.431 196.876 422.872 196.572C422.322 196.267 421.861 195.839 421.488 195.289C421.124 194.731 420.849 194.062 420.663 193.283C420.477 192.505 420.384 191.642 420.384 190.694ZM422.644 190.554C422.644 192.094 422.868 193.245 423.316 194.007C423.773 194.76 424.417 195.137 425.246 195.137C425.805 195.137 426.393 194.887 427.011 194.388C427.637 193.889 428.293 193.148 428.979 192.166V186.25C428.615 186.081 428.213 185.954 427.772 185.869C427.332 185.776 426.896 185.73 426.465 185.73C425.263 185.73 424.324 186.119 423.646 186.898C422.978 187.676 422.644 188.895 422.644 190.554ZM446.092 189.754C446.092 190.067 446.088 190.33 446.079 190.541C446.071 190.753 446.058 190.952 446.041 191.138H437.091C437.091 192.441 437.455 193.444 438.183 194.147C438.91 194.841 439.96 195.188 441.331 195.188C441.703 195.188 442.076 195.175 442.448 195.15C442.821 195.116 443.18 195.073 443.527 195.023C443.874 194.972 444.204 194.917 444.518 194.858C444.839 194.79 445.135 194.718 445.406 194.642V196.457C444.805 196.627 444.124 196.762 443.362 196.864C442.609 196.974 441.826 197.029 441.014 197.029C439.922 197.029 438.982 196.88 438.195 196.584C437.408 196.288 436.761 195.861 436.253 195.302C435.754 194.735 435.381 194.045 435.136 193.233C434.899 192.412 434.78 191.485 434.78 190.452C434.78 189.555 434.907 188.709 435.161 187.913C435.424 187.109 435.8 186.407 436.291 185.806C436.79 185.197 437.4 184.714 438.119 184.359C438.839 184.003 439.655 183.825 440.569 183.825C441.458 183.825 442.245 183.965 442.931 184.244C443.616 184.524 444.192 184.921 444.657 185.438C445.131 185.946 445.487 186.568 445.724 187.304C445.969 188.032 446.092 188.849 446.092 189.754ZM443.794 189.437C443.819 188.87 443.764 188.353 443.629 187.888C443.493 187.414 443.282 187.008 442.994 186.669C442.715 186.331 442.364 186.068 441.94 185.882C441.517 185.687 441.026 185.59 440.468 185.59C439.985 185.59 439.545 185.683 439.147 185.869C438.75 186.056 438.407 186.318 438.119 186.656C437.831 186.995 437.599 187.401 437.421 187.875C437.243 188.349 437.133 188.87 437.091 189.437H443.794ZM459.714 193.322C459.714 193.77 459.638 194.172 459.485 194.528C459.333 194.883 459.126 195.2 458.863 195.48C458.601 195.751 458.296 195.983 457.949 196.178C457.602 196.373 457.23 196.533 456.832 196.66C456.443 196.787 456.041 196.88 455.626 196.94C455.211 196.999 454.805 197.029 454.407 197.029C453.544 197.029 452.748 196.99 452.021 196.914C451.301 196.838 450.594 196.715 449.9 196.546V194.515C450.645 194.726 451.386 194.887 452.122 194.997C452.858 195.107 453.59 195.162 454.318 195.162C455.376 195.162 456.159 195.018 456.667 194.731C457.175 194.443 457.429 194.032 457.429 193.499C457.429 193.271 457.386 193.068 457.302 192.89C457.226 192.704 457.082 192.53 456.87 192.369C456.659 192.2 456.328 192.027 455.88 191.849C455.44 191.671 454.835 191.468 454.064 191.24C453.489 191.07 452.956 190.88 452.465 190.668C451.982 190.448 451.563 190.19 451.208 189.894C450.853 189.598 450.573 189.251 450.37 188.853C450.167 188.455 450.065 187.985 450.065 187.444C450.065 187.088 450.146 186.699 450.307 186.276C450.476 185.852 450.759 185.459 451.157 185.095C451.555 184.731 452.092 184.431 452.77 184.194C453.447 183.948 454.293 183.825 455.309 183.825C455.808 183.825 456.362 183.855 456.972 183.914C457.581 183.965 458.216 184.058 458.876 184.194V186.161C458.182 185.992 457.522 185.869 456.896 185.793C456.278 185.709 455.74 185.666 455.283 185.666C454.733 185.666 454.268 185.709 453.887 185.793C453.514 185.878 453.21 185.996 452.973 186.149C452.744 186.293 452.579 186.466 452.478 186.669C452.376 186.864 452.325 187.075 452.325 187.304C452.325 187.532 452.368 187.74 452.452 187.926C452.545 188.112 452.71 188.294 452.947 188.472C453.193 188.641 453.531 188.815 453.963 188.992C454.395 189.162 454.957 189.348 455.651 189.551C456.405 189.771 457.039 190.004 457.556 190.249C458.072 190.486 458.491 190.753 458.812 191.049C459.134 191.345 459.363 191.68 459.498 192.052C459.642 192.424 459.714 192.848 459.714 193.322ZM474.187 196.622C473.687 196.749 473.171 196.838 472.638 196.889C472.104 196.948 471.563 196.978 471.013 196.978C469.413 196.978 468.22 196.618 467.433 195.899C466.646 195.171 466.252 194.058 466.252 192.56V185.907H462.685V184.054H466.252V180.55L468.461 179.979V184.054H474.187V185.907H468.461V192.382C468.461 193.296 468.702 193.982 469.185 194.439C469.675 194.887 470.395 195.112 471.343 195.112C471.749 195.112 472.193 195.082 472.676 195.023C473.158 194.955 473.662 194.853 474.187 194.718V196.622ZM482.553 185.882H478.782V184.054H484.787V194.959H488.583V196.8H478.363V194.959H482.553V185.882ZM483.327 178.709C483.573 178.709 483.801 178.756 484.013 178.849C484.224 178.934 484.406 179.056 484.559 179.217C484.719 179.378 484.842 179.564 484.927 179.776C485.02 179.979 485.066 180.203 485.066 180.448C485.066 180.685 485.02 180.91 484.927 181.121C484.842 181.333 484.719 181.519 484.559 181.68C484.406 181.841 484.224 181.968 484.013 182.061C483.801 182.145 483.573 182.188 483.327 182.188C483.082 182.188 482.853 182.145 482.642 182.061C482.43 181.968 482.244 181.841 482.083 181.68C481.931 181.519 481.808 181.333 481.715 181.121C481.63 180.91 481.588 180.685 481.588 180.448C481.588 180.203 481.63 179.979 481.715 179.776C481.808 179.564 481.931 179.378 482.083 179.217C482.244 179.056 482.43 178.934 482.642 178.849C482.853 178.756 483.082 178.709 483.327 178.709ZM492.506 184.054H494.474L494.562 186.111C494.935 185.67 495.295 185.307 495.642 185.019C495.989 184.723 496.327 184.486 496.657 184.308C496.996 184.13 497.339 184.007 497.686 183.94C498.033 183.864 498.392 183.825 498.765 183.825C500.076 183.825 501.067 184.215 501.735 184.993C502.412 185.764 502.751 186.927 502.751 188.485V196.8H500.542V188.662C500.542 187.664 500.356 186.927 499.983 186.453C499.611 185.971 499.057 185.73 498.32 185.73C498.049 185.73 497.783 185.772 497.521 185.857C497.267 185.933 497 186.073 496.721 186.276C496.441 186.47 496.137 186.737 495.807 187.075C495.485 187.414 495.121 187.837 494.715 188.345V196.8H492.506V184.054ZM514.989 196.8L514.938 195.086C514.244 195.772 513.538 196.267 512.818 196.572C512.107 196.876 511.358 197.029 510.571 197.029C509.843 197.029 509.221 196.935 508.705 196.749C508.189 196.563 507.761 196.309 507.423 195.988C507.093 195.657 506.847 195.272 506.687 194.832C506.534 194.392 506.458 193.914 506.458 193.398C506.458 192.12 506.932 191.121 507.88 190.402C508.836 189.674 510.245 189.31 512.107 189.31H514.748V188.193C514.748 187.439 514.507 186.838 514.024 186.39C513.542 185.933 512.806 185.704 511.815 185.704C511.096 185.704 510.385 185.785 509.683 185.946C508.989 186.106 508.269 186.335 507.524 186.631V184.638C507.804 184.536 508.113 184.439 508.451 184.346C508.798 184.244 509.162 184.156 509.543 184.079C509.924 184.003 510.322 183.944 510.736 183.902C511.151 183.851 511.57 183.825 511.993 183.825C512.763 183.825 513.457 183.91 514.075 184.079C514.693 184.249 515.214 184.507 515.637 184.854C516.068 185.201 516.398 185.637 516.627 186.161C516.855 186.686 516.97 187.304 516.97 188.015V196.8H514.989ZM514.748 190.998H511.942C511.392 190.998 510.918 191.053 510.521 191.163C510.123 191.273 509.797 191.43 509.543 191.633C509.289 191.836 509.099 192.082 508.972 192.369C508.853 192.649 508.794 192.966 508.794 193.322C508.794 193.567 508.832 193.804 508.908 194.032C508.984 194.253 509.107 194.451 509.276 194.629C509.446 194.798 509.666 194.934 509.937 195.035C510.207 195.137 510.537 195.188 510.927 195.188C511.435 195.188 512.014 195.035 512.666 194.731C513.326 194.418 514.02 193.927 514.748 193.258V190.998ZM531.366 196.622C530.867 196.749 530.351 196.838 529.817 196.889C529.284 196.948 528.743 196.978 528.192 196.978C526.593 196.978 525.399 196.618 524.612 195.899C523.825 195.171 523.432 194.058 523.432 192.56V185.907H519.864V184.054H523.432V180.55L525.641 179.979V184.054H531.366V185.907H525.641V192.382C525.641 193.296 525.882 193.982 526.364 194.439C526.855 194.887 527.575 195.112 528.522 195.112C528.929 195.112 529.373 195.082 529.855 195.023C530.338 194.955 530.841 194.853 531.366 194.718V196.622ZM539.732 185.882H535.962V184.054H541.967V194.959H545.763V196.8H535.543V194.959H539.732V185.882ZM540.507 178.709C540.752 178.709 540.981 178.756 541.192 178.849C541.404 178.934 541.586 179.056 541.738 179.217C541.899 179.378 542.022 179.564 542.106 179.776C542.2 179.979 542.246 180.203 542.246 180.448C542.246 180.685 542.2 180.91 542.106 181.121C542.022 181.333 541.899 181.519 541.738 181.68C541.586 181.841 541.404 181.968 541.192 182.061C540.981 182.145 540.752 182.188 540.507 182.188C540.261 182.188 540.033 182.145 539.821 182.061C539.61 181.968 539.424 181.841 539.263 181.68C539.11 181.519 538.988 181.333 538.895 181.121C538.81 180.91 538.768 180.685 538.768 180.448C538.768 180.203 538.81 179.979 538.895 179.776C538.988 179.564 539.11 179.378 539.263 179.217C539.424 179.056 539.61 178.934 539.821 178.849C540.033 178.756 540.261 178.709 540.507 178.709ZM560.781 190.325C560.781 191.316 560.642 192.226 560.362 193.055C560.083 193.876 559.681 194.583 559.156 195.175C558.632 195.759 557.993 196.216 557.239 196.546C556.486 196.868 555.631 197.029 554.675 197.029C553.761 197.029 552.94 196.889 552.212 196.61C551.493 196.322 550.879 195.903 550.371 195.353C549.872 194.803 549.487 194.121 549.216 193.309C548.953 192.496 548.822 191.561 548.822 190.503C548.822 189.513 548.962 188.612 549.241 187.799C549.521 186.978 549.923 186.276 550.447 185.692C550.972 185.099 551.611 184.642 552.364 184.321C553.118 183.99 553.972 183.825 554.929 183.825C555.843 183.825 556.66 183.969 557.379 184.257C558.107 184.536 558.72 184.951 559.22 185.501C559.728 186.043 560.113 186.72 560.375 187.532C560.646 188.345 560.781 189.276 560.781 190.325ZM558.521 190.427C558.521 189.64 558.433 188.954 558.255 188.37C558.086 187.778 557.84 187.287 557.519 186.898C557.197 186.5 556.803 186.204 556.338 186.009C555.881 185.806 555.369 185.704 554.802 185.704C554.142 185.704 553.575 185.836 553.101 186.098C552.635 186.352 552.25 186.695 551.945 187.126C551.649 187.558 551.429 188.061 551.285 188.637C551.15 189.204 551.082 189.801 551.082 190.427C551.082 191.214 551.167 191.904 551.336 192.496C551.514 193.089 551.763 193.584 552.085 193.982C552.407 194.371 552.796 194.667 553.253 194.87C553.71 195.065 554.226 195.162 554.802 195.162C555.462 195.162 556.025 195.035 556.49 194.781C556.964 194.519 557.349 194.172 557.646 193.74C557.95 193.309 558.17 192.809 558.306 192.242C558.45 191.667 558.521 191.062 558.521 190.427ZM563.98 184.054H565.948L566.037 186.111C566.41 185.67 566.769 185.307 567.116 185.019C567.463 184.723 567.802 184.486 568.132 184.308C568.47 184.13 568.813 184.007 569.16 183.94C569.507 183.864 569.867 183.825 570.239 183.825C571.551 183.825 572.541 184.215 573.21 184.993C573.887 185.764 574.226 186.927 574.226 188.485V196.8H572.017V188.662C572.017 187.664 571.83 186.927 571.458 186.453C571.086 185.971 570.531 185.73 569.795 185.73C569.524 185.73 569.257 185.772 568.995 185.857C568.741 185.933 568.475 186.073 568.195 186.276C567.916 186.47 567.611 186.737 567.281 187.075C566.96 187.414 566.596 187.837 566.189 188.345V196.8H563.98V184.054Z" fill="#FF5500"/>
<path d="M498 154.5V175.5" stroke="#FF5500" stroke-width="2"/>
<path opacity="0.5" d="M41.1025 142.985C41.1025 144.06 40.9951 145.041 40.7803 145.929C40.5654 146.81 40.2396 147.569 39.8027 148.206C39.3659 148.836 38.8216 149.327 38.1699 149.678C37.5254 150.021 36.7663 150.193 35.8926 150.193C35.1406 150.193 34.4567 150.054 33.8408 149.774C33.2249 149.488 32.6986 149.051 32.2617 148.464C31.8249 147.877 31.4883 147.128 31.252 146.219C31.0156 145.309 30.8975 144.231 30.8975 142.985C30.8975 141.911 31.0049 140.93 31.2197 140.042C31.4417 139.154 31.7676 138.395 32.1973 137.765C32.6341 137.127 33.1784 136.637 33.8301 136.293C34.4818 135.942 35.2409 135.767 36.1074 135.767C36.8594 135.767 37.5433 135.91 38.1592 136.196C38.7751 136.476 39.3014 136.912 39.7383 137.507C40.1751 138.094 40.5117 138.842 40.748 139.752C40.9844 140.661 41.1025 141.739 41.1025 142.985ZM39.2119 143.05C39.2119 142.806 39.2012 142.566 39.1797 142.33C39.1654 142.087 39.1475 141.85 39.126 141.621L33.1855 146.036C33.293 146.409 33.429 146.752 33.5938 147.067C33.7585 147.382 33.9554 147.655 34.1846 147.884C34.4209 148.106 34.6859 148.281 34.9795 148.41C35.2803 148.532 35.6204 148.593 36 148.593C36.487 148.593 36.9274 148.475 37.3213 148.238C37.7223 148.002 38.0625 147.651 38.3418 147.186C38.6211 146.72 38.8359 146.144 38.9863 145.456C39.1367 144.761 39.2119 143.959 39.2119 143.05ZM32.7881 142.921C32.7881 143.143 32.7881 143.365 32.7881 143.587C32.7952 143.809 32.8096 144.024 32.8311 144.231L38.7715 139.838C38.6641 139.473 38.528 139.14 38.3633 138.839C38.1986 138.538 38.0016 138.28 37.7725 138.065C37.5433 137.843 37.2819 137.672 36.9883 137.55C36.6947 137.428 36.3652 137.367 36 137.367C35.513 137.367 35.069 137.485 34.668 137.722C34.2741 137.958 33.9375 138.312 33.6582 138.785C33.3789 139.251 33.1641 139.831 33.0137 140.525C32.8633 141.213 32.7881 142.011 32.7881 142.921Z" fill="black"/>
<path opacity="0.5" d="M106.662 150H97.8428V148.26H101.452V138.012L98.0898 139.838L97.4023 138.248L101.871 135.896H103.525V148.26H106.662V150Z" fill="black"/>
<path opacity="0.5" d="M172.78 150H163.531V148.324L167.162 144.715C167.757 144.128 168.24 143.619 168.612 143.189C168.985 142.76 169.275 142.369 169.482 142.019C169.69 141.66 169.83 141.324 169.901 141.009C169.973 140.694 170.009 140.354 170.009 139.988C170.009 139.645 169.962 139.319 169.869 139.011C169.776 138.696 169.633 138.42 169.439 138.184C169.246 137.947 168.995 137.761 168.688 137.625C168.38 137.489 168.011 137.421 167.581 137.421C166.987 137.421 166.446 137.553 165.959 137.818C165.472 138.083 165.024 138.427 164.616 138.85L163.585 137.614C164.115 137.056 164.724 136.608 165.411 136.271C166.106 135.935 166.911 135.767 167.828 135.767C168.451 135.767 169.017 135.86 169.525 136.046C170.041 136.232 170.485 136.501 170.857 136.852C171.23 137.202 171.516 137.632 171.717 138.141C171.924 138.649 172.028 139.222 172.028 139.859C172.028 140.396 171.957 140.894 171.813 141.353C171.67 141.811 171.452 142.269 171.158 142.728C170.872 143.179 170.507 143.648 170.062 144.135C169.626 144.622 169.106 145.155 168.505 145.735L165.959 148.217H172.78V150Z" fill="black"/>
<path opacity="0.5" d="M370.426 145.51C370.426 146.204 370.275 146.838 369.975 147.411C369.674 147.984 369.258 148.478 368.729 148.894C368.206 149.302 367.586 149.62 366.87 149.85C366.154 150.079 365.381 150.193 364.55 150.193C364.342 150.193 364.117 150.186 363.873 150.172C363.637 150.165 363.4 150.15 363.164 150.129C362.928 150.115 362.695 150.097 362.466 150.075C362.244 150.054 362.043 150.029 361.864 150V148.303C362.251 148.396 362.691 148.464 363.186 148.507C363.687 148.55 364.192 148.571 364.7 148.571C365.273 148.571 365.789 148.503 366.247 148.367C366.705 148.231 367.096 148.038 367.418 147.787C367.74 147.529 367.987 147.221 368.159 146.863C368.331 146.498 368.417 146.09 368.417 145.639C368.417 144.765 368.102 144.131 367.472 143.737C366.849 143.336 365.95 143.136 364.775 143.136H362.111V135.96H369.674V137.593H363.873V141.535H365.098C365.771 141.535 366.426 141.596 367.063 141.718C367.701 141.84 368.267 142.054 368.761 142.362C369.262 142.663 369.663 143.071 369.964 143.587C370.272 144.095 370.426 144.736 370.426 145.51Z" fill="black"/>
<path opacity="0.5" d="M436.952 145.553C436.952 146.197 436.834 146.802 436.598 147.368C436.368 147.934 436.039 148.428 435.609 148.851C435.18 149.266 434.66 149.595 434.052 149.839C433.45 150.075 432.781 150.193 432.043 150.193C431.27 150.193 430.586 150.072 429.991 149.828C429.397 149.577 428.899 149.198 428.498 148.689C428.097 148.174 427.793 147.526 427.585 146.745C427.377 145.965 427.273 145.041 427.273 143.974C427.273 143.257 427.32 142.563 427.413 141.89C427.506 141.216 427.66 140.583 427.875 139.988C428.09 139.394 428.376 138.85 428.734 138.355C429.092 137.861 429.536 137.439 430.066 137.088C430.604 136.73 431.234 136.454 431.957 136.261C432.68 136.06 433.518 135.96 434.471 135.96H435.856V137.593H434.353C433.515 137.593 432.788 137.693 432.172 137.894C431.556 138.094 431.04 138.377 430.625 138.742C430.21 139.107 429.891 139.548 429.669 140.063C429.447 140.579 429.307 141.156 429.25 141.793L429.207 142.233C429.658 141.968 430.177 141.757 430.765 141.6C431.359 141.435 432 141.353 432.688 141.353C433.396 141.353 434.016 141.456 434.546 141.664C435.083 141.872 435.527 142.162 435.878 142.534C436.236 142.899 436.505 143.34 436.684 143.855C436.863 144.371 436.952 144.937 436.952 145.553ZM434.997 145.671C434.997 145.241 434.943 144.854 434.836 144.511C434.736 144.16 434.575 143.866 434.353 143.63C434.131 143.386 433.848 143.2 433.504 143.071C433.167 142.935 432.763 142.867 432.29 142.867C432.018 142.867 431.742 142.892 431.463 142.942C431.184 142.993 430.908 143.064 430.636 143.157C430.371 143.243 430.117 143.343 429.873 143.458C429.63 143.573 429.408 143.694 429.207 143.823C429.207 144.747 429.271 145.521 429.4 146.144C429.529 146.759 429.719 147.254 429.97 147.626C430.228 147.998 430.543 148.263 430.915 148.421C431.287 148.578 431.717 148.657 432.204 148.657C432.612 148.657 432.985 148.593 433.321 148.464C433.665 148.328 433.959 148.131 434.202 147.873C434.453 147.615 434.646 147.304 434.782 146.938C434.925 146.566 434.997 146.144 434.997 145.671Z" fill="black"/>
<path opacity="0.5" d="M502.705 137.7L496.818 150H494.681L500.793 137.7H493.209V135.96H502.705V137.7Z" fill="black"/>
<path opacity="0.5" d="M238.512 145.735C238.512 146.351 238.386 146.931 238.136 147.476C237.885 148.013 237.509 148.485 237.008 148.894C236.507 149.295 235.876 149.613 235.117 149.85C234.358 150.079 233.474 150.193 232.464 150.193C231.905 150.193 231.404 150.175 230.96 150.14C230.516 150.104 230.101 150.057 229.714 150V148.324C230.158 148.403 230.627 148.464 231.121 148.507C231.615 148.55 232.12 148.571 232.636 148.571C233.338 148.571 233.936 148.51 234.43 148.389C234.931 148.26 235.339 148.077 235.654 147.841C235.969 147.604 236.199 147.318 236.342 146.981C236.485 146.645 236.557 146.265 236.557 145.843C236.557 145.456 236.471 145.119 236.299 144.833C236.127 144.547 235.883 144.307 235.568 144.113C235.26 143.92 234.888 143.777 234.451 143.684C234.021 143.583 233.549 143.533 233.033 143.533H231.433V141.997H233.055C233.477 141.997 233.86 141.943 234.204 141.836C234.555 141.721 234.852 141.56 235.096 141.353C235.346 141.145 235.536 140.891 235.665 140.59C235.801 140.282 235.869 139.935 235.869 139.548C235.869 138.796 235.64 138.248 235.182 137.904C234.723 137.561 234.05 137.389 233.162 137.389C232.689 137.389 232.202 137.435 231.701 137.528C231.2 137.621 230.663 137.761 230.09 137.947V136.314C230.333 136.229 230.591 136.153 230.863 136.089C231.143 136.017 231.418 135.96 231.69 135.917C231.97 135.867 232.245 135.831 232.518 135.81C232.79 135.781 233.051 135.767 233.302 135.767C234.047 135.767 234.702 135.849 235.268 136.014C235.833 136.171 236.306 136.4 236.686 136.701C237.065 137.002 237.352 137.367 237.545 137.797C237.738 138.227 237.835 138.71 237.835 139.247C237.835 140.049 237.627 140.722 237.212 141.267C236.804 141.811 236.242 142.244 235.525 142.566C235.891 142.624 236.249 142.738 236.6 142.91C236.958 143.082 237.276 143.304 237.556 143.576C237.842 143.841 238.071 144.156 238.243 144.521C238.422 144.887 238.512 145.291 238.512 145.735Z" fill="black"/>
<path opacity="0.5" d="M305.479 146.896H303.083V150H301.171V146.896H294.414V145.252L300.397 135.96H303.083V145.252H305.479V146.896ZM301.171 137.765L296.283 145.252H301.171V137.765Z" fill="black"/>
</g>
<defs>
<clipPath id="clip0_6295_3840">
<rect width="574" height="197" fill="white"/>
</clipPath>
</defs>
</svg>
