<svg width="702" height="246" viewBox="0 0 702 246" fill="none" xmlns="http://www.w3.org/2000/svg">
<g clip-path="url(#clip0_6290_1931)">
<rect width="702" height="246" fill="white"/>
<path d="M3.91406 48.5C3.91406 45.4624 6.3765 43 9.41406 43H70.9141V110H3.91406V48.5Z" fill="white" stroke="#7A7A7A"/>
<rect x="70.9141" y="43" width="66" height="67" fill="white" stroke="#7A7A7A"/>
<rect x="70.9141" y="43" width="66" height="67" fill="white" stroke="#7A7A7A"/>
<rect x="136.914" y="43" width="66" height="67" fill="white" stroke="#7A7A7A"/>
<rect x="136.914" y="43" width="66" height="67" fill="white" stroke="#7A7A7A"/>
<path d="M43.2715 86.5H31.2451V84.127H36.167V70.1523L31.582 72.6426L30.6445 70.4746L36.7383 67.2666H38.9941V84.127H43.2715V86.5Z" fill="#999999"/>
<path d="M111.385 76.8467C111.385 78.4189 111.214 79.8252 110.872 81.0654C110.53 82.3057 110.027 83.3555 109.363 84.2148C108.709 85.0645 107.908 85.7139 106.961 86.1631C106.014 86.6123 104.93 86.8369 103.709 86.8369C102.654 86.8369 101.683 86.6514 100.794 86.2803C99.9053 85.9092 99.1387 85.3281 98.4941 84.5371C97.8496 83.7363 97.3467 82.7158 96.9854 81.4756C96.624 80.2354 96.4434 78.751 96.4434 77.0225C96.4434 75.4502 96.6143 74.0439 96.9561 72.8037C97.3076 71.5635 97.8105 70.5186 98.4648 69.6689C99.1191 68.8096 99.9248 68.1553 100.882 67.7061C101.839 67.2568 102.923 67.0322 104.134 67.0322C105.188 67.0322 106.16 67.2178 107.049 67.5889C107.938 67.96 108.699 68.541 109.334 69.332C109.979 70.123 110.481 71.1387 110.843 72.3789C111.204 73.6191 111.385 75.1084 111.385 76.8467ZM100.047 76.9053C100.047 77.1006 100.047 77.2861 100.047 77.4619C100.047 77.6279 100.057 77.7988 100.076 77.9746L107.254 72.7891C106.912 71.8223 106.458 71.1094 105.892 70.6504C105.335 70.1816 104.676 69.9473 103.914 69.9473C103.367 69.9473 102.859 70.0889 102.391 70.3721C101.922 70.6455 101.512 71.0703 101.16 71.6465C100.818 72.2227 100.545 72.9453 100.34 73.8145C100.145 74.6836 100.047 75.7139 100.047 76.9053ZM107.781 76.9639C107.781 76.7979 107.776 76.6318 107.767 76.4658C107.757 76.29 107.752 76.124 107.752 75.9678L100.618 81.124C100.931 82.0713 101.37 82.7744 101.937 83.2334C102.503 83.6924 103.162 83.9219 103.914 83.9219C104.461 83.9219 104.969 83.7803 105.438 83.4971C105.916 83.2139 106.326 82.7891 106.668 82.2227C107.02 81.6465 107.293 80.9238 107.488 80.0547C107.684 79.1758 107.781 78.1455 107.781 76.9639Z" fill="black"/>
<path d="M176.066 80.6846C176.066 81.5244 175.896 82.3154 175.554 83.0576C175.212 83.79 174.699 84.4346 174.016 84.9912C173.332 85.5381 172.473 85.9727 171.438 86.2949C170.402 86.6074 169.196 86.7637 167.819 86.7637C167.058 86.7637 166.374 86.7393 165.769 86.6904C165.163 86.6416 164.597 86.5781 164.069 86.5V84.2148C164.675 84.3223 165.314 84.4053 165.988 84.4639C166.662 84.5225 167.351 84.5518 168.054 84.5518C169.011 84.5518 169.826 84.4688 170.5 84.3027C171.184 84.127 171.74 83.8779 172.17 83.5557C172.6 83.2334 172.912 82.8428 173.107 82.3838C173.303 81.9248 173.4 81.4072 173.4 80.8311C173.4 80.3037 173.283 79.8447 173.049 79.4541C172.814 79.0635 172.482 78.7363 172.053 78.4727C171.633 78.209 171.125 78.0137 170.529 77.8867C169.943 77.75 169.299 77.6816 168.596 77.6816H166.413V75.5869H168.625C169.201 75.5869 169.724 75.5137 170.192 75.3672C170.671 75.2109 171.076 74.9912 171.408 74.708C171.75 74.4248 172.009 74.0781 172.185 73.668C172.37 73.248 172.463 72.7744 172.463 72.2471C172.463 71.2217 172.15 70.4746 171.525 70.0059C170.9 69.5371 169.982 69.3027 168.771 69.3027C168.127 69.3027 167.463 69.3662 166.779 69.4932C166.096 69.6201 165.363 69.8105 164.582 70.0645V67.8379C164.914 67.7207 165.266 67.6182 165.637 67.5303C166.018 67.4326 166.394 67.3545 166.765 67.2959C167.146 67.2275 167.521 67.1787 167.893 67.1494C168.264 67.1104 168.62 67.0908 168.962 67.0908C169.978 67.0908 170.871 67.2031 171.643 67.4277C172.414 67.6426 173.059 67.9551 173.576 68.3652C174.094 68.7754 174.484 69.2734 174.748 69.8594C175.012 70.4453 175.144 71.1045 175.144 71.8369C175.144 72.9307 174.86 73.8486 174.294 74.5908C173.737 75.333 172.971 75.9238 171.994 76.3633C172.492 76.4414 172.98 76.5977 173.459 76.832C173.947 77.0664 174.382 77.3691 174.763 77.7402C175.153 78.1016 175.466 78.5312 175.7 79.0293C175.944 79.5273 176.066 80.0791 176.066 80.6846Z" fill="#999999"/>
<rect x="3.91406" y="110" width="67" height="66" fill="white" stroke="#7A7A7A"/>
<rect x="70.9141" y="110" width="66" height="66" stroke="#7A7A7A"/>
<rect x="137" y="111" width="66" height="65" fill="#FFE2D4" stroke="#7A7A7A"/>
<rect x="71" y="110" width="66" height="66" fill="#FFE2D4" stroke="#7A7A7A"/>
<path d="M44.3848 144.847C44.3848 146.419 44.2139 147.825 43.8721 149.065C43.5303 150.306 43.0273 151.355 42.3633 152.215C41.709 153.064 40.9082 153.714 39.9609 154.163C39.0137 154.612 37.9297 154.837 36.709 154.837C35.6543 154.837 34.6826 154.651 33.7939 154.28C32.9053 153.909 32.1387 153.328 31.4941 152.537C30.8496 151.736 30.3467 150.716 29.9854 149.476C29.624 148.235 29.4434 146.751 29.4434 145.022C29.4434 143.45 29.6143 142.044 29.9561 140.804C30.3076 139.563 30.8105 138.519 31.4648 137.669C32.1191 136.81 32.9248 136.155 33.8818 135.706C34.8389 135.257 35.9229 135.032 37.1338 135.032C38.1885 135.032 39.1602 135.218 40.0488 135.589C40.9375 135.96 41.6992 136.541 42.334 137.332C42.9785 138.123 43.4814 139.139 43.8428 140.379C44.2041 141.619 44.3848 143.108 44.3848 144.847ZM33.0469 144.905C33.0469 145.101 33.0469 145.286 33.0469 145.462C33.0469 145.628 33.0566 145.799 33.0762 145.975L40.2539 140.789C39.9121 139.822 39.458 139.109 38.8916 138.65C38.335 138.182 37.6758 137.947 36.9141 137.947C36.3672 137.947 35.8594 138.089 35.3906 138.372C34.9219 138.646 34.5117 139.07 34.1602 139.646C33.8184 140.223 33.5449 140.945 33.3398 141.814C33.1445 142.684 33.0469 143.714 33.0469 144.905ZM40.7812 144.964C40.7812 144.798 40.7764 144.632 40.7666 144.466C40.7568 144.29 40.752 144.124 40.752 143.968L33.6182 149.124C33.9307 150.071 34.3701 150.774 34.9365 151.233C35.5029 151.692 36.1621 151.922 36.9141 151.922C37.4609 151.922 37.9688 151.78 38.4375 151.497C38.916 151.214 39.3262 150.789 39.668 150.223C40.0195 149.646 40.293 148.924 40.4883 148.055C40.6836 147.176 40.7812 146.146 40.7812 144.964Z" fill="black"/>
<path d="M110.872 144.935C110.872 146.399 110.726 147.737 110.433 148.948C110.14 150.149 109.695 151.185 109.1 152.054C108.504 152.913 107.762 153.582 106.873 154.061C105.994 154.529 104.959 154.764 103.768 154.764C102.742 154.764 101.81 154.573 100.97 154.192C100.13 153.802 99.4121 153.206 98.8164 152.405C98.2207 151.604 97.7617 150.584 97.4395 149.344C97.1172 148.104 96.9561 146.634 96.9561 144.935C96.9561 143.47 97.1025 142.132 97.3955 140.921C97.6982 139.71 98.1426 138.675 98.7285 137.815C99.3242 136.946 100.066 136.277 100.955 135.809C101.844 135.33 102.879 135.091 104.061 135.091C105.086 135.091 106.019 135.286 106.858 135.677C107.698 136.058 108.416 136.653 109.012 137.464C109.607 138.265 110.066 139.285 110.389 140.525C110.711 141.766 110.872 143.235 110.872 144.935ZM108.294 145.022C108.294 144.69 108.279 144.363 108.25 144.041C108.23 143.709 108.206 143.387 108.177 143.074L100.076 149.095C100.223 149.603 100.408 150.071 100.633 150.501C100.857 150.931 101.126 151.302 101.438 151.614C101.761 151.917 102.122 152.156 102.522 152.332C102.933 152.498 103.396 152.581 103.914 152.581C104.578 152.581 105.179 152.42 105.716 152.098C106.263 151.775 106.727 151.297 107.107 150.662C107.488 150.027 107.781 149.241 107.986 148.304C108.191 147.356 108.294 146.263 108.294 145.022ZM99.5342 144.847C99.5342 145.149 99.5342 145.452 99.5342 145.755C99.5439 146.058 99.5635 146.351 99.5928 146.634L107.693 140.643C107.547 140.145 107.361 139.69 107.137 139.28C106.912 138.87 106.644 138.519 106.331 138.226C106.019 137.923 105.662 137.688 105.262 137.522C104.861 137.356 104.412 137.273 103.914 137.273C103.25 137.273 102.645 137.435 102.098 137.757C101.561 138.079 101.102 138.562 100.721 139.207C100.34 139.842 100.047 140.633 99.8418 141.58C99.6367 142.518 99.5342 143.606 99.5342 144.847Z" fill="#999999"/>
<path d="M176.433 149.695C176.433 150.506 176.267 151.229 175.935 151.863C175.603 152.488 175.139 153.016 174.543 153.445C173.947 153.875 173.244 154.202 172.434 154.427C171.623 154.651 170.744 154.764 169.797 154.764C168.752 154.764 167.829 154.646 167.028 154.412C166.237 154.178 165.573 153.851 165.036 153.431C164.499 153.011 164.094 152.513 163.82 151.937C163.547 151.36 163.41 150.726 163.41 150.032C163.41 148.86 163.737 147.85 164.392 147C165.046 146.15 166.057 145.379 167.424 144.686C166.174 144.051 165.261 143.348 164.685 142.576C164.108 141.795 163.82 140.901 163.82 139.896C163.82 139.28 163.947 138.685 164.201 138.108C164.455 137.532 164.836 137.02 165.344 136.57C165.861 136.121 166.506 135.765 167.277 135.501C168.049 135.228 168.957 135.091 170.002 135.091C170.988 135.091 171.853 135.198 172.595 135.413C173.347 135.618 173.977 135.916 174.484 136.307C174.992 136.697 175.373 137.171 175.627 137.728C175.881 138.284 176.008 138.904 176.008 139.588C176.008 140.701 175.695 141.648 175.07 142.43C174.455 143.211 173.576 143.895 172.434 144.48C173 144.764 173.527 145.076 174.016 145.418C174.504 145.76 174.929 146.141 175.29 146.561C175.651 146.98 175.93 147.449 176.125 147.967C176.33 148.484 176.433 149.061 176.433 149.695ZM173.4 139.793C173.4 138.924 173.093 138.279 172.478 137.859C171.872 137.43 171.018 137.215 169.914 137.215C168.82 137.215 167.966 137.425 167.351 137.845C166.745 138.265 166.442 138.895 166.442 139.734C166.442 140.115 166.516 140.467 166.662 140.789C166.809 141.111 167.033 141.414 167.336 141.697C167.648 141.98 168.034 142.259 168.493 142.532C168.952 142.806 169.499 143.084 170.134 143.367C171.237 142.85 172.058 142.312 172.595 141.756C173.132 141.189 173.4 140.535 173.4 139.793ZM173.664 149.886C173.664 149.524 173.605 149.173 173.488 148.831C173.371 148.489 173.161 148.152 172.858 147.82C172.556 147.488 172.15 147.156 171.643 146.824C171.135 146.492 170.49 146.15 169.709 145.799C169.045 146.121 168.483 146.443 168.024 146.766C167.575 147.078 167.209 147.4 166.926 147.732C166.652 148.055 166.457 148.392 166.34 148.743C166.223 149.095 166.164 149.466 166.164 149.856C166.164 150.296 166.257 150.687 166.442 151.028C166.638 151.36 166.901 151.644 167.233 151.878C167.565 152.112 167.961 152.288 168.42 152.405C168.879 152.522 169.377 152.581 169.914 152.581C170.432 152.581 170.92 152.527 171.379 152.42C171.838 152.312 172.233 152.151 172.565 151.937C172.907 151.712 173.176 151.434 173.371 151.102C173.566 150.76 173.664 150.354 173.664 149.886Z" fill="#999999"/>
<rect x="3.91406" y="176" width="67" height="66" fill="white" stroke="#7A7A7A"/>
<rect x="70.9141" y="176" width="66" height="66" fill="#FFE2D4" stroke="#7A7A7A"/>
<rect x="136.914" y="176" width="66" height="66" fill="#FFE2D4" stroke="#7A7A7A"/>
<path d="M35.0244 219.5H22.998V217.127H27.9199V203.152L23.335 205.643L22.3975 203.475L28.4912 200.267H30.7471V217.127H35.0244V219.5ZM51.5186 219.5H39.4922V217.127H44.4141V203.152L39.8291 205.643L38.8916 203.475L44.9854 200.267H47.2412V217.127H51.5186V219.5Z" fill="#999999"/>
<path d="M102.024 219.5H89.998V217.127H94.9199V203.152L90.335 205.643L89.3975 203.475L95.4912 200.267H97.7471V217.127H102.024V219.5ZM118.68 219.5H106.067V217.215L111.019 212.293C111.829 211.492 112.488 210.799 112.996 210.213C113.504 209.627 113.899 209.095 114.183 208.616C114.466 208.128 114.656 207.669 114.754 207.239C114.852 206.81 114.9 206.346 114.9 205.848C114.9 205.379 114.837 204.935 114.71 204.515C114.583 204.085 114.388 203.709 114.124 203.387C113.86 203.064 113.519 202.811 113.099 202.625C112.679 202.439 112.176 202.347 111.59 202.347C110.779 202.347 110.042 202.527 109.378 202.889C108.714 203.25 108.104 203.719 107.547 204.295L106.141 202.61C106.863 201.849 107.693 201.238 108.631 200.779C109.578 200.32 110.677 200.091 111.927 200.091C112.776 200.091 113.548 200.218 114.241 200.472C114.944 200.726 115.55 201.092 116.058 201.57C116.565 202.049 116.956 202.635 117.229 203.328C117.513 204.021 117.654 204.803 117.654 205.672C117.654 206.404 117.557 207.083 117.361 207.708C117.166 208.333 116.868 208.958 116.468 209.583C116.077 210.198 115.579 210.838 114.974 211.502C114.378 212.166 113.67 212.894 112.85 213.685L109.378 217.068H118.68V219.5Z" fill="#999999"/>
<path d="M168.024 219.5H155.998V217.127H160.92V203.152L156.335 205.643L155.397 203.475L161.491 200.267H163.747V217.127H168.024V219.5ZM184.313 213.685C184.313 214.524 184.143 215.315 183.801 216.058C183.459 216.79 182.946 217.435 182.263 217.991C181.579 218.538 180.72 218.973 179.685 219.295C178.649 219.607 177.443 219.764 176.066 219.764C175.305 219.764 174.621 219.739 174.016 219.69C173.41 219.642 172.844 219.578 172.316 219.5V217.215C172.922 217.322 173.562 217.405 174.235 217.464C174.909 217.522 175.598 217.552 176.301 217.552C177.258 217.552 178.073 217.469 178.747 217.303C179.431 217.127 179.987 216.878 180.417 216.556C180.847 216.233 181.159 215.843 181.354 215.384C181.55 214.925 181.647 214.407 181.647 213.831C181.647 213.304 181.53 212.845 181.296 212.454C181.062 212.063 180.729 211.736 180.3 211.473C179.88 211.209 179.372 211.014 178.776 210.887C178.19 210.75 177.546 210.682 176.843 210.682H174.66V208.587H176.872C177.448 208.587 177.971 208.514 178.439 208.367C178.918 208.211 179.323 207.991 179.655 207.708C179.997 207.425 180.256 207.078 180.432 206.668C180.617 206.248 180.71 205.774 180.71 205.247C180.71 204.222 180.397 203.475 179.772 203.006C179.147 202.537 178.229 202.303 177.019 202.303C176.374 202.303 175.71 202.366 175.026 202.493C174.343 202.62 173.61 202.811 172.829 203.064V200.838C173.161 200.721 173.513 200.618 173.884 200.53C174.265 200.433 174.641 200.354 175.012 200.296C175.393 200.228 175.769 200.179 176.14 200.149C176.511 200.11 176.867 200.091 177.209 200.091C178.225 200.091 179.118 200.203 179.89 200.428C180.661 200.643 181.306 200.955 181.823 201.365C182.341 201.775 182.731 202.273 182.995 202.859C183.259 203.445 183.391 204.104 183.391 204.837C183.391 205.931 183.107 206.849 182.541 207.591C181.984 208.333 181.218 208.924 180.241 209.363C180.739 209.441 181.228 209.598 181.706 209.832C182.194 210.066 182.629 210.369 183.01 210.74C183.4 211.102 183.713 211.531 183.947 212.029C184.191 212.527 184.313 213.079 184.313 213.685Z" fill="#999999"/>
<rect x="2.5" y="41.5" width="268" height="202" rx="6.5" fill="white" stroke="black" stroke-width="5"/>
<path d="M136.5 176H202.5V242H136.5V176Z" fill="white" stroke="#7A7A7A"/>
<path d="M3.91406 48.5C3.91406 45.4624 6.3765 43 9.41406 43H70.9141V110H3.91406V48.5Z" fill="white" stroke="#7A7A7A"/>
<rect x="70.9141" y="43" width="66" height="67" fill="white" stroke="#7A7A7A"/>
<rect x="70.9141" y="43" width="66" height="67" fill="white" stroke="#7A7A7A"/>
<path d="M3.91406 48.5C3.91406 45.4624 6.3765 43 9.41406 43H70.9141V110H3.91406V48.5Z" fill="#FFE2D4" stroke="#7A7A7A"/>
<rect x="70.9141" y="43" width="66" height="67" fill="white" stroke="#7A7A7A"/>
<rect x="71" y="43" width="66" height="67" fill="#FFE2D4" stroke="#7A7A7A"/>
<path d="M137 43H202.5V110H137V43Z" fill="#FFE2D4" stroke="#7A7A7A"/>
<path d="M42.6562 82.4863C42.6562 83.0039 42.5684 83.4678 42.3926 83.8779C42.2168 84.2881 41.9775 84.6543 41.6748 84.9766C41.3721 85.2891 41.0205 85.5576 40.6201 85.7822C40.2197 86.0068 39.79 86.1924 39.3311 86.3389C38.8818 86.4854 38.418 86.5928 37.9395 86.6611C37.4609 86.7295 36.9922 86.7637 36.5332 86.7637C35.5371 86.7637 34.6191 86.7197 33.7793 86.6318C32.9492 86.5439 32.1338 86.4023 31.333 86.207V83.8633C32.1924 84.1074 33.0469 84.293 33.8965 84.4199C34.7461 84.5469 35.5908 84.6104 36.4307 84.6104C37.6514 84.6104 38.5547 84.4443 39.1406 84.1123C39.7266 83.7803 40.0195 83.3066 40.0195 82.6914C40.0195 82.4277 39.9707 82.1934 39.873 81.9883C39.7852 81.7734 39.6191 81.5732 39.375 81.3877C39.1309 81.1924 38.75 80.9922 38.2324 80.7871C37.7246 80.582 37.0264 80.3477 36.1377 80.084C35.4736 79.8887 34.8584 79.6689 34.292 79.4248C33.7354 79.1709 33.252 78.873 32.8418 78.5312C32.4316 78.1895 32.1094 77.7891 31.875 77.3301C31.6406 76.8711 31.5234 76.3291 31.5234 75.7041C31.5234 75.2939 31.6162 74.8447 31.8018 74.3564C31.9971 73.8682 32.3242 73.4141 32.7832 72.9941C33.2422 72.5742 33.8623 72.2275 34.6436 71.9541C35.4248 71.6709 36.4014 71.5293 37.5732 71.5293C38.1494 71.5293 38.7891 71.5635 39.4922 71.6318C40.1953 71.6904 40.9277 71.7979 41.6895 71.9541V74.2246C40.8887 74.0293 40.127 73.8877 39.4043 73.7998C38.6914 73.7021 38.0713 73.6533 37.5439 73.6533C36.9092 73.6533 36.3721 73.7021 35.9326 73.7998C35.5029 73.8975 35.1514 74.0342 34.8779 74.21C34.6143 74.376 34.4238 74.5762 34.3066 74.8105C34.1895 75.0352 34.1309 75.2793 34.1309 75.543C34.1309 75.8066 34.1797 76.0459 34.2773 76.2607C34.3848 76.4756 34.5752 76.6855 34.8486 76.8906C35.1318 77.0859 35.5225 77.2861 36.0205 77.4912C36.5186 77.6865 37.168 77.9014 37.9688 78.1357C38.8379 78.3896 39.5703 78.6582 40.166 78.9414C40.7617 79.2148 41.2451 79.5225 41.6162 79.8643C41.9873 80.2061 42.251 80.5918 42.4072 81.0215C42.5732 81.4512 42.6562 81.9395 42.6562 82.4863Z" fill="black"/>
<path d="M109.861 89.2949C109.285 89.4414 108.689 89.5439 108.074 89.6025C107.459 89.6709 106.834 89.7051 106.199 89.7051C104.354 89.7051 102.977 89.29 102.068 88.46C101.16 87.6201 100.706 86.3359 100.706 84.6074V76.9316H96.5898V74.793H100.706V70.75L103.255 70.0908V74.793H109.861V76.9316H103.255V84.4023C103.255 85.457 103.533 86.248 104.09 86.7754C104.656 87.293 105.486 87.5518 106.58 87.5518C107.049 87.5518 107.562 87.5176 108.118 87.4492C108.675 87.3711 109.256 87.2539 109.861 87.0977V89.2949Z" fill="black"/>
<path d="M173.459 86.5L173.4 84.5225C172.6 85.3135 171.784 85.8848 170.954 86.2363C170.134 86.5879 169.27 86.7637 168.361 86.7637C167.521 86.7637 166.804 86.6562 166.208 86.4414C165.612 86.2266 165.119 85.9336 164.729 85.5625C164.348 85.1816 164.064 84.7373 163.879 84.2295C163.703 83.7217 163.615 83.1699 163.615 82.5742C163.615 81.0996 164.162 79.9473 165.256 79.1172C166.359 78.2773 167.985 77.8574 170.134 77.8574H173.181V76.5684C173.181 75.6992 172.902 75.0059 172.346 74.4883C171.789 73.9609 170.939 73.6973 169.797 73.6973C168.967 73.6973 168.146 73.79 167.336 73.9756C166.535 74.1611 165.705 74.4248 164.846 74.7666V72.4668C165.168 72.3496 165.524 72.2373 165.915 72.1299C166.315 72.0127 166.735 71.9102 167.175 71.8223C167.614 71.7344 168.073 71.666 168.552 71.6172C169.03 71.5586 169.514 71.5293 170.002 71.5293C170.891 71.5293 171.691 71.627 172.404 71.8223C173.117 72.0176 173.718 72.3154 174.206 72.7158C174.704 73.1162 175.085 73.6191 175.349 74.2246C175.612 74.8301 175.744 75.543 175.744 76.3633V86.5H173.459ZM173.181 79.8057H169.943C169.309 79.8057 168.762 79.8691 168.303 79.9961C167.844 80.123 167.468 80.3037 167.175 80.5381C166.882 80.7725 166.662 81.0557 166.516 81.3877C166.379 81.71 166.311 82.0762 166.311 82.4863C166.311 82.7695 166.354 83.043 166.442 83.3066C166.53 83.5605 166.672 83.79 166.867 83.9951C167.062 84.1904 167.316 84.3467 167.629 84.4639C167.941 84.5811 168.322 84.6396 168.771 84.6396C169.357 84.6396 170.026 84.4639 170.778 84.1123C171.54 83.751 172.341 83.1846 173.181 82.4131V79.8057Z" fill="black"/>
<rect x="3.91406" y="110" width="67" height="66" fill="white" stroke="#7A7A7A"/>
<rect x="70.9141" y="110" width="66" height="66" stroke="#7A7A7A"/>
<rect x="136.5" y="110" width="66" height="66" fill="white" stroke="#7A7A7A"/>
<rect x="71" y="110" width="66" height="66" fill="white" stroke="#7A7A7A"/>
<path d="M31.6113 139.793H33.9404L34.0137 142.503C34.8828 141.458 35.7373 140.701 36.5771 140.232C37.4268 139.764 38.2812 139.529 39.1406 139.529C40.6641 139.529 41.8164 140.022 42.5977 141.009C43.3887 141.995 43.7549 143.46 43.6963 145.403H41.1182C41.1475 144.114 40.957 143.182 40.5469 142.605C40.1465 142.02 39.5557 141.727 38.7744 141.727C38.4326 141.727 38.0859 141.79 37.7344 141.917C37.3926 142.034 37.0361 142.229 36.665 142.503C36.3037 142.767 35.918 143.108 35.5078 143.528C35.0977 143.948 34.6582 144.456 34.1895 145.052V154.5H31.6113V139.793Z" fill="black"/>
<path d="M107.459 154.5L107.4 152.522C106.6 153.313 105.784 153.885 104.954 154.236C104.134 154.588 103.27 154.764 102.361 154.764C101.521 154.764 100.804 154.656 100.208 154.441C99.6123 154.227 99.1191 153.934 98.7285 153.562C98.3477 153.182 98.0645 152.737 97.8789 152.229C97.7031 151.722 97.6152 151.17 97.6152 150.574C97.6152 149.1 98.1621 147.947 99.2559 147.117C100.359 146.277 101.985 145.857 104.134 145.857H107.181V144.568C107.181 143.699 106.902 143.006 106.346 142.488C105.789 141.961 104.939 141.697 103.797 141.697C102.967 141.697 102.146 141.79 101.336 141.976C100.535 142.161 99.7051 142.425 98.8457 142.767V140.467C99.168 140.35 99.5244 140.237 99.915 140.13C100.315 140.013 100.735 139.91 101.175 139.822C101.614 139.734 102.073 139.666 102.552 139.617C103.03 139.559 103.514 139.529 104.002 139.529C104.891 139.529 105.691 139.627 106.404 139.822C107.117 140.018 107.718 140.315 108.206 140.716C108.704 141.116 109.085 141.619 109.349 142.225C109.612 142.83 109.744 143.543 109.744 144.363V154.5H107.459ZM107.181 147.806H103.943C103.309 147.806 102.762 147.869 102.303 147.996C101.844 148.123 101.468 148.304 101.175 148.538C100.882 148.772 100.662 149.056 100.516 149.388C100.379 149.71 100.311 150.076 100.311 150.486C100.311 150.77 100.354 151.043 100.442 151.307C100.53 151.561 100.672 151.79 100.867 151.995C101.062 152.19 101.316 152.347 101.629 152.464C101.941 152.581 102.322 152.64 102.771 152.64C103.357 152.64 104.026 152.464 104.778 152.112C105.54 151.751 106.341 151.185 107.181 150.413V147.806Z" fill="black"/>
<path d="M162.634 139.793H165.534L169.138 149.52L169.914 151.893L170.72 149.461L174.294 139.793H177.092L171.32 154.5H168.391L162.634 139.793Z" fill="black"/>
<path d="M3.91406 176H70.9141V242H9.41406C6.3765 242 3.91406 239.538 3.91406 236.5V176Z" fill="white" stroke="#7A7A7A"/>
<rect x="70.9141" y="176" width="66" height="66" fill="white" stroke="#7A7A7A"/>
<path d="M43.4326 211.37C43.4326 211.731 43.4277 212.034 43.418 212.278C43.4082 212.522 43.3936 212.752 43.374 212.967H33.0469C33.0469 214.471 33.4668 215.628 34.3066 216.438C35.1465 217.239 36.3574 217.64 37.9395 217.64C38.3691 217.64 38.7988 217.625 39.2285 217.596C39.6582 217.557 40.0732 217.508 40.4736 217.449C40.874 217.391 41.2549 217.327 41.6162 217.259C41.9873 217.181 42.3291 217.098 42.6416 217.01V219.104C41.9482 219.3 41.1621 219.456 40.2832 219.573C39.4141 219.7 38.5107 219.764 37.5732 219.764C36.3135 219.764 35.2295 219.593 34.3213 219.251C33.4131 218.909 32.666 218.416 32.0801 217.771C31.5039 217.117 31.0742 216.321 30.791 215.384C30.5176 214.437 30.3809 213.367 30.3809 212.176C30.3809 211.141 30.5273 210.164 30.8203 209.246C31.123 208.318 31.5576 207.508 32.124 206.814C32.7002 206.111 33.4033 205.555 34.2334 205.145C35.0635 204.734 36.0059 204.529 37.0605 204.529C38.0859 204.529 38.9941 204.69 39.7852 205.013C40.5762 205.335 41.2402 205.794 41.7773 206.39C42.3242 206.976 42.7344 207.693 43.0078 208.543C43.291 209.383 43.4326 210.325 43.4326 211.37ZM40.7812 211.004C40.8105 210.35 40.7471 209.754 40.5908 209.217C40.4346 208.67 40.1904 208.201 39.8584 207.811C39.5361 207.42 39.1309 207.117 38.6426 206.902C38.1543 206.678 37.5879 206.565 36.9434 206.565C36.3867 206.565 35.8789 206.673 35.4199 206.888C34.9609 207.103 34.5654 207.405 34.2334 207.796C33.9014 208.187 33.6328 208.655 33.4277 209.202C33.2227 209.749 33.0957 210.35 33.0469 211.004H40.7812Z" fill="black"/>
<path d="M108.499 219.5V208.938C108.499 208.479 108.479 208.104 108.44 207.811C108.411 207.518 108.357 207.288 108.279 207.122C108.211 206.946 108.118 206.824 108.001 206.756C107.894 206.688 107.757 206.653 107.591 206.653C107.396 206.653 107.215 206.712 107.049 206.829C106.883 206.946 106.702 207.137 106.507 207.4C106.321 207.664 106.111 208.016 105.877 208.455C105.652 208.885 105.384 209.417 105.071 210.052V219.5H102.742V209.217C102.742 208.68 102.723 208.245 102.684 207.913C102.654 207.581 102.601 207.322 102.522 207.137C102.454 206.951 102.361 206.824 102.244 206.756C102.127 206.688 101.985 206.653 101.819 206.653C101.644 206.653 101.478 206.702 101.321 206.8C101.165 206.897 100.989 207.073 100.794 207.327C100.608 207.581 100.398 207.928 100.164 208.367C99.9297 208.807 99.6514 209.368 99.3291 210.052V219.5H96.9854V204.793H98.9336L99.0508 207.591C99.3047 207.034 99.5488 206.561 99.7832 206.17C100.027 205.779 100.276 205.467 100.53 205.232C100.784 204.988 101.053 204.812 101.336 204.705C101.629 204.588 101.951 204.529 102.303 204.529C103.094 204.529 103.694 204.788 104.104 205.306C104.515 205.823 104.72 206.624 104.72 207.708C104.954 207.2 105.184 206.751 105.408 206.36C105.633 205.96 105.872 205.628 106.126 205.364C106.39 205.091 106.678 204.886 106.99 204.749C107.303 204.603 107.664 204.529 108.074 204.529C109.92 204.529 110.843 205.95 110.843 208.792V219.5H108.499Z" fill="black"/>
<path d="M175.92 219.5H164.069V217.669L172.375 206.932H164.274V204.793H175.437V206.785L167.277 217.347H175.92V219.5Z" fill="black"/>
<path d="M202.5 176H268.5V236.5C268.5 239.538 266.038 242 263 242H202.5V176Z" fill="white" stroke="#7A7A7A"/>
<path d="M202.5 42.5H263C266.038 42.5 268.5 44.9624 268.5 48V110.5H202.5V42.5Z" stroke="#7A7A7A"/>
<path d="M230.611 71.793H232.94L233.014 74.5029C233.883 73.458 234.737 72.7012 235.577 72.2324C236.427 71.7637 237.281 71.5293 238.141 71.5293C239.664 71.5293 240.816 72.0225 241.598 73.0088C242.389 73.9951 242.755 75.46 242.696 77.4033H240.118C240.147 76.1143 239.957 75.1816 239.547 74.6055C239.146 74.0195 238.556 73.7266 237.774 73.7266C237.433 73.7266 237.086 73.79 236.734 73.917C236.393 74.0342 236.036 74.2295 235.665 74.5029C235.304 74.7666 234.918 75.1084 234.508 75.5283C234.098 75.9482 233.658 76.4561 233.189 77.0518V86.5H230.611V71.793Z" fill="#999999"/>
<rect x="202.5" y="110" width="66" height="66" fill="white" stroke="#7A7A7A"/>
<path d="M235.021 141.902H230.67V139.793H237.599V152.376H241.979V154.5H230.187V152.376H235.021V141.902ZM235.914 133.626C236.197 133.626 236.461 133.68 236.705 133.787C236.949 133.885 237.159 134.026 237.335 134.212C237.521 134.397 237.662 134.612 237.76 134.856C237.867 135.091 237.921 135.35 237.921 135.633C237.921 135.906 237.867 136.165 237.76 136.409C237.662 136.653 237.521 136.868 237.335 137.054C237.159 137.239 236.949 137.386 236.705 137.493C236.461 137.591 236.197 137.64 235.914 137.64C235.631 137.64 235.367 137.591 235.123 137.493C234.879 137.386 234.664 137.239 234.479 137.054C234.303 136.868 234.161 136.653 234.054 136.409C233.956 136.165 233.907 135.906 233.907 135.633C233.907 135.35 233.956 135.091 234.054 134.856C234.161 134.612 234.303 134.397 234.479 134.212C234.664 134.026 234.879 133.885 235.123 133.787C235.367 133.68 235.631 133.626 235.914 133.626Z" fill="black"/>
<path d="M243.062 201.175C241.725 200.892 240.572 200.75 239.605 200.75C237.311 200.75 236.163 201.951 236.163 204.354V206.932H242.608V209.056H236.163V219.5H233.57V209.056H228.839V206.932H233.57V204.5C233.57 200.584 235.611 198.626 239.693 198.626C240.709 198.626 241.832 198.743 243.062 198.978V201.175Z" fill="black"/>
<g filter="url(#filter0_d_6290_1931)">
<path d="M158.414 98.9145C159.195 98.1335 159.195 96.8671 158.414 96.0861L145.686 83.3582C144.905 82.5771 143.639 82.5771 142.858 83.3582C142.077 84.1392 142.077 85.4055 142.858 86.1866L154.172 97.5003L142.858 108.814C142.077 109.595 142.077 110.861 142.858 111.642C143.639 112.423 144.905 112.423 145.686 111.642L158.414 98.9145ZM42 99.5003L157 99.5003L157 95.5003L42 95.5003L42 99.5003Z" fill="black"/>
</g>
<path d="M74.2071 13.7071C74.5976 13.3166 74.5976 12.6834 74.2071 12.2929L67.8431 5.92894C67.4526 5.53842 66.8195 5.53842 66.4289 5.92894C66.0384 6.31946 66.0384 6.95263 66.4289 7.34315L72.0858 13L66.4289 18.6569C66.0384 19.0474 66.0384 19.6806 66.4289 20.0711C66.8195 20.4616 67.4526 20.4616 67.8431 20.0711L74.2071 13.7071ZM-1.15969e-07 14L73.5 14L73.5 12L1.15969e-07 12L-1.15969e-07 14Z" fill="black"/>
<g filter="url(#filter1_d_6290_1931)">
<circle cx="36.5" cy="97" r="6.5" fill="black"/>
<circle cx="36.5" cy="97" r="5" stroke="black" stroke-width="3"/>
</g>
<path d="M96.9414 13.3828C96.9414 14.6035 96.7705 15.6973 96.4287 16.6641C96.0967 17.6211 95.6182 18.4365 94.9932 19.1104C94.3779 19.7744 93.626 20.2871 92.7373 20.6484C91.8486 21 90.8477 21.1758 89.7344 21.1758C88.8652 21.1758 87.9766 21.0928 87.0684 20.9268C86.1602 20.7607 85.2617 20.4971 84.373 20.1357V0.301758H86.9219V6L86.8047 8.72461C87.5371 7.73828 88.3184 7.04492 89.1484 6.64453C89.9883 6.23438 90.8867 6.0293 91.8438 6.0293C92.6836 6.0293 93.4209 6.20508 94.0557 6.55664C94.6904 6.9082 95.2227 7.40625 95.6523 8.05078C96.082 8.68555 96.4043 9.45703 96.6191 10.3652C96.834 11.2637 96.9414 12.2695 96.9414 13.3828ZM94.334 13.5C94.334 12.7285 94.2754 12.0205 94.1582 11.376C94.0508 10.7314 93.875 10.1797 93.6309 9.7207C93.3867 9.26172 93.0742 8.90527 92.6934 8.65137C92.3125 8.3877 91.8584 8.25586 91.3311 8.25586C91.0088 8.25586 90.6816 8.30957 90.3496 8.41699C90.0176 8.51465 89.6709 8.68555 89.3096 8.92969C88.958 9.16406 88.582 9.48145 88.1816 9.88184C87.791 10.2725 87.3711 10.7607 86.9219 11.3467V18.4805C87.4199 18.6758 87.9277 18.832 88.4453 18.9492C88.9629 19.0566 89.4561 19.1104 89.9248 19.1104C90.5107 19.1104 91.0674 19.0176 91.5947 18.832C92.1318 18.6465 92.6006 18.3389 93.001 17.9092C93.4111 17.4697 93.7334 16.8936 93.9678 16.1807C94.2119 15.458 94.334 14.5645 94.334 13.5ZM110.315 21L110.257 19.0225C109.456 19.8135 108.641 20.3848 107.811 20.7363C106.99 21.0879 106.126 21.2637 105.218 21.2637C104.378 21.2637 103.66 21.1562 103.064 20.9414C102.469 20.7266 101.976 20.4336 101.585 20.0625C101.204 19.6816 100.921 19.2373 100.735 18.7295C100.56 18.2217 100.472 17.6699 100.472 17.0742C100.472 15.5996 101.019 14.4473 102.112 13.6172C103.216 12.7773 104.842 12.3574 106.99 12.3574H110.037V11.0684C110.037 10.1992 109.759 9.50586 109.202 8.98828C108.646 8.46094 107.796 8.19727 106.653 8.19727C105.823 8.19727 105.003 8.29004 104.192 8.47559C103.392 8.66113 102.562 8.9248 101.702 9.2666V6.9668C102.024 6.84961 102.381 6.7373 102.771 6.62988C103.172 6.5127 103.592 6.41016 104.031 6.32227C104.471 6.23438 104.93 6.16602 105.408 6.11719C105.887 6.05859 106.37 6.0293 106.858 6.0293C107.747 6.0293 108.548 6.12695 109.261 6.32227C109.974 6.51758 110.574 6.81543 111.062 7.21582C111.561 7.61621 111.941 8.11914 112.205 8.72461C112.469 9.33008 112.601 10.043 112.601 10.8633V21H110.315ZM110.037 14.3057H106.8C106.165 14.3057 105.618 14.3691 105.159 14.4961C104.7 14.623 104.324 14.8037 104.031 15.0381C103.738 15.2725 103.519 15.5557 103.372 15.8877C103.235 16.21 103.167 16.5762 103.167 16.9863C103.167 17.2695 103.211 17.543 103.299 17.8066C103.387 18.0605 103.528 18.29 103.724 18.4951C103.919 18.6904 104.173 18.8467 104.485 18.9639C104.798 19.0811 105.179 19.1396 105.628 19.1396C106.214 19.1396 106.883 18.9639 107.635 18.6123C108.396 18.251 109.197 17.6846 110.037 16.9131V14.3057ZM128.787 20.458C128.123 20.7119 127.439 20.8975 126.736 21.0146C126.043 21.1416 125.325 21.2051 124.583 21.2051C122.259 21.2051 120.467 20.5752 119.207 19.3154C117.957 18.0557 117.332 16.2148 117.332 13.793C117.332 12.6309 117.513 11.5762 117.874 10.6289C118.235 9.68164 118.743 8.87109 119.397 8.19727C120.052 7.52344 120.833 7.00586 121.741 6.64453C122.649 6.27344 123.65 6.08789 124.744 6.08789C125.506 6.08789 126.219 6.1416 126.883 6.24902C127.547 6.35645 128.182 6.53223 128.787 6.77637V9.20801C128.152 8.87598 127.503 8.63672 126.839 8.49023C126.185 8.33398 125.506 8.25586 124.803 8.25586C124.148 8.25586 123.528 8.38281 122.942 8.63672C122.366 8.88086 121.858 9.2373 121.419 9.70605C120.979 10.1748 120.633 10.7461 120.379 11.4199C120.125 12.0938 119.998 12.8555 119.998 13.7051C119.998 15.4824 120.428 16.8154 121.287 17.7041C122.156 18.583 123.357 19.0225 124.891 19.0225C125.584 19.0225 126.253 18.9443 126.897 18.7881C127.552 18.6318 128.182 18.3975 128.787 18.085V20.458ZM147.083 21H143.582L136.727 13.1191V21H134.178V0.301758H136.727V13.0166L143.333 6.29297H146.702L139.803 13.0752L147.083 21ZM162.2 20.7949C161.624 20.9414 161.028 21.0439 160.413 21.1025C159.798 21.1709 159.173 21.2051 158.538 21.2051C156.692 21.2051 155.315 20.79 154.407 19.96C153.499 19.1201 153.045 17.8359 153.045 16.1074V8.43164H148.929V6.29297H153.045V2.25L155.594 1.59082V6.29297H162.2V8.43164H155.594V15.9023C155.594 16.957 155.872 17.748 156.429 18.2754C156.995 18.793 157.825 19.0518 158.919 19.0518C159.388 19.0518 159.9 19.0176 160.457 18.9492C161.014 18.8711 161.595 18.7539 162.2 18.5977V20.7949ZM167.444 6.29297H169.773L169.847 9.00293C170.716 7.95801 171.57 7.20117 172.41 6.73242C173.26 6.26367 174.114 6.0293 174.974 6.0293C176.497 6.0293 177.649 6.52246 178.431 7.50879C179.222 8.49512 179.588 9.95996 179.529 11.9033H176.951C176.98 10.6143 176.79 9.68164 176.38 9.10547C175.979 8.51953 175.389 8.22656 174.607 8.22656C174.266 8.22656 173.919 8.29004 173.567 8.41699C173.226 8.53418 172.869 8.72949 172.498 9.00293C172.137 9.2666 171.751 9.6084 171.341 10.0283C170.931 10.4482 170.491 10.9561 170.022 11.5518V21H167.444V6.29297ZM192.786 21L192.728 19.0225C191.927 19.8135 191.111 20.3848 190.281 20.7363C189.461 21.0879 188.597 21.2637 187.688 21.2637C186.849 21.2637 186.131 21.1562 185.535 20.9414C184.939 20.7266 184.446 20.4336 184.056 20.0625C183.675 19.6816 183.392 19.2373 183.206 18.7295C183.03 18.2217 182.942 17.6699 182.942 17.0742C182.942 15.5996 183.489 14.4473 184.583 13.6172C185.687 12.7773 187.312 12.3574 189.461 12.3574H192.508V11.0684C192.508 10.1992 192.229 9.50586 191.673 8.98828C191.116 8.46094 190.267 8.19727 189.124 8.19727C188.294 8.19727 187.474 8.29004 186.663 8.47559C185.862 8.66113 185.032 8.9248 184.173 9.2666V6.9668C184.495 6.84961 184.852 6.7373 185.242 6.62988C185.643 6.5127 186.062 6.41016 186.502 6.32227C186.941 6.23438 187.4 6.16602 187.879 6.11719C188.357 6.05859 188.841 6.0293 189.329 6.0293C190.218 6.0293 191.019 6.12695 191.731 6.32227C192.444 6.51758 193.045 6.81543 193.533 7.21582C194.031 7.61621 194.412 8.11914 194.676 8.72461C194.939 9.33008 195.071 10.043 195.071 10.8633V21H192.786ZM192.508 14.3057H189.271C188.636 14.3057 188.089 14.3691 187.63 14.4961C187.171 14.623 186.795 14.8037 186.502 15.0381C186.209 15.2725 185.989 15.5557 185.843 15.8877C185.706 16.21 185.638 16.5762 185.638 16.9863C185.638 17.2695 185.682 17.543 185.77 17.8066C185.857 18.0605 185.999 18.29 186.194 18.4951C186.39 18.6904 186.644 18.8467 186.956 18.9639C187.269 19.0811 187.649 19.1396 188.099 19.1396C188.685 19.1396 189.354 18.9639 190.105 18.6123C190.867 18.251 191.668 17.6846 192.508 16.9131V14.3057ZM211.258 20.458C210.594 20.7119 209.91 20.8975 209.207 21.0146C208.514 21.1416 207.796 21.2051 207.054 21.2051C204.729 21.2051 202.938 20.5752 201.678 19.3154C200.428 18.0557 199.803 16.2148 199.803 13.793C199.803 12.6309 199.983 11.5762 200.345 10.6289C200.706 9.68164 201.214 8.87109 201.868 8.19727C202.522 7.52344 203.304 7.00586 204.212 6.64453C205.12 6.27344 206.121 6.08789 207.215 6.08789C207.977 6.08789 208.689 6.1416 209.354 6.24902C210.018 6.35645 210.652 6.53223 211.258 6.77637V9.20801C210.623 8.87598 209.974 8.63672 209.31 8.49023C208.655 8.33398 207.977 8.25586 207.273 8.25586C206.619 8.25586 205.999 8.38281 205.413 8.63672C204.837 8.88086 204.329 9.2373 203.89 9.70605C203.45 10.1748 203.104 10.7461 202.85 11.4199C202.596 12.0938 202.469 12.8555 202.469 13.7051C202.469 15.4824 202.898 16.8154 203.758 17.7041C204.627 18.583 205.828 19.0225 207.361 19.0225C208.055 19.0225 208.724 18.9443 209.368 18.7881C210.022 18.6318 210.652 18.3975 211.258 18.085V20.458ZM229.554 21H226.053L219.197 13.1191V21H216.648V0.301758H219.197V13.0166L225.804 6.29297H229.173L222.273 13.0752L229.554 21ZM238.724 6.0293C239.026 6.0293 239.314 6.09277 239.588 6.21973C239.861 6.33691 240.101 6.49805 240.306 6.70312C240.511 6.9082 240.672 7.14746 240.789 7.4209C240.916 7.69434 240.979 7.98242 240.979 8.28516C240.979 8.59766 240.916 8.89062 240.789 9.16406C240.672 9.42773 240.511 9.66211 240.306 9.86719C240.101 10.0723 239.861 10.2334 239.588 10.3506C239.314 10.4678 239.026 10.5264 238.724 10.5264C238.411 10.5264 238.118 10.4678 237.845 10.3506C237.581 10.2334 237.347 10.0723 237.142 9.86719C236.937 9.66211 236.775 9.42773 236.658 9.16406C236.541 8.89062 236.482 8.59766 236.482 8.28516C236.482 7.98242 236.541 7.69434 236.658 7.4209C236.775 7.14746 236.937 6.9082 237.142 6.70312C237.347 6.49805 237.581 6.33691 237.845 6.21973C238.118 6.09277 238.411 6.0293 238.724 6.0293ZM238.724 16.7666C239.026 16.7666 239.314 16.8301 239.588 16.957C239.861 17.0742 240.101 17.2354 240.306 17.4404C240.511 17.6455 240.672 17.8848 240.789 18.1582C240.916 18.4316 240.979 18.7197 240.979 19.0225C240.979 19.335 240.916 19.6279 240.789 19.9014C240.672 20.165 240.511 20.3994 240.306 20.6045C240.101 20.8096 239.861 20.9707 239.588 21.0879C239.314 21.2051 239.026 21.2637 238.724 21.2637C238.411 21.2637 238.118 21.2051 237.845 21.0879C237.581 20.9707 237.347 20.8096 237.142 20.6045C236.937 20.3994 236.775 20.165 236.658 19.9014C236.541 19.6279 236.482 19.335 236.482 19.0225C236.482 18.7197 236.541 18.4316 236.658 18.1582C236.775 17.8848 236.937 17.6455 237.142 17.4404C237.347 17.2354 237.581 17.0742 237.845 16.957C238.118 16.8301 238.411 16.7666 238.724 16.7666Z" fill="black"/>
<rect x="325" y="117" width="375" height="50" rx="10" fill="#EDEDED" stroke="#999999" stroke-width="2" stroke-dasharray="10 10"/>
<path d="M343.031 137.254H344.999L345.088 139.311C345.46 138.87 345.82 138.507 346.167 138.219C346.514 137.923 346.853 137.686 347.183 137.508C347.521 137.33 347.864 137.207 348.211 137.14C348.558 137.063 348.918 137.025 349.29 137.025C350.602 137.025 351.592 137.415 352.261 138.193C352.938 138.964 353.276 140.127 353.276 141.685V150H351.067V141.862C351.067 140.864 350.881 140.127 350.509 139.653C350.136 139.171 349.582 138.93 348.846 138.93C348.575 138.93 348.308 138.972 348.046 139.057C347.792 139.133 347.525 139.272 347.246 139.476C346.967 139.67 346.662 139.937 346.332 140.275C346.01 140.614 345.646 141.037 345.24 141.545V150H343.031V137.254ZM368.422 143.525C368.422 144.516 368.282 145.425 368.003 146.255C367.724 147.076 367.322 147.783 366.797 148.375C366.272 148.959 365.633 149.416 364.88 149.746C364.127 150.068 363.272 150.229 362.315 150.229C361.401 150.229 360.58 150.089 359.853 149.81C359.133 149.522 358.52 149.103 358.012 148.553C357.512 148.003 357.127 147.321 356.856 146.509C356.594 145.696 356.463 144.761 356.463 143.703C356.463 142.713 356.603 141.812 356.882 140.999C357.161 140.178 357.563 139.476 358.088 138.892C358.613 138.299 359.252 137.842 360.005 137.521C360.758 137.19 361.613 137.025 362.569 137.025C363.483 137.025 364.3 137.169 365.02 137.457C365.747 137.736 366.361 138.151 366.86 138.701C367.368 139.243 367.753 139.92 368.016 140.732C368.286 141.545 368.422 142.476 368.422 143.525ZM366.162 143.627C366.162 142.84 366.073 142.154 365.896 141.57C365.726 140.978 365.481 140.487 365.159 140.098C364.838 139.7 364.444 139.404 363.979 139.209C363.521 139.006 363.009 138.904 362.442 138.904C361.782 138.904 361.215 139.035 360.741 139.298C360.276 139.552 359.891 139.895 359.586 140.326C359.29 140.758 359.07 141.261 358.926 141.837C358.79 142.404 358.723 143.001 358.723 143.627C358.723 144.414 358.807 145.104 358.977 145.696C359.154 146.289 359.404 146.784 359.726 147.182C360.047 147.571 360.437 147.867 360.894 148.07C361.351 148.265 361.867 148.362 362.442 148.362C363.103 148.362 363.665 148.235 364.131 147.981C364.605 147.719 364.99 147.372 365.286 146.94C365.591 146.509 365.811 146.009 365.946 145.442C366.09 144.867 366.162 144.262 366.162 143.627ZM392.492 132.062L392.124 138.016H389.94L389.585 132.062H392.492ZM400.731 137.254H402.75L402.813 139.603C403.567 138.697 404.307 138.041 405.035 137.635C405.771 137.229 406.512 137.025 407.257 137.025C408.577 137.025 409.576 137.453 410.253 138.308C410.938 139.162 411.256 140.432 411.205 142.116H408.971C408.996 140.999 408.831 140.191 408.476 139.691C408.129 139.184 407.617 138.93 406.939 138.93C406.643 138.93 406.343 138.985 406.038 139.095C405.742 139.196 405.433 139.366 405.111 139.603C404.798 139.831 404.464 140.127 404.108 140.491C403.753 140.855 403.372 141.295 402.966 141.812V150H400.731V137.254ZM421.082 132.062L420.714 138.016H418.53L418.175 132.062H421.082ZM447.438 139.082H443.667V137.254H449.672V148.159H453.468V150H443.248V148.159H447.438V139.082ZM448.212 131.909C448.457 131.909 448.686 131.956 448.897 132.049C449.109 132.133 449.291 132.256 449.443 132.417C449.604 132.578 449.727 132.764 449.812 132.976C449.905 133.179 449.951 133.403 449.951 133.648C449.951 133.885 449.905 134.11 449.812 134.321C449.727 134.533 449.604 134.719 449.443 134.88C449.291 135.041 449.109 135.168 448.897 135.261C448.686 135.345 448.457 135.388 448.212 135.388C447.966 135.388 447.738 135.345 447.526 135.261C447.315 135.168 447.129 135.041 446.968 134.88C446.815 134.719 446.693 134.533 446.6 134.321C446.515 134.11 446.473 133.885 446.473 133.648C446.473 133.403 446.515 133.179 446.6 132.976C446.693 132.764 446.815 132.578 446.968 132.417C447.129 132.256 447.315 132.133 447.526 132.049C447.738 131.956 447.966 131.909 448.212 131.909ZM457.391 137.254H459.358L459.447 139.311C459.82 138.87 460.179 138.507 460.526 138.219C460.873 137.923 461.212 137.686 461.542 137.508C461.881 137.33 462.223 137.207 462.57 137.14C462.917 137.063 463.277 137.025 463.649 137.025C464.961 137.025 465.951 137.415 466.62 138.193C467.297 138.964 467.636 140.127 467.636 141.685V150H465.427V141.862C465.427 140.864 465.241 140.127 464.868 139.653C464.496 139.171 463.941 138.93 463.205 138.93C462.934 138.93 462.668 138.972 462.405 139.057C462.151 139.133 461.885 139.272 461.605 139.476C461.326 139.67 461.021 139.937 460.691 140.275C460.37 140.614 460.006 141.037 459.6 141.545V150H457.391V137.254ZM494.169 150L494.118 148.286C493.424 148.972 492.717 149.467 491.998 149.771C491.287 150.076 490.538 150.229 489.751 150.229C489.023 150.229 488.401 150.135 487.885 149.949C487.368 149.763 486.941 149.509 486.603 149.188C486.272 148.857 486.027 148.472 485.866 148.032C485.714 147.592 485.638 147.114 485.638 146.598C485.638 145.32 486.112 144.321 487.06 143.602C488.016 142.874 489.425 142.51 491.287 142.51H493.928V141.393C493.928 140.639 493.687 140.038 493.204 139.59C492.722 139.133 491.985 138.904 490.995 138.904C490.276 138.904 489.565 138.985 488.862 139.146C488.168 139.306 487.449 139.535 486.704 139.831V137.838C486.983 137.736 487.292 137.639 487.631 137.546C487.978 137.444 488.342 137.355 488.723 137.279C489.104 137.203 489.501 137.144 489.916 137.102C490.331 137.051 490.75 137.025 491.173 137.025C491.943 137.025 492.637 137.11 493.255 137.279C493.873 137.449 494.393 137.707 494.816 138.054C495.248 138.401 495.578 138.837 495.807 139.361C496.035 139.886 496.149 140.504 496.149 141.215V150H494.169ZM493.928 144.198H491.122C490.572 144.198 490.098 144.253 489.7 144.363C489.302 144.473 488.977 144.63 488.723 144.833C488.469 145.036 488.278 145.282 488.151 145.569C488.033 145.849 487.974 146.166 487.974 146.521C487.974 146.767 488.012 147.004 488.088 147.232C488.164 147.452 488.287 147.651 488.456 147.829C488.625 147.998 488.845 148.134 489.116 148.235C489.387 148.337 489.717 148.388 490.106 148.388C490.614 148.388 491.194 148.235 491.846 147.931C492.506 147.618 493.2 147.127 493.928 146.458V144.198ZM499.628 143.894C499.628 142.81 499.776 141.85 500.072 141.012C500.368 140.165 500.787 139.454 501.329 138.879C501.879 138.295 502.535 137.855 503.297 137.559C504.067 137.254 504.922 137.102 505.861 137.102C506.268 137.102 506.665 137.127 507.055 137.178C507.452 137.229 507.842 137.309 508.223 137.419V132.062H510.444V150H508.464L508.388 147.588C507.77 148.485 507.101 149.149 506.382 149.581C505.662 150.013 504.884 150.229 504.046 150.229C503.318 150.229 502.675 150.076 502.116 149.771C501.566 149.467 501.105 149.039 500.732 148.489C500.368 147.931 500.093 147.262 499.907 146.483C499.721 145.705 499.628 144.841 499.628 143.894ZM501.888 143.754C501.888 145.294 502.112 146.445 502.561 147.207C503.018 147.96 503.661 148.337 504.49 148.337C505.049 148.337 505.637 148.087 506.255 147.588C506.881 147.089 507.537 146.348 508.223 145.366V139.45C507.859 139.281 507.457 139.154 507.017 139.069C506.576 138.976 506.141 138.93 505.709 138.93C504.507 138.93 503.568 139.319 502.891 140.098C502.222 140.876 501.888 142.095 501.888 143.754ZM523.203 137.254V149.771C523.203 150.66 523.076 151.447 522.822 152.133C522.568 152.827 522.204 153.411 521.73 153.885C521.257 154.359 520.673 154.718 519.979 154.964C519.293 155.209 518.519 155.332 517.655 155.332C517.029 155.332 516.415 155.273 515.814 155.154C515.222 155.044 514.685 154.888 514.202 154.685V152.577C514.465 152.713 514.744 152.835 515.04 152.945C515.345 153.055 515.654 153.148 515.967 153.225C516.288 153.301 516.61 153.356 516.932 153.39C517.253 153.432 517.566 153.453 517.871 153.453C518.836 153.453 519.593 153.148 520.144 152.539C520.694 151.93 520.969 151.033 520.969 149.848V139.082H514.723V137.254H523.203ZM521.87 131.909C522.116 131.909 522.344 131.956 522.556 132.049C522.767 132.133 522.949 132.256 523.102 132.417C523.262 132.578 523.385 132.764 523.47 132.976C523.563 133.187 523.609 133.411 523.609 133.648C523.609 133.894 523.563 134.122 523.47 134.334C523.385 134.537 523.262 134.719 523.102 134.88C522.949 135.041 522.767 135.168 522.556 135.261C522.344 135.345 522.116 135.388 521.87 135.388C521.625 135.388 521.396 135.345 521.185 135.261C520.973 135.168 520.787 135.041 520.626 134.88C520.474 134.719 520.351 134.537 520.258 134.334C520.173 134.122 520.131 133.894 520.131 133.648C520.131 133.411 520.173 133.187 520.258 132.976C520.351 132.764 520.474 132.578 520.626 132.417C520.787 132.256 520.973 132.133 521.185 132.049C521.396 131.956 521.625 131.909 521.87 131.909ZM537.054 150L537.003 148.286C536.309 148.972 535.602 149.467 534.883 149.771C534.172 150.076 533.423 150.229 532.636 150.229C531.908 150.229 531.286 150.135 530.77 149.949C530.253 149.763 529.826 149.509 529.487 149.188C529.157 148.857 528.912 148.472 528.751 148.032C528.599 147.592 528.522 147.114 528.522 146.598C528.522 145.32 528.996 144.321 529.944 143.602C530.901 142.874 532.31 142.51 534.172 142.51H536.812V141.393C536.812 140.639 536.571 140.038 536.089 139.59C535.606 139.133 534.87 138.904 533.88 138.904C533.16 138.904 532.45 138.985 531.747 139.146C531.053 139.306 530.334 139.535 529.589 139.831V137.838C529.868 137.736 530.177 137.639 530.516 137.546C530.863 137.444 531.227 137.355 531.607 137.279C531.988 137.203 532.386 137.144 532.801 137.102C533.215 137.051 533.634 137.025 534.058 137.025C534.828 137.025 535.522 137.11 536.14 137.279C536.757 137.449 537.278 137.707 537.701 138.054C538.133 138.401 538.463 138.837 538.691 139.361C538.92 139.886 539.034 140.504 539.034 141.215V150H537.054ZM536.812 144.198H534.007C533.457 144.198 532.983 144.253 532.585 144.363C532.187 144.473 531.861 144.63 531.607 144.833C531.354 145.036 531.163 145.282 531.036 145.569C530.918 145.849 530.858 146.166 530.858 146.521C530.858 146.767 530.896 147.004 530.973 147.232C531.049 147.452 531.172 147.651 531.341 147.829C531.51 147.998 531.73 148.134 532.001 148.235C532.272 148.337 532.602 148.388 532.991 148.388C533.499 148.388 534.079 148.235 534.73 147.931C535.391 147.618 536.085 147.127 536.812 146.458V144.198ZM553.062 149.53C552.487 149.75 551.895 149.911 551.285 150.013C550.684 150.123 550.062 150.178 549.419 150.178C547.405 150.178 545.852 149.632 544.76 148.54C543.676 147.448 543.135 145.853 543.135 143.754C543.135 142.747 543.291 141.833 543.604 141.012C543.918 140.191 544.358 139.488 544.925 138.904C545.492 138.32 546.169 137.872 546.956 137.559C547.743 137.237 548.611 137.076 549.559 137.076C550.219 137.076 550.837 137.123 551.412 137.216C551.988 137.309 552.538 137.461 553.062 137.673V139.78C552.512 139.493 551.95 139.285 551.374 139.158C550.807 139.023 550.219 138.955 549.609 138.955C549.042 138.955 548.505 139.065 547.997 139.285C547.498 139.497 547.058 139.806 546.677 140.212C546.296 140.618 545.995 141.113 545.775 141.697C545.555 142.281 545.445 142.941 545.445 143.678C545.445 145.218 545.818 146.373 546.562 147.144C547.316 147.905 548.357 148.286 549.686 148.286C550.286 148.286 550.866 148.218 551.425 148.083C551.992 147.948 552.538 147.744 553.062 147.474V149.53ZM568.221 142.954C568.221 143.267 568.216 143.53 568.208 143.741C568.2 143.953 568.187 144.152 568.17 144.338H559.22C559.22 145.641 559.584 146.644 560.312 147.347C561.039 148.041 562.089 148.388 563.46 148.388C563.832 148.388 564.205 148.375 564.577 148.35C564.95 148.316 565.309 148.273 565.656 148.223C566.003 148.172 566.333 148.117 566.646 148.058C566.968 147.99 567.264 147.918 567.535 147.842V149.657C566.934 149.826 566.253 149.962 565.491 150.063C564.738 150.174 563.955 150.229 563.143 150.229C562.051 150.229 561.111 150.08 560.324 149.784C559.537 149.488 558.89 149.061 558.382 148.502C557.882 147.935 557.51 147.245 557.265 146.433C557.028 145.612 556.909 144.685 556.909 143.652C556.909 142.755 557.036 141.909 557.29 141.113C557.552 140.309 557.929 139.607 558.42 139.006C558.919 138.396 559.529 137.914 560.248 137.559C560.967 137.203 561.784 137.025 562.698 137.025C563.587 137.025 564.374 137.165 565.06 137.444C565.745 137.724 566.321 138.121 566.786 138.638C567.26 139.146 567.616 139.768 567.853 140.504C568.098 141.232 568.221 142.049 568.221 142.954ZM565.923 142.637C565.948 142.07 565.893 141.553 565.758 141.088C565.622 140.614 565.411 140.208 565.123 139.869C564.844 139.531 564.493 139.268 564.069 139.082C563.646 138.887 563.155 138.79 562.597 138.79C562.114 138.79 561.674 138.883 561.276 139.069C560.879 139.256 560.536 139.518 560.248 139.856C559.96 140.195 559.728 140.601 559.55 141.075C559.372 141.549 559.262 142.07 559.22 142.637H565.923ZM571.75 137.254H573.718L573.807 139.311C574.179 138.87 574.539 138.507 574.886 138.219C575.233 137.923 575.571 137.686 575.901 137.508C576.24 137.33 576.583 137.207 576.93 137.14C577.277 137.063 577.636 137.025 578.009 137.025C579.321 137.025 580.311 137.415 580.979 138.193C581.657 138.964 581.995 140.127 581.995 141.685V150H579.786V141.862C579.786 140.864 579.6 140.127 579.228 139.653C578.855 139.171 578.301 138.93 577.564 138.93C577.294 138.93 577.027 138.972 576.765 139.057C576.511 139.133 576.244 139.272 575.965 139.476C575.686 139.67 575.381 139.937 575.051 140.275C574.729 140.614 574.365 141.037 573.959 141.545V150H571.75V137.254ZM596.315 149.822C595.816 149.949 595.3 150.038 594.767 150.089C594.233 150.148 593.692 150.178 593.142 150.178C591.542 150.178 590.349 149.818 589.562 149.099C588.774 148.371 588.381 147.258 588.381 145.76V139.107H584.813V137.254H588.381V133.75L590.59 133.179V137.254H596.315V139.107H590.59V145.582C590.59 146.496 590.831 147.182 591.313 147.639C591.804 148.087 592.524 148.312 593.472 148.312C593.878 148.312 594.322 148.282 594.805 148.223C595.287 148.155 595.791 148.053 596.315 147.918V149.822ZM624.537 149.53C623.962 149.75 623.369 149.911 622.76 150.013C622.159 150.123 621.537 150.178 620.894 150.178C618.879 150.178 617.326 149.632 616.234 148.54C615.151 147.448 614.609 145.853 614.609 143.754C614.609 142.747 614.766 141.833 615.079 141.012C615.392 140.191 615.832 139.488 616.399 138.904C616.966 138.32 617.644 137.872 618.431 137.559C619.218 137.237 620.085 137.076 621.033 137.076C621.693 137.076 622.311 137.123 622.887 137.216C623.462 137.309 624.012 137.461 624.537 137.673V139.78C623.987 139.493 623.424 139.285 622.849 139.158C622.282 139.023 621.693 138.955 621.084 138.955C620.517 138.955 619.979 139.065 619.472 139.285C618.972 139.497 618.532 139.806 618.151 140.212C617.771 140.618 617.47 141.113 617.25 141.697C617.03 142.281 616.92 142.941 616.92 143.678C616.92 145.218 617.292 146.373 618.037 147.144C618.79 147.905 619.831 148.286 621.16 148.286C621.761 148.286 622.341 148.218 622.899 148.083C623.466 147.948 624.012 147.744 624.537 147.474V149.53ZM639.695 142.954C639.695 143.267 639.691 143.53 639.683 143.741C639.674 143.953 639.661 144.152 639.645 144.338H630.694C630.694 145.641 631.058 146.644 631.786 147.347C632.514 148.041 633.563 148.388 634.935 148.388C635.307 148.388 635.679 148.375 636.052 148.35C636.424 148.316 636.784 148.273 637.131 148.223C637.478 148.172 637.808 148.117 638.121 148.058C638.443 147.99 638.739 147.918 639.01 147.842V149.657C638.409 149.826 637.728 149.962 636.966 150.063C636.213 150.174 635.43 150.229 634.617 150.229C633.525 150.229 632.586 150.08 631.799 149.784C631.012 149.488 630.364 149.061 629.856 148.502C629.357 147.935 628.985 147.245 628.739 146.433C628.502 145.612 628.384 144.685 628.384 143.652C628.384 142.755 628.511 141.909 628.765 141.113C629.027 140.309 629.404 139.607 629.895 139.006C630.394 138.396 631.003 137.914 631.723 137.559C632.442 137.203 633.259 137.025 634.173 137.025C635.062 137.025 635.849 137.165 636.534 137.444C637.22 137.724 637.795 138.121 638.261 138.638C638.735 139.146 639.09 139.768 639.327 140.504C639.573 141.232 639.695 142.049 639.695 142.954ZM637.397 142.637C637.423 142.07 637.368 141.553 637.232 141.088C637.097 140.614 636.885 140.208 636.598 139.869C636.318 139.531 635.967 139.268 635.544 139.082C635.121 138.887 634.63 138.79 634.071 138.79C633.589 138.79 633.149 138.883 632.751 139.069C632.353 139.256 632.01 139.518 631.723 139.856C631.435 140.195 631.202 140.601 631.024 141.075C630.847 141.549 630.737 142.07 630.694 142.637H637.397ZM647.566 133.877H643.796V132.062H649.801V148.159H653.597V150H643.377V148.159H647.566V133.877ZM661.861 133.877H658.091V132.062H664.096V148.159H667.892V150H657.672V148.159H661.861V133.877ZM681.907 146.521C681.907 146.97 681.831 147.372 681.679 147.728C681.526 148.083 681.319 148.4 681.057 148.68C680.794 148.951 680.49 149.183 680.143 149.378C679.796 149.573 679.423 149.733 679.025 149.86C678.636 149.987 678.234 150.08 677.819 150.14C677.405 150.199 676.998 150.229 676.601 150.229C675.737 150.229 674.942 150.19 674.214 150.114C673.494 150.038 672.788 149.915 672.094 149.746V147.715C672.839 147.926 673.579 148.087 674.315 148.197C675.052 148.307 675.784 148.362 676.512 148.362C677.57 148.362 678.353 148.218 678.86 147.931C679.368 147.643 679.622 147.232 679.622 146.699C679.622 146.471 679.58 146.268 679.495 146.09C679.419 145.904 679.275 145.73 679.063 145.569C678.852 145.4 678.522 145.227 678.073 145.049C677.633 144.871 677.028 144.668 676.258 144.439C675.682 144.27 675.149 144.08 674.658 143.868C674.176 143.648 673.757 143.39 673.401 143.094C673.046 142.798 672.767 142.451 672.563 142.053C672.36 141.655 672.259 141.185 672.259 140.644C672.259 140.288 672.339 139.899 672.5 139.476C672.669 139.052 672.953 138.659 673.351 138.295C673.748 137.931 674.286 137.631 674.963 137.394C675.64 137.148 676.486 137.025 677.502 137.025C678.001 137.025 678.556 137.055 679.165 137.114C679.774 137.165 680.409 137.258 681.069 137.394V139.361C680.375 139.192 679.715 139.069 679.089 138.993C678.471 138.909 677.934 138.866 677.477 138.866C676.926 138.866 676.461 138.909 676.08 138.993C675.708 139.078 675.403 139.196 675.166 139.349C674.938 139.493 674.772 139.666 674.671 139.869C674.569 140.064 674.519 140.275 674.519 140.504C674.519 140.732 674.561 140.94 674.646 141.126C674.739 141.312 674.904 141.494 675.141 141.672C675.386 141.841 675.725 142.015 676.156 142.192C676.588 142.362 677.151 142.548 677.845 142.751C678.598 142.971 679.233 143.204 679.749 143.449C680.265 143.686 680.684 143.953 681.006 144.249C681.327 144.545 681.556 144.88 681.691 145.252C681.835 145.624 681.907 146.048 681.907 146.521Z" fill="black"/>
</g>
<defs>
<filter id="filter0_d_6290_1931" x="38" y="82.7724" width="125" height="37.4558" filterUnits="userSpaceOnUse" color-interpolation-filters="sRGB">
<feFlood flood-opacity="0" result="BackgroundImageFix"/>
<feColorMatrix in="SourceAlpha" type="matrix" values="0 0 0 0 0 0 0 0 0 0 0 0 0 0 0 0 0 0 127 0" result="hardAlpha"/>
<feOffset dy="4"/>
<feGaussianBlur stdDeviation="2"/>
<feComposite in2="hardAlpha" operator="out"/>
<feColorMatrix type="matrix" values="0 0 0 0 0 0 0 0 0 0 0 0 0 0 0 0 0 0 0.25 0"/>
<feBlend mode="normal" in2="BackgroundImageFix" result="effect1_dropShadow_6290_1931"/>
<feBlend mode="normal" in="SourceGraphic" in2="effect1_dropShadow_6290_1931" result="shape"/>
</filter>
<filter id="filter1_d_6290_1931" x="26" y="90.5" width="21" height="21" filterUnits="userSpaceOnUse" color-interpolation-filters="sRGB">
<feFlood flood-opacity="0" result="BackgroundImageFix"/>
<feColorMatrix in="SourceAlpha" type="matrix" values="0 0 0 0 0 0 0 0 0 0 0 0 0 0 0 0 0 0 127 0" result="hardAlpha"/>
<feOffset dy="4"/>
<feGaussianBlur stdDeviation="2"/>
<feComposite in2="hardAlpha" operator="out"/>
<feColorMatrix type="matrix" values="0 0 0 0 0 0 0 0 0 0 0 0 0 0 0 0 0 0 0.25 0"/>
<feBlend mode="normal" in2="BackgroundImageFix" result="effect1_dropShadow_6290_1931"/>
<feBlend mode="normal" in="SourceGraphic" in2="effect1_dropShadow_6290_1931" result="shape"/>
</filter>
<clipPath id="clip0_6290_1931">
<rect width="702" height="246" fill="white"/>
</clipPath>
</defs>
</svg>
