<svg width="924" height="185" viewBox="0 0 924 185" fill="none" xmlns="http://www.w3.org/2000/svg">
<g clip-path="url(#clip0_6288_2579)">
<rect width="924" height="185" fill="white"/>
<rect x="78" y="61" width="28" height="28" rx="6" stroke="black" stroke-width="2"/>
<path d="M91.4043 72.6016H88.5039V71.1953H93.123V79.584H96.043V81H88.1816V79.584H91.4043V72.6016ZM92 67.084C92.1888 67.084 92.3646 67.1198 92.5273 67.1914C92.6901 67.2565 92.8301 67.3509 92.9473 67.4746C93.071 67.5983 93.1654 67.7415 93.2305 67.9043C93.3021 68.0605 93.3379 68.2331 93.3379 68.4219C93.3379 68.6042 93.3021 68.7767 93.2305 68.9395C93.1654 69.1022 93.071 69.2454 92.9473 69.3691C92.8301 69.4928 92.6901 69.5905 92.5273 69.6621C92.3646 69.7272 92.1888 69.7598 92 69.7598C91.8112 69.7598 91.6354 69.7272 91.4727 69.6621C91.3099 69.5905 91.1667 69.4928 91.043 69.3691C90.9258 69.2454 90.8314 69.1022 90.7598 68.9395C90.6947 68.7767 90.6621 68.6042 90.6621 68.4219C90.6621 68.2331 90.6947 68.0605 90.7598 67.9043C90.8314 67.7415 90.9258 67.5983 91.043 67.4746C91.1667 67.3509 91.3099 67.2565 91.4727 67.1914C91.6354 67.1198 91.8112 67.084 92 67.084Z" fill="black"/>
<path d="M91.2929 117.707C91.6834 118.098 92.3166 118.098 92.7071 117.707L99.0711 111.343C99.4616 110.953 99.4616 110.319 99.0711 109.929C98.6805 109.538 98.0474 109.538 97.6569 109.929L92 115.586L86.3431 109.929C85.9526 109.538 85.3195 109.538 84.9289 109.929C84.5384 110.319 84.5384 110.953 84.9289 111.343L91.2929 117.707ZM91 90L91 117L93 117L93 90L91 90Z" fill="black"/>
<rect x="595" y="78" width="326" height="69" rx="10" fill="#EDEDED" stroke="#999999" stroke-width="2" stroke-dasharray="10 10"/>
<path d="M625.266 107V98.5508C625.266 98.1836 625.25 97.8828 625.219 97.6484C625.195 97.4141 625.152 97.2305 625.09 97.0977C625.035 96.957 624.961 96.8594 624.867 96.8047C624.781 96.75 624.672 96.7227 624.539 96.7227C624.383 96.7227 624.238 96.7695 624.105 96.8633C623.973 96.957 623.828 97.1094 623.672 97.3203C623.523 97.5312 623.355 97.8125 623.168 98.1641C622.988 98.5078 622.773 98.9336 622.523 99.4414V107H620.66V98.7734C620.66 98.3438 620.645 97.9961 620.613 97.7305C620.59 97.4648 620.547 97.2578 620.484 97.1094C620.43 96.9609 620.355 96.8594 620.262 96.8047C620.168 96.75 620.055 96.7227 619.922 96.7227C619.781 96.7227 619.648 96.7617 619.523 96.8398C619.398 96.918 619.258 97.0586 619.102 97.2617C618.953 97.4648 618.785 97.7422 618.598 98.0938C618.41 98.4453 618.188 98.8945 617.93 99.4414V107H616.055V95.2344H617.613L617.707 97.4727C617.91 97.0273 618.105 96.6484 618.293 96.3359C618.488 96.0234 618.688 95.7734 618.891 95.5859C619.094 95.3906 619.309 95.25 619.535 95.1641C619.77 95.0703 620.027 95.0234 620.309 95.0234C620.941 95.0234 621.422 95.2305 621.75 95.6445C622.078 96.0586 622.242 96.6992 622.242 97.5664C622.43 97.1602 622.613 96.8008 622.793 96.4883C622.973 96.168 623.164 95.9023 623.367 95.6914C623.578 95.4727 623.809 95.3086 624.059 95.1992C624.309 95.082 624.598 95.0234 624.926 95.0234C626.402 95.0234 627.141 96.1602 627.141 98.4336V107H625.266ZM634.078 96.9219H630.598V95.2344H636.141V105.301H639.645V107H630.211V105.301H634.078V96.9219ZM634.793 90.3008C635.02 90.3008 635.23 90.3438 635.426 90.4297C635.621 90.5078 635.789 90.6211 635.93 90.7695C636.078 90.918 636.191 91.0898 636.27 91.2852C636.355 91.4727 636.398 91.6797 636.398 91.9062C636.398 92.125 636.355 92.332 636.27 92.5273C636.191 92.7227 636.078 92.8945 635.93 93.043C635.789 93.1914 635.621 93.3086 635.426 93.3945C635.23 93.4727 635.02 93.5117 634.793 93.5117C634.566 93.5117 634.355 93.4727 634.16 93.3945C633.965 93.3086 633.793 93.1914 633.645 93.043C633.504 92.8945 633.391 92.7227 633.305 92.5273C633.227 92.332 633.188 92.125 633.188 91.9062C633.188 91.6797 633.227 91.4727 633.305 91.2852C633.391 91.0898 633.504 90.918 633.645 90.7695C633.793 90.6211 633.965 90.5078 634.16 90.4297C634.355 90.3438 634.566 90.3008 634.793 90.3008ZM643.266 95.2344H645.082L645.164 97.1328C645.508 96.7266 645.84 96.3906 646.16 96.125C646.48 95.8516 646.793 95.6328 647.098 95.4688C647.41 95.3047 647.727 95.1914 648.047 95.1289C648.367 95.0586 648.699 95.0234 649.043 95.0234C650.254 95.0234 651.168 95.3828 651.785 96.1016C652.41 96.8125 652.723 97.8867 652.723 99.3242V107H650.684V99.4883C650.684 98.5664 650.512 97.8867 650.168 97.4492C649.824 97.0039 649.312 96.7812 648.633 96.7812C648.383 96.7812 648.137 96.8203 647.895 96.8984C647.66 96.9688 647.414 97.0977 647.156 97.2852C646.898 97.4648 646.617 97.7109 646.312 98.0234C646.016 98.3359 645.68 98.7266 645.305 99.1953V107H643.266V95.2344ZM667.781 111.805H654.586V110.117H667.781V111.805ZM679.113 107H677.074V99.4883C677.074 98.582 676.902 97.9062 676.559 97.4609C676.223 97.0078 675.738 96.7812 675.105 96.7812C674.832 96.7812 674.574 96.8203 674.332 96.8984C674.098 96.9688 673.852 97.0977 673.594 97.2852C673.336 97.4648 673.055 97.7109 672.75 98.0234C672.445 98.3359 672.094 98.7266 671.695 99.1953V107H669.656V90.4414H671.695V95.2344L671.625 97.0859C671.945 96.7031 672.258 96.3828 672.562 96.125C672.875 95.8594 673.184 95.6445 673.488 95.4805C673.801 95.3164 674.117 95.1992 674.438 95.1289C674.758 95.0586 675.09 95.0234 675.434 95.0234C676.605 95.0234 677.512 95.3828 678.152 96.1016C678.793 96.8125 679.113 97.8867 679.113 99.3242V107ZM692.789 100.496C692.789 100.785 692.785 101.027 692.777 101.223C692.77 101.418 692.758 101.602 692.742 101.773H684.48C684.48 102.977 684.816 103.902 685.488 104.551C686.16 105.191 687.129 105.512 688.395 105.512C688.738 105.512 689.082 105.5 689.426 105.477C689.77 105.445 690.102 105.406 690.422 105.359C690.742 105.312 691.047 105.262 691.336 105.207C691.633 105.145 691.906 105.078 692.156 105.008V106.684C691.602 106.84 690.973 106.965 690.27 107.059C689.574 107.16 688.852 107.211 688.102 107.211C687.094 107.211 686.227 107.074 685.5 106.801C684.773 106.527 684.176 106.133 683.707 105.617C683.246 105.094 682.902 104.457 682.676 103.707C682.457 102.949 682.348 102.094 682.348 101.141C682.348 100.312 682.465 99.5312 682.699 98.7969C682.941 98.0547 683.289 97.4062 683.742 96.8516C684.203 96.2891 684.766 95.8438 685.43 95.5156C686.094 95.1875 686.848 95.0234 687.691 95.0234C688.512 95.0234 689.238 95.1523 689.871 95.4102C690.504 95.668 691.035 96.0352 691.465 96.5117C691.902 96.9805 692.23 97.5547 692.449 98.2344C692.676 98.9062 692.789 99.6602 692.789 100.496ZM690.668 100.203C690.691 99.6797 690.641 99.2031 690.516 98.7734C690.391 98.3359 690.195 97.9609 689.93 97.6484C689.672 97.3359 689.348 97.0938 688.957 96.9219C688.566 96.7422 688.113 96.6523 687.598 96.6523C687.152 96.6523 686.746 96.7383 686.379 96.9102C686.012 97.082 685.695 97.3242 685.43 97.6367C685.164 97.9492 684.949 98.3242 684.785 98.7617C684.621 99.1992 684.52 99.6797 684.48 100.203H690.668ZM703.605 107L703.559 105.418C702.918 106.051 702.266 106.508 701.602 106.789C700.945 107.07 700.254 107.211 699.527 107.211C698.855 107.211 698.281 107.125 697.805 106.953C697.328 106.781 696.934 106.547 696.621 106.25C696.316 105.945 696.09 105.59 695.941 105.184C695.801 104.777 695.73 104.336 695.73 103.859C695.73 102.68 696.168 101.758 697.043 101.094C697.926 100.422 699.227 100.086 700.945 100.086H703.383V99.0547C703.383 98.3594 703.16 97.8047 702.715 97.3906C702.27 96.9688 701.59 96.7578 700.676 96.7578C700.012 96.7578 699.355 96.832 698.707 96.9805C698.066 97.1289 697.402 97.3398 696.715 97.6133V95.7734C696.973 95.6797 697.258 95.5898 697.57 95.5039C697.891 95.4102 698.227 95.3281 698.578 95.2578C698.93 95.1875 699.297 95.1328 699.68 95.0938C700.062 95.0469 700.449 95.0234 700.84 95.0234C701.551 95.0234 702.191 95.1016 702.762 95.2578C703.332 95.4141 703.812 95.6523 704.203 95.9727C704.602 96.293 704.906 96.6953 705.117 97.1797C705.328 97.6641 705.434 98.2344 705.434 98.8906V107H703.605ZM703.383 101.645H700.793C700.285 101.645 699.848 101.695 699.48 101.797C699.113 101.898 698.812 102.043 698.578 102.23C698.344 102.418 698.168 102.645 698.051 102.91C697.941 103.168 697.887 103.461 697.887 103.789C697.887 104.016 697.922 104.234 697.992 104.445C698.062 104.648 698.176 104.832 698.332 104.996C698.488 105.152 698.691 105.277 698.941 105.371C699.191 105.465 699.496 105.512 699.855 105.512C700.324 105.512 700.859 105.371 701.461 105.09C702.07 104.801 702.711 104.348 703.383 103.73V101.645ZM719.297 100.906C719.297 101.953 719.148 102.867 718.852 103.648C718.562 104.43 718.16 105.078 717.645 105.594C717.129 106.109 716.52 106.496 715.816 106.754C715.113 107.012 714.352 107.141 713.531 107.141C713.156 107.141 712.781 107.121 712.406 107.082C712.039 107.043 711.664 106.977 711.281 106.883V111.805H709.242V95.2344H711.059L711.188 97.2031C711.773 96.3984 712.398 95.8359 713.062 95.5156C713.727 95.1875 714.445 95.0234 715.219 95.0234C715.891 95.0234 716.48 95.1641 716.988 95.4453C717.496 95.7266 717.922 96.125 718.266 96.6406C718.609 97.1484 718.867 97.7656 719.039 98.4922C719.211 99.2109 719.297 100.016 719.297 100.906ZM717.211 101C717.211 100.383 717.164 99.8164 717.07 99.3008C716.984 98.7852 716.844 98.3438 716.648 97.9766C716.453 97.6094 716.203 97.3242 715.898 97.1211C715.594 96.9102 715.23 96.8047 714.809 96.8047C714.551 96.8047 714.289 96.8477 714.023 96.9336C713.758 97.0117 713.48 97.1484 713.191 97.3438C712.91 97.5312 712.609 97.7852 712.289 98.1055C711.977 98.418 711.641 98.8086 711.281 99.2773V104.984C711.656 105.141 712.051 105.266 712.465 105.359C712.879 105.445 713.285 105.488 713.684 105.488C714.785 105.488 715.648 105.117 716.273 104.375C716.898 103.625 717.211 102.5 717.211 101ZM727.066 103.309C727.332 103.309 727.582 103.359 727.816 103.461C728.059 103.562 728.266 103.703 728.438 103.883C728.617 104.062 728.758 104.273 728.859 104.516C728.961 104.75 729.012 105.004 729.012 105.277C729.012 105.543 728.961 105.793 728.859 106.027C728.758 106.262 728.617 106.469 728.438 106.648C728.266 106.82 728.059 106.957 727.816 107.059C727.582 107.16 727.332 107.211 727.066 107.211C726.793 107.211 726.539 107.16 726.305 107.059C726.07 106.957 725.863 106.82 725.684 106.648C725.512 106.469 725.375 106.262 725.273 106.027C725.172 105.793 725.121 105.543 725.121 105.277C725.121 105.004 725.172 104.75 725.273 104.516C725.375 104.273 725.512 104.062 725.684 103.883C725.863 103.703 726.07 103.562 726.305 103.461C726.539 103.359 726.793 103.309 727.066 103.309ZM745.688 100.906C745.688 101.953 745.539 102.867 745.242 103.648C744.953 104.43 744.551 105.078 744.035 105.594C743.52 106.109 742.91 106.496 742.207 106.754C741.504 107.012 740.742 107.141 739.922 107.141C739.547 107.141 739.172 107.121 738.797 107.082C738.43 107.043 738.055 106.977 737.672 106.883V111.805H735.633V95.2344H737.449L737.578 97.2031C738.164 96.3984 738.789 95.8359 739.453 95.5156C740.117 95.1875 740.836 95.0234 741.609 95.0234C742.281 95.0234 742.871 95.1641 743.379 95.4453C743.887 95.7266 744.312 96.125 744.656 96.6406C745 97.1484 745.258 97.7656 745.43 98.4922C745.602 99.2109 745.688 100.016 745.688 100.906ZM743.602 101C743.602 100.383 743.555 99.8164 743.461 99.3008C743.375 98.7852 743.234 98.3438 743.039 97.9766C742.844 97.6094 742.594 97.3242 742.289 97.1211C741.984 96.9102 741.621 96.8047 741.199 96.8047C740.941 96.8047 740.68 96.8477 740.414 96.9336C740.148 97.0117 739.871 97.1484 739.582 97.3438C739.301 97.5312 739 97.7852 738.68 98.1055C738.367 98.418 738.031 98.8086 737.672 99.2773V104.984C738.047 105.141 738.441 105.266 738.855 105.359C739.27 105.445 739.676 105.488 740.074 105.488C741.176 105.488 742.039 105.117 742.664 104.375C743.289 103.625 743.602 102.5 743.602 101ZM758.285 107H756.457L756.387 105.102C756.035 105.508 755.699 105.848 755.379 106.121C755.066 106.387 754.754 106.602 754.441 106.766C754.129 106.93 753.812 107.043 753.492 107.105C753.18 107.176 752.848 107.211 752.496 107.211C751.285 107.211 750.371 106.855 749.754 106.145C749.137 105.434 748.828 104.359 748.828 102.922V95.2344H750.867V102.758C750.867 104.562 751.547 105.465 752.906 105.465C753.156 105.465 753.398 105.43 753.633 105.359C753.875 105.281 754.125 105.152 754.383 104.973C754.648 104.785 754.93 104.535 755.227 104.223C755.531 103.91 755.871 103.516 756.246 103.039V95.2344H758.285V107ZM771.34 103.789C771.34 104.203 771.27 104.574 771.129 104.902C770.988 105.23 770.797 105.523 770.555 105.781C770.312 106.031 770.031 106.246 769.711 106.426C769.391 106.605 769.047 106.754 768.68 106.871C768.32 106.988 767.949 107.074 767.566 107.129C767.184 107.184 766.809 107.211 766.441 107.211C765.645 107.211 764.91 107.176 764.238 107.105C763.574 107.035 762.922 106.922 762.281 106.766V104.891C762.969 105.086 763.652 105.234 764.332 105.336C765.012 105.438 765.688 105.488 766.359 105.488C767.336 105.488 768.059 105.355 768.527 105.09C768.996 104.824 769.23 104.445 769.23 103.953C769.23 103.742 769.191 103.555 769.113 103.391C769.043 103.219 768.91 103.059 768.715 102.91C768.52 102.754 768.215 102.594 767.801 102.43C767.395 102.266 766.836 102.078 766.125 101.867C765.594 101.711 765.102 101.535 764.648 101.34C764.203 101.137 763.816 100.898 763.488 100.625C763.16 100.352 762.902 100.031 762.715 99.6641C762.527 99.2969 762.434 98.8633 762.434 98.3633C762.434 98.0352 762.508 97.6758 762.656 97.2852C762.812 96.8945 763.074 96.5312 763.441 96.1953C763.809 95.8594 764.305 95.582 764.93 95.3633C765.555 95.1367 766.336 95.0234 767.273 95.0234C767.734 95.0234 768.246 95.0508 768.809 95.1055C769.371 95.1523 769.957 95.2383 770.566 95.3633V97.1797C769.926 97.0234 769.316 96.9102 768.738 96.8398C768.168 96.7617 767.672 96.7227 767.25 96.7227C766.742 96.7227 766.312 96.7617 765.961 96.8398C765.617 96.918 765.336 97.0273 765.117 97.168C764.906 97.3008 764.754 97.4609 764.66 97.6484C764.566 97.8281 764.52 98.0234 764.52 98.2344C764.52 98.4453 764.559 98.6367 764.637 98.8086C764.723 98.9805 764.875 99.1484 765.094 99.3125C765.32 99.4688 765.633 99.6289 766.031 99.793C766.43 99.9492 766.949 100.121 767.59 100.309C768.285 100.512 768.871 100.727 769.348 100.953C769.824 101.172 770.211 101.418 770.508 101.691C770.805 101.965 771.016 102.273 771.141 102.617C771.273 102.961 771.34 103.352 771.34 103.789ZM784.676 107H782.637V99.4883C782.637 98.582 782.465 97.9062 782.121 97.4609C781.785 97.0078 781.301 96.7812 780.668 96.7812C780.395 96.7812 780.137 96.8203 779.895 96.8984C779.66 96.9688 779.414 97.0977 779.156 97.2852C778.898 97.4648 778.617 97.7109 778.312 98.0234C778.008 98.3359 777.656 98.7266 777.258 99.1953V107H775.219V90.4414H777.258V95.2344L777.188 97.0859C777.508 96.7031 777.82 96.3828 778.125 96.125C778.438 95.8594 778.746 95.6445 779.051 95.4805C779.363 95.3164 779.68 95.1992 780 95.1289C780.32 95.0586 780.652 95.0234 780.996 95.0234C782.168 95.0234 783.074 95.3828 783.715 96.1016C784.355 96.8125 784.676 97.8867 784.676 99.3242V107ZM795.457 111.922C791.855 108.586 790.055 104.898 790.055 100.859C790.055 99.9141 790.148 98.9727 790.336 98.0352C790.531 97.0898 790.84 96.1445 791.262 95.1992C791.691 94.2539 792.254 93.3086 792.949 92.3633C793.652 91.418 794.504 90.4805 795.504 89.5508L796.688 90.7578C793.656 93.75 792.141 97.0664 792.141 100.707C792.141 102.52 792.523 104.262 793.289 105.934C794.055 107.605 795.188 109.184 796.688 110.668L795.457 111.922ZM801.609 95.2344H803.426L803.508 97.1328C803.852 96.7266 804.184 96.3906 804.504 96.125C804.824 95.8516 805.137 95.6328 805.441 95.4688C805.754 95.3047 806.07 95.1914 806.391 95.1289C806.711 95.0586 807.043 95.0234 807.387 95.0234C808.598 95.0234 809.512 95.3828 810.129 96.1016C810.754 96.8125 811.066 97.8867 811.066 99.3242V107H809.027V99.4883C809.027 98.5664 808.855 97.8867 808.512 97.4492C808.168 97.0039 807.656 96.7812 806.977 96.7812C806.727 96.7812 806.48 96.8203 806.238 96.8984C806.004 96.9688 805.758 97.0977 805.5 97.2852C805.242 97.4648 804.961 97.7109 804.656 98.0234C804.359 98.3359 804.023 98.7266 803.648 99.1953V107H801.609V95.2344ZM824.262 107H822.434L822.363 105.102C822.012 105.508 821.676 105.848 821.355 106.121C821.043 106.387 820.73 106.602 820.418 106.766C820.105 106.93 819.789 107.043 819.469 107.105C819.156 107.176 818.824 107.211 818.473 107.211C817.262 107.211 816.348 106.855 815.73 106.145C815.113 105.434 814.805 104.359 814.805 102.922V95.2344H816.844V102.758C816.844 104.562 817.523 105.465 818.883 105.465C819.133 105.465 819.375 105.43 819.609 105.359C819.852 105.281 820.102 105.152 820.359 104.973C820.625 104.785 820.906 104.535 821.203 104.223C821.508 103.91 821.848 103.516 822.223 103.039V95.2344H824.262V107ZM836.391 107V98.5508C836.391 98.1836 836.375 97.8828 836.344 97.6484C836.32 97.4141 836.277 97.2305 836.215 97.0977C836.16 96.957 836.086 96.8594 835.992 96.8047C835.906 96.75 835.797 96.7227 835.664 96.7227C835.508 96.7227 835.363 96.7695 835.23 96.8633C835.098 96.957 834.953 97.1094 834.797 97.3203C834.648 97.5312 834.48 97.8125 834.293 98.1641C834.113 98.5078 833.898 98.9336 833.648 99.4414V107H831.785V98.7734C831.785 98.3438 831.77 97.9961 831.738 97.7305C831.715 97.4648 831.672 97.2578 831.609 97.1094C831.555 96.9609 831.48 96.8594 831.387 96.8047C831.293 96.75 831.18 96.7227 831.047 96.7227C830.906 96.7227 830.773 96.7617 830.648 96.8398C830.523 96.918 830.383 97.0586 830.227 97.2617C830.078 97.4648 829.91 97.7422 829.723 98.0938C829.535 98.4453 829.312 98.8945 829.055 99.4414V107H827.18V95.2344H828.738L828.832 97.4727C829.035 97.0273 829.23 96.6484 829.418 96.3359C829.613 96.0234 829.812 95.7734 830.016 95.5859C830.219 95.3906 830.434 95.25 830.66 95.1641C830.895 95.0703 831.152 95.0234 831.434 95.0234C832.066 95.0234 832.547 95.2305 832.875 95.6445C833.203 96.0586 833.367 96.6992 833.367 97.5664C833.555 97.1602 833.738 96.8008 833.918 96.4883C834.098 96.168 834.289 95.9023 834.492 95.6914C834.703 95.4727 834.934 95.3086 835.184 95.1992C835.434 95.082 835.723 95.0234 836.051 95.0234C837.527 95.0234 838.266 96.1602 838.266 98.4336V107H836.391ZM850.512 103.789C850.512 104.203 850.441 104.574 850.301 104.902C850.16 105.23 849.969 105.523 849.727 105.781C849.484 106.031 849.203 106.246 848.883 106.426C848.562 106.605 848.219 106.754 847.852 106.871C847.492 106.988 847.121 107.074 846.738 107.129C846.355 107.184 845.98 107.211 845.613 107.211C844.816 107.211 844.082 107.176 843.41 107.105C842.746 107.035 842.094 106.922 841.453 106.766V104.891C842.141 105.086 842.824 105.234 843.504 105.336C844.184 105.438 844.859 105.488 845.531 105.488C846.508 105.488 847.23 105.355 847.699 105.09C848.168 104.824 848.402 104.445 848.402 103.953C848.402 103.742 848.363 103.555 848.285 103.391C848.215 103.219 848.082 103.059 847.887 102.91C847.691 102.754 847.387 102.594 846.973 102.43C846.566 102.266 846.008 102.078 845.297 101.867C844.766 101.711 844.273 101.535 843.82 101.34C843.375 101.137 842.988 100.898 842.66 100.625C842.332 100.352 842.074 100.031 841.887 99.6641C841.699 99.2969 841.605 98.8633 841.605 98.3633C841.605 98.0352 841.68 97.6758 841.828 97.2852C841.984 96.8945 842.246 96.5312 842.613 96.1953C842.98 95.8594 843.477 95.582 844.102 95.3633C844.727 95.1367 845.508 95.0234 846.445 95.0234C846.906 95.0234 847.418 95.0508 847.98 95.1055C848.543 95.1523 849.129 95.2383 849.738 95.3633V97.1797C849.098 97.0234 848.488 96.9102 847.91 96.8398C847.34 96.7617 846.844 96.7227 846.422 96.7227C845.914 96.7227 845.484 96.7617 845.133 96.8398C844.789 96.918 844.508 97.0273 844.289 97.168C844.078 97.3008 843.926 97.4609 843.832 97.6484C843.738 97.8281 843.691 98.0234 843.691 98.2344C843.691 98.4453 843.73 98.6367 843.809 98.8086C843.895 98.9805 844.047 99.1484 844.266 99.3125C844.492 99.4688 844.805 99.6289 845.203 99.793C845.602 99.9492 846.121 100.121 846.762 100.309C847.457 100.512 848.043 100.727 848.52 100.953C848.996 101.172 849.383 101.418 849.68 101.691C849.977 101.965 850.188 102.273 850.312 102.617C850.445 102.961 850.512 103.352 850.512 103.789ZM862.336 111.805H856.559V90.0312H862.336V91.6719H858.504V110.164H862.336V111.805ZM871.594 96.9219H868.113V95.2344H873.656V105.301H877.16V107H867.727V105.301H871.594V96.9219ZM872.309 90.3008C872.535 90.3008 872.746 90.3438 872.941 90.4297C873.137 90.5078 873.305 90.6211 873.445 90.7695C873.594 90.918 873.707 91.0898 873.785 91.2852C873.871 91.4727 873.914 91.6797 873.914 91.9062C873.914 92.125 873.871 92.332 873.785 92.5273C873.707 92.7227 873.594 92.8945 873.445 93.043C873.305 93.1914 873.137 93.3086 872.941 93.3945C872.746 93.4727 872.535 93.5117 872.309 93.5117C872.082 93.5117 871.871 93.4727 871.676 93.3945C871.48 93.3086 871.309 93.1914 871.16 93.043C871.02 92.8945 870.906 92.7227 870.82 92.5273C870.742 92.332 870.703 92.125 870.703 91.9062C870.703 91.6797 870.742 91.4727 870.82 91.2852C870.906 91.0898 871.02 90.918 871.16 90.7695C871.309 90.6211 871.48 90.5078 871.676 90.4297C871.871 90.3438 872.082 90.3008 872.309 90.3008ZM888.059 111.805H882.281V110.164H886.09V91.6719H882.281V90.0312H888.059V111.805ZM896.379 89.5508C899.98 92.8867 901.781 96.5977 901.781 100.684C901.781 101.527 901.695 102.402 901.523 103.309C901.352 104.215 901.059 105.145 900.645 106.098C900.23 107.043 899.672 108.004 898.969 108.98C898.273 109.957 897.395 110.938 896.332 111.922L895.148 110.715C896.672 109.207 897.809 107.633 898.559 105.992C899.309 104.352 899.684 102.633 899.684 100.836C899.684 97.1172 898.172 93.7734 895.148 90.8047L896.379 89.5508ZM620.883 122.922H617.402V121.234H622.945V131.301H626.449V133H617.016V131.301H620.883V122.922ZM621.598 116.301C621.824 116.301 622.035 116.344 622.23 116.43C622.426 116.508 622.594 116.621 622.734 116.77C622.883 116.918 622.996 117.09 623.074 117.285C623.16 117.473 623.203 117.68 623.203 117.906C623.203 118.125 623.16 118.332 623.074 118.527C622.996 118.723 622.883 118.895 622.734 119.043C622.594 119.191 622.426 119.309 622.23 119.395C622.035 119.473 621.824 119.512 621.598 119.512C621.371 119.512 621.16 119.473 620.965 119.395C620.77 119.309 620.598 119.191 620.449 119.043C620.309 118.895 620.195 118.723 620.109 118.527C620.031 118.332 619.992 118.125 619.992 117.906C619.992 117.68 620.031 117.473 620.109 117.285C620.195 117.09 620.309 116.918 620.449 116.77C620.598 116.621 620.77 116.508 620.965 116.43C621.16 116.344 621.371 116.301 621.598 116.301ZM640.406 127.504H635.801V132.285H633.785V127.504H629.18V125.723H633.785V120.977H635.801V125.723H640.406V127.504ZM653.602 127.504H648.996V132.285H646.98V127.504H642.375V125.723H646.98V120.977H648.996V125.723H653.602V127.504Z" fill="black"/>
<path d="M8.63867 154.205H2.37988V130.617H8.63867V132.395H4.4873V152.428H8.63867V154.205ZM38.9678 143.693C38.9678 144.514 38.79 145.263 38.4346 145.94C38.0791 146.618 37.5882 147.201 36.9619 147.692C36.3441 148.175 35.612 148.551 34.7656 148.822C33.9193 149.093 33.0052 149.229 32.0234 149.229C31.778 149.229 31.5114 149.22 31.2236 149.203C30.9443 149.195 30.665 149.178 30.3857 149.152C30.1064 149.135 29.8314 149.114 29.5605 149.089C29.2982 149.063 29.0612 149.034 28.8496 149V146.994C29.3066 147.104 29.8271 147.185 30.4111 147.235C31.0036 147.286 31.6003 147.312 32.2012 147.312C32.8783 147.312 33.4876 147.231 34.0293 147.07C34.571 146.91 35.0322 146.681 35.4131 146.385C35.7939 146.08 36.0859 145.716 36.2891 145.293C36.4922 144.861 36.5938 144.379 36.5938 143.846C36.5938 142.813 36.2214 142.064 35.4766 141.599C34.7402 141.125 33.6781 140.888 32.29 140.888H29.1416V132.407H38.0791V134.337H31.2236V138.996H32.6709C33.4665 138.996 34.2409 139.068 34.9941 139.212C35.7474 139.356 36.416 139.61 37 139.974C37.5924 140.329 38.0664 140.812 38.4219 141.421C38.7858 142.022 38.9678 142.779 38.9678 143.693ZM96.4268 149H86.0039V146.943H90.2695V134.832L86.2959 136.99L85.4834 135.111L90.7646 132.331H92.7197V146.943H96.4268V149ZM153.657 139.771C153.657 141.387 153.463 142.779 153.073 143.947C152.684 145.107 152.108 146.063 151.347 146.816C150.585 147.561 149.641 148.111 148.516 148.467C147.39 148.822 146.091 149 144.618 149H143.234V147.07H144.771C145.862 147.07 146.806 146.96 147.602 146.74C148.397 146.52 149.057 146.199 149.582 145.775C150.115 145.344 150.521 144.823 150.801 144.214C151.08 143.596 151.254 142.894 151.321 142.106L151.372 141.586C150.839 141.899 150.225 142.153 149.531 142.348C148.837 142.534 148.084 142.627 147.271 142.627C146.434 142.627 145.697 142.504 145.062 142.259C144.428 142.013 143.899 141.671 143.476 141.23C143.061 140.79 142.748 140.27 142.536 139.669C142.325 139.06 142.219 138.399 142.219 137.688C142.219 136.918 142.358 136.199 142.638 135.53C142.917 134.862 143.306 134.282 143.806 133.791C144.313 133.292 144.919 132.898 145.621 132.61C146.324 132.323 147.098 132.179 147.944 132.179C148.765 132.179 149.523 132.314 150.217 132.585C150.919 132.856 151.524 133.296 152.032 133.905C152.54 134.506 152.938 135.289 153.226 136.254C153.513 137.219 153.657 138.391 153.657 139.771ZM147.843 133.994C147.369 133.994 146.929 134.075 146.522 134.235C146.125 134.388 145.778 134.616 145.481 134.921C145.194 135.217 144.965 135.585 144.796 136.025C144.627 136.465 144.542 136.969 144.542 137.536C144.542 138.052 144.601 138.514 144.72 138.92C144.847 139.326 145.037 139.673 145.291 139.961C145.553 140.24 145.888 140.456 146.294 140.608C146.7 140.761 147.183 140.837 147.741 140.837C148.054 140.837 148.376 140.807 148.706 140.748C149.045 140.689 149.37 140.608 149.684 140.507C150.005 140.405 150.31 140.287 150.598 140.151C150.885 140.016 151.144 139.872 151.372 139.72C151.372 138.628 151.292 137.718 151.131 136.99C150.97 136.254 150.737 135.666 150.433 135.226C150.128 134.777 149.756 134.46 149.315 134.273C148.884 134.087 148.393 133.994 147.843 133.994ZM211.751 145.331H208.92V149H206.66V145.331H198.675V143.389L205.746 132.407H208.92V143.389H211.751V145.331ZM206.66 134.54L200.884 143.389H206.66V134.54ZM268.017 134.464L261.06 149H258.533L265.757 134.464H256.794V132.407H268.017V134.464ZM320.725 149H310.303V146.943H314.568V134.832L310.595 136.99L309.782 135.111L315.063 132.331H317.018V146.943H320.725V149ZM335.541 140.71C335.541 141.979 335.414 143.139 335.16 144.188C334.906 145.229 334.521 146.127 334.005 146.88C333.489 147.625 332.845 148.204 332.075 148.619C331.313 149.025 330.416 149.229 329.384 149.229C328.495 149.229 327.687 149.063 326.959 148.733C326.231 148.395 325.609 147.879 325.093 147.185C324.576 146.491 324.179 145.606 323.899 144.531C323.62 143.456 323.48 142.183 323.48 140.71C323.48 139.44 323.607 138.281 323.861 137.231C324.124 136.182 324.509 135.285 325.017 134.54C325.533 133.787 326.176 133.207 326.946 132.801C327.716 132.386 328.614 132.179 329.638 132.179C330.526 132.179 331.335 132.348 332.062 132.687C332.79 133.017 333.412 133.533 333.929 134.235C334.445 134.929 334.843 135.814 335.122 136.889C335.401 137.964 335.541 139.237 335.541 140.71ZM333.307 140.786C333.307 140.498 333.294 140.215 333.268 139.936C333.252 139.648 333.23 139.368 333.205 139.098L326.184 144.315C326.311 144.756 326.472 145.162 326.667 145.534C326.862 145.907 327.094 146.228 327.365 146.499C327.644 146.761 327.958 146.969 328.305 147.121C328.66 147.265 329.062 147.337 329.511 147.337C330.086 147.337 330.607 147.197 331.072 146.918C331.546 146.639 331.948 146.224 332.278 145.674C332.608 145.124 332.862 144.442 333.04 143.63C333.218 142.809 333.307 141.861 333.307 140.786ZM325.715 140.634C325.715 140.896 325.715 141.159 325.715 141.421C325.723 141.683 325.74 141.937 325.766 142.183L332.786 136.99C332.659 136.559 332.498 136.165 332.304 135.81C332.109 135.454 331.876 135.149 331.605 134.896C331.335 134.633 331.026 134.43 330.679 134.286C330.332 134.142 329.942 134.07 329.511 134.07C328.935 134.07 328.41 134.21 327.936 134.489C327.471 134.769 327.073 135.188 326.743 135.746C326.413 136.296 326.159 136.982 325.981 137.803C325.804 138.615 325.715 139.559 325.715 140.634ZM360.868 154.205H354.609V152.428H358.735V132.395H354.609V130.617H360.868V154.205Z" fill="black"/>
<path d="M38.6387 170.623C38.6387 171.6 38.541 172.492 38.3457 173.299C38.1504 174.1 37.8542 174.79 37.457 175.369C37.0599 175.942 36.5651 176.388 35.9727 176.707C35.3867 177.02 34.6966 177.176 33.9023 177.176C33.2188 177.176 32.597 177.049 32.0371 176.795C31.4772 176.535 30.9987 176.137 30.6016 175.604C30.2044 175.07 29.8984 174.389 29.6836 173.562C29.4688 172.736 29.3613 171.756 29.3613 170.623C29.3613 169.646 29.459 168.755 29.6543 167.947C29.8561 167.14 30.1523 166.45 30.543 165.877C30.9401 165.298 31.4349 164.852 32.0273 164.539C32.6198 164.22 33.3099 164.061 34.0977 164.061C34.7812 164.061 35.403 164.191 35.9629 164.451C36.5228 164.705 37.0013 165.102 37.3984 165.643C37.7956 166.176 38.1016 166.857 38.3164 167.684C38.5312 168.51 38.6387 169.49 38.6387 170.623ZM36.9199 170.682C36.9199 170.46 36.9102 170.242 36.8906 170.027C36.8776 169.806 36.8613 169.591 36.8418 169.383L31.4414 173.396C31.5391 173.735 31.6628 174.048 31.8125 174.334C31.9622 174.62 32.1413 174.868 32.3496 175.076C32.5645 175.278 32.8053 175.438 33.0723 175.555C33.3457 175.665 33.6549 175.721 34 175.721C34.4427 175.721 34.8431 175.613 35.2012 175.398C35.5658 175.184 35.875 174.865 36.1289 174.441C36.3828 174.018 36.5781 173.494 36.7148 172.869C36.8516 172.238 36.9199 171.508 36.9199 170.682ZM31.0801 170.564C31.0801 170.766 31.0801 170.968 31.0801 171.17C31.0866 171.372 31.0996 171.567 31.1191 171.756L36.5195 167.762C36.4219 167.43 36.2982 167.127 36.1484 166.854C35.9987 166.58 35.8197 166.346 35.6113 166.15C35.403 165.949 35.1654 165.792 34.8984 165.682C34.6315 165.571 34.332 165.516 34 165.516C33.5573 165.516 33.1536 165.623 32.7891 165.838C32.431 166.053 32.125 166.375 31.8711 166.805C31.6172 167.228 31.4219 167.755 31.2852 168.387C31.1484 169.012 31.0801 169.738 31.0801 170.564Z" fill="black" fill-opacity="0.3"/>
<path d="M96.2383 177H88.2207V175.418H91.502V166.102L88.4453 167.762L87.8203 166.316L91.8828 164.178H93.3867V175.418H96.2383V177Z" fill="black" fill-opacity="0.3"/>
<path d="M152.346 177H143.938V175.477L147.238 172.195C147.779 171.661 148.218 171.199 148.557 170.809C148.895 170.418 149.159 170.063 149.348 169.744C149.536 169.419 149.663 169.113 149.729 168.826C149.794 168.54 149.826 168.23 149.826 167.898C149.826 167.586 149.784 167.29 149.699 167.01C149.615 166.723 149.484 166.473 149.309 166.258C149.133 166.043 148.905 165.874 148.625 165.75C148.345 165.626 148.01 165.564 147.619 165.564C147.079 165.564 146.587 165.685 146.145 165.926C145.702 166.167 145.295 166.479 144.924 166.863L143.986 165.74C144.468 165.232 145.021 164.826 145.646 164.52C146.278 164.214 147.01 164.061 147.844 164.061C148.41 164.061 148.924 164.145 149.387 164.314C149.855 164.484 150.259 164.728 150.598 165.047C150.936 165.366 151.197 165.757 151.379 166.219C151.568 166.681 151.662 167.202 151.662 167.781C151.662 168.27 151.597 168.722 151.467 169.139C151.337 169.555 151.138 169.972 150.871 170.389C150.611 170.799 150.279 171.225 149.875 171.668C149.478 172.111 149.006 172.596 148.459 173.123L146.145 175.379H152.346V177Z" fill="black" fill-opacity="0.3"/>
<path d="M209.102 173.123C209.102 173.683 208.988 174.21 208.76 174.705C208.532 175.193 208.19 175.623 207.734 175.994C207.279 176.359 206.706 176.648 206.016 176.863C205.326 177.072 204.521 177.176 203.604 177.176C203.096 177.176 202.64 177.16 202.236 177.127C201.833 177.094 201.455 177.052 201.104 177V175.477C201.507 175.548 201.934 175.604 202.383 175.643C202.832 175.682 203.291 175.701 203.76 175.701C204.398 175.701 204.941 175.646 205.391 175.535C205.846 175.418 206.217 175.252 206.504 175.037C206.79 174.822 206.999 174.562 207.129 174.256C207.259 173.95 207.324 173.605 207.324 173.221C207.324 172.869 207.246 172.563 207.09 172.303C206.934 172.042 206.712 171.824 206.426 171.648C206.146 171.473 205.807 171.342 205.41 171.258C205.02 171.167 204.59 171.121 204.121 171.121H202.666V169.725H204.141C204.525 169.725 204.873 169.676 205.186 169.578C205.505 169.474 205.775 169.327 205.996 169.139C206.224 168.95 206.396 168.719 206.514 168.445C206.637 168.165 206.699 167.85 206.699 167.498C206.699 166.814 206.491 166.316 206.074 166.004C205.658 165.691 205.046 165.535 204.238 165.535C203.809 165.535 203.366 165.577 202.91 165.662C202.454 165.747 201.966 165.874 201.445 166.043V164.559C201.667 164.48 201.901 164.412 202.148 164.354C202.402 164.288 202.653 164.236 202.9 164.197C203.154 164.152 203.405 164.119 203.652 164.1C203.9 164.074 204.137 164.061 204.365 164.061C205.042 164.061 205.638 164.135 206.152 164.285C206.667 164.428 207.096 164.637 207.441 164.91C207.786 165.184 208.047 165.516 208.223 165.906C208.398 166.297 208.486 166.736 208.486 167.225C208.486 167.954 208.298 168.566 207.92 169.061C207.549 169.555 207.038 169.949 206.387 170.242C206.719 170.294 207.044 170.398 207.363 170.555C207.689 170.711 207.979 170.913 208.232 171.16C208.493 171.401 208.701 171.688 208.857 172.02C209.02 172.352 209.102 172.719 209.102 173.123Z" fill="black" fill-opacity="0.3"/>
<path d="M267.98 174.178H265.803V177H264.064V174.178H257.922V172.684L263.361 164.236H265.803V172.684H267.98V174.178ZM264.064 165.877L259.621 172.684H264.064V165.877Z" fill="black" fill-opacity="0.3"/>
<path d="M326.023 172.918C326.023 173.549 325.887 174.126 325.613 174.646C325.34 175.167 324.962 175.617 324.48 175.994C324.005 176.365 323.442 176.655 322.791 176.863C322.14 177.072 321.437 177.176 320.682 177.176C320.493 177.176 320.288 177.169 320.066 177.156C319.852 177.15 319.637 177.137 319.422 177.117C319.207 177.104 318.995 177.088 318.787 177.068C318.585 177.049 318.403 177.026 318.24 177V175.457C318.592 175.542 318.992 175.604 319.441 175.643C319.897 175.682 320.356 175.701 320.818 175.701C321.339 175.701 321.808 175.639 322.225 175.516C322.641 175.392 322.996 175.216 323.289 174.988C323.582 174.754 323.807 174.474 323.963 174.148C324.119 173.816 324.197 173.445 324.197 173.035C324.197 172.241 323.911 171.665 323.338 171.307C322.771 170.942 321.954 170.76 320.887 170.76H318.465V164.236H325.34V165.721H320.066V169.305H321.18C321.792 169.305 322.387 169.36 322.967 169.471C323.546 169.581 324.061 169.777 324.51 170.057C324.965 170.33 325.33 170.701 325.604 171.17C325.883 171.632 326.023 172.215 326.023 172.918Z" fill="black" fill-opacity="0.3"/>
<path d="M81.7239 125.507C82.2547 125.66 82.8087 125.353 82.9611 124.822L85.4461 116.172C85.5986 115.641 85.2919 115.087 84.7611 114.935C84.2303 114.782 83.6763 115.089 83.5238 115.62L81.315 123.309L73.626 121.1C73.0952 120.947 72.5412 121.254 72.3887 121.785C72.2363 122.316 72.543 122.87 73.0738 123.022L81.7239 125.507ZM34.8008 125.145C35.7267 123.907 36.7173 122.78 37.7608 121.759L36.3621 120.33C35.2448 121.423 34.1865 122.627 33.1993 123.947L34.8008 125.145ZM45.0684 116.61C47.8121 115.275 50.7103 114.414 53.6362 113.98L53.3423 112.001C50.2274 112.464 47.1316 113.381 44.1932 114.812L45.0684 116.61ZM62.6261 113.937C65.6878 114.356 68.616 115.207 71.2489 116.42L72.086 114.604C69.2668 113.305 66.1471 112.4 62.8974 111.955L62.6261 113.937ZM78.5183 121.503C79.5521 122.594 80.4297 123.774 81.1252 125.03L82.8749 124.062C82.0911 122.646 81.1103 121.331 79.9698 120.128L78.5183 121.503ZM81.7239 125.507C82.2547 125.66 82.8087 125.353 82.9611 124.822L85.4461 116.172C85.5986 115.641 85.2919 115.087 84.7611 114.935C84.2303 114.782 83.6763 115.089 83.5238 115.62L81.315 123.309L73.626 121.1C73.0952 120.947 72.5412 121.254 72.3887 121.785C72.2363 122.316 72.543 122.87 73.0738 123.022L81.7239 125.507ZM34.8008 125.145C35.7267 123.907 36.7173 122.78 37.7608 121.759L36.3621 120.33C35.2448 121.423 34.1865 122.627 33.1993 123.947L34.8008 125.145ZM45.0684 116.61C47.8121 115.275 50.7103 114.414 53.6362 113.98L53.3423 112.001C50.2274 112.464 47.1316 113.381 44.1932 114.812L45.0684 116.61ZM62.6261 113.937C65.6878 114.356 68.616 115.207 71.2489 116.42L72.086 114.604C69.2668 113.305 66.1471 112.4 62.8974 111.955L62.6261 113.937ZM78.5183 121.503C79.5521 122.594 80.4297 123.774 81.1252 125.03L82.8749 124.062C82.0911 122.646 81.1103 121.331 79.9698 120.128L78.5183 121.503Z" fill="black"/>
<path d="M442.8 12C442.8 5.81441 447.814 0.8 454 0.8H503C509.186 0.8 514.2 5.81441 514.2 12V40C514.2 41.7673 512.767 43.2 511 43.2H446C444.233 43.2 442.8 41.7673 442.8 40V12Z" fill="#FAF0FF" stroke="#AE0DFF" stroke-width="1.6"/>
<rect x="394.5" y="8.5" width="57" height="26" rx="1.5" fill="white" stroke="black"/>
<path d="M483.73 25.6934C483.73 26.5143 483.553 27.2633 483.197 27.9404C482.842 28.6175 482.351 29.2015 481.725 29.6924C481.107 30.1748 480.375 30.5514 479.528 30.8223C478.682 31.0931 477.768 31.2285 476.786 31.2285C476.541 31.2285 476.274 31.2201 475.986 31.2031C475.707 31.1947 475.428 31.1777 475.148 31.1523C474.869 31.1354 474.594 31.1143 474.323 31.0889C474.061 31.0635 473.824 31.0339 473.612 31V28.9941C474.069 29.1042 474.59 29.1846 475.174 29.2354C475.766 29.2861 476.363 29.3115 476.964 29.3115C477.641 29.3115 478.25 29.2311 478.792 29.0703C479.334 28.9095 479.795 28.681 480.176 28.3848C480.557 28.0801 480.849 27.7161 481.052 27.293C481.255 26.8613 481.356 26.3789 481.356 25.8457C481.356 24.8132 480.984 24.0641 480.239 23.5986C479.503 23.1247 478.441 22.8877 477.053 22.8877H473.904V14.4072H482.842V16.3369H475.986V20.9961H477.434C478.229 20.9961 479.004 21.068 479.757 21.2119C480.51 21.3558 481.179 21.6097 481.763 21.9736C482.355 22.3291 482.829 22.8115 483.185 23.4209C483.549 24.0218 483.73 24.7793 483.73 25.6934Z" fill="black"/>
<path d="M410.266 29V20.5508C410.266 20.1836 410.25 19.8828 410.219 19.6484C410.195 19.4141 410.152 19.2305 410.09 19.0977C410.035 18.957 409.961 18.8594 409.867 18.8047C409.781 18.75 409.672 18.7227 409.539 18.7227C409.383 18.7227 409.238 18.7695 409.105 18.8633C408.973 18.957 408.828 19.1094 408.672 19.3203C408.523 19.5312 408.355 19.8125 408.168 20.1641C407.988 20.5078 407.773 20.9336 407.523 21.4414V29H405.66V20.7734C405.66 20.3438 405.645 19.9961 405.613 19.7305C405.59 19.4648 405.547 19.2578 405.484 19.1094C405.43 18.9609 405.355 18.8594 405.262 18.8047C405.168 18.75 405.055 18.7227 404.922 18.7227C404.781 18.7227 404.648 18.7617 404.523 18.8398C404.398 18.918 404.258 19.0586 404.102 19.2617C403.953 19.4648 403.785 19.7422 403.598 20.0938C403.41 20.4453 403.188 20.8945 402.93 21.4414V29H401.055V17.2344H402.613L402.707 19.4727C402.91 19.0273 403.105 18.6484 403.293 18.3359C403.488 18.0234 403.688 17.7734 403.891 17.5859C404.094 17.3906 404.309 17.25 404.535 17.1641C404.77 17.0703 405.027 17.0234 405.309 17.0234C405.941 17.0234 406.422 17.2305 406.75 17.6445C407.078 18.0586 407.242 18.6992 407.242 19.5664C407.43 19.1602 407.613 18.8008 407.793 18.4883C407.973 18.168 408.164 17.9023 408.367 17.6914C408.578 17.4727 408.809 17.3086 409.059 17.1992C409.309 17.082 409.598 17.0234 409.926 17.0234C411.402 17.0234 412.141 18.1602 412.141 20.4336V29H410.266ZM418.118 18.9219H414.638V17.2344H420.181V27.3008H423.685V29H414.251V27.3008H418.118V18.9219ZM418.833 12.3008C419.06 12.3008 419.27 12.3438 419.466 12.4297C419.661 12.5078 419.829 12.6211 419.97 12.7695C420.118 12.918 420.231 13.0898 420.31 13.2852C420.395 13.4727 420.438 13.6797 420.438 13.9062C420.438 14.125 420.395 14.332 420.31 14.5273C420.231 14.7227 420.118 14.8945 419.97 15.043C419.829 15.1914 419.661 15.3086 419.466 15.3945C419.27 15.4727 419.06 15.5117 418.833 15.5117C418.606 15.5117 418.395 15.4727 418.2 15.3945C418.005 15.3086 417.833 15.1914 417.685 15.043C417.544 14.8945 417.431 14.7227 417.345 14.5273C417.267 14.332 417.227 14.125 417.227 13.9062C417.227 13.6797 417.267 13.4727 417.345 13.2852C417.431 13.0898 417.544 12.918 417.685 12.7695C417.833 12.6211 418.005 12.5078 418.2 12.4297C418.395 12.3438 418.606 12.3008 418.833 12.3008ZM426.346 17.2344H428.162L428.244 19.1328C428.588 18.7266 428.92 18.3906 429.24 18.125C429.56 17.8516 429.873 17.6328 430.178 17.4688C430.49 17.3047 430.807 17.1914 431.127 17.1289C431.447 17.0586 431.779 17.0234 432.123 17.0234C433.334 17.0234 434.248 17.3828 434.865 18.1016C435.49 18.8125 435.803 19.8867 435.803 21.3242V29H433.764V21.4883C433.764 20.5664 433.592 19.8867 433.248 19.4492C432.904 19.0039 432.392 18.7812 431.713 18.7812C431.463 18.7812 431.217 18.8203 430.975 18.8984C430.74 18.9688 430.494 19.0977 430.236 19.2852C429.978 19.4648 429.697 19.7109 429.392 20.0234C429.096 20.3359 428.76 20.7266 428.385 21.1953V29H426.346V17.2344ZM443.304 17.0234C443.546 17.0234 443.776 17.0742 443.995 17.1758C444.214 17.2695 444.405 17.3984 444.569 17.5625C444.733 17.7266 444.862 17.918 444.956 18.1367C445.057 18.3555 445.108 18.5859 445.108 18.8281C445.108 19.0781 445.057 19.3125 444.956 19.5312C444.862 19.7422 444.733 19.9297 444.569 20.0938C444.405 20.2578 444.214 20.3867 443.995 20.4805C443.776 20.5742 443.546 20.6211 443.304 20.6211C443.054 20.6211 442.819 20.5742 442.6 20.4805C442.39 20.3867 442.202 20.2578 442.038 20.0938C441.874 19.9297 441.745 19.7422 441.651 19.5312C441.557 19.3125 441.511 19.0781 441.511 18.8281C441.511 18.5859 441.557 18.3555 441.651 18.1367C441.745 17.918 441.874 17.7266 442.038 17.5625C442.202 17.3984 442.39 17.2695 442.6 17.1758C442.819 17.0742 443.054 17.0234 443.304 17.0234ZM443.304 25.6133C443.546 25.6133 443.776 25.6641 443.995 25.7656C444.214 25.8594 444.405 25.9883 444.569 26.1523C444.733 26.3164 444.862 26.5078 444.956 26.7266C445.057 26.9453 445.108 27.1758 445.108 27.418C445.108 27.668 445.057 27.9023 444.956 28.1211C444.862 28.332 444.733 28.5195 444.569 28.6836C444.405 28.8477 444.214 28.9766 443.995 29.0703C443.776 29.1641 443.546 29.2109 443.304 29.2109C443.054 29.2109 442.819 29.1641 442.6 29.0703C442.39 28.9766 442.202 28.8477 442.038 28.6836C441.874 28.5195 441.745 28.332 441.651 28.1211C441.557 27.9023 441.511 27.668 441.511 27.418C441.511 27.1758 441.557 26.9453 441.651 26.7266C441.745 26.5078 441.874 26.3164 442.038 26.1523C442.202 25.9883 442.39 25.8594 442.6 25.7656C442.819 25.6641 443.054 25.6133 443.304 25.6133Z" fill="#AE0DFF"/>
<path d="M441.371 53.1288C441.761 51.7511 443.018 50.8 444.45 50.8H512.55C513.982 50.8 515.239 51.7511 515.629 53.1288L539.911 138.951C541.933 146.099 536.563 153.2 529.134 153.2H427.866C420.437 153.2 415.067 146.099 417.089 138.951L441.371 53.1288Z" fill="white" stroke="#AE0DFF" stroke-width="1.6"/>
<path d="M433.441 176V166.847C433.441 166.449 433.424 166.123 433.391 165.869C433.365 165.615 433.319 165.416 433.251 165.272C433.192 165.12 433.111 165.014 433.01 164.955C432.917 164.896 432.798 164.866 432.654 164.866C432.485 164.866 432.328 164.917 432.185 165.019C432.041 165.12 431.884 165.285 431.715 165.514C431.554 165.742 431.372 166.047 431.169 166.428C430.974 166.8 430.742 167.261 430.471 167.812V176H428.452V167.088C428.452 166.622 428.435 166.246 428.401 165.958C428.376 165.67 428.329 165.446 428.262 165.285C428.202 165.124 428.122 165.014 428.021 164.955C427.919 164.896 427.796 164.866 427.652 164.866C427.5 164.866 427.356 164.909 427.221 164.993C427.085 165.078 426.933 165.23 426.764 165.45C426.603 165.67 426.421 165.971 426.218 166.352C426.015 166.732 425.773 167.219 425.494 167.812V176H423.463V163.254H425.151L425.253 165.679C425.473 165.196 425.685 164.786 425.888 164.447C426.099 164.109 426.315 163.838 426.535 163.635C426.755 163.423 426.988 163.271 427.233 163.178C427.487 163.076 427.767 163.025 428.071 163.025C428.757 163.025 429.277 163.25 429.633 163.698C429.988 164.147 430.166 164.841 430.166 165.78C430.369 165.34 430.568 164.951 430.763 164.612C430.957 164.265 431.165 163.978 431.385 163.749C431.613 163.512 431.863 163.334 432.134 163.216C432.405 163.089 432.718 163.025 433.073 163.025C434.673 163.025 435.473 164.257 435.473 166.72V176H433.441ZM442.988 165.082H439.218V163.254H445.223V174.159H449.019V176H438.799V174.159H442.988V165.082ZM443.763 157.909C444.008 157.909 444.237 157.956 444.448 158.049C444.66 158.133 444.842 158.256 444.994 158.417C445.155 158.578 445.278 158.764 445.362 158.976C445.455 159.179 445.502 159.403 445.502 159.648C445.502 159.885 445.455 160.11 445.362 160.321C445.278 160.533 445.155 160.719 444.994 160.88C444.842 161.041 444.66 161.168 444.448 161.261C444.237 161.345 444.008 161.388 443.763 161.388C443.517 161.388 443.289 161.345 443.077 161.261C442.866 161.168 442.679 161.041 442.519 160.88C442.366 160.719 442.243 160.533 442.15 160.321C442.066 160.11 442.023 159.885 442.023 159.648C442.023 159.403 442.066 159.179 442.15 158.976C442.243 158.764 442.366 158.578 442.519 158.417C442.679 158.256 442.866 158.133 443.077 158.049C443.289 157.956 443.517 157.909 443.763 157.909ZM452.941 163.254H454.909L454.998 165.311C455.37 164.87 455.73 164.507 456.077 164.219C456.424 163.923 456.763 163.686 457.093 163.508C457.431 163.33 457.774 163.207 458.121 163.14C458.468 163.063 458.828 163.025 459.2 163.025C460.512 163.025 461.502 163.415 462.171 164.193C462.848 164.964 463.187 166.127 463.187 167.685V176H460.978V167.862C460.978 166.864 460.791 166.127 460.419 165.653C460.047 165.171 459.492 164.93 458.756 164.93C458.485 164.93 458.218 164.972 457.956 165.057C457.702 165.133 457.436 165.272 457.156 165.476C456.877 165.67 456.572 165.937 456.242 166.275C455.921 166.614 455.557 167.037 455.15 167.545V176H452.941V163.254ZM479.5 181.205H465.205V179.377H479.5V181.205ZM491.776 176H489.567V167.862C489.567 166.881 489.381 166.148 489.009 165.666C488.645 165.175 488.12 164.93 487.435 164.93C487.138 164.93 486.859 164.972 486.597 165.057C486.343 165.133 486.076 165.272 485.797 165.476C485.518 165.67 485.213 165.937 484.883 166.275C484.553 166.614 484.172 167.037 483.74 167.545V176H481.531V158.062H483.74V163.254L483.664 165.26C484.011 164.845 484.35 164.498 484.68 164.219C485.018 163.931 485.353 163.698 485.683 163.521C486.021 163.343 486.364 163.216 486.711 163.14C487.058 163.063 487.418 163.025 487.79 163.025C489.06 163.025 490.041 163.415 490.735 164.193C491.429 164.964 491.776 166.127 491.776 167.685V176ZM506.592 168.954C506.592 169.267 506.588 169.53 506.579 169.741C506.571 169.953 506.558 170.152 506.541 170.338H497.591C497.591 171.641 497.955 172.644 498.683 173.347C499.41 174.041 500.46 174.388 501.831 174.388C502.203 174.388 502.576 174.375 502.948 174.35C503.321 174.316 503.68 174.273 504.027 174.223C504.374 174.172 504.704 174.117 505.018 174.058C505.339 173.99 505.635 173.918 505.906 173.842V175.657C505.305 175.826 504.624 175.962 503.862 176.063C503.109 176.174 502.326 176.229 501.514 176.229C500.422 176.229 499.482 176.08 498.695 175.784C497.908 175.488 497.261 175.061 496.753 174.502C496.254 173.935 495.881 173.245 495.636 172.433C495.399 171.612 495.28 170.685 495.28 169.652C495.28 168.755 495.407 167.909 495.661 167.113C495.924 166.309 496.3 165.607 496.791 165.006C497.29 164.396 497.9 163.914 498.619 163.559C499.339 163.203 500.155 163.025 501.069 163.025C501.958 163.025 502.745 163.165 503.431 163.444C504.116 163.724 504.692 164.121 505.157 164.638C505.631 165.146 505.987 165.768 506.224 166.504C506.469 167.232 506.592 168.049 506.592 168.954ZM504.294 168.637C504.319 168.07 504.264 167.553 504.129 167.088C503.993 166.614 503.782 166.208 503.494 165.869C503.215 165.531 502.864 165.268 502.44 165.082C502.017 164.887 501.526 164.79 500.968 164.79C500.485 164.79 500.045 164.883 499.647 165.069C499.25 165.256 498.907 165.518 498.619 165.856C498.331 166.195 498.099 166.601 497.921 167.075C497.743 167.549 497.633 168.07 497.591 168.637H504.294ZM518.31 176L518.259 174.286C517.565 174.972 516.858 175.467 516.139 175.771C515.428 176.076 514.679 176.229 513.892 176.229C513.164 176.229 512.542 176.135 512.025 175.949C511.509 175.763 511.082 175.509 510.743 175.188C510.413 174.857 510.168 174.472 510.007 174.032C509.854 173.592 509.778 173.114 509.778 172.598C509.778 171.32 510.252 170.321 511.2 169.602C512.157 168.874 513.566 168.51 515.428 168.51H518.068V167.393C518.068 166.639 517.827 166.038 517.345 165.59C516.862 165.133 516.126 164.904 515.136 164.904C514.416 164.904 513.705 164.985 513.003 165.146C512.309 165.306 511.59 165.535 510.845 165.831V163.838C511.124 163.736 511.433 163.639 511.771 163.546C512.118 163.444 512.482 163.355 512.863 163.279C513.244 163.203 513.642 163.144 514.057 163.102C514.471 163.051 514.89 163.025 515.313 163.025C516.084 163.025 516.778 163.11 517.396 163.279C518.013 163.449 518.534 163.707 518.957 164.054C519.389 164.401 519.719 164.837 519.947 165.361C520.176 165.886 520.29 166.504 520.29 167.215V176H518.31ZM518.068 170.198H515.263C514.713 170.198 514.239 170.253 513.841 170.363C513.443 170.473 513.117 170.63 512.863 170.833C512.609 171.036 512.419 171.282 512.292 171.569C512.174 171.849 512.114 172.166 512.114 172.521C512.114 172.767 512.152 173.004 512.229 173.232C512.305 173.452 512.427 173.651 512.597 173.829C512.766 173.998 512.986 174.134 513.257 174.235C513.528 174.337 513.858 174.388 514.247 174.388C514.755 174.388 515.335 174.235 515.986 173.931C516.646 173.618 517.34 173.127 518.068 172.458V170.198ZM535.309 169.398C535.309 170.533 535.148 171.523 534.826 172.369C534.513 173.215 534.077 173.918 533.519 174.477C532.96 175.035 532.3 175.454 531.538 175.733C530.776 176.013 529.951 176.152 529.062 176.152C528.656 176.152 528.25 176.131 527.844 176.089C527.446 176.047 527.04 175.975 526.625 175.873V181.205H524.416V163.254H526.384L526.523 165.387C527.158 164.515 527.835 163.906 528.555 163.559C529.274 163.203 530.053 163.025 530.891 163.025C531.618 163.025 532.257 163.178 532.808 163.482C533.358 163.787 533.819 164.219 534.191 164.777C534.564 165.327 534.843 165.996 535.029 166.783C535.215 167.562 535.309 168.434 535.309 169.398ZM533.049 169.5C533.049 168.831 532.998 168.218 532.896 167.659C532.803 167.101 532.651 166.622 532.439 166.225C532.228 165.827 531.957 165.518 531.627 165.298C531.297 165.069 530.903 164.955 530.446 164.955C530.167 164.955 529.883 165.002 529.596 165.095C529.308 165.179 529.007 165.327 528.694 165.539C528.39 165.742 528.064 166.017 527.717 166.364C527.378 166.703 527.014 167.126 526.625 167.634V173.816C527.031 173.986 527.459 174.121 527.907 174.223C528.356 174.316 528.796 174.362 529.228 174.362C530.421 174.362 531.356 173.96 532.033 173.156C532.71 172.344 533.049 171.125 533.049 169.5Z" fill="black"/>
</g>
<defs>
<clipPath id="clip0_6288_2579">
<rect width="924" height="185" fill="white"/>
</clipPath>
</defs>
</svg>
