<svg width="944" height="105" viewBox="0 0 944 105" fill="none" xmlns="http://www.w3.org/2000/svg">
<g clip-path="url(#clip0_6018_154)">
<rect width="944" height="105" fill="white"/>
<rect x="102" y="1" width="69" height="28" rx="6" fill="#FFF4EF" stroke="#FF5500" stroke-width="2"/>
<rect x="180" y="1" width="69" height="28" rx="6" fill="#FFF4EF" stroke="#FF5500" stroke-width="2"/>
<rect x="332" y="41" width="607" height="56" rx="10" fill="#EDEDED" stroke="#999999" stroke-width="2" stroke-dasharray="10 10"/>
<path d="M362.124 75.5215C362.124 75.9701 362.048 76.3721 361.896 76.7275C361.743 77.083 361.536 77.4004 361.273 77.6797C361.011 77.9505 360.706 78.1833 360.359 78.3779C360.012 78.5726 359.64 78.7334 359.242 78.8604C358.853 78.9873 358.451 79.0804 358.036 79.1396C357.621 79.1989 357.215 79.2285 356.817 79.2285C355.954 79.2285 355.159 79.1904 354.431 79.1143C353.711 79.0381 353.005 78.9154 352.311 78.7461V76.7148C353.055 76.9264 353.796 77.0872 354.532 77.1973C355.269 77.3073 356.001 77.3623 356.729 77.3623C357.786 77.3623 358.569 77.2184 359.077 76.9307C359.585 76.6429 359.839 76.2324 359.839 75.6992C359.839 75.4707 359.797 75.2676 359.712 75.0898C359.636 74.9036 359.492 74.7301 359.28 74.5693C359.069 74.4001 358.739 74.2266 358.29 74.0488C357.85 73.8711 357.245 73.668 356.475 73.4395C355.899 73.2702 355.366 73.0798 354.875 72.8682C354.393 72.6481 353.974 72.39 353.618 72.0938C353.263 71.7975 352.983 71.4505 352.78 71.0527C352.577 70.6549 352.476 70.1852 352.476 69.6436C352.476 69.2881 352.556 68.8988 352.717 68.4756C352.886 68.0524 353.17 67.6589 353.567 67.2949C353.965 66.931 354.503 66.6305 355.18 66.3936C355.857 66.1481 356.703 66.0254 357.719 66.0254C358.218 66.0254 358.772 66.055 359.382 66.1143C359.991 66.165 360.626 66.2581 361.286 66.3936V68.3613C360.592 68.1921 359.932 68.0693 359.306 67.9932C358.688 67.9085 358.15 67.8662 357.693 67.8662C357.143 67.8662 356.678 67.9085 356.297 67.9932C355.924 68.0778 355.62 68.1963 355.383 68.3486C355.154 68.4925 354.989 68.666 354.888 68.8691C354.786 69.0638 354.735 69.2754 354.735 69.5039C354.735 69.7324 354.778 69.9398 354.862 70.126C354.955 70.3122 355.12 70.4941 355.357 70.6719C355.603 70.8411 355.941 71.0146 356.373 71.1924C356.805 71.3617 357.368 71.5479 358.062 71.751C358.815 71.971 359.45 72.2038 359.966 72.4492C360.482 72.6862 360.901 72.9528 361.223 73.249C361.544 73.5452 361.773 73.8796 361.908 74.252C362.052 74.6243 362.124 75.0475 362.124 75.5215ZM376.571 79H374.591L374.515 76.9434C374.134 77.3835 373.77 77.7516 373.423 78.0479C373.084 78.3356 372.746 78.5684 372.407 78.7461C372.069 78.9238 371.726 79.0465 371.379 79.1143C371.04 79.1904 370.681 79.2285 370.3 79.2285C368.988 79.2285 367.998 78.8434 367.329 78.0732C366.66 77.3031 366.326 76.1393 366.326 74.582V66.2539H368.535V74.4043C368.535 76.3594 369.271 77.3369 370.744 77.3369C371.015 77.3369 371.277 77.2988 371.531 77.2227C371.794 77.138 372.064 76.9984 372.344 76.8037C372.632 76.6006 372.936 76.3298 373.258 75.9912C373.588 75.6527 373.956 75.2253 374.362 74.709V66.2539H376.571V79ZM389.711 79V69.8467C389.711 69.4489 389.694 69.123 389.66 68.8691C389.635 68.6152 389.588 68.4163 389.521 68.2725C389.461 68.1201 389.381 68.0143 389.279 67.9551C389.186 67.8958 389.068 67.8662 388.924 67.8662C388.755 67.8662 388.598 67.917 388.454 68.0186C388.31 68.1201 388.154 68.2852 387.984 68.5137C387.824 68.7422 387.642 69.0469 387.438 69.4277C387.244 69.8001 387.011 70.2614 386.74 70.8115V79H384.722V70.0879C384.722 69.6224 384.705 69.2458 384.671 68.958C384.646 68.6702 384.599 68.446 384.531 68.2852C384.472 68.1243 384.392 68.0143 384.29 67.9551C384.188 67.8958 384.066 67.8662 383.922 67.8662C383.77 67.8662 383.626 67.9085 383.49 67.9932C383.355 68.0778 383.202 68.2301 383.033 68.4502C382.872 68.6702 382.69 68.9707 382.487 69.3516C382.284 69.7324 382.043 70.2191 381.764 70.8115V79H379.732V66.2539H381.421L381.522 68.6787C381.743 68.1963 381.954 67.7858 382.157 67.4473C382.369 67.1087 382.585 66.8379 382.805 66.6348C383.025 66.4232 383.257 66.2708 383.503 66.1777C383.757 66.0762 384.036 66.0254 384.341 66.0254C385.026 66.0254 385.547 66.2497 385.902 66.6982C386.258 67.1468 386.436 67.8408 386.436 68.7803C386.639 68.3402 386.838 67.9508 387.032 67.6123C387.227 67.2653 387.434 66.9775 387.654 66.749C387.883 66.512 388.132 66.3343 388.403 66.2158C388.674 66.0889 388.987 66.0254 389.343 66.0254C390.942 66.0254 391.742 67.2568 391.742 69.7197V79H389.711ZM419.786 70.7988H408.868V68.9326H419.786V70.7988ZM419.786 75.2168H408.868V73.3506H419.786V75.2168ZM448.478 64.4639L441.521 79H438.994L446.218 64.4639H437.255V62.4072H448.478V64.4639ZM476.966 70.7988H466.048V68.9326H476.966V70.7988ZM476.966 75.2168H466.048V73.3506H476.966V75.2168ZM491.261 70.7988H480.343V68.9326H491.261V70.7988ZM491.261 75.2168H480.343V73.3506H491.261V75.2168ZM519.952 64.4639L512.995 79H510.469L517.692 64.4639H508.729V62.4072H519.952V64.4639Z" fill="black"/>
<path d="M637.603 65.2539H639.621L639.685 67.6025C640.438 66.6969 641.178 66.041 641.906 65.6348C642.643 65.2285 643.383 65.0254 644.128 65.0254C645.448 65.0254 646.447 65.4528 647.124 66.3076C647.81 67.1624 648.127 68.432 648.076 70.1162H645.842C645.867 68.999 645.702 68.1908 645.347 67.6914C645 67.1836 644.488 66.9297 643.811 66.9297C643.514 66.9297 643.214 66.9847 642.909 67.0947C642.613 67.1963 642.304 67.3656 641.982 67.6025C641.669 67.8311 641.335 68.1273 640.979 68.4912C640.624 68.8551 640.243 69.2952 639.837 69.8115V78H637.603V65.2539ZM662.143 70.9541C662.143 71.2673 662.138 71.5296 662.13 71.7412C662.121 71.9528 662.109 72.1517 662.092 72.3379H653.142C653.142 73.6413 653.506 74.6442 654.233 75.3467C654.961 76.0407 656.011 76.3877 657.382 76.3877C657.754 76.3877 658.127 76.375 658.499 76.3496C658.871 76.3158 659.231 76.2734 659.578 76.2227C659.925 76.1719 660.255 76.1169 660.568 76.0576C660.89 75.9899 661.186 75.918 661.457 75.8418V77.6572C660.856 77.8265 660.175 77.9619 659.413 78.0635C658.66 78.1735 657.877 78.2285 657.064 78.2285C655.973 78.2285 655.033 78.0804 654.246 77.7842C653.459 77.488 652.812 77.0605 652.304 76.502C651.804 75.9349 651.432 75.2451 651.187 74.4326C650.95 73.6117 650.831 72.6849 650.831 71.6523C650.831 70.7552 650.958 69.9089 651.212 69.1133C651.474 68.3092 651.851 67.6068 652.342 67.0059C652.841 66.3965 653.451 65.9141 654.17 65.5586C654.889 65.2031 655.706 65.0254 656.62 65.0254C657.509 65.0254 658.296 65.165 658.981 65.4443C659.667 65.7236 660.243 66.1214 660.708 66.6377C661.182 67.1455 661.537 67.7676 661.774 68.5039C662.02 69.2318 662.143 70.0485 662.143 70.9541ZM659.845 70.6367C659.87 70.0697 659.815 69.5534 659.68 69.0879C659.544 68.6139 659.333 68.2077 659.045 67.8691C658.766 67.5306 658.414 67.2682 657.991 67.082C657.568 66.8874 657.077 66.79 656.519 66.79C656.036 66.79 655.596 66.8831 655.198 67.0693C654.8 67.2555 654.458 67.5179 654.17 67.8564C653.882 68.195 653.649 68.6012 653.472 69.0752C653.294 69.5492 653.184 70.0697 653.142 70.6367H659.845ZM675.942 77.8223C675.443 77.9492 674.927 78.0381 674.394 78.0889C673.86 78.1481 673.319 78.1777 672.769 78.1777C671.169 78.1777 669.976 77.818 669.188 77.0986C668.401 76.3708 668.008 75.2578 668.008 73.7598V67.1074H664.44V65.2539H668.008V61.75L670.217 61.1787V65.2539H675.942V67.1074H670.217V73.582C670.217 74.4961 670.458 75.1816 670.94 75.6387C671.431 76.0872 672.151 76.3115 673.099 76.3115C673.505 76.3115 673.949 76.2819 674.432 76.2227C674.914 76.1549 675.418 76.0534 675.942 75.918V77.8223ZM690.212 78H688.231L688.155 75.9434C687.774 76.3835 687.41 76.7516 687.063 77.0479C686.725 77.3356 686.386 77.5684 686.048 77.7461C685.709 77.9238 685.367 78.0465 685.02 78.1143C684.681 78.1904 684.321 78.2285 683.94 78.2285C682.629 78.2285 681.638 77.8434 680.97 77.0732C680.301 76.3031 679.967 75.1393 679.967 73.582V65.2539H682.176V73.4043C682.176 75.3594 682.912 76.3369 684.385 76.3369C684.656 76.3369 684.918 76.2988 685.172 76.2227C685.434 76.138 685.705 75.9984 685.984 75.8037C686.272 75.6006 686.577 75.3298 686.898 74.9912C687.229 74.6527 687.597 74.2253 688.003 73.709V65.2539H690.212V78ZM694.782 65.2539H696.801L696.864 67.6025C697.618 66.6969 698.358 66.041 699.086 65.6348C699.822 65.2285 700.563 65.0254 701.308 65.0254C702.628 65.0254 703.627 65.4528 704.304 66.3076C704.989 67.1624 705.307 68.432 705.256 70.1162H703.021C703.047 68.999 702.882 68.1908 702.526 67.6914C702.179 67.1836 701.667 66.9297 700.99 66.9297C700.694 66.9297 700.394 66.9847 700.089 67.0947C699.793 67.1963 699.484 67.3656 699.162 67.6025C698.849 67.8311 698.515 68.1273 698.159 68.4912C697.804 68.8551 697.423 69.2952 697.017 69.8115V78H694.782V65.2539ZM708.557 65.2539H710.524L710.613 67.3105C710.986 66.8704 711.345 66.5065 711.692 66.2188C712.039 65.9225 712.378 65.6855 712.708 65.5078C713.047 65.3301 713.389 65.2074 713.736 65.1396C714.083 65.0635 714.443 65.0254 714.815 65.0254C716.127 65.0254 717.118 65.4147 717.786 66.1934C718.463 66.9635 718.802 68.1273 718.802 69.6846V78H716.593V69.8623C716.593 68.8636 716.407 68.1273 716.034 67.6533C715.662 67.1709 715.107 66.9297 714.371 66.9297C714.1 66.9297 713.834 66.972 713.571 67.0566C713.317 67.1328 713.051 67.2725 712.771 67.4756C712.492 67.6702 712.188 67.9368 711.857 68.2754C711.536 68.6139 711.172 69.0371 710.766 69.5449V78H708.557V65.2539ZM745.754 83.2051H739.495V59.6172H745.754V61.3945H741.603V81.4277H745.754V83.2051ZM755.783 61.877H752.013V60.0615H758.018V76.1592H761.813V78H751.594V76.1592H755.783V61.877ZM776.502 70.9541C776.502 71.2673 776.498 71.5296 776.489 71.7412C776.481 71.9528 776.468 72.1517 776.451 72.3379H767.501C767.501 73.6413 767.865 74.6442 768.593 75.3467C769.321 76.0407 770.37 76.3877 771.741 76.3877C772.114 76.3877 772.486 76.375 772.858 76.3496C773.231 76.3158 773.59 76.2734 773.938 76.2227C774.285 76.1719 774.615 76.1169 774.928 76.0576C775.249 75.9899 775.546 75.918 775.816 75.8418V77.6572C775.215 77.8265 774.534 77.9619 773.772 78.0635C773.019 78.1735 772.236 78.2285 771.424 78.2285C770.332 78.2285 769.393 78.0804 768.605 77.7842C767.818 77.488 767.171 77.0605 766.663 76.502C766.164 75.9349 765.791 75.2451 765.546 74.4326C765.309 73.6117 765.19 72.6849 765.19 71.6523C765.19 70.7552 765.317 69.9089 765.571 69.1133C765.834 68.3092 766.21 67.6068 766.701 67.0059C767.201 66.3965 767.81 65.9141 768.529 65.5586C769.249 65.2031 770.065 65.0254 770.979 65.0254C771.868 65.0254 772.655 65.165 773.341 65.4443C774.026 65.7236 774.602 66.1214 775.067 66.6377C775.541 67.1455 775.897 67.7676 776.134 68.5039C776.379 69.2318 776.502 70.0485 776.502 70.9541ZM774.204 70.6367C774.229 70.0697 774.174 69.5534 774.039 69.0879C773.904 68.6139 773.692 68.2077 773.404 67.8691C773.125 67.5306 772.774 67.2682 772.351 67.082C771.927 66.8874 771.437 66.79 770.878 66.79C770.396 66.79 769.955 66.8831 769.558 67.0693C769.16 67.2555 768.817 67.5179 768.529 67.8564C768.242 68.195 768.009 68.6012 767.831 69.0752C767.653 69.5492 767.543 70.0697 767.501 70.6367H774.204ZM791.343 62.1182C790.183 61.8727 789.185 61.75 788.347 61.75C786.358 61.75 785.363 62.791 785.363 64.873V67.1074H790.949V68.9482H785.363V78H783.116V68.9482H779.016V67.1074H783.116V65C783.116 61.6061 784.885 59.9092 788.423 59.9092C789.303 59.9092 790.276 60.0107 791.343 60.2139V62.1182ZM804.597 77.8223C804.097 77.9492 803.581 78.0381 803.048 78.0889C802.515 78.1481 801.973 78.1777 801.423 78.1777C799.823 78.1777 798.63 77.818 797.843 77.0986C797.056 76.3708 796.662 75.2578 796.662 73.7598V67.1074H793.095V65.2539H796.662V61.75L798.871 61.1787V65.2539H804.597V67.1074H798.871V73.582C798.871 74.4961 799.112 75.1816 799.595 75.6387C800.086 76.0872 800.805 76.3115 801.753 76.3115C802.159 76.3115 802.604 76.2819 803.086 76.2227C803.568 76.1549 804.072 76.0534 804.597 75.918V77.8223ZM809.611 80.6025C810.043 80.6195 810.462 80.5814 810.868 80.4883C811.274 80.3952 811.63 80.2555 811.935 80.0693C812.248 79.8916 812.497 79.6673 812.684 79.3965C812.87 79.1257 812.963 78.8167 812.963 78.4697C812.963 78.1143 812.899 77.8265 812.772 77.6064C812.654 77.3864 812.519 77.1833 812.366 76.9971C812.214 76.8109 812.074 76.612 811.947 76.4004C811.829 76.1888 811.77 75.9053 811.77 75.5498C811.77 75.3721 811.803 75.1859 811.871 74.9912C811.939 74.7965 812.04 74.6188 812.176 74.458C812.32 74.2972 812.497 74.166 812.709 74.0645C812.929 73.9629 813.187 73.9121 813.483 73.9121C813.78 73.9121 814.063 73.9756 814.334 74.1025C814.613 74.221 814.854 74.4072 815.058 74.6611C815.269 74.915 815.434 75.2324 815.553 75.6133C815.68 75.9941 815.743 76.4427 815.743 76.959C815.743 77.6615 815.612 78.3343 815.35 78.9775C815.096 79.6292 814.711 80.2048 814.194 80.7041C813.687 81.2035 813.048 81.6012 812.277 81.8975C811.516 82.1937 810.627 82.3418 809.611 82.3418V80.6025ZM837.731 65.2539H839.75L839.813 67.6025C840.567 66.6969 841.307 66.041 842.035 65.6348C842.771 65.2285 843.512 65.0254 844.257 65.0254C845.577 65.0254 846.576 65.4528 847.253 66.3076C847.938 67.1624 848.256 68.432 848.205 70.1162H845.971C845.996 68.999 845.831 68.1908 845.476 67.6914C845.129 67.1836 844.617 66.9297 843.939 66.9297C843.643 66.9297 843.343 66.9847 843.038 67.0947C842.742 67.1963 842.433 67.3656 842.111 67.6025C841.798 67.8311 841.464 68.1273 841.108 68.4912C840.753 68.8551 840.372 69.2952 839.966 69.8115V78H837.731V65.2539ZM855.848 67.082H852.077V65.2539H858.082V76.1592H861.878V78H851.658V76.1592H855.848V67.082ZM856.622 59.9092C856.868 59.9092 857.096 59.9557 857.308 60.0488C857.519 60.1335 857.701 60.2562 857.854 60.417C858.014 60.5778 858.137 60.764 858.222 60.9756C858.315 61.1787 858.361 61.403 858.361 61.6484C858.361 61.8854 858.315 62.1097 858.222 62.3213C858.137 62.5329 858.014 62.7191 857.854 62.8799C857.701 63.0407 857.519 63.1676 857.308 63.2607C857.096 63.3454 856.868 63.3877 856.622 63.3877C856.377 63.3877 856.148 63.3454 855.937 63.2607C855.725 63.1676 855.539 63.0407 855.378 62.8799C855.226 62.7191 855.103 62.5329 855.01 62.3213C854.925 62.1097 854.883 61.8854 854.883 61.6484C854.883 61.403 854.925 61.1787 855.01 60.9756C855.103 60.764 855.226 60.5778 855.378 60.417C855.539 60.2562 855.725 60.1335 855.937 60.0488C856.148 59.9557 856.377 59.9092 856.622 59.9092ZM874.979 67.0566C875.216 67.3529 875.398 67.6999 875.525 68.0977C875.661 68.487 875.729 68.9102 875.729 69.3672C875.729 70.0273 875.606 70.6325 875.36 71.1826C875.123 71.7243 874.785 72.1898 874.345 72.5791C873.905 72.9684 873.376 73.2731 872.758 73.4932C872.148 73.7048 871.476 73.8105 870.739 73.8105C870.206 73.8105 869.707 73.7555 869.241 73.6455C868.776 73.527 868.408 73.3831 868.137 73.2139C867.976 73.4508 867.84 73.6751 867.73 73.8867C867.62 74.0983 867.565 74.3353 867.565 74.5977C867.565 74.9193 867.718 75.1859 868.022 75.3975C868.336 75.609 868.746 75.7233 869.254 75.7402L872.605 75.8672C873.24 75.8841 873.824 75.9645 874.357 76.1084C874.899 76.2523 875.36 76.4596 875.741 76.7305C876.131 77.0013 876.431 77.3356 876.643 77.7334C876.863 78.1312 876.973 78.5924 876.973 79.1172C876.973 79.6842 876.85 80.2217 876.604 80.7295C876.359 81.2373 875.978 81.6816 875.462 82.0625C874.954 82.4518 874.307 82.7607 873.52 82.9893C872.732 83.2178 871.797 83.332 870.714 83.332C869.681 83.332 868.801 83.2474 868.073 83.0781C867.354 82.9173 866.761 82.6888 866.296 82.3926C865.83 82.1048 865.492 81.7578 865.28 81.3516C865.069 80.9538 864.963 80.5137 864.963 80.0312C864.963 79.4134 865.107 78.8717 865.395 78.4062C865.682 77.9408 866.127 77.4922 866.728 77.0605C866.507 76.959 866.317 76.832 866.156 76.6797C865.995 76.5273 865.864 76.3623 865.763 76.1846C865.661 75.9984 865.585 75.8037 865.534 75.6006C865.483 75.3975 865.458 75.1986 865.458 75.0039C865.458 74.4538 865.585 73.9502 865.839 73.4932C866.101 73.0361 866.41 72.6045 866.766 72.1982C866.605 72.0036 866.461 71.8132 866.334 71.627C866.215 71.4408 866.11 71.2419 866.017 71.0303C865.932 70.8102 865.864 70.5775 865.813 70.332C865.771 70.0781 865.75 69.7904 865.75 69.4688C865.75 68.8086 865.868 68.2077 866.105 67.666C866.351 67.1159 866.689 66.6462 867.121 66.2568C867.561 65.8675 868.086 65.5671 868.695 65.3555C869.313 65.1354 869.994 65.0254 870.739 65.0254C871.052 65.0254 871.353 65.0465 871.641 65.0889C871.928 65.1312 872.182 65.1862 872.402 65.2539H877.023V67.0566H874.979ZM867.312 79.8408C867.312 80.4417 867.625 80.8776 868.251 81.1484C868.877 81.4277 869.749 81.5674 870.866 81.5674C871.569 81.5674 872.157 81.5039 872.631 81.377C873.113 81.25 873.498 81.0807 873.786 80.8691C874.082 80.666 874.294 80.429 874.421 80.1582C874.548 79.8958 874.611 79.625 874.611 79.3457C874.611 78.8294 874.4 78.4486 873.977 78.2031C873.553 77.9577 872.906 77.8138 872.034 77.7715L868.708 77.6572C868.429 77.8434 868.196 78.0254 868.01 78.2031C867.832 78.3809 867.692 78.5586 867.591 78.7363C867.489 78.9225 867.417 79.1045 867.375 79.2822C867.333 79.4684 867.312 79.6546 867.312 79.8408ZM867.984 69.418C867.984 69.8242 868.052 70.1966 868.188 70.5352C868.323 70.8737 868.513 71.1615 868.759 71.3984C869.004 71.6354 869.292 71.8216 869.622 71.957C869.961 72.084 870.333 72.1475 870.739 72.1475C871.179 72.1475 871.569 72.0755 871.907 71.9316C872.254 71.7793 872.542 71.5762 872.771 71.3223C873.007 71.0684 873.185 70.7764 873.304 70.4463C873.431 70.1162 873.494 69.7734 873.494 69.418C873.494 69.0117 873.426 68.6393 873.291 68.3008C873.156 67.9622 872.965 67.6745 872.72 67.4375C872.474 67.2005 872.182 67.0186 871.844 66.8916C871.514 66.7562 871.146 66.6885 870.739 66.6885C870.299 66.6885 869.906 66.7646 869.559 66.917C869.22 67.0693 868.932 67.2725 868.695 67.5264C868.467 67.7718 868.289 68.0596 868.162 68.3896C868.044 68.7197 867.984 69.0625 867.984 69.418ZM890.341 78H888.132V69.8623C888.132 68.8805 887.946 68.1484 887.573 67.666C887.209 67.1751 886.685 66.9297 885.999 66.9297C885.703 66.9297 885.424 66.972 885.161 67.0566C884.907 67.1328 884.641 67.2725 884.361 67.4756C884.082 67.6702 883.777 67.9368 883.447 68.2754C883.117 68.6139 882.736 69.0371 882.305 69.5449V78H880.096V60.0615H882.305V65.2539L882.229 67.2598C882.576 66.8451 882.914 66.498 883.244 66.2188C883.583 65.931 883.917 65.6982 884.247 65.5205C884.586 65.3428 884.928 65.2158 885.275 65.1396C885.622 65.0635 885.982 65.0254 886.354 65.0254C887.624 65.0254 888.606 65.4147 889.3 66.1934C889.994 66.9635 890.341 68.1273 890.341 69.6846V78ZM904.661 77.8223C904.162 77.9492 903.646 78.0381 903.112 78.0889C902.579 78.1481 902.037 78.1777 901.487 78.1777C899.888 78.1777 898.694 77.818 897.907 77.0986C897.12 76.3708 896.727 75.2578 896.727 73.7598V67.1074H893.159V65.2539H896.727V61.75L898.936 61.1787V65.2539H904.661V67.1074H898.936V73.582C898.936 74.4961 899.177 75.1816 899.659 75.6387C900.15 76.0872 900.869 76.3115 901.817 76.3115C902.224 76.3115 902.668 76.2819 903.15 76.2227C903.633 76.1549 904.136 76.0534 904.661 75.918V77.8223ZM916.569 83.2051H910.311V81.4277H914.437V61.3945H910.311V59.6172H916.569V83.2051Z" fill="black"/>
<path d="M611.707 71.7071C612.098 71.3166 612.098 70.6834 611.707 70.2929L605.343 63.9289C604.953 63.5384 604.319 63.5384 603.929 63.9289C603.538 64.3195 603.538 64.9526 603.929 65.3431L609.586 71L603.929 76.6569C603.538 77.0474 603.538 77.6805 603.929 78.0711C604.319 78.4616 604.953 78.4616 605.343 78.0711L611.707 71.7071ZM543 72H611V70H543V72Z" fill="black"/>
<path d="M118.91 9.59766H116.01V8.20117H120.629V20.584H123.549V22H115.688V20.584H118.91V9.59766ZM134.848 16.5801C134.848 16.821 134.844 17.0228 134.838 17.1855C134.831 17.3483 134.822 17.5013 134.809 17.6445H127.924C127.924 18.6471 128.204 19.4186 128.764 19.959C129.324 20.4928 130.131 20.7598 131.186 20.7598C131.472 20.7598 131.758 20.75 132.045 20.7305C132.331 20.7044 132.608 20.6719 132.875 20.6328C133.142 20.5938 133.396 20.5514 133.637 20.5059C133.884 20.4538 134.112 20.3984 134.32 20.3398V21.7363C133.858 21.8665 133.334 21.9707 132.748 22.0488C132.169 22.1335 131.566 22.1758 130.941 22.1758C130.102 22.1758 129.379 22.0618 128.773 21.834C128.168 21.6061 127.67 21.2773 127.279 20.8477C126.895 20.4115 126.609 19.8809 126.42 19.2559C126.238 18.6243 126.146 17.9115 126.146 17.1172C126.146 16.4271 126.244 15.776 126.439 15.1641C126.641 14.5456 126.931 14.0052 127.309 13.543C127.693 13.0742 128.161 12.7031 128.715 12.4297C129.268 12.1562 129.896 12.0195 130.6 12.0195C131.283 12.0195 131.889 12.127 132.416 12.3418C132.943 12.5566 133.386 12.8626 133.744 13.2598C134.109 13.6504 134.382 14.1289 134.564 14.6953C134.753 15.2552 134.848 15.8835 134.848 16.5801ZM133.08 16.3359C133.1 15.8997 133.057 15.5026 132.953 15.1445C132.849 14.7799 132.686 14.4674 132.465 14.207C132.25 13.9466 131.98 13.7448 131.654 13.6016C131.329 13.4518 130.951 13.377 130.521 13.377C130.15 13.377 129.812 13.4486 129.506 13.5918C129.2 13.735 128.936 13.9368 128.715 14.1973C128.493 14.4577 128.314 14.7702 128.178 15.1348C128.041 15.4993 127.956 15.8997 127.924 16.3359H133.08ZM146.264 9.7832C145.372 9.5944 144.604 9.5 143.959 9.5C142.429 9.5 141.664 10.3008 141.664 11.9023V13.6211H145.961V15.0371H141.664V22H139.936V15.0371H136.781V13.6211H139.936V12C139.936 9.38932 141.296 8.08398 144.018 8.08398C144.695 8.08398 145.443 8.16211 146.264 8.31836V9.7832ZM156.459 21.8633C156.075 21.9609 155.678 22.0293 155.268 22.0684C154.857 22.1139 154.441 22.1367 154.018 22.1367C152.787 22.1367 151.869 21.86 151.264 21.3066C150.658 20.7467 150.355 19.8906 150.355 18.7383V13.6211H147.611V12.1953H150.355V9.5L152.055 9.06055V12.1953H156.459V13.6211H152.055V18.6016C152.055 19.3047 152.24 19.832 152.611 20.1836C152.989 20.5286 153.542 20.7012 154.271 20.7012C154.584 20.7012 154.926 20.6784 155.297 20.6328C155.668 20.5807 156.055 20.5026 156.459 20.3984V21.8633Z" fill="#FF5500"/>
<path d="M188.973 12.1953H190.525L190.574 14.002C191.154 13.3053 191.723 12.8008 192.283 12.4883C192.85 12.1758 193.419 12.0195 193.992 12.0195C195.008 12.0195 195.776 12.3483 196.297 13.0059C196.824 13.6634 197.068 14.64 197.029 15.9355H195.311C195.33 15.0762 195.203 14.4544 194.93 14.0703C194.663 13.6797 194.269 13.4844 193.748 13.4844C193.52 13.4844 193.289 13.5267 193.055 13.6113C192.827 13.6895 192.589 13.8197 192.342 14.002C192.101 14.1777 191.844 14.4056 191.57 14.6855C191.297 14.9655 191.004 15.304 190.691 15.7012V22H188.973V12.1953ZM202.908 13.6016H200.008V12.1953H204.627V20.584H207.547V22H199.686V20.584H202.908V13.6016ZM203.504 8.08398C203.693 8.08398 203.868 8.11979 204.031 8.19141C204.194 8.25651 204.334 8.35091 204.451 8.47461C204.575 8.59831 204.669 8.74154 204.734 8.9043C204.806 9.06055 204.842 9.23307 204.842 9.42188C204.842 9.60417 204.806 9.77669 204.734 9.93945C204.669 10.1022 204.575 10.2454 204.451 10.3691C204.334 10.4928 204.194 10.5905 204.031 10.6621C203.868 10.7272 203.693 10.7598 203.504 10.7598C203.315 10.7598 203.139 10.7272 202.977 10.6621C202.814 10.5905 202.671 10.4928 202.547 10.3691C202.43 10.2454 202.335 10.1022 202.264 9.93945C202.199 9.77669 202.166 9.60417 202.166 9.42188C202.166 9.23307 202.199 9.06055 202.264 8.9043C202.335 8.74154 202.43 8.59831 202.547 8.47461C202.671 8.35091 202.814 8.25651 202.977 8.19141C203.139 8.11979 203.315 8.08398 203.504 8.08398ZM217.625 13.582C217.807 13.8099 217.947 14.0768 218.045 14.3828C218.149 14.6823 218.201 15.0078 218.201 15.3594C218.201 15.8672 218.107 16.3327 217.918 16.7559C217.736 17.1725 217.475 17.5306 217.137 17.8301C216.798 18.1296 216.391 18.3639 215.916 18.5332C215.447 18.696 214.93 18.7773 214.363 18.7773C213.953 18.7773 213.569 18.735 213.211 18.6504C212.853 18.5592 212.57 18.4486 212.361 18.3184C212.238 18.5007 212.133 18.6732 212.049 18.8359C211.964 18.9987 211.922 19.181 211.922 19.3828C211.922 19.6302 212.039 19.8353 212.273 19.998C212.514 20.1608 212.83 20.2487 213.221 20.2617L215.799 20.3594C216.287 20.3724 216.736 20.4342 217.146 20.5449C217.563 20.6556 217.918 20.8151 218.211 21.0234C218.51 21.2318 218.742 21.4889 218.904 21.7949C219.074 22.1009 219.158 22.4557 219.158 22.8594C219.158 23.2956 219.064 23.709 218.875 24.0996C218.686 24.4902 218.393 24.832 217.996 25.125C217.605 25.4245 217.107 25.6621 216.502 25.8379C215.896 26.0137 215.177 26.1016 214.344 26.1016C213.549 26.1016 212.872 26.0365 212.312 25.9062C211.759 25.7826 211.303 25.6068 210.945 25.3789C210.587 25.1576 210.327 24.8906 210.164 24.5781C210.001 24.2721 209.92 23.9336 209.92 23.5625C209.92 23.0872 210.031 22.6706 210.252 22.3125C210.473 21.9544 210.815 21.6094 211.277 21.2773C211.108 21.1992 210.962 21.1016 210.838 20.9844C210.714 20.8672 210.613 20.7402 210.535 20.6035C210.457 20.4603 210.398 20.3105 210.359 20.1543C210.32 19.998 210.301 19.8451 210.301 19.6953C210.301 19.2721 210.398 18.8848 210.594 18.5332C210.796 18.1816 211.033 17.8496 211.307 17.5371C211.183 17.3874 211.072 17.2409 210.975 17.0977C210.883 16.9544 210.802 16.8014 210.73 16.6387C210.665 16.4694 210.613 16.2904 210.574 16.1016C210.542 15.9062 210.525 15.6849 210.525 15.4375C210.525 14.9297 210.617 14.4674 210.799 14.0508C210.988 13.6276 211.248 13.2663 211.58 12.9668C211.919 12.6673 212.322 12.4362 212.791 12.2734C213.266 12.1042 213.79 12.0195 214.363 12.0195C214.604 12.0195 214.835 12.0358 215.057 12.0684C215.278 12.1009 215.473 12.1432 215.643 12.1953H219.197V13.582H217.625ZM211.727 23.416C211.727 23.8783 211.967 24.2135 212.449 24.4219C212.931 24.6367 213.602 24.7441 214.461 24.7441C215.001 24.7441 215.454 24.6953 215.818 24.5977C216.189 24.5 216.486 24.3698 216.707 24.207C216.935 24.0508 217.098 23.8685 217.195 23.6602C217.293 23.4583 217.342 23.25 217.342 23.0352C217.342 22.638 217.179 22.3451 216.854 22.1562C216.528 21.9674 216.03 21.8568 215.359 21.8242L212.801 21.7363C212.586 21.8796 212.407 22.0195 212.264 22.1562C212.127 22.293 212.02 22.4297 211.941 22.5664C211.863 22.7096 211.808 22.8496 211.775 22.9863C211.743 23.1296 211.727 23.2728 211.727 23.416ZM212.244 15.3984C212.244 15.7109 212.296 15.9974 212.4 16.2578C212.505 16.5182 212.651 16.7396 212.84 16.9219C213.029 17.1042 213.25 17.2474 213.504 17.3516C213.764 17.4492 214.051 17.498 214.363 17.498C214.702 17.498 215.001 17.4427 215.262 17.332C215.529 17.2148 215.75 17.0586 215.926 16.8633C216.108 16.668 216.245 16.4434 216.336 16.1895C216.434 15.9355 216.482 15.6719 216.482 15.3984C216.482 15.0859 216.43 14.7995 216.326 14.5391C216.222 14.2786 216.076 14.0573 215.887 13.875C215.698 13.6927 215.473 13.5527 215.213 13.4551C214.959 13.3509 214.676 13.2988 214.363 13.2988C214.025 13.2988 213.722 13.3574 213.455 13.4746C213.195 13.5918 212.973 13.748 212.791 13.9434C212.615 14.1322 212.479 14.3535 212.381 14.6074C212.29 14.8613 212.244 15.125 212.244 15.3984ZM229.441 22H227.742V15.7402C227.742 14.985 227.599 14.4219 227.312 14.0508C227.033 13.6732 226.629 13.4844 226.102 13.4844C225.874 13.4844 225.659 13.5169 225.457 13.582C225.262 13.6406 225.057 13.748 224.842 13.9043C224.627 14.054 224.393 14.2591 224.139 14.5195C223.885 14.7799 223.592 15.1055 223.26 15.4961V22H221.561V8.20117H223.26V12.1953L223.201 13.7383C223.468 13.4193 223.729 13.1523 223.982 12.9375C224.243 12.7161 224.5 12.5371 224.754 12.4004C225.014 12.2637 225.278 12.166 225.545 12.1074C225.812 12.0488 226.089 12.0195 226.375 12.0195C227.352 12.0195 228.107 12.319 228.641 12.918C229.174 13.5104 229.441 14.4056 229.441 15.6035V22ZM240.457 21.8633C240.073 21.9609 239.676 22.0293 239.266 22.0684C238.855 22.1139 238.439 22.1367 238.016 22.1367C236.785 22.1367 235.867 21.86 235.262 21.3066C234.656 20.7467 234.354 19.8906 234.354 18.7383V13.6211H231.609V12.1953H234.354V9.5L236.053 9.06055V12.1953H240.457V13.6211H236.053V18.6016C236.053 19.3047 236.238 19.832 236.609 20.1836C236.987 20.5286 237.54 20.7012 238.27 20.7012C238.582 20.7012 238.924 20.6784 239.295 20.6328C239.666 20.5807 240.053 20.5026 240.457 20.3984V21.8633Z" fill="#FF5500"/>
<path d="M146.293 57.7071C146.683 58.0976 147.317 58.0976 147.707 57.7071L154.071 51.3431C154.462 50.9526 154.462 50.3195 154.071 49.9289C153.681 49.5384 153.047 49.5384 152.657 49.9289L147 55.5858L141.343 49.9289C140.953 49.5384 140.319 49.5384 139.929 49.9289C139.538 50.3195 139.538 50.9526 139.929 51.3431L146.293 57.7071ZM146 30L146 57L148 57L148 30L146 30Z" fill="#FF5500"/>
<path d="M202.293 57.7071C202.683 58.0976 203.317 58.0976 203.707 57.7071L210.071 51.3431C210.462 50.9526 210.462 50.3195 210.071 49.9289C209.681 49.5384 209.047 49.5384 208.657 49.9289L203 55.5858L197.343 49.9289C196.953 49.5384 196.319 49.5384 195.929 49.9289C195.538 50.3195 195.538 50.9526 195.929 51.3431L202.293 57.7071ZM202 30L202 57L204 57L204 30L202 30Z" fill="#FF5500"/>
<path d="M10.5283 85.0059H3.30664V57.7891H10.5283V59.8398H5.73828V82.9551H10.5283V85.0059Z" fill="black"/>
<path d="M283.693 85.0059H276.472V82.9551H281.232V59.8398H276.472V57.7891H283.693V85.0059Z" fill="black"/>
<path d="M21.6328 74.2178H12.873V71.8154H21.6328V74.2178ZM39.7822 74.877C39.7822 75.8242 39.5771 76.6885 39.167 77.4697C38.7568 78.251 38.1904 78.9248 37.4678 79.4912C36.7549 80.0479 35.9102 80.4824 34.9336 80.7949C33.957 81.1074 32.9023 81.2637 31.7695 81.2637C31.4863 81.2637 31.1787 81.2539 30.8467 81.2344C30.5244 81.2246 30.2021 81.2051 29.8799 81.1758C29.5576 81.1562 29.2402 81.1318 28.9277 81.1025C28.625 81.0732 28.3516 81.0391 28.1074 81V78.6855C28.6348 78.8125 29.2354 78.9053 29.9092 78.9639C30.5928 79.0225 31.2812 79.0518 31.9746 79.0518C32.7559 79.0518 33.459 78.959 34.084 78.7734C34.709 78.5879 35.2412 78.3242 35.6807 77.9824C36.1201 77.6309 36.457 77.2109 36.6914 76.7227C36.9258 76.2246 37.043 75.668 37.043 75.0527C37.043 73.8613 36.6133 72.9971 35.7539 72.46C34.9043 71.9131 33.6787 71.6396 32.0771 71.6396H28.4443V61.8545H38.7568V64.0811H30.8467V69.457H32.5166C33.4346 69.457 34.3281 69.54 35.1973 69.7061C36.0664 69.8721 36.8379 70.165 37.5117 70.585C38.1953 70.9951 38.7422 71.5518 39.1523 72.2549C39.5723 72.9482 39.7822 73.8223 39.7822 74.877Z" fill="black"/>
<path opacity="0.5" d="M39.1025 97.9854C39.1025 99.0596 38.9951 100.041 38.7803 100.929C38.5654 101.81 38.2396 102.569 37.8027 103.206C37.3659 103.836 36.8216 104.327 36.1699 104.678C35.5254 105.021 34.7663 105.193 33.8926 105.193C33.1406 105.193 32.4567 105.054 31.8408 104.774C31.2249 104.488 30.6986 104.051 30.2617 103.464C29.8249 102.877 29.4883 102.128 29.252 101.219C29.0156 100.309 28.8975 99.2314 28.8975 97.9854C28.8975 96.9111 29.0049 95.93 29.2197 95.042C29.4417 94.154 29.7676 93.3949 30.1973 92.7646C30.6341 92.1273 31.1784 91.6367 31.8301 91.293C32.4818 90.9421 33.2409 90.7666 34.1074 90.7666C34.8594 90.7666 35.5433 90.9098 36.1592 91.1963C36.7751 91.4756 37.3014 91.9124 37.7383 92.5068C38.1751 93.0941 38.5117 93.8424 38.748 94.752C38.9844 95.6615 39.1025 96.7393 39.1025 97.9854ZM37.2119 98.0498C37.2119 97.8063 37.2012 97.5664 37.1797 97.3301C37.1654 97.0866 37.1475 96.8503 37.126 96.6211L31.1855 101.036C31.293 101.409 31.429 101.752 31.5938 102.067C31.7585 102.382 31.9554 102.655 32.1846 102.884C32.4209 103.106 32.6859 103.281 32.9795 103.41C33.2803 103.532 33.6204 103.593 34 103.593C34.487 103.593 34.9274 103.475 35.3213 103.238C35.7223 103.002 36.0625 102.651 36.3418 102.186C36.6211 101.72 36.8359 101.144 36.9863 100.456C37.1367 99.7614 37.2119 98.9593 37.2119 98.0498ZM30.7881 97.9209C30.7881 98.1429 30.7881 98.3649 30.7881 98.5869C30.7952 98.8089 30.8096 99.0238 30.8311 99.2314L36.7715 94.8379C36.6641 94.4727 36.528 94.1396 36.3633 93.8389C36.1986 93.5381 36.0016 93.2803 35.7725 93.0654C35.5433 92.8434 35.2819 92.6715 34.9883 92.5498C34.6947 92.4281 34.3652 92.3672 34 92.3672C33.513 92.3672 33.069 92.4854 32.668 92.7217C32.2741 92.958 31.9375 93.3125 31.6582 93.7852C31.3789 94.2507 31.1641 94.8307 31.0137 95.5254C30.8633 96.2129 30.7881 97.0114 30.7881 97.9209Z" fill="black"/>
<path opacity="0.5" d="M94.6621 105H85.8428V103.26H89.4521V93.0117L86.0898 94.8379L85.4023 93.248L89.8711 90.8955H91.5254V103.26H94.6621V105Z" fill="black"/>
<path opacity="0.5" d="M151.78 105H142.531V103.324L146.162 99.7148C146.757 99.1276 147.24 98.6191 147.612 98.1895C147.985 97.7598 148.275 97.3695 148.482 97.0186C148.69 96.6605 148.83 96.3239 148.901 96.0088C148.973 95.6937 149.009 95.3535 149.009 94.9883C149.009 94.6445 148.962 94.3187 148.869 94.0107C148.776 93.6956 148.633 93.4199 148.439 93.1836C148.246 92.9473 147.995 92.7611 147.688 92.625C147.38 92.4889 147.011 92.4209 146.581 92.4209C145.987 92.4209 145.446 92.5534 144.959 92.8184C144.472 93.0833 144.024 93.4271 143.616 93.8496L142.585 92.6143C143.115 92.0557 143.724 91.6081 144.411 91.2715C145.106 90.9349 145.911 90.7666 146.828 90.7666C147.451 90.7666 148.017 90.8597 148.525 91.0459C149.041 91.2321 149.485 91.5007 149.857 91.8516C150.23 92.2025 150.516 92.6322 150.717 93.1406C150.924 93.6491 151.028 94.222 151.028 94.8594C151.028 95.3965 150.957 95.8942 150.813 96.3525C150.67 96.8109 150.452 97.2692 150.158 97.7275C149.872 98.1787 149.507 98.6478 149.062 99.1348C148.626 99.6217 148.106 100.155 147.505 100.735L144.959 103.217H151.78V105Z" fill="black"/>
<path opacity="0.5" d="M208.512 100.735C208.512 101.351 208.386 101.931 208.136 102.476C207.885 103.013 207.509 103.485 207.008 103.894C206.507 104.295 205.876 104.613 205.117 104.85C204.358 105.079 203.474 105.193 202.464 105.193C201.905 105.193 201.404 105.175 200.96 105.14C200.516 105.104 200.101 105.057 199.714 105V103.324C200.158 103.403 200.627 103.464 201.121 103.507C201.615 103.55 202.12 103.571 202.636 103.571C203.338 103.571 203.936 103.51 204.43 103.389C204.931 103.26 205.339 103.077 205.654 102.841C205.969 102.604 206.199 102.318 206.342 101.981C206.485 101.645 206.557 101.265 206.557 100.843C206.557 100.456 206.471 100.119 206.299 99.833C206.127 99.5465 205.883 99.3066 205.568 99.1133C205.26 98.9199 204.888 98.7767 204.451 98.6836C204.021 98.5833 203.549 98.5332 203.033 98.5332H201.433V96.9971H203.055C203.477 96.9971 203.86 96.9434 204.204 96.8359C204.555 96.7214 204.852 96.5602 205.096 96.3525C205.346 96.1449 205.536 95.8906 205.665 95.5898C205.801 95.2819 205.869 94.9346 205.869 94.5479C205.869 93.7959 205.64 93.248 205.182 92.9043C204.723 92.5605 204.05 92.3887 203.162 92.3887C202.689 92.3887 202.202 92.4352 201.701 92.5283C201.2 92.6214 200.663 92.7611 200.09 92.9473V91.3145C200.333 91.2285 200.591 91.1533 200.863 91.0889C201.143 91.0173 201.418 90.96 201.69 90.917C201.97 90.8669 202.245 90.8311 202.518 90.8096C202.79 90.7809 203.051 90.7666 203.302 90.7666C204.047 90.7666 204.702 90.849 205.268 91.0137C205.833 91.1712 206.306 91.4004 206.686 91.7012C207.065 92.002 207.352 92.3672 207.545 92.7969C207.738 93.2266 207.835 93.71 207.835 94.2471C207.835 95.0492 207.627 95.7223 207.212 96.2666C206.804 96.8109 206.242 97.2441 205.525 97.5664C205.891 97.6237 206.249 97.7383 206.6 97.9102C206.958 98.082 207.276 98.304 207.556 98.5762C207.842 98.8411 208.071 99.1562 208.243 99.5215C208.422 99.8867 208.512 100.291 208.512 100.735Z" fill="black"/>
<path opacity="0.5" d="M265.479 101.896H263.083V105H261.171V101.896H254.414V100.252L260.397 90.96H263.083V100.252H265.479V101.896ZM261.171 92.7646L256.283 100.252H261.171V92.7646Z" fill="black"/>
<path d="M78.6328 74.2178H69.873V71.8154H78.6328V74.2178ZM97.2656 81H84.6533V78.7148L89.6045 73.793C90.415 72.9922 91.0742 72.2988 91.582 71.7129C92.0898 71.127 92.4854 70.5947 92.7686 70.1162C93.0518 69.6279 93.2422 69.1689 93.3398 68.7393C93.4375 68.3096 93.4863 67.8457 93.4863 67.3477C93.4863 66.8789 93.4229 66.4346 93.2959 66.0146C93.1689 65.585 92.9736 65.209 92.71 64.8867C92.4463 64.5645 92.1045 64.3105 91.6846 64.125C91.2646 63.9395 90.7617 63.8467 90.1758 63.8467C89.3652 63.8467 88.6279 64.0273 87.9639 64.3887C87.2998 64.75 86.6895 65.2188 86.1328 65.7949L84.7266 64.1104C85.4492 63.3486 86.2793 62.7383 87.2168 62.2793C88.1641 61.8203 89.2627 61.5908 90.5127 61.5908C91.3623 61.5908 92.1338 61.7178 92.8271 61.9717C93.5303 62.2256 94.1357 62.5918 94.6436 63.0703C95.1514 63.5488 95.542 64.1348 95.8154 64.8281C96.0986 65.5215 96.2402 66.3027 96.2402 67.1719C96.2402 67.9043 96.1426 68.583 95.9473 69.208C95.752 69.833 95.4541 70.458 95.0537 71.083C94.6631 71.6982 94.165 72.3379 93.5596 73.002C92.9639 73.666 92.2559 74.3936 91.4355 75.1846L87.9639 78.5684H97.2656V81Z" fill="black"/>
<path d="M153.152 75.1846C153.152 76.0244 152.981 76.8154 152.64 77.5576C152.298 78.29 151.785 78.9346 151.102 79.4912C150.418 80.0381 149.559 80.4727 148.523 80.7949C147.488 81.1074 146.282 81.2637 144.905 81.2637C144.144 81.2637 143.46 81.2393 142.854 81.1904C142.249 81.1416 141.683 81.0781 141.155 81V78.7148C141.761 78.8223 142.4 78.9053 143.074 78.9639C143.748 79.0225 144.437 79.0518 145.14 79.0518C146.097 79.0518 146.912 78.9688 147.586 78.8027C148.27 78.627 148.826 78.3779 149.256 78.0557C149.686 77.7334 149.998 77.3428 150.193 76.8838C150.389 76.4248 150.486 75.9072 150.486 75.3311C150.486 74.8037 150.369 74.3447 150.135 73.9541C149.9 73.5635 149.568 73.2363 149.139 72.9727C148.719 72.709 148.211 72.5137 147.615 72.3867C147.029 72.25 146.385 72.1816 145.682 72.1816H143.499V70.0869H145.711C146.287 70.0869 146.81 70.0137 147.278 69.8672C147.757 69.7109 148.162 69.4912 148.494 69.208C148.836 68.9248 149.095 68.5781 149.271 68.168C149.456 67.748 149.549 67.2744 149.549 66.7471C149.549 65.7217 149.236 64.9746 148.611 64.5059C147.986 64.0371 147.068 63.8027 145.857 63.8027C145.213 63.8027 144.549 63.8662 143.865 63.9932C143.182 64.1201 142.449 64.3105 141.668 64.5645V62.3379C142 62.2207 142.352 62.1182 142.723 62.0303C143.104 61.9326 143.479 61.8545 143.851 61.7959C144.231 61.7275 144.607 61.6787 144.979 61.6494C145.35 61.6104 145.706 61.5908 146.048 61.5908C147.063 61.5908 147.957 61.7031 148.729 61.9277C149.5 62.1426 150.145 62.4551 150.662 62.8652C151.18 63.2754 151.57 63.7734 151.834 64.3594C152.098 64.9453 152.229 65.6045 152.229 66.3369C152.229 67.4307 151.946 68.3486 151.38 69.0908C150.823 69.833 150.057 70.4238 149.08 70.8633C149.578 70.9414 150.066 71.0977 150.545 71.332C151.033 71.5664 151.468 71.8691 151.849 72.2402C152.239 72.6016 152.552 73.0312 152.786 73.5293C153.03 74.0273 153.152 74.5791 153.152 75.1846Z" fill="black"/>
<path d="M211.471 76.7666H208.204V81H205.597V76.7666H196.383V74.5254L204.542 61.8545H208.204V74.5254H211.471V76.7666ZM205.597 64.3154L198.932 74.5254H205.597V64.3154Z" fill="black"/>
<path d="M267.753 74.9355C267.753 75.8145 267.592 76.6396 267.27 77.4111C266.957 78.1826 266.508 78.8564 265.922 79.4326C265.336 79.999 264.628 80.4482 263.798 80.7803C262.978 81.1025 262.064 81.2637 261.059 81.2637C260.004 81.2637 259.071 81.0977 258.261 80.7656C257.45 80.4238 256.771 79.9062 256.225 79.2129C255.678 78.5098 255.263 77.626 254.979 76.5615C254.696 75.4971 254.555 74.2373 254.555 72.7822C254.555 71.8057 254.618 70.8584 254.745 69.9404C254.872 69.0225 255.082 68.1582 255.375 67.3477C255.668 66.5371 256.059 65.7949 256.547 65.1211C257.035 64.4473 257.641 63.8711 258.363 63.3926C259.096 62.9043 259.955 62.5283 260.941 62.2646C261.928 61.9912 263.07 61.8545 264.369 61.8545H266.259V64.0811H264.208C263.065 64.0811 262.074 64.2178 261.234 64.4912C260.395 64.7646 259.691 65.1504 259.125 65.6484C258.559 66.1465 258.124 66.7471 257.821 67.4502C257.519 68.1533 257.328 68.9395 257.25 69.8086L257.191 70.4092C257.807 70.0479 258.515 69.7598 259.315 69.5449C260.126 69.3203 261 69.208 261.938 69.208C262.904 69.208 263.749 69.3496 264.472 69.6328C265.204 69.916 265.81 70.3115 266.288 70.8193C266.776 71.3174 267.143 71.918 267.387 72.6211C267.631 73.3242 267.753 74.0957 267.753 74.9355ZM265.087 75.0967C265.087 74.5107 265.014 73.9834 264.867 73.5146C264.73 73.0361 264.511 72.6357 264.208 72.3135C263.905 71.9814 263.52 71.7275 263.051 71.5518C262.592 71.3662 262.04 71.2734 261.396 71.2734C261.024 71.2734 260.648 71.3076 260.268 71.376C259.887 71.4443 259.511 71.542 259.14 71.6689C258.778 71.7861 258.432 71.9229 258.1 72.0791C257.768 72.2354 257.465 72.4014 257.191 72.5771C257.191 73.8369 257.279 74.8916 257.455 75.7412C257.631 76.5811 257.89 77.2549 258.231 77.7627C258.583 78.2705 259.013 78.6318 259.521 78.8467C260.028 79.0615 260.614 79.1689 261.278 79.1689C261.835 79.1689 262.343 79.0811 262.802 78.9053C263.271 78.7197 263.671 78.4512 264.003 78.0996C264.345 77.748 264.608 77.3232 264.794 76.8252C264.989 76.3174 265.087 75.7412 265.087 75.0967Z" fill="black"/>
</g>
<defs>
<clipPath id="clip0_6018_154">
<rect width="944" height="105" fill="white"/>
</clipPath>
</defs>
</svg>
