<svg width="563" height="568" viewBox="0 0 563 568" fill="none" xmlns="http://www.w3.org/2000/svg">
<g clip-path="url(#clip0_6185_2850)">
<rect width="563" height="568" fill="white"/>
<path d="M135.354 9.40234H131.003V7.29297H137.932V19.876H142.312V22H130.52V19.876H135.354V9.40234ZM136.247 1.12598C136.53 1.12598 136.794 1.17969 137.038 1.28711C137.282 1.38477 137.492 1.52637 137.668 1.71191C137.854 1.89746 137.995 2.1123 138.093 2.35645C138.2 2.59082 138.254 2.84961 138.254 3.13281C138.254 3.40625 138.2 3.66504 138.093 3.90918C137.995 4.15332 137.854 4.36816 137.668 4.55371C137.492 4.73926 137.282 4.88574 137.038 4.99316C136.794 5.09082 136.53 5.13965 136.247 5.13965C135.964 5.13965 135.7 5.09082 135.456 4.99316C135.212 4.88574 134.997 4.73926 134.812 4.55371C134.636 4.36816 134.494 4.15332 134.387 3.90918C134.289 3.66504 134.24 3.40625 134.24 3.13281C134.24 2.84961 134.289 2.59082 134.387 2.35645C134.494 2.1123 134.636 1.89746 134.812 1.71191C134.997 1.52637 135.212 1.38477 135.456 1.28711C135.7 1.17969 135.964 1.12598 136.247 1.12598ZM146.838 7.29297H149.108L149.211 9.66602C149.641 9.1582 150.056 8.73828 150.456 8.40625C150.856 8.06445 151.247 7.79102 151.628 7.58594C152.019 7.38086 152.414 7.23926 152.814 7.16113C153.215 7.07324 153.63 7.0293 154.06 7.0293C155.573 7.0293 156.716 7.47852 157.487 8.37695C158.269 9.26562 158.659 10.6084 158.659 12.4053V22H156.11V12.6104C156.11 11.458 155.896 10.6084 155.466 10.0615C155.036 9.50488 154.396 9.22656 153.547 9.22656C153.234 9.22656 152.927 9.27539 152.624 9.37305C152.331 9.46094 152.023 9.62207 151.701 9.85645C151.379 10.0811 151.027 10.3887 150.646 10.7793C150.275 11.1699 149.855 11.6582 149.387 12.2441V22H146.838V7.29297ZM174.978 17.9863C174.978 18.5039 174.89 18.9678 174.714 19.3779C174.538 19.7881 174.299 20.1543 173.996 20.4766C173.693 20.7891 173.342 21.0576 172.941 21.2822C172.541 21.5068 172.111 21.6924 171.652 21.8389C171.203 21.9854 170.739 22.0928 170.261 22.1611C169.782 22.2295 169.313 22.2637 168.854 22.2637C167.858 22.2637 166.94 22.2197 166.101 22.1318C165.271 22.0439 164.455 21.9023 163.654 21.707V19.3633C164.514 19.6074 165.368 19.793 166.218 19.9199C167.067 20.0469 167.912 20.1104 168.752 20.1104C169.973 20.1104 170.876 19.9443 171.462 19.6123C172.048 19.2803 172.341 18.8066 172.341 18.1914C172.341 17.9277 172.292 17.6934 172.194 17.4883C172.106 17.2734 171.94 17.0732 171.696 16.8877C171.452 16.6924 171.071 16.4922 170.554 16.2871C170.046 16.082 169.348 15.8477 168.459 15.584C167.795 15.3887 167.18 15.1689 166.613 14.9248C166.057 14.6709 165.573 14.373 165.163 14.0312C164.753 13.6895 164.431 13.2891 164.196 12.8301C163.962 12.3711 163.845 11.8291 163.845 11.2041C163.845 10.7939 163.938 10.3447 164.123 9.85645C164.318 9.36816 164.646 8.91406 165.104 8.49414C165.563 8.07422 166.184 7.72754 166.965 7.4541C167.746 7.1709 168.723 7.0293 169.895 7.0293C170.471 7.0293 171.11 7.06348 171.813 7.13184C172.517 7.19043 173.249 7.29785 174.011 7.4541V9.72461C173.21 9.5293 172.448 9.3877 171.726 9.2998C171.013 9.20215 170.393 9.15332 169.865 9.15332C169.23 9.15332 168.693 9.20215 168.254 9.2998C167.824 9.39746 167.473 9.53418 167.199 9.70996C166.936 9.87598 166.745 10.0762 166.628 10.3105C166.511 10.5352 166.452 10.7793 166.452 11.043C166.452 11.3066 166.501 11.5459 166.599 11.7607C166.706 11.9756 166.896 12.1855 167.17 12.3906C167.453 12.5859 167.844 12.7861 168.342 12.9912C168.84 13.1865 169.489 13.4014 170.29 13.6357C171.159 13.8896 171.892 14.1582 172.487 14.4414C173.083 14.7148 173.566 15.0225 173.938 15.3643C174.309 15.7061 174.572 16.0918 174.729 16.5215C174.895 16.9512 174.978 17.4395 174.978 17.9863ZM192.248 13.8701C192.248 14.2314 192.243 14.5342 192.233 14.7783C192.224 15.0225 192.209 15.252 192.189 15.4668H181.862C181.862 16.9707 182.282 18.1279 183.122 18.9385C183.962 19.7393 185.173 20.1396 186.755 20.1396C187.185 20.1396 187.614 20.125 188.044 20.0957C188.474 20.0566 188.889 20.0078 189.289 19.9492C189.689 19.8906 190.07 19.8271 190.432 19.7588C190.803 19.6807 191.145 19.5977 191.457 19.5098V21.6045C190.764 21.7998 189.978 21.9561 189.099 22.0732C188.229 22.2002 187.326 22.2637 186.389 22.2637C185.129 22.2637 184.045 22.0928 183.137 21.751C182.229 21.4092 181.481 20.916 180.896 20.2715C180.319 19.6172 179.89 18.8213 179.606 17.8838C179.333 16.9365 179.196 15.8672 179.196 14.6758C179.196 13.6406 179.343 12.6641 179.636 11.7461C179.938 10.8184 180.373 10.0078 180.939 9.31445C181.516 8.61133 182.219 8.05469 183.049 7.64453C183.879 7.23438 184.821 7.0293 185.876 7.0293C186.901 7.0293 187.81 7.19043 188.601 7.5127C189.392 7.83496 190.056 8.29395 190.593 8.88965C191.14 9.47559 191.55 10.1934 191.823 11.043C192.106 11.8828 192.248 12.8252 192.248 13.8701ZM189.597 13.5039C189.626 12.8496 189.562 12.2539 189.406 11.7168C189.25 11.1699 189.006 10.7012 188.674 10.3105C188.352 9.91992 187.946 9.61719 187.458 9.40234C186.97 9.17773 186.403 9.06543 185.759 9.06543C185.202 9.06543 184.694 9.17285 184.235 9.3877C183.776 9.60254 183.381 9.90527 183.049 10.2959C182.717 10.6865 182.448 11.1553 182.243 11.7021C182.038 12.249 181.911 12.8496 181.862 13.5039H189.597ZM196.921 7.29297H199.25L199.323 10.0029C200.192 8.95801 201.047 8.20117 201.887 7.73242C202.736 7.26367 203.591 7.0293 204.45 7.0293C205.974 7.0293 207.126 7.52246 207.907 8.50879C208.698 9.49512 209.064 10.96 209.006 12.9033H206.428C206.457 11.6143 206.267 10.6816 205.856 10.1055C205.456 9.51953 204.865 9.22656 204.084 9.22656C203.742 9.22656 203.396 9.29004 203.044 9.41699C202.702 9.53418 202.346 9.72949 201.975 10.0029C201.613 10.2666 201.228 10.6084 200.817 11.0283C200.407 11.4482 199.968 11.9561 199.499 12.5518V22H196.921V7.29297ZM224.665 21.7949C224.089 21.9414 223.493 22.0439 222.878 22.1025C222.263 22.1709 221.638 22.2051 221.003 22.2051C219.157 22.2051 217.78 21.79 216.872 20.96C215.964 20.1201 215.51 18.8359 215.51 17.1074V9.43164H211.394V7.29297H215.51V3.25L218.059 2.59082V7.29297H224.665V9.43164H218.059V16.9023C218.059 17.957 218.337 18.748 218.894 19.2754C219.46 19.793 220.29 20.0518 221.384 20.0518C221.853 20.0518 222.365 20.0176 222.922 19.9492C223.479 19.8711 224.06 19.7539 224.665 19.5977V21.7949ZM245.803 7.29297H248.073L248.176 9.66602C248.605 9.1582 249.021 8.73828 249.421 8.40625C249.821 8.06445 250.212 7.79102 250.593 7.58594C250.983 7.38086 251.379 7.23926 251.779 7.16113C252.18 7.07324 252.595 7.0293 253.024 7.0293C254.538 7.0293 255.681 7.47852 256.452 8.37695C257.233 9.26562 257.624 10.6084 257.624 12.4053V22H255.075V12.6104C255.075 11.458 254.86 10.6084 254.431 10.0615C254.001 9.50488 253.361 9.22656 252.512 9.22656C252.199 9.22656 251.892 9.27539 251.589 9.37305C251.296 9.46094 250.988 9.62207 250.666 9.85645C250.344 10.0811 249.992 10.3887 249.611 10.7793C249.24 11.1699 248.82 11.6582 248.352 12.2441V22H245.803V7.29297ZM274.719 13.8701C274.719 14.2314 274.714 14.5342 274.704 14.7783C274.694 15.0225 274.68 15.252 274.66 15.4668H264.333C264.333 16.9707 264.753 18.1279 265.593 18.9385C266.433 19.7393 267.644 20.1396 269.226 20.1396C269.655 20.1396 270.085 20.125 270.515 20.0957C270.944 20.0566 271.359 20.0078 271.76 19.9492C272.16 19.8906 272.541 19.8271 272.902 19.7588C273.273 19.6807 273.615 19.5977 273.928 19.5098V21.6045C273.234 21.7998 272.448 21.9561 271.569 22.0732C270.7 22.2002 269.797 22.2637 268.859 22.2637C267.6 22.2637 266.516 22.0928 265.607 21.751C264.699 21.4092 263.952 20.916 263.366 20.2715C262.79 19.6172 262.36 18.8213 262.077 17.8838C261.804 16.9365 261.667 15.8672 261.667 14.6758C261.667 13.6406 261.813 12.6641 262.106 11.7461C262.409 10.8184 262.844 10.0078 263.41 9.31445C263.986 8.61133 264.689 8.05469 265.52 7.64453C266.35 7.23438 267.292 7.0293 268.347 7.0293C269.372 7.0293 270.28 7.19043 271.071 7.5127C271.862 7.83496 272.526 8.29395 273.063 8.88965C273.61 9.47559 274.021 10.1934 274.294 11.043C274.577 11.8828 274.719 12.8252 274.719 13.8701ZM272.067 13.5039C272.097 12.8496 272.033 12.2539 271.877 11.7168C271.721 11.1699 271.477 10.7012 271.145 10.3105C270.822 9.91992 270.417 9.61719 269.929 9.40234C269.44 9.17773 268.874 9.06543 268.229 9.06543C267.673 9.06543 267.165 9.17285 266.706 9.3877C266.247 9.60254 265.852 9.90527 265.52 10.2959C265.188 10.6865 264.919 11.1553 264.714 11.7021C264.509 12.249 264.382 12.8496 264.333 13.5039H272.067ZM292.414 7.29297L290.275 22H287.185L285.061 15.8477L284.636 14.3535L284.152 15.9355L282.116 22H279.113L276.989 7.29297H279.479L280.71 17.2832L280.974 19.5098L281.604 17.5615L283.742 10.9551H285.573L287.873 17.4736L288.532 19.4219L288.752 17.3564L289.895 7.29297H292.414ZM311.779 7.29297H314.05L314.152 9.66602C314.582 9.1582 314.997 8.73828 315.397 8.40625C315.798 8.06445 316.188 7.79102 316.569 7.58594C316.96 7.38086 317.355 7.23926 317.756 7.16113C318.156 7.07324 318.571 7.0293 319.001 7.0293C320.515 7.0293 321.657 7.47852 322.429 8.37695C323.21 9.26562 323.601 10.6084 323.601 12.4053V22H321.052V12.6104C321.052 11.458 320.837 10.6084 320.407 10.0615C319.978 9.50488 319.338 9.22656 318.488 9.22656C318.176 9.22656 317.868 9.27539 317.565 9.37305C317.272 9.46094 316.965 9.62207 316.643 9.85645C316.32 10.0811 315.969 10.3887 315.588 10.7793C315.217 11.1699 314.797 11.6582 314.328 12.2441V22H311.779V7.29297ZM341.076 14.5293C341.076 15.6719 340.915 16.7217 340.593 17.6787C340.271 18.626 339.807 19.4414 339.201 20.125C338.596 20.7988 337.858 21.3262 336.989 21.707C336.12 22.0781 335.134 22.2637 334.03 22.2637C332.976 22.2637 332.028 22.1025 331.188 21.7803C330.358 21.4482 329.65 20.9648 329.064 20.3301C328.488 19.6953 328.044 18.9092 327.731 17.9717C327.429 17.0342 327.277 15.9551 327.277 14.7344C327.277 13.5918 327.438 12.5518 327.761 11.6143C328.083 10.667 328.547 9.85645 329.152 9.18262C329.758 8.49902 330.495 7.97168 331.364 7.60059C332.233 7.21973 333.22 7.0293 334.323 7.0293C335.378 7.0293 336.32 7.19531 337.15 7.52734C337.99 7.84961 338.698 8.32812 339.274 8.96289C339.86 9.58789 340.305 10.3691 340.607 11.3066C340.92 12.2441 341.076 13.3184 341.076 14.5293ZM338.469 14.6465C338.469 13.7383 338.366 12.9473 338.161 12.2734C337.966 11.5898 337.683 11.0234 337.312 10.5742C336.94 10.1152 336.486 9.77344 335.949 9.54883C335.422 9.31445 334.831 9.19727 334.177 9.19727C333.415 9.19727 332.761 9.34863 332.214 9.65137C331.677 9.94434 331.232 10.3398 330.881 10.8379C330.539 11.3359 330.285 11.917 330.119 12.5811C329.963 13.2354 329.885 13.9238 329.885 14.6465C329.885 15.5547 329.982 16.3506 330.178 17.0342C330.383 17.7178 330.671 18.2891 331.042 18.748C331.413 19.1973 331.862 19.5391 332.39 19.7734C332.917 19.998 333.513 20.1104 334.177 20.1104C334.938 20.1104 335.588 19.9639 336.125 19.6709C336.672 19.3682 337.116 18.9678 337.458 18.4697C337.81 17.9717 338.063 17.3955 338.22 16.7412C338.386 16.0771 338.469 15.3789 338.469 14.6465ZM344.021 14.9541C344.021 13.7041 344.191 12.5957 344.533 11.6289C344.875 10.6523 345.358 9.83203 345.983 9.16797C346.618 8.49414 347.375 7.98633 348.254 7.64453C349.143 7.29297 350.129 7.11719 351.213 7.11719C351.682 7.11719 352.141 7.14648 352.59 7.20508C353.049 7.26367 353.498 7.35645 353.938 7.4834V1.30176H356.501V22H354.216L354.128 19.2168C353.415 20.252 352.644 21.0186 351.813 21.5166C350.983 22.0146 350.085 22.2637 349.118 22.2637C348.278 22.2637 347.536 22.0879 346.892 21.7363C346.257 21.3848 345.725 20.8916 345.295 20.2568C344.875 19.6123 344.558 18.8408 344.343 17.9424C344.128 17.0439 344.021 16.0479 344.021 14.9541ZM346.628 14.793C346.628 16.5703 346.887 17.8984 347.404 18.7773C347.932 19.6465 348.674 20.0811 349.631 20.0811C350.275 20.0811 350.954 19.793 351.667 19.2168C352.39 18.6406 353.146 17.7861 353.938 16.6533V9.82715C353.518 9.63184 353.054 9.48535 352.546 9.3877C352.038 9.28027 351.535 9.22656 351.037 9.22656C349.65 9.22656 348.566 9.67578 347.785 10.5742C347.014 11.4727 346.628 12.8789 346.628 14.793ZM373.684 13.8701C373.684 14.2314 373.679 14.5342 373.669 14.7783C373.659 15.0225 373.645 15.252 373.625 15.4668H363.298C363.298 16.9707 363.718 18.1279 364.558 18.9385C365.397 19.7393 366.608 20.1396 368.19 20.1396C368.62 20.1396 369.05 20.125 369.479 20.0957C369.909 20.0566 370.324 20.0078 370.725 19.9492C371.125 19.8906 371.506 19.8271 371.867 19.7588C372.238 19.6807 372.58 19.5977 372.893 19.5098V21.6045C372.199 21.7998 371.413 21.9561 370.534 22.0732C369.665 22.2002 368.762 22.2637 367.824 22.2637C366.564 22.2637 365.48 22.0928 364.572 21.751C363.664 21.4092 362.917 20.916 362.331 20.2715C361.755 19.6172 361.325 18.8213 361.042 17.8838C360.769 16.9365 360.632 15.8672 360.632 14.6758C360.632 13.6406 360.778 12.6641 361.071 11.7461C361.374 10.8184 361.809 10.0078 362.375 9.31445C362.951 8.61133 363.654 8.05469 364.484 7.64453C365.314 7.23438 366.257 7.0293 367.312 7.0293C368.337 7.0293 369.245 7.19043 370.036 7.5127C370.827 7.83496 371.491 8.29395 372.028 8.88965C372.575 9.47559 372.985 10.1934 373.259 11.043C373.542 11.8828 373.684 12.8252 373.684 13.8701ZM371.032 13.5039C371.062 12.8496 370.998 12.2539 370.842 11.7168C370.686 11.1699 370.441 10.7012 370.109 10.3105C369.787 9.91992 369.382 9.61719 368.894 9.40234C368.405 9.17773 367.839 9.06543 367.194 9.06543C366.638 9.06543 366.13 9.17285 365.671 9.3877C365.212 9.60254 364.816 9.90527 364.484 10.2959C364.152 10.6865 363.884 11.1553 363.679 11.7021C363.474 12.249 363.347 12.8496 363.298 13.5039H371.032ZM383.659 7.0293C383.962 7.0293 384.25 7.09277 384.523 7.21973C384.797 7.33691 385.036 7.49805 385.241 7.70312C385.446 7.9082 385.607 8.14746 385.725 8.4209C385.852 8.69434 385.915 8.98242 385.915 9.28516C385.915 9.59766 385.852 9.89062 385.725 10.1641C385.607 10.4277 385.446 10.6621 385.241 10.8672C385.036 11.0723 384.797 11.2334 384.523 11.3506C384.25 11.4678 383.962 11.5264 383.659 11.5264C383.347 11.5264 383.054 11.4678 382.78 11.3506C382.517 11.2334 382.282 11.0723 382.077 10.8672C381.872 10.6621 381.711 10.4277 381.594 10.1641C381.477 9.89062 381.418 9.59766 381.418 9.28516C381.418 8.98242 381.477 8.69434 381.594 8.4209C381.711 8.14746 381.872 7.9082 382.077 7.70312C382.282 7.49805 382.517 7.33691 382.78 7.21973C383.054 7.09277 383.347 7.0293 383.659 7.0293ZM383.659 17.7666C383.962 17.7666 384.25 17.8301 384.523 17.957C384.797 18.0742 385.036 18.2354 385.241 18.4404C385.446 18.6455 385.607 18.8848 385.725 19.1582C385.852 19.4316 385.915 19.7197 385.915 20.0225C385.915 20.335 385.852 20.6279 385.725 20.9014C385.607 21.165 385.446 21.3994 385.241 21.6045C385.036 21.8096 384.797 21.9707 384.523 22.0879C384.25 22.2051 383.962 22.2637 383.659 22.2637C383.347 22.2637 383.054 22.2051 382.78 22.0879C382.517 21.9707 382.282 21.8096 382.077 21.6045C381.872 21.3994 381.711 21.165 381.594 20.9014C381.477 20.6279 381.418 20.335 381.418 20.0225C381.418 19.7197 381.477 19.4316 381.594 19.1582C381.711 18.8848 381.872 18.6455 382.077 18.4404C382.282 18.2354 382.517 18.0742 382.78 17.957C383.054 17.8301 383.347 17.7666 383.659 17.7666Z" fill="black"/>
<circle cx="261" cy="135" r="23.75" stroke="black" stroke-width="2.5"/>
<path d="M267.652 139.185C267.652 140.024 267.481 140.815 267.14 141.558C266.798 142.29 266.285 142.935 265.602 143.491C264.918 144.038 264.059 144.473 263.023 144.795C261.988 145.107 260.782 145.264 259.405 145.264C258.644 145.264 257.96 145.239 257.354 145.19C256.749 145.142 256.183 145.078 255.655 145V142.715C256.261 142.822 256.9 142.905 257.574 142.964C258.248 143.022 258.937 143.052 259.64 143.052C260.597 143.052 261.412 142.969 262.086 142.803C262.77 142.627 263.326 142.378 263.756 142.056C264.186 141.733 264.498 141.343 264.693 140.884C264.889 140.425 264.986 139.907 264.986 139.331C264.986 138.804 264.869 138.345 264.635 137.954C264.4 137.563 264.068 137.236 263.639 136.973C263.219 136.709 262.711 136.514 262.115 136.387C261.529 136.25 260.885 136.182 260.182 136.182H257.999V134.087H260.211C260.787 134.087 261.31 134.014 261.778 133.867C262.257 133.711 262.662 133.491 262.994 133.208C263.336 132.925 263.595 132.578 263.771 132.168C263.956 131.748 264.049 131.274 264.049 130.747C264.049 129.722 263.736 128.975 263.111 128.506C262.486 128.037 261.568 127.803 260.357 127.803C259.713 127.803 259.049 127.866 258.365 127.993C257.682 128.12 256.949 128.311 256.168 128.564V126.338C256.5 126.221 256.852 126.118 257.223 126.03C257.604 125.933 257.979 125.854 258.351 125.796C258.731 125.728 259.107 125.679 259.479 125.649C259.85 125.61 260.206 125.591 260.548 125.591C261.563 125.591 262.457 125.703 263.229 125.928C264 126.143 264.645 126.455 265.162 126.865C265.68 127.275 266.07 127.773 266.334 128.359C266.598 128.945 266.729 129.604 266.729 130.337C266.729 131.431 266.446 132.349 265.88 133.091C265.323 133.833 264.557 134.424 263.58 134.863C264.078 134.941 264.566 135.098 265.045 135.332C265.533 135.566 265.968 135.869 266.349 136.24C266.739 136.602 267.052 137.031 267.286 137.529C267.53 138.027 267.652 138.579 267.652 139.185Z" fill="black"/>
<circle cx="30" cy="236" r="23.75" stroke="black" stroke-width="2.5"/>
<circle cx="184" cy="236" r="23.75" stroke="black" stroke-width="2.5"/>
<circle cx="338" cy="236" r="23.75" stroke="black" stroke-width="2.5"/>
<circle cx="492" cy="236" r="23.75" stroke="black" stroke-width="2.5"/>
<path d="M77.9844 220.234H79.8008L79.8828 222.133C80.2266 221.727 80.5586 221.391 80.8789 221.125C81.1992 220.852 81.5117 220.633 81.8164 220.469C82.1289 220.305 82.4453 220.191 82.7656 220.129C83.0859 220.059 83.418 220.023 83.7617 220.023C84.9727 220.023 85.8867 220.383 86.5039 221.102C87.1289 221.812 87.4414 222.887 87.4414 224.324V232H85.4023V224.488C85.4023 223.566 85.2305 222.887 84.8867 222.449C84.543 222.004 84.0312 221.781 83.3516 221.781C83.1016 221.781 82.8555 221.82 82.6133 221.898C82.3789 221.969 82.1328 222.098 81.875 222.285C81.6172 222.465 81.3359 222.711 81.0312 223.023C80.7344 223.336 80.3984 223.727 80.0234 224.195V232H77.9844V220.234ZM101.117 225.496C101.117 225.785 101.113 226.027 101.105 226.223C101.098 226.418 101.086 226.602 101.07 226.773H92.8086C92.8086 227.977 93.1445 228.902 93.8164 229.551C94.4883 230.191 95.457 230.512 96.7227 230.512C97.0664 230.512 97.4102 230.5 97.7539 230.477C98.0977 230.445 98.4297 230.406 98.75 230.359C99.0703 230.312 99.375 230.262 99.6641 230.207C99.9609 230.145 100.234 230.078 100.484 230.008V231.684C99.9297 231.84 99.3008 231.965 98.5977 232.059C97.9023 232.16 97.1797 232.211 96.4297 232.211C95.4219 232.211 94.5547 232.074 93.8281 231.801C93.1016 231.527 92.5039 231.133 92.0352 230.617C91.5742 230.094 91.2305 229.457 91.0039 228.707C90.7852 227.949 90.6758 227.094 90.6758 226.141C90.6758 225.312 90.793 224.531 91.0273 223.797C91.2695 223.055 91.6172 222.406 92.0703 221.852C92.5312 221.289 93.0938 220.844 93.7578 220.516C94.4219 220.188 95.1758 220.023 96.0195 220.023C96.8398 220.023 97.5664 220.152 98.1992 220.41C98.832 220.668 99.3633 221.035 99.793 221.512C100.23 221.98 100.559 222.555 100.777 223.234C101.004 223.906 101.117 224.66 101.117 225.496ZM98.9961 225.203C99.0195 224.68 98.9688 224.203 98.8438 223.773C98.7188 223.336 98.5234 222.961 98.2578 222.648C98 222.336 97.6758 222.094 97.2852 221.922C96.8945 221.742 96.4414 221.652 95.9258 221.652C95.4805 221.652 95.0742 221.738 94.707 221.91C94.3398 222.082 94.0234 222.324 93.7578 222.637C93.4922 222.949 93.2773 223.324 93.1133 223.762C92.9492 224.199 92.8477 224.68 92.8086 225.203H98.9961ZM114.98 232H112.273L109.098 227.512L105.957 232H103.32L107.879 226.094L103.531 220.234H106.145L109.238 224.758L112.273 220.234H114.793L110.375 226.141L114.98 232ZM127.051 231.836C126.59 231.953 126.113 232.035 125.621 232.082C125.129 232.137 124.629 232.164 124.121 232.164C122.645 232.164 121.543 231.832 120.816 231.168C120.09 230.496 119.727 229.469 119.727 228.086V221.945H116.434V220.234H119.727V217L121.766 216.473V220.234H127.051V221.945H121.766V227.922C121.766 228.766 121.988 229.398 122.434 229.82C122.887 230.234 123.551 230.441 124.426 230.441C124.801 230.441 125.211 230.414 125.656 230.359C126.102 230.297 126.566 230.203 127.051 230.078V231.836Z" fill="#00B2FF"/>
<path d="M231.984 220.234H233.801L233.883 222.133C234.227 221.727 234.559 221.391 234.879 221.125C235.199 220.852 235.512 220.633 235.816 220.469C236.129 220.305 236.445 220.191 236.766 220.129C237.086 220.059 237.418 220.023 237.762 220.023C238.973 220.023 239.887 220.383 240.504 221.102C241.129 221.812 241.441 222.887 241.441 224.324V232H239.402V224.488C239.402 223.566 239.23 222.887 238.887 222.449C238.543 222.004 238.031 221.781 237.352 221.781C237.102 221.781 236.855 221.82 236.613 221.898C236.379 221.969 236.133 222.098 235.875 222.285C235.617 222.465 235.336 222.711 235.031 223.023C234.734 223.336 234.398 223.727 234.023 224.195V232H231.984V220.234ZM255.117 225.496C255.117 225.785 255.113 226.027 255.105 226.223C255.098 226.418 255.086 226.602 255.07 226.773H246.809C246.809 227.977 247.145 228.902 247.816 229.551C248.488 230.191 249.457 230.512 250.723 230.512C251.066 230.512 251.41 230.5 251.754 230.477C252.098 230.445 252.43 230.406 252.75 230.359C253.07 230.312 253.375 230.262 253.664 230.207C253.961 230.145 254.234 230.078 254.484 230.008V231.684C253.93 231.84 253.301 231.965 252.598 232.059C251.902 232.16 251.18 232.211 250.43 232.211C249.422 232.211 248.555 232.074 247.828 231.801C247.102 231.527 246.504 231.133 246.035 230.617C245.574 230.094 245.23 229.457 245.004 228.707C244.785 227.949 244.676 227.094 244.676 226.141C244.676 225.312 244.793 224.531 245.027 223.797C245.27 223.055 245.617 222.406 246.07 221.852C246.531 221.289 247.094 220.844 247.758 220.516C248.422 220.188 249.176 220.023 250.02 220.023C250.84 220.023 251.566 220.152 252.199 220.41C252.832 220.668 253.363 221.035 253.793 221.512C254.23 221.98 254.559 222.555 254.777 223.234C255.004 223.906 255.117 224.66 255.117 225.496ZM252.996 225.203C253.02 224.68 252.969 224.203 252.844 223.773C252.719 223.336 252.523 222.961 252.258 222.648C252 222.336 251.676 222.094 251.285 221.922C250.895 221.742 250.441 221.652 249.926 221.652C249.48 221.652 249.074 221.738 248.707 221.91C248.34 222.082 248.023 222.324 247.758 222.637C247.492 222.949 247.277 223.324 247.113 223.762C246.949 224.199 246.848 224.68 246.809 225.203H252.996ZM268.98 232H266.273L263.098 227.512L259.957 232H257.32L261.879 226.094L257.531 220.234H260.145L263.238 224.758L266.273 220.234H268.793L264.375 226.141L268.98 232ZM281.051 231.836C280.59 231.953 280.113 232.035 279.621 232.082C279.129 232.137 278.629 232.164 278.121 232.164C276.645 232.164 275.543 231.832 274.816 231.168C274.09 230.496 273.727 229.469 273.727 228.086V221.945H270.434V220.234H273.727V217L275.766 216.473V220.234H281.051V221.945H275.766V227.922C275.766 228.766 275.988 229.398 276.434 229.82C276.887 230.234 277.551 230.441 278.426 230.441C278.801 230.441 279.211 230.414 279.656 230.359C280.102 230.297 280.566 230.203 281.051 230.078V231.836Z" fill="#00B2FF"/>
<path d="M386.984 220.234H388.801L388.883 222.133C389.227 221.727 389.559 221.391 389.879 221.125C390.199 220.852 390.512 220.633 390.816 220.469C391.129 220.305 391.445 220.191 391.766 220.129C392.086 220.059 392.418 220.023 392.762 220.023C393.973 220.023 394.887 220.383 395.504 221.102C396.129 221.812 396.441 222.887 396.441 224.324V232H394.402V224.488C394.402 223.566 394.23 222.887 393.887 222.449C393.543 222.004 393.031 221.781 392.352 221.781C392.102 221.781 391.855 221.82 391.613 221.898C391.379 221.969 391.133 222.098 390.875 222.285C390.617 222.465 390.336 222.711 390.031 223.023C389.734 223.336 389.398 223.727 389.023 224.195V232H386.984V220.234ZM410.117 225.496C410.117 225.785 410.113 226.027 410.105 226.223C410.098 226.418 410.086 226.602 410.07 226.773H401.809C401.809 227.977 402.145 228.902 402.816 229.551C403.488 230.191 404.457 230.512 405.723 230.512C406.066 230.512 406.41 230.5 406.754 230.477C407.098 230.445 407.43 230.406 407.75 230.359C408.07 230.312 408.375 230.262 408.664 230.207C408.961 230.145 409.234 230.078 409.484 230.008V231.684C408.93 231.84 408.301 231.965 407.598 232.059C406.902 232.16 406.18 232.211 405.43 232.211C404.422 232.211 403.555 232.074 402.828 231.801C402.102 231.527 401.504 231.133 401.035 230.617C400.574 230.094 400.23 229.457 400.004 228.707C399.785 227.949 399.676 227.094 399.676 226.141C399.676 225.312 399.793 224.531 400.027 223.797C400.27 223.055 400.617 222.406 401.07 221.852C401.531 221.289 402.094 220.844 402.758 220.516C403.422 220.188 404.176 220.023 405.02 220.023C405.84 220.023 406.566 220.152 407.199 220.41C407.832 220.668 408.363 221.035 408.793 221.512C409.23 221.98 409.559 222.555 409.777 223.234C410.004 223.906 410.117 224.66 410.117 225.496ZM407.996 225.203C408.02 224.68 407.969 224.203 407.844 223.773C407.719 223.336 407.523 222.961 407.258 222.648C407 222.336 406.676 222.094 406.285 221.922C405.895 221.742 405.441 221.652 404.926 221.652C404.48 221.652 404.074 221.738 403.707 221.91C403.34 222.082 403.023 222.324 402.758 222.637C402.492 222.949 402.277 223.324 402.113 223.762C401.949 224.199 401.848 224.68 401.809 225.203H407.996ZM423.98 232H421.273L418.098 227.512L414.957 232H412.32L416.879 226.094L412.531 220.234H415.145L418.238 224.758L421.273 220.234H423.793L419.375 226.141L423.98 232ZM436.051 231.836C435.59 231.953 435.113 232.035 434.621 232.082C434.129 232.137 433.629 232.164 433.121 232.164C431.645 232.164 430.543 231.832 429.816 231.168C429.09 230.496 428.727 229.469 428.727 228.086V221.945H425.434V220.234H428.727V217L430.766 216.473V220.234H436.051V221.945H430.766V227.922C430.766 228.766 430.988 229.398 431.434 229.82C431.887 230.234 432.551 230.441 433.426 230.441C433.801 230.441 434.211 230.414 434.656 230.359C435.102 230.297 435.566 230.203 436.051 230.078V231.836Z" fill="#00B2FF"/>
<path d="M36.8574 246H24.8311V243.627H29.7529V229.652L25.168 232.143L24.2305 229.975L30.3242 226.767H32.5801V243.627H36.8574V246Z" fill="black"/>
<path d="M191.019 246H178.406V243.715L183.357 238.793C184.168 237.992 184.827 237.299 185.335 236.713C185.843 236.127 186.238 235.595 186.521 235.116C186.805 234.628 186.995 234.169 187.093 233.739C187.19 233.31 187.239 232.846 187.239 232.348C187.239 231.879 187.176 231.435 187.049 231.015C186.922 230.585 186.727 230.209 186.463 229.887C186.199 229.564 185.857 229.311 185.438 229.125C185.018 228.939 184.515 228.847 183.929 228.847C183.118 228.847 182.381 229.027 181.717 229.389C181.053 229.75 180.442 230.219 179.886 230.795L178.479 229.11C179.202 228.349 180.032 227.738 180.97 227.279C181.917 226.82 183.016 226.591 184.266 226.591C185.115 226.591 185.887 226.718 186.58 226.972C187.283 227.226 187.889 227.592 188.396 228.07C188.904 228.549 189.295 229.135 189.568 229.828C189.852 230.521 189.993 231.303 189.993 232.172C189.993 232.904 189.896 233.583 189.7 234.208C189.505 234.833 189.207 235.458 188.807 236.083C188.416 236.698 187.918 237.338 187.312 238.002C186.717 238.666 186.009 239.394 185.188 240.185L181.717 243.568H191.019V246Z" fill="black"/>
<path d="M345.971 241.767H342.704V246H340.097V241.767H330.883V239.525L339.042 226.854H342.704V239.525H345.971V241.767ZM340.097 229.315L333.432 239.525H340.097V229.315Z" fill="black"/>
<path d="M498.535 239.877C498.535 240.824 498.33 241.688 497.92 242.47C497.51 243.251 496.943 243.925 496.221 244.491C495.508 245.048 494.663 245.482 493.687 245.795C492.71 246.107 491.655 246.264 490.522 246.264C490.239 246.264 489.932 246.254 489.6 246.234C489.277 246.225 488.955 246.205 488.633 246.176C488.311 246.156 487.993 246.132 487.681 246.103C487.378 246.073 487.104 246.039 486.86 246V243.686C487.388 243.812 487.988 243.905 488.662 243.964C489.346 244.022 490.034 244.052 490.728 244.052C491.509 244.052 492.212 243.959 492.837 243.773C493.462 243.588 493.994 243.324 494.434 242.982C494.873 242.631 495.21 242.211 495.444 241.723C495.679 241.225 495.796 240.668 495.796 240.053C495.796 238.861 495.366 237.997 494.507 237.46C493.657 236.913 492.432 236.64 490.83 236.64H487.197V226.854H497.51V229.081H489.6V234.457H491.27C492.188 234.457 493.081 234.54 493.95 234.706C494.819 234.872 495.591 235.165 496.265 235.585C496.948 235.995 497.495 236.552 497.905 237.255C498.325 237.948 498.535 238.822 498.535 239.877Z" fill="black"/>
<path d="M155.884 236.884C156.372 236.396 156.372 235.604 155.884 235.116L147.929 227.161C147.441 226.673 146.649 226.673 146.161 227.161C145.673 227.649 145.673 228.441 146.161 228.929L153.232 236L146.161 243.071C145.673 243.559 145.673 244.351 146.161 244.839C146.649 245.327 147.441 245.327 147.929 244.839L155.884 236.884ZM55 237.25H155V234.75H55V237.25Z" fill="#00B2FF"/>
<path d="M309.884 236.884C310.372 236.396 310.372 235.604 309.884 235.116L301.929 227.161C301.441 226.673 300.649 226.673 300.161 227.161C299.673 227.649 299.673 228.441 300.161 228.929L307.232 236L300.161 243.071C299.673 243.559 299.673 244.351 300.161 244.839C300.649 245.327 301.441 245.327 301.929 244.839L309.884 236.884ZM209 237.25H309V234.75H209V237.25Z" fill="#00B2FF"/>
<path d="M463.884 236.884C464.372 236.396 464.372 235.604 463.884 235.116L455.929 227.161C455.441 226.673 454.649 226.673 454.161 227.161C453.673 227.649 453.673 228.441 454.161 228.929L461.232 236L454.161 243.071C453.673 243.559 453.673 244.351 454.161 244.839C454.649 245.327 455.441 245.327 455.929 244.839L463.884 236.884ZM363 237.25H463V234.75H363V237.25Z" fill="#00B2FF"/>
<path d="M261 345L272.547 325L249.453 325L261 345ZM259 267L259 327L263 327L263 267L259 267Z" fill="black"/>
<path d="M76.8926 387L76.8418 385.286C76.1478 385.972 75.4411 386.467 74.7217 386.771C74.0107 387.076 73.2617 387.229 72.4746 387.229C71.7467 387.229 71.1247 387.135 70.6084 386.949C70.0921 386.763 69.6647 386.509 69.3262 386.188C68.9961 385.857 68.7507 385.472 68.5898 385.032C68.4375 384.592 68.3613 384.114 68.3613 383.598C68.3613 382.32 68.8353 381.321 69.7832 380.602C70.7396 379.874 72.1488 379.51 74.0107 379.51H76.6514V378.393C76.6514 377.639 76.4102 377.038 75.9277 376.59C75.4453 376.133 74.709 375.904 73.7188 375.904C72.9993 375.904 72.2884 375.985 71.5859 376.146C70.8919 376.306 70.1725 376.535 69.4277 376.831V374.838C69.707 374.736 70.016 374.639 70.3545 374.546C70.7015 374.444 71.0654 374.355 71.4463 374.279C71.8271 374.203 72.2249 374.144 72.6396 374.102C73.0544 374.051 73.4733 374.025 73.8965 374.025C74.6667 374.025 75.3607 374.11 75.9785 374.279C76.5964 374.449 77.1169 374.707 77.54 375.054C77.9717 375.401 78.3018 375.837 78.5303 376.361C78.7588 376.886 78.873 377.504 78.873 378.215V387H76.8926ZM76.6514 381.198H73.8457C73.2956 381.198 72.8216 381.253 72.4238 381.363C72.026 381.473 71.7002 381.63 71.4463 381.833C71.1924 382.036 71.002 382.282 70.875 382.569C70.7565 382.849 70.6973 383.166 70.6973 383.521C70.6973 383.767 70.7354 384.004 70.8115 384.232C70.8877 384.452 71.0104 384.651 71.1797 384.829C71.349 384.998 71.569 385.134 71.8398 385.235C72.1107 385.337 72.4408 385.388 72.8301 385.388C73.3379 385.388 73.9176 385.235 74.5693 384.931C75.2295 384.618 75.9235 384.127 76.6514 383.458V381.198ZM82.3516 380.894C82.3516 379.81 82.4997 378.85 82.7959 378.012C83.0921 377.165 83.5111 376.454 84.0527 375.879C84.6029 375.295 85.2588 374.855 86.0205 374.559C86.7907 374.254 87.6455 374.102 88.585 374.102C88.9912 374.102 89.389 374.127 89.7783 374.178C90.1761 374.229 90.5654 374.309 90.9463 374.419V369.062H93.168V387H91.1875L91.1113 384.588C90.4935 385.485 89.8249 386.149 89.1055 386.581C88.3861 387.013 87.6074 387.229 86.7695 387.229C86.0417 387.229 85.3984 387.076 84.8398 386.771C84.2897 386.467 83.8285 386.039 83.4561 385.489C83.0921 384.931 82.8171 384.262 82.6309 383.483C82.4447 382.705 82.3516 381.841 82.3516 380.894ZM84.6113 380.754C84.6113 382.294 84.8356 383.445 85.2842 384.207C85.7412 384.96 86.3844 385.337 87.2139 385.337C87.7725 385.337 88.3607 385.087 88.9785 384.588C89.6048 384.089 90.2607 383.348 90.9463 382.366V376.45C90.5824 376.281 90.1803 376.154 89.7402 376.069C89.3001 375.976 88.8643 375.93 88.4326 375.93C87.2308 375.93 86.2913 376.319 85.6143 377.098C84.9456 377.876 84.6113 379.095 84.6113 380.754ZM96.6465 380.894C96.6465 379.81 96.7946 378.85 97.0908 378.012C97.387 377.165 97.806 376.454 98.3477 375.879C98.8978 375.295 99.5537 374.855 100.315 374.559C101.086 374.254 101.94 374.102 102.88 374.102C103.286 374.102 103.684 374.127 104.073 374.178C104.471 374.229 104.86 374.309 105.241 374.419V369.062H107.463V387H105.482L105.406 384.588C104.788 385.485 104.12 386.149 103.4 386.581C102.681 387.013 101.902 387.229 101.064 387.229C100.337 387.229 99.6934 387.076 99.1348 386.771C98.5846 386.467 98.1234 386.039 97.751 385.489C97.387 384.931 97.112 384.262 96.9258 383.483C96.7396 382.705 96.6465 381.841 96.6465 380.894ZM98.9062 380.754C98.9062 382.294 99.1305 383.445 99.5791 384.207C100.036 384.96 100.679 385.337 101.509 385.337C102.067 385.337 102.656 385.087 103.273 384.588C103.9 384.089 104.556 383.348 105.241 382.366V376.45C104.877 376.281 104.475 376.154 104.035 376.069C103.595 375.976 103.159 375.93 102.728 375.93C101.526 375.93 100.586 376.319 99.9092 377.098C99.2406 377.876 98.9062 379.095 98.9062 380.754ZM134.072 387L134.021 385.286C133.327 385.972 132.621 386.467 131.901 386.771C131.19 387.076 130.441 387.229 129.654 387.229C128.926 387.229 128.304 387.135 127.788 386.949C127.272 386.763 126.844 386.509 126.506 386.188C126.176 385.857 125.93 385.472 125.77 385.032C125.617 384.592 125.541 384.114 125.541 383.598C125.541 382.32 126.015 381.321 126.963 380.602C127.919 379.874 129.328 379.51 131.19 379.51H133.831V378.393C133.831 377.639 133.59 377.038 133.107 376.59C132.625 376.133 131.889 375.904 130.898 375.904C130.179 375.904 129.468 375.985 128.766 376.146C128.072 376.306 127.352 376.535 126.607 376.831V374.838C126.887 374.736 127.196 374.639 127.534 374.546C127.881 374.444 128.245 374.355 128.626 374.279C129.007 374.203 129.405 374.144 129.819 374.102C130.234 374.051 130.653 374.025 131.076 374.025C131.846 374.025 132.54 374.11 133.158 374.279C133.776 374.449 134.297 374.707 134.72 375.054C135.151 375.401 135.481 375.837 135.71 376.361C135.938 376.886 136.053 377.504 136.053 378.215V387H134.072ZM133.831 381.198H131.025C130.475 381.198 130.001 381.253 129.604 381.363C129.206 381.473 128.88 381.63 128.626 381.833C128.372 382.036 128.182 382.282 128.055 382.569C127.936 382.849 127.877 383.166 127.877 383.521C127.877 383.767 127.915 384.004 127.991 384.232C128.067 384.452 128.19 384.651 128.359 384.829C128.529 384.998 128.749 385.134 129.02 385.235C129.29 385.337 129.62 385.388 130.01 385.388C130.518 385.388 131.097 385.235 131.749 384.931C132.409 384.618 133.103 384.127 133.831 383.458V381.198ZM140.699 374.254H142.718L142.781 376.603C143.535 375.697 144.275 375.041 145.003 374.635C145.739 374.229 146.48 374.025 147.225 374.025C148.545 374.025 149.544 374.453 150.221 375.308C150.906 376.162 151.224 377.432 151.173 379.116H148.938C148.964 377.999 148.799 377.191 148.443 376.691C148.096 376.184 147.584 375.93 146.907 375.93C146.611 375.93 146.311 375.985 146.006 376.095C145.71 376.196 145.401 376.366 145.079 376.603C144.766 376.831 144.432 377.127 144.076 377.491C143.721 377.855 143.34 378.295 142.934 378.812V387H140.699V374.254ZM154.994 374.254H157.013L157.076 376.603C157.829 375.697 158.57 375.041 159.298 374.635C160.034 374.229 160.775 374.025 161.52 374.025C162.84 374.025 163.839 374.453 164.516 375.308C165.201 376.162 165.519 377.432 165.468 379.116H163.233C163.259 377.999 163.094 377.191 162.738 376.691C162.391 376.184 161.879 375.93 161.202 375.93C160.906 375.93 160.605 375.985 160.301 376.095C160.005 376.196 159.696 376.366 159.374 376.603C159.061 376.831 158.727 377.127 158.371 377.491C158.016 377.855 157.635 378.295 157.229 378.812V387H154.994V374.254ZM179.864 380.525C179.864 381.516 179.725 382.425 179.445 383.255C179.166 384.076 178.764 384.783 178.239 385.375C177.715 385.959 177.076 386.416 176.322 386.746C175.569 387.068 174.714 387.229 173.758 387.229C172.844 387.229 172.023 387.089 171.295 386.81C170.576 386.522 169.962 386.103 169.454 385.553C168.955 385.003 168.57 384.321 168.299 383.509C168.036 382.696 167.905 381.761 167.905 380.703C167.905 379.713 168.045 378.812 168.324 377.999C168.604 377.178 169.006 376.476 169.53 375.892C170.055 375.299 170.694 374.842 171.447 374.521C172.201 374.19 173.055 374.025 174.012 374.025C174.926 374.025 175.743 374.169 176.462 374.457C177.19 374.736 177.803 375.151 178.303 375.701C178.811 376.243 179.196 376.92 179.458 377.732C179.729 378.545 179.864 379.476 179.864 380.525ZM177.604 380.627C177.604 379.84 177.516 379.154 177.338 378.57C177.169 377.978 176.923 377.487 176.602 377.098C176.28 376.7 175.886 376.404 175.421 376.209C174.964 376.006 174.452 375.904 173.885 375.904C173.225 375.904 172.658 376.035 172.184 376.298C171.718 376.552 171.333 376.895 171.028 377.326C170.732 377.758 170.512 378.261 170.368 378.837C170.233 379.404 170.165 380.001 170.165 380.627C170.165 381.414 170.25 382.104 170.419 382.696C170.597 383.289 170.846 383.784 171.168 384.182C171.49 384.571 171.879 384.867 172.336 385.07C172.793 385.265 173.309 385.362 173.885 385.362C174.545 385.362 175.108 385.235 175.573 384.981C176.047 384.719 176.432 384.372 176.729 383.94C177.033 383.509 177.253 383.009 177.389 382.442C177.533 381.867 177.604 381.262 177.604 380.627ZM194.87 374.254L193.017 387H190.338L188.497 381.668L188.129 380.373L187.71 381.744L185.945 387H183.343L181.502 374.254H183.66L184.727 382.912L184.955 384.842L185.501 383.153L187.354 377.428H188.941L190.935 383.077L191.506 384.766L191.696 382.976L192.687 374.254H194.87Z" fill="#666666"/>
<path d="M341.893 387L341.842 385.286C341.148 385.972 340.441 386.467 339.722 386.771C339.011 387.076 338.262 387.229 337.475 387.229C336.747 387.229 336.125 387.135 335.608 386.949C335.092 386.763 334.665 386.509 334.326 386.188C333.996 385.857 333.751 385.472 333.59 385.032C333.438 384.592 333.361 384.114 333.361 383.598C333.361 382.32 333.835 381.321 334.783 380.602C335.74 379.874 337.149 379.51 339.011 379.51H341.651V378.393C341.651 377.639 341.41 377.038 340.928 376.59C340.445 376.133 339.709 375.904 338.719 375.904C337.999 375.904 337.288 375.985 336.586 376.146C335.892 376.306 335.173 376.535 334.428 376.831V374.838C334.707 374.736 335.016 374.639 335.354 374.546C335.701 374.444 336.065 374.355 336.446 374.279C336.827 374.203 337.225 374.144 337.64 374.102C338.054 374.051 338.473 374.025 338.896 374.025C339.667 374.025 340.361 374.11 340.979 374.279C341.596 374.449 342.117 374.707 342.54 375.054C342.972 375.401 343.302 375.837 343.53 376.361C343.759 376.886 343.873 377.504 343.873 378.215V387H341.893ZM341.651 381.198H338.846C338.296 381.198 337.822 381.253 337.424 381.363C337.026 381.473 336.7 381.63 336.446 381.833C336.192 382.036 336.002 382.282 335.875 382.569C335.757 382.849 335.697 383.166 335.697 383.521C335.697 383.767 335.735 384.004 335.812 384.232C335.888 384.452 336.01 384.651 336.18 384.829C336.349 384.998 336.569 385.134 336.84 385.235C337.111 385.337 337.441 385.388 337.83 385.388C338.338 385.388 338.918 385.235 339.569 384.931C340.229 384.618 340.924 384.127 341.651 383.458V381.198ZM347.352 380.894C347.352 379.81 347.5 378.85 347.796 378.012C348.092 377.165 348.511 376.454 349.053 375.879C349.603 375.295 350.259 374.855 351.021 374.559C351.791 374.254 352.646 374.102 353.585 374.102C353.991 374.102 354.389 374.127 354.778 374.178C355.176 374.229 355.565 374.309 355.946 374.419V369.062H358.168V387H356.188L356.111 384.588C355.493 385.485 354.825 386.149 354.105 386.581C353.386 387.013 352.607 387.229 351.77 387.229C351.042 387.229 350.398 387.076 349.84 386.771C349.29 386.467 348.828 386.039 348.456 385.489C348.092 384.931 347.817 384.262 347.631 383.483C347.445 382.705 347.352 381.841 347.352 380.894ZM349.611 380.754C349.611 382.294 349.836 383.445 350.284 384.207C350.741 384.96 351.384 385.337 352.214 385.337C352.772 385.337 353.361 385.087 353.979 384.588C354.605 384.089 355.261 383.348 355.946 382.366V376.45C355.582 376.281 355.18 376.154 354.74 376.069C354.3 375.976 353.864 375.93 353.433 375.93C352.231 375.93 351.291 376.319 350.614 377.098C349.946 377.876 349.611 379.095 349.611 380.754ZM361.646 380.894C361.646 379.81 361.795 378.85 362.091 378.012C362.387 377.165 362.806 376.454 363.348 375.879C363.898 375.295 364.554 374.855 365.315 374.559C366.086 374.254 366.94 374.102 367.88 374.102C368.286 374.102 368.684 374.127 369.073 374.178C369.471 374.229 369.86 374.309 370.241 374.419V369.062H372.463V387H370.482L370.406 384.588C369.788 385.485 369.12 386.149 368.4 386.581C367.681 387.013 366.902 387.229 366.064 387.229C365.337 387.229 364.693 387.076 364.135 386.771C363.585 386.467 363.123 386.039 362.751 385.489C362.387 384.931 362.112 384.262 361.926 383.483C361.74 382.705 361.646 381.841 361.646 380.894ZM363.906 380.754C363.906 382.294 364.131 383.445 364.579 384.207C365.036 384.96 365.679 385.337 366.509 385.337C367.067 385.337 367.656 385.087 368.273 384.588C368.9 384.089 369.556 383.348 370.241 382.366V376.45C369.877 376.281 369.475 376.154 369.035 376.069C368.595 375.976 368.159 375.93 367.728 375.93C366.526 375.93 365.586 376.319 364.909 377.098C364.241 377.876 363.906 379.095 363.906 380.754ZM399.072 387L399.021 385.286C398.327 385.972 397.621 386.467 396.901 386.771C396.19 387.076 395.441 387.229 394.654 387.229C393.926 387.229 393.304 387.135 392.788 386.949C392.272 386.763 391.844 386.509 391.506 386.188C391.176 385.857 390.93 385.472 390.77 385.032C390.617 384.592 390.541 384.114 390.541 383.598C390.541 382.32 391.015 381.321 391.963 380.602C392.919 379.874 394.328 379.51 396.19 379.51H398.831V378.393C398.831 377.639 398.59 377.038 398.107 376.59C397.625 376.133 396.889 375.904 395.898 375.904C395.179 375.904 394.468 375.985 393.766 376.146C393.072 376.306 392.352 376.535 391.607 376.831V374.838C391.887 374.736 392.196 374.639 392.534 374.546C392.881 374.444 393.245 374.355 393.626 374.279C394.007 374.203 394.405 374.144 394.819 374.102C395.234 374.051 395.653 374.025 396.076 374.025C396.846 374.025 397.54 374.11 398.158 374.279C398.776 374.449 399.297 374.707 399.72 375.054C400.151 375.401 400.481 375.837 400.71 376.361C400.938 376.886 401.053 377.504 401.053 378.215V387H399.072ZM398.831 381.198H396.025C395.475 381.198 395.001 381.253 394.604 381.363C394.206 381.473 393.88 381.63 393.626 381.833C393.372 382.036 393.182 382.282 393.055 382.569C392.936 382.849 392.877 383.166 392.877 383.521C392.877 383.767 392.915 384.004 392.991 384.232C393.067 384.452 393.19 384.651 393.359 384.829C393.529 384.998 393.749 385.134 394.02 385.235C394.29 385.337 394.62 385.388 395.01 385.388C395.518 385.388 396.097 385.235 396.749 384.931C397.409 384.618 398.103 384.127 398.831 383.458V381.198ZM405.699 374.254H407.718L407.781 376.603C408.535 375.697 409.275 375.041 410.003 374.635C410.739 374.229 411.48 374.025 412.225 374.025C413.545 374.025 414.544 374.453 415.221 375.308C415.906 376.162 416.224 377.432 416.173 379.116H413.938C413.964 377.999 413.799 377.191 413.443 376.691C413.096 376.184 412.584 375.93 411.907 375.93C411.611 375.93 411.311 375.985 411.006 376.095C410.71 376.196 410.401 376.366 410.079 376.603C409.766 376.831 409.432 377.127 409.076 377.491C408.721 377.855 408.34 378.295 407.934 378.812V387H405.699V374.254ZM419.994 374.254H422.013L422.076 376.603C422.829 375.697 423.57 375.041 424.298 374.635C425.034 374.229 425.775 374.025 426.52 374.025C427.84 374.025 428.839 374.453 429.516 375.308C430.201 376.162 430.519 377.432 430.468 379.116H428.233C428.259 377.999 428.094 377.191 427.738 376.691C427.391 376.184 426.879 375.93 426.202 375.93C425.906 375.93 425.605 375.985 425.301 376.095C425.005 376.196 424.696 376.366 424.374 376.603C424.061 376.831 423.727 377.127 423.371 377.491C423.016 377.855 422.635 378.295 422.229 378.812V387H419.994V374.254ZM444.864 380.525C444.864 381.516 444.725 382.425 444.445 383.255C444.166 384.076 443.764 384.783 443.239 385.375C442.715 385.959 442.076 386.416 441.322 386.746C440.569 387.068 439.714 387.229 438.758 387.229C437.844 387.229 437.023 387.089 436.295 386.81C435.576 386.522 434.962 386.103 434.454 385.553C433.955 385.003 433.57 384.321 433.299 383.509C433.036 382.696 432.905 381.761 432.905 380.703C432.905 379.713 433.045 378.812 433.324 377.999C433.604 377.178 434.006 376.476 434.53 375.892C435.055 375.299 435.694 374.842 436.447 374.521C437.201 374.19 438.055 374.025 439.012 374.025C439.926 374.025 440.743 374.169 441.462 374.457C442.19 374.736 442.803 375.151 443.303 375.701C443.811 376.243 444.196 376.92 444.458 377.732C444.729 378.545 444.864 379.476 444.864 380.525ZM442.604 380.627C442.604 379.84 442.516 379.154 442.338 378.57C442.169 377.978 441.923 377.487 441.602 377.098C441.28 376.7 440.886 376.404 440.421 376.209C439.964 376.006 439.452 375.904 438.885 375.904C438.225 375.904 437.658 376.035 437.184 376.298C436.718 376.552 436.333 376.895 436.028 377.326C435.732 377.758 435.512 378.261 435.368 378.837C435.233 379.404 435.165 380.001 435.165 380.627C435.165 381.414 435.25 382.104 435.419 382.696C435.597 383.289 435.846 383.784 436.168 384.182C436.49 384.571 436.879 384.867 437.336 385.07C437.793 385.265 438.309 385.362 438.885 385.362C439.545 385.362 440.108 385.235 440.573 384.981C441.047 384.719 441.432 384.372 441.729 383.94C442.033 383.509 442.253 383.009 442.389 382.442C442.533 381.867 442.604 381.262 442.604 380.627ZM459.87 374.254L458.017 387H455.338L453.497 381.668L453.129 380.373L452.71 381.744L450.945 387H448.343L446.502 374.254H448.66L449.727 382.912L449.955 384.842L450.501 383.153L452.354 377.428H453.941L455.935 383.077L456.506 384.766L456.696 382.976L457.687 374.254H459.87Z" fill="#666666"/>
<circle cx="261" cy="403" r="23.75" stroke="black" stroke-width="2.5"/>
<path d="M267.652 407.185C267.652 408.024 267.481 408.815 267.14 409.558C266.798 410.29 266.285 410.935 265.602 411.491C264.918 412.038 264.059 412.473 263.023 412.795C261.988 413.107 260.782 413.264 259.405 413.264C258.644 413.264 257.96 413.239 257.354 413.19C256.749 413.142 256.183 413.078 255.655 413V410.715C256.261 410.822 256.9 410.905 257.574 410.964C258.248 411.022 258.937 411.052 259.64 411.052C260.597 411.052 261.412 410.969 262.086 410.803C262.77 410.627 263.326 410.378 263.756 410.056C264.186 409.733 264.498 409.343 264.693 408.884C264.889 408.425 264.986 407.907 264.986 407.331C264.986 406.804 264.869 406.345 264.635 405.954C264.4 405.563 264.068 405.236 263.639 404.973C263.219 404.709 262.711 404.514 262.115 404.387C261.529 404.25 260.885 404.182 260.182 404.182H257.999V402.087H260.211C260.787 402.087 261.31 402.014 261.778 401.867C262.257 401.711 262.662 401.491 262.994 401.208C263.336 400.925 263.595 400.578 263.771 400.168C263.956 399.748 264.049 399.274 264.049 398.747C264.049 397.722 263.736 396.975 263.111 396.506C262.486 396.037 261.568 395.803 260.357 395.803C259.713 395.803 259.049 395.866 258.365 395.993C257.682 396.12 256.949 396.311 256.168 396.564V394.338C256.5 394.221 256.852 394.118 257.223 394.03C257.604 393.933 257.979 393.854 258.351 393.796C258.731 393.728 259.107 393.679 259.479 393.649C259.85 393.61 260.206 393.591 260.548 393.591C261.563 393.591 262.457 393.703 263.229 393.928C264 394.143 264.645 394.455 265.162 394.865C265.68 395.275 266.07 395.773 266.334 396.359C266.598 396.945 266.729 397.604 266.729 398.337C266.729 399.431 266.446 400.349 265.88 401.091C265.323 401.833 264.557 402.424 263.58 402.863C264.078 402.941 264.566 403.098 265.045 403.332C265.533 403.566 265.968 403.869 266.349 404.24C266.739 404.602 267.052 405.031 267.286 405.529C267.53 406.027 267.652 406.579 267.652 407.185Z" fill="black"/>
<path d="M204.5 443.5L191.01 448.634L193.309 434.384L204.5 443.5ZM196.541 443.306C194.778 442.919 193.073 442.499 191.425 442.049L192.084 439.637C193.691 440.076 195.354 440.486 197.077 440.864L196.541 443.306ZM186.369 440.516C184.654 439.942 183.008 439.334 181.427 438.694L182.366 436.376C183.898 436.997 185.495 437.588 187.162 438.145L186.369 440.516ZM176.581 436.538C174.946 435.74 173.39 434.907 171.91 434.043L173.171 431.884C174.596 432.717 176.096 433.52 177.676 434.29L176.581 436.538ZM167.446 431.189C165.949 430.143 164.544 429.064 163.225 427.96L164.83 426.043C166.094 427.101 167.441 428.136 168.878 429.14L167.446 431.189ZM159.307 424.363C158.019 423.066 156.832 421.747 155.737 420.416L157.668 418.829C158.714 420.1 159.849 421.361 161.081 422.601L159.307 424.363ZM152.552 416.147C151.526 414.629 150.607 413.11 149.782 411.606L151.973 410.403C152.764 411.843 153.643 413.296 154.623 414.748L152.552 416.147ZM147.432 406.84C146.685 405.145 146.046 403.492 145.495 401.904L147.856 401.084C148.388 402.614 149.003 404.204 149.72 405.832L147.432 406.84ZM143.937 396.842C143.696 395.954 143.48 395.102 143.285 394.293L145.715 393.707C145.906 394.497 146.116 395.325 146.349 396.188L143.937 396.842Z" fill="#999999"/>
<path d="M324.5 443.5L337.99 448.634L335.691 434.384L324.5 443.5ZM332.459 443.306C334.222 442.919 335.927 442.499 337.575 442.049L336.916 439.637C335.309 440.076 333.646 440.486 331.923 440.864L332.459 443.306ZM342.631 440.516C344.346 439.942 345.992 439.334 347.573 438.694L346.634 436.376C345.102 436.997 343.505 437.588 341.838 438.145L342.631 440.516ZM352.419 436.538C354.054 435.74 355.61 434.907 357.09 434.043L355.829 431.884C354.404 432.717 352.904 433.52 351.324 434.29L352.419 436.538ZM361.554 431.189C363.051 430.143 364.456 429.064 365.775 427.96L364.17 426.043C362.906 427.101 361.559 428.136 360.122 429.14L361.554 431.189ZM369.693 424.363C370.981 423.066 372.168 421.747 373.263 420.416L371.332 418.829C370.286 420.1 369.151 421.361 367.919 422.601L369.693 424.363ZM376.448 416.147C377.474 414.629 378.393 413.11 379.218 411.606L377.027 410.403C376.236 411.843 375.357 413.296 374.377 414.748L376.448 416.147ZM381.568 406.84C382.315 405.145 382.954 403.492 383.505 401.904L381.144 401.084C380.612 402.614 379.997 404.204 379.28 405.832L381.568 406.84ZM385.063 396.842C385.304 395.954 385.52 395.102 385.715 394.293L383.285 393.707C383.094 394.497 382.884 395.325 382.651 396.188L385.063 396.842Z" fill="#999999"/>
<path d="M292.69 423.64L293.974 424.924L292.69 426.325C293.22 426.281 293.692 426.278 294.107 426.316C294.527 426.35 294.902 426.416 295.234 426.515C295.571 426.62 295.874 426.764 296.145 426.946C296.421 427.123 296.681 427.333 296.924 427.576C297.78 428.432 298.173 429.333 298.101 430.277C298.04 431.222 297.501 432.203 296.485 433.219L291.057 438.647L289.615 437.205L294.927 431.893C295.579 431.241 295.938 430.639 296.004 430.087C296.076 429.529 295.872 429.01 295.391 428.529C295.214 428.352 295.013 428.206 294.786 428.09C294.571 427.974 294.306 427.891 293.991 427.841C293.681 427.786 293.308 427.761 292.872 427.767C292.441 427.778 291.927 427.816 291.331 427.883L285.812 433.401L284.37 431.96L292.69 423.64ZM305.326 443.718C305.122 443.922 304.948 444.091 304.804 444.223C304.661 444.356 304.523 444.478 304.39 444.588L298.548 438.746C297.697 439.597 297.28 440.489 297.297 441.423C297.319 442.351 297.778 443.262 298.672 444.157C298.916 444.4 299.167 444.635 299.427 444.861C299.692 445.082 299.954 445.29 300.214 445.483C300.473 445.676 300.725 445.856 300.968 446.022C301.222 446.187 301.462 446.334 301.689 446.461L300.504 447.646C300.001 447.364 299.468 447.008 298.905 446.577C298.341 446.157 297.794 445.682 297.264 445.151C296.551 444.439 296.035 443.729 295.714 443.022C295.394 442.315 295.25 441.613 295.283 440.917C295.328 440.221 295.535 439.528 295.905 438.837C296.286 438.147 296.814 437.464 297.488 436.79C298.073 436.205 298.708 435.735 299.393 435.382C300.089 435.028 300.794 434.816 301.506 434.744C302.23 434.672 302.943 434.755 303.644 434.992C304.346 435.23 304.995 435.647 305.592 436.244C306.172 436.824 306.594 437.429 306.859 438.058C307.125 438.688 307.241 439.323 307.207 439.964C307.185 440.605 307.011 441.243 306.685 441.878C306.371 442.514 305.918 443.127 305.326 443.718ZM304.034 442.011C304.421 441.657 304.722 441.284 304.937 440.892C305.158 440.495 305.285 440.091 305.318 439.682C305.357 439.279 305.299 438.879 305.144 438.481C304.995 438.078 304.738 437.694 304.374 437.329C304.059 437.014 303.711 436.788 303.329 436.65C302.948 436.512 302.553 436.459 302.145 436.492C301.736 436.525 301.319 436.639 300.893 436.832C300.468 437.025 300.056 437.293 299.659 437.636L304.034 442.011ZM310.53 458.12L308.616 456.206L309.544 450.786L304.15 451.739L302.285 449.875L309.685 448.922L310.754 441.704L312.602 443.552L311.591 448.938L316.936 447.886L318.717 449.668L311.417 450.72L310.53 458.12ZM319.181 466.539C318.773 466.296 318.378 466.017 317.996 465.702C317.61 465.392 317.237 465.058 316.878 464.699C315.834 463.655 315.29 462.641 315.245 461.658C315.207 460.669 315.676 459.686 316.654 458.708L320.996 454.366L318.668 452.037L319.877 450.828L322.206 453.156L324.493 450.869L326.308 451.938L323.648 454.598L327.385 458.335L326.175 459.545L322.438 455.808L318.212 460.034C317.615 460.63 317.325 461.235 317.342 461.849C317.369 462.462 317.693 463.078 318.311 463.696C318.576 463.962 318.886 464.232 319.239 464.509C319.598 464.779 319.993 465.042 320.424 465.296L319.181 466.539Z" fill="#00B2FF"/>
<path d="M188.64 465.31L189.924 464.026L191.325 465.31C191.281 464.78 191.278 464.308 191.316 463.893C191.35 463.473 191.416 463.098 191.515 462.766C191.62 462.429 191.764 462.126 191.946 461.855C192.123 461.579 192.333 461.319 192.576 461.076C193.432 460.22 194.333 459.827 195.277 459.899C196.222 459.96 197.203 460.499 198.219 461.515L203.647 466.943L202.205 468.385L196.893 463.073C196.241 462.421 195.639 462.062 195.087 461.996C194.529 461.924 194.01 462.128 193.529 462.609C193.352 462.786 193.206 462.987 193.09 463.214C192.974 463.429 192.891 463.694 192.841 464.009C192.786 464.319 192.761 464.692 192.767 465.128C192.778 465.559 192.816 466.073 192.883 466.669L198.401 472.188L196.96 473.63L188.64 465.31ZM208.718 452.674C208.922 452.878 209.091 453.052 209.223 453.196C209.356 453.339 209.478 453.477 209.588 453.61L203.746 459.452C204.597 460.303 205.489 460.72 206.423 460.703C207.351 460.681 208.262 460.222 209.157 459.328C209.4 459.084 209.635 458.833 209.861 458.573C210.082 458.308 210.29 458.046 210.483 457.786C210.676 457.527 210.856 457.275 211.022 457.032C211.187 456.778 211.334 456.538 211.461 456.311L212.646 457.496C212.364 457.999 212.008 458.532 211.577 459.095C211.157 459.659 210.682 460.206 210.151 460.736C209.439 461.449 208.729 461.965 208.022 462.286C207.315 462.606 206.613 462.75 205.917 462.717C205.221 462.672 204.528 462.465 203.837 462.095C203.147 461.714 202.464 461.186 201.79 460.512C201.205 459.927 200.735 459.292 200.382 458.607C200.028 457.911 199.816 457.206 199.744 456.494C199.672 455.77 199.755 455.057 199.992 454.356C200.23 453.654 200.647 453.005 201.244 452.408C201.824 451.828 202.429 451.406 203.058 451.141C203.688 450.875 204.323 450.759 204.964 450.793C205.605 450.815 206.243 450.989 206.878 451.315C207.514 451.629 208.127 452.082 208.718 452.674ZM207.011 453.966C206.657 453.579 206.284 453.278 205.892 453.063C205.495 452.842 205.091 452.715 204.682 452.682C204.279 452.643 203.879 452.701 203.481 452.856C203.078 453.005 202.694 453.262 202.329 453.626C202.014 453.941 201.788 454.289 201.65 454.671C201.512 455.052 201.459 455.447 201.492 455.855C201.525 456.264 201.639 456.681 201.832 457.107C202.025 457.532 202.293 457.944 202.636 458.341L207.011 453.966ZM223.12 447.47L221.206 449.384L215.786 448.456L216.739 453.85L214.875 455.715L213.922 448.315L206.704 447.246L208.552 445.398L213.938 446.409L212.886 441.064L214.668 439.283L215.72 446.583L223.12 447.47ZM231.539 438.819C231.296 439.227 231.017 439.622 230.702 440.004C230.392 440.39 230.058 440.763 229.699 441.122C228.655 442.166 227.641 442.71 226.658 442.755C225.669 442.793 224.686 442.324 223.708 441.346L219.366 437.004L217.037 439.332L215.828 438.123L218.156 435.794L215.869 433.507L216.938 431.692L219.598 434.352L223.335 430.615L224.545 431.825L220.808 435.562L225.034 439.788C225.63 440.385 226.235 440.675 226.849 440.658C227.462 440.631 228.078 440.307 228.696 439.689C228.962 439.424 229.232 439.114 229.509 438.761C229.779 438.402 230.042 438.007 230.296 437.576L231.539 438.819Z" fill="#00B2FF"/>
<path d="M324 477.961C324.69 477.961 325.25 477.401 325.25 476.711V465.461C325.25 464.77 324.69 464.211 324 464.211C323.31 464.211 322.75 464.77 322.75 465.461V475.461H312.75C312.06 475.461 311.5 476.02 311.5 476.711C311.5 477.401 312.06 477.961 312.75 477.961H324ZM324.884 475.827L277.884 428.827L276.116 430.595L323.116 477.595L324.884 475.827Z" fill="#00B2FF"/>
<path d="M245.25 431.711C245.25 431.02 244.69 430.461 244 430.461L232.75 430.461C232.06 430.461 231.5 431.02 231.5 431.711C231.5 432.401 232.06 432.961 232.75 432.961H242.75V442.961C242.75 443.651 243.31 444.211 244 444.211C244.69 444.211 245.25 443.651 245.25 442.961L245.25 431.711ZM196.884 480.595L244.884 432.595L243.116 430.827L195.116 478.827L196.884 480.595Z" fill="#00B2FF"/>
<circle cx="30" cy="504" r="23.75" stroke="black" stroke-width="2.5"/>
<circle cx="184" cy="504" r="23.75" stroke="black" stroke-width="2.5"/>
<circle cx="338" cy="504" r="23.75" stroke="black" stroke-width="2.5"/>
<circle cx="492" cy="504" r="23.75" stroke="black" stroke-width="2.5"/>
<path d="M77.9844 488.234H79.8008L79.8828 490.133C80.2266 489.727 80.5586 489.391 80.8789 489.125C81.1992 488.852 81.5117 488.633 81.8164 488.469C82.1289 488.305 82.4453 488.191 82.7656 488.129C83.0859 488.059 83.418 488.023 83.7617 488.023C84.9727 488.023 85.8867 488.383 86.5039 489.102C87.1289 489.812 87.4414 490.887 87.4414 492.324V500H85.4023V492.488C85.4023 491.566 85.2305 490.887 84.8867 490.449C84.543 490.004 84.0312 489.781 83.3516 489.781C83.1016 489.781 82.8555 489.82 82.6133 489.898C82.3789 489.969 82.1328 490.098 81.875 490.285C81.6172 490.465 81.3359 490.711 81.0312 491.023C80.7344 491.336 80.3984 491.727 80.0234 492.195V500H77.9844V488.234ZM101.117 493.496C101.117 493.785 101.113 494.027 101.105 494.223C101.098 494.418 101.086 494.602 101.07 494.773H92.8086C92.8086 495.977 93.1445 496.902 93.8164 497.551C94.4883 498.191 95.457 498.512 96.7227 498.512C97.0664 498.512 97.4102 498.5 97.7539 498.477C98.0977 498.445 98.4297 498.406 98.75 498.359C99.0703 498.312 99.375 498.262 99.6641 498.207C99.9609 498.145 100.234 498.078 100.484 498.008V499.684C99.9297 499.84 99.3008 499.965 98.5977 500.059C97.9023 500.16 97.1797 500.211 96.4297 500.211C95.4219 500.211 94.5547 500.074 93.8281 499.801C93.1016 499.527 92.5039 499.133 92.0352 498.617C91.5742 498.094 91.2305 497.457 91.0039 496.707C90.7852 495.949 90.6758 495.094 90.6758 494.141C90.6758 493.312 90.793 492.531 91.0273 491.797C91.2695 491.055 91.6172 490.406 92.0703 489.852C92.5312 489.289 93.0938 488.844 93.7578 488.516C94.4219 488.188 95.1758 488.023 96.0195 488.023C96.8398 488.023 97.5664 488.152 98.1992 488.41C98.832 488.668 99.3633 489.035 99.793 489.512C100.23 489.98 100.559 490.555 100.777 491.234C101.004 491.906 101.117 492.66 101.117 493.496ZM98.9961 493.203C99.0195 492.68 98.9688 492.203 98.8438 491.773C98.7188 491.336 98.5234 490.961 98.2578 490.648C98 490.336 97.6758 490.094 97.2852 489.922C96.8945 489.742 96.4414 489.652 95.9258 489.652C95.4805 489.652 95.0742 489.738 94.707 489.91C94.3398 490.082 94.0234 490.324 93.7578 490.637C93.4922 490.949 93.2773 491.324 93.1133 491.762C92.9492 492.199 92.8477 492.68 92.8086 493.203H98.9961ZM114.98 500H112.273L109.098 495.512L105.957 500H103.32L107.879 494.094L103.531 488.234H106.145L109.238 492.758L112.273 488.234H114.793L110.375 494.141L114.98 500ZM127.051 499.836C126.59 499.953 126.113 500.035 125.621 500.082C125.129 500.137 124.629 500.164 124.121 500.164C122.645 500.164 121.543 499.832 120.816 499.168C120.09 498.496 119.727 497.469 119.727 496.086V489.945H116.434V488.234H119.727V485L121.766 484.473V488.234H127.051V489.945H121.766V495.922C121.766 496.766 121.988 497.398 122.434 497.82C122.887 498.234 123.551 498.441 124.426 498.441C124.801 498.441 125.211 498.414 125.656 498.359C126.102 498.297 126.566 498.203 127.051 498.078V499.836Z" fill="#00B2FF"/>
<path d="M234.984 488.234H236.801L236.883 490.133C237.227 489.727 237.559 489.391 237.879 489.125C238.199 488.852 238.512 488.633 238.816 488.469C239.129 488.305 239.445 488.191 239.766 488.129C240.086 488.059 240.418 488.023 240.762 488.023C241.973 488.023 242.887 488.383 243.504 489.102C244.129 489.812 244.441 490.887 244.441 492.324V500H242.402V492.488C242.402 491.566 242.23 490.887 241.887 490.449C241.543 490.004 241.031 489.781 240.352 489.781C240.102 489.781 239.855 489.82 239.613 489.898C239.379 489.969 239.133 490.098 238.875 490.285C238.617 490.465 238.336 490.711 238.031 491.023C237.734 491.336 237.398 491.727 237.023 492.195V500H234.984V488.234ZM258.117 493.496C258.117 493.785 258.113 494.027 258.105 494.223C258.098 494.418 258.086 494.602 258.07 494.773H249.809C249.809 495.977 250.145 496.902 250.816 497.551C251.488 498.191 252.457 498.512 253.723 498.512C254.066 498.512 254.41 498.5 254.754 498.477C255.098 498.445 255.43 498.406 255.75 498.359C256.07 498.312 256.375 498.262 256.664 498.207C256.961 498.145 257.234 498.078 257.484 498.008V499.684C256.93 499.84 256.301 499.965 255.598 500.059C254.902 500.16 254.18 500.211 253.43 500.211C252.422 500.211 251.555 500.074 250.828 499.801C250.102 499.527 249.504 499.133 249.035 498.617C248.574 498.094 248.23 497.457 248.004 496.707C247.785 495.949 247.676 495.094 247.676 494.141C247.676 493.312 247.793 492.531 248.027 491.797C248.27 491.055 248.617 490.406 249.07 489.852C249.531 489.289 250.094 488.844 250.758 488.516C251.422 488.188 252.176 488.023 253.02 488.023C253.84 488.023 254.566 488.152 255.199 488.41C255.832 488.668 256.363 489.035 256.793 489.512C257.23 489.98 257.559 490.555 257.777 491.234C258.004 491.906 258.117 492.66 258.117 493.496ZM255.996 493.203C256.02 492.68 255.969 492.203 255.844 491.773C255.719 491.336 255.523 490.961 255.258 490.648C255 490.336 254.676 490.094 254.285 489.922C253.895 489.742 253.441 489.652 252.926 489.652C252.48 489.652 252.074 489.738 251.707 489.91C251.34 490.082 251.023 490.324 250.758 490.637C250.492 490.949 250.277 491.324 250.113 491.762C249.949 492.199 249.848 492.68 249.809 493.203H255.996ZM271.98 500H269.273L266.098 495.512L262.957 500H260.32L264.879 494.094L260.531 488.234H263.145L266.238 492.758L269.273 488.234H271.793L267.375 494.141L271.98 500ZM284.051 499.836C283.59 499.953 283.113 500.035 282.621 500.082C282.129 500.137 281.629 500.164 281.121 500.164C279.645 500.164 278.543 499.832 277.816 499.168C277.09 498.496 276.727 497.469 276.727 496.086V489.945H273.434V488.234H276.727V485L278.766 484.473V488.234H284.051V489.945H278.766V495.922C278.766 496.766 278.988 497.398 279.434 497.82C279.887 498.234 280.551 498.441 281.426 498.441C281.801 498.441 282.211 498.414 282.656 498.359C283.102 498.297 283.566 498.203 284.051 498.078V499.836Z" fill="#DDDDDD"/>
<path d="M386.984 488.234H388.801L388.883 490.133C389.227 489.727 389.559 489.391 389.879 489.125C390.199 488.852 390.512 488.633 390.816 488.469C391.129 488.305 391.445 488.191 391.766 488.129C392.086 488.059 392.418 488.023 392.762 488.023C393.973 488.023 394.887 488.383 395.504 489.102C396.129 489.812 396.441 490.887 396.441 492.324V500H394.402V492.488C394.402 491.566 394.23 490.887 393.887 490.449C393.543 490.004 393.031 489.781 392.352 489.781C392.102 489.781 391.855 489.82 391.613 489.898C391.379 489.969 391.133 490.098 390.875 490.285C390.617 490.465 390.336 490.711 390.031 491.023C389.734 491.336 389.398 491.727 389.023 492.195V500H386.984V488.234ZM410.117 493.496C410.117 493.785 410.113 494.027 410.105 494.223C410.098 494.418 410.086 494.602 410.07 494.773H401.809C401.809 495.977 402.145 496.902 402.816 497.551C403.488 498.191 404.457 498.512 405.723 498.512C406.066 498.512 406.41 498.5 406.754 498.477C407.098 498.445 407.43 498.406 407.75 498.359C408.07 498.312 408.375 498.262 408.664 498.207C408.961 498.145 409.234 498.078 409.484 498.008V499.684C408.93 499.84 408.301 499.965 407.598 500.059C406.902 500.16 406.18 500.211 405.43 500.211C404.422 500.211 403.555 500.074 402.828 499.801C402.102 499.527 401.504 499.133 401.035 498.617C400.574 498.094 400.23 497.457 400.004 496.707C399.785 495.949 399.676 495.094 399.676 494.141C399.676 493.312 399.793 492.531 400.027 491.797C400.27 491.055 400.617 490.406 401.07 489.852C401.531 489.289 402.094 488.844 402.758 488.516C403.422 488.188 404.176 488.023 405.02 488.023C405.84 488.023 406.566 488.152 407.199 488.41C407.832 488.668 408.363 489.035 408.793 489.512C409.23 489.98 409.559 490.555 409.777 491.234C410.004 491.906 410.117 492.66 410.117 493.496ZM407.996 493.203C408.02 492.68 407.969 492.203 407.844 491.773C407.719 491.336 407.523 490.961 407.258 490.648C407 490.336 406.676 490.094 406.285 489.922C405.895 489.742 405.441 489.652 404.926 489.652C404.48 489.652 404.074 489.738 403.707 489.91C403.34 490.082 403.023 490.324 402.758 490.637C402.492 490.949 402.277 491.324 402.113 491.762C401.949 492.199 401.848 492.68 401.809 493.203H407.996ZM423.98 500H421.273L418.098 495.512L414.957 500H412.32L416.879 494.094L412.531 488.234H415.145L418.238 492.758L421.273 488.234H423.793L419.375 494.141L423.98 500ZM436.051 499.836C435.59 499.953 435.113 500.035 434.621 500.082C434.129 500.137 433.629 500.164 433.121 500.164C431.645 500.164 430.543 499.832 429.816 499.168C429.09 498.496 428.727 497.469 428.727 496.086V489.945H425.434V488.234H428.727V485L430.766 484.473V488.234H436.051V489.945H430.766V495.922C430.766 496.766 430.988 497.398 431.434 497.82C431.887 498.234 432.551 498.441 433.426 498.441C433.801 498.441 434.211 498.414 434.656 498.359C435.102 498.297 435.566 498.203 436.051 498.078V499.836Z" fill="#00B2FF"/>
<path d="M36.8574 514H24.8311V511.627H29.7529V497.652L25.168 500.143L24.2305 497.975L30.3242 494.767H32.5801V511.627H36.8574V514Z" fill="black"/>
<path d="M191.019 514H178.406V511.715L183.357 506.793C184.168 505.992 184.827 505.299 185.335 504.713C185.843 504.127 186.238 503.595 186.521 503.116C186.805 502.628 186.995 502.169 187.093 501.739C187.19 501.31 187.239 500.846 187.239 500.348C187.239 499.879 187.176 499.435 187.049 499.015C186.922 498.585 186.727 498.209 186.463 497.887C186.199 497.564 185.857 497.311 185.438 497.125C185.018 496.939 184.515 496.847 183.929 496.847C183.118 496.847 182.381 497.027 181.717 497.389C181.053 497.75 180.442 498.219 179.886 498.795L178.479 497.11C179.202 496.349 180.032 495.738 180.97 495.279C181.917 494.82 183.016 494.591 184.266 494.591C185.115 494.591 185.887 494.718 186.58 494.972C187.283 495.226 187.889 495.592 188.396 496.07C188.904 496.549 189.295 497.135 189.568 497.828C189.852 498.521 189.993 499.303 189.993 500.172C189.993 500.904 189.896 501.583 189.7 502.208C189.505 502.833 189.207 503.458 188.807 504.083C188.416 504.698 187.918 505.338 187.312 506.002C186.717 506.666 186.009 507.394 185.188 508.185L181.717 511.568H191.019V514Z" fill="black"/>
<path d="M345.971 509.767H342.704V514H340.097V509.767H330.883V507.525L339.042 494.854H342.704V507.525H345.971V509.767ZM340.097 497.315L333.432 507.525H340.097V497.315Z" fill="black"/>
<path d="M498.535 507.877C498.535 508.824 498.33 509.688 497.92 510.47C497.51 511.251 496.943 511.925 496.221 512.491C495.508 513.048 494.663 513.482 493.687 513.795C492.71 514.107 491.655 514.264 490.522 514.264C490.239 514.264 489.932 514.254 489.6 514.234C489.277 514.225 488.955 514.205 488.633 514.176C488.311 514.156 487.993 514.132 487.681 514.103C487.378 514.073 487.104 514.039 486.86 514V511.686C487.388 511.812 487.988 511.905 488.662 511.964C489.346 512.022 490.034 512.052 490.728 512.052C491.509 512.052 492.212 511.959 492.837 511.773C493.462 511.588 493.994 511.324 494.434 510.982C494.873 510.631 495.21 510.211 495.444 509.723C495.679 509.225 495.796 508.668 495.796 508.053C495.796 506.861 495.366 505.997 494.507 505.46C493.657 504.913 492.432 504.64 490.83 504.64H487.197V494.854H497.51V497.081H489.6V502.457H491.27C492.188 502.457 493.081 502.54 493.95 502.706C494.819 502.872 495.591 503.165 496.265 503.585C496.948 503.995 497.495 504.552 497.905 505.255C498.325 505.948 498.535 506.822 498.535 507.877Z" fill="black"/>
<path d="M155.884 504.884C156.372 504.396 156.372 503.604 155.884 503.116L147.929 495.161C147.441 494.673 146.649 494.673 146.161 495.161C145.673 495.649 145.673 496.441 146.161 496.929L153.232 504L146.161 511.071C145.673 511.559 145.673 512.351 146.161 512.839C146.649 513.327 147.441 513.327 147.929 512.839L155.884 504.884ZM55 505.25H155V502.75H55V505.25Z" fill="#00B2FF"/>
<path d="M309.884 504.884C310.372 504.396 310.372 503.604 309.884 503.116L301.929 495.161C301.441 494.673 300.649 494.673 300.161 495.161C299.673 495.649 299.673 496.441 300.161 496.929L307.232 504L300.161 511.071C299.673 511.559 299.673 512.351 300.161 512.839C300.649 513.327 301.441 513.327 301.929 512.839L309.884 504.884ZM209 505.25H309V502.75H209V505.25Z" fill="#DDDDDD"/>
<path d="M463.884 504.884C464.372 504.396 464.372 503.604 463.884 503.116L455.929 495.161C455.441 494.673 454.649 494.673 454.161 495.161C453.673 495.649 453.673 496.441 454.161 496.929L461.232 504L454.161 511.071C453.673 511.559 453.673 512.351 454.161 512.839C454.649 513.327 455.441 513.327 455.929 512.839L463.884 504.884ZM363 505.25H463V502.75H363V505.25Z" fill="#00B2FF"/>
<path d="M262 516L254.95 528.595L269.382 528.403L262 516ZM261.084 523.73C261.25 525.524 261.476 527.227 261.763 528.844L264.225 528.407C263.951 526.864 263.733 525.231 263.574 523.501L261.084 523.73ZM262.941 533.914C263.456 535.67 264.061 537.308 264.756 538.835L267.032 537.799C266.389 536.387 265.824 534.862 265.34 533.21L262.941 533.914ZM267.342 543.443C268.361 544.933 269.493 546.284 270.734 547.511L272.492 545.734C271.364 544.618 270.334 543.389 269.405 542.031L267.342 543.443ZM274.818 550.868C276.244 551.841 277.764 552.708 279.372 553.483L280.458 551.231C278.95 550.504 277.54 549.7 276.228 548.804L274.818 550.868ZM284.195 555.465C285.778 556.017 287.428 556.511 289.143 556.958L289.773 554.538C288.114 554.107 286.529 553.632 285.02 553.105L284.195 555.465ZM294.154 558.103C295.785 558.43 297.467 558.728 299.196 559.006L299.592 556.537C297.889 556.264 296.24 555.971 294.646 555.651L294.154 558.103ZM304.24 559.745C305.883 559.967 307.566 560.177 309.285 560.382L309.581 557.9C307.871 557.696 306.201 557.487 304.574 557.268L304.24 559.745ZM314.335 560.962C315.17 561.056 316.013 561.149 316.863 561.242L317.137 558.758C316.287 558.664 315.446 558.571 314.613 558.478L314.335 560.962Z" fill="#999999"/>
<path d="M322.552 553.254H324.57L324.634 555.603C325.387 554.697 326.128 554.041 326.855 553.635C327.592 553.229 328.332 553.025 329.077 553.025C330.397 553.025 331.396 553.453 332.073 554.308C332.759 555.162 333.076 556.432 333.025 558.116H330.791C330.816 556.999 330.651 556.191 330.296 555.691C329.949 555.184 329.437 554.93 328.76 554.93C328.464 554.93 328.163 554.985 327.858 555.095C327.562 555.196 327.253 555.366 326.932 555.603C326.618 555.831 326.284 556.127 325.929 556.491C325.573 556.855 325.192 557.295 324.786 557.812V566H322.552V553.254ZM347.092 558.954C347.092 559.267 347.088 559.53 347.079 559.741C347.071 559.953 347.058 560.152 347.041 560.338H338.091C338.091 561.641 338.455 562.644 339.183 563.347C339.91 564.041 340.96 564.388 342.331 564.388C342.703 564.388 343.076 564.375 343.448 564.35C343.821 564.316 344.18 564.273 344.527 564.223C344.874 564.172 345.204 564.117 345.518 564.058C345.839 563.99 346.135 563.918 346.406 563.842V565.657C345.805 565.826 345.124 565.962 344.362 566.063C343.609 566.174 342.826 566.229 342.014 566.229C340.922 566.229 339.982 566.08 339.195 565.784C338.408 565.488 337.761 565.061 337.253 564.502C336.754 563.935 336.381 563.245 336.136 562.433C335.899 561.612 335.78 560.685 335.78 559.652C335.78 558.755 335.907 557.909 336.161 557.113C336.424 556.309 336.8 555.607 337.291 555.006C337.79 554.396 338.4 553.914 339.119 553.559C339.839 553.203 340.655 553.025 341.569 553.025C342.458 553.025 343.245 553.165 343.931 553.444C344.616 553.724 345.192 554.121 345.657 554.638C346.131 555.146 346.487 555.768 346.724 556.504C346.969 557.232 347.092 558.049 347.092 558.954ZM344.794 558.637C344.819 558.07 344.764 557.553 344.629 557.088C344.493 556.614 344.282 556.208 343.994 555.869C343.715 555.531 343.364 555.268 342.94 555.082C342.517 554.887 342.026 554.79 341.468 554.79C340.985 554.79 340.545 554.883 340.147 555.069C339.75 555.256 339.407 555.518 339.119 555.856C338.831 556.195 338.599 556.601 338.421 557.075C338.243 557.549 338.133 558.07 338.091 558.637H344.794ZM359.711 566V556.847C359.711 556.449 359.694 556.123 359.66 555.869C359.635 555.615 359.588 555.416 359.521 555.272C359.461 555.12 359.381 555.014 359.279 554.955C359.186 554.896 359.068 554.866 358.924 554.866C358.755 554.866 358.598 554.917 358.454 555.019C358.31 555.12 358.154 555.285 357.984 555.514C357.824 555.742 357.642 556.047 357.438 556.428C357.244 556.8 357.011 557.261 356.74 557.812V566H354.722V557.088C354.722 556.622 354.705 556.246 354.671 555.958C354.646 555.67 354.599 555.446 354.531 555.285C354.472 555.124 354.392 555.014 354.29 554.955C354.188 554.896 354.066 554.866 353.922 554.866C353.77 554.866 353.626 554.909 353.49 554.993C353.355 555.078 353.202 555.23 353.033 555.45C352.872 555.67 352.69 555.971 352.487 556.352C352.284 556.732 352.043 557.219 351.764 557.812V566H349.732V553.254H351.421L351.522 555.679C351.743 555.196 351.954 554.786 352.157 554.447C352.369 554.109 352.585 553.838 352.805 553.635C353.025 553.423 353.257 553.271 353.503 553.178C353.757 553.076 354.036 553.025 354.341 553.025C355.026 553.025 355.547 553.25 355.902 553.698C356.258 554.147 356.436 554.841 356.436 555.78C356.639 555.34 356.838 554.951 357.032 554.612C357.227 554.265 357.434 553.978 357.654 553.749C357.883 553.512 358.132 553.334 358.403 553.216C358.674 553.089 358.987 553.025 359.343 553.025C360.942 553.025 361.742 554.257 361.742 556.72V566H359.711ZM376.012 559.525C376.012 560.516 375.872 561.425 375.593 562.255C375.313 563.076 374.911 563.783 374.387 564.375C373.862 564.959 373.223 565.416 372.47 565.746C371.716 566.068 370.862 566.229 369.905 566.229C368.991 566.229 368.17 566.089 367.442 565.81C366.723 565.522 366.109 565.103 365.602 564.553C365.102 564.003 364.717 563.321 364.446 562.509C364.184 561.696 364.053 560.761 364.053 559.703C364.053 558.713 364.192 557.812 364.472 556.999C364.751 556.178 365.153 555.476 365.678 554.892C366.202 554.299 366.841 553.842 367.595 553.521C368.348 553.19 369.203 553.025 370.159 553.025C371.073 553.025 371.89 553.169 372.609 553.457C373.337 553.736 373.951 554.151 374.45 554.701C374.958 555.243 375.343 555.92 375.605 556.732C375.876 557.545 376.012 558.476 376.012 559.525ZM373.752 559.627C373.752 558.84 373.663 558.154 373.485 557.57C373.316 556.978 373.071 556.487 372.749 556.098C372.427 555.7 372.034 555.404 371.568 555.209C371.111 555.006 370.599 554.904 370.032 554.904C369.372 554.904 368.805 555.035 368.331 555.298C367.866 555.552 367.48 555.895 367.176 556.326C366.88 556.758 366.66 557.261 366.516 557.837C366.38 558.404 366.312 559.001 366.312 559.627C366.312 560.414 366.397 561.104 366.566 561.696C366.744 562.289 366.994 562.784 367.315 563.182C367.637 563.571 368.026 563.867 368.483 564.07C368.94 564.265 369.457 564.362 370.032 564.362C370.692 564.362 371.255 564.235 371.721 563.981C372.195 563.719 372.58 563.372 372.876 562.94C373.181 562.509 373.401 562.009 373.536 561.442C373.68 560.867 373.752 560.262 373.752 559.627ZM378.018 553.254H380.531L383.654 561.684L384.327 563.74L385.025 561.633L388.123 553.254H390.548L385.546 566H383.007L378.018 553.254ZM404.271 558.954C404.271 559.267 404.267 559.53 404.259 559.741C404.25 559.953 404.238 560.152 404.221 560.338H395.271C395.271 561.641 395.634 562.644 396.362 563.347C397.09 564.041 398.14 564.388 399.511 564.388C399.883 564.388 400.256 564.375 400.628 564.35C401 564.316 401.36 564.273 401.707 564.223C402.054 564.172 402.384 564.117 402.697 564.058C403.019 563.99 403.315 563.918 403.586 563.842V565.657C402.985 565.826 402.304 565.962 401.542 566.063C400.789 566.174 400.006 566.229 399.193 566.229C398.102 566.229 397.162 566.08 396.375 565.784C395.588 565.488 394.94 565.061 394.433 564.502C393.933 563.935 393.561 563.245 393.315 562.433C393.078 561.612 392.96 560.685 392.96 559.652C392.96 558.755 393.087 557.909 393.341 557.113C393.603 556.309 393.98 555.607 394.471 555.006C394.97 554.396 395.579 553.914 396.299 553.559C397.018 553.203 397.835 553.025 398.749 553.025C399.638 553.025 400.425 553.165 401.11 553.444C401.796 553.724 402.371 554.121 402.837 554.638C403.311 555.146 403.666 555.768 403.903 556.504C404.149 557.232 404.271 558.049 404.271 558.954ZM401.974 558.637C401.999 558.07 401.944 557.553 401.809 557.088C401.673 556.614 401.462 556.208 401.174 555.869C400.895 555.531 400.543 555.268 400.12 555.082C399.697 554.887 399.206 554.79 398.647 554.79C398.165 554.79 397.725 554.883 397.327 555.069C396.929 555.256 396.587 555.518 396.299 555.856C396.011 556.195 395.778 556.601 395.601 557.075C395.423 557.549 395.313 558.07 395.271 558.637H401.974ZM432.366 565.822C431.867 565.949 431.351 566.038 430.817 566.089C430.284 566.148 429.743 566.178 429.192 566.178C427.593 566.178 426.399 565.818 425.612 565.099C424.825 564.371 424.432 563.258 424.432 561.76V555.107H420.864V553.254H424.432V549.75L426.641 549.179V553.254H432.366V555.107H426.641V561.582C426.641 562.496 426.882 563.182 427.364 563.639C427.855 564.087 428.575 564.312 429.522 564.312C429.929 564.312 430.373 564.282 430.855 564.223C431.338 564.155 431.841 564.053 432.366 563.918V565.822ZM446.636 566H444.427V557.862C444.427 556.881 444.241 556.148 443.868 555.666C443.504 555.175 442.979 554.93 442.294 554.93C441.998 554.93 441.718 554.972 441.456 555.057C441.202 555.133 440.936 555.272 440.656 555.476C440.377 555.67 440.072 555.937 439.742 556.275C439.412 556.614 439.031 557.037 438.6 557.545V566H436.391V548.062H438.6V553.254L438.523 555.26C438.87 554.845 439.209 554.498 439.539 554.219C439.878 553.931 440.212 553.698 440.542 553.521C440.881 553.343 441.223 553.216 441.57 553.14C441.917 553.063 442.277 553.025 442.649 553.025C443.919 553.025 444.901 553.415 445.595 554.193C446.289 554.964 446.636 556.127 446.636 557.685V566ZM455.027 555.082H451.257V553.254H457.262V564.159H461.058V566H450.838V564.159H455.027V555.082ZM455.802 547.909C456.047 547.909 456.276 547.956 456.487 548.049C456.699 548.133 456.881 548.256 457.033 548.417C457.194 548.578 457.317 548.764 457.401 548.976C457.494 549.179 457.541 549.403 457.541 549.648C457.541 549.885 457.494 550.11 457.401 550.321C457.317 550.533 457.194 550.719 457.033 550.88C456.881 551.041 456.699 551.168 456.487 551.261C456.276 551.345 456.047 551.388 455.802 551.388C455.556 551.388 455.328 551.345 455.116 551.261C454.905 551.168 454.718 551.041 454.558 550.88C454.405 550.719 454.283 550.533 454.189 550.321C454.105 550.11 454.062 549.885 454.062 549.648C454.062 549.403 454.105 549.179 454.189 548.976C454.283 548.764 454.405 548.578 454.558 548.417C454.718 548.256 454.905 548.133 455.116 548.049C455.328 547.956 455.556 547.909 455.802 547.909ZM475.073 562.521C475.073 562.97 474.997 563.372 474.845 563.728C474.692 564.083 474.485 564.4 474.223 564.68C473.96 564.951 473.656 565.183 473.309 565.378C472.962 565.573 472.589 565.733 472.191 565.86C471.802 565.987 471.4 566.08 470.985 566.14C470.571 566.199 470.164 566.229 469.767 566.229C468.903 566.229 468.108 566.19 467.38 566.114C466.66 566.038 465.954 565.915 465.26 565.746V563.715C466.005 563.926 466.745 564.087 467.481 564.197C468.218 564.307 468.95 564.362 469.678 564.362C470.736 564.362 471.519 564.218 472.026 563.931C472.534 563.643 472.788 563.232 472.788 562.699C472.788 562.471 472.746 562.268 472.661 562.09C472.585 561.904 472.441 561.73 472.229 561.569C472.018 561.4 471.688 561.227 471.239 561.049C470.799 560.871 470.194 560.668 469.424 560.439C468.848 560.27 468.315 560.08 467.824 559.868C467.342 559.648 466.923 559.39 466.567 559.094C466.212 558.798 465.933 558.451 465.729 558.053C465.526 557.655 465.425 557.185 465.425 556.644C465.425 556.288 465.505 555.899 465.666 555.476C465.835 555.052 466.119 554.659 466.517 554.295C466.914 553.931 467.452 553.631 468.129 553.394C468.806 553.148 469.652 553.025 470.668 553.025C471.167 553.025 471.722 553.055 472.331 553.114C472.94 553.165 473.575 553.258 474.235 553.394V555.361C473.541 555.192 472.881 555.069 472.255 554.993C471.637 554.909 471.1 554.866 470.643 554.866C470.092 554.866 469.627 554.909 469.246 554.993C468.874 555.078 468.569 555.196 468.332 555.349C468.104 555.493 467.938 555.666 467.837 555.869C467.735 556.064 467.685 556.275 467.685 556.504C467.685 556.732 467.727 556.94 467.812 557.126C467.905 557.312 468.07 557.494 468.307 557.672C468.552 557.841 468.891 558.015 469.322 558.192C469.754 558.362 470.317 558.548 471.011 558.751C471.764 558.971 472.399 559.204 472.915 559.449C473.431 559.686 473.85 559.953 474.172 560.249C474.493 560.545 474.722 560.88 474.857 561.252C475.001 561.624 475.073 562.048 475.073 562.521ZM501.759 566L501.708 564.286C501.014 564.972 500.307 565.467 499.588 565.771C498.877 566.076 498.128 566.229 497.341 566.229C496.613 566.229 495.991 566.135 495.475 565.949C494.958 565.763 494.531 565.509 494.192 565.188C493.862 564.857 493.617 564.472 493.456 564.032C493.304 563.592 493.228 563.114 493.228 562.598C493.228 561.32 493.701 560.321 494.649 559.602C495.606 558.874 497.015 558.51 498.877 558.51H501.518V557.393C501.518 556.639 501.276 556.038 500.794 555.59C500.312 555.133 499.575 554.904 498.585 554.904C497.866 554.904 497.155 554.985 496.452 555.146C495.758 555.306 495.039 555.535 494.294 555.831V553.838C494.573 553.736 494.882 553.639 495.221 553.546C495.568 553.444 495.932 553.355 496.312 553.279C496.693 553.203 497.091 553.144 497.506 553.102C497.921 553.051 498.34 553.025 498.763 553.025C499.533 553.025 500.227 553.11 500.845 553.279C501.463 553.449 501.983 553.707 502.406 554.054C502.838 554.401 503.168 554.837 503.396 555.361C503.625 555.886 503.739 556.504 503.739 557.215V566H501.759ZM501.518 560.198H498.712C498.162 560.198 497.688 560.253 497.29 560.363C496.892 560.473 496.566 560.63 496.312 560.833C496.059 561.036 495.868 561.282 495.741 561.569C495.623 561.849 495.563 562.166 495.563 562.521C495.563 562.767 495.602 563.004 495.678 563.232C495.754 563.452 495.877 563.651 496.046 563.829C496.215 563.998 496.435 564.134 496.706 564.235C496.977 564.337 497.307 564.388 497.696 564.388C498.204 564.388 498.784 564.235 499.436 563.931C500.096 563.618 500.79 563.127 501.518 562.458V560.198ZM508.386 553.254H510.404L510.468 555.603C511.221 554.697 511.962 554.041 512.689 553.635C513.426 553.229 514.166 553.025 514.911 553.025C516.231 553.025 517.23 553.453 517.907 554.308C518.593 555.162 518.91 556.432 518.859 558.116H516.625C516.65 556.999 516.485 556.191 516.13 555.691C515.783 555.184 515.271 554.93 514.594 554.93C514.298 554.93 513.997 554.985 513.692 555.095C513.396 555.196 513.087 555.366 512.766 555.603C512.452 555.831 512.118 556.127 511.763 556.491C511.407 556.855 511.026 557.295 510.62 557.812V566H508.386V553.254ZM522.681 553.254H524.699L524.763 555.603C525.516 554.697 526.257 554.041 526.984 553.635C527.721 553.229 528.461 553.025 529.206 553.025C530.526 553.025 531.525 553.453 532.202 554.308C532.888 555.162 533.205 556.432 533.154 558.116H530.92C530.945 556.999 530.78 556.191 530.425 555.691C530.078 555.184 529.566 554.93 528.889 554.93C528.592 554.93 528.292 554.985 527.987 555.095C527.691 555.196 527.382 555.366 527.061 555.603C526.747 555.831 526.413 556.127 526.058 556.491C525.702 556.855 525.321 557.295 524.915 557.812V566H522.681V553.254ZM547.551 559.525C547.551 560.516 547.411 561.425 547.132 562.255C546.853 563.076 546.451 563.783 545.926 564.375C545.401 564.959 544.762 565.416 544.009 565.746C543.256 566.068 542.401 566.229 541.444 566.229C540.53 566.229 539.709 566.089 538.981 565.81C538.262 565.522 537.648 565.103 537.141 564.553C536.641 564.003 536.256 563.321 535.985 562.509C535.723 561.696 535.592 560.761 535.592 559.703C535.592 558.713 535.731 557.812 536.011 556.999C536.29 556.178 536.692 555.476 537.217 554.892C537.742 554.299 538.381 553.842 539.134 553.521C539.887 553.19 540.742 553.025 541.698 553.025C542.612 553.025 543.429 553.169 544.148 553.457C544.876 553.736 545.49 554.151 545.989 554.701C546.497 555.243 546.882 555.92 547.145 556.732C547.415 557.545 547.551 558.476 547.551 559.525ZM545.291 559.627C545.291 558.84 545.202 558.154 545.024 557.57C544.855 556.978 544.61 556.487 544.288 556.098C543.966 555.7 543.573 555.404 543.107 555.209C542.65 555.006 542.138 554.904 541.571 554.904C540.911 554.904 540.344 555.035 539.87 555.298C539.405 555.552 539.02 555.895 538.715 556.326C538.419 556.758 538.199 557.261 538.055 557.837C537.919 558.404 537.852 559.001 537.852 559.627C537.852 560.414 537.936 561.104 538.105 561.696C538.283 562.289 538.533 562.784 538.854 563.182C539.176 563.571 539.565 563.867 540.022 564.07C540.479 564.265 540.996 564.362 541.571 564.362C542.231 564.362 542.794 564.235 543.26 563.981C543.734 563.719 544.119 563.372 544.415 562.94C544.72 562.509 544.94 562.009 545.075 561.442C545.219 560.867 545.291 560.262 545.291 559.627ZM562.557 553.254L560.703 566H558.024L556.184 560.668L555.815 559.373L555.396 560.744L553.632 566H551.029L549.188 553.254H551.347L552.413 561.912L552.642 563.842L553.188 562.153L555.041 556.428H556.628L558.621 562.077L559.192 563.766L559.383 561.976L560.373 553.254H562.557Z" fill="#666666"/>
<rect x="209" y="47" width="104" height="28" rx="6" fill="#FFF4EF" stroke="#FF5500" stroke-width="2"/>
<path d="M218.578 57.1953H220.092L220.16 58.7773C220.447 58.4388 220.723 58.1589 220.99 57.9375C221.257 57.7096 221.518 57.5273 221.771 57.3906C222.032 57.2539 222.296 57.1595 222.562 57.1074C222.829 57.0488 223.106 57.0195 223.393 57.0195C224.402 57.0195 225.163 57.319 225.678 57.918C226.199 58.5104 226.459 59.4056 226.459 60.6035V67H224.76V60.7402C224.76 59.972 224.617 59.4056 224.33 59.041C224.044 58.6699 223.617 58.4844 223.051 58.4844C222.842 58.4844 222.637 58.5169 222.436 58.582C222.24 58.6406 222.035 58.748 221.82 58.9043C221.605 59.054 221.371 59.2591 221.117 59.5195C220.87 59.7799 220.59 60.1055 220.277 60.4961V67H218.578V57.1953ZM237.855 61.5801C237.855 61.821 237.852 62.0228 237.846 62.1855C237.839 62.3483 237.829 62.5013 237.816 62.6445H230.932C230.932 63.6471 231.212 64.4186 231.771 64.959C232.331 65.4928 233.139 65.7598 234.193 65.7598C234.48 65.7598 234.766 65.75 235.053 65.7305C235.339 65.7044 235.616 65.6719 235.883 65.6328C236.15 65.5938 236.404 65.5514 236.645 65.5059C236.892 65.4538 237.12 65.3984 237.328 65.3398V66.7363C236.866 66.8665 236.342 66.9707 235.756 67.0488C235.176 67.1335 234.574 67.1758 233.949 67.1758C233.109 67.1758 232.387 67.0618 231.781 66.834C231.176 66.6061 230.678 66.2773 230.287 65.8477C229.903 65.4115 229.617 64.8809 229.428 64.2559C229.245 63.6243 229.154 62.9115 229.154 62.1172C229.154 61.4271 229.252 60.776 229.447 60.1641C229.649 59.5456 229.939 59.0052 230.316 58.543C230.701 58.0742 231.169 57.7031 231.723 57.4297C232.276 57.1562 232.904 57.0195 233.607 57.0195C234.291 57.0195 234.896 57.127 235.424 57.3418C235.951 57.5566 236.394 57.8626 236.752 58.2598C237.117 58.6504 237.39 59.1289 237.572 59.6953C237.761 60.2552 237.855 60.8835 237.855 61.5801ZM236.088 61.3359C236.107 60.8997 236.065 60.5026 235.961 60.1445C235.857 59.7799 235.694 59.4674 235.473 59.207C235.258 58.9466 234.988 58.7448 234.662 58.6016C234.337 58.4518 233.959 58.377 233.529 58.377C233.158 58.377 232.82 58.4486 232.514 58.5918C232.208 58.735 231.944 58.9368 231.723 59.1973C231.501 59.4577 231.322 59.7702 231.186 60.1348C231.049 60.4993 230.964 60.8997 230.932 61.3359H236.088ZM249.652 57.1953L248.227 67H246.166L244.75 62.8984L244.467 61.9023L244.145 62.957L242.787 67H240.785L239.369 57.1953H241.029L241.85 63.8555L242.025 65.3398L242.445 64.041L243.871 59.6367H245.092L246.625 63.9824L247.064 65.2812L247.211 63.9043L247.973 57.1953H249.652ZM261 71.0039H250.004V69.5977H261V71.0039ZM262.562 57.1953H264.076L264.145 58.7773C264.431 58.4388 264.708 58.1589 264.975 57.9375C265.242 57.7096 265.502 57.5273 265.756 57.3906C266.016 57.2539 266.28 57.1595 266.547 57.1074C266.814 57.0488 267.09 57.0195 267.377 57.0195C268.386 57.0195 269.148 57.319 269.662 57.918C270.183 58.5104 270.443 59.4056 270.443 60.6035V67H268.744V60.7402C268.744 59.972 268.601 59.4056 268.314 59.041C268.028 58.6699 267.602 58.4844 267.035 58.4844C266.827 58.4844 266.622 58.5169 266.42 58.582C266.225 58.6406 266.02 58.748 265.805 58.9043C265.59 59.054 265.355 59.2591 265.102 59.5195C264.854 59.7799 264.574 60.1055 264.262 60.4961V67H262.562V57.1953ZM282.094 62.0195C282.094 62.7812 281.986 63.4811 281.771 64.1191C281.557 64.7507 281.247 65.2943 280.844 65.75C280.44 66.1992 279.949 66.5508 279.369 66.8047C278.79 67.0521 278.132 67.1758 277.396 67.1758C276.693 67.1758 276.062 67.0684 275.502 66.8535C274.949 66.6322 274.477 66.3099 274.086 65.8867C273.702 65.4635 273.406 64.9395 273.197 64.3145C272.995 63.6895 272.895 62.9701 272.895 62.1562C272.895 61.3945 273.002 60.7012 273.217 60.0762C273.432 59.4447 273.741 58.9043 274.145 58.4551C274.548 57.9993 275.04 57.6478 275.619 57.4004C276.199 57.1465 276.856 57.0195 277.592 57.0195C278.295 57.0195 278.923 57.1302 279.477 57.3516C280.036 57.5664 280.508 57.8854 280.893 58.3086C281.283 58.7253 281.579 59.2461 281.781 59.8711C281.99 60.4961 282.094 61.2122 282.094 62.0195ZM280.355 62.0977C280.355 61.4922 280.287 60.9648 280.15 60.5156C280.02 60.0599 279.831 59.6823 279.584 59.3828C279.337 59.0768 279.034 58.849 278.676 58.6992C278.324 58.543 277.93 58.4648 277.494 58.4648C276.986 58.4648 276.55 58.5658 276.186 58.7676C275.827 58.9629 275.531 59.2266 275.297 59.5586C275.069 59.8906 274.9 60.278 274.789 60.7207C274.685 61.1569 274.633 61.6159 274.633 62.0977C274.633 62.7031 274.698 63.2337 274.828 63.6895C274.965 64.1452 275.157 64.526 275.404 64.832C275.652 65.1315 275.951 65.3594 276.303 65.5156C276.654 65.6654 277.051 65.7402 277.494 65.7402C278.002 65.7402 278.435 65.6426 278.793 65.4473C279.158 65.2454 279.454 64.9785 279.682 64.6465C279.916 64.3145 280.085 63.9303 280.189 63.4941C280.3 63.0514 280.355 62.5859 280.355 62.0977ZM284.057 62.3027C284.057 61.4694 284.171 60.7305 284.398 60.0859C284.626 59.4349 284.949 58.888 285.365 58.4453C285.788 57.9961 286.293 57.6576 286.879 57.4297C287.471 57.1953 288.129 57.0781 288.852 57.0781C289.164 57.0781 289.47 57.0977 289.77 57.1367C290.076 57.1758 290.375 57.2376 290.668 57.3223V53.2012H292.377V67H290.854L290.795 65.1445C290.32 65.8346 289.805 66.3457 289.252 66.6777C288.699 67.0098 288.1 67.1758 287.455 67.1758C286.895 67.1758 286.4 67.0586 285.971 66.8242C285.548 66.5898 285.193 66.2611 284.906 65.8379C284.626 65.4082 284.415 64.8939 284.271 64.2949C284.128 63.696 284.057 63.0319 284.057 62.3027ZM285.795 62.1953C285.795 63.3802 285.967 64.2656 286.312 64.8516C286.664 65.431 287.159 65.7207 287.797 65.7207C288.227 65.7207 288.679 65.5286 289.154 65.1445C289.636 64.7604 290.141 64.1908 290.668 63.4355V58.8848C290.388 58.7546 290.079 58.6569 289.74 58.5918C289.402 58.5202 289.066 58.4844 288.734 58.4844C287.81 58.4844 287.087 58.7839 286.566 59.3828C286.052 59.9818 285.795 60.9193 285.795 62.1953ZM303.832 61.5801C303.832 61.821 303.829 62.0228 303.822 62.1855C303.816 62.3483 303.806 62.5013 303.793 62.6445H296.908C296.908 63.6471 297.188 64.4186 297.748 64.959C298.308 65.4928 299.115 65.7598 300.17 65.7598C300.456 65.7598 300.743 65.75 301.029 65.7305C301.316 65.7044 301.592 65.6719 301.859 65.6328C302.126 65.5938 302.38 65.5514 302.621 65.5059C302.868 65.4538 303.096 65.3984 303.305 65.3398V66.7363C302.842 66.8665 302.318 66.9707 301.732 67.0488C301.153 67.1335 300.551 67.1758 299.926 67.1758C299.086 67.1758 298.363 67.0618 297.758 66.834C297.152 66.6061 296.654 66.2773 296.264 65.8477C295.88 65.4115 295.593 64.8809 295.404 64.2559C295.222 63.6243 295.131 62.9115 295.131 62.1172C295.131 61.4271 295.229 60.776 295.424 60.1641C295.626 59.5456 295.915 59.0052 296.293 58.543C296.677 58.0742 297.146 57.7031 297.699 57.4297C298.253 57.1562 298.881 57.0195 299.584 57.0195C300.268 57.0195 300.873 57.127 301.4 57.3418C301.928 57.5566 302.37 57.8626 302.729 58.2598C303.093 58.6504 303.367 59.1289 303.549 59.6953C303.738 60.2552 303.832 60.8835 303.832 61.5801ZM302.064 61.3359C302.084 60.8997 302.042 60.5026 301.938 60.1445C301.833 59.7799 301.671 59.4674 301.449 59.207C301.234 58.9466 300.964 58.7448 300.639 58.6016C300.313 58.4518 299.936 58.377 299.506 58.377C299.135 58.377 298.796 58.4486 298.49 58.5918C298.184 58.735 297.921 58.9368 297.699 59.1973C297.478 59.4577 297.299 59.7702 297.162 60.1348C297.025 60.4993 296.941 60.8997 296.908 61.3359H302.064Z" fill="#FF5500"/>
<path d="M260.293 103.707C260.683 104.098 261.317 104.098 261.707 103.707L268.071 97.3431C268.462 96.9526 268.462 96.3195 268.071 95.9289C267.681 95.5384 267.047 95.5384 266.657 95.9289L261 101.586L255.343 95.9289C254.953 95.5384 254.319 95.5384 253.929 95.9289C253.538 96.3195 253.538 96.9526 253.929 97.3431L260.293 103.707ZM260 76L260 103L262 103L262 76L260 76Z" fill="#FF5500"/>
<line x1="275.768" y1="485.768" x2="247.768" y2="513.768" stroke="#FF0000" stroke-width="5"/>
<line y1="-2.5" x2="39.598" y2="-2.5" transform="matrix(0.707107 0.707107 0.707107 -0.707107 249 484)" stroke="#FF0000" stroke-width="5"/>
</g>
<defs>
<clipPath id="clip0_6185_2850">
<rect width="563" height="568" fill="white"/>
</clipPath>
</defs>
</svg>
