<svg width="370" height="51" viewBox="0 0 370 51" fill="none" xmlns="http://www.w3.org/2000/svg">
<g clip-path="url(#clip0_6296_6358)">
<rect width="370" height="51" fill="white"/>
<path d="M7.27539 28.0059H0.0537109V0.789062H7.27539V2.83984H2.48535V25.9551H7.27539V28.0059ZM42.7539 22H30.1416V19.7148L35.0928 14.793C35.9033 13.9922 36.5625 13.2988 37.0703 12.7129C37.5781 12.127 37.9736 11.5947 38.2568 11.1162C38.54 10.6279 38.7305 10.1689 38.8281 9.73926C38.9258 9.30957 38.9746 8.8457 38.9746 8.34766C38.9746 7.87891 38.9111 7.43457 38.7842 7.01465C38.6572 6.58496 38.4619 6.20898 38.1982 5.88672C37.9346 5.56445 37.5928 5.31055 37.1729 5.125C36.7529 4.93945 36.25 4.84668 35.6641 4.84668C34.8535 4.84668 34.1162 5.02734 33.4521 5.38867C32.7881 5.75 32.1777 6.21875 31.6211 6.79492L30.2148 5.11035C30.9375 4.34863 31.7676 3.73828 32.7051 3.2793C33.6523 2.82031 34.751 2.59082 36.001 2.59082C36.8506 2.59082 37.6221 2.71777 38.3154 2.97168C39.0186 3.22559 39.624 3.5918 40.1318 4.07031C40.6396 4.54883 41.0303 5.13477 41.3037 5.82812C41.5869 6.52148 41.7285 7.30273 41.7285 8.17188C41.7285 8.9043 41.6309 9.58301 41.4355 10.208C41.2402 10.833 40.9424 11.458 40.542 12.083C40.1514 12.6982 39.6533 13.3379 39.0479 14.002C38.4521 14.666 37.7441 15.3936 36.9238 16.1846L33.4521 19.5684H42.7539V22ZM92.6758 12.4346C92.6758 13.8994 92.5293 15.2373 92.2363 16.4482C91.9434 17.6494 91.499 18.6846 90.9033 19.5537C90.3076 20.4131 89.5654 21.082 88.6768 21.5605C87.7979 22.0293 86.7627 22.2637 85.5713 22.2637C84.5459 22.2637 83.6133 22.0732 82.7734 21.6924C81.9336 21.3018 81.2158 20.7061 80.6201 19.9053C80.0244 19.1045 79.5654 18.084 79.2432 16.8438C78.9209 15.6035 78.7598 14.1338 78.7598 12.4346C78.7598 10.9697 78.9062 9.63184 79.1992 8.4209C79.502 7.20996 79.9463 6.1748 80.5322 5.31543C81.1279 4.44629 81.8701 3.77734 82.7588 3.30859C83.6475 2.83008 84.6826 2.59082 85.8643 2.59082C86.8896 2.59082 87.8223 2.78613 88.6621 3.17676C89.502 3.55762 90.2197 4.15332 90.8154 4.96387C91.4111 5.76465 91.8701 6.78516 92.1924 8.02539C92.5146 9.26562 92.6758 10.7354 92.6758 12.4346ZM90.0977 12.5225C90.0977 12.1904 90.083 11.8633 90.0537 11.541C90.0342 11.209 90.0098 10.8867 89.9805 10.5742L81.8799 16.5947C82.0264 17.1025 82.2119 17.5713 82.4365 18.001C82.6611 18.4307 82.9297 18.8018 83.2422 19.1143C83.5645 19.417 83.9258 19.6562 84.3262 19.832C84.7363 19.998 85.2002 20.0811 85.7178 20.0811C86.3818 20.0811 86.9824 19.9199 87.5195 19.5977C88.0664 19.2754 88.5303 18.7969 88.9111 18.1621C89.292 17.5273 89.585 16.7412 89.79 15.8037C89.9951 14.8564 90.0977 13.7627 90.0977 12.5225ZM81.3379 12.3467C81.3379 12.6494 81.3379 12.9521 81.3379 13.2549C81.3477 13.5576 81.3672 13.8506 81.3965 14.1338L89.4971 8.14258C89.3506 7.64453 89.165 7.19043 88.9404 6.78027C88.7158 6.37012 88.4473 6.01855 88.1348 5.72559C87.8223 5.42285 87.4658 5.18848 87.0654 5.02246C86.665 4.85645 86.2158 4.77344 85.7178 4.77344C85.0537 4.77344 84.4482 4.93457 83.9014 5.25684C83.3643 5.5791 82.9053 6.0625 82.5244 6.70703C82.1436 7.3418 81.8506 8.13281 81.6455 9.08008C81.4404 10.0176 81.3379 11.1064 81.3379 12.3467ZM141.558 22H129.531V19.627H134.453V5.65234L129.868 8.14258L128.931 5.97461L135.024 2.7666H137.28V19.627H141.558V22ZM191.201 22H178.589V19.7148L183.54 14.793C184.351 13.9922 185.01 13.2988 185.518 12.7129C186.025 12.127 186.421 11.5947 186.704 11.1162C186.987 10.6279 187.178 10.1689 187.275 9.73926C187.373 9.30957 187.422 8.8457 187.422 8.34766C187.422 7.87891 187.358 7.43457 187.231 7.01465C187.104 6.58496 186.909 6.20898 186.646 5.88672C186.382 5.56445 186.04 5.31055 185.62 5.125C185.2 4.93945 184.697 4.84668 184.111 4.84668C183.301 4.84668 182.563 5.02734 181.899 5.38867C181.235 5.75 180.625 6.21875 180.068 6.79492L178.662 5.11035C179.385 4.34863 180.215 3.73828 181.152 3.2793C182.1 2.82031 183.198 2.59082 184.448 2.59082C185.298 2.59082 186.069 2.71777 186.763 2.97168C187.466 3.22559 188.071 3.5918 188.579 4.07031C189.087 4.54883 189.478 5.13477 189.751 5.82812C190.034 6.52148 190.176 7.30273 190.176 8.17188C190.176 8.9043 190.078 9.58301 189.883 10.208C189.688 10.833 189.39 11.458 188.989 12.083C188.599 12.6982 188.101 13.3379 187.495 14.002C186.899 14.666 186.191 15.3936 185.371 16.1846L181.899 19.5684H191.201V22ZM241.123 12.4346C241.123 13.8994 240.977 15.2373 240.684 16.4482C240.391 17.6494 239.946 18.6846 239.351 19.5537C238.755 20.4131 238.013 21.082 237.124 21.5605C236.245 22.0293 235.21 22.2637 234.019 22.2637C232.993 22.2637 232.061 22.0732 231.221 21.6924C230.381 21.3018 229.663 20.7061 229.067 19.9053C228.472 19.1045 228.013 18.084 227.69 16.8438C227.368 15.6035 227.207 14.1338 227.207 12.4346C227.207 10.9697 227.354 9.63184 227.646 8.4209C227.949 7.20996 228.394 6.1748 228.979 5.31543C229.575 4.44629 230.317 3.77734 231.206 3.30859C232.095 2.83008 233.13 2.59082 234.312 2.59082C235.337 2.59082 236.27 2.78613 237.109 3.17676C237.949 3.55762 238.667 4.15332 239.263 4.96387C239.858 5.76465 240.317 6.78516 240.64 8.02539C240.962 9.26562 241.123 10.7354 241.123 12.4346ZM238.545 12.5225C238.545 12.1904 238.53 11.8633 238.501 11.541C238.481 11.209 238.457 10.8867 238.428 10.5742L230.327 16.5947C230.474 17.1025 230.659 17.5713 230.884 18.001C231.108 18.4307 231.377 18.8018 231.689 19.1143C232.012 19.417 232.373 19.6562 232.773 19.832C233.184 19.998 233.647 20.0811 234.165 20.0811C234.829 20.0811 235.43 19.9199 235.967 19.5977C236.514 19.2754 236.978 18.7969 237.358 18.1621C237.739 17.5273 238.032 16.7412 238.237 15.8037C238.442 14.8564 238.545 13.7627 238.545 12.5225ZM229.785 12.3467C229.785 12.6494 229.785 12.9521 229.785 13.2549C229.795 13.5576 229.814 13.8506 229.844 14.1338L237.944 8.14258C237.798 7.64453 237.612 7.19043 237.388 6.78027C237.163 6.37012 236.895 6.01855 236.582 5.72559C236.27 5.42285 235.913 5.18848 235.513 5.02246C235.112 4.85645 234.663 4.77344 234.165 4.77344C233.501 4.77344 232.896 4.93457 232.349 5.25684C231.812 5.5791 231.353 6.0625 230.972 6.70703C230.591 7.3418 230.298 8.13281 230.093 9.08008C229.888 10.0176 229.785 11.1064 229.785 12.3467ZM290.605 12.4346C290.605 13.8994 290.459 15.2373 290.166 16.4482C289.873 17.6494 289.429 18.6846 288.833 19.5537C288.237 20.4131 287.495 21.082 286.606 21.5605C285.728 22.0293 284.692 22.2637 283.501 22.2637C282.476 22.2637 281.543 22.0732 280.703 21.6924C279.863 21.3018 279.146 20.7061 278.55 19.9053C277.954 19.1045 277.495 18.084 277.173 16.8438C276.851 15.6035 276.689 14.1338 276.689 12.4346C276.689 10.9697 276.836 9.63184 277.129 8.4209C277.432 7.20996 277.876 6.1748 278.462 5.31543C279.058 4.44629 279.8 3.77734 280.688 3.30859C281.577 2.83008 282.612 2.59082 283.794 2.59082C284.819 2.59082 285.752 2.78613 286.592 3.17676C287.432 3.55762 288.149 4.15332 288.745 4.96387C289.341 5.76465 289.8 6.78516 290.122 8.02539C290.444 9.26562 290.605 10.7354 290.605 12.4346ZM288.027 12.5225C288.027 12.1904 288.013 11.8633 287.983 11.541C287.964 11.209 287.939 10.8867 287.91 10.5742L279.81 16.5947C279.956 17.1025 280.142 17.5713 280.366 18.001C280.591 18.4307 280.859 18.8018 281.172 19.1143C281.494 19.417 281.855 19.6562 282.256 19.832C282.666 19.998 283.13 20.0811 283.647 20.0811C284.312 20.0811 284.912 19.9199 285.449 19.5977C285.996 19.2754 286.46 18.7969 286.841 18.1621C287.222 17.5273 287.515 16.7412 287.72 15.8037C287.925 14.8564 288.027 13.7627 288.027 12.5225ZM279.268 12.3467C279.268 12.6494 279.268 12.9521 279.268 13.2549C279.277 13.5576 279.297 13.8506 279.326 14.1338L287.427 8.14258C287.28 7.64453 287.095 7.19043 286.87 6.78027C286.646 6.37012 286.377 6.01855 286.064 5.72559C285.752 5.42285 285.396 5.18848 284.995 5.02246C284.595 4.85645 284.146 4.77344 283.647 4.77344C282.983 4.77344 282.378 4.93457 281.831 5.25684C281.294 5.5791 280.835 6.0625 280.454 6.70703C280.073 7.3418 279.78 8.13281 279.575 9.08008C279.37 10.0176 279.268 11.1064 279.268 12.3467ZM339.487 22H327.461V19.627H332.383V5.65234L327.798 8.14258L326.86 5.97461L332.954 2.7666H335.21V19.627H339.487V22ZM369.312 28.0059H362.09V25.9551H366.851V2.83984H362.09V0.789062H369.312V28.0059Z" fill="black"/>
<path d="M40.1367 43.623C40.1367 44.5996 40.0391 45.4915 39.8438 46.2988C39.6484 47.0996 39.3522 47.7897 38.9551 48.3691C38.5579 48.9421 38.0632 49.388 37.4707 49.707C36.8848 50.0195 36.1947 50.1758 35.4004 50.1758C34.7168 50.1758 34.0951 50.0488 33.5352 49.7949C32.9753 49.5345 32.4967 49.1374 32.0996 48.6035C31.7025 48.0697 31.3965 47.3893 31.1816 46.5625C30.9668 45.7357 30.8594 44.7559 30.8594 43.623C30.8594 42.6465 30.957 41.7546 31.1523 40.9473C31.3542 40.14 31.6504 39.4499 32.041 38.877C32.4382 38.2975 32.9329 37.8516 33.5254 37.5391C34.1178 37.2201 34.8079 37.0605 35.5957 37.0605C36.2793 37.0605 36.901 37.1908 37.4609 37.4512C38.0208 37.7051 38.4993 38.1022 38.8965 38.6426C39.2936 39.1764 39.5996 39.8568 39.8145 40.6836C40.0293 41.5104 40.1367 42.4902 40.1367 43.623ZM38.418 43.6816C38.418 43.4603 38.4082 43.2422 38.3887 43.0273C38.3757 42.806 38.3594 42.5911 38.3398 42.3828L32.9395 46.3965C33.0371 46.735 33.1608 47.0475 33.3105 47.334C33.4603 47.6204 33.6393 47.8678 33.8477 48.0762C34.0625 48.278 34.3034 48.4375 34.5703 48.5547C34.8438 48.6654 35.153 48.7207 35.498 48.7207C35.9408 48.7207 36.3411 48.6133 36.6992 48.3984C37.0638 48.1836 37.373 47.8646 37.627 47.4414C37.8809 47.0182 38.0762 46.4941 38.2129 45.8691C38.3496 45.2376 38.418 44.5085 38.418 43.6816ZM32.5781 43.5645C32.5781 43.7663 32.5781 43.9681 32.5781 44.1699C32.5846 44.3717 32.5977 44.5671 32.6172 44.7559L38.0176 40.7617C37.9199 40.4297 37.7962 40.127 37.6465 39.8535C37.4967 39.5801 37.3177 39.3457 37.1094 39.1504C36.901 38.9486 36.6634 38.7923 36.3965 38.6816C36.1296 38.571 35.8301 38.5156 35.498 38.5156C35.0553 38.5156 34.6517 38.623 34.2871 38.8379C33.929 39.0527 33.623 39.375 33.3691 39.8047C33.1152 40.2279 32.9199 40.7552 32.7832 41.3867C32.6465 42.0117 32.5781 42.7376 32.5781 43.5645Z" fill="black" fill-opacity="0.5"/>
<path d="M89.7363 50H81.7188V48.418H85V39.1016L81.9434 40.7617L81.3184 39.3164L85.3809 37.1777H86.8848V48.418H89.7363V50Z" fill="black" fill-opacity="0.5"/>
<path d="M139.844 50H131.436V48.4766L134.736 45.1953C135.277 44.6615 135.716 44.1992 136.055 43.8086C136.393 43.418 136.657 43.0632 136.846 42.7441C137.035 42.4186 137.161 42.1126 137.227 41.8262C137.292 41.5397 137.324 41.2305 137.324 40.8984C137.324 40.5859 137.282 40.2897 137.197 40.0098C137.113 39.7233 136.982 39.4727 136.807 39.2578C136.631 39.043 136.403 38.8737 136.123 38.75C135.843 38.6263 135.508 38.5645 135.117 38.5645C134.577 38.5645 134.085 38.6849 133.643 38.9258C133.2 39.1667 132.793 39.4792 132.422 39.8633L131.484 38.7402C131.966 38.2324 132.52 37.8255 133.145 37.5195C133.776 37.2135 134.508 37.0605 135.342 37.0605C135.908 37.0605 136.423 37.1452 136.885 37.3145C137.354 37.4837 137.757 37.7279 138.096 38.0469C138.434 38.3659 138.695 38.7565 138.877 39.2188C139.066 39.681 139.16 40.2018 139.16 40.7812C139.16 41.2695 139.095 41.722 138.965 42.1387C138.835 42.5553 138.636 42.972 138.369 43.3887C138.109 43.7988 137.777 44.2253 137.373 44.668C136.976 45.1107 136.504 45.5957 135.957 46.123L133.643 48.3789H139.844V50Z" fill="black" fill-opacity="0.5"/>
<path d="M189.6 46.123C189.6 46.6829 189.486 47.2103 189.258 47.7051C189.03 48.1934 188.688 48.623 188.232 48.9941C187.777 49.3587 187.204 49.6484 186.514 49.8633C185.824 50.0716 185.02 50.1758 184.102 50.1758C183.594 50.1758 183.138 50.1595 182.734 50.127C182.331 50.0944 181.953 50.0521 181.602 50V48.4766C182.005 48.5482 182.432 48.6035 182.881 48.6426C183.33 48.6816 183.789 48.7012 184.258 48.7012C184.896 48.7012 185.439 48.6458 185.889 48.5352C186.344 48.418 186.715 48.252 187.002 48.0371C187.288 47.8223 187.497 47.5618 187.627 47.2559C187.757 46.9499 187.822 46.6048 187.822 46.2207C187.822 45.8691 187.744 45.5632 187.588 45.3027C187.432 45.0423 187.21 44.8242 186.924 44.6484C186.644 44.4727 186.305 44.3424 185.908 44.2578C185.518 44.1667 185.088 44.1211 184.619 44.1211H183.164V42.7246H184.639C185.023 42.7246 185.371 42.6758 185.684 42.5781C186.003 42.474 186.273 42.3275 186.494 42.1387C186.722 41.9499 186.895 41.7188 187.012 41.4453C187.135 41.1654 187.197 40.8496 187.197 40.498C187.197 39.8145 186.989 39.3164 186.572 39.0039C186.156 38.6914 185.544 38.5352 184.736 38.5352C184.307 38.5352 183.864 38.5775 183.408 38.6621C182.952 38.7467 182.464 38.8737 181.943 39.043V37.5586C182.165 37.4805 182.399 37.4121 182.646 37.3535C182.9 37.2884 183.151 37.2363 183.398 37.1973C183.652 37.1517 183.903 37.1191 184.15 37.0996C184.398 37.0736 184.635 37.0605 184.863 37.0605C185.54 37.0605 186.136 37.1354 186.65 37.2852C187.165 37.4284 187.594 37.6367 187.939 37.9102C188.285 38.1836 188.545 38.5156 188.721 38.9062C188.896 39.2969 188.984 39.7363 188.984 40.2246C188.984 40.9538 188.796 41.5658 188.418 42.0605C188.047 42.5553 187.536 42.9492 186.885 43.2422C187.217 43.2943 187.542 43.3984 187.861 43.5547C188.187 43.7109 188.477 43.9128 188.73 44.1602C188.991 44.401 189.199 44.6875 189.355 45.0195C189.518 45.3516 189.6 45.7194 189.6 46.123Z" fill="black" fill-opacity="0.5"/>
<path d="M238.479 47.1777H236.301V50H234.562V47.1777H228.42V45.6836L233.859 37.2363H236.301V45.6836H238.479V47.1777ZM234.562 38.877L230.119 45.6836H234.562V38.877Z" fill="black" fill-opacity="0.5"/>
<path d="M287.521 45.918C287.521 46.5495 287.385 47.1257 287.111 47.6465C286.838 48.1673 286.46 48.6165 285.979 48.9941C285.503 49.3652 284.94 49.6549 284.289 49.8633C283.638 50.0716 282.935 50.1758 282.18 50.1758C281.991 50.1758 281.786 50.1693 281.564 50.1562C281.35 50.1497 281.135 50.1367 280.92 50.1172C280.705 50.1042 280.493 50.0879 280.285 50.0684C280.083 50.0488 279.901 50.026 279.738 50V48.457C280.09 48.5417 280.49 48.6035 280.939 48.6426C281.395 48.6816 281.854 48.7012 282.316 48.7012C282.837 48.7012 283.306 48.6393 283.723 48.5156C284.139 48.3919 284.494 48.2161 284.787 47.9883C285.08 47.7539 285.305 47.474 285.461 47.1484C285.617 46.8164 285.695 46.4453 285.695 46.0352C285.695 45.2409 285.409 44.6647 284.836 44.3066C284.27 43.9421 283.452 43.7598 282.385 43.7598H279.963V37.2363H286.838V38.7207H281.564V42.3047H282.678C283.29 42.3047 283.885 42.36 284.465 42.4707C285.044 42.5814 285.559 42.7767 286.008 43.0566C286.464 43.3301 286.828 43.7012 287.102 44.1699C287.382 44.6322 287.521 45.2148 287.521 45.918Z" fill="black" fill-opacity="0.5"/>
<path d="M338 45.957C338 46.543 337.893 47.0931 337.678 47.6074C337.469 48.1217 337.17 48.571 336.779 48.9551C336.389 49.3327 335.917 49.6322 335.363 49.8535C334.816 50.0684 334.208 50.1758 333.537 50.1758C332.834 50.1758 332.212 50.0651 331.672 49.8438C331.132 49.6159 330.679 49.2708 330.314 48.8086C329.95 48.3398 329.673 47.7507 329.484 47.041C329.296 46.3314 329.201 45.4915 329.201 44.5215C329.201 43.8704 329.243 43.2389 329.328 42.627C329.413 42.015 329.553 41.4388 329.748 40.8984C329.943 40.3581 330.204 39.8633 330.529 39.4141C330.855 38.9648 331.258 38.5807 331.74 38.2617C332.229 37.9362 332.801 37.6855 333.459 37.5098C334.117 37.3275 334.878 37.2363 335.744 37.2363H337.004V38.7207H335.637C334.875 38.7207 334.214 38.8118 333.654 38.9941C333.094 39.1764 332.626 39.4336 332.248 39.7656C331.87 40.0977 331.581 40.498 331.379 40.9668C331.177 41.4355 331.05 41.9596 330.998 42.5391L330.959 42.9395C331.369 42.6986 331.841 42.5065 332.375 42.3633C332.915 42.2135 333.498 42.1387 334.123 42.1387C334.768 42.1387 335.331 42.2331 335.812 42.4219C336.301 42.6107 336.704 42.8743 337.023 43.2129C337.349 43.5449 337.593 43.9453 337.756 44.4141C337.919 44.8828 338 45.3971 338 45.957ZM336.223 46.0645C336.223 45.6738 336.174 45.3223 336.076 45.0098C335.985 44.6908 335.839 44.4238 335.637 44.209C335.435 43.9876 335.178 43.8184 334.865 43.7012C334.559 43.5775 334.191 43.5156 333.762 43.5156C333.514 43.5156 333.264 43.5384 333.01 43.584C332.756 43.6296 332.505 43.6947 332.258 43.7793C332.017 43.8574 331.786 43.9486 331.564 44.0527C331.343 44.1569 331.141 44.2676 330.959 44.3848C330.959 45.2246 331.018 45.9277 331.135 46.4941C331.252 47.054 331.424 47.5033 331.652 47.8418C331.887 48.1803 332.173 48.4212 332.512 48.5645C332.85 48.7077 333.241 48.7793 333.684 48.7793C334.055 48.7793 334.393 48.7207 334.699 48.6035C335.012 48.4798 335.279 48.3008 335.5 48.0664C335.728 47.832 335.904 47.5488 336.027 47.2168C336.158 46.8783 336.223 46.4941 336.223 46.0645Z" fill="black" fill-opacity="0.5"/>
</g>
<defs>
<clipPath id="clip0_6296_6358">
<rect width="370" height="51" fill="white"/>
</clipPath>
</defs>
</svg>
