<svg width="645" height="177" viewBox="0 0 645 177" fill="none" xmlns="http://www.w3.org/2000/svg">
<g clip-path="url(#clip0_6207_4178)">
<rect width="645" height="177" fill="white"/>
<rect x="186" y="64" width="449" height="89" fill="#EDEDED" stroke="#DDDDDD" stroke-width="2"/>
<rect x="206" y="85" width="100" height="47" rx="9" fill="#FFE7DC" stroke="#FF5500" stroke-width="2"/>
<path d="M228.766 118H216.153V115.715L221.104 110.793C221.915 109.992 222.574 109.299 223.082 108.713C223.59 108.127 223.985 107.595 224.269 107.116C224.552 106.628 224.742 106.169 224.84 105.739C224.938 105.31 224.986 104.846 224.986 104.348C224.986 103.879 224.923 103.435 224.796 103.015C224.669 102.585 224.474 102.209 224.21 101.887C223.946 101.564 223.604 101.311 223.185 101.125C222.765 100.939 222.262 100.847 221.676 100.847C220.865 100.847 220.128 101.027 219.464 101.389C218.8 101.75 218.189 102.219 217.633 102.795L216.227 101.11C216.949 100.349 217.779 99.7383 218.717 99.2793C219.664 98.8203 220.763 98.5908 222.013 98.5908C222.862 98.5908 223.634 98.7178 224.327 98.9717C225.03 99.2256 225.636 99.5918 226.144 100.07C226.651 100.549 227.042 101.135 227.315 101.828C227.599 102.521 227.74 103.303 227.74 104.172C227.74 104.904 227.643 105.583 227.447 106.208C227.252 106.833 226.954 107.458 226.554 108.083C226.163 108.698 225.665 109.338 225.06 110.002C224.464 110.666 223.756 111.394 222.936 112.185L219.464 115.568H228.766V118ZM261.754 118H249.142V115.715L254.093 110.793C254.903 109.992 255.562 109.299 256.07 108.713C256.578 108.127 256.974 107.595 257.257 107.116C257.54 106.628 257.73 106.169 257.828 105.739C257.926 105.31 257.975 104.846 257.975 104.348C257.975 103.879 257.911 103.435 257.784 103.015C257.657 102.585 257.462 102.209 257.198 101.887C256.935 101.564 256.593 101.311 256.173 101.125C255.753 100.939 255.25 100.847 254.664 100.847C253.854 100.847 253.116 101.027 252.452 101.389C251.788 101.75 251.178 102.219 250.621 102.795L249.215 101.11C249.938 100.349 250.768 99.7383 251.705 99.2793C252.652 98.8203 253.751 98.5908 255.001 98.5908C255.851 98.5908 256.622 98.7178 257.315 98.9717C258.019 99.2256 258.624 99.5918 259.132 100.07C259.64 100.549 260.03 101.135 260.304 101.828C260.587 102.521 260.729 103.303 260.729 104.172C260.729 104.904 260.631 105.583 260.436 106.208C260.24 106.833 259.942 107.458 259.542 108.083C259.151 108.698 258.653 109.338 258.048 110.002C257.452 110.666 256.744 111.394 255.924 112.185L252.452 115.568H261.754V118ZM277.765 111.877C277.765 112.824 277.56 113.688 277.149 114.47C276.739 115.251 276.173 115.925 275.45 116.491C274.737 117.048 273.893 117.482 272.916 117.795C271.939 118.107 270.885 118.264 269.752 118.264C269.469 118.264 269.161 118.254 268.829 118.234C268.507 118.225 268.185 118.205 267.862 118.176C267.54 118.156 267.223 118.132 266.91 118.103C266.607 118.073 266.334 118.039 266.09 118V115.686C266.617 115.812 267.218 115.905 267.892 115.964C268.575 116.022 269.264 116.052 269.957 116.052C270.738 116.052 271.441 115.959 272.066 115.773C272.691 115.588 273.224 115.324 273.663 114.982C274.103 114.631 274.439 114.211 274.674 113.723C274.908 113.225 275.025 112.668 275.025 112.053C275.025 110.861 274.596 109.997 273.736 109.46C272.887 108.913 271.661 108.64 270.06 108.64H266.427V98.8545H276.739V101.081H268.829V106.457H270.499C271.417 106.457 272.311 106.54 273.18 106.706C274.049 106.872 274.82 107.165 275.494 107.585C276.178 107.995 276.725 108.552 277.135 109.255C277.555 109.948 277.765 110.822 277.765 111.877ZM295.182 108.435C295.182 109.899 295.035 111.237 294.742 112.448C294.449 113.649 294.005 114.685 293.409 115.554C292.813 116.413 292.071 117.082 291.183 117.561C290.304 118.029 289.269 118.264 288.077 118.264C287.052 118.264 286.119 118.073 285.279 117.692C284.439 117.302 283.722 116.706 283.126 115.905C282.53 115.104 282.071 114.084 281.749 112.844C281.427 111.604 281.266 110.134 281.266 108.435C281.266 106.97 281.412 105.632 281.705 104.421C282.008 103.21 282.452 102.175 283.038 101.315C283.634 100.446 284.376 99.7773 285.265 99.3086C286.153 98.8301 287.188 98.5908 288.37 98.5908C289.396 98.5908 290.328 98.7861 291.168 99.1768C292.008 99.5576 292.726 100.153 293.321 100.964C293.917 101.765 294.376 102.785 294.698 104.025C295.021 105.266 295.182 106.735 295.182 108.435ZM292.604 108.522C292.604 108.19 292.589 107.863 292.56 107.541C292.54 107.209 292.516 106.887 292.486 106.574L284.386 112.595C284.532 113.103 284.718 113.571 284.942 114.001C285.167 114.431 285.436 114.802 285.748 115.114C286.07 115.417 286.432 115.656 286.832 115.832C287.242 115.998 287.706 116.081 288.224 116.081C288.888 116.081 289.488 115.92 290.025 115.598C290.572 115.275 291.036 114.797 291.417 114.162C291.798 113.527 292.091 112.741 292.296 111.804C292.501 110.856 292.604 109.763 292.604 108.522ZM283.844 108.347C283.844 108.649 283.844 108.952 283.844 109.255C283.854 109.558 283.873 109.851 283.902 110.134L292.003 104.143C291.856 103.645 291.671 103.19 291.446 102.78C291.222 102.37 290.953 102.019 290.641 101.726C290.328 101.423 289.972 101.188 289.571 101.022C289.171 100.856 288.722 100.773 288.224 100.773C287.56 100.773 286.954 100.935 286.407 101.257C285.87 101.579 285.411 102.062 285.03 102.707C284.649 103.342 284.356 104.133 284.151 105.08C283.946 106.018 283.844 107.106 283.844 108.347Z" fill="black"/>
<path d="M239.942 124.006H237.54V94.0059H239.942V124.006Z" fill="#CCCCCC"/>
<rect x="345" y="85" width="100" height="47" rx="9" fill="#EDEDED" stroke="black" stroke-width="2"/>
<path d="M368.718 113.767H365.451V118H362.844V113.767H353.63V111.525L361.789 98.8545H365.451V111.525H368.718V113.767ZM362.844 101.315L356.179 111.525H362.844V101.315ZM400.388 112.185C400.388 113.024 400.217 113.815 399.875 114.558C399.533 115.29 399.021 115.935 398.337 116.491C397.653 117.038 396.794 117.473 395.759 117.795C394.724 118.107 393.518 118.264 392.141 118.264C391.379 118.264 390.695 118.239 390.09 118.19C389.484 118.142 388.918 118.078 388.391 118V115.715C388.996 115.822 389.636 115.905 390.31 115.964C390.983 116.022 391.672 116.052 392.375 116.052C393.332 116.052 394.147 115.969 394.821 115.803C395.505 115.627 396.062 115.378 396.491 115.056C396.921 114.733 397.233 114.343 397.429 113.884C397.624 113.425 397.722 112.907 397.722 112.331C397.722 111.804 397.604 111.345 397.37 110.954C397.136 110.563 396.804 110.236 396.374 109.973C395.954 109.709 395.446 109.514 394.851 109.387C394.265 109.25 393.62 109.182 392.917 109.182H390.734V107.087H392.946C393.522 107.087 394.045 107.014 394.514 106.867C394.992 106.711 395.397 106.491 395.729 106.208C396.071 105.925 396.33 105.578 396.506 105.168C396.691 104.748 396.784 104.274 396.784 103.747C396.784 102.722 396.472 101.975 395.847 101.506C395.222 101.037 394.304 100.803 393.093 100.803C392.448 100.803 391.784 100.866 391.101 100.993C390.417 101.12 389.685 101.311 388.903 101.564V99.3379C389.235 99.2207 389.587 99.1182 389.958 99.0303C390.339 98.9326 390.715 98.8545 391.086 98.7959C391.467 98.7275 391.843 98.6787 392.214 98.6494C392.585 98.6104 392.941 98.5908 393.283 98.5908C394.299 98.5908 395.192 98.7031 395.964 98.9277C396.735 99.1426 397.38 99.4551 397.897 99.8652C398.415 100.275 398.806 100.773 399.069 101.359C399.333 101.945 399.465 102.604 399.465 103.337C399.465 104.431 399.182 105.349 398.615 106.091C398.059 106.833 397.292 107.424 396.315 107.863C396.813 107.941 397.302 108.098 397.78 108.332C398.269 108.566 398.703 108.869 399.084 109.24C399.475 109.602 399.787 110.031 400.021 110.529C400.266 111.027 400.388 111.579 400.388 112.185ZM417.688 108.435C417.688 109.899 417.541 111.237 417.248 112.448C416.955 113.649 416.511 114.685 415.915 115.554C415.319 116.413 414.577 117.082 413.688 117.561C412.81 118.029 411.774 118.264 410.583 118.264C409.558 118.264 408.625 118.073 407.785 117.692C406.945 117.302 406.228 116.706 405.632 115.905C405.036 115.104 404.577 114.084 404.255 112.844C403.933 111.604 403.771 110.134 403.771 108.435C403.771 106.97 403.918 105.632 404.211 104.421C404.514 103.21 404.958 102.175 405.544 101.315C406.14 100.446 406.882 99.7773 407.771 99.3086C408.659 98.8301 409.694 98.5908 410.876 98.5908C411.901 98.5908 412.834 98.7861 413.674 99.1768C414.514 99.5576 415.231 100.153 415.827 100.964C416.423 101.765 416.882 102.785 417.204 104.025C417.526 105.266 417.688 106.735 417.688 108.435ZM415.109 108.522C415.109 108.19 415.095 107.863 415.065 107.541C415.046 107.209 415.021 106.887 414.992 106.574L406.892 112.595C407.038 113.103 407.224 113.571 407.448 114.001C407.673 114.431 407.941 114.802 408.254 115.114C408.576 115.417 408.938 115.656 409.338 115.832C409.748 115.998 410.212 116.081 410.729 116.081C411.394 116.081 411.994 115.92 412.531 115.598C413.078 115.275 413.542 114.797 413.923 114.162C414.304 113.527 414.597 112.741 414.802 111.804C415.007 110.856 415.109 109.763 415.109 108.522ZM406.35 108.347C406.35 108.649 406.35 108.952 406.35 109.255C406.359 109.558 406.379 109.851 406.408 110.134L414.509 104.143C414.362 103.645 414.177 103.19 413.952 102.78C413.728 102.37 413.459 102.019 413.146 101.726C412.834 101.423 412.478 101.188 412.077 101.022C411.677 100.856 411.228 100.773 410.729 100.773C410.065 100.773 409.46 100.935 408.913 101.257C408.376 101.579 407.917 102.062 407.536 102.707C407.155 103.342 406.862 104.133 406.657 105.08C406.452 106.018 406.35 107.106 406.35 108.347ZM434.182 108.435C434.182 109.899 434.035 111.237 433.742 112.448C433.449 113.649 433.005 114.685 432.409 115.554C431.813 116.413 431.071 117.082 430.183 117.561C429.304 118.029 428.269 118.264 427.077 118.264C426.052 118.264 425.119 118.073 424.279 117.692C423.439 117.302 422.722 116.706 422.126 115.905C421.53 115.104 421.071 114.084 420.749 112.844C420.427 111.604 420.266 110.134 420.266 108.435C420.266 106.97 420.412 105.632 420.705 104.421C421.008 103.21 421.452 102.175 422.038 101.315C422.634 100.446 423.376 99.7773 424.265 99.3086C425.153 98.8301 426.188 98.5908 427.37 98.5908C428.396 98.5908 429.328 98.7861 430.168 99.1768C431.008 99.5576 431.726 100.153 432.321 100.964C432.917 101.765 433.376 102.785 433.698 104.025C434.021 105.266 434.182 106.735 434.182 108.435ZM431.604 108.522C431.604 108.19 431.589 107.863 431.56 107.541C431.54 107.209 431.516 106.887 431.486 106.574L423.386 112.595C423.532 113.103 423.718 113.571 423.942 114.001C424.167 114.431 424.436 114.802 424.748 115.114C425.07 115.417 425.432 115.656 425.832 115.832C426.242 115.998 426.706 116.081 427.224 116.081C427.888 116.081 428.488 115.92 429.025 115.598C429.572 115.275 430.036 114.797 430.417 114.162C430.798 113.527 431.091 112.741 431.296 111.804C431.501 110.856 431.604 109.763 431.604 108.522ZM422.844 108.347C422.844 108.649 422.844 108.952 422.844 109.255C422.854 109.558 422.873 109.851 422.902 110.134L431.003 104.143C430.856 103.645 430.671 103.19 430.446 102.78C430.222 102.37 429.953 102.019 429.641 101.726C429.328 101.423 428.972 101.188 428.571 101.022C428.171 100.856 427.722 100.773 427.224 100.773C426.56 100.773 425.954 100.935 425.407 101.257C424.87 101.579 424.411 102.062 424.03 102.707C423.649 103.342 423.356 104.133 423.151 105.08C422.946 106.018 422.844 107.106 422.844 108.347Z" fill="black"/>
<path d="M378.942 124.006H376.54V94.0059H378.942V124.006Z" fill="#CCCCCC"/>
<rect x="484" y="85" width="100" height="47" rx="9" fill="#EDEDED" stroke="black" stroke-width="2"/>
<path d="M506.399 112.185C506.399 113.024 506.229 113.815 505.887 114.558C505.545 115.29 505.032 115.935 504.349 116.491C503.665 117.038 502.806 117.473 501.771 117.795C500.735 118.107 499.529 118.264 498.152 118.264C497.391 118.264 496.707 118.239 496.102 118.19C495.496 118.142 494.93 118.078 494.402 118V115.715C495.008 115.822 495.647 115.905 496.321 115.964C496.995 116.022 497.684 116.052 498.387 116.052C499.344 116.052 500.159 115.969 500.833 115.803C501.517 115.627 502.073 115.378 502.503 115.056C502.933 114.733 503.245 114.343 503.44 113.884C503.636 113.425 503.733 112.907 503.733 112.331C503.733 111.804 503.616 111.345 503.382 110.954C503.147 110.563 502.815 110.236 502.386 109.973C501.966 109.709 501.458 109.514 500.862 109.387C500.276 109.25 499.632 109.182 498.929 109.182H496.746V107.087H498.958C499.534 107.087 500.057 107.014 500.525 106.867C501.004 106.711 501.409 106.491 501.741 106.208C502.083 105.925 502.342 105.578 502.518 105.168C502.703 104.748 502.796 104.274 502.796 103.747C502.796 102.722 502.483 101.975 501.858 101.506C501.233 101.037 500.315 100.803 499.104 100.803C498.46 100.803 497.796 100.866 497.112 100.993C496.429 101.12 495.696 101.311 494.915 101.564V99.3379C495.247 99.2207 495.599 99.1182 495.97 99.0303C496.351 98.9326 496.727 98.8545 497.098 98.7959C497.479 98.7275 497.854 98.6787 498.226 98.6494C498.597 98.6104 498.953 98.5908 499.295 98.5908C500.311 98.5908 501.204 98.7031 501.976 98.9277C502.747 99.1426 503.392 99.4551 503.909 99.8652C504.427 100.275 504.817 100.773 505.081 101.359C505.345 101.945 505.477 102.604 505.477 103.337C505.477 104.431 505.193 105.349 504.627 106.091C504.07 106.833 503.304 107.424 502.327 107.863C502.825 107.941 503.313 108.098 503.792 108.332C504.28 108.566 504.715 108.869 505.096 109.24C505.486 109.602 505.799 110.031 506.033 110.529C506.277 111.027 506.399 111.579 506.399 112.185ZM539.754 118H527.142V115.715L532.093 110.793C532.903 109.992 533.562 109.299 534.07 108.713C534.578 108.127 534.974 107.595 535.257 107.116C535.54 106.628 535.73 106.169 535.828 105.739C535.926 105.31 535.975 104.846 535.975 104.348C535.975 103.879 535.911 103.435 535.784 103.015C535.657 102.585 535.462 102.209 535.198 101.887C534.935 101.564 534.593 101.311 534.173 101.125C533.753 100.939 533.25 100.847 532.664 100.847C531.854 100.847 531.116 101.027 530.452 101.389C529.788 101.75 529.178 102.219 528.621 102.795L527.215 101.11C527.938 100.349 528.768 99.7383 529.705 99.2793C530.652 98.8203 531.751 98.5908 533.001 98.5908C533.851 98.5908 534.622 98.7178 535.315 98.9717C536.019 99.2256 536.624 99.5918 537.132 100.07C537.64 100.549 538.03 101.135 538.304 101.828C538.587 102.521 538.729 103.303 538.729 104.172C538.729 104.904 538.631 105.583 538.436 106.208C538.24 106.833 537.942 107.458 537.542 108.083C537.151 108.698 536.653 109.338 536.048 110.002C535.452 110.666 534.744 111.394 533.924 112.185L530.452 115.568H539.754V118ZM556.688 108.435C556.688 109.899 556.541 111.237 556.248 112.448C555.955 113.649 555.511 114.685 554.915 115.554C554.319 116.413 553.577 117.082 552.688 117.561C551.81 118.029 550.774 118.264 549.583 118.264C548.558 118.264 547.625 118.073 546.785 117.692C545.945 117.302 545.228 116.706 544.632 115.905C544.036 115.104 543.577 114.084 543.255 112.844C542.933 111.604 542.771 110.134 542.771 108.435C542.771 106.97 542.918 105.632 543.211 104.421C543.514 103.21 543.958 102.175 544.544 101.315C545.14 100.446 545.882 99.7773 546.771 99.3086C547.659 98.8301 548.694 98.5908 549.876 98.5908C550.901 98.5908 551.834 98.7861 552.674 99.1768C553.514 99.5576 554.231 100.153 554.827 100.964C555.423 101.765 555.882 102.785 556.204 104.025C556.526 105.266 556.688 106.735 556.688 108.435ZM554.109 108.522C554.109 108.19 554.095 107.863 554.065 107.541C554.046 107.209 554.021 106.887 553.992 106.574L545.892 112.595C546.038 113.103 546.224 113.571 546.448 114.001C546.673 114.431 546.941 114.802 547.254 115.114C547.576 115.417 547.938 115.656 548.338 115.832C548.748 115.998 549.212 116.081 549.729 116.081C550.394 116.081 550.994 115.92 551.531 115.598C552.078 115.275 552.542 114.797 552.923 114.162C553.304 113.527 553.597 112.741 553.802 111.804C554.007 110.856 554.109 109.763 554.109 108.522ZM545.35 108.347C545.35 108.649 545.35 108.952 545.35 109.255C545.359 109.558 545.379 109.851 545.408 110.134L553.509 104.143C553.362 103.645 553.177 103.19 552.952 102.78C552.728 102.37 552.459 102.019 552.146 101.726C551.834 101.423 551.478 101.188 551.077 101.022C550.677 100.856 550.228 100.773 549.729 100.773C549.065 100.773 548.46 100.935 547.913 101.257C547.376 101.579 546.917 102.062 546.536 102.707C546.155 103.342 545.862 104.133 545.657 105.08C545.452 106.018 545.35 107.106 545.35 108.347ZM573.182 108.435C573.182 109.899 573.035 111.237 572.742 112.448C572.449 113.649 572.005 114.685 571.409 115.554C570.813 116.413 570.071 117.082 569.183 117.561C568.304 118.029 567.269 118.264 566.077 118.264C565.052 118.264 564.119 118.073 563.279 117.692C562.439 117.302 561.722 116.706 561.126 115.905C560.53 115.104 560.071 114.084 559.749 112.844C559.427 111.604 559.266 110.134 559.266 108.435C559.266 106.97 559.412 105.632 559.705 104.421C560.008 103.21 560.452 102.175 561.038 101.315C561.634 100.446 562.376 99.7773 563.265 99.3086C564.153 98.8301 565.188 98.5908 566.37 98.5908C567.396 98.5908 568.328 98.7861 569.168 99.1768C570.008 99.5576 570.726 100.153 571.321 100.964C571.917 101.765 572.376 102.785 572.698 104.025C573.021 105.266 573.182 106.735 573.182 108.435ZM570.604 108.522C570.604 108.19 570.589 107.863 570.56 107.541C570.54 107.209 570.516 106.887 570.486 106.574L562.386 112.595C562.532 113.103 562.718 113.571 562.942 114.001C563.167 114.431 563.436 114.802 563.748 115.114C564.07 115.417 564.432 115.656 564.832 115.832C565.242 115.998 565.706 116.081 566.224 116.081C566.888 116.081 567.488 115.92 568.025 115.598C568.572 115.275 569.036 114.797 569.417 114.162C569.798 113.527 570.091 112.741 570.296 111.804C570.501 110.856 570.604 109.763 570.604 108.522ZM561.844 108.347C561.844 108.649 561.844 108.952 561.844 109.255C561.854 109.558 561.873 109.851 561.902 110.134L570.003 104.143C569.856 103.645 569.671 103.19 569.446 102.78C569.222 102.37 568.953 102.019 568.641 101.726C568.328 101.423 567.972 101.188 567.571 101.022C567.171 100.856 566.722 100.773 566.224 100.773C565.56 100.773 564.954 100.935 564.407 101.257C563.87 101.579 563.411 102.062 563.03 102.707C562.649 103.342 562.356 104.133 562.151 105.08C561.946 106.018 561.844 107.106 561.844 108.347Z" fill="black"/>
<path d="M517.942 124.006H515.54V94.0059H517.942V124.006Z" fill="#CCCCCC"/>
<line x1="186.5" y1="63" x2="186.5" y2="154" stroke="#666666" stroke-width="3"/>
<line x1="634.5" y1="63" x2="634.5" y2="154" stroke="#666666" stroke-width="3"/>
<line x1="187" y1="64.5" x2="196" y2="64.5" stroke="#666666" stroke-width="3"/>
<line x1="187" y1="152.5" x2="196" y2="152.5" stroke="#666666" stroke-width="3"/>
<line x1="624" y1="64.5" x2="634" y2="64.5" stroke="#666666" stroke-width="3"/>
<line x1="624" y1="152.5" x2="634" y2="152.5" stroke="#666666" stroke-width="3"/>
<path d="M585.707 167.707C586.098 167.317 586.098 166.683 585.707 166.293L579.343 159.929C578.953 159.538 578.319 159.538 577.929 159.929C577.538 160.319 577.538 160.953 577.929 161.343L583.586 167L577.929 172.657C577.538 173.047 577.538 173.681 577.929 174.071C578.319 174.462 578.953 174.462 579.343 174.071L585.707 167.707ZM205 168L585 168V166L205 166V168Z" fill="#666666"/>
<path d="M12.9346 105.373C13.208 105.715 13.418 106.115 13.5645 106.574C13.7207 107.023 13.7988 107.512 13.7988 108.039C13.7988 108.801 13.6572 109.499 13.374 110.134C13.1006 110.759 12.71 111.296 12.2021 111.745C11.6943 112.194 11.084 112.546 10.3711 112.8C9.66797 113.044 8.8916 113.166 8.04199 113.166C7.42676 113.166 6.85059 113.103 6.31348 112.976C5.77637 112.839 5.35156 112.673 5.03906 112.478C4.85352 112.751 4.69727 113.01 4.57031 113.254C4.44336 113.498 4.37988 113.771 4.37988 114.074C4.37988 114.445 4.55566 114.753 4.90723 114.997C5.26855 115.241 5.74219 115.373 6.32812 115.393L10.1953 115.539C10.9277 115.559 11.6016 115.651 12.2168 115.817C12.8418 115.983 13.374 116.223 13.8135 116.535C14.2627 116.848 14.6094 117.233 14.8535 117.692C15.1074 118.151 15.2344 118.684 15.2344 119.289C15.2344 119.943 15.0928 120.563 14.8096 121.149C14.5264 121.735 14.0869 122.248 13.4912 122.688C12.9053 123.137 12.1582 123.493 11.25 123.757C10.3418 124.021 9.2627 124.152 8.0127 124.152C6.82129 124.152 5.80566 124.055 4.96582 123.859C4.13574 123.674 3.45215 123.41 2.91504 123.068C2.37793 122.736 1.9873 122.336 1.74316 121.867C1.49902 121.408 1.37695 120.9 1.37695 120.344C1.37695 119.631 1.54297 119.006 1.875 118.469C2.20703 117.932 2.71973 117.414 3.41309 116.916C3.15918 116.799 2.93945 116.652 2.75391 116.477C2.56836 116.301 2.41699 116.11 2.2998 115.905C2.18262 115.69 2.09473 115.466 2.03613 115.231C1.97754 114.997 1.94824 114.768 1.94824 114.543C1.94824 113.908 2.09473 113.327 2.3877 112.8C2.69043 112.272 3.04688 111.774 3.45703 111.306C3.27148 111.081 3.10547 110.861 2.95898 110.646C2.82227 110.432 2.7002 110.202 2.59277 109.958C2.49512 109.704 2.41699 109.436 2.3584 109.152C2.30957 108.859 2.28516 108.527 2.28516 108.156C2.28516 107.395 2.42188 106.701 2.69531 106.076C2.97852 105.441 3.36914 104.899 3.86719 104.45C4.375 104.001 4.98047 103.654 5.68359 103.41C6.39648 103.156 7.18262 103.029 8.04199 103.029C8.40332 103.029 8.75 103.054 9.08203 103.103C9.41406 103.151 9.70703 103.215 9.96094 103.293H15.293V105.373H12.9346ZM4.08691 120.124C4.08691 120.817 4.44824 121.32 5.1709 121.633C5.89355 121.955 6.89941 122.116 8.18848 122.116C8.99902 122.116 9.67773 122.043 10.2246 121.896C10.7812 121.75 11.2256 121.555 11.5576 121.311C11.8994 121.076 12.1436 120.803 12.29 120.49C12.4365 120.188 12.5098 119.875 12.5098 119.553C12.5098 118.957 12.2656 118.518 11.7773 118.234C11.2891 117.951 10.542 117.785 9.53613 117.736L5.69824 117.604C5.37598 117.819 5.10742 118.029 4.89258 118.234C4.6875 118.439 4.52637 118.645 4.40918 118.85C4.29199 119.064 4.20898 119.274 4.16016 119.479C4.11133 119.694 4.08691 119.909 4.08691 120.124ZM4.86328 108.098C4.86328 108.566 4.94141 108.996 5.09766 109.387C5.25391 109.777 5.47363 110.109 5.75684 110.383C6.04004 110.656 6.37207 110.871 6.75293 111.027C7.14355 111.174 7.57324 111.247 8.04199 111.247C8.5498 111.247 8.99902 111.164 9.38965 110.998C9.79004 110.822 10.1221 110.588 10.3857 110.295C10.6592 110.002 10.8643 109.665 11.001 109.284C11.1475 108.903 11.2207 108.508 11.2207 108.098C11.2207 107.629 11.1426 107.199 10.9863 106.809C10.8301 106.418 10.6104 106.086 10.3271 105.812C10.0439 105.539 9.70703 105.329 9.31641 105.183C8.93555 105.026 8.51074 104.948 8.04199 104.948C7.53418 104.948 7.08008 105.036 6.67969 105.212C6.28906 105.388 5.95703 105.622 5.68359 105.915C5.41992 106.198 5.21484 106.53 5.06836 106.911C4.93164 107.292 4.86328 107.688 4.86328 108.098ZM31.2598 109.87C31.2598 110.231 31.2549 110.534 31.2451 110.778C31.2354 111.022 31.2207 111.252 31.2012 111.467H20.874C20.874 112.971 21.2939 114.128 22.1338 114.938C22.9736 115.739 24.1846 116.14 25.7666 116.14C26.1963 116.14 26.626 116.125 27.0557 116.096C27.4854 116.057 27.9004 116.008 28.3008 115.949C28.7012 115.891 29.082 115.827 29.4434 115.759C29.8145 115.681 30.1562 115.598 30.4688 115.51V117.604C29.7754 117.8 28.9893 117.956 28.1104 118.073C27.2412 118.2 26.3379 118.264 25.4004 118.264C24.1406 118.264 23.0566 118.093 22.1484 117.751C21.2402 117.409 20.4932 116.916 19.9072 116.271C19.3311 115.617 18.9014 114.821 18.6182 113.884C18.3447 112.937 18.208 111.867 18.208 110.676C18.208 109.641 18.3545 108.664 18.6475 107.746C18.9502 106.818 19.3848 106.008 19.9512 105.314C20.5273 104.611 21.2305 104.055 22.0605 103.645C22.8906 103.234 23.833 103.029 24.8877 103.029C25.9131 103.029 26.8213 103.19 27.6123 103.513C28.4033 103.835 29.0674 104.294 29.6045 104.89C30.1514 105.476 30.5615 106.193 30.835 107.043C31.1182 107.883 31.2598 108.825 31.2598 109.87ZM28.6084 109.504C28.6377 108.85 28.5742 108.254 28.418 107.717C28.2617 107.17 28.0176 106.701 27.6855 106.311C27.3633 105.92 26.958 105.617 26.4697 105.402C25.9814 105.178 25.415 105.065 24.7705 105.065C24.2139 105.065 23.7061 105.173 23.2471 105.388C22.7881 105.603 22.3926 105.905 22.0605 106.296C21.7285 106.687 21.46 107.155 21.2549 107.702C21.0498 108.249 20.9229 108.85 20.874 109.504H28.6084ZM47.1826 117.795C46.6064 117.941 46.0107 118.044 45.3955 118.103C44.7803 118.171 44.1553 118.205 43.5205 118.205C41.6748 118.205 40.2979 117.79 39.3896 116.96C38.4814 116.12 38.0273 114.836 38.0273 113.107V105.432H33.9111V103.293H38.0273V99.25L40.5762 98.5908V103.293H47.1826V105.432H40.5762V112.902C40.5762 113.957 40.8545 114.748 41.4111 115.275C41.9775 115.793 42.8076 116.052 43.9014 116.052C44.3701 116.052 44.8828 116.018 45.4395 115.949C45.9961 115.871 46.5771 115.754 47.1826 115.598V117.795ZM60.6299 124.152C56.1279 119.982 53.877 115.373 53.877 110.324C53.877 109.143 53.9941 107.966 54.2285 106.794C54.4727 105.612 54.8584 104.431 55.3857 103.249C55.9229 102.067 56.626 100.886 57.4951 99.7041C58.374 98.5225 59.4385 97.3506 60.6885 96.1885L62.168 97.6973C58.3789 101.438 56.4844 105.583 56.4844 110.134C56.4844 112.399 56.9629 114.577 57.9199 116.667C58.877 118.757 60.293 120.729 62.168 122.585L60.6299 124.152ZM80.7422 118H68.1299V115.715L73.0811 110.793C73.8916 109.992 74.5508 109.299 75.0586 108.713C75.5664 108.127 75.9619 107.595 76.2451 107.116C76.5283 106.628 76.7188 106.169 76.8164 105.739C76.9141 105.31 76.9629 104.846 76.9629 104.348C76.9629 103.879 76.8994 103.435 76.7725 103.015C76.6455 102.585 76.4502 102.209 76.1865 101.887C75.9229 101.564 75.5811 101.311 75.1611 101.125C74.7412 100.939 74.2383 100.847 73.6523 100.847C72.8418 100.847 72.1045 101.027 71.4404 101.389C70.7764 101.75 70.166 102.219 69.6094 102.795L68.2031 101.11C68.9258 100.349 69.7559 99.7383 70.6934 99.2793C71.6406 98.8203 72.7393 98.5908 73.9893 98.5908C74.8389 98.5908 75.6104 98.7178 76.3037 98.9717C77.0068 99.2256 77.6123 99.5918 78.1201 100.07C78.6279 100.549 79.0186 101.135 79.292 101.828C79.5752 102.521 79.7168 103.303 79.7168 104.172C79.7168 104.904 79.6191 105.583 79.4238 106.208C79.2285 106.833 78.9307 107.458 78.5303 108.083C78.1396 108.698 77.6416 109.338 77.0361 110.002C76.4404 110.666 75.7324 111.394 74.9121 112.185L71.4404 115.568H80.7422V118ZM87.8174 96.1885C92.3193 100.358 94.5703 104.997 94.5703 110.104C94.5703 111.159 94.4629 112.253 94.248 113.386C94.0332 114.519 93.667 115.681 93.1494 116.872C92.6318 118.054 91.9336 119.255 91.0547 120.476C90.1855 121.696 89.0869 122.922 87.7588 124.152L86.2793 122.644C88.1836 120.759 89.6045 118.791 90.542 116.74C91.4795 114.689 91.9482 112.541 91.9482 110.295C91.9482 105.646 90.0586 101.467 86.2793 97.7559L87.8174 96.1885Z" fill="black"/>
<path d="M170.707 109.707C171.098 109.317 171.098 108.683 170.707 108.293L164.343 101.929C163.953 101.538 163.319 101.538 162.929 101.929C162.538 102.319 162.538 102.953 162.929 103.343L168.586 109L162.929 114.657C162.538 115.047 162.538 115.681 162.929 116.071C163.319 116.462 163.953 116.462 164.343 116.071L170.707 109.707ZM108 110H170V108H108V110Z" fill="black"/>
<line x1="255" y1="29" x2="611" y2="29" stroke="#666666" stroke-width="2"/>
<path d="M609.293 104.707C609.683 105.098 610.317 105.098 610.707 104.707L617.071 98.3431C617.462 97.9526 617.462 97.3195 617.071 96.9289C616.681 96.5384 616.047 96.5384 615.657 96.9289L610 102.586L604.343 96.9289C603.953 96.5384 603.319 96.5384 602.929 96.9289C602.538 97.3195 602.538 97.9526 602.929 98.3431L609.293 104.707ZM609 29L609 104L611 104L611 29L609 29Z" fill="#666666"/>
<path d="M254 74L249.226 84L260.774 84L256 74L254 74ZM254 28L254 75L256 75L256 28L254 28Z" fill="#666666"/>
<path d="M227.121 19V9.84668C227.121 9.44889 227.104 9.12305 227.07 8.86914C227.045 8.61523 226.998 8.41634 226.931 8.27246C226.871 8.12012 226.791 8.01432 226.689 7.95508C226.596 7.89583 226.478 7.86621 226.334 7.86621C226.165 7.86621 226.008 7.91699 225.864 8.01855C225.72 8.12012 225.564 8.28516 225.395 8.51367C225.234 8.74219 225.052 9.04688 224.849 9.42773C224.654 9.80013 224.421 10.2614 224.15 10.8115V19H222.132V10.0879C222.132 9.6224 222.115 9.24577 222.081 8.95801C222.056 8.67025 222.009 8.44596 221.941 8.28516C221.882 8.12435 221.802 8.01432 221.7 7.95508C221.599 7.89583 221.476 7.86621 221.332 7.86621C221.18 7.86621 221.036 7.90853 220.9 7.99316C220.765 8.0778 220.613 8.23014 220.443 8.4502C220.283 8.67025 220.101 8.9707 219.897 9.35156C219.694 9.73242 219.453 10.2191 219.174 10.8115V19H217.143V6.25391H218.831L218.933 8.67871C219.153 8.19629 219.364 7.78581 219.567 7.44727C219.779 7.10872 219.995 6.83789 220.215 6.63477C220.435 6.42318 220.668 6.27083 220.913 6.17773C221.167 6.07617 221.446 6.02539 221.751 6.02539C222.437 6.02539 222.957 6.24967 223.312 6.69824C223.668 7.14681 223.846 7.84082 223.846 8.78027C224.049 8.34017 224.248 7.95085 224.442 7.6123C224.637 7.2653 224.844 6.97754 225.064 6.74902C225.293 6.51204 225.543 6.33431 225.813 6.21582C226.084 6.08887 226.397 6.02539 226.753 6.02539C228.353 6.02539 229.152 7.25684 229.152 9.71973V19H227.121ZM243.422 12.5254C243.422 13.5156 243.282 14.4255 243.003 15.2549C242.724 16.0758 242.322 16.7826 241.797 17.375C241.272 17.959 240.633 18.416 239.88 18.7461C239.127 19.0677 238.272 19.2285 237.315 19.2285C236.401 19.2285 235.58 19.0889 234.853 18.8096C234.133 18.5218 233.52 18.1029 233.012 17.5527C232.512 17.0026 232.127 16.3213 231.856 15.5088C231.594 14.6963 231.463 13.7611 231.463 12.7031C231.463 11.7129 231.603 10.8115 231.882 9.99902C232.161 9.17806 232.563 8.47559 233.088 7.8916C233.613 7.29915 234.252 6.84212 235.005 6.52051C235.758 6.19043 236.613 6.02539 237.569 6.02539C238.483 6.02539 239.3 6.16927 240.02 6.45703C240.747 6.73633 241.361 7.15104 241.86 7.70117C242.368 8.24284 242.753 8.91992 243.016 9.73242C243.286 10.5449 243.422 11.4759 243.422 12.5254ZM241.162 12.627C241.162 11.8398 241.073 11.1543 240.896 10.5703C240.726 9.97786 240.481 9.48698 240.159 9.09766C239.838 8.69987 239.444 8.40365 238.979 8.20898C238.521 8.00586 238.009 7.9043 237.442 7.9043C236.782 7.9043 236.215 8.03548 235.741 8.29785C235.276 8.55176 234.891 8.89453 234.586 9.32617C234.29 9.75781 234.07 10.2614 233.926 10.8369C233.79 11.404 233.723 12.0007 233.723 12.627C233.723 13.4141 233.807 14.1038 233.977 14.6963C234.154 15.2887 234.404 15.7839 234.726 16.1816C235.047 16.571 235.437 16.8672 235.894 17.0703C236.351 17.265 236.867 17.3623 237.442 17.3623C238.103 17.3623 238.665 17.2354 239.131 16.9814C239.605 16.7191 239.99 16.3721 240.286 15.9404C240.591 15.5088 240.811 15.0094 240.946 14.4424C241.09 13.8669 241.162 13.2617 241.162 12.627ZM245.428 6.25391H247.941L251.064 14.6836L251.737 16.7402L252.436 14.6328L255.533 6.25391H257.958L252.956 19H250.417L245.428 6.25391ZM271.682 11.9541C271.682 12.2673 271.677 12.5296 271.669 12.7412C271.66 12.9528 271.648 13.1517 271.631 13.3379H262.681C262.681 14.6413 263.045 15.6442 263.772 16.3467C264.5 17.0407 265.55 17.3877 266.921 17.3877C267.293 17.3877 267.666 17.375 268.038 17.3496C268.41 17.3158 268.77 17.2734 269.117 17.2227C269.464 17.1719 269.794 17.1169 270.107 17.0576C270.429 16.9899 270.725 16.918 270.996 16.8418V18.6572C270.395 18.8265 269.714 18.9619 268.952 19.0635C268.199 19.1735 267.416 19.2285 266.604 19.2285C265.512 19.2285 264.572 19.0804 263.785 18.7842C262.998 18.488 262.351 18.0605 261.843 17.502C261.343 16.9349 260.971 16.2451 260.726 15.4326C260.489 14.6117 260.37 13.6849 260.37 12.6523C260.37 11.7552 260.497 10.9089 260.751 10.1133C261.013 9.30924 261.39 8.60677 261.881 8.00586C262.38 7.39648 262.99 6.91406 263.709 6.55859C264.428 6.20312 265.245 6.02539 266.159 6.02539C267.048 6.02539 267.835 6.16504 268.521 6.44434C269.206 6.72363 269.782 7.12142 270.247 7.6377C270.721 8.14551 271.076 8.76758 271.313 9.50391C271.559 10.2318 271.682 11.0485 271.682 11.9541ZM269.384 11.6367C269.409 11.0697 269.354 10.5534 269.219 10.0879C269.083 9.61393 268.872 9.20768 268.584 8.86914C268.305 8.5306 267.953 8.26823 267.53 8.08203C267.107 7.88737 266.616 7.79004 266.058 7.79004C265.575 7.79004 265.135 7.88314 264.737 8.06934C264.34 8.25553 263.997 8.5179 263.709 8.85645C263.421 9.19499 263.188 9.60124 263.011 10.0752C262.833 10.5492 262.723 11.0697 262.681 11.6367H269.384ZM299.776 18.8223C299.277 18.9492 298.761 19.0381 298.228 19.0889C297.694 19.1481 297.153 19.1777 296.603 19.1777C295.003 19.1777 293.81 18.818 293.022 18.0986C292.235 17.3708 291.842 16.2578 291.842 14.7598V8.10742H288.274V6.25391H291.842V2.75L294.051 2.17871V6.25391H299.776V8.10742H294.051V14.582C294.051 15.4961 294.292 16.1816 294.774 16.6387C295.265 17.0872 295.985 17.3115 296.933 17.3115C297.339 17.3115 297.783 17.2819 298.266 17.2227C298.748 17.1549 299.252 17.0534 299.776 16.918V18.8223ZM314.896 12.5254C314.896 13.5156 314.757 14.4255 314.478 15.2549C314.198 16.0758 313.796 16.7826 313.271 17.375C312.747 17.959 312.108 18.416 311.354 18.7461C310.601 19.0677 309.746 19.2285 308.79 19.2285C307.876 19.2285 307.055 19.0889 306.327 18.8096C305.608 18.5218 304.994 18.1029 304.486 17.5527C303.987 17.0026 303.602 16.3213 303.331 15.5088C303.069 14.6963 302.938 13.7611 302.938 12.7031C302.938 11.7129 303.077 10.8115 303.356 9.99902C303.636 9.17806 304.038 8.47559 304.562 7.8916C305.087 7.29915 305.726 6.84212 306.479 6.52051C307.233 6.19043 308.088 6.02539 309.044 6.02539C309.958 6.02539 310.775 6.16927 311.494 6.45703C312.222 6.73633 312.836 7.15104 313.335 7.70117C313.843 8.24284 314.228 8.91992 314.49 9.73242C314.761 10.5449 314.896 11.4759 314.896 12.5254ZM312.637 12.627C312.637 11.8398 312.548 11.1543 312.37 10.5703C312.201 9.97786 311.955 9.48698 311.634 9.09766C311.312 8.69987 310.919 8.40365 310.453 8.20898C309.996 8.00586 309.484 7.9043 308.917 7.9043C308.257 7.9043 307.69 8.03548 307.216 8.29785C306.75 8.55176 306.365 8.89453 306.061 9.32617C305.764 9.75781 305.544 10.2614 305.4 10.8369C305.265 11.404 305.197 12.0007 305.197 12.627C305.197 13.4141 305.282 14.1038 305.451 14.6963C305.629 15.2887 305.879 15.7839 306.2 16.1816C306.522 16.571 306.911 16.8672 307.368 17.0703C307.825 17.265 308.341 17.3623 308.917 17.3623C309.577 17.3623 310.14 17.2354 310.605 16.9814C311.079 16.7191 311.465 16.3721 311.761 15.9404C312.065 15.5088 312.285 15.0094 312.421 14.4424C312.565 13.8669 312.637 13.2617 312.637 12.627ZM341.48 19V9.84668C341.48 9.44889 341.464 9.12305 341.43 8.86914C341.404 8.61523 341.358 8.41634 341.29 8.27246C341.231 8.12012 341.15 8.01432 341.049 7.95508C340.956 7.89583 340.837 7.86621 340.693 7.86621C340.524 7.86621 340.368 7.91699 340.224 8.01855C340.08 8.12012 339.923 8.28516 339.754 8.51367C339.593 8.74219 339.411 9.04688 339.208 9.42773C339.013 9.80013 338.781 10.2614 338.51 10.8115V19H336.491V10.0879C336.491 9.6224 336.474 9.24577 336.44 8.95801C336.415 8.67025 336.368 8.44596 336.301 8.28516C336.242 8.12435 336.161 8.01432 336.06 7.95508C335.958 7.89583 335.835 7.86621 335.691 7.86621C335.539 7.86621 335.395 7.90853 335.26 7.99316C335.124 8.0778 334.972 8.23014 334.803 8.4502C334.642 8.67025 334.46 8.9707 334.257 9.35156C334.054 9.73242 333.812 10.2191 333.533 10.8115V19H331.502V6.25391H333.19L333.292 8.67871C333.512 8.19629 333.724 7.78581 333.927 7.44727C334.138 7.10872 334.354 6.83789 334.574 6.63477C334.794 6.42318 335.027 6.27083 335.272 6.17773C335.526 6.07617 335.806 6.02539 336.11 6.02539C336.796 6.02539 337.316 6.24967 337.672 6.69824C338.027 7.14681 338.205 7.84082 338.205 8.78027C338.408 8.34017 338.607 7.95085 338.802 7.6123C338.996 7.2653 339.204 6.97754 339.424 6.74902C339.652 6.51204 339.902 6.33431 340.173 6.21582C340.444 6.08887 340.757 6.02539 341.112 6.02539C342.712 6.02539 343.512 7.25684 343.512 9.71973V19H341.48ZM357.781 12.5254C357.781 13.5156 357.642 14.4255 357.362 15.2549C357.083 16.0758 356.681 16.7826 356.156 17.375C355.632 17.959 354.993 18.416 354.239 18.7461C353.486 19.0677 352.631 19.2285 351.675 19.2285C350.761 19.2285 349.94 19.0889 349.212 18.8096C348.493 18.5218 347.879 18.1029 347.371 17.5527C346.872 17.0026 346.487 16.3213 346.216 15.5088C345.953 14.6963 345.822 13.7611 345.822 12.7031C345.822 11.7129 345.962 10.8115 346.241 9.99902C346.521 9.17806 346.923 8.47559 347.447 7.8916C347.972 7.29915 348.611 6.84212 349.364 6.52051C350.118 6.19043 350.972 6.02539 351.929 6.02539C352.843 6.02539 353.66 6.16927 354.379 6.45703C355.107 6.73633 355.72 7.15104 356.22 7.70117C356.728 8.24284 357.113 8.91992 357.375 9.73242C357.646 10.5449 357.781 11.4759 357.781 12.5254ZM355.521 12.627C355.521 11.8398 355.433 11.1543 355.255 10.5703C355.086 9.97786 354.84 9.48698 354.519 9.09766C354.197 8.69987 353.803 8.40365 353.338 8.20898C352.881 8.00586 352.369 7.9043 351.802 7.9043C351.142 7.9043 350.575 8.03548 350.101 8.29785C349.635 8.55176 349.25 8.89453 348.945 9.32617C348.649 9.75781 348.429 10.2614 348.285 10.8369C348.15 11.404 348.082 12.0007 348.082 12.627C348.082 13.4141 348.167 14.1038 348.336 14.6963C348.514 15.2887 348.763 15.7839 349.085 16.1816C349.407 16.571 349.796 16.8672 350.253 17.0703C350.71 17.265 351.226 17.3623 351.802 17.3623C352.462 17.3623 353.025 17.2354 353.49 16.9814C353.964 16.7191 354.349 16.3721 354.646 15.9404C354.95 15.5088 355.17 15.0094 355.306 14.4424C355.45 13.8669 355.521 13.2617 355.521 12.627ZM371.073 15.5215C371.073 15.9701 370.997 16.3721 370.845 16.7275C370.692 17.083 370.485 17.4004 370.223 17.6797C369.96 17.9505 369.656 18.1833 369.309 18.3779C368.962 18.5726 368.589 18.7334 368.191 18.8604C367.802 18.9873 367.4 19.0804 366.985 19.1396C366.571 19.1989 366.164 19.2285 365.767 19.2285C364.903 19.2285 364.108 19.1904 363.38 19.1143C362.66 19.0381 361.954 18.9154 361.26 18.7461V16.7148C362.005 16.9264 362.745 17.0872 363.481 17.1973C364.218 17.3073 364.95 17.3623 365.678 17.3623C366.736 17.3623 367.519 17.2184 368.026 16.9307C368.534 16.6429 368.788 16.2324 368.788 15.6992C368.788 15.4707 368.746 15.2676 368.661 15.0898C368.585 14.9036 368.441 14.7301 368.229 14.5693C368.018 14.4001 367.688 14.2266 367.239 14.0488C366.799 13.8711 366.194 13.668 365.424 13.4395C364.848 13.2702 364.315 13.0798 363.824 12.8682C363.342 12.6481 362.923 12.39 362.567 12.0938C362.212 11.7975 361.933 11.4505 361.729 11.0527C361.526 10.6549 361.425 10.1852 361.425 9.64355C361.425 9.28809 361.505 8.89876 361.666 8.47559C361.835 8.05241 362.119 7.65885 362.517 7.29492C362.914 6.93099 363.452 6.63053 364.129 6.39355C364.806 6.14811 365.652 6.02539 366.668 6.02539C367.167 6.02539 367.722 6.05501 368.331 6.11426C368.94 6.16504 369.575 6.25814 370.235 6.39355V8.36133C369.541 8.19206 368.881 8.06934 368.255 7.99316C367.637 7.90853 367.1 7.86621 366.643 7.86621C366.092 7.86621 365.627 7.90853 365.246 7.99316C364.874 8.0778 364.569 8.19629 364.332 8.34863C364.104 8.49251 363.938 8.66602 363.837 8.86914C363.735 9.0638 363.685 9.27539 363.685 9.50391C363.685 9.73242 363.727 9.93978 363.812 10.126C363.905 10.3122 364.07 10.4941 364.307 10.6719C364.552 10.8411 364.891 11.0146 365.322 11.1924C365.754 11.3617 366.317 11.5479 367.011 11.751C367.764 11.971 368.399 12.2038 368.915 12.4492C369.431 12.6862 369.85 12.9528 370.172 13.249C370.493 13.5452 370.722 13.8796 370.857 14.252C371.001 14.6243 371.073 15.0475 371.073 15.5215ZM385.546 18.8223C385.047 18.9492 384.53 19.0381 383.997 19.0889C383.464 19.1481 382.922 19.1777 382.372 19.1777C380.772 19.1777 379.579 18.818 378.792 18.0986C378.005 17.3708 377.611 16.2578 377.611 14.7598V8.10742H374.044V6.25391H377.611V2.75L379.82 2.17871V6.25391H385.546V8.10742H379.82V14.582C379.82 15.4961 380.062 16.1816 380.544 16.6387C381.035 17.0872 381.754 17.3115 382.702 17.3115C383.108 17.3115 383.553 17.2819 384.035 17.2227C384.518 17.1549 385.021 17.0534 385.546 16.918V18.8223ZM404.386 6.25391H406.404L406.468 8.60254C407.221 7.69694 407.962 7.04102 408.689 6.63477C409.426 6.22852 410.166 6.02539 410.911 6.02539C412.231 6.02539 413.23 6.4528 413.907 7.30762C414.593 8.16243 414.91 9.43197 414.859 11.1162H412.625C412.65 9.99902 412.485 9.19076 412.13 8.69141C411.783 8.18359 411.271 7.92969 410.594 7.92969C410.298 7.92969 409.997 7.9847 409.692 8.09473C409.396 8.19629 409.087 8.36556 408.766 8.60254C408.452 8.83105 408.118 9.12728 407.763 9.49121C407.407 9.85514 407.026 10.2952 406.62 10.8115V19H404.386V6.25391ZM428.926 11.9541C428.926 12.2673 428.922 12.5296 428.913 12.7412C428.905 12.9528 428.892 13.1517 428.875 13.3379H419.925C419.925 14.6413 420.289 15.6442 421.017 16.3467C421.744 17.0407 422.794 17.3877 424.165 17.3877C424.537 17.3877 424.91 17.375 425.282 17.3496C425.655 17.3158 426.014 17.2734 426.361 17.2227C426.708 17.1719 427.038 17.1169 427.352 17.0576C427.673 16.9899 427.969 16.918 428.24 16.8418V18.6572C427.639 18.8265 426.958 18.9619 426.196 19.0635C425.443 19.1735 424.66 19.2285 423.848 19.2285C422.756 19.2285 421.816 19.0804 421.029 18.7842C420.242 18.488 419.595 18.0605 419.087 17.502C418.588 16.9349 418.215 16.2451 417.97 15.4326C417.733 14.6117 417.614 13.6849 417.614 12.6523C417.614 11.7552 417.741 10.9089 417.995 10.1133C418.257 9.30924 418.634 8.60677 419.125 8.00586C419.624 7.39648 420.234 6.91406 420.953 6.55859C421.673 6.20312 422.489 6.02539 423.403 6.02539C424.292 6.02539 425.079 6.16504 425.765 6.44434C426.45 6.72363 427.026 7.12142 427.491 7.6377C427.965 8.14551 428.321 8.76758 428.558 9.50391C428.803 10.2318 428.926 11.0485 428.926 11.9541ZM426.628 11.6367C426.653 11.0697 426.598 10.5534 426.463 10.0879C426.327 9.61393 426.116 9.20768 425.828 8.86914C425.549 8.5306 425.198 8.26823 424.774 8.08203C424.351 7.88737 423.86 7.79004 423.302 7.79004C422.819 7.79004 422.379 7.88314 421.981 8.06934C421.584 8.25553 421.241 8.5179 420.953 8.85645C420.665 9.19499 420.433 9.60124 420.255 10.0752C420.077 10.5492 419.967 11.0697 419.925 11.6367H426.628ZM442.357 18.5303C441.782 18.7503 441.189 18.9111 440.58 19.0127C439.979 19.1227 439.357 19.1777 438.714 19.1777C436.7 19.1777 435.146 18.6318 434.055 17.54C432.971 16.4482 432.43 14.8529 432.43 12.7539C432.43 11.7467 432.586 10.8327 432.899 10.0117C433.213 9.19076 433.653 8.48828 434.22 7.9043C434.787 7.32031 435.464 6.87174 436.251 6.55859C437.038 6.23698 437.906 6.07617 438.854 6.07617C439.514 6.07617 440.132 6.12272 440.707 6.21582C441.283 6.30892 441.833 6.46126 442.357 6.67285V8.78027C441.807 8.49251 441.244 8.28516 440.669 8.1582C440.102 8.02279 439.514 7.95508 438.904 7.95508C438.337 7.95508 437.8 8.0651 437.292 8.28516C436.793 8.49674 436.353 8.80566 435.972 9.21191C435.591 9.61816 435.29 10.1133 435.07 10.6973C434.85 11.2812 434.74 11.9414 434.74 12.6777C434.74 14.2181 435.113 15.3734 435.857 16.1436C436.611 16.9053 437.652 17.2861 438.98 17.2861C439.581 17.2861 440.161 17.2184 440.72 17.083C441.287 16.9476 441.833 16.7445 442.357 16.4736V18.5303ZM457.516 11.9541C457.516 12.2673 457.511 12.5296 457.503 12.7412C457.494 12.9528 457.482 13.1517 457.465 13.3379H448.515C448.515 14.6413 448.879 15.6442 449.606 16.3467C450.334 17.0407 451.384 17.3877 452.755 17.3877C453.127 17.3877 453.5 17.375 453.872 17.3496C454.244 17.3158 454.604 17.2734 454.951 17.2227C455.298 17.1719 455.628 17.1169 455.941 17.0576C456.263 16.9899 456.559 16.918 456.83 16.8418V18.6572C456.229 18.8265 455.548 18.9619 454.786 19.0635C454.033 19.1735 453.25 19.2285 452.438 19.2285C451.346 19.2285 450.406 19.0804 449.619 18.7842C448.832 18.488 448.185 18.0605 447.677 17.502C447.177 16.9349 446.805 16.2451 446.56 15.4326C446.323 14.6117 446.204 13.6849 446.204 12.6523C446.204 11.7552 446.331 10.9089 446.585 10.1133C446.847 9.30924 447.224 8.60677 447.715 8.00586C448.214 7.39648 448.824 6.91406 449.543 6.55859C450.262 6.20312 451.079 6.02539 451.993 6.02539C452.882 6.02539 453.669 6.16504 454.354 6.44434C455.04 6.72363 455.616 7.12142 456.081 7.6377C456.555 8.14551 456.91 8.76758 457.147 9.50391C457.393 10.2318 457.516 11.0485 457.516 11.9541ZM455.218 11.6367C455.243 11.0697 455.188 10.5534 455.053 10.0879C454.917 9.61393 454.706 9.20768 454.418 8.86914C454.139 8.5306 453.787 8.26823 453.364 8.08203C452.941 7.88737 452.45 7.79004 451.892 7.79004C451.409 7.79004 450.969 7.88314 450.571 8.06934C450.174 8.25553 449.831 8.5179 449.543 8.85645C449.255 9.19499 449.022 9.60124 448.845 10.0752C448.667 10.5492 448.557 11.0697 448.515 11.6367H455.218ZM461.045 6.25391H463.013L463.102 8.31055C463.474 7.87044 463.834 7.50651 464.181 7.21875C464.528 6.92253 464.866 6.68555 465.196 6.50781C465.535 6.33008 465.878 6.20736 466.225 6.13965C466.572 6.06348 466.931 6.02539 467.304 6.02539C468.616 6.02539 469.606 6.41471 470.274 7.19336C470.951 7.96354 471.29 9.12728 471.29 10.6846V19H469.081V10.8623C469.081 9.86361 468.895 9.12728 468.522 8.65332C468.15 8.1709 467.596 7.92969 466.859 7.92969C466.589 7.92969 466.322 7.97201 466.06 8.05664C465.806 8.13281 465.539 8.27246 465.26 8.47559C464.98 8.67025 464.676 8.93685 464.346 9.27539C464.024 9.61393 463.66 10.0371 463.254 10.5449V19H461.045V6.25391ZM485.61 18.8223C485.111 18.9492 484.595 19.0381 484.062 19.0889C483.528 19.1481 482.987 19.1777 482.437 19.1777C480.837 19.1777 479.644 18.818 478.856 18.0986C478.069 17.3708 477.676 16.2578 477.676 14.7598V8.10742H474.108V6.25391H477.676V2.75L479.885 2.17871V6.25391H485.61V8.10742H479.885V14.582C479.885 15.4961 480.126 16.1816 480.608 16.6387C481.099 17.0872 481.819 17.3115 482.767 17.3115C483.173 17.3115 483.617 17.2819 484.1 17.2227C484.582 17.1549 485.086 17.0534 485.61 16.918V18.8223ZM493.977 2.87695H490.206V1.06152H496.211V17.1592H500.007V19H489.787V17.1592H493.977V2.87695ZM515.267 6.25391L510.925 17.6543C510.476 18.8138 510.011 19.8125 509.528 20.6504C509.054 21.4883 508.534 22.1738 507.967 22.707C507.4 23.2487 506.778 23.6465 506.101 23.9004C505.424 24.1543 504.666 24.2812 503.828 24.2812C503.608 24.2812 503.409 24.277 503.231 24.2686C503.054 24.2601 502.859 24.2474 502.647 24.2305V22.2246C502.834 22.25 503.037 22.2712 503.257 22.2881C503.477 22.3135 503.71 22.3262 503.955 22.3262C504.361 22.3262 504.738 22.2669 505.085 22.1484C505.44 22.0299 505.775 21.8353 506.088 21.5645C506.401 21.3021 506.701 20.9593 506.989 20.5361C507.277 20.113 507.556 19.6009 507.827 19L502.736 6.25391H505.25L508.475 14.6836L509.122 16.6641L509.858 14.6328L512.842 6.25391H515.267ZM542.765 19H540.784L540.708 16.9434C540.327 17.3835 539.963 17.7516 539.616 18.0479C539.278 18.3356 538.939 18.5684 538.601 18.7461C538.262 18.9238 537.919 19.0465 537.572 19.1143C537.234 19.1904 536.874 19.2285 536.493 19.2285C535.181 19.2285 534.191 18.8434 533.522 18.0732C532.854 17.3031 532.52 16.1393 532.52 14.582V6.25391H534.729V14.4043C534.729 16.3594 535.465 17.3369 536.938 17.3369C537.208 17.3369 537.471 17.2988 537.725 17.2227C537.987 17.138 538.258 16.9984 538.537 16.8037C538.825 16.6006 539.13 16.3298 539.451 15.9912C539.781 15.6527 540.149 15.2253 540.556 14.709V6.25391H542.765V19ZM556.907 15.5215C556.907 15.9701 556.831 16.3721 556.679 16.7275C556.526 17.083 556.319 17.4004 556.057 17.6797C555.794 17.9505 555.49 18.1833 555.143 18.3779C554.796 18.5726 554.423 18.7334 554.025 18.8604C553.636 18.9873 553.234 19.0804 552.819 19.1396C552.405 19.1989 551.998 19.2285 551.601 19.2285C550.737 19.2285 549.942 19.1904 549.214 19.1143C548.494 19.0381 547.788 18.9154 547.094 18.7461V16.7148C547.839 16.9264 548.579 17.0872 549.315 17.1973C550.052 17.3073 550.784 17.3623 551.512 17.3623C552.57 17.3623 553.353 17.2184 553.86 16.9307C554.368 16.6429 554.622 16.2324 554.622 15.6992C554.622 15.4707 554.58 15.2676 554.495 15.0898C554.419 14.9036 554.275 14.7301 554.063 14.5693C553.852 14.4001 553.522 14.2266 553.073 14.0488C552.633 13.8711 552.028 13.668 551.258 13.4395C550.682 13.2702 550.149 13.0798 549.658 12.8682C549.176 12.6481 548.757 12.39 548.401 12.0938C548.046 11.7975 547.767 11.4505 547.563 11.0527C547.36 10.6549 547.259 10.1852 547.259 9.64355C547.259 9.28809 547.339 8.89876 547.5 8.47559C547.669 8.05241 547.953 7.65885 548.351 7.29492C548.748 6.93099 549.286 6.63053 549.963 6.39355C550.64 6.14811 551.486 6.02539 552.502 6.02539C553.001 6.02539 553.556 6.05501 554.165 6.11426C554.774 6.16504 555.409 6.25814 556.069 6.39355V8.36133C555.375 8.19206 554.715 8.06934 554.089 7.99316C553.471 7.90853 552.934 7.86621 552.477 7.86621C551.926 7.86621 551.461 7.90853 551.08 7.99316C550.708 8.0778 550.403 8.19629 550.166 8.34863C549.938 8.49251 549.772 8.66602 549.671 8.86914C549.569 9.0638 549.519 9.27539 549.519 9.50391C549.519 9.73242 549.561 9.93978 549.646 10.126C549.739 10.3122 549.904 10.4941 550.141 10.6719C550.386 10.8411 550.725 11.0146 551.156 11.1924C551.588 11.3617 552.151 11.5479 552.845 11.751C553.598 11.971 554.233 12.2038 554.749 12.4492C555.265 12.6862 555.684 12.9528 556.006 13.249C556.327 13.5452 556.556 13.8796 556.691 14.252C556.835 14.6243 556.907 15.0475 556.907 15.5215ZM571.875 11.9541C571.875 12.2673 571.871 12.5296 571.862 12.7412C571.854 12.9528 571.841 13.1517 571.824 13.3379H562.874C562.874 14.6413 563.238 15.6442 563.966 16.3467C564.694 17.0407 565.743 17.3877 567.114 17.3877C567.487 17.3877 567.859 17.375 568.231 17.3496C568.604 17.3158 568.964 17.2734 569.311 17.2227C569.658 17.1719 569.988 17.1169 570.301 17.0576C570.622 16.9899 570.919 16.918 571.189 16.8418V18.6572C570.589 18.8265 569.907 18.9619 569.146 19.0635C568.392 19.1735 567.609 19.2285 566.797 19.2285C565.705 19.2285 564.766 19.0804 563.979 18.7842C563.191 18.488 562.544 18.0605 562.036 17.502C561.537 16.9349 561.164 16.2451 560.919 15.4326C560.682 14.6117 560.563 13.6849 560.563 12.6523C560.563 11.7552 560.69 10.9089 560.944 10.1133C561.207 9.30924 561.583 8.60677 562.074 8.00586C562.574 7.39648 563.183 6.91406 563.902 6.55859C564.622 6.20312 565.438 6.02539 566.353 6.02539C567.241 6.02539 568.028 6.16504 568.714 6.44434C569.399 6.72363 569.975 7.12142 570.44 7.6377C570.914 8.14551 571.27 8.76758 571.507 9.50391C571.752 10.2318 571.875 11.0485 571.875 11.9541ZM569.577 11.6367C569.603 11.0697 569.548 10.5534 569.412 10.0879C569.277 9.61393 569.065 9.20768 568.777 8.86914C568.498 8.5306 568.147 8.26823 567.724 8.08203C567.3 7.88737 566.81 7.79004 566.251 7.79004C565.769 7.79004 565.328 7.88314 564.931 8.06934C564.533 8.25553 564.19 8.5179 563.902 8.85645C563.615 9.19499 563.382 9.60124 563.204 10.0752C563.026 10.5492 562.916 11.0697 562.874 11.6367H569.577ZM574.757 12.8936C574.757 11.8102 574.905 10.8496 575.201 10.0117C575.497 9.16536 575.916 8.45443 576.458 7.87891C577.008 7.29492 577.664 6.85482 578.426 6.55859C579.196 6.25391 580.051 6.10156 580.99 6.10156C581.396 6.10156 581.794 6.12695 582.184 6.17773C582.581 6.22852 582.971 6.30892 583.352 6.41895V1.06152H585.573V19H583.593L583.517 16.5879C582.899 17.485 582.23 18.1494 581.511 18.5811C580.791 19.0127 580.013 19.2285 579.175 19.2285C578.447 19.2285 577.804 19.0762 577.245 18.7715C576.695 18.4668 576.234 18.0394 575.861 17.4893C575.497 16.9307 575.222 16.262 575.036 15.4834C574.85 14.7048 574.757 13.8415 574.757 12.8936ZM577.017 12.7539C577.017 14.2943 577.241 15.4453 577.689 16.207C578.146 16.9603 578.79 17.3369 579.619 17.3369C580.178 17.3369 580.766 17.0872 581.384 16.5879C582.01 16.0885 582.666 15.348 583.352 14.3662V8.4502C582.988 8.28092 582.586 8.15397 582.146 8.06934C581.705 7.97624 581.27 7.92969 580.838 7.92969C579.636 7.92969 578.697 8.31901 578.02 9.09766C577.351 9.8763 577.017 11.0951 577.017 12.7539ZM614.76 11.9541C614.76 12.2673 614.756 12.5296 614.747 12.7412C614.739 12.9528 614.726 13.1517 614.709 13.3379H605.759C605.759 14.6413 606.123 15.6442 606.851 16.3467C607.578 17.0407 608.628 17.3877 609.999 17.3877C610.371 17.3877 610.744 17.375 611.116 17.3496C611.489 17.3158 611.848 17.2734 612.195 17.2227C612.542 17.1719 612.872 17.1169 613.186 17.0576C613.507 16.9899 613.803 16.918 614.074 16.8418V18.6572C613.473 18.8265 612.792 18.9619 612.03 19.0635C611.277 19.1735 610.494 19.2285 609.682 19.2285C608.59 19.2285 607.65 19.0804 606.863 18.7842C606.076 18.488 605.429 18.0605 604.921 17.502C604.422 16.9349 604.049 16.2451 603.804 15.4326C603.567 14.6117 603.448 13.6849 603.448 12.6523C603.448 11.7552 603.575 10.9089 603.829 10.1133C604.091 9.30924 604.468 8.60677 604.959 8.00586C605.458 7.39648 606.068 6.91406 606.787 6.55859C607.507 6.20312 608.323 6.02539 609.237 6.02539C610.126 6.02539 610.913 6.16504 611.599 6.44434C612.284 6.72363 612.86 7.12142 613.325 7.6377C613.799 8.14551 614.155 8.76758 614.392 9.50391C614.637 10.2318 614.76 11.0485 614.76 11.9541ZM612.462 11.6367C612.487 11.0697 612.432 10.5534 612.297 10.0879C612.161 9.61393 611.95 9.20768 611.662 8.86914C611.383 8.5306 611.032 8.26823 610.608 8.08203C610.185 7.88737 609.694 7.79004 609.136 7.79004C608.653 7.79004 608.213 7.88314 607.815 8.06934C607.418 8.25553 607.075 8.5179 606.787 8.85645C606.499 9.19499 606.267 9.60124 606.089 10.0752C605.911 10.5492 605.801 11.0697 605.759 11.6367H612.462ZM618.289 6.25391H620.257L620.346 8.31055C620.718 7.87044 621.078 7.50651 621.425 7.21875C621.772 6.92253 622.11 6.68555 622.44 6.50781C622.779 6.33008 623.122 6.20736 623.469 6.13965C623.816 6.06348 624.175 6.02539 624.548 6.02539C625.86 6.02539 626.85 6.41471 627.519 7.19336C628.196 7.96354 628.534 9.12728 628.534 10.6846V19H626.325V10.8623C626.325 9.86361 626.139 9.12728 625.767 8.65332C625.394 8.1709 624.84 7.92969 624.104 7.92969C623.833 7.92969 623.566 7.97201 623.304 8.05664C623.05 8.13281 622.783 8.27246 622.504 8.47559C622.225 8.67025 621.92 8.93685 621.59 9.27539C621.268 9.61393 620.904 10.0371 620.498 10.5449V19H618.289V6.25391ZM631.937 12.8936C631.937 11.8102 632.085 10.8496 632.381 10.0117C632.677 9.16536 633.096 8.45443 633.638 7.87891C634.188 7.29492 634.844 6.85482 635.605 6.55859C636.376 6.25391 637.23 6.10156 638.17 6.10156C638.576 6.10156 638.974 6.12695 639.363 6.17773C639.761 6.22852 640.15 6.30892 640.531 6.41895V1.06152H642.753V19H640.772L640.696 16.5879C640.078 17.485 639.41 18.1494 638.69 18.5811C637.971 19.0127 637.192 19.2285 636.354 19.2285C635.627 19.2285 634.983 19.0762 634.425 18.7715C633.875 18.4668 633.413 18.0394 633.041 17.4893C632.677 16.9307 632.402 16.262 632.216 15.4834C632.03 14.7048 631.937 13.8415 631.937 12.8936ZM634.196 12.7539C634.196 14.2943 634.421 15.4453 634.869 16.207C635.326 16.9603 635.969 17.3369 636.799 17.3369C637.357 17.3369 637.946 17.0872 638.563 16.5879C639.19 16.0885 639.846 15.348 640.531 14.3662V8.4502C640.167 8.28092 639.765 8.15397 639.325 8.06934C638.885 7.97624 638.449 7.92969 638.018 7.92969C636.816 7.92969 635.876 8.31901 635.199 9.09766C634.531 9.8763 634.196 11.0951 634.196 12.7539Z" fill="black"/>
</g>
<defs>
<clipPath id="clip0_6207_4178">
<rect width="645" height="177" fill="white"/>
</clipPath>
</defs>
</svg>
