<svg width="839" height="152" viewBox="0 0 839 152" fill="none" xmlns="http://www.w3.org/2000/svg">
<g clip-path="url(#clip0_3230_5645)">
<rect width="839" height="152" fill="white"/>
<path d="M96 68L10 135" stroke="black" stroke-width="3"/>
<path d="M10 125L1.33975 110H18.6603L10 125ZM11.5 89V111.5H8.5V89H11.5Z" fill="#FF5500"/>
<path d="M96.5 68L138 37.5" stroke="black" stroke-width="3" stroke-dasharray="8 8"/>
<path d="M9.22559 75.082H5.45508V73.2539H11.46V84.1592H15.2559V86H5.03613V84.1592H9.22559V75.082ZM10 67.9092C10.2454 67.9092 10.474 67.9557 10.6855 68.0488C10.8971 68.1335 11.0791 68.2562 11.2314 68.417C11.3923 68.5778 11.515 68.764 11.5996 68.9756C11.6927 69.1787 11.7393 69.403 11.7393 69.6484C11.7393 69.8854 11.6927 70.1097 11.5996 70.3213C11.515 70.5329 11.3923 70.7191 11.2314 70.8799C11.0791 71.0407 10.8971 71.1676 10.6855 71.2607C10.474 71.3454 10.2454 71.3877 10 71.3877C9.75456 71.3877 9.52604 71.3454 9.31445 71.2607C9.10286 71.1676 8.91667 71.0407 8.75586 70.8799C8.60352 70.7191 8.48079 70.5329 8.3877 70.3213C8.30306 70.1097 8.26074 69.8854 8.26074 69.6484C8.26074 69.403 8.30306 69.1787 8.3877 68.9756C8.48079 68.764 8.60352 68.5778 8.75586 68.417C8.91667 68.2562 9.10286 68.1335 9.31445 68.0488C9.52604 67.9557 9.75456 67.9092 10 67.9092Z" fill="#FF5500"/>
<path d="M96 58L87.3397 43H104.66L96 58ZM97.5 22V44.5H94.5V22H97.5Z" fill="#FF5500"/>
<path d="M80.9307 8.08203H77.1602V6.25391H83.165V17.1592H86.9609V19H76.7412V17.1592H80.9307V8.08203ZM81.7051 0.90918C81.9505 0.90918 82.179 0.955729 82.3906 1.04883C82.6022 1.13346 82.7842 1.25618 82.9365 1.41699C83.0973 1.5778 83.2201 1.764 83.3047 1.97559C83.3978 2.17871 83.4443 2.40299 83.4443 2.64844C83.4443 2.88542 83.3978 3.1097 83.3047 3.32129C83.2201 3.53288 83.0973 3.71908 82.9365 3.87988C82.7842 4.04069 82.6022 4.16764 82.3906 4.26074C82.179 4.34538 81.9505 4.3877 81.7051 4.3877C81.4596 4.3877 81.2311 4.34538 81.0195 4.26074C80.8079 4.16764 80.6217 4.04069 80.4609 3.87988C80.3086 3.71908 80.1859 3.53288 80.0928 3.32129C80.0081 3.1097 79.9658 2.88542 79.9658 2.64844C79.9658 2.40299 80.0081 2.17871 80.0928 1.97559C80.1859 1.764 80.3086 1.5778 80.4609 1.41699C80.6217 1.25618 80.8079 1.13346 81.0195 1.04883C81.2311 0.955729 81.4596 0.90918 81.7051 0.90918ZM102.081 13.0459H97.0918V18.2256H94.9082V13.0459H89.9189V11.1162H94.9082V5.97461H97.0918V11.1162H102.081V13.0459ZM115.805 19H105.382V16.9434H109.647V4.83203L105.674 6.99023L104.861 5.11133L110.143 2.33105H112.098V16.9434H115.805V19Z" fill="#FF5500"/>
<path d="M131.031 100.254H132.999L133.088 102.311C133.46 101.87 133.82 101.507 134.167 101.219C134.514 100.923 134.853 100.686 135.183 100.508C135.521 100.33 135.864 100.207 136.211 100.14C136.558 100.063 136.918 100.025 137.29 100.025C138.602 100.025 139.592 100.415 140.261 101.193C140.938 101.964 141.276 103.127 141.276 104.685V113H139.067V104.862C139.067 103.864 138.881 103.127 138.509 102.653C138.136 102.171 137.582 101.93 136.846 101.93C136.575 101.93 136.308 101.972 136.046 102.057C135.792 102.133 135.525 102.272 135.246 102.476C134.967 102.67 134.662 102.937 134.332 103.275C134.01 103.614 133.646 104.037 133.24 104.545V113H131.031V100.254ZM155.571 113H153.591L153.515 110.943C153.134 111.383 152.77 111.752 152.423 112.048C152.084 112.336 151.746 112.568 151.407 112.746C151.069 112.924 150.726 113.047 150.379 113.114C150.04 113.19 149.681 113.229 149.3 113.229C147.988 113.229 146.998 112.843 146.329 112.073C145.66 111.303 145.326 110.139 145.326 108.582V100.254H147.535V108.404C147.535 110.359 148.271 111.337 149.744 111.337C150.015 111.337 150.277 111.299 150.531 111.223C150.794 111.138 151.064 110.998 151.344 110.804C151.632 110.601 151.936 110.33 152.258 109.991C152.588 109.653 152.956 109.225 153.362 108.709V100.254H155.571V113ZM168.711 113V103.847C168.711 103.449 168.694 103.123 168.66 102.869C168.635 102.615 168.588 102.416 168.521 102.272C168.461 102.12 168.381 102.014 168.279 101.955C168.186 101.896 168.068 101.866 167.924 101.866C167.755 101.866 167.598 101.917 167.454 102.019C167.31 102.12 167.154 102.285 166.984 102.514C166.824 102.742 166.642 103.047 166.438 103.428C166.244 103.8 166.011 104.261 165.74 104.812V113H163.722V104.088C163.722 103.622 163.705 103.246 163.671 102.958C163.646 102.67 163.599 102.446 163.531 102.285C163.472 102.124 163.392 102.014 163.29 101.955C163.188 101.896 163.066 101.866 162.922 101.866C162.77 101.866 162.626 101.909 162.49 101.993C162.355 102.078 162.202 102.23 162.033 102.45C161.872 102.67 161.69 102.971 161.487 103.352C161.284 103.732 161.043 104.219 160.764 104.812V113H158.732V100.254H160.421L160.522 102.679C160.743 102.196 160.954 101.786 161.157 101.447C161.369 101.109 161.585 100.838 161.805 100.635C162.025 100.423 162.257 100.271 162.503 100.178C162.757 100.076 163.036 100.025 163.341 100.025C164.026 100.025 164.547 100.25 164.902 100.698C165.258 101.147 165.436 101.841 165.436 102.78C165.639 102.34 165.838 101.951 166.032 101.612C166.227 101.265 166.434 100.978 166.654 100.749C166.883 100.512 167.132 100.334 167.403 100.216C167.674 100.089 167.987 100.025 168.343 100.025C169.942 100.025 170.742 101.257 170.742 103.72V113H168.711ZM184.009 109.521C184.009 109.97 183.933 110.372 183.78 110.728C183.628 111.083 183.421 111.4 183.158 111.68C182.896 111.951 182.591 112.183 182.244 112.378C181.897 112.573 181.525 112.733 181.127 112.86C180.738 112.987 180.336 113.08 179.921 113.14C179.506 113.199 179.1 113.229 178.702 113.229C177.839 113.229 177.043 113.19 176.315 113.114C175.596 113.038 174.889 112.915 174.195 112.746V110.715C174.94 110.926 175.681 111.087 176.417 111.197C177.153 111.307 177.885 111.362 178.613 111.362C179.671 111.362 180.454 111.218 180.962 110.931C181.47 110.643 181.724 110.232 181.724 109.699C181.724 109.471 181.681 109.268 181.597 109.09C181.521 108.904 181.377 108.73 181.165 108.569C180.953 108.4 180.623 108.227 180.175 108.049C179.735 107.871 179.13 107.668 178.359 107.439C177.784 107.27 177.251 107.08 176.76 106.868C176.277 106.648 175.858 106.39 175.503 106.094C175.147 105.798 174.868 105.451 174.665 105.053C174.462 104.655 174.36 104.185 174.36 103.644C174.36 103.288 174.441 102.899 174.602 102.476C174.771 102.052 175.054 101.659 175.452 101.295C175.85 100.931 176.387 100.631 177.064 100.394C177.742 100.148 178.588 100.025 179.604 100.025C180.103 100.025 180.657 100.055 181.267 100.114C181.876 100.165 182.511 100.258 183.171 100.394V102.361C182.477 102.192 181.817 102.069 181.19 101.993C180.573 101.909 180.035 101.866 179.578 101.866C179.028 101.866 178.562 101.909 178.182 101.993C177.809 102.078 177.505 102.196 177.268 102.349C177.039 102.493 176.874 102.666 176.772 102.869C176.671 103.064 176.62 103.275 176.62 103.504C176.62 103.732 176.662 103.94 176.747 104.126C176.84 104.312 177.005 104.494 177.242 104.672C177.488 104.841 177.826 105.015 178.258 105.192C178.689 105.362 179.252 105.548 179.946 105.751C180.7 105.971 181.334 106.204 181.851 106.449C182.367 106.686 182.786 106.953 183.107 107.249C183.429 107.545 183.658 107.88 183.793 108.252C183.937 108.624 184.009 109.048 184.009 109.521ZM196.818 118.205H190.56V94.6172H196.818V96.3945H192.667V116.428H196.818V118.205ZM206.848 102.082H203.077V100.254H209.082V111.159H212.878V113H202.658V111.159H206.848V102.082ZM207.622 94.9092C207.868 94.9092 208.096 94.9557 208.308 95.0488C208.519 95.1335 208.701 95.2562 208.854 95.417C209.014 95.5778 209.137 95.764 209.222 95.9756C209.315 96.1787 209.361 96.403 209.361 96.6484C209.361 96.8854 209.315 97.1097 209.222 97.3213C209.137 97.5329 209.014 97.7191 208.854 97.8799C208.701 98.0407 208.519 98.1676 208.308 98.2607C208.096 98.3454 207.868 98.3877 207.622 98.3877C207.377 98.3877 207.148 98.3454 206.937 98.2607C206.725 98.1676 206.539 98.0407 206.378 97.8799C206.226 97.7191 206.103 97.5329 206.01 97.3213C205.925 97.1097 205.883 96.8854 205.883 96.6484C205.883 96.403 205.925 96.1787 206.01 95.9756C206.103 95.764 206.226 95.5778 206.378 95.417C206.539 95.2562 206.725 95.1335 206.937 95.0488C207.148 94.9557 207.377 94.9092 207.622 94.9092ZM224.685 118.205H218.426V116.428H222.552V96.3945H218.426V94.6172H224.685V118.205ZM255.014 111.807L253.63 113.203L245.099 106.081L253.63 98.959L255.014 100.368L248.095 106.056L255.014 111.807ZM273.98 100.254H275.948L276.037 102.311C276.41 101.87 276.769 101.507 277.116 101.219C277.463 100.923 277.802 100.686 278.132 100.508C278.47 100.33 278.813 100.207 279.16 100.14C279.507 100.063 279.867 100.025 280.239 100.025C281.551 100.025 282.541 100.415 283.21 101.193C283.887 101.964 284.226 103.127 284.226 104.685V113H282.017V104.862C282.017 103.864 281.83 103.127 281.458 102.653C281.086 102.171 280.531 101.93 279.795 101.93C279.524 101.93 279.257 101.972 278.995 102.057C278.741 102.133 278.475 102.272 278.195 102.476C277.916 102.67 277.611 102.937 277.281 103.275C276.96 103.614 276.596 104.037 276.189 104.545V113H273.98V100.254ZM298.521 113H296.54L296.464 110.943C296.083 111.383 295.719 111.752 295.372 112.048C295.034 112.336 294.695 112.568 294.356 112.746C294.018 112.924 293.675 113.047 293.328 113.114C292.99 113.19 292.63 113.229 292.249 113.229C290.937 113.229 289.947 112.843 289.278 112.073C288.61 111.303 288.275 110.139 288.275 108.582V100.254H290.484V108.404C290.484 110.359 291.221 111.337 292.693 111.337C292.964 111.337 293.227 111.299 293.48 111.223C293.743 111.138 294.014 110.998 294.293 110.804C294.581 110.601 294.885 110.33 295.207 109.991C295.537 109.653 295.905 109.225 296.312 108.709V100.254H298.521V113ZM311.66 113V103.847C311.66 103.449 311.643 103.123 311.609 102.869C311.584 102.615 311.537 102.416 311.47 102.272C311.41 102.12 311.33 102.014 311.229 101.955C311.135 101.896 311.017 101.866 310.873 101.866C310.704 101.866 310.547 101.917 310.403 102.019C310.259 102.12 310.103 102.285 309.934 102.514C309.773 102.742 309.591 103.047 309.388 103.428C309.193 103.8 308.96 104.261 308.689 104.812V113H306.671V104.088C306.671 103.622 306.654 103.246 306.62 102.958C306.595 102.67 306.548 102.446 306.48 102.285C306.421 102.124 306.341 102.014 306.239 101.955C306.138 101.896 306.015 101.866 305.871 101.866C305.719 101.866 305.575 101.909 305.439 101.993C305.304 102.078 305.152 102.23 304.982 102.45C304.822 102.67 304.64 102.971 304.437 103.352C304.233 103.732 303.992 104.219 303.713 104.812V113H301.682V100.254H303.37L303.472 102.679C303.692 102.196 303.903 101.786 304.106 101.447C304.318 101.109 304.534 100.838 304.754 100.635C304.974 100.423 305.207 100.271 305.452 100.178C305.706 100.076 305.985 100.025 306.29 100.025C306.976 100.025 307.496 100.25 307.852 100.698C308.207 101.147 308.385 101.841 308.385 102.78C308.588 102.34 308.787 101.951 308.981 101.612C309.176 101.265 309.383 100.978 309.604 100.749C309.832 100.512 310.082 100.334 310.353 100.216C310.623 100.089 310.937 100.025 311.292 100.025C312.892 100.025 313.691 101.257 313.691 103.72V113H311.66ZM326.958 109.521C326.958 109.97 326.882 110.372 326.729 110.728C326.577 111.083 326.37 111.4 326.107 111.68C325.845 111.951 325.54 112.183 325.193 112.378C324.846 112.573 324.474 112.733 324.076 112.86C323.687 112.987 323.285 113.08 322.87 113.14C322.455 113.199 322.049 113.229 321.651 113.229C320.788 113.229 319.993 113.19 319.265 113.114C318.545 113.038 317.839 112.915 317.145 112.746V110.715C317.889 110.926 318.63 111.087 319.366 111.197C320.103 111.307 320.835 111.362 321.562 111.362C322.62 111.362 323.403 111.218 323.911 110.931C324.419 110.643 324.673 110.232 324.673 109.699C324.673 109.471 324.631 109.268 324.546 109.09C324.47 108.904 324.326 108.73 324.114 108.569C323.903 108.4 323.573 108.227 323.124 108.049C322.684 107.871 322.079 107.668 321.309 107.439C320.733 107.27 320.2 107.08 319.709 106.868C319.227 106.648 318.808 106.39 318.452 106.094C318.097 105.798 317.817 105.451 317.614 105.053C317.411 104.655 317.31 104.185 317.31 103.644C317.31 103.288 317.39 102.899 317.551 102.476C317.72 102.052 318.004 101.659 318.401 101.295C318.799 100.931 319.337 100.631 320.014 100.394C320.691 100.148 321.537 100.025 322.553 100.025C323.052 100.025 323.606 100.055 324.216 100.114C324.825 100.165 325.46 100.258 326.12 100.394V102.361C325.426 102.192 324.766 102.069 324.14 101.993C323.522 101.909 322.984 101.866 322.527 101.866C321.977 101.866 321.512 101.909 321.131 101.993C320.758 102.078 320.454 102.196 320.217 102.349C319.988 102.493 319.823 102.666 319.722 102.869C319.62 103.064 319.569 103.275 319.569 103.504C319.569 103.732 319.612 103.94 319.696 104.126C319.789 104.312 319.954 104.494 320.191 104.672C320.437 104.841 320.775 105.015 321.207 105.192C321.639 105.362 322.201 105.548 322.896 105.751C323.649 105.971 324.284 106.204 324.8 106.449C325.316 106.686 325.735 106.953 326.057 107.249C326.378 107.545 326.607 107.88 326.742 108.252C326.886 108.624 326.958 109.048 326.958 109.521ZM339.768 118.205H333.509V94.6172H339.768V96.3945H335.616V116.428H339.768V118.205ZM349.797 102.082H346.026V100.254H352.031V111.159H355.827V113H345.607V111.159H349.797V102.082ZM350.571 94.9092C350.817 94.9092 351.045 94.9557 351.257 95.0488C351.468 95.1335 351.65 95.2562 351.803 95.417C351.964 95.5778 352.086 95.764 352.171 95.9756C352.264 96.1787 352.311 96.403 352.311 96.6484C352.311 96.8854 352.264 97.1097 352.171 97.3213C352.086 97.5329 351.964 97.7191 351.803 97.8799C351.65 98.0407 351.468 98.1676 351.257 98.2607C351.045 98.3454 350.817 98.3877 350.571 98.3877C350.326 98.3877 350.097 98.3454 349.886 98.2607C349.674 98.1676 349.488 98.0407 349.327 97.8799C349.175 97.7191 349.052 97.5329 348.959 97.3213C348.874 97.1097 348.832 96.8854 348.832 96.6484C348.832 96.403 348.874 96.1787 348.959 95.9756C349.052 95.764 349.175 95.5778 349.327 95.417C349.488 95.2562 349.674 95.1335 349.886 95.0488C350.097 94.9557 350.326 94.9092 350.571 94.9092ZM370.947 107.046H365.958V112.226H363.774V107.046H358.785V105.116H363.774V99.9746H365.958V105.116H370.947V107.046ZM384.671 113H374.248V110.943H378.514V98.832L374.54 100.99L373.728 99.1113L379.009 96.3311H380.964V110.943H384.671V113ZM396.224 118.205H389.965V116.428H394.091V96.3945H389.965V94.6172H396.224V118.205Z" fill="black"/>
<path d="M488.373 95.877H484.603V94.0615H490.607V110.159H494.403V112H484.184V110.159H488.373V95.877ZM509.422 105.525C509.422 106.516 509.282 107.425 509.003 108.255C508.724 109.076 508.322 109.783 507.797 110.375C507.272 110.959 506.633 111.416 505.88 111.746C505.127 112.068 504.272 112.229 503.315 112.229C502.401 112.229 501.58 112.089 500.853 111.81C500.133 111.522 499.52 111.103 499.012 110.553C498.512 110.003 498.127 109.321 497.856 108.509C497.594 107.696 497.463 106.761 497.463 105.703C497.463 104.713 497.603 103.812 497.882 102.999C498.161 102.178 498.563 101.476 499.088 100.892C499.613 100.299 500.252 99.8421 501.005 99.5205C501.758 99.1904 502.613 99.0254 503.569 99.0254C504.483 99.0254 505.3 99.1693 506.02 99.457C506.747 99.7363 507.361 100.151 507.86 100.701C508.368 101.243 508.753 101.92 509.016 102.732C509.286 103.545 509.422 104.476 509.422 105.525ZM507.162 105.627C507.162 104.84 507.073 104.154 506.896 103.57C506.726 102.978 506.481 102.487 506.159 102.098C505.838 101.7 505.444 101.404 504.979 101.209C504.521 101.006 504.009 100.904 503.442 100.904C502.782 100.904 502.215 101.035 501.741 101.298C501.276 101.552 500.891 101.895 500.586 102.326C500.29 102.758 500.07 103.261 499.926 103.837C499.79 104.404 499.723 105.001 499.723 105.627C499.723 106.414 499.807 107.104 499.977 107.696C500.154 108.289 500.404 108.784 500.726 109.182C501.047 109.571 501.437 109.867 501.894 110.07C502.351 110.265 502.867 110.362 503.442 110.362C504.103 110.362 504.665 110.235 505.131 109.981C505.605 109.719 505.99 109.372 506.286 108.94C506.591 108.509 506.811 108.009 506.946 107.442C507.09 106.867 507.162 106.262 507.162 105.627ZM522.523 111.53C521.948 111.75 521.355 111.911 520.746 112.013C520.145 112.123 519.523 112.178 518.88 112.178C516.866 112.178 515.312 111.632 514.221 110.54C513.137 109.448 512.596 107.853 512.596 105.754C512.596 104.747 512.752 103.833 513.065 103.012C513.379 102.191 513.819 101.488 514.386 100.904C514.953 100.32 515.63 99.8717 516.417 99.5586C517.204 99.237 518.072 99.0762 519.02 99.0762C519.68 99.0762 520.298 99.1227 520.873 99.2158C521.449 99.3089 521.999 99.4613 522.523 99.6729V101.78C521.973 101.493 521.41 101.285 520.835 101.158C520.268 101.023 519.68 100.955 519.07 100.955C518.503 100.955 517.966 101.065 517.458 101.285C516.959 101.497 516.519 101.806 516.138 102.212C515.757 102.618 515.456 103.113 515.236 103.697C515.016 104.281 514.906 104.941 514.906 105.678C514.906 107.218 515.279 108.373 516.023 109.144C516.777 109.905 517.818 110.286 519.146 110.286C519.747 110.286 520.327 110.218 520.886 110.083C521.453 109.948 521.999 109.744 522.523 109.474V111.53ZM535.104 112L535.054 110.286C534.36 110.972 533.653 111.467 532.934 111.771C532.223 112.076 531.474 112.229 530.687 112.229C529.959 112.229 529.337 112.135 528.82 111.949C528.304 111.763 527.877 111.509 527.538 111.188C527.208 110.857 526.963 110.472 526.802 110.032C526.649 109.592 526.573 109.114 526.573 108.598C526.573 107.32 527.047 106.321 527.995 105.602C528.951 104.874 530.361 104.51 532.223 104.51H534.863V103.393C534.863 102.639 534.622 102.038 534.14 101.59C533.657 101.133 532.921 100.904 531.931 100.904C531.211 100.904 530.5 100.985 529.798 101.146C529.104 101.306 528.384 101.535 527.64 101.831V99.8379C527.919 99.7363 528.228 99.639 528.566 99.5459C528.913 99.4443 529.277 99.3555 529.658 99.2793C530.039 99.2031 530.437 99.1439 530.852 99.1016C531.266 99.0508 531.685 99.0254 532.108 99.0254C532.879 99.0254 533.573 99.11 534.19 99.2793C534.808 99.4486 535.329 99.7067 535.752 100.054C536.184 100.401 536.514 100.837 536.742 101.361C536.971 101.886 537.085 102.504 537.085 103.215V112H535.104ZM534.863 106.198H532.058C531.507 106.198 531.034 106.253 530.636 106.363C530.238 106.473 529.912 106.63 529.658 106.833C529.404 107.036 529.214 107.282 529.087 107.569C528.968 107.849 528.909 108.166 528.909 108.521C528.909 108.767 528.947 109.004 529.023 109.232C529.1 109.452 529.222 109.651 529.392 109.829C529.561 109.998 529.781 110.134 530.052 110.235C530.323 110.337 530.653 110.388 531.042 110.388C531.55 110.388 532.13 110.235 532.781 109.931C533.441 109.618 534.135 109.127 534.863 108.458V106.198ZM545.553 95.877H541.782V94.0615H547.787V110.159H551.583V112H541.363V110.159H545.553V95.877ZM578.891 112V102.847C578.891 102.449 578.874 102.123 578.84 101.869C578.814 101.615 578.768 101.416 578.7 101.272C578.641 101.12 578.561 101.014 578.459 100.955C578.366 100.896 578.247 100.866 578.104 100.866C577.934 100.866 577.778 100.917 577.634 101.019C577.49 101.12 577.333 101.285 577.164 101.514C577.003 101.742 576.821 102.047 576.618 102.428C576.424 102.8 576.191 103.261 575.92 103.812V112H573.901V103.088C573.901 102.622 573.884 102.246 573.851 101.958C573.825 101.67 573.779 101.446 573.711 101.285C573.652 101.124 573.571 101.014 573.47 100.955C573.368 100.896 573.245 100.866 573.102 100.866C572.949 100.866 572.805 100.909 572.67 100.993C572.535 101.078 572.382 101.23 572.213 101.45C572.052 101.67 571.87 101.971 571.667 102.352C571.464 102.732 571.223 103.219 570.943 103.812V112H568.912V99.2539H570.601L570.702 101.679C570.922 101.196 571.134 100.786 571.337 100.447C571.549 100.109 571.764 99.8379 571.984 99.6348C572.204 99.4232 572.437 99.2708 572.683 99.1777C572.937 99.0762 573.216 99.0254 573.521 99.0254C574.206 99.0254 574.727 99.2497 575.082 99.6982C575.438 100.147 575.615 100.841 575.615 101.78C575.818 101.34 576.017 100.951 576.212 100.612C576.407 100.265 576.614 99.9775 576.834 99.749C577.062 99.512 577.312 99.3343 577.583 99.2158C577.854 99.0889 578.167 99.0254 578.522 99.0254C580.122 99.0254 580.922 100.257 580.922 102.72V112H578.891ZM592.284 112L592.233 110.286C591.539 110.972 590.833 111.467 590.113 111.771C589.402 112.076 588.653 112.229 587.866 112.229C587.138 112.229 586.516 112.135 586 111.949C585.484 111.763 585.056 111.509 584.718 111.188C584.388 110.857 584.142 110.472 583.981 110.032C583.829 109.592 583.753 109.114 583.753 108.598C583.753 107.32 584.227 106.321 585.175 105.602C586.131 104.874 587.54 104.51 589.402 104.51H592.043V103.393C592.043 102.639 591.802 102.038 591.319 101.59C590.837 101.133 590.101 100.904 589.11 100.904C588.391 100.904 587.68 100.985 586.978 101.146C586.284 101.306 585.564 101.535 584.819 101.831V99.8379C585.099 99.7363 585.408 99.639 585.746 99.5459C586.093 99.4443 586.457 99.3555 586.838 99.2793C587.219 99.2031 587.617 99.1439 588.031 99.1016C588.446 99.0508 588.865 99.0254 589.288 99.0254C590.058 99.0254 590.752 99.11 591.37 99.2793C591.988 99.4486 592.508 99.7067 592.932 100.054C593.363 100.401 593.693 100.837 593.922 101.361C594.15 101.886 594.265 102.504 594.265 103.215V112H592.284ZM592.043 106.198H589.237C588.687 106.198 588.213 106.253 587.815 106.363C587.418 106.473 587.092 106.63 586.838 106.833C586.584 107.036 586.394 107.282 586.267 107.569C586.148 107.849 586.089 108.166 586.089 108.521C586.089 108.767 586.127 109.004 586.203 109.232C586.279 109.452 586.402 109.651 586.571 109.829C586.741 109.998 586.961 110.134 587.231 110.235C587.502 110.337 587.832 110.388 588.222 110.388C588.729 110.388 589.309 110.235 589.961 109.931C590.621 109.618 591.315 109.127 592.043 108.458V106.198ZM609.88 112H606.947L603.507 107.138L600.104 112H597.248L602.187 105.602L597.477 99.2539H600.308L603.659 104.154L606.947 99.2539H609.677L604.891 105.652L609.88 112ZM617.027 101.082H613.257V99.2539H619.262V110.159H623.058V112H612.838V110.159H617.027V101.082ZM617.802 93.9092C618.047 93.9092 618.276 93.9557 618.487 94.0488C618.699 94.1335 618.881 94.2562 619.033 94.417C619.194 94.5778 619.317 94.764 619.401 94.9756C619.494 95.1787 619.541 95.403 619.541 95.6484C619.541 95.8854 619.494 96.1097 619.401 96.3213C619.317 96.5329 619.194 96.7191 619.033 96.8799C618.881 97.0407 618.699 97.1676 618.487 97.2607C618.276 97.3454 618.047 97.3877 617.802 97.3877C617.556 97.3877 617.328 97.3454 617.116 97.2607C616.905 97.1676 616.718 97.0407 616.558 96.8799C616.405 96.7191 616.283 96.5329 616.189 96.3213C616.105 96.1097 616.062 95.8854 616.062 95.6484C616.062 95.403 616.105 95.1787 616.189 94.9756C616.283 94.764 616.405 94.5778 616.558 94.417C616.718 94.2562 616.905 94.1335 617.116 94.0488C617.328 93.9557 617.556 93.9092 617.802 93.9092ZM636.07 112V102.847C636.07 102.449 636.053 102.123 636.02 101.869C635.994 101.615 635.948 101.416 635.88 101.272C635.821 101.12 635.74 101.014 635.639 100.955C635.546 100.896 635.427 100.866 635.283 100.866C635.114 100.866 634.957 100.917 634.813 101.019C634.67 101.12 634.513 101.285 634.344 101.514C634.183 101.742 634.001 102.047 633.798 102.428C633.603 102.8 633.37 103.261 633.1 103.812V112H631.081V103.088C631.081 102.622 631.064 102.246 631.03 101.958C631.005 101.67 630.958 101.446 630.891 101.285C630.831 101.124 630.751 101.014 630.649 100.955C630.548 100.896 630.425 100.866 630.281 100.866C630.129 100.866 629.985 100.909 629.85 100.993C629.714 101.078 629.562 101.23 629.393 101.45C629.232 101.67 629.05 101.971 628.847 102.352C628.644 102.732 628.402 103.219 628.123 103.812V112H626.092V99.2539H627.78L627.882 101.679C628.102 101.196 628.313 100.786 628.517 100.447C628.728 100.109 628.944 99.8379 629.164 99.6348C629.384 99.4232 629.617 99.2708 629.862 99.1777C630.116 99.0762 630.396 99.0254 630.7 99.0254C631.386 99.0254 631.906 99.2497 632.262 99.6982C632.617 100.147 632.795 100.841 632.795 101.78C632.998 101.34 633.197 100.951 633.392 100.612C633.586 100.265 633.794 99.9775 634.014 99.749C634.242 99.512 634.492 99.3343 634.763 99.2158C635.034 99.0889 635.347 99.0254 635.702 99.0254C637.302 99.0254 638.102 100.257 638.102 102.72V112H636.07ZM649.464 112L649.413 110.286C648.719 110.972 648.012 111.467 647.293 111.771C646.582 112.076 645.833 112.229 645.046 112.229C644.318 112.229 643.696 112.135 643.18 111.949C642.663 111.763 642.236 111.509 641.897 111.188C641.567 110.857 641.322 110.472 641.161 110.032C641.009 109.592 640.933 109.114 640.933 108.598C640.933 107.32 641.407 106.321 642.354 105.602C643.311 104.874 644.72 104.51 646.582 104.51H649.223V103.393C649.223 102.639 648.981 102.038 648.499 101.59C648.017 101.133 647.28 100.904 646.29 100.904C645.571 100.904 644.86 100.985 644.157 101.146C643.463 101.306 642.744 101.535 641.999 101.831V99.8379C642.278 99.7363 642.587 99.639 642.926 99.5459C643.273 99.4443 643.637 99.3555 644.018 99.2793C644.398 99.2031 644.796 99.1439 645.211 99.1016C645.626 99.0508 646.045 99.0254 646.468 99.0254C647.238 99.0254 647.932 99.11 648.55 99.2793C649.168 99.4486 649.688 99.7067 650.111 100.054C650.543 100.401 650.873 100.837 651.102 101.361C651.33 101.886 651.444 102.504 651.444 103.215V112H649.464ZM649.223 106.198H646.417C645.867 106.198 645.393 106.253 644.995 106.363C644.597 106.473 644.271 106.63 644.018 106.833C643.764 107.036 643.573 107.282 643.446 107.569C643.328 107.849 643.269 108.166 643.269 108.521C643.269 108.767 643.307 109.004 643.383 109.232C643.459 109.452 643.582 109.651 643.751 109.829C643.92 109.998 644.14 110.134 644.411 110.235C644.682 110.337 645.012 110.388 645.401 110.388C645.909 110.388 646.489 110.235 647.141 109.931C647.801 109.618 648.495 109.127 649.223 108.458V106.198ZM679.958 108.521C679.958 108.97 679.882 109.372 679.729 109.728C679.577 110.083 679.37 110.4 679.107 110.68C678.845 110.951 678.54 111.183 678.193 111.378C677.846 111.573 677.474 111.733 677.076 111.86C676.687 111.987 676.285 112.08 675.87 112.14C675.455 112.199 675.049 112.229 674.651 112.229C673.788 112.229 672.993 112.19 672.265 112.114C671.545 112.038 670.839 111.915 670.145 111.746V109.715C670.889 109.926 671.63 110.087 672.366 110.197C673.103 110.307 673.835 110.362 674.562 110.362C675.62 110.362 676.403 110.218 676.911 109.931C677.419 109.643 677.673 109.232 677.673 108.699C677.673 108.471 677.631 108.268 677.546 108.09C677.47 107.904 677.326 107.73 677.114 107.569C676.903 107.4 676.573 107.227 676.124 107.049C675.684 106.871 675.079 106.668 674.309 106.439C673.733 106.27 673.2 106.08 672.709 105.868C672.227 105.648 671.808 105.39 671.452 105.094C671.097 104.798 670.817 104.451 670.614 104.053C670.411 103.655 670.31 103.185 670.31 102.644C670.31 102.288 670.39 101.899 670.551 101.476C670.72 101.052 671.004 100.659 671.401 100.295C671.799 99.931 672.337 99.6305 673.014 99.3936C673.691 99.1481 674.537 99.0254 675.553 99.0254C676.052 99.0254 676.606 99.055 677.216 99.1143C677.825 99.165 678.46 99.2581 679.12 99.3936V101.361C678.426 101.192 677.766 101.069 677.14 100.993C676.522 100.909 675.984 100.866 675.527 100.866C674.977 100.866 674.512 100.909 674.131 100.993C673.758 101.078 673.454 101.196 673.217 101.349C672.988 101.493 672.823 101.666 672.722 101.869C672.62 102.064 672.569 102.275 672.569 102.504C672.569 102.732 672.612 102.94 672.696 103.126C672.789 103.312 672.954 103.494 673.191 103.672C673.437 103.841 673.775 104.015 674.207 104.192C674.639 104.362 675.201 104.548 675.896 104.751C676.649 104.971 677.284 105.204 677.8 105.449C678.316 105.686 678.735 105.953 679.057 106.249C679.378 106.545 679.607 106.88 679.742 107.252C679.886 107.624 679.958 108.048 679.958 108.521ZM695.256 105.525C695.256 106.516 695.116 107.425 694.837 108.255C694.558 109.076 694.156 109.783 693.631 110.375C693.106 110.959 692.467 111.416 691.714 111.746C690.961 112.068 690.106 112.229 689.149 112.229C688.235 112.229 687.414 112.089 686.687 111.81C685.967 111.522 685.354 111.103 684.846 110.553C684.346 110.003 683.961 109.321 683.69 108.509C683.428 107.696 683.297 106.761 683.297 105.703C683.297 104.713 683.437 103.812 683.716 102.999C683.995 102.178 684.397 101.476 684.922 100.892C685.447 100.299 686.086 99.8421 686.839 99.5205C687.592 99.1904 688.447 99.0254 689.403 99.0254C690.317 99.0254 691.134 99.1693 691.854 99.457C692.581 99.7363 693.195 100.151 693.694 100.701C694.202 101.243 694.587 101.92 694.85 102.732C695.12 103.545 695.256 104.476 695.256 105.525ZM692.996 105.627C692.996 104.84 692.907 104.154 692.729 103.57C692.56 102.978 692.315 102.487 691.993 102.098C691.672 101.7 691.278 101.404 690.812 101.209C690.355 101.006 689.843 100.904 689.276 100.904C688.616 100.904 688.049 101.035 687.575 101.298C687.11 101.552 686.725 101.895 686.42 102.326C686.124 102.758 685.904 103.261 685.76 103.837C685.624 104.404 685.557 105.001 685.557 105.627C685.557 106.414 685.641 107.104 685.811 107.696C685.988 108.289 686.238 108.784 686.56 109.182C686.881 109.571 687.271 109.867 687.728 110.07C688.185 110.265 688.701 110.362 689.276 110.362C689.937 110.362 690.499 110.235 690.965 109.981C691.439 109.719 691.824 109.372 692.12 108.94C692.425 108.509 692.645 108.009 692.78 107.442C692.924 106.867 692.996 106.262 692.996 105.627ZM707.545 112V102.847C707.545 102.449 707.528 102.123 707.494 101.869C707.469 101.615 707.422 101.416 707.354 101.272C707.295 101.12 707.215 101.014 707.113 100.955C707.02 100.896 706.902 100.866 706.758 100.866C706.589 100.866 706.432 100.917 706.288 101.019C706.144 101.12 705.988 101.285 705.818 101.514C705.658 101.742 705.476 102.047 705.272 102.428C705.078 102.8 704.845 103.261 704.574 103.812V112H702.556V103.088C702.556 102.622 702.539 102.246 702.505 101.958C702.479 101.67 702.433 101.446 702.365 101.285C702.306 101.124 702.226 101.014 702.124 100.955C702.022 100.896 701.9 100.866 701.756 100.866C701.604 100.866 701.46 100.909 701.324 100.993C701.189 101.078 701.036 101.23 700.867 101.45C700.706 101.67 700.524 101.971 700.321 102.352C700.118 102.732 699.877 103.219 699.598 103.812V112H697.566V99.2539H699.255L699.356 101.679C699.576 101.196 699.788 100.786 699.991 100.447C700.203 100.109 700.419 99.8379 700.639 99.6348C700.859 99.4232 701.091 99.2708 701.337 99.1777C701.591 99.0762 701.87 99.0254 702.175 99.0254C702.86 99.0254 703.381 99.2497 703.736 99.6982C704.092 100.147 704.27 100.841 704.27 101.78C704.473 101.34 704.672 100.951 704.866 100.612C705.061 100.265 705.268 99.9775 705.488 99.749C705.717 99.512 705.966 99.3343 706.237 99.2158C706.508 99.0889 706.821 99.0254 707.177 99.0254C708.776 99.0254 709.576 100.257 709.576 102.72V112H707.545ZM723.516 104.954C723.516 105.267 723.511 105.53 723.503 105.741C723.494 105.953 723.482 106.152 723.465 106.338H714.515C714.515 107.641 714.879 108.644 715.606 109.347C716.334 110.041 717.384 110.388 718.755 110.388C719.127 110.388 719.5 110.375 719.872 110.35C720.244 110.316 720.604 110.273 720.951 110.223C721.298 110.172 721.628 110.117 721.941 110.058C722.263 109.99 722.559 109.918 722.83 109.842V111.657C722.229 111.826 721.548 111.962 720.786 112.063C720.033 112.174 719.25 112.229 718.438 112.229C717.346 112.229 716.406 112.08 715.619 111.784C714.832 111.488 714.185 111.061 713.677 110.502C713.177 109.935 712.805 109.245 712.56 108.433C712.323 107.612 712.204 106.685 712.204 105.652C712.204 104.755 712.331 103.909 712.585 103.113C712.847 102.309 713.224 101.607 713.715 101.006C714.214 100.396 714.824 99.9141 715.543 99.5586C716.262 99.2031 717.079 99.0254 717.993 99.0254C718.882 99.0254 719.669 99.165 720.354 99.4443C721.04 99.7236 721.616 100.121 722.081 100.638C722.555 101.146 722.91 101.768 723.147 102.504C723.393 103.232 723.516 104.049 723.516 104.954ZM721.218 104.637C721.243 104.07 721.188 103.553 721.053 103.088C720.917 102.614 720.706 102.208 720.418 101.869C720.139 101.531 719.787 101.268 719.364 101.082C718.941 100.887 718.45 100.79 717.892 100.79C717.409 100.79 716.969 100.883 716.571 101.069C716.174 101.256 715.831 101.518 715.543 101.856C715.255 102.195 715.022 102.601 714.845 103.075C714.667 103.549 714.557 104.07 714.515 104.637H721.218ZM738.852 99.2539L736.998 112H734.319L732.479 106.668L732.11 105.373L731.691 106.744L729.927 112H727.324L725.483 99.2539H727.642L728.708 107.912L728.937 109.842L729.482 108.153L731.336 102.428H732.923L734.916 108.077L735.487 109.766L735.678 107.976L736.668 99.2539H738.852ZM751.585 112H749.376V103.862C749.376 102.881 749.19 102.148 748.817 101.666C748.453 101.175 747.929 100.93 747.243 100.93C746.947 100.93 746.668 100.972 746.405 101.057C746.151 101.133 745.885 101.272 745.605 101.476C745.326 101.67 745.021 101.937 744.691 102.275C744.361 102.614 743.98 103.037 743.549 103.545V112H741.34V94.0615H743.549V99.2539L743.473 101.26C743.82 100.845 744.158 100.498 744.488 100.219C744.827 99.931 745.161 99.6982 745.491 99.5205C745.83 99.3428 746.173 99.2158 746.52 99.1396C746.867 99.0635 747.226 99.0254 747.599 99.0254C748.868 99.0254 749.85 99.4147 750.544 100.193C751.238 100.964 751.585 102.127 751.585 103.685V112ZM766.4 104.954C766.4 105.267 766.396 105.53 766.388 105.741C766.379 105.953 766.367 106.152 766.35 106.338H757.399C757.399 107.641 757.763 108.644 758.491 109.347C759.219 110.041 760.269 110.388 761.64 110.388C762.012 110.388 762.384 110.375 762.757 110.35C763.129 110.316 763.489 110.273 763.836 110.223C764.183 110.172 764.513 110.117 764.826 110.058C765.148 109.99 765.444 109.918 765.715 109.842V111.657C765.114 111.826 764.433 111.962 763.671 112.063C762.918 112.174 762.135 112.229 761.322 112.229C760.23 112.229 759.291 112.08 758.504 111.784C757.717 111.488 757.069 111.061 756.562 110.502C756.062 109.935 755.69 109.245 755.444 108.433C755.207 107.612 755.089 106.685 755.089 105.652C755.089 104.755 755.216 103.909 755.47 103.113C755.732 102.309 756.109 101.607 756.6 101.006C757.099 100.396 757.708 99.9141 758.428 99.5586C759.147 99.2031 759.964 99.0254 760.878 99.0254C761.767 99.0254 762.554 99.165 763.239 99.4443C763.925 99.7236 764.5 100.121 764.966 100.638C765.44 101.146 765.795 101.768 766.032 102.504C766.278 103.232 766.4 104.049 766.4 104.954ZM764.103 104.637C764.128 104.07 764.073 103.553 763.938 103.088C763.802 102.614 763.59 102.208 763.303 101.869C763.023 101.531 762.672 101.268 762.249 101.082C761.826 100.887 761.335 100.79 760.776 100.79C760.294 100.79 759.854 100.883 759.456 101.069C759.058 101.256 758.715 101.518 758.428 101.856C758.14 102.195 757.907 102.601 757.729 103.075C757.552 103.549 757.442 104.07 757.399 104.637H764.103ZM770.45 99.2539H772.469L772.532 101.603C773.285 100.697 774.026 100.041 774.754 99.6348C775.49 99.2285 776.231 99.0254 776.976 99.0254C778.296 99.0254 779.295 99.4528 779.972 100.308C780.657 101.162 780.975 102.432 780.924 104.116H778.689C778.715 102.999 778.55 102.191 778.194 101.691C777.847 101.184 777.335 100.93 776.658 100.93C776.362 100.93 776.062 100.985 775.757 101.095C775.461 101.196 775.152 101.366 774.83 101.603C774.517 101.831 774.183 102.127 773.827 102.491C773.472 102.855 773.091 103.295 772.685 103.812V112H770.45V99.2539ZM794.99 104.954C794.99 105.267 794.986 105.53 794.978 105.741C794.969 105.953 794.956 106.152 794.939 106.338H785.989C785.989 107.641 786.353 108.644 787.081 109.347C787.809 110.041 788.858 110.388 790.229 110.388C790.602 110.388 790.974 110.375 791.347 110.35C791.719 110.316 792.079 110.273 792.426 110.223C792.773 110.172 793.103 110.117 793.416 110.058C793.738 109.99 794.034 109.918 794.305 109.842V111.657C793.704 111.826 793.022 111.962 792.261 112.063C791.507 112.174 790.725 112.229 789.912 112.229C788.82 112.229 787.881 112.08 787.094 111.784C786.307 111.488 785.659 111.061 785.151 110.502C784.652 109.935 784.28 109.245 784.034 108.433C783.797 107.612 783.679 106.685 783.679 105.652C783.679 104.755 783.806 103.909 784.06 103.113C784.322 102.309 784.699 101.607 785.189 101.006C785.689 100.396 786.298 99.9141 787.018 99.5586C787.737 99.2031 788.554 99.0254 789.468 99.0254C790.356 99.0254 791.144 99.165 791.829 99.4443C792.515 99.7236 793.09 100.121 793.556 100.638C794.03 101.146 794.385 101.768 794.622 102.504C794.868 103.232 794.99 104.049 794.99 104.954ZM792.692 104.637C792.718 104.07 792.663 103.553 792.527 103.088C792.392 102.614 792.18 102.208 791.893 101.869C791.613 101.531 791.262 101.268 790.839 101.082C790.416 100.887 789.925 100.79 789.366 100.79C788.884 100.79 788.444 100.883 788.046 101.069C787.648 101.256 787.305 101.518 787.018 101.856C786.73 102.195 786.497 102.601 786.319 103.075C786.142 103.549 786.032 104.07 785.989 104.637H792.692ZM823.085 111.822C822.586 111.949 822.069 112.038 821.536 112.089C821.003 112.148 820.461 112.178 819.911 112.178C818.312 112.178 817.118 111.818 816.331 111.099C815.544 110.371 815.15 109.258 815.15 107.76V101.107H811.583V99.2539H815.15V95.75L817.359 95.1787V99.2539H823.085V101.107H817.359V107.582C817.359 108.496 817.601 109.182 818.083 109.639C818.574 110.087 819.293 110.312 820.241 110.312C820.647 110.312 821.092 110.282 821.574 110.223C822.057 110.155 822.56 110.053 823.085 109.918V111.822ZM838.205 105.525C838.205 106.516 838.065 107.425 837.786 108.255C837.507 109.076 837.105 109.783 836.58 110.375C836.055 110.959 835.416 111.416 834.663 111.746C833.91 112.068 833.055 112.229 832.099 112.229C831.185 112.229 830.364 112.089 829.636 111.81C828.916 111.522 828.303 111.103 827.795 110.553C827.296 110.003 826.91 109.321 826.64 108.509C826.377 107.696 826.246 106.761 826.246 105.703C826.246 104.713 826.386 103.812 826.665 102.999C826.944 102.178 827.346 101.476 827.871 100.892C828.396 100.299 829.035 99.8421 829.788 99.5205C830.541 99.1904 831.396 99.0254 832.353 99.0254C833.267 99.0254 834.083 99.1693 834.803 99.457C835.531 99.7363 836.144 100.151 836.644 100.701C837.151 101.243 837.536 101.92 837.799 102.732C838.07 103.545 838.205 104.476 838.205 105.525ZM835.945 105.627C835.945 104.84 835.856 104.154 835.679 103.57C835.509 102.978 835.264 102.487 834.942 102.098C834.621 101.7 834.227 101.404 833.762 101.209C833.305 101.006 832.793 100.904 832.226 100.904C831.565 100.904 830.998 101.035 830.524 101.298C830.059 101.552 829.674 101.895 829.369 102.326C829.073 102.758 828.853 103.261 828.709 103.837C828.574 104.404 828.506 105.001 828.506 105.627C828.506 106.414 828.59 107.104 828.76 107.696C828.938 108.289 829.187 108.784 829.509 109.182C829.83 109.571 830.22 109.867 830.677 110.07C831.134 110.265 831.65 110.362 832.226 110.362C832.886 110.362 833.449 110.235 833.914 109.981C834.388 109.719 834.773 109.372 835.069 108.94C835.374 108.509 835.594 108.009 835.729 107.442C835.873 106.867 835.945 106.262 835.945 105.627ZM494.302 145.822C493.802 145.949 493.286 146.038 492.753 146.089C492.22 146.148 491.678 146.178 491.128 146.178C489.528 146.178 488.335 145.818 487.548 145.099C486.761 144.371 486.367 143.258 486.367 141.76V135.107H482.8V133.254H486.367V129.75L488.576 129.179V133.254H494.302V135.107H488.576V141.582C488.576 142.496 488.817 143.182 489.3 143.639C489.791 144.087 490.51 144.312 491.458 144.312C491.864 144.312 492.309 144.282 492.791 144.223C493.273 144.155 493.777 144.053 494.302 143.918V145.822ZM508.571 146H506.362V137.862C506.362 136.881 506.176 136.148 505.804 135.666C505.44 135.175 504.915 134.93 504.229 134.93C503.933 134.93 503.654 134.972 503.392 135.057C503.138 135.133 502.871 135.272 502.592 135.476C502.312 135.67 502.008 135.937 501.678 136.275C501.348 136.614 500.967 137.037 500.535 137.545V146H498.326V128.062H500.535V133.254L500.459 135.26C500.806 134.845 501.145 134.498 501.475 134.219C501.813 133.931 502.147 133.698 502.478 133.521C502.816 133.343 503.159 133.216 503.506 133.14C503.853 133.063 504.213 133.025 504.585 133.025C505.854 133.025 506.836 133.415 507.53 134.193C508.224 134.964 508.571 136.127 508.571 137.685V146ZM523.387 138.954C523.387 139.267 523.382 139.53 523.374 139.741C523.366 139.953 523.353 140.152 523.336 140.338H514.386C514.386 141.641 514.75 142.644 515.478 143.347C516.205 144.041 517.255 144.388 518.626 144.388C518.998 144.388 519.371 144.375 519.743 144.35C520.116 144.316 520.475 144.273 520.822 144.223C521.169 144.172 521.499 144.117 521.812 144.058C522.134 143.99 522.43 143.918 522.701 143.842V145.657C522.1 145.826 521.419 145.962 520.657 146.063C519.904 146.174 519.121 146.229 518.309 146.229C517.217 146.229 516.277 146.08 515.49 145.784C514.703 145.488 514.056 145.061 513.548 144.502C513.049 143.935 512.676 143.245 512.431 142.433C512.194 141.612 512.075 140.685 512.075 139.652C512.075 138.755 512.202 137.909 512.456 137.113C512.718 136.309 513.095 135.607 513.586 135.006C514.085 134.396 514.695 133.914 515.414 133.559C516.133 133.203 516.95 133.025 517.864 133.025C518.753 133.025 519.54 133.165 520.226 133.444C520.911 133.724 521.487 134.121 521.952 134.638C522.426 135.146 522.782 135.768 523.019 136.504C523.264 137.232 523.387 138.049 523.387 138.954ZM521.089 138.637C521.114 138.07 521.059 137.553 520.924 137.088C520.788 136.614 520.577 136.208 520.289 135.869C520.01 135.531 519.659 135.268 519.235 135.082C518.812 134.887 518.321 134.79 517.763 134.79C517.28 134.79 516.84 134.883 516.442 135.069C516.045 135.256 515.702 135.518 515.414 135.856C515.126 136.195 514.894 136.601 514.716 137.075C514.538 137.549 514.428 138.07 514.386 138.637H521.089ZM541.731 133.254H543.75L543.813 135.603C544.567 134.697 545.307 134.041 546.035 133.635C546.771 133.229 547.512 133.025 548.257 133.025C549.577 133.025 550.576 133.453 551.253 134.308C551.938 135.162 552.256 136.432 552.205 138.116H549.971C549.996 136.999 549.831 136.191 549.476 135.691C549.129 135.184 548.617 134.93 547.939 134.93C547.643 134.93 547.343 134.985 547.038 135.095C546.742 135.196 546.433 135.366 546.111 135.603C545.798 135.831 545.464 136.127 545.108 136.491C544.753 136.855 544.372 137.295 543.966 137.812V146H541.731V133.254ZM559.848 135.082H556.077V133.254H562.082V144.159H565.878V146H555.658V144.159H559.848V135.082ZM560.622 127.909C560.868 127.909 561.096 127.956 561.308 128.049C561.519 128.133 561.701 128.256 561.854 128.417C562.014 128.578 562.137 128.764 562.222 128.976C562.315 129.179 562.361 129.403 562.361 129.648C562.361 129.885 562.315 130.11 562.222 130.321C562.137 130.533 562.014 130.719 561.854 130.88C561.701 131.041 561.519 131.168 561.308 131.261C561.096 131.345 560.868 131.388 560.622 131.388C560.377 131.388 560.148 131.345 559.937 131.261C559.725 131.168 559.539 131.041 559.378 130.88C559.226 130.719 559.103 130.533 559.01 130.321C558.925 130.11 558.883 129.885 558.883 129.648C558.883 129.403 558.925 129.179 559.01 128.976C559.103 128.764 559.226 128.578 559.378 128.417C559.539 128.256 559.725 128.133 559.937 128.049C560.148 127.956 560.377 127.909 560.622 127.909ZM578.979 135.057C579.216 135.353 579.398 135.7 579.525 136.098C579.661 136.487 579.729 136.91 579.729 137.367C579.729 138.027 579.606 138.632 579.36 139.183C579.123 139.724 578.785 140.19 578.345 140.579C577.905 140.968 577.376 141.273 576.758 141.493C576.148 141.705 575.476 141.811 574.739 141.811C574.206 141.811 573.707 141.756 573.241 141.646C572.776 141.527 572.408 141.383 572.137 141.214C571.976 141.451 571.84 141.675 571.73 141.887C571.62 142.098 571.565 142.335 571.565 142.598C571.565 142.919 571.718 143.186 572.022 143.397C572.336 143.609 572.746 143.723 573.254 143.74L576.605 143.867C577.24 143.884 577.824 143.965 578.357 144.108C578.899 144.252 579.36 144.46 579.741 144.73C580.131 145.001 580.431 145.336 580.643 145.733C580.863 146.131 580.973 146.592 580.973 147.117C580.973 147.684 580.85 148.222 580.604 148.729C580.359 149.237 579.978 149.682 579.462 150.062C578.954 150.452 578.307 150.761 577.52 150.989C576.732 151.218 575.797 151.332 574.714 151.332C573.681 151.332 572.801 151.247 572.073 151.078C571.354 150.917 570.761 150.689 570.296 150.393C569.83 150.105 569.492 149.758 569.28 149.352C569.069 148.954 568.963 148.514 568.963 148.031C568.963 147.413 569.107 146.872 569.395 146.406C569.682 145.941 570.127 145.492 570.728 145.061C570.507 144.959 570.317 144.832 570.156 144.68C569.995 144.527 569.864 144.362 569.763 144.185C569.661 143.998 569.585 143.804 569.534 143.601C569.483 143.397 569.458 143.199 569.458 143.004C569.458 142.454 569.585 141.95 569.839 141.493C570.101 141.036 570.41 140.604 570.766 140.198C570.605 140.004 570.461 139.813 570.334 139.627C570.215 139.441 570.11 139.242 570.017 139.03C569.932 138.81 569.864 138.577 569.813 138.332C569.771 138.078 569.75 137.79 569.75 137.469C569.75 136.809 569.868 136.208 570.105 135.666C570.351 135.116 570.689 134.646 571.121 134.257C571.561 133.868 572.086 133.567 572.695 133.355C573.313 133.135 573.994 133.025 574.739 133.025C575.052 133.025 575.353 133.047 575.641 133.089C575.928 133.131 576.182 133.186 576.402 133.254H581.023V135.057H578.979ZM571.312 147.841C571.312 148.442 571.625 148.878 572.251 149.148C572.877 149.428 573.749 149.567 574.866 149.567C575.569 149.567 576.157 149.504 576.631 149.377C577.113 149.25 577.498 149.081 577.786 148.869C578.082 148.666 578.294 148.429 578.421 148.158C578.548 147.896 578.611 147.625 578.611 147.346C578.611 146.829 578.4 146.449 577.977 146.203C577.553 145.958 576.906 145.814 576.034 145.771L572.708 145.657C572.429 145.843 572.196 146.025 572.01 146.203C571.832 146.381 571.692 146.559 571.591 146.736C571.489 146.923 571.417 147.104 571.375 147.282C571.333 147.468 571.312 147.655 571.312 147.841ZM571.984 137.418C571.984 137.824 572.052 138.197 572.188 138.535C572.323 138.874 572.513 139.161 572.759 139.398C573.004 139.635 573.292 139.822 573.622 139.957C573.961 140.084 574.333 140.147 574.739 140.147C575.179 140.147 575.569 140.076 575.907 139.932C576.254 139.779 576.542 139.576 576.771 139.322C577.007 139.068 577.185 138.776 577.304 138.446C577.431 138.116 577.494 137.773 577.494 137.418C577.494 137.012 577.426 136.639 577.291 136.301C577.156 135.962 576.965 135.674 576.72 135.438C576.474 135.201 576.182 135.019 575.844 134.892C575.514 134.756 575.146 134.688 574.739 134.688C574.299 134.688 573.906 134.765 573.559 134.917C573.22 135.069 572.932 135.272 572.695 135.526C572.467 135.772 572.289 136.06 572.162 136.39C572.044 136.72 571.984 137.062 571.984 137.418ZM594.341 146H592.132V137.862C592.132 136.881 591.946 136.148 591.573 135.666C591.209 135.175 590.685 134.93 589.999 134.93C589.703 134.93 589.424 134.972 589.161 135.057C588.907 135.133 588.641 135.272 588.361 135.476C588.082 135.67 587.777 135.937 587.447 136.275C587.117 136.614 586.736 137.037 586.305 137.545V146H584.096V128.062H586.305V133.254L586.229 135.26C586.576 134.845 586.914 134.498 587.244 134.219C587.583 133.931 587.917 133.698 588.247 133.521C588.586 133.343 588.928 133.216 589.275 133.14C589.622 133.063 589.982 133.025 590.354 133.025C591.624 133.025 592.606 133.415 593.3 134.193C593.994 134.964 594.341 136.127 594.341 137.685V146ZM608.661 145.822C608.162 145.949 607.646 146.038 607.112 146.089C606.579 146.148 606.037 146.178 605.487 146.178C603.888 146.178 602.694 145.818 601.907 145.099C601.12 144.371 600.727 143.258 600.727 141.76V135.107H597.159V133.254H600.727V129.75L602.936 129.179V133.254H608.661V135.107H602.936V141.582C602.936 142.496 603.177 143.182 603.659 143.639C604.15 144.087 604.869 144.312 605.817 144.312C606.224 144.312 606.668 144.282 607.15 144.223C607.633 144.155 608.136 144.053 608.661 143.918V145.822ZM638.076 139.525C638.076 140.516 637.937 141.425 637.657 142.255C637.378 143.076 636.976 143.783 636.451 144.375C635.926 144.959 635.287 145.416 634.534 145.746C633.781 146.068 632.926 146.229 631.97 146.229C631.056 146.229 630.235 146.089 629.507 145.81C628.787 145.522 628.174 145.103 627.666 144.553C627.167 144.003 626.782 143.321 626.511 142.509C626.248 141.696 626.117 140.761 626.117 139.703C626.117 138.713 626.257 137.812 626.536 136.999C626.815 136.178 627.217 135.476 627.742 134.892C628.267 134.299 628.906 133.842 629.659 133.521C630.412 133.19 631.267 133.025 632.224 133.025C633.138 133.025 633.954 133.169 634.674 133.457C635.402 133.736 636.015 134.151 636.515 134.701C637.022 135.243 637.408 135.92 637.67 136.732C637.941 137.545 638.076 138.476 638.076 139.525ZM635.816 139.627C635.816 138.84 635.728 138.154 635.55 137.57C635.381 136.978 635.135 136.487 634.813 136.098C634.492 135.7 634.098 135.404 633.633 135.209C633.176 135.006 632.664 134.904 632.097 134.904C631.437 134.904 630.869 135.035 630.396 135.298C629.93 135.552 629.545 135.895 629.24 136.326C628.944 136.758 628.724 137.261 628.58 137.837C628.445 138.404 628.377 139.001 628.377 139.627C628.377 140.414 628.462 141.104 628.631 141.696C628.809 142.289 629.058 142.784 629.38 143.182C629.701 143.571 630.091 143.867 630.548 144.07C631.005 144.265 631.521 144.362 632.097 144.362C632.757 144.362 633.32 144.235 633.785 143.981C634.259 143.719 634.644 143.372 634.94 142.94C635.245 142.509 635.465 142.009 635.601 141.442C635.744 140.867 635.816 140.262 635.816 139.627ZM652.587 130.118C651.427 129.873 650.429 129.75 649.591 129.75C647.602 129.75 646.607 130.791 646.607 132.873V135.107H652.193V136.948H646.607V146H644.36V136.948H640.26V135.107H644.36V133C644.36 129.606 646.129 127.909 649.667 127.909C650.547 127.909 651.521 128.011 652.587 128.214V130.118ZM674.207 135.082H670.437V133.254H676.441V144.159H680.237V146H670.018V144.159H674.207V135.082ZM674.981 127.909C675.227 127.909 675.455 127.956 675.667 128.049C675.879 128.133 676.061 128.256 676.213 128.417C676.374 128.578 676.496 128.764 676.581 128.976C676.674 129.179 676.721 129.403 676.721 129.648C676.721 129.885 676.674 130.11 676.581 130.321C676.496 130.533 676.374 130.719 676.213 130.88C676.061 131.041 675.879 131.168 675.667 131.261C675.455 131.345 675.227 131.388 674.981 131.388C674.736 131.388 674.507 131.345 674.296 131.261C674.084 131.168 673.898 131.041 673.737 130.88C673.585 130.719 673.462 130.533 673.369 130.321C673.285 130.11 673.242 129.885 673.242 129.648C673.242 129.403 673.285 129.179 673.369 128.976C673.462 128.764 673.585 128.578 673.737 128.417C673.898 128.256 674.084 128.133 674.296 128.049C674.507 127.956 674.736 127.909 674.981 127.909Z" fill="black"/>
<path d="M462.707 106.707C463.098 106.317 463.098 105.683 462.707 105.293L456.343 98.9289C455.953 98.5384 455.319 98.5384 454.929 98.9289C454.538 99.3195 454.538 99.9526 454.929 100.343L460.586 106L454.929 111.657C454.538 112.047 454.538 112.681 454.929 113.071C455.319 113.462 455.953 113.462 456.343 113.071L462.707 106.707ZM462 105H421V107H462V105Z" fill="black"/>
<circle cx="10" cy="135.5" r="5.5" fill="#FF5500"/>
<circle cx="95.5" cy="66.5" r="5.5" fill="black"/>
</g>
<defs>
<clipPath id="clip0_3230_5645">
<rect width="839" height="152" fill="white"/>
</clipPath>
</defs>
</svg>
