<svg width="839" height="194" viewBox="0 0 839 194" fill="none" xmlns="http://www.w3.org/2000/svg">
<g clip-path="url(#clip0_6291_1882)">
<rect width="839" height="194" fill="white"/>
<path d="M446.242 106.713C446.4 107.243 446.099 107.8 445.57 107.958L436.948 110.537C436.418 110.696 435.861 110.395 435.703 109.866C435.545 109.337 435.845 108.78 436.374 108.621L444.039 106.329L441.746 98.6641C441.588 98.135 441.888 97.5778 442.417 97.4195C442.947 97.2612 443.504 97.5618 443.662 98.0909L446.242 106.713ZM369.758 65.1199L445.758 106.12L444.809 107.88L368.809 66.8801L369.758 65.1199Z" fill="black"/>
<path d="M446.259 122.222C446.381 121.683 446.044 121.147 445.505 121.025L436.729 119.029C436.191 118.907 435.655 119.244 435.532 119.783C435.41 120.321 435.747 120.857 436.286 120.979L444.087 122.753L442.313 130.554C442.19 131.093 442.528 131.629 443.066 131.751C443.605 131.874 444.141 131.536 444.263 130.998L446.259 122.222ZM373.533 168.346L445.816 122.846L444.751 121.154L372.467 166.654L373.533 168.346Z" fill="black"/>
<circle cx="25" cy="25" r="23.75" transform="matrix(-0.0256695 0.999671 0.999671 0.0256695 228.283 40)" fill="white" stroke="black" stroke-width="2.5"/>
<path d="M259.741 64.4346C259.741 65.8994 259.595 67.2373 259.302 68.4482C259.009 69.6494 258.565 70.6846 257.969 71.5537C257.373 72.4131 256.631 73.082 255.742 73.5605C254.864 74.0293 253.828 74.2637 252.637 74.2637C251.612 74.2637 250.679 74.0732 249.839 73.6924C248.999 73.3018 248.281 72.7061 247.686 71.9053C247.09 71.1045 246.631 70.084 246.309 68.8438C245.987 67.6035 245.825 66.1338 245.825 64.4346C245.825 62.9697 245.972 61.6318 246.265 60.4209C246.568 59.21 247.012 58.1748 247.598 57.3154C248.194 56.4463 248.936 55.7773 249.824 55.3086C250.713 54.8301 251.748 54.5908 252.93 54.5908C253.955 54.5908 254.888 54.7861 255.728 55.1768C256.568 55.5576 257.285 56.1533 257.881 56.9639C258.477 57.7646 258.936 58.7852 259.258 60.0254C259.58 61.2656 259.741 62.7354 259.741 64.4346ZM257.163 64.5225C257.163 64.1904 257.149 63.8633 257.119 63.541C257.1 63.209 257.075 62.8867 257.046 62.5742L248.946 68.5947C249.092 69.1025 249.278 69.5713 249.502 70.001C249.727 70.4307 249.995 70.8018 250.308 71.1143C250.63 71.417 250.991 71.6562 251.392 71.832C251.802 71.998 252.266 72.0811 252.783 72.0811C253.448 72.0811 254.048 71.9199 254.585 71.5977C255.132 71.2754 255.596 70.7969 255.977 70.1621C256.358 69.5273 256.651 68.7412 256.856 67.8037C257.061 66.8564 257.163 65.7627 257.163 64.5225ZM248.404 64.3467C248.404 64.6494 248.404 64.9521 248.404 65.2549C248.413 65.5576 248.433 65.8506 248.462 66.1338L256.563 60.1426C256.416 59.6445 256.231 59.1904 256.006 58.7803C255.781 58.3701 255.513 58.0186 255.2 57.7256C254.888 57.4229 254.531 57.1885 254.131 57.0225C253.731 56.8564 253.281 56.7734 252.783 56.7734C252.119 56.7734 251.514 56.9346 250.967 57.2568C250.43 57.5791 249.971 58.0625 249.59 58.707C249.209 59.3418 248.916 60.1328 248.711 61.0801C248.506 62.0176 248.404 63.1064 248.404 64.3467Z" fill="black"/>
<circle cx="25" cy="25" r="23.75" transform="matrix(-0.0256695 0.999671 0.999671 0.0256695 228.283 143)" fill="white" stroke="black" stroke-width="2.5"/>
<path d="M258.936 171.185C258.936 172.024 258.765 172.815 258.423 173.558C258.081 174.29 257.569 174.935 256.885 175.491C256.201 176.038 255.342 176.473 254.307 176.795C253.272 177.107 252.066 177.264 250.689 177.264C249.927 177.264 249.243 177.239 248.638 177.19C248.032 177.142 247.466 177.078 246.939 177V174.715C247.544 174.822 248.184 174.905 248.858 174.964C249.531 175.022 250.22 175.052 250.923 175.052C251.88 175.052 252.696 174.969 253.369 174.803C254.053 174.627 254.61 174.378 255.039 174.056C255.469 173.733 255.781 173.343 255.977 172.884C256.172 172.425 256.27 171.907 256.27 171.331C256.27 170.804 256.153 170.345 255.918 169.954C255.684 169.563 255.352 169.236 254.922 168.973C254.502 168.709 253.994 168.514 253.399 168.387C252.813 168.25 252.168 168.182 251.465 168.182H249.282V166.087H251.494C252.071 166.087 252.593 166.014 253.062 165.867C253.54 165.711 253.946 165.491 254.278 165.208C254.619 164.925 254.878 164.578 255.054 164.168C255.24 163.748 255.332 163.274 255.332 162.747C255.332 161.722 255.02 160.975 254.395 160.506C253.77 160.037 252.852 159.803 251.641 159.803C250.996 159.803 250.332 159.866 249.649 159.993C248.965 160.12 248.233 160.311 247.451 160.564V158.338C247.783 158.221 248.135 158.118 248.506 158.03C248.887 157.933 249.263 157.854 249.634 157.796C250.015 157.728 250.391 157.679 250.762 157.649C251.133 157.61 251.49 157.591 251.831 157.591C252.847 157.591 253.74 157.703 254.512 157.928C255.283 158.143 255.928 158.455 256.446 158.865C256.963 159.275 257.354 159.773 257.617 160.359C257.881 160.945 258.013 161.604 258.013 162.337C258.013 163.431 257.73 164.349 257.163 165.091C256.607 165.833 255.84 166.424 254.864 166.863C255.362 166.941 255.85 167.098 256.328 167.332C256.817 167.566 257.251 167.869 257.632 168.24C258.023 168.602 258.335 169.031 258.57 169.529C258.814 170.027 258.936 170.579 258.936 171.185Z" fill="black"/>
<circle cx="25" cy="25" r="23.75" transform="matrix(-0.0256695 0.999671 0.999671 0.0256695 344.567 40)" fill="white" stroke="black" stroke-width="2.5"/>
<path d="M375.424 74H363.398V71.627H368.32V57.6523L363.735 60.1426L362.797 57.9746L368.891 54.7666H371.147V71.627H375.424V74Z" fill="black"/>
<circle cx="25" cy="25" r="23.75" transform="matrix(-0.0256695 0.999671 0.999671 0.0256695 345.567 143)" fill="white" stroke="black" stroke-width="2.5"/>
<path d="M376.585 177H363.973V174.715L368.924 169.793C369.735 168.992 370.394 168.299 370.902 167.713C371.41 167.127 371.805 166.595 372.088 166.116C372.372 165.628 372.562 165.169 372.66 164.739C372.757 164.31 372.806 163.846 372.806 163.348C372.806 162.879 372.743 162.435 372.616 162.015C372.489 161.585 372.293 161.209 372.03 160.887C371.766 160.564 371.424 160.311 371.004 160.125C370.584 159.939 370.082 159.847 369.496 159.847C368.685 159.847 367.948 160.027 367.284 160.389C366.62 160.75 366.009 161.219 365.453 161.795L364.046 160.11C364.769 159.349 365.599 158.738 366.537 158.279C367.484 157.82 368.583 157.591 369.833 157.591C370.682 157.591 371.454 157.718 372.147 157.972C372.85 158.226 373.456 158.592 373.963 159.07C374.471 159.549 374.862 160.135 375.135 160.828C375.418 161.521 375.56 162.303 375.56 163.172C375.56 163.904 375.462 164.583 375.267 165.208C375.072 165.833 374.774 166.458 374.374 167.083C373.983 167.698 373.485 168.338 372.879 169.002C372.284 169.666 371.576 170.394 370.755 171.185L367.284 174.568H376.585V177Z" fill="black"/>
<circle cx="25" cy="25" r="23.75" transform="matrix(-0.0256695 0.999671 0.999671 0.0256695 449.283 91)" fill="white" stroke="black" stroke-width="2.5"/>
<path d="M481.254 120.767H477.988V125H475.38V120.767H466.166V118.525L474.325 105.854H477.988V118.525H481.254V120.767ZM475.38 108.315L468.715 118.525H475.38V108.315Z" fill="black"/>
<path d="M11.4238 11.3984C11.4238 12.5326 11.263 13.5228 10.9414 14.3691C10.6283 15.2155 10.1924 15.918 9.63379 16.4766C9.0752 17.0352 8.41504 17.4541 7.65332 17.7334C6.8916 18.0127 6.06641 18.1523 5.17773 18.1523C4.77148 18.1523 4.36523 18.1312 3.95898 18.0889C3.5612 18.0465 3.15495 17.9746 2.74023 17.873V23.2051H0.53125V5.25391H2.49902L2.63867 7.38672C3.27344 6.51497 3.95052 5.9056 4.66992 5.55859C5.38932 5.20312 6.16797 5.02539 7.00586 5.02539C7.73372 5.02539 8.37272 5.17773 8.92285 5.48242C9.47298 5.78711 9.93424 6.21875 10.3066 6.77734C10.679 7.32747 10.9583 7.99609 11.1445 8.7832C11.3307 9.56185 11.4238 10.4336 11.4238 11.3984ZM9.16406 11.5C9.16406 10.8314 9.11328 10.2178 9.01172 9.65918C8.91862 9.10059 8.76628 8.6224 8.55469 8.22461C8.3431 7.82682 8.07227 7.5179 7.74219 7.29785C7.41211 7.06934 7.01855 6.95508 6.56152 6.95508C6.28223 6.95508 5.9987 7.00163 5.71094 7.09473C5.42318 7.17936 5.12272 7.32747 4.80957 7.53906C4.50488 7.74219 4.17904 8.01725 3.83203 8.36426C3.49349 8.7028 3.12956 9.12598 2.74023 9.63379V15.8164C3.14648 15.9857 3.57389 16.1211 4.02246 16.2227C4.47103 16.3158 4.91113 16.3623 5.34277 16.3623C6.53613 16.3623 7.47135 15.9603 8.14844 15.1562C8.82552 14.3438 9.16406 13.125 9.16406 11.5ZM15.3467 5.25391H17.3652L17.4287 7.60254C18.182 6.69694 18.9225 6.04102 19.6504 5.63477C20.3867 5.22852 21.1273 5.02539 21.8721 5.02539C23.1924 5.02539 24.1911 5.4528 24.8682 6.30762C25.5537 7.16243 25.8711 8.43197 25.8203 10.1162H23.5859C23.6113 8.99902 23.4463 8.19076 23.0908 7.69141C22.7438 7.18359 22.2318 6.92969 21.5547 6.92969C21.2585 6.92969 20.958 6.9847 20.6533 7.09473C20.3571 7.19629 20.0482 7.36556 19.7266 7.60254C19.4134 7.83105 19.0791 8.12728 18.7236 8.49121C18.3682 8.85514 17.9873 9.29525 17.5811 9.81152V18H15.3467V5.25391ZM39.8867 10.9541C39.8867 11.2673 39.8825 11.5296 39.874 11.7412C39.8656 11.9528 39.8529 12.1517 39.8359 12.3379H30.8857C30.8857 13.6413 31.2497 14.6442 31.9775 15.3467C32.7054 16.0407 33.7549 16.3877 35.126 16.3877C35.4984 16.3877 35.8708 16.375 36.2432 16.3496C36.6156 16.3158 36.9753 16.2734 37.3223 16.2227C37.6693 16.1719 37.9993 16.1169 38.3125 16.0576C38.6341 15.9899 38.9303 15.918 39.2012 15.8418V17.6572C38.6003 17.8265 37.9189 17.9619 37.1572 18.0635C36.404 18.1735 35.6211 18.2285 34.8086 18.2285C33.7168 18.2285 32.7773 18.0804 31.9902 17.7842C31.2031 17.488 30.5557 17.0605 30.0479 16.502C29.5485 15.9349 29.1761 15.2451 28.9307 14.4326C28.6937 13.6117 28.5752 12.6849 28.5752 11.6523C28.5752 10.7552 28.7021 9.90885 28.9561 9.11328C29.2184 8.30924 29.5951 7.60677 30.0859 7.00586C30.5853 6.39648 31.1947 5.91406 31.9141 5.55859C32.6335 5.20312 33.4502 5.02539 34.3643 5.02539C35.2529 5.02539 36.04 5.16504 36.7256 5.44434C37.4111 5.72363 37.9867 6.12142 38.4521 6.6377C38.9261 7.14551 39.2816 7.76758 39.5186 8.50391C39.764 9.23177 39.8867 10.0485 39.8867 10.9541ZM37.5889 10.6367C37.6143 10.0697 37.5592 9.55339 37.4238 9.08789C37.2884 8.61393 37.0768 8.20768 36.7891 7.86914C36.5098 7.5306 36.1585 7.26823 35.7354 7.08203C35.3122 6.88737 34.8213 6.79004 34.2627 6.79004C33.7803 6.79004 33.3402 6.88314 32.9424 7.06934C32.5446 7.25553 32.2018 7.5179 31.9141 7.85645C31.6263 8.19499 31.3936 8.60124 31.2158 9.0752C31.0381 9.54915 30.9281 10.0697 30.8857 10.6367H37.5889ZM43.9365 5.25391H45.9551L46.0186 7.60254C46.7718 6.69694 47.5124 6.04102 48.2402 5.63477C48.9766 5.22852 49.7171 5.02539 50.4619 5.02539C51.7822 5.02539 52.7809 5.4528 53.458 6.30762C54.1436 7.16243 54.4609 8.43197 54.4102 10.1162H52.1758C52.2012 8.99902 52.0361 8.19076 51.6807 7.69141C51.3337 7.18359 50.8216 6.92969 50.1445 6.92969C49.8483 6.92969 49.5479 6.9847 49.2432 7.09473C48.9469 7.19629 48.638 7.36556 48.3164 7.60254C48.0033 7.83105 47.6689 8.12728 47.3135 8.49121C46.958 8.85514 46.5771 9.29525 46.1709 9.81152V18H43.9365V5.25391ZM68.4766 10.9541C68.4766 11.2673 68.4723 11.5296 68.4639 11.7412C68.4554 11.9528 68.4427 12.1517 68.4258 12.3379H59.4756C59.4756 13.6413 59.8395 14.6442 60.5674 15.3467C61.2952 16.0407 62.3447 16.3877 63.7158 16.3877C64.0882 16.3877 64.4606 16.375 64.833 16.3496C65.2054 16.3158 65.5651 16.2734 65.9121 16.2227C66.2591 16.1719 66.5892 16.1169 66.9023 16.0576C67.224 15.9899 67.5202 15.918 67.791 15.8418V17.6572C67.1901 17.8265 66.5088 17.9619 65.7471 18.0635C64.9938 18.1735 64.2109 18.2285 63.3984 18.2285C62.3066 18.2285 61.3672 18.0804 60.5801 17.7842C59.793 17.488 59.1455 17.0605 58.6377 16.502C58.1383 15.9349 57.766 15.2451 57.5205 14.4326C57.2835 13.6117 57.165 12.6849 57.165 11.6523C57.165 10.7552 57.292 9.90885 57.5459 9.11328C57.8083 8.30924 58.1849 7.60677 58.6758 7.00586C59.1751 6.39648 59.7845 5.91406 60.5039 5.55859C61.2233 5.20312 62.04 5.02539 62.9541 5.02539C63.8428 5.02539 64.6299 5.16504 65.3154 5.44434C66.001 5.72363 66.5765 6.12142 67.042 6.6377C67.516 7.14551 67.8714 7.76758 68.1084 8.50391C68.3538 9.23177 68.4766 10.0485 68.4766 10.9541ZM66.1787 10.6367C66.2041 10.0697 66.1491 9.55339 66.0137 9.08789C65.8783 8.61393 65.6667 8.20768 65.3789 7.86914C65.0996 7.5306 64.7484 7.26823 64.3252 7.08203C63.902 6.88737 63.4111 6.79004 62.8525 6.79004C62.3701 6.79004 61.93 6.88314 61.5322 7.06934C61.1344 7.25553 60.7917 7.5179 60.5039 7.85645C60.2161 8.19499 59.9834 8.60124 59.8057 9.0752C59.6279 9.54915 59.5179 10.0697 59.4756 10.6367H66.1787ZM71.3584 11.8936C71.3584 10.9795 71.4769 10.112 71.7139 9.29102C71.9593 8.47005 72.3317 7.75065 72.8311 7.13281C73.3389 6.50651 73.9863 6.01139 74.7734 5.64746C75.5605 5.28353 76.5 5.10156 77.5918 5.10156C78.0234 5.10156 78.4508 5.13542 78.874 5.20312C79.2972 5.27083 79.7458 5.37663 80.2197 5.52051L82.1748 5.02539V23.2051H79.9531V18.3936L80.0674 15.6641C78.8656 17.3737 77.4352 18.2285 75.7764 18.2285C75.0316 18.2285 74.3841 18.0762 73.834 17.7715C73.2839 17.4668 72.8226 17.0352 72.4502 16.4766C72.0863 15.918 71.8112 15.2493 71.625 14.4707C71.4473 13.6921 71.3584 12.833 71.3584 11.8936ZM73.6182 11.7539C73.6182 12.4648 73.6689 13.1038 73.7705 13.6709C73.8805 14.238 74.0413 14.7204 74.2529 15.1182C74.473 15.5075 74.7438 15.8079 75.0654 16.0195C75.3955 16.2311 75.7806 16.3369 76.2207 16.3369C76.7793 16.3369 77.3675 16.0872 77.9854 15.5879C78.6117 15.0885 79.2676 14.348 79.9531 13.3662V7.4502C79.6146 7.28939 79.2295 7.1582 78.7979 7.05664C78.3747 6.95508 77.9219 6.9043 77.4395 6.9043C76.1953 6.9043 75.2474 7.31478 74.5957 8.13574C73.944 8.95671 73.6182 10.1628 73.6182 11.7539ZM96.5459 18H94.5654L94.4893 15.9434C94.1084 16.3835 93.7445 16.7516 93.3975 17.0479C93.0589 17.3356 92.7204 17.5684 92.3818 17.7461C92.0433 17.9238 91.7005 18.0465 91.3535 18.1143C91.015 18.1904 90.6553 18.2285 90.2744 18.2285C88.9626 18.2285 87.9723 17.8434 87.3037 17.0732C86.6351 16.3031 86.3008 15.1393 86.3008 13.582V5.25391H88.5098V13.4043C88.5098 15.3594 89.2461 16.3369 90.7188 16.3369C90.9896 16.3369 91.252 16.2988 91.5059 16.2227C91.7682 16.138 92.0391 15.9984 92.3184 15.8037C92.6061 15.6006 92.9108 15.3298 93.2324 14.9912C93.5625 14.6527 93.9307 14.2253 94.3369 13.709V5.25391H96.5459V18ZM104.938 7.08203H101.167V5.25391H107.172V16.1592H110.968V18H100.748V16.1592H104.938V7.08203ZM105.712 -0.0908203C105.957 -0.0908203 106.186 -0.0442708 106.397 0.0488281C106.609 0.133464 106.791 0.256185 106.943 0.416992C107.104 0.577799 107.227 0.763997 107.312 0.975586C107.405 1.17871 107.451 1.40299 107.451 1.64844C107.451 1.88542 107.405 2.1097 107.312 2.32129C107.227 2.53288 107.104 2.71908 106.943 2.87988C106.791 3.04069 106.609 3.16764 106.397 3.26074C106.186 3.34538 105.957 3.3877 105.712 3.3877C105.466 3.3877 105.238 3.34538 105.026 3.26074C104.815 3.16764 104.629 3.04069 104.468 2.87988C104.315 2.71908 104.193 2.53288 104.1 2.32129C104.015 2.1097 103.973 1.88542 103.973 1.64844C103.973 1.40299 104.015 1.17871 104.1 0.975586C104.193 0.763997 104.315 0.577799 104.468 0.416992C104.629 0.256185 104.815 0.133464 105.026 0.0488281C105.238 -0.0442708 105.466 -0.0908203 105.712 -0.0908203ZM124.983 14.5215C124.983 14.9701 124.907 15.3721 124.755 15.7275C124.603 16.083 124.395 16.4004 124.133 16.6797C123.87 16.9505 123.566 17.1833 123.219 17.3779C122.872 17.5726 122.499 17.7334 122.102 17.8604C121.712 17.9873 121.31 18.0804 120.896 18.1396C120.481 18.1989 120.075 18.2285 119.677 18.2285C118.813 18.2285 118.018 18.1904 117.29 18.1143C116.571 18.0381 115.864 17.9154 115.17 17.7461V15.7148C115.915 15.9264 116.655 16.0872 117.392 16.1973C118.128 16.3073 118.86 16.3623 119.588 16.3623C120.646 16.3623 121.429 16.2184 121.937 15.9307C122.444 15.6429 122.698 15.2324 122.698 14.6992C122.698 14.4707 122.656 14.2676 122.571 14.0898C122.495 13.9036 122.351 13.7301 122.14 13.5693C121.928 13.4001 121.598 13.2266 121.149 13.0488C120.709 12.8711 120.104 12.668 119.334 12.4395C118.758 12.2702 118.225 12.0798 117.734 11.8682C117.252 11.6481 116.833 11.39 116.478 11.0938C116.122 10.7975 115.843 10.4505 115.64 10.0527C115.437 9.65495 115.335 9.18522 115.335 8.64355C115.335 8.28809 115.415 7.89876 115.576 7.47559C115.745 7.05241 116.029 6.65885 116.427 6.29492C116.825 5.93099 117.362 5.63053 118.039 5.39355C118.716 5.14811 119.562 5.02539 120.578 5.02539C121.077 5.02539 121.632 5.05501 122.241 5.11426C122.851 5.16504 123.485 5.25814 124.146 5.39355V7.36133C123.451 7.19206 122.791 7.06934 122.165 6.99316C121.547 6.90853 121.01 6.86621 120.553 6.86621C120.003 6.86621 119.537 6.90853 119.156 6.99316C118.784 7.0778 118.479 7.19629 118.242 7.34863C118.014 7.49251 117.849 7.66602 117.747 7.86914C117.646 8.0638 117.595 8.27539 117.595 8.50391C117.595 8.73242 117.637 8.93978 117.722 9.12598C117.815 9.31217 117.98 9.49414 118.217 9.67188C118.462 9.84115 118.801 10.0146 119.232 10.1924C119.664 10.3617 120.227 10.5479 120.921 10.751C121.674 10.971 122.309 11.2038 122.825 11.4492C123.341 11.6862 123.76 11.9528 124.082 12.249C124.404 12.5452 124.632 12.8796 124.768 13.252C124.911 13.6243 124.983 14.0475 124.983 14.5215ZM133.527 7.08203H129.757V5.25391H135.762V16.1592H139.558V18H129.338V16.1592H133.527V7.08203ZM134.302 -0.0908203C134.547 -0.0908203 134.776 -0.0442708 134.987 0.0488281C135.199 0.133464 135.381 0.256185 135.533 0.416992C135.694 0.577799 135.817 0.763997 135.901 0.975586C135.994 1.17871 136.041 1.40299 136.041 1.64844C136.041 1.88542 135.994 2.1097 135.901 2.32129C135.817 2.53288 135.694 2.71908 135.533 2.87988C135.381 3.04069 135.199 3.16764 134.987 3.26074C134.776 3.34538 134.547 3.3877 134.302 3.3877C134.056 3.3877 133.828 3.34538 133.616 3.26074C133.405 3.16764 133.218 3.04069 133.058 2.87988C132.905 2.71908 132.783 2.53288 132.689 2.32129C132.605 2.1097 132.562 1.88542 132.562 1.64844C132.562 1.40299 132.605 1.17871 132.689 0.975586C132.783 0.763997 132.905 0.577799 133.058 0.416992C133.218 0.256185 133.405 0.133464 133.616 0.0488281C133.828 -0.0442708 134.056 -0.0908203 134.302 -0.0908203ZM153.751 17.8223C153.252 17.9492 152.735 18.0381 152.202 18.0889C151.669 18.1481 151.127 18.1777 150.577 18.1777C148.978 18.1777 147.784 17.818 146.997 17.0986C146.21 16.3708 145.816 15.2578 145.816 13.7598V7.10742H142.249V5.25391H145.816V1.75L148.025 1.17871V5.25391H153.751V7.10742H148.025V13.582C148.025 14.4961 148.267 15.1816 148.749 15.6387C149.24 16.0872 149.959 16.3115 150.907 16.3115C151.313 16.3115 151.758 16.2819 152.24 16.2227C152.723 16.1549 153.226 16.0534 153.751 15.918V17.8223ZM168.541 10.9541C168.541 11.2673 168.537 11.5296 168.528 11.7412C168.52 11.9528 168.507 12.1517 168.49 12.3379H159.54C159.54 13.6413 159.904 14.6442 160.632 15.3467C161.36 16.0407 162.409 16.3877 163.78 16.3877C164.153 16.3877 164.525 16.375 164.897 16.3496C165.27 16.3158 165.63 16.2734 165.977 16.2227C166.324 16.1719 166.654 16.1169 166.967 16.0576C167.288 15.9899 167.585 15.918 167.855 15.8418V17.6572C167.255 17.8265 166.573 17.9619 165.812 18.0635C165.058 18.1735 164.275 18.2285 163.463 18.2285C162.371 18.2285 161.432 18.0804 160.645 17.7842C159.857 17.488 159.21 17.0605 158.702 16.502C158.203 15.9349 157.83 15.2451 157.585 14.4326C157.348 13.6117 157.229 12.6849 157.229 11.6523C157.229 10.7552 157.356 9.90885 157.61 9.11328C157.873 8.30924 158.249 7.60677 158.74 7.00586C159.24 6.39648 159.849 5.91406 160.568 5.55859C161.288 5.20312 162.104 5.02539 163.019 5.02539C163.907 5.02539 164.694 5.16504 165.38 5.44434C166.065 5.72363 166.641 6.12142 167.106 6.6377C167.58 7.14551 167.936 7.76758 168.173 8.50391C168.418 9.23177 168.541 10.0485 168.541 10.9541ZM166.243 10.6367C166.269 10.0697 166.214 9.55339 166.078 9.08789C165.943 8.61393 165.731 8.20768 165.443 7.86914C165.164 7.5306 164.813 7.26823 164.39 7.08203C163.966 6.88737 163.476 6.79004 162.917 6.79004C162.435 6.79004 161.994 6.88314 161.597 7.06934C161.199 7.25553 160.856 7.5179 160.568 7.85645C160.281 8.19499 160.048 8.60124 159.87 9.0752C159.692 9.54915 159.582 10.0697 159.54 10.6367H166.243ZM182.163 14.5215C182.163 14.9701 182.087 15.3721 181.935 15.7275C181.782 16.083 181.575 16.4004 181.312 16.6797C181.05 16.9505 180.745 17.1833 180.398 17.3779C180.051 17.5726 179.679 17.7334 179.281 17.8604C178.892 17.9873 178.49 18.0804 178.075 18.1396C177.66 18.1989 177.254 18.2285 176.856 18.2285C175.993 18.2285 175.198 18.1904 174.47 18.1143C173.75 18.0381 173.044 17.9154 172.35 17.7461V15.7148C173.094 15.9264 173.835 16.0872 174.571 16.1973C175.308 16.3073 176.04 16.3623 176.768 16.3623C177.826 16.3623 178.608 16.2184 179.116 15.9307C179.624 15.6429 179.878 15.2324 179.878 14.6992C179.878 14.4707 179.836 14.2676 179.751 14.0898C179.675 13.9036 179.531 13.7301 179.319 13.5693C179.108 13.4001 178.778 13.2266 178.329 13.0488C177.889 12.8711 177.284 12.668 176.514 12.4395C175.938 12.2702 175.405 12.0798 174.914 11.8682C174.432 11.6481 174.013 11.39 173.657 11.0938C173.302 10.7975 173.022 10.4505 172.819 10.0527C172.616 9.65495 172.515 9.18522 172.515 8.64355C172.515 8.28809 172.595 7.89876 172.756 7.47559C172.925 7.05241 173.209 6.65885 173.606 6.29492C174.004 5.93099 174.542 5.63053 175.219 5.39355C175.896 5.14811 176.742 5.02539 177.758 5.02539C178.257 5.02539 178.812 5.05501 179.421 5.11426C180.03 5.16504 180.665 5.25814 181.325 5.39355V7.36133C180.631 7.19206 179.971 7.06934 179.345 6.99316C178.727 6.90853 178.189 6.86621 177.732 6.86621C177.182 6.86621 176.717 6.90853 176.336 6.99316C175.964 7.0778 175.659 7.19629 175.422 7.34863C175.193 7.49251 175.028 7.66602 174.927 7.86914C174.825 8.0638 174.774 8.27539 174.774 8.50391C174.774 8.73242 174.817 8.93978 174.901 9.12598C174.994 9.31217 175.16 9.49414 175.396 9.67188C175.642 9.84115 175.98 10.0146 176.412 10.1924C176.844 10.3617 177.407 10.5479 178.101 10.751C178.854 10.971 179.489 11.2038 180.005 11.4492C180.521 11.6862 180.94 11.9528 181.262 12.249C181.583 12.5452 181.812 12.8796 181.947 13.252C182.091 13.6243 182.163 14.0475 182.163 14.5215ZM211.235 9.79883H200.317V7.93262H211.235V9.79883ZM211.235 14.2168H200.317V12.3506H211.235V14.2168ZM237.857 23.2051H231.599V-0.382812H237.857V1.39453H233.706V21.4277H237.857V23.2051ZM252.152 23.2051H245.894V-0.382812H252.152V1.39453H248.001V21.4277H252.152V23.2051ZM268.986 9.70996C268.986 10.9795 268.859 12.139 268.605 13.1885C268.352 14.2295 267.966 15.1266 267.45 15.8799C266.934 16.6247 266.291 17.2044 265.521 17.6191C264.759 18.0254 263.862 18.2285 262.829 18.2285C261.94 18.2285 261.132 18.0635 260.404 17.7334C259.676 17.3949 259.054 16.8786 258.538 16.1846C258.022 15.4906 257.624 14.6061 257.345 13.5312C257.065 12.4564 256.926 11.1826 256.926 9.70996C256.926 8.44043 257.053 7.28092 257.307 6.23145C257.569 5.18197 257.954 4.28483 258.462 3.54004C258.978 2.78678 259.621 2.20703 260.392 1.80078C261.162 1.38607 262.059 1.17871 263.083 1.17871C263.972 1.17871 264.78 1.34798 265.508 1.68652C266.236 2.0166 266.858 2.53288 267.374 3.23535C267.89 3.92936 268.288 4.8138 268.567 5.88867C268.847 6.96354 268.986 8.2373 268.986 9.70996ZM266.752 9.78613C266.752 9.49837 266.739 9.21484 266.714 8.93555C266.697 8.64779 266.676 8.36849 266.65 8.09766L259.63 13.3154C259.757 13.7555 259.918 14.1618 260.112 14.5342C260.307 14.9066 260.54 15.2282 260.811 15.499C261.09 15.7614 261.403 15.9688 261.75 16.1211C262.105 16.265 262.507 16.3369 262.956 16.3369C263.532 16.3369 264.052 16.1973 264.518 15.918C264.992 15.6387 265.394 15.224 265.724 14.6738C266.054 14.1237 266.308 13.4424 266.485 12.6299C266.663 11.8089 266.752 10.861 266.752 9.78613ZM259.16 9.63379C259.16 9.89616 259.16 10.1585 259.16 10.4209C259.169 10.6833 259.186 10.9372 259.211 11.1826L266.231 5.99023C266.104 5.55859 265.944 5.16504 265.749 4.80957C265.554 4.4541 265.322 4.14941 265.051 3.89551C264.78 3.63314 264.471 3.43001 264.124 3.28613C263.777 3.14225 263.388 3.07031 262.956 3.07031C262.381 3.07031 261.856 3.20996 261.382 3.48926C260.916 3.76855 260.519 4.1875 260.188 4.74609C259.858 5.29622 259.604 5.98177 259.427 6.80273C259.249 7.61523 259.16 8.55892 259.16 9.63379ZM273.125 20.6025C273.557 20.6195 273.976 20.5814 274.382 20.4883C274.788 20.3952 275.144 20.2555 275.448 20.0693C275.761 19.8916 276.011 19.6673 276.197 19.3965C276.383 19.1257 276.477 18.8167 276.477 18.4697C276.477 18.1143 276.413 17.8265 276.286 17.6064C276.168 17.3864 276.032 17.1833 275.88 16.9971C275.728 16.8109 275.588 16.612 275.461 16.4004C275.342 16.1888 275.283 15.9053 275.283 15.5498C275.283 15.3721 275.317 15.1859 275.385 14.9912C275.452 14.7965 275.554 14.6188 275.689 14.458C275.833 14.2972 276.011 14.166 276.223 14.0645C276.443 13.9629 276.701 13.9121 276.997 13.9121C277.293 13.9121 277.577 13.9756 277.848 14.1025C278.127 14.221 278.368 14.4072 278.571 14.6611C278.783 14.915 278.948 15.2324 279.066 15.6133C279.193 15.9941 279.257 16.4427 279.257 16.959C279.257 17.6615 279.126 18.3343 278.863 18.9775C278.609 19.6292 278.224 20.2048 277.708 20.7041C277.2 21.2035 276.561 21.6012 275.791 21.8975C275.029 22.1937 274.141 22.3418 273.125 22.3418V20.6025ZM297.056 18H286.633V15.9434H290.898V3.83203L286.925 5.99023L286.112 4.11133L291.394 1.33105H293.349V15.9434H297.056V18ZM308.608 23.2051H302.35V21.4277H306.476V1.39453H302.35V-0.382812H308.608V23.2051ZM337.922 23.2051H331.663V-0.382812H337.922V1.39453H333.771V21.4277H337.922V23.2051ZM354.756 9.70996C354.756 10.9795 354.629 12.139 354.375 13.1885C354.121 14.2295 353.736 15.1266 353.22 15.8799C352.703 16.6247 352.06 17.2044 351.29 17.6191C350.528 18.0254 349.631 18.2285 348.599 18.2285C347.71 18.2285 346.902 18.0635 346.174 17.7334C345.446 17.3949 344.824 16.8786 344.308 16.1846C343.791 15.4906 343.394 14.6061 343.114 13.5312C342.835 12.4564 342.695 11.1826 342.695 9.70996C342.695 8.44043 342.822 7.28092 343.076 6.23145C343.339 5.18197 343.724 4.28483 344.231 3.54004C344.748 2.78678 345.391 2.20703 346.161 1.80078C346.931 1.38607 347.828 1.17871 348.853 1.17871C349.741 1.17871 350.549 1.34798 351.277 1.68652C352.005 2.0166 352.627 2.53288 353.144 3.23535C353.66 3.92936 354.058 4.8138 354.337 5.88867C354.616 6.96354 354.756 8.2373 354.756 9.70996ZM352.521 9.78613C352.521 9.49837 352.509 9.21484 352.483 8.93555C352.466 8.64779 352.445 8.36849 352.42 8.09766L345.399 13.3154C345.526 13.7555 345.687 14.1618 345.882 14.5342C346.076 14.9066 346.309 15.2282 346.58 15.499C346.859 15.7614 347.173 15.9688 347.52 16.1211C347.875 16.265 348.277 16.3369 348.726 16.3369C349.301 16.3369 349.822 16.1973 350.287 15.918C350.761 15.6387 351.163 15.224 351.493 14.6738C351.823 14.1237 352.077 13.4424 352.255 12.6299C352.433 11.8089 352.521 10.861 352.521 9.78613ZM344.93 9.63379C344.93 9.89616 344.93 10.1585 344.93 10.4209C344.938 10.6833 344.955 10.9372 344.98 11.1826L352.001 5.99023C351.874 5.55859 351.713 5.16504 351.519 4.80957C351.324 4.4541 351.091 4.14941 350.82 3.89551C350.549 3.63314 350.241 3.43001 349.894 3.28613C349.547 3.14225 349.157 3.07031 348.726 3.07031C348.15 3.07031 347.625 3.20996 347.151 3.48926C346.686 3.76855 346.288 4.1875 345.958 4.74609C345.628 5.29622 345.374 5.98177 345.196 6.80273C345.019 7.61523 344.93 8.55892 344.93 9.63379ZM358.895 20.6025C359.326 20.6195 359.745 20.5814 360.151 20.4883C360.558 20.3952 360.913 20.2555 361.218 20.0693C361.531 19.8916 361.781 19.6673 361.967 19.3965C362.153 19.1257 362.246 18.8167 362.246 18.4697C362.246 18.1143 362.183 17.8265 362.056 17.6064C361.937 17.3864 361.802 17.1833 361.649 16.9971C361.497 16.8109 361.357 16.612 361.23 16.4004C361.112 16.1888 361.053 15.9053 361.053 15.5498C361.053 15.3721 361.087 15.1859 361.154 14.9912C361.222 14.7965 361.324 14.6188 361.459 14.458C361.603 14.2972 361.781 14.166 361.992 14.0645C362.212 13.9629 362.47 13.9121 362.767 13.9121C363.063 13.9121 363.346 13.9756 363.617 14.1025C363.896 14.221 364.138 14.4072 364.341 14.6611C364.552 14.915 364.717 15.2324 364.836 15.6133C364.963 15.9941 365.026 16.4427 365.026 16.959C365.026 17.6615 364.895 18.3343 364.633 18.9775C364.379 19.6292 363.994 20.2048 363.478 20.7041C362.97 21.2035 362.331 21.6012 361.561 21.8975C360.799 22.1937 359.91 22.3418 358.895 22.3418V20.6025ZM382.965 18H372.034V16.0195L376.325 11.7539C377.028 11.0599 377.599 10.459 378.039 9.95117C378.479 9.44336 378.822 8.9821 379.067 8.56738C379.313 8.14421 379.478 7.74642 379.562 7.37402C379.647 7.00163 379.689 6.59961 379.689 6.16797C379.689 5.76172 379.634 5.37663 379.524 5.0127C379.414 4.6403 379.245 4.31445 379.017 4.03516C378.788 3.75586 378.492 3.53581 378.128 3.375C377.764 3.21419 377.328 3.13379 376.82 3.13379C376.118 3.13379 375.479 3.29036 374.903 3.60352C374.328 3.91667 373.799 4.32292 373.316 4.82227L372.098 3.3623C372.724 2.70215 373.443 2.17318 374.256 1.77539C375.077 1.3776 376.029 1.17871 377.112 1.17871C377.849 1.17871 378.517 1.28874 379.118 1.50879C379.728 1.72884 380.252 2.04622 380.692 2.46094C381.132 2.87565 381.471 3.38346 381.708 3.98438C381.953 4.58529 382.076 5.26237 382.076 6.01562C382.076 6.65039 381.992 7.23861 381.822 7.78027C381.653 8.32194 381.395 8.86361 381.048 9.40527C380.709 9.93848 380.278 10.4928 379.753 11.0684C379.237 11.6439 378.623 12.2744 377.912 12.96L374.903 15.8926H382.965V18ZM394.378 23.2051H388.119V21.4277H392.245V1.39453H388.119V-0.382812H394.378V23.2051ZM423.691 23.2051H417.433V-0.382812H423.691V1.39453H419.54V21.4277H423.691V23.2051ZM439.827 12.96C439.827 13.6878 439.679 14.3734 439.383 15.0166C439.087 15.6514 438.642 16.21 438.05 16.6924C437.457 17.1663 436.713 17.543 435.815 17.8223C434.918 18.0931 433.873 18.2285 432.68 18.2285C432.02 18.2285 431.427 18.2074 430.902 18.165C430.378 18.1227 429.887 18.0677 429.43 18V16.0195C429.954 16.1126 430.509 16.1846 431.093 16.2354C431.677 16.2861 432.273 16.3115 432.883 16.3115C433.712 16.3115 434.419 16.2396 435.003 16.0957C435.595 15.9434 436.078 15.7275 436.45 15.4482C436.823 15.1689 437.093 14.8304 437.263 14.4326C437.432 14.0348 437.517 13.5863 437.517 13.0869C437.517 12.6299 437.415 12.2321 437.212 11.8936C437.009 11.555 436.721 11.2715 436.349 11.043C435.985 10.8145 435.545 10.6452 435.028 10.5352C434.521 10.4167 433.962 10.3574 433.353 10.3574H431.461V8.54199H433.378C433.877 8.54199 434.33 8.47852 434.736 8.35156C435.151 8.21615 435.502 8.02572 435.79 7.78027C436.086 7.53483 436.311 7.23438 436.463 6.87891C436.624 6.51497 436.704 6.10449 436.704 5.64746C436.704 4.75879 436.433 4.11133 435.892 3.70508C435.35 3.29883 434.554 3.0957 433.505 3.0957C432.946 3.0957 432.371 3.15072 431.778 3.26074C431.186 3.37077 430.551 3.53581 429.874 3.75586V1.82617C430.162 1.72461 430.466 1.63574 430.788 1.55957C431.118 1.47493 431.444 1.40723 431.766 1.35645C432.096 1.2972 432.422 1.25488 432.743 1.22949C433.065 1.19564 433.374 1.17871 433.67 1.17871C434.55 1.17871 435.325 1.27604 435.993 1.4707C436.662 1.6569 437.22 1.92773 437.669 2.2832C438.118 2.63867 438.456 3.07031 438.685 3.57812C438.913 4.08594 439.027 4.65723 439.027 5.29199C439.027 6.23991 438.782 7.03548 438.291 7.67871C437.809 8.32194 437.144 8.83398 436.298 9.21484C436.729 9.28255 437.153 9.41797 437.567 9.62109C437.991 9.82422 438.367 10.0866 438.697 10.4082C439.036 10.7214 439.307 11.0938 439.51 11.5254C439.721 11.957 439.827 12.4352 439.827 12.96ZM444.664 20.6025C445.096 20.6195 445.515 20.5814 445.921 20.4883C446.327 20.3952 446.683 20.2555 446.987 20.0693C447.3 19.8916 447.55 19.6673 447.736 19.3965C447.923 19.1257 448.016 18.8167 448.016 18.4697C448.016 18.1143 447.952 17.8265 447.825 17.6064C447.707 17.3864 447.571 17.1833 447.419 16.9971C447.267 16.8109 447.127 16.612 447 16.4004C446.882 16.1888 446.822 15.9053 446.822 15.5498C446.822 15.3721 446.856 15.1859 446.924 14.9912C446.992 14.7965 447.093 14.6188 447.229 14.458C447.372 14.2972 447.55 14.166 447.762 14.0645C447.982 13.9629 448.24 13.9121 448.536 13.9121C448.832 13.9121 449.116 13.9756 449.387 14.1025C449.666 14.221 449.907 14.4072 450.11 14.6611C450.322 14.915 450.487 15.2324 450.605 15.6133C450.732 15.9941 450.796 16.4427 450.796 16.959C450.796 17.6615 450.665 18.3343 450.402 18.9775C450.148 19.6292 449.763 20.2048 449.247 20.7041C448.739 21.2035 448.1 21.6012 447.33 21.8975C446.568 22.1937 445.68 22.3418 444.664 22.3418V20.6025ZM468.734 18H457.804V16.0195L462.095 11.7539C462.797 11.0599 463.368 10.459 463.809 9.95117C464.249 9.44336 464.591 8.9821 464.837 8.56738C465.082 8.14421 465.247 7.74642 465.332 7.37402C465.417 7.00163 465.459 6.59961 465.459 6.16797C465.459 5.76172 465.404 5.37663 465.294 5.0127C465.184 4.6403 465.015 4.31445 464.786 4.03516C464.558 3.75586 464.261 3.53581 463.897 3.375C463.534 3.21419 463.098 3.13379 462.59 3.13379C461.887 3.13379 461.248 3.29036 460.673 3.60352C460.097 3.91667 459.568 4.32292 459.086 4.82227L457.867 3.3623C458.493 2.70215 459.213 2.17318 460.025 1.77539C460.846 1.3776 461.799 1.17871 462.882 1.17871C463.618 1.17871 464.287 1.28874 464.888 1.50879C465.497 1.72884 466.022 2.04622 466.462 2.46094C466.902 2.87565 467.241 3.38346 467.478 3.98438C467.723 4.58529 467.846 5.26237 467.846 6.01562C467.846 6.65039 467.761 7.23861 467.592 7.78027C467.423 8.32194 467.164 8.86361 466.817 9.40527C466.479 9.93848 466.047 10.4928 465.522 11.0684C465.006 11.6439 464.393 12.2744 463.682 12.96L460.673 15.8926H468.734V18ZM480.147 23.2051H473.889V21.4277H478.015V1.39453H473.889V-0.382812H480.147V23.2051ZM509.461 23.2051H503.202V-0.382812H509.461V1.39453H505.31V21.4277H509.461V23.2051ZM525.774 18H515.352V15.9434H519.617V3.83203L515.644 5.99023L514.831 4.11133L520.112 1.33105H522.067V15.9434H525.774V18ZM530.434 20.6025C530.865 20.6195 531.284 20.5814 531.69 20.4883C532.097 20.3952 532.452 20.2555 532.757 20.0693C533.07 19.8916 533.32 19.6673 533.506 19.3965C533.692 19.1257 533.785 18.8167 533.785 18.4697C533.785 18.1143 533.722 17.8265 533.595 17.6064C533.476 17.3864 533.341 17.1833 533.188 16.9971C533.036 16.8109 532.896 16.612 532.77 16.4004C532.651 16.1888 532.592 15.9053 532.592 15.5498C532.592 15.3721 532.626 15.1859 532.693 14.9912C532.761 14.7965 532.863 14.6188 532.998 14.458C533.142 14.2972 533.32 14.166 533.531 14.0645C533.751 13.9629 534.009 13.9121 534.306 13.9121C534.602 13.9121 534.885 13.9756 535.156 14.1025C535.436 14.221 535.677 14.4072 535.88 14.6611C536.091 14.915 536.257 15.2324 536.375 15.6133C536.502 15.9941 536.565 16.4427 536.565 16.959C536.565 17.6615 536.434 18.3343 536.172 18.9775C535.918 19.6292 535.533 20.2048 535.017 20.7041C534.509 21.2035 533.87 21.6012 533.1 21.8975C532.338 22.1937 531.449 22.3418 530.434 22.3418V20.6025ZM555.329 14.3311H552.498V18H550.238V14.3311H542.253V12.3887L549.324 1.40723H552.498V12.3887H555.329V14.3311ZM550.238 3.54004L544.462 12.3887H550.238V3.54004ZM565.917 23.2051H559.658V21.4277H563.784V1.39453H559.658V-0.382812H565.917V23.2051ZM595.23 23.2051H588.972V-0.382812H595.23V1.39453H591.079V21.4277H595.23V23.2051ZM611.684 18H600.753V16.0195L605.044 11.7539C605.746 11.0599 606.318 10.459 606.758 9.95117C607.198 9.44336 607.541 8.9821 607.786 8.56738C608.032 8.14421 608.197 7.74642 608.281 7.37402C608.366 7.00163 608.408 6.59961 608.408 6.16797C608.408 5.76172 608.353 5.37663 608.243 5.0127C608.133 4.6403 607.964 4.31445 607.735 4.03516C607.507 3.75586 607.211 3.53581 606.847 3.375C606.483 3.21419 606.047 3.13379 605.539 3.13379C604.837 3.13379 604.198 3.29036 603.622 3.60352C603.047 3.91667 602.518 4.32292 602.035 4.82227L600.816 3.3623C601.443 2.70215 602.162 2.17318 602.975 1.77539C603.796 1.3776 604.748 1.17871 605.831 1.17871C606.567 1.17871 607.236 1.28874 607.837 1.50879C608.446 1.72884 608.971 2.04622 609.411 2.46094C609.851 2.87565 610.19 3.38346 610.427 3.98438C610.672 4.58529 610.795 5.26237 610.795 6.01562C610.795 6.65039 610.71 7.23861 610.541 7.78027C610.372 8.32194 610.114 8.86361 609.767 9.40527C609.428 9.93848 608.996 10.4928 608.472 11.0684C607.955 11.6439 607.342 12.2744 606.631 12.96L603.622 15.8926H611.684V18ZM616.203 20.6025C616.635 20.6195 617.054 20.5814 617.46 20.4883C617.866 20.3952 618.222 20.2555 618.526 20.0693C618.84 19.8916 619.089 19.6673 619.275 19.3965C619.462 19.1257 619.555 18.8167 619.555 18.4697C619.555 18.1143 619.491 17.8265 619.364 17.6064C619.246 17.3864 619.11 17.1833 618.958 16.9971C618.806 16.8109 618.666 16.612 618.539 16.4004C618.421 16.1888 618.361 15.9053 618.361 15.5498C618.361 15.3721 618.395 15.1859 618.463 14.9912C618.531 14.7965 618.632 14.6188 618.768 14.458C618.911 14.2972 619.089 14.166 619.301 14.0645C619.521 13.9629 619.779 13.9121 620.075 13.9121C620.371 13.9121 620.655 13.9756 620.926 14.1025C621.205 14.221 621.446 14.4072 621.649 14.6611C621.861 14.915 622.026 15.2324 622.145 15.6133C622.271 15.9941 622.335 16.4427 622.335 16.959C622.335 17.6615 622.204 18.3343 621.941 18.9775C621.688 19.6292 621.302 20.2048 620.786 20.7041C620.278 21.2035 619.639 21.6012 618.869 21.8975C618.107 22.1937 617.219 22.3418 616.203 22.3418V20.6025ZM641.099 14.3311H638.268V18H636.008V14.3311H628.022V12.3887L635.094 1.40723H638.268V12.3887H641.099V14.3311ZM636.008 3.54004L630.231 12.3887H636.008V3.54004ZM651.687 23.2051H645.428V21.4277H649.554V1.39453H645.428V-0.382812H651.687V23.2051ZM681 23.2051H674.741V-0.382812H681V1.39453H676.849V21.4277H681V23.2051ZM698.278 14.3311H695.447V18H693.188V14.3311H685.202V12.3887L692.273 1.40723H695.447V12.3887H698.278V14.3311ZM693.188 3.54004L687.411 12.3887H693.188V3.54004ZM701.973 20.6025C702.404 20.6195 702.823 20.5814 703.229 20.4883C703.636 20.3952 703.991 20.2555 704.296 20.0693C704.609 19.8916 704.859 19.6673 705.045 19.3965C705.231 19.1257 705.324 18.8167 705.324 18.4697C705.324 18.1143 705.261 17.8265 705.134 17.6064C705.015 17.3864 704.88 17.1833 704.728 16.9971C704.575 16.8109 704.436 16.612 704.309 16.4004C704.19 16.1888 704.131 15.9053 704.131 15.5498C704.131 15.3721 704.165 15.1859 704.232 14.9912C704.3 14.7965 704.402 14.6188 704.537 14.458C704.681 14.2972 704.859 14.166 705.07 14.0645C705.29 13.9629 705.549 13.9121 705.845 13.9121C706.141 13.9121 706.424 13.9756 706.695 14.1025C706.975 14.221 707.216 14.4072 707.419 14.6611C707.631 14.915 707.796 15.2324 707.914 15.6133C708.041 15.9941 708.104 16.4427 708.104 16.959C708.104 17.6615 707.973 18.3343 707.711 18.9775C707.457 19.6292 707.072 20.2048 706.556 20.7041C706.048 21.2035 705.409 21.6012 704.639 21.8975C703.877 22.1937 702.988 22.3418 701.973 22.3418V20.6025ZM725.624 12.6934C725.624 13.5143 725.446 14.2633 725.091 14.9404C724.735 15.6175 724.244 16.2015 723.618 16.6924C723 17.1748 722.268 17.5514 721.422 17.8223C720.576 18.0931 719.661 18.2285 718.68 18.2285C718.434 18.2285 718.168 18.2201 717.88 18.2031C717.601 18.1947 717.321 18.1777 717.042 18.1523C716.763 18.1354 716.488 18.1143 716.217 18.0889C715.954 18.0635 715.717 18.0339 715.506 18V15.9941C715.963 16.1042 716.483 16.1846 717.067 16.2354C717.66 16.2861 718.257 16.3115 718.857 16.3115C719.535 16.3115 720.144 16.2311 720.686 16.0703C721.227 15.9095 721.688 15.681 722.069 15.3848C722.45 15.0801 722.742 14.7161 722.945 14.293C723.148 13.8613 723.25 13.3789 723.25 12.8457C723.25 11.8132 722.878 11.0641 722.133 10.5986C721.396 10.1247 720.334 9.8877 718.946 9.8877H715.798V1.40723H724.735V3.33691H717.88V7.99609H719.327C720.123 7.99609 720.897 8.06803 721.65 8.21191C722.404 8.35579 723.072 8.6097 723.656 8.97363C724.249 9.3291 724.723 9.81152 725.078 10.4209C725.442 11.0218 725.624 11.7793 725.624 12.6934ZM737.456 23.2051H731.197V21.4277H735.323V1.39453H731.197V-0.382812H737.456V23.2051ZM766.77 23.2051H760.511V-0.382812H766.77V1.39453H762.618V21.4277H766.77V23.2051ZM782.804 12.6934C782.804 13.5143 782.626 14.2633 782.271 14.9404C781.915 15.6175 781.424 16.2015 780.798 16.6924C780.18 17.1748 779.448 17.5514 778.602 17.8223C777.755 18.0931 776.841 18.2285 775.859 18.2285C775.614 18.2285 775.347 18.2201 775.06 18.2031C774.78 18.1947 774.501 18.1777 774.222 18.1523C773.942 18.1354 773.667 18.1143 773.396 18.0889C773.134 18.0635 772.897 18.0339 772.686 18V15.9941C773.143 16.1042 773.663 16.1846 774.247 16.2354C774.84 16.2861 775.436 16.3115 776.037 16.3115C776.714 16.3115 777.324 16.2311 777.865 16.0703C778.407 15.9095 778.868 15.681 779.249 15.3848C779.63 15.0801 779.922 14.7161 780.125 14.293C780.328 13.8613 780.43 13.3789 780.43 12.8457C780.43 11.8132 780.057 11.0641 779.312 10.5986C778.576 10.1247 777.514 9.8877 776.126 9.8877H772.978V1.40723H781.915V3.33691H775.06V7.99609H776.507C777.302 7.99609 778.077 8.06803 778.83 8.21191C779.583 8.35579 780.252 8.6097 780.836 8.97363C781.428 9.3291 781.902 9.81152 782.258 10.4209C782.622 11.0218 782.804 11.7793 782.804 12.6934ZM787.742 20.6025C788.174 20.6195 788.593 20.5814 788.999 20.4883C789.405 20.3952 789.761 20.2555 790.065 20.0693C790.379 19.8916 790.628 19.6673 790.814 19.3965C791.001 19.1257 791.094 18.8167 791.094 18.4697C791.094 18.1143 791.03 17.8265 790.903 17.6064C790.785 17.3864 790.649 17.1833 790.497 16.9971C790.345 16.8109 790.205 16.612 790.078 16.4004C789.96 16.1888 789.9 15.9053 789.9 15.5498C789.9 15.3721 789.934 15.1859 790.002 14.9912C790.07 14.7965 790.171 14.6188 790.307 14.458C790.451 14.2972 790.628 14.166 790.84 14.0645C791.06 13.9629 791.318 13.9121 791.614 13.9121C791.91 13.9121 792.194 13.9756 792.465 14.1025C792.744 14.221 792.985 14.4072 793.188 14.6611C793.4 14.915 793.565 15.2324 793.684 15.6133C793.811 15.9941 793.874 16.4427 793.874 16.959C793.874 17.6615 793.743 18.3343 793.48 18.9775C793.227 19.6292 792.841 20.2048 792.325 20.7041C791.817 21.2035 791.178 21.6012 790.408 21.8975C789.646 22.1937 788.758 22.3418 787.742 22.3418V20.6025ZM811.812 18H800.882V16.0195L805.173 11.7539C805.875 11.0599 806.447 10.459 806.887 9.95117C807.327 9.44336 807.67 8.9821 807.915 8.56738C808.16 8.14421 808.326 7.74642 808.41 7.37402C808.495 7.00163 808.537 6.59961 808.537 6.16797C808.537 5.76172 808.482 5.37663 808.372 5.0127C808.262 4.6403 808.093 4.31445 807.864 4.03516C807.636 3.75586 807.34 3.53581 806.976 3.375C806.612 3.21419 806.176 3.13379 805.668 3.13379C804.965 3.13379 804.326 3.29036 803.751 3.60352C803.175 3.91667 802.646 4.32292 802.164 4.82227L800.945 3.3623C801.572 2.70215 802.291 2.17318 803.104 1.77539C803.924 1.3776 804.877 1.17871 805.96 1.17871C806.696 1.17871 807.365 1.28874 807.966 1.50879C808.575 1.72884 809.1 2.04622 809.54 2.46094C809.98 2.87565 810.319 3.38346 810.556 3.98438C810.801 4.58529 810.924 5.26237 810.924 6.01562C810.924 6.65039 810.839 7.23861 810.67 7.78027C810.501 8.32194 810.243 8.86361 809.896 9.40527C809.557 9.93848 809.125 10.4928 808.601 11.0684C808.084 11.6439 807.471 12.2744 806.76 12.96L803.751 15.8926H811.812V18ZM823.226 23.2051H816.967V21.4277H821.093V1.39453H816.967V-0.382812H823.226V23.2051ZM837.521 23.2051H831.262V21.4277H835.388V1.39453H831.262V-0.382812H837.521V23.2051Z" fill="black"/>
<path d="M341.991 66.7071C342.381 66.3166 342.381 65.6834 341.991 65.2929L335.627 58.9289C335.236 58.5384 334.603 58.5384 334.212 58.9289C333.822 59.3195 333.822 59.9526 334.212 60.3431L339.869 66L334.212 71.6569C333.822 72.0474 333.822 72.6805 334.212 73.0711C334.603 73.4616 335.236 73.4616 335.627 73.0711L341.991 66.7071ZM276.283 67H341.283V65H276.283V67Z" fill="black"/>
<circle cx="25" cy="25" r="23.75" transform="matrix(-0.0256695 0.999671 0.999671 0.0256695 565.567 91)" fill="white" stroke="black" stroke-width="2.5"/>
<path d="M596.102 118.877C596.102 119.824 595.897 120.688 595.487 121.47C595.077 122.251 594.51 122.925 593.788 123.491C593.075 124.048 592.23 124.482 591.253 124.795C590.277 125.107 589.222 125.264 588.089 125.264C587.806 125.264 587.499 125.254 587.167 125.234C586.844 125.225 586.522 125.205 586.2 125.176C585.877 125.156 585.56 125.132 585.248 125.103C584.945 125.073 584.671 125.039 584.427 125V122.686C584.955 122.812 585.555 122.905 586.229 122.964C586.913 123.022 587.601 123.052 588.294 123.052C589.076 123.052 589.779 122.959 590.404 122.773C591.029 122.588 591.561 122.324 592 121.982C592.44 121.631 592.777 121.211 593.011 120.723C593.246 120.225 593.363 119.668 593.363 119.053C593.363 117.861 592.933 116.997 592.074 116.46C591.224 115.913 589.999 115.64 588.397 115.64H584.764V105.854H595.077V108.081H587.167V113.457H588.836C589.754 113.457 590.648 113.54 591.517 113.706C592.386 113.872 593.158 114.165 593.832 114.585C594.515 114.995 595.062 115.552 595.472 116.255C595.892 116.948 596.102 117.822 596.102 118.877Z" fill="black"/>
<path d="M562.991 117.707C563.381 117.317 563.381 116.683 562.991 116.293L556.627 109.929C556.236 109.538 555.603 109.538 555.212 109.929C554.822 110.319 554.822 110.953 555.212 111.343L560.869 117L555.212 122.657C554.822 123.047 554.822 123.681 555.212 124.071C555.603 124.462 556.236 124.462 556.627 124.071L562.991 117.707ZM497.283 118H562.283V116H497.283V118Z" fill="black"/>
<path d="M396.793 173.207C396.402 172.817 396.402 172.183 396.793 171.793L403.157 165.429C403.547 165.038 404.181 165.038 404.571 165.429C404.962 165.819 404.962 166.453 404.571 166.843L398.914 172.5L404.571 178.157C404.962 178.547 404.962 179.181 404.571 179.571C404.181 179.962 403.547 179.962 403.157 179.571L396.793 173.207ZM592 141C592 148.824 586.631 154.682 577.292 159.062C567.95 163.443 554.369 166.489 537.311 168.617C503.176 172.876 454.736 173.5 397.5 173.5V171.5C454.764 171.5 503.074 170.874 537.064 166.633C554.069 164.511 567.394 161.495 576.443 157.251C585.494 153.006 590 147.676 590 141H592Z" fill="black"/>
<path d="M341.263 157C341.815 157.011 342.272 156.573 342.283 156.021L342.469 147.023C342.481 146.47 342.042 146.014 341.49 146.002C340.938 145.991 340.481 146.429 340.47 146.981L340.304 154.98L332.306 154.814C331.754 154.803 331.297 155.241 331.286 155.793C331.274 156.345 331.713 156.802 332.265 156.814L341.263 157ZM269.562 82.6923L340.562 156.692L342.005 155.308L271.005 81.3077L269.562 82.6923Z" fill="black"/>
<path d="M341.991 169.707C342.381 169.317 342.381 168.683 341.991 168.293L335.627 161.929C335.236 161.538 334.603 161.538 334.212 161.929C333.822 162.319 333.822 162.953 334.212 163.343L339.869 169L334.212 174.657C333.822 175.047 333.822 175.681 334.212 176.071C334.603 176.462 335.236 176.462 335.627 176.071L341.991 169.707ZM276.283 170H341.283V168H276.283V170Z" fill="black"/>
<path d="M280.764 41.5645C280.764 42.6126 280.65 43.5501 280.422 44.377C280.194 45.2038 279.859 45.9036 279.416 46.4766C278.98 47.043 278.446 47.4759 277.815 47.7754C277.183 48.0749 276.461 48.2246 275.647 48.2246C274.944 48.2246 274.296 48.1009 273.703 47.8535C273.111 47.6061 272.6 47.2188 272.17 46.6914C271.74 46.1576 271.405 45.4772 271.164 44.6504C270.923 43.8236 270.803 42.834 270.803 41.6816C270.803 40.6335 270.917 39.696 271.145 38.8691C271.379 38.0423 271.714 37.3457 272.151 36.7793C272.587 36.2064 273.124 35.7702 273.762 35.4707C274.4 35.1712 275.123 35.0215 275.93 35.0215C276.633 35.0215 277.281 35.1452 277.873 35.3926C278.466 35.64 278.974 36.0273 279.397 36.5547C279.826 37.082 280.162 37.7591 280.403 38.5859C280.643 39.4128 280.764 40.4056 280.764 41.5645ZM273.205 41.6035C273.205 41.7337 273.205 41.8574 273.205 41.9746C273.205 42.0853 273.212 42.1992 273.225 42.3164L278.01 38.8594C277.782 38.2148 277.479 37.7396 277.102 37.4336C276.731 37.1211 276.291 36.9648 275.783 36.9648C275.419 36.9648 275.08 37.0592 274.768 37.248C274.455 37.4303 274.182 37.7135 273.948 38.0977C273.72 38.4818 273.537 38.9635 273.401 39.543C273.27 40.1224 273.205 40.8092 273.205 41.6035ZM278.362 41.6426C278.362 41.5319 278.358 41.4212 278.352 41.3105C278.345 41.1934 278.342 41.0827 278.342 40.9785L273.586 44.416C273.795 45.0475 274.087 45.5163 274.465 45.8223C274.843 46.1283 275.282 46.2812 275.783 46.2812C276.148 46.2812 276.487 46.1868 276.799 45.998C277.118 45.8092 277.392 45.526 277.619 45.1484C277.854 44.7643 278.036 44.2826 278.166 43.7031C278.296 43.1172 278.362 42.4303 278.362 41.6426Z" fill="#FF5500"/>
<path d="M390.77 48V45.8809H394.022V37.6777L391.19 39.2402L390.408 37.2969L394.461 35.1582H396.463V45.8809H399.266V48H390.77Z" fill="#FF5500"/>
<path d="M280.764 143.564C280.764 144.613 280.65 145.55 280.422 146.377C280.194 147.204 279.859 147.904 279.416 148.477C278.98 149.043 278.446 149.476 277.815 149.775C277.183 150.075 276.461 150.225 275.647 150.225C274.944 150.225 274.296 150.101 273.703 149.854C273.111 149.606 272.6 149.219 272.17 148.691C271.74 148.158 271.405 147.477 271.164 146.65C270.923 145.824 270.803 144.834 270.803 143.682C270.803 142.633 270.917 141.696 271.145 140.869C271.379 140.042 271.714 139.346 272.151 138.779C272.587 138.206 273.124 137.77 273.762 137.471C274.4 137.171 275.123 137.021 275.93 137.021C276.633 137.021 277.281 137.145 277.873 137.393C278.466 137.64 278.974 138.027 279.397 138.555C279.826 139.082 280.162 139.759 280.403 140.586C280.643 141.413 280.764 142.406 280.764 143.564ZM273.205 143.604C273.205 143.734 273.205 143.857 273.205 143.975C273.205 144.085 273.212 144.199 273.225 144.316L278.01 140.859C277.782 140.215 277.479 139.74 277.102 139.434C276.731 139.121 276.291 138.965 275.783 138.965C275.419 138.965 275.08 139.059 274.768 139.248C274.455 139.43 274.182 139.714 273.948 140.098C273.72 140.482 273.537 140.964 273.401 141.543C273.27 142.122 273.205 142.809 273.205 143.604ZM278.362 143.643C278.362 143.532 278.358 143.421 278.352 143.311C278.345 143.193 278.342 143.083 278.342 142.979L273.586 146.416C273.795 147.048 274.087 147.516 274.465 147.822C274.843 148.128 275.282 148.281 275.783 148.281C276.148 148.281 276.487 148.187 276.799 147.998C277.118 147.809 277.392 147.526 277.619 147.148C277.854 146.764 278.036 146.283 278.166 145.703C278.296 145.117 278.362 144.43 278.362 143.643Z" fill="#FF5500"/>
<path d="M398.963 144.104C398.963 144.735 398.846 145.305 398.611 145.812C398.377 146.314 398.016 146.743 397.527 147.102C397.046 147.453 396.437 147.723 395.701 147.912C394.965 148.101 394.1 148.195 393.104 148.195C392.882 148.195 392.648 148.189 392.4 148.176C392.16 148.169 391.919 148.156 391.678 148.137C391.437 148.124 391.202 148.104 390.975 148.078C390.747 148.059 390.542 148.033 390.359 148V145.93C390.77 146.008 391.229 146.073 391.736 146.125C392.251 146.171 392.785 146.193 393.338 146.193C393.878 146.193 394.344 146.148 394.734 146.057C395.125 145.965 395.447 145.835 395.701 145.666C395.955 145.49 396.141 145.275 396.258 145.021C396.382 144.768 396.443 144.481 396.443 144.162C396.443 143.882 396.382 143.628 396.258 143.4C396.134 143.173 395.945 142.98 395.691 142.824C395.438 142.661 395.112 142.538 394.715 142.453C394.324 142.362 393.859 142.316 393.318 142.316H391.902V140.5H393.201C393.709 140.5 394.129 140.451 394.461 140.354C394.799 140.249 395.066 140.113 395.262 139.943C395.464 139.774 395.607 139.576 395.691 139.348C395.776 139.113 395.818 138.869 395.818 138.615C395.818 138.094 395.649 137.701 395.311 137.434C394.972 137.16 394.448 137.023 393.738 137.023C393.23 137.023 392.729 137.072 392.234 137.17C391.74 137.268 391.229 137.398 390.701 137.561V135.559C390.994 135.461 391.274 135.38 391.541 135.314C391.808 135.249 392.075 135.194 392.342 135.148C392.609 135.103 392.879 135.07 393.152 135.051C393.426 135.031 393.709 135.021 394.002 135.021C394.705 135.021 395.32 135.096 395.848 135.246C396.382 135.396 396.827 135.611 397.186 135.891C397.55 136.164 397.824 136.499 398.006 136.896C398.188 137.294 398.279 137.736 398.279 138.225C398.279 138.999 398.1 139.628 397.742 140.109C397.391 140.585 396.896 140.949 396.258 141.203C396.668 141.268 397.039 141.382 397.371 141.545C397.703 141.701 397.986 141.906 398.221 142.16C398.462 142.408 398.644 142.694 398.768 143.02C398.898 143.345 398.963 143.706 398.963 144.104Z" fill="#FF5500"/>
<path d="M487.545 92V90.2422L490.563 87.2246C491.129 86.6582 491.582 86.1699 491.92 85.7598C492.265 85.3496 492.529 84.985 492.711 84.666C492.9 84.3405 493.024 84.041 493.082 83.7676C493.141 83.4941 493.17 83.2109 493.17 82.918C493.17 82.6771 493.131 82.4492 493.053 82.2344C492.975 82.013 492.861 81.8242 492.711 81.668C492.561 81.5052 492.373 81.3783 492.145 81.2871C491.917 81.1895 491.656 81.1406 491.364 81.1406C490.862 81.1406 490.397 81.2513 489.967 81.4727C489.537 81.6875 489.13 81.9772 488.746 82.3418L487.487 80.7207C488.04 80.2064 488.662 79.7962 489.352 79.4902C490.048 79.1777 490.8 79.0215 491.608 79.0215C492.233 79.0215 492.799 79.1029 493.307 79.2656C493.815 79.4219 494.248 79.6562 494.606 79.9688C494.97 80.2812 495.25 80.6719 495.446 81.1406C495.647 81.6094 495.748 82.1497 495.748 82.7617C495.748 83.2695 495.68 83.7448 495.543 84.1875C495.406 84.6237 495.208 85.0501 494.948 85.4668C494.687 85.8835 494.365 86.3001 493.981 86.7168C493.603 87.1335 493.17 87.5729 492.682 88.0352L490.826 89.8027H496.207V92H487.545Z" fill="#FF5500"/>
<path d="M605.77 92V89.8809H609.022V81.6777L606.19 83.2402L605.408 81.2969L609.461 79.1582H611.463V89.8809H614.266V92H605.77Z" fill="#FF5500"/>
</g>
<defs>
<clipPath id="clip0_6291_1882">
<rect width="839" height="194" fill="white"/>
</clipPath>
</defs>
</svg>
