<svg width="486" height="293" viewBox="0 0 486 293" fill="none" xmlns="http://www.w3.org/2000/svg">
<g clip-path="url(#clip0_6290_170)">
<rect width="486" height="293" fill="white"/>
<rect x="243" y="41" width="100" height="252" fill="#FF5500" fill-opacity="0.15"/>
<rect x="172" y="41" width="58" height="252" fill="#FF5500" fill-opacity="0.1"/>
<rect x="101" y="41" width="57" height="252" fill="#FF5500" fill-opacity="0.05"/>
<rect x="357" y="41" width="56" height="252" fill="#FF5500" fill-opacity="0.2"/>
<rect x="429" y="41" width="57" height="252" fill="#FF5500" fill-opacity="0.25"/>
<path d="M276.5 93L218.5 150" stroke="black" stroke-width="2.5"/>
<path d="M310.5 92L368.5 149" stroke="black" stroke-width="2.5"/>
<circle cx="293" cy="76" r="23.75" stroke="black" stroke-width="2.5"/>
<path d="M299.535 79.877C299.535 80.8242 299.33 81.6885 298.92 82.4697C298.51 83.251 297.943 83.9248 297.221 84.4912C296.508 85.0479 295.663 85.4824 294.687 85.7949C293.71 86.1074 292.655 86.2637 291.522 86.2637C291.239 86.2637 290.932 86.2539 290.6 86.2344C290.277 86.2246 289.955 86.2051 289.633 86.1758C289.311 86.1562 288.993 86.1318 288.681 86.1025C288.378 86.0732 288.104 86.0391 287.86 86V83.6855C288.388 83.8125 288.988 83.9053 289.662 83.9639C290.346 84.0225 291.034 84.0518 291.728 84.0518C292.509 84.0518 293.212 83.959 293.837 83.7734C294.462 83.5879 294.994 83.3242 295.434 82.9824C295.873 82.6309 296.21 82.2109 296.444 81.7227C296.679 81.2246 296.796 80.668 296.796 80.0527C296.796 78.8613 296.366 77.9971 295.507 77.46C294.657 76.9131 293.432 76.6396 291.83 76.6396H288.197V66.8545H298.51V69.0811H290.6V74.457H292.27C293.188 74.457 294.081 74.54 294.95 74.7061C295.819 74.8721 296.591 75.165 297.265 75.585C297.948 75.9951 298.495 76.5518 298.905 77.2549C299.325 77.9482 299.535 78.8223 299.535 79.877Z" fill="black"/>
<path d="M299.53 14.71C299.53 15.9795 299.403 17.139 299.149 18.1885C298.896 19.2295 298.51 20.1266 297.994 20.8799C297.478 21.6247 296.835 22.2044 296.064 22.6191C295.303 23.0254 294.406 23.2285 293.373 23.2285C292.484 23.2285 291.676 23.0635 290.948 22.7334C290.22 22.3949 289.598 21.8786 289.082 21.1846C288.566 20.4906 288.168 19.6061 287.889 18.5312C287.609 17.4564 287.47 16.1826 287.47 14.71C287.47 13.4404 287.597 12.2809 287.851 11.2314C288.113 10.182 288.498 9.28483 289.006 8.54004C289.522 7.78678 290.165 7.20703 290.936 6.80078C291.706 6.38607 292.603 6.17871 293.627 6.17871C294.516 6.17871 295.324 6.34798 296.052 6.68652C296.78 7.0166 297.402 7.53288 297.918 8.23535C298.434 8.92936 298.832 9.8138 299.111 10.8887C299.391 11.9635 299.53 13.2373 299.53 14.71ZM297.296 14.7861C297.296 14.4984 297.283 14.2148 297.258 13.9355C297.241 13.6478 297.22 13.3685 297.194 13.0977L290.174 18.3154C290.301 18.7555 290.462 19.1618 290.656 19.5342C290.851 19.9066 291.084 20.2282 291.354 20.499C291.634 20.7614 291.947 20.9688 292.294 21.1211C292.649 21.265 293.051 21.3369 293.5 21.3369C294.076 21.3369 294.596 21.1973 295.062 20.918C295.535 20.6387 295.938 20.224 296.268 19.6738C296.598 19.1237 296.852 18.4424 297.029 17.6299C297.207 16.8089 297.296 15.861 297.296 14.7861ZM289.704 14.6338C289.704 14.8962 289.704 15.1585 289.704 15.4209C289.713 15.6833 289.729 15.9372 289.755 16.1826L296.775 10.9902C296.648 10.5586 296.488 10.165 296.293 9.80957C296.098 9.4541 295.866 9.14941 295.595 8.89551C295.324 8.63314 295.015 8.43001 294.668 8.28613C294.321 8.14225 293.932 8.07031 293.5 8.07031C292.924 8.07031 292.4 8.20996 291.926 8.48926C291.46 8.76855 291.062 9.1875 290.732 9.74609C290.402 10.2962 290.148 10.9818 289.971 11.8027C289.793 12.6152 289.704 13.5589 289.704 14.6338Z" fill="black"/>
<path d="M192.148 17.1221H184.557V15.04H192.148V17.1221ZM208.157 23H197.734V20.9434H202V8.83203L198.026 10.9902L197.214 9.11133L202.495 6.33105H204.45V20.9434H208.157V23Z" fill="black"/>
<path d="M120.148 17.1221H112.557V15.04H120.148V17.1221ZM136.297 23H125.366V21.0195L129.657 16.7539C130.36 16.0599 130.931 15.459 131.371 14.9512C131.811 14.4434 132.154 13.9821 132.399 13.5674C132.645 13.1442 132.81 12.7464 132.895 12.374C132.979 12.0016 133.021 11.5996 133.021 11.168C133.021 10.7617 132.966 10.3766 132.856 10.0127C132.746 9.6403 132.577 9.31445 132.349 9.03516C132.12 8.75586 131.824 8.53581 131.46 8.375C131.096 8.21419 130.66 8.13379 130.152 8.13379C129.45 8.13379 128.811 8.29036 128.235 8.60352C127.66 8.91667 127.131 9.32292 126.648 9.82227L125.43 8.3623C126.056 7.70215 126.775 7.17318 127.588 6.77539C128.409 6.3776 129.361 6.17871 130.444 6.17871C131.181 6.17871 131.849 6.28874 132.45 6.50879C133.06 6.72884 133.584 7.04622 134.024 7.46094C134.465 7.87565 134.803 8.38346 135.04 8.98438C135.285 9.58529 135.408 10.2624 135.408 11.0156C135.408 11.6504 135.324 12.2386 135.154 12.7803C134.985 13.3219 134.727 13.8636 134.38 14.4053C134.041 14.9385 133.61 15.4928 133.085 16.0684C132.569 16.6439 131.955 17.2744 131.244 17.96L128.235 20.8926H136.297V23Z" fill="black"/>
<path d="M10.4014 22.5303C9.82585 22.7503 9.2334 22.9111 8.62402 23.0127C8.02311 23.1227 7.40104 23.1777 6.75781 23.1777C4.74349 23.1777 3.19043 22.6318 2.09863 21.54C1.0153 20.4482 0.473633 18.8529 0.473633 16.7539C0.473633 15.7467 0.630208 14.8327 0.943359 14.0117C1.25651 13.1908 1.69661 12.4883 2.26367 11.9043C2.83073 11.3203 3.50781 10.8717 4.29492 10.5586C5.08203 10.237 5.94954 10.0762 6.89746 10.0762C7.55762 10.0762 8.17546 10.1227 8.75098 10.2158C9.3265 10.3089 9.87663 10.4613 10.4014 10.6729V12.7803C9.85124 12.4925 9.28841 12.2852 8.71289 12.1582C8.14583 12.0228 7.55762 11.9551 6.94824 11.9551C6.38118 11.9551 5.84375 12.0651 5.33594 12.2852C4.83659 12.4967 4.39648 12.8057 4.01562 13.2119C3.63477 13.6182 3.33431 14.1133 3.11426 14.6973C2.89421 15.2812 2.78418 15.9414 2.78418 16.6777C2.78418 18.2181 3.15658 19.3734 3.90137 20.1436C4.65462 20.9053 5.69564 21.2861 7.02441 21.2861C7.62533 21.2861 8.20508 21.2184 8.76367 21.083C9.33073 20.9476 9.87663 20.7445 10.4014 20.4736V22.5303ZM25.8896 16.5254C25.8896 17.5156 25.75 18.4255 25.4707 19.2549C25.1914 20.0758 24.7894 20.7826 24.2646 21.375C23.7399 21.959 23.1009 22.416 22.3477 22.7461C21.5944 23.0677 20.7396 23.2285 19.7832 23.2285C18.8691 23.2285 18.0482 23.0889 17.3203 22.8096C16.6009 22.5218 15.9873 22.1029 15.4795 21.5527C14.9801 21.0026 14.5951 20.3213 14.3242 19.5088C14.0618 18.6963 13.9307 17.7611 13.9307 16.7031C13.9307 15.7129 14.0703 14.8115 14.3496 13.999C14.6289 13.1781 15.0309 12.4756 15.5557 11.8916C16.0804 11.2992 16.7194 10.8421 17.4727 10.5205C18.2259 10.1904 19.0807 10.0254 20.0371 10.0254C20.9512 10.0254 21.7679 10.1693 22.4873 10.457C23.2152 10.7363 23.8288 11.151 24.3281 11.7012C24.8359 12.2428 25.221 12.9199 25.4834 13.7324C25.7542 14.5449 25.8896 15.4759 25.8896 16.5254ZM23.6299 16.627C23.6299 15.8398 23.541 15.1543 23.3633 14.5703C23.194 13.9779 22.9486 13.487 22.627 13.0977C22.3053 12.6999 21.9118 12.4036 21.4463 12.209C20.9893 12.0059 20.4772 11.9043 19.9102 11.9043C19.25 11.9043 18.6829 12.0355 18.209 12.2979C17.7435 12.5518 17.3584 12.8945 17.0537 13.3262C16.7575 13.7578 16.5374 14.2614 16.3936 14.8369C16.2581 15.404 16.1904 16.0007 16.1904 16.627C16.1904 17.4141 16.2751 18.1038 16.4443 18.6963C16.6221 19.2887 16.8717 19.7839 17.1934 20.1816C17.515 20.571 17.9043 20.8672 18.3613 21.0703C18.8184 21.265 19.3346 21.3623 19.9102 21.3623C20.5703 21.3623 21.1331 21.2354 21.5986 20.9814C22.0726 20.7191 22.4577 20.3721 22.7539 19.9404C23.0586 19.5088 23.2786 19.0094 23.4141 18.4424C23.5579 17.8669 23.6299 17.2617 23.6299 16.627ZM33.4307 6.87695H29.6602V5.06152H35.665V21.1592H39.4609V23H29.2412V21.1592H33.4307V6.87695ZM53.6289 23H51.6484L51.5723 20.9434C51.1914 21.3835 50.8275 21.7516 50.4805 22.0479C50.1419 22.3356 49.8034 22.5684 49.4648 22.7461C49.1263 22.9238 48.7835 23.0465 48.4365 23.1143C48.098 23.1904 47.7383 23.2285 47.3574 23.2285C46.0456 23.2285 45.0553 22.8434 44.3867 22.0732C43.7181 21.3031 43.3838 20.1393 43.3838 18.582V10.2539H45.5928V18.4043C45.5928 20.3594 46.3291 21.3369 47.8018 21.3369C48.0726 21.3369 48.335 21.2988 48.5889 21.2227C48.8512 21.138 49.1221 20.9984 49.4014 20.8037C49.6891 20.6006 49.9938 20.3298 50.3154 19.9912C50.6455 19.6527 51.0137 19.2253 51.4199 18.709V10.2539H53.6289V23ZM66.7686 23V13.8467C66.7686 13.4489 66.7516 13.123 66.7178 12.8691C66.6924 12.6152 66.6458 12.4163 66.5781 12.2725C66.5189 12.1201 66.4385 12.0143 66.3369 11.9551C66.2438 11.8958 66.1253 11.8662 65.9814 11.8662C65.8122 11.8662 65.6556 11.917 65.5117 12.0186C65.3678 12.1201 65.2113 12.2852 65.042 12.5137C64.8812 12.7422 64.6992 13.0469 64.4961 13.4277C64.3014 13.8001 64.0687 14.2614 63.7979 14.8115V23H61.7793V14.0879C61.7793 13.6224 61.7624 13.2458 61.7285 12.958C61.7031 12.6702 61.6566 12.446 61.5889 12.2852C61.5296 12.1243 61.4492 12.0143 61.3477 11.9551C61.2461 11.8958 61.1234 11.8662 60.9795 11.8662C60.8271 11.8662 60.6833 11.9085 60.5479 11.9932C60.4124 12.0778 60.2601 12.2301 60.0908 12.4502C59.93 12.6702 59.748 12.9707 59.5449 13.3516C59.3418 13.7324 59.1006 14.2191 58.8213 14.8115V23H56.79V10.2539H58.4785L58.5801 12.6787C58.8001 12.1963 59.0117 11.7858 59.2148 11.4473C59.4264 11.1087 59.6423 10.8379 59.8623 10.6348C60.0824 10.4232 60.3151 10.2708 60.5605 10.1777C60.8145 10.0762 61.0938 10.0254 61.3984 10.0254C62.084 10.0254 62.6045 10.2497 62.96 10.6982C63.3154 11.1468 63.4932 11.8408 63.4932 12.7803C63.6963 12.3402 63.8952 11.9508 64.0898 11.6123C64.2845 11.2653 64.4919 10.9775 64.7119 10.749C64.9404 10.512 65.1901 10.3343 65.4609 10.2158C65.7318 10.0889 66.0449 10.0254 66.4004 10.0254C68 10.0254 68.7998 11.2568 68.7998 13.7197V23H66.7686ZM71.9736 10.2539H73.9414L74.0303 12.3105C74.4027 11.8704 74.7624 11.5065 75.1094 11.2188C75.4564 10.9225 75.7949 10.6855 76.125 10.5078C76.4635 10.3301 76.8063 10.2074 77.1533 10.1396C77.5003 10.0635 77.86 10.0254 78.2324 10.0254C79.5443 10.0254 80.5345 10.4147 81.2031 11.1934C81.8802 11.9635 82.2188 13.1273 82.2188 14.6846V23H80.0098V14.8623C80.0098 13.8636 79.8236 13.1273 79.4512 12.6533C79.0788 12.1709 78.5244 11.9297 77.7881 11.9297C77.5173 11.9297 77.2507 11.972 76.9883 12.0566C76.7344 12.1328 76.4678 12.2725 76.1885 12.4756C75.9092 12.6702 75.6045 12.9368 75.2744 13.2754C74.9528 13.6139 74.5889 14.0371 74.1826 14.5449V23H71.9736V10.2539ZM91.3848 10.0254C91.6471 10.0254 91.8968 10.0804 92.1338 10.1904C92.3708 10.292 92.5781 10.4316 92.7559 10.6094C92.9336 10.7871 93.0732 10.9945 93.1748 11.2314C93.2848 11.4684 93.3398 11.7181 93.3398 11.9805C93.3398 12.2513 93.2848 12.5052 93.1748 12.7422C93.0732 12.9707 92.9336 13.1738 92.7559 13.3516C92.5781 13.5293 92.3708 13.6689 92.1338 13.7705C91.8968 13.8721 91.6471 13.9229 91.3848 13.9229C91.1139 13.9229 90.86 13.8721 90.623 13.7705C90.3945 13.6689 90.1914 13.5293 90.0137 13.3516C89.8359 13.1738 89.6963 12.9707 89.5947 12.7422C89.4932 12.5052 89.4424 12.2513 89.4424 11.9805C89.4424 11.7181 89.4932 11.4684 89.5947 11.2314C89.6963 10.9945 89.8359 10.7871 90.0137 10.6094C90.1914 10.4316 90.3945 10.292 90.623 10.1904C90.86 10.0804 91.1139 10.0254 91.3848 10.0254ZM91.3848 19.3311C91.6471 19.3311 91.8968 19.3861 92.1338 19.4961C92.3708 19.5977 92.5781 19.7373 92.7559 19.915C92.9336 20.0928 93.0732 20.3001 93.1748 20.5371C93.2848 20.7741 93.3398 21.0238 93.3398 21.2861C93.3398 21.557 93.2848 21.8109 93.1748 22.0479C93.0732 22.2764 92.9336 22.4795 92.7559 22.6572C92.5781 22.835 92.3708 22.9746 92.1338 23.0762C91.8968 23.1777 91.6471 23.2285 91.3848 23.2285C91.1139 23.2285 90.86 23.1777 90.623 23.0762C90.3945 22.9746 90.1914 22.835 90.0137 22.6572C89.8359 22.4795 89.6963 22.2764 89.5947 22.0479C89.4932 21.8109 89.4424 21.557 89.4424 21.2861C89.4424 21.0238 89.4932 20.7741 89.5947 20.5371C89.6963 20.3001 89.8359 20.0928 90.0137 19.915C90.1914 19.7373 90.3945 19.5977 90.623 19.4961C90.86 19.3861 91.1139 19.3311 91.3848 19.3311Z" fill="black"/>
<path d="M391.01 23H380.587V20.9434H384.853V8.83203L380.879 10.9902L380.066 9.11133L385.348 6.33105H387.303V20.9434H391.01V23Z" fill="black"/>
<path d="M463.149 23H452.219V21.0195L456.51 16.7539C457.212 16.0599 457.784 15.459 458.224 14.9512C458.664 14.4434 459.007 13.9821 459.252 13.5674C459.497 13.1442 459.662 12.7464 459.747 12.374C459.832 12.0016 459.874 11.5996 459.874 11.168C459.874 10.7617 459.819 10.3766 459.709 10.0127C459.599 9.6403 459.43 9.31445 459.201 9.03516C458.973 8.75586 458.676 8.53581 458.312 8.375C457.949 8.21419 457.513 8.13379 457.005 8.13379C456.302 8.13379 455.663 8.29036 455.088 8.60352C454.512 8.91667 453.983 9.32292 453.501 9.82227L452.282 8.3623C452.909 7.70215 453.628 7.17318 454.44 6.77539C455.261 6.3776 456.214 6.17871 457.297 6.17871C458.033 6.17871 458.702 6.28874 459.303 6.50879C459.912 6.72884 460.437 7.04622 460.877 7.46094C461.317 7.87565 461.656 8.38346 461.893 8.98438C462.138 9.58529 462.261 10.2624 462.261 11.0156C462.261 11.6504 462.176 12.2386 462.007 12.7803C461.838 13.3219 461.579 13.8636 461.232 14.4053C460.894 14.9385 460.462 15.4928 459.938 16.0684C459.421 16.6439 458.808 17.2744 458.097 17.96L455.088 20.8926H463.149V23Z" fill="black"/>
<circle cx="201" cy="166" r="23.75" stroke="black" stroke-width="2.5"/>
<circle cx="129" cy="256" r="23.75" stroke="black" stroke-width="2.5"/>
<circle cx="269" cy="256" r="23.75" stroke="black" stroke-width="2.5"/>
<path d="M136.019 266H123.406V263.715L128.357 258.793C129.168 257.992 129.827 257.299 130.335 256.713C130.843 256.127 131.238 255.595 131.521 255.116C131.805 254.628 131.995 254.169 132.093 253.739C132.19 253.31 132.239 252.846 132.239 252.348C132.239 251.879 132.176 251.435 132.049 251.015C131.922 250.585 131.727 250.209 131.463 249.887C131.199 249.564 130.857 249.311 130.438 249.125C130.018 248.939 129.515 248.847 128.929 248.847C128.118 248.847 127.381 249.027 126.717 249.389C126.053 249.75 125.442 250.219 124.886 250.795L123.479 249.11C124.202 248.349 125.032 247.738 125.97 247.279C126.917 246.82 128.016 246.591 129.266 246.591C130.115 246.591 130.887 246.718 131.58 246.972C132.283 247.226 132.889 247.592 133.396 248.07C133.904 248.549 134.295 249.135 134.568 249.828C134.852 250.521 134.993 251.303 134.993 252.172C134.993 252.904 134.896 253.583 134.7 254.208C134.505 254.833 134.207 255.458 133.807 256.083C133.416 256.698 132.918 257.338 132.312 258.002C131.717 258.666 131.009 259.394 130.188 260.185L126.717 263.568H136.019V266Z" fill="black"/>
<path d="M275.857 266H263.831V263.627H268.753V249.652L264.168 252.143L263.23 249.975L269.324 246.767H271.58V263.627H275.857V266Z" fill="black"/>
<line x1="140.037" y1="234.203" x2="183.037" y2="182.203" stroke="black" stroke-width="2.5"/>
<line y1="-1.25" x2="67.4759" y2="-1.25" transform="matrix(-0.637264 -0.770645 -0.770645 0.637264 260 235)" stroke="black" stroke-width="2.5"/>
<circle cx="385" cy="166" r="23.75" stroke="black" stroke-width="2.5"/>
<path d="M391.652 170.185C391.652 171.024 391.481 171.815 391.14 172.558C390.798 173.29 390.285 173.935 389.602 174.491C388.918 175.038 388.059 175.473 387.023 175.795C385.988 176.107 384.782 176.264 383.405 176.264C382.644 176.264 381.96 176.239 381.354 176.19C380.749 176.142 380.183 176.078 379.655 176V173.715C380.261 173.822 380.9 173.905 381.574 173.964C382.248 174.022 382.937 174.052 383.64 174.052C384.597 174.052 385.412 173.969 386.086 173.803C386.77 173.627 387.326 173.378 387.756 173.056C388.186 172.733 388.498 172.343 388.693 171.884C388.889 171.425 388.986 170.907 388.986 170.331C388.986 169.804 388.869 169.345 388.635 168.954C388.4 168.563 388.068 168.236 387.639 167.973C387.219 167.709 386.711 167.514 386.115 167.387C385.529 167.25 384.885 167.182 384.182 167.182H381.999V165.087H384.211C384.787 165.087 385.31 165.014 385.778 164.867C386.257 164.711 386.662 164.491 386.994 164.208C387.336 163.925 387.595 163.578 387.771 163.168C387.956 162.748 388.049 162.274 388.049 161.747C388.049 160.722 387.736 159.975 387.111 159.506C386.486 159.037 385.568 158.803 384.357 158.803C383.713 158.803 383.049 158.866 382.365 158.993C381.682 159.12 380.949 159.311 380.168 159.564V157.338C380.5 157.221 380.852 157.118 381.223 157.03C381.604 156.933 381.979 156.854 382.351 156.796C382.731 156.728 383.107 156.679 383.479 156.649C383.85 156.61 384.206 156.591 384.548 156.591C385.563 156.591 386.457 156.703 387.229 156.928C388 157.143 388.645 157.455 389.162 157.865C389.68 158.275 390.07 158.773 390.334 159.359C390.598 159.945 390.729 160.604 390.729 161.337C390.729 162.431 390.446 163.349 389.88 164.091C389.323 164.833 388.557 165.424 387.58 165.863C388.078 165.941 388.566 166.098 389.045 166.332C389.533 166.566 389.968 166.869 390.349 167.24C390.739 167.602 391.052 168.031 391.286 168.529C391.53 169.027 391.652 169.579 391.652 170.185Z" fill="black"/>
<circle cx="318" cy="256" r="23.75" stroke="black" stroke-width="2.5"/>
<circle cx="457" cy="256" r="23.75" stroke="black" stroke-width="2.5"/>
<path d="M325.971 261.767H322.704V266H320.097V261.767H310.883V259.525L319.042 246.854H322.704V259.525H325.971V261.767ZM320.097 249.315L313.432 259.525H320.097V249.315Z" fill="black"/>
<path d="M463.916 249.228L455.889 266H452.974L461.309 249.228H450.967V246.854H463.916V249.228Z" fill="black"/>
<line x1="326.037" y1="234.203" x2="369.037" y2="182.203" stroke="black" stroke-width="2.5"/>
<line y1="-1.25" x2="67.4759" y2="-1.25" transform="matrix(-0.637264 -0.770645 -0.770645 0.637264 445 235)" stroke="black" stroke-width="2.5"/>
<path d="M207.916 165.351C207.916 167.216 207.691 168.822 207.242 170.17C206.793 171.508 206.129 172.611 205.25 173.48C204.371 174.34 203.282 174.975 201.983 175.385C200.685 175.795 199.186 176 197.486 176H195.89V173.773H197.662C198.922 173.773 200.011 173.646 200.929 173.393C201.847 173.139 202.608 172.768 203.214 172.279C203.829 171.781 204.298 171.181 204.62 170.478C204.942 169.765 205.143 168.954 205.221 168.046L205.279 167.445C204.664 167.807 203.956 168.1 203.155 168.324C202.354 168.539 201.485 168.646 200.548 168.646C199.581 168.646 198.731 168.505 197.999 168.222C197.267 167.938 196.656 167.543 196.168 167.035C195.689 166.527 195.328 165.927 195.084 165.233C194.84 164.53 194.718 163.769 194.718 162.948C194.718 162.06 194.879 161.229 195.201 160.458C195.523 159.687 195.973 159.018 196.549 158.451C197.135 157.875 197.833 157.421 198.644 157.089C199.454 156.757 200.348 156.591 201.324 156.591C202.271 156.591 203.146 156.747 203.946 157.06C204.757 157.372 205.455 157.88 206.041 158.583C206.627 159.276 207.086 160.18 207.418 161.293C207.75 162.406 207.916 163.759 207.916 165.351ZM201.207 158.686C200.66 158.686 200.152 158.778 199.684 158.964C199.225 159.14 198.824 159.403 198.482 159.755C198.15 160.097 197.887 160.521 197.691 161.029C197.496 161.537 197.398 162.118 197.398 162.772C197.398 163.368 197.467 163.9 197.604 164.369C197.75 164.838 197.97 165.238 198.263 165.57C198.565 165.893 198.951 166.142 199.42 166.317C199.889 166.493 200.445 166.581 201.09 166.581C201.451 166.581 201.822 166.547 202.203 166.479C202.594 166.41 202.97 166.317 203.331 166.2C203.702 166.083 204.054 165.946 204.386 165.79C204.718 165.634 205.016 165.468 205.279 165.292C205.279 164.032 205.187 162.982 205.001 162.143C204.815 161.293 204.547 160.614 204.195 160.106C203.844 159.589 203.414 159.223 202.906 159.008C202.408 158.793 201.842 158.686 201.207 158.686Z" fill="black"/>
<rect x="243" y="34" width="100" height="7" fill="#FF5500"/>
<rect x="172" y="34" width="58" height="7" fill="#FF5500"/>
<rect x="101" y="34" width="57" height="7" fill="#FF5500"/>
<rect x="357" y="34" width="56" height="7" fill="#FF5500"/>
<rect x="429" y="34" width="57" height="7" fill="#FF5500"/>
</g>
<defs>
<clipPath id="clip0_6290_170">
<rect width="486" height="293" fill="white"/>
</clipPath>
</defs>
</svg>
