<svg width="660" height="338" viewBox="0 0 660 338" fill="none" xmlns="http://www.w3.org/2000/svg">
<g clip-path="url(#clip0_6291_1458)">
<rect width="660" height="338" fill="white"/>
<path d="M309.747 63.5821C309.793 62.8932 309.271 62.298 308.582 62.2527L297.356 61.5142C296.667 61.4688 296.072 61.9905 296.027 62.6794C295.982 63.3683 296.503 63.9634 297.192 64.0088L307.171 64.6652L306.514 74.6437C306.469 75.3325 306.991 75.9277 307.679 75.973C308.368 76.0184 308.963 75.4967 309.009 74.8078L309.747 63.5821ZM307.676 62.56L226.676 133.56L228.324 135.44L309.324 64.44L307.676 62.56Z" fill="black"/>
<circle cx="329" cy="44" r="23.75" fill="#FFF4EF" stroke="#FF5500" stroke-width="2.5"/>
<path d="M336.458 43.4346C336.458 44.8994 336.312 46.2373 336.019 47.4482C335.726 48.6494 335.281 49.6846 334.686 50.5537C334.09 51.4131 333.348 52.082 332.459 52.5605C331.58 53.0293 330.545 53.2637 329.354 53.2637C328.328 53.2637 327.396 53.0732 326.556 52.6924C325.716 52.3018 324.998 51.7061 324.402 50.9053C323.807 50.1045 323.348 49.084 323.025 47.8438C322.703 46.6035 322.542 45.1338 322.542 43.4346C322.542 41.9697 322.688 40.6318 322.981 39.4209C323.284 38.21 323.729 37.1748 324.314 36.3154C324.91 35.4463 325.652 34.7773 326.541 34.3086C327.43 33.8301 328.465 33.5908 329.646 33.5908C330.672 33.5908 331.604 33.7861 332.444 34.1768C333.284 34.5576 334.002 35.1533 334.598 35.9639C335.193 36.7646 335.652 37.7852 335.975 39.0254C336.297 40.2656 336.458 41.7354 336.458 43.4346ZM333.88 43.5225C333.88 43.1904 333.865 42.8633 333.836 42.541C333.816 42.209 333.792 41.8867 333.763 41.5742L325.662 47.5947C325.809 48.1025 325.994 48.5713 326.219 49.001C326.443 49.4307 326.712 49.8018 327.024 50.1143C327.347 50.417 327.708 50.6562 328.108 50.832C328.519 50.998 328.982 51.0811 329.5 51.0811C330.164 51.0811 330.765 50.9199 331.302 50.5977C331.849 50.2754 332.312 49.7969 332.693 49.1621C333.074 48.5273 333.367 47.7412 333.572 46.8037C333.777 45.8564 333.88 44.7627 333.88 43.5225ZM325.12 43.3467C325.12 43.6494 325.12 43.9521 325.12 44.2549C325.13 44.5576 325.149 44.8506 325.179 45.1338L333.279 39.1426C333.133 38.6445 332.947 38.1904 332.723 37.7803C332.498 37.3701 332.229 37.0186 331.917 36.7256C331.604 36.4229 331.248 36.1885 330.848 36.0225C330.447 35.8564 329.998 35.7734 329.5 35.7734C328.836 35.7734 328.23 35.9346 327.684 36.2568C327.146 36.5791 326.688 37.0625 326.307 37.707C325.926 38.3418 325.633 39.1328 325.428 40.0801C325.223 41.0176 325.12 42.1064 325.12 43.3467Z" fill="black"/>
<circle cx="228" cy="134" r="23.75" fill="white" stroke="black" stroke-width="2.5"/>
<path d="M234.857 144H222.831V141.627H227.753V127.652L223.168 130.143L222.23 127.975L228.324 124.767H230.58V141.627H234.857V144Z" fill="black"/>
<path d="M207.747 153.332C207.793 152.643 207.271 152.048 206.582 152.003L195.356 151.264C194.667 151.219 194.072 151.741 194.027 152.429C193.982 153.118 194.503 153.713 195.192 153.759L205.171 154.415L204.514 164.394C204.469 165.083 204.991 165.678 205.679 165.723C206.368 165.768 206.963 165.247 207.009 164.558L207.747 153.332ZM205.676 152.31L124.676 223.31L126.324 225.19L207.324 154.19L205.676 152.31Z" fill="black"/>
<circle cx="126" cy="223.75" r="23.75" fill="white" stroke="black" stroke-width="2.5"/>
<path d="M133.019 233.75H120.406V231.465L125.357 226.543C126.168 225.742 126.827 225.049 127.335 224.463C127.843 223.877 128.238 223.345 128.521 222.866C128.805 222.378 128.995 221.919 129.093 221.489C129.19 221.06 129.239 220.596 129.239 220.098C129.239 219.629 129.176 219.185 129.049 218.765C128.922 218.335 128.727 217.959 128.463 217.637C128.199 217.314 127.857 217.061 127.438 216.875C127.018 216.689 126.515 216.597 125.929 216.597C125.118 216.597 124.381 216.777 123.717 217.139C123.053 217.5 122.442 217.969 121.886 218.545L120.479 216.86C121.202 216.099 122.032 215.488 122.97 215.029C123.917 214.57 125.016 214.341 126.266 214.341C127.115 214.341 127.887 214.468 128.58 214.722C129.283 214.976 129.889 215.342 130.396 215.82C130.904 216.299 131.295 216.885 131.568 217.578C131.852 218.271 131.993 219.053 131.993 219.922C131.993 220.654 131.896 221.333 131.7 221.958C131.505 222.583 131.207 223.208 130.807 223.833C130.416 224.448 129.918 225.088 129.312 225.752C128.717 226.416 128.009 227.144 127.188 227.935L123.717 231.318H133.019V233.75Z" fill="black"/>
<path d="M106.747 242.332C106.793 241.643 106.271 241.048 105.582 241.003L94.3563 240.264C93.6675 240.219 93.0723 240.741 93.027 241.429C92.9816 242.118 93.5033 242.713 94.1922 242.759L104.171 243.415L103.514 253.394C103.469 254.083 103.991 254.678 104.679 254.723C105.368 254.768 105.963 254.247 106.009 253.558L106.747 242.332ZM104.676 241.31L23.676 312.31L25.3239 314.19L106.324 243.19L104.676 241.31Z" fill="black"/>
<circle cx="25" cy="312.75" r="23.75" fill="white" stroke="black" stroke-width="2.5"/>
<path d="M31.6523 316.935C31.6523 317.774 31.4814 318.565 31.1396 319.308C30.7979 320.04 30.2852 320.685 29.6016 321.241C28.918 321.788 28.0586 322.223 27.0234 322.545C25.9883 322.857 24.7822 323.014 23.4053 323.014C22.6436 323.014 21.96 322.989 21.3545 322.94C20.749 322.892 20.1826 322.828 19.6553 322.75V320.465C20.2607 320.572 20.9004 320.655 21.5742 320.714C22.248 320.772 22.9365 320.802 23.6396 320.802C24.5967 320.802 25.4121 320.719 26.0859 320.553C26.7695 320.377 27.3262 320.128 27.7559 319.806C28.1855 319.483 28.498 319.093 28.6934 318.634C28.8887 318.175 28.9863 317.657 28.9863 317.081C28.9863 316.554 28.8691 316.095 28.6348 315.704C28.4004 315.313 28.0684 314.986 27.6387 314.723C27.2188 314.459 26.7109 314.264 26.1152 314.137C25.5293 314 24.8848 313.932 24.1816 313.932H21.999V311.837H24.2109C24.7871 311.837 25.3096 311.764 25.7783 311.617C26.2568 311.461 26.6621 311.241 26.9941 310.958C27.3359 310.675 27.5947 310.328 27.7705 309.918C27.9561 309.498 28.0488 309.024 28.0488 308.497C28.0488 307.472 27.7363 306.725 27.1113 306.256C26.4863 305.787 25.5684 305.553 24.3574 305.553C23.7129 305.553 23.0488 305.616 22.3652 305.743C21.6816 305.87 20.9492 306.061 20.168 306.314V304.088C20.5 303.971 20.8516 303.868 21.2227 303.78C21.6035 303.683 21.9795 303.604 22.3506 303.546C22.7314 303.478 23.1074 303.429 23.4785 303.399C23.8496 303.36 24.2061 303.341 24.5479 303.341C25.5635 303.341 26.457 303.453 27.2285 303.678C28 303.893 28.6445 304.205 29.1621 304.615C29.6797 305.025 30.0703 305.523 30.334 306.109C30.5977 306.695 30.7295 307.354 30.7295 308.087C30.7295 309.181 30.4463 310.099 29.8799 310.841C29.3232 311.583 28.5566 312.174 27.5801 312.613C28.0781 312.691 28.5664 312.848 29.0449 313.082C29.5332 313.316 29.9678 313.619 30.3486 313.99C30.7393 314.352 31.0518 314.781 31.2861 315.279C31.5303 315.777 31.6523 316.329 31.6523 316.935Z" fill="black"/>
<path d="M309.747 63.5821C309.793 62.8932 309.271 62.298 308.582 62.2527L297.356 61.5142C296.667 61.4688 296.072 61.9905 296.027 62.6794C295.982 63.3683 296.503 63.9634 297.192 64.0088L307.171 64.6652L306.514 74.6437C306.469 75.3325 306.991 75.9277 307.679 75.973C308.368 76.0184 308.963 75.4967 309.009 74.8078L309.747 63.5821ZM307.676 62.56L226.676 133.56L228.324 135.44L309.324 64.44L307.676 62.56Z" fill="black"/>
<path d="M296.795 44.9646C297.328 44.5255 297.404 43.7377 296.965 43.205L289.81 34.5235C289.37 33.9908 288.583 33.9149 288.05 34.3539C287.517 34.793 287.441 35.5808 287.88 36.1135L294.24 43.8304L286.524 50.1904C285.991 50.6295 285.915 51.4173 286.354 51.9501C286.793 52.4828 287.581 52.5587 288.114 52.1197L296.795 44.9646ZM296.12 42.7558C294.719 42.6207 293.343 42.5076 291.993 42.4159L291.824 44.9102C293.15 45.0002 294.502 45.1114 295.88 45.2442L296.12 42.7558ZM283.862 42.1142C281.029 42.1016 278.322 42.1921 275.736 42.3779L275.915 44.8715C278.435 44.6905 281.079 44.6018 283.851 44.6142L283.862 42.1142ZM267.6 43.3316C264.762 43.8032 262.095 44.4038 259.587 45.1192L260.273 47.5232C262.686 46.835 265.261 46.2547 268.01 45.7977L267.6 43.3316ZM251.84 47.8959C249.2 49.0572 246.784 50.365 244.574 51.7926L245.931 53.8924C248.027 52.5382 250.325 51.2932 252.847 50.1843L251.84 47.8959ZM238.041 56.8735C235.945 58.8259 234.114 60.8998 232.514 63.0488L234.519 64.5416C236.033 62.5083 237.765 60.5479 239.745 58.7025L238.041 56.8735ZM228.167 70.0893C226.884 72.6202 225.852 75.1825 225.024 77.7108L227.4 78.4891C228.192 76.0694 229.177 73.626 230.397 71.2192L228.167 70.0893ZM222.996 85.7016C222.456 88.6075 222.145 91.3648 221.98 93.8581L224.475 94.0228C224.634 91.6142 224.934 88.9553 225.454 86.1579L222.996 85.7016ZM221.905 102.076C221.969 103.353 222.057 104.372 222.13 105.076C222.167 105.428 222.2 105.701 222.223 105.888C222.235 105.982 222.245 106.054 222.252 106.104C222.256 106.129 222.258 106.148 222.26 106.162C222.261 106.169 222.262 106.174 222.263 106.178C222.263 106.18 222.263 106.181 222.263 106.183C222.264 106.183 222.264 106.184 222.264 106.184C222.264 106.185 222.264 106.185 222.264 106.185C222.264 106.185 222.264 106.185 222.264 106.185C222.264 106.185 222.264 106.185 223.5 106C224.736 105.815 224.736 105.815 224.736 105.815C224.736 105.815 224.736 105.815 224.736 105.815C224.736 105.815 224.736 105.815 224.736 105.815C224.736 105.815 224.736 105.815 224.736 105.815C224.736 105.815 224.736 105.814 224.736 105.813C224.736 105.812 224.735 105.808 224.735 105.804C224.733 105.795 224.731 105.78 224.728 105.759C224.723 105.718 224.714 105.655 224.703 105.571C224.682 105.402 224.651 105.149 224.617 104.817C224.548 104.154 224.463 103.18 224.402 101.952L221.905 102.076Z" fill="#999999"/>
<path d="M253.03 141.462C252.595 141.998 252.676 142.785 253.212 143.22L261.944 150.314C262.48 150.749 263.267 150.667 263.702 150.131C264.138 149.596 264.056 148.808 263.52 148.373L255.758 142.068L262.063 134.306C262.499 133.77 262.417 132.983 261.881 132.548C261.345 132.113 260.558 132.194 260.123 132.73L253.03 141.462ZM254.129 143.494C255.605 143.341 257.049 143.165 258.461 142.969L258.116 140.492C256.734 140.685 255.319 140.857 253.871 141.007L254.129 143.494ZM266.945 141.454C269.901 140.802 272.697 140.047 275.34 139.2L274.577 136.819C272.011 137.641 269.29 138.377 266.407 139.012L266.945 141.454ZM283.451 136.121C286.221 134.889 288.786 133.546 291.162 132.112L289.87 129.972C287.585 131.351 285.112 132.646 282.435 133.836L283.451 136.121ZM298.3 127.103C300.658 125.186 302.766 123.173 304.651 121.1L302.801 119.418C300.999 121.4 298.981 123.326 296.723 125.163L298.3 127.103ZM310.017 114.21C311.695 111.677 313.104 109.119 314.285 106.592L312.02 105.534C310.888 107.956 309.539 110.406 307.933 112.828L310.017 114.21ZM317.411 98.456C318.339 95.4348 318.979 92.5656 319.417 89.9657L316.952 89.5505C316.53 92.0549 315.914 94.8165 315.021 97.7219L317.411 98.456ZM320.298 81.2918C320.343 79.9272 320.331 78.8375 320.307 78.0842C320.295 77.7075 320.28 77.4148 320.268 77.2137C320.262 77.1131 320.256 77.0355 320.252 76.9816C320.25 76.9547 320.249 76.9338 320.248 76.9189C320.247 76.9115 320.247 76.9056 320.246 76.9012C320.246 76.899 320.246 76.8972 320.246 76.8958C320.246 76.8951 320.246 76.8945 320.246 76.8939C320.246 76.8937 320.246 76.8934 320.245 76.8932C320.245 76.8931 320.245 76.893 320.245 76.8929C320.245 76.8928 320.245 76.8927 319 77C317.755 77.1074 317.755 77.1073 317.755 77.1072C317.755 77.1071 317.755 77.107 317.755 77.107C317.755 77.1069 317.755 77.1068 317.755 77.1067C317.755 77.1066 317.755 77.1065 317.755 77.1066C317.755 77.1067 317.755 77.1072 317.755 77.1081C317.755 77.1099 317.755 77.1132 317.756 77.1179C317.756 77.1275 317.758 77.1431 317.759 77.1646C317.762 77.2077 317.767 77.2743 317.772 77.3636C317.783 77.5422 317.797 77.8114 317.808 78.1635C317.83 78.868 317.842 79.9038 317.8 81.2101L320.298 81.2918Z" fill="#FF5500"/>
<path d="M151.155 234.462C150.72 234.998 150.801 235.785 151.337 236.22L160.069 243.313C160.605 243.749 161.392 243.667 161.827 243.131C162.263 242.596 162.181 241.808 161.645 241.373L153.883 235.068L160.188 227.306C160.624 226.77 160.542 225.983 160.006 225.548C159.47 225.112 158.683 225.194 158.248 225.73L151.155 234.462ZM152.254 236.494C153.73 236.341 155.174 236.165 156.586 235.968L156.241 233.492C154.859 233.685 153.444 233.857 151.996 234.007L152.254 236.494ZM165.07 234.454C168.026 233.802 170.822 233.047 173.465 232.2L172.702 229.819C170.136 230.641 167.415 231.377 164.532 232.012L165.07 234.454ZM181.576 229.121C184.346 227.889 186.911 226.546 189.287 225.112L187.995 222.972C185.71 224.351 183.237 225.646 180.56 226.836L181.576 229.121ZM196.425 220.103C198.783 218.186 200.891 216.173 202.776 214.1L200.926 212.418C199.124 214.4 197.106 216.326 194.848 218.163L196.425 220.103ZM208.142 207.21C209.82 204.677 211.229 202.119 212.41 199.592L210.145 198.534C209.013 200.956 207.664 203.406 206.058 205.828L208.142 207.21ZM215.536 191.456C216.464 188.435 217.104 185.566 217.542 182.966L215.077 182.55C214.655 185.055 214.039 187.816 213.146 190.722L215.536 191.456ZM218.423 174.292C218.468 172.927 218.456 171.837 218.432 171.084C218.42 170.707 218.405 170.415 218.393 170.214C218.387 170.113 218.381 170.035 218.377 169.982C218.375 169.955 218.374 169.934 218.373 169.919C218.372 169.911 218.372 169.906 218.371 169.901C218.371 169.899 218.371 169.897 218.371 169.896C218.371 169.895 218.371 169.894 218.371 169.894C218.371 169.894 218.371 169.893 218.37 169.893C218.37 169.893 218.37 169.893 218.37 169.893C218.37 169.893 218.37 169.893 217.125 170C215.88 170.107 215.88 170.107 215.88 170.107C215.88 170.107 215.88 170.107 215.88 170.107C215.88 170.107 215.88 170.107 215.88 170.107C215.88 170.107 215.88 170.107 215.88 170.107C215.88 170.107 215.88 170.107 215.88 170.108C215.88 170.11 215.88 170.113 215.881 170.118C215.881 170.127 215.883 170.143 215.884 170.165C215.887 170.208 215.892 170.274 215.897 170.364C215.908 170.542 215.922 170.811 215.933 171.164C215.955 171.868 215.967 172.904 215.925 174.21L218.423 174.292Z" fill="#FF5500"/>
<path d="M406.007 141.462C406.443 141.998 406.361 142.785 405.825 143.22L397.093 150.314C396.557 150.749 395.77 150.667 395.335 150.131C394.899 149.596 394.981 148.808 395.517 148.373L403.279 142.068L396.974 134.306C396.538 133.77 396.62 132.983 397.156 132.548C397.692 132.113 398.479 132.194 398.914 132.73L406.007 141.462ZM404.908 143.494C403.432 143.341 401.988 143.165 400.576 142.969L400.921 140.492C402.303 140.685 403.718 140.857 405.166 141.007L404.908 143.494ZM392.092 141.454C389.136 140.802 386.34 140.047 383.697 139.2L384.46 136.819C387.027 137.641 389.747 138.377 392.63 139.012L392.092 141.454ZM375.586 136.121C372.816 134.889 370.251 133.546 367.875 132.112L369.167 129.972C371.452 131.351 373.925 132.646 376.602 133.836L375.586 136.121ZM360.737 127.103C358.38 125.186 356.271 123.173 354.386 121.1L356.236 119.418C358.038 121.4 360.056 123.326 362.314 125.163L360.737 127.103ZM349.02 114.21C347.342 111.677 345.933 109.119 344.752 106.592L347.017 105.534C348.149 107.956 349.498 110.406 351.104 112.828L349.02 114.21ZM341.626 98.456C340.698 95.4348 340.058 92.5656 339.62 89.9657L342.085 89.5505C342.507 92.0549 343.123 94.8165 344.016 97.7219L341.626 98.456ZM338.739 81.2918C338.694 79.9272 338.707 78.8375 338.73 78.0842C338.742 77.7075 338.757 77.4148 338.769 77.2137C338.775 77.1131 338.781 77.0355 338.785 76.9816C338.787 76.9547 338.788 76.9338 338.79 76.9189C338.79 76.9115 338.791 76.9056 338.791 76.9012C338.791 76.899 338.791 76.8972 338.791 76.8958C338.791 76.8951 338.792 76.8945 338.792 76.8939C338.792 76.8937 338.792 76.8934 338.792 76.8932C338.792 76.8931 338.792 76.893 338.792 76.8929C338.792 76.8928 338.792 76.8927 340.037 77C341.282 77.1074 341.282 77.1073 341.282 77.1072C341.282 77.1071 341.282 77.107 341.282 77.107C341.282 77.1069 341.282 77.1068 341.282 77.1067C341.282 77.1066 341.282 77.1065 341.282 77.1066C341.282 77.1067 341.282 77.1072 341.282 77.1081C341.282 77.1099 341.282 77.1132 341.282 77.1179C341.281 77.1275 341.28 77.1431 341.278 77.1646C341.275 77.2077 341.27 77.2743 341.265 77.3636C341.254 77.5422 341.24 77.8114 341.229 78.1635C341.207 78.868 341.195 79.9038 341.237 81.2101L338.739 81.2918Z" fill="#FF5500"/>
<path d="M193.724 134.644C194.257 134.205 194.333 133.417 193.894 132.884L186.739 124.203C186.3 123.67 185.512 123.594 184.979 124.033C184.446 124.472 184.37 125.26 184.81 125.793L191.17 133.51L183.453 139.87C182.92 140.309 182.844 141.097 183.283 141.629C183.722 142.162 184.51 142.238 185.043 141.799L193.724 134.644ZM193.049 132.435C191.648 132.3 190.272 132.187 188.922 132.095L188.753 134.589C190.079 134.679 191.431 134.791 192.809 134.923L193.049 132.435ZM180.792 131.793C177.959 131.781 175.252 131.871 172.665 132.057L172.844 134.551C175.364 134.37 178.008 134.281 180.781 134.293L180.792 131.793ZM164.529 133.011C161.692 133.482 159.024 134.083 156.517 134.798L157.202 137.202C159.615 136.514 162.19 135.934 164.939 135.477L164.529 133.011ZM148.769 137.575C146.129 138.736 143.713 140.044 141.503 141.472L142.86 143.572C144.956 142.217 147.255 140.972 149.776 139.864L148.769 137.575ZM134.97 146.553C132.874 148.505 131.043 150.579 129.443 152.728L131.448 154.221C132.962 152.188 134.694 150.227 136.674 148.382L134.97 146.553ZM125.096 159.769C123.814 162.299 122.781 164.862 121.953 167.39L124.329 168.168C125.122 165.749 126.107 163.305 127.326 160.898L125.096 159.769ZM119.925 175.381C119.385 178.287 119.074 181.044 118.91 183.537L121.404 183.702C121.563 181.293 121.863 178.634 122.383 175.837L119.925 175.381ZM118.834 191.755C118.898 193.032 118.986 194.051 119.059 194.755C119.096 195.107 119.129 195.38 119.153 195.567C119.165 195.661 119.174 195.733 119.181 195.783C119.185 195.808 119.188 195.827 119.19 195.841C119.191 195.848 119.191 195.853 119.192 195.857C119.192 195.859 119.192 195.861 119.193 195.862C119.193 195.863 119.193 195.863 119.193 195.864C119.193 195.864 119.193 195.864 119.193 195.864C119.193 195.864 119.193 195.864 119.193 195.864C119.193 195.865 119.193 195.865 120.429 195.679C121.665 195.494 121.665 195.494 121.665 195.494C121.665 195.494 121.665 195.494 121.665 195.494C121.665 195.494 121.665 195.494 121.665 195.494C121.665 195.494 121.665 195.494 121.665 195.494C121.665 195.494 121.665 195.494 121.665 195.493C121.665 195.491 121.664 195.488 121.664 195.483C121.662 195.474 121.66 195.459 121.657 195.438C121.652 195.397 121.643 195.334 121.632 195.25C121.611 195.082 121.58 194.828 121.546 194.497C121.477 193.834 121.392 192.86 121.331 191.631L118.834 191.755Z" fill="#999999"/>
<path d="M89.7242 224.644C90.2569 224.205 90.3329 223.417 89.8938 222.884L82.7388 214.203C82.2997 213.67 81.5119 213.594 80.9791 214.033C80.4464 214.472 80.3705 215.26 80.8095 215.793L87.1696 223.51L79.4527 229.87C78.92 230.309 78.8441 231.097 79.2831 231.629C79.7222 232.162 80.51 232.238 81.0427 231.799L89.7242 224.644ZM89.0491 222.435C87.6478 222.3 86.2724 222.187 84.9224 222.095L84.7529 224.589C86.0789 224.679 87.4308 224.791 88.8093 224.923L89.0491 222.435ZM76.7917 221.793C73.9586 221.781 71.2517 221.871 68.6653 222.057L68.8444 224.551C71.3644 224.37 74.0077 224.281 76.7806 224.293L76.7917 221.793ZM60.5295 223.011C57.6915 223.482 55.0239 224.083 52.5166 224.798L53.2025 227.202C55.6148 226.514 58.1901 225.934 60.9394 225.477L60.5295 223.011ZM44.7695 227.575C42.1289 228.736 39.7129 230.044 37.5035 231.472L38.8603 233.572C40.956 232.217 43.2546 230.972 45.7759 229.864L44.7695 227.575ZM30.9698 236.553C28.8745 238.505 27.0428 240.579 25.4431 242.728L27.4485 244.221C28.962 242.188 30.6937 240.227 32.6741 238.382L30.9698 236.553ZM21.0958 249.769C19.8136 252.299 18.7814 254.862 17.9531 257.39L20.3289 258.168C21.1215 255.749 22.1065 253.305 23.3259 250.898L21.0958 249.769ZM15.9249 265.381C15.3853 268.287 15.0742 271.044 14.9096 273.537L17.4042 273.702C17.5632 271.293 17.8635 268.634 18.3829 265.837L15.9249 265.381ZM14.8344 281.755C14.8978 283.032 14.9862 284.051 15.0593 284.755C15.0959 285.107 15.1287 285.38 15.1527 285.567C15.1646 285.661 15.1744 285.733 15.1813 285.783C15.1848 285.808 15.1876 285.827 15.1895 285.841C15.1905 285.848 15.1913 285.853 15.1919 285.857C15.1922 285.859 15.1924 285.861 15.1926 285.862C15.1927 285.863 15.1928 285.863 15.1929 285.864C15.1929 285.864 15.1929 285.864 15.193 285.864C15.193 285.864 15.193 285.864 15.193 285.864C15.193 285.865 15.193 285.865 16.4292 285.679C17.6654 285.494 17.6654 285.494 17.6654 285.494C17.6654 285.494 17.6654 285.494 17.6654 285.494C17.6654 285.494 17.6654 285.494 17.6654 285.494C17.6655 285.494 17.6655 285.494 17.6654 285.494C17.6654 285.494 17.6653 285.494 17.6652 285.493C17.6649 285.491 17.6645 285.488 17.6638 285.483C17.6625 285.474 17.6603 285.459 17.6575 285.438C17.6518 285.397 17.6432 285.334 17.6325 285.25C17.6109 285.082 17.5804 284.828 17.5459 284.497C17.477 283.834 17.3923 282.86 17.3313 281.631L14.8344 281.755Z" fill="#999999"/>
<circle cx="228" cy="134" r="23.75" fill="white" stroke="black" stroke-width="2.5"/>
<path d="M234.857 144H222.831V141.627H227.753V127.652L223.168 130.143L222.23 127.975L228.324 124.767H230.58V141.627H234.857V144Z" fill="black"/>
<path d="M207.747 153.332C207.793 152.643 207.271 152.048 206.582 152.003L195.356 151.264C194.667 151.219 194.072 151.741 194.027 152.429C193.982 153.118 194.503 153.713 195.192 153.759L205.171 154.415L204.514 164.394C204.469 165.083 204.991 165.678 205.679 165.723C206.368 165.768 206.963 165.247 207.009 164.558L207.747 153.332ZM205.676 152.31L124.676 223.31L126.324 225.19L207.324 154.19L205.676 152.31Z" fill="black"/>
<circle cx="126" cy="223.75" r="23.75" fill="white" stroke="black" stroke-width="2.5"/>
<path d="M133.019 233.75H120.406V231.465L125.357 226.543C126.168 225.742 126.827 225.049 127.335 224.463C127.843 223.877 128.238 223.345 128.521 222.866C128.805 222.378 128.995 221.919 129.093 221.489C129.19 221.06 129.239 220.596 129.239 220.098C129.239 219.629 129.176 219.185 129.049 218.765C128.922 218.335 128.727 217.959 128.463 217.637C128.199 217.314 127.857 217.061 127.438 216.875C127.018 216.689 126.515 216.597 125.929 216.597C125.118 216.597 124.381 216.777 123.717 217.139C123.053 217.5 122.442 217.969 121.886 218.545L120.479 216.86C121.202 216.099 122.032 215.488 122.97 215.029C123.917 214.57 125.016 214.341 126.266 214.341C127.115 214.341 127.887 214.468 128.58 214.722C129.283 214.976 129.889 215.342 130.396 215.82C130.904 216.299 131.295 216.885 131.568 217.578C131.852 218.271 131.993 219.053 131.993 219.922C131.993 220.654 131.896 221.333 131.7 221.958C131.505 222.583 131.207 223.208 130.807 223.833C130.416 224.448 129.918 225.088 129.312 225.752C128.717 226.416 128.009 227.144 127.188 227.935L123.717 231.318H133.019V233.75Z" fill="black"/>
<path d="M106.747 242.332C106.793 241.643 106.271 241.048 105.582 241.003L94.3563 240.264C93.6675 240.219 93.0723 240.741 93.027 241.429C92.9816 242.118 93.5033 242.713 94.1922 242.759L104.171 243.415L103.514 253.394C103.469 254.083 103.991 254.678 104.679 254.723C105.368 254.768 105.963 254.247 106.009 253.558L106.747 242.332ZM104.676 241.31L23.676 312.31L25.3239 314.19L106.324 243.19L104.676 241.31Z" fill="black"/>
<circle cx="25" cy="312.75" r="23.75" fill="white" stroke="black" stroke-width="2.5"/>
<path d="M31.6523 316.935C31.6523 317.774 31.4814 318.565 31.1396 319.308C30.7979 320.04 30.2852 320.685 29.6016 321.241C28.918 321.788 28.0586 322.223 27.0234 322.545C25.9883 322.857 24.7822 323.014 23.4053 323.014C22.6436 323.014 21.96 322.989 21.3545 322.94C20.749 322.892 20.1826 322.828 19.6553 322.75V320.465C20.2607 320.572 20.9004 320.655 21.5742 320.714C22.248 320.772 22.9365 320.802 23.6396 320.802C24.5967 320.802 25.4121 320.719 26.0859 320.553C26.7695 320.377 27.3262 320.128 27.7559 319.806C28.1855 319.483 28.498 319.093 28.6934 318.634C28.8887 318.175 28.9863 317.657 28.9863 317.081C28.9863 316.554 28.8691 316.095 28.6348 315.704C28.4004 315.313 28.0684 314.986 27.6387 314.723C27.2188 314.459 26.7109 314.264 26.1152 314.137C25.5293 314 24.8848 313.932 24.1816 313.932H21.999V311.837H24.2109C24.7871 311.837 25.3096 311.764 25.7783 311.617C26.2568 311.461 26.6621 311.241 26.9941 310.958C27.3359 310.675 27.5947 310.328 27.7705 309.918C27.9561 309.498 28.0488 309.024 28.0488 308.497C28.0488 307.472 27.7363 306.725 27.1113 306.256C26.4863 305.787 25.5684 305.553 24.3574 305.553C23.7129 305.553 23.0488 305.616 22.3652 305.743C21.6816 305.87 20.9492 306.061 20.168 306.314V304.088C20.5 303.971 20.8516 303.868 21.2227 303.78C21.6035 303.683 21.9795 303.604 22.3506 303.546C22.7314 303.478 23.1074 303.429 23.4785 303.399C23.8496 303.36 24.2061 303.341 24.5479 303.341C25.5635 303.341 26.457 303.453 27.2285 303.678C28 303.893 28.6445 304.205 29.1621 304.615C29.6797 305.025 30.0703 305.523 30.334 306.109C30.5977 306.695 30.7295 307.354 30.7295 308.087C30.7295 309.181 30.4463 310.099 29.8799 310.841C29.3232 311.583 28.5566 312.174 27.5801 312.613C28.0781 312.691 28.5664 312.848 29.0449 313.082C29.5332 313.316 29.9678 313.619 30.3486 313.99C30.7393 314.352 31.0518 314.781 31.2861 315.279C31.5303 315.777 31.6523 316.329 31.6523 316.935Z" fill="black"/>
<path d="M349.753 63.5821C349.707 62.8932 350.229 62.298 350.918 62.2527L362.144 61.5142C362.833 61.4688 363.428 61.9905 363.473 62.6794C363.518 63.3683 362.997 63.9634 362.308 64.0088L352.329 64.6652L352.986 74.6437C353.031 75.3325 352.509 75.9277 351.821 75.973C351.132 76.0184 350.537 75.4967 350.491 74.8078L349.753 63.5821ZM351.824 62.56L432.824 133.56L431.176 135.44L350.176 64.44L351.824 62.56Z" fill="black"/>
<circle cx="25" cy="25" r="23.75" transform="matrix(-1 0 0 1 456.5 109)" fill="white" stroke="black" stroke-width="2.5"/>
<path d="M424.643 144H436.669V141.627H431.747V127.652L436.332 130.143L437.27 127.975L431.176 124.767H428.92V141.627H424.643V144Z" fill="black"/>
<path d="M451.753 153.332C451.707 152.643 452.229 152.048 452.918 152.003L464.144 151.264C464.833 151.219 465.428 151.741 465.473 152.429C465.518 153.118 464.997 153.713 464.308 153.759L454.329 154.415L454.986 164.394C455.031 165.083 454.509 165.678 453.821 165.723C453.132 165.768 452.537 165.247 452.491 164.558L451.753 153.332ZM453.824 152.31L534.824 223.31L533.176 225.19L452.176 154.19L453.824 152.31Z" fill="black"/>
<circle cx="25" cy="25" r="23.75" transform="matrix(-1 0 0 1 558.5 198.75)" fill="white" stroke="black" stroke-width="2.5"/>
<path d="M526.481 233.75H539.094V231.465L534.143 226.543C533.332 225.742 532.673 225.049 532.165 224.463C531.657 223.877 531.262 223.345 530.979 222.866C530.695 222.378 530.505 221.919 530.407 221.489C530.31 221.06 530.261 220.596 530.261 220.098C530.261 219.629 530.324 219.185 530.451 218.765C530.578 218.335 530.773 217.959 531.037 217.637C531.301 217.314 531.643 217.061 532.062 216.875C532.482 216.689 532.985 216.597 533.571 216.597C534.382 216.597 535.119 216.777 535.783 217.139C536.447 217.5 537.058 217.969 537.614 218.545L539.021 216.86C538.298 216.099 537.468 215.488 536.53 215.029C535.583 214.57 534.484 214.341 533.234 214.341C532.385 214.341 531.613 214.468 530.92 214.722C530.217 214.976 529.611 215.342 529.104 215.82C528.596 216.299 528.205 216.885 527.932 217.578C527.648 218.271 527.507 219.053 527.507 219.922C527.507 220.654 527.604 221.333 527.8 221.958C527.995 222.583 528.293 223.208 528.693 223.833C529.084 224.448 529.582 225.088 530.188 225.752C530.783 226.416 531.491 227.144 532.312 227.935L535.783 231.318H526.481V233.75Z" fill="black"/>
<path d="M552.753 242.332C552.707 241.643 553.229 241.048 553.918 241.003L565.144 240.264C565.833 240.219 566.428 240.741 566.473 241.429C566.518 242.118 565.997 242.713 565.308 242.759L555.329 243.415L555.986 253.394C556.031 254.083 555.509 254.678 554.821 254.723C554.132 254.768 553.537 254.247 553.491 253.558L552.753 242.332ZM554.824 241.31L635.824 312.31L634.176 314.19L553.176 243.19L554.824 241.31Z" fill="black"/>
<circle cx="25" cy="25" r="23.75" transform="matrix(-1 0 0 1 659.5 287.75)" fill="white" stroke="black" stroke-width="2.5"/>
<path d="M627.848 316.935C627.848 317.774 628.019 318.565 628.36 319.308C628.702 320.04 629.215 320.685 629.898 321.241C630.582 321.788 631.441 322.223 632.477 322.545C633.512 322.857 634.718 323.014 636.095 323.014C636.856 323.014 637.54 322.989 638.146 322.94C638.751 322.892 639.317 322.828 639.845 322.75V320.465C639.239 320.572 638.6 320.655 637.926 320.714C637.252 320.772 636.563 320.802 635.86 320.802C634.903 320.802 634.088 320.719 633.414 320.553C632.73 320.377 632.174 320.128 631.744 319.806C631.314 319.483 631.002 319.093 630.807 318.634C630.611 318.175 630.514 317.657 630.514 317.081C630.514 316.554 630.631 316.095 630.865 315.704C631.1 315.313 631.432 314.986 631.861 314.723C632.281 314.459 632.789 314.264 633.385 314.137C633.971 314 634.615 313.932 635.318 313.932H637.501V311.837H635.289C634.713 311.837 634.19 311.764 633.722 311.617C633.243 311.461 632.838 311.241 632.506 310.958C632.164 310.675 631.905 310.328 631.729 309.918C631.544 309.498 631.451 309.024 631.451 308.497C631.451 307.472 631.764 306.725 632.389 306.256C633.014 305.787 633.932 305.553 635.143 305.553C635.787 305.553 636.451 305.616 637.135 305.743C637.818 305.87 638.551 306.061 639.332 306.314V304.088C639 303.971 638.648 303.868 638.277 303.78C637.896 303.683 637.521 303.604 637.149 303.546C636.769 303.478 636.393 303.429 636.021 303.399C635.65 303.36 635.294 303.341 634.952 303.341C633.937 303.341 633.043 303.453 632.271 303.678C631.5 303.893 630.855 304.205 630.338 304.615C629.82 305.025 629.43 305.523 629.166 306.109C628.902 306.695 628.771 307.354 628.771 308.087C628.771 309.181 629.054 310.099 629.62 310.841C630.177 311.583 630.943 312.174 631.92 312.613C631.422 312.691 630.934 312.848 630.455 313.082C629.967 313.316 629.532 313.619 629.151 313.99C628.761 314.352 628.448 314.781 628.214 315.279C627.97 315.777 627.848 316.329 627.848 316.935Z" fill="black"/>
<path d="M349.753 63.5821C349.707 62.8932 350.229 62.298 350.918 62.2527L362.144 61.5142C362.833 61.4688 363.428 61.9905 363.473 62.6794C363.518 63.3683 362.997 63.9634 362.308 64.0088L352.329 64.6652L352.986 74.6437C353.031 75.3325 352.509 75.9277 351.821 75.973C351.132 76.0184 350.537 75.4967 350.491 74.8078L349.753 63.5821ZM351.824 62.56L432.824 133.56L431.176 135.44L350.176 64.44L351.824 62.56Z" fill="black"/>
<circle cx="25" cy="25" r="23.75" transform="matrix(-1 0 0 1 456.5 109)" fill="white" stroke="black" stroke-width="2.5"/>
<path d="M438.471 139.767H435.204V144H432.597V139.767H423.383V137.525L431.542 124.854H435.204V137.525H438.471V139.767ZM432.597 127.315L425.932 137.525H432.597V127.315Z" fill="black"/>
<path d="M451.753 153.332C451.707 152.643 452.229 152.048 452.918 152.003L464.144 151.264C464.833 151.219 465.428 151.741 465.473 152.429C465.518 153.118 464.997 153.713 464.308 153.759L454.329 154.415L454.986 164.394C455.031 165.083 454.509 165.678 453.821 165.723C453.132 165.768 452.537 165.247 452.491 164.558L451.753 153.332ZM453.824 152.31L534.824 223.31L533.176 225.19L452.176 154.19L453.824 152.31Z" fill="black"/>
<circle cx="25" cy="25" r="23.75" transform="matrix(-1 0 0 1 558.5 198.75)" fill="white" stroke="black" stroke-width="2.5"/>
<path d="M539.035 227.627C539.035 228.574 538.83 229.438 538.42 230.22C538.01 231.001 537.443 231.675 536.721 232.241C536.008 232.798 535.163 233.232 534.187 233.545C533.21 233.857 532.155 234.014 531.022 234.014C530.739 234.014 530.432 234.004 530.1 233.984C529.777 233.975 529.455 233.955 529.133 233.926C528.811 233.906 528.493 233.882 528.181 233.853C527.878 233.823 527.604 233.789 527.36 233.75V231.436C527.888 231.562 528.488 231.655 529.162 231.714C529.846 231.772 530.534 231.802 531.228 231.802C532.009 231.802 532.712 231.709 533.337 231.523C533.962 231.338 534.494 231.074 534.934 230.732C535.373 230.381 535.71 229.961 535.944 229.473C536.179 228.975 536.296 228.418 536.296 227.803C536.296 226.611 535.866 225.747 535.007 225.21C534.157 224.663 532.932 224.39 531.33 224.39H527.697V214.604H538.01V216.831H530.1V222.207H531.77C532.688 222.207 533.581 222.29 534.45 222.456C535.319 222.622 536.091 222.915 536.765 223.335C537.448 223.745 537.995 224.302 538.405 225.005C538.825 225.698 539.035 226.572 539.035 227.627Z" fill="black"/>
<path d="M552.753 242.332C552.707 241.643 553.229 241.048 553.918 241.003L565.144 240.264C565.833 240.219 566.428 240.741 566.473 241.429C566.518 242.118 565.997 242.713 565.308 242.759L555.329 243.415L555.986 253.394C556.031 254.083 555.509 254.678 554.821 254.723C554.132 254.768 553.537 254.247 553.491 253.558L552.753 242.332ZM554.824 241.31L635.824 312.31L634.176 314.19L553.176 243.19L554.824 241.31Z" fill="black"/>
<circle cx="25" cy="25" r="23.75" transform="matrix(-1 0 0 1 659.5 287.75)" fill="white" stroke="black" stroke-width="2.5"/>
<path d="M640.753 316.686C640.753 317.564 640.592 318.39 640.27 319.161C639.957 319.933 639.508 320.606 638.922 321.183C638.336 321.749 637.628 322.198 636.798 322.53C635.978 322.853 635.064 323.014 634.059 323.014C633.004 323.014 632.071 322.848 631.261 322.516C630.45 322.174 629.771 321.656 629.225 320.963C628.678 320.26 628.263 319.376 627.979 318.312C627.696 317.247 627.555 315.987 627.555 314.532C627.555 313.556 627.618 312.608 627.745 311.69C627.872 310.772 628.082 309.908 628.375 309.098C628.668 308.287 629.059 307.545 629.547 306.871C630.035 306.197 630.641 305.621 631.363 305.143C632.096 304.654 632.955 304.278 633.941 304.015C634.928 303.741 636.07 303.604 637.369 303.604H639.259V305.831H637.208C636.065 305.831 635.074 305.968 634.234 306.241C633.395 306.515 632.691 306.9 632.125 307.398C631.559 307.896 631.124 308.497 630.821 309.2C630.519 309.903 630.328 310.689 630.25 311.559L630.191 312.159C630.807 311.798 631.515 311.51 632.315 311.295C633.126 311.07 634 310.958 634.938 310.958C635.904 310.958 636.749 311.1 637.472 311.383C638.204 311.666 638.81 312.062 639.288 312.569C639.776 313.067 640.143 313.668 640.387 314.371C640.631 315.074 640.753 315.846 640.753 316.686ZM638.087 316.847C638.087 316.261 638.014 315.733 637.867 315.265C637.73 314.786 637.511 314.386 637.208 314.063C636.905 313.731 636.52 313.478 636.051 313.302C635.592 313.116 635.04 313.023 634.396 313.023C634.024 313.023 633.648 313.058 633.268 313.126C632.887 313.194 632.511 313.292 632.14 313.419C631.778 313.536 631.432 313.673 631.1 313.829C630.768 313.985 630.465 314.151 630.191 314.327C630.191 315.587 630.279 316.642 630.455 317.491C630.631 318.331 630.89 319.005 631.231 319.513C631.583 320.021 632.013 320.382 632.521 320.597C633.028 320.812 633.614 320.919 634.278 320.919C634.835 320.919 635.343 320.831 635.802 320.655C636.271 320.47 636.671 320.201 637.003 319.85C637.345 319.498 637.608 319.073 637.794 318.575C637.989 318.067 638.087 317.491 638.087 316.847Z" fill="black"/>
<path d="M310.552 1.25391H312.57L312.634 3.60254C313.387 2.69694 314.128 2.04102 314.855 1.63477C315.592 1.22852 316.332 1.02539 317.077 1.02539C318.397 1.02539 319.396 1.4528 320.073 2.30762C320.759 3.16243 321.076 4.43197 321.025 6.11621H318.791C318.816 4.99902 318.651 4.19076 318.296 3.69141C317.949 3.18359 317.437 2.92969 316.76 2.92969C316.464 2.92969 316.163 2.9847 315.858 3.09473C315.562 3.19629 315.253 3.36556 314.932 3.60254C314.618 3.83105 314.284 4.12728 313.929 4.49121C313.573 4.85514 313.192 5.29525 312.786 5.81152V14H310.552V1.25391ZM335.092 6.9541C335.092 7.26725 335.088 7.52962 335.079 7.74121C335.071 7.9528 335.058 8.15169 335.041 8.33789H326.091C326.091 9.64128 326.455 10.6442 327.183 11.3467C327.91 12.0407 328.96 12.3877 330.331 12.3877C330.703 12.3877 331.076 12.375 331.448 12.3496C331.821 12.3158 332.18 12.2734 332.527 12.2227C332.874 12.1719 333.204 12.1169 333.518 12.0576C333.839 11.9899 334.135 11.918 334.406 11.8418V13.6572C333.805 13.8265 333.124 13.9619 332.362 14.0635C331.609 14.1735 330.826 14.2285 330.014 14.2285C328.922 14.2285 327.982 14.0804 327.195 13.7842C326.408 13.488 325.761 13.0605 325.253 12.502C324.754 11.9349 324.381 11.2451 324.136 10.4326C323.899 9.61165 323.78 8.6849 323.78 7.65234C323.78 6.75521 323.907 5.90885 324.161 5.11328C324.424 4.30924 324.8 3.60677 325.291 3.00586C325.79 2.39648 326.4 1.91406 327.119 1.55859C327.839 1.20312 328.655 1.02539 329.569 1.02539C330.458 1.02539 331.245 1.16504 331.931 1.44434C332.616 1.72363 333.192 2.12142 333.657 2.6377C334.131 3.14551 334.487 3.76758 334.724 4.50391C334.969 5.23177 335.092 6.0485 335.092 6.9541ZM332.794 6.63672C332.819 6.06966 332.764 5.55339 332.629 5.08789C332.493 4.61393 332.282 4.20768 331.994 3.86914C331.715 3.5306 331.364 3.26823 330.94 3.08203C330.517 2.88737 330.026 2.79004 329.468 2.79004C328.985 2.79004 328.545 2.88314 328.147 3.06934C327.75 3.25553 327.407 3.5179 327.119 3.85645C326.831 4.19499 326.599 4.60124 326.421 5.0752C326.243 5.54915 326.133 6.06966 326.091 6.63672H332.794ZM349.514 7.39844C349.514 8.53255 349.353 9.52279 349.031 10.3691C348.718 11.2155 348.282 11.918 347.724 12.4766C347.165 13.0352 346.505 13.4541 345.743 13.7334C344.981 14.0127 344.156 14.1523 343.268 14.1523C342.861 14.1523 342.455 14.1312 342.049 14.0889C341.651 14.0465 341.245 13.9746 340.83 13.873V19.2051H338.621V1.25391H340.589L340.729 3.38672C341.363 2.51497 342.04 1.9056 342.76 1.55859C343.479 1.20312 344.258 1.02539 345.096 1.02539C345.824 1.02539 346.463 1.17773 347.013 1.48242C347.563 1.78711 348.024 2.21875 348.396 2.77734C348.769 3.32747 349.048 3.99609 349.234 4.7832C349.421 5.56185 349.514 6.43359 349.514 7.39844ZM347.254 7.5C347.254 6.83138 347.203 6.21777 347.102 5.65918C347.008 5.10059 346.856 4.6224 346.645 4.22461C346.433 3.82682 346.162 3.5179 345.832 3.29785C345.502 3.06934 345.108 2.95508 344.651 2.95508C344.372 2.95508 344.089 3.00163 343.801 3.09473C343.513 3.17936 343.213 3.32747 342.899 3.53906C342.595 3.74219 342.269 4.01725 341.922 4.36426C341.583 4.7028 341.219 5.12598 340.83 5.63379V11.8164C341.236 11.9857 341.664 12.1211 342.112 12.2227C342.561 12.3158 343.001 12.3623 343.433 12.3623C344.626 12.3623 345.561 11.9603 346.238 11.1562C346.915 10.3438 347.254 9.125 347.254 7.5Z" fill="#FF5500"/>
<path d="M275.192 150.254H277.211L277.274 152.603C278.028 151.697 278.768 151.041 279.496 150.635C280.232 150.229 280.973 150.025 281.718 150.025C283.038 150.025 284.037 150.453 284.714 151.308C285.399 152.162 285.717 153.432 285.666 155.116H283.432C283.457 153.999 283.292 153.191 282.937 152.691C282.59 152.184 282.077 151.93 281.4 151.93C281.104 151.93 280.804 151.985 280.499 152.095C280.203 152.196 279.894 152.366 279.572 152.603C279.259 152.831 278.925 153.127 278.569 153.491C278.214 153.855 277.833 154.295 277.427 154.812V163H275.192V150.254ZM299.732 155.954C299.732 156.267 299.728 156.53 299.72 156.741C299.711 156.953 299.699 157.152 299.682 157.338H290.731C290.731 158.641 291.095 159.644 291.823 160.347C292.551 161.041 293.601 161.388 294.972 161.388C295.344 161.388 295.716 161.375 296.089 161.35C296.461 161.316 296.821 161.273 297.168 161.223C297.515 161.172 297.845 161.117 298.158 161.058C298.48 160.99 298.776 160.918 299.047 160.842V162.657C298.446 162.826 297.765 162.962 297.003 163.063C296.25 163.174 295.467 163.229 294.654 163.229C293.562 163.229 292.623 163.08 291.836 162.784C291.049 162.488 290.401 162.061 289.894 161.502C289.394 160.935 289.022 160.245 288.776 159.433C288.539 158.612 288.421 157.685 288.421 156.652C288.421 155.755 288.548 154.909 288.802 154.113C289.064 153.309 289.441 152.607 289.932 152.006C290.431 151.396 291.04 150.914 291.76 150.559C292.479 150.203 293.296 150.025 294.21 150.025C295.099 150.025 295.886 150.165 296.571 150.444C297.257 150.724 297.832 151.121 298.298 151.638C298.772 152.146 299.127 152.768 299.364 153.504C299.61 154.232 299.732 155.049 299.732 155.954ZM297.435 155.637C297.46 155.07 297.405 154.553 297.27 154.088C297.134 153.614 296.923 153.208 296.635 152.869C296.355 152.531 296.004 152.268 295.581 152.082C295.158 151.887 294.667 151.79 294.108 151.79C293.626 151.79 293.186 151.883 292.788 152.069C292.39 152.256 292.048 152.518 291.76 152.856C291.472 153.195 291.239 153.601 291.062 154.075C290.884 154.549 290.774 155.07 290.731 155.637H297.435ZM313.532 162.822C313.033 162.949 312.517 163.038 311.983 163.089C311.45 163.148 310.909 163.178 310.358 163.178C308.759 163.178 307.565 162.818 306.778 162.099C305.991 161.371 305.598 160.258 305.598 158.76V152.107H302.03V150.254H305.598V146.75L307.807 146.179V150.254H313.532V152.107H307.807V158.582C307.807 159.496 308.048 160.182 308.53 160.639C309.021 161.087 309.741 161.312 310.688 161.312C311.095 161.312 311.539 161.282 312.021 161.223C312.504 161.155 313.007 161.053 313.532 160.918V162.822ZM327.802 163H325.821L325.745 160.943C325.364 161.383 325 161.752 324.653 162.048C324.315 162.336 323.976 162.568 323.638 162.746C323.299 162.924 322.956 163.047 322.609 163.114C322.271 163.19 321.911 163.229 321.53 163.229C320.218 163.229 319.228 162.843 318.56 162.073C317.891 161.303 317.557 160.139 317.557 158.582V150.254H319.766V158.404C319.766 160.359 320.502 161.337 321.975 161.337C322.245 161.337 322.508 161.299 322.762 161.223C323.024 161.138 323.295 160.998 323.574 160.804C323.862 160.601 324.167 160.33 324.488 159.991C324.818 159.653 325.187 159.225 325.593 158.709V150.254H327.802V163ZM332.372 150.254H334.391L334.454 152.603C335.207 151.697 335.948 151.041 336.676 150.635C337.412 150.229 338.153 150.025 338.897 150.025C340.218 150.025 341.216 150.453 341.894 151.308C342.579 152.162 342.896 153.432 342.846 155.116H340.611C340.637 153.999 340.472 153.191 340.116 152.691C339.769 152.184 339.257 151.93 338.58 151.93C338.284 151.93 337.983 151.985 337.679 152.095C337.382 152.196 337.074 152.366 336.752 152.603C336.439 152.831 336.104 153.127 335.749 153.491C335.394 153.855 335.013 154.295 334.606 154.812V163H332.372V150.254ZM346.146 150.254H348.114L348.203 152.311C348.576 151.87 348.935 151.507 349.282 151.219C349.629 150.923 349.968 150.686 350.298 150.508C350.636 150.33 350.979 150.207 351.326 150.14C351.673 150.063 352.033 150.025 352.405 150.025C353.717 150.025 354.707 150.415 355.376 151.193C356.053 151.964 356.392 153.127 356.392 154.685V163H354.183V154.862C354.183 153.864 353.996 153.127 353.624 152.653C353.252 152.171 352.697 151.93 351.961 151.93C351.69 151.93 351.424 151.972 351.161 152.057C350.907 152.133 350.641 152.272 350.361 152.476C350.082 152.67 349.777 152.937 349.447 153.275C349.126 153.614 348.762 154.037 348.355 154.545V163H346.146V150.254ZM385.883 154.71C385.883 155.979 385.756 157.139 385.502 158.188C385.248 159.229 384.863 160.127 384.347 160.88C383.83 161.625 383.187 162.204 382.417 162.619C381.655 163.025 380.758 163.229 379.726 163.229C378.837 163.229 378.029 163.063 377.301 162.733C376.573 162.395 375.951 161.879 375.435 161.185C374.918 160.491 374.521 159.606 374.241 158.531C373.962 157.456 373.822 156.183 373.822 154.71C373.822 153.44 373.949 152.281 374.203 151.231C374.465 150.182 374.851 149.285 375.358 148.54C375.875 147.787 376.518 147.207 377.288 146.801C378.058 146.386 378.955 146.179 379.979 146.179C380.868 146.179 381.676 146.348 382.404 146.687C383.132 147.017 383.754 147.533 384.271 148.235C384.787 148.929 385.185 149.814 385.464 150.889C385.743 151.964 385.883 153.237 385.883 154.71ZM383.648 154.786C383.648 154.498 383.636 154.215 383.61 153.936C383.593 153.648 383.572 153.368 383.547 153.098L376.526 158.315C376.653 158.756 376.814 159.162 377.009 159.534C377.203 159.907 377.436 160.228 377.707 160.499C377.986 160.761 378.299 160.969 378.646 161.121C379.002 161.265 379.404 161.337 379.853 161.337C380.428 161.337 380.949 161.197 381.414 160.918C381.888 160.639 382.29 160.224 382.62 159.674C382.95 159.124 383.204 158.442 383.382 157.63C383.56 156.809 383.648 155.861 383.648 154.786ZM376.057 154.634C376.057 154.896 376.057 155.159 376.057 155.421C376.065 155.683 376.082 155.937 376.107 156.183L383.128 150.99C383.001 150.559 382.84 150.165 382.646 149.81C382.451 149.454 382.218 149.149 381.947 148.896C381.676 148.633 381.368 148.43 381.021 148.286C380.674 148.142 380.284 148.07 379.853 148.07C379.277 148.07 378.752 148.21 378.278 148.489C377.813 148.769 377.415 149.188 377.085 149.746C376.755 150.296 376.501 150.982 376.323 151.803C376.146 152.615 376.057 153.559 376.057 154.634Z" fill="#FF5500"/>
<path d="M198.192 232.254H200.211L200.274 234.603C201.028 233.697 201.768 233.041 202.496 232.635C203.232 232.229 203.973 232.025 204.718 232.025C206.038 232.025 207.037 232.453 207.714 233.308C208.399 234.162 208.717 235.432 208.666 237.116H206.432C206.457 235.999 206.292 235.191 205.937 234.691C205.59 234.184 205.077 233.93 204.4 233.93C204.104 233.93 203.804 233.985 203.499 234.095C203.203 234.196 202.894 234.366 202.572 234.603C202.259 234.831 201.925 235.127 201.569 235.491C201.214 235.855 200.833 236.295 200.427 236.812V245H198.192V232.254ZM222.732 237.954C222.732 238.267 222.728 238.53 222.72 238.741C222.711 238.953 222.699 239.152 222.682 239.338H213.731C213.731 240.641 214.095 241.644 214.823 242.347C215.551 243.041 216.601 243.388 217.972 243.388C218.344 243.388 218.716 243.375 219.089 243.35C219.461 243.316 219.821 243.273 220.168 243.223C220.515 243.172 220.845 243.117 221.158 243.058C221.48 242.99 221.776 242.918 222.047 242.842V244.657C221.446 244.826 220.765 244.962 220.003 245.063C219.25 245.174 218.467 245.229 217.654 245.229C216.562 245.229 215.623 245.08 214.836 244.784C214.049 244.488 213.401 244.061 212.894 243.502C212.394 242.935 212.022 242.245 211.776 241.433C211.539 240.612 211.421 239.685 211.421 238.652C211.421 237.755 211.548 236.909 211.802 236.113C212.064 235.309 212.441 234.607 212.932 234.006C213.431 233.396 214.04 232.914 214.76 232.559C215.479 232.203 216.296 232.025 217.21 232.025C218.099 232.025 218.886 232.165 219.571 232.444C220.257 232.724 220.832 233.121 221.298 233.638C221.772 234.146 222.127 234.768 222.364 235.504C222.61 236.232 222.732 237.049 222.732 237.954ZM220.435 237.637C220.46 237.07 220.405 236.553 220.27 236.088C220.134 235.614 219.923 235.208 219.635 234.869C219.355 234.531 219.004 234.268 218.581 234.082C218.158 233.887 217.667 233.79 217.108 233.79C216.626 233.79 216.186 233.883 215.788 234.069C215.39 234.256 215.048 234.518 214.76 234.856C214.472 235.195 214.239 235.601 214.062 236.075C213.884 236.549 213.774 237.07 213.731 237.637H220.435ZM236.532 244.822C236.033 244.949 235.517 245.038 234.983 245.089C234.45 245.148 233.909 245.178 233.358 245.178C231.759 245.178 230.565 244.818 229.778 244.099C228.991 243.371 228.598 242.258 228.598 240.76V234.107H225.03V232.254H228.598V228.75L230.807 228.179V232.254H236.532V234.107H230.807V240.582C230.807 241.496 231.048 242.182 231.53 242.639C232.021 243.087 232.741 243.312 233.688 243.312C234.095 243.312 234.539 243.282 235.021 243.223C235.504 243.155 236.007 243.053 236.532 242.918V244.822ZM250.802 245H248.821L248.745 242.943C248.364 243.383 248 243.752 247.653 244.048C247.315 244.336 246.976 244.568 246.638 244.746C246.299 244.924 245.956 245.047 245.609 245.114C245.271 245.19 244.911 245.229 244.53 245.229C243.218 245.229 242.228 244.843 241.56 244.073C240.891 243.303 240.557 242.139 240.557 240.582V232.254H242.766V240.404C242.766 242.359 243.502 243.337 244.975 243.337C245.245 243.337 245.508 243.299 245.762 243.223C246.024 243.138 246.295 242.998 246.574 242.804C246.862 242.601 247.167 242.33 247.488 241.991C247.818 241.653 248.187 241.225 248.593 240.709V232.254H250.802V245ZM255.372 232.254H257.391L257.454 234.603C258.207 233.697 258.948 233.041 259.676 232.635C260.412 232.229 261.153 232.025 261.897 232.025C263.218 232.025 264.216 232.453 264.894 233.308C265.579 234.162 265.896 235.432 265.846 237.116H263.611C263.637 235.999 263.472 235.191 263.116 234.691C262.769 234.184 262.257 233.93 261.58 233.93C261.284 233.93 260.983 233.985 260.679 234.095C260.382 234.196 260.074 234.366 259.752 234.603C259.439 234.831 259.104 235.127 258.749 235.491C258.394 235.855 258.013 236.295 257.606 236.812V245H255.372V232.254ZM269.146 232.254H271.114L271.203 234.311C271.576 233.87 271.935 233.507 272.282 233.219C272.629 232.923 272.968 232.686 273.298 232.508C273.636 232.33 273.979 232.207 274.326 232.14C274.673 232.063 275.033 232.025 275.405 232.025C276.717 232.025 277.707 232.415 278.376 233.193C279.053 233.964 279.392 235.127 279.392 236.685V245H277.183V236.862C277.183 235.864 276.996 235.127 276.624 234.653C276.252 234.171 275.697 233.93 274.961 233.93C274.69 233.93 274.424 233.972 274.161 234.057C273.907 234.133 273.641 234.272 273.361 234.476C273.082 234.67 272.777 234.937 272.447 235.275C272.126 235.614 271.762 236.037 271.355 236.545V245H269.146V232.254ZM308.883 236.71C308.883 237.979 308.756 239.139 308.502 240.188C308.248 241.229 307.863 242.127 307.347 242.88C306.83 243.625 306.187 244.204 305.417 244.619C304.655 245.025 303.758 245.229 302.726 245.229C301.837 245.229 301.029 245.063 300.301 244.733C299.573 244.395 298.951 243.879 298.435 243.185C297.918 242.491 297.521 241.606 297.241 240.531C296.962 239.456 296.822 238.183 296.822 236.71C296.822 235.44 296.949 234.281 297.203 233.231C297.465 232.182 297.851 231.285 298.358 230.54C298.875 229.787 299.518 229.207 300.288 228.801C301.058 228.386 301.955 228.179 302.979 228.179C303.868 228.179 304.676 228.348 305.404 228.687C306.132 229.017 306.754 229.533 307.271 230.235C307.787 230.929 308.185 231.814 308.464 232.889C308.743 233.964 308.883 235.237 308.883 236.71ZM306.648 236.786C306.648 236.498 306.636 236.215 306.61 235.936C306.593 235.648 306.572 235.368 306.547 235.098L299.526 240.315C299.653 240.756 299.814 241.162 300.009 241.534C300.203 241.907 300.436 242.228 300.707 242.499C300.986 242.761 301.299 242.969 301.646 243.121C302.002 243.265 302.404 243.337 302.853 243.337C303.428 243.337 303.949 243.197 304.414 242.918C304.888 242.639 305.29 242.224 305.62 241.674C305.95 241.124 306.204 240.442 306.382 239.63C306.56 238.809 306.648 237.861 306.648 236.786ZM299.057 236.634C299.057 236.896 299.057 237.159 299.057 237.421C299.065 237.683 299.082 237.937 299.107 238.183L306.128 232.99C306.001 232.559 305.84 232.165 305.646 231.81C305.451 231.454 305.218 231.149 304.947 230.896C304.676 230.633 304.368 230.43 304.021 230.286C303.674 230.142 303.284 230.07 302.853 230.07C302.277 230.07 301.752 230.21 301.278 230.489C300.813 230.769 300.415 231.188 300.085 231.746C299.755 232.296 299.501 232.982 299.323 233.803C299.146 234.615 299.057 235.559 299.057 236.634Z" fill="#FF5500"/>
<path d="M50.1548 323.462C49.7196 323.998 49.8011 324.785 50.3369 325.22L59.0691 332.314C59.605 332.749 60.3922 332.667 60.8275 332.131C61.2627 331.596 61.1812 330.808 60.6453 330.373L52.8834 324.068L59.1884 316.306C59.6237 315.77 59.5421 314.983 59.0063 314.548C58.4704 314.113 57.6832 314.194 57.2479 314.73L50.1548 323.462ZM51.2538 325.494C52.7302 325.341 54.174 325.165 55.5862 324.969L55.2411 322.492C53.8587 322.685 52.444 322.857 50.9963 323.007L51.2538 325.494ZM64.0701 323.454C67.0264 322.802 69.8218 322.047 72.4648 321.2L71.7022 318.819C69.1356 319.641 66.4152 320.377 63.5319 321.012L64.0701 323.454ZM80.5757 318.121C83.3456 316.889 85.911 315.546 88.2867 314.112L86.9948 311.972C84.7098 313.351 82.2368 314.646 79.5601 315.836L80.5757 318.121ZM95.4252 309.103C97.7826 307.186 99.8909 305.173 101.776 303.1L99.9262 301.418C98.1239 303.4 96.1063 305.326 93.8477 307.163L95.4252 309.103ZM107.142 296.21C108.82 293.677 110.229 291.119 111.41 288.592L109.145 287.534C108.013 289.956 106.664 292.406 105.058 294.828L107.142 296.21ZM114.536 280.456C115.464 277.435 116.104 274.566 116.542 271.966L114.077 271.55C113.655 274.055 113.039 276.817 112.146 279.722L114.536 280.456ZM117.423 263.292C117.468 261.927 117.456 260.837 117.432 260.084C117.42 259.708 117.405 259.415 117.393 259.214C117.387 259.113 117.381 259.035 117.377 258.982C117.375 258.955 117.374 258.934 117.373 258.919C117.372 258.911 117.372 258.906 117.371 258.901C117.371 258.899 117.371 258.897 117.371 258.896C117.371 258.895 117.371 258.894 117.371 258.894C117.371 258.894 117.371 258.893 117.37 258.893C117.37 258.893 117.37 258.893 117.37 258.893C117.37 258.893 117.37 258.893 116.125 259C114.88 259.107 114.88 259.107 114.88 259.107C114.88 259.107 114.88 259.107 114.88 259.107C114.88 259.107 114.88 259.107 114.88 259.107C114.88 259.107 114.88 259.107 114.88 259.107C114.88 259.107 114.88 259.107 114.88 259.108C114.88 259.11 114.88 259.113 114.881 259.118C114.881 259.128 114.883 259.143 114.884 259.165C114.887 259.208 114.892 259.274 114.897 259.364C114.908 259.542 114.922 259.811 114.933 260.164C114.955 260.868 114.967 261.904 114.925 263.21L117.423 263.292Z" fill="#FF5500"/>
<path d="M108.192 309.254H110.211L110.274 311.603C111.028 310.697 111.768 310.041 112.496 309.635C113.232 309.229 113.973 309.025 114.718 309.025C116.038 309.025 117.037 309.453 117.714 310.308C118.399 311.162 118.717 312.432 118.666 314.116H116.432C116.457 312.999 116.292 312.191 115.937 311.691C115.59 311.184 115.077 310.93 114.4 310.93C114.104 310.93 113.804 310.985 113.499 311.095C113.203 311.196 112.894 311.366 112.572 311.603C112.259 311.831 111.925 312.127 111.569 312.491C111.214 312.855 110.833 313.295 110.427 313.812V322H108.192V309.254ZM132.732 314.954C132.732 315.267 132.728 315.53 132.72 315.741C132.711 315.953 132.699 316.152 132.682 316.338H123.731C123.731 317.641 124.095 318.644 124.823 319.347C125.551 320.041 126.601 320.388 127.972 320.388C128.344 320.388 128.716 320.375 129.089 320.35C129.461 320.316 129.821 320.273 130.168 320.223C130.515 320.172 130.845 320.117 131.158 320.058C131.48 319.99 131.776 319.918 132.047 319.842V321.657C131.446 321.826 130.765 321.962 130.003 322.063C129.25 322.174 128.467 322.229 127.654 322.229C126.562 322.229 125.623 322.08 124.836 321.784C124.049 321.488 123.401 321.061 122.894 320.502C122.394 319.935 122.022 319.245 121.776 318.433C121.539 317.612 121.421 316.685 121.421 315.652C121.421 314.755 121.548 313.909 121.802 313.113C122.064 312.309 122.441 311.607 122.932 311.006C123.431 310.396 124.04 309.914 124.76 309.559C125.479 309.203 126.296 309.025 127.21 309.025C128.099 309.025 128.886 309.165 129.571 309.444C130.257 309.724 130.832 310.121 131.298 310.638C131.772 311.146 132.127 311.768 132.364 312.504C132.61 313.232 132.732 314.049 132.732 314.954ZM130.435 314.637C130.46 314.07 130.405 313.553 130.27 313.088C130.134 312.614 129.923 312.208 129.635 311.869C129.355 311.531 129.004 311.268 128.581 311.082C128.158 310.887 127.667 310.79 127.108 310.79C126.626 310.79 126.186 310.883 125.788 311.069C125.39 311.256 125.048 311.518 124.76 311.856C124.472 312.195 124.239 312.601 124.062 313.075C123.884 313.549 123.774 314.07 123.731 314.637H130.435ZM146.532 321.822C146.033 321.949 145.517 322.038 144.983 322.089C144.45 322.148 143.909 322.178 143.358 322.178C141.759 322.178 140.565 321.818 139.778 321.099C138.991 320.371 138.598 319.258 138.598 317.76V311.107H135.03V309.254H138.598V305.75L140.807 305.179V309.254H146.532V311.107H140.807V317.582C140.807 318.496 141.048 319.182 141.53 319.639C142.021 320.087 142.741 320.312 143.688 320.312C144.095 320.312 144.539 320.282 145.021 320.223C145.504 320.155 146.007 320.053 146.532 319.918V321.822ZM160.802 322H158.821L158.745 319.943C158.364 320.383 158 320.752 157.653 321.048C157.315 321.336 156.976 321.568 156.638 321.746C156.299 321.924 155.956 322.047 155.609 322.114C155.271 322.19 154.911 322.229 154.53 322.229C153.218 322.229 152.228 321.843 151.56 321.073C150.891 320.303 150.557 319.139 150.557 317.582V309.254H152.766V317.404C152.766 319.359 153.502 320.337 154.975 320.337C155.245 320.337 155.508 320.299 155.762 320.223C156.024 320.138 156.295 319.998 156.574 319.804C156.862 319.601 157.167 319.33 157.488 318.991C157.818 318.653 158.187 318.225 158.593 317.709V309.254H160.802V322ZM165.372 309.254H167.391L167.454 311.603C168.207 310.697 168.948 310.041 169.676 309.635C170.412 309.229 171.153 309.025 171.897 309.025C173.218 309.025 174.216 309.453 174.894 310.308C175.579 311.162 175.896 312.432 175.846 314.116H173.611C173.637 312.999 173.472 312.191 173.116 311.691C172.769 311.184 172.257 310.93 171.58 310.93C171.284 310.93 170.983 310.985 170.679 311.095C170.382 311.196 170.074 311.366 169.752 311.603C169.439 311.831 169.104 312.127 168.749 312.491C168.394 312.855 168.013 313.295 167.606 313.812V322H165.372V309.254ZM179.146 309.254H181.114L181.203 311.311C181.576 310.87 181.935 310.507 182.282 310.219C182.629 309.923 182.968 309.686 183.298 309.508C183.636 309.33 183.979 309.207 184.326 309.14C184.673 309.063 185.033 309.025 185.405 309.025C186.717 309.025 187.707 309.415 188.376 310.193C189.053 310.964 189.392 312.127 189.392 313.685V322H187.183V313.862C187.183 312.864 186.996 312.127 186.624 311.653C186.252 311.171 185.697 310.93 184.961 310.93C184.69 310.93 184.424 310.972 184.161 311.057C183.907 311.133 183.641 311.272 183.361 311.476C183.082 311.67 182.777 311.937 182.447 312.275C182.126 312.614 181.762 313.037 181.355 313.545V322H179.146V309.254ZM218.883 313.71C218.883 314.979 218.756 316.139 218.502 317.188C218.248 318.229 217.863 319.127 217.347 319.88C216.83 320.625 216.187 321.204 215.417 321.619C214.655 322.025 213.758 322.229 212.726 322.229C211.837 322.229 211.029 322.063 210.301 321.733C209.573 321.395 208.951 320.879 208.435 320.185C207.918 319.491 207.521 318.606 207.241 317.531C206.962 316.456 206.822 315.183 206.822 313.71C206.822 312.44 206.949 311.281 207.203 310.231C207.465 309.182 207.851 308.285 208.358 307.54C208.875 306.787 209.518 306.207 210.288 305.801C211.058 305.386 211.955 305.179 212.979 305.179C213.868 305.179 214.676 305.348 215.404 305.687C216.132 306.017 216.754 306.533 217.271 307.235C217.787 307.929 218.185 308.814 218.464 309.889C218.743 310.964 218.883 312.237 218.883 313.71ZM216.648 313.786C216.648 313.498 216.636 313.215 216.61 312.936C216.593 312.648 216.572 312.368 216.547 312.098L209.526 317.315C209.653 317.756 209.814 318.162 210.009 318.534C210.203 318.907 210.436 319.228 210.707 319.499C210.986 319.761 211.299 319.969 211.646 320.121C212.002 320.265 212.404 320.337 212.853 320.337C213.428 320.337 213.949 320.197 214.414 319.918C214.888 319.639 215.29 319.224 215.62 318.674C215.95 318.124 216.204 317.442 216.382 316.63C216.56 315.809 216.648 314.861 216.648 313.786ZM209.057 313.634C209.057 313.896 209.057 314.159 209.057 314.421C209.065 314.683 209.082 314.937 209.107 315.183L216.128 309.99C216.001 309.559 215.84 309.165 215.646 308.81C215.451 308.454 215.218 308.149 214.947 307.896C214.676 307.633 214.368 307.43 214.021 307.286C213.674 307.142 213.284 307.07 212.853 307.07C212.277 307.07 211.752 307.21 211.278 307.489C210.813 307.769 210.415 308.188 210.085 308.746C209.755 309.296 209.501 309.982 209.323 310.803C209.146 311.615 209.057 312.559 209.057 313.634Z" fill="#FF5500"/>
<path d="M609.845 323.462C610.28 323.998 610.199 324.785 609.663 325.22L600.931 332.314C600.395 332.749 599.608 332.667 599.173 332.131C598.737 331.596 598.819 330.808 599.355 330.373L607.117 324.068L600.812 316.306C600.376 315.77 600.458 314.983 600.994 314.548C601.53 314.113 602.317 314.194 602.752 314.73L609.845 323.462ZM608.746 325.494C607.27 325.341 605.826 325.165 604.414 324.969L604.759 322.492C606.141 322.685 607.556 322.857 609.004 323.007L608.746 325.494ZM595.93 323.454C592.974 322.802 590.178 322.047 587.535 321.2L588.298 318.819C590.864 319.641 593.585 320.377 596.468 321.012L595.93 323.454ZM579.424 318.121C576.654 316.889 574.089 315.546 571.713 314.112L573.005 311.972C575.29 313.351 577.763 314.646 580.44 315.836L579.424 318.121ZM564.575 309.103C562.217 307.186 560.109 305.173 558.224 303.1L560.074 301.418C561.876 303.4 563.894 305.326 566.152 307.163L564.575 309.103ZM552.858 296.21C551.18 293.677 549.771 291.119 548.59 288.592L550.855 287.534C551.987 289.956 553.336 292.406 554.942 294.828L552.858 296.21ZM545.464 280.456C544.536 277.435 543.896 274.566 543.458 271.966L545.923 271.55C546.345 274.055 546.961 276.817 547.854 279.722L545.464 280.456ZM542.577 263.292C542.532 261.927 542.544 260.837 542.568 260.084C542.58 259.708 542.595 259.415 542.607 259.214C542.613 259.113 542.619 259.035 542.623 258.982C542.625 258.955 542.626 258.934 542.627 258.919C542.628 258.911 542.628 258.906 542.629 258.901C542.629 258.899 542.629 258.897 542.629 258.896C542.629 258.895 542.629 258.894 542.629 258.894C542.629 258.894 542.629 258.893 542.63 258.893C542.63 258.893 542.63 258.893 542.63 258.893C542.63 258.893 542.63 258.893 543.875 259C545.12 259.107 545.12 259.107 545.12 259.107C545.12 259.107 545.12 259.107 545.12 259.107C545.12 259.107 545.12 259.107 545.12 259.107C545.12 259.107 545.12 259.107 545.12 259.107C545.12 259.107 545.12 259.107 545.12 259.108C545.12 259.11 545.12 259.113 545.119 259.118C545.119 259.128 545.117 259.143 545.116 259.165C545.113 259.208 545.108 259.274 545.103 259.364C545.092 259.542 545.078 259.811 545.067 260.164C545.045 260.868 545.033 261.904 545.075 263.21L542.577 263.292Z" fill="#FF5500"/>
<path d="M439.192 309.254H441.211L441.274 311.603C442.028 310.697 442.768 310.041 443.496 309.635C444.232 309.229 444.973 309.025 445.718 309.025C447.038 309.025 448.037 309.453 448.714 310.308C449.399 311.162 449.717 312.432 449.666 314.116H447.432C447.457 312.999 447.292 312.191 446.937 311.691C446.59 311.184 446.077 310.93 445.4 310.93C445.104 310.93 444.804 310.985 444.499 311.095C444.203 311.196 443.894 311.366 443.572 311.603C443.259 311.831 442.925 312.127 442.569 312.491C442.214 312.855 441.833 313.295 441.427 313.812V322H439.192V309.254ZM463.732 314.954C463.732 315.267 463.728 315.53 463.72 315.741C463.711 315.953 463.699 316.152 463.682 316.338H454.731C454.731 317.641 455.095 318.644 455.823 319.347C456.551 320.041 457.601 320.388 458.972 320.388C459.344 320.388 459.716 320.375 460.089 320.35C460.461 320.316 460.821 320.273 461.168 320.223C461.515 320.172 461.845 320.117 462.158 320.058C462.48 319.99 462.776 319.918 463.047 319.842V321.657C462.446 321.826 461.765 321.962 461.003 322.063C460.25 322.174 459.467 322.229 458.654 322.229C457.562 322.229 456.623 322.08 455.836 321.784C455.049 321.488 454.401 321.061 453.894 320.502C453.394 319.935 453.022 319.245 452.776 318.433C452.539 317.612 452.421 316.685 452.421 315.652C452.421 314.755 452.548 313.909 452.802 313.113C453.064 312.309 453.441 311.607 453.932 311.006C454.431 310.396 455.04 309.914 455.76 309.559C456.479 309.203 457.296 309.025 458.21 309.025C459.099 309.025 459.886 309.165 460.571 309.444C461.257 309.724 461.832 310.121 462.298 310.638C462.772 311.146 463.127 311.768 463.364 312.504C463.61 313.232 463.732 314.049 463.732 314.954ZM461.435 314.637C461.46 314.07 461.405 313.553 461.27 313.088C461.134 312.614 460.923 312.208 460.635 311.869C460.355 311.531 460.004 311.268 459.581 311.082C459.158 310.887 458.667 310.79 458.108 310.79C457.626 310.79 457.186 310.883 456.788 311.069C456.39 311.256 456.048 311.518 455.76 311.856C455.472 312.195 455.239 312.601 455.062 313.075C454.884 313.549 454.774 314.07 454.731 314.637H461.435ZM477.532 321.822C477.033 321.949 476.517 322.038 475.983 322.089C475.45 322.148 474.909 322.178 474.358 322.178C472.759 322.178 471.565 321.818 470.778 321.099C469.991 320.371 469.598 319.258 469.598 317.76V311.107H466.03V309.254H469.598V305.75L471.807 305.179V309.254H477.532V311.107H471.807V317.582C471.807 318.496 472.048 319.182 472.53 319.639C473.021 320.087 473.741 320.312 474.688 320.312C475.095 320.312 475.539 320.282 476.021 320.223C476.504 320.155 477.007 320.053 477.532 319.918V321.822ZM491.802 322H489.821L489.745 319.943C489.364 320.383 489 320.752 488.653 321.048C488.315 321.336 487.976 321.568 487.638 321.746C487.299 321.924 486.956 322.047 486.609 322.114C486.271 322.19 485.911 322.229 485.53 322.229C484.218 322.229 483.228 321.843 482.56 321.073C481.891 320.303 481.557 319.139 481.557 317.582V309.254H483.766V317.404C483.766 319.359 484.502 320.337 485.975 320.337C486.245 320.337 486.508 320.299 486.762 320.223C487.024 320.138 487.295 319.998 487.574 319.804C487.862 319.601 488.167 319.33 488.488 318.991C488.818 318.653 489.187 318.225 489.593 317.709V309.254H491.802V322ZM496.372 309.254H498.391L498.454 311.603C499.207 310.697 499.948 310.041 500.676 309.635C501.412 309.229 502.153 309.025 502.897 309.025C504.218 309.025 505.216 309.453 505.894 310.308C506.579 311.162 506.896 312.432 506.846 314.116H504.611C504.637 312.999 504.472 312.191 504.116 311.691C503.769 311.184 503.257 310.93 502.58 310.93C502.284 310.93 501.983 310.985 501.679 311.095C501.382 311.196 501.074 311.366 500.752 311.603C500.439 311.831 500.104 312.127 499.749 312.491C499.394 312.855 499.013 313.295 498.606 313.812V322H496.372V309.254ZM510.146 309.254H512.114L512.203 311.311C512.576 310.87 512.935 310.507 513.282 310.219C513.629 309.923 513.968 309.686 514.298 309.508C514.636 309.33 514.979 309.207 515.326 309.14C515.673 309.063 516.033 309.025 516.405 309.025C517.717 309.025 518.707 309.415 519.376 310.193C520.053 310.964 520.392 312.127 520.392 313.685V322H518.183V313.862C518.183 312.864 517.996 312.127 517.624 311.653C517.252 311.171 516.697 310.93 515.961 310.93C515.69 310.93 515.424 310.972 515.161 311.057C514.907 311.133 514.641 311.272 514.361 311.476C514.082 311.67 513.777 311.937 513.447 312.275C513.126 312.614 512.762 313.037 512.355 313.545V322H510.146V309.254ZM549.883 313.71C549.883 314.979 549.756 316.139 549.502 317.188C549.248 318.229 548.863 319.127 548.347 319.88C547.83 320.625 547.187 321.204 546.417 321.619C545.655 322.025 544.758 322.229 543.726 322.229C542.837 322.229 542.029 322.063 541.301 321.733C540.573 321.395 539.951 320.879 539.435 320.185C538.918 319.491 538.521 318.606 538.241 317.531C537.962 316.456 537.822 315.183 537.822 313.71C537.822 312.44 537.949 311.281 538.203 310.231C538.465 309.182 538.851 308.285 539.358 307.54C539.875 306.787 540.518 306.207 541.288 305.801C542.058 305.386 542.955 305.179 543.979 305.179C544.868 305.179 545.676 305.348 546.404 305.687C547.132 306.017 547.754 306.533 548.271 307.235C548.787 307.929 549.185 308.814 549.464 309.889C549.743 310.964 549.883 312.237 549.883 313.71ZM547.648 313.786C547.648 313.498 547.636 313.215 547.61 312.936C547.593 312.648 547.572 312.368 547.547 312.098L540.526 317.315C540.653 317.756 540.814 318.162 541.009 318.534C541.203 318.907 541.436 319.228 541.707 319.499C541.986 319.761 542.299 319.969 542.646 320.121C543.002 320.265 543.404 320.337 543.853 320.337C544.428 320.337 544.949 320.197 545.414 319.918C545.888 319.639 546.29 319.224 546.62 318.674C546.95 318.124 547.204 317.442 547.382 316.63C547.56 315.809 547.648 314.861 547.648 313.786ZM540.057 313.634C540.057 313.896 540.057 314.159 540.057 314.421C540.065 314.683 540.082 314.937 540.107 315.183L547.128 309.99C547.001 309.559 546.84 309.165 546.646 308.81C546.451 308.454 546.218 308.149 545.947 307.896C545.676 307.633 545.368 307.43 545.021 307.286C544.674 307.142 544.284 307.07 543.853 307.07C543.277 307.07 542.752 307.21 542.278 307.489C541.813 307.769 541.415 308.188 541.085 308.746C540.755 309.296 540.501 309.982 540.323 310.803C540.146 311.615 540.057 312.559 540.057 313.634Z" fill="#FF5500"/>
<path d="M508.845 234.462C509.28 234.998 509.199 235.785 508.663 236.22L499.931 243.314C499.395 243.749 498.608 243.667 498.173 243.131C497.737 242.596 497.819 241.808 498.355 241.373L506.117 235.068L499.812 227.306C499.376 226.77 499.458 225.983 499.994 225.548C500.53 225.113 501.317 225.194 501.752 225.73L508.845 234.462ZM507.746 236.494C506.27 236.341 504.826 236.165 503.414 235.969L503.759 233.492C505.141 233.685 506.556 233.857 508.004 234.007L507.746 236.494ZM494.93 234.454C491.974 233.802 489.178 233.047 486.535 232.2L487.298 229.819C489.864 230.641 492.585 231.377 495.468 232.012L494.93 234.454ZM478.424 229.121C475.654 227.889 473.089 226.546 470.713 225.112L472.005 222.972C474.29 224.351 476.763 225.646 479.44 226.836L478.424 229.121ZM463.575 220.103C461.217 218.186 459.109 216.173 457.224 214.1L459.074 212.418C460.876 214.4 462.894 216.326 465.152 218.163L463.575 220.103ZM451.858 207.21C450.18 204.677 448.771 202.119 447.59 199.592L449.855 198.534C450.987 200.956 452.336 203.406 453.942 205.828L451.858 207.21ZM444.464 191.456C443.536 188.435 442.896 185.566 442.458 182.966L444.923 182.55C445.345 185.055 445.961 187.817 446.854 190.722L444.464 191.456ZM441.577 174.292C441.532 172.927 441.544 171.837 441.568 171.084C441.58 170.708 441.595 170.415 441.607 170.214C441.613 170.113 441.619 170.035 441.623 169.982C441.625 169.955 441.626 169.934 441.627 169.919C441.628 169.911 441.628 169.906 441.629 169.901C441.629 169.899 441.629 169.897 441.629 169.896C441.629 169.895 441.629 169.894 441.629 169.894C441.629 169.894 441.629 169.893 441.63 169.893C441.63 169.893 441.63 169.893 441.63 169.893C441.63 169.893 441.63 169.893 442.875 170C444.12 170.107 444.12 170.107 444.12 170.107C444.12 170.107 444.12 170.107 444.12 170.107C444.12 170.107 444.12 170.107 444.12 170.107C444.12 170.107 444.12 170.107 444.12 170.107C444.12 170.107 444.12 170.107 444.12 170.108C444.12 170.11 444.12 170.113 444.119 170.118C444.119 170.128 444.117 170.143 444.116 170.165C444.113 170.208 444.108 170.274 444.103 170.364C444.092 170.542 444.078 170.811 444.067 171.164C444.045 171.868 444.033 172.904 444.075 174.21L441.577 174.292Z" fill="#FF5500"/>
<path d="M350.192 232.254H352.211L352.274 234.603C353.028 233.697 353.768 233.041 354.496 232.635C355.232 232.229 355.973 232.025 356.718 232.025C358.038 232.025 359.037 232.453 359.714 233.308C360.399 234.162 360.717 235.432 360.666 237.116H358.432C358.457 235.999 358.292 235.191 357.937 234.691C357.59 234.184 357.077 233.93 356.4 233.93C356.104 233.93 355.804 233.985 355.499 234.095C355.203 234.196 354.894 234.366 354.572 234.603C354.259 234.831 353.925 235.127 353.569 235.491C353.214 235.855 352.833 236.295 352.427 236.812V245H350.192V232.254ZM374.732 237.954C374.732 238.267 374.728 238.53 374.72 238.741C374.711 238.953 374.699 239.152 374.682 239.338H365.731C365.731 240.641 366.095 241.644 366.823 242.347C367.551 243.041 368.601 243.388 369.972 243.388C370.344 243.388 370.716 243.375 371.089 243.35C371.461 243.316 371.821 243.273 372.168 243.223C372.515 243.172 372.845 243.117 373.158 243.058C373.48 242.99 373.776 242.918 374.047 242.842V244.657C373.446 244.826 372.765 244.962 372.003 245.063C371.25 245.174 370.467 245.229 369.654 245.229C368.562 245.229 367.623 245.08 366.836 244.784C366.049 244.488 365.401 244.061 364.894 243.502C364.394 242.935 364.022 242.245 363.776 241.433C363.539 240.612 363.421 239.685 363.421 238.652C363.421 237.755 363.548 236.909 363.802 236.113C364.064 235.309 364.441 234.607 364.932 234.006C365.431 233.396 366.04 232.914 366.76 232.559C367.479 232.203 368.296 232.025 369.21 232.025C370.099 232.025 370.886 232.165 371.571 232.444C372.257 232.724 372.832 233.121 373.298 233.638C373.772 234.146 374.127 234.768 374.364 235.504C374.61 236.232 374.732 237.049 374.732 237.954ZM372.435 237.637C372.46 237.07 372.405 236.553 372.27 236.088C372.134 235.614 371.923 235.208 371.635 234.869C371.355 234.531 371.004 234.268 370.581 234.082C370.158 233.887 369.667 233.79 369.108 233.79C368.626 233.79 368.186 233.883 367.788 234.069C367.39 234.256 367.048 234.518 366.76 234.856C366.472 235.195 366.239 235.601 366.062 236.075C365.884 236.549 365.774 237.07 365.731 237.637H372.435ZM388.532 244.822C388.033 244.949 387.517 245.038 386.983 245.089C386.45 245.148 385.909 245.178 385.358 245.178C383.759 245.178 382.565 244.818 381.778 244.099C380.991 243.371 380.598 242.258 380.598 240.76V234.107H377.03V232.254H380.598V228.75L382.807 228.179V232.254H388.532V234.107H382.807V240.582C382.807 241.496 383.048 242.182 383.53 242.639C384.021 243.087 384.741 243.312 385.688 243.312C386.095 243.312 386.539 243.282 387.021 243.223C387.504 243.155 388.007 243.053 388.532 242.918V244.822ZM402.802 245H400.821L400.745 242.943C400.364 243.383 400 243.752 399.653 244.048C399.315 244.336 398.976 244.568 398.638 244.746C398.299 244.924 397.956 245.047 397.609 245.114C397.271 245.19 396.911 245.229 396.53 245.229C395.218 245.229 394.228 244.843 393.56 244.073C392.891 243.303 392.557 242.139 392.557 240.582V232.254H394.766V240.404C394.766 242.359 395.502 243.337 396.975 243.337C397.245 243.337 397.508 243.299 397.762 243.223C398.024 243.138 398.295 242.998 398.574 242.804C398.862 242.601 399.167 242.33 399.488 241.991C399.818 241.653 400.187 241.225 400.593 240.709V232.254H402.802V245ZM407.372 232.254H409.391L409.454 234.603C410.207 233.697 410.948 233.041 411.676 232.635C412.412 232.229 413.153 232.025 413.897 232.025C415.218 232.025 416.216 232.453 416.894 233.308C417.579 234.162 417.896 235.432 417.846 237.116H415.611C415.637 235.999 415.472 235.191 415.116 234.691C414.769 234.184 414.257 233.93 413.58 233.93C413.284 233.93 412.983 233.985 412.679 234.095C412.382 234.196 412.074 234.366 411.752 234.603C411.439 234.831 411.104 235.127 410.749 235.491C410.394 235.855 410.013 236.295 409.606 236.812V245H407.372V232.254ZM421.146 232.254H423.114L423.203 234.311C423.576 233.87 423.935 233.507 424.282 233.219C424.629 232.923 424.968 232.686 425.298 232.508C425.636 232.33 425.979 232.207 426.326 232.14C426.673 232.063 427.033 232.025 427.405 232.025C428.717 232.025 429.707 232.415 430.376 233.193C431.053 233.964 431.392 235.127 431.392 236.685V245H429.183V236.862C429.183 235.864 428.996 235.127 428.624 234.653C428.252 234.171 427.697 233.93 426.961 233.93C426.69 233.93 426.424 233.972 426.161 234.057C425.907 234.133 425.641 234.272 425.361 234.476C425.082 234.67 424.777 234.937 424.447 235.275C424.126 235.614 423.762 236.037 423.355 236.545V245H421.146V232.254ZM460.883 236.71C460.883 237.979 460.756 239.139 460.502 240.188C460.248 241.229 459.863 242.127 459.347 242.88C458.83 243.625 458.187 244.204 457.417 244.619C456.655 245.025 455.758 245.229 454.726 245.229C453.837 245.229 453.029 245.063 452.301 244.733C451.573 244.395 450.951 243.879 450.435 243.185C449.918 242.491 449.521 241.606 449.241 240.531C448.962 239.456 448.822 238.183 448.822 236.71C448.822 235.44 448.949 234.281 449.203 233.231C449.465 232.182 449.851 231.285 450.358 230.54C450.875 229.787 451.518 229.207 452.288 228.801C453.058 228.386 453.955 228.179 454.979 228.179C455.868 228.179 456.676 228.348 457.404 228.687C458.132 229.017 458.754 229.533 459.271 230.235C459.787 230.929 460.185 231.814 460.464 232.889C460.743 233.964 460.883 235.237 460.883 236.71ZM458.648 236.786C458.648 236.498 458.636 236.215 458.61 235.936C458.593 235.648 458.572 235.368 458.547 235.098L451.526 240.315C451.653 240.756 451.814 241.162 452.009 241.534C452.203 241.907 452.436 242.228 452.707 242.499C452.986 242.761 453.299 242.969 453.646 243.121C454.002 243.265 454.404 243.337 454.853 243.337C455.428 243.337 455.949 243.197 456.414 242.918C456.888 242.639 457.29 242.224 457.62 241.674C457.95 241.124 458.204 240.442 458.382 239.63C458.56 238.809 458.648 237.861 458.648 236.786ZM451.057 236.634C451.057 236.896 451.057 237.159 451.057 237.421C451.065 237.683 451.082 237.937 451.107 238.183L458.128 232.99C458.001 232.559 457.84 232.165 457.646 231.81C457.451 231.454 457.218 231.149 456.947 230.896C456.676 230.633 456.368 230.43 456.021 230.286C455.674 230.142 455.284 230.07 454.853 230.07C454.277 230.07 453.752 230.21 453.278 230.489C452.813 230.769 452.415 231.188 452.085 231.746C451.755 232.296 451.501 232.982 451.323 233.803C451.146 234.615 451.057 235.559 451.057 236.634Z" fill="#FF5500"/>
<path d="M361.205 44.9646C360.672 44.5255 360.596 43.7377 361.035 43.205L368.19 34.5235C368.63 33.9908 369.417 33.9149 369.95 34.3539C370.483 34.793 370.559 35.5808 370.12 36.1135L363.76 43.8304L371.476 50.1904C372.009 50.6295 372.085 51.4173 371.646 51.9501C371.207 52.4828 370.419 52.5587 369.886 52.1197L361.205 44.9646ZM361.88 42.7558C363.281 42.6207 364.657 42.5076 366.007 42.4159L366.176 44.9102C364.85 45.0002 363.498 45.1114 362.12 45.2442L361.88 42.7558ZM374.138 42.1142C376.971 42.1016 379.678 42.1921 382.264 42.3779L382.085 44.8715C379.565 44.6905 376.921 44.6018 374.149 44.6142L374.138 42.1142ZM390.4 43.3316C393.238 43.8032 395.905 44.4038 398.413 45.1192L397.727 47.5232C395.314 46.835 392.739 46.2547 389.99 45.7977L390.4 43.3316ZM406.16 47.8959C408.8 49.0572 411.216 50.365 413.426 51.7926L412.069 53.8924C409.973 52.5382 407.675 51.2932 405.153 50.1843L406.16 47.8959ZM419.959 56.8735C422.055 58.8259 423.886 60.8998 425.486 63.0488L423.481 64.5416C421.967 62.5083 420.235 60.5479 418.255 58.7025L419.959 56.8735ZM429.833 70.0893C431.116 72.6202 432.148 75.1825 432.976 77.7108L430.6 78.4891C429.808 76.0694 428.823 73.626 427.603 71.2192L429.833 70.0893ZM435.004 85.7016C435.544 88.6075 435.855 91.3648 436.02 93.8581L433.525 94.0228C433.366 91.6142 433.066 88.9553 432.546 86.1579L435.004 85.7016ZM436.095 102.076C436.031 103.353 435.943 104.372 435.87 105.076C435.833 105.428 435.8 105.701 435.777 105.888C435.765 105.982 435.755 106.054 435.748 106.104C435.744 106.129 435.742 106.148 435.74 106.162C435.739 106.169 435.738 106.174 435.737 106.178C435.737 106.18 435.737 106.181 435.737 106.183C435.736 106.183 435.736 106.184 435.736 106.184C435.736 106.185 435.736 106.185 435.736 106.185C435.736 106.185 435.736 106.185 435.736 106.185C435.736 106.185 435.736 106.185 434.5 106C433.264 105.815 433.264 105.815 433.264 105.815C433.264 105.815 433.264 105.815 433.264 105.815C433.264 105.815 433.264 105.815 433.264 105.815C433.264 105.815 433.264 105.815 433.264 105.815C433.264 105.815 433.264 105.814 433.264 105.813C433.264 105.812 433.265 105.808 433.265 105.804C433.267 105.795 433.269 105.78 433.272 105.759C433.277 105.718 433.286 105.655 433.297 105.571C433.318 105.402 433.349 105.149 433.383 104.817C433.452 104.154 433.537 103.18 433.598 101.952L436.095 102.076Z" fill="#999999"/>
<path d="M464.276 134.644C463.743 134.205 463.667 133.417 464.106 132.884L471.261 124.203C471.7 123.67 472.488 123.594 473.021 124.033C473.554 124.472 473.63 125.26 473.19 125.793L466.83 133.51L474.547 139.87C475.08 140.309 475.156 141.097 474.717 141.629C474.278 142.162 473.49 142.238 472.957 141.799L464.276 134.644ZM464.951 132.435C466.352 132.3 467.728 132.187 469.078 132.095L469.247 134.589C467.921 134.679 466.569 134.791 465.191 134.923L464.951 132.435ZM477.208 131.793C480.041 131.781 482.748 131.871 485.335 132.057L485.156 134.551C482.636 134.37 479.992 134.281 477.219 134.293L477.208 131.793ZM493.471 133.011C496.308 133.482 498.976 134.083 501.483 134.798L500.798 137.202C498.385 136.514 495.81 135.934 493.061 135.477L493.471 133.011ZM509.231 137.575C511.871 138.736 514.287 140.044 516.497 141.472L515.14 143.572C513.044 142.217 510.745 140.972 508.224 139.864L509.231 137.575ZM523.03 146.553C525.126 148.505 526.957 150.579 528.557 152.728L526.552 154.221C525.038 152.188 523.306 150.227 521.326 148.382L523.03 146.553ZM532.904 159.769C534.186 162.299 535.219 164.862 536.047 167.39L533.671 168.168C532.878 165.749 531.893 163.305 530.674 160.898L532.904 159.769ZM538.075 175.381C538.615 178.287 538.926 181.044 539.09 183.537L536.596 183.702C536.437 181.293 536.137 178.634 535.617 175.837L538.075 175.381ZM539.166 191.755C539.102 193.032 539.014 194.051 538.941 194.755C538.904 195.107 538.871 195.38 538.847 195.567C538.835 195.661 538.826 195.733 538.819 195.783C538.815 195.808 538.812 195.827 538.81 195.841C538.809 195.848 538.809 195.853 538.808 195.857C538.808 195.859 538.808 195.861 538.807 195.862C538.807 195.863 538.807 195.863 538.807 195.864C538.807 195.864 538.807 195.864 538.807 195.864C538.807 195.864 538.807 195.864 538.807 195.864C538.807 195.865 538.807 195.865 537.571 195.679C536.335 195.494 536.335 195.494 536.335 195.494C536.335 195.494 536.335 195.494 536.335 195.494C536.335 195.494 536.335 195.494 536.335 195.494C536.335 195.494 536.335 195.494 536.335 195.494C536.335 195.494 536.335 195.494 536.335 195.493C536.335 195.491 536.336 195.488 536.336 195.483C536.338 195.474 536.34 195.459 536.343 195.438C536.348 195.397 536.357 195.334 536.368 195.25C536.389 195.082 536.42 194.828 536.454 194.497C536.523 193.834 536.608 192.86 536.669 191.631L539.166 191.755Z" fill="#999999"/>
<path d="M568.276 224.644C567.743 224.205 567.667 223.417 568.106 222.884L575.261 214.203C575.7 213.67 576.488 213.594 577.021 214.033C577.554 214.472 577.63 215.26 577.19 215.793L570.83 223.51L578.547 229.87C579.08 230.309 579.156 231.097 578.717 231.629C578.278 232.162 577.49 232.238 576.957 231.799L568.276 224.644ZM568.951 222.435C570.352 222.3 571.728 222.187 573.078 222.095L573.247 224.589C571.921 224.679 570.569 224.791 569.191 224.923L568.951 222.435ZM581.208 221.793C584.041 221.781 586.748 221.871 589.335 222.057L589.156 224.551C586.636 224.37 583.992 224.281 581.219 224.293L581.208 221.793ZM597.471 223.011C600.308 223.482 602.976 224.083 605.483 224.798L604.798 227.202C602.385 226.514 599.81 225.934 597.061 225.477L597.471 223.011ZM613.231 227.575C615.871 228.736 618.287 230.044 620.497 231.472L619.14 233.572C617.044 232.217 614.745 230.972 612.224 229.864L613.231 227.575ZM627.03 236.553C629.126 238.505 630.957 240.579 632.557 242.728L630.552 244.221C629.038 242.188 627.306 240.227 625.326 238.382L627.03 236.553ZM636.904 249.769C638.186 252.299 639.219 254.862 640.047 257.39L637.671 258.168C636.878 255.749 635.893 253.305 634.674 250.898L636.904 249.769ZM642.075 265.381C642.615 268.287 642.926 271.044 643.09 273.537L640.596 273.702C640.437 271.293 640.137 268.634 639.617 265.837L642.075 265.381ZM643.166 281.755C643.102 283.032 643.014 284.051 642.941 284.755C642.904 285.107 642.871 285.38 642.847 285.567C642.835 285.661 642.826 285.733 642.819 285.783C642.815 285.808 642.812 285.827 642.81 285.841C642.809 285.848 642.809 285.853 642.808 285.857C642.808 285.859 642.808 285.861 642.807 285.862C642.807 285.863 642.807 285.863 642.807 285.864C642.807 285.864 642.807 285.864 642.807 285.864C642.807 285.864 642.807 285.864 642.807 285.864C642.807 285.865 642.807 285.865 641.571 285.679C640.335 285.494 640.335 285.494 640.335 285.494C640.335 285.494 640.335 285.494 640.335 285.494C640.335 285.494 640.335 285.494 640.335 285.494C640.335 285.494 640.335 285.494 640.335 285.494C640.335 285.494 640.335 285.494 640.335 285.493C640.335 285.491 640.336 285.488 640.336 285.483C640.338 285.474 640.34 285.459 640.343 285.438C640.348 285.397 640.357 285.334 640.368 285.25C640.389 285.082 640.42 284.828 640.454 284.497C640.523 283.834 640.608 282.86 640.669 281.631L643.166 281.755Z" fill="#999999"/>
</g>
<defs>
<clipPath id="clip0_6291_1458">
<rect width="660" height="338" fill="white"/>
</clipPath>
</defs>
</svg>
