<svg width="494" height="232" viewBox="0 0 494 232" fill="none" xmlns="http://www.w3.org/2000/svg">
<g clip-path="url(#clip0_6290_4400)">
<rect width="494" height="232" fill="white"/>
<rect x="278" y="91" width="213" height="71" rx="10" fill="#EDEDED" stroke="#999999" stroke-width="2" stroke-dasharray="10 10"/>
<path d="M28.9141 34.5C28.9141 31.4624 31.3765 29 34.4141 29H95.9141V96H28.9141V34.5Z" fill="white" stroke="#7A7A7A"/>
<rect x="95.9141" y="29" width="66" height="67" fill="white" stroke="#7A7A7A"/>
<rect x="95.9141" y="29" width="66" height="67" fill="white" stroke="#7A7A7A"/>
<rect x="161.914" y="29" width="66" height="67" fill="white" stroke="#7A7A7A"/>
<rect x="161.914" y="29" width="66" height="67" fill="white" stroke="#7A7A7A"/>
<path d="M68.2715 72.5H56.2451V70.127H61.167V56.1523L56.582 58.6426L55.6445 56.4746L61.7383 53.2666H63.9941V70.127H68.2715V72.5Z" fill="#999999"/>
<path d="M136.385 62.8467C136.385 64.4189 136.214 65.8252 135.872 67.0654C135.53 68.3057 135.027 69.3555 134.363 70.2148C133.709 71.0645 132.908 71.7139 131.961 72.1631C131.014 72.6123 129.93 72.8369 128.709 72.8369C127.654 72.8369 126.683 72.6514 125.794 72.2803C124.905 71.9092 124.139 71.3281 123.494 70.5371C122.85 69.7363 122.347 68.7158 121.985 67.4756C121.624 66.2354 121.443 64.751 121.443 63.0225C121.443 61.4502 121.614 60.0439 121.956 58.8037C122.308 57.5635 122.811 56.5186 123.465 55.6689C124.119 54.8096 124.925 54.1553 125.882 53.7061C126.839 53.2568 127.923 53.0322 129.134 53.0322C130.188 53.0322 131.16 53.2178 132.049 53.5889C132.938 53.96 133.699 54.541 134.334 55.332C134.979 56.123 135.481 57.1387 135.843 58.3789C136.204 59.6191 136.385 61.1084 136.385 62.8467ZM125.047 62.9053C125.047 63.1006 125.047 63.2861 125.047 63.4619C125.047 63.6279 125.057 63.7988 125.076 63.9746L132.254 58.7891C131.912 57.8223 131.458 57.1094 130.892 56.6504C130.335 56.1816 129.676 55.9473 128.914 55.9473C128.367 55.9473 127.859 56.0889 127.391 56.3721C126.922 56.6455 126.512 57.0703 126.16 57.6465C125.818 58.2227 125.545 58.9453 125.34 59.8145C125.145 60.6836 125.047 61.7139 125.047 62.9053ZM132.781 62.9639C132.781 62.7979 132.776 62.6318 132.767 62.4658C132.757 62.29 132.752 62.124 132.752 61.9678L125.618 67.124C125.931 68.0713 126.37 68.7744 126.937 69.2334C127.503 69.6924 128.162 69.9219 128.914 69.9219C129.461 69.9219 129.969 69.7803 130.438 69.4971C130.916 69.2139 131.326 68.7891 131.668 68.2227C132.02 67.6465 132.293 66.9238 132.488 66.0547C132.684 65.1758 132.781 64.1455 132.781 62.9639Z" fill="black"/>
<path d="M201.066 66.6846C201.066 67.5244 200.896 68.3154 200.554 69.0576C200.212 69.79 199.699 70.4346 199.016 70.9912C198.332 71.5381 197.473 71.9727 196.438 72.2949C195.402 72.6074 194.196 72.7637 192.819 72.7637C192.058 72.7637 191.374 72.7393 190.769 72.6904C190.163 72.6416 189.597 72.5781 189.069 72.5V70.2148C189.675 70.3223 190.314 70.4053 190.988 70.4639C191.662 70.5225 192.351 70.5518 193.054 70.5518C194.011 70.5518 194.826 70.4688 195.5 70.3027C196.184 70.127 196.74 69.8779 197.17 69.5557C197.6 69.2334 197.912 68.8428 198.107 68.3838C198.303 67.9248 198.4 67.4072 198.4 66.8311C198.4 66.3037 198.283 65.8447 198.049 65.4541C197.814 65.0635 197.482 64.7363 197.053 64.4727C196.633 64.209 196.125 64.0137 195.529 63.8867C194.943 63.75 194.299 63.6816 193.596 63.6816H191.413V61.5869H193.625C194.201 61.5869 194.724 61.5137 195.192 61.3672C195.671 61.2109 196.076 60.9912 196.408 60.708C196.75 60.4248 197.009 60.0781 197.185 59.668C197.37 59.248 197.463 58.7744 197.463 58.2471C197.463 57.2217 197.15 56.4746 196.525 56.0059C195.9 55.5371 194.982 55.3027 193.771 55.3027C193.127 55.3027 192.463 55.3662 191.779 55.4932C191.096 55.6201 190.363 55.8105 189.582 56.0645V53.8379C189.914 53.7207 190.266 53.6182 190.637 53.5303C191.018 53.4326 191.394 53.3545 191.765 53.2959C192.146 53.2275 192.521 53.1787 192.893 53.1494C193.264 53.1104 193.62 53.0908 193.962 53.0908C194.978 53.0908 195.871 53.2031 196.643 53.4277C197.414 53.6426 198.059 53.9551 198.576 54.3652C199.094 54.7754 199.484 55.2734 199.748 55.8594C200.012 56.4453 200.144 57.1045 200.144 57.8369C200.144 58.9307 199.86 59.8486 199.294 60.5908C198.737 61.333 197.971 61.9238 196.994 62.3633C197.492 62.4414 197.98 62.5977 198.459 62.832C198.947 63.0664 199.382 63.3691 199.763 63.7402C200.153 64.1016 200.466 64.5312 200.7 65.0293C200.944 65.5273 201.066 66.0791 201.066 66.6846Z" fill="#999999"/>
<rect x="28.9141" y="96" width="67" height="66" fill="white" stroke="#7A7A7A"/>
<rect x="95.9141" y="96" width="66" height="66" stroke="#7A7A7A"/>
<rect x="162" y="97" width="66" height="65" fill="#EDEDED" stroke="#7A7A7A"/>
<rect x="96" y="96" width="66" height="66" fill="#EDEDED" stroke="#7A7A7A"/>
<path d="M69.3848 131.347C69.3848 132.919 69.2139 134.325 68.8721 135.565C68.5303 136.806 68.0273 137.855 67.3633 138.715C66.709 139.564 65.9082 140.214 64.9609 140.663C64.0137 141.112 62.9297 141.337 61.709 141.337C60.6543 141.337 59.6826 141.151 58.7939 140.78C57.9053 140.409 57.1387 139.828 56.4941 139.037C55.8496 138.236 55.3467 137.216 54.9854 135.976C54.624 134.735 54.4434 133.251 54.4434 131.522C54.4434 129.95 54.6143 128.544 54.9561 127.304C55.3076 126.063 55.8105 125.019 56.4648 124.169C57.1191 123.31 57.9248 122.655 58.8818 122.206C59.8389 121.757 60.9229 121.532 62.1338 121.532C63.1885 121.532 64.1602 121.718 65.0488 122.089C65.9375 122.46 66.6992 123.041 67.334 123.832C67.9785 124.623 68.4814 125.639 68.8428 126.879C69.2041 128.119 69.3848 129.608 69.3848 131.347ZM58.0469 131.405C58.0469 131.601 58.0469 131.786 58.0469 131.962C58.0469 132.128 58.0566 132.299 58.0762 132.475L65.2539 127.289C64.9121 126.322 64.458 125.609 63.8916 125.15C63.335 124.682 62.6758 124.447 61.9141 124.447C61.3672 124.447 60.8594 124.589 60.3906 124.872C59.9219 125.146 59.5117 125.57 59.1602 126.146C58.8184 126.723 58.5449 127.445 58.3398 128.314C58.1445 129.184 58.0469 130.214 58.0469 131.405ZM65.7812 131.464C65.7812 131.298 65.7764 131.132 65.7666 130.966C65.7568 130.79 65.752 130.624 65.752 130.468L58.6182 135.624C58.9307 136.571 59.3701 137.274 59.9365 137.733C60.5029 138.192 61.1621 138.422 61.9141 138.422C62.4609 138.422 62.9688 138.28 63.4375 137.997C63.916 137.714 64.3262 137.289 64.668 136.723C65.0195 136.146 65.293 135.424 65.4883 134.555C65.6836 133.676 65.7812 132.646 65.7812 131.464Z" fill="#999999"/>
<path d="M135.872 131.435C135.872 132.899 135.726 134.237 135.433 135.448C135.14 136.649 134.695 137.685 134.1 138.554C133.504 139.413 132.762 140.082 131.873 140.561C130.994 141.029 129.959 141.264 128.768 141.264C127.742 141.264 126.81 141.073 125.97 140.692C125.13 140.302 124.412 139.706 123.816 138.905C123.221 138.104 122.762 137.084 122.439 135.844C122.117 134.604 121.956 133.134 121.956 131.435C121.956 129.97 122.103 128.632 122.396 127.421C122.698 126.21 123.143 125.175 123.729 124.315C124.324 123.446 125.066 122.777 125.955 122.309C126.844 121.83 127.879 121.591 129.061 121.591C130.086 121.591 131.019 121.786 131.858 122.177C132.698 122.558 133.416 123.153 134.012 123.964C134.607 124.765 135.066 125.785 135.389 127.025C135.711 128.266 135.872 129.735 135.872 131.435ZM133.294 131.522C133.294 131.19 133.279 130.863 133.25 130.541C133.23 130.209 133.206 129.887 133.177 129.574L125.076 135.595C125.223 136.103 125.408 136.571 125.633 137.001C125.857 137.431 126.126 137.802 126.438 138.114C126.761 138.417 127.122 138.656 127.522 138.832C127.933 138.998 128.396 139.081 128.914 139.081C129.578 139.081 130.179 138.92 130.716 138.598C131.263 138.275 131.727 137.797 132.107 137.162C132.488 136.527 132.781 135.741 132.986 134.804C133.191 133.856 133.294 132.763 133.294 131.522ZM124.534 131.347C124.534 131.649 124.534 131.952 124.534 132.255C124.544 132.558 124.563 132.851 124.593 133.134L132.693 127.143C132.547 126.645 132.361 126.19 132.137 125.78C131.912 125.37 131.644 125.019 131.331 124.726C131.019 124.423 130.662 124.188 130.262 124.022C129.861 123.856 129.412 123.773 128.914 123.773C128.25 123.773 127.645 123.935 127.098 124.257C126.561 124.579 126.102 125.062 125.721 125.707C125.34 126.342 125.047 127.133 124.842 128.08C124.637 129.018 124.534 130.106 124.534 131.347Z" fill="#999999"/>
<path d="M201.433 135.695C201.433 136.506 201.267 137.229 200.935 137.863C200.603 138.488 200.139 139.016 199.543 139.445C198.947 139.875 198.244 140.202 197.434 140.427C196.623 140.651 195.744 140.764 194.797 140.764C193.752 140.764 192.829 140.646 192.028 140.412C191.237 140.178 190.573 139.851 190.036 139.431C189.499 139.011 189.094 138.513 188.82 137.937C188.547 137.36 188.41 136.726 188.41 136.032C188.41 134.86 188.737 133.85 189.392 133C190.046 132.15 191.057 131.379 192.424 130.686C191.174 130.051 190.261 129.348 189.685 128.576C189.108 127.795 188.82 126.901 188.82 125.896C188.82 125.28 188.947 124.685 189.201 124.108C189.455 123.532 189.836 123.02 190.344 122.57C190.861 122.121 191.506 121.765 192.277 121.501C193.049 121.228 193.957 121.091 195.002 121.091C195.988 121.091 196.853 121.198 197.595 121.413C198.347 121.618 198.977 121.916 199.484 122.307C199.992 122.697 200.373 123.171 200.627 123.728C200.881 124.284 201.008 124.904 201.008 125.588C201.008 126.701 200.695 127.648 200.07 128.43C199.455 129.211 198.576 129.895 197.434 130.48C198 130.764 198.527 131.076 199.016 131.418C199.504 131.76 199.929 132.141 200.29 132.561C200.651 132.98 200.93 133.449 201.125 133.967C201.33 134.484 201.433 135.061 201.433 135.695ZM198.4 125.793C198.4 124.924 198.093 124.279 197.478 123.859C196.872 123.43 196.018 123.215 194.914 123.215C193.82 123.215 192.966 123.425 192.351 123.845C191.745 124.265 191.442 124.895 191.442 125.734C191.442 126.115 191.516 126.467 191.662 126.789C191.809 127.111 192.033 127.414 192.336 127.697C192.648 127.98 193.034 128.259 193.493 128.532C193.952 128.806 194.499 129.084 195.134 129.367C196.237 128.85 197.058 128.312 197.595 127.756C198.132 127.189 198.4 126.535 198.4 125.793ZM198.664 135.886C198.664 135.524 198.605 135.173 198.488 134.831C198.371 134.489 198.161 134.152 197.858 133.82C197.556 133.488 197.15 133.156 196.643 132.824C196.135 132.492 195.49 132.15 194.709 131.799C194.045 132.121 193.483 132.443 193.024 132.766C192.575 133.078 192.209 133.4 191.926 133.732C191.652 134.055 191.457 134.392 191.34 134.743C191.223 135.095 191.164 135.466 191.164 135.856C191.164 136.296 191.257 136.687 191.442 137.028C191.638 137.36 191.901 137.644 192.233 137.878C192.565 138.112 192.961 138.288 193.42 138.405C193.879 138.522 194.377 138.581 194.914 138.581C195.432 138.581 195.92 138.527 196.379 138.42C196.838 138.312 197.233 138.151 197.565 137.937C197.907 137.712 198.176 137.434 198.371 137.102C198.566 136.76 198.664 136.354 198.664 135.886Z" fill="#999999"/>
<rect x="28.9141" y="162" width="67" height="66" fill="white" stroke="#7A7A7A"/>
<rect x="95.9141" y="162" width="66" height="66" fill="#EDEDED" stroke="#7A7A7A"/>
<rect x="161.914" y="162" width="66" height="66" fill="#EDEDED" stroke="#7A7A7A"/>
<path d="M60.0244 205.5H47.998V203.127H52.9199V189.152L48.335 191.643L47.3975 189.475L53.4912 186.267H55.7471V203.127H60.0244V205.5ZM76.5186 205.5H64.4922V203.127H69.4141V189.152L64.8291 191.643L63.8916 189.475L69.9854 186.267H72.2412V203.127H76.5186V205.5Z" fill="#999999"/>
<path d="M127.024 205.5H114.998V203.127H119.92V189.152L115.335 191.643L114.397 189.475L120.491 186.267H122.747V203.127H127.024V205.5ZM143.68 205.5H131.067V203.215L136.019 198.293C136.829 197.492 137.488 196.799 137.996 196.213C138.504 195.627 138.899 195.095 139.183 194.616C139.466 194.128 139.656 193.669 139.754 193.239C139.852 192.81 139.9 192.346 139.9 191.848C139.9 191.379 139.837 190.935 139.71 190.515C139.583 190.085 139.388 189.709 139.124 189.387C138.86 189.064 138.519 188.811 138.099 188.625C137.679 188.439 137.176 188.347 136.59 188.347C135.779 188.347 135.042 188.527 134.378 188.889C133.714 189.25 133.104 189.719 132.547 190.295L131.141 188.61C131.863 187.849 132.693 187.238 133.631 186.779C134.578 186.32 135.677 186.091 136.927 186.091C137.776 186.091 138.548 186.218 139.241 186.472C139.944 186.726 140.55 187.092 141.058 187.57C141.565 188.049 141.956 188.635 142.229 189.328C142.513 190.021 142.654 190.803 142.654 191.672C142.654 192.404 142.557 193.083 142.361 193.708C142.166 194.333 141.868 194.958 141.468 195.583C141.077 196.198 140.579 196.838 139.974 197.502C139.378 198.166 138.67 198.894 137.85 199.685L134.378 203.068H143.68V205.5Z" fill="#999999"/>
<path d="M193.024 205.5H180.998V203.127H185.92V189.152L181.335 191.643L180.397 189.475L186.491 186.267H188.747V203.127H193.024V205.5ZM209.313 199.685C209.313 200.524 209.143 201.315 208.801 202.058C208.459 202.79 207.946 203.435 207.263 203.991C206.579 204.538 205.72 204.973 204.685 205.295C203.649 205.607 202.443 205.764 201.066 205.764C200.305 205.764 199.621 205.739 199.016 205.69C198.41 205.642 197.844 205.578 197.316 205.5V203.215C197.922 203.322 198.562 203.405 199.235 203.464C199.909 203.522 200.598 203.552 201.301 203.552C202.258 203.552 203.073 203.469 203.747 203.303C204.431 203.127 204.987 202.878 205.417 202.556C205.847 202.233 206.159 201.843 206.354 201.384C206.55 200.925 206.647 200.407 206.647 199.831C206.647 199.304 206.53 198.845 206.296 198.454C206.062 198.063 205.729 197.736 205.3 197.473C204.88 197.209 204.372 197.014 203.776 196.887C203.19 196.75 202.546 196.682 201.843 196.682H199.66V194.587H201.872C202.448 194.587 202.971 194.514 203.439 194.367C203.918 194.211 204.323 193.991 204.655 193.708C204.997 193.425 205.256 193.078 205.432 192.668C205.617 192.248 205.71 191.774 205.71 191.247C205.71 190.222 205.397 189.475 204.772 189.006C204.147 188.537 203.229 188.303 202.019 188.303C201.374 188.303 200.71 188.366 200.026 188.493C199.343 188.62 198.61 188.811 197.829 189.064V186.838C198.161 186.721 198.513 186.618 198.884 186.53C199.265 186.433 199.641 186.354 200.012 186.296C200.393 186.228 200.769 186.179 201.14 186.149C201.511 186.11 201.867 186.091 202.209 186.091C203.225 186.091 204.118 186.203 204.89 186.428C205.661 186.643 206.306 186.955 206.823 187.365C207.341 187.775 207.731 188.273 207.995 188.859C208.259 189.445 208.391 190.104 208.391 190.837C208.391 191.931 208.107 192.849 207.541 193.591C206.984 194.333 206.218 194.924 205.241 195.363C205.739 195.441 206.228 195.598 206.706 195.832C207.194 196.066 207.629 196.369 208.01 196.74C208.4 197.102 208.713 197.531 208.947 198.029C209.191 198.527 209.313 199.079 209.313 199.685Z" fill="#999999"/>
<rect x="27.5" y="27.5" width="202" height="202" rx="6.5" fill="white" stroke="black" stroke-width="5"/>
<path d="M161.5 162H227.5V222.5C227.5 225.538 225.038 228 222 228H161.5V162Z" fill="white" stroke="#7A7A7A"/>
<path d="M28.9141 34.5C28.9141 31.4624 31.3765 29 34.4141 29H95.9141V96H28.9141V34.5Z" fill="white" stroke="#7A7A7A"/>
<rect x="95.9141" y="29" width="66" height="67" fill="white" stroke="#7A7A7A"/>
<rect x="95.9141" y="29" width="66" height="67" fill="white" stroke="#7A7A7A"/>
<path d="M28.9141 34.5C28.9141 31.4624 31.3765 29 34.4141 29H95.9141V96H28.9141V34.5Z" fill="#FFE2D3" stroke="#7A7A7A"/>
<rect x="95.9141" y="29" width="66" height="67" fill="white" stroke="#7A7A7A"/>
<rect x="96" y="29" width="66" height="67" fill="#FFEFE7" stroke="#7A7A7A"/>
<path d="M162 29H222C225.038 29 227.5 31.4624 227.5 34.5V96H162V29Z" fill="#FFE2D3" stroke="#7A7A7A"/>
<path d="M68.4326 72.5H55.8203V70.2148L60.7715 65.293C61.582 64.4922 62.2412 63.7988 62.749 63.2129C63.2568 62.627 63.6523 62.0947 63.9355 61.6162C64.2188 61.1279 64.4092 60.6689 64.5068 60.2393C64.6045 59.8096 64.6533 59.3457 64.6533 58.8477C64.6533 58.3789 64.5898 57.9346 64.4629 57.5146C64.3359 57.085 64.1406 56.709 63.877 56.3867C63.6133 56.0645 63.2715 55.8105 62.8516 55.625C62.4316 55.4395 61.9287 55.3467 61.3428 55.3467C60.5322 55.3467 59.7949 55.5273 59.1309 55.8887C58.4668 56.25 57.8564 56.7188 57.2998 57.2949L55.8936 55.6104C56.6162 54.8486 57.4463 54.2383 58.3838 53.7793C59.3311 53.3203 60.4297 53.0908 61.6797 53.0908C62.5293 53.0908 63.3008 53.2178 63.9941 53.4717C64.6973 53.7256 65.3027 54.0918 65.8105 54.5703C66.3184 55.0488 66.709 55.6348 66.9824 56.3281C67.2656 57.0215 67.4072 57.8027 67.4072 58.6719C67.4072 59.4043 67.3096 60.083 67.1143 60.708C66.9189 61.333 66.6211 61.958 66.2207 62.583C65.8301 63.1982 65.332 63.8379 64.7266 64.502C64.1309 65.166 63.4229 65.8936 62.6025 66.6846L59.1309 70.0684H68.4326V72.5Z" fill="black"/>
<path d="M135.433 72.5H122.82V70.2148L127.771 65.293C128.582 64.4922 129.241 63.7988 129.749 63.2129C130.257 62.627 130.652 62.0947 130.936 61.6162C131.219 61.1279 131.409 60.6689 131.507 60.2393C131.604 59.8096 131.653 59.3457 131.653 58.8477C131.653 58.3789 131.59 57.9346 131.463 57.5146C131.336 57.085 131.141 56.709 130.877 56.3867C130.613 56.0645 130.271 55.8105 129.852 55.625C129.432 55.4395 128.929 55.3467 128.343 55.3467C127.532 55.3467 126.795 55.5273 126.131 55.8887C125.467 56.25 124.856 56.7188 124.3 57.2949L122.894 55.6104C123.616 54.8486 124.446 54.2383 125.384 53.7793C126.331 53.3203 127.43 53.0908 128.68 53.0908C129.529 53.0908 130.301 53.2178 130.994 53.4717C131.697 53.7256 132.303 54.0918 132.811 54.5703C133.318 55.0488 133.709 55.6348 133.982 56.3281C134.266 57.0215 134.407 57.8027 134.407 58.6719C134.407 59.4043 134.31 60.083 134.114 60.708C133.919 61.333 133.621 61.958 133.221 62.583C132.83 63.1982 132.332 63.8379 131.727 64.502C131.131 65.166 130.423 65.8936 129.603 66.6846L126.131 70.0684H135.433V72.5Z" fill="black"/>
<path d="M201.433 72.5H188.82V70.2148L193.771 65.293C194.582 64.4922 195.241 63.7988 195.749 63.2129C196.257 62.627 196.652 62.0947 196.936 61.6162C197.219 61.1279 197.409 60.6689 197.507 60.2393C197.604 59.8096 197.653 59.3457 197.653 58.8477C197.653 58.3789 197.59 57.9346 197.463 57.5146C197.336 57.085 197.141 56.709 196.877 56.3867C196.613 56.0645 196.271 55.8105 195.852 55.625C195.432 55.4395 194.929 55.3467 194.343 55.3467C193.532 55.3467 192.795 55.5273 192.131 55.8887C191.467 56.25 190.856 56.7188 190.3 57.2949L188.894 55.6104C189.616 54.8486 190.446 54.2383 191.384 53.7793C192.331 53.3203 193.43 53.0908 194.68 53.0908C195.529 53.0908 196.301 53.2178 196.994 53.4717C197.697 53.7256 198.303 54.0918 198.811 54.5703C199.318 55.0488 199.709 55.6348 199.982 56.3281C200.266 57.0215 200.407 57.8027 200.407 58.6719C200.407 59.4043 200.31 60.083 200.114 60.708C199.919 61.333 199.621 61.958 199.221 62.583C198.83 63.1982 198.332 63.8379 197.727 64.502C197.131 65.166 196.423 65.8936 195.603 66.6846L192.131 70.0684H201.433V72.5Z" fill="black"/>
<path opacity="0.5" d="M66.5527 6.62305C66.5527 7.59961 66.4551 8.49154 66.2598 9.29883C66.0645 10.0996 65.7682 10.7897 65.3711 11.3691C64.974 11.9421 64.4792 12.388 63.8867 12.707C63.3008 13.0195 62.6107 13.1758 61.8164 13.1758C61.1328 13.1758 60.5111 13.0488 59.9512 12.7949C59.3913 12.5345 58.9128 12.1374 58.5156 11.6035C58.1185 11.0697 57.8125 10.3893 57.5977 9.5625C57.3828 8.73568 57.2754 7.75586 57.2754 6.62305C57.2754 5.64648 57.373 4.75456 57.5684 3.94727C57.7702 3.13997 58.0664 2.44987 58.457 1.87695C58.8542 1.29753 59.349 0.851562 59.9414 0.539062C60.5339 0.220052 61.224 0.0605469 62.0117 0.0605469C62.6953 0.0605469 63.3171 0.190755 63.877 0.451172C64.4368 0.705078 64.9154 1.10221 65.3125 1.64258C65.7096 2.17643 66.0156 2.85677 66.2305 3.68359C66.4453 4.51042 66.5527 5.49023 66.5527 6.62305ZM64.834 6.68164C64.834 6.46029 64.8242 6.24219 64.8047 6.02734C64.7917 5.80599 64.7754 5.59115 64.7559 5.38281L59.3555 9.39648C59.4531 9.73503 59.5768 10.0475 59.7266 10.334C59.8763 10.6204 60.0553 10.8678 60.2637 11.0762C60.4785 11.278 60.7194 11.4375 60.9863 11.5547C61.2598 11.6654 61.569 11.7207 61.9141 11.7207C62.3568 11.7207 62.7572 11.6133 63.1152 11.3984C63.4798 11.1836 63.7891 10.8646 64.043 10.4414C64.2969 10.0182 64.4922 9.49414 64.6289 8.86914C64.7656 8.23763 64.834 7.50846 64.834 6.68164ZM58.9941 6.56445C58.9941 6.76628 58.9941 6.9681 58.9941 7.16992C59.0007 7.37174 59.0137 7.56706 59.0332 7.75586L64.4336 3.76172C64.3359 3.42969 64.2122 3.12695 64.0625 2.85352C63.9128 2.58008 63.7337 2.3457 63.5254 2.15039C63.3171 1.94857 63.0794 1.79232 62.8125 1.68164C62.5456 1.57096 62.2461 1.51562 61.9141 1.51562C61.4714 1.51562 61.0677 1.62305 60.7031 1.83789C60.3451 2.05273 60.0391 2.375 59.7852 2.80469C59.5312 3.22786 59.3359 3.75521 59.1992 4.38672C59.0625 5.01172 58.9941 5.73763 58.9941 6.56445Z" fill="black"/>
<path opacity="0.5" d="M133.152 13H125.135V11.418H128.416V2.10156L125.359 3.76172L124.734 2.31641L128.797 0.177734H130.301V11.418H133.152V13Z" fill="black"/>
<path opacity="0.5" d="M199.26 13H190.852V11.4766L194.152 8.19531C194.693 7.66146 195.132 7.19922 195.471 6.80859C195.809 6.41797 196.073 6.06315 196.262 5.74414C196.451 5.41862 196.577 5.11263 196.643 4.82617C196.708 4.53971 196.74 4.23047 196.74 3.89844C196.74 3.58594 196.698 3.28971 196.613 3.00977C196.529 2.72331 196.398 2.47266 196.223 2.25781C196.047 2.04297 195.819 1.8737 195.539 1.75C195.259 1.6263 194.924 1.56445 194.533 1.56445C193.993 1.56445 193.501 1.6849 193.059 1.92578C192.616 2.16667 192.209 2.47917 191.838 2.86328L190.9 1.74023C191.382 1.23242 191.936 0.825521 192.561 0.519531C193.192 0.213542 193.924 0.0605469 194.758 0.0605469C195.324 0.0605469 195.839 0.145182 196.301 0.314453C196.77 0.483724 197.173 0.727865 197.512 1.04688C197.85 1.36589 198.111 1.75651 198.293 2.21875C198.482 2.68099 198.576 3.20182 198.576 3.78125C198.576 4.26953 198.511 4.72201 198.381 5.13867C198.251 5.55534 198.052 5.97201 197.785 6.38867C197.525 6.79883 197.193 7.22526 196.789 7.66797C196.392 8.11068 195.92 8.5957 195.373 9.12305L193.059 11.3789H199.26V13Z" fill="black"/>
<path opacity="0.5" d="M10.1387 64.623C10.1387 65.5996 10.041 66.4915 9.8457 67.2988C9.65039 68.0996 9.35417 68.7897 8.95703 69.3691C8.5599 69.9421 8.0651 70.388 7.47266 70.707C6.88672 71.0195 6.19661 71.1758 5.40234 71.1758C4.71875 71.1758 4.09701 71.0488 3.53711 70.7949C2.97721 70.5345 2.4987 70.1374 2.10156 69.6035C1.70443 69.0697 1.39844 68.3893 1.18359 67.5625C0.96875 66.7357 0.861328 65.7559 0.861328 64.623C0.861328 63.6465 0.958984 62.7546 1.1543 61.9473C1.35612 61.14 1.65234 60.4499 2.04297 59.877C2.4401 59.2975 2.9349 58.8516 3.52734 58.5391C4.11979 58.2201 4.8099 58.0605 5.59766 58.0605C6.28125 58.0605 6.90299 58.1908 7.46289 58.4512C8.02279 58.7051 8.5013 59.1022 8.89844 59.6426C9.29557 60.1764 9.60156 60.8568 9.81641 61.6836C10.0313 62.5104 10.1387 63.4902 10.1387 64.623ZM8.41992 64.6816C8.41992 64.4603 8.41016 64.2422 8.39063 64.0273C8.3776 63.806 8.36133 63.5911 8.3418 63.3828L2.94141 67.3965C3.03906 67.735 3.16276 68.0475 3.3125 68.334C3.46224 68.6204 3.64128 68.8678 3.84961 69.0762C4.06445 69.278 4.30534 69.4375 4.57227 69.5547C4.8457 69.6654 5.15495 69.7207 5.5 69.7207C5.94271 69.7207 6.3431 69.6133 6.70117 69.3984C7.06576 69.1836 7.375 68.8646 7.62891 68.4414C7.88281 68.0182 8.07813 67.4941 8.21484 66.8691C8.35156 66.2376 8.41992 65.5085 8.41992 64.6816ZM2.58008 64.5645C2.58008 64.7663 2.58008 64.9681 2.58008 65.1699C2.58659 65.3717 2.59961 65.5671 2.61914 65.7559L8.01953 61.7617C7.92188 61.4297 7.79818 61.127 7.64844 60.8535C7.4987 60.5801 7.31966 60.3457 7.11133 60.1504C6.90299 59.9486 6.66536 59.7923 6.39844 59.6816C6.13151 59.571 5.83203 59.5156 5.5 59.5156C5.05729 59.5156 4.65365 59.623 4.28906 59.8379C3.93099 60.0527 3.625 60.375 3.37109 60.8047C3.11719 61.2279 2.92188 61.7552 2.78516 62.3867C2.64844 63.0117 2.58008 63.7376 2.58008 64.5645Z" fill="black"/>
<path opacity="0.5" d="M9.73828 138H1.7207L1.7207 136.418H5.00195L5.00195 127.102L1.94531 128.762L1.32031 127.316L5.38281 125.178H6.88672L6.88672 136.418H9.73828V138Z" fill="black"/>
<path opacity="0.5" d="M9.8457 204H1.4375L1.4375 202.477L4.73828 199.195C5.27865 198.661 5.7181 198.199 6.05664 197.809C6.39518 197.418 6.65885 197.063 6.84766 196.744C7.03646 196.419 7.16341 196.113 7.22852 195.826C7.29362 195.54 7.32617 195.23 7.32617 194.898C7.32617 194.586 7.28385 194.29 7.19922 194.01C7.11458 193.723 6.98438 193.473 6.80859 193.258C6.63281 193.043 6.40495 192.874 6.125 192.75C5.84505 192.626 5.50977 192.564 5.11914 192.564C4.57878 192.564 4.08724 192.685 3.64453 192.926C3.20182 193.167 2.79492 193.479 2.42383 193.863L1.48633 192.74C1.9681 192.232 2.52148 191.826 3.14648 191.52C3.77799 191.214 4.51042 191.061 5.34375 191.061C5.91016 191.061 6.42448 191.145 6.88672 191.314C7.35547 191.484 7.75911 191.728 8.09766 192.047C8.4362 192.366 8.69661 192.757 8.87891 193.219C9.06771 193.681 9.16211 194.202 9.16211 194.781C9.16211 195.27 9.09701 195.722 8.9668 196.139C8.83659 196.555 8.63802 196.972 8.37109 197.389C8.11068 197.799 7.77865 198.225 7.375 198.668C6.97786 199.111 6.50586 199.596 5.95898 200.123L3.64453 202.379H9.8457V204Z" fill="black"/>
<rect x="28.9141" y="96" width="67" height="66" fill="white" stroke="#7A7A7A"/>
<rect x="95.9141" y="96" width="66" height="66" stroke="#7A7A7A"/>
<rect x="161.5" y="96" width="66" height="66" fill="white" stroke="#7A7A7A"/>
<rect x="96" y="96" width="66" height="66" fill="white" stroke="#7A7A7A"/>
<path d="M68.8721 130.935C68.8721 132.399 68.7256 133.737 68.4326 134.948C68.1396 136.149 67.6953 137.185 67.0996 138.054C66.5039 138.913 65.7617 139.582 64.873 140.061C63.9941 140.529 62.959 140.764 61.7676 140.764C60.7422 140.764 59.8096 140.573 58.9697 140.192C58.1299 139.802 57.4121 139.206 56.8164 138.405C56.2207 137.604 55.7617 136.584 55.4395 135.344C55.1172 134.104 54.9561 132.634 54.9561 130.935C54.9561 129.47 55.1025 128.132 55.3955 126.921C55.6982 125.71 56.1426 124.675 56.7285 123.815C57.3242 122.946 58.0664 122.277 58.9551 121.809C59.8438 121.33 60.8789 121.091 62.0605 121.091C63.0859 121.091 64.0186 121.286 64.8584 121.677C65.6982 122.058 66.416 122.653 67.0117 123.464C67.6074 124.265 68.0664 125.285 68.3887 126.525C68.7109 127.766 68.8721 129.235 68.8721 130.935ZM66.2939 131.022C66.2939 130.69 66.2793 130.363 66.25 130.041C66.2305 129.709 66.2061 129.387 66.1768 129.074L58.0762 135.095C58.2227 135.603 58.4082 136.071 58.6328 136.501C58.8574 136.931 59.126 137.302 59.4385 137.614C59.7607 137.917 60.1221 138.156 60.5225 138.332C60.9326 138.498 61.3965 138.581 61.9141 138.581C62.5781 138.581 63.1787 138.42 63.7158 138.098C64.2627 137.775 64.7266 137.297 65.1074 136.662C65.4883 136.027 65.7812 135.241 65.9863 134.304C66.1914 133.356 66.2939 132.263 66.2939 131.022ZM57.5342 130.847C57.5342 131.149 57.5342 131.452 57.5342 131.755C57.5439 132.058 57.5635 132.351 57.5928 132.634L65.6934 126.643C65.5469 126.145 65.3613 125.69 65.1367 125.28C64.9121 124.87 64.6436 124.519 64.3311 124.226C64.0186 123.923 63.6621 123.688 63.2617 123.522C62.8613 123.356 62.4121 123.273 61.9141 123.273C61.25 123.273 60.6445 123.435 60.0977 123.757C59.5605 124.079 59.1016 124.562 58.7207 125.207C58.3398 125.842 58.0469 126.633 57.8418 127.58C57.6367 128.518 57.5342 129.606 57.5342 130.847Z" fill="#999999"/>
<path d="M135.872 130.935C135.872 132.399 135.726 133.737 135.433 134.948C135.14 136.149 134.695 137.185 134.1 138.054C133.504 138.913 132.762 139.582 131.873 140.061C130.994 140.529 129.959 140.764 128.768 140.764C127.742 140.764 126.81 140.573 125.97 140.192C125.13 139.802 124.412 139.206 123.816 138.405C123.221 137.604 122.762 136.584 122.439 135.344C122.117 134.104 121.956 132.634 121.956 130.935C121.956 129.47 122.103 128.132 122.396 126.921C122.698 125.71 123.143 124.675 123.729 123.815C124.324 122.946 125.066 122.277 125.955 121.809C126.844 121.33 127.879 121.091 129.061 121.091C130.086 121.091 131.019 121.286 131.858 121.677C132.698 122.058 133.416 122.653 134.012 123.464C134.607 124.265 135.066 125.285 135.389 126.525C135.711 127.766 135.872 129.235 135.872 130.935ZM133.294 131.022C133.294 130.69 133.279 130.363 133.25 130.041C133.23 129.709 133.206 129.387 133.177 129.074L125.076 135.095C125.223 135.603 125.408 136.071 125.633 136.501C125.857 136.931 126.126 137.302 126.438 137.614C126.761 137.917 127.122 138.156 127.522 138.332C127.933 138.498 128.396 138.581 128.914 138.581C129.578 138.581 130.179 138.42 130.716 138.098C131.263 137.775 131.727 137.297 132.107 136.662C132.488 136.027 132.781 135.241 132.986 134.304C133.191 133.356 133.294 132.263 133.294 131.022ZM124.534 130.847C124.534 131.149 124.534 131.452 124.534 131.755C124.544 132.058 124.563 132.351 124.593 132.634L132.693 126.643C132.547 126.145 132.361 125.69 132.137 125.28C131.912 124.87 131.644 124.519 131.331 124.226C131.019 123.923 130.662 123.688 130.262 123.522C129.861 123.356 129.412 123.273 128.914 123.273C128.25 123.273 127.645 123.435 127.098 123.757C126.561 124.079 126.102 124.562 125.721 125.207C125.34 125.842 125.047 126.633 124.842 127.58C124.637 128.518 124.534 129.606 124.534 130.847Z" fill="#999999"/>
<path d="M201.872 131.435C201.872 132.899 201.726 134.237 201.433 135.448C201.14 136.649 200.695 137.685 200.1 138.554C199.504 139.413 198.762 140.082 197.873 140.561C196.994 141.029 195.959 141.264 194.768 141.264C193.742 141.264 192.81 141.073 191.97 140.692C191.13 140.302 190.412 139.706 189.816 138.905C189.221 138.104 188.762 137.084 188.439 135.844C188.117 134.604 187.956 133.134 187.956 131.435C187.956 129.97 188.103 128.632 188.396 127.421C188.698 126.21 189.143 125.175 189.729 124.315C190.324 123.446 191.066 122.777 191.955 122.309C192.844 121.83 193.879 121.591 195.061 121.591C196.086 121.591 197.019 121.786 197.858 122.177C198.698 122.558 199.416 123.153 200.012 123.964C200.607 124.765 201.066 125.785 201.389 127.025C201.711 128.266 201.872 129.735 201.872 131.435ZM199.294 131.522C199.294 131.19 199.279 130.863 199.25 130.541C199.23 130.209 199.206 129.887 199.177 129.574L191.076 135.595C191.223 136.103 191.408 136.571 191.633 137.001C191.857 137.431 192.126 137.802 192.438 138.114C192.761 138.417 193.122 138.656 193.522 138.832C193.933 138.998 194.396 139.081 194.914 139.081C195.578 139.081 196.179 138.92 196.716 138.598C197.263 138.275 197.727 137.797 198.107 137.162C198.488 136.527 198.781 135.741 198.986 134.804C199.191 133.856 199.294 132.763 199.294 131.522ZM190.534 131.347C190.534 131.649 190.534 131.952 190.534 132.255C190.544 132.558 190.563 132.851 190.593 133.134L198.693 127.143C198.547 126.645 198.361 126.19 198.137 125.78C197.912 125.37 197.644 125.019 197.331 124.726C197.019 124.423 196.662 124.188 196.262 124.022C195.861 123.856 195.412 123.773 194.914 123.773C194.25 123.773 193.645 123.935 193.098 124.257C192.561 124.579 192.102 125.062 191.721 125.707C191.34 126.342 191.047 127.133 190.842 128.08C190.637 129.018 190.534 130.106 190.534 131.347Z" fill="#999999"/>
<path d="M28.9141 162H95.9141V228H34.4141C31.3765 228 28.9141 225.538 28.9141 222.5V162Z" fill="white" stroke="#7A7A7A"/>
<rect x="95.9141" y="162" width="66" height="66" fill="white" stroke="#7A7A7A"/>
<path d="M68.2715 205.5H56.2451V203.127H61.167V189.152L56.582 191.643L55.6445 189.475L61.7383 186.267H63.9941V203.127H68.2715V205.5Z" fill="black"/>
<path d="M135.872 195.935C135.872 197.399 135.726 198.737 135.433 199.948C135.14 201.149 134.695 202.185 134.1 203.054C133.504 203.913 132.762 204.582 131.873 205.061C130.994 205.529 129.959 205.764 128.768 205.764C127.742 205.764 126.81 205.573 125.97 205.192C125.13 204.802 124.412 204.206 123.816 203.405C123.221 202.604 122.762 201.584 122.439 200.344C122.117 199.104 121.956 197.634 121.956 195.935C121.956 194.47 122.103 193.132 122.396 191.921C122.698 190.71 123.143 189.675 123.729 188.815C124.324 187.946 125.066 187.277 125.955 186.809C126.844 186.33 127.879 186.091 129.061 186.091C130.086 186.091 131.019 186.286 131.858 186.677C132.698 187.058 133.416 187.653 134.012 188.464C134.607 189.265 135.066 190.285 135.389 191.525C135.711 192.766 135.872 194.235 135.872 195.935ZM133.294 196.022C133.294 195.69 133.279 195.363 133.25 195.041C133.23 194.709 133.206 194.387 133.177 194.074L125.076 200.095C125.223 200.603 125.408 201.071 125.633 201.501C125.857 201.931 126.126 202.302 126.438 202.614C126.761 202.917 127.122 203.156 127.522 203.332C127.933 203.498 128.396 203.581 128.914 203.581C129.578 203.581 130.179 203.42 130.716 203.098C131.263 202.775 131.727 202.297 132.107 201.662C132.488 201.027 132.781 200.241 132.986 199.304C133.191 198.356 133.294 197.263 133.294 196.022ZM124.534 195.847C124.534 196.149 124.534 196.452 124.534 196.755C124.544 197.058 124.563 197.351 124.593 197.634L132.693 191.643C132.547 191.145 132.361 190.69 132.137 190.28C131.912 189.87 131.644 189.519 131.331 189.226C131.019 188.923 130.662 188.688 130.262 188.522C129.861 188.356 129.412 188.273 128.914 188.273C128.25 188.273 127.645 188.435 127.098 188.757C126.561 189.079 126.102 189.562 125.721 190.207C125.34 190.842 125.047 191.633 124.842 192.58C124.637 193.518 124.534 194.606 124.534 195.847Z" fill="#999999"/>
<path d="M201.872 196.435C201.872 197.899 201.726 199.237 201.433 200.448C201.14 201.649 200.695 202.685 200.1 203.554C199.504 204.413 198.762 205.082 197.873 205.561C196.994 206.029 195.959 206.264 194.768 206.264C193.742 206.264 192.81 206.073 191.97 205.692C191.13 205.302 190.412 204.706 189.816 203.905C189.221 203.104 188.762 202.084 188.439 200.844C188.117 199.604 187.956 198.134 187.956 196.435C187.956 194.97 188.103 193.632 188.396 192.421C188.698 191.21 189.143 190.175 189.729 189.315C190.324 188.446 191.066 187.777 191.955 187.309C192.844 186.83 193.879 186.591 195.061 186.591C196.086 186.591 197.019 186.786 197.858 187.177C198.698 187.558 199.416 188.153 200.012 188.964C200.607 189.765 201.066 190.785 201.389 192.025C201.711 193.266 201.872 194.735 201.872 196.435ZM199.294 196.522C199.294 196.19 199.279 195.863 199.25 195.541C199.23 195.209 199.206 194.887 199.177 194.574L191.076 200.595C191.223 201.103 191.408 201.571 191.633 202.001C191.857 202.431 192.126 202.802 192.438 203.114C192.761 203.417 193.122 203.656 193.522 203.832C193.933 203.998 194.396 204.081 194.914 204.081C195.578 204.081 196.179 203.92 196.716 203.598C197.263 203.275 197.727 202.797 198.107 202.162C198.488 201.527 198.781 200.741 198.986 199.804C199.191 198.856 199.294 197.763 199.294 196.522ZM190.534 196.347C190.534 196.649 190.534 196.952 190.534 197.255C190.544 197.558 190.563 197.851 190.593 198.134L198.693 192.143C198.547 191.645 198.361 191.19 198.137 190.78C197.912 190.37 197.644 190.019 197.331 189.726C197.019 189.423 196.662 189.188 196.262 189.022C195.861 188.856 195.412 188.773 194.914 188.773C194.25 188.773 193.645 188.935 193.098 189.257C192.561 189.579 192.102 190.062 191.721 190.707C191.34 191.342 191.047 192.133 190.842 193.08C190.637 194.018 190.534 195.106 190.534 196.347Z" fill="#999999"/>
<path d="M312.127 115.525C312.127 116.516 311.987 117.425 311.708 118.255C311.429 119.076 311.027 119.783 310.502 120.375C309.977 120.959 309.338 121.416 308.585 121.746C307.832 122.068 306.977 122.229 306.021 122.229C305.106 122.229 304.285 122.089 303.558 121.81C302.838 121.522 302.225 121.103 301.717 120.553C301.217 120.003 300.832 119.321 300.562 118.509C300.299 117.696 300.168 116.761 300.168 115.703C300.168 114.713 300.308 113.812 300.587 112.999C300.866 112.178 301.268 111.476 301.793 110.892C302.318 110.299 302.957 109.842 303.71 109.521C304.463 109.19 305.318 109.025 306.274 109.025C307.188 109.025 308.005 109.169 308.725 109.457C309.452 109.736 310.066 110.151 310.565 110.701C311.073 111.243 311.458 111.92 311.721 112.732C311.992 113.545 312.127 114.476 312.127 115.525ZM309.867 115.627C309.867 114.84 309.778 114.154 309.601 113.57C309.431 112.978 309.186 112.487 308.864 112.098C308.543 111.7 308.149 111.404 307.684 111.209C307.227 111.006 306.715 110.904 306.147 110.904C305.487 110.904 304.92 111.035 304.446 111.298C303.981 111.552 303.596 111.895 303.291 112.326C302.995 112.758 302.775 113.261 302.631 113.837C302.495 114.404 302.428 115.001 302.428 115.627C302.428 116.414 302.512 117.104 302.682 117.696C302.859 118.289 303.109 118.784 303.431 119.182C303.752 119.571 304.142 119.867 304.599 120.07C305.056 120.265 305.572 120.362 306.147 120.362C306.808 120.362 307.37 120.235 307.836 119.981C308.31 119.719 308.695 119.372 308.991 118.94C309.296 118.509 309.516 118.009 309.651 117.442C309.795 116.867 309.867 116.262 309.867 115.627ZM315.326 109.254H317.294L317.383 111.311C317.755 110.87 318.115 110.507 318.462 110.219C318.809 109.923 319.147 109.686 319.478 109.508C319.816 109.33 320.159 109.207 320.506 109.14C320.853 109.063 321.213 109.025 321.585 109.025C322.897 109.025 323.887 109.415 324.556 110.193C325.233 110.964 325.571 112.127 325.571 113.685V122H323.362V113.862C323.362 112.864 323.176 112.127 322.804 111.653C322.431 111.171 321.877 110.93 321.141 110.93C320.87 110.93 320.603 110.972 320.341 111.057C320.087 111.133 319.82 111.272 319.541 111.476C319.262 111.67 318.957 111.937 318.627 112.275C318.305 112.614 317.941 113.037 317.535 113.545V122H315.326V109.254ZM340.387 114.954C340.387 115.267 340.382 115.53 340.374 115.741C340.366 115.953 340.353 116.152 340.336 116.338H331.386C331.386 117.641 331.75 118.644 332.478 119.347C333.205 120.041 334.255 120.388 335.626 120.388C335.998 120.388 336.371 120.375 336.743 120.35C337.116 120.316 337.475 120.273 337.822 120.223C338.169 120.172 338.499 120.117 338.812 120.058C339.134 119.99 339.43 119.918 339.701 119.842V121.657C339.1 121.826 338.419 121.962 337.657 122.063C336.904 122.174 336.121 122.229 335.309 122.229C334.217 122.229 333.277 122.08 332.49 121.784C331.703 121.488 331.056 121.061 330.548 120.502C330.049 119.935 329.676 119.245 329.431 118.433C329.194 117.612 329.075 116.685 329.075 115.652C329.075 114.755 329.202 113.909 329.456 113.113C329.718 112.309 330.095 111.607 330.586 111.006C331.085 110.396 331.695 109.914 332.414 109.559C333.133 109.203 333.95 109.025 334.864 109.025C335.753 109.025 336.54 109.165 337.226 109.444C337.911 109.724 338.487 110.121 338.952 110.638C339.426 111.146 339.782 111.768 340.019 112.504C340.264 113.232 340.387 114.049 340.387 114.954ZM338.089 114.637C338.114 114.07 338.059 113.553 337.924 113.088C337.788 112.614 337.577 112.208 337.289 111.869C337.01 111.531 336.659 111.268 336.235 111.082C335.812 110.887 335.321 110.79 334.763 110.79C334.28 110.79 333.84 110.883 333.442 111.069C333.045 111.256 332.702 111.518 332.414 111.856C332.126 112.195 331.894 112.601 331.716 113.075C331.538 113.549 331.428 114.07 331.386 114.637H338.089ZM354.009 118.521C354.009 118.97 353.933 119.372 353.78 119.728C353.628 120.083 353.421 120.4 353.158 120.68C352.896 120.951 352.591 121.183 352.244 121.378C351.897 121.573 351.525 121.733 351.127 121.86C350.738 121.987 350.336 122.08 349.921 122.14C349.506 122.199 349.1 122.229 348.702 122.229C347.839 122.229 347.043 122.19 346.315 122.114C345.596 122.038 344.889 121.915 344.195 121.746V119.715C344.94 119.926 345.681 120.087 346.417 120.197C347.153 120.307 347.885 120.362 348.613 120.362C349.671 120.362 350.454 120.218 350.962 119.931C351.47 119.643 351.724 119.232 351.724 118.699C351.724 118.471 351.681 118.268 351.597 118.09C351.521 117.904 351.377 117.73 351.165 117.569C350.953 117.4 350.623 117.227 350.175 117.049C349.735 116.871 349.13 116.668 348.359 116.439C347.784 116.27 347.251 116.08 346.76 115.868C346.277 115.648 345.858 115.39 345.503 115.094C345.147 114.798 344.868 114.451 344.665 114.053C344.462 113.655 344.36 113.185 344.36 112.644C344.36 112.288 344.441 111.899 344.602 111.476C344.771 111.052 345.054 110.659 345.452 110.295C345.85 109.931 346.387 109.631 347.064 109.394C347.742 109.148 348.588 109.025 349.604 109.025C350.103 109.025 350.657 109.055 351.267 109.114C351.876 109.165 352.511 109.258 353.171 109.394V111.361C352.477 111.192 351.817 111.069 351.19 110.993C350.573 110.909 350.035 110.866 349.578 110.866C349.028 110.866 348.562 110.909 348.182 110.993C347.809 111.078 347.505 111.196 347.268 111.349C347.039 111.493 346.874 111.666 346.772 111.869C346.671 112.064 346.62 112.275 346.62 112.504C346.62 112.732 346.662 112.94 346.747 113.126C346.84 113.312 347.005 113.494 347.242 113.672C347.488 113.841 347.826 114.015 348.258 114.192C348.689 114.362 349.252 114.548 349.946 114.751C350.7 114.971 351.334 115.204 351.851 115.449C352.367 115.686 352.786 115.953 353.107 116.249C353.429 116.545 353.658 116.88 353.793 117.252C353.937 117.624 354.009 118.048 354.009 118.521ZM383.081 113.799H372.163V111.933H383.081V113.799ZM383.081 118.217H372.163V116.351H383.081V118.217ZM411.722 122H401.299V119.943H405.564V107.832L401.591 109.99L400.778 108.111L406.06 105.331H408.015V119.943H411.722V122ZM430.308 109.368L431.679 107.959L440.21 115.081L431.679 122.203L430.308 120.807L437.227 115.106L430.308 109.368ZM469.422 113.71C469.422 114.979 469.295 116.139 469.041 117.188C468.787 118.229 468.402 119.127 467.886 119.88C467.369 120.625 466.726 121.204 465.956 121.619C465.194 122.025 464.297 122.229 463.265 122.229C462.376 122.229 461.568 122.063 460.84 121.733C460.112 121.395 459.49 120.879 458.974 120.185C458.457 119.491 458.06 118.606 457.78 117.531C457.501 116.456 457.361 115.183 457.361 113.71C457.361 112.44 457.488 111.281 457.742 110.231C458.005 109.182 458.39 108.285 458.897 107.54C459.414 106.787 460.057 106.207 460.827 105.801C461.597 105.386 462.494 105.179 463.519 105.179C464.407 105.179 465.215 105.348 465.943 105.687C466.671 106.017 467.293 106.533 467.81 107.235C468.326 107.929 468.724 108.814 469.003 109.889C469.282 110.964 469.422 112.237 469.422 113.71ZM467.188 113.786C467.188 113.498 467.175 113.215 467.149 112.936C467.132 112.648 467.111 112.368 467.086 112.098L460.065 117.315C460.192 117.756 460.353 118.162 460.548 118.534C460.743 118.907 460.975 119.228 461.246 119.499C461.525 119.761 461.839 119.969 462.186 120.121C462.541 120.265 462.943 120.337 463.392 120.337C463.967 120.337 464.488 120.197 464.953 119.918C465.427 119.639 465.829 119.224 466.159 118.674C466.489 118.124 466.743 117.442 466.921 116.63C467.099 115.809 467.188 114.861 467.188 113.786ZM459.596 113.634C459.596 113.896 459.596 114.159 459.596 114.421C459.604 114.683 459.621 114.937 459.646 115.183L466.667 109.99C466.54 109.559 466.379 109.165 466.185 108.81C465.99 108.454 465.757 108.149 465.486 107.896C465.215 107.633 464.907 107.43 464.56 107.286C464.213 107.142 463.823 107.07 463.392 107.07C462.816 107.07 462.291 107.21 461.817 107.489C461.352 107.769 460.954 108.188 460.624 108.746C460.294 109.296 460.04 109.982 459.862 110.803C459.685 111.615 459.596 112.559 459.596 113.634Z" fill="black"/>
<path d="M346.552 136.254H348.57L348.634 138.603C349.387 137.697 350.128 137.041 350.855 136.635C351.592 136.229 352.332 136.025 353.077 136.025C354.397 136.025 355.396 136.453 356.073 137.308C356.759 138.162 357.076 139.432 357.025 141.116H354.791C354.816 139.999 354.651 139.191 354.296 138.691C353.949 138.184 353.437 137.93 352.76 137.93C352.464 137.93 352.163 137.985 351.858 138.095C351.562 138.196 351.253 138.366 350.932 138.603C350.618 138.831 350.284 139.127 349.929 139.491C349.573 139.855 349.192 140.295 348.786 140.812V149H346.552V136.254ZM371.092 141.954C371.092 142.267 371.088 142.53 371.079 142.741C371.071 142.953 371.058 143.152 371.041 143.338H362.091C362.091 144.641 362.455 145.644 363.183 146.347C363.91 147.041 364.96 147.388 366.331 147.388C366.703 147.388 367.076 147.375 367.448 147.35C367.821 147.316 368.18 147.273 368.527 147.223C368.874 147.172 369.204 147.117 369.518 147.058C369.839 146.99 370.135 146.918 370.406 146.842V148.657C369.805 148.826 369.124 148.962 368.362 149.063C367.609 149.174 366.826 149.229 366.014 149.229C364.922 149.229 363.982 149.08 363.195 148.784C362.408 148.488 361.761 148.061 361.253 147.502C360.754 146.935 360.381 146.245 360.136 145.433C359.899 144.612 359.78 143.685 359.78 142.652C359.78 141.755 359.907 140.909 360.161 140.113C360.424 139.309 360.8 138.607 361.291 138.006C361.79 137.396 362.4 136.914 363.119 136.559C363.839 136.203 364.655 136.025 365.569 136.025C366.458 136.025 367.245 136.165 367.931 136.444C368.616 136.724 369.192 137.121 369.657 137.638C370.131 138.146 370.487 138.768 370.724 139.504C370.969 140.232 371.092 141.049 371.092 141.954ZM368.794 141.637C368.819 141.07 368.764 140.553 368.629 140.088C368.493 139.614 368.282 139.208 367.994 138.869C367.715 138.531 367.364 138.268 366.94 138.082C366.517 137.887 366.026 137.79 365.468 137.79C364.985 137.79 364.545 137.883 364.147 138.069C363.75 138.256 363.407 138.518 363.119 138.856C362.831 139.195 362.599 139.601 362.421 140.075C362.243 140.549 362.133 141.07 362.091 141.637H368.794ZM384.892 148.822C384.392 148.949 383.876 149.038 383.343 149.089C382.81 149.148 382.268 149.178 381.718 149.178C380.118 149.178 378.925 148.818 378.138 148.099C377.351 147.371 376.957 146.258 376.957 144.76V138.107H373.39V136.254H376.957V132.75L379.166 132.179V136.254H384.892V138.107H379.166V144.582C379.166 145.496 379.407 146.182 379.89 146.639C380.381 147.087 381.1 147.312 382.048 147.312C382.454 147.312 382.898 147.282 383.381 147.223C383.863 147.155 384.367 147.053 384.892 146.918V148.822ZM399.161 149H397.181L397.104 146.943C396.724 147.383 396.36 147.752 396.013 148.048C395.674 148.336 395.336 148.568 394.997 148.746C394.659 148.924 394.316 149.047 393.969 149.114C393.63 149.19 393.271 149.229 392.89 149.229C391.578 149.229 390.588 148.843 389.919 148.073C389.25 147.303 388.916 146.139 388.916 144.582V136.254H391.125V144.404C391.125 146.359 391.861 147.337 393.334 147.337C393.605 147.337 393.867 147.299 394.121 147.223C394.383 147.138 394.654 146.998 394.934 146.804C395.221 146.601 395.526 146.33 395.848 145.991C396.178 145.653 396.546 145.225 396.952 144.709V136.254H399.161V149ZM403.731 136.254H405.75L405.813 138.603C406.567 137.697 407.307 137.041 408.035 136.635C408.771 136.229 409.512 136.025 410.257 136.025C411.577 136.025 412.576 136.453 413.253 137.308C413.938 138.162 414.256 139.432 414.205 141.116H411.971C411.996 139.999 411.831 139.191 411.476 138.691C411.129 138.184 410.617 137.93 409.939 137.93C409.643 137.93 409.343 137.985 409.038 138.095C408.742 138.196 408.433 138.366 408.111 138.603C407.798 138.831 407.464 139.127 407.108 139.491C406.753 139.855 406.372 140.295 405.966 140.812V149H403.731V136.254ZM417.506 136.254H419.474L419.562 138.311C419.935 137.87 420.295 137.507 420.642 137.219C420.989 136.923 421.327 136.686 421.657 136.508C421.996 136.33 422.339 136.207 422.686 136.14C423.033 136.063 423.392 136.025 423.765 136.025C425.076 136.025 426.067 136.415 426.735 137.193C427.412 137.964 427.751 139.127 427.751 140.685V149H425.542V140.862C425.542 139.864 425.356 139.127 424.983 138.653C424.611 138.171 424.057 137.93 423.32 137.93C423.049 137.93 422.783 137.972 422.521 138.057C422.267 138.133 422 138.272 421.721 138.476C421.441 138.67 421.137 138.937 420.807 139.275C420.485 139.614 420.121 140.037 419.715 140.545V149H417.506V136.254ZM455.008 143.122H447.416V141.04H455.008V143.122ZM471.017 149H460.594V146.943H464.859V134.832L460.886 136.99L460.073 135.111L465.354 132.331H467.31V146.943H471.017V149Z" fill="black"/>
<g opacity="0.5" filter="url(#filter0_d_6290_4400)">
<path d="M177.207 63.7073C177.598 63.3168 177.598 62.6836 177.207 62.2931L170.843 55.9291C170.453 55.5386 169.82 55.5386 169.429 55.9291C169.038 56.3196 169.038 56.9528 169.429 57.3433L175.086 63.0002L169.429 68.657C169.038 69.0475 169.038 69.6807 169.429 70.0712C169.819 70.4617 170.453 70.4617 170.843 70.0712L177.207 63.7073ZM176.5 62.0002L148 62L148 64L176.5 64.0002L176.5 62.0002Z" fill="black"/>
</g>
<path d="M336.207 143.707C336.598 143.317 336.598 142.683 336.207 142.293L329.843 135.929C329.453 135.538 328.819 135.538 328.429 135.929C328.038 136.319 328.038 136.953 328.429 137.343L334.086 143L328.429 148.657C328.038 149.047 328.038 149.681 328.429 150.071C328.819 150.462 329.453 150.462 329.843 150.071L336.207 143.707ZM335.5 142L301 142L301 144L335.5 144L335.5 142Z" fill="black"/>
<g opacity="0.5" filter="url(#filter1_d_6290_4400)">
<path d="M80.2929 63.7073C79.9024 63.3168 79.9024 62.6836 80.2929 62.2931L86.6568 55.9291C87.0473 55.5386 87.6805 55.5386 88.071 55.9291C88.4615 56.3196 88.4616 56.9528 88.071 57.3433L82.4142 63.0002L88.0711 68.657C88.4616 69.0475 88.4616 69.6807 88.0711 70.0712C87.6806 70.4617 87.0474 70.4617 86.6569 70.0712L80.2929 63.7073ZM81 62.0002L109.5 62L109.5 64L81 64.0002L81 62.0002Z" fill="black"/>
</g>
</g>
<defs>
<filter id="filter0_d_6290_4400" x="144" y="55.6362" width="37.5" height="22.728" filterUnits="userSpaceOnUse" color-interpolation-filters="sRGB">
<feFlood flood-opacity="0" result="BackgroundImageFix"/>
<feColorMatrix in="SourceAlpha" type="matrix" values="0 0 0 0 0 0 0 0 0 0 0 0 0 0 0 0 0 0 127 0" result="hardAlpha"/>
<feOffset dy="4"/>
<feGaussianBlur stdDeviation="2"/>
<feComposite in2="hardAlpha" operator="out"/>
<feColorMatrix type="matrix" values="0 0 0 0 0 0 0 0 0 0 0 0 0 0 0 0 0 0 0.25 0"/>
<feBlend mode="normal" in2="BackgroundImageFix" result="effect1_dropShadow_6290_4400"/>
<feBlend mode="normal" in="SourceGraphic" in2="effect1_dropShadow_6290_4400" result="shape"/>
</filter>
<filter id="filter1_d_6290_4400" x="76" y="55.6362" width="37.5" height="22.728" filterUnits="userSpaceOnUse" color-interpolation-filters="sRGB">
<feFlood flood-opacity="0" result="BackgroundImageFix"/>
<feColorMatrix in="SourceAlpha" type="matrix" values="0 0 0 0 0 0 0 0 0 0 0 0 0 0 0 0 0 0 127 0" result="hardAlpha"/>
<feOffset dy="4"/>
<feGaussianBlur stdDeviation="2"/>
<feComposite in2="hardAlpha" operator="out"/>
<feColorMatrix type="matrix" values="0 0 0 0 0 0 0 0 0 0 0 0 0 0 0 0 0 0 0.25 0"/>
<feBlend mode="normal" in2="BackgroundImageFix" result="effect1_dropShadow_6290_4400"/>
<feBlend mode="normal" in="SourceGraphic" in2="effect1_dropShadow_6290_4400" result="shape"/>
</filter>
<clipPath id="clip0_6290_4400">
<rect width="494" height="232" fill="white"/>
</clipPath>
</defs>
</svg>
