<svg width="584" height="119" viewBox="0 0 584 119" fill="none" xmlns="http://www.w3.org/2000/svg">
<g clip-path="url(#clip0_6264_2324)">
<rect width="584" height="119" fill="white"/>
<rect x="194" y="1" width="69" height="28" rx="6" fill="#FFF4EF" stroke="#FF5500" stroke-width="2"/>
<path d="M42.0186 81.1953C42.0186 82.0059 41.8525 82.7285 41.5205 83.3633C41.1885 83.9883 40.7246 84.5156 40.1289 84.9453C39.5332 85.375 38.8301 85.7021 38.0195 85.9268C37.209 86.1514 36.3301 86.2637 35.3828 86.2637C34.3379 86.2637 33.415 86.1465 32.6143 85.9121C31.8232 85.6777 31.1592 85.3506 30.6221 84.9307C30.085 84.5107 29.6797 84.0127 29.4062 83.4365C29.1328 82.8604 28.9961 82.2256 28.9961 81.5322C28.9961 80.3604 29.3232 79.3496 29.9775 78.5C30.6318 77.6504 31.6426 76.8789 33.0098 76.1855C31.7598 75.5508 30.8467 74.8477 30.2705 74.0762C29.6943 73.2949 29.4062 72.4014 29.4062 71.3955C29.4062 70.7803 29.5332 70.1846 29.7871 69.6084C30.041 69.0322 30.4219 68.5195 30.9297 68.0703C31.4473 67.6211 32.0918 67.2646 32.8633 67.001C33.6348 66.7275 34.543 66.5908 35.5879 66.5908C36.5742 66.5908 37.4385 66.6982 38.1807 66.9131C38.9326 67.1182 39.5625 67.416 40.0703 67.8066C40.5781 68.1973 40.959 68.6709 41.2129 69.2275C41.4668 69.7842 41.5938 70.4043 41.5938 71.0879C41.5938 72.2012 41.2812 73.1484 40.6562 73.9297C40.041 74.7109 39.1621 75.3945 38.0195 75.9805C38.5859 76.2637 39.1133 76.5762 39.6016 76.918C40.0898 77.2598 40.5146 77.6406 40.876 78.0605C41.2373 78.4805 41.5156 78.9492 41.7109 79.4668C41.916 79.9844 42.0186 80.5605 42.0186 81.1953ZM38.9863 71.293C38.9863 70.4238 38.6787 69.7793 38.0635 69.3594C37.458 68.9297 36.6035 68.7148 35.5 68.7148C34.4062 68.7148 33.5518 68.9248 32.9365 69.3447C32.3311 69.7646 32.0283 70.3945 32.0283 71.2344C32.0283 71.6152 32.1016 71.9668 32.248 72.2891C32.3945 72.6113 32.6191 72.9141 32.9219 73.1973C33.2344 73.4805 33.6201 73.7588 34.0791 74.0322C34.5381 74.3057 35.085 74.584 35.7197 74.8672C36.8232 74.3496 37.6436 73.8125 38.1807 73.2559C38.7178 72.6895 38.9863 72.0352 38.9863 71.293ZM39.25 81.3857C39.25 81.0244 39.1914 80.6729 39.0742 80.3311C38.957 79.9893 38.7471 79.6523 38.4443 79.3203C38.1416 78.9883 37.7363 78.6562 37.2285 78.3242C36.7207 77.9922 36.0762 77.6504 35.2949 77.2988C34.6309 77.6211 34.0693 77.9434 33.6104 78.2656C33.1611 78.5781 32.7949 78.9004 32.5117 79.2324C32.2383 79.5547 32.043 79.8916 31.9258 80.2432C31.8086 80.5947 31.75 80.9658 31.75 81.3564C31.75 81.7959 31.8428 82.1865 32.0283 82.5283C32.2236 82.8604 32.4873 83.1436 32.8193 83.3779C33.1514 83.6123 33.5469 83.7881 34.0059 83.9053C34.4648 84.0225 34.9629 84.0811 35.5 84.0811C36.0176 84.0811 36.5059 84.0273 36.9648 83.9199C37.4238 83.8125 37.8193 83.6514 38.1514 83.4365C38.4932 83.2119 38.7617 82.9336 38.957 82.6016C39.1523 82.2598 39.25 81.8545 39.25 81.3857Z" fill="black"/>
<path d="M106.916 75.3506C106.916 77.2158 106.691 78.8223 106.242 80.1699C105.793 81.5078 105.129 82.6113 104.25 83.4805C103.371 84.3398 102.282 84.9746 100.983 85.3848C99.6846 85.7949 98.1855 86 96.4863 86H94.8896V83.7734H96.6621C97.9219 83.7734 99.0107 83.6465 99.9287 83.3926C100.847 83.1387 101.608 82.7676 102.214 82.2793C102.829 81.7812 103.298 81.1807 103.62 80.4775C103.942 79.7646 104.143 78.9541 104.221 78.0459L104.279 77.4453C103.664 77.8066 102.956 78.0996 102.155 78.3242C101.354 78.5391 100.485 78.6465 99.5479 78.6465C98.5811 78.6465 97.7314 78.5049 96.999 78.2217C96.2666 77.9385 95.6562 77.543 95.168 77.0352C94.6895 76.5273 94.3281 75.9268 94.084 75.2334C93.8398 74.5303 93.7178 73.7686 93.7178 72.9482C93.7178 72.0596 93.8789 71.2295 94.2012 70.458C94.5234 69.6865 94.9727 69.0176 95.5488 68.4512C96.1348 67.875 96.833 67.4209 97.6436 67.0889C98.4541 66.7568 99.3477 66.5908 100.324 66.5908C101.271 66.5908 102.146 66.7471 102.946 67.0596C103.757 67.3721 104.455 67.8799 105.041 68.583C105.627 69.2764 106.086 70.1797 106.418 71.293C106.75 72.4062 106.916 73.7588 106.916 75.3506ZM100.207 68.6855C99.6602 68.6855 99.1523 68.7783 98.6836 68.9639C98.2246 69.1396 97.8242 69.4033 97.4824 69.7549C97.1504 70.0967 96.8867 70.5215 96.6914 71.0293C96.4961 71.5371 96.3984 72.1182 96.3984 72.7725C96.3984 73.3682 96.4668 73.9004 96.6035 74.3691C96.75 74.8379 96.9697 75.2383 97.2627 75.5703C97.5654 75.8926 97.9512 76.1416 98.4199 76.3174C98.8887 76.4932 99.4453 76.5811 100.09 76.5811C100.451 76.5811 100.822 76.5469 101.203 76.4785C101.594 76.4102 101.97 76.3174 102.331 76.2002C102.702 76.083 103.054 75.9463 103.386 75.79C103.718 75.6338 104.016 75.4678 104.279 75.292C104.279 74.0322 104.187 72.9824 104.001 72.1426C103.815 71.293 103.547 70.6143 103.195 70.1064C102.844 69.5889 102.414 69.2227 101.906 69.0078C101.408 68.793 100.842 68.6855 100.207 68.6855Z" fill="black"/>
<path d="M169.857 86H157.831V83.627H162.753V69.6523L158.168 72.1426L157.23 69.9746L163.324 66.7666H165.58V83.627H169.857V86Z" fill="black"/>
<path d="M235.019 86H222.406V83.7148L227.357 78.793C228.168 77.9922 228.827 77.2988 229.335 76.7129C229.843 76.127 230.238 75.5947 230.521 75.1162C230.805 74.6279 230.995 74.1689 231.093 73.7393C231.19 73.3096 231.239 72.8457 231.239 72.3477C231.239 71.8789 231.176 71.4346 231.049 71.0146C230.922 70.585 230.727 70.209 230.463 69.8867C230.199 69.5645 229.857 69.3105 229.438 69.125C229.018 68.9395 228.515 68.8467 227.929 68.8467C227.118 68.8467 226.381 69.0273 225.717 69.3887C225.053 69.75 224.442 70.2188 223.886 70.7949L222.479 69.1104C223.202 68.3486 224.032 67.7383 224.97 67.2793C225.917 66.8203 227.016 66.5908 228.266 66.5908C229.115 66.5908 229.887 66.7178 230.58 66.9717C231.283 67.2256 231.889 67.5918 232.396 68.0703C232.904 68.5488 233.295 69.1348 233.568 69.8281C233.852 70.5215 233.993 71.3027 233.993 72.1719C233.993 72.9043 233.896 73.583 233.7 74.208C233.505 74.833 233.207 75.458 232.807 76.083C232.416 76.6982 231.918 77.3379 231.312 78.002C230.717 78.666 230.009 79.3936 229.188 80.1846L225.717 83.5684H235.019V86Z" fill="black"/>
<path d="M297.652 80.1846C297.652 81.0244 297.481 81.8154 297.14 82.5576C296.798 83.29 296.285 83.9346 295.602 84.4912C294.918 85.0381 294.059 85.4727 293.023 85.7949C291.988 86.1074 290.782 86.2637 289.405 86.2637C288.644 86.2637 287.96 86.2393 287.354 86.1904C286.749 86.1416 286.183 86.0781 285.655 86V83.7148C286.261 83.8223 286.9 83.9053 287.574 83.9639C288.248 84.0225 288.937 84.0518 289.64 84.0518C290.597 84.0518 291.412 83.9688 292.086 83.8027C292.77 83.627 293.326 83.3779 293.756 83.0557C294.186 82.7334 294.498 82.3428 294.693 81.8838C294.889 81.4248 294.986 80.9072 294.986 80.3311C294.986 79.8037 294.869 79.3447 294.635 78.9541C294.4 78.5635 294.068 78.2363 293.639 77.9727C293.219 77.709 292.711 77.5137 292.115 77.3867C291.529 77.25 290.885 77.1816 290.182 77.1816H287.999V75.0869H290.211C290.787 75.0869 291.31 75.0137 291.778 74.8672C292.257 74.7109 292.662 74.4912 292.994 74.208C293.336 73.9248 293.595 73.5781 293.771 73.168C293.956 72.748 294.049 72.2744 294.049 71.7471C294.049 70.7217 293.736 69.9746 293.111 69.5059C292.486 69.0371 291.568 68.8027 290.357 68.8027C289.713 68.8027 289.049 68.8662 288.365 68.9932C287.682 69.1201 286.949 69.3105 286.168 69.5645V67.3379C286.5 67.2207 286.852 67.1182 287.223 67.0303C287.604 66.9326 287.979 66.8545 288.351 66.7959C288.731 66.7275 289.107 66.6787 289.479 66.6494C289.85 66.6104 290.206 66.5908 290.548 66.5908C291.563 66.5908 292.457 66.7031 293.229 66.9277C294 67.1426 294.645 67.4551 295.162 67.8652C295.68 68.2754 296.07 68.7734 296.334 69.3594C296.598 69.9453 296.729 70.6045 296.729 71.3369C296.729 72.4307 296.446 73.3486 295.88 74.0908C295.323 74.833 294.557 75.4238 293.58 75.8633C294.078 75.9414 294.566 76.0977 295.045 76.332C295.533 76.5664 295.968 76.8691 296.349 77.2402C296.739 77.6016 297.052 78.0312 297.286 78.5293C297.53 79.0273 297.652 79.5791 297.652 80.1846Z" fill="#DADADA"/>
<path d="M362.971 81.7666H359.704V86H357.097V81.7666H347.883V79.5254L356.042 66.8545H359.704V79.5254H362.971V81.7666ZM357.097 69.3154L350.432 79.5254H357.097V69.3154Z" fill="#DADADA"/>
<path d="M425.535 79.877C425.535 80.8242 425.33 81.6885 424.92 82.4697C424.51 83.251 423.943 83.9248 423.221 84.4912C422.508 85.0479 421.663 85.4824 420.687 85.7949C419.71 86.1074 418.655 86.2637 417.522 86.2637C417.239 86.2637 416.932 86.2539 416.6 86.2344C416.277 86.2246 415.955 86.2051 415.633 86.1758C415.311 86.1562 414.993 86.1318 414.681 86.1025C414.378 86.0732 414.104 86.0391 413.86 86V83.6855C414.388 83.8125 414.988 83.9053 415.662 83.9639C416.346 84.0225 417.034 84.0518 417.728 84.0518C418.509 84.0518 419.212 83.959 419.837 83.7734C420.462 83.5879 420.994 83.3242 421.434 82.9824C421.873 82.6309 422.21 82.2109 422.444 81.7227C422.679 81.2246 422.796 80.668 422.796 80.0527C422.796 78.8613 422.366 77.9971 421.507 77.46C420.657 76.9131 419.432 76.6396 417.83 76.6396H414.197V66.8545H424.51V69.0811H416.6V74.457H418.27C419.188 74.457 420.081 74.54 420.95 74.7061C421.819 74.8721 422.591 75.165 423.265 75.585C423.948 75.9951 424.495 76.5518 424.905 77.2549C425.325 77.9482 425.535 78.8223 425.535 79.877Z" fill="#DADADA"/>
<path d="M7.27539 92.0059H0.0537109V64.7891H7.27539V66.8398H2.48535V89.9551H7.27539V92.0059Z" fill="black"/>
<path d="M583.44 92.0059H576.219V89.9551H580.979V66.8398H576.219V64.7891H583.44V92.0059Z" fill="black"/>
<path opacity="0.5" d="M40.6025 111.985C40.6025 113.06 40.4951 114.041 40.2803 114.929C40.0654 115.81 39.7396 116.569 39.3027 117.206C38.8659 117.836 38.3216 118.327 37.6699 118.678C37.0254 119.021 36.2663 119.193 35.3926 119.193C34.6406 119.193 33.9567 119.054 33.3408 118.774C32.7249 118.488 32.1986 118.051 31.7617 117.464C31.3249 116.877 30.9883 116.128 30.752 115.219C30.5156 114.309 30.3975 113.231 30.3975 111.985C30.3975 110.911 30.5049 109.93 30.7197 109.042C30.9417 108.154 31.2676 107.395 31.6973 106.765C32.1341 106.127 32.6784 105.637 33.3301 105.293C33.9818 104.942 34.7409 104.767 35.6074 104.767C36.3594 104.767 37.0433 104.91 37.6592 105.196C38.2751 105.476 38.8014 105.912 39.2383 106.507C39.6751 107.094 40.0117 107.842 40.248 108.752C40.4844 109.661 40.6025 110.739 40.6025 111.985ZM38.7119 112.05C38.7119 111.806 38.7012 111.566 38.6797 111.33C38.6654 111.087 38.6475 110.85 38.626 110.621L32.6855 115.036C32.793 115.409 32.929 115.752 33.0938 116.067C33.2585 116.382 33.4554 116.655 33.6846 116.884C33.9209 117.106 34.1859 117.281 34.4795 117.41C34.7803 117.532 35.1204 117.593 35.5 117.593C35.987 117.593 36.4274 117.475 36.8213 117.238C37.2223 117.002 37.5625 116.651 37.8418 116.186C38.1211 115.72 38.3359 115.144 38.4863 114.456C38.6367 113.761 38.7119 112.959 38.7119 112.05ZM32.2881 111.921C32.2881 112.143 32.2881 112.365 32.2881 112.587C32.2952 112.809 32.3096 113.024 32.3311 113.231L38.2715 108.838C38.1641 108.473 38.028 108.14 37.8633 107.839C37.6986 107.538 37.5016 107.28 37.2725 107.065C37.0433 106.843 36.7819 106.672 36.4883 106.55C36.1947 106.428 35.8652 106.367 35.5 106.367C35.013 106.367 34.569 106.485 34.168 106.722C33.7741 106.958 33.4375 107.312 33.1582 107.785C32.8789 108.251 32.6641 108.831 32.5137 109.525C32.3633 110.213 32.2881 111.011 32.2881 111.921Z" fill="black"/>
<path opacity="0.5" d="M105.162 119H96.3428V117.26H99.9521V107.012L96.5898 108.838L95.9023 107.248L100.371 104.896H102.025V117.26H105.162V119Z" fill="black"/>
<path opacity="0.5" d="M168.28 119H159.031V117.324L162.662 113.715C163.257 113.128 163.74 112.619 164.112 112.189C164.485 111.76 164.775 111.369 164.982 111.019C165.19 110.66 165.33 110.324 165.401 110.009C165.473 109.694 165.509 109.354 165.509 108.988C165.509 108.645 165.462 108.319 165.369 108.011C165.276 107.696 165.133 107.42 164.939 107.184C164.746 106.947 164.495 106.761 164.188 106.625C163.88 106.489 163.511 106.421 163.081 106.421C162.487 106.421 161.946 106.553 161.459 106.818C160.972 107.083 160.524 107.427 160.116 107.85L159.085 106.614C159.615 106.056 160.224 105.608 160.911 105.271C161.606 104.935 162.411 104.767 163.328 104.767C163.951 104.767 164.517 104.86 165.025 105.046C165.541 105.232 165.985 105.501 166.357 105.852C166.73 106.202 167.016 106.632 167.217 107.141C167.424 107.649 167.528 108.222 167.528 108.859C167.528 109.396 167.457 109.894 167.313 110.353C167.17 110.811 166.952 111.269 166.658 111.728C166.372 112.179 166.007 112.648 165.562 113.135C165.126 113.622 164.606 114.155 164.005 114.735L161.459 117.217H168.28V119Z" fill="black"/>
<path opacity="0.5" d="M233.012 114.735C233.012 115.351 232.886 115.931 232.636 116.476C232.385 117.013 232.009 117.485 231.508 117.894C231.007 118.295 230.376 118.613 229.617 118.85C228.858 119.079 227.974 119.193 226.964 119.193C226.405 119.193 225.904 119.175 225.46 119.14C225.016 119.104 224.601 119.057 224.214 119V117.324C224.658 117.403 225.127 117.464 225.621 117.507C226.115 117.55 226.62 117.571 227.136 117.571C227.838 117.571 228.436 117.51 228.93 117.389C229.431 117.26 229.839 117.077 230.154 116.841C230.469 116.604 230.699 116.318 230.842 115.981C230.985 115.645 231.057 115.265 231.057 114.843C231.057 114.456 230.971 114.119 230.799 113.833C230.627 113.547 230.383 113.307 230.068 113.113C229.76 112.92 229.388 112.777 228.951 112.684C228.521 112.583 228.049 112.533 227.533 112.533H225.933V110.997H227.555C227.977 110.997 228.36 110.943 228.704 110.836C229.055 110.721 229.352 110.56 229.596 110.353C229.846 110.145 230.036 109.891 230.165 109.59C230.301 109.282 230.369 108.935 230.369 108.548C230.369 107.796 230.14 107.248 229.682 106.904C229.223 106.561 228.55 106.389 227.662 106.389C227.189 106.389 226.702 106.435 226.201 106.528C225.7 106.621 225.163 106.761 224.59 106.947V105.314C224.833 105.229 225.091 105.153 225.363 105.089C225.643 105.017 225.918 104.96 226.19 104.917C226.47 104.867 226.745 104.831 227.018 104.81C227.29 104.781 227.551 104.767 227.802 104.767C228.547 104.767 229.202 104.849 229.768 105.014C230.333 105.171 230.806 105.4 231.186 105.701C231.565 106.002 231.852 106.367 232.045 106.797C232.238 107.227 232.335 107.71 232.335 108.247C232.335 109.049 232.127 109.722 231.712 110.267C231.304 110.811 230.742 111.244 230.025 111.566C230.391 111.624 230.749 111.738 231.1 111.91C231.458 112.082 231.776 112.304 232.056 112.576C232.342 112.841 232.571 113.156 232.743 113.521C232.922 113.887 233.012 114.291 233.012 114.735Z" fill="black"/>
<path opacity="0.5" d="M296.979 115.896H294.583V119H292.671V115.896H285.914V114.252L291.897 104.96H294.583V114.252H296.979V115.896ZM292.671 106.765L287.783 114.252H292.671V106.765Z" fill="#C2C2C2"/>
<path opacity="0.5" d="M359.926 114.51C359.926 115.204 359.775 115.838 359.475 116.411C359.174 116.984 358.758 117.478 358.229 117.894C357.706 118.302 357.086 118.62 356.37 118.85C355.654 119.079 354.881 119.193 354.05 119.193C353.842 119.193 353.617 119.186 353.373 119.172C353.137 119.165 352.9 119.15 352.664 119.129C352.428 119.115 352.195 119.097 351.966 119.075C351.744 119.054 351.543 119.029 351.364 119V117.303C351.751 117.396 352.191 117.464 352.686 117.507C353.187 117.55 353.692 117.571 354.2 117.571C354.773 117.571 355.289 117.503 355.747 117.367C356.205 117.231 356.596 117.038 356.918 116.787C357.24 116.529 357.487 116.221 357.659 115.863C357.831 115.498 357.917 115.09 357.917 114.639C357.917 113.765 357.602 113.131 356.972 112.737C356.349 112.336 355.45 112.136 354.275 112.136H351.611V104.96H359.174V106.593H353.373V110.535H354.598C355.271 110.535 355.926 110.596 356.563 110.718C357.201 110.84 357.767 111.054 358.261 111.362C358.762 111.663 359.163 112.071 359.464 112.587C359.772 113.095 359.926 113.736 359.926 114.51Z" fill="#C2C2C2"/>
<path opacity="0.5" d="M424.452 114.553C424.452 115.197 424.334 115.802 424.098 116.368C423.868 116.934 423.539 117.428 423.109 117.851C422.68 118.266 422.16 118.595 421.552 118.839C420.95 119.075 420.281 119.193 419.543 119.193C418.77 119.193 418.086 119.072 417.491 118.828C416.897 118.577 416.399 118.198 415.998 117.689C415.597 117.174 415.293 116.526 415.085 115.745C414.877 114.965 414.773 114.041 414.773 112.974C414.773 112.257 414.82 111.563 414.913 110.89C415.006 110.216 415.16 109.583 415.375 108.988C415.59 108.394 415.876 107.85 416.234 107.355C416.592 106.861 417.036 106.439 417.566 106.088C418.104 105.73 418.734 105.454 419.457 105.261C420.18 105.06 421.018 104.96 421.971 104.96H423.356V106.593H421.853C421.015 106.593 420.288 106.693 419.672 106.894C419.056 107.094 418.54 107.377 418.125 107.742C417.71 108.107 417.391 108.548 417.169 109.063C416.947 109.579 416.807 110.156 416.75 110.793L416.707 111.233C417.158 110.968 417.677 110.757 418.265 110.6C418.859 110.435 419.5 110.353 420.188 110.353C420.896 110.353 421.516 110.456 422.046 110.664C422.583 110.872 423.027 111.162 423.378 111.534C423.736 111.899 424.005 112.34 424.184 112.855C424.363 113.371 424.452 113.937 424.452 114.553ZM422.497 114.671C422.497 114.241 422.443 113.854 422.336 113.511C422.236 113.16 422.075 112.866 421.853 112.63C421.631 112.386 421.348 112.2 421.004 112.071C420.667 111.935 420.263 111.867 419.79 111.867C419.518 111.867 419.242 111.892 418.963 111.942C418.684 111.993 418.408 112.064 418.136 112.157C417.871 112.243 417.617 112.343 417.373 112.458C417.13 112.573 416.908 112.694 416.707 112.823C416.707 113.747 416.771 114.521 416.9 115.144C417.029 115.759 417.219 116.254 417.47 116.626C417.728 116.998 418.043 117.263 418.415 117.421C418.787 117.578 419.217 117.657 419.704 117.657C420.112 117.657 420.485 117.593 420.821 117.464C421.165 117.328 421.459 117.131 421.702 116.873C421.953 116.615 422.146 116.304 422.282 115.938C422.425 115.566 422.497 115.144 422.497 114.671Z" fill="#C2C2C2"/>
<path d="M490.253 79.9355C490.253 80.8145 490.092 81.6396 489.77 82.4111C489.457 83.1826 489.008 83.8564 488.422 84.4326C487.836 84.999 487.128 85.4482 486.298 85.7803C485.478 86.1025 484.564 86.2637 483.559 86.2637C482.504 86.2637 481.571 86.0977 480.761 85.7656C479.95 85.4238 479.271 84.9062 478.725 84.2129C478.178 83.5098 477.763 82.626 477.479 81.5615C477.196 80.4971 477.055 79.2373 477.055 77.7822C477.055 76.8057 477.118 75.8584 477.245 74.9404C477.372 74.0225 477.582 73.1582 477.875 72.3477C478.168 71.5371 478.559 70.7949 479.047 70.1211C479.535 69.4473 480.141 68.8711 480.863 68.3926C481.596 67.9043 482.455 67.5283 483.441 67.2646C484.428 66.9912 485.57 66.8545 486.869 66.8545H488.759V69.0811H486.708C485.565 69.0811 484.574 69.2178 483.734 69.4912C482.895 69.7646 482.191 70.1504 481.625 70.6484C481.059 71.1465 480.624 71.7471 480.321 72.4502C480.019 73.1533 479.828 73.9395 479.75 74.8086L479.691 75.4092C480.307 75.0479 481.015 74.7598 481.815 74.5449C482.626 74.3203 483.5 74.208 484.438 74.208C485.404 74.208 486.249 74.3496 486.972 74.6328C487.704 74.916 488.31 75.3115 488.788 75.8193C489.276 76.3174 489.643 76.918 489.887 77.6211C490.131 78.3242 490.253 79.0957 490.253 79.9355ZM487.587 80.0967C487.587 79.5107 487.514 78.9834 487.367 78.5146C487.23 78.0361 487.011 77.6357 486.708 77.3135C486.405 76.9814 486.02 76.7275 485.551 76.5518C485.092 76.3662 484.54 76.2734 483.896 76.2734C483.524 76.2734 483.148 76.3076 482.768 76.376C482.387 76.4443 482.011 76.542 481.64 76.6689C481.278 76.7861 480.932 76.9229 480.6 77.0791C480.268 77.2354 479.965 77.4014 479.691 77.5771C479.691 78.8369 479.779 79.8916 479.955 80.7412C480.131 81.5811 480.39 82.2549 480.731 82.7627C481.083 83.2705 481.513 83.6318 482.021 83.8467C482.528 84.0615 483.114 84.1689 483.778 84.1689C484.335 84.1689 484.843 84.0811 485.302 83.9053C485.771 83.7197 486.171 83.4512 486.503 83.0996C486.845 82.748 487.108 82.3232 487.294 81.8252C487.489 81.3174 487.587 80.7412 487.587 80.0967Z" fill="#DADADA"/>
<path d="M553.916 69.2275L545.889 86H542.974L551.309 69.2275H540.967V66.8545H553.916V69.2275Z" fill="#DADADA"/>
<path opacity="0.5" d="M488.205 106.7L482.318 119H480.181L486.293 106.7H478.709V104.96H488.205V106.7Z" fill="#C2C2C2"/>
<path opacity="0.5" d="M552.28 115.477C552.28 116.071 552.159 116.601 551.915 117.066C551.672 117.525 551.331 117.911 550.895 118.227C550.458 118.542 549.942 118.782 549.348 118.946C548.753 119.111 548.109 119.193 547.414 119.193C546.648 119.193 545.971 119.107 545.384 118.936C544.804 118.764 544.317 118.524 543.923 118.216C543.529 117.908 543.232 117.543 543.031 117.12C542.831 116.698 542.73 116.232 542.73 115.724C542.73 114.864 542.97 114.123 543.45 113.5C543.93 112.877 544.671 112.311 545.674 111.803C544.757 111.337 544.088 110.822 543.665 110.256C543.243 109.683 543.031 109.028 543.031 108.29C543.031 107.839 543.124 107.402 543.311 106.979C543.497 106.557 543.776 106.181 544.148 105.852C544.528 105.522 545.001 105.261 545.566 105.067C546.132 104.867 546.798 104.767 547.564 104.767C548.288 104.767 548.922 104.845 549.466 105.003C550.017 105.153 550.479 105.372 550.852 105.658C551.224 105.945 551.503 106.292 551.689 106.7C551.876 107.108 551.969 107.563 551.969 108.064C551.969 108.881 551.74 109.576 551.281 110.148C550.83 110.721 550.186 111.223 549.348 111.652C549.763 111.86 550.15 112.089 550.508 112.34C550.866 112.59 551.177 112.87 551.442 113.178C551.707 113.486 551.911 113.829 552.055 114.209C552.205 114.589 552.28 115.011 552.28 115.477ZM550.057 108.215C550.057 107.577 549.831 107.105 549.38 106.797C548.936 106.482 548.309 106.324 547.5 106.324C546.698 106.324 546.071 106.478 545.62 106.786C545.176 107.094 544.954 107.556 544.954 108.172C544.954 108.451 545.008 108.709 545.115 108.945C545.223 109.182 545.387 109.404 545.609 109.611C545.839 109.819 546.121 110.023 546.458 110.224C546.795 110.424 547.196 110.628 547.661 110.836C548.47 110.456 549.072 110.062 549.466 109.654C549.86 109.239 550.057 108.759 550.057 108.215ZM550.25 115.616C550.25 115.351 550.207 115.093 550.121 114.843C550.035 114.592 549.881 114.345 549.659 114.102C549.437 113.858 549.14 113.615 548.768 113.371C548.395 113.128 547.923 112.877 547.35 112.619C546.863 112.855 546.451 113.092 546.114 113.328C545.785 113.557 545.516 113.794 545.309 114.037C545.108 114.273 544.965 114.521 544.879 114.778C544.793 115.036 544.75 115.308 544.75 115.595C544.75 115.917 544.818 116.203 544.954 116.454C545.097 116.698 545.291 116.905 545.534 117.077C545.778 117.249 546.068 117.378 546.404 117.464C546.741 117.55 547.106 117.593 547.5 117.593C547.88 117.593 548.238 117.553 548.574 117.475C548.911 117.396 549.201 117.278 549.444 117.12C549.695 116.955 549.892 116.751 550.035 116.508C550.178 116.257 550.25 115.96 550.25 115.616Z" fill="#C2C2C2"/>
<path d="M18.9102 8.59766H16.0098V7.20117H20.6289V19.584H23.5488V21H15.6875V19.584H18.9102V8.59766ZM34.8477 15.5801C34.8477 15.821 34.8444 16.0228 34.8379 16.1855C34.8314 16.3483 34.8216 16.5013 34.8086 16.6445H27.9238C27.9238 17.6471 28.2038 18.4186 28.7637 18.959C29.3236 19.4928 30.1309 19.7598 31.1855 19.7598C31.472 19.7598 31.7585 19.75 32.0449 19.7305C32.3314 19.7044 32.6081 19.6719 32.875 19.6328C33.1419 19.5938 33.3958 19.5514 33.6367 19.5059C33.8841 19.4538 34.112 19.3984 34.3203 19.3398V20.7363C33.8581 20.8665 33.334 20.9707 32.748 21.0488C32.1686 21.1335 31.5664 21.1758 30.9414 21.1758C30.1016 21.1758 29.3789 21.0618 28.7734 20.834C28.168 20.6061 27.6699 20.2773 27.2793 19.8477C26.8952 19.4115 26.6087 18.8809 26.4199 18.2559C26.2376 17.6243 26.1465 16.9115 26.1465 16.1172C26.1465 15.4271 26.2441 14.776 26.4395 14.1641C26.6413 13.5456 26.931 13.0052 27.3086 12.543C27.6927 12.0742 28.1615 11.7031 28.7148 11.4297C29.2682 11.1562 29.8965 11.0195 30.5996 11.0195C31.2832 11.0195 31.8887 11.127 32.416 11.3418C32.9434 11.5566 33.3861 11.8626 33.7441 12.2598C34.1087 12.6504 34.3822 13.1289 34.5645 13.6953C34.7533 14.2552 34.8477 14.8835 34.8477 15.5801ZM33.0801 15.3359C33.0996 14.8997 33.0573 14.5026 32.9531 14.1445C32.849 13.7799 32.6862 13.4674 32.4648 13.207C32.25 12.9466 31.9798 12.7448 31.6543 12.6016C31.3288 12.4518 30.9512 12.377 30.5215 12.377C30.1504 12.377 29.8118 12.4486 29.5059 12.5918C29.1999 12.735 28.9362 12.9368 28.7148 13.1973C28.4935 13.4577 28.3145 13.7702 28.1777 14.1348C28.041 14.4993 27.9564 14.8997 27.9238 15.3359H33.0801ZM46.2637 8.7832C45.3717 8.5944 44.6035 8.5 43.959 8.5C42.429 8.5 41.6641 9.30078 41.6641 10.9023V12.6211H45.9609V14.0371H41.6641V21H39.9355V14.0371H36.7812V12.6211H39.9355V11C39.9355 8.38932 41.2962 7.08398 44.0176 7.08398C44.6947 7.08398 45.4434 7.16211 46.2637 7.31836V8.7832ZM56.459 20.8633C56.0749 20.9609 55.6777 21.0293 55.2676 21.0684C54.8574 21.1139 54.4408 21.1367 54.0176 21.1367C52.7871 21.1367 51.8691 20.86 51.2637 20.3066C50.6582 19.7467 50.3555 18.8906 50.3555 17.7383V12.6211H47.6113V11.1953H50.3555V8.5L52.0547 8.06055V11.1953H56.459V12.6211H52.0547V17.6016C52.0547 18.3047 52.2402 18.832 52.6113 19.1836C52.9889 19.5286 53.5423 19.7012 54.2715 19.7012C54.584 19.7012 54.9258 19.6784 55.2969 19.6328C55.668 19.5807 56.0553 19.5026 56.459 19.3984V20.8633Z" fill="#666666"/>
<path d="M202.973 11.1953H204.525L204.574 13.002C205.154 12.3053 205.723 11.8008 206.283 11.4883C206.85 11.1758 207.419 11.0195 207.992 11.0195C209.008 11.0195 209.776 11.3483 210.297 12.0059C210.824 12.6634 211.068 13.64 211.029 14.9355H209.311C209.33 14.0762 209.203 13.4544 208.93 13.0703C208.663 12.6797 208.269 12.4844 207.748 12.4844C207.52 12.4844 207.289 12.5267 207.055 12.6113C206.827 12.6895 206.589 12.8197 206.342 13.002C206.101 13.1777 205.844 13.4056 205.57 13.6855C205.297 13.9655 205.004 14.304 204.691 14.7012V21H202.973V11.1953ZM216.908 12.6016H214.008V11.1953H218.627V19.584H221.547V21H213.686V19.584H216.908V12.6016ZM217.504 7.08398C217.693 7.08398 217.868 7.11979 218.031 7.19141C218.194 7.25651 218.334 7.35091 218.451 7.47461C218.575 7.59831 218.669 7.74154 218.734 7.9043C218.806 8.06055 218.842 8.23307 218.842 8.42188C218.842 8.60417 218.806 8.77669 218.734 8.93945C218.669 9.10221 218.575 9.24544 218.451 9.36914C218.334 9.49284 218.194 9.59049 218.031 9.66211C217.868 9.72721 217.693 9.75977 217.504 9.75977C217.315 9.75977 217.139 9.72721 216.977 9.66211C216.814 9.59049 216.671 9.49284 216.547 9.36914C216.43 9.24544 216.335 9.10221 216.264 8.93945C216.199 8.77669 216.166 8.60417 216.166 8.42188C216.166 8.23307 216.199 8.06055 216.264 7.9043C216.335 7.74154 216.43 7.59831 216.547 7.47461C216.671 7.35091 216.814 7.25651 216.977 7.19141C217.139 7.11979 217.315 7.08398 217.504 7.08398ZM231.625 12.582C231.807 12.8099 231.947 13.0768 232.045 13.3828C232.149 13.6823 232.201 14.0078 232.201 14.3594C232.201 14.8672 232.107 15.3327 231.918 15.7559C231.736 16.1725 231.475 16.5306 231.137 16.8301C230.798 17.1296 230.391 17.3639 229.916 17.5332C229.447 17.696 228.93 17.7773 228.363 17.7773C227.953 17.7773 227.569 17.735 227.211 17.6504C226.853 17.5592 226.57 17.4486 226.361 17.3184C226.238 17.5007 226.133 17.6732 226.049 17.8359C225.964 17.9987 225.922 18.181 225.922 18.3828C225.922 18.6302 226.039 18.8353 226.273 18.998C226.514 19.1608 226.83 19.2487 227.221 19.2617L229.799 19.3594C230.287 19.3724 230.736 19.4342 231.146 19.5449C231.563 19.6556 231.918 19.8151 232.211 20.0234C232.51 20.2318 232.742 20.4889 232.904 20.7949C233.074 21.1009 233.158 21.4557 233.158 21.8594C233.158 22.2956 233.064 22.709 232.875 23.0996C232.686 23.4902 232.393 23.832 231.996 24.125C231.605 24.4245 231.107 24.6621 230.502 24.8379C229.896 25.0137 229.177 25.1016 228.344 25.1016C227.549 25.1016 226.872 25.0365 226.312 24.9062C225.759 24.7826 225.303 24.6068 224.945 24.3789C224.587 24.1576 224.327 23.8906 224.164 23.5781C224.001 23.2721 223.92 22.9336 223.92 22.5625C223.92 22.0872 224.031 21.6706 224.252 21.3125C224.473 20.9544 224.815 20.6094 225.277 20.2773C225.108 20.1992 224.962 20.1016 224.838 19.9844C224.714 19.8672 224.613 19.7402 224.535 19.6035C224.457 19.4603 224.398 19.3105 224.359 19.1543C224.32 18.998 224.301 18.8451 224.301 18.6953C224.301 18.2721 224.398 17.8848 224.594 17.5332C224.796 17.1816 225.033 16.8496 225.307 16.5371C225.183 16.3874 225.072 16.2409 224.975 16.0977C224.883 15.9544 224.802 15.8014 224.73 15.6387C224.665 15.4694 224.613 15.2904 224.574 15.1016C224.542 14.9062 224.525 14.6849 224.525 14.4375C224.525 13.9297 224.617 13.4674 224.799 13.0508C224.988 12.6276 225.248 12.2663 225.58 11.9668C225.919 11.6673 226.322 11.4362 226.791 11.2734C227.266 11.1042 227.79 11.0195 228.363 11.0195C228.604 11.0195 228.835 11.0358 229.057 11.0684C229.278 11.1009 229.473 11.1432 229.643 11.1953H233.197V12.582H231.625ZM225.727 22.416C225.727 22.8783 225.967 23.2135 226.449 23.4219C226.931 23.6367 227.602 23.7441 228.461 23.7441C229.001 23.7441 229.454 23.6953 229.818 23.5977C230.189 23.5 230.486 23.3698 230.707 23.207C230.935 23.0508 231.098 22.8685 231.195 22.6602C231.293 22.4583 231.342 22.25 231.342 22.0352C231.342 21.638 231.179 21.3451 230.854 21.1562C230.528 20.9674 230.03 20.8568 229.359 20.8242L226.801 20.7363C226.586 20.8796 226.407 21.0195 226.264 21.1562C226.127 21.293 226.02 21.4297 225.941 21.5664C225.863 21.7096 225.808 21.8496 225.775 21.9863C225.743 22.1296 225.727 22.2728 225.727 22.416ZM226.244 14.3984C226.244 14.7109 226.296 14.9974 226.4 15.2578C226.505 15.5182 226.651 15.7396 226.84 15.9219C227.029 16.1042 227.25 16.2474 227.504 16.3516C227.764 16.4492 228.051 16.498 228.363 16.498C228.702 16.498 229.001 16.4427 229.262 16.332C229.529 16.2148 229.75 16.0586 229.926 15.8633C230.108 15.668 230.245 15.4434 230.336 15.1895C230.434 14.9355 230.482 14.6719 230.482 14.3984C230.482 14.0859 230.43 13.7995 230.326 13.5391C230.222 13.2786 230.076 13.0573 229.887 12.875C229.698 12.6927 229.473 12.5527 229.213 12.4551C228.959 12.3509 228.676 12.2988 228.363 12.2988C228.025 12.2988 227.722 12.3574 227.455 12.4746C227.195 12.5918 226.973 12.748 226.791 12.9434C226.615 13.1322 226.479 13.3535 226.381 13.6074C226.29 13.8613 226.244 14.125 226.244 14.3984ZM243.441 21H241.742V14.7402C241.742 13.985 241.599 13.4219 241.312 13.0508C241.033 12.6732 240.629 12.4844 240.102 12.4844C239.874 12.4844 239.659 12.5169 239.457 12.582C239.262 12.6406 239.057 12.748 238.842 12.9043C238.627 13.054 238.393 13.2591 238.139 13.5195C237.885 13.7799 237.592 14.1055 237.26 14.4961V21H235.561V7.20117H237.26V11.1953L237.201 12.7383C237.468 12.4193 237.729 12.1523 237.982 11.9375C238.243 11.7161 238.5 11.5371 238.754 11.4004C239.014 11.2637 239.278 11.166 239.545 11.1074C239.812 11.0488 240.089 11.0195 240.375 11.0195C241.352 11.0195 242.107 11.319 242.641 11.918C243.174 12.5104 243.441 13.4056 243.441 14.6035V21ZM254.457 20.8633C254.073 20.9609 253.676 21.0293 253.266 21.0684C252.855 21.1139 252.439 21.1367 252.016 21.1367C250.785 21.1367 249.867 20.86 249.262 20.3066C248.656 19.7467 248.354 18.8906 248.354 17.7383V12.6211H245.609V11.1953H248.354V8.5L250.053 8.06055V11.1953H254.457V12.6211H250.053V17.6016C250.053 18.3047 250.238 18.832 250.609 19.1836C250.987 19.5286 251.54 19.7012 252.27 19.7012C252.582 19.7012 252.924 19.6784 253.295 19.6328C253.666 19.5807 254.053 19.5026 254.457 19.3984V20.8633Z" fill="#FF5500"/>
<path d="M34.2929 57.7071C34.6834 58.0976 35.3166 58.0976 35.7071 57.7071L42.0711 51.3431C42.4616 50.9526 42.4616 50.3195 42.0711 49.9289C41.6805 49.5384 41.0474 49.5384 40.6569 49.9289L35 55.5858L29.3431 49.9289C28.9526 49.5384 28.3195 49.5384 27.9289 49.9289C27.5384 50.3195 27.5384 50.9526 27.9289 51.3431L34.2929 57.7071ZM34 30L34 57L36 57L36 30L34 30Z" fill="#666666"/>
<rect x="1" y="1" width="69" height="28" rx="6" stroke="#666666" stroke-width="2"/>
<path d="M227.293 57.7071C227.683 58.0976 228.317 58.0976 228.707 57.7071L235.071 51.3431C235.462 50.9526 235.462 50.3195 235.071 49.9289C234.681 49.5384 234.047 49.5384 233.657 49.9289L228 55.5858L222.343 49.9289C221.953 49.5384 221.319 49.5384 220.929 49.9289C220.538 50.3195 220.538 50.9526 220.929 51.3431L227.293 57.7071ZM227 30L227 57L229 57L229 30L227 30Z" fill="#FF5500"/>
<path d="M547.504 60.4296C547.984 60.7033 548.595 60.5363 548.869 60.0566C549.142 59.5769 548.975 58.9661 548.496 58.6924L547.504 60.4296ZM237.035 62.7362C236.89 63.2689 237.203 63.8189 237.736 63.9646L246.417 66.3386C246.95 66.4842 247.5 66.1705 247.646 65.6378C247.792 65.105 247.478 64.5551 246.945 64.4094L239.228 62.2992L241.339 54.5825C241.484 54.0498 241.17 53.4998 240.638 53.3542C240.105 53.2085 239.555 53.5222 239.409 54.055L237.035 62.7362ZM544.934 56.9118L544.02 56.5064L543.209 58.3347L544.123 58.7401L544.934 56.9118ZM536.879 56.0462L537.832 56.3492L538.438 54.4432L537.485 54.1402L536.879 56.0462ZM529.869 51.9903L528.9 51.7456L528.41 53.6847L529.38 53.9295L529.869 51.9903ZM521.745 52.1742L522.724 52.3798L523.135 50.4226L522.157 50.2169L521.745 52.1742ZM514.398 48.7107L513.413 48.5339L513.06 50.5023L514.044 50.6792L514.398 48.7107ZM506.296 49.3823L507.284 49.5365L507.592 47.5604L506.604 47.4062L506.296 49.3823ZM498.777 46.2627L497.786 46.1272L497.515 48.1088L498.506 48.2443L498.777 46.2627ZM490.677 47.2389L491.67 47.3585L491.909 45.3729L490.917 45.2532L490.677 47.2389ZM483.117 44.3693L482.123 44.2634L481.911 46.2521L482.906 46.358L483.117 44.3693ZM475.104 45.5768L476.099 45.6704L476.286 43.6792L475.291 43.5856L475.104 45.5768ZM467.425 42.8917L466.428 42.8094L466.264 44.8026L467.26 44.8849L467.425 42.8917ZM459.395 44.2769L460.393 44.3489L460.537 42.354L459.539 42.2821L459.395 44.2769ZM451.709 41.7559L450.711 41.6936L450.587 43.6898L451.585 43.752L451.709 41.7559ZM443.733 43.2988L444.731 43.3519L444.837 41.3547L443.839 41.3017L443.733 43.2988ZM435.942 40.9175L434.943 40.8734L434.855 42.8714L435.854 42.9156L435.942 40.9175ZM428.023 42.6029L429.022 42.6385L429.094 40.6398L428.094 40.6041L428.023 42.6029ZM420.215 40.3561L419.216 40.3289L419.161 42.3281L420.161 42.3554L420.215 40.3561ZM412.291 42.1732L413.291 42.1922L413.329 40.1926L412.329 40.1735L412.291 42.1732ZM404.46 40.0561L403.46 40.0453L403.439 42.0452L404.439 42.056L404.46 40.0561ZM396.572 42.0032L397.572 42.0058L397.577 40.0058L396.577 40.0032L396.572 42.0032ZM388.7 40.0155L387.7 40.0212L387.711 42.0212L388.711 42.0154L388.7 40.0155ZM380.847 42.0937L381.846 42.0795L381.818 40.0797L380.818 40.0939L380.847 42.0937ZM372.942 40.2397L371.942 40.2626L371.988 42.2621L372.988 42.2392L372.942 40.2397ZM365.129 42.4542L366.129 42.4223L366.065 40.4233L365.066 40.4552L365.129 42.4542ZM357.183 40.7432L356.184 40.7844L356.266 42.7827L357.265 42.7415L357.183 40.7432ZM349.426 43.103L350.425 43.052L350.323 41.0546L349.324 41.1056L349.426 43.103ZM341.446 41.5488L340.448 41.6103L340.571 43.6065L341.569 43.5451L341.446 41.5488ZM333.718 44.0716L334.715 43.999L334.57 42.0043L333.573 42.0768L333.718 44.0716ZM325.737 42.6931L324.74 42.7775L324.909 44.7704L325.905 44.686L325.737 42.6931ZM318.069 45.4008L319.064 45.3034L318.869 43.3129L317.874 43.4103L318.069 45.4008ZM310.015 44.236L309.021 44.3477L309.245 46.3352L310.238 46.2234L310.015 44.236ZM302.454 47.1607L303.446 47.0331L303.191 45.0494L302.199 45.1771L302.454 47.1607ZM294.413 46.2489L293.424 46.3944L293.715 48.3731L294.704 48.2276L294.413 46.2489ZM286.914 49.4545L287.9 49.2884L287.568 47.3162L286.582 47.4823L286.914 49.4545ZM278.797 48.8893L277.815 49.0795L278.195 51.043L279.177 50.8528L278.797 48.8893ZM271.503 52.4527L272.478 52.2338L272.041 50.2823L271.065 50.5012L271.503 52.4527ZM263.392 52.3628L262.425 52.6168L262.933 54.5512L263.9 54.2973L263.392 52.3628ZM256.386 56.449L257.341 56.1505L256.744 54.2417L255.789 54.5403L256.386 56.449ZM248.286 57.134L247.352 57.4918L248.068 59.3594L249.002 59.0016L248.286 57.134ZM241.846 62.0969L242.743 61.6557L241.861 59.8609L240.964 60.3021L241.846 62.0969ZM548.496 58.6924C547.428 58.0832 546.238 57.4897 544.934 56.9118L544.123 58.7401C545.377 59.2959 546.505 59.8595 547.504 60.4296L548.496 58.6924ZM537.485 54.1402C535.149 53.3976 532.605 52.6807 529.869 51.9903L529.38 53.9295C532.083 54.6117 534.588 55.3178 536.879 56.0462L537.485 54.1402ZM522.157 50.2169C519.683 49.6972 517.094 49.1949 514.398 48.7107L514.044 50.6792C516.723 51.1603 519.293 51.6589 521.745 52.1742L522.157 50.2169ZM506.604 47.4062C504.069 47.0107 501.458 46.6294 498.777 46.2627L498.506 48.2443C501.175 48.6094 503.774 48.9889 506.296 49.3823L506.604 47.4062ZM490.917 45.2532C488.368 44.9462 485.767 44.6514 483.117 44.3693L482.906 46.358C485.546 46.6392 488.138 46.9329 490.677 47.2389L490.917 45.2532ZM475.291 43.5856C472.706 43.3427 470.083 43.1113 467.425 42.8917L467.26 44.8849C469.911 45.1039 472.527 45.3347 475.104 45.5768L475.291 43.5856ZM459.539 42.2821C456.956 42.0958 454.345 41.9203 451.709 41.7559L451.585 43.752C454.214 43.9161 456.819 44.0911 459.395 44.2769L459.539 42.2821ZM443.839 41.3017C441.226 41.1629 438.593 41.0348 435.942 40.9175L435.854 42.9156C438.499 43.0326 441.126 43.1604 443.733 43.2988L443.839 41.3017ZM428.094 40.6041C425.481 40.5109 422.853 40.4282 420.215 40.3561L420.161 42.3554C422.793 42.4273 425.415 42.5098 428.023 42.6029L428.094 40.6041ZM412.329 40.1735C409.713 40.1238 407.089 40.0846 404.46 40.0561L404.439 42.056C407.062 42.0844 409.68 42.1235 412.291 42.1732L412.329 40.1735ZM396.577 40.0032C393.953 39.9964 391.326 40.0004 388.7 40.0155L388.711 42.0154C391.332 42.0004 393.953 41.9964 396.572 42.0032L396.577 40.0032ZM380.818 40.0939C378.189 40.1312 375.563 40.1798 372.942 40.2397L372.988 42.2392C375.603 42.1794 378.223 42.1309 380.847 42.0937L380.818 40.0939ZM365.066 40.4552C362.429 40.5392 359.8 40.6352 357.183 40.7432L357.265 42.7415C359.876 42.6337 362.499 42.538 365.129 42.4542L365.066 40.4552ZM349.324 41.1056C346.683 41.2406 344.056 41.3883 341.446 41.5488L341.569 43.5451C344.172 43.3849 346.792 43.2376 349.426 43.103L349.324 41.1056ZM333.573 42.0768C330.938 42.2684 328.325 42.4737 325.737 42.6931L325.905 44.686C328.486 44.4673 331.091 44.2626 333.718 44.0716L333.573 42.0768ZM317.874 43.4103C315.223 43.6699 312.602 43.945 310.015 44.236L310.238 46.2234C312.815 45.9336 315.427 45.6595 318.069 45.4008L317.874 43.4103ZM302.199 45.1771C299.561 45.5165 296.964 45.8737 294.413 46.2489L294.704 48.2276C297.243 47.8543 299.828 47.4987 302.454 47.1607L302.199 45.1771ZM286.582 47.4823C283.926 47.9297 281.33 48.3985 278.797 48.8893L279.177 50.8528C281.693 50.3653 284.274 49.8993 286.914 49.4545L286.582 47.4823ZM271.065 50.5012C268.421 51.0942 265.861 51.7146 263.392 52.3628L263.9 54.2973C266.344 53.6556 268.88 53.0409 271.503 52.4527L271.065 50.5012ZM255.789 54.5403C253.152 55.3654 250.647 56.2296 248.286 57.134L249.002 59.0016C251.319 58.1139 253.784 57.2632 256.386 56.449L255.789 54.5403ZM240.964 60.3021C239.754 60.8964 238.6 61.5061 237.504 62.1314L238.496 63.8686C239.553 63.2653 240.67 62.6747 241.846 62.0969L240.964 60.3021Z" fill="#FF5500"/>
<path d="M269 78L567 78" stroke="#DADADA"/>
</g>
<defs>
<clipPath id="clip0_6264_2324">
<rect width="584" height="119" fill="white"/>
</clipPath>
</defs>
</svg>
