<svg width="872" height="109" viewBox="0 0 872 109" fill="none" xmlns="http://www.w3.org/2000/svg">
<g clip-path="url(#clip0_6295_1922)">
<rect width="872" height="109" fill="white"/>
<path d="M147.589 0.253906H149.557L149.646 2.31055C150.018 1.87044 150.378 1.50651 150.725 1.21875C151.072 0.922526 151.41 0.685547 151.74 0.507812C152.079 0.330078 152.422 0.207357 152.769 0.139648C153.116 0.0634766 153.475 0.0253906 153.848 0.0253906C155.16 0.0253906 156.15 0.414714 156.818 1.19336C157.495 1.96354 157.834 3.12728 157.834 4.68457V13H155.625V4.8623C155.625 3.86361 155.439 3.12728 155.066 2.65332C154.694 2.1709 154.14 1.92969 153.403 1.92969C153.132 1.92969 152.866 1.97201 152.604 2.05664C152.35 2.13281 152.083 2.27246 151.804 2.47559C151.524 2.67025 151.22 2.93685 150.89 3.27539C150.568 3.61393 150.204 4.03711 149.798 4.54492V13H147.589V0.253906ZM172.129 13H170.148L170.072 10.9434C169.691 11.3835 169.327 11.7516 168.98 12.0479C168.642 12.3356 168.303 12.5684 167.965 12.7461C167.626 12.9238 167.284 13.0465 166.937 13.1143C166.598 13.1904 166.238 13.2285 165.857 13.2285C164.546 13.2285 163.555 12.8434 162.887 12.0732C162.218 11.3031 161.884 10.1393 161.884 8.58203V0.253906H164.093V8.4043C164.093 10.3594 164.829 11.3369 166.302 11.3369C166.573 11.3369 166.835 11.2988 167.089 11.2227C167.351 11.138 167.622 10.9984 167.901 10.8037C168.189 10.6006 168.494 10.3298 168.815 9.99121C169.146 9.65267 169.514 9.22526 169.92 8.70898V0.253906H172.129V13ZM185.269 13V3.84668C185.269 3.44889 185.252 3.12305 185.218 2.86914C185.192 2.61523 185.146 2.41634 185.078 2.27246C185.019 2.12012 184.938 2.01432 184.837 1.95508C184.744 1.89583 184.625 1.86621 184.481 1.86621C184.312 1.86621 184.156 1.91699 184.012 2.01855C183.868 2.12012 183.711 2.28516 183.542 2.51367C183.381 2.74219 183.199 3.04688 182.996 3.42773C182.801 3.80013 182.569 4.26139 182.298 4.81152V13H180.279V4.08789C180.279 3.6224 180.262 3.24577 180.229 2.95801C180.203 2.67025 180.157 2.44596 180.089 2.28516C180.03 2.12435 179.949 2.01432 179.848 1.95508C179.746 1.89583 179.623 1.86621 179.479 1.86621C179.327 1.86621 179.183 1.90853 179.048 1.99316C178.912 2.0778 178.76 2.23014 178.591 2.4502C178.43 2.67025 178.248 2.9707 178.045 3.35156C177.842 3.73242 177.601 4.21908 177.321 4.81152V13H175.29V0.253906H176.979L177.08 2.67871C177.3 2.19629 177.512 1.78581 177.715 1.44727C177.926 1.10872 178.142 0.837891 178.362 0.634766C178.582 0.423177 178.815 0.270833 179.061 0.177734C179.314 0.0761719 179.594 0.0253906 179.898 0.0253906C180.584 0.0253906 181.104 0.249674 181.46 0.698242C181.815 1.14681 181.993 1.84082 181.993 2.78027C182.196 2.34017 182.395 1.95085 182.59 1.6123C182.785 1.2653 182.992 0.977539 183.212 0.749023C183.44 0.512044 183.69 0.33431 183.961 0.21582C184.232 0.0888672 184.545 0.0253906 184.9 0.0253906C186.5 0.0253906 187.3 1.25684 187.3 3.71973V13H185.269Z" fill="#FF5500"/>
<path d="M166 17C166 16.4477 166.448 16 167 16C167.552 16 168 16.4477 168 17L166 17ZM167.707 43.7071C167.317 44.0976 166.683 44.0976 166.293 43.7071L159.929 37.3431C159.538 36.9526 159.538 36.3195 159.929 35.9289C160.319 35.5384 160.953 35.5384 161.343 35.9289L167 41.5858L172.657 35.9289C173.047 35.5384 173.681 35.5384 174.071 35.9289C174.462 36.3195 174.462 36.9526 174.071 37.3431L167.707 43.7071ZM168 17L168 43L166 43L166 17L168 17Z" fill="#666666"/>
<rect opacity="0.2" x="136" y="46" width="55" height="38" rx="19" fill="#FF5500"/>
<path d="M7.27539 80.0059H0.0537109V52.7891H7.27539V54.8398H2.48535V77.9551H7.27539V80.0059ZM156.074 67.2178H147.314V64.8154H156.074V67.2178ZM174.941 67.9355C174.941 68.8145 174.78 69.6396 174.458 70.4111C174.146 71.1826 173.696 71.8564 173.11 72.4326C172.524 72.999 171.816 73.4482 170.986 73.7803C170.166 74.1025 169.253 74.2637 168.247 74.2637C167.192 74.2637 166.26 74.0977 165.449 73.7656C164.639 73.4238 163.96 72.9062 163.413 72.2129C162.866 71.5098 162.451 70.626 162.168 69.5615C161.885 68.4971 161.743 67.2373 161.743 65.7822C161.743 64.8057 161.807 63.8584 161.934 62.9404C162.061 62.0225 162.271 61.1582 162.563 60.3477C162.856 59.5371 163.247 58.7949 163.735 58.1211C164.224 57.4473 164.829 56.8711 165.552 56.3926C166.284 55.9043 167.144 55.5283 168.13 55.2646C169.116 54.9912 170.259 54.8545 171.558 54.8545H173.447V57.0811H171.396C170.254 57.0811 169.263 57.2178 168.423 57.4912C167.583 57.7646 166.88 58.1504 166.313 58.6484C165.747 59.1465 165.312 59.7471 165.01 60.4502C164.707 61.1533 164.517 61.9395 164.438 62.8086L164.38 63.4092C164.995 63.0479 165.703 62.7598 166.504 62.5449C167.314 62.3203 168.188 62.208 169.126 62.208C170.093 62.208 170.938 62.3496 171.66 62.6328C172.393 62.916 172.998 63.3115 173.477 63.8193C173.965 64.3174 174.331 64.918 174.575 65.6211C174.819 66.3242 174.941 67.0957 174.941 67.9355ZM172.275 68.0967C172.275 67.5107 172.202 66.9834 172.056 66.5146C171.919 66.0361 171.699 65.6357 171.396 65.3135C171.094 64.9814 170.708 64.7275 170.239 64.5518C169.78 64.3662 169.229 64.2734 168.584 64.2734C168.213 64.2734 167.837 64.3076 167.456 64.376C167.075 64.4443 166.699 64.542 166.328 64.6689C165.967 64.7861 165.62 64.9229 165.288 65.0791C164.956 65.2354 164.653 65.4014 164.38 65.5771C164.38 66.8369 164.468 67.8916 164.644 68.7412C164.819 69.5811 165.078 70.2549 165.42 70.7627C165.771 71.2705 166.201 71.6318 166.709 71.8467C167.217 72.0615 167.803 72.1689 168.467 72.1689C169.023 72.1689 169.531 72.0811 169.99 71.9053C170.459 71.7197 170.859 71.4512 171.191 71.0996C171.533 70.748 171.797 70.3232 171.982 69.8252C172.178 69.3174 172.275 68.7412 172.275 68.0967ZM240.684 74H228.071V71.7148L233.022 66.793C233.833 65.9922 234.492 65.2988 235 64.7129C235.508 64.127 235.903 63.5947 236.187 63.1162C236.47 62.6279 236.66 62.1689 236.758 61.7393C236.855 61.3096 236.904 60.8457 236.904 60.3477C236.904 59.8789 236.841 59.4346 236.714 59.0146C236.587 58.585 236.392 58.209 236.128 57.8867C235.864 57.5645 235.522 57.3105 235.103 57.125C234.683 56.9395 234.18 56.8467 233.594 56.8467C232.783 56.8467 232.046 57.0273 231.382 57.3887C230.718 57.75 230.107 58.2188 229.551 58.7949L228.145 57.1104C228.867 56.3486 229.697 55.7383 230.635 55.2793C231.582 54.8203 232.681 54.5908 233.931 54.5908C234.78 54.5908 235.552 54.7178 236.245 54.9717C236.948 55.2256 237.554 55.5918 238.062 56.0703C238.569 56.5488 238.96 57.1348 239.233 57.8281C239.517 58.5215 239.658 59.3027 239.658 60.1719C239.658 60.9043 239.561 61.583 239.365 62.208C239.17 62.833 238.872 63.458 238.472 64.083C238.081 64.6982 237.583 65.3379 236.978 66.002C236.382 66.666 235.674 67.3936 234.854 68.1846L231.382 71.5684H240.684V74ZM288.027 67.2178H279.268V64.8154H288.027V67.2178ZM306.499 74H294.473V71.627H299.395V57.6523L294.81 60.1426L293.872 57.9746L299.966 54.7666H302.222V71.627H306.499V74ZM373.589 69.7666H370.322V74H367.715V69.7666H358.501V67.5254L366.66 54.8545H370.322V67.5254H373.589V69.7666ZM367.715 57.3154L361.05 67.5254H367.715V57.3154ZM419.98 67.2178H411.221V64.8154H419.98V67.2178ZM438.511 63.3506C438.511 65.2158 438.286 66.8223 437.837 68.1699C437.388 69.5078 436.724 70.6113 435.845 71.4805C434.966 72.3398 433.877 72.9746 432.578 73.3848C431.279 73.7949 429.78 74 428.081 74H426.484V71.7734H428.257C429.517 71.7734 430.605 71.6465 431.523 71.3926C432.441 71.1387 433.203 70.7676 433.809 70.2793C434.424 69.7812 434.893 69.1807 435.215 68.4775C435.537 67.7646 435.737 66.9541 435.815 66.0459L435.874 65.4453C435.259 65.8066 434.551 66.0996 433.75 66.3242C432.949 66.5391 432.08 66.6465 431.143 66.6465C430.176 66.6465 429.326 66.5049 428.594 66.2217C427.861 65.9385 427.251 65.543 426.763 65.0352C426.284 64.5273 425.923 63.9268 425.679 63.2334C425.435 62.5303 425.312 61.7686 425.312 60.9482C425.312 60.0596 425.474 59.2295 425.796 58.458C426.118 57.6865 426.567 57.0176 427.144 56.4512C427.729 55.875 428.428 55.4209 429.238 55.0889C430.049 54.7568 430.942 54.5908 431.919 54.5908C432.866 54.5908 433.74 54.7471 434.541 55.0596C435.352 55.3721 436.05 55.8799 436.636 56.583C437.222 57.2764 437.681 58.1797 438.013 59.293C438.345 60.4062 438.511 61.7588 438.511 63.3506ZM431.802 56.6855C431.255 56.6855 430.747 56.7783 430.278 56.9639C429.819 57.1396 429.419 57.4033 429.077 57.7549C428.745 58.0967 428.481 58.5215 428.286 59.0293C428.091 59.5371 427.993 60.1182 427.993 60.7725C427.993 61.3682 428.062 61.9004 428.198 62.3691C428.345 62.8379 428.564 63.2383 428.857 63.5703C429.16 63.8926 429.546 64.1416 430.015 64.3174C430.483 64.4932 431.04 64.5811 431.685 64.5811C432.046 64.5811 432.417 64.5469 432.798 64.4785C433.188 64.4102 433.564 64.3174 433.926 64.2002C434.297 64.083 434.648 63.9463 434.98 63.79C435.312 63.6338 435.61 63.4678 435.874 63.292C435.874 62.0322 435.781 60.9824 435.596 60.1426C435.41 59.293 435.142 58.6143 434.79 58.1064C434.438 57.5889 434.009 57.2227 433.501 57.0078C433.003 56.793 432.437 56.6855 431.802 56.6855ZM468.276 80.0059H461.055V77.9551H465.815V54.8398H461.055V52.7891H468.276V80.0059Z" fill="black"/>
<path d="M42.3877 68.1846C42.3877 69.0244 42.2168 69.8154 41.875 70.5576C41.5332 71.29 41.0205 71.9346 40.3369 72.4912C39.6533 73.0381 38.7939 73.4727 37.7588 73.7949C36.7236 74.1074 35.5176 74.2637 34.1406 74.2637C33.3789 74.2637 32.6953 74.2393 32.0898 74.1904C31.4844 74.1416 30.918 74.0781 30.3906 74V71.7148C30.9961 71.8223 31.6357 71.9053 32.3096 71.9639C32.9834 72.0225 33.6719 72.0518 34.375 72.0518C35.332 72.0518 36.1475 71.9688 36.8213 71.8027C37.5049 71.627 38.0615 71.3779 38.4912 71.0557C38.9209 70.7334 39.2334 70.3428 39.4287 69.8838C39.624 69.4248 39.7217 68.9072 39.7217 68.3311C39.7217 67.8037 39.6045 67.3447 39.3701 66.9541C39.1357 66.5635 38.8037 66.2363 38.374 65.9727C37.9541 65.709 37.4463 65.5137 36.8506 65.3867C36.2646 65.25 35.6201 65.1816 34.917 65.1816H32.7344V63.0869H34.9463C35.5225 63.0869 36.0449 63.0137 36.5137 62.8672C36.9922 62.7109 37.3975 62.4912 37.7295 62.208C38.0713 61.9248 38.3301 61.5781 38.5059 61.168C38.6914 60.748 38.7842 60.2744 38.7842 59.7471C38.7842 58.7217 38.4717 57.9746 37.8467 57.5059C37.2217 57.0371 36.3037 56.8027 35.0928 56.8027C34.4482 56.8027 33.7842 56.8662 33.1006 56.9932C32.417 57.1201 31.6846 57.3105 30.9033 57.5645V55.3379C31.2354 55.2207 31.5869 55.1182 31.958 55.0303C32.3389 54.9326 32.7148 54.8545 33.0859 54.7959C33.4668 54.7275 33.8428 54.6787 34.2139 54.6494C34.585 54.6104 34.9414 54.5908 35.2832 54.5908C36.2988 54.5908 37.1924 54.7031 37.9639 54.9277C38.7354 55.1426 39.3799 55.4551 39.8975 55.8652C40.415 56.2754 40.8057 56.7734 41.0693 57.3594C41.333 57.9453 41.4648 58.6045 41.4648 59.3369C41.4648 60.4307 41.1816 61.3486 40.6152 62.0908C40.0586 62.833 39.292 63.4238 38.3154 63.8633C38.8135 63.9414 39.3018 64.0977 39.7803 64.332C40.2686 64.5664 40.7031 64.8691 41.084 65.2402C41.4746 65.6016 41.7871 66.0312 42.0215 66.5293C42.2656 67.0273 42.3877 67.5791 42.3877 68.1846ZM108.569 74H96.543V71.627H101.465V57.6523L96.8799 60.1426L95.9424 57.9746L102.036 54.7666H104.292V71.627H108.569V74Z" fill="black" fill-opacity="0.2"/>
<path opacity="0.2" d="M41.1025 94.9854C41.1025 96.0596 40.9951 97.0407 40.7803 97.9287C40.5654 98.8096 40.2396 99.5687 39.8027 100.206C39.3659 100.836 38.8216 101.327 38.1699 101.678C37.5254 102.021 36.7663 102.193 35.8926 102.193C35.1406 102.193 34.4567 102.054 33.8408 101.774C33.2249 101.488 32.6986 101.051 32.2617 100.464C31.8249 99.8766 31.4883 99.1283 31.252 98.2188C31.0156 97.3092 30.8975 96.2314 30.8975 94.9854C30.8975 93.9111 31.0049 92.93 31.2197 92.042C31.4417 91.154 31.7676 90.3949 32.1973 89.7646C32.6341 89.1273 33.1784 88.6367 33.8301 88.293C34.4818 87.9421 35.2409 87.7666 36.1074 87.7666C36.8594 87.7666 37.5433 87.9098 38.1592 88.1963C38.7751 88.4756 39.3014 88.9124 39.7383 89.5068C40.1751 90.0941 40.5117 90.8424 40.748 91.752C40.9844 92.6615 41.1025 93.7393 41.1025 94.9854ZM39.2119 95.0498C39.2119 94.8063 39.2012 94.5664 39.1797 94.3301C39.1654 94.0866 39.1475 93.8503 39.126 93.6211L33.1855 98.0361C33.293 98.4085 33.429 98.7523 33.5938 99.0674C33.7585 99.3825 33.9554 99.6546 34.1846 99.8838C34.4209 100.106 34.6859 100.281 34.9795 100.41C35.2803 100.532 35.6204 100.593 36 100.593C36.487 100.593 36.9274 100.475 37.3213 100.238C37.7223 100.002 38.0625 99.651 38.3418 99.1855C38.6211 98.7201 38.8359 98.1436 38.9863 97.4561C39.1367 96.7614 39.2119 95.9593 39.2119 95.0498ZM32.7881 94.9209C32.7881 95.1429 32.7881 95.3649 32.7881 95.5869C32.7952 95.8089 32.8096 96.0238 32.8311 96.2314L38.7715 91.8379C38.6641 91.4727 38.528 91.1396 38.3633 90.8389C38.1986 90.5381 38.0016 90.2803 37.7725 90.0654C37.5433 89.8434 37.2819 89.6715 36.9883 89.5498C36.6947 89.4281 36.3652 89.3672 36 89.3672C35.513 89.3672 35.069 89.4854 34.668 89.7217C34.2741 89.958 33.9375 90.3125 33.6582 90.7852C33.3789 91.2507 33.1641 91.8307 33.0137 92.5254C32.8633 93.2129 32.7881 94.0114 32.7881 94.9209Z" fill="black"/>
<path opacity="0.2" d="M106.662 102H97.8428V100.26H101.452V90.0117L98.0898 91.8379L97.4023 90.248L101.871 87.8955H103.525V100.26H106.662V102Z" fill="black"/>
<path opacity="0.5" d="M172.78 102H163.531V100.324L167.162 96.7148C167.757 96.1276 168.24 95.6191 168.612 95.1895C168.985 94.7598 169.275 94.3695 169.482 94.0186C169.69 93.6605 169.83 93.3239 169.901 93.0088C169.973 92.6937 170.009 92.3535 170.009 91.9883C170.009 91.6445 169.962 91.3187 169.869 91.0107C169.776 90.6956 169.633 90.4199 169.439 90.1836C169.246 89.9473 168.995 89.7611 168.688 89.625C168.38 89.4889 168.011 89.4209 167.581 89.4209C166.987 89.4209 166.446 89.5534 165.959 89.8184C165.472 90.0833 165.024 90.4271 164.616 90.8496L163.585 89.6143C164.115 89.0557 164.724 88.6081 165.411 88.2715C166.106 87.9349 166.911 87.7666 167.828 87.7666C168.451 87.7666 169.017 87.8597 169.525 88.0459C170.041 88.2321 170.485 88.5007 170.857 88.8516C171.23 89.2025 171.516 89.6322 171.717 90.1406C171.924 90.6491 172.028 91.222 172.028 91.8594C172.028 92.3965 171.957 92.8942 171.813 93.3525C171.67 93.8109 171.452 94.2692 171.158 94.7275C170.872 95.1787 170.507 95.6478 170.062 96.1348C169.626 96.6217 169.106 97.1553 168.505 97.7354L165.959 100.217H172.78V102Z" fill="black"/>
<path opacity="0.5" d="M238.512 97.7354C238.512 98.3512 238.386 98.9313 238.136 99.4756C237.885 100.013 237.509 100.485 237.008 100.894C236.507 101.295 235.876 101.613 235.117 101.85C234.358 102.079 233.474 102.193 232.464 102.193C231.905 102.193 231.404 102.175 230.96 102.14C230.516 102.104 230.101 102.057 229.714 102V100.324C230.158 100.403 230.627 100.464 231.121 100.507C231.615 100.55 232.12 100.571 232.636 100.571C233.338 100.571 233.936 100.51 234.43 100.389C234.931 100.26 235.339 100.077 235.654 99.8408C235.969 99.6045 236.199 99.318 236.342 98.9814C236.485 98.6449 236.557 98.2653 236.557 97.8428C236.557 97.4561 236.471 97.1195 236.299 96.833C236.127 96.5465 235.883 96.3066 235.568 96.1133C235.26 95.9199 234.888 95.7767 234.451 95.6836C234.021 95.5833 233.549 95.5332 233.033 95.5332H231.433V93.9971H233.055C233.477 93.9971 233.86 93.9434 234.204 93.8359C234.555 93.7214 234.852 93.5602 235.096 93.3525C235.346 93.1449 235.536 92.8906 235.665 92.5898C235.801 92.2819 235.869 91.9346 235.869 91.5479C235.869 90.7959 235.64 90.248 235.182 89.9043C234.723 89.5605 234.05 89.3887 233.162 89.3887C232.689 89.3887 232.202 89.4352 231.701 89.5283C231.2 89.6214 230.663 89.7611 230.09 89.9473V88.3145C230.333 88.2285 230.591 88.1533 230.863 88.0889C231.143 88.0173 231.418 87.96 231.69 87.917C231.97 87.8669 232.245 87.8311 232.518 87.8096C232.79 87.7809 233.051 87.7666 233.302 87.7666C234.047 87.7666 234.702 87.849 235.268 88.0137C235.833 88.1712 236.306 88.4004 236.686 88.7012C237.065 89.002 237.352 89.3672 237.545 89.7969C237.738 90.2266 237.835 90.71 237.835 91.2471C237.835 92.0492 237.627 92.7223 237.212 93.2666C236.804 93.8109 236.242 94.2441 235.525 94.5664C235.891 94.6237 236.249 94.7383 236.6 94.9102C236.958 95.082 237.276 95.304 237.556 95.5762C237.842 95.8411 238.071 96.1562 238.243 96.5215C238.422 96.8867 238.512 97.2913 238.512 97.7354Z" fill="black"/>
<path opacity="0.5" d="M305.479 98.8955H303.083V102H301.171V98.8955H294.414V97.252L300.397 87.96H303.083V97.252H305.479V98.8955ZM301.171 89.7646L296.283 97.252H301.171V89.7646Z" fill="black"/>
<path opacity="0.5" d="M371.426 97.5098C371.426 98.2044 371.275 98.8382 370.975 99.4111C370.674 99.984 370.258 100.478 369.729 100.894C369.206 101.302 368.586 101.62 367.87 101.85C367.154 102.079 366.381 102.193 365.55 102.193C365.342 102.193 365.117 102.186 364.873 102.172C364.637 102.165 364.4 102.15 364.164 102.129C363.928 102.115 363.695 102.097 363.466 102.075C363.244 102.054 363.043 102.029 362.864 102V100.303C363.251 100.396 363.691 100.464 364.186 100.507C364.687 100.55 365.192 100.571 365.7 100.571C366.273 100.571 366.789 100.503 367.247 100.367C367.705 100.231 368.096 100.038 368.418 99.7871C368.74 99.5293 368.987 99.2214 369.159 98.8633C369.331 98.498 369.417 98.0898 369.417 97.6387C369.417 96.765 369.102 96.1312 368.472 95.7373C367.849 95.3363 366.95 95.1357 365.775 95.1357H363.111V87.96H370.674V89.5928H364.873V93.5352H366.098C366.771 93.5352 367.426 93.596 368.063 93.7178C368.701 93.8395 369.267 94.0544 369.761 94.3623C370.262 94.6631 370.663 95.0713 370.964 95.5869C371.272 96.0954 371.426 96.7363 371.426 97.5098Z" fill="black"/>
<path opacity="0.5" d="M436.952 97.5527C436.952 98.1973 436.834 98.8024 436.598 99.3682C436.368 99.9339 436.039 100.428 435.609 100.851C435.18 101.266 434.66 101.595 434.052 101.839C433.45 102.075 432.781 102.193 432.043 102.193C431.27 102.193 430.586 102.072 429.991 101.828C429.397 101.577 428.899 101.198 428.498 100.689C428.097 100.174 427.793 99.5257 427.585 98.7451C427.377 97.9645 427.273 97.0407 427.273 95.9736C427.273 95.2575 427.32 94.5628 427.413 93.8896C427.506 93.2165 427.66 92.5827 427.875 91.9883C428.09 91.3939 428.376 90.8496 428.734 90.3555C429.092 89.8613 429.536 89.4388 430.066 89.0879C430.604 88.7298 431.234 88.4541 431.957 88.2607C432.68 88.0602 433.518 87.96 434.471 87.96H435.856V89.5928H434.353C433.515 89.5928 432.788 89.693 432.172 89.8936C431.556 90.0941 431.04 90.377 430.625 90.7422C430.21 91.1074 429.891 91.5479 429.669 92.0635C429.447 92.5791 429.307 93.1556 429.25 93.793L429.207 94.2334C429.658 93.9684 430.177 93.7572 430.765 93.5996C431.359 93.4349 432 93.3525 432.688 93.3525C433.396 93.3525 434.016 93.4564 434.546 93.6641C435.083 93.8717 435.527 94.1618 435.878 94.5342C436.236 94.8994 436.505 95.3398 436.684 95.8555C436.863 96.3711 436.952 96.9368 436.952 97.5527ZM434.997 97.6709C434.997 97.2412 434.943 96.8545 434.836 96.5107C434.736 96.1598 434.575 95.8662 434.353 95.6299C434.131 95.3864 433.848 95.2002 433.504 95.0713C433.167 94.9352 432.763 94.8672 432.29 94.8672C432.018 94.8672 431.742 94.8923 431.463 94.9424C431.184 94.9925 430.908 95.0641 430.636 95.1572C430.371 95.2432 430.117 95.3434 429.873 95.458C429.63 95.5726 429.408 95.6943 429.207 95.8232C429.207 96.7471 429.271 97.5205 429.4 98.1436C429.529 98.7594 429.719 99.2536 429.97 99.626C430.228 99.9984 430.543 100.263 430.915 100.421C431.287 100.578 431.717 100.657 432.204 100.657C432.612 100.657 432.985 100.593 433.321 100.464C433.665 100.328 433.959 100.131 434.202 99.873C434.453 99.6152 434.646 99.3037 434.782 98.9385C434.925 98.5661 434.997 98.1436 434.997 97.6709Z" fill="black"/>
<rect x="498" y="42" width="227" height="48" rx="10" fill="#EDEDED" stroke="#999999" stroke-width="2" stroke-dasharray="10 10"/>
<path d="M528.934 73.5303C528.358 73.7503 527.766 73.9111 527.156 74.0127C526.555 74.1227 525.933 74.1777 525.29 74.1777C523.276 74.1777 521.723 73.6318 520.631 72.54C519.548 71.4482 519.006 69.8529 519.006 67.7539C519.006 66.7467 519.162 65.8327 519.476 65.0117C519.789 64.1908 520.229 63.4883 520.796 62.9043C521.363 62.3203 522.04 61.8717 522.827 61.5586C523.614 61.237 524.482 61.0762 525.43 61.0762C526.09 61.0762 526.708 61.1227 527.283 61.2158C527.859 61.3089 528.409 61.4613 528.934 61.6729V63.7803C528.383 63.4925 527.821 63.2852 527.245 63.1582C526.678 63.0228 526.09 62.9551 525.48 62.9551C524.913 62.9551 524.376 63.0651 523.868 63.2852C523.369 63.4967 522.929 63.8057 522.548 64.2119C522.167 64.6182 521.867 65.1133 521.646 65.6973C521.426 66.2812 521.316 66.9414 521.316 67.6777C521.316 69.2181 521.689 70.3734 522.434 71.1436C523.187 71.9053 524.228 72.2861 525.557 72.2861C526.158 72.2861 526.737 72.2184 527.296 72.083C527.863 71.9476 528.409 71.7445 528.934 71.4736V73.5303ZM543.571 74H541.591L541.515 71.9434C541.134 72.3835 540.77 72.7516 540.423 73.0479C540.084 73.3356 539.746 73.5684 539.407 73.7461C539.069 73.9238 538.726 74.0465 538.379 74.1143C538.04 74.1904 537.681 74.2285 537.3 74.2285C535.988 74.2285 534.998 73.8434 534.329 73.0732C533.66 72.3031 533.326 71.1393 533.326 69.582V61.2539H535.535V69.4043C535.535 71.3594 536.271 72.3369 537.744 72.3369C538.015 72.3369 538.277 72.2988 538.531 72.2227C538.794 72.138 539.064 71.9984 539.344 71.8037C539.632 71.6006 539.936 71.3298 540.258 70.9912C540.588 70.6527 540.956 70.2253 541.362 69.709V61.2539H543.571V74ZM548.142 61.2539H550.16L550.224 63.6025C550.977 62.6969 551.717 62.041 552.445 61.6348C553.182 61.2285 553.922 61.0254 554.667 61.0254C555.987 61.0254 556.986 61.4528 557.663 62.3076C558.349 63.1624 558.666 64.432 558.615 66.1162H556.381C556.406 64.999 556.241 64.1908 555.886 63.6914C555.539 63.1836 555.027 62.9297 554.35 62.9297C554.053 62.9297 553.753 62.9847 553.448 63.0947C553.152 63.1963 552.843 63.3656 552.521 63.6025C552.208 63.8311 551.874 64.1273 551.519 64.4912C551.163 64.8551 550.782 65.2952 550.376 65.8115V74H548.142V61.2539ZM562.437 61.2539H564.455L564.519 63.6025C565.272 62.6969 566.012 62.041 566.74 61.6348C567.477 61.2285 568.217 61.0254 568.962 61.0254C570.282 61.0254 571.281 61.4528 571.958 62.3076C572.644 63.1624 572.961 64.432 572.91 66.1162H570.676C570.701 64.999 570.536 64.1908 570.181 63.6914C569.834 63.1836 569.322 62.9297 568.645 62.9297C568.348 62.9297 568.048 62.9847 567.743 63.0947C567.447 63.1963 567.138 63.3656 566.816 63.6025C566.503 63.8311 566.169 64.1273 565.813 64.4912C565.458 64.8551 565.077 65.2952 564.671 65.8115V74H562.437V61.2539ZM588.475 79.2051H574.18V77.377H588.475V79.2051ZM600.599 70.5215C600.599 70.9701 600.522 71.3721 600.37 71.7275C600.218 72.083 600.01 72.4004 599.748 72.6797C599.486 72.9505 599.181 73.1833 598.834 73.3779C598.487 73.5726 598.115 73.7334 597.717 73.8604C597.327 73.9873 596.925 74.0804 596.511 74.1396C596.096 74.1989 595.69 74.2285 595.292 74.2285C594.429 74.2285 593.633 74.1904 592.905 74.1143C592.186 74.0381 591.479 73.9154 590.785 73.7461V71.7148C591.53 71.9264 592.271 72.0872 593.007 72.1973C593.743 72.3073 594.475 72.3623 595.203 72.3623C596.261 72.3623 597.044 72.2184 597.552 71.9307C598.06 71.6429 598.313 71.2324 598.313 70.6992C598.313 70.4707 598.271 70.2676 598.187 70.0898C598.11 69.9036 597.966 69.7301 597.755 69.5693C597.543 69.4001 597.213 69.2266 596.765 69.0488C596.325 68.8711 595.719 68.668 594.949 68.4395C594.374 68.2702 593.84 68.0798 593.35 67.8682C592.867 67.6481 592.448 67.39 592.093 67.0938C591.737 66.7975 591.458 66.4505 591.255 66.0527C591.052 65.6549 590.95 65.1852 590.95 64.6436C590.95 64.2881 591.031 63.8988 591.191 63.4756C591.361 63.0524 591.644 62.6589 592.042 62.2949C592.44 61.931 592.977 61.6305 593.654 61.3936C594.331 61.1481 595.178 61.0254 596.193 61.0254C596.693 61.0254 597.247 61.055 597.856 61.1143C598.466 61.165 599.101 61.2581 599.761 61.3936V63.3613C599.067 63.1921 598.407 63.0693 597.78 62.9932C597.162 62.9085 596.625 62.8662 596.168 62.8662C595.618 62.8662 595.152 62.9085 594.771 62.9932C594.399 63.0778 594.094 63.1963 593.857 63.3486C593.629 63.4925 593.464 63.666 593.362 63.8691C593.261 64.0638 593.21 64.2754 593.21 64.5039C593.21 64.7324 593.252 64.9398 593.337 65.126C593.43 65.3122 593.595 65.4941 593.832 65.6719C594.077 65.8411 594.416 66.0146 594.848 66.1924C595.279 66.3617 595.842 66.5479 596.536 66.751C597.289 66.971 597.924 67.2038 598.44 67.4492C598.957 67.6862 599.376 67.9528 599.697 68.249C600.019 68.5452 600.247 68.8796 600.383 69.252C600.527 69.6243 600.599 70.0475 600.599 70.5215ZM615.046 74H613.065L612.989 71.9434C612.608 72.3835 612.244 72.7516 611.897 73.0479C611.559 73.3356 611.22 73.5684 610.882 73.7461C610.543 73.9238 610.201 74.0465 609.854 74.1143C609.515 74.1904 609.155 74.2285 608.774 74.2285C607.463 74.2285 606.472 73.8434 605.804 73.0732C605.135 72.3031 604.801 71.1393 604.801 69.582V61.2539H607.01V69.4043C607.01 71.3594 607.746 72.3369 609.219 72.3369C609.49 72.3369 609.752 72.2988 610.006 72.2227C610.268 72.138 610.539 71.9984 610.818 71.8037C611.106 71.6006 611.411 71.3298 611.732 70.9912C612.062 70.6527 612.431 70.2253 612.837 69.709V61.2539H615.046V74ZM628.186 74V64.8467C628.186 64.4489 628.169 64.123 628.135 63.8691C628.109 63.6152 628.063 63.4163 627.995 63.2725C627.936 63.1201 627.855 63.0143 627.754 62.9551C627.661 62.8958 627.542 62.8662 627.398 62.8662C627.229 62.8662 627.073 62.917 626.929 63.0186C626.785 63.1201 626.628 63.2852 626.459 63.5137C626.298 63.7422 626.116 64.0469 625.913 64.4277C625.718 64.8001 625.486 65.2614 625.215 65.8115V74H623.196V65.0879C623.196 64.6224 623.179 64.2458 623.146 63.958C623.12 63.6702 623.074 63.446 623.006 63.2852C622.947 63.1243 622.866 63.0143 622.765 62.9551C622.663 62.8958 622.54 62.8662 622.396 62.8662C622.244 62.8662 622.1 62.9085 621.965 62.9932C621.829 63.0778 621.677 63.2301 621.508 63.4502C621.347 63.6702 621.165 63.9707 620.962 64.3516C620.759 64.7324 620.518 65.2191 620.238 65.8115V74H618.207V61.2539H619.896L619.997 63.6787C620.217 63.1963 620.429 62.7858 620.632 62.4473C620.843 62.1087 621.059 61.8379 621.279 61.6348C621.499 61.4232 621.732 61.2708 621.978 61.1777C622.231 61.0762 622.511 61.0254 622.815 61.0254C623.501 61.0254 624.021 61.2497 624.377 61.6982C624.732 62.1468 624.91 62.8408 624.91 63.7803C625.113 63.3402 625.312 62.9508 625.507 62.6123C625.701 62.2653 625.909 61.9775 626.129 61.749C626.357 61.512 626.607 61.3343 626.878 61.2158C627.149 61.0889 627.462 61.0254 627.817 61.0254C629.417 61.0254 630.217 62.2568 630.217 64.7197V74H628.186ZM658.261 65.7988H647.343V63.9326H658.261V65.7988ZM658.261 70.2168H647.343V68.3506H658.261V70.2168ZM685.188 68.1221H677.596V66.04H685.188V68.1221ZM701.539 68.7441C701.539 69.5059 701.399 70.221 701.12 70.8896C700.849 71.5583 700.46 72.1423 699.952 72.6416C699.444 73.1325 698.831 73.5218 698.111 73.8096C697.4 74.0889 696.609 74.2285 695.737 74.2285C694.823 74.2285 694.015 74.0846 693.312 73.7969C692.61 73.5007 692.022 73.0521 691.548 72.4512C691.074 71.8418 690.714 71.0758 690.469 70.1533C690.223 69.2308 690.101 68.139 690.101 66.8779C690.101 66.0316 690.156 65.2106 690.266 64.415C690.376 63.6195 690.558 62.8704 690.812 62.168C691.065 61.4655 691.404 60.8223 691.827 60.2383C692.25 59.6543 692.775 59.1549 693.401 58.7402C694.036 58.3171 694.781 57.9912 695.636 57.7627C696.491 57.5257 697.481 57.4072 698.606 57.4072H700.244V59.3369H698.467C697.477 59.3369 696.618 59.4554 695.89 59.6924C695.162 59.9294 694.552 60.2637 694.062 60.6953C693.571 61.127 693.194 61.6475 692.932 62.2568C692.669 62.8662 692.504 63.5475 692.437 64.3008L692.386 64.8213C692.919 64.5081 693.533 64.2585 694.227 64.0723C694.929 63.8776 695.687 63.7803 696.499 63.7803C697.337 63.7803 698.069 63.903 698.695 64.1484C699.33 64.3939 699.855 64.7367 700.27 65.1768C700.693 65.6084 701.01 66.1289 701.222 66.7383C701.433 67.3477 701.539 68.0163 701.539 68.7441ZM699.229 68.8838C699.229 68.376 699.165 67.9189 699.038 67.5127C698.92 67.098 698.729 66.751 698.467 66.4717C698.204 66.1839 697.87 65.9639 697.464 65.8115C697.066 65.6507 696.588 65.5703 696.029 65.5703C695.708 65.5703 695.382 65.5999 695.052 65.6592C694.722 65.7184 694.396 65.8031 694.074 65.9131C693.761 66.0146 693.461 66.1331 693.173 66.2686C692.885 66.404 692.623 66.5479 692.386 66.7002C692.386 67.792 692.462 68.7061 692.614 69.4424C692.767 70.1702 692.991 70.7542 693.287 71.1943C693.592 71.6344 693.964 71.9476 694.404 72.1338C694.844 72.32 695.352 72.4131 695.928 72.4131C696.41 72.4131 696.85 72.3369 697.248 72.1846C697.654 72.0238 698.001 71.791 698.289 71.4863C698.585 71.1816 698.814 70.8135 698.975 70.3818C699.144 69.9417 699.229 69.4424 699.229 68.8838Z" fill="black"/>
<path d="M769 66C769.552 66 770 66.4477 770 67C770 67.5523 769.552 68 769 68L769 66ZM708.293 67.7071C707.902 67.3166 707.902 66.6834 708.293 66.2929L714.657 59.9289C715.047 59.5384 715.681 59.5384 716.071 59.9289C716.462 60.3195 716.462 60.9526 716.071 61.3431L710.414 67L716.071 72.6569C716.462 73.0474 716.462 73.6805 716.071 74.0711C715.681 74.4616 715.047 74.4616 714.657 74.0711L708.293 67.7071ZM769 68L709 68L709 66L769 66L769 68Z" fill="#666666"/>
<path d="M784.124 69.5215C784.124 69.9701 784.048 70.3721 783.896 70.7275C783.743 71.083 783.536 71.4004 783.273 71.6797C783.011 71.9505 782.706 72.1833 782.359 72.3779C782.012 72.5726 781.64 72.7334 781.242 72.8604C780.853 72.9873 780.451 73.0804 780.036 73.1396C779.621 73.1989 779.215 73.2285 778.817 73.2285C777.954 73.2285 777.159 73.1904 776.431 73.1143C775.711 73.0381 775.005 72.9154 774.311 72.7461V70.7148C775.055 70.9264 775.796 71.0872 776.532 71.1973C777.269 71.3073 778.001 71.3623 778.729 71.3623C779.786 71.3623 780.569 71.2184 781.077 70.9307C781.585 70.6429 781.839 70.2324 781.839 69.6992C781.839 69.4707 781.797 69.2676 781.712 69.0898C781.636 68.9036 781.492 68.7301 781.28 68.5693C781.069 68.4001 780.739 68.2266 780.29 68.0488C779.85 67.8711 779.245 67.668 778.475 67.4395C777.899 67.2702 777.366 67.0798 776.875 66.8682C776.393 66.6481 775.974 66.39 775.618 66.0938C775.263 65.7975 774.983 65.4505 774.78 65.0527C774.577 64.6549 774.476 64.1852 774.476 63.6436C774.476 63.2881 774.556 62.8988 774.717 62.4756C774.886 62.0524 775.17 61.6589 775.567 61.2949C775.965 60.931 776.503 60.6305 777.18 60.3936C777.857 60.1481 778.703 60.0254 779.719 60.0254C780.218 60.0254 780.772 60.055 781.382 60.1143C781.991 60.165 782.626 60.2581 783.286 60.3936V62.3613C782.592 62.1921 781.932 62.0693 781.306 61.9932C780.688 61.9085 780.15 61.8662 779.693 61.8662C779.143 61.8662 778.678 61.9085 778.297 61.9932C777.924 62.0778 777.62 62.1963 777.383 62.3486C777.154 62.4925 776.989 62.666 776.888 62.8691C776.786 63.0638 776.735 63.2754 776.735 63.5039C776.735 63.7324 776.778 63.9398 776.862 64.126C776.955 64.3122 777.12 64.4941 777.357 64.6719C777.603 64.8411 777.941 65.0146 778.373 65.1924C778.805 65.3617 779.368 65.5479 780.062 65.751C780.815 65.971 781.45 66.2038 781.966 66.4492C782.482 66.6862 782.901 66.9528 783.223 67.249C783.544 67.5452 783.773 67.8796 783.908 68.252C784.052 68.6243 784.124 69.0475 784.124 69.5215ZM797.416 73V63.8467C797.416 63.4489 797.399 63.123 797.365 62.8691C797.34 62.6152 797.293 62.4163 797.226 62.2725C797.166 62.1201 797.086 62.0143 796.984 61.9551C796.891 61.8958 796.773 61.8662 796.629 61.8662C796.46 61.8662 796.303 61.917 796.159 62.0186C796.015 62.1201 795.859 62.2852 795.689 62.5137C795.529 62.7422 795.347 63.0469 795.144 63.4277C794.949 63.8001 794.716 64.2614 794.445 64.8115V73H792.427V64.0879C792.427 63.6224 792.41 63.2458 792.376 62.958C792.351 62.6702 792.304 62.446 792.236 62.2852C792.177 62.1243 792.097 62.0143 791.995 61.9551C791.894 61.8958 791.771 61.8662 791.627 61.8662C791.475 61.8662 791.331 61.9085 791.195 61.9932C791.06 62.0778 790.908 62.2301 790.738 62.4502C790.577 62.6702 790.396 62.9707 790.192 63.3516C789.989 63.7324 789.748 64.2191 789.469 64.8115V73H787.438V60.2539H789.126L789.228 62.6787C789.448 62.1963 789.659 61.7858 789.862 61.4473C790.074 61.1087 790.29 60.8379 790.51 60.6348C790.73 60.4232 790.963 60.2708 791.208 60.1777C791.462 60.0762 791.741 60.0254 792.046 60.0254C792.731 60.0254 793.252 60.2497 793.607 60.6982C793.963 61.1468 794.141 61.8408 794.141 62.7803C794.344 62.3402 794.543 61.9508 794.737 61.6123C794.932 61.2653 795.139 60.9775 795.359 60.749C795.588 60.512 795.838 60.3343 796.108 60.2158C796.379 60.0889 796.692 60.0254 797.048 60.0254C798.647 60.0254 799.447 61.2568 799.447 63.7197V73H797.416ZM810.81 73L810.759 71.2861C810.065 71.9717 809.358 72.4668 808.639 72.7715C807.928 73.0762 807.179 73.2285 806.392 73.2285C805.664 73.2285 805.042 73.1354 804.525 72.9492C804.009 72.763 803.582 72.5091 803.243 72.1875C802.913 71.8574 802.668 71.4723 802.507 71.0322C802.354 70.5921 802.278 70.1139 802.278 69.5977C802.278 68.3197 802.752 67.321 803.7 66.6016C804.657 65.8737 806.066 65.5098 807.928 65.5098H810.568V64.3926C810.568 63.6393 810.327 63.0384 809.845 62.5898C809.362 62.1328 808.626 61.9043 807.636 61.9043C806.916 61.9043 806.205 61.9847 805.503 62.1455C804.809 62.3063 804.09 62.5348 803.345 62.8311V60.8379C803.624 60.7363 803.933 60.639 804.271 60.5459C804.618 60.4443 804.982 60.3555 805.363 60.2793C805.744 60.2031 806.142 60.1439 806.557 60.1016C806.971 60.0508 807.39 60.0254 807.813 60.0254C808.584 60.0254 809.278 60.11 809.896 60.2793C810.513 60.4486 811.034 60.7067 811.457 61.0537C811.889 61.4007 812.219 61.8366 812.447 62.3613C812.676 62.8861 812.79 63.5039 812.79 64.2148V73H810.81ZM810.568 67.1982H807.763C807.213 67.1982 806.739 67.2533 806.341 67.3633C805.943 67.4733 805.617 67.6299 805.363 67.833C805.109 68.0361 804.919 68.2816 804.792 68.5693C804.674 68.8486 804.614 69.166 804.614 69.5215C804.614 69.7669 804.652 70.0039 804.729 70.2324C804.805 70.4525 804.927 70.6514 805.097 70.8291C805.266 70.9984 805.486 71.1338 805.757 71.2354C806.028 71.3369 806.358 71.3877 806.747 71.3877C807.255 71.3877 807.835 71.2354 808.486 70.9307C809.146 70.6175 809.84 70.1266 810.568 69.458V67.1982ZM821.258 56.877H817.487V55.0615H823.492V71.1592H827.288V73H817.068V71.1592H821.258V56.877ZM835.553 56.877H831.782V55.0615H837.787V71.1592H841.583V73H831.363V71.1592H835.553V56.877ZM856.271 65.9541C856.271 66.2673 856.267 66.5296 856.259 66.7412C856.25 66.9528 856.238 67.1517 856.221 67.3379H847.271C847.271 68.6413 847.634 69.6442 848.362 70.3467C849.09 71.0407 850.14 71.3877 851.511 71.3877C851.883 71.3877 852.256 71.375 852.628 71.3496C853 71.3158 853.36 71.2734 853.707 71.2227C854.054 71.1719 854.384 71.1169 854.697 71.0576C855.019 70.9899 855.315 70.918 855.586 70.8418V72.6572C854.985 72.8265 854.304 72.9619 853.542 73.0635C852.789 73.1735 852.006 73.2285 851.193 73.2285C850.102 73.2285 849.162 73.0804 848.375 72.7842C847.588 72.488 846.94 72.0605 846.433 71.502C845.933 70.9349 845.561 70.2451 845.315 69.4326C845.078 68.6117 844.96 67.6849 844.96 66.6523C844.96 65.7552 845.087 64.9089 845.341 64.1133C845.603 63.3092 845.98 62.6068 846.471 62.0059C846.97 61.3965 847.579 60.9141 848.299 60.5586C849.018 60.2031 849.835 60.0254 850.749 60.0254C851.638 60.0254 852.425 60.165 853.11 60.4443C853.796 60.7236 854.371 61.1214 854.837 61.6377C855.311 62.1455 855.666 62.7676 855.903 63.5039C856.149 64.2318 856.271 65.0485 856.271 65.9541ZM853.974 65.6367C853.999 65.0697 853.944 64.5534 853.809 64.0879C853.673 63.6139 853.462 63.2077 853.174 62.8691C852.895 62.5306 852.543 62.2682 852.12 62.082C851.697 61.8874 851.206 61.79 850.647 61.79C850.165 61.79 849.725 61.8831 849.327 62.0693C848.929 62.2555 848.587 62.5179 848.299 62.8564C848.011 63.195 847.778 63.6012 847.601 64.0752C847.423 64.5492 847.313 65.0697 847.271 65.6367H853.974ZM860.321 60.2539H862.34L862.403 62.6025C863.157 61.6969 863.897 61.041 864.625 60.6348C865.361 60.2285 866.102 60.0254 866.847 60.0254C868.167 60.0254 869.166 60.4528 869.843 61.3076C870.528 62.1624 870.846 63.432 870.795 65.1162H868.561C868.586 63.999 868.421 63.1908 868.065 62.6914C867.718 62.1836 867.206 61.9297 866.529 61.9297C866.233 61.9297 865.933 61.9847 865.628 62.0947C865.332 62.1963 865.023 62.3656 864.701 62.6025C864.388 62.8311 864.054 63.1273 863.698 63.4912C863.343 63.8551 862.962 64.2952 862.556 64.8115V73H860.321V60.2539Z" fill="#666666"/>
</g>
<defs>
<clipPath id="clip0_6295_1922">
<rect width="872" height="109" fill="white"/>
</clipPath>
</defs>
</svg>
