<svg width="728" height="448" viewBox="0 0 728 448" fill="none" xmlns="http://www.w3.org/2000/svg">
<g clip-path="url(#clip0_6292_3433)">
<rect width="728" height="448" fill="white"/>
<path d="M360.5 291.5H359.5V292.5H360.5V291.5ZM454.707 292.207C455.098 291.817 455.098 291.183 454.707 290.793L448.343 284.429C447.953 284.038 447.319 284.038 446.929 284.429C446.538 284.819 446.538 285.453 446.929 285.843L452.586 291.5L446.929 297.157C446.538 297.547 446.538 298.181 446.929 298.571C447.319 298.962 447.953 298.962 448.343 298.571L454.707 292.207ZM361.5 291.5V107H359.5V291.5H361.5ZM360.5 292.5H454V290.5H360.5V292.5Z" fill="#8DEFA9"/>
<rect x="349" y="197" width="21" height="23" fill="white"/>
<path d="M327.5 129V68.5H135V447H261.5V383H202V129H327.5Z" fill="#D6F2FF"/>
<path d="M136 326V262H58.2119V198H1V326H136Z" fill="#D6F2FF"/>
<path d="M360.5 99.5V4" stroke="#8DEFA9" stroke-width="2"/>
<path d="M327.5 47.5V69H135.5V261.5H58V197H1V325.5H135.5V447H265.5V383H201.5V129H327.5V319.5H451.5L468 336" stroke="black" stroke-width="2"/>
<path d="M327.5 39.5V6" stroke="black" stroke-width="2" stroke-dasharray="8 8"/>
<path d="M389.5 39.5V6" stroke="black" stroke-width="2" stroke-dasharray="8 8"/>
<path opacity="0.2" d="M450.914 100.914C451.695 100.133 451.695 98.8668 450.914 98.0858L438.186 85.3579C437.405 84.5768 436.139 84.5768 435.358 85.3579C434.577 86.1389 434.577 87.4052 435.358 88.1863L446.672 99.5L435.358 110.814C434.577 111.595 434.577 112.861 435.358 113.642C436.139 114.423 437.405 114.423 438.186 113.642L450.914 100.914ZM383.5 101.5L449.5 101.5L449.5 97.5L383.5 97.5L383.5 101.5Z" fill="black"/>
<path d="M389.5 48V67H522V1H714V67H594.5V129H390V261.5H454L469.5 246" stroke="black" stroke-width="2"/>
<path d="M0 194.5H59" stroke="black" stroke-width="10"/>
<path d="M265.5 382L265.5 448" stroke="black" stroke-width="10"/>
<path d="M714.5 0L714.5 68" stroke="black" stroke-width="10"/>
<path opacity="0.2" d="M478.207 107.753C477.357 108.095 476.532 108.349 475.731 108.515C474.94 108.681 474.115 108.764 473.256 108.764C471.879 108.764 470.658 108.563 469.594 108.163C468.539 107.753 467.646 107.147 466.913 106.347C466.19 105.546 465.639 104.555 465.258 103.373C464.887 102.182 464.701 100.8 464.701 99.2275C464.701 97.6162 464.906 96.1855 465.316 94.9355C465.727 93.6758 466.312 92.6162 467.074 91.7568C467.836 90.8877 468.759 90.2285 469.843 89.7793C470.937 89.3203 472.162 89.0908 473.52 89.0908C473.959 89.0908 474.369 89.1006 474.75 89.1201C475.141 89.1396 475.521 89.1787 475.893 89.2373C476.264 89.2861 476.64 89.3545 477.021 89.4424C477.401 89.5303 477.797 89.6426 478.207 89.7793V93.3535C477.377 92.9629 476.586 92.6846 475.834 92.5186C475.082 92.3525 474.398 92.2695 473.783 92.2695C472.875 92.2695 472.099 92.4355 471.454 92.7676C470.81 93.0898 470.277 93.5488 469.857 94.1445C469.447 94.7305 469.145 95.4336 468.949 96.2539C468.754 97.0645 468.656 97.958 468.656 98.9346C468.656 99.9697 468.754 100.897 468.949 101.718C469.154 102.528 469.467 103.217 469.887 103.783C470.307 104.35 470.844 104.784 471.498 105.087C472.152 105.38 472.929 105.526 473.827 105.526C474.149 105.526 474.496 105.497 474.867 105.438C475.248 105.37 475.629 105.287 476.01 105.189C476.4 105.082 476.781 104.96 477.152 104.823C477.533 104.677 477.885 104.53 478.207 104.384V107.753Z" fill="black"/>
<path d="M359.086 189.914C359.867 190.695 361.133 190.695 361.914 189.914L374.642 177.186C375.423 176.405 375.423 175.139 374.642 174.358C373.861 173.577 372.595 173.577 371.814 174.358L360.5 185.672L349.186 174.358C348.405 173.577 347.139 173.577 346.358 174.358C345.577 175.139 345.577 176.405 346.358 177.186L359.086 189.914ZM358.5 122.5L358.5 188.5L362.5 188.5L362.5 122.5L358.5 122.5Z" fill="#00BD36"/>
<path d="M353.39 218V198.854H359.571C361.749 198.854 363.38 199.235 364.464 199.997C365.558 200.759 366.104 201.911 366.104 203.454C366.104 203.933 366.046 204.401 365.929 204.86C365.821 205.31 365.65 205.725 365.416 206.105C365.182 206.486 364.889 206.823 364.537 207.116C364.186 207.409 363.771 207.639 363.292 207.805C363.771 207.883 364.225 208.039 364.654 208.273C365.094 208.498 365.475 208.796 365.797 209.167C366.129 209.528 366.388 209.958 366.573 210.456C366.769 210.954 366.866 211.511 366.866 212.126C366.866 214.079 366.212 215.549 364.903 216.535C363.595 217.512 361.705 218 359.234 218H353.39ZM362.354 204.084C362.354 203.723 362.296 203.396 362.179 203.103C362.062 202.81 361.871 202.561 361.607 202.355C361.354 202.15 361.021 201.994 360.611 201.887C360.211 201.77 359.723 201.711 359.146 201.711H356.964V206.779H359.146C359.732 206.779 360.226 206.711 360.626 206.574C361.036 206.428 361.368 206.232 361.622 205.988C361.886 205.734 362.071 205.446 362.179 205.124C362.296 204.802 362.354 204.455 362.354 204.084ZM359.483 215.056C360.06 215.056 360.562 214.982 360.992 214.836C361.432 214.689 361.798 214.489 362.091 214.235C362.384 213.972 362.604 213.664 362.75 213.312C362.906 212.961 362.984 212.585 362.984 212.185C362.984 211.354 362.672 210.705 362.047 210.236C361.432 209.768 360.484 209.533 359.205 209.533H356.964V215.056H359.483Z" fill="#00BD36"/>
<circle cx="360" cy="100" r="8" fill="#EBFFF1" stroke="#8DEFA9" stroke-width="2"/>
<path d="M477.799 283.081H469.669V289.292H477.374V291.475H469.669V300H467.003V280.854H477.799V283.081ZM495.641 292.529C495.641 293.672 495.479 294.722 495.157 295.679C494.835 296.626 494.371 297.441 493.766 298.125C493.16 298.799 492.423 299.326 491.554 299.707C490.685 300.078 489.698 300.264 488.595 300.264C487.54 300.264 486.593 300.103 485.753 299.78C484.923 299.448 484.215 298.965 483.629 298.33C483.053 297.695 482.608 296.909 482.296 295.972C481.993 295.034 481.842 293.955 481.842 292.734C481.842 291.592 482.003 290.552 482.325 289.614C482.647 288.667 483.111 287.856 483.717 287.183C484.322 286.499 485.06 285.972 485.929 285.601C486.798 285.22 487.784 285.029 488.888 285.029C489.942 285.029 490.885 285.195 491.715 285.527C492.555 285.85 493.263 286.328 493.839 286.963C494.425 287.588 494.869 288.369 495.172 289.307C495.484 290.244 495.641 291.318 495.641 292.529ZM493.033 292.646C493.033 291.738 492.931 290.947 492.726 290.273C492.53 289.59 492.247 289.023 491.876 288.574C491.505 288.115 491.051 287.773 490.514 287.549C489.986 287.314 489.396 287.197 488.741 287.197C487.979 287.197 487.325 287.349 486.778 287.651C486.241 287.944 485.797 288.34 485.445 288.838C485.104 289.336 484.85 289.917 484.684 290.581C484.527 291.235 484.449 291.924 484.449 292.646C484.449 293.555 484.547 294.351 484.742 295.034C484.947 295.718 485.235 296.289 485.606 296.748C485.978 297.197 486.427 297.539 486.954 297.773C487.481 297.998 488.077 298.11 488.741 298.11C489.503 298.11 490.152 297.964 490.689 297.671C491.236 297.368 491.681 296.968 492.022 296.47C492.374 295.972 492.628 295.396 492.784 294.741C492.95 294.077 493.033 293.379 493.033 292.646ZM511.153 300H508.868L508.78 297.627C508.341 298.135 507.921 298.56 507.521 298.901C507.13 299.233 506.739 299.502 506.349 299.707C505.958 299.912 505.562 300.054 505.162 300.132C504.771 300.22 504.356 300.264 503.917 300.264C502.403 300.264 501.261 299.819 500.489 298.931C499.718 298.042 499.332 296.699 499.332 294.902V285.293H501.881V294.697C501.881 296.953 502.73 298.081 504.43 298.081C504.742 298.081 505.045 298.037 505.338 297.949C505.641 297.852 505.953 297.69 506.275 297.466C506.607 297.231 506.959 296.919 507.33 296.528C507.711 296.138 508.136 295.645 508.604 295.049V285.293H511.153V300ZM515.826 285.293H518.097L518.199 287.666C518.629 287.158 519.044 286.738 519.444 286.406C519.845 286.064 520.235 285.791 520.616 285.586C521.007 285.381 521.402 285.239 521.803 285.161C522.203 285.073 522.618 285.029 523.048 285.029C524.562 285.029 525.704 285.479 526.476 286.377C527.257 287.266 527.647 288.608 527.647 290.405V300H525.099V290.61C525.099 289.458 524.884 288.608 524.454 288.062C524.024 287.505 523.385 287.227 522.535 287.227C522.223 287.227 521.915 287.275 521.612 287.373C521.319 287.461 521.012 287.622 520.689 287.856C520.367 288.081 520.016 288.389 519.635 288.779C519.264 289.17 518.844 289.658 518.375 290.244V300H515.826V285.293ZM531.573 292.954C531.573 291.704 531.744 290.596 532.086 289.629C532.428 288.652 532.911 287.832 533.536 287.168C534.171 286.494 534.928 285.986 535.807 285.645C536.695 285.293 537.682 285.117 538.766 285.117C539.234 285.117 539.693 285.146 540.143 285.205C540.602 285.264 541.051 285.356 541.49 285.483V279.302H544.054V300H541.769L541.681 297.217C540.968 298.252 540.196 299.019 539.366 299.517C538.536 300.015 537.638 300.264 536.671 300.264C535.831 300.264 535.089 300.088 534.444 299.736C533.81 299.385 533.277 298.892 532.848 298.257C532.428 297.612 532.11 296.841 531.896 295.942C531.681 295.044 531.573 294.048 531.573 292.954ZM534.181 292.793C534.181 294.57 534.439 295.898 534.957 296.777C535.484 297.646 536.227 298.081 537.184 298.081C537.828 298.081 538.507 297.793 539.22 297.217C539.942 296.641 540.699 295.786 541.49 294.653V287.827C541.07 287.632 540.606 287.485 540.099 287.388C539.591 287.28 539.088 287.227 538.59 287.227C537.203 287.227 536.119 287.676 535.338 288.574C534.566 289.473 534.181 290.879 534.181 292.793ZM574.757 300L574.698 298.022C573.897 298.813 573.082 299.385 572.252 299.736C571.432 300.088 570.567 300.264 569.659 300.264C568.819 300.264 568.102 300.156 567.506 299.941C566.91 299.727 566.417 299.434 566.026 299.062C565.646 298.682 565.362 298.237 565.177 297.729C565.001 297.222 564.913 296.67 564.913 296.074C564.913 294.6 565.46 293.447 566.554 292.617C567.657 291.777 569.283 291.357 571.432 291.357H574.479V290.068C574.479 289.199 574.2 288.506 573.644 287.988C573.087 287.461 572.237 287.197 571.095 287.197C570.265 287.197 569.444 287.29 568.634 287.476C567.833 287.661 567.003 287.925 566.144 288.267V285.967C566.466 285.85 566.822 285.737 567.213 285.63C567.613 285.513 568.033 285.41 568.473 285.322C568.912 285.234 569.371 285.166 569.85 285.117C570.328 285.059 570.812 285.029 571.3 285.029C572.188 285.029 572.989 285.127 573.702 285.322C574.415 285.518 575.016 285.815 575.504 286.216C576.002 286.616 576.383 287.119 576.646 287.725C576.91 288.33 577.042 289.043 577.042 289.863V300H574.757ZM574.479 293.306H571.241C570.606 293.306 570.06 293.369 569.601 293.496C569.142 293.623 568.766 293.804 568.473 294.038C568.18 294.272 567.96 294.556 567.813 294.888C567.677 295.21 567.608 295.576 567.608 295.986C567.608 296.27 567.652 296.543 567.74 296.807C567.828 297.061 567.97 297.29 568.165 297.495C568.36 297.69 568.614 297.847 568.927 297.964C569.239 298.081 569.62 298.14 570.069 298.14C570.655 298.14 571.324 297.964 572.076 297.612C572.838 297.251 573.639 296.685 574.479 295.913V293.306ZM611.92 285.293L609.781 300H606.69L604.566 293.848L604.142 292.354L603.658 293.936L601.622 300H598.619L596.495 285.293H598.985L600.216 295.283L600.479 297.51L601.109 295.562L603.248 288.955H605.079L607.379 295.474L608.038 297.422L608.258 295.356L609.4 285.293H611.92ZM624.239 300L624.181 298.022C623.38 298.813 622.564 299.385 621.734 299.736C620.914 300.088 620.05 300.264 619.142 300.264C618.302 300.264 617.584 300.156 616.988 299.941C616.393 299.727 615.899 299.434 615.509 299.062C615.128 298.682 614.845 298.237 614.659 297.729C614.483 297.222 614.396 296.67 614.396 296.074C614.396 294.6 614.942 293.447 616.036 292.617C617.14 291.777 618.766 291.357 620.914 291.357H623.961V290.068C623.961 289.199 623.683 288.506 623.126 287.988C622.569 287.461 621.72 287.197 620.577 287.197C619.747 287.197 618.927 287.29 618.116 287.476C617.315 287.661 616.485 287.925 615.626 288.267V285.967C615.948 285.85 616.305 285.737 616.695 285.63C617.096 285.513 617.516 285.41 617.955 285.322C618.395 285.234 618.854 285.166 619.332 285.117C619.811 285.059 620.294 285.029 620.782 285.029C621.671 285.029 622.472 285.127 623.185 285.322C623.897 285.518 624.498 285.815 624.986 286.216C625.484 286.616 625.865 287.119 626.129 287.725C626.393 288.33 626.524 289.043 626.524 289.863V300H624.239ZM623.961 293.306H620.724C620.089 293.306 619.542 293.369 619.083 293.496C618.624 293.623 618.248 293.804 617.955 294.038C617.662 294.272 617.442 294.556 617.296 294.888C617.159 295.21 617.091 295.576 617.091 295.986C617.091 296.27 617.135 296.543 617.223 296.807C617.311 297.061 617.452 297.29 617.647 297.495C617.843 297.69 618.097 297.847 618.409 297.964C618.722 298.081 619.103 298.14 619.552 298.14C620.138 298.14 620.807 297.964 621.559 297.612C622.32 297.251 623.121 296.685 623.961 295.913V293.306ZM644.366 285.293L639.356 298.447C638.839 299.785 638.302 300.938 637.745 301.904C637.198 302.871 636.598 303.662 635.943 304.277C635.289 304.902 634.571 305.361 633.79 305.654C633.009 305.947 632.135 306.094 631.168 306.094C630.914 306.094 630.685 306.089 630.479 306.079C630.274 306.069 630.05 306.055 629.806 306.035V303.721C630.021 303.75 630.255 303.774 630.509 303.794C630.763 303.823 631.031 303.838 631.314 303.838C631.783 303.838 632.218 303.77 632.618 303.633C633.028 303.496 633.414 303.271 633.775 302.959C634.137 302.656 634.483 302.261 634.815 301.772C635.147 301.284 635.47 300.693 635.782 300L629.908 285.293H632.809L636.529 295.02L637.276 297.305L638.126 294.961L641.568 285.293H644.366ZM677.076 292.529C677.076 293.672 676.915 294.722 676.593 295.679C676.271 296.626 675.807 297.441 675.201 298.125C674.596 298.799 673.858 299.326 672.989 299.707C672.12 300.078 671.134 300.264 670.03 300.264C668.976 300.264 668.028 300.103 667.188 299.78C666.358 299.448 665.65 298.965 665.064 298.33C664.488 297.695 664.044 296.909 663.731 295.972C663.429 295.034 663.277 293.955 663.277 292.734C663.277 291.592 663.438 290.552 663.761 289.614C664.083 288.667 664.547 287.856 665.152 287.183C665.758 286.499 666.495 285.972 667.364 285.601C668.233 285.22 669.22 285.029 670.323 285.029C671.378 285.029 672.32 285.195 673.15 285.527C673.99 285.85 674.698 286.328 675.274 286.963C675.86 287.588 676.305 288.369 676.607 289.307C676.92 290.244 677.076 291.318 677.076 292.529ZM674.469 292.646C674.469 291.738 674.366 290.947 674.161 290.273C673.966 289.59 673.683 289.023 673.312 288.574C672.94 288.115 672.486 287.773 671.949 287.549C671.422 287.314 670.831 287.197 670.177 287.197C669.415 287.197 668.761 287.349 668.214 287.651C667.677 287.944 667.232 288.34 666.881 288.838C666.539 289.336 666.285 289.917 666.119 290.581C665.963 291.235 665.885 291.924 665.885 292.646C665.885 293.555 665.982 294.351 666.178 295.034C666.383 295.718 666.671 296.289 667.042 296.748C667.413 297.197 667.862 297.539 668.39 297.773C668.917 297.998 669.513 298.11 670.177 298.11C670.938 298.11 671.588 297.964 672.125 297.671C672.672 297.368 673.116 296.968 673.458 296.47C673.81 295.972 674.063 295.396 674.22 294.741C674.386 294.077 674.469 293.379 674.469 292.646ZM692.589 300H690.304L690.216 297.627C689.776 298.135 689.356 298.56 688.956 298.901C688.565 299.233 688.175 299.502 687.784 299.707C687.394 299.912 686.998 300.054 686.598 300.132C686.207 300.22 685.792 300.264 685.353 300.264C683.839 300.264 682.696 299.819 681.925 298.931C681.153 298.042 680.768 296.699 680.768 294.902V285.293H683.316V294.697C683.316 296.953 684.166 298.081 685.865 298.081C686.178 298.081 686.48 298.037 686.773 297.949C687.076 297.852 687.389 297.69 687.711 297.466C688.043 297.231 688.395 296.919 688.766 296.528C689.146 296.138 689.571 295.645 690.04 295.049V285.293H692.589V300ZM709.112 299.795C708.536 299.941 707.94 300.044 707.325 300.103C706.71 300.171 706.085 300.205 705.45 300.205C703.604 300.205 702.228 299.79 701.319 298.96C700.411 298.12 699.957 296.836 699.957 295.107V287.432H695.841V285.293H699.957V281.25L702.506 280.591V285.293H709.112V287.432H702.506V294.902C702.506 295.957 702.784 296.748 703.341 297.275C703.907 297.793 704.737 298.052 705.831 298.052C706.3 298.052 706.812 298.018 707.369 297.949C707.926 297.871 708.507 297.754 709.112 297.598V299.795ZM721.168 279.302L720.772 294.39H718.517L718.077 279.302H721.168ZM719.63 296.396C719.894 296.396 720.143 296.45 720.377 296.558C720.611 296.655 720.812 296.792 720.978 296.968C721.153 297.144 721.29 297.354 721.388 297.598C721.495 297.832 721.549 298.081 721.549 298.345C721.549 298.608 721.495 298.857 721.388 299.092C721.29 299.326 721.153 299.531 720.978 299.707C720.812 299.873 720.611 300.005 720.377 300.103C720.143 300.21 719.894 300.264 719.63 300.264C719.356 300.264 719.103 300.21 718.868 300.103C718.634 300.005 718.429 299.873 718.253 299.707C718.077 299.531 717.936 299.326 717.828 299.092C717.73 298.857 717.682 298.608 717.682 298.345C717.682 298.081 717.73 297.832 717.828 297.598C717.936 297.354 718.077 297.144 718.253 296.968C718.429 296.792 718.634 296.655 718.868 296.558C719.103 296.45 719.356 296.396 719.63 296.396Z" fill="#00BD36"/>
</g>
<defs>
<clipPath id="clip0_6292_3433">
<rect width="728" height="448" fill="white"/>
</clipPath>
</defs>
</svg>
