<svg width="882" height="259" viewBox="0 0 882 259" fill="none" xmlns="http://www.w3.org/2000/svg">
<g clip-path="url(#clip0_6294_1109)">
<rect width="882" height="259" fill="white"/>
<rect x="2" y="2" width="878" height="213" rx="13" stroke="black" stroke-width="4"/>
<rect x="32" y="126" width="74" height="75" fill="white" stroke="black" stroke-width="2"/>
<path d="M66.2432 81.0025C67.7875 79.5335 70.2125 79.5335 71.7568 81.0025L112.073 119.352C114.69 121.841 112.928 126.25 109.316 126.25H28.6836C25.0716 126.25 23.3096 121.841 25.9268 119.352L66.2432 81.0025Z" fill="white" stroke="black" stroke-width="2"/>
<path d="M14.9121 243.383C14.9121 244.691 14.7266 245.834 14.3555 246.811C13.9941 247.787 13.4912 248.598 12.8467 249.242C12.2021 249.887 11.4404 250.37 10.5615 250.692C9.68262 251.015 8.73047 251.176 7.70508 251.176C7.23633 251.176 6.76758 251.151 6.29883 251.103C5.83984 251.054 5.37109 250.971 4.89258 250.854V257.006H2.34375V236.293H4.61426L4.77539 238.754C5.50781 237.748 6.28906 237.045 7.11914 236.645C7.94922 236.234 8.84766 236.029 9.81445 236.029C10.6543 236.029 11.3916 236.205 12.0264 236.557C12.6611 236.908 13.1934 237.406 13.623 238.051C14.0527 238.686 14.375 239.457 14.5898 240.365C14.8047 241.264 14.9121 242.27 14.9121 243.383ZM12.3047 243.5C12.3047 242.729 12.2461 242.021 12.1289 241.376C12.0215 240.731 11.8457 240.18 11.6016 239.721C11.3574 239.262 11.0449 238.905 10.6641 238.651C10.2832 238.388 9.8291 238.256 9.30176 238.256C8.97949 238.256 8.65234 238.31 8.32031 238.417C7.98828 238.515 7.6416 238.686 7.28027 238.93C6.92871 239.164 6.55273 239.481 6.15234 239.882C5.76172 240.272 5.3418 240.761 4.89258 241.347V248.48C5.36133 248.676 5.85449 248.832 6.37207 248.949C6.88965 249.057 7.39746 249.11 7.89551 249.11C9.27246 249.11 10.3516 248.646 11.1328 247.719C11.9141 246.781 12.3047 245.375 12.3047 243.5ZM19.4385 236.293H21.7676L21.8408 239.003C22.71 237.958 23.5645 237.201 24.4043 236.732C25.2539 236.264 26.1084 236.029 26.9678 236.029C28.4912 236.029 29.6436 236.522 30.4248 237.509C31.2158 238.495 31.582 239.96 31.5234 241.903H28.9453C28.9746 240.614 28.7842 239.682 28.374 239.105C27.9736 238.52 27.3828 238.227 26.6016 238.227C26.2598 238.227 25.9131 238.29 25.5615 238.417C25.2197 238.534 24.8633 238.729 24.4922 239.003C24.1309 239.267 23.7451 239.608 23.335 240.028C22.9248 240.448 22.4854 240.956 22.0166 241.552V251H19.4385V236.293ZM48.1348 243.529C48.1348 244.672 47.9736 245.722 47.6514 246.679C47.3291 247.626 46.8652 248.441 46.2598 249.125C45.6543 249.799 44.917 250.326 44.0479 250.707C43.1787 251.078 42.1924 251.264 41.0889 251.264C40.0342 251.264 39.0869 251.103 38.2471 250.78C37.417 250.448 36.709 249.965 36.123 249.33C35.5469 248.695 35.1025 247.909 34.79 246.972C34.4873 246.034 34.3359 244.955 34.3359 243.734C34.3359 242.592 34.4971 241.552 34.8193 240.614C35.1416 239.667 35.6055 238.856 36.2109 238.183C36.8164 237.499 37.5537 236.972 38.4229 236.601C39.292 236.22 40.2783 236.029 41.3818 236.029C42.4365 236.029 43.3789 236.195 44.209 236.527C45.0488 236.85 45.7568 237.328 46.333 237.963C46.9189 238.588 47.3633 239.369 47.666 240.307C47.9785 241.244 48.1348 242.318 48.1348 243.529ZM45.5273 243.646C45.5273 242.738 45.4248 241.947 45.2197 241.273C45.0244 240.59 44.7412 240.023 44.3701 239.574C43.999 239.115 43.5449 238.773 43.0078 238.549C42.4805 238.314 41.8896 238.197 41.2354 238.197C40.4736 238.197 39.8193 238.349 39.2725 238.651C38.7354 238.944 38.291 239.34 37.9395 239.838C37.5977 240.336 37.3438 240.917 37.1777 241.581C37.0215 242.235 36.9434 242.924 36.9434 243.646C36.9434 244.555 37.041 245.351 37.2363 246.034C37.4414 246.718 37.7295 247.289 38.1006 247.748C38.4717 248.197 38.9209 248.539 39.4482 248.773C39.9756 248.998 40.5713 249.11 41.2354 249.11C41.9971 249.11 42.6465 248.964 43.1836 248.671C43.7305 248.368 44.1748 247.968 44.5166 247.47C44.8682 246.972 45.1221 246.396 45.2783 245.741C45.4443 245.077 45.5273 244.379 45.5273 243.646ZM64.8779 232.675C63.54 232.392 62.3877 232.25 61.4209 232.25C59.126 232.25 57.9785 233.451 57.9785 235.854V238.432H64.4238V240.556H57.9785V251H55.3857V240.556H50.6543V238.432H55.3857V236C55.3857 232.084 57.4268 230.126 61.5088 230.126C62.5244 230.126 63.6475 230.243 64.8779 230.478V232.675ZM73.3301 238.402H68.9795V236.293H75.9082V248.876H80.2881V251H68.4961V248.876H73.3301V238.402ZM74.2236 230.126C74.5068 230.126 74.7705 230.18 75.0146 230.287C75.2588 230.385 75.4688 230.526 75.6445 230.712C75.8301 230.897 75.9717 231.112 76.0693 231.356C76.1768 231.591 76.2305 231.85 76.2305 232.133C76.2305 232.406 76.1768 232.665 76.0693 232.909C75.9717 233.153 75.8301 233.368 75.6445 233.554C75.4688 233.739 75.2588 233.886 75.0146 233.993C74.7705 234.091 74.5068 234.14 74.2236 234.14C73.9404 234.14 73.6768 234.091 73.4326 233.993C73.1885 233.886 72.9736 233.739 72.7881 233.554C72.6123 233.368 72.4707 233.153 72.3633 232.909C72.2656 232.665 72.2168 232.406 72.2168 232.133C72.2168 231.85 72.2656 231.591 72.3633 231.356C72.4707 231.112 72.6123 230.897 72.7881 230.712C72.9736 230.526 73.1885 230.385 73.4326 230.287C73.6768 230.18 73.9404 230.126 74.2236 230.126ZM96.665 250.795C96.0889 250.941 95.4932 251.044 94.8779 251.103C94.2627 251.171 93.6377 251.205 93.0029 251.205C91.1572 251.205 89.7803 250.79 88.8721 249.96C87.9639 249.12 87.5098 247.836 87.5098 246.107V238.432H83.3936V236.293H87.5098V232.25L90.0586 231.591V236.293H96.665V238.432H90.0586V245.902C90.0586 246.957 90.3369 247.748 90.8936 248.275C91.46 248.793 92.29 249.052 93.3838 249.052C93.8525 249.052 94.3652 249.018 94.9219 248.949C95.4785 248.871 96.0596 248.754 96.665 248.598V250.795ZM110.112 257.152C105.61 252.982 103.359 248.373 103.359 243.324C103.359 242.143 103.477 240.966 103.711 239.794C103.955 238.612 104.341 237.431 104.868 236.249C105.405 235.067 106.108 233.886 106.978 232.704C107.856 231.522 108.921 230.351 110.171 229.188L111.65 230.697C107.861 234.438 105.967 238.583 105.967 243.134C105.967 245.399 106.445 247.577 107.402 249.667C108.359 251.757 109.775 253.729 111.65 255.585L110.112 257.152ZM122.812 238.402H118.462V236.293H125.391V248.876H129.771V251H117.979V248.876H122.812V238.402ZM123.706 230.126C123.989 230.126 124.253 230.18 124.497 230.287C124.741 230.385 124.951 230.526 125.127 230.712C125.312 230.897 125.454 231.112 125.552 231.356C125.659 231.591 125.713 231.85 125.713 232.133C125.713 232.406 125.659 232.665 125.552 232.909C125.454 233.153 125.312 233.368 125.127 233.554C124.951 233.739 124.741 233.886 124.497 233.993C124.253 234.091 123.989 234.14 123.706 234.14C123.423 234.14 123.159 234.091 122.915 233.993C122.671 233.886 122.456 233.739 122.271 233.554C122.095 233.368 121.953 233.153 121.846 232.909C121.748 232.665 121.699 232.406 121.699 232.133C121.699 231.85 121.748 231.591 121.846 231.356C121.953 231.112 122.095 230.897 122.271 230.712C122.456 230.526 122.671 230.385 122.915 230.287C123.159 230.18 123.423 230.126 123.706 230.126ZM137.3 229.188C141.802 233.358 144.053 237.997 144.053 243.104C144.053 244.159 143.945 245.253 143.73 246.386C143.516 247.519 143.149 248.681 142.632 249.872C142.114 251.054 141.416 252.255 140.537 253.476C139.668 254.696 138.569 255.922 137.241 257.152L135.762 255.644C137.666 253.759 139.087 251.791 140.024 249.74C140.962 247.689 141.431 245.541 141.431 243.295C141.431 238.646 139.541 234.467 135.762 230.756L137.3 229.188ZM179.487 241.537H166.89V239.384H179.487V241.537ZM179.487 246.635H166.89V244.481H179.487V246.635ZM211.436 236.806C211.436 238.388 210.996 239.589 210.117 240.409C209.238 241.22 207.964 241.679 206.294 241.786L206.177 245.39H203.994L203.804 239.779H205.518C206.113 239.779 206.611 239.716 207.012 239.589C207.412 239.462 207.734 239.281 207.979 239.047C208.223 238.812 208.398 238.529 208.506 238.197C208.613 237.855 208.667 237.475 208.667 237.055C208.667 236.342 208.521 235.707 208.228 235.15C207.935 234.594 207.524 234.125 206.997 233.744C206.47 233.363 205.84 233.075 205.107 232.88C204.385 232.685 203.594 232.587 202.734 232.587H202.368V230.302H202.764C203.75 230.302 204.648 230.395 205.459 230.58C206.279 230.766 207.007 231.02 207.642 231.342C208.286 231.654 208.843 232.025 209.312 232.455C209.79 232.885 210.186 233.339 210.498 233.817C210.82 234.296 211.055 234.794 211.201 235.312C211.357 235.819 211.436 236.317 211.436 236.806ZM205.063 247.396C205.337 247.396 205.591 247.45 205.825 247.558C206.06 247.655 206.26 247.792 206.426 247.968C206.602 248.144 206.738 248.354 206.836 248.598C206.934 248.832 206.982 249.081 206.982 249.345C206.982 249.608 206.934 249.857 206.836 250.092C206.738 250.326 206.602 250.531 206.426 250.707C206.26 250.873 206.06 251.005 205.825 251.103C205.591 251.21 205.337 251.264 205.063 251.264C204.8 251.264 204.551 251.21 204.316 251.103C204.082 251.005 203.877 250.873 203.701 250.707C203.525 250.531 203.389 250.326 203.291 250.092C203.193 249.857 203.145 249.608 203.145 249.345C203.145 249.081 203.193 248.832 203.291 248.598C203.389 248.354 203.525 248.144 203.701 247.968C203.877 247.792 204.082 247.655 204.316 247.558C204.551 247.45 204.8 247.396 205.063 247.396Z" fill="black"/>
<rect x="255" y="126" width="74" height="75" fill="white" stroke="black" stroke-width="2"/>
<path d="M289.243 81.0025C290.788 79.5335 293.212 79.5335 294.757 81.0025L335.073 119.352C337.69 121.841 335.928 126.25 332.316 126.25H251.684C248.072 126.25 246.31 121.841 248.927 119.352L289.243 81.0025Z" fill="white" stroke="black" stroke-width="2"/>
<rect x="426" y="126" width="74" height="75" fill="white" stroke="black" stroke-width="2"/>
<path d="M460.243 81.0025C461.788 79.5335 464.212 79.5335 465.757 81.0025L506.073 119.352C508.69 121.841 506.928 126.25 503.316 126.25H422.684C419.072 126.25 417.31 121.841 419.927 119.352L460.243 81.0025Z" fill="white" stroke="black" stroke-width="2"/>
<rect x="597" y="126" width="75" height="75" fill="white" stroke="black" stroke-width="2"/>
<path d="M631.755 80.9647C633.296 79.5106 635.704 79.5106 637.245 80.9647L677.92 119.341C680.553 121.825 678.795 126.25 675.175 126.25H593.825C590.205 126.25 588.447 121.825 591.08 119.341L631.755 80.9647L631.069 80.2373L631.755 80.9647Z" fill="white" stroke="black" stroke-width="2"/>
<rect x="769" y="126" width="74" height="75" fill="white" stroke="black" stroke-width="2"/>
<path d="M803.243 81.0025C804.788 79.5335 807.212 79.5335 808.757 81.0025L849.073 119.352C851.69 121.841 849.928 126.25 846.316 126.25H765.684C762.072 126.25 760.31 121.841 762.927 119.352L803.243 81.0025Z" fill="white" stroke="black" stroke-width="2"/>
<path d="M147.395 158.386C147.727 158.386 148.039 158.449 148.332 158.576C148.635 158.703 148.894 158.879 149.108 159.104C149.333 159.328 149.509 159.592 149.636 159.895C149.763 160.188 149.826 160.505 149.826 160.847C149.826 161.179 149.763 161.491 149.636 161.784C149.509 162.077 149.333 162.336 149.108 162.561C148.894 162.775 148.635 162.946 148.332 163.073C148.039 163.2 147.727 163.264 147.395 163.264C147.053 163.264 146.735 163.2 146.442 163.073C146.149 162.946 145.891 162.775 145.666 162.561C145.451 162.336 145.28 162.077 145.153 161.784C145.026 161.491 144.963 161.179 144.963 160.847C144.963 160.505 145.026 160.188 145.153 159.895C145.28 159.592 145.451 159.328 145.666 159.104C145.891 158.879 146.149 158.703 146.442 158.576C146.735 158.449 147.053 158.386 147.395 158.386ZM180.383 158.386C180.715 158.386 181.027 158.449 181.32 158.576C181.623 158.703 181.882 158.879 182.097 159.104C182.321 159.328 182.497 159.592 182.624 159.895C182.751 160.188 182.814 160.505 182.814 160.847C182.814 161.179 182.751 161.491 182.624 161.784C182.497 162.077 182.321 162.336 182.097 162.561C181.882 162.775 181.623 162.946 181.32 163.073C181.027 163.2 180.715 163.264 180.383 163.264C180.041 163.264 179.724 163.2 179.431 163.073C179.138 162.946 178.879 162.775 178.654 162.561C178.439 162.336 178.269 162.077 178.142 161.784C178.015 161.491 177.951 161.179 177.951 160.847C177.951 160.505 178.015 160.188 178.142 159.895C178.269 159.592 178.439 159.328 178.654 159.104C178.879 158.879 179.138 158.703 179.431 158.576C179.724 158.449 180.041 158.386 180.383 158.386ZM213.371 158.386C213.703 158.386 214.016 158.449 214.309 158.576C214.611 158.703 214.87 158.879 215.085 159.104C215.31 159.328 215.485 159.592 215.612 159.895C215.739 160.188 215.803 160.505 215.803 160.847C215.803 161.179 215.739 161.491 215.612 161.784C215.485 162.077 215.31 162.336 215.085 162.561C214.87 162.775 214.611 162.946 214.309 163.073C214.016 163.2 213.703 163.264 213.371 163.264C213.029 163.264 212.712 163.2 212.419 163.073C212.126 162.946 211.867 162.775 211.643 162.561C211.428 162.336 211.257 162.077 211.13 161.784C211.003 161.491 210.939 161.179 210.939 160.847C210.939 160.505 211.003 160.188 211.13 159.895C211.257 159.592 211.428 159.328 211.643 159.104C211.867 158.879 212.126 158.703 212.419 158.576C212.712 158.449 213.029 158.386 213.371 158.386Z" fill="black"/>
<path d="M805.726 25.082H801.955V23.2539H807.96V34.1592H811.756V36H801.536V34.1592H805.726V25.082ZM806.5 17.9092C806.745 17.9092 806.974 17.9557 807.186 18.0488C807.397 18.1335 807.579 18.2562 807.731 18.417C807.892 18.5778 808.015 18.764 808.1 18.9756C808.193 19.1787 808.239 19.403 808.239 19.6484C808.239 19.8854 808.193 20.1097 808.1 20.3213C808.015 20.5329 807.892 20.7191 807.731 20.8799C807.579 21.0407 807.397 21.1676 807.186 21.2607C806.974 21.3454 806.745 21.3877 806.5 21.3877C806.255 21.3877 806.026 21.3454 805.814 21.2607C805.603 21.1676 805.417 21.0407 805.256 20.8799C805.104 20.7191 804.981 20.5329 804.888 20.3213C804.803 20.1097 804.761 19.8854 804.761 19.6484C804.761 19.403 804.803 19.1787 804.888 18.9756C804.981 18.764 805.104 18.5778 805.256 18.417C805.417 18.2562 805.603 18.1335 805.814 18.0488C806.026 17.9557 806.255 17.9092 806.5 17.9092Z" fill="black"/>
<path d="M805.293 69.7071C805.683 70.0976 806.317 70.0976 806.707 69.7071L813.071 63.3431C813.462 62.9526 813.462 62.3195 813.071 61.9289C812.681 61.5384 812.047 61.5384 811.657 61.9289L806 67.5858L800.343 61.9289C799.953 61.5384 799.319 61.5384 798.929 61.9289C798.538 62.3195 798.538 62.9526 798.929 63.3431L805.293 69.7071ZM805 42L805 69L807 69L807 42L805 42Z" fill="black"/>
<rect x="792" y="13" width="28" height="28" rx="6" stroke="black" stroke-width="2"/>
</g>
<defs>
<clipPath id="clip0_6294_1109">
<rect width="882" height="259" fill="white"/>
</clipPath>
</defs>
</svg>
