<svg width="977" height="98" viewBox="0 0 977 98" fill="none" xmlns="http://www.w3.org/2000/svg">
<g clip-path="url(#clip0_6296_7629)">
<rect width="977" height="98" fill="white"/>
<path d="M219.552 5.25391H221.57L221.634 7.60254C222.387 6.69694 223.128 6.04102 223.855 5.63477C224.592 5.22852 225.332 5.02539 226.077 5.02539C227.397 5.02539 228.396 5.4528 229.073 6.30762C229.759 7.16243 230.076 8.43197 230.025 10.1162H227.791C227.816 8.99902 227.651 8.19076 227.296 7.69141C226.949 7.18359 226.437 6.92969 225.76 6.92969C225.464 6.92969 225.163 6.9847 224.858 7.09473C224.562 7.19629 224.253 7.36556 223.932 7.60254C223.618 7.83105 223.284 8.12728 222.929 8.49121C222.573 8.85514 222.192 9.29525 221.786 9.81152V18H219.552V5.25391ZM244.092 10.9541C244.092 11.2673 244.088 11.5296 244.079 11.7412C244.071 11.9528 244.058 12.1517 244.041 12.3379H235.091C235.091 13.6413 235.455 14.6442 236.183 15.3467C236.91 16.0407 237.96 16.3877 239.331 16.3877C239.703 16.3877 240.076 16.375 240.448 16.3496C240.821 16.3158 241.18 16.2734 241.527 16.2227C241.874 16.1719 242.204 16.1169 242.518 16.0576C242.839 15.9899 243.135 15.918 243.406 15.8418V17.6572C242.805 17.8265 242.124 17.9619 241.362 18.0635C240.609 18.1735 239.826 18.2285 239.014 18.2285C237.922 18.2285 236.982 18.0804 236.195 17.7842C235.408 17.488 234.761 17.0605 234.253 16.502C233.754 15.9349 233.381 15.2451 233.136 14.4326C232.899 13.6117 232.78 12.6849 232.78 11.6523C232.78 10.7552 232.907 9.90885 233.161 9.11328C233.424 8.30924 233.8 7.60677 234.291 7.00586C234.79 6.39648 235.4 5.91406 236.119 5.55859C236.839 5.20312 237.655 5.02539 238.569 5.02539C239.458 5.02539 240.245 5.16504 240.931 5.44434C241.616 5.72363 242.192 6.12142 242.657 6.6377C243.131 7.14551 243.487 7.76758 243.724 8.50391C243.969 9.23177 244.092 10.0485 244.092 10.9541ZM241.794 10.6367C241.819 10.0697 241.764 9.55339 241.629 9.08789C241.493 8.61393 241.282 8.20768 240.994 7.86914C240.715 7.5306 240.364 7.26823 239.94 7.08203C239.517 6.88737 239.026 6.79004 238.468 6.79004C237.985 6.79004 237.545 6.88314 237.147 7.06934C236.75 7.25553 236.407 7.5179 236.119 7.85645C235.831 8.19499 235.599 8.60124 235.421 9.0752C235.243 9.54915 235.133 10.0697 235.091 10.6367H241.794ZM246.428 5.25391H248.941L252.064 13.6836L252.737 15.7402L253.436 13.6328L256.533 5.25391H258.958L253.956 18H251.417L246.428 5.25391ZM272.682 10.9541C272.682 11.2673 272.677 11.5296 272.669 11.7412C272.66 11.9528 272.648 12.1517 272.631 12.3379H263.681C263.681 13.6413 264.045 14.6442 264.772 15.3467C265.5 16.0407 266.55 16.3877 267.921 16.3877C268.293 16.3877 268.666 16.375 269.038 16.3496C269.41 16.3158 269.77 16.2734 270.117 16.2227C270.464 16.1719 270.794 16.1169 271.107 16.0576C271.429 15.9899 271.725 15.918 271.996 15.8418V17.6572C271.395 17.8265 270.714 17.9619 269.952 18.0635C269.199 18.1735 268.416 18.2285 267.604 18.2285C266.512 18.2285 265.572 18.0804 264.785 17.7842C263.998 17.488 263.351 17.0605 262.843 16.502C262.343 15.9349 261.971 15.2451 261.726 14.4326C261.489 13.6117 261.37 12.6849 261.37 11.6523C261.37 10.7552 261.497 9.90885 261.751 9.11328C262.013 8.30924 262.39 7.60677 262.881 7.00586C263.38 6.39648 263.99 5.91406 264.709 5.55859C265.428 5.20312 266.245 5.02539 267.159 5.02539C268.048 5.02539 268.835 5.16504 269.521 5.44434C270.206 5.72363 270.782 6.12142 271.247 6.6377C271.721 7.14551 272.076 7.76758 272.313 8.50391C272.559 9.23177 272.682 10.0485 272.682 10.9541ZM270.384 10.6367C270.409 10.0697 270.354 9.55339 270.219 9.08789C270.083 8.61393 269.872 8.20768 269.584 7.86914C269.305 7.5306 268.953 7.26823 268.53 7.08203C268.107 6.88737 267.616 6.79004 267.058 6.79004C266.575 6.79004 266.135 6.88314 265.737 7.06934C265.34 7.25553 264.997 7.5179 264.709 7.85645C264.421 8.19499 264.188 8.60124 264.011 9.0752C263.833 9.54915 263.723 10.0697 263.681 10.6367H270.384ZM276.731 5.25391H278.75L278.813 7.60254C279.567 6.69694 280.307 6.04102 281.035 5.63477C281.771 5.22852 282.512 5.02539 283.257 5.02539C284.577 5.02539 285.576 5.4528 286.253 6.30762C286.938 7.16243 287.256 8.43197 287.205 10.1162H284.971C284.996 8.99902 284.831 8.19076 284.476 7.69141C284.129 7.18359 283.617 6.92969 282.939 6.92969C282.643 6.92969 282.343 6.9847 282.038 7.09473C281.742 7.19629 281.433 7.36556 281.111 7.60254C280.798 7.83105 280.464 8.12728 280.108 8.49121C279.753 8.85514 279.372 9.29525 278.966 9.81152V18H276.731V5.25391ZM300.599 14.5215C300.599 14.9701 300.522 15.3721 300.37 15.7275C300.218 16.083 300.01 16.4004 299.748 16.6797C299.486 16.9505 299.181 17.1833 298.834 17.3779C298.487 17.5726 298.115 17.7334 297.717 17.8604C297.327 17.9873 296.925 18.0804 296.511 18.1396C296.096 18.1989 295.69 18.2285 295.292 18.2285C294.429 18.2285 293.633 18.1904 292.905 18.1143C292.186 18.0381 291.479 17.9154 290.785 17.7461V15.7148C291.53 15.9264 292.271 16.0872 293.007 16.1973C293.743 16.3073 294.475 16.3623 295.203 16.3623C296.261 16.3623 297.044 16.2184 297.552 15.9307C298.06 15.6429 298.313 15.2324 298.313 14.6992C298.313 14.4707 298.271 14.2676 298.187 14.0898C298.11 13.9036 297.966 13.7301 297.755 13.5693C297.543 13.4001 297.213 13.2266 296.765 13.0488C296.325 12.8711 295.719 12.668 294.949 12.4395C294.374 12.2702 293.84 12.0798 293.35 11.8682C292.867 11.6481 292.448 11.39 292.093 11.0938C291.737 10.7975 291.458 10.4505 291.255 10.0527C291.052 9.65495 290.95 9.18522 290.95 8.64355C290.95 8.28809 291.031 7.89876 291.191 7.47559C291.361 7.05241 291.644 6.65885 292.042 6.29492C292.44 5.93099 292.977 5.63053 293.654 5.39355C294.331 5.14811 295.178 5.02539 296.193 5.02539C296.693 5.02539 297.247 5.05501 297.856 5.11426C298.466 5.16504 299.101 5.25814 299.761 5.39355V7.36133C299.067 7.19206 298.407 7.06934 297.78 6.99316C297.162 6.90853 296.625 6.86621 296.168 6.86621C295.618 6.86621 295.152 6.90853 294.771 6.99316C294.399 7.0778 294.094 7.19629 293.857 7.34863C293.629 7.49251 293.464 7.66602 293.362 7.86914C293.261 8.0638 293.21 8.27539 293.21 8.50391C293.21 8.73242 293.252 8.93978 293.337 9.12598C293.43 9.31217 293.595 9.49414 293.832 9.67188C294.077 9.84115 294.416 10.0146 294.848 10.1924C295.279 10.3617 295.842 10.5479 296.536 10.751C297.289 10.971 297.924 11.2038 298.44 11.4492C298.957 11.6862 299.376 11.9528 299.697 12.249C300.019 12.5452 300.247 12.8796 300.383 13.252C300.527 13.6243 300.599 14.0475 300.599 14.5215ZM315.566 10.9541C315.566 11.2673 315.562 11.5296 315.554 11.7412C315.545 11.9528 315.533 12.1517 315.516 12.3379H306.565C306.565 13.6413 306.929 14.6442 307.657 15.3467C308.385 16.0407 309.435 16.3877 310.806 16.3877C311.178 16.3877 311.55 16.375 311.923 16.3496C312.295 16.3158 312.655 16.2734 313.002 16.2227C313.349 16.1719 313.679 16.1169 313.992 16.0576C314.314 15.9899 314.61 15.918 314.881 15.8418V17.6572C314.28 17.8265 313.599 17.9619 312.837 18.0635C312.084 18.1735 311.301 18.2285 310.488 18.2285C309.396 18.2285 308.457 18.0804 307.67 17.7842C306.883 17.488 306.235 17.0605 305.728 16.502C305.228 15.9349 304.856 15.2451 304.61 14.4326C304.373 13.6117 304.255 12.6849 304.255 11.6523C304.255 10.7552 304.382 9.90885 304.636 9.11328C304.898 8.30924 305.275 7.60677 305.766 7.00586C306.265 6.39648 306.874 5.91406 307.594 5.55859C308.313 5.20312 309.13 5.02539 310.044 5.02539C310.933 5.02539 311.72 5.16504 312.405 5.44434C313.091 5.72363 313.666 6.12142 314.132 6.6377C314.606 7.14551 314.961 7.76758 315.198 8.50391C315.444 9.23177 315.566 10.0485 315.566 10.9541ZM313.269 10.6367C313.294 10.0697 313.239 9.55339 313.104 9.08789C312.968 8.61393 312.757 8.20768 312.469 7.86914C312.189 7.5306 311.838 7.26823 311.415 7.08203C310.992 6.88737 310.501 6.79004 309.942 6.79004C309.46 6.79004 309.02 6.88314 308.622 7.06934C308.224 7.25553 307.882 7.5179 307.594 7.85645C307.306 8.19499 307.073 8.60124 306.896 9.0752C306.718 9.54915 306.608 10.0697 306.565 10.6367H313.269ZM318.448 11.8936C318.448 10.8102 318.596 9.84961 318.893 9.01172C319.189 8.16536 319.608 7.45443 320.149 6.87891C320.7 6.29492 321.355 5.85482 322.117 5.55859C322.887 5.25391 323.742 5.10156 324.682 5.10156C325.088 5.10156 325.486 5.12695 325.875 5.17773C326.273 5.22852 326.662 5.30892 327.043 5.41895V0.0615234H329.265V18H327.284L327.208 15.5879C326.59 16.485 325.922 17.1494 325.202 17.5811C324.483 18.0127 323.704 18.2285 322.866 18.2285C322.138 18.2285 321.495 18.0762 320.937 17.7715C320.386 17.4668 319.925 17.0394 319.553 16.4893C319.189 15.9307 318.914 15.262 318.728 14.4834C318.541 13.7048 318.448 12.8415 318.448 11.8936ZM320.708 11.7539C320.708 13.2943 320.932 14.4453 321.381 15.207C321.838 15.9603 322.481 16.3369 323.311 16.3369C323.869 16.3369 324.457 16.0872 325.075 15.5879C325.701 15.0885 326.357 14.348 327.043 13.3662V7.4502C326.679 7.28092 326.277 7.15397 325.837 7.06934C325.397 6.97624 324.961 6.92969 324.529 6.92969C323.327 6.92969 322.388 7.31901 321.711 8.09766C321.042 8.8763 320.708 10.0951 320.708 11.7539ZM345.654 23.2051H331.359V21.377H345.654V23.2051ZM347.686 5.25391H349.653L349.742 7.31055C350.115 6.87044 350.474 6.50651 350.821 6.21875C351.168 5.92253 351.507 5.68555 351.837 5.50781C352.175 5.33008 352.518 5.20736 352.865 5.13965C353.212 5.06348 353.572 5.02539 353.944 5.02539C355.256 5.02539 356.246 5.41471 356.915 6.19336C357.592 6.96354 357.931 8.12728 357.931 9.68457V18H355.722V9.8623C355.722 8.86361 355.535 8.12728 355.163 7.65332C354.791 7.1709 354.236 6.92969 353.5 6.92969C353.229 6.92969 352.963 6.97201 352.7 7.05664C352.446 7.13281 352.18 7.27246 351.9 7.47559C351.621 7.67025 351.316 7.93685 350.986 8.27539C350.665 8.61393 350.301 9.03711 349.895 9.54492V18H347.686V5.25391ZM386.851 9.79883H375.933V7.93262H386.851V9.79883ZM386.851 14.2168H375.933V12.3506H386.851V14.2168ZM415.631 18H404.7V16.0195L408.991 11.7539C409.694 11.0599 410.265 10.459 410.705 9.95117C411.145 9.44336 411.488 8.9821 411.733 8.56738C411.979 8.14421 412.144 7.74642 412.229 7.37402C412.313 7.00163 412.355 6.59961 412.355 6.16797C412.355 5.76172 412.3 5.37663 412.19 5.0127C412.08 4.6403 411.911 4.31445 411.683 4.03516C411.454 3.75586 411.158 3.53581 410.794 3.375C410.43 3.21419 409.994 3.13379 409.486 3.13379C408.784 3.13379 408.145 3.29036 407.569 3.60352C406.994 3.91667 406.465 4.32292 405.982 4.82227L404.764 3.3623C405.39 2.70215 406.109 2.17318 406.922 1.77539C407.743 1.3776 408.695 1.17871 409.778 1.17871C410.515 1.17871 411.183 1.28874 411.784 1.50879C412.394 1.72884 412.918 2.04622 413.358 2.46094C413.799 2.87565 414.137 3.38346 414.374 3.98438C414.619 4.58529 414.742 5.26237 414.742 6.01562C414.742 6.65039 414.658 7.23861 414.488 7.78027C414.319 8.32194 414.061 8.86361 413.714 9.40527C413.375 9.93848 412.944 10.4928 412.419 11.0684C411.903 11.6439 411.289 12.2744 410.578 12.96L407.569 15.8926H415.631V18ZM434.986 18H424.563V15.9434H428.829V3.83203L424.855 5.99023L424.043 4.11133L429.324 1.33105H431.279V15.9434H434.986V18ZM455.446 14.3311H452.615V18H450.355V14.3311H442.37V12.3887L449.441 1.40723H452.615V12.3887H455.446V14.3311ZM450.355 3.54004L444.579 12.3887H450.355V3.54004ZM474.027 3.46387L467.07 18H464.543L471.767 3.46387H462.804V1.40723H474.027V3.46387ZM493.611 13.8359C493.611 14.5384 493.467 15.1647 493.179 15.7148C492.891 16.2565 492.489 16.7135 491.973 17.0859C491.457 17.4583 490.847 17.7419 490.145 17.9365C489.442 18.1312 488.681 18.2285 487.86 18.2285C486.954 18.2285 486.154 18.127 485.46 17.9238C484.775 17.7207 484.199 17.4372 483.734 17.0732C483.268 16.7093 482.917 16.2777 482.68 15.7783C482.443 15.279 482.324 14.7288 482.324 14.1279C482.324 13.1123 482.608 12.2363 483.175 11.5C483.742 10.7637 484.618 10.0951 485.803 9.49414C484.72 8.94401 483.928 8.33464 483.429 7.66602C482.93 6.98893 482.68 6.21452 482.68 5.34277C482.68 4.80957 482.79 4.29329 483.01 3.79395C483.23 3.2946 483.56 2.85026 484 2.46094C484.449 2.07161 485.007 1.7627 485.676 1.53418C486.345 1.2972 487.132 1.17871 488.037 1.17871C488.892 1.17871 489.641 1.27181 490.284 1.45801C490.936 1.63574 491.482 1.89388 491.922 2.23242C492.362 2.57096 492.692 2.98145 492.912 3.46387C493.132 3.94629 493.242 4.48372 493.242 5.07617C493.242 6.04102 492.972 6.86198 492.43 7.53906C491.897 8.21615 491.135 8.80859 490.145 9.31641C490.636 9.56185 491.093 9.83268 491.516 10.1289C491.939 10.4251 492.307 10.7552 492.62 11.1191C492.933 11.4831 493.175 11.8893 493.344 12.3379C493.522 12.7865 493.611 13.2858 493.611 13.8359ZM490.983 5.25391C490.983 4.50065 490.716 3.94206 490.183 3.57812C489.658 3.20573 488.918 3.01953 487.961 3.01953C487.013 3.01953 486.273 3.2015 485.739 3.56543C485.215 3.92936 484.952 4.47526 484.952 5.20312C484.952 5.5332 485.016 5.83789 485.143 6.11719C485.27 6.39648 485.464 6.65885 485.727 6.9043C485.998 7.14974 486.332 7.39095 486.73 7.62793C487.127 7.86491 487.601 8.10612 488.152 8.35156C489.108 7.90299 489.819 7.4375 490.284 6.95508C490.75 6.46419 490.983 5.89714 490.983 5.25391ZM491.211 14.001C491.211 13.6878 491.16 13.3831 491.059 13.0869C490.957 12.7907 490.775 12.4987 490.513 12.2109C490.251 11.9232 489.899 11.6354 489.459 11.3477C489.019 11.0599 488.46 10.7637 487.783 10.459C487.208 10.7383 486.721 11.0176 486.323 11.2969C485.934 11.5677 485.617 11.847 485.371 12.1348C485.134 12.4141 484.965 12.7061 484.863 13.0107C484.762 13.3154 484.711 13.637 484.711 13.9756C484.711 14.3564 484.792 14.695 484.952 14.9912C485.122 15.279 485.35 15.5244 485.638 15.7275C485.926 15.9307 486.268 16.083 486.666 16.1846C487.064 16.2861 487.496 16.3369 487.961 16.3369C488.41 16.3369 488.833 16.2904 489.231 16.1973C489.628 16.1042 489.971 15.9645 490.259 15.7783C490.555 15.5837 490.788 15.3424 490.957 15.0547C491.126 14.7585 491.211 14.4072 491.211 14.001ZM512.788 12.96C512.788 13.6878 512.64 14.3734 512.344 15.0166C512.048 15.6514 511.603 16.21 511.011 16.6924C510.418 17.1663 509.674 17.543 508.776 17.8223C507.879 18.0931 506.834 18.2285 505.641 18.2285C504.98 18.2285 504.388 18.2074 503.863 18.165C503.339 18.1227 502.848 18.0677 502.391 18V16.0195C502.915 16.1126 503.47 16.1846 504.054 16.2354C504.638 16.2861 505.234 16.3115 505.844 16.3115C506.673 16.3115 507.38 16.2396 507.964 16.0957C508.556 15.9434 509.039 15.7275 509.411 15.4482C509.784 15.1689 510.054 14.8304 510.224 14.4326C510.393 14.0348 510.478 13.5863 510.478 13.0869C510.478 12.6299 510.376 12.2321 510.173 11.8936C509.97 11.555 509.682 11.2715 509.31 11.043C508.946 10.8145 508.506 10.6452 507.989 10.5352C507.481 10.4167 506.923 10.3574 506.313 10.3574H504.422V8.54199H506.339C506.838 8.54199 507.291 8.47852 507.697 8.35156C508.112 8.21615 508.463 8.02572 508.751 7.78027C509.047 7.53483 509.271 7.23438 509.424 6.87891C509.585 6.51497 509.665 6.10449 509.665 5.64746C509.665 4.75879 509.394 4.11133 508.853 3.70508C508.311 3.29883 507.515 3.0957 506.466 3.0957C505.907 3.0957 505.332 3.15072 504.739 3.26074C504.147 3.37077 503.512 3.53581 502.835 3.75586V1.82617C503.123 1.72461 503.427 1.63574 503.749 1.55957C504.079 1.47493 504.405 1.40723 504.727 1.35645C505.057 1.2972 505.382 1.25488 505.704 1.22949C506.026 1.19564 506.335 1.17871 506.631 1.17871C507.511 1.17871 508.285 1.27604 508.954 1.4707C509.623 1.6569 510.181 1.92773 510.63 2.2832C511.078 2.63867 511.417 3.07031 511.646 3.57812C511.874 4.08594 511.988 4.65723 511.988 5.29199C511.988 6.23991 511.743 7.03548 511.252 7.67871C510.77 8.32194 510.105 8.83398 509.259 9.21484C509.69 9.28255 510.114 9.41797 510.528 9.62109C510.951 9.82422 511.328 10.0866 511.658 10.4082C511.997 10.7214 512.268 11.0938 512.471 11.5254C512.682 11.957 512.788 12.4352 512.788 12.96ZM532.804 12.7441C532.804 13.5059 532.664 14.221 532.385 14.8896C532.114 15.5583 531.724 16.1423 531.217 16.6416C530.709 17.1325 530.095 17.5218 529.376 17.8096C528.665 18.0889 527.874 18.2285 527.002 18.2285C526.088 18.2285 525.279 18.0846 524.577 17.7969C523.874 17.5007 523.286 17.0521 522.812 16.4512C522.338 15.8418 521.979 15.0758 521.733 14.1533C521.488 13.2308 521.365 12.139 521.365 10.8779C521.365 10.0316 521.42 9.21061 521.53 8.41504C521.64 7.61947 521.822 6.87044 522.076 6.16797C522.33 5.46549 522.668 4.82227 523.092 4.23828C523.515 3.6543 524.04 3.15495 524.666 2.74023C525.301 2.31706 526.045 1.99121 526.9 1.7627C527.755 1.52572 528.745 1.40723 529.871 1.40723H531.509V3.33691H529.731C528.741 3.33691 527.882 3.4554 527.154 3.69238C526.426 3.92936 525.817 4.26367 525.326 4.69531C524.835 5.12695 524.458 5.64746 524.196 6.25684C523.934 6.86621 523.769 7.54753 523.701 8.30078L523.65 8.82129C524.183 8.50814 524.797 8.25846 525.491 8.07227C526.194 7.8776 526.951 7.78027 527.763 7.78027C528.601 7.78027 529.333 7.90299 529.96 8.14844C530.595 8.39388 531.119 8.73665 531.534 9.17676C531.957 9.6084 532.275 10.1289 532.486 10.7383C532.698 11.3477 532.804 12.0163 532.804 12.7441ZM530.493 12.8838C530.493 12.376 530.43 11.9189 530.303 11.5127C530.184 11.098 529.994 10.751 529.731 10.4717C529.469 10.1839 529.135 9.96387 528.728 9.81152C528.331 9.65072 527.852 9.57031 527.294 9.57031C526.972 9.57031 526.646 9.59993 526.316 9.65918C525.986 9.71842 525.66 9.80306 525.339 9.91309C525.026 10.0146 524.725 10.1331 524.437 10.2686C524.15 10.404 523.887 10.5479 523.65 10.7002C523.65 11.792 523.726 12.7061 523.879 13.4424C524.031 14.1702 524.255 14.7542 524.552 15.1943C524.856 15.6344 525.229 15.9476 525.669 16.1338C526.109 16.32 526.617 16.4131 527.192 16.4131C527.675 16.4131 528.115 16.3369 528.513 16.1846C528.919 16.0238 529.266 15.791 529.554 15.4863C529.85 15.1816 530.078 14.8135 530.239 14.3818C530.408 13.9417 530.493 13.4424 530.493 12.8838ZM552.921 14.3311H550.089V18H547.83V14.3311H539.844V12.3887L546.916 1.40723H550.089V12.3887H552.921V14.3311ZM547.83 3.54004L542.053 12.3887H547.83V3.54004ZM561.815 20.6025C562.246 20.6195 562.665 20.5814 563.072 20.4883C563.478 20.3952 563.833 20.2555 564.138 20.0693C564.451 19.8916 564.701 19.6673 564.887 19.3965C565.073 19.1257 565.166 18.8167 565.166 18.4697C565.166 18.1143 565.103 17.8265 564.976 17.6064C564.857 17.3864 564.722 17.1833 564.57 16.9971C564.417 16.8109 564.278 16.612 564.151 16.4004C564.032 16.1888 563.973 15.9053 563.973 15.5498C563.973 15.3721 564.007 15.1859 564.075 14.9912C564.142 14.7965 564.244 14.6188 564.379 14.458C564.523 14.2972 564.701 14.166 564.913 14.0645C565.133 13.9629 565.391 13.9121 565.687 13.9121C565.983 13.9121 566.267 13.9756 566.538 14.1025C566.817 14.221 567.058 14.4072 567.261 14.6611C567.473 14.915 567.638 15.2324 567.756 15.6133C567.883 15.9941 567.947 16.4427 567.947 16.959C567.947 17.6615 567.816 18.3343 567.553 18.9775C567.299 19.6292 566.914 20.2048 566.398 20.7041C565.89 21.2035 565.251 21.6012 564.481 21.8975C563.719 22.1937 562.83 22.3418 561.815 22.3418V20.6025Z" fill="black"/>
<path d="M219.552 42.2539H221.57L221.634 44.6025C222.387 43.6969 223.128 43.041 223.855 42.6348C224.592 42.2285 225.332 42.0254 226.077 42.0254C227.397 42.0254 228.396 42.4528 229.073 43.3076C229.759 44.1624 230.076 45.432 230.025 47.1162H227.791C227.816 45.999 227.651 45.1908 227.296 44.6914C226.949 44.1836 226.437 43.9297 225.76 43.9297C225.464 43.9297 225.163 43.9847 224.858 44.0947C224.562 44.1963 224.253 44.3656 223.932 44.6025C223.618 44.8311 223.284 45.1273 222.929 45.4912C222.573 45.8551 222.192 46.2952 221.786 46.8115V55H219.552V42.2539ZM244.092 47.9541C244.092 48.2673 244.088 48.5296 244.079 48.7412C244.071 48.9528 244.058 49.1517 244.041 49.3379H235.091C235.091 50.6413 235.455 51.6442 236.183 52.3467C236.91 53.0407 237.96 53.3877 239.331 53.3877C239.703 53.3877 240.076 53.375 240.448 53.3496C240.821 53.3158 241.18 53.2734 241.527 53.2227C241.874 53.1719 242.204 53.1169 242.518 53.0576C242.839 52.9899 243.135 52.918 243.406 52.8418V54.6572C242.805 54.8265 242.124 54.9619 241.362 55.0635C240.609 55.1735 239.826 55.2285 239.014 55.2285C237.922 55.2285 236.982 55.0804 236.195 54.7842C235.408 54.488 234.761 54.0605 234.253 53.502C233.754 52.9349 233.381 52.2451 233.136 51.4326C232.899 50.6117 232.78 49.6849 232.78 48.6523C232.78 47.7552 232.907 46.9089 233.161 46.1133C233.424 45.3092 233.8 44.6068 234.291 44.0059C234.79 43.3965 235.4 42.9141 236.119 42.5586C236.839 42.2031 237.655 42.0254 238.569 42.0254C239.458 42.0254 240.245 42.165 240.931 42.4443C241.616 42.7236 242.192 43.1214 242.657 43.6377C243.131 44.1455 243.487 44.7676 243.724 45.5039C243.969 46.2318 244.092 47.0485 244.092 47.9541ZM241.794 47.6367C241.819 47.0697 241.764 46.5534 241.629 46.0879C241.493 45.6139 241.282 45.2077 240.994 44.8691C240.715 44.5306 240.364 44.2682 239.94 44.082C239.517 43.8874 239.026 43.79 238.468 43.79C237.985 43.79 237.545 43.8831 237.147 44.0693C236.75 44.2555 236.407 44.5179 236.119 44.8564C235.831 45.195 235.599 45.6012 235.421 46.0752C235.243 46.5492 235.133 47.0697 235.091 47.6367H241.794ZM246.428 42.2539H248.941L252.064 50.6836L252.737 52.7402L253.436 50.6328L256.533 42.2539H258.958L253.956 55H251.417L246.428 42.2539ZM272.682 47.9541C272.682 48.2673 272.677 48.5296 272.669 48.7412C272.66 48.9528 272.648 49.1517 272.631 49.3379H263.681C263.681 50.6413 264.045 51.6442 264.772 52.3467C265.5 53.0407 266.55 53.3877 267.921 53.3877C268.293 53.3877 268.666 53.375 269.038 53.3496C269.41 53.3158 269.77 53.2734 270.117 53.2227C270.464 53.1719 270.794 53.1169 271.107 53.0576C271.429 52.9899 271.725 52.918 271.996 52.8418V54.6572C271.395 54.8265 270.714 54.9619 269.952 55.0635C269.199 55.1735 268.416 55.2285 267.604 55.2285C266.512 55.2285 265.572 55.0804 264.785 54.7842C263.998 54.488 263.351 54.0605 262.843 53.502C262.343 52.9349 261.971 52.2451 261.726 51.4326C261.489 50.6117 261.37 49.6849 261.37 48.6523C261.37 47.7552 261.497 46.9089 261.751 46.1133C262.013 45.3092 262.39 44.6068 262.881 44.0059C263.38 43.3965 263.99 42.9141 264.709 42.5586C265.428 42.2031 266.245 42.0254 267.159 42.0254C268.048 42.0254 268.835 42.165 269.521 42.4443C270.206 42.7236 270.782 43.1214 271.247 43.6377C271.721 44.1455 272.076 44.7676 272.313 45.5039C272.559 46.2318 272.682 47.0485 272.682 47.9541ZM270.384 47.6367C270.409 47.0697 270.354 46.5534 270.219 46.0879C270.083 45.6139 269.872 45.2077 269.584 44.8691C269.305 44.5306 268.953 44.2682 268.53 44.082C268.107 43.8874 267.616 43.79 267.058 43.79C266.575 43.79 266.135 43.8831 265.737 44.0693C265.34 44.2555 264.997 44.5179 264.709 44.8564C264.421 45.195 264.188 45.6012 264.011 46.0752C263.833 46.5492 263.723 47.0697 263.681 47.6367H270.384ZM276.731 42.2539H278.75L278.813 44.6025C279.567 43.6969 280.307 43.041 281.035 42.6348C281.771 42.2285 282.512 42.0254 283.257 42.0254C284.577 42.0254 285.576 42.4528 286.253 43.3076C286.938 44.1624 287.256 45.432 287.205 47.1162H284.971C284.996 45.999 284.831 45.1908 284.476 44.6914C284.129 44.1836 283.617 43.9297 282.939 43.9297C282.643 43.9297 282.343 43.9847 282.038 44.0947C281.742 44.1963 281.433 44.3656 281.111 44.6025C280.798 44.8311 280.464 45.1273 280.108 45.4912C279.753 45.8551 279.372 46.2952 278.966 46.8115V55H276.731V42.2539ZM300.599 51.5215C300.599 51.9701 300.522 52.3721 300.37 52.7275C300.218 53.083 300.01 53.4004 299.748 53.6797C299.486 53.9505 299.181 54.1833 298.834 54.3779C298.487 54.5726 298.115 54.7334 297.717 54.8604C297.327 54.9873 296.925 55.0804 296.511 55.1396C296.096 55.1989 295.69 55.2285 295.292 55.2285C294.429 55.2285 293.633 55.1904 292.905 55.1143C292.186 55.0381 291.479 54.9154 290.785 54.7461V52.7148C291.53 52.9264 292.271 53.0872 293.007 53.1973C293.743 53.3073 294.475 53.3623 295.203 53.3623C296.261 53.3623 297.044 53.2184 297.552 52.9307C298.06 52.6429 298.313 52.2324 298.313 51.6992C298.313 51.4707 298.271 51.2676 298.187 51.0898C298.11 50.9036 297.966 50.7301 297.755 50.5693C297.543 50.4001 297.213 50.2266 296.765 50.0488C296.325 49.8711 295.719 49.668 294.949 49.4395C294.374 49.2702 293.84 49.0798 293.35 48.8682C292.867 48.6481 292.448 48.39 292.093 48.0938C291.737 47.7975 291.458 47.4505 291.255 47.0527C291.052 46.6549 290.95 46.1852 290.95 45.6436C290.95 45.2881 291.031 44.8988 291.191 44.4756C291.361 44.0524 291.644 43.6589 292.042 43.2949C292.44 42.931 292.977 42.6305 293.654 42.3936C294.331 42.1481 295.178 42.0254 296.193 42.0254C296.693 42.0254 297.247 42.055 297.856 42.1143C298.466 42.165 299.101 42.2581 299.761 42.3936V44.3613C299.067 44.1921 298.407 44.0693 297.78 43.9932C297.162 43.9085 296.625 43.8662 296.168 43.8662C295.618 43.8662 295.152 43.9085 294.771 43.9932C294.399 44.0778 294.094 44.1963 293.857 44.3486C293.629 44.4925 293.464 44.666 293.362 44.8691C293.261 45.0638 293.21 45.2754 293.21 45.5039C293.21 45.7324 293.252 45.9398 293.337 46.126C293.43 46.3122 293.595 46.4941 293.832 46.6719C294.077 46.8411 294.416 47.0146 294.848 47.1924C295.279 47.3617 295.842 47.5479 296.536 47.751C297.289 47.971 297.924 48.2038 298.44 48.4492C298.957 48.6862 299.376 48.9528 299.697 49.249C300.019 49.5452 300.247 49.8796 300.383 50.252C300.527 50.6243 300.599 51.0475 300.599 51.5215ZM315.566 47.9541C315.566 48.2673 315.562 48.5296 315.554 48.7412C315.545 48.9528 315.533 49.1517 315.516 49.3379H306.565C306.565 50.6413 306.929 51.6442 307.657 52.3467C308.385 53.0407 309.435 53.3877 310.806 53.3877C311.178 53.3877 311.55 53.375 311.923 53.3496C312.295 53.3158 312.655 53.2734 313.002 53.2227C313.349 53.1719 313.679 53.1169 313.992 53.0576C314.314 52.9899 314.61 52.918 314.881 52.8418V54.6572C314.28 54.8265 313.599 54.9619 312.837 55.0635C312.084 55.1735 311.301 55.2285 310.488 55.2285C309.396 55.2285 308.457 55.0804 307.67 54.7842C306.883 54.488 306.235 54.0605 305.728 53.502C305.228 52.9349 304.856 52.2451 304.61 51.4326C304.373 50.6117 304.255 49.6849 304.255 48.6523C304.255 47.7552 304.382 46.9089 304.636 46.1133C304.898 45.3092 305.275 44.6068 305.766 44.0059C306.265 43.3965 306.874 42.9141 307.594 42.5586C308.313 42.2031 309.13 42.0254 310.044 42.0254C310.933 42.0254 311.72 42.165 312.405 42.4443C313.091 42.7236 313.666 43.1214 314.132 43.6377C314.606 44.1455 314.961 44.7676 315.198 45.5039C315.444 46.2318 315.566 47.0485 315.566 47.9541ZM313.269 47.6367C313.294 47.0697 313.239 46.5534 313.104 46.0879C312.968 45.6139 312.757 45.2077 312.469 44.8691C312.189 44.5306 311.838 44.2682 311.415 44.082C310.992 43.8874 310.501 43.79 309.942 43.79C309.46 43.79 309.02 43.8831 308.622 44.0693C308.224 44.2555 307.882 44.5179 307.594 44.8564C307.306 45.195 307.073 45.6012 306.896 46.0752C306.718 46.5492 306.608 47.0697 306.565 47.6367H313.269ZM318.448 48.8936C318.448 47.8102 318.596 46.8496 318.893 46.0117C319.189 45.1654 319.608 44.4544 320.149 43.8789C320.7 43.2949 321.355 42.8548 322.117 42.5586C322.887 42.2539 323.742 42.1016 324.682 42.1016C325.088 42.1016 325.486 42.127 325.875 42.1777C326.273 42.2285 326.662 42.3089 327.043 42.4189V37.0615H329.265V55H327.284L327.208 52.5879C326.59 53.485 325.922 54.1494 325.202 54.5811C324.483 55.0127 323.704 55.2285 322.866 55.2285C322.138 55.2285 321.495 55.0762 320.937 54.7715C320.386 54.4668 319.925 54.0394 319.553 53.4893C319.189 52.9307 318.914 52.262 318.728 51.4834C318.541 50.7048 318.448 49.8415 318.448 48.8936ZM320.708 48.7539C320.708 50.2943 320.932 51.4453 321.381 52.207C321.838 52.9603 322.481 53.3369 323.311 53.3369C323.869 53.3369 324.457 53.0872 325.075 52.5879C325.701 52.0885 326.357 51.348 327.043 50.3662V44.4502C326.679 44.2809 326.277 44.154 325.837 44.0693C325.397 43.9762 324.961 43.9297 324.529 43.9297C323.327 43.9297 322.388 44.319 321.711 45.0977C321.042 45.8763 320.708 47.0951 320.708 48.7539ZM345.654 60.2051H331.359V58.377H345.654V60.2051ZM347.686 42.2539H349.653L349.742 44.3105C350.115 43.8704 350.474 43.5065 350.821 43.2188C351.168 42.9225 351.507 42.6855 351.837 42.5078C352.175 42.3301 352.518 42.2074 352.865 42.1396C353.212 42.0635 353.572 42.0254 353.944 42.0254C355.256 42.0254 356.246 42.4147 356.915 43.1934C357.592 43.9635 357.931 45.1273 357.931 46.6846V55H355.722V46.8623C355.722 45.8636 355.535 45.1273 355.163 44.6533C354.791 44.1709 354.236 43.9297 353.5 43.9297C353.229 43.9297 352.963 43.972 352.7 44.0566C352.446 44.1328 352.18 44.2725 351.9 44.4756C351.621 44.6702 351.316 44.9368 350.986 45.2754C350.665 45.6139 350.301 46.0371 349.895 46.5449V55H347.686V42.2539ZM386.851 46.7988H375.933V44.9326H386.851V46.7988ZM386.851 51.2168H375.933V49.3506H386.851V51.2168ZM405.386 42.2539H407.404L407.468 44.6025C408.221 43.6969 408.962 43.041 409.689 42.6348C410.426 42.2285 411.166 42.0254 411.911 42.0254C413.231 42.0254 414.23 42.4528 414.907 43.3076C415.593 44.1624 415.91 45.432 415.859 47.1162H413.625C413.65 45.999 413.485 45.1908 413.13 44.6914C412.783 44.1836 412.271 43.9297 411.594 43.9297C411.298 43.9297 410.997 43.9847 410.692 44.0947C410.396 44.1963 410.087 44.3656 409.766 44.6025C409.452 44.8311 409.118 45.1273 408.763 45.4912C408.407 45.8551 408.026 46.2952 407.62 46.8115V55H405.386V42.2539ZM429.926 47.9541C429.926 48.2673 429.922 48.5296 429.913 48.7412C429.905 48.9528 429.892 49.1517 429.875 49.3379H420.925C420.925 50.6413 421.289 51.6442 422.017 52.3467C422.744 53.0407 423.794 53.3877 425.165 53.3877C425.537 53.3877 425.91 53.375 426.282 53.3496C426.655 53.3158 427.014 53.2734 427.361 53.2227C427.708 53.1719 428.038 53.1169 428.352 53.0576C428.673 52.9899 428.969 52.918 429.24 52.8418V54.6572C428.639 54.8265 427.958 54.9619 427.196 55.0635C426.443 55.1735 425.66 55.2285 424.848 55.2285C423.756 55.2285 422.816 55.0804 422.029 54.7842C421.242 54.488 420.595 54.0605 420.087 53.502C419.588 52.9349 419.215 52.2451 418.97 51.4326C418.733 50.6117 418.614 49.6849 418.614 48.6523C418.614 47.7552 418.741 46.9089 418.995 46.1133C419.257 45.3092 419.634 44.6068 420.125 44.0059C420.624 43.3965 421.234 42.9141 421.953 42.5586C422.673 42.2031 423.489 42.0254 424.403 42.0254C425.292 42.0254 426.079 42.165 426.765 42.4443C427.45 42.7236 428.026 43.1214 428.491 43.6377C428.965 44.1455 429.321 44.7676 429.558 45.5039C429.803 46.2318 429.926 47.0485 429.926 47.9541ZM427.628 47.6367C427.653 47.0697 427.598 46.5534 427.463 46.0879C427.327 45.6139 427.116 45.2077 426.828 44.8691C426.549 44.5306 426.198 44.2682 425.774 44.082C425.351 43.8874 424.86 43.79 424.302 43.79C423.819 43.79 423.379 43.8831 422.981 44.0693C422.584 44.2555 422.241 44.5179 421.953 44.8564C421.665 45.195 421.433 45.6012 421.255 46.0752C421.077 46.5492 420.967 47.0697 420.925 47.6367H427.628ZM432.262 42.2539H434.775L437.898 50.6836L438.571 52.7402L439.27 50.6328L442.367 42.2539H444.792L439.79 55H437.251L432.262 42.2539ZM458.516 47.9541C458.516 48.2673 458.511 48.5296 458.503 48.7412C458.494 48.9528 458.482 49.1517 458.465 49.3379H449.515C449.515 50.6413 449.879 51.6442 450.606 52.3467C451.334 53.0407 452.384 53.3877 453.755 53.3877C454.127 53.3877 454.5 53.375 454.872 53.3496C455.244 53.3158 455.604 53.2734 455.951 53.2227C456.298 53.1719 456.628 53.1169 456.941 53.0576C457.263 52.9899 457.559 52.918 457.83 52.8418V54.6572C457.229 54.8265 456.548 54.9619 455.786 55.0635C455.033 55.1735 454.25 55.2285 453.438 55.2285C452.346 55.2285 451.406 55.0804 450.619 54.7842C449.832 54.488 449.185 54.0605 448.677 53.502C448.177 52.9349 447.805 52.2451 447.56 51.4326C447.323 50.6117 447.204 49.6849 447.204 48.6523C447.204 47.7552 447.331 46.9089 447.585 46.1133C447.847 45.3092 448.224 44.6068 448.715 44.0059C449.214 43.3965 449.824 42.9141 450.543 42.5586C451.262 42.2031 452.079 42.0254 452.993 42.0254C453.882 42.0254 454.669 42.165 455.354 42.4443C456.04 42.7236 456.616 43.1214 457.081 43.6377C457.555 44.1455 457.91 44.7676 458.147 45.5039C458.393 46.2318 458.516 47.0485 458.516 47.9541ZM456.218 47.6367C456.243 47.0697 456.188 46.5534 456.053 46.0879C455.917 45.6139 455.706 45.2077 455.418 44.8691C455.139 44.5306 454.787 44.2682 454.364 44.082C453.941 43.8874 453.45 43.79 452.892 43.79C452.409 43.79 451.969 43.8831 451.571 44.0693C451.174 44.2555 450.831 44.5179 450.543 44.8564C450.255 45.195 450.022 45.6012 449.845 46.0752C449.667 46.5492 449.557 47.0697 449.515 47.6367H456.218ZM462.565 42.2539H464.584L464.647 44.6025C465.401 43.6969 466.141 43.041 466.869 42.6348C467.605 42.2285 468.346 42.0254 469.091 42.0254C470.411 42.0254 471.41 42.4528 472.087 43.3076C472.772 44.1624 473.09 45.432 473.039 47.1162H470.805C470.83 45.999 470.665 45.1908 470.31 44.6914C469.963 44.1836 469.451 43.9297 468.773 43.9297C468.477 43.9297 468.177 43.9847 467.872 44.0947C467.576 44.1963 467.267 44.3656 466.945 44.6025C466.632 44.8311 466.298 45.1273 465.942 45.4912C465.587 45.8551 465.206 46.2952 464.8 46.8115V55H462.565V42.2539ZM486.433 51.5215C486.433 51.9701 486.356 52.3721 486.204 52.7275C486.052 53.083 485.844 53.4004 485.582 53.6797C485.32 53.9505 485.015 54.1833 484.668 54.3779C484.321 54.5726 483.949 54.7334 483.551 54.8604C483.161 54.9873 482.759 55.0804 482.345 55.1396C481.93 55.1989 481.524 55.2285 481.126 55.2285C480.263 55.2285 479.467 55.1904 478.739 55.1143C478.02 55.0381 477.313 54.9154 476.619 54.7461V52.7148C477.364 52.9264 478.104 53.0872 478.841 53.1973C479.577 53.3073 480.309 53.3623 481.037 53.3623C482.095 53.3623 482.878 53.2184 483.386 52.9307C483.894 52.6429 484.147 52.2324 484.147 51.6992C484.147 51.4707 484.105 51.2676 484.021 51.0898C483.944 50.9036 483.8 50.7301 483.589 50.5693C483.377 50.4001 483.047 50.2266 482.599 50.0488C482.159 49.8711 481.553 49.668 480.783 49.4395C480.208 49.2702 479.674 49.0798 479.184 48.8682C478.701 48.6481 478.282 48.39 477.927 48.0938C477.571 47.7975 477.292 47.4505 477.089 47.0527C476.886 46.6549 476.784 46.1852 476.784 45.6436C476.784 45.2881 476.865 44.8988 477.025 44.4756C477.195 44.0524 477.478 43.6589 477.876 43.2949C478.274 42.931 478.811 42.6305 479.488 42.3936C480.165 42.1481 481.012 42.0254 482.027 42.0254C482.527 42.0254 483.081 42.055 483.69 42.1143C484.3 42.165 484.935 42.2581 485.595 42.3936V44.3613C484.901 44.1921 484.241 44.0693 483.614 43.9932C482.996 43.9085 482.459 43.8662 482.002 43.8662C481.452 43.8662 480.986 43.9085 480.605 43.9932C480.233 44.0778 479.928 44.1963 479.691 44.3486C479.463 44.4925 479.298 44.666 479.196 44.8691C479.095 45.0638 479.044 45.2754 479.044 45.5039C479.044 45.7324 479.086 45.9398 479.171 46.126C479.264 46.3122 479.429 46.4941 479.666 46.6719C479.911 46.8411 480.25 47.0146 480.682 47.1924C481.113 47.3617 481.676 47.5479 482.37 47.751C483.123 47.971 483.758 48.2038 484.274 48.4492C484.791 48.6862 485.21 48.9528 485.531 49.249C485.853 49.5452 486.081 49.8796 486.217 50.252C486.361 50.6243 486.433 51.0475 486.433 51.5215ZM501.4 47.9541C501.4 48.2673 501.396 48.5296 501.388 48.7412C501.379 48.9528 501.367 49.1517 501.35 49.3379H492.399C492.399 50.6413 492.763 51.6442 493.491 52.3467C494.219 53.0407 495.269 53.3877 496.64 53.3877C497.012 53.3877 497.384 53.375 497.757 53.3496C498.129 53.3158 498.489 53.2734 498.836 53.2227C499.183 53.1719 499.513 53.1169 499.826 53.0576C500.148 52.9899 500.444 52.918 500.715 52.8418V54.6572C500.114 54.8265 499.433 54.9619 498.671 55.0635C497.918 55.1735 497.135 55.2285 496.322 55.2285C495.23 55.2285 494.291 55.0804 493.504 54.7842C492.717 54.488 492.069 54.0605 491.562 53.502C491.062 52.9349 490.69 52.2451 490.444 51.4326C490.207 50.6117 490.089 49.6849 490.089 48.6523C490.089 47.7552 490.216 46.9089 490.47 46.1133C490.732 45.3092 491.109 44.6068 491.6 44.0059C492.099 43.3965 492.708 42.9141 493.428 42.5586C494.147 42.2031 494.964 42.0254 495.878 42.0254C496.767 42.0254 497.554 42.165 498.239 42.4443C498.925 42.7236 499.5 43.1214 499.966 43.6377C500.44 44.1455 500.795 44.7676 501.032 45.5039C501.278 46.2318 501.4 47.0485 501.4 47.9541ZM499.103 47.6367C499.128 47.0697 499.073 46.5534 498.938 46.0879C498.802 45.6139 498.59 45.2077 498.303 44.8691C498.023 44.5306 497.672 44.2682 497.249 44.082C496.826 43.8874 496.335 43.79 495.776 43.79C495.294 43.79 494.854 43.8831 494.456 44.0693C494.058 44.2555 493.715 44.5179 493.428 44.8564C493.14 45.195 492.907 45.6012 492.729 46.0752C492.552 46.5492 492.442 47.0697 492.399 47.6367H499.103ZM504.282 48.8936C504.282 47.8102 504.43 46.8496 504.727 46.0117C505.023 45.1654 505.442 44.4544 505.983 43.8789C506.534 43.2949 507.189 42.8548 507.951 42.5586C508.721 42.2539 509.576 42.1016 510.516 42.1016C510.922 42.1016 511.32 42.127 511.709 42.1777C512.107 42.2285 512.496 42.3089 512.877 42.4189V37.0615H515.099V55H513.118L513.042 52.5879C512.424 53.485 511.756 54.1494 511.036 54.5811C510.317 55.0127 509.538 55.2285 508.7 55.2285C507.972 55.2285 507.329 55.0762 506.771 54.7715C506.22 54.4668 505.759 54.0394 505.387 53.4893C505.023 52.9307 504.748 52.262 504.562 51.4834C504.375 50.7048 504.282 49.8415 504.282 48.8936ZM506.542 48.7539C506.542 50.2943 506.766 51.4453 507.215 52.207C507.672 52.9603 508.315 53.3369 509.145 53.3369C509.703 53.3369 510.291 53.0872 510.909 52.5879C511.535 52.0885 512.191 51.348 512.877 50.3662V44.4502C512.513 44.2809 512.111 44.154 511.671 44.0693C511.231 43.9762 510.795 43.9297 510.363 43.9297C509.161 43.9297 508.222 44.319 507.545 45.0977C506.876 45.8763 506.542 47.0951 506.542 48.7539ZM531.488 60.2051H517.193V58.377H531.488V60.2051ZM533.52 42.2539H535.487L535.576 44.3105C535.949 43.8704 536.308 43.5065 536.655 43.2188C537.002 42.9225 537.341 42.6855 537.671 42.5078C538.009 42.3301 538.352 42.2074 538.699 42.1396C539.046 42.0635 539.406 42.0254 539.778 42.0254C541.09 42.0254 542.08 42.4147 542.749 43.1934C543.426 43.9635 543.765 45.1273 543.765 46.6846V55H541.556V46.8623C541.556 45.8636 541.369 45.1273 540.997 44.6533C540.625 44.1709 540.07 43.9297 539.334 43.9297C539.063 43.9297 538.797 43.972 538.534 44.0566C538.28 44.1328 538.014 44.2725 537.734 44.4756C537.455 44.6702 537.15 44.9368 536.82 45.2754C536.499 45.6139 536.135 46.0371 535.729 46.5449V55H533.52V42.2539ZM572.278 44.3359L571.415 45.8467L567.848 43.4854L568.14 47.8271H566.324L566.604 43.4854L562.96 45.8467L562.16 44.3613L566.058 42.4443L562.16 40.4893L563.036 39.0039L566.629 41.4033L566.324 37.0615H568.14L567.822 41.4033L571.415 38.9785L572.304 40.54L568.394 42.4697L572.278 44.3359ZM601.325 55H590.902V52.9434H595.168V40.832L591.194 42.9902L590.382 41.1113L595.663 38.3311H597.618V52.9434H601.325V55ZM616.141 46.71C616.141 47.9795 616.014 49.139 615.76 50.1885C615.506 51.2295 615.121 52.1266 614.604 52.8799C614.088 53.6247 613.445 54.2044 612.675 54.6191C611.913 55.0254 611.016 55.2285 609.983 55.2285C609.095 55.2285 608.286 55.0635 607.559 54.7334C606.831 54.3949 606.209 53.8786 605.692 53.1846C605.176 52.4906 604.778 51.6061 604.499 50.5312C604.22 49.4564 604.08 48.1826 604.08 46.71C604.08 45.4404 604.207 44.2809 604.461 43.2314C604.723 42.182 605.108 41.2848 605.616 40.54C606.132 39.7868 606.776 39.207 607.546 38.8008C608.316 38.3861 609.213 38.1787 610.237 38.1787C611.126 38.1787 611.934 38.348 612.662 38.6865C613.39 39.0166 614.012 39.5329 614.528 40.2354C615.045 40.9294 615.442 41.8138 615.722 42.8887C616.001 43.9635 616.141 45.2373 616.141 46.71ZM613.906 46.7861C613.906 46.4984 613.894 46.2148 613.868 45.9355C613.851 45.6478 613.83 45.3685 613.805 45.0977L606.784 50.3154C606.911 50.7555 607.072 51.1618 607.267 51.5342C607.461 51.9066 607.694 52.2282 607.965 52.499C608.244 52.7614 608.557 52.9688 608.904 53.1211C609.26 53.265 609.662 53.3369 610.11 53.3369C610.686 53.3369 611.206 53.1973 611.672 52.918C612.146 52.6387 612.548 52.224 612.878 51.6738C613.208 51.1237 613.462 50.4424 613.64 49.6299C613.817 48.8089 613.906 47.861 613.906 46.7861ZM606.314 46.6338C606.314 46.8962 606.314 47.1585 606.314 47.4209C606.323 47.6833 606.34 47.9372 606.365 48.1826L613.386 42.9902C613.259 42.5586 613.098 42.165 612.903 41.8096C612.709 41.4541 612.476 41.1494 612.205 40.8955C611.934 40.6331 611.625 40.43 611.278 40.2861C610.931 40.1423 610.542 40.0703 610.11 40.0703C609.535 40.0703 609.01 40.21 608.536 40.4893C608.071 40.7686 607.673 41.1875 607.343 41.7461C607.013 42.2962 606.759 42.9818 606.581 43.8027C606.403 44.6152 606.314 45.5589 606.314 46.6338ZM644.781 49.0459H639.792V54.2256H637.608V49.0459H632.619V47.1162H637.608V41.9746H639.792V47.1162H644.781V49.0459ZM661.526 48.8936C661.526 47.8102 661.674 46.8496 661.971 46.0117C662.267 45.1654 662.686 44.4544 663.228 43.8789C663.778 43.2949 664.434 42.8548 665.195 42.5586C665.965 42.2539 666.82 42.1016 667.76 42.1016C668.166 42.1016 668.564 42.127 668.953 42.1777C669.351 42.2285 669.74 42.3089 670.121 42.4189V37.0615H672.343V55H670.362L670.286 52.5879C669.668 53.485 669 54.1494 668.28 54.5811C667.561 55.0127 666.782 55.2285 665.944 55.2285C665.216 55.2285 664.573 55.0762 664.015 54.7715C663.465 54.4668 663.003 54.0394 662.631 53.4893C662.267 52.9307 661.992 52.262 661.806 51.4834C661.619 50.7048 661.526 49.8415 661.526 48.8936ZM663.786 48.7539C663.786 50.2943 664.01 51.4453 664.459 52.207C664.916 52.9603 665.559 53.3369 666.389 53.3369C666.947 53.3369 667.535 53.0872 668.153 52.5879C668.78 52.0885 669.436 51.348 670.121 50.3662V44.4502C669.757 44.2809 669.355 44.154 668.915 44.0693C668.475 43.9762 668.039 43.9297 667.607 43.9297C666.406 43.9297 665.466 44.319 664.789 45.0977C664.12 45.8763 663.786 47.0951 663.786 48.7539ZM680.811 44.082H677.04V42.2539H683.045V53.1592H686.841V55H676.621V53.1592H680.811V44.082ZM681.585 36.9092C681.83 36.9092 682.059 36.9557 682.271 37.0488C682.482 37.1335 682.664 37.2562 682.816 37.417C682.977 37.5778 683.1 37.764 683.185 37.9756C683.278 38.1787 683.324 38.403 683.324 38.6484C683.324 38.8854 683.278 39.1097 683.185 39.3213C683.1 39.5329 682.977 39.7191 682.816 39.8799C682.664 40.0407 682.482 40.1676 682.271 40.2607C682.059 40.3454 681.83 40.3877 681.585 40.3877C681.34 40.3877 681.111 40.3454 680.899 40.2607C680.688 40.1676 680.502 40.0407 680.341 39.8799C680.188 39.7191 680.066 39.5329 679.973 39.3213C679.888 39.1097 679.846 38.8854 679.846 38.6484C679.846 38.403 679.888 38.1787 679.973 37.9756C680.066 37.764 680.188 37.5778 680.341 37.417C680.502 37.2562 680.688 37.1335 680.899 37.0488C681.111 36.9557 681.34 36.9092 681.585 36.9092ZM699.942 44.0566C700.179 44.3529 700.361 44.6999 700.488 45.0977C700.624 45.487 700.691 45.9102 700.691 46.3672C700.691 47.0273 700.569 47.6325 700.323 48.1826C700.086 48.7243 699.748 49.1898 699.308 49.5791C698.868 49.9684 698.339 50.2731 697.721 50.4932C697.111 50.7048 696.438 50.8105 695.702 50.8105C695.169 50.8105 694.67 50.7555 694.204 50.6455C693.739 50.527 693.37 50.3831 693.1 50.2139C692.939 50.4508 692.803 50.6751 692.693 50.8867C692.583 51.0983 692.528 51.3353 692.528 51.5977C692.528 51.9193 692.681 52.1859 692.985 52.3975C693.299 52.609 693.709 52.7233 694.217 52.7402L697.568 52.8672C698.203 52.8841 698.787 52.9645 699.32 53.1084C699.862 53.2523 700.323 53.4596 700.704 53.7305C701.093 54.0013 701.394 54.3356 701.605 54.7334C701.826 55.1312 701.936 55.5924 701.936 56.1172C701.936 56.6842 701.813 57.2217 701.567 57.7295C701.322 58.2373 700.941 58.6816 700.425 59.0625C699.917 59.4518 699.27 59.7607 698.482 59.9893C697.695 60.2178 696.76 60.332 695.677 60.332C694.644 60.332 693.764 60.2474 693.036 60.0781C692.317 59.9173 691.724 59.6888 691.259 59.3926C690.793 59.1048 690.455 58.7578 690.243 58.3516C690.032 57.9538 689.926 57.5137 689.926 57.0312C689.926 56.4134 690.07 55.8717 690.357 55.4062C690.645 54.9408 691.09 54.4922 691.69 54.0605C691.47 53.959 691.28 53.832 691.119 53.6797C690.958 53.5273 690.827 53.3623 690.726 53.1846C690.624 52.9984 690.548 52.8037 690.497 52.6006C690.446 52.3975 690.421 52.1986 690.421 52.0039C690.421 51.4538 690.548 50.9502 690.802 50.4932C691.064 50.0361 691.373 49.6045 691.729 49.1982C691.568 49.0036 691.424 48.8132 691.297 48.627C691.178 48.4408 691.073 48.2419 690.979 48.0303C690.895 47.8102 690.827 47.5775 690.776 47.332C690.734 47.0781 690.713 46.7904 690.713 46.4688C690.713 45.8086 690.831 45.2077 691.068 44.666C691.314 44.1159 691.652 43.6462 692.084 43.2568C692.524 42.8675 693.049 42.5671 693.658 42.3555C694.276 42.1354 694.957 42.0254 695.702 42.0254C696.015 42.0254 696.316 42.0465 696.604 42.0889C696.891 42.1312 697.145 42.1862 697.365 42.2539H701.986V44.0566H699.942ZM692.274 56.8408C692.274 57.4417 692.588 57.8776 693.214 58.1484C693.84 58.4277 694.712 58.5674 695.829 58.5674C696.532 58.5674 697.12 58.5039 697.594 58.377C698.076 58.25 698.461 58.0807 698.749 57.8691C699.045 57.666 699.257 57.429 699.384 57.1582C699.511 56.8958 699.574 56.625 699.574 56.3457C699.574 55.8294 699.363 55.4486 698.939 55.2031C698.516 54.9577 697.869 54.8138 696.997 54.7715L693.671 54.6572C693.392 54.8434 693.159 55.0254 692.973 55.2031C692.795 55.3809 692.655 55.5586 692.554 55.7363C692.452 55.9225 692.38 56.1045 692.338 56.2822C692.296 56.4684 692.274 56.6546 692.274 56.8408ZM692.947 46.418C692.947 46.8242 693.015 47.1966 693.15 47.5352C693.286 47.8737 693.476 48.1615 693.722 48.3984C693.967 48.6354 694.255 48.8216 694.585 48.957C694.924 49.084 695.296 49.1475 695.702 49.1475C696.142 49.1475 696.532 49.0755 696.87 48.9316C697.217 48.7793 697.505 48.5762 697.733 48.3223C697.97 48.0684 698.148 47.7764 698.267 47.4463C698.394 47.1162 698.457 46.7734 698.457 46.418C698.457 46.0117 698.389 45.6393 698.254 45.3008C698.118 44.9622 697.928 44.6745 697.683 44.4375C697.437 44.2005 697.145 44.0186 696.807 43.8916C696.477 43.7562 696.108 43.6885 695.702 43.6885C695.262 43.6885 694.868 43.7646 694.521 43.917C694.183 44.0693 693.895 44.2725 693.658 44.5264C693.43 44.7718 693.252 45.0596 693.125 45.3896C693.007 45.7197 692.947 46.0625 692.947 46.418ZM709.4 44.082H705.63V42.2539H711.635V53.1592H715.431V55H705.211V53.1592H709.4V44.082ZM710.175 36.9092C710.42 36.9092 710.649 36.9557 710.86 37.0488C711.072 37.1335 711.254 37.2562 711.406 37.417C711.567 37.5778 711.69 37.764 711.774 37.9756C711.868 38.1787 711.914 38.403 711.914 38.6484C711.914 38.8854 711.868 39.1097 711.774 39.3213C711.69 39.5329 711.567 39.7191 711.406 39.8799C711.254 40.0407 711.072 40.1676 710.86 40.2607C710.649 40.3454 710.42 40.3877 710.175 40.3877C709.929 40.3877 709.701 40.3454 709.489 40.2607C709.278 40.1676 709.091 40.0407 708.931 39.8799C708.778 39.7191 708.656 39.5329 708.562 39.3213C708.478 39.1097 708.436 38.8854 708.436 38.6484C708.436 38.403 708.478 38.1787 708.562 37.9756C708.656 37.764 708.778 37.5778 708.931 37.417C709.091 37.2562 709.278 37.1335 709.489 37.0488C709.701 36.9557 709.929 36.9092 710.175 36.9092ZM729.624 54.8223C729.125 54.9492 728.608 55.0381 728.075 55.0889C727.542 55.1481 727 55.1777 726.45 55.1777C724.851 55.1777 723.657 54.818 722.87 54.0986C722.083 53.3708 721.689 52.2578 721.689 50.7598V44.1074H718.122V42.2539H721.689V38.75L723.898 38.1787V42.2539H729.624V44.1074H723.898V50.582C723.898 51.4961 724.14 52.1816 724.622 52.6387C725.113 53.0872 725.832 53.3115 726.78 53.3115C727.187 53.3115 727.631 53.2819 728.113 53.2227C728.596 53.1549 729.099 53.0534 729.624 52.918V54.8223Z" fill="black"/>
<path d="M386.606 83.7988H375.688V81.9326H386.606V83.7988ZM386.606 88.2168H375.688V86.3506H386.606V88.2168ZM415.387 92H404.456V90.0195L408.747 85.7539C409.45 85.0599 410.021 84.459 410.461 83.9512C410.901 83.4434 411.244 82.9821 411.489 82.5674C411.735 82.1442 411.9 81.7464 411.984 81.374C412.069 81.0016 412.111 80.5996 412.111 80.168C412.111 79.7617 412.056 79.3766 411.946 79.0127C411.836 78.6403 411.667 78.3145 411.438 78.0352C411.21 77.7559 410.914 77.5358 410.55 77.375C410.186 77.2142 409.75 77.1338 409.242 77.1338C408.54 77.1338 407.901 77.2904 407.325 77.6035C406.75 77.9167 406.221 78.3229 405.738 78.8223L404.52 77.3623C405.146 76.7021 405.865 76.1732 406.678 75.7754C407.499 75.3776 408.451 75.1787 409.534 75.1787C410.271 75.1787 410.939 75.2887 411.54 75.5088C412.149 75.7288 412.674 76.0462 413.114 76.4609C413.554 76.8757 413.893 77.3835 414.13 77.9844C414.375 78.5853 414.498 79.2624 414.498 80.0156C414.498 80.6504 414.413 81.2386 414.244 81.7803C414.075 82.3219 413.817 82.8636 413.47 83.4053C413.131 83.9385 412.7 84.4928 412.175 85.0684C411.659 85.6439 411.045 86.2744 410.334 86.96L407.325 89.8926H415.387V92ZM434.742 92H424.319V89.9434H428.585V77.832L424.611 79.9902L423.799 78.1113L429.08 75.3311H431.035V89.9434H434.742V92ZM455.202 88.3311H452.371V92H450.111V88.3311H442.126V86.3887L449.197 75.4072H452.371V86.3887H455.202V88.3311ZM450.111 77.54L444.335 86.3887H450.111V77.54ZM473.783 77.4639L466.826 92H464.299L471.523 77.4639H462.56V75.4072H473.783V77.4639ZM493.366 87.8359C493.366 88.5384 493.223 89.1647 492.935 89.7148C492.647 90.2565 492.245 90.7135 491.729 91.0859C491.212 91.4583 490.603 91.7419 489.901 91.9365C489.198 92.1312 488.436 92.2285 487.615 92.2285C486.71 92.2285 485.91 92.127 485.216 91.9238C484.53 91.7207 483.955 91.4372 483.489 91.0732C483.024 90.7093 482.673 90.2777 482.436 89.7783C482.199 89.279 482.08 88.7288 482.08 88.1279C482.08 87.1123 482.364 86.2363 482.931 85.5C483.498 84.7637 484.374 84.0951 485.559 83.4941C484.475 82.944 483.684 82.3346 483.185 81.666C482.685 80.9889 482.436 80.2145 482.436 79.3428C482.436 78.8096 482.546 78.2933 482.766 77.7939C482.986 77.2946 483.316 76.8503 483.756 76.4609C484.205 76.0716 484.763 75.7627 485.432 75.5342C486.1 75.2972 486.888 75.1787 487.793 75.1787C488.648 75.1787 489.397 75.2718 490.04 75.458C490.692 75.6357 491.238 75.8939 491.678 76.2324C492.118 76.571 492.448 76.9814 492.668 77.4639C492.888 77.9463 492.998 78.4837 492.998 79.0762C492.998 80.041 492.727 80.862 492.186 81.5391C491.653 82.2161 490.891 82.8086 489.901 83.3164C490.391 83.5618 490.849 83.8327 491.272 84.1289C491.695 84.4251 492.063 84.7552 492.376 85.1191C492.689 85.4831 492.931 85.8893 493.1 86.3379C493.278 86.7865 493.366 87.2858 493.366 87.8359ZM490.738 79.2539C490.738 78.5007 490.472 77.9421 489.939 77.5781C489.414 77.2057 488.673 77.0195 487.717 77.0195C486.769 77.0195 486.029 77.2015 485.495 77.5654C484.971 77.9294 484.708 78.4753 484.708 79.2031C484.708 79.5332 484.772 79.8379 484.899 80.1172C485.026 80.3965 485.22 80.6589 485.483 80.9043C485.753 81.1497 486.088 81.391 486.486 81.6279C486.883 81.8649 487.357 82.1061 487.907 82.3516C488.864 81.903 489.575 81.4375 490.04 80.9551C490.506 80.4642 490.738 79.8971 490.738 79.2539ZM490.967 88.001C490.967 87.6878 490.916 87.3831 490.815 87.0869C490.713 86.7907 490.531 86.4987 490.269 86.2109C490.006 85.9232 489.655 85.6354 489.215 85.3477C488.775 85.0599 488.216 84.7637 487.539 84.459C486.964 84.7383 486.477 85.0176 486.079 85.2969C485.69 85.5677 485.373 85.847 485.127 86.1348C484.89 86.4141 484.721 86.7061 484.619 87.0107C484.518 87.3154 484.467 87.637 484.467 87.9756C484.467 88.3564 484.547 88.695 484.708 88.9912C484.877 89.279 485.106 89.5244 485.394 89.7275C485.682 89.9307 486.024 90.083 486.422 90.1846C486.82 90.2861 487.252 90.3369 487.717 90.3369C488.166 90.3369 488.589 90.2904 488.987 90.1973C489.384 90.1042 489.727 89.9645 490.015 89.7783C490.311 89.5837 490.544 89.3424 490.713 89.0547C490.882 88.7585 490.967 88.4072 490.967 88.001ZM512.544 86.96C512.544 87.6878 512.396 88.3734 512.1 89.0166C511.803 89.6514 511.359 90.21 510.767 90.6924C510.174 91.1663 509.429 91.543 508.532 91.8223C507.635 92.0931 506.59 92.2285 505.396 92.2285C504.736 92.2285 504.144 92.2074 503.619 92.165C503.094 92.1227 502.604 92.0677 502.146 92V90.0195C502.671 90.1126 503.226 90.1846 503.81 90.2354C504.394 90.2861 504.99 90.3115 505.6 90.3115C506.429 90.3115 507.136 90.2396 507.72 90.0957C508.312 89.9434 508.795 89.7275 509.167 89.4482C509.539 89.1689 509.81 88.8304 509.979 88.4326C510.149 88.0348 510.233 87.5863 510.233 87.0869C510.233 86.6299 510.132 86.2321 509.929 85.8936C509.726 85.555 509.438 85.2715 509.065 85.043C508.701 84.8145 508.261 84.6452 507.745 84.5352C507.237 84.4167 506.679 84.3574 506.069 84.3574H504.178V82.542H506.095C506.594 82.542 507.047 82.4785 507.453 82.3516C507.868 82.2161 508.219 82.0257 508.507 81.7803C508.803 81.5348 509.027 81.2344 509.18 80.8789C509.34 80.515 509.421 80.1045 509.421 79.6475C509.421 78.7588 509.15 78.1113 508.608 77.7051C508.067 77.2988 507.271 77.0957 506.222 77.0957C505.663 77.0957 505.088 77.1507 504.495 77.2607C503.903 77.3708 503.268 77.5358 502.591 77.7559V75.8262C502.879 75.7246 503.183 75.6357 503.505 75.5596C503.835 75.4749 504.161 75.4072 504.482 75.3564C504.812 75.2972 505.138 75.2549 505.46 75.2295C505.782 75.1956 506.09 75.1787 506.387 75.1787C507.267 75.1787 508.041 75.276 508.71 75.4707C509.379 75.6569 509.937 75.9277 510.386 76.2832C510.834 76.6387 511.173 77.0703 511.401 77.5781C511.63 78.0859 511.744 78.6572 511.744 79.292C511.744 80.2399 511.499 81.0355 511.008 81.6787C510.525 82.3219 509.861 82.834 509.015 83.2148C509.446 83.2826 509.869 83.418 510.284 83.6211C510.707 83.8242 511.084 84.0866 511.414 84.4082C511.753 84.7214 512.023 85.0938 512.227 85.5254C512.438 85.957 512.544 86.4352 512.544 86.96ZM532.559 86.7441C532.559 87.5059 532.42 88.221 532.14 88.8896C531.87 89.5583 531.48 90.1423 530.972 90.6416C530.465 91.1325 529.851 91.5218 529.132 91.8096C528.421 92.0889 527.629 92.2285 526.758 92.2285C525.844 92.2285 525.035 92.0846 524.333 91.7969C523.63 91.5007 523.042 91.0521 522.568 90.4512C522.094 89.8418 521.735 89.0758 521.489 88.1533C521.244 87.2308 521.121 86.139 521.121 84.8779C521.121 84.0316 521.176 83.2106 521.286 82.415C521.396 81.6195 521.578 80.8704 521.832 80.168C522.086 79.4655 522.424 78.8223 522.847 78.2383C523.271 77.6543 523.795 77.1549 524.422 76.7402C525.056 76.3171 525.801 75.9912 526.656 75.7627C527.511 75.5257 528.501 75.4072 529.627 75.4072H531.264V77.3369H529.487C528.497 77.3369 527.638 77.4554 526.91 77.6924C526.182 77.9294 525.573 78.2637 525.082 78.6953C524.591 79.127 524.214 79.6475 523.952 80.2568C523.69 80.8662 523.525 81.5475 523.457 82.3008L523.406 82.8213C523.939 82.5081 524.553 82.2585 525.247 82.0723C525.949 81.8776 526.707 81.7803 527.519 81.7803C528.357 81.7803 529.089 81.903 529.716 82.1484C530.35 82.3939 530.875 82.7367 531.29 83.1768C531.713 83.6084 532.03 84.1289 532.242 84.7383C532.454 85.3477 532.559 86.0163 532.559 86.7441ZM530.249 86.8838C530.249 86.376 530.185 85.9189 530.058 85.5127C529.94 85.098 529.749 84.751 529.487 84.4717C529.225 84.1839 528.89 83.9639 528.484 83.8115C528.086 83.6507 527.608 83.5703 527.05 83.5703C526.728 83.5703 526.402 83.5999 526.072 83.6592C525.742 83.7184 525.416 83.8031 525.095 83.9131C524.781 84.0146 524.481 84.1331 524.193 84.2686C523.905 84.404 523.643 84.5479 523.406 84.7002C523.406 85.792 523.482 86.7061 523.635 87.4424C523.787 88.1702 524.011 88.7542 524.307 89.1943C524.612 89.6344 524.985 89.9476 525.425 90.1338C525.865 90.32 526.373 90.4131 526.948 90.4131C527.43 90.4131 527.871 90.3369 528.268 90.1846C528.675 90.0238 529.022 89.791 529.309 89.4863C529.606 89.1816 529.834 88.8135 529.995 88.3818C530.164 87.9417 530.249 87.4424 530.249 86.8838ZM552.676 88.3311H549.845V92H547.586V88.3311H539.6V86.3887L546.671 75.4072H549.845V86.3887H552.676V88.3311ZM547.586 77.54L541.809 86.3887H547.586V77.54ZM571.257 77.4639L564.3 92H561.774L568.997 77.4639H560.035V75.4072H571.257V77.4639ZM604.946 83.7988H594.028V81.9326H604.946V83.7988ZM604.946 88.2168H594.028V86.3506H604.946V88.2168ZM619.24 83.7988H608.322V81.9326H619.24V83.7988ZM619.24 88.2168H608.322V86.3506H619.24V88.2168ZM641.229 77.3115H637.407V75.4072H647.335V77.3115H643.514V90.0703H647.335V92H637.407V90.0703H641.229V77.3115ZM662.316 92H659.37L654.533 81.6533L653.137 78.3271V86.6934V92H651.029V75.4072H653.937L658.545 85.208L660.208 89.0039V80.1172V75.4072H662.316V92ZM677.017 77.3369H672.104V92H669.819V77.3369H664.905V75.4072H677.017V77.3369ZM692.404 97.2051H678.109V95.377H692.404V97.2051ZM706.076 92H703.867L703.537 81.6533L703.398 77.6797L702.623 79.9902L700.173 86.5918H698.612L696.276 80.2441L695.501 77.6797L695.45 81.8311L695.158 92H693.026L693.838 75.4072H696.517L698.751 81.6533L699.475 83.7607L700.173 81.6533L702.522 75.4072H705.277L706.076 92ZM720.866 92H718.404L717.248 88.3818H710.342L709.174 92H706.825L712.335 75.4072H715.433L720.866 92ZM716.601 86.3633L713.795 77.4893L710.989 86.3633H716.601ZM734.984 92H732.127L728.09 85.2969L724.04 92H721.222L726.744 83.5195L721.666 75.4072H724.345L728.141 81.6533L731.962 75.4072H734.565L729.474 83.418L734.984 92Z" fill="black"/>
<path d="M8.21973 55L8.16895 53.2861C7.47493 53.9717 6.76823 54.4668 6.04883 54.7715C5.33789 55.0762 4.58887 55.2285 3.80176 55.2285C3.07389 55.2285 2.45182 55.1354 1.93555 54.9492C1.41927 54.763 0.991862 54.5091 0.65332 54.1875C0.323242 53.8574 0.0777995 53.4723 -0.0830078 53.0322C-0.235352 52.5921 -0.311523 52.1139 -0.311523 51.5977C-0.311523 50.3197 0.162435 49.321 1.11035 48.6016C2.06673 47.8737 3.47591 47.5098 5.33789 47.5098H7.97852V46.3926C7.97852 45.6393 7.7373 45.0384 7.25488 44.5898C6.77246 44.1328 6.03613 43.9043 5.0459 43.9043C4.3265 43.9043 3.61556 43.9847 2.91309 44.1455C2.21908 44.3063 1.49967 44.5348 0.754883 44.8311V42.8379C1.03418 42.7363 1.3431 42.639 1.68164 42.5459C2.02865 42.4443 2.39258 42.3555 2.77344 42.2793C3.1543 42.2031 3.55208 42.1439 3.9668 42.1016C4.38151 42.0508 4.80046 42.0254 5.22363 42.0254C5.99382 42.0254 6.68783 42.11 7.30566 42.2793C7.9235 42.4486 8.44401 42.7067 8.86719 43.0537C9.29883 43.4007 9.62891 43.8366 9.85742 44.3613C10.0859 44.8861 10.2002 45.5039 10.2002 46.2148V55H8.21973ZM7.97852 49.1982H5.17285C4.62272 49.1982 4.14876 49.2533 3.75098 49.3633C3.35319 49.4733 3.02734 49.6299 2.77344 49.833C2.51953 50.0361 2.3291 50.2816 2.20215 50.5693C2.08366 50.8486 2.02441 51.166 2.02441 51.5215C2.02441 51.7669 2.0625 52.0039 2.13867 52.2324C2.21484 52.4525 2.33757 52.6514 2.50684 52.8291C2.67611 52.9984 2.89616 53.1338 3.16699 53.2354C3.43783 53.3369 3.7679 53.3877 4.15723 53.3877C4.66504 53.3877 5.24479 53.2354 5.89648 52.9307C6.55664 52.6175 7.25065 52.1266 7.97852 51.458V49.1982ZM25.2188 48.3984C25.2188 49.5326 25.0579 50.5228 24.7363 51.3691C24.4232 52.2155 23.9873 52.918 23.4287 53.4766C22.8701 54.0352 22.21 54.4541 21.4482 54.7334C20.6865 55.0127 19.8613 55.1523 18.9727 55.1523C18.5664 55.1523 18.1602 55.1312 17.7539 55.0889C17.3561 55.0465 16.9499 54.9746 16.5352 54.873V60.2051H14.3262V42.2539H16.2939L16.4336 44.3867C17.0684 43.515 17.7454 42.9056 18.4648 42.5586C19.1842 42.2031 19.9629 42.0254 20.8008 42.0254C21.5286 42.0254 22.1676 42.1777 22.7178 42.4824C23.2679 42.7871 23.7292 43.2188 24.1016 43.7773C24.474 44.3275 24.7533 44.9961 24.9395 45.7832C25.1257 46.5618 25.2188 47.4336 25.2188 48.3984ZM22.959 48.5C22.959 47.8314 22.9082 47.2178 22.8066 46.6592C22.7135 46.1006 22.5612 45.6224 22.3496 45.2246C22.138 44.8268 21.8672 44.5179 21.5371 44.2979C21.207 44.0693 20.8135 43.9551 20.3564 43.9551C20.0771 43.9551 19.7936 44.0016 19.5059 44.0947C19.2181 44.1794 18.9176 44.3275 18.6045 44.5391C18.2998 44.7422 17.974 45.0173 17.627 45.3643C17.2884 45.7028 16.9245 46.126 16.5352 46.6338V52.8164C16.9414 52.9857 17.3688 53.1211 17.8174 53.2227C18.266 53.3158 18.7061 53.3623 19.1377 53.3623C20.3311 53.3623 21.2663 52.9603 21.9434 52.1562C22.6204 51.3438 22.959 50.125 22.959 48.5ZM39.5137 48.3984C39.5137 49.5326 39.3529 50.5228 39.0312 51.3691C38.7181 52.2155 38.2822 52.918 37.7236 53.4766C37.165 54.0352 36.5049 54.4541 35.7432 54.7334C34.9814 55.0127 34.1562 55.1523 33.2676 55.1523C32.8613 55.1523 32.4551 55.1312 32.0488 55.0889C31.651 55.0465 31.2448 54.9746 30.8301 54.873V60.2051H28.6211V42.2539H30.5889L30.7285 44.3867C31.3633 43.515 32.0404 42.9056 32.7598 42.5586C33.4792 42.2031 34.2578 42.0254 35.0957 42.0254C35.8236 42.0254 36.4626 42.1777 37.0127 42.4824C37.5628 42.7871 38.0241 43.2188 38.3965 43.7773C38.7689 44.3275 39.0482 44.9961 39.2344 45.7832C39.4206 46.5618 39.5137 47.4336 39.5137 48.3984ZM37.2539 48.5C37.2539 47.8314 37.2031 47.2178 37.1016 46.6592C37.0085 46.1006 36.8561 45.6224 36.6445 45.2246C36.4329 44.8268 36.1621 44.5179 35.832 44.2979C35.502 44.0693 35.1084 43.9551 34.6514 43.9551C34.3721 43.9551 34.0885 44.0016 33.8008 44.0947C33.513 44.1794 33.2126 44.3275 32.8994 44.5391C32.5947 44.7422 32.2689 45.0173 31.9219 45.3643C31.5833 45.7028 31.2194 46.126 30.8301 46.6338V52.8164C31.2363 52.9857 31.6637 53.1211 32.1123 53.2227C32.5609 53.3158 33.001 53.3623 33.4326 53.3623C34.626 53.3623 35.5612 52.9603 36.2383 52.1562C36.9154 51.3438 37.2539 50.125 37.2539 48.5ZM53.6816 47.9541C53.6816 48.2673 53.6774 48.5296 53.6689 48.7412C53.6605 48.9528 53.6478 49.1517 53.6309 49.3379H44.6807C44.6807 50.6413 45.0446 51.6442 45.7725 52.3467C46.5003 53.0407 47.5498 53.3877 48.9209 53.3877C49.2933 53.3877 49.6657 53.375 50.0381 53.3496C50.4105 53.3158 50.7702 53.2734 51.1172 53.2227C51.4642 53.1719 51.7943 53.1169 52.1074 53.0576C52.429 52.9899 52.7253 52.918 52.9961 52.8418V54.6572C52.3952 54.8265 51.7139 54.9619 50.9521 55.0635C50.1989 55.1735 49.416 55.2285 48.6035 55.2285C47.5117 55.2285 46.5723 55.0804 45.7852 54.7842C44.998 54.488 44.3506 54.0605 43.8428 53.502C43.3434 52.9349 42.971 52.2451 42.7256 51.4326C42.4886 50.6117 42.3701 49.6849 42.3701 48.6523C42.3701 47.7552 42.4971 46.9089 42.751 46.1133C43.0133 45.3092 43.39 44.6068 43.8809 44.0059C44.3802 43.3965 44.9896 42.9141 45.709 42.5586C46.4284 42.2031 47.2451 42.0254 48.1592 42.0254C49.0479 42.0254 49.835 42.165 50.5205 42.4443C51.2061 42.7236 51.7816 43.1214 52.2471 43.6377C52.721 44.1455 53.0765 44.7676 53.3135 45.5039C53.5589 46.2318 53.6816 47.0485 53.6816 47.9541ZM51.3838 47.6367C51.4092 47.0697 51.3542 46.5534 51.2188 46.0879C51.0833 45.6139 50.8717 45.2077 50.584 44.8691C50.3047 44.5306 49.9535 44.2682 49.5303 44.082C49.1071 43.8874 48.6162 43.79 48.0576 43.79C47.5752 43.79 47.1351 43.8831 46.7373 44.0693C46.3395 44.2555 45.9967 44.5179 45.709 44.8564C45.4212 45.195 45.1885 45.6012 45.0107 46.0752C44.833 46.5492 44.723 47.0697 44.6807 47.6367H51.3838ZM57.2109 42.2539H59.1787L59.2676 44.3105C59.64 43.8704 59.9997 43.5065 60.3467 43.2188C60.6937 42.9225 61.0322 42.6855 61.3623 42.5078C61.7008 42.3301 62.0436 42.2074 62.3906 42.1396C62.7376 42.0635 63.0973 42.0254 63.4697 42.0254C64.7816 42.0254 65.7718 42.4147 66.4404 43.1934C67.1175 43.9635 67.4561 45.1273 67.4561 46.6846V55H65.2471V46.8623C65.2471 45.8636 65.0609 45.1273 64.6885 44.6533C64.3161 44.1709 63.7617 43.9297 63.0254 43.9297C62.7546 43.9297 62.488 43.972 62.2256 44.0566C61.9717 44.1328 61.7051 44.2725 61.4258 44.4756C61.1465 44.6702 60.8418 44.9368 60.5117 45.2754C60.1901 45.6139 59.8262 46.0371 59.4199 46.5449V55H57.2109V42.2539ZM70.8584 48.8936C70.8584 47.8102 71.0065 46.8496 71.3027 46.0117C71.599 45.1654 72.0179 44.4544 72.5596 43.8789C73.1097 43.2949 73.7656 42.8548 74.5273 42.5586C75.2975 42.2539 76.1523 42.1016 77.0918 42.1016C77.498 42.1016 77.8958 42.127 78.2852 42.1777C78.6829 42.2285 79.0723 42.3089 79.4531 42.4189V37.0615H81.6748V55H79.6943L79.6182 52.5879C79.0003 53.485 78.3317 54.1494 77.6123 54.5811C76.8929 55.0127 76.1143 55.2285 75.2764 55.2285C74.5485 55.2285 73.9053 55.0762 73.3467 54.7715C72.7965 54.4668 72.3353 54.0394 71.9629 53.4893C71.599 52.9307 71.3239 52.262 71.1377 51.4834C70.9515 50.7048 70.8584 49.8415 70.8584 48.8936ZM73.1182 48.7539C73.1182 50.2943 73.3424 51.4453 73.791 52.207C74.248 52.9603 74.8913 53.3369 75.7207 53.3369C76.2793 53.3369 76.8675 53.0872 77.4854 52.5879C78.1117 52.0885 78.7676 51.348 79.4531 50.3662V44.4502C79.0892 44.2809 78.6872 44.154 78.2471 44.0693C77.807 43.9762 77.3711 43.9297 76.9395 43.9297C75.7376 43.9297 74.7982 44.319 74.1211 45.0977C73.4525 45.8763 73.1182 47.0951 73.1182 48.7539ZM99.4482 48.8936C99.4482 47.8102 99.5964 46.8496 99.8926 46.0117C100.189 45.1654 100.608 44.4544 101.149 43.8789C101.7 43.2949 102.355 42.8548 103.117 42.5586C103.887 42.2539 104.742 42.1016 105.682 42.1016C106.088 42.1016 106.486 42.127 106.875 42.1777C107.273 42.2285 107.662 42.3089 108.043 42.4189V37.0615H110.265V55H108.284L108.208 52.5879C107.59 53.485 106.922 54.1494 106.202 54.5811C105.483 55.0127 104.704 55.2285 103.866 55.2285C103.138 55.2285 102.495 55.0762 101.937 54.7715C101.386 54.4668 100.925 54.0394 100.553 53.4893C100.189 52.9307 99.9137 52.262 99.7275 51.4834C99.5413 50.7048 99.4482 49.8415 99.4482 48.8936ZM101.708 48.7539C101.708 50.2943 101.932 51.4453 102.381 52.207C102.838 52.9603 103.481 53.3369 104.311 53.3369C104.869 53.3369 105.457 53.0872 106.075 52.5879C106.701 52.0885 107.357 51.348 108.043 50.3662V44.4502C107.679 44.2809 107.277 44.154 106.837 44.0693C106.397 43.9762 105.961 43.9297 105.529 43.9297C104.327 43.9297 103.388 44.319 102.711 45.0977C102.042 45.8763 101.708 47.0951 101.708 48.7539ZM118.732 44.082H114.962V42.2539H120.967V53.1592H124.763V55H114.543V53.1592H118.732V44.082ZM119.507 36.9092C119.752 36.9092 119.981 36.9557 120.192 37.0488C120.404 37.1335 120.586 37.2562 120.738 37.417C120.899 37.5778 121.022 37.764 121.106 37.9756C121.2 38.1787 121.246 38.403 121.246 38.6484C121.246 38.8854 121.2 39.1097 121.106 39.3213C121.022 39.5329 120.899 39.7191 120.738 39.8799C120.586 40.0407 120.404 40.1676 120.192 40.2607C119.981 40.3454 119.752 40.3877 119.507 40.3877C119.261 40.3877 119.033 40.3454 118.821 40.2607C118.61 40.1676 118.424 40.0407 118.263 39.8799C118.11 39.7191 117.988 39.5329 117.895 39.3213C117.81 39.1097 117.768 38.8854 117.768 38.6484C117.768 38.403 117.81 38.1787 117.895 37.9756C117.988 37.764 118.11 37.5778 118.263 37.417C118.424 37.2562 118.61 37.1335 118.821 37.0488C119.033 36.9557 119.261 36.9092 119.507 36.9092ZM137.864 44.0566C138.101 44.3529 138.283 44.6999 138.41 45.0977C138.546 45.487 138.613 45.9102 138.613 46.3672C138.613 47.0273 138.491 47.6325 138.245 48.1826C138.008 48.7243 137.67 49.1898 137.229 49.5791C136.789 49.9684 136.26 50.2731 135.643 50.4932C135.033 50.7048 134.36 50.8105 133.624 50.8105C133.091 50.8105 132.591 50.7555 132.126 50.6455C131.66 50.527 131.292 50.3831 131.021 50.2139C130.861 50.4508 130.725 50.6751 130.615 50.8867C130.505 51.0983 130.45 51.3353 130.45 51.5977C130.45 51.9193 130.603 52.1859 130.907 52.3975C131.22 52.609 131.631 52.7233 132.139 52.7402L135.49 52.8672C136.125 52.8841 136.709 52.9645 137.242 53.1084C137.784 53.2523 138.245 53.4596 138.626 53.7305C139.015 54.0013 139.316 54.3356 139.527 54.7334C139.747 55.1312 139.857 55.5924 139.857 56.1172C139.857 56.6842 139.735 57.2217 139.489 57.7295C139.244 58.2373 138.863 58.6816 138.347 59.0625C137.839 59.4518 137.191 59.7607 136.404 59.9893C135.617 60.2178 134.682 60.332 133.599 60.332C132.566 60.332 131.686 60.2474 130.958 60.0781C130.239 59.9173 129.646 59.6888 129.181 59.3926C128.715 59.1048 128.377 58.7578 128.165 58.3516C127.953 57.9538 127.848 57.5137 127.848 57.0312C127.848 56.4134 127.992 55.8717 128.279 55.4062C128.567 54.9408 129.011 54.4922 129.612 54.0605C129.392 53.959 129.202 53.832 129.041 53.6797C128.88 53.5273 128.749 53.3623 128.647 53.1846C128.546 52.9984 128.47 52.8037 128.419 52.6006C128.368 52.3975 128.343 52.1986 128.343 52.0039C128.343 51.4538 128.47 50.9502 128.724 50.4932C128.986 50.0361 129.295 49.6045 129.65 49.1982C129.49 49.0036 129.346 48.8132 129.219 48.627C129.1 48.4408 128.994 48.2419 128.901 48.0303C128.817 47.8102 128.749 47.5775 128.698 47.332C128.656 47.0781 128.635 46.7904 128.635 46.4688C128.635 45.8086 128.753 45.2077 128.99 44.666C129.236 44.1159 129.574 43.6462 130.006 43.2568C130.446 42.8675 130.971 42.5671 131.58 42.3555C132.198 42.1354 132.879 42.0254 133.624 42.0254C133.937 42.0254 134.238 42.0465 134.525 42.0889C134.813 42.1312 135.067 42.1862 135.287 42.2539H139.908V44.0566H137.864ZM130.196 56.8408C130.196 57.4417 130.509 57.8776 131.136 58.1484C131.762 58.4277 132.634 58.5674 133.751 58.5674C134.453 58.5674 135.042 58.5039 135.516 58.377C135.998 58.25 136.383 58.0807 136.671 57.8691C136.967 57.666 137.179 57.429 137.306 57.1582C137.433 56.8958 137.496 56.625 137.496 56.3457C137.496 55.8294 137.285 55.4486 136.861 55.2031C136.438 54.9577 135.791 54.8138 134.919 54.7715L131.593 54.6572C131.313 54.8434 131.081 55.0254 130.895 55.2031C130.717 55.3809 130.577 55.5586 130.476 55.7363C130.374 55.9225 130.302 56.1045 130.26 56.2822C130.217 56.4684 130.196 56.6546 130.196 56.8408ZM130.869 46.418C130.869 46.8242 130.937 47.1966 131.072 47.5352C131.208 47.8737 131.398 48.1615 131.644 48.3984C131.889 48.6354 132.177 48.8216 132.507 48.957C132.845 49.084 133.218 49.1475 133.624 49.1475C134.064 49.1475 134.453 49.0755 134.792 48.9316C135.139 48.7793 135.427 48.5762 135.655 48.3223C135.892 48.0684 136.07 47.7764 136.188 47.4463C136.315 47.1162 136.379 46.7734 136.379 46.418C136.379 46.0117 136.311 45.6393 136.176 45.3008C136.04 44.9622 135.85 44.6745 135.604 44.4375C135.359 44.2005 135.067 44.0186 134.729 43.8916C134.398 43.7562 134.03 43.6885 133.624 43.6885C133.184 43.6885 132.79 43.7646 132.443 43.917C132.105 44.0693 131.817 44.2725 131.58 44.5264C131.352 44.7718 131.174 45.0596 131.047 45.3896C130.928 45.7197 130.869 46.0625 130.869 46.418ZM147.322 44.082H143.552V42.2539H149.557V53.1592H153.353V55H143.133V53.1592H147.322V44.082ZM148.097 36.9092C148.342 36.9092 148.571 36.9557 148.782 37.0488C148.994 37.1335 149.176 37.2562 149.328 37.417C149.489 37.5778 149.612 37.764 149.696 37.9756C149.789 38.1787 149.836 38.403 149.836 38.6484C149.836 38.8854 149.789 39.1097 149.696 39.3213C149.612 39.5329 149.489 39.7191 149.328 39.8799C149.176 40.0407 148.994 40.1676 148.782 40.2607C148.571 40.3454 148.342 40.3877 148.097 40.3877C147.851 40.3877 147.623 40.3454 147.411 40.2607C147.2 40.1676 147.013 40.0407 146.853 39.8799C146.7 39.7191 146.577 39.5329 146.484 39.3213C146.4 39.1097 146.357 38.8854 146.357 38.6484C146.357 38.403 146.4 38.1787 146.484 37.9756C146.577 37.764 146.7 37.5778 146.853 37.417C147.013 37.2562 147.2 37.1335 147.411 37.0488C147.623 36.9557 147.851 36.9092 148.097 36.9092ZM167.546 54.8223C167.047 54.9492 166.53 55.0381 165.997 55.0889C165.464 55.1481 164.922 55.1777 164.372 55.1777C162.772 55.1777 161.579 54.818 160.792 54.0986C160.005 53.3708 159.611 52.2578 159.611 50.7598V44.1074H156.044V42.2539H159.611V38.75L161.82 38.1787V42.2539H167.546V44.1074H161.82V50.582C161.82 51.4961 162.062 52.1816 162.544 52.6387C163.035 53.0872 163.754 53.3115 164.702 53.3115C165.108 53.3115 165.553 53.2819 166.035 53.2227C166.518 53.1549 167.021 53.0534 167.546 52.918V54.8223ZM176.687 42.0254C176.949 42.0254 177.199 42.0804 177.436 42.1904C177.673 42.292 177.88 42.4316 178.058 42.6094C178.235 42.7871 178.375 42.9945 178.477 43.2314C178.587 43.4684 178.642 43.7181 178.642 43.9805C178.642 44.2513 178.587 44.5052 178.477 44.7422C178.375 44.9707 178.235 45.1738 178.058 45.3516C177.88 45.5293 177.673 45.6689 177.436 45.7705C177.199 45.8721 176.949 45.9229 176.687 45.9229C176.416 45.9229 176.162 45.8721 175.925 45.7705C175.696 45.6689 175.493 45.5293 175.315 45.3516C175.138 45.1738 174.998 44.9707 174.896 44.7422C174.795 44.5052 174.744 44.2513 174.744 43.9805C174.744 43.7181 174.795 43.4684 174.896 43.2314C174.998 42.9945 175.138 42.7871 175.315 42.6094C175.493 42.4316 175.696 42.292 175.925 42.1904C176.162 42.0804 176.416 42.0254 176.687 42.0254ZM176.687 51.3311C176.949 51.3311 177.199 51.3861 177.436 51.4961C177.673 51.5977 177.88 51.7373 178.058 51.915C178.235 52.0928 178.375 52.3001 178.477 52.5371C178.587 52.7741 178.642 53.0238 178.642 53.2861C178.642 53.557 178.587 53.8109 178.477 54.0479C178.375 54.2764 178.235 54.4795 178.058 54.6572C177.88 54.835 177.673 54.9746 177.436 55.0762C177.199 55.1777 176.949 55.2285 176.687 55.2285C176.416 55.2285 176.162 55.1777 175.925 55.0762C175.696 54.9746 175.493 54.835 175.315 54.6572C175.138 54.4795 174.998 54.2764 174.896 54.0479C174.795 53.8109 174.744 53.557 174.744 53.2861C174.744 53.0238 174.795 52.7741 174.896 52.5371C174.998 52.3001 175.138 52.0928 175.315 51.915C175.493 51.7373 175.696 51.5977 175.925 51.4961C176.162 51.3861 176.416 51.3311 176.687 51.3311Z" fill="#999999"/>
<path d="M604.384 11.8936C604.384 10.8102 604.532 9.84961 604.828 9.01172C605.124 8.16536 605.543 7.45443 606.085 6.87891C606.635 6.29492 607.291 5.85482 608.053 5.55859C608.823 5.25391 609.678 5.10156 610.617 5.10156C611.023 5.10156 611.421 5.12695 611.811 5.17773C612.208 5.22852 612.598 5.30892 612.979 5.41895V0.0615234H615.2V18H613.22L613.144 15.5879C612.526 16.485 611.857 17.1494 611.138 17.5811C610.418 18.0127 609.64 18.2285 608.802 18.2285C608.074 18.2285 607.431 18.0762 606.872 17.7715C606.322 17.4668 605.861 17.0394 605.488 16.4893C605.124 15.9307 604.849 15.262 604.663 14.4834C604.477 13.7048 604.384 12.8415 604.384 11.8936ZM606.644 11.7539C606.644 13.2943 606.868 14.4453 607.316 15.207C607.773 15.9603 608.417 16.3369 609.246 16.3369C609.805 16.3369 610.393 16.0872 611.011 15.5879C611.637 15.0885 612.293 14.348 612.979 13.3662V7.4502C612.615 7.28092 612.213 7.15397 611.772 7.06934C611.332 6.97624 610.896 6.92969 610.465 6.92969C609.263 6.92969 608.324 7.31901 607.646 8.09766C606.978 8.8763 606.644 10.0951 606.644 11.7539ZM623.668 7.08203H619.897V5.25391H625.902V16.1592H629.698V18H619.479V16.1592H623.668V7.08203ZM624.442 -0.0908203C624.688 -0.0908203 624.916 -0.0442708 625.128 0.0488281C625.34 0.133464 625.521 0.256185 625.674 0.416992C625.835 0.577799 625.957 0.763997 626.042 0.975586C626.135 1.17871 626.182 1.40299 626.182 1.64844C626.182 1.88542 626.135 2.1097 626.042 2.32129C625.957 2.53288 625.835 2.71908 625.674 2.87988C625.521 3.04069 625.34 3.16764 625.128 3.26074C624.916 3.34538 624.688 3.3877 624.442 3.3877C624.197 3.3877 623.968 3.34538 623.757 3.26074C623.545 3.16764 623.359 3.04069 623.198 2.87988C623.046 2.71908 622.923 2.53288 622.83 2.32129C622.745 2.1097 622.703 1.88542 622.703 1.64844C622.703 1.40299 622.745 1.17871 622.83 0.975586C622.923 0.763997 623.046 0.577799 623.198 0.416992C623.359 0.256185 623.545 0.133464 623.757 0.0488281C623.968 -0.0442708 624.197 -0.0908203 624.442 -0.0908203ZM642.8 7.05664C643.037 7.35286 643.219 7.69987 643.346 8.09766C643.481 8.48698 643.549 8.91016 643.549 9.36719C643.549 10.0273 643.426 10.6325 643.181 11.1826C642.944 11.7243 642.605 12.1898 642.165 12.5791C641.725 12.9684 641.196 13.2731 640.578 13.4932C639.969 13.7048 639.296 13.8105 638.56 13.8105C638.026 13.8105 637.527 13.7555 637.062 13.6455C636.596 13.527 636.228 13.3831 635.957 13.2139C635.796 13.4508 635.661 13.6751 635.551 13.8867C635.441 14.0983 635.386 14.3353 635.386 14.5977C635.386 14.9193 635.538 15.1859 635.843 15.3975C636.156 15.609 636.566 15.7233 637.074 15.7402L640.426 15.8672C641.061 15.8841 641.645 15.9645 642.178 16.1084C642.719 16.2523 643.181 16.4596 643.562 16.7305C643.951 17.0013 644.251 17.3356 644.463 17.7334C644.683 18.1312 644.793 18.5924 644.793 19.1172C644.793 19.6842 644.67 20.2217 644.425 20.7295C644.179 21.2373 643.799 21.6816 643.282 22.0625C642.774 22.4518 642.127 22.7607 641.34 22.9893C640.553 23.2178 639.618 23.332 638.534 23.332C637.502 23.332 636.621 23.2474 635.894 23.0781C635.174 22.9173 634.582 22.6888 634.116 22.3926C633.651 22.1048 633.312 21.7578 633.101 21.3516C632.889 20.9538 632.783 20.5137 632.783 20.0312C632.783 19.4134 632.927 18.8717 633.215 18.4062C633.503 17.9408 633.947 17.4922 634.548 17.0605C634.328 16.959 634.137 16.832 633.977 16.6797C633.816 16.5273 633.685 16.3623 633.583 16.1846C633.481 15.9984 633.405 15.8037 633.354 15.6006C633.304 15.3975 633.278 15.1986 633.278 15.0039C633.278 14.4538 633.405 13.9502 633.659 13.4932C633.922 13.0361 634.23 12.6045 634.586 12.1982C634.425 12.0036 634.281 11.8132 634.154 11.627C634.036 11.4408 633.93 11.2419 633.837 11.0303C633.752 10.8102 633.685 10.5775 633.634 10.332C633.591 10.0781 633.57 9.79036 633.57 9.46875C633.57 8.80859 633.689 8.20768 633.926 7.66602C634.171 7.11589 634.51 6.64616 634.941 6.25684C635.382 5.86751 635.906 5.56706 636.516 5.35547C637.133 5.13542 637.815 5.02539 638.56 5.02539C638.873 5.02539 639.173 5.04655 639.461 5.08887C639.749 5.13118 640.003 5.1862 640.223 5.25391H644.844V7.05664H642.8ZM635.132 19.8408C635.132 20.4417 635.445 20.8776 636.071 21.1484C636.698 21.4277 637.569 21.5674 638.687 21.5674C639.389 21.5674 639.977 21.5039 640.451 21.377C640.934 21.25 641.319 21.0807 641.606 20.8691C641.903 20.666 642.114 20.429 642.241 20.1582C642.368 19.8958 642.432 19.625 642.432 19.3457C642.432 18.8294 642.22 18.4486 641.797 18.2031C641.374 17.9577 640.726 17.8138 639.854 17.7715L636.528 17.6572C636.249 17.8434 636.016 18.0254 635.83 18.2031C635.652 18.3809 635.513 18.5586 635.411 18.7363C635.31 18.9225 635.238 19.1045 635.195 19.2822C635.153 19.4684 635.132 19.6546 635.132 19.8408ZM635.805 9.41797C635.805 9.82422 635.872 10.1966 636.008 10.5352C636.143 10.8737 636.334 11.1615 636.579 11.3984C636.825 11.6354 637.112 11.8216 637.442 11.957C637.781 12.084 638.153 12.1475 638.56 12.1475C639 12.1475 639.389 12.0755 639.728 11.9316C640.075 11.7793 640.362 11.5762 640.591 11.3223C640.828 11.0684 641.006 10.7764 641.124 10.4463C641.251 10.1162 641.314 9.77344 641.314 9.41797C641.314 9.01172 641.247 8.63932 641.111 8.30078C640.976 7.96224 640.785 7.67448 640.54 7.4375C640.295 7.20052 640.003 7.01855 639.664 6.8916C639.334 6.75618 638.966 6.68848 638.56 6.68848C638.119 6.68848 637.726 6.76465 637.379 6.91699C637.04 7.06934 636.753 7.27246 636.516 7.52637C636.287 7.77181 636.109 8.05957 635.982 8.38965C635.864 8.71973 635.805 9.0625 635.805 9.41797ZM652.258 7.08203H648.487V5.25391H654.492V16.1592H658.288V18H648.068V16.1592H652.258V7.08203ZM653.032 -0.0908203C653.278 -0.0908203 653.506 -0.0442708 653.718 0.0488281C653.929 0.133464 654.111 0.256185 654.264 0.416992C654.424 0.577799 654.547 0.763997 654.632 0.975586C654.725 1.17871 654.771 1.40299 654.771 1.64844C654.771 1.88542 654.725 2.1097 654.632 2.32129C654.547 2.53288 654.424 2.71908 654.264 2.87988C654.111 3.04069 653.929 3.16764 653.718 3.26074C653.506 3.34538 653.278 3.3877 653.032 3.3877C652.787 3.3877 652.558 3.34538 652.347 3.26074C652.135 3.16764 651.949 3.04069 651.788 2.87988C651.636 2.71908 651.513 2.53288 651.42 2.32129C651.335 2.1097 651.293 1.88542 651.293 1.64844C651.293 1.40299 651.335 1.17871 651.42 0.975586C651.513 0.763997 651.636 0.577799 651.788 0.416992C651.949 0.256185 652.135 0.133464 652.347 0.0488281C652.558 -0.0442708 652.787 -0.0908203 653.032 -0.0908203ZM672.481 17.8223C671.982 17.9492 671.466 18.0381 670.933 18.0889C670.399 18.1481 669.858 18.1777 669.308 18.1777C667.708 18.1777 666.515 17.818 665.728 17.0986C664.94 16.3708 664.547 15.2578 664.547 13.7598V7.10742H660.979V5.25391H664.547V1.75L666.756 1.17871V5.25391H672.481V7.10742H666.756V13.582C666.756 14.4961 666.997 15.1816 667.479 15.6387C667.97 16.0872 668.69 16.3115 669.638 16.3115C670.044 16.3115 670.488 16.2819 670.971 16.2227C671.453 16.1549 671.957 16.0534 672.481 15.918V17.8223ZM701.376 9.79883H690.458V7.93262H701.376V9.79883ZM701.376 14.2168H690.458V12.3506H701.376V14.2168ZM730.067 3.46387L723.11 18H720.584L727.808 3.46387H718.845V1.40723H730.067V3.46387Z" fill="black"/>
<path opacity="0.5" d="M804.707 86.7071C805.098 86.3166 805.098 85.6834 804.707 85.2929L798.343 78.9289C797.953 78.5384 797.319 78.5384 796.929 78.9289C796.538 79.3195 796.538 79.9526 796.929 80.3431L802.586 86L796.929 91.6569C796.538 92.0474 796.538 92.6805 796.929 93.0711C797.319 93.4616 797.953 93.4616 798.343 93.0711L804.707 86.7071ZM753 87H804V85H753V87Z" fill="black"/>
<path opacity="0.5" d="M828.458 92V83.5957C828.458 82.1823 827.933 81.4756 826.884 81.4756C826.359 81.4756 825.855 81.6872 825.373 82.1104C824.899 82.5335 824.396 83.109 823.862 83.8369V92H820.765V79.1016H823.443L823.52 81.0059C823.782 80.6758 824.053 80.3753 824.332 80.1045C824.62 79.8337 824.929 79.6051 825.259 79.4189C825.589 79.2243 825.944 79.0762 826.325 78.9746C826.706 78.873 827.133 78.8223 827.607 78.8223C828.268 78.8223 828.843 78.9323 829.334 79.1523C829.825 79.3639 830.235 79.6686 830.565 80.0664C830.896 80.4557 831.141 80.9297 831.302 81.4883C831.471 82.0384 831.556 82.6562 831.556 83.3418V92H828.458ZM846.676 85.4492C846.676 86.4648 846.532 87.3958 846.244 88.2422C845.956 89.0801 845.542 89.7995 845 90.4004C844.458 91.0013 843.794 91.4668 843.007 91.7969C842.22 92.127 841.323 92.292 840.315 92.292C839.359 92.292 838.504 92.1523 837.751 91.873C836.998 91.5938 836.359 91.179 835.834 90.6289C835.309 90.0703 834.907 89.3763 834.628 88.5469C834.349 87.709 834.209 86.7357 834.209 85.627C834.209 84.6029 834.353 83.6719 834.641 82.834C834.937 81.9961 835.356 81.2809 835.897 80.6885C836.448 80.096 837.116 79.639 837.903 79.3174C838.69 78.9873 839.579 78.8223 840.569 78.8223C841.534 78.8223 842.393 78.9661 843.146 79.2539C843.9 79.5332 844.539 79.9521 845.063 80.5107C845.588 81.0693 845.986 81.7633 846.257 82.5928C846.536 83.4137 846.676 84.3659 846.676 85.4492ZM843.451 85.5254C843.451 84.1882 843.197 83.1852 842.689 82.5166C842.19 81.8395 841.45 81.501 840.468 81.501C839.926 81.501 839.465 81.6068 839.084 81.8184C838.703 82.0299 838.39 82.3219 838.145 82.6943C837.899 83.0583 837.717 83.4857 837.599 83.9766C837.489 84.4674 837.434 84.9922 837.434 85.5508C837.434 86.8965 837.704 87.9121 838.246 88.5977C838.788 89.2747 839.528 89.6133 840.468 89.6133C840.984 89.6133 841.433 89.5117 841.813 89.3086C842.194 89.097 842.503 88.8092 842.74 88.4453C842.977 88.0729 843.155 87.637 843.273 87.1377C843.392 86.6383 843.451 86.1009 843.451 85.5254ZM875.266 85.4492C875.266 86.4648 875.122 87.3958 874.834 88.2422C874.546 89.0801 874.132 89.7995 873.59 90.4004C873.048 91.0013 872.384 91.4668 871.597 91.7969C870.81 92.127 869.912 92.292 868.905 92.292C867.949 92.292 867.094 92.1523 866.341 91.873C865.588 91.5938 864.949 91.179 864.424 90.6289C863.899 90.0703 863.497 89.3763 863.218 88.5469C862.938 87.709 862.799 86.7357 862.799 85.627C862.799 84.6029 862.943 83.6719 863.23 82.834C863.527 81.9961 863.946 81.2809 864.487 80.6885C865.037 80.096 865.706 79.639 866.493 79.3174C867.28 78.9873 868.169 78.8223 869.159 78.8223C870.124 78.8223 870.983 78.9661 871.736 79.2539C872.49 79.5332 873.129 79.9521 873.653 80.5107C874.178 81.0693 874.576 81.7633 874.847 82.5928C875.126 83.4137 875.266 84.3659 875.266 85.4492ZM872.041 85.5254C872.041 84.1882 871.787 83.1852 871.279 82.5166C870.78 81.8395 870.039 81.501 869.058 81.501C868.516 81.501 868.055 81.6068 867.674 81.8184C867.293 82.0299 866.98 82.3219 866.734 82.6943C866.489 83.0583 866.307 83.4857 866.188 83.9766C866.078 84.4674 866.023 84.9922 866.023 85.5508C866.023 86.8965 866.294 87.9121 866.836 88.5977C867.378 89.2747 868.118 89.6133 869.058 89.6133C869.574 89.6133 870.022 89.5117 870.403 89.3086C870.784 89.097 871.093 88.8092 871.33 88.4453C871.567 88.0729 871.745 87.637 871.863 87.1377C871.982 86.6383 872.041 86.1009 872.041 85.5254ZM885.155 92H881.588L876.472 79.1016H879.925L882.604 86.4141L883.403 88.7754L884.19 86.5156L886.895 79.1016H890.221L885.155 92ZM903.475 84.5605C903.475 84.7721 903.466 85.0472 903.449 85.3857C903.441 85.7243 903.424 86.0417 903.398 86.3379H894.918C894.918 86.9049 895.003 87.4043 895.172 87.8359C895.35 88.2676 895.595 88.6315 895.908 88.9277C896.23 89.2155 896.611 89.4355 897.051 89.5879C897.499 89.7402 897.994 89.8164 898.536 89.8164C899.162 89.8164 899.831 89.7699 900.542 89.6768C901.261 89.5752 902.006 89.4144 902.776 89.1943V91.6572C902.446 91.7503 902.087 91.835 901.697 91.9111C901.308 91.9873 900.91 92.055 900.504 92.1143C900.098 92.1735 899.687 92.2158 899.272 92.2412C898.858 92.2751 898.456 92.292 898.066 92.292C897.085 92.292 896.204 92.1523 895.426 91.873C894.647 91.5938 893.987 91.1833 893.445 90.6416C892.904 90.0915 892.489 89.4144 892.201 88.6104C891.913 87.8063 891.77 86.8753 891.77 85.8174C891.77 84.7679 891.913 83.8158 892.201 82.9609C892.489 82.0977 892.895 81.3613 893.42 80.752C893.945 80.1341 894.579 79.6602 895.324 79.3301C896.077 78.9915 896.915 78.8223 897.838 78.8223C898.752 78.8223 899.56 78.9661 900.263 79.2539C900.965 79.5332 901.553 79.9268 902.027 80.4346C902.501 80.9424 902.861 81.5475 903.106 82.25C903.352 82.9525 903.475 83.7227 903.475 84.5605ZM900.326 84.1162C900.335 83.6084 900.271 83.1683 900.136 82.7959C900 82.415 899.814 82.1019 899.577 81.8564C899.349 81.611 899.078 81.429 898.765 81.3105C898.46 81.1921 898.13 81.1328 897.774 81.1328C896.996 81.1328 896.357 81.3952 895.857 81.9199C895.358 82.4362 895.062 83.1683 894.969 84.1162H900.326ZM914.837 84.1162C914.854 83.6338 914.828 83.2233 914.761 82.8848C914.701 82.5462 914.6 82.2669 914.456 82.0469C914.321 81.8268 914.151 81.666 913.948 81.5645C913.745 81.4629 913.512 81.4121 913.25 81.4121C912.793 81.4121 912.319 81.6025 911.828 81.9834C911.346 82.3558 910.812 82.9736 910.229 83.8369V92H907.055V79.1016H909.86L909.975 80.9805C910.186 80.6504 910.423 80.3542 910.686 80.0918C910.956 79.8294 911.253 79.6051 911.574 79.4189C911.904 79.2243 912.268 79.0762 912.666 78.9746C913.064 78.873 913.5 78.8223 913.974 78.8223C914.625 78.8223 915.201 78.9365 915.7 79.165C916.208 79.3851 916.631 79.7152 916.97 80.1553C917.317 80.5954 917.571 81.1497 917.731 81.8184C917.901 82.4785 917.973 83.2445 917.947 84.1162H914.837ZM932.407 76.6895C932.035 76.571 931.59 76.4736 931.074 76.3975C930.566 76.3128 930.046 76.2705 929.513 76.2705C929.149 76.2705 928.81 76.3213 928.497 76.4229C928.184 76.516 927.913 76.6683 927.685 76.8799C927.456 77.0915 927.274 77.3623 927.139 77.6924C927.012 78.014 926.948 78.4076 926.948 78.873V80.9551H932.014V83.3672H926.948V92H923.825V83.3672H920.08V80.9551H923.825V79C923.825 78.0859 923.956 77.3031 924.219 76.6514C924.49 75.9912 924.866 75.4538 925.349 75.0391C925.84 74.6159 926.428 74.307 927.113 74.1123C927.799 73.9176 928.565 73.8203 929.411 73.8203C929.97 73.8203 930.499 73.8584 930.998 73.9346C931.506 74.0023 931.976 74.0869 932.407 74.1885V76.6895ZM939.288 76.4736H935.645V74.0615H942.462V89.5879H946.182V92H935.2V89.5879H939.288V76.4736ZM961.035 85.4492C961.035 86.4648 960.891 87.3958 960.604 88.2422C960.316 89.0801 959.901 89.7995 959.359 90.4004C958.818 91.0013 958.153 91.4668 957.366 91.7969C956.579 92.127 955.682 92.292 954.675 92.292C953.718 92.292 952.864 92.1523 952.11 91.873C951.357 91.5938 950.718 91.179 950.193 90.6289C949.669 90.0703 949.267 89.3763 948.987 88.5469C948.708 87.709 948.568 86.7357 948.568 85.627C948.568 84.6029 948.712 83.6719 949 82.834C949.296 81.9961 949.715 81.2809 950.257 80.6885C950.807 80.096 951.476 79.639 952.263 79.3174C953.05 78.9873 953.938 78.8223 954.929 78.8223C955.894 78.8223 956.753 78.9661 957.506 79.2539C958.259 79.5332 958.898 79.9521 959.423 80.5107C959.948 81.0693 960.345 81.7633 960.616 82.5928C960.896 83.4137 961.035 84.3659 961.035 85.4492ZM957.811 85.5254C957.811 84.1882 957.557 83.1852 957.049 82.5166C956.549 81.8395 955.809 81.501 954.827 81.501C954.285 81.501 953.824 81.6068 953.443 81.8184C953.062 82.0299 952.749 82.3219 952.504 82.6943C952.258 83.0583 952.076 83.4857 951.958 83.9766C951.848 84.4674 951.793 84.9922 951.793 85.5508C951.793 86.8965 952.064 87.9121 952.605 88.5977C953.147 89.2747 953.888 89.6133 954.827 89.6133C955.343 89.6133 955.792 89.5117 956.173 89.3086C956.554 89.097 956.863 88.8092 957.1 88.4453C957.337 88.0729 957.514 87.637 957.633 87.1377C957.751 86.6383 957.811 86.1009 957.811 85.5254ZM974.302 92H970.861L969.49 87.9121L969.071 86.4902L968.652 87.9502L967.332 92H963.879L962.051 79.1016H964.996L965.923 86.3887L966.139 88.3818L966.659 86.5918L967.954 82.6689H970.315L971.699 86.5664L972.296 88.4072L972.537 86.3633L973.312 79.1016H976.117L974.302 92Z" fill="black"/>
</g>
<defs>
<clipPath id="clip0_6296_7629">
<rect width="977" height="98" fill="white"/>
</clipPath>
</defs>
</svg>
