<svg width="610" height="119" viewBox="0 0 610 119" fill="none" xmlns="http://www.w3.org/2000/svg">
<rect width="610" height="119" fill="white"/>
<rect x="374" y="1" width="113" height="28" rx="6" fill="#FFF4EF" stroke="#FF5500" stroke-width="2"/>
<rect x="496" y="1" width="113" height="28" rx="6" fill="#FFF4EF" stroke="#FF5500" stroke-width="2"/>
<path d="M520.355 84.293H522.626L522.729 86.666C523.158 86.1582 523.573 85.7383 523.974 85.4062C524.374 85.0645 524.765 84.791 525.146 84.5859C525.536 84.3809 525.932 84.2393 526.332 84.1611C526.732 84.0732 527.147 84.0293 527.577 84.0293C529.091 84.0293 530.233 84.4785 531.005 85.377C531.786 86.2656 532.177 87.6084 532.177 89.4053V99H529.628V89.6104C529.628 88.458 529.413 87.6084 528.983 87.0615C528.554 86.5049 527.914 86.2266 527.064 86.2266C526.752 86.2266 526.444 86.2754 526.142 86.373C525.849 86.4609 525.541 86.6221 525.219 86.8564C524.896 87.0811 524.545 87.3887 524.164 87.7793C523.793 88.1699 523.373 88.6582 522.904 89.2441V99H520.355V84.293ZM548.671 99H546.386L546.298 96.627C545.858 97.1348 545.438 97.5596 545.038 97.9014C544.647 98.2334 544.257 98.502 543.866 98.707C543.476 98.9121 543.08 99.0537 542.68 99.1318C542.289 99.2197 541.874 99.2637 541.435 99.2637C539.921 99.2637 538.778 98.8193 538.007 97.9307C537.235 97.042 536.85 95.6992 536.85 93.9023V84.293H539.398V93.6973C539.398 95.9531 540.248 97.0811 541.947 97.0811C542.26 97.0811 542.562 97.0371 542.855 96.9492C543.158 96.8516 543.471 96.6904 543.793 96.4658C544.125 96.2314 544.477 95.9189 544.848 95.5283C545.229 95.1377 545.653 94.6445 546.122 94.0488V84.293H548.671V99ZM558.354 80.3965H554.003V78.3018H560.932V96.876H565.312V99H553.52V96.876H558.354V80.3965ZM574.848 80.3965H570.497V78.3018H577.426V96.876H581.806V99H570.014V96.876H574.848V80.3965Z" fill="black"/>
<path d="M390.459 15.9219C390.459 16.7943 390.335 17.556 390.088 18.207C389.847 18.8581 389.512 19.3984 389.082 19.8281C388.652 20.2578 388.145 20.5801 387.559 20.7949C386.973 21.0098 386.338 21.1172 385.654 21.1172C385.342 21.1172 385.029 21.1009 384.717 21.0684C384.411 21.0358 384.098 20.9805 383.779 20.9023V25.0039H382.08V11.1953H383.594L383.701 12.8359C384.189 12.1654 384.71 11.6966 385.264 11.4297C385.817 11.1562 386.416 11.0195 387.061 11.0195C387.62 11.0195 388.112 11.1367 388.535 11.3711C388.958 11.6055 389.313 11.9375 389.6 12.3672C389.886 12.7904 390.101 13.3047 390.244 13.9102C390.387 14.5091 390.459 15.1797 390.459 15.9219ZM388.721 16C388.721 15.4857 388.682 15.0137 388.604 14.584C388.532 14.1543 388.415 13.7865 388.252 13.4805C388.089 13.1745 387.881 12.9368 387.627 12.7676C387.373 12.5918 387.07 12.5039 386.719 12.5039C386.504 12.5039 386.286 12.5397 386.064 12.6113C385.843 12.6764 385.612 12.7904 385.371 12.9531C385.137 13.1094 384.886 13.321 384.619 13.5879C384.359 13.8483 384.079 14.1738 383.779 14.5645V19.3203C384.092 19.4505 384.421 19.5547 384.766 19.6328C385.111 19.7044 385.449 19.7402 385.781 19.7402C386.699 19.7402 387.419 19.431 387.939 18.8125C388.46 18.1875 388.721 17.25 388.721 16ZM393.477 11.1953H395.029L395.078 13.002C395.658 12.3053 396.227 11.8008 396.787 11.4883C397.354 11.1758 397.923 11.0195 398.496 11.0195C399.512 11.0195 400.28 11.3483 400.801 12.0059C401.328 12.6634 401.572 13.64 401.533 14.9355H399.814C399.834 14.0762 399.707 13.4544 399.434 13.0703C399.167 12.6797 398.773 12.4844 398.252 12.4844C398.024 12.4844 397.793 12.5267 397.559 12.6113C397.331 12.6895 397.093 12.8197 396.846 13.002C396.605 13.1777 396.348 13.4056 396.074 13.6855C395.801 13.9655 395.508 14.304 395.195 14.7012V21H393.477V11.1953ZM412.354 15.5801C412.354 15.821 412.35 16.0228 412.344 16.1855C412.337 16.3483 412.327 16.5013 412.314 16.6445H405.43C405.43 17.6471 405.71 18.4186 406.27 18.959C406.829 19.4928 407.637 19.7598 408.691 19.7598C408.978 19.7598 409.264 19.75 409.551 19.7305C409.837 19.7044 410.114 19.6719 410.381 19.6328C410.648 19.5938 410.902 19.5514 411.143 19.5059C411.39 19.4538 411.618 19.3984 411.826 19.3398V20.7363C411.364 20.8665 410.84 20.9707 410.254 21.0488C409.674 21.1335 409.072 21.1758 408.447 21.1758C407.607 21.1758 406.885 21.0618 406.279 20.834C405.674 20.6061 405.176 20.2773 404.785 19.8477C404.401 19.4115 404.115 18.8809 403.926 18.2559C403.743 17.6243 403.652 16.9115 403.652 16.1172C403.652 15.4271 403.75 14.776 403.945 14.1641C404.147 13.5456 404.437 13.0052 404.814 12.543C405.199 12.0742 405.667 11.7031 406.221 11.4297C406.774 11.1562 407.402 11.0195 408.105 11.0195C408.789 11.0195 409.395 11.127 409.922 11.3418C410.449 11.5566 410.892 11.8626 411.25 12.2598C411.615 12.6504 411.888 13.1289 412.07 13.6953C412.259 14.2552 412.354 14.8835 412.354 15.5801ZM410.586 15.3359C410.605 14.8997 410.563 14.5026 410.459 14.1445C410.355 13.7799 410.192 13.4674 409.971 13.207C409.756 12.9466 409.486 12.7448 409.16 12.6016C408.835 12.4518 408.457 12.377 408.027 12.377C407.656 12.377 407.318 12.4486 407.012 12.5918C406.706 12.735 406.442 12.9368 406.221 13.1973C405.999 13.4577 405.82 13.7702 405.684 14.1348C405.547 14.4993 405.462 14.8997 405.43 15.3359H410.586ZM414.15 11.1953H416.084L418.486 17.6797L419.004 19.2617L419.541 17.6406L421.924 11.1953H423.789L419.941 21H417.988L414.15 11.1953ZM435.498 25.0039H424.502V23.5977H435.498V25.0039ZM437.061 11.1953H438.574L438.643 12.7773C438.929 12.4388 439.206 12.1589 439.473 11.9375C439.74 11.7096 440 11.5273 440.254 11.3906C440.514 11.2539 440.778 11.1595 441.045 11.1074C441.312 11.0488 441.589 11.0195 441.875 11.0195C442.884 11.0195 443.646 11.319 444.16 11.918C444.681 12.5104 444.941 13.4056 444.941 14.6035V21H443.242V14.7402C443.242 13.972 443.099 13.4056 442.812 13.041C442.526 12.6699 442.1 12.4844 441.533 12.4844C441.325 12.4844 441.12 12.5169 440.918 12.582C440.723 12.6406 440.518 12.748 440.303 12.9043C440.088 13.054 439.854 13.2591 439.6 13.5195C439.352 13.7799 439.072 14.1055 438.76 14.4961V21H437.061V11.1953ZM456.592 16.0195C456.592 16.7812 456.484 17.4811 456.27 18.1191C456.055 18.7507 455.745 19.2943 455.342 19.75C454.938 20.1992 454.447 20.5508 453.867 20.8047C453.288 21.0521 452.63 21.1758 451.895 21.1758C451.191 21.1758 450.56 21.0684 450 20.8535C449.447 20.6322 448.975 20.3099 448.584 19.8867C448.2 19.4635 447.904 18.9395 447.695 18.3145C447.493 17.6895 447.393 16.9701 447.393 16.1562C447.393 15.3945 447.5 14.7012 447.715 14.0762C447.93 13.4447 448.239 12.9043 448.643 12.4551C449.046 11.9993 449.538 11.6478 450.117 11.4004C450.697 11.1465 451.354 11.0195 452.09 11.0195C452.793 11.0195 453.421 11.1302 453.975 11.3516C454.535 11.5664 455.007 11.8854 455.391 12.3086C455.781 12.7253 456.077 13.2461 456.279 13.8711C456.488 14.4961 456.592 15.2122 456.592 16.0195ZM454.854 16.0977C454.854 15.4922 454.785 14.9648 454.648 14.5156C454.518 14.0599 454.329 13.6823 454.082 13.3828C453.835 13.0768 453.532 12.849 453.174 12.6992C452.822 12.543 452.428 12.4648 451.992 12.4648C451.484 12.4648 451.048 12.5658 450.684 12.7676C450.326 12.9629 450.029 13.2266 449.795 13.5586C449.567 13.8906 449.398 14.278 449.287 14.7207C449.183 15.1569 449.131 15.6159 449.131 16.0977C449.131 16.7031 449.196 17.2337 449.326 17.6895C449.463 18.1452 449.655 18.526 449.902 18.832C450.15 19.1315 450.449 19.3594 450.801 19.5156C451.152 19.6654 451.549 19.7402 451.992 19.7402C452.5 19.7402 452.933 19.6426 453.291 19.4473C453.656 19.2454 453.952 18.9785 454.18 18.6465C454.414 18.3145 454.583 17.9303 454.688 17.4941C454.798 17.0514 454.854 16.5859 454.854 16.0977ZM458.555 16.3027C458.555 15.4694 458.669 14.7305 458.896 14.0859C459.124 13.4349 459.447 12.888 459.863 12.4453C460.286 11.9961 460.791 11.6576 461.377 11.4297C461.969 11.1953 462.627 11.0781 463.35 11.0781C463.662 11.0781 463.968 11.0977 464.268 11.1367C464.574 11.1758 464.873 11.2376 465.166 11.3223V7.20117H466.875V21H465.352L465.293 19.1445C464.818 19.8346 464.303 20.3457 463.75 20.6777C463.197 21.0098 462.598 21.1758 461.953 21.1758C461.393 21.1758 460.898 21.0586 460.469 20.8242C460.046 20.5898 459.691 20.2611 459.404 19.8379C459.124 19.4082 458.913 18.8939 458.77 18.2949C458.626 17.696 458.555 17.0319 458.555 16.3027ZM460.293 16.1953C460.293 17.3802 460.465 18.2656 460.811 18.8516C461.162 19.431 461.657 19.7207 462.295 19.7207C462.725 19.7207 463.177 19.5286 463.652 19.1445C464.134 18.7604 464.639 18.1908 465.166 17.4355V12.8848C464.886 12.7546 464.577 12.6569 464.238 12.5918C463.9 12.5202 463.564 12.4844 463.232 12.4844C462.308 12.4844 461.585 12.7839 461.064 13.3828C460.55 13.9818 460.293 14.9193 460.293 16.1953ZM478.33 15.5801C478.33 15.821 478.327 16.0228 478.32 16.1855C478.314 16.3483 478.304 16.5013 478.291 16.6445H471.406C471.406 17.6471 471.686 18.4186 472.246 18.959C472.806 19.4928 473.613 19.7598 474.668 19.7598C474.954 19.7598 475.241 19.75 475.527 19.7305C475.814 19.7044 476.09 19.6719 476.357 19.6328C476.624 19.5938 476.878 19.5514 477.119 19.5059C477.367 19.4538 477.594 19.3984 477.803 19.3398V20.7363C477.34 20.8665 476.816 20.9707 476.23 21.0488C475.651 21.1335 475.049 21.1758 474.424 21.1758C473.584 21.1758 472.861 21.0618 472.256 20.834C471.65 20.6061 471.152 20.2773 470.762 19.8477C470.378 19.4115 470.091 18.8809 469.902 18.2559C469.72 17.6243 469.629 16.9115 469.629 16.1172C469.629 15.4271 469.727 14.776 469.922 14.1641C470.124 13.5456 470.413 13.0052 470.791 12.543C471.175 12.0742 471.644 11.7031 472.197 11.4297C472.751 11.1562 473.379 11.0195 474.082 11.0195C474.766 11.0195 475.371 11.127 475.898 11.3418C476.426 11.5566 476.868 11.8626 477.227 12.2598C477.591 12.6504 477.865 13.1289 478.047 13.6953C478.236 14.2552 478.33 14.8835 478.33 15.5801ZM476.562 15.3359C476.582 14.8997 476.54 14.5026 476.436 14.1445C476.331 13.7799 476.169 13.4674 475.947 13.207C475.732 12.9466 475.462 12.7448 475.137 12.6016C474.811 12.4518 474.434 12.377 474.004 12.377C473.633 12.377 473.294 12.4486 472.988 12.5918C472.682 12.735 472.419 12.9368 472.197 13.1973C471.976 13.4577 471.797 13.7702 471.66 14.1348C471.523 14.4993 471.439 14.8997 471.406 15.3359H476.562Z" fill="#FF5500"/>
<path d="M429.293 57.7071C429.683 58.0976 430.317 58.0976 430.707 57.7071L437.071 51.3431C437.462 50.9526 437.462 50.3195 437.071 49.9289C436.681 49.5384 436.047 49.5384 435.657 49.9289L430 55.5858L424.343 49.9289C423.953 49.5384 423.319 49.5384 422.929 49.9289C422.538 50.3195 422.538 50.9526 422.929 51.3431L429.293 57.7071ZM429 30L429 57L431 57L431 30L429 30Z" fill="#FF5500"/>
<path d="M511.697 20.6387C511.255 20.8079 510.799 20.9316 510.33 21.0098C509.868 21.0944 509.389 21.1367 508.895 21.1367C507.345 21.1367 506.15 20.7168 505.311 19.877C504.477 19.0371 504.061 17.8099 504.061 16.1953C504.061 15.4206 504.181 14.7174 504.422 14.0859C504.663 13.4544 505.001 12.9141 505.438 12.4648C505.874 12.0156 506.395 11.6706 507 11.4297C507.605 11.1823 508.273 11.0586 509.002 11.0586C509.51 11.0586 509.985 11.0944 510.428 11.166C510.87 11.2376 511.294 11.3548 511.697 11.5176V13.1387C511.274 12.9173 510.841 12.7578 510.398 12.6602C509.962 12.556 509.51 12.5039 509.041 12.5039C508.605 12.5039 508.191 12.5885 507.801 12.7578C507.417 12.9206 507.078 13.1582 506.785 13.4707C506.492 13.7832 506.261 14.1641 506.092 14.6133C505.923 15.0625 505.838 15.5703 505.838 16.1367C505.838 17.3216 506.124 18.2103 506.697 18.8027C507.277 19.3887 508.077 19.6816 509.1 19.6816C509.562 19.6816 510.008 19.6296 510.438 19.5254C510.874 19.4212 511.294 19.265 511.697 19.0566V20.6387ZM522.957 21H521.434L521.375 19.418C521.082 19.7565 520.802 20.0397 520.535 20.2676C520.275 20.4889 520.014 20.668 519.754 20.8047C519.493 20.9414 519.23 21.0358 518.963 21.0879C518.702 21.1465 518.426 21.1758 518.133 21.1758C517.124 21.1758 516.362 20.8796 515.848 20.2871C515.333 19.6947 515.076 18.7995 515.076 17.6016V11.1953H516.775V17.4648C516.775 18.9688 517.342 19.7207 518.475 19.7207C518.683 19.7207 518.885 19.6914 519.08 19.6328C519.282 19.5677 519.49 19.4603 519.705 19.3105C519.926 19.1543 520.161 18.946 520.408 18.6855C520.662 18.4251 520.945 18.0964 521.258 17.6992V11.1953H522.957V21ZM526.473 11.1953H528.025L528.074 13.002C528.654 12.3053 529.223 11.8008 529.783 11.4883C530.35 11.1758 530.919 11.0195 531.492 11.0195C532.508 11.0195 533.276 11.3483 533.797 12.0059C534.324 12.6634 534.568 13.64 534.529 14.9355H532.811C532.83 14.0762 532.703 13.4544 532.43 13.0703C532.163 12.6797 531.769 12.4844 531.248 12.4844C531.02 12.4844 530.789 12.5267 530.555 12.6113C530.327 12.6895 530.089 12.8197 529.842 13.002C529.601 13.1777 529.344 13.4056 529.07 13.6855C528.797 13.9655 528.504 14.304 528.191 14.7012V21H526.473V11.1953ZM537.469 11.1953H539.021L539.07 13.002C539.65 12.3053 540.219 11.8008 540.779 11.4883C541.346 11.1758 541.915 11.0195 542.488 11.0195C543.504 11.0195 544.272 11.3483 544.793 12.0059C545.32 12.6634 545.564 13.64 545.525 14.9355H543.807C543.826 14.0762 543.699 13.4544 543.426 13.0703C543.159 12.6797 542.765 12.4844 542.244 12.4844C542.016 12.4844 541.785 12.5267 541.551 12.6113C541.323 12.6895 541.085 12.8197 540.838 13.002C540.597 13.1777 540.34 13.4056 540.066 13.6855C539.793 13.9655 539.5 14.304 539.188 14.7012V21H537.469V11.1953ZM557.498 25.0039H546.502V23.5977H557.498V25.0039ZM559.061 11.1953H560.574L560.643 12.7773C560.929 12.4388 561.206 12.1589 561.473 11.9375C561.74 11.7096 562 11.5273 562.254 11.3906C562.514 11.2539 562.778 11.1595 563.045 11.1074C563.312 11.0488 563.589 11.0195 563.875 11.0195C564.884 11.0195 565.646 11.319 566.16 11.918C566.681 12.5104 566.941 13.4056 566.941 14.6035V21H565.242V14.7402C565.242 13.972 565.099 13.4056 564.812 13.041C564.526 12.6699 564.1 12.4844 563.533 12.4844C563.325 12.4844 563.12 12.5169 562.918 12.582C562.723 12.6406 562.518 12.748 562.303 12.9043C562.088 13.054 561.854 13.2591 561.6 13.5195C561.352 13.7799 561.072 14.1055 560.76 14.4961V21H559.061V11.1953ZM578.592 16.0195C578.592 16.7812 578.484 17.4811 578.27 18.1191C578.055 18.7507 577.745 19.2943 577.342 19.75C576.938 20.1992 576.447 20.5508 575.867 20.8047C575.288 21.0521 574.63 21.1758 573.895 21.1758C573.191 21.1758 572.56 21.0684 572 20.8535C571.447 20.6322 570.975 20.3099 570.584 19.8867C570.2 19.4635 569.904 18.9395 569.695 18.3145C569.493 17.6895 569.393 16.9701 569.393 16.1562C569.393 15.3945 569.5 14.7012 569.715 14.0762C569.93 13.4447 570.239 12.9043 570.643 12.4551C571.046 11.9993 571.538 11.6478 572.117 11.4004C572.697 11.1465 573.354 11.0195 574.09 11.0195C574.793 11.0195 575.421 11.1302 575.975 11.3516C576.535 11.5664 577.007 11.8854 577.391 12.3086C577.781 12.7253 578.077 13.2461 578.279 13.8711C578.488 14.4961 578.592 15.2122 578.592 16.0195ZM576.854 16.0977C576.854 15.4922 576.785 14.9648 576.648 14.5156C576.518 14.0599 576.329 13.6823 576.082 13.3828C575.835 13.0768 575.532 12.849 575.174 12.6992C574.822 12.543 574.428 12.4648 573.992 12.4648C573.484 12.4648 573.048 12.5658 572.684 12.7676C572.326 12.9629 572.029 13.2266 571.795 13.5586C571.567 13.8906 571.398 14.278 571.287 14.7207C571.183 15.1569 571.131 15.6159 571.131 16.0977C571.131 16.7031 571.196 17.2337 571.326 17.6895C571.463 18.1452 571.655 18.526 571.902 18.832C572.15 19.1315 572.449 19.3594 572.801 19.5156C573.152 19.6654 573.549 19.7402 573.992 19.7402C574.5 19.7402 574.933 19.6426 575.291 19.4473C575.656 19.2454 575.952 18.9785 576.18 18.6465C576.414 18.3145 576.583 17.9303 576.688 17.4941C576.798 17.0514 576.854 16.5859 576.854 16.0977ZM580.555 16.3027C580.555 15.4694 580.669 14.7305 580.896 14.0859C581.124 13.4349 581.447 12.888 581.863 12.4453C582.286 11.9961 582.791 11.6576 583.377 11.4297C583.969 11.1953 584.627 11.0781 585.35 11.0781C585.662 11.0781 585.968 11.0977 586.268 11.1367C586.574 11.1758 586.873 11.2376 587.166 11.3223V7.20117H588.875V21H587.352L587.293 19.1445C586.818 19.8346 586.303 20.3457 585.75 20.6777C585.197 21.0098 584.598 21.1758 583.953 21.1758C583.393 21.1758 582.898 21.0586 582.469 20.8242C582.046 20.5898 581.691 20.2611 581.404 19.8379C581.124 19.4082 580.913 18.8939 580.77 18.2949C580.626 17.696 580.555 17.0319 580.555 16.3027ZM582.293 16.1953C582.293 17.3802 582.465 18.2656 582.811 18.8516C583.162 19.431 583.657 19.7207 584.295 19.7207C584.725 19.7207 585.177 19.5286 585.652 19.1445C586.134 18.7604 586.639 18.1908 587.166 17.4355V12.8848C586.886 12.7546 586.577 12.6569 586.238 12.5918C585.9 12.5202 585.564 12.4844 585.232 12.4844C584.308 12.4844 583.585 12.7839 583.064 13.3828C582.55 13.9818 582.293 14.9193 582.293 16.1953ZM600.33 15.5801C600.33 15.821 600.327 16.0228 600.32 16.1855C600.314 16.3483 600.304 16.5013 600.291 16.6445H593.406C593.406 17.6471 593.686 18.4186 594.246 18.959C594.806 19.4928 595.613 19.7598 596.668 19.7598C596.954 19.7598 597.241 19.75 597.527 19.7305C597.814 19.7044 598.09 19.6719 598.357 19.6328C598.624 19.5938 598.878 19.5514 599.119 19.5059C599.367 19.4538 599.594 19.3984 599.803 19.3398V20.7363C599.34 20.8665 598.816 20.9707 598.23 21.0488C597.651 21.1335 597.049 21.1758 596.424 21.1758C595.584 21.1758 594.861 21.0618 594.256 20.834C593.65 20.6061 593.152 20.2773 592.762 19.8477C592.378 19.4115 592.091 18.8809 591.902 18.2559C591.72 17.6243 591.629 16.9115 591.629 16.1172C591.629 15.4271 591.727 14.776 591.922 14.1641C592.124 13.5456 592.413 13.0052 592.791 12.543C593.175 12.0742 593.644 11.7031 594.197 11.4297C594.751 11.1562 595.379 11.0195 596.082 11.0195C596.766 11.0195 597.371 11.127 597.898 11.3418C598.426 11.5566 598.868 11.8626 599.227 12.2598C599.591 12.6504 599.865 13.1289 600.047 13.6953C600.236 14.2552 600.33 14.8835 600.33 15.5801ZM598.562 15.3359C598.582 14.8997 598.54 14.5026 598.436 14.1445C598.331 13.7799 598.169 13.4674 597.947 13.207C597.732 12.9466 597.462 12.7448 597.137 12.6016C596.811 12.4518 596.434 12.377 596.004 12.377C595.633 12.377 595.294 12.4486 594.988 12.5918C594.682 12.735 594.419 12.9368 594.197 13.1973C593.976 13.4577 593.797 13.7702 593.66 14.1348C593.523 14.4993 593.439 14.8997 593.406 15.3359H598.562Z" fill="#FF5500"/>
<path d="M551.293 57.7071C551.683 58.0976 552.317 58.0976 552.707 57.7071L559.071 51.3431C559.462 50.9526 559.462 50.3195 559.071 49.9289C558.681 49.5384 558.047 49.5384 557.657 49.9289L552 55.5858L546.343 49.9289C545.953 49.5384 545.319 49.5384 544.929 49.9289C544.538 50.3195 544.538 50.9526 544.929 51.3431L551.293 57.7071ZM551 30L551 57L553 57L553 30L551 30Z" fill="#FF5500"/>
<path d="M25.3555 79.293H27.626L27.7285 81.666C28.1582 81.1582 28.5732 80.7383 28.9736 80.4062C29.374 80.0645 29.7646 79.791 30.1455 79.5859C30.5361 79.3809 30.9316 79.2393 31.332 79.1611C31.7324 79.0732 32.1475 79.0293 32.5771 79.0293C34.0908 79.0293 35.2334 79.4785 36.0049 80.377C36.7861 81.2656 37.1768 82.6084 37.1768 84.4053V94H34.6279V84.6104C34.6279 83.458 34.4131 82.6084 33.9834 82.0615C33.5537 81.5049 32.9141 81.2266 32.0645 81.2266C31.752 81.2266 31.4443 81.2754 31.1416 81.373C30.8486 81.4609 30.541 81.6221 30.2188 81.8564C29.8965 82.0811 29.5449 82.3887 29.1641 82.7793C28.793 83.1699 28.373 83.6582 27.9043 84.2441V94H25.3555V79.293ZM53.6709 94H51.3857L51.2979 91.627C50.8584 92.1348 50.4385 92.5596 50.0381 92.9014C49.6475 93.2334 49.2568 93.502 48.8662 93.707C48.4756 93.9121 48.0801 94.0537 47.6797 94.1318C47.2891 94.2197 46.874 94.2637 46.4346 94.2637C44.9209 94.2637 43.7783 93.8193 43.0068 92.9307C42.2354 92.042 41.8496 90.6992 41.8496 88.9023V79.293H44.3984V88.6973C44.3984 90.9531 45.248 92.0811 46.9473 92.0811C47.2598 92.0811 47.5625 92.0371 47.8555 91.9492C48.1582 91.8516 48.4707 91.6904 48.793 91.4658C49.125 91.2314 49.4766 90.9189 49.8477 90.5283C50.2285 90.1377 50.6533 89.6445 51.1221 89.0488V79.293H53.6709V94ZM63.3535 75.3965H59.0029V73.3018H65.9316V91.876H70.3115V94H58.5195V91.876H63.3535V75.3965ZM79.8477 75.3965H75.4971V73.3018H82.4258V91.876H86.8057V94H75.0137V91.876H79.8477V75.3965Z" fill="black"/>
<circle cx="185" cy="84" r="23.75" stroke="black" stroke-width="2.5"/>
<path d="M191.857 94H179.831V91.627H184.753V77.6523L180.168 80.1426L179.23 77.9746L185.324 74.7666H187.58V91.627H191.857V94Z" fill="black"/>
<circle cx="307" cy="84" r="23.75" stroke="black" stroke-width="2.5"/>
<path d="M314.019 94H301.406V91.7148L306.357 86.793C307.168 85.9922 307.827 85.2988 308.335 84.7129C308.843 84.127 309.238 83.5947 309.521 83.1162C309.805 82.6279 309.995 82.1689 310.093 81.7393C310.19 81.3096 310.239 80.8457 310.239 80.3477C310.239 79.8789 310.176 79.4346 310.049 79.0146C309.922 78.585 309.727 78.209 309.463 77.8867C309.199 77.5645 308.857 77.3105 308.438 77.125C308.018 76.9395 307.515 76.8467 306.929 76.8467C306.118 76.8467 305.381 77.0273 304.717 77.3887C304.053 77.75 303.442 78.2188 302.886 78.7949L301.479 77.1104C302.202 76.3486 303.032 75.7383 303.97 75.2793C304.917 74.8203 306.016 74.5908 307.266 74.5908C308.115 74.5908 308.887 74.7178 309.58 74.9717C310.283 75.2256 310.889 75.5918 311.396 76.0703C311.904 76.5488 312.295 77.1348 312.568 77.8281C312.852 78.5215 312.993 79.3027 312.993 80.1719C312.993 80.9043 312.896 81.583 312.7 82.208C312.505 82.833 312.207 83.458 311.807 84.083C311.416 84.6982 310.918 85.3379 310.312 86.002C309.717 86.666 309.009 87.3936 308.188 88.1846L304.717 91.5684H314.019V94Z" fill="black"/>
<circle cx="430" cy="84" r="23.75" stroke="black" stroke-width="2.5"/>
<path d="M436.652 88.1846C436.652 89.0244 436.481 89.8154 436.14 90.5576C435.798 91.29 435.285 91.9346 434.602 92.4912C433.918 93.0381 433.059 93.4727 432.023 93.7949C430.988 94.1074 429.782 94.2637 428.405 94.2637C427.644 94.2637 426.96 94.2393 426.354 94.1904C425.749 94.1416 425.183 94.0781 424.655 94V91.7148C425.261 91.8223 425.9 91.9053 426.574 91.9639C427.248 92.0225 427.937 92.0518 428.64 92.0518C429.597 92.0518 430.412 91.9688 431.086 91.8027C431.77 91.627 432.326 91.3779 432.756 91.0557C433.186 90.7334 433.498 90.3428 433.693 89.8838C433.889 89.4248 433.986 88.9072 433.986 88.3311C433.986 87.8037 433.869 87.3447 433.635 86.9541C433.4 86.5635 433.068 86.2363 432.639 85.9727C432.219 85.709 431.711 85.5137 431.115 85.3867C430.529 85.25 429.885 85.1816 429.182 85.1816H426.999V83.0869H429.211C429.787 83.0869 430.31 83.0137 430.778 82.8672C431.257 82.7109 431.662 82.4912 431.994 82.208C432.336 81.9248 432.595 81.5781 432.771 81.168C432.956 80.748 433.049 80.2744 433.049 79.7471C433.049 78.7217 432.736 77.9746 432.111 77.5059C431.486 77.0371 430.568 76.8027 429.357 76.8027C428.713 76.8027 428.049 76.8662 427.365 76.9932C426.682 77.1201 425.949 77.3105 425.168 77.5645V75.3379C425.5 75.2207 425.852 75.1182 426.223 75.0303C426.604 74.9326 426.979 74.8545 427.351 74.7959C427.731 74.7275 428.107 74.6787 428.479 74.6494C428.85 74.6104 429.206 74.5908 429.548 74.5908C430.563 74.5908 431.457 74.7031 432.229 74.9277C433 75.1426 433.645 75.4551 434.162 75.8652C434.68 76.2754 435.07 76.7734 435.334 77.3594C435.598 77.9453 435.729 78.6045 435.729 79.3369C435.729 80.4307 435.446 81.3486 434.88 82.0908C434.323 82.833 433.557 83.4238 432.58 83.8633C433.078 83.9414 433.566 84.0977 434.045 84.332C434.533 84.5664 434.968 84.8691 435.349 85.2402C435.739 85.6016 436.052 86.0312 436.286 86.5293C436.53 87.0273 436.652 87.5791 436.652 88.1846Z" fill="black"/>
<path d="M90.1161 82.1161C89.628 82.6043 89.628 83.3957 90.1161 83.8839L98.0711 91.8388C98.5592 92.327 99.3507 92.327 99.8388 91.8388C100.327 91.3507 100.327 90.5592 99.8388 90.0711L92.7678 83L99.8388 75.9289C100.327 75.4408 100.327 74.6493 99.8388 74.1612C99.3507 73.673 98.5592 73.673 98.0711 74.1612L90.1161 82.1161ZM160 81.75L91 81.75V84.25L160 84.25V81.75Z" fill="black"/>
<path d="M211.116 83.8839C210.628 83.3957 210.628 82.6043 211.116 82.1161L219.071 74.1612C219.559 73.673 220.351 73.673 220.839 74.1612C221.327 74.6493 221.327 75.4408 220.839 75.9289L213.768 83L220.839 90.0711C221.327 90.5592 221.327 91.3507 220.839 91.8388C220.351 92.327 219.559 92.327 219.071 91.8388L211.116 83.8839ZM282 84.25H212V81.75H282V84.25Z" fill="black"/>
<path d="M335.116 82.1161C334.628 82.6043 334.628 83.3957 335.116 83.8839L343.071 91.8388C343.559 92.327 344.351 92.327 344.839 91.8388C345.327 91.3507 345.327 90.5592 344.839 90.0711L337.768 83L344.839 75.9289C345.327 75.4408 345.327 74.6493 344.839 74.1612C344.351 73.673 343.559 73.673 343.071 74.1612L335.116 82.1161ZM403 81.75L336 81.75V84.25L403 84.25V81.75Z" fill="black"/>
<path d="M534.183 61.2366C534.866 61.1357 535.337 60.5002 535.237 59.8173L533.592 48.6881C533.491 48.0052 532.856 47.5333 532.173 47.6342C531.49 47.7351 531.018 48.3706 531.119 49.0535L532.581 58.9461L522.688 60.4077C522.005 60.5086 521.533 61.144 521.634 61.8269C521.735 62.5099 522.371 62.9817 523.053 62.8808L534.183 61.2366ZM449.589 58.2728C450.164 57.8911 450.321 57.1153 449.939 56.5401C449.557 55.9649 448.781 55.808 448.206 56.1898L449.589 58.2728ZM456.625 51.3511C456.006 51.6557 455.75 52.4048 456.055 53.0244C456.36 53.6439 457.109 53.8992 457.728 53.5946L456.625 51.3511ZM466.403 50.012C467.057 49.7908 467.408 49.0813 467.187 48.4274C466.966 47.7734 466.256 47.4226 465.602 47.6437L466.403 50.012ZM474.99 45.1431C474.312 45.2765 473.871 45.9338 474.005 46.6111C474.138 47.2884 474.796 47.7293 475.473 47.5959L474.99 45.1431ZM484.781 46.3915C485.47 46.3481 485.993 45.7544 485.95 45.0654C485.906 44.3764 485.313 43.853 484.624 43.8964L484.781 46.3915ZM494.337 43.9224C493.649 43.8754 493.052 44.3956 493.005 45.0844C492.958 45.7731 493.478 46.3696 494.167 46.4166L494.337 43.9224ZM503.472 47.6641C504.149 47.8001 504.808 47.3616 504.944 46.6848C505.08 46.008 504.641 45.3491 503.964 45.2131L503.472 47.6641ZM513.342 47.7351C512.688 47.5134 511.978 47.8637 511.756 48.5174C511.535 49.1712 511.885 49.881 512.539 50.1027L513.342 47.7351ZM521.223 53.678C521.843 53.9806 522.592 53.7229 522.894 53.1025C523.197 52.482 522.939 51.7336 522.319 51.431L521.223 53.678ZM530.76 56.2204C530.181 55.8433 529.407 56.0063 529.03 56.5846C528.653 57.1628 528.816 57.9373 529.394 58.3144L530.76 56.2204ZM445.756 60.9956C447.013 60.0416 448.291 59.134 449.589 58.2728L448.206 56.1898C446.864 57.0802 445.543 58.0184 444.244 59.0043L445.756 60.9956ZM457.728 53.5946C460.56 52.2024 463.458 51.0082 466.403 50.012L465.602 47.6437C462.554 48.6748 459.555 49.9107 456.625 51.3511L457.728 53.5946ZM475.473 47.5959C478.551 46.9896 481.66 46.5881 484.781 46.3915L484.624 43.8964C481.393 44.0999 478.175 44.5155 474.99 45.1431L475.473 47.5959ZM494.167 46.4166C497.282 46.6291 500.389 47.0449 503.472 47.6641L503.964 45.2131C500.776 44.5726 497.56 44.1423 494.337 43.9224L494.167 46.4166ZM512.539 50.1027C515.481 51.1005 518.381 52.2922 521.223 53.678L522.319 51.431C519.382 49.9989 516.384 48.7669 513.342 47.7351L512.539 50.1027ZM529.394 58.3144C530.699 59.1657 531.987 60.062 533.255 61.0036L534.745 58.9964C533.437 58.0247 532.107 57.0994 530.76 56.2204L529.394 58.3144Z" fill="#FF5500"/>
<path d="M413.183 61.2366C413.866 61.1357 414.337 60.5002 414.237 59.8173L412.592 48.6881C412.491 48.0052 411.856 47.5333 411.173 47.6342C410.49 47.7351 410.018 48.3706 410.119 49.0535L411.581 58.9461L401.688 60.4077C401.005 60.5086 400.533 61.144 400.634 61.8269C400.735 62.5099 401.371 62.9817 402.053 62.8808L413.183 61.2366ZM328.589 58.2728C329.164 57.8911 329.321 57.1153 328.939 56.5401C328.557 55.9649 327.781 55.808 327.206 56.1898L328.589 58.2728ZM335.625 51.3511C335.006 51.6557 334.75 52.4048 335.055 53.0244C335.36 53.6439 336.109 53.8992 336.728 53.5946L335.625 51.3511ZM345.403 50.012C346.057 49.7908 346.408 49.0813 346.187 48.4274C345.966 47.7734 345.256 47.4226 344.602 47.6437L345.403 50.012ZM353.99 45.1431C353.312 45.2765 352.871 45.9338 353.005 46.6111C353.138 47.2884 353.796 47.7293 354.473 47.5959L353.99 45.1431ZM363.781 46.3915C364.47 46.3481 364.993 45.7544 364.95 45.0654C364.906 44.3764 364.313 43.853 363.624 43.8964L363.781 46.3915ZM373.337 43.9224C372.649 43.8754 372.052 44.3956 372.005 45.0844C371.958 45.7731 372.478 46.3696 373.167 46.4166L373.337 43.9224ZM382.472 47.6641C383.149 47.8001 383.808 47.3616 383.944 46.6848C384.08 46.008 383.641 45.3491 382.964 45.2131L382.472 47.6641ZM392.342 47.7351C391.688 47.5134 390.978 47.8637 390.756 48.5174C390.535 49.1712 390.885 49.881 391.539 50.1027L392.342 47.7351ZM400.223 53.678C400.843 53.9806 401.592 53.7229 401.894 53.1025C402.197 52.482 401.939 51.7336 401.319 51.431L400.223 53.678ZM409.76 56.2204C409.181 55.8433 408.407 56.0063 408.03 56.5846C407.653 57.1628 407.816 57.9373 408.394 58.3144L409.76 56.2204ZM324.756 60.9956C326.013 60.0416 327.291 59.134 328.589 58.2728L327.206 56.1898C325.864 57.0802 324.543 58.0184 323.244 59.0043L324.756 60.9956ZM336.728 53.5946C339.56 52.2024 342.458 51.0082 345.403 50.012L344.602 47.6437C341.554 48.6748 338.555 49.9107 335.625 51.3511L336.728 53.5946ZM354.473 47.5959C357.551 46.9896 360.66 46.5881 363.781 46.3915L363.624 43.8964C360.393 44.0999 357.175 44.5155 353.99 45.1431L354.473 47.5959ZM373.167 46.4166C376.282 46.6291 379.389 47.0449 382.472 47.6641L382.964 45.2131C379.776 44.5726 376.56 44.1423 373.337 43.9224L373.167 46.4166ZM391.539 50.1027C394.481 51.1005 397.381 52.2922 400.223 53.678L401.319 51.431C398.382 49.9989 395.384 48.7669 392.342 47.7351L391.539 50.1027ZM408.394 58.3144C409.699 59.1657 410.987 60.062 412.255 61.0036L413.745 58.9964C412.437 58.0247 411.107 57.0994 409.76 56.2204L408.394 58.3144Z" fill="#FF5500"/>
</svg>
