<svg width="945" height="568" viewBox="0 0 945 568" fill="none" xmlns="http://www.w3.org/2000/svg">
<g clip-path="url(#clip0_6290_711)">
<rect width="945" height="568" fill="white"/>
<path d="M752.015 453L710.276 540" stroke="black" stroke-width="2.5"/>
<path d="M114 193L27 280" stroke="black" stroke-width="2.5"/>
<path d="M27.2759 280L69.0145 367" stroke="black" stroke-width="2.5"/>
<path d="M201.015 280L159.276 367" stroke="black" stroke-width="2.5"/>
<path d="M118.276 453L160.014 540" stroke="black" stroke-width="2.5"/>
<path d="M159.276 367L201.014 454" stroke="black" stroke-width="2.5"/>
<path d="M159.015 367L117.276 454" stroke="black" stroke-width="2.5"/>
<path d="M114.079 193.079L201.5 280.5" stroke="black" stroke-width="2.5"/>
<path d="M114 120C113.448 120 113 119.552 113 119L113 110C113 109.448 113.448 109 114 109C114.552 109 115 109.448 115 110L115 118L123 118C123.552 118 124 118.448 124 119C124 119.552 123.552 120 123 120L114 120ZM427.707 40.2071C380.872 87.0421 321.447 87.624 264.476 86.2497C235.936 85.5613 208.041 84.3799 182.459 88.1611C156.91 91.9374 133.76 100.654 114.707 119.707L113.293 118.293C132.74 98.8459 156.34 90.0001 182.166 86.1826C207.959 82.3701 236.064 83.5637 264.524 84.2503C321.553 85.626 380.128 84.9579 426.293 38.7929L427.707 40.2071Z" fill="#666666"/>
<path d="M746.5 120C747.052 120 747.5 119.552 747.5 119L747.5 110C747.5 109.448 747.052 109 746.5 109C745.948 109 745.5 109.448 745.5 110L745.5 118L737.5 118C736.948 118 736.5 118.448 736.5 119C736.5 119.552 736.948 120 737.5 120L746.5 120ZM425.293 40.2071C472.131 87.045 533.439 87.6238 592.273 86.2497C621.75 85.5613 650.585 84.3796 676.873 88.1617C703.131 91.9394 726.745 100.659 745.793 119.707L747.207 118.293C727.755 98.8411 703.682 89.9981 677.158 86.1821C650.665 82.3704 621.625 83.5637 592.227 84.2503C533.311 85.6262 472.869 84.955 426.707 38.7929L425.293 40.2071Z" fill="#666666"/>
<path d="M427.506 119.862C427.03 120.142 426.417 119.982 426.137 119.506L421.583 111.744C421.303 111.267 421.463 110.654 421.939 110.375C422.415 110.095 423.028 110.255 423.308 110.731L427.356 117.631L434.256 113.583C434.732 113.303 435.345 113.463 435.625 113.939C435.904 114.415 435.745 115.028 435.268 115.308L427.506 119.862ZM427.963 39.7695C424.478 52.2154 423.538 60.3169 423.85 66.2127C424.161 72.0769 425.711 75.8189 427.355 79.6015C429.011 83.4143 430.777 87.297 431.301 93.2721C431.822 99.2252 431.108 107.192 427.968 119.252L426.032 118.748C429.142 106.808 429.803 99.0872 429.308 93.4466C428.816 87.8279 427.177 84.2107 425.52 80.3984C423.851 76.5561 422.183 72.548 421.853 66.3185C421.525 60.1204 422.522 51.7844 426.037 39.2302L427.963 39.7695Z" fill="#666666"/>
<circle cx="113" cy="193" r="23.75" fill="white" stroke="black" stroke-width="2.5"/>
<path d="M119.535 196.877C119.535 197.824 119.33 198.688 118.92 199.47C118.51 200.251 117.943 200.925 117.221 201.491C116.508 202.048 115.663 202.482 114.687 202.795C113.71 203.107 112.655 203.264 111.522 203.264C111.239 203.264 110.932 203.254 110.6 203.234C110.277 203.225 109.955 203.205 109.633 203.176C109.311 203.156 108.993 203.132 108.681 203.103C108.378 203.073 108.104 203.039 107.86 203V200.686C108.388 200.812 108.988 200.905 109.662 200.964C110.346 201.022 111.034 201.052 111.728 201.052C112.509 201.052 113.212 200.959 113.837 200.773C114.462 200.588 114.994 200.324 115.434 199.982C115.873 199.631 116.21 199.211 116.444 198.723C116.679 198.225 116.796 197.668 116.796 197.053C116.796 195.861 116.366 194.997 115.507 194.46C114.657 193.913 113.432 193.64 111.83 193.64H108.197V183.854H118.51V186.081H110.6V191.457H112.27C113.188 191.457 114.081 191.54 114.95 191.706C115.819 191.872 116.591 192.165 117.265 192.585C117.948 192.995 118.495 193.552 118.905 194.255C119.325 194.948 119.535 195.822 119.535 196.877Z" fill="black"/>
<circle cx="27" cy="279" r="23.75" fill="white" stroke="black" stroke-width="2.5"/>
<circle cx="25" cy="25" r="23.75" transform="matrix(-1 0 0 1 94.0144 342)" fill="white" stroke="black" stroke-width="2.5"/>
<path d="M76.033 376H63.4207V373.715L68.3718 368.793C69.1824 367.992 69.8416 367.299 70.3494 366.713C70.8572 366.127 71.2527 365.595 71.5359 365.116C71.8191 364.628 72.0095 364.169 72.1072 363.739C72.2048 363.31 72.2537 362.846 72.2537 362.348C72.2537 361.879 72.1902 361.435 72.0632 361.015C71.9363 360.585 71.741 360.209 71.4773 359.887C71.2136 359.564 70.8718 359.311 70.4519 359.125C70.032 358.939 69.5291 358.847 68.9431 358.847C68.1326 358.847 67.3953 359.027 66.7312 359.389C66.0671 359.75 65.4568 360.219 64.9001 360.795L63.4939 359.11C64.2166 358.349 65.0466 357.738 65.9841 357.279C66.9314 356.82 68.03 356.591 69.28 356.591C70.1296 356.591 70.9011 356.718 71.5945 356.972C72.2976 357.226 72.9031 357.592 73.4109 358.07C73.9187 358.549 74.3093 359.135 74.5828 359.828C74.866 360.521 75.0076 361.303 75.0076 362.172C75.0076 362.904 74.9099 363.583 74.7146 364.208C74.5193 364.833 74.2214 365.458 73.821 366.083C73.4304 366.698 72.9324 367.338 72.3269 368.002C71.7312 368.666 71.0232 369.394 70.2029 370.185L66.7312 373.568H76.033V376Z" fill="black"/>
<circle cx="117" cy="453" r="23.75" fill="white" stroke="black" stroke-width="2.5"/>
<path d="M124.971 458.767H121.704V463H119.097V458.767H109.883V456.525L118.042 443.854H121.704V456.525H124.971V458.767ZM119.097 446.315L112.432 456.525H119.097V446.315Z" fill="black"/>
<circle cx="201" cy="279" r="23.75" fill="white" stroke="black" stroke-width="2.5"/>
<path d="M199.61 289H187.584V286.627H192.506V272.652L187.921 275.143L186.983 272.975L193.077 269.767H195.333V286.627H199.61V289ZM216.104 289H204.078V286.627H209V272.652L204.415 275.143L203.478 272.975L209.571 269.767H211.827V286.627H216.104V289Z" fill="black"/>
<circle cx="159" cy="367" r="23.75" fill="white" stroke="black" stroke-width="2.5"/>
<circle cx="159" cy="540" r="23.75" fill="white" stroke="black" stroke-width="2.5"/>
<path d="M165.652 371.185C165.652 372.024 165.481 372.815 165.14 373.558C164.798 374.29 164.285 374.935 163.602 375.491C162.918 376.038 162.059 376.473 161.023 376.795C159.988 377.107 158.782 377.264 157.405 377.264C156.644 377.264 155.96 377.239 155.354 377.19C154.749 377.142 154.183 377.078 153.655 377V374.715C154.261 374.822 154.9 374.905 155.574 374.964C156.248 375.022 156.937 375.052 157.64 375.052C158.597 375.052 159.412 374.969 160.086 374.803C160.77 374.627 161.326 374.378 161.756 374.056C162.186 373.733 162.498 373.343 162.693 372.884C162.889 372.425 162.986 371.907 162.986 371.331C162.986 370.804 162.869 370.345 162.635 369.954C162.4 369.563 162.068 369.236 161.639 368.973C161.219 368.709 160.711 368.514 160.115 368.387C159.529 368.25 158.885 368.182 158.182 368.182H155.999V366.087H158.211C158.787 366.087 159.31 366.014 159.778 365.867C160.257 365.711 160.662 365.491 160.994 365.208C161.336 364.925 161.595 364.578 161.771 364.168C161.956 363.748 162.049 363.274 162.049 362.747C162.049 361.722 161.736 360.975 161.111 360.506C160.486 360.037 159.568 359.803 158.357 359.803C157.713 359.803 157.049 359.866 156.365 359.993C155.682 360.12 154.949 360.311 154.168 360.564V358.338C154.5 358.221 154.852 358.118 155.223 358.03C155.604 357.933 155.979 357.854 156.351 357.796C156.731 357.728 157.107 357.679 157.479 357.649C157.85 357.61 158.206 357.591 158.548 357.591C159.563 357.591 160.457 357.703 161.229 357.928C162 358.143 162.645 358.455 163.162 358.865C163.68 359.275 164.07 359.773 164.334 360.359C164.598 360.945 164.729 361.604 164.729 362.337C164.729 363.431 164.446 364.349 163.88 365.091C163.323 365.833 162.557 366.424 161.58 366.863C162.078 366.941 162.566 367.098 163.045 367.332C163.533 367.566 163.968 367.869 164.349 368.24C164.739 368.602 165.052 369.031 165.286 369.529C165.53 370.027 165.652 370.579 165.652 371.185Z" fill="black"/>
<path d="M166.253 543.936C166.253 544.814 166.092 545.64 165.77 546.411C165.457 547.183 165.008 547.856 164.422 548.433C163.836 548.999 163.128 549.448 162.298 549.78C161.478 550.103 160.564 550.264 159.559 550.264C158.504 550.264 157.571 550.098 156.761 549.766C155.95 549.424 155.271 548.906 154.725 548.213C154.178 547.51 153.763 546.626 153.479 545.562C153.196 544.497 153.055 543.237 153.055 541.782C153.055 540.806 153.118 539.858 153.245 538.94C153.372 538.022 153.582 537.158 153.875 536.348C154.168 535.537 154.559 534.795 155.047 534.121C155.535 533.447 156.141 532.871 156.863 532.393C157.596 531.904 158.455 531.528 159.441 531.265C160.428 530.991 161.57 530.854 162.869 530.854H164.759V533.081H162.708C161.565 533.081 160.574 533.218 159.734 533.491C158.895 533.765 158.191 534.15 157.625 534.648C157.059 535.146 156.624 535.747 156.321 536.45C156.019 537.153 155.828 537.939 155.75 538.809L155.691 539.409C156.307 539.048 157.015 538.76 157.815 538.545C158.626 538.32 159.5 538.208 160.438 538.208C161.404 538.208 162.249 538.35 162.972 538.633C163.704 538.916 164.31 539.312 164.788 539.819C165.276 540.317 165.643 540.918 165.887 541.621C166.131 542.324 166.253 543.096 166.253 543.936ZM163.587 544.097C163.587 543.511 163.514 542.983 163.367 542.515C163.23 542.036 163.011 541.636 162.708 541.313C162.405 540.981 162.02 540.728 161.551 540.552C161.092 540.366 160.54 540.273 159.896 540.273C159.524 540.273 159.148 540.308 158.768 540.376C158.387 540.444 158.011 540.542 157.64 540.669C157.278 540.786 156.932 540.923 156.6 541.079C156.268 541.235 155.965 541.401 155.691 541.577C155.691 542.837 155.779 543.892 155.955 544.741C156.131 545.581 156.39 546.255 156.731 546.763C157.083 547.271 157.513 547.632 158.021 547.847C158.528 548.062 159.114 548.169 159.778 548.169C160.335 548.169 160.843 548.081 161.302 547.905C161.771 547.72 162.171 547.451 162.503 547.1C162.845 546.748 163.108 546.323 163.294 545.825C163.489 545.317 163.587 544.741 163.587 544.097Z" fill="black"/>
<circle cx="25" cy="25" r="23.75" transform="matrix(-1 0 0 1 226 428)" fill="white" stroke="black" stroke-width="2.5"/>
<path d="M206.916 447.228L198.889 464H195.974L204.309 447.228H193.967V444.854H206.916V447.228Z" fill="black"/>
<path d="M33.916 279.351C33.916 281.216 33.6914 282.822 33.2422 284.17C32.793 285.508 32.1289 286.611 31.25 287.48C30.3711 288.34 29.2822 288.975 27.9834 289.385C26.6846 289.795 25.1855 290 23.4863 290H21.8896V287.773H23.6621C24.9219 287.773 26.0107 287.646 26.9287 287.393C27.8467 287.139 28.6084 286.768 29.2139 286.279C29.8291 285.781 30.2979 285.181 30.6201 284.478C30.9424 283.765 31.1426 282.954 31.2207 282.046L31.2793 281.445C30.6641 281.807 29.9561 282.1 29.1553 282.324C28.3545 282.539 27.4854 282.646 26.5479 282.646C25.5811 282.646 24.7314 282.505 23.999 282.222C23.2666 281.938 22.6562 281.543 22.168 281.035C21.6895 280.527 21.3281 279.927 21.084 279.233C20.8398 278.53 20.7178 277.769 20.7178 276.948C20.7178 276.06 20.8789 275.229 21.2012 274.458C21.5234 273.687 21.9727 273.018 22.5488 272.451C23.1348 271.875 23.833 271.421 24.6436 271.089C25.4541 270.757 26.3477 270.591 27.3242 270.591C28.2715 270.591 29.1455 270.747 29.9463 271.06C30.7568 271.372 31.4551 271.88 32.041 272.583C32.627 273.276 33.0859 274.18 33.418 275.293C33.75 276.406 33.916 277.759 33.916 279.351ZM27.207 272.686C26.6602 272.686 26.1523 272.778 25.6836 272.964C25.2246 273.14 24.8242 273.403 24.4824 273.755C24.1504 274.097 23.8867 274.521 23.6914 275.029C23.4961 275.537 23.3984 276.118 23.3984 276.772C23.3984 277.368 23.4668 277.9 23.6035 278.369C23.75 278.838 23.9697 279.238 24.2627 279.57C24.5654 279.893 24.9512 280.142 25.4199 280.317C25.8887 280.493 26.4453 280.581 27.0898 280.581C27.4512 280.581 27.8223 280.547 28.2031 280.479C28.5938 280.41 28.9697 280.317 29.3311 280.2C29.7021 280.083 30.0537 279.946 30.3857 279.79C30.7178 279.634 31.0156 279.468 31.2793 279.292C31.2793 278.032 31.1865 276.982 31.001 276.143C30.8154 275.293 30.5469 274.614 30.1953 274.106C29.8438 273.589 29.4141 273.223 28.9062 273.008C28.4082 272.793 27.8418 272.686 27.207 272.686Z" fill="black"/>
<path d="M318.081 5.06152L317.726 11.0156H315.644L315.275 5.06152H318.081ZM323.02 5.06152L322.664 11.0156H320.582L320.214 5.06152H323.02ZM338.673 17.6934C338.673 18.5143 338.495 19.2633 338.14 19.9404C337.784 20.6175 337.293 21.2015 336.667 21.6924C336.049 22.1748 335.317 22.5514 334.471 22.8223C333.624 23.0931 332.71 23.2285 331.729 23.2285C331.483 23.2285 331.216 23.2201 330.929 23.2031C330.649 23.1947 330.37 23.1777 330.091 23.1523C329.812 23.1354 329.536 23.1143 329.266 23.0889C329.003 23.0635 328.766 23.0339 328.555 23V20.9941C329.012 21.1042 329.532 21.1846 330.116 21.2354C330.709 21.2861 331.305 21.3115 331.906 21.3115C332.583 21.3115 333.193 21.2311 333.734 21.0703C334.276 20.9095 334.737 20.681 335.118 20.3848C335.499 20.0801 335.791 19.7161 335.994 19.293C336.197 18.8613 336.299 18.3789 336.299 17.8457C336.299 16.8132 335.926 16.0641 335.182 15.5986C334.445 15.1247 333.383 14.8877 331.995 14.8877H328.847V6.40723H337.784V8.33691H330.929V12.9961H332.376C333.172 12.9961 333.946 13.068 334.699 13.2119C335.452 13.3558 336.121 13.6097 336.705 13.9736C337.298 14.3291 337.771 14.8115 338.127 15.4209C338.491 16.0218 338.673 16.7793 338.673 17.6934ZM343.611 25.6025C344.043 25.6195 344.462 25.5814 344.868 25.4883C345.274 25.3952 345.63 25.2555 345.935 25.0693C346.248 24.8916 346.497 24.6673 346.684 24.3965C346.87 24.1257 346.963 23.8167 346.963 23.4697C346.963 23.1143 346.899 22.8265 346.772 22.6064C346.654 22.3864 346.519 22.1833 346.366 21.9971C346.214 21.8109 346.074 21.612 345.947 21.4004C345.829 21.1888 345.77 20.9053 345.77 20.5498C345.77 20.3721 345.803 20.1859 345.871 19.9912C345.939 19.7965 346.04 19.6188 346.176 19.458C346.32 19.2972 346.497 19.166 346.709 19.0645C346.929 18.9629 347.187 18.9121 347.483 18.9121C347.78 18.9121 348.063 18.9756 348.334 19.1025C348.613 19.221 348.854 19.4072 349.058 19.6611C349.269 19.915 349.434 20.2324 349.553 20.6133C349.68 20.9941 349.743 21.4427 349.743 21.959C349.743 22.6615 349.612 23.3343 349.35 23.9775C349.096 24.6292 348.711 25.2048 348.194 25.7041C347.687 26.2035 347.048 26.6012 346.277 26.8975C345.516 27.1937 344.627 27.3418 343.611 27.3418V25.6025ZM367.593 13.7705C367.593 15.387 367.398 16.7793 367.009 17.9473C366.619 19.1068 366.044 20.0632 365.282 20.8164C364.521 21.5612 363.577 22.1113 362.451 22.4668C361.326 22.8223 360.026 23 358.554 23H357.17V21.0703H358.706C359.798 21.0703 360.742 20.9603 361.537 20.7402C362.333 20.5202 362.993 20.1986 363.518 19.7754C364.051 19.3438 364.457 18.8232 364.736 18.2139C365.016 17.596 365.189 16.8936 365.257 16.1064L365.308 15.5859C364.774 15.8991 364.161 16.153 363.467 16.3477C362.773 16.5339 362.02 16.627 361.207 16.627C360.369 16.627 359.633 16.5042 358.998 16.2588C358.363 16.0133 357.834 15.6706 357.411 15.2305C356.996 14.7904 356.683 14.2699 356.472 13.6689C356.26 13.0596 356.154 12.3994 356.154 11.6885C356.154 10.9183 356.294 10.1989 356.573 9.53027C356.853 8.86165 357.242 8.2819 357.741 7.79102C358.249 7.29167 358.854 6.89811 359.557 6.61035C360.259 6.32259 361.034 6.17871 361.88 6.17871C362.701 6.17871 363.458 6.31413 364.152 6.58496C364.855 6.85579 365.46 7.2959 365.968 7.90527C366.476 8.50618 366.873 9.28906 367.161 10.2539C367.449 11.2188 367.593 12.391 367.593 13.7705ZM361.778 7.99414C361.304 7.99414 360.864 8.07454 360.458 8.23535C360.06 8.3877 359.713 8.61621 359.417 8.9209C359.129 9.21712 358.901 9.58529 358.731 10.0254C358.562 10.4655 358.478 10.9691 358.478 11.5361C358.478 12.0524 358.537 12.5137 358.655 12.9199C358.782 13.3262 358.973 13.6732 359.227 13.9609C359.489 14.2402 359.823 14.4561 360.229 14.6084C360.636 14.7607 361.118 14.8369 361.677 14.8369C361.99 14.8369 362.312 14.8073 362.642 14.748C362.98 14.6888 363.306 14.6084 363.619 14.5068C363.941 14.4053 364.245 14.2868 364.533 14.1514C364.821 14.016 365.079 13.8721 365.308 13.7197C365.308 12.6279 365.227 11.7181 365.066 10.9902C364.906 10.2539 364.673 9.66569 364.368 9.22559C364.063 8.77702 363.691 8.45964 363.251 8.27344C362.819 8.08724 362.328 7.99414 361.778 7.99414ZM372.201 25.6025C372.633 25.6195 373.052 25.5814 373.458 25.4883C373.864 25.3952 374.22 25.2555 374.524 25.0693C374.838 24.8916 375.087 24.6673 375.273 24.3965C375.46 24.1257 375.553 23.8167 375.553 23.4697C375.553 23.1143 375.489 22.8265 375.362 22.6064C375.244 22.3864 375.108 22.1833 374.956 21.9971C374.804 21.8109 374.664 21.612 374.537 21.4004C374.419 21.1888 374.359 20.9053 374.359 20.5498C374.359 20.3721 374.393 20.1859 374.461 19.9912C374.529 19.7965 374.63 19.6188 374.766 19.458C374.91 19.2972 375.087 19.166 375.299 19.0645C375.519 18.9629 375.777 18.9121 376.073 18.9121C376.369 18.9121 376.653 18.9756 376.924 19.1025C377.203 19.221 377.444 19.4072 377.647 19.6611C377.859 19.915 378.024 20.2324 378.143 20.6133C378.27 20.9941 378.333 21.4427 378.333 21.959C378.333 22.6615 378.202 23.3343 377.939 23.9775C377.686 24.6292 377.3 25.2048 376.784 25.7041C376.276 26.2035 375.637 26.6012 374.867 26.8975C374.105 27.1937 373.217 27.3418 372.201 27.3418V25.6025ZM396.271 23H385.341V21.0195L389.632 16.7539C390.334 16.0599 390.906 15.459 391.346 14.9512C391.786 14.4434 392.129 13.9821 392.374 13.5674C392.619 13.1442 392.785 12.7464 392.869 12.374C392.954 12.0016 392.996 11.5996 392.996 11.168C392.996 10.7617 392.941 10.3766 392.831 10.0127C392.721 9.6403 392.552 9.31445 392.323 9.03516C392.095 8.75586 391.799 8.53581 391.435 8.375C391.071 8.21419 390.635 8.13379 390.127 8.13379C389.424 8.13379 388.785 8.29036 388.21 8.60352C387.634 8.91667 387.105 9.32292 386.623 9.82227L385.404 8.3623C386.031 7.70215 386.75 7.17318 387.562 6.77539C388.383 6.3776 389.336 6.17871 390.419 6.17871C391.155 6.17871 391.824 6.28874 392.425 6.50879C393.034 6.72884 393.559 7.04622 393.999 7.46094C394.439 7.87565 394.778 8.38346 395.015 8.98438C395.26 9.58529 395.383 10.2624 395.383 11.0156C395.383 11.6504 395.298 12.2386 395.129 12.7803C394.96 13.3219 394.701 13.8636 394.354 14.4053C394.016 14.9385 393.584 15.4928 393.06 16.0684C392.543 16.6439 391.93 17.2744 391.219 17.96L388.21 20.8926H396.271V23ZM400.791 25.6025C401.223 25.6195 401.642 25.5814 402.048 25.4883C402.454 25.3952 402.81 25.2555 403.114 25.0693C403.427 24.8916 403.677 24.6673 403.863 24.3965C404.049 24.1257 404.143 23.8167 404.143 23.4697C404.143 23.1143 404.079 22.8265 403.952 22.6064C403.834 22.3864 403.698 22.1833 403.546 21.9971C403.394 21.8109 403.254 21.612 403.127 21.4004C403.008 21.1888 402.949 20.9053 402.949 20.5498C402.949 20.3721 402.983 20.1859 403.051 19.9912C403.118 19.7965 403.22 19.6188 403.355 19.458C403.499 19.2972 403.677 19.166 403.889 19.0645C404.109 18.9629 404.367 18.9121 404.663 18.9121C404.959 18.9121 405.243 18.9756 405.514 19.1025C405.793 19.221 406.034 19.4072 406.237 19.6611C406.449 19.915 406.614 20.2324 406.732 20.6133C406.859 20.9941 406.923 21.4427 406.923 21.959C406.923 22.6615 406.792 23.3343 406.529 23.9775C406.275 24.6292 405.89 25.2048 405.374 25.7041C404.866 26.2035 404.227 26.6012 403.457 26.8975C402.695 27.1937 401.807 27.3418 400.791 27.3418V25.6025ZM424.722 23H414.299V20.9434H418.564V8.83203L414.591 10.9902L413.778 9.11133L419.06 6.33105H421.015V20.9434H424.722V23ZM439.017 23H428.594V20.9434H432.859V8.83203L428.886 10.9902L428.073 9.11133L433.354 6.33105H435.31V20.9434H439.017V23ZM443.676 25.6025C444.107 25.6195 444.526 25.5814 444.933 25.4883C445.339 25.3952 445.694 25.2555 445.999 25.0693C446.312 24.8916 446.562 24.6673 446.748 24.3965C446.934 24.1257 447.027 23.8167 447.027 23.4697C447.027 23.1143 446.964 22.8265 446.837 22.6064C446.718 22.3864 446.583 22.1833 446.431 21.9971C446.278 21.8109 446.139 21.612 446.012 21.4004C445.893 21.1888 445.834 20.9053 445.834 20.5498C445.834 20.3721 445.868 20.1859 445.936 19.9912C446.003 19.7965 446.105 19.6188 446.24 19.458C446.384 19.2972 446.562 19.166 446.773 19.0645C446.993 18.9629 447.252 18.9121 447.548 18.9121C447.844 18.9121 448.128 18.9756 448.398 19.1025C448.678 19.221 448.919 19.4072 449.122 19.6611C449.334 19.915 449.499 20.2324 449.617 20.6133C449.744 20.9941 449.808 21.4427 449.808 21.959C449.808 22.6615 449.676 23.3343 449.414 23.9775C449.16 24.6292 448.775 25.2048 448.259 25.7041C447.751 26.2035 447.112 26.6012 446.342 26.8975C445.58 27.1937 444.691 27.3418 443.676 27.3418V25.6025ZM467.429 17.96C467.429 18.6878 467.281 19.3734 466.984 20.0166C466.688 20.6514 466.244 21.21 465.651 21.6924C465.059 22.1663 464.314 22.543 463.417 22.8223C462.52 23.0931 461.475 23.2285 460.281 23.2285C459.621 23.2285 459.029 23.2074 458.504 23.165C457.979 23.1227 457.488 23.0677 457.031 23V21.0195C457.556 21.1126 458.11 21.1846 458.694 21.2354C459.278 21.2861 459.875 21.3115 460.484 21.3115C461.314 21.3115 462.021 21.2396 462.604 21.0957C463.197 20.9434 463.679 20.7275 464.052 20.4482C464.424 20.1689 464.695 19.8304 464.864 19.4326C465.034 19.0348 465.118 18.5863 465.118 18.0869C465.118 17.6299 465.017 17.2321 464.813 16.8936C464.61 16.555 464.323 16.2715 463.95 16.043C463.586 15.8145 463.146 15.6452 462.63 15.5352C462.122 15.4167 461.563 15.3574 460.954 15.3574H459.062V13.542H460.979C461.479 13.542 461.932 13.4785 462.338 13.3516C462.753 13.2161 463.104 13.0257 463.392 12.7803C463.688 12.5348 463.912 12.2344 464.064 11.8789C464.225 11.515 464.306 11.1045 464.306 10.6475C464.306 9.75879 464.035 9.11133 463.493 8.70508C462.951 8.29883 462.156 8.0957 461.106 8.0957C460.548 8.0957 459.972 8.15072 459.38 8.26074C458.787 8.37077 458.153 8.53581 457.476 8.75586V6.82617C457.763 6.72461 458.068 6.63574 458.39 6.55957C458.72 6.47493 459.046 6.40723 459.367 6.35645C459.697 6.2972 460.023 6.25488 460.345 6.22949C460.666 6.19564 460.975 6.17871 461.271 6.17871C462.152 6.17871 462.926 6.27604 463.595 6.4707C464.263 6.6569 464.822 6.92773 465.271 7.2832C465.719 7.63867 466.058 8.07031 466.286 8.57812C466.515 9.08594 466.629 9.65723 466.629 10.292C466.629 11.2399 466.383 12.0355 465.893 12.6787C465.41 13.3219 464.746 13.834 463.899 14.2148C464.331 14.2826 464.754 14.418 465.169 14.6211C465.592 14.8242 465.969 15.0866 466.299 15.4082C466.637 15.7214 466.908 16.0938 467.111 16.5254C467.323 16.957 467.429 17.4352 467.429 17.96ZM472.266 25.6025C472.697 25.6195 473.116 25.5814 473.522 25.4883C473.929 25.3952 474.284 25.2555 474.589 25.0693C474.902 24.8916 475.152 24.6673 475.338 24.3965C475.524 24.1257 475.617 23.8167 475.617 23.4697C475.617 23.1143 475.554 22.8265 475.427 22.6064C475.308 22.3864 475.173 22.1833 475.021 21.9971C474.868 21.8109 474.729 21.612 474.602 21.4004C474.483 21.1888 474.424 20.9053 474.424 20.5498C474.424 20.3721 474.458 20.1859 474.525 19.9912C474.593 19.7965 474.695 19.6188 474.83 19.458C474.974 19.2972 475.152 19.166 475.363 19.0645C475.583 18.9629 475.841 18.9121 476.138 18.9121C476.434 18.9121 476.717 18.9756 476.988 19.1025C477.268 19.221 477.509 19.4072 477.712 19.6611C477.924 19.915 478.089 20.2324 478.207 20.6133C478.334 20.9941 478.397 21.4427 478.397 21.959C478.397 22.6615 478.266 23.3343 478.004 23.9775C477.75 24.6292 477.365 25.2048 476.849 25.7041C476.341 26.2035 475.702 26.6012 474.932 26.8975C474.17 27.1937 473.281 27.3418 472.266 27.3418V25.6025ZM497.161 19.3311H494.33V23H492.07V19.3311H484.085V17.3887L491.156 6.40723H494.33V17.3887H497.161V19.3311ZM492.07 8.54004L486.294 17.3887H492.07V8.54004ZM500.855 25.6025C501.287 25.6195 501.706 25.5814 502.112 25.4883C502.519 25.3952 502.874 25.2555 503.179 25.0693C503.492 24.8916 503.742 24.6673 503.928 24.3965C504.114 24.1257 504.207 23.8167 504.207 23.4697C504.207 23.1143 504.144 22.8265 504.017 22.6064C503.898 22.3864 503.763 22.1833 503.61 21.9971C503.458 21.8109 503.318 21.612 503.191 21.4004C503.073 21.1888 503.014 20.9053 503.014 20.5498C503.014 20.3721 503.048 20.1859 503.115 19.9912C503.183 19.7965 503.285 19.6188 503.42 19.458C503.564 19.2972 503.742 19.166 503.953 19.0645C504.173 18.9629 504.431 18.9121 504.728 18.9121C505.024 18.9121 505.307 18.9756 505.578 19.1025C505.857 19.221 506.099 19.4072 506.302 19.6611C506.513 19.915 506.678 20.2324 506.797 20.6133C506.924 20.9941 506.987 21.4427 506.987 21.959C506.987 22.6615 506.856 23.3343 506.594 23.9775C506.34 24.6292 505.955 25.2048 505.438 25.7041C504.931 26.2035 504.292 26.6012 503.521 26.8975C502.76 27.1937 501.871 27.3418 500.855 27.3418V25.6025ZM525.129 17.7441C525.129 18.5059 524.989 19.221 524.71 19.8896C524.439 20.5583 524.05 21.1423 523.542 21.6416C523.034 22.1325 522.421 22.5218 521.701 22.8096C520.99 23.0889 520.199 23.2285 519.327 23.2285C518.413 23.2285 517.605 23.0846 516.902 22.7969C516.2 22.5007 515.612 22.0521 515.138 21.4512C514.664 20.8418 514.304 20.0758 514.059 19.1533C513.813 18.2308 513.69 17.139 513.69 15.8779C513.69 15.0316 513.745 14.2106 513.855 13.415C513.965 12.6195 514.147 11.8704 514.401 11.168C514.655 10.4655 514.994 9.82227 515.417 9.23828C515.84 8.6543 516.365 8.15495 516.991 7.74023C517.626 7.31706 518.371 6.99121 519.226 6.7627C520.08 6.52572 521.071 6.40723 522.196 6.40723H523.834V8.33691H522.057C521.066 8.33691 520.207 8.4554 519.479 8.69238C518.752 8.92936 518.142 9.26367 517.651 9.69531C517.16 10.127 516.784 10.6475 516.521 11.2568C516.259 11.8662 516.094 12.5475 516.026 13.3008L515.976 13.8213C516.509 13.5081 517.122 13.2585 517.816 13.0723C518.519 12.8776 519.276 12.7803 520.089 12.7803C520.927 12.7803 521.659 12.903 522.285 13.1484C522.92 13.3939 523.445 13.7367 523.859 14.1768C524.283 14.6084 524.6 15.1289 524.812 15.7383C525.023 16.3477 525.129 17.0163 525.129 17.7441ZM522.818 17.8838C522.818 17.376 522.755 16.9189 522.628 16.5127C522.509 16.098 522.319 15.751 522.057 15.4717C521.794 15.1839 521.46 14.9639 521.054 14.8115C520.656 14.6507 520.178 14.5703 519.619 14.5703C519.298 14.5703 518.972 14.5999 518.642 14.6592C518.312 14.7184 517.986 14.8031 517.664 14.9131C517.351 15.0146 517.05 15.1331 516.763 15.2686C516.475 15.404 516.213 15.5479 515.976 15.7002C515.976 16.792 516.052 17.7061 516.204 18.4424C516.356 19.1702 516.581 19.7542 516.877 20.1943C517.182 20.6344 517.554 20.9476 517.994 21.1338C518.434 21.32 518.942 21.4131 519.518 21.4131C520 21.4131 520.44 21.3369 520.838 21.1846C521.244 21.0238 521.591 20.791 521.879 20.4863C522.175 20.1816 522.404 19.8135 522.564 19.3818C522.734 18.9417 522.818 18.4424 522.818 17.8838ZM529.445 25.6025C529.877 25.6195 530.296 25.5814 530.702 25.4883C531.108 25.3952 531.464 25.2555 531.769 25.0693C532.082 24.8916 532.331 24.6673 532.518 24.3965C532.704 24.1257 532.797 23.8167 532.797 23.4697C532.797 23.1143 532.733 22.8265 532.606 22.6064C532.488 22.3864 532.353 22.1833 532.2 21.9971C532.048 21.8109 531.908 21.612 531.781 21.4004C531.663 21.1888 531.604 20.9053 531.604 20.5498C531.604 20.3721 531.637 20.1859 531.705 19.9912C531.773 19.7965 531.874 19.6188 532.01 19.458C532.154 19.2972 532.331 19.166 532.543 19.0645C532.763 18.9629 533.021 18.9121 533.317 18.9121C533.614 18.9121 533.897 18.9756 534.168 19.1025C534.447 19.221 534.688 19.4072 534.892 19.6611C535.103 19.915 535.268 20.2324 535.387 20.6133C535.514 20.9941 535.577 21.4427 535.577 21.959C535.577 22.6615 535.446 23.3343 535.184 23.9775C534.93 24.6292 534.545 25.2048 534.028 25.7041C533.521 26.2035 532.882 26.6012 532.111 26.8975C531.35 27.1937 530.461 27.3418 529.445 27.3418V25.6025ZM553.427 8.46387L546.47 23H543.943L551.167 8.46387H542.204V6.40723H553.427V8.46387ZM561.095 5.06152L560.739 11.0156H558.657L558.289 5.06152H561.095ZM566.033 5.06152L565.678 11.0156H563.596L563.228 5.06152H566.033Z" fill="black"/>
<path d="M835.276 280L877.014 367" stroke="black" stroke-width="2.5"/>
<path d="M835.015 280L793.276 367" stroke="black" stroke-width="2.5"/>
<path d="M752.276 453L794.014 540" stroke="black" stroke-width="2.5"/>
<path d="M878.276 367L920.014 454" stroke="black" stroke-width="2.5"/>
<path d="M793.015 367L751.276 454" stroke="black" stroke-width="2.5"/>
<path d="M748.079 193.079L835.5 280.5" stroke="black" stroke-width="2.5"/>
<circle cx="747" cy="193" r="23.75" fill="white" stroke="black" stroke-width="2.5"/>
<path d="M753.535 196.877C753.535 197.824 753.33 198.688 752.92 199.47C752.51 200.251 751.943 200.925 751.221 201.491C750.508 202.048 749.663 202.482 748.687 202.795C747.71 203.107 746.655 203.264 745.522 203.264C745.239 203.264 744.932 203.254 744.6 203.234C744.277 203.225 743.955 203.205 743.633 203.176C743.311 203.156 742.993 203.132 742.681 203.103C742.378 203.073 742.104 203.039 741.86 203V200.686C742.388 200.812 742.988 200.905 743.662 200.964C744.346 201.022 745.034 201.052 745.728 201.052C746.509 201.052 747.212 200.959 747.837 200.773C748.462 200.588 748.994 200.324 749.434 199.982C749.873 199.631 750.21 199.211 750.444 198.723C750.679 198.225 750.796 197.668 750.796 197.053C750.796 195.861 750.366 194.997 749.507 194.46C748.657 193.913 747.432 193.64 745.83 193.64H742.197V183.854H752.51V186.081H744.6V191.457H746.27C747.188 191.457 748.081 191.54 748.95 191.706C749.819 191.872 750.591 192.165 751.265 192.585C751.948 192.995 752.495 193.552 752.905 194.255C753.325 194.948 753.535 195.822 753.535 196.877Z" fill="black"/>
<circle cx="25" cy="25" r="23.75" transform="matrix(-1 0 0 1 902.014 342)" fill="white" stroke="black" stroke-width="2.5"/>
<path d="M884.267 369.936C884.267 370.814 884.106 371.64 883.784 372.411C883.471 373.183 883.022 373.856 882.436 374.433C881.85 374.999 881.142 375.448 880.312 375.78C879.492 376.103 878.579 376.264 877.573 376.264C876.518 376.264 875.586 376.098 874.775 375.766C873.965 375.424 873.286 374.906 872.739 374.213C872.192 373.51 871.777 372.626 871.494 371.562C871.211 370.497 871.069 369.237 871.069 367.782C871.069 366.806 871.133 365.858 871.26 364.94C871.386 364.022 871.596 363.158 871.889 362.348C872.182 361.537 872.573 360.795 873.061 360.121C873.55 359.447 874.155 358.871 874.878 358.393C875.61 357.904 876.469 357.528 877.456 357.265C878.442 356.991 879.585 356.854 880.884 356.854H882.773V359.081H880.722C879.58 359.081 878.589 359.218 877.749 359.491C876.909 359.765 876.206 360.15 875.639 360.648C875.073 361.146 874.638 361.747 874.336 362.45C874.033 363.153 873.843 363.939 873.764 364.809L873.706 365.409C874.321 365.048 875.029 364.76 875.83 364.545C876.64 364.32 877.514 364.208 878.452 364.208C879.419 364.208 880.263 364.35 880.986 364.633C881.719 364.916 882.324 365.312 882.802 365.819C883.291 366.317 883.657 366.918 883.901 367.621C884.145 368.324 884.267 369.096 884.267 369.936ZM881.601 370.097C881.601 369.511 881.528 368.983 881.382 368.515C881.245 368.036 881.025 367.636 880.722 367.313C880.42 366.981 880.034 366.728 879.565 366.552C879.106 366.366 878.554 366.273 877.91 366.273C877.539 366.273 877.163 366.308 876.782 366.376C876.401 366.444 876.025 366.542 875.654 366.669C875.293 366.786 874.946 366.923 874.614 367.079C874.282 367.235 873.979 367.401 873.706 367.577C873.706 368.837 873.794 369.892 873.969 370.741C874.145 371.581 874.404 372.255 874.746 372.763C875.097 373.271 875.527 373.632 876.035 373.847C876.543 374.062 877.129 374.169 877.793 374.169C878.349 374.169 878.857 374.081 879.316 373.905C879.785 373.72 880.185 373.451 880.517 373.1C880.859 372.748 881.123 372.323 881.308 371.825C881.504 371.317 881.601 370.741 881.601 370.097Z" fill="black"/>
<circle cx="751" cy="453" r="23.75" fill="white" stroke="black" stroke-width="2.5"/>
<path d="M749.61 463H737.584V460.627H742.506V446.652L737.921 449.143L736.983 446.975L743.077 443.767H745.333V460.627H749.61V463ZM766.104 463H754.078V460.627H759V446.652L754.415 449.143L753.478 446.975L759.571 443.767H761.827V460.627H766.104V463Z" fill="black"/>
<circle cx="835" cy="279" r="23.75" fill="white" stroke="black" stroke-width="2.5"/>
<path d="M841.916 278.351C841.916 280.216 841.691 281.822 841.242 283.17C840.793 284.508 840.129 285.611 839.25 286.48C838.371 287.34 837.282 287.975 835.983 288.385C834.685 288.795 833.186 289 831.486 289H829.89V286.773H831.662C832.922 286.773 834.011 286.646 834.929 286.393C835.847 286.139 836.608 285.768 837.214 285.279C837.829 284.781 838.298 284.181 838.62 283.478C838.942 282.765 839.143 281.954 839.221 281.046L839.279 280.445C838.664 280.807 837.956 281.1 837.155 281.324C836.354 281.539 835.485 281.646 834.548 281.646C833.581 281.646 832.731 281.505 831.999 281.222C831.267 280.938 830.656 280.543 830.168 280.035C829.689 279.527 829.328 278.927 829.084 278.233C828.84 277.53 828.718 276.769 828.718 275.948C828.718 275.06 828.879 274.229 829.201 273.458C829.523 272.687 829.973 272.018 830.549 271.451C831.135 270.875 831.833 270.421 832.644 270.089C833.454 269.757 834.348 269.591 835.324 269.591C836.271 269.591 837.146 269.747 837.946 270.06C838.757 270.372 839.455 270.88 840.041 271.583C840.627 272.276 841.086 273.18 841.418 274.293C841.75 275.406 841.916 276.759 841.916 278.351ZM835.207 271.686C834.66 271.686 834.152 271.778 833.684 271.964C833.225 272.14 832.824 272.403 832.482 272.755C832.15 273.097 831.887 273.521 831.691 274.029C831.496 274.537 831.398 275.118 831.398 275.772C831.398 276.368 831.467 276.9 831.604 277.369C831.75 277.838 831.97 278.238 832.263 278.57C832.565 278.893 832.951 279.142 833.42 279.317C833.889 279.493 834.445 279.581 835.09 279.581C835.451 279.581 835.822 279.547 836.203 279.479C836.594 279.41 836.97 279.317 837.331 279.2C837.702 279.083 838.054 278.946 838.386 278.79C838.718 278.634 839.016 278.468 839.279 278.292C839.279 277.032 839.187 275.982 839.001 275.143C838.815 274.293 838.547 273.614 838.195 273.106C837.844 272.589 837.414 272.223 836.906 272.008C836.408 271.793 835.842 271.686 835.207 271.686Z" fill="black"/>
<circle cx="793" cy="367" r="23.75" fill="white" stroke="black" stroke-width="2.5"/>
<circle cx="793" cy="540" r="23.75" fill="white" stroke="black" stroke-width="2.5"/>
<path d="M800.019 377H787.406V374.715L792.357 369.793C793.168 368.992 793.827 368.299 794.335 367.713C794.843 367.127 795.238 366.595 795.521 366.116C795.805 365.628 795.995 365.169 796.093 364.739C796.19 364.31 796.239 363.846 796.239 363.348C796.239 362.879 796.176 362.435 796.049 362.015C795.922 361.585 795.727 361.209 795.463 360.887C795.199 360.564 794.857 360.311 794.438 360.125C794.018 359.939 793.515 359.847 792.929 359.847C792.118 359.847 791.381 360.027 790.717 360.389C790.053 360.75 789.442 361.219 788.886 361.795L787.479 360.11C788.202 359.349 789.032 358.738 789.97 358.279C790.917 357.82 792.016 357.591 793.266 357.591C794.115 357.591 794.887 357.718 795.58 357.972C796.283 358.226 796.889 358.592 797.396 359.07C797.904 359.549 798.295 360.135 798.568 360.828C798.852 361.521 798.993 362.303 798.993 363.172C798.993 363.904 798.896 364.583 798.7 365.208C798.505 365.833 798.207 366.458 797.807 367.083C797.416 367.698 796.918 368.338 796.312 369.002C795.717 369.666 795.009 370.394 794.188 371.185L790.717 374.568H800.019V377Z" fill="black"/>
<circle cx="710" cy="540" r="23.75" fill="white" stroke="black" stroke-width="2.5"/>
<path d="M716.652 544.185C716.652 545.024 716.481 545.815 716.14 546.558C715.798 547.29 715.285 547.935 714.602 548.491C713.918 549.038 713.059 549.473 712.023 549.795C710.988 550.107 709.782 550.264 708.405 550.264C707.644 550.264 706.96 550.239 706.354 550.19C705.749 550.142 705.183 550.078 704.655 550V547.715C705.261 547.822 705.9 547.905 706.574 547.964C707.248 548.022 707.937 548.052 708.64 548.052C709.597 548.052 710.412 547.969 711.086 547.803C711.77 547.627 712.326 547.378 712.756 547.056C713.186 546.733 713.498 546.343 713.693 545.884C713.889 545.425 713.986 544.907 713.986 544.331C713.986 543.804 713.869 543.345 713.635 542.954C713.4 542.563 713.068 542.236 712.639 541.973C712.219 541.709 711.711 541.514 711.115 541.387C710.529 541.25 709.885 541.182 709.182 541.182H706.999V539.087H709.211C709.787 539.087 710.31 539.014 710.778 538.867C711.257 538.711 711.662 538.491 711.994 538.208C712.336 537.925 712.595 537.578 712.771 537.168C712.956 536.748 713.049 536.274 713.049 535.747C713.049 534.722 712.736 533.975 712.111 533.506C711.486 533.037 710.568 532.803 709.357 532.803C708.713 532.803 708.049 532.866 707.365 532.993C706.682 533.12 705.949 533.311 705.168 533.564V531.338C705.5 531.221 705.852 531.118 706.223 531.03C706.604 530.933 706.979 530.854 707.351 530.796C707.731 530.728 708.107 530.679 708.479 530.649C708.85 530.61 709.206 530.591 709.548 530.591C710.563 530.591 711.457 530.703 712.229 530.928C713 531.143 713.645 531.455 714.162 531.865C714.68 532.275 715.07 532.773 715.334 533.359C715.598 533.945 715.729 534.604 715.729 535.337C715.729 536.431 715.446 537.349 714.88 538.091C714.323 538.833 713.557 539.424 712.58 539.863C713.078 539.941 713.566 540.098 714.045 540.332C714.533 540.566 714.968 540.869 715.349 541.24C715.739 541.602 716.052 542.031 716.286 542.529C716.53 543.027 716.652 543.579 716.652 544.185Z" fill="black"/>
<path d="M800.971 545.767H797.704V550H795.097V545.767H785.883V543.525L794.042 530.854H797.704V543.525H800.971V545.767ZM795.097 533.315L788.432 543.525H795.097V533.315Z" fill="black"/>
<circle cx="25" cy="25" r="23.75" transform="matrix(-1 0 0 1 945 428)" fill="white" stroke="black" stroke-width="2.5"/>
<path d="M926.916 447.228L918.889 464H915.974L924.309 447.228H913.967V444.854H926.916V447.228Z" fill="black"/>
<path d="M428 193L341 280" stroke="black" stroke-width="2.5"/>
<path d="M341.276 280L383.014 367" stroke="black" stroke-width="2.5"/>
<path d="M515.015 280L473.276 367" stroke="black" stroke-width="2.5"/>
<path d="M515.276 280L557.014 367" stroke="black" stroke-width="2.5"/>
<path d="M556.276 366L598.014 453" stroke="black" stroke-width="2.5"/>
<path d="M341.015 279L299.276 366" stroke="black" stroke-width="2.5"/>
<path d="M428.079 193.079L515.5 280.5" stroke="black" stroke-width="2.5"/>
<circle cx="427" cy="193" r="23.75" fill="white" stroke="black" stroke-width="2.5"/>
<path d="M433.535 196.877C433.535 197.824 433.33 198.688 432.92 199.47C432.51 200.251 431.943 200.925 431.221 201.491C430.508 202.048 429.663 202.482 428.687 202.795C427.71 203.107 426.655 203.264 425.522 203.264C425.239 203.264 424.932 203.254 424.6 203.234C424.277 203.225 423.955 203.205 423.633 203.176C423.311 203.156 422.993 203.132 422.681 203.103C422.378 203.073 422.104 203.039 421.86 203V200.686C422.388 200.812 422.988 200.905 423.662 200.964C424.346 201.022 425.034 201.052 425.728 201.052C426.509 201.052 427.212 200.959 427.837 200.773C428.462 200.588 428.994 200.324 429.434 199.982C429.873 199.631 430.21 199.211 430.444 198.723C430.679 198.225 430.796 197.668 430.796 197.053C430.796 195.861 430.366 194.997 429.507 194.46C428.657 193.913 427.432 193.64 425.83 193.64H422.197V183.854H432.51V186.081H424.6V191.457H426.27C427.188 191.457 428.081 191.54 428.95 191.706C429.819 191.872 430.591 192.165 431.265 192.585C431.948 192.995 432.495 193.552 432.905 194.255C433.325 194.948 433.535 195.822 433.535 196.877Z" fill="black"/>
<circle cx="341" cy="279" r="23.75" fill="white" stroke="black" stroke-width="2.5"/>
<circle cx="25" cy="25" r="23.75" transform="matrix(-1 0 0 1 408.014 342)" fill="white" stroke="black" stroke-width="2.5"/>
<path d="M381.625 376H369.598V373.627H374.52V359.652L369.935 362.143L368.998 359.975L375.092 356.767H377.347V373.627H381.625V376ZM398.119 376H386.093V373.627H391.014V359.652L386.429 362.143L385.492 359.975L391.586 356.767H393.842V373.627H398.119V376Z" fill="black"/>
<circle cx="299" cy="365" r="23.75" fill="white" stroke="black" stroke-width="2.5"/>
<path d="M306.019 375H293.406V372.715L298.357 367.793C299.168 366.992 299.827 366.299 300.335 365.713C300.843 365.127 301.238 364.595 301.521 364.116C301.805 363.628 301.995 363.169 302.093 362.739C302.19 362.31 302.239 361.846 302.239 361.348C302.239 360.879 302.176 360.435 302.049 360.015C301.922 359.585 301.727 359.209 301.463 358.887C301.199 358.564 300.857 358.311 300.438 358.125C300.018 357.939 299.515 357.847 298.929 357.847C298.118 357.847 297.381 358.027 296.717 358.389C296.053 358.75 295.442 359.219 294.886 359.795L293.479 358.11C294.202 357.349 295.032 356.738 295.97 356.279C296.917 355.82 298.016 355.591 299.266 355.591C300.115 355.591 300.887 355.718 301.58 355.972C302.283 356.226 302.889 356.592 303.396 357.07C303.904 357.549 304.295 358.135 304.568 358.828C304.852 359.521 304.993 360.303 304.993 361.172C304.993 361.904 304.896 362.583 304.7 363.208C304.505 363.833 304.207 364.458 303.807 365.083C303.416 365.698 302.918 366.338 302.312 367.002C301.717 367.666 301.009 368.394 300.188 369.185L296.717 372.568H306.019V375Z" fill="black"/>
<circle cx="515" cy="279" r="23.75" fill="white" stroke="black" stroke-width="2.5"/>
<path d="M521.652 283.185C521.652 284.024 521.481 284.815 521.14 285.558C520.798 286.29 520.285 286.935 519.602 287.491C518.918 288.038 518.059 288.473 517.023 288.795C515.988 289.107 514.782 289.264 513.405 289.264C512.644 289.264 511.96 289.239 511.354 289.19C510.749 289.142 510.183 289.078 509.655 289V286.715C510.261 286.822 510.9 286.905 511.574 286.964C512.248 287.022 512.937 287.052 513.64 287.052C514.597 287.052 515.412 286.969 516.086 286.803C516.77 286.627 517.326 286.378 517.756 286.056C518.186 285.733 518.498 285.343 518.693 284.884C518.889 284.425 518.986 283.907 518.986 283.331C518.986 282.804 518.869 282.345 518.635 281.954C518.4 281.563 518.068 281.236 517.639 280.973C517.219 280.709 516.711 280.514 516.115 280.387C515.529 280.25 514.885 280.182 514.182 280.182H511.999V278.087H514.211C514.787 278.087 515.31 278.014 515.778 277.867C516.257 277.711 516.662 277.491 516.994 277.208C517.336 276.925 517.595 276.578 517.771 276.168C517.956 275.748 518.049 275.274 518.049 274.747C518.049 273.722 517.736 272.975 517.111 272.506C516.486 272.037 515.568 271.803 514.357 271.803C513.713 271.803 513.049 271.866 512.365 271.993C511.682 272.12 510.949 272.311 510.168 272.564V270.338C510.5 270.221 510.852 270.118 511.223 270.03C511.604 269.933 511.979 269.854 512.351 269.796C512.731 269.728 513.107 269.679 513.479 269.649C513.85 269.61 514.206 269.591 514.548 269.591C515.563 269.591 516.457 269.703 517.229 269.928C518 270.143 518.645 270.455 519.162 270.865C519.68 271.275 520.07 271.773 520.334 272.359C520.598 272.945 520.729 273.604 520.729 274.337C520.729 275.431 520.446 276.349 519.88 277.091C519.323 277.833 518.557 278.424 517.58 278.863C518.078 278.941 518.566 279.098 519.045 279.332C519.533 279.566 519.968 279.869 520.349 280.24C520.739 280.602 521.052 281.031 521.286 281.529C521.53 282.027 521.652 282.579 521.652 283.185Z" fill="black"/>
<circle cx="473" cy="367" r="23.75" fill="white" stroke="black" stroke-width="2.5"/>
<circle cx="556" cy="367" r="23.75" fill="white" stroke="black" stroke-width="2.5"/>
<path d="M480.971 372.767H477.704V377H475.097V372.767H465.883V370.525L474.042 357.854H477.704V370.525H480.971V372.767ZM475.097 360.315L468.432 370.525H475.097V360.315Z" fill="black"/>
<path d="M563.253 370.936C563.253 371.814 563.092 372.64 562.77 373.411C562.457 374.183 562.008 374.856 561.422 375.433C560.836 375.999 560.128 376.448 559.298 376.78C558.478 377.103 557.564 377.264 556.559 377.264C555.504 377.264 554.571 377.098 553.761 376.766C552.95 376.424 552.271 375.906 551.725 375.213C551.178 374.51 550.763 373.626 550.479 372.562C550.196 371.497 550.055 370.237 550.055 368.782C550.055 367.806 550.118 366.858 550.245 365.94C550.372 365.022 550.582 364.158 550.875 363.348C551.168 362.537 551.559 361.795 552.047 361.121C552.535 360.447 553.141 359.871 553.863 359.393C554.596 358.904 555.455 358.528 556.441 358.265C557.428 357.991 558.57 357.854 559.869 357.854H561.759V360.081H559.708C558.565 360.081 557.574 360.218 556.734 360.491C555.895 360.765 555.191 361.15 554.625 361.648C554.059 362.146 553.624 362.747 553.321 363.45C553.019 364.153 552.828 364.939 552.75 365.809L552.691 366.409C553.307 366.048 554.015 365.76 554.815 365.545C555.626 365.32 556.5 365.208 557.438 365.208C558.404 365.208 559.249 365.35 559.972 365.633C560.704 365.916 561.31 366.312 561.788 366.819C562.276 367.317 562.643 367.918 562.887 368.621C563.131 369.324 563.253 370.096 563.253 370.936ZM560.587 371.097C560.587 370.511 560.514 369.983 560.367 369.515C560.23 369.036 560.011 368.636 559.708 368.313C559.405 367.981 559.02 367.728 558.551 367.552C558.092 367.366 557.54 367.273 556.896 367.273C556.524 367.273 556.148 367.308 555.768 367.376C555.387 367.444 555.011 367.542 554.64 367.669C554.278 367.786 553.932 367.923 553.6 368.079C553.268 368.235 552.965 368.401 552.691 368.577C552.691 369.837 552.779 370.892 552.955 371.741C553.131 372.581 553.39 373.255 553.731 373.763C554.083 374.271 554.513 374.632 555.021 374.847C555.528 375.062 556.114 375.169 556.778 375.169C557.335 375.169 557.843 375.081 558.302 374.905C558.771 374.72 559.171 374.451 559.503 374.1C559.845 373.748 560.108 373.323 560.294 372.825C560.489 372.317 560.587 371.741 560.587 371.097Z" fill="black"/>
<circle cx="25" cy="25" r="23.75" transform="matrix(-1 0 0 1 623 427)" fill="white" stroke="black" stroke-width="2.5"/>
<path d="M604.916 446.228L596.889 463H593.974L602.309 446.228H591.967V443.854H604.916V446.228Z" fill="black"/>
<path d="M347.916 279.351C347.916 281.216 347.691 282.822 347.242 284.17C346.793 285.508 346.129 286.611 345.25 287.48C344.371 288.34 343.282 288.975 341.983 289.385C340.685 289.795 339.186 290 337.486 290H335.89V287.773H337.662C338.922 287.773 340.011 287.646 340.929 287.393C341.847 287.139 342.608 286.768 343.214 286.279C343.829 285.781 344.298 285.181 344.62 284.478C344.942 283.765 345.143 282.954 345.221 282.046L345.279 281.445C344.664 281.807 343.956 282.1 343.155 282.324C342.354 282.539 341.485 282.646 340.548 282.646C339.581 282.646 338.731 282.505 337.999 282.222C337.267 281.938 336.656 281.543 336.168 281.035C335.689 280.527 335.328 279.927 335.084 279.233C334.84 278.53 334.718 277.769 334.718 276.948C334.718 276.06 334.879 275.229 335.201 274.458C335.523 273.687 335.973 273.018 336.549 272.451C337.135 271.875 337.833 271.421 338.644 271.089C339.454 270.757 340.348 270.591 341.324 270.591C342.271 270.591 343.146 270.747 343.946 271.06C344.757 271.372 345.455 271.88 346.041 272.583C346.627 273.276 347.086 274.18 347.418 275.293C347.75 276.406 347.916 277.759 347.916 279.351ZM341.207 272.686C340.66 272.686 340.152 272.778 339.684 272.964C339.225 273.14 338.824 273.403 338.482 273.755C338.15 274.097 337.887 274.521 337.691 275.029C337.496 275.537 337.398 276.118 337.398 276.772C337.398 277.368 337.467 277.9 337.604 278.369C337.75 278.838 337.97 279.238 338.263 279.57C338.565 279.893 338.951 280.142 339.42 280.317C339.889 280.493 340.445 280.581 341.09 280.581C341.451 280.581 341.822 280.547 342.203 280.479C342.594 280.41 342.97 280.317 343.331 280.2C343.702 280.083 344.054 279.946 344.386 279.79C344.718 279.634 345.016 279.468 345.279 279.292C345.279 278.032 345.187 276.982 345.001 276.143C344.815 275.293 344.547 274.614 344.195 274.106C343.844 273.589 343.414 273.223 342.906 273.008C342.408 272.793 341.842 272.686 341.207 272.686Z" fill="black"/>
<path d="M98 129L128 159M128 129L98 159" stroke="#FF0000" stroke-width="4" stroke-linecap="round" stroke-linejoin="round"/>
<path d="M733 129L763 159M763 129L733 159" stroke="#FF0000" stroke-width="4" stroke-linecap="round" stroke-linejoin="round"/>
<path d="M412 129L442 159M442 129L412 159" stroke="#FF0000" stroke-width="4" stroke-linecap="round" stroke-linejoin="round"/>
</g>
<defs>
<clipPath id="clip0_6290_711">
<rect width="945" height="568" fill="white"/>
</clipPath>
</defs>
</svg>
