<svg width="712" height="230" viewBox="0 0 712 230" fill="none" xmlns="http://www.w3.org/2000/svg">
<rect width="712" height="230" fill="white"/>
<path d="M17.1465 32.5293C17.1465 33.6719 16.9854 34.7217 16.6631 35.6787C16.3408 36.626 15.877 37.4414 15.2715 38.125C14.666 38.7988 13.9287 39.3262 13.0596 39.707C12.1904 40.0781 11.2041 40.2637 10.1006 40.2637C9.0459 40.2637 8.09863 40.1025 7.25879 39.7803C6.42871 39.4482 5.7207 38.9648 5.13477 38.3301C4.55859 37.6953 4.11426 36.9092 3.80176 35.9717C3.49902 35.0342 3.34766 33.9551 3.34766 32.7344C3.34766 31.5918 3.50879 30.5518 3.83105 29.6143C4.15332 28.667 4.61719 27.8564 5.22266 27.1826C5.82812 26.499 6.56543 25.9717 7.43457 25.6006C8.30371 25.2197 9.29004 25.0293 10.3936 25.0293C11.4482 25.0293 12.3906 25.1953 13.2207 25.5273C14.0605 25.8496 14.7686 26.3281 15.3447 26.9629C15.9307 27.5879 16.375 28.3691 16.6777 29.3066C16.9902 30.2441 17.1465 31.3184 17.1465 32.5293ZM14.5391 32.6465C14.5391 31.7383 14.4365 30.9473 14.2314 30.2734C14.0361 29.5898 13.7529 29.0234 13.3818 28.5742C13.0107 28.1152 12.5566 27.7734 12.0195 27.5488C11.4922 27.3145 10.9014 27.1973 10.2471 27.1973C9.48535 27.1973 8.83105 27.3486 8.28418 27.6514C7.74707 27.9443 7.30273 28.3398 6.95117 28.8379C6.60938 29.3359 6.35547 29.917 6.18945 30.5811C6.0332 31.2354 5.95508 31.9238 5.95508 32.6465C5.95508 33.5547 6.05273 34.3506 6.24805 35.0342C6.45312 35.7178 6.74121 36.2891 7.1123 36.748C7.4834 37.1973 7.93262 37.5391 8.45996 37.7734C8.9873 37.998 9.58301 38.1104 10.2471 38.1104C11.0088 38.1104 11.6582 37.9639 12.1953 37.6709C12.7422 37.3682 13.1865 36.9678 13.5283 36.4697C13.8799 35.9717 14.1338 35.3955 14.29 34.7412C14.4561 34.0771 14.5391 33.3789 14.5391 32.6465ZM21.4385 25.293H23.7676L23.8408 28.0029C24.71 26.958 25.5645 26.2012 26.4043 25.7324C27.2539 25.2637 28.1084 25.0293 28.9678 25.0293C30.4912 25.0293 31.6436 25.5225 32.4248 26.5088C33.2158 27.4951 33.582 28.96 33.5234 30.9033H30.9453C30.9746 29.6143 30.7842 28.6816 30.374 28.1055C29.9736 27.5195 29.3828 27.2266 28.6016 27.2266C28.2598 27.2266 27.9131 27.29 27.5615 27.417C27.2197 27.5342 26.8633 27.7295 26.4922 28.0029C26.1309 28.2666 25.7451 28.6084 25.335 29.0283C24.9248 29.4482 24.4854 29.9561 24.0166 30.5518V40H21.4385V25.293ZM42.3418 27.4023H37.9912V25.293H44.9199V37.876H49.2998V40H37.5078V37.876H42.3418V27.4023ZM43.2354 19.126C43.5186 19.126 43.7822 19.1797 44.0264 19.2871C44.2705 19.3848 44.4805 19.5264 44.6562 19.7119C44.8418 19.8975 44.9834 20.1123 45.0811 20.3564C45.1885 20.5908 45.2422 20.8496 45.2422 21.1328C45.2422 21.4062 45.1885 21.665 45.0811 21.9092C44.9834 22.1533 44.8418 22.3682 44.6562 22.5537C44.4805 22.7393 44.2705 22.8857 44.0264 22.9932C43.7822 23.0908 43.5186 23.1396 43.2354 23.1396C42.9521 23.1396 42.6885 23.0908 42.4443 22.9932C42.2002 22.8857 41.9854 22.7393 41.7998 22.5537C41.624 22.3682 41.4824 22.1533 41.375 21.9092C41.2773 21.665 41.2285 21.4062 41.2285 21.1328C41.2285 20.8496 41.2773 20.5908 41.375 20.3564C41.4824 20.1123 41.624 19.8975 41.7998 19.7119C41.9854 19.5264 42.2002 19.3848 42.4443 19.2871C42.6885 19.1797 42.9521 19.126 43.2354 19.126ZM64.417 27.373C64.6904 27.7148 64.9004 28.1152 65.0469 28.5742C65.2031 29.0234 65.2812 29.5117 65.2812 30.0391C65.2812 30.8008 65.1396 31.499 64.8564 32.1338C64.583 32.7588 64.1924 33.2959 63.6846 33.7451C63.1768 34.1943 62.5664 34.5459 61.8535 34.7998C61.1504 35.0439 60.374 35.166 59.5244 35.166C58.9092 35.166 58.333 35.1025 57.7959 34.9756C57.2588 34.8389 56.834 34.6729 56.5215 34.4775C56.3359 34.751 56.1797 35.0098 56.0527 35.2539C55.9258 35.498 55.8623 35.7715 55.8623 36.0742C55.8623 36.4453 56.0381 36.7529 56.3896 36.9971C56.751 37.2412 57.2246 37.373 57.8105 37.3926L61.6777 37.5391C62.4102 37.5586 63.084 37.6514 63.6992 37.8174C64.3242 37.9834 64.8564 38.2227 65.2959 38.5352C65.7451 38.8477 66.0918 39.2334 66.3359 39.6924C66.5898 40.1514 66.7168 40.6836 66.7168 41.2891C66.7168 41.9434 66.5752 42.5635 66.292 43.1494C66.0088 43.7354 65.5693 44.248 64.9736 44.6875C64.3877 45.1367 63.6406 45.4932 62.7324 45.7568C61.8242 46.0205 60.7451 46.1523 59.4951 46.1523C58.3037 46.1523 57.2881 46.0547 56.4482 45.8594C55.6182 45.6738 54.9346 45.4102 54.3975 45.0684C53.8604 44.7363 53.4697 44.3359 53.2256 43.8672C52.9814 43.4082 52.8594 42.9004 52.8594 42.3438C52.8594 41.6309 53.0254 41.0059 53.3574 40.4688C53.6895 39.9316 54.2021 39.4141 54.8955 38.916C54.6416 38.7988 54.4219 38.6523 54.2363 38.4766C54.0508 38.3008 53.8994 38.1104 53.7822 37.9053C53.665 37.6904 53.5771 37.4658 53.5186 37.2314C53.46 36.9971 53.4307 36.7676 53.4307 36.543C53.4307 35.9082 53.5771 35.3271 53.8701 34.7998C54.1729 34.2725 54.5293 33.7744 54.9395 33.3057C54.7539 33.0811 54.5879 32.8613 54.4414 32.6465C54.3047 32.4316 54.1826 32.2021 54.0752 31.958C53.9775 31.7041 53.8994 31.4355 53.8408 31.1523C53.792 30.8594 53.7676 30.5273 53.7676 30.1562C53.7676 29.3945 53.9043 28.7012 54.1777 28.0762C54.4609 27.4414 54.8516 26.8994 55.3496 26.4502C55.8574 26.001 56.4629 25.6543 57.166 25.4102C57.8789 25.1562 58.665 25.0293 59.5244 25.0293C59.8857 25.0293 60.2324 25.0537 60.5645 25.1025C60.8965 25.1514 61.1895 25.2148 61.4434 25.293H66.7754V27.373H64.417ZM55.5693 42.124C55.5693 42.8174 55.9307 43.3203 56.6533 43.6328C57.376 43.9551 58.3818 44.1162 59.6709 44.1162C60.4814 44.1162 61.1602 44.043 61.707 43.8965C62.2637 43.75 62.708 43.5547 63.04 43.3105C63.3818 43.0762 63.626 42.8027 63.7725 42.4902C63.9189 42.1875 63.9922 41.875 63.9922 41.5527C63.9922 40.957 63.748 40.5176 63.2598 40.2344C62.7715 39.9512 62.0244 39.7852 61.0186 39.7363L57.1807 39.6045C56.8584 39.8193 56.5898 40.0293 56.375 40.2344C56.1699 40.4395 56.0088 40.6445 55.8916 40.8496C55.7744 41.0645 55.6914 41.2744 55.6426 41.4795C55.5938 41.6943 55.5693 41.9092 55.5693 42.124ZM56.3457 30.0977C56.3457 30.5664 56.4238 30.9961 56.5801 31.3867C56.7363 31.7773 56.9561 32.1094 57.2393 32.3828C57.5225 32.6562 57.8545 32.8711 58.2354 33.0273C58.626 33.1738 59.0557 33.2471 59.5244 33.2471C60.0322 33.2471 60.4814 33.1641 60.8721 32.998C61.2725 32.8223 61.6045 32.5879 61.8682 32.2949C62.1416 32.002 62.3467 31.665 62.4834 31.2842C62.6299 30.9033 62.7031 30.5078 62.7031 30.0977C62.7031 29.6289 62.625 29.1992 62.4688 28.8086C62.3125 28.418 62.0928 28.0859 61.8096 27.8125C61.5264 27.5391 61.1895 27.3291 60.7988 27.1826C60.418 27.0264 59.9932 26.9482 59.5244 26.9482C59.0166 26.9482 58.5625 27.0361 58.1621 27.2119C57.7715 27.3877 57.4395 27.6221 57.166 27.915C56.9023 28.1982 56.6973 28.5303 56.5508 28.9111C56.4141 29.292 56.3457 29.6875 56.3457 30.0977ZM75.3301 27.4023H70.9795V25.293H77.9082V37.876H82.2881V40H70.4961V37.876H75.3301V27.4023ZM76.2236 19.126C76.5068 19.126 76.7705 19.1797 77.0146 19.2871C77.2588 19.3848 77.4688 19.5264 77.6445 19.7119C77.8301 19.8975 77.9717 20.1123 78.0693 20.3564C78.1768 20.5908 78.2305 20.8496 78.2305 21.1328C78.2305 21.4062 78.1768 21.665 78.0693 21.9092C77.9717 22.1533 77.8301 22.3682 77.6445 22.5537C77.4688 22.7393 77.2588 22.8857 77.0146 22.9932C76.7705 23.0908 76.5068 23.1396 76.2236 23.1396C75.9404 23.1396 75.6768 23.0908 75.4326 22.9932C75.1885 22.8857 74.9736 22.7393 74.7881 22.5537C74.6123 22.3682 74.4707 22.1533 74.3633 21.9092C74.2656 21.665 74.2168 21.4062 74.2168 21.1328C74.2168 20.8496 74.2656 20.5908 74.3633 20.3564C74.4707 20.1123 74.6123 19.8975 74.7881 19.7119C74.9736 19.5264 75.1885 19.3848 75.4326 19.2871C75.6768 19.1797 75.9404 19.126 76.2236 19.126ZM86.8145 25.293H89.085L89.1875 27.666C89.6172 27.1582 90.0322 26.7383 90.4326 26.4062C90.833 26.0645 91.2236 25.791 91.6045 25.5859C91.9951 25.3809 92.3906 25.2393 92.791 25.1611C93.1914 25.0732 93.6064 25.0293 94.0361 25.0293C95.5498 25.0293 96.6924 25.4785 97.4639 26.377C98.2451 27.2656 98.6357 28.6084 98.6357 30.4053V40H96.0869V30.6104C96.0869 29.458 95.8721 28.6084 95.4424 28.0615C95.0127 27.5049 94.373 27.2266 93.5234 27.2266C93.2109 27.2266 92.9033 27.2754 92.6006 27.373C92.3076 27.4609 92 27.6221 91.6777 27.8564C91.3555 28.0811 91.0039 28.3887 90.623 28.7793C90.252 29.1699 89.832 29.6582 89.3633 30.2441V40H86.8145V25.293ZM112.757 40L112.698 38.0225C111.897 38.8135 111.082 39.3848 110.252 39.7363C109.432 40.0879 108.567 40.2637 107.659 40.2637C106.819 40.2637 106.102 40.1562 105.506 39.9414C104.91 39.7266 104.417 39.4336 104.026 39.0625C103.646 38.6816 103.362 38.2373 103.177 37.7295C103.001 37.2217 102.913 36.6699 102.913 36.0742C102.913 34.5996 103.46 33.4473 104.554 32.6172C105.657 31.7773 107.283 31.3574 109.432 31.3574H112.479V30.0684C112.479 29.1992 112.2 28.5059 111.644 27.9883C111.087 27.4609 110.237 27.1973 109.095 27.1973C108.265 27.1973 107.444 27.29 106.634 27.4756C105.833 27.6611 105.003 27.9248 104.144 28.2666V25.9668C104.466 25.8496 104.822 25.7373 105.213 25.6299C105.613 25.5127 106.033 25.4102 106.473 25.3223C106.912 25.2344 107.371 25.166 107.85 25.1172C108.328 25.0586 108.812 25.0293 109.3 25.0293C110.188 25.0293 110.989 25.127 111.702 25.3223C112.415 25.5176 113.016 25.8154 113.504 26.2158C114.002 26.6162 114.383 27.1191 114.646 27.7246C114.91 28.3301 115.042 29.043 115.042 29.8633V40H112.757ZM112.479 33.3057H109.241C108.606 33.3057 108.06 33.3691 107.601 33.4961C107.142 33.623 106.766 33.8037 106.473 34.0381C106.18 34.2725 105.96 34.5557 105.813 34.8877C105.677 35.21 105.608 35.5762 105.608 35.9863C105.608 36.2695 105.652 36.543 105.74 36.8066C105.828 37.0605 105.97 37.29 106.165 37.4951C106.36 37.6904 106.614 37.8467 106.927 37.9639C107.239 38.0811 107.62 38.1396 108.069 38.1396C108.655 38.1396 109.324 37.9639 110.076 37.6123C110.838 37.251 111.639 36.6846 112.479 35.9131V33.3057ZM124.812 21.3965H120.462V19.3018H127.391V37.876H131.771V40H119.979V37.876H124.812V21.3965ZM142.2 25.0293C142.503 25.0293 142.791 25.0928 143.064 25.2197C143.338 25.3369 143.577 25.498 143.782 25.7031C143.987 25.9082 144.148 26.1475 144.266 26.4209C144.393 26.6943 144.456 26.9824 144.456 27.2852C144.456 27.5977 144.393 27.8906 144.266 28.1641C144.148 28.4277 143.987 28.6621 143.782 28.8672C143.577 29.0723 143.338 29.2334 143.064 29.3506C142.791 29.4678 142.503 29.5264 142.2 29.5264C141.888 29.5264 141.595 29.4678 141.321 29.3506C141.058 29.2334 140.823 29.0723 140.618 28.8672C140.413 28.6621 140.252 28.4277 140.135 28.1641C140.018 27.8906 139.959 27.5977 139.959 27.2852C139.959 26.9824 140.018 26.6943 140.135 26.4209C140.252 26.1475 140.413 25.9082 140.618 25.7031C140.823 25.498 141.058 25.3369 141.321 25.2197C141.595 25.0928 141.888 25.0293 142.2 25.0293ZM142.2 35.7666C142.503 35.7666 142.791 35.8301 143.064 35.957C143.338 36.0742 143.577 36.2354 143.782 36.4404C143.987 36.6455 144.148 36.8848 144.266 37.1582C144.393 37.4316 144.456 37.7197 144.456 38.0225C144.456 38.335 144.393 38.6279 144.266 38.9014C144.148 39.165 143.987 39.3994 143.782 39.6045C143.577 39.8096 143.338 39.9707 143.064 40.0879C142.791 40.2051 142.503 40.2637 142.2 40.2637C141.888 40.2637 141.595 40.2051 141.321 40.0879C141.058 39.9707 140.823 39.8096 140.618 39.6045C140.413 39.3994 140.252 39.165 140.135 38.9014C140.018 38.6279 139.959 38.335 139.959 38.0225C139.959 37.7197 140.018 37.4316 140.135 37.1582C140.252 36.8848 140.413 36.6455 140.618 36.4404C140.823 36.2354 141.058 36.0742 141.321 35.957C141.595 35.8301 141.888 35.7666 142.2 35.7666Z" fill="#666666"/>
<path d="M13.6162 130.903C13.6357 130.347 13.6064 129.873 13.5283 129.482C13.46 129.092 13.3428 128.77 13.1768 128.516C13.0205 128.262 12.8252 128.076 12.5908 127.959C12.3564 127.842 12.0879 127.783 11.7852 127.783C11.2578 127.783 10.7109 128.003 10.1445 128.442C9.58789 128.872 8.97266 129.585 8.29883 130.581V140H4.63672V125.117H7.87402L8.00586 127.285C8.25 126.904 8.52344 126.562 8.82617 126.26C9.13867 125.957 9.48047 125.698 9.85156 125.483C10.2324 125.259 10.6523 125.088 11.1113 124.971C11.5703 124.854 12.0732 124.795 12.6201 124.795C13.3721 124.795 14.0361 124.927 14.6123 125.19C15.1982 125.444 15.6865 125.825 16.0771 126.333C16.4775 126.841 16.7705 127.48 16.9561 128.252C17.1514 129.014 17.2344 129.897 17.2051 130.903H13.6162ZM33.4941 131.416C33.4941 131.66 33.4844 131.978 33.4648 132.368C33.4551 132.759 33.4355 133.125 33.4062 133.467H23.6211C23.6211 134.121 23.7188 134.697 23.9141 135.195C24.1191 135.693 24.4023 136.113 24.7637 136.455C25.1348 136.787 25.5742 137.041 26.082 137.217C26.5996 137.393 27.1709 137.48 27.7959 137.48C28.5186 137.48 29.29 137.427 30.1104 137.319C30.9404 137.202 31.7998 137.017 32.6885 136.763V139.604C32.3076 139.712 31.8926 139.81 31.4434 139.897C30.9941 139.985 30.5352 140.063 30.0664 140.132C29.5977 140.2 29.124 140.249 28.6455 140.278C28.167 140.317 27.7031 140.337 27.2539 140.337C26.1211 140.337 25.1055 140.176 24.207 139.854C23.3086 139.531 22.5469 139.058 21.9219 138.433C21.2969 137.798 20.8184 137.017 20.4863 136.089C20.1543 135.161 19.9883 134.087 19.9883 132.866C19.9883 131.655 20.1543 130.557 20.4863 129.57C20.8184 128.574 21.2871 127.725 21.8926 127.021C22.498 126.309 23.2305 125.762 24.0898 125.381C24.959 124.99 25.9258 124.795 26.9902 124.795C28.0449 124.795 28.9775 124.961 29.7881 125.293C30.5986 125.615 31.2773 126.069 31.8242 126.655C32.3711 127.241 32.7861 127.939 33.0693 128.75C33.3525 129.561 33.4941 130.449 33.4941 131.416ZM29.8613 130.903C29.8711 130.317 29.7979 129.81 29.6416 129.38C29.4854 128.94 29.2705 128.579 28.9971 128.296C28.7334 128.013 28.4209 127.803 28.0596 127.666C27.708 127.529 27.3271 127.461 26.917 127.461C26.0186 127.461 25.2812 127.764 24.7051 128.369C24.1289 128.965 23.7871 129.81 23.6797 130.903H29.8613ZM45.3447 140H41.2285L35.3252 125.117H39.3096L42.4004 133.555L43.3232 136.279L44.2314 133.672L47.3516 125.117H51.1895L45.3447 140ZM66.4824 131.416C66.4824 131.66 66.4727 131.978 66.4531 132.368C66.4434 132.759 66.4238 133.125 66.3945 133.467H56.6094C56.6094 134.121 56.707 134.697 56.9023 135.195C57.1074 135.693 57.3906 136.113 57.752 136.455C58.123 136.787 58.5625 137.041 59.0703 137.217C59.5879 137.393 60.1592 137.48 60.7842 137.48C61.5068 137.48 62.2783 137.427 63.0986 137.319C63.9287 137.202 64.7881 137.017 65.6768 136.763V139.604C65.2959 139.712 64.8809 139.81 64.4316 139.897C63.9824 139.985 63.5234 140.063 63.0547 140.132C62.5859 140.2 62.1123 140.249 61.6338 140.278C61.1553 140.317 60.6914 140.337 60.2422 140.337C59.1094 140.337 58.0938 140.176 57.1953 139.854C56.2969 139.531 55.5352 139.058 54.9102 138.433C54.2852 137.798 53.8066 137.017 53.4746 136.089C53.1426 135.161 52.9766 134.087 52.9766 132.866C52.9766 131.655 53.1426 130.557 53.4746 129.57C53.8066 128.574 54.2754 127.725 54.8809 127.021C55.4863 126.309 56.2188 125.762 57.0781 125.381C57.9473 124.99 58.9141 124.795 59.9785 124.795C61.0332 124.795 61.9658 124.961 62.7764 125.293C63.5869 125.615 64.2656 126.069 64.8125 126.655C65.3594 127.241 65.7744 127.939 66.0576 128.75C66.3408 129.561 66.4824 130.449 66.4824 131.416ZM62.8496 130.903C62.8594 130.317 62.7861 129.81 62.6299 129.38C62.4736 128.94 62.2588 128.579 61.9854 128.296C61.7217 128.013 61.4092 127.803 61.0479 127.666C60.6963 127.529 60.3154 127.461 59.9053 127.461C59.0068 127.461 58.2695 127.764 57.6934 128.369C57.1172 128.965 56.7754 129.81 56.668 130.903H62.8496ZM79.5928 130.903C79.6123 130.347 79.583 129.873 79.5049 129.482C79.4365 129.092 79.3193 128.77 79.1533 128.516C78.9971 128.262 78.8018 128.076 78.5674 127.959C78.333 127.842 78.0645 127.783 77.7617 127.783C77.2344 127.783 76.6875 128.003 76.1211 128.442C75.5645 128.872 74.9492 129.585 74.2754 130.581V140H70.6133V125.117H73.8506L73.9824 127.285C74.2266 126.904 74.5 126.562 74.8027 126.26C75.1152 125.957 75.457 125.698 75.8281 125.483C76.209 125.259 76.6289 125.088 77.0879 124.971C77.5469 124.854 78.0498 124.795 78.5967 124.795C79.3486 124.795 80.0127 124.927 80.5889 125.19C81.1748 125.444 81.6631 125.825 82.0537 126.333C82.4541 126.841 82.7471 127.48 82.9326 128.252C83.1279 129.014 83.2109 129.897 83.1816 130.903H79.5928ZM98.7822 135.62C98.7822 136.47 98.5918 137.197 98.2109 137.803C97.8398 138.398 97.3418 138.887 96.7168 139.268C96.1016 139.639 95.3984 139.907 94.6074 140.073C93.8262 140.249 93.0254 140.337 92.2051 140.337C91.1113 140.337 90.125 140.283 89.2461 140.176C88.3672 140.078 87.5371 139.932 86.7559 139.736V136.514C87.6738 136.895 88.5869 137.173 89.4951 137.349C90.4131 137.515 91.2773 137.598 92.0879 137.598C93.0254 137.598 93.7236 137.451 94.1826 137.158C94.6514 136.855 94.8857 136.465 94.8857 135.986C94.8857 135.762 94.8369 135.557 94.7393 135.371C94.6416 135.186 94.4561 135.01 94.1826 134.844C93.9189 134.668 93.543 134.492 93.0547 134.316C92.5664 134.131 91.9268 133.926 91.1357 133.701C90.4033 133.496 89.7588 133.267 89.2021 133.013C88.6553 132.749 88.2012 132.441 87.8398 132.09C87.4785 131.738 87.2051 131.333 87.0195 130.874C86.8438 130.405 86.7559 129.858 86.7559 129.233C86.7559 128.628 86.8926 128.057 87.166 127.52C87.4395 126.982 87.8447 126.514 88.3818 126.113C88.9287 125.703 89.6074 125.381 90.418 125.146C91.2285 124.912 92.1758 124.795 93.2598 124.795C94.1973 124.795 95.0273 124.844 95.75 124.941C96.4727 125.039 97.1123 125.146 97.6689 125.264V128.179C96.8193 127.905 96.0186 127.715 95.2666 127.607C94.5244 127.49 93.7871 127.432 93.0547 127.432C92.3223 127.432 91.7314 127.563 91.2822 127.827C90.8428 128.091 90.623 128.457 90.623 128.926C90.623 129.15 90.667 129.351 90.7549 129.526C90.8428 129.702 91.0137 129.873 91.2676 130.039C91.5312 130.205 91.8926 130.381 92.3516 130.566C92.8203 130.742 93.4355 130.938 94.1973 131.152C95.0566 131.396 95.7793 131.66 96.3652 131.943C96.9512 132.217 97.4199 132.529 97.7715 132.881C98.1328 133.232 98.3916 133.633 98.5479 134.082C98.7041 134.531 98.7822 135.044 98.7822 135.62ZM115.965 131.416C115.965 131.66 115.955 131.978 115.936 132.368C115.926 132.759 115.906 133.125 115.877 133.467H106.092C106.092 134.121 106.189 134.697 106.385 135.195C106.59 135.693 106.873 136.113 107.234 136.455C107.605 136.787 108.045 137.041 108.553 137.217C109.07 137.393 109.642 137.48 110.267 137.48C110.989 137.48 111.761 137.427 112.581 137.319C113.411 137.202 114.271 137.017 115.159 136.763V139.604C114.778 139.712 114.363 139.81 113.914 139.897C113.465 139.985 113.006 140.063 112.537 140.132C112.068 140.2 111.595 140.249 111.116 140.278C110.638 140.317 110.174 140.337 109.725 140.337C108.592 140.337 107.576 140.176 106.678 139.854C105.779 139.531 105.018 139.058 104.393 138.433C103.768 137.798 103.289 137.017 102.957 136.089C102.625 135.161 102.459 134.087 102.459 132.866C102.459 131.655 102.625 130.557 102.957 129.57C103.289 128.574 103.758 127.725 104.363 127.021C104.969 126.309 105.701 125.762 106.561 125.381C107.43 124.99 108.396 124.795 109.461 124.795C110.516 124.795 111.448 124.961 112.259 125.293C113.069 125.615 113.748 126.069 114.295 126.655C114.842 127.241 115.257 127.939 115.54 128.75C115.823 129.561 115.965 130.449 115.965 131.416ZM112.332 130.903C112.342 130.317 112.269 129.81 112.112 129.38C111.956 128.94 111.741 128.579 111.468 128.296C111.204 128.013 110.892 127.803 110.53 127.666C110.179 127.529 109.798 127.461 109.388 127.461C108.489 127.461 107.752 127.764 107.176 128.369C106.6 128.965 106.258 129.81 106.15 130.903H112.332ZM128.855 140L128.768 137.803C128.455 138.184 128.133 138.53 127.801 138.843C127.469 139.155 127.112 139.424 126.731 139.648C126.351 139.863 125.94 140.029 125.501 140.146C125.071 140.273 124.593 140.337 124.065 140.337C123.187 140.337 122.405 140.161 121.722 139.81C121.038 139.458 120.462 138.96 119.993 138.315C119.534 137.661 119.183 136.87 118.938 135.942C118.694 135.015 118.572 133.979 118.572 132.837C118.572 131.47 118.763 130.288 119.144 129.292C119.534 128.286 120.071 127.456 120.755 126.802C121.438 126.138 122.249 125.649 123.187 125.337C124.124 125.015 125.145 124.854 126.248 124.854C126.619 124.854 126.99 124.878 127.361 124.927C127.742 124.976 128.079 125.039 128.372 125.117V119.302H131.946V140H128.855ZM122.322 132.676C122.322 133.496 122.376 134.199 122.483 134.785C122.601 135.361 122.767 135.835 122.981 136.206C123.206 136.577 123.479 136.851 123.802 137.026C124.124 137.192 124.49 137.275 124.9 137.275C125.506 137.275 126.082 137.031 126.629 136.543C127.176 136.055 127.757 135.386 128.372 134.536V128.032C128.089 127.925 127.737 127.837 127.317 127.769C126.907 127.7 126.492 127.666 126.072 127.666C125.496 127.666 124.979 127.783 124.52 128.018C124.061 128.252 123.665 128.584 123.333 129.014C123.011 129.443 122.762 129.971 122.586 130.596C122.41 131.211 122.322 131.904 122.322 132.676ZM142.2 124.971C142.571 124.971 142.918 125.039 143.24 125.176C143.562 125.312 143.841 125.503 144.075 125.747C144.31 125.981 144.495 126.26 144.632 126.582C144.769 126.904 144.837 127.246 144.837 127.607C144.837 127.979 144.769 128.325 144.632 128.647C144.495 128.97 144.31 129.248 144.075 129.482C143.841 129.717 143.562 129.902 143.24 130.039C142.918 130.176 142.571 130.244 142.2 130.244C141.829 130.244 141.482 130.176 141.16 130.039C140.848 129.902 140.569 129.717 140.325 129.482C140.091 129.248 139.905 128.97 139.769 128.647C139.632 128.325 139.563 127.979 139.563 127.607C139.563 127.246 139.632 126.904 139.769 126.582C139.905 126.26 140.091 125.981 140.325 125.747C140.569 125.503 140.848 125.312 141.16 125.176C141.482 125.039 141.829 124.971 142.2 124.971ZM142.2 135.063C142.571 135.063 142.918 135.132 143.24 135.269C143.562 135.405 143.841 135.591 144.075 135.825C144.31 136.06 144.495 136.338 144.632 136.66C144.769 136.982 144.837 137.324 144.837 137.686C144.837 138.057 144.769 138.403 144.632 138.726C144.495 139.048 144.31 139.331 144.075 139.575C143.841 139.81 143.562 139.995 143.24 140.132C142.918 140.269 142.571 140.337 142.2 140.337C141.829 140.337 141.482 140.269 141.16 140.132C140.848 139.995 140.569 139.81 140.325 139.575C140.091 139.331 139.905 139.048 139.769 138.726C139.632 138.403 139.563 138.057 139.563 137.686C139.563 137.324 139.632 136.982 139.769 136.66C139.905 136.338 140.091 136.06 140.325 135.825C140.569 135.591 140.848 135.405 141.16 135.269C141.482 135.132 141.829 135.063 142.2 135.063Z" fill="#FF5500"/>
<line x1="113" y1="199" x2="143" y2="199" stroke="black" stroke-width="2"/>
<line x1="113" y1="208" x2="143" y2="208" stroke="black" stroke-width="2"/>
<circle cx="194" cy="33" r="23.75" stroke="black" stroke-width="2.5"/>
<path d="M200.857 43H188.831V40.627H193.753V26.6523L189.168 29.1426L188.23 26.9746L194.324 23.7666H196.58V40.627H200.857V43Z" fill="black"/>
<path d="M288.884 33.8839C289.372 33.3957 289.372 32.6043 288.884 32.1161L280.929 24.1612C280.441 23.673 279.649 23.673 279.161 24.1612C278.673 24.6493 278.673 25.4408 279.161 25.9289L286.232 33L279.161 40.0711C278.673 40.5592 278.673 41.3507 279.161 41.8388C279.649 42.327 280.441 42.327 280.929 41.8388L288.884 33.8839ZM218 34.25H288V31.75H218V34.25Z" fill="black"/>
<circle cx="316" cy="33" r="23.75" stroke="black" stroke-width="2.5"/>
<path d="M323.019 43H310.406V40.7148L315.357 35.793C316.168 34.9922 316.827 34.2988 317.335 33.7129C317.843 33.127 318.238 32.5947 318.521 32.1162C318.805 31.6279 318.995 31.1689 319.093 30.7393C319.19 30.3096 319.239 29.8457 319.239 29.3477C319.239 28.8789 319.176 28.4346 319.049 28.0146C318.922 27.585 318.727 27.209 318.463 26.8867C318.199 26.5645 317.857 26.3105 317.438 26.125C317.018 25.9395 316.515 25.8467 315.929 25.8467C315.118 25.8467 314.381 26.0273 313.717 26.3887C313.053 26.75 312.442 27.2188 311.886 27.7949L310.479 26.1104C311.202 25.3486 312.032 24.7383 312.97 24.2793C313.917 23.8203 315.016 23.5908 316.266 23.5908C317.115 23.5908 317.887 23.7178 318.58 23.9717C319.283 24.2256 319.889 24.5918 320.396 25.0703C320.904 25.5488 321.295 26.1348 321.568 26.8281C321.852 27.5215 321.993 28.3027 321.993 29.1719C321.993 29.9043 321.896 30.583 321.7 31.208C321.505 31.833 321.207 32.458 320.807 33.083C320.416 33.6982 319.918 34.3379 319.312 35.002C318.717 35.666 318.009 36.3936 317.188 37.1846L313.717 40.5684H323.019V43Z" fill="black"/>
<path d="M411.884 33.8839C412.372 33.3957 412.372 32.6043 411.884 32.1161L403.929 24.1612C403.441 23.673 402.649 23.673 402.161 24.1612C401.673 24.6493 401.673 25.4408 402.161 25.9289L409.232 33L402.161 40.0711C401.673 40.5592 401.673 41.3507 402.161 41.8388C402.649 42.327 403.441 42.327 403.929 41.8388L411.884 33.8839ZM341 34.25H411V31.75H341V34.25Z" fill="black"/>
<circle cx="439" cy="33" r="23.75" stroke="black" stroke-width="2.5"/>
<path d="M445.971 38.7666H442.704V43H440.097V38.7666H430.883V36.5254L439.042 23.8545H442.704V36.5254H445.971V38.7666ZM440.097 26.3154L433.432 36.5254H440.097V26.3154Z" fill="black"/>
<path d="M534.884 33.8839C535.372 33.3957 535.372 32.6043 534.884 32.1161L526.929 24.1612C526.441 23.673 525.649 23.673 525.161 24.1612C524.673 24.6493 524.673 25.4408 525.161 25.9289L532.232 33L525.161 40.0711C524.673 40.5592 524.673 41.3507 525.161 41.8388C525.649 42.327 526.441 42.327 526.929 41.8388L534.884 33.8839ZM464 34.25H534V31.75H464V34.25Z" fill="black"/>
<circle cx="562" cy="33" r="23.75" stroke="black" stroke-width="2.5"/>
<path d="M568.916 26.2275L560.889 43H557.974L566.309 26.2275H555.967V23.8545H568.916V26.2275Z" fill="black"/>
<path d="M657.884 33.8839C658.372 33.3957 658.372 32.6043 657.884 32.1161L649.929 24.1612C649.441 23.673 648.649 23.673 648.161 24.1612C647.673 24.6493 647.673 25.4408 648.161 25.9289L655.232 33L648.161 40.0711C647.673 40.5592 647.673 41.3507 648.161 41.8388C648.649 42.327 649.441 42.327 649.929 41.8388L657.884 33.8839ZM587 34.25H657V31.75H587V34.25Z" fill="black"/>
<circle cx="685" cy="33" r="23.75" stroke="black" stroke-width="2.5"/>
<path d="M691.652 37.1846C691.652 38.0244 691.481 38.8154 691.14 39.5576C690.798 40.29 690.285 40.9346 689.602 41.4912C688.918 42.0381 688.059 42.4727 687.023 42.7949C685.988 43.1074 684.782 43.2637 683.405 43.2637C682.644 43.2637 681.96 43.2393 681.354 43.1904C680.749 43.1416 680.183 43.0781 679.655 43V40.7148C680.261 40.8223 680.9 40.9053 681.574 40.9639C682.248 41.0225 682.937 41.0518 683.64 41.0518C684.597 41.0518 685.412 40.9688 686.086 40.8027C686.77 40.627 687.326 40.3779 687.756 40.0557C688.186 39.7334 688.498 39.3428 688.693 38.8838C688.889 38.4248 688.986 37.9072 688.986 37.3311C688.986 36.8037 688.869 36.3447 688.635 35.9541C688.4 35.5635 688.068 35.2363 687.639 34.9727C687.219 34.709 686.711 34.5137 686.115 34.3867C685.529 34.25 684.885 34.1816 684.182 34.1816H681.999V32.0869H684.211C684.787 32.0869 685.31 32.0137 685.778 31.8672C686.257 31.7109 686.662 31.4912 686.994 31.208C687.336 30.9248 687.595 30.5781 687.771 30.168C687.956 29.748 688.049 29.2744 688.049 28.7471C688.049 27.7217 687.736 26.9746 687.111 26.5059C686.486 26.0371 685.568 25.8027 684.357 25.8027C683.713 25.8027 683.049 25.8662 682.365 25.9932C681.682 26.1201 680.949 26.3105 680.168 26.5645V24.3379C680.5 24.2207 680.852 24.1182 681.223 24.0303C681.604 23.9326 681.979 23.8545 682.351 23.7959C682.731 23.7275 683.107 23.6787 683.479 23.6494C683.85 23.6104 684.206 23.5908 684.548 23.5908C685.563 23.5908 686.457 23.7031 687.229 23.9277C688 24.1426 688.645 24.4551 689.162 24.8652C689.68 25.2754 690.07 25.7734 690.334 26.3594C690.598 26.9453 690.729 27.6045 690.729 28.3369C690.729 29.4307 690.446 30.3486 689.88 31.0908C689.323 31.833 688.557 32.4238 687.58 32.8633C688.078 32.9414 688.566 33.0977 689.045 33.332C689.533 33.5664 689.968 33.8691 690.349 34.2402C690.739 34.6016 691.052 35.0312 691.286 35.5293C691.53 36.0273 691.652 36.5791 691.652 37.1846Z" fill="black"/>
<circle cx="194" cy="133" r="23.75" stroke="black" stroke-width="2.5"/>
<path d="M200.857 143H188.831V140.627H193.753V126.652L189.168 129.143L188.23 126.975L194.324 123.767H196.58V140.627H200.857V143Z" fill="black"/>
<path d="M589.116 133.884C588.628 133.396 588.628 132.604 589.116 132.116L597.071 124.161C597.559 123.673 598.351 123.673 598.839 124.161C599.327 124.649 599.327 125.441 598.839 125.929L591.768 133L598.839 140.071C599.327 140.559 599.327 141.351 598.839 141.839C598.351 142.327 597.559 142.327 597.071 141.839L589.116 133.884ZM660 134.25H590V131.75H660V134.25Z" fill="#FF5500"/>
<circle cx="316" cy="133" r="23.75" stroke="black" stroke-width="2.5"/>
<path d="M323.019 143H310.406V140.715L315.357 135.793C316.168 134.992 316.827 134.299 317.335 133.713C317.843 133.127 318.238 132.595 318.521 132.116C318.805 131.628 318.995 131.169 319.093 130.739C319.19 130.31 319.239 129.846 319.239 129.348C319.239 128.879 319.176 128.435 319.049 128.015C318.922 127.585 318.727 127.209 318.463 126.887C318.199 126.564 317.857 126.311 317.438 126.125C317.018 125.939 316.515 125.847 315.929 125.847C315.118 125.847 314.381 126.027 313.717 126.389C313.053 126.75 312.442 127.219 311.886 127.795L310.479 126.11C311.202 125.349 312.032 124.738 312.97 124.279C313.917 123.82 315.016 123.591 316.266 123.591C317.115 123.591 317.887 123.718 318.58 123.972C319.283 124.226 319.889 124.592 320.396 125.07C320.904 125.549 321.295 126.135 321.568 126.828C321.852 127.521 321.993 128.303 321.993 129.172C321.993 129.904 321.896 130.583 321.7 131.208C321.505 131.833 321.207 132.458 320.807 133.083C320.416 133.698 319.918 134.338 319.312 135.002C318.717 135.666 318.009 136.394 317.188 137.185L313.717 140.568H323.019V143Z" fill="black"/>
<path d="M466.116 133.884C465.628 133.396 465.628 132.604 466.116 132.116L474.071 124.161C474.559 123.673 475.351 123.673 475.839 124.161C476.327 124.649 476.327 125.441 475.839 125.929L468.768 133L475.839 140.071C476.327 140.559 476.327 141.351 475.839 141.839C475.351 142.327 474.559 142.327 474.071 141.839L466.116 133.884ZM537 134.25H467V131.75H537V134.25Z" fill="#FF5500"/>
<circle cx="439" cy="133" r="23.75" stroke="black" stroke-width="2.5"/>
<path d="M445.971 138.767H442.704V143H440.097V138.767H430.883V136.525L439.042 123.854H442.704V136.525H445.971V138.767ZM440.097 126.315L433.432 136.525H440.097V126.315Z" fill="black"/>
<path d="M343.116 133.884C342.628 133.396 342.628 132.604 343.116 132.116L351.071 124.161C351.559 123.673 352.351 123.673 352.839 124.161C353.327 124.649 353.327 125.441 352.839 125.929L345.768 133L352.839 140.071C353.327 140.559 353.327 141.351 352.839 141.839C352.351 142.327 351.559 142.327 351.071 141.839L343.116 133.884ZM414 134.25H344V131.75H414V134.25Z" fill="#FF5500"/>
<circle cx="562" cy="133" r="23.75" stroke="black" stroke-width="2.5"/>
<path d="M568.916 126.228L560.889 143H557.974L566.309 126.228H555.967V123.854H568.916V126.228Z" fill="black"/>
<path d="M220.116 133.884C219.628 133.396 219.628 132.604 220.116 132.116L228.071 124.161C228.559 123.673 229.351 123.673 229.839 124.161C230.327 124.649 230.327 125.441 229.839 125.929L222.768 133L229.839 140.071C230.327 140.559 230.327 141.351 229.839 141.839C229.351 142.327 228.559 142.327 228.071 141.839L220.116 133.884ZM291 134.25H221V131.75H291V134.25Z" fill="#FF5500"/>
<circle cx="685" cy="133" r="23.75" stroke="black" stroke-width="2.5"/>
<path d="M691.652 137.185C691.652 138.024 691.481 138.815 691.14 139.558C690.798 140.29 690.285 140.935 689.602 141.491C688.918 142.038 688.059 142.473 687.023 142.795C685.988 143.107 684.782 143.264 683.405 143.264C682.644 143.264 681.96 143.239 681.354 143.19C680.749 143.142 680.183 143.078 679.655 143V140.715C680.261 140.822 680.9 140.905 681.574 140.964C682.248 141.022 682.937 141.052 683.64 141.052C684.597 141.052 685.412 140.969 686.086 140.803C686.77 140.627 687.326 140.378 687.756 140.056C688.186 139.733 688.498 139.343 688.693 138.884C688.889 138.425 688.986 137.907 688.986 137.331C688.986 136.804 688.869 136.345 688.635 135.954C688.4 135.563 688.068 135.236 687.639 134.973C687.219 134.709 686.711 134.514 686.115 134.387C685.529 134.25 684.885 134.182 684.182 134.182H681.999V132.087H684.211C684.787 132.087 685.31 132.014 685.778 131.867C686.257 131.711 686.662 131.491 686.994 131.208C687.336 130.925 687.595 130.578 687.771 130.168C687.956 129.748 688.049 129.274 688.049 128.747C688.049 127.722 687.736 126.975 687.111 126.506C686.486 126.037 685.568 125.803 684.357 125.803C683.713 125.803 683.049 125.866 682.365 125.993C681.682 126.12 680.949 126.311 680.168 126.564V124.338C680.5 124.221 680.852 124.118 681.223 124.03C681.604 123.933 681.979 123.854 682.351 123.796C682.731 123.728 683.107 123.679 683.479 123.649C683.85 123.61 684.206 123.591 684.548 123.591C685.563 123.591 686.457 123.703 687.229 123.928C688 124.143 688.645 124.455 689.162 124.865C689.68 125.275 690.07 125.773 690.334 126.359C690.598 126.945 690.729 127.604 690.729 128.337C690.729 129.431 690.446 130.349 689.88 131.091C689.323 131.833 688.557 132.424 687.58 132.863C688.078 132.941 688.566 133.098 689.045 133.332C689.533 133.566 689.968 133.869 690.349 134.24C690.739 134.602 691.052 135.031 691.286 135.529C691.53 136.027 691.652 136.579 691.652 137.185Z" fill="black"/>
<circle cx="194" cy="203" r="23.75" stroke="black" stroke-width="2.5"/>
<path d="M200.652 207.185C200.652 208.024 200.481 208.815 200.14 209.558C199.798 210.29 199.285 210.935 198.602 211.491C197.918 212.038 197.059 212.473 196.023 212.795C194.988 213.107 193.782 213.264 192.405 213.264C191.644 213.264 190.96 213.239 190.354 213.19C189.749 213.142 189.183 213.078 188.655 213V210.715C189.261 210.822 189.9 210.905 190.574 210.964C191.248 211.022 191.937 211.052 192.64 211.052C193.597 211.052 194.412 210.969 195.086 210.803C195.77 210.627 196.326 210.378 196.756 210.056C197.186 209.733 197.498 209.343 197.693 208.884C197.889 208.425 197.986 207.907 197.986 207.331C197.986 206.804 197.869 206.345 197.635 205.954C197.4 205.563 197.068 205.236 196.639 204.973C196.219 204.709 195.711 204.514 195.115 204.387C194.529 204.25 193.885 204.182 193.182 204.182H190.999V202.087H193.211C193.787 202.087 194.31 202.014 194.778 201.867C195.257 201.711 195.662 201.491 195.994 201.208C196.336 200.925 196.595 200.578 196.771 200.168C196.956 199.748 197.049 199.274 197.049 198.747C197.049 197.722 196.736 196.975 196.111 196.506C195.486 196.037 194.568 195.803 193.357 195.803C192.713 195.803 192.049 195.866 191.365 195.993C190.682 196.12 189.949 196.311 189.168 196.564V194.338C189.5 194.221 189.852 194.118 190.223 194.03C190.604 193.933 190.979 193.854 191.351 193.796C191.731 193.728 192.107 193.679 192.479 193.649C192.85 193.61 193.206 193.591 193.548 193.591C194.563 193.591 195.457 193.703 196.229 193.928C197 194.143 197.645 194.455 198.162 194.865C198.68 195.275 199.07 195.773 199.334 196.359C199.598 196.945 199.729 197.604 199.729 198.337C199.729 199.431 199.446 200.349 198.88 201.091C198.323 201.833 197.557 202.424 196.58 202.863C197.078 202.941 197.566 203.098 198.045 203.332C198.533 203.566 198.968 203.869 199.349 204.24C199.739 204.602 200.052 205.031 200.286 205.529C200.53 206.027 200.652 206.579 200.652 207.185Z" fill="black"/>
<path d="M288.884 203.884C289.372 203.396 289.372 202.604 288.884 202.116L280.929 194.161C280.441 193.673 279.649 193.673 279.161 194.161C278.673 194.649 278.673 195.441 279.161 195.929L286.232 203L279.161 210.071C278.673 210.559 278.673 211.351 279.161 211.839C279.649 212.327 280.441 212.327 280.929 211.839L288.884 203.884ZM218 204.25H288V201.75H218V204.25Z" fill="#FF5500"/>
<circle cx="316" cy="203" r="23.75" stroke="black" stroke-width="2.5"/>
<path d="M322.916 196.228L314.889 213H311.974L320.309 196.228H309.967V193.854H322.916V196.228Z" fill="black"/>
<path d="M411.884 203.884C412.372 203.396 412.372 202.604 411.884 202.116L403.929 194.161C403.441 193.673 402.649 193.673 402.161 194.161C401.673 194.649 401.673 195.441 402.161 195.929L409.232 203L402.161 210.071C401.673 210.559 401.673 211.351 402.161 211.839C402.649 212.327 403.441 212.327 403.929 211.839L411.884 203.884ZM341 204.25H411V201.75H341V204.25Z" fill="#FF5500"/>
<circle cx="439" cy="203" r="23.75" stroke="black" stroke-width="2.5"/>
<path d="M445.971 208.767H442.704V213H440.097V208.767H430.883V206.525L439.042 193.854H442.704V206.525H445.971V208.767ZM440.097 196.315L433.432 206.525H440.097V196.315Z" fill="black"/>
<path d="M534.884 203.884C535.372 203.396 535.372 202.604 534.884 202.116L526.929 194.161C526.441 193.673 525.649 193.673 525.161 194.161C524.673 194.649 524.673 195.441 525.161 195.929L532.232 203L525.161 210.071C524.673 210.559 524.673 211.351 525.161 211.839C525.649 212.327 526.441 212.327 526.929 211.839L534.884 203.884ZM464 204.25H534V201.75H464V204.25Z" fill="#FF5500"/>
<circle cx="562" cy="203" r="23.75" stroke="black" stroke-width="2.5"/>
<path d="M569.019 213H556.406V210.715L561.357 205.793C562.168 204.992 562.827 204.299 563.335 203.713C563.843 203.127 564.238 202.595 564.521 202.116C564.805 201.628 564.995 201.169 565.093 200.739C565.19 200.31 565.239 199.846 565.239 199.348C565.239 198.879 565.176 198.435 565.049 198.015C564.922 197.585 564.727 197.209 564.463 196.887C564.199 196.564 563.857 196.311 563.438 196.125C563.018 195.939 562.515 195.847 561.929 195.847C561.118 195.847 560.381 196.027 559.717 196.389C559.053 196.75 558.442 197.219 557.886 197.795L556.479 196.11C557.202 195.349 558.032 194.738 558.97 194.279C559.917 193.82 561.016 193.591 562.266 193.591C563.115 193.591 563.887 193.718 564.58 193.972C565.283 194.226 565.889 194.592 566.396 195.07C566.904 195.549 567.295 196.135 567.568 196.828C567.852 197.521 567.993 198.303 567.993 199.172C567.993 199.904 567.896 200.583 567.7 201.208C567.505 201.833 567.207 202.458 566.807 203.083C566.416 203.698 565.918 204.338 565.312 205.002C564.717 205.666 564.009 206.394 563.188 207.185L559.717 210.568H569.019V213Z" fill="black"/>
<path d="M657.884 203.884C658.372 203.396 658.372 202.604 657.884 202.116L649.929 194.161C649.441 193.673 648.649 193.673 648.161 194.161C647.673 194.649 647.673 195.441 648.161 195.929L655.232 203L648.161 210.071C647.673 210.559 647.673 211.351 648.161 211.839C648.649 212.327 649.441 212.327 649.929 211.839L657.884 203.884ZM587 204.25H657V201.75H587V204.25Z" fill="#FF5500"/>
<circle cx="685" cy="203" r="23.75" stroke="black" stroke-width="2.5"/>
<path d="M691.857 213H679.831V210.627H684.753V196.652L680.168 199.143L679.23 196.975L685.324 193.767H687.58V210.627H691.857V213Z" fill="black"/>
</svg>
