<svg width="460" height="207" viewBox="0 0 460 207" fill="none" xmlns="http://www.w3.org/2000/svg">
<g clip-path="url(#clip0_6296_7709)">
<rect width="460" height="207" fill="white"/>
<mask id="path-1-inside-1_6296_7709" fill="white">
<rect x="76" y="94.2947" width="30" height="32.5714" rx="1"/>
</mask>
<rect x="76" y="94.2947" width="30" height="32.5714" rx="1" stroke="#FF5500" stroke-width="4" mask="url(#path-1-inside-1_6296_7709)"/>
<mask id="path-2-inside-2_6296_7709" fill="white">
<rect x="104" y="22.2947" width="30" height="32.5714" rx="1"/>
</mask>
<rect x="104" y="22.2947" width="30" height="32.5714" rx="1" stroke="#FF5500" stroke-width="4" mask="url(#path-2-inside-2_6296_7709)"/>
<mask id="path-3-inside-3_6296_7709" fill="white">
<rect x="402" y="94.2947" width="30" height="32.5714" rx="1"/>
</mask>
<rect x="402" y="94.2947" width="30" height="32.5714" rx="1" stroke="#FF5500" stroke-width="4" mask="url(#path-3-inside-3_6296_7709)"/>
<mask id="path-4-inside-4_6296_7709" fill="white">
<rect x="373" y="22.2947" width="30" height="32.5714" rx="1"/>
</mask>
<rect x="373" y="22.2947" width="30" height="32.5714" rx="1" stroke="#FF5500" stroke-width="4" mask="url(#path-4-inside-4_6296_7709)"/>
<path d="M416.293 92.7071C416.683 93.0976 417.317 93.0976 417.707 92.7071L424.071 86.3431C424.462 85.9526 424.462 85.3195 424.071 84.9289C423.681 84.5384 423.047 84.5384 422.657 84.9289L417 90.5858L411.343 84.9289C410.953 84.5384 410.319 84.5384 409.929 84.9289C409.538 85.3195 409.538 85.9526 409.929 86.3431L416.293 92.7071ZM92 95V75H90V95H92ZM92 75H416V73H92V75ZM416 75V92H418V75H416ZM416 75H418C418 73.8954 417.105 73 416 73V75ZM92 75V75V73C90.8954 73 90 73.8954 90 75H92Z" fill="#FF5500"/>
<path d="M387.293 20.7071C387.683 21.0976 388.317 21.0976 388.707 20.7071L395.071 14.3431C395.462 13.9526 395.462 13.3195 395.071 12.9289C394.681 12.5384 394.047 12.5384 393.657 12.9289L388 18.5858L382.343 12.9289C381.953 12.5384 381.319 12.5384 380.929 12.9289C380.538 13.3195 380.538 13.9526 380.929 14.3431L387.293 20.7071ZM120 23V3H118V23H120ZM120 3H387V1H120V3ZM387 3V20H389V3H387ZM387 3H389C389 1.89543 388.105 1 387 1V3ZM120 3V3V1C118.895 1 118 1.89543 118 3H120Z" fill="#FF5500"/>
<path d="M0.03125 34.5486H1.99902L2.08789 36.6052C2.46029 36.1651 2.81999 35.8012 3.16699 35.5134C3.514 35.2172 3.85254 34.9802 4.18262 34.8025C4.52116 34.6248 4.86393 34.502 5.21094 34.4343C5.55794 34.3582 5.91764 34.3201 6.29004 34.3201C7.60189 34.3201 8.59212 34.7094 9.26074 35.488C9.93783 36.2582 10.2764 37.422 10.2764 38.9792V47.2947H8.06738V39.157C8.06738 38.1583 7.88118 37.422 7.50879 36.948C7.13639 36.4656 6.58203 36.2244 5.8457 36.2244C5.57487 36.2244 5.30827 36.2667 5.0459 36.3513C4.79199 36.4275 4.52539 36.5671 4.24609 36.7703C3.9668 36.9649 3.66211 37.2315 3.33203 37.5701C3.01042 37.9086 2.64648 38.3318 2.24023 38.8396V47.2947H0.03125V34.5486ZM39.1963 39.0935H28.2783V37.2273H39.1963V39.0935ZM39.1963 43.5115H28.2783V41.6453H39.1963V43.5115ZM67.8369 47.2947H57.4141V45.238H61.6797V33.1267L57.7061 35.2849L56.8936 33.406L62.1748 30.6257H64.1299V45.238H67.8369V47.2947ZM96.5664 47.2947H85.6357V45.3142L89.9268 41.0486C90.6292 40.3546 91.2005 39.7537 91.6406 39.2458C92.0807 38.738 92.4235 38.2768 92.6689 37.8621C92.9144 37.4389 93.0794 37.0411 93.1641 36.6687C93.2487 36.2963 93.291 35.8943 93.291 35.4626C93.291 35.0564 93.236 34.6713 93.126 34.3074C93.016 33.935 92.8467 33.6091 92.6182 33.3298C92.3896 33.0505 92.0934 32.8305 91.7295 32.6697C91.3656 32.5089 90.9297 32.4285 90.4219 32.4285C89.7194 32.4285 89.0804 32.585 88.5049 32.8982C87.9294 33.2113 87.4004 33.6176 86.918 34.1169L85.6992 32.657C86.3255 31.9968 87.0449 31.4679 87.8574 31.0701C88.6784 30.6723 89.6305 30.4734 90.7139 30.4734C91.4502 30.4734 92.1188 30.5834 92.7197 30.8035C93.3291 31.0235 93.8538 31.3409 94.2939 31.7556C94.734 32.1703 95.0726 32.6781 95.3096 33.2791C95.555 33.88 95.6777 34.557 95.6777 35.3103C95.6777 35.9451 95.5931 36.5333 95.4238 37.075C95.2546 37.6166 94.9964 38.1583 94.6494 38.7C94.3109 39.2332 93.8792 39.7875 93.3545 40.363C92.8382 40.9386 92.2246 41.5691 91.5137 42.2546L88.5049 45.1873H96.5664V47.2947ZM124.839 42.2546C124.839 42.9825 124.691 43.6681 124.395 44.3113C124.098 44.946 123.654 45.5046 123.062 45.9871C122.469 46.461 121.724 46.8376 120.827 47.1169C119.93 47.3878 118.885 47.5232 117.691 47.5232C117.031 47.5232 116.439 47.502 115.914 47.4597C115.389 47.4174 114.898 47.3624 114.441 47.2947V45.3142C114.966 45.4073 115.521 45.4792 116.104 45.53C116.688 45.5808 117.285 45.6062 117.895 45.6062C118.724 45.6062 119.431 45.5343 120.015 45.3904C120.607 45.238 121.09 45.0222 121.462 44.7429C121.834 44.4636 122.105 44.1251 122.274 43.7273C122.444 43.3295 122.528 42.8809 122.528 42.3816C122.528 41.9246 122.427 41.5268 122.224 41.1882C122.021 40.8497 121.733 40.5662 121.36 40.3376C120.996 40.1091 120.556 39.9399 120.04 39.8298C119.532 39.7113 118.974 39.6521 118.364 39.6521H116.473V37.8367H118.39C118.889 37.8367 119.342 37.7732 119.748 37.6462C120.163 37.5108 120.514 37.3204 120.802 37.075C121.098 36.8295 121.322 36.5291 121.475 36.1736C121.635 35.8097 121.716 35.3992 121.716 34.9421C121.716 34.0535 121.445 33.406 120.903 32.9998C120.362 32.5935 119.566 32.3904 118.517 32.3904C117.958 32.3904 117.382 32.4454 116.79 32.5554C116.198 32.6654 115.563 32.8305 114.886 33.0505V31.1208C115.174 31.0193 115.478 30.9304 115.8 30.8542C116.13 30.7696 116.456 30.7019 116.777 30.6511C117.107 30.5919 117.433 30.5496 117.755 30.5242C118.076 30.4903 118.385 30.4734 118.682 30.4734C119.562 30.4734 120.336 30.5707 121.005 30.7654C121.674 30.9516 122.232 31.2224 122.681 31.5779C123.129 31.9333 123.468 32.365 123.696 32.8728C123.925 33.3806 124.039 33.9519 124.039 34.5867C124.039 35.5346 123.794 36.3302 123.303 36.9734C122.82 37.6166 122.156 38.1287 121.31 38.5095C121.741 38.5772 122.164 38.7126 122.579 38.9158C123.002 39.1189 123.379 39.3813 123.709 39.7029C124.048 40.016 124.318 40.3884 124.521 40.8201C124.733 41.2517 124.839 41.7299 124.839 42.2546ZM143.971 49.8972C144.402 49.9141 144.821 49.8761 145.228 49.783C145.634 49.6899 145.989 49.5502 146.294 49.364C146.607 49.1863 146.857 48.962 147.043 48.6912C147.229 48.4203 147.322 48.1114 147.322 47.7644C147.322 47.4089 147.259 47.1212 147.132 46.9011C147.013 46.6811 146.878 46.4779 146.726 46.2917C146.573 46.1056 146.434 45.9067 146.307 45.6951C146.188 45.4835 146.129 45.2 146.129 44.8445C146.129 44.6667 146.163 44.4806 146.23 44.2859C146.298 44.0912 146.4 43.9135 146.535 43.7527C146.679 43.5919 146.857 43.4607 147.068 43.3591C147.288 43.2576 147.547 43.2068 147.843 43.2068C148.139 43.2068 148.423 43.2703 148.693 43.3972C148.973 43.5157 149.214 43.7019 149.417 43.9558C149.629 44.2097 149.794 44.5271 149.912 44.908C150.039 45.2888 150.103 45.7374 150.103 46.2537C150.103 46.9561 149.971 47.629 149.709 48.2722C149.455 48.9239 149.07 49.4994 148.554 49.9988C148.046 50.4981 147.407 50.8959 146.637 51.1921C145.875 51.4884 144.986 51.6365 143.971 51.6365V49.8972Z" fill="black"/>
<path d="M197.552 34.5486H199.57L199.634 36.8972C200.387 35.9916 201.128 35.3357 201.855 34.9294C202.592 34.5232 203.332 34.3201 204.077 34.3201C205.397 34.3201 206.396 34.7475 207.073 35.6023C207.759 36.4571 208.076 37.7266 208.025 39.4109H205.791C205.816 38.2937 205.651 37.4854 205.296 36.9861C204.949 36.4783 204.437 36.2244 203.76 36.2244C203.464 36.2244 203.163 36.2794 202.858 36.3894C202.562 36.491 202.253 36.6602 201.932 36.8972C201.618 37.1257 201.284 37.422 200.929 37.7859C200.573 38.1498 200.192 38.5899 199.786 39.1062V47.2947H197.552V34.5486ZM222.092 40.2488C222.092 40.5619 222.088 40.8243 222.079 41.0359C222.071 41.2475 222.058 41.4464 222.041 41.6326H213.091C213.091 42.936 213.455 43.9389 214.183 44.6414C214.91 45.3354 215.96 45.6824 217.331 45.6824C217.703 45.6824 218.076 45.6697 218.448 45.6443C218.821 45.6104 219.18 45.5681 219.527 45.5173C219.874 45.4666 220.204 45.4115 220.518 45.3523C220.839 45.2846 221.135 45.2126 221.406 45.1365V46.9519C220.805 47.1212 220.124 47.2566 219.362 47.3582C218.609 47.4682 217.826 47.5232 217.014 47.5232C215.922 47.5232 214.982 47.3751 214.195 47.0789C213.408 46.7826 212.761 46.3552 212.253 45.7966C211.754 45.2296 211.381 44.5398 211.136 43.7273C210.899 42.9063 210.78 41.9796 210.78 40.947C210.78 40.0499 210.907 39.2035 211.161 38.408C211.424 37.6039 211.8 36.9014 212.291 36.3005C212.79 35.6912 213.4 35.2087 214.119 34.8533C214.839 34.4978 215.655 34.3201 216.569 34.3201C217.458 34.3201 218.245 34.4597 218.931 34.739C219.616 35.0183 220.192 35.4161 220.657 35.9324C221.131 36.4402 221.487 37.0623 221.724 37.7986C221.969 38.5264 222.092 39.3432 222.092 40.2488ZM219.794 39.9314C219.819 39.3643 219.764 38.8481 219.629 38.3826C219.493 37.9086 219.282 37.5024 218.994 37.1638C218.715 36.8253 218.364 36.5629 217.94 36.3767C217.517 36.182 217.026 36.0847 216.468 36.0847C215.985 36.0847 215.545 36.1778 215.147 36.364C214.75 36.5502 214.407 36.8126 214.119 37.1511C213.831 37.4897 213.599 37.8959 213.421 38.3699C213.243 38.8438 213.133 39.3643 213.091 39.9314H219.794ZM224.428 34.5486H226.941L230.064 42.9783L230.737 45.0349L231.436 42.9275L234.533 34.5486H236.958L231.956 47.2947H229.417L224.428 34.5486ZM250.682 40.2488C250.682 40.5619 250.677 40.8243 250.669 41.0359C250.66 41.2475 250.648 41.4464 250.631 41.6326H241.681C241.681 42.936 242.045 43.9389 242.772 44.6414C243.5 45.3354 244.55 45.6824 245.921 45.6824C246.293 45.6824 246.666 45.6697 247.038 45.6443C247.41 45.6104 247.77 45.5681 248.117 45.5173C248.464 45.4666 248.794 45.4115 249.107 45.3523C249.429 45.2846 249.725 45.2126 249.996 45.1365V46.9519C249.395 47.1212 248.714 47.2566 247.952 47.3582C247.199 47.4682 246.416 47.5232 245.604 47.5232C244.512 47.5232 243.572 47.3751 242.785 47.0789C241.998 46.7826 241.351 46.3552 240.843 45.7966C240.343 45.2296 239.971 44.5398 239.726 43.7273C239.489 42.9063 239.37 41.9796 239.37 40.947C239.37 40.0499 239.497 39.2035 239.751 38.408C240.013 37.6039 240.39 36.9014 240.881 36.3005C241.38 35.6912 241.99 35.2087 242.709 34.8533C243.428 34.4978 244.245 34.3201 245.159 34.3201C246.048 34.3201 246.835 34.4597 247.521 34.739C248.206 35.0183 248.782 35.4161 249.247 35.9324C249.721 36.4402 250.076 37.0623 250.313 37.7986C250.559 38.5264 250.682 39.3432 250.682 40.2488ZM248.384 39.9314C248.409 39.3643 248.354 38.8481 248.219 38.3826C248.083 37.9086 247.872 37.5024 247.584 37.1638C247.305 36.8253 246.953 36.5629 246.53 36.3767C246.107 36.182 245.616 36.0847 245.058 36.0847C244.575 36.0847 244.135 36.1778 243.737 36.364C243.34 36.5502 242.997 36.8126 242.709 37.1511C242.421 37.4897 242.188 37.8959 242.011 38.3699C241.833 38.8438 241.723 39.3643 241.681 39.9314H248.384ZM254.731 34.5486H256.75L256.813 36.8972C257.567 35.9916 258.307 35.3357 259.035 34.9294C259.771 34.5232 260.512 34.3201 261.257 34.3201C262.577 34.3201 263.576 34.7475 264.253 35.6023C264.938 36.4571 265.256 37.7266 265.205 39.4109H262.971C262.996 38.2937 262.831 37.4854 262.476 36.9861C262.129 36.4783 261.617 36.2244 260.939 36.2244C260.643 36.2244 260.343 36.2794 260.038 36.3894C259.742 36.491 259.433 36.6602 259.111 36.8972C258.798 37.1257 258.464 37.422 258.108 37.7859C257.753 38.1498 257.372 38.5899 256.966 39.1062V47.2947H254.731V34.5486ZM278.599 43.8162C278.599 44.2647 278.522 44.6667 278.37 45.0222C278.218 45.3777 278.01 45.6951 277.748 45.9744C277.486 46.2452 277.181 46.4779 276.834 46.6726C276.487 46.8673 276.115 47.0281 275.717 47.155C275.327 47.282 274.925 47.3751 274.511 47.4343C274.096 47.4936 273.69 47.5232 273.292 47.5232C272.429 47.5232 271.633 47.4851 270.905 47.4089C270.186 47.3328 269.479 47.21 268.785 47.0408V45.0095C269.53 45.2211 270.271 45.3819 271.007 45.4919C271.743 45.602 272.475 45.657 273.203 45.657C274.261 45.657 275.044 45.5131 275.552 45.2253C276.06 44.9376 276.313 44.5271 276.313 43.9939C276.313 43.7654 276.271 43.5623 276.187 43.3845C276.11 43.1983 275.966 43.0248 275.755 42.864C275.543 42.6947 275.213 42.5212 274.765 42.3435C274.325 42.1658 273.719 41.9626 272.949 41.7341C272.374 41.5649 271.84 41.3744 271.35 41.1628C270.867 40.9428 270.448 40.6847 270.093 40.3884C269.737 40.0922 269.458 39.7452 269.255 39.3474C269.052 38.9496 268.95 38.4799 268.95 37.9382C268.95 37.5828 269.031 37.1934 269.191 36.7703C269.361 36.3471 269.644 35.9535 270.042 35.5896C270.44 35.2257 270.977 34.9252 271.654 34.6882C272.331 34.4428 273.178 34.3201 274.193 34.3201C274.693 34.3201 275.247 34.3497 275.856 34.4089C276.466 34.4597 277.101 34.5528 277.761 34.6882V36.656C277.067 36.4867 276.407 36.364 275.78 36.2878C275.162 36.2032 274.625 36.1609 274.168 36.1609C273.618 36.1609 273.152 36.2032 272.771 36.2878C272.399 36.3725 272.094 36.491 271.857 36.6433C271.629 36.7872 271.464 36.9607 271.362 37.1638C271.261 37.3585 271.21 37.5701 271.21 37.7986C271.21 38.0271 271.252 38.2345 271.337 38.4207C271.43 38.6069 271.595 38.7888 271.832 38.9666C272.077 39.1358 272.416 39.3093 272.848 39.4871C273.279 39.6563 273.842 39.8425 274.536 40.0457C275.289 40.2657 275.924 40.4985 276.44 40.7439C276.957 40.9809 277.376 41.2475 277.697 41.5437C278.019 41.8399 278.247 42.1742 278.383 42.5466C278.527 42.919 278.599 43.3422 278.599 43.8162ZM293.566 40.2488C293.566 40.5619 293.562 40.8243 293.554 41.0359C293.545 41.2475 293.533 41.4464 293.516 41.6326H284.565C284.565 42.936 284.929 43.9389 285.657 44.6414C286.385 45.3354 287.435 45.6824 288.806 45.6824C289.178 45.6824 289.55 45.6697 289.923 45.6443C290.295 45.6104 290.655 45.5681 291.002 45.5173C291.349 45.4666 291.679 45.4115 291.992 45.3523C292.314 45.2846 292.61 45.2126 292.881 45.1365V46.9519C292.28 47.1212 291.599 47.2566 290.837 47.3582C290.084 47.4682 289.301 47.5232 288.488 47.5232C287.396 47.5232 286.457 47.3751 285.67 47.0789C284.883 46.7826 284.235 46.3552 283.728 45.7966C283.228 45.2296 282.856 44.5398 282.61 43.7273C282.373 42.9063 282.255 41.9796 282.255 40.947C282.255 40.0499 282.382 39.2035 282.636 38.408C282.898 37.6039 283.275 36.9014 283.766 36.3005C284.265 35.6912 284.874 35.2087 285.594 34.8533C286.313 34.4978 287.13 34.3201 288.044 34.3201C288.933 34.3201 289.72 34.4597 290.405 34.739C291.091 35.0183 291.666 35.4161 292.132 35.9324C292.606 36.4402 292.961 37.0623 293.198 37.7986C293.444 38.5264 293.566 39.3432 293.566 40.2488ZM291.269 39.9314C291.294 39.3643 291.239 38.8481 291.104 38.3826C290.968 37.9086 290.757 37.5024 290.469 37.1638C290.189 36.8253 289.838 36.5629 289.415 36.3767C288.992 36.182 288.501 36.0847 287.942 36.0847C287.46 36.0847 287.02 36.1778 286.622 36.364C286.224 36.5502 285.882 36.8126 285.594 37.1511C285.306 37.4897 285.073 37.8959 284.896 38.3699C284.718 38.8438 284.608 39.3643 284.565 39.9314H291.269ZM296.448 41.1882C296.448 40.1049 296.596 39.1443 296.893 38.3064C297.189 37.46 297.608 36.7491 298.149 36.1736C298.7 35.5896 299.355 35.1495 300.117 34.8533C300.887 34.5486 301.742 34.3962 302.682 34.3962C303.088 34.3962 303.486 34.4216 303.875 34.4724C304.273 34.5232 304.662 34.6036 305.043 34.7136V29.3562H307.265V47.2947H305.284L305.208 44.8826C304.59 45.7797 303.922 46.4441 303.202 46.8757C302.483 47.3074 301.704 47.5232 300.866 47.5232C300.138 47.5232 299.495 47.3708 298.937 47.0662C298.386 46.7615 297.925 46.3341 297.553 45.7839C297.189 45.2253 296.914 44.5567 296.728 43.7781C296.541 42.9994 296.448 42.1361 296.448 41.1882ZM298.708 41.0486C298.708 42.5889 298.932 43.74 299.381 44.5017C299.838 45.255 300.481 45.6316 301.311 45.6316C301.869 45.6316 302.457 45.3819 303.075 44.8826C303.701 44.3832 304.357 43.6427 305.043 42.6609V36.7449C304.679 36.5756 304.277 36.4486 303.837 36.364C303.397 36.2709 302.961 36.2244 302.529 36.2244C301.327 36.2244 300.388 36.6137 299.711 37.3923C299.042 38.171 298.708 39.3897 298.708 41.0486ZM323.654 52.4998H309.359V50.6716H323.654V52.4998ZM325.686 34.5486H327.653L327.742 36.6052C328.115 36.1651 328.474 35.8012 328.821 35.5134C329.168 35.2172 329.507 34.9802 329.837 34.8025C330.175 34.6248 330.518 34.502 330.865 34.4343C331.212 34.3582 331.572 34.3201 331.944 34.3201C333.256 34.3201 334.246 34.7094 334.915 35.488C335.592 36.2582 335.931 37.422 335.931 38.9792V47.2947H333.722V39.157C333.722 38.1583 333.535 37.422 333.163 36.948C332.791 36.4656 332.236 36.2244 331.5 36.2244C331.229 36.2244 330.963 36.2667 330.7 36.3513C330.446 36.4275 330.18 36.5671 329.9 36.7703C329.621 36.9649 329.316 37.2315 328.986 37.5701C328.665 37.9086 328.301 38.3318 327.895 38.8396V47.2947H325.686V34.5486ZM364.851 39.0935H353.933V37.2273H364.851V39.0935ZM364.851 43.5115H353.933V41.6453H364.851V43.5115ZM393.313 42.2546C393.313 42.9825 393.165 43.6681 392.869 44.3113C392.573 44.946 392.129 45.5046 391.536 45.9871C390.944 46.461 390.199 46.8376 389.302 47.1169C388.405 47.3878 387.359 47.5232 386.166 47.5232C385.506 47.5232 384.913 47.502 384.389 47.4597C383.864 47.4174 383.373 47.3624 382.916 47.2947V45.3142C383.441 45.4073 383.995 45.4792 384.579 45.53C385.163 45.5808 385.76 45.6062 386.369 45.6062C387.199 45.6062 387.905 45.5343 388.489 45.3904C389.082 45.238 389.564 45.0222 389.937 44.7429C390.309 44.4636 390.58 44.1251 390.749 43.7273C390.918 43.3295 391.003 42.8809 391.003 42.3816C391.003 41.9246 390.901 41.5268 390.698 41.1882C390.495 40.8497 390.207 40.5662 389.835 40.3376C389.471 40.1091 389.031 39.9399 388.515 39.8298C388.007 39.7113 387.448 39.6521 386.839 39.6521H384.947V37.8367H386.864C387.364 37.8367 387.816 37.7732 388.223 37.6462C388.637 37.5108 388.989 37.3204 389.276 37.075C389.573 36.8295 389.797 36.5291 389.949 36.1736C390.11 35.8097 390.19 35.3992 390.19 34.9421C390.19 34.0535 389.92 33.406 389.378 32.9998C388.836 32.5935 388.041 32.3904 386.991 32.3904C386.433 32.3904 385.857 32.4454 385.265 32.5554C384.672 32.6654 384.037 32.8305 383.36 33.0505V31.1208C383.648 31.0193 383.953 30.9304 384.274 30.8542C384.604 30.7696 384.93 30.7019 385.252 30.6511C385.582 30.5919 385.908 30.5496 386.229 30.5242C386.551 30.4903 386.86 30.4734 387.156 30.4734C388.036 30.4734 388.811 30.5707 389.479 30.7654C390.148 30.9516 390.707 31.2224 391.155 31.5779C391.604 31.9333 391.942 32.365 392.171 32.8728C392.399 33.3806 392.514 33.9519 392.514 34.5867C392.514 35.5346 392.268 36.3302 391.777 36.9734C391.295 37.6166 390.631 38.1287 389.784 38.5095C390.216 38.5772 390.639 38.7126 391.054 38.9158C391.477 39.1189 391.854 39.3813 392.184 39.7029C392.522 40.016 392.793 40.3884 392.996 40.8201C393.208 41.2517 393.313 41.7299 393.313 42.2546Z" fill="black"/>
<path d="M0.03125 106.549H1.99902L2.08789 108.605C2.46029 108.165 2.81999 107.801 3.16699 107.513C3.514 107.217 3.85254 106.98 4.18262 106.802C4.52116 106.625 4.86393 106.502 5.21094 106.434C5.55794 106.358 5.91764 106.32 6.29004 106.32C7.60189 106.32 8.59212 106.709 9.26074 107.488C9.93783 108.258 10.2764 109.422 10.2764 110.979V119.295H8.06738V111.157C8.06738 110.158 7.88118 109.422 7.50879 108.948C7.13639 108.466 6.58203 108.224 5.8457 108.224C5.57487 108.224 5.30827 108.267 5.0459 108.351C4.79199 108.427 4.52539 108.567 4.24609 108.77C3.9668 108.965 3.66211 109.232 3.33203 109.57C3.01042 109.909 2.64648 110.332 2.24023 110.84V119.295H0.03125V106.549ZM39.1963 111.094H28.2783V109.227H39.1963V111.094ZM39.1963 115.511H28.2783V113.645H39.1963V115.511ZM67.8369 119.295H57.4141V117.238H61.6797V105.127L57.7061 107.285L56.8936 105.406L62.1748 102.626H64.1299V117.238H67.8369V119.295ZM96.5664 119.295H85.6357V117.314L89.9268 113.049C90.6292 112.355 91.2005 111.754 91.6406 111.246C92.0807 110.738 92.4235 110.277 92.6689 109.862C92.9144 109.439 93.0794 109.041 93.1641 108.669C93.2487 108.296 93.291 107.894 93.291 107.463C93.291 107.056 93.236 106.671 93.126 106.307C93.016 105.935 92.8467 105.609 92.6182 105.33C92.3896 105.051 92.0934 104.83 91.7295 104.67C91.3656 104.509 90.9297 104.428 90.4219 104.428C89.7194 104.428 89.0804 104.585 88.5049 104.898C87.9294 105.211 87.4004 105.618 86.918 106.117L85.6992 104.657C86.3255 103.997 87.0449 103.468 87.8574 103.07C88.6784 102.672 89.6305 102.473 90.7139 102.473C91.4502 102.473 92.1188 102.583 92.7197 102.803C93.3291 103.024 93.8538 103.341 94.2939 103.756C94.734 104.17 95.0726 104.678 95.3096 105.279C95.555 105.88 95.6777 106.557 95.6777 107.31C95.6777 107.945 95.5931 108.533 95.4238 109.075C95.2546 109.617 94.9964 110.158 94.6494 110.7C94.3109 111.233 93.8792 111.788 93.3545 112.363C92.8382 112.939 92.2246 113.569 91.5137 114.255L88.5049 117.187H96.5664V119.295ZM115.381 121.897C115.812 121.914 116.231 121.876 116.638 121.783C117.044 121.69 117.399 121.55 117.704 121.364C118.017 121.186 118.267 120.962 118.453 120.691C118.639 120.42 118.732 120.111 118.732 119.764C118.732 119.409 118.669 119.121 118.542 118.901C118.424 118.681 118.288 118.478 118.136 118.292C117.983 118.106 117.844 117.907 117.717 117.695C117.598 117.483 117.539 117.2 117.539 116.844C117.539 116.667 117.573 116.481 117.641 116.286C117.708 116.091 117.81 115.913 117.945 115.753C118.089 115.592 118.267 115.461 118.479 115.359C118.699 115.258 118.957 115.207 119.253 115.207C119.549 115.207 119.833 115.27 120.104 115.397C120.383 115.516 120.624 115.702 120.827 115.956C121.039 116.21 121.204 116.527 121.322 116.908C121.449 117.289 121.513 117.737 121.513 118.254C121.513 118.956 121.382 119.629 121.119 120.272C120.865 120.924 120.48 121.499 119.964 121.999C119.456 122.498 118.817 122.896 118.047 123.192C117.285 123.488 116.396 123.636 115.381 123.636V121.897Z" fill="black"/>
<path d="M197.552 106.549H199.57L199.634 108.897C200.387 107.992 201.128 107.336 201.855 106.929C202.592 106.523 203.332 106.32 204.077 106.32C205.397 106.32 206.396 106.747 207.073 107.602C207.759 108.457 208.076 109.727 208.025 111.411H205.791C205.816 110.294 205.651 109.485 205.296 108.986C204.949 108.478 204.437 108.224 203.76 108.224C203.464 108.224 203.163 108.279 202.858 108.389C202.562 108.491 202.253 108.66 201.932 108.897C201.618 109.126 201.284 109.422 200.929 109.786C200.573 110.15 200.192 110.59 199.786 111.106V119.295H197.552V106.549ZM222.092 112.249C222.092 112.562 222.088 112.824 222.079 113.036C222.071 113.247 222.058 113.446 222.041 113.633H213.091C213.091 114.936 213.455 115.939 214.183 116.641C214.91 117.335 215.96 117.682 217.331 117.682C217.703 117.682 218.076 117.67 218.448 117.644C218.821 117.61 219.18 117.568 219.527 117.517C219.874 117.467 220.204 117.412 220.518 117.352C220.839 117.285 221.135 117.213 221.406 117.136V118.952C220.805 119.121 220.124 119.257 219.362 119.358C218.609 119.468 217.826 119.523 217.014 119.523C215.922 119.523 214.982 119.375 214.195 119.079C213.408 118.783 212.761 118.355 212.253 117.797C211.754 117.23 211.381 116.54 211.136 115.727C210.899 114.906 210.78 113.98 210.78 112.947C210.78 112.05 210.907 111.204 211.161 110.408C211.424 109.604 211.8 108.901 212.291 108.301C212.79 107.691 213.4 107.209 214.119 106.853C214.839 106.498 215.655 106.32 216.569 106.32C217.458 106.32 218.245 106.46 218.931 106.739C219.616 107.018 220.192 107.416 220.657 107.932C221.131 108.44 221.487 109.062 221.724 109.799C221.969 110.526 222.092 111.343 222.092 112.249ZM219.794 111.931C219.819 111.364 219.764 110.848 219.629 110.383C219.493 109.909 219.282 109.502 218.994 109.164C218.715 108.825 218.364 108.563 217.94 108.377C217.517 108.182 217.026 108.085 216.468 108.085C215.985 108.085 215.545 108.178 215.147 108.364C214.75 108.55 214.407 108.813 214.119 109.151C213.831 109.49 213.599 109.896 213.421 110.37C213.243 110.844 213.133 111.364 213.091 111.931H219.794ZM224.428 106.549H226.941L230.064 114.978L230.737 117.035L231.436 114.927L234.533 106.549H236.958L231.956 119.295H229.417L224.428 106.549ZM250.682 112.249C250.682 112.562 250.677 112.824 250.669 113.036C250.66 113.247 250.648 113.446 250.631 113.633H241.681C241.681 114.936 242.045 115.939 242.772 116.641C243.5 117.335 244.55 117.682 245.921 117.682C246.293 117.682 246.666 117.67 247.038 117.644C247.41 117.61 247.77 117.568 248.117 117.517C248.464 117.467 248.794 117.412 249.107 117.352C249.429 117.285 249.725 117.213 249.996 117.136V118.952C249.395 119.121 248.714 119.257 247.952 119.358C247.199 119.468 246.416 119.523 245.604 119.523C244.512 119.523 243.572 119.375 242.785 119.079C241.998 118.783 241.351 118.355 240.843 117.797C240.343 117.23 239.971 116.54 239.726 115.727C239.489 114.906 239.37 113.98 239.37 112.947C239.37 112.05 239.497 111.204 239.751 110.408C240.013 109.604 240.39 108.901 240.881 108.301C241.38 107.691 241.99 107.209 242.709 106.853C243.428 106.498 244.245 106.32 245.159 106.32C246.048 106.32 246.835 106.46 247.521 106.739C248.206 107.018 248.782 107.416 249.247 107.932C249.721 108.44 250.076 109.062 250.313 109.799C250.559 110.526 250.682 111.343 250.682 112.249ZM248.384 111.931C248.409 111.364 248.354 110.848 248.219 110.383C248.083 109.909 247.872 109.502 247.584 109.164C247.305 108.825 246.953 108.563 246.53 108.377C246.107 108.182 245.616 108.085 245.058 108.085C244.575 108.085 244.135 108.178 243.737 108.364C243.34 108.55 242.997 108.813 242.709 109.151C242.421 109.49 242.188 109.896 242.011 110.37C241.833 110.844 241.723 111.364 241.681 111.931H248.384ZM254.731 106.549H256.75L256.813 108.897C257.567 107.992 258.307 107.336 259.035 106.929C259.771 106.523 260.512 106.32 261.257 106.32C262.577 106.32 263.576 106.747 264.253 107.602C264.938 108.457 265.256 109.727 265.205 111.411H262.971C262.996 110.294 262.831 109.485 262.476 108.986C262.129 108.478 261.617 108.224 260.939 108.224C260.643 108.224 260.343 108.279 260.038 108.389C259.742 108.491 259.433 108.66 259.111 108.897C258.798 109.126 258.464 109.422 258.108 109.786C257.753 110.15 257.372 110.59 256.966 111.106V119.295H254.731V106.549ZM278.599 115.816C278.599 116.265 278.522 116.667 278.37 117.022C278.218 117.378 278.01 117.695 277.748 117.974C277.486 118.245 277.181 118.478 276.834 118.673C276.487 118.867 276.115 119.028 275.717 119.155C275.327 119.282 274.925 119.375 274.511 119.434C274.096 119.494 273.69 119.523 273.292 119.523C272.429 119.523 271.633 119.485 270.905 119.409C270.186 119.333 269.479 119.21 268.785 119.041V117.01C269.53 117.221 270.271 117.382 271.007 117.492C271.743 117.602 272.475 117.657 273.203 117.657C274.261 117.657 275.044 117.513 275.552 117.225C276.06 116.938 276.313 116.527 276.313 115.994C276.313 115.765 276.271 115.562 276.187 115.385C276.11 115.198 275.966 115.025 275.755 114.864C275.543 114.695 275.213 114.521 274.765 114.344C274.325 114.166 273.719 113.963 272.949 113.734C272.374 113.565 271.84 113.374 271.35 113.163C270.867 112.943 270.448 112.685 270.093 112.388C269.737 112.092 269.458 111.745 269.255 111.347C269.052 110.95 268.95 110.48 268.95 109.938C268.95 109.583 269.031 109.193 269.191 108.77C269.361 108.347 269.644 107.954 270.042 107.59C270.44 107.226 270.977 106.925 271.654 106.688C272.331 106.443 273.178 106.32 274.193 106.32C274.693 106.32 275.247 106.35 275.856 106.409C276.466 106.46 277.101 106.553 277.761 106.688V108.656C277.067 108.487 276.407 108.364 275.78 108.288C275.162 108.203 274.625 108.161 274.168 108.161C273.618 108.161 273.152 108.203 272.771 108.288C272.399 108.372 272.094 108.491 271.857 108.643C271.629 108.787 271.464 108.961 271.362 109.164C271.261 109.358 271.21 109.57 271.21 109.799C271.21 110.027 271.252 110.234 271.337 110.421C271.43 110.607 271.595 110.789 271.832 110.967C272.077 111.136 272.416 111.309 272.848 111.487C273.279 111.656 273.842 111.843 274.536 112.046C275.289 112.266 275.924 112.498 276.44 112.744C276.957 112.981 277.376 113.247 277.697 113.544C278.019 113.84 278.247 114.174 278.383 114.547C278.527 114.919 278.599 115.342 278.599 115.816ZM293.566 112.249C293.566 112.562 293.562 112.824 293.554 113.036C293.545 113.247 293.533 113.446 293.516 113.633H284.565C284.565 114.936 284.929 115.939 285.657 116.641C286.385 117.335 287.435 117.682 288.806 117.682C289.178 117.682 289.55 117.67 289.923 117.644C290.295 117.61 290.655 117.568 291.002 117.517C291.349 117.467 291.679 117.412 291.992 117.352C292.314 117.285 292.61 117.213 292.881 117.136V118.952C292.28 119.121 291.599 119.257 290.837 119.358C290.084 119.468 289.301 119.523 288.488 119.523C287.396 119.523 286.457 119.375 285.67 119.079C284.883 118.783 284.235 118.355 283.728 117.797C283.228 117.23 282.856 116.54 282.61 115.727C282.373 114.906 282.255 113.98 282.255 112.947C282.255 112.05 282.382 111.204 282.636 110.408C282.898 109.604 283.275 108.901 283.766 108.301C284.265 107.691 284.874 107.209 285.594 106.853C286.313 106.498 287.13 106.32 288.044 106.32C288.933 106.32 289.72 106.46 290.405 106.739C291.091 107.018 291.666 107.416 292.132 107.932C292.606 108.44 292.961 109.062 293.198 109.799C293.444 110.526 293.566 111.343 293.566 112.249ZM291.269 111.931C291.294 111.364 291.239 110.848 291.104 110.383C290.968 109.909 290.757 109.502 290.469 109.164C290.189 108.825 289.838 108.563 289.415 108.377C288.992 108.182 288.501 108.085 287.942 108.085C287.46 108.085 287.02 108.178 286.622 108.364C286.224 108.55 285.882 108.813 285.594 109.151C285.306 109.49 285.073 109.896 284.896 110.37C284.718 110.844 284.608 111.364 284.565 111.931H291.269ZM296.448 113.188C296.448 112.105 296.596 111.144 296.893 110.306C297.189 109.46 297.608 108.749 298.149 108.174C298.7 107.59 299.355 107.149 300.117 106.853C300.887 106.549 301.742 106.396 302.682 106.396C303.088 106.396 303.486 106.422 303.875 106.472C304.273 106.523 304.662 106.604 305.043 106.714V101.356H307.265V119.295H305.284L305.208 116.883C304.59 117.78 303.922 118.444 303.202 118.876C302.483 119.307 301.704 119.523 300.866 119.523C300.138 119.523 299.495 119.371 298.937 119.066C298.386 118.761 297.925 118.334 297.553 117.784C297.189 117.225 296.914 116.557 296.728 115.778C296.541 114.999 296.448 114.136 296.448 113.188ZM298.708 113.049C298.708 114.589 298.932 115.74 299.381 116.502C299.838 117.255 300.481 117.632 301.311 117.632C301.869 117.632 302.457 117.382 303.075 116.883C303.701 116.383 304.357 115.643 305.043 114.661V108.745C304.679 108.576 304.277 108.449 303.837 108.364C303.397 108.271 302.961 108.224 302.529 108.224C301.327 108.224 300.388 108.614 299.711 109.392C299.042 110.171 298.708 111.39 298.708 113.049ZM323.654 124.5H309.359V122.672H323.654V124.5ZM325.686 106.549H327.653L327.742 108.605C328.115 108.165 328.474 107.801 328.821 107.513C329.168 107.217 329.507 106.98 329.837 106.802C330.175 106.625 330.518 106.502 330.865 106.434C331.212 106.358 331.572 106.32 331.944 106.32C333.256 106.32 334.246 106.709 334.915 107.488C335.592 108.258 335.931 109.422 335.931 110.979V119.295H333.722V111.157C333.722 110.158 333.535 109.422 333.163 108.948C332.791 108.466 332.236 108.224 331.5 108.224C331.229 108.224 330.963 108.267 330.7 108.351C330.446 108.427 330.18 108.567 329.9 108.77C329.621 108.965 329.316 109.232 328.986 109.57C328.665 109.909 328.301 110.332 327.895 110.84V119.295H325.686V106.549ZM364.851 111.094H353.933V109.227H364.851V111.094ZM364.851 115.511H353.933V113.645H364.851V115.511ZM393.313 114.255C393.313 114.983 393.165 115.668 392.869 116.311C392.573 116.946 392.129 117.505 391.536 117.987C390.944 118.461 390.199 118.838 389.302 119.117C388.405 119.388 387.359 119.523 386.166 119.523C385.506 119.523 384.913 119.502 384.389 119.46C383.864 119.417 383.373 119.362 382.916 119.295V117.314C383.441 117.407 383.995 117.479 384.579 117.53C385.163 117.581 385.76 117.606 386.369 117.606C387.199 117.606 387.905 117.534 388.489 117.39C389.082 117.238 389.564 117.022 389.937 116.743C390.309 116.464 390.58 116.125 390.749 115.727C390.918 115.33 391.003 114.881 391.003 114.382C391.003 113.925 390.901 113.527 390.698 113.188C390.495 112.85 390.207 112.566 389.835 112.338C389.471 112.109 389.031 111.94 388.515 111.83C388.007 111.711 387.448 111.652 386.839 111.652H384.947V109.837H386.864C387.364 109.837 387.816 109.773 388.223 109.646C388.637 109.511 388.989 109.32 389.276 109.075C389.573 108.83 389.797 108.529 389.949 108.174C390.11 107.81 390.19 107.399 390.19 106.942C390.19 106.053 389.92 105.406 389.378 105C388.836 104.594 388.041 104.39 386.991 104.39C386.433 104.39 385.857 104.445 385.265 104.555C384.672 104.665 384.037 104.83 383.36 105.051V103.121C383.648 103.019 383.953 102.93 384.274 102.854C384.604 102.77 384.93 102.702 385.252 102.651C385.582 102.592 385.908 102.55 386.229 102.524C386.551 102.49 386.86 102.473 387.156 102.473C388.036 102.473 388.811 102.571 389.479 102.765C390.148 102.952 390.707 103.222 391.155 103.578C391.604 103.933 391.942 104.365 392.171 104.873C392.399 105.381 392.514 105.952 392.514 106.587C392.514 107.535 392.268 108.33 391.777 108.973C391.295 109.617 390.631 110.129 389.784 110.51C390.216 110.577 390.639 110.713 391.054 110.916C391.477 111.119 391.854 111.381 392.184 111.703C392.522 112.016 392.793 112.388 392.996 112.82C393.208 113.252 393.313 113.73 393.313 114.255ZM422.221 119.295H411.29V117.314L415.581 113.049C416.284 112.355 416.855 111.754 417.295 111.246C417.735 110.738 418.078 110.277 418.323 109.862C418.569 109.439 418.734 109.041 418.818 108.669C418.903 108.296 418.945 107.894 418.945 107.463C418.945 107.056 418.89 106.671 418.78 106.307C418.67 105.935 418.501 105.609 418.272 105.33C418.044 105.051 417.748 104.83 417.384 104.67C417.02 104.509 416.584 104.428 416.076 104.428C415.374 104.428 414.735 104.585 414.159 104.898C413.584 105.211 413.055 105.618 412.572 106.117L411.354 104.657C411.98 103.997 412.699 103.468 413.512 103.07C414.333 102.672 415.285 102.473 416.368 102.473C417.104 102.473 417.773 102.583 418.374 102.803C418.983 103.024 419.508 103.341 419.948 103.756C420.388 104.17 420.727 104.678 420.964 105.279C421.209 105.88 421.332 106.557 421.332 107.31C421.332 107.945 421.247 108.533 421.078 109.075C420.909 109.617 420.651 110.158 420.304 110.7C419.965 111.233 419.534 111.788 419.009 112.363C418.493 112.939 417.879 113.569 417.168 114.255L414.159 117.187H422.221V119.295Z" fill="black"/>
<mask id="path-11-inside-5_6296_7709" fill="white">
<rect x="47" y="174.295" width="30" height="32.5714" rx="1"/>
</mask>
<rect x="47" y="174.295" width="30" height="32.5714" rx="1" stroke="#FF5500" stroke-width="4" mask="url(#path-11-inside-5_6296_7709)"/>
<mask id="path-12-inside-6_6296_7709" fill="white">
<rect x="430" y="174.295" width="30" height="32.5714" rx="1"/>
</mask>
<rect x="430" y="174.295" width="30" height="32.5714" rx="1" stroke="#FF5500" stroke-width="4" mask="url(#path-12-inside-6_6296_7709)"/>
<path d="M0.03125 186.549H1.99902L2.08789 188.605C2.46029 188.165 2.81999 187.801 3.16699 187.513C3.514 187.217 3.85254 186.98 4.18262 186.802C4.52116 186.625 4.86393 186.502 5.21094 186.434C5.55794 186.358 5.91764 186.32 6.29004 186.32C7.60189 186.32 8.59212 186.709 9.26074 187.488C9.93783 188.258 10.2764 189.422 10.2764 190.979V199.295H8.06738V191.157C8.06738 190.158 7.88118 189.422 7.50879 188.948C7.13639 188.466 6.58203 188.224 5.8457 188.224C5.57487 188.224 5.30827 188.267 5.0459 188.351C4.79199 188.427 4.52539 188.567 4.24609 188.77C3.9668 188.965 3.66211 189.232 3.33203 189.57C3.01042 189.909 2.64648 190.332 2.24023 190.84V199.295H0.03125V186.549ZM39.1963 191.094H28.2783V189.227H39.1963V191.094ZM39.1963 195.511H28.2783V193.645H39.1963V195.511ZM67.8369 199.295H57.4141V197.238H61.6797V185.127L57.7061 187.285L56.8936 185.406L62.1748 182.626H64.1299V197.238H67.8369V199.295ZM86.791 201.897C87.2227 201.914 87.6416 201.876 88.0479 201.783C88.4541 201.69 88.8096 201.55 89.1143 201.364C89.4274 201.186 89.6771 200.962 89.8633 200.691C90.0495 200.42 90.1426 200.111 90.1426 199.764C90.1426 199.409 90.0791 199.121 89.9521 198.901C89.8337 198.681 89.6982 198.478 89.5459 198.292C89.3936 198.106 89.2539 197.907 89.127 197.695C89.0085 197.483 88.9492 197.2 88.9492 196.844C88.9492 196.667 88.9831 196.481 89.0508 196.286C89.1185 196.091 89.2201 195.913 89.3555 195.753C89.4993 195.592 89.6771 195.461 89.8887 195.359C90.1087 195.258 90.3669 195.207 90.6631 195.207C90.9593 195.207 91.2428 195.27 91.5137 195.397C91.793 195.516 92.0342 195.702 92.2373 195.956C92.4489 196.21 92.6139 196.527 92.7324 196.908C92.8594 197.289 92.9229 197.737 92.9229 198.254C92.9229 198.956 92.7917 199.629 92.5293 200.272C92.2754 200.924 91.8903 201.499 91.374 201.999C90.8662 202.498 90.2272 202.896 89.457 203.192C88.6953 203.488 87.8066 203.636 86.791 203.636V201.897Z" fill="black"/>
<path d="M197.552 186.549H199.57L199.634 188.897C200.387 187.992 201.128 187.336 201.855 186.929C202.592 186.523 203.332 186.32 204.077 186.32C205.397 186.32 206.396 186.747 207.073 187.602C207.759 188.457 208.076 189.727 208.025 191.411H205.791C205.816 190.294 205.651 189.485 205.296 188.986C204.949 188.478 204.437 188.224 203.76 188.224C203.464 188.224 203.163 188.279 202.858 188.389C202.562 188.491 202.253 188.66 201.932 188.897C201.618 189.126 201.284 189.422 200.929 189.786C200.573 190.15 200.192 190.59 199.786 191.106V199.295H197.552V186.549ZM222.092 192.249C222.092 192.562 222.088 192.824 222.079 193.036C222.071 193.247 222.058 193.446 222.041 193.633H213.091C213.091 194.936 213.455 195.939 214.183 196.641C214.91 197.335 215.96 197.682 217.331 197.682C217.703 197.682 218.076 197.67 218.448 197.644C218.821 197.61 219.18 197.568 219.527 197.517C219.874 197.467 220.204 197.412 220.518 197.352C220.839 197.285 221.135 197.213 221.406 197.136V198.952C220.805 199.121 220.124 199.257 219.362 199.358C218.609 199.468 217.826 199.523 217.014 199.523C215.922 199.523 214.982 199.375 214.195 199.079C213.408 198.783 212.761 198.355 212.253 197.797C211.754 197.23 211.381 196.54 211.136 195.727C210.899 194.906 210.78 193.98 210.78 192.947C210.78 192.05 210.907 191.204 211.161 190.408C211.424 189.604 211.8 188.901 212.291 188.301C212.79 187.691 213.4 187.209 214.119 186.853C214.839 186.498 215.655 186.32 216.569 186.32C217.458 186.32 218.245 186.46 218.931 186.739C219.616 187.018 220.192 187.416 220.657 187.932C221.131 188.44 221.487 189.062 221.724 189.799C221.969 190.526 222.092 191.343 222.092 192.249ZM219.794 191.931C219.819 191.364 219.764 190.848 219.629 190.383C219.493 189.909 219.282 189.502 218.994 189.164C218.715 188.825 218.364 188.563 217.94 188.377C217.517 188.182 217.026 188.085 216.468 188.085C215.985 188.085 215.545 188.178 215.147 188.364C214.75 188.55 214.407 188.813 214.119 189.151C213.831 189.49 213.599 189.896 213.421 190.37C213.243 190.844 213.133 191.364 213.091 191.931H219.794ZM224.428 186.549H226.941L230.064 194.978L230.737 197.035L231.436 194.927L234.533 186.549H236.958L231.956 199.295H229.417L224.428 186.549ZM250.682 192.249C250.682 192.562 250.677 192.824 250.669 193.036C250.66 193.247 250.648 193.446 250.631 193.633H241.681C241.681 194.936 242.045 195.939 242.772 196.641C243.5 197.335 244.55 197.682 245.921 197.682C246.293 197.682 246.666 197.67 247.038 197.644C247.41 197.61 247.77 197.568 248.117 197.517C248.464 197.467 248.794 197.412 249.107 197.352C249.429 197.285 249.725 197.213 249.996 197.136V198.952C249.395 199.121 248.714 199.257 247.952 199.358C247.199 199.468 246.416 199.523 245.604 199.523C244.512 199.523 243.572 199.375 242.785 199.079C241.998 198.783 241.351 198.355 240.843 197.797C240.343 197.23 239.971 196.54 239.726 195.727C239.489 194.906 239.37 193.98 239.37 192.947C239.37 192.05 239.497 191.204 239.751 190.408C240.013 189.604 240.39 188.901 240.881 188.301C241.38 187.691 241.99 187.209 242.709 186.853C243.428 186.498 244.245 186.32 245.159 186.32C246.048 186.32 246.835 186.46 247.521 186.739C248.206 187.018 248.782 187.416 249.247 187.932C249.721 188.44 250.076 189.062 250.313 189.799C250.559 190.526 250.682 191.343 250.682 192.249ZM248.384 191.931C248.409 191.364 248.354 190.848 248.219 190.383C248.083 189.909 247.872 189.502 247.584 189.164C247.305 188.825 246.953 188.563 246.53 188.377C246.107 188.182 245.616 188.085 245.058 188.085C244.575 188.085 244.135 188.178 243.737 188.364C243.34 188.55 242.997 188.813 242.709 189.151C242.421 189.49 242.188 189.896 242.011 190.37C241.833 190.844 241.723 191.364 241.681 191.931H248.384ZM254.731 186.549H256.75L256.813 188.897C257.567 187.992 258.307 187.336 259.035 186.929C259.771 186.523 260.512 186.32 261.257 186.32C262.577 186.32 263.576 186.747 264.253 187.602C264.938 188.457 265.256 189.727 265.205 191.411H262.971C262.996 190.294 262.831 189.485 262.476 188.986C262.129 188.478 261.617 188.224 260.939 188.224C260.643 188.224 260.343 188.279 260.038 188.389C259.742 188.491 259.433 188.66 259.111 188.897C258.798 189.126 258.464 189.422 258.108 189.786C257.753 190.15 257.372 190.59 256.966 191.106V199.295H254.731V186.549ZM278.599 195.816C278.599 196.265 278.522 196.667 278.37 197.022C278.218 197.378 278.01 197.695 277.748 197.974C277.486 198.245 277.181 198.478 276.834 198.673C276.487 198.867 276.115 199.028 275.717 199.155C275.327 199.282 274.925 199.375 274.511 199.434C274.096 199.494 273.69 199.523 273.292 199.523C272.429 199.523 271.633 199.485 270.905 199.409C270.186 199.333 269.479 199.21 268.785 199.041V197.01C269.53 197.221 270.271 197.382 271.007 197.492C271.743 197.602 272.475 197.657 273.203 197.657C274.261 197.657 275.044 197.513 275.552 197.225C276.06 196.938 276.313 196.527 276.313 195.994C276.313 195.765 276.271 195.562 276.187 195.385C276.11 195.198 275.966 195.025 275.755 194.864C275.543 194.695 275.213 194.521 274.765 194.344C274.325 194.166 273.719 193.963 272.949 193.734C272.374 193.565 271.84 193.374 271.35 193.163C270.867 192.943 270.448 192.685 270.093 192.388C269.737 192.092 269.458 191.745 269.255 191.347C269.052 190.95 268.95 190.48 268.95 189.938C268.95 189.583 269.031 189.193 269.191 188.77C269.361 188.347 269.644 187.954 270.042 187.59C270.44 187.226 270.977 186.925 271.654 186.688C272.331 186.443 273.178 186.32 274.193 186.32C274.693 186.32 275.247 186.35 275.856 186.409C276.466 186.46 277.101 186.553 277.761 186.688V188.656C277.067 188.487 276.407 188.364 275.78 188.288C275.162 188.203 274.625 188.161 274.168 188.161C273.618 188.161 273.152 188.203 272.771 188.288C272.399 188.372 272.094 188.491 271.857 188.643C271.629 188.787 271.464 188.961 271.362 189.164C271.261 189.358 271.21 189.57 271.21 189.799C271.21 190.027 271.252 190.234 271.337 190.421C271.43 190.607 271.595 190.789 271.832 190.967C272.077 191.136 272.416 191.309 272.848 191.487C273.279 191.656 273.842 191.843 274.536 192.046C275.289 192.266 275.924 192.498 276.44 192.744C276.957 192.981 277.376 193.247 277.697 193.544C278.019 193.84 278.247 194.174 278.383 194.547C278.527 194.919 278.599 195.342 278.599 195.816ZM293.566 192.249C293.566 192.562 293.562 192.824 293.554 193.036C293.545 193.247 293.533 193.446 293.516 193.633H284.565C284.565 194.936 284.929 195.939 285.657 196.641C286.385 197.335 287.435 197.682 288.806 197.682C289.178 197.682 289.55 197.67 289.923 197.644C290.295 197.61 290.655 197.568 291.002 197.517C291.349 197.467 291.679 197.412 291.992 197.352C292.314 197.285 292.61 197.213 292.881 197.136V198.952C292.28 199.121 291.599 199.257 290.837 199.358C290.084 199.468 289.301 199.523 288.488 199.523C287.396 199.523 286.457 199.375 285.67 199.079C284.883 198.783 284.235 198.355 283.728 197.797C283.228 197.23 282.856 196.54 282.61 195.727C282.373 194.906 282.255 193.98 282.255 192.947C282.255 192.05 282.382 191.204 282.636 190.408C282.898 189.604 283.275 188.901 283.766 188.301C284.265 187.691 284.874 187.209 285.594 186.853C286.313 186.498 287.13 186.32 288.044 186.32C288.933 186.32 289.72 186.46 290.405 186.739C291.091 187.018 291.666 187.416 292.132 187.932C292.606 188.44 292.961 189.062 293.198 189.799C293.444 190.526 293.566 191.343 293.566 192.249ZM291.269 191.931C291.294 191.364 291.239 190.848 291.104 190.383C290.968 189.909 290.757 189.502 290.469 189.164C290.189 188.825 289.838 188.563 289.415 188.377C288.992 188.182 288.501 188.085 287.942 188.085C287.46 188.085 287.02 188.178 286.622 188.364C286.224 188.55 285.882 188.813 285.594 189.151C285.306 189.49 285.073 189.896 284.896 190.37C284.718 190.844 284.608 191.364 284.565 191.931H291.269ZM296.448 193.188C296.448 192.105 296.596 191.144 296.893 190.306C297.189 189.46 297.608 188.749 298.149 188.174C298.7 187.59 299.355 187.149 300.117 186.853C300.887 186.549 301.742 186.396 302.682 186.396C303.088 186.396 303.486 186.422 303.875 186.472C304.273 186.523 304.662 186.604 305.043 186.714V181.356H307.265V199.295H305.284L305.208 196.883C304.59 197.78 303.922 198.444 303.202 198.876C302.483 199.307 301.704 199.523 300.866 199.523C300.138 199.523 299.495 199.371 298.937 199.066C298.386 198.761 297.925 198.334 297.553 197.784C297.189 197.225 296.914 196.557 296.728 195.778C296.541 194.999 296.448 194.136 296.448 193.188ZM298.708 193.049C298.708 194.589 298.932 195.74 299.381 196.502C299.838 197.255 300.481 197.632 301.311 197.632C301.869 197.632 302.457 197.382 303.075 196.883C303.701 196.383 304.357 195.643 305.043 194.661V188.745C304.679 188.576 304.277 188.449 303.837 188.364C303.397 188.271 302.961 188.224 302.529 188.224C301.327 188.224 300.388 188.614 299.711 189.392C299.042 190.171 298.708 191.39 298.708 193.049ZM323.654 204.5H309.359V202.672H323.654V204.5ZM325.686 186.549H327.653L327.742 188.605C328.115 188.165 328.474 187.801 328.821 187.513C329.168 187.217 329.507 186.98 329.837 186.802C330.175 186.625 330.518 186.502 330.865 186.434C331.212 186.358 331.572 186.32 331.944 186.32C333.256 186.32 334.246 186.709 334.915 187.488C335.592 188.258 335.931 189.422 335.931 190.979V199.295H333.722V191.157C333.722 190.158 333.535 189.422 333.163 188.948C332.791 188.466 332.236 188.224 331.5 188.224C331.229 188.224 330.963 188.267 330.7 188.351C330.446 188.427 330.18 188.567 329.9 188.77C329.621 188.965 329.316 189.232 328.986 189.57C328.665 189.909 328.301 190.332 327.895 190.84V199.295H325.686V186.549ZM364.851 191.094H353.933V189.227H364.851V191.094ZM364.851 195.511H353.933V193.645H364.851V195.511ZM393.313 194.255C393.313 194.983 393.165 195.668 392.869 196.311C392.573 196.946 392.129 197.505 391.536 197.987C390.944 198.461 390.199 198.838 389.302 199.117C388.405 199.388 387.359 199.523 386.166 199.523C385.506 199.523 384.913 199.502 384.389 199.46C383.864 199.417 383.373 199.362 382.916 199.295V197.314C383.441 197.407 383.995 197.479 384.579 197.53C385.163 197.581 385.76 197.606 386.369 197.606C387.199 197.606 387.905 197.534 388.489 197.39C389.082 197.238 389.564 197.022 389.937 196.743C390.309 196.464 390.58 196.125 390.749 195.727C390.918 195.33 391.003 194.881 391.003 194.382C391.003 193.925 390.901 193.527 390.698 193.188C390.495 192.85 390.207 192.566 389.835 192.338C389.471 192.109 389.031 191.94 388.515 191.83C388.007 191.711 387.448 191.652 386.839 191.652H384.947V189.837H386.864C387.364 189.837 387.816 189.773 388.223 189.646C388.637 189.511 388.989 189.32 389.276 189.075C389.573 188.83 389.797 188.529 389.949 188.174C390.11 187.81 390.19 187.399 390.19 186.942C390.19 186.053 389.92 185.406 389.378 185C388.836 184.594 388.041 184.39 386.991 184.39C386.433 184.39 385.857 184.445 385.265 184.555C384.672 184.665 384.037 184.83 383.36 185.051V183.121C383.648 183.019 383.953 182.93 384.274 182.854C384.604 182.77 384.93 182.702 385.252 182.651C385.582 182.592 385.908 182.55 386.229 182.524C386.551 182.49 386.86 182.473 387.156 182.473C388.036 182.473 388.811 182.571 389.479 182.765C390.148 182.952 390.707 183.222 391.155 183.578C391.604 183.933 391.942 184.365 392.171 184.873C392.399 185.381 392.514 185.952 392.514 186.587C392.514 187.535 392.268 188.33 391.777 188.973C391.295 189.617 390.631 190.129 389.784 190.51C390.216 190.577 390.639 190.713 391.054 190.916C391.477 191.119 391.854 191.381 392.184 191.703C392.522 192.016 392.793 192.388 392.996 192.82C393.208 193.252 393.313 193.73 393.313 194.255ZM422.221 199.295H411.29V197.314L415.581 193.049C416.284 192.355 416.855 191.754 417.295 191.246C417.735 190.738 418.078 190.277 418.323 189.862C418.569 189.439 418.734 189.041 418.818 188.669C418.903 188.296 418.945 187.894 418.945 187.463C418.945 187.056 418.89 186.671 418.78 186.307C418.67 185.935 418.501 185.609 418.272 185.33C418.044 185.051 417.748 184.83 417.384 184.67C417.02 184.509 416.584 184.428 416.076 184.428C415.374 184.428 414.735 184.585 414.159 184.898C413.584 185.211 413.055 185.618 412.572 186.117L411.354 184.657C411.98 183.997 412.699 183.468 413.512 183.07C414.333 182.672 415.285 182.473 416.368 182.473C417.104 182.473 417.773 182.583 418.374 182.803C418.983 183.024 419.508 183.341 419.948 183.756C420.388 184.17 420.727 184.678 420.964 185.279C421.209 185.88 421.332 186.557 421.332 187.31C421.332 187.945 421.247 188.533 421.078 189.075C420.909 189.617 420.651 190.158 420.304 190.7C419.965 191.233 419.534 191.788 419.009 192.363C418.493 192.939 417.879 193.569 417.168 194.255L414.159 197.187H422.221V199.295ZM450.671 199.295H440.248V197.238H444.514V185.127L440.54 187.285L439.728 185.406L445.009 182.626H446.964V197.238H450.671V199.295Z" fill="black"/>
<path d="M444.293 172.707C444.683 173.098 445.317 173.098 445.707 172.707L452.071 166.343C452.462 165.953 452.462 165.319 452.071 164.929C451.681 164.538 451.047 164.538 450.657 164.929L445 170.586L439.343 164.929C438.953 164.538 438.319 164.538 437.929 164.929C437.538 165.319 437.538 165.953 437.929 166.343L444.293 172.707ZM63 175.5V155H61V175.5H63ZM63 155H444V153H63V155ZM444 155V172H446V155H444ZM444 155H446C446 153.895 445.105 153 444 153V155ZM63 155V155V153C61.8954 153 61 153.895 61 155H63Z" fill="#FF5500"/>
</g>
<defs>
<clipPath id="clip0_6296_7709">
<rect width="460" height="207" fill="white"/>
</clipPath>
</defs>
</svg>
