<svg width="483" height="124" viewBox="0 0 483 124" fill="none" xmlns="http://www.w3.org/2000/svg">
<g clip-path="url(#clip0_6160_256)">
<rect width="483" height="124" fill="white"/>
<path d="M119.924 12.3984C119.924 13.5326 119.763 14.5228 119.441 15.3691C119.128 16.2155 118.692 16.918 118.134 17.4766C117.575 18.0352 116.915 18.4541 116.153 18.7334C115.392 19.0127 114.566 19.1523 113.678 19.1523C113.271 19.1523 112.865 19.1312 112.459 19.0889C112.061 19.0465 111.655 18.9746 111.24 18.873V24.2051H109.031V6.25391H110.999L111.139 8.38672C111.773 7.51497 112.451 6.9056 113.17 6.55859C113.889 6.20312 114.668 6.02539 115.506 6.02539C116.234 6.02539 116.873 6.17773 117.423 6.48242C117.973 6.78711 118.434 7.21875 118.807 7.77734C119.179 8.32747 119.458 8.99609 119.645 9.7832C119.831 10.5618 119.924 11.4336 119.924 12.3984ZM117.664 12.5C117.664 11.8314 117.613 11.2178 117.512 10.6592C117.419 10.1006 117.266 9.6224 117.055 9.22461C116.843 8.82682 116.572 8.5179 116.242 8.29785C115.912 8.06934 115.519 7.95508 115.062 7.95508C114.782 7.95508 114.499 8.00163 114.211 8.09473C113.923 8.17936 113.623 8.32747 113.31 8.53906C113.005 8.74219 112.679 9.01725 112.332 9.36426C111.993 9.7028 111.63 10.126 111.24 10.6338V16.8164C111.646 16.9857 112.074 17.1211 112.522 17.2227C112.971 17.3158 113.411 17.3623 113.843 17.3623C115.036 17.3623 115.971 16.9603 116.648 16.1562C117.326 15.3438 117.664 14.125 117.664 12.5ZM127.668 8.08203H123.897V6.25391H129.902V17.1592H133.698V19H123.479V17.1592H127.668V8.08203ZM128.442 0.90918C128.688 0.90918 128.916 0.955729 129.128 1.04883C129.34 1.13346 129.521 1.25618 129.674 1.41699C129.835 1.5778 129.957 1.764 130.042 1.97559C130.135 2.17871 130.182 2.40299 130.182 2.64844C130.182 2.88542 130.135 3.1097 130.042 3.32129C129.957 3.53288 129.835 3.71908 129.674 3.87988C129.521 4.04069 129.34 4.16764 129.128 4.26074C128.916 4.34538 128.688 4.3877 128.442 4.3877C128.197 4.3877 127.968 4.34538 127.757 4.26074C127.545 4.16764 127.359 4.04069 127.198 3.87988C127.046 3.71908 126.923 3.53288 126.83 3.32129C126.745 3.1097 126.703 2.88542 126.703 2.64844C126.703 2.40299 126.745 2.17871 126.83 1.97559C126.923 1.764 127.046 1.5778 127.198 1.41699C127.359 1.25618 127.545 1.13346 127.757 1.04883C127.968 0.955729 128.197 0.90918 128.442 0.90918ZM136.428 6.25391H138.941L142.064 14.6836L142.737 16.7402L143.436 14.6328L146.533 6.25391H148.958L143.956 19H141.417L136.428 6.25391ZM163.012 12.5254C163.012 13.5156 162.872 14.4255 162.593 15.2549C162.313 16.0758 161.911 16.7826 161.387 17.375C160.862 17.959 160.223 18.416 159.47 18.7461C158.716 19.0677 157.862 19.2285 156.905 19.2285C155.991 19.2285 155.17 19.0889 154.442 18.8096C153.723 18.5218 153.109 18.1029 152.602 17.5527C152.102 17.0026 151.717 16.3213 151.446 15.5088C151.184 14.6963 151.053 13.7611 151.053 12.7031C151.053 11.7129 151.192 10.8115 151.472 9.99902C151.751 9.17806 152.153 8.47559 152.678 7.8916C153.202 7.29915 153.841 6.84212 154.595 6.52051C155.348 6.19043 156.203 6.02539 157.159 6.02539C158.073 6.02539 158.89 6.16927 159.609 6.45703C160.337 6.73633 160.951 7.15104 161.45 7.70117C161.958 8.24284 162.343 8.91992 162.605 9.73242C162.876 10.5449 163.012 11.4759 163.012 12.5254ZM160.752 12.627C160.752 11.8398 160.663 11.1543 160.485 10.5703C160.316 9.97786 160.071 9.48698 159.749 9.09766C159.427 8.69987 159.034 8.40365 158.568 8.20898C158.111 8.00586 157.599 7.9043 157.032 7.9043C156.372 7.9043 155.805 8.03548 155.331 8.29785C154.866 8.55176 154.48 8.89453 154.176 9.32617C153.88 9.75781 153.66 10.2614 153.516 10.8369C153.38 11.404 153.312 12.0007 153.312 12.627C153.312 13.4141 153.397 14.1038 153.566 14.6963C153.744 15.2887 153.994 15.7839 154.315 16.1816C154.637 16.571 155.026 16.8672 155.483 17.0703C155.94 17.265 156.457 17.3623 157.032 17.3623C157.692 17.3623 158.255 17.2354 158.721 16.9814C159.195 16.7191 159.58 16.3721 159.876 15.9404C160.181 15.5088 160.401 15.0094 160.536 14.4424C160.68 13.8669 160.752 13.2617 160.752 12.627ZM176.481 18.8223C175.982 18.9492 175.466 19.0381 174.933 19.0889C174.399 19.1481 173.858 19.1777 173.308 19.1777C171.708 19.1777 170.515 18.818 169.728 18.0986C168.94 17.3708 168.547 16.2578 168.547 14.7598V8.10742H164.979V6.25391H168.547V2.75L170.756 2.17871V6.25391H176.481V8.10742H170.756V14.582C170.756 15.4961 170.997 16.1816 171.479 16.6387C171.97 17.0872 172.69 17.3115 173.638 17.3115C174.044 17.3115 174.488 17.2819 174.971 17.2227C175.453 17.1549 175.957 17.0534 176.481 16.918V18.8223Z" fill="#00B2FF"/>
<path d="M349.649 88L349.562 85.8027C349.249 86.1836 348.927 86.5303 348.595 86.8428C348.263 87.1553 347.906 87.4238 347.525 87.6484C347.145 87.8633 346.734 88.0293 346.295 88.1465C345.865 88.2734 345.387 88.3369 344.859 88.3369C343.98 88.3369 343.199 88.1611 342.516 87.8096C341.832 87.458 341.256 86.96 340.787 86.3154C340.328 85.6611 339.977 84.8701 339.732 83.9424C339.488 83.0146 339.366 81.9795 339.366 80.8369C339.366 79.4697 339.557 78.2881 339.938 77.292C340.328 76.2861 340.865 75.4561 341.549 74.8018C342.232 74.1377 343.043 73.6494 343.98 73.3369C344.918 73.0146 345.938 72.8535 347.042 72.8535C347.413 72.8535 347.784 72.8779 348.155 72.9268C348.536 72.9756 348.873 73.0391 349.166 73.1172V67.3018H352.74V88H349.649ZM343.116 80.6758C343.116 81.4961 343.17 82.1992 343.277 82.7852C343.395 83.3613 343.561 83.835 343.775 84.2061C344 84.5771 344.273 84.8506 344.596 85.0264C344.918 85.1924 345.284 85.2754 345.694 85.2754C346.3 85.2754 346.876 85.0312 347.423 84.543C347.97 84.0547 348.551 83.3857 349.166 82.5361V76.0322C348.883 75.9248 348.531 75.8369 348.111 75.7686C347.701 75.7002 347.286 75.666 346.866 75.666C346.29 75.666 345.772 75.7832 345.313 76.0176C344.854 76.252 344.459 76.584 344.127 77.0137C343.805 77.4434 343.556 77.9707 343.38 78.5957C343.204 79.2109 343.116 79.9043 343.116 80.6758Z" fill="black"/>
<path d="M418.045 88L417.986 86.0225C417.186 86.8135 416.37 87.3848 415.54 87.7363C414.72 88.0879 413.855 88.2637 412.947 88.2637C412.107 88.2637 411.39 88.1562 410.794 87.9414C410.198 87.7266 409.705 87.4336 409.314 87.0625C408.934 86.6816 408.65 86.2373 408.465 85.7295C408.289 85.2217 408.201 84.6699 408.201 84.0742C408.201 82.5996 408.748 81.4473 409.842 80.6172C410.945 79.7773 412.571 79.3574 414.72 79.3574H417.767V78.0684C417.767 77.1992 417.488 76.5059 416.932 75.9883C416.375 75.4609 415.525 75.1973 414.383 75.1973C413.553 75.1973 412.732 75.29 411.922 75.4756C411.121 75.6611 410.291 75.9248 409.432 76.2666V73.9668C409.754 73.8496 410.11 73.7373 410.501 73.6299C410.901 73.5127 411.321 73.4102 411.761 73.3223C412.2 73.2344 412.659 73.166 413.138 73.1172C413.616 73.0586 414.1 73.0293 414.588 73.0293C415.477 73.0293 416.277 73.127 416.99 73.3223C417.703 73.5176 418.304 73.8154 418.792 74.2158C419.29 74.6162 419.671 75.1191 419.935 75.7246C420.198 76.3301 420.33 77.043 420.33 77.8633V88H418.045ZM417.767 81.3057H414.529C413.895 81.3057 413.348 81.3691 412.889 81.4961C412.43 81.623 412.054 81.8037 411.761 82.0381C411.468 82.2725 411.248 82.5557 411.102 82.8877C410.965 83.21 410.896 83.5762 410.896 83.9863C410.896 84.2695 410.94 84.543 411.028 84.8066C411.116 85.0605 411.258 85.29 411.453 85.4951C411.648 85.6904 411.902 85.8467 412.215 85.9639C412.527 86.0811 412.908 86.1396 413.357 86.1396C413.943 86.1396 414.612 85.9639 415.364 85.6123C416.126 85.251 416.927 84.6846 417.767 83.9131V81.3057Z" fill="black"/>
<path d="M10.0449 88L9.98633 86.0225C9.18555 86.8135 8.37012 87.3848 7.54004 87.7363C6.71973 88.0879 5.85547 88.2637 4.94727 88.2637C4.10742 88.2637 3.38965 88.1562 2.79395 87.9414C2.19824 87.7266 1.70508 87.4336 1.31445 87.0625C0.933594 86.6816 0.650391 86.2373 0.464844 85.7295C0.289062 85.2217 0.201172 84.6699 0.201172 84.0742C0.201172 82.5996 0.748047 81.4473 1.8418 80.6172C2.94531 79.7773 4.57129 79.3574 6.71973 79.3574H9.7666V78.0684C9.7666 77.1992 9.48828 76.5059 8.93164 75.9883C8.375 75.4609 7.52539 75.1973 6.38281 75.1973C5.55273 75.1973 4.73242 75.29 3.92188 75.4756C3.12109 75.6611 2.29102 75.9248 1.43164 76.2666V73.9668C1.75391 73.8496 2.11035 73.7373 2.50098 73.6299C2.90137 73.5127 3.32129 73.4102 3.76074 73.3223C4.2002 73.2344 4.65918 73.166 5.1377 73.1172C5.61621 73.0586 6.09961 73.0293 6.58789 73.0293C7.47656 73.0293 8.27734 73.127 8.99023 73.3223C9.70312 73.5176 10.3037 73.8154 10.792 74.2158C11.29 74.6162 11.6709 75.1191 11.9346 75.7246C12.1982 76.3301 12.3301 77.043 12.3301 77.8633V88H10.0449ZM9.7666 81.3057H6.5293C5.89453 81.3057 5.34766 81.3691 4.88867 81.4961C4.42969 81.623 4.05371 81.8037 3.76074 82.0381C3.46777 82.2725 3.24805 82.5557 3.10156 82.8877C2.96484 83.21 2.89648 83.5762 2.89648 83.9863C2.89648 84.2695 2.94043 84.543 3.02832 84.8066C3.11621 85.0605 3.25781 85.29 3.45312 85.4951C3.64844 85.6904 3.90234 85.8467 4.21484 85.9639C4.52734 86.0811 4.9082 86.1396 5.35742 86.1396C5.94336 86.1396 6.6123 85.9639 7.36426 85.6123C8.12598 85.251 8.92676 84.6846 9.7666 83.9131V81.3057Z" fill="black"/>
<path d="M81.165 80.3828C81.165 81.6035 80.9941 82.6973 80.6523 83.6641C80.3203 84.6211 79.8418 85.4365 79.2168 86.1104C78.6016 86.7744 77.8496 87.2871 76.9609 87.6484C76.0723 88 75.0713 88.1758 73.958 88.1758C73.0889 88.1758 72.2002 88.0928 71.292 87.9268C70.3838 87.7607 69.4854 87.4971 68.5967 87.1357V67.3018H71.1455V73L71.0283 75.7246C71.7607 74.7383 72.542 74.0449 73.3721 73.6445C74.2119 73.2344 75.1104 73.0293 76.0674 73.0293C76.9072 73.0293 77.6445 73.2051 78.2793 73.5566C78.9141 73.9082 79.4463 74.4062 79.876 75.0508C80.3057 75.6855 80.6279 76.457 80.8428 77.3652C81.0576 78.2637 81.165 79.2695 81.165 80.3828ZM78.5576 80.5C78.5576 79.7285 78.499 79.0205 78.3818 78.376C78.2744 77.7314 78.0986 77.1797 77.8545 76.7207C77.6104 76.2617 77.2979 75.9053 76.917 75.6514C76.5361 75.3877 76.082 75.2559 75.5547 75.2559C75.2324 75.2559 74.9053 75.3096 74.5732 75.417C74.2412 75.5146 73.8945 75.6855 73.5332 75.9297C73.1816 76.1641 72.8057 76.4814 72.4053 76.8818C72.0146 77.2725 71.5947 77.7607 71.1455 78.3467V85.4805C71.6436 85.6758 72.1514 85.832 72.6689 85.9492C73.1865 86.0566 73.6797 86.1104 74.1484 86.1104C74.7344 86.1104 75.291 86.0176 75.8184 85.832C76.3555 85.6465 76.8242 85.3389 77.2246 84.9092C77.6348 84.4697 77.957 83.8936 78.1914 83.1807C78.4355 82.458 78.5576 81.5645 78.5576 80.5Z" fill="black"/>
<path d="M148.33 87.4287C147.627 87.7119 146.899 87.9219 146.147 88.0586C145.396 88.1953 144.609 88.2637 143.789 88.2637C142.607 88.2637 141.548 88.1025 140.61 87.7803C139.673 87.458 138.877 86.9795 138.223 86.3447C137.568 85.71 137.065 84.9238 136.714 83.9863C136.372 83.0488 136.201 81.9648 136.201 80.7344C136.201 79.543 136.387 78.4639 136.758 77.4971C137.139 76.5303 137.671 75.7051 138.354 75.0215C139.038 74.3379 139.858 73.8105 140.815 73.4395C141.782 73.0684 142.856 72.8828 144.038 72.8828C145.005 72.8828 145.815 72.9365 146.47 73.0439C147.134 73.1416 147.729 73.2686 148.257 73.4248V76.8965C147.651 76.5938 146.992 76.3594 146.279 76.1934C145.576 76.0273 144.907 75.9443 144.272 75.9443C143.608 75.9443 143.013 76.0566 142.485 76.2812C141.958 76.5059 141.514 76.8184 141.152 77.2188C140.791 77.6191 140.513 78.1074 140.317 78.6836C140.132 79.25 140.039 79.875 140.039 80.5586C140.039 81.2715 140.142 81.9111 140.347 82.4775C140.552 83.0439 140.84 83.5273 141.211 83.9277C141.592 84.3184 142.046 84.6211 142.573 84.8359C143.101 85.041 143.687 85.1436 144.331 85.1436C144.644 85.1436 144.971 85.124 145.312 85.085C145.664 85.0361 146.011 84.9727 146.353 84.8945C146.704 84.8066 147.046 84.709 147.378 84.6016C147.72 84.4941 148.037 84.377 148.33 84.25V87.4287Z" fill="#00B2FF"/>
<path d="M217.019 79.8701C217.019 80.2314 217.014 80.5342 217.004 80.7783C216.994 81.0225 216.979 81.252 216.96 81.4668H206.633C206.633 82.9707 207.053 84.1279 207.893 84.9385C208.732 85.7393 209.943 86.1396 211.525 86.1396C211.955 86.1396 212.385 86.125 212.814 86.0957C213.244 86.0566 213.659 86.0078 214.06 85.9492C214.46 85.8906 214.841 85.8271 215.202 85.7588C215.573 85.6807 215.915 85.5977 216.228 85.5098V87.6045C215.534 87.7998 214.748 87.9561 213.869 88.0732C213 88.2002 212.097 88.2637 211.159 88.2637C209.899 88.2637 208.815 88.0928 207.907 87.751C206.999 87.4092 206.252 86.916 205.666 86.2715C205.09 85.6172 204.66 84.8213 204.377 83.8838C204.104 82.9365 203.967 81.8672 203.967 80.6758C203.967 79.6406 204.113 78.6641 204.406 77.7461C204.709 76.8184 205.144 76.0078 205.71 75.3145C206.286 74.6113 206.989 74.0547 207.819 73.6445C208.649 73.2344 209.592 73.0293 210.646 73.0293C211.672 73.0293 212.58 73.1904 213.371 73.5127C214.162 73.835 214.826 74.2939 215.363 74.8896C215.91 75.4756 216.32 76.1934 216.594 77.043C216.877 77.8828 217.019 78.8252 217.019 79.8701ZM214.367 79.5039C214.396 78.8496 214.333 78.2539 214.177 77.7168C214.021 77.1699 213.776 76.7012 213.444 76.3105C213.122 75.9199 212.717 75.6172 212.229 75.4023C211.74 75.1777 211.174 75.0654 210.529 75.0654C209.973 75.0654 209.465 75.1729 209.006 75.3877C208.547 75.6025 208.151 75.9053 207.819 76.2959C207.487 76.6865 207.219 77.1553 207.014 77.7021C206.809 78.249 206.682 78.8496 206.633 79.5039H214.367Z" fill="black"/>
<path d="M271.85 80.9541C271.85 79.7041 272.021 78.5957 272.362 77.6289C272.704 76.6523 273.188 75.832 273.812 75.168C274.447 74.4941 275.204 73.9863 276.083 73.6445C276.972 73.293 277.958 73.1172 279.042 73.1172C279.511 73.1172 279.97 73.1465 280.419 73.2051C280.878 73.2637 281.327 73.3564 281.767 73.4834V67.3018H284.33V88H282.045L281.957 85.2168C281.244 86.252 280.473 87.0186 279.643 87.5166C278.812 88.0146 277.914 88.2637 276.947 88.2637C276.107 88.2637 275.365 88.0879 274.721 87.7363C274.086 87.3848 273.554 86.8916 273.124 86.2568C272.704 85.6123 272.387 84.8408 272.172 83.9424C271.957 83.0439 271.85 82.0479 271.85 80.9541ZM274.457 80.793C274.457 82.5703 274.716 83.8984 275.233 84.7773C275.761 85.6465 276.503 86.0811 277.46 86.0811C278.104 86.0811 278.783 85.793 279.496 85.2168C280.219 84.6406 280.976 83.7861 281.767 82.6533V75.8271C281.347 75.6318 280.883 75.4854 280.375 75.3877C279.867 75.2803 279.364 75.2266 278.866 75.2266C277.479 75.2266 276.396 75.6758 275.614 76.5742C274.843 77.4727 274.457 78.8789 274.457 80.793Z" fill="black"/>
<path d="M351.48 119.178H349.303V122H347.564V119.178H341.422V117.684L346.861 109.236H349.303V117.684H351.48V119.178ZM347.564 110.877L343.121 117.684H347.564V110.877Z" fill="black" fill-opacity="0.4"/>
<path d="M418.738 122H410.721V120.418H414.002V111.102L410.945 112.762L410.32 111.316L414.383 109.178H415.887V120.418H418.738V122Z" fill="black" fill-opacity="0.4"/>
<path d="M10.7383 122H2.7207V120.418H6.00195V111.102L2.94531 112.762L2.32031 111.316L6.38281 109.178H7.88672V120.418H10.7383V122Z" fill="black" fill-opacity="0.4"/>
<path d="M78.8457 122H70.4375V120.477L73.7383 117.195C74.2786 116.661 74.7181 116.199 75.0566 115.809C75.3952 115.418 75.6589 115.063 75.8477 114.744C76.0365 114.419 76.1634 114.113 76.2285 113.826C76.2936 113.54 76.3262 113.23 76.3262 112.898C76.3262 112.586 76.2839 112.29 76.1992 112.01C76.1146 111.723 75.9844 111.473 75.8086 111.258C75.6328 111.043 75.4049 110.874 75.125 110.75C74.8451 110.626 74.5098 110.564 74.1191 110.564C73.5788 110.564 73.0872 110.685 72.6445 110.926C72.2018 111.167 71.7949 111.479 71.4238 111.863L70.4863 110.74C70.9681 110.232 71.5215 109.826 72.1465 109.52C72.778 109.214 73.5104 109.061 74.3438 109.061C74.9102 109.061 75.4245 109.145 75.8867 109.314C76.3555 109.484 76.7591 109.728 77.0977 110.047C77.4362 110.366 77.6966 110.757 77.8789 111.219C78.0677 111.681 78.1621 112.202 78.1621 112.781C78.1621 113.27 78.097 113.722 77.9668 114.139C77.8366 114.555 77.638 114.972 77.3711 115.389C77.1107 115.799 76.7786 116.225 76.375 116.668C75.9779 117.111 75.5059 117.596 74.959 118.123L72.6445 120.379H78.8457V122Z" fill="black" fill-opacity="0.4"/>
<path d="M146.602 118.123C146.602 118.683 146.488 119.21 146.26 119.705C146.032 120.193 145.69 120.623 145.234 120.994C144.779 121.359 144.206 121.648 143.516 121.863C142.826 122.072 142.021 122.176 141.104 122.176C140.596 122.176 140.14 122.16 139.736 122.127C139.333 122.094 138.955 122.052 138.604 122V120.477C139.007 120.548 139.434 120.604 139.883 120.643C140.332 120.682 140.791 120.701 141.26 120.701C141.898 120.701 142.441 120.646 142.891 120.535C143.346 120.418 143.717 120.252 144.004 120.037C144.29 119.822 144.499 119.562 144.629 119.256C144.759 118.95 144.824 118.605 144.824 118.221C144.824 117.869 144.746 117.563 144.59 117.303C144.434 117.042 144.212 116.824 143.926 116.648C143.646 116.473 143.307 116.342 142.91 116.258C142.52 116.167 142.09 116.121 141.621 116.121H140.166V114.725H141.641C142.025 114.725 142.373 114.676 142.686 114.578C143.005 114.474 143.275 114.327 143.496 114.139C143.724 113.95 143.896 113.719 144.014 113.445C144.137 113.165 144.199 112.85 144.199 112.498C144.199 111.814 143.991 111.316 143.574 111.004C143.158 110.691 142.546 110.535 141.738 110.535C141.309 110.535 140.866 110.577 140.41 110.662C139.954 110.747 139.466 110.874 138.945 111.043V109.559C139.167 109.48 139.401 109.412 139.648 109.354C139.902 109.288 140.153 109.236 140.4 109.197C140.654 109.152 140.905 109.119 141.152 109.1C141.4 109.074 141.637 109.061 141.865 109.061C142.542 109.061 143.138 109.135 143.652 109.285C144.167 109.428 144.596 109.637 144.941 109.91C145.286 110.184 145.547 110.516 145.723 110.906C145.898 111.297 145.986 111.736 145.986 112.225C145.986 112.954 145.798 113.566 145.42 114.061C145.049 114.555 144.538 114.949 143.887 115.242C144.219 115.294 144.544 115.398 144.863 115.555C145.189 115.711 145.479 115.913 145.732 116.16C145.993 116.401 146.201 116.688 146.357 117.02C146.52 117.352 146.602 117.719 146.602 118.123Z" fill="black" fill-opacity="0.4"/>
<path d="M214.523 117.918C214.523 118.549 214.387 119.126 214.113 119.646C213.84 120.167 213.462 120.617 212.98 120.994C212.505 121.365 211.942 121.655 211.291 121.863C210.64 122.072 209.937 122.176 209.182 122.176C208.993 122.176 208.788 122.169 208.566 122.156C208.352 122.15 208.137 122.137 207.922 122.117C207.707 122.104 207.495 122.088 207.287 122.068C207.085 122.049 206.903 122.026 206.74 122V120.457C207.092 120.542 207.492 120.604 207.941 120.643C208.397 120.682 208.856 120.701 209.318 120.701C209.839 120.701 210.308 120.639 210.725 120.516C211.141 120.392 211.496 120.216 211.789 119.988C212.082 119.754 212.307 119.474 212.463 119.148C212.619 118.816 212.697 118.445 212.697 118.035C212.697 117.241 212.411 116.665 211.838 116.307C211.271 115.942 210.454 115.76 209.387 115.76H206.965V109.236H213.84V110.721H208.566V114.305H209.68C210.292 114.305 210.887 114.36 211.467 114.471C212.046 114.581 212.561 114.777 213.01 115.057C213.465 115.33 213.83 115.701 214.104 116.17C214.383 116.632 214.523 117.215 214.523 117.918Z" fill="black" fill-opacity="0.4"/>
<path d="M283.48 119.178H281.303V122H279.564V119.178H273.422V117.684L278.861 109.236H281.303V117.684H283.48V119.178ZM279.564 110.877L275.121 117.684H279.564V110.877Z" fill="black" fill-opacity="0.4"/>
<path d="M143.457 63.2071C143.067 63.5976 142.433 63.5976 142.043 63.2071L135.679 56.8431C135.288 56.4526 135.288 55.8195 135.679 55.4289C136.069 55.0384 136.703 55.0384 137.093 55.4289L142.75 61.0858L148.407 55.4289C148.797 55.0384 149.431 55.0384 149.821 55.4289C150.212 55.8195 150.212 56.4526 149.821 56.8431L143.457 63.2071ZM143.75 27.5L143.75 62.5L141.75 62.5L141.75 27.5L143.75 27.5Z" fill="#00B2FF"/>
<path d="M213.75 6.25391H215.769L215.832 8.60254C216.585 7.69694 217.326 7.04102 218.054 6.63477C218.79 6.22852 219.531 6.02539 220.275 6.02539C221.596 6.02539 222.594 6.4528 223.271 7.30762C223.957 8.16243 224.274 9.43197 224.224 11.1162H221.989C222.015 9.99902 221.85 9.19076 221.494 8.69141C221.147 8.18359 220.635 7.92969 219.958 7.92969C219.662 7.92969 219.361 7.9847 219.057 8.09473C218.76 8.19629 218.451 8.36556 218.13 8.60254C217.817 8.83105 217.482 9.12728 217.127 9.49121C216.771 9.85514 216.391 10.2952 215.984 10.8115V19H213.75V6.25391ZM231.866 8.08203H228.096V6.25391H234.101V17.1592H237.896V19H227.677V17.1592H231.866V8.08203ZM232.641 0.90918C232.886 0.90918 233.115 0.955729 233.326 1.04883C233.538 1.13346 233.72 1.25618 233.872 1.41699C234.033 1.5778 234.156 1.764 234.24 1.97559C234.333 2.17871 234.38 2.40299 234.38 2.64844C234.38 2.88542 234.333 3.1097 234.24 3.32129C234.156 3.53288 234.033 3.71908 233.872 3.87988C233.72 4.04069 233.538 4.16764 233.326 4.26074C233.115 4.34538 232.886 4.3877 232.641 4.3877C232.395 4.3877 232.167 4.34538 231.955 4.26074C231.743 4.16764 231.557 4.04069 231.396 3.87988C231.244 3.71908 231.121 3.53288 231.028 3.32129C230.944 3.1097 230.901 2.88542 230.901 2.64844C230.901 2.40299 230.944 2.17871 231.028 1.97559C231.121 1.764 231.244 1.5778 231.396 1.41699C231.557 1.25618 231.743 1.13346 231.955 1.04883C232.167 0.955729 232.395 0.90918 232.641 0.90918ZM250.998 8.05664C251.235 8.35286 251.417 8.69987 251.544 9.09766C251.679 9.48698 251.747 9.91016 251.747 10.3672C251.747 11.0273 251.624 11.6325 251.379 12.1826C251.142 12.7243 250.803 13.1898 250.363 13.5791C249.923 13.9684 249.394 14.2731 248.776 14.4932C248.167 14.7048 247.494 14.8105 246.758 14.8105C246.225 14.8105 245.725 14.7555 245.26 14.6455C244.794 14.527 244.426 14.3831 244.155 14.2139C243.994 14.4508 243.859 14.6751 243.749 14.8867C243.639 15.0983 243.584 15.3353 243.584 15.5977C243.584 15.9193 243.736 16.1859 244.041 16.3975C244.354 16.609 244.765 16.7233 245.272 16.7402L248.624 16.8672C249.259 16.8841 249.843 16.9645 250.376 17.1084C250.918 17.2523 251.379 17.4596 251.76 17.7305C252.149 18.0013 252.45 18.3356 252.661 18.7334C252.881 19.1312 252.991 19.5924 252.991 20.1172C252.991 20.6842 252.868 21.2217 252.623 21.7295C252.378 22.2373 251.997 22.6816 251.48 23.0625C250.973 23.4518 250.325 23.7607 249.538 23.9893C248.751 24.2178 247.816 24.332 246.732 24.332C245.7 24.332 244.82 24.2474 244.092 24.0781C243.372 23.9173 242.78 23.6888 242.314 23.3926C241.849 23.1048 241.51 22.7578 241.299 22.3516C241.087 21.9538 240.981 21.5137 240.981 21.0312C240.981 20.4134 241.125 19.8717 241.413 19.4062C241.701 18.9408 242.145 18.4922 242.746 18.0605C242.526 17.959 242.336 17.832 242.175 17.6797C242.014 17.5273 241.883 17.3623 241.781 17.1846C241.68 16.9984 241.604 16.8037 241.553 16.6006C241.502 16.3975 241.477 16.1986 241.477 16.0039C241.477 15.4538 241.604 14.9502 241.857 14.4932C242.12 14.0361 242.429 13.6045 242.784 13.1982C242.623 13.0036 242.479 12.8132 242.353 12.627C242.234 12.4408 242.128 12.2419 242.035 12.0303C241.951 11.8102 241.883 11.5775 241.832 11.332C241.79 11.0781 241.769 10.7904 241.769 10.4688C241.769 9.80859 241.887 9.20768 242.124 8.66602C242.369 8.11589 242.708 7.64616 243.14 7.25684C243.58 6.86751 244.104 6.56706 244.714 6.35547C245.332 6.13542 246.013 6.02539 246.758 6.02539C247.071 6.02539 247.371 6.04655 247.659 6.08887C247.947 6.13118 248.201 6.1862 248.421 6.25391H253.042V8.05664H250.998ZM243.33 20.8408C243.33 21.4417 243.643 21.8776 244.27 22.1484C244.896 22.4277 245.768 22.5674 246.885 22.5674C247.587 22.5674 248.175 22.5039 248.649 22.377C249.132 22.25 249.517 22.0807 249.805 21.8691C250.101 21.666 250.312 21.429 250.439 21.1582C250.566 20.8958 250.63 20.625 250.63 20.3457C250.63 19.8294 250.418 19.4486 249.995 19.2031C249.572 18.9577 248.924 18.8138 248.053 18.7715L244.727 18.6572C244.447 18.8434 244.215 19.0254 244.028 19.2031C243.851 19.3809 243.711 19.5586 243.609 19.7363C243.508 19.9225 243.436 20.1045 243.394 20.2822C243.351 20.4684 243.33 20.6546 243.33 20.8408ZM244.003 10.418C244.003 10.8242 244.071 11.1966 244.206 11.5352C244.341 11.8737 244.532 12.1615 244.777 12.3984C245.023 12.6354 245.311 12.8216 245.641 12.957C245.979 13.084 246.352 13.1475 246.758 13.1475C247.198 13.1475 247.587 13.0755 247.926 12.9316C248.273 12.7793 248.561 12.5762 248.789 12.3223C249.026 12.0684 249.204 11.7764 249.322 11.4463C249.449 11.1162 249.513 10.7734 249.513 10.418C249.513 10.0117 249.445 9.63932 249.31 9.30078C249.174 8.96224 248.984 8.67448 248.738 8.4375C248.493 8.20052 248.201 8.01855 247.862 7.8916C247.532 7.75618 247.164 7.68848 246.758 7.68848C246.318 7.68848 245.924 7.76465 245.577 7.91699C245.239 8.06934 244.951 8.27246 244.714 8.52637C244.485 8.77181 244.308 9.05957 244.181 9.38965C244.062 9.71973 244.003 10.0625 244.003 10.418ZM266.359 19H264.15V10.8623C264.15 9.88053 263.964 9.14844 263.592 8.66602C263.228 8.17513 262.703 7.92969 262.018 7.92969C261.721 7.92969 261.442 7.97201 261.18 8.05664C260.926 8.13281 260.659 8.27246 260.38 8.47559C260.101 8.67025 259.796 8.93685 259.466 9.27539C259.136 9.61393 258.755 10.0371 258.323 10.5449V19H256.114V1.06152H258.323V6.25391L258.247 8.25977C258.594 7.84505 258.933 7.49805 259.263 7.21875C259.601 6.93099 259.936 6.69824 260.266 6.52051C260.604 6.34277 260.947 6.21582 261.294 6.13965C261.641 6.06348 262.001 6.02539 262.373 6.02539C263.643 6.02539 264.624 6.41471 265.318 7.19336C266.012 7.96354 266.359 9.12728 266.359 10.6846V19ZM280.68 18.8223C280.18 18.9492 279.664 19.0381 279.131 19.0889C278.598 19.1481 278.056 19.1777 277.506 19.1777C275.906 19.1777 274.713 18.818 273.926 18.0986C273.139 17.3708 272.745 16.2578 272.745 14.7598V8.10742H269.178V6.25391H272.745V2.75L274.954 2.17871V6.25391H280.68V8.10742H274.954V14.582C274.954 15.4961 275.195 16.1816 275.678 16.6387C276.169 17.0872 276.888 17.3115 277.836 17.3115C278.242 17.3115 278.687 17.2819 279.169 17.2227C279.651 17.1549 280.155 17.0534 280.68 16.918V18.8223ZM293.794 19V9.84668C293.794 9.44889 293.777 9.12305 293.743 8.86914C293.718 8.61523 293.671 8.41634 293.604 8.27246C293.544 8.12012 293.464 8.01432 293.362 7.95508C293.269 7.89583 293.151 7.86621 293.007 7.86621C292.838 7.86621 292.681 7.91699 292.537 8.01855C292.393 8.12012 292.237 8.28516 292.067 8.51367C291.907 8.74219 291.725 9.04688 291.521 9.42773C291.327 9.80013 291.094 10.2614 290.823 10.8115V19H288.805V10.0879C288.805 9.6224 288.788 9.24577 288.754 8.95801C288.729 8.67025 288.682 8.44596 288.614 8.28516C288.555 8.12435 288.475 8.01432 288.373 7.95508C288.271 7.89583 288.149 7.86621 288.005 7.86621C287.853 7.86621 287.709 7.90853 287.573 7.99316C287.438 8.0778 287.285 8.23014 287.116 8.4502C286.955 8.67025 286.773 8.9707 286.57 9.35156C286.367 9.73242 286.126 10.2191 285.847 10.8115V19H283.815V6.25391H285.504L285.605 8.67871C285.826 8.19629 286.037 7.78581 286.24 7.44727C286.452 7.10872 286.668 6.83789 286.888 6.63477C287.108 6.42318 287.34 6.27083 287.586 6.17773C287.84 6.07617 288.119 6.02539 288.424 6.02539C289.109 6.02539 289.63 6.24967 289.985 6.69824C290.341 7.14681 290.519 7.84082 290.519 8.78027C290.722 8.34017 290.921 7.95085 291.115 7.6123C291.31 7.2653 291.517 6.97754 291.737 6.74902C291.966 6.51204 292.215 6.33431 292.486 6.21582C292.757 6.08887 293.07 6.02539 293.426 6.02539C295.025 6.02539 295.825 7.25684 295.825 9.71973V19H293.794ZM310.095 12.5254C310.095 13.5156 309.955 14.4255 309.676 15.2549C309.396 16.0758 308.994 16.7826 308.47 17.375C307.945 17.959 307.306 18.416 306.553 18.7461C305.799 19.0677 304.945 19.2285 303.988 19.2285C303.074 19.2285 302.253 19.0889 301.525 18.8096C300.806 18.5218 300.192 18.1029 299.685 17.5527C299.185 17.0026 298.8 16.3213 298.529 15.5088C298.267 14.6963 298.136 13.7611 298.136 12.7031C298.136 11.7129 298.275 10.8115 298.555 9.99902C298.834 9.17806 299.236 8.47559 299.761 7.8916C300.285 7.29915 300.924 6.84212 301.678 6.52051C302.431 6.19043 303.286 6.02539 304.242 6.02539C305.156 6.02539 305.973 6.16927 306.692 6.45703C307.42 6.73633 308.034 7.15104 308.533 7.70117C309.041 8.24284 309.426 8.91992 309.688 9.73242C309.959 10.5449 310.095 11.4759 310.095 12.5254ZM307.835 12.627C307.835 11.8398 307.746 11.1543 307.568 10.5703C307.399 9.97786 307.154 9.48698 306.832 9.09766C306.51 8.69987 306.117 8.40365 305.651 8.20898C305.194 8.00586 304.682 7.9043 304.115 7.9043C303.455 7.9043 302.888 8.03548 302.414 8.29785C301.949 8.55176 301.563 8.89453 301.259 9.32617C300.963 9.75781 300.743 10.2614 300.599 10.8369C300.463 11.404 300.396 12.0007 300.396 12.627C300.396 13.4141 300.48 14.1038 300.649 14.6963C300.827 15.2887 301.077 15.7839 301.398 16.1816C301.72 16.571 302.109 16.8672 302.566 17.0703C303.023 17.265 303.54 17.3623 304.115 17.3623C304.775 17.3623 305.338 17.2354 305.804 16.9814C306.278 16.7191 306.663 16.3721 306.959 15.9404C307.264 15.5088 307.484 15.0094 307.619 14.4424C307.763 13.8669 307.835 13.2617 307.835 12.627ZM323.387 15.5215C323.387 15.9701 323.311 16.3721 323.158 16.7275C323.006 17.083 322.799 17.4004 322.536 17.6797C322.274 17.9505 321.969 18.1833 321.622 18.3779C321.275 18.5726 320.903 18.7334 320.505 18.8604C320.116 18.9873 319.714 19.0804 319.299 19.1396C318.884 19.1989 318.478 19.2285 318.08 19.2285C317.217 19.2285 316.421 19.1904 315.693 19.1143C314.974 19.0381 314.267 18.9154 313.573 18.7461V16.7148C314.318 16.9264 315.059 17.0872 315.795 17.1973C316.531 17.3073 317.263 17.3623 317.991 17.3623C319.049 17.3623 319.832 17.2184 320.34 16.9307C320.848 16.6429 321.102 16.2324 321.102 15.6992C321.102 15.4707 321.059 15.2676 320.975 15.0898C320.898 14.9036 320.755 14.7301 320.543 14.5693C320.331 14.4001 320.001 14.2266 319.553 14.0488C319.113 13.8711 318.507 13.668 317.737 13.4395C317.162 13.2702 316.629 13.0798 316.138 12.8682C315.655 12.6481 315.236 12.39 314.881 12.0938C314.525 11.7975 314.246 11.4505 314.043 11.0527C313.84 10.6549 313.738 10.1852 313.738 9.64355C313.738 9.28809 313.819 8.89876 313.979 8.47559C314.149 8.05241 314.432 7.65885 314.83 7.29492C315.228 6.93099 315.765 6.63053 316.442 6.39355C317.119 6.14811 317.966 6.02539 318.981 6.02539C319.481 6.02539 320.035 6.05501 320.645 6.11426C321.254 6.16504 321.889 6.25814 322.549 6.39355V8.36133C321.855 8.19206 321.195 8.06934 320.568 7.99316C319.951 7.90853 319.413 7.86621 318.956 7.86621C318.406 7.86621 317.94 7.90853 317.56 7.99316C317.187 8.0778 316.882 8.19629 316.646 8.34863C316.417 8.49251 316.252 8.66602 316.15 8.86914C316.049 9.0638 315.998 9.27539 315.998 9.50391C315.998 9.73242 316.04 9.93978 316.125 10.126C316.218 10.3122 316.383 10.4941 316.62 10.6719C316.866 10.8411 317.204 11.0146 317.636 11.1924C318.067 11.3617 318.63 11.5479 319.324 11.751C320.077 11.971 320.712 12.2038 321.229 12.4492C321.745 12.6862 322.164 12.9528 322.485 13.249C322.807 13.5452 323.035 13.8796 323.171 14.252C323.315 14.6243 323.387 15.0475 323.387 15.5215ZM337.859 18.8223C337.36 18.9492 336.844 19.0381 336.311 19.0889C335.777 19.1481 335.236 19.1777 334.686 19.1777C333.086 19.1777 331.893 18.818 331.105 18.0986C330.318 17.3708 329.925 16.2578 329.925 14.7598V8.10742H326.357V6.25391H329.925V2.75L332.134 2.17871V6.25391H337.859V8.10742H332.134V14.582C332.134 15.4961 332.375 16.1816 332.857 16.6387C333.348 17.0872 334.068 17.3115 335.016 17.3115C335.422 17.3115 335.866 17.2819 336.349 17.2227C336.831 17.1549 337.335 17.0534 337.859 16.918V18.8223ZM354.147 24.2051H339.853V22.377H354.147V24.2051ZM366.271 15.5215C366.271 15.9701 366.195 16.3721 366.043 16.7275C365.891 17.083 365.683 17.4004 365.421 17.6797C365.159 17.9505 364.854 18.1833 364.507 18.3779C364.16 18.5726 363.787 18.7334 363.39 18.8604C363 18.9873 362.598 19.0804 362.184 19.1396C361.769 19.1989 361.363 19.2285 360.965 19.2285C360.102 19.2285 359.306 19.1904 358.578 19.1143C357.859 19.0381 357.152 18.9154 356.458 18.7461V16.7148C357.203 16.9264 357.943 17.0872 358.68 17.1973C359.416 17.3073 360.148 17.3623 360.876 17.3623C361.934 17.3623 362.717 17.2184 363.225 16.9307C363.732 16.6429 363.986 16.2324 363.986 15.6992C363.986 15.4707 363.944 15.2676 363.859 15.0898C363.783 14.9036 363.639 14.7301 363.428 14.5693C363.216 14.4001 362.886 14.2266 362.438 14.0488C361.997 13.8711 361.392 13.668 360.622 13.4395C360.047 13.2702 359.513 13.0798 359.022 12.8682C358.54 12.6481 358.121 12.39 357.766 12.0938C357.41 11.7975 357.131 11.4505 356.928 11.0527C356.725 10.6549 356.623 10.1852 356.623 9.64355C356.623 9.28809 356.703 8.89876 356.864 8.47559C357.034 8.05241 357.317 7.65885 357.715 7.29492C358.113 6.93099 358.65 6.63053 359.327 6.39355C360.004 6.14811 360.851 6.02539 361.866 6.02539C362.366 6.02539 362.92 6.05501 363.529 6.11426C364.139 6.16504 364.773 6.25814 365.434 6.39355V8.36133C364.74 8.19206 364.079 8.06934 363.453 7.99316C362.835 7.90853 362.298 7.86621 361.841 7.86621C361.291 7.86621 360.825 7.90853 360.444 7.99316C360.072 8.0778 359.767 8.19629 359.53 8.34863C359.302 8.49251 359.137 8.66602 359.035 8.86914C358.934 9.0638 358.883 9.27539 358.883 9.50391C358.883 9.73242 358.925 9.93978 359.01 10.126C359.103 10.3122 359.268 10.4941 359.505 10.6719C359.75 10.8411 360.089 11.0146 360.521 11.1924C360.952 11.3617 361.515 11.5479 362.209 11.751C362.962 11.971 363.597 12.2038 364.113 12.4492C364.63 12.6862 365.049 12.9528 365.37 13.249C365.692 13.5452 365.92 13.8796 366.056 14.252C366.2 14.6243 366.271 15.0475 366.271 15.5215ZM380.719 19H378.738L378.662 16.9434C378.281 17.3835 377.917 17.7516 377.57 18.0479C377.232 18.3356 376.893 18.5684 376.555 18.7461C376.216 18.9238 375.873 19.0465 375.526 19.1143C375.188 19.1904 374.828 19.2285 374.447 19.2285C373.135 19.2285 372.145 18.8434 371.477 18.0732C370.808 17.3031 370.474 16.1393 370.474 14.582V6.25391H372.683V14.4043C372.683 16.3594 373.419 17.3369 374.892 17.3369C375.162 17.3369 375.425 17.2988 375.679 17.2227C375.941 17.138 376.212 16.9984 376.491 16.8037C376.779 16.6006 377.084 16.3298 377.405 15.9912C377.735 15.6527 378.104 15.2253 378.51 14.709V6.25391H380.719V19ZM394.671 18.5303C394.095 18.7503 393.503 18.9111 392.894 19.0127C392.293 19.1227 391.671 19.1777 391.027 19.1777C389.013 19.1777 387.46 18.6318 386.368 17.54C385.285 16.4482 384.743 14.8529 384.743 12.7539C384.743 11.7467 384.9 10.8327 385.213 10.0117C385.526 9.19076 385.966 8.48828 386.533 7.9043C387.1 7.32031 387.777 6.87174 388.564 6.55859C389.352 6.23698 390.219 6.07617 391.167 6.07617C391.827 6.07617 392.445 6.12272 393.021 6.21582C393.596 6.30892 394.146 6.46126 394.671 6.67285V8.78027C394.121 8.49251 393.558 8.28516 392.982 8.1582C392.415 8.02279 391.827 7.95508 391.218 7.95508C390.651 7.95508 390.113 8.0651 389.605 8.28516C389.106 8.49674 388.666 8.80566 388.285 9.21191C387.904 9.61816 387.604 10.1133 387.384 10.6973C387.164 11.2812 387.054 11.9414 387.054 12.6777C387.054 14.2181 387.426 15.3734 388.171 16.1436C388.924 16.9053 389.965 17.2861 391.294 17.2861C391.895 17.2861 392.475 17.2184 393.033 17.083C393.6 16.9476 394.146 16.7445 394.671 16.4736V18.5303ZM408.966 18.5303C408.39 18.7503 407.798 18.9111 407.188 19.0127C406.588 19.1227 405.965 19.1777 405.322 19.1777C403.308 19.1777 401.755 18.6318 400.663 17.54C399.58 16.4482 399.038 14.8529 399.038 12.7539C399.038 11.7467 399.195 10.8327 399.508 10.0117C399.821 9.19076 400.261 8.48828 400.828 7.9043C401.395 7.32031 402.072 6.87174 402.859 6.55859C403.646 6.23698 404.514 6.07617 405.462 6.07617C406.122 6.07617 406.74 6.12272 407.315 6.21582C407.891 6.30892 408.441 6.46126 408.966 6.67285V8.78027C408.416 8.49251 407.853 8.28516 407.277 8.1582C406.71 8.02279 406.122 7.95508 405.513 7.95508C404.946 7.95508 404.408 8.0651 403.9 8.28516C403.401 8.49674 402.961 8.80566 402.58 9.21191C402.199 9.61816 401.899 10.1133 401.679 10.6973C401.459 11.2812 401.349 11.9414 401.349 12.6777C401.349 14.2181 401.721 15.3734 402.466 16.1436C403.219 16.9053 404.26 17.2861 405.589 17.2861C406.19 17.2861 406.77 17.2184 407.328 17.083C407.895 16.9476 408.441 16.7445 408.966 16.4736V18.5303ZM424.124 11.9541C424.124 12.2673 424.12 12.5296 424.111 12.7412C424.103 12.9528 424.09 13.1517 424.073 13.3379H415.123C415.123 14.6413 415.487 15.6442 416.215 16.3467C416.943 17.0407 417.992 17.3877 419.363 17.3877C419.736 17.3877 420.108 17.375 420.48 17.3496C420.853 17.3158 421.213 17.2734 421.56 17.2227C421.907 17.1719 422.237 17.1169 422.55 17.0576C422.871 16.9899 423.168 16.918 423.438 16.8418V18.6572C422.838 18.8265 422.156 18.9619 421.395 19.0635C420.641 19.1735 419.858 19.2285 419.046 19.2285C417.954 19.2285 417.015 19.0804 416.228 18.7842C415.44 18.488 414.793 18.0605 414.285 17.502C413.786 16.9349 413.413 16.2451 413.168 15.4326C412.931 14.6117 412.812 13.6849 412.812 12.6523C412.812 11.7552 412.939 10.9089 413.193 10.1133C413.456 9.30924 413.832 8.60677 414.323 8.00586C414.823 7.39648 415.432 6.91406 416.151 6.55859C416.871 6.20312 417.688 6.02539 418.602 6.02539C419.49 6.02539 420.277 6.16504 420.963 6.44434C421.648 6.72363 422.224 7.12142 422.689 7.6377C423.163 8.14551 423.519 8.76758 423.756 9.50391C424.001 10.2318 424.124 11.0485 424.124 11.9541ZM421.826 11.6367C421.852 11.0697 421.797 10.5534 421.661 10.0879C421.526 9.61393 421.314 9.20768 421.026 8.86914C420.747 8.5306 420.396 8.26823 419.973 8.08203C419.549 7.88737 419.059 7.79004 418.5 7.79004C418.018 7.79004 417.577 7.88314 417.18 8.06934C416.782 8.25553 416.439 8.5179 416.151 8.85645C415.864 9.19499 415.631 9.60124 415.453 10.0752C415.275 10.5492 415.165 11.0697 415.123 11.6367H421.826ZM437.746 15.5215C437.746 15.9701 437.67 16.3721 437.518 16.7275C437.365 17.083 437.158 17.4004 436.896 17.6797C436.633 17.9505 436.328 18.1833 435.981 18.3779C435.634 18.5726 435.262 18.7334 434.864 18.8604C434.475 18.9873 434.073 19.0804 433.658 19.1396C433.243 19.1989 432.837 19.2285 432.439 19.2285C431.576 19.2285 430.781 19.1904 430.053 19.1143C429.333 19.0381 428.627 18.9154 427.933 18.7461V16.7148C428.677 16.9264 429.418 17.0872 430.154 17.1973C430.891 17.3073 431.623 17.3623 432.351 17.3623C433.409 17.3623 434.191 17.2184 434.699 16.9307C435.207 16.6429 435.461 16.2324 435.461 15.6992C435.461 15.4707 435.419 15.2676 435.334 15.0898C435.258 14.9036 435.114 14.7301 434.902 14.5693C434.691 14.4001 434.361 14.2266 433.912 14.0488C433.472 13.8711 432.867 13.668 432.097 13.4395C431.521 13.2702 430.988 13.0798 430.497 12.8682C430.015 12.6481 429.596 12.39 429.24 12.0938C428.885 11.7975 428.605 11.4505 428.402 11.0527C428.199 10.6549 428.098 10.1852 428.098 9.64355C428.098 9.28809 428.178 8.89876 428.339 8.47559C428.508 8.05241 428.792 7.65885 429.189 7.29492C429.587 6.93099 430.125 6.63053 430.802 6.39355C431.479 6.14811 432.325 6.02539 433.341 6.02539C433.84 6.02539 434.395 6.05501 435.004 6.11426C435.613 6.16504 436.248 6.25814 436.908 6.39355V8.36133C436.214 8.19206 435.554 8.06934 434.928 7.99316C434.31 7.90853 433.772 7.86621 433.315 7.86621C432.765 7.86621 432.3 7.90853 431.919 7.99316C431.547 8.0778 431.242 8.19629 431.005 8.34863C430.776 8.49251 430.611 8.66602 430.51 8.86914C430.408 9.0638 430.357 9.27539 430.357 9.50391C430.357 9.73242 430.4 9.93978 430.484 10.126C430.577 10.3122 430.743 10.4941 430.979 10.6719C431.225 10.8411 431.563 11.0146 431.995 11.1924C432.427 11.3617 432.99 11.5479 433.684 11.751C434.437 11.971 435.072 12.2038 435.588 12.4492C436.104 12.6862 436.523 12.9528 436.845 13.249C437.166 13.5452 437.395 13.8796 437.53 14.252C437.674 14.6243 437.746 15.0475 437.746 15.5215ZM452.041 15.5215C452.041 15.9701 451.965 16.3721 451.812 16.7275C451.66 17.083 451.453 17.4004 451.19 17.6797C450.928 17.9505 450.623 18.1833 450.276 18.3779C449.929 18.5726 449.557 18.7334 449.159 18.8604C448.77 18.9873 448.368 19.0804 447.953 19.1396C447.538 19.1989 447.132 19.2285 446.734 19.2285C445.871 19.2285 445.076 19.1904 444.348 19.1143C443.628 19.0381 442.922 18.9154 442.228 18.7461V16.7148C442.972 16.9264 443.713 17.0872 444.449 17.1973C445.186 17.3073 445.918 17.3623 446.646 17.3623C447.703 17.3623 448.486 17.2184 448.994 16.9307C449.502 16.6429 449.756 16.2324 449.756 15.6992C449.756 15.4707 449.714 15.2676 449.629 15.0898C449.553 14.9036 449.409 14.7301 449.197 14.5693C448.986 14.4001 448.656 14.2266 448.207 14.0488C447.767 13.8711 447.162 13.668 446.392 13.4395C445.816 13.2702 445.283 13.0798 444.792 12.8682C444.31 12.6481 443.891 12.39 443.535 12.0938C443.18 11.7975 442.9 11.4505 442.697 11.0527C442.494 10.6549 442.393 10.1852 442.393 9.64355C442.393 9.28809 442.473 8.89876 442.634 8.47559C442.803 8.05241 443.087 7.65885 443.484 7.29492C443.882 6.93099 444.42 6.63053 445.097 6.39355C445.774 6.14811 446.62 6.02539 447.636 6.02539C448.135 6.02539 448.689 6.05501 449.299 6.11426C449.908 6.16504 450.543 6.25814 451.203 6.39355V8.36133C450.509 8.19206 449.849 8.06934 449.223 7.99316C448.605 7.90853 448.067 7.86621 447.61 7.86621C447.06 7.86621 446.595 7.90853 446.214 7.99316C445.841 8.0778 445.537 8.19629 445.3 8.34863C445.071 8.49251 444.906 8.66602 444.805 8.86914C444.703 9.0638 444.652 9.27539 444.652 9.50391C444.652 9.73242 444.695 9.93978 444.779 10.126C444.872 10.3122 445.037 10.4941 445.274 10.6719C445.52 10.8411 445.858 11.0146 446.29 11.1924C446.722 11.3617 447.285 11.5479 447.979 11.751C448.732 11.971 449.367 12.2038 449.883 12.4492C450.399 12.6862 450.818 12.9528 451.14 13.249C451.461 13.5452 451.69 13.8796 451.825 14.252C451.969 14.6243 452.041 15.0475 452.041 15.5215ZM467.339 12.5254C467.339 13.5156 467.199 14.4255 466.92 15.2549C466.641 16.0758 466.239 16.7826 465.714 17.375C465.189 17.959 464.55 18.416 463.797 18.7461C463.044 19.0677 462.189 19.2285 461.232 19.2285C460.318 19.2285 459.497 19.0889 458.77 18.8096C458.05 18.5218 457.437 18.1029 456.929 17.5527C456.429 17.0026 456.044 16.3213 455.773 15.5088C455.511 14.6963 455.38 13.7611 455.38 12.7031C455.38 11.7129 455.52 10.8115 455.799 9.99902C456.078 9.17806 456.48 8.47559 457.005 7.8916C457.53 7.29915 458.169 6.84212 458.922 6.52051C459.675 6.19043 460.53 6.02539 461.486 6.02539C462.4 6.02539 463.217 6.16927 463.937 6.45703C464.664 6.73633 465.278 7.15104 465.777 7.70117C466.285 8.24284 466.67 8.91992 466.933 9.73242C467.203 10.5449 467.339 11.4759 467.339 12.5254ZM465.079 12.627C465.079 11.8398 464.99 11.1543 464.812 10.5703C464.643 9.97786 464.398 9.48698 464.076 9.09766C463.755 8.69987 463.361 8.40365 462.896 8.20898C462.438 8.00586 461.926 7.9043 461.359 7.9043C460.699 7.9043 460.132 8.03548 459.658 8.29785C459.193 8.55176 458.808 8.89453 458.503 9.32617C458.207 9.75781 457.987 10.2614 457.843 10.8369C457.707 11.404 457.64 12.0007 457.64 12.627C457.64 13.4141 457.724 14.1038 457.894 14.6963C458.071 15.2887 458.321 15.7839 458.643 16.1816C458.964 16.571 459.354 16.8672 459.811 17.0703C460.268 17.265 460.784 17.3623 461.359 17.3623C462.02 17.3623 462.582 17.2354 463.048 16.9814C463.522 16.7191 463.907 16.3721 464.203 15.9404C464.508 15.5088 464.728 15.0094 464.863 14.4424C465.007 13.8669 465.079 13.2617 465.079 12.627ZM471.059 6.25391H473.077L473.141 8.60254C473.894 7.69694 474.634 7.04102 475.362 6.63477C476.099 6.22852 476.839 6.02539 477.584 6.02539C478.904 6.02539 479.903 6.4528 480.58 7.30762C481.266 8.16243 481.583 9.43197 481.532 11.1162H479.298C479.323 9.99902 479.158 9.19076 478.803 8.69141C478.456 8.18359 477.944 7.92969 477.267 7.92969C476.97 7.92969 476.67 7.9847 476.365 8.09473C476.069 8.19629 475.76 8.36556 475.438 8.60254C475.125 8.83105 474.791 9.12728 474.436 9.49121C474.08 9.85514 473.699 10.2952 473.293 10.8115V19H471.059V6.25391Z" fill="black" fill-opacity="0.6"/>
<path d="M346.707 63.2071C346.317 63.5976 345.683 63.5976 345.293 63.2071L338.929 56.8431C338.538 56.4526 338.538 55.8195 338.929 55.4289C339.319 55.0384 339.953 55.0384 340.343 55.4289L346 61.0858L351.657 55.4289C352.047 55.0384 352.681 55.0384 353.071 55.4289C353.462 55.8195 353.462 56.4526 353.071 56.8431L346.707 63.2071ZM347 27.5L347 62.5L345 62.5L345 27.5L347 27.5Z" fill="black" fill-opacity="0.6"/>
</g>
<defs>
<clipPath id="clip0_6160_256">
<rect width="483" height="124" fill="white"/>
</clipPath>
</defs>
</svg>
