<svg width="417" height="77" viewBox="0 0 417 77" fill="none" xmlns="http://www.w3.org/2000/svg">
<g clip-path="url(#clip0_6265_2682)">
<rect width="417" height="77" fill="white"/>
<path d="M147.53 11.71C147.53 12.9795 147.403 14.139 147.149 15.1885C146.896 16.2295 146.51 17.1266 145.994 17.8799C145.478 18.6247 144.835 19.2044 144.064 19.6191C143.303 20.0254 142.406 20.2285 141.373 20.2285C140.484 20.2285 139.676 20.0635 138.948 19.7334C138.22 19.3949 137.598 18.8786 137.082 18.1846C136.566 17.4906 136.168 16.6061 135.889 15.5312C135.609 14.4564 135.47 13.1826 135.47 11.71C135.47 10.4404 135.597 9.28092 135.851 8.23145C136.113 7.18197 136.498 6.28483 137.006 5.54004C137.522 4.78678 138.165 4.20703 138.936 3.80078C139.706 3.38607 140.603 3.17871 141.627 3.17871C142.516 3.17871 143.324 3.34798 144.052 3.68652C144.78 4.0166 145.402 4.53288 145.918 5.23535C146.434 5.92936 146.832 6.8138 147.111 7.88867C147.391 8.96354 147.53 10.2373 147.53 11.71ZM145.296 11.7861C145.296 11.4984 145.283 11.2148 145.258 10.9355C145.241 10.6478 145.22 10.3685 145.194 10.0977L138.174 15.3154C138.301 15.7555 138.462 16.1618 138.656 16.5342C138.851 16.9066 139.084 17.2282 139.354 17.499C139.634 17.7614 139.947 17.9688 140.294 18.1211C140.649 18.265 141.051 18.3369 141.5 18.3369C142.076 18.3369 142.596 18.1973 143.062 17.918C143.535 17.6387 143.938 17.224 144.268 16.6738C144.598 16.1237 144.852 15.4424 145.029 14.6299C145.207 13.8089 145.296 12.861 145.296 11.7861ZM137.704 11.6338C137.704 11.8962 137.704 12.1585 137.704 12.4209C137.713 12.6833 137.729 12.9372 137.755 13.1826L144.775 7.99023C144.648 7.55859 144.488 7.16504 144.293 6.80957C144.098 6.4541 143.866 6.14941 143.595 5.89551C143.324 5.63314 143.015 5.43001 142.668 5.28613C142.321 5.14225 141.932 5.07031 141.5 5.07031C140.924 5.07031 140.4 5.20996 139.926 5.48926C139.46 5.76855 139.062 6.1875 138.732 6.74609C138.402 7.29622 138.148 7.98177 137.971 8.80273C137.793 9.61523 137.704 10.5589 137.704 11.6338Z" fill="black"/>
<path d="M123.991 25.2051H117.732V1.61719H123.991V3.39453H119.84V23.4277H123.991V25.2051Z" fill="black"/>
<path d="M411.009 25.2051H417.268V1.61719H411.009V3.39453H415.16V23.4277H411.009V25.2051Z" fill="black"/>
<path d="M210.149 20H199.219V18.0195L203.51 13.7539C204.212 13.0599 204.784 12.459 205.224 11.9512C205.664 11.4434 206.007 10.9821 206.252 10.5674C206.497 10.1442 206.662 9.74642 206.747 9.37402C206.832 9.00163 206.874 8.59961 206.874 8.16797C206.874 7.76172 206.819 7.37663 206.709 7.0127C206.599 6.6403 206.43 6.31445 206.201 6.03516C205.973 5.75586 205.676 5.53581 205.312 5.375C204.949 5.21419 204.513 5.13379 204.005 5.13379C203.302 5.13379 202.663 5.29036 202.088 5.60352C201.512 5.91667 200.983 6.32292 200.501 6.82227L199.282 5.3623C199.909 4.70215 200.628 4.17318 201.44 3.77539C202.261 3.3776 203.214 3.17871 204.297 3.17871C205.033 3.17871 205.702 3.28874 206.303 3.50879C206.912 3.72884 207.437 4.04622 207.877 4.46094C208.317 4.87565 208.656 5.38346 208.893 5.98438C209.138 6.58529 209.261 7.26237 209.261 8.01562C209.261 8.65039 209.176 9.23861 209.007 9.78027C208.838 10.3219 208.579 10.8636 208.232 11.4053C207.894 11.9385 207.462 12.4928 206.938 13.0684C206.421 13.6439 205.808 14.2744 205.097 14.96L202.088 17.8926H210.149V20Z" fill="black"/>
<path d="M272.73 14.6934C272.73 15.5143 272.553 16.2633 272.197 16.9404C271.842 17.6175 271.351 18.2015 270.725 18.6924C270.107 19.1748 269.375 19.5514 268.528 19.8223C267.682 20.0931 266.768 20.2285 265.786 20.2285C265.541 20.2285 265.274 20.2201 264.986 20.2031C264.707 20.1947 264.428 20.1777 264.148 20.1523C263.869 20.1354 263.594 20.1143 263.323 20.0889C263.061 20.0635 262.824 20.0339 262.612 20V17.9941C263.069 18.1042 263.59 18.1846 264.174 18.2354C264.766 18.2861 265.363 18.3115 265.964 18.3115C266.641 18.3115 267.25 18.2311 267.792 18.0703C268.334 17.9095 268.795 17.681 269.176 17.3848C269.557 17.0801 269.849 16.7161 270.052 16.293C270.255 15.8613 270.356 15.3789 270.356 14.8457C270.356 13.8132 269.984 13.0641 269.239 12.5986C268.503 12.1247 267.441 11.8877 266.053 11.8877H262.904V3.40723H271.842V5.33691H264.986V9.99609H266.434C267.229 9.99609 268.004 10.068 268.757 10.2119C269.51 10.3558 270.179 10.6097 270.763 10.9736C271.355 11.3291 271.829 11.8115 272.185 12.4209C272.549 13.0218 272.73 13.7793 272.73 14.6934Z" fill="black"/>
<path d="M336.353 14.7441C336.353 15.5059 336.213 16.221 335.934 16.8896C335.663 17.5583 335.273 18.1423 334.766 18.6416C334.258 19.1325 333.644 19.5218 332.925 19.8096C332.214 20.0889 331.423 20.2285 330.551 20.2285C329.637 20.2285 328.828 20.0846 328.126 19.7969C327.424 19.5007 326.835 19.0521 326.361 18.4512C325.887 17.8418 325.528 17.0758 325.282 16.1533C325.037 15.2308 324.914 14.139 324.914 12.8779C324.914 12.0316 324.969 11.2106 325.079 10.415C325.189 9.61947 325.371 8.87044 325.625 8.16797C325.879 7.46549 326.217 6.82227 326.641 6.23828C327.064 5.6543 327.589 5.15495 328.215 4.74023C328.85 4.31706 329.594 3.99121 330.449 3.7627C331.304 3.52572 332.294 3.40723 333.42 3.40723H335.058V5.33691H333.28C332.29 5.33691 331.431 5.4554 330.703 5.69238C329.975 5.92936 329.366 6.26367 328.875 6.69531C328.384 7.12695 328.007 7.64746 327.745 8.25684C327.483 8.86621 327.318 9.54753 327.25 10.3008L327.199 10.8213C327.732 10.5081 328.346 10.2585 329.04 10.0723C329.743 9.8776 330.5 9.78027 331.312 9.78027C332.15 9.78027 332.882 9.90299 333.509 10.1484C334.144 10.3939 334.668 10.7367 335.083 11.1768C335.506 11.6084 335.824 12.1289 336.035 12.7383C336.247 13.3477 336.353 14.0163 336.353 14.7441ZM334.042 14.8838C334.042 14.376 333.979 13.9189 333.852 13.5127C333.733 13.098 333.543 12.751 333.28 12.4717C333.018 12.1839 332.684 11.9639 332.277 11.8115C331.88 11.6507 331.401 11.5703 330.843 11.5703C330.521 11.5703 330.195 11.5999 329.865 11.6592C329.535 11.7184 329.209 11.8031 328.888 11.9131C328.575 12.0146 328.274 12.1331 327.986 12.2686C327.699 12.404 327.436 12.5479 327.199 12.7002C327.199 13.792 327.275 14.7061 327.428 15.4424C327.58 16.1702 327.804 16.7542 328.101 17.1943C328.405 17.6344 328.778 17.9476 329.218 18.1338C329.658 18.32 330.166 18.4131 330.741 18.4131C331.224 18.4131 331.664 18.3369 332.062 18.1846C332.468 18.0238 332.815 17.791 333.103 17.4863C333.399 17.1816 333.627 16.8135 333.788 16.3818C333.957 15.9417 334.042 15.4424 334.042 14.8838Z" fill="black"/>
<path d="M399.149 15.8359C399.149 16.5384 399.006 17.1647 398.718 17.7148C398.43 18.2565 398.028 18.7135 397.512 19.0859C396.995 19.4583 396.386 19.7419 395.684 19.9365C394.981 20.1312 394.219 20.2285 393.398 20.2285C392.493 20.2285 391.693 20.127 390.999 19.9238C390.313 19.7207 389.738 19.4372 389.272 19.0732C388.807 18.7093 388.456 18.2777 388.219 17.7783C387.982 17.279 387.863 16.7288 387.863 16.1279C387.863 15.1123 388.147 14.2363 388.714 13.5C389.281 12.7637 390.157 12.0951 391.342 11.4941C390.258 10.944 389.467 10.3346 388.968 9.66602C388.468 8.98893 388.219 8.21452 388.219 7.34277C388.219 6.80957 388.329 6.29329 388.549 5.79395C388.769 5.2946 389.099 4.85026 389.539 4.46094C389.988 4.07161 390.546 3.7627 391.215 3.53418C391.883 3.2972 392.671 3.17871 393.576 3.17871C394.431 3.17871 395.18 3.27181 395.823 3.45801C396.475 3.63574 397.021 3.89388 397.461 4.23242C397.901 4.57096 398.231 4.98145 398.451 5.46387C398.671 5.94629 398.781 6.48372 398.781 7.07617C398.781 8.04102 398.51 8.86198 397.969 9.53906C397.436 10.2161 396.674 10.8086 395.684 11.3164C396.174 11.5618 396.632 11.8327 397.055 12.1289C397.478 12.4251 397.846 12.7552 398.159 13.1191C398.472 13.4831 398.714 13.8893 398.883 14.3379C399.061 14.7865 399.149 15.2858 399.149 15.8359ZM396.521 7.25391C396.521 6.50065 396.255 5.94206 395.722 5.57812C395.197 5.20573 394.456 5.01953 393.5 5.01953C392.552 5.01953 391.812 5.2015 391.278 5.56543C390.754 5.92936 390.491 6.47526 390.491 7.20312C390.491 7.5332 390.555 7.83789 390.682 8.11719C390.809 8.39648 391.003 8.65885 391.266 8.9043C391.536 9.14974 391.871 9.39095 392.269 9.62793C392.666 9.86491 393.14 10.1061 393.69 10.3516C394.647 9.90299 395.358 9.4375 395.823 8.95508C396.289 8.46419 396.521 7.89714 396.521 7.25391ZM396.75 16.001C396.75 15.6878 396.699 15.3831 396.598 15.0869C396.496 14.7907 396.314 14.4987 396.052 14.2109C395.789 13.9232 395.438 13.6354 394.998 13.3477C394.558 13.0599 393.999 12.7637 393.322 12.459C392.747 12.7383 392.26 13.0176 391.862 13.2969C391.473 13.5677 391.156 13.847 390.91 14.1348C390.673 14.4141 390.504 14.7061 390.402 15.0107C390.301 15.3154 390.25 15.637 390.25 15.9756C390.25 16.3564 390.33 16.695 390.491 16.9912C390.66 17.279 390.889 17.5244 391.177 17.7275C391.465 17.9307 391.807 18.083 392.205 18.1846C392.603 18.2861 393.035 18.3369 393.5 18.3369C393.949 18.3369 394.372 18.2904 394.77 18.1973C395.167 18.1042 395.51 17.9645 395.798 17.7783C396.094 17.5837 396.327 17.3424 396.496 17.0547C396.665 16.7585 396.75 16.4072 396.75 16.001Z" fill="black"/>
<path d="M2.03125 7.25391H3.99902L4.08789 9.31055C4.46029 8.87044 4.81999 8.50651 5.16699 8.21875C5.514 7.92253 5.85254 7.68555 6.18262 7.50781C6.52116 7.33008 6.86393 7.20736 7.21094 7.13965C7.55794 7.06348 7.91764 7.02539 8.29004 7.02539C9.60189 7.02539 10.5921 7.41471 11.2607 8.19336C11.9378 8.96354 12.2764 10.1273 12.2764 11.6846V20H10.0674V11.8623C10.0674 10.8636 9.88118 10.1273 9.50879 9.65332C9.13639 9.1709 8.58203 8.92969 7.8457 8.92969C7.57487 8.92969 7.30827 8.97201 7.0459 9.05664C6.79199 9.13281 6.52539 9.27246 6.24609 9.47559C5.9668 9.67025 5.66211 9.93685 5.33203 10.2754C5.01042 10.6139 4.64648 11.0371 4.24023 11.5449V20H2.03125V7.25391ZM26.5713 20H24.5908L24.5146 17.9434C24.1338 18.3835 23.7699 18.7516 23.4229 19.0479C23.0843 19.3356 22.7458 19.5684 22.4072 19.7461C22.0687 19.9238 21.7259 20.0465 21.3789 20.1143C21.0404 20.1904 20.6807 20.2285 20.2998 20.2285C18.988 20.2285 17.9977 19.8434 17.3291 19.0732C16.6605 18.3031 16.3262 17.1393 16.3262 15.582V7.25391H18.5352V15.4043C18.5352 17.3594 19.2715 18.3369 20.7441 18.3369C21.015 18.3369 21.2773 18.2988 21.5312 18.2227C21.7936 18.138 22.0645 17.9984 22.3438 17.8037C22.6315 17.6006 22.9362 17.3298 23.2578 16.9912C23.5879 16.6527 23.9561 16.2253 24.3623 15.709V7.25391H26.5713V20ZM39.7109 20V10.8467C39.7109 10.4489 39.694 10.123 39.6602 9.86914C39.6348 9.61523 39.5882 9.41634 39.5205 9.27246C39.4613 9.12012 39.3809 9.01432 39.2793 8.95508C39.1862 8.89583 39.0677 8.86621 38.9238 8.86621C38.7546 8.86621 38.598 8.91699 38.4541 9.01855C38.3102 9.12012 38.1536 9.28516 37.9844 9.51367C37.8236 9.74219 37.6416 10.0469 37.4385 10.4277C37.2438 10.8001 37.0111 11.2614 36.7402 11.8115V20H34.7217V11.0879C34.7217 10.6224 34.7048 10.2458 34.6709 9.95801C34.6455 9.67025 34.599 9.44596 34.5312 9.28516C34.472 9.12435 34.3916 9.01432 34.29 8.95508C34.1885 8.89583 34.0658 8.86621 33.9219 8.86621C33.7695 8.86621 33.6257 8.90853 33.4902 8.99316C33.3548 9.0778 33.2025 9.23014 33.0332 9.4502C32.8724 9.67025 32.6904 9.9707 32.4873 10.3516C32.2842 10.7324 32.043 11.2191 31.7637 11.8115V20H29.7324V7.25391H31.4209L31.5225 9.67871C31.7425 9.19629 31.9541 8.78581 32.1572 8.44727C32.3688 8.10872 32.5846 7.83789 32.8047 7.63477C33.0247 7.42318 33.2575 7.27083 33.5029 7.17773C33.7568 7.07617 34.0361 7.02539 34.3408 7.02539C35.0264 7.02539 35.5469 7.24967 35.9023 7.69824C36.2578 8.14681 36.4355 8.84082 36.4355 9.78027C36.6387 9.34017 36.8376 8.95085 37.0322 8.6123C37.2269 8.2653 37.4342 7.97754 37.6543 7.74902C37.8828 7.51204 38.1325 7.33431 38.4033 7.21582C38.6742 7.08887 38.9873 7.02539 39.3428 7.02539C40.9424 7.02539 41.7422 8.25684 41.7422 10.7197V20H39.7109ZM55.0088 16.5215C55.0088 16.9701 54.9326 17.3721 54.7803 17.7275C54.6279 18.083 54.4206 18.4004 54.1582 18.6797C53.8958 18.9505 53.5911 19.1833 53.2441 19.3779C52.8971 19.5726 52.5247 19.7334 52.127 19.8604C51.7376 19.9873 51.3356 20.0804 50.9209 20.1396C50.5062 20.1989 50.0999 20.2285 49.7021 20.2285C48.8389 20.2285 48.0433 20.1904 47.3154 20.1143C46.596 20.0381 45.8893 19.9154 45.1953 19.7461V17.7148C45.9401 17.9264 46.6807 18.0872 47.417 18.1973C48.1533 18.3073 48.8854 18.3623 49.6133 18.3623C50.6712 18.3623 51.4541 18.2184 51.9619 17.9307C52.4697 17.6429 52.7236 17.2324 52.7236 16.6992C52.7236 16.4707 52.6813 16.2676 52.5967 16.0898C52.5205 15.9036 52.3766 15.7301 52.165 15.5693C51.9535 15.4001 51.6234 15.2266 51.1748 15.0488C50.7347 14.8711 50.1296 14.668 49.3594 14.4395C48.7839 14.2702 48.2507 14.0798 47.7598 13.8682C47.2773 13.6481 46.8584 13.39 46.5029 13.0938C46.1475 12.7975 45.8682 12.4505 45.665 12.0527C45.4619 11.6549 45.3604 11.1852 45.3604 10.6436C45.3604 10.2881 45.4408 9.89876 45.6016 9.47559C45.7708 9.05241 46.0544 8.65885 46.4521 8.29492C46.8499 7.93099 47.3874 7.63053 48.0645 7.39355C48.7415 7.14811 49.5879 7.02539 50.6035 7.02539C51.1029 7.02539 51.6572 7.05501 52.2666 7.11426C52.876 7.16504 53.5107 7.25814 54.1709 7.39355V9.36133C53.4769 9.19206 52.8167 9.06934 52.1904 8.99316C51.5726 8.90853 51.0352 8.86621 50.5781 8.86621C50.028 8.86621 49.5625 8.90853 49.1816 8.99316C48.8092 9.0778 48.5046 9.19629 48.2676 9.34863C48.0391 9.49251 47.874 9.66602 47.7725 9.86914C47.6709 10.0638 47.6201 10.2754 47.6201 10.5039C47.6201 10.7324 47.6624 10.9398 47.7471 11.126C47.8402 11.3122 48.0052 11.4941 48.2422 11.6719C48.4876 11.8411 48.8262 12.0146 49.2578 12.1924C49.6895 12.3617 50.2523 12.5479 50.9463 12.751C51.6995 12.971 52.3343 13.2038 52.8506 13.4492C53.3669 13.6862 53.7858 13.9528 54.1074 14.249C54.429 14.5452 54.6576 14.8796 54.793 15.252C54.9368 15.6243 55.0088 16.0475 55.0088 16.5215ZM69.8369 20H59.4141V17.9434H63.6797V5.83203L59.7061 7.99023L58.8936 6.11133L64.1748 3.33105H66.1299V17.9434H69.8369V20ZM98.376 11.7988H87.458V9.93262H98.376V11.7988ZM98.376 16.2168H87.458V14.3506H98.376V16.2168Z" fill="black"/>
<path d="M147.01 71H136.587V68.9434H140.853V56.832L136.879 58.9902L136.066 57.1113L141.348 54.3311H143.303V68.9434H147.01V71Z" fill="black"/>
<path d="M123.991 76.2051H117.732V52.6172H123.991V54.3945H119.84V74.4277H123.991V76.2051Z" fill="black"/>
<path d="M285.009 76.2051H291.268V52.6172H285.009V54.3945H289.16V74.4277H285.009V76.2051Z" fill="black"/>
<path d="M209.832 65.96C209.832 66.6878 209.684 67.3734 209.388 68.0166C209.091 68.6514 208.647 69.21 208.055 69.6924C207.462 70.1663 206.717 70.543 205.82 70.8223C204.923 71.0931 203.878 71.2285 202.685 71.2285C202.024 71.2285 201.432 71.2074 200.907 71.165C200.382 71.1227 199.892 71.0677 199.435 71V69.0195C199.959 69.1126 200.514 69.1846 201.098 69.2354C201.682 69.2861 202.278 69.3115 202.888 69.3115C203.717 69.3115 204.424 69.2396 205.008 69.0957C205.6 68.9434 206.083 68.7275 206.455 68.4482C206.827 68.1689 207.098 67.8304 207.268 67.4326C207.437 67.0348 207.521 66.5863 207.521 66.0869C207.521 65.6299 207.42 65.2321 207.217 64.8936C207.014 64.555 206.726 64.2715 206.354 64.043C205.99 63.8145 205.549 63.6452 205.033 63.5352C204.525 63.4167 203.967 63.3574 203.357 63.3574H201.466V61.542H203.383C203.882 61.542 204.335 61.4785 204.741 61.3516C205.156 61.2161 205.507 61.0257 205.795 60.7803C206.091 60.5348 206.315 60.2344 206.468 59.8789C206.629 59.515 206.709 59.1045 206.709 58.6475C206.709 57.7588 206.438 57.1113 205.896 56.7051C205.355 56.2988 204.559 56.0957 203.51 56.0957C202.951 56.0957 202.376 56.1507 201.783 56.2607C201.191 56.3708 200.556 56.5358 199.879 56.7559V54.8262C200.167 54.7246 200.471 54.6357 200.793 54.5596C201.123 54.4749 201.449 54.4072 201.771 54.3564C202.101 54.2972 202.426 54.2549 202.748 54.2295C203.07 54.1956 203.379 54.1787 203.675 54.1787C204.555 54.1787 205.329 54.276 205.998 54.4707C206.667 54.6569 207.225 54.9277 207.674 55.2832C208.122 55.6387 208.461 56.0703 208.689 56.5781C208.918 57.0859 209.032 57.6572 209.032 58.292C209.032 59.2399 208.787 60.0355 208.296 60.6787C207.813 61.3219 207.149 61.834 206.303 62.2148C206.734 62.2826 207.158 62.418 207.572 62.6211C207.995 62.8242 208.372 63.0866 208.702 63.4082C209.041 63.7214 209.312 64.0938 209.515 64.5254C209.726 64.957 209.832 65.4352 209.832 65.96Z" fill="black"/>
<path d="M273.061 56.4639L266.104 71H263.577L270.801 56.4639H261.838V54.4072H273.061V56.4639Z" fill="black"/>
<path d="M2.03125 58.2539H3.99902L4.08789 60.3105C4.46029 59.8704 4.81999 59.5065 5.16699 59.2188C5.514 58.9225 5.85254 58.6855 6.18262 58.5078C6.52116 58.3301 6.86393 58.2074 7.21094 58.1396C7.55794 58.0635 7.91764 58.0254 8.29004 58.0254C9.60189 58.0254 10.5921 58.4147 11.2607 59.1934C11.9378 59.9635 12.2764 61.1273 12.2764 62.6846V71H10.0674V62.8623C10.0674 61.8636 9.88118 61.1273 9.50879 60.6533C9.13639 60.1709 8.58203 59.9297 7.8457 59.9297C7.57487 59.9297 7.30827 59.972 7.0459 60.0566C6.79199 60.1328 6.52539 60.2725 6.24609 60.4756C5.9668 60.6702 5.66211 60.9368 5.33203 61.2754C5.01042 61.6139 4.64648 62.0371 4.24023 62.5449V71H2.03125V58.2539ZM26.5713 71H24.5908L24.5146 68.9434C24.1338 69.3835 23.7699 69.7516 23.4229 70.0479C23.0843 70.3356 22.7458 70.5684 22.4072 70.7461C22.0687 70.9238 21.7259 71.0465 21.3789 71.1143C21.0404 71.1904 20.6807 71.2285 20.2998 71.2285C18.988 71.2285 17.9977 70.8434 17.3291 70.0732C16.6605 69.3031 16.3262 68.1393 16.3262 66.582V58.2539H18.5352V66.4043C18.5352 68.3594 19.2715 69.3369 20.7441 69.3369C21.015 69.3369 21.2773 69.2988 21.5312 69.2227C21.7936 69.138 22.0645 68.9984 22.3438 68.8037C22.6315 68.6006 22.9362 68.3298 23.2578 67.9912C23.5879 67.6527 23.9561 67.2253 24.3623 66.709V58.2539H26.5713V71ZM39.7109 71V61.8467C39.7109 61.4489 39.694 61.123 39.6602 60.8691C39.6348 60.6152 39.5882 60.4163 39.5205 60.2725C39.4613 60.1201 39.3809 60.0143 39.2793 59.9551C39.1862 59.8958 39.0677 59.8662 38.9238 59.8662C38.7546 59.8662 38.598 59.917 38.4541 60.0186C38.3102 60.1201 38.1536 60.2852 37.9844 60.5137C37.8236 60.7422 37.6416 61.0469 37.4385 61.4277C37.2438 61.8001 37.0111 62.2614 36.7402 62.8115V71H34.7217V62.0879C34.7217 61.6224 34.7048 61.2458 34.6709 60.958C34.6455 60.6702 34.599 60.446 34.5312 60.2852C34.472 60.1243 34.3916 60.0143 34.29 59.9551C34.1885 59.8958 34.0658 59.8662 33.9219 59.8662C33.7695 59.8662 33.6257 59.9085 33.4902 59.9932C33.3548 60.0778 33.2025 60.2301 33.0332 60.4502C32.8724 60.6702 32.6904 60.9707 32.4873 61.3516C32.2842 61.7324 32.043 62.2191 31.7637 62.8115V71H29.7324V58.2539H31.4209L31.5225 60.6787C31.7425 60.1963 31.9541 59.7858 32.1572 59.4473C32.3688 59.1087 32.5846 58.8379 32.8047 58.6348C33.0247 58.4232 33.2575 58.2708 33.5029 58.1777C33.7568 58.0762 34.0361 58.0254 34.3408 58.0254C35.0264 58.0254 35.5469 58.2497 35.9023 58.6982C36.2578 59.1468 36.4355 59.8408 36.4355 60.7803C36.6387 60.3402 36.8376 59.9508 37.0322 59.6123C37.2269 59.2653 37.4342 58.9775 37.6543 58.749C37.8828 58.512 38.1325 58.3343 38.4033 58.2158C38.6742 58.0889 38.9873 58.0254 39.3428 58.0254C40.9424 58.0254 41.7422 59.2568 41.7422 61.7197V71H39.7109ZM55.0088 67.5215C55.0088 67.9701 54.9326 68.3721 54.7803 68.7275C54.6279 69.083 54.4206 69.4004 54.1582 69.6797C53.8958 69.9505 53.5911 70.1833 53.2441 70.3779C52.8971 70.5726 52.5247 70.7334 52.127 70.8604C51.7376 70.9873 51.3356 71.0804 50.9209 71.1396C50.5062 71.1989 50.0999 71.2285 49.7021 71.2285C48.8389 71.2285 48.0433 71.1904 47.3154 71.1143C46.596 71.0381 45.8893 70.9154 45.1953 70.7461V68.7148C45.9401 68.9264 46.6807 69.0872 47.417 69.1973C48.1533 69.3073 48.8854 69.3623 49.6133 69.3623C50.6712 69.3623 51.4541 69.2184 51.9619 68.9307C52.4697 68.6429 52.7236 68.2324 52.7236 67.6992C52.7236 67.4707 52.6813 67.2676 52.5967 67.0898C52.5205 66.9036 52.3766 66.7301 52.165 66.5693C51.9535 66.4001 51.6234 66.2266 51.1748 66.0488C50.7347 65.8711 50.1296 65.668 49.3594 65.4395C48.7839 65.2702 48.2507 65.0798 47.7598 64.8682C47.2773 64.6481 46.8584 64.39 46.5029 64.0938C46.1475 63.7975 45.8682 63.4505 45.665 63.0527C45.4619 62.6549 45.3604 62.1852 45.3604 61.6436C45.3604 61.2881 45.4408 60.8988 45.6016 60.4756C45.7708 60.0524 46.0544 59.6589 46.4521 59.2949C46.8499 58.931 47.3874 58.6305 48.0645 58.3936C48.7415 58.1481 49.5879 58.0254 50.6035 58.0254C51.1029 58.0254 51.6572 58.055 52.2666 58.1143C52.876 58.165 53.5107 58.2581 54.1709 58.3936V60.3613C53.4769 60.1921 52.8167 60.0693 52.1904 59.9932C51.5726 59.9085 51.0352 59.8662 50.5781 59.8662C50.028 59.8662 49.5625 59.9085 49.1816 59.9932C48.8092 60.0778 48.5046 60.1963 48.2676 60.3486C48.0391 60.4925 47.874 60.666 47.7725 60.8691C47.6709 61.0638 47.6201 61.2754 47.6201 61.5039C47.6201 61.7324 47.6624 61.9398 47.7471 62.126C47.8402 62.3122 48.0052 62.4941 48.2422 62.6719C48.4876 62.8411 48.8262 63.0146 49.2578 63.1924C49.6895 63.3617 50.2523 63.5479 50.9463 63.751C51.6995 63.971 52.3343 64.2038 52.8506 64.4492C53.3669 64.6862 53.7858 64.9528 54.1074 65.249C54.429 65.5452 54.6576 65.8796 54.793 66.252C54.9368 66.6243 55.0088 67.0475 55.0088 67.5215ZM69.9766 71H59.0459V69.0195L63.3369 64.7539C64.0394 64.0599 64.6107 63.459 65.0508 62.9512C65.4909 62.4434 65.8337 61.9821 66.0791 61.5674C66.3245 61.1442 66.4896 60.7464 66.5742 60.374C66.6589 60.0016 66.7012 59.5996 66.7012 59.168C66.7012 58.7617 66.6462 58.3766 66.5361 58.0127C66.4261 57.6403 66.2568 57.3145 66.0283 57.0352C65.7998 56.7559 65.5036 56.5358 65.1396 56.375C64.7757 56.2142 64.3398 56.1338 63.832 56.1338C63.1296 56.1338 62.4906 56.2904 61.915 56.6035C61.3395 56.9167 60.8105 57.3229 60.3281 57.8223L59.1094 56.3623C59.7357 55.7021 60.4551 55.1732 61.2676 54.7754C62.0885 54.3776 63.0407 54.1787 64.124 54.1787C64.8604 54.1787 65.529 54.2887 66.1299 54.5088C66.7393 54.7288 67.264 55.0462 67.7041 55.4609C68.1442 55.8757 68.4827 56.3835 68.7197 56.9844C68.9652 57.5853 69.0879 58.2624 69.0879 59.0156C69.0879 59.6504 69.0033 60.2386 68.834 60.7803C68.6647 61.3219 68.4066 61.8636 68.0596 62.4053C67.721 62.9385 67.2894 63.4928 66.7646 64.0684C66.2484 64.6439 65.6348 65.2744 64.9238 65.96L61.915 68.8926H69.9766V71ZM98.376 62.7988H87.458V60.9326H98.376V62.7988ZM98.376 67.2168H87.458V65.3506H98.376V67.2168Z" fill="black"/>
</g>
<defs>
<clipPath id="clip0_6265_2682">
<rect width="417" height="77" fill="white"/>
</clipPath>
</defs>
</svg>
