<svg width="730" height="177" viewBox="0 0 730 177" fill="none" xmlns="http://www.w3.org/2000/svg">
<g clip-path="url(#clip0_6296_4684)">
<rect width="730" height="177" fill="white"/>
<rect x="139" y="49" width="36" height="36" rx="18" fill="#FFF4EF" stroke="#FF5500" stroke-width="2"/>
<rect x="205" y="49" width="36" height="36" rx="18" fill="#FFF4EF" stroke="#FF5500" stroke-width="2"/>
<rect x="205" y="133" width="36" height="36" rx="18" fill="#FFF4EF" stroke="#FF5500" stroke-width="2"/>
<rect x="271" y="133" width="36" height="36" rx="18" fill="#FFF4EF" stroke="#FF5500" stroke-width="2"/>
<path d="M98.6006 76H95.2168L91.2471 70.3896L87.3213 76H84.0254L89.7236 68.6172L84.2891 61.293H87.5557L91.4229 66.9473L95.2168 61.293H98.3662L92.8438 68.6758L98.6006 76ZM130.534 66.5371H117.937V64.3838H130.534V66.5371ZM130.534 71.6348H117.937V69.4814H130.534V71.6348ZM163.581 76H151.555V73.627H156.477V59.6523L151.892 62.1426L150.954 59.9746L157.048 56.7666H159.304V73.627H163.581V76ZM229.558 76H217.531V73.627H222.453V59.6523L217.868 62.1426L216.931 59.9746L223.024 56.7666H225.28V73.627H229.558V76ZM296.135 66.4346C296.135 67.8994 295.988 69.2373 295.695 70.4482C295.402 71.6494 294.958 72.6846 294.362 73.5537C293.767 74.4131 293.024 75.082 292.136 75.5605C291.257 76.0293 290.222 76.2637 289.03 76.2637C288.005 76.2637 287.072 76.0732 286.232 75.6924C285.393 75.3018 284.675 74.7061 284.079 73.9053C283.483 73.1045 283.024 72.084 282.702 70.8438C282.38 69.6035 282.219 68.1338 282.219 66.4346C282.219 64.9697 282.365 63.6318 282.658 62.4209C282.961 61.21 283.405 60.1748 283.991 59.3154C284.587 58.4463 285.329 57.7773 286.218 57.3086C287.106 56.8301 288.142 56.5908 289.323 56.5908C290.349 56.5908 291.281 56.7861 292.121 57.1768C292.961 57.5576 293.679 58.1533 294.274 58.9639C294.87 59.7646 295.329 60.7852 295.651 62.0254C295.974 63.2656 296.135 64.7354 296.135 66.4346ZM293.557 66.5225C293.557 66.1904 293.542 65.8633 293.513 65.541C293.493 65.209 293.469 64.8867 293.439 64.5742L285.339 70.5947C285.485 71.1025 285.671 71.5713 285.896 72.001C286.12 72.4307 286.389 72.8018 286.701 73.1143C287.023 73.417 287.385 73.6562 287.785 73.832C288.195 73.998 288.659 74.0811 289.177 74.0811C289.841 74.0811 290.441 73.9199 290.979 73.5977C291.525 73.2754 291.989 72.7969 292.37 72.1621C292.751 71.5273 293.044 70.7412 293.249 69.8037C293.454 68.8564 293.557 67.7627 293.557 66.5225ZM284.797 66.3467C284.797 66.6494 284.797 66.9521 284.797 67.2549C284.807 67.5576 284.826 67.8506 284.855 68.1338L292.956 62.1426C292.81 61.6445 292.624 61.1904 292.399 60.7803C292.175 60.3701 291.906 60.0186 291.594 59.7256C291.281 59.4229 290.925 59.1885 290.524 59.0225C290.124 58.8564 289.675 58.7734 289.177 58.7734C288.513 58.7734 287.907 58.9346 287.36 59.2568C286.823 59.5791 286.364 60.0625 285.983 60.707C285.603 61.3418 285.31 62.1328 285.104 63.0801C284.899 64.0176 284.797 65.1064 284.797 66.3467ZM362.111 66.4346C362.111 67.8994 361.965 69.2373 361.672 70.4482C361.379 71.6494 360.935 72.6846 360.339 73.5537C359.743 74.4131 359.001 75.082 358.112 75.5605C357.233 76.0293 356.198 76.2637 355.007 76.2637C353.981 76.2637 353.049 76.0732 352.209 75.6924C351.369 75.3018 350.651 74.7061 350.056 73.9053C349.46 73.1045 349.001 72.084 348.679 70.8438C348.356 69.6035 348.195 68.1338 348.195 66.4346C348.195 64.9697 348.342 63.6318 348.635 62.4209C348.938 61.21 349.382 60.1748 349.968 59.3154C350.563 58.4463 351.306 57.7773 352.194 57.3086C353.083 56.8301 354.118 56.5908 355.3 56.5908C356.325 56.5908 357.258 56.7861 358.098 57.1768C358.938 57.5576 359.655 58.1533 360.251 58.9639C360.847 59.7646 361.306 60.7852 361.628 62.0254C361.95 63.2656 362.111 64.7354 362.111 66.4346ZM359.533 66.5225C359.533 66.1904 359.519 65.8633 359.489 65.541C359.47 65.209 359.445 64.8867 359.416 64.5742L351.315 70.5947C351.462 71.1025 351.647 71.5713 351.872 72.001C352.097 72.4307 352.365 72.8018 352.678 73.1143C353 73.417 353.361 73.6562 353.762 73.832C354.172 73.998 354.636 74.0811 355.153 74.0811C355.817 74.0811 356.418 73.9199 356.955 73.5977C357.502 73.2754 357.966 72.7969 358.347 72.1621C358.728 71.5273 359.021 70.7412 359.226 69.8037C359.431 68.8564 359.533 67.7627 359.533 66.5225ZM350.773 66.3467C350.773 66.6494 350.773 66.9521 350.773 67.2549C350.783 67.5576 350.803 67.8506 350.832 68.1338L358.933 62.1426C358.786 61.6445 358.601 61.1904 358.376 60.7803C358.151 60.3701 357.883 60.0186 357.57 59.7256C357.258 59.4229 356.901 59.1885 356.501 59.0225C356.101 58.8564 355.651 58.7734 355.153 58.7734C354.489 58.7734 353.884 58.9346 353.337 59.2568C352.8 59.5791 352.341 60.0625 351.96 60.707C351.579 61.3418 351.286 62.1328 351.081 63.0801C350.876 64.0176 350.773 65.1064 350.773 66.3467ZM428.088 66.4346C428.088 67.8994 427.941 69.2373 427.648 70.4482C427.355 71.6494 426.911 72.6846 426.315 73.5537C425.72 74.4131 424.978 75.082 424.089 75.5605C423.21 76.0293 422.175 76.2637 420.983 76.2637C419.958 76.2637 419.025 76.0732 418.186 75.6924C417.346 75.3018 416.628 74.7061 416.032 73.9053C415.437 73.1045 414.978 72.084 414.655 70.8438C414.333 69.6035 414.172 68.1338 414.172 66.4346C414.172 64.9697 414.318 63.6318 414.611 62.4209C414.914 61.21 415.358 60.1748 415.944 59.3154C416.54 58.4463 417.282 57.7773 418.171 57.3086C419.06 56.8301 420.095 56.5908 421.276 56.5908C422.302 56.5908 423.234 56.7861 424.074 57.1768C424.914 57.5576 425.632 58.1533 426.228 58.9639C426.823 59.7646 427.282 60.7852 427.604 62.0254C427.927 63.2656 428.088 64.7354 428.088 66.4346ZM425.51 66.5225C425.51 66.1904 425.495 65.8633 425.466 65.541C425.446 65.209 425.422 64.8867 425.393 64.5742L417.292 70.5947C417.438 71.1025 417.624 71.5713 417.849 72.001C418.073 72.4307 418.342 72.8018 418.654 73.1143C418.977 73.417 419.338 73.6562 419.738 73.832C420.148 73.998 420.612 74.0811 421.13 74.0811C421.794 74.0811 422.395 73.9199 422.932 73.5977C423.479 73.2754 423.942 72.7969 424.323 72.1621C424.704 71.5273 424.997 70.7412 425.202 69.8037C425.407 68.8564 425.51 67.7627 425.51 66.5225ZM416.75 66.3467C416.75 66.6494 416.75 66.9521 416.75 67.2549C416.76 67.5576 416.779 67.8506 416.809 68.1338L424.909 62.1426C424.763 61.6445 424.577 61.1904 424.353 60.7803C424.128 60.3701 423.859 60.0186 423.547 59.7256C423.234 59.4229 422.878 59.1885 422.478 59.0225C422.077 58.8564 421.628 58.7734 421.13 58.7734C420.466 58.7734 419.86 58.9346 419.313 59.2568C418.776 59.5791 418.317 60.0625 417.937 60.707C417.556 61.3418 417.263 62.1328 417.058 63.0801C416.853 64.0176 416.75 65.1064 416.75 66.3467ZM449.357 79.0029C449.855 79.0225 450.339 78.9785 450.808 78.8711C451.276 78.7637 451.687 78.6025 452.038 78.3877C452.399 78.1826 452.688 77.9238 452.902 77.6113C453.117 77.2988 453.225 76.9424 453.225 76.542C453.225 76.1318 453.151 75.7998 453.005 75.5459C452.868 75.292 452.712 75.0576 452.536 74.8428C452.36 74.6279 452.199 74.3984 452.053 74.1543C451.916 73.9102 451.848 73.583 451.848 73.1729C451.848 72.9678 451.887 72.7529 451.965 72.5283C452.043 72.3037 452.16 72.0986 452.316 71.9131C452.482 71.7275 452.688 71.5762 452.932 71.459C453.186 71.3418 453.483 71.2832 453.825 71.2832C454.167 71.2832 454.494 71.3564 454.807 71.5029C455.129 71.6396 455.407 71.8545 455.642 72.1475C455.886 72.4404 456.076 72.8066 456.213 73.2461C456.359 73.6855 456.433 74.2031 456.433 74.7988C456.433 75.6094 456.281 76.3857 455.979 77.1279C455.686 77.8799 455.241 78.5439 454.646 79.1201C454.06 79.6963 453.322 80.1553 452.434 80.4971C451.555 80.8389 450.529 81.0098 449.357 81.0098V79.0029Z" fill="black"/>
<path d="M500.597 152.954C500.597 151.704 500.768 150.596 501.109 149.629C501.451 148.652 501.935 147.832 502.56 147.168C503.194 146.494 503.951 145.986 504.83 145.645C505.719 145.293 506.705 145.117 507.789 145.117C508.258 145.117 508.717 145.146 509.166 145.205C509.625 145.264 510.074 145.356 510.514 145.483V139.302H513.077V160H510.792L510.704 157.217C509.991 158.252 509.22 159.019 508.39 159.517C507.56 160.015 506.661 160.264 505.694 160.264C504.854 160.264 504.112 160.088 503.468 159.736C502.833 159.385 502.301 158.892 501.871 158.257C501.451 157.612 501.134 156.841 500.919 155.942C500.704 155.044 500.597 154.048 500.597 152.954ZM503.204 152.793C503.204 154.57 503.463 155.898 503.98 156.777C504.508 157.646 505.25 158.081 506.207 158.081C506.852 158.081 507.53 157.793 508.243 157.217C508.966 156.641 509.723 155.786 510.514 154.653V147.827C510.094 147.632 509.63 147.485 509.122 147.388C508.614 147.28 508.111 147.227 507.613 147.227C506.227 147.227 505.143 147.676 504.361 148.574C503.59 149.473 503.204 150.879 503.204 152.793ZM530.406 152.383C530.406 153.691 530.221 154.834 529.85 155.811C529.488 156.787 528.985 157.598 528.341 158.242C527.696 158.887 526.935 159.37 526.056 159.692C525.177 160.015 524.225 160.176 523.199 160.176C522.73 160.176 522.262 160.151 521.793 160.103C521.334 160.054 520.865 159.971 520.387 159.854V166.006H517.838V145.293H520.108L520.27 147.754C521.002 146.748 521.783 146.045 522.613 145.645C523.443 145.234 524.342 145.029 525.309 145.029C526.148 145.029 526.886 145.205 527.521 145.557C528.155 145.908 528.688 146.406 529.117 147.051C529.547 147.686 529.869 148.457 530.084 149.365C530.299 150.264 530.406 151.27 530.406 152.383ZM527.799 152.5C527.799 151.729 527.74 151.021 527.623 150.376C527.516 149.731 527.34 149.18 527.096 148.721C526.852 148.262 526.539 147.905 526.158 147.651C525.777 147.388 525.323 147.256 524.796 147.256C524.474 147.256 524.146 147.31 523.814 147.417C523.482 147.515 523.136 147.686 522.774 147.93C522.423 148.164 522.047 148.481 521.646 148.882C521.256 149.272 520.836 149.761 520.387 150.347V157.48C520.855 157.676 521.349 157.832 521.866 157.949C522.384 158.057 522.892 158.11 523.39 158.11C524.767 158.11 525.846 157.646 526.627 156.719C527.408 155.781 527.799 154.375 527.799 152.5ZM544.264 166.006H537.042V138.789H544.264V140.84H539.474V163.955H544.264V166.006ZM564.083 160H560.699L556.729 154.39L552.804 160H549.508L555.206 152.617L549.771 145.293H553.038L556.905 150.947L560.699 145.293H563.849L558.326 152.676L564.083 160ZM584.532 145.425L586.114 143.799L595.958 152.017L586.114 160.234L584.532 158.623L592.516 152.046L584.532 145.425ZM601.026 145.425L602.608 143.799L612.452 152.017L602.608 160.234L601.026 158.623L609.01 152.046L601.026 145.425ZM645.558 160H633.531V157.627H638.453V143.652L633.868 146.143L632.931 143.975L639.024 140.767H641.28V157.627H645.558V160ZM658.888 166.006H651.666V163.955H656.427V140.84H651.666V138.789H658.888V166.006ZM694.981 150.537H682.384V148.384H694.981V150.537ZM694.981 155.635H682.384V153.481H694.981V155.635ZM728.189 160H715.577V157.715L720.528 152.793C721.339 151.992 721.998 151.299 722.506 150.713C723.014 150.127 723.409 149.595 723.692 149.116C723.976 148.628 724.166 148.169 724.264 147.739C724.361 147.31 724.41 146.846 724.41 146.348C724.41 145.879 724.347 145.435 724.22 145.015C724.093 144.585 723.897 144.209 723.634 143.887C723.37 143.564 723.028 143.311 722.608 143.125C722.188 142.939 721.686 142.847 721.1 142.847C720.289 142.847 719.552 143.027 718.888 143.389C718.224 143.75 717.613 144.219 717.057 144.795L715.65 143.11C716.373 142.349 717.203 141.738 718.141 141.279C719.088 140.82 720.187 140.591 721.437 140.591C722.286 140.591 723.058 140.718 723.751 140.972C724.454 141.226 725.06 141.592 725.567 142.07C726.075 142.549 726.466 143.135 726.739 143.828C727.022 144.521 727.164 145.303 727.164 146.172C727.164 146.904 727.066 147.583 726.871 148.208C726.676 148.833 726.378 149.458 725.978 150.083C725.587 150.698 725.089 151.338 724.483 152.002C723.888 152.666 723.18 153.394 722.359 154.185L718.888 157.568H728.189V160Z" fill="black"/>
<path d="M500.597 68.9541C500.597 67.7041 500.768 66.5957 501.109 65.6289C501.451 64.6523 501.935 63.832 502.56 63.168C503.194 62.4941 503.951 61.9863 504.83 61.6445C505.719 61.293 506.705 61.1172 507.789 61.1172C508.258 61.1172 508.717 61.1465 509.166 61.2051C509.625 61.2637 510.074 61.3564 510.514 61.4834V55.3018H513.077V76H510.792L510.704 73.2168C509.991 74.252 509.22 75.0186 508.39 75.5166C507.56 76.0146 506.661 76.2637 505.694 76.2637C504.854 76.2637 504.112 76.0879 503.468 75.7363C502.833 75.3848 502.301 74.8916 501.871 74.2568C501.451 73.6123 501.134 72.8408 500.919 71.9424C500.704 71.0439 500.597 70.0479 500.597 68.9541ZM503.204 68.793C503.204 70.5703 503.463 71.8984 503.98 72.7773C504.508 73.6465 505.25 74.0811 506.207 74.0811C506.852 74.0811 507.53 73.793 508.243 73.2168C508.966 72.6406 509.723 71.7861 510.514 70.6533V63.8271C510.094 63.6318 509.63 63.4854 509.122 63.3877C508.614 63.2803 508.111 63.2266 507.613 63.2266C506.227 63.2266 505.143 63.6758 504.361 64.5742C503.59 65.4727 503.204 66.8789 503.204 68.793ZM530.406 68.3828C530.406 69.6914 530.221 70.834 529.85 71.8105C529.488 72.7871 528.985 73.5977 528.341 74.2422C527.696 74.8867 526.935 75.3701 526.056 75.6924C525.177 76.0146 524.225 76.1758 523.199 76.1758C522.73 76.1758 522.262 76.1514 521.793 76.1025C521.334 76.0537 520.865 75.9707 520.387 75.8535V82.0059H517.838V61.293H520.108L520.27 63.7539C521.002 62.748 521.783 62.0449 522.613 61.6445C523.443 61.2344 524.342 61.0293 525.309 61.0293C526.148 61.0293 526.886 61.2051 527.521 61.5566C528.155 61.9082 528.688 62.4062 529.117 63.0508C529.547 63.6855 529.869 64.457 530.084 65.3652C530.299 66.2637 530.406 67.2695 530.406 68.3828ZM527.799 68.5C527.799 67.7285 527.74 67.0205 527.623 66.376C527.516 65.7314 527.34 65.1797 527.096 64.7207C526.852 64.2617 526.539 63.9053 526.158 63.6514C525.777 63.3877 525.323 63.2559 524.796 63.2559C524.474 63.2559 524.146 63.3096 523.814 63.417C523.482 63.5146 523.136 63.6855 522.774 63.9297C522.423 64.1641 522.047 64.4814 521.646 64.8818C521.256 65.2725 520.836 65.7607 520.387 66.3467V73.4805C520.855 73.6758 521.349 73.832 521.866 73.9492C522.384 74.0566 522.892 74.1104 523.39 74.1104C524.767 74.1104 525.846 73.6465 526.627 72.7188C527.408 71.7812 527.799 70.375 527.799 68.5ZM544.264 82.0059H537.042V54.7891H544.264V56.8398H539.474V79.9551H544.264V82.0059ZM564.083 76H560.699L556.729 70.3896L552.804 76H549.508L555.206 68.6172L549.771 61.293H553.038L556.905 66.9473L560.699 61.293H563.849L558.326 68.6758L564.083 76ZM576.417 82.0059H569.195V79.9551H573.956V56.8398H569.195V54.7891H576.417V82.0059ZM612.511 66.5371H599.913V64.3838H612.511V66.5371ZM612.511 71.6348H599.913V69.4814H612.511V71.6348ZM645.719 76H633.106V73.7148L638.058 68.793C638.868 67.9922 639.527 67.2988 640.035 66.7129C640.543 66.127 640.938 65.5947 641.222 65.1162C641.505 64.6279 641.695 64.1689 641.793 63.7393C641.891 63.3096 641.939 62.8457 641.939 62.3477C641.939 61.8789 641.876 61.4346 641.749 61.0146C641.622 60.585 641.427 60.209 641.163 59.8867C640.899 59.5645 640.558 59.3105 640.138 59.125C639.718 58.9395 639.215 58.8467 638.629 58.8467C637.818 58.8467 637.081 59.0273 636.417 59.3887C635.753 59.75 635.143 60.2188 634.586 60.7949L633.18 59.1104C633.902 58.3486 634.732 57.7383 635.67 57.2793C636.617 56.8203 637.716 56.5908 638.966 56.5908C639.815 56.5908 640.587 56.7178 641.28 56.9717C641.983 57.2256 642.589 57.5918 643.097 58.0703C643.604 58.5488 643.995 59.1348 644.269 59.8281C644.552 60.5215 644.693 61.3027 644.693 62.1719C644.693 62.9043 644.596 63.583 644.4 64.208C644.205 64.833 643.907 65.458 643.507 66.083C643.116 66.6982 642.618 67.3379 642.013 68.002C641.417 68.666 640.709 69.3936 639.889 70.1846L636.417 73.5684H645.719V76Z" fill="black"/>
<path d="M15.7646 160H12.3809L8.41113 154.39L4.48535 160H1.18945L6.8877 152.617L1.45312 145.293H4.71973L8.58691 150.947L12.3809 145.293H15.5303L10.0078 152.676L15.7646 160ZM36.2139 145.425L37.7959 143.799L47.6396 152.017L37.7959 160.234L36.2139 158.623L44.1973 152.046L36.2139 145.425ZM52.708 145.425L54.29 143.799L64.1338 152.017L54.29 160.234L52.708 158.623L60.6914 152.046L52.708 145.425ZM97.2393 160H85.2129V157.627H90.1348V143.652L85.5498 146.143L84.6123 143.975L90.7061 140.767H92.9619V157.627H97.2393V160ZM130.169 150.537H117.571V148.384H130.169V150.537ZM130.169 155.635H117.571V153.481H130.169V155.635ZM163.816 150.435C163.816 151.899 163.67 153.237 163.377 154.448C163.084 155.649 162.64 156.685 162.044 157.554C161.448 158.413 160.706 159.082 159.817 159.561C158.938 160.029 157.903 160.264 156.712 160.264C155.687 160.264 154.754 160.073 153.914 159.692C153.074 159.302 152.356 158.706 151.761 157.905C151.165 157.104 150.706 156.084 150.384 154.844C150.062 153.604 149.9 152.134 149.9 150.435C149.9 148.97 150.047 147.632 150.34 146.421C150.643 145.21 151.087 144.175 151.673 143.315C152.269 142.446 153.011 141.777 153.899 141.309C154.788 140.83 155.823 140.591 157.005 140.591C158.03 140.591 158.963 140.786 159.803 141.177C160.643 141.558 161.36 142.153 161.956 142.964C162.552 143.765 163.011 144.785 163.333 146.025C163.655 147.266 163.816 148.735 163.816 150.435ZM161.238 150.522C161.238 150.19 161.224 149.863 161.194 149.541C161.175 149.209 161.15 148.887 161.121 148.574L153.021 154.595C153.167 155.103 153.353 155.571 153.577 156.001C153.802 156.431 154.07 156.802 154.383 157.114C154.705 157.417 155.066 157.656 155.467 157.832C155.877 157.998 156.341 158.081 156.858 158.081C157.522 158.081 158.123 157.92 158.66 157.598C159.207 157.275 159.671 156.797 160.052 156.162C160.433 155.527 160.726 154.741 160.931 153.804C161.136 152.856 161.238 151.763 161.238 150.522ZM152.479 150.347C152.479 150.649 152.479 150.952 152.479 151.255C152.488 151.558 152.508 151.851 152.537 152.134L160.638 146.143C160.491 145.645 160.306 145.19 160.081 144.78C159.856 144.37 159.588 144.019 159.275 143.726C158.963 143.423 158.606 143.188 158.206 143.022C157.806 142.856 157.356 142.773 156.858 142.773C156.194 142.773 155.589 142.935 155.042 143.257C154.505 143.579 154.046 144.062 153.665 144.707C153.284 145.342 152.991 146.133 152.786 147.08C152.581 148.018 152.479 149.106 152.479 150.347ZM229.192 160H217.166V157.627H222.088V143.652L217.503 146.143L216.565 143.975L222.659 140.767H224.915V157.627H229.192V160ZM295.169 160H283.143V157.627H288.064V143.652L283.479 146.143L282.542 143.975L288.636 140.767H290.892V157.627H295.169V160ZM361.746 150.435C361.746 151.899 361.6 153.237 361.307 154.448C361.014 155.649 360.569 156.685 359.974 157.554C359.378 158.413 358.636 159.082 357.747 159.561C356.868 160.029 355.833 160.264 354.642 160.264C353.616 160.264 352.684 160.073 351.844 159.692C351.004 159.302 350.286 158.706 349.69 157.905C349.095 157.104 348.636 156.084 348.313 154.844C347.991 153.604 347.83 152.134 347.83 150.435C347.83 148.97 347.977 147.632 348.27 146.421C348.572 145.21 349.017 144.175 349.603 143.315C350.198 142.446 350.94 141.777 351.829 141.309C352.718 140.83 353.753 140.591 354.935 140.591C355.96 140.591 356.893 140.786 357.732 141.177C358.572 141.558 359.29 142.153 359.886 142.964C360.481 143.765 360.94 144.785 361.263 146.025C361.585 147.266 361.746 148.735 361.746 150.435ZM359.168 150.522C359.168 150.19 359.153 149.863 359.124 149.541C359.104 149.209 359.08 148.887 359.051 148.574L350.95 154.595C351.097 155.103 351.282 155.571 351.507 156.001C351.731 156.431 352 156.802 352.312 157.114C352.635 157.417 352.996 157.656 353.396 157.832C353.807 157.998 354.271 158.081 354.788 158.081C355.452 158.081 356.053 157.92 356.59 157.598C357.137 157.275 357.601 156.797 357.981 156.162C358.362 155.527 358.655 154.741 358.86 153.804C359.065 152.856 359.168 151.763 359.168 150.522ZM350.408 150.347C350.408 150.649 350.408 150.952 350.408 151.255C350.418 151.558 350.438 151.851 350.467 152.134L358.567 146.143C358.421 145.645 358.235 145.19 358.011 144.78C357.786 144.37 357.518 144.019 357.205 143.726C356.893 143.423 356.536 143.188 356.136 143.022C355.735 142.856 355.286 142.773 354.788 142.773C354.124 142.773 353.519 142.935 352.972 143.257C352.435 143.579 351.976 144.062 351.595 144.707C351.214 145.342 350.921 146.133 350.716 147.08C350.511 148.018 350.408 149.106 350.408 150.347ZM427.723 150.435C427.723 151.899 427.576 153.237 427.283 154.448C426.99 155.649 426.546 156.685 425.95 157.554C425.354 158.413 424.612 159.082 423.724 159.561C422.845 160.029 421.81 160.264 420.618 160.264C419.593 160.264 418.66 160.073 417.82 159.692C416.98 159.302 416.263 158.706 415.667 157.905C415.071 157.104 414.612 156.084 414.29 154.844C413.968 153.604 413.807 152.134 413.807 150.435C413.807 148.97 413.953 147.632 414.246 146.421C414.549 145.21 414.993 144.175 415.579 143.315C416.175 142.446 416.917 141.777 417.806 141.309C418.694 140.83 419.729 140.591 420.911 140.591C421.937 140.591 422.869 140.786 423.709 141.177C424.549 141.558 425.267 142.153 425.862 142.964C426.458 143.765 426.917 144.785 427.239 146.025C427.562 147.266 427.723 148.735 427.723 150.435ZM425.145 150.522C425.145 150.19 425.13 149.863 425.101 149.541C425.081 149.209 425.057 148.887 425.027 148.574L416.927 154.595C417.073 155.103 417.259 155.571 417.483 156.001C417.708 156.431 417.977 156.802 418.289 157.114C418.611 157.417 418.973 157.656 419.373 157.832C419.783 157.998 420.247 158.081 420.765 158.081C421.429 158.081 422.029 157.92 422.566 157.598C423.113 157.275 423.577 156.797 423.958 156.162C424.339 155.527 424.632 154.741 424.837 153.804C425.042 152.856 425.145 151.763 425.145 150.522ZM416.385 150.347C416.385 150.649 416.385 150.952 416.385 151.255C416.395 151.558 416.414 151.851 416.443 152.134L424.544 146.143C424.397 145.645 424.212 145.19 423.987 144.78C423.763 144.37 423.494 144.019 423.182 143.726C422.869 143.423 422.513 143.188 422.112 143.022C421.712 142.856 421.263 142.773 420.765 142.773C420.101 142.773 419.495 142.935 418.948 143.257C418.411 143.579 417.952 144.062 417.571 144.707C417.19 145.342 416.897 146.133 416.692 147.08C416.487 148.018 416.385 149.106 416.385 150.347ZM448.992 163.003C449.49 163.022 449.974 162.979 450.442 162.871C450.911 162.764 451.321 162.603 451.673 162.388C452.034 162.183 452.322 161.924 452.537 161.611C452.752 161.299 452.859 160.942 452.859 160.542C452.859 160.132 452.786 159.8 452.64 159.546C452.503 159.292 452.347 159.058 452.171 158.843C451.995 158.628 451.834 158.398 451.688 158.154C451.551 157.91 451.482 157.583 451.482 157.173C451.482 156.968 451.521 156.753 451.6 156.528C451.678 156.304 451.795 156.099 451.951 155.913C452.117 155.728 452.322 155.576 452.566 155.459C452.82 155.342 453.118 155.283 453.46 155.283C453.802 155.283 454.129 155.356 454.441 155.503C454.764 155.64 455.042 155.854 455.276 156.147C455.521 156.44 455.711 156.807 455.848 157.246C455.994 157.686 456.067 158.203 456.067 158.799C456.067 159.609 455.916 160.386 455.613 161.128C455.32 161.88 454.876 162.544 454.28 163.12C453.694 163.696 452.957 164.155 452.068 164.497C451.189 164.839 450.164 165.01 448.992 165.01V163.003Z" fill="black"/>
<path d="M402.059 18V1.40723H405.232V15.3213H412.24V18H402.059ZM426.802 12.9854C426.802 13.891 426.632 14.6781 426.294 15.3467C425.964 16.0153 425.498 16.5697 424.897 17.0098C424.297 17.4414 423.581 17.763 422.752 17.9746C421.923 18.1862 421.017 18.292 420.035 18.292C419.163 18.292 418.321 18.2412 417.509 18.1396C416.696 18.0381 415.892 17.8688 415.097 17.6318V14.5469C415.486 14.6823 415.892 14.8092 416.315 14.9277C416.739 15.0462 417.162 15.152 417.585 15.2451C418.017 15.3298 418.444 15.3975 418.867 15.4482C419.29 15.499 419.701 15.5244 420.099 15.5244C420.691 15.5244 421.195 15.4736 421.609 15.3721C422.024 15.2705 422.363 15.1309 422.625 14.9531C422.887 14.7754 423.078 14.5638 423.196 14.3184C423.315 14.0729 423.374 13.8021 423.374 13.5059C423.374 13.0996 423.256 12.7611 423.019 12.4902C422.79 12.2109 422.485 11.9655 422.104 11.7539C421.724 11.5423 421.288 11.3519 420.797 11.1826C420.314 11.0133 419.819 10.8314 419.312 10.6367C418.812 10.4421 418.317 10.222 417.826 9.97656C417.344 9.73112 416.912 9.42643 416.531 9.0625C416.15 8.69857 415.841 8.26693 415.604 7.76758C415.376 7.25977 415.262 6.65039 415.262 5.93945C415.262 5.28776 415.38 4.66992 415.617 4.08594C415.854 3.50195 416.227 2.99414 416.734 2.5625C417.242 2.1224 417.894 1.77539 418.689 1.52148C419.485 1.25911 420.446 1.12793 421.571 1.12793C421.901 1.12793 422.244 1.14486 422.6 1.17871C422.964 1.2041 423.319 1.24219 423.666 1.29297C424.021 1.33529 424.36 1.3903 424.682 1.45801C425.012 1.51725 425.312 1.58073 425.583 1.64844V4.50488C425.312 4.40332 425.016 4.31022 424.694 4.22559C424.373 4.14095 424.038 4.06901 423.691 4.00977C423.353 3.94206 423.01 3.89128 422.663 3.85742C422.316 3.82357 421.986 3.80664 421.673 3.80664C421.123 3.80664 420.657 3.85319 420.276 3.94629C419.896 4.03092 419.582 4.15365 419.337 4.31445C419.091 4.4668 418.914 4.65723 418.804 4.88574C418.694 5.11426 418.639 5.36816 418.639 5.64746C418.639 5.99447 418.753 6.29492 418.981 6.54883C419.218 6.79427 419.527 7.01855 419.908 7.22168C420.298 7.41634 420.733 7.60254 421.216 7.78027C421.707 7.94954 422.206 8.13574 422.714 8.33887C423.23 8.53353 423.729 8.75781 424.212 9.01172C424.703 9.26562 425.139 9.57454 425.52 9.93848C425.909 10.3024 426.218 10.734 426.446 11.2334C426.683 11.7243 426.802 12.3083 426.802 12.9854ZM429.785 18V1.40723H435.143C437.03 1.40723 438.443 1.7373 439.383 2.39746C440.331 3.05762 440.805 4.05632 440.805 5.39355C440.805 5.80827 440.754 6.21452 440.652 6.6123C440.559 7.00163 440.411 7.36133 440.208 7.69141C440.005 8.02148 439.751 8.31348 439.446 8.56738C439.142 8.82129 438.782 9.02018 438.367 9.16406C438.782 9.23177 439.175 9.36719 439.548 9.57031C439.929 9.76497 440.259 10.0231 440.538 10.3447C440.826 10.6579 441.05 11.0303 441.211 11.4619C441.38 11.8936 441.465 12.376 441.465 12.9092C441.465 14.6019 440.898 15.8757 439.764 16.7305C438.63 17.5768 436.992 18 434.851 18H429.785ZM437.555 5.93945C437.555 5.6263 437.504 5.34277 437.402 5.08887C437.301 4.83496 437.136 4.61914 436.907 4.44141C436.687 4.26367 436.399 4.12826 436.044 4.03516C435.697 3.93359 435.274 3.88281 434.774 3.88281H432.883V8.27539H434.774C435.282 8.27539 435.71 8.21615 436.057 8.09766C436.412 7.9707 436.7 7.80143 436.92 7.58984C437.148 7.36979 437.309 7.12012 437.402 6.84082C437.504 6.56152 437.555 6.26107 437.555 5.93945ZM435.066 15.4482C435.566 15.4482 436.002 15.3848 436.374 15.2578C436.755 15.1309 437.072 14.9574 437.326 14.7373C437.58 14.5088 437.771 14.2422 437.897 13.9375C438.033 13.6328 438.101 13.307 438.101 12.96C438.101 12.2406 437.83 11.6777 437.288 11.2715C436.755 10.8652 435.934 10.6621 434.825 10.6621H432.883V15.4482H435.066Z" fill="#00B2FF"/>
<path d="M420.293 50.7071C420.683 51.0976 421.317 51.0976 421.707 50.7071L428.071 44.3431C428.462 43.9526 428.462 43.3195 428.071 42.9289C427.681 42.5384 427.047 42.5384 426.657 42.9289L421 48.5858L415.343 42.9289C414.953 42.5384 414.319 42.5384 413.929 42.9289C413.538 43.3195 413.538 43.9526 413.929 44.3431L420.293 50.7071ZM420 20L420 50L422 50L422 20L420 20Z" fill="#00B2FF"/>
<path opacity="0.5" d="M206.5 130.5C207.052 130.5 207.5 130.052 207.5 129.5V120.5C207.5 119.948 207.052 119.5 206.5 119.5C205.948 119.5 205.5 119.948 205.5 120.5V128.5H197.5C196.948 128.5 196.5 128.948 196.5 129.5C196.5 130.052 196.948 130.5 197.5 130.5H206.5ZM165.293 89.7071L205.793 130.207L207.207 128.793L166.707 88.2929L165.293 89.7071Z" fill="black"/>
<path opacity="0.5" d="M274.5 130.5C275.052 130.5 275.5 130.052 275.5 129.5V120.5C275.5 119.948 275.052 119.5 274.5 119.5C273.948 119.5 273.5 119.948 273.5 120.5V128.5H265.5C264.948 128.5 264.5 128.948 264.5 129.5C264.5 130.052 264.948 130.5 265.5 130.5H274.5ZM233.293 89.7071L273.793 130.207L275.207 128.793L234.707 88.2929L233.293 89.7071Z" fill="black"/>
<path opacity="0.5" d="M342.5 130.5C343.052 130.5 343.5 130.052 343.5 129.5V120.5C343.5 119.948 343.052 119.5 342.5 119.5C341.948 119.5 341.5 119.948 341.5 120.5V128.5H333.5C332.948 128.5 332.5 128.948 332.5 129.5C332.5 130.052 332.948 130.5 333.5 130.5H342.5ZM301.293 89.7071L341.793 130.207L343.207 128.793L302.707 88.2929L301.293 89.7071Z" fill="black"/>
<path opacity="0.5" d="M410.5 130.5C411.052 130.5 411.5 130.052 411.5 129.5V120.5C411.5 119.948 411.052 119.5 410.5 119.5C409.948 119.5 409.5 119.948 409.5 120.5V128.5H401.5C400.948 128.5 400.5 128.948 400.5 129.5C400.5 130.052 400.948 130.5 401.5 130.5H410.5ZM369.293 89.7071L409.793 130.207L411.207 128.793L370.707 88.2929L369.293 89.7071Z" fill="black"/>
</g>
<defs>
<clipPath id="clip0_6296_4684">
<rect width="730" height="177" fill="white"/>
</clipPath>
</defs>
</svg>
