<svg width="508" height="153" viewBox="0 0 508 153" fill="none" xmlns="http://www.w3.org/2000/svg">
<g clip-path="url(#clip0_6289_7221)">
<rect width="508" height="153" fill="white"/>
<rect x="156" y="1" width="69" height="28" rx="6" fill="#FFF4EF" stroke="#FF5500" stroke-width="2"/>
<path d="M10.9238 74.3984C10.9238 75.5326 10.763 76.5228 10.4414 77.3691C10.1283 78.2155 9.69238 78.918 9.13379 79.4766C8.5752 80.0352 7.91504 80.4541 7.15332 80.7334C6.3916 81.0127 5.56641 81.1523 4.67773 81.1523C4.27148 81.1523 3.86523 81.1312 3.45898 81.0889C3.0612 81.0465 2.65495 80.9746 2.24023 80.873V86.2051H0.03125V68.2539H1.99902L2.13867 70.3867C2.77344 69.515 3.45052 68.9056 4.16992 68.5586C4.88932 68.2031 5.66797 68.0254 6.50586 68.0254C7.23372 68.0254 7.87272 68.1777 8.42285 68.4824C8.97298 68.7871 9.43424 69.2188 9.80664 69.7773C10.179 70.3275 10.4583 70.9961 10.6445 71.7832C10.8307 72.5618 10.9238 73.4336 10.9238 74.3984ZM8.66406 74.5C8.66406 73.8314 8.61328 73.2178 8.51172 72.6592C8.41862 72.1006 8.26628 71.6224 8.05469 71.2246C7.8431 70.8268 7.57227 70.5179 7.24219 70.2979C6.91211 70.0693 6.51855 69.9551 6.06152 69.9551C5.78223 69.9551 5.4987 70.0016 5.21094 70.0947C4.92318 70.1794 4.62272 70.3275 4.30957 70.5391C4.00488 70.7422 3.67904 71.0173 3.33203 71.3643C2.99349 71.7028 2.62956 72.126 2.24023 72.6338V78.8164C2.64648 78.9857 3.07389 79.1211 3.52246 79.2227C3.97103 79.3158 4.41113 79.3623 4.84277 79.3623C6.03613 79.3623 6.97135 78.9603 7.64844 78.1562C8.32552 77.3438 8.66406 76.125 8.66406 74.5ZM14.8467 68.2539H16.8652L16.9287 70.6025C17.682 69.6969 18.4225 69.041 19.1504 68.6348C19.8867 68.2285 20.6273 68.0254 21.3721 68.0254C22.6924 68.0254 23.6911 68.4528 24.3682 69.3076C25.0537 70.1624 25.3711 71.432 25.3203 73.1162H23.0859C23.1113 71.999 22.9463 71.1908 22.5908 70.6914C22.2438 70.1836 21.7318 69.9297 21.0547 69.9297C20.7585 69.9297 20.458 69.9847 20.1533 70.0947C19.8571 70.1963 19.5482 70.3656 19.2266 70.6025C18.9134 70.8311 18.5791 71.1273 18.2236 71.4912C17.8682 71.8551 17.4873 72.2952 17.0811 72.8115V81H14.8467V68.2539ZM39.3867 73.9541C39.3867 74.2673 39.3825 74.5296 39.374 74.7412C39.3656 74.9528 39.3529 75.1517 39.3359 75.3379H30.3857C30.3857 76.6413 30.7497 77.6442 31.4775 78.3467C32.2054 79.0407 33.2549 79.3877 34.626 79.3877C34.9984 79.3877 35.3708 79.375 35.7432 79.3496C36.1156 79.3158 36.4753 79.2734 36.8223 79.2227C37.1693 79.1719 37.4993 79.1169 37.8125 79.0576C38.1341 78.9899 38.4303 78.918 38.7012 78.8418V80.6572C38.1003 80.8265 37.4189 80.9619 36.6572 81.0635C35.904 81.1735 35.1211 81.2285 34.3086 81.2285C33.2168 81.2285 32.2773 81.0804 31.4902 80.7842C30.7031 80.488 30.0557 80.0605 29.5479 79.502C29.0485 78.9349 28.6761 78.2451 28.4307 77.4326C28.1937 76.6117 28.0752 75.6849 28.0752 74.6523C28.0752 73.7552 28.2021 72.9089 28.4561 72.1133C28.7184 71.3092 29.0951 70.6068 29.5859 70.0059C30.0853 69.3965 30.6947 68.9141 31.4141 68.5586C32.1335 68.2031 32.9502 68.0254 33.8643 68.0254C34.7529 68.0254 35.54 68.165 36.2256 68.4443C36.9111 68.7236 37.4867 69.1214 37.9521 69.6377C38.4261 70.1455 38.7816 70.7676 39.0186 71.5039C39.264 72.2318 39.3867 73.0485 39.3867 73.9541ZM37.0889 73.6367C37.1143 73.0697 37.0592 72.5534 36.9238 72.0879C36.7884 71.6139 36.5768 71.2077 36.2891 70.8691C36.0098 70.5306 35.6585 70.2682 35.2354 70.082C34.8122 69.8874 34.3213 69.79 33.7627 69.79C33.2803 69.79 32.8402 69.8831 32.4424 70.0693C32.0446 70.2555 31.7018 70.5179 31.4141 70.8564C31.1263 71.195 30.8936 71.6012 30.7158 72.0752C30.5381 72.5492 30.4281 73.0697 30.3857 73.6367H37.0889ZM54.0117 74.5254C54.0117 75.5156 53.8721 76.4255 53.5928 77.2549C53.3135 78.0758 52.9115 78.7826 52.3867 79.375C51.862 79.959 51.223 80.416 50.4697 80.7461C49.7165 81.0677 48.8617 81.2285 47.9053 81.2285C46.9912 81.2285 46.1702 81.0889 45.4424 80.8096C44.723 80.5218 44.1094 80.1029 43.6016 79.5527C43.1022 79.0026 42.7171 78.3213 42.4463 77.5088C42.1839 76.6963 42.0527 75.7611 42.0527 74.7031C42.0527 73.7129 42.1924 72.8115 42.4717 71.999C42.751 71.1781 43.153 70.4756 43.6777 69.8916C44.2025 69.2992 44.8415 68.8421 45.5947 68.5205C46.348 68.1904 47.2028 68.0254 48.1592 68.0254C49.0732 68.0254 49.89 68.1693 50.6094 68.457C51.3372 68.7363 51.9508 69.151 52.4502 69.7012C52.958 70.2428 53.3431 70.9199 53.6055 71.7324C53.8763 72.5449 54.0117 73.4759 54.0117 74.5254ZM51.752 74.627C51.752 73.8398 51.6631 73.1543 51.4854 72.5703C51.3161 71.9779 51.0706 71.487 50.749 71.0977C50.4274 70.6999 50.0339 70.4036 49.5684 70.209C49.1113 70.0059 48.5993 69.9043 48.0322 69.9043C47.3721 69.9043 46.805 70.0355 46.3311 70.2979C45.8656 70.5518 45.4805 70.8945 45.1758 71.3262C44.8796 71.7578 44.6595 72.2614 44.5156 72.8369C44.3802 73.404 44.3125 74.0007 44.3125 74.627C44.3125 75.4141 44.3971 76.1038 44.5664 76.6963C44.7441 77.2887 44.9938 77.7839 45.3154 78.1816C45.637 78.571 46.0264 78.8672 46.4834 79.0703C46.9404 79.265 47.4567 79.3623 48.0322 79.3623C48.6924 79.3623 49.2552 79.2354 49.7207 78.9814C50.1947 78.7191 50.5798 78.3721 50.876 77.9404C51.1807 77.5088 51.4007 77.0094 51.5361 76.4424C51.68 75.8669 51.752 75.2617 51.752 74.627ZM57.7314 68.2539H59.75L59.8135 70.6025C60.5667 69.6969 61.3073 69.041 62.0352 68.6348C62.7715 68.2285 63.512 68.0254 64.2568 68.0254C65.5771 68.0254 66.5758 68.4528 67.2529 69.3076C67.9385 70.1624 68.2559 71.432 68.2051 73.1162H65.9707C65.9961 71.999 65.8311 71.1908 65.4756 70.6914C65.1286 70.1836 64.6165 69.9297 63.9395 69.9297C63.6432 69.9297 63.3428 69.9847 63.0381 70.0947C62.7419 70.1963 62.4329 70.3656 62.1113 70.6025C61.7982 70.8311 61.4639 71.1273 61.1084 71.4912C60.7529 71.8551 60.3721 72.2952 59.9658 72.8115V81H57.7314V68.2539ZM70.8584 74.8936C70.8584 73.8102 71.0065 72.8496 71.3027 72.0117C71.599 71.1654 72.0179 70.4544 72.5596 69.8789C73.1097 69.2949 73.7656 68.8548 74.5273 68.5586C75.2975 68.2539 76.1523 68.1016 77.0918 68.1016C77.498 68.1016 77.8958 68.127 78.2852 68.1777C78.6829 68.2285 79.0723 68.3089 79.4531 68.4189V63.0615H81.6748V81H79.6943L79.6182 78.5879C79.0003 79.485 78.3317 80.1494 77.6123 80.5811C76.8929 81.0127 76.1143 81.2285 75.2764 81.2285C74.5485 81.2285 73.9053 81.0762 73.3467 80.7715C72.7965 80.4668 72.3353 80.0394 71.9629 79.4893C71.599 78.9307 71.3239 78.262 71.1377 77.4834C70.9515 76.7048 70.8584 75.8415 70.8584 74.8936ZM73.1182 74.7539C73.1182 76.2943 73.3424 77.4453 73.791 78.207C74.248 78.9603 74.8913 79.3369 75.7207 79.3369C76.2793 79.3369 76.8675 79.0872 77.4854 78.5879C78.1117 78.0885 78.7676 77.348 79.4531 76.3662V70.4502C79.0892 70.2809 78.6872 70.154 78.2471 70.0693C77.807 69.9762 77.3711 69.9297 76.9395 69.9297C75.7376 69.9297 74.7982 70.319 74.1211 71.0977C73.4525 71.8763 73.1182 73.0951 73.1182 74.7539ZM96.5664 73.9541C96.5664 74.2673 96.5622 74.5296 96.5537 74.7412C96.5452 74.9528 96.5326 75.1517 96.5156 75.3379H87.5654C87.5654 76.6413 87.9294 77.6442 88.6572 78.3467C89.3851 79.0407 90.4346 79.3877 91.8057 79.3877C92.1781 79.3877 92.5505 79.375 92.9229 79.3496C93.2952 79.3158 93.6549 79.2734 94.002 79.2227C94.349 79.1719 94.679 79.1169 94.9922 79.0576C95.3138 78.9899 95.61 78.918 95.8809 78.8418V80.6572C95.2799 80.8265 94.5986 80.9619 93.8369 81.0635C93.0837 81.1735 92.3008 81.2285 91.4883 81.2285C90.3965 81.2285 89.457 81.0804 88.6699 80.7842C87.8828 80.488 87.2354 80.0605 86.7275 79.502C86.2282 78.9349 85.8558 78.2451 85.6104 77.4326C85.3734 76.6117 85.2549 75.6849 85.2549 74.6523C85.2549 73.7552 85.3818 72.9089 85.6357 72.1133C85.8981 71.3092 86.2747 70.6068 86.7656 70.0059C87.265 69.3965 87.8743 68.9141 88.5938 68.5586C89.3132 68.2031 90.1299 68.0254 91.0439 68.0254C91.9326 68.0254 92.7197 68.165 93.4053 68.4443C94.0908 68.7236 94.6663 69.1214 95.1318 69.6377C95.6058 70.1455 95.9613 70.7676 96.1982 71.5039C96.4437 72.2318 96.5664 73.0485 96.5664 73.9541ZM94.2686 73.6367C94.2939 73.0697 94.2389 72.5534 94.1035 72.0879C93.9681 71.6139 93.7565 71.2077 93.4688 70.8691C93.1895 70.5306 92.8382 70.2682 92.415 70.082C91.9919 69.8874 91.501 69.79 90.9424 69.79C90.46 69.79 90.0199 69.8831 89.6221 70.0693C89.2243 70.2555 88.8815 70.5179 88.5938 70.8564C88.306 71.195 88.0732 71.6012 87.8955 72.0752C87.7178 72.5492 87.6077 73.0697 87.5654 73.6367H94.2686ZM100.616 68.2539H102.635L102.698 70.6025C103.451 69.6969 104.192 69.041 104.92 68.6348C105.656 68.2285 106.397 68.0254 107.142 68.0254C108.462 68.0254 109.461 68.4528 110.138 69.3076C110.823 70.1624 111.141 71.432 111.09 73.1162H108.855C108.881 71.999 108.716 71.1908 108.36 70.6914C108.013 70.1836 107.501 69.9297 106.824 69.9297C106.528 69.9297 106.228 69.9847 105.923 70.0947C105.627 70.1963 105.318 70.3656 104.996 70.6025C104.683 70.8311 104.349 71.1273 103.993 71.4912C103.638 71.8551 103.257 72.2952 102.851 72.8115V81H100.616V68.2539ZM139.261 72.7988H128.343V70.9326H139.261V72.7988ZM139.261 77.2168H128.343V75.3506H139.261V77.2168ZM165.883 86.2051H159.624V62.6172H165.883V64.3945H161.731V84.4277H165.883V86.2051ZM196.605 75.6934C196.605 76.582 196.419 77.3734 196.047 78.0674C195.674 78.7529 195.158 79.3327 194.498 79.8066C193.838 80.2806 193.059 80.6403 192.162 80.8857C191.265 81.1312 190.292 81.2539 189.242 81.2539C188.98 81.2539 188.701 81.2454 188.404 81.2285C188.108 81.2116 187.808 81.1904 187.503 81.165C187.198 81.1396 186.902 81.1058 186.614 81.0635C186.326 81.0296 186.06 80.9915 185.814 80.9492V78.2451C186.297 78.3636 186.851 78.4609 187.478 78.5371C188.104 78.6048 188.743 78.6387 189.395 78.6387C190.664 78.6387 191.629 78.3975 192.289 77.915C192.958 77.4242 193.292 76.7471 193.292 75.8838C193.292 74.9867 192.983 74.3223 192.365 73.8906C191.747 73.4505 190.749 73.2305 189.369 73.2305H186.119V64.4072H195.691V67.3271H189.014V70.7041H190.207C191.053 70.7041 191.862 70.7803 192.632 70.9326C193.402 71.085 194.079 71.3516 194.663 71.7324C195.256 72.1048 195.725 72.6126 196.072 73.2559C196.428 73.8991 196.605 74.7116 196.605 75.6934ZM253.722 71.7705C253.722 73.387 253.527 74.7793 253.138 75.9473C252.748 77.1068 252.173 78.0632 251.411 78.8164C250.649 79.5612 249.706 80.1113 248.58 80.4668C247.454 80.8223 246.155 81 244.683 81H243.299V79.0703H244.835C245.927 79.0703 246.87 78.9603 247.666 78.7402C248.462 78.5202 249.122 78.1986 249.646 77.7754C250.18 77.3438 250.586 76.8232 250.865 76.2139C251.145 75.596 251.318 74.8936 251.386 74.1064L251.437 73.5859C250.903 73.8991 250.29 74.153 249.596 74.3477C248.902 74.5339 248.148 74.627 247.336 74.627C246.498 74.627 245.762 74.5042 245.127 74.2588C244.492 74.0133 243.963 73.6706 243.54 73.2305C243.125 72.7904 242.812 72.2699 242.601 71.6689C242.389 71.0596 242.283 70.3994 242.283 69.6885C242.283 68.9183 242.423 68.1989 242.702 67.5303C242.981 66.8617 243.371 66.2819 243.87 65.791C244.378 65.2917 244.983 64.8981 245.686 64.6104C246.388 64.3226 247.162 64.1787 248.009 64.1787C248.83 64.1787 249.587 64.3141 250.281 64.585C250.984 64.8558 251.589 65.2959 252.097 65.9053C252.604 66.5062 253.002 67.2891 253.29 68.2539C253.578 69.2188 253.722 70.391 253.722 71.7705ZM247.907 65.9941C247.433 65.9941 246.993 66.0745 246.587 66.2354C246.189 66.3877 245.842 66.6162 245.546 66.9209C245.258 67.2171 245.03 67.5853 244.86 68.0254C244.691 68.4655 244.606 68.9691 244.606 69.5361C244.606 70.0524 244.666 70.5137 244.784 70.9199C244.911 71.3262 245.102 71.6732 245.355 71.9609C245.618 72.2402 245.952 72.4561 246.358 72.6084C246.765 72.7607 247.247 72.8369 247.806 72.8369C248.119 72.8369 248.44 72.8073 248.771 72.748C249.109 72.6888 249.435 72.6084 249.748 72.5068C250.07 72.4053 250.374 72.2868 250.662 72.1514C250.95 72.016 251.208 71.8721 251.437 71.7197C251.437 70.6279 251.356 69.7181 251.195 68.9902C251.035 68.2539 250.802 67.6657 250.497 67.2256C250.192 66.777 249.82 66.4596 249.38 66.2734C248.948 66.0872 248.457 65.9941 247.907 65.9941ZM310.99 81H300.06V79.0195L304.351 74.7539C305.053 74.0599 305.624 73.459 306.064 72.9512C306.505 72.4434 306.847 71.9821 307.093 71.5674C307.338 71.1442 307.503 70.7464 307.588 70.374C307.673 70.0016 307.715 69.5996 307.715 69.168C307.715 68.7617 307.66 68.3766 307.55 68.0127C307.44 67.6403 307.271 67.3145 307.042 67.0352C306.813 66.7559 306.517 66.5358 306.153 66.375C305.789 66.2142 305.354 66.1338 304.846 66.1338C304.143 66.1338 303.504 66.2904 302.929 66.6035C302.353 66.9167 301.824 67.3229 301.342 67.8223L300.123 66.3623C300.749 65.7021 301.469 65.1732 302.281 64.7754C303.102 64.3776 304.054 64.1787 305.138 64.1787C305.874 64.1787 306.543 64.2887 307.144 64.5088C307.753 64.7288 308.278 65.0462 308.718 65.4609C309.158 65.8757 309.496 66.3835 309.733 66.9844C309.979 67.5853 310.102 68.2624 310.102 69.0156C310.102 69.6504 310.017 70.2386 309.848 70.7803C309.678 71.3219 309.42 71.8636 309.073 72.4053C308.735 72.9385 308.303 73.4928 307.778 74.0684C307.262 74.6439 306.648 75.2744 305.938 75.96L302.929 78.8926H310.99V81ZM367.853 75.96C367.853 76.6878 367.704 77.3734 367.408 78.0166C367.112 78.6514 366.668 79.21 366.075 79.6924C365.483 80.1663 364.738 80.543 363.841 80.8223C362.944 81.0931 361.898 81.2285 360.705 81.2285C360.045 81.2285 359.452 81.2074 358.928 81.165C358.403 81.1227 357.912 81.0677 357.455 81V79.0195C357.98 79.1126 358.534 79.1846 359.118 79.2354C359.702 79.2861 360.299 79.3115 360.908 79.3115C361.738 79.3115 362.444 79.2396 363.028 79.0957C363.621 78.9434 364.103 78.7275 364.476 78.4482C364.848 78.1689 365.119 77.8304 365.288 77.4326C365.457 77.0348 365.542 76.5863 365.542 76.0869C365.542 75.6299 365.44 75.2321 365.237 74.8936C365.034 74.555 364.746 74.2715 364.374 74.043C364.01 73.8145 363.57 73.6452 363.054 73.5352C362.546 73.4167 361.987 73.3574 361.378 73.3574H359.486V71.542H361.403C361.903 71.542 362.355 71.4785 362.762 71.3516C363.176 71.2161 363.528 71.0257 363.815 70.7803C364.112 70.5348 364.336 70.2344 364.488 69.8789C364.649 69.515 364.729 69.1045 364.729 68.6475C364.729 67.7588 364.459 67.1113 363.917 66.7051C363.375 66.2988 362.58 66.0957 361.53 66.0957C360.972 66.0957 360.396 66.1507 359.804 66.2607C359.211 66.3708 358.576 66.5358 357.899 66.7559V64.8262C358.187 64.7246 358.492 64.6357 358.813 64.5596C359.144 64.4749 359.469 64.4072 359.791 64.3564C360.121 64.2972 360.447 64.2549 360.769 64.2295C361.09 64.1956 361.399 64.1787 361.695 64.1787C362.576 64.1787 363.35 64.276 364.019 64.4707C364.687 64.6569 365.246 64.9277 365.694 65.2832C366.143 65.6387 366.481 66.0703 366.71 66.5781C366.938 67.0859 367.053 67.6572 367.053 68.292C367.053 69.2399 366.807 70.0355 366.316 70.6787C365.834 71.3219 365.17 71.834 364.323 72.2148C364.755 72.2826 365.178 72.418 365.593 72.6211C366.016 72.8242 366.393 73.0866 366.723 73.4082C367.061 73.7214 367.332 74.0938 367.535 74.5254C367.747 74.957 367.853 75.4352 367.853 75.96ZM426.175 77.3311H423.344V81H421.084V77.3311H413.099V75.3887L420.17 64.4072H423.344V75.3887H426.175V77.3311ZM421.084 66.54L415.308 75.3887H421.084V66.54ZM482.44 66.4639L475.483 81H472.957L480.181 66.4639H471.218V64.4072H482.44V66.4639ZM508.237 86.2051H501.979V84.4277H506.104V64.3945H501.979V62.6172H508.237V86.2051Z" fill="black"/>
<circle cx="306" cy="128" r="23.75" fill="#FFF4EF" stroke="#FF5500" stroke-width="2.5"/>
<path d="M312.535 131.877C312.535 132.824 312.33 133.688 311.92 134.47C311.51 135.251 310.943 135.925 310.221 136.491C309.508 137.048 308.663 137.482 307.687 137.795C306.71 138.107 305.655 138.264 304.522 138.264C304.239 138.264 303.932 138.254 303.6 138.234C303.277 138.225 302.955 138.205 302.633 138.176C302.311 138.156 301.993 138.132 301.681 138.103C301.378 138.073 301.104 138.039 300.86 138V135.686C301.388 135.812 301.988 135.905 302.662 135.964C303.346 136.022 304.034 136.052 304.728 136.052C305.509 136.052 306.212 135.959 306.837 135.773C307.462 135.588 307.994 135.324 308.434 134.982C308.873 134.631 309.21 134.211 309.444 133.723C309.679 133.225 309.796 132.668 309.796 132.053C309.796 130.861 309.366 129.997 308.507 129.46C307.657 128.913 306.432 128.64 304.83 128.64H301.197V118.854H311.51V121.081H303.6V126.457H305.27C306.188 126.457 307.081 126.54 307.95 126.706C308.819 126.872 309.591 127.165 310.265 127.585C310.948 127.995 311.495 128.552 311.905 129.255C312.325 129.948 312.535 130.822 312.535 131.877Z" fill="black"/>
<path d="M192 29C192 28.4477 191.552 28 191 28C190.448 28 190 28.4477 190 29L192 29ZM190.293 58.7071C190.683 59.0976 191.317 59.0976 191.707 58.7071L198.071 52.3431C198.462 51.9526 198.462 51.3195 198.071 50.9289C197.681 50.5384 197.047 50.5384 196.657 50.9289L191 56.5858L185.343 50.9289C184.953 50.5384 184.319 50.5384 183.929 50.9289C183.538 51.3195 183.538 51.9526 183.929 52.3431L190.293 58.7071ZM190 29L190 58L192 58L192 29L190 29Z" fill="#FF5500"/>
<path d="M167.465 11.2344H169.328L169.387 13.4023C170.082 12.5664 170.766 11.9609 171.438 11.5859C172.117 11.2109 172.801 11.0234 173.488 11.0234C174.707 11.0234 175.629 11.418 176.254 12.207C176.887 12.9961 177.18 14.168 177.133 15.7227H175.07C175.094 14.6914 174.941 13.9453 174.613 13.4844C174.293 13.0156 173.82 12.7812 173.195 12.7812C172.922 12.7812 172.645 12.832 172.363 12.9336C172.09 13.0273 171.805 13.1836 171.508 13.4023C171.219 13.6133 170.91 13.8867 170.582 14.2227C170.254 14.5586 169.902 14.9648 169.527 15.4414V23H167.465V11.2344ZM190.422 17.0234C190.422 17.9375 190.293 18.7773 190.035 19.543C189.777 20.3008 189.406 20.9531 188.922 21.5C188.438 22.0391 187.848 22.4609 187.152 22.7656C186.457 23.0625 185.668 23.2109 184.785 23.2109C183.941 23.2109 183.184 23.082 182.512 22.8242C181.848 22.5586 181.281 22.1719 180.812 21.6641C180.352 21.1562 179.996 20.5273 179.746 19.7773C179.504 19.0273 179.383 18.1641 179.383 17.1875C179.383 16.2734 179.512 15.4414 179.77 14.6914C180.027 13.9336 180.398 13.2852 180.883 12.7461C181.367 12.1992 181.957 11.7773 182.652 11.4805C183.348 11.1758 184.137 11.0234 185.02 11.0234C185.863 11.0234 186.617 11.1562 187.281 11.4219C187.953 11.6797 188.52 12.0625 188.98 12.5703C189.449 13.0703 189.805 13.6953 190.047 14.4453C190.297 15.1953 190.422 16.0547 190.422 17.0234ZM188.336 17.1172C188.336 16.3906 188.254 15.7578 188.09 15.2188C187.934 14.6719 187.707 14.2188 187.41 13.8594C187.113 13.4922 186.75 13.2188 186.32 13.0391C185.898 12.8516 185.426 12.7578 184.902 12.7578C184.293 12.7578 183.77 12.8789 183.332 13.1211C182.902 13.3555 182.547 13.6719 182.266 14.0703C181.992 14.4688 181.789 14.9336 181.656 15.4648C181.531 15.9883 181.469 16.5391 181.469 17.1172C181.469 17.8438 181.547 18.4805 181.703 19.0273C181.867 19.5742 182.098 20.0312 182.395 20.3984C182.691 20.7578 183.051 21.0312 183.473 21.2188C183.895 21.3984 184.371 21.4883 184.902 21.4883C185.512 21.4883 186.031 21.3711 186.461 21.1367C186.898 20.8945 187.254 20.5742 187.527 20.1758C187.809 19.7773 188.012 19.3164 188.137 18.793C188.27 18.2617 188.336 17.7031 188.336 17.1172ZM203.617 17.0234C203.617 17.9375 203.488 18.7773 203.23 19.543C202.973 20.3008 202.602 20.9531 202.117 21.5C201.633 22.0391 201.043 22.4609 200.348 22.7656C199.652 23.0625 198.863 23.2109 197.98 23.2109C197.137 23.2109 196.379 23.082 195.707 22.8242C195.043 22.5586 194.477 22.1719 194.008 21.6641C193.547 21.1562 193.191 20.5273 192.941 19.7773C192.699 19.0273 192.578 18.1641 192.578 17.1875C192.578 16.2734 192.707 15.4414 192.965 14.6914C193.223 13.9336 193.594 13.2852 194.078 12.7461C194.562 12.1992 195.152 11.7773 195.848 11.4805C196.543 11.1758 197.332 11.0234 198.215 11.0234C199.059 11.0234 199.812 11.1562 200.477 11.4219C201.148 11.6797 201.715 12.0625 202.176 12.5703C202.645 13.0703 203 13.6953 203.242 14.4453C203.492 15.1953 203.617 16.0547 203.617 17.0234ZM201.531 17.1172C201.531 16.3906 201.449 15.7578 201.285 15.2188C201.129 14.6719 200.902 14.2188 200.605 13.8594C200.309 13.4922 199.945 13.2188 199.516 13.0391C199.094 12.8516 198.621 12.7578 198.098 12.7578C197.488 12.7578 196.965 12.8789 196.527 13.1211C196.098 13.3555 195.742 13.6719 195.461 14.0703C195.188 14.4688 194.984 14.9336 194.852 15.4648C194.727 15.9883 194.664 16.5391 194.664 17.1172C194.664 17.8438 194.742 18.4805 194.898 19.0273C195.062 19.5742 195.293 20.0312 195.59 20.3984C195.887 20.7578 196.246 21.0312 196.668 21.2188C197.09 21.3984 197.566 21.4883 198.098 21.4883C198.707 21.4883 199.227 21.3711 199.656 21.1367C200.094 20.8945 200.449 20.5742 200.723 20.1758C201.004 19.7773 201.207 19.3164 201.332 18.793C201.465 18.2617 201.531 17.7031 201.531 17.1172ZM216.051 22.8359C215.59 22.9531 215.113 23.0352 214.621 23.082C214.129 23.1367 213.629 23.1641 213.121 23.1641C211.645 23.1641 210.543 22.832 209.816 22.168C209.09 21.4961 208.727 20.4688 208.727 19.0859V12.9453H205.434V11.2344H208.727V8L210.766 7.47266V11.2344H216.051V12.9453H210.766V18.9219C210.766 19.7656 210.988 20.3984 211.434 20.8203C211.887 21.2344 212.551 21.4414 213.426 21.4414C213.801 21.4414 214.211 21.4141 214.656 21.3594C215.102 21.2969 215.566 21.2031 216.051 21.0781V22.8359Z" fill="#FF5500"/>
</g>
<defs>
<clipPath id="clip0_6289_7221">
<rect width="508" height="153" fill="white"/>
</clipPath>
</defs>
</svg>
