<svg width="585" height="182" viewBox="0 0 585 182" fill="none" xmlns="http://www.w3.org/2000/svg">
<g clip-path="url(#clip0_6288_2893)">
<rect width="585" height="182" fill="white"/>
<path d="M8.63867 151.205H2.37988V127.617H8.63867V129.395H4.4873V149.428H8.63867V151.205ZM211.751 142.331H208.92V146H206.66V142.331H198.675V140.389L205.746 129.407H208.92V140.389H211.751V142.331ZM206.66 131.54L200.884 140.389H206.66V131.54ZM268.017 131.464L261.06 146H258.533L265.757 131.464H256.794V129.407H268.017V131.464ZM320.725 146H310.303V143.943H314.568V131.832L310.595 133.99L309.782 132.111L315.063 129.331H317.018V143.943H320.725V146ZM335.541 137.71C335.541 138.979 335.414 140.139 335.16 141.188C334.906 142.229 334.521 143.127 334.005 143.88C333.489 144.625 332.845 145.204 332.075 145.619C331.313 146.025 330.416 146.229 329.384 146.229C328.495 146.229 327.687 146.063 326.959 145.733C326.231 145.395 325.609 144.879 325.093 144.185C324.576 143.491 324.179 142.606 323.899 141.531C323.62 140.456 323.48 139.183 323.48 137.71C323.48 136.44 323.607 135.281 323.861 134.231C324.124 133.182 324.509 132.285 325.017 131.54C325.533 130.787 326.176 130.207 326.946 129.801C327.716 129.386 328.614 129.179 329.638 129.179C330.526 129.179 331.335 129.348 332.062 129.687C332.79 130.017 333.412 130.533 333.929 131.235C334.445 131.929 334.843 132.814 335.122 133.889C335.401 134.964 335.541 136.237 335.541 137.71ZM333.307 137.786C333.307 137.498 333.294 137.215 333.268 136.936C333.252 136.648 333.23 136.368 333.205 136.098L326.184 141.315C326.311 141.756 326.472 142.162 326.667 142.534C326.862 142.907 327.094 143.228 327.365 143.499C327.644 143.761 327.958 143.969 328.305 144.121C328.66 144.265 329.062 144.337 329.511 144.337C330.086 144.337 330.607 144.197 331.072 143.918C331.546 143.639 331.948 143.224 332.278 142.674C332.608 142.124 332.862 141.442 333.04 140.63C333.218 139.809 333.307 138.861 333.307 137.786ZM325.715 137.634C325.715 137.896 325.715 138.159 325.715 138.421C325.723 138.683 325.74 138.937 325.766 139.183L332.786 133.99C332.659 133.559 332.498 133.165 332.304 132.81C332.109 132.454 331.876 132.149 331.605 131.896C331.335 131.633 331.026 131.43 330.679 131.286C330.332 131.142 329.942 131.07 329.511 131.07C328.935 131.07 328.41 131.21 327.936 131.489C327.471 131.769 327.073 132.188 326.743 132.746C326.413 133.296 326.159 133.982 325.981 134.803C325.804 135.615 325.715 136.559 325.715 137.634ZM360.868 151.205H354.609V149.428H358.735V129.395H354.609V127.617H360.868V151.205Z" fill="black"/>
<path d="M39.2471 146H28.8242V143.943H33.0898V131.832L29.1162 133.99L28.3037 132.111L33.585 129.331H35.54V143.943H39.2471V146ZM97.3916 142.331H94.5605V146H92.3008V142.331H84.3154V140.389L91.3867 129.407H94.5605V140.389H97.3916V142.331ZM92.3008 131.54L86.5244 140.389H92.3008V131.54ZM153.327 140.693C153.327 141.514 153.149 142.263 152.794 142.94C152.438 143.618 151.948 144.201 151.321 144.692C150.703 145.175 149.971 145.551 149.125 145.822C148.279 146.093 147.365 146.229 146.383 146.229C146.137 146.229 145.871 146.22 145.583 146.203C145.304 146.195 145.024 146.178 144.745 146.152C144.466 146.135 144.191 146.114 143.92 146.089C143.658 146.063 143.421 146.034 143.209 146V143.994C143.666 144.104 144.187 144.185 144.771 144.235C145.363 144.286 145.96 144.312 146.561 144.312C147.238 144.312 147.847 144.231 148.389 144.07C148.93 143.91 149.392 143.681 149.772 143.385C150.153 143.08 150.445 142.716 150.648 142.293C150.852 141.861 150.953 141.379 150.953 140.846C150.953 139.813 150.581 139.064 149.836 138.599C149.1 138.125 148.037 137.888 146.649 137.888H143.501V129.407H152.438V131.337H145.583V135.996H147.03C147.826 135.996 148.6 136.068 149.354 136.212C150.107 136.356 150.775 136.61 151.359 136.974C151.952 137.329 152.426 137.812 152.781 138.421C153.145 139.022 153.327 139.779 153.327 140.693Z" fill="#00BD36"/>
<path d="M38.6387 167.623C38.6387 168.6 38.541 169.492 38.3457 170.299C38.1504 171.1 37.8542 171.79 37.457 172.369C37.0599 172.942 36.5651 173.388 35.9727 173.707C35.3867 174.02 34.6966 174.176 33.9023 174.176C33.2188 174.176 32.597 174.049 32.0371 173.795C31.4772 173.535 30.9987 173.137 30.6016 172.604C30.2044 172.07 29.8984 171.389 29.6836 170.562C29.4688 169.736 29.3613 168.756 29.3613 167.623C29.3613 166.646 29.459 165.755 29.6543 164.947C29.8561 164.14 30.1523 163.45 30.543 162.877C30.9401 162.298 31.4349 161.852 32.0273 161.539C32.6198 161.22 33.3099 161.061 34.0977 161.061C34.7812 161.061 35.403 161.191 35.9629 161.451C36.5228 161.705 37.0013 162.102 37.3984 162.643C37.7956 163.176 38.1016 163.857 38.3164 164.684C38.5312 165.51 38.6387 166.49 38.6387 167.623ZM36.9199 167.682C36.9199 167.46 36.9102 167.242 36.8906 167.027C36.8776 166.806 36.8613 166.591 36.8418 166.383L31.4414 170.396C31.5391 170.735 31.6628 171.048 31.8125 171.334C31.9622 171.62 32.1413 171.868 32.3496 172.076C32.5645 172.278 32.8053 172.438 33.0723 172.555C33.3457 172.665 33.6549 172.721 34 172.721C34.4427 172.721 34.8431 172.613 35.2012 172.398C35.5658 172.184 35.875 171.865 36.1289 171.441C36.3828 171.018 36.5781 170.494 36.7148 169.869C36.8516 169.238 36.9199 168.508 36.9199 167.682ZM31.0801 167.564C31.0801 167.766 31.0801 167.968 31.0801 168.17C31.0866 168.372 31.0996 168.567 31.1191 168.756L36.5195 164.762C36.4219 164.43 36.2982 164.127 36.1484 163.854C35.9987 163.58 35.8197 163.346 35.6113 163.15C35.403 162.949 35.1654 162.792 34.8984 162.682C34.6315 162.571 34.332 162.516 34 162.516C33.5573 162.516 33.1536 162.623 32.7891 162.838C32.431 163.053 32.125 163.375 31.8711 163.805C31.6172 164.228 31.4219 164.755 31.2852 165.387C31.1484 166.012 31.0801 166.738 31.0801 167.564Z" fill="black" fill-opacity="0.3"/>
<path d="M96.2383 174H88.2207V172.418H91.502V163.102L88.4453 164.762L87.8203 163.316L91.8828 161.178H93.3867V172.418H96.2383V174Z" fill="black" fill-opacity="0.3"/>
<path d="M152.346 174H143.938V172.477L147.238 169.195C147.779 168.661 148.218 168.199 148.557 167.809C148.895 167.418 149.159 167.063 149.348 166.744C149.536 166.419 149.663 166.113 149.729 165.826C149.794 165.54 149.826 165.23 149.826 164.898C149.826 164.586 149.784 164.29 149.699 164.01C149.615 163.723 149.484 163.473 149.309 163.258C149.133 163.043 148.905 162.874 148.625 162.75C148.345 162.626 148.01 162.564 147.619 162.564C147.079 162.564 146.587 162.685 146.145 162.926C145.702 163.167 145.295 163.479 144.924 163.863L143.986 162.74C144.468 162.232 145.021 161.826 145.646 161.52C146.278 161.214 147.01 161.061 147.844 161.061C148.41 161.061 148.924 161.145 149.387 161.314C149.855 161.484 150.259 161.728 150.598 162.047C150.936 162.366 151.197 162.757 151.379 163.219C151.568 163.681 151.662 164.202 151.662 164.781C151.662 165.27 151.597 165.722 151.467 166.139C151.337 166.555 151.138 166.972 150.871 167.389C150.611 167.799 150.279 168.225 149.875 168.668C149.478 169.111 149.006 169.596 148.459 170.123L146.145 172.379H152.346V174Z" fill="black" fill-opacity="0.3"/>
<path d="M209.102 170.123C209.102 170.683 208.988 171.21 208.76 171.705C208.532 172.193 208.19 172.623 207.734 172.994C207.279 173.359 206.706 173.648 206.016 173.863C205.326 174.072 204.521 174.176 203.604 174.176C203.096 174.176 202.64 174.16 202.236 174.127C201.833 174.094 201.455 174.052 201.104 174V172.477C201.507 172.548 201.934 172.604 202.383 172.643C202.832 172.682 203.291 172.701 203.76 172.701C204.398 172.701 204.941 172.646 205.391 172.535C205.846 172.418 206.217 172.252 206.504 172.037C206.79 171.822 206.999 171.562 207.129 171.256C207.259 170.95 207.324 170.605 207.324 170.221C207.324 169.869 207.246 169.563 207.09 169.303C206.934 169.042 206.712 168.824 206.426 168.648C206.146 168.473 205.807 168.342 205.41 168.258C205.02 168.167 204.59 168.121 204.121 168.121H202.666V166.725H204.141C204.525 166.725 204.873 166.676 205.186 166.578C205.505 166.474 205.775 166.327 205.996 166.139C206.224 165.95 206.396 165.719 206.514 165.445C206.637 165.165 206.699 164.85 206.699 164.498C206.699 163.814 206.491 163.316 206.074 163.004C205.658 162.691 205.046 162.535 204.238 162.535C203.809 162.535 203.366 162.577 202.91 162.662C202.454 162.747 201.966 162.874 201.445 163.043V161.559C201.667 161.48 201.901 161.412 202.148 161.354C202.402 161.288 202.653 161.236 202.9 161.197C203.154 161.152 203.405 161.119 203.652 161.1C203.9 161.074 204.137 161.061 204.365 161.061C205.042 161.061 205.638 161.135 206.152 161.285C206.667 161.428 207.096 161.637 207.441 161.91C207.786 162.184 208.047 162.516 208.223 162.906C208.398 163.297 208.486 163.736 208.486 164.225C208.486 164.954 208.298 165.566 207.92 166.061C207.549 166.555 207.038 166.949 206.387 167.242C206.719 167.294 207.044 167.398 207.363 167.555C207.689 167.711 207.979 167.913 208.232 168.16C208.493 168.401 208.701 168.688 208.857 169.02C209.02 169.352 209.102 169.719 209.102 170.123Z" fill="black" fill-opacity="0.3"/>
<path d="M267.98 171.178H265.803V174H264.064V171.178H257.922V169.684L263.361 161.236H265.803V169.684H267.98V171.178ZM264.064 162.877L259.621 169.684H264.064V162.877Z" fill="black" fill-opacity="0.3"/>
<path d="M326.023 169.918C326.023 170.549 325.887 171.126 325.613 171.646C325.34 172.167 324.962 172.617 324.48 172.994C324.005 173.365 323.442 173.655 322.791 173.863C322.14 174.072 321.437 174.176 320.682 174.176C320.493 174.176 320.288 174.169 320.066 174.156C319.852 174.15 319.637 174.137 319.422 174.117C319.207 174.104 318.995 174.088 318.787 174.068C318.585 174.049 318.403 174.026 318.24 174V172.457C318.592 172.542 318.992 172.604 319.441 172.643C319.897 172.682 320.356 172.701 320.818 172.701C321.339 172.701 321.808 172.639 322.225 172.516C322.641 172.392 322.996 172.216 323.289 171.988C323.582 171.754 323.807 171.474 323.963 171.148C324.119 170.816 324.197 170.445 324.197 170.035C324.197 169.241 323.911 168.665 323.338 168.307C322.771 167.942 321.954 167.76 320.887 167.76H318.465V161.236H325.34V162.721H320.066V166.305H321.18C321.792 166.305 322.387 166.36 322.967 166.471C323.546 166.581 324.061 166.777 324.51 167.057C324.965 167.33 325.33 167.701 325.604 168.17C325.883 168.632 326.023 169.215 326.023 169.918Z" fill="black" fill-opacity="0.3"/>
<rect x="381" y="58" width="28" height="28" rx="6" stroke="black" stroke-width="2"/>
<path d="M394.404 69.6016H391.504V68.1953H396.123V76.584H399.043V78H391.182V76.584H394.404V69.6016ZM395 64.084C395.189 64.084 395.365 64.1198 395.527 64.1914C395.69 64.2565 395.83 64.3509 395.947 64.4746C396.071 64.5983 396.165 64.7415 396.23 64.9043C396.302 65.0605 396.338 65.2331 396.338 65.4219C396.338 65.6042 396.302 65.7767 396.23 65.9395C396.165 66.1022 396.071 66.2454 395.947 66.3691C395.83 66.4928 395.69 66.5905 395.527 66.6621C395.365 66.7272 395.189 66.7598 395 66.7598C394.811 66.7598 394.635 66.7272 394.473 66.6621C394.31 66.5905 394.167 66.4928 394.043 66.3691C393.926 66.2454 393.831 66.1022 393.76 65.9395C393.695 65.7767 393.662 65.6042 393.662 65.4219C393.662 65.2331 393.695 65.0605 393.76 64.9043C393.831 64.7415 393.926 64.5983 394.043 64.4746C394.167 64.3509 394.31 64.2565 394.473 64.1914C394.635 64.1198 394.811 64.084 395 64.084Z" fill="black"/>
<path d="M394.293 114.707C394.683 115.098 395.317 115.098 395.707 114.707L402.071 108.343C402.462 107.953 402.462 107.319 402.071 106.929C401.681 106.538 401.047 106.538 400.657 106.929L395 112.586L389.343 106.929C388.953 106.538 388.319 106.538 387.929 106.929C387.538 107.319 387.538 107.953 387.929 108.343L394.293 114.707ZM394 87L394 114L396 114L396 87L394 87Z" fill="black"/>
<path d="M486.8 12C486.8 5.81441 491.814 0.8 498 0.8H547C553.186 0.8 558.2 5.81441 558.2 12V40C558.2 41.7673 556.767 43.2 555 43.2H490C488.233 43.2 486.8 41.7673 486.8 40V12Z" fill="#FAF0FF" stroke="#AE0DFF" stroke-width="1.6"/>
<rect x="438.5" y="8.5" width="57" height="26" rx="1.5" fill="white" stroke="black"/>
<path d="M528.061 16.4639L521.104 31H518.577L525.801 16.4639H516.838V14.4072H528.061V16.4639Z" fill="black"/>
<path d="M454.266 29V20.5508C454.266 20.1836 454.25 19.8828 454.219 19.6484C454.195 19.4141 454.152 19.2305 454.09 19.0977C454.035 18.957 453.961 18.8594 453.867 18.8047C453.781 18.75 453.672 18.7227 453.539 18.7227C453.383 18.7227 453.238 18.7695 453.105 18.8633C452.973 18.957 452.828 19.1094 452.672 19.3203C452.523 19.5312 452.355 19.8125 452.168 20.1641C451.988 20.5078 451.773 20.9336 451.523 21.4414V29H449.66V20.7734C449.66 20.3438 449.645 19.9961 449.613 19.7305C449.59 19.4648 449.547 19.2578 449.484 19.1094C449.43 18.9609 449.355 18.8594 449.262 18.8047C449.168 18.75 449.055 18.7227 448.922 18.7227C448.781 18.7227 448.648 18.7617 448.523 18.8398C448.398 18.918 448.258 19.0586 448.102 19.2617C447.953 19.4648 447.785 19.7422 447.598 20.0938C447.41 20.4453 447.188 20.8945 446.93 21.4414V29H445.055V17.2344H446.613L446.707 19.4727C446.91 19.0273 447.105 18.6484 447.293 18.3359C447.488 18.0234 447.688 17.7734 447.891 17.5859C448.094 17.3906 448.309 17.25 448.535 17.1641C448.77 17.0703 449.027 17.0234 449.309 17.0234C449.941 17.0234 450.422 17.2305 450.75 17.6445C451.078 18.0586 451.242 18.6992 451.242 19.5664C451.43 19.1602 451.613 18.8008 451.793 18.4883C451.973 18.168 452.164 17.9023 452.367 17.6914C452.578 17.4727 452.809 17.3086 453.059 17.1992C453.309 17.082 453.598 17.0234 453.926 17.0234C455.402 17.0234 456.141 18.1602 456.141 20.4336V29H454.266ZM462.118 18.9219H458.638V17.2344H464.181V27.3008H467.685V29H458.251V27.3008H462.118V18.9219ZM462.833 12.3008C463.06 12.3008 463.27 12.3438 463.466 12.4297C463.661 12.5078 463.829 12.6211 463.97 12.7695C464.118 12.918 464.231 13.0898 464.31 13.2852C464.395 13.4727 464.438 13.6797 464.438 13.9062C464.438 14.125 464.395 14.332 464.31 14.5273C464.231 14.7227 464.118 14.8945 463.97 15.043C463.829 15.1914 463.661 15.3086 463.466 15.3945C463.27 15.4727 463.06 15.5117 462.833 15.5117C462.606 15.5117 462.395 15.4727 462.2 15.3945C462.005 15.3086 461.833 15.1914 461.685 15.043C461.544 14.8945 461.431 14.7227 461.345 14.5273C461.267 14.332 461.227 14.125 461.227 13.9062C461.227 13.6797 461.267 13.4727 461.345 13.2852C461.431 13.0898 461.544 12.918 461.685 12.7695C461.833 12.6211 462.005 12.5078 462.2 12.4297C462.395 12.3438 462.606 12.3008 462.833 12.3008ZM470.346 17.2344H472.162L472.244 19.1328C472.588 18.7266 472.92 18.3906 473.24 18.125C473.56 17.8516 473.873 17.6328 474.178 17.4688C474.49 17.3047 474.807 17.1914 475.127 17.1289C475.447 17.0586 475.779 17.0234 476.123 17.0234C477.334 17.0234 478.248 17.3828 478.865 18.1016C479.49 18.8125 479.803 19.8867 479.803 21.3242V29H477.764V21.4883C477.764 20.5664 477.592 19.8867 477.248 19.4492C476.904 19.0039 476.392 18.7812 475.713 18.7812C475.463 18.7812 475.217 18.8203 474.975 18.8984C474.74 18.9688 474.494 19.0977 474.236 19.2852C473.978 19.4648 473.697 19.7109 473.392 20.0234C473.096 20.3359 472.76 20.7266 472.385 21.1953V29H470.346V17.2344ZM487.304 17.0234C487.546 17.0234 487.776 17.0742 487.995 17.1758C488.214 17.2695 488.405 17.3984 488.569 17.5625C488.733 17.7266 488.862 17.918 488.956 18.1367C489.057 18.3555 489.108 18.5859 489.108 18.8281C489.108 19.0781 489.057 19.3125 488.956 19.5312C488.862 19.7422 488.733 19.9297 488.569 20.0938C488.405 20.2578 488.214 20.3867 487.995 20.4805C487.776 20.5742 487.546 20.6211 487.304 20.6211C487.054 20.6211 486.819 20.5742 486.6 20.4805C486.39 20.3867 486.202 20.2578 486.038 20.0938C485.874 19.9297 485.745 19.7422 485.651 19.5312C485.557 19.3125 485.511 19.0781 485.511 18.8281C485.511 18.5859 485.557 18.3555 485.651 18.1367C485.745 17.918 485.874 17.7266 486.038 17.5625C486.202 17.3984 486.39 17.2695 486.6 17.1758C486.819 17.0742 487.054 17.0234 487.304 17.0234ZM487.304 25.6133C487.546 25.6133 487.776 25.6641 487.995 25.7656C488.214 25.8594 488.405 25.9883 488.569 26.1523C488.733 26.3164 488.862 26.5078 488.956 26.7266C489.057 26.9453 489.108 27.1758 489.108 27.418C489.108 27.668 489.057 27.9023 488.956 28.1211C488.862 28.332 488.733 28.5195 488.569 28.6836C488.405 28.8477 488.214 28.9766 487.995 29.0703C487.776 29.1641 487.546 29.2109 487.304 29.2109C487.054 29.2109 486.819 29.1641 486.6 29.0703C486.39 28.9766 486.202 28.8477 486.038 28.6836C485.874 28.5195 485.745 28.332 485.651 28.1211C485.557 27.9023 485.511 27.668 485.511 27.418C485.511 27.1758 485.557 26.9453 485.651 26.7266C485.745 26.5078 485.874 26.3164 486.038 26.1523C486.202 25.9883 486.39 25.8594 486.6 25.7656C486.819 25.6641 487.054 25.6133 487.304 25.6133Z" fill="#AE0DFF"/>
<path d="M485.371 54.1288C485.761 52.7511 487.018 51.8 488.45 51.8H556.55C557.982 51.8 559.239 52.7511 559.629 54.1288L583.911 139.951C585.933 147.099 580.563 154.2 573.134 154.2H471.866C464.437 154.2 459.067 147.099 461.089 139.951L485.371 54.1288Z" fill="white" stroke="#AE0DFF" stroke-width="1.6"/>
<path d="M476.441 176V166.847C476.441 166.449 476.424 166.123 476.391 165.869C476.365 165.615 476.319 165.416 476.251 165.272C476.192 165.12 476.111 165.014 476.01 164.955C475.917 164.896 475.798 164.866 475.654 164.866C475.485 164.866 475.328 164.917 475.185 165.019C475.041 165.12 474.884 165.285 474.715 165.514C474.554 165.742 474.372 166.047 474.169 166.428C473.974 166.8 473.742 167.261 473.471 167.812V176H471.452V167.088C471.452 166.622 471.435 166.246 471.401 165.958C471.376 165.67 471.329 165.446 471.262 165.285C471.202 165.124 471.122 165.014 471.021 164.955C470.919 164.896 470.796 164.866 470.652 164.866C470.5 164.866 470.356 164.909 470.221 164.993C470.085 165.078 469.933 165.23 469.764 165.45C469.603 165.67 469.421 165.971 469.218 166.352C469.015 166.732 468.773 167.219 468.494 167.812V176H466.463V163.254H468.151L468.253 165.679C468.473 165.196 468.685 164.786 468.888 164.447C469.099 164.109 469.315 163.838 469.535 163.635C469.755 163.423 469.988 163.271 470.233 163.178C470.487 163.076 470.767 163.025 471.071 163.025C471.757 163.025 472.277 163.25 472.633 163.698C472.988 164.147 473.166 164.841 473.166 165.78C473.369 165.34 473.568 164.951 473.763 164.612C473.957 164.265 474.165 163.978 474.385 163.749C474.613 163.512 474.863 163.334 475.134 163.216C475.405 163.089 475.718 163.025 476.073 163.025C477.673 163.025 478.473 164.257 478.473 166.72V176H476.441ZM485.988 165.082H482.218V163.254H488.223V174.159H492.019V176H481.799V174.159H485.988V165.082ZM486.763 157.909C487.008 157.909 487.237 157.956 487.448 158.049C487.66 158.133 487.842 158.256 487.994 158.417C488.155 158.578 488.278 158.764 488.362 158.976C488.455 159.179 488.502 159.403 488.502 159.648C488.502 159.885 488.455 160.11 488.362 160.321C488.278 160.533 488.155 160.719 487.994 160.88C487.842 161.041 487.66 161.168 487.448 161.261C487.237 161.345 487.008 161.388 486.763 161.388C486.517 161.388 486.289 161.345 486.077 161.261C485.866 161.168 485.679 161.041 485.519 160.88C485.366 160.719 485.243 160.533 485.15 160.321C485.066 160.11 485.023 159.885 485.023 159.648C485.023 159.403 485.066 159.179 485.15 158.976C485.243 158.764 485.366 158.578 485.519 158.417C485.679 158.256 485.866 158.133 486.077 158.049C486.289 157.956 486.517 157.909 486.763 157.909ZM495.941 163.254H497.909L497.998 165.311C498.37 164.87 498.73 164.507 499.077 164.219C499.424 163.923 499.763 163.686 500.093 163.508C500.431 163.33 500.774 163.207 501.121 163.14C501.468 163.063 501.828 163.025 502.2 163.025C503.512 163.025 504.502 163.415 505.171 164.193C505.848 164.964 506.187 166.127 506.187 167.685V176H503.978V167.862C503.978 166.864 503.791 166.127 503.419 165.653C503.047 165.171 502.492 164.93 501.756 164.93C501.485 164.93 501.218 164.972 500.956 165.057C500.702 165.133 500.436 165.272 500.156 165.476C499.877 165.67 499.572 165.937 499.242 166.275C498.921 166.614 498.557 167.037 498.15 167.545V176H495.941V163.254ZM522.5 181.205H508.205V179.377H522.5V181.205ZM534.776 176H532.567V167.862C532.567 166.881 532.381 166.148 532.009 165.666C531.645 165.175 531.12 164.93 530.435 164.93C530.138 164.93 529.859 164.972 529.597 165.057C529.343 165.133 529.076 165.272 528.797 165.476C528.518 165.67 528.213 165.937 527.883 166.275C527.553 166.614 527.172 167.037 526.74 167.545V176H524.531V158.062H526.74V163.254L526.664 165.26C527.011 164.845 527.35 164.498 527.68 164.219C528.018 163.931 528.353 163.698 528.683 163.521C529.021 163.343 529.364 163.216 529.711 163.14C530.058 163.063 530.418 163.025 530.79 163.025C532.06 163.025 533.041 163.415 533.735 164.193C534.429 164.964 534.776 166.127 534.776 167.685V176ZM549.592 168.954C549.592 169.267 549.588 169.53 549.579 169.741C549.571 169.953 549.558 170.152 549.541 170.338H540.591C540.591 171.641 540.955 172.644 541.683 173.347C542.41 174.041 543.46 174.388 544.831 174.388C545.203 174.388 545.576 174.375 545.948 174.35C546.321 174.316 546.68 174.273 547.027 174.223C547.374 174.172 547.704 174.117 548.018 174.058C548.339 173.99 548.635 173.918 548.906 173.842V175.657C548.305 175.826 547.624 175.962 546.862 176.063C546.109 176.174 545.326 176.229 544.514 176.229C543.422 176.229 542.482 176.08 541.695 175.784C540.908 175.488 540.261 175.061 539.753 174.502C539.254 173.935 538.881 173.245 538.636 172.433C538.399 171.612 538.28 170.685 538.28 169.652C538.28 168.755 538.407 167.909 538.661 167.113C538.924 166.309 539.3 165.607 539.791 165.006C540.29 164.396 540.9 163.914 541.619 163.559C542.339 163.203 543.155 163.025 544.069 163.025C544.958 163.025 545.745 163.165 546.431 163.444C547.116 163.724 547.692 164.121 548.157 164.638C548.631 165.146 548.987 165.768 549.224 166.504C549.469 167.232 549.592 168.049 549.592 168.954ZM547.294 168.637C547.319 168.07 547.264 167.553 547.129 167.088C546.993 166.614 546.782 166.208 546.494 165.869C546.215 165.531 545.864 165.268 545.44 165.082C545.017 164.887 544.526 164.79 543.968 164.79C543.485 164.79 543.045 164.883 542.647 165.069C542.25 165.256 541.907 165.518 541.619 165.856C541.331 166.195 541.099 166.601 540.921 167.075C540.743 167.549 540.633 168.07 540.591 168.637H547.294ZM561.31 176L561.259 174.286C560.565 174.972 559.858 175.467 559.139 175.771C558.428 176.076 557.679 176.229 556.892 176.229C556.164 176.229 555.542 176.135 555.025 175.949C554.509 175.763 554.082 175.509 553.743 175.188C553.413 174.857 553.168 174.472 553.007 174.032C552.854 173.592 552.778 173.114 552.778 172.598C552.778 171.32 553.252 170.321 554.2 169.602C555.157 168.874 556.566 168.51 558.428 168.51H561.068V167.393C561.068 166.639 560.827 166.038 560.345 165.59C559.862 165.133 559.126 164.904 558.136 164.904C557.416 164.904 556.705 164.985 556.003 165.146C555.309 165.306 554.59 165.535 553.845 165.831V163.838C554.124 163.736 554.433 163.639 554.771 163.546C555.118 163.444 555.482 163.355 555.863 163.279C556.244 163.203 556.642 163.144 557.057 163.102C557.471 163.051 557.89 163.025 558.313 163.025C559.084 163.025 559.778 163.11 560.396 163.279C561.013 163.449 561.534 163.707 561.957 164.054C562.389 164.401 562.719 164.837 562.947 165.361C563.176 165.886 563.29 166.504 563.29 167.215V176H561.31ZM561.068 170.198H558.263C557.713 170.198 557.239 170.253 556.841 170.363C556.443 170.473 556.117 170.63 555.863 170.833C555.609 171.036 555.419 171.282 555.292 171.569C555.174 171.849 555.114 172.166 555.114 172.521C555.114 172.767 555.152 173.004 555.229 173.232C555.305 173.452 555.427 173.651 555.597 173.829C555.766 173.998 555.986 174.134 556.257 174.235C556.528 174.337 556.858 174.388 557.247 174.388C557.755 174.388 558.335 174.235 558.986 173.931C559.646 173.618 560.34 173.127 561.068 172.458V170.198ZM578.309 169.398C578.309 170.533 578.148 171.523 577.826 172.369C577.513 173.215 577.077 173.918 576.519 174.477C575.96 175.035 575.3 175.454 574.538 175.733C573.776 176.013 572.951 176.152 572.062 176.152C571.656 176.152 571.25 176.131 570.844 176.089C570.446 176.047 570.04 175.975 569.625 175.873V181.205H567.416V163.254H569.384L569.523 165.387C570.158 164.515 570.835 163.906 571.555 163.559C572.274 163.203 573.053 163.025 573.891 163.025C574.618 163.025 575.257 163.178 575.808 163.482C576.358 163.787 576.819 164.219 577.191 164.777C577.564 165.327 577.843 165.996 578.029 166.783C578.215 167.562 578.309 168.434 578.309 169.398ZM576.049 169.5C576.049 168.831 575.998 168.218 575.896 167.659C575.803 167.101 575.651 166.622 575.439 166.225C575.228 165.827 574.957 165.518 574.627 165.298C574.297 165.069 573.903 164.955 573.446 164.955C573.167 164.955 572.883 165.002 572.596 165.095C572.308 165.179 572.007 165.327 571.694 165.539C571.39 165.742 571.064 166.017 570.717 166.364C570.378 166.703 570.014 167.126 569.625 167.634V173.816C570.031 173.986 570.459 174.121 570.907 174.223C571.356 174.316 571.796 174.362 572.228 174.362C573.421 174.362 574.356 173.96 575.033 173.156C575.71 172.344 576.049 171.125 576.049 169.5Z" fill="black"/>
<path d="M510.061 88.7705C510.061 90.387 509.866 91.7793 509.477 92.9473C509.087 94.1068 508.512 95.0632 507.75 95.8164C506.988 96.5612 506.045 97.1113 504.919 97.4668C503.793 97.8223 502.494 98 501.021 98H499.638V96.0703H501.174C502.266 96.0703 503.209 95.9603 504.005 95.7402C504.8 95.5202 505.461 95.1986 505.985 94.7754C506.519 94.3438 506.925 93.8232 507.204 93.2139C507.483 92.596 507.657 91.8936 507.725 91.1064L507.775 90.5859C507.242 90.8991 506.629 91.153 505.935 91.3477C505.241 91.5339 504.487 91.627 503.675 91.627C502.837 91.627 502.101 91.5042 501.466 91.2588C500.831 91.0133 500.302 90.6706 499.879 90.2305C499.464 89.7904 499.151 89.2699 498.939 88.6689C498.728 88.0596 498.622 87.3994 498.622 86.6885C498.622 85.9183 498.762 85.1989 499.041 84.5303C499.32 83.8617 499.71 83.2819 500.209 82.791C500.717 82.2917 501.322 81.8981 502.024 81.6104C502.727 81.3226 503.501 81.1787 504.348 81.1787C505.169 81.1787 505.926 81.3141 506.62 81.585C507.323 81.8558 507.928 82.2959 508.436 82.9053C508.943 83.5062 509.341 84.2891 509.629 85.2539C509.917 86.2188 510.061 87.391 510.061 88.7705ZM504.246 82.9941C503.772 82.9941 503.332 83.0745 502.926 83.2354C502.528 83.3877 502.181 83.6162 501.885 83.9209C501.597 84.2171 501.368 84.5853 501.199 85.0254C501.03 85.4655 500.945 85.9691 500.945 86.5361C500.945 87.0524 501.005 87.5137 501.123 87.9199C501.25 88.3262 501.44 88.6732 501.694 88.9609C501.957 89.2402 502.291 89.4561 502.697 89.6084C503.104 89.7607 503.586 89.8369 504.145 89.8369C504.458 89.8369 504.779 89.8073 505.109 89.748C505.448 89.6888 505.774 89.6084 506.087 89.5068C506.409 89.4053 506.713 89.2868 507.001 89.1514C507.289 89.016 507.547 88.8721 507.775 88.7197C507.775 87.6279 507.695 86.7181 507.534 85.9902C507.373 85.2539 507.141 84.6657 506.836 84.2256C506.531 83.777 506.159 83.4596 505.719 83.2734C505.287 83.0872 504.796 82.9941 504.246 82.9941Z" fill="black"/>
<path d="M538.862 131H528.439V128.943H532.705V116.832L528.731 118.99L527.919 117.111L533.2 114.331H535.155V128.943H538.862V131ZM553.678 122.71C553.678 123.979 553.551 125.139 553.297 126.188C553.043 127.229 552.658 128.127 552.142 128.88C551.625 129.625 550.982 130.204 550.212 130.619C549.45 131.025 548.553 131.229 547.521 131.229C546.632 131.229 545.824 131.063 545.096 130.733C544.368 130.395 543.746 129.879 543.229 129.185C542.713 128.491 542.315 127.606 542.036 126.531C541.757 125.456 541.617 124.183 541.617 122.71C541.617 121.44 541.744 120.281 541.998 119.231C542.26 118.182 542.646 117.285 543.153 116.54C543.67 115.787 544.313 115.207 545.083 114.801C545.853 114.386 546.75 114.179 547.774 114.179C548.663 114.179 549.471 114.348 550.199 114.687C550.927 115.017 551.549 115.533 552.065 116.235C552.582 116.929 552.979 117.814 553.259 118.889C553.538 119.964 553.678 121.237 553.678 122.71ZM551.443 122.786C551.443 122.498 551.431 122.215 551.405 121.936C551.388 121.648 551.367 121.368 551.342 121.098L544.321 126.315C544.448 126.756 544.609 127.162 544.804 127.534C544.998 127.907 545.231 128.228 545.502 128.499C545.781 128.761 546.094 128.969 546.441 129.121C546.797 129.265 547.199 129.337 547.647 129.337C548.223 129.337 548.743 129.197 549.209 128.918C549.683 128.639 550.085 128.224 550.415 127.674C550.745 127.124 550.999 126.442 551.177 125.63C551.354 124.809 551.443 123.861 551.443 122.786ZM543.852 122.634C543.852 122.896 543.852 123.159 543.852 123.421C543.86 123.683 543.877 123.937 543.902 124.183L550.923 118.99C550.796 118.559 550.635 118.165 550.44 117.81C550.246 117.454 550.013 117.149 549.742 116.896C549.471 116.633 549.162 116.43 548.815 116.286C548.468 116.142 548.079 116.07 547.647 116.07C547.072 116.07 546.547 116.21 546.073 116.489C545.608 116.769 545.21 117.188 544.88 117.746C544.55 118.296 544.296 118.982 544.118 119.803C543.94 120.615 543.852 121.559 543.852 122.634Z" fill="black"/>
<path d="M378.945 122.675C379.476 122.827 380.03 122.521 380.182 121.99L382.667 113.34C382.82 112.809 382.513 112.255 381.982 112.102C381.451 111.95 380.898 112.257 380.745 112.787L378.536 120.476L370.847 118.268C370.316 118.115 369.762 118.422 369.61 118.953C369.457 119.483 369.764 120.037 370.295 120.19L378.945 122.675ZM332.022 122.313C332.948 121.075 333.938 119.948 334.982 118.927L333.583 117.497C332.466 118.591 331.408 119.795 330.42 121.115L332.022 122.313ZM342.29 113.778C345.033 112.442 347.932 111.582 350.857 111.147L350.563 109.169C347.449 109.632 344.353 110.549 341.414 111.979L342.29 113.778ZM359.847 111.104C362.909 111.523 365.837 112.375 368.47 113.588L369.307 111.772C366.488 110.472 363.368 109.568 360.119 109.123L359.847 111.104ZM375.739 118.671C376.773 119.762 377.651 120.942 378.346 122.198L380.096 121.229C379.312 119.814 378.331 118.498 377.191 117.295L375.739 118.671ZM378.945 122.675C379.476 122.827 380.03 122.521 380.182 121.99L382.667 113.34C382.82 112.809 382.513 112.255 381.982 112.102C381.451 111.95 380.898 112.257 380.745 112.787L378.536 120.476L370.847 118.268C370.316 118.115 369.762 118.422 369.61 118.953C369.457 119.483 369.764 120.037 370.295 120.19L378.945 122.675ZM332.022 122.313C332.948 121.075 333.938 119.948 334.982 118.927L333.583 117.497C332.466 118.591 331.408 119.795 330.42 121.115L332.022 122.313ZM342.29 113.778C345.033 112.442 347.932 111.582 350.857 111.147L350.563 109.169C347.449 109.632 344.353 110.549 341.414 111.979L342.29 113.778ZM359.847 111.104C362.909 111.523 365.837 112.375 368.47 113.588L369.307 111.772C366.488 110.472 363.368 109.568 360.119 109.123L359.847 111.104ZM375.739 118.671C376.773 119.762 377.651 120.942 378.346 122.198L380.096 121.229C379.312 119.814 378.331 118.498 377.191 117.295L375.739 118.671Z" fill="black"/>
<path d="M195.945 122.675C196.476 122.827 197.03 122.521 197.182 121.99L199.667 113.34C199.82 112.809 199.513 112.255 198.982 112.102C198.451 111.95 197.898 112.257 197.745 112.787L195.536 120.476L187.847 118.268C187.316 118.115 186.762 118.422 186.61 118.953C186.457 119.483 186.764 120.037 187.295 120.19L195.945 122.675ZM149.022 122.313C149.948 121.075 150.938 119.948 151.982 118.927L150.583 117.497C149.466 118.591 148.408 119.795 147.42 121.115L149.022 122.313ZM159.29 113.778C162.033 112.442 164.932 111.582 167.857 111.147L167.563 109.169C164.449 109.632 161.353 110.549 158.414 111.979L159.29 113.778ZM176.847 111.104C179.909 111.523 182.837 112.375 185.47 113.588L186.307 111.772C183.488 110.472 180.368 109.568 177.119 109.123L176.847 111.104ZM192.739 118.671C193.773 119.762 194.651 120.942 195.346 122.198L197.096 121.229C196.312 119.814 195.331 118.498 194.191 117.295L192.739 118.671ZM195.945 122.675C196.476 122.827 197.03 122.521 197.182 121.99L199.667 113.34C199.82 112.809 199.513 112.255 198.982 112.102C198.451 111.95 197.898 112.257 197.745 112.787L195.536 120.476L187.847 118.268C187.316 118.115 186.762 118.422 186.61 118.953C186.457 119.483 186.764 120.037 187.295 120.19L195.945 122.675ZM149.022 122.313C149.948 121.075 150.938 119.948 151.982 118.927L150.583 117.497C149.466 118.591 148.408 119.795 147.42 121.115L149.022 122.313ZM159.29 113.778C162.033 112.442 164.932 111.582 167.857 111.147L167.563 109.169C164.449 109.632 161.353 110.549 158.414 111.979L159.29 113.778ZM176.847 111.104C179.909 111.523 182.837 112.375 185.47 113.588L186.307 111.772C183.488 110.472 180.368 109.568 177.119 109.123L176.847 111.104ZM192.739 118.671C193.773 119.762 194.651 120.942 195.346 122.198L197.096 121.229C196.312 119.814 195.331 118.498 194.191 117.295L192.739 118.671Z" fill="black"/>
<path d="M146.926 69.6016H144.025V68.1953H148.645V76.584H151.564V78H143.703V76.584H146.926V69.6016ZM147.521 64.084C147.71 64.084 147.886 64.1198 148.049 64.1914C148.212 64.2565 148.352 64.3509 148.469 64.4746C148.592 64.5983 148.687 64.7415 148.752 64.9043C148.824 65.0605 148.859 65.2331 148.859 65.4219C148.859 65.6042 148.824 65.7767 148.752 65.9395C148.687 66.1022 148.592 66.2454 148.469 66.3691C148.352 66.4928 148.212 66.5905 148.049 66.6621C147.886 66.7272 147.71 66.7598 147.521 66.7598C147.333 66.7598 147.157 66.7272 146.994 66.6621C146.831 66.5905 146.688 66.4928 146.564 66.3691C146.447 66.2454 146.353 66.1022 146.281 65.9395C146.216 65.7767 146.184 65.6042 146.184 65.4219C146.184 65.2331 146.216 65.0605 146.281 64.9043C146.353 64.7415 146.447 64.5983 146.564 64.4746C146.688 64.3509 146.831 64.2565 146.994 64.1914C147.157 64.1198 147.333 64.084 147.521 64.084ZM154.582 68.1953H156.096L156.164 69.7773C156.451 69.4388 156.727 69.1589 156.994 68.9375C157.261 68.7096 157.521 68.5273 157.775 68.3906C158.036 68.2539 158.299 68.1595 158.566 68.1074C158.833 68.0488 159.11 68.0195 159.396 68.0195C160.406 68.0195 161.167 68.319 161.682 68.918C162.202 69.5104 162.463 70.4056 162.463 71.6035V78H160.764V71.7402C160.764 70.972 160.62 70.4056 160.334 70.041C160.048 69.6699 159.621 69.4844 159.055 69.4844C158.846 69.4844 158.641 69.5169 158.439 69.582C158.244 69.6406 158.039 69.748 157.824 69.9043C157.609 70.054 157.375 70.2591 157.121 70.5195C156.874 70.7799 156.594 71.1055 156.281 71.4961V78H154.582V68.1953ZM173.342 75.3242C173.342 75.6693 173.283 75.9785 173.166 76.252C173.049 76.5254 172.889 76.7695 172.688 76.9844C172.486 77.1927 172.251 77.3717 171.984 77.5215C171.717 77.6712 171.431 77.7949 171.125 77.8926C170.826 77.9902 170.516 78.0618 170.197 78.1074C169.878 78.153 169.566 78.1758 169.26 78.1758C168.596 78.1758 167.984 78.1465 167.424 78.0879C166.87 78.0293 166.327 77.9349 165.793 77.8047V76.2422C166.366 76.4049 166.936 76.5286 167.502 76.6133C168.068 76.6979 168.632 76.7402 169.191 76.7402C170.005 76.7402 170.607 76.6296 170.998 76.4082C171.389 76.1868 171.584 75.8711 171.584 75.4609C171.584 75.2852 171.551 75.1289 171.486 74.9922C171.428 74.849 171.317 74.7155 171.154 74.5918C170.992 74.4616 170.738 74.3281 170.393 74.1914C170.054 74.0547 169.589 73.8984 168.996 73.7227C168.553 73.5924 168.143 73.446 167.766 73.2832C167.395 73.1139 167.072 72.9154 166.799 72.6875C166.525 72.4596 166.311 72.1927 166.154 71.8867C165.998 71.5807 165.92 71.2194 165.92 70.8027C165.92 70.5293 165.982 70.2298 166.105 69.9043C166.236 69.5788 166.454 69.276 166.76 68.9961C167.066 68.7161 167.479 68.485 168 68.3027C168.521 68.1139 169.172 68.0195 169.953 68.0195C170.337 68.0195 170.764 68.0423 171.232 68.0879C171.701 68.127 172.189 68.1986 172.697 68.3027V69.8164C172.163 69.6862 171.656 69.5918 171.174 69.5332C170.699 69.4681 170.285 69.4355 169.934 69.4355C169.51 69.4355 169.152 69.4681 168.859 69.5332C168.573 69.5983 168.339 69.6895 168.156 69.8066C167.98 69.9173 167.854 70.0508 167.775 70.207C167.697 70.3568 167.658 70.5195 167.658 70.6953C167.658 70.8711 167.691 71.0306 167.756 71.1738C167.827 71.3171 167.954 71.457 168.137 71.5938C168.326 71.724 168.586 71.8574 168.918 71.9941C169.25 72.1243 169.683 72.2676 170.217 72.4238C170.796 72.5931 171.285 72.7721 171.682 72.9609C172.079 73.1432 172.401 73.3483 172.648 73.5762C172.896 73.804 173.072 74.0612 173.176 74.3477C173.286 74.6341 173.342 74.9596 173.342 75.3242ZM184.855 72.5801C184.855 72.821 184.852 73.0228 184.846 73.1855C184.839 73.3483 184.829 73.5013 184.816 73.6445H177.932C177.932 74.6471 178.212 75.4186 178.771 75.959C179.331 76.4928 180.139 76.7598 181.193 76.7598C181.48 76.7598 181.766 76.75 182.053 76.7305C182.339 76.7044 182.616 76.6719 182.883 76.6328C183.15 76.5938 183.404 76.5514 183.645 76.5059C183.892 76.4538 184.12 76.3984 184.328 76.3398V77.7363C183.866 77.8665 183.342 77.9707 182.756 78.0488C182.176 78.1335 181.574 78.1758 180.949 78.1758C180.109 78.1758 179.387 78.0618 178.781 77.834C178.176 77.6061 177.678 77.2773 177.287 76.8477C176.903 76.4115 176.617 75.8809 176.428 75.2559C176.245 74.6243 176.154 73.9115 176.154 73.1172C176.154 72.4271 176.252 71.776 176.447 71.1641C176.649 70.5456 176.939 70.0052 177.316 69.543C177.701 69.0742 178.169 68.7031 178.723 68.4297C179.276 68.1562 179.904 68.0195 180.607 68.0195C181.291 68.0195 181.896 68.127 182.424 68.3418C182.951 68.5566 183.394 68.8626 183.752 69.2598C184.117 69.6504 184.39 70.1289 184.572 70.6953C184.761 71.2552 184.855 71.8835 184.855 72.5801ZM183.088 72.3359C183.107 71.8997 183.065 71.5026 182.961 71.1445C182.857 70.7799 182.694 70.4674 182.473 70.207C182.258 69.9466 181.988 69.7448 181.662 69.6016C181.337 69.4518 180.959 69.377 180.529 69.377C180.158 69.377 179.82 69.4486 179.514 69.5918C179.208 69.735 178.944 69.9368 178.723 70.1973C178.501 70.4577 178.322 70.7702 178.186 71.1348C178.049 71.4993 177.964 71.8997 177.932 72.3359H183.088ZM187.971 68.1953H189.523L189.572 70.002C190.152 69.3053 190.721 68.8008 191.281 68.4883C191.848 68.1758 192.417 68.0195 192.99 68.0195C194.006 68.0195 194.774 68.3483 195.295 69.0059C195.822 69.6634 196.066 70.64 196.027 71.9355H194.309C194.328 71.0762 194.201 70.4544 193.928 70.0703C193.661 69.6797 193.267 69.4844 192.746 69.4844C192.518 69.4844 192.287 69.5267 192.053 69.6113C191.825 69.6895 191.587 69.8197 191.34 70.002C191.099 70.1777 190.842 70.4056 190.568 70.6855C190.295 70.9655 190.002 71.304 189.689 71.7012V78H187.971V68.1953ZM206.467 77.8633C206.083 77.9609 205.686 78.0293 205.275 78.0684C204.865 78.1139 204.449 78.1367 204.025 78.1367C202.795 78.1367 201.877 77.86 201.271 77.3066C200.666 76.7467 200.363 75.8906 200.363 74.7383V69.6211H197.619V68.1953H200.363V65.5L202.062 65.0605V68.1953H206.467V69.6211H202.062V74.6016C202.062 75.3047 202.248 75.832 202.619 76.1836C202.997 76.5286 203.55 76.7012 204.279 76.7012C204.592 76.7012 204.934 76.6784 205.305 76.6328C205.676 76.5807 206.063 76.5026 206.467 76.3984V77.8633ZM218.996 82.0039H208V80.5977H218.996V82.0039ZM223.898 69.6016H220.998V68.1953H225.617V76.584H228.537V78H220.676V76.584H223.898V69.6016ZM224.494 64.084C224.683 64.084 224.859 64.1198 225.021 64.1914C225.184 64.2565 225.324 64.3509 225.441 64.4746C225.565 64.5983 225.66 64.7415 225.725 64.9043C225.796 65.0605 225.832 65.2331 225.832 65.4219C225.832 65.6042 225.796 65.7767 225.725 65.9395C225.66 66.1022 225.565 66.2454 225.441 66.3691C225.324 66.4928 225.184 66.5905 225.021 66.6621C224.859 66.7272 224.683 66.7598 224.494 66.7598C224.305 66.7598 224.13 66.7272 223.967 66.6621C223.804 66.5905 223.661 66.4928 223.537 66.3691C223.42 66.2454 223.326 66.1022 223.254 65.9395C223.189 65.7767 223.156 65.6042 223.156 65.4219C223.156 65.2331 223.189 65.0605 223.254 64.9043C223.326 64.7415 223.42 64.5983 223.537 64.4746C223.661 64.3509 223.804 64.2565 223.967 64.1914C224.13 64.1198 224.305 64.084 224.494 64.084ZM231.555 68.1953H233.068L233.137 69.7773C233.423 69.4388 233.7 69.1589 233.967 68.9375C234.234 68.7096 234.494 68.5273 234.748 68.3906C235.008 68.2539 235.272 68.1595 235.539 68.1074C235.806 68.0488 236.083 68.0195 236.369 68.0195C237.378 68.0195 238.14 68.319 238.654 68.918C239.175 69.5104 239.436 70.4056 239.436 71.6035V78H237.736V71.7402C237.736 70.972 237.593 70.4056 237.307 70.041C237.02 69.6699 236.594 69.4844 236.027 69.4844C235.819 69.4844 235.614 69.5169 235.412 69.582C235.217 69.6406 235.012 69.748 234.797 69.9043C234.582 70.054 234.348 70.2591 234.094 70.5195C233.846 70.7799 233.566 71.1055 233.254 71.4961V78H231.555V68.1953ZM242.053 73.3027C242.053 72.4694 242.167 71.7305 242.395 71.0859C242.622 70.4349 242.945 69.888 243.361 69.4453C243.785 68.9961 244.289 68.6576 244.875 68.4297C245.467 68.1953 246.125 68.0781 246.848 68.0781C247.16 68.0781 247.466 68.0977 247.766 68.1367C248.072 68.1758 248.371 68.2376 248.664 68.3223V64.2012H250.373V78H248.85L248.791 76.1445C248.316 76.8346 247.801 77.3457 247.248 77.6777C246.695 78.0098 246.096 78.1758 245.451 78.1758C244.891 78.1758 244.396 78.0586 243.967 77.8242C243.544 77.5898 243.189 77.2611 242.902 76.8379C242.622 76.4082 242.411 75.8939 242.268 75.2949C242.124 74.696 242.053 74.0319 242.053 73.3027ZM243.791 73.1953C243.791 74.3802 243.964 75.2656 244.309 75.8516C244.66 76.431 245.155 76.7207 245.793 76.7207C246.223 76.7207 246.675 76.5286 247.15 76.1445C247.632 75.7604 248.137 75.1908 248.664 74.4355V69.8848C248.384 69.7546 248.075 69.6569 247.736 69.5918C247.398 69.5202 247.062 69.4844 246.73 69.4844C245.806 69.4844 245.083 69.7839 244.562 70.3828C244.048 70.9818 243.791 71.9193 243.791 73.1953ZM261.828 72.5801C261.828 72.821 261.825 73.0228 261.818 73.1855C261.812 73.3483 261.802 73.5013 261.789 73.6445H254.904C254.904 74.6471 255.184 75.4186 255.744 75.959C256.304 76.4928 257.111 76.7598 258.166 76.7598C258.452 76.7598 258.739 76.75 259.025 76.7305C259.312 76.7044 259.589 76.6719 259.855 76.6328C260.122 76.5938 260.376 76.5514 260.617 76.5059C260.865 76.4538 261.092 76.3984 261.301 76.3398V77.7363C260.839 77.8665 260.314 77.9707 259.729 78.0488C259.149 78.1335 258.547 78.1758 257.922 78.1758C257.082 78.1758 256.359 78.0618 255.754 77.834C255.148 77.6061 254.65 77.2773 254.26 76.8477C253.876 76.4115 253.589 75.8809 253.4 75.2559C253.218 74.6243 253.127 73.9115 253.127 73.1172C253.127 72.4271 253.225 71.776 253.42 71.1641C253.622 70.5456 253.911 70.0052 254.289 69.543C254.673 69.0742 255.142 68.7031 255.695 68.4297C256.249 68.1562 256.877 68.0195 257.58 68.0195C258.264 68.0195 258.869 68.127 259.396 68.3418C259.924 68.5566 260.367 68.8626 260.725 69.2598C261.089 69.6504 261.363 70.1289 261.545 70.6953C261.734 71.2552 261.828 71.8835 261.828 72.5801ZM260.061 72.3359C260.08 71.8997 260.038 71.5026 259.934 71.1445C259.829 70.7799 259.667 70.4674 259.445 70.207C259.23 69.9466 258.96 69.7448 258.635 69.6016C258.309 69.4518 257.932 69.377 257.502 69.377C257.131 69.377 256.792 69.4486 256.486 69.5918C256.18 69.735 255.917 69.9368 255.695 70.1973C255.474 70.4577 255.295 70.7702 255.158 71.1348C255.021 71.4993 254.937 71.8997 254.904 72.3359H260.061ZM273.381 78H271.125L268.479 74.2598L265.861 78H263.664L267.463 73.0781L263.84 68.1953H266.018L268.596 71.9648L271.125 68.1953H273.225L269.543 73.1172L273.381 78Z" fill="black"/>
<path d="M205.293 114.707C205.683 115.098 206.317 115.098 206.707 114.707L213.071 108.343C213.462 107.953 213.462 107.319 213.071 106.929C212.681 106.538 212.047 106.538 211.657 106.929L206 112.586L200.343 106.929C199.953 106.538 199.319 106.538 198.929 106.929C198.538 107.319 198.538 107.953 198.929 108.343L205.293 114.707ZM205 87L205 114L207 114L207 87L205 87Z" fill="black"/>
<rect x="136" y="58" width="145" height="28" rx="6" stroke="black" stroke-width="2"/>
</g>
<defs>
<clipPath id="clip0_6288_2893">
<rect width="585" height="182" fill="white"/>
</clipPath>
</defs>
</svg>
