<svg width="620" height="130" viewBox="0 0 620 130" fill="none" xmlns="http://www.w3.org/2000/svg">
<g clip-path="url(#clip0_6289_4338)">
<rect width="620" height="130" fill="white"/>
<path d="M99.3438 7.29297H101.614L101.717 9.66602C102.146 9.1582 102.562 8.73828 102.962 8.40625C103.362 8.06445 103.753 7.79102 104.134 7.58594C104.524 7.38086 104.92 7.23926 105.32 7.16113C105.721 7.07324 106.136 7.0293 106.565 7.0293C108.079 7.0293 109.222 7.47852 109.993 8.37695C110.774 9.26562 111.165 10.6084 111.165 12.4053V22H108.616V12.6104C108.616 11.458 108.401 10.6084 107.972 10.0615C107.542 9.50488 106.902 9.22656 106.053 9.22656C105.74 9.22656 105.433 9.27539 105.13 9.37305C104.837 9.46094 104.529 9.62207 104.207 9.85645C103.885 10.0811 103.533 10.3887 103.152 10.7793C102.781 11.1699 102.361 11.6582 101.893 12.2441V22H99.3438V7.29297ZM127.659 22H125.374L125.286 19.627C124.847 20.1348 124.427 20.5596 124.026 20.9014C123.636 21.2334 123.245 21.502 122.854 21.707C122.464 21.9121 122.068 22.0537 121.668 22.1318C121.277 22.2197 120.862 22.2637 120.423 22.2637C118.909 22.2637 117.767 21.8193 116.995 20.9307C116.224 20.042 115.838 18.6992 115.838 16.9023V7.29297H118.387V16.6973C118.387 18.9531 119.236 20.0811 120.936 20.0811C121.248 20.0811 121.551 20.0371 121.844 19.9492C122.146 19.8516 122.459 19.6904 122.781 19.4658C123.113 19.2314 123.465 18.9189 123.836 18.5283C124.217 18.1377 124.642 17.6445 125.11 17.0488V7.29297H127.659V22ZM142.82 22V11.4385C142.82 10.9795 142.801 10.6035 142.762 10.3105C142.732 10.0176 142.679 9.78809 142.601 9.62207C142.532 9.44629 142.439 9.32422 142.322 9.25586C142.215 9.1875 142.078 9.15332 141.912 9.15332C141.717 9.15332 141.536 9.21191 141.37 9.3291C141.204 9.44629 141.023 9.63672 140.828 9.90039C140.643 10.1641 140.433 10.5156 140.198 10.9551C139.974 11.3848 139.705 11.917 139.393 12.5518V22H137.063V11.7168C137.063 11.1797 137.044 10.7451 137.005 10.4131C136.976 10.0811 136.922 9.82227 136.844 9.63672C136.775 9.45117 136.683 9.32422 136.565 9.25586C136.448 9.1875 136.307 9.15332 136.141 9.15332C135.965 9.15332 135.799 9.20215 135.643 9.2998C135.486 9.39746 135.311 9.57324 135.115 9.82715C134.93 10.0811 134.72 10.4277 134.485 10.8672C134.251 11.3066 133.973 11.8682 133.65 12.5518V22H131.307V7.29297H133.255L133.372 10.0908C133.626 9.53418 133.87 9.06055 134.104 8.66992C134.349 8.2793 134.598 7.9668 134.852 7.73242C135.105 7.48828 135.374 7.3125 135.657 7.20508C135.95 7.08789 136.272 7.0293 136.624 7.0293C137.415 7.0293 138.016 7.28809 138.426 7.80566C138.836 8.32324 139.041 9.12402 139.041 10.208C139.275 9.7002 139.505 9.25098 139.729 8.86035C139.954 8.45996 140.193 8.12793 140.447 7.86426C140.711 7.59082 140.999 7.38574 141.312 7.24902C141.624 7.10254 141.985 7.0293 142.396 7.0293C144.241 7.0293 145.164 8.4502 145.164 11.292V22H142.82ZM160.472 17.9863C160.472 18.5039 160.384 18.9678 160.208 19.3779C160.032 19.7881 159.793 20.1543 159.49 20.4766C159.188 20.7891 158.836 21.0576 158.436 21.2822C158.035 21.5068 157.605 21.6924 157.146 21.8389C156.697 21.9854 156.233 22.0928 155.755 22.1611C155.276 22.2295 154.808 22.2637 154.349 22.2637C153.353 22.2637 152.435 22.2197 151.595 22.1318C150.765 22.0439 149.949 21.9023 149.148 21.707V19.3633C150.008 19.6074 150.862 19.793 151.712 19.9199C152.562 20.0469 153.406 20.1104 154.246 20.1104C155.467 20.1104 156.37 19.9443 156.956 19.6123C157.542 19.2803 157.835 18.8066 157.835 18.1914C157.835 17.9277 157.786 17.6934 157.688 17.4883C157.601 17.2734 157.435 17.0732 157.19 16.8877C156.946 16.6924 156.565 16.4922 156.048 16.2871C155.54 16.082 154.842 15.8477 153.953 15.584C153.289 15.3887 152.674 15.1689 152.107 14.9248C151.551 14.6709 151.067 14.373 150.657 14.0312C150.247 13.6895 149.925 13.2891 149.69 12.8301C149.456 12.3711 149.339 11.8291 149.339 11.2041C149.339 10.7939 149.432 10.3447 149.617 9.85645C149.812 9.36816 150.14 8.91406 150.599 8.49414C151.058 8.07422 151.678 7.72754 152.459 7.4541C153.24 7.1709 154.217 7.0293 155.389 7.0293C155.965 7.0293 156.604 7.06348 157.308 7.13184C158.011 7.19043 158.743 7.29785 159.505 7.4541V9.72461C158.704 9.5293 157.942 9.3877 157.22 9.2998C156.507 9.20215 155.887 9.15332 155.359 9.15332C154.725 9.15332 154.188 9.20215 153.748 9.2998C153.318 9.39746 152.967 9.53418 152.693 9.70996C152.43 9.87598 152.239 10.0762 152.122 10.3105C152.005 10.5352 151.946 10.7793 151.946 11.043C151.946 11.3066 151.995 11.5459 152.093 11.7607C152.2 11.9756 152.391 12.1855 152.664 12.3906C152.947 12.5859 153.338 12.7861 153.836 12.9912C154.334 13.1865 154.983 13.4014 155.784 13.6357C156.653 13.8896 157.386 14.1582 157.981 14.4414C158.577 14.7148 159.061 15.0225 159.432 15.3643C159.803 15.7061 160.066 16.0918 160.223 16.5215C160.389 16.9512 160.472 17.4395 160.472 17.9863ZM194.017 12.5371H181.419V10.3838H194.017V12.5371ZM194.017 17.6348H181.419V15.4814H194.017V17.6348ZM224.734 28.0059H217.513V0.789062H224.734V2.83984H219.944V25.9551H224.734V28.0059ZM259.847 16.1846C259.847 17.0244 259.676 17.8154 259.334 18.5576C258.992 19.29 258.479 19.9346 257.796 20.4912C257.112 21.0381 256.253 21.4727 255.218 21.7949C254.183 22.1074 252.977 22.2637 251.6 22.2637C250.838 22.2637 250.154 22.2393 249.549 22.1904C248.943 22.1416 248.377 22.0781 247.85 22V19.7148C248.455 19.8223 249.095 19.9053 249.769 19.9639C250.442 20.0225 251.131 20.0518 251.834 20.0518C252.791 20.0518 253.606 19.9688 254.28 19.8027C254.964 19.627 255.521 19.3779 255.95 19.0557C256.38 18.7334 256.692 18.3428 256.888 17.8838C257.083 17.4248 257.181 16.9072 257.181 16.3311C257.181 15.8037 257.063 15.3447 256.829 14.9541C256.595 14.5635 256.263 14.2363 255.833 13.9727C255.413 13.709 254.905 13.5137 254.31 13.3867C253.724 13.25 253.079 13.1816 252.376 13.1816H250.193V11.0869H252.405C252.981 11.0869 253.504 11.0137 253.973 10.8672C254.451 10.7109 254.856 10.4912 255.188 10.208C255.53 9.9248 255.789 9.57812 255.965 9.16797C256.15 8.74805 256.243 8.27441 256.243 7.74707C256.243 6.72168 255.931 5.97461 255.306 5.50586C254.681 5.03711 253.763 4.80273 252.552 4.80273C251.907 4.80273 251.243 4.86621 250.56 4.99316C249.876 5.12012 249.144 5.31055 248.362 5.56445V3.33789C248.694 3.2207 249.046 3.11816 249.417 3.03027C249.798 2.93262 250.174 2.85449 250.545 2.7959C250.926 2.72754 251.302 2.67871 251.673 2.64941C252.044 2.61035 252.4 2.59082 252.742 2.59082C253.758 2.59082 254.651 2.70313 255.423 2.92773C256.194 3.14258 256.839 3.45508 257.356 3.86523C257.874 4.27539 258.265 4.77344 258.528 5.35938C258.792 5.94531 258.924 6.60449 258.924 7.33691C258.924 8.43066 258.641 9.34863 258.074 10.0908C257.518 10.833 256.751 11.4238 255.774 11.8633C256.272 11.9414 256.761 12.0977 257.239 12.332C257.728 12.5664 258.162 12.8691 258.543 13.2402C258.934 13.6016 259.246 14.0312 259.48 14.5293C259.725 15.0273 259.847 15.5791 259.847 16.1846ZM307.557 15.2178H298.797V12.8154H307.557V15.2178ZM326.087 5.22754L318.06 22H315.145L323.479 5.22754H313.138V2.85449H326.087V5.22754ZM392.4 15.9355C392.4 16.8145 392.239 17.6396 391.917 18.4111C391.604 19.1826 391.155 19.8564 390.569 20.4326C389.983 20.999 389.275 21.4482 388.445 21.7803C387.625 22.1025 386.712 22.2637 385.706 22.2637C384.651 22.2637 383.719 22.0977 382.908 21.7656C382.098 21.4238 381.419 20.9062 380.872 20.2129C380.325 19.5098 379.91 18.626 379.627 17.5615C379.344 16.4971 379.202 15.2373 379.202 13.7822C379.202 12.8057 379.266 11.8584 379.393 10.9404C379.52 10.0225 379.729 9.1582 380.022 8.34766C380.315 7.53711 380.706 6.79492 381.194 6.12109C381.683 5.44727 382.288 4.87109 383.011 4.39258C383.743 3.9043 384.603 3.52832 385.589 3.26465C386.575 2.99121 387.718 2.85449 389.017 2.85449H390.906V5.08105H388.855C387.713 5.08105 386.722 5.21777 385.882 5.49121C385.042 5.76465 384.339 6.15039 383.772 6.64844C383.206 7.14648 382.771 7.74707 382.469 8.4502C382.166 9.15332 381.976 9.93945 381.897 10.8086L381.839 11.4092C382.454 11.0479 383.162 10.7598 383.963 10.5449C384.773 10.3203 385.647 10.208 386.585 10.208C387.552 10.208 388.396 10.3496 389.119 10.6328C389.852 10.916 390.457 11.3115 390.936 11.8193C391.424 12.3174 391.79 12.918 392.034 13.6211C392.278 14.3242 392.4 15.0957 392.4 15.9355ZM389.734 16.0967C389.734 15.5107 389.661 14.9834 389.515 14.5146C389.378 14.0361 389.158 13.6357 388.855 13.3135C388.553 12.9814 388.167 12.7275 387.698 12.5518C387.239 12.3662 386.688 12.2734 386.043 12.2734C385.672 12.2734 385.296 12.3076 384.915 12.376C384.534 12.4443 384.158 12.542 383.787 12.6689C383.426 12.7861 383.079 12.9229 382.747 13.0791C382.415 13.2354 382.112 13.4014 381.839 13.5771C381.839 14.8369 381.927 15.8916 382.103 16.7412C382.278 17.5811 382.537 18.2549 382.879 18.7627C383.23 19.2705 383.66 19.6318 384.168 19.8467C384.676 20.0615 385.262 20.1689 385.926 20.1689C386.482 20.1689 386.99 20.0811 387.449 19.9053C387.918 19.7197 388.318 19.4512 388.65 19.0996C388.992 18.748 389.256 18.3232 389.441 17.8252C389.637 17.3174 389.734 16.7412 389.734 16.0967ZM458.582 12.4346C458.582 13.8994 458.436 15.2373 458.143 16.4482C457.85 17.6494 457.405 18.6846 456.81 19.5537C456.214 20.4131 455.472 21.082 454.583 21.5605C453.704 22.0293 452.669 22.2637 451.478 22.2637C450.452 22.2637 449.52 22.0732 448.68 21.6924C447.84 21.3018 447.122 20.7061 446.526 19.9053C445.931 19.1045 445.472 18.084 445.149 16.8438C444.827 15.6035 444.666 14.1338 444.666 12.4346C444.666 10.9697 444.812 9.63184 445.105 8.4209C445.408 7.20996 445.853 6.1748 446.438 5.31543C447.034 4.44629 447.776 3.77734 448.665 3.30859C449.554 2.83008 450.589 2.59082 451.771 2.59082C452.796 2.59082 453.729 2.78613 454.568 3.17676C455.408 3.55762 456.126 4.15332 456.722 4.96387C457.317 5.76465 457.776 6.78516 458.099 8.02539C458.421 9.26562 458.582 10.7354 458.582 12.4346ZM456.004 12.5225C456.004 12.1904 455.989 11.8633 455.96 11.541C455.94 11.209 455.916 10.8867 455.887 10.5742L447.786 16.5947C447.933 17.1025 448.118 17.5713 448.343 18.001C448.567 18.4307 448.836 18.8018 449.148 19.1143C449.471 19.417 449.832 19.6562 450.232 19.832C450.643 19.998 451.106 20.0811 451.624 20.0811C452.288 20.0811 452.889 19.9199 453.426 19.5977C453.973 19.2754 454.437 18.7969 454.817 18.1621C455.198 17.5273 455.491 16.7412 455.696 15.8037C455.901 14.8564 456.004 13.7627 456.004 12.5225ZM447.244 12.3467C447.244 12.6494 447.244 12.9521 447.244 13.2549C447.254 13.5576 447.273 13.8506 447.303 14.1338L455.403 8.14258C455.257 7.64453 455.071 7.19043 454.847 6.78027C454.622 6.37012 454.354 6.01855 454.041 5.72559C453.729 5.42285 453.372 5.18848 452.972 5.02246C452.571 4.85645 452.122 4.77344 451.624 4.77344C450.96 4.77344 450.354 4.93457 449.808 5.25684C449.271 5.5791 448.812 6.0625 448.431 6.70703C448.05 7.3418 447.757 8.13281 447.552 9.08008C447.347 10.0176 447.244 11.1064 447.244 12.3467ZM505.486 15.2178H496.727V12.8154H505.486V15.2178ZM524.119 22H511.507V19.7148L516.458 14.793C517.269 13.9922 517.928 13.2988 518.436 12.7129C518.943 12.127 519.339 11.5947 519.622 11.1162C519.905 10.6279 520.096 10.1689 520.193 9.73926C520.291 9.30957 520.34 8.8457 520.34 8.34766C520.34 7.87891 520.276 7.43457 520.149 7.01465C520.022 6.58496 519.827 6.20898 519.563 5.88672C519.3 5.56445 518.958 5.31055 518.538 5.125C518.118 4.93945 517.615 4.84668 517.029 4.84668C516.219 4.84668 515.481 5.02734 514.817 5.38867C514.153 5.75 513.543 6.21875 512.986 6.79492L511.58 5.11035C512.303 4.34863 513.133 3.73828 514.07 3.2793C515.018 2.82031 516.116 2.59082 517.366 2.59082C518.216 2.59082 518.987 2.71777 519.681 2.97168C520.384 3.22559 520.989 3.5918 521.497 4.07031C522.005 4.54883 522.396 5.13477 522.669 5.82812C522.952 6.52148 523.094 7.30273 523.094 8.17188C523.094 8.9043 522.996 9.58301 522.801 10.208C522.605 10.833 522.308 11.458 521.907 12.083C521.517 12.6982 521.019 13.3379 520.413 14.002C519.817 14.666 519.109 15.3936 518.289 16.1846L514.817 19.5684H524.119V22ZM589.612 15.877C589.612 16.8242 589.407 17.6885 588.997 18.4697C588.587 19.251 588.021 19.9248 587.298 20.4912C586.585 21.0479 585.74 21.4824 584.764 21.7949C583.787 22.1074 582.732 22.2637 581.6 22.2637C581.316 22.2637 581.009 22.2539 580.677 22.2344C580.354 22.2246 580.032 22.2051 579.71 22.1758C579.388 22.1562 579.07 22.1318 578.758 22.1025C578.455 22.0732 578.182 22.0391 577.938 22V19.6855C578.465 19.8125 579.065 19.9053 579.739 19.9639C580.423 20.0225 581.111 20.0518 581.805 20.0518C582.586 20.0518 583.289 19.959 583.914 19.7734C584.539 19.5879 585.071 19.3242 585.511 18.9824C585.95 18.6309 586.287 18.2109 586.521 17.7227C586.756 17.2246 586.873 16.668 586.873 16.0527C586.873 14.8613 586.443 13.9971 585.584 13.46C584.734 12.9131 583.509 12.6396 581.907 12.6396H578.274V2.85449H588.587V5.08105H580.677V10.457H582.347C583.265 10.457 584.158 10.54 585.027 10.7061C585.896 10.8721 586.668 11.165 587.342 11.585C588.025 11.9951 588.572 12.5518 588.982 13.2549C589.402 13.9482 589.612 14.8223 589.612 15.877ZM619.759 28.0059H612.537V25.9551H617.298V2.83984H612.537V0.789062H619.759V28.0059Z" fill="black"/>
<path opacity="0.5" d="M258.603 41.9854C258.603 43.0596 258.495 44.0407 258.28 44.9287C258.065 45.8096 257.74 46.5687 257.303 47.2061C256.866 47.8363 256.322 48.3268 255.67 48.6777C255.025 49.0215 254.266 49.1934 253.393 49.1934C252.641 49.1934 251.957 49.0537 251.341 48.7744C250.725 48.488 250.199 48.0511 249.762 47.4639C249.325 46.8766 248.988 46.1283 248.752 45.2188C248.516 44.3092 248.397 43.2314 248.397 41.9854C248.397 40.9111 248.505 39.93 248.72 39.042C248.942 38.154 249.268 37.3949 249.697 36.7646C250.134 36.1273 250.678 35.6367 251.33 35.293C251.982 34.9421 252.741 34.7666 253.607 34.7666C254.359 34.7666 255.043 34.9098 255.659 35.1963C256.275 35.4756 256.801 35.9124 257.238 36.5068C257.675 37.0941 258.012 37.8424 258.248 38.752C258.484 39.6615 258.603 40.7393 258.603 41.9854ZM256.712 42.0498C256.712 41.8063 256.701 41.5664 256.68 41.3301C256.665 41.0866 256.647 40.8503 256.626 40.6211L250.686 45.0361C250.793 45.4085 250.929 45.7523 251.094 46.0674C251.258 46.3825 251.455 46.6546 251.685 46.8838C251.921 47.1058 252.186 47.2812 252.479 47.4102C252.78 47.5319 253.12 47.5928 253.5 47.5928C253.987 47.5928 254.427 47.4746 254.821 47.2383C255.222 47.002 255.562 46.651 255.842 46.1855C256.121 45.7201 256.336 45.1436 256.486 44.4561C256.637 43.7614 256.712 42.9593 256.712 42.0498ZM250.288 41.9209C250.288 42.1429 250.288 42.3649 250.288 42.5869C250.295 42.8089 250.31 43.0238 250.331 43.2314L256.271 38.8379C256.164 38.4727 256.028 38.1396 255.863 37.8389C255.699 37.5381 255.502 37.2803 255.272 37.0654C255.043 36.8434 254.782 36.6715 254.488 36.5498C254.195 36.4281 253.865 36.3672 253.5 36.3672C253.013 36.3672 252.569 36.4854 252.168 36.7217C251.774 36.958 251.438 37.3125 251.158 37.7852C250.879 38.2507 250.664 38.8307 250.514 39.5254C250.363 40.2129 250.288 41.0114 250.288 41.9209Z" fill="black"/>
<path opacity="0.5" d="M325.162 49H316.343V47.2598H319.952V37.0117L316.59 38.8379L315.902 37.248L320.371 34.8955H322.025V47.2598H325.162V49Z" fill="black"/>
<path opacity="0.5" d="M390.28 49H381.031V47.3242L384.662 43.7148C385.257 43.1276 385.74 42.6191 386.112 42.1895C386.485 41.7598 386.775 41.3695 386.982 41.0186C387.19 40.6605 387.33 40.3239 387.401 40.0088C387.473 39.6937 387.509 39.3535 387.509 38.9883C387.509 38.6445 387.462 38.3187 387.369 38.0107C387.276 37.6956 387.133 37.4199 386.939 37.1836C386.746 36.9473 386.495 36.7611 386.188 36.625C385.88 36.4889 385.511 36.4209 385.081 36.4209C384.487 36.4209 383.946 36.5534 383.459 36.8184C382.972 37.0833 382.524 37.4271 382.116 37.8496L381.085 36.6143C381.615 36.0557 382.224 35.6081 382.911 35.2715C383.606 34.9349 384.411 34.7666 385.328 34.7666C385.951 34.7666 386.517 34.8597 387.025 35.0459C387.541 35.2321 387.985 35.5007 388.357 35.8516C388.73 36.2025 389.016 36.6322 389.217 37.1406C389.424 37.6491 389.528 38.222 389.528 38.8594C389.528 39.3965 389.457 39.8942 389.313 40.3525C389.17 40.8109 388.952 41.2692 388.658 41.7275C388.372 42.1787 388.007 42.6478 387.562 43.1348C387.126 43.6217 386.606 44.1553 386.005 44.7354L383.459 47.2168H390.28V49Z" fill="black"/>
<path opacity="0.5" d="M456.012 44.7354C456.012 45.3512 455.886 45.9313 455.636 46.4756C455.385 47.0127 455.009 47.4854 454.508 47.8936C454.007 48.2946 453.376 48.6133 452.617 48.8496C451.858 49.0788 450.974 49.1934 449.964 49.1934C449.405 49.1934 448.904 49.1755 448.46 49.1396C448.016 49.1038 447.601 49.0573 447.214 49V47.3242C447.658 47.403 448.127 47.4639 448.621 47.5068C449.115 47.5498 449.62 47.5713 450.136 47.5713C450.838 47.5713 451.436 47.5104 451.93 47.3887C452.431 47.2598 452.839 47.0771 453.154 46.8408C453.469 46.6045 453.699 46.318 453.842 45.9814C453.985 45.6449 454.057 45.2653 454.057 44.8428C454.057 44.4561 453.971 44.1195 453.799 43.833C453.627 43.5465 453.383 43.3066 453.068 43.1133C452.76 42.9199 452.388 42.7767 451.951 42.6836C451.521 42.5833 451.049 42.5332 450.533 42.5332H448.933V40.9971H450.555C450.977 40.9971 451.36 40.9434 451.704 40.8359C452.055 40.7214 452.352 40.5602 452.596 40.3525C452.846 40.1449 453.036 39.8906 453.165 39.5898C453.301 39.2819 453.369 38.9346 453.369 38.5479C453.369 37.7959 453.14 37.248 452.682 36.9043C452.223 36.5605 451.55 36.3887 450.662 36.3887C450.189 36.3887 449.702 36.4352 449.201 36.5283C448.7 36.6214 448.163 36.7611 447.59 36.9473V35.3145C447.833 35.2285 448.091 35.1533 448.363 35.0889C448.643 35.0173 448.918 34.96 449.19 34.917C449.47 34.8669 449.745 34.8311 450.018 34.8096C450.29 34.7809 450.551 34.7666 450.802 34.7666C451.547 34.7666 452.202 34.849 452.768 35.0137C453.333 35.1712 453.806 35.4004 454.186 35.7012C454.565 36.002 454.852 36.3672 455.045 36.7969C455.238 37.2266 455.335 37.71 455.335 38.2471C455.335 39.0492 455.127 39.7223 454.712 40.2666C454.304 40.8109 453.742 41.2441 453.025 41.5664C453.391 41.6237 453.749 41.7383 454.1 41.9102C454.458 42.082 454.776 42.304 455.056 42.5762C455.342 42.8411 455.571 43.1562 455.743 43.5215C455.922 43.8867 456.012 44.2913 456.012 44.7354Z" fill="black"/>
<path opacity="0.5" d="M522.979 45.8955H520.583V49H518.671V45.8955H511.914V44.252L517.897 34.96H520.583V44.252H522.979V45.8955ZM518.671 36.7646L513.783 44.252H518.671V36.7646Z" fill="black"/>
<path opacity="0.5" d="M588.926 44.5098C588.926 45.2044 588.775 45.8382 588.475 46.4111C588.174 46.984 587.758 47.4782 587.229 47.8936C586.706 48.3018 586.086 48.6204 585.37 48.8496C584.654 49.0788 583.881 49.1934 583.05 49.1934C582.842 49.1934 582.617 49.1862 582.373 49.1719C582.137 49.1647 581.9 49.1504 581.664 49.1289C581.428 49.1146 581.195 49.0967 580.966 49.0752C580.744 49.0537 580.543 49.0286 580.364 49V47.3027C580.751 47.3958 581.191 47.4639 581.686 47.5068C582.187 47.5498 582.692 47.5713 583.2 47.5713C583.773 47.5713 584.289 47.5033 584.747 47.3672C585.205 47.2311 585.596 47.0378 585.918 46.7871C586.24 46.5293 586.487 46.2214 586.659 45.8633C586.831 45.498 586.917 45.0898 586.917 44.6387C586.917 43.765 586.602 43.1312 585.972 42.7373C585.349 42.3363 584.45 42.1357 583.275 42.1357H580.611V34.96H588.174V36.5928H582.373V40.5352H583.598C584.271 40.5352 584.926 40.596 585.563 40.7178C586.201 40.8395 586.767 41.0544 587.261 41.3623C587.762 41.6631 588.163 42.0713 588.464 42.5869C588.772 43.0954 588.926 43.7363 588.926 44.5098Z" fill="black"/>
<path d="M12.9121 95.3828C12.9121 96.6914 12.7266 97.834 12.3555 98.8105C11.9941 99.7871 11.4912 100.598 10.8467 101.242C10.2021 101.887 9.44043 102.37 8.56152 102.692C7.68262 103.015 6.73047 103.176 5.70508 103.176C5.23633 103.176 4.76758 103.151 4.29883 103.103C3.83984 103.054 3.37109 102.971 2.89258 102.854V109.006H0.34375V88.293H2.61426L2.77539 90.7539C3.50781 89.748 4.28906 89.0449 5.11914 88.6445C5.94922 88.2344 6.84766 88.0293 7.81445 88.0293C8.6543 88.0293 9.3916 88.2051 10.0264 88.5566C10.6611 88.9082 11.1934 89.4062 11.623 90.0508C12.0527 90.6855 12.375 91.457 12.5898 92.3652C12.8047 93.2637 12.9121 94.2695 12.9121 95.3828ZM10.3047 95.5C10.3047 94.7285 10.2461 94.0205 10.1289 93.376C10.0215 92.7314 9.8457 92.1797 9.60156 91.7207C9.35742 91.2617 9.04492 90.9053 8.66406 90.6514C8.2832 90.3877 7.8291 90.2559 7.30176 90.2559C6.97949 90.2559 6.65234 90.3096 6.32031 90.417C5.98828 90.5146 5.6416 90.6855 5.28027 90.9297C4.92871 91.1641 4.55273 91.4814 4.15234 91.8818C3.76172 92.2725 3.3418 92.7607 2.89258 93.3467V100.48C3.36133 100.676 3.85449 100.832 4.37207 100.949C4.88965 101.057 5.39746 101.11 5.89551 101.11C7.27246 101.11 8.35156 100.646 9.13281 99.7188C9.91406 98.7812 10.3047 97.375 10.3047 95.5ZM17.4385 88.293H19.7676L19.8408 91.0029C20.71 89.958 21.5645 89.2012 22.4043 88.7324C23.2539 88.2637 24.1084 88.0293 24.9678 88.0293C26.4912 88.0293 27.6436 88.5225 28.4248 89.5088C29.2158 90.4951 29.582 91.96 29.5234 93.9033H26.9453C26.9746 92.6143 26.7842 91.6816 26.374 91.1055C25.9736 90.5195 25.3828 90.2266 24.6016 90.2266C24.2598 90.2266 23.9131 90.29 23.5615 90.417C23.2197 90.5342 22.8633 90.7295 22.4922 91.0029C22.1309 91.2666 21.7451 91.6084 21.335 92.0283C20.9248 92.4482 20.4854 92.9561 20.0166 93.5518V103H17.4385V88.293ZM45.7539 94.8701C45.7539 95.2314 45.749 95.5342 45.7393 95.7783C45.7295 96.0225 45.7148 96.252 45.6953 96.4668H35.3682C35.3682 97.9707 35.7881 99.1279 36.6279 99.9385C37.4678 100.739 38.6787 101.14 40.2607 101.14C40.6904 101.14 41.1201 101.125 41.5498 101.096C41.9795 101.057 42.3945 101.008 42.7949 100.949C43.1953 100.891 43.5762 100.827 43.9375 100.759C44.3086 100.681 44.6504 100.598 44.9629 100.51V102.604C44.2695 102.8 43.4834 102.956 42.6045 103.073C41.7354 103.2 40.832 103.264 39.8945 103.264C38.6348 103.264 37.5508 103.093 36.6426 102.751C35.7344 102.409 34.9873 101.916 34.4014 101.271C33.8252 100.617 33.3955 99.8213 33.1123 98.8838C32.8389 97.9365 32.7021 96.8672 32.7021 95.6758C32.7021 94.6406 32.8486 93.6641 33.1416 92.7461C33.4443 91.8184 33.8789 91.0078 34.4453 90.3145C35.0215 89.6113 35.7246 89.0547 36.5547 88.6445C37.3848 88.2344 38.3271 88.0293 39.3818 88.0293C40.4072 88.0293 41.3154 88.1904 42.1064 88.5127C42.8975 88.835 43.5615 89.2939 44.0986 89.8896C44.6455 90.4756 45.0557 91.1934 45.3291 92.043C45.6123 92.8828 45.7539 93.8252 45.7539 94.8701ZM43.1025 94.5039C43.1318 93.8496 43.0684 93.2539 42.9121 92.7168C42.7559 92.1699 42.5117 91.7012 42.1797 91.3105C41.8574 90.9199 41.4521 90.6172 40.9639 90.4023C40.4756 90.1777 39.9092 90.0654 39.2646 90.0654C38.708 90.0654 38.2002 90.1729 37.7412 90.3877C37.2822 90.6025 36.8867 90.9053 36.5547 91.2959C36.2227 91.6865 35.9541 92.1553 35.749 92.7021C35.5439 93.249 35.417 93.8496 35.3682 94.5039H43.1025ZM62.8779 84.6748C61.54 84.3916 60.3877 84.25 59.4209 84.25C57.126 84.25 55.9785 85.4512 55.9785 87.8535V90.4316H62.4238V92.5557H55.9785V103H53.3857V92.5557H48.6543V90.4316H53.3857V88C53.3857 84.084 55.4268 82.126 59.5088 82.126C60.5244 82.126 61.6475 82.2432 62.8779 82.4775V84.6748ZM71.3301 90.4023H66.9795V88.293H73.9082V100.876H78.2881V103H66.4961V100.876H71.3301V90.4023ZM72.2236 82.126C72.5068 82.126 72.7705 82.1797 73.0146 82.2871C73.2588 82.3848 73.4688 82.5264 73.6445 82.7119C73.8301 82.8975 73.9717 83.1123 74.0693 83.3564C74.1768 83.5908 74.2305 83.8496 74.2305 84.1328C74.2305 84.4062 74.1768 84.665 74.0693 84.9092C73.9717 85.1533 73.8301 85.3682 73.6445 85.5537C73.4688 85.7393 73.2588 85.8857 73.0146 85.9932C72.7705 86.0908 72.5068 86.1396 72.2236 86.1396C71.9404 86.1396 71.6768 86.0908 71.4326 85.9932C71.1885 85.8857 70.9736 85.7393 70.7881 85.5537C70.6123 85.3682 70.4707 85.1533 70.3633 84.9092C70.2656 84.665 70.2168 84.4062 70.2168 84.1328C70.2168 83.8496 70.2656 83.5908 70.3633 83.3564C70.4707 83.1123 70.6123 82.8975 70.7881 82.7119C70.9736 82.5264 71.1885 82.3848 71.4326 82.2871C71.6768 82.1797 71.9404 82.126 72.2236 82.126ZM96.0713 103H92.6875L88.7178 97.3896L84.792 103H81.4961L87.1943 95.6172L81.7598 88.293H85.0264L88.8936 93.9473L92.6875 88.293H95.8369L90.3145 95.6758L96.0713 103ZM113.459 109.006H96.9648V106.896H113.459V109.006ZM127.448 98.9863C127.448 99.5039 127.36 99.9678 127.185 100.378C127.009 100.788 126.77 101.154 126.467 101.477C126.164 101.789 125.812 102.058 125.412 102.282C125.012 102.507 124.582 102.692 124.123 102.839C123.674 102.985 123.21 103.093 122.731 103.161C122.253 103.229 121.784 103.264 121.325 103.264C120.329 103.264 119.411 103.22 118.571 103.132C117.741 103.044 116.926 102.902 116.125 102.707V100.363C116.984 100.607 117.839 100.793 118.688 100.92C119.538 101.047 120.383 101.11 121.223 101.11C122.443 101.11 123.347 100.944 123.933 100.612C124.519 100.28 124.812 99.8066 124.812 99.1914C124.812 98.9277 124.763 98.6934 124.665 98.4883C124.577 98.2734 124.411 98.0732 124.167 97.8877C123.923 97.6924 123.542 97.4922 123.024 97.2871C122.517 97.082 121.818 96.8477 120.93 96.584C120.266 96.3887 119.65 96.1689 119.084 95.9248C118.527 95.6709 118.044 95.373 117.634 95.0312C117.224 94.6895 116.901 94.2891 116.667 93.8301C116.433 93.3711 116.315 92.8291 116.315 92.2041C116.315 91.7939 116.408 91.3447 116.594 90.8564C116.789 90.3682 117.116 89.9141 117.575 89.4941C118.034 89.0742 118.654 88.7275 119.436 88.4541C120.217 88.1709 121.193 88.0293 122.365 88.0293C122.941 88.0293 123.581 88.0635 124.284 88.1318C124.987 88.1904 125.72 88.2979 126.481 88.4541V90.7246C125.681 90.5293 124.919 90.3877 124.196 90.2998C123.483 90.2021 122.863 90.1533 122.336 90.1533C121.701 90.1533 121.164 90.2021 120.725 90.2998C120.295 90.3975 119.943 90.5342 119.67 90.71C119.406 90.876 119.216 91.0762 119.099 91.3105C118.981 91.5352 118.923 91.7793 118.923 92.043C118.923 92.3066 118.972 92.5459 119.069 92.7607C119.177 92.9756 119.367 93.1855 119.641 93.3906C119.924 93.5859 120.314 93.7861 120.812 93.9912C121.311 94.1865 121.96 94.4014 122.761 94.6357C123.63 94.8896 124.362 95.1582 124.958 95.4414C125.554 95.7148 126.037 96.0225 126.408 96.3643C126.779 96.7061 127.043 97.0918 127.199 97.5215C127.365 97.9512 127.448 98.4395 127.448 98.9863ZM144.118 103H141.833L141.745 100.627C141.306 101.135 140.886 101.56 140.485 101.901C140.095 102.233 139.704 102.502 139.313 102.707C138.923 102.912 138.527 103.054 138.127 103.132C137.736 103.22 137.321 103.264 136.882 103.264C135.368 103.264 134.226 102.819 133.454 101.931C132.683 101.042 132.297 99.6992 132.297 97.9023V88.293H134.846V97.6973C134.846 99.9531 135.695 101.081 137.395 101.081C137.707 101.081 138.01 101.037 138.303 100.949C138.605 100.852 138.918 100.69 139.24 100.466C139.572 100.231 139.924 99.9189 140.295 99.5283C140.676 99.1377 141.101 98.6445 141.569 98.0488V88.293H144.118V103ZM159.279 103V92.4385C159.279 91.9795 159.26 91.6035 159.221 91.3105C159.191 91.0176 159.138 90.7881 159.06 90.6221C158.991 90.4463 158.898 90.3242 158.781 90.2559C158.674 90.1875 158.537 90.1533 158.371 90.1533C158.176 90.1533 157.995 90.2119 157.829 90.3291C157.663 90.4463 157.482 90.6367 157.287 90.9004C157.102 91.1641 156.892 91.5156 156.657 91.9551C156.433 92.3848 156.164 92.917 155.852 93.5518V103H153.522V92.7168C153.522 92.1797 153.503 91.7451 153.464 91.4131C153.435 91.0811 153.381 90.8223 153.303 90.6367C153.234 90.4512 153.142 90.3242 153.024 90.2559C152.907 90.1875 152.766 90.1533 152.6 90.1533C152.424 90.1533 152.258 90.2021 152.102 90.2998C151.945 90.3975 151.77 90.5732 151.574 90.8271C151.389 91.0811 151.179 91.4277 150.944 91.8672C150.71 92.3066 150.432 92.8682 150.109 93.5518V103H147.766V88.293H149.714L149.831 91.0908C150.085 90.5342 150.329 90.0605 150.563 89.6699C150.808 89.2793 151.057 88.9668 151.311 88.7324C151.564 88.4883 151.833 88.3125 152.116 88.2051C152.409 88.0879 152.731 88.0293 153.083 88.0293C153.874 88.0293 154.475 88.2881 154.885 88.8057C155.295 89.3232 155.5 90.124 155.5 91.208C155.734 90.7002 155.964 90.251 156.188 89.8604C156.413 89.46 156.652 89.1279 156.906 88.8643C157.17 88.5908 157.458 88.3857 157.771 88.249C158.083 88.1025 158.444 88.0293 158.854 88.0293C160.7 88.0293 161.623 89.4502 161.623 92.292V103H159.279ZM193.981 93.5371H181.384V91.3838H193.981V93.5371ZM193.981 98.6348H181.384V96.4814H193.981V98.6348ZM224.699 109.006H217.478V81.7891H224.699V83.8398H219.909V106.955H224.699V109.006ZM259.812 97.1846C259.812 98.0244 259.641 98.8154 259.299 99.5576C258.957 100.29 258.444 100.935 257.761 101.491C257.077 102.038 256.218 102.473 255.183 102.795C254.147 103.107 252.941 103.264 251.564 103.264C250.803 103.264 250.119 103.239 249.514 103.19C248.908 103.142 248.342 103.078 247.814 103V100.715C248.42 100.822 249.06 100.905 249.733 100.964C250.407 101.022 251.096 101.052 251.799 101.052C252.756 101.052 253.571 100.969 254.245 100.803C254.929 100.627 255.485 100.378 255.915 100.056C256.345 99.7334 256.657 99.3428 256.853 98.8838C257.048 98.4248 257.146 97.9072 257.146 97.3311C257.146 96.8037 257.028 96.3447 256.794 95.9541C256.56 95.5635 256.228 95.2363 255.798 94.9727C255.378 94.709 254.87 94.5137 254.274 94.3867C253.688 94.25 253.044 94.1816 252.341 94.1816H250.158V92.0869H252.37C252.946 92.0869 253.469 92.0137 253.938 91.8672C254.416 91.7109 254.821 91.4912 255.153 91.208C255.495 90.9248 255.754 90.5781 255.93 90.168C256.115 89.748 256.208 89.2744 256.208 88.7471C256.208 87.7217 255.896 86.9746 255.271 86.5059C254.646 86.0371 253.728 85.8027 252.517 85.8027C251.872 85.8027 251.208 85.8662 250.524 85.9932C249.841 86.1201 249.108 86.3105 248.327 86.5645V84.3379C248.659 84.2207 249.011 84.1182 249.382 84.0303C249.763 83.9326 250.139 83.8545 250.51 83.7959C250.891 83.7275 251.267 83.6787 251.638 83.6494C252.009 83.6104 252.365 83.5908 252.707 83.5908C253.723 83.5908 254.616 83.7031 255.388 83.9277C256.159 84.1426 256.804 84.4551 257.321 84.8652C257.839 85.2754 258.229 85.7734 258.493 86.3594C258.757 86.9453 258.889 87.6045 258.889 88.3369C258.889 89.4307 258.605 90.3486 258.039 91.0908C257.482 91.833 256.716 92.4238 255.739 92.8633C256.237 92.9414 256.726 93.0977 257.204 93.332C257.692 93.5664 258.127 93.8691 258.508 94.2402C258.898 94.6016 259.211 95.0312 259.445 95.5293C259.689 96.0273 259.812 96.5791 259.812 97.1846ZM307.521 96.2178H298.762V93.8154H307.521V96.2178ZM327.106 98.7666H323.84V103H321.232V98.7666H312.019V96.5254L320.178 83.8545H323.84V96.5254H327.106V98.7666ZM321.232 86.3154L314.567 96.5254H321.232V86.3154ZM392.131 103H379.519V100.715L384.47 95.793C385.28 94.9922 385.939 94.2988 386.447 93.7129C386.955 93.127 387.351 92.5947 387.634 92.1162C387.917 91.6279 388.107 91.1689 388.205 90.7393C388.303 90.3096 388.352 89.8457 388.352 89.3477C388.352 88.8789 388.288 88.4346 388.161 88.0146C388.034 87.585 387.839 87.209 387.575 86.8867C387.312 86.5645 386.97 86.3105 386.55 86.125C386.13 85.9395 385.627 85.8467 385.041 85.8467C384.23 85.8467 383.493 86.0273 382.829 86.3887C382.165 86.75 381.555 87.2188 380.998 87.7949L379.592 86.1104C380.314 85.3486 381.145 84.7383 382.082 84.2793C383.029 83.8203 384.128 83.5908 385.378 83.5908C386.228 83.5908 386.999 83.7178 387.692 83.9717C388.396 84.2256 389.001 84.5918 389.509 85.0703C390.017 85.5488 390.407 86.1348 390.681 86.8281C390.964 87.5215 391.105 88.3027 391.105 89.1719C391.105 89.9043 391.008 90.583 390.812 91.208C390.617 91.833 390.319 92.458 389.919 93.083C389.528 93.6982 389.03 94.3379 388.425 95.002C387.829 95.666 387.121 96.3936 386.301 97.1846L382.829 100.568H392.131V103ZM458.107 103H445.495V100.715L450.446 95.793C451.257 94.9922 451.916 94.2988 452.424 93.7129C452.932 93.127 453.327 92.5947 453.61 92.1162C453.894 91.6279 454.084 91.1689 454.182 90.7393C454.279 90.3096 454.328 89.8457 454.328 89.3477C454.328 88.8789 454.265 88.4346 454.138 88.0146C454.011 87.585 453.815 87.209 453.552 86.8867C453.288 86.5645 452.946 86.3105 452.526 86.125C452.106 85.9395 451.604 85.8467 451.018 85.8467C450.207 85.8467 449.47 86.0273 448.806 86.3887C448.142 86.75 447.531 87.2188 446.975 87.7949L445.568 86.1104C446.291 85.3486 447.121 84.7383 448.059 84.2793C449.006 83.8203 450.104 83.5908 451.354 83.5908C452.204 83.5908 452.976 83.7178 453.669 83.9717C454.372 84.2256 454.978 84.5918 455.485 85.0703C455.993 85.5488 456.384 86.1348 456.657 86.8281C456.94 87.5215 457.082 88.3027 457.082 89.1719C457.082 89.9043 456.984 90.583 456.789 91.208C456.594 91.833 456.296 92.458 455.896 93.083C455.505 93.6982 455.007 94.3379 454.401 95.002C453.806 95.666 453.098 96.3936 452.277 97.1846L448.806 100.568H458.107V103ZM524.523 93.4346C524.523 94.8994 524.377 96.2373 524.084 97.4482C523.791 98.6494 523.347 99.6846 522.751 100.554C522.155 101.413 521.413 102.082 520.524 102.561C519.646 103.029 518.61 103.264 517.419 103.264C516.394 103.264 515.461 103.073 514.621 102.692C513.781 102.302 513.063 101.706 512.468 100.905C511.872 100.104 511.413 99.084 511.091 97.8438C510.769 96.6035 510.607 95.1338 510.607 93.4346C510.607 91.9697 510.754 90.6318 511.047 89.4209C511.35 88.21 511.794 87.1748 512.38 86.3154C512.976 85.4463 513.718 84.7773 514.606 84.3086C515.495 83.8301 516.53 83.5908 517.712 83.5908C518.737 83.5908 519.67 83.7861 520.51 84.1768C521.35 84.5576 522.067 85.1533 522.663 85.9639C523.259 86.7646 523.718 87.7852 524.04 89.0254C524.362 90.2656 524.523 91.7354 524.523 93.4346ZM521.945 93.5225C521.945 93.1904 521.931 92.8633 521.901 92.541C521.882 92.209 521.857 91.8867 521.828 91.5742L513.728 97.5947C513.874 98.1025 514.06 98.5713 514.284 99.001C514.509 99.4307 514.777 99.8018 515.09 100.114C515.412 100.417 515.773 100.656 516.174 100.832C516.584 100.998 517.048 101.081 517.565 101.081C518.229 101.081 518.83 100.92 519.367 100.598C519.914 100.275 520.378 99.7969 520.759 99.1621C521.14 98.5273 521.433 97.7412 521.638 96.8037C521.843 95.8564 521.945 94.7627 521.945 93.5225ZM513.186 93.3467C513.186 93.6494 513.186 93.9521 513.186 94.2549C513.195 94.5576 513.215 94.8506 513.244 95.1338L521.345 89.1426C521.198 88.6445 521.013 88.1904 520.788 87.7803C520.563 87.3701 520.295 87.0186 519.982 86.7256C519.67 86.4229 519.313 86.1885 518.913 86.0225C518.513 85.8564 518.063 85.7734 517.565 85.7734C516.901 85.7734 516.296 85.9346 515.749 86.2568C515.212 86.5791 514.753 87.0625 514.372 87.707C513.991 88.3418 513.698 89.1328 513.493 90.0801C513.288 91.0176 513.186 92.1064 513.186 93.3467ZM589.577 96.877C589.577 97.8242 589.372 98.6885 588.962 99.4697C588.552 100.251 587.985 100.925 587.263 101.491C586.55 102.048 585.705 102.482 584.729 102.795C583.752 103.107 582.697 103.264 581.564 103.264C581.281 103.264 580.974 103.254 580.642 103.234C580.319 103.225 579.997 103.205 579.675 103.176C579.353 103.156 579.035 103.132 578.723 103.103C578.42 103.073 578.146 103.039 577.902 103V100.686C578.43 100.812 579.03 100.905 579.704 100.964C580.388 101.022 581.076 101.052 581.77 101.052C582.551 101.052 583.254 100.959 583.879 100.773C584.504 100.588 585.036 100.324 585.476 99.9824C585.915 99.6309 586.252 99.2109 586.486 98.7227C586.721 98.2246 586.838 97.668 586.838 97.0527C586.838 95.8613 586.408 94.9971 585.549 94.46C584.699 93.9131 583.474 93.6396 581.872 93.6396H578.239V83.8545H588.552V86.0811H580.642V91.457H582.312C583.229 91.457 584.123 91.54 584.992 91.7061C585.861 91.8721 586.633 92.165 587.307 92.585C587.99 92.9951 588.537 93.5518 588.947 94.2549C589.367 94.9482 589.577 95.8223 589.577 96.877ZM619.724 109.006H612.502V106.955H617.263V83.8398H612.502V81.7891H619.724V109.006Z" fill="black"/>
<path opacity="0.5" d="M260.603 122.985C260.603 124.06 260.495 125.041 260.28 125.929C260.065 126.81 259.74 127.569 259.303 128.206C258.866 128.836 258.322 129.327 257.67 129.678C257.025 130.021 256.266 130.193 255.393 130.193C254.641 130.193 253.957 130.054 253.341 129.774C252.725 129.488 252.199 129.051 251.762 128.464C251.325 127.877 250.988 127.128 250.752 126.219C250.516 125.309 250.397 124.231 250.397 122.985C250.397 121.911 250.505 120.93 250.72 120.042C250.942 119.154 251.268 118.395 251.697 117.765C252.134 117.127 252.678 116.637 253.33 116.293C253.982 115.942 254.741 115.767 255.607 115.767C256.359 115.767 257.043 115.91 257.659 116.196C258.275 116.476 258.801 116.912 259.238 117.507C259.675 118.094 260.012 118.842 260.248 119.752C260.484 120.661 260.603 121.739 260.603 122.985ZM258.712 123.05C258.712 122.806 258.701 122.566 258.68 122.33C258.665 122.087 258.647 121.85 258.626 121.621L252.686 126.036C252.793 126.409 252.929 126.752 253.094 127.067C253.258 127.382 253.455 127.655 253.685 127.884C253.921 128.106 254.186 128.281 254.479 128.41C254.78 128.532 255.12 128.593 255.5 128.593C255.987 128.593 256.427 128.475 256.821 128.238C257.222 128.002 257.562 127.651 257.842 127.186C258.121 126.72 258.336 126.144 258.486 125.456C258.637 124.761 258.712 123.959 258.712 123.05ZM252.288 122.921C252.288 123.143 252.288 123.365 252.288 123.587C252.295 123.809 252.31 124.024 252.331 124.231L258.271 119.838C258.164 119.473 258.028 119.14 257.863 118.839C257.699 118.538 257.502 118.28 257.272 118.065C257.043 117.843 256.782 117.672 256.488 117.55C256.195 117.428 255.865 117.367 255.5 117.367C255.013 117.367 254.569 117.485 254.168 117.722C253.774 117.958 253.438 118.312 253.158 118.785C252.879 119.251 252.664 119.831 252.514 120.525C252.363 121.213 252.288 122.011 252.288 122.921Z" fill="black"/>
<path opacity="0.5" d="M326.162 130H317.343V128.26H320.952V118.012L317.59 119.838L316.902 118.248L321.371 115.896H323.025V128.26H326.162V130Z" fill="black"/>
<path opacity="0.5" d="M391.78 130H382.531V128.324L386.162 124.715C386.757 124.128 387.24 123.619 387.612 123.189C387.985 122.76 388.275 122.369 388.482 122.019C388.69 121.66 388.83 121.324 388.901 121.009C388.973 120.694 389.009 120.354 389.009 119.988C389.009 119.645 388.962 119.319 388.869 119.011C388.776 118.696 388.633 118.42 388.439 118.184C388.246 117.947 387.995 117.761 387.688 117.625C387.38 117.489 387.011 117.421 386.581 117.421C385.987 117.421 385.446 117.553 384.959 117.818C384.472 118.083 384.024 118.427 383.616 118.85L382.585 117.614C383.115 117.056 383.724 116.608 384.411 116.271C385.106 115.935 385.911 115.767 386.828 115.767C387.451 115.767 388.017 115.86 388.525 116.046C389.041 116.232 389.485 116.501 389.857 116.852C390.23 117.202 390.516 117.632 390.717 118.141C390.924 118.649 391.028 119.222 391.028 119.859C391.028 120.396 390.957 120.894 390.813 121.353C390.67 121.811 390.452 122.269 390.158 122.728C389.872 123.179 389.507 123.648 389.062 124.135C388.626 124.622 388.106 125.155 387.505 125.735L384.959 128.217H391.78V130Z" fill="black"/>
<path opacity="0.5" d="M456.512 125.735C456.512 126.351 456.386 126.931 456.136 127.476C455.885 128.013 455.509 128.485 455.008 128.894C454.507 129.295 453.876 129.613 453.117 129.85C452.358 130.079 451.474 130.193 450.464 130.193C449.905 130.193 449.404 130.175 448.96 130.14C448.516 130.104 448.101 130.057 447.714 130V128.324C448.158 128.403 448.627 128.464 449.121 128.507C449.615 128.55 450.12 128.571 450.636 128.571C451.338 128.571 451.936 128.51 452.43 128.389C452.931 128.26 453.339 128.077 453.654 127.841C453.969 127.604 454.199 127.318 454.342 126.981C454.485 126.645 454.557 126.265 454.557 125.843C454.557 125.456 454.471 125.119 454.299 124.833C454.127 124.547 453.883 124.307 453.568 124.113C453.26 123.92 452.888 123.777 452.451 123.684C452.021 123.583 451.549 123.533 451.033 123.533H449.433V121.997H451.055C451.477 121.997 451.86 121.943 452.204 121.836C452.555 121.721 452.852 121.56 453.096 121.353C453.346 121.145 453.536 120.891 453.665 120.59C453.801 120.282 453.869 119.935 453.869 119.548C453.869 118.796 453.64 118.248 453.182 117.904C452.723 117.561 452.05 117.389 451.162 117.389C450.689 117.389 450.202 117.435 449.701 117.528C449.2 117.621 448.663 117.761 448.09 117.947V116.314C448.333 116.229 448.591 116.153 448.863 116.089C449.143 116.017 449.418 115.96 449.69 115.917C449.97 115.867 450.245 115.831 450.518 115.81C450.79 115.781 451.051 115.767 451.302 115.767C452.047 115.767 452.702 115.849 453.268 116.014C453.833 116.171 454.306 116.4 454.686 116.701C455.065 117.002 455.352 117.367 455.545 117.797C455.738 118.227 455.835 118.71 455.835 119.247C455.835 120.049 455.627 120.722 455.212 121.267C454.804 121.811 454.242 122.244 453.525 122.566C453.891 122.624 454.249 122.738 454.6 122.91C454.958 123.082 455.276 123.304 455.556 123.576C455.842 123.841 456.071 124.156 456.243 124.521C456.422 124.887 456.512 125.291 456.512 125.735Z" fill="black"/>
<path opacity="0.5" d="M523.979 126.896H521.583V130H519.671V126.896H512.914V125.252L518.897 115.96H521.583V125.252H523.979V126.896ZM519.671 117.765L514.783 125.252H519.671V117.765Z" fill="black"/>
<path opacity="0.5" d="M588.926 125.51C588.926 126.204 588.775 126.838 588.475 127.411C588.174 127.984 587.758 128.478 587.229 128.894C586.706 129.302 586.086 129.62 585.37 129.85C584.654 130.079 583.881 130.193 583.05 130.193C582.842 130.193 582.617 130.186 582.373 130.172C582.137 130.165 581.9 130.15 581.664 130.129C581.428 130.115 581.195 130.097 580.966 130.075C580.744 130.054 580.543 130.029 580.364 130V128.303C580.751 128.396 581.191 128.464 581.686 128.507C582.187 128.55 582.692 128.571 583.2 128.571C583.773 128.571 584.289 128.503 584.747 128.367C585.205 128.231 585.596 128.038 585.918 127.787C586.24 127.529 586.487 127.221 586.659 126.863C586.831 126.498 586.917 126.09 586.917 125.639C586.917 124.765 586.602 124.131 585.972 123.737C585.349 123.336 584.45 123.136 583.275 123.136H580.611V115.96H588.174V117.593H582.373V121.535H583.598C584.271 121.535 584.926 121.596 585.563 121.718C586.201 121.84 586.767 122.054 587.261 122.362C587.762 122.663 588.163 123.071 588.464 123.587C588.772 124.095 588.926 124.736 588.926 125.51Z" fill="black"/>
</g>
<defs>
<clipPath id="clip0_6289_4338">
<rect width="620" height="130" fill="white"/>
</clipPath>
</defs>
</svg>
