<svg width="840" height="278" viewBox="0 0 840 278" fill="none" xmlns="http://www.w3.org/2000/svg">
<g clip-path="url(#clip0_6292_3677)">
<rect width="840" height="278" fill="white"/>
<path d="M428.275 28.0059H421.054V0.789062H428.275V2.83984H423.485V25.9551H428.275V28.0059ZM443.935 28.0059H436.713V25.9551H441.474V2.83984H436.713V0.789062H443.935V28.0059Z" fill="black"/>
<path d="M159.275 157.006H152.054V129.789H159.275V131.84H154.485V154.955H159.275V157.006ZM179.212 146.767H175.945V151H173.338V146.767H164.124V144.525L172.283 131.854H175.945V144.525H179.212V146.767ZM173.338 134.315L166.673 144.525H173.338V134.315ZM191.429 157.006H184.207V154.955H188.968V131.84H184.207V129.789H191.429V157.006Z" fill="black"/>
<path d="M7.54004 276.006H0.318359V248.789H7.54004V250.84H2.75V273.955H7.54004V276.006ZM27.4766 265.767H24.21V270H21.6025V265.767H12.3887V263.525L20.5479 250.854H24.21V263.525H27.4766V265.767ZM21.6025 253.315L14.9375 263.525H21.6025V253.315ZM31.7393 273.003C32.2373 273.022 32.7207 272.979 33.1895 272.871C33.6582 272.764 34.0684 272.603 34.4199 272.388C34.7812 272.183 35.0693 271.924 35.2842 271.611C35.499 271.299 35.6064 270.942 35.6064 270.542C35.6064 270.132 35.5332 269.8 35.3867 269.546C35.25 269.292 35.0938 269.058 34.918 268.843C34.7422 268.628 34.5811 268.398 34.4346 268.154C34.2979 267.91 34.2295 267.583 34.2295 267.173C34.2295 266.968 34.2686 266.753 34.3467 266.528C34.4248 266.304 34.542 266.099 34.6982 265.913C34.8643 265.728 35.0693 265.576 35.3135 265.459C35.5674 265.342 35.8652 265.283 36.207 265.283C36.5488 265.283 36.876 265.356 37.1885 265.503C37.5107 265.64 37.7891 265.854 38.0234 266.147C38.2676 266.44 38.458 266.807 38.5947 267.246C38.7412 267.686 38.8145 268.203 38.8145 268.799C38.8145 269.609 38.6631 270.386 38.3604 271.128C38.0674 271.88 37.623 272.544 37.0273 273.12C36.4414 273.696 35.7041 274.155 34.8154 274.497C33.9365 274.839 32.9111 275.01 31.7393 275.01V273.003ZM59.0293 263.877C59.0293 264.824 58.8242 265.688 58.4141 266.47C58.0039 267.251 57.4375 267.925 56.7148 268.491C56.002 269.048 55.1572 269.482 54.1807 269.795C53.2041 270.107 52.1494 270.264 51.0166 270.264C50.7334 270.264 50.4258 270.254 50.0938 270.234C49.7715 270.225 49.4492 270.205 49.127 270.176C48.8047 270.156 48.4873 270.132 48.1748 270.103C47.8721 270.073 47.5986 270.039 47.3545 270V267.686C47.8818 267.812 48.4824 267.905 49.1562 267.964C49.8398 268.022 50.5283 268.052 51.2217 268.052C52.0029 268.052 52.7061 267.959 53.3311 267.773C53.9561 267.588 54.4883 267.324 54.9277 266.982C55.3672 266.631 55.7041 266.211 55.9385 265.723C56.1729 265.225 56.29 264.668 56.29 264.053C56.29 262.861 55.8604 261.997 55.001 261.46C54.1514 260.913 52.9258 260.64 51.3242 260.64H47.6914V250.854H58.0039V253.081H50.0938V258.457H51.7637C52.6816 258.457 53.5752 258.54 54.4443 258.706C55.3135 258.872 56.085 259.165 56.7588 259.585C57.4424 259.995 57.9893 260.552 58.3994 261.255C58.8193 261.948 59.0293 262.822 59.0293 263.877ZM72.6816 276.006H65.46V273.955H70.2207V250.84H65.46V248.789H72.6816V276.006Z" fill="black"/>
<path d="M43.0508 176.836C43.0508 177.094 43.0039 177.336 42.9102 177.562C42.8164 177.789 42.6836 177.988 42.5117 178.16C42.3477 178.324 42.1523 178.457 41.9258 178.559C41.6992 178.652 41.4531 178.699 41.1875 178.699C40.9219 178.699 40.6719 178.652 40.4375 178.559C40.2109 178.457 40.0117 178.324 39.8398 178.16C39.6758 177.988 39.5469 177.789 39.4531 177.562C39.3594 177.336 39.3125 177.094 39.3125 176.836C39.3125 176.578 39.3594 176.336 39.4531 176.109C39.5469 175.883 39.6758 175.684 39.8398 175.512C40.0117 175.34 40.2109 175.207 40.4375 175.113C40.6719 175.012 40.9219 174.961 41.1875 174.961C41.4531 174.961 41.6992 175.012 41.9258 175.113C42.1523 175.207 42.3477 175.34 42.5117 175.512C42.6836 175.684 42.8164 175.883 42.9102 176.109C43.0039 176.336 43.0508 176.578 43.0508 176.836ZM39.8867 182.32H36.5234V180.094H42.8164V189.773H46.25V192H36.1133V189.773H39.8867V182.32ZM56.3398 192V184.242C56.3398 182.938 55.8555 182.285 54.8867 182.285C54.4023 182.285 53.9375 182.48 53.4922 182.871C53.0547 183.262 52.5898 183.793 52.0977 184.465V192H49.2383V180.094H51.7109L51.7812 181.852C52.0234 181.547 52.2734 181.27 52.5312 181.02C52.7969 180.77 53.082 180.559 53.3867 180.387C53.6914 180.207 54.0195 180.07 54.3711 179.977C54.7227 179.883 55.1172 179.836 55.5547 179.836C56.1641 179.836 56.6953 179.938 57.1484 180.141C57.6016 180.336 57.9805 180.617 58.2852 180.984C58.5898 181.344 58.8164 181.781 58.9648 182.297C59.1211 182.805 59.1992 183.375 59.1992 184.008V192H56.3398ZM72.0664 191.543C71.5039 191.77 70.9219 191.938 70.3203 192.047C69.7188 192.156 69.0898 192.211 68.4336 192.211C67.4883 192.211 66.6406 192.082 65.8906 191.824C65.1406 191.566 64.5039 191.184 63.9805 190.676C63.457 190.168 63.0547 189.539 62.7734 188.789C62.5 188.039 62.3633 187.172 62.3633 186.188C62.3633 185.234 62.5117 184.371 62.8086 183.598C63.1133 182.824 63.5391 182.164 64.0859 181.617C64.6328 181.07 65.2891 180.648 66.0547 180.352C66.8281 180.055 67.6875 179.906 68.6328 179.906C69.4062 179.906 70.0547 179.949 70.5781 180.035C71.1094 180.113 71.5859 180.215 72.0078 180.34V183.117C71.5234 182.875 70.9961 182.688 70.4258 182.555C69.8633 182.422 69.3281 182.355 68.8203 182.355C68.2891 182.355 67.8125 182.445 67.3906 182.625C66.9688 182.805 66.6133 183.055 66.3242 183.375C66.0352 183.695 65.8125 184.086 65.6562 184.547C65.5078 185 65.4336 185.5 65.4336 186.047C65.4336 186.617 65.5156 187.129 65.6797 187.582C65.8438 188.035 66.0742 188.422 66.3711 188.742C66.6758 189.055 67.0391 189.297 67.4609 189.469C67.8828 189.633 68.3516 189.715 68.8672 189.715C69.1172 189.715 69.3789 189.699 69.6523 189.668C69.9336 189.629 70.2109 189.578 70.4844 189.516C70.7656 189.445 71.0391 189.367 71.3047 189.281C71.5781 189.195 71.832 189.102 72.0664 189V191.543ZM79.4727 177.668H76.1094V175.441H82.4023V189.773H85.8359V192H75.6992V189.773H79.4727V177.668ZM93.7227 187.676C94.0508 187.676 94.3555 187.738 94.6367 187.863C94.918 187.98 95.1602 188.145 95.3633 188.355C95.5742 188.559 95.7383 188.801 95.8555 189.082C95.9727 189.363 96.0312 189.664 96.0312 189.984C96.0312 190.297 95.9727 190.594 95.8555 190.875C95.7383 191.148 95.5742 191.391 95.3633 191.602C95.1602 191.805 94.918 191.965 94.6367 192.082C94.3555 192.207 94.0508 192.27 93.7227 192.27C93.4102 192.27 93.1172 192.207 92.8438 192.082C92.5703 191.965 92.332 191.805 92.1289 191.602C91.9258 191.391 91.7656 191.148 91.6484 190.875C91.5312 190.594 91.4727 190.297 91.4727 189.984C91.4727 189.664 91.5312 189.363 91.6484 189.082C91.7656 188.801 91.9258 188.559 92.1289 188.355C92.332 188.145 92.5703 187.98 92.8438 187.863C93.1172 187.738 93.4102 187.676 93.7227 187.676ZM112.18 187.102C112.18 187.922 112.008 188.652 111.664 189.293C111.32 189.926 110.844 190.461 110.234 190.898C109.625 191.336 108.906 191.668 108.078 191.895C107.25 192.121 106.352 192.234 105.383 192.234C105.141 192.234 104.883 192.227 104.609 192.211C104.336 192.195 104.059 192.176 103.777 192.152C103.496 192.129 103.223 192.098 102.957 192.059C102.691 192.027 102.445 191.992 102.219 191.953V189.457C102.664 189.566 103.176 189.656 103.754 189.727C104.332 189.789 104.922 189.82 105.523 189.82C106.695 189.82 107.586 189.598 108.195 189.152C108.812 188.699 109.121 188.074 109.121 187.277C109.121 186.449 108.836 185.836 108.266 185.438C107.695 185.031 106.773 184.828 105.5 184.828H102.5V176.684H111.336V179.379H105.172V182.496H106.273C107.055 182.496 107.801 182.566 108.512 182.707C109.223 182.848 109.848 183.094 110.387 183.445C110.934 183.789 111.367 184.258 111.688 184.852C112.016 185.445 112.18 186.195 112.18 187.102Z" fill="#00B2FF"/>
<path d="M234.414 185.133C234.414 185.328 234.406 185.582 234.391 185.895C234.383 186.207 234.367 186.5 234.344 186.773H226.516C226.516 187.297 226.594 187.758 226.75 188.156C226.914 188.555 227.141 188.891 227.43 189.164C227.727 189.43 228.078 189.633 228.484 189.773C228.898 189.914 229.355 189.984 229.855 189.984C230.434 189.984 231.051 189.941 231.707 189.855C232.371 189.762 233.059 189.613 233.77 189.41V191.684C233.465 191.77 233.133 191.848 232.773 191.918C232.414 191.988 232.047 192.051 231.672 192.105C231.297 192.16 230.918 192.199 230.535 192.223C230.152 192.254 229.781 192.27 229.422 192.27C228.516 192.27 227.703 192.141 226.984 191.883C226.266 191.625 225.656 191.246 225.156 190.746C224.656 190.238 224.273 189.613 224.008 188.871C223.742 188.129 223.609 187.27 223.609 186.293C223.609 185.324 223.742 184.445 224.008 183.656C224.273 182.859 224.648 182.18 225.133 181.617C225.617 181.047 226.203 180.609 226.891 180.305C227.586 179.992 228.359 179.836 229.211 179.836C230.055 179.836 230.801 179.969 231.449 180.234C232.098 180.492 232.641 180.855 233.078 181.324C233.516 181.793 233.848 182.352 234.074 183C234.301 183.648 234.414 184.359 234.414 185.133ZM231.508 184.723C231.516 184.254 231.457 183.848 231.332 183.504C231.207 183.152 231.035 182.863 230.816 182.637C230.605 182.41 230.355 182.242 230.066 182.133C229.785 182.023 229.48 181.969 229.152 181.969C228.434 181.969 227.844 182.211 227.383 182.695C226.922 183.172 226.648 183.848 226.562 184.723H231.508ZM244.902 192L242.184 187.992L239.453 192H235.996L240.461 186L236.23 180.094H239.711L242.383 184.008L245.02 180.094H248.23L244.129 185.977L248.453 192H244.902ZM260.066 191.543C259.504 191.77 258.922 191.938 258.32 192.047C257.719 192.156 257.09 192.211 256.434 192.211C255.488 192.211 254.641 192.082 253.891 191.824C253.141 191.566 252.504 191.184 251.98 190.676C251.457 190.168 251.055 189.539 250.773 188.789C250.5 188.039 250.363 187.172 250.363 186.188C250.363 185.234 250.512 184.371 250.809 183.598C251.113 182.824 251.539 182.164 252.086 181.617C252.633 181.07 253.289 180.648 254.055 180.352C254.828 180.055 255.688 179.906 256.633 179.906C257.406 179.906 258.055 179.949 258.578 180.035C259.109 180.113 259.586 180.215 260.008 180.34V183.117C259.523 182.875 258.996 182.688 258.426 182.555C257.863 182.422 257.328 182.355 256.82 182.355C256.289 182.355 255.812 182.445 255.391 182.625C254.969 182.805 254.613 183.055 254.324 183.375C254.035 183.695 253.812 184.086 253.656 184.547C253.508 185 253.434 185.5 253.434 186.047C253.434 186.617 253.516 187.129 253.68 187.582C253.844 188.035 254.074 188.422 254.371 188.742C254.676 189.055 255.039 189.297 255.461 189.469C255.883 189.633 256.352 189.715 256.867 189.715C257.117 189.715 257.379 189.699 257.652 189.668C257.934 189.629 258.211 189.578 258.484 189.516C258.766 189.445 259.039 189.367 259.305 189.281C259.578 189.195 259.832 189.102 260.066 189V191.543ZM267.473 177.668H264.109V175.441H270.402V189.773H273.836V192H263.699V189.773H267.473V177.668ZM281.723 187.676C282.051 187.676 282.355 187.738 282.637 187.863C282.918 187.98 283.16 188.145 283.363 188.355C283.574 188.559 283.738 188.801 283.855 189.082C283.973 189.363 284.031 189.664 284.031 189.984C284.031 190.297 283.973 190.594 283.855 190.875C283.738 191.148 283.574 191.391 283.363 191.602C283.16 191.805 282.918 191.965 282.637 192.082C282.355 192.207 282.051 192.27 281.723 192.27C281.41 192.27 281.117 192.207 280.844 192.082C280.57 191.965 280.332 191.805 280.129 191.602C279.926 191.391 279.766 191.148 279.648 190.875C279.531 190.594 279.473 190.297 279.473 189.984C279.473 189.664 279.531 189.363 279.648 189.082C279.766 188.801 279.926 188.559 280.129 188.355C280.332 188.145 280.57 187.98 280.844 187.863C281.117 187.738 281.41 187.676 281.723 187.676ZM300.18 187.102C300.18 187.922 300.008 188.652 299.664 189.293C299.32 189.926 298.844 190.461 298.234 190.898C297.625 191.336 296.906 191.668 296.078 191.895C295.25 192.121 294.352 192.234 293.383 192.234C293.141 192.234 292.883 192.227 292.609 192.211C292.336 192.195 292.059 192.176 291.777 192.152C291.496 192.129 291.223 192.098 290.957 192.059C290.691 192.027 290.445 191.992 290.219 191.953V189.457C290.664 189.566 291.176 189.656 291.754 189.727C292.332 189.789 292.922 189.82 293.523 189.82C294.695 189.82 295.586 189.598 296.195 189.152C296.812 188.699 297.121 188.074 297.121 187.277C297.121 186.449 296.836 185.836 296.266 185.438C295.695 185.031 294.773 184.828 293.5 184.828H290.5V176.684H299.336V179.379H293.172V182.496H294.273C295.055 182.496 295.801 182.566 296.512 182.707C297.223 182.848 297.848 183.094 298.387 183.445C298.934 183.789 299.367 184.258 299.688 184.852C300.016 185.445 300.18 186.195 300.18 187.102Z" fill="#FF5500"/>
<path d="M568.051 176.836C568.051 177.094 568.004 177.336 567.91 177.562C567.816 177.789 567.684 177.988 567.512 178.16C567.348 178.324 567.152 178.457 566.926 178.559C566.699 178.652 566.453 178.699 566.188 178.699C565.922 178.699 565.672 178.652 565.438 178.559C565.211 178.457 565.012 178.324 564.84 178.16C564.676 177.988 564.547 177.789 564.453 177.562C564.359 177.336 564.312 177.094 564.312 176.836C564.312 176.578 564.359 176.336 564.453 176.109C564.547 175.883 564.676 175.684 564.84 175.512C565.012 175.34 565.211 175.207 565.438 175.113C565.672 175.012 565.922 174.961 566.188 174.961C566.453 174.961 566.699 175.012 566.926 175.113C567.152 175.207 567.348 175.34 567.512 175.512C567.684 175.684 567.816 175.883 567.91 176.109C568.004 176.336 568.051 176.578 568.051 176.836ZM564.887 182.32H561.523V180.094H567.816V189.773H571.25V192H561.113V189.773H564.887V182.32ZM581.34 192V184.242C581.34 182.938 580.855 182.285 579.887 182.285C579.402 182.285 578.938 182.48 578.492 182.871C578.055 183.262 577.59 183.793 577.098 184.465V192H574.238V180.094H576.711L576.781 181.852C577.023 181.547 577.273 181.27 577.531 181.02C577.797 180.77 578.082 180.559 578.387 180.387C578.691 180.207 579.02 180.07 579.371 179.977C579.723 179.883 580.117 179.836 580.555 179.836C581.164 179.836 581.695 179.938 582.148 180.141C582.602 180.336 582.98 180.617 583.285 180.984C583.59 181.344 583.816 181.781 583.965 182.297C584.121 182.805 584.199 183.375 584.199 184.008V192H581.34ZM597.066 191.543C596.504 191.77 595.922 191.938 595.32 192.047C594.719 192.156 594.09 192.211 593.434 192.211C592.488 192.211 591.641 192.082 590.891 191.824C590.141 191.566 589.504 191.184 588.98 190.676C588.457 190.168 588.055 189.539 587.773 188.789C587.5 188.039 587.363 187.172 587.363 186.188C587.363 185.234 587.512 184.371 587.809 183.598C588.113 182.824 588.539 182.164 589.086 181.617C589.633 181.07 590.289 180.648 591.055 180.352C591.828 180.055 592.688 179.906 593.633 179.906C594.406 179.906 595.055 179.949 595.578 180.035C596.109 180.113 596.586 180.215 597.008 180.34V183.117C596.523 182.875 595.996 182.688 595.426 182.555C594.863 182.422 594.328 182.355 593.82 182.355C593.289 182.355 592.812 182.445 592.391 182.625C591.969 182.805 591.613 183.055 591.324 183.375C591.035 183.695 590.812 184.086 590.656 184.547C590.508 185 590.434 185.5 590.434 186.047C590.434 186.617 590.516 187.129 590.68 187.582C590.844 188.035 591.074 188.422 591.371 188.742C591.676 189.055 592.039 189.297 592.461 189.469C592.883 189.633 593.352 189.715 593.867 189.715C594.117 189.715 594.379 189.699 594.652 189.668C594.934 189.629 595.211 189.578 595.484 189.516C595.766 189.445 596.039 189.367 596.305 189.281C596.578 189.195 596.832 189.102 597.066 189V191.543ZM604.473 177.668H601.109V175.441H607.402V189.773H610.836V192H600.699V189.773H604.473V177.668ZM618.723 187.676C619.051 187.676 619.355 187.738 619.637 187.863C619.918 187.98 620.16 188.145 620.363 188.355C620.574 188.559 620.738 188.801 620.855 189.082C620.973 189.363 621.031 189.664 621.031 189.984C621.031 190.297 620.973 190.594 620.855 190.875C620.738 191.148 620.574 191.391 620.363 191.602C620.16 191.805 619.918 191.965 619.637 192.082C619.355 192.207 619.051 192.27 618.723 192.27C618.41 192.27 618.117 192.207 617.844 192.082C617.57 191.965 617.332 191.805 617.129 191.602C616.926 191.391 616.766 191.148 616.648 190.875C616.531 190.594 616.473 190.297 616.473 189.984C616.473 189.664 616.531 189.363 616.648 189.082C616.766 188.801 616.926 188.559 617.129 188.355C617.332 188.145 617.57 187.98 617.844 187.863C618.117 187.738 618.41 187.676 618.723 187.676ZM637.18 187.102C637.18 187.922 637.008 188.652 636.664 189.293C636.32 189.926 635.844 190.461 635.234 190.898C634.625 191.336 633.906 191.668 633.078 191.895C632.25 192.121 631.352 192.234 630.383 192.234C630.141 192.234 629.883 192.227 629.609 192.211C629.336 192.195 629.059 192.176 628.777 192.152C628.496 192.129 628.223 192.098 627.957 192.059C627.691 192.027 627.445 191.992 627.219 191.953V189.457C627.664 189.566 628.176 189.656 628.754 189.727C629.332 189.789 629.922 189.82 630.523 189.82C631.695 189.82 632.586 189.598 633.195 189.152C633.812 188.699 634.121 188.074 634.121 187.277C634.121 186.449 633.836 185.836 633.266 185.438C632.695 185.031 631.773 184.828 630.5 184.828H627.5V176.684H636.336V179.379H630.172V182.496H631.273C632.055 182.496 632.801 182.566 633.512 182.707C634.223 182.848 634.848 183.094 635.387 183.445C635.934 183.789 636.367 184.258 636.688 184.852C637.016 185.445 637.18 186.195 637.18 187.102Z" fill="#00B2FF"/>
<path d="M759.414 185.133C759.414 185.328 759.406 185.582 759.391 185.895C759.383 186.207 759.367 186.5 759.344 186.773H751.516C751.516 187.297 751.594 187.758 751.75 188.156C751.914 188.555 752.141 188.891 752.43 189.164C752.727 189.43 753.078 189.633 753.484 189.773C753.898 189.914 754.355 189.984 754.855 189.984C755.434 189.984 756.051 189.941 756.707 189.855C757.371 189.762 758.059 189.613 758.77 189.41V191.684C758.465 191.77 758.133 191.848 757.773 191.918C757.414 191.988 757.047 192.051 756.672 192.105C756.297 192.16 755.918 192.199 755.535 192.223C755.152 192.254 754.781 192.27 754.422 192.27C753.516 192.27 752.703 192.141 751.984 191.883C751.266 191.625 750.656 191.246 750.156 190.746C749.656 190.238 749.273 189.613 749.008 188.871C748.742 188.129 748.609 187.27 748.609 186.293C748.609 185.324 748.742 184.445 749.008 183.656C749.273 182.859 749.648 182.18 750.133 181.617C750.617 181.047 751.203 180.609 751.891 180.305C752.586 179.992 753.359 179.836 754.211 179.836C755.055 179.836 755.801 179.969 756.449 180.234C757.098 180.492 757.641 180.855 758.078 181.324C758.516 181.793 758.848 182.352 759.074 183C759.301 183.648 759.414 184.359 759.414 185.133ZM756.508 184.723C756.516 184.254 756.457 183.848 756.332 183.504C756.207 183.152 756.035 182.863 755.816 182.637C755.605 182.41 755.355 182.242 755.066 182.133C754.785 182.023 754.48 181.969 754.152 181.969C753.434 181.969 752.844 182.211 752.383 182.695C751.922 183.172 751.648 183.848 751.562 184.723H756.508ZM769.902 192L767.184 187.992L764.453 192H760.996L765.461 186L761.23 180.094H764.711L767.383 184.008L770.02 180.094H773.23L769.129 185.977L773.453 192H769.902ZM785.066 191.543C784.504 191.77 783.922 191.938 783.32 192.047C782.719 192.156 782.09 192.211 781.434 192.211C780.488 192.211 779.641 192.082 778.891 191.824C778.141 191.566 777.504 191.184 776.98 190.676C776.457 190.168 776.055 189.539 775.773 188.789C775.5 188.039 775.363 187.172 775.363 186.188C775.363 185.234 775.512 184.371 775.809 183.598C776.113 182.824 776.539 182.164 777.086 181.617C777.633 181.07 778.289 180.648 779.055 180.352C779.828 180.055 780.688 179.906 781.633 179.906C782.406 179.906 783.055 179.949 783.578 180.035C784.109 180.113 784.586 180.215 785.008 180.34V183.117C784.523 182.875 783.996 182.688 783.426 182.555C782.863 182.422 782.328 182.355 781.82 182.355C781.289 182.355 780.812 182.445 780.391 182.625C779.969 182.805 779.613 183.055 779.324 183.375C779.035 183.695 778.812 184.086 778.656 184.547C778.508 185 778.434 185.5 778.434 186.047C778.434 186.617 778.516 187.129 778.68 187.582C778.844 188.035 779.074 188.422 779.371 188.742C779.676 189.055 780.039 189.297 780.461 189.469C780.883 189.633 781.352 189.715 781.867 189.715C782.117 189.715 782.379 189.699 782.652 189.668C782.934 189.629 783.211 189.578 783.484 189.516C783.766 189.445 784.039 189.367 784.305 189.281C784.578 189.195 784.832 189.102 785.066 189V191.543ZM792.473 177.668H789.109V175.441H795.402V189.773H798.836V192H788.699V189.773H792.473V177.668ZM806.723 187.676C807.051 187.676 807.355 187.738 807.637 187.863C807.918 187.98 808.16 188.145 808.363 188.355C808.574 188.559 808.738 188.801 808.855 189.082C808.973 189.363 809.031 189.664 809.031 189.984C809.031 190.297 808.973 190.594 808.855 190.875C808.738 191.148 808.574 191.391 808.363 191.602C808.16 191.805 807.918 191.965 807.637 192.082C807.355 192.207 807.051 192.27 806.723 192.27C806.41 192.27 806.117 192.207 805.844 192.082C805.57 191.965 805.332 191.805 805.129 191.602C804.926 191.391 804.766 191.148 804.648 190.875C804.531 190.594 804.473 190.297 804.473 189.984C804.473 189.664 804.531 189.363 804.648 189.082C804.766 188.801 804.926 188.559 805.129 188.355C805.332 188.145 805.57 187.98 805.844 187.863C806.117 187.738 806.41 187.676 806.723 187.676ZM825.18 187.102C825.18 187.922 825.008 188.652 824.664 189.293C824.32 189.926 823.844 190.461 823.234 190.898C822.625 191.336 821.906 191.668 821.078 191.895C820.25 192.121 819.352 192.234 818.383 192.234C818.141 192.234 817.883 192.227 817.609 192.211C817.336 192.195 817.059 192.176 816.777 192.152C816.496 192.129 816.223 192.098 815.957 192.059C815.691 192.027 815.445 191.992 815.219 191.953V189.457C815.664 189.566 816.176 189.656 816.754 189.727C817.332 189.789 817.922 189.82 818.523 189.82C819.695 189.82 820.586 189.598 821.195 189.152C821.812 188.699 822.121 188.074 822.121 187.277C822.121 186.449 821.836 185.836 821.266 185.438C820.695 185.031 819.773 184.828 818.5 184.828H815.5V176.684H824.336V179.379H818.172V182.496H819.273C820.055 182.496 820.801 182.566 821.512 182.707C822.223 182.848 822.848 183.094 823.387 183.445C823.934 183.789 824.367 184.258 824.688 184.852C825.016 185.445 825.18 186.195 825.18 187.102Z" fill="#FF5500"/>
<path d="M286.534 276.006H279.312V248.789H286.534V250.84H281.744V273.955H286.534V276.006ZM306.471 265.767H303.204V270H300.597V265.767H291.383V263.525L299.542 250.854H303.204V263.525H306.471V265.767ZM300.597 253.315L293.932 263.525H300.597V253.315ZM318.688 276.006H311.466V273.955H316.227V250.84H311.466V248.789H318.688V276.006Z" fill="black"/>
<path d="M168.116 117.533C167.858 118.022 168.045 118.627 168.533 118.884L176.493 123.085C176.981 123.342 177.586 123.155 177.844 122.667C178.102 122.179 177.915 121.574 177.426 121.316L170.351 117.582L174.085 110.507C174.342 110.019 174.155 109.414 173.667 109.156C173.179 108.898 172.574 109.085 172.316 109.574L168.116 117.533ZM430.705 36.0446L168.705 117.045L169.295 118.955L431.295 37.9554L430.705 36.0446Z" fill="black"/>
<path d="M690.281 157.006H683.06V129.789H690.281V131.84H685.491V154.955H690.281V157.006ZM705.94 157.006H698.719V154.955H703.479V131.84H698.719V129.789H705.94V157.006Z" fill="black"/>
<path d="M694.884 117.533C695.142 118.022 694.955 118.627 694.467 118.884L686.507 123.085C686.019 123.342 685.414 123.155 685.156 122.667C684.898 122.179 685.085 121.574 685.574 121.316L692.649 117.582L688.915 110.507C688.658 110.019 688.845 109.414 689.333 109.156C689.821 108.898 690.426 109.085 690.684 109.574L694.884 117.533ZM432.295 36.0446L694.295 117.045L693.705 118.955L431.705 37.9554L432.295 36.0446Z" fill="black"/>
<path d="M35.0367 238.731C34.8884 239.263 35.1994 239.815 35.7314 239.963L44.4007 242.381C44.9327 242.529 45.4842 242.218 45.6325 241.686C45.7809 241.154 45.4699 240.602 44.9379 240.454L37.2319 238.305L39.3806 230.599C39.529 230.067 39.218 229.516 38.686 229.367C38.154 229.219 37.6025 229.53 37.4541 230.062L35.0367 238.731ZM168.509 163.129L35.5088 238.129L36.4912 239.871L169.491 164.871L168.509 163.129Z" fill="black"/>
<path d="M299.966 238.741C300.109 239.274 299.793 239.823 299.259 239.966L290.567 242.298C290.033 242.441 289.485 242.125 289.342 241.591C289.198 241.058 289.515 240.509 290.048 240.366L297.775 238.293L295.702 230.567C295.559 230.033 295.875 229.485 296.409 229.342C296.942 229.198 297.491 229.515 297.634 230.048L299.966 238.741ZM169.5 163.134L299.5 238.134L298.5 239.866L168.5 164.866L169.5 163.134Z" fill="black"/>
<path d="M563.034 238.741C562.891 239.274 563.207 239.823 563.741 239.966L572.433 242.298C572.967 242.441 573.515 242.125 573.658 241.591C573.802 241.058 573.485 240.509 572.952 240.366L565.225 238.293L567.298 230.567C567.441 230.033 567.125 229.485 566.591 229.342C566.058 229.198 565.509 229.515 565.366 230.048L563.034 238.741ZM693.5 163.134L563.5 238.134L564.5 239.866L694.5 164.866L693.5 163.134Z" fill="black"/>
<path d="M828.962 238.728C829.112 239.26 828.803 239.812 828.272 239.962L819.61 242.408C819.079 242.558 818.526 242.248 818.376 241.717C818.226 241.185 818.535 240.633 819.067 240.483L826.766 238.309L824.593 230.61C824.442 230.079 824.752 229.526 825.283 229.376C825.815 229.226 826.367 229.535 826.517 230.067L828.962 238.728ZM694.488 163.127L828.488 238.127L827.512 239.873L693.512 164.873L694.488 163.127Z" fill="black"/>
<path d="M823.281 276.006H816.06V248.789H823.281V250.84H818.491V273.955H823.281V276.006ZM838.94 276.006H831.719V273.955H836.479V250.84H831.719V248.789H838.94V276.006Z" fill="black"/>
<path d="M551.534 276.006H544.312V248.789H551.534V250.84H546.744V273.955H551.534V276.006ZM570.035 263.877C570.035 264.824 569.83 265.688 569.42 266.47C569.01 267.251 568.443 267.925 567.721 268.491C567.008 269.048 566.163 269.482 565.187 269.795C564.21 270.107 563.155 270.264 562.022 270.264C561.739 270.264 561.432 270.254 561.1 270.234C560.777 270.225 560.455 270.205 560.133 270.176C559.811 270.156 559.493 270.132 559.181 270.103C558.878 270.073 558.604 270.039 558.36 270V267.686C558.888 267.812 559.488 267.905 560.162 267.964C560.846 268.022 561.534 268.052 562.228 268.052C563.009 268.052 563.712 267.959 564.337 267.773C564.962 267.588 565.494 267.324 565.934 266.982C566.373 266.631 566.71 266.211 566.944 265.723C567.179 265.225 567.296 264.668 567.296 264.053C567.296 262.861 566.866 261.997 566.007 261.46C565.157 260.913 563.932 260.64 562.33 260.64H558.697V250.854H569.01V253.081H561.1V258.457H562.77C563.688 258.457 564.581 258.54 565.45 258.706C566.319 258.872 567.091 259.165 567.765 259.585C568.448 259.995 568.995 260.552 569.405 261.255C569.825 261.948 570.035 262.822 570.035 263.877ZM583.688 276.006H576.466V273.955H581.227V250.84H576.466V248.789H583.688V276.006Z" fill="black"/>
</g>
<defs>
<clipPath id="clip0_6292_3677">
<rect width="840" height="278" fill="white"/>
</clipPath>
</defs>
</svg>
