<svg width="697" height="251" viewBox="0 0 697 251" fill="none" xmlns="http://www.w3.org/2000/svg">
<g clip-path="url(#clip0_6201_3771)">
<rect width="697" height="251" fill="white"/>
<circle cx="41" cy="46" r="23.75" fill="#F2FBFF" stroke="#00B2FF" stroke-width="2.5"/>
<path d="M135.884 46.8839C136.372 46.3957 136.372 45.6043 135.884 45.1161L127.929 37.1612C127.441 36.673 126.649 36.673 126.161 37.1612C125.673 37.6493 125.673 38.4408 126.161 38.9289L133.232 46L126.161 53.0711C125.673 53.5592 125.673 54.3507 126.161 54.8388C126.649 55.327 127.441 55.327 127.929 54.8388L135.884 46.8839ZM65 47.25H135V44.75H65V47.25Z" fill="black"/>
<circle cx="163" cy="46" r="23.75" fill="#F2FBFF" stroke="#00B2FF" stroke-width="2.5"/>
<path d="M258.884 46.8839C259.372 46.3957 259.372 45.6043 258.884 45.1161L250.929 37.1612C250.441 36.673 249.649 36.673 249.161 37.1612C248.673 37.6493 248.673 38.4408 249.161 38.9289L256.232 46L249.161 53.0711C248.673 53.5592 248.673 54.3507 249.161 54.8388C249.649 55.327 250.441 55.327 250.929 54.8388L258.884 46.8839ZM188 47.25H258V44.75H188V47.25Z" fill="black"/>
<circle cx="286" cy="46" r="23.75" fill="#F2FBFF" stroke="#00B2FF" stroke-width="2.5"/>
<circle cx="164" cy="144" r="25" fill="#FAF1FF" stroke="#AE0DFF" stroke-width="2.5" stroke-linecap="round"/>
<path d="M258.884 144.884C259.372 144.396 259.372 143.604 258.884 143.116L250.929 135.161C250.441 134.673 249.649 134.673 249.161 135.161C248.673 135.649 248.673 136.441 249.161 136.929L256.232 144L249.161 151.071C248.673 151.559 248.673 152.351 249.161 152.839C249.649 153.327 250.441 153.327 250.929 152.839L258.884 144.884ZM188 145.25H258V142.75H188V145.25Z" fill="black"/>
<path d="M381.884 46.8839C382.372 46.3957 382.372 45.6043 381.884 45.1161L373.929 37.1612C373.441 36.673 372.649 36.673 372.161 37.1612C371.673 37.6493 371.673 38.4408 372.161 38.9289L379.232 46L372.161 53.0711C371.673 53.5592 371.673 54.3507 372.161 54.8388C372.649 55.327 373.441 55.327 373.929 54.8388L381.884 46.8839ZM311 47.25H381V44.75H311V47.25Z" fill="black"/>
<path d="M381.884 144.884C382.372 144.396 382.372 143.604 381.884 143.116L373.929 135.161C373.441 134.673 372.649 134.673 372.161 135.161C371.673 135.649 371.673 136.441 372.161 136.929L379.232 144L372.161 151.071C371.673 151.559 371.673 152.351 372.161 152.839C372.649 153.327 373.441 153.327 373.929 152.839L381.884 144.884ZM311 145.25H381V142.75H311V145.25Z" fill="black"/>
<circle cx="287" cy="144" r="25" fill="#FAF1FF" stroke="#AE0DFF" stroke-width="2.5" stroke-linecap="round"/>
<path d="M10.2764 92H8.06738V83.8623C8.06738 82.8805 7.88118 82.1484 7.50879 81.666C7.14486 81.1751 6.62012 80.9297 5.93457 80.9297C5.63835 80.9297 5.35905 80.972 5.09668 81.0566C4.84277 81.1328 4.57617 81.2725 4.29688 81.4756C4.01758 81.6702 3.71289 81.9368 3.38281 82.2754C3.05273 82.6139 2.67188 83.0371 2.24023 83.5449V92H0.03125V74.0615H2.24023V79.2539L2.16406 81.2598C2.51107 80.8451 2.84961 80.498 3.17969 80.2188C3.51823 79.931 3.85254 79.6982 4.18262 79.5205C4.52116 79.3428 4.86393 79.2158 5.21094 79.1396C5.55794 79.0635 5.91764 79.0254 6.29004 79.0254C7.55957 79.0254 8.54134 79.4147 9.23535 80.1934C9.92936 80.9635 10.2764 82.1273 10.2764 83.6846V92ZM25.0918 84.9541C25.0918 85.2673 25.0876 85.5296 25.0791 85.7412C25.0706 85.9528 25.0579 86.1517 25.041 86.3379H16.0908C16.0908 87.6413 16.4548 88.6442 17.1826 89.3467C17.9105 90.0407 18.96 90.3877 20.3311 90.3877C20.7035 90.3877 21.0758 90.375 21.4482 90.3496C21.8206 90.3158 22.1803 90.2734 22.5273 90.2227C22.8743 90.1719 23.2044 90.1169 23.5176 90.0576C23.8392 89.9899 24.1354 89.918 24.4062 89.8418V91.6572C23.8053 91.8265 23.124 91.9619 22.3623 92.0635C21.609 92.1735 20.8262 92.2285 20.0137 92.2285C18.9219 92.2285 17.9824 92.0804 17.1953 91.7842C16.4082 91.488 15.7607 91.0605 15.2529 90.502C14.7536 89.9349 14.3812 89.2451 14.1357 88.4326C13.8988 87.6117 13.7803 86.6849 13.7803 85.6523C13.7803 84.7552 13.9072 83.9089 14.1611 83.1133C14.4235 82.3092 14.8001 81.6068 15.291 81.0059C15.7904 80.3965 16.3997 79.9141 17.1191 79.5586C17.8385 79.2031 18.6553 79.0254 19.5693 79.0254C20.458 79.0254 21.2451 79.165 21.9307 79.4443C22.6162 79.7236 23.1917 80.1214 23.6572 80.6377C24.1312 81.1455 24.4867 81.7676 24.7236 82.5039C24.9691 83.2318 25.0918 84.0485 25.0918 84.9541ZM22.7939 84.6367C22.8193 84.0697 22.7643 83.5534 22.6289 83.0879C22.4935 82.6139 22.2819 82.2077 21.9941 81.8691C21.7148 81.5306 21.3636 81.2682 20.9404 81.082C20.5173 80.8874 20.0264 80.79 19.4678 80.79C18.9854 80.79 18.5452 80.8831 18.1475 81.0693C17.7497 81.2555 17.4069 81.5179 17.1191 81.8564C16.8314 82.195 16.5986 82.6012 16.4209 83.0752C16.2432 83.5492 16.1331 84.0697 16.0908 84.6367H22.7939ZM36.8096 92L36.7588 90.2861C36.0648 90.9717 35.3581 91.4668 34.6387 91.7715C33.9277 92.0762 33.1787 92.2285 32.3916 92.2285C31.6637 92.2285 31.0417 92.1354 30.5254 91.9492C30.0091 91.763 29.5817 91.5091 29.2432 91.1875C28.9131 90.8574 28.6676 90.4723 28.5068 90.0322C28.3545 89.5921 28.2783 89.1139 28.2783 88.5977C28.2783 87.3197 28.7523 86.321 29.7002 85.6016C30.6566 84.8737 32.0658 84.5098 33.9277 84.5098H36.5684V83.3926C36.5684 82.6393 36.3271 82.0384 35.8447 81.5898C35.3623 81.1328 34.626 80.9043 33.6357 80.9043C32.9163 80.9043 32.2054 80.9847 31.5029 81.1455C30.8089 81.3063 30.0895 81.5348 29.3447 81.8311V79.8379C29.624 79.7363 29.9329 79.639 30.2715 79.5459C30.6185 79.4443 30.9824 79.3555 31.3633 79.2793C31.7441 79.2031 32.1419 79.1439 32.5566 79.1016C32.9714 79.0508 33.3903 79.0254 33.8135 79.0254C34.5837 79.0254 35.2777 79.11 35.8955 79.2793C36.5133 79.4486 37.0339 79.7067 37.457 80.0537C37.8887 80.4007 38.2188 80.8366 38.4473 81.3613C38.6758 81.8861 38.79 82.5039 38.79 83.2148V92H36.8096ZM36.5684 86.1982H33.7627C33.2126 86.1982 32.7386 86.2533 32.3408 86.3633C31.943 86.4733 31.6172 86.6299 31.3633 86.833C31.1094 87.0361 30.9189 87.2816 30.792 87.5693C30.6735 87.8486 30.6143 88.166 30.6143 88.5215C30.6143 88.7669 30.6523 89.0039 30.7285 89.2324C30.8047 89.4525 30.9274 89.6514 31.0967 89.8291C31.266 89.9984 31.486 90.1338 31.7568 90.2354C32.0277 90.3369 32.3577 90.3877 32.7471 90.3877C33.2549 90.3877 33.8346 90.2354 34.4863 89.9307C35.1465 89.6175 35.8405 89.1266 36.5684 88.458V86.1982ZM42.2686 85.8936C42.2686 84.8102 42.4167 83.8496 42.7129 83.0117C43.0091 82.1654 43.4281 81.4544 43.9697 80.8789C44.5199 80.2949 45.1758 79.8548 45.9375 79.5586C46.7077 79.2539 47.5625 79.1016 48.502 79.1016C48.9082 79.1016 49.306 79.127 49.6953 79.1777C50.0931 79.2285 50.4824 79.3089 50.8633 79.4189V74.0615H53.085V92H51.1045L51.0283 89.5879C50.4105 90.485 49.7419 91.1494 49.0225 91.5811C48.3031 92.0127 47.5244 92.2285 46.6865 92.2285C45.9587 92.2285 45.3154 92.0762 44.7568 91.7715C44.2067 91.4668 43.7454 91.0394 43.373 90.4893C43.0091 89.9307 42.734 89.262 42.5479 88.4834C42.3617 87.7048 42.2686 86.8415 42.2686 85.8936ZM44.5283 85.7539C44.5283 87.2943 44.7526 88.4453 45.2012 89.207C45.6582 89.9603 46.3014 90.3369 47.1309 90.3369C47.6895 90.3369 48.2777 90.0872 48.8955 89.5879C49.5218 89.0885 50.1777 88.348 50.8633 87.3662V81.4502C50.4993 81.2809 50.0973 81.154 49.6572 81.0693C49.2171 80.9762 48.7812 80.9297 48.3496 80.9297C47.1478 80.9297 46.2083 81.319 45.5312 82.0977C44.8626 82.8763 44.5283 84.0951 44.5283 85.7539ZM69.4746 97.2051H55.1797V95.377H69.4746V97.2051ZM83.6426 92H81.1797L80.0244 88.3818H73.1182L71.9502 92H69.6016L75.1113 75.4072H78.209L83.6426 92ZM79.377 86.3633L76.5713 77.4893L73.7656 86.3633H79.377Z" fill="black"/>
<path d="M133.276 192H131.067V183.862C131.067 182.881 130.881 182.148 130.509 181.666C130.145 181.175 129.62 180.93 128.935 180.93C128.638 180.93 128.359 180.972 128.097 181.057C127.843 181.133 127.576 181.272 127.297 181.476C127.018 181.67 126.713 181.937 126.383 182.275C126.053 182.614 125.672 183.037 125.24 183.545V192H123.031V174.062H125.24V179.254L125.164 181.26C125.511 180.845 125.85 180.498 126.18 180.219C126.518 179.931 126.853 179.698 127.183 179.521C127.521 179.343 127.864 179.216 128.211 179.14C128.558 179.063 128.918 179.025 129.29 179.025C130.56 179.025 131.541 179.415 132.235 180.193C132.929 180.964 133.276 182.127 133.276 183.685V192ZM148.092 184.954C148.092 185.267 148.088 185.53 148.079 185.741C148.071 185.953 148.058 186.152 148.041 186.338H139.091C139.091 187.641 139.455 188.644 140.183 189.347C140.91 190.041 141.96 190.388 143.331 190.388C143.703 190.388 144.076 190.375 144.448 190.35C144.821 190.316 145.18 190.273 145.527 190.223C145.874 190.172 146.204 190.117 146.518 190.058C146.839 189.99 147.135 189.918 147.406 189.842V191.657C146.805 191.826 146.124 191.962 145.362 192.063C144.609 192.174 143.826 192.229 143.014 192.229C141.922 192.229 140.982 192.08 140.195 191.784C139.408 191.488 138.761 191.061 138.253 190.502C137.754 189.935 137.381 189.245 137.136 188.433C136.899 187.612 136.78 186.685 136.78 185.652C136.78 184.755 136.907 183.909 137.161 183.113C137.424 182.309 137.8 181.607 138.291 181.006C138.79 180.396 139.4 179.914 140.119 179.559C140.839 179.203 141.655 179.025 142.569 179.025C143.458 179.025 144.245 179.165 144.931 179.444C145.616 179.724 146.192 180.121 146.657 180.638C147.131 181.146 147.487 181.768 147.724 182.504C147.969 183.232 148.092 184.049 148.092 184.954ZM145.794 184.637C145.819 184.07 145.764 183.553 145.629 183.088C145.493 182.614 145.282 182.208 144.994 181.869C144.715 181.531 144.364 181.268 143.94 181.082C143.517 180.887 143.026 180.79 142.468 180.79C141.985 180.79 141.545 180.883 141.147 181.069C140.75 181.256 140.407 181.518 140.119 181.856C139.831 182.195 139.599 182.601 139.421 183.075C139.243 183.549 139.133 184.07 139.091 184.637H145.794ZM159.81 192L159.759 190.286C159.065 190.972 158.358 191.467 157.639 191.771C156.928 192.076 156.179 192.229 155.392 192.229C154.664 192.229 154.042 192.135 153.525 191.949C153.009 191.763 152.582 191.509 152.243 191.188C151.913 190.857 151.668 190.472 151.507 190.032C151.354 189.592 151.278 189.114 151.278 188.598C151.278 187.32 151.752 186.321 152.7 185.602C153.657 184.874 155.066 184.51 156.928 184.51H159.568V183.393C159.568 182.639 159.327 182.038 158.845 181.59C158.362 181.133 157.626 180.904 156.636 180.904C155.916 180.904 155.205 180.985 154.503 181.146C153.809 181.306 153.09 181.535 152.345 181.831V179.838C152.624 179.736 152.933 179.639 153.271 179.546C153.618 179.444 153.982 179.355 154.363 179.279C154.744 179.203 155.142 179.144 155.557 179.102C155.971 179.051 156.39 179.025 156.813 179.025C157.584 179.025 158.278 179.11 158.896 179.279C159.513 179.449 160.034 179.707 160.457 180.054C160.889 180.401 161.219 180.837 161.447 181.361C161.676 181.886 161.79 182.504 161.79 183.215V192H159.81ZM159.568 186.198H156.763C156.213 186.198 155.739 186.253 155.341 186.363C154.943 186.473 154.617 186.63 154.363 186.833C154.109 187.036 153.919 187.282 153.792 187.569C153.674 187.849 153.614 188.166 153.614 188.521C153.614 188.767 153.652 189.004 153.729 189.232C153.805 189.452 153.927 189.651 154.097 189.829C154.266 189.998 154.486 190.134 154.757 190.235C155.028 190.337 155.358 190.388 155.747 190.388C156.255 190.388 156.835 190.235 157.486 189.931C158.146 189.618 158.84 189.127 159.568 188.458V186.198ZM165.269 185.894C165.269 184.81 165.417 183.85 165.713 183.012C166.009 182.165 166.428 181.454 166.97 180.879C167.52 180.295 168.176 179.855 168.938 179.559C169.708 179.254 170.562 179.102 171.502 179.102C171.908 179.102 172.306 179.127 172.695 179.178C173.093 179.229 173.482 179.309 173.863 179.419V174.062H176.085V192H174.104L174.028 189.588C173.41 190.485 172.742 191.149 172.022 191.581C171.303 192.013 170.524 192.229 169.687 192.229C168.959 192.229 168.315 192.076 167.757 191.771C167.207 191.467 166.745 191.039 166.373 190.489C166.009 189.931 165.734 189.262 165.548 188.483C165.362 187.705 165.269 186.841 165.269 185.894ZM167.528 185.754C167.528 187.294 167.753 188.445 168.201 189.207C168.658 189.96 169.301 190.337 170.131 190.337C170.689 190.337 171.278 190.087 171.896 189.588C172.522 189.089 173.178 188.348 173.863 187.366V181.45C173.499 181.281 173.097 181.154 172.657 181.069C172.217 180.976 171.781 180.93 171.35 180.93C170.148 180.93 169.208 181.319 168.531 182.098C167.863 182.876 167.528 184.095 167.528 185.754ZM192.475 197.205H178.18V195.377H192.475V197.205ZM205.373 187.036C205.373 187.832 205.216 188.538 204.903 189.156C204.599 189.766 204.159 190.282 203.583 190.705C203.016 191.128 202.326 191.45 201.514 191.67C200.71 191.89 199.812 192 198.822 192H194.48V175.407H199.229C202.927 175.407 204.776 176.753 204.776 179.444C204.776 180.341 204.561 181.112 204.129 181.755C203.706 182.398 203.012 182.876 202.047 183.189C202.495 183.274 202.919 183.418 203.316 183.621C203.723 183.824 204.078 184.087 204.383 184.408C204.688 184.73 204.929 185.111 205.106 185.551C205.284 185.991 205.373 186.486 205.373 187.036ZM202.428 179.749C202.428 179.41 202.377 179.093 202.275 178.797C202.174 178.492 201.996 178.234 201.742 178.022C201.488 177.802 201.146 177.629 200.714 177.502C200.282 177.375 199.736 177.312 199.076 177.312H196.74V182.504H199C199.516 182.504 199.982 182.449 200.396 182.339C200.82 182.229 201.179 182.06 201.476 181.831C201.78 181.603 202.013 181.319 202.174 180.98C202.343 180.633 202.428 180.223 202.428 179.749ZM202.974 187.112C202.974 186.689 202.885 186.308 202.707 185.97C202.529 185.631 202.271 185.348 201.933 185.119C201.594 184.882 201.179 184.7 200.688 184.573C200.206 184.446 199.66 184.383 199.051 184.383H196.74V190.096H199.127C200.422 190.096 201.387 189.854 202.021 189.372C202.656 188.89 202.974 188.136 202.974 187.112Z" fill="black"/>
<rect x="358.5" y="1.5" width="337" height="183" stroke="#FF5500" stroke-width="3"/>
<path d="M407.894 195.01L412.773 185.061L401.226 184.939L405.895 194.989L407.894 195.01ZM523.57 228.403C524.069 228.64 524.666 228.428 524.903 227.929L528.767 219.801C529.004 219.302 528.792 218.706 528.293 218.469C527.795 218.231 527.198 218.444 526.961 218.942L523.526 226.167L516.301 222.733C515.802 222.495 515.206 222.708 514.968 223.206C514.731 223.705 514.943 224.302 515.442 224.539L523.57 228.403ZM405.92 194.17C406.753 198.897 409.088 202.343 412.555 204.784C415.987 207.201 420.479 208.602 425.606 209.381C435.838 210.935 449.008 210.059 462.264 209.394C475.596 208.725 489.048 208.265 500.088 210.554C511.095 212.836 519.49 217.8 523.058 227.835L524.942 227.165C521.047 216.209 511.859 210.952 500.494 208.596C489.162 206.246 475.453 206.73 462.164 207.396C448.799 208.067 435.887 208.919 425.906 207.403C420.927 206.647 416.78 205.314 413.706 203.149C410.667 201.008 408.63 198.024 407.89 193.823L405.92 194.17Z" fill="#FF5500"/>
<path d="M446.124 244.521C446.124 244.97 446.048 245.372 445.896 245.728C445.743 246.083 445.536 246.4 445.273 246.68C445.011 246.951 444.706 247.183 444.359 247.378C444.012 247.573 443.64 247.733 443.242 247.86C442.853 247.987 442.451 248.08 442.036 248.14C441.621 248.199 441.215 248.229 440.817 248.229C439.954 248.229 439.159 248.19 438.431 248.114C437.711 248.038 437.005 247.915 436.311 247.746V245.715C437.055 245.926 437.796 246.087 438.532 246.197C439.269 246.307 440.001 246.362 440.729 246.362C441.786 246.362 442.569 246.218 443.077 245.931C443.585 245.643 443.839 245.232 443.839 244.699C443.839 244.471 443.797 244.268 443.712 244.09C443.636 243.904 443.492 243.73 443.28 243.569C443.069 243.4 442.739 243.227 442.29 243.049C441.85 242.871 441.245 242.668 440.475 242.439C439.899 242.27 439.366 242.08 438.875 241.868C438.393 241.648 437.974 241.39 437.618 241.094C437.263 240.798 436.983 240.451 436.78 240.053C436.577 239.655 436.476 239.185 436.476 238.644C436.476 238.288 436.556 237.899 436.717 237.476C436.886 237.052 437.17 236.659 437.567 236.295C437.965 235.931 438.503 235.631 439.18 235.394C439.857 235.148 440.703 235.025 441.719 235.025C442.218 235.025 442.772 235.055 443.382 235.114C443.991 235.165 444.626 235.258 445.286 235.394V237.361C444.592 237.192 443.932 237.069 443.306 236.993C442.688 236.909 442.15 236.866 441.693 236.866C441.143 236.866 440.678 236.909 440.297 236.993C439.924 237.078 439.62 237.196 439.383 237.349C439.154 237.493 438.989 237.666 438.888 237.869C438.786 238.064 438.735 238.275 438.735 238.504C438.735 238.732 438.778 238.94 438.862 239.126C438.955 239.312 439.12 239.494 439.357 239.672C439.603 239.841 439.941 240.015 440.373 240.192C440.805 240.362 441.368 240.548 442.062 240.751C442.815 240.971 443.45 241.204 443.966 241.449C444.482 241.686 444.901 241.953 445.223 242.249C445.544 242.545 445.773 242.88 445.908 243.252C446.052 243.624 446.124 244.048 446.124 244.521ZM458.515 248L458.464 246.286C457.77 246.972 457.063 247.467 456.344 247.771C455.633 248.076 454.884 248.229 454.097 248.229C453.369 248.229 452.747 248.135 452.23 247.949C451.714 247.763 451.287 247.509 450.948 247.188C450.618 246.857 450.373 246.472 450.212 246.032C450.06 245.592 449.983 245.114 449.983 244.598C449.983 243.32 450.457 242.321 451.405 241.602C452.362 240.874 453.771 240.51 455.633 240.51H458.273V239.393C458.273 238.639 458.032 238.038 457.55 237.59C457.067 237.133 456.331 236.904 455.341 236.904C454.621 236.904 453.91 236.985 453.208 237.146C452.514 237.306 451.795 237.535 451.05 237.831V235.838C451.329 235.736 451.638 235.639 451.977 235.546C452.324 235.444 452.688 235.355 453.068 235.279C453.449 235.203 453.847 235.144 454.262 235.102C454.676 235.051 455.095 235.025 455.519 235.025C456.289 235.025 456.983 235.11 457.601 235.279C458.218 235.449 458.739 235.707 459.162 236.054C459.594 236.401 459.924 236.837 460.152 237.361C460.381 237.886 460.495 238.504 460.495 239.215V248H458.515ZM458.273 242.198H455.468C454.918 242.198 454.444 242.253 454.046 242.363C453.648 242.473 453.322 242.63 453.068 242.833C452.814 243.036 452.624 243.282 452.497 243.569C452.379 243.849 452.319 244.166 452.319 244.521C452.319 244.767 452.357 245.004 452.434 245.232C452.51 245.452 452.632 245.651 452.802 245.829C452.971 245.998 453.191 246.134 453.462 246.235C453.733 246.337 454.063 246.388 454.452 246.388C454.96 246.388 455.54 246.235 456.191 245.931C456.852 245.618 457.546 245.127 458.273 244.458V242.198ZM473.711 248V238.847C473.711 238.449 473.694 238.123 473.66 237.869C473.635 237.615 473.588 237.416 473.521 237.272C473.461 237.12 473.381 237.014 473.279 236.955C473.186 236.896 473.068 236.866 472.924 236.866C472.755 236.866 472.598 236.917 472.454 237.019C472.31 237.12 472.154 237.285 471.984 237.514C471.824 237.742 471.642 238.047 471.438 238.428C471.244 238.8 471.011 239.261 470.74 239.812V248H468.722V239.088C468.722 238.622 468.705 238.246 468.671 237.958C468.646 237.67 468.599 237.446 468.531 237.285C468.472 237.124 468.392 237.014 468.29 236.955C468.188 236.896 468.066 236.866 467.922 236.866C467.77 236.866 467.626 236.909 467.49 236.993C467.355 237.078 467.202 237.23 467.033 237.45C466.872 237.67 466.69 237.971 466.487 238.352C466.284 238.732 466.043 239.219 465.764 239.812V248H463.732V235.254H465.421L465.522 237.679C465.743 237.196 465.954 236.786 466.157 236.447C466.369 236.109 466.585 235.838 466.805 235.635C467.025 235.423 467.257 235.271 467.503 235.178C467.757 235.076 468.036 235.025 468.341 235.025C469.026 235.025 469.547 235.25 469.902 235.698C470.258 236.147 470.436 236.841 470.436 237.78C470.639 237.34 470.838 236.951 471.032 236.612C471.227 236.265 471.434 235.978 471.654 235.749C471.883 235.512 472.132 235.334 472.403 235.216C472.674 235.089 472.987 235.025 473.343 235.025C474.942 235.025 475.742 236.257 475.742 238.72V248H473.711ZM489.682 240.954C489.682 241.267 489.677 241.53 489.669 241.741C489.66 241.953 489.648 242.152 489.631 242.338H480.681C480.681 243.641 481.045 244.644 481.772 245.347C482.5 246.041 483.55 246.388 484.921 246.388C485.293 246.388 485.666 246.375 486.038 246.35C486.41 246.316 486.77 246.273 487.117 246.223C487.464 246.172 487.794 246.117 488.107 246.058C488.429 245.99 488.725 245.918 488.996 245.842V247.657C488.395 247.826 487.714 247.962 486.952 248.063C486.199 248.174 485.416 248.229 484.604 248.229C483.512 248.229 482.572 248.08 481.785 247.784C480.998 247.488 480.351 247.061 479.843 246.502C479.343 245.935 478.971 245.245 478.726 244.433C478.489 243.612 478.37 242.685 478.37 241.652C478.37 240.755 478.497 239.909 478.751 239.113C479.013 238.309 479.39 237.607 479.881 237.006C480.38 236.396 480.99 235.914 481.709 235.559C482.428 235.203 483.245 235.025 484.159 235.025C485.048 235.025 485.835 235.165 486.521 235.444C487.206 235.724 487.782 236.121 488.247 236.638C488.721 237.146 489.076 237.768 489.313 238.504C489.559 239.232 489.682 240.049 489.682 240.954ZM487.384 240.637C487.409 240.07 487.354 239.553 487.219 239.088C487.083 238.614 486.872 238.208 486.584 237.869C486.305 237.531 485.953 237.268 485.53 237.082C485.107 236.887 484.616 236.79 484.058 236.79C483.575 236.79 483.135 236.883 482.737 237.069C482.34 237.256 481.997 237.518 481.709 237.856C481.421 238.195 481.188 238.601 481.011 239.075C480.833 239.549 480.723 240.07 480.681 240.637H487.384ZM517.776 247.822C517.277 247.949 516.761 248.038 516.228 248.089C515.694 248.148 515.153 248.178 514.603 248.178C513.003 248.178 511.81 247.818 511.022 247.099C510.235 246.371 509.842 245.258 509.842 243.76V237.107H506.274V235.254H509.842V231.75L512.051 231.179V235.254H517.776V237.107H512.051V243.582C512.051 244.496 512.292 245.182 512.774 245.639C513.265 246.087 513.985 246.312 514.933 246.312C515.339 246.312 515.783 246.282 516.266 246.223C516.748 246.155 517.252 246.053 517.776 245.918V247.822ZM529.989 248L529.938 246.286C529.244 246.972 528.538 247.467 527.818 247.771C527.107 248.076 526.358 248.229 525.571 248.229C524.843 248.229 524.221 248.135 523.705 247.949C523.189 247.763 522.761 247.509 522.423 247.188C522.093 246.857 521.847 246.472 521.687 246.032C521.534 245.592 521.458 245.114 521.458 244.598C521.458 243.32 521.932 242.321 522.88 241.602C523.836 240.874 525.245 240.51 527.107 240.51H529.748V239.393C529.748 238.639 529.507 238.038 529.024 237.59C528.542 237.133 527.806 236.904 526.815 236.904C526.096 236.904 525.385 236.985 524.683 237.146C523.989 237.306 523.269 237.535 522.524 237.831V235.838C522.804 235.736 523.113 235.639 523.451 235.546C523.798 235.444 524.162 235.355 524.543 235.279C524.924 235.203 525.322 235.144 525.736 235.102C526.151 235.051 526.57 235.025 526.993 235.025C527.763 235.025 528.457 235.11 529.075 235.279C529.693 235.449 530.214 235.707 530.637 236.054C531.068 236.401 531.398 236.837 531.627 237.361C531.855 237.886 531.97 238.504 531.97 239.215V248H529.989ZM529.748 242.198H526.942C526.392 242.198 525.918 242.253 525.521 242.363C525.123 242.473 524.797 242.63 524.543 242.833C524.289 243.036 524.099 243.282 523.972 243.569C523.853 243.849 523.794 244.166 523.794 244.521C523.794 244.767 523.832 245.004 523.908 245.232C523.984 245.452 524.107 245.651 524.276 245.829C524.446 245.998 524.666 246.134 524.937 246.235C525.207 246.337 525.537 246.388 525.927 246.388C526.435 246.388 527.014 246.235 527.666 245.931C528.326 245.618 529.02 245.127 529.748 244.458V242.198ZM540.438 237.082H536.667V235.254H542.672V246.159H546.468V248H536.248V246.159H540.438V237.082ZM541.212 229.909C541.457 229.909 541.686 229.956 541.897 230.049C542.109 230.133 542.291 230.256 542.443 230.417C542.604 230.578 542.727 230.764 542.812 230.976C542.905 231.179 542.951 231.403 542.951 231.648C542.951 231.885 542.905 232.11 542.812 232.321C542.727 232.533 542.604 232.719 542.443 232.88C542.291 233.041 542.109 233.168 541.897 233.261C541.686 233.345 541.457 233.388 541.212 233.388C540.966 233.388 540.738 233.345 540.526 233.261C540.315 233.168 540.129 233.041 539.968 232.88C539.815 232.719 539.693 232.533 539.6 232.321C539.515 232.11 539.473 231.885 539.473 231.648C539.473 231.403 539.515 231.179 539.6 230.976C539.693 230.764 539.815 230.578 539.968 230.417C540.129 230.256 540.315 230.133 540.526 230.049C540.738 229.956 540.966 229.909 541.212 229.909ZM554.732 231.877H550.962V230.062H556.967V246.159H560.763V248H550.543V246.159H554.732V231.877ZM578.98 235.254H580.948L581.037 237.311C581.41 236.87 581.769 236.507 582.116 236.219C582.463 235.923 582.802 235.686 583.132 235.508C583.47 235.33 583.813 235.207 584.16 235.14C584.507 235.063 584.867 235.025 585.239 235.025C586.551 235.025 587.541 235.415 588.21 236.193C588.887 236.964 589.226 238.127 589.226 239.685V248H587.017V239.862C587.017 238.864 586.83 238.127 586.458 237.653C586.086 237.171 585.531 236.93 584.795 236.93C584.524 236.93 584.257 236.972 583.995 237.057C583.741 237.133 583.475 237.272 583.195 237.476C582.916 237.67 582.611 237.937 582.281 238.275C581.96 238.614 581.596 239.037 581.189 239.545V248H578.98V235.254ZM604.371 241.525C604.371 242.516 604.231 243.425 603.952 244.255C603.673 245.076 603.271 245.783 602.746 246.375C602.221 246.959 601.582 247.416 600.829 247.746C600.076 248.068 599.221 248.229 598.265 248.229C597.351 248.229 596.53 248.089 595.802 247.81C595.082 247.522 594.469 247.103 593.961 246.553C593.462 246.003 593.076 245.321 592.806 244.509C592.543 243.696 592.412 242.761 592.412 241.703C592.412 240.713 592.552 239.812 592.831 238.999C593.11 238.178 593.512 237.476 594.037 236.892C594.562 236.299 595.201 235.842 595.954 235.521C596.707 235.19 597.562 235.025 598.519 235.025C599.433 235.025 600.249 235.169 600.969 235.457C601.697 235.736 602.31 236.151 602.81 236.701C603.317 237.243 603.702 237.92 603.965 238.732C604.236 239.545 604.371 240.476 604.371 241.525ZM602.111 241.627C602.111 240.84 602.022 240.154 601.845 239.57C601.675 238.978 601.43 238.487 601.108 238.098C600.787 237.7 600.393 237.404 599.928 237.209C599.471 237.006 598.959 236.904 598.392 236.904C597.731 236.904 597.164 237.035 596.69 237.298C596.225 237.552 595.84 237.895 595.535 238.326C595.239 238.758 595.019 239.261 594.875 239.837C594.74 240.404 594.672 241.001 594.672 241.627C594.672 242.414 594.757 243.104 594.926 243.696C595.104 244.289 595.353 244.784 595.675 245.182C595.996 245.571 596.386 245.867 596.843 246.07C597.3 246.265 597.816 246.362 598.392 246.362C599.052 246.362 599.615 246.235 600.08 245.981C600.554 245.719 600.939 245.372 601.235 244.94C601.54 244.509 601.76 244.009 601.896 243.442C602.039 242.867 602.111 242.262 602.111 241.627ZM606.923 241.894C606.923 240.81 607.071 239.85 607.367 239.012C607.663 238.165 608.082 237.454 608.624 236.879C609.174 236.295 609.83 235.855 610.592 235.559C611.362 235.254 612.217 235.102 613.156 235.102C613.562 235.102 613.96 235.127 614.35 235.178C614.747 235.229 615.137 235.309 615.518 235.419V230.062H617.739V248H615.759L615.683 245.588C615.065 246.485 614.396 247.149 613.677 247.581C612.957 248.013 612.179 248.229 611.341 248.229C610.613 248.229 609.97 248.076 609.411 247.771C608.861 247.467 608.4 247.039 608.027 246.489C607.663 245.931 607.388 245.262 607.202 244.483C607.016 243.705 606.923 242.841 606.923 241.894ZM609.183 241.754C609.183 243.294 609.407 244.445 609.855 245.207C610.312 245.96 610.956 246.337 611.785 246.337C612.344 246.337 612.932 246.087 613.55 245.588C614.176 245.089 614.832 244.348 615.518 243.366V237.45C615.154 237.281 614.752 237.154 614.312 237.069C613.871 236.976 613.436 236.93 613.004 236.93C611.802 236.93 610.863 237.319 610.186 238.098C609.517 238.876 609.183 240.095 609.183 241.754ZM632.631 240.954C632.631 241.267 632.627 241.53 632.618 241.741C632.61 241.953 632.597 242.152 632.58 242.338H623.63C623.63 243.641 623.994 244.644 624.722 245.347C625.45 246.041 626.499 246.388 627.87 246.388C628.243 246.388 628.615 246.375 628.987 246.35C629.36 246.316 629.719 246.273 630.066 246.223C630.413 246.172 630.743 246.117 631.057 246.058C631.378 245.99 631.674 245.918 631.945 245.842V247.657C631.344 247.826 630.663 247.962 629.901 248.063C629.148 248.174 628.365 248.229 627.553 248.229C626.461 248.229 625.521 248.08 624.734 247.784C623.947 247.488 623.3 247.061 622.792 246.502C622.293 245.935 621.92 245.245 621.675 244.433C621.438 243.612 621.319 242.685 621.319 241.652C621.319 240.755 621.446 239.909 621.7 239.113C621.963 238.309 622.339 237.607 622.83 237.006C623.329 236.396 623.939 235.914 624.658 235.559C625.378 235.203 626.194 235.025 627.108 235.025C627.997 235.025 628.784 235.165 629.47 235.444C630.155 235.724 630.731 236.121 631.196 236.638C631.67 237.146 632.026 237.768 632.263 238.504C632.508 239.232 632.631 240.049 632.631 240.954ZM630.333 240.637C630.358 240.07 630.303 239.553 630.168 239.088C630.033 238.614 629.821 238.208 629.533 237.869C629.254 237.531 628.903 237.268 628.479 237.082C628.056 236.887 627.565 236.79 627.007 236.79C626.524 236.79 626.084 236.883 625.687 237.069C625.289 237.256 624.946 237.518 624.658 237.856C624.37 238.195 624.138 238.601 623.96 239.075C623.782 239.549 623.672 240.07 623.63 240.637H630.333ZM646.253 244.521C646.253 244.97 646.177 245.372 646.024 245.728C645.872 246.083 645.665 246.4 645.402 246.68C645.14 246.951 644.835 247.183 644.488 247.378C644.141 247.573 643.769 247.733 643.371 247.86C642.982 247.987 642.58 248.08 642.165 248.14C641.75 248.199 641.344 248.229 640.946 248.229C640.083 248.229 639.287 248.19 638.56 248.114C637.84 248.038 637.133 247.915 636.439 247.746V245.715C637.184 245.926 637.925 246.087 638.661 246.197C639.397 246.307 640.13 246.362 640.857 246.362C641.915 246.362 642.698 246.218 643.206 245.931C643.714 245.643 643.968 245.232 643.968 244.699C643.968 244.471 643.925 244.268 643.841 244.09C643.765 243.904 643.621 243.73 643.409 243.569C643.198 243.4 642.868 243.227 642.419 243.049C641.979 242.871 641.374 242.668 640.604 242.439C640.028 242.27 639.495 242.08 639.004 241.868C638.521 241.648 638.103 241.39 637.747 241.094C637.392 240.798 637.112 240.451 636.909 240.053C636.706 239.655 636.604 239.185 636.604 238.644C636.604 238.288 636.685 237.899 636.846 237.476C637.015 237.052 637.299 236.659 637.696 236.295C638.094 235.931 638.632 235.631 639.309 235.394C639.986 235.148 640.832 235.025 641.848 235.025C642.347 235.025 642.901 235.055 643.511 235.114C644.12 235.165 644.755 235.258 645.415 235.394V237.361C644.721 237.192 644.061 237.069 643.435 236.993C642.817 236.909 642.279 236.866 641.822 236.866C641.272 236.866 640.807 236.909 640.426 236.993C640.053 237.078 639.749 237.196 639.512 237.349C639.283 237.493 639.118 237.666 639.017 237.869C638.915 238.064 638.864 238.275 638.864 238.504C638.864 238.732 638.907 238.94 638.991 239.126C639.084 239.312 639.249 239.494 639.486 239.672C639.732 239.841 640.07 240.015 640.502 240.192C640.934 240.362 641.496 240.548 642.19 240.751C642.944 240.971 643.578 241.204 644.095 241.449C644.611 241.686 645.03 241.953 645.352 242.249C645.673 242.545 645.902 242.88 646.037 243.252C646.181 243.624 646.253 244.048 646.253 244.521Z" fill="#FF5500"/>
<circle cx="409" cy="46" r="23.75" fill="#FFF4EF" stroke="#FF5500" stroke-width="2.5"/>
<path d="M504.884 46.8839C505.372 46.3957 505.372 45.6043 504.884 45.1161L496.929 37.1612C496.441 36.673 495.649 36.673 495.161 37.1612C494.673 37.6493 494.673 38.4408 495.161 38.9289L502.232 46L495.161 53.0711C494.673 53.5592 494.673 54.3507 495.161 54.8388C495.649 55.327 496.441 55.327 496.929 54.8388L504.884 46.8839ZM434 47.25H504V44.75H434V47.25Z" fill="black"/>
<circle cx="532" cy="46" r="23.75" fill="#FFF4EF" stroke="#FF5500" stroke-width="2.5"/>
<path d="M627.884 46.8839C628.372 46.3957 628.372 45.6043 627.884 45.1161L619.929 37.1612C619.441 36.673 618.649 36.673 618.161 37.1612C617.673 37.6493 617.673 38.4408 618.161 38.9289L625.232 46L618.161 53.0711C617.673 53.5592 617.673 54.3507 618.161 54.8388C618.649 55.327 619.441 55.327 619.929 54.8388L627.884 46.8839ZM557 47.25H627V44.75H557V47.25Z" fill="black"/>
<circle cx="655" cy="46" r="23.75" fill="#FFF4EF" stroke="#FF5500" stroke-width="2.5"/>
<circle cx="409" cy="144" r="25" fill="#FFF4EF" stroke="#FF5500" stroke-width="2.5" stroke-linecap="round"/>
<path d="M504.884 144.884C505.372 144.396 505.372 143.604 504.884 143.116L496.929 135.161C496.441 134.673 495.649 134.673 495.161 135.161C494.673 135.649 494.673 136.441 495.161 136.929L502.232 144L495.161 151.071C494.673 151.559 494.673 152.351 495.161 152.839C495.649 153.327 496.441 153.327 496.929 152.839L504.884 144.884ZM434 145.25H504V142.75H434V145.25Z" fill="black"/>
<circle cx="532" cy="144" r="25" fill="#FFF4EF" stroke="#FF5500" stroke-width="2.5" stroke-linecap="round"/>
<path d="M627.884 144.884C628.372 144.396 628.372 143.604 627.884 143.116L619.929 135.161C619.441 134.673 618.649 134.673 618.161 135.161C617.673 135.649 617.673 136.441 618.161 136.929L625.232 144L618.161 151.071C617.673 151.559 617.673 152.351 618.161 152.839C618.649 153.327 619.441 153.327 619.929 152.839L627.884 144.884ZM557 145.25H627V142.75H557V145.25Z" fill="black"/>
<circle cx="655" cy="144" r="25" fill="#FFF4EF" stroke="#FF5500" stroke-width="2.5" stroke-linecap="round"/>
</g>
<defs>
<clipPath id="clip0_6201_3771">
<rect width="697" height="251" fill="white"/>
</clipPath>
</defs>
</svg>
