<svg width="484" height="218" viewBox="0 0 484 218" fill="none" xmlns="http://www.w3.org/2000/svg">
<g clip-path="url(#clip0_6254_715)">
<rect width="484" height="218" fill="white"/>
<path d="M453.384 92.2539H455.352L455.44 94.3105C455.813 93.8704 456.173 93.5065 456.52 93.2188C456.867 92.9225 457.205 92.6855 457.535 92.5078C457.874 92.3301 458.216 92.2074 458.563 92.1396C458.91 92.0635 459.27 92.0254 459.643 92.0254C460.954 92.0254 461.945 92.4147 462.613 93.1934C463.29 93.9635 463.629 95.1273 463.629 96.6846V105H461.42V96.8623C461.42 95.8636 461.234 95.1273 460.861 94.6533C460.489 94.1709 459.935 93.9297 459.198 93.9297C458.927 93.9297 458.661 93.972 458.398 94.0566C458.145 94.1328 457.878 94.2725 457.599 94.4756C457.319 94.6702 457.015 94.9368 456.685 95.2754C456.363 95.6139 455.999 96.0371 455.593 96.5449V105H453.384V92.2539Z" fill="#999999"/>
<path d="M223.089 199.254H225.057L225.146 201.311C225.518 200.87 225.878 200.507 226.225 200.219C226.572 199.923 226.91 199.686 227.24 199.508C227.579 199.33 227.922 199.207 228.269 199.14C228.616 199.063 228.975 199.025 229.348 199.025C230.66 199.025 231.65 199.415 232.318 200.193C232.995 200.964 233.334 202.127 233.334 203.685V212H231.125V203.862C231.125 202.864 230.939 202.127 230.566 201.653C230.194 201.171 229.64 200.93 228.903 200.93C228.632 200.93 228.366 200.972 228.104 201.057C227.85 201.133 227.583 201.272 227.304 201.476C227.024 201.67 226.72 201.937 226.39 202.275C226.068 202.614 225.704 203.037 225.298 203.545V212H223.089V199.254ZM247.629 194.062L238.92 214.729H236.812L245.521 194.062H247.629ZM262.444 212H251.514V210.02L255.805 205.754C256.507 205.06 257.078 204.459 257.519 203.951C257.959 203.443 258.301 202.982 258.547 202.567C258.792 202.144 258.957 201.746 259.042 201.374C259.127 201.002 259.169 200.6 259.169 200.168C259.169 199.762 259.114 199.377 259.004 199.013C258.894 198.64 258.725 198.314 258.496 198.035C258.268 197.756 257.971 197.536 257.607 197.375C257.243 197.214 256.808 197.134 256.3 197.134C255.597 197.134 254.958 197.29 254.383 197.604C253.807 197.917 253.278 198.323 252.796 198.822L251.577 197.362C252.203 196.702 252.923 196.173 253.735 195.775C254.556 195.378 255.508 195.179 256.592 195.179C257.328 195.179 257.997 195.289 258.598 195.509C259.207 195.729 259.732 196.046 260.172 196.461C260.612 196.876 260.951 197.383 261.188 197.984C261.433 198.585 261.556 199.262 261.556 200.016C261.556 200.65 261.471 201.239 261.302 201.78C261.132 202.322 260.874 202.864 260.527 203.405C260.189 203.938 259.757 204.493 259.232 205.068C258.716 205.644 258.103 206.274 257.392 206.96L254.383 209.893H262.444V212Z" fill="#FF5500"/>
<circle cx="26" cy="30" r="4" fill="#999999"/>
<circle cx="134" cy="30" r="4" fill="#999999"/>
<circle cx="242" cy="30" r="4" fill="#999999"/>
<circle cx="350" cy="30" r="4" fill="#999999"/>
<circle cx="458" cy="30" r="4" fill="#999999"/>
<path d="M29.7071 21.7071C29.3166 22.0976 28.6834 22.0976 28.2929 21.7071C27.9024 21.3166 27.9024 20.6834 28.2929 20.2929L29.7071 21.7071ZM132.5 24.5C132.5 25.0523 132.052 25.5 131.5 25.5L122.5 25.5C121.948 25.5 121.5 25.0523 121.5 24.5C121.5 23.9477 121.948 23.5 122.5 23.5L130.5 23.5V15.5C130.5 14.9477 130.948 14.5 131.5 14.5C132.052 14.5 132.5 14.9477 132.5 15.5V24.5ZM31.3132 17.4924L32.0711 16.8401L33.3758 18.3559L32.6179 19.0082L31.3132 17.4924ZM38.997 14.247L38.1575 14.7903L37.071 13.1112L37.9105 12.5679L38.997 14.247ZM45.0702 8.54488L45.97 8.10872L46.8424 9.90845L45.9425 10.3446L45.0702 8.54488ZM53.3162 7.28248L52.3725 7.61318L51.7111 5.72571L52.6548 5.39501L53.3162 7.28248ZM60.5304 3.11089L61.5045 2.88472L61.9568 4.8329L60.9827 5.05907L60.5304 3.11089ZM68.8504 3.6694L67.8579 3.79086L67.6149 1.80567L68.6075 1.68421L68.8504 3.6694ZM76.79 1.11962L77.7899 1.10363L77.8218 3.10337L76.822 3.11937L76.79 1.11962ZM84.8027 3.4157L83.8068 3.32541L83.9874 1.33357L84.9833 1.42387L84.8027 3.4157ZM93.1002 2.60232L94.0806 2.79921L93.6868 4.76006L92.7064 4.56317L93.1002 2.60232ZM100.439 6.55947L99.4862 6.25701L100.091 4.35069L101.044 4.65315L100.439 6.55947ZM108.718 7.56047L109.633 7.9655L108.823 9.7941L107.908 9.38907L108.718 7.56047ZM115.021 13.0171L114.157 12.515L115.161 10.7854L116.026 11.2875L115.021 13.0171ZM122.886 15.7798L123.692 16.3713L122.509 17.9839L121.703 17.3924L122.886 15.7798ZM127.894 22.4481L127.153 21.7769L128.496 20.2944L129.237 20.9656L127.894 22.4481ZM28.2929 20.2929C29.2563 19.3295 30.2641 18.3955 31.3132 17.4924L32.6179 19.0082C31.6056 19.8796 30.6344 20.7798 29.7071 21.7071L28.2929 20.2929ZM37.9105 12.5679C40.1771 11.1013 42.5705 9.75651 45.0702 8.54488L45.9425 10.3446C43.5144 11.5215 41.1927 12.8263 38.997 14.247L37.9105 12.5679ZM52.6548 5.39501C55.2071 4.50066 57.8381 3.736 60.5304 3.11089L60.9827 5.05907C58.3607 5.66786 55.7995 6.41229 53.3162 7.28248L52.6548 5.39501ZM68.6075 1.68421C71.2986 1.35492 74.0312 1.16375 76.79 1.11962L76.822 3.11937C74.1344 3.16236 71.4722 3.34859 68.8504 3.6694L68.6075 1.68421ZM84.9833 1.42387C87.6832 1.66864 90.3935 2.05877 93.1002 2.60232L92.7064 4.56317C90.0713 4.03399 87.4322 3.65409 84.8027 3.4157L84.9833 1.42387ZM101.044 4.65315C103.623 5.4713 106.185 6.43805 108.718 7.56047L107.908 9.38907C105.442 8.29666 102.949 7.35577 100.439 6.55947L101.044 4.65315ZM116.026 11.2875C118.352 12.6386 120.643 14.134 122.886 15.7798L121.703 17.3924C119.517 15.7889 117.287 14.3325 115.021 13.0171L116.026 11.2875ZM129.237 20.9656C130.24 21.8738 131.23 22.816 132.207 23.7929L130.793 25.2071C129.839 24.2535 128.873 23.334 127.894 22.4481L129.237 20.9656Z" fill="#999999"/>
<path d="M137.707 21.7071C137.317 22.0976 136.683 22.0976 136.293 21.7071C135.902 21.3166 135.902 20.6834 136.293 20.2929L137.707 21.7071ZM240.5 24.5C240.5 25.0523 240.052 25.5 239.5 25.5L230.5 25.5C229.948 25.5 229.5 25.0523 229.5 24.5C229.5 23.9477 229.948 23.5 230.5 23.5L238.5 23.5V15.5C238.5 14.9477 238.948 14.5 239.5 14.5C240.052 14.5 240.5 14.9477 240.5 15.5V24.5ZM139.313 17.4924L140.071 16.8401L141.376 18.3559L140.618 19.0082L139.313 17.4924ZM146.997 14.247L146.157 14.7903L145.071 13.1112L145.911 12.5679L146.997 14.247ZM153.07 8.54488L153.97 8.10872L154.842 9.90845L153.943 10.3446L153.07 8.54488ZM161.316 7.28248L160.372 7.61318L159.711 5.72571L160.655 5.39501L161.316 7.28248ZM168.53 3.11089L169.505 2.88472L169.957 4.8329L168.983 5.05907L168.53 3.11089ZM176.85 3.6694L175.858 3.79086L175.615 1.80567L176.608 1.68421L176.85 3.6694ZM184.79 1.11962L185.79 1.10363L185.822 3.10337L184.822 3.11937L184.79 1.11962ZM192.803 3.4157L191.807 3.32541L191.987 1.33357L192.983 1.42387L192.803 3.4157ZM201.1 2.60232L202.081 2.79921L201.687 4.76006L200.706 4.56317L201.1 2.60232ZM208.439 6.55947L207.486 6.25701L208.091 4.35069L209.044 4.65315L208.439 6.55947ZM216.718 7.56047L217.633 7.9655L216.823 9.7941L215.908 9.38907L216.718 7.56047ZM223.021 13.0171L222.157 12.515L223.161 10.7854L224.026 11.2875L223.021 13.0171ZM230.886 15.7798L231.692 16.3713L230.509 17.9839L229.703 17.3924L230.886 15.7798ZM235.894 22.4481L235.153 21.7769L236.496 20.2944L237.237 20.9656L235.894 22.4481ZM136.293 20.2929C137.256 19.3295 138.264 18.3955 139.313 17.4924L140.618 19.0082C139.606 19.8796 138.634 20.7798 137.707 21.7071L136.293 20.2929ZM145.911 12.5679C148.177 11.1013 150.57 9.75651 153.07 8.54488L153.943 10.3446C151.514 11.5215 149.193 12.8263 146.997 14.247L145.911 12.5679ZM160.655 5.39501C163.207 4.50066 165.838 3.736 168.53 3.11089L168.983 5.05907C166.361 5.66786 163.8 6.41229 161.316 7.28248L160.655 5.39501ZM176.608 1.68421C179.299 1.35492 182.031 1.16375 184.79 1.11962L184.822 3.11937C182.134 3.16236 179.472 3.34859 176.85 3.6694L176.608 1.68421ZM192.983 1.42387C195.683 1.66864 198.393 2.05877 201.1 2.60232L200.706 4.56317C198.071 4.03399 195.432 3.65409 192.803 3.4157L192.983 1.42387ZM209.044 4.65315C211.623 5.4713 214.185 6.43805 216.718 7.56047L215.908 9.38907C213.442 8.29666 210.949 7.35577 208.439 6.55947L209.044 4.65315ZM224.026 11.2875C226.352 12.6386 228.643 14.134 230.886 15.7798L229.703 17.3924C227.517 15.7889 225.287 14.3325 223.021 13.0171L224.026 11.2875ZM237.237 20.9656C238.24 21.8738 239.23 22.816 240.207 23.7929L238.793 25.2071C237.839 24.2535 236.873 23.334 235.894 22.4481L237.237 20.9656Z" fill="#999999"/>
<path d="M245.707 21.7071C245.317 22.0976 244.683 22.0976 244.293 21.7071C243.902 21.3166 243.902 20.6834 244.293 20.2929L245.707 21.7071ZM348.5 24.5C348.5 25.0523 348.052 25.5 347.5 25.5L338.5 25.5C337.948 25.5 337.5 25.0523 337.5 24.5C337.5 23.9477 337.948 23.5 338.5 23.5L346.5 23.5V15.5C346.5 14.9477 346.948 14.5 347.5 14.5C348.052 14.5 348.5 14.9477 348.5 15.5V24.5ZM247.313 17.4924L248.071 16.8401L249.376 18.3559L248.618 19.0082L247.313 17.4924ZM254.997 14.247L254.157 14.7903L253.071 13.1112L253.911 12.5679L254.997 14.247ZM261.07 8.54488L261.97 8.10872L262.842 9.90845L261.943 10.3446L261.07 8.54488ZM269.316 7.28248L268.372 7.61318L267.711 5.72571L268.655 5.39501L269.316 7.28248ZM276.53 3.11089L277.505 2.88472L277.957 4.8329L276.983 5.05907L276.53 3.11089ZM284.85 3.6694L283.858 3.79086L283.615 1.80567L284.608 1.68421L284.85 3.6694ZM292.79 1.11962L293.79 1.10363L293.822 3.10337L292.822 3.11937L292.79 1.11962ZM300.803 3.4157L299.807 3.32541L299.987 1.33357L300.983 1.42387L300.803 3.4157ZM309.1 2.60232L310.081 2.79921L309.687 4.76006L308.706 4.56317L309.1 2.60232ZM316.439 6.55947L315.486 6.25701L316.091 4.35069L317.044 4.65315L316.439 6.55947ZM324.718 7.56047L325.633 7.9655L324.823 9.7941L323.908 9.38907L324.718 7.56047ZM331.021 13.0171L330.157 12.515L331.161 10.7854L332.026 11.2875L331.021 13.0171ZM338.886 15.7798L339.692 16.3713L338.509 17.9839L337.703 17.3924L338.886 15.7798ZM343.894 22.4481L343.153 21.7769L344.496 20.2944L345.237 20.9656L343.894 22.4481ZM244.293 20.2929C245.256 19.3295 246.264 18.3955 247.313 17.4924L248.618 19.0082C247.606 19.8796 246.634 20.7798 245.707 21.7071L244.293 20.2929ZM253.911 12.5679C256.177 11.1013 258.57 9.75651 261.07 8.54488L261.943 10.3446C259.514 11.5215 257.193 12.8263 254.997 14.247L253.911 12.5679ZM268.655 5.39501C271.207 4.50066 273.838 3.736 276.53 3.11089L276.983 5.05907C274.361 5.66786 271.8 6.41229 269.316 7.28248L268.655 5.39501ZM284.608 1.68421C287.299 1.35492 290.031 1.16375 292.79 1.11962L292.822 3.11937C290.134 3.16236 287.472 3.34859 284.85 3.6694L284.608 1.68421ZM300.983 1.42387C303.683 1.66864 306.393 2.05877 309.1 2.60232L308.706 4.56317C306.071 4.03399 303.432 3.65409 300.803 3.4157L300.983 1.42387ZM317.044 4.65315C319.623 5.4713 322.185 6.43805 324.718 7.56047L323.908 9.38907C321.442 8.29666 318.949 7.35577 316.439 6.55947L317.044 4.65315ZM332.026 11.2875C334.352 12.6386 336.643 14.134 338.886 15.7798L337.703 17.3924C335.517 15.7889 333.287 14.3325 331.021 13.0171L332.026 11.2875ZM345.237 20.9656C346.24 21.8738 347.23 22.816 348.207 23.7929L346.793 25.2071C345.839 24.2535 344.873 23.334 343.894 22.4481L345.237 20.9656Z" fill="#999999"/>
<path d="M353.707 21.7071C353.317 22.0976 352.683 22.0976 352.293 21.7071C351.902 21.3166 351.902 20.6834 352.293 20.2929L353.707 21.7071ZM456.5 24.5C456.5 25.0523 456.052 25.5 455.5 25.5L446.5 25.5C445.948 25.5 445.5 25.0523 445.5 24.5C445.5 23.9477 445.948 23.5 446.5 23.5L454.5 23.5V15.5C454.5 14.9477 454.948 14.5 455.5 14.5C456.052 14.5 456.5 14.9477 456.5 15.5V24.5ZM355.313 17.4924L356.071 16.8401L357.376 18.3559L356.618 19.0082L355.313 17.4924ZM362.997 14.247L362.157 14.7903L361.071 13.1112L361.911 12.5679L362.997 14.247ZM369.07 8.54488L369.97 8.10872L370.842 9.90845L369.943 10.3446L369.07 8.54488ZM377.316 7.28248L376.372 7.61318L375.711 5.72571L376.655 5.39501L377.316 7.28248ZM384.53 3.11089L385.505 2.88472L385.957 4.8329L384.983 5.05907L384.53 3.11089ZM392.85 3.6694L391.858 3.79086L391.615 1.80567L392.608 1.68421L392.85 3.6694ZM400.79 1.11962L401.79 1.10363L401.822 3.10337L400.822 3.11937L400.79 1.11962ZM408.803 3.4157L407.807 3.32541L407.987 1.33357L408.983 1.42387L408.803 3.4157ZM417.1 2.60232L418.081 2.79921L417.687 4.76006L416.706 4.56317L417.1 2.60232ZM424.439 6.55947L423.486 6.25701L424.091 4.35069L425.044 4.65315L424.439 6.55947ZM432.718 7.56047L433.633 7.9655L432.823 9.7941L431.908 9.38907L432.718 7.56047ZM439.021 13.0171L438.157 12.515L439.161 10.7854L440.026 11.2875L439.021 13.0171ZM446.886 15.7798L447.692 16.3713L446.509 17.9839L445.703 17.3924L446.886 15.7798ZM451.894 22.4481L451.153 21.7769L452.496 20.2944L453.237 20.9656L451.894 22.4481ZM352.293 20.2929C353.256 19.3295 354.264 18.3955 355.313 17.4924L356.618 19.0082C355.606 19.8796 354.634 20.7798 353.707 21.7071L352.293 20.2929ZM361.911 12.5679C364.177 11.1013 366.57 9.75651 369.07 8.54488L369.943 10.3446C367.514 11.5215 365.193 12.8263 362.997 14.247L361.911 12.5679ZM376.655 5.39501C379.207 4.50066 381.838 3.736 384.53 3.11089L384.983 5.05907C382.361 5.66786 379.8 6.41229 377.316 7.28248L376.655 5.39501ZM392.608 1.68421C395.299 1.35492 398.031 1.16375 400.79 1.11962L400.822 3.11937C398.134 3.16236 395.472 3.34859 392.85 3.6694L392.608 1.68421ZM408.983 1.42387C411.683 1.66864 414.393 2.05877 417.1 2.60232L416.706 4.56317C414.071 4.03399 411.432 3.65409 408.803 3.4157L408.983 1.42387ZM425.044 4.65315C427.623 5.4713 430.185 6.43805 432.718 7.56047L431.908 9.38907C429.442 8.29666 426.949 7.35577 424.439 6.55947L425.044 4.65315ZM440.026 11.2875C442.352 12.6386 444.643 14.134 446.886 15.7798L445.703 17.3924C443.517 15.7889 441.287 14.3325 439.021 13.0171L440.026 11.2875ZM453.237 20.9656C454.24 21.8738 455.23 22.816 456.207 23.7929L454.793 25.2071C453.839 24.2535 452.873 23.334 451.894 22.4481L453.237 20.9656Z" fill="#999999"/>
<circle cx="26" cy="133.89" r="4" fill="#FF5500"/>
<circle cx="134" cy="133.89" r="4" fill="#FF5500"/>
<circle cx="242" cy="133.89" r="4" fill="#FF5500"/>
<path d="M29.7071 125.597C29.3166 125.988 28.6834 125.988 28.2929 125.597C27.9024 125.207 27.9024 124.574 28.2929 124.183L29.7071 125.597ZM132.5 128.39C132.5 128.943 132.052 129.39 131.5 129.39H122.5C121.948 129.39 121.5 128.943 121.5 128.39C121.5 127.838 121.948 127.39 122.5 127.39H130.5V119.39C130.5 118.838 130.948 118.39 131.5 118.39C132.052 118.39 132.5 118.838 132.5 119.39V128.39ZM31.3132 121.383L32.0711 120.73L33.3758 122.246L32.6179 122.899L31.3132 121.383ZM38.997 118.137L38.1575 118.681L37.071 117.001L37.9105 116.458L38.997 118.137ZM45.0702 112.435L45.97 111.999L46.8424 113.799L45.9425 114.235L45.0702 112.435ZM53.3162 111.173L52.3725 111.503L51.7111 109.616L52.6548 109.285L53.3162 111.173ZM60.5304 107.001L61.5045 106.775L61.9568 108.723L60.9827 108.949L60.5304 107.001ZM68.8504 107.56L67.8579 107.681L67.6149 105.696L68.6075 105.575L68.8504 107.56ZM76.79 105.01L77.7899 104.994L77.8218 106.994L76.822 107.01L76.79 105.01ZM84.8027 107.306L83.8068 107.216L83.9874 105.224L84.9833 105.314L84.8027 107.306ZM93.1002 106.493L94.0806 106.689L93.6868 108.65L92.7064 108.453L93.1002 106.493ZM100.439 110.45L99.4862 110.147L100.091 108.241L101.044 108.543L100.439 110.45ZM108.718 111.451L109.633 111.856L108.823 113.684L107.908 113.279L108.718 111.451ZM115.021 116.907L114.157 116.405L115.161 114.676L116.026 115.178L115.021 116.907ZM122.886 119.67L123.692 120.262L122.509 121.874L121.703 121.283L122.886 119.67ZM127.894 126.338L127.153 125.667L128.496 124.185L129.237 124.856L127.894 126.338ZM28.2929 124.183C29.2563 123.22 30.2641 122.286 31.3132 121.383L32.6179 122.899C31.6056 123.77 30.6344 124.67 29.7071 125.597L28.2929 124.183ZM37.9105 116.458C40.1771 114.992 42.5705 113.647 45.0702 112.435L45.9425 114.235C43.5144 115.412 41.1927 116.717 38.997 118.137L37.9105 116.458ZM52.6548 109.285C55.2071 108.391 57.8381 107.626 60.5304 107.001L60.9827 108.949C58.3607 109.558 55.7995 110.303 53.3162 111.173L52.6548 109.285ZM68.6075 105.575C71.2986 105.245 74.0312 105.054 76.79 105.01L76.822 107.01C74.1344 107.053 71.4722 107.239 68.8504 107.56L68.6075 105.575ZM84.9833 105.314C87.6832 105.559 90.3935 105.949 93.1002 106.493L92.7064 108.453C90.0713 107.924 87.4322 107.544 84.8027 107.306L84.9833 105.314ZM101.044 108.543C103.623 109.362 106.185 110.328 108.718 111.451L107.908 113.279C105.442 112.187 102.949 111.246 100.439 110.45L101.044 108.543ZM116.026 115.178C118.352 116.529 120.643 118.024 122.886 119.67L121.703 121.283C119.517 119.679 117.287 118.223 115.021 116.907L116.026 115.178ZM129.237 124.856C130.24 125.764 131.23 126.706 132.207 127.683L130.793 129.097C129.839 128.144 128.873 127.224 127.894 126.338L129.237 124.856Z" fill="#FF5500"/>
<path d="M137.707 125.597C137.317 125.988 136.683 125.988 136.293 125.597C135.902 125.207 135.902 124.574 136.293 124.183L137.707 125.597ZM240.5 128.39C240.5 128.943 240.052 129.39 239.5 129.39H230.5C229.948 129.39 229.5 128.943 229.5 128.39C229.5 127.838 229.948 127.39 230.5 127.39H238.5V119.39C238.5 118.838 238.948 118.39 239.5 118.39C240.052 118.39 240.5 118.838 240.5 119.39V128.39ZM139.313 121.383L140.071 120.73L141.376 122.246L140.618 122.899L139.313 121.383ZM146.997 118.137L146.157 118.681L145.071 117.001L145.911 116.458L146.997 118.137ZM153.07 112.435L153.97 111.999L154.842 113.799L153.943 114.235L153.07 112.435ZM161.316 111.173L160.372 111.503L159.711 109.616L160.655 109.285L161.316 111.173ZM168.53 107.001L169.505 106.775L169.957 108.723L168.983 108.949L168.53 107.001ZM176.85 107.56L175.858 107.681L175.615 105.696L176.608 105.575L176.85 107.56ZM184.79 105.01L185.79 104.994L185.822 106.994L184.822 107.01L184.79 105.01ZM192.803 107.306L191.807 107.216L191.987 105.224L192.983 105.314L192.803 107.306ZM201.1 106.493L202.081 106.689L201.687 108.65L200.706 108.453L201.1 106.493ZM208.439 110.45L207.486 110.147L208.091 108.241L209.044 108.543L208.439 110.45ZM216.718 111.451L217.633 111.856L216.823 113.684L215.908 113.279L216.718 111.451ZM223.021 116.907L222.157 116.405L223.161 114.676L224.026 115.178L223.021 116.907ZM230.886 119.67L231.692 120.262L230.509 121.874L229.703 121.283L230.886 119.67ZM235.894 126.338L235.153 125.667L236.496 124.185L237.237 124.856L235.894 126.338ZM136.293 124.183C137.256 123.22 138.264 122.286 139.313 121.383L140.618 122.899C139.606 123.77 138.634 124.67 137.707 125.597L136.293 124.183ZM145.911 116.458C148.177 114.992 150.57 113.647 153.07 112.435L153.943 114.235C151.514 115.412 149.193 116.717 146.997 118.137L145.911 116.458ZM160.655 109.285C163.207 108.391 165.838 107.626 168.53 107.001L168.983 108.949C166.361 109.558 163.8 110.303 161.316 111.173L160.655 109.285ZM176.608 105.575C179.299 105.245 182.031 105.054 184.79 105.01L184.822 107.01C182.134 107.053 179.472 107.239 176.85 107.56L176.608 105.575ZM192.983 105.314C195.683 105.559 198.393 105.949 201.1 106.493L200.706 108.453C198.071 107.924 195.432 107.544 192.803 107.306L192.983 105.314ZM209.044 108.543C211.623 109.362 214.185 110.328 216.718 111.451L215.908 113.279C213.442 112.187 210.949 111.246 208.439 110.45L209.044 108.543ZM224.026 115.178C226.352 116.529 228.643 118.024 230.886 119.67L229.703 121.283C227.517 119.679 225.287 118.223 223.021 116.907L224.026 115.178ZM237.237 124.856C238.24 125.764 239.23 126.706 240.207 127.683L238.793 129.097C237.839 128.144 236.873 127.224 235.894 126.338L237.237 124.856Z" fill="#FF5500"/>
<circle cx="25" cy="61" r="24" fill="white" stroke="black" stroke-width="2"/>
<circle cx="241" cy="61" r="24" fill="white" stroke="black" stroke-width="2"/>
<path d="M31.6045 71H19.5781V68.627H24.5V54.6523L19.915 57.1426L18.9775 54.9746L25.0713 51.7666H27.3271V68.627H31.6045V71Z" fill="black"/>
<circle cx="133" cy="61" r="24" fill="white" stroke="black" stroke-width="2"/>
<path d="M139.766 71H127.153V68.7148L132.104 63.793C132.915 62.9922 133.574 62.2988 134.082 61.7129C134.59 61.127 134.985 60.5947 135.269 60.1162C135.552 59.6279 135.742 59.1689 135.84 58.7393C135.938 58.3096 135.986 57.8457 135.986 57.3477C135.986 56.8789 135.923 56.4346 135.796 56.0146C135.669 55.585 135.474 55.209 135.21 54.8867C134.946 54.5645 134.604 54.3105 134.185 54.125C133.765 53.9395 133.262 53.8467 132.676 53.8467C131.865 53.8467 131.128 54.0273 130.464 54.3887C129.8 54.75 129.189 55.2188 128.633 55.7949L127.227 54.1104C127.949 53.3486 128.779 52.7383 129.717 52.2793C130.664 51.8203 131.763 51.5908 133.013 51.5908C133.862 51.5908 134.634 51.7178 135.327 51.9717C136.03 52.2256 136.636 52.5918 137.144 53.0703C137.651 53.5488 138.042 54.1348 138.315 54.8281C138.599 55.5215 138.74 56.3027 138.74 57.1719C138.74 57.9043 138.643 58.583 138.447 59.208C138.252 59.833 137.954 60.458 137.554 61.083C137.163 61.6982 136.665 62.3379 136.06 63.002C135.464 63.666 134.756 64.3936 133.936 65.1846L130.464 68.5684H139.766V71Z" fill="black"/>
<circle cx="349" cy="61" r="24" fill="white" stroke="black" stroke-width="2"/>
<path d="M355.663 54.2275L347.636 71H344.721L353.056 54.2275H342.714V51.8545H355.663V54.2275Z" fill="black"/>
<path d="M104.707 61.7071C105.098 61.3166 105.098 60.6834 104.707 60.2929L98.3431 53.9289C97.9526 53.5384 97.3195 53.5384 96.9289 53.9289C96.5384 54.3195 96.5384 54.9526 96.9289 55.3431L102.586 61L96.9289 66.6569C96.5384 67.0474 96.5384 67.6805 96.9289 68.0711C97.3195 68.4616 97.9526 68.4616 98.3431 68.0711L104.707 61.7071ZM50 62L104 62L104 60L50 60L50 62Z" fill="black"/>
<path d="M212.707 61.7071C213.098 61.3166 213.098 60.6834 212.707 60.2929L206.343 53.9289C205.953 53.5384 205.319 53.5384 204.929 53.9289C204.538 54.3195 204.538 54.9526 204.929 55.3431L210.586 61L204.929 66.6569C204.538 67.0474 204.538 67.6805 204.929 68.0711C205.319 68.4616 205.953 68.4616 206.343 68.0711L212.707 61.7071ZM158 62L212 62L212 60L158 60L158 62Z" fill="black"/>
<path d="M320.707 61.7071C321.098 61.3166 321.098 60.6834 320.707 60.2929L314.343 53.9289C313.953 53.5384 313.319 53.5384 312.929 53.9289C312.538 54.3195 312.538 54.9526 312.929 55.3431L318.586 61L312.929 66.6569C312.538 67.0474 312.538 67.6805 312.929 68.0711C313.319 68.4616 313.953 68.4616 314.343 68.0711L320.707 61.7071ZM266 62L320 62L320 60L266 60L266 62Z" fill="black"/>
<path d="M428.707 61.7071C429.098 61.3166 429.098 60.6834 428.707 60.2929L422.343 53.9289C421.953 53.5384 421.319 53.5384 420.929 53.9289C420.538 54.3195 420.538 54.9526 420.929 55.3431L426.586 61L420.929 66.6569C420.538 67.0474 420.538 67.6805 420.929 68.0711C421.319 68.4616 421.953 68.4616 422.343 68.0711L428.707 61.7071ZM374 62L428 62L428 60L374 60L374 62Z" fill="black"/>
<path d="M463.604 68H451.578V65.627H456.5V51.6523L451.915 54.1426L450.978 51.9746L457.071 48.7666H459.327V65.627H463.604V68Z" fill="black"/>
<circle cx="457" cy="61" r="24" fill="white" stroke="black" stroke-width="2"/>
<path d="M463.399 65.1846C463.399 66.0244 463.229 66.8154 462.887 67.5576C462.545 68.29 462.032 68.9346 461.349 69.4912C460.665 70.0381 459.806 70.4727 458.771 70.7949C457.735 71.1074 456.529 71.2637 455.152 71.2637C454.391 71.2637 453.707 71.2393 453.102 71.1904C452.496 71.1416 451.93 71.0781 451.402 71V68.7148C452.008 68.8223 452.647 68.9053 453.321 68.9639C453.995 69.0225 454.684 69.0518 455.387 69.0518C456.344 69.0518 457.159 68.9688 457.833 68.8027C458.517 68.627 459.073 68.3779 459.503 68.0557C459.933 67.7334 460.245 67.3428 460.44 66.8838C460.636 66.4248 460.733 65.9072 460.733 65.3311C460.733 64.8037 460.616 64.3447 460.382 63.9541C460.147 63.5635 459.815 63.2363 459.386 62.9727C458.966 62.709 458.458 62.5137 457.862 62.3867C457.276 62.25 456.632 62.1816 455.929 62.1816H453.746V60.0869H455.958C456.534 60.0869 457.057 60.0137 457.525 59.8672C458.004 59.7109 458.409 59.4912 458.741 59.208C459.083 58.9248 459.342 58.5781 459.518 58.168C459.703 57.748 459.796 57.2744 459.796 56.7471C459.796 55.7217 459.483 54.9746 458.858 54.5059C458.233 54.0371 457.315 53.8027 456.104 53.8027C455.46 53.8027 454.796 53.8662 454.112 53.9932C453.429 54.1201 452.696 54.3105 451.915 54.5645V52.3379C452.247 52.2207 452.599 52.1182 452.97 52.0303C453.351 51.9326 453.727 51.8545 454.098 51.7959C454.479 51.7275 454.854 51.6787 455.226 51.6494C455.597 51.6104 455.953 51.5908 456.295 51.5908C457.311 51.5908 458.204 51.7031 458.976 51.9277C459.747 52.1426 460.392 52.4551 460.909 52.8652C461.427 53.2754 461.817 53.7734 462.081 54.3594C462.345 54.9453 462.477 55.6045 462.477 56.3369C462.477 57.4307 462.193 58.3486 461.627 59.0908C461.07 59.833 460.304 60.4238 459.327 60.8633C459.825 60.9414 460.313 61.0977 460.792 61.332C461.28 61.5664 461.715 61.8691 462.096 62.2402C462.486 62.6016 462.799 63.0312 463.033 63.5293C463.277 64.0273 463.399 64.5791 463.399 65.1846Z" fill="black"/>
<path d="M247.718 66.7666H244.451V71H241.844V66.7666H232.63V64.5254L240.789 51.8545H244.451V64.5254H247.718V66.7666ZM241.844 54.3154L235.179 64.5254H241.844V54.3154Z" fill="black"/>
<circle cx="25" cy="164" r="24" fill="white" stroke="black" stroke-width="2"/>
<circle cx="241" cy="164" r="24" fill="white" stroke="black" stroke-width="2"/>
<path d="M31.6045 174H19.5781V171.627H24.5V157.652L19.915 160.143L18.9775 157.975L25.0713 154.767H27.3271V171.627H31.6045V174Z" fill="black"/>
<circle cx="133" cy="164" r="24" fill="white" stroke="black" stroke-width="2"/>
<path d="M139.766 174H127.153V171.715L132.104 166.793C132.915 165.992 133.574 165.299 134.082 164.713C134.59 164.127 134.985 163.595 135.269 163.116C135.552 162.628 135.742 162.169 135.84 161.739C135.938 161.31 135.986 160.846 135.986 160.348C135.986 159.879 135.923 159.435 135.796 159.015C135.669 158.585 135.474 158.209 135.21 157.887C134.946 157.564 134.604 157.311 134.185 157.125C133.765 156.939 133.262 156.847 132.676 156.847C131.865 156.847 131.128 157.027 130.464 157.389C129.8 157.75 129.189 158.219 128.633 158.795L127.227 157.11C127.949 156.349 128.779 155.738 129.717 155.279C130.664 154.82 131.763 154.591 133.013 154.591C133.862 154.591 134.634 154.718 135.327 154.972C136.03 155.226 136.636 155.592 137.144 156.07C137.651 156.549 138.042 157.135 138.315 157.828C138.599 158.521 138.74 159.303 138.74 160.172C138.74 160.904 138.643 161.583 138.447 162.208C138.252 162.833 137.954 163.458 137.554 164.083C137.163 164.698 136.665 165.338 136.06 166.002C135.464 166.666 134.756 167.394 133.936 168.185L130.464 171.568H139.766V174Z" fill="black"/>
<circle cx="349" cy="164" r="24" fill="white" stroke="black" stroke-width="2"/>
<path d="M355.663 157.228L347.636 174H344.721L353.056 157.228H342.714V154.854H355.663V157.228Z" fill="black"/>
<path d="M104.707 164.707C105.098 164.317 105.098 163.683 104.707 163.293L98.3431 156.929C97.9526 156.538 97.3195 156.538 96.9289 156.929C96.5384 157.319 96.5384 157.953 96.9289 158.343L102.586 164L96.9289 169.657C96.5384 170.047 96.5384 170.681 96.9289 171.071C97.3195 171.462 97.9526 171.462 98.3431 171.071L104.707 164.707ZM50 165L104 165L104 163L50 163L50 165Z" fill="black"/>
<path d="M212.707 164.707C213.098 164.317 213.098 163.683 212.707 163.293L206.343 156.929C205.953 156.538 205.319 156.538 204.929 156.929C204.538 157.319 204.538 157.953 204.929 158.343L210.586 164L204.929 169.657C204.538 170.047 204.538 170.681 204.929 171.071C205.319 171.462 205.953 171.462 206.343 171.071L212.707 164.707ZM158 165L212 165L212 163L158 163L158 165Z" fill="black"/>
<path d="M320.707 164.707C321.098 164.317 321.098 163.683 320.707 163.293L314.343 156.929C313.953 156.538 313.319 156.538 312.929 156.929C312.538 157.319 312.538 157.953 312.929 158.343L318.586 164L312.929 169.657C312.538 170.047 312.538 170.681 312.929 171.071C313.319 171.462 313.953 171.462 314.343 171.071L320.707 164.707ZM266 165L320 165L320 163L266 163L266 165Z" fill="black"/>
<path d="M428.707 164.707C429.098 164.317 429.098 163.683 428.707 163.293L422.343 156.929C421.953 156.538 421.319 156.538 420.929 156.929C420.538 157.319 420.538 157.953 420.929 158.343L426.586 164L420.929 169.657C420.538 170.047 420.538 170.681 420.929 171.071C421.319 171.462 421.953 171.462 422.343 171.071L428.707 164.707ZM374 165L428 165L428 163L374 163L374 165Z" fill="black"/>
<path d="M463.604 171H451.578V168.627H456.5V154.652L451.915 157.143L450.978 154.975L457.071 151.767H459.327V168.627H463.604V171Z" fill="black"/>
<circle cx="457" cy="164" r="24" fill="white" stroke="black" stroke-width="2"/>
<path d="M463.399 168.185C463.399 169.024 463.229 169.815 462.887 170.558C462.545 171.29 462.032 171.935 461.349 172.491C460.665 173.038 459.806 173.473 458.771 173.795C457.735 174.107 456.529 174.264 455.152 174.264C454.391 174.264 453.707 174.239 453.102 174.19C452.496 174.142 451.93 174.078 451.402 174V171.715C452.008 171.822 452.647 171.905 453.321 171.964C453.995 172.022 454.684 172.052 455.387 172.052C456.344 172.052 457.159 171.969 457.833 171.803C458.517 171.627 459.073 171.378 459.503 171.056C459.933 170.733 460.245 170.343 460.44 169.884C460.636 169.425 460.733 168.907 460.733 168.331C460.733 167.804 460.616 167.345 460.382 166.954C460.147 166.563 459.815 166.236 459.386 165.973C458.966 165.709 458.458 165.514 457.862 165.387C457.276 165.25 456.632 165.182 455.929 165.182H453.746V163.087H455.958C456.534 163.087 457.057 163.014 457.525 162.867C458.004 162.711 458.409 162.491 458.741 162.208C459.083 161.925 459.342 161.578 459.518 161.168C459.703 160.748 459.796 160.274 459.796 159.747C459.796 158.722 459.483 157.975 458.858 157.506C458.233 157.037 457.315 156.803 456.104 156.803C455.46 156.803 454.796 156.866 454.112 156.993C453.429 157.12 452.696 157.311 451.915 157.564V155.338C452.247 155.221 452.599 155.118 452.97 155.03C453.351 154.933 453.727 154.854 454.098 154.796C454.479 154.728 454.854 154.679 455.226 154.649C455.597 154.61 455.953 154.591 456.295 154.591C457.311 154.591 458.204 154.703 458.976 154.928C459.747 155.143 460.392 155.455 460.909 155.865C461.427 156.275 461.817 156.773 462.081 157.359C462.345 157.945 462.477 158.604 462.477 159.337C462.477 160.431 462.193 161.349 461.627 162.091C461.07 162.833 460.304 163.424 459.327 163.863C459.825 163.941 460.313 164.098 460.792 164.332C461.28 164.566 461.715 164.869 462.096 165.24C462.486 165.602 462.799 166.031 463.033 166.529C463.277 167.027 463.399 167.579 463.399 168.185Z" fill="black"/>
<path d="M247.718 169.767H244.451V174H241.844V169.767H232.63V167.525L240.789 154.854H244.451V167.525H247.718V169.767ZM241.844 157.315L235.179 167.525H241.844V157.315Z" fill="black"/>
</g>
<defs>
<clipPath id="clip0_6254_715">
<rect width="484" height="218" fill="white"/>
</clipPath>
</defs>
</svg>
