<svg width="599" height="239" viewBox="0 0 599 239" fill="none" xmlns="http://www.w3.org/2000/svg">
<g clip-path="url(#clip0_6175_553)">
<rect width="599" height="239" fill="white"/>
<circle opacity="0.3" cx="165.5" cy="101" r="12" fill="#00BD36"/>
<circle opacity="0.3" cx="529" cy="54.5" r="13" fill="#00BD36"/>
<path d="M443.276 19H441.067V10.8623C441.067 9.88053 440.881 9.14844 440.509 8.66602C440.145 8.17513 439.62 7.92969 438.935 7.92969C438.638 7.92969 438.359 7.97201 438.097 8.05664C437.843 8.13281 437.576 8.27246 437.297 8.47559C437.018 8.67025 436.713 8.93685 436.383 9.27539C436.053 9.61393 435.672 10.0371 435.24 10.5449V19H433.031V1.06152H435.24V6.25391L435.164 8.25977C435.511 7.84505 435.85 7.49805 436.18 7.21875C436.518 6.93099 436.853 6.69824 437.183 6.52051C437.521 6.34277 437.864 6.21582 438.211 6.13965C438.558 6.06348 438.918 6.02539 439.29 6.02539C440.56 6.02539 441.541 6.41471 442.235 7.19336C442.929 7.96354 443.276 9.12728 443.276 10.6846V19ZM455.515 19L455.464 17.2861C454.77 17.9717 454.063 18.4668 453.344 18.7715C452.633 19.0762 451.884 19.2285 451.097 19.2285C450.369 19.2285 449.747 19.1354 449.23 18.9492C448.714 18.763 448.287 18.5091 447.948 18.1875C447.618 17.8574 447.373 17.4723 447.212 17.0322C447.06 16.5921 446.983 16.1139 446.983 15.5977C446.983 14.3197 447.457 13.321 448.405 12.6016C449.362 11.8737 450.771 11.5098 452.633 11.5098H455.273V10.3926C455.273 9.63932 455.032 9.03841 454.55 8.58984C454.067 8.13281 453.331 7.9043 452.341 7.9043C451.621 7.9043 450.91 7.9847 450.208 8.14551C449.514 8.30632 448.795 8.53483 448.05 8.83105V6.83789C448.329 6.73633 448.638 6.639 448.977 6.5459C449.324 6.44434 449.688 6.35547 450.068 6.2793C450.449 6.20312 450.847 6.14388 451.262 6.10156C451.676 6.05078 452.095 6.02539 452.519 6.02539C453.289 6.02539 453.983 6.11003 454.601 6.2793C455.218 6.44857 455.739 6.70671 456.162 7.05371C456.594 7.40072 456.924 7.83659 457.152 8.36133C457.381 8.88607 457.495 9.50391 457.495 10.2148V19H455.515ZM455.273 13.1982H452.468C451.918 13.1982 451.444 13.2533 451.046 13.3633C450.648 13.4733 450.322 13.6299 450.068 13.833C449.814 14.0361 449.624 14.2816 449.497 14.5693C449.379 14.8486 449.319 15.166 449.319 15.5215C449.319 15.7669 449.357 16.0039 449.434 16.2324C449.51 16.4525 449.632 16.6514 449.802 16.8291C449.971 16.9984 450.191 17.1338 450.462 17.2354C450.733 17.3369 451.063 17.3877 451.452 17.3877C451.96 17.3877 452.54 17.2354 453.191 16.9307C453.852 16.6175 454.546 16.1266 455.273 15.458V13.1982ZM471.714 15.5215C471.714 15.9701 471.638 16.3721 471.485 16.7275C471.333 17.083 471.126 17.4004 470.863 17.6797C470.601 17.9505 470.296 18.1833 469.949 18.3779C469.602 18.5726 469.23 18.7334 468.832 18.8604C468.443 18.9873 468.041 19.0804 467.626 19.1396C467.211 19.1989 466.805 19.2285 466.407 19.2285C465.544 19.2285 464.748 19.1904 464.021 19.1143C463.301 19.0381 462.594 18.9154 461.9 18.7461V16.7148C462.645 16.9264 463.386 17.0872 464.122 17.1973C464.858 17.3073 465.59 17.3623 466.318 17.3623C467.376 17.3623 468.159 17.2184 468.667 16.9307C469.175 16.6429 469.429 16.2324 469.429 15.6992C469.429 15.4707 469.386 15.2676 469.302 15.0898C469.226 14.9036 469.082 14.7301 468.87 14.5693C468.659 14.4001 468.328 14.2266 467.88 14.0488C467.44 13.8711 466.835 13.668 466.064 13.4395C465.489 13.2702 464.956 13.0798 464.465 12.8682C463.982 12.6481 463.563 12.39 463.208 12.0938C462.853 11.7975 462.573 11.4505 462.37 11.0527C462.167 10.6549 462.065 10.1852 462.065 9.64355C462.065 9.28809 462.146 8.89876 462.307 8.47559C462.476 8.05241 462.759 7.65885 463.157 7.29492C463.555 6.93099 464.092 6.63053 464.77 6.39355C465.447 6.14811 466.293 6.02539 467.309 6.02539C467.808 6.02539 468.362 6.05501 468.972 6.11426C469.581 6.16504 470.216 6.25814 470.876 6.39355V8.36133C470.182 8.19206 469.522 8.06934 468.896 7.99316C468.278 7.90853 467.74 7.86621 467.283 7.86621C466.733 7.86621 466.268 7.90853 465.887 7.99316C465.514 8.0778 465.21 8.19629 464.973 8.34863C464.744 8.49251 464.579 8.66602 464.478 8.86914C464.376 9.0638 464.325 9.27539 464.325 9.50391C464.325 9.73242 464.368 9.93978 464.452 10.126C464.545 10.3122 464.71 10.4941 464.947 10.6719C465.193 10.8411 465.531 11.0146 465.963 11.1924C466.395 11.3617 466.957 11.5479 467.651 11.751C468.405 11.971 469.039 12.2038 469.556 12.4492C470.072 12.6862 470.491 12.9528 470.812 13.249C471.134 13.5452 471.363 13.8796 471.498 14.252C471.642 14.6243 471.714 15.0475 471.714 15.5215ZM486.161 19H483.952V10.8623C483.952 9.88053 483.766 9.14844 483.394 8.66602C483.03 8.17513 482.505 7.92969 481.819 7.92969C481.523 7.92969 481.244 7.97201 480.981 8.05664C480.728 8.13281 480.461 8.27246 480.182 8.47559C479.902 8.67025 479.598 8.93685 479.268 9.27539C478.938 9.61393 478.557 10.0371 478.125 10.5449V19H475.916V1.06152H478.125V6.25391L478.049 8.25977C478.396 7.84505 478.734 7.49805 479.064 7.21875C479.403 6.93099 479.737 6.69824 480.067 6.52051C480.406 6.34277 480.749 6.21582 481.096 6.13965C481.443 6.06348 481.802 6.02539 482.175 6.02539C483.444 6.02539 484.426 6.41471 485.12 7.19336C485.814 7.96354 486.161 9.12728 486.161 10.6846V19ZM499.301 19V9.84668C499.301 9.44889 499.284 9.12305 499.25 8.86914C499.225 8.61523 499.178 8.41634 499.11 8.27246C499.051 8.12012 498.971 8.01432 498.869 7.95508C498.776 7.89583 498.658 7.86621 498.514 7.86621C498.344 7.86621 498.188 7.91699 498.044 8.01855C497.9 8.12012 497.743 8.28516 497.574 8.51367C497.413 8.74219 497.231 9.04688 497.028 9.42773C496.834 9.80013 496.601 10.2614 496.33 10.8115V19H494.312V10.0879C494.312 9.6224 494.295 9.24577 494.261 8.95801C494.235 8.67025 494.189 8.44596 494.121 8.28516C494.062 8.12435 493.981 8.01432 493.88 7.95508C493.778 7.89583 493.656 7.86621 493.512 7.86621C493.359 7.86621 493.215 7.90853 493.08 7.99316C492.945 8.0778 492.792 8.23014 492.623 8.4502C492.462 8.67025 492.28 8.9707 492.077 9.35156C491.874 9.73242 491.633 10.2191 491.354 10.8115V19H489.322V6.25391H491.011L491.112 8.67871C491.332 8.19629 491.544 7.78581 491.747 7.44727C491.959 7.10872 492.174 6.83789 492.395 6.63477C492.615 6.42318 492.847 6.27083 493.093 6.17773C493.347 6.07617 493.626 6.02539 493.931 6.02539C494.616 6.02539 495.137 6.24967 495.492 6.69824C495.848 7.14681 496.025 7.84082 496.025 8.78027C496.229 8.34017 496.427 7.95085 496.622 7.6123C496.817 7.2653 497.024 6.97754 497.244 6.74902C497.473 6.51204 497.722 6.33431 497.993 6.21582C498.264 6.08887 498.577 6.02539 498.933 6.02539C500.532 6.02539 501.332 7.25684 501.332 9.71973V19H499.301ZM512.694 19L512.644 17.2861C511.95 17.9717 511.243 18.4668 510.523 18.7715C509.812 19.0762 509.063 19.2285 508.276 19.2285C507.549 19.2285 506.926 19.1354 506.41 18.9492C505.894 18.763 505.466 18.5091 505.128 18.1875C504.798 17.8574 504.552 17.4723 504.392 17.0322C504.239 16.5921 504.163 16.1139 504.163 15.5977C504.163 14.3197 504.637 13.321 505.585 12.6016C506.541 11.8737 507.951 11.5098 509.812 11.5098H512.453V10.3926C512.453 9.63932 512.212 9.03841 511.729 8.58984C511.247 8.13281 510.511 7.9043 509.521 7.9043C508.801 7.9043 508.09 7.9847 507.388 8.14551C506.694 8.30632 505.974 8.53483 505.229 8.83105V6.83789C505.509 6.73633 505.818 6.639 506.156 6.5459C506.503 6.44434 506.867 6.35547 507.248 6.2793C507.629 6.20312 508.027 6.14388 508.441 6.10156C508.856 6.05078 509.275 6.02539 509.698 6.02539C510.468 6.02539 511.162 6.11003 511.78 6.2793C512.398 6.44857 512.919 6.70671 513.342 7.05371C513.773 7.40072 514.104 7.83659 514.332 8.36133C514.561 8.88607 514.675 9.50391 514.675 10.2148V19H512.694ZM512.453 13.1982H509.647C509.097 13.1982 508.623 13.2533 508.226 13.3633C507.828 13.4733 507.502 13.6299 507.248 13.833C506.994 14.0361 506.804 14.2816 506.677 14.5693C506.558 14.8486 506.499 15.166 506.499 15.5215C506.499 15.7669 506.537 16.0039 506.613 16.2324C506.689 16.4525 506.812 16.6514 506.981 16.8291C507.151 16.9984 507.371 17.1338 507.642 17.2354C507.912 17.3369 508.243 17.3877 508.632 17.3877C509.14 17.3877 509.719 17.2354 510.371 16.9307C511.031 16.6175 511.725 16.1266 512.453 15.458V13.1982ZM529.693 12.3984C529.693 13.5326 529.533 14.5228 529.211 15.3691C528.898 16.2155 528.462 16.918 527.903 17.4766C527.345 18.0352 526.685 18.4541 525.923 18.7334C525.161 19.0127 524.336 19.1523 523.447 19.1523C523.041 19.1523 522.635 19.1312 522.229 19.0889C521.831 19.0465 521.424 18.9746 521.01 18.873V24.2051H518.801V6.25391H520.769L520.908 8.38672C521.543 7.51497 522.22 6.9056 522.939 6.55859C523.659 6.20312 524.438 6.02539 525.275 6.02539C526.003 6.02539 526.642 6.17773 527.192 6.48242C527.743 6.78711 528.204 7.21875 528.576 7.77734C528.949 8.32747 529.228 8.99609 529.414 9.7832C529.6 10.5618 529.693 11.4336 529.693 12.3984ZM527.434 12.5C527.434 11.8314 527.383 11.2178 527.281 10.6592C527.188 10.1006 527.036 9.6224 526.824 9.22461C526.613 8.82682 526.342 8.5179 526.012 8.29785C525.682 8.06934 525.288 7.95508 524.831 7.95508C524.552 7.95508 524.268 8.00163 523.98 8.09473C523.693 8.17936 523.392 8.32747 523.079 8.53906C522.774 8.74219 522.449 9.01725 522.102 9.36426C521.763 9.7028 521.399 10.126 521.01 10.6338V16.8164C521.416 16.9857 521.843 17.1211 522.292 17.2227C522.741 17.3158 523.181 17.3623 523.612 17.3623C524.806 17.3623 525.741 16.9603 526.418 16.1562C527.095 15.3438 527.434 14.125 527.434 12.5Z" fill="black"/>
<rect x="381" y="27" width="202" height="86" rx="9" stroke="black" stroke-width="2"/>
<path d="M482 37L482 104" stroke="#DEDEDE" stroke-linecap="round"/>
<path d="M415.562 120.195H417.076L417.145 121.777C417.431 121.439 417.708 121.159 417.975 120.938C418.242 120.71 418.502 120.527 418.756 120.391C419.016 120.254 419.28 120.16 419.547 120.107C419.814 120.049 420.09 120.02 420.377 120.02C421.386 120.02 422.148 120.319 422.662 120.918C423.183 121.51 423.443 122.406 423.443 123.604V130H421.744V123.74C421.744 122.972 421.601 122.406 421.314 122.041C421.028 121.67 420.602 121.484 420.035 121.484C419.827 121.484 419.622 121.517 419.42 121.582C419.225 121.641 419.02 121.748 418.805 121.904C418.59 122.054 418.355 122.259 418.102 122.52C417.854 122.78 417.574 123.105 417.262 123.496V130H415.562V120.195ZM434.439 130H432.916L432.857 128.418C432.564 128.757 432.285 129.04 432.018 129.268C431.757 129.489 431.497 129.668 431.236 129.805C430.976 129.941 430.712 130.036 430.445 130.088C430.185 130.146 429.908 130.176 429.615 130.176C428.606 130.176 427.844 129.88 427.33 129.287C426.816 128.695 426.559 127.799 426.559 126.602V120.195H428.258V126.465C428.258 127.969 428.824 128.721 429.957 128.721C430.165 128.721 430.367 128.691 430.562 128.633C430.764 128.568 430.973 128.46 431.188 128.311C431.409 128.154 431.643 127.946 431.891 127.686C432.145 127.425 432.428 127.096 432.74 126.699V120.195H434.439V130ZM444.547 130V122.959C444.547 122.653 444.534 122.402 444.508 122.207C444.488 122.012 444.452 121.859 444.4 121.748C444.355 121.631 444.293 121.549 444.215 121.504C444.143 121.458 444.052 121.436 443.941 121.436C443.811 121.436 443.691 121.475 443.58 121.553C443.469 121.631 443.349 121.758 443.219 121.934C443.095 122.109 442.955 122.344 442.799 122.637C442.649 122.923 442.47 123.278 442.262 123.701V130H440.709V123.145C440.709 122.786 440.696 122.497 440.67 122.275C440.65 122.054 440.615 121.882 440.562 121.758C440.517 121.634 440.455 121.549 440.377 121.504C440.299 121.458 440.204 121.436 440.094 121.436C439.977 121.436 439.866 121.468 439.762 121.533C439.658 121.598 439.54 121.715 439.41 121.885C439.286 122.054 439.146 122.285 438.99 122.578C438.834 122.871 438.648 123.245 438.434 123.701V130H436.871V120.195H438.17L438.248 122.061C438.417 121.689 438.58 121.374 438.736 121.113C438.899 120.853 439.065 120.645 439.234 120.488C439.404 120.326 439.583 120.208 439.771 120.137C439.967 120.059 440.182 120.02 440.416 120.02C440.943 120.02 441.344 120.192 441.617 120.537C441.891 120.882 442.027 121.416 442.027 122.139C442.184 121.8 442.337 121.501 442.486 121.24C442.636 120.973 442.796 120.752 442.965 120.576C443.141 120.394 443.333 120.257 443.541 120.166C443.749 120.068 443.99 120.02 444.264 120.02C445.494 120.02 446.109 120.967 446.109 122.861V130H444.547Z" fill="#999999"/>
<path d="M506.902 121.602H504.002V120.195H508.621V128.584H511.541V130H503.68V128.584H506.902V121.602ZM507.498 116.084C507.687 116.084 507.863 116.12 508.025 116.191C508.188 116.257 508.328 116.351 508.445 116.475C508.569 116.598 508.663 116.742 508.729 116.904C508.8 117.061 508.836 117.233 508.836 117.422C508.836 117.604 508.8 117.777 508.729 117.939C508.663 118.102 508.569 118.245 508.445 118.369C508.328 118.493 508.188 118.59 508.025 118.662C507.863 118.727 507.687 118.76 507.498 118.76C507.309 118.76 507.133 118.727 506.971 118.662C506.808 118.59 506.665 118.493 506.541 118.369C506.424 118.245 506.329 118.102 506.258 117.939C506.193 117.777 506.16 117.604 506.16 117.422C506.16 117.233 506.193 117.061 506.258 116.904C506.329 116.742 506.424 116.598 506.541 116.475C506.665 116.351 506.808 116.257 506.971 116.191C507.133 116.12 507.309 116.084 507.498 116.084ZM514.559 120.195H516.072L516.141 121.777C516.427 121.439 516.704 121.159 516.971 120.938C517.238 120.71 517.498 120.527 517.752 120.391C518.012 120.254 518.276 120.16 518.543 120.107C518.81 120.049 519.087 120.02 519.373 120.02C520.382 120.02 521.144 120.319 521.658 120.918C522.179 121.51 522.439 122.406 522.439 123.604V130H520.74V123.74C520.74 122.972 520.597 122.406 520.311 122.041C520.024 121.67 519.598 121.484 519.031 121.484C518.823 121.484 518.618 121.517 518.416 121.582C518.221 121.641 518.016 121.748 517.801 121.904C517.586 122.054 517.352 122.259 517.098 122.52C516.85 122.78 516.57 123.105 516.258 123.496V130H514.559V120.195ZM525.057 125.303C525.057 124.469 525.171 123.73 525.398 123.086C525.626 122.435 525.949 121.888 526.365 121.445C526.788 120.996 527.293 120.658 527.879 120.43C528.471 120.195 529.129 120.078 529.852 120.078C530.164 120.078 530.47 120.098 530.77 120.137C531.076 120.176 531.375 120.238 531.668 120.322V116.201H533.377V130H531.854L531.795 128.145C531.32 128.835 530.805 129.346 530.252 129.678C529.699 130.01 529.1 130.176 528.455 130.176C527.895 130.176 527.4 130.059 526.971 129.824C526.548 129.59 526.193 129.261 525.906 128.838C525.626 128.408 525.415 127.894 525.271 127.295C525.128 126.696 525.057 126.032 525.057 125.303ZM526.795 125.195C526.795 126.38 526.967 127.266 527.312 127.852C527.664 128.431 528.159 128.721 528.797 128.721C529.227 128.721 529.679 128.529 530.154 128.145C530.636 127.76 531.141 127.191 531.668 126.436V121.885C531.388 121.755 531.079 121.657 530.74 121.592C530.402 121.52 530.066 121.484 529.734 121.484C528.81 121.484 528.087 121.784 527.566 122.383C527.052 122.982 526.795 123.919 526.795 125.195ZM544.832 124.58C544.832 124.821 544.829 125.023 544.822 125.186C544.816 125.348 544.806 125.501 544.793 125.645H537.908C537.908 126.647 538.188 127.419 538.748 127.959C539.308 128.493 540.115 128.76 541.17 128.76C541.456 128.76 541.743 128.75 542.029 128.73C542.316 128.704 542.592 128.672 542.859 128.633C543.126 128.594 543.38 128.551 543.621 128.506C543.868 128.454 544.096 128.398 544.305 128.34V129.736C543.842 129.867 543.318 129.971 542.732 130.049C542.153 130.133 541.551 130.176 540.926 130.176C540.086 130.176 539.363 130.062 538.758 129.834C538.152 129.606 537.654 129.277 537.264 128.848C536.88 128.411 536.593 127.881 536.404 127.256C536.222 126.624 536.131 125.911 536.131 125.117C536.131 124.427 536.229 123.776 536.424 123.164C536.626 122.546 536.915 122.005 537.293 121.543C537.677 121.074 538.146 120.703 538.699 120.43C539.253 120.156 539.881 120.02 540.584 120.02C541.268 120.02 541.873 120.127 542.4 120.342C542.928 120.557 543.37 120.863 543.729 121.26C544.093 121.65 544.367 122.129 544.549 122.695C544.738 123.255 544.832 123.883 544.832 124.58ZM543.064 124.336C543.084 123.9 543.042 123.503 542.938 123.145C542.833 122.78 542.671 122.467 542.449 122.207C542.234 121.947 541.964 121.745 541.639 121.602C541.313 121.452 540.936 121.377 540.506 121.377C540.135 121.377 539.796 121.449 539.49 121.592C539.184 121.735 538.921 121.937 538.699 122.197C538.478 122.458 538.299 122.77 538.162 123.135C538.025 123.499 537.941 123.9 537.908 124.336H543.064ZM556.385 130H554.129L551.482 126.26L548.865 130H546.668L550.467 125.078L546.844 120.195H549.021L551.6 123.965L554.129 120.195H556.229L552.547 125.117L556.385 130Z" fill="#999999"/>
<path d="M24.6328 75.2178H15.873V72.8154H24.6328V75.2178ZM43.1045 82H31.0781V79.627H36V65.6523L31.415 68.1426L30.4775 65.9746L36.5713 62.7666H38.8271V79.627H43.1045V82Z" fill="black"/>
<path d="M107.652 76.1846C107.652 77.0244 107.481 77.8154 107.14 78.5576C106.798 79.29 106.285 79.9346 105.602 80.4912C104.918 81.0381 104.059 81.4727 103.023 81.7949C101.988 82.1074 100.782 82.2637 99.4053 82.2637C98.6436 82.2637 97.96 82.2393 97.3545 82.1904C96.749 82.1416 96.1826 82.0781 95.6553 82V79.7148C96.2607 79.8223 96.9004 79.9053 97.5742 79.9639C98.248 80.0225 98.9365 80.0518 99.6396 80.0518C100.597 80.0518 101.412 79.9688 102.086 79.8027C102.77 79.627 103.326 79.3779 103.756 79.0557C104.186 78.7334 104.498 78.3428 104.693 77.8838C104.889 77.4248 104.986 76.9072 104.986 76.3311C104.986 75.8037 104.869 75.3447 104.635 74.9541C104.4 74.5635 104.068 74.2363 103.639 73.9727C103.219 73.709 102.711 73.5137 102.115 73.3867C101.529 73.25 100.885 73.1816 100.182 73.1816H97.999V71.0869H100.211C100.787 71.0869 101.31 71.0137 101.778 70.8672C102.257 70.7109 102.662 70.4912 102.994 70.208C103.336 69.9248 103.595 69.5781 103.771 69.168C103.956 68.748 104.049 68.2744 104.049 67.7471C104.049 66.7217 103.736 65.9746 103.111 65.5059C102.486 65.0371 101.568 64.8027 100.357 64.8027C99.7129 64.8027 99.0488 64.8662 98.3652 64.9932C97.6816 65.1201 96.9492 65.3105 96.168 65.5645V63.3379C96.5 63.2207 96.8516 63.1182 97.2227 63.0303C97.6035 62.9326 97.9795 62.8545 98.3506 62.7959C98.7314 62.7275 99.1074 62.6787 99.4785 62.6494C99.8496 62.6104 100.206 62.5908 100.548 62.5908C101.563 62.5908 102.457 62.7031 103.229 62.9277C104 63.1426 104.645 63.4551 105.162 63.8652C105.68 64.2754 106.07 64.7734 106.334 65.3594C106.598 65.9453 106.729 66.6045 106.729 67.3369C106.729 68.4307 106.446 69.3486 105.88 70.0908C105.323 70.833 104.557 71.4238 103.58 71.8633C104.078 71.9414 104.566 72.0977 105.045 72.332C105.533 72.5664 105.968 72.8691 106.349 73.2402C106.739 73.6016 107.052 74.0312 107.286 74.5293C107.53 75.0273 107.652 75.5791 107.652 76.1846Z" fill="black"/>
<path d="M172.971 77.7666H169.704V82H167.097V77.7666H157.883V75.5254L166.042 62.8545H169.704V75.5254H172.971V77.7666ZM167.097 65.3154L160.432 75.5254H167.097V65.3154Z" fill="black"/>
<path d="M236.019 82H223.406V79.7148L228.357 74.793C229.168 73.9922 229.827 73.2988 230.335 72.7129C230.843 72.127 231.238 71.5947 231.521 71.1162C231.805 70.6279 231.995 70.1689 232.093 69.7393C232.19 69.3096 232.239 68.8457 232.239 68.3477C232.239 67.8789 232.176 67.4346 232.049 67.0146C231.922 66.585 231.727 66.209 231.463 65.8867C231.199 65.5645 230.857 65.3105 230.438 65.125C230.018 64.9395 229.515 64.8467 228.929 64.8467C228.118 64.8467 227.381 65.0273 226.717 65.3887C226.053 65.75 225.442 66.2188 224.886 66.7949L223.479 65.1104C224.202 64.3486 225.032 63.7383 225.97 63.2793C226.917 62.8203 228.016 62.5908 229.266 62.5908C230.115 62.5908 230.887 62.7178 231.58 62.9717C232.283 63.2256 232.889 63.5918 233.396 64.0703C233.904 64.5488 234.295 65.1348 234.568 65.8281C234.852 66.5215 234.993 67.3027 234.993 68.1719C234.993 68.9043 234.896 69.583 234.7 70.208C234.505 70.833 234.207 71.458 233.807 72.083C233.416 72.6982 232.918 73.3379 232.312 74.002C231.717 74.666 231.009 75.3936 230.188 76.1846L226.717 79.5684H236.019V82Z" fill="black"/>
<path d="M8.27539 85.0059H1.05371V57.7891H8.27539V59.8398H3.48535V82.9551H8.27539V85.0059Z" fill="black"/>
<path d="M264.44 85.0059H257.219V82.9551H261.979V59.8398H257.219V57.7891H264.44V85.0059Z" fill="black"/>
<path opacity="0.5" d="M42.6025 100.985C42.6025 102.06 42.4951 103.041 42.2803 103.929C42.0654 104.81 41.7396 105.569 41.3027 106.206C40.8659 106.836 40.3216 107.327 39.6699 107.678C39.0254 108.021 38.2663 108.193 37.3926 108.193C36.6406 108.193 35.9567 108.054 35.3408 107.774C34.7249 107.488 34.1986 107.051 33.7617 106.464C33.3249 105.877 32.9883 105.128 32.752 104.219C32.5156 103.309 32.3975 102.231 32.3975 100.985C32.3975 99.9111 32.5049 98.93 32.7197 98.042C32.9417 97.154 33.2676 96.3949 33.6973 95.7646C34.1341 95.1273 34.6784 94.6367 35.3301 94.293C35.9818 93.9421 36.7409 93.7666 37.6074 93.7666C38.3594 93.7666 39.0433 93.9098 39.6592 94.1963C40.2751 94.4756 40.8014 94.9124 41.2383 95.5068C41.6751 96.0941 42.0117 96.8424 42.248 97.752C42.4844 98.6615 42.6025 99.7393 42.6025 100.985ZM40.7119 101.05C40.7119 100.806 40.7012 100.566 40.6797 100.33C40.6654 100.087 40.6475 99.8503 40.626 99.6211L34.6855 104.036C34.793 104.409 34.929 104.752 35.0938 105.067C35.2585 105.382 35.4554 105.655 35.6846 105.884C35.9209 106.106 36.1859 106.281 36.4795 106.41C36.7803 106.532 37.1204 106.593 37.5 106.593C37.987 106.593 38.4274 106.475 38.8213 106.238C39.2223 106.002 39.5625 105.651 39.8418 105.186C40.1211 104.72 40.3359 104.144 40.4863 103.456C40.6367 102.761 40.7119 101.959 40.7119 101.05ZM34.2881 100.921C34.2881 101.143 34.2881 101.365 34.2881 101.587C34.2952 101.809 34.3096 102.024 34.3311 102.231L40.2715 97.8379C40.1641 97.4727 40.028 97.1396 39.8633 96.8389C39.6986 96.5381 39.5016 96.2803 39.2725 96.0654C39.0433 95.8434 38.7819 95.6715 38.4883 95.5498C38.1947 95.4281 37.8652 95.3672 37.5 95.3672C37.013 95.3672 36.569 95.4854 36.168 95.7217C35.7741 95.958 35.4375 96.3125 35.1582 96.7852C34.8789 97.2507 34.6641 97.8307 34.5137 98.5254C34.3633 99.2129 34.2881 100.011 34.2881 100.921Z" fill="black"/>
<path opacity="0.5" d="M106.162 108H97.3428V106.26H100.952V96.0117L97.5898 97.8379L96.9023 96.248L101.371 93.8955H103.025V106.26H106.162V108Z" fill="black"/>
<path d="M170.28 108H161.031V106.324L164.662 102.715C165.257 102.128 165.74 101.619 166.112 101.189C166.485 100.76 166.775 100.369 166.982 100.019C167.19 99.6605 167.33 99.3239 167.401 99.0088C167.473 98.6937 167.509 98.3535 167.509 97.9883C167.509 97.6445 167.462 97.3187 167.369 97.0107C167.276 96.6956 167.133 96.4199 166.939 96.1836C166.746 95.9473 166.495 95.7611 166.188 95.625C165.88 95.4889 165.511 95.4209 165.081 95.4209C164.487 95.4209 163.946 95.5534 163.459 95.8184C162.972 96.0833 162.524 96.4271 162.116 96.8496L161.085 95.6143C161.615 95.0557 162.224 94.6081 162.911 94.2715C163.606 93.9349 164.411 93.7666 165.328 93.7666C165.951 93.7666 166.517 93.8597 167.025 94.0459C167.541 94.2321 167.985 94.5007 168.357 94.8516C168.73 95.2025 169.016 95.6322 169.217 96.1406C169.424 96.6491 169.528 97.222 169.528 97.8594C169.528 98.3965 169.457 98.8942 169.313 99.3525C169.17 99.8109 168.952 100.269 168.658 100.728C168.372 101.179 168.007 101.648 167.562 102.135C167.126 102.622 166.606 103.155 166.005 103.735L163.459 106.217H170.28V108Z" fill="black"/>
<path opacity="0.5" d="M234.012 103.735C234.012 104.351 233.886 104.931 233.636 105.476C233.385 106.013 233.009 106.485 232.508 106.894C232.007 107.295 231.376 107.613 230.617 107.85C229.858 108.079 228.974 108.193 227.964 108.193C227.405 108.193 226.904 108.175 226.46 108.14C226.016 108.104 225.601 108.057 225.214 108V106.324C225.658 106.403 226.127 106.464 226.621 106.507C227.115 106.55 227.62 106.571 228.136 106.571C228.838 106.571 229.436 106.51 229.93 106.389C230.431 106.26 230.839 106.077 231.154 105.841C231.469 105.604 231.699 105.318 231.842 104.981C231.985 104.645 232.057 104.265 232.057 103.843C232.057 103.456 231.971 103.119 231.799 102.833C231.627 102.547 231.383 102.307 231.068 102.113C230.76 101.92 230.388 101.777 229.951 101.684C229.521 101.583 229.049 101.533 228.533 101.533H226.933V99.9971H228.555C228.977 99.9971 229.36 99.9434 229.704 99.8359C230.055 99.7214 230.352 99.5602 230.596 99.3525C230.846 99.1449 231.036 98.8906 231.165 98.5898C231.301 98.2819 231.369 97.9346 231.369 97.5479C231.369 96.7959 231.14 96.248 230.682 95.9043C230.223 95.5605 229.55 95.3887 228.662 95.3887C228.189 95.3887 227.702 95.4352 227.201 95.5283C226.7 95.6214 226.163 95.7611 225.59 95.9473V94.3145C225.833 94.2285 226.091 94.1533 226.363 94.0889C226.643 94.0173 226.918 93.96 227.19 93.917C227.47 93.8669 227.745 93.8311 228.018 93.8096C228.29 93.7809 228.551 93.7666 228.802 93.7666C229.547 93.7666 230.202 93.849 230.768 94.0137C231.333 94.1712 231.806 94.4004 232.186 94.7012C232.565 95.002 232.852 95.3672 233.045 95.7969C233.238 96.2266 233.335 96.71 233.335 97.2471C233.335 98.0492 233.127 98.7223 232.712 99.2666C232.304 99.8109 231.742 100.244 231.025 100.566C231.391 100.624 231.749 100.738 232.1 100.91C232.458 101.082 232.776 101.304 233.056 101.576C233.342 101.841 233.571 102.156 233.743 102.521C233.922 102.887 234.012 103.291 234.012 103.735Z" fill="black"/>
<path d="M295 71C294.448 71 294 71.4477 294 72C294 72.5523 294.448 73 295 73V71ZM349.707 72.7071C350.098 72.3166 350.098 71.6834 349.707 71.2929L343.343 64.9289C342.953 64.5384 342.319 64.5384 341.929 64.9289C341.538 65.3195 341.538 65.9526 341.929 66.3431L347.586 72L341.929 77.6569C341.538 78.0474 341.538 78.6805 341.929 79.0711C342.319 79.4616 342.953 79.4616 343.343 79.0711L349.707 72.7071ZM295 73H349V71H295V73Z" fill="black"/>
<path d="M171.883 26H169.176L166 21.5117L162.859 26H160.223L164.781 20.0938L160.434 14.2344H163.047L166.141 18.7578L169.176 14.2344H171.695L167.277 20.1406L171.883 26Z" fill="#FF5500"/>
<path d="M165.293 57.7071C165.683 58.0976 166.317 58.0976 166.707 57.7071L173.071 51.3431C173.462 50.9526 173.462 50.3195 173.071 49.9289C172.681 49.5384 172.047 49.5384 171.657 49.9289L166 55.5858L160.343 49.9289C159.953 49.5384 159.319 49.5384 158.929 49.9289C158.538 50.3195 158.538 50.9526 158.929 51.3431L165.293 57.7071ZM165 30L165 57L167 57L167 30L165 30Z" fill="#FF5500"/>
<path d="M424.627 57.2178H415.867V54.8154H424.627V57.2178ZM443.099 64H431.072V61.627H435.994V47.6523L431.409 50.1426L430.472 47.9746L436.565 44.7666H438.821V61.627H443.099V64Z" fill="black"/>
<path d="M436.399 90.1846C436.399 91.0244 436.229 91.8154 435.887 92.5576C435.545 93.29 435.032 93.9346 434.349 94.4912C433.665 95.0381 432.806 95.4727 431.771 95.7949C430.735 96.1074 429.529 96.2637 428.152 96.2637C427.391 96.2637 426.707 96.2393 426.102 96.1904C425.496 96.1416 424.93 96.0781 424.402 96V93.7148C425.008 93.8223 425.647 93.9053 426.321 93.9639C426.995 94.0225 427.684 94.0518 428.387 94.0518C429.344 94.0518 430.159 93.9688 430.833 93.8027C431.517 93.627 432.073 93.3779 432.503 93.0557C432.933 92.7334 433.245 92.3428 433.44 91.8838C433.636 91.4248 433.733 90.9072 433.733 90.3311C433.733 89.8037 433.616 89.3447 433.382 88.9541C433.147 88.5635 432.815 88.2363 432.386 87.9727C431.966 87.709 431.458 87.5137 430.862 87.3867C430.276 87.25 429.632 87.1816 428.929 87.1816H426.746V85.0869H428.958C429.534 85.0869 430.057 85.0137 430.525 84.8672C431.004 84.7109 431.409 84.4912 431.741 84.208C432.083 83.9248 432.342 83.5781 432.518 83.168C432.703 82.748 432.796 82.2744 432.796 81.7471C432.796 80.7217 432.483 79.9746 431.858 79.5059C431.233 79.0371 430.315 78.8027 429.104 78.8027C428.46 78.8027 427.796 78.8662 427.112 78.9932C426.429 79.1201 425.696 79.3105 424.915 79.5645V77.3379C425.247 77.2207 425.599 77.1182 425.97 77.0303C426.351 76.9326 426.727 76.8545 427.098 76.7959C427.479 76.7275 427.854 76.6787 428.226 76.6494C428.597 76.6104 428.953 76.5908 429.295 76.5908C430.311 76.5908 431.204 76.7031 431.976 76.9277C432.747 77.1426 433.392 77.4551 433.909 77.8652C434.427 78.2754 434.817 78.7734 435.081 79.3594C435.345 79.9453 435.477 80.6045 435.477 81.3369C435.477 82.4307 435.193 83.3486 434.627 84.0908C434.07 84.833 433.304 85.4238 432.327 85.8633C432.825 85.9414 433.313 86.0977 433.792 86.332C434.28 86.5664 434.715 86.8691 435.096 87.2402C435.486 87.6016 435.799 88.0312 436.033 88.5293C436.277 89.0273 436.399 89.5791 436.399 90.1846Z" fill="black"/>
<path d="M536.205 54.4346C536.205 55.8994 536.059 57.2373 535.766 58.4482C535.473 59.6494 535.028 60.6846 534.433 61.5537C533.837 62.4131 533.095 63.082 532.206 63.5605C531.327 64.0293 530.292 64.2637 529.101 64.2637C528.075 64.2637 527.143 64.0732 526.303 63.6924C525.463 63.3018 524.745 62.7061 524.149 61.9053C523.554 61.1045 523.095 60.084 522.772 58.8438C522.45 57.6035 522.289 56.1338 522.289 54.4346C522.289 52.9697 522.436 51.6318 522.729 50.4209C523.031 49.21 523.476 48.1748 524.062 47.3154C524.657 46.4463 525.399 45.7773 526.288 45.3086C527.177 44.8301 528.212 44.5908 529.394 44.5908C530.419 44.5908 531.352 44.7861 532.191 45.1768C533.031 45.5576 533.749 46.1533 534.345 46.9639C534.94 47.7646 535.399 48.7852 535.722 50.0254C536.044 51.2656 536.205 52.7354 536.205 54.4346ZM533.627 54.5225C533.627 54.1904 533.612 53.8633 533.583 53.541C533.563 53.209 533.539 52.8867 533.51 52.5742L525.409 58.5947C525.556 59.1025 525.741 59.5713 525.966 60.001C526.19 60.4307 526.459 60.8018 526.771 61.1143C527.094 61.417 527.455 61.6562 527.855 61.832C528.266 61.998 528.729 62.0811 529.247 62.0811C529.911 62.0811 530.512 61.9199 531.049 61.5977C531.596 61.2754 532.06 60.7969 532.44 60.1621C532.821 59.5273 533.114 58.7412 533.319 57.8037C533.524 56.8564 533.627 55.7627 533.627 54.5225ZM524.867 54.3467C524.867 54.6494 524.867 54.9521 524.867 55.2549C524.877 55.5576 524.896 55.8506 524.926 56.1338L533.026 50.1426C532.88 49.6445 532.694 49.1904 532.47 48.7803C532.245 48.3701 531.977 48.0186 531.664 47.7256C531.352 47.4229 530.995 47.1885 530.595 47.0225C530.194 46.8564 529.745 46.7734 529.247 46.7734C528.583 46.7734 527.978 46.9346 527.431 47.2568C526.894 47.5791 526.435 48.0625 526.054 48.707C525.673 49.3418 525.38 50.1328 525.175 51.0801C524.97 52.0176 524.867 53.1064 524.867 54.3467Z" fill="black"/>
<path d="M535.604 96H523.578V93.627H528.5V79.6523L523.915 82.1426L522.978 79.9746L529.071 76.7666H531.327V93.627H535.604V96Z" fill="black"/>
<path d="M382.944 201.293H385.273L385.347 204.003C386.216 202.958 387.07 202.201 387.91 201.732C388.76 201.264 389.614 201.029 390.474 201.029C391.997 201.029 393.149 201.522 393.931 202.509C394.722 203.495 395.088 204.96 395.029 206.903H392.451C392.48 205.614 392.29 204.682 391.88 204.105C391.479 203.52 390.889 203.227 390.107 203.227C389.766 203.227 389.419 203.29 389.067 203.417C388.726 203.534 388.369 203.729 387.998 204.003C387.637 204.267 387.251 204.608 386.841 205.028C386.431 205.448 385.991 205.956 385.522 206.552V216H382.944V201.293ZM411.26 207.87C411.26 208.231 411.255 208.534 411.245 208.778C411.235 209.022 411.221 209.252 411.201 209.467H400.874C400.874 210.971 401.294 212.128 402.134 212.938C402.974 213.739 404.185 214.14 405.767 214.14C406.196 214.14 406.626 214.125 407.056 214.096C407.485 214.057 407.9 214.008 408.301 213.949C408.701 213.891 409.082 213.827 409.443 213.759C409.814 213.681 410.156 213.598 410.469 213.51V215.604C409.775 215.8 408.989 215.956 408.11 216.073C407.241 216.2 406.338 216.264 405.4 216.264C404.141 216.264 403.057 216.093 402.148 215.751C401.24 215.409 400.493 214.916 399.907 214.271C399.331 213.617 398.901 212.821 398.618 211.884C398.345 210.937 398.208 209.867 398.208 208.676C398.208 207.641 398.354 206.664 398.647 205.746C398.95 204.818 399.385 204.008 399.951 203.314C400.527 202.611 401.23 202.055 402.061 201.645C402.891 201.234 403.833 201.029 404.888 201.029C405.913 201.029 406.821 201.19 407.612 201.513C408.403 201.835 409.067 202.294 409.604 202.89C410.151 203.476 410.562 204.193 410.835 205.043C411.118 205.883 411.26 206.825 411.26 207.87ZM408.608 207.504C408.638 206.85 408.574 206.254 408.418 205.717C408.262 205.17 408.018 204.701 407.686 204.311C407.363 203.92 406.958 203.617 406.47 203.402C405.981 203.178 405.415 203.065 404.771 203.065C404.214 203.065 403.706 203.173 403.247 203.388C402.788 203.603 402.393 203.905 402.061 204.296C401.729 204.687 401.46 205.155 401.255 205.702C401.05 206.249 400.923 206.85 400.874 207.504H408.608ZM427.183 215.795C426.606 215.941 426.011 216.044 425.396 216.103C424.78 216.171 424.155 216.205 423.521 216.205C421.675 216.205 420.298 215.79 419.39 214.96C418.481 214.12 418.027 212.836 418.027 211.107V203.432H413.911V201.293H418.027V197.25L420.576 196.591V201.293H427.183V203.432H420.576V210.902C420.576 211.957 420.854 212.748 421.411 213.275C421.978 213.793 422.808 214.052 423.901 214.052C424.37 214.052 424.883 214.018 425.439 213.949C425.996 213.871 426.577 213.754 427.183 213.598V215.795ZM443.647 216H441.362L441.274 213.627C440.835 214.135 440.415 214.56 440.015 214.901C439.624 215.233 439.233 215.502 438.843 215.707C438.452 215.912 438.057 216.054 437.656 216.132C437.266 216.22 436.851 216.264 436.411 216.264C434.897 216.264 433.755 215.819 432.983 214.931C432.212 214.042 431.826 212.699 431.826 210.902V201.293H434.375V210.697C434.375 212.953 435.225 214.081 436.924 214.081C437.236 214.081 437.539 214.037 437.832 213.949C438.135 213.852 438.447 213.69 438.77 213.466C439.102 213.231 439.453 212.919 439.824 212.528C440.205 212.138 440.63 211.645 441.099 211.049V201.293H443.647V216ZM448.921 201.293H451.25L451.323 204.003C452.192 202.958 453.047 202.201 453.887 201.732C454.736 201.264 455.591 201.029 456.45 201.029C457.974 201.029 459.126 201.522 459.907 202.509C460.698 203.495 461.064 204.96 461.006 206.903H458.428C458.457 205.614 458.267 204.682 457.856 204.105C457.456 203.52 456.865 203.227 456.084 203.227C455.742 203.227 455.396 203.29 455.044 203.417C454.702 203.534 454.346 203.729 453.975 204.003C453.613 204.267 453.228 204.608 452.817 205.028C452.407 205.448 451.968 205.956 451.499 206.552V216H448.921V201.293ZM464.814 201.293H467.085L467.188 203.666C467.617 203.158 468.032 202.738 468.433 202.406C468.833 202.064 469.224 201.791 469.604 201.586C469.995 201.381 470.391 201.239 470.791 201.161C471.191 201.073 471.606 201.029 472.036 201.029C473.55 201.029 474.692 201.479 475.464 202.377C476.245 203.266 476.636 204.608 476.636 206.405V216H474.087V206.61C474.087 205.458 473.872 204.608 473.442 204.062C473.013 203.505 472.373 203.227 471.523 203.227C471.211 203.227 470.903 203.275 470.601 203.373C470.308 203.461 470 203.622 469.678 203.856C469.355 204.081 469.004 204.389 468.623 204.779C468.252 205.17 467.832 205.658 467.363 206.244V216H464.814V201.293ZM507.734 222.006H500.513V194.789H507.734V196.84H502.944V219.955H507.734V222.006ZM527.158 206.435C527.158 207.899 527.012 209.237 526.719 210.448C526.426 211.649 525.981 212.685 525.386 213.554C524.79 214.413 524.048 215.082 523.159 215.561C522.28 216.029 521.245 216.264 520.054 216.264C519.028 216.264 518.096 216.073 517.256 215.692C516.416 215.302 515.698 214.706 515.103 213.905C514.507 213.104 514.048 212.084 513.726 210.844C513.403 209.604 513.242 208.134 513.242 206.435C513.242 204.97 513.389 203.632 513.682 202.421C513.984 201.21 514.429 200.175 515.015 199.315C515.61 198.446 516.353 197.777 517.241 197.309C518.13 196.83 519.165 196.591 520.347 196.591C521.372 196.591 522.305 196.786 523.145 197.177C523.984 197.558 524.702 198.153 525.298 198.964C525.894 199.765 526.353 200.785 526.675 202.025C526.997 203.266 527.158 204.735 527.158 206.435ZM524.58 206.522C524.58 206.19 524.565 205.863 524.536 205.541C524.517 205.209 524.492 204.887 524.463 204.574L516.362 210.595C516.509 211.103 516.694 211.571 516.919 212.001C517.144 212.431 517.412 212.802 517.725 213.114C518.047 213.417 518.408 213.656 518.809 213.832C519.219 213.998 519.683 214.081 520.2 214.081C520.864 214.081 521.465 213.92 522.002 213.598C522.549 213.275 523.013 212.797 523.394 212.162C523.774 211.527 524.067 210.741 524.272 209.804C524.478 208.856 524.58 207.763 524.58 206.522ZM515.82 206.347C515.82 206.649 515.82 206.952 515.82 207.255C515.83 207.558 515.85 207.851 515.879 208.134L523.979 202.143C523.833 201.645 523.647 201.19 523.423 200.78C523.198 200.37 522.93 200.019 522.617 199.726C522.305 199.423 521.948 199.188 521.548 199.022C521.147 198.856 520.698 198.773 520.2 198.773C519.536 198.773 518.931 198.935 518.384 199.257C517.847 199.579 517.388 200.062 517.007 200.707C516.626 201.342 516.333 202.133 516.128 203.08C515.923 204.018 515.82 205.106 515.82 206.347ZM531.934 219.003C532.432 219.022 532.915 218.979 533.384 218.871C533.853 218.764 534.263 218.603 534.614 218.388C534.976 218.183 535.264 217.924 535.479 217.611C535.693 217.299 535.801 216.942 535.801 216.542C535.801 216.132 535.728 215.8 535.581 215.546C535.444 215.292 535.288 215.058 535.112 214.843C534.937 214.628 534.775 214.398 534.629 214.154C534.492 213.91 534.424 213.583 534.424 213.173C534.424 212.968 534.463 212.753 534.541 212.528C534.619 212.304 534.736 212.099 534.893 211.913C535.059 211.728 535.264 211.576 535.508 211.459C535.762 211.342 536.06 211.283 536.401 211.283C536.743 211.283 537.07 211.356 537.383 211.503C537.705 211.64 537.983 211.854 538.218 212.147C538.462 212.44 538.652 212.807 538.789 213.246C538.936 213.686 539.009 214.203 539.009 214.799C539.009 215.609 538.857 216.386 538.555 217.128C538.262 217.88 537.817 218.544 537.222 219.12C536.636 219.696 535.898 220.155 535.01 220.497C534.131 220.839 533.105 221.01 531.934 221.01V219.003ZM576.201 216H563.589V213.715L568.54 208.793C569.351 207.992 570.01 207.299 570.518 206.713C571.025 206.127 571.421 205.595 571.704 205.116C571.987 204.628 572.178 204.169 572.275 203.739C572.373 203.31 572.422 202.846 572.422 202.348C572.422 201.879 572.358 201.435 572.231 201.015C572.104 200.585 571.909 200.209 571.646 199.887C571.382 199.564 571.04 199.311 570.62 199.125C570.2 198.939 569.697 198.847 569.111 198.847C568.301 198.847 567.563 199.027 566.899 199.389C566.235 199.75 565.625 200.219 565.068 200.795L563.662 199.11C564.385 198.349 565.215 197.738 566.152 197.279C567.1 196.82 568.198 196.591 569.448 196.591C570.298 196.591 571.069 196.718 571.763 196.972C572.466 197.226 573.071 197.592 573.579 198.07C574.087 198.549 574.478 199.135 574.751 199.828C575.034 200.521 575.176 201.303 575.176 202.172C575.176 202.904 575.078 203.583 574.883 204.208C574.688 204.833 574.39 205.458 573.989 206.083C573.599 206.698 573.101 207.338 572.495 208.002C571.899 208.666 571.191 209.394 570.371 210.185L566.899 213.568H576.201V216ZM589.37 222.006H582.148V219.955H586.909V196.84H582.148V194.789H589.37V222.006Z" fill="black"/>
<g filter="url(#filter0_d_6175_553)">
<path d="M544.069 62.178C543.615 61.8635 542.992 61.9766 542.678 62.4306C542.363 62.8845 542.476 63.5075 542.93 63.822L544.069 62.178ZM583.176 129.848L583.582 130.762L583.176 129.848ZM519.968 191.055C520.359 191.446 520.992 191.446 521.383 191.055L527.747 184.691C528.137 184.301 528.137 183.668 527.747 183.277C527.356 182.886 526.723 182.886 526.332 183.277L520.676 188.934L515.019 183.277C514.628 182.886 513.995 182.886 513.604 183.277C513.214 183.668 513.214 184.301 513.604 184.691L519.968 191.055ZM542.93 63.822C548.116 67.4143 566.941 80.0663 579.984 93.7948C586.531 100.686 591.465 107.691 592.633 113.845C593.209 116.88 592.862 119.67 591.372 122.162C589.872 124.671 587.148 126.988 582.769 128.934L583.582 130.762C588.203 128.708 591.312 126.16 593.088 123.188C594.875 120.201 595.248 116.895 594.598 113.472C593.315 106.71 588.016 99.3444 581.434 92.4172C568.221 78.5097 549.208 65.7377 544.069 62.178L542.93 63.822ZM582.769 128.934C551.724 142.732 535.913 153.308 527.888 162.86C519.776 172.516 519.676 181.066 519.676 190.348L521.676 190.348C521.676 181.13 521.796 173.221 529.419 164.147C537.129 154.97 552.568 144.545 583.582 130.762L582.769 128.934Z" fill="#666666"/>
</g>
<g filter="url(#filter1_d_6175_553)">
<path d="M174.371 114.009C174.1 113.528 173.49 113.358 173.009 113.629C172.528 113.9 172.358 114.51 172.629 114.991L174.371 114.009ZM564.939 191.828C565.397 192.138 566.018 192.018 566.328 191.561L571.374 184.108C571.684 183.651 571.564 183.029 571.107 182.72C570.65 182.41 570.028 182.53 569.718 182.987L565.233 189.611L558.608 185.126C558.151 184.816 557.529 184.936 557.22 185.393C556.91 185.85 557.03 186.472 557.487 186.782L564.939 191.828ZM172.629 114.991C191.71 148.857 224.865 164.649 263.914 170.824C302.942 176.995 348.015 173.588 391.17 168.932C434.395 164.268 475.637 158.362 507.239 159.445C523.035 159.986 536.294 162.273 546.133 167.256C555.917 172.211 562.332 179.834 564.518 191.189L566.482 190.811C564.168 178.791 557.318 170.679 547.037 165.472C536.811 160.293 523.207 157.991 507.308 157.446C475.519 156.357 434.043 162.294 390.955 166.943C347.797 171.6 302.964 174.974 264.227 168.848C225.51 162.726 193.04 147.143 174.371 114.009L172.629 114.991Z" fill="#666666"/>
</g>
</g>
<defs>
<filter id="filter0_d_6175_553" x="509.312" y="61.9999" width="89.5845" height="137.348" filterUnits="userSpaceOnUse" color-interpolation-filters="sRGB">
<feFlood flood-opacity="0" result="BackgroundImageFix"/>
<feColorMatrix in="SourceAlpha" type="matrix" values="0 0 0 0 0 0 0 0 0 0 0 0 0 0 0 0 0 0 127 0" result="hardAlpha"/>
<feOffset dy="4"/>
<feGaussianBlur stdDeviation="2"/>
<feComposite in2="hardAlpha" operator="out"/>
<feColorMatrix type="matrix" values="0 0 0 0 0 0 0 0 0 0 0 0 0 0 0 0 0 0 0.25 0"/>
<feBlend mode="normal" in2="BackgroundImageFix" result="effect1_dropShadow_6175_553"/>
<feBlend mode="normal" in="SourceGraphic" in2="effect1_dropShadow_6175_553" result="shape"/>
</filter>
<filter id="filter1_d_6175_553" x="168.5" y="113.5" width="407.046" height="86.5002" filterUnits="userSpaceOnUse" color-interpolation-filters="sRGB">
<feFlood flood-opacity="0" result="BackgroundImageFix"/>
<feColorMatrix in="SourceAlpha" type="matrix" values="0 0 0 0 0 0 0 0 0 0 0 0 0 0 0 0 0 0 127 0" result="hardAlpha"/>
<feOffset dy="4"/>
<feGaussianBlur stdDeviation="2"/>
<feComposite in2="hardAlpha" operator="out"/>
<feColorMatrix type="matrix" values="0 0 0 0 0 0 0 0 0 0 0 0 0 0 0 0 0 0 0.25 0"/>
<feBlend mode="normal" in2="BackgroundImageFix" result="effect1_dropShadow_6175_553"/>
<feBlend mode="normal" in="SourceGraphic" in2="effect1_dropShadow_6175_553" result="shape"/>
</filter>
<clipPath id="clip0_6175_553">
<rect width="599" height="239" fill="white"/>
</clipPath>
</defs>
</svg>
