<svg width="207" height="207" viewBox="0 0 207 207" fill="none" xmlns="http://www.w3.org/2000/svg">
<g clip-path="url(#clip0_6290_1989)">
<rect width="207" height="207" fill="white"/>
<path d="M3.91406 9.5C3.91406 6.46244 6.3765 4 9.41406 4H70.9141V71H3.91406V9.5Z" fill="white" stroke="#7A7A7A"/>
<rect x="70.9141" y="4" width="66" height="67" fill="white" stroke="#7A7A7A"/>
<rect x="70.9141" y="4" width="66" height="67" fill="white" stroke="#7A7A7A"/>
<rect x="136.914" y="4" width="66" height="67" fill="white" stroke="#7A7A7A"/>
<rect x="136.914" y="4" width="66" height="67" fill="white" stroke="#7A7A7A"/>
<path d="M43.2715 47.5H31.2451V45.127H36.167V31.1523L31.582 33.6426L30.6445 31.4746L36.7383 28.2666H38.9941V45.127H43.2715V47.5Z" fill="#999999"/>
<path d="M111.385 37.8467C111.385 39.4189 111.214 40.8252 110.872 42.0654C110.53 43.3057 110.027 44.3555 109.363 45.2148C108.709 46.0645 107.908 46.7139 106.961 47.1631C106.014 47.6123 104.93 47.8369 103.709 47.8369C102.654 47.8369 101.683 47.6514 100.794 47.2803C99.9053 46.9092 99.1387 46.3281 98.4941 45.5371C97.8496 44.7363 97.3467 43.7158 96.9854 42.4756C96.624 41.2354 96.4434 39.751 96.4434 38.0225C96.4434 36.4502 96.6143 35.0439 96.9561 33.8037C97.3076 32.5635 97.8105 31.5186 98.4648 30.6689C99.1191 29.8096 99.9248 29.1553 100.882 28.7061C101.839 28.2568 102.923 28.0322 104.134 28.0322C105.188 28.0322 106.16 28.2178 107.049 28.5889C107.938 28.96 108.699 29.541 109.334 30.332C109.979 31.123 110.481 32.1387 110.843 33.3789C111.204 34.6191 111.385 36.1084 111.385 37.8467ZM100.047 37.9053C100.047 38.1006 100.047 38.2861 100.047 38.4619C100.047 38.6279 100.057 38.7988 100.076 38.9746L107.254 33.7891C106.912 32.8223 106.458 32.1094 105.892 31.6504C105.335 31.1816 104.676 30.9473 103.914 30.9473C103.367 30.9473 102.859 31.0889 102.391 31.3721C101.922 31.6455 101.512 32.0703 101.16 32.6465C100.818 33.2227 100.545 33.9453 100.34 34.8145C100.145 35.6836 100.047 36.7139 100.047 37.9053ZM107.781 37.9639C107.781 37.7979 107.776 37.6318 107.767 37.4658C107.757 37.29 107.752 37.124 107.752 36.9678L100.618 42.124C100.931 43.0713 101.37 43.7744 101.937 44.2334C102.503 44.6924 103.162 44.9219 103.914 44.9219C104.461 44.9219 104.969 44.7803 105.438 44.4971C105.916 44.2139 106.326 43.7891 106.668 43.2227C107.02 42.6465 107.293 41.9238 107.488 41.0547C107.684 40.1758 107.781 39.1455 107.781 37.9639Z" fill="black"/>
<path d="M176.066 41.6846C176.066 42.5244 175.896 43.3154 175.554 44.0576C175.212 44.79 174.699 45.4346 174.016 45.9912C173.332 46.5381 172.473 46.9727 171.438 47.2949C170.402 47.6074 169.196 47.7637 167.819 47.7637C167.058 47.7637 166.374 47.7393 165.769 47.6904C165.163 47.6416 164.597 47.5781 164.069 47.5V45.2148C164.675 45.3223 165.314 45.4053 165.988 45.4639C166.662 45.5225 167.351 45.5518 168.054 45.5518C169.011 45.5518 169.826 45.4688 170.5 45.3027C171.184 45.127 171.74 44.8779 172.17 44.5557C172.6 44.2334 172.912 43.8428 173.107 43.3838C173.303 42.9248 173.4 42.4072 173.4 41.8311C173.4 41.3037 173.283 40.8447 173.049 40.4541C172.814 40.0635 172.482 39.7363 172.053 39.4727C171.633 39.209 171.125 39.0137 170.529 38.8867C169.943 38.75 169.299 38.6816 168.596 38.6816H166.413V36.5869H168.625C169.201 36.5869 169.724 36.5137 170.192 36.3672C170.671 36.2109 171.076 35.9912 171.408 35.708C171.75 35.4248 172.009 35.0781 172.185 34.668C172.37 34.248 172.463 33.7744 172.463 33.2471C172.463 32.2217 172.15 31.4746 171.525 31.0059C170.9 30.5371 169.982 30.3027 168.771 30.3027C168.127 30.3027 167.463 30.3662 166.779 30.4932C166.096 30.6201 165.363 30.8105 164.582 31.0645V28.8379C164.914 28.7207 165.266 28.6182 165.637 28.5303C166.018 28.4326 166.394 28.3545 166.765 28.2959C167.146 28.2275 167.521 28.1787 167.893 28.1494C168.264 28.1104 168.62 28.0908 168.962 28.0908C169.978 28.0908 170.871 28.2031 171.643 28.4277C172.414 28.6426 173.059 28.9551 173.576 29.3652C174.094 29.7754 174.484 30.2734 174.748 30.8594C175.012 31.4453 175.144 32.1045 175.144 32.8369C175.144 33.9307 174.86 34.8486 174.294 35.5908C173.737 36.333 172.971 36.9238 171.994 37.3633C172.492 37.4414 172.98 37.5977 173.459 37.832C173.947 38.0664 174.382 38.3691 174.763 38.7402C175.153 39.1016 175.466 39.5312 175.7 40.0293C175.944 40.5273 176.066 41.0791 176.066 41.6846Z" fill="#999999"/>
<rect x="3.91406" y="71" width="67" height="66" fill="white" stroke="#7A7A7A"/>
<rect x="70.9141" y="71" width="66" height="66" stroke="#7A7A7A"/>
<rect x="137" y="72" width="66" height="65" fill="#FFE2D4" stroke="#7A7A7A"/>
<rect x="71" y="71" width="66" height="66" fill="#FFE2D4" stroke="#7A7A7A"/>
<path d="M44.3848 105.847C44.3848 107.419 44.2139 108.825 43.8721 110.065C43.5303 111.306 43.0273 112.355 42.3633 113.215C41.709 114.064 40.9082 114.714 39.9609 115.163C39.0137 115.612 37.9297 115.837 36.709 115.837C35.6543 115.837 34.6826 115.651 33.7939 115.28C32.9053 114.909 32.1387 114.328 31.4941 113.537C30.8496 112.736 30.3467 111.716 29.9854 110.476C29.624 109.235 29.4434 107.751 29.4434 106.022C29.4434 104.45 29.6143 103.044 29.9561 101.804C30.3076 100.563 30.8105 99.5186 31.4648 98.6689C32.1191 97.8096 32.9248 97.1553 33.8818 96.7061C34.8389 96.2568 35.9229 96.0322 37.1338 96.0322C38.1885 96.0322 39.1602 96.2178 40.0488 96.5889C40.9375 96.96 41.6992 97.541 42.334 98.332C42.9785 99.123 43.4814 100.139 43.8428 101.379C44.2041 102.619 44.3848 104.108 44.3848 105.847ZM33.0469 105.905C33.0469 106.101 33.0469 106.286 33.0469 106.462C33.0469 106.628 33.0566 106.799 33.0762 106.975L40.2539 101.789C39.9121 100.822 39.458 100.109 38.8916 99.6504C38.335 99.1816 37.6758 98.9473 36.9141 98.9473C36.3672 98.9473 35.8594 99.0889 35.3906 99.3721C34.9219 99.6455 34.5117 100.07 34.1602 100.646C33.8184 101.223 33.5449 101.945 33.3398 102.814C33.1445 103.684 33.0469 104.714 33.0469 105.905ZM40.7812 105.964C40.7812 105.798 40.7764 105.632 40.7666 105.466C40.7568 105.29 40.752 105.124 40.752 104.968L33.6182 110.124C33.9307 111.071 34.3701 111.774 34.9365 112.233C35.5029 112.692 36.1621 112.922 36.9141 112.922C37.4609 112.922 37.9688 112.78 38.4375 112.497C38.916 112.214 39.3262 111.789 39.668 111.223C40.0195 110.646 40.293 109.924 40.4883 109.055C40.6836 108.176 40.7812 107.146 40.7812 105.964Z" fill="black"/>
<path d="M110.872 105.935C110.872 107.399 110.726 108.737 110.433 109.948C110.14 111.149 109.695 112.185 109.1 113.054C108.504 113.913 107.762 114.582 106.873 115.061C105.994 115.529 104.959 115.764 103.768 115.764C102.742 115.764 101.81 115.573 100.97 115.192C100.13 114.802 99.4121 114.206 98.8164 113.405C98.2207 112.604 97.7617 111.584 97.4395 110.344C97.1172 109.104 96.9561 107.634 96.9561 105.935C96.9561 104.47 97.1025 103.132 97.3955 101.921C97.6982 100.71 98.1426 99.6748 98.7285 98.8154C99.3242 97.9463 100.066 97.2773 100.955 96.8086C101.844 96.3301 102.879 96.0908 104.061 96.0908C105.086 96.0908 106.019 96.2861 106.858 96.6768C107.698 97.0576 108.416 97.6533 109.012 98.4639C109.607 99.2646 110.066 100.285 110.389 101.525C110.711 102.766 110.872 104.235 110.872 105.935ZM108.294 106.022C108.294 105.69 108.279 105.363 108.25 105.041C108.23 104.709 108.206 104.387 108.177 104.074L100.076 110.095C100.223 110.603 100.408 111.071 100.633 111.501C100.857 111.931 101.126 112.302 101.438 112.614C101.761 112.917 102.122 113.156 102.522 113.332C102.933 113.498 103.396 113.581 103.914 113.581C104.578 113.581 105.179 113.42 105.716 113.098C106.263 112.775 106.727 112.297 107.107 111.662C107.488 111.027 107.781 110.241 107.986 109.304C108.191 108.356 108.294 107.263 108.294 106.022ZM99.5342 105.847C99.5342 106.149 99.5342 106.452 99.5342 106.755C99.5439 107.058 99.5635 107.351 99.5928 107.634L107.693 101.643C107.547 101.145 107.361 100.69 107.137 100.28C106.912 99.8701 106.644 99.5186 106.331 99.2256C106.019 98.9229 105.662 98.6885 105.262 98.5225C104.861 98.3564 104.412 98.2734 103.914 98.2734C103.25 98.2734 102.645 98.4346 102.098 98.7568C101.561 99.0791 101.102 99.5625 100.721 100.207C100.34 100.842 100.047 101.633 99.8418 102.58C99.6367 103.518 99.5342 104.606 99.5342 105.847Z" fill="#999999"/>
<path d="M176.433 110.695C176.433 111.506 176.267 112.229 175.935 112.863C175.603 113.488 175.139 114.016 174.543 114.445C173.947 114.875 173.244 115.202 172.434 115.427C171.623 115.651 170.744 115.764 169.797 115.764C168.752 115.764 167.829 115.646 167.028 115.412C166.237 115.178 165.573 114.851 165.036 114.431C164.499 114.011 164.094 113.513 163.82 112.937C163.547 112.36 163.41 111.726 163.41 111.032C163.41 109.86 163.737 108.85 164.392 108C165.046 107.15 166.057 106.379 167.424 105.686C166.174 105.051 165.261 104.348 164.685 103.576C164.108 102.795 163.82 101.901 163.82 100.896C163.82 100.28 163.947 99.6846 164.201 99.1084C164.455 98.5322 164.836 98.0195 165.344 97.5703C165.861 97.1211 166.506 96.7646 167.277 96.501C168.049 96.2275 168.957 96.0908 170.002 96.0908C170.988 96.0908 171.853 96.1982 172.595 96.4131C173.347 96.6182 173.977 96.916 174.484 97.3066C174.992 97.6973 175.373 98.1709 175.627 98.7275C175.881 99.2842 176.008 99.9043 176.008 100.588C176.008 101.701 175.695 102.648 175.07 103.43C174.455 104.211 173.576 104.895 172.434 105.48C173 105.764 173.527 106.076 174.016 106.418C174.504 106.76 174.929 107.141 175.29 107.561C175.651 107.98 175.93 108.449 176.125 108.967C176.33 109.484 176.433 110.061 176.433 110.695ZM173.4 100.793C173.4 99.9238 173.093 99.2793 172.478 98.8594C171.872 98.4297 171.018 98.2148 169.914 98.2148C168.82 98.2148 167.966 98.4248 167.351 98.8447C166.745 99.2646 166.442 99.8945 166.442 100.734C166.442 101.115 166.516 101.467 166.662 101.789C166.809 102.111 167.033 102.414 167.336 102.697C167.648 102.98 168.034 103.259 168.493 103.532C168.952 103.806 169.499 104.084 170.134 104.367C171.237 103.85 172.058 103.312 172.595 102.756C173.132 102.189 173.4 101.535 173.4 100.793ZM173.664 110.886C173.664 110.524 173.605 110.173 173.488 109.831C173.371 109.489 173.161 109.152 172.858 108.82C172.556 108.488 172.15 108.156 171.643 107.824C171.135 107.492 170.49 107.15 169.709 106.799C169.045 107.121 168.483 107.443 168.024 107.766C167.575 108.078 167.209 108.4 166.926 108.732C166.652 109.055 166.457 109.392 166.34 109.743C166.223 110.095 166.164 110.466 166.164 110.856C166.164 111.296 166.257 111.687 166.442 112.028C166.638 112.36 166.901 112.644 167.233 112.878C167.565 113.112 167.961 113.288 168.42 113.405C168.879 113.522 169.377 113.581 169.914 113.581C170.432 113.581 170.92 113.527 171.379 113.42C171.838 113.312 172.233 113.151 172.565 112.937C172.907 112.712 173.176 112.434 173.371 112.102C173.566 111.76 173.664 111.354 173.664 110.886Z" fill="#999999"/>
<rect x="3.91406" y="137" width="67" height="66" fill="white" stroke="#7A7A7A"/>
<rect x="70.9141" y="137" width="66" height="66" fill="#EDEDED" stroke="#7A7A7A"/>
<rect x="136.914" y="137" width="66" height="66" fill="#EDEDED" stroke="#7A7A7A"/>
<path d="M35.0244 180.5H22.998V178.127H27.9199V164.152L23.335 166.643L22.3975 164.475L28.4912 161.267H30.7471V178.127H35.0244V180.5ZM51.5186 180.5H39.4922V178.127H44.4141V164.152L39.8291 166.643L38.8916 164.475L44.9854 161.267H47.2412V178.127H51.5186V180.5Z" fill="#999999"/>
<path d="M102.024 180.5H89.998V178.127H94.9199V164.152L90.335 166.643L89.3975 164.475L95.4912 161.267H97.7471V178.127H102.024V180.5ZM118.68 180.5H106.067V178.215L111.019 173.293C111.829 172.492 112.488 171.799 112.996 171.213C113.504 170.627 113.899 170.095 114.183 169.616C114.466 169.128 114.656 168.669 114.754 168.239C114.852 167.81 114.9 167.346 114.9 166.848C114.9 166.379 114.837 165.935 114.71 165.515C114.583 165.085 114.388 164.709 114.124 164.387C113.86 164.064 113.519 163.811 113.099 163.625C112.679 163.439 112.176 163.347 111.59 163.347C110.779 163.347 110.042 163.527 109.378 163.889C108.714 164.25 108.104 164.719 107.547 165.295L106.141 163.61C106.863 162.849 107.693 162.238 108.631 161.779C109.578 161.32 110.677 161.091 111.927 161.091C112.776 161.091 113.548 161.218 114.241 161.472C114.944 161.726 115.55 162.092 116.058 162.57C116.565 163.049 116.956 163.635 117.229 164.328C117.513 165.021 117.654 165.803 117.654 166.672C117.654 167.404 117.557 168.083 117.361 168.708C117.166 169.333 116.868 169.958 116.468 170.583C116.077 171.198 115.579 171.838 114.974 172.502C114.378 173.166 113.67 173.894 112.85 174.685L109.378 178.068H118.68V180.5Z" fill="#999999"/>
<path d="M168.024 180.5H155.998V178.127H160.92V164.152L156.335 166.643L155.397 164.475L161.491 161.267H163.747V178.127H168.024V180.5ZM184.313 174.685C184.313 175.524 184.143 176.315 183.801 177.058C183.459 177.79 182.946 178.435 182.263 178.991C181.579 179.538 180.72 179.973 179.685 180.295C178.649 180.607 177.443 180.764 176.066 180.764C175.305 180.764 174.621 180.739 174.016 180.69C173.41 180.642 172.844 180.578 172.316 180.5V178.215C172.922 178.322 173.562 178.405 174.235 178.464C174.909 178.522 175.598 178.552 176.301 178.552C177.258 178.552 178.073 178.469 178.747 178.303C179.431 178.127 179.987 177.878 180.417 177.556C180.847 177.233 181.159 176.843 181.354 176.384C181.55 175.925 181.647 175.407 181.647 174.831C181.647 174.304 181.53 173.845 181.296 173.454C181.062 173.063 180.729 172.736 180.3 172.473C179.88 172.209 179.372 172.014 178.776 171.887C178.19 171.75 177.546 171.682 176.843 171.682H174.66V169.587H176.872C177.448 169.587 177.971 169.514 178.439 169.367C178.918 169.211 179.323 168.991 179.655 168.708C179.997 168.425 180.256 168.078 180.432 167.668C180.617 167.248 180.71 166.774 180.71 166.247C180.71 165.222 180.397 164.475 179.772 164.006C179.147 163.537 178.229 163.303 177.019 163.303C176.374 163.303 175.71 163.366 175.026 163.493C174.343 163.62 173.61 163.811 172.829 164.064V161.838C173.161 161.721 173.513 161.618 173.884 161.53C174.265 161.433 174.641 161.354 175.012 161.296C175.393 161.228 175.769 161.179 176.14 161.149C176.511 161.11 176.867 161.091 177.209 161.091C178.225 161.091 179.118 161.203 179.89 161.428C180.661 161.643 181.306 161.955 181.823 162.365C182.341 162.775 182.731 163.273 182.995 163.859C183.259 164.445 183.391 165.104 183.391 165.837C183.391 166.931 183.107 167.849 182.541 168.591C181.984 169.333 181.218 169.924 180.241 170.363C180.739 170.441 181.228 170.598 181.706 170.832C182.194 171.066 182.629 171.369 183.01 171.74C183.4 172.102 183.713 172.531 183.947 173.029C184.191 173.527 184.313 174.079 184.313 174.685Z" fill="#999999"/>
<rect x="2.5" y="2.5" width="202" height="202" rx="6.5" fill="white" stroke="black" stroke-width="5"/>
<path d="M136.5 137H202.5V197.5C202.5 200.538 200.038 203 197 203H136.5V137Z" fill="white" stroke="#7A7A7A"/>
<path d="M3.91406 9.5C3.91406 6.46244 6.3765 4 9.41406 4H70.9141V71H3.91406V9.5Z" fill="white" stroke="#7A7A7A"/>
<rect x="70.9141" y="4" width="66" height="67" fill="white" stroke="#7A7A7A"/>
<rect x="70.9141" y="4" width="66" height="67" fill="white" stroke="#7A7A7A"/>
<path d="M3.91406 9.5C3.91406 6.46244 6.3765 4 9.41406 4H70.9141V71H3.91406V9.5Z" fill="#FFE2D4" stroke="#7A7A7A"/>
<rect x="70.9141" y="4" width="66" height="67" fill="white" stroke="#7A7A7A"/>
<rect x="71" y="4" width="66" height="67" fill="#FFE2D4" stroke="#7A7A7A"/>
<path d="M137 4H197C200.038 4 202.5 6.46243 202.5 9.5V71H137V4Z" fill="#F8F8F8" stroke="#7A7A7A"/>
<path d="M43.5791 41.8828C43.5791 43.1035 43.4082 44.1973 43.0664 45.1641C42.7344 46.1211 42.2559 46.9365 41.6309 47.6104C41.0156 48.2744 40.2637 48.7871 39.375 49.1484C38.4863 49.5 37.4854 49.6758 36.3721 49.6758C35.5029 49.6758 34.6143 49.5928 33.7061 49.4268C32.7979 49.2607 31.8994 48.9971 31.0107 48.6357V28.8018H33.5596V34.5L33.4424 37.2246C34.1748 36.2383 34.9561 35.5449 35.7861 35.1445C36.626 34.7344 37.5244 34.5293 38.4814 34.5293C39.3213 34.5293 40.0586 34.7051 40.6934 35.0566C41.3281 35.4082 41.8604 35.9062 42.29 36.5508C42.7197 37.1855 43.042 37.957 43.2568 38.8652C43.4717 39.7637 43.5791 40.7695 43.5791 41.8828ZM40.9717 42C40.9717 41.2285 40.9131 40.5205 40.7959 39.876C40.6885 39.2314 40.5127 38.6797 40.2686 38.2207C40.0244 37.7617 39.7119 37.4053 39.3311 37.1514C38.9502 36.8877 38.4961 36.7559 37.9688 36.7559C37.6465 36.7559 37.3193 36.8096 36.9873 36.917C36.6553 37.0146 36.3086 37.1855 35.9473 37.4297C35.5957 37.6641 35.2197 37.9814 34.8193 38.3818C34.4287 38.7725 34.0088 39.2607 33.5596 39.8467V46.9805C34.0576 47.1758 34.5654 47.332 35.083 47.4492C35.6006 47.5566 36.0938 47.6104 36.5625 47.6104C37.1484 47.6104 37.7051 47.5176 38.2324 47.332C38.7695 47.1465 39.2383 46.8389 39.6387 46.4092C40.0488 45.9697 40.3711 45.3936 40.6055 44.6807C40.8496 43.958 40.9717 43.0645 40.9717 42Z" fill="black"/>
<path d="M111.092 32.793L106.082 45.9473C105.564 47.2852 105.027 48.4375 104.471 49.4043C103.924 50.3711 103.323 51.1621 102.669 51.7773C102.015 52.4023 101.297 52.8613 100.516 53.1543C99.7344 53.4473 98.8604 53.5938 97.8936 53.5938C97.6396 53.5938 97.4102 53.5889 97.2051 53.5791C97 53.5693 96.7754 53.5547 96.5312 53.5352V51.2207C96.7461 51.25 96.9805 51.2744 97.2344 51.2939C97.4883 51.3232 97.7568 51.3379 98.04 51.3379C98.5088 51.3379 98.9434 51.2695 99.3438 51.1328C99.7539 50.9961 100.14 50.7715 100.501 50.459C100.862 50.1562 101.209 49.7607 101.541 49.2725C101.873 48.7842 102.195 48.1934 102.508 47.5L96.6338 32.793H99.5342L103.255 42.5195L104.002 44.8047L104.852 42.4609L108.294 32.793H111.092Z" fill="black"/>
<path d="M175.656 43.4863C175.656 44.0039 175.568 44.4678 175.393 44.8779C175.217 45.2881 174.978 45.6543 174.675 45.9766C174.372 46.2891 174.021 46.5576 173.62 46.7822C173.22 47.0068 172.79 47.1924 172.331 47.3389C171.882 47.4854 171.418 47.5928 170.939 47.6611C170.461 47.7295 169.992 47.7637 169.533 47.7637C168.537 47.7637 167.619 47.7197 166.779 47.6318C165.949 47.5439 165.134 47.4023 164.333 47.207V44.8633C165.192 45.1074 166.047 45.293 166.896 45.4199C167.746 45.5469 168.591 45.6104 169.431 45.6104C170.651 45.6104 171.555 45.4443 172.141 45.1123C172.727 44.7803 173.02 44.3066 173.02 43.6914C173.02 43.4277 172.971 43.1934 172.873 42.9883C172.785 42.7734 172.619 42.5732 172.375 42.3877C172.131 42.1924 171.75 41.9922 171.232 41.7871C170.725 41.582 170.026 41.3477 169.138 41.084C168.474 40.8887 167.858 40.6689 167.292 40.4248C166.735 40.1709 166.252 39.873 165.842 39.5312C165.432 39.1895 165.109 38.7891 164.875 38.3301C164.641 37.8711 164.523 37.3291 164.523 36.7041C164.523 36.2939 164.616 35.8447 164.802 35.3564C164.997 34.8682 165.324 34.4141 165.783 33.9941C166.242 33.5742 166.862 33.2275 167.644 32.9541C168.425 32.6709 169.401 32.5293 170.573 32.5293C171.149 32.5293 171.789 32.5635 172.492 32.6318C173.195 32.6904 173.928 32.7979 174.689 32.9541V35.2246C173.889 35.0293 173.127 34.8877 172.404 34.7998C171.691 34.7021 171.071 34.6533 170.544 34.6533C169.909 34.6533 169.372 34.7021 168.933 34.7998C168.503 34.8975 168.151 35.0342 167.878 35.21C167.614 35.376 167.424 35.5762 167.307 35.8105C167.189 36.0352 167.131 36.2793 167.131 36.543C167.131 36.8066 167.18 37.0459 167.277 37.2607C167.385 37.4756 167.575 37.6855 167.849 37.8906C168.132 38.0859 168.522 38.2861 169.021 38.4912C169.519 38.6865 170.168 38.9014 170.969 39.1357C171.838 39.3896 172.57 39.6582 173.166 39.9414C173.762 40.2148 174.245 40.5225 174.616 40.8643C174.987 41.2061 175.251 41.5918 175.407 42.0215C175.573 42.4512 175.656 42.9395 175.656 43.4863Z" fill="black"/>
<rect x="3.91406" y="71" width="67" height="66" fill="white" stroke="#7A7A7A"/>
<rect x="70.9141" y="71" width="66" height="66" stroke="#7A7A7A"/>
<rect x="136.5" y="71" width="66" height="66" fill="#FFE2D4" stroke="#7A7A7A"/>
<rect x="71" y="71" width="66" height="66" fill="#FFE2D4" stroke="#7A7A7A"/>
<path d="M31.6113 98.793H33.9404L34.0137 101.503C34.8828 100.458 35.7373 99.7012 36.5771 99.2324C37.4268 98.7637 38.2812 98.5293 39.1406 98.5293C40.6641 98.5293 41.8164 99.0225 42.5977 100.009C43.3887 100.995 43.7549 102.46 43.6963 104.403H41.1182C41.1475 103.114 40.957 102.182 40.5469 101.605C40.1465 101.02 39.5557 100.727 38.7744 100.727C38.4326 100.727 38.0859 100.79 37.7344 100.917C37.3926 101.034 37.0361 101.229 36.665 101.503C36.3037 101.767 35.918 102.108 35.5078 102.528C35.0977 102.948 34.6582 103.456 34.1895 104.052V113.5H31.6113V98.793Z" fill="black"/>
<path d="M109.861 116.295C109.285 116.441 108.689 116.544 108.074 116.603C107.459 116.671 106.834 116.705 106.199 116.705C104.354 116.705 102.977 116.29 102.068 115.46C101.16 114.62 100.706 113.336 100.706 111.607V103.932H96.5898V101.793H100.706V97.75L103.255 97.0908V101.793H109.861V103.932H103.255V111.402C103.255 112.457 103.533 113.248 104.09 113.775C104.656 114.293 105.486 114.552 106.58 114.552C107.049 114.552 107.562 114.518 108.118 114.449C108.675 114.371 109.256 114.254 109.861 114.098V116.295Z" fill="black"/>
<path d="M176.433 105.37C176.433 105.731 176.428 106.034 176.418 106.278C176.408 106.522 176.394 106.752 176.374 106.967H166.047C166.047 108.471 166.467 109.628 167.307 110.438C168.146 111.239 169.357 111.64 170.939 111.64C171.369 111.64 171.799 111.625 172.229 111.596C172.658 111.557 173.073 111.508 173.474 111.449C173.874 111.391 174.255 111.327 174.616 111.259C174.987 111.181 175.329 111.098 175.642 111.01V113.104C174.948 113.3 174.162 113.456 173.283 113.573C172.414 113.7 171.511 113.764 170.573 113.764C169.313 113.764 168.229 113.593 167.321 113.251C166.413 112.909 165.666 112.416 165.08 111.771C164.504 111.117 164.074 110.321 163.791 109.384C163.518 108.437 163.381 107.367 163.381 106.176C163.381 105.141 163.527 104.164 163.82 103.246C164.123 102.318 164.558 101.508 165.124 100.814C165.7 100.111 166.403 99.5547 167.233 99.1445C168.063 98.7344 169.006 98.5293 170.061 98.5293C171.086 98.5293 171.994 98.6904 172.785 99.0127C173.576 99.335 174.24 99.7939 174.777 100.39C175.324 100.976 175.734 101.693 176.008 102.543C176.291 103.383 176.433 104.325 176.433 105.37ZM173.781 105.004C173.811 104.35 173.747 103.754 173.591 103.217C173.435 102.67 173.19 102.201 172.858 101.811C172.536 101.42 172.131 101.117 171.643 100.902C171.154 100.678 170.588 100.565 169.943 100.565C169.387 100.565 168.879 100.673 168.42 100.888C167.961 101.103 167.565 101.405 167.233 101.796C166.901 102.187 166.633 102.655 166.428 103.202C166.223 103.749 166.096 104.35 166.047 105.004H173.781Z" fill="black"/>
<path d="M3.91406 137H70.9141V203H9.41406C6.3765 203 3.91406 200.538 3.91406 197.5V137Z" fill="white" stroke="#7A7A7A"/>
<rect x="70.9141" y="137" width="66" height="66" fill="white" stroke="#7A7A7A"/>
<path d="M40.459 180.5L40.4004 178.522C39.5996 179.313 38.7842 179.885 37.9541 180.236C37.1338 180.588 36.2695 180.764 35.3613 180.764C34.5215 180.764 33.8037 180.656 33.208 180.441C32.6123 180.227 32.1191 179.934 31.7285 179.562C31.3477 179.182 31.0645 178.737 30.8789 178.229C30.7031 177.722 30.6152 177.17 30.6152 176.574C30.6152 175.1 31.1621 173.947 32.2559 173.117C33.3594 172.277 34.9854 171.857 37.1338 171.857H40.1807V170.568C40.1807 169.699 39.9023 169.006 39.3457 168.488C38.7891 167.961 37.9395 167.697 36.7969 167.697C35.9668 167.697 35.1465 167.79 34.3359 167.976C33.5352 168.161 32.7051 168.425 31.8457 168.767V166.467C32.168 166.35 32.5244 166.237 32.915 166.13C33.3154 166.013 33.7354 165.91 34.1748 165.822C34.6143 165.734 35.0732 165.666 35.5518 165.617C36.0303 165.559 36.5137 165.529 37.002 165.529C37.8906 165.529 38.6914 165.627 39.4043 165.822C40.1172 166.018 40.7178 166.315 41.2061 166.716C41.7041 167.116 42.085 167.619 42.3486 168.225C42.6123 168.83 42.7441 169.543 42.7441 170.363V180.5H40.459ZM40.1807 173.806H36.9434C36.3086 173.806 35.7617 173.869 35.3027 173.996C34.8438 174.123 34.4678 174.304 34.1748 174.538C33.8818 174.772 33.6621 175.056 33.5156 175.388C33.3789 175.71 33.3105 176.076 33.3105 176.486C33.3105 176.77 33.3545 177.043 33.4424 177.307C33.5303 177.561 33.6719 177.79 33.8672 177.995C34.0625 178.19 34.3164 178.347 34.6289 178.464C34.9414 178.581 35.3223 178.64 35.7715 178.64C36.3574 178.64 37.0264 178.464 37.7783 178.112C38.54 177.751 39.3408 177.185 40.1807 176.413V173.806Z" fill="black"/>
<path d="M103.021 167.902H98.6699V165.793H105.599V178.376H109.979V180.5H98.1865V178.376H103.021V167.902ZM103.914 159.626C104.197 159.626 104.461 159.68 104.705 159.787C104.949 159.885 105.159 160.026 105.335 160.212C105.521 160.397 105.662 160.612 105.76 160.856C105.867 161.091 105.921 161.35 105.921 161.633C105.921 161.906 105.867 162.165 105.76 162.409C105.662 162.653 105.521 162.868 105.335 163.054C105.159 163.239 104.949 163.386 104.705 163.493C104.461 163.591 104.197 163.64 103.914 163.64C103.631 163.64 103.367 163.591 103.123 163.493C102.879 163.386 102.664 163.239 102.479 163.054C102.303 162.868 102.161 162.653 102.054 162.409C101.956 162.165 101.907 161.906 101.907 161.633C101.907 161.35 101.956 161.091 102.054 160.856C102.161 160.612 102.303 160.397 102.479 160.212C102.664 160.026 102.879 159.885 103.123 159.787C103.367 159.68 103.631 159.626 103.914 159.626Z" fill="black"/>
<path d="M164.011 165.793H166.281L166.384 168.166C166.813 167.658 167.229 167.238 167.629 166.906C168.029 166.564 168.42 166.291 168.801 166.086C169.191 165.881 169.587 165.739 169.987 165.661C170.388 165.573 170.803 165.529 171.232 165.529C172.746 165.529 173.889 165.979 174.66 166.877C175.441 167.766 175.832 169.108 175.832 170.905V180.5H173.283V171.11C173.283 169.958 173.068 169.108 172.639 168.562C172.209 168.005 171.569 167.727 170.72 167.727C170.407 167.727 170.1 167.775 169.797 167.873C169.504 167.961 169.196 168.122 168.874 168.356C168.552 168.581 168.2 168.889 167.819 169.279C167.448 169.67 167.028 170.158 166.56 170.744V180.5H164.011V165.793Z" fill="black"/>
<g filter="url(#filter0_d_6290_1989)">
<path d="M42 58.5001L83 58.5" stroke="black" stroke-width="4"/>
</g>
<g filter="url(#filter1_d_6290_1989)">
<circle cx="36.5" cy="58" r="6.5" fill="black"/>
<circle cx="36.5" cy="58" r="5" stroke="black" stroke-width="3"/>
</g>
<path d="M81 60.5L81 130.5" stroke="black" stroke-width="4"/>
<g filter="url(#filter2_d_6290_1989)">
<path d="M79 131.5L189 131.5" stroke="black" stroke-width="4"/>
</g>
<g opacity="0.5" filter="url(#filter3_d_6290_1989)">
<path d="M185.586 50.5858C186.367 49.8047 187.633 49.8047 188.414 50.5858L201.142 63.3137C201.923 64.0948 201.923 65.3611 201.142 66.1421C200.361 66.9232 199.095 66.9232 198.314 66.1421L187 54.8284L175.686 66.1421C174.905 66.9232 173.639 66.9232 172.858 66.1421C172.077 65.3611 172.077 64.0948 172.858 63.3137L185.586 50.5858ZM189 52L189 110.5L185 110.5L185 52H189Z" fill="black"/>
</g>
<g filter="url(#filter4_d_6290_1989)">
<path d="M188.414 106.586C187.633 105.805 186.367 105.805 185.586 106.586L172.858 119.314C172.077 120.095 172.077 121.361 172.858 122.142C173.639 122.923 174.905 122.923 175.686 122.142L187 110.828L198.314 122.142C199.095 122.923 200.361 122.923 201.142 122.142C201.923 121.361 201.923 120.095 201.142 119.314L188.414 106.586ZM185 108L185 131.5L189 131.5L189 108L185 108Z" fill="black"/>
</g>
</g>
<defs>
<filter id="filter0_d_6290_1989" x="38" y="56.5" width="49" height="12.0001" filterUnits="userSpaceOnUse" color-interpolation-filters="sRGB">
<feFlood flood-opacity="0" result="BackgroundImageFix"/>
<feColorMatrix in="SourceAlpha" type="matrix" values="0 0 0 0 0 0 0 0 0 0 0 0 0 0 0 0 0 0 127 0" result="hardAlpha"/>
<feOffset dy="4"/>
<feGaussianBlur stdDeviation="2"/>
<feComposite in2="hardAlpha" operator="out"/>
<feColorMatrix type="matrix" values="0 0 0 0 0 0 0 0 0 0 0 0 0 0 0 0 0 0 0.25 0"/>
<feBlend mode="normal" in2="BackgroundImageFix" result="effect1_dropShadow_6290_1989"/>
<feBlend mode="normal" in="SourceGraphic" in2="effect1_dropShadow_6290_1989" result="shape"/>
</filter>
<filter id="filter1_d_6290_1989" x="26" y="51.5" width="21" height="21" filterUnits="userSpaceOnUse" color-interpolation-filters="sRGB">
<feFlood flood-opacity="0" result="BackgroundImageFix"/>
<feColorMatrix in="SourceAlpha" type="matrix" values="0 0 0 0 0 0 0 0 0 0 0 0 0 0 0 0 0 0 127 0" result="hardAlpha"/>
<feOffset dy="4"/>
<feGaussianBlur stdDeviation="2"/>
<feComposite in2="hardAlpha" operator="out"/>
<feColorMatrix type="matrix" values="0 0 0 0 0 0 0 0 0 0 0 0 0 0 0 0 0 0 0.25 0"/>
<feBlend mode="normal" in2="BackgroundImageFix" result="effect1_dropShadow_6290_1989"/>
<feBlend mode="normal" in="SourceGraphic" in2="effect1_dropShadow_6290_1989" result="shape"/>
</filter>
<filter id="filter2_d_6290_1989" x="75" y="129.5" width="118" height="12.0001" filterUnits="userSpaceOnUse" color-interpolation-filters="sRGB">
<feFlood flood-opacity="0" result="BackgroundImageFix"/>
<feColorMatrix in="SourceAlpha" type="matrix" values="0 0 0 0 0 0 0 0 0 0 0 0 0 0 0 0 0 0 127 0" result="hardAlpha"/>
<feOffset dy="4"/>
<feGaussianBlur stdDeviation="2"/>
<feComposite in2="hardAlpha" operator="out"/>
<feColorMatrix type="matrix" values="0 0 0 0 0 0 0 0 0 0 0 0 0 0 0 0 0 0 0.25 0"/>
<feBlend mode="normal" in2="BackgroundImageFix" result="effect1_dropShadow_6290_1989"/>
<feBlend mode="normal" in="SourceGraphic" in2="effect1_dropShadow_6290_1989" result="shape"/>
</filter>
<filter id="filter3_d_6290_1989" x="168.272" y="50" width="37.4561" height="68.5" filterUnits="userSpaceOnUse" color-interpolation-filters="sRGB">
<feFlood flood-opacity="0" result="BackgroundImageFix"/>
<feColorMatrix in="SourceAlpha" type="matrix" values="0 0 0 0 0 0 0 0 0 0 0 0 0 0 0 0 0 0 127 0" result="hardAlpha"/>
<feOffset dy="4"/>
<feGaussianBlur stdDeviation="2"/>
<feComposite in2="hardAlpha" operator="out"/>
<feColorMatrix type="matrix" values="0 0 0 0 0 0 0 0 0 0 0 0 0 0 0 0 0 0 0.25 0"/>
<feBlend mode="normal" in2="BackgroundImageFix" result="effect1_dropShadow_6290_1989"/>
<feBlend mode="normal" in="SourceGraphic" in2="effect1_dropShadow_6290_1989" result="shape"/>
</filter>
<filter id="filter4_d_6290_1989" x="168.272" y="106" width="37.4561" height="33.5" filterUnits="userSpaceOnUse" color-interpolation-filters="sRGB">
<feFlood flood-opacity="0" result="BackgroundImageFix"/>
<feColorMatrix in="SourceAlpha" type="matrix" values="0 0 0 0 0 0 0 0 0 0 0 0 0 0 0 0 0 0 127 0" result="hardAlpha"/>
<feOffset dy="4"/>
<feGaussianBlur stdDeviation="2"/>
<feComposite in2="hardAlpha" operator="out"/>
<feColorMatrix type="matrix" values="0 0 0 0 0 0 0 0 0 0 0 0 0 0 0 0 0 0 0.25 0"/>
<feBlend mode="normal" in2="BackgroundImageFix" result="effect1_dropShadow_6290_1989"/>
<feBlend mode="normal" in="SourceGraphic" in2="effect1_dropShadow_6290_1989" result="shape"/>
</filter>
<clipPath id="clip0_6290_1989">
<rect width="207" height="207" fill="white"/>
</clipPath>
</defs>
</svg>
