<svg width="428" height="109" viewBox="0 0 428 109" fill="none" xmlns="http://www.w3.org/2000/svg">
<g clip-path="url(#clip0_6187_3285)">
<rect width="428" height="109" fill="white"/>
<path d="M22.4512 22H20.752V15.7402C20.752 14.985 20.6087 14.4219 20.3223 14.0508C20.0423 13.6732 19.6387 13.4844 19.1113 13.4844C18.8835 13.4844 18.6686 13.5169 18.4668 13.582C18.2715 13.6406 18.0664 13.748 17.8516 13.9043C17.6367 14.054 17.4023 14.2591 17.1484 14.5195C16.8945 14.7799 16.6016 15.1055 16.2695 15.4961V22H14.5703V8.20117H16.2695V12.1953L16.2109 13.7383C16.4779 13.4193 16.7383 13.1523 16.9922 12.9375C17.2526 12.7161 17.5098 12.5371 17.7637 12.4004C18.0241 12.2637 18.2878 12.166 18.5547 12.1074C18.8216 12.0488 19.0983 12.0195 19.3848 12.0195C20.3613 12.0195 21.1165 12.319 21.6504 12.918C22.1842 13.5104 22.4512 14.4056 22.4512 15.6035V22ZM33.8477 16.5801C33.8477 16.821 33.8444 17.0228 33.8379 17.1855C33.8314 17.3483 33.8216 17.5013 33.8086 17.6445H26.9238C26.9238 18.6471 27.2038 19.4186 27.7637 19.959C28.3236 20.4928 29.1309 20.7598 30.1855 20.7598C30.472 20.7598 30.7585 20.75 31.0449 20.7305C31.3314 20.7044 31.6081 20.6719 31.875 20.6328C32.1419 20.5938 32.3958 20.5514 32.6367 20.5059C32.8841 20.4538 33.112 20.3984 33.3203 20.3398V21.7363C32.8581 21.8665 32.334 21.9707 31.748 22.0488C31.1686 22.1335 30.5664 22.1758 29.9414 22.1758C29.1016 22.1758 28.3789 22.0618 27.7734 21.834C27.168 21.6061 26.6699 21.2773 26.2793 20.8477C25.8952 20.4115 25.6087 19.8809 25.4199 19.2559C25.2376 18.6243 25.1465 17.9115 25.1465 17.1172C25.1465 16.4271 25.2441 15.776 25.4395 15.1641C25.6413 14.5456 25.931 14.0052 26.3086 13.543C26.6927 13.0742 27.1615 12.7031 27.7148 12.4297C28.2682 12.1562 28.8965 12.0195 29.5996 12.0195C30.2832 12.0195 30.8887 12.127 31.416 12.3418C31.9434 12.5566 32.3861 12.8626 32.7441 13.2598C33.1087 13.6504 33.3822 14.1289 33.5645 14.6953C33.7533 15.2552 33.8477 15.8835 33.8477 16.5801ZM32.0801 16.3359C32.0996 15.8997 32.0573 15.5026 31.9531 15.1445C31.849 14.7799 31.6862 14.4674 31.4648 14.207C31.25 13.9466 30.9798 13.7448 30.6543 13.6016C30.3288 13.4518 29.9512 13.377 29.5215 13.377C29.1504 13.377 28.8118 13.4486 28.5059 13.5918C28.1999 13.735 27.9362 13.9368 27.7148 14.1973C27.4935 14.4577 27.3145 14.7702 27.1777 15.1348C27.041 15.4993 26.9564 15.8997 26.9238 16.3359H32.0801ZM42.8613 22L42.8223 20.6816C42.2884 21.209 41.7448 21.5898 41.1914 21.8242C40.6445 22.0586 40.0684 22.1758 39.4629 22.1758C38.903 22.1758 38.4245 22.1042 38.0273 21.9609C37.6302 21.8177 37.3014 21.6224 37.041 21.375C36.7871 21.1211 36.5983 20.8249 36.4746 20.4863C36.3574 20.1478 36.2988 19.7799 36.2988 19.3828C36.2988 18.3997 36.6634 17.6315 37.3926 17.0781C38.1283 16.5182 39.2122 16.2383 40.6445 16.2383H42.6758V15.3789C42.6758 14.7995 42.4902 14.3372 42.1191 13.9922C41.748 13.6406 41.1816 13.4648 40.4199 13.4648C39.8665 13.4648 39.3197 13.5267 38.7793 13.6504C38.2454 13.7741 37.6921 13.9499 37.1191 14.1777V12.6445C37.334 12.5664 37.5716 12.4915 37.832 12.4199C38.099 12.3418 38.3789 12.2734 38.6719 12.2148C38.9648 12.1562 39.2708 12.1107 39.5898 12.0781C39.9089 12.0391 40.2311 12.0195 40.5566 12.0195C41.1491 12.0195 41.6829 12.0846 42.1582 12.2148C42.6335 12.3451 43.0339 12.5436 43.3594 12.8105C43.6914 13.0775 43.9453 13.4128 44.1211 13.8164C44.2969 14.2201 44.3848 14.6953 44.3848 15.2422V22H42.8613ZM42.6758 17.5371H40.5176C40.0944 17.5371 39.7298 17.5794 39.4238 17.6641C39.1178 17.7487 38.8672 17.8691 38.6719 18.0254C38.4766 18.1816 38.3301 18.3704 38.2324 18.5918C38.1413 18.8066 38.0957 19.0508 38.0957 19.3242C38.0957 19.513 38.125 19.6953 38.1836 19.8711C38.2422 20.0404 38.3366 20.1934 38.4668 20.3301C38.597 20.4603 38.7663 20.5645 38.9746 20.6426C39.1829 20.7207 39.4368 20.7598 39.7363 20.7598C40.127 20.7598 40.5729 20.6426 41.0742 20.4082C41.582 20.1673 42.1159 19.7897 42.6758 19.2754V17.5371ZM47.0605 17.3027C47.0605 16.4694 47.1745 15.7305 47.4023 15.0859C47.6302 14.4349 47.9525 13.888 48.3691 13.4453C48.7923 12.9961 49.2969 12.6576 49.8828 12.4297C50.4753 12.1953 51.1328 12.0781 51.8555 12.0781C52.168 12.0781 52.474 12.0977 52.7734 12.1367C53.0794 12.1758 53.3789 12.2376 53.6719 12.3223V8.20117H55.3809V22H53.8574L53.7988 20.1445C53.3236 20.8346 52.8092 21.3457 52.2559 21.6777C51.7025 22.0098 51.1035 22.1758 50.459 22.1758C49.8991 22.1758 49.4043 22.0586 48.9746 21.8242C48.5514 21.5898 48.1966 21.2611 47.9102 20.8379C47.6302 20.4082 47.4186 19.8939 47.2754 19.2949C47.1322 18.696 47.0605 18.0319 47.0605 17.3027ZM48.7988 17.1953C48.7988 18.3802 48.9714 19.2656 49.3164 19.8516C49.668 20.431 50.1628 20.7207 50.8008 20.7207C51.2305 20.7207 51.6829 20.5286 52.1582 20.1445C52.64 19.7604 53.1445 19.1908 53.6719 18.4355V13.8848C53.3919 13.7546 53.0827 13.6569 52.7441 13.5918C52.4056 13.5202 52.0703 13.4844 51.7383 13.4844C50.8138 13.4844 50.0911 13.7839 49.5703 14.3828C49.056 14.9818 48.7988 15.9193 48.7988 17.1953Z" fill="#666666"/>
<path d="M34.2929 57.7071C34.6834 58.0976 35.3166 58.0976 35.7071 57.7071L42.0711 51.3431C42.4616 50.9526 42.4616 50.3195 42.0711 49.9289C41.6805 49.5384 41.0474 49.5384 40.6569 49.9289L35 55.5858L29.3431 49.9289C28.9526 49.5384 28.3195 49.5384 27.9289 49.9289C27.5384 50.3195 27.5384 50.9526 27.9289 51.3431L34.2929 57.7071ZM34 30L34 57L36 57L36 30L34 30Z" fill="#666666"/>
<rect x="1" y="1" width="69" height="28" rx="6" stroke="#666666" stroke-width="2"/>
<circle cx="35" cy="84" r="23.75" stroke="black" stroke-width="2.5"/>
<path d="M41.8574 94H29.8311V91.627H34.7529V77.6523L30.168 80.1426L29.2305 77.9746L35.3242 74.7666H37.5801V91.627H41.8574V94Z" fill="black"/>
<path d="M129.884 84.8839C130.372 84.3957 130.372 83.6043 129.884 83.1161L121.929 75.1612C121.441 74.673 120.649 74.673 120.161 75.1612C119.673 75.6493 119.673 76.4408 120.161 76.9289L127.232 84L120.161 91.0711C119.673 91.5592 119.673 92.3507 120.161 92.8388C120.649 93.327 121.441 93.327 121.929 92.8388L129.884 84.8839ZM59 85.25H129V82.75H59V85.25Z" fill="black"/>
<circle cx="157" cy="84" r="23.75" stroke="black" stroke-width="2.5"/>
<path d="M164.019 94H151.406V91.7148L156.357 86.793C157.168 85.9922 157.827 85.2988 158.335 84.7129C158.843 84.127 159.238 83.5947 159.521 83.1162C159.805 82.6279 159.995 82.1689 160.093 81.7393C160.19 81.3096 160.239 80.8457 160.239 80.3477C160.239 79.8789 160.176 79.4346 160.049 79.0146C159.922 78.585 159.727 78.209 159.463 77.8867C159.199 77.5645 158.857 77.3105 158.438 77.125C158.018 76.9395 157.515 76.8467 156.929 76.8467C156.118 76.8467 155.381 77.0273 154.717 77.3887C154.053 77.75 153.442 78.2188 152.886 78.7949L151.479 77.1104C152.202 76.3486 153.032 75.7383 153.97 75.2793C154.917 74.8203 156.016 74.5908 157.266 74.5908C158.115 74.5908 158.887 74.7178 159.58 74.9717C160.283 75.2256 160.889 75.5918 161.396 76.0703C161.904 76.5488 162.295 77.1348 162.568 77.8281C162.852 78.5215 162.993 79.3027 162.993 80.1719C162.993 80.9043 162.896 81.583 162.7 82.208C162.505 82.833 162.207 83.458 161.807 84.083C161.416 84.6982 160.918 85.3379 160.312 86.002C159.717 86.666 159.009 87.3936 158.188 88.1846L154.717 91.5684H164.019V94Z" fill="black"/>
<path d="M252.884 84.8839C253.372 84.3957 253.372 83.6043 252.884 83.1161L244.929 75.1612C244.441 74.673 243.649 74.673 243.161 75.1612C242.673 75.6493 242.673 76.4408 243.161 76.9289L250.232 84L243.161 91.0711C242.673 91.5592 242.673 92.3507 243.161 92.8388C243.649 93.327 244.441 93.327 244.929 92.8388L252.884 84.8839ZM182 85.25H252V82.75H182V85.25Z" fill="black"/>
<circle cx="280" cy="84" r="23.75" stroke="black" stroke-width="2.5"/>
<path d="M286.652 88.1846C286.652 89.0244 286.481 89.8154 286.14 90.5576C285.798 91.29 285.285 91.9346 284.602 92.4912C283.918 93.0381 283.059 93.4727 282.023 93.7949C280.988 94.1074 279.782 94.2637 278.405 94.2637C277.644 94.2637 276.96 94.2393 276.354 94.1904C275.749 94.1416 275.183 94.0781 274.655 94V91.7148C275.261 91.8223 275.9 91.9053 276.574 91.9639C277.248 92.0225 277.937 92.0518 278.64 92.0518C279.597 92.0518 280.412 91.9688 281.086 91.8027C281.77 91.627 282.326 91.3779 282.756 91.0557C283.186 90.7334 283.498 90.3428 283.693 89.8838C283.889 89.4248 283.986 88.9072 283.986 88.3311C283.986 87.8037 283.869 87.3447 283.635 86.9541C283.4 86.5635 283.068 86.2363 282.639 85.9727C282.219 85.709 281.711 85.5137 281.115 85.3867C280.529 85.25 279.885 85.1816 279.182 85.1816H276.999V83.0869H279.211C279.787 83.0869 280.31 83.0137 280.778 82.8672C281.257 82.7109 281.662 82.4912 281.994 82.208C282.336 81.9248 282.595 81.5781 282.771 81.168C282.956 80.748 283.049 80.2744 283.049 79.7471C283.049 78.7217 282.736 77.9746 282.111 77.5059C281.486 77.0371 280.568 76.8027 279.357 76.8027C278.713 76.8027 278.049 76.8662 277.365 76.9932C276.682 77.1201 275.949 77.3105 275.168 77.5645V75.3379C275.5 75.2207 275.852 75.1182 276.223 75.0303C276.604 74.9326 276.979 74.8545 277.351 74.7959C277.731 74.7275 278.107 74.6787 278.479 74.6494C278.85 74.6104 279.206 74.5908 279.548 74.5908C280.563 74.5908 281.457 74.7031 282.229 74.9277C283 75.1426 283.645 75.4551 284.162 75.8652C284.68 76.2754 285.07 76.7734 285.334 77.3594C285.598 77.9453 285.729 78.6045 285.729 79.3369C285.729 80.4307 285.446 81.3486 284.88 82.0908C284.323 82.833 283.557 83.4238 282.58 83.8633C283.078 83.9414 283.566 84.0977 284.045 84.332C284.533 84.5664 284.968 84.8691 285.349 85.2402C285.739 85.6016 286.052 86.0312 286.286 86.5293C286.53 87.0273 286.652 87.5791 286.652 88.1846Z" fill="black"/>
<path d="M375.884 84.8839C376.372 84.3957 376.372 83.6043 375.884 83.1161L367.929 75.1612C367.441 74.673 366.649 74.673 366.161 75.1612C365.673 75.6493 365.673 76.4408 366.161 76.9289L373.232 84L366.161 91.0711C365.673 91.5592 365.673 92.3507 366.161 92.8388C366.649 93.327 367.441 93.327 367.929 92.8388L375.884 84.8839ZM305 85.25H375V82.75H305V85.25Z" fill="black"/>
<circle cx="403" cy="84" r="23.75" stroke="black" stroke-width="2.5"/>
<path d="M409.971 89.7666H406.704V94H404.097V89.7666H394.883V87.5254L403.042 74.8545H406.704V87.5254H409.971V89.7666ZM404.097 77.3154L397.432 87.5254H404.097V77.3154Z" fill="black"/>
</g>
<defs>
<clipPath id="clip0_6187_3285">
<rect width="428" height="109" fill="white"/>
</clipPath>
</defs>
</svg>
