<svg width="738" height="27" viewBox="0 0 738 27" fill="none" xmlns="http://www.w3.org/2000/svg">
<g clip-path="url(#clip0_6296_5982)">
<rect width="738" height="27" fill="white"/>
<path d="M197.898 27.0059H190.677V-0.210938H197.898V1.83984H193.108V24.9551H197.898V27.0059ZM233.216 21H221.189V18.627H226.111V4.65234L221.526 7.14258L220.589 4.97461L226.683 1.7666H228.938V18.627H233.216V21ZM299.354 21H286.741V18.7148L291.692 13.793C292.503 12.9922 293.162 12.2988 293.67 11.7129C294.178 11.127 294.573 10.5947 294.856 10.1162C295.14 9.62793 295.33 9.16895 295.428 8.73926C295.525 8.30957 295.574 7.8457 295.574 7.34766C295.574 6.87891 295.511 6.43457 295.384 6.01465C295.257 5.58496 295.062 5.20898 294.798 4.88672C294.534 4.56445 294.192 4.31055 293.772 4.125C293.353 3.93945 292.85 3.84668 292.264 3.84668C291.453 3.84668 290.716 4.02734 290.052 4.38867C289.388 4.75 288.777 5.21875 288.221 5.79492L286.814 4.11035C287.537 3.34863 288.367 2.73828 289.305 2.2793C290.252 1.82031 291.351 1.59082 292.601 1.59082C293.45 1.59082 294.222 1.71777 294.915 1.97168C295.618 2.22559 296.224 2.5918 296.731 3.07031C297.239 3.54883 297.63 4.13477 297.903 4.82812C298.187 5.52148 298.328 6.30273 298.328 7.17188C298.328 7.9043 298.23 8.58301 298.035 9.20801C297.84 9.83301 297.542 10.458 297.142 11.083C296.751 11.6982 296.253 12.3379 295.647 13.002C295.052 13.666 294.344 14.3936 293.523 15.1846L290.052 18.5684H299.354V21ZM364.964 15.1846C364.964 16.0244 364.793 16.8154 364.451 17.5576C364.109 18.29 363.597 18.9346 362.913 19.4912C362.229 20.0381 361.37 20.4727 360.335 20.7949C359.3 21.1074 358.094 21.2637 356.717 21.2637C355.955 21.2637 355.271 21.2393 354.666 21.1904C354.061 21.1416 353.494 21.0781 352.967 21V18.7148C353.572 18.8223 354.212 18.9053 354.886 18.9639C355.56 19.0225 356.248 19.0518 356.951 19.0518C357.908 19.0518 358.724 18.9688 359.397 18.8027C360.081 18.627 360.638 18.3779 361.067 18.0557C361.497 17.7334 361.81 17.3428 362.005 16.8838C362.2 16.4248 362.298 15.9072 362.298 15.3311C362.298 14.8037 362.181 14.3447 361.946 13.9541C361.712 13.5635 361.38 13.2363 360.95 12.9727C360.53 12.709 360.022 12.5137 359.427 12.3867C358.841 12.25 358.196 12.1816 357.493 12.1816H355.311V10.0869H357.522C358.099 10.0869 358.621 10.0137 359.09 9.86719C359.568 9.71094 359.974 9.49121 360.306 9.20801C360.647 8.9248 360.906 8.57812 361.082 8.16797C361.268 7.74805 361.36 7.27441 361.36 6.74707C361.36 5.72168 361.048 4.97461 360.423 4.50586C359.798 4.03711 358.88 3.80273 357.669 3.80273C357.024 3.80273 356.36 3.86621 355.677 3.99316C354.993 4.12012 354.261 4.31055 353.479 4.56445V2.33789C353.812 2.2207 354.163 2.11816 354.534 2.03027C354.915 1.93262 355.291 1.85449 355.662 1.7959C356.043 1.72754 356.419 1.67871 356.79 1.64941C357.161 1.61035 357.518 1.59082 357.859 1.59082C358.875 1.59082 359.769 1.70313 360.54 1.92773C361.312 2.14258 361.956 2.45508 362.474 2.86523C362.991 3.27539 363.382 3.77344 363.646 4.35938C363.909 4.94531 364.041 5.60449 364.041 6.33691C364.041 7.43066 363.758 8.34863 363.191 9.09082C362.635 9.83301 361.868 10.4238 360.892 10.8633C361.39 10.9414 361.878 11.0977 362.356 11.332C362.845 11.5664 363.279 11.8691 363.66 12.2402C364.051 12.6016 364.363 13.0312 364.598 13.5293C364.842 14.0273 364.964 14.5791 364.964 15.1846ZM432.259 16.7666H428.992V21H426.385V16.7666H417.171V14.5254L425.33 1.85449H428.992V14.5254H432.259V16.7666ZM426.385 4.31543L419.72 14.5254H426.385V4.31543ZM496.8 14.877C496.8 15.8242 496.595 16.6885 496.185 17.4697C495.774 18.251 495.208 18.9248 494.485 19.4912C493.772 20.0479 492.928 20.4824 491.951 20.7949C490.975 21.1074 489.92 21.2637 488.787 21.2637C488.504 21.2637 488.196 21.2539 487.864 21.2344C487.542 21.2246 487.22 21.2051 486.897 21.1758C486.575 21.1562 486.258 21.1318 485.945 21.1025C485.643 21.0732 485.369 21.0391 485.125 21V18.6855C485.652 18.8125 486.253 18.9053 486.927 18.9639C487.61 19.0225 488.299 19.0518 488.992 19.0518C489.773 19.0518 490.477 18.959 491.102 18.7734C491.727 18.5879 492.259 18.3242 492.698 17.9824C493.138 17.6309 493.475 17.2109 493.709 16.7227C493.943 16.2246 494.061 15.668 494.061 15.0527C494.061 13.8613 493.631 12.9971 492.771 12.46C491.922 11.9131 490.696 11.6396 489.095 11.6396H485.462V1.85449H495.774V4.08105H487.864V9.45703H489.534C490.452 9.45703 491.346 9.54004 492.215 9.70605C493.084 9.87207 493.855 10.165 494.529 10.585C495.213 10.9951 495.76 11.5518 496.17 12.2549C496.59 12.9482 496.8 13.8223 496.8 14.877ZM526.946 27.0059H519.725V24.9551H524.485V1.83984H519.725V-0.210938H526.946V27.0059Z" fill="black"/>
</g>
<defs>
<clipPath id="clip0_6296_5982">
<rect width="738" height="27" fill="white"/>
</clipPath>
</defs>
</svg>
