<svg width="849" height="189" viewBox="0 0 849 189" fill="none" xmlns="http://www.w3.org/2000/svg">
<g clip-path="url(#clip0_6259_675)">
<rect width="849" height="189" fill="white"/>
<circle opacity="0.2" cx="219" cy="73" r="19" fill="#00BD36"/>
<rect x="1" y="132" width="568" height="56" rx="9" fill="#EDEDED" stroke="#ADADAD" stroke-width="2" stroke-dasharray="8 8"/>
<path d="M28.1875 153.273H30.3066L30.4023 155.488C30.8034 155.014 31.1908 154.622 31.5645 154.312C31.9382 153.993 32.3027 153.738 32.6582 153.547C33.0228 153.355 33.3919 153.223 33.7656 153.15C34.1393 153.068 34.5267 153.027 34.9277 153.027C36.3405 153.027 37.4069 153.447 38.127 154.285C38.8561 155.115 39.2207 156.368 39.2207 158.045V167H36.8418V158.236C36.8418 157.161 36.6413 156.368 36.2402 155.857C35.8392 155.338 35.2422 155.078 34.4492 155.078C34.1576 155.078 33.8704 155.124 33.5879 155.215C33.3145 155.297 33.0273 155.447 32.7266 155.666C32.4258 155.876 32.0977 156.163 31.7422 156.527C31.3958 156.892 31.0039 157.348 30.5664 157.895V167H28.1875V153.273ZM54.6152 167H52.4824L52.4004 164.785C51.9902 165.259 51.5983 165.656 51.2246 165.975C50.86 166.285 50.4954 166.535 50.1309 166.727C49.7663 166.918 49.3971 167.05 49.0234 167.123C48.6589 167.205 48.2715 167.246 47.8613 167.246C46.4486 167.246 45.3822 166.831 44.6621 166.002C43.9421 165.173 43.582 163.919 43.582 162.242V153.273H45.9609V162.051C45.9609 164.156 46.7539 165.209 48.3398 165.209C48.6315 165.209 48.9141 165.168 49.1875 165.086C49.4701 164.995 49.7617 164.844 50.0625 164.635C50.3724 164.416 50.7005 164.124 51.0469 163.76C51.4023 163.395 51.7988 162.935 52.2363 162.379V153.273H54.6152V167ZM68.7656 167V157.143C68.7656 156.714 68.7474 156.363 68.7109 156.09C68.6836 155.816 68.6335 155.602 68.5605 155.447C68.4967 155.283 68.4102 155.169 68.3008 155.105C68.2005 155.042 68.0729 155.01 67.918 155.01C67.7357 155.01 67.5671 155.064 67.4121 155.174C67.2572 155.283 67.0885 155.461 66.9062 155.707C66.7331 155.953 66.5371 156.281 66.3184 156.691C66.1087 157.092 65.8581 157.589 65.5664 158.182V167H63.3926V157.402C63.3926 156.901 63.3743 156.495 63.3379 156.186C63.3105 155.876 63.2604 155.634 63.1875 155.461C63.1237 155.288 63.0371 155.169 62.9277 155.105C62.8184 155.042 62.6862 155.01 62.5312 155.01C62.3672 155.01 62.2122 155.055 62.0664 155.146C61.9206 155.238 61.7565 155.402 61.5742 155.639C61.401 155.876 61.2051 156.199 60.9863 156.609C60.7676 157.02 60.5078 157.544 60.207 158.182V167H58.0195V153.273H59.8379L59.9473 155.885C60.1842 155.365 60.4121 154.923 60.6309 154.559C60.8587 154.194 61.0911 153.902 61.3281 153.684C61.5651 153.456 61.8158 153.292 62.0801 153.191C62.3535 153.082 62.6543 153.027 62.9824 153.027C63.7207 153.027 64.2812 153.269 64.6641 153.752C65.0469 154.235 65.2383 154.982 65.2383 155.994C65.457 155.52 65.6712 155.101 65.8809 154.736C66.0905 154.363 66.3138 154.053 66.5508 153.807C66.7969 153.551 67.0658 153.36 67.3574 153.232C67.6491 153.096 67.9863 153.027 68.3691 153.027C70.0918 153.027 70.9531 154.354 70.9531 157.006V167H68.7656ZM85.2402 163.254C85.2402 163.737 85.1582 164.17 84.9941 164.553C84.8301 164.936 84.6068 165.277 84.3242 165.578C84.0417 165.87 83.7135 166.12 83.3398 166.33C82.9661 166.54 82.5651 166.713 82.1367 166.85C81.7174 166.986 81.2845 167.087 80.8379 167.15C80.3913 167.214 79.9538 167.246 79.5254 167.246C78.5957 167.246 77.7389 167.205 76.9551 167.123C76.1803 167.041 75.4193 166.909 74.6719 166.727V164.539C75.474 164.767 76.2715 164.94 77.0645 165.059C77.8574 165.177 78.6458 165.236 79.4297 165.236C80.569 165.236 81.4121 165.081 81.959 164.771C82.5059 164.462 82.7793 164.02 82.7793 163.445C82.7793 163.199 82.7337 162.98 82.6426 162.789C82.5605 162.589 82.4056 162.402 82.1777 162.229C81.9499 162.046 81.5944 161.859 81.1113 161.668C80.6374 161.477 79.9857 161.258 79.1562 161.012C78.5365 160.829 77.9622 160.624 77.4336 160.396C76.9141 160.16 76.4629 159.882 76.0801 159.562C75.6973 159.243 75.3965 158.87 75.1777 158.441C74.959 158.013 74.8496 157.507 74.8496 156.924C74.8496 156.541 74.9362 156.122 75.1094 155.666C75.2917 155.21 75.597 154.786 76.0254 154.395C76.4538 154.003 77.0326 153.679 77.7617 153.424C78.4909 153.16 79.4023 153.027 80.4961 153.027C81.0339 153.027 81.6309 153.059 82.2871 153.123C82.9434 153.178 83.627 153.278 84.3379 153.424V155.543C83.5905 155.361 82.8796 155.229 82.2051 155.146C81.5397 155.055 80.9609 155.01 80.4688 155.01C79.8763 155.01 79.375 155.055 78.9648 155.146C78.5638 155.238 78.2357 155.365 77.9805 155.529C77.7344 155.684 77.5566 155.871 77.4473 156.09C77.3379 156.299 77.2832 156.527 77.2832 156.773C77.2832 157.02 77.3288 157.243 77.4199 157.443C77.5202 157.644 77.6979 157.84 77.9531 158.031C78.2174 158.214 78.582 158.4 79.0469 158.592C79.5117 158.774 80.1178 158.975 80.8652 159.193C81.6764 159.43 82.36 159.681 82.916 159.945C83.472 160.201 83.9232 160.488 84.2695 160.807C84.6159 161.126 84.862 161.486 85.0078 161.887C85.1628 162.288 85.2402 162.743 85.2402 163.254ZM99.0352 172.605H92.2949V147.203H99.0352V149.117H94.5645V170.691H99.0352V172.605ZM114.949 167V157.143C114.949 156.714 114.931 156.363 114.895 156.09C114.867 155.816 114.817 155.602 114.744 155.447C114.68 155.283 114.594 155.169 114.484 155.105C114.384 155.042 114.257 155.01 114.102 155.01C113.919 155.01 113.751 155.064 113.596 155.174C113.441 155.283 113.272 155.461 113.09 155.707C112.917 155.953 112.721 156.281 112.502 156.691C112.292 157.092 112.042 157.589 111.75 158.182V167H109.576V157.402C109.576 156.901 109.558 156.495 109.521 156.186C109.494 155.876 109.444 155.634 109.371 155.461C109.307 155.288 109.221 155.169 109.111 155.105C109.002 155.042 108.87 155.01 108.715 155.01C108.551 155.01 108.396 155.055 108.25 155.146C108.104 155.238 107.94 155.402 107.758 155.639C107.585 155.876 107.389 156.199 107.17 156.609C106.951 157.02 106.691 157.544 106.391 158.182V167H104.203V153.273H106.021L106.131 155.885C106.368 155.365 106.596 154.923 106.814 154.559C107.042 154.194 107.275 153.902 107.512 153.684C107.749 153.456 107.999 153.292 108.264 153.191C108.537 153.082 108.838 153.027 109.166 153.027C109.904 153.027 110.465 153.269 110.848 153.752C111.23 154.235 111.422 154.982 111.422 155.994C111.641 155.52 111.855 155.101 112.064 154.736C112.274 154.363 112.497 154.053 112.734 153.807C112.98 153.551 113.249 153.36 113.541 153.232C113.833 153.096 114.17 153.027 114.553 153.027C116.275 153.027 117.137 154.354 117.137 157.006V167H114.949ZM125.23 155.242H121.17V153.273H127.637V165.018H131.725V167H120.719V165.018H125.23V155.242ZM126.064 147.518C126.329 147.518 126.575 147.568 126.803 147.668C127.031 147.759 127.227 147.891 127.391 148.064C127.564 148.238 127.696 148.438 127.787 148.666C127.887 148.885 127.938 149.126 127.938 149.391C127.938 149.646 127.887 149.887 127.787 150.115C127.696 150.343 127.564 150.544 127.391 150.717C127.227 150.89 127.031 151.027 126.803 151.127C126.575 151.218 126.329 151.264 126.064 151.264C125.8 151.264 125.554 151.218 125.326 151.127C125.098 151.027 124.898 150.89 124.725 150.717C124.561 150.544 124.428 150.343 124.328 150.115C124.237 149.887 124.191 149.646 124.191 149.391C124.191 149.126 124.237 148.885 124.328 148.666C124.428 148.438 124.561 148.238 124.725 148.064C124.898 147.891 125.098 147.759 125.326 147.668C125.554 147.568 125.8 147.518 126.064 147.518ZM135.252 160.424C135.252 159.257 135.411 158.223 135.73 157.32C136.049 156.409 136.501 155.643 137.084 155.023C137.676 154.395 138.383 153.921 139.203 153.602C140.033 153.273 140.953 153.109 141.965 153.109C142.402 153.109 142.831 153.137 143.25 153.191C143.678 153.246 144.098 153.333 144.508 153.451V147.682H146.9V167H144.768L144.686 164.402C144.02 165.368 143.3 166.084 142.525 166.549C141.751 167.014 140.912 167.246 140.01 167.246C139.226 167.246 138.533 167.082 137.932 166.754C137.339 166.426 136.842 165.965 136.441 165.373C136.049 164.771 135.753 164.051 135.553 163.213C135.352 162.374 135.252 161.445 135.252 160.424ZM137.686 160.273C137.686 161.932 137.927 163.172 138.41 163.992C138.902 164.803 139.595 165.209 140.488 165.209C141.09 165.209 141.723 164.94 142.389 164.402C143.063 163.865 143.77 163.067 144.508 162.01V155.639C144.116 155.456 143.683 155.32 143.209 155.229C142.735 155.128 142.266 155.078 141.801 155.078C140.507 155.078 139.495 155.497 138.766 156.336C138.046 157.174 137.686 158.487 137.686 160.273ZM159.834 172.605H153.094V170.691H157.537V149.117H153.094V147.203H159.834V172.605ZM182.803 153.396L184.279 151.879L193.467 159.549L184.279 167.219L182.803 165.715L190.254 159.576L182.803 153.396ZM225.404 163.049H222.355V167H219.922V163.049H211.322V160.957L218.938 149.131H222.355V160.957H225.404V163.049ZM219.922 151.428L213.701 160.957H219.922V151.428Z" fill="black"/>
<path d="M318.748 153.273H320.922L320.99 155.803C321.801 154.827 322.599 154.121 323.383 153.684C324.176 153.246 324.973 153.027 325.775 153.027C327.197 153.027 328.273 153.488 329.002 154.408C329.74 155.329 330.082 156.696 330.027 158.51H327.621C327.648 157.307 327.471 156.436 327.088 155.898C326.714 155.352 326.163 155.078 325.434 155.078C325.115 155.078 324.791 155.137 324.463 155.256C324.144 155.365 323.811 155.548 323.465 155.803C323.128 156.049 322.768 156.368 322.385 156.76C322.002 157.152 321.592 157.626 321.154 158.182V167H318.748V153.273ZM338.258 155.242H334.197V153.273H340.664V165.018H344.752V167H333.746V165.018H338.258V155.242ZM339.092 147.518C339.356 147.518 339.602 147.568 339.83 147.668C340.058 147.759 340.254 147.891 340.418 148.064C340.591 148.238 340.723 148.438 340.814 148.666C340.915 148.885 340.965 149.126 340.965 149.391C340.965 149.646 340.915 149.887 340.814 150.115C340.723 150.343 340.591 150.544 340.418 150.717C340.254 150.89 340.058 151.027 339.83 151.127C339.602 151.218 339.356 151.264 339.092 151.264C338.827 151.264 338.581 151.218 338.354 151.127C338.126 151.027 337.925 150.89 337.752 150.717C337.588 150.544 337.456 150.343 337.355 150.115C337.264 149.887 337.219 149.646 337.219 149.391C337.219 149.126 337.264 148.885 337.355 148.666C337.456 148.438 337.588 148.238 337.752 148.064C337.925 147.891 338.126 147.759 338.354 147.668C338.581 147.568 338.827 147.518 339.092 147.518ZM358.861 155.215C359.117 155.534 359.312 155.908 359.449 156.336C359.595 156.755 359.668 157.211 359.668 157.703C359.668 158.414 359.536 159.066 359.271 159.658C359.016 160.242 358.652 160.743 358.178 161.162C357.704 161.581 357.134 161.91 356.469 162.146C355.812 162.374 355.088 162.488 354.295 162.488C353.721 162.488 353.183 162.429 352.682 162.311C352.18 162.183 351.784 162.028 351.492 161.846C351.319 162.101 351.173 162.342 351.055 162.57C350.936 162.798 350.877 163.053 350.877 163.336C350.877 163.682 351.041 163.969 351.369 164.197C351.706 164.425 352.148 164.548 352.695 164.566L356.305 164.703C356.988 164.721 357.617 164.808 358.191 164.963C358.775 165.118 359.271 165.341 359.682 165.633C360.101 165.924 360.424 166.285 360.652 166.713C360.889 167.141 361.008 167.638 361.008 168.203C361.008 168.814 360.876 169.393 360.611 169.939C360.347 170.486 359.937 170.965 359.381 171.375C358.834 171.794 358.137 172.127 357.289 172.373C356.441 172.619 355.434 172.742 354.268 172.742C353.156 172.742 352.208 172.651 351.424 172.469C350.649 172.296 350.011 172.049 349.51 171.73C349.008 171.421 348.644 171.047 348.416 170.609C348.188 170.181 348.074 169.707 348.074 169.188C348.074 168.522 348.229 167.939 348.539 167.438C348.849 166.936 349.327 166.453 349.975 165.988C349.738 165.879 349.533 165.742 349.359 165.578C349.186 165.414 349.045 165.236 348.936 165.045C348.826 164.844 348.744 164.635 348.689 164.416C348.635 164.197 348.607 163.983 348.607 163.773C348.607 163.181 348.744 162.639 349.018 162.146C349.3 161.654 349.633 161.189 350.016 160.752C349.842 160.542 349.688 160.337 349.551 160.137C349.423 159.936 349.309 159.722 349.209 159.494C349.118 159.257 349.045 159.007 348.99 158.742C348.945 158.469 348.922 158.159 348.922 157.812C348.922 157.102 349.049 156.454 349.305 155.871C349.569 155.279 349.934 154.773 350.398 154.354C350.872 153.934 351.438 153.611 352.094 153.383C352.759 153.146 353.493 153.027 354.295 153.027C354.632 153.027 354.956 153.05 355.266 153.096C355.576 153.141 355.849 153.201 356.086 153.273H361.062V155.215H358.861ZM350.604 168.982C350.604 169.63 350.941 170.099 351.615 170.391C352.29 170.691 353.229 170.842 354.432 170.842C355.188 170.842 355.822 170.773 356.332 170.637C356.852 170.5 357.266 170.318 357.576 170.09C357.895 169.871 358.123 169.616 358.26 169.324C358.396 169.042 358.465 168.75 358.465 168.449C358.465 167.893 358.237 167.483 357.781 167.219C357.326 166.954 356.628 166.799 355.689 166.754L352.107 166.631C351.807 166.831 351.556 167.027 351.355 167.219C351.164 167.41 351.014 167.602 350.904 167.793C350.795 167.993 350.717 168.189 350.672 168.381C350.626 168.581 350.604 168.782 350.604 168.982ZM351.328 157.758C351.328 158.195 351.401 158.596 351.547 158.961C351.693 159.326 351.898 159.635 352.162 159.891C352.426 160.146 352.736 160.346 353.092 160.492C353.456 160.629 353.857 160.697 354.295 160.697C354.769 160.697 355.188 160.62 355.553 160.465C355.926 160.301 356.236 160.082 356.482 159.809C356.738 159.535 356.929 159.221 357.057 158.865C357.193 158.51 357.262 158.141 357.262 157.758C357.262 157.32 357.189 156.919 357.043 156.555C356.897 156.19 356.692 155.88 356.428 155.625C356.163 155.37 355.849 155.174 355.484 155.037C355.129 154.891 354.732 154.818 354.295 154.818C353.821 154.818 353.397 154.9 353.023 155.064C352.659 155.229 352.349 155.447 352.094 155.721C351.848 155.985 351.656 156.295 351.52 156.65C351.392 157.006 351.328 157.375 351.328 157.758ZM375.404 167H373.025V158.236C373.025 157.179 372.825 156.391 372.424 155.871C372.032 155.342 371.467 155.078 370.729 155.078C370.41 155.078 370.109 155.124 369.826 155.215C369.553 155.297 369.266 155.447 368.965 155.666C368.664 155.876 368.336 156.163 367.98 156.527C367.625 156.892 367.215 157.348 366.75 157.895V167H364.371V147.682H366.75V153.273L366.668 155.434C367.042 154.987 367.406 154.613 367.762 154.312C368.126 154.003 368.486 153.752 368.842 153.561C369.206 153.369 369.576 153.232 369.949 153.15C370.323 153.068 370.71 153.027 371.111 153.027C372.479 153.027 373.536 153.447 374.283 154.285C375.031 155.115 375.404 156.368 375.404 158.045V167ZM390.826 166.809C390.288 166.945 389.732 167.041 389.158 167.096C388.584 167.16 388.001 167.191 387.408 167.191C385.686 167.191 384.4 166.804 383.553 166.029C382.705 165.245 382.281 164.047 382.281 162.434V155.27H378.439V153.273H382.281V149.5L384.66 148.885V153.273H390.826V155.27H384.66V162.242C384.66 163.227 384.92 163.965 385.439 164.457C385.968 164.94 386.743 165.182 387.764 165.182C388.201 165.182 388.68 165.15 389.199 165.086C389.719 165.013 390.261 164.904 390.826 164.758V166.809ZM421.943 158.168H410.186V156.158H421.943V158.168ZM421.943 162.926H410.186V160.916H421.943V162.926ZM451.133 167V157.143C451.133 156.714 451.115 156.363 451.078 156.09C451.051 155.816 451.001 155.602 450.928 155.447C450.864 155.283 450.777 155.169 450.668 155.105C450.568 155.042 450.44 155.01 450.285 155.01C450.103 155.01 449.934 155.064 449.779 155.174C449.624 155.283 449.456 155.461 449.273 155.707C449.1 155.953 448.904 156.281 448.686 156.691C448.476 157.092 448.225 157.589 447.934 158.182V167H445.76V157.402C445.76 156.901 445.742 156.495 445.705 156.186C445.678 155.876 445.628 155.634 445.555 155.461C445.491 155.288 445.404 155.169 445.295 155.105C445.186 155.042 445.053 155.01 444.898 155.01C444.734 155.01 444.579 155.055 444.434 155.146C444.288 155.238 444.124 155.402 443.941 155.639C443.768 155.876 443.572 156.199 443.354 156.609C443.135 157.02 442.875 157.544 442.574 158.182V167H440.387V153.273H442.205L442.314 155.885C442.551 155.365 442.779 154.923 442.998 154.559C443.226 154.194 443.458 153.902 443.695 153.684C443.932 153.456 444.183 153.292 444.447 153.191C444.721 153.082 445.021 153.027 445.35 153.027C446.088 153.027 446.648 153.269 447.031 153.752C447.414 154.235 447.605 154.982 447.605 155.994C447.824 155.52 448.038 155.101 448.248 154.736C448.458 154.363 448.681 154.053 448.918 153.807C449.164 153.551 449.433 153.36 449.725 153.232C450.016 153.096 450.354 153.027 450.736 153.027C452.459 153.027 453.32 154.354 453.32 157.006V167H451.133ZM461.414 155.242H457.354V153.273H463.82V165.018H467.908V167H456.902V165.018H461.414V155.242ZM462.248 147.518C462.512 147.518 462.758 147.568 462.986 147.668C463.214 147.759 463.41 147.891 463.574 148.064C463.747 148.238 463.88 148.438 463.971 148.666C464.071 148.885 464.121 149.126 464.121 149.391C464.121 149.646 464.071 149.887 463.971 150.115C463.88 150.343 463.747 150.544 463.574 150.717C463.41 150.89 463.214 151.027 462.986 151.127C462.758 151.218 462.512 151.264 462.248 151.264C461.984 151.264 461.738 151.218 461.51 151.127C461.282 151.027 461.081 150.89 460.908 150.717C460.744 150.544 460.612 150.343 460.512 150.115C460.421 149.887 460.375 149.646 460.375 149.391C460.375 149.126 460.421 148.885 460.512 148.666C460.612 148.438 460.744 148.238 460.908 148.064C461.081 147.891 461.282 147.759 461.51 147.668C461.738 147.568 461.984 147.518 462.248 147.518ZM471.436 160.424C471.436 159.257 471.595 158.223 471.914 157.32C472.233 156.409 472.684 155.643 473.268 155.023C473.86 154.395 474.566 153.921 475.387 153.602C476.216 153.273 477.137 153.109 478.148 153.109C478.586 153.109 479.014 153.137 479.434 153.191C479.862 153.246 480.281 153.333 480.691 153.451V147.682H483.084V167H480.951L480.869 164.402C480.204 165.368 479.484 166.084 478.709 166.549C477.934 167.014 477.096 167.246 476.193 167.246C475.41 167.246 474.717 167.082 474.115 166.754C473.523 166.426 473.026 165.965 472.625 165.373C472.233 164.771 471.937 164.051 471.736 163.213C471.536 162.374 471.436 161.445 471.436 160.424ZM473.869 160.273C473.869 161.932 474.111 163.172 474.594 163.992C475.086 164.803 475.779 165.209 476.672 165.209C477.273 165.209 477.907 164.94 478.572 164.402C479.247 163.865 479.953 163.067 480.691 162.01V155.639C480.299 155.456 479.867 155.32 479.393 155.229C478.919 155.128 478.449 155.078 477.984 155.078C476.69 155.078 475.678 155.497 474.949 156.336C474.229 157.174 473.869 158.487 473.869 160.273ZM512.52 160.67H504.344V158.428H512.52V160.67ZM545.154 167H533.93V164.785H538.523V151.742L534.244 154.066L533.369 152.043L539.057 149.049H541.162V164.785H545.154V167Z" fill="black"/>
<path d="M294.707 160.707C295.098 160.317 295.098 159.683 294.707 159.293L288.343 152.929C287.953 152.538 287.319 152.538 286.929 152.929C286.538 153.319 286.538 153.953 286.929 154.343L292.586 160L286.929 165.657C286.538 166.047 286.538 166.681 286.929 167.071C287.319 167.462 287.953 167.462 288.343 167.071L294.707 160.707ZM254 161H294V159H254V161Z" fill="black"/>
<path d="M41.8574 83H29.8311V80.627H34.7529V66.6523L30.168 69.1426L29.2305 66.9746L35.3242 63.7666H37.5801V80.627H41.8574V83Z" fill="black"/>
<path d="M103.019 83H90.4062V80.7148L95.3574 75.793C96.168 74.9922 96.8271 74.2988 97.335 73.7129C97.8428 73.127 98.2383 72.5947 98.5215 72.1162C98.8047 71.6279 98.9951 71.1689 99.0928 70.7393C99.1904 70.3096 99.2393 69.8457 99.2393 69.3477C99.2393 68.8789 99.1758 68.4346 99.0488 68.0146C98.9219 67.585 98.7266 67.209 98.4629 66.8867C98.1992 66.5645 97.8574 66.3105 97.4375 66.125C97.0176 65.9395 96.5146 65.8467 95.9287 65.8467C95.1182 65.8467 94.3809 66.0273 93.7168 66.3887C93.0527 66.75 92.4424 67.2188 91.8857 67.7949L90.4795 66.1104C91.2021 65.3486 92.0322 64.7383 92.9697 64.2793C93.917 63.8203 95.0156 63.5908 96.2656 63.5908C97.1152 63.5908 97.8867 63.7178 98.5801 63.9717C99.2832 64.2256 99.8887 64.5918 100.396 65.0703C100.904 65.5488 101.295 66.1348 101.568 66.8281C101.852 67.5215 101.993 68.3027 101.993 69.1719C101.993 69.9043 101.896 70.583 101.7 71.208C101.505 71.833 101.207 72.458 100.807 73.083C100.416 73.6982 99.918 74.3379 99.3125 75.002C98.7168 75.666 98.0088 76.3936 97.1885 77.1846L93.7168 80.5684H103.019V83Z" fill="black"/>
<path d="M163.652 77.1846C163.652 78.0244 163.481 78.8154 163.14 79.5576C162.798 80.29 162.285 80.9346 161.602 81.4912C160.918 82.0381 160.059 82.4727 159.023 82.7949C157.988 83.1074 156.782 83.2637 155.405 83.2637C154.644 83.2637 153.96 83.2393 153.354 83.1904C152.749 83.1416 152.183 83.0781 151.655 83V80.7148C152.261 80.8223 152.9 80.9053 153.574 80.9639C154.248 81.0225 154.937 81.0518 155.64 81.0518C156.597 81.0518 157.412 80.9688 158.086 80.8027C158.77 80.627 159.326 80.3779 159.756 80.0557C160.186 79.7334 160.498 79.3428 160.693 78.8838C160.889 78.4248 160.986 77.9072 160.986 77.3311C160.986 76.8037 160.869 76.3447 160.635 75.9541C160.4 75.5635 160.068 75.2363 159.639 74.9727C159.219 74.709 158.711 74.5137 158.115 74.3867C157.529 74.25 156.885 74.1816 156.182 74.1816H153.999V72.0869H156.211C156.787 72.0869 157.31 72.0137 157.778 71.8672C158.257 71.7109 158.662 71.4912 158.994 71.208C159.336 70.9248 159.595 70.5781 159.771 70.168C159.956 69.748 160.049 69.2744 160.049 68.7471C160.049 67.7217 159.736 66.9746 159.111 66.5059C158.486 66.0371 157.568 65.8027 156.357 65.8027C155.713 65.8027 155.049 65.8662 154.365 65.9932C153.682 66.1201 152.949 66.3105 152.168 66.5645V64.3379C152.5 64.2207 152.852 64.1182 153.223 64.0303C153.604 63.9326 153.979 63.8545 154.351 63.7959C154.731 63.7275 155.107 63.6787 155.479 63.6494C155.85 63.6104 156.206 63.5908 156.548 63.5908C157.563 63.5908 158.457 63.7031 159.229 63.9277C160 64.1426 160.645 64.4551 161.162 64.8652C161.68 65.2754 162.07 65.7734 162.334 66.3594C162.598 66.9453 162.729 67.6045 162.729 68.3369C162.729 69.4307 162.446 70.3486 161.88 71.0908C161.323 71.833 160.557 72.4238 159.58 72.8633C160.078 72.9414 160.566 73.0977 161.045 73.332C161.533 73.5664 161.968 73.8691 162.349 74.2402C162.739 74.6016 163.052 75.0312 163.286 75.5293C163.53 76.0273 163.652 76.5791 163.652 77.1846Z" fill="black"/>
<path d="M225.971 78.7666H222.704V83H220.097V78.7666H210.883V76.5254L219.042 63.8545H222.704V76.5254H225.971V78.7666ZM220.097 66.3154L213.432 76.5254H220.097V66.3154Z" fill="black"/>
<path d="M286.971 78.7666H283.704V83H281.097V78.7666H271.883V76.5254L280.042 63.8545H283.704V76.5254H286.971V78.7666ZM281.097 66.3154L274.432 76.5254H281.097V66.3154Z" fill="black"/>
<path d="M347.971 78.7666H344.704V83H342.097V78.7666H332.883V76.5254L341.042 63.8545H344.704V76.5254H347.971V78.7666ZM342.097 66.3154L335.432 76.5254H342.097V66.3154Z" fill="black"/>
<path d="M407.535 76.877C407.535 77.8242 407.33 78.6885 406.92 79.4697C406.51 80.251 405.943 80.9248 405.221 81.4912C404.508 82.0479 403.663 82.4824 402.687 82.7949C401.71 83.1074 400.655 83.2637 399.522 83.2637C399.239 83.2637 398.932 83.2539 398.6 83.2344C398.277 83.2246 397.955 83.2051 397.633 83.1758C397.311 83.1562 396.993 83.1318 396.681 83.1025C396.378 83.0732 396.104 83.0391 395.86 83V80.6855C396.388 80.8125 396.988 80.9053 397.662 80.9639C398.346 81.0225 399.034 81.0518 399.728 81.0518C400.509 81.0518 401.212 80.959 401.837 80.7734C402.462 80.5879 402.994 80.3242 403.434 79.9824C403.873 79.6309 404.21 79.2109 404.444 78.7227C404.679 78.2246 404.796 77.668 404.796 77.0527C404.796 75.8613 404.366 74.9971 403.507 74.46C402.657 73.9131 401.432 73.6396 399.83 73.6396H396.197V63.8545H406.51V66.0811H398.6V71.457H400.27C401.188 71.457 402.081 71.54 402.95 71.7061C403.819 71.8721 404.591 72.165 405.265 72.585C405.948 72.9951 406.495 73.5518 406.905 74.2549C407.325 74.9482 407.535 75.8223 407.535 76.877Z" fill="black"/>
<path d="M7.27539 89.0059H0.0537109V61.7891H7.27539V63.8398H2.48535V86.9551H7.27539V89.0059Z" fill="black"/>
<path d="M849.44 89.0059H842.219V86.9551H846.979V63.8398H842.219V61.7891H849.44V89.0059Z" fill="black"/>
<path opacity="0.5" d="M40.6025 109.985C40.6025 111.06 40.4951 112.041 40.2803 112.929C40.0654 113.81 39.7396 114.569 39.3027 115.206C38.8659 115.836 38.3216 116.327 37.6699 116.678C37.0254 117.021 36.2663 117.193 35.3926 117.193C34.6406 117.193 33.9567 117.054 33.3408 116.774C32.7249 116.488 32.1986 116.051 31.7617 115.464C31.3249 114.877 30.9883 114.128 30.752 113.219C30.5156 112.309 30.3975 111.231 30.3975 109.985C30.3975 108.911 30.5049 107.93 30.7197 107.042C30.9417 106.154 31.2676 105.395 31.6973 104.765C32.1341 104.127 32.6784 103.637 33.3301 103.293C33.9818 102.942 34.7409 102.767 35.6074 102.767C36.3594 102.767 37.0433 102.91 37.6592 103.196C38.2751 103.476 38.8014 103.912 39.2383 104.507C39.6751 105.094 40.0117 105.842 40.248 106.752C40.4844 107.661 40.6025 108.739 40.6025 109.985ZM38.7119 110.05C38.7119 109.806 38.7012 109.566 38.6797 109.33C38.6654 109.087 38.6475 108.85 38.626 108.621L32.6855 113.036C32.793 113.409 32.929 113.752 33.0938 114.067C33.2585 114.382 33.4554 114.655 33.6846 114.884C33.9209 115.106 34.1859 115.281 34.4795 115.41C34.7803 115.532 35.1204 115.593 35.5 115.593C35.987 115.593 36.4274 115.475 36.8213 115.238C37.2223 115.002 37.5625 114.651 37.8418 114.186C38.1211 113.72 38.3359 113.144 38.4863 112.456C38.6367 111.761 38.7119 110.959 38.7119 110.05ZM32.2881 109.921C32.2881 110.143 32.2881 110.365 32.2881 110.587C32.2952 110.809 32.3096 111.024 32.3311 111.231L38.2715 106.838C38.1641 106.473 38.028 106.14 37.8633 105.839C37.6986 105.538 37.5016 105.28 37.2725 105.065C37.0433 104.843 36.7819 104.672 36.4883 104.55C36.1947 104.428 35.8652 104.367 35.5 104.367C35.013 104.367 34.569 104.485 34.168 104.722C33.7741 104.958 33.4375 105.312 33.1582 105.785C32.8789 106.251 32.6641 106.831 32.5137 107.525C32.3633 108.213 32.2881 109.011 32.2881 109.921Z" fill="black"/>
<path opacity="0.5" d="M102.162 117H93.3428V115.26H96.9521V105.012L93.5898 106.838L92.9023 105.248L97.3711 102.896H99.0254V115.26H102.162V117Z" fill="black"/>
<path opacity="0.5" d="M162.28 117H153.031V115.324L156.662 111.715C157.257 111.128 157.74 110.619 158.112 110.189C158.485 109.76 158.775 109.369 158.982 109.019C159.19 108.66 159.33 108.324 159.401 108.009C159.473 107.694 159.509 107.354 159.509 106.988C159.509 106.645 159.462 106.319 159.369 106.011C159.276 105.696 159.133 105.42 158.939 105.184C158.746 104.947 158.495 104.761 158.188 104.625C157.88 104.489 157.511 104.421 157.081 104.421C156.487 104.421 155.946 104.553 155.459 104.818C154.972 105.083 154.524 105.427 154.116 105.85L153.085 104.614C153.615 104.056 154.224 103.608 154.911 103.271C155.606 102.935 156.411 102.767 157.328 102.767C157.951 102.767 158.517 102.86 159.025 103.046C159.541 103.232 159.985 103.501 160.357 103.852C160.73 104.202 161.016 104.632 161.217 105.141C161.424 105.649 161.528 106.222 161.528 106.859C161.528 107.396 161.457 107.894 161.313 108.353C161.17 108.811 160.952 109.269 160.658 109.728C160.372 110.179 160.007 110.648 159.562 111.135C159.126 111.622 158.606 112.155 158.005 112.735L155.459 115.217H162.28V117Z" fill="black"/>
<path opacity="0.5" d="M223.012 112.735C223.012 113.351 222.886 113.931 222.636 114.476C222.385 115.013 222.009 115.485 221.508 115.894C221.007 116.295 220.376 116.613 219.617 116.85C218.858 117.079 217.974 117.193 216.964 117.193C216.405 117.193 215.904 117.175 215.46 117.14C215.016 117.104 214.601 117.057 214.214 117V115.324C214.658 115.403 215.127 115.464 215.621 115.507C216.115 115.55 216.62 115.571 217.136 115.571C217.838 115.571 218.436 115.51 218.93 115.389C219.431 115.26 219.839 115.077 220.154 114.841C220.469 114.604 220.699 114.318 220.842 113.981C220.985 113.645 221.057 113.265 221.057 112.843C221.057 112.456 220.971 112.119 220.799 111.833C220.627 111.547 220.383 111.307 220.068 111.113C219.76 110.92 219.388 110.777 218.951 110.684C218.521 110.583 218.049 110.533 217.533 110.533H215.933V108.997H217.555C217.977 108.997 218.36 108.943 218.704 108.836C219.055 108.721 219.352 108.56 219.596 108.353C219.846 108.145 220.036 107.891 220.165 107.59C220.301 107.282 220.369 106.935 220.369 106.548C220.369 105.796 220.14 105.248 219.682 104.904C219.223 104.561 218.55 104.389 217.662 104.389C217.189 104.389 216.702 104.435 216.201 104.528C215.7 104.621 215.163 104.761 214.59 104.947V103.314C214.833 103.229 215.091 103.153 215.363 103.089C215.643 103.017 215.918 102.96 216.19 102.917C216.47 102.867 216.745 102.831 217.018 102.81C217.29 102.781 217.551 102.767 217.802 102.767C218.547 102.767 219.202 102.849 219.768 103.014C220.333 103.171 220.806 103.4 221.186 103.701C221.565 104.002 221.852 104.367 222.045 104.797C222.238 105.227 222.335 105.71 222.335 106.247C222.335 107.049 222.127 107.722 221.712 108.267C221.304 108.811 220.742 109.244 220.025 109.566C220.391 109.624 220.749 109.738 221.1 109.91C221.458 110.082 221.776 110.304 222.056 110.576C222.342 110.841 222.571 111.156 222.743 111.521C222.922 111.887 223.012 112.291 223.012 112.735Z" fill="black"/>
<path opacity="0.5" d="M284.979 113.896H282.583V117H280.671V113.896H273.914V112.252L279.897 102.96H282.583V112.252H284.979V113.896ZM280.671 104.765L275.783 112.252H280.671V104.765Z" fill="black"/>
<path opacity="0.5" d="M344.926 112.51C344.926 113.204 344.775 113.838 344.475 114.411C344.174 114.984 343.758 115.478 343.229 115.894C342.706 116.302 342.086 116.62 341.37 116.85C340.654 117.079 339.881 117.193 339.05 117.193C338.842 117.193 338.617 117.186 338.373 117.172C338.137 117.165 337.9 117.15 337.664 117.129C337.428 117.115 337.195 117.097 336.966 117.075C336.744 117.054 336.543 117.029 336.364 117V115.303C336.751 115.396 337.191 115.464 337.686 115.507C338.187 115.55 338.692 115.571 339.2 115.571C339.773 115.571 340.289 115.503 340.747 115.367C341.205 115.231 341.596 115.038 341.918 114.787C342.24 114.529 342.487 114.221 342.659 113.863C342.831 113.498 342.917 113.09 342.917 112.639C342.917 111.765 342.602 111.131 341.972 110.737C341.349 110.336 340.45 110.136 339.275 110.136H336.611V102.96H344.174V104.593H338.373V108.535H339.598C340.271 108.535 340.926 108.596 341.563 108.718C342.201 108.84 342.767 109.054 343.261 109.362C343.762 109.663 344.163 110.071 344.464 110.587C344.772 111.095 344.926 111.736 344.926 112.51Z" fill="black"/>
<path opacity="0.5" d="M406.452 112.553C406.452 113.197 406.334 113.802 406.098 114.368C405.868 114.934 405.539 115.428 405.109 115.851C404.68 116.266 404.16 116.595 403.552 116.839C402.95 117.075 402.281 117.193 401.543 117.193C400.77 117.193 400.086 117.072 399.491 116.828C398.897 116.577 398.399 116.198 397.998 115.689C397.597 115.174 397.293 114.526 397.085 113.745C396.877 112.965 396.773 112.041 396.773 110.974C396.773 110.257 396.82 109.563 396.913 108.89C397.006 108.216 397.16 107.583 397.375 106.988C397.59 106.394 397.876 105.85 398.234 105.355C398.592 104.861 399.036 104.439 399.566 104.088C400.104 103.73 400.734 103.454 401.457 103.261C402.18 103.06 403.018 102.96 403.971 102.96H405.356V104.593H403.853C403.015 104.593 402.288 104.693 401.672 104.894C401.056 105.094 400.54 105.377 400.125 105.742C399.71 106.107 399.391 106.548 399.169 107.063C398.947 107.579 398.807 108.156 398.75 108.793L398.707 109.233C399.158 108.968 399.677 108.757 400.265 108.6C400.859 108.435 401.5 108.353 402.188 108.353C402.896 108.353 403.516 108.456 404.046 108.664C404.583 108.872 405.027 109.162 405.378 109.534C405.736 109.899 406.005 110.34 406.184 110.855C406.363 111.371 406.452 111.937 406.452 112.553ZM404.497 112.671C404.497 112.241 404.443 111.854 404.336 111.511C404.236 111.16 404.075 110.866 403.853 110.63C403.631 110.386 403.348 110.2 403.004 110.071C402.667 109.935 402.263 109.867 401.79 109.867C401.518 109.867 401.242 109.892 400.963 109.942C400.684 109.993 400.408 110.064 400.136 110.157C399.871 110.243 399.617 110.343 399.373 110.458C399.13 110.573 398.908 110.694 398.707 110.823C398.707 111.747 398.771 112.521 398.9 113.144C399.029 113.759 399.219 114.254 399.47 114.626C399.728 114.998 400.043 115.263 400.415 115.421C400.787 115.578 401.217 115.657 401.704 115.657C402.112 115.657 402.485 115.593 402.821 115.464C403.165 115.328 403.459 115.131 403.702 114.873C403.953 114.615 404.146 114.304 404.282 113.938C404.425 113.566 404.497 113.144 404.497 112.671Z" fill="black"/>
<path opacity="0.5" d="M475.205 104.7L469.318 117H467.181L473.293 104.7H465.709V102.96H475.205V104.7Z" fill="black"/>
<path opacity="0.5" d="M544.28 113.477C544.28 114.071 544.159 114.601 543.915 115.066C543.672 115.525 543.331 115.911 542.895 116.227C542.458 116.542 541.942 116.782 541.348 116.946C540.753 117.111 540.109 117.193 539.414 117.193C538.648 117.193 537.971 117.107 537.384 116.936C536.804 116.764 536.317 116.524 535.923 116.216C535.529 115.908 535.232 115.543 535.031 115.12C534.831 114.698 534.73 114.232 534.73 113.724C534.73 112.864 534.97 112.123 535.45 111.5C535.93 110.877 536.671 110.311 537.674 109.803C536.757 109.337 536.088 108.822 535.665 108.256C535.243 107.683 535.031 107.028 535.031 106.29C535.031 105.839 535.124 105.402 535.311 104.979C535.497 104.557 535.776 104.181 536.148 103.852C536.528 103.522 537.001 103.261 537.566 103.067C538.132 102.867 538.798 102.767 539.564 102.767C540.288 102.767 540.922 102.845 541.466 103.003C542.017 103.153 542.479 103.372 542.852 103.658C543.224 103.945 543.503 104.292 543.689 104.7C543.876 105.108 543.969 105.563 543.969 106.064C543.969 106.881 543.74 107.576 543.281 108.148C542.83 108.721 542.186 109.223 541.348 109.652C541.763 109.86 542.15 110.089 542.508 110.34C542.866 110.59 543.177 110.87 543.442 111.178C543.707 111.486 543.911 111.829 544.055 112.209C544.205 112.589 544.28 113.011 544.28 113.477ZM542.057 106.215C542.057 105.577 541.831 105.105 541.38 104.797C540.936 104.482 540.309 104.324 539.5 104.324C538.698 104.324 538.071 104.478 537.62 104.786C537.176 105.094 536.954 105.556 536.954 106.172C536.954 106.451 537.008 106.709 537.115 106.945C537.223 107.182 537.387 107.404 537.609 107.611C537.839 107.819 538.121 108.023 538.458 108.224C538.795 108.424 539.196 108.628 539.661 108.836C540.47 108.456 541.072 108.062 541.466 107.654C541.86 107.239 542.057 106.759 542.057 106.215ZM542.25 113.616C542.25 113.351 542.207 113.093 542.121 112.843C542.035 112.592 541.881 112.345 541.659 112.102C541.437 111.858 541.14 111.615 540.768 111.371C540.395 111.128 539.923 110.877 539.35 110.619C538.863 110.855 538.451 111.092 538.114 111.328C537.785 111.557 537.516 111.794 537.309 112.037C537.108 112.273 536.965 112.521 536.879 112.778C536.793 113.036 536.75 113.308 536.75 113.595C536.75 113.917 536.818 114.203 536.954 114.454C537.097 114.698 537.291 114.905 537.534 115.077C537.778 115.249 538.068 115.378 538.404 115.464C538.741 115.55 539.106 115.593 539.5 115.593C539.88 115.593 540.238 115.553 540.574 115.475C540.911 115.396 541.201 115.278 541.444 115.12C541.695 114.955 541.892 114.751 542.035 114.508C542.178 114.257 542.25 113.96 542.25 113.616Z" fill="black"/>
<path opacity="0.5" d="M605.205 109.19C605.205 110.558 605.04 111.736 604.711 112.725C604.382 113.706 603.895 114.515 603.25 115.152C602.605 115.783 601.807 116.248 600.854 116.549C599.902 116.85 598.803 117 597.557 117H596.386V115.367H597.686C598.609 115.367 599.408 115.274 600.081 115.088C600.754 114.902 601.313 114.63 601.757 114.271C602.208 113.906 602.552 113.466 602.788 112.95C603.024 112.427 603.171 111.833 603.229 111.167L603.271 110.727C602.82 110.992 602.301 111.206 601.714 111.371C601.127 111.529 600.489 111.607 599.802 111.607C599.093 111.607 598.47 111.504 597.933 111.296C597.396 111.088 596.948 110.798 596.59 110.426C596.239 110.053 595.974 109.613 595.795 109.104C595.616 108.589 595.526 108.03 595.526 107.429C595.526 106.777 595.645 106.168 595.881 105.603C596.117 105.037 596.447 104.546 596.869 104.131C597.299 103.708 597.811 103.375 598.405 103.132C599 102.888 599.655 102.767 600.371 102.767C601.066 102.767 601.707 102.881 602.294 103.11C602.888 103.34 603.4 103.712 603.83 104.228C604.26 104.736 604.596 105.398 604.84 106.215C605.083 107.031 605.205 108.023 605.205 109.19ZM600.285 104.303C599.884 104.303 599.512 104.371 599.168 104.507C598.831 104.636 598.538 104.829 598.287 105.087C598.044 105.338 597.85 105.649 597.707 106.021C597.564 106.394 597.492 106.82 597.492 107.3C597.492 107.737 597.542 108.127 597.643 108.471C597.75 108.814 597.911 109.108 598.126 109.352C598.348 109.588 598.631 109.771 598.975 109.899C599.318 110.028 599.727 110.093 600.199 110.093C600.464 110.093 600.736 110.068 601.016 110.018C601.302 109.967 601.578 109.899 601.843 109.813C602.115 109.728 602.373 109.627 602.616 109.513C602.86 109.398 603.078 109.276 603.271 109.147C603.271 108.224 603.203 107.454 603.067 106.838C602.931 106.215 602.734 105.717 602.477 105.345C602.219 104.965 601.904 104.697 601.531 104.539C601.166 104.382 600.751 104.303 600.285 104.303Z" fill="black"/>
<path opacity="0.5" d="M660.114 117H651.295V115.26H654.904V105.012L651.542 106.838L650.854 105.248L655.323 102.896H656.978V115.26H660.114V117ZM672.65 109.985C672.65 111.06 672.543 112.041 672.328 112.929C672.113 113.81 671.787 114.569 671.351 115.206C670.914 115.836 670.369 116.327 669.718 116.678C669.073 117.021 668.314 117.193 667.44 117.193C666.688 117.193 666.005 117.054 665.389 116.774C664.773 116.488 664.246 116.051 663.81 115.464C663.373 114.877 663.036 114.128 662.8 113.219C662.563 112.309 662.445 111.231 662.445 109.985C662.445 108.911 662.553 107.93 662.768 107.042C662.99 106.154 663.315 105.395 663.745 104.765C664.182 104.127 664.726 103.637 665.378 103.293C666.03 102.942 666.789 102.767 667.655 102.767C668.407 102.767 669.091 102.91 669.707 103.196C670.323 103.476 670.849 103.912 671.286 104.507C671.723 105.094 672.06 105.842 672.296 106.752C672.532 107.661 672.65 108.739 672.65 109.985ZM670.76 110.05C670.76 109.806 670.749 109.566 670.728 109.33C670.713 109.087 670.695 108.85 670.674 108.621L664.733 113.036C664.841 113.409 664.977 113.752 665.142 114.067C665.306 114.382 665.503 114.655 665.732 114.884C665.969 115.106 666.234 115.281 666.527 115.41C666.828 115.532 667.168 115.593 667.548 115.593C668.035 115.593 668.475 115.475 668.869 115.238C669.27 115.002 669.61 114.651 669.89 114.186C670.169 113.72 670.384 113.144 670.534 112.456C670.685 111.761 670.76 110.959 670.76 110.05ZM664.336 109.921C664.336 110.143 664.336 110.365 664.336 110.587C664.343 110.809 664.357 111.024 664.379 111.231L670.319 106.838C670.212 106.473 670.076 106.14 669.911 105.839C669.746 105.538 669.549 105.28 669.32 105.065C669.091 104.843 668.83 104.672 668.536 104.55C668.243 104.428 667.913 104.367 667.548 104.367C667.061 104.367 666.617 104.485 666.216 104.722C665.822 104.958 665.485 105.312 665.206 105.785C664.927 106.251 664.712 106.831 664.562 107.525C664.411 108.213 664.336 109.011 664.336 109.921Z" fill="black"/>
<path opacity="0.5" d="M729.114 117H720.295V115.26H723.904V105.012L720.542 106.838L719.854 105.248L724.323 102.896H725.978V115.26H729.114V117ZM741.21 117H732.391V115.26H736V105.012L732.638 106.838L731.95 105.248L736.419 102.896H738.073V115.26H741.21V117Z" fill="black"/>
<path opacity="0.5" d="M806.114 117H797.295V115.26H800.904V105.012L797.542 106.838L796.854 105.248L801.323 102.896H802.978V115.26H806.114V117ZM818.328 117H809.079V115.324L812.71 111.715C813.304 111.128 813.788 110.619 814.16 110.189C814.533 109.76 814.823 109.369 815.03 109.019C815.238 108.66 815.378 108.324 815.449 108.009C815.521 107.694 815.557 107.354 815.557 106.988C815.557 106.645 815.51 106.319 815.417 106.011C815.324 105.696 815.181 105.42 814.987 105.184C814.794 104.947 814.543 104.761 814.235 104.625C813.927 104.489 813.559 104.421 813.129 104.421C812.535 104.421 811.994 104.553 811.507 104.818C811.02 105.083 810.572 105.427 810.164 105.85L809.133 104.614C809.663 104.056 810.271 103.608 810.959 103.271C811.654 102.935 812.459 102.767 813.376 102.767C813.999 102.767 814.565 102.86 815.073 103.046C815.589 103.232 816.033 103.501 816.405 103.852C816.778 104.202 817.064 104.632 817.265 105.141C817.472 105.649 817.576 106.222 817.576 106.859C817.576 107.396 817.505 107.894 817.361 108.353C817.218 108.811 817 109.269 816.706 109.728C816.42 110.179 816.054 110.648 815.61 111.135C815.174 111.622 814.654 112.155 814.053 112.735L811.507 115.217H818.328V117Z" fill="black"/>
<path d="M17.9102 9.59766H15.0098V8.20117H19.6289V20.584H22.5488V22H14.6875V20.584H17.9102V9.59766ZM33.8477 16.5801C33.8477 16.821 33.8444 17.0228 33.8379 17.1855C33.8314 17.3483 33.8216 17.5013 33.8086 17.6445H26.9238C26.9238 18.6471 27.2038 19.4186 27.7637 19.959C28.3236 20.4928 29.1309 20.7598 30.1855 20.7598C30.472 20.7598 30.7585 20.75 31.0449 20.7305C31.3314 20.7044 31.6081 20.6719 31.875 20.6328C32.1419 20.5938 32.3958 20.5514 32.6367 20.5059C32.8841 20.4538 33.112 20.3984 33.3203 20.3398V21.7363C32.8581 21.8665 32.334 21.9707 31.748 22.0488C31.1686 22.1335 30.5664 22.1758 29.9414 22.1758C29.1016 22.1758 28.3789 22.0618 27.7734 21.834C27.168 21.6061 26.6699 21.2773 26.2793 20.8477C25.8952 20.4115 25.6087 19.8809 25.4199 19.2559C25.2376 18.6243 25.1465 17.9115 25.1465 17.1172C25.1465 16.4271 25.2441 15.776 25.4395 15.1641C25.6413 14.5456 25.931 14.0052 26.3086 13.543C26.6927 13.0742 27.1615 12.7031 27.7148 12.4297C28.2682 12.1562 28.8965 12.0195 29.5996 12.0195C30.2832 12.0195 30.8887 12.127 31.416 12.3418C31.9434 12.5566 32.3861 12.8626 32.7441 13.2598C33.1087 13.6504 33.3822 14.1289 33.5645 14.6953C33.7533 15.2552 33.8477 15.8835 33.8477 16.5801ZM32.0801 16.3359C32.0996 15.8997 32.0573 15.5026 31.9531 15.1445C31.849 14.7799 31.6862 14.4674 31.4648 14.207C31.25 13.9466 30.9798 13.7448 30.6543 13.6016C30.3288 13.4518 29.9512 13.377 29.5215 13.377C29.1504 13.377 28.8118 13.4486 28.5059 13.5918C28.1999 13.735 27.9362 13.9368 27.7148 14.1973C27.4935 14.4577 27.3145 14.7702 27.1777 15.1348C27.041 15.4993 26.9564 15.8997 26.9238 16.3359H32.0801ZM45.2637 9.7832C44.3717 9.5944 43.6035 9.5 42.959 9.5C41.429 9.5 40.6641 10.3008 40.6641 11.9023V13.6211H44.9609V15.0371H40.6641V22H38.9355V15.0371H35.7812V13.6211H38.9355V12C38.9355 9.38932 40.2962 8.08398 43.0176 8.08398C43.6947 8.08398 44.4434 8.16211 45.2637 8.31836V9.7832ZM55.459 21.8633C55.0749 21.9609 54.6777 22.0293 54.2676 22.0684C53.8574 22.1139 53.4408 22.1367 53.0176 22.1367C51.7871 22.1367 50.8691 21.86 50.2637 21.3066C49.6582 20.7467 49.3555 19.8906 49.3555 18.7383V13.6211H46.6113V12.1953H49.3555V9.5L51.0547 9.06055V12.1953H55.459V13.6211H51.0547V18.6016C51.0547 19.3047 51.2402 19.832 51.6113 20.1836C51.9889 20.5286 52.5423 20.7012 53.2715 20.7012C53.584 20.7012 53.9258 20.6784 54.2969 20.6328C54.668 20.5807 55.0553 20.5026 55.459 20.3984V21.8633Z" fill="#666666"/>
<path d="M781.973 11.1953H783.525L783.574 13.002C784.154 12.3053 784.723 11.8008 785.283 11.4883C785.85 11.1758 786.419 11.0195 786.992 11.0195C788.008 11.0195 788.776 11.3483 789.297 12.0059C789.824 12.6634 790.068 13.64 790.029 14.9355H788.311C788.33 14.0762 788.203 13.4544 787.93 13.0703C787.663 12.6797 787.269 12.4844 786.748 12.4844C786.52 12.4844 786.289 12.5267 786.055 12.6113C785.827 12.6895 785.589 12.8197 785.342 13.002C785.101 13.1777 784.844 13.4056 784.57 13.6855C784.297 13.9655 784.004 14.304 783.691 14.7012V21H781.973V11.1953ZM795.908 12.6016H793.008V11.1953H797.627V19.584H800.547V21H792.686V19.584H795.908V12.6016ZM796.504 7.08398C796.693 7.08398 796.868 7.11979 797.031 7.19141C797.194 7.25651 797.334 7.35091 797.451 7.47461C797.575 7.59831 797.669 7.74154 797.734 7.9043C797.806 8.06055 797.842 8.23307 797.842 8.42188C797.842 8.60417 797.806 8.77669 797.734 8.93945C797.669 9.10221 797.575 9.24544 797.451 9.36914C797.334 9.49284 797.194 9.59049 797.031 9.66211C796.868 9.72721 796.693 9.75977 796.504 9.75977C796.315 9.75977 796.139 9.72721 795.977 9.66211C795.814 9.59049 795.671 9.49284 795.547 9.36914C795.43 9.24544 795.335 9.10221 795.264 8.93945C795.199 8.77669 795.166 8.60417 795.166 8.42188C795.166 8.23307 795.199 8.06055 795.264 7.9043C795.335 7.74154 795.43 7.59831 795.547 7.47461C795.671 7.35091 795.814 7.25651 795.977 7.19141C796.139 7.11979 796.315 7.08398 796.504 7.08398ZM810.625 12.582C810.807 12.8099 810.947 13.0768 811.045 13.3828C811.149 13.6823 811.201 14.0078 811.201 14.3594C811.201 14.8672 811.107 15.3327 810.918 15.7559C810.736 16.1725 810.475 16.5306 810.137 16.8301C809.798 17.1296 809.391 17.3639 808.916 17.5332C808.447 17.696 807.93 17.7773 807.363 17.7773C806.953 17.7773 806.569 17.735 806.211 17.6504C805.853 17.5592 805.57 17.4486 805.361 17.3184C805.238 17.5007 805.133 17.6732 805.049 17.8359C804.964 17.9987 804.922 18.181 804.922 18.3828C804.922 18.6302 805.039 18.8353 805.273 18.998C805.514 19.1608 805.83 19.2487 806.221 19.2617L808.799 19.3594C809.287 19.3724 809.736 19.4342 810.146 19.5449C810.563 19.6556 810.918 19.8151 811.211 20.0234C811.51 20.2318 811.742 20.4889 811.904 20.7949C812.074 21.1009 812.158 21.4557 812.158 21.8594C812.158 22.2956 812.064 22.709 811.875 23.0996C811.686 23.4902 811.393 23.832 810.996 24.125C810.605 24.4245 810.107 24.6621 809.502 24.8379C808.896 25.0137 808.177 25.1016 807.344 25.1016C806.549 25.1016 805.872 25.0365 805.312 24.9062C804.759 24.7826 804.303 24.6068 803.945 24.3789C803.587 24.1576 803.327 23.8906 803.164 23.5781C803.001 23.2721 802.92 22.9336 802.92 22.5625C802.92 22.0872 803.031 21.6706 803.252 21.3125C803.473 20.9544 803.815 20.6094 804.277 20.2773C804.108 20.1992 803.962 20.1016 803.838 19.9844C803.714 19.8672 803.613 19.7402 803.535 19.6035C803.457 19.4603 803.398 19.3105 803.359 19.1543C803.32 18.998 803.301 18.8451 803.301 18.6953C803.301 18.2721 803.398 17.8848 803.594 17.5332C803.796 17.1816 804.033 16.8496 804.307 16.5371C804.183 16.3874 804.072 16.2409 803.975 16.0977C803.883 15.9544 803.802 15.8014 803.73 15.6387C803.665 15.4694 803.613 15.2904 803.574 15.1016C803.542 14.9062 803.525 14.6849 803.525 14.4375C803.525 13.9297 803.617 13.4674 803.799 13.0508C803.988 12.6276 804.248 12.2663 804.58 11.9668C804.919 11.6673 805.322 11.4362 805.791 11.2734C806.266 11.1042 806.79 11.0195 807.363 11.0195C807.604 11.0195 807.835 11.0358 808.057 11.0684C808.278 11.1009 808.473 11.1432 808.643 11.1953H812.197V12.582H810.625ZM804.727 22.416C804.727 22.8783 804.967 23.2135 805.449 23.4219C805.931 23.6367 806.602 23.7441 807.461 23.7441C808.001 23.7441 808.454 23.6953 808.818 23.5977C809.189 23.5 809.486 23.3698 809.707 23.207C809.935 23.0508 810.098 22.8685 810.195 22.6602C810.293 22.4583 810.342 22.25 810.342 22.0352C810.342 21.638 810.179 21.3451 809.854 21.1562C809.528 20.9674 809.03 20.8568 808.359 20.8242L805.801 20.7363C805.586 20.8796 805.407 21.0195 805.264 21.1562C805.127 21.293 805.02 21.4297 804.941 21.5664C804.863 21.7096 804.808 21.8496 804.775 21.9863C804.743 22.1296 804.727 22.2728 804.727 22.416ZM805.244 14.3984C805.244 14.7109 805.296 14.9974 805.4 15.2578C805.505 15.5182 805.651 15.7396 805.84 15.9219C806.029 16.1042 806.25 16.2474 806.504 16.3516C806.764 16.4492 807.051 16.498 807.363 16.498C807.702 16.498 808.001 16.4427 808.262 16.332C808.529 16.2148 808.75 16.0586 808.926 15.8633C809.108 15.668 809.245 15.4434 809.336 15.1895C809.434 14.9355 809.482 14.6719 809.482 14.3984C809.482 14.0859 809.43 13.7995 809.326 13.5391C809.222 13.2786 809.076 13.0573 808.887 12.875C808.698 12.6927 808.473 12.5527 808.213 12.4551C807.959 12.3509 807.676 12.2988 807.363 12.2988C807.025 12.2988 806.722 12.3574 806.455 12.4746C806.195 12.5918 805.973 12.748 805.791 12.9434C805.615 13.1322 805.479 13.3535 805.381 13.6074C805.29 13.8613 805.244 14.125 805.244 14.3984ZM822.441 21H820.742V14.7402C820.742 13.985 820.599 13.4219 820.312 13.0508C820.033 12.6732 819.629 12.4844 819.102 12.4844C818.874 12.4844 818.659 12.5169 818.457 12.582C818.262 12.6406 818.057 12.748 817.842 12.9043C817.627 13.054 817.393 13.2591 817.139 13.5195C816.885 13.7799 816.592 14.1055 816.26 14.4961V21H814.561V7.20117H816.26V11.1953L816.201 12.7383C816.468 12.4193 816.729 12.1523 816.982 11.9375C817.243 11.7161 817.5 11.5371 817.754 11.4004C818.014 11.2637 818.278 11.166 818.545 11.1074C818.812 11.0488 819.089 11.0195 819.375 11.0195C820.352 11.0195 821.107 11.319 821.641 11.918C822.174 12.5104 822.441 13.4056 822.441 14.6035V21ZM833.457 20.8633C833.073 20.9609 832.676 21.0293 832.266 21.0684C831.855 21.1139 831.439 21.1367 831.016 21.1367C829.785 21.1367 828.867 20.86 828.262 20.3066C827.656 19.7467 827.354 18.8906 827.354 17.7383V12.6211H824.609V11.1953H827.354V8.5L829.053 8.06055V11.1953H833.457V12.6211H829.053V17.6016C829.053 18.3047 829.238 18.832 829.609 19.1836C829.987 19.5286 830.54 19.7012 831.27 19.7012C831.582 19.7012 831.924 19.6784 832.295 19.6328C832.666 19.5807 833.053 19.5026 833.457 19.3984V20.8633Z" fill="#666666"/>
<path d="M34.2929 57.7071C34.6834 58.0976 35.3166 58.0976 35.7071 57.7071L42.0711 51.3431C42.4616 50.9526 42.4616 50.3195 42.0711 49.9289C41.6805 49.5384 41.0474 49.5384 40.6569 49.9289L35 55.5858L29.3431 49.9289C28.9526 49.5384 28.3195 49.5384 27.9289 49.9289C27.5384 50.3195 27.5384 50.9526 27.9289 51.3431L34.2929 57.7071ZM34 30L34 57L36 57L36 30L34 30Z" fill="#666666"/>
<rect x="1" y="1" width="69" height="28" rx="6" stroke="#666666" stroke-width="2"/>
<path d="M806.293 57.7071C806.683 58.0976 807.317 58.0976 807.707 57.7071L814.071 51.3431C814.462 50.9526 814.462 50.3195 814.071 49.9289C813.681 49.5384 813.047 49.5384 812.657 49.9289L807 55.5858L801.343 49.9289C800.953 49.5384 800.319 49.5384 799.929 49.9289C799.538 50.3195 799.538 50.9526 799.929 51.3431L806.293 57.7071ZM806 30L806 57L808 57L808 30L806 30Z" fill="#666666"/>
<rect x="773" y="1" width="69" height="28" rx="6" stroke="#666666" stroke-width="2"/>
<path d="M477.253 76.9355C477.253 77.8145 477.092 78.6396 476.77 79.4111C476.457 80.1826 476.008 80.8564 475.422 81.4326C474.836 81.999 474.128 82.4482 473.298 82.7803C472.478 83.1025 471.564 83.2637 470.559 83.2637C469.504 83.2637 468.571 83.0977 467.761 82.7656C466.95 82.4238 466.271 81.9062 465.725 81.2129C465.178 80.5098 464.763 79.626 464.479 78.5615C464.196 77.4971 464.055 76.2373 464.055 74.7822C464.055 73.8057 464.118 72.8584 464.245 71.9404C464.372 71.0225 464.582 70.1582 464.875 69.3477C465.168 68.5371 465.559 67.7949 466.047 67.1211C466.535 66.4473 467.141 65.8711 467.863 65.3926C468.596 64.9043 469.455 64.5283 470.441 64.2646C471.428 63.9912 472.57 63.8545 473.869 63.8545H475.759V66.0811H473.708C472.565 66.0811 471.574 66.2178 470.734 66.4912C469.895 66.7646 469.191 67.1504 468.625 67.6484C468.059 68.1465 467.624 68.7471 467.321 69.4502C467.019 70.1533 466.828 70.9395 466.75 71.8086L466.691 72.4092C467.307 72.0479 468.015 71.7598 468.815 71.5449C469.626 71.3203 470.5 71.208 471.438 71.208C472.404 71.208 473.249 71.3496 473.972 71.6328C474.704 71.916 475.31 72.3115 475.788 72.8193C476.276 73.3174 476.643 73.918 476.887 74.6211C477.131 75.3242 477.253 76.0957 477.253 76.9355ZM474.587 77.0967C474.587 76.5107 474.514 75.9834 474.367 75.5146C474.23 75.0361 474.011 74.6357 473.708 74.3135C473.405 73.9814 473.02 73.7275 472.551 73.5518C472.092 73.3662 471.54 73.2734 470.896 73.2734C470.524 73.2734 470.148 73.3076 469.768 73.376C469.387 73.4443 469.011 73.542 468.64 73.6689C468.278 73.7861 467.932 73.9229 467.6 74.0791C467.268 74.2354 466.965 74.4014 466.691 74.5771C466.691 75.8369 466.779 76.8916 466.955 77.7412C467.131 78.5811 467.39 79.2549 467.731 79.7627C468.083 80.2705 468.513 80.6318 469.021 80.8467C469.528 81.0615 470.114 81.1689 470.778 81.1689C471.335 81.1689 471.843 81.0811 472.302 80.9053C472.771 80.7197 473.171 80.4512 473.503 80.0996C473.845 79.748 474.108 79.3232 474.294 78.8252C474.489 78.3174 474.587 77.7412 474.587 77.0967Z" fill="black"/>
<path d="M545.916 66.2275L537.889 83H534.974L543.309 66.2275H532.967V63.8545H545.916V66.2275Z" fill="black"/>
<path d="M607.019 78.1953C607.019 79.0059 606.853 79.7285 606.521 80.3633C606.188 80.9883 605.725 81.5156 605.129 81.9453C604.533 82.375 603.83 82.7021 603.02 82.9268C602.209 83.1514 601.33 83.2637 600.383 83.2637C599.338 83.2637 598.415 83.1465 597.614 82.9121C596.823 82.6777 596.159 82.3506 595.622 81.9307C595.085 81.5107 594.68 81.0127 594.406 80.4365C594.133 79.8604 593.996 79.2256 593.996 78.5322C593.996 77.3604 594.323 76.3496 594.978 75.5C595.632 74.6504 596.643 73.8789 598.01 73.1855C596.76 72.5508 595.847 71.8477 595.271 71.0762C594.694 70.2949 594.406 69.4014 594.406 68.3955C594.406 67.7803 594.533 67.1846 594.787 66.6084C595.041 66.0322 595.422 65.5195 595.93 65.0703C596.447 64.6211 597.092 64.2646 597.863 64.001C598.635 63.7275 599.543 63.5908 600.588 63.5908C601.574 63.5908 602.438 63.6982 603.181 63.9131C603.933 64.1182 604.562 64.416 605.07 64.8066C605.578 65.1973 605.959 65.6709 606.213 66.2275C606.467 66.7842 606.594 67.4043 606.594 68.0879C606.594 69.2012 606.281 70.1484 605.656 70.9297C605.041 71.7109 604.162 72.3945 603.02 72.9805C603.586 73.2637 604.113 73.5762 604.602 73.918C605.09 74.2598 605.515 74.6406 605.876 75.0605C606.237 75.4805 606.516 75.9492 606.711 76.4668C606.916 76.9844 607.019 77.5605 607.019 78.1953ZM603.986 68.293C603.986 67.4238 603.679 66.7793 603.063 66.3594C602.458 65.9297 601.604 65.7148 600.5 65.7148C599.406 65.7148 598.552 65.9248 597.937 66.3447C597.331 66.7646 597.028 67.3945 597.028 68.2344C597.028 68.6152 597.102 68.9668 597.248 69.2891C597.395 69.6113 597.619 69.9141 597.922 70.1973C598.234 70.4805 598.62 70.7588 599.079 71.0322C599.538 71.3057 600.085 71.584 600.72 71.8672C601.823 71.3496 602.644 70.8125 603.181 70.2559C603.718 69.6895 603.986 69.0352 603.986 68.293ZM604.25 78.3857C604.25 78.0244 604.191 77.6729 604.074 77.3311C603.957 76.9893 603.747 76.6523 603.444 76.3203C603.142 75.9883 602.736 75.6562 602.229 75.3242C601.721 74.9922 601.076 74.6504 600.295 74.2988C599.631 74.6211 599.069 74.9434 598.61 75.2656C598.161 75.5781 597.795 75.9004 597.512 76.2324C597.238 76.5547 597.043 76.8916 596.926 77.2432C596.809 77.5947 596.75 77.9658 596.75 78.3564C596.75 78.7959 596.843 79.1865 597.028 79.5283C597.224 79.8604 597.487 80.1436 597.819 80.3779C598.151 80.6123 598.547 80.7881 599.006 80.9053C599.465 81.0225 599.963 81.0811 600.5 81.0811C601.018 81.0811 601.506 81.0273 601.965 80.9199C602.424 80.8125 602.819 80.6514 603.151 80.4365C603.493 80.2119 603.762 79.9336 603.957 79.6016C604.152 79.2598 604.25 78.8545 604.25 78.3857Z" fill="black"/>
<path d="M667.916 72.3506C667.916 74.2158 667.691 75.8223 667.242 77.1699C666.793 78.5078 666.129 79.6113 665.25 80.4805C664.371 81.3398 663.282 81.9746 661.983 82.3848C660.685 82.7949 659.186 83 657.486 83H655.89V80.7734H657.662C658.922 80.7734 660.011 80.6465 660.929 80.3926C661.847 80.1387 662.608 79.7676 663.214 79.2793C663.829 78.7812 664.298 78.1807 664.62 77.4775C664.942 76.7646 665.143 75.9541 665.221 75.0459L665.279 74.4453C664.664 74.8066 663.956 75.0996 663.155 75.3242C662.354 75.5391 661.485 75.6465 660.548 75.6465C659.581 75.6465 658.731 75.5049 657.999 75.2217C657.267 74.9385 656.656 74.543 656.168 74.0352C655.689 73.5273 655.328 72.9268 655.084 72.2334C654.84 71.5303 654.718 70.7686 654.718 69.9482C654.718 69.0596 654.879 68.2295 655.201 67.458C655.523 66.6865 655.973 66.0176 656.549 65.4512C657.135 64.875 657.833 64.4209 658.644 64.0889C659.454 63.7568 660.348 63.5908 661.324 63.5908C662.271 63.5908 663.146 63.7471 663.946 64.0596C664.757 64.3721 665.455 64.8799 666.041 65.583C666.627 66.2764 667.086 67.1797 667.418 68.293C667.75 69.4062 667.916 70.7588 667.916 72.3506ZM661.207 65.6855C660.66 65.6855 660.152 65.7783 659.684 65.9639C659.225 66.1396 658.824 66.4033 658.482 66.7549C658.15 67.0967 657.887 67.5215 657.691 68.0293C657.496 68.5371 657.398 69.1182 657.398 69.7725C657.398 70.3682 657.467 70.9004 657.604 71.3691C657.75 71.8379 657.97 72.2383 658.263 72.5703C658.565 72.8926 658.951 73.1416 659.42 73.3174C659.889 73.4932 660.445 73.5811 661.09 73.5811C661.451 73.5811 661.822 73.5469 662.203 73.4785C662.594 73.4102 662.97 73.3174 663.331 73.2002C663.702 73.083 664.054 72.9463 664.386 72.79C664.718 72.6338 665.016 72.4678 665.279 72.292C665.279 71.0322 665.187 69.9824 665.001 69.1426C664.815 68.293 664.547 67.6143 664.195 67.1064C663.844 66.5889 663.414 66.2227 662.906 66.0078C662.408 65.793 661.842 65.6855 661.207 65.6855Z" fill="black"/>
<path d="M805.61 83H793.584V80.627H798.506V66.6523L793.921 69.1426L792.983 66.9746L799.077 63.7666H801.333V80.627H805.61V83ZM822.104 83H810.078V80.627H815V66.6523L810.415 69.1426L809.478 66.9746L815.571 63.7666H817.827V80.627H822.104V83Z" fill="black"/>
<path d="M728.61 83H716.584V80.627H721.506V66.6523L716.921 69.1426L715.983 66.9746L722.077 63.7666H724.333V80.627H728.61V83ZM745.705 73.4346C745.705 74.8994 745.559 76.2373 745.266 77.4482C744.973 78.6494 744.528 79.6846 743.933 80.5537C743.337 81.4131 742.595 82.082 741.706 82.5605C740.827 83.0293 739.792 83.2637 738.601 83.2637C737.575 83.2637 736.643 83.0732 735.803 82.6924C734.963 82.3018 734.245 81.7061 733.649 80.9053C733.054 80.1045 732.595 79.084 732.272 77.8438C731.95 76.6035 731.789 75.1338 731.789 73.4346C731.789 71.9697 731.936 70.6318 732.229 69.4209C732.531 68.21 732.976 67.1748 733.562 66.3154C734.157 65.4463 734.899 64.7773 735.788 64.3086C736.677 63.8301 737.712 63.5908 738.894 63.5908C739.919 63.5908 740.852 63.7861 741.691 64.1768C742.531 64.5576 743.249 65.1533 743.845 65.9639C744.44 66.7646 744.899 67.7852 745.222 69.0254C745.544 70.2656 745.705 71.7354 745.705 73.4346ZM743.127 73.5225C743.127 73.1904 743.112 72.8633 743.083 72.541C743.063 72.209 743.039 71.8867 743.01 71.5742L734.909 77.5947C735.056 78.1025 735.241 78.5713 735.466 79.001C735.69 79.4307 735.959 79.8018 736.271 80.1143C736.594 80.417 736.955 80.6562 737.355 80.832C737.766 80.998 738.229 81.0811 738.747 81.0811C739.411 81.0811 740.012 80.9199 740.549 80.5977C741.096 80.2754 741.56 79.7969 741.94 79.1621C742.321 78.5273 742.614 77.7412 742.819 76.8037C743.024 75.8564 743.127 74.7627 743.127 73.5225ZM734.367 73.3467C734.367 73.6494 734.367 73.9521 734.367 74.2549C734.377 74.5576 734.396 74.8506 734.426 75.1338L742.526 69.1426C742.38 68.6445 742.194 68.1904 741.97 67.7803C741.745 67.3701 741.477 67.0186 741.164 66.7256C740.852 66.4229 740.495 66.1885 740.095 66.0225C739.694 65.8564 739.245 65.7734 738.747 65.7734C738.083 65.7734 737.478 65.9346 736.931 66.2568C736.394 66.5791 735.935 67.0625 735.554 67.707C735.173 68.3418 734.88 69.1328 734.675 70.0801C734.47 71.0176 734.367 72.1064 734.367 73.3467Z" fill="black"/>
<rect x="375" y="1" width="50" height="28" rx="6" fill="#F2FBFF" stroke="#00B2FF" stroke-width="2"/>
<path d="M393.061 22V14.959C393.061 14.653 393.048 14.4023 393.021 14.207C393.002 14.0117 392.966 13.8587 392.914 13.748C392.868 13.6309 392.807 13.5495 392.729 13.5039C392.657 13.4583 392.566 13.4355 392.455 13.4355C392.325 13.4355 392.204 13.4746 392.094 13.5527C391.983 13.6309 391.863 13.7578 391.732 13.9336C391.609 14.1094 391.469 14.3438 391.312 14.6367C391.163 14.9232 390.984 15.278 390.775 15.7012V22H389.223V15.1445C389.223 14.7865 389.21 14.4967 389.184 14.2754C389.164 14.054 389.128 13.8815 389.076 13.7578C389.031 13.6341 388.969 13.5495 388.891 13.5039C388.812 13.4583 388.718 13.4355 388.607 13.4355C388.49 13.4355 388.38 13.4681 388.275 13.5332C388.171 13.5983 388.054 13.7155 387.924 13.8848C387.8 14.054 387.66 14.2852 387.504 14.5781C387.348 14.8711 387.162 15.2454 386.947 15.7012V22H385.385V12.1953H386.684L386.762 14.0605C386.931 13.6895 387.094 13.3737 387.25 13.1133C387.413 12.8529 387.579 12.6445 387.748 12.4883C387.917 12.3255 388.096 12.2083 388.285 12.1367C388.48 12.0586 388.695 12.0195 388.93 12.0195C389.457 12.0195 389.857 12.1921 390.131 12.5371C390.404 12.8822 390.541 13.416 390.541 14.1387C390.697 13.8001 390.85 13.5007 391 13.2402C391.15 12.9733 391.309 12.752 391.479 12.5762C391.654 12.3939 391.846 12.2572 392.055 12.166C392.263 12.0684 392.504 12.0195 392.777 12.0195C394.008 12.0195 394.623 12.9668 394.623 14.8613V22H393.061ZM400.404 13.6016H397.504V12.1953H402.123V20.584H405.043V22H397.182V20.584H400.404V13.6016ZM401 8.08398C401.189 8.08398 401.365 8.11979 401.527 8.19141C401.69 8.25651 401.83 8.35091 401.947 8.47461C402.071 8.59831 402.165 8.74154 402.23 8.9043C402.302 9.06055 402.338 9.23307 402.338 9.42188C402.338 9.60417 402.302 9.77669 402.23 9.93945C402.165 10.1022 402.071 10.2454 401.947 10.3691C401.83 10.4928 401.69 10.5905 401.527 10.6621C401.365 10.7272 401.189 10.7598 401 10.7598C400.811 10.7598 400.635 10.7272 400.473 10.6621C400.31 10.5905 400.167 10.4928 400.043 10.3691C399.926 10.2454 399.831 10.1022 399.76 9.93945C399.695 9.77669 399.662 9.60417 399.662 9.42188C399.662 9.23307 399.695 9.06055 399.76 8.9043C399.831 8.74154 399.926 8.59831 400.043 8.47461C400.167 8.35091 400.31 8.25651 400.473 8.19141C400.635 8.11979 400.811 8.08398 401 8.08398ZM407.562 17.3027C407.562 16.4694 407.676 15.7305 407.904 15.0859C408.132 14.4349 408.454 13.888 408.871 13.4453C409.294 12.9961 409.799 12.6576 410.385 12.4297C410.977 12.1953 411.635 12.0781 412.357 12.0781C412.67 12.0781 412.976 12.0977 413.275 12.1367C413.581 12.1758 413.881 12.2376 414.174 12.3223V8.20117H415.883V22H414.359L414.301 20.1445C413.826 20.8346 413.311 21.3457 412.758 21.6777C412.204 22.0098 411.605 22.1758 410.961 22.1758C410.401 22.1758 409.906 22.0586 409.477 21.8242C409.053 21.5898 408.699 21.2611 408.412 20.8379C408.132 20.4082 407.921 19.8939 407.777 19.2949C407.634 18.696 407.562 18.0319 407.562 17.3027ZM409.301 17.1953C409.301 18.3802 409.473 19.2656 409.818 19.8516C410.17 20.431 410.665 20.7207 411.303 20.7207C411.732 20.7207 412.185 20.5286 412.66 20.1445C413.142 19.7604 413.646 19.1908 414.174 18.4355V13.8848C413.894 13.7546 413.585 13.6569 413.246 13.5918C412.908 13.5202 412.572 13.4844 412.24 13.4844C411.316 13.4844 410.593 13.7839 410.072 14.3828C409.558 14.9818 409.301 15.9193 409.301 17.1953Z" fill="#00B2FF"/>
<path d="M400.293 57.7071C400.683 58.0976 401.317 58.0976 401.707 57.7071L408.071 51.3431C408.462 50.9526 408.462 50.3195 408.071 49.9289C407.681 49.5384 407.047 49.5384 406.657 49.9289L401 55.5858L395.343 49.9289C394.953 49.5384 394.319 49.5384 393.929 49.9289C393.538 50.3195 393.538 50.9526 393.929 51.3431L400.293 57.7071ZM400 30L400 57L402 57L402 30L400 30Z" fill="#00B2FF"/>
</g>
<defs>
<clipPath id="clip0_6259_675">
<rect width="849" height="189" fill="white"/>
</clipPath>
</defs>
</svg>
