<svg width="1167" height="134" viewBox="0 0 1167 134" fill="none" xmlns="http://www.w3.org/2000/svg">
<rect width="1167" height="134" fill="white"/>
<path d="M11.792 77L11.7334 75.0225C10.9326 75.8135 10.1172 76.3848 9.28711 76.7363C8.4668 77.0879 7.60254 77.2637 6.69434 77.2637C5.85449 77.2637 5.13672 77.1562 4.54102 76.9414C3.94531 76.7266 3.45215 76.4336 3.06152 76.0625C2.68066 75.6816 2.39746 75.2373 2.21191 74.7295C2.03613 74.2217 1.94824 73.6699 1.94824 73.0742C1.94824 71.5996 2.49512 70.4473 3.58887 69.6172C4.69238 68.7773 6.31836 68.3574 8.4668 68.3574H11.5137V67.0684C11.5137 66.1992 11.2354 65.5059 10.6787 64.9883C10.1221 64.4609 9.27246 64.1973 8.12988 64.1973C7.2998 64.1973 6.47949 64.29 5.66895 64.4756C4.86816 64.6611 4.03809 64.9248 3.17871 65.2666V62.9668C3.50098 62.8496 3.85742 62.7373 4.24805 62.6299C4.64844 62.5127 5.06836 62.4102 5.50781 62.3223C5.94727 62.2344 6.40625 62.166 6.88477 62.1172C7.36328 62.0586 7.84668 62.0293 8.33496 62.0293C9.22363 62.0293 10.0244 62.127 10.7373 62.3223C11.4502 62.5176 12.0508 62.8154 12.5391 63.2158C13.0371 63.6162 13.418 64.1191 13.6816 64.7246C13.9453 65.3301 14.0771 66.043 14.0771 66.8633V77H11.792ZM11.5137 70.3057H8.27637C7.6416 70.3057 7.09473 70.3691 6.63574 70.4961C6.17676 70.623 5.80078 70.8037 5.50781 71.0381C5.21484 71.2725 4.99512 71.5557 4.84863 71.8877C4.71191 72.21 4.64355 72.5762 4.64355 72.9863C4.64355 73.2695 4.6875 73.543 4.77539 73.8066C4.86328 74.0605 5.00488 74.29 5.2002 74.4951C5.39551 74.6904 5.64941 74.8467 5.96191 74.9639C6.27441 75.0811 6.65527 75.1396 7.10449 75.1396C7.69043 75.1396 8.35938 74.9639 9.11133 74.6123C9.87305 74.251 10.6738 73.6846 11.5137 72.9131V70.3057ZM64.3945 69.3828C64.3945 70.6035 64.2236 71.6973 63.8818 72.6641C63.5498 73.6211 63.0713 74.4365 62.4463 75.1104C61.8311 75.7744 61.0791 76.2871 60.1904 76.6484C59.3018 77 58.3008 77.1758 57.1875 77.1758C56.3184 77.1758 55.4297 77.0928 54.5215 76.9268C53.6133 76.7607 52.7148 76.4971 51.8262 76.1357V56.3018H54.375V62L54.2578 64.7246C54.9902 63.7383 55.7715 63.0449 56.6016 62.6445C57.4414 62.2344 58.3398 62.0293 59.2969 62.0293C60.1367 62.0293 60.874 62.2051 61.5088 62.5566C62.1436 62.9082 62.6758 63.4062 63.1055 64.0508C63.5352 64.6855 63.8574 65.457 64.0723 66.3652C64.2871 67.2637 64.3945 68.2695 64.3945 69.3828ZM61.7871 69.5C61.7871 68.7285 61.7285 68.0205 61.6113 67.376C61.5039 66.7314 61.3281 66.1797 61.084 65.7207C60.8398 65.2617 60.5273 64.9053 60.1465 64.6514C59.7656 64.3877 59.3115 64.2559 58.7842 64.2559C58.4619 64.2559 58.1348 64.3096 57.8027 64.417C57.4707 64.5146 57.124 64.6855 56.7627 64.9297C56.4111 65.1641 56.0352 65.4814 55.6348 65.8818C55.2441 66.2725 54.8242 66.7607 54.375 67.3467V74.4805C54.873 74.6758 55.3809 74.832 55.8984 74.9492C56.416 75.0566 56.9092 75.1104 57.3779 75.1104C57.9639 75.1104 58.5205 75.0176 59.0479 74.832C59.585 74.6465 60.0537 74.3389 60.4541 73.9092C60.8643 73.4697 61.1865 72.8936 61.4209 72.1807C61.665 71.458 61.7871 70.5645 61.7871 69.5ZM113.877 69.3828C113.877 70.6035 113.706 71.6973 113.364 72.6641C113.032 73.6211 112.554 74.4365 111.929 75.1104C111.313 75.7744 110.562 76.2871 109.673 76.6484C108.784 77 107.783 77.1758 106.67 77.1758C105.801 77.1758 104.912 77.0928 104.004 76.9268C103.096 76.7607 102.197 76.4971 101.309 76.1357V56.3018H103.857V62L103.74 64.7246C104.473 63.7383 105.254 63.0449 106.084 62.6445C106.924 62.2344 107.822 62.0293 108.779 62.0293C109.619 62.0293 110.356 62.2051 110.991 62.5566C111.626 62.9082 112.158 63.4062 112.588 64.0508C113.018 64.6855 113.34 65.457 113.555 66.3652C113.77 67.2637 113.877 68.2695 113.877 69.3828ZM111.27 69.5C111.27 68.7285 111.211 68.0205 111.094 67.376C110.986 66.7314 110.811 66.1797 110.566 65.7207C110.322 65.2617 110.01 64.9053 109.629 64.6514C109.248 64.3877 108.794 64.2559 108.267 64.2559C107.944 64.2559 107.617 64.3096 107.285 64.417C106.953 64.5146 106.606 64.6855 106.245 64.9297C105.894 65.1641 105.518 65.4814 105.117 65.8818C104.727 66.2725 104.307 66.7607 103.857 67.3467V74.4805C104.355 74.6758 104.863 74.832 105.381 74.9492C105.898 75.0566 106.392 75.1104 106.86 75.1104C107.446 75.1104 108.003 75.0176 108.53 74.832C109.067 74.6465 109.536 74.3389 109.937 73.9092C110.347 73.4697 110.669 72.8936 110.903 72.1807C111.147 71.458 111.27 70.5645 111.27 69.5ZM162.217 76.458C161.553 76.7119 160.869 76.8975 160.166 77.0146C159.473 77.1416 158.755 77.2051 158.013 77.2051C155.688 77.2051 153.896 76.5752 152.637 75.3154C151.387 74.0557 150.762 72.2148 150.762 69.793C150.762 68.6309 150.942 67.5762 151.304 66.6289C151.665 65.6816 152.173 64.8711 152.827 64.1973C153.481 63.5234 154.263 63.0059 155.171 62.6445C156.079 62.2734 157.08 62.0879 158.174 62.0879C158.936 62.0879 159.648 62.1416 160.312 62.249C160.977 62.3564 161.611 62.5322 162.217 62.7764V65.208C161.582 64.876 160.933 64.6367 160.269 64.4902C159.614 64.334 158.936 64.2559 158.232 64.2559C157.578 64.2559 156.958 64.3828 156.372 64.6367C155.796 64.8809 155.288 65.2373 154.849 65.7061C154.409 66.1748 154.062 66.7461 153.809 67.4199C153.555 68.0938 153.428 68.8555 153.428 69.7051C153.428 71.4824 153.857 72.8154 154.717 73.7041C155.586 74.583 156.787 75.0225 158.32 75.0225C159.014 75.0225 159.683 74.9443 160.327 74.7881C160.981 74.6318 161.611 74.3975 162.217 74.085V76.458Z" fill="black"/>
<path d="M274.792 62L274.733 60.0225C273.933 60.8135 273.117 61.3848 272.287 61.7363C271.467 62.0879 270.603 62.2637 269.694 62.2637C268.854 62.2637 268.137 62.1562 267.541 61.9414C266.945 61.7266 266.452 61.4336 266.062 61.0625C265.681 60.6816 265.397 60.2373 265.212 59.7295C265.036 59.2217 264.948 58.6699 264.948 58.0742C264.948 56.5996 265.495 55.4473 266.589 54.6172C267.692 53.7773 269.318 53.3574 271.467 53.3574H274.514V52.0684C274.514 51.1992 274.235 50.5059 273.679 49.9883C273.122 49.4609 272.272 49.1973 271.13 49.1973C270.3 49.1973 269.479 49.29 268.669 49.4756C267.868 49.6611 267.038 49.9248 266.179 50.2666V47.9668C266.501 47.8496 266.857 47.7373 267.248 47.6299C267.648 47.5127 268.068 47.4102 268.508 47.3223C268.947 47.2344 269.406 47.166 269.885 47.1172C270.363 47.0586 270.847 47.0293 271.335 47.0293C272.224 47.0293 273.024 47.127 273.737 47.3223C274.45 47.5176 275.051 47.8154 275.539 48.2158C276.037 48.6162 276.418 49.1191 276.682 49.7246C276.945 50.3301 277.077 51.043 277.077 51.8633V62H274.792ZM274.514 55.3057H271.276C270.642 55.3057 270.095 55.3691 269.636 55.4961C269.177 55.623 268.801 55.8037 268.508 56.0381C268.215 56.2725 267.995 56.5557 267.849 56.8877C267.712 57.21 267.644 57.5762 267.644 57.9863C267.644 58.2695 267.688 58.543 267.775 58.8066C267.863 59.0605 268.005 59.29 268.2 59.4951C268.396 59.6904 268.649 59.8467 268.962 59.9639C269.274 60.0811 269.655 60.1396 270.104 60.1396C270.69 60.1396 271.359 59.9639 272.111 59.6123C272.873 59.251 273.674 58.6846 274.514 57.9131V55.3057Z" fill="black"/>
<path d="M277.912 87.3828C277.912 88.6035 277.741 89.6973 277.399 90.6641C277.067 91.6211 276.589 92.4365 275.964 93.1104C275.349 93.7744 274.597 94.2871 273.708 94.6484C272.819 95 271.818 95.1758 270.705 95.1758C269.836 95.1758 268.947 95.0928 268.039 94.9268C267.131 94.7607 266.232 94.4971 265.344 94.1357V74.3018H267.893V80L267.775 82.7246C268.508 81.7383 269.289 81.0449 270.119 80.6445C270.959 80.2344 271.857 80.0293 272.814 80.0293C273.654 80.0293 274.392 80.2051 275.026 80.5566C275.661 80.9082 276.193 81.4062 276.623 82.0508C277.053 82.6855 277.375 83.457 277.59 84.3652C277.805 85.2637 277.912 86.2695 277.912 87.3828ZM275.305 87.5C275.305 86.7285 275.246 86.0205 275.129 85.376C275.021 84.7314 274.846 84.1797 274.602 83.7207C274.357 83.2617 274.045 82.9053 273.664 82.6514C273.283 82.3877 272.829 82.2559 272.302 82.2559C271.979 82.2559 271.652 82.3096 271.32 82.417C270.988 82.5146 270.642 82.6855 270.28 82.9297C269.929 83.1641 269.553 83.4814 269.152 83.8818C268.762 84.2725 268.342 84.7607 267.893 85.3467V92.4805C268.391 92.6758 268.898 92.832 269.416 92.9492C269.934 93.0566 270.427 93.1104 270.896 93.1104C271.481 93.1104 272.038 93.0176 272.565 92.832C273.103 92.6465 273.571 92.3389 273.972 91.9092C274.382 91.4697 274.704 90.8936 274.938 90.1807C275.183 89.458 275.305 88.5645 275.305 87.5Z" fill="black"/>
<path d="M377.604 62H365.578V59.627H370.5V45.6523L365.915 48.1426L364.978 45.9746L371.071 42.7666H373.327V59.627H377.604V62Z" fill="black"/>
<path d="M377.766 95H365.153V92.7148L370.104 87.793C370.915 86.9922 371.574 86.2988 372.082 85.7129C372.59 85.127 372.985 84.5947 373.269 84.1162C373.552 83.6279 373.742 83.1689 373.84 82.7393C373.938 82.3096 373.986 81.8457 373.986 81.3477C373.986 80.8789 373.923 80.4346 373.796 80.0146C373.669 79.585 373.474 79.209 373.21 78.8867C372.946 78.5645 372.604 78.3105 372.185 78.125C371.765 77.9395 371.262 77.8467 370.676 77.8467C369.865 77.8467 369.128 78.0273 368.464 78.3887C367.8 78.75 367.189 79.2188 366.633 79.7949L365.227 78.1104C365.949 77.3486 366.779 76.7383 367.717 76.2793C368.664 75.8203 369.763 75.5908 371.013 75.5908C371.862 75.5908 372.634 75.7178 373.327 75.9717C374.03 76.2256 374.636 76.5918 375.144 77.0703C375.651 77.5488 376.042 78.1348 376.315 78.8281C376.599 79.5215 376.74 80.3027 376.74 81.1719C376.74 81.9043 376.643 82.583 376.447 83.208C376.252 83.833 375.954 84.458 375.554 85.083C375.163 85.6982 374.665 86.3379 374.06 87.002C373.464 87.666 372.756 88.3936 371.936 89.1846L368.464 92.5684H377.766V95Z" fill="black"/>
<path d="M299.343 3.11816C298.183 2.87272 297.185 2.75 296.347 2.75C294.358 2.75 293.363 3.79102 293.363 5.87305V8.10742H298.949V9.94824H293.363V19H291.116V9.94824H287.016V8.10742H291.116V6C291.116 2.60612 292.885 0.90918 296.423 0.90918C297.303 0.90918 298.276 1.01074 299.343 1.21387V3.11816ZM302.847 6.25391H304.865L304.929 8.60254C305.682 7.69694 306.423 7.04102 307.15 6.63477C307.887 6.22852 308.627 6.02539 309.372 6.02539C310.692 6.02539 311.691 6.4528 312.368 7.30762C313.054 8.16243 313.371 9.43197 313.32 11.1162H311.086C311.111 9.99902 310.946 9.19076 310.591 8.69141C310.244 8.18359 309.732 7.92969 309.055 7.92969C308.758 7.92969 308.458 7.9847 308.153 8.09473C307.857 8.19629 307.548 8.36556 307.227 8.60254C306.913 8.83105 306.579 9.12728 306.224 9.49121C305.868 9.85514 305.487 10.2952 305.081 10.8115V19H302.847V6.25391ZM327.387 11.9541C327.387 12.2673 327.382 12.5296 327.374 12.7412C327.366 12.9528 327.353 13.1517 327.336 13.3379H318.386C318.386 14.6413 318.75 15.6442 319.478 16.3467C320.205 17.0407 321.255 17.3877 322.626 17.3877C322.998 17.3877 323.371 17.375 323.743 17.3496C324.116 17.3158 324.475 17.2734 324.822 17.2227C325.169 17.1719 325.499 17.1169 325.812 17.0576C326.134 16.9899 326.43 16.918 326.701 16.8418V18.6572C326.1 18.8265 325.419 18.9619 324.657 19.0635C323.904 19.1735 323.121 19.2285 322.309 19.2285C321.217 19.2285 320.277 19.0804 319.49 18.7842C318.703 18.488 318.056 18.0605 317.548 17.502C317.049 16.9349 316.676 16.2451 316.431 15.4326C316.194 14.6117 316.075 13.6849 316.075 12.6523C316.075 11.7552 316.202 10.9089 316.456 10.1133C316.718 9.30924 317.095 8.60677 317.586 8.00586C318.085 7.39648 318.695 6.91406 319.414 6.55859C320.133 6.20312 320.95 6.02539 321.864 6.02539C322.753 6.02539 323.54 6.16504 324.226 6.44434C324.911 6.72363 325.487 7.12142 325.952 7.6377C326.426 8.14551 326.782 8.76758 327.019 9.50391C327.264 10.2318 327.387 11.0485 327.387 11.9541ZM325.089 11.6367C325.114 11.0697 325.059 10.5534 324.924 10.0879C324.788 9.61393 324.577 9.20768 324.289 8.86914C324.01 8.5306 323.659 8.26823 323.235 8.08203C322.812 7.88737 322.321 7.79004 321.763 7.79004C321.28 7.79004 320.84 7.88314 320.442 8.06934C320.045 8.25553 319.702 8.5179 319.414 8.85645C319.126 9.19499 318.894 9.60124 318.716 10.0752C318.538 10.5492 318.428 11.0697 318.386 11.6367H325.089ZM330.269 12.8936C330.269 11.9795 330.387 11.112 330.624 10.291C330.869 9.47005 331.242 8.75065 331.741 8.13281C332.249 7.50651 332.896 7.01139 333.684 6.64746C334.471 6.28353 335.41 6.10156 336.502 6.10156C336.934 6.10156 337.361 6.13542 337.784 6.20312C338.207 6.27083 338.656 6.37663 339.13 6.52051L341.085 6.02539V24.2051H338.863V19.3936L338.978 16.6641C337.776 18.3737 336.345 19.2285 334.687 19.2285C333.942 19.2285 333.294 19.0762 332.744 18.7715C332.194 18.4668 331.733 18.0352 331.36 17.4766C330.996 16.918 330.721 16.2493 330.535 15.4707C330.357 14.6921 330.269 13.833 330.269 12.8936ZM332.528 12.7539C332.528 13.4648 332.579 14.1038 332.681 14.6709C332.791 15.238 332.951 15.7204 333.163 16.1182C333.383 16.5075 333.654 16.8079 333.976 17.0195C334.306 17.2311 334.691 17.3369 335.131 17.3369C335.689 17.3369 336.278 17.0872 336.896 16.5879C337.522 16.0885 338.178 15.348 338.863 14.3662V8.4502C338.525 8.28939 338.14 8.1582 337.708 8.05664C337.285 7.95508 336.832 7.9043 336.35 7.9043C335.105 7.9043 334.158 8.31478 333.506 9.13574C332.854 9.95671 332.528 11.1628 332.528 12.7539ZM355.304 15.5215C355.304 15.9701 355.228 16.3721 355.075 16.7275C354.923 17.083 354.715 17.4004 354.453 17.6797C354.191 17.9505 353.886 18.1833 353.539 18.3779C353.192 18.5726 352.82 18.7334 352.422 18.8604C352.033 18.9873 351.631 19.0804 351.216 19.1396C350.801 19.1989 350.395 19.2285 349.997 19.2285C349.134 19.2285 348.338 19.1904 347.61 19.1143C346.891 19.0381 346.184 18.9154 345.49 18.7461V16.7148C346.235 16.9264 346.976 17.0872 347.712 17.1973C348.448 17.3073 349.18 17.3623 349.908 17.3623C350.966 17.3623 351.749 17.2184 352.257 16.9307C352.765 16.6429 353.019 16.2324 353.019 15.6992C353.019 15.4707 352.976 15.2676 352.892 15.0898C352.815 14.9036 352.672 14.7301 352.46 14.5693C352.248 14.4001 351.918 14.2266 351.47 14.0488C351.03 13.8711 350.424 13.668 349.654 13.4395C349.079 13.2702 348.546 13.0798 348.055 12.8682C347.572 12.6481 347.153 12.39 346.798 12.0938C346.442 11.7975 346.163 11.4505 345.96 11.0527C345.757 10.6549 345.655 10.1852 345.655 9.64355C345.655 9.28809 345.736 8.89876 345.896 8.47559C346.066 8.05241 346.349 7.65885 346.747 7.29492C347.145 6.93099 347.682 6.63053 348.359 6.39355C349.036 6.14811 349.883 6.02539 350.898 6.02539C351.398 6.02539 351.952 6.05501 352.562 6.11426C353.171 6.16504 353.806 6.25814 354.466 6.39355V8.36133C353.772 8.19206 353.112 8.06934 352.485 7.99316C351.868 7.90853 351.33 7.86621 350.873 7.86621C350.323 7.86621 349.857 7.90853 349.477 7.99316C349.104 8.0778 348.799 8.19629 348.562 8.34863C348.334 8.49251 348.169 8.66602 348.067 8.86914C347.966 9.0638 347.915 9.27539 347.915 9.50391C347.915 9.73242 347.957 9.93978 348.042 10.126C348.135 10.3122 348.3 10.4941 348.537 10.6719C348.783 10.8411 349.121 11.0146 349.553 11.1924C349.984 11.3617 350.547 11.5479 351.241 11.751C351.994 11.971 352.629 12.2038 353.146 12.4492C353.662 12.6862 354.081 12.9528 354.402 13.249C354.724 13.5452 354.952 13.8796 355.088 14.252C355.232 14.6243 355.304 15.0475 355.304 15.5215Z" fill="black"/>
<rect x="221" y="27" width="202" height="83" rx="9" stroke="black" stroke-width="2"/>
<path d="M322 40L322 99" stroke="#DEDEDE" stroke-linecap="round"/>
<path d="M258.18 127.639C257.737 127.808 257.281 127.932 256.812 128.01C256.35 128.094 255.872 128.137 255.377 128.137C253.827 128.137 252.633 127.717 251.793 126.877C250.96 126.037 250.543 124.81 250.543 123.195C250.543 122.421 250.663 121.717 250.904 121.086C251.145 120.454 251.484 119.914 251.92 119.465C252.356 119.016 252.877 118.671 253.482 118.43C254.088 118.182 254.755 118.059 255.484 118.059C255.992 118.059 256.467 118.094 256.91 118.166C257.353 118.238 257.776 118.355 258.18 118.518V120.139C257.757 119.917 257.324 119.758 256.881 119.66C256.445 119.556 255.992 119.504 255.523 119.504C255.087 119.504 254.674 119.589 254.283 119.758C253.899 119.921 253.561 120.158 253.268 120.471C252.975 120.783 252.743 121.164 252.574 121.613C252.405 122.062 252.32 122.57 252.32 123.137C252.32 124.322 252.607 125.21 253.18 125.803C253.759 126.389 254.56 126.682 255.582 126.682C256.044 126.682 256.49 126.63 256.92 126.525C257.356 126.421 257.776 126.265 258.18 126.057V127.639ZM269.439 128H267.74V121.74C267.74 120.985 267.597 120.422 267.311 120.051C267.031 119.673 266.627 119.484 266.1 119.484C265.872 119.484 265.657 119.517 265.455 119.582C265.26 119.641 265.055 119.748 264.84 119.904C264.625 120.054 264.391 120.259 264.137 120.52C263.883 120.78 263.59 121.105 263.258 121.496V128H261.559V114.201H263.258V118.195L263.199 119.738C263.466 119.419 263.727 119.152 263.98 118.938C264.241 118.716 264.498 118.537 264.752 118.4C265.012 118.264 265.276 118.166 265.543 118.107C265.81 118.049 266.087 118.02 266.373 118.02C267.35 118.02 268.105 118.319 268.639 118.918C269.173 119.51 269.439 120.406 269.439 121.604V128ZM278.854 128L278.814 126.682C278.281 127.209 277.737 127.59 277.184 127.824C276.637 128.059 276.061 128.176 275.455 128.176C274.895 128.176 274.417 128.104 274.02 127.961C273.622 127.818 273.294 127.622 273.033 127.375C272.779 127.121 272.59 126.825 272.467 126.486C272.35 126.148 272.291 125.78 272.291 125.383C272.291 124.4 272.656 123.632 273.385 123.078C274.12 122.518 275.204 122.238 276.637 122.238H278.668V121.379C278.668 120.799 278.482 120.337 278.111 119.992C277.74 119.641 277.174 119.465 276.412 119.465C275.859 119.465 275.312 119.527 274.771 119.65C274.238 119.774 273.684 119.95 273.111 120.178V118.645C273.326 118.566 273.564 118.492 273.824 118.42C274.091 118.342 274.371 118.273 274.664 118.215C274.957 118.156 275.263 118.111 275.582 118.078C275.901 118.039 276.223 118.02 276.549 118.02C277.141 118.02 277.675 118.085 278.15 118.215C278.626 118.345 279.026 118.544 279.352 118.811C279.684 119.077 279.938 119.413 280.113 119.816C280.289 120.22 280.377 120.695 280.377 121.242V128H278.854ZM278.668 123.537H276.51C276.087 123.537 275.722 123.579 275.416 123.664C275.11 123.749 274.859 123.869 274.664 124.025C274.469 124.182 274.322 124.37 274.225 124.592C274.133 124.807 274.088 125.051 274.088 125.324C274.088 125.513 274.117 125.695 274.176 125.871C274.234 126.04 274.329 126.193 274.459 126.33C274.589 126.46 274.758 126.564 274.967 126.643C275.175 126.721 275.429 126.76 275.729 126.76C276.119 126.76 276.565 126.643 277.066 126.408C277.574 126.167 278.108 125.79 278.668 125.275V123.537ZM283.951 118.195H285.504L285.553 120.002C286.132 119.305 286.702 118.801 287.262 118.488C287.828 118.176 288.398 118.02 288.971 118.02C289.986 118.02 290.755 118.348 291.275 119.006C291.803 119.663 292.047 120.64 292.008 121.936H290.289C290.309 121.076 290.182 120.454 289.908 120.07C289.641 119.68 289.247 119.484 288.727 119.484C288.499 119.484 288.268 119.527 288.033 119.611C287.805 119.689 287.568 119.82 287.32 120.002C287.079 120.178 286.822 120.406 286.549 120.686C286.275 120.965 285.982 121.304 285.67 121.701V128H283.951V118.195Z" fill="#666666"/>
<path d="M359.264 115.783C358.372 115.594 357.604 115.5 356.959 115.5C355.429 115.5 354.664 116.301 354.664 117.902V119.621H358.961V121.037H354.664V128H352.936V121.037H349.781V119.621H352.936V118C352.936 115.389 354.296 114.084 357.018 114.084C357.695 114.084 358.443 114.162 359.264 114.318V115.783ZM361.959 118.195H363.512L363.561 120.002C364.14 119.305 364.71 118.801 365.27 118.488C365.836 118.176 366.406 118.02 366.979 118.02C367.994 118.02 368.762 118.348 369.283 119.006C369.811 119.663 370.055 120.64 370.016 121.936H368.297C368.316 121.076 368.189 120.454 367.916 120.07C367.649 119.68 367.255 119.484 366.734 119.484C366.507 119.484 366.275 119.527 366.041 119.611C365.813 119.689 365.576 119.82 365.328 120.002C365.087 120.178 364.83 120.406 364.557 120.686C364.283 120.965 363.99 121.304 363.678 121.701V128H361.959V118.195ZM380.836 122.58C380.836 122.821 380.833 123.023 380.826 123.186C380.82 123.348 380.81 123.501 380.797 123.645H373.912C373.912 124.647 374.192 125.419 374.752 125.959C375.312 126.493 376.119 126.76 377.174 126.76C377.46 126.76 377.747 126.75 378.033 126.73C378.32 126.704 378.596 126.672 378.863 126.633C379.13 126.594 379.384 126.551 379.625 126.506C379.872 126.454 380.1 126.398 380.309 126.34V127.736C379.846 127.867 379.322 127.971 378.736 128.049C378.157 128.133 377.555 128.176 376.93 128.176C376.09 128.176 375.367 128.062 374.762 127.834C374.156 127.606 373.658 127.277 373.268 126.848C372.883 126.411 372.597 125.881 372.408 125.256C372.226 124.624 372.135 123.911 372.135 123.117C372.135 122.427 372.232 121.776 372.428 121.164C372.63 120.546 372.919 120.005 373.297 119.543C373.681 119.074 374.15 118.703 374.703 118.43C375.257 118.156 375.885 118.02 376.588 118.02C377.271 118.02 377.877 118.127 378.404 118.342C378.932 118.557 379.374 118.863 379.732 119.26C380.097 119.65 380.37 120.129 380.553 120.695C380.742 121.255 380.836 121.883 380.836 122.58ZM379.068 122.336C379.088 121.9 379.046 121.503 378.941 121.145C378.837 120.78 378.674 120.467 378.453 120.207C378.238 119.947 377.968 119.745 377.643 119.602C377.317 119.452 376.939 119.377 376.51 119.377C376.139 119.377 375.8 119.449 375.494 119.592C375.188 119.735 374.924 119.937 374.703 120.197C374.482 120.458 374.303 120.77 374.166 121.135C374.029 121.499 373.945 121.9 373.912 122.336H379.068ZM383.053 123.303C383.053 122.6 383.144 121.932 383.326 121.301C383.515 120.669 383.801 120.116 384.186 119.641C384.576 119.159 385.074 118.778 385.68 118.498C386.285 118.218 387.008 118.078 387.848 118.078C388.18 118.078 388.508 118.104 388.834 118.156C389.16 118.208 389.505 118.29 389.869 118.4L391.373 118.02V132.004H389.664V128.303L389.752 126.203C388.827 127.518 387.727 128.176 386.451 128.176C385.878 128.176 385.38 128.059 384.957 127.824C384.534 127.59 384.179 127.258 383.893 126.828C383.613 126.398 383.401 125.884 383.258 125.285C383.121 124.686 383.053 124.025 383.053 123.303ZM384.791 123.195C384.791 123.742 384.83 124.234 384.908 124.67C384.993 125.106 385.117 125.477 385.279 125.783C385.449 126.083 385.657 126.314 385.904 126.477C386.158 126.639 386.454 126.721 386.793 126.721C387.223 126.721 387.675 126.529 388.15 126.145C388.632 125.76 389.137 125.191 389.664 124.436V119.885C389.404 119.761 389.107 119.66 388.775 119.582C388.45 119.504 388.102 119.465 387.73 119.465C386.773 119.465 386.044 119.781 385.543 120.412C385.042 121.044 384.791 121.971 384.791 123.195Z" fill="#666666"/>
<path d="M108 29C108 28.4477 107.552 28 107 28C106.448 28 106 28.4477 106 29L108 29ZM106.293 52.7071C106.683 53.0976 107.317 53.0976 107.707 52.7071L114.071 46.3431C114.462 45.9526 114.462 45.3195 114.071 44.9289C113.681 44.5384 113.047 44.5384 112.657 44.9289L107 50.5858L101.343 44.9289C100.953 44.5384 100.319 44.5384 99.9289 44.9289C99.5384 45.3195 99.5384 45.9526 99.9289 46.3431L106.293 52.7071ZM106 29L106 52L108 52L108 29L106 29Z" fill="black"/>
<rect x="494" y="23" width="672" height="94" rx="9" fill="#EDEDED" stroke="#ADADAD" stroke-width="2" stroke-dasharray="8 8"/>
<path d="M528.276 63H526.067V54.8623C526.067 53.8805 525.881 53.1484 525.509 52.666C525.145 52.1751 524.62 51.9297 523.935 51.9297C523.638 51.9297 523.359 51.972 523.097 52.0566C522.843 52.1328 522.576 52.2725 522.297 52.4756C522.018 52.6702 521.713 52.9368 521.383 53.2754C521.053 53.6139 520.672 54.0371 520.24 54.5449V63H518.031V45.0615H520.24V50.2539L520.164 52.2598C520.511 51.8451 520.85 51.498 521.18 51.2188C521.518 50.931 521.853 50.6982 522.183 50.5205C522.521 50.3428 522.864 50.2158 523.211 50.1396C523.558 50.0635 523.918 50.0254 524.29 50.0254C525.56 50.0254 526.541 50.4147 527.235 51.1934C527.929 51.9635 528.276 53.1273 528.276 54.6846V63ZM536.668 52.082H532.897V50.2539H538.902V61.1592H542.698V63H532.479V61.1592H536.668V52.082ZM537.442 44.9092C537.688 44.9092 537.916 44.9557 538.128 45.0488C538.34 45.1335 538.521 45.2562 538.674 45.417C538.835 45.5778 538.957 45.764 539.042 45.9756C539.135 46.1787 539.182 46.403 539.182 46.6484C539.182 46.8854 539.135 47.1097 539.042 47.3213C538.957 47.5329 538.835 47.7191 538.674 47.8799C538.521 48.0407 538.34 48.1676 538.128 48.2607C537.916 48.3454 537.688 48.3877 537.442 48.3877C537.197 48.3877 536.968 48.3454 536.757 48.2607C536.545 48.1676 536.359 48.0407 536.198 47.8799C536.046 47.7191 535.923 47.5329 535.83 47.3213C535.745 47.1097 535.703 46.8854 535.703 46.6484C535.703 46.403 535.745 46.1787 535.83 45.9756C535.923 45.764 536.046 45.5778 536.198 45.417C536.359 45.2562 536.545 45.1335 536.757 45.0488C536.968 44.9557 537.197 44.9092 537.442 44.9092ZM555.8 52.0566C556.037 52.3529 556.219 52.6999 556.346 53.0977C556.481 53.487 556.549 53.9102 556.549 54.3672C556.549 55.0273 556.426 55.6325 556.181 56.1826C555.944 56.7243 555.605 57.1898 555.165 57.5791C554.725 57.9684 554.196 58.2731 553.578 58.4932C552.969 58.7048 552.296 58.8105 551.56 58.8105C551.026 58.8105 550.527 58.7555 550.062 58.6455C549.596 58.527 549.228 58.3831 548.957 58.2139C548.796 58.4508 548.661 58.6751 548.551 58.8867C548.441 59.0983 548.386 59.3353 548.386 59.5977C548.386 59.9193 548.538 60.1859 548.843 60.3975C549.156 60.609 549.566 60.7233 550.074 60.7402L553.426 60.8672C554.061 60.8841 554.645 60.9645 555.178 61.1084C555.719 61.2523 556.181 61.4596 556.562 61.7305C556.951 62.0013 557.251 62.3356 557.463 62.7334C557.683 63.1312 557.793 63.5924 557.793 64.1172C557.793 64.6842 557.67 65.2217 557.425 65.7295C557.179 66.2373 556.799 66.6816 556.282 67.0625C555.774 67.4518 555.127 67.7607 554.34 67.9893C553.553 68.2178 552.618 68.332 551.534 68.332C550.502 68.332 549.621 68.2474 548.894 68.0781C548.174 67.9173 547.582 67.6888 547.116 67.3926C546.651 67.1048 546.312 66.7578 546.101 66.3516C545.889 65.9538 545.783 65.5137 545.783 65.0312C545.783 64.4134 545.927 63.8717 546.215 63.4062C546.503 62.9408 546.947 62.4922 547.548 62.0605C547.328 61.959 547.137 61.832 546.977 61.6797C546.816 61.5273 546.685 61.3623 546.583 61.1846C546.481 60.9984 546.405 60.8037 546.354 60.6006C546.304 60.3975 546.278 60.1986 546.278 60.0039C546.278 59.4538 546.405 58.9502 546.659 58.4932C546.922 58.0361 547.23 57.6045 547.586 57.1982C547.425 57.0036 547.281 56.8132 547.154 56.627C547.036 56.4408 546.93 56.2419 546.837 56.0303C546.752 55.8102 546.685 55.5775 546.634 55.332C546.591 55.0781 546.57 54.7904 546.57 54.4688C546.57 53.8086 546.689 53.2077 546.926 52.666C547.171 52.1159 547.51 51.6462 547.941 51.2568C548.382 50.8675 548.906 50.5671 549.516 50.3555C550.133 50.1354 550.815 50.0254 551.56 50.0254C551.873 50.0254 552.173 50.0465 552.461 50.0889C552.749 50.1312 553.003 50.1862 553.223 50.2539H557.844V52.0566H555.8ZM548.132 64.8408C548.132 65.4417 548.445 65.8776 549.071 66.1484C549.698 66.4277 550.569 66.5674 551.687 66.5674C552.389 66.5674 552.977 66.5039 553.451 66.377C553.934 66.25 554.319 66.0807 554.606 65.8691C554.903 65.666 555.114 65.429 555.241 65.1582C555.368 64.8958 555.432 64.625 555.432 64.3457C555.432 63.8294 555.22 63.4486 554.797 63.2031C554.374 62.9577 553.726 62.8138 552.854 62.7715L549.528 62.6572C549.249 62.8434 549.016 63.0254 548.83 63.2031C548.652 63.3809 548.513 63.5586 548.411 63.7363C548.31 63.9225 548.238 64.1045 548.195 64.2822C548.153 64.4684 548.132 64.6546 548.132 64.8408ZM548.805 54.418C548.805 54.8242 548.872 55.1966 549.008 55.5352C549.143 55.8737 549.334 56.1615 549.579 56.3984C549.825 56.6354 550.112 56.8216 550.442 56.957C550.781 57.084 551.153 57.1475 551.56 57.1475C552 57.1475 552.389 57.0755 552.728 56.9316C553.075 56.7793 553.362 56.5762 553.591 56.3223C553.828 56.0684 554.006 55.7764 554.124 55.4463C554.251 55.1162 554.314 54.7734 554.314 54.418C554.314 54.0117 554.247 53.6393 554.111 53.3008C553.976 52.9622 553.785 52.6745 553.54 52.4375C553.295 52.2005 553.003 52.0186 552.664 51.8916C552.334 51.7562 551.966 51.6885 551.56 51.6885C551.119 51.6885 550.726 51.7646 550.379 51.917C550.04 52.0693 549.753 52.2725 549.516 52.5264C549.287 52.7718 549.109 53.0596 548.982 53.3896C548.864 53.7197 548.805 54.0625 548.805 54.418ZM571.161 63H568.952V54.8623C568.952 53.8805 568.766 53.1484 568.394 52.666C568.03 52.1751 567.505 51.9297 566.819 51.9297C566.523 51.9297 566.244 51.972 565.981 52.0566C565.728 52.1328 565.461 52.2725 565.182 52.4756C564.902 52.6702 564.598 52.9368 564.268 53.2754C563.938 53.6139 563.557 54.0371 563.125 54.5449V63H560.916V45.0615H563.125V50.2539L563.049 52.2598C563.396 51.8451 563.734 51.498 564.064 51.2188C564.403 50.931 564.737 50.6982 565.067 50.5205C565.406 50.3428 565.749 50.2158 566.096 50.1396C566.443 50.0635 566.802 50.0254 567.175 50.0254C568.444 50.0254 569.426 50.4147 570.12 51.1934C570.814 51.9635 571.161 53.1273 571.161 54.6846V63ZM585.977 55.9541C585.977 56.2673 585.972 56.5296 585.964 56.7412C585.955 56.9528 585.943 57.1517 585.926 57.3379H576.976C576.976 58.6413 577.34 59.6442 578.067 60.3467C578.795 61.0407 579.845 61.3877 581.216 61.3877C581.588 61.3877 581.961 61.375 582.333 61.3496C582.705 61.3158 583.065 61.2734 583.412 61.2227C583.759 61.1719 584.089 61.1169 584.402 61.0576C584.724 60.9899 585.02 60.918 585.291 60.8418V62.6572C584.69 62.8265 584.009 62.9619 583.247 63.0635C582.494 63.1735 581.711 63.2285 580.898 63.2285C579.807 63.2285 578.867 63.0804 578.08 62.7842C577.293 62.488 576.646 62.0605 576.138 61.502C575.638 60.9349 575.266 60.2451 575.021 59.4326C574.784 58.6117 574.665 57.6849 574.665 56.6523C574.665 55.7552 574.792 54.9089 575.046 54.1133C575.308 53.3092 575.685 52.6068 576.176 52.0059C576.675 51.3965 577.285 50.9141 578.004 50.5586C578.723 50.2031 579.54 50.0254 580.454 50.0254C581.343 50.0254 582.13 50.165 582.815 50.4443C583.501 50.7236 584.076 51.1214 584.542 51.6377C585.016 52.1455 585.371 52.7676 585.608 53.5039C585.854 54.2318 585.977 55.0485 585.977 55.9541ZM583.679 55.6367C583.704 55.0697 583.649 54.5534 583.514 54.0879C583.378 53.6139 583.167 53.2077 582.879 52.8691C582.6 52.5306 582.248 52.2682 581.825 52.082C581.402 51.8874 580.911 51.79 580.353 51.79C579.87 51.79 579.43 51.8831 579.032 52.0693C578.634 52.2555 578.292 52.5179 578.004 52.8564C577.716 53.195 577.483 53.6012 577.306 54.0752C577.128 54.5492 577.018 55.0697 576.976 55.6367H583.679ZM599.599 59.5215C599.599 59.9701 599.522 60.3721 599.37 60.7275C599.218 61.083 599.01 61.4004 598.748 61.6797C598.486 61.9505 598.181 62.1833 597.834 62.3779C597.487 62.5726 597.115 62.7334 596.717 62.8604C596.327 62.9873 595.925 63.0804 595.511 63.1396C595.096 63.1989 594.69 63.2285 594.292 63.2285C593.429 63.2285 592.633 63.1904 591.905 63.1143C591.186 63.0381 590.479 62.9154 589.785 62.7461V60.7148C590.53 60.9264 591.271 61.0872 592.007 61.1973C592.743 61.3073 593.475 61.3623 594.203 61.3623C595.261 61.3623 596.044 61.2184 596.552 60.9307C597.06 60.6429 597.313 60.2324 597.313 59.6992C597.313 59.4707 597.271 59.2676 597.187 59.0898C597.11 58.9036 596.966 58.7301 596.755 58.5693C596.543 58.4001 596.213 58.2266 595.765 58.0488C595.325 57.8711 594.719 57.668 593.949 57.4395C593.374 57.2702 592.84 57.0798 592.35 56.8682C591.867 56.6481 591.448 56.39 591.093 56.0938C590.737 55.7975 590.458 55.4505 590.255 55.0527C590.052 54.6549 589.95 54.1852 589.95 53.6436C589.95 53.2881 590.031 52.8988 590.191 52.4756C590.361 52.0524 590.644 51.6589 591.042 51.2949C591.44 50.931 591.977 50.6305 592.654 50.3936C593.331 50.1481 594.178 50.0254 595.193 50.0254C595.693 50.0254 596.247 50.055 596.856 50.1143C597.466 50.165 598.101 50.2581 598.761 50.3936V52.3613C598.067 52.1921 597.407 52.0693 596.78 51.9932C596.162 51.9085 595.625 51.8662 595.168 51.8662C594.618 51.8662 594.152 51.9085 593.771 51.9932C593.399 52.0778 593.094 52.1963 592.857 52.3486C592.629 52.4925 592.464 52.666 592.362 52.8691C592.261 53.0638 592.21 53.2754 592.21 53.5039C592.21 53.7324 592.252 53.9398 592.337 54.126C592.43 54.3122 592.595 54.4941 592.832 54.6719C593.077 54.8411 593.416 55.0146 593.848 55.1924C594.279 55.3617 594.842 55.5479 595.536 55.751C596.289 55.971 596.924 56.2038 597.44 56.4492C597.957 56.6862 598.376 56.9528 598.697 57.249C599.019 57.5452 599.247 57.8796 599.383 58.252C599.527 58.6243 599.599 59.0475 599.599 59.5215ZM614.071 62.8223C613.572 62.9492 613.056 63.0381 612.522 63.0889C611.989 63.1481 611.448 63.1777 610.897 63.1777C609.298 63.1777 608.104 62.818 607.317 62.0986C606.53 61.3708 606.137 60.2578 606.137 58.7598V52.1074H602.569V50.2539H606.137V46.75L608.346 46.1787V50.2539H614.071V52.1074H608.346V58.582C608.346 59.4961 608.587 60.1816 609.069 60.6387C609.56 61.0872 610.28 61.3115 611.228 61.3115C611.634 61.3115 612.078 61.2819 612.561 61.2227C613.043 61.1549 613.547 61.0534 614.071 60.918V62.8223ZM630.359 68.2051H616.064V66.377H630.359V68.2051ZM643.702 47.1182C642.543 46.8727 641.544 46.75 640.706 46.75C638.717 46.75 637.723 47.791 637.723 49.873V52.1074H643.309V53.9482H637.723V63H635.476V53.9482H631.375V52.1074H635.476V50C635.476 46.6061 637.244 44.9092 640.782 44.9092C641.662 44.9092 642.636 45.0107 643.702 45.2139V47.1182ZM647.206 50.2539H649.225L649.288 52.6025C650.041 51.6969 650.782 51.041 651.51 50.6348C652.246 50.2285 652.987 50.0254 653.731 50.0254C655.052 50.0254 656.05 50.4528 656.728 51.3076C657.413 52.1624 657.73 53.432 657.68 55.1162H655.445C655.471 53.999 655.306 53.1908 654.95 52.6914C654.603 52.1836 654.091 51.9297 653.414 51.9297C653.118 51.9297 652.817 51.9847 652.513 52.0947C652.216 52.1963 651.908 52.3656 651.586 52.6025C651.273 52.8311 650.938 53.1273 650.583 53.4912C650.228 53.8551 649.847 54.2952 649.44 54.8115V63H647.206V50.2539ZM671.746 55.9541C671.746 56.2673 671.742 56.5296 671.733 56.7412C671.725 56.9528 671.712 57.1517 671.695 57.3379H662.745C662.745 58.6413 663.109 59.6442 663.837 60.3467C664.565 61.0407 665.614 61.3877 666.985 61.3877C667.358 61.3877 667.73 61.375 668.103 61.3496C668.475 61.3158 668.835 61.2734 669.182 61.2227C669.529 61.1719 669.859 61.1169 670.172 61.0576C670.493 60.9899 670.79 60.918 671.061 60.8418V62.6572C670.46 62.8265 669.778 62.9619 669.017 63.0635C668.263 63.1735 667.48 63.2285 666.668 63.2285C665.576 63.2285 664.637 63.0804 663.85 62.7842C663.062 62.488 662.415 62.0605 661.907 61.502C661.408 60.9349 661.035 60.2451 660.79 59.4326C660.553 58.6117 660.435 57.6849 660.435 56.6523C660.435 55.7552 660.562 54.9089 660.815 54.1133C661.078 53.3092 661.454 52.6068 661.945 52.0059C662.445 51.3965 663.054 50.9141 663.773 50.5586C664.493 50.2031 665.31 50.0254 666.224 50.0254C667.112 50.0254 667.899 50.165 668.585 50.4443C669.271 50.7236 669.846 51.1214 670.312 51.6377C670.785 52.1455 671.141 52.7676 671.378 53.5039C671.623 54.2318 671.746 55.0485 671.746 55.9541ZM669.448 55.6367C669.474 55.0697 669.419 54.5534 669.283 54.0879C669.148 53.6139 668.936 53.2077 668.648 52.8691C668.369 52.5306 668.018 52.2682 667.595 52.082C667.172 51.8874 666.681 51.79 666.122 51.79C665.64 51.79 665.2 51.8831 664.802 52.0693C664.404 52.2555 664.061 52.5179 663.773 52.8564C663.486 53.195 663.253 53.6012 663.075 54.0752C662.897 54.5492 662.787 55.0697 662.745 55.6367H669.448ZM674.628 56.8936C674.628 55.9795 674.746 55.112 674.983 54.291C675.229 53.4701 675.601 52.7507 676.101 52.1328C676.608 51.5065 677.256 51.0114 678.043 50.6475C678.83 50.2835 679.77 50.1016 680.861 50.1016C681.293 50.1016 681.72 50.1354 682.144 50.2031C682.567 50.2708 683.015 50.3766 683.489 50.5205L685.444 50.0254V68.2051H683.223V63.3936L683.337 60.6641C682.135 62.3737 680.705 63.2285 679.046 63.2285C678.301 63.2285 677.654 63.0762 677.104 62.7715C676.553 62.4668 676.092 62.0352 675.72 61.4766C675.356 60.918 675.081 60.2493 674.895 59.4707C674.717 58.6921 674.628 57.833 674.628 56.8936ZM676.888 56.7539C676.888 57.4648 676.938 58.1038 677.04 58.6709C677.15 59.238 677.311 59.7204 677.522 60.1182C677.743 60.5075 678.013 60.8079 678.335 61.0195C678.665 61.2311 679.05 61.3369 679.49 61.3369C680.049 61.3369 680.637 61.0872 681.255 60.5879C681.881 60.0885 682.537 59.348 683.223 58.3662V52.4502C682.884 52.2894 682.499 52.1582 682.067 52.0566C681.644 51.9551 681.191 51.9043 680.709 51.9043C679.465 51.9043 678.517 52.3148 677.865 53.1357C677.214 53.9567 676.888 55.1628 676.888 56.7539ZM714.44 54.7988H703.522V52.9326H714.44V54.7988ZM714.44 59.2168H703.522V57.3506H714.44V59.2168ZM741.545 63V53.8467C741.545 53.4489 741.528 53.123 741.494 52.8691C741.469 52.6152 741.422 52.4163 741.354 52.2725C741.295 52.1201 741.215 52.0143 741.113 51.9551C741.02 51.8958 740.902 51.8662 740.758 51.8662C740.589 51.8662 740.432 51.917 740.288 52.0186C740.144 52.1201 739.988 52.2852 739.818 52.5137C739.658 52.7422 739.476 53.0469 739.272 53.4277C739.078 53.8001 738.845 54.2614 738.574 54.8115V63H736.556V54.0879C736.556 53.6224 736.539 53.2458 736.505 52.958C736.479 52.6702 736.433 52.446 736.365 52.2852C736.306 52.1243 736.226 52.0143 736.124 51.9551C736.022 51.8958 735.9 51.8662 735.756 51.8662C735.604 51.8662 735.46 51.9085 735.324 51.9932C735.189 52.0778 735.036 52.2301 734.867 52.4502C734.706 52.6702 734.524 52.9707 734.321 53.3516C734.118 53.7324 733.877 54.2191 733.598 54.8115V63H731.566V50.2539H733.255L733.356 52.6787C733.576 52.1963 733.788 51.7858 733.991 51.4473C734.203 51.1087 734.419 50.8379 734.639 50.6348C734.859 50.4232 735.091 50.2708 735.337 50.1777C735.591 50.0762 735.87 50.0254 736.175 50.0254C736.86 50.0254 737.381 50.2497 737.736 50.6982C738.092 51.1468 738.27 51.8408 738.27 52.7803C738.473 52.3402 738.672 51.9508 738.866 51.6123C739.061 51.2653 739.268 50.9775 739.488 50.749C739.717 50.512 739.966 50.3343 740.237 50.2158C740.508 50.0889 740.821 50.0254 741.177 50.0254C742.776 50.0254 743.576 51.2568 743.576 53.7197V63H741.545ZM754.938 63L754.888 61.2861C754.194 61.9717 753.487 62.4668 752.768 62.7715C752.057 63.0762 751.308 63.2285 750.521 63.2285C749.793 63.2285 749.171 63.1354 748.654 62.9492C748.138 62.763 747.711 62.5091 747.372 62.1875C747.042 61.8574 746.797 61.4723 746.636 61.0322C746.483 60.5921 746.407 60.1139 746.407 59.5977C746.407 58.3197 746.881 57.321 747.829 56.6016C748.785 55.8737 750.195 55.5098 752.057 55.5098H754.697V54.3926C754.697 53.6393 754.456 53.0384 753.974 52.5898C753.491 52.1328 752.755 51.9043 751.765 51.9043C751.045 51.9043 750.334 51.9847 749.632 52.1455C748.938 52.3063 748.218 52.5348 747.474 52.8311V50.8379C747.753 50.7363 748.062 50.639 748.4 50.5459C748.747 50.4443 749.111 50.3555 749.492 50.2793C749.873 50.2031 750.271 50.1439 750.686 50.1016C751.1 50.0508 751.519 50.0254 751.942 50.0254C752.713 50.0254 753.407 50.11 754.024 50.2793C754.642 50.4486 755.163 50.7067 755.586 51.0537C756.018 51.4007 756.348 51.8366 756.576 52.3613C756.805 52.8861 756.919 53.5039 756.919 54.2148V63H754.938ZM754.697 57.1982H751.892C751.341 57.1982 750.868 57.2533 750.47 57.3633C750.072 57.4733 749.746 57.6299 749.492 57.833C749.238 58.0361 749.048 58.2816 748.921 58.5693C748.802 58.8486 748.743 59.166 748.743 59.5215C748.743 59.7669 748.781 60.0039 748.857 60.2324C748.934 60.4525 749.056 60.6514 749.226 60.8291C749.395 60.9984 749.615 61.1338 749.886 61.2354C750.157 61.3369 750.487 61.3877 750.876 61.3877C751.384 61.3877 751.964 61.2354 752.615 60.9307C753.275 60.6175 753.969 60.1266 754.697 59.458V57.1982ZM772.534 63H769.602L766.161 58.1377L762.759 63H759.902L764.841 56.6016L760.131 50.2539H762.962L766.313 55.1543L769.602 50.2539H772.331L767.545 56.6523L772.534 63ZM782.97 68.332C779.068 64.7181 777.117 60.7233 777.117 56.3477C777.117 55.3236 777.219 54.3037 777.422 53.2881C777.633 52.264 777.968 51.2399 778.425 50.2158C778.89 49.1917 779.5 48.1676 780.253 47.1436C781.015 46.1195 781.937 45.1038 783.021 44.0967L784.303 45.4043C781.019 48.6458 779.377 52.2386 779.377 56.1826C779.377 58.1462 779.792 60.0335 780.621 61.8447C781.451 63.6559 782.678 65.3656 784.303 66.9736L782.97 68.332ZM799.88 63H797.671V54.8623C797.671 53.8805 797.485 53.1484 797.112 52.666C796.748 52.1751 796.224 51.9297 795.538 51.9297C795.242 51.9297 794.963 51.972 794.7 52.0566C794.446 52.1328 794.18 52.2725 793.9 52.4756C793.621 52.6702 793.316 52.9368 792.986 53.2754C792.656 53.6139 792.275 54.0371 791.844 54.5449V63H789.635V45.0615H791.844V50.2539L791.768 52.2598C792.115 51.8451 792.453 51.498 792.783 51.2188C793.122 50.931 793.456 50.6982 793.786 50.5205C794.125 50.3428 794.467 50.2158 794.814 50.1396C795.161 50.0635 795.521 50.0254 795.894 50.0254C797.163 50.0254 798.145 50.4147 798.839 51.1934C799.533 51.9635 799.88 53.1273 799.88 54.6846V63ZM808.271 52.082H804.501V50.2539H810.506V61.1592H814.302V63H804.082V61.1592H808.271V52.082ZM809.046 44.9092C809.291 44.9092 809.52 44.9557 809.731 45.0488C809.943 45.1335 810.125 45.2562 810.277 45.417C810.438 45.5778 810.561 45.764 810.646 45.9756C810.739 46.1787 810.785 46.403 810.785 46.6484C810.785 46.8854 810.739 47.1097 810.646 47.3213C810.561 47.5329 810.438 47.7191 810.277 47.8799C810.125 48.0407 809.943 48.1676 809.731 48.2607C809.52 48.3454 809.291 48.3877 809.046 48.3877C808.8 48.3877 808.572 48.3454 808.36 48.2607C808.149 48.1676 807.963 48.0407 807.802 47.8799C807.649 47.7191 807.527 47.5329 807.434 47.3213C807.349 47.1097 807.307 46.8854 807.307 46.6484C807.307 46.403 807.349 46.1787 807.434 45.9756C807.527 45.764 807.649 45.5778 807.802 45.417C807.963 45.2562 808.149 45.1335 808.36 45.0488C808.572 44.9557 808.8 44.9092 809.046 44.9092ZM827.403 52.0566C827.64 52.3529 827.822 52.6999 827.949 53.0977C828.085 53.487 828.152 53.9102 828.152 54.3672C828.152 55.0273 828.03 55.6325 827.784 56.1826C827.547 56.7243 827.209 57.1898 826.769 57.5791C826.328 57.9684 825.799 58.2731 825.182 58.4932C824.572 58.7048 823.899 58.8105 823.163 58.8105C822.63 58.8105 822.131 58.7555 821.665 58.6455C821.2 58.527 820.831 58.3831 820.561 58.2139C820.4 58.4508 820.264 58.6751 820.154 58.8867C820.044 59.0983 819.989 59.3353 819.989 59.5977C819.989 59.9193 820.142 60.1859 820.446 60.3975C820.759 60.609 821.17 60.7233 821.678 60.7402L825.029 60.8672C825.664 60.8841 826.248 60.9645 826.781 61.1084C827.323 61.2523 827.784 61.4596 828.165 61.7305C828.554 62.0013 828.855 62.3356 829.066 62.7334C829.286 63.1312 829.396 63.5924 829.396 64.1172C829.396 64.6842 829.274 65.2217 829.028 65.7295C828.783 66.2373 828.402 66.6816 827.886 67.0625C827.378 67.4518 826.73 67.7607 825.943 67.9893C825.156 68.2178 824.221 68.332 823.138 68.332C822.105 68.332 821.225 68.2474 820.497 68.0781C819.778 67.9173 819.185 67.6888 818.72 67.3926C818.254 67.1048 817.916 66.7578 817.704 66.3516C817.493 65.9538 817.387 65.5137 817.387 65.0312C817.387 64.4134 817.531 63.8717 817.818 63.4062C818.106 62.9408 818.55 62.4922 819.151 62.0605C818.931 61.959 818.741 61.832 818.58 61.6797C818.419 61.5273 818.288 61.3623 818.187 61.1846C818.085 60.9984 818.009 60.8037 817.958 60.6006C817.907 60.3975 817.882 60.1986 817.882 60.0039C817.882 59.4538 818.009 58.9502 818.263 58.4932C818.525 58.0361 818.834 57.6045 819.189 57.1982C819.029 57.0036 818.885 56.8132 818.758 56.627C818.639 56.4408 818.534 56.2419 818.44 56.0303C818.356 55.8102 818.288 55.5775 818.237 55.332C818.195 55.0781 818.174 54.7904 818.174 54.4688C818.174 53.8086 818.292 53.2077 818.529 52.666C818.775 52.1159 819.113 51.6462 819.545 51.2568C819.985 50.8675 820.51 50.5671 821.119 50.3555C821.737 50.1354 822.418 50.0254 823.163 50.0254C823.476 50.0254 823.777 50.0465 824.064 50.0889C824.352 50.1312 824.606 50.1862 824.826 50.2539H829.447V52.0566H827.403ZM819.735 64.8408C819.735 65.4417 820.049 65.8776 820.675 66.1484C821.301 66.4277 822.173 66.5674 823.29 66.5674C823.993 66.5674 824.581 66.5039 825.055 66.377C825.537 66.25 825.922 66.0807 826.21 65.8691C826.506 65.666 826.718 65.429 826.845 65.1582C826.972 64.8958 827.035 64.625 827.035 64.3457C827.035 63.8294 826.824 63.4486 826.4 63.2031C825.977 62.9577 825.33 62.8138 824.458 62.7715L821.132 62.6572C820.853 62.8434 820.62 63.0254 820.434 63.2031C820.256 63.3809 820.116 63.5586 820.015 63.7363C819.913 63.9225 819.841 64.1045 819.799 64.2822C819.757 64.4684 819.735 64.6546 819.735 64.8408ZM820.408 54.418C820.408 54.8242 820.476 55.1966 820.611 55.5352C820.747 55.8737 820.937 56.1615 821.183 56.3984C821.428 56.6354 821.716 56.8216 822.046 56.957C822.384 57.084 822.757 57.1475 823.163 57.1475C823.603 57.1475 823.993 57.0755 824.331 56.9316C824.678 56.7793 824.966 56.5762 825.194 56.3223C825.431 56.0684 825.609 55.7764 825.728 55.4463C825.854 55.1162 825.918 54.7734 825.918 54.418C825.918 54.0117 825.85 53.6393 825.715 53.3008C825.579 52.9622 825.389 52.6745 825.144 52.4375C824.898 52.2005 824.606 52.0186 824.268 51.8916C823.938 51.7562 823.569 51.6885 823.163 51.6885C822.723 51.6885 822.329 51.7646 821.982 51.917C821.644 52.0693 821.356 52.2725 821.119 52.5264C820.891 52.7718 820.713 53.0596 820.586 53.3896C820.467 53.7197 820.408 54.0625 820.408 54.418ZM842.765 63H840.556V54.8623C840.556 53.8805 840.369 53.1484 839.997 52.666C839.633 52.1751 839.108 51.9297 838.423 51.9297C838.127 51.9297 837.847 51.972 837.585 52.0566C837.331 52.1328 837.064 52.2725 836.785 52.4756C836.506 52.6702 836.201 52.9368 835.871 53.2754C835.541 53.6139 835.16 54.0371 834.729 54.5449V63H832.52V45.0615H834.729V50.2539L834.652 52.2598C834.999 51.8451 835.338 51.498 835.668 51.2188C836.007 50.931 836.341 50.6982 836.671 50.5205C837.009 50.3428 837.352 50.2158 837.699 50.1396C838.046 50.0635 838.406 50.0254 838.778 50.0254C840.048 50.0254 841.03 50.4147 841.724 51.1934C842.418 51.9635 842.765 53.1273 842.765 54.6846V63ZM857.58 55.9541C857.58 56.2673 857.576 56.5296 857.567 56.7412C857.559 56.9528 857.546 57.1517 857.529 57.3379H848.579C848.579 58.6413 848.943 59.6442 849.671 60.3467C850.399 61.0407 851.448 61.3877 852.819 61.3877C853.192 61.3877 853.564 61.375 853.937 61.3496C854.309 61.3158 854.669 61.2734 855.016 61.2227C855.363 61.1719 855.693 61.1169 856.006 61.0576C856.327 60.9899 856.624 60.918 856.895 60.8418V62.6572C856.294 62.8265 855.612 62.9619 854.851 63.0635C854.097 63.1735 853.314 63.2285 852.502 63.2285C851.41 63.2285 850.471 63.0804 849.684 62.7842C848.896 62.488 848.249 62.0605 847.741 61.502C847.242 60.9349 846.869 60.2451 846.624 59.4326C846.387 58.6117 846.269 57.6849 846.269 56.6523C846.269 55.7552 846.396 54.9089 846.649 54.1133C846.912 53.3092 847.288 52.6068 847.779 52.0059C848.279 51.3965 848.888 50.9141 849.607 50.5586C850.327 50.2031 851.144 50.0254 852.058 50.0254C852.946 50.0254 853.733 50.165 854.419 50.4443C855.104 50.7236 855.68 51.1214 856.146 51.6377C856.619 52.1455 856.975 52.7676 857.212 53.5039C857.457 54.2318 857.58 55.0485 857.58 55.9541ZM855.282 55.6367C855.308 55.0697 855.253 54.5534 855.117 54.0879C854.982 53.6139 854.77 53.2077 854.482 52.8691C854.203 52.5306 853.852 52.2682 853.429 52.082C853.006 51.8874 852.515 51.79 851.956 51.79C851.474 51.79 851.034 51.8831 850.636 52.0693C850.238 52.2555 849.895 52.5179 849.607 52.8564C849.32 53.195 849.087 53.6012 848.909 54.0752C848.731 54.5492 848.621 55.0697 848.579 55.6367H855.282ZM871.202 59.5215C871.202 59.9701 871.126 60.3721 870.974 60.7275C870.821 61.083 870.614 61.4004 870.352 61.6797C870.089 61.9505 869.785 62.1833 869.438 62.3779C869.09 62.5726 868.718 62.7334 868.32 62.8604C867.931 62.9873 867.529 63.0804 867.114 63.1396C866.7 63.1989 866.293 63.2285 865.896 63.2285C865.032 63.2285 864.237 63.1904 863.509 63.1143C862.789 63.0381 862.083 62.9154 861.389 62.7461V60.7148C862.133 60.9264 862.874 61.0872 863.61 61.1973C864.347 61.3073 865.079 61.3623 865.807 61.3623C866.865 61.3623 867.647 61.2184 868.155 60.9307C868.663 60.6429 868.917 60.2324 868.917 59.6992C868.917 59.4707 868.875 59.2676 868.79 59.0898C868.714 58.9036 868.57 58.7301 868.358 58.5693C868.147 58.4001 867.817 58.2266 867.368 58.0488C866.928 57.8711 866.323 57.668 865.553 57.4395C864.977 57.2702 864.444 57.0798 863.953 56.8682C863.471 56.6481 863.052 56.39 862.696 56.0938C862.341 55.7975 862.062 55.4505 861.858 55.0527C861.655 54.6549 861.554 54.1852 861.554 53.6436C861.554 53.2881 861.634 52.8988 861.795 52.4756C861.964 52.0524 862.248 51.6589 862.646 51.2949C863.043 50.931 863.581 50.6305 864.258 50.3936C864.935 50.1481 865.781 50.0254 866.797 50.0254C867.296 50.0254 867.851 50.055 868.46 50.1143C869.069 50.165 869.704 50.2581 870.364 50.3936V52.3613C869.67 52.1921 869.01 52.0693 868.384 51.9932C867.766 51.9085 867.229 51.8662 866.771 51.8662C866.221 51.8662 865.756 51.9085 865.375 51.9932C865.003 52.0778 864.698 52.1963 864.461 52.3486C864.232 52.4925 864.067 52.666 863.966 52.8691C863.864 53.0638 863.813 53.2754 863.813 53.5039C863.813 53.7324 863.856 53.9398 863.94 54.126C864.034 54.3122 864.199 54.4941 864.436 54.6719C864.681 54.8411 865.02 55.0146 865.451 55.1924C865.883 55.3617 866.446 55.5479 867.14 55.751C867.893 55.971 868.528 56.2038 869.044 56.4492C869.56 56.6862 869.979 56.9528 870.301 57.249C870.622 57.5452 870.851 57.8796 870.986 58.252C871.13 58.6243 871.202 59.0475 871.202 59.5215ZM885.675 62.8223C885.175 62.9492 884.659 63.0381 884.126 63.0889C883.593 63.1481 883.051 63.1777 882.501 63.1777C880.901 63.1777 879.708 62.818 878.921 62.0986C878.134 61.3708 877.74 60.2578 877.74 58.7598V52.1074H874.173V50.2539H877.74V46.75L879.949 46.1787V50.2539H885.675V52.1074H879.949V58.582C879.949 59.4961 880.19 60.1816 880.673 60.6387C881.164 61.0872 881.883 61.3115 882.831 61.3115C883.237 61.3115 883.682 61.2819 884.164 61.2227C884.646 61.1549 885.15 61.0534 885.675 60.918V62.8223ZM901.963 68.2051H887.668V66.377H901.963V68.2051ZM915.306 47.1182C914.146 46.8727 913.147 46.75 912.31 46.75C910.321 46.75 909.326 47.791 909.326 49.873V52.1074H914.912V53.9482H909.326V63H907.079V53.9482H902.979V52.1074H907.079V50C907.079 46.6061 908.848 44.9092 912.386 44.9092C913.266 44.9092 914.239 45.0107 915.306 45.2139V47.1182ZM918.81 50.2539H920.828L920.892 52.6025C921.645 51.6969 922.385 51.041 923.113 50.6348C923.85 50.2285 924.59 50.0254 925.335 50.0254C926.655 50.0254 927.654 50.4528 928.331 51.3076C929.017 52.1624 929.334 53.432 929.283 55.1162H927.049C927.074 53.999 926.909 53.1908 926.554 52.6914C926.207 52.1836 925.695 51.9297 925.018 51.9297C924.721 51.9297 924.421 51.9847 924.116 52.0947C923.82 52.1963 923.511 52.3656 923.189 52.6025C922.876 52.8311 922.542 53.1273 922.187 53.4912C921.831 53.8551 921.45 54.2952 921.044 54.8115V63H918.81V50.2539ZM943.35 55.9541C943.35 56.2673 943.345 56.5296 943.337 56.7412C943.328 56.9528 943.316 57.1517 943.299 57.3379H934.349C934.349 58.6413 934.713 59.6442 935.44 60.3467C936.168 61.0407 937.218 61.3877 938.589 61.3877C938.961 61.3877 939.334 61.375 939.706 61.3496C940.078 61.3158 940.438 61.2734 940.785 61.2227C941.132 61.1719 941.462 61.1169 941.775 61.0576C942.097 60.9899 942.393 60.918 942.664 60.8418V62.6572C942.063 62.8265 941.382 62.9619 940.62 63.0635C939.867 63.1735 939.084 63.2285 938.271 63.2285C937.18 63.2285 936.24 63.0804 935.453 62.7842C934.666 62.488 934.019 62.0605 933.511 61.502C933.011 60.9349 932.639 60.2451 932.394 59.4326C932.157 58.6117 932.038 57.6849 932.038 56.6523C932.038 55.7552 932.165 54.9089 932.419 54.1133C932.681 53.3092 933.058 52.6068 933.549 52.0059C934.048 51.3965 934.658 50.9141 935.377 50.5586C936.096 50.2031 936.913 50.0254 937.827 50.0254C938.716 50.0254 939.503 50.165 940.188 50.4443C940.874 50.7236 941.45 51.1214 941.915 51.6377C942.389 52.1455 942.744 52.7676 942.981 53.5039C943.227 54.2318 943.35 55.0485 943.35 55.9541ZM941.052 55.6367C941.077 55.0697 941.022 54.5534 940.887 54.0879C940.751 53.6139 940.54 53.2077 940.252 52.8691C939.973 52.5306 939.621 52.2682 939.198 52.082C938.775 51.8874 938.284 51.79 937.726 51.79C937.243 51.79 936.803 51.8831 936.405 52.0693C936.007 52.2555 935.665 52.5179 935.377 52.8564C935.089 53.195 934.856 53.6012 934.679 54.0752C934.501 54.5492 934.391 55.0697 934.349 55.6367H941.052ZM946.231 56.8936C946.231 55.9795 946.35 55.112 946.587 54.291C946.832 53.4701 947.205 52.7507 947.704 52.1328C948.212 51.5065 948.859 51.0114 949.646 50.6475C950.434 50.2835 951.373 50.1016 952.465 50.1016C952.896 50.1016 953.324 50.1354 953.747 50.2031C954.17 50.2708 954.619 50.3766 955.093 50.5205L957.048 50.0254V68.2051H954.826V63.3936L954.94 60.6641C953.739 62.3737 952.308 63.2285 950.649 63.2285C949.905 63.2285 949.257 63.0762 948.707 62.7715C948.157 62.4668 947.696 62.0352 947.323 61.4766C946.959 60.918 946.684 60.2493 946.498 59.4707C946.32 58.6921 946.231 57.833 946.231 56.8936ZM948.491 56.7539C948.491 57.4648 948.542 58.1038 948.644 58.6709C948.754 59.238 948.914 59.7204 949.126 60.1182C949.346 60.5075 949.617 60.8079 949.938 61.0195C950.269 61.2311 950.654 61.3369 951.094 61.3369C951.652 61.3369 952.241 61.0872 952.858 60.5879C953.485 60.0885 954.141 59.348 954.826 58.3662V52.4502C954.488 52.2894 954.103 52.1582 953.671 52.0566C953.248 51.9551 952.795 51.9043 952.312 51.9043C951.068 51.9043 950.12 52.3148 949.469 53.1357C948.817 53.9567 948.491 55.1628 948.491 56.7539ZM962.164 65.6025C962.596 65.6195 963.015 65.5814 963.421 65.4883C963.827 65.3952 964.183 65.2555 964.487 65.0693C964.8 64.8916 965.05 64.6673 965.236 64.3965C965.423 64.1257 965.516 63.8167 965.516 63.4697C965.516 63.1143 965.452 62.8265 965.325 62.6064C965.207 62.3864 965.071 62.1833 964.919 61.9971C964.767 61.8109 964.627 61.612 964.5 61.4004C964.382 61.1888 964.322 60.9053 964.322 60.5498C964.322 60.3721 964.356 60.1859 964.424 59.9912C964.492 59.7965 964.593 59.6188 964.729 59.458C964.872 59.2972 965.05 59.166 965.262 59.0645C965.482 58.9629 965.74 58.9121 966.036 58.9121C966.332 58.9121 966.616 58.9756 966.887 59.1025C967.166 59.221 967.407 59.4072 967.61 59.6611C967.822 59.915 967.987 60.2324 968.105 60.6133C968.232 60.9941 968.296 61.4427 968.296 61.959C968.296 62.6615 968.165 63.3343 967.902 63.9775C967.648 64.6292 967.263 65.2048 966.747 65.7041C966.239 66.2035 965.6 66.6012 964.83 66.8975C964.068 67.1937 963.18 67.3418 962.164 67.3418V65.6025ZM1001.08 47.1182C999.916 46.8727 998.917 46.75 998.079 46.75C996.09 46.75 995.096 47.791 995.096 49.873V52.1074H1000.68V53.9482H995.096V63H992.849V53.9482H988.748V52.1074H992.849V50C992.849 46.6061 994.618 44.9092 998.155 44.9092C999.035 44.9092 1000.01 45.0107 1001.08 45.2139V47.1182ZM1004.58 50.2539H1006.6L1006.66 52.6025C1007.41 51.6969 1008.15 51.041 1008.88 50.6348C1009.62 50.2285 1010.36 50.0254 1011.1 50.0254C1012.42 50.0254 1013.42 50.4528 1014.1 51.3076C1014.79 52.1624 1015.1 53.432 1015.05 55.1162H1012.82C1012.84 53.999 1012.68 53.1908 1012.32 52.6914C1011.98 52.1836 1011.46 51.9297 1010.79 51.9297C1010.49 51.9297 1010.19 51.9847 1009.89 52.0947C1009.59 52.1963 1009.28 52.3656 1008.96 52.6025C1008.65 52.8311 1008.31 53.1273 1007.96 53.4912C1007.6 53.8551 1007.22 54.2952 1006.81 54.8115V63H1004.58V50.2539ZM1029.12 55.9541C1029.12 56.2673 1029.11 56.5296 1029.11 56.7412C1029.1 56.9528 1029.09 57.1517 1029.07 57.3379H1020.12C1020.12 58.6413 1020.48 59.6442 1021.21 60.3467C1021.94 61.0407 1022.99 61.3877 1024.36 61.3877C1024.73 61.3877 1025.1 61.375 1025.48 61.3496C1025.85 61.3158 1026.21 61.2734 1026.55 61.2227C1026.9 61.1719 1027.23 61.1169 1027.54 61.0576C1027.87 60.9899 1028.16 60.918 1028.43 60.8418V62.6572C1027.83 62.8265 1027.15 62.9619 1026.39 63.0635C1025.64 63.1735 1024.85 63.2285 1024.04 63.2285C1022.95 63.2285 1022.01 63.0804 1021.22 62.7842C1020.44 62.488 1019.79 62.0605 1019.28 61.502C1018.78 60.9349 1018.41 60.2451 1018.16 59.4326C1017.93 58.6117 1017.81 57.6849 1017.81 56.6523C1017.81 55.7552 1017.93 54.9089 1018.19 54.1133C1018.45 53.3092 1018.83 52.6068 1019.32 52.0059C1019.82 51.3965 1020.43 50.9141 1021.15 50.5586C1021.87 50.2031 1022.68 50.0254 1023.6 50.0254C1024.49 50.0254 1025.27 50.165 1025.96 50.4443C1026.64 50.7236 1027.22 51.1214 1027.68 51.6377C1028.16 52.1455 1028.51 52.7676 1028.75 53.5039C1029 54.2318 1029.12 55.0485 1029.12 55.9541ZM1026.82 55.6367C1026.85 55.0697 1026.79 54.5534 1026.66 54.0879C1026.52 53.6139 1026.31 53.2077 1026.02 52.8691C1025.74 52.5306 1025.39 52.2682 1024.97 52.082C1024.54 51.8874 1024.05 51.79 1023.5 51.79C1023.01 51.79 1022.57 51.8831 1022.17 52.0693C1021.78 52.2555 1021.43 52.5179 1021.15 52.8564C1020.86 53.195 1020.63 53.6012 1020.45 54.0752C1020.27 54.5492 1020.16 55.0697 1020.12 55.6367H1026.82ZM1032 56.8936C1032 55.9795 1032.12 55.112 1032.36 54.291C1032.6 53.4701 1032.97 52.7507 1033.47 52.1328C1033.98 51.5065 1034.63 51.0114 1035.42 50.6475C1036.2 50.2835 1037.14 50.1016 1038.23 50.1016C1038.67 50.1016 1039.09 50.1354 1039.52 50.2031C1039.94 50.2708 1040.39 50.3766 1040.86 50.5205L1042.82 50.0254V68.2051H1040.6V63.3936L1040.71 60.6641C1039.51 62.3737 1038.08 63.2285 1036.42 63.2285C1035.67 63.2285 1035.03 63.0762 1034.48 62.7715C1033.93 62.4668 1033.47 62.0352 1033.09 61.4766C1032.73 60.918 1032.45 60.2493 1032.27 59.4707C1032.09 58.6921 1032 57.833 1032 56.8936ZM1034.26 56.7539C1034.26 57.4648 1034.31 58.1038 1034.41 58.6709C1034.52 59.238 1034.68 59.7204 1034.9 60.1182C1035.12 60.5075 1035.39 60.8079 1035.71 61.0195C1036.04 61.2311 1036.42 61.3369 1036.86 61.3369C1037.42 61.3369 1038.01 61.0872 1038.63 60.5879C1039.25 60.0885 1039.91 59.348 1040.6 58.3662V52.4502C1040.26 52.2894 1039.87 52.1582 1039.44 52.0566C1039.02 51.9551 1038.56 51.9043 1038.08 51.9043C1036.84 51.9043 1035.89 52.3148 1035.24 53.1357C1034.59 53.9567 1034.26 55.1628 1034.26 56.7539ZM1057.04 59.5215C1057.04 59.9701 1056.96 60.3721 1056.81 60.7275C1056.66 61.083 1056.45 61.4004 1056.19 61.6797C1055.92 61.9505 1055.62 62.1833 1055.27 62.3779C1054.92 62.5726 1054.55 62.7334 1054.15 62.8604C1053.76 62.9873 1053.36 63.0804 1052.95 63.1396C1052.53 63.1989 1052.13 63.2285 1051.73 63.2285C1050.87 63.2285 1050.07 63.1904 1049.34 63.1143C1048.62 63.0381 1047.92 62.9154 1047.22 62.7461V60.7148C1047.97 60.9264 1048.71 61.0872 1049.44 61.1973C1050.18 61.3073 1050.91 61.3623 1051.64 61.3623C1052.7 61.3623 1053.48 61.2184 1053.99 60.9307C1054.5 60.6429 1054.75 60.2324 1054.75 59.6992C1054.75 59.4707 1054.71 59.2676 1054.62 59.0898C1054.55 58.9036 1054.4 58.7301 1054.19 58.5693C1053.98 58.4001 1053.65 58.2266 1053.2 58.0488C1052.76 57.8711 1052.16 57.668 1051.39 57.4395C1050.81 57.2702 1050.28 57.0798 1049.79 56.8682C1049.3 56.6481 1048.89 56.39 1048.53 56.0938C1048.17 55.7975 1047.9 55.4505 1047.69 55.0527C1047.49 54.6549 1047.39 54.1852 1047.39 53.6436C1047.39 53.2881 1047.47 52.8988 1047.63 52.4756C1047.8 52.0524 1048.08 51.6589 1048.48 51.2949C1048.88 50.931 1049.41 50.6305 1050.09 50.3936C1050.77 50.1481 1051.62 50.0254 1052.63 50.0254C1053.13 50.0254 1053.68 50.055 1054.29 50.1143C1054.9 50.165 1055.54 50.2581 1056.2 50.3936V52.3613C1055.5 52.1921 1054.84 52.0693 1054.22 51.9932C1053.6 51.9085 1053.06 51.8662 1052.61 51.8662C1052.06 51.8662 1051.59 51.9085 1051.21 51.9932C1050.84 52.0778 1050.53 52.1963 1050.29 52.3486C1050.07 52.4925 1049.9 52.666 1049.8 52.8691C1049.7 53.0638 1049.65 53.2754 1049.65 53.5039C1049.65 53.7324 1049.69 53.9398 1049.77 54.126C1049.87 54.3122 1050.03 54.4941 1050.27 54.6719C1050.51 54.8411 1050.85 55.0146 1051.29 55.1924C1051.72 55.3617 1052.28 55.5479 1052.97 55.751C1053.73 55.971 1054.36 56.2038 1054.88 56.4492C1055.39 56.6862 1055.81 56.9528 1056.13 57.249C1056.46 57.5452 1056.68 57.8796 1056.82 58.252C1056.96 58.6243 1057.04 59.0475 1057.04 59.5215ZM1069.85 68.2051H1063.59V44.6172H1069.85V46.3945H1065.69V66.4277H1069.85V68.2051ZM1082.11 45.0615L1081.74 51.0156H1079.56L1079.2 45.0615H1082.11ZM1100.72 56.3984C1100.72 57.4564 1100.57 58.4043 1100.28 59.2422C1099.99 60.0716 1099.57 60.7783 1099.03 61.3623C1098.5 61.9378 1097.85 62.3822 1097.08 62.6953C1096.31 63 1095.44 63.1523 1094.47 63.1523C1093.72 63.1523 1092.95 63.0804 1092.16 62.9365C1091.38 62.7926 1090.6 62.5641 1089.83 62.251V45.0615H1092.04V50L1091.94 52.3613C1092.57 51.5065 1093.25 50.9056 1093.97 50.5586C1094.69 50.2031 1095.47 50.0254 1096.3 50.0254C1097.03 50.0254 1097.67 50.1777 1098.22 50.4824C1098.77 50.7871 1099.23 51.2188 1099.6 51.7773C1099.98 52.3275 1100.26 52.9961 1100.44 53.7832C1100.63 54.5618 1100.72 55.4336 1100.72 56.3984ZM1098.46 56.5C1098.46 55.8314 1098.41 55.2178 1098.31 54.6592C1098.22 54.1006 1098.06 53.6224 1097.85 53.2246C1097.64 52.8268 1097.37 52.5179 1097.04 52.2979C1096.71 52.0693 1096.32 51.9551 1095.86 51.9551C1095.58 51.9551 1095.3 52.0016 1095.01 52.0947C1094.72 52.1794 1094.42 52.3275 1094.11 52.5391C1093.8 52.7422 1093.48 53.0173 1093.13 53.3643C1092.79 53.7028 1092.43 54.126 1092.04 54.6338V60.8164C1092.47 60.9857 1092.91 61.1211 1093.36 61.2227C1093.81 61.3158 1094.23 61.3623 1094.64 61.3623C1095.15 61.3623 1095.63 61.2819 1096.09 61.1211C1096.55 60.9603 1096.96 60.6937 1097.31 60.3213C1097.66 59.9404 1097.94 59.4411 1098.14 58.8232C1098.36 58.1969 1098.46 57.4225 1098.46 56.5ZM1110.7 45.0615L1110.33 51.0156H1108.15L1107.79 45.0615H1110.7ZM1126.3 68.2051H1120.04V66.4277H1124.17V46.3945H1120.04V44.6172H1126.3V68.2051ZM1135.32 44.0967C1139.22 47.7106 1141.17 51.7308 1141.17 56.1572C1141.17 57.0713 1141.07 58.0192 1140.89 59.001C1140.7 59.9827 1140.39 60.9899 1139.94 62.0225C1139.49 63.0465 1138.88 64.0876 1138.12 65.1455C1137.37 66.2035 1136.42 67.2656 1135.26 68.332L1133.98 67.0244C1135.63 65.391 1136.86 63.6855 1137.68 61.9082C1138.49 60.1309 1138.9 58.2689 1138.9 56.3223C1138.9 52.2936 1137.26 48.6712 1133.98 45.4551L1135.32 44.0967ZM714.44 88.7988H703.522V86.9326H714.44V88.7988ZM714.44 93.2168H703.522V91.3506H714.44V93.2168ZM743.221 97H732.29V95.0195L736.581 90.7539C737.284 90.0599 737.855 89.459 738.295 88.9512C738.735 88.4434 739.078 87.9821 739.323 87.5674C739.569 87.1442 739.734 86.7464 739.818 86.374C739.903 86.0016 739.945 85.5996 739.945 85.168C739.945 84.7617 739.89 84.3766 739.78 84.0127C739.67 83.6403 739.501 83.3145 739.272 83.0352C739.044 82.7559 738.748 82.5358 738.384 82.375C738.02 82.2142 737.584 82.1338 737.076 82.1338C736.374 82.1338 735.735 82.2904 735.159 82.6035C734.584 82.9167 734.055 83.3229 733.572 83.8223L732.354 82.3623C732.98 81.7021 733.699 81.1732 734.512 80.7754C735.333 80.3776 736.285 80.1787 737.368 80.1787C738.104 80.1787 738.773 80.2887 739.374 80.5088C739.983 80.7288 740.508 81.0462 740.948 81.4609C741.388 81.8757 741.727 82.3835 741.964 82.9844C742.209 83.5853 742.332 84.2624 742.332 85.0156C742.332 85.6504 742.247 86.2386 742.078 86.7803C741.909 87.3219 741.651 87.8636 741.304 88.4053C740.965 88.9385 740.534 89.4928 740.009 90.0684C739.493 90.6439 738.879 91.2744 738.168 91.96L735.159 94.8926H743.221V97Z" fill="black"/>
</svg>
