<svg width="422" height="91" viewBox="0 0 422 91" fill="none" xmlns="http://www.w3.org/2000/svg">
<g clip-path="url(#clip0_256_1093)">
<rect width="422" height="91" fill="white"/>
<path d="M45.333 84.0605V81.9766H54.5713V84.0605H45.333ZM45.333 88.293V86.209H54.5713V88.293H45.333ZM67.5264 83.9209C67.5264 85.0739 67.401 86.1051 67.1504 87.0146C66.8997 87.9242 66.5309 88.694 66.0439 89.3242C65.5641 89.9473 64.9769 90.4235 64.2822 90.7529C63.5876 91.0824 62.7926 91.2471 61.8975 91.2471C61.124 91.2471 60.4115 91.111 59.7598 90.8389C59.1081 90.5667 58.5459 90.1406 58.0732 89.5605C57.6006 88.9733 57.2318 88.2249 56.9668 87.3154C56.7018 86.4059 56.5693 85.3174 56.5693 84.0498C56.5693 82.8968 56.6947 81.8656 56.9453 80.9561C57.2031 80.0465 57.5719 79.2803 58.0518 78.6572C58.5316 78.027 59.1224 77.5472 59.8242 77.2178C60.526 76.8883 61.321 76.7236 62.209 76.7236C62.9824 76.7236 63.695 76.8597 64.3467 77.1318C64.9984 77.404 65.557 77.8301 66.0225 78.4102C66.4951 78.9902 66.8639 79.735 67.1289 80.6445C67.3939 81.554 67.5264 82.6462 67.5264 83.9209ZM59.2119 83.9639C59.2119 84.1071 59.2119 84.2432 59.2119 84.3721C59.2119 84.4938 59.2191 84.6191 59.2334 84.748L64.4971 80.9453C64.2464 80.2363 63.9134 79.7135 63.498 79.377C63.0898 79.0332 62.6064 78.8613 62.0479 78.8613C61.6468 78.8613 61.2744 78.9652 60.9307 79.1729C60.5869 79.3734 60.2861 79.6849 60.0283 80.1074C59.7777 80.5299 59.5771 81.0599 59.4268 81.6973C59.2835 82.3346 59.2119 83.0902 59.2119 83.9639ZM64.8838 84.0068C64.8838 83.8851 64.8802 83.7633 64.873 83.6416C64.8659 83.5127 64.8623 83.391 64.8623 83.2764L59.6309 87.0576C59.86 87.7523 60.1823 88.2679 60.5977 88.6045C61.013 88.9411 61.4964 89.1094 62.0479 89.1094C62.4489 89.1094 62.8213 89.0055 63.165 88.7979C63.516 88.5902 63.8167 88.2786 64.0674 87.8633C64.3252 87.4408 64.5257 86.9108 64.6689 86.2734C64.8122 85.6289 64.8838 84.8734 64.8838 84.0068Z" fill="black"/>
<path d="M200.833 84.0605V81.9766H210.071V84.0605H200.833ZM200.833 88.293V86.209H210.071V88.293H200.833ZM213.133 91V88.6689H216.71V79.6455L213.595 81.3643L212.735 79.2266L217.193 76.874H219.396V88.6689H222.479V91H213.133Z" fill="black"/>
<path d="M353.833 84.0605V81.9766H363.071V84.0605H353.833ZM353.833 88.293V86.209H363.071V88.293H353.833ZM365.886 91V89.0664L369.205 85.7471C369.828 85.124 370.326 84.5869 370.698 84.1357C371.078 83.6846 371.368 83.2835 371.568 82.9326C371.776 82.5745 371.912 82.2451 371.977 81.9443C372.041 81.6436 372.073 81.332 372.073 81.0098C372.073 80.7448 372.03 80.4941 371.944 80.2578C371.858 80.0143 371.733 79.8066 371.568 79.6348C371.404 79.4557 371.196 79.3161 370.945 79.2158C370.695 79.1084 370.408 79.0547 370.086 79.0547C369.535 79.0547 369.022 79.1764 368.55 79.4199C368.077 79.6562 367.63 79.9749 367.207 80.376L365.821 78.5928C366.43 78.027 367.114 77.5758 367.873 77.2393C368.639 76.8955 369.466 76.7236 370.354 76.7236C371.042 76.7236 371.665 76.8132 372.224 76.9922C372.782 77.1641 373.258 77.4219 373.652 77.7656C374.053 78.1094 374.361 78.5391 374.576 79.0547C374.798 79.5703 374.909 80.1647 374.909 80.8379C374.909 81.3965 374.834 81.9193 374.684 82.4062C374.533 82.8861 374.315 83.3551 374.028 83.8135C373.742 84.2718 373.387 84.7301 372.965 85.1885C372.549 85.6468 372.073 86.1302 371.536 86.6387L369.495 88.583H375.414V91H365.886Z" fill="black"/>
<path d="M364.145 49.7071C364.535 50.0976 365.169 50.0976 365.559 49.7071L371.923 43.3431C372.314 42.9526 372.314 42.3195 371.923 41.9289C371.533 41.5384 370.899 41.5384 370.509 41.9289L364.852 47.5858L359.195 41.9289C358.805 41.5384 358.172 41.5384 357.781 41.9289C357.39 42.3195 357.39 42.9526 357.781 43.3431L364.145 49.7071ZM363.852 19L363.852 49L365.852 49L365.852 19L363.852 19Z" fill="#999999"/>
<path d="M364.145 49.7071C364.535 50.0976 365.169 50.0976 365.559 49.7071L371.923 43.3431C372.314 42.9526 372.314 42.3195 371.923 41.9289C371.533 41.5384 370.899 41.5384 370.509 41.9289L364.852 47.5858L359.195 41.9289C358.805 41.5384 358.172 41.5384 357.781 41.9289C357.39 42.3195 357.39 42.9526 357.781 43.3431L364.145 49.7071ZM363.852 19L363.852 49L365.852 49L365.852 19L363.852 19Z" fill="#999999"/>
<path d="M352.568 49.3807C352.357 49.8914 351.773 50.135 351.262 49.9247L342.94 46.4979C342.43 46.2876 342.186 45.7032 342.396 45.1925C342.607 44.6818 343.191 44.4383 343.702 44.6486L351.099 47.6946L354.145 40.2971C354.355 39.7865 354.94 39.5429 355.451 39.7532C355.961 39.9635 356.205 40.548 355.994 41.0586L352.568 49.3807ZM325.267 18.0903C336.919 23.4096 343.149 29.528 346.775 35.1451C350.342 40.6707 351.413 45.8469 352.566 48.6154L350.72 49.3846C349.374 46.1531 348.548 41.5793 345.095 36.2299C341.701 30.972 335.785 25.0904 324.437 19.9097L325.267 18.0903Z" fill="#999999"/>
<path d="M377.68 49.3807C377.89 49.8914 378.475 50.135 378.985 49.9247L387.307 46.4979C387.818 46.2876 388.062 45.7032 387.851 45.1925C387.641 44.6818 387.057 44.4383 386.546 44.6486L379.148 47.6946L376.102 40.2971C375.892 39.7865 375.308 39.5429 374.797 39.7532C374.286 39.9635 374.043 40.548 374.253 41.0586L377.68 49.3807ZM404.98 18.0903C393.328 23.4096 387.099 29.528 383.472 35.1451C379.905 40.6707 378.835 45.8469 377.681 48.6154L379.528 49.3846C380.874 46.1531 381.699 41.5793 385.153 36.2299C388.547 30.972 394.463 25.0904 405.811 19.9097L404.98 18.0903Z" fill="#999999"/>
<path d="M209.997 49.7071C210.388 50.0976 211.021 50.0976 211.411 49.7071L217.775 43.3431C218.166 42.9526 218.166 42.3195 217.775 41.9289C217.385 41.5384 216.751 41.5384 216.361 41.9289L210.704 47.5858L205.047 41.9289C204.657 41.5384 204.024 41.5384 203.633 41.9289C203.243 42.3195 203.243 42.9526 203.633 43.3431L209.997 49.7071ZM209.704 19L209.704 49L211.704 49L211.704 19L209.704 19Z" fill="#999999"/>
<path d="M209.997 49.7071C210.388 50.0976 211.021 50.0976 211.411 49.7071L217.775 43.3431C218.166 42.9526 218.166 42.3195 217.775 41.9289C217.385 41.5384 216.751 41.5384 216.361 41.9289L210.704 47.5858L205.047 41.9289C204.657 41.5384 204.024 41.5384 203.633 41.9289C203.243 42.3195 203.243 42.9526 203.633 43.3431L209.997 49.7071ZM209.704 19L209.704 49L211.704 49L211.704 19L209.704 19Z" fill="#999999"/>
<path d="M198.42 49.3807C198.21 49.8914 197.625 50.135 197.114 49.9247L188.792 46.4979C188.282 46.2876 188.038 45.7032 188.248 45.1925C188.459 44.6818 189.043 44.4383 189.554 44.6486L196.951 47.6946L199.997 40.2971C200.207 39.7865 200.792 39.5429 201.303 39.7532C201.813 39.9635 202.057 40.548 201.847 41.0586L198.42 49.3807ZM171.119 18.0903C182.771 23.4096 189.001 29.528 192.627 35.1451C196.194 40.6707 197.265 45.8469 198.418 48.6154L196.572 49.3846C195.226 46.1531 194.4 41.5793 190.947 36.2299C187.553 30.972 181.637 25.0904 170.289 19.9097L171.119 18.0903Z" fill="#999999"/>
<path d="M223.532 49.3807C223.742 49.8914 224.327 50.135 224.837 49.9247L233.159 46.4979C233.67 46.2876 233.914 45.7032 233.703 45.1925C233.493 44.6818 232.909 44.4383 232.398 44.6486L225 47.6946L221.954 40.2971C221.744 39.7865 221.16 39.5429 220.649 39.7532C220.138 39.9635 219.895 40.548 220.105 41.0586L223.532 49.3807ZM250.832 18.0903C239.18 23.4096 232.951 29.528 229.324 35.1451C225.757 40.6707 224.687 45.8469 223.533 48.6154L225.38 49.3846C226.726 46.1531 227.551 41.5793 231.005 36.2299C234.399 30.972 240.315 25.0904 251.663 19.9097L250.832 18.0903Z" fill="#999999"/>
<path d="M54.997 49.7071C55.3875 50.0976 56.0207 50.0976 56.4112 49.7071L62.7752 43.3431C63.1657 42.9526 63.1657 42.3195 62.7752 41.9289C62.3846 41.5384 61.7515 41.5384 61.361 41.9289L55.7041 47.5858L50.0472 41.9289C49.6567 41.5384 49.0236 41.5384 48.633 41.9289C48.2425 42.3195 48.2425 42.9526 48.633 43.3431L54.997 49.7071ZM54.7041 19L54.7041 49L56.7041 49L56.7041 19L54.7041 19Z" fill="#999999"/>
<path d="M54.997 49.7071C55.3875 50.0976 56.0207 50.0976 56.4112 49.7071L62.7752 43.3431C63.1657 42.9526 63.1657 42.3195 62.7752 41.9289C62.3846 41.5384 61.7515 41.5384 61.361 41.9289L55.7041 47.5858L50.0472 41.9289C49.6567 41.5384 49.0236 41.5384 48.633 41.9289C48.2425 42.3195 48.2425 42.9526 48.633 43.3431L54.997 49.7071ZM54.7041 19L54.7041 49L56.7041 49L56.7041 19L54.7041 19Z" fill="#999999"/>
<path d="M43.4198 49.3807C43.2095 49.8914 42.625 50.135 42.1144 49.9247L33.7923 46.4979C33.2816 46.2876 33.038 45.7032 33.2483 45.1925C33.4586 44.6818 34.0431 44.4383 34.5538 44.6486L41.9512 47.6946L44.9972 40.2971C45.2075 39.7865 45.7919 39.5429 46.3026 39.7532C46.8133 39.9635 47.0568 40.548 46.8465 41.0586L43.4198 49.3807ZM16.1194 18.0903C27.7712 23.4096 34.001 29.528 37.6273 35.1451C41.1943 40.6707 42.2647 45.8469 43.4182 48.6154L41.572 49.3846C40.2256 46.1531 39.4004 41.5793 35.947 36.2299C32.5527 30.972 26.637 25.0904 15.2888 19.9097L16.1194 18.0903Z" fill="#999999"/>
<path d="M68.5319 49.3807C68.7422 49.8914 69.3266 50.135 69.8373 49.9247L78.1594 46.4979C78.6701 46.2876 78.9136 45.7032 78.7033 45.1925C78.493 44.6818 77.9086 44.4383 77.3979 44.6486L70.0005 47.6946L66.9545 40.2971C66.7442 39.7865 66.1597 39.5429 65.649 39.7532C65.1384 39.9635 64.8948 40.548 65.1051 41.0586L68.5319 49.3807ZM95.8323 18.0903C84.1805 23.4096 77.9507 29.528 74.3244 35.1451C70.7573 40.6707 69.687 45.8469 68.5335 48.6154L70.3796 49.3846C71.7261 46.1531 72.5513 41.5793 76.0047 36.2299C79.399 30.972 85.3147 25.0904 96.6629 19.9097L95.8323 18.0903Z" fill="#999999"/>
<path opacity="0.5" d="M11.1025 7.98535C11.1025 9.05957 10.9951 10.0407 10.7803 10.9287C10.5654 11.8096 10.2396 12.5687 9.80273 13.2061C9.36589 13.8363 8.82161 14.3268 8.16992 14.6777C7.52539 15.0215 6.76628 15.1934 5.89258 15.1934C5.14062 15.1934 4.45671 15.0537 3.84082 14.7744C3.22493 14.488 2.69857 14.0511 2.26172 13.4639C1.82487 12.8766 1.48828 12.1283 1.25195 11.2188C1.01562 10.3092 0.897461 9.23145 0.897461 7.98535C0.897461 6.91113 1.00488 5.93001 1.21973 5.04199C1.44173 4.15397 1.76758 3.39486 2.19727 2.76465C2.63411 2.12728 3.17839 1.63672 3.83008 1.29297C4.48177 0.942057 5.24089 0.766602 6.10742 0.766602C6.85938 0.766602 7.54329 0.909831 8.15918 1.19629C8.77507 1.47559 9.30143 1.91243 9.73828 2.50684C10.1751 3.09408 10.5117 3.84245 10.748 4.75195C10.9844 5.66146 11.1025 6.73926 11.1025 7.98535ZM9.21191 8.0498C9.21191 7.80632 9.20117 7.56641 9.17969 7.33008C9.16536 7.08659 9.14746 6.85026 9.12598 6.62109L3.18555 11.0361C3.29297 11.4085 3.42904 11.7523 3.59375 12.0674C3.75846 12.3825 3.9554 12.6546 4.18457 12.8838C4.4209 13.1058 4.68587 13.2812 4.97949 13.4102C5.28027 13.5319 5.62044 13.5928 6 13.5928C6.48698 13.5928 6.92741 13.4746 7.32129 13.2383C7.72233 13.002 8.0625 12.651 8.3418 12.1855C8.62109 11.7201 8.83594 11.1436 8.98633 10.4561C9.13672 9.76139 9.21191 8.95931 9.21191 8.0498ZM2.78809 7.9209C2.78809 8.1429 2.78809 8.36491 2.78809 8.58691C2.79525 8.80892 2.80957 9.02376 2.83105 9.23145L8.77148 4.83789C8.66406 4.47266 8.52799 4.13965 8.36328 3.83887C8.19857 3.53809 8.00163 3.28027 7.77246 3.06543C7.54329 2.84342 7.2819 2.67155 6.98828 2.5498C6.69466 2.42806 6.36523 2.36719 6 2.36719C5.51302 2.36719 5.06901 2.48535 4.66797 2.72168C4.27409 2.95801 3.9375 3.3125 3.6582 3.78516C3.37891 4.25065 3.16406 4.83073 3.01367 5.52539C2.86328 6.21289 2.78809 7.01139 2.78809 7.9209Z" fill="black"/>
<path opacity="0.5" d="M59.6621 15H50.8428V13.2598H54.4521V3.01172L51.0898 4.83789L50.4023 3.24805L54.8711 0.895508H56.5254V13.2598H59.6621V15Z" fill="black"/>
<path opacity="0.5" d="M112.78 15H103.531V13.3242L107.162 9.71484C107.757 9.1276 108.24 8.61914 108.612 8.18945C108.985 7.75977 109.275 7.36947 109.482 7.01855C109.69 6.66048 109.83 6.32389 109.901 6.00879C109.973 5.69368 110.009 5.35352 110.009 4.98828C110.009 4.64453 109.962 4.31868 109.869 4.01074C109.776 3.69564 109.633 3.41992 109.439 3.18359C109.246 2.94727 108.995 2.76107 108.688 2.625C108.38 2.48893 108.011 2.4209 107.581 2.4209C106.987 2.4209 106.446 2.55339 105.959 2.81836C105.472 3.08333 105.024 3.42708 104.616 3.84961L103.585 2.61426C104.115 2.05566 104.724 1.60807 105.411 1.27148C106.106 0.934896 106.911 0.766602 107.828 0.766602C108.451 0.766602 109.017 0.859701 109.525 1.0459C110.041 1.2321 110.485 1.50065 110.857 1.85156C111.23 2.20247 111.516 2.63216 111.717 3.14062C111.924 3.64909 112.028 4.22201 112.028 4.85938C112.028 5.39648 111.957 5.89421 111.813 6.35254C111.67 6.81087 111.452 7.26921 111.158 7.72754C110.872 8.17871 110.507 8.64779 110.062 9.13477C109.626 9.62174 109.106 10.1553 108.505 10.7354L105.959 13.2168H112.78V15Z" fill="black"/>
<path opacity="0.5" d="M165.512 10.7354C165.512 11.3512 165.386 11.9313 165.136 12.4756C164.885 13.0127 164.509 13.4854 164.008 13.8936C163.507 14.2946 162.876 14.6133 162.117 14.8496C161.358 15.0788 160.474 15.1934 159.464 15.1934C158.905 15.1934 158.404 15.1755 157.96 15.1396C157.516 15.1038 157.101 15.0573 156.714 15V13.3242C157.158 13.403 157.627 13.4639 158.121 13.5068C158.615 13.5498 159.12 13.5713 159.636 13.5713C160.338 13.5713 160.936 13.5104 161.43 13.3887C161.931 13.2598 162.339 13.0771 162.654 12.8408C162.969 12.6045 163.199 12.318 163.342 11.9814C163.485 11.6449 163.557 11.2653 163.557 10.8428C163.557 10.4561 163.471 10.1195 163.299 9.83301C163.127 9.54655 162.883 9.30664 162.568 9.11328C162.26 8.91992 161.888 8.77669 161.451 8.68359C161.021 8.58333 160.549 8.5332 160.033 8.5332H158.433V6.99707H160.055C160.477 6.99707 160.86 6.94336 161.204 6.83594C161.555 6.72135 161.852 6.56022 162.096 6.35254C162.346 6.14486 162.536 5.89062 162.665 5.58984C162.801 5.2819 162.869 4.93457 162.869 4.54785C162.869 3.7959 162.64 3.24805 162.182 2.9043C161.723 2.56055 161.05 2.38867 160.162 2.38867C159.689 2.38867 159.202 2.43522 158.701 2.52832C158.2 2.62142 157.663 2.76107 157.09 2.94727V1.31445C157.333 1.22852 157.591 1.15332 157.863 1.08887C158.143 1.01725 158.418 0.959961 158.69 0.916992C158.97 0.866862 159.245 0.831055 159.518 0.80957C159.79 0.780924 160.051 0.766602 160.302 0.766602C161.047 0.766602 161.702 0.848958 162.268 1.01367C162.833 1.17122 163.306 1.40039 163.686 1.70117C164.065 2.00195 164.352 2.36719 164.545 2.79688C164.738 3.22656 164.835 3.70996 164.835 4.24707C164.835 5.04915 164.627 5.72233 164.212 6.2666C163.804 6.81087 163.242 7.24414 162.525 7.56641C162.891 7.6237 163.249 7.73828 163.6 7.91016C163.958 8.08203 164.276 8.30404 164.556 8.57617C164.842 8.84115 165.071 9.15625 165.243 9.52148C165.422 9.88672 165.512 10.2913 165.512 10.7354Z" fill="black"/>
<path opacity="0.5" d="M216.479 11.8955H214.083V15H212.171V11.8955H205.414V10.252L211.397 0.959961H214.083V10.252H216.479V11.8955ZM212.171 2.76465L207.283 10.252H212.171V2.76465Z" fill="black"/>
<path opacity="0.5" d="M266.426 10.5098C266.426 11.2044 266.275 11.8382 265.975 12.4111C265.674 12.984 265.258 13.4782 264.729 13.8936C264.206 14.3018 263.586 14.6204 262.87 14.8496C262.154 15.0788 261.381 15.1934 260.55 15.1934C260.342 15.1934 260.117 15.1862 259.873 15.1719C259.637 15.1647 259.4 15.1504 259.164 15.1289C258.928 15.1146 258.695 15.0967 258.466 15.0752C258.244 15.0537 258.043 15.0286 257.864 15V13.3027C258.251 13.3958 258.691 13.4639 259.186 13.5068C259.687 13.5498 260.192 13.5713 260.7 13.5713C261.273 13.5713 261.789 13.5033 262.247 13.3672C262.705 13.2311 263.096 13.0378 263.418 12.7871C263.74 12.5293 263.987 12.2214 264.159 11.8633C264.331 11.498 264.417 11.0898 264.417 10.6387C264.417 9.76497 264.102 9.13118 263.472 8.7373C262.849 8.33626 261.95 8.13574 260.775 8.13574H258.111V0.959961H265.674V2.59277H259.873V6.53516H261.098C261.771 6.53516 262.426 6.59603 263.063 6.71777C263.701 6.83952 264.267 7.05436 264.761 7.3623C265.262 7.66309 265.663 8.07129 265.964 8.58691C266.272 9.09538 266.426 9.73633 266.426 10.5098Z" fill="black"/>
<path opacity="0.5" d="M319.952 10.5527C319.952 11.1973 319.834 11.8024 319.598 12.3682C319.368 12.9339 319.039 13.4281 318.609 13.8506C318.18 14.266 317.66 14.5954 317.052 14.8389C316.45 15.0752 315.781 15.1934 315.043 15.1934C314.27 15.1934 313.586 15.0716 312.991 14.8281C312.397 14.5775 311.899 14.1979 311.498 13.6895C311.097 13.1738 310.793 12.5257 310.585 11.7451C310.377 10.9645 310.273 10.0407 310.273 8.97363C310.273 8.25749 310.32 7.56283 310.413 6.88965C310.506 6.21647 310.66 5.58268 310.875 4.98828C311.09 4.39388 311.376 3.84961 311.734 3.35547C312.092 2.86133 312.536 2.4388 313.066 2.08789C313.604 1.72982 314.234 1.4541 314.957 1.26074C315.68 1.06022 316.518 0.959961 317.471 0.959961H318.856V2.59277H317.353C316.515 2.59277 315.788 2.69303 315.172 2.89355C314.556 3.09408 314.04 3.37695 313.625 3.74219C313.21 4.10742 312.891 4.54785 312.669 5.06348C312.447 5.5791 312.307 6.1556 312.25 6.79297L312.207 7.2334C312.658 6.96842 313.177 6.75716 313.765 6.59961C314.359 6.4349 315 6.35254 315.688 6.35254C316.396 6.35254 317.016 6.45638 317.546 6.66406C318.083 6.87174 318.527 7.16178 318.878 7.53418C319.236 7.89941 319.505 8.33984 319.684 8.85547C319.863 9.37109 319.952 9.93685 319.952 10.5527ZM317.997 10.6709C317.997 10.2412 317.943 9.85449 317.836 9.51074C317.736 9.15983 317.575 8.86621 317.353 8.62988C317.131 8.38639 316.848 8.2002 316.504 8.07129C316.167 7.93522 315.763 7.86719 315.29 7.86719C315.018 7.86719 314.742 7.89225 314.463 7.94238C314.184 7.99251 313.908 8.06413 313.636 8.15723C313.371 8.24316 313.117 8.34342 312.873 8.45801C312.63 8.57259 312.408 8.69434 312.207 8.82324C312.207 9.74707 312.271 10.5205 312.4 11.1436C312.529 11.7594 312.719 12.2536 312.97 12.626C313.228 12.9984 313.543 13.2633 313.915 13.4209C314.287 13.5785 314.717 13.6572 315.204 13.6572C315.612 13.6572 315.985 13.5928 316.321 13.4639C316.665 13.3278 316.959 13.1309 317.202 12.873C317.453 12.6152 317.646 12.3037 317.782 11.9385C317.925 11.5661 317.997 11.1436 317.997 10.6709Z" fill="black"/>
<path opacity="0.5" d="M371.705 2.7002L365.818 15H363.681L369.793 2.7002H362.209V0.959961H371.705V2.7002Z" fill="black"/>
<path opacity="0.5" d="M420.78 11.4766C420.78 12.071 420.659 12.6009 420.415 13.0664C420.172 13.5247 419.831 13.9115 419.395 14.2266C418.958 14.5417 418.442 14.7816 417.848 14.9463C417.253 15.111 416.609 15.1934 415.914 15.1934C415.148 15.1934 414.471 15.1074 413.884 14.9355C413.304 14.7637 412.817 14.5238 412.423 14.2158C412.029 13.9079 411.732 13.5426 411.531 13.1201C411.331 12.6976 411.23 12.2321 411.23 11.7236C411.23 10.8643 411.47 10.123 411.95 9.5C412.43 8.87695 413.171 8.3112 414.174 7.80273C413.257 7.33724 412.588 6.82161 412.165 6.25586C411.743 5.68294 411.531 5.02767 411.531 4.29004C411.531 3.83887 411.624 3.40202 411.811 2.97949C411.997 2.55697 412.276 2.18099 412.648 1.85156C413.028 1.52214 413.501 1.26074 414.066 1.06738C414.632 0.866862 415.298 0.766602 416.064 0.766602C416.788 0.766602 417.422 0.845378 417.966 1.00293C418.517 1.15332 418.979 1.37174 419.352 1.6582C419.724 1.94466 420.003 2.29199 420.189 2.7002C420.376 3.1084 420.469 3.56315 420.469 4.06445C420.469 4.88086 420.24 5.57552 419.781 6.14844C419.33 6.72135 418.686 7.22266 417.848 7.65234C418.263 7.86003 418.65 8.08919 419.008 8.33984C419.366 8.59049 419.677 8.86979 419.942 9.17773C420.207 9.48568 420.411 9.82943 420.555 10.209C420.705 10.5885 420.78 11.0111 420.78 11.4766ZM418.557 4.21484C418.557 3.57747 418.331 3.10482 417.88 2.79688C417.436 2.48177 416.809 2.32422 416 2.32422C415.198 2.32422 414.571 2.47819 414.12 2.78613C413.676 3.09408 413.454 3.55599 413.454 4.17188C413.454 4.45117 413.508 4.70898 413.615 4.94531C413.723 5.18164 413.887 5.40365 414.109 5.61133C414.339 5.81901 414.621 6.02311 414.958 6.22363C415.295 6.42415 415.696 6.62826 416.161 6.83594C416.97 6.45638 417.572 6.0625 417.966 5.6543C418.36 5.23893 418.557 4.75911 418.557 4.21484ZM418.75 11.6162C418.75 11.3512 418.707 11.0934 418.621 10.8428C418.535 10.5921 418.381 10.3451 418.159 10.1016C417.937 9.85807 417.64 9.61458 417.268 9.37109C416.895 9.1276 416.423 8.87695 415.85 8.61914C415.363 8.85547 414.951 9.0918 414.614 9.32812C414.285 9.55729 414.016 9.79362 413.809 10.0371C413.608 10.2734 413.465 10.5205 413.379 10.7783C413.293 11.0361 413.25 11.3083 413.25 11.5947C413.25 11.917 413.318 12.2035 413.454 12.4541C413.597 12.6976 413.791 12.9053 414.034 13.0771C414.278 13.249 414.568 13.3779 414.904 13.4639C415.241 13.5498 415.606 13.5928 416 13.5928C416.38 13.5928 416.738 13.5534 417.074 13.4746C417.411 13.3958 417.701 13.2777 417.944 13.1201C418.195 12.9554 418.392 12.7513 418.535 12.5078C418.678 12.2572 418.75 11.96 418.75 11.6162Z" fill="black"/>
<path d="M44.2422 64.2305V62.0713H54.6729V64.2305H44.2422ZM49.4092 65.7236C49.6455 65.7236 49.8639 65.7666 50.0645 65.8525C50.2721 65.9313 50.4512 66.0423 50.6016 66.1855C50.752 66.3288 50.8701 66.4971 50.9561 66.6904C51.042 66.8766 51.085 67.0807 51.085 67.3027C51.085 67.5319 51.042 67.7467 50.9561 67.9473C50.8701 68.1478 50.752 68.3232 50.6016 68.4736C50.4512 68.6169 50.2721 68.7314 50.0645 68.8174C49.8639 68.8962 49.6455 68.9355 49.4092 68.9355C49.1729 68.9355 48.9544 68.8962 48.7539 68.8174C48.5534 68.7314 48.3779 68.6169 48.2275 68.4736C48.0843 68.3232 47.9697 68.1478 47.8838 67.9473C47.805 67.7467 47.7656 67.5319 47.7656 67.3027C47.7656 67.0807 47.805 66.8766 47.8838 66.6904C47.9697 66.4971 48.0843 66.3288 48.2275 66.1855C48.3779 66.0423 48.5534 65.9313 48.7539 65.8525C48.9544 65.7666 49.1729 65.7236 49.4092 65.7236ZM49.4092 60.5781C49.1729 60.5781 48.9544 60.5387 48.7539 60.46C48.5534 60.374 48.3779 60.2594 48.2275 60.1162C48.0843 59.973 47.9697 59.8047 47.8838 59.6113C47.805 59.418 47.7656 59.2103 47.7656 58.9883C47.7656 58.7591 47.805 58.5479 47.8838 58.3545C47.9697 58.154 48.0843 57.9821 48.2275 57.8389C48.3779 57.6885 48.5534 57.5739 48.7539 57.4951C48.9544 57.4092 49.1729 57.3662 49.4092 57.3662C49.6455 57.3662 49.8639 57.4092 50.0645 57.4951C50.2721 57.5739 50.4512 57.6885 50.6016 57.8389C50.752 57.9821 50.8701 58.154 50.9561 58.3545C51.042 58.5479 51.085 58.7591 51.085 58.9883C51.085 59.2103 51.042 59.418 50.9561 59.6113C50.8701 59.8047 50.752 59.973 50.6016 60.1162C50.4512 60.2594 50.2721 60.374 50.0645 60.46C49.8639 60.5387 49.6455 60.5781 49.4092 60.5781ZM66.457 64.7139C66.457 65.4085 66.3281 66.0352 66.0703 66.5938C65.8125 67.1452 65.415 67.6178 64.8779 68.0117C64.348 68.3984 63.6784 68.6956 62.8691 68.9033C62.0599 69.111 61.1074 69.2148 60.0117 69.2148C59.7682 69.2148 59.5104 69.2077 59.2383 69.1934C58.9733 69.1862 58.7083 69.1719 58.4434 69.1504C58.1784 69.1361 57.9206 69.1146 57.6699 69.0859C57.4193 69.0645 57.1937 69.0358 56.9932 69V66.7227C57.4443 66.8086 57.9492 66.8802 58.5078 66.9375C59.0736 66.9876 59.6608 67.0127 60.2695 67.0127C60.8639 67.0127 61.376 66.9626 61.8057 66.8623C62.2354 66.762 62.5898 66.6188 62.8691 66.4326C63.1484 66.2393 63.3525 66.0029 63.4814 65.7236C63.6175 65.4443 63.6855 65.1292 63.6855 64.7783C63.6855 64.4704 63.6175 64.1911 63.4814 63.9404C63.3454 63.6898 63.1377 63.4785 62.8584 63.3066C62.5791 63.1276 62.221 62.9915 61.7842 62.8984C61.3545 62.7982 60.8424 62.748 60.248 62.748H58.6904V60.75H60.1191C60.6777 60.75 61.1396 60.6963 61.5049 60.5889C61.8773 60.4743 62.1709 60.3239 62.3857 60.1377C62.6077 59.9515 62.7653 59.7331 62.8584 59.4824C62.9515 59.2246 62.998 58.9561 62.998 58.6768C62.998 58.1038 62.8118 57.6706 62.4395 57.377C62.0671 57.0762 61.4906 56.9258 60.71 56.9258C60.1514 56.9258 59.5999 56.9795 59.0557 57.0869C58.5114 57.1943 57.9492 57.3376 57.3691 57.5166V55.3145C57.6914 55.207 57.9993 55.1175 58.293 55.0459C58.5866 54.9743 58.8802 54.9134 59.1738 54.8633C59.4674 54.8132 59.7646 54.7773 60.0654 54.7559C60.3662 54.7344 60.6777 54.7236 61 54.7236C61.7734 54.7236 62.4502 54.806 63.0303 54.9707C63.6175 55.1354 64.1081 55.3717 64.502 55.6797C64.903 55.9805 65.2038 56.3493 65.4043 56.7861C65.6048 57.223 65.7051 57.71 65.7051 58.2471C65.7051 59.0993 65.5081 59.7904 65.1143 60.3203C64.7275 60.8431 64.1833 61.2441 63.4814 61.5234C63.9326 61.5951 64.3408 61.7204 64.7061 61.8994C65.0713 62.0713 65.3828 62.2969 65.6406 62.5762C65.9056 62.8483 66.1061 63.1634 66.2422 63.5215C66.3854 63.8796 66.457 64.277 66.457 64.7139Z" fill="#999999"/>
<path d="M199.242 64.2305V62.0713H209.673V64.2305H199.242ZM204.409 65.7236C204.646 65.7236 204.864 65.7666 205.064 65.8525C205.272 65.9313 205.451 66.0423 205.602 66.1855C205.752 66.3288 205.87 66.4971 205.956 66.6904C206.042 66.8766 206.085 67.0807 206.085 67.3027C206.085 67.5319 206.042 67.7467 205.956 67.9473C205.87 68.1478 205.752 68.3232 205.602 68.4736C205.451 68.6169 205.272 68.7314 205.064 68.8174C204.864 68.8962 204.646 68.9355 204.409 68.9355C204.173 68.9355 203.954 68.8962 203.754 68.8174C203.553 68.7314 203.378 68.6169 203.228 68.4736C203.084 68.3232 202.97 68.1478 202.884 67.9473C202.805 67.7467 202.766 67.5319 202.766 67.3027C202.766 67.0807 202.805 66.8766 202.884 66.6904C202.97 66.4971 203.084 66.3288 203.228 66.1855C203.378 66.0423 203.553 65.9313 203.754 65.8525C203.954 65.7666 204.173 65.7236 204.409 65.7236ZM204.409 60.5781C204.173 60.5781 203.954 60.5387 203.754 60.46C203.553 60.374 203.378 60.2594 203.228 60.1162C203.084 59.973 202.97 59.8047 202.884 59.6113C202.805 59.418 202.766 59.2103 202.766 58.9883C202.766 58.7591 202.805 58.5479 202.884 58.3545C202.97 58.154 203.084 57.9821 203.228 57.8389C203.378 57.6885 203.553 57.5739 203.754 57.4951C203.954 57.4092 204.173 57.3662 204.409 57.3662C204.646 57.3662 204.864 57.4092 205.064 57.4951C205.272 57.5739 205.451 57.6885 205.602 57.8389C205.752 57.9821 205.87 58.154 205.956 58.3545C206.042 58.5479 206.085 58.7591 206.085 58.9883C206.085 59.2103 206.042 59.418 205.956 59.6113C205.87 59.8047 205.752 59.973 205.602 60.1162C205.451 60.2594 205.272 60.374 205.064 60.46C204.864 60.5387 204.646 60.5781 204.409 60.5781ZM221.457 64.7139C221.457 65.4085 221.328 66.0352 221.07 66.5938C220.812 67.1452 220.415 67.6178 219.878 68.0117C219.348 68.3984 218.678 68.6956 217.869 68.9033C217.06 69.111 216.107 69.2148 215.012 69.2148C214.768 69.2148 214.51 69.2077 214.238 69.1934C213.973 69.1862 213.708 69.1719 213.443 69.1504C213.178 69.1361 212.921 69.1146 212.67 69.0859C212.419 69.0645 212.194 69.0358 211.993 69V66.7227C212.444 66.8086 212.949 66.8802 213.508 66.9375C214.074 66.9876 214.661 67.0127 215.27 67.0127C215.864 67.0127 216.376 66.9626 216.806 66.8623C217.235 66.762 217.59 66.6188 217.869 66.4326C218.148 66.2393 218.353 66.0029 218.481 65.7236C218.618 65.4443 218.686 65.1292 218.686 64.7783C218.686 64.4704 218.618 64.1911 218.481 63.9404C218.345 63.6898 218.138 63.4785 217.858 63.3066C217.579 63.1276 217.221 62.9915 216.784 62.8984C216.354 62.7982 215.842 62.748 215.248 62.748H213.69V60.75H215.119C215.678 60.75 216.14 60.6963 216.505 60.5889C216.877 60.4743 217.171 60.3239 217.386 60.1377C217.608 59.9515 217.765 59.7331 217.858 59.4824C217.951 59.2246 217.998 58.9561 217.998 58.6768C217.998 58.1038 217.812 57.6706 217.439 57.377C217.067 57.0762 216.491 56.9258 215.71 56.9258C215.151 56.9258 214.6 56.9795 214.056 57.0869C213.511 57.1943 212.949 57.3376 212.369 57.5166V55.3145C212.691 55.207 212.999 55.1175 213.293 55.0459C213.587 54.9743 213.88 54.9134 214.174 54.8633C214.467 54.8132 214.765 54.7773 215.065 54.7559C215.366 54.7344 215.678 54.7236 216 54.7236C216.773 54.7236 217.45 54.806 218.03 54.9707C218.618 55.1354 219.108 55.3717 219.502 55.6797C219.903 55.9805 220.204 56.3493 220.404 56.7861C220.605 57.223 220.705 57.71 220.705 58.2471C220.705 59.0993 220.508 59.7904 220.114 60.3203C219.728 60.8431 219.183 61.2441 218.481 61.5234C218.933 61.5951 219.341 61.7204 219.706 61.8994C220.071 62.0713 220.383 62.2969 220.641 62.5762C220.906 62.8483 221.106 63.1634 221.242 63.5215C221.385 63.8796 221.457 64.277 221.457 64.7139Z" fill="#999999"/>
<path d="M353.242 64.2305V62.0713H363.673V64.2305H353.242ZM358.409 65.7236C358.646 65.7236 358.864 65.7666 359.064 65.8525C359.272 65.9313 359.451 66.0423 359.602 66.1855C359.752 66.3288 359.87 66.4971 359.956 66.6904C360.042 66.8766 360.085 67.0807 360.085 67.3027C360.085 67.5319 360.042 67.7467 359.956 67.9473C359.87 68.1478 359.752 68.3232 359.602 68.4736C359.451 68.6169 359.272 68.7314 359.064 68.8174C358.864 68.8962 358.646 68.9355 358.409 68.9355C358.173 68.9355 357.954 68.8962 357.754 68.8174C357.553 68.7314 357.378 68.6169 357.228 68.4736C357.084 68.3232 356.97 68.1478 356.884 67.9473C356.805 67.7467 356.766 67.5319 356.766 67.3027C356.766 67.0807 356.805 66.8766 356.884 66.6904C356.97 66.4971 357.084 66.3288 357.228 66.1855C357.378 66.0423 357.553 65.9313 357.754 65.8525C357.954 65.7666 358.173 65.7236 358.409 65.7236ZM358.409 60.5781C358.173 60.5781 357.954 60.5387 357.754 60.46C357.553 60.374 357.378 60.2594 357.228 60.1162C357.084 59.973 356.97 59.8047 356.884 59.6113C356.805 59.418 356.766 59.2103 356.766 58.9883C356.766 58.7591 356.805 58.5479 356.884 58.3545C356.97 58.154 357.084 57.9821 357.228 57.8389C357.378 57.6885 357.553 57.5739 357.754 57.4951C357.954 57.4092 358.173 57.3662 358.409 57.3662C358.646 57.3662 358.864 57.4092 359.064 57.4951C359.272 57.5739 359.451 57.6885 359.602 57.8389C359.752 57.9821 359.87 58.154 359.956 58.3545C360.042 58.5479 360.085 58.7591 360.085 58.9883C360.085 59.2103 360.042 59.418 359.956 59.6113C359.87 59.8047 359.752 59.973 359.602 60.1162C359.451 60.2594 359.272 60.374 359.064 60.46C358.864 60.5387 358.646 60.5781 358.409 60.5781ZM375.457 64.7139C375.457 65.4085 375.328 66.0352 375.07 66.5938C374.812 67.1452 374.415 67.6178 373.878 68.0117C373.348 68.3984 372.678 68.6956 371.869 68.9033C371.06 69.111 370.107 69.2148 369.012 69.2148C368.768 69.2148 368.51 69.2077 368.238 69.1934C367.973 69.1862 367.708 69.1719 367.443 69.1504C367.178 69.1361 366.921 69.1146 366.67 69.0859C366.419 69.0645 366.194 69.0358 365.993 69V66.7227C366.444 66.8086 366.949 66.8802 367.508 66.9375C368.074 66.9876 368.661 67.0127 369.27 67.0127C369.864 67.0127 370.376 66.9626 370.806 66.8623C371.235 66.762 371.59 66.6188 371.869 66.4326C372.148 66.2393 372.353 66.0029 372.481 65.7236C372.618 65.4443 372.686 65.1292 372.686 64.7783C372.686 64.4704 372.618 64.1911 372.481 63.9404C372.345 63.6898 372.138 63.4785 371.858 63.3066C371.579 63.1276 371.221 62.9915 370.784 62.8984C370.354 62.7982 369.842 62.748 369.248 62.748H367.69V60.75H369.119C369.678 60.75 370.14 60.6963 370.505 60.5889C370.877 60.4743 371.171 60.3239 371.386 60.1377C371.608 59.9515 371.765 59.7331 371.858 59.4824C371.951 59.2246 371.998 58.9561 371.998 58.6768C371.998 58.1038 371.812 57.6706 371.439 57.377C371.067 57.0762 370.491 56.9258 369.71 56.9258C369.151 56.9258 368.6 56.9795 368.056 57.0869C367.511 57.1943 366.949 57.3376 366.369 57.5166V55.3145C366.691 55.207 366.999 55.1175 367.293 55.0459C367.587 54.9743 367.88 54.9134 368.174 54.8633C368.467 54.8132 368.765 54.7773 369.065 54.7559C369.366 54.7344 369.678 54.7236 370 54.7236C370.773 54.7236 371.45 54.806 372.03 54.9707C372.618 55.1354 373.108 55.3717 373.502 55.6797C373.903 55.9805 374.204 56.3493 374.404 56.7861C374.605 57.223 374.705 57.71 374.705 58.2471C374.705 59.0993 374.508 59.7904 374.114 60.3203C373.728 60.8431 373.183 61.2441 372.481 61.5234C372.933 61.5951 373.341 61.7204 373.706 61.8994C374.071 62.0713 374.383 62.2969 374.641 62.5762C374.906 62.8483 375.106 63.1634 375.242 63.5215C375.385 63.8796 375.457 64.277 375.457 64.7139Z" fill="#999999"/>
</g>
<defs>
<clipPath id="clip0_256_1093">
<rect width="422" height="91" fill="white"/>
</clipPath>
</defs>
</svg>
