<svg width="611" height="140" viewBox="0 0 611 140" fill="none" xmlns="http://www.w3.org/2000/svg">
<g clip-path="url(#clip0_6288_3101)">
<rect width="611" height="140" fill="white"/>
<path d="M0.292893 118.293C-0.0976311 118.683 -0.0976311 119.317 0.292893 119.707L6.65685 126.071C7.04738 126.462 7.68054 126.462 8.07107 126.071C8.46159 125.681 8.46159 125.047 8.07107 124.657L2.41421 119L8.07107 113.343C8.46159 112.953 8.46159 112.319 8.07107 111.929C7.68054 111.538 7.04738 111.538 6.65685 111.929L0.292893 118.293ZM610.707 119.707C611.098 119.317 611.098 118.683 610.707 118.293L604.343 111.929C603.953 111.538 603.319 111.538 602.929 111.929C602.538 112.319 602.538 112.953 602.929 113.343L608.586 119L602.929 124.657C602.538 125.047 602.538 125.681 602.929 126.071C603.319 126.462 603.953 126.462 604.343 126.071L610.707 119.707ZM1 120H610V118H1V120Z" fill="#999999"/>
<path d="M60.1621 139H51.3428V137.26H54.9521V127.012L51.5898 128.838L50.9023 127.248L55.3711 124.896H57.0254V137.26H60.1621V139Z" fill="#999999"/>
<path d="M131.78 139H122.531V137.324L126.162 133.715C126.757 133.128 127.24 132.619 127.612 132.189C127.985 131.76 128.275 131.369 128.482 131.019C128.69 130.66 128.83 130.324 128.901 130.009C128.973 129.694 129.009 129.354 129.009 128.988C129.009 128.645 128.962 128.319 128.869 128.011C128.776 127.696 128.633 127.42 128.439 127.184C128.246 126.947 127.995 126.761 127.688 126.625C127.38 126.489 127.011 126.421 126.581 126.421C125.987 126.421 125.446 126.553 124.959 126.818C124.472 127.083 124.024 127.427 123.616 127.85L122.585 126.614C123.115 126.056 123.724 125.608 124.411 125.271C125.106 124.935 125.911 124.767 126.828 124.767C127.451 124.767 128.017 124.86 128.525 125.046C129.041 125.232 129.485 125.501 129.857 125.852C130.23 126.202 130.516 126.632 130.717 127.141C130.924 127.649 131.028 128.222 131.028 128.859C131.028 129.396 130.957 129.894 130.813 130.353C130.67 130.811 130.452 131.269 130.158 131.728C129.872 132.179 129.507 132.648 129.062 133.135C128.626 133.622 128.106 134.155 127.505 134.735L124.959 137.217H131.78V139Z" fill="#999999"/>
<path d="M203.012 134.735C203.012 135.351 202.886 135.931 202.636 136.476C202.385 137.013 202.009 137.485 201.508 137.894C201.007 138.295 200.376 138.613 199.617 138.85C198.858 139.079 197.974 139.193 196.964 139.193C196.405 139.193 195.904 139.175 195.46 139.14C195.016 139.104 194.601 139.057 194.214 139V137.324C194.658 137.403 195.127 137.464 195.621 137.507C196.115 137.55 196.62 137.571 197.136 137.571C197.838 137.571 198.436 137.51 198.93 137.389C199.431 137.26 199.839 137.077 200.154 136.841C200.469 136.604 200.699 136.318 200.842 135.981C200.985 135.645 201.057 135.265 201.057 134.843C201.057 134.456 200.971 134.119 200.799 133.833C200.627 133.547 200.383 133.307 200.068 133.113C199.76 132.92 199.388 132.777 198.951 132.684C198.521 132.583 198.049 132.533 197.533 132.533H195.933V130.997H197.555C197.977 130.997 198.36 130.943 198.704 130.836C199.055 130.721 199.352 130.56 199.596 130.353C199.846 130.145 200.036 129.891 200.165 129.59C200.301 129.282 200.369 128.935 200.369 128.548C200.369 127.796 200.14 127.248 199.682 126.904C199.223 126.561 198.55 126.389 197.662 126.389C197.189 126.389 196.702 126.435 196.201 126.528C195.7 126.621 195.163 126.761 194.59 126.947V125.314C194.833 125.229 195.091 125.153 195.363 125.089C195.643 125.017 195.918 124.96 196.19 124.917C196.47 124.867 196.745 124.831 197.018 124.81C197.29 124.781 197.551 124.767 197.802 124.767C198.547 124.767 199.202 124.849 199.768 125.014C200.333 125.171 200.806 125.4 201.186 125.701C201.565 126.002 201.852 126.367 202.045 126.797C202.238 127.227 202.335 127.71 202.335 128.247C202.335 129.049 202.127 129.722 201.712 130.267C201.304 130.811 200.742 131.244 200.025 131.566C200.391 131.624 200.749 131.738 201.1 131.91C201.458 132.082 201.776 132.304 202.056 132.576C202.342 132.841 202.571 133.156 202.743 133.521C202.922 133.887 203.012 134.291 203.012 134.735Z" fill="#999999"/>
<path d="M275.979 135.896H273.583V139H271.671V135.896H264.914V134.252L270.897 124.96H273.583V134.252H275.979V135.896ZM271.671 126.765L266.783 134.252H271.671V126.765Z" fill="#999999"/>
<line x1="342" y1="69" x2="342" y2="39" stroke="#FF5500" stroke-width="2" stroke-linecap="round" stroke-dasharray="4 4"/>
<path d="M346.926 134.51C346.926 135.204 346.775 135.838 346.475 136.411C346.174 136.984 345.758 137.478 345.229 137.894C344.706 138.302 344.086 138.62 343.37 138.85C342.654 139.079 341.881 139.193 341.05 139.193C340.842 139.193 340.617 139.186 340.373 139.172C340.137 139.165 339.9 139.15 339.664 139.129C339.428 139.115 339.195 139.097 338.966 139.075C338.744 139.054 338.543 139.029 338.364 139V137.303C338.751 137.396 339.191 137.464 339.686 137.507C340.187 137.55 340.692 137.571 341.2 137.571C341.773 137.571 342.289 137.503 342.747 137.367C343.205 137.231 343.596 137.038 343.918 136.787C344.24 136.529 344.487 136.221 344.659 135.863C344.831 135.498 344.917 135.09 344.917 134.639C344.917 133.765 344.602 133.131 343.972 132.737C343.349 132.336 342.45 132.136 341.275 132.136H338.611V124.96H346.174V126.593H340.373V130.535H341.598C342.271 130.535 342.926 130.596 343.563 130.718C344.201 130.84 344.767 131.054 345.261 131.362C345.762 131.663 346.163 132.071 346.464 132.587C346.772 133.095 346.926 133.736 346.926 134.51Z" fill="#999999"/>
<path d="M418.952 134.553C418.952 135.197 418.834 135.802 418.598 136.368C418.368 136.934 418.039 137.428 417.609 137.851C417.18 138.266 416.66 138.595 416.052 138.839C415.45 139.075 414.781 139.193 414.043 139.193C413.27 139.193 412.586 139.072 411.991 138.828C411.397 138.577 410.899 138.198 410.498 137.689C410.097 137.174 409.793 136.526 409.585 135.745C409.377 134.965 409.273 134.041 409.273 132.974C409.273 132.257 409.32 131.563 409.413 130.89C409.506 130.216 409.66 129.583 409.875 128.988C410.09 128.394 410.376 127.85 410.734 127.355C411.092 126.861 411.536 126.439 412.066 126.088C412.604 125.73 413.234 125.454 413.957 125.261C414.68 125.06 415.518 124.96 416.471 124.96H417.856V126.593H416.353C415.515 126.593 414.788 126.693 414.172 126.894C413.556 127.094 413.04 127.377 412.625 127.742C412.21 128.107 411.891 128.548 411.669 129.063C411.447 129.579 411.307 130.156 411.25 130.793L411.207 131.233C411.658 130.968 412.177 130.757 412.765 130.6C413.359 130.435 414 130.353 414.688 130.353C415.396 130.353 416.016 130.456 416.546 130.664C417.083 130.872 417.527 131.162 417.878 131.534C418.236 131.899 418.505 132.34 418.684 132.855C418.863 133.371 418.952 133.937 418.952 134.553ZM416.997 134.671C416.997 134.241 416.943 133.854 416.836 133.511C416.736 133.16 416.575 132.866 416.353 132.63C416.131 132.386 415.848 132.2 415.504 132.071C415.167 131.935 414.763 131.867 414.29 131.867C414.018 131.867 413.742 131.892 413.463 131.942C413.184 131.993 412.908 132.064 412.636 132.157C412.371 132.243 412.117 132.343 411.873 132.458C411.63 132.573 411.408 132.694 411.207 132.823C411.207 133.747 411.271 134.521 411.4 135.144C411.529 135.759 411.719 136.254 411.97 136.626C412.228 136.998 412.543 137.263 412.915 137.421C413.287 137.578 413.717 137.657 414.204 137.657C414.612 137.657 414.985 137.593 415.321 137.464C415.665 137.328 415.959 137.131 416.202 136.873C416.453 136.615 416.646 136.304 416.782 135.938C416.925 135.566 416.997 135.144 416.997 134.671Z" fill="#999999"/>
<path d="M490.205 126.7L484.318 139H482.181L488.293 126.7H480.709V124.96H490.205V126.7Z" fill="#999999"/>
<path d="M562.28 135.477C562.28 136.071 562.159 136.601 561.915 137.066C561.672 137.525 561.331 137.911 560.895 138.227C560.458 138.542 559.942 138.782 559.348 138.946C558.753 139.111 558.109 139.193 557.414 139.193C556.648 139.193 555.971 139.107 555.384 138.936C554.804 138.764 554.317 138.524 553.923 138.216C553.529 137.908 553.232 137.543 553.031 137.12C552.831 136.698 552.73 136.232 552.73 135.724C552.73 134.864 552.97 134.123 553.45 133.5C553.93 132.877 554.671 132.311 555.674 131.803C554.757 131.337 554.088 130.822 553.665 130.256C553.243 129.683 553.031 129.028 553.031 128.29C553.031 127.839 553.124 127.402 553.311 126.979C553.497 126.557 553.776 126.181 554.148 125.852C554.528 125.522 555.001 125.261 555.566 125.067C556.132 124.867 556.798 124.767 557.564 124.767C558.288 124.767 558.922 124.845 559.466 125.003C560.017 125.153 560.479 125.372 560.852 125.658C561.224 125.945 561.503 126.292 561.689 126.7C561.876 127.108 561.969 127.563 561.969 128.064C561.969 128.881 561.74 129.576 561.281 130.148C560.83 130.721 560.186 131.223 559.348 131.652C559.763 131.86 560.15 132.089 560.508 132.34C560.866 132.59 561.177 132.87 561.442 133.178C561.707 133.486 561.911 133.829 562.055 134.209C562.205 134.589 562.28 135.011 562.28 135.477ZM560.057 128.215C560.057 127.577 559.831 127.105 559.38 126.797C558.936 126.482 558.309 126.324 557.5 126.324C556.698 126.324 556.071 126.478 555.62 126.786C555.176 127.094 554.954 127.556 554.954 128.172C554.954 128.451 555.008 128.709 555.115 128.945C555.223 129.182 555.387 129.404 555.609 129.611C555.839 129.819 556.121 130.023 556.458 130.224C556.795 130.424 557.196 130.628 557.661 130.836C558.47 130.456 559.072 130.062 559.466 129.654C559.86 129.239 560.057 128.759 560.057 128.215ZM560.25 135.616C560.25 135.351 560.207 135.093 560.121 134.843C560.035 134.592 559.881 134.345 559.659 134.102C559.437 133.858 559.14 133.615 558.768 133.371C558.395 133.128 557.923 132.877 557.35 132.619C556.863 132.855 556.451 133.092 556.114 133.328C555.785 133.557 555.516 133.794 555.309 134.037C555.108 134.273 554.965 134.521 554.879 134.778C554.793 135.036 554.75 135.308 554.75 135.595C554.75 135.917 554.818 136.203 554.954 136.454C555.097 136.698 555.291 136.905 555.534 137.077C555.778 137.249 556.068 137.378 556.404 137.464C556.741 137.55 557.106 137.593 557.5 137.593C557.88 137.593 558.238 137.553 558.574 137.475C558.911 137.396 559.201 137.278 559.444 137.12C559.695 136.955 559.892 136.751 560.035 136.508C560.178 136.257 560.25 135.96 560.25 135.616Z" fill="#999999"/>
<line y1="-1.5" x2="214.985" y2="-1.5" transform="matrix(1 0 0.00076007 1 127.017 79.9)" stroke="black" stroke-width="3"/>
<path d="M127.99 73V84" stroke="black" stroke-width="3" stroke-linecap="round"/>
<path d="M341.882 73V84" stroke="black" stroke-width="3" stroke-linecap="round"/>
<line y1="-1.5" x2="141.73" y2="-1.5" transform="matrix(1 0 -0.0276811 0.999617 342.27 30.8304)" stroke="black" stroke-width="3"/>
<path d="M342 24V35" stroke="black" stroke-width="3" stroke-linecap="round"/>
<path d="M483.972 24V35" stroke="black" stroke-width="3" stroke-linecap="round"/>
<path d="M14.8271 10.5957C14.8271 12.0853 14.6494 13.3717 14.2939 14.4551C13.9469 15.5384 13.473 16.4355 12.8721 17.1465C12.2796 17.849 11.5814 18.3737 10.7773 18.7207C9.98177 19.0592 9.13965 19.2285 8.25098 19.2285C7.18457 19.2285 6.25358 19.0381 5.45801 18.6572C4.6709 18.2679 4.01497 17.7093 3.49023 16.9814C2.97396 16.2536 2.58887 15.3691 2.33496 14.3281C2.08105 13.2786 1.9541 12.098 1.9541 10.7861C1.9541 9.31348 2.1276 8.03548 2.47461 6.95215C2.82161 5.86882 3.29134 4.97591 3.88379 4.27344C4.4847 3.5625 5.18294 3.03776 5.97852 2.69922C6.77409 2.35221 7.61621 2.17871 8.50488 2.17871C9.57129 2.17871 10.498 2.37337 11.2852 2.7627C12.0807 3.15202 12.7409 3.71061 13.2656 4.43848C13.7904 5.15788 14.1797 6.03809 14.4336 7.0791C14.696 8.12012 14.8271 9.29232 14.8271 10.5957ZM12.4785 10.7607C12.4785 9.78743 12.4023 8.89876 12.25 8.09473C12.1061 7.28223 11.8691 6.58398 11.5391 6C11.209 5.41602 10.7816 4.96322 10.2568 4.6416C9.74056 4.31999 9.11426 4.15918 8.37793 4.15918C7.66699 4.15918 7.05339 4.33268 6.53711 4.67969C6.0293 5.01823 5.61035 5.48372 5.28027 6.07617C4.9502 6.66016 4.70475 7.34993 4.54395 8.14551C4.38314 8.93262 4.30273 9.77051 4.30273 10.6592C4.30273 11.641 4.37891 12.5381 4.53125 13.3506C4.68359 14.1546 4.92057 14.8486 5.24219 15.4326C5.57227 16.0081 5.99544 16.4567 6.51172 16.7783C7.02799 17.0999 7.65007 17.2607 8.37793 17.2607C9.08887 17.2607 9.70247 17.0915 10.2188 16.7529C10.735 16.4059 11.1582 15.9404 11.4883 15.3564C11.8268 14.764 12.0765 14.0742 12.2373 13.2871C12.3981 12.5 12.4785 11.6579 12.4785 10.7607ZM16.3633 6.25391H18.877L22 14.6836L22.6729 16.7402L23.3711 14.6328L26.4688 6.25391H28.8936L23.8916 19H21.3525L16.3633 6.25391ZM42.6172 11.9541C42.6172 12.2673 42.613 12.5296 42.6045 12.7412C42.596 12.9528 42.5833 13.1517 42.5664 13.3379H33.6162C33.6162 14.6413 33.9801 15.6442 34.708 16.3467C35.4359 17.0407 36.4854 17.3877 37.8564 17.3877C38.2288 17.3877 38.6012 17.375 38.9736 17.3496C39.346 17.3158 39.7057 17.2734 40.0527 17.2227C40.3997 17.1719 40.7298 17.1169 41.043 17.0576C41.3646 16.9899 41.6608 16.918 41.9316 16.8418V18.6572C41.3307 18.8265 40.6494 18.9619 39.8877 19.0635C39.1344 19.1735 38.3516 19.2285 37.5391 19.2285C36.4473 19.2285 35.5078 19.0804 34.7207 18.7842C33.9336 18.488 33.2861 18.0605 32.7783 17.502C32.279 16.9349 31.9066 16.2451 31.6611 15.4326C31.4242 14.6117 31.3057 13.6849 31.3057 12.6523C31.3057 11.7552 31.4326 10.9089 31.6865 10.1133C31.9489 9.30924 32.3255 8.60677 32.8164 8.00586C33.3158 7.39648 33.9251 6.91406 34.6445 6.55859C35.3639 6.20312 36.1807 6.02539 37.0947 6.02539C37.9834 6.02539 38.7705 6.16504 39.4561 6.44434C40.1416 6.72363 40.7171 7.12142 41.1826 7.6377C41.6566 8.14551 42.012 8.76758 42.249 9.50391C42.4945 10.2318 42.6172 11.0485 42.6172 11.9541ZM40.3193 11.6367C40.3447 11.0697 40.2897 10.5534 40.1543 10.0879C40.0189 9.61393 39.8073 9.20768 39.5195 8.86914C39.2402 8.5306 38.889 8.26823 38.4658 8.08203C38.0426 7.88737 37.5518 7.79004 36.9932 7.79004C36.5107 7.79004 36.0706 7.88314 35.6729 8.06934C35.2751 8.25553 34.9323 8.5179 34.6445 8.85645C34.3568 9.19499 34.124 9.60124 33.9463 10.0752C33.7686 10.5492 33.6585 11.0697 33.6162 11.6367H40.3193ZM46.667 6.25391H48.6855L48.749 8.60254C49.5023 7.69694 50.2428 7.04102 50.9707 6.63477C51.707 6.22852 52.4476 6.02539 53.1924 6.02539C54.5127 6.02539 55.5114 6.4528 56.1885 7.30762C56.874 8.16243 57.1914 9.43197 57.1406 11.1162H54.9062C54.9316 9.99902 54.7666 9.19076 54.4111 8.69141C54.0641 8.18359 53.5521 7.92969 52.875 7.92969C52.5788 7.92969 52.2783 7.9847 51.9736 8.09473C51.6774 8.19629 51.3685 8.36556 51.0469 8.60254C50.7337 8.83105 50.3994 9.12728 50.0439 9.49121C49.6885 9.85514 49.3076 10.2952 48.9014 10.8115V19H46.667V6.25391ZM64.7832 2.87695H61.0127V1.06152H67.0176V17.1592H70.8135V19H60.5938V17.1592H64.7832V2.87695ZM82.9248 19L82.874 17.2861C82.18 17.9717 81.4733 18.4668 80.7539 18.7715C80.043 19.0762 79.2939 19.2285 78.5068 19.2285C77.779 19.2285 77.1569 19.1354 76.6406 18.9492C76.1243 18.763 75.6969 18.5091 75.3584 18.1875C75.0283 17.8574 74.7829 17.4723 74.6221 17.0322C74.4697 16.5921 74.3936 16.1139 74.3936 15.5977C74.3936 14.3197 74.8675 13.321 75.8154 12.6016C76.7718 11.8737 78.181 11.5098 80.043 11.5098H82.6836V10.3926C82.6836 9.63932 82.4424 9.03841 81.96 8.58984C81.4775 8.13281 80.7412 7.9043 79.751 7.9043C79.0316 7.9043 78.3206 7.9847 77.6182 8.14551C76.9242 8.30632 76.2048 8.53483 75.46 8.83105V6.83789C75.7393 6.73633 76.0482 6.639 76.3867 6.5459C76.7337 6.44434 77.0977 6.35547 77.4785 6.2793C77.8594 6.20312 78.2572 6.14388 78.6719 6.10156C79.0866 6.05078 79.5055 6.02539 79.9287 6.02539C80.6989 6.02539 81.3929 6.11003 82.0107 6.2793C82.6286 6.44857 83.1491 6.70671 83.5723 7.05371C84.0039 7.40072 84.334 7.83659 84.5625 8.36133C84.791 8.88607 84.9053 9.50391 84.9053 10.2148V19H82.9248ZM82.6836 13.1982H79.8779C79.3278 13.1982 78.8538 13.2533 78.4561 13.3633C78.0583 13.4733 77.7324 13.6299 77.4785 13.833C77.2246 14.0361 77.0342 14.2816 76.9072 14.5693C76.7887 14.8486 76.7295 15.166 76.7295 15.5215C76.7295 15.7669 76.7676 16.0039 76.8438 16.2324C76.9199 16.4525 77.0426 16.6514 77.2119 16.8291C77.3812 16.9984 77.6012 17.1338 77.8721 17.2354C78.1429 17.3369 78.473 17.3877 78.8623 17.3877C79.3701 17.3877 79.9499 17.2354 80.6016 16.9307C81.2617 16.6175 81.9557 16.1266 82.6836 15.458V13.1982ZM99.9238 12.3984C99.9238 13.5326 99.763 14.5228 99.4414 15.3691C99.1283 16.2155 98.6924 16.918 98.1338 17.4766C97.5752 18.0352 96.915 18.4541 96.1533 18.7334C95.3916 19.0127 94.5664 19.1523 93.6777 19.1523C93.2715 19.1523 92.8652 19.1312 92.459 19.0889C92.0612 19.0465 91.6549 18.9746 91.2402 18.873V24.2051H89.0312V6.25391H90.999L91.1387 8.38672C91.7734 7.51497 92.4505 6.9056 93.1699 6.55859C93.8893 6.20312 94.668 6.02539 95.5059 6.02539C96.2337 6.02539 96.8727 6.17773 97.4229 6.48242C97.973 6.78711 98.4342 7.21875 98.8066 7.77734C99.179 8.32747 99.4583 8.99609 99.6445 9.7832C99.8307 10.5618 99.9238 11.4336 99.9238 12.3984ZM97.6641 12.5C97.6641 11.8314 97.6133 11.2178 97.5117 10.6592C97.4186 10.1006 97.2663 9.6224 97.0547 9.22461C96.8431 8.82682 96.5723 8.5179 96.2422 8.29785C95.9121 8.06934 95.5186 7.95508 95.0615 7.95508C94.7822 7.95508 94.4987 8.00163 94.2109 8.09473C93.9232 8.17936 93.6227 8.32747 93.3096 8.53906C93.0049 8.74219 92.679 9.01725 92.332 9.36426C91.9935 9.7028 91.6296 10.126 91.2402 10.6338V16.8164C91.6465 16.9857 92.0739 17.1211 92.5225 17.2227C92.971 17.3158 93.4111 17.3623 93.8428 17.3623C95.0361 17.3623 95.9714 16.9603 96.6484 16.1562C97.3255 15.3438 97.6641 14.125 97.6641 12.5ZM114.219 12.3984C114.219 13.5326 114.058 14.5228 113.736 15.3691C113.423 16.2155 112.987 16.918 112.429 17.4766C111.87 18.0352 111.21 18.4541 110.448 18.7334C109.687 19.0127 108.861 19.1523 107.973 19.1523C107.566 19.1523 107.16 19.1312 106.754 19.0889C106.356 19.0465 105.95 18.9746 105.535 18.873V24.2051H103.326V6.25391H105.294L105.434 8.38672C106.068 7.51497 106.745 6.9056 107.465 6.55859C108.184 6.20312 108.963 6.02539 109.801 6.02539C110.529 6.02539 111.168 6.17773 111.718 6.48242C112.268 6.78711 112.729 7.21875 113.102 7.77734C113.474 8.32747 113.753 8.99609 113.939 9.7832C114.126 10.5618 114.219 11.4336 114.219 12.3984ZM111.959 12.5C111.959 11.8314 111.908 11.2178 111.807 10.6592C111.714 10.1006 111.561 9.6224 111.35 9.22461C111.138 8.82682 110.867 8.5179 110.537 8.29785C110.207 8.06934 109.813 7.95508 109.356 7.95508C109.077 7.95508 108.794 8.00163 108.506 8.09473C108.218 8.17936 107.918 8.32747 107.604 8.53906C107.3 8.74219 106.974 9.01725 106.627 9.36426C106.288 9.7028 105.924 10.126 105.535 10.6338V16.8164C105.941 16.9857 106.369 17.1211 106.817 17.2227C107.266 17.3158 107.706 17.3623 108.138 17.3623C109.331 17.3623 110.266 16.9603 110.943 16.1562C111.62 15.3438 111.959 14.125 111.959 12.5ZM121.963 8.08203H118.192V6.25391H124.197V17.1592H127.993V19H117.773V17.1592H121.963V8.08203ZM122.737 0.90918C122.983 0.90918 123.211 0.955729 123.423 1.04883C123.634 1.13346 123.816 1.25618 123.969 1.41699C124.13 1.5778 124.252 1.764 124.337 1.97559C124.43 2.17871 124.477 2.40299 124.477 2.64844C124.477 2.88542 124.43 3.1097 124.337 3.32129C124.252 3.53288 124.13 3.71908 123.969 3.87988C123.816 4.04069 123.634 4.16764 123.423 4.26074C123.211 4.34538 122.983 4.3877 122.737 4.3877C122.492 4.3877 122.263 4.34538 122.052 4.26074C121.84 4.16764 121.654 4.04069 121.493 3.87988C121.341 3.71908 121.218 3.53288 121.125 3.32129C121.04 3.1097 120.998 2.88542 120.998 2.64844C120.998 2.40299 121.04 2.17871 121.125 1.97559C121.218 1.764 121.341 1.5778 121.493 1.41699C121.654 1.25618 121.84 1.13346 122.052 1.04883C122.263 0.955729 122.492 0.90918 122.737 0.90918ZM131.916 6.25391H133.884L133.973 8.31055C134.345 7.87044 134.705 7.50651 135.052 7.21875C135.399 6.92253 135.737 6.68555 136.067 6.50781C136.406 6.33008 136.749 6.20736 137.096 6.13965C137.443 6.06348 137.802 6.02539 138.175 6.02539C139.487 6.02539 140.477 6.41471 141.146 7.19336C141.823 7.96354 142.161 9.12728 142.161 10.6846V19H139.952V10.8623C139.952 9.86361 139.766 9.12728 139.394 8.65332C139.021 8.1709 138.467 7.92969 137.73 7.92969C137.46 7.92969 137.193 7.97201 136.931 8.05664C136.677 8.13281 136.41 8.27246 136.131 8.47559C135.852 8.67025 135.547 8.93685 135.217 9.27539C134.895 9.61393 134.531 10.0371 134.125 10.5449V19H131.916V6.25391ZM155.39 8.05664C155.627 8.35286 155.809 8.69987 155.936 9.09766C156.071 9.48698 156.139 9.91016 156.139 10.3672C156.139 11.0273 156.016 11.6325 155.771 12.1826C155.534 12.7243 155.195 13.1898 154.755 13.5791C154.315 13.9684 153.786 14.2731 153.168 14.4932C152.559 14.7048 151.886 14.8105 151.149 14.8105C150.616 14.8105 150.117 14.7555 149.651 14.6455C149.186 14.527 148.818 14.3831 148.547 14.2139C148.386 14.4508 148.251 14.6751 148.141 14.8867C148.031 15.0983 147.976 15.3353 147.976 15.5977C147.976 15.9193 148.128 16.1859 148.433 16.3975C148.746 16.609 149.156 16.7233 149.664 16.7402L153.016 16.8672C153.65 16.8841 154.234 16.9645 154.768 17.1084C155.309 17.2523 155.771 17.4596 156.151 17.7305C156.541 18.0013 156.841 18.3356 157.053 18.7334C157.273 19.1312 157.383 19.5924 157.383 20.1172C157.383 20.6842 157.26 21.2217 157.015 21.7295C156.769 22.2373 156.388 22.6816 155.872 23.0625C155.364 23.4518 154.717 23.7607 153.93 23.9893C153.143 24.2178 152.207 24.332 151.124 24.332C150.091 24.332 149.211 24.2474 148.483 24.0781C147.764 23.9173 147.172 23.6888 146.706 23.3926C146.241 23.1048 145.902 22.7578 145.69 22.3516C145.479 21.9538 145.373 21.5137 145.373 21.0312C145.373 20.4134 145.517 19.8717 145.805 19.4062C146.092 18.9408 146.537 18.4922 147.138 18.0605C146.918 17.959 146.727 17.832 146.566 17.6797C146.406 17.5273 146.274 17.3623 146.173 17.1846C146.071 16.9984 145.995 16.8037 145.944 16.6006C145.894 16.3975 145.868 16.1986 145.868 16.0039C145.868 15.4538 145.995 14.9502 146.249 14.4932C146.511 14.0361 146.82 13.6045 147.176 13.1982C147.015 13.0036 146.871 12.8132 146.744 12.627C146.626 12.4408 146.52 12.2419 146.427 12.0303C146.342 11.8102 146.274 11.5775 146.224 11.332C146.181 11.0781 146.16 10.7904 146.16 10.4688C146.16 9.80859 146.279 9.20768 146.516 8.66602C146.761 8.11589 147.1 7.64616 147.531 7.25684C147.971 6.86751 148.496 6.56706 149.105 6.35547C149.723 6.13542 150.405 6.02539 151.149 6.02539C151.463 6.02539 151.763 6.04655 152.051 6.08887C152.339 6.13118 152.592 6.1862 152.812 6.25391H157.434V8.05664H155.39ZM147.722 20.8408C147.722 21.4417 148.035 21.8776 148.661 22.1484C149.287 22.4277 150.159 22.5674 151.276 22.5674C151.979 22.5674 152.567 22.5039 153.041 22.377C153.523 22.25 153.909 22.0807 154.196 21.8691C154.493 21.666 154.704 21.429 154.831 21.1582C154.958 20.8958 155.021 20.625 155.021 20.3457C155.021 19.8294 154.81 19.4486 154.387 19.2031C153.964 18.9577 153.316 18.8138 152.444 18.7715L149.118 18.6572C148.839 18.8434 148.606 19.0254 148.42 19.2031C148.242 19.3809 148.103 19.5586 148.001 19.7363C147.899 19.9225 147.827 20.1045 147.785 20.2822C147.743 20.4684 147.722 20.6546 147.722 20.8408ZM148.395 10.418C148.395 10.8242 148.462 11.1966 148.598 11.5352C148.733 11.8737 148.924 12.1615 149.169 12.3984C149.414 12.6354 149.702 12.8216 150.032 12.957C150.371 13.084 150.743 13.1475 151.149 13.1475C151.59 13.1475 151.979 13.0755 152.317 12.9316C152.664 12.7793 152.952 12.5762 153.181 12.3223C153.418 12.0684 153.595 11.7764 153.714 11.4463C153.841 11.1162 153.904 10.7734 153.904 10.418C153.904 10.0117 153.837 9.63932 153.701 9.30078C153.566 8.96224 153.375 8.67448 153.13 8.4375C152.884 8.20052 152.592 8.01855 152.254 7.8916C151.924 7.75618 151.556 7.68848 151.149 7.68848C150.709 7.68848 150.316 7.76465 149.969 7.91699C149.63 8.06934 149.342 8.27246 149.105 8.52637C148.877 8.77181 148.699 9.05957 148.572 9.38965C148.454 9.71973 148.395 10.0625 148.395 10.418ZM165.622 6.02539C165.884 6.02539 166.134 6.0804 166.371 6.19043C166.608 6.29199 166.815 6.43164 166.993 6.60938C167.171 6.78711 167.311 6.99447 167.412 7.23145C167.522 7.46842 167.577 7.7181 167.577 7.98047C167.577 8.2513 167.522 8.50521 167.412 8.74219C167.311 8.9707 167.171 9.17383 166.993 9.35156C166.815 9.5293 166.608 9.66895 166.371 9.77051C166.134 9.87207 165.884 9.92285 165.622 9.92285C165.351 9.92285 165.097 9.87207 164.86 9.77051C164.632 9.66895 164.429 9.5293 164.251 9.35156C164.073 9.17383 163.934 8.9707 163.832 8.74219C163.73 8.50521 163.68 8.2513 163.68 7.98047C163.68 7.7181 163.73 7.46842 163.832 7.23145C163.934 6.99447 164.073 6.78711 164.251 6.60938C164.429 6.43164 164.632 6.29199 164.86 6.19043C165.097 6.0804 165.351 6.02539 165.622 6.02539ZM165.622 15.3311C165.884 15.3311 166.134 15.3861 166.371 15.4961C166.608 15.5977 166.815 15.7373 166.993 15.915C167.171 16.0928 167.311 16.3001 167.412 16.5371C167.522 16.7741 167.577 17.0238 167.577 17.2861C167.577 17.557 167.522 17.8109 167.412 18.0479C167.311 18.2764 167.171 18.4795 166.993 18.6572C166.815 18.835 166.608 18.9746 166.371 19.0762C166.134 19.1777 165.884 19.2285 165.622 19.2285C165.351 19.2285 165.097 19.1777 164.86 19.0762C164.632 18.9746 164.429 18.835 164.251 18.6572C164.073 18.4795 163.934 18.2764 163.832 18.0479C163.73 17.8109 163.68 17.557 163.68 17.2861C163.68 17.0238 163.73 16.7741 163.832 16.5371C163.934 16.3001 164.073 16.0928 164.251 15.915C164.429 15.7373 164.632 15.5977 164.86 15.4961C165.097 15.3861 165.351 15.3311 165.622 15.3311Z" fill="#666666"/>
<rect x="403" y="27" width="20" height="5" fill="white"/>
<rect x="225" y="76" width="20" height="5" fill="white"/>
<path d="M407.99 37V20.4072H413.348C415.235 20.4072 416.648 20.7373 417.588 21.3975C418.536 22.0576 419.01 23.0563 419.01 24.3936C419.01 24.8083 418.959 25.2145 418.857 25.6123C418.764 26.0016 418.616 26.3613 418.413 26.6914C418.21 27.0215 417.956 27.3135 417.651 27.5674C417.347 27.8213 416.987 28.0202 416.572 28.1641C416.987 28.2318 417.381 28.3672 417.753 28.5703C418.134 28.765 418.464 29.0231 418.743 29.3447C419.031 29.6579 419.255 30.0303 419.416 30.4619C419.585 30.8936 419.67 31.376 419.67 31.9092C419.67 33.6019 419.103 34.8757 417.969 35.7305C416.835 36.5768 415.197 37 413.056 37H407.99ZM415.76 24.9395C415.76 24.6263 415.709 24.3428 415.607 24.0889C415.506 23.835 415.341 23.6191 415.112 23.4414C414.892 23.2637 414.604 23.1283 414.249 23.0352C413.902 22.9336 413.479 22.8828 412.979 22.8828H411.088V27.2754H412.979C413.487 27.2754 413.915 27.2161 414.262 27.0977C414.617 26.9707 414.905 26.8014 415.125 26.5898C415.354 26.3698 415.514 26.1201 415.607 25.8408C415.709 25.5615 415.76 25.2611 415.76 24.9395ZM413.271 34.4482C413.771 34.4482 414.207 34.3848 414.579 34.2578C414.96 34.1309 415.277 33.9574 415.531 33.7373C415.785 33.5088 415.976 33.2422 416.103 32.9375C416.238 32.6328 416.306 32.307 416.306 31.96C416.306 31.2406 416.035 30.6777 415.493 30.2715C414.96 29.8652 414.139 29.6621 413.03 29.6621H411.088V34.4482H413.271Z" fill="black"/>
<path d="M238.144 85L237.229 81.7246H231.44L230.501 85H227.403L232.316 68.4072H236.684L241.597 85H238.144ZM234.373 71.4541L232.189 79.1729H236.531L234.373 71.4541Z" fill="black"/>
<path d="M319.431 104H316.968L315.812 100.382H308.906L307.738 104H305.39L310.899 87.4072H313.997L319.431 104ZM315.165 98.3633L312.359 89.4893L309.554 98.3633H315.165ZM326.604 100.001C326.891 100.001 327.162 100.056 327.416 100.166C327.678 100.276 327.903 100.428 328.089 100.623C328.284 100.818 328.436 101.046 328.546 101.309C328.656 101.562 328.711 101.838 328.711 102.134C328.711 102.422 328.656 102.692 328.546 102.946C328.436 103.2 328.284 103.424 328.089 103.619C327.903 103.805 327.678 103.953 327.416 104.063C327.162 104.174 326.891 104.229 326.604 104.229C326.307 104.229 326.032 104.174 325.778 104.063C325.524 103.953 325.3 103.805 325.105 103.619C324.919 103.424 324.771 103.2 324.661 102.946C324.551 102.692 324.496 102.422 324.496 102.134C324.496 101.838 324.551 101.562 324.661 101.309C324.771 101.046 324.919 100.818 325.105 100.623C325.3 100.428 325.524 100.276 325.778 100.166C326.032 100.056 326.307 100.001 326.604 100.001ZM346.649 96.9541C346.649 97.2673 346.645 97.5296 346.637 97.7412C346.628 97.9528 346.616 98.1517 346.599 98.3379H337.648C337.648 99.6413 338.012 100.644 338.74 101.347C339.468 102.041 340.518 102.388 341.889 102.388C342.261 102.388 342.633 102.375 343.006 102.35C343.378 102.316 343.738 102.273 344.085 102.223C344.432 102.172 344.762 102.117 345.075 102.058C345.397 101.99 345.693 101.918 345.964 101.842V103.657C345.363 103.826 344.682 103.962 343.92 104.063C343.167 104.174 342.384 104.229 341.571 104.229C340.479 104.229 339.54 104.08 338.753 103.784C337.966 103.488 337.318 103.061 336.811 102.502C336.311 101.935 335.939 101.245 335.693 100.433C335.456 99.6117 335.338 98.6849 335.338 97.6523C335.338 96.7552 335.465 95.9089 335.719 95.1133C335.981 94.3092 336.358 93.6068 336.849 93.0059C337.348 92.3965 337.957 91.9141 338.677 91.5586C339.396 91.2031 340.213 91.0254 341.127 91.0254C342.016 91.0254 342.803 91.165 343.488 91.4443C344.174 91.7236 344.749 92.1214 345.215 92.6377C345.689 93.1455 346.044 93.7676 346.281 94.5039C346.527 95.2318 346.649 96.0485 346.649 96.9541ZM344.352 96.6367C344.377 96.0697 344.322 95.5534 344.187 95.0879C344.051 94.6139 343.84 94.2077 343.552 93.8691C343.272 93.5306 342.921 93.2682 342.498 93.082C342.075 92.8874 341.584 92.79 341.025 92.79C340.543 92.79 340.103 92.8831 339.705 93.0693C339.307 93.2555 338.965 93.5179 338.677 93.8564C338.389 94.195 338.156 94.6012 337.979 95.0752C337.801 95.5492 337.691 96.0697 337.648 96.6367H344.352ZM350.179 91.2539H352.146L352.235 93.3105C352.608 92.8704 352.967 92.5065 353.314 92.2188C353.661 91.9225 354 91.6855 354.33 91.5078C354.669 91.3301 355.011 91.2074 355.358 91.1396C355.705 91.0635 356.065 91.0254 356.438 91.0254C357.749 91.0254 358.74 91.4147 359.408 92.1934C360.085 92.9635 360.424 94.1273 360.424 95.6846V104H358.215V95.8623C358.215 94.8636 358.029 94.1273 357.656 93.6533C357.284 93.1709 356.729 92.9297 355.993 92.9297C355.722 92.9297 355.456 92.972 355.193 93.0566C354.939 93.1328 354.673 93.2725 354.394 93.4756C354.114 93.6702 353.81 93.9368 353.479 94.2754C353.158 94.6139 352.794 95.0371 352.388 95.5449V104H350.179V91.2539ZM363.826 97.8936C363.826 96.8102 363.974 95.8496 364.271 95.0117C364.567 94.1654 364.986 93.4544 365.527 92.8789C366.077 92.2949 366.733 91.8548 367.495 91.5586C368.265 91.2539 369.12 91.1016 370.06 91.1016C370.466 91.1016 370.864 91.127 371.253 91.1777C371.651 91.2285 372.04 91.3089 372.421 91.4189V86.0615H374.643V104H372.662L372.586 101.588C371.968 102.485 371.299 103.149 370.58 103.581C369.861 104.013 369.082 104.229 368.244 104.229C367.516 104.229 366.873 104.076 366.314 103.771C365.764 103.467 365.303 103.039 364.931 102.489C364.567 101.931 364.292 101.262 364.105 100.483C363.919 99.7048 363.826 98.8415 363.826 97.8936ZM366.086 97.7539C366.086 99.2943 366.31 100.445 366.759 101.207C367.216 101.96 367.859 102.337 368.688 102.337C369.247 102.337 369.835 102.087 370.453 101.588C371.079 101.089 371.735 100.348 372.421 99.3662V93.4502C372.057 93.2809 371.655 93.154 371.215 93.0693C370.775 92.9762 370.339 92.9297 369.907 92.9297C368.705 92.9297 367.766 93.319 367.089 94.0977C366.42 94.8763 366.086 96.0951 366.086 97.7539Z" fill="black"/>
<path d="M304.366 13.0361C304.366 13.8317 304.21 14.5384 303.896 15.1562C303.592 15.7656 303.152 16.2819 302.576 16.7051C302.009 17.1283 301.319 17.4499 300.507 17.6699C299.703 17.89 298.806 18 297.815 18H293.474V1.40723H298.222C301.92 1.40723 303.77 2.75293 303.77 5.44434C303.77 6.34147 303.554 7.11165 303.122 7.75488C302.699 8.39811 302.005 8.8763 301.04 9.18945C301.489 9.27409 301.912 9.41797 302.31 9.62109C302.716 9.82422 303.071 10.0866 303.376 10.4082C303.681 10.7298 303.922 11.1107 304.1 11.5508C304.277 11.9909 304.366 12.486 304.366 13.0361ZM301.421 5.74902C301.421 5.41048 301.37 5.0931 301.269 4.79688C301.167 4.49219 300.989 4.23405 300.735 4.02246C300.481 3.80241 300.139 3.62891 299.707 3.50195C299.275 3.375 298.729 3.31152 298.069 3.31152H295.733V8.50391H297.993C298.509 8.50391 298.975 8.44889 299.39 8.33887C299.813 8.22884 300.173 8.05957 300.469 7.83105C300.773 7.60254 301.006 7.31901 301.167 6.98047C301.336 6.63346 301.421 6.22298 301.421 5.74902ZM301.967 13.1123C301.967 12.6891 301.878 12.3083 301.7 11.9697C301.522 11.6312 301.264 11.3477 300.926 11.1191C300.587 10.8822 300.173 10.7002 299.682 10.5732C299.199 10.4463 298.653 10.3828 298.044 10.3828H295.733V16.0957H298.12C299.415 16.0957 300.38 15.8545 301.015 15.3721C301.649 14.8896 301.967 14.1364 301.967 13.1123ZM312.809 14.001C313.096 14.001 313.367 14.056 313.621 14.166C313.883 14.276 314.108 14.4284 314.294 14.623C314.489 14.8177 314.641 15.0462 314.751 15.3086C314.861 15.5625 314.916 15.8376 314.916 16.1338C314.916 16.4215 314.861 16.6924 314.751 16.9463C314.641 17.2002 314.489 17.4245 314.294 17.6191C314.108 17.8053 313.883 17.9535 313.621 18.0635C313.367 18.1735 313.096 18.2285 312.809 18.2285C312.512 18.2285 312.237 18.1735 311.983 18.0635C311.729 17.9535 311.505 17.8053 311.311 17.6191C311.124 17.4245 310.976 17.2002 310.866 16.9463C310.756 16.6924 310.701 16.4215 310.701 16.1338C310.701 15.8376 310.756 15.5625 310.866 15.3086C310.976 15.0462 311.124 14.8177 311.311 14.623C311.505 14.4284 311.729 14.276 311.983 14.166C312.237 14.056 312.512 14.001 312.809 14.001ZM332.182 14.5215C332.182 14.9701 332.105 15.3721 331.953 15.7275C331.801 16.083 331.593 16.4004 331.331 16.6797C331.069 16.9505 330.764 17.1833 330.417 17.3779C330.07 17.5726 329.698 17.7334 329.3 17.8604C328.91 17.9873 328.508 18.0804 328.094 18.1396C327.679 18.1989 327.273 18.2285 326.875 18.2285C326.012 18.2285 325.216 18.1904 324.488 18.1143C323.769 18.0381 323.062 17.9154 322.368 17.7461V15.7148C323.113 15.9264 323.854 16.0872 324.59 16.1973C325.326 16.3073 326.058 16.3623 326.786 16.3623C327.844 16.3623 328.627 16.2184 329.135 15.9307C329.643 15.6429 329.896 15.2324 329.896 14.6992C329.896 14.4707 329.854 14.2676 329.77 14.0898C329.693 13.9036 329.549 13.7301 329.338 13.5693C329.126 13.4001 328.796 13.2266 328.348 13.0488C327.908 12.8711 327.302 12.668 326.532 12.4395C325.957 12.2702 325.424 12.0798 324.933 11.8682C324.45 11.6481 324.031 11.39 323.676 11.0938C323.32 10.7975 323.041 10.4505 322.838 10.0527C322.635 9.65495 322.533 9.18522 322.533 8.64355C322.533 8.28809 322.614 7.89876 322.774 7.47559C322.944 7.05241 323.227 6.65885 323.625 6.29492C324.023 5.93099 324.56 5.63053 325.237 5.39355C325.914 5.14811 326.761 5.02539 327.776 5.02539C328.276 5.02539 328.83 5.05501 329.439 5.11426C330.049 5.16504 330.684 5.25814 331.344 5.39355V7.36133C330.65 7.19206 329.99 7.06934 329.363 6.99316C328.745 6.90853 328.208 6.86621 327.751 6.86621C327.201 6.86621 326.735 6.90853 326.354 6.99316C325.982 7.0778 325.677 7.19629 325.44 7.34863C325.212 7.49251 325.047 7.66602 324.945 7.86914C324.844 8.0638 324.793 8.27539 324.793 8.50391C324.793 8.73242 324.835 8.93978 324.92 9.12598C325.013 9.31217 325.178 9.49414 325.415 9.67188C325.66 9.84115 325.999 10.0146 326.431 10.1924C326.862 10.3617 327.425 10.5479 328.119 10.751C328.872 10.971 329.507 11.2038 330.023 11.4492C330.54 11.6862 330.959 11.9528 331.28 12.249C331.602 12.5452 331.83 12.8796 331.966 13.252C332.11 13.6243 332.182 14.0475 332.182 14.5215ZM346.654 17.8223C346.155 17.9492 345.639 18.0381 345.105 18.0889C344.572 18.1481 344.031 18.1777 343.48 18.1777C341.881 18.1777 340.688 17.818 339.9 17.0986C339.113 16.3708 338.72 15.2578 338.72 13.7598V7.10742H335.152V5.25391H338.72V1.75L340.929 1.17871V5.25391H346.654V7.10742H340.929V13.582C340.929 14.4961 341.17 15.1816 341.652 15.6387C342.143 16.0872 342.863 16.3115 343.811 16.3115C344.217 16.3115 344.661 16.2819 345.144 16.2227C345.626 16.1549 346.13 16.0534 346.654 15.918V17.8223ZM358.867 18L358.816 16.2861C358.122 16.9717 357.416 17.4668 356.696 17.7715C355.985 18.0762 355.236 18.2285 354.449 18.2285C353.721 18.2285 353.099 18.1354 352.583 17.9492C352.067 17.763 351.639 17.5091 351.301 17.1875C350.971 16.8574 350.725 16.4723 350.564 16.0322C350.412 15.5921 350.336 15.1139 350.336 14.5977C350.336 13.3197 350.81 12.321 351.758 11.6016C352.714 10.8737 354.123 10.5098 355.985 10.5098H358.626V9.39258C358.626 8.63932 358.385 8.03841 357.902 7.58984C357.42 7.13281 356.684 6.9043 355.693 6.9043C354.974 6.9043 354.263 6.9847 353.561 7.14551C352.867 7.30632 352.147 7.53483 351.402 7.83105V5.83789C351.682 5.73633 351.991 5.639 352.329 5.5459C352.676 5.44434 353.04 5.35547 353.421 5.2793C353.802 5.20312 354.2 5.14388 354.614 5.10156C355.029 5.05078 355.448 5.02539 355.871 5.02539C356.641 5.02539 357.335 5.11003 357.953 5.2793C358.571 5.44857 359.091 5.70671 359.515 6.05371C359.946 6.40072 360.276 6.83659 360.505 7.36133C360.733 7.88607 360.848 8.50391 360.848 9.21484V18H358.867ZM358.626 12.1982H355.82C355.27 12.1982 354.796 12.2533 354.398 12.3633C354.001 12.4733 353.675 12.6299 353.421 12.833C353.167 13.0361 352.977 13.2816 352.85 13.5693C352.731 13.8486 352.672 14.166 352.672 14.5215C352.672 14.7669 352.71 15.0039 352.786 15.2324C352.862 15.4525 352.985 15.6514 353.154 15.8291C353.324 15.9984 353.544 16.1338 353.814 16.2354C354.085 16.3369 354.415 16.3877 354.805 16.3877C355.312 16.3877 355.892 16.2354 356.544 15.9307C357.204 15.6175 357.898 15.1266 358.626 14.458V12.1982ZM365.494 5.25391H367.513L367.576 7.60254C368.329 6.69694 369.07 6.04102 369.798 5.63477C370.534 5.22852 371.275 5.02539 372.02 5.02539C373.34 5.02539 374.339 5.4528 375.016 6.30762C375.701 7.16243 376.019 8.43197 375.968 10.1162H373.733C373.759 8.99902 373.594 8.19076 373.238 7.69141C372.891 7.18359 372.379 6.92969 371.702 6.92969C371.406 6.92969 371.105 6.9847 370.801 7.09473C370.505 7.19629 370.196 7.36556 369.874 7.60254C369.561 7.83105 369.227 8.12728 368.871 8.49121C368.516 8.85514 368.135 9.29525 367.729 9.81152V18H365.494V5.25391ZM389.539 17.8223C389.04 17.9492 388.523 18.0381 387.99 18.0889C387.457 18.1481 386.915 18.1777 386.365 18.1777C384.766 18.1777 383.572 17.818 382.785 17.0986C381.998 16.3708 381.604 15.2578 381.604 13.7598V7.10742H378.037V5.25391H381.604V1.75L383.813 1.17871V5.25391H389.539V7.10742H383.813V13.582C383.813 14.4961 384.055 15.1816 384.537 15.6387C385.028 16.0872 385.747 16.3115 386.695 16.3115C387.102 16.3115 387.546 16.2819 388.028 16.2227C388.511 16.1549 389.014 16.0534 389.539 15.918V17.8223Z" fill="black"/>
</g>
<defs>
<clipPath id="clip0_6288_3101">
<rect width="611" height="140" fill="white"/>
</clipPath>
</defs>
</svg>
