<svg width="935" height="258" viewBox="0 0 935 258" fill="none" xmlns="http://www.w3.org/2000/svg">
<g clip-path="url(#clip0_6262_1725)">
<rect width="935" height="258" fill="white"/>
<rect x="311" y="61" width="104" height="85" fill="#00BD36" fill-opacity="0.1"/>
<rect x="1" y="67" width="93" height="43" rx="9" fill="#00BD36" fill-opacity="0.05" stroke="#00BD36" stroke-width="2"/>
<path d="M30.2461 81.0811H24.5771V98H21.9404V81.0811H16.2715V78.8545H30.2461V81.0811ZM34.4502 83.293H36.7793L36.8525 86.0029C37.7217 84.958 38.5762 84.2012 39.416 83.7324C40.2656 83.2637 41.1201 83.0293 41.9795 83.0293C43.5029 83.0293 44.6553 83.5225 45.4365 84.5088C46.2275 85.4951 46.5938 86.96 46.5352 88.9033H43.957C43.9863 87.6143 43.7959 86.6816 43.3857 86.1055C42.9854 85.5195 42.3945 85.2266 41.6133 85.2266C41.2715 85.2266 40.9248 85.29 40.5732 85.417C40.2314 85.5342 39.875 85.7295 39.5039 86.0029C39.1426 86.2666 38.7568 86.6084 38.3467 87.0283C37.9365 87.4482 37.4971 87.9561 37.0283 88.5518V98H34.4502V83.293ZM62.165 98H59.8799L59.792 95.627C59.3525 96.1348 58.9326 96.5596 58.5322 96.9014C58.1416 97.2334 57.751 97.502 57.3604 97.707C56.9697 97.9121 56.5742 98.0537 56.1738 98.1318C55.7832 98.2197 55.3682 98.2637 54.9287 98.2637C53.415 98.2637 52.2725 97.8193 51.501 96.9307C50.7295 96.042 50.3438 94.6992 50.3438 92.9023V83.293H52.8926V92.6973C52.8926 94.9531 53.7422 96.0811 55.4414 96.0811C55.7539 96.0811 56.0566 96.0371 56.3496 95.9492C56.6523 95.8516 56.9648 95.6904 57.2871 95.4658C57.6191 95.2314 57.9707 94.9189 58.3418 94.5283C58.7227 94.1377 59.1475 93.6445 59.6162 93.0488V83.293H62.165V98ZM79.2598 89.8701C79.2598 90.2314 79.2549 90.5342 79.2451 90.7783C79.2354 91.0225 79.2207 91.252 79.2012 91.4668H68.874C68.874 92.9707 69.2939 94.1279 70.1338 94.9385C70.9736 95.7393 72.1846 96.1396 73.7666 96.1396C74.1963 96.1396 74.626 96.125 75.0557 96.0957C75.4854 96.0566 75.9004 96.0078 76.3008 95.9492C76.7012 95.8906 77.082 95.8271 77.4434 95.7588C77.8145 95.6807 78.1562 95.5977 78.4688 95.5098V97.6045C77.7754 97.7998 76.9893 97.9561 76.1104 98.0732C75.2412 98.2002 74.3379 98.2637 73.4004 98.2637C72.1406 98.2637 71.0566 98.0928 70.1484 97.751C69.2402 97.4092 68.4932 96.916 67.9072 96.2715C67.3311 95.6172 66.9014 94.8213 66.6182 93.8838C66.3447 92.9365 66.208 91.8672 66.208 90.6758C66.208 89.6406 66.3545 88.6641 66.6475 87.7461C66.9502 86.8184 67.3848 86.0078 67.9512 85.3145C68.5273 84.6113 69.2305 84.0547 70.0605 83.6445C70.8906 83.2344 71.833 83.0293 72.8877 83.0293C73.9131 83.0293 74.8213 83.1904 75.6123 83.5127C76.4033 83.835 77.0674 84.2939 77.6045 84.8896C78.1514 85.4756 78.5615 86.1934 78.835 87.043C79.1182 87.8828 79.2598 88.8252 79.2598 89.8701ZM76.6084 89.5039C76.6377 88.8496 76.5742 88.2539 76.418 87.7168C76.2617 87.1699 76.0176 86.7012 75.6855 86.3105C75.3633 85.9199 74.958 85.6172 74.4697 85.4023C73.9814 85.1777 73.415 85.0654 72.7705 85.0654C72.2139 85.0654 71.7061 85.1729 71.2471 85.3877C70.7881 85.6025 70.3926 85.9053 70.0605 86.2959C69.7285 86.6865 69.46 87.1553 69.2549 87.7021C69.0498 88.249 68.9229 88.8496 68.874 89.5039H76.6084Z" fill="black"/>
<rect x="106" y="67" width="93" height="43" rx="9" fill="#00BD36" fill-opacity="0.05" stroke="#00BD36" stroke-width="2"/>
<path d="M135.246 81.0811H129.577V98H126.94V81.0811H121.271V78.8545H135.246V81.0811ZM139.45 83.293H141.779L141.853 86.0029C142.722 84.958 143.576 84.2012 144.416 83.7324C145.266 83.2637 146.12 83.0293 146.979 83.0293C148.503 83.0293 149.655 83.5225 150.437 84.5088C151.228 85.4951 151.594 86.96 151.535 88.9033H148.957C148.986 87.6143 148.796 86.6816 148.386 86.1055C147.985 85.5195 147.395 85.2266 146.613 85.2266C146.271 85.2266 145.925 85.29 145.573 85.417C145.231 85.5342 144.875 85.7295 144.504 86.0029C144.143 86.2666 143.757 86.6084 143.347 87.0283C142.937 87.4482 142.497 87.9561 142.028 88.5518V98H139.45V83.293ZM167.165 98H164.88L164.792 95.627C164.353 96.1348 163.933 96.5596 163.532 96.9014C163.142 97.2334 162.751 97.502 162.36 97.707C161.97 97.9121 161.574 98.0537 161.174 98.1318C160.783 98.2197 160.368 98.2637 159.929 98.2637C158.415 98.2637 157.272 97.8193 156.501 96.9307C155.729 96.042 155.344 94.6992 155.344 92.9023V83.293H157.893V92.6973C157.893 94.9531 158.742 96.0811 160.441 96.0811C160.754 96.0811 161.057 96.0371 161.35 95.9492C161.652 95.8516 161.965 95.6904 162.287 95.4658C162.619 95.2314 162.971 94.9189 163.342 94.5283C163.723 94.1377 164.147 93.6445 164.616 93.0488V83.293H167.165V98ZM184.26 89.8701C184.26 90.2314 184.255 90.5342 184.245 90.7783C184.235 91.0225 184.221 91.252 184.201 91.4668H173.874C173.874 92.9707 174.294 94.1279 175.134 94.9385C175.974 95.7393 177.185 96.1396 178.767 96.1396C179.196 96.1396 179.626 96.125 180.056 96.0957C180.485 96.0566 180.9 96.0078 181.301 95.9492C181.701 95.8906 182.082 95.8271 182.443 95.7588C182.814 95.6807 183.156 95.5977 183.469 95.5098V97.6045C182.775 97.7998 181.989 97.9561 181.11 98.0732C180.241 98.2002 179.338 98.2637 178.4 98.2637C177.141 98.2637 176.057 98.0928 175.148 97.751C174.24 97.4092 173.493 96.916 172.907 96.2715C172.331 95.6172 171.901 94.8213 171.618 93.8838C171.345 92.9365 171.208 91.8672 171.208 90.6758C171.208 89.6406 171.354 88.6641 171.647 87.7461C171.95 86.8184 172.385 86.0078 172.951 85.3145C173.527 84.6113 174.23 84.0547 175.061 83.6445C175.891 83.2344 176.833 83.0293 177.888 83.0293C178.913 83.0293 179.821 83.1904 180.612 83.5127C181.403 83.835 182.067 84.2939 182.604 84.8896C183.151 85.4756 183.562 86.1934 183.835 87.043C184.118 87.8828 184.26 88.8252 184.26 89.8701ZM181.608 89.5039C181.638 88.8496 181.574 88.2539 181.418 87.7168C181.262 87.1699 181.018 86.7012 180.686 86.3105C180.363 85.9199 179.958 85.6172 179.47 85.4023C178.981 85.1777 178.415 85.0654 177.771 85.0654C177.214 85.0654 176.706 85.1729 176.247 85.3877C175.788 85.6025 175.393 85.9053 175.061 86.2959C174.729 86.6865 174.46 87.1553 174.255 87.7021C174.05 88.249 173.923 88.8496 173.874 89.5039H181.608Z" fill="black"/>
<rect x="211" y="67" width="93" height="43" rx="9" fill="#00BD36" fill-opacity="0.05" stroke="#00BD36" stroke-width="2"/>
<path d="M240.246 81.0811H234.577V98H231.94V81.0811H226.271V78.8545H240.246V81.0811ZM244.45 83.293H246.779L246.853 86.0029C247.722 84.958 248.576 84.2012 249.416 83.7324C250.266 83.2637 251.12 83.0293 251.979 83.0293C253.503 83.0293 254.655 83.5225 255.437 84.5088C256.228 85.4951 256.594 86.96 256.535 88.9033H253.957C253.986 87.6143 253.796 86.6816 253.386 86.1055C252.985 85.5195 252.395 85.2266 251.613 85.2266C251.271 85.2266 250.925 85.29 250.573 85.417C250.231 85.5342 249.875 85.7295 249.504 86.0029C249.143 86.2666 248.757 86.6084 248.347 87.0283C247.937 87.4482 247.497 87.9561 247.028 88.5518V98H244.45V83.293ZM272.165 98H269.88L269.792 95.627C269.353 96.1348 268.933 96.5596 268.532 96.9014C268.142 97.2334 267.751 97.502 267.36 97.707C266.97 97.9121 266.574 98.0537 266.174 98.1318C265.783 98.2197 265.368 98.2637 264.929 98.2637C263.415 98.2637 262.272 97.8193 261.501 96.9307C260.729 96.042 260.344 94.6992 260.344 92.9023V83.293H262.893V92.6973C262.893 94.9531 263.742 96.0811 265.441 96.0811C265.754 96.0811 266.057 96.0371 266.35 95.9492C266.652 95.8516 266.965 95.6904 267.287 95.4658C267.619 95.2314 267.971 94.9189 268.342 94.5283C268.723 94.1377 269.147 93.6445 269.616 93.0488V83.293H272.165V98ZM289.26 89.8701C289.26 90.2314 289.255 90.5342 289.245 90.7783C289.235 91.0225 289.221 91.252 289.201 91.4668H278.874C278.874 92.9707 279.294 94.1279 280.134 94.9385C280.974 95.7393 282.185 96.1396 283.767 96.1396C284.196 96.1396 284.626 96.125 285.056 96.0957C285.485 96.0566 285.9 96.0078 286.301 95.9492C286.701 95.8906 287.082 95.8271 287.443 95.7588C287.814 95.6807 288.156 95.5977 288.469 95.5098V97.6045C287.775 97.7998 286.989 97.9561 286.11 98.0732C285.241 98.2002 284.338 98.2637 283.4 98.2637C282.141 98.2637 281.057 98.0928 280.148 97.751C279.24 97.4092 278.493 96.916 277.907 96.2715C277.331 95.6172 276.901 94.8213 276.618 93.8838C276.345 92.9365 276.208 91.8672 276.208 90.6758C276.208 89.6406 276.354 88.6641 276.647 87.7461C276.95 86.8184 277.385 86.0078 277.951 85.3145C278.527 84.6113 279.23 84.0547 280.061 83.6445C280.891 83.2344 281.833 83.0293 282.888 83.0293C283.913 83.0293 284.821 83.1904 285.612 83.5127C286.403 83.835 287.067 84.2939 287.604 84.8896C288.151 85.4756 288.562 86.1934 288.835 87.043C289.118 87.8828 289.26 88.8252 289.26 89.8701ZM286.608 89.5039C286.638 88.8496 286.574 88.2539 286.418 87.7168C286.262 87.1699 286.018 86.7012 285.686 86.3105C285.363 85.9199 284.958 85.6172 284.47 85.4023C283.981 85.1777 283.415 85.0654 282.771 85.0654C282.214 85.0654 281.706 85.1729 281.247 85.3877C280.788 85.6025 280.393 85.9053 280.061 86.2959C279.729 86.6865 279.46 87.1553 279.255 87.7021C279.05 88.249 278.923 88.8496 278.874 89.5039H286.608Z" fill="black"/>
<rect x="317" y="67" width="93" height="43" rx="9" fill="#00BD36" fill-opacity="0.05" stroke="#00BD36" stroke-width="2"/>
<path d="M345.246 81.0811H339.577V98H336.94V81.0811H331.271V78.8545H345.246V81.0811ZM349.45 83.293H351.779L351.853 86.0029C352.722 84.958 353.576 84.2012 354.416 83.7324C355.266 83.2637 356.12 83.0293 356.979 83.0293C358.503 83.0293 359.655 83.5225 360.437 84.5088C361.228 85.4951 361.594 86.96 361.535 88.9033H358.957C358.986 87.6143 358.796 86.6816 358.386 86.1055C357.985 85.5195 357.395 85.2266 356.613 85.2266C356.271 85.2266 355.925 85.29 355.573 85.417C355.231 85.5342 354.875 85.7295 354.504 86.0029C354.143 86.2666 353.757 86.6084 353.347 87.0283C352.937 87.4482 352.497 87.9561 352.028 88.5518V98H349.45V83.293ZM377.165 98H374.88L374.792 95.627C374.353 96.1348 373.933 96.5596 373.532 96.9014C373.142 97.2334 372.751 97.502 372.36 97.707C371.97 97.9121 371.574 98.0537 371.174 98.1318C370.783 98.2197 370.368 98.2637 369.929 98.2637C368.415 98.2637 367.272 97.8193 366.501 96.9307C365.729 96.042 365.344 94.6992 365.344 92.9023V83.293H367.893V92.6973C367.893 94.9531 368.742 96.0811 370.441 96.0811C370.754 96.0811 371.057 96.0371 371.35 95.9492C371.652 95.8516 371.965 95.6904 372.287 95.4658C372.619 95.2314 372.971 94.9189 373.342 94.5283C373.723 94.1377 374.147 93.6445 374.616 93.0488V83.293H377.165V98ZM394.26 89.8701C394.26 90.2314 394.255 90.5342 394.245 90.7783C394.235 91.0225 394.221 91.252 394.201 91.4668H383.874C383.874 92.9707 384.294 94.1279 385.134 94.9385C385.974 95.7393 387.185 96.1396 388.767 96.1396C389.196 96.1396 389.626 96.125 390.056 96.0957C390.485 96.0566 390.9 96.0078 391.301 95.9492C391.701 95.8906 392.082 95.8271 392.443 95.7588C392.814 95.6807 393.156 95.5977 393.469 95.5098V97.6045C392.775 97.7998 391.989 97.9561 391.11 98.0732C390.241 98.2002 389.338 98.2637 388.4 98.2637C387.141 98.2637 386.057 98.0928 385.148 97.751C384.24 97.4092 383.493 96.916 382.907 96.2715C382.331 95.6172 381.901 94.8213 381.618 93.8838C381.345 92.9365 381.208 91.8672 381.208 90.6758C381.208 89.6406 381.354 88.6641 381.647 87.7461C381.95 86.8184 382.385 86.0078 382.951 85.3145C383.527 84.6113 384.23 84.0547 385.061 83.6445C385.891 83.2344 386.833 83.0293 387.888 83.0293C388.913 83.0293 389.821 83.1904 390.612 83.5127C391.403 83.835 392.067 84.2939 392.604 84.8896C393.151 85.4756 393.562 86.1934 393.835 87.043C394.118 87.8828 394.26 88.8252 394.26 89.8701ZM391.608 89.5039C391.638 88.8496 391.574 88.2539 391.418 87.7168C391.262 87.1699 391.018 86.7012 390.686 86.3105C390.363 85.9199 389.958 85.6172 389.47 85.4023C388.981 85.1777 388.415 85.0654 387.771 85.0654C387.214 85.0654 386.706 85.1729 386.247 85.3877C385.788 85.6025 385.393 85.9053 385.061 86.2959C384.729 86.6865 384.46 87.1553 384.255 87.7021C384.05 88.249 383.923 88.8496 383.874 89.5039H391.608Z" fill="black"/>
<rect x="421" y="67" width="93" height="43" rx="9" fill="#FF0000" fill-opacity="0.15" stroke="#FF0000" stroke-width="2"/>
<path d="M440.063 81.0811H431.934V87.292H439.639V89.4746H431.934V98H429.268V78.8545H440.063V81.0811ZM454.551 98L454.492 96.0225C453.691 96.8135 452.876 97.3848 452.046 97.7363C451.226 98.0879 450.361 98.2637 449.453 98.2637C448.613 98.2637 447.896 98.1562 447.3 97.9414C446.704 97.7266 446.211 97.4336 445.82 97.0625C445.439 96.6816 445.156 96.2373 444.971 95.7295C444.795 95.2217 444.707 94.6699 444.707 94.0742C444.707 92.5996 445.254 91.4473 446.348 90.6172C447.451 89.7773 449.077 89.3574 451.226 89.3574H454.272V88.0684C454.272 87.1992 453.994 86.5059 453.438 85.9883C452.881 85.4609 452.031 85.1973 450.889 85.1973C450.059 85.1973 449.238 85.29 448.428 85.4756C447.627 85.6611 446.797 85.9248 445.938 86.2666V83.9668C446.26 83.8496 446.616 83.7373 447.007 83.6299C447.407 83.5127 447.827 83.4102 448.267 83.3223C448.706 83.2344 449.165 83.166 449.644 83.1172C450.122 83.0586 450.605 83.0293 451.094 83.0293C451.982 83.0293 452.783 83.127 453.496 83.3223C454.209 83.5176 454.81 83.8154 455.298 84.2158C455.796 84.6162 456.177 85.1191 456.44 85.7246C456.704 86.3301 456.836 87.043 456.836 87.8633V98H454.551ZM454.272 91.3057H451.035C450.4 91.3057 449.854 91.3691 449.395 91.4961C448.936 91.623 448.56 91.8037 448.267 92.0381C447.974 92.2725 447.754 92.5557 447.607 92.8877C447.471 93.21 447.402 93.5762 447.402 93.9863C447.402 94.2695 447.446 94.543 447.534 94.8066C447.622 95.0605 447.764 95.29 447.959 95.4951C448.154 95.6904 448.408 95.8467 448.721 95.9639C449.033 96.0811 449.414 96.1396 449.863 96.1396C450.449 96.1396 451.118 95.9639 451.87 95.6123C452.632 95.251 453.433 94.6846 454.272 93.9131V91.3057ZM466.606 79.3965H462.256V77.3018H469.185V95.876H473.564V98H461.772V95.876H466.606V79.3965ZM489.736 93.9863C489.736 94.5039 489.648 94.9678 489.473 95.3779C489.297 95.7881 489.058 96.1543 488.755 96.4766C488.452 96.7891 488.101 97.0576 487.7 97.2822C487.3 97.5068 486.87 97.6924 486.411 97.8389C485.962 97.9854 485.498 98.0928 485.02 98.1611C484.541 98.2295 484.072 98.2637 483.613 98.2637C482.617 98.2637 481.699 98.2197 480.859 98.1318C480.029 98.0439 479.214 97.9023 478.413 97.707V95.3633C479.272 95.6074 480.127 95.793 480.977 95.9199C481.826 96.0469 482.671 96.1104 483.511 96.1104C484.731 96.1104 485.635 95.9443 486.221 95.6123C486.807 95.2803 487.1 94.8066 487.1 94.1914C487.1 93.9277 487.051 93.6934 486.953 93.4883C486.865 93.2734 486.699 93.0732 486.455 92.8877C486.211 92.6924 485.83 92.4922 485.312 92.2871C484.805 92.082 484.106 91.8477 483.218 91.584C482.554 91.3887 481.938 91.1689 481.372 90.9248C480.815 90.6709 480.332 90.373 479.922 90.0312C479.512 89.6895 479.189 89.2891 478.955 88.8301C478.721 88.3711 478.604 87.8291 478.604 87.2041C478.604 86.7939 478.696 86.3447 478.882 85.8564C479.077 85.3682 479.404 84.9141 479.863 84.4941C480.322 84.0742 480.942 83.7275 481.724 83.4541C482.505 83.1709 483.481 83.0293 484.653 83.0293C485.229 83.0293 485.869 83.0635 486.572 83.1318C487.275 83.1904 488.008 83.2979 488.77 83.4541V85.7246C487.969 85.5293 487.207 85.3877 486.484 85.2998C485.771 85.2021 485.151 85.1533 484.624 85.1533C483.989 85.1533 483.452 85.2021 483.013 85.2998C482.583 85.3975 482.231 85.5342 481.958 85.71C481.694 85.876 481.504 86.0762 481.387 86.3105C481.27 86.5352 481.211 86.7793 481.211 87.043C481.211 87.3066 481.26 87.5459 481.357 87.7607C481.465 87.9756 481.655 88.1855 481.929 88.3906C482.212 88.5859 482.603 88.7861 483.101 88.9912C483.599 89.1865 484.248 89.4014 485.049 89.6357C485.918 89.8896 486.65 90.1582 487.246 90.4414C487.842 90.7148 488.325 91.0225 488.696 91.3643C489.067 91.7061 489.331 92.0918 489.487 92.5215C489.653 92.9512 489.736 93.4395 489.736 93.9863ZM507.007 89.8701C507.007 90.2314 507.002 90.5342 506.992 90.7783C506.982 91.0225 506.968 91.252 506.948 91.4668H496.621C496.621 92.9707 497.041 94.1279 497.881 94.9385C498.721 95.7393 499.932 96.1396 501.514 96.1396C501.943 96.1396 502.373 96.125 502.803 96.0957C503.232 96.0566 503.647 96.0078 504.048 95.9492C504.448 95.8906 504.829 95.8271 505.19 95.7588C505.562 95.6807 505.903 95.5977 506.216 95.5098V97.6045C505.522 97.7998 504.736 97.9561 503.857 98.0732C502.988 98.2002 502.085 98.2637 501.147 98.2637C499.888 98.2637 498.804 98.0928 497.896 97.751C496.987 97.4092 496.24 96.916 495.654 96.2715C495.078 95.6172 494.648 94.8213 494.365 93.8838C494.092 92.9365 493.955 91.8672 493.955 90.6758C493.955 89.6406 494.102 88.6641 494.395 87.7461C494.697 86.8184 495.132 86.0078 495.698 85.3145C496.274 84.6113 496.978 84.0547 497.808 83.6445C498.638 83.2344 499.58 83.0293 500.635 83.0293C501.66 83.0293 502.568 83.1904 503.359 83.5127C504.15 83.835 504.814 84.2939 505.352 84.8896C505.898 85.4756 506.309 86.1934 506.582 87.043C506.865 87.8828 507.007 88.8252 507.007 89.8701ZM504.355 89.5039C504.385 88.8496 504.321 88.2539 504.165 87.7168C504.009 87.1699 503.765 86.7012 503.433 86.3105C503.11 85.9199 502.705 85.6172 502.217 85.4023C501.729 85.1777 501.162 85.0654 500.518 85.0654C499.961 85.0654 499.453 85.1729 498.994 85.3877C498.535 85.6025 498.14 85.9053 497.808 86.2959C497.476 86.6865 497.207 87.1553 497.002 87.7021C496.797 88.249 496.67 88.8496 496.621 89.5039H504.355Z" fill="black"/>
<rect x="526" y="67" width="93" height="43" rx="9" fill="#FF0000" fill-opacity="0.15" stroke="#FF0000" stroke-width="2"/>
<path d="M545.063 81.0811H536.934V87.292H544.639V89.4746H536.934V98H534.268V78.8545H545.063V81.0811ZM559.551 98L559.492 96.0225C558.691 96.8135 557.876 97.3848 557.046 97.7363C556.226 98.0879 555.361 98.2637 554.453 98.2637C553.613 98.2637 552.896 98.1562 552.3 97.9414C551.704 97.7266 551.211 97.4336 550.82 97.0625C550.439 96.6816 550.156 96.2373 549.971 95.7295C549.795 95.2217 549.707 94.6699 549.707 94.0742C549.707 92.5996 550.254 91.4473 551.348 90.6172C552.451 89.7773 554.077 89.3574 556.226 89.3574H559.272V88.0684C559.272 87.1992 558.994 86.5059 558.438 85.9883C557.881 85.4609 557.031 85.1973 555.889 85.1973C555.059 85.1973 554.238 85.29 553.428 85.4756C552.627 85.6611 551.797 85.9248 550.938 86.2666V83.9668C551.26 83.8496 551.616 83.7373 552.007 83.6299C552.407 83.5127 552.827 83.4102 553.267 83.3223C553.706 83.2344 554.165 83.166 554.644 83.1172C555.122 83.0586 555.605 83.0293 556.094 83.0293C556.982 83.0293 557.783 83.127 558.496 83.3223C559.209 83.5176 559.81 83.8154 560.298 84.2158C560.796 84.6162 561.177 85.1191 561.44 85.7246C561.704 86.3301 561.836 87.043 561.836 87.8633V98H559.551ZM559.272 91.3057H556.035C555.4 91.3057 554.854 91.3691 554.395 91.4961C553.936 91.623 553.56 91.8037 553.267 92.0381C552.974 92.2725 552.754 92.5557 552.607 92.8877C552.471 93.21 552.402 93.5762 552.402 93.9863C552.402 94.2695 552.446 94.543 552.534 94.8066C552.622 95.0605 552.764 95.29 552.959 95.4951C553.154 95.6904 553.408 95.8467 553.721 95.9639C554.033 96.0811 554.414 96.1396 554.863 96.1396C555.449 96.1396 556.118 95.9639 556.87 95.6123C557.632 95.251 558.433 94.6846 559.272 93.9131V91.3057ZM571.606 79.3965H567.256V77.3018H574.185V95.876H578.564V98H566.772V95.876H571.606V79.3965ZM594.736 93.9863C594.736 94.5039 594.648 94.9678 594.473 95.3779C594.297 95.7881 594.058 96.1543 593.755 96.4766C593.452 96.7891 593.101 97.0576 592.7 97.2822C592.3 97.5068 591.87 97.6924 591.411 97.8389C590.962 97.9854 590.498 98.0928 590.02 98.1611C589.541 98.2295 589.072 98.2637 588.613 98.2637C587.617 98.2637 586.699 98.2197 585.859 98.1318C585.029 98.0439 584.214 97.9023 583.413 97.707V95.3633C584.272 95.6074 585.127 95.793 585.977 95.9199C586.826 96.0469 587.671 96.1104 588.511 96.1104C589.731 96.1104 590.635 95.9443 591.221 95.6123C591.807 95.2803 592.1 94.8066 592.1 94.1914C592.1 93.9277 592.051 93.6934 591.953 93.4883C591.865 93.2734 591.699 93.0732 591.455 92.8877C591.211 92.6924 590.83 92.4922 590.312 92.2871C589.805 92.082 589.106 91.8477 588.218 91.584C587.554 91.3887 586.938 91.1689 586.372 90.9248C585.815 90.6709 585.332 90.373 584.922 90.0312C584.512 89.6895 584.189 89.2891 583.955 88.8301C583.721 88.3711 583.604 87.8291 583.604 87.2041C583.604 86.7939 583.696 86.3447 583.882 85.8564C584.077 85.3682 584.404 84.9141 584.863 84.4941C585.322 84.0742 585.942 83.7275 586.724 83.4541C587.505 83.1709 588.481 83.0293 589.653 83.0293C590.229 83.0293 590.869 83.0635 591.572 83.1318C592.275 83.1904 593.008 83.2979 593.77 83.4541V85.7246C592.969 85.5293 592.207 85.3877 591.484 85.2998C590.771 85.2021 590.151 85.1533 589.624 85.1533C588.989 85.1533 588.452 85.2021 588.013 85.2998C587.583 85.3975 587.231 85.5342 586.958 85.71C586.694 85.876 586.504 86.0762 586.387 86.3105C586.27 86.5352 586.211 86.7793 586.211 87.043C586.211 87.3066 586.26 87.5459 586.357 87.7607C586.465 87.9756 586.655 88.1855 586.929 88.3906C587.212 88.5859 587.603 88.7861 588.101 88.9912C588.599 89.1865 589.248 89.4014 590.049 89.6357C590.918 89.8896 591.65 90.1582 592.246 90.4414C592.842 90.7148 593.325 91.0225 593.696 91.3643C594.067 91.7061 594.331 92.0918 594.487 92.5215C594.653 92.9512 594.736 93.4395 594.736 93.9863ZM612.007 89.8701C612.007 90.2314 612.002 90.5342 611.992 90.7783C611.982 91.0225 611.968 91.252 611.948 91.4668H601.621C601.621 92.9707 602.041 94.1279 602.881 94.9385C603.721 95.7393 604.932 96.1396 606.514 96.1396C606.943 96.1396 607.373 96.125 607.803 96.0957C608.232 96.0566 608.647 96.0078 609.048 95.9492C609.448 95.8906 609.829 95.8271 610.19 95.7588C610.562 95.6807 610.903 95.5977 611.216 95.5098V97.6045C610.522 97.7998 609.736 97.9561 608.857 98.0732C607.988 98.2002 607.085 98.2637 606.147 98.2637C604.888 98.2637 603.804 98.0928 602.896 97.751C601.987 97.4092 601.24 96.916 600.654 96.2715C600.078 95.6172 599.648 94.8213 599.365 93.8838C599.092 92.9365 598.955 91.8672 598.955 90.6758C598.955 89.6406 599.102 88.6641 599.395 87.7461C599.697 86.8184 600.132 86.0078 600.698 85.3145C601.274 84.6113 601.978 84.0547 602.808 83.6445C603.638 83.2344 604.58 83.0293 605.635 83.0293C606.66 83.0293 607.568 83.1904 608.359 83.5127C609.15 83.835 609.814 84.2939 610.352 84.8896C610.898 85.4756 611.309 86.1934 611.582 87.043C611.865 87.8828 612.007 88.8252 612.007 89.8701ZM609.355 89.5039C609.385 88.8496 609.321 88.2539 609.165 87.7168C609.009 87.1699 608.765 86.7012 608.433 86.3105C608.11 85.9199 607.705 85.6172 607.217 85.4023C606.729 85.1777 606.162 85.0654 605.518 85.0654C604.961 85.0654 604.453 85.1729 603.994 85.3877C603.535 85.6025 603.14 85.9053 602.808 86.2959C602.476 86.6865 602.207 87.1553 602.002 87.7021C601.797 88.249 601.67 88.8496 601.621 89.5039H609.355Z" fill="black"/>
<rect x="631" y="67" width="93" height="43" rx="9" fill="#FF0000" fill-opacity="0.15" stroke="#FF0000" stroke-width="2"/>
<path d="M650.063 81.0811H641.934V87.292H649.639V89.4746H641.934V98H639.268V78.8545H650.063V81.0811ZM664.551 98L664.492 96.0225C663.691 96.8135 662.876 97.3848 662.046 97.7363C661.226 98.0879 660.361 98.2637 659.453 98.2637C658.613 98.2637 657.896 98.1562 657.3 97.9414C656.704 97.7266 656.211 97.4336 655.82 97.0625C655.439 96.6816 655.156 96.2373 654.971 95.7295C654.795 95.2217 654.707 94.6699 654.707 94.0742C654.707 92.5996 655.254 91.4473 656.348 90.6172C657.451 89.7773 659.077 89.3574 661.226 89.3574H664.272V88.0684C664.272 87.1992 663.994 86.5059 663.438 85.9883C662.881 85.4609 662.031 85.1973 660.889 85.1973C660.059 85.1973 659.238 85.29 658.428 85.4756C657.627 85.6611 656.797 85.9248 655.938 86.2666V83.9668C656.26 83.8496 656.616 83.7373 657.007 83.6299C657.407 83.5127 657.827 83.4102 658.267 83.3223C658.706 83.2344 659.165 83.166 659.644 83.1172C660.122 83.0586 660.605 83.0293 661.094 83.0293C661.982 83.0293 662.783 83.127 663.496 83.3223C664.209 83.5176 664.81 83.8154 665.298 84.2158C665.796 84.6162 666.177 85.1191 666.44 85.7246C666.704 86.3301 666.836 87.043 666.836 87.8633V98H664.551ZM664.272 91.3057H661.035C660.4 91.3057 659.854 91.3691 659.395 91.4961C658.936 91.623 658.56 91.8037 658.267 92.0381C657.974 92.2725 657.754 92.5557 657.607 92.8877C657.471 93.21 657.402 93.5762 657.402 93.9863C657.402 94.2695 657.446 94.543 657.534 94.8066C657.622 95.0605 657.764 95.29 657.959 95.4951C658.154 95.6904 658.408 95.8467 658.721 95.9639C659.033 96.0811 659.414 96.1396 659.863 96.1396C660.449 96.1396 661.118 95.9639 661.87 95.6123C662.632 95.251 663.433 94.6846 664.272 93.9131V91.3057ZM676.606 79.3965H672.256V77.3018H679.185V95.876H683.564V98H671.772V95.876H676.606V79.3965ZM699.736 93.9863C699.736 94.5039 699.648 94.9678 699.473 95.3779C699.297 95.7881 699.058 96.1543 698.755 96.4766C698.452 96.7891 698.101 97.0576 697.7 97.2822C697.3 97.5068 696.87 97.6924 696.411 97.8389C695.962 97.9854 695.498 98.0928 695.02 98.1611C694.541 98.2295 694.072 98.2637 693.613 98.2637C692.617 98.2637 691.699 98.2197 690.859 98.1318C690.029 98.0439 689.214 97.9023 688.413 97.707V95.3633C689.272 95.6074 690.127 95.793 690.977 95.9199C691.826 96.0469 692.671 96.1104 693.511 96.1104C694.731 96.1104 695.635 95.9443 696.221 95.6123C696.807 95.2803 697.1 94.8066 697.1 94.1914C697.1 93.9277 697.051 93.6934 696.953 93.4883C696.865 93.2734 696.699 93.0732 696.455 92.8877C696.211 92.6924 695.83 92.4922 695.312 92.2871C694.805 92.082 694.106 91.8477 693.218 91.584C692.554 91.3887 691.938 91.1689 691.372 90.9248C690.815 90.6709 690.332 90.373 689.922 90.0312C689.512 89.6895 689.189 89.2891 688.955 88.8301C688.721 88.3711 688.604 87.8291 688.604 87.2041C688.604 86.7939 688.696 86.3447 688.882 85.8564C689.077 85.3682 689.404 84.9141 689.863 84.4941C690.322 84.0742 690.942 83.7275 691.724 83.4541C692.505 83.1709 693.481 83.0293 694.653 83.0293C695.229 83.0293 695.869 83.0635 696.572 83.1318C697.275 83.1904 698.008 83.2979 698.77 83.4541V85.7246C697.969 85.5293 697.207 85.3877 696.484 85.2998C695.771 85.2021 695.151 85.1533 694.624 85.1533C693.989 85.1533 693.452 85.2021 693.013 85.2998C692.583 85.3975 692.231 85.5342 691.958 85.71C691.694 85.876 691.504 86.0762 691.387 86.3105C691.27 86.5352 691.211 86.7793 691.211 87.043C691.211 87.3066 691.26 87.5459 691.357 87.7607C691.465 87.9756 691.655 88.1855 691.929 88.3906C692.212 88.5859 692.603 88.7861 693.101 88.9912C693.599 89.1865 694.248 89.4014 695.049 89.6357C695.918 89.8896 696.65 90.1582 697.246 90.4414C697.842 90.7148 698.325 91.0225 698.696 91.3643C699.067 91.7061 699.331 92.0918 699.487 92.5215C699.653 92.9512 699.736 93.4395 699.736 93.9863ZM717.007 89.8701C717.007 90.2314 717.002 90.5342 716.992 90.7783C716.982 91.0225 716.968 91.252 716.948 91.4668H706.621C706.621 92.9707 707.041 94.1279 707.881 94.9385C708.721 95.7393 709.932 96.1396 711.514 96.1396C711.943 96.1396 712.373 96.125 712.803 96.0957C713.232 96.0566 713.647 96.0078 714.048 95.9492C714.448 95.8906 714.829 95.8271 715.19 95.7588C715.562 95.6807 715.903 95.5977 716.216 95.5098V97.6045C715.522 97.7998 714.736 97.9561 713.857 98.0732C712.988 98.2002 712.085 98.2637 711.147 98.2637C709.888 98.2637 708.804 98.0928 707.896 97.751C706.987 97.4092 706.24 96.916 705.654 96.2715C705.078 95.6172 704.648 94.8213 704.365 93.8838C704.092 92.9365 703.955 91.8672 703.955 90.6758C703.955 89.6406 704.102 88.6641 704.395 87.7461C704.697 86.8184 705.132 86.0078 705.698 85.3145C706.274 84.6113 706.978 84.0547 707.808 83.6445C708.638 83.2344 709.58 83.0293 710.635 83.0293C711.66 83.0293 712.568 83.1904 713.359 83.5127C714.15 83.835 714.814 84.2939 715.352 84.8896C715.898 85.4756 716.309 86.1934 716.582 87.043C716.865 87.8828 717.007 88.8252 717.007 89.8701ZM714.355 89.5039C714.385 88.8496 714.321 88.2539 714.165 87.7168C714.009 87.1699 713.765 86.7012 713.433 86.3105C713.11 85.9199 712.705 85.6172 712.217 85.4023C711.729 85.1777 711.162 85.0654 710.518 85.0654C709.961 85.0654 709.453 85.1729 708.994 85.3877C708.535 85.6025 708.14 85.9053 707.808 86.2959C707.476 86.6865 707.207 87.1553 707.002 87.7021C706.797 88.249 706.67 88.8496 706.621 89.5039H714.355Z" fill="black"/>
<rect x="736" y="67" width="93" height="43" rx="9" fill="#FF0000" fill-opacity="0.15" stroke="#FF0000" stroke-width="2"/>
<path d="M755.063 81.0811H746.934V87.292H754.639V89.4746H746.934V98H744.268V78.8545H755.063V81.0811ZM769.551 98L769.492 96.0225C768.691 96.8135 767.876 97.3848 767.046 97.7363C766.226 98.0879 765.361 98.2637 764.453 98.2637C763.613 98.2637 762.896 98.1562 762.3 97.9414C761.704 97.7266 761.211 97.4336 760.82 97.0625C760.439 96.6816 760.156 96.2373 759.971 95.7295C759.795 95.2217 759.707 94.6699 759.707 94.0742C759.707 92.5996 760.254 91.4473 761.348 90.6172C762.451 89.7773 764.077 89.3574 766.226 89.3574H769.272V88.0684C769.272 87.1992 768.994 86.5059 768.438 85.9883C767.881 85.4609 767.031 85.1973 765.889 85.1973C765.059 85.1973 764.238 85.29 763.428 85.4756C762.627 85.6611 761.797 85.9248 760.938 86.2666V83.9668C761.26 83.8496 761.616 83.7373 762.007 83.6299C762.407 83.5127 762.827 83.4102 763.267 83.3223C763.706 83.2344 764.165 83.166 764.644 83.1172C765.122 83.0586 765.605 83.0293 766.094 83.0293C766.982 83.0293 767.783 83.127 768.496 83.3223C769.209 83.5176 769.81 83.8154 770.298 84.2158C770.796 84.6162 771.177 85.1191 771.44 85.7246C771.704 86.3301 771.836 87.043 771.836 87.8633V98H769.551ZM769.272 91.3057H766.035C765.4 91.3057 764.854 91.3691 764.395 91.4961C763.936 91.623 763.56 91.8037 763.267 92.0381C762.974 92.2725 762.754 92.5557 762.607 92.8877C762.471 93.21 762.402 93.5762 762.402 93.9863C762.402 94.2695 762.446 94.543 762.534 94.8066C762.622 95.0605 762.764 95.29 762.959 95.4951C763.154 95.6904 763.408 95.8467 763.721 95.9639C764.033 96.0811 764.414 96.1396 764.863 96.1396C765.449 96.1396 766.118 95.9639 766.87 95.6123C767.632 95.251 768.433 94.6846 769.272 93.9131V91.3057ZM781.606 79.3965H777.256V77.3018H784.185V95.876H788.564V98H776.772V95.876H781.606V79.3965ZM804.736 93.9863C804.736 94.5039 804.648 94.9678 804.473 95.3779C804.297 95.7881 804.058 96.1543 803.755 96.4766C803.452 96.7891 803.101 97.0576 802.7 97.2822C802.3 97.5068 801.87 97.6924 801.411 97.8389C800.962 97.9854 800.498 98.0928 800.02 98.1611C799.541 98.2295 799.072 98.2637 798.613 98.2637C797.617 98.2637 796.699 98.2197 795.859 98.1318C795.029 98.0439 794.214 97.9023 793.413 97.707V95.3633C794.272 95.6074 795.127 95.793 795.977 95.9199C796.826 96.0469 797.671 96.1104 798.511 96.1104C799.731 96.1104 800.635 95.9443 801.221 95.6123C801.807 95.2803 802.1 94.8066 802.1 94.1914C802.1 93.9277 802.051 93.6934 801.953 93.4883C801.865 93.2734 801.699 93.0732 801.455 92.8877C801.211 92.6924 800.83 92.4922 800.312 92.2871C799.805 92.082 799.106 91.8477 798.218 91.584C797.554 91.3887 796.938 91.1689 796.372 90.9248C795.815 90.6709 795.332 90.373 794.922 90.0312C794.512 89.6895 794.189 89.2891 793.955 88.8301C793.721 88.3711 793.604 87.8291 793.604 87.2041C793.604 86.7939 793.696 86.3447 793.882 85.8564C794.077 85.3682 794.404 84.9141 794.863 84.4941C795.322 84.0742 795.942 83.7275 796.724 83.4541C797.505 83.1709 798.481 83.0293 799.653 83.0293C800.229 83.0293 800.869 83.0635 801.572 83.1318C802.275 83.1904 803.008 83.2979 803.77 83.4541V85.7246C802.969 85.5293 802.207 85.3877 801.484 85.2998C800.771 85.2021 800.151 85.1533 799.624 85.1533C798.989 85.1533 798.452 85.2021 798.013 85.2998C797.583 85.3975 797.231 85.5342 796.958 85.71C796.694 85.876 796.504 86.0762 796.387 86.3105C796.27 86.5352 796.211 86.7793 796.211 87.043C796.211 87.3066 796.26 87.5459 796.357 87.7607C796.465 87.9756 796.655 88.1855 796.929 88.3906C797.212 88.5859 797.603 88.7861 798.101 88.9912C798.599 89.1865 799.248 89.4014 800.049 89.6357C800.918 89.8896 801.65 90.1582 802.246 90.4414C802.842 90.7148 803.325 91.0225 803.696 91.3643C804.067 91.7061 804.331 92.0918 804.487 92.5215C804.653 92.9512 804.736 93.4395 804.736 93.9863ZM822.007 89.8701C822.007 90.2314 822.002 90.5342 821.992 90.7783C821.982 91.0225 821.968 91.252 821.948 91.4668H811.621C811.621 92.9707 812.041 94.1279 812.881 94.9385C813.721 95.7393 814.932 96.1396 816.514 96.1396C816.943 96.1396 817.373 96.125 817.803 96.0957C818.232 96.0566 818.647 96.0078 819.048 95.9492C819.448 95.8906 819.829 95.8271 820.19 95.7588C820.562 95.6807 820.903 95.5977 821.216 95.5098V97.6045C820.522 97.7998 819.736 97.9561 818.857 98.0732C817.988 98.2002 817.085 98.2637 816.147 98.2637C814.888 98.2637 813.804 98.0928 812.896 97.751C811.987 97.4092 811.24 96.916 810.654 96.2715C810.078 95.6172 809.648 94.8213 809.365 93.8838C809.092 92.9365 808.955 91.8672 808.955 90.6758C808.955 89.6406 809.102 88.6641 809.395 87.7461C809.697 86.8184 810.132 86.0078 810.698 85.3145C811.274 84.6113 811.978 84.0547 812.808 83.6445C813.638 83.2344 814.58 83.0293 815.635 83.0293C816.66 83.0293 817.568 83.1904 818.359 83.5127C819.15 83.835 819.814 84.2939 820.352 84.8896C820.898 85.4756 821.309 86.1934 821.582 87.043C821.865 87.8828 822.007 88.8252 822.007 89.8701ZM819.355 89.5039C819.385 88.8496 819.321 88.2539 819.165 87.7168C819.009 87.1699 818.765 86.7012 818.433 86.3105C818.11 85.9199 817.705 85.6172 817.217 85.4023C816.729 85.1777 816.162 85.0654 815.518 85.0654C814.961 85.0654 814.453 85.1729 813.994 85.3877C813.535 85.6025 813.14 85.9053 812.808 86.2959C812.476 86.6865 812.207 87.1553 812.002 87.7021C811.797 88.249 811.67 88.8496 811.621 89.5039H819.355Z" fill="black"/>
<rect x="841" y="67" width="93" height="43" rx="9" fill="#FF0000" fill-opacity="0.15" stroke="#FF0000" stroke-width="2"/>
<path d="M860.063 81.0811H851.934V87.292H859.639V89.4746H851.934V98H849.268V78.8545H860.063V81.0811ZM874.551 98L874.492 96.0225C873.691 96.8135 872.876 97.3848 872.046 97.7363C871.226 98.0879 870.361 98.2637 869.453 98.2637C868.613 98.2637 867.896 98.1562 867.3 97.9414C866.704 97.7266 866.211 97.4336 865.82 97.0625C865.439 96.6816 865.156 96.2373 864.971 95.7295C864.795 95.2217 864.707 94.6699 864.707 94.0742C864.707 92.5996 865.254 91.4473 866.348 90.6172C867.451 89.7773 869.077 89.3574 871.226 89.3574H874.272V88.0684C874.272 87.1992 873.994 86.5059 873.438 85.9883C872.881 85.4609 872.031 85.1973 870.889 85.1973C870.059 85.1973 869.238 85.29 868.428 85.4756C867.627 85.6611 866.797 85.9248 865.938 86.2666V83.9668C866.26 83.8496 866.616 83.7373 867.007 83.6299C867.407 83.5127 867.827 83.4102 868.267 83.3223C868.706 83.2344 869.165 83.166 869.644 83.1172C870.122 83.0586 870.605 83.0293 871.094 83.0293C871.982 83.0293 872.783 83.127 873.496 83.3223C874.209 83.5176 874.81 83.8154 875.298 84.2158C875.796 84.6162 876.177 85.1191 876.44 85.7246C876.704 86.3301 876.836 87.043 876.836 87.8633V98H874.551ZM874.272 91.3057H871.035C870.4 91.3057 869.854 91.3691 869.395 91.4961C868.936 91.623 868.56 91.8037 868.267 92.0381C867.974 92.2725 867.754 92.5557 867.607 92.8877C867.471 93.21 867.402 93.5762 867.402 93.9863C867.402 94.2695 867.446 94.543 867.534 94.8066C867.622 95.0605 867.764 95.29 867.959 95.4951C868.154 95.6904 868.408 95.8467 868.721 95.9639C869.033 96.0811 869.414 96.1396 869.863 96.1396C870.449 96.1396 871.118 95.9639 871.87 95.6123C872.632 95.251 873.433 94.6846 874.272 93.9131V91.3057ZM886.606 79.3965H882.256V77.3018H889.185V95.876H893.564V98H881.772V95.876H886.606V79.3965ZM909.736 93.9863C909.736 94.5039 909.648 94.9678 909.473 95.3779C909.297 95.7881 909.058 96.1543 908.755 96.4766C908.452 96.7891 908.101 97.0576 907.7 97.2822C907.3 97.5068 906.87 97.6924 906.411 97.8389C905.962 97.9854 905.498 98.0928 905.02 98.1611C904.541 98.2295 904.072 98.2637 903.613 98.2637C902.617 98.2637 901.699 98.2197 900.859 98.1318C900.029 98.0439 899.214 97.9023 898.413 97.707V95.3633C899.272 95.6074 900.127 95.793 900.977 95.9199C901.826 96.0469 902.671 96.1104 903.511 96.1104C904.731 96.1104 905.635 95.9443 906.221 95.6123C906.807 95.2803 907.1 94.8066 907.1 94.1914C907.1 93.9277 907.051 93.6934 906.953 93.4883C906.865 93.2734 906.699 93.0732 906.455 92.8877C906.211 92.6924 905.83 92.4922 905.312 92.2871C904.805 92.082 904.106 91.8477 903.218 91.584C902.554 91.3887 901.938 91.1689 901.372 90.9248C900.815 90.6709 900.332 90.373 899.922 90.0312C899.512 89.6895 899.189 89.2891 898.955 88.8301C898.721 88.3711 898.604 87.8291 898.604 87.2041C898.604 86.7939 898.696 86.3447 898.882 85.8564C899.077 85.3682 899.404 84.9141 899.863 84.4941C900.322 84.0742 900.942 83.7275 901.724 83.4541C902.505 83.1709 903.481 83.0293 904.653 83.0293C905.229 83.0293 905.869 83.0635 906.572 83.1318C907.275 83.1904 908.008 83.2979 908.77 83.4541V85.7246C907.969 85.5293 907.207 85.3877 906.484 85.2998C905.771 85.2021 905.151 85.1533 904.624 85.1533C903.989 85.1533 903.452 85.2021 903.013 85.2998C902.583 85.3975 902.231 85.5342 901.958 85.71C901.694 85.876 901.504 86.0762 901.387 86.3105C901.27 86.5352 901.211 86.7793 901.211 87.043C901.211 87.3066 901.26 87.5459 901.357 87.7607C901.465 87.9756 901.655 88.1855 901.929 88.3906C902.212 88.5859 902.603 88.7861 903.101 88.9912C903.599 89.1865 904.248 89.4014 905.049 89.6357C905.918 89.8896 906.65 90.1582 907.246 90.4414C907.842 90.7148 908.325 91.0225 908.696 91.3643C909.067 91.7061 909.331 92.0918 909.487 92.5215C909.653 92.9512 909.736 93.4395 909.736 93.9863ZM927.007 89.8701C927.007 90.2314 927.002 90.5342 926.992 90.7783C926.982 91.0225 926.968 91.252 926.948 91.4668H916.621C916.621 92.9707 917.041 94.1279 917.881 94.9385C918.721 95.7393 919.932 96.1396 921.514 96.1396C921.943 96.1396 922.373 96.125 922.803 96.0957C923.232 96.0566 923.647 96.0078 924.048 95.9492C924.448 95.8906 924.829 95.8271 925.19 95.7588C925.562 95.6807 925.903 95.5977 926.216 95.5098V97.6045C925.522 97.7998 924.736 97.9561 923.857 98.0732C922.988 98.2002 922.085 98.2637 921.147 98.2637C919.888 98.2637 918.804 98.0928 917.896 97.751C916.987 97.4092 916.24 96.916 915.654 96.2715C915.078 95.6172 914.648 94.8213 914.365 93.8838C914.092 92.9365 913.955 91.8672 913.955 90.6758C913.955 89.6406 914.102 88.6641 914.395 87.7461C914.697 86.8184 915.132 86.0078 915.698 85.3145C916.274 84.6113 916.978 84.0547 917.808 83.6445C918.638 83.2344 919.58 83.0293 920.635 83.0293C921.66 83.0293 922.568 83.1904 923.359 83.5127C924.15 83.835 924.814 84.2939 925.352 84.8896C925.898 85.4756 926.309 86.1934 926.582 87.043C926.865 87.8828 927.007 88.8252 927.007 89.8701ZM924.355 89.5039C924.385 88.8496 924.321 88.2539 924.165 87.7168C924.009 87.1699 923.765 86.7012 923.433 86.3105C923.11 85.9199 922.705 85.6172 922.217 85.4023C921.729 85.1777 921.162 85.0654 920.518 85.0654C919.961 85.0654 919.453 85.1729 918.994 85.3877C918.535 85.6025 918.14 85.9053 917.808 86.2959C917.476 86.6865 917.207 87.1553 917.002 87.7021C916.797 88.249 916.67 88.8496 916.621 89.5039H924.355Z" fill="black"/>
<path d="M38.1416 138H35.5342V129.211H27.4922V138H24.8848V118.854H27.4922V126.955H35.5342V118.854H38.1416V138ZM54.2988 128.537H41.7012V126.384H54.2988V128.537ZM54.2988 133.635H41.7012V131.481H54.2988V133.635ZM71.4521 128.435C71.4521 129.899 71.3057 131.237 71.0127 132.448C70.7197 133.649 70.2754 134.685 69.6797 135.554C69.084 136.413 68.3418 137.082 67.4531 137.561C66.5742 138.029 65.5391 138.264 64.3477 138.264C63.3223 138.264 62.3896 138.073 61.5498 137.692C60.71 137.302 59.9922 136.706 59.3965 135.905C58.8008 135.104 58.3418 134.084 58.0195 132.844C57.6973 131.604 57.5361 130.134 57.5361 128.435C57.5361 126.97 57.6826 125.632 57.9756 124.421C58.2783 123.21 58.7227 122.175 59.3086 121.315C59.9043 120.446 60.6465 119.777 61.5352 119.309C62.4238 118.83 63.459 118.591 64.6406 118.591C65.666 118.591 66.5986 118.786 67.4385 119.177C68.2783 119.558 68.9961 120.153 69.5918 120.964C70.1875 121.765 70.6465 122.785 70.9688 124.025C71.291 125.266 71.4521 126.735 71.4521 128.435ZM68.874 128.522C68.874 128.19 68.8594 127.863 68.8301 127.541C68.8105 127.209 68.7861 126.887 68.7568 126.574L60.6562 132.595C60.8027 133.103 60.9883 133.571 61.2129 134.001C61.4375 134.431 61.7061 134.802 62.0186 135.114C62.3408 135.417 62.7021 135.656 63.1025 135.832C63.5127 135.998 63.9766 136.081 64.4941 136.081C65.1582 136.081 65.7588 135.92 66.2959 135.598C66.8428 135.275 67.3066 134.797 67.6875 134.162C68.0684 133.527 68.3613 132.741 68.5664 131.804C68.7715 130.856 68.874 129.763 68.874 128.522ZM60.1143 128.347C60.1143 128.649 60.1143 128.952 60.1143 129.255C60.124 129.558 60.1436 129.851 60.1729 130.134L68.2734 124.143C68.127 123.645 67.9414 123.19 67.7168 122.78C67.4922 122.37 67.2236 122.019 66.9111 121.726C66.5986 121.423 66.2422 121.188 65.8418 121.022C65.4414 120.856 64.9922 120.773 64.4941 120.773C63.8301 120.773 63.2246 120.935 62.6777 121.257C62.1406 121.579 61.6816 122.062 61.3008 122.707C60.9199 123.342 60.627 124.133 60.4219 125.08C60.2168 126.018 60.1143 127.106 60.1143 128.347Z" fill="black"/>
<path d="M143.142 138H140.534V129.211H132.492V138H129.885V118.854H132.492V126.955H140.534V118.854H143.142V138ZM159.299 128.537H146.701V126.384H159.299V128.537ZM159.299 133.635H146.701V131.481H159.299V133.635ZM175.852 138H163.825V135.627H168.747V121.652L164.162 124.143L163.225 121.975L169.318 118.767H171.574V135.627H175.852V138Z" fill="black"/>
<path d="M248.142 138H245.534V129.211H237.492V138H234.885V118.854H237.492V126.955H245.534V118.854H248.142V138ZM264.299 128.537H251.701V126.384H264.299V128.537ZM264.299 133.635H251.701V131.481H264.299V133.635ZM281.013 138H268.4V135.715L273.352 130.793C274.162 129.992 274.821 129.299 275.329 128.713C275.837 128.127 276.232 127.595 276.516 127.116C276.799 126.628 276.989 126.169 277.087 125.739C277.185 125.31 277.233 124.846 277.233 124.348C277.233 123.879 277.17 123.435 277.043 123.015C276.916 122.585 276.721 122.209 276.457 121.887C276.193 121.564 275.852 121.311 275.432 121.125C275.012 120.939 274.509 120.847 273.923 120.847C273.112 120.847 272.375 121.027 271.711 121.389C271.047 121.75 270.437 122.219 269.88 122.795L268.474 121.11C269.196 120.349 270.026 119.738 270.964 119.279C271.911 118.82 273.01 118.591 274.26 118.591C275.109 118.591 275.881 118.718 276.574 118.972C277.277 119.226 277.883 119.592 278.391 120.07C278.898 120.549 279.289 121.135 279.562 121.828C279.846 122.521 279.987 123.303 279.987 124.172C279.987 124.904 279.89 125.583 279.694 126.208C279.499 126.833 279.201 127.458 278.801 128.083C278.41 128.698 277.912 129.338 277.307 130.002C276.711 130.666 276.003 131.394 275.183 132.185L271.711 135.568H281.013V138Z" fill="black"/>
<path d="M353.142 138H350.534V129.211H342.492V138H339.885V118.854H342.492V126.955H350.534V118.854H353.142V138ZM369.299 128.537H356.701V126.384H369.299V128.537ZM369.299 133.635H356.701V131.481H369.299V133.635ZM385.646 132.185C385.646 133.024 385.476 133.815 385.134 134.558C384.792 135.29 384.279 135.935 383.596 136.491C382.912 137.038 382.053 137.473 381.018 137.795C379.982 138.107 378.776 138.264 377.399 138.264C376.638 138.264 375.954 138.239 375.349 138.19C374.743 138.142 374.177 138.078 373.649 138V135.715C374.255 135.822 374.895 135.905 375.568 135.964C376.242 136.022 376.931 136.052 377.634 136.052C378.591 136.052 379.406 135.969 380.08 135.803C380.764 135.627 381.32 135.378 381.75 135.056C382.18 134.733 382.492 134.343 382.688 133.884C382.883 133.425 382.98 132.907 382.98 132.331C382.98 131.804 382.863 131.345 382.629 130.954C382.395 130.563 382.062 130.236 381.633 129.973C381.213 129.709 380.705 129.514 380.109 129.387C379.523 129.25 378.879 129.182 378.176 129.182H375.993V127.087H378.205C378.781 127.087 379.304 127.014 379.772 126.867C380.251 126.711 380.656 126.491 380.988 126.208C381.33 125.925 381.589 125.578 381.765 125.168C381.95 124.748 382.043 124.274 382.043 123.747C382.043 122.722 381.73 121.975 381.105 121.506C380.48 121.037 379.562 120.803 378.352 120.803C377.707 120.803 377.043 120.866 376.359 120.993C375.676 121.12 374.943 121.311 374.162 121.564V119.338C374.494 119.221 374.846 119.118 375.217 119.03C375.598 118.933 375.974 118.854 376.345 118.796C376.726 118.728 377.102 118.679 377.473 118.649C377.844 118.61 378.2 118.591 378.542 118.591C379.558 118.591 380.451 118.703 381.223 118.928C381.994 119.143 382.639 119.455 383.156 119.865C383.674 120.275 384.064 120.773 384.328 121.359C384.592 121.945 384.724 122.604 384.724 123.337C384.724 124.431 384.44 125.349 383.874 126.091C383.317 126.833 382.551 127.424 381.574 127.863C382.072 127.941 382.561 128.098 383.039 128.332C383.527 128.566 383.962 128.869 384.343 129.24C384.733 129.602 385.046 130.031 385.28 130.529C385.524 131.027 385.646 131.579 385.646 132.185Z" fill="black"/>
<path d="M458.142 138H455.534V129.211H447.492V138H444.885V118.854H447.492V126.955H455.534V118.854H458.142V138ZM474.299 128.537H461.701V126.384H474.299V128.537ZM474.299 133.635H461.701V131.481H474.299V133.635ZM491.965 133.767H488.698V138H486.091V133.767H476.877V131.525L485.036 118.854H488.698V131.525H491.965V133.767ZM486.091 121.315L479.426 131.525H486.091V121.315Z" fill="black"/>
<path d="M563.142 138H560.534V129.211H552.492V138H549.885V118.854H552.492V126.955H560.534V118.854H563.142V138ZM579.299 128.537H566.701V126.384H579.299V128.537ZM579.299 133.635H566.701V131.481H579.299V133.635ZM595.529 131.877C595.529 132.824 595.324 133.688 594.914 134.47C594.504 135.251 593.938 135.925 593.215 136.491C592.502 137.048 591.657 137.482 590.681 137.795C589.704 138.107 588.649 138.264 587.517 138.264C587.233 138.264 586.926 138.254 586.594 138.234C586.271 138.225 585.949 138.205 585.627 138.176C585.305 138.156 584.987 138.132 584.675 138.103C584.372 138.073 584.099 138.039 583.854 138V135.686C584.382 135.812 584.982 135.905 585.656 135.964C586.34 136.022 587.028 136.052 587.722 136.052C588.503 136.052 589.206 135.959 589.831 135.773C590.456 135.588 590.988 135.324 591.428 134.982C591.867 134.631 592.204 134.211 592.438 133.723C592.673 133.225 592.79 132.668 592.79 132.053C592.79 130.861 592.36 129.997 591.501 129.46C590.651 128.913 589.426 128.64 587.824 128.64H584.191V118.854H594.504V121.081H586.594V126.457H588.264C589.182 126.457 590.075 126.54 590.944 126.706C591.813 126.872 592.585 127.165 593.259 127.585C593.942 127.995 594.489 128.552 594.899 129.255C595.319 129.948 595.529 130.822 595.529 131.877Z" fill="black"/>
<path d="M668.142 138H665.534V129.211H657.492V138H654.885V118.854H657.492V126.955H665.534V118.854H668.142V138ZM684.299 128.537H671.701V126.384H684.299V128.537ZM684.299 133.635H671.701V131.481H684.299V133.635ZM701.247 131.936C701.247 132.814 701.086 133.64 700.764 134.411C700.451 135.183 700.002 135.856 699.416 136.433C698.83 136.999 698.122 137.448 697.292 137.78C696.472 138.103 695.559 138.264 694.553 138.264C693.498 138.264 692.565 138.098 691.755 137.766C690.944 137.424 690.266 136.906 689.719 136.213C689.172 135.51 688.757 134.626 688.474 133.562C688.19 132.497 688.049 131.237 688.049 129.782C688.049 128.806 688.112 127.858 688.239 126.94C688.366 126.022 688.576 125.158 688.869 124.348C689.162 123.537 689.553 122.795 690.041 122.121C690.529 121.447 691.135 120.871 691.857 120.393C692.59 119.904 693.449 119.528 694.436 119.265C695.422 118.991 696.564 118.854 697.863 118.854H699.753V121.081H697.702C696.56 121.081 695.568 121.218 694.729 121.491C693.889 121.765 693.186 122.15 692.619 122.648C692.053 123.146 691.618 123.747 691.315 124.45C691.013 125.153 690.822 125.939 690.744 126.809L690.686 127.409C691.301 127.048 692.009 126.76 692.81 126.545C693.62 126.32 694.494 126.208 695.432 126.208C696.398 126.208 697.243 126.35 697.966 126.633C698.698 126.916 699.304 127.312 699.782 127.819C700.271 128.317 700.637 128.918 700.881 129.621C701.125 130.324 701.247 131.096 701.247 131.936ZM698.581 132.097C698.581 131.511 698.508 130.983 698.361 130.515C698.225 130.036 698.005 129.636 697.702 129.313C697.399 128.981 697.014 128.728 696.545 128.552C696.086 128.366 695.534 128.273 694.89 128.273C694.519 128.273 694.143 128.308 693.762 128.376C693.381 128.444 693.005 128.542 692.634 128.669C692.272 128.786 691.926 128.923 691.594 129.079C691.262 129.235 690.959 129.401 690.686 129.577C690.686 130.837 690.773 131.892 690.949 132.741C691.125 133.581 691.384 134.255 691.726 134.763C692.077 135.271 692.507 135.632 693.015 135.847C693.522 136.062 694.108 136.169 694.772 136.169C695.329 136.169 695.837 136.081 696.296 135.905C696.765 135.72 697.165 135.451 697.497 135.1C697.839 134.748 698.103 134.323 698.288 133.825C698.483 133.317 698.581 132.741 698.581 132.097Z" fill="black"/>
<path d="M773.142 138H770.534V129.211H762.492V138H759.885V118.854H762.492V126.955H770.534V118.854H773.142V138ZM789.299 128.537H776.701V126.384H789.299V128.537ZM789.299 133.635H776.701V131.481H789.299V133.635ZM805.91 121.228L797.883 138H794.968L803.303 121.228H792.961V118.854H805.91V121.228Z" fill="black"/>
<path d="M878.142 138H875.534V129.211H867.492V138H864.885V118.854H867.492V126.955H875.534V118.854H878.142V138ZM894.299 128.537H881.701V126.384H894.299V128.537ZM894.299 133.635H881.701V131.481H894.299V133.635ZM911.013 133.195C911.013 134.006 910.847 134.729 910.515 135.363C910.183 135.988 909.719 136.516 909.123 136.945C908.527 137.375 907.824 137.702 907.014 137.927C906.203 138.151 905.324 138.264 904.377 138.264C903.332 138.264 902.409 138.146 901.608 137.912C900.817 137.678 900.153 137.351 899.616 136.931C899.079 136.511 898.674 136.013 898.4 135.437C898.127 134.86 897.99 134.226 897.99 133.532C897.99 132.36 898.317 131.35 898.972 130.5C899.626 129.65 900.637 128.879 902.004 128.186C900.754 127.551 899.841 126.848 899.265 126.076C898.688 125.295 898.4 124.401 898.4 123.396C898.4 122.78 898.527 122.185 898.781 121.608C899.035 121.032 899.416 120.52 899.924 120.07C900.441 119.621 901.086 119.265 901.857 119.001C902.629 118.728 903.537 118.591 904.582 118.591C905.568 118.591 906.433 118.698 907.175 118.913C907.927 119.118 908.557 119.416 909.064 119.807C909.572 120.197 909.953 120.671 910.207 121.228C910.461 121.784 910.588 122.404 910.588 123.088C910.588 124.201 910.275 125.148 909.65 125.93C909.035 126.711 908.156 127.395 907.014 127.98C907.58 128.264 908.107 128.576 908.596 128.918C909.084 129.26 909.509 129.641 909.87 130.061C910.231 130.48 910.51 130.949 910.705 131.467C910.91 131.984 911.013 132.561 911.013 133.195ZM907.98 123.293C907.98 122.424 907.673 121.779 907.058 121.359C906.452 120.93 905.598 120.715 904.494 120.715C903.4 120.715 902.546 120.925 901.931 121.345C901.325 121.765 901.022 122.395 901.022 123.234C901.022 123.615 901.096 123.967 901.242 124.289C901.389 124.611 901.613 124.914 901.916 125.197C902.229 125.48 902.614 125.759 903.073 126.032C903.532 126.306 904.079 126.584 904.714 126.867C905.817 126.35 906.638 125.812 907.175 125.256C907.712 124.689 907.98 124.035 907.98 123.293ZM908.244 133.386C908.244 133.024 908.186 132.673 908.068 132.331C907.951 131.989 907.741 131.652 907.438 131.32C907.136 130.988 906.73 130.656 906.223 130.324C905.715 129.992 905.07 129.65 904.289 129.299C903.625 129.621 903.063 129.943 902.604 130.266C902.155 130.578 901.789 130.9 901.506 131.232C901.232 131.555 901.037 131.892 900.92 132.243C900.803 132.595 900.744 132.966 900.744 133.356C900.744 133.796 900.837 134.187 901.022 134.528C901.218 134.86 901.481 135.144 901.813 135.378C902.146 135.612 902.541 135.788 903 135.905C903.459 136.022 903.957 136.081 904.494 136.081C905.012 136.081 905.5 136.027 905.959 135.92C906.418 135.812 906.813 135.651 907.146 135.437C907.487 135.212 907.756 134.934 907.951 134.602C908.146 134.26 908.244 133.854 908.244 133.386Z" fill="black"/>
<path d="M30.9102 9.59766H28.0098V8.20117H32.6289V20.584H35.5488V22H27.6875V20.584H30.9102V9.59766ZM46.8477 16.5801C46.8477 16.821 46.8444 17.0228 46.8379 17.1855C46.8314 17.3483 46.8216 17.5013 46.8086 17.6445H39.9238C39.9238 18.6471 40.2038 19.4186 40.7637 19.959C41.3236 20.4928 42.1309 20.7598 43.1855 20.7598C43.472 20.7598 43.7585 20.75 44.0449 20.7305C44.3314 20.7044 44.6081 20.6719 44.875 20.6328C45.1419 20.5938 45.3958 20.5514 45.6367 20.5059C45.8841 20.4538 46.112 20.3984 46.3203 20.3398V21.7363C45.8581 21.8665 45.334 21.9707 44.748 22.0488C44.1686 22.1335 43.5664 22.1758 42.9414 22.1758C42.1016 22.1758 41.3789 22.0618 40.7734 21.834C40.168 21.6061 39.6699 21.2773 39.2793 20.8477C38.8952 20.4115 38.6087 19.8809 38.4199 19.2559C38.2376 18.6243 38.1465 17.9115 38.1465 17.1172C38.1465 16.4271 38.2441 15.776 38.4395 15.1641C38.6413 14.5456 38.931 14.0052 39.3086 13.543C39.6927 13.0742 40.1615 12.7031 40.7148 12.4297C41.2682 12.1562 41.8965 12.0195 42.5996 12.0195C43.2832 12.0195 43.8887 12.127 44.416 12.3418C44.9434 12.5566 45.3861 12.8626 45.7441 13.2598C46.1087 13.6504 46.3822 14.1289 46.5645 14.6953C46.7533 15.2552 46.8477 15.8835 46.8477 16.5801ZM45.0801 16.3359C45.0996 15.8997 45.0573 15.5026 44.9531 15.1445C44.849 14.7799 44.6862 14.4674 44.4648 14.207C44.25 13.9466 43.9798 13.7448 43.6543 13.6016C43.3288 13.4518 42.9512 13.377 42.5215 13.377C42.1504 13.377 41.8118 13.4486 41.5059 13.5918C41.1999 13.735 40.9362 13.9368 40.7148 14.1973C40.4935 14.4577 40.3145 14.7702 40.1777 15.1348C40.041 15.4993 39.9564 15.8997 39.9238 16.3359H45.0801ZM58.2637 9.7832C57.3717 9.5944 56.6035 9.5 55.959 9.5C54.429 9.5 53.6641 10.3008 53.6641 11.9023V13.6211H57.9609V15.0371H53.6641V22H51.9355V15.0371H48.7812V13.6211H51.9355V12C51.9355 9.38932 53.2962 8.08398 56.0176 8.08398C56.6947 8.08398 57.4434 8.16211 58.2637 8.31836V9.7832ZM68.459 21.8633C68.0749 21.9609 67.6777 22.0293 67.2676 22.0684C66.8574 22.1139 66.4408 22.1367 66.0176 22.1367C64.7871 22.1367 63.8691 21.86 63.2637 21.3066C62.6582 20.7467 62.3555 19.8906 62.3555 18.7383V13.6211H59.6113V12.1953H62.3555V9.5L64.0547 9.06055V12.1953H68.459V13.6211H64.0547V18.6016C64.0547 19.3047 64.2402 19.832 64.6113 20.1836C64.9889 20.5286 65.5423 20.7012 66.2715 20.7012C66.584 20.7012 66.9258 20.6784 67.2969 20.6328C67.668 20.5807 68.0553 20.5026 68.459 20.3984V21.8633Z" fill="#666666"/>
<path d="M861.973 12.1953H863.525L863.574 14.002C864.154 13.3053 864.723 12.8008 865.283 12.4883C865.85 12.1758 866.419 12.0195 866.992 12.0195C868.008 12.0195 868.776 12.3483 869.297 13.0059C869.824 13.6634 870.068 14.64 870.029 15.9355H868.311C868.33 15.0762 868.203 14.4544 867.93 14.0703C867.663 13.6797 867.269 13.4844 866.748 13.4844C866.52 13.4844 866.289 13.5267 866.055 13.6113C865.827 13.6895 865.589 13.8197 865.342 14.002C865.101 14.1777 864.844 14.4056 864.57 14.6855C864.297 14.9655 864.004 15.304 863.691 15.7012V22H861.973V12.1953ZM875.908 13.6016H873.008V12.1953H877.627V20.584H880.547V22H872.686V20.584H875.908V13.6016ZM876.504 8.08398C876.693 8.08398 876.868 8.11979 877.031 8.19141C877.194 8.25651 877.334 8.35091 877.451 8.47461C877.575 8.59831 877.669 8.74154 877.734 8.9043C877.806 9.06055 877.842 9.23307 877.842 9.42188C877.842 9.60417 877.806 9.77669 877.734 9.93945C877.669 10.1022 877.575 10.2454 877.451 10.3691C877.334 10.4928 877.194 10.5905 877.031 10.6621C876.868 10.7272 876.693 10.7598 876.504 10.7598C876.315 10.7598 876.139 10.7272 875.977 10.6621C875.814 10.5905 875.671 10.4928 875.547 10.3691C875.43 10.2454 875.335 10.1022 875.264 9.93945C875.199 9.77669 875.166 9.60417 875.166 9.42188C875.166 9.23307 875.199 9.06055 875.264 8.9043C875.335 8.74154 875.43 8.59831 875.547 8.47461C875.671 8.35091 875.814 8.25651 875.977 8.19141C876.139 8.11979 876.315 8.08398 876.504 8.08398ZM890.625 13.582C890.807 13.8099 890.947 14.0768 891.045 14.3828C891.149 14.6823 891.201 15.0078 891.201 15.3594C891.201 15.8672 891.107 16.3327 890.918 16.7559C890.736 17.1725 890.475 17.5306 890.137 17.8301C889.798 18.1296 889.391 18.3639 888.916 18.5332C888.447 18.696 887.93 18.7773 887.363 18.7773C886.953 18.7773 886.569 18.735 886.211 18.6504C885.853 18.5592 885.57 18.4486 885.361 18.3184C885.238 18.5007 885.133 18.6732 885.049 18.8359C884.964 18.9987 884.922 19.181 884.922 19.3828C884.922 19.6302 885.039 19.8353 885.273 19.998C885.514 20.1608 885.83 20.2487 886.221 20.2617L888.799 20.3594C889.287 20.3724 889.736 20.4342 890.146 20.5449C890.563 20.6556 890.918 20.8151 891.211 21.0234C891.51 21.2318 891.742 21.4889 891.904 21.7949C892.074 22.1009 892.158 22.4557 892.158 22.8594C892.158 23.2956 892.064 23.709 891.875 24.0996C891.686 24.4902 891.393 24.832 890.996 25.125C890.605 25.4245 890.107 25.6621 889.502 25.8379C888.896 26.0137 888.177 26.1016 887.344 26.1016C886.549 26.1016 885.872 26.0365 885.312 25.9062C884.759 25.7826 884.303 25.6068 883.945 25.3789C883.587 25.1576 883.327 24.8906 883.164 24.5781C883.001 24.2721 882.92 23.9336 882.92 23.5625C882.92 23.0872 883.031 22.6706 883.252 22.3125C883.473 21.9544 883.815 21.6094 884.277 21.2773C884.108 21.1992 883.962 21.1016 883.838 20.9844C883.714 20.8672 883.613 20.7402 883.535 20.6035C883.457 20.4603 883.398 20.3105 883.359 20.1543C883.32 19.998 883.301 19.8451 883.301 19.6953C883.301 19.2721 883.398 18.8848 883.594 18.5332C883.796 18.1816 884.033 17.8496 884.307 17.5371C884.183 17.3874 884.072 17.2409 883.975 17.0977C883.883 16.9544 883.802 16.8014 883.73 16.6387C883.665 16.4694 883.613 16.2904 883.574 16.1016C883.542 15.9062 883.525 15.6849 883.525 15.4375C883.525 14.9297 883.617 14.4674 883.799 14.0508C883.988 13.6276 884.248 13.2663 884.58 12.9668C884.919 12.6673 885.322 12.4362 885.791 12.2734C886.266 12.1042 886.79 12.0195 887.363 12.0195C887.604 12.0195 887.835 12.0358 888.057 12.0684C888.278 12.1009 888.473 12.1432 888.643 12.1953H892.197V13.582H890.625ZM884.727 23.416C884.727 23.8783 884.967 24.2135 885.449 24.4219C885.931 24.6367 886.602 24.7441 887.461 24.7441C888.001 24.7441 888.454 24.6953 888.818 24.5977C889.189 24.5 889.486 24.3698 889.707 24.207C889.935 24.0508 890.098 23.8685 890.195 23.6602C890.293 23.4583 890.342 23.25 890.342 23.0352C890.342 22.638 890.179 22.3451 889.854 22.1562C889.528 21.9674 889.03 21.8568 888.359 21.8242L885.801 21.7363C885.586 21.8796 885.407 22.0195 885.264 22.1562C885.127 22.293 885.02 22.4297 884.941 22.5664C884.863 22.7096 884.808 22.8496 884.775 22.9863C884.743 23.1296 884.727 23.2728 884.727 23.416ZM885.244 15.3984C885.244 15.7109 885.296 15.9974 885.4 16.2578C885.505 16.5182 885.651 16.7396 885.84 16.9219C886.029 17.1042 886.25 17.2474 886.504 17.3516C886.764 17.4492 887.051 17.498 887.363 17.498C887.702 17.498 888.001 17.4427 888.262 17.332C888.529 17.2148 888.75 17.0586 888.926 16.8633C889.108 16.668 889.245 16.4434 889.336 16.1895C889.434 15.9355 889.482 15.6719 889.482 15.3984C889.482 15.0859 889.43 14.7995 889.326 14.5391C889.222 14.2786 889.076 14.0573 888.887 13.875C888.698 13.6927 888.473 13.5527 888.213 13.4551C887.959 13.3509 887.676 13.2988 887.363 13.2988C887.025 13.2988 886.722 13.3574 886.455 13.4746C886.195 13.5918 885.973 13.748 885.791 13.9434C885.615 14.1322 885.479 14.3535 885.381 14.6074C885.29 14.8613 885.244 15.125 885.244 15.3984ZM902.441 22H900.742V15.7402C900.742 14.985 900.599 14.4219 900.312 14.0508C900.033 13.6732 899.629 13.4844 899.102 13.4844C898.874 13.4844 898.659 13.5169 898.457 13.582C898.262 13.6406 898.057 13.748 897.842 13.9043C897.627 14.054 897.393 14.2591 897.139 14.5195C896.885 14.7799 896.592 15.1055 896.26 15.4961V22H894.561V8.20117H896.26V12.1953L896.201 13.7383C896.468 13.4193 896.729 13.1523 896.982 12.9375C897.243 12.7161 897.5 12.5371 897.754 12.4004C898.014 12.2637 898.278 12.166 898.545 12.1074C898.812 12.0488 899.089 12.0195 899.375 12.0195C900.352 12.0195 901.107 12.319 901.641 12.918C902.174 13.5104 902.441 14.4056 902.441 15.6035V22ZM913.457 21.8633C913.073 21.9609 912.676 22.0293 912.266 22.0684C911.855 22.1139 911.439 22.1367 911.016 22.1367C909.785 22.1367 908.867 21.86 908.262 21.3066C907.656 20.7467 907.354 19.8906 907.354 18.7383V13.6211H904.609V12.1953H907.354V9.5L909.053 9.06055V12.1953H913.457V13.6211H909.053V18.6016C909.053 19.3047 909.238 19.832 909.609 20.1836C909.987 20.5286 910.54 20.7012 911.27 20.7012C911.582 20.7012 911.924 20.6784 912.295 20.6328C912.666 20.5807 913.053 20.5026 913.457 20.3984V21.8633Z" fill="#666666"/>
<path d="M46.2929 57.7071C46.6834 58.0976 47.3166 58.0976 47.7071 57.7071L54.0711 51.3431C54.4616 50.9526 54.4616 50.3195 54.0711 49.9289C53.6805 49.5384 53.0474 49.5384 52.6569 49.9289L47 55.5858L41.3431 49.9289C40.9526 49.5384 40.3195 49.5384 39.9289 49.9289C39.5384 50.3195 39.5384 50.9526 39.9289 51.3431L46.2929 57.7071ZM46 30L46 57L48 57L48 30L46 30Z" fill="#666666"/>
<rect x="13" y="1" width="69" height="28" rx="6" stroke="#666666" stroke-width="2"/>
<path d="M886.293 57.7071C886.683 58.0976 887.317 58.0976 887.707 57.7071L894.071 51.3431C894.462 50.9526 894.462 50.3195 894.071 49.9289C893.681 49.5384 893.047 49.5384 892.657 49.9289L887 55.5858L881.343 49.9289C880.953 49.5384 880.319 49.5384 879.929 49.9289C879.538 50.3195 879.538 50.9526 879.929 51.3431L886.293 57.7071ZM886 30L886 57L888 57L888 30L886 30Z" fill="#666666"/>
<rect x="853" y="1" width="69" height="28" rx="6" stroke="#666666" stroke-width="2"/>
<rect x="443" y="1" width="50" height="28" rx="6" fill="#F2FBFF" stroke="#00B2FF" stroke-width="2"/>
<path d="M460.061 22V14.959C460.061 14.653 460.048 14.4023 460.021 14.207C460.002 14.0117 459.966 13.8587 459.914 13.748C459.868 13.6309 459.807 13.5495 459.729 13.5039C459.657 13.4583 459.566 13.4355 459.455 13.4355C459.325 13.4355 459.204 13.4746 459.094 13.5527C458.983 13.6309 458.863 13.7578 458.732 13.9336C458.609 14.1094 458.469 14.3438 458.312 14.6367C458.163 14.9232 457.984 15.278 457.775 15.7012V22H456.223V15.1445C456.223 14.7865 456.21 14.4967 456.184 14.2754C456.164 14.054 456.128 13.8815 456.076 13.7578C456.031 13.6341 455.969 13.5495 455.891 13.5039C455.812 13.4583 455.718 13.4355 455.607 13.4355C455.49 13.4355 455.38 13.4681 455.275 13.5332C455.171 13.5983 455.054 13.7155 454.924 13.8848C454.8 14.054 454.66 14.2852 454.504 14.5781C454.348 14.8711 454.162 15.2454 453.947 15.7012V22H452.385V12.1953H453.684L453.762 14.0605C453.931 13.6895 454.094 13.3737 454.25 13.1133C454.413 12.8529 454.579 12.6445 454.748 12.4883C454.917 12.3255 455.096 12.2083 455.285 12.1367C455.48 12.0586 455.695 12.0195 455.93 12.0195C456.457 12.0195 456.857 12.1921 457.131 12.5371C457.404 12.8822 457.541 13.416 457.541 14.1387C457.697 13.8001 457.85 13.5007 458 13.2402C458.15 12.9733 458.309 12.752 458.479 12.5762C458.654 12.3939 458.846 12.2572 459.055 12.166C459.263 12.0684 459.504 12.0195 459.777 12.0195C461.008 12.0195 461.623 12.9668 461.623 14.8613V22H460.061ZM467.404 13.6016H464.504V12.1953H469.123V20.584H472.043V22H464.182V20.584H467.404V13.6016ZM468 8.08398C468.189 8.08398 468.365 8.11979 468.527 8.19141C468.69 8.25651 468.83 8.35091 468.947 8.47461C469.071 8.59831 469.165 8.74154 469.23 8.9043C469.302 9.06055 469.338 9.23307 469.338 9.42188C469.338 9.60417 469.302 9.77669 469.23 9.93945C469.165 10.1022 469.071 10.2454 468.947 10.3691C468.83 10.4928 468.69 10.5905 468.527 10.6621C468.365 10.7272 468.189 10.7598 468 10.7598C467.811 10.7598 467.635 10.7272 467.473 10.6621C467.31 10.5905 467.167 10.4928 467.043 10.3691C466.926 10.2454 466.831 10.1022 466.76 9.93945C466.695 9.77669 466.662 9.60417 466.662 9.42188C466.662 9.23307 466.695 9.06055 466.76 8.9043C466.831 8.74154 466.926 8.59831 467.043 8.47461C467.167 8.35091 467.31 8.25651 467.473 8.19141C467.635 8.11979 467.811 8.08398 468 8.08398ZM474.562 17.3027C474.562 16.4694 474.676 15.7305 474.904 15.0859C475.132 14.4349 475.454 13.888 475.871 13.4453C476.294 12.9961 476.799 12.6576 477.385 12.4297C477.977 12.1953 478.635 12.0781 479.357 12.0781C479.67 12.0781 479.976 12.0977 480.275 12.1367C480.581 12.1758 480.881 12.2376 481.174 12.3223V8.20117H482.883V22H481.359L481.301 20.1445C480.826 20.8346 480.311 21.3457 479.758 21.6777C479.204 22.0098 478.605 22.1758 477.961 22.1758C477.401 22.1758 476.906 22.0586 476.477 21.8242C476.053 21.5898 475.699 21.2611 475.412 20.8379C475.132 20.4082 474.921 19.8939 474.777 19.2949C474.634 18.696 474.562 18.0319 474.562 17.3027ZM476.301 17.1953C476.301 18.3802 476.473 19.2656 476.818 19.8516C477.17 20.431 477.665 20.7207 478.303 20.7207C478.732 20.7207 479.185 20.5286 479.66 20.1445C480.142 19.7604 480.646 19.1908 481.174 18.4355V13.8848C480.894 13.7546 480.585 13.6569 480.246 13.5918C479.908 13.5202 479.572 13.4844 479.24 13.4844C478.316 13.4844 477.593 13.7839 477.072 14.3828C476.558 14.9818 476.301 15.9193 476.301 17.1953Z" fill="#00B2FF"/>
<path d="M466.293 57.7071C466.683 58.0976 467.317 58.0976 467.707 57.7071L474.071 51.3431C474.462 50.9526 474.462 50.3195 474.071 49.9289C473.681 49.5384 473.047 49.5384 472.657 49.9289L467 55.5858L461.343 49.9289C460.953 49.5384 460.319 49.5384 459.929 49.9289C459.538 50.3195 459.538 50.9526 459.929 51.3431L466.293 57.7071ZM466 30L466 57L468 57L468 30L466 30Z" fill="#00B2FF"/>
<rect x="1" y="165" width="421" height="92" rx="9" fill="#EDEDED" stroke="#ADADAD" stroke-width="2" stroke-dasharray="8 8"/>
<path d="M28.9336 196.53C28.3581 196.75 27.7656 196.911 27.1562 197.013C26.5553 197.123 25.9333 197.178 25.29 197.178C23.2757 197.178 21.7227 196.632 20.6309 195.54C19.5475 194.448 19.0059 192.853 19.0059 190.754C19.0059 189.747 19.1624 188.833 19.4756 188.012C19.7887 187.191 20.2288 186.488 20.7959 185.904C21.363 185.32 22.04 184.872 22.8271 184.559C23.6143 184.237 24.4818 184.076 25.4297 184.076C26.0898 184.076 26.7077 184.123 27.2832 184.216C27.8587 184.309 28.4089 184.461 28.9336 184.673V186.78C28.3835 186.493 27.8206 186.285 27.2451 186.158C26.6781 186.023 26.0898 185.955 25.4805 185.955C24.9134 185.955 24.376 186.065 23.8682 186.285C23.3688 186.497 22.9287 186.806 22.5479 187.212C22.167 187.618 21.8665 188.113 21.6465 188.697C21.4264 189.281 21.3164 189.941 21.3164 190.678C21.3164 192.218 21.6888 193.373 22.4336 194.144C23.1868 194.905 24.2279 195.286 25.5566 195.286C26.1576 195.286 26.7373 195.218 27.2959 195.083C27.863 194.948 28.4089 194.744 28.9336 194.474V196.53ZM43.5713 197H41.5908L41.5146 194.943C41.1338 195.383 40.7699 195.752 40.4229 196.048C40.0843 196.336 39.7458 196.568 39.4072 196.746C39.0687 196.924 38.7259 197.047 38.3789 197.114C38.0404 197.19 37.6807 197.229 37.2998 197.229C35.988 197.229 34.9977 196.843 34.3291 196.073C33.6605 195.303 33.3262 194.139 33.3262 192.582V184.254H35.5352V192.404C35.5352 194.359 36.2715 195.337 37.7441 195.337C38.015 195.337 38.2773 195.299 38.5312 195.223C38.7936 195.138 39.0645 194.998 39.3438 194.804C39.6315 194.601 39.9362 194.33 40.2578 193.991C40.5879 193.653 40.9561 193.225 41.3623 192.709V184.254H43.5713V197ZM57.8916 196.822C57.3923 196.949 56.876 197.038 56.3428 197.089C55.8096 197.148 55.2679 197.178 54.7178 197.178C53.1182 197.178 51.9248 196.818 51.1377 196.099C50.3506 195.371 49.957 194.258 49.957 192.76V186.107H46.3896V184.254H49.957V180.75L52.166 180.179V184.254H57.8916V186.107H52.166V192.582C52.166 193.496 52.4072 194.182 52.8896 194.639C53.3805 195.087 54.0999 195.312 55.0479 195.312C55.4541 195.312 55.8984 195.282 56.3809 195.223C56.8633 195.155 57.3669 195.053 57.8916 194.918V196.822ZM72.0088 193.521C72.0088 193.97 71.9326 194.372 71.7803 194.728C71.6279 195.083 71.4206 195.4 71.1582 195.68C70.8958 195.951 70.5911 196.183 70.2441 196.378C69.8971 196.573 69.5247 196.733 69.127 196.86C68.7376 196.987 68.3356 197.08 67.9209 197.14C67.5062 197.199 67.0999 197.229 66.7021 197.229C65.8389 197.229 65.0433 197.19 64.3154 197.114C63.596 197.038 62.8893 196.915 62.1953 196.746V194.715C62.9401 194.926 63.6807 195.087 64.417 195.197C65.1533 195.307 65.8854 195.362 66.6133 195.362C67.6712 195.362 68.4541 195.218 68.9619 194.931C69.4697 194.643 69.7236 194.232 69.7236 193.699C69.7236 193.471 69.6813 193.268 69.5967 193.09C69.5205 192.904 69.3766 192.73 69.165 192.569C68.9535 192.4 68.6234 192.227 68.1748 192.049C67.7347 191.871 67.1296 191.668 66.3594 191.439C65.7839 191.27 65.2507 191.08 64.7598 190.868C64.2773 190.648 63.8584 190.39 63.5029 190.094C63.1475 189.798 62.8682 189.451 62.665 189.053C62.4619 188.655 62.3604 188.185 62.3604 187.644C62.3604 187.288 62.4408 186.899 62.6016 186.476C62.7708 186.052 63.0544 185.659 63.4521 185.295C63.8499 184.931 64.3874 184.631 65.0645 184.394C65.7415 184.148 66.5879 184.025 67.6035 184.025C68.1029 184.025 68.6572 184.055 69.2666 184.114C69.876 184.165 70.5107 184.258 71.1709 184.394V186.361C70.4769 186.192 69.8167 186.069 69.1904 185.993C68.5726 185.909 68.0352 185.866 67.5781 185.866C67.028 185.866 66.5625 185.909 66.1816 185.993C65.8092 186.078 65.5046 186.196 65.2676 186.349C65.0391 186.493 64.874 186.666 64.7725 186.869C64.6709 187.064 64.6201 187.275 64.6201 187.504C64.6201 187.732 64.6624 187.94 64.7471 188.126C64.8402 188.312 65.0052 188.494 65.2422 188.672C65.4876 188.841 65.8262 189.015 66.2578 189.192C66.6895 189.362 67.2523 189.548 67.9463 189.751C68.6995 189.971 69.3343 190.204 69.8506 190.449C70.3669 190.686 70.7858 190.953 71.1074 191.249C71.429 191.545 71.6576 191.88 71.793 192.252C71.9368 192.624 72.0088 193.048 72.0088 193.521ZM88.4746 202.205H74.1797V200.377H88.4746V202.205ZM101.271 189.954C101.271 190.267 101.267 190.53 101.259 190.741C101.25 190.953 101.238 191.152 101.221 191.338H92.2705C92.2705 192.641 92.6344 193.644 93.3623 194.347C94.0902 195.041 95.1396 195.388 96.5107 195.388C96.8831 195.388 97.2555 195.375 97.6279 195.35C98.0003 195.316 98.36 195.273 98.707 195.223C99.054 195.172 99.3841 195.117 99.6973 195.058C100.019 194.99 100.315 194.918 100.586 194.842V196.657C99.985 196.826 99.3037 196.962 98.542 197.063C97.7887 197.174 97.0059 197.229 96.1934 197.229C95.1016 197.229 94.1621 197.08 93.375 196.784C92.5879 196.488 91.9404 196.061 91.4326 195.502C90.9333 194.935 90.5609 194.245 90.3154 193.433C90.0785 192.612 89.96 191.685 89.96 190.652C89.96 189.755 90.0869 188.909 90.3408 188.113C90.6032 187.309 90.9798 186.607 91.4707 186.006C91.9701 185.396 92.5794 184.914 93.2988 184.559C94.0182 184.203 94.835 184.025 95.749 184.025C96.6377 184.025 97.4248 184.165 98.1104 184.444C98.7959 184.724 99.3714 185.121 99.8369 185.638C100.311 186.146 100.666 186.768 100.903 187.504C101.149 188.232 101.271 189.049 101.271 189.954ZM98.9736 189.637C98.999 189.07 98.944 188.553 98.8086 188.088C98.6732 187.614 98.4616 187.208 98.1738 186.869C97.8945 186.531 97.5433 186.268 97.1201 186.082C96.6969 185.887 96.2061 185.79 95.6475 185.79C95.165 185.79 94.7249 185.883 94.3271 186.069C93.9294 186.256 93.5866 186.518 93.2988 186.856C93.0111 187.195 92.7783 187.601 92.6006 188.075C92.4229 188.549 92.3128 189.07 92.2705 189.637H98.9736ZM104.801 184.254H106.769L106.857 186.311C107.23 185.87 107.59 185.507 107.937 185.219C108.284 184.923 108.622 184.686 108.952 184.508C109.291 184.33 109.633 184.207 109.98 184.14C110.327 184.063 110.687 184.025 111.06 184.025C112.371 184.025 113.362 184.415 114.03 185.193C114.707 185.964 115.046 187.127 115.046 188.685V197H112.837V188.862C112.837 187.864 112.651 187.127 112.278 186.653C111.906 186.171 111.352 185.93 110.615 185.93C110.344 185.93 110.078 185.972 109.815 186.057C109.562 186.133 109.295 186.272 109.016 186.476C108.736 186.67 108.432 186.937 108.102 187.275C107.78 187.614 107.416 188.037 107.01 188.545V197H104.801V184.254ZM130.191 190.525C130.191 191.516 130.052 192.425 129.772 193.255C129.493 194.076 129.091 194.783 128.566 195.375C128.042 195.959 127.403 196.416 126.649 196.746C125.896 197.068 125.041 197.229 124.085 197.229C123.171 197.229 122.35 197.089 121.622 196.81C120.903 196.522 120.289 196.103 119.781 195.553C119.282 195.003 118.897 194.321 118.626 193.509C118.364 192.696 118.232 191.761 118.232 190.703C118.232 189.713 118.372 188.812 118.651 187.999C118.931 187.178 119.333 186.476 119.857 185.892C120.382 185.299 121.021 184.842 121.774 184.521C122.528 184.19 123.382 184.025 124.339 184.025C125.253 184.025 126.07 184.169 126.789 184.457C127.517 184.736 128.131 185.151 128.63 185.701C129.138 186.243 129.523 186.92 129.785 187.732C130.056 188.545 130.191 189.476 130.191 190.525ZM127.932 190.627C127.932 189.84 127.843 189.154 127.665 188.57C127.496 187.978 127.25 187.487 126.929 187.098C126.607 186.7 126.214 186.404 125.748 186.209C125.291 186.006 124.779 185.904 124.212 185.904C123.552 185.904 122.985 186.035 122.511 186.298C122.045 186.552 121.66 186.895 121.355 187.326C121.059 187.758 120.839 188.261 120.695 188.837C120.56 189.404 120.492 190.001 120.492 190.627C120.492 191.414 120.577 192.104 120.746 192.696C120.924 193.289 121.174 193.784 121.495 194.182C121.817 194.571 122.206 194.867 122.663 195.07C123.12 195.265 123.636 195.362 124.212 195.362C124.872 195.362 125.435 195.235 125.9 194.981C126.374 194.719 126.759 194.372 127.056 193.94C127.36 193.509 127.58 193.009 127.716 192.442C127.86 191.867 127.932 191.262 127.932 190.627ZM143.636 197H141.655L141.579 194.943C141.198 195.383 140.834 195.752 140.487 196.048C140.149 196.336 139.81 196.568 139.472 196.746C139.133 196.924 138.79 197.047 138.443 197.114C138.105 197.19 137.745 197.229 137.364 197.229C136.052 197.229 135.062 196.843 134.394 196.073C133.725 195.303 133.391 194.139 133.391 192.582V184.254H135.6V192.404C135.6 194.359 136.336 195.337 137.809 195.337C138.079 195.337 138.342 195.299 138.596 195.223C138.858 195.138 139.129 194.998 139.408 194.804C139.696 194.601 140.001 194.33 140.322 193.991C140.652 193.653 141.021 193.225 141.427 192.709V184.254H143.636V197ZM156.864 186.057C157.101 186.353 157.283 186.7 157.41 187.098C157.546 187.487 157.613 187.91 157.613 188.367C157.613 189.027 157.491 189.632 157.245 190.183C157.008 190.724 156.67 191.19 156.229 191.579C155.789 191.968 155.26 192.273 154.643 192.493C154.033 192.705 153.36 192.811 152.624 192.811C152.091 192.811 151.591 192.756 151.126 192.646C150.66 192.527 150.292 192.383 150.021 192.214C149.861 192.451 149.725 192.675 149.615 192.887C149.505 193.098 149.45 193.335 149.45 193.598C149.45 193.919 149.603 194.186 149.907 194.397C150.22 194.609 150.631 194.723 151.139 194.74L154.49 194.867C155.125 194.884 155.709 194.965 156.242 195.108C156.784 195.252 157.245 195.46 157.626 195.73C158.015 196.001 158.316 196.336 158.527 196.733C158.747 197.131 158.857 197.592 158.857 198.117C158.857 198.684 158.735 199.222 158.489 199.729C158.244 200.237 157.863 200.682 157.347 201.062C156.839 201.452 156.191 201.761 155.404 201.989C154.617 202.218 153.682 202.332 152.599 202.332C151.566 202.332 150.686 202.247 149.958 202.078C149.239 201.917 148.646 201.689 148.181 201.393C147.715 201.105 147.377 200.758 147.165 200.352C146.953 199.954 146.848 199.514 146.848 199.031C146.848 198.413 146.992 197.872 147.279 197.406C147.567 196.941 148.011 196.492 148.612 196.061C148.392 195.959 148.202 195.832 148.041 195.68C147.88 195.527 147.749 195.362 147.647 195.185C147.546 194.998 147.47 194.804 147.419 194.601C147.368 194.397 147.343 194.199 147.343 194.004C147.343 193.454 147.47 192.95 147.724 192.493C147.986 192.036 148.295 191.604 148.65 191.198C148.49 191.004 148.346 190.813 148.219 190.627C148.1 190.441 147.994 190.242 147.901 190.03C147.817 189.81 147.749 189.577 147.698 189.332C147.656 189.078 147.635 188.79 147.635 188.469C147.635 187.809 147.753 187.208 147.99 186.666C148.236 186.116 148.574 185.646 149.006 185.257C149.446 184.868 149.971 184.567 150.58 184.355C151.198 184.135 151.879 184.025 152.624 184.025C152.937 184.025 153.238 184.047 153.525 184.089C153.813 184.131 154.067 184.186 154.287 184.254H158.908V186.057H156.864ZM149.196 198.841C149.196 199.442 149.509 199.878 150.136 200.148C150.762 200.428 151.634 200.567 152.751 200.567C153.453 200.567 154.042 200.504 154.516 200.377C154.998 200.25 155.383 200.081 155.671 199.869C155.967 199.666 156.179 199.429 156.306 199.158C156.433 198.896 156.496 198.625 156.496 198.346C156.496 197.829 156.285 197.449 155.861 197.203C155.438 196.958 154.791 196.814 153.919 196.771L150.593 196.657C150.313 196.843 150.081 197.025 149.895 197.203C149.717 197.381 149.577 197.559 149.476 197.736C149.374 197.923 149.302 198.104 149.26 198.282C149.217 198.468 149.196 198.655 149.196 198.841ZM149.869 188.418C149.869 188.824 149.937 189.197 150.072 189.535C150.208 189.874 150.398 190.161 150.644 190.398C150.889 190.635 151.177 190.822 151.507 190.957C151.845 191.084 152.218 191.147 152.624 191.147C153.064 191.147 153.453 191.076 153.792 190.932C154.139 190.779 154.427 190.576 154.655 190.322C154.892 190.068 155.07 189.776 155.188 189.446C155.315 189.116 155.379 188.773 155.379 188.418C155.379 188.012 155.311 187.639 155.176 187.301C155.04 186.962 154.85 186.674 154.604 186.438C154.359 186.201 154.067 186.019 153.729 185.892C153.398 185.756 153.03 185.688 152.624 185.688C152.184 185.688 151.79 185.765 151.443 185.917C151.105 186.069 150.817 186.272 150.58 186.526C150.352 186.772 150.174 187.06 150.047 187.39C149.928 187.72 149.869 188.062 149.869 188.418ZM172.226 197H170.017V188.862C170.017 187.881 169.83 187.148 169.458 186.666C169.094 186.175 168.569 185.93 167.884 185.93C167.588 185.93 167.308 185.972 167.046 186.057C166.792 186.133 166.525 186.272 166.246 186.476C165.967 186.67 165.662 186.937 165.332 187.275C165.002 187.614 164.621 188.037 164.189 188.545V197H161.98V179.062H164.189V184.254L164.113 186.26C164.46 185.845 164.799 185.498 165.129 185.219C165.467 184.931 165.802 184.698 166.132 184.521C166.47 184.343 166.813 184.216 167.16 184.14C167.507 184.063 167.867 184.025 168.239 184.025C169.509 184.025 170.491 184.415 171.185 185.193C171.879 185.964 172.226 187.127 172.226 188.685V197ZM188.539 202.205H174.244V200.377H188.539V202.205ZM202.377 184.254L200.523 197H197.845L196.004 191.668L195.636 190.373L195.217 191.744L193.452 197H190.85L189.009 184.254H191.167L192.233 192.912L192.462 194.842L193.008 193.153L194.861 187.428H196.448L198.441 193.077L199.013 194.766L199.203 192.976L200.193 184.254H202.377ZM215.961 190.525C215.961 191.516 215.821 192.425 215.542 193.255C215.263 194.076 214.861 194.783 214.336 195.375C213.811 195.959 213.172 196.416 212.419 196.746C211.666 197.068 210.811 197.229 209.854 197.229C208.94 197.229 208.119 197.089 207.392 196.81C206.672 196.522 206.059 196.103 205.551 195.553C205.051 195.003 204.666 194.321 204.396 193.509C204.133 192.696 204.002 191.761 204.002 190.703C204.002 189.713 204.142 188.812 204.421 187.999C204.7 187.178 205.102 186.476 205.627 185.892C206.152 185.299 206.791 184.842 207.544 184.521C208.297 184.19 209.152 184.025 210.108 184.025C211.022 184.025 211.839 184.169 212.559 184.457C213.286 184.736 213.9 185.151 214.399 185.701C214.907 186.243 215.292 186.92 215.555 187.732C215.826 188.545 215.961 189.476 215.961 190.525ZM213.701 190.627C213.701 189.84 213.612 189.154 213.435 188.57C213.265 187.978 213.02 187.487 212.698 187.098C212.377 186.7 211.983 186.404 211.518 186.209C211.061 186.006 210.549 185.904 209.981 185.904C209.321 185.904 208.754 186.035 208.28 186.298C207.815 186.552 207.43 186.895 207.125 187.326C206.829 187.758 206.609 188.261 206.465 188.837C206.329 189.404 206.262 190.001 206.262 190.627C206.262 191.414 206.346 192.104 206.516 192.696C206.693 193.289 206.943 193.784 207.265 194.182C207.586 194.571 207.976 194.867 208.433 195.07C208.89 195.265 209.406 195.362 209.981 195.362C210.642 195.362 211.204 195.235 211.67 194.981C212.144 194.719 212.529 194.372 212.825 193.94C213.13 193.509 213.35 193.009 213.485 192.442C213.629 191.867 213.701 191.262 213.701 190.627ZM230.256 190.525C230.256 191.516 230.116 192.425 229.837 193.255C229.558 194.076 229.156 194.783 228.631 195.375C228.106 195.959 227.467 196.416 226.714 196.746C225.961 197.068 225.106 197.229 224.149 197.229C223.235 197.229 222.414 197.089 221.687 196.81C220.967 196.522 220.354 196.103 219.846 195.553C219.346 195.003 218.961 194.321 218.69 193.509C218.428 192.696 218.297 191.761 218.297 190.703C218.297 189.713 218.437 188.812 218.716 187.999C218.995 187.178 219.397 186.476 219.922 185.892C220.447 185.299 221.086 184.842 221.839 184.521C222.592 184.19 223.447 184.025 224.403 184.025C225.317 184.025 226.134 184.169 226.854 184.457C227.581 184.736 228.195 185.151 228.694 185.701C229.202 186.243 229.587 186.92 229.85 187.732C230.12 188.545 230.256 189.476 230.256 190.525ZM227.996 190.627C227.996 189.84 227.907 189.154 227.729 188.57C227.56 187.978 227.315 187.487 226.993 187.098C226.672 186.7 226.278 186.404 225.812 186.209C225.355 186.006 224.843 185.904 224.276 185.904C223.616 185.904 223.049 186.035 222.575 186.298C222.11 186.552 221.725 186.895 221.42 187.326C221.124 187.758 220.904 188.261 220.76 188.837C220.624 189.404 220.557 190.001 220.557 190.627C220.557 191.414 220.641 192.104 220.811 192.696C220.988 193.289 221.238 193.784 221.56 194.182C221.881 194.571 222.271 194.867 222.728 195.07C223.185 195.265 223.701 195.362 224.276 195.362C224.937 195.362 225.499 195.235 225.965 194.981C226.439 194.719 226.824 194.372 227.12 193.94C227.425 193.509 227.645 193.009 227.78 192.442C227.924 191.867 227.996 191.262 227.996 190.627ZM232.808 190.894C232.808 189.81 232.956 188.85 233.252 188.012C233.548 187.165 233.967 186.454 234.509 185.879C235.059 185.295 235.715 184.855 236.477 184.559C237.247 184.254 238.102 184.102 239.041 184.102C239.447 184.102 239.845 184.127 240.234 184.178C240.632 184.229 241.021 184.309 241.402 184.419V179.062H243.624V197H241.644L241.567 194.588C240.95 195.485 240.281 196.149 239.562 196.581C238.842 197.013 238.063 197.229 237.226 197.229C236.498 197.229 235.854 197.076 235.296 196.771C234.746 196.467 234.285 196.039 233.912 195.489C233.548 194.931 233.273 194.262 233.087 193.483C232.901 192.705 232.808 191.841 232.808 190.894ZM235.067 190.754C235.067 192.294 235.292 193.445 235.74 194.207C236.197 194.96 236.84 195.337 237.67 195.337C238.229 195.337 238.817 195.087 239.435 194.588C240.061 194.089 240.717 193.348 241.402 192.366V186.45C241.038 186.281 240.636 186.154 240.196 186.069C239.756 185.976 239.32 185.93 238.889 185.93C237.687 185.93 236.747 186.319 236.07 187.098C235.402 187.876 235.067 189.095 235.067 190.754ZM255.38 202.332C251.478 198.718 249.527 194.723 249.527 190.348C249.527 189.324 249.629 188.304 249.832 187.288C250.044 186.264 250.378 185.24 250.835 184.216C251.3 183.192 251.91 182.168 252.663 181.144C253.425 180.119 254.347 179.104 255.431 178.097L256.713 179.404C253.429 182.646 251.787 186.239 251.787 190.183C251.787 192.146 252.202 194.034 253.031 195.845C253.861 197.656 255.088 199.366 256.713 200.974L255.38 202.332ZM273.636 193.331H270.805V197H268.545V193.331H260.56V191.389L267.631 180.407H270.805V191.389H273.636V193.331ZM268.545 182.54L262.769 191.389H268.545V182.54ZM278.942 178.097C282.844 181.711 284.795 185.731 284.795 190.157C284.795 191.071 284.702 192.019 284.516 193.001C284.329 193.983 284.012 194.99 283.563 196.022C283.115 197.047 282.51 198.088 281.748 199.146C280.995 200.203 280.043 201.266 278.892 202.332L277.609 201.024C279.26 199.391 280.491 197.686 281.304 195.908C282.116 194.131 282.522 192.269 282.522 190.322C282.522 186.294 280.885 182.671 277.609 179.455L278.942 178.097ZM315.505 188.799H304.587V186.933H315.505V188.799ZM315.505 193.217H304.587V191.351H315.505V193.217ZM343.447 182.337H336.401V187.72H343.079V189.611H336.401V197H334.091V180.407H343.447V182.337ZM356.003 197L355.952 195.286C355.258 195.972 354.551 196.467 353.832 196.771C353.121 197.076 352.372 197.229 351.585 197.229C350.857 197.229 350.235 197.135 349.719 196.949C349.202 196.763 348.775 196.509 348.437 196.188C348.106 195.857 347.861 195.472 347.7 195.032C347.548 194.592 347.472 194.114 347.472 193.598C347.472 192.32 347.946 191.321 348.894 190.602C349.85 189.874 351.259 189.51 353.121 189.51H355.762V188.393C355.762 187.639 355.521 187.038 355.038 186.59C354.556 186.133 353.819 185.904 352.829 185.904C352.11 185.904 351.399 185.985 350.696 186.146C350.002 186.306 349.283 186.535 348.538 186.831V184.838C348.817 184.736 349.126 184.639 349.465 184.546C349.812 184.444 350.176 184.355 350.557 184.279C350.938 184.203 351.335 184.144 351.75 184.102C352.165 184.051 352.584 184.025 353.007 184.025C353.777 184.025 354.471 184.11 355.089 184.279C355.707 184.449 356.227 184.707 356.65 185.054C357.082 185.401 357.412 185.837 357.641 186.361C357.869 186.886 357.983 187.504 357.983 188.215V197H356.003ZM355.762 191.198H352.956C352.406 191.198 351.932 191.253 351.534 191.363C351.136 191.473 350.811 191.63 350.557 191.833C350.303 192.036 350.112 192.282 349.985 192.569C349.867 192.849 349.808 193.166 349.808 193.521C349.808 193.767 349.846 194.004 349.922 194.232C349.998 194.452 350.121 194.651 350.29 194.829C350.459 194.998 350.679 195.134 350.95 195.235C351.221 195.337 351.551 195.388 351.94 195.388C352.448 195.388 353.028 195.235 353.68 194.931C354.34 194.618 355.034 194.127 355.762 193.458V191.198ZM366.451 180.877H362.681V179.062H368.686V195.159H372.481V197H362.262V195.159H366.451V180.877ZM386.497 193.521C386.497 193.97 386.421 194.372 386.269 194.728C386.116 195.083 385.909 195.4 385.646 195.68C385.384 195.951 385.079 196.183 384.732 196.378C384.385 196.573 384.013 196.733 383.615 196.86C383.226 196.987 382.824 197.08 382.409 197.14C381.994 197.199 381.588 197.229 381.19 197.229C380.327 197.229 379.532 197.19 378.804 197.114C378.084 197.038 377.378 196.915 376.684 196.746V194.715C377.428 194.926 378.169 195.087 378.905 195.197C379.642 195.307 380.374 195.362 381.102 195.362C382.16 195.362 382.942 195.218 383.45 194.931C383.958 194.643 384.212 194.232 384.212 193.699C384.212 193.471 384.17 193.268 384.085 193.09C384.009 192.904 383.865 192.73 383.653 192.569C383.442 192.4 383.112 192.227 382.663 192.049C382.223 191.871 381.618 191.668 380.848 191.439C380.272 191.27 379.739 191.08 379.248 190.868C378.766 190.648 378.347 190.39 377.991 190.094C377.636 189.798 377.356 189.451 377.153 189.053C376.95 188.655 376.849 188.185 376.849 187.644C376.849 187.288 376.929 186.899 377.09 186.476C377.259 186.052 377.543 185.659 377.94 185.295C378.338 184.931 378.876 184.631 379.553 184.394C380.23 184.148 381.076 184.025 382.092 184.025C382.591 184.025 383.146 184.055 383.755 184.114C384.364 184.165 384.999 184.258 385.659 184.394V186.361C384.965 186.192 384.305 186.069 383.679 185.993C383.061 185.909 382.523 185.866 382.066 185.866C381.516 185.866 381.051 185.909 380.67 185.993C380.298 186.078 379.993 186.196 379.756 186.349C379.527 186.493 379.362 186.666 379.261 186.869C379.159 187.064 379.108 187.275 379.108 187.504C379.108 187.732 379.151 187.94 379.235 188.126C379.328 188.312 379.493 188.494 379.73 188.672C379.976 188.841 380.314 189.015 380.746 189.192C381.178 189.362 381.741 189.548 382.435 189.751C383.188 189.971 383.823 190.204 384.339 190.449C384.855 190.686 385.274 190.953 385.596 191.249C385.917 191.545 386.146 191.88 386.281 192.252C386.425 192.624 386.497 193.048 386.497 193.521ZM401.465 189.954C401.465 190.267 401.461 190.53 401.452 190.741C401.444 190.953 401.431 191.152 401.414 191.338H392.464C392.464 192.641 392.828 193.644 393.556 194.347C394.284 195.041 395.333 195.388 396.704 195.388C397.076 195.388 397.449 195.375 397.821 195.35C398.194 195.316 398.553 195.273 398.9 195.223C399.247 195.172 399.577 195.117 399.891 195.058C400.212 194.99 400.508 194.918 400.779 194.842V196.657C400.178 196.826 399.497 196.962 398.735 197.063C397.982 197.174 397.199 197.229 396.387 197.229C395.295 197.229 394.355 197.08 393.568 196.784C392.781 196.488 392.134 196.061 391.626 195.502C391.127 194.935 390.754 194.245 390.509 193.433C390.272 192.612 390.153 191.685 390.153 190.652C390.153 189.755 390.28 188.909 390.534 188.113C390.797 187.309 391.173 186.607 391.664 186.006C392.163 185.396 392.773 184.914 393.492 184.559C394.212 184.203 395.028 184.025 395.942 184.025C396.831 184.025 397.618 184.165 398.304 184.444C398.989 184.724 399.565 185.121 400.03 185.638C400.504 186.146 400.86 186.768 401.097 187.504C401.342 188.232 401.465 189.049 401.465 189.954ZM399.167 189.637C399.192 189.07 399.137 188.553 399.002 188.088C398.867 187.614 398.655 187.208 398.367 186.869C398.088 186.531 397.737 186.268 397.313 186.082C396.89 185.887 396.399 185.79 395.841 185.79C395.358 185.79 394.918 185.883 394.521 186.069C394.123 186.256 393.78 186.518 393.492 186.856C393.204 187.195 392.972 187.601 392.794 188.075C392.616 188.549 392.506 189.07 392.464 189.637H399.167Z" fill="black"/>
<path d="M75.5518 227.254H77.5703L77.6338 229.603C78.387 228.697 79.1276 228.041 79.8555 227.635C80.5918 227.229 81.3324 227.025 82.0771 227.025C83.3975 227.025 84.3962 227.453 85.0732 228.308C85.7588 229.162 86.0762 230.432 86.0254 232.116H83.791C83.8164 230.999 83.6514 230.191 83.2959 229.691C82.9489 229.184 82.4368 228.93 81.7598 228.93C81.4635 228.93 81.1631 228.985 80.8584 229.095C80.5622 229.196 80.2533 229.366 79.9316 229.603C79.6185 229.831 79.2842 230.127 78.9287 230.491C78.5732 230.855 78.1924 231.295 77.7861 231.812V240H75.5518V227.254ZM93.668 229.082H89.8975V227.254H95.9023V238.159H99.6982V240H89.4785V238.159H93.668V229.082ZM94.4424 221.909C94.6878 221.909 94.9163 221.956 95.1279 222.049C95.3395 222.133 95.5215 222.256 95.6738 222.417C95.8346 222.578 95.9574 222.764 96.042 222.976C96.1351 223.179 96.1816 223.403 96.1816 223.648C96.1816 223.885 96.1351 224.11 96.042 224.321C95.9574 224.533 95.8346 224.719 95.6738 224.88C95.5215 225.041 95.3395 225.168 95.1279 225.261C94.9163 225.345 94.6878 225.388 94.4424 225.388C94.1969 225.388 93.9684 225.345 93.7568 225.261C93.5452 225.168 93.359 225.041 93.1982 224.88C93.0459 224.719 92.9232 224.533 92.8301 224.321C92.7454 224.11 92.7031 223.885 92.7031 223.648C92.7031 223.403 92.7454 223.179 92.8301 222.976C92.9232 222.764 93.0459 222.578 93.1982 222.417C93.359 222.256 93.5452 222.133 93.7568 222.049C93.9684 221.956 94.1969 221.909 94.4424 221.909ZM112.8 229.057C113.037 229.353 113.219 229.7 113.346 230.098C113.481 230.487 113.549 230.91 113.549 231.367C113.549 232.027 113.426 232.632 113.181 233.183C112.944 233.724 112.605 234.19 112.165 234.579C111.725 234.968 111.196 235.273 110.578 235.493C109.969 235.705 109.296 235.811 108.56 235.811C108.026 235.811 107.527 235.756 107.062 235.646C106.596 235.527 106.228 235.383 105.957 235.214C105.796 235.451 105.661 235.675 105.551 235.887C105.441 236.098 105.386 236.335 105.386 236.598C105.386 236.919 105.538 237.186 105.843 237.397C106.156 237.609 106.566 237.723 107.074 237.74L110.426 237.867C111.061 237.884 111.645 237.965 112.178 238.108C112.719 238.252 113.181 238.46 113.562 238.73C113.951 239.001 114.251 239.336 114.463 239.733C114.683 240.131 114.793 240.592 114.793 241.117C114.793 241.684 114.67 242.222 114.425 242.729C114.179 243.237 113.799 243.682 113.282 244.062C112.774 244.452 112.127 244.761 111.34 244.989C110.553 245.218 109.618 245.332 108.534 245.332C107.502 245.332 106.621 245.247 105.894 245.078C105.174 244.917 104.582 244.689 104.116 244.393C103.651 244.105 103.312 243.758 103.101 243.352C102.889 242.954 102.783 242.514 102.783 242.031C102.783 241.413 102.927 240.872 103.215 240.406C103.503 239.941 103.947 239.492 104.548 239.061C104.328 238.959 104.137 238.832 103.977 238.68C103.816 238.527 103.685 238.362 103.583 238.185C103.481 237.998 103.405 237.804 103.354 237.601C103.304 237.397 103.278 237.199 103.278 237.004C103.278 236.454 103.405 235.95 103.659 235.493C103.922 235.036 104.23 234.604 104.586 234.198C104.425 234.004 104.281 233.813 104.154 233.627C104.036 233.441 103.93 233.242 103.837 233.03C103.752 232.81 103.685 232.577 103.634 232.332C103.591 232.078 103.57 231.79 103.57 231.469C103.57 230.809 103.689 230.208 103.926 229.666C104.171 229.116 104.51 228.646 104.941 228.257C105.382 227.868 105.906 227.567 106.516 227.355C107.133 227.135 107.815 227.025 108.56 227.025C108.873 227.025 109.173 227.047 109.461 227.089C109.749 227.131 110.003 227.186 110.223 227.254H114.844V229.057H112.8ZM105.132 241.841C105.132 242.442 105.445 242.878 106.071 243.148C106.698 243.428 107.569 243.567 108.687 243.567C109.389 243.567 109.977 243.504 110.451 243.377C110.934 243.25 111.319 243.081 111.606 242.869C111.903 242.666 112.114 242.429 112.241 242.158C112.368 241.896 112.432 241.625 112.432 241.346C112.432 240.829 112.22 240.449 111.797 240.203C111.374 239.958 110.726 239.814 109.854 239.771L106.528 239.657C106.249 239.843 106.016 240.025 105.83 240.203C105.652 240.381 105.513 240.559 105.411 240.736C105.31 240.923 105.238 241.104 105.195 241.282C105.153 241.468 105.132 241.655 105.132 241.841ZM105.805 231.418C105.805 231.824 105.872 232.197 106.008 232.535C106.143 232.874 106.334 233.161 106.579 233.398C106.825 233.635 107.112 233.822 107.442 233.957C107.781 234.084 108.153 234.147 108.56 234.147C109 234.147 109.389 234.076 109.728 233.932C110.075 233.779 110.362 233.576 110.591 233.322C110.828 233.068 111.006 232.776 111.124 232.446C111.251 232.116 111.314 231.773 111.314 231.418C111.314 231.012 111.247 230.639 111.111 230.301C110.976 229.962 110.785 229.674 110.54 229.438C110.295 229.201 110.003 229.019 109.664 228.892C109.334 228.756 108.966 228.688 108.56 228.688C108.119 228.688 107.726 228.765 107.379 228.917C107.04 229.069 106.753 229.272 106.516 229.526C106.287 229.772 106.109 230.06 105.982 230.39C105.864 230.72 105.805 231.062 105.805 231.418ZM128.161 240H125.952V231.862C125.952 230.881 125.766 230.148 125.394 229.666C125.03 229.175 124.505 228.93 123.819 228.93C123.523 228.93 123.244 228.972 122.981 229.057C122.728 229.133 122.461 229.272 122.182 229.476C121.902 229.67 121.598 229.937 121.268 230.275C120.938 230.614 120.557 231.037 120.125 231.545V240H117.916V222.062H120.125V227.254L120.049 229.26C120.396 228.845 120.734 228.498 121.064 228.219C121.403 227.931 121.737 227.698 122.067 227.521C122.406 227.343 122.749 227.216 123.096 227.14C123.443 227.063 123.802 227.025 124.175 227.025C125.444 227.025 126.426 227.415 127.12 228.193C127.814 228.964 128.161 230.127 128.161 231.685V240ZM142.481 239.822C141.982 239.949 141.466 240.038 140.933 240.089C140.399 240.148 139.858 240.178 139.308 240.178C137.708 240.178 136.515 239.818 135.728 239.099C134.94 238.371 134.547 237.258 134.547 235.76V229.107H130.979V227.254H134.547V223.75L136.756 223.179V227.254H142.481V229.107H136.756V235.582C136.756 236.496 136.997 237.182 137.479 237.639C137.97 238.087 138.69 238.312 139.638 238.312C140.044 238.312 140.488 238.282 140.971 238.223C141.453 238.155 141.957 238.053 142.481 237.918V239.822ZM171.376 231.799H160.458V229.933H171.376V231.799ZM171.376 236.217H160.458V234.351H171.376V236.217ZM198.48 240V230.847C198.48 230.449 198.464 230.123 198.43 229.869C198.404 229.615 198.358 229.416 198.29 229.272C198.231 229.12 198.15 229.014 198.049 228.955C197.956 228.896 197.837 228.866 197.693 228.866C197.524 228.866 197.368 228.917 197.224 229.019C197.08 229.12 196.923 229.285 196.754 229.514C196.593 229.742 196.411 230.047 196.208 230.428C196.013 230.8 195.781 231.261 195.51 231.812V240H193.491V231.088C193.491 230.622 193.474 230.246 193.44 229.958C193.415 229.67 193.368 229.446 193.301 229.285C193.242 229.124 193.161 229.014 193.06 228.955C192.958 228.896 192.835 228.866 192.691 228.866C192.539 228.866 192.395 228.909 192.26 228.993C192.124 229.078 191.972 229.23 191.803 229.45C191.642 229.67 191.46 229.971 191.257 230.352C191.054 230.732 190.812 231.219 190.533 231.812V240H188.502V227.254H190.19L190.292 229.679C190.512 229.196 190.724 228.786 190.927 228.447C191.138 228.109 191.354 227.838 191.574 227.635C191.794 227.423 192.027 227.271 192.272 227.178C192.526 227.076 192.806 227.025 193.11 227.025C193.796 227.025 194.316 227.25 194.672 227.698C195.027 228.147 195.205 228.841 195.205 229.78C195.408 229.34 195.607 228.951 195.802 228.612C195.996 228.265 196.204 227.978 196.424 227.749C196.652 227.512 196.902 227.334 197.173 227.216C197.444 227.089 197.757 227.025 198.112 227.025C199.712 227.025 200.512 228.257 200.512 230.72V240H198.48ZM208.027 229.082H204.257V227.254H210.262V238.159H214.058V240H203.838V238.159H208.027V229.082ZM208.802 221.909C209.047 221.909 209.276 221.956 209.487 222.049C209.699 222.133 209.881 222.256 210.033 222.417C210.194 222.578 210.317 222.764 210.401 222.976C210.494 223.179 210.541 223.403 210.541 223.648C210.541 223.885 210.494 224.11 210.401 224.321C210.317 224.533 210.194 224.719 210.033 224.88C209.881 225.041 209.699 225.168 209.487 225.261C209.276 225.345 209.047 225.388 208.802 225.388C208.556 225.388 208.328 225.345 208.116 225.261C207.905 225.168 207.718 225.041 207.558 224.88C207.405 224.719 207.283 224.533 207.189 224.321C207.105 224.11 207.062 223.885 207.062 223.648C207.062 223.403 207.105 223.179 207.189 222.976C207.283 222.764 207.405 222.578 207.558 222.417C207.718 222.256 207.905 222.133 208.116 222.049C208.328 221.956 208.556 221.909 208.802 221.909ZM217.333 233.894C217.333 232.81 217.481 231.85 217.777 231.012C218.074 230.165 218.493 229.454 219.034 228.879C219.584 228.295 220.24 227.855 221.002 227.559C221.772 227.254 222.627 227.102 223.566 227.102C223.973 227.102 224.37 227.127 224.76 227.178C225.158 227.229 225.547 227.309 225.928 227.419V222.062H228.149V240H226.169L226.093 237.588C225.475 238.485 224.806 239.149 224.087 239.581C223.368 240.013 222.589 240.229 221.751 240.229C221.023 240.229 220.38 240.076 219.821 239.771C219.271 239.467 218.81 239.039 218.438 238.489C218.074 237.931 217.799 237.262 217.612 236.483C217.426 235.705 217.333 234.841 217.333 233.894ZM219.593 233.754C219.593 235.294 219.817 236.445 220.266 237.207C220.723 237.96 221.366 238.337 222.195 238.337C222.754 238.337 223.342 238.087 223.96 237.588C224.586 237.089 225.242 236.348 225.928 235.366V229.45C225.564 229.281 225.162 229.154 224.722 229.069C224.282 228.976 223.846 228.93 223.414 228.93C222.212 228.93 221.273 229.319 220.596 230.098C219.927 230.876 219.593 232.095 219.593 233.754ZM255.482 234.122H247.891V232.04H255.482V234.122ZM285.786 240H275.363V237.943H279.629V225.832L275.655 227.99L274.843 226.111L280.124 223.331H282.079V237.943H285.786V240Z" fill="black"/>
<path d="M57.7071 234.707C58.0976 234.317 58.0976 233.683 57.7071 233.293L51.3431 226.929C50.9526 226.538 50.3195 226.538 49.9289 226.929C49.5384 227.319 49.5384 227.953 49.9289 228.343L55.5858 234L49.9289 239.657C49.5384 240.047 49.5384 240.681 49.9289 241.071C50.3195 241.462 50.9526 241.462 51.3431 241.071L57.7071 234.707ZM17 235H57V233H17V235Z" fill="black"/>
</g>
<defs>
<clipPath id="clip0_6262_1725">
<rect width="935" height="258" fill="white"/>
</clipPath>
</defs>
</svg>
