<svg width="1076" height="190" viewBox="0 0 1076 190" fill="none" xmlns="http://www.w3.org/2000/svg">
<g clip-path="url(#clip0_6273_901)">
<rect width="1076" height="190" fill="white"/>
<path d="M132 31L132 144C132 155.046 140.954 164 152 164H221C232.046 164 241 155.046 241 144V31" stroke="black" stroke-width="2" stroke-linecap="round"/>
<path d="M162.387 185.521C162.387 185.97 162.311 186.372 162.158 186.728C162.006 187.083 161.799 187.4 161.536 187.68C161.274 187.951 160.969 188.183 160.622 188.378C160.275 188.573 159.903 188.733 159.505 188.86C159.116 188.987 158.714 189.08 158.299 189.14C157.884 189.199 157.478 189.229 157.08 189.229C156.217 189.229 155.421 189.19 154.693 189.114C153.974 189.038 153.267 188.915 152.573 188.746V186.715C153.318 186.926 154.059 187.087 154.795 187.197C155.531 187.307 156.263 187.362 156.991 187.362C158.049 187.362 158.832 187.218 159.34 186.931C159.848 186.643 160.102 186.232 160.102 185.699C160.102 185.471 160.059 185.268 159.975 185.09C159.898 184.904 159.755 184.73 159.543 184.569C159.331 184.4 159.001 184.227 158.553 184.049C158.113 183.871 157.507 183.668 156.737 183.439C156.162 183.27 155.629 183.08 155.138 182.868C154.655 182.648 154.236 182.39 153.881 182.094C153.525 181.798 153.246 181.451 153.043 181.053C152.84 180.655 152.738 180.185 152.738 179.644C152.738 179.288 152.819 178.899 152.979 178.476C153.149 178.052 153.432 177.659 153.83 177.295C154.228 176.931 154.765 176.631 155.442 176.394C156.119 176.148 156.966 176.025 157.981 176.025C158.481 176.025 159.035 176.055 159.645 176.114C160.254 176.165 160.889 176.258 161.549 176.394V178.361C160.855 178.192 160.195 178.069 159.568 177.993C158.951 177.909 158.413 177.866 157.956 177.866C157.406 177.866 156.94 177.909 156.56 177.993C156.187 178.078 155.882 178.196 155.646 178.349C155.417 178.493 155.252 178.666 155.15 178.869C155.049 179.064 154.998 179.275 154.998 179.504C154.998 179.732 155.04 179.94 155.125 180.126C155.218 180.312 155.383 180.494 155.62 180.672C155.866 180.841 156.204 181.015 156.636 181.192C157.067 181.362 157.63 181.548 158.324 181.751C159.077 181.971 159.712 182.204 160.229 182.449C160.745 182.686 161.164 182.953 161.485 183.249C161.807 183.545 162.035 183.88 162.171 184.252C162.315 184.624 162.387 185.048 162.387 185.521ZM176.859 188.822C176.36 188.949 175.844 189.038 175.311 189.089C174.777 189.148 174.236 189.178 173.686 189.178C172.086 189.178 170.893 188.818 170.105 188.099C169.318 187.371 168.925 186.258 168.925 184.76V178.107H165.357V176.254H168.925V172.75L171.134 172.179V176.254H176.859V178.107H171.134V184.582C171.134 185.496 171.375 186.182 171.857 186.639C172.348 187.087 173.068 187.312 174.016 187.312C174.422 187.312 174.866 187.282 175.349 187.223C175.831 187.155 176.335 187.053 176.859 186.918V188.822ZM189.072 189L189.021 187.286C188.327 187.972 187.621 188.467 186.901 188.771C186.19 189.076 185.441 189.229 184.654 189.229C183.926 189.229 183.304 189.135 182.788 188.949C182.272 188.763 181.844 188.509 181.506 188.188C181.176 187.857 180.93 187.472 180.77 187.032C180.617 186.592 180.541 186.114 180.541 185.598C180.541 184.32 181.015 183.321 181.963 182.602C182.919 181.874 184.328 181.51 186.19 181.51H188.831V180.393C188.831 179.639 188.59 179.038 188.107 178.59C187.625 178.133 186.889 177.904 185.898 177.904C185.179 177.904 184.468 177.985 183.766 178.146C183.072 178.306 182.352 178.535 181.607 178.831V176.838C181.887 176.736 182.196 176.639 182.534 176.546C182.881 176.444 183.245 176.355 183.626 176.279C184.007 176.203 184.405 176.144 184.819 176.102C185.234 176.051 185.653 176.025 186.076 176.025C186.846 176.025 187.54 176.11 188.158 176.279C188.776 176.449 189.297 176.707 189.72 177.054C190.151 177.401 190.481 177.837 190.71 178.361C190.938 178.886 191.053 179.504 191.053 180.215V189H189.072ZM188.831 183.198H186.025C185.475 183.198 185.001 183.253 184.604 183.363C184.206 183.473 183.88 183.63 183.626 183.833C183.372 184.036 183.182 184.282 183.055 184.569C182.936 184.849 182.877 185.166 182.877 185.521C182.877 185.767 182.915 186.004 182.991 186.232C183.067 186.452 183.19 186.651 183.359 186.829C183.529 186.998 183.749 187.134 184.02 187.235C184.29 187.337 184.62 187.388 185.01 187.388C185.518 187.388 186.097 187.235 186.749 186.931C187.409 186.618 188.103 186.127 188.831 185.458V183.198ZM205.081 188.53C204.506 188.75 203.913 188.911 203.304 189.013C202.703 189.123 202.081 189.178 201.438 189.178C199.423 189.178 197.87 188.632 196.778 187.54C195.695 186.448 195.153 184.853 195.153 182.754C195.153 181.747 195.31 180.833 195.623 180.012C195.936 179.191 196.376 178.488 196.943 177.904C197.51 177.32 198.188 176.872 198.975 176.559C199.762 176.237 200.629 176.076 201.577 176.076C202.237 176.076 202.855 176.123 203.431 176.216C204.006 176.309 204.556 176.461 205.081 176.673V178.78C204.531 178.493 203.968 178.285 203.393 178.158C202.826 178.023 202.237 177.955 201.628 177.955C201.061 177.955 200.523 178.065 200.016 178.285C199.516 178.497 199.076 178.806 198.695 179.212C198.314 179.618 198.014 180.113 197.794 180.697C197.574 181.281 197.464 181.941 197.464 182.678C197.464 184.218 197.836 185.373 198.581 186.144C199.334 186.905 200.375 187.286 201.704 187.286C202.305 187.286 202.885 187.218 203.443 187.083C204.01 186.948 204.556 186.744 205.081 186.474V188.53ZM220.938 189H217.903L211.962 182.17V189H209.753V171.062H211.962V182.081L217.688 176.254H220.607L214.628 182.132L220.938 189Z" fill="black"/>
<path d="M192.01 147H181.587V144.943H185.853V132.832L181.879 134.99L181.066 133.111L186.348 130.331H188.303V144.943H192.01V147Z" fill="black"/>
<path d="M262 139C262.552 139 263 138.552 263 138C263 137.448 262.552 137 262 137L262 139ZM202.293 137.293C201.902 137.683 201.902 138.317 202.293 138.707L208.657 145.071C209.047 145.462 209.681 145.462 210.071 145.071C210.462 144.68 210.462 144.047 210.071 143.657L204.414 138L210.071 132.343C210.462 131.953 210.462 131.319 210.071 130.929C209.681 130.538 209.047 130.538 208.657 130.929L202.293 137.293ZM262 137L203 137L203 139L262 139L262 137Z" fill="#00B2FF"/>
<path d="M90.4092 145.85C89.9867 145.957 89.5498 146.032 89.0986 146.075C88.6475 146.125 88.1891 146.15 87.7236 146.15C86.3701 146.15 85.3604 145.846 84.6943 145.237C84.0283 144.621 83.6953 143.68 83.6953 142.412V136.783H80.6768V135.215H83.6953V132.25L85.5645 131.767V135.215H90.4092V136.783H85.5645V142.262C85.5645 143.035 85.7686 143.615 86.1768 144.002C86.5921 144.382 87.2008 144.571 88.0029 144.571C88.3467 144.571 88.7227 144.546 89.1309 144.496C89.5391 144.439 89.9652 144.353 90.4092 144.238V145.85ZM103.203 140.521C103.203 141.359 103.085 142.129 102.849 142.831C102.612 143.526 102.272 144.124 101.828 144.625C101.384 145.119 100.843 145.506 100.206 145.785C99.5687 146.057 98.8454 146.193 98.0361 146.193C97.2627 146.193 96.568 146.075 95.9521 145.839C95.3434 145.595 94.8242 145.241 94.3945 144.775C93.972 144.31 93.6462 143.733 93.417 143.046C93.195 142.358 93.084 141.567 93.084 140.672C93.084 139.834 93.2021 139.071 93.4385 138.384C93.6748 137.689 94.015 137.095 94.459 136.601C94.903 136.099 95.4437 135.713 96.0811 135.44C96.7184 135.161 97.4417 135.021 98.251 135.021C99.0244 135.021 99.7155 135.143 100.324 135.387C100.94 135.623 101.459 135.974 101.882 136.439C102.312 136.898 102.637 137.471 102.859 138.158C103.089 138.846 103.203 139.633 103.203 140.521ZM101.291 140.607C101.291 139.941 101.216 139.361 101.065 138.867C100.922 138.366 100.715 137.951 100.442 137.621C100.17 137.285 99.8372 137.034 99.4434 136.869C99.0566 136.697 98.6234 136.611 98.1436 136.611C97.585 136.611 97.1051 136.722 96.7041 136.944C96.3102 137.159 95.9844 137.449 95.7266 137.814C95.4759 138.18 95.2897 138.606 95.168 139.093C95.0534 139.573 94.9961 140.077 94.9961 140.607C94.9961 141.273 95.0677 141.857 95.2109 142.358C95.3613 142.86 95.5726 143.279 95.8447 143.615C96.1169 143.945 96.4463 144.195 96.833 144.367C97.2197 144.532 97.6566 144.614 98.1436 144.614C98.7021 144.614 99.1784 144.507 99.5723 144.292C99.9733 144.07 100.299 143.776 100.55 143.411C100.808 143.046 100.994 142.623 101.108 142.144C101.23 141.657 101.291 141.145 101.291 140.607ZM115.127 140.414C115.127 141.374 114.991 142.212 114.719 142.928C114.454 143.644 114.085 144.238 113.612 144.711C113.14 145.184 112.581 145.538 111.937 145.774C111.292 146.011 110.594 146.129 109.842 146.129C109.498 146.129 109.154 146.111 108.811 146.075C108.474 146.039 108.13 145.979 107.779 145.893V150.404H105.91V135.215H107.575L107.693 137.02C108.23 136.282 108.803 135.766 109.412 135.473C110.021 135.172 110.68 135.021 111.389 135.021C112.005 135.021 112.545 135.15 113.011 135.408C113.476 135.666 113.867 136.031 114.182 136.504C114.497 136.969 114.733 137.535 114.891 138.201C115.048 138.86 115.127 139.598 115.127 140.414ZM113.215 140.5C113.215 139.934 113.172 139.415 113.086 138.942C113.007 138.47 112.878 138.065 112.699 137.729C112.52 137.392 112.291 137.131 112.012 136.944C111.732 136.751 111.399 136.654 111.013 136.654C110.776 136.654 110.536 136.694 110.293 136.772C110.049 136.844 109.795 136.969 109.53 137.148C109.272 137.32 108.997 137.553 108.703 137.847C108.417 138.133 108.109 138.491 107.779 138.921V144.152C108.123 144.296 108.485 144.41 108.864 144.496C109.244 144.575 109.616 144.614 109.981 144.614C110.991 144.614 111.783 144.274 112.355 143.594C112.928 142.906 113.215 141.875 113.215 140.5ZM122.335 135.021C122.557 135.021 122.768 135.068 122.969 135.161C123.169 135.247 123.345 135.365 123.495 135.516C123.646 135.666 123.764 135.841 123.85 136.042C123.943 136.243 123.989 136.454 123.989 136.676C123.989 136.905 123.943 137.12 123.85 137.32C123.764 137.514 123.646 137.686 123.495 137.836C123.345 137.986 123.169 138.104 122.969 138.19C122.768 138.276 122.557 138.319 122.335 138.319C122.106 138.319 121.891 138.276 121.69 138.19C121.497 138.104 121.325 137.986 121.175 137.836C121.024 137.686 120.906 137.514 120.82 137.32C120.734 137.12 120.691 136.905 120.691 136.676C120.691 136.454 120.734 136.243 120.82 136.042C120.906 135.841 121.024 135.666 121.175 135.516C121.325 135.365 121.497 135.247 121.69 135.161C121.891 135.068 122.106 135.021 122.335 135.021ZM122.335 142.896C122.557 142.896 122.768 142.942 122.969 143.035C123.169 143.121 123.345 143.239 123.495 143.39C123.646 143.54 123.764 143.715 123.85 143.916C123.943 144.117 123.989 144.328 123.989 144.55C123.989 144.779 123.943 144.994 123.85 145.194C123.764 145.388 123.646 145.56 123.495 145.71C123.345 145.86 123.169 145.979 122.969 146.064C122.768 146.15 122.557 146.193 122.335 146.193C122.106 146.193 121.891 146.15 121.69 146.064C121.497 145.979 121.325 145.86 121.175 145.71C121.024 145.56 120.906 145.388 120.82 145.194C120.734 144.994 120.691 144.779 120.691 144.55C120.691 144.328 120.734 144.117 120.82 143.916C120.906 143.715 121.024 143.54 121.175 143.39C121.325 143.239 121.497 143.121 121.69 143.035C121.891 142.942 122.106 142.896 122.335 142.896Z" fill="#666666"/>
<path d="M92.7969 12.9541C92.7969 13.2673 92.7926 13.5296 92.7842 13.7412C92.7757 13.9528 92.763 14.1517 92.7461 14.3379H83.7959C83.7959 15.6413 84.1598 16.6442 84.8877 17.3467C85.6156 18.0407 86.665 18.3877 88.0361 18.3877C88.4085 18.3877 88.7809 18.375 89.1533 18.3496C89.5257 18.3158 89.8854 18.2734 90.2324 18.2227C90.5794 18.1719 90.9095 18.1169 91.2227 18.0576C91.5443 17.9899 91.8405 17.918 92.1113 17.8418V19.6572C91.5104 19.8265 90.8291 19.9619 90.0674 20.0635C89.3141 20.1735 88.5312 20.2285 87.7188 20.2285C86.627 20.2285 85.6875 20.0804 84.9004 19.7842C84.1133 19.488 83.4658 19.0605 82.958 18.502C82.4587 17.9349 82.0863 17.2451 81.8408 16.4326C81.6038 15.6117 81.4854 14.6849 81.4854 13.6523C81.4854 12.7552 81.6123 11.9089 81.8662 11.1133C82.1286 10.3092 82.5052 9.60677 82.9961 9.00586C83.4954 8.39648 84.1048 7.91406 84.8242 7.55859C85.5436 7.20312 86.3604 7.02539 87.2744 7.02539C88.1631 7.02539 88.9502 7.16504 89.6357 7.44434C90.3213 7.72363 90.8968 8.12142 91.3623 8.6377C91.8363 9.14551 92.1917 9.76758 92.4287 10.5039C92.6742 11.2318 92.7969 12.0485 92.7969 12.9541ZM90.499 12.6367C90.5244 12.0697 90.4694 11.5534 90.334 11.0879C90.1986 10.6139 89.987 10.2077 89.6992 9.86914C89.4199 9.5306 89.0687 9.26823 88.6455 9.08203C88.2223 8.88737 87.7314 8.79004 87.1729 8.79004C86.6904 8.79004 86.2503 8.88314 85.8525 9.06934C85.4548 9.25553 85.112 9.5179 84.8242 9.85645C84.5365 10.195 84.3037 10.6012 84.126 11.0752C83.9482 11.5492 83.8382 12.0697 83.7959 12.6367H90.499ZM96.3262 7.25391H98.2939L98.3828 9.31055C98.7552 8.87044 99.1149 8.50651 99.4619 8.21875C99.8089 7.92253 100.147 7.68555 100.478 7.50781C100.816 7.33008 101.159 7.20736 101.506 7.13965C101.853 7.06348 102.213 7.02539 102.585 7.02539C103.897 7.02539 104.887 7.41471 105.556 8.19336C106.233 8.96354 106.571 10.1273 106.571 11.6846V20H104.362V11.8623C104.362 10.8636 104.176 10.1273 103.804 9.65332C103.431 9.1709 102.877 8.92969 102.141 8.92969C101.87 8.92969 101.603 8.97201 101.341 9.05664C101.087 9.13281 100.82 9.27246 100.541 9.47559C100.262 9.67025 99.957 9.93685 99.627 10.2754C99.3053 10.6139 98.9414 11.0371 98.5352 11.5449V20H96.3262V7.25391ZM109.974 13.8936C109.974 12.9795 110.092 12.112 110.329 11.291C110.575 10.4701 110.947 9.75065 111.446 9.13281C111.954 8.50651 112.602 8.01139 113.389 7.64746C114.176 7.28353 115.115 7.10156 116.207 7.10156C116.639 7.10156 117.066 7.13542 117.489 7.20312C117.912 7.27083 118.361 7.37663 118.835 7.52051L120.79 7.02539V25.2051H118.568V20.3936L118.683 17.6641C117.481 19.3737 116.05 20.2285 114.392 20.2285C113.647 20.2285 112.999 20.0762 112.449 19.7715C111.899 19.4668 111.438 19.0352 111.065 18.4766C110.701 17.918 110.426 17.2493 110.24 16.4707C110.062 15.6921 109.974 14.833 109.974 13.8936ZM112.233 13.7539C112.233 14.4648 112.284 15.1038 112.386 15.6709C112.496 16.238 112.657 16.7204 112.868 17.1182C113.088 17.5075 113.359 17.8079 113.681 18.0195C114.011 18.2311 114.396 18.3369 114.836 18.3369C115.395 18.3369 115.983 18.0872 116.601 17.5879C117.227 17.0885 117.883 16.348 118.568 15.3662V9.4502C118.23 9.28939 117.845 9.1582 117.413 9.05664C116.99 8.95508 116.537 8.9043 116.055 8.9043C114.811 8.9043 113.863 9.31478 113.211 10.1357C112.559 10.9567 112.233 12.1628 112.233 13.7539ZM135.161 20H133.181L133.104 17.9434C132.724 18.3835 132.36 18.7516 132.013 19.0479C131.674 19.3356 131.336 19.5684 130.997 19.7461C130.659 19.9238 130.316 20.0465 129.969 20.1143C129.63 20.1904 129.271 20.2285 128.89 20.2285C127.578 20.2285 126.588 19.8434 125.919 19.0732C125.25 18.3031 124.916 17.1393 124.916 15.582V7.25391H127.125V15.4043C127.125 17.3594 127.861 18.3369 129.334 18.3369C129.605 18.3369 129.867 18.2988 130.121 18.2227C130.383 18.138 130.654 17.9984 130.934 17.8037C131.221 17.6006 131.526 17.3298 131.848 16.9912C132.178 16.6527 132.546 16.2253 132.952 15.709V7.25391H135.161V20ZM149.977 12.9541C149.977 13.2673 149.972 13.5296 149.964 13.7412C149.955 13.9528 149.943 14.1517 149.926 14.3379H140.976C140.976 15.6413 141.34 16.6442 142.067 17.3467C142.795 18.0407 143.845 18.3877 145.216 18.3877C145.588 18.3877 145.961 18.375 146.333 18.3496C146.705 18.3158 147.065 18.2734 147.412 18.2227C147.759 18.1719 148.089 18.1169 148.402 18.0576C148.724 17.9899 149.02 17.918 149.291 17.8418V19.6572C148.69 19.8265 148.009 19.9619 147.247 20.0635C146.494 20.1735 145.711 20.2285 144.898 20.2285C143.807 20.2285 142.867 20.0804 142.08 19.7842C141.293 19.488 140.646 19.0605 140.138 18.502C139.638 17.9349 139.266 17.2451 139.021 16.4326C138.784 15.6117 138.665 14.6849 138.665 13.6523C138.665 12.7552 138.792 11.9089 139.046 11.1133C139.308 10.3092 139.685 9.60677 140.176 9.00586C140.675 8.39648 141.285 7.91406 142.004 7.55859C142.723 7.20312 143.54 7.02539 144.454 7.02539C145.343 7.02539 146.13 7.16504 146.815 7.44434C147.501 7.72363 148.076 8.12142 148.542 8.6377C149.016 9.14551 149.371 9.76758 149.608 10.5039C149.854 11.2318 149.977 12.0485 149.977 12.9541ZM147.679 12.6367C147.704 12.0697 147.649 11.5534 147.514 11.0879C147.378 10.6139 147.167 10.2077 146.879 9.86914C146.6 9.5306 146.248 9.26823 145.825 9.08203C145.402 8.88737 144.911 8.79004 144.353 8.79004C143.87 8.79004 143.43 8.88314 143.032 9.06934C142.634 9.25553 142.292 9.5179 142.004 9.85645C141.716 10.195 141.483 10.6012 141.306 11.0752C141.128 11.5492 141.018 12.0697 140.976 12.6367H147.679ZM163.751 20H161.771L161.694 17.9434C161.313 18.3835 160.95 18.7516 160.603 19.0479C160.264 19.3356 159.925 19.5684 159.587 19.7461C159.248 19.9238 158.906 20.0465 158.559 20.1143C158.22 20.1904 157.86 20.2285 157.479 20.2285C156.168 20.2285 155.177 19.8434 154.509 19.0732C153.84 18.3031 153.506 17.1393 153.506 15.582V7.25391H155.715V15.4043C155.715 17.3594 156.451 18.3369 157.924 18.3369C158.195 18.3369 158.457 18.2988 158.711 18.2227C158.973 18.138 159.244 17.9984 159.523 17.8037C159.811 17.6006 160.116 17.3298 160.438 16.9912C160.768 16.6527 161.136 16.2253 161.542 15.709V7.25391H163.751V20ZM178.566 12.9541C178.566 13.2673 178.562 13.5296 178.554 13.7412C178.545 13.9528 178.533 14.1517 178.516 14.3379H169.565C169.565 15.6413 169.929 16.6442 170.657 17.3467C171.385 18.0407 172.435 18.3877 173.806 18.3877C174.178 18.3877 174.55 18.375 174.923 18.3496C175.295 18.3158 175.655 18.2734 176.002 18.2227C176.349 18.1719 176.679 18.1169 176.992 18.0576C177.314 17.9899 177.61 17.918 177.881 17.8418V19.6572C177.28 19.8265 176.599 19.9619 175.837 20.0635C175.084 20.1735 174.301 20.2285 173.488 20.2285C172.396 20.2285 171.457 20.0804 170.67 19.7842C169.883 19.488 169.235 19.0605 168.728 18.502C168.228 17.9349 167.856 17.2451 167.61 16.4326C167.373 15.6117 167.255 14.6849 167.255 13.6523C167.255 12.7552 167.382 11.9089 167.636 11.1133C167.898 10.3092 168.275 9.60677 168.766 9.00586C169.265 8.39648 169.874 7.91406 170.594 7.55859C171.313 7.20312 172.13 7.02539 173.044 7.02539C173.933 7.02539 174.72 7.16504 175.405 7.44434C176.091 7.72363 176.666 8.12142 177.132 8.6377C177.606 9.14551 177.961 9.76758 178.198 10.5039C178.444 11.2318 178.566 12.0485 178.566 12.9541ZM176.269 12.6367C176.294 12.0697 176.239 11.5534 176.104 11.0879C175.968 10.6139 175.757 10.2077 175.469 9.86914C175.189 9.5306 174.838 9.26823 174.415 9.08203C173.992 8.88737 173.501 8.79004 172.942 8.79004C172.46 8.79004 172.02 8.88314 171.622 9.06934C171.224 9.25553 170.882 9.5179 170.594 9.85645C170.306 10.195 170.073 10.6012 169.896 11.0752C169.718 11.5492 169.608 12.0697 169.565 12.6367H176.269ZM189.726 25.332C185.824 21.7181 183.873 17.7233 183.873 13.3477C183.873 12.3236 183.975 11.3037 184.178 10.2881C184.389 9.264 184.724 8.23991 185.181 7.21582C185.646 6.19173 186.256 5.16764 187.009 4.14355C187.771 3.11947 188.693 2.10384 189.776 1.09668L191.059 2.4043C187.775 5.64583 186.133 9.23861 186.133 13.1826C186.133 15.1462 186.548 17.0335 187.377 18.8447C188.206 20.6559 189.434 22.3656 191.059 23.9736L189.726 25.332ZM207.017 20H196.594V17.9434H200.859V5.83203L196.886 7.99023L196.073 6.11133L201.354 3.33105H203.31V17.9434H207.017V20ZM213.288 1.09668C217.19 4.71061 219.141 8.73079 219.141 13.1572C219.141 14.0713 219.048 15.0192 218.861 16.001C218.675 16.9827 218.358 17.9899 217.909 19.0225C217.461 20.0465 216.855 21.0876 216.094 22.1455C215.34 23.2035 214.388 24.2656 213.237 25.332L211.955 24.0244C213.605 22.391 214.837 20.6855 215.649 18.9082C216.462 17.1309 216.868 15.2689 216.868 13.3223C216.868 9.29362 215.23 5.67122 211.955 2.45508L213.288 1.09668ZM230.097 7.02539C230.359 7.02539 230.609 7.0804 230.846 7.19043C231.083 7.29199 231.29 7.43164 231.468 7.60938C231.646 7.78711 231.785 7.99447 231.887 8.23145C231.997 8.46842 232.052 8.7181 232.052 8.98047C232.052 9.2513 231.997 9.50521 231.887 9.74219C231.785 9.9707 231.646 10.1738 231.468 10.3516C231.29 10.5293 231.083 10.6689 230.846 10.7705C230.609 10.8721 230.359 10.9229 230.097 10.9229C229.826 10.9229 229.572 10.8721 229.335 10.7705C229.106 10.6689 228.903 10.5293 228.726 10.3516C228.548 10.1738 228.408 9.9707 228.307 9.74219C228.205 9.50521 228.154 9.2513 228.154 8.98047C228.154 8.7181 228.205 8.46842 228.307 8.23145C228.408 7.99447 228.548 7.78711 228.726 7.60938C228.903 7.43164 229.106 7.29199 229.335 7.19043C229.572 7.0804 229.826 7.02539 230.097 7.02539ZM230.097 16.3311C230.359 16.3311 230.609 16.3861 230.846 16.4961C231.083 16.5977 231.29 16.7373 231.468 16.915C231.646 17.0928 231.785 17.3001 231.887 17.5371C231.997 17.7741 232.052 18.0238 232.052 18.2861C232.052 18.557 231.997 18.8109 231.887 19.0479C231.785 19.2764 231.646 19.4795 231.468 19.6572C231.29 19.835 231.083 19.9746 230.846 20.0762C230.609 20.1777 230.359 20.2285 230.097 20.2285C229.826 20.2285 229.572 20.1777 229.335 20.0762C229.106 19.9746 228.903 19.835 228.726 19.6572C228.548 19.4795 228.408 19.2764 228.307 19.0479C228.205 18.8109 228.154 18.557 228.154 18.2861C228.154 18.0238 228.205 17.7741 228.307 17.5371C228.408 17.3001 228.548 17.0928 228.726 16.915C228.903 16.7373 229.106 16.5977 229.335 16.4961C229.572 16.3861 229.826 16.3311 230.097 16.3311Z" fill="black"/>
<path d="M281.924 138.398C281.924 139.533 281.763 140.523 281.441 141.369C281.128 142.215 280.692 142.918 280.134 143.477C279.575 144.035 278.915 144.454 278.153 144.733C277.392 145.013 276.566 145.152 275.678 145.152C275.271 145.152 274.865 145.131 274.459 145.089C274.061 145.047 273.655 144.975 273.24 144.873V150.205H271.031V132.254H272.999L273.139 134.387C273.773 133.515 274.451 132.906 275.17 132.559C275.889 132.203 276.668 132.025 277.506 132.025C278.234 132.025 278.873 132.178 279.423 132.482C279.973 132.787 280.434 133.219 280.807 133.777C281.179 134.327 281.458 134.996 281.645 135.783C281.831 136.562 281.924 137.434 281.924 138.398ZM279.664 138.5C279.664 137.831 279.613 137.218 279.512 136.659C279.419 136.101 279.266 135.622 279.055 135.225C278.843 134.827 278.572 134.518 278.242 134.298C277.912 134.069 277.519 133.955 277.062 133.955C276.782 133.955 276.499 134.002 276.211 134.095C275.923 134.179 275.623 134.327 275.31 134.539C275.005 134.742 274.679 135.017 274.332 135.364C273.993 135.703 273.63 136.126 273.24 136.634V142.816C273.646 142.986 274.074 143.121 274.522 143.223C274.971 143.316 275.411 143.362 275.843 143.362C277.036 143.362 277.971 142.96 278.648 142.156C279.326 141.344 279.664 140.125 279.664 138.5ZM295.571 145H293.591L293.515 142.943C293.134 143.383 292.77 143.752 292.423 144.048C292.084 144.336 291.746 144.568 291.407 144.746C291.069 144.924 290.726 145.047 290.379 145.114C290.04 145.19 289.681 145.229 289.3 145.229C287.988 145.229 286.998 144.843 286.329 144.073C285.66 143.303 285.326 142.139 285.326 140.582V132.254H287.535V140.404C287.535 142.359 288.271 143.337 289.744 143.337C290.015 143.337 290.277 143.299 290.531 143.223C290.794 143.138 291.064 142.998 291.344 142.804C291.632 142.601 291.936 142.33 292.258 141.991C292.588 141.653 292.956 141.225 293.362 140.709V132.254H295.571V145ZM309.714 141.521C309.714 141.97 309.638 142.372 309.485 142.728C309.333 143.083 309.126 143.4 308.863 143.68C308.601 143.951 308.296 144.183 307.949 144.378C307.602 144.573 307.23 144.733 306.832 144.86C306.443 144.987 306.041 145.08 305.626 145.14C305.211 145.199 304.805 145.229 304.407 145.229C303.544 145.229 302.748 145.19 302.021 145.114C301.301 145.038 300.594 144.915 299.9 144.746V142.715C300.645 142.926 301.386 143.087 302.122 143.197C302.858 143.307 303.59 143.362 304.318 143.362C305.376 143.362 306.159 143.218 306.667 142.931C307.175 142.643 307.429 142.232 307.429 141.699C307.429 141.471 307.386 141.268 307.302 141.09C307.226 140.904 307.082 140.73 306.87 140.569C306.659 140.4 306.328 140.227 305.88 140.049C305.44 139.871 304.835 139.668 304.064 139.439C303.489 139.27 302.956 139.08 302.465 138.868C301.982 138.648 301.563 138.39 301.208 138.094C300.853 137.798 300.573 137.451 300.37 137.053C300.167 136.655 300.065 136.185 300.065 135.644C300.065 135.288 300.146 134.899 300.307 134.476C300.476 134.052 300.759 133.659 301.157 133.295C301.555 132.931 302.092 132.631 302.77 132.394C303.447 132.148 304.293 132.025 305.309 132.025C305.808 132.025 306.362 132.055 306.972 132.114C307.581 132.165 308.216 132.258 308.876 132.394V134.361C308.182 134.192 307.522 134.069 306.896 133.993C306.278 133.909 305.74 133.866 305.283 133.866C304.733 133.866 304.268 133.909 303.887 133.993C303.514 134.078 303.21 134.196 302.973 134.349C302.744 134.493 302.579 134.666 302.478 134.869C302.376 135.064 302.325 135.275 302.325 135.504C302.325 135.732 302.368 135.94 302.452 136.126C302.545 136.312 302.71 136.494 302.947 136.672C303.193 136.841 303.531 137.015 303.963 137.192C304.395 137.362 304.957 137.548 305.651 137.751C306.405 137.971 307.039 138.204 307.556 138.449C308.072 138.686 308.491 138.953 308.812 139.249C309.134 139.545 309.363 139.88 309.498 140.252C309.642 140.624 309.714 141.048 309.714 141.521ZM324.161 145H321.952V136.862C321.952 135.881 321.766 135.148 321.394 134.666C321.03 134.175 320.505 133.93 319.819 133.93C319.523 133.93 319.244 133.972 318.981 134.057C318.728 134.133 318.461 134.272 318.182 134.476C317.902 134.67 317.598 134.937 317.268 135.275C316.938 135.614 316.557 136.037 316.125 136.545V145H313.916V127.062H316.125V132.254L316.049 134.26C316.396 133.845 316.734 133.498 317.064 133.219C317.403 132.931 317.737 132.698 318.067 132.521C318.406 132.343 318.749 132.216 319.096 132.14C319.443 132.063 319.802 132.025 320.175 132.025C321.444 132.025 322.426 132.415 323.12 133.193C323.814 133.964 324.161 135.127 324.161 136.685V145ZM335.841 150.332C331.939 146.718 329.988 142.723 329.988 138.348C329.988 137.324 330.09 136.304 330.293 135.288C330.505 134.264 330.839 133.24 331.296 132.216C331.761 131.192 332.371 130.168 333.124 129.144C333.886 128.119 334.808 127.104 335.892 126.097L337.174 127.404C333.89 130.646 332.248 134.239 332.248 138.183C332.248 140.146 332.663 142.034 333.492 143.845C334.322 145.656 335.549 147.366 337.174 148.974L335.841 150.332ZM353.132 145H342.709V142.943H346.975V130.832L343.001 132.99L342.188 131.111L347.47 128.331H349.425V142.943H353.132V145ZM359.403 126.097C363.305 129.711 365.256 133.731 365.256 138.157C365.256 139.071 365.163 140.019 364.977 141.001C364.79 141.983 364.473 142.99 364.024 144.022C363.576 145.047 362.971 146.088 362.209 147.146C361.456 148.203 360.504 149.266 359.353 150.332L358.07 149.024C359.721 147.391 360.952 145.686 361.765 143.908C362.577 142.131 362.983 140.269 362.983 138.322C362.983 134.294 361.346 130.671 358.07 127.455L359.403 126.097Z" fill="#00B2FF"/>
<path d="M478 31L478 144C478 155.046 486.954 164 498 164H567C578.046 164 587 155.046 587 144V31" stroke="black" stroke-width="2" stroke-linecap="round"/>
<path d="M508.387 185.521C508.387 185.97 508.311 186.372 508.158 186.728C508.006 187.083 507.799 187.4 507.536 187.68C507.274 187.951 506.969 188.183 506.622 188.378C506.275 188.573 505.903 188.733 505.505 188.86C505.116 188.987 504.714 189.08 504.299 189.14C503.884 189.199 503.478 189.229 503.08 189.229C502.217 189.229 501.421 189.19 500.693 189.114C499.974 189.038 499.267 188.915 498.573 188.746V186.715C499.318 186.926 500.059 187.087 500.795 187.197C501.531 187.307 502.263 187.362 502.991 187.362C504.049 187.362 504.832 187.218 505.34 186.931C505.848 186.643 506.102 186.232 506.102 185.699C506.102 185.471 506.059 185.268 505.975 185.09C505.898 184.904 505.755 184.73 505.543 184.569C505.331 184.4 505.001 184.227 504.553 184.049C504.113 183.871 503.507 183.668 502.737 183.439C502.162 183.27 501.629 183.08 501.138 182.868C500.655 182.648 500.236 182.39 499.881 182.094C499.525 181.798 499.246 181.451 499.043 181.053C498.84 180.655 498.738 180.185 498.738 179.644C498.738 179.288 498.819 178.899 498.979 178.476C499.149 178.052 499.432 177.659 499.83 177.295C500.228 176.931 500.765 176.631 501.442 176.394C502.119 176.148 502.966 176.025 503.981 176.025C504.481 176.025 505.035 176.055 505.645 176.114C506.254 176.165 506.889 176.258 507.549 176.394V178.361C506.855 178.192 506.195 178.069 505.568 177.993C504.951 177.909 504.413 177.866 503.956 177.866C503.406 177.866 502.94 177.909 502.56 177.993C502.187 178.078 501.882 178.196 501.646 178.349C501.417 178.493 501.252 178.666 501.15 178.869C501.049 179.064 500.998 179.275 500.998 179.504C500.998 179.732 501.04 179.94 501.125 180.126C501.218 180.312 501.383 180.494 501.62 180.672C501.866 180.841 502.204 181.015 502.636 181.192C503.067 181.362 503.63 181.548 504.324 181.751C505.077 181.971 505.712 182.204 506.229 182.449C506.745 182.686 507.164 182.953 507.485 183.249C507.807 183.545 508.035 183.88 508.171 184.252C508.315 184.624 508.387 185.048 508.387 185.521ZM522.859 188.822C522.36 188.949 521.844 189.038 521.311 189.089C520.777 189.148 520.236 189.178 519.686 189.178C518.086 189.178 516.893 188.818 516.105 188.099C515.318 187.371 514.925 186.258 514.925 184.76V178.107H511.357V176.254H514.925V172.75L517.134 172.179V176.254H522.859V178.107H517.134V184.582C517.134 185.496 517.375 186.182 517.857 186.639C518.348 187.087 519.068 187.312 520.016 187.312C520.422 187.312 520.866 187.282 521.349 187.223C521.831 187.155 522.335 187.053 522.859 186.918V188.822ZM535.072 189L535.021 187.286C534.327 187.972 533.621 188.467 532.901 188.771C532.19 189.076 531.441 189.229 530.654 189.229C529.926 189.229 529.304 189.135 528.788 188.949C528.272 188.763 527.844 188.509 527.506 188.188C527.176 187.857 526.93 187.472 526.77 187.032C526.617 186.592 526.541 186.114 526.541 185.598C526.541 184.32 527.015 183.321 527.963 182.602C528.919 181.874 530.328 181.51 532.19 181.51H534.831V180.393C534.831 179.639 534.59 179.038 534.107 178.59C533.625 178.133 532.889 177.904 531.898 177.904C531.179 177.904 530.468 177.985 529.766 178.146C529.072 178.306 528.352 178.535 527.607 178.831V176.838C527.887 176.736 528.196 176.639 528.534 176.546C528.881 176.444 529.245 176.355 529.626 176.279C530.007 176.203 530.405 176.144 530.819 176.102C531.234 176.051 531.653 176.025 532.076 176.025C532.846 176.025 533.54 176.11 534.158 176.279C534.776 176.449 535.297 176.707 535.72 177.054C536.151 177.401 536.481 177.837 536.71 178.361C536.938 178.886 537.053 179.504 537.053 180.215V189H535.072ZM534.831 183.198H532.025C531.475 183.198 531.001 183.253 530.604 183.363C530.206 183.473 529.88 183.63 529.626 183.833C529.372 184.036 529.182 184.282 529.055 184.569C528.936 184.849 528.877 185.166 528.877 185.521C528.877 185.767 528.915 186.004 528.991 186.232C529.067 186.452 529.19 186.651 529.359 186.829C529.529 186.998 529.749 187.134 530.02 187.235C530.29 187.337 530.62 187.388 531.01 187.388C531.518 187.388 532.097 187.235 532.749 186.931C533.409 186.618 534.103 186.127 534.831 185.458V183.198ZM551.081 188.53C550.506 188.75 549.913 188.911 549.304 189.013C548.703 189.123 548.081 189.178 547.438 189.178C545.423 189.178 543.87 188.632 542.778 187.54C541.695 186.448 541.153 184.853 541.153 182.754C541.153 181.747 541.31 180.833 541.623 180.012C541.936 179.191 542.376 178.488 542.943 177.904C543.51 177.32 544.188 176.872 544.975 176.559C545.762 176.237 546.629 176.076 547.577 176.076C548.237 176.076 548.855 176.123 549.431 176.216C550.006 176.309 550.556 176.461 551.081 176.673V178.78C550.531 178.493 549.968 178.285 549.393 178.158C548.826 178.023 548.237 177.955 547.628 177.955C547.061 177.955 546.523 178.065 546.016 178.285C545.516 178.497 545.076 178.806 544.695 179.212C544.314 179.618 544.014 180.113 543.794 180.697C543.574 181.281 543.464 181.941 543.464 182.678C543.464 184.218 543.836 185.373 544.581 186.144C545.334 186.905 546.375 187.286 547.704 187.286C548.305 187.286 548.885 187.218 549.443 187.083C550.01 186.948 550.556 186.744 551.081 186.474V188.53ZM566.938 189H563.903L557.962 182.17V189H555.753V171.062H557.962V182.081L563.688 176.254H566.607L560.628 182.132L566.938 189Z" fill="black"/>
<path d="M538.01 147H527.587V144.943H531.853V132.832L527.879 134.99L527.066 133.111L532.348 130.331H534.303V144.943H538.01V147Z" fill="black"/>
<path d="M538.149 102H527.219V100.02L531.51 95.7539C532.212 95.0599 532.784 94.459 533.224 93.9512C533.664 93.4434 534.007 92.9821 534.252 92.5674C534.497 92.1442 534.662 91.7464 534.747 91.374C534.832 91.0016 534.874 90.5996 534.874 90.168C534.874 89.7617 534.819 89.3766 534.709 89.0127C534.599 88.6403 534.43 88.3145 534.201 88.0352C533.973 87.7559 533.676 87.5358 533.312 87.375C532.949 87.2142 532.513 87.1338 532.005 87.1338C531.302 87.1338 530.663 87.2904 530.088 87.6035C529.512 87.9167 528.983 88.3229 528.501 88.8223L527.282 87.3623C527.909 86.7021 528.628 86.1732 529.44 85.7754C530.261 85.3776 531.214 85.1787 532.297 85.1787C533.033 85.1787 533.702 85.2887 534.303 85.5088C534.912 85.7288 535.437 86.0462 535.877 86.4609C536.317 86.8757 536.656 87.3835 536.893 87.9844C537.138 88.5853 537.261 89.2624 537.261 90.0156C537.261 90.6504 537.176 91.2386 537.007 91.7803C536.838 92.3219 536.579 92.8636 536.232 93.4053C535.894 93.9385 535.462 94.4928 534.938 95.0684C534.421 95.6439 533.808 96.2744 533.097 96.96L530.088 99.8926H538.149V102Z" fill="black"/>
<path d="M608 95C608.552 95 609 94.5523 609 94C609 93.4477 608.552 93 608 93L608 95ZM548.293 93.2928C547.902 93.6833 547.902 94.3165 548.293 94.707L554.657 101.071C555.047 101.462 555.681 101.462 556.071 101.071C556.462 100.68 556.462 100.047 556.071 99.6568L550.414 93.9999L556.071 88.3431C556.462 87.9526 556.462 87.3194 556.071 86.9289C555.681 86.5383 555.047 86.5383 554.657 86.9289L548.293 93.2928ZM608 93L549 92.9999L549 94.9999L608 95L608 93Z" fill="#00B2FF"/>
<path d="M436.409 98.8496C435.987 98.957 435.55 99.0322 435.099 99.0752C434.647 99.1253 434.189 99.1504 433.724 99.1504C432.37 99.1504 431.36 98.846 430.694 98.2373C430.028 97.6214 429.695 96.6797 429.695 95.4121V89.7832H426.677V88.2148H429.695V85.25L431.564 84.7666V88.2148H436.409V89.7832H431.564V95.2617C431.564 96.0352 431.769 96.6152 432.177 97.002C432.592 97.3815 433.201 97.5713 434.003 97.5713C434.347 97.5713 434.723 97.5462 435.131 97.4961C435.539 97.4388 435.965 97.3529 436.409 97.2383V98.8496ZM449.203 93.5215C449.203 94.3594 449.085 95.1292 448.849 95.8311C448.612 96.5257 448.272 97.1237 447.828 97.625C447.384 98.1191 446.843 98.5059 446.206 98.7852C445.569 99.0573 444.845 99.1934 444.036 99.1934C443.263 99.1934 442.568 99.0752 441.952 98.8389C441.343 98.5954 440.824 98.2409 440.395 97.7754C439.972 97.3099 439.646 96.7334 439.417 96.0459C439.195 95.3584 439.084 94.5671 439.084 93.6719C439.084 92.834 439.202 92.0713 439.438 91.3838C439.675 90.6891 440.015 90.0947 440.459 89.6006C440.903 89.0993 441.444 88.7126 442.081 88.4404C442.718 88.1611 443.442 88.0215 444.251 88.0215C445.024 88.0215 445.715 88.1432 446.324 88.3867C446.94 88.623 447.459 88.974 447.882 89.4395C448.312 89.8978 448.637 90.4707 448.859 91.1582C449.089 91.8457 449.203 92.6335 449.203 93.5215ZM447.291 93.6074C447.291 92.9414 447.216 92.3613 447.065 91.8672C446.922 91.3659 446.715 90.9505 446.442 90.6211C446.17 90.2845 445.837 90.0339 445.443 89.8691C445.057 89.6973 444.623 89.6113 444.144 89.6113C443.585 89.6113 443.105 89.7223 442.704 89.9443C442.31 90.1592 441.984 90.4492 441.727 90.8145C441.476 91.1797 441.29 91.6058 441.168 92.0928C441.053 92.5726 440.996 93.0775 440.996 93.6074C440.996 94.2734 441.068 94.8571 441.211 95.3584C441.361 95.8597 441.573 96.2786 441.845 96.6152C442.117 96.9447 442.446 97.1953 442.833 97.3672C443.22 97.5319 443.657 97.6143 444.144 97.6143C444.702 97.6143 445.178 97.5068 445.572 97.292C445.973 97.07 446.299 96.7764 446.55 96.4111C446.808 96.0459 446.994 95.6234 447.108 95.1436C447.23 94.6566 447.291 94.1445 447.291 93.6074ZM461.127 93.4141C461.127 94.3737 460.991 95.2116 460.719 95.9277C460.454 96.6439 460.085 97.2383 459.612 97.7109C459.14 98.1836 458.581 98.5381 457.937 98.7744C457.292 99.0107 456.594 99.1289 455.842 99.1289C455.498 99.1289 455.154 99.111 454.811 99.0752C454.474 99.0394 454.13 98.9785 453.779 98.8926V103.404H451.91V88.2148H453.575L453.693 90.0195C454.23 89.2819 454.803 88.7663 455.412 88.4727C456.021 88.1719 456.68 88.0215 457.389 88.0215C458.005 88.0215 458.545 88.1504 459.011 88.4082C459.476 88.666 459.867 89.0312 460.182 89.5039C460.497 89.9694 460.733 90.5352 460.891 91.2012C461.048 91.86 461.127 92.5977 461.127 93.4141ZM459.215 93.5C459.215 92.9342 459.172 92.415 459.086 91.9424C459.007 91.4697 458.878 91.0651 458.699 90.7285C458.52 90.3919 458.291 90.1305 458.012 89.9443C457.732 89.751 457.399 89.6543 457.013 89.6543C456.776 89.6543 456.536 89.6937 456.293 89.7725C456.049 89.8441 455.795 89.9694 455.53 90.1484C455.272 90.3203 454.997 90.5531 454.703 90.8467C454.417 91.1331 454.109 91.4912 453.779 91.9209V97.1523C454.123 97.2956 454.485 97.4102 454.864 97.4961C455.244 97.5749 455.616 97.6143 455.981 97.6143C456.991 97.6143 457.783 97.2741 458.355 96.5938C458.928 95.9062 459.215 94.875 459.215 93.5ZM468.335 88.0215C468.557 88.0215 468.768 88.068 468.969 88.1611C469.169 88.2471 469.345 88.3652 469.495 88.5156C469.646 88.666 469.764 88.8415 469.85 89.042C469.943 89.2425 469.989 89.4538 469.989 89.6758C469.989 89.9049 469.943 90.1198 469.85 90.3203C469.764 90.5137 469.646 90.6855 469.495 90.8359C469.345 90.9863 469.169 91.1045 468.969 91.1904C468.768 91.2764 468.557 91.3193 468.335 91.3193C468.106 91.3193 467.891 91.2764 467.69 91.1904C467.497 91.1045 467.325 90.9863 467.175 90.8359C467.024 90.6855 466.906 90.5137 466.82 90.3203C466.734 90.1198 466.691 89.9049 466.691 89.6758C466.691 89.4538 466.734 89.2425 466.82 89.042C466.906 88.8415 467.024 88.666 467.175 88.5156C467.325 88.3652 467.497 88.2471 467.69 88.1611C467.891 88.068 468.106 88.0215 468.335 88.0215ZM468.335 95.8955C468.557 95.8955 468.768 95.9421 468.969 96.0352C469.169 96.1211 469.345 96.2393 469.495 96.3896C469.646 96.54 469.764 96.7155 469.85 96.916C469.943 97.1165 469.989 97.3278 469.989 97.5498C469.989 97.779 469.943 97.9938 469.85 98.1943C469.764 98.3877 469.646 98.5596 469.495 98.71C469.345 98.8604 469.169 98.9785 468.969 99.0645C468.768 99.1504 468.557 99.1934 468.335 99.1934C468.106 99.1934 467.891 99.1504 467.69 99.0645C467.497 98.9785 467.325 98.8604 467.175 98.71C467.024 98.5596 466.906 98.3877 466.82 98.1943C466.734 97.9938 466.691 97.779 466.691 97.5498C466.691 97.3278 466.734 97.1165 466.82 96.916C466.906 96.7155 467.024 96.54 467.175 96.3896C467.325 96.2393 467.497 96.1211 467.69 96.0352C467.891 95.9421 468.106 95.8955 468.335 95.8955Z" fill="#666666"/>
<path d="M438.797 12.9541C438.797 13.2673 438.793 13.5296 438.784 13.7412C438.776 13.9528 438.763 14.1517 438.746 14.3379H429.796C429.796 15.6413 430.16 16.6442 430.888 17.3467C431.616 18.0407 432.665 18.3877 434.036 18.3877C434.409 18.3877 434.781 18.375 435.153 18.3496C435.526 18.3158 435.885 18.2734 436.232 18.2227C436.579 18.1719 436.91 18.1169 437.223 18.0576C437.544 17.9899 437.84 17.918 438.111 17.8418V19.6572C437.51 19.8265 436.829 19.9619 436.067 20.0635C435.314 20.1735 434.531 20.2285 433.719 20.2285C432.627 20.2285 431.688 20.0804 430.9 19.7842C430.113 19.488 429.466 19.0605 428.958 18.502C428.459 17.9349 428.086 17.2451 427.841 16.4326C427.604 15.6117 427.485 14.6849 427.485 13.6523C427.485 12.7552 427.612 11.9089 427.866 11.1133C428.129 10.3092 428.505 9.60677 428.996 9.00586C429.495 8.39648 430.105 7.91406 430.824 7.55859C431.544 7.20312 432.36 7.02539 433.274 7.02539C434.163 7.02539 434.95 7.16504 435.636 7.44434C436.321 7.72363 436.897 8.12142 437.362 8.6377C437.836 9.14551 438.192 9.76758 438.429 10.5039C438.674 11.2318 438.797 12.0485 438.797 12.9541ZM436.499 12.6367C436.524 12.0697 436.469 11.5534 436.334 11.0879C436.199 10.6139 435.987 10.2077 435.699 9.86914C435.42 9.5306 435.069 9.26823 434.646 9.08203C434.222 8.88737 433.731 8.79004 433.173 8.79004C432.69 8.79004 432.25 8.88314 431.853 9.06934C431.455 9.25553 431.112 9.5179 430.824 9.85645C430.536 10.195 430.304 10.6012 430.126 11.0752C429.948 11.5492 429.838 12.0697 429.796 12.6367H436.499ZM442.326 7.25391H444.294L444.383 9.31055C444.755 8.87044 445.115 8.50651 445.462 8.21875C445.809 7.92253 446.147 7.68555 446.478 7.50781C446.816 7.33008 447.159 7.20736 447.506 7.13965C447.853 7.06348 448.213 7.02539 448.585 7.02539C449.897 7.02539 450.887 7.41471 451.556 8.19336C452.233 8.96354 452.571 10.1273 452.571 11.6846V20H450.362V11.8623C450.362 10.8636 450.176 10.1273 449.804 9.65332C449.431 9.1709 448.877 8.92969 448.141 8.92969C447.87 8.92969 447.603 8.97201 447.341 9.05664C447.087 9.13281 446.82 9.27246 446.541 9.47559C446.262 9.67025 445.957 9.93685 445.627 10.2754C445.305 10.6139 444.941 11.0371 444.535 11.5449V20H442.326V7.25391ZM455.974 13.8936C455.974 12.9795 456.092 12.112 456.329 11.291C456.575 10.4701 456.947 9.75065 457.446 9.13281C457.954 8.50651 458.602 8.01139 459.389 7.64746C460.176 7.28353 461.115 7.10156 462.207 7.10156C462.639 7.10156 463.066 7.13542 463.489 7.20312C463.912 7.27083 464.361 7.37663 464.835 7.52051L466.79 7.02539V25.2051H464.568V20.3936L464.683 17.6641C463.481 19.3737 462.05 20.2285 460.392 20.2285C459.647 20.2285 458.999 20.0762 458.449 19.7715C457.899 19.4668 457.438 19.0352 457.065 18.4766C456.701 17.918 456.426 17.2493 456.24 16.4707C456.062 15.6921 455.974 14.833 455.974 13.8936ZM458.233 13.7539C458.233 14.4648 458.284 15.1038 458.386 15.6709C458.496 16.238 458.657 16.7204 458.868 17.1182C459.088 17.5075 459.359 17.8079 459.681 18.0195C460.011 18.2311 460.396 18.3369 460.836 18.3369C461.395 18.3369 461.983 18.0872 462.601 17.5879C463.227 17.0885 463.883 16.348 464.568 15.3662V9.4502C464.23 9.28939 463.845 9.1582 463.413 9.05664C462.99 8.95508 462.537 8.9043 462.055 8.9043C460.811 8.9043 459.863 9.31478 459.211 10.1357C458.559 10.9567 458.233 12.1628 458.233 13.7539ZM481.161 20H479.181L479.104 17.9434C478.724 18.3835 478.36 18.7516 478.013 19.0479C477.674 19.3356 477.336 19.5684 476.997 19.7461C476.659 19.9238 476.316 20.0465 475.969 20.1143C475.63 20.1904 475.271 20.2285 474.89 20.2285C473.578 20.2285 472.588 19.8434 471.919 19.0732C471.25 18.3031 470.916 17.1393 470.916 15.582V7.25391H473.125V15.4043C473.125 17.3594 473.861 18.3369 475.334 18.3369C475.605 18.3369 475.867 18.2988 476.121 18.2227C476.383 18.138 476.654 17.9984 476.934 17.8037C477.221 17.6006 477.526 17.3298 477.848 16.9912C478.178 16.6527 478.546 16.2253 478.952 15.709V7.25391H481.161V20ZM495.977 12.9541C495.977 13.2673 495.972 13.5296 495.964 13.7412C495.955 13.9528 495.943 14.1517 495.926 14.3379H486.976C486.976 15.6413 487.34 16.6442 488.067 17.3467C488.795 18.0407 489.845 18.3877 491.216 18.3877C491.588 18.3877 491.961 18.375 492.333 18.3496C492.705 18.3158 493.065 18.2734 493.412 18.2227C493.759 18.1719 494.089 18.1169 494.402 18.0576C494.724 17.9899 495.02 17.918 495.291 17.8418V19.6572C494.69 19.8265 494.009 19.9619 493.247 20.0635C492.494 20.1735 491.711 20.2285 490.898 20.2285C489.807 20.2285 488.867 20.0804 488.08 19.7842C487.293 19.488 486.646 19.0605 486.138 18.502C485.638 17.9349 485.266 17.2451 485.021 16.4326C484.784 15.6117 484.665 14.6849 484.665 13.6523C484.665 12.7552 484.792 11.9089 485.046 11.1133C485.308 10.3092 485.685 9.60677 486.176 9.00586C486.675 8.39648 487.285 7.91406 488.004 7.55859C488.723 7.20312 489.54 7.02539 490.454 7.02539C491.343 7.02539 492.13 7.16504 492.815 7.44434C493.501 7.72363 494.076 8.12142 494.542 8.6377C495.016 9.14551 495.371 9.76758 495.608 10.5039C495.854 11.2318 495.977 12.0485 495.977 12.9541ZM493.679 12.6367C493.704 12.0697 493.649 11.5534 493.514 11.0879C493.378 10.6139 493.167 10.2077 492.879 9.86914C492.6 9.5306 492.248 9.26823 491.825 9.08203C491.402 8.88737 490.911 8.79004 490.353 8.79004C489.87 8.79004 489.43 8.88314 489.032 9.06934C488.634 9.25553 488.292 9.5179 488.004 9.85645C487.716 10.195 487.483 10.6012 487.306 11.0752C487.128 11.5492 487.018 12.0697 486.976 12.6367H493.679ZM509.751 20H507.771L507.694 17.9434C507.313 18.3835 506.95 18.7516 506.603 19.0479C506.264 19.3356 505.925 19.5684 505.587 19.7461C505.248 19.9238 504.906 20.0465 504.559 20.1143C504.22 20.1904 503.86 20.2285 503.479 20.2285C502.168 20.2285 501.177 19.8434 500.509 19.0732C499.84 18.3031 499.506 17.1393 499.506 15.582V7.25391H501.715V15.4043C501.715 17.3594 502.451 18.3369 503.924 18.3369C504.195 18.3369 504.457 18.2988 504.711 18.2227C504.973 18.138 505.244 17.9984 505.523 17.8037C505.811 17.6006 506.116 17.3298 506.438 16.9912C506.768 16.6527 507.136 16.2253 507.542 15.709V7.25391H509.751V20ZM524.566 12.9541C524.566 13.2673 524.562 13.5296 524.554 13.7412C524.545 13.9528 524.533 14.1517 524.516 14.3379H515.565C515.565 15.6413 515.929 16.6442 516.657 17.3467C517.385 18.0407 518.435 18.3877 519.806 18.3877C520.178 18.3877 520.55 18.375 520.923 18.3496C521.295 18.3158 521.655 18.2734 522.002 18.2227C522.349 18.1719 522.679 18.1169 522.992 18.0576C523.314 17.9899 523.61 17.918 523.881 17.8418V19.6572C523.28 19.8265 522.599 19.9619 521.837 20.0635C521.084 20.1735 520.301 20.2285 519.488 20.2285C518.396 20.2285 517.457 20.0804 516.67 19.7842C515.883 19.488 515.235 19.0605 514.728 18.502C514.228 17.9349 513.856 17.2451 513.61 16.4326C513.373 15.6117 513.255 14.6849 513.255 13.6523C513.255 12.7552 513.382 11.9089 513.636 11.1133C513.898 10.3092 514.275 9.60677 514.766 9.00586C515.265 8.39648 515.874 7.91406 516.594 7.55859C517.313 7.20312 518.13 7.02539 519.044 7.02539C519.933 7.02539 520.72 7.16504 521.405 7.44434C522.091 7.72363 522.666 8.12142 523.132 8.6377C523.606 9.14551 523.961 9.76758 524.198 10.5039C524.444 11.2318 524.566 12.0485 524.566 12.9541ZM522.269 12.6367C522.294 12.0697 522.239 11.5534 522.104 11.0879C521.968 10.6139 521.757 10.2077 521.469 9.86914C521.189 9.5306 520.838 9.26823 520.415 9.08203C519.992 8.88737 519.501 8.79004 518.942 8.79004C518.46 8.79004 518.02 8.88314 517.622 9.06934C517.224 9.25553 516.882 9.5179 516.594 9.85645C516.306 10.195 516.073 10.6012 515.896 11.0752C515.718 11.5492 515.608 12.0697 515.565 12.6367H522.269ZM535.726 25.332C531.824 21.7181 529.873 17.7233 529.873 13.3477C529.873 12.3236 529.975 11.3037 530.178 10.2881C530.389 9.264 530.724 8.23991 531.181 7.21582C531.646 6.19173 532.256 5.16764 533.009 4.14355C533.771 3.11947 534.693 2.10384 535.776 1.09668L537.059 2.4043C533.775 5.64583 532.133 9.23861 532.133 13.1826C532.133 15.1462 532.548 17.0335 533.377 18.8447C534.206 20.6559 535.434 22.3656 537.059 23.9736L535.726 25.332ZM553.156 20H542.226V18.0195L546.517 13.7539C547.219 13.0599 547.79 12.459 548.23 11.9512C548.671 11.4434 549.013 10.9821 549.259 10.5674C549.504 10.1442 549.669 9.74642 549.754 9.37402C549.839 9.00163 549.881 8.59961 549.881 8.16797C549.881 7.76172 549.826 7.37663 549.716 7.0127C549.606 6.6403 549.437 6.31445 549.208 6.03516C548.979 5.75586 548.683 5.53581 548.319 5.375C547.955 5.21419 547.52 5.13379 547.012 5.13379C546.309 5.13379 545.67 5.29036 545.095 5.60352C544.519 5.91667 543.99 6.32292 543.508 6.82227L542.289 5.3623C542.915 4.70215 543.635 4.17318 544.447 3.77539C545.268 3.3776 546.22 3.17871 547.304 3.17871C548.04 3.17871 548.709 3.28874 549.31 3.50879C549.919 3.72884 550.444 4.04622 550.884 4.46094C551.324 4.87565 551.662 5.38346 551.899 5.98438C552.145 6.58529 552.268 7.26237 552.268 8.01562C552.268 8.65039 552.183 9.23861 552.014 9.78027C551.844 10.3219 551.586 10.8636 551.239 11.4053C550.901 11.9385 550.469 12.4928 549.944 13.0684C549.428 13.6439 548.814 14.2744 548.104 14.96L545.095 17.8926H553.156V20ZM559.288 1.09668C563.19 4.71061 565.141 8.73079 565.141 13.1572C565.141 14.0713 565.048 15.0192 564.861 16.001C564.675 16.9827 564.358 17.9899 563.909 19.0225C563.461 20.0465 562.855 21.0876 562.094 22.1455C561.34 23.2035 560.388 24.2656 559.237 25.332L557.955 24.0244C559.605 22.391 560.837 20.6855 561.649 18.9082C562.462 17.1309 562.868 15.2689 562.868 13.3223C562.868 9.29362 561.23 5.67122 557.955 2.45508L559.288 1.09668ZM576.097 7.02539C576.359 7.02539 576.609 7.0804 576.846 7.19043C577.083 7.29199 577.29 7.43164 577.468 7.60938C577.646 7.78711 577.785 7.99447 577.887 8.23145C577.997 8.46842 578.052 8.7181 578.052 8.98047C578.052 9.2513 577.997 9.50521 577.887 9.74219C577.785 9.9707 577.646 10.1738 577.468 10.3516C577.29 10.5293 577.083 10.6689 576.846 10.7705C576.609 10.8721 576.359 10.9229 576.097 10.9229C575.826 10.9229 575.572 10.8721 575.335 10.7705C575.106 10.6689 574.903 10.5293 574.726 10.3516C574.548 10.1738 574.408 9.9707 574.307 9.74219C574.205 9.50521 574.154 9.2513 574.154 8.98047C574.154 8.7181 574.205 8.46842 574.307 8.23145C574.408 7.99447 574.548 7.78711 574.726 7.60938C574.903 7.43164 575.106 7.29199 575.335 7.19043C575.572 7.0804 575.826 7.02539 576.097 7.02539ZM576.097 16.3311C576.359 16.3311 576.609 16.3861 576.846 16.4961C577.083 16.5977 577.29 16.7373 577.468 16.915C577.646 17.0928 577.785 17.3001 577.887 17.5371C577.997 17.7741 578.052 18.0238 578.052 18.2861C578.052 18.557 577.997 18.8109 577.887 19.0479C577.785 19.2764 577.646 19.4795 577.468 19.6572C577.29 19.835 577.083 19.9746 576.846 20.0762C576.609 20.1777 576.359 20.2285 576.097 20.2285C575.826 20.2285 575.572 20.1777 575.335 20.0762C575.106 19.9746 574.903 19.835 574.726 19.6572C574.548 19.4795 574.408 19.2764 574.307 19.0479C574.205 18.8109 574.154 18.557 574.154 18.2861C574.154 18.0238 574.205 17.7741 574.307 17.5371C574.408 17.3001 574.548 17.0928 574.726 16.915C574.903 16.7373 575.106 16.5977 575.335 16.4961C575.572 16.3861 575.826 16.3311 576.097 16.3311Z" fill="black"/>
<path d="M627.924 94.3984C627.924 95.5326 627.763 96.5228 627.441 97.3691C627.128 98.2155 626.692 98.918 626.134 99.4766C625.575 100.035 624.915 100.454 624.153 100.733C623.392 101.013 622.566 101.152 621.678 101.152C621.271 101.152 620.865 101.131 620.459 101.089C620.061 101.047 619.655 100.975 619.24 100.873V106.205H617.031V88.2539H618.999L619.139 90.3867C619.773 89.515 620.451 88.9056 621.17 88.5586C621.889 88.2031 622.668 88.0254 623.506 88.0254C624.234 88.0254 624.873 88.1777 625.423 88.4824C625.973 88.7871 626.434 89.2188 626.807 89.7773C627.179 90.3275 627.458 90.9961 627.645 91.7832C627.831 92.5618 627.924 93.4336 627.924 94.3984ZM625.664 94.5C625.664 93.8314 625.613 93.2178 625.512 92.6592C625.419 92.1006 625.266 91.6224 625.055 91.2246C624.843 90.8268 624.572 90.5179 624.242 90.2979C623.912 90.0693 623.519 89.9551 623.062 89.9551C622.782 89.9551 622.499 90.0016 622.211 90.0947C621.923 90.1794 621.623 90.3275 621.31 90.5391C621.005 90.7422 620.679 91.0173 620.332 91.3643C619.993 91.7028 619.63 92.126 619.24 92.6338V98.8164C619.646 98.9857 620.074 99.1211 620.522 99.2227C620.971 99.3158 621.411 99.3623 621.843 99.3623C623.036 99.3623 623.971 98.9603 624.648 98.1562C625.326 97.3438 625.664 96.125 625.664 94.5ZM641.571 101H639.591L639.515 98.9434C639.134 99.3835 638.77 99.7516 638.423 100.048C638.084 100.336 637.746 100.568 637.407 100.746C637.069 100.924 636.726 101.047 636.379 101.114C636.04 101.19 635.681 101.229 635.3 101.229C633.988 101.229 632.998 100.843 632.329 100.073C631.66 99.3031 631.326 98.1393 631.326 96.582V88.2539H633.535V96.4043C633.535 98.3594 634.271 99.3369 635.744 99.3369C636.015 99.3369 636.277 99.2988 636.531 99.2227C636.794 99.138 637.064 98.9984 637.344 98.8037C637.632 98.6006 637.936 98.3298 638.258 97.9912C638.588 97.6527 638.956 97.2253 639.362 96.709V88.2539H641.571V101ZM655.714 97.5215C655.714 97.9701 655.638 98.3721 655.485 98.7275C655.333 99.083 655.126 99.4004 654.863 99.6797C654.601 99.9505 654.296 100.183 653.949 100.378C653.602 100.573 653.23 100.733 652.832 100.86C652.443 100.987 652.041 101.08 651.626 101.14C651.211 101.199 650.805 101.229 650.407 101.229C649.544 101.229 648.748 101.19 648.021 101.114C647.301 101.038 646.594 100.915 645.9 100.746V98.7148C646.645 98.9264 647.386 99.0872 648.122 99.1973C648.858 99.3073 649.59 99.3623 650.318 99.3623C651.376 99.3623 652.159 99.2184 652.667 98.9307C653.175 98.6429 653.429 98.2324 653.429 97.6992C653.429 97.4707 653.386 97.2676 653.302 97.0898C653.226 96.9036 653.082 96.7301 652.87 96.5693C652.659 96.4001 652.328 96.2266 651.88 96.0488C651.44 95.8711 650.835 95.668 650.064 95.4395C649.489 95.2702 648.956 95.0798 648.465 94.8682C647.982 94.6481 647.563 94.39 647.208 94.0938C646.853 93.7975 646.573 93.4505 646.37 93.0527C646.167 92.6549 646.065 92.1852 646.065 91.6436C646.065 91.2881 646.146 90.8988 646.307 90.4756C646.476 90.0524 646.759 89.6589 647.157 89.2949C647.555 88.931 648.092 88.6305 648.77 88.3936C649.447 88.1481 650.293 88.0254 651.309 88.0254C651.808 88.0254 652.362 88.055 652.972 88.1143C653.581 88.165 654.216 88.2581 654.876 88.3936V90.3613C654.182 90.1921 653.522 90.0693 652.896 89.9932C652.278 89.9085 651.74 89.8662 651.283 89.8662C650.733 89.8662 650.268 89.9085 649.887 89.9932C649.514 90.0778 649.21 90.1963 648.973 90.3486C648.744 90.4925 648.579 90.666 648.478 90.8691C648.376 91.0638 648.325 91.2754 648.325 91.5039C648.325 91.7324 648.368 91.9398 648.452 92.126C648.545 92.3122 648.71 92.4941 648.947 92.6719C649.193 92.8411 649.531 93.0146 649.963 93.1924C650.395 93.3617 650.957 93.5479 651.651 93.751C652.405 93.971 653.039 94.2038 653.556 94.4492C654.072 94.6862 654.491 94.9528 654.812 95.249C655.134 95.5452 655.363 95.8796 655.498 96.252C655.642 96.6243 655.714 97.0475 655.714 97.5215ZM670.161 101H667.952V92.8623C667.952 91.8805 667.766 91.1484 667.394 90.666C667.03 90.1751 666.505 89.9297 665.819 89.9297C665.523 89.9297 665.244 89.972 664.981 90.0566C664.728 90.1328 664.461 90.2725 664.182 90.4756C663.902 90.6702 663.598 90.9368 663.268 91.2754C662.938 91.6139 662.557 92.0371 662.125 92.5449V101H659.916V83.0615H662.125V88.2539L662.049 90.2598C662.396 89.8451 662.734 89.498 663.064 89.2188C663.403 88.931 663.737 88.6982 664.067 88.5205C664.406 88.3428 664.749 88.2158 665.096 88.1396C665.443 88.0635 665.802 88.0254 666.175 88.0254C667.444 88.0254 668.426 88.4147 669.12 89.1934C669.814 89.9635 670.161 91.1273 670.161 92.6846V101ZM681.841 106.332C677.939 102.718 675.988 98.7233 675.988 94.3477C675.988 93.3236 676.09 92.3037 676.293 91.2881C676.505 90.264 676.839 89.2399 677.296 88.2158C677.761 87.1917 678.371 86.1676 679.124 85.1436C679.886 84.1195 680.808 83.1038 681.892 82.0967L683.174 83.4043C679.89 86.6458 678.248 90.2386 678.248 94.1826C678.248 96.1462 678.663 98.0335 679.492 99.8447C680.322 101.656 681.549 103.366 683.174 104.974L681.841 106.332ZM699.271 101H688.341V99.0195L692.632 94.7539C693.334 94.0599 693.906 93.459 694.346 92.9512C694.786 92.4434 695.129 91.9821 695.374 91.5674C695.619 91.1442 695.785 90.7464 695.869 90.374C695.954 90.0016 695.996 89.5996 695.996 89.168C695.996 88.7617 695.941 88.3766 695.831 88.0127C695.721 87.6403 695.552 87.3145 695.323 87.0352C695.095 86.7559 694.799 86.5358 694.435 86.375C694.071 86.2142 693.635 86.1338 693.127 86.1338C692.424 86.1338 691.785 86.2904 691.21 86.6035C690.634 86.9167 690.105 87.3229 689.623 87.8223L688.404 86.3623C689.031 85.7021 689.75 85.1732 690.562 84.7754C691.383 84.3776 692.336 84.1787 693.419 84.1787C694.155 84.1787 694.824 84.2887 695.425 84.5088C696.034 84.7288 696.559 85.0462 696.999 85.4609C697.439 85.8757 697.778 86.3835 698.015 86.9844C698.26 87.5853 698.383 88.2624 698.383 89.0156C698.383 89.6504 698.298 90.2386 698.129 90.7803C697.96 91.3219 697.701 91.8636 697.354 92.4053C697.016 92.9385 696.584 93.4928 696.06 94.0684C695.543 94.6439 694.93 95.2744 694.219 95.96L691.21 98.8926H699.271V101ZM705.403 82.0967C709.305 85.7106 711.256 89.7308 711.256 94.1572C711.256 95.0713 711.163 96.0192 710.977 97.001C710.79 97.9827 710.473 98.9899 710.024 100.022C709.576 101.047 708.971 102.088 708.209 103.146C707.456 104.203 706.504 105.266 705.353 106.332L704.07 105.024C705.721 103.391 706.952 101.686 707.765 99.9082C708.577 98.1309 708.983 96.2689 708.983 94.3223C708.983 90.2936 707.346 86.6712 704.07 83.4551L705.403 82.0967Z" fill="#00B2FF"/>
<path d="M824 31L824 144C824 155.046 832.954 164 844 164H913C924.046 164 933 155.046 933 144V31" stroke="black" stroke-width="2" stroke-linecap="round"/>
<path d="M854.387 185.521C854.387 185.97 854.311 186.372 854.158 186.728C854.006 187.083 853.799 187.4 853.536 187.68C853.274 187.951 852.969 188.183 852.622 188.378C852.275 188.573 851.903 188.733 851.505 188.86C851.116 188.987 850.714 189.08 850.299 189.14C849.884 189.199 849.478 189.229 849.08 189.229C848.217 189.229 847.421 189.19 846.693 189.114C845.974 189.038 845.267 188.915 844.573 188.746V186.715C845.318 186.926 846.059 187.087 846.795 187.197C847.531 187.307 848.263 187.362 848.991 187.362C850.049 187.362 850.832 187.218 851.34 186.931C851.848 186.643 852.102 186.232 852.102 185.699C852.102 185.471 852.059 185.268 851.975 185.09C851.898 184.904 851.755 184.73 851.543 184.569C851.331 184.4 851.001 184.227 850.553 184.049C850.113 183.871 849.507 183.668 848.737 183.439C848.162 183.27 847.629 183.08 847.138 182.868C846.655 182.648 846.236 182.39 845.881 182.094C845.525 181.798 845.246 181.451 845.043 181.053C844.84 180.655 844.738 180.185 844.738 179.644C844.738 179.288 844.819 178.899 844.979 178.476C845.149 178.052 845.432 177.659 845.83 177.295C846.228 176.931 846.765 176.631 847.442 176.394C848.119 176.148 848.966 176.025 849.981 176.025C850.481 176.025 851.035 176.055 851.645 176.114C852.254 176.165 852.889 176.258 853.549 176.394V178.361C852.855 178.192 852.195 178.069 851.568 177.993C850.951 177.909 850.413 177.866 849.956 177.866C849.406 177.866 848.94 177.909 848.56 177.993C848.187 178.078 847.882 178.196 847.646 178.349C847.417 178.493 847.252 178.666 847.15 178.869C847.049 179.064 846.998 179.275 846.998 179.504C846.998 179.732 847.04 179.94 847.125 180.126C847.218 180.312 847.383 180.494 847.62 180.672C847.866 180.841 848.204 181.015 848.636 181.192C849.067 181.362 849.63 181.548 850.324 181.751C851.077 181.971 851.712 182.204 852.229 182.449C852.745 182.686 853.164 182.953 853.485 183.249C853.807 183.545 854.035 183.88 854.171 184.252C854.315 184.624 854.387 185.048 854.387 185.521ZM868.859 188.822C868.36 188.949 867.844 189.038 867.311 189.089C866.777 189.148 866.236 189.178 865.686 189.178C864.086 189.178 862.893 188.818 862.105 188.099C861.318 187.371 860.925 186.258 860.925 184.76V178.107H857.357V176.254H860.925V172.75L863.134 172.179V176.254H868.859V178.107H863.134V184.582C863.134 185.496 863.375 186.182 863.857 186.639C864.348 187.087 865.068 187.312 866.016 187.312C866.422 187.312 866.866 187.282 867.349 187.223C867.831 187.155 868.335 187.053 868.859 186.918V188.822ZM881.072 189L881.021 187.286C880.327 187.972 879.621 188.467 878.901 188.771C878.19 189.076 877.441 189.229 876.654 189.229C875.926 189.229 875.304 189.135 874.788 188.949C874.272 188.763 873.844 188.509 873.506 188.188C873.176 187.857 872.93 187.472 872.77 187.032C872.617 186.592 872.541 186.114 872.541 185.598C872.541 184.32 873.015 183.321 873.963 182.602C874.919 181.874 876.328 181.51 878.19 181.51H880.831V180.393C880.831 179.639 880.59 179.038 880.107 178.59C879.625 178.133 878.889 177.904 877.898 177.904C877.179 177.904 876.468 177.985 875.766 178.146C875.072 178.306 874.352 178.535 873.607 178.831V176.838C873.887 176.736 874.196 176.639 874.534 176.546C874.881 176.444 875.245 176.355 875.626 176.279C876.007 176.203 876.405 176.144 876.819 176.102C877.234 176.051 877.653 176.025 878.076 176.025C878.846 176.025 879.54 176.11 880.158 176.279C880.776 176.449 881.297 176.707 881.72 177.054C882.151 177.401 882.481 177.837 882.71 178.361C882.938 178.886 883.053 179.504 883.053 180.215V189H881.072ZM880.831 183.198H878.025C877.475 183.198 877.001 183.253 876.604 183.363C876.206 183.473 875.88 183.63 875.626 183.833C875.372 184.036 875.182 184.282 875.055 184.569C874.936 184.849 874.877 185.166 874.877 185.521C874.877 185.767 874.915 186.004 874.991 186.232C875.067 186.452 875.19 186.651 875.359 186.829C875.529 186.998 875.749 187.134 876.02 187.235C876.29 187.337 876.62 187.388 877.01 187.388C877.518 187.388 878.097 187.235 878.749 186.931C879.409 186.618 880.103 186.127 880.831 185.458V183.198ZM897.081 188.53C896.506 188.75 895.913 188.911 895.304 189.013C894.703 189.123 894.081 189.178 893.438 189.178C891.423 189.178 889.87 188.632 888.778 187.54C887.695 186.448 887.153 184.853 887.153 182.754C887.153 181.747 887.31 180.833 887.623 180.012C887.936 179.191 888.376 178.488 888.943 177.904C889.51 177.32 890.188 176.872 890.975 176.559C891.762 176.237 892.629 176.076 893.577 176.076C894.237 176.076 894.855 176.123 895.431 176.216C896.006 176.309 896.556 176.461 897.081 176.673V178.78C896.531 178.493 895.968 178.285 895.393 178.158C894.826 178.023 894.237 177.955 893.628 177.955C893.061 177.955 892.523 178.065 892.016 178.285C891.516 178.497 891.076 178.806 890.695 179.212C890.314 179.618 890.014 180.113 889.794 180.697C889.574 181.281 889.464 181.941 889.464 182.678C889.464 184.218 889.836 185.373 890.581 186.144C891.334 186.905 892.375 187.286 893.704 187.286C894.305 187.286 894.885 187.218 895.443 187.083C896.01 186.948 896.556 186.744 897.081 186.474V188.53ZM912.938 189H909.903L903.962 182.17V189H901.753V171.062H903.962V182.081L909.688 176.254H912.607L906.628 182.132L912.938 189Z" fill="black"/>
<path d="M884.01 147H873.587V144.943H877.853V132.832L873.879 134.99L873.066 133.111L878.348 130.331H880.303V144.943H884.01V147Z" fill="black"/>
<path d="M884.149 102H873.219V100.02L877.51 95.7539C878.212 95.0599 878.784 94.459 879.224 93.9512C879.664 93.4434 880.007 92.9821 880.252 92.5674C880.497 92.1442 880.662 91.7464 880.747 91.374C880.832 91.0016 880.874 90.5996 880.874 90.168C880.874 89.7617 880.819 89.3766 880.709 89.0127C880.599 88.6403 880.43 88.3145 880.201 88.0352C879.973 87.7559 879.676 87.5358 879.312 87.375C878.949 87.2142 878.513 87.1338 878.005 87.1338C877.302 87.1338 876.663 87.2904 876.088 87.6035C875.512 87.9167 874.983 88.3229 874.501 88.8223L873.282 87.3623C873.909 86.7021 874.628 86.1732 875.44 85.7754C876.261 85.3776 877.214 85.1787 878.297 85.1787C879.033 85.1787 879.702 85.2887 880.303 85.5088C880.912 85.7288 881.437 86.0462 881.877 86.4609C882.317 86.8757 882.656 87.3835 882.893 87.9844C883.138 88.5853 883.261 89.2624 883.261 90.0156C883.261 90.6504 883.176 91.2386 883.007 91.7803C882.838 92.3219 882.579 92.8636 882.232 93.4053C881.894 93.9385 881.462 94.4928 880.938 95.0684C880.421 95.6439 879.808 96.2744 879.097 96.96L876.088 99.8926H884.149V102Z" fill="black"/>
<path d="M883.832 51.96C883.832 52.6878 883.684 53.3734 883.388 54.0166C883.091 54.6514 882.647 55.21 882.055 55.6924C881.462 56.1663 880.717 56.543 879.82 56.8223C878.923 57.0931 877.878 57.2285 876.685 57.2285C876.024 57.2285 875.432 57.2074 874.907 57.165C874.382 57.1227 873.892 57.0677 873.435 57V55.0195C873.959 55.1126 874.514 55.1846 875.098 55.2354C875.682 55.2861 876.278 55.3115 876.888 55.3115C877.717 55.3115 878.424 55.2396 879.008 55.0957C879.6 54.9434 880.083 54.7275 880.455 54.4482C880.827 54.1689 881.098 53.8304 881.268 53.4326C881.437 53.0348 881.521 52.5863 881.521 52.0869C881.521 51.6299 881.42 51.2321 881.217 50.8936C881.014 50.555 880.726 50.2715 880.354 50.043C879.99 49.8145 879.549 49.6452 879.033 49.5352C878.525 49.4167 877.967 49.3574 877.357 49.3574H875.466V47.542H877.383C877.882 47.542 878.335 47.4785 878.741 47.3516C879.156 47.2161 879.507 47.0257 879.795 46.7803C880.091 46.5348 880.315 46.2344 880.468 45.8789C880.629 45.515 880.709 45.1045 880.709 44.6475C880.709 43.7588 880.438 43.1113 879.896 42.7051C879.355 42.2988 878.559 42.0957 877.51 42.0957C876.951 42.0957 876.376 42.1507 875.783 42.2607C875.191 42.3708 874.556 42.5358 873.879 42.7559V40.8262C874.167 40.7246 874.471 40.6357 874.793 40.5596C875.123 40.4749 875.449 40.4072 875.771 40.3564C876.101 40.2972 876.426 40.2549 876.748 40.2295C877.07 40.1956 877.379 40.1787 877.675 40.1787C878.555 40.1787 879.329 40.276 879.998 40.4707C880.667 40.6569 881.225 40.9277 881.674 41.2832C882.122 41.6387 882.461 42.0703 882.689 42.5781C882.918 43.0859 883.032 43.6572 883.032 44.292C883.032 45.2399 882.787 46.0355 882.296 46.6787C881.813 47.3219 881.149 47.834 880.303 48.2148C880.734 48.2826 881.158 48.418 881.572 48.6211C881.995 48.8242 882.372 49.0866 882.702 49.4082C883.041 49.7214 883.312 50.0938 883.515 50.5254C883.726 50.957 883.832 51.4352 883.832 51.96Z" fill="black"/>
<path d="M954 49C954.552 49 955 48.5523 955 48C955 47.4477 954.552 47 954 47L954 49ZM894.293 47.2928C893.902 47.6833 893.902 48.3165 894.293 48.707L900.657 55.071C901.047 55.4615 901.681 55.4615 902.071 55.071C902.462 54.6805 902.462 54.0473 902.071 53.6568L896.414 47.9999L902.071 42.3431C902.462 41.9526 902.462 41.3194 902.071 40.9289C901.681 40.5383 901.047 40.5383 900.657 40.9289L894.293 47.2928ZM954 47L895 46.9999L895 48.9999L954 49L954 47Z" fill="#00B2FF"/>
<path d="M782.409 55.8496C781.987 55.957 781.55 56.0322 781.099 56.0752C780.647 56.1253 780.189 56.1504 779.724 56.1504C778.37 56.1504 777.36 55.846 776.694 55.2373C776.028 54.6214 775.695 53.6797 775.695 52.4121V46.7832H772.677V45.2148H775.695V42.25L777.564 41.7666V45.2148H782.409V46.7832H777.564V52.2617C777.564 53.0352 777.769 53.6152 778.177 54.002C778.592 54.3815 779.201 54.5713 780.003 54.5713C780.347 54.5713 780.723 54.5462 781.131 54.4961C781.539 54.4388 781.965 54.3529 782.409 54.2383V55.8496ZM795.203 50.5215C795.203 51.3594 795.085 52.1292 794.849 52.8311C794.612 53.5257 794.272 54.1237 793.828 54.625C793.384 55.1191 792.843 55.5059 792.206 55.7852C791.569 56.0573 790.845 56.1934 790.036 56.1934C789.263 56.1934 788.568 56.0752 787.952 55.8389C787.343 55.5954 786.824 55.2409 786.395 54.7754C785.972 54.3099 785.646 53.7334 785.417 53.0459C785.195 52.3584 785.084 51.5671 785.084 50.6719C785.084 49.834 785.202 49.0713 785.438 48.3838C785.675 47.6891 786.015 47.0947 786.459 46.6006C786.903 46.0993 787.444 45.7126 788.081 45.4404C788.718 45.1611 789.442 45.0215 790.251 45.0215C791.024 45.0215 791.715 45.1432 792.324 45.3867C792.94 45.623 793.459 45.974 793.882 46.4395C794.312 46.8978 794.637 47.4707 794.859 48.1582C795.089 48.8457 795.203 49.6335 795.203 50.5215ZM793.291 50.6074C793.291 49.9414 793.216 49.3613 793.065 48.8672C792.922 48.3659 792.715 47.9505 792.442 47.6211C792.17 47.2845 791.837 47.0339 791.443 46.8691C791.057 46.6973 790.623 46.6113 790.144 46.6113C789.585 46.6113 789.105 46.7223 788.704 46.9443C788.31 47.1592 787.984 47.4492 787.727 47.8145C787.476 48.1797 787.29 48.6058 787.168 49.0928C787.053 49.5726 786.996 50.0775 786.996 50.6074C786.996 51.2734 787.068 51.8571 787.211 52.3584C787.361 52.8597 787.573 53.2786 787.845 53.6152C788.117 53.9447 788.446 54.1953 788.833 54.3672C789.22 54.5319 789.657 54.6143 790.144 54.6143C790.702 54.6143 791.178 54.5068 791.572 54.292C791.973 54.07 792.299 53.7764 792.55 53.4111C792.808 53.0459 792.994 52.6234 793.108 52.1436C793.23 51.6566 793.291 51.1445 793.291 50.6074ZM807.127 50.4141C807.127 51.3737 806.991 52.2116 806.719 52.9277C806.454 53.6439 806.085 54.2383 805.612 54.7109C805.14 55.1836 804.581 55.5381 803.937 55.7744C803.292 56.0107 802.594 56.1289 801.842 56.1289C801.498 56.1289 801.154 56.111 800.811 56.0752C800.474 56.0394 800.13 55.9785 799.779 55.8926V60.4043H797.91V45.2148H799.575L799.693 47.0195C800.23 46.2819 800.803 45.7663 801.412 45.4727C802.021 45.1719 802.68 45.0215 803.389 45.0215C804.005 45.0215 804.545 45.1504 805.011 45.4082C805.476 45.666 805.867 46.0312 806.182 46.5039C806.497 46.9694 806.733 47.5352 806.891 48.2012C807.048 48.86 807.127 49.5977 807.127 50.4141ZM805.215 50.5C805.215 49.9342 805.172 49.415 805.086 48.9424C805.007 48.4697 804.878 48.0651 804.699 47.7285C804.52 47.3919 804.291 47.1305 804.012 46.9443C803.732 46.751 803.399 46.6543 803.013 46.6543C802.776 46.6543 802.536 46.6937 802.293 46.7725C802.049 46.8441 801.795 46.9694 801.53 47.1484C801.272 47.3203 800.997 47.5531 800.703 47.8467C800.417 48.1331 800.109 48.4912 799.779 48.9209V54.1523C800.123 54.2956 800.485 54.4102 800.864 54.4961C801.244 54.5749 801.616 54.6143 801.981 54.6143C802.991 54.6143 803.783 54.2741 804.355 53.5938C804.928 52.9062 805.215 51.875 805.215 50.5ZM814.335 45.0215C814.557 45.0215 814.768 45.068 814.969 45.1611C815.169 45.2471 815.345 45.3652 815.495 45.5156C815.646 45.666 815.764 45.8415 815.85 46.042C815.943 46.2425 815.989 46.4538 815.989 46.6758C815.989 46.9049 815.943 47.1198 815.85 47.3203C815.764 47.5137 815.646 47.6855 815.495 47.8359C815.345 47.9863 815.169 48.1045 814.969 48.1904C814.768 48.2764 814.557 48.3193 814.335 48.3193C814.106 48.3193 813.891 48.2764 813.69 48.1904C813.497 48.1045 813.325 47.9863 813.175 47.8359C813.024 47.6855 812.906 47.5137 812.82 47.3203C812.734 47.1198 812.691 46.9049 812.691 46.6758C812.691 46.4538 812.734 46.2425 812.82 46.042C812.906 45.8415 813.024 45.666 813.175 45.5156C813.325 45.3652 813.497 45.2471 813.69 45.1611C813.891 45.068 814.106 45.0215 814.335 45.0215ZM814.335 52.8955C814.557 52.8955 814.768 52.9421 814.969 53.0352C815.169 53.1211 815.345 53.2393 815.495 53.3896C815.646 53.54 815.764 53.7155 815.85 53.916C815.943 54.1165 815.989 54.3278 815.989 54.5498C815.989 54.779 815.943 54.9938 815.85 55.1943C815.764 55.3877 815.646 55.5596 815.495 55.71C815.345 55.8604 815.169 55.9785 814.969 56.0645C814.768 56.1504 814.557 56.1934 814.335 56.1934C814.106 56.1934 813.891 56.1504 813.69 56.0645C813.497 55.9785 813.325 55.8604 813.175 55.71C813.024 55.5596 812.906 55.3877 812.82 55.1943C812.734 54.9938 812.691 54.779 812.691 54.5498C812.691 54.3278 812.734 54.1165 812.82 53.916C812.906 53.7155 813.024 53.54 813.175 53.3896C813.325 53.2393 813.497 53.1211 813.69 53.0352C813.891 52.9421 814.106 52.8955 814.335 52.8955Z" fill="#666666"/>
<path d="M784.797 12.9541C784.797 13.2673 784.793 13.5296 784.784 13.7412C784.776 13.9528 784.763 14.1517 784.746 14.3379H775.796C775.796 15.6413 776.16 16.6442 776.888 17.3467C777.616 18.0407 778.665 18.3877 780.036 18.3877C780.409 18.3877 780.781 18.375 781.153 18.3496C781.526 18.3158 781.885 18.2734 782.232 18.2227C782.579 18.1719 782.91 18.1169 783.223 18.0576C783.544 17.9899 783.84 17.918 784.111 17.8418V19.6572C783.51 19.8265 782.829 19.9619 782.067 20.0635C781.314 20.1735 780.531 20.2285 779.719 20.2285C778.627 20.2285 777.688 20.0804 776.9 19.7842C776.113 19.488 775.466 19.0605 774.958 18.502C774.459 17.9349 774.086 17.2451 773.841 16.4326C773.604 15.6117 773.485 14.6849 773.485 13.6523C773.485 12.7552 773.612 11.9089 773.866 11.1133C774.129 10.3092 774.505 9.60677 774.996 9.00586C775.495 8.39648 776.105 7.91406 776.824 7.55859C777.544 7.20312 778.36 7.02539 779.274 7.02539C780.163 7.02539 780.95 7.16504 781.636 7.44434C782.321 7.72363 782.897 8.12142 783.362 8.6377C783.836 9.14551 784.192 9.76758 784.429 10.5039C784.674 11.2318 784.797 12.0485 784.797 12.9541ZM782.499 12.6367C782.524 12.0697 782.469 11.5534 782.334 11.0879C782.199 10.6139 781.987 10.2077 781.699 9.86914C781.42 9.5306 781.069 9.26823 780.646 9.08203C780.222 8.88737 779.731 8.79004 779.173 8.79004C778.69 8.79004 778.25 8.88314 777.853 9.06934C777.455 9.25553 777.112 9.5179 776.824 9.85645C776.536 10.195 776.304 10.6012 776.126 11.0752C775.948 11.5492 775.838 12.0697 775.796 12.6367H782.499ZM788.326 7.25391H790.294L790.383 9.31055C790.755 8.87044 791.115 8.50651 791.462 8.21875C791.809 7.92253 792.147 7.68555 792.478 7.50781C792.816 7.33008 793.159 7.20736 793.506 7.13965C793.853 7.06348 794.213 7.02539 794.585 7.02539C795.897 7.02539 796.887 7.41471 797.556 8.19336C798.233 8.96354 798.571 10.1273 798.571 11.6846V20H796.362V11.8623C796.362 10.8636 796.176 10.1273 795.804 9.65332C795.431 9.1709 794.877 8.92969 794.141 8.92969C793.87 8.92969 793.603 8.97201 793.341 9.05664C793.087 9.13281 792.82 9.27246 792.541 9.47559C792.262 9.67025 791.957 9.93685 791.627 10.2754C791.305 10.6139 790.941 11.0371 790.535 11.5449V20H788.326V7.25391ZM801.974 13.8936C801.974 12.9795 802.092 12.112 802.329 11.291C802.575 10.4701 802.947 9.75065 803.446 9.13281C803.954 8.50651 804.602 8.01139 805.389 7.64746C806.176 7.28353 807.115 7.10156 808.207 7.10156C808.639 7.10156 809.066 7.13542 809.489 7.20312C809.912 7.27083 810.361 7.37663 810.835 7.52051L812.79 7.02539V25.2051H810.568V20.3936L810.683 17.6641C809.481 19.3737 808.05 20.2285 806.392 20.2285C805.647 20.2285 804.999 20.0762 804.449 19.7715C803.899 19.4668 803.438 19.0352 803.065 18.4766C802.701 17.918 802.426 17.2493 802.24 16.4707C802.062 15.6921 801.974 14.833 801.974 13.8936ZM804.233 13.7539C804.233 14.4648 804.284 15.1038 804.386 15.6709C804.496 16.238 804.657 16.7204 804.868 17.1182C805.088 17.5075 805.359 17.8079 805.681 18.0195C806.011 18.2311 806.396 18.3369 806.836 18.3369C807.395 18.3369 807.983 18.0872 808.601 17.5879C809.227 17.0885 809.883 16.348 810.568 15.3662V9.4502C810.23 9.28939 809.845 9.1582 809.413 9.05664C808.99 8.95508 808.537 8.9043 808.055 8.9043C806.811 8.9043 805.863 9.31478 805.211 10.1357C804.559 10.9567 804.233 12.1628 804.233 13.7539ZM827.161 20H825.181L825.104 17.9434C824.724 18.3835 824.36 18.7516 824.013 19.0479C823.674 19.3356 823.336 19.5684 822.997 19.7461C822.659 19.9238 822.316 20.0465 821.969 20.1143C821.63 20.1904 821.271 20.2285 820.89 20.2285C819.578 20.2285 818.588 19.8434 817.919 19.0732C817.25 18.3031 816.916 17.1393 816.916 15.582V7.25391H819.125V15.4043C819.125 17.3594 819.861 18.3369 821.334 18.3369C821.605 18.3369 821.867 18.2988 822.121 18.2227C822.383 18.138 822.654 17.9984 822.934 17.8037C823.221 17.6006 823.526 17.3298 823.848 16.9912C824.178 16.6527 824.546 16.2253 824.952 15.709V7.25391H827.161V20ZM841.977 12.9541C841.977 13.2673 841.972 13.5296 841.964 13.7412C841.955 13.9528 841.943 14.1517 841.926 14.3379H832.976C832.976 15.6413 833.34 16.6442 834.067 17.3467C834.795 18.0407 835.845 18.3877 837.216 18.3877C837.588 18.3877 837.961 18.375 838.333 18.3496C838.705 18.3158 839.065 18.2734 839.412 18.2227C839.759 18.1719 840.089 18.1169 840.402 18.0576C840.724 17.9899 841.02 17.918 841.291 17.8418V19.6572C840.69 19.8265 840.009 19.9619 839.247 20.0635C838.494 20.1735 837.711 20.2285 836.898 20.2285C835.807 20.2285 834.867 20.0804 834.08 19.7842C833.293 19.488 832.646 19.0605 832.138 18.502C831.638 17.9349 831.266 17.2451 831.021 16.4326C830.784 15.6117 830.665 14.6849 830.665 13.6523C830.665 12.7552 830.792 11.9089 831.046 11.1133C831.308 10.3092 831.685 9.60677 832.176 9.00586C832.675 8.39648 833.285 7.91406 834.004 7.55859C834.723 7.20312 835.54 7.02539 836.454 7.02539C837.343 7.02539 838.13 7.16504 838.815 7.44434C839.501 7.72363 840.076 8.12142 840.542 8.6377C841.016 9.14551 841.371 9.76758 841.608 10.5039C841.854 11.2318 841.977 12.0485 841.977 12.9541ZM839.679 12.6367C839.704 12.0697 839.649 11.5534 839.514 11.0879C839.378 10.6139 839.167 10.2077 838.879 9.86914C838.6 9.5306 838.248 9.26823 837.825 9.08203C837.402 8.88737 836.911 8.79004 836.353 8.79004C835.87 8.79004 835.43 8.88314 835.032 9.06934C834.634 9.25553 834.292 9.5179 834.004 9.85645C833.716 10.195 833.483 10.6012 833.306 11.0752C833.128 11.5492 833.018 12.0697 832.976 12.6367H839.679ZM855.751 20H853.771L853.694 17.9434C853.313 18.3835 852.95 18.7516 852.603 19.0479C852.264 19.3356 851.925 19.5684 851.587 19.7461C851.248 19.9238 850.906 20.0465 850.559 20.1143C850.22 20.1904 849.86 20.2285 849.479 20.2285C848.168 20.2285 847.177 19.8434 846.509 19.0732C845.84 18.3031 845.506 17.1393 845.506 15.582V7.25391H847.715V15.4043C847.715 17.3594 848.451 18.3369 849.924 18.3369C850.195 18.3369 850.457 18.2988 850.711 18.2227C850.973 18.138 851.244 17.9984 851.523 17.8037C851.811 17.6006 852.116 17.3298 852.438 16.9912C852.768 16.6527 853.136 16.2253 853.542 15.709V7.25391H855.751V20ZM870.566 12.9541C870.566 13.2673 870.562 13.5296 870.554 13.7412C870.545 13.9528 870.533 14.1517 870.516 14.3379H861.565C861.565 15.6413 861.929 16.6442 862.657 17.3467C863.385 18.0407 864.435 18.3877 865.806 18.3877C866.178 18.3877 866.55 18.375 866.923 18.3496C867.295 18.3158 867.655 18.2734 868.002 18.2227C868.349 18.1719 868.679 18.1169 868.992 18.0576C869.314 17.9899 869.61 17.918 869.881 17.8418V19.6572C869.28 19.8265 868.599 19.9619 867.837 20.0635C867.084 20.1735 866.301 20.2285 865.488 20.2285C864.396 20.2285 863.457 20.0804 862.67 19.7842C861.883 19.488 861.235 19.0605 860.728 18.502C860.228 17.9349 859.856 17.2451 859.61 16.4326C859.373 15.6117 859.255 14.6849 859.255 13.6523C859.255 12.7552 859.382 11.9089 859.636 11.1133C859.898 10.3092 860.275 9.60677 860.766 9.00586C861.265 8.39648 861.874 7.91406 862.594 7.55859C863.313 7.20312 864.13 7.02539 865.044 7.02539C865.933 7.02539 866.72 7.16504 867.405 7.44434C868.091 7.72363 868.666 8.12142 869.132 8.6377C869.606 9.14551 869.961 9.76758 870.198 10.5039C870.444 11.2318 870.566 12.0485 870.566 12.9541ZM868.269 12.6367C868.294 12.0697 868.239 11.5534 868.104 11.0879C867.968 10.6139 867.757 10.2077 867.469 9.86914C867.189 9.5306 866.838 9.26823 866.415 9.08203C865.992 8.88737 865.501 8.79004 864.942 8.79004C864.46 8.79004 864.02 8.88314 863.622 9.06934C863.224 9.25553 862.882 9.5179 862.594 9.85645C862.306 10.195 862.073 10.6012 861.896 11.0752C861.718 11.5492 861.608 12.0697 861.565 12.6367H868.269ZM881.726 25.332C877.824 21.7181 875.873 17.7233 875.873 13.3477C875.873 12.3236 875.975 11.3037 876.178 10.2881C876.389 9.264 876.724 8.23991 877.181 7.21582C877.646 6.19173 878.256 5.16764 879.009 4.14355C879.771 3.11947 880.693 2.10384 881.776 1.09668L883.059 2.4043C879.775 5.64583 878.133 9.23861 878.133 13.1826C878.133 15.1462 878.548 17.0335 879.377 18.8447C880.206 20.6559 881.434 22.3656 883.059 23.9736L881.726 25.332ZM898.839 14.96C898.839 15.6878 898.691 16.3734 898.395 17.0166C898.098 17.6514 897.654 18.21 897.062 18.6924C896.469 19.1663 895.724 19.543 894.827 19.8223C893.93 20.0931 892.885 20.2285 891.691 20.2285C891.031 20.2285 890.439 20.2074 889.914 20.165C889.389 20.1227 888.898 20.0677 888.441 20V18.0195C888.966 18.1126 889.521 18.1846 890.104 18.2354C890.688 18.2861 891.285 18.3115 891.895 18.3115C892.724 18.3115 893.431 18.2396 894.015 18.0957C894.607 17.9434 895.09 17.7275 895.462 17.4482C895.834 17.1689 896.105 16.8304 896.274 16.4326C896.444 16.0348 896.528 15.5863 896.528 15.0869C896.528 14.6299 896.427 14.2321 896.224 13.8936C896.021 13.555 895.733 13.2715 895.36 13.043C894.996 12.8145 894.556 12.6452 894.04 12.5352C893.532 12.4167 892.974 12.3574 892.364 12.3574H890.473V10.542H892.39C892.889 10.542 893.342 10.4785 893.748 10.3516C894.163 10.2161 894.514 10.0257 894.802 9.78027C895.098 9.53483 895.322 9.23438 895.475 8.87891C895.635 8.51497 895.716 8.10449 895.716 7.64746C895.716 6.75879 895.445 6.11133 894.903 5.70508C894.362 5.29883 893.566 5.0957 892.517 5.0957C891.958 5.0957 891.382 5.15072 890.79 5.26074C890.198 5.37077 889.563 5.53581 888.886 5.75586V3.82617C889.174 3.72461 889.478 3.63574 889.8 3.55957C890.13 3.47493 890.456 3.40723 890.777 3.35645C891.107 3.2972 891.433 3.25488 891.755 3.22949C892.076 3.19564 892.385 3.17871 892.682 3.17871C893.562 3.17871 894.336 3.27604 895.005 3.4707C895.674 3.6569 896.232 3.92773 896.681 4.2832C897.129 4.63867 897.468 5.07031 897.696 5.57812C897.925 6.08594 898.039 6.65723 898.039 7.29199C898.039 8.23991 897.794 9.03548 897.303 9.67871C896.82 10.3219 896.156 10.834 895.31 11.2148C895.741 11.2826 896.164 11.418 896.579 11.6211C897.002 11.8242 897.379 12.0866 897.709 12.4082C898.048 12.7214 898.318 13.0938 898.521 13.5254C898.733 13.957 898.839 14.4352 898.839 14.96ZM905.288 1.09668C909.19 4.71061 911.141 8.73079 911.141 13.1572C911.141 14.0713 911.048 15.0192 910.861 16.001C910.675 16.9827 910.358 17.9899 909.909 19.0225C909.461 20.0465 908.855 21.0876 908.094 22.1455C907.34 23.2035 906.388 24.2656 905.237 25.332L903.955 24.0244C905.605 22.391 906.837 20.6855 907.649 18.9082C908.462 17.1309 908.868 15.2689 908.868 13.3223C908.868 9.29362 907.23 5.67122 903.955 2.45508L905.288 1.09668ZM922.097 7.02539C922.359 7.02539 922.609 7.0804 922.846 7.19043C923.083 7.29199 923.29 7.43164 923.468 7.60938C923.646 7.78711 923.785 7.99447 923.887 8.23145C923.997 8.46842 924.052 8.7181 924.052 8.98047C924.052 9.2513 923.997 9.50521 923.887 9.74219C923.785 9.9707 923.646 10.1738 923.468 10.3516C923.29 10.5293 923.083 10.6689 922.846 10.7705C922.609 10.8721 922.359 10.9229 922.097 10.9229C921.826 10.9229 921.572 10.8721 921.335 10.7705C921.106 10.6689 920.903 10.5293 920.726 10.3516C920.548 10.1738 920.408 9.9707 920.307 9.74219C920.205 9.50521 920.154 9.2513 920.154 8.98047C920.154 8.7181 920.205 8.46842 920.307 8.23145C920.408 7.99447 920.548 7.78711 920.726 7.60938C920.903 7.43164 921.106 7.29199 921.335 7.19043C921.572 7.0804 921.826 7.02539 922.097 7.02539ZM922.097 16.3311C922.359 16.3311 922.609 16.3861 922.846 16.4961C923.083 16.5977 923.29 16.7373 923.468 16.915C923.646 17.0928 923.785 17.3001 923.887 17.5371C923.997 17.7741 924.052 18.0238 924.052 18.2861C924.052 18.557 923.997 18.8109 923.887 19.0479C923.785 19.2764 923.646 19.4795 923.468 19.6572C923.29 19.835 923.083 19.9746 922.846 20.0762C922.609 20.1777 922.359 20.2285 922.097 20.2285C921.826 20.2285 921.572 20.1777 921.335 20.0762C921.106 19.9746 920.903 19.835 920.726 19.6572C920.548 19.4795 920.408 19.2764 920.307 19.0479C920.205 18.8109 920.154 18.557 920.154 18.2861C920.154 18.0238 920.205 17.7741 920.307 17.5371C920.408 17.3001 920.548 17.0928 920.726 16.915C920.903 16.7373 921.106 16.5977 921.335 16.4961C921.572 16.3861 921.826 16.3311 922.097 16.3311Z" fill="black"/>
<path d="M973.924 48.3984C973.924 49.5326 973.763 50.5228 973.441 51.3691C973.128 52.2155 972.692 52.918 972.134 53.4766C971.575 54.0352 970.915 54.4541 970.153 54.7334C969.392 55.0127 968.566 55.1523 967.678 55.1523C967.271 55.1523 966.865 55.1312 966.459 55.0889C966.061 55.0465 965.655 54.9746 965.24 54.873V60.2051H963.031V42.2539H964.999L965.139 44.3867C965.773 43.515 966.451 42.9056 967.17 42.5586C967.889 42.2031 968.668 42.0254 969.506 42.0254C970.234 42.0254 970.873 42.1777 971.423 42.4824C971.973 42.7871 972.434 43.2188 972.807 43.7773C973.179 44.3275 973.458 44.9961 973.645 45.7832C973.831 46.5618 973.924 47.4336 973.924 48.3984ZM971.664 48.5C971.664 47.8314 971.613 47.2178 971.512 46.6592C971.419 46.1006 971.266 45.6224 971.055 45.2246C970.843 44.8268 970.572 44.5179 970.242 44.2979C969.912 44.0693 969.519 43.9551 969.062 43.9551C968.782 43.9551 968.499 44.0016 968.211 44.0947C967.923 44.1794 967.623 44.3275 967.31 44.5391C967.005 44.7422 966.679 45.0173 966.332 45.3643C965.993 45.7028 965.63 46.126 965.24 46.6338V52.8164C965.646 52.9857 966.074 53.1211 966.522 53.2227C966.971 53.3158 967.411 53.3623 967.843 53.3623C969.036 53.3623 969.971 52.9603 970.648 52.1562C971.326 51.3438 971.664 50.125 971.664 48.5ZM987.571 55H985.591L985.515 52.9434C985.134 53.3835 984.77 53.7516 984.423 54.0479C984.084 54.3356 983.746 54.5684 983.407 54.7461C983.069 54.9238 982.726 55.0465 982.379 55.1143C982.04 55.1904 981.681 55.2285 981.3 55.2285C979.988 55.2285 978.998 54.8434 978.329 54.0732C977.66 53.3031 977.326 52.1393 977.326 50.582V42.2539H979.535V50.4043C979.535 52.3594 980.271 53.3369 981.744 53.3369C982.015 53.3369 982.277 53.2988 982.531 53.2227C982.794 53.138 983.064 52.9984 983.344 52.8037C983.632 52.6006 983.936 52.3298 984.258 51.9912C984.588 51.6527 984.956 51.2253 985.362 50.709V42.2539H987.571V55ZM1001.71 51.5215C1001.71 51.9701 1001.64 52.3721 1001.49 52.7275C1001.33 53.083 1001.13 53.4004 1000.86 53.6797C1000.6 53.9505 1000.3 54.1833 999.949 54.3779C999.602 54.5726 999.23 54.7334 998.832 54.8604C998.443 54.9873 998.041 55.0804 997.626 55.1396C997.211 55.1989 996.805 55.2285 996.407 55.2285C995.544 55.2285 994.748 55.1904 994.021 55.1143C993.301 55.0381 992.594 54.9154 991.9 54.7461V52.7148C992.645 52.9264 993.386 53.0872 994.122 53.1973C994.858 53.3073 995.59 53.3623 996.318 53.3623C997.376 53.3623 998.159 53.2184 998.667 52.9307C999.175 52.6429 999.429 52.2324 999.429 51.6992C999.429 51.4707 999.386 51.2676 999.302 51.0898C999.226 50.9036 999.082 50.7301 998.87 50.5693C998.659 50.4001 998.328 50.2266 997.88 50.0488C997.44 49.8711 996.835 49.668 996.064 49.4395C995.489 49.2702 994.956 49.0798 994.465 48.8682C993.982 48.6481 993.563 48.39 993.208 48.0938C992.853 47.7975 992.573 47.4505 992.37 47.0527C992.167 46.6549 992.065 46.1852 992.065 45.6436C992.065 45.2881 992.146 44.8988 992.307 44.4756C992.476 44.0524 992.759 43.6589 993.157 43.2949C993.555 42.931 994.092 42.6305 994.77 42.3936C995.447 42.1481 996.293 42.0254 997.309 42.0254C997.808 42.0254 998.362 42.055 998.972 42.1143C999.581 42.165 1000.22 42.2581 1000.88 42.3936V44.3613C1000.18 44.1921 999.522 44.0693 998.896 43.9932C998.278 43.9085 997.74 43.8662 997.283 43.8662C996.733 43.8662 996.268 43.9085 995.887 43.9932C995.514 44.0778 995.21 44.1963 994.973 44.3486C994.744 44.4925 994.579 44.666 994.478 44.8691C994.376 45.0638 994.325 45.2754 994.325 45.5039C994.325 45.7324 994.368 45.9398 994.452 46.126C994.545 46.3122 994.71 46.4941 994.947 46.6719C995.193 46.8411 995.531 47.0146 995.963 47.1924C996.395 47.3617 996.957 47.5479 997.651 47.751C998.405 47.971 999.039 48.2038 999.556 48.4492C1000.07 48.6862 1000.49 48.9528 1000.81 49.249C1001.13 49.5452 1001.36 49.8796 1001.5 50.252C1001.64 50.6243 1001.71 51.0475 1001.71 51.5215ZM1016.16 55H1013.95V46.8623C1013.95 45.8805 1013.77 45.1484 1013.39 44.666C1013.03 44.1751 1012.5 43.9297 1011.82 43.9297C1011.52 43.9297 1011.24 43.972 1010.98 44.0566C1010.73 44.1328 1010.46 44.2725 1010.18 44.4756C1009.9 44.6702 1009.6 44.9368 1009.27 45.2754C1008.94 45.6139 1008.56 46.0371 1008.12 46.5449V55H1005.92V37.0615H1008.12V42.2539L1008.05 44.2598C1008.4 43.8451 1008.73 43.498 1009.06 43.2188C1009.4 42.931 1009.74 42.6982 1010.07 42.5205C1010.41 42.3428 1010.75 42.2158 1011.1 42.1396C1011.44 42.0635 1011.8 42.0254 1012.17 42.0254C1013.44 42.0254 1014.43 42.4147 1015.12 43.1934C1015.81 43.9635 1016.16 45.1273 1016.16 46.6846V55ZM1027.84 60.332C1023.94 56.7181 1021.99 52.7233 1021.99 48.3477C1021.99 47.3236 1022.09 46.3037 1022.29 45.2881C1022.5 44.264 1022.84 43.2399 1023.3 42.2158C1023.76 41.1917 1024.37 40.1676 1025.12 39.1436C1025.89 38.1195 1026.81 37.1038 1027.89 36.0967L1029.17 37.4043C1025.89 40.6458 1024.25 44.2386 1024.25 48.1826C1024.25 50.1462 1024.66 52.0335 1025.49 53.8447C1026.32 55.6559 1027.55 57.3656 1029.17 58.9736L1027.84 60.332ZM1044.95 49.96C1044.95 50.6878 1044.81 51.3734 1044.51 52.0166C1044.21 52.6514 1043.77 53.21 1043.18 53.6924C1042.58 54.1663 1041.84 54.543 1040.94 54.8223C1040.05 55.0931 1039 55.2285 1037.81 55.2285C1037.15 55.2285 1036.55 55.2074 1036.03 55.165C1035.5 55.1227 1035.01 55.0677 1034.56 55V53.0195C1035.08 53.1126 1035.64 53.1846 1036.22 53.2354C1036.8 53.2861 1037.4 53.3115 1038.01 53.3115C1038.84 53.3115 1039.55 53.2396 1040.13 53.0957C1040.72 52.9434 1041.2 52.7275 1041.58 52.4482C1041.95 52.1689 1042.22 51.8304 1042.39 51.4326C1042.56 51.0348 1042.64 50.5863 1042.64 50.0869C1042.64 49.6299 1042.54 49.2321 1042.34 48.8936C1042.14 48.555 1041.85 48.2715 1041.48 48.043C1041.11 47.8145 1040.67 47.6452 1040.16 47.5352C1039.65 47.4167 1039.09 47.3574 1038.48 47.3574H1036.59V45.542H1038.5C1039 45.542 1039.46 45.4785 1039.86 45.3516C1040.28 45.2161 1040.63 45.0257 1040.92 44.7803C1041.21 44.5348 1041.44 44.2344 1041.59 43.8789C1041.75 43.515 1041.83 43.1045 1041.83 42.6475C1041.83 41.7588 1041.56 41.1113 1041.02 40.7051C1040.48 40.2988 1039.68 40.0957 1038.63 40.0957C1038.07 40.0957 1037.5 40.1507 1036.91 40.2607C1036.31 40.3708 1035.68 40.5358 1035 40.7559V38.8262C1035.29 38.7246 1035.59 38.6357 1035.92 38.5596C1036.25 38.4749 1036.57 38.4072 1036.89 38.3564C1037.22 38.2972 1037.55 38.2549 1037.87 38.2295C1038.19 38.1956 1038.5 38.1787 1038.8 38.1787C1039.68 38.1787 1040.45 38.276 1041.12 38.4707C1041.79 38.6569 1042.35 38.9277 1042.8 39.2832C1043.24 39.6387 1043.58 40.0703 1043.81 40.5781C1044.04 41.0859 1044.15 41.6572 1044.15 42.292C1044.15 43.2399 1043.91 44.0355 1043.42 44.6787C1042.94 45.3219 1042.27 45.834 1041.42 46.2148C1041.86 46.2826 1042.28 46.418 1042.69 46.6211C1043.12 46.8242 1043.49 47.0866 1043.82 47.4082C1044.16 47.7214 1044.43 48.0938 1044.64 48.5254C1044.85 48.957 1044.95 49.4352 1044.95 49.96ZM1051.4 36.0967C1055.31 39.7106 1057.26 43.7308 1057.26 48.1572C1057.26 49.0713 1057.16 50.0192 1056.98 51.001C1056.79 51.9827 1056.47 52.9899 1056.02 54.0225C1055.58 55.0465 1054.97 56.0876 1054.21 57.1455C1053.46 58.2035 1052.5 59.2656 1051.35 60.332L1050.07 59.0244C1051.72 57.391 1052.95 55.6855 1053.76 53.9082C1054.58 52.1309 1054.98 50.2689 1054.98 48.3223C1054.98 44.2936 1053.35 40.6712 1050.07 37.4551L1051.4 36.0967Z" fill="#00B2FF"/>
</g>
<defs>
<clipPath id="clip0_6273_901">
<rect width="1076" height="190" fill="white"/>
</clipPath>
</defs>
</svg>
