<svg width="370" height="156" viewBox="0 0 370 156" fill="none" xmlns="http://www.w3.org/2000/svg">
<g clip-path="url(#clip0_6296_6543)">
<rect width="370" height="156" fill="white"/>
<rect x="72" y="1" width="28" height="28" rx="6" fill="#EDEDED" stroke="black" stroke-width="2"/>
<rect x="-1" y="1" width="61" height="28" rx="6" transform="matrix(-1 0 0 1 65 0)" fill="#FFEEEE" stroke="#FF0000" stroke-width="2"/>
<path d="M7.27539 89.0059H0.0537109V61.7891H7.27539V63.8398H2.48535V86.9551H7.27539V89.0059ZM43.1934 73.4346C43.1934 74.8994 43.0469 76.2373 42.7539 77.4482C42.4609 78.6494 42.0166 79.6846 41.4209 80.5537C40.8252 81.4131 40.083 82.082 39.1943 82.5605C38.3154 83.0293 37.2803 83.2637 36.0889 83.2637C35.0635 83.2637 34.1309 83.0732 33.291 82.6924C32.4512 82.3018 31.7334 81.7061 31.1377 80.9053C30.542 80.1045 30.083 79.084 29.7607 77.8438C29.4385 76.6035 29.2773 75.1338 29.2773 73.4346C29.2773 71.9697 29.4238 70.6318 29.7168 69.4209C30.0195 68.21 30.4639 67.1748 31.0498 66.3154C31.6455 65.4463 32.3877 64.7773 33.2764 64.3086C34.165 63.8301 35.2002 63.5908 36.3818 63.5908C37.4072 63.5908 38.3398 63.7861 39.1797 64.1768C40.0195 64.5576 40.7373 65.1533 41.333 65.9639C41.9287 66.7646 42.3877 67.7852 42.71 69.0254C43.0322 70.2656 43.1934 71.7354 43.1934 73.4346ZM40.6152 73.5225C40.6152 73.1904 40.6006 72.8633 40.5713 72.541C40.5518 72.209 40.5273 71.8867 40.498 71.5742L32.3975 77.5947C32.5439 78.1025 32.7295 78.5713 32.9541 79.001C33.1787 79.4307 33.4473 79.8018 33.7598 80.1143C34.082 80.417 34.4434 80.6562 34.8438 80.832C35.2539 80.998 35.7178 81.0811 36.2354 81.0811C36.8994 81.0811 37.5 80.9199 38.0371 80.5977C38.584 80.2754 39.0479 79.7969 39.4287 79.1621C39.8096 78.5273 40.1025 77.7412 40.3076 76.8037C40.5127 75.8564 40.6152 74.7627 40.6152 73.5225ZM31.8555 73.3467C31.8555 73.6494 31.8555 73.9521 31.8555 74.2549C31.8652 74.5576 31.8848 74.8506 31.9141 75.1338L40.0146 69.1426C39.8682 68.6445 39.6826 68.1904 39.458 67.7803C39.2334 67.3701 38.9648 67.0186 38.6523 66.7256C38.3398 66.4229 37.9834 66.1885 37.583 66.0225C37.1826 65.8564 36.7334 65.7734 36.2354 65.7734C35.5713 65.7734 34.9658 65.9346 34.4189 66.2568C33.8818 66.5791 33.4229 67.0625 33.042 67.707C32.6611 68.3418 32.3682 69.1328 32.1631 70.0801C31.958 71.0176 31.8555 72.1064 31.8555 73.3467ZM92.0752 83H80.0488V80.627H84.9707V66.6523L80.3857 69.1426L79.4482 66.9746L85.542 63.7666H87.7979V80.627H92.0752V83ZM141.558 83H129.531V80.627H134.453V66.6523L129.868 69.1426L128.931 66.9746L135.024 63.7666H137.28V80.627H141.558V83ZM191.201 83H178.589V80.7148L183.54 75.793C184.351 74.9922 185.01 74.2988 185.518 73.7129C186.025 73.127 186.421 72.5947 186.704 72.1162C186.987 71.6279 187.178 71.1689 187.275 70.7393C187.373 70.3096 187.422 69.8457 187.422 69.3477C187.422 68.8789 187.358 68.4346 187.231 68.0146C187.104 67.585 186.909 67.209 186.646 66.8867C186.382 66.5645 186.04 66.3105 185.62 66.125C185.2 65.9395 184.697 65.8467 184.111 65.8467C183.301 65.8467 182.563 66.0273 181.899 66.3887C181.235 66.75 180.625 67.2188 180.068 67.7949L178.662 66.1104C179.385 65.3486 180.215 64.7383 181.152 64.2793C182.1 63.8203 183.198 63.5908 184.448 63.5908C185.298 63.5908 186.069 63.7178 186.763 63.9717C187.466 64.2256 188.071 64.5918 188.579 65.0703C189.087 65.5488 189.478 66.1348 189.751 66.8281C190.034 67.5215 190.176 68.3027 190.176 69.1719C190.176 69.9043 190.078 70.583 189.883 71.208C189.688 71.833 189.39 72.458 188.989 73.083C188.599 73.6982 188.101 74.3379 187.495 75.002C186.899 75.666 186.191 76.3936 185.371 77.1846L181.899 80.5684H191.201V83ZM241.123 73.4346C241.123 74.8994 240.977 76.2373 240.684 77.4482C240.391 78.6494 239.946 79.6846 239.351 80.5537C238.755 81.4131 238.013 82.082 237.124 82.5605C236.245 83.0293 235.21 83.2637 234.019 83.2637C232.993 83.2637 232.061 83.0732 231.221 82.6924C230.381 82.3018 229.663 81.7061 229.067 80.9053C228.472 80.1045 228.013 79.084 227.69 77.8438C227.368 76.6035 227.207 75.1338 227.207 73.4346C227.207 71.9697 227.354 70.6318 227.646 69.4209C227.949 68.21 228.394 67.1748 228.979 66.3154C229.575 65.4463 230.317 64.7773 231.206 64.3086C232.095 63.8301 233.13 63.5908 234.312 63.5908C235.337 63.5908 236.27 63.7861 237.109 64.1768C237.949 64.5576 238.667 65.1533 239.263 65.9639C239.858 66.7646 240.317 67.7852 240.64 69.0254C240.962 70.2656 241.123 71.7354 241.123 73.4346ZM238.545 73.5225C238.545 73.1904 238.53 72.8633 238.501 72.541C238.481 72.209 238.457 71.8867 238.428 71.5742L230.327 77.5947C230.474 78.1025 230.659 78.5713 230.884 79.001C231.108 79.4307 231.377 79.8018 231.689 80.1143C232.012 80.417 232.373 80.6562 232.773 80.832C233.184 80.998 233.647 81.0811 234.165 81.0811C234.829 81.0811 235.43 80.9199 235.967 80.5977C236.514 80.2754 236.978 79.7969 237.358 79.1621C237.739 78.5273 238.032 77.7412 238.237 76.8037C238.442 75.8564 238.545 74.7627 238.545 73.5225ZM229.785 73.3467C229.785 73.6494 229.785 73.9521 229.785 74.2549C229.795 74.5576 229.814 74.8506 229.844 75.1338L237.944 69.1426C237.798 68.6445 237.612 68.1904 237.388 67.7803C237.163 67.3701 236.895 67.0186 236.582 66.7256C236.27 66.4229 235.913 66.1885 235.513 66.0225C235.112 65.8564 234.663 65.7734 234.165 65.7734C233.501 65.7734 232.896 65.9346 232.349 66.2568C231.812 66.5791 231.353 67.0625 230.972 67.707C230.591 68.3418 230.298 69.1328 230.093 70.0801C229.888 71.0176 229.785 72.1064 229.785 73.3467ZM290.605 73.4346C290.605 74.8994 290.459 76.2373 290.166 77.4482C289.873 78.6494 289.429 79.6846 288.833 80.5537C288.237 81.4131 287.495 82.082 286.606 82.5605C285.728 83.0293 284.692 83.2637 283.501 83.2637C282.476 83.2637 281.543 83.0732 280.703 82.6924C279.863 82.3018 279.146 81.7061 278.55 80.9053C277.954 80.1045 277.495 79.084 277.173 77.8438C276.851 76.6035 276.689 75.1338 276.689 73.4346C276.689 71.9697 276.836 70.6318 277.129 69.4209C277.432 68.21 277.876 67.1748 278.462 66.3154C279.058 65.4463 279.8 64.7773 280.688 64.3086C281.577 63.8301 282.612 63.5908 283.794 63.5908C284.819 63.5908 285.752 63.7861 286.592 64.1768C287.432 64.5576 288.149 65.1533 288.745 65.9639C289.341 66.7646 289.8 67.7852 290.122 69.0254C290.444 70.2656 290.605 71.7354 290.605 73.4346ZM288.027 73.5225C288.027 73.1904 288.013 72.8633 287.983 72.541C287.964 72.209 287.939 71.8867 287.91 71.5742L279.81 77.5947C279.956 78.1025 280.142 78.5713 280.366 79.001C280.591 79.4307 280.859 79.8018 281.172 80.1143C281.494 80.417 281.855 80.6562 282.256 80.832C282.666 80.998 283.13 81.0811 283.647 81.0811C284.312 81.0811 284.912 80.9199 285.449 80.5977C285.996 80.2754 286.46 79.7969 286.841 79.1621C287.222 78.5273 287.515 77.7412 287.72 76.8037C287.925 75.8564 288.027 74.7627 288.027 73.5225ZM279.268 73.3467C279.268 73.6494 279.268 73.9521 279.268 74.2549C279.277 74.5576 279.297 74.8506 279.326 75.1338L287.427 69.1426C287.28 68.6445 287.095 68.1904 286.87 67.7803C286.646 67.3701 286.377 67.0186 286.064 66.7256C285.752 66.4229 285.396 66.1885 284.995 66.0225C284.595 65.8564 284.146 65.7734 283.647 65.7734C282.983 65.7734 282.378 65.9346 281.831 66.2568C281.294 66.5791 280.835 67.0625 280.454 67.707C280.073 68.3418 279.78 69.1328 279.575 70.0801C279.37 71.0176 279.268 72.1064 279.268 73.3467ZM369.312 89.0059H362.09V86.9551H366.851V63.8398H362.09V61.7891H369.312V89.0059Z" fill="black"/>
<path d="M339.648 83H327.036V80.7148L331.987 75.793C332.798 74.9922 333.457 74.2988 333.965 73.7129C334.473 73.127 334.868 72.5947 335.151 72.1162C335.435 71.6279 335.625 71.1689 335.723 70.7393C335.82 70.3096 335.869 69.8457 335.869 69.3477C335.869 68.8789 335.806 68.4346 335.679 68.0146C335.552 67.585 335.356 67.209 335.093 66.8867C334.829 66.5645 334.487 66.3105 334.067 66.125C333.647 65.9395 333.145 65.8467 332.559 65.8467C331.748 65.8467 331.011 66.0273 330.347 66.3887C329.683 66.75 329.072 67.2188 328.516 67.7949L327.109 66.1104C327.832 65.3486 328.662 64.7383 329.6 64.2793C330.547 63.8203 331.646 63.5908 332.896 63.5908C333.745 63.5908 334.517 63.7178 335.21 63.9717C335.913 64.2256 336.519 64.5918 337.026 65.0703C337.534 65.5488 337.925 66.1348 338.198 66.8281C338.481 67.5215 338.623 68.3027 338.623 69.1719C338.623 69.9043 338.525 70.583 338.33 71.208C338.135 71.833 337.837 72.458 337.437 73.083C337.046 73.6982 336.548 74.3379 335.942 75.002C335.347 75.666 334.639 76.3936 333.818 77.1846L330.347 80.5684H339.648V83Z" fill="black" fill-opacity="0.2"/>
<path d="M40.1367 104.623C40.1367 105.6 40.0391 106.492 39.8438 107.299C39.6484 108.1 39.3522 108.79 38.9551 109.369C38.5579 109.942 38.0632 110.388 37.4707 110.707C36.8848 111.02 36.1947 111.176 35.4004 111.176C34.7168 111.176 34.0951 111.049 33.5352 110.795C32.9753 110.535 32.4967 110.137 32.0996 109.604C31.7025 109.07 31.3965 108.389 31.1816 107.562C30.9668 106.736 30.8594 105.756 30.8594 104.623C30.8594 103.646 30.957 102.755 31.1523 101.947C31.3542 101.14 31.6504 100.45 32.041 99.877C32.4382 99.2975 32.9329 98.8516 33.5254 98.5391C34.1178 98.2201 34.8079 98.0605 35.5957 98.0605C36.2793 98.0605 36.901 98.1908 37.4609 98.4512C38.0208 98.7051 38.4993 99.1022 38.8965 99.6426C39.2936 100.176 39.5996 100.857 39.8145 101.684C40.0293 102.51 40.1367 103.49 40.1367 104.623ZM38.418 104.682C38.418 104.46 38.4082 104.242 38.3887 104.027C38.3757 103.806 38.3594 103.591 38.3398 103.383L32.9395 107.396C33.0371 107.735 33.1608 108.048 33.3105 108.334C33.4603 108.62 33.6393 108.868 33.8477 109.076C34.0625 109.278 34.3034 109.438 34.5703 109.555C34.8438 109.665 35.153 109.721 35.498 109.721C35.9408 109.721 36.3411 109.613 36.6992 109.398C37.0638 109.184 37.373 108.865 37.627 108.441C37.8809 108.018 38.0762 107.494 38.2129 106.869C38.3496 106.238 38.418 105.508 38.418 104.682ZM32.5781 104.564C32.5781 104.766 32.5781 104.968 32.5781 105.17C32.5846 105.372 32.5977 105.567 32.6172 105.756L38.0176 101.762C37.9199 101.43 37.7962 101.127 37.6465 100.854C37.4967 100.58 37.3177 100.346 37.1094 100.15C36.901 99.9486 36.6634 99.7923 36.3965 99.6816C36.1296 99.571 35.8301 99.5156 35.498 99.5156C35.0553 99.5156 34.6517 99.623 34.2871 99.8379C33.929 100.053 33.623 100.375 33.3691 100.805C33.1152 101.228 32.9199 101.755 32.7832 102.387C32.6465 103.012 32.5781 103.738 32.5781 104.564Z" fill="black" fill-opacity="0.5"/>
<path d="M89.7363 111H81.7188V109.418H85V100.102L81.9434 101.762L81.3184 100.316L85.3809 98.1777H86.8848V109.418H89.7363V111Z" fill="black" fill-opacity="0.5"/>
<path d="M139.844 111H131.436V109.477L134.736 106.195C135.277 105.661 135.716 105.199 136.055 104.809C136.393 104.418 136.657 104.063 136.846 103.744C137.035 103.419 137.161 103.113 137.227 102.826C137.292 102.54 137.324 102.23 137.324 101.898C137.324 101.586 137.282 101.29 137.197 101.01C137.113 100.723 136.982 100.473 136.807 100.258C136.631 100.043 136.403 99.8737 136.123 99.75C135.843 99.6263 135.508 99.5645 135.117 99.5645C134.577 99.5645 134.085 99.6849 133.643 99.9258C133.2 100.167 132.793 100.479 132.422 100.863L131.484 99.7402C131.966 99.2324 132.52 98.8255 133.145 98.5195C133.776 98.2135 134.508 98.0605 135.342 98.0605C135.908 98.0605 136.423 98.1452 136.885 98.3145C137.354 98.4837 137.757 98.7279 138.096 99.0469C138.434 99.3659 138.695 99.7565 138.877 100.219C139.066 100.681 139.16 101.202 139.16 101.781C139.16 102.27 139.095 102.722 138.965 103.139C138.835 103.555 138.636 103.972 138.369 104.389C138.109 104.799 137.777 105.225 137.373 105.668C136.976 106.111 136.504 106.596 135.957 107.123L133.643 109.379H139.844V111Z" fill="black" fill-opacity="0.5"/>
<path d="M189.6 107.123C189.6 107.683 189.486 108.21 189.258 108.705C189.03 109.193 188.688 109.623 188.232 109.994C187.777 110.359 187.204 110.648 186.514 110.863C185.824 111.072 185.02 111.176 184.102 111.176C183.594 111.176 183.138 111.16 182.734 111.127C182.331 111.094 181.953 111.052 181.602 111V109.477C182.005 109.548 182.432 109.604 182.881 109.643C183.33 109.682 183.789 109.701 184.258 109.701C184.896 109.701 185.439 109.646 185.889 109.535C186.344 109.418 186.715 109.252 187.002 109.037C187.288 108.822 187.497 108.562 187.627 108.256C187.757 107.95 187.822 107.605 187.822 107.221C187.822 106.869 187.744 106.563 187.588 106.303C187.432 106.042 187.21 105.824 186.924 105.648C186.644 105.473 186.305 105.342 185.908 105.258C185.518 105.167 185.088 105.121 184.619 105.121H183.164V103.725H184.639C185.023 103.725 185.371 103.676 185.684 103.578C186.003 103.474 186.273 103.327 186.494 103.139C186.722 102.95 186.895 102.719 187.012 102.445C187.135 102.165 187.197 101.85 187.197 101.498C187.197 100.814 186.989 100.316 186.572 100.004C186.156 99.6914 185.544 99.5352 184.736 99.5352C184.307 99.5352 183.864 99.5775 183.408 99.6621C182.952 99.7467 182.464 99.8737 181.943 100.043V98.5586C182.165 98.4805 182.399 98.4121 182.646 98.3535C182.9 98.2884 183.151 98.2363 183.398 98.1973C183.652 98.1517 183.903 98.1191 184.15 98.0996C184.398 98.0736 184.635 98.0605 184.863 98.0605C185.54 98.0605 186.136 98.1354 186.65 98.2852C187.165 98.4284 187.594 98.6367 187.939 98.9102C188.285 99.1836 188.545 99.5156 188.721 99.9062C188.896 100.297 188.984 100.736 188.984 101.225C188.984 101.954 188.796 102.566 188.418 103.061C188.047 103.555 187.536 103.949 186.885 104.242C187.217 104.294 187.542 104.398 187.861 104.555C188.187 104.711 188.477 104.913 188.73 105.16C188.991 105.401 189.199 105.688 189.355 106.02C189.518 106.352 189.6 106.719 189.6 107.123Z" fill="black" fill-opacity="0.5"/>
<path d="M238.479 108.178H236.301V111H234.562V108.178H228.42V106.684L233.859 98.2363H236.301V106.684H238.479V108.178ZM234.562 99.877L230.119 106.684H234.562V99.877Z" fill="black" fill-opacity="0.5"/>
<path d="M287.521 106.918C287.521 107.549 287.385 108.126 287.111 108.646C286.838 109.167 286.46 109.617 285.979 109.994C285.503 110.365 284.94 110.655 284.289 110.863C283.638 111.072 282.935 111.176 282.18 111.176C281.991 111.176 281.786 111.169 281.564 111.156C281.35 111.15 281.135 111.137 280.92 111.117C280.705 111.104 280.493 111.088 280.285 111.068C280.083 111.049 279.901 111.026 279.738 111V109.457C280.09 109.542 280.49 109.604 280.939 109.643C281.395 109.682 281.854 109.701 282.316 109.701C282.837 109.701 283.306 109.639 283.723 109.516C284.139 109.392 284.494 109.216 284.787 108.988C285.08 108.754 285.305 108.474 285.461 108.148C285.617 107.816 285.695 107.445 285.695 107.035C285.695 106.241 285.409 105.665 284.836 105.307C284.27 104.942 283.452 104.76 282.385 104.76H279.963V98.2363H286.838V99.7207H281.564V103.305H282.678C283.29 103.305 283.885 103.36 284.465 103.471C285.044 103.581 285.559 103.777 286.008 104.057C286.464 104.33 286.828 104.701 287.102 105.17C287.382 105.632 287.521 106.215 287.521 106.918Z" fill="black" fill-opacity="0.5"/>
<path d="M338 106.957C338 107.543 337.893 108.093 337.678 108.607C337.469 109.122 337.17 109.571 336.779 109.955C336.389 110.333 335.917 110.632 335.363 110.854C334.816 111.068 334.208 111.176 333.537 111.176C332.834 111.176 332.212 111.065 331.672 110.844C331.132 110.616 330.679 110.271 330.314 109.809C329.95 109.34 329.673 108.751 329.484 108.041C329.296 107.331 329.201 106.492 329.201 105.521C329.201 104.87 329.243 104.239 329.328 103.627C329.413 103.015 329.553 102.439 329.748 101.898C329.943 101.358 330.204 100.863 330.529 100.414C330.855 99.9648 331.258 99.5807 331.74 99.2617C332.229 98.9362 332.801 98.6855 333.459 98.5098C334.117 98.3275 334.878 98.2363 335.744 98.2363H337.004V99.7207H335.637C334.875 99.7207 334.214 99.8118 333.654 99.9941C333.094 100.176 332.626 100.434 332.248 100.766C331.87 101.098 331.581 101.498 331.379 101.967C331.177 102.436 331.05 102.96 330.998 103.539L330.959 103.939C331.369 103.699 331.841 103.507 332.375 103.363C332.915 103.214 333.498 103.139 334.123 103.139C334.768 103.139 335.331 103.233 335.812 103.422C336.301 103.611 336.704 103.874 337.023 104.213C337.349 104.545 337.593 104.945 337.756 105.414C337.919 105.883 338 106.397 338 106.957ZM336.223 107.064C336.223 106.674 336.174 106.322 336.076 106.01C335.985 105.691 335.839 105.424 335.637 105.209C335.435 104.988 335.178 104.818 334.865 104.701C334.559 104.577 334.191 104.516 333.762 104.516C333.514 104.516 333.264 104.538 333.01 104.584C332.756 104.63 332.505 104.695 332.258 104.779C332.017 104.857 331.786 104.949 331.564 105.053C331.343 105.157 331.141 105.268 330.959 105.385C330.959 106.225 331.018 106.928 331.135 107.494C331.252 108.054 331.424 108.503 331.652 108.842C331.887 109.18 332.173 109.421 332.512 109.564C332.85 109.708 333.241 109.779 333.684 109.779C334.055 109.779 334.393 109.721 334.699 109.604C335.012 109.48 335.279 109.301 335.5 109.066C335.728 108.832 335.904 108.549 336.027 108.217C336.158 107.878 336.223 107.494 336.223 107.064Z" fill="black" fill-opacity="0.2"/>
<path d="M85.4043 12.6016H82.5039V11.1953H87.123V19.584H90.043V21H82.1816V19.584H85.4043V12.6016ZM86 7.08398C86.1888 7.08398 86.3646 7.11979 86.5273 7.19141C86.6901 7.25651 86.8301 7.35091 86.9473 7.47461C87.071 7.59831 87.1654 7.74154 87.2305 7.9043C87.3021 8.06055 87.3379 8.23307 87.3379 8.42188C87.3379 8.60417 87.3021 8.77669 87.2305 8.93945C87.1654 9.10221 87.071 9.24544 86.9473 9.36914C86.8301 9.49284 86.6901 9.59049 86.5273 9.66211C86.3646 9.72721 86.1888 9.75977 86 9.75977C85.8112 9.75977 85.6354 9.72721 85.4727 9.66211C85.3099 9.59049 85.1667 9.49284 85.043 9.36914C84.9258 9.24544 84.8314 9.10221 84.7598 8.93945C84.6947 8.77669 84.6621 8.60417 84.6621 8.42188C84.6621 8.23307 84.6947 8.06055 84.7598 7.9043C84.8314 7.74154 84.9258 7.59831 85.043 7.47461C85.1667 7.35091 85.3099 7.25651 85.4727 7.19141C85.6354 7.11979 85.8112 7.08398 86 7.08398Z" fill="black"/>
<path d="M85.2929 57.2071C85.6834 57.5976 86.3166 57.5976 86.7071 57.2071L93.0711 50.8431C93.4616 50.4526 93.4616 49.8195 93.0711 49.4289C92.6805 49.0384 92.0474 49.0384 91.6569 49.4289L86 55.0858L80.3431 49.4289C79.9526 49.0384 79.3195 49.0384 78.9289 49.4289C78.5384 49.8195 78.5384 50.4526 78.9289 50.8431L85.2929 57.2071ZM85 29L85 56.5L87 56.5L87 29L85 29Z" fill="black"/>
<path d="M17.9102 9.59766H15.0098V8.20117H19.6289V20.584H22.5488V22H14.6875V20.584H17.9102V9.59766ZM33.8477 16.5801C33.8477 16.821 33.8444 17.0228 33.8379 17.1855C33.8314 17.3483 33.8216 17.5013 33.8086 17.6445H26.9238C26.9238 18.6471 27.2038 19.4186 27.7637 19.959C28.3236 20.4928 29.1309 20.7598 30.1855 20.7598C30.472 20.7598 30.7585 20.75 31.0449 20.7305C31.3314 20.7044 31.6081 20.6719 31.875 20.6328C32.1419 20.5938 32.3958 20.5514 32.6367 20.5059C32.8841 20.4538 33.112 20.3984 33.3203 20.3398V21.7363C32.8581 21.8665 32.334 21.9707 31.748 22.0488C31.1686 22.1335 30.5664 22.1758 29.9414 22.1758C29.1016 22.1758 28.3789 22.0618 27.7734 21.834C27.168 21.6061 26.6699 21.2773 26.2793 20.8477C25.8952 20.4115 25.6087 19.8809 25.4199 19.2559C25.2376 18.6243 25.1465 17.9115 25.1465 17.1172C25.1465 16.4271 25.2441 15.776 25.4395 15.1641C25.6413 14.5456 25.931 14.0052 26.3086 13.543C26.6927 13.0742 27.1615 12.7031 27.7148 12.4297C28.2682 12.1562 28.8965 12.0195 29.5996 12.0195C30.2832 12.0195 30.8887 12.127 31.416 12.3418C31.9434 12.5566 32.3861 12.8626 32.7441 13.2598C33.1087 13.6504 33.3822 14.1289 33.5645 14.6953C33.7533 15.2552 33.8477 15.8835 33.8477 16.5801ZM32.0801 16.3359C32.0996 15.8997 32.0573 15.5026 31.9531 15.1445C31.849 14.7799 31.6862 14.4674 31.4648 14.207C31.25 13.9466 30.9798 13.7448 30.6543 13.6016C30.3288 13.4518 29.9512 13.377 29.5215 13.377C29.1504 13.377 28.8118 13.4486 28.5059 13.5918C28.1999 13.735 27.9362 13.9368 27.7148 14.1973C27.4935 14.4577 27.3145 14.7702 27.1777 15.1348C27.041 15.4993 26.9564 15.8997 26.9238 16.3359H32.0801ZM45.2637 9.7832C44.3717 9.5944 43.6035 9.5 42.959 9.5C41.429 9.5 40.6641 10.3008 40.6641 11.9023V13.6211H44.9609V15.0371H40.6641V22H38.9355V15.0371H35.7812V13.6211H38.9355V12C38.9355 9.38932 40.2962 8.08398 43.0176 8.08398C43.6947 8.08398 44.4434 8.16211 45.2637 8.31836V9.7832ZM55.459 21.8633C55.0749 21.9609 54.6777 22.0293 54.2676 22.0684C53.8574 22.1139 53.4408 22.1367 53.0176 22.1367C51.7871 22.1367 50.8691 21.86 50.2637 21.3066C49.6582 20.7467 49.3555 19.8906 49.3555 18.7383V13.6211H46.6113V12.1953H49.3555V9.5L51.0547 9.06055V12.1953H55.459V13.6211H51.0547V18.6016C51.0547 19.3047 51.2402 19.832 51.6113 20.1836C51.9889 20.5286 52.5423 20.7012 53.2715 20.7012C53.584 20.7012 53.9258 20.6784 54.2969 20.6328C54.668 20.5807 55.0553 20.5026 55.459 20.3984V21.8633Z" fill="#FF0000"/>
<path d="M35.2929 57.7071C35.6834 58.0976 36.3166 58.0976 36.7071 57.7071L43.0711 51.3431C43.4616 50.9526 43.4616 50.3195 43.0711 49.9289C42.6805 49.5384 42.0474 49.5384 41.6569 49.9289L36 55.5858L30.3431 49.9289C29.9526 49.5384 29.3195 49.5384 28.9289 49.9289C28.5384 50.3195 28.5384 50.9526 28.9289 51.3431L35.2929 57.7071ZM35 29.5L35 57L37 57L37 29.5L35 29.5Z" fill="#FF0000"/>
<path d="M257.973 11.1953H259.525L259.574 13.002C260.154 12.3053 260.723 11.8008 261.283 11.4883C261.85 11.1758 262.419 11.0195 262.992 11.0195C264.008 11.0195 264.776 11.3483 265.297 12.0059C265.824 12.6634 266.068 13.64 266.029 14.9355H264.311C264.33 14.0762 264.203 13.4544 263.93 13.0703C263.663 12.6797 263.269 12.4844 262.748 12.4844C262.52 12.4844 262.289 12.5267 262.055 12.6113C261.827 12.6895 261.589 12.8197 261.342 13.002C261.101 13.1777 260.844 13.4056 260.57 13.6855C260.297 13.9655 260.004 14.304 259.691 14.7012V21H257.973V11.1953ZM271.908 12.6016H269.008V11.1953H273.627V19.584H276.547V21H268.686V19.584H271.908V12.6016ZM272.504 7.08398C272.693 7.08398 272.868 7.11979 273.031 7.19141C273.194 7.25651 273.334 7.35091 273.451 7.47461C273.575 7.59831 273.669 7.74154 273.734 7.9043C273.806 8.06055 273.842 8.23307 273.842 8.42188C273.842 8.60417 273.806 8.77669 273.734 8.93945C273.669 9.10221 273.575 9.24544 273.451 9.36914C273.334 9.49284 273.194 9.59049 273.031 9.66211C272.868 9.72721 272.693 9.75977 272.504 9.75977C272.315 9.75977 272.139 9.72721 271.977 9.66211C271.814 9.59049 271.671 9.49284 271.547 9.36914C271.43 9.24544 271.335 9.10221 271.264 8.93945C271.199 8.77669 271.166 8.60417 271.166 8.42188C271.166 8.23307 271.199 8.06055 271.264 7.9043C271.335 7.74154 271.43 7.59831 271.547 7.47461C271.671 7.35091 271.814 7.25651 271.977 7.19141C272.139 7.11979 272.315 7.08398 272.504 7.08398ZM286.625 12.582C286.807 12.8099 286.947 13.0768 287.045 13.3828C287.149 13.6823 287.201 14.0078 287.201 14.3594C287.201 14.8672 287.107 15.3327 286.918 15.7559C286.736 16.1725 286.475 16.5306 286.137 16.8301C285.798 17.1296 285.391 17.3639 284.916 17.5332C284.447 17.696 283.93 17.7773 283.363 17.7773C282.953 17.7773 282.569 17.735 282.211 17.6504C281.853 17.5592 281.57 17.4486 281.361 17.3184C281.238 17.5007 281.133 17.6732 281.049 17.8359C280.964 17.9987 280.922 18.181 280.922 18.3828C280.922 18.6302 281.039 18.8353 281.273 18.998C281.514 19.1608 281.83 19.2487 282.221 19.2617L284.799 19.3594C285.287 19.3724 285.736 19.4342 286.146 19.5449C286.563 19.6556 286.918 19.8151 287.211 20.0234C287.51 20.2318 287.742 20.4889 287.904 20.7949C288.074 21.1009 288.158 21.4557 288.158 21.8594C288.158 22.2956 288.064 22.709 287.875 23.0996C287.686 23.4902 287.393 23.832 286.996 24.125C286.605 24.4245 286.107 24.6621 285.502 24.8379C284.896 25.0137 284.177 25.1016 283.344 25.1016C282.549 25.1016 281.872 25.0365 281.312 24.9062C280.759 24.7826 280.303 24.6068 279.945 24.3789C279.587 24.1576 279.327 23.8906 279.164 23.5781C279.001 23.2721 278.92 22.9336 278.92 22.5625C278.92 22.0872 279.031 21.6706 279.252 21.3125C279.473 20.9544 279.815 20.6094 280.277 20.2773C280.108 20.1992 279.962 20.1016 279.838 19.9844C279.714 19.8672 279.613 19.7402 279.535 19.6035C279.457 19.4603 279.398 19.3105 279.359 19.1543C279.32 18.998 279.301 18.8451 279.301 18.6953C279.301 18.2721 279.398 17.8848 279.594 17.5332C279.796 17.1816 280.033 16.8496 280.307 16.5371C280.183 16.3874 280.072 16.2409 279.975 16.0977C279.883 15.9544 279.802 15.8014 279.73 15.6387C279.665 15.4694 279.613 15.2904 279.574 15.1016C279.542 14.9062 279.525 14.6849 279.525 14.4375C279.525 13.9297 279.617 13.4674 279.799 13.0508C279.988 12.6276 280.248 12.2663 280.58 11.9668C280.919 11.6673 281.322 11.4362 281.791 11.2734C282.266 11.1042 282.79 11.0195 283.363 11.0195C283.604 11.0195 283.835 11.0358 284.057 11.0684C284.278 11.1009 284.473 11.1432 284.643 11.1953H288.197V12.582H286.625ZM280.727 22.416C280.727 22.8783 280.967 23.2135 281.449 23.4219C281.931 23.6367 282.602 23.7441 283.461 23.7441C284.001 23.7441 284.454 23.6953 284.818 23.5977C285.189 23.5 285.486 23.3698 285.707 23.207C285.935 23.0508 286.098 22.8685 286.195 22.6602C286.293 22.4583 286.342 22.25 286.342 22.0352C286.342 21.638 286.179 21.3451 285.854 21.1562C285.528 20.9674 285.03 20.8568 284.359 20.8242L281.801 20.7363C281.586 20.8796 281.407 21.0195 281.264 21.1562C281.127 21.293 281.02 21.4297 280.941 21.5664C280.863 21.7096 280.808 21.8496 280.775 21.9863C280.743 22.1296 280.727 22.2728 280.727 22.416ZM281.244 14.3984C281.244 14.7109 281.296 14.9974 281.4 15.2578C281.505 15.5182 281.651 15.7396 281.84 15.9219C282.029 16.1042 282.25 16.2474 282.504 16.3516C282.764 16.4492 283.051 16.498 283.363 16.498C283.702 16.498 284.001 16.4427 284.262 16.332C284.529 16.2148 284.75 16.0586 284.926 15.8633C285.108 15.668 285.245 15.4434 285.336 15.1895C285.434 14.9355 285.482 14.6719 285.482 14.3984C285.482 14.0859 285.43 13.7995 285.326 13.5391C285.222 13.2786 285.076 13.0573 284.887 12.875C284.698 12.6927 284.473 12.5527 284.213 12.4551C283.959 12.3509 283.676 12.2988 283.363 12.2988C283.025 12.2988 282.722 12.3574 282.455 12.4746C282.195 12.5918 281.973 12.748 281.791 12.9434C281.615 13.1322 281.479 13.3535 281.381 13.6074C281.29 13.8613 281.244 14.125 281.244 14.3984ZM298.441 21H296.742V14.7402C296.742 13.985 296.599 13.4219 296.312 13.0508C296.033 12.6732 295.629 12.4844 295.102 12.4844C294.874 12.4844 294.659 12.5169 294.457 12.582C294.262 12.6406 294.057 12.748 293.842 12.9043C293.627 13.054 293.393 13.2591 293.139 13.5195C292.885 13.7799 292.592 14.1055 292.26 14.4961V21H290.561V7.20117H292.26V11.1953L292.201 12.7383C292.468 12.4193 292.729 12.1523 292.982 11.9375C293.243 11.7161 293.5 11.5371 293.754 11.4004C294.014 11.2637 294.278 11.166 294.545 11.1074C294.812 11.0488 295.089 11.0195 295.375 11.0195C296.352 11.0195 297.107 11.319 297.641 11.918C298.174 12.5104 298.441 13.4056 298.441 14.6035V21ZM309.457 20.8633C309.073 20.9609 308.676 21.0293 308.266 21.0684C307.855 21.1139 307.439 21.1367 307.016 21.1367C305.785 21.1367 304.867 20.86 304.262 20.3066C303.656 19.7467 303.354 18.8906 303.354 17.7383V12.6211H300.609V11.1953H303.354V8.5L305.053 8.06055V11.1953H309.457V12.6211H305.053V17.6016C305.053 18.3047 305.238 18.832 305.609 19.1836C305.987 19.5286 306.54 19.7012 307.27 19.7012C307.582 19.7012 307.924 19.6784 308.295 19.6328C308.666 19.5807 309.053 19.5026 309.457 19.3984V20.8633Z" fill="#777777"/>
<rect x="-1" y="1" width="61" height="28" rx="6" transform="matrix(-1 0 0 1 313 0)" stroke="#777777" stroke-width="2"/>
<path d="M282.293 57.7071C282.683 58.0976 283.317 58.0976 283.707 57.7071L290.071 51.3431C290.462 50.9526 290.462 50.3195 290.071 49.9289C289.681 49.5384 289.047 49.5384 288.657 49.9289L283 55.5858L277.343 49.9289C276.953 49.5384 276.319 49.5384 275.929 49.9289C275.538 50.3195 275.538 50.9526 275.929 51.3431L282.293 57.7071ZM282 29L282 57L284 57L284 29L282 29Z" fill="#777777"/>
<path d="M21.5918 145.521C21.5918 145.97 21.5156 146.372 21.3633 146.728C21.2109 147.083 21.0036 147.4 20.7412 147.68C20.4788 147.951 20.1742 148.183 19.8271 148.378C19.4801 148.573 19.1077 148.733 18.71 148.86C18.3206 148.987 17.9186 149.08 17.5039 149.14C17.0892 149.199 16.6829 149.229 16.2852 149.229C15.4219 149.229 14.6263 149.19 13.8984 149.114C13.179 149.038 12.4723 148.915 11.7783 148.746V146.715C12.5231 146.926 13.2637 147.087 14 147.197C14.7363 147.307 15.4684 147.362 16.1963 147.362C17.2542 147.362 18.0371 147.218 18.5449 146.931C19.0527 146.643 19.3066 146.232 19.3066 145.699C19.3066 145.471 19.2643 145.268 19.1797 145.09C19.1035 144.904 18.9596 144.73 18.748 144.569C18.5365 144.4 18.2064 144.227 17.7578 144.049C17.3177 143.871 16.7126 143.668 15.9424 143.439C15.3669 143.27 14.8337 143.08 14.3428 142.868C13.8604 142.648 13.4414 142.39 13.0859 142.094C12.7305 141.798 12.4512 141.451 12.248 141.053C12.0449 140.655 11.9434 140.185 11.9434 139.644C11.9434 139.288 12.0238 138.899 12.1846 138.476C12.3538 138.052 12.6374 137.659 13.0352 137.295C13.4329 136.931 13.9704 136.631 14.6475 136.394C15.3245 136.148 16.1709 136.025 17.1865 136.025C17.6859 136.025 18.2402 136.055 18.8496 136.114C19.459 136.165 20.0938 136.258 20.7539 136.394V138.361C20.0599 138.192 19.3997 138.069 18.7734 137.993C18.1556 137.909 17.6182 137.866 17.1611 137.866C16.611 137.866 16.1455 137.909 15.7646 137.993C15.3923 138.078 15.0876 138.196 14.8506 138.349C14.6221 138.493 14.457 138.666 14.3555 138.869C14.2539 139.064 14.2031 139.275 14.2031 139.504C14.2031 139.732 14.2454 139.94 14.3301 140.126C14.4232 140.312 14.5882 140.494 14.8252 140.672C15.0706 140.841 15.4092 141.015 15.8408 141.192C16.2725 141.362 16.8353 141.548 17.5293 141.751C18.2826 141.971 18.9173 142.204 19.4336 142.449C19.9499 142.686 20.3688 142.953 20.6904 143.249C21.012 143.545 21.2406 143.88 21.376 144.252C21.5199 144.624 21.5918 145.048 21.5918 145.521ZM37.6006 136.254L35.7471 149H33.0684L31.2275 143.668L30.8594 142.373L30.4404 143.744L28.6758 149H26.0732L24.2324 136.254H26.3906L27.457 144.912L27.6855 146.842L28.2314 145.153L30.085 139.428H31.6719L33.665 145.077L34.2363 146.766L34.4268 144.976L35.417 136.254H37.6006ZM48.2773 149L48.2266 147.286C47.5326 147.972 46.8258 148.467 46.1064 148.771C45.3955 149.076 44.6465 149.229 43.8594 149.229C43.1315 149.229 42.5094 149.135 41.9932 148.949C41.4769 148.763 41.0495 148.509 40.7109 148.188C40.3809 147.857 40.1354 147.472 39.9746 147.032C39.8223 146.592 39.7461 146.114 39.7461 145.598C39.7461 144.32 40.2201 143.321 41.168 142.602C42.1243 141.874 43.5335 141.51 45.3955 141.51H48.0361V140.393C48.0361 139.639 47.7949 139.038 47.3125 138.59C46.8301 138.133 46.0938 137.904 45.1035 137.904C44.3841 137.904 43.6732 137.985 42.9707 138.146C42.2767 138.306 41.5573 138.535 40.8125 138.831V136.838C41.0918 136.736 41.4007 136.639 41.7393 136.546C42.0863 136.444 42.4502 136.355 42.8311 136.279C43.2119 136.203 43.6097 136.144 44.0244 136.102C44.4391 136.051 44.8581 136.025 45.2812 136.025C46.0514 136.025 46.7454 136.11 47.3633 136.279C47.9811 136.449 48.5016 136.707 48.9248 137.054C49.3564 137.401 49.6865 137.837 49.915 138.361C50.1436 138.886 50.2578 139.504 50.2578 140.215V149H48.2773ZM48.0361 143.198H45.2305C44.6803 143.198 44.2064 143.253 43.8086 143.363C43.4108 143.473 43.085 143.63 42.8311 143.833C42.5771 144.036 42.3867 144.282 42.2598 144.569C42.1413 144.849 42.082 145.166 42.082 145.521C42.082 145.767 42.1201 146.004 42.1963 146.232C42.2725 146.452 42.3952 146.651 42.5645 146.829C42.7337 146.998 42.9538 147.134 43.2246 147.235C43.4954 147.337 43.8255 147.388 44.2148 147.388C44.7227 147.388 45.3024 147.235 45.9541 146.931C46.6143 146.618 47.3083 146.127 48.0361 145.458V143.198ZM65.2764 142.398C65.2764 143.533 65.1156 144.523 64.7939 145.369C64.4808 146.215 64.0449 146.918 63.4863 147.477C62.9277 148.035 62.2676 148.454 61.5059 148.733C60.7441 149.013 59.9189 149.152 59.0303 149.152C58.624 149.152 58.2178 149.131 57.8115 149.089C57.4137 149.047 57.0075 148.975 56.5928 148.873V154.205H54.3838V136.254H56.3516L56.4912 138.387C57.126 137.515 57.8031 136.906 58.5225 136.559C59.2419 136.203 60.0205 136.025 60.8584 136.025C61.5863 136.025 62.2253 136.178 62.7754 136.482C63.3255 136.787 63.7868 137.219 64.1592 137.777C64.5316 138.327 64.8109 138.996 64.9971 139.783C65.1833 140.562 65.2764 141.434 65.2764 142.398ZM63.0166 142.5C63.0166 141.831 62.9658 141.218 62.8643 140.659C62.7712 140.101 62.6188 139.622 62.4072 139.225C62.1956 138.827 61.9248 138.518 61.5947 138.298C61.2646 138.069 60.8711 137.955 60.4141 137.955C60.1348 137.955 59.8512 138.002 59.5635 138.095C59.2757 138.179 58.9753 138.327 58.6621 138.539C58.3574 138.742 58.0316 139.017 57.6846 139.364C57.346 139.703 56.9821 140.126 56.5928 140.634V146.816C56.999 146.986 57.4264 147.121 57.875 147.223C58.3236 147.316 58.7637 147.362 59.1953 147.362C60.3887 147.362 61.3239 146.96 62.001 146.156C62.6781 145.344 63.0166 144.125 63.0166 142.5ZM79.5713 142.398C79.5713 143.533 79.4105 144.523 79.0889 145.369C78.7757 146.215 78.3398 146.918 77.7812 147.477C77.2227 148.035 76.5625 148.454 75.8008 148.733C75.0391 149.013 74.2139 149.152 73.3252 149.152C72.9189 149.152 72.5127 149.131 72.1064 149.089C71.7087 149.047 71.3024 148.975 70.8877 148.873V154.205H68.6787V136.254H70.6465L70.7861 138.387C71.4209 137.515 72.098 136.906 72.8174 136.559C73.5368 136.203 74.3154 136.025 75.1533 136.025C75.8812 136.025 76.5202 136.178 77.0703 136.482C77.6204 136.787 78.0817 137.219 78.4541 137.777C78.8265 138.327 79.1058 138.996 79.292 139.783C79.4782 140.562 79.5713 141.434 79.5713 142.398ZM77.3115 142.5C77.3115 141.831 77.2607 141.218 77.1592 140.659C77.0661 140.101 76.9137 139.622 76.7021 139.225C76.4906 138.827 76.2197 138.518 75.8896 138.298C75.5596 138.069 75.166 137.955 74.709 137.955C74.4297 137.955 74.1462 138.002 73.8584 138.095C73.5706 138.179 73.2702 138.327 72.957 138.539C72.6523 138.742 72.3265 139.017 71.9795 139.364C71.641 139.703 71.277 140.126 70.8877 140.634V146.816C71.2939 146.986 71.7214 147.121 72.1699 147.223C72.6185 147.316 73.0586 147.362 73.4902 147.362C74.6836 147.362 75.6188 146.96 76.2959 146.156C76.973 145.344 77.3115 144.125 77.3115 142.5ZM93.7393 141.954C93.7393 142.267 93.735 142.53 93.7266 142.741C93.7181 142.953 93.7054 143.152 93.6885 143.338H84.7383C84.7383 144.641 85.1022 145.644 85.8301 146.347C86.5579 147.041 87.6074 147.388 88.9785 147.388C89.3509 147.388 89.7233 147.375 90.0957 147.35C90.4681 147.316 90.8278 147.273 91.1748 147.223C91.5218 147.172 91.8519 147.117 92.165 147.058C92.4867 146.99 92.7829 146.918 93.0537 146.842V148.657C92.4528 148.826 91.7715 148.962 91.0098 149.063C90.2565 149.174 89.4736 149.229 88.6611 149.229C87.5693 149.229 86.6299 149.08 85.8428 148.784C85.0557 148.488 84.4082 148.061 83.9004 147.502C83.401 146.935 83.0286 146.245 82.7832 145.433C82.5462 144.612 82.4277 143.685 82.4277 142.652C82.4277 141.755 82.5547 140.909 82.8086 140.113C83.071 139.309 83.4476 138.607 83.9385 138.006C84.4378 137.396 85.0472 136.914 85.7666 136.559C86.486 136.203 87.3027 136.025 88.2168 136.025C89.1055 136.025 89.8926 136.165 90.5781 136.444C91.2637 136.724 91.8392 137.121 92.3047 137.638C92.7786 138.146 93.1341 138.768 93.3711 139.504C93.6165 140.232 93.7393 141.049 93.7393 141.954ZM91.4414 141.637C91.4668 141.07 91.4118 140.553 91.2764 140.088C91.141 139.614 90.9294 139.208 90.6416 138.869C90.3623 138.531 90.0111 138.268 89.5879 138.082C89.1647 137.887 88.6738 137.79 88.1152 137.79C87.6328 137.79 87.1927 137.883 86.7949 138.069C86.3971 138.256 86.0544 138.518 85.7666 138.856C85.4788 139.195 85.2461 139.601 85.0684 140.075C84.8906 140.549 84.7806 141.07 84.7383 141.637H91.4414ZM96.6211 142.894C96.6211 141.81 96.7692 140.85 97.0654 140.012C97.3617 139.165 97.7806 138.454 98.3223 137.879C98.8724 137.295 99.5283 136.855 100.29 136.559C101.06 136.254 101.915 136.102 102.854 136.102C103.261 136.102 103.659 136.127 104.048 136.178C104.446 136.229 104.835 136.309 105.216 136.419V131.062H107.438V149H105.457L105.381 146.588C104.763 147.485 104.094 148.149 103.375 148.581C102.656 149.013 101.877 149.229 101.039 149.229C100.311 149.229 99.668 149.076 99.1094 148.771C98.5592 148.467 98.098 148.039 97.7256 147.489C97.3617 146.931 97.0866 146.262 96.9004 145.483C96.7142 144.705 96.6211 143.841 96.6211 142.894ZM98.8809 142.754C98.8809 144.294 99.1051 145.445 99.5537 146.207C100.011 146.96 100.654 147.337 101.483 147.337C102.042 147.337 102.63 147.087 103.248 146.588C103.874 146.089 104.53 145.348 105.216 144.366V138.45C104.852 138.281 104.45 138.154 104.01 138.069C103.57 137.976 103.134 137.93 102.702 137.93C101.5 137.93 100.561 138.319 99.8838 139.098C99.2152 139.876 98.8809 141.095 98.8809 142.754Z" fill="#FF0000"/>
<path d="M34.0182 117.81C34.1229 117.268 34.6474 116.913 35.1897 117.018L44.0263 118.725C44.5685 118.83 44.9232 119.355 44.8184 119.897C44.7137 120.439 44.1891 120.794 43.6469 120.689L35.7921 119.172L34.2746 127.026C34.1698 127.569 33.6453 127.923 33.103 127.818C32.5608 127.714 32.2061 127.189 32.3109 126.647L34.0182 117.81ZM84.7562 117.03C85.2918 116.896 85.8352 117.221 85.9698 117.756L88.1639 126.485C88.2985 127.02 87.9734 127.564 87.4378 127.698C86.9022 127.833 86.3588 127.508 86.2242 126.972L84.274 119.214L76.5153 121.164C75.9797 121.299 75.4363 120.973 75.3017 120.438C75.1671 119.902 75.4921 119.359 76.0277 119.224L84.7562 117.03ZM35.8284 117.44C40.9485 125.012 50.6709 128.962 60.3978 129C70.1283 129.037 79.5496 125.163 84.1418 117.487L85.8582 118.513C80.7866 126.991 70.565 131.039 60.39 131C50.2115 130.96 39.7658 126.834 34.1716 118.56L35.8284 117.44Z" fill="#FF0000"/>
</g>
<defs>
<clipPath id="clip0_6296_6543">
<rect width="370" height="156" fill="white"/>
</clipPath>
</defs>
</svg>
