<svg width="716" height="213" viewBox="0 0 716 213" fill="none" xmlns="http://www.w3.org/2000/svg">
<g clip-path="url(#clip0_6288_2474)">
<rect width="716" height="213" fill="white"/>
<path d="M124.124 177.521C124.124 177.97 124.048 178.372 123.896 178.728C123.743 179.083 123.536 179.4 123.273 179.68C123.011 179.951 122.706 180.183 122.359 180.378C122.012 180.573 121.64 180.733 121.242 180.86C120.853 180.987 120.451 181.08 120.036 181.14C119.621 181.199 119.215 181.229 118.817 181.229C117.954 181.229 117.159 181.19 116.431 181.114C115.711 181.038 115.005 180.915 114.311 180.746V178.715C115.055 178.926 115.796 179.087 116.532 179.197C117.269 179.307 118.001 179.362 118.729 179.362C119.786 179.362 120.569 179.218 121.077 178.931C121.585 178.643 121.839 178.232 121.839 177.699C121.839 177.471 121.797 177.268 121.712 177.09C121.636 176.904 121.492 176.73 121.28 176.569C121.069 176.4 120.739 176.227 120.29 176.049C119.85 175.871 119.245 175.668 118.475 175.439C117.899 175.27 117.366 175.08 116.875 174.868C116.393 174.648 115.974 174.39 115.618 174.094C115.263 173.798 114.983 173.451 114.78 173.053C114.577 172.655 114.476 172.185 114.476 171.644C114.476 171.288 114.556 170.899 114.717 170.476C114.886 170.052 115.17 169.659 115.567 169.295C115.965 168.931 116.503 168.631 117.18 168.394C117.857 168.148 118.703 168.025 119.719 168.025C120.218 168.025 120.772 168.055 121.382 168.114C121.991 168.165 122.626 168.258 123.286 168.394V170.361C122.592 170.192 121.932 170.069 121.306 169.993C120.688 169.909 120.15 169.866 119.693 169.866C119.143 169.866 118.678 169.909 118.297 169.993C117.924 170.078 117.62 170.196 117.383 170.349C117.154 170.493 116.989 170.666 116.888 170.869C116.786 171.064 116.735 171.275 116.735 171.504C116.735 171.732 116.778 171.94 116.862 172.126C116.955 172.312 117.12 172.494 117.357 172.672C117.603 172.841 117.941 173.015 118.373 173.192C118.805 173.362 119.368 173.548 120.062 173.751C120.815 173.971 121.45 174.204 121.966 174.449C122.482 174.686 122.901 174.953 123.223 175.249C123.544 175.545 123.773 175.88 123.908 176.252C124.052 176.624 124.124 177.048 124.124 177.521ZM139.422 174.525C139.422 175.516 139.282 176.425 139.003 177.255C138.724 178.076 138.322 178.783 137.797 179.375C137.272 179.959 136.633 180.416 135.88 180.746C135.127 181.068 134.272 181.229 133.315 181.229C132.401 181.229 131.58 181.089 130.853 180.81C130.133 180.522 129.52 180.103 129.012 179.553C128.512 179.003 128.127 178.321 127.856 177.509C127.594 176.696 127.463 175.761 127.463 174.703C127.463 173.713 127.603 172.812 127.882 171.999C128.161 171.178 128.563 170.476 129.088 169.892C129.613 169.299 130.252 168.842 131.005 168.521C131.758 168.19 132.613 168.025 133.569 168.025C134.483 168.025 135.3 168.169 136.02 168.457C136.747 168.736 137.361 169.151 137.86 169.701C138.368 170.243 138.753 170.92 139.016 171.732C139.286 172.545 139.422 173.476 139.422 174.525ZM137.162 174.627C137.162 173.84 137.073 173.154 136.896 172.57C136.726 171.978 136.481 171.487 136.159 171.098C135.838 170.7 135.444 170.404 134.979 170.209C134.521 170.006 134.009 169.904 133.442 169.904C132.782 169.904 132.215 170.035 131.741 170.298C131.276 170.552 130.891 170.895 130.586 171.326C130.29 171.758 130.07 172.261 129.926 172.837C129.79 173.404 129.723 174.001 129.723 174.627C129.723 175.414 129.807 176.104 129.977 176.696C130.154 177.289 130.404 177.784 130.726 178.182C131.047 178.571 131.437 178.867 131.894 179.07C132.351 179.265 132.867 179.362 133.442 179.362C134.103 179.362 134.665 179.235 135.131 178.981C135.605 178.719 135.99 178.372 136.286 177.94C136.591 177.509 136.811 177.009 136.946 176.442C137.09 175.867 137.162 175.262 137.162 174.627ZM143.142 168.254H145.16L145.224 170.603C145.977 169.697 146.717 169.041 147.445 168.635C148.182 168.229 148.922 168.025 149.667 168.025C150.987 168.025 151.986 168.453 152.663 169.308C153.349 170.162 153.666 171.432 153.615 173.116H151.381C151.406 171.999 151.241 171.191 150.886 170.691C150.539 170.184 150.027 169.93 149.35 169.93C149.053 169.93 148.753 169.985 148.448 170.095C148.152 170.196 147.843 170.366 147.521 170.603C147.208 170.831 146.874 171.127 146.519 171.491C146.163 171.855 145.782 172.295 145.376 172.812V181H143.142V168.254ZM167.187 180.822C166.687 180.949 166.171 181.038 165.638 181.089C165.104 181.148 164.563 181.178 164.013 181.178C162.413 181.178 161.22 180.818 160.433 180.099C159.646 179.371 159.252 178.258 159.252 176.76V170.107H155.685V168.254H159.252V164.75L161.461 164.179V168.254H167.187V170.107H161.461V176.582C161.461 177.496 161.702 178.182 162.185 178.639C162.675 179.087 163.395 179.312 164.343 179.312C164.749 179.312 165.193 179.282 165.676 179.223C166.158 179.155 166.662 179.053 167.187 178.918V180.822ZM181.977 173.954C181.977 174.267 181.972 174.53 181.964 174.741C181.955 174.953 181.943 175.152 181.926 175.338H172.976C172.976 176.641 173.34 177.644 174.067 178.347C174.795 179.041 175.845 179.388 177.216 179.388C177.588 179.388 177.961 179.375 178.333 179.35C178.705 179.316 179.065 179.273 179.412 179.223C179.759 179.172 180.089 179.117 180.402 179.058C180.724 178.99 181.02 178.918 181.291 178.842V180.657C180.69 180.826 180.009 180.962 179.247 181.063C178.494 181.174 177.711 181.229 176.898 181.229C175.807 181.229 174.867 181.08 174.08 180.784C173.293 180.488 172.646 180.061 172.138 179.502C171.638 178.935 171.266 178.245 171.021 177.433C170.784 176.612 170.665 175.685 170.665 174.652C170.665 173.755 170.792 172.909 171.046 172.113C171.308 171.309 171.685 170.607 172.176 170.006C172.675 169.396 173.285 168.914 174.004 168.559C174.723 168.203 175.54 168.025 176.454 168.025C177.343 168.025 178.13 168.165 178.815 168.444C179.501 168.724 180.076 169.121 180.542 169.638C181.016 170.146 181.371 170.768 181.608 171.504C181.854 172.232 181.977 173.049 181.977 173.954ZM179.679 173.637C179.704 173.07 179.649 172.553 179.514 172.088C179.378 171.614 179.167 171.208 178.879 170.869C178.6 170.531 178.248 170.268 177.825 170.082C177.402 169.887 176.911 169.79 176.353 169.79C175.87 169.79 175.43 169.883 175.032 170.069C174.634 170.256 174.292 170.518 174.004 170.856C173.716 171.195 173.483 171.601 173.306 172.075C173.128 172.549 173.018 173.07 172.976 173.637H179.679ZM184.858 174.894C184.858 173.81 185.007 172.85 185.303 172.012C185.599 171.165 186.018 170.454 186.56 169.879C187.11 169.295 187.766 168.855 188.527 168.559C189.298 168.254 190.152 168.102 191.092 168.102C191.498 168.102 191.896 168.127 192.285 168.178C192.683 168.229 193.072 168.309 193.453 168.419V163.062H195.675V181H193.694L193.618 178.588C193 179.485 192.332 180.149 191.612 180.581C190.893 181.013 190.114 181.229 189.276 181.229C188.549 181.229 187.905 181.076 187.347 180.771C186.797 180.467 186.335 180.039 185.963 179.489C185.599 178.931 185.324 178.262 185.138 177.483C184.951 176.705 184.858 175.841 184.858 174.894ZM187.118 174.754C187.118 176.294 187.342 177.445 187.791 178.207C188.248 178.96 188.891 179.337 189.721 179.337C190.279 179.337 190.868 179.087 191.485 178.588C192.112 178.089 192.768 177.348 193.453 176.366V170.45C193.089 170.281 192.687 170.154 192.247 170.069C191.807 169.976 191.371 169.93 190.939 169.93C189.738 169.93 188.798 170.319 188.121 171.098C187.452 171.876 187.118 173.095 187.118 174.754ZM204.917 168.025C205.179 168.025 205.429 168.08 205.666 168.19C205.903 168.292 206.11 168.432 206.288 168.609C206.466 168.787 206.605 168.994 206.707 169.231C206.817 169.468 206.872 169.718 206.872 169.98C206.872 170.251 206.817 170.505 206.707 170.742C206.605 170.971 206.466 171.174 206.288 171.352C206.11 171.529 205.903 171.669 205.666 171.771C205.429 171.872 205.179 171.923 204.917 171.923C204.646 171.923 204.392 171.872 204.155 171.771C203.927 171.669 203.724 171.529 203.546 171.352C203.368 171.174 203.229 170.971 203.127 170.742C203.025 170.505 202.975 170.251 202.975 169.98C202.975 169.718 203.025 169.468 203.127 169.231C203.229 168.994 203.368 168.787 203.546 168.609C203.724 168.432 203.927 168.292 204.155 168.19C204.392 168.08 204.646 168.025 204.917 168.025ZM204.917 177.331C205.179 177.331 205.429 177.386 205.666 177.496C205.903 177.598 206.11 177.737 206.288 177.915C206.466 178.093 206.605 178.3 206.707 178.537C206.817 178.774 206.872 179.024 206.872 179.286C206.872 179.557 206.817 179.811 206.707 180.048C206.605 180.276 206.466 180.479 206.288 180.657C206.11 180.835 205.903 180.975 205.666 181.076C205.429 181.178 205.179 181.229 204.917 181.229C204.646 181.229 204.392 181.178 204.155 181.076C203.927 180.975 203.724 180.835 203.546 180.657C203.368 180.479 203.229 180.276 203.127 180.048C203.025 179.811 202.975 179.557 202.975 179.286C202.975 179.024 203.025 178.774 203.127 178.537C203.229 178.3 203.368 178.093 203.546 177.915C203.724 177.737 203.927 177.598 204.155 177.496C204.392 177.386 204.646 177.331 204.917 177.331ZM236.998 186.205H230.739V162.617H236.998V164.395H232.847V184.428H236.998V186.205ZM267.606 181H257.184V178.943H261.449V166.832L257.476 168.99L256.663 167.111L261.944 164.331H263.899V178.943H267.606V181ZM325.751 177.331H322.92V181H320.66V177.331H312.675V175.389L319.746 164.407H322.92V175.389H325.751V177.331ZM320.66 166.54L314.884 175.389H320.66V166.54ZM381.687 175.693C381.687 176.514 381.509 177.263 381.153 177.94C380.798 178.618 380.307 179.201 379.681 179.692C379.063 180.175 378.331 180.551 377.484 180.822C376.638 181.093 375.724 181.229 374.742 181.229C374.497 181.229 374.23 181.22 373.942 181.203C373.663 181.195 373.384 181.178 373.104 181.152C372.825 181.135 372.55 181.114 372.279 181.089C372.017 181.063 371.78 181.034 371.568 181V178.994C372.025 179.104 372.546 179.185 373.13 179.235C373.722 179.286 374.319 179.312 374.92 179.312C375.597 179.312 376.206 179.231 376.748 179.07C377.29 178.91 377.751 178.681 378.132 178.385C378.513 178.08 378.805 177.716 379.008 177.293C379.211 176.861 379.312 176.379 379.312 175.846C379.312 174.813 378.94 174.064 378.195 173.599C377.459 173.125 376.397 172.888 375.009 172.888H371.86V164.407H380.798V166.337H373.942V170.996H375.39C376.185 170.996 376.96 171.068 377.713 171.212C378.466 171.356 379.135 171.61 379.719 171.974C380.311 172.329 380.785 172.812 381.141 173.421C381.505 174.022 381.687 174.779 381.687 175.693ZM439.196 166.464L432.239 181H429.713L436.937 166.464H427.974V164.407H439.196V166.464ZM496.376 171.771C496.376 173.387 496.181 174.779 495.792 175.947C495.403 177.107 494.827 178.063 494.065 178.816C493.304 179.561 492.36 180.111 491.234 180.467C490.109 180.822 488.81 181 487.337 181H485.953V179.07H487.489C488.581 179.07 489.525 178.96 490.32 178.74C491.116 178.52 491.776 178.199 492.301 177.775C492.834 177.344 493.24 176.823 493.52 176.214C493.799 175.596 493.972 174.894 494.04 174.106L494.091 173.586C493.558 173.899 492.944 174.153 492.25 174.348C491.556 174.534 490.803 174.627 489.99 174.627C489.152 174.627 488.416 174.504 487.781 174.259C487.146 174.013 486.618 173.671 486.194 173.23C485.78 172.79 485.466 172.27 485.255 171.669C485.043 171.06 484.938 170.399 484.938 169.688C484.938 168.918 485.077 168.199 485.356 167.53C485.636 166.862 486.025 166.282 486.524 165.791C487.032 165.292 487.637 164.898 488.34 164.61C489.042 164.323 489.817 164.179 490.663 164.179C491.484 164.179 492.242 164.314 492.936 164.585C493.638 164.856 494.243 165.296 494.751 165.905C495.259 166.506 495.657 167.289 495.944 168.254C496.232 169.219 496.376 170.391 496.376 171.771ZM490.562 165.994C490.088 165.994 489.647 166.075 489.241 166.235C488.843 166.388 488.496 166.616 488.2 166.921C487.912 167.217 487.684 167.585 487.515 168.025C487.345 168.465 487.261 168.969 487.261 169.536C487.261 170.052 487.32 170.514 487.438 170.92C487.565 171.326 487.756 171.673 488.01 171.961C488.272 172.24 488.606 172.456 489.013 172.608C489.419 172.761 489.901 172.837 490.46 172.837C490.773 172.837 491.095 172.807 491.425 172.748C491.763 172.689 492.089 172.608 492.402 172.507C492.724 172.405 493.029 172.287 493.316 172.151C493.604 172.016 493.862 171.872 494.091 171.72C494.091 170.628 494.01 169.718 493.85 168.99C493.689 168.254 493.456 167.666 493.151 167.226C492.847 166.777 492.474 166.46 492.034 166.273C491.603 166.087 491.112 165.994 490.562 165.994ZM549.085 181H538.662V178.943H542.928V166.832L538.954 168.99L538.142 167.111L543.423 164.331H545.378V178.943H549.085V181ZM563.9 172.71C563.9 173.979 563.773 175.139 563.519 176.188C563.266 177.229 562.88 178.127 562.364 178.88C561.848 179.625 561.205 180.204 560.434 180.619C559.673 181.025 558.776 181.229 557.743 181.229C556.854 181.229 556.046 181.063 555.318 180.733C554.59 180.395 553.968 179.879 553.452 179.185C552.936 178.491 552.538 177.606 552.259 176.531C551.979 175.456 551.84 174.183 551.84 172.71C551.84 171.44 551.967 170.281 552.221 169.231C552.483 168.182 552.868 167.285 553.376 166.54C553.892 165.787 554.535 165.207 555.306 164.801C556.076 164.386 556.973 164.179 557.997 164.179C558.886 164.179 559.694 164.348 560.422 164.687C561.15 165.017 561.772 165.533 562.288 166.235C562.804 166.929 563.202 167.814 563.481 168.889C563.761 169.964 563.9 171.237 563.9 172.71ZM561.666 172.786C561.666 172.498 561.653 172.215 561.628 171.936C561.611 171.648 561.59 171.368 561.564 171.098L554.544 176.315C554.671 176.756 554.832 177.162 555.026 177.534C555.221 177.907 555.454 178.228 555.725 178.499C556.004 178.761 556.317 178.969 556.664 179.121C557.019 179.265 557.421 179.337 557.87 179.337C558.446 179.337 558.966 179.197 559.432 178.918C559.906 178.639 560.308 178.224 560.638 177.674C560.968 177.124 561.222 176.442 561.399 175.63C561.577 174.809 561.666 173.861 561.666 172.786ZM554.074 172.634C554.074 172.896 554.074 173.159 554.074 173.421C554.083 173.683 554.1 173.937 554.125 174.183L561.145 168.99C561.018 168.559 560.858 168.165 560.663 167.81C560.468 167.454 560.236 167.149 559.965 166.896C559.694 166.633 559.385 166.43 559.038 166.286C558.691 166.142 558.302 166.07 557.87 166.07C557.295 166.07 556.77 166.21 556.296 166.489C555.83 166.769 555.433 167.188 555.102 167.746C554.772 168.296 554.518 168.982 554.341 169.803C554.163 170.615 554.074 171.559 554.074 172.634ZM589.227 186.205H582.969V184.428H587.095V164.395H582.969V162.617H589.227V186.205Z" fill="black"/>
<path d="M11.4951 19H8.46094L2.51953 12.1699V19H0.310547V1.06152H2.51953V12.0811L8.24512 6.25391H11.165L5.18555 12.1318L11.4951 19ZM23.2383 13.1221H15.6465V11.04H23.2383V13.1221ZM38.7139 15.5215C38.7139 15.9701 38.6377 16.3721 38.4854 16.7275C38.333 17.083 38.1257 17.4004 37.8633 17.6797C37.6009 17.9505 37.2962 18.1833 36.9492 18.3779C36.6022 18.5726 36.2298 18.7334 35.832 18.8604C35.4427 18.9873 35.0407 19.0804 34.626 19.1396C34.2113 19.1989 33.805 19.2285 33.4072 19.2285C32.5439 19.2285 31.7484 19.1904 31.0205 19.1143C30.3011 19.0381 29.5944 18.9154 28.9004 18.7461V16.7148C29.6452 16.9264 30.3857 17.0872 31.1221 17.1973C31.8584 17.3073 32.5905 17.3623 33.3184 17.3623C34.3763 17.3623 35.1592 17.2184 35.667 16.9307C36.1748 16.6429 36.4287 16.2324 36.4287 15.6992C36.4287 15.4707 36.3864 15.2676 36.3018 15.0898C36.2256 14.9036 36.0817 14.7301 35.8701 14.5693C35.6585 14.4001 35.3285 14.2266 34.8799 14.0488C34.4398 13.8711 33.8346 13.668 33.0645 13.4395C32.4889 13.2702 31.9557 13.0798 31.4648 12.8682C30.9824 12.6481 30.5635 12.39 30.208 12.0938C29.8525 11.7975 29.5732 11.4505 29.3701 11.0527C29.167 10.6549 29.0654 10.1852 29.0654 9.64355C29.0654 9.28809 29.1458 8.89876 29.3066 8.47559C29.4759 8.05241 29.7594 7.65885 30.1572 7.29492C30.555 6.93099 31.0924 6.63053 31.7695 6.39355C32.4466 6.14811 33.293 6.02539 34.3086 6.02539C34.8079 6.02539 35.3623 6.05501 35.9717 6.11426C36.5811 6.16504 37.2158 6.25814 37.876 6.39355V8.36133C37.182 8.19206 36.5218 8.06934 35.8955 7.99316C35.2777 7.90853 34.7402 7.86621 34.2832 7.86621C33.7331 7.86621 33.2676 7.90853 32.8867 7.99316C32.5143 8.0778 32.2096 8.19629 31.9727 8.34863C31.7441 8.49251 31.5791 8.66602 31.4775 8.86914C31.376 9.0638 31.3252 9.27539 31.3252 9.50391C31.3252 9.73242 31.3675 9.93978 31.4521 10.126C31.5452 10.3122 31.7103 10.4941 31.9473 10.6719C32.1927 10.8411 32.5312 11.0146 32.9629 11.1924C33.3945 11.3617 33.9574 11.5479 34.6514 11.751C35.4046 11.971 36.0394 12.2038 36.5557 12.4492C37.0719 12.6862 37.4909 12.9528 37.8125 13.249C38.1341 13.5452 38.3626 13.8796 38.498 14.252C38.6419 14.6243 38.7139 15.0475 38.7139 15.5215ZM54.0117 12.5254C54.0117 13.5156 53.8721 14.4255 53.5928 15.2549C53.3135 16.0758 52.9115 16.7826 52.3867 17.375C51.862 17.959 51.223 18.416 50.4697 18.7461C49.7165 19.0677 48.8617 19.2285 47.9053 19.2285C46.9912 19.2285 46.1702 19.0889 45.4424 18.8096C44.723 18.5218 44.1094 18.1029 43.6016 17.5527C43.1022 17.0026 42.7171 16.3213 42.4463 15.5088C42.1839 14.6963 42.0527 13.7611 42.0527 12.7031C42.0527 11.7129 42.1924 10.8115 42.4717 9.99902C42.751 9.17806 43.153 8.47559 43.6777 7.8916C44.2025 7.29915 44.8415 6.84212 45.5947 6.52051C46.348 6.19043 47.2028 6.02539 48.1592 6.02539C49.0732 6.02539 49.89 6.16927 50.6094 6.45703C51.3372 6.73633 51.9508 7.15104 52.4502 7.70117C52.958 8.24284 53.3431 8.91992 53.6055 9.73242C53.8763 10.5449 54.0117 11.4759 54.0117 12.5254ZM51.752 12.627C51.752 11.8398 51.6631 11.1543 51.4854 10.5703C51.3161 9.97786 51.0706 9.48698 50.749 9.09766C50.4274 8.69987 50.0339 8.40365 49.5684 8.20898C49.1113 8.00586 48.5993 7.9043 48.0322 7.9043C47.3721 7.9043 46.805 8.03548 46.3311 8.29785C45.8656 8.55176 45.4805 8.89453 45.1758 9.32617C44.8796 9.75781 44.6595 10.2614 44.5156 10.8369C44.3802 11.404 44.3125 12.0007 44.3125 12.627C44.3125 13.4141 44.3971 14.1038 44.5664 14.6963C44.7441 15.2887 44.9938 15.7839 45.3154 16.1816C45.637 16.571 46.0264 16.8672 46.4834 17.0703C46.9404 17.265 47.4567 17.3623 48.0322 17.3623C48.6924 17.3623 49.2552 17.2354 49.7207 16.9814C50.1947 16.7191 50.5798 16.3721 50.876 15.9404C51.1807 15.5088 51.4007 15.0094 51.5361 14.4424C51.68 13.8669 51.752 13.2617 51.752 12.627ZM57.7314 6.25391H59.75L59.8135 8.60254C60.5667 7.69694 61.3073 7.04102 62.0352 6.63477C62.7715 6.22852 63.512 6.02539 64.2568 6.02539C65.5771 6.02539 66.5758 6.4528 67.2529 7.30762C67.9385 8.16243 68.2559 9.43197 68.2051 11.1162H65.9707C65.9961 9.99902 65.8311 9.19076 65.4756 8.69141C65.1286 8.18359 64.6165 7.92969 63.9395 7.92969C63.6432 7.92969 63.3428 7.9847 63.0381 8.09473C62.7419 8.19629 62.4329 8.36556 62.1113 8.60254C61.7982 8.83105 61.4639 9.12728 61.1084 9.49121C60.7529 9.85514 60.3721 10.2952 59.9658 10.8115V19H57.7314V6.25391ZM81.7764 18.8223C81.277 18.9492 80.7607 19.0381 80.2275 19.0889C79.6943 19.1481 79.1527 19.1777 78.6025 19.1777C77.0029 19.1777 75.8096 18.818 75.0225 18.0986C74.2354 17.3708 73.8418 16.2578 73.8418 14.7598V8.10742H70.2744V6.25391H73.8418V2.75L76.0508 2.17871V6.25391H81.7764V8.10742H76.0508V14.582C76.0508 15.4961 76.292 16.1816 76.7744 16.6387C77.2653 17.0872 77.9847 17.3115 78.9326 17.3115C79.3389 17.3115 79.7832 17.2819 80.2656 17.2227C80.748 17.1549 81.2516 17.0534 81.7764 16.918V18.8223ZM96.5664 11.9541C96.5664 12.2673 96.5622 12.5296 96.5537 12.7412C96.5452 12.9528 96.5326 13.1517 96.5156 13.3379H87.5654C87.5654 14.6413 87.9294 15.6442 88.6572 16.3467C89.3851 17.0407 90.4346 17.3877 91.8057 17.3877C92.1781 17.3877 92.5505 17.375 92.9229 17.3496C93.2952 17.3158 93.6549 17.2734 94.002 17.2227C94.349 17.1719 94.679 17.1169 94.9922 17.0576C95.3138 16.9899 95.61 16.918 95.8809 16.8418V18.6572C95.2799 18.8265 94.5986 18.9619 93.8369 19.0635C93.0837 19.1735 92.3008 19.2285 91.4883 19.2285C90.3965 19.2285 89.457 19.0804 88.6699 18.7842C87.8828 18.488 87.2354 18.0605 86.7275 17.502C86.2282 16.9349 85.8558 16.2451 85.6104 15.4326C85.3734 14.6117 85.2549 13.6849 85.2549 12.6523C85.2549 11.7552 85.3818 10.9089 85.6357 10.1133C85.8981 9.30924 86.2747 8.60677 86.7656 8.00586C87.265 7.39648 87.8743 6.91406 88.5938 6.55859C89.3132 6.20312 90.1299 6.02539 91.0439 6.02539C91.9326 6.02539 92.7197 6.16504 93.4053 6.44434C94.0908 6.72363 94.6663 7.12142 95.1318 7.6377C95.6058 8.14551 95.9613 8.76758 96.1982 9.50391C96.4437 10.2318 96.5664 11.0485 96.5664 11.9541ZM94.2686 11.6367C94.2939 11.0697 94.2389 10.5534 94.1035 10.0879C93.9681 9.61393 93.7565 9.20768 93.4688 8.86914C93.1895 8.5306 92.8382 8.26823 92.415 8.08203C91.9919 7.88737 91.501 7.79004 90.9424 7.79004C90.46 7.79004 90.0199 7.88314 89.6221 8.06934C89.2243 8.25553 88.8815 8.5179 88.5938 8.85645C88.306 9.19499 88.0732 9.60124 87.8955 10.0752C87.7178 10.5492 87.6077 11.0697 87.5654 11.6367H94.2686ZM99.4482 12.8936C99.4482 11.8102 99.5964 10.8496 99.8926 10.0117C100.189 9.16536 100.608 8.45443 101.149 7.87891C101.7 7.29492 102.355 6.85482 103.117 6.55859C103.887 6.25391 104.742 6.10156 105.682 6.10156C106.088 6.10156 106.486 6.12695 106.875 6.17773C107.273 6.22852 107.662 6.30892 108.043 6.41895V1.06152H110.265V19H108.284L108.208 16.5879C107.59 17.485 106.922 18.1494 106.202 18.5811C105.483 19.0127 104.704 19.2285 103.866 19.2285C103.138 19.2285 102.495 19.0762 101.937 18.7715C101.386 18.4668 100.925 18.0394 100.553 17.4893C100.189 16.9307 99.9137 16.262 99.7275 15.4834C99.5413 14.7048 99.4482 13.8415 99.4482 12.8936ZM101.708 12.7539C101.708 14.2943 101.932 15.4453 102.381 16.207C102.838 16.9603 103.481 17.3369 104.311 17.3369C104.869 17.3369 105.457 17.0872 106.075 16.5879C106.701 16.0885 107.357 15.348 108.043 14.3662V8.4502C107.679 8.28092 107.277 8.15397 106.837 8.06934C106.397 7.97624 105.961 7.92969 105.529 7.92969C104.327 7.92969 103.388 8.31901 102.711 9.09766C102.042 9.8763 101.708 11.0951 101.708 12.7539ZM136.874 19L136.823 17.2861C136.129 17.9717 135.423 18.4668 134.703 18.7715C133.992 19.0762 133.243 19.2285 132.456 19.2285C131.728 19.2285 131.106 19.1354 130.59 18.9492C130.074 18.763 129.646 18.5091 129.308 18.1875C128.978 17.8574 128.732 17.4723 128.571 17.0322C128.419 16.5921 128.343 16.1139 128.343 15.5977C128.343 14.3197 128.817 13.321 129.765 12.6016C130.721 11.8737 132.13 11.5098 133.992 11.5098H136.633V10.3926C136.633 9.63932 136.392 9.03841 135.909 8.58984C135.427 8.13281 134.69 7.9043 133.7 7.9043C132.981 7.9043 132.27 7.9847 131.567 8.14551C130.873 8.30632 130.154 8.53483 129.409 8.83105V6.83789C129.688 6.73633 129.997 6.639 130.336 6.5459C130.683 6.44434 131.047 6.35547 131.428 6.2793C131.809 6.20312 132.206 6.14388 132.621 6.10156C133.036 6.05078 133.455 6.02539 133.878 6.02539C134.648 6.02539 135.342 6.11003 135.96 6.2793C136.578 6.44857 137.098 6.70671 137.521 7.05371C137.953 7.40072 138.283 7.83659 138.512 8.36133C138.74 8.88607 138.854 9.50391 138.854 10.2148V19H136.874ZM136.633 13.1982H133.827C133.277 13.1982 132.803 13.2533 132.405 13.3633C132.007 13.4733 131.682 13.6299 131.428 13.833C131.174 14.0361 130.983 14.2816 130.856 14.5693C130.738 14.8486 130.679 15.166 130.679 15.5215C130.679 15.7669 130.717 16.0039 130.793 16.2324C130.869 16.4525 130.992 16.6514 131.161 16.8291C131.33 16.9984 131.55 17.1338 131.821 17.2354C132.092 17.3369 132.422 17.3877 132.812 17.3877C133.319 17.3877 133.899 17.2354 134.551 16.9307C135.211 16.6175 135.905 16.1266 136.633 15.458V13.1982ZM143.501 6.25391H145.52L145.583 8.60254C146.336 7.69694 147.077 7.04102 147.805 6.63477C148.541 6.22852 149.282 6.02539 150.026 6.02539C151.347 6.02539 152.345 6.4528 153.022 7.30762C153.708 8.16243 154.025 9.43197 153.975 11.1162H151.74C151.766 9.99902 151.601 9.19076 151.245 8.69141C150.898 8.18359 150.386 7.92969 149.709 7.92969C149.413 7.92969 149.112 7.9847 148.808 8.09473C148.511 8.19629 148.202 8.36556 147.881 8.60254C147.568 8.83105 147.233 9.12728 146.878 9.49121C146.522 9.85514 146.142 10.2952 145.735 10.8115V19H143.501V6.25391ZM157.796 6.25391H159.814L159.878 8.60254C160.631 7.69694 161.372 7.04102 162.1 6.63477C162.836 6.22852 163.576 6.02539 164.321 6.02539C165.642 6.02539 166.64 6.4528 167.317 7.30762C168.003 8.16243 168.32 9.43197 168.27 11.1162H166.035C166.061 9.99902 165.896 9.19076 165.54 8.69141C165.193 8.18359 164.681 7.92969 164.004 7.92969C163.708 7.92969 163.407 7.9847 163.103 8.09473C162.806 8.19629 162.497 8.36556 162.176 8.60254C161.863 8.83105 161.528 9.12728 161.173 9.49121C160.817 9.85514 160.437 10.2952 160.03 10.8115V19H157.796V6.25391ZM179.759 19L179.708 17.2861C179.014 17.9717 178.307 18.4668 177.588 18.7715C176.877 19.0762 176.128 19.2285 175.341 19.2285C174.613 19.2285 173.991 19.1354 173.475 18.9492C172.958 18.763 172.531 18.5091 172.192 18.1875C171.862 17.8574 171.617 17.4723 171.456 17.0322C171.304 16.5921 171.228 16.1139 171.228 15.5977C171.228 14.3197 171.701 13.321 172.649 12.6016C173.606 11.8737 175.015 11.5098 176.877 11.5098H179.518V10.3926C179.518 9.63932 179.276 9.03841 178.794 8.58984C178.312 8.13281 177.575 7.9043 176.585 7.9043C175.866 7.9043 175.155 7.9847 174.452 8.14551C173.758 8.30632 173.039 8.53483 172.294 8.83105V6.83789C172.573 6.73633 172.882 6.639 173.221 6.5459C173.568 6.44434 173.932 6.35547 174.312 6.2793C174.693 6.20312 175.091 6.14388 175.506 6.10156C175.921 6.05078 176.34 6.02539 176.763 6.02539C177.533 6.02539 178.227 6.11003 178.845 6.2793C179.463 6.44857 179.983 6.70671 180.406 7.05371C180.838 7.40072 181.168 7.83659 181.396 8.36133C181.625 8.88607 181.739 9.50391 181.739 10.2148V19H179.759ZM179.518 13.1982H176.712C176.162 13.1982 175.688 13.2533 175.29 13.3633C174.892 13.4733 174.566 13.6299 174.312 13.833C174.059 14.0361 173.868 14.2816 173.741 14.5693C173.623 14.8486 173.563 15.166 173.563 15.5215C173.563 15.7669 173.602 16.0039 173.678 16.2324C173.754 16.4525 173.877 16.6514 174.046 16.8291C174.215 16.9984 174.435 17.1338 174.706 17.2354C174.977 17.3369 175.307 17.3877 175.696 17.3877C176.204 17.3877 176.784 17.2354 177.436 16.9307C178.096 16.6175 178.79 16.1266 179.518 15.458V13.1982ZM197.202 6.25391L192.86 17.6543C192.412 18.8138 191.946 19.8125 191.464 20.6504C190.99 21.4883 190.469 22.1738 189.902 22.707C189.335 23.2487 188.713 23.6465 188.036 23.9004C187.359 24.1543 186.602 24.2812 185.764 24.2812C185.544 24.2812 185.345 24.277 185.167 24.2686C184.989 24.2601 184.795 24.2474 184.583 24.2305V22.2246C184.769 22.25 184.972 22.2712 185.192 22.2881C185.412 22.3135 185.645 22.3262 185.891 22.3262C186.297 22.3262 186.674 22.2669 187.021 22.1484C187.376 22.0299 187.71 21.8353 188.023 21.5645C188.337 21.3021 188.637 20.9593 188.925 20.5361C189.213 20.113 189.492 19.6009 189.763 19L184.672 6.25391H187.186L190.41 14.6836L191.058 16.6641L191.794 14.6328L194.777 6.25391H197.202ZM205.276 6.02539C205.539 6.02539 205.788 6.0804 206.025 6.19043C206.262 6.29199 206.47 6.43164 206.647 6.60938C206.825 6.78711 206.965 6.99447 207.066 7.23145C207.176 7.46842 207.231 7.7181 207.231 7.98047C207.231 8.2513 207.176 8.50521 207.066 8.74219C206.965 8.9707 206.825 9.17383 206.647 9.35156C206.47 9.5293 206.262 9.66895 206.025 9.77051C205.788 9.87207 205.539 9.92285 205.276 9.92285C205.006 9.92285 204.752 9.87207 204.515 9.77051C204.286 9.66895 204.083 9.5293 203.905 9.35156C203.728 9.17383 203.588 8.9707 203.486 8.74219C203.385 8.50521 203.334 8.2513 203.334 7.98047C203.334 7.7181 203.385 7.46842 203.486 7.23145C203.588 6.99447 203.728 6.78711 203.905 6.60938C204.083 6.43164 204.286 6.29199 204.515 6.19043C204.752 6.0804 205.006 6.02539 205.276 6.02539ZM205.276 15.3311C205.539 15.3311 205.788 15.3861 206.025 15.4961C206.262 15.5977 206.47 15.7373 206.647 15.915C206.825 16.0928 206.965 16.3001 207.066 16.5371C207.176 16.7741 207.231 17.0238 207.231 17.2861C207.231 17.557 207.176 17.8109 207.066 18.0479C206.965 18.2764 206.825 18.4795 206.647 18.6572C206.47 18.835 206.262 18.9746 206.025 19.0762C205.788 19.1777 205.539 19.2285 205.276 19.2285C205.006 19.2285 204.752 19.1777 204.515 19.0762C204.286 18.9746 204.083 18.835 203.905 18.6572C203.728 18.4795 203.588 18.2764 203.486 18.0479C203.385 17.8109 203.334 17.557 203.334 17.2861C203.334 17.0238 203.385 16.7741 203.486 16.5371C203.588 16.3001 203.728 16.0928 203.905 15.915C204.083 15.7373 204.286 15.5977 204.515 15.4961C204.752 15.3861 205.006 15.3311 205.276 15.3311ZM237.357 24.2051H231.099V0.617188H237.357V2.39453H233.206V22.4277H237.357V24.2051ZM267.687 13.6934C267.687 14.5143 267.509 15.2633 267.153 15.9404C266.798 16.6175 266.307 17.2015 265.681 17.6924C265.063 18.1748 264.331 18.5514 263.484 18.8223C262.638 19.0931 261.724 19.2285 260.742 19.2285C260.497 19.2285 260.23 19.2201 259.942 19.2031C259.663 19.1947 259.384 19.1777 259.104 19.1523C258.825 19.1354 258.55 19.1143 258.279 19.0889C258.017 19.0635 257.78 19.0339 257.568 19V16.9941C258.025 17.1042 258.546 17.1846 259.13 17.2354C259.722 17.2861 260.319 17.3115 260.92 17.3115C261.597 17.3115 262.206 17.2311 262.748 17.0703C263.29 16.9095 263.751 16.681 264.132 16.3848C264.513 16.0801 264.805 15.7161 265.008 15.293C265.211 14.8613 265.312 14.3789 265.312 13.8457C265.312 12.8132 264.94 12.0641 264.195 11.5986C263.459 11.1247 262.397 10.8877 261.009 10.8877H257.86V2.40723H266.798V4.33691H259.942V8.99609H261.39C262.185 8.99609 262.96 9.06803 263.713 9.21191C264.466 9.35579 265.135 9.6097 265.719 9.97363C266.311 10.3291 266.785 10.8115 267.141 11.4209C267.505 12.0218 267.687 12.7793 267.687 13.6934ZM325.146 19H314.723V16.9434H318.988V4.83203L315.015 6.99023L314.202 5.11133L319.483 2.33105H321.438V16.9434H325.146V19ZM382.376 9.77051C382.376 11.387 382.181 12.7793 381.792 13.9473C381.403 15.1068 380.827 16.0632 380.065 16.8164C379.304 17.5612 378.36 18.1113 377.234 18.4668C376.109 18.8223 374.81 19 373.337 19H371.953V17.0703H373.489C374.581 17.0703 375.525 16.9603 376.32 16.7402C377.116 16.5202 377.776 16.1986 378.301 15.7754C378.834 15.3438 379.24 14.8232 379.52 14.2139C379.799 13.596 379.972 12.8936 380.04 12.1064L380.091 11.5859C379.558 11.8991 378.944 12.153 378.25 12.3477C377.556 12.5339 376.803 12.627 375.99 12.627C375.152 12.627 374.416 12.5042 373.781 12.2588C373.146 12.0133 372.618 11.6706 372.194 11.2305C371.78 10.7904 371.466 10.2699 371.255 9.66895C371.043 9.05957 370.938 8.39941 370.938 7.68848C370.938 6.91829 371.077 6.19889 371.356 5.53027C371.636 4.86165 372.025 4.2819 372.524 3.79102C373.032 3.29167 373.637 2.89811 374.34 2.61035C375.042 2.32259 375.817 2.17871 376.663 2.17871C377.484 2.17871 378.242 2.31413 378.936 2.58496C379.638 2.85579 380.243 3.2959 380.751 3.90527C381.259 4.50618 381.657 5.28906 381.944 6.25391C382.232 7.21875 382.376 8.39095 382.376 9.77051ZM376.562 3.99414C376.088 3.99414 375.647 4.07454 375.241 4.23535C374.843 4.3877 374.496 4.61621 374.2 4.9209C373.912 5.21712 373.684 5.58529 373.515 6.02539C373.345 6.46549 373.261 6.96908 373.261 7.53613C373.261 8.05241 373.32 8.51367 373.438 8.91992C373.565 9.32617 373.756 9.67318 374.01 9.96094C374.272 10.2402 374.606 10.4561 375.013 10.6084C375.419 10.7607 375.901 10.8369 376.46 10.8369C376.773 10.8369 377.095 10.8073 377.425 10.748C377.763 10.6888 378.089 10.6084 378.402 10.5068C378.724 10.4053 379.029 10.2868 379.316 10.1514C379.604 10.016 379.862 9.87207 380.091 9.71973C380.091 8.62793 380.01 7.7181 379.85 6.99023C379.689 6.25391 379.456 5.66569 379.151 5.22559C378.847 4.77702 378.474 4.45964 378.034 4.27344C377.603 4.08724 377.112 3.99414 376.562 3.99414ZM440.47 15.3311H437.639V19H435.379V15.3311H427.394V13.3887L434.465 2.40723H437.639V13.3887H440.47V15.3311ZM435.379 4.54004L429.603 13.3887H435.379V4.54004ZM496.735 4.46387L489.778 19H487.252L494.476 4.46387H485.513V2.40723H496.735V4.46387ZM549.444 19H539.021V16.9434H543.287V4.83203L539.313 6.99023L538.501 5.11133L543.782 2.33105H545.737V16.9434H549.444V19ZM564.26 10.71C564.26 11.9795 564.133 13.139 563.879 14.1885C563.625 15.2295 563.24 16.1266 562.724 16.8799C562.207 17.6247 561.564 18.2044 560.794 18.6191C560.032 19.0254 559.135 19.2285 558.102 19.2285C557.214 19.2285 556.406 19.0635 555.678 18.7334C554.95 18.3949 554.328 17.8786 553.811 17.1846C553.295 16.4906 552.897 15.6061 552.618 14.5312C552.339 13.4564 552.199 12.1826 552.199 10.71C552.199 9.44043 552.326 8.28092 552.58 7.23145C552.842 6.18197 553.227 5.28483 553.735 4.54004C554.252 3.78678 554.895 3.20703 555.665 2.80078C556.435 2.38607 557.332 2.17871 558.356 2.17871C559.245 2.17871 560.053 2.34798 560.781 2.68652C561.509 3.0166 562.131 3.53288 562.647 4.23535C563.164 4.92936 563.561 5.8138 563.841 6.88867C564.12 7.96354 564.26 9.2373 564.26 10.71ZM562.025 10.7861C562.025 10.4984 562.013 10.2148 561.987 9.93555C561.97 9.64779 561.949 9.36849 561.924 9.09766L554.903 14.3154C555.03 14.7555 555.191 15.1618 555.386 15.5342C555.58 15.9066 555.813 16.2282 556.084 16.499C556.363 16.7614 556.676 16.9688 557.023 17.1211C557.379 17.265 557.781 17.3369 558.229 17.3369C558.805 17.3369 559.325 17.1973 559.791 16.918C560.265 16.6387 560.667 16.224 560.997 15.6738C561.327 15.1237 561.581 14.4424 561.759 13.6299C561.936 12.8089 562.025 11.861 562.025 10.7861ZM554.434 10.6338C554.434 10.8962 554.434 11.1585 554.434 11.4209C554.442 11.6833 554.459 11.9372 554.484 12.1826L561.505 6.99023C561.378 6.55859 561.217 6.16504 561.022 5.80957C560.828 5.4541 560.595 5.14941 560.324 4.89551C560.053 4.63314 559.744 4.43001 559.397 4.28613C559.05 4.14225 558.661 4.07031 558.229 4.07031C557.654 4.07031 557.129 4.20996 556.655 4.48926C556.19 4.76855 555.792 5.1875 555.462 5.74609C555.132 6.29622 554.878 6.98177 554.7 7.80273C554.522 8.61523 554.434 9.55892 554.434 10.6338ZM589.587 24.2051H583.328V22.4277H587.454V2.39453H583.328V0.617188H589.587V24.2051Z" fill="black"/>
<path d="M612.727 21.6025C613.158 21.6195 613.577 21.5814 613.983 21.4883C614.39 21.3952 614.745 21.2555 615.05 21.0693C615.363 20.8916 615.613 20.6673 615.799 20.3965C615.985 20.1257 616.078 19.8167 616.078 19.4697C616.078 19.1143 616.015 18.8265 615.888 18.6064C615.769 18.3864 615.634 18.1833 615.481 17.9971C615.329 17.8109 615.189 17.612 615.062 17.4004C614.944 17.1888 614.885 16.9053 614.885 16.5498C614.885 16.3721 614.919 16.1859 614.986 15.9912C615.054 15.7965 615.156 15.6188 615.291 15.458C615.435 15.2972 615.613 15.166 615.824 15.0645C616.044 14.9629 616.302 14.9121 616.599 14.9121C616.895 14.9121 617.178 14.9756 617.449 15.1025C617.729 15.221 617.97 15.4072 618.173 15.6611C618.384 15.915 618.549 16.2324 618.668 16.6133C618.795 16.9941 618.858 17.4427 618.858 17.959C618.858 18.6615 618.727 19.3343 618.465 19.9775C618.211 20.6292 617.826 21.2048 617.31 21.7041C616.802 22.2035 616.163 22.6012 615.393 22.8975C614.631 23.1937 613.742 23.3418 612.727 23.3418V21.6025Z" fill="black"/>
<path d="M658.021 19H654.986L649.045 12.1699V19H646.836V1.06152H649.045V12.0811L654.771 6.25391H657.69L651.711 12.1318L658.021 19ZM685.722 10.7988H674.804V8.93262H685.722V10.7988ZM685.722 15.2168H674.804V13.3506H685.722V15.2168ZM714.502 19H703.571V17.0195L707.862 12.7539C708.565 12.0599 709.136 11.459 709.576 10.9512C710.016 10.4434 710.359 9.9821 710.604 9.56738C710.85 9.14421 711.015 8.74642 711.1 8.37402C711.184 8.00163 711.227 7.59961 711.227 7.16797C711.227 6.76172 711.172 6.37663 711.062 6.0127C710.951 5.6403 710.782 5.31445 710.554 5.03516C710.325 4.75586 710.029 4.53581 709.665 4.375C709.301 4.21419 708.865 4.13379 708.357 4.13379C707.655 4.13379 707.016 4.29036 706.44 4.60352C705.865 4.91667 705.336 5.32292 704.854 5.82227L703.635 4.3623C704.261 3.70215 704.98 3.17318 705.793 2.77539C706.614 2.3776 707.566 2.17871 708.649 2.17871C709.386 2.17871 710.054 2.28874 710.655 2.50879C711.265 2.72884 711.789 3.04622 712.229 3.46094C712.67 3.87565 713.008 4.38346 713.245 4.98438C713.491 5.58529 713.613 6.26237 713.613 7.01562C713.613 7.65039 713.529 8.23861 713.359 8.78027C713.19 9.32194 712.932 9.86361 712.585 10.4053C712.246 10.9385 711.815 11.4928 711.29 12.0684C710.774 12.6439 710.16 13.2744 709.449 13.96L706.44 16.8926H714.502V19Z" fill="black"/>
<path opacity="0.5" d="M267.639 38.623C267.639 39.5996 267.541 40.4915 267.346 41.2988C267.15 42.0996 266.854 42.7897 266.457 43.3691C266.06 43.9421 265.565 44.388 264.973 44.707C264.387 45.0195 263.697 45.1758 262.902 45.1758C262.219 45.1758 261.597 45.0488 261.037 44.7949C260.477 44.5345 259.999 44.1374 259.602 43.6035C259.204 43.0697 258.898 42.3893 258.684 41.5625C258.469 40.7357 258.361 39.7559 258.361 38.623C258.361 37.6465 258.459 36.7546 258.654 35.9473C258.856 35.14 259.152 34.4499 259.543 33.877C259.94 33.2975 260.435 32.8516 261.027 32.5391C261.62 32.2201 262.31 32.0605 263.098 32.0605C263.781 32.0605 264.403 32.1908 264.963 32.4512C265.523 32.7051 266.001 33.1022 266.398 33.6426C266.796 34.1764 267.102 34.8568 267.316 35.6836C267.531 36.5104 267.639 37.4902 267.639 38.623ZM265.92 38.6816C265.92 38.4603 265.91 38.2422 265.891 38.0273C265.878 37.806 265.861 37.5911 265.842 37.3828L260.441 41.3965C260.539 41.735 260.663 42.0475 260.812 42.334C260.962 42.6204 261.141 42.8678 261.35 43.0762C261.564 43.278 261.805 43.4375 262.072 43.5547C262.346 43.6654 262.655 43.7207 263 43.7207C263.443 43.7207 263.843 43.6133 264.201 43.3984C264.566 43.1836 264.875 42.8646 265.129 42.4414C265.383 42.0182 265.578 41.4941 265.715 40.8691C265.852 40.2376 265.92 39.5085 265.92 38.6816ZM260.08 38.5645C260.08 38.7663 260.08 38.9681 260.08 39.1699C260.087 39.3717 260.1 39.5671 260.119 39.7559L265.52 35.7617C265.422 35.4297 265.298 35.127 265.148 34.8535C264.999 34.5801 264.82 34.3457 264.611 34.1504C264.403 33.9486 264.165 33.7923 263.898 33.6816C263.632 33.571 263.332 33.5156 263 33.5156C262.557 33.5156 262.154 33.623 261.789 33.8379C261.431 34.0527 261.125 34.375 260.871 34.8047C260.617 35.2279 260.422 35.7552 260.285 36.3867C260.148 37.0117 260.08 37.7376 260.08 38.5645Z" fill="black"/>
<path opacity="0.5" d="M325.238 45H317.221V43.418H320.502V34.1016L317.445 35.7617L316.82 34.3164L320.883 32.1777H322.387V43.418H325.238V45Z" fill="black"/>
<path opacity="0.5" d="M381.346 45H372.938V43.4766L376.238 40.1953C376.779 39.6615 377.218 39.1992 377.557 38.8086C377.895 38.418 378.159 38.0632 378.348 37.7441C378.536 37.4186 378.663 37.1126 378.729 36.8262C378.794 36.5397 378.826 36.2305 378.826 35.8984C378.826 35.5859 378.784 35.2897 378.699 35.0098C378.615 34.7233 378.484 34.4727 378.309 34.2578C378.133 34.043 377.905 33.8737 377.625 33.75C377.345 33.6263 377.01 33.5645 376.619 33.5645C376.079 33.5645 375.587 33.6849 375.145 33.9258C374.702 34.1667 374.295 34.4792 373.924 34.8633L372.986 33.7402C373.468 33.2324 374.021 32.8255 374.646 32.5195C375.278 32.2135 376.01 32.0605 376.844 32.0605C377.41 32.0605 377.924 32.1452 378.387 32.3145C378.855 32.4837 379.259 32.7279 379.598 33.0469C379.936 33.3659 380.197 33.7565 380.379 34.2188C380.568 34.681 380.662 35.2018 380.662 35.7812C380.662 36.2695 380.597 36.722 380.467 37.1387C380.337 37.5553 380.138 37.972 379.871 38.3887C379.611 38.7988 379.279 39.2253 378.875 39.668C378.478 40.1107 378.006 40.5957 377.459 41.123L375.145 43.3789H381.346V45Z" fill="black"/>
<path opacity="0.5" d="M438.102 41.123C438.102 41.6829 437.988 42.2103 437.76 42.7051C437.532 43.1934 437.19 43.623 436.734 43.9941C436.279 44.3587 435.706 44.6484 435.016 44.8633C434.326 45.0716 433.521 45.1758 432.604 45.1758C432.096 45.1758 431.64 45.1595 431.236 45.127C430.833 45.0944 430.455 45.0521 430.104 45V43.4766C430.507 43.5482 430.934 43.6035 431.383 43.6426C431.832 43.6816 432.291 43.7012 432.76 43.7012C433.398 43.7012 433.941 43.6458 434.391 43.5352C434.846 43.418 435.217 43.252 435.504 43.0371C435.79 42.8223 435.999 42.5618 436.129 42.2559C436.259 41.9499 436.324 41.6048 436.324 41.2207C436.324 40.8691 436.246 40.5632 436.09 40.3027C435.934 40.0423 435.712 39.8242 435.426 39.6484C435.146 39.4727 434.807 39.3424 434.41 39.2578C434.02 39.1667 433.59 39.1211 433.121 39.1211H431.666V37.7246H433.141C433.525 37.7246 433.873 37.6758 434.186 37.5781C434.505 37.474 434.775 37.3275 434.996 37.1387C435.224 36.9499 435.396 36.7188 435.514 36.4453C435.637 36.1654 435.699 35.8496 435.699 35.498C435.699 34.8145 435.491 34.3164 435.074 34.0039C434.658 33.6914 434.046 33.5352 433.238 33.5352C432.809 33.5352 432.366 33.5775 431.91 33.6621C431.454 33.7467 430.966 33.8737 430.445 34.043V32.5586C430.667 32.4805 430.901 32.4121 431.148 32.3535C431.402 32.2884 431.653 32.2363 431.9 32.1973C432.154 32.1517 432.405 32.1191 432.652 32.0996C432.9 32.0736 433.137 32.0605 433.365 32.0605C434.042 32.0605 434.638 32.1354 435.152 32.2852C435.667 32.4284 436.096 32.6367 436.441 32.9102C436.786 33.1836 437.047 33.5156 437.223 33.9062C437.398 34.2969 437.486 34.7363 437.486 35.2246C437.486 35.9538 437.298 36.5658 436.92 37.0605C436.549 37.5553 436.038 37.9492 435.387 38.2422C435.719 38.2943 436.044 38.3984 436.363 38.5547C436.689 38.7109 436.979 38.9128 437.232 39.1602C437.493 39.401 437.701 39.6875 437.857 40.0195C438.02 40.3516 438.102 40.7194 438.102 41.123Z" fill="black"/>
<path opacity="0.5" d="M496.98 42.1777H494.803V45H493.064V42.1777H486.922V40.6836L492.361 32.2363H494.803V40.6836H496.98V42.1777ZM493.064 33.877L488.621 40.6836H493.064V33.877Z" fill="black"/>
<path opacity="0.5" d="M555.023 40.918C555.023 41.5495 554.887 42.1257 554.613 42.6465C554.34 43.1673 553.962 43.6165 553.48 43.9941C553.005 44.3652 552.442 44.6549 551.791 44.8633C551.14 45.0716 550.437 45.1758 549.682 45.1758C549.493 45.1758 549.288 45.1693 549.066 45.1562C548.852 45.1497 548.637 45.1367 548.422 45.1172C548.207 45.1042 547.995 45.0879 547.787 45.0684C547.585 45.0488 547.403 45.026 547.24 45V43.457C547.592 43.5417 547.992 43.6035 548.441 43.6426C548.897 43.6816 549.356 43.7012 549.818 43.7012C550.339 43.7012 550.808 43.6393 551.225 43.5156C551.641 43.3919 551.996 43.2161 552.289 42.9883C552.582 42.7539 552.807 42.474 552.963 42.1484C553.119 41.8164 553.197 41.4453 553.197 41.0352C553.197 40.2409 552.911 39.6647 552.338 39.3066C551.771 38.9421 550.954 38.7598 549.887 38.7598H547.465V32.2363H554.34V33.7207H549.066V37.3047H550.18C550.792 37.3047 551.387 37.36 551.967 37.4707C552.546 37.5814 553.061 37.7767 553.51 38.0566C553.965 38.3301 554.33 38.7012 554.604 39.1699C554.883 39.6322 555.023 40.2148 555.023 40.918Z" fill="black"/>
<path opacity="0.5" d="M267.639 203.623C267.639 204.6 267.541 205.492 267.346 206.299C267.15 207.1 266.854 207.79 266.457 208.369C266.06 208.942 265.565 209.388 264.973 209.707C264.387 210.02 263.697 210.176 262.902 210.176C262.219 210.176 261.597 210.049 261.037 209.795C260.477 209.535 259.999 209.137 259.602 208.604C259.204 208.07 258.898 207.389 258.684 206.562C258.469 205.736 258.361 204.756 258.361 203.623C258.361 202.646 258.459 201.755 258.654 200.947C258.856 200.14 259.152 199.45 259.543 198.877C259.94 198.298 260.435 197.852 261.027 197.539C261.62 197.22 262.31 197.061 263.098 197.061C263.781 197.061 264.403 197.191 264.963 197.451C265.523 197.705 266.001 198.102 266.398 198.643C266.796 199.176 267.102 199.857 267.316 200.684C267.531 201.51 267.639 202.49 267.639 203.623ZM265.92 203.682C265.92 203.46 265.91 203.242 265.891 203.027C265.878 202.806 265.861 202.591 265.842 202.383L260.441 206.396C260.539 206.735 260.663 207.048 260.812 207.334C260.962 207.62 261.141 207.868 261.35 208.076C261.564 208.278 261.805 208.438 262.072 208.555C262.346 208.665 262.655 208.721 263 208.721C263.443 208.721 263.843 208.613 264.201 208.398C264.566 208.184 264.875 207.865 265.129 207.441C265.383 207.018 265.578 206.494 265.715 205.869C265.852 205.238 265.92 204.508 265.92 203.682ZM260.08 203.564C260.08 203.766 260.08 203.968 260.08 204.17C260.087 204.372 260.1 204.567 260.119 204.756L265.52 200.762C265.422 200.43 265.298 200.127 265.148 199.854C264.999 199.58 264.82 199.346 264.611 199.15C264.403 198.949 264.165 198.792 263.898 198.682C263.632 198.571 263.332 198.516 263 198.516C262.557 198.516 262.154 198.623 261.789 198.838C261.431 199.053 261.125 199.375 260.871 199.805C260.617 200.228 260.422 200.755 260.285 201.387C260.148 202.012 260.08 202.738 260.08 203.564Z" fill="black"/>
<path opacity="0.5" d="M325.238 210H317.221V208.418H320.502V199.102L317.445 200.762L316.82 199.316L320.883 197.178H322.387V208.418H325.238V210Z" fill="black"/>
<path opacity="0.5" d="M381.346 210H372.938V208.477L376.238 205.195C376.779 204.661 377.218 204.199 377.557 203.809C377.895 203.418 378.159 203.063 378.348 202.744C378.536 202.419 378.663 202.113 378.729 201.826C378.794 201.54 378.826 201.23 378.826 200.898C378.826 200.586 378.784 200.29 378.699 200.01C378.615 199.723 378.484 199.473 378.309 199.258C378.133 199.043 377.905 198.874 377.625 198.75C377.345 198.626 377.01 198.564 376.619 198.564C376.079 198.564 375.587 198.685 375.145 198.926C374.702 199.167 374.295 199.479 373.924 199.863L372.986 198.74C373.468 198.232 374.021 197.826 374.646 197.52C375.278 197.214 376.01 197.061 376.844 197.061C377.41 197.061 377.924 197.145 378.387 197.314C378.855 197.484 379.259 197.728 379.598 198.047C379.936 198.366 380.197 198.757 380.379 199.219C380.568 199.681 380.662 200.202 380.662 200.781C380.662 201.27 380.597 201.722 380.467 202.139C380.337 202.555 380.138 202.972 379.871 203.389C379.611 203.799 379.279 204.225 378.875 204.668C378.478 205.111 378.006 205.596 377.459 206.123L375.145 208.379H381.346V210Z" fill="black"/>
<path opacity="0.5" d="M438.102 206.123C438.102 206.683 437.988 207.21 437.76 207.705C437.532 208.193 437.19 208.623 436.734 208.994C436.279 209.359 435.706 209.648 435.016 209.863C434.326 210.072 433.521 210.176 432.604 210.176C432.096 210.176 431.64 210.16 431.236 210.127C430.833 210.094 430.455 210.052 430.104 210V208.477C430.507 208.548 430.934 208.604 431.383 208.643C431.832 208.682 432.291 208.701 432.76 208.701C433.398 208.701 433.941 208.646 434.391 208.535C434.846 208.418 435.217 208.252 435.504 208.037C435.79 207.822 435.999 207.562 436.129 207.256C436.259 206.95 436.324 206.605 436.324 206.221C436.324 205.869 436.246 205.563 436.09 205.303C435.934 205.042 435.712 204.824 435.426 204.648C435.146 204.473 434.807 204.342 434.41 204.258C434.02 204.167 433.59 204.121 433.121 204.121H431.666V202.725H433.141C433.525 202.725 433.873 202.676 434.186 202.578C434.505 202.474 434.775 202.327 434.996 202.139C435.224 201.95 435.396 201.719 435.514 201.445C435.637 201.165 435.699 200.85 435.699 200.498C435.699 199.814 435.491 199.316 435.074 199.004C434.658 198.691 434.046 198.535 433.238 198.535C432.809 198.535 432.366 198.577 431.91 198.662C431.454 198.747 430.966 198.874 430.445 199.043V197.559C430.667 197.48 430.901 197.412 431.148 197.354C431.402 197.288 431.653 197.236 431.9 197.197C432.154 197.152 432.405 197.119 432.652 197.1C432.9 197.074 433.137 197.061 433.365 197.061C434.042 197.061 434.638 197.135 435.152 197.285C435.667 197.428 436.096 197.637 436.441 197.91C436.786 198.184 437.047 198.516 437.223 198.906C437.398 199.297 437.486 199.736 437.486 200.225C437.486 200.954 437.298 201.566 436.92 202.061C436.549 202.555 436.038 202.949 435.387 203.242C435.719 203.294 436.044 203.398 436.363 203.555C436.689 203.711 436.979 203.913 437.232 204.16C437.493 204.401 437.701 204.688 437.857 205.02C438.02 205.352 438.102 205.719 438.102 206.123Z" fill="black"/>
<path opacity="0.5" d="M496.98 207.178H494.803V210H493.064V207.178H486.922V205.684L492.361 197.236H494.803V205.684H496.98V207.178ZM493.064 198.877L488.621 205.684H493.064V198.877Z" fill="black"/>
<path opacity="0.5" d="M555.023 205.918C555.023 206.549 554.887 207.126 554.613 207.646C554.34 208.167 553.962 208.617 553.48 208.994C553.005 209.365 552.442 209.655 551.791 209.863C551.14 210.072 550.437 210.176 549.682 210.176C549.493 210.176 549.288 210.169 549.066 210.156C548.852 210.15 548.637 210.137 548.422 210.117C548.207 210.104 547.995 210.088 547.787 210.068C547.585 210.049 547.403 210.026 547.24 210V208.457C547.592 208.542 547.992 208.604 548.441 208.643C548.897 208.682 549.356 208.701 549.818 208.701C550.339 208.701 550.808 208.639 551.225 208.516C551.641 208.392 551.996 208.216 552.289 207.988C552.582 207.754 552.807 207.474 552.963 207.148C553.119 206.816 553.197 206.445 553.197 206.035C553.197 205.241 552.911 204.665 552.338 204.307C551.771 203.942 550.954 203.76 549.887 203.76H547.465V197.236H554.34V198.721H549.066V202.305H550.18C550.792 202.305 551.387 202.36 551.967 202.471C552.546 202.581 553.061 202.777 553.51 203.057C553.965 203.33 554.33 203.701 554.604 204.17C554.883 204.632 555.023 205.215 555.023 205.918Z" fill="black"/>
<path d="M552 53C552 52.4477 551.552 52 551 52C550.448 52 550 52.4477 550 53H552ZM550.293 147.707C550.683 148.098 551.317 148.098 551.707 147.707L558.071 141.343C558.462 140.953 558.462 140.319 558.071 139.929C557.681 139.538 557.047 139.538 556.657 139.929L551 145.586L545.343 139.929C544.953 139.538 544.319 139.538 543.929 139.929C543.538 140.319 543.538 140.953 543.929 141.343L550.293 147.707ZM550 53V147H552V53H550Z" fill="black"/>
<path d="M493 53C493 52.4477 492.552 52 492 52C491.448 52 491 52.4477 491 53H493ZM436.293 146.707C436.683 147.098 437.317 147.098 437.707 146.707L444.071 140.343C444.462 139.953 444.462 139.319 444.071 138.929C443.681 138.538 443.047 138.538 442.657 138.929L437 144.586L431.343 138.929C430.953 138.538 430.319 138.538 429.929 138.929C429.538 139.319 429.538 139.953 429.929 140.343L436.293 146.707ZM491 53C491 66.4382 487.616 75.2488 482.61 81.8322C477.572 88.458 470.846 92.9006 463.942 97.5453C457.08 102.162 450.057 106.97 444.782 114.29C439.484 121.644 436 131.451 436 146H438C438 131.799 441.391 122.418 446.405 115.46C451.443 108.468 458.17 103.838 465.058 99.2047C471.904 94.5994 478.928 89.9795 484.202 83.0428C489.509 76.0637 493 66.8118 493 53H491Z" fill="black"/>
<path d="M322 53C322 52.4477 321.552 52 321 52C320.448 52 320 52.4477 320 53H322ZM262.793 146.707C263.183 147.098 263.817 147.098 264.207 146.707L270.571 140.343C270.962 139.953 270.962 139.319 270.571 138.929C270.181 138.538 269.547 138.538 269.157 138.929L263.5 144.586L257.843 138.929C257.453 138.538 256.819 138.538 256.429 138.929C256.038 139.319 256.038 139.953 256.429 140.343L262.793 146.707ZM320 53C320 66.4278 316.466 75.2322 311.233 81.8152C305.964 88.4437 298.927 92.8891 291.709 97.5341C284.536 102.15 277.199 106.955 271.686 114.273C266.145 121.628 262.5 131.442 262.5 146H264.5C264.5 131.808 268.042 122.434 273.283 115.477C278.551 108.483 285.589 103.85 292.791 99.2159C299.948 94.6109 307.286 89.9938 312.798 83.0598C318.347 76.0803 322 66.8222 322 53H320Z" fill="black"/>
<path d="M435 53C435 52.4477 434.552 52 434 52C433.448 52 433 52.4477 433 53H435ZM320.293 146.707C320.683 147.098 321.317 147.098 321.707 146.707L328.071 140.343C328.462 139.953 328.462 139.319 328.071 138.929C327.681 138.538 327.047 138.538 326.657 138.929L321 144.586L315.343 138.929C314.953 138.538 314.319 138.538 313.929 138.929C313.538 139.319 313.538 139.953 313.929 140.343L320.293 146.707ZM433 53C433 66.184 426.207 74.9365 415.805 81.5953C405.341 88.293 391.356 92.7859 377.189 97.4246C363.096 102.039 348.828 106.797 338.096 114.046C327.303 121.338 320 131.211 320 146H322C322 132.039 328.822 122.725 339.216 115.704C349.672 108.64 363.654 103.961 377.811 99.3254C391.894 94.7141 406.159 90.1445 416.883 83.2797C427.668 76.376 435 67.066 435 53H433Z" fill="black"/>
<path d="M262 53C262 52.4477 262.448 52 263 52C263.552 52 264 52.4477 264 53H262ZM376.707 146.707C376.317 147.098 375.683 147.098 375.293 146.707L368.929 140.343C368.538 139.953 368.538 139.319 368.929 138.929C369.319 138.538 369.953 138.538 370.343 138.929L376 144.586L381.657 138.929C382.047 138.538 382.681 138.538 383.071 138.929C383.462 139.319 383.462 139.953 383.071 140.343L376.707 146.707ZM264 53C264 66.184 270.793 74.9365 281.195 81.5953C291.659 88.293 305.644 92.7859 319.811 97.4246C333.904 102.039 348.172 106.797 358.904 114.046C369.697 121.338 377 131.211 377 146H375C375 132.039 368.178 122.725 357.784 115.704C347.328 108.64 333.346 103.961 319.189 99.3254C305.106 94.7141 290.841 90.1445 280.117 83.2797C269.332 76.376 262 67.066 262 53H264Z" fill="#808080"/>
<path d="M376 53C376 52.4477 376.448 52 377 52C377.552 52 378 52.4477 378 53H376ZM490.707 146.707C490.317 147.098 489.683 147.098 489.293 146.707L482.929 140.343C482.538 139.953 482.538 139.319 482.929 138.929C483.319 138.538 483.953 138.538 484.343 138.929L490 144.586L495.657 138.929C496.047 138.538 496.681 138.538 497.071 138.929C497.462 139.319 497.462 139.953 497.071 140.343L490.707 146.707ZM378 53C378 66.184 384.793 74.9365 395.195 81.5953C405.659 88.293 419.644 92.7859 433.811 97.4246C447.904 102.039 462.172 106.797 472.904 114.046C483.697 121.338 491 131.211 491 146H489C489 132.039 482.178 122.725 471.784 115.704C461.328 108.64 447.346 103.961 433.189 99.3254C419.106 94.7141 404.841 90.1445 394.117 83.2797C383.332 76.376 376 67.066 376 53H378Z" fill="#808080"/>
</g>
<defs>
<clipPath id="clip0_6288_2474">
<rect width="716" height="213" fill="white"/>
</clipPath>
</defs>
</svg>
