<svg width="717" height="451" viewBox="0 0 717 451" fill="none" xmlns="http://www.w3.org/2000/svg">
<g clip-path="url(#clip0_6295_2157)">
<rect width="717" height="451" fill="white"/>
<path d="M304.7 311.93L301.666 311.955L295.67 305.173L295.725 312.003L293.516 312.021L293.371 294.083L295.58 294.065L295.669 305.084L301.347 299.211L304.267 299.187L298.335 305.113L304.7 311.93ZM307.428 299.161L309.396 299.145L309.501 301.201C309.87 300.758 310.227 300.391 310.571 300.101C310.916 299.802 311.253 299.562 311.581 299.382C311.918 299.201 312.26 299.076 312.607 299.005C312.953 298.926 313.312 298.885 313.685 298.882C314.996 298.872 315.99 299.253 316.665 300.026C317.348 300.791 317.696 301.952 317.709 303.509L317.776 311.824L315.567 311.842L315.501 303.705C315.493 302.706 315.301 301.971 314.925 301.5C314.548 301.021 313.992 300.784 313.256 300.79C312.985 300.792 312.719 300.837 312.457 300.923C312.204 301.002 311.938 301.143 311.661 301.349C311.383 301.546 311.08 301.815 310.753 302.156C310.434 302.497 310.074 302.923 309.672 303.434L309.74 311.889L307.531 311.907L307.428 299.161ZM330.014 311.725L329.949 310.012C329.261 310.703 328.558 311.203 327.841 311.514C327.133 311.824 326.385 311.983 325.598 311.989C324.87 311.995 324.247 311.907 323.729 311.725C323.212 311.543 322.782 311.293 322.441 310.974C322.108 310.646 321.86 310.263 321.695 309.824C321.54 309.386 321.46 308.908 321.455 308.392C321.445 307.114 321.911 306.111 322.853 305.384C323.803 304.649 325.21 304.273 327.071 304.258L329.712 304.237L329.703 303.12C329.697 302.366 329.451 301.768 328.965 301.323C328.479 300.87 327.74 300.647 326.75 300.655C326.031 300.661 325.321 300.747 324.619 300.914C323.927 301.08 323.209 301.315 322.467 301.617L322.451 299.624C322.729 299.52 323.037 299.42 323.375 299.324C323.721 299.22 324.084 299.128 324.465 299.049C324.845 298.969 325.242 298.907 325.657 298.861C326.071 298.807 326.49 298.778 326.913 298.775C327.683 298.769 328.378 298.848 328.997 299.012C329.616 299.176 330.139 299.43 330.565 299.774C330.999 300.117 331.333 300.55 331.565 301.073C331.798 301.596 331.917 302.213 331.923 302.924L331.994 311.709L330.014 311.725ZM329.726 305.925L326.92 305.948C326.37 305.952 325.896 306.011 325.5 306.125C325.103 306.238 324.778 306.397 324.526 306.602C324.274 306.807 324.085 307.054 323.961 307.343C323.844 307.623 323.788 307.941 323.791 308.297C323.793 308.542 323.833 308.779 323.911 309.007C323.989 309.226 324.113 309.424 324.284 309.6C324.454 309.768 324.675 309.902 324.947 310.001C325.219 310.101 325.549 310.149 325.938 310.146C326.446 310.141 327.025 309.984 327.674 309.674C328.332 309.356 329.022 308.859 329.744 308.185L329.726 305.925ZM346.959 304.986C346.968 306.12 346.815 307.111 346.501 307.96C346.194 308.809 345.764 309.515 345.21 310.078C344.656 310.641 343.999 311.066 343.24 311.351C342.48 311.637 341.656 311.783 340.768 311.79C340.361 311.793 339.955 311.776 339.548 311.737C339.15 311.697 338.744 311.629 338.328 311.531L338.371 316.862L336.162 316.88L336.017 298.93L337.985 298.914L338.141 301.045C338.769 300.169 339.441 299.554 340.158 299.201C340.874 298.84 341.652 298.656 342.489 298.649C343.217 298.643 343.857 298.79 344.41 299.09C344.963 299.39 345.427 299.818 345.804 300.374C346.181 300.921 346.466 301.587 346.658 302.373C346.851 303.15 346.951 304.021 346.959 304.986ZM344.7 305.106C344.695 304.437 344.639 303.824 344.533 303.266C344.435 302.708 344.279 302.231 344.064 301.835C343.849 301.439 343.576 301.133 343.244 300.915C342.912 300.689 342.518 300.578 342.061 300.582C341.781 300.584 341.498 300.633 341.211 300.729C340.924 300.815 340.625 300.966 340.314 301.18C340.01 301.386 339.687 301.663 339.343 302.013C339.007 302.355 338.646 302.781 338.261 303.292L338.311 309.474C338.719 309.64 339.147 309.772 339.597 309.87C340.046 309.959 340.487 310.002 340.918 309.999C342.112 309.989 343.043 309.58 343.714 308.77C344.384 307.952 344.713 306.731 344.7 305.106ZM360.479 307.999C360.482 308.448 360.41 308.851 360.26 309.207C360.111 309.564 359.906 309.883 359.646 310.164C359.386 310.437 359.083 310.673 358.737 310.87C358.392 311.068 358.021 311.231 357.624 311.361C357.236 311.492 356.835 311.588 356.42 311.651C356.006 311.713 355.6 311.746 355.202 311.749C354.339 311.756 353.543 311.725 352.815 311.654C352.095 311.584 351.387 311.467 350.692 311.303L350.675 309.272C351.422 309.478 352.164 309.633 352.901 309.737C353.638 309.841 354.371 309.89 355.098 309.884C356.156 309.875 356.938 309.725 357.443 309.433C357.949 309.141 358.2 308.729 358.195 308.196C358.193 307.967 358.149 307.764 358.063 307.587C357.986 307.402 357.84 307.229 357.627 307.07C357.415 306.903 357.083 306.732 356.633 306.558C356.192 306.384 355.585 306.185 354.813 305.963C354.236 305.799 353.701 305.612 353.209 305.405C352.724 305.189 352.303 304.934 351.945 304.641C351.588 304.347 351.306 304.003 351.099 303.607C350.893 303.21 350.787 302.741 350.783 302.2C350.78 301.844 350.857 301.454 351.015 301.03C351.181 300.605 351.461 300.21 351.856 299.842C352.251 299.475 352.786 299.17 353.461 298.928C354.136 298.677 354.981 298.548 355.997 298.539C356.496 298.535 357.051 298.56 357.66 298.615C358.27 298.661 358.906 298.748 359.567 298.879L359.583 300.846C358.888 300.683 358.226 300.565 357.6 300.494C356.981 300.415 356.443 300.377 355.986 300.38C355.436 300.385 354.971 300.431 354.591 300.519C354.219 300.606 353.915 300.727 353.68 300.881C353.452 301.027 353.289 301.202 353.189 301.406C353.089 301.601 353.04 301.813 353.042 302.042C353.043 302.27 353.087 302.477 353.174 302.663C353.268 302.848 353.435 303.029 353.673 303.205C353.92 303.372 354.26 303.543 354.693 303.717C355.126 303.883 355.69 304.064 356.386 304.262C357.141 304.476 357.778 304.703 358.296 304.945C358.814 305.177 359.235 305.441 359.559 305.734C359.883 306.028 360.114 306.36 360.253 306.732C360.4 307.103 360.475 307.525 360.479 307.999ZM372.897 311.377L372.833 309.664C372.144 310.355 371.441 310.856 370.725 311.166C370.016 311.477 369.268 311.635 368.481 311.642C367.753 311.648 367.131 311.56 366.613 311.378C366.095 311.196 365.666 310.945 365.324 310.626C364.992 310.299 364.743 309.916 364.579 309.477C364.423 309.038 364.343 308.561 364.339 308.044C364.328 306.766 364.794 305.764 365.736 305.037C366.687 304.301 368.093 303.926 369.955 303.911L372.595 303.889L372.586 302.772C372.58 302.019 372.334 301.42 371.848 300.975C371.362 300.522 370.624 300.3 369.634 300.308C368.914 300.314 368.204 300.4 367.503 300.566C366.81 300.733 366.093 300.967 365.35 301.269L365.334 299.276C365.613 299.172 365.921 299.073 366.258 298.977C366.605 298.872 366.968 298.78 367.348 298.701C367.728 298.622 368.126 298.56 368.54 298.514C368.954 298.46 369.373 298.431 369.796 298.427C370.566 298.421 371.261 298.5 371.88 298.664C372.499 298.829 373.022 299.083 373.448 299.426C373.882 299.77 374.216 300.203 374.449 300.726C374.681 301.249 374.801 301.866 374.806 302.576L374.878 311.361L372.897 311.377ZM372.609 305.578L369.803 305.6C369.253 305.605 368.78 305.664 368.383 305.777C367.986 305.89 367.662 306.05 367.409 306.255C367.157 306.46 366.969 306.707 366.844 306.996C366.728 307.276 366.671 307.594 366.674 307.949C366.676 308.195 366.716 308.431 366.794 308.659C366.872 308.879 366.996 309.076 367.167 309.253C367.338 309.421 367.559 309.554 367.83 309.654C368.102 309.753 368.432 309.801 368.822 309.798C369.33 309.794 369.908 309.637 370.557 309.327C371.215 309.008 371.905 308.512 372.627 307.837L372.609 305.578ZM388.902 310.778C388.328 311.003 387.737 311.168 387.128 311.275C386.528 311.39 385.907 311.45 385.264 311.455C383.249 311.471 381.692 310.938 380.591 309.855C379.499 308.772 378.944 307.181 378.927 305.082C378.919 304.075 379.068 303.16 379.375 302.336C379.681 301.513 380.116 300.807 380.678 300.218C381.24 299.63 381.914 299.176 382.698 298.856C383.483 298.528 384.349 298.36 385.297 298.353C385.957 298.347 386.575 298.389 387.152 298.477C387.728 298.566 388.279 298.714 388.806 298.921L388.823 301.028C388.27 300.745 387.706 300.542 387.129 300.42C386.561 300.289 385.972 300.226 385.363 300.231C384.796 300.236 384.259 300.35 383.753 300.574C383.256 300.79 382.818 301.102 382.441 301.512C382.063 301.921 381.767 302.418 381.551 303.004C381.336 303.59 381.231 304.251 381.237 304.987C381.25 306.528 381.632 307.68 382.383 308.444C383.142 309.2 384.186 309.572 385.515 309.561C386.116 309.556 386.695 309.484 387.252 309.344C387.818 309.204 388.362 308.996 388.885 308.721L388.902 310.778ZM404.761 311.119L401.727 311.144L395.731 304.362L395.786 311.192L393.577 311.21L393.432 293.272L395.641 293.254L395.73 304.273L401.408 298.4L404.328 298.376L398.396 304.302L404.761 311.119ZM415.265 316.366C411.334 312.784 409.351 308.805 409.316 304.43C409.307 303.406 409.401 302.385 409.596 301.368C409.799 300.342 410.125 299.315 410.574 298.287C411.031 297.26 411.632 296.231 412.377 295.2C413.13 294.17 414.044 293.147 415.12 292.131L416.412 293.428C413.155 296.696 411.542 300.302 411.574 304.246C411.59 306.21 412.02 308.094 412.864 309.898C413.708 311.703 414.949 313.402 416.587 314.997L415.265 316.366ZM426.14 300.028L422.37 300.058L422.355 298.23L428.359 298.181L428.448 309.086L432.244 309.056L432.259 310.896L422.039 310.979L422.024 309.138L426.214 309.104L426.14 300.028ZM426.856 292.849C427.102 292.847 427.331 292.891 427.543 292.983C427.755 293.066 427.938 293.187 428.092 293.346C428.254 293.506 428.378 293.691 428.464 293.902C428.559 294.104 428.608 294.328 428.61 294.574C428.611 294.811 428.567 295.035 428.475 295.248C428.392 295.46 428.271 295.647 428.112 295.809C427.961 295.971 427.78 296.1 427.569 296.195C427.358 296.281 427.13 296.325 426.884 296.327C426.639 296.329 426.41 296.289 426.198 296.206C425.986 296.114 425.798 295.989 425.636 295.829C425.483 295.67 425.358 295.485 425.264 295.274C425.177 295.063 425.133 294.839 425.131 294.602C425.129 294.357 425.17 294.132 425.253 293.928C425.344 293.716 425.465 293.529 425.616 293.367C425.776 293.204 425.961 293.08 426.172 292.994C426.383 292.899 426.611 292.851 426.856 292.849ZM460.984 302.462L450.067 302.551L450.051 300.684L460.969 300.596L460.984 302.462ZM461.02 306.88L450.102 306.968L450.087 305.102L461.005 305.014L461.02 306.88ZM489.69 310.431L479.268 310.515L479.251 308.459L483.517 308.424L483.418 296.313L479.462 298.504L478.635 296.631L483.893 293.808L485.848 293.793L485.967 308.404L489.674 308.374L489.69 310.431ZM494.37 312.996C494.802 313.009 495.221 312.968 495.626 312.871C496.032 312.775 496.386 312.632 496.689 312.444C497.001 312.263 497.249 312.037 497.433 311.765C497.617 311.492 497.707 311.183 497.705 310.836C497.702 310.48 497.636 310.193 497.507 309.974C497.387 309.755 497.25 309.553 497.096 309.368C496.942 309.183 496.801 308.985 496.672 308.775C496.552 308.564 496.49 308.281 496.488 307.926C496.486 307.748 496.518 307.561 496.585 307.366C496.651 307.171 496.751 306.992 496.885 306.83C497.028 306.668 497.204 306.536 497.415 306.433C497.634 306.329 497.892 306.276 498.188 306.274C498.484 306.272 498.768 306.333 499.04 306.458C499.32 306.574 499.563 306.758 499.768 307.01C499.982 307.262 500.15 307.578 500.271 307.958C500.401 308.338 500.468 308.786 500.472 309.302C500.478 310.005 500.352 310.679 500.095 311.324C499.847 311.978 499.466 312.556 498.954 313.06C498.45 313.563 497.815 313.966 497.047 314.269C496.288 314.571 495.4 314.727 494.384 314.735L494.37 312.996ZM531.846 309.619C531.272 309.844 530.681 310.01 530.073 310.116C529.473 310.231 528.851 310.291 528.208 310.296C526.194 310.313 524.636 309.779 523.536 308.697C522.444 307.614 521.889 306.023 521.872 303.924C521.864 302.917 522.013 302.001 522.319 301.178C522.626 300.354 523.06 299.648 523.623 299.06C524.185 298.471 524.858 298.017 525.643 297.698C526.427 297.37 527.294 297.202 528.241 297.194C528.902 297.189 529.52 297.23 530.096 297.319C530.672 297.407 531.224 297.555 531.75 297.762L531.767 299.87C531.215 299.587 530.65 299.384 530.074 299.261C529.506 299.131 528.917 299.068 528.308 299.073C527.74 299.077 527.204 299.192 526.698 299.416C526.2 299.631 525.763 299.944 525.385 300.353C525.008 300.763 524.711 301.26 524.496 301.846C524.281 302.432 524.176 303.093 524.182 303.829C524.194 305.369 524.576 306.521 525.327 307.286C526.086 308.041 527.131 308.414 528.459 308.403C529.06 308.398 529.639 308.325 530.197 308.186C530.763 308.046 531.307 307.838 531.83 307.563L531.846 309.619ZM544.431 309.987L544.366 308.274C543.678 308.965 542.975 309.466 542.258 309.776C541.55 310.087 540.802 310.245 540.015 310.252C539.287 310.257 538.664 310.169 538.146 309.987C537.629 309.805 537.199 309.555 536.858 309.236C536.525 308.909 536.277 308.526 536.112 308.087C535.956 307.648 535.876 307.17 535.872 306.654C535.862 305.376 536.328 304.374 537.27 303.647C538.22 302.911 539.626 302.536 541.488 302.521L544.129 302.499L544.12 301.382C544.114 300.629 543.868 300.03 543.381 299.585C542.895 299.132 542.157 298.91 541.167 298.918C540.448 298.923 539.737 299.01 539.036 299.176C538.344 299.343 537.626 299.577 536.884 299.879L536.868 297.886C537.146 297.782 537.454 297.682 537.792 297.587C538.138 297.482 538.501 297.39 538.881 297.311C539.262 297.232 539.659 297.169 540.073 297.124C540.488 297.07 540.906 297.041 541.33 297.037C542.1 297.031 542.794 297.11 543.414 297.274C544.033 297.439 544.555 297.693 544.981 298.036C545.416 298.38 545.749 298.813 545.982 299.336C546.215 299.859 546.334 300.475 546.34 301.186L546.411 309.971L544.431 309.987ZM544.142 304.188L541.337 304.21C540.787 304.215 540.313 304.274 539.916 304.387C539.519 304.5 539.195 304.659 538.943 304.865C538.69 305.07 538.502 305.317 538.377 305.605C538.261 305.886 538.204 306.204 538.207 306.559C538.209 306.804 538.249 307.041 538.327 307.269C538.405 307.488 538.53 307.686 538.7 307.863C538.871 308.031 539.092 308.164 539.364 308.264C539.635 308.363 539.966 308.411 540.355 308.408C540.863 308.404 541.442 308.247 542.091 307.937C542.748 307.618 543.438 307.122 544.161 306.447L544.142 304.188ZM561.376 303.248C561.385 304.382 561.232 305.374 560.917 306.223C560.611 307.072 560.181 307.778 559.627 308.341C559.073 308.904 558.416 309.328 557.657 309.613C556.897 309.899 556.073 310.045 555.184 310.052C554.778 310.056 554.372 310.038 553.965 309.999C553.567 309.96 553.16 309.891 552.745 309.793L552.788 315.125L550.579 315.143L550.434 297.192L552.401 297.176L552.558 299.308C553.186 298.431 553.858 297.816 554.575 297.463C555.291 297.102 556.068 296.918 556.906 296.911C557.634 296.905 558.274 297.052 558.827 297.353C559.379 297.653 559.844 298.081 560.221 298.636C560.598 299.183 560.883 299.85 561.075 300.635C561.268 301.412 561.368 302.283 561.376 303.248ZM559.117 303.368C559.111 302.699 559.056 302.086 558.95 301.528C558.852 300.971 558.696 300.494 558.481 300.098C558.266 299.702 557.993 299.395 557.661 299.178C557.329 298.952 556.934 298.841 556.477 298.844C556.198 298.847 555.915 298.895 555.628 298.991C555.341 299.078 555.042 299.228 554.73 299.443C554.427 299.648 554.104 299.926 553.759 300.276C553.424 300.617 553.063 301.043 552.678 301.554L552.728 307.736C553.136 307.902 553.564 308.034 554.014 308.132C554.463 308.222 554.903 308.265 555.335 308.261C556.528 308.251 557.46 307.842 558.131 307.032C558.801 306.214 559.13 304.993 559.117 303.368ZM589.634 301.419L578.717 301.508L578.701 299.642L589.619 299.553L589.634 301.419ZM589.67 305.837L578.752 305.926L578.737 304.06L589.655 303.971L589.67 305.837ZM618.273 294.852L611.434 309.444L608.908 309.465L616.014 294.871L607.051 294.943L607.034 292.887L618.257 292.796L618.273 294.852ZM624.458 290.435C628.389 294.017 630.373 298.021 630.409 302.447C630.416 303.362 630.331 304.31 630.152 305.293C629.974 306.277 629.665 307.286 629.225 308.323C628.784 309.35 628.188 310.396 627.435 311.46C626.69 312.524 625.746 313.594 624.604 314.67L623.311 313.373C624.948 311.726 626.166 310.01 626.964 308.227C627.762 306.443 628.153 304.577 628.137 302.631C628.105 298.602 626.438 294.993 623.136 291.804L624.458 290.435Z" fill="black"/>
<rect opacity="0.2" x="22" y="103" width="113" height="35" rx="5" fill="#D9D9D9" stroke="black" stroke-width="2"/>
<path d="M62.5318 110.133L64.3725 110.119L64.0625 112.597C64.5029 112.635 64.9435 112.687 65.3841 112.751C65.8332 112.815 66.2486 112.892 66.6302 112.982L66.646 114.937C66.1796 114.822 65.709 114.725 65.2344 114.644C64.7598 114.563 64.2938 114.503 63.8364 114.465L63.1569 119.904C63.7257 120.12 64.2904 120.356 64.8511 120.614C65.4118 120.863 65.9136 121.164 66.3565 121.516C66.8079 121.859 67.171 122.271 67.4457 122.751C67.7289 123.231 67.8732 123.806 67.8786 124.474C67.8844 125.185 67.7456 125.817 67.4623 126.369C67.179 126.922 66.7808 127.391 66.2676 127.776C65.7544 128.161 65.1348 128.466 64.4088 128.692C63.6826 128.91 62.8839 129.043 62.0125 129.092L61.6181 132.117L59.7646 132.132L60.1591 129.107C59.4731 129.062 58.8166 128.996 58.1896 128.908C57.571 128.811 57.0327 128.705 56.5747 128.591L56.5576 126.483C57.0923 126.665 57.6733 126.813 58.3005 126.926C58.9362 127.039 59.6393 127.114 60.4098 127.15L61.1125 121.431C60.5607 121.224 60.0172 121 59.482 120.759C58.9468 120.518 58.4663 120.23 58.0404 119.895C57.6229 119.551 57.2811 119.148 57.0149 118.684C56.7488 118.221 56.6131 117.668 56.6079 117.024C56.6037 116.5 56.7095 115.983 56.9254 115.473C57.1413 114.955 57.4803 114.491 57.9425 114.081C58.4046 113.662 58.9901 113.319 59.6989 113.051C60.4076 112.774 61.2526 112.607 62.2339 112.548L62.5318 110.133ZM61.9955 114.454C60.9383 114.556 60.1659 114.812 59.6784 115.222C59.1992 115.624 58.9621 116.138 58.9672 116.764C58.9719 117.348 59.1747 117.829 59.5756 118.206C59.9848 118.576 60.5885 118.913 61.3866 119.22L61.9955 114.454ZM62.2506 127.135C63.3924 127.041 64.2198 126.781 64.7326 126.353C65.2539 125.926 65.5116 125.348 65.5057 124.621C65.5032 124.316 65.446 124.045 65.3341 123.809C65.2221 123.565 65.0552 123.346 64.8336 123.153C64.612 122.96 64.3355 122.781 64.004 122.614C63.6811 122.447 63.2988 122.281 62.8574 122.116L62.2506 127.135ZM82.0544 114.419L75.2154 129.011L72.6891 129.031L79.7947 114.437L70.8321 114.51L70.8155 112.453L82.0378 112.362L82.0544 114.419ZM96.8692 120.545C96.8795 121.814 96.7619 122.975 96.5165 124.026C96.2711 125.069 95.8933 125.97 95.3831 126.727C94.8729 127.476 94.2344 128.061 93.4676 128.482C92.7092 128.894 91.8137 129.105 90.7812 129.113C89.8926 129.12 89.083 128.962 88.3525 128.638C87.6219 128.305 86.9957 127.794 86.4738 127.104C85.9519 126.414 85.547 125.533 85.259 124.46C84.971 123.388 84.821 122.115 84.8091 120.643C84.7988 119.373 84.9163 118.213 85.1617 117.161C85.4156 116.11 85.7934 115.209 86.2951 114.461C86.8053 113.703 87.4438 113.118 88.2107 112.706C88.9775 112.285 89.8729 112.07 90.8969 112.062C91.7856 112.055 92.5952 112.217 93.3258 112.55C94.0563 112.874 94.6825 113.385 95.2045 114.084C95.7264 114.773 96.1313 115.655 96.4193 116.727C96.7073 117.8 96.8573 119.072 96.8692 120.545ZM94.6355 120.639C94.6332 120.351 94.6182 120.068 94.5905 119.789C94.5713 119.501 94.5479 119.222 94.5203 118.952L87.5423 124.226C87.6728 124.665 87.8369 125.07 88.0346 125.441C88.2322 125.812 88.4676 126.131 88.7406 126.4C89.022 126.66 89.3368 126.865 89.6851 127.015C90.0417 127.156 90.4443 127.224 90.8928 127.221C91.4683 127.216 91.9877 127.072 92.4509 126.789C92.9226 126.506 93.3212 126.088 93.6468 125.535C93.9725 124.982 94.2208 124.299 94.392 123.485C94.563 122.663 94.6442 121.714 94.6355 120.639ZM87.0427 120.548C87.0449 120.811 87.047 121.073 87.0491 121.335C87.0597 121.598 87.0787 121.852 87.1061 122.097L94.0843 116.848C93.9538 116.417 93.7898 116.025 93.5923 115.671C93.3948 115.317 93.1596 115.014 92.8867 114.763C92.6137 114.502 92.3032 114.302 91.955 114.161C91.6068 114.02 91.217 113.951 90.7853 113.954C90.2098 113.959 89.6862 114.103 89.2146 114.386C88.7513 114.669 88.357 115.091 88.0314 115.653C87.7058 116.205 87.4575 116.893 87.2864 117.715C87.1152 118.529 87.034 119.474 87.0427 120.548Z" fill="black"/>
<path d="M55.1341 151.629L53.3839 164.39L50.7053 164.411L48.8213 159.094L48.4427 157.802L48.0349 159.177L46.3129 164.447L43.7104 164.468L41.7664 151.737L43.9245 151.72L45.061 160.369L45.3052 162.297L45.8374 160.604L47.6444 154.864L49.2313 154.851L51.2702 160.484L51.8551 162.168L52.031 160.376L52.9506 151.647L55.1341 151.629ZM82.5284 155.952L71.6108 156.04L71.5957 154.174L82.5133 154.086L82.5284 155.952ZM82.5642 160.37L71.6466 160.458L71.6315 158.592L82.5491 158.504L82.5642 160.37ZM110.912 158.617C110.919 159.438 110.747 160.188 110.397 160.868C110.047 161.548 109.561 162.136 108.939 162.632C108.325 163.119 107.596 163.502 106.752 163.779C105.908 164.057 104.995 164.2 104.013 164.208C103.768 164.21 103.501 164.204 103.213 164.189C102.934 164.183 102.654 164.168 102.375 164.145C102.095 164.13 101.82 164.111 101.549 164.088C101.287 164.065 101.049 164.037 100.837 164.005L100.821 161.999C101.279 162.106 101.8 162.182 102.385 162.228C102.977 162.274 103.574 162.294 104.175 162.289C104.852 162.284 105.461 162.199 106.001 162.033C106.542 161.868 107.001 161.636 107.38 161.337C107.758 161.029 108.047 160.663 108.247 160.238C108.446 159.805 108.544 159.321 108.54 158.788C108.531 157.756 108.153 157.01 107.404 156.55C106.664 156.082 105.6 155.854 104.212 155.865L101.064 155.891L100.995 147.41L109.932 147.338L109.948 149.268L103.093 149.323L103.13 153.982L104.578 153.97C105.373 153.964 106.148 154.03 106.902 154.167C107.657 154.305 108.328 154.554 108.914 154.913C109.51 155.264 109.988 155.742 110.348 156.349C110.717 156.947 110.905 157.703 110.912 158.617Z" fill="black"/>
<path d="M41.516 180.897C41.5177 181.108 41.5115 181.383 41.4973 181.722C41.4916 182.061 41.4772 182.378 41.4542 182.675L32.9741 182.743C32.9786 183.31 33.0673 183.809 33.2401 184.239C33.4213 184.669 33.6697 185.031 33.9852 185.325C34.3092 185.61 34.6918 185.827 35.1331 185.976C35.5829 186.125 36.0786 186.197 36.6203 186.192C37.2466 186.187 37.9148 186.135 38.6249 186.036C39.3435 185.929 40.087 185.762 40.8553 185.536L40.8753 187.999C40.546 188.094 40.187 188.182 39.7983 188.261C39.4096 188.341 39.0124 188.412 38.6066 188.474C38.2009 188.537 37.7907 188.582 37.3762 188.611C36.9618 188.648 36.5599 188.668 36.1706 188.672C35.1889 188.68 34.3076 188.547 33.5267 188.274C32.7458 188.001 32.0824 187.596 31.5363 187.059C30.9902 186.513 30.57 185.839 30.2758 185.038C29.9815 184.236 29.8301 183.306 29.8215 182.248C29.813 181.199 29.9492 180.246 30.23 179.388C30.5107 178.523 30.911 177.783 31.4308 177.17C31.9505 176.548 32.5814 176.068 33.3235 175.732C34.074 175.388 34.9105 175.212 35.833 175.204C36.747 175.197 37.5564 175.334 38.2612 175.616C38.9659 175.89 39.5573 176.279 40.0354 176.782C40.5134 177.286 40.878 177.889 41.1291 178.589C41.3803 179.29 41.5092 180.059 41.516 180.897ZM38.3641 180.478C38.3684 179.97 38.3014 179.53 38.163 179.159C38.0245 178.779 37.8357 178.468 37.5968 178.224C37.3663 177.981 37.094 177.801 36.7799 177.685C36.4742 177.569 36.1437 177.512 35.7882 177.515C35.0096 177.521 34.3728 177.789 33.8777 178.318C33.3825 178.838 33.0922 179.573 33.0068 180.521L38.3641 180.478ZM52.9382 188.244L49.9578 183.926L47.0351 188.292L43.2901 188.322L48.0742 181.783L43.4395 175.422L47.2099 175.391L50.1387 179.608L52.9607 175.345L56.4391 175.316L52.0475 181.725L56.7848 188.213L52.9382 188.244ZM69.3614 187.616C68.754 187.866 68.125 188.053 67.4743 188.177C66.8236 188.3 66.1428 188.365 65.4319 188.371C64.4078 188.379 63.4884 188.247 62.6737 187.974C61.8589 187.702 61.1658 187.293 60.5943 186.747C60.0228 186.202 59.5814 185.524 59.2702 184.714C58.9674 183.904 58.8117 182.965 58.803 181.899C58.7947 180.867 58.9479 179.93 59.2627 179.09C59.586 178.249 60.0414 177.53 60.629 176.933C61.2167 176.336 61.9239 175.873 62.7507 175.545C63.5859 175.216 64.5156 175.048 65.5396 175.04C66.3775 175.033 67.0803 175.074 67.6481 175.162C68.2243 175.242 68.7415 175.348 69.1996 175.48L69.224 178.488C68.6971 178.23 68.1242 178.032 67.5052 177.893C66.8947 177.754 66.3144 177.687 65.7643 177.691C65.1888 177.696 64.6733 177.797 64.2179 177.996C63.7624 178.194 63.3795 178.468 63.0692 178.818C62.7589 179.167 62.5211 179.592 62.3559 180.093C62.1991 180.585 62.123 181.127 62.1278 181.72C62.1329 182.338 62.2262 182.891 62.4079 183.381C62.5896 183.87 62.8427 184.287 63.1671 184.631C63.4999 184.967 63.8956 185.226 64.3541 185.409C64.8126 185.583 65.3211 185.668 65.8797 185.663C66.1505 185.661 66.4339 185.642 66.7298 185.606C67.0341 185.561 67.3341 185.503 67.6298 185.433C67.9339 185.355 68.2294 185.268 68.5164 185.172C68.8118 185.077 69.0861 184.973 69.3391 184.861L69.3614 187.616ZM77.2628 172.52L73.6193 172.549L73.5998 170.137L80.417 170.082L80.5428 185.608L84.2624 185.578L84.2819 187.99L73.3008 188.079L73.2813 185.667L77.369 185.634L77.2628 172.52ZM90.4868 175.041L90.5549 183.445C90.5606 184.147 90.6961 184.679 90.9614 185.041C91.2266 185.394 91.6258 185.569 92.159 185.564C92.6753 185.56 93.1687 185.345 93.6392 184.918C94.1181 184.482 94.6212 183.898 95.1485 183.166L95.0823 175.003L98.1799 174.978L98.2844 187.876L95.6058 187.898L95.5142 185.994C95.246 186.327 94.9734 186.629 94.6963 186.902C94.4192 187.175 94.1164 187.411 93.7879 187.608C93.4678 187.797 93.1135 187.944 92.7251 188.048C92.3451 188.161 91.9224 188.22 91.4569 188.224C90.7968 188.229 90.2162 188.128 89.7151 187.92C89.2225 187.704 88.8095 187.399 88.4762 187.004C88.1429 186.608 87.8894 186.137 87.7157 185.588C87.5504 185.031 87.4649 184.409 87.4594 183.724L87.3892 175.066L90.4868 175.041ZM109.926 187.782L109.834 185.878C109.566 186.211 109.289 186.513 109.003 186.786C108.718 187.06 108.411 187.295 108.082 187.492C107.754 187.681 107.4 187.828 107.02 187.932C106.648 188.045 106.234 188.104 105.777 188.108C105.015 188.114 104.337 187.967 103.742 187.667C103.147 187.367 102.644 186.94 102.233 186.384C101.831 185.82 101.521 185.137 101.303 184.335C101.085 183.533 100.972 182.637 100.963 181.646C100.954 180.461 101.111 179.436 101.434 178.57C101.765 177.696 102.225 176.973 102.813 176.401C103.4 175.82 104.099 175.392 104.91 175.114C105.72 174.828 106.603 174.681 107.56 174.674C107.881 174.671 108.203 174.69 108.525 174.729C108.855 174.769 109.148 174.822 109.402 174.887L109.361 169.847L112.459 169.822L112.604 187.76L109.926 187.782ZM104.212 181.48C104.218 182.191 104.269 182.8 104.367 183.307C104.472 183.806 104.62 184.215 104.808 184.535C105.006 184.855 105.244 185.09 105.525 185.24C105.805 185.382 106.123 185.451 106.479 185.448C107.004 185.444 107.501 185.229 107.972 184.802C108.442 184.375 108.941 183.791 109.468 183.05L109.423 177.414C109.176 177.322 108.871 177.249 108.507 177.192C108.151 177.136 107.791 177.109 107.427 177.112C106.928 177.116 106.48 177.222 106.084 177.428C105.688 177.634 105.347 177.925 105.062 178.3C104.786 178.674 104.574 179.133 104.426 179.676C104.278 180.21 104.207 180.812 104.212 181.48ZM127.283 180.202C127.284 180.413 127.278 180.688 127.264 181.027C127.258 181.366 127.244 181.683 127.221 181.979L118.741 182.048C118.745 182.615 118.834 183.114 119.007 183.544C119.188 183.974 119.436 184.336 119.752 184.63C120.076 184.915 120.459 185.132 120.9 185.281C121.35 185.429 121.845 185.502 122.387 185.497C123.013 185.492 123.682 185.44 124.392 185.341C125.11 185.234 125.854 185.067 126.622 184.841L126.642 187.304C126.313 187.399 125.954 187.487 125.565 187.566C125.176 187.646 124.779 187.717 124.373 187.779C123.968 187.842 123.557 187.887 123.143 187.916C122.729 187.953 122.327 187.973 121.937 187.977C120.956 187.985 120.074 187.852 119.293 187.579C118.513 187.306 117.849 186.901 117.303 186.364C116.757 185.818 116.337 185.144 116.042 184.343C115.748 183.541 115.597 182.611 115.588 181.553C115.58 180.504 115.716 179.55 115.997 178.693C116.277 177.828 116.678 177.088 117.198 176.475C117.717 175.852 118.348 175.373 119.09 175.037C119.841 174.693 120.677 174.517 121.6 174.509C122.514 174.502 123.323 174.639 124.028 174.921C124.733 175.195 125.324 175.583 125.802 176.087C126.28 176.591 126.645 177.194 126.896 177.894C127.147 178.595 127.276 179.364 127.283 180.202ZM124.131 179.783C124.135 179.275 124.068 178.835 123.93 178.464C123.791 178.084 123.602 177.773 123.363 177.529C123.133 177.286 122.861 177.106 122.547 176.99C122.241 176.874 121.91 176.817 121.555 176.82C120.776 176.826 120.139 177.094 119.644 177.623C119.149 178.143 118.859 178.878 118.774 179.826L124.131 179.783Z" fill="#FF0000"/>
<path opacity="0.5" d="M38.0351 76.746L34.2648 76.7766L34.2499 74.9485L40.2546 74.8998L40.343 85.8048L44.1388 85.774L44.1537 87.6148L33.9343 87.6976L33.9194 85.8568L38.1087 85.8229L38.0351 76.746ZM38.7514 69.5671C38.9968 69.5651 39.2257 69.6098 39.4381 69.7012C39.6503 69.7841 39.8333 69.9054 39.9869 70.0649C40.149 70.2244 40.2733 70.4096 40.3596 70.6205C40.4543 70.8229 40.5027 71.0468 40.5047 71.2922C40.5066 71.5292 40.4619 71.7539 40.3705 71.9662C40.2876 72.1785 40.1664 72.3656 40.0069 72.5278C39.8558 72.6898 39.6749 72.8182 39.4641 72.913C39.2532 72.9994 39.025 73.0435 38.7796 73.0455C38.5342 73.0475 38.3053 73.0071 38.093 72.9241C37.8807 72.8328 37.6935 72.7073 37.5314 72.5478C37.3777 72.3882 37.2535 72.203 37.1587 71.9922C37.0724 71.7813 37.0282 71.5574 37.0263 71.3204C37.0243 71.075 37.0648 70.8504 37.1478 70.6466C37.2392 70.4342 37.3604 70.247 37.5114 70.085C37.6709 69.9229 37.8561 69.7987 38.067 69.7123C38.2778 69.6175 38.506 69.5691 38.7514 69.5671ZM58.3451 87.322C57.8468 87.453 57.3313 87.5461 56.7985 87.6012C56.2658 87.6647 55.7244 87.6987 55.1743 87.7032C53.5747 87.7162 52.3785 87.3661 51.5856 86.6531C50.7926 85.9317 50.3901 84.8219 50.3779 83.3239L50.324 76.6718L46.7567 76.7007L46.7417 74.8473L50.309 74.8184L50.2806 71.3146L52.4849 70.7254L52.5179 74.8005L58.2433 74.7541L58.2583 76.6075L52.5329 76.6539L52.5854 83.1283C52.5928 84.0423 52.8396 84.7259 53.3257 85.179C53.8202 85.6236 54.5414 85.842 55.4893 85.8344C55.8955 85.8311 56.3396 85.7978 56.8215 85.7347C57.3034 85.6631 57.8061 85.5574 58.3297 85.4178L58.3451 87.322ZM73.079 80.3342C73.0816 80.6474 73.0795 80.9098 73.0727 81.1214C73.066 81.3331 73.0549 81.532 73.0395 81.7184L64.0896 81.7909C64.1001 83.0942 64.4722 84.0942 65.2057 84.7907C65.9392 85.4788 66.9914 85.8173 68.3625 85.8062C68.7349 85.8032 69.1072 85.7875 69.4793 85.7591C69.8514 85.7222 70.2108 85.677 70.5574 85.6234C70.904 85.5698 71.2336 85.5121 71.5462 85.4503C71.8673 85.38 72.1629 85.3057 72.4331 85.2273L72.4478 87.0427C71.8483 87.2168 71.1681 87.3577 70.4073 87.4655C69.6549 87.5816 68.8725 87.643 68.06 87.6495C66.9683 87.6584 66.0277 87.5179 65.2382 87.2281C64.4487 86.9382 63.7978 86.5161 63.2855 85.9616C62.7815 85.3986 62.4036 84.7119 62.1515 83.9014C61.9079 83.0824 61.7819 82.1566 61.7736 81.1241C61.7663 80.227 61.8864 79.3796 62.1338 78.582C62.3897 77.7759 62.7606 77.0704 63.2466 76.4655C63.741 75.8521 64.3464 75.3648 65.0629 75.0035C65.7794 74.6422 66.5947 74.4579 67.5087 74.4505C68.3974 74.4433 69.1856 74.5765 69.8734 74.8502C70.5612 75.124 71.1399 75.5171 71.6095 76.0296C72.0876 76.5335 72.4481 77.1527 72.691 77.8871C72.9424 78.6129 73.0717 79.4286 73.079 80.3342ZM70.7787 80.0355C70.7995 79.4682 70.7403 78.9524 70.6011 78.488C70.4619 78.0152 70.247 77.6107 69.9565 77.2745C69.6745 76.9382 69.3211 76.6787 68.8964 76.4959C68.4717 76.3047 67.98 76.2113 67.4215 76.2159C66.9391 76.2198 66.4997 76.3164 66.1035 76.5059C65.7072 76.6953 65.3666 76.9604 65.0815 77.3013C64.7965 77.6421 64.5671 78.0503 64.3932 78.5256C64.2193 79.001 64.1135 79.5224 64.0758 80.0898L70.7787 80.0355ZM85.7549 87.2776L85.6807 78.1246C85.6775 77.7268 85.6579 77.4011 85.622 77.1475C85.5945 76.8938 85.5464 76.6953 85.4775 76.552C85.417 76.4001 85.3358 76.295 85.2337 76.2366C85.1402 76.1781 85.0214 76.1494 84.8776 76.1506C84.7083 76.1519 84.5521 76.204 84.4091 76.3067C84.266 76.4094 84.1108 76.5757 83.9434 76.8056C83.7844 77.0354 83.6049 77.3416 83.4049 77.7241C83.2133 78.098 82.9843 78.5612 82.7179 79.1135L82.7843 87.3017L80.7658 87.3181L80.6936 78.4062C80.6898 77.9408 80.6698 77.5643 80.6336 77.2768C80.6059 76.9893 80.5575 76.7654 80.4885 76.6051C80.428 76.4448 80.3467 76.3354 80.2446 76.277C80.1426 76.2186 80.0196 76.1899 79.8758 76.1911C79.7234 76.1923 79.5799 76.2358 79.4452 76.3216C79.3104 76.4073 79.1593 76.5609 78.9919 76.7823C78.8328 77.0036 78.6533 77.3055 78.4533 77.688C78.2533 78.0705 78.016 78.5591 77.7415 79.1538L77.8079 87.342L75.7767 87.3585L75.6734 74.6128L77.3618 74.5991L77.483 77.023C77.6992 76.5388 77.9074 76.1267 78.1078 75.7865C78.3166 75.4462 78.5302 75.1737 78.7486 74.9688C78.967 74.7554 79.1985 74.6012 79.4432 74.5061C79.6962 74.4025 79.9751 74.3494 80.2798 74.347C80.9653 74.3414 81.4876 74.5615 81.8467 75.0071C82.2058 75.4528 82.3892 76.1454 82.3968 77.0848C82.5963 76.643 82.7921 76.2521 82.984 75.912C83.1758 75.5634 83.3808 75.274 83.599 75.0437C83.8256 74.8049 84.0738 74.6251 84.3437 74.5045C84.6135 74.3753 84.9261 74.3093 85.2816 74.3064C86.8811 74.2935 87.6909 75.5184 87.7108 77.9812L87.7861 87.2612L85.7549 87.2776ZM116.333 78.7395C116.343 80.009 116.226 81.1695 115.981 82.221C115.735 83.264 115.357 84.1643 114.847 84.9217C114.337 85.6706 113.698 86.2556 112.932 86.6765C112.173 87.0889 111.278 87.2993 110.245 87.3077C109.357 87.3149 108.547 87.1564 107.816 86.8322C107.086 86.4996 106.46 85.9884 105.938 85.2986C105.416 84.6088 105.011 83.7276 104.723 82.655C104.435 81.5824 104.285 80.3098 104.273 78.8372C104.263 77.5677 104.38 76.4073 104.626 75.3557C104.88 74.3042 105.257 73.404 105.759 72.6551C106.269 71.8977 106.908 71.3127 107.675 70.9002C108.441 70.4793 109.337 70.2647 110.361 70.2564C111.25 70.2492 112.059 70.4119 112.79 70.7445C113.52 71.0687 114.146 71.5799 114.668 72.2782C115.19 72.968 115.595 73.8492 115.883 74.9217C116.171 75.9943 116.321 77.2669 116.333 78.7395ZM114.099 78.8338C114.097 78.546 114.082 78.2626 114.055 77.9835C114.035 77.6959 114.012 77.4168 113.984 77.1462L107.006 82.4207C107.137 82.8597 107.301 83.2647 107.499 83.6355C107.696 84.0063 107.932 84.326 108.205 84.5946C108.486 84.8547 108.801 85.0595 109.149 85.2091C109.506 85.3501 109.908 85.4187 110.357 85.4151C110.932 85.4104 111.452 85.2666 111.915 84.9835C112.387 84.7004 112.785 84.2824 113.111 83.7296C113.436 83.1769 113.685 82.4935 113.856 81.6796C114.027 80.8572 114.108 79.9086 114.099 78.8338ZM106.507 78.743C106.509 79.0053 106.511 79.2677 106.513 79.53C106.524 79.7923 106.543 80.0461 106.57 80.2913L113.548 75.0422C113.418 74.6116 113.254 74.2194 113.056 73.8655C112.859 73.5116 112.624 73.2088 112.351 72.9571C112.078 72.697 111.767 72.4963 111.419 72.3553C111.071 72.2142 110.681 72.1454 110.249 72.1489C109.674 72.1536 109.15 72.2975 108.679 72.5806C108.215 72.8637 107.821 73.2858 107.495 73.8471C107.17 74.3999 106.921 75.0875 106.75 75.9098C106.579 76.7238 106.498 77.6681 106.507 78.743Z" fill="black"/>
<rect x="212" y="103" width="113" height="35" rx="5" fill="#EDEDED" stroke="black" stroke-width="2"/>
<path d="M253.532 110.133L255.373 110.119L255.063 112.597C255.503 112.635 255.943 112.687 256.384 112.751C256.833 112.815 257.249 112.892 257.63 112.982L257.646 114.937C257.18 114.822 256.709 114.725 256.234 114.644C255.76 114.563 255.294 114.503 254.836 114.465L254.157 119.904C254.726 120.12 255.29 120.356 255.851 120.614C256.412 120.863 256.914 121.164 257.357 121.516C257.808 121.859 258.171 122.271 258.446 122.751C258.729 123.231 258.873 123.806 258.879 124.474C258.884 125.185 258.746 125.817 258.462 126.369C258.179 126.922 257.781 127.391 257.268 127.776C256.754 128.161 256.135 128.466 255.409 128.692C254.683 128.91 253.884 129.043 253.013 129.092L252.618 132.117L250.765 132.132L251.159 129.107C250.473 129.062 249.817 128.996 249.19 128.908C248.571 128.811 248.033 128.705 247.575 128.591L247.558 126.483C248.092 126.665 248.673 126.813 249.301 126.926C249.936 127.039 250.639 127.114 251.41 127.15L252.113 121.431C251.561 121.224 251.017 121 250.482 120.759C249.947 120.518 249.466 120.23 249.04 119.895C248.623 119.551 248.281 119.148 248.015 118.684C247.749 118.221 247.613 117.668 247.608 117.024C247.604 116.5 247.709 115.983 247.925 115.473C248.141 114.955 248.48 114.491 248.942 114.081C249.405 113.662 249.99 113.319 250.699 113.051C251.408 112.774 252.253 112.607 253.234 112.548L253.532 110.133ZM252.995 114.454C251.938 114.556 251.166 114.812 250.678 115.222C250.199 115.624 249.962 116.138 249.967 116.764C249.972 117.348 250.175 117.829 250.576 118.206C250.985 118.576 251.589 118.913 252.387 119.22L252.995 114.454ZM253.251 127.135C254.392 127.041 255.22 126.781 255.733 126.353C256.254 125.926 256.512 125.348 256.506 124.621C256.503 124.316 256.446 124.045 256.334 123.809C256.222 123.565 256.055 123.346 255.834 123.153C255.612 122.96 255.335 122.781 255.004 122.614C254.681 122.447 254.299 122.281 253.857 122.116L253.251 127.135ZM272.799 123.651C272.806 124.472 272.634 125.222 272.284 125.902C271.934 126.582 271.448 127.17 270.826 127.666C270.212 128.153 269.483 128.536 268.639 128.813C267.795 129.091 266.882 129.234 265.9 129.242C265.654 129.244 265.388 129.238 265.1 129.223C264.821 129.217 264.541 129.202 264.262 129.179C263.982 129.164 263.707 129.145 263.436 129.122C263.173 129.099 262.936 129.071 262.724 129.039L262.708 127.033C263.166 127.14 263.687 127.216 264.271 127.262C264.864 127.308 265.461 127.328 266.062 127.323C266.739 127.318 267.348 127.233 267.888 127.067C268.429 126.902 268.888 126.67 269.266 126.371C269.645 126.063 269.934 125.697 270.133 125.272C270.333 124.839 270.431 124.355 270.426 123.822C270.418 122.79 270.04 122.044 269.291 121.584C268.551 121.116 267.487 120.888 266.099 120.899L262.951 120.925L262.882 112.444L271.819 112.372L271.835 114.302L264.979 114.357L265.017 119.016L266.464 119.004C267.26 118.998 268.035 119.064 268.789 119.201C269.544 119.339 270.214 119.588 270.801 119.947C271.397 120.298 271.874 120.776 272.235 121.383C272.604 121.981 272.792 122.737 272.799 123.651ZM287.869 120.545C287.879 121.814 287.762 122.975 287.517 124.026C287.271 125.069 286.893 125.97 286.383 126.727C285.873 127.476 285.234 128.061 284.468 128.482C283.709 128.894 282.814 129.105 281.781 129.113C280.893 129.12 280.083 128.962 279.352 128.638C278.622 128.305 277.996 127.794 277.474 127.104C276.952 126.414 276.547 125.533 276.259 124.46C275.971 123.388 275.821 122.115 275.809 120.643C275.799 119.373 275.916 118.213 276.162 117.161C276.416 116.11 276.793 115.209 277.295 114.461C277.805 113.703 278.444 113.118 279.211 112.706C279.977 112.285 280.873 112.07 281.897 112.062C282.786 112.055 283.595 112.217 284.326 112.55C285.056 112.874 285.683 113.385 286.204 114.084C286.726 114.773 287.131 115.655 287.419 116.727C287.707 117.8 287.857 119.072 287.869 120.545ZM285.636 120.639C285.633 120.351 285.618 120.068 285.591 119.789C285.571 119.501 285.548 119.222 285.52 118.952L278.542 124.226C278.673 124.665 278.837 125.07 279.035 125.441C279.232 125.812 279.468 126.131 279.741 126.4C280.022 126.66 280.337 126.865 280.685 127.015C281.042 127.156 281.444 127.224 281.893 127.221C282.468 127.216 282.988 127.072 283.451 126.789C283.923 126.506 284.321 126.088 284.647 125.535C284.972 124.982 285.221 124.299 285.392 123.485C285.563 122.663 285.644 121.714 285.636 120.639ZM278.043 120.548C278.045 120.811 278.047 121.073 278.049 121.335C278.06 121.598 278.079 121.852 278.106 122.097L285.084 116.848C284.954 116.417 284.79 116.025 284.592 115.671C284.395 115.317 284.16 115.014 283.887 114.763C283.614 114.502 283.303 114.302 282.955 114.161C282.607 114.02 282.217 113.951 281.785 113.954C281.21 113.959 280.686 114.103 280.215 114.386C279.751 114.669 279.357 115.091 279.031 115.653C278.706 116.205 278.457 116.893 278.286 117.715C278.115 118.529 278.034 119.474 278.043 120.548Z" fill="black"/>
<path d="M246.134 155.629L244.384 168.39L241.705 168.411L239.821 163.094L239.443 161.802L239.035 163.177L237.313 168.447L234.71 168.468L232.766 155.737L234.924 155.72L236.061 164.369L236.305 166.297L236.837 164.604L238.644 158.864L240.231 158.851L242.27 164.484L242.855 166.168L243.031 164.376L243.951 155.647L246.134 155.629ZM273.528 159.952L262.611 160.04L262.596 158.174L273.513 158.086L273.528 159.952ZM273.564 164.37L262.647 164.458L262.631 162.592L273.549 162.504L273.564 164.37ZM302.016 162.882C302.022 163.61 301.879 164.297 301.588 164.943C301.297 165.58 300.857 166.142 300.269 166.629C299.68 167.108 298.939 167.49 298.044 167.777C297.149 168.055 296.105 168.199 294.911 168.209C294.251 168.214 293.659 168.198 293.134 168.16C292.609 168.122 292.117 168.07 291.66 168.006L291.644 166.026C292.169 166.115 292.724 166.182 293.308 166.228C293.893 166.274 294.49 166.295 295.099 166.29C295.928 166.283 296.635 166.206 297.217 166.057C297.809 165.9 298.289 165.68 298.659 165.398C299.029 165.116 299.298 164.775 299.464 164.376C299.63 163.977 299.711 163.527 299.707 163.028C299.703 162.571 299.598 162.174 299.392 161.837C299.186 161.5 298.896 161.219 298.522 160.994C298.156 160.768 297.715 160.602 297.198 160.497C296.689 160.382 296.13 160.327 295.521 160.332L293.629 160.348L293.614 158.532L295.531 158.517C296.031 158.513 296.483 158.446 296.888 158.315C297.302 158.177 297.651 157.983 297.937 157.736C298.231 157.488 298.453 157.185 298.603 156.829C298.76 156.464 298.837 156.052 298.834 155.595C298.827 154.707 298.551 154.062 298.006 153.66C297.461 153.258 296.663 153.061 295.614 153.07C295.055 153.074 294.48 153.134 293.889 153.249C293.297 153.363 292.664 153.534 291.989 153.759L291.973 151.83C292.26 151.726 292.564 151.634 292.885 151.556C293.214 151.468 293.54 151.398 293.861 151.345C294.19 151.283 294.516 151.238 294.837 151.21C295.159 151.173 295.467 151.154 295.763 151.151C296.644 151.144 297.419 151.235 298.089 151.425C298.759 151.605 299.32 151.872 299.771 152.223C300.223 152.575 300.565 153.004 300.797 153.51C301.03 154.016 301.149 154.586 301.154 155.221C301.162 156.169 300.923 156.967 300.437 157.614C299.96 158.261 299.3 158.778 298.456 159.166C298.889 159.23 299.313 159.362 299.729 159.562C300.154 159.762 300.533 160.021 300.865 160.34C301.207 160.65 301.48 161.02 301.687 161.45C301.902 161.88 302.012 162.358 302.016 162.882Z" fill="black"/>
<path opacity="0.5" d="M232.035 76.746L228.265 76.7766L228.25 74.9485L234.255 74.8998L234.343 85.8048L238.139 85.774L238.154 87.6148L227.934 87.6976L227.919 85.8568L232.109 85.8229L232.035 76.746ZM232.751 69.5671C232.997 69.5651 233.226 69.6098 233.438 69.7012C233.65 69.7841 233.833 69.9054 233.987 70.0649C234.149 70.2244 234.273 70.4096 234.36 70.6205C234.454 70.8229 234.503 71.0468 234.505 71.2922C234.507 71.5292 234.462 71.7539 234.371 71.9662C234.288 72.1785 234.166 72.3656 234.007 72.5278C233.856 72.6898 233.675 72.8182 233.464 72.913C233.253 72.9994 233.025 73.0435 232.78 73.0455C232.534 73.0475 232.305 73.0071 232.093 72.9241C231.881 72.8328 231.693 72.7073 231.531 72.5478C231.378 72.3882 231.254 72.203 231.159 71.9922C231.072 71.7813 231.028 71.5574 231.026 71.3204C231.024 71.075 231.065 70.8504 231.148 70.6466C231.239 70.4342 231.36 70.247 231.511 70.085C231.671 69.9229 231.856 69.7987 232.067 69.7123C232.278 69.6175 232.506 69.5691 232.751 69.5671ZM252.345 87.322C251.847 87.453 251.331 87.5461 250.799 87.6012C250.266 87.6647 249.724 87.6987 249.174 87.7032C247.575 87.7162 246.379 87.3661 245.586 86.6531C244.793 85.9317 244.39 84.8219 244.378 83.3239L244.324 76.6718L240.757 76.7007L240.742 74.8473L244.309 74.8184L244.281 71.3146L246.485 70.7254L246.518 74.8005L252.243 74.7541L252.258 76.6075L246.533 76.6539L246.585 83.1283C246.593 84.0423 246.84 84.7259 247.326 85.179C247.82 85.6236 248.541 85.842 249.489 85.8344C249.895 85.8311 250.34 85.7978 250.821 85.7347C251.303 85.6631 251.806 85.5574 252.33 85.4178L252.345 87.322ZM267.079 80.3342C267.082 80.6474 267.079 80.9098 267.073 81.1214C267.066 81.3331 267.055 81.532 267.039 81.7184L258.09 81.7909C258.1 83.0942 258.472 84.0942 259.206 84.7907C259.939 85.4788 260.991 85.8173 262.362 85.8062C262.735 85.8032 263.107 85.7875 263.479 85.7591C263.851 85.7222 264.211 85.677 264.557 85.6234C264.904 85.5698 265.234 85.5121 265.546 85.4503C265.867 85.38 266.163 85.3057 266.433 85.2273L266.448 87.0427C265.848 87.2168 265.168 87.3577 264.407 87.4655C263.655 87.5816 262.873 87.643 262.06 87.6495C260.968 87.6584 260.028 87.5179 259.238 87.2281C258.449 86.9382 257.798 86.5161 257.285 85.9616C256.782 85.3986 256.404 84.7119 256.152 83.9014C255.908 83.0824 255.782 82.1566 255.774 81.1241C255.766 80.227 255.886 79.3796 256.134 78.582C256.39 77.7759 256.761 77.0704 257.247 76.4655C257.741 75.8521 258.346 75.3648 259.063 75.0035C259.779 74.6422 260.595 74.4579 261.509 74.4505C262.397 74.4433 263.186 74.5765 263.873 74.8502C264.561 75.124 265.14 75.5171 265.61 76.0296C266.088 76.5335 266.448 77.1527 266.691 77.8871C266.942 78.6129 267.072 79.4286 267.079 80.3342ZM264.779 80.0355C264.799 79.4682 264.74 78.9524 264.601 78.488C264.462 78.0152 264.247 77.6107 263.956 77.2745C263.674 76.9382 263.321 76.6787 262.896 76.4959C262.472 76.3047 261.98 76.2113 261.421 76.2159C260.939 76.2198 260.5 76.3164 260.103 76.5059C259.707 76.6953 259.367 76.9604 259.082 77.3013C258.797 77.6421 258.567 78.0503 258.393 78.5256C258.219 79.001 258.114 79.5224 258.076 80.0898L264.779 80.0355ZM279.755 87.2776L279.681 78.1246C279.677 77.7268 279.658 77.4011 279.622 77.1475C279.595 76.8938 279.546 76.6953 279.478 76.552C279.417 76.4001 279.336 76.295 279.234 76.2366C279.14 76.1781 279.021 76.1494 278.878 76.1506C278.708 76.1519 278.552 76.204 278.409 76.3067C278.266 76.4094 278.111 76.5757 277.943 76.8056C277.784 77.0354 277.605 77.3416 277.405 77.7241C277.213 78.098 276.984 78.5612 276.718 79.1135L276.784 87.3017L274.766 87.3181L274.694 78.4062C274.69 77.9408 274.67 77.5643 274.634 77.2768C274.606 76.9893 274.558 76.7654 274.489 76.6051C274.428 76.4448 274.347 76.3354 274.245 76.277C274.143 76.2186 274.02 76.1899 273.876 76.1911C273.723 76.1923 273.58 76.2358 273.445 76.3216C273.31 76.4073 273.159 76.5609 272.992 76.7823C272.833 77.0036 272.653 77.3055 272.453 77.688C272.253 78.0705 272.016 78.5591 271.742 79.1538L271.808 87.342L269.777 87.3585L269.673 74.6128L271.362 74.5991L271.483 77.023C271.699 76.5388 271.907 76.1267 272.108 75.7865C272.317 75.4462 272.53 75.1737 272.749 74.9688C272.967 74.7554 273.198 74.6012 273.443 74.5061C273.696 74.4025 273.975 74.3494 274.28 74.347C274.965 74.3414 275.488 74.5615 275.847 75.0071C276.206 75.4528 276.389 76.1454 276.397 77.0848C276.596 76.643 276.792 76.2521 276.984 75.912C277.176 75.5634 277.381 75.274 277.599 75.0437C277.826 74.8049 278.074 74.6251 278.344 74.5045C278.613 74.3753 278.926 74.3093 279.282 74.3064C280.881 74.2935 281.691 75.5184 281.711 77.9812L281.786 87.2612L279.755 87.2776ZM309.88 87.0335L299.457 87.118L299.441 85.0614L303.706 85.0268L303.608 72.9159L299.652 75.1062L298.824 73.234L304.083 70.411L306.038 70.3951L306.156 85.007L309.863 84.9769L309.88 87.0335Z" fill="black"/>
<rect x="398" y="103" width="113" height="35" rx="5" fill="#EDEDED" stroke="black" stroke-width="2"/>
<path d="M439.532 110.133L441.373 110.119L441.063 112.597C441.503 112.635 441.943 112.687 442.384 112.751C442.833 112.815 443.249 112.892 443.63 112.982L443.646 114.937C443.18 114.822 442.709 114.725 442.234 114.644C441.76 114.563 441.294 114.503 440.836 114.465L440.157 119.904C440.726 120.12 441.29 120.356 441.851 120.614C442.412 120.863 442.914 121.164 443.357 121.516C443.808 121.859 444.171 122.271 444.446 122.751C444.729 123.231 444.873 123.806 444.879 124.474C444.884 125.185 444.746 125.817 444.462 126.369C444.179 126.922 443.781 127.391 443.268 127.776C442.754 128.161 442.135 128.466 441.409 128.692C440.683 128.91 439.884 129.043 439.013 129.092L438.618 132.117L436.765 132.132L437.159 129.107C436.473 129.062 435.817 128.996 435.19 128.908C434.571 128.811 434.033 128.705 433.575 128.591L433.558 126.483C434.092 126.665 434.673 126.813 435.301 126.926C435.936 127.039 436.639 127.114 437.41 127.15L438.113 121.431C437.561 121.224 437.017 121 436.482 120.759C435.947 120.518 435.466 120.23 435.04 119.895C434.623 119.551 434.281 119.148 434.015 118.684C433.749 118.221 433.613 117.668 433.608 117.024C433.604 116.5 433.709 115.983 433.925 115.473C434.141 114.955 434.48 114.491 434.942 114.081C435.405 113.662 435.99 113.319 436.699 113.051C437.408 112.774 438.253 112.607 439.234 112.548L439.532 110.133ZM438.995 114.454C437.938 114.556 437.166 114.812 436.678 115.222C436.199 115.624 435.962 116.138 435.967 116.764C435.972 117.348 436.175 117.829 436.576 118.206C436.985 118.576 437.589 118.913 438.387 119.22L438.995 114.454ZM439.251 127.135C440.392 127.041 441.22 126.781 441.733 126.353C442.254 125.926 442.512 125.348 442.506 124.621C442.503 124.316 442.446 124.045 442.334 123.809C442.222 123.565 442.055 123.346 441.834 123.153C441.612 122.96 441.335 122.781 441.004 122.614C440.681 122.447 440.299 122.281 439.857 122.116L439.251 127.135ZM460.057 125.278L457.226 125.301L457.255 128.97L454.996 128.988L454.966 125.319L446.981 125.384L446.965 123.442L453.947 112.403L457.121 112.378L457.21 123.359L460.041 123.336L460.057 125.278ZM454.878 114.529L449.174 123.424L454.95 123.377L454.878 114.529ZM473.869 120.545C473.879 121.814 473.762 122.975 473.517 124.026C473.271 125.069 472.893 125.97 472.383 126.727C471.873 127.476 471.234 128.061 470.468 128.482C469.709 128.894 468.814 129.105 467.781 129.113C466.893 129.12 466.083 128.962 465.352 128.638C464.622 128.305 463.996 127.794 463.474 127.104C462.952 126.414 462.547 125.533 462.259 124.46C461.971 123.388 461.821 122.115 461.809 120.643C461.799 119.373 461.916 118.213 462.162 117.161C462.416 116.11 462.793 115.209 463.295 114.461C463.805 113.703 464.444 113.118 465.211 112.706C465.977 112.285 466.873 112.07 467.897 112.062C468.786 112.055 469.595 112.217 470.326 112.55C471.056 112.874 471.683 113.385 472.204 114.084C472.726 114.773 473.131 115.655 473.419 116.727C473.707 117.8 473.857 119.072 473.869 120.545ZM471.636 120.639C471.633 120.351 471.618 120.068 471.591 119.789C471.571 119.501 471.548 119.222 471.52 118.952L464.542 124.226C464.673 124.665 464.837 125.07 465.035 125.441C465.232 125.812 465.468 126.131 465.741 126.4C466.022 126.66 466.337 126.865 466.685 127.015C467.042 127.156 467.444 127.224 467.893 127.221C468.468 127.216 468.988 127.072 469.451 126.789C469.923 126.506 470.321 126.088 470.647 125.535C470.972 124.982 471.221 124.299 471.392 123.485C471.563 122.663 471.644 121.714 471.636 120.639ZM464.043 120.548C464.045 120.811 464.047 121.073 464.049 121.335C464.06 121.598 464.079 121.852 464.106 122.097L471.084 116.848C470.954 116.417 470.79 116.025 470.592 115.671C470.395 115.317 470.16 115.014 469.887 114.763C469.614 114.502 469.303 114.302 468.955 114.161C468.607 114.02 468.217 113.951 467.785 113.954C467.21 113.959 466.686 114.103 466.215 114.386C465.751 114.669 465.357 115.091 465.031 115.653C464.706 116.205 464.457 116.893 464.286 117.715C464.115 118.529 464.034 119.474 464.043 120.548Z" fill="black"/>
<path d="M432.134 155.629L430.384 168.39L427.705 168.411L425.821 163.094L425.443 161.802L425.035 163.177L423.313 168.447L420.71 168.468L418.766 155.737L420.924 155.72L422.061 164.369L422.305 166.297L422.837 164.604L424.644 158.864L426.231 158.851L428.27 164.484L428.855 166.168L429.031 164.376L429.951 155.647L432.134 155.629ZM459.528 159.952L448.611 160.04L448.596 158.174L459.513 158.086L459.528 159.952ZM459.564 164.37L448.647 164.458L448.631 162.592L459.549 162.504L459.564 164.37ZM489.17 164.244L486.339 164.267L486.368 167.936L484.109 167.954L484.079 164.285L476.094 164.35L476.078 162.408L483.06 151.369L486.234 151.344L486.323 162.325L489.154 162.302L489.17 164.244ZM483.992 153.495L478.287 162.39L484.063 162.343L483.992 153.495Z" fill="black"/>
<path opacity="0.5" d="M418.035 76.746L414.265 76.7766L414.25 74.9485L420.255 74.8998L420.343 85.8048L424.139 85.774L424.154 87.6148L413.934 87.6976L413.919 85.8568L418.109 85.8229L418.035 76.746ZM418.751 69.5671C418.997 69.5651 419.226 69.6098 419.438 69.7012C419.65 69.7841 419.833 69.9054 419.987 70.0649C420.149 70.2244 420.273 70.4096 420.36 70.6205C420.454 70.8229 420.503 71.0468 420.505 71.2922C420.507 71.5292 420.462 71.7539 420.371 71.9662C420.288 72.1785 420.166 72.3656 420.007 72.5278C419.856 72.6898 419.675 72.8182 419.464 72.913C419.253 72.9994 419.025 73.0435 418.78 73.0455C418.534 73.0475 418.305 73.0071 418.093 72.9241C417.881 72.8328 417.693 72.7073 417.531 72.5478C417.378 72.3882 417.254 72.203 417.159 71.9922C417.072 71.7813 417.028 71.5574 417.026 71.3204C417.024 71.075 417.065 70.8504 417.148 70.6466C417.239 70.4342 417.36 70.247 417.511 70.085C417.671 69.9229 417.856 69.7987 418.067 69.7123C418.278 69.6175 418.506 69.5691 418.751 69.5671ZM438.345 87.322C437.847 87.453 437.331 87.5461 436.799 87.6012C436.266 87.6647 435.724 87.6987 435.174 87.7032C433.575 87.7162 432.379 87.3661 431.586 86.6531C430.793 85.9317 430.39 84.8219 430.378 83.3239L430.324 76.6718L426.757 76.7007L426.742 74.8473L430.309 74.8184L430.281 71.3146L432.485 70.7254L432.518 74.8005L438.243 74.7541L438.258 76.6075L432.533 76.6539L432.585 83.1283C432.593 84.0423 432.84 84.7259 433.326 85.179C433.82 85.6236 434.541 85.842 435.489 85.8344C435.895 85.8311 436.34 85.7978 436.821 85.7347C437.303 85.6631 437.806 85.5574 438.33 85.4178L438.345 87.322ZM453.079 80.3342C453.082 80.6474 453.079 80.9098 453.073 81.1214C453.066 81.3331 453.055 81.532 453.039 81.7184L444.09 81.7909C444.1 83.0942 444.472 84.0942 445.206 84.7907C445.939 85.4788 446.991 85.8173 448.362 85.8062C448.735 85.8032 449.107 85.7875 449.479 85.7591C449.851 85.7222 450.211 85.677 450.557 85.6234C450.904 85.5698 451.234 85.5121 451.546 85.4503C451.867 85.38 452.163 85.3057 452.433 85.2273L452.448 87.0427C451.848 87.2168 451.168 87.3577 450.407 87.4655C449.655 87.5816 448.873 87.643 448.06 87.6495C446.968 87.6584 446.028 87.5179 445.238 87.2281C444.449 86.9382 443.798 86.5161 443.285 85.9616C442.782 85.3986 442.404 84.7119 442.152 83.9014C441.908 83.0824 441.782 82.1566 441.774 81.1241C441.766 80.227 441.886 79.3796 442.134 78.582C442.39 77.7759 442.761 77.0704 443.247 76.4655C443.741 75.8521 444.346 75.3648 445.063 75.0035C445.779 74.6422 446.595 74.4579 447.509 74.4505C448.397 74.4433 449.186 74.5765 449.873 74.8502C450.561 75.124 451.14 75.5171 451.61 76.0296C452.088 76.5335 452.448 77.1527 452.691 77.8871C452.942 78.6129 453.072 79.4286 453.079 80.3342ZM450.779 80.0355C450.799 79.4682 450.74 78.9524 450.601 78.488C450.462 78.0152 450.247 77.6107 449.956 77.2745C449.674 76.9382 449.321 76.6787 448.896 76.4959C448.472 76.3047 447.98 76.2113 447.421 76.2159C446.939 76.2198 446.5 76.3164 446.103 76.5059C445.707 76.6953 445.367 76.9604 445.082 77.3013C444.797 77.6421 444.567 78.0503 444.393 78.5256C444.219 79.001 444.114 79.5224 444.076 80.0898L450.779 80.0355ZM465.755 87.2776L465.681 78.1246C465.677 77.7268 465.658 77.4011 465.622 77.1475C465.595 76.8938 465.546 76.6953 465.478 76.552C465.417 76.4001 465.336 76.295 465.234 76.2366C465.14 76.1781 465.021 76.1494 464.878 76.1506C464.708 76.1519 464.552 76.204 464.409 76.3067C464.266 76.4094 464.111 76.5757 463.943 76.8056C463.784 77.0354 463.605 77.3416 463.405 77.7241C463.213 78.098 462.984 78.5612 462.718 79.1135L462.784 87.3017L460.766 87.3181L460.694 78.4062C460.69 77.9408 460.67 77.5643 460.634 77.2768C460.606 76.9893 460.558 76.7654 460.489 76.6051C460.428 76.4448 460.347 76.3354 460.245 76.277C460.143 76.2186 460.02 76.1899 459.876 76.1911C459.723 76.1923 459.58 76.2358 459.445 76.3216C459.31 76.4073 459.159 76.5609 458.992 76.7823C458.833 77.0036 458.653 77.3055 458.453 77.688C458.253 78.0705 458.016 78.5591 457.742 79.1538L457.808 87.342L455.777 87.3585L455.673 74.6128L457.362 74.5991L457.483 77.023C457.699 76.5388 457.907 76.1267 458.108 75.7865C458.317 75.4462 458.53 75.1737 458.749 74.9688C458.967 74.7554 459.198 74.6012 459.443 74.5061C459.696 74.4025 459.975 74.3494 460.28 74.347C460.965 74.3414 461.488 74.5615 461.847 75.0071C462.206 75.4528 462.389 76.1454 462.397 77.0848C462.596 76.643 462.792 76.2521 462.984 75.912C463.176 75.5634 463.381 75.274 463.599 75.0437C463.826 74.8049 464.074 74.6251 464.344 74.5045C464.613 74.3753 464.926 74.3093 465.282 74.3064C466.881 74.2935 467.691 75.5184 467.711 77.9812L467.786 87.2612L465.755 87.2776ZM496.02 87.0324L485.089 87.1209L485.073 85.1405L489.329 80.8403C490.026 80.1406 490.593 79.5351 491.029 79.0237C491.465 78.5123 491.804 78.0483 492.046 77.6316C492.288 77.2065 492.45 76.8074 492.531 76.4343C492.613 76.0612 492.652 75.6589 492.648 75.2273C492.645 74.821 492.587 74.4364 492.474 74.0734C492.361 73.7019 492.189 73.3774 491.958 73.1C491.727 72.8225 491.429 72.6049 491.064 72.447C490.699 72.2892 490.262 72.2123 489.755 72.2164C489.052 72.2221 488.415 72.3839 487.842 72.7017C487.269 73.0195 486.743 73.43 486.265 73.9332L485.034 72.4832C485.655 71.818 486.37 71.2832 487.179 70.8789C487.997 70.4744 488.948 70.2678 490.031 70.259C490.767 70.2531 491.437 70.3577 492.039 70.5729C492.65 70.788 493.178 71.1011 493.621 71.5122C494.065 71.9234 494.407 72.4284 494.649 73.0274C494.899 73.6263 495.028 74.3023 495.034 75.0556C495.039 75.6903 494.959 76.2792 494.794 76.8222C494.629 77.3652 494.376 77.909 494.033 78.4534C493.699 78.9894 493.272 79.5472 492.752 80.127C492.24 80.7067 491.631 81.3421 490.926 82.0334L487.941 84.9903L496.002 84.925L496.02 87.0324Z" fill="black"/>
<rect x="584" y="103" width="113" height="35" rx="5" fill="#EDEDED" stroke="black" stroke-width="2"/>
<path d="M625.532 110.133L627.373 110.119L627.063 112.597C627.503 112.635 627.943 112.687 628.384 112.751C628.833 112.815 629.249 112.892 629.63 112.982L629.646 114.937C629.18 114.822 628.709 114.725 628.234 114.644C627.76 114.563 627.294 114.503 626.836 114.465L626.157 119.904C626.726 120.12 627.29 120.356 627.851 120.614C628.412 120.863 628.914 121.164 629.357 121.516C629.808 121.859 630.171 122.271 630.446 122.751C630.729 123.231 630.873 123.806 630.879 124.474C630.884 125.185 630.746 125.817 630.462 126.369C630.179 126.922 629.781 127.391 629.268 127.776C628.754 128.161 628.135 128.466 627.409 128.692C626.683 128.91 625.884 129.043 625.013 129.092L624.618 132.117L622.765 132.132L623.159 129.107C622.473 129.062 621.817 128.996 621.19 128.908C620.571 128.811 620.033 128.705 619.575 128.591L619.558 126.483C620.092 126.665 620.673 126.813 621.301 126.926C621.936 127.039 622.639 127.114 623.41 127.15L624.113 121.431C623.561 121.224 623.017 121 622.482 120.759C621.947 120.518 621.466 120.23 621.04 119.895C620.623 119.551 620.281 119.148 620.015 118.684C619.749 118.221 619.613 117.668 619.608 117.024C619.604 116.5 619.709 115.983 619.925 115.473C620.141 114.955 620.48 114.491 620.942 114.081C621.405 113.662 621.99 113.319 622.699 113.051C623.408 112.774 624.253 112.607 625.234 112.548L625.532 110.133ZM624.995 114.454C623.938 114.556 623.166 114.812 622.678 115.222C622.199 115.624 621.962 116.138 621.967 116.764C621.972 117.348 622.175 117.829 622.576 118.206C622.985 118.576 623.589 118.913 624.387 119.22L624.995 114.454ZM625.251 127.135C626.392 127.041 627.22 126.781 627.733 126.353C628.254 125.926 628.512 125.348 628.506 124.621C628.503 124.316 628.446 124.045 628.334 123.809C628.222 123.565 628.055 123.346 627.834 123.153C627.612 122.96 627.335 122.781 627.004 122.614C626.681 122.447 626.299 122.281 625.857 122.116L625.251 127.135ZM645.121 128.955L634.699 129.039L634.682 126.983L638.948 126.948L638.85 114.837L634.894 117.028L634.066 115.155L639.324 112.332L641.279 112.316L641.398 126.928L645.105 126.898L645.121 128.955ZM659.869 120.545C659.879 121.814 659.762 122.975 659.517 124.026C659.271 125.069 658.893 125.97 658.383 126.727C657.873 127.476 657.234 128.061 656.468 128.482C655.709 128.894 654.814 129.105 653.781 129.113C652.893 129.12 652.083 128.962 651.352 128.638C650.622 128.305 649.996 127.794 649.474 127.104C648.952 126.414 648.547 125.533 648.259 124.46C647.971 123.388 647.821 122.115 647.809 120.643C647.799 119.373 647.916 118.213 648.162 117.161C648.416 116.11 648.793 115.209 649.295 114.461C649.805 113.703 650.444 113.118 651.211 112.706C651.977 112.285 652.873 112.07 653.897 112.062C654.786 112.055 655.595 112.217 656.326 112.55C657.056 112.874 657.683 113.385 658.204 114.084C658.726 114.773 659.131 115.655 659.419 116.727C659.707 117.8 659.857 119.072 659.869 120.545ZM657.636 120.639C657.633 120.351 657.618 120.068 657.591 119.789C657.571 119.501 657.548 119.222 657.52 118.952L650.542 124.226C650.673 124.665 650.837 125.07 651.035 125.441C651.232 125.812 651.468 126.131 651.741 126.4C652.022 126.66 652.337 126.865 652.685 127.015C653.042 127.156 653.444 127.224 653.893 127.221C654.468 127.216 654.988 127.072 655.451 126.789C655.923 126.506 656.321 126.088 656.647 125.535C656.972 124.982 657.221 124.299 657.392 123.485C657.563 122.663 657.644 121.714 657.636 120.639ZM650.043 120.548C650.045 120.811 650.047 121.073 650.049 121.335C650.06 121.598 650.079 121.852 650.106 122.097L657.084 116.848C656.954 116.417 656.79 116.025 656.592 115.671C656.395 115.317 656.16 115.014 655.887 114.763C655.614 114.502 655.303 114.302 654.955 114.161C654.607 114.02 654.217 113.951 653.785 113.954C653.21 113.959 652.686 114.103 652.215 114.386C651.751 114.669 651.357 115.091 651.031 115.653C650.706 116.205 650.457 116.893 650.286 117.715C650.115 118.529 650.034 119.474 650.043 120.548Z" fill="black"/>
<path d="M618.134 155.629L616.384 168.39L613.705 168.411L611.821 163.094L611.443 161.802L611.035 163.177L609.313 168.447L606.71 168.468L604.766 155.737L606.924 155.72L608.061 164.369L608.305 166.297L608.837 164.604L610.644 158.864L612.231 158.851L614.27 164.484L614.855 166.168L615.031 164.376L615.951 155.647L618.134 155.629ZM645.528 159.952L634.611 160.04L634.596 158.174L645.513 158.086L645.528 159.952ZM645.564 164.37L634.647 164.458L634.631 162.592L645.549 162.504L645.564 164.37ZM674.235 167.921L663.812 168.005L663.795 165.949L668.061 165.914L667.963 153.803L664.007 155.994L663.179 154.121L668.438 151.298L670.393 151.282L670.511 165.894L674.218 165.864L674.235 167.921Z" fill="black"/>
<path opacity="0.5" d="M604.035 76.746L600.265 76.7766L600.25 74.9485L606.255 74.8998L606.343 85.8048L610.139 85.774L610.154 87.6148L599.934 87.6976L599.919 85.8568L604.109 85.8229L604.035 76.746ZM604.751 69.5671C604.997 69.5651 605.226 69.6098 605.438 69.7012C605.65 69.7841 605.833 69.9054 605.987 70.0649C606.149 70.2244 606.273 70.4096 606.36 70.6205C606.454 70.8229 606.503 71.0468 606.505 71.2922C606.507 71.5292 606.462 71.7539 606.371 71.9662C606.288 72.1785 606.166 72.3656 606.007 72.5278C605.856 72.6898 605.675 72.8182 605.464 72.913C605.253 72.9994 605.025 73.0435 604.78 73.0455C604.534 73.0475 604.305 73.0071 604.093 72.9241C603.881 72.8328 603.693 72.7073 603.531 72.5478C603.378 72.3882 603.254 72.203 603.159 71.9922C603.072 71.7813 603.028 71.5574 603.026 71.3204C603.024 71.075 603.065 70.8504 603.148 70.6466C603.239 70.4342 603.36 70.247 603.511 70.085C603.671 69.9229 603.856 69.7987 604.067 69.7123C604.278 69.6175 604.506 69.5691 604.751 69.5671ZM624.345 87.322C623.847 87.453 623.331 87.5461 622.799 87.6012C622.266 87.6647 621.724 87.6987 621.174 87.7032C619.575 87.7162 618.379 87.3661 617.586 86.6531C616.793 85.9317 616.39 84.8219 616.378 83.3239L616.324 76.6718L612.757 76.7007L612.742 74.8473L616.309 74.8184L616.281 71.3146L618.485 70.7254L618.518 74.8005L624.243 74.7541L624.258 76.6075L618.533 76.6539L618.585 83.1283C618.593 84.0423 618.84 84.7259 619.326 85.179C619.82 85.6236 620.541 85.842 621.489 85.8344C621.895 85.8311 622.34 85.7978 622.821 85.7347C623.303 85.6631 623.806 85.5574 624.33 85.4178L624.345 87.322ZM639.079 80.3342C639.082 80.6474 639.079 80.9098 639.073 81.1214C639.066 81.3331 639.055 81.532 639.039 81.7184L630.09 81.7909C630.1 83.0942 630.472 84.0942 631.206 84.7907C631.939 85.4788 632.991 85.8173 634.362 85.8062C634.735 85.8032 635.107 85.7875 635.479 85.7591C635.851 85.7222 636.211 85.677 636.557 85.6234C636.904 85.5698 637.234 85.5121 637.546 85.4503C637.867 85.38 638.163 85.3057 638.433 85.2273L638.448 87.0427C637.848 87.2168 637.168 87.3577 636.407 87.4655C635.655 87.5816 634.873 87.643 634.06 87.6495C632.968 87.6584 632.028 87.5179 631.238 87.2281C630.449 86.9382 629.798 86.5161 629.285 85.9616C628.782 85.3986 628.404 84.7119 628.152 83.9014C627.908 83.0824 627.782 82.1566 627.774 81.1241C627.766 80.227 627.886 79.3796 628.134 78.582C628.39 77.7759 628.761 77.0704 629.247 76.4655C629.741 75.8521 630.346 75.3648 631.063 75.0035C631.779 74.6422 632.595 74.4579 633.509 74.4505C634.397 74.4433 635.186 74.5765 635.873 74.8502C636.561 75.124 637.14 75.5171 637.61 76.0296C638.088 76.5335 638.448 77.1527 638.691 77.8871C638.942 78.6129 639.072 79.4286 639.079 80.3342ZM636.779 80.0355C636.799 79.4682 636.74 78.9524 636.601 78.488C636.462 78.0152 636.247 77.6107 635.956 77.2745C635.674 76.9382 635.321 76.6787 634.896 76.4959C634.472 76.3047 633.98 76.2113 633.421 76.2159C632.939 76.2198 632.5 76.3164 632.103 76.5059C631.707 76.6953 631.367 76.9604 631.082 77.3013C630.797 77.6421 630.567 78.0503 630.393 78.5256C630.219 79.001 630.114 79.5224 630.076 80.0898L636.779 80.0355ZM651.755 87.2776L651.681 78.1246C651.677 77.7268 651.658 77.4011 651.622 77.1475C651.595 76.8938 651.546 76.6953 651.478 76.552C651.417 76.4001 651.336 76.295 651.234 76.2366C651.14 76.1781 651.021 76.1494 650.878 76.1506C650.708 76.1519 650.552 76.204 650.409 76.3067C650.266 76.4094 650.111 76.5757 649.943 76.8056C649.784 77.0354 649.605 77.3416 649.405 77.7241C649.213 78.098 648.984 78.5612 648.718 79.1135L648.784 87.3017L646.766 87.3181L646.694 78.4062C646.69 77.9408 646.67 77.5643 646.634 77.2768C646.606 76.9893 646.558 76.7654 646.489 76.6051C646.428 76.4448 646.347 76.3354 646.245 76.277C646.143 76.2186 646.02 76.1899 645.876 76.1911C645.723 76.1923 645.58 76.2358 645.445 76.3216C645.31 76.4073 645.159 76.5609 644.992 76.7823C644.833 77.0036 644.653 77.3055 644.453 77.688C644.253 78.0705 644.016 78.5591 643.742 79.1538L643.808 87.342L641.777 87.3585L641.673 74.6128L643.362 74.5991L643.483 77.023C643.699 76.5388 643.907 76.1267 644.108 75.7865C644.317 75.4462 644.53 75.1737 644.749 74.9688C644.967 74.7554 645.198 74.6012 645.443 74.5061C645.696 74.4025 645.975 74.3494 646.28 74.347C646.965 74.3414 647.488 74.5615 647.847 75.0071C648.206 75.4528 648.389 76.1454 648.397 77.0848C648.596 76.643 648.792 76.2521 648.984 75.912C649.176 75.5634 649.381 75.274 649.599 75.0437C649.826 74.8049 650.074 74.6251 650.344 74.5045C650.613 74.3753 650.926 74.3093 651.282 74.3064C652.881 74.2935 653.691 75.5184 653.711 77.9812L653.786 87.2612L651.755 87.2776ZM681.661 81.9951C681.667 82.7229 681.525 83.4096 681.234 84.0552C680.943 84.6924 680.503 85.2545 679.914 85.7418C679.326 86.2205 678.584 86.6031 677.689 86.8897C676.794 87.1678 675.75 87.3117 674.557 87.3214C673.897 87.3267 673.304 87.3103 672.779 87.2723C672.254 87.2342 671.763 87.1832 671.305 87.1192L671.289 85.1388C671.814 85.2276 672.369 85.2951 672.954 85.3411C673.538 85.3872 674.135 85.4077 674.744 85.4028C675.574 85.3961 676.28 85.3184 676.863 85.1698C677.454 85.0126 677.934 84.7929 678.305 84.5106C678.675 84.2283 678.943 83.8876 679.109 83.4884C679.275 83.0893 679.356 82.6401 679.352 82.1407C679.348 81.6837 679.243 81.2868 679.037 80.9499C678.832 80.613 678.542 80.3318 678.167 80.1063C677.802 79.8808 677.36 79.7151 676.843 79.6092C676.334 79.4948 675.775 79.4401 675.166 79.4451L673.274 79.4604L673.26 77.645L675.176 77.6295C675.676 77.6254 676.128 77.5583 676.533 77.4281C676.947 77.2893 677.297 77.096 677.582 76.8483C677.877 76.6004 678.098 76.2982 678.248 75.9415C678.406 75.5762 678.483 75.1651 678.479 74.7081C678.472 73.8195 678.196 73.1742 677.651 72.7724C677.106 72.3705 676.309 72.1738 675.259 72.1824C674.701 72.1869 674.126 72.2466 673.534 72.3614C672.943 72.4762 672.309 72.6464 671.634 72.8719L671.618 70.9423C671.905 70.8384 672.209 70.7471 672.53 70.6683C672.86 70.581 673.185 70.5106 673.506 70.4572C673.836 70.3953 674.161 70.3504 674.482 70.3224C674.804 70.2859 675.113 70.2665 675.409 70.2641C676.289 70.257 677.064 70.348 677.734 70.5372C678.404 70.718 678.965 70.9843 679.417 71.3361C679.868 71.688 680.21 72.1168 680.443 72.6228C680.675 73.1287 680.794 73.6991 680.799 74.3338C680.807 75.2817 680.568 76.0792 680.082 76.7264C679.605 77.3735 678.945 77.891 678.102 78.2787C678.534 78.3429 678.958 78.4748 679.375 78.6746C679.799 78.8743 680.178 79.1336 680.511 79.4525C680.852 79.7629 681.126 80.1331 681.332 80.5631C681.547 80.993 681.657 81.4703 681.661 81.9951Z" fill="black"/>
<path d="M73.9043 22.6016H71.0039V21.1953H75.623V29.584H78.543V31H70.6816V29.584H73.9043V22.6016ZM74.5 17.084C74.6888 17.084 74.8646 17.1198 75.0273 17.1914C75.1901 17.2565 75.3301 17.3509 75.4473 17.4746C75.571 17.5983 75.6654 17.7415 75.7305 17.9043C75.8021 18.0605 75.8379 18.2331 75.8379 18.4219C75.8379 18.6042 75.8021 18.7767 75.7305 18.9395C75.6654 19.1022 75.571 19.2454 75.4473 19.3691C75.3301 19.4928 75.1901 19.5905 75.0273 19.6621C74.8646 19.7272 74.6888 19.7598 74.5 19.7598C74.3112 19.7598 74.1354 19.7272 73.9727 19.6621C73.8099 19.5905 73.6667 19.4928 73.543 19.3691C73.4258 19.2454 73.3314 19.1022 73.2598 18.9395C73.1947 18.7767 73.1621 18.6042 73.1621 18.4219C73.1621 18.2331 73.1947 18.0605 73.2598 17.9043C73.3314 17.7415 73.4258 17.5983 73.543 17.4746C73.6667 17.3509 73.8099 17.2565 73.9727 17.1914C74.1354 17.1198 74.3112 17.084 74.5 17.084Z" fill="black"/>
<path d="M74.2929 66.7071C74.6834 67.0976 75.3166 67.0976 75.7071 66.7071L82.0711 60.3431C82.4616 59.9526 82.4616 59.3195 82.0711 58.9289C81.6805 58.5384 81.0474 58.5384 80.6569 58.9289L75 64.5858L69.3431 58.9289C68.9526 58.5384 68.3195 58.5384 67.9289 58.9289C67.5384 59.3195 67.5384 59.9526 67.9289 60.3431L74.2929 66.7071ZM74 39L74 66L76 66L76 39L74 39Z" fill="black"/>
<rect x="61" y="10" width="28" height="28" rx="5" stroke="black" stroke-width="2"/>
<rect x="192" y="1" width="524" height="177" rx="9" stroke="black" stroke-width="2"/>
<path d="M14 249V417.501C14 435.459 27.0004 450 43.0103 450H190.99C207.02 450 220 435.436 220 417.501V249.55" stroke="#B22904" stroke-width="2" stroke-miterlimit="10"/>
<path d="M34.3852 232.466H199.446C210.779 232.466 219.981 241.66 219.981 252.983V276.96C219.981 286.563 212.173 294.365 202.561 294.365H31.27C21.6582 294.365 13.8499 286.563 13.8499 276.96V252.983C13.8499 241.66 23.0518 232.466 34.3852 232.466Z" stroke="#B22904" stroke-width="2" stroke-miterlimit="10"/>
<path d="M234.901 356.228V406.947C234.901 412.537 230.372 417.062 224.777 417.062H220.842" stroke="#B22904" stroke-width="2" stroke-miterlimit="10"/>
<path d="M220.842 350.004H232.954" stroke="#B22904" stroke-width="2" stroke-miterlimit="10"/>
<path d="M1 356.228V406.947C1 412.537 5.52923 417.062 11.1242 417.062H15.0591" stroke="#B22904" stroke-width="2" stroke-miterlimit="10"/>
<path d="M15.0591 350.004H2.94696" stroke="#B22904" stroke-width="2" stroke-miterlimit="10"/>
<path d="M82.1779 231.197L92.384 221H141.878L152.084 231.197" stroke="#B22904" stroke-width="2" stroke-miterlimit="10"/>
<path d="M76.3165 271.394C75.7092 271.644 75.0801 271.831 74.4294 271.955C73.7787 272.079 73.0979 272.144 72.387 272.149C71.3629 272.158 70.4435 272.025 69.6288 271.753C68.814 271.48 68.1209 271.071 67.5494 270.525C66.9779 269.98 66.5366 269.302 66.2253 268.492C65.9225 267.682 65.7668 266.744 65.7581 265.677C65.7498 264.645 65.903 263.708 66.2178 262.868C66.5411 262.027 66.9965 261.309 67.5842 260.711C68.1718 260.114 68.879 259.651 69.7058 259.323C70.541 258.995 71.4707 258.826 72.4948 258.818C73.3326 258.811 74.0355 258.852 74.6032 258.941C75.1794 259.021 75.6966 259.126 76.1547 259.258L76.1791 262.267C75.6522 262.009 75.0793 261.81 74.4603 261.671C73.8498 261.532 73.2695 261.465 72.7194 261.47C72.1439 261.474 71.6284 261.576 71.173 261.774C70.7175 261.972 70.3346 262.246 70.0243 262.596C69.714 262.945 69.4762 263.371 69.311 263.871C69.1542 264.363 69.0782 264.906 69.083 265.498C69.088 266.116 69.1813 266.67 69.363 267.159C69.5447 267.648 69.7978 268.065 70.1222 268.41C70.455 268.746 70.8507 269.005 71.3092 269.187C71.7677 269.361 72.2762 269.446 72.8348 269.442C73.1056 269.439 73.389 269.42 73.6849 269.384C73.9892 269.339 74.2892 269.282 74.5849 269.212C74.889 269.133 75.1845 269.046 75.4715 268.95C75.767 268.855 76.0412 268.751 76.2942 268.639L76.3165 271.394ZM88.2664 271.792L88.1766 270.104C87.9081 270.394 87.6267 270.663 87.3325 270.911C87.0382 271.15 86.7141 271.36 86.36 271.541C86.006 271.722 85.6178 271.86 85.1954 271.957C84.7815 272.062 84.3249 272.116 83.8256 272.12C83.1655 272.125 82.5849 272.033 82.084 271.842C81.5831 271.652 81.162 271.384 80.8206 271.04C80.4793 270.696 80.2178 270.279 80.0361 269.789C79.8628 269.3 79.7738 268.759 79.769 268.167C79.7641 267.557 79.8864 266.993 80.1362 266.475C80.3943 265.957 80.7843 265.509 81.306 265.133C81.8362 264.756 82.4939 264.458 83.2793 264.241C84.0731 264.022 85.0032 263.909 86.0696 263.901L87.758 263.887L87.7517 263.112C87.7491 262.782 87.7001 262.487 87.6049 262.225C87.5096 261.955 87.3554 261.728 87.1423 261.543C86.9377 261.359 86.6699 261.217 86.339 261.118C86.0082 261.019 85.6015 260.972 85.1191 260.976C84.3574 260.982 83.6049 261.077 82.8616 261.26C82.1266 261.436 81.4134 261.683 80.722 262.001L80.7019 259.526C81.3178 259.275 82.027 259.067 82.8297 258.899C83.6409 258.732 84.4824 258.645 85.3541 258.638C86.3104 258.63 87.1321 258.716 87.8191 258.897C88.5061 259.069 89.0711 259.335 89.5141 259.696C89.9657 260.056 90.2994 260.51 90.5155 261.059C90.7314 261.599 90.8424 262.233 90.8483 262.96L90.9197 271.771L88.2664 271.792ZM87.7759 266.096L85.8844 266.111C85.3597 266.115 84.9157 266.17 84.5526 266.274C84.1896 266.379 83.8945 266.521 83.6674 266.7C83.4403 266.88 83.2727 267.089 83.1646 267.327C83.0649 267.556 83.0161 267.802 83.0183 268.064C83.0225 268.589 83.1951 268.989 83.5358 269.266C83.8766 269.534 84.3389 269.666 84.9229 269.661C85.3545 269.657 85.8018 269.497 86.2647 269.18C86.7277 268.863 87.2361 268.411 87.7899 267.822L87.7759 266.096ZM106.023 264.97C106.033 266.155 105.872 267.181 105.54 268.047C105.217 268.913 104.758 269.636 104.161 270.216C103.574 270.788 102.875 271.217 102.064 271.503C101.254 271.78 100.371 271.923 99.4144 271.93C99.0928 271.933 98.771 271.914 98.4491 271.875C98.1271 271.835 97.8347 271.782 97.5718 271.717L97.6126 276.757L94.5151 276.782L94.3697 258.844L97.0483 258.822L97.1399 260.726C97.3996 260.394 97.668 260.091 97.9451 259.818C98.2307 259.545 98.5377 259.314 98.8663 259.125C99.1948 258.927 99.549 258.776 99.929 258.672C100.309 258.567 100.736 258.513 101.21 258.509C101.972 258.503 102.65 258.65 103.245 258.95C103.84 259.25 104.338 259.681 104.741 260.245C105.152 260.8 105.466 261.479 105.684 262.282C105.902 263.075 106.015 263.972 106.023 264.97ZM102.774 265.124C102.769 264.413 102.713 263.808 102.607 263.309C102.502 262.811 102.35 262.402 102.153 262.082C101.964 261.762 101.73 261.531 101.449 261.389C101.177 261.239 100.863 261.165 100.508 261.168C99.9832 261.172 99.4813 261.388 99.0023 261.815C98.5318 262.242 98.0329 262.822 97.5056 263.554L97.5513 269.19C97.7975 269.282 98.0986 269.355 98.4545 269.412C98.8189 269.468 99.1873 269.495 99.5597 269.492C100.051 269.488 100.494 269.382 100.89 269.176C101.295 268.97 101.635 268.679 101.911 268.305C102.196 267.93 102.413 267.475 102.561 266.941C102.709 266.398 102.78 265.792 102.774 265.124ZM122.921 263.31L122.901 260.847L133.818 260.759L133.838 263.221L122.921 263.31ZM122.961 268.312L122.941 265.849L133.859 265.76L133.879 268.223L122.961 268.312ZM156.095 271.242L152.591 271.271L159.083 257.621L151.123 257.686L151.099 254.69L162.626 254.596L162.648 257.3L156.095 271.242Z" fill="black"/>
<path d="M478 181.5L472.33 191.559L483.876 191.44L478 181.5ZM434.297 284.5C434.297 285.052 434.745 285.5 435.297 285.5C435.849 285.5 436.297 285.052 436.297 284.5H434.297ZM477.093 190.465C476.694 203.571 473.852 213.131 469.84 220.798C465.82 228.48 460.603 234.308 455.358 239.955C450.133 245.579 444.845 251.057 440.89 257.942C436.915 264.862 434.297 273.175 434.297 284.5H436.297C436.297 273.517 438.827 265.549 442.624 258.938C446.442 252.293 451.55 246.993 456.823 241.316C462.075 235.662 467.457 229.665 471.612 221.725C475.775 213.771 478.685 203.911 479.092 190.526L477.093 190.465Z" fill="#999999"/>
<rect x="279" y="285" width="365" height="36" rx="18" stroke="#999999" stroke-width="2"/>
</g>
<defs>
<clipPath id="clip0_6295_2157">
<rect width="717" height="451" fill="white"/>
</clipPath>
</defs>
</svg>
