<svg width="697" height="154" viewBox="0 0 697 154" fill="none" xmlns="http://www.w3.org/2000/svg">
<g clip-path="url(#clip0_6295_4003)">
<rect width="697" height="154" fill="white"/>
<path d="M12.6045 91H0.578125V88.627H5.5V74.6523L0.915039 77.1426L-0.0224609 74.9746L6.07129 71.7666H8.32715V88.627H12.6045V91ZM78.5811 91H66.5547V88.627H71.4766V74.6523L66.8916 77.1426L65.9541 74.9746L72.0479 71.7666H74.3037V88.627H78.5811V91ZM126.086 84.2178H117.326V81.8154H126.086V84.2178ZM144.353 85.1846C144.353 86.0244 144.182 86.8154 143.84 87.5576C143.498 88.29 142.985 88.9346 142.302 89.4912C141.618 90.0381 140.759 90.4727 139.724 90.7949C138.688 91.1074 137.482 91.2637 136.105 91.2637C135.344 91.2637 134.66 91.2393 134.055 91.1904C133.449 91.1416 132.883 91.0781 132.355 91V88.7148C132.961 88.8223 133.601 88.9053 134.274 88.9639C134.948 89.0225 135.637 89.0518 136.34 89.0518C137.297 89.0518 138.112 88.9688 138.786 88.8027C139.47 88.627 140.026 88.3779 140.456 88.0557C140.886 87.7334 141.198 87.3428 141.394 86.8838C141.589 86.4248 141.687 85.9072 141.687 85.3311C141.687 84.8037 141.569 84.3447 141.335 83.9541C141.101 83.5635 140.769 83.2363 140.339 82.9727C139.919 82.709 139.411 82.5137 138.815 82.3867C138.229 82.25 137.585 82.1816 136.882 82.1816H134.699V80.0869H136.911C137.487 80.0869 138.01 80.0137 138.479 79.8672C138.957 79.7109 139.362 79.4912 139.694 79.208C140.036 78.9248 140.295 78.5781 140.471 78.168C140.656 77.748 140.749 77.2744 140.749 76.7471C140.749 75.7217 140.437 74.9746 139.812 74.5059C139.187 74.0371 138.269 73.8027 137.058 73.8027C136.413 73.8027 135.749 73.8662 135.065 73.9932C134.382 74.1201 133.649 74.3105 132.868 74.5645V72.3379C133.2 72.2207 133.552 72.1182 133.923 72.0303C134.304 71.9326 134.68 71.8545 135.051 71.7959C135.432 71.7275 135.808 71.6787 136.179 71.6494C136.55 71.6104 136.906 71.5908 137.248 71.5908C138.264 71.5908 139.157 71.7031 139.929 71.9277C140.7 72.1426 141.345 72.4551 141.862 72.8652C142.38 73.2754 142.771 73.7734 143.034 74.3594C143.298 74.9453 143.43 75.6045 143.43 76.3369C143.43 77.4307 143.146 78.3486 142.58 79.0908C142.023 79.833 141.257 80.4238 140.28 80.8633C140.778 80.9414 141.267 81.0977 141.745 81.332C142.233 81.5664 142.668 81.8691 143.049 82.2402C143.439 82.6016 143.752 83.0312 143.986 83.5293C144.23 84.0273 144.353 84.5791 144.353 85.1846ZM210.695 91H198.083V88.7148L203.034 83.793C203.845 82.9922 204.504 82.2988 205.012 81.7129C205.52 81.127 205.915 80.5947 206.198 80.1162C206.481 79.6279 206.672 79.1689 206.77 78.7393C206.867 78.3096 206.916 77.8457 206.916 77.3477C206.916 76.8789 206.853 76.4346 206.726 76.0146C206.599 75.585 206.403 75.209 206.14 74.8867C205.876 74.5645 205.534 74.3105 205.114 74.125C204.694 73.9395 204.191 73.8467 203.605 73.8467C202.795 73.8467 202.058 74.0273 201.394 74.3887C200.729 74.75 200.119 75.2188 199.562 75.7949L198.156 74.1104C198.879 73.3486 199.709 72.7383 200.646 72.2793C201.594 71.8203 202.692 71.5908 203.942 71.5908C204.792 71.5908 205.563 71.7178 206.257 71.9717C206.96 72.2256 207.565 72.5918 208.073 73.0703C208.581 73.5488 208.972 74.1348 209.245 74.8281C209.528 75.5215 209.67 76.3027 209.67 77.1719C209.67 77.9043 209.572 78.583 209.377 79.208C209.182 79.833 208.884 80.458 208.483 81.083C208.093 81.6982 207.595 82.3379 206.989 83.002C206.394 83.666 205.686 84.3936 204.865 85.1846L201.394 88.5684H210.695V91ZM276.511 91H264.484V88.627H269.406V74.6523L264.821 77.1426L263.884 74.9746L269.978 71.7666H272.233V88.627H276.511V91ZM324.016 84.2178H315.256V81.8154H324.016V84.2178ZM343.601 86.7666H340.334V91H337.727V86.7666H328.513V84.5254L336.672 71.8545H340.334V84.5254H343.601V86.7666ZM337.727 74.3154L331.062 84.5254H337.727V74.3154Z" fill="#C8C8C8"/>
<path d="M408.259 85.1846C408.259 86.0244 408.088 86.8154 407.746 87.5576C407.404 88.29 406.892 88.9346 406.208 89.4912C405.524 90.0381 404.665 90.4727 403.63 90.7949C402.595 91.1074 401.389 91.2637 400.012 91.2637C399.25 91.2637 398.566 91.2393 397.961 91.1904C397.355 91.1416 396.789 91.0781 396.262 91V88.7148C396.867 88.8223 397.507 88.9053 398.181 88.9639C398.854 89.0225 399.543 89.0518 400.246 89.0518C401.203 89.0518 402.019 88.9688 402.692 88.8027C403.376 88.627 403.933 88.3779 404.362 88.0557C404.792 87.7334 405.104 87.3428 405.3 86.8838C405.495 86.4248 405.593 85.9072 405.593 85.3311C405.593 84.8037 405.476 84.3447 405.241 83.9541C405.007 83.5635 404.675 83.2363 404.245 82.9727C403.825 82.709 403.317 82.5137 402.722 82.3867C402.136 82.25 401.491 82.1816 400.788 82.1816H398.605V80.0869H400.817C401.394 80.0869 401.916 80.0137 402.385 79.8672C402.863 79.7109 403.269 79.4912 403.601 79.208C403.942 78.9248 404.201 78.5781 404.377 78.168C404.562 77.748 404.655 77.2744 404.655 76.7471C404.655 75.7217 404.343 74.9746 403.718 74.5059C403.093 74.0371 402.175 73.8027 400.964 73.8027C400.319 73.8027 399.655 73.8662 398.972 73.9932C398.288 74.1201 397.556 74.3105 396.774 74.5645V72.3379C397.106 72.2207 397.458 72.1182 397.829 72.0303C398.21 71.9326 398.586 71.8545 398.957 71.7959C399.338 71.7275 399.714 71.6787 400.085 71.6494C400.456 71.6104 400.812 71.5908 401.154 71.5908C402.17 71.5908 403.063 71.7031 403.835 71.9277C404.606 72.1426 405.251 72.4551 405.769 72.8652C406.286 73.2754 406.677 73.7734 406.94 74.3594C407.204 74.9453 407.336 75.6045 407.336 76.3369C407.336 77.4307 407.053 78.3486 406.486 79.0908C405.93 79.833 405.163 80.4238 404.187 80.8633C404.685 80.9414 405.173 81.0977 405.651 81.332C406.14 81.5664 406.574 81.8691 406.955 82.2402C407.346 82.6016 407.658 83.0312 407.893 83.5293C408.137 84.0273 408.259 84.5791 408.259 85.1846ZM474.44 91H462.414V88.627H467.336V74.6523L462.751 77.1426L461.813 74.9746L467.907 71.7666H470.163V88.627H474.44V91Z" fill="black"/>
<path opacity="0.2" d="M11.1025 118.985C11.1025 120.06 10.9951 121.041 10.7803 121.929C10.5654 122.81 10.2396 123.569 9.80273 124.206C9.36589 124.836 8.82161 125.327 8.16992 125.678C7.52539 126.021 6.76628 126.193 5.89258 126.193C5.14062 126.193 4.45671 126.054 3.84082 125.774C3.22493 125.488 2.69857 125.051 2.26172 124.464C1.82487 123.877 1.48828 123.128 1.25195 122.219C1.01562 121.309 0.897461 120.231 0.897461 118.985C0.897461 117.911 1.00488 116.93 1.21973 116.042C1.44173 115.154 1.76758 114.395 2.19727 113.765C2.63411 113.127 3.17839 112.637 3.83008 112.293C4.48177 111.942 5.24089 111.767 6.10742 111.767C6.85938 111.767 7.54329 111.91 8.15918 112.196C8.77507 112.476 9.30143 112.912 9.73828 113.507C10.1751 114.094 10.5117 114.842 10.748 115.752C10.9844 116.661 11.1025 117.739 11.1025 118.985ZM9.21191 119.05C9.21191 118.806 9.20117 118.566 9.17969 118.33C9.16536 118.087 9.14746 117.85 9.12598 117.621L3.18555 122.036C3.29297 122.409 3.42904 122.752 3.59375 123.067C3.75846 123.382 3.9554 123.655 4.18457 123.884C4.4209 124.106 4.68587 124.281 4.97949 124.41C5.28027 124.532 5.62044 124.593 6 124.593C6.48698 124.593 6.92741 124.475 7.32129 124.238C7.72233 124.002 8.0625 123.651 8.3418 123.186C8.62109 122.72 8.83594 122.144 8.98633 121.456C9.13672 120.761 9.21191 119.959 9.21191 119.05ZM2.78809 118.921C2.78809 119.143 2.78809 119.365 2.78809 119.587C2.79525 119.809 2.80957 120.024 2.83105 120.231L8.77148 115.838C8.66406 115.473 8.52799 115.14 8.36328 114.839C8.19857 114.538 8.00163 114.28 7.77246 114.065C7.54329 113.843 7.2819 113.672 6.98828 113.55C6.69466 113.428 6.36523 113.367 6 113.367C5.51302 113.367 5.06901 113.485 4.66797 113.722C4.27409 113.958 3.9375 114.312 3.6582 114.785C3.37891 115.251 3.16406 115.831 3.01367 116.525C2.86328 117.213 2.78809 118.011 2.78809 118.921Z" fill="black"/>
<path d="M377.887 149.521C377.887 149.97 377.811 150.372 377.658 150.728C377.506 151.083 377.299 151.4 377.036 151.68C376.774 151.951 376.469 152.183 376.122 152.378C375.775 152.573 375.403 152.733 375.005 152.86C374.616 152.987 374.214 153.08 373.799 153.14C373.384 153.199 372.978 153.229 372.58 153.229C371.717 153.229 370.921 153.19 370.193 153.114C369.474 153.038 368.767 152.915 368.073 152.746V150.715C368.818 150.926 369.559 151.087 370.295 151.197C371.031 151.307 371.763 151.362 372.491 151.362C373.549 151.362 374.332 151.218 374.84 150.931C375.348 150.643 375.602 150.232 375.602 149.699C375.602 149.471 375.559 149.268 375.475 149.09C375.398 148.904 375.255 148.73 375.043 148.569C374.831 148.4 374.501 148.227 374.053 148.049C373.613 147.871 373.007 147.668 372.237 147.439C371.662 147.27 371.129 147.08 370.638 146.868C370.155 146.648 369.736 146.39 369.381 146.094C369.025 145.798 368.746 145.451 368.543 145.053C368.34 144.655 368.238 144.185 368.238 143.644C368.238 143.288 368.319 142.899 368.479 142.476C368.649 142.052 368.932 141.659 369.33 141.295C369.728 140.931 370.265 140.631 370.942 140.394C371.619 140.148 372.466 140.025 373.481 140.025C373.981 140.025 374.535 140.055 375.145 140.114C375.754 140.165 376.389 140.258 377.049 140.394V142.361C376.355 142.192 375.695 142.069 375.068 141.993C374.451 141.909 373.913 141.866 373.456 141.866C372.906 141.866 372.44 141.909 372.06 141.993C371.687 142.078 371.382 142.196 371.146 142.349C370.917 142.493 370.752 142.666 370.65 142.869C370.549 143.064 370.498 143.275 370.498 143.504C370.498 143.732 370.54 143.94 370.625 144.126C370.718 144.312 370.883 144.494 371.12 144.672C371.366 144.841 371.704 145.015 372.136 145.192C372.567 145.362 373.13 145.548 373.824 145.751C374.577 145.971 375.212 146.204 375.729 146.449C376.245 146.686 376.664 146.953 376.985 147.249C377.307 147.545 377.535 147.88 377.671 148.252C377.815 148.624 377.887 149.048 377.887 149.521ZM392.359 152.822C391.86 152.949 391.344 153.038 390.811 153.089C390.277 153.148 389.736 153.178 389.186 153.178C387.586 153.178 386.393 152.818 385.605 152.099C384.818 151.371 384.425 150.258 384.425 148.76V142.107H380.857V140.254H384.425V136.75L386.634 136.179V140.254H392.359V142.107H386.634V148.582C386.634 149.496 386.875 150.182 387.357 150.639C387.848 151.087 388.568 151.312 389.516 151.312C389.922 151.312 390.366 151.282 390.849 151.223C391.331 151.155 391.835 151.053 392.359 150.918V152.822ZM404.572 153L404.521 151.286C403.827 151.972 403.121 152.467 402.401 152.771C401.69 153.076 400.941 153.229 400.154 153.229C399.426 153.229 398.804 153.135 398.288 152.949C397.772 152.763 397.344 152.509 397.006 152.188C396.676 151.857 396.43 151.472 396.27 151.032C396.117 150.592 396.041 150.114 396.041 149.598C396.041 148.32 396.515 147.321 397.463 146.602C398.419 145.874 399.828 145.51 401.69 145.51H404.331V144.393C404.331 143.639 404.09 143.038 403.607 142.59C403.125 142.133 402.389 141.904 401.398 141.904C400.679 141.904 399.968 141.985 399.266 142.146C398.572 142.306 397.852 142.535 397.107 142.831V140.838C397.387 140.736 397.696 140.639 398.034 140.546C398.381 140.444 398.745 140.355 399.126 140.279C399.507 140.203 399.905 140.144 400.319 140.102C400.734 140.051 401.153 140.025 401.576 140.025C402.346 140.025 403.04 140.11 403.658 140.279C404.276 140.449 404.797 140.707 405.22 141.054C405.651 141.401 405.981 141.837 406.21 142.361C406.438 142.886 406.553 143.504 406.553 144.215V153H404.572ZM404.331 147.198H401.525C400.975 147.198 400.501 147.253 400.104 147.363C399.706 147.473 399.38 147.63 399.126 147.833C398.872 148.036 398.682 148.282 398.555 148.569C398.436 148.849 398.377 149.166 398.377 149.521C398.377 149.767 398.415 150.004 398.491 150.232C398.567 150.452 398.69 150.651 398.859 150.829C399.029 150.998 399.249 151.134 399.52 151.235C399.79 151.337 400.12 151.388 400.51 151.388C401.018 151.388 401.597 151.235 402.249 150.931C402.909 150.618 403.603 150.127 404.331 149.458V147.198ZM411.199 140.254H413.218L413.281 142.603C414.035 141.697 414.775 141.041 415.503 140.635C416.239 140.229 416.98 140.025 417.725 140.025C419.045 140.025 420.044 140.453 420.721 141.308C421.406 142.162 421.724 143.432 421.673 145.116H419.438C419.464 143.999 419.299 143.191 418.943 142.691C418.596 142.184 418.084 141.93 417.407 141.93C417.111 141.93 416.811 141.985 416.506 142.095C416.21 142.196 415.901 142.366 415.579 142.603C415.266 142.831 414.932 143.127 414.576 143.491C414.221 143.855 413.84 144.295 413.434 144.812V153H411.199V140.254ZM435.244 152.822C434.745 152.949 434.229 153.038 433.695 153.089C433.162 153.148 432.62 153.178 432.07 153.178C430.471 153.178 429.277 152.818 428.49 152.099C427.703 151.371 427.31 150.258 427.31 148.76V142.107H423.742V140.254H427.31V136.75L429.519 136.179V140.254H435.244V142.107H429.519V148.582C429.519 149.496 429.76 150.182 430.242 150.639C430.733 151.087 431.452 151.312 432.4 151.312C432.807 151.312 433.251 151.282 433.733 151.223C434.216 151.155 434.719 151.053 435.244 150.918V152.822Z" fill="#FF5500"/>
<path opacity="0.2" d="M76.6621 126H67.8428V124.26H71.4521V114.012L68.0898 115.838L67.4023 114.248L71.8711 111.896H73.5254V124.26H76.6621V126Z" fill="black"/>
<path opacity="0.2" d="M142.78 126H133.531V124.324L137.162 120.715C137.757 120.128 138.24 119.619 138.612 119.189C138.985 118.76 139.275 118.369 139.482 118.019C139.69 117.66 139.83 117.324 139.901 117.009C139.973 116.694 140.009 116.354 140.009 115.988C140.009 115.645 139.962 115.319 139.869 115.011C139.776 114.696 139.633 114.42 139.439 114.184C139.246 113.947 138.995 113.761 138.688 113.625C138.38 113.489 138.011 113.421 137.581 113.421C136.987 113.421 136.446 113.553 135.959 113.818C135.472 114.083 135.024 114.427 134.616 114.85L133.585 113.614C134.115 113.056 134.724 112.608 135.411 112.271C136.106 111.935 136.911 111.767 137.828 111.767C138.451 111.767 139.017 111.86 139.525 112.046C140.041 112.232 140.485 112.501 140.857 112.852C141.23 113.202 141.516 113.632 141.717 114.141C141.924 114.649 142.028 115.222 142.028 115.859C142.028 116.396 141.957 116.894 141.813 117.353C141.67 117.811 141.452 118.269 141.158 118.728C140.872 119.179 140.507 119.648 140.062 120.135C139.626 120.622 139.106 121.155 138.505 121.735L135.959 124.217H142.78V126Z" fill="black"/>
<path opacity="0.2" d="M208.512 121.735C208.512 122.351 208.386 122.931 208.136 123.476C207.885 124.013 207.509 124.485 207.008 124.894C206.507 125.295 205.876 125.613 205.117 125.85C204.358 126.079 203.474 126.193 202.464 126.193C201.905 126.193 201.404 126.175 200.96 126.14C200.516 126.104 200.101 126.057 199.714 126V124.324C200.158 124.403 200.627 124.464 201.121 124.507C201.615 124.55 202.12 124.571 202.636 124.571C203.338 124.571 203.936 124.51 204.43 124.389C204.931 124.26 205.339 124.077 205.654 123.841C205.969 123.604 206.199 123.318 206.342 122.981C206.485 122.645 206.557 122.265 206.557 121.843C206.557 121.456 206.471 121.119 206.299 120.833C206.127 120.547 205.883 120.307 205.568 120.113C205.26 119.92 204.888 119.777 204.451 119.684C204.021 119.583 203.549 119.533 203.033 119.533H201.433V117.997H203.055C203.477 117.997 203.86 117.943 204.204 117.836C204.555 117.721 204.852 117.56 205.096 117.353C205.346 117.145 205.536 116.891 205.665 116.59C205.801 116.282 205.869 115.935 205.869 115.548C205.869 114.796 205.64 114.248 205.182 113.904C204.723 113.561 204.05 113.389 203.162 113.389C202.689 113.389 202.202 113.435 201.701 113.528C201.2 113.621 200.663 113.761 200.09 113.947V112.314C200.333 112.229 200.591 112.153 200.863 112.089C201.143 112.017 201.418 111.96 201.69 111.917C201.97 111.867 202.245 111.831 202.518 111.81C202.79 111.781 203.051 111.767 203.302 111.767C204.047 111.767 204.702 111.849 205.268 112.014C205.833 112.171 206.306 112.4 206.686 112.701C207.065 113.002 207.352 113.367 207.545 113.797C207.738 114.227 207.835 114.71 207.835 115.247C207.835 116.049 207.627 116.722 207.212 117.267C206.804 117.811 206.242 118.244 205.525 118.566C205.891 118.624 206.249 118.738 206.6 118.91C206.958 119.082 207.276 119.304 207.556 119.576C207.842 119.841 208.071 120.156 208.243 120.521C208.422 120.887 208.512 121.291 208.512 121.735Z" fill="black"/>
<path opacity="0.2" d="M275.479 122.896H273.083V126H271.171V122.896H264.414V121.252L270.397 111.96H273.083V121.252H275.479V122.896ZM271.171 113.765L266.283 121.252H271.171V113.765Z" fill="black"/>
<path opacity="0.2" d="M341.426 121.51C341.426 122.204 341.275 122.838 340.975 123.411C340.674 123.984 340.258 124.478 339.729 124.894C339.206 125.302 338.586 125.62 337.87 125.85C337.154 126.079 336.381 126.193 335.55 126.193C335.342 126.193 335.117 126.186 334.873 126.172C334.637 126.165 334.4 126.15 334.164 126.129C333.928 126.115 333.695 126.097 333.466 126.075C333.244 126.054 333.043 126.029 332.864 126V124.303C333.251 124.396 333.691 124.464 334.186 124.507C334.687 124.55 335.192 124.571 335.7 124.571C336.273 124.571 336.789 124.503 337.247 124.367C337.705 124.231 338.096 124.038 338.418 123.787C338.74 123.529 338.987 123.221 339.159 122.863C339.331 122.498 339.417 122.09 339.417 121.639C339.417 120.765 339.102 120.131 338.472 119.737C337.849 119.336 336.95 119.136 335.775 119.136H333.111V111.96H340.674V113.593H334.873V117.535H336.098C336.771 117.535 337.426 117.596 338.063 117.718C338.701 117.84 339.267 118.054 339.761 118.362C340.262 118.663 340.663 119.071 340.964 119.587C341.272 120.095 341.426 120.736 341.426 121.51Z" fill="black"/>
<path opacity="0.5" d="M406.952 121.553C406.952 122.197 406.834 122.802 406.598 123.368C406.368 123.934 406.039 124.428 405.609 124.851C405.18 125.266 404.66 125.595 404.052 125.839C403.45 126.075 402.781 126.193 402.043 126.193C401.27 126.193 400.586 126.072 399.991 125.828C399.397 125.577 398.899 125.198 398.498 124.689C398.097 124.174 397.793 123.526 397.585 122.745C397.377 121.965 397.273 121.041 397.273 119.974C397.273 119.257 397.32 118.563 397.413 117.89C397.506 117.216 397.66 116.583 397.875 115.988C398.09 115.394 398.376 114.85 398.734 114.355C399.092 113.861 399.536 113.439 400.066 113.088C400.604 112.73 401.234 112.454 401.957 112.261C402.68 112.06 403.518 111.96 404.471 111.96H405.856V113.593H404.353C403.515 113.593 402.788 113.693 402.172 113.894C401.556 114.094 401.04 114.377 400.625 114.742C400.21 115.107 399.891 115.548 399.669 116.063C399.447 116.579 399.307 117.156 399.25 117.793L399.207 118.233C399.658 117.968 400.177 117.757 400.765 117.6C401.359 117.435 402 117.353 402.688 117.353C403.396 117.353 404.016 117.456 404.546 117.664C405.083 117.872 405.527 118.162 405.878 118.534C406.236 118.899 406.505 119.34 406.684 119.855C406.863 120.371 406.952 120.937 406.952 121.553ZM404.997 121.671C404.997 121.241 404.943 120.854 404.836 120.511C404.736 120.16 404.575 119.866 404.353 119.63C404.131 119.386 403.848 119.2 403.504 119.071C403.167 118.935 402.763 118.867 402.29 118.867C402.018 118.867 401.742 118.892 401.463 118.942C401.184 118.993 400.908 119.064 400.636 119.157C400.371 119.243 400.117 119.343 399.873 119.458C399.63 119.573 399.408 119.694 399.207 119.823C399.207 120.747 399.271 121.521 399.4 122.144C399.529 122.759 399.719 123.254 399.97 123.626C400.228 123.998 400.543 124.263 400.915 124.421C401.287 124.578 401.717 124.657 402.204 124.657C402.612 124.657 402.985 124.593 403.321 124.464C403.665 124.328 403.959 124.131 404.202 123.873C404.453 123.615 404.646 123.304 404.782 122.938C404.925 122.566 404.997 122.144 404.997 121.671Z" fill="black"/>
<path opacity="0.5" d="M472.705 113.7L466.818 126H464.681L470.793 113.7H463.209V111.96H472.705V113.7Z" fill="black"/>
<rect x="530" y="62" width="166" height="68" rx="10" fill="#EDEDED" stroke="#999999" stroke-width="2" stroke-dasharray="10 10"/>
<path d="M561.302 90.8223C560.802 90.9492 560.286 91.0381 559.753 91.0889C559.22 91.1481 558.678 91.1777 558.128 91.1777C556.528 91.1777 555.335 90.818 554.548 90.0986C553.761 89.3708 553.367 88.2578 553.367 86.7598V80.1074H549.8V78.2539H553.367V74.75L555.576 74.1787V78.2539H561.302V80.1074H555.576V86.582C555.576 87.4961 555.817 88.1816 556.3 88.6387C556.791 89.0872 557.51 89.3115 558.458 89.3115C558.864 89.3115 559.309 89.2819 559.791 89.2227C560.273 89.1549 560.777 89.0534 561.302 88.918V90.8223ZM573.515 91L573.464 89.2861C572.77 89.9717 572.063 90.4668 571.344 90.7715C570.633 91.0762 569.884 91.2285 569.097 91.2285C568.369 91.2285 567.747 91.1354 567.23 90.9492C566.714 90.763 566.287 90.5091 565.948 90.1875C565.618 89.8574 565.373 89.4723 565.212 89.0322C565.06 88.5921 564.983 88.1139 564.983 87.5977C564.983 86.3197 565.457 85.321 566.405 84.6016C567.362 83.8737 568.771 83.5098 570.633 83.5098H573.273V82.3926C573.273 81.6393 573.032 81.0384 572.55 80.5898C572.067 80.1328 571.331 79.9043 570.341 79.9043C569.621 79.9043 568.91 79.9847 568.208 80.1455C567.514 80.3063 566.795 80.5348 566.05 80.8311V78.8379C566.329 78.7363 566.638 78.639 566.977 78.5459C567.324 78.4443 567.688 78.3555 568.068 78.2793C568.449 78.2031 568.847 78.1439 569.262 78.1016C569.676 78.0508 570.095 78.0254 570.519 78.0254C571.289 78.0254 571.983 78.11 572.601 78.2793C573.218 78.4486 573.739 78.7067 574.162 79.0537C574.594 79.4007 574.924 79.8366 575.152 80.3613C575.381 80.8861 575.495 81.5039 575.495 82.2148V91H573.515ZM573.273 85.1982H570.468C569.918 85.1982 569.444 85.2533 569.046 85.3633C568.648 85.4733 568.322 85.6299 568.068 85.833C567.814 86.0361 567.624 86.2816 567.497 86.5693C567.379 86.8486 567.319 87.166 567.319 87.5215C567.319 87.7669 567.357 88.0039 567.434 88.2324C567.51 88.4525 567.632 88.6514 567.802 88.8291C567.971 88.9984 568.191 89.1338 568.462 89.2354C568.733 89.3369 569.063 89.3877 569.452 89.3877C569.96 89.3877 570.54 89.2354 571.191 88.9307C571.852 88.6175 572.546 88.1266 573.273 87.458V85.1982ZM579.621 78.2539H581.589L581.678 80.3105C582.05 79.8704 582.41 79.5065 582.757 79.2188C583.104 78.9225 583.442 78.6855 583.772 78.5078C584.111 78.3301 584.454 78.2074 584.801 78.1396C585.148 78.0635 585.507 78.0254 585.88 78.0254C587.192 78.0254 588.182 78.4147 588.851 79.1934C589.528 79.9635 589.866 81.1273 589.866 82.6846V91H587.657V82.8623C587.657 81.8636 587.471 81.1273 587.099 80.6533C586.726 80.1709 586.172 79.9297 585.436 79.9297C585.165 79.9297 584.898 79.972 584.636 80.0566C584.382 80.1328 584.115 80.2725 583.836 80.4756C583.557 80.6702 583.252 80.9368 582.922 81.2754C582.6 81.6139 582.236 82.0371 581.83 82.5449V91H579.621V78.2539ZM605.38 91H602.346L596.404 84.1699V91H594.195V73.0615H596.404V84.0811L602.13 78.2539H605.05L599.07 84.1318L605.38 91ZM633.703 85.0459H628.714V90.2256H626.53V85.0459H621.541V83.1162H626.53V77.9746H628.714V83.1162H633.703V85.0459ZM647.376 82.7988H636.458V80.9326H647.376V82.7988ZM647.376 87.2168H636.458V85.3506H647.376V87.2168ZM676.017 91H665.594V88.9434H669.859V76.832L665.886 78.9902L665.073 77.1113L670.354 74.3311H672.31V88.9434H676.017V91Z" fill="black"/>
<path d="M647.606 110.799H636.688V108.933H647.606V110.799ZM647.606 115.217H636.688V113.351H647.606V115.217ZM677.212 115.331H674.381V119H672.121V115.331H664.136V113.389L671.207 102.407H674.381V113.389H677.212V115.331ZM672.121 104.54L666.345 113.389H672.121V104.54Z" fill="black"/>
<path d="M468.345 12.7617H465.154V11.2148H470.235V20.4424H473.447V22H464.8V20.4424H468.345V12.7617ZM469 6.69238C469.208 6.69238 469.401 6.73177 469.58 6.81055C469.759 6.88216 469.913 6.986 470.042 7.12207C470.178 7.25814 470.282 7.41569 470.354 7.59473C470.432 7.7666 470.472 7.95638 470.472 8.16406C470.472 8.36458 470.432 8.55436 470.354 8.7334C470.282 8.91243 470.178 9.06999 470.042 9.20605C469.913 9.34212 469.759 9.44954 469.58 9.52832C469.401 9.59993 469.208 9.63574 469 9.63574C468.792 9.63574 468.599 9.59993 468.42 9.52832C468.241 9.44954 468.083 9.34212 467.947 9.20605C467.818 9.06999 467.715 8.91243 467.636 8.7334C467.564 8.55436 467.528 8.36458 467.528 8.16406C467.528 7.95638 467.564 7.7666 467.636 7.59473C467.715 7.41569 467.818 7.25814 467.947 7.12207C468.083 6.986 468.241 6.88216 468.42 6.81055C468.599 6.73177 468.792 6.69238 469 6.69238Z" fill="black"/>
<path d="M467.293 59.7071C467.683 60.0976 468.317 60.0976 468.707 59.7071L475.071 53.3431C475.462 52.9526 475.462 52.3195 475.071 51.9289C474.681 51.5384 474.047 51.5384 473.657 51.9289L468 57.5858L462.343 51.9289C461.953 51.5384 461.319 51.5384 460.929 51.9289C460.538 52.3195 460.538 52.9526 460.929 53.3431L467.293 59.7071ZM467 29L467 59L469 59L469 29L467 29Z" fill="black"/>
<rect x="454" y="1" width="28" height="28" rx="6" stroke="black" stroke-width="2"/>
</g>
<defs>
<clipPath id="clip0_6295_4003">
<rect width="697" height="154" fill="white"/>
</clipPath>
</defs>
</svg>
