<svg width="847" height="150" viewBox="0 0 847 150" fill="none" xmlns="http://www.w3.org/2000/svg">
<g clip-path="url(#clip0_6294_1573)">
<rect width="847" height="150" fill="white"/>
<rect x="97" y="1" width="327" height="91" rx="9" fill="white" stroke="black" stroke-width="2"/>
<rect x="47.5" y="6.5" width="32" height="81" fill="#E3FFEB" stroke="#00BD36"/>
<path d="M66.792 33L66.7334 31.0225C65.9326 31.8135 65.1172 32.3848 64.2871 32.7363C63.4668 33.0879 62.6025 33.2637 61.6943 33.2637C60.8545 33.2637 60.1367 33.1562 59.541 32.9414C58.9453 32.7266 58.4521 32.4336 58.0615 32.0625C57.6807 31.6816 57.3975 31.2373 57.2119 30.7295C57.0361 30.2217 56.9482 29.6699 56.9482 29.0742C56.9482 27.5996 57.4951 26.4473 58.5889 25.6172C59.6924 24.7773 61.3184 24.3574 63.4668 24.3574H66.5137V23.0684C66.5137 22.1992 66.2354 21.5059 65.6787 20.9883C65.1221 20.4609 64.2725 20.1973 63.1299 20.1973C62.2998 20.1973 61.4795 20.29 60.6689 20.4756C59.8682 20.6611 59.0381 20.9248 58.1787 21.2666V18.9668C58.501 18.8496 58.8574 18.7373 59.248 18.6299C59.6484 18.5127 60.0684 18.4102 60.5078 18.3223C60.9473 18.2344 61.4062 18.166 61.8848 18.1172C62.3633 18.0586 62.8467 18.0293 63.335 18.0293C64.2236 18.0293 65.0244 18.127 65.7373 18.3223C66.4502 18.5176 67.0508 18.8154 67.5391 19.2158C68.0371 19.6162 68.418 20.1191 68.6816 20.7246C68.9453 21.3301 69.0771 22.043 69.0771 22.8633V33H66.792ZM66.5137 26.3057H63.2764C62.6416 26.3057 62.0947 26.3691 61.6357 26.4961C61.1768 26.623 60.8008 26.8037 60.5078 27.0381C60.2148 27.2725 59.9951 27.5557 59.8486 27.8877C59.7119 28.21 59.6436 28.5762 59.6436 28.9863C59.6436 29.2695 59.6875 29.543 59.7754 29.8066C59.8633 30.0605 60.0049 30.29 60.2002 30.4951C60.3955 30.6904 60.6494 30.8467 60.9619 30.9639C61.2744 31.0811 61.6553 31.1396 62.1045 31.1396C62.6904 31.1396 63.3594 30.9639 64.1113 30.6123C64.873 30.251 65.6738 29.6846 66.5137 28.9131V26.3057ZM134.746 32.458C134.082 32.7119 133.398 32.8975 132.695 33.0146C132.002 33.1416 131.284 33.2051 130.542 33.2051C128.218 33.2051 126.426 32.5752 125.166 31.3154C123.916 30.0557 123.291 28.2148 123.291 25.793C123.291 24.6309 123.472 23.5762 123.833 22.6289C124.194 21.6816 124.702 20.8711 125.356 20.1973C126.011 19.5234 126.792 19.0059 127.7 18.6445C128.608 18.2734 129.609 18.0879 130.703 18.0879C131.465 18.0879 132.178 18.1416 132.842 18.249C133.506 18.3564 134.141 18.5322 134.746 18.7764V21.208C134.111 20.876 133.462 20.6367 132.798 20.4902C132.144 20.334 131.465 20.2559 130.762 20.2559C130.107 20.2559 129.487 20.3828 128.901 20.6367C128.325 20.8809 127.817 21.2373 127.378 21.7061C126.938 22.1748 126.592 22.7461 126.338 23.4199C126.084 24.0938 125.957 24.8555 125.957 25.7051C125.957 27.4824 126.387 28.8154 127.246 29.7041C128.115 30.583 129.316 31.0225 130.85 31.0225C131.543 31.0225 132.212 30.9443 132.856 30.7881C133.511 30.6318 134.141 30.3975 134.746 30.085V32.458ZM198.745 33L198.687 31.0225C197.886 31.8135 197.07 32.3848 196.24 32.7363C195.42 33.0879 194.556 33.2637 193.647 33.2637C192.808 33.2637 192.09 33.1562 191.494 32.9414C190.898 32.7266 190.405 32.4336 190.015 32.0625C189.634 31.6816 189.351 31.2373 189.165 30.7295C188.989 30.2217 188.901 29.6699 188.901 29.0742C188.901 27.5996 189.448 26.4473 190.542 25.6172C191.646 24.7773 193.271 24.3574 195.42 24.3574H198.467V23.0684C198.467 22.1992 198.188 21.5059 197.632 20.9883C197.075 20.4609 196.226 20.1973 195.083 20.1973C194.253 20.1973 193.433 20.29 192.622 20.4756C191.821 20.6611 190.991 20.9248 190.132 21.2666V18.9668C190.454 18.8496 190.811 18.7373 191.201 18.6299C191.602 18.5127 192.021 18.4102 192.461 18.3223C192.9 18.2344 193.359 18.166 193.838 18.1172C194.316 18.0586 194.8 18.0293 195.288 18.0293C196.177 18.0293 196.978 18.127 197.69 18.3223C198.403 18.5176 199.004 18.8154 199.492 19.2158C199.99 19.6162 200.371 20.1191 200.635 20.7246C200.898 21.3301 201.03 22.043 201.03 22.8633V33H198.745ZM198.467 26.3057H195.229C194.595 26.3057 194.048 26.3691 193.589 26.4961C193.13 26.623 192.754 26.8037 192.461 27.0381C192.168 27.2725 191.948 27.5557 191.802 27.8877C191.665 28.21 191.597 28.5762 191.597 28.9863C191.597 29.2695 191.641 29.543 191.729 29.8066C191.816 30.0605 191.958 30.29 192.153 30.4951C192.349 30.6904 192.603 30.8467 192.915 30.9639C193.228 31.0811 193.608 31.1396 194.058 31.1396C194.644 31.1396 195.312 30.9639 196.064 30.6123C196.826 30.251 197.627 29.6846 198.467 28.9131V26.3057ZM267.842 25.3828C267.842 26.6035 267.671 27.6973 267.329 28.6641C266.997 29.6211 266.519 30.4365 265.894 31.1104C265.278 31.7744 264.526 32.2871 263.638 32.6484C262.749 33 261.748 33.1758 260.635 33.1758C259.766 33.1758 258.877 33.0928 257.969 32.9268C257.061 32.7607 256.162 32.4971 255.273 32.1357V12.3018H257.822V18L257.705 20.7246C258.438 19.7383 259.219 19.0449 260.049 18.6445C260.889 18.2344 261.787 18.0293 262.744 18.0293C263.584 18.0293 264.321 18.2051 264.956 18.5566C265.591 18.9082 266.123 19.4062 266.553 20.0508C266.982 20.6855 267.305 21.457 267.52 22.3652C267.734 23.2637 267.842 24.2695 267.842 25.3828ZM265.234 25.5C265.234 24.7285 265.176 24.0205 265.059 23.376C264.951 22.7314 264.775 22.1797 264.531 21.7207C264.287 21.2617 263.975 20.9053 263.594 20.6514C263.213 20.3877 262.759 20.2559 262.231 20.2559C261.909 20.2559 261.582 20.3096 261.25 20.417C260.918 20.5146 260.571 20.6855 260.21 20.9297C259.858 21.1641 259.482 21.4814 259.082 21.8818C258.691 22.2725 258.271 22.7607 257.822 23.3467V30.4805C258.32 30.6758 258.828 30.832 259.346 30.9492C259.863 31.0566 260.356 31.1104 260.825 31.1104C261.411 31.1104 261.968 31.0176 262.495 30.832C263.032 30.6465 263.501 30.3389 263.901 29.9092C264.312 29.4697 264.634 28.8936 264.868 28.1807C265.112 27.458 265.234 26.5645 265.234 25.5ZM330.698 33L330.64 31.0225C329.839 31.8135 329.023 32.3848 328.193 32.7363C327.373 33.0879 326.509 33.2637 325.601 33.2637C324.761 33.2637 324.043 33.1562 323.447 32.9414C322.852 32.7266 322.358 32.4336 321.968 32.0625C321.587 31.6816 321.304 31.2373 321.118 30.7295C320.942 30.2217 320.854 29.6699 320.854 29.0742C320.854 27.5996 321.401 26.4473 322.495 25.6172C323.599 24.7773 325.225 24.3574 327.373 24.3574H330.42V23.0684C330.42 22.1992 330.142 21.5059 329.585 20.9883C329.028 20.4609 328.179 20.1973 327.036 20.1973C326.206 20.1973 325.386 20.29 324.575 20.4756C323.774 20.6611 322.944 20.9248 322.085 21.2666V18.9668C322.407 18.8496 322.764 18.7373 323.154 18.6299C323.555 18.5127 323.975 18.4102 324.414 18.3223C324.854 18.2344 325.312 18.166 325.791 18.1172C326.27 18.0586 326.753 18.0293 327.241 18.0293C328.13 18.0293 328.931 18.127 329.644 18.3223C330.356 18.5176 330.957 18.8154 331.445 19.2158C331.943 19.6162 332.324 20.1191 332.588 20.7246C332.852 21.3301 332.983 22.043 332.983 22.8633V33H330.698ZM330.42 26.3057H327.183C326.548 26.3057 326.001 26.3691 325.542 26.4961C325.083 26.623 324.707 26.8037 324.414 27.0381C324.121 27.2725 323.901 27.5557 323.755 27.8877C323.618 28.21 323.55 28.5762 323.55 28.9863C323.55 29.2695 323.594 29.543 323.682 29.8066C323.77 30.0605 323.911 30.29 324.106 30.4951C324.302 30.6904 324.556 30.8467 324.868 30.9639C325.181 31.0811 325.562 31.1396 326.011 31.1396C326.597 31.1396 327.266 30.9639 328.018 30.6123C328.779 30.251 329.58 29.6846 330.42 28.9131V26.3057ZM398.652 32.458C397.988 32.7119 397.305 32.8975 396.602 33.0146C395.908 33.1416 395.19 33.2051 394.448 33.2051C392.124 33.2051 390.332 32.5752 389.072 31.3154C387.822 30.0557 387.197 28.2148 387.197 25.793C387.197 24.6309 387.378 23.5762 387.739 22.6289C388.101 21.6816 388.608 20.8711 389.263 20.1973C389.917 19.5234 390.698 19.0059 391.606 18.6445C392.515 18.2734 393.516 18.0879 394.609 18.0879C395.371 18.0879 396.084 18.1416 396.748 18.249C397.412 18.3564 398.047 18.5322 398.652 18.7764V21.208C398.018 20.876 397.368 20.6367 396.704 20.4902C396.05 20.334 395.371 20.2559 394.668 20.2559C394.014 20.2559 393.394 20.3828 392.808 20.6367C392.231 20.8809 391.724 21.2373 391.284 21.7061C390.845 22.1748 390.498 22.7461 390.244 23.4199C389.99 24.0938 389.863 24.8555 389.863 25.7051C389.863 27.4824 390.293 28.8154 391.152 29.7041C392.021 30.583 393.223 31.0225 394.756 31.0225C395.449 31.0225 396.118 30.9443 396.763 30.7881C397.417 30.6318 398.047 30.3975 398.652 30.085V32.458Z" fill="black"/>
<path d="M66.792 76L66.7334 74.0225C65.9326 74.8135 65.1172 75.3848 64.2871 75.7363C63.4668 76.0879 62.6025 76.2637 61.6943 76.2637C60.8545 76.2637 60.1367 76.1562 59.541 75.9414C58.9453 75.7266 58.4521 75.4336 58.0615 75.0625C57.6807 74.6816 57.3975 74.2373 57.2119 73.7295C57.0361 73.2217 56.9482 72.6699 56.9482 72.0742C56.9482 70.5996 57.4951 69.4473 58.5889 68.6172C59.6924 67.7773 61.3184 67.3574 63.4668 67.3574H66.5137V66.0684C66.5137 65.1992 66.2354 64.5059 65.6787 63.9883C65.1221 63.4609 64.2725 63.1973 63.1299 63.1973C62.2998 63.1973 61.4795 63.29 60.6689 63.4756C59.8682 63.6611 59.0381 63.9248 58.1787 64.2666V61.9668C58.501 61.8496 58.8574 61.7373 59.248 61.6299C59.6484 61.5127 60.0684 61.4102 60.5078 61.3223C60.9473 61.2344 61.4062 61.166 61.8848 61.1172C62.3633 61.0586 62.8467 61.0293 63.335 61.0293C64.2236 61.0293 65.0244 61.127 65.7373 61.3223C66.4502 61.5176 67.0508 61.8154 67.5391 62.2158C68.0371 62.6162 68.418 63.1191 68.6816 63.7246C68.9453 64.3301 69.0771 65.043 69.0771 65.8633V76H66.792ZM66.5137 69.3057H63.2764C62.6416 69.3057 62.0947 69.3691 61.6357 69.4961C61.1768 69.623 60.8008 69.8037 60.5078 70.0381C60.2148 70.2725 59.9951 70.5557 59.8486 70.8877C59.7119 71.21 59.6436 71.5762 59.6436 71.9863C59.6436 72.2695 59.6875 72.543 59.7754 72.8066C59.8633 73.0605 60.0049 73.29 60.2002 73.4951C60.3955 73.6904 60.6494 73.8467 60.9619 73.9639C61.2744 74.0811 61.6553 74.1396 62.1045 74.1396C62.6904 74.1396 63.3594 73.9639 64.1113 73.6123C64.873 73.251 65.6738 72.6846 66.5137 71.9131V69.3057ZM135.742 67.8701C135.742 68.2314 135.737 68.5342 135.728 68.7783C135.718 69.0225 135.703 69.252 135.684 69.4668H125.356C125.356 70.9707 125.776 72.1279 126.616 72.9385C127.456 73.7393 128.667 74.1396 130.249 74.1396C130.679 74.1396 131.108 74.125 131.538 74.0957C131.968 74.0566 132.383 74.0078 132.783 73.9492C133.184 73.8906 133.564 73.8271 133.926 73.7588C134.297 73.6807 134.639 73.5977 134.951 73.5098V75.6045C134.258 75.7998 133.472 75.9561 132.593 76.0732C131.724 76.2002 130.82 76.2637 129.883 76.2637C128.623 76.2637 127.539 76.0928 126.631 75.751C125.723 75.4092 124.976 74.916 124.39 74.2715C123.813 73.6172 123.384 72.8213 123.101 71.8838C122.827 70.9365 122.69 69.8672 122.69 68.6758C122.69 67.6406 122.837 66.6641 123.13 65.7461C123.433 64.8184 123.867 64.0078 124.434 63.3145C125.01 62.6113 125.713 62.0547 126.543 61.6445C127.373 61.2344 128.315 61.0293 129.37 61.0293C130.396 61.0293 131.304 61.1904 132.095 61.5127C132.886 61.835 133.55 62.2939 134.087 62.8896C134.634 63.4756 135.044 64.1934 135.317 65.043C135.601 65.8828 135.742 66.8252 135.742 67.8701ZM133.091 67.5039C133.12 66.8496 133.057 66.2539 132.9 65.7168C132.744 65.1699 132.5 64.7012 132.168 64.3105C131.846 63.9199 131.44 63.6172 130.952 63.4023C130.464 63.1777 129.897 63.0654 129.253 63.0654C128.696 63.0654 128.188 63.1729 127.729 63.3877C127.271 63.6025 126.875 63.9053 126.543 64.2959C126.211 64.6865 125.942 65.1553 125.737 65.7021C125.532 66.249 125.405 66.8496 125.356 67.5039H133.091ZM201.865 68.3828C201.865 69.6035 201.694 70.6973 201.353 71.6641C201.021 72.6211 200.542 73.4365 199.917 74.1104C199.302 74.7744 198.55 75.2871 197.661 75.6484C196.772 76 195.771 76.1758 194.658 76.1758C193.789 76.1758 192.9 76.0928 191.992 75.9268C191.084 75.7607 190.186 75.4971 189.297 75.1357V55.3018H191.846V61L191.729 63.7246C192.461 62.7383 193.242 62.0449 194.072 61.6445C194.912 61.2344 195.811 61.0293 196.768 61.0293C197.607 61.0293 198.345 61.2051 198.979 61.5566C199.614 61.9082 200.146 62.4062 200.576 63.0508C201.006 63.6855 201.328 64.457 201.543 65.3652C201.758 66.2637 201.865 67.2695 201.865 68.3828ZM199.258 68.5C199.258 67.7285 199.199 67.0205 199.082 66.376C198.975 65.7314 198.799 65.1797 198.555 64.7207C198.311 64.2617 197.998 63.9053 197.617 63.6514C197.236 63.3877 196.782 63.2559 196.255 63.2559C195.933 63.2559 195.605 63.3096 195.273 63.417C194.941 63.5146 194.595 63.6855 194.233 63.9297C193.882 64.1641 193.506 64.4814 193.105 64.8818C192.715 65.2725 192.295 65.7607 191.846 66.3467V73.4805C192.344 73.6758 192.852 73.832 193.369 73.9492C193.887 74.0566 194.38 74.1104 194.849 74.1104C195.435 74.1104 195.991 74.0176 196.519 73.832C197.056 73.6465 197.524 73.3389 197.925 72.9092C198.335 72.4697 198.657 71.8936 198.892 71.1807C199.136 70.458 199.258 69.5645 199.258 68.5ZM264.722 76L264.663 74.0225C263.862 74.8135 263.047 75.3848 262.217 75.7363C261.396 76.0879 260.532 76.2637 259.624 76.2637C258.784 76.2637 258.066 76.1562 257.471 75.9414C256.875 75.7266 256.382 75.4336 255.991 75.0625C255.61 74.6816 255.327 74.2373 255.142 73.7295C254.966 73.2217 254.878 72.6699 254.878 72.0742C254.878 70.5996 255.425 69.4473 256.519 68.6172C257.622 67.7773 259.248 67.3574 261.396 67.3574H264.443V66.0684C264.443 65.1992 264.165 64.5059 263.608 63.9883C263.052 63.4609 262.202 63.1973 261.06 63.1973C260.229 63.1973 259.409 63.29 258.599 63.4756C257.798 63.6611 256.968 63.9248 256.108 64.2666V61.9668C256.431 61.8496 256.787 61.7373 257.178 61.6299C257.578 61.5127 257.998 61.4102 258.438 61.3223C258.877 61.2344 259.336 61.166 259.814 61.1172C260.293 61.0586 260.776 61.0293 261.265 61.0293C262.153 61.0293 262.954 61.127 263.667 61.3223C264.38 61.5176 264.98 61.8154 265.469 62.2158C265.967 62.6162 266.348 63.1191 266.611 63.7246C266.875 64.3301 267.007 65.043 267.007 65.8633V76H264.722ZM264.443 69.3057H261.206C260.571 69.3057 260.024 69.3691 259.565 69.4961C259.106 69.623 258.73 69.8037 258.438 70.0381C258.145 70.2725 257.925 70.5557 257.778 70.8877C257.642 71.21 257.573 71.5762 257.573 71.9863C257.573 72.2695 257.617 72.543 257.705 72.8066C257.793 73.0605 257.935 73.29 258.13 73.4951C258.325 73.6904 258.579 73.8467 258.892 73.9639C259.204 74.0811 259.585 74.1396 260.034 74.1396C260.62 74.1396 261.289 73.9639 262.041 73.6123C262.803 73.251 263.604 72.6846 264.443 71.9131V69.3057ZM333.818 68.3828C333.818 69.6035 333.647 70.6973 333.306 71.6641C332.974 72.6211 332.495 73.4365 331.87 74.1104C331.255 74.7744 330.503 75.2871 329.614 75.6484C328.726 76 327.725 76.1758 326.611 76.1758C325.742 76.1758 324.854 76.0928 323.945 75.9268C323.037 75.7607 322.139 75.4971 321.25 75.1357V55.3018H323.799V61L323.682 63.7246C324.414 62.7383 325.195 62.0449 326.025 61.6445C326.865 61.2344 327.764 61.0293 328.721 61.0293C329.561 61.0293 330.298 61.2051 330.933 61.5566C331.567 61.9082 332.1 62.4062 332.529 63.0508C332.959 63.6855 333.281 64.457 333.496 65.3652C333.711 66.2637 333.818 67.2695 333.818 68.3828ZM331.211 68.5C331.211 67.7285 331.152 67.0205 331.035 66.376C330.928 65.7314 330.752 65.1797 330.508 64.7207C330.264 64.2617 329.951 63.9053 329.57 63.6514C329.189 63.3877 328.735 63.2559 328.208 63.2559C327.886 63.2559 327.559 63.3096 327.227 63.417C326.895 63.5146 326.548 63.6855 326.187 63.9297C325.835 64.1641 325.459 64.4814 325.059 64.8818C324.668 65.2725 324.248 65.7607 323.799 66.3467V73.4805C324.297 73.6758 324.805 73.832 325.322 73.9492C325.84 74.0566 326.333 74.1104 326.802 74.1104C327.388 74.1104 327.944 74.0176 328.472 73.832C329.009 73.6465 329.478 73.3389 329.878 72.9092C330.288 72.4697 330.61 71.8936 330.845 71.1807C331.089 70.458 331.211 69.5645 331.211 68.5Z" fill="black"/>
<path d="M453.429 54H442.413V34.8545H445.064V51.7734H453.429V54ZM470.069 53.2822C468.536 53.917 466.93 54.2344 465.25 54.2344C462.545 54.2344 460.465 53.4287 459.01 51.8174C457.564 50.1963 456.842 47.8037 456.842 44.6396C456.842 43.1064 457.042 41.7197 457.442 40.4795C457.843 39.2393 458.414 38.1895 459.156 37.3301C459.898 36.4609 460.797 35.792 461.852 35.3232C462.906 34.8545 464.088 34.6201 465.396 34.6201C466.285 34.6201 467.11 34.6982 467.872 34.8545C468.634 35.001 469.366 35.2305 470.069 35.543V38.1064C469.376 37.7256 468.658 37.4375 467.916 37.2422C467.174 37.0371 466.363 36.9346 465.484 36.9346C464.586 36.9346 463.771 37.1055 463.038 37.4473C462.315 37.7793 461.7 38.2676 461.192 38.9121C460.685 39.5469 460.294 40.3281 460.021 41.2559C459.747 42.1738 459.61 43.2236 459.61 44.4053C459.61 46.8857 460.113 48.7559 461.119 50.0156C462.125 51.2754 463.6 51.9053 465.543 51.9053C466.363 51.9053 467.149 51.8125 467.901 51.627C468.653 51.4316 469.376 51.1631 470.069 50.8213V53.2822ZM486.593 48.8145C486.593 49.7227 486.407 50.5186 486.036 51.2021C485.665 51.8857 485.147 52.457 484.483 52.916C483.819 53.3652 483.019 53.7021 482.081 53.9268C481.153 54.1514 480.128 54.2637 479.005 54.2637C478.497 54.2637 477.989 54.2441 477.481 54.2051C476.983 54.166 476.5 54.1172 476.031 54.0586C475.572 54 475.138 53.9316 474.728 53.8535C474.317 53.7754 473.946 53.6924 473.614 53.6045V51.085C474.347 51.3584 475.167 51.5732 476.075 51.7295C476.993 51.8857 478.033 51.9639 479.195 51.9639C480.035 51.9639 480.748 51.9004 481.334 51.7734C481.93 51.6367 482.413 51.4414 482.784 51.1875C483.165 50.9238 483.438 50.6064 483.604 50.2354C483.78 49.8643 483.868 49.4395 483.868 48.9609C483.868 48.4434 483.722 48.0039 483.429 47.6426C483.146 47.2715 482.77 46.9443 482.301 46.6611C481.832 46.3682 481.295 46.1045 480.689 45.8701C480.094 45.626 479.483 45.377 478.858 45.123C478.233 44.8691 477.618 44.5957 477.013 44.3027C476.417 44 475.885 43.6484 475.416 43.248C474.947 42.8379 474.566 42.3594 474.273 41.8125C473.99 41.2656 473.849 40.6162 473.849 39.8643C473.849 39.21 473.985 38.5654 474.259 37.9307C474.532 37.2959 474.957 36.7344 475.533 36.2461C476.109 35.748 476.847 35.3477 477.745 35.0449C478.653 34.7422 479.732 34.5908 480.982 34.5908C481.305 34.5908 481.651 34.6055 482.022 34.6348C482.403 34.6641 482.784 34.708 483.165 34.7666C483.556 34.8154 483.937 34.874 484.308 34.9424C484.688 35.0107 485.04 35.084 485.362 35.1621V37.5059C484.61 37.291 483.858 37.1299 483.106 37.0225C482.354 36.9053 481.627 36.8467 480.924 36.8467C479.43 36.8467 478.331 37.0957 477.628 37.5938C476.925 38.0918 476.573 38.7607 476.573 39.6006C476.573 40.1182 476.715 40.5625 476.998 40.9336C477.291 41.3047 477.672 41.6367 478.141 41.9297C478.609 42.2227 479.142 42.4912 479.737 42.7354C480.343 42.9697 480.958 43.2139 481.583 43.4678C482.208 43.7217 482.818 44 483.414 44.3027C484.02 44.6055 484.557 44.9668 485.025 45.3867C485.494 45.7969 485.87 46.2803 486.153 46.8369C486.446 47.3936 486.593 48.0527 486.593 48.8145ZM499.63 60.1523C495.128 55.9824 492.877 51.373 492.877 46.3242C492.877 45.1426 492.994 43.9658 493.229 42.7939C493.473 41.6123 493.858 40.4307 494.386 39.249C494.923 38.0674 495.626 36.8857 496.495 35.7041C497.374 34.5225 498.438 33.3506 499.688 32.1885L501.168 33.6973C497.379 37.4375 495.484 41.583 495.484 46.1338C495.484 48.3994 495.963 50.5771 496.92 52.667C497.877 54.7568 499.293 56.7295 501.168 58.585L499.63 60.1523ZM520.182 44.4346C520.182 45.8994 520.035 47.2373 519.742 48.4482C519.449 49.6494 519.005 50.6846 518.409 51.5537C517.813 52.4131 517.071 53.082 516.183 53.5605C515.304 54.0293 514.269 54.2637 513.077 54.2637C512.052 54.2637 511.119 54.0732 510.279 53.6924C509.439 53.3018 508.722 52.7061 508.126 51.9053C507.53 51.1045 507.071 50.084 506.749 48.8438C506.427 47.6035 506.266 46.1338 506.266 44.4346C506.266 42.9697 506.412 41.6318 506.705 40.4209C507.008 39.21 507.452 38.1748 508.038 37.3154C508.634 36.4463 509.376 35.7773 510.265 35.3086C511.153 34.8301 512.188 34.5908 513.37 34.5908C514.396 34.5908 515.328 34.7861 516.168 35.1768C517.008 35.5576 517.726 36.1533 518.321 36.9639C518.917 37.7646 519.376 38.7852 519.698 40.0254C520.021 41.2656 520.182 42.7354 520.182 44.4346ZM517.604 44.5225C517.604 44.1904 517.589 43.8633 517.56 43.541C517.54 43.209 517.516 42.8867 517.486 42.5742L509.386 48.5947C509.532 49.1025 509.718 49.5713 509.942 50.001C510.167 50.4307 510.436 50.8018 510.748 51.1143C511.07 51.417 511.432 51.6562 511.832 51.832C512.242 51.998 512.706 52.0811 513.224 52.0811C513.888 52.0811 514.488 51.9199 515.025 51.5977C515.572 51.2754 516.036 50.7969 516.417 50.1621C516.798 49.5273 517.091 48.7412 517.296 47.8037C517.501 46.8564 517.604 45.7627 517.604 44.5225ZM508.844 44.3467C508.844 44.6494 508.844 44.9521 508.844 45.2549C508.854 45.5576 508.873 45.8506 508.902 46.1338L517.003 40.1426C516.856 39.6445 516.671 39.1904 516.446 38.7803C516.222 38.3701 515.953 38.0186 515.641 37.7256C515.328 37.4229 514.972 37.1885 514.571 37.0225C514.171 36.8564 513.722 36.7734 513.224 36.7734C512.56 36.7734 511.954 36.9346 511.407 37.2568C510.87 37.5791 510.411 38.0625 510.03 38.707C509.649 39.3418 509.356 40.1328 509.151 41.0801C508.946 42.0176 508.844 43.1064 508.844 44.3467ZM524.957 57.0029C525.455 57.0225 525.938 56.9785 526.407 56.8711C526.876 56.7637 527.286 56.6025 527.638 56.3877C527.999 56.1826 528.287 55.9238 528.502 55.6113C528.717 55.2988 528.824 54.9424 528.824 54.542C528.824 54.1318 528.751 53.7998 528.604 53.5459C528.468 53.292 528.312 53.0576 528.136 52.8428C527.96 52.6279 527.799 52.3984 527.652 52.1543C527.516 51.9102 527.447 51.583 527.447 51.1729C527.447 50.9678 527.486 50.7529 527.564 50.5283C527.643 50.3037 527.76 50.0986 527.916 49.9131C528.082 49.7275 528.287 49.5762 528.531 49.459C528.785 49.3418 529.083 49.2832 529.425 49.2832C529.767 49.2832 530.094 49.3564 530.406 49.5029C530.729 49.6396 531.007 49.8545 531.241 50.1475C531.485 50.4404 531.676 50.8066 531.812 51.2461C531.959 51.6855 532.032 52.2031 532.032 52.7988C532.032 53.6094 531.881 54.3857 531.578 55.1279C531.285 55.8799 530.841 56.5439 530.245 57.1201C529.659 57.6963 528.922 58.1553 528.033 58.4971C527.154 58.8389 526.129 59.0098 524.957 59.0098V57.0029ZM569.664 44.4346C569.664 45.8994 569.518 47.2373 569.225 48.4482C568.932 49.6494 568.487 50.6846 567.892 51.5537C567.296 52.4131 566.554 53.082 565.665 53.5605C564.786 54.0293 563.751 54.2637 562.56 54.2637C561.534 54.2637 560.602 54.0732 559.762 53.6924C558.922 53.3018 558.204 52.7061 557.608 51.9053C557.013 51.1045 556.554 50.084 556.231 48.8438C555.909 47.6035 555.748 46.1338 555.748 44.4346C555.748 42.9697 555.895 41.6318 556.188 40.4209C556.49 39.21 556.935 38.1748 557.521 37.3154C558.116 36.4463 558.858 35.7773 559.747 35.3086C560.636 34.8301 561.671 34.5908 562.853 34.5908C563.878 34.5908 564.811 34.7861 565.65 35.1768C566.49 35.5576 567.208 36.1533 567.804 36.9639C568.399 37.7646 568.858 38.7852 569.181 40.0254C569.503 41.2656 569.664 42.7354 569.664 44.4346ZM567.086 44.5225C567.086 44.1904 567.071 43.8633 567.042 43.541C567.022 43.209 566.998 42.8867 566.969 42.5742L558.868 48.5947C559.015 49.1025 559.2 49.5713 559.425 50.001C559.649 50.4307 559.918 50.8018 560.23 51.1143C560.553 51.417 560.914 51.6562 561.314 51.832C561.725 51.998 562.188 52.0811 562.706 52.0811C563.37 52.0811 563.971 51.9199 564.508 51.5977C565.055 51.2754 565.519 50.7969 565.899 50.1621C566.28 49.5273 566.573 48.7412 566.778 47.8037C566.983 46.8564 567.086 45.7627 567.086 44.5225ZM558.326 44.3467C558.326 44.6494 558.326 44.9521 558.326 45.2549C558.336 45.5576 558.355 45.8506 558.385 46.1338L566.485 40.1426C566.339 39.6445 566.153 39.1904 565.929 38.7803C565.704 38.3701 565.436 38.0186 565.123 37.7256C564.811 37.4229 564.454 37.1885 564.054 37.0225C563.653 36.8564 563.204 36.7734 562.706 36.7734C562.042 36.7734 561.437 36.9346 560.89 37.2568C560.353 37.5791 559.894 38.0625 559.513 38.707C559.132 39.3418 558.839 40.1328 558.634 41.0801C558.429 42.0176 558.326 43.1064 558.326 44.3467ZM576.3 32.1885C580.802 36.3584 583.053 40.9971 583.053 46.1045C583.053 47.1592 582.945 48.2529 582.73 49.3857C582.516 50.5186 582.149 51.6807 581.632 52.8721C581.114 54.0537 580.416 55.2549 579.537 56.4756C578.668 57.6963 577.569 58.9219 576.241 60.1523L574.762 58.6436C576.666 56.7588 578.087 54.791 579.024 52.7402C579.962 50.6895 580.431 48.541 580.431 46.2949C580.431 41.6465 578.541 37.4668 574.762 33.7559L576.3 32.1885ZM618.487 44.5371H605.89V42.3838H618.487V44.5371ZM618.487 49.6348H605.89V47.4814H618.487V49.6348ZM651.534 54H639.508V51.627H644.43V37.6523L639.845 40.1426L638.907 37.9746L645.001 34.7666H647.257V51.627H651.534V54ZM685.182 47.1299H679.425V53.1064H676.905V47.1299H671.148V44.9033H676.905V38.9707H679.425V44.9033H685.182V47.1299ZM717.335 54H706.319V34.8545H708.971V51.7734H717.335V54ZM733.976 53.2822C732.442 53.917 730.836 54.2344 729.156 54.2344C726.451 54.2344 724.371 53.4287 722.916 51.8174C721.471 50.1963 720.748 47.8037 720.748 44.6396C720.748 43.1064 720.948 41.7197 721.349 40.4795C721.749 39.2393 722.32 38.1895 723.062 37.3301C723.805 36.4609 724.703 35.792 725.758 35.3232C726.812 34.8545 727.994 34.6201 729.303 34.6201C730.191 34.6201 731.017 34.6982 731.778 34.8545C732.54 35.001 733.272 35.2305 733.976 35.543V38.1064C733.282 37.7256 732.564 37.4375 731.822 37.2422C731.08 37.0371 730.27 36.9346 729.391 36.9346C728.492 36.9346 727.677 37.1055 726.944 37.4473C726.222 37.7793 725.606 38.2676 725.099 38.9121C724.591 39.5469 724.2 40.3281 723.927 41.2559C723.653 42.1738 723.517 43.2236 723.517 44.4053C723.517 46.8857 724.02 48.7559 725.025 50.0156C726.031 51.2754 727.506 51.9053 729.449 51.9053C730.27 51.9053 731.056 51.8125 731.808 51.627C732.56 51.4316 733.282 51.1631 733.976 50.8213V53.2822ZM750.499 48.8145C750.499 49.7227 750.313 50.5186 749.942 51.2021C749.571 51.8857 749.054 52.457 748.39 52.916C747.726 53.3652 746.925 53.7021 745.987 53.9268C745.06 54.1514 744.034 54.2637 742.911 54.2637C742.403 54.2637 741.896 54.2441 741.388 54.2051C740.89 54.166 740.406 54.1172 739.938 54.0586C739.479 54 739.044 53.9316 738.634 53.8535C738.224 53.7754 737.853 53.6924 737.521 53.6045V51.085C738.253 51.3584 739.073 51.5732 739.981 51.7295C740.899 51.8857 741.939 51.9639 743.102 51.9639C743.941 51.9639 744.654 51.9004 745.24 51.7734C745.836 51.6367 746.319 51.4414 746.69 51.1875C747.071 50.9238 747.345 50.6064 747.511 50.2354C747.687 49.8643 747.774 49.4395 747.774 48.9609C747.774 48.4434 747.628 48.0039 747.335 47.6426C747.052 47.2715 746.676 46.9443 746.207 46.6611C745.738 46.3682 745.201 46.1045 744.596 45.8701C744 45.626 743.39 45.377 742.765 45.123C742.14 44.8691 741.524 44.5957 740.919 44.3027C740.323 44 739.791 43.6484 739.322 43.248C738.854 42.8379 738.473 42.3594 738.18 41.8125C737.896 41.2656 737.755 40.6162 737.755 39.8643C737.755 39.21 737.892 38.5654 738.165 37.9307C738.438 37.2959 738.863 36.7344 739.439 36.2461C740.016 35.748 740.753 35.3477 741.651 35.0449C742.56 34.7422 743.639 34.5908 744.889 34.5908C745.211 34.5908 745.558 34.6055 745.929 34.6348C746.31 34.6641 746.69 34.708 747.071 34.7666C747.462 34.8154 747.843 34.874 748.214 34.9424C748.595 35.0107 748.946 35.084 749.269 35.1621V37.5059C748.517 37.291 747.765 37.1299 747.013 37.0225C746.261 36.9053 745.533 36.8467 744.83 36.8467C743.336 36.8467 742.237 37.0957 741.534 37.5938C740.831 38.0918 740.479 38.7607 740.479 39.6006C740.479 40.1182 740.621 40.5625 740.904 40.9336C741.197 41.3047 741.578 41.6367 742.047 41.9297C742.516 42.2227 743.048 42.4912 743.644 42.7354C744.249 42.9697 744.864 43.2139 745.489 43.4678C746.114 43.7217 746.725 44 747.32 44.3027C747.926 44.6055 748.463 44.9668 748.932 45.3867C749.4 45.7969 749.776 46.2803 750.06 46.8369C750.353 47.3936 750.499 48.0527 750.499 48.8145ZM763.536 60.1523C759.034 55.9824 756.783 51.373 756.783 46.3242C756.783 45.1426 756.9 43.9658 757.135 42.7939C757.379 41.6123 757.765 40.4307 758.292 39.249C758.829 38.0674 759.532 36.8857 760.401 35.7041C761.28 34.5225 762.345 33.3506 763.595 32.1885L765.074 33.6973C761.285 37.4375 759.391 41.583 759.391 46.1338C759.391 48.3994 759.869 50.5771 760.826 52.667C761.783 54.7568 763.199 56.7295 765.074 58.585L763.536 60.1523ZM783.487 54H771.461V51.627H776.383V37.6523L771.798 40.1426L770.86 37.9746L776.954 34.7666H779.21V51.627H783.487V54ZM788.863 57.0029C789.361 57.0225 789.845 56.9785 790.313 56.8711C790.782 56.7637 791.192 56.6025 791.544 56.3877C791.905 56.1826 792.193 55.9238 792.408 55.6113C792.623 55.2988 792.73 54.9424 792.73 54.542C792.73 54.1318 792.657 53.7998 792.511 53.5459C792.374 53.292 792.218 53.0576 792.042 52.8428C791.866 52.6279 791.705 52.3984 791.559 52.1543C791.422 51.9102 791.354 51.583 791.354 51.1729C791.354 50.9678 791.393 50.7529 791.471 50.5283C791.549 50.3037 791.666 50.0986 791.822 49.9131C791.988 49.7275 792.193 49.5762 792.438 49.459C792.691 49.3418 792.989 49.2832 793.331 49.2832C793.673 49.2832 794 49.3564 794.312 49.5029C794.635 49.6396 794.913 49.8545 795.147 50.1475C795.392 50.4404 795.582 50.8066 795.719 51.2461C795.865 51.6855 795.938 52.2031 795.938 52.7988C795.938 53.6094 795.787 54.3857 795.484 55.1279C795.191 55.8799 794.747 56.5439 794.151 57.1201C793.565 57.6963 792.828 58.1553 791.939 58.4971C791.061 58.8389 790.035 59.0098 788.863 59.0098V57.0029ZM832.97 54H820.943V51.627H825.865V37.6523L821.28 40.1426L820.343 37.9746L826.437 34.7666H828.692V51.627H832.97V54ZM840.206 32.1885C844.708 36.3584 846.959 40.9971 846.959 46.1045C846.959 47.1592 846.852 48.2529 846.637 49.3857C846.422 50.5186 846.056 51.6807 845.538 52.8721C845.021 54.0537 844.322 55.2549 843.443 56.4756C842.574 57.6963 841.476 58.9219 840.147 60.1523L838.668 58.6436C840.572 56.7588 841.993 54.791 842.931 52.7402C843.868 50.6895 844.337 48.541 844.337 46.2949C844.337 41.6465 842.447 37.4668 838.668 33.7559L840.206 32.1885Z" fill="black"/>
<path d="M41.0596 135.954C41.0596 136.267 41.0553 136.53 41.0469 136.741C41.0384 136.953 41.0257 137.152 41.0088 137.338H32.0586C32.0586 138.641 32.4225 139.644 33.1504 140.347C33.8783 141.041 34.9277 141.388 36.2988 141.388C36.6712 141.388 37.0436 141.375 37.416 141.35C37.7884 141.316 38.1481 141.273 38.4951 141.223C38.8421 141.172 39.1722 141.117 39.4854 141.058C39.807 140.99 40.1032 140.918 40.374 140.842V142.657C39.7731 142.826 39.0918 142.962 38.3301 143.063C37.5768 143.174 36.7939 143.229 35.9814 143.229C34.8896 143.229 33.9502 143.08 33.1631 142.784C32.376 142.488 31.7285 142.061 31.2207 141.502C30.7214 140.935 30.349 140.245 30.1035 139.433C29.8665 138.612 29.748 137.685 29.748 136.652C29.748 135.755 29.875 134.909 30.1289 134.113C30.3913 133.309 30.7679 132.607 31.2588 132.006C31.7581 131.396 32.3675 130.914 33.0869 130.559C33.8063 130.203 34.623 130.025 35.5371 130.025C36.4258 130.025 37.2129 130.165 37.8984 130.444C38.584 130.724 39.1595 131.121 39.625 131.638C40.099 132.146 40.4544 132.768 40.6914 133.504C40.9368 134.232 41.0596 135.049 41.0596 135.954ZM38.7617 135.637C38.7871 135.07 38.7321 134.553 38.5967 134.088C38.4613 133.614 38.2497 133.208 37.9619 132.869C37.6826 132.531 37.3314 132.268 36.9082 132.082C36.485 131.887 35.9941 131.79 35.4355 131.79C34.9531 131.79 34.513 131.883 34.1152 132.069C33.7174 132.256 33.3747 132.518 33.0869 132.856C32.7992 133.195 32.5664 133.601 32.3887 134.075C32.2109 134.549 32.1009 135.07 32.0586 135.637H38.7617ZM43.9414 136.894C43.9414 135.979 44.0599 135.112 44.2969 134.291C44.5423 133.47 44.9147 132.751 45.4141 132.133C45.9219 131.507 46.5693 131.011 47.3564 130.647C48.1436 130.284 49.083 130.102 50.1748 130.102C50.6064 130.102 51.0339 130.135 51.457 130.203C51.8802 130.271 52.3288 130.377 52.8027 130.521L54.7578 130.025V148.205H52.5361V143.394L52.6504 140.664C51.4486 142.374 50.0182 143.229 48.3594 143.229C47.6146 143.229 46.9671 143.076 46.417 142.771C45.8669 142.467 45.4056 142.035 45.0332 141.477C44.6693 140.918 44.3942 140.249 44.208 139.471C44.0303 138.692 43.9414 137.833 43.9414 136.894ZM46.2012 136.754C46.2012 137.465 46.252 138.104 46.3535 138.671C46.4635 139.238 46.6243 139.72 46.8359 140.118C47.056 140.507 47.3268 140.808 47.6484 141.02C47.9785 141.231 48.3636 141.337 48.8037 141.337C49.3623 141.337 49.9505 141.087 50.5684 140.588C51.1947 140.089 51.8506 139.348 52.5361 138.366V132.45C52.1976 132.289 51.8125 132.158 51.3809 132.057C50.9577 131.955 50.5049 131.904 50.0225 131.904C48.7783 131.904 47.8304 132.315 47.1787 133.136C46.527 133.957 46.2012 135.163 46.2012 136.754ZM69.1289 143H67.1484L67.0723 140.943C66.6914 141.383 66.3275 141.752 65.9805 142.048C65.6419 142.336 65.3034 142.568 64.9648 142.746C64.6263 142.924 64.2835 143.047 63.9365 143.114C63.598 143.19 63.2383 143.229 62.8574 143.229C61.5456 143.229 60.5553 142.843 59.8867 142.073C59.2181 141.303 58.8838 140.139 58.8838 138.582V130.254H61.0928V138.404C61.0928 140.359 61.8291 141.337 63.3018 141.337C63.5726 141.337 63.835 141.299 64.0889 141.223C64.3512 141.138 64.6221 140.998 64.9014 140.804C65.1891 140.601 65.4938 140.33 65.8154 139.991C66.1455 139.653 66.5137 139.225 66.9199 138.709V130.254H69.1289V143ZM81.3672 143L81.3164 141.286C80.6224 141.972 79.9157 142.467 79.1963 142.771C78.4854 143.076 77.7363 143.229 76.9492 143.229C76.2214 143.229 75.5993 143.135 75.083 142.949C74.5667 142.763 74.1393 142.509 73.8008 142.188C73.4707 141.857 73.2253 141.472 73.0645 141.032C72.9121 140.592 72.8359 140.114 72.8359 139.598C72.8359 138.32 73.3099 137.321 74.2578 136.602C75.2142 135.874 76.6234 135.51 78.4854 135.51H81.126V134.393C81.126 133.639 80.8848 133.038 80.4023 132.59C79.9199 132.133 79.1836 131.904 78.1934 131.904C77.474 131.904 76.763 131.985 76.0605 132.146C75.3665 132.306 74.6471 132.535 73.9023 132.831V130.838C74.1816 130.736 74.4906 130.639 74.8291 130.546C75.1761 130.444 75.54 130.355 75.9209 130.279C76.3018 130.203 76.6995 130.144 77.1143 130.102C77.529 130.051 77.9479 130.025 78.3711 130.025C79.1413 130.025 79.8353 130.11 80.4531 130.279C81.071 130.449 81.5915 130.707 82.0146 131.054C82.4463 131.401 82.7764 131.837 83.0049 132.361C83.2334 132.886 83.3477 133.504 83.3477 134.215V143H81.3672ZM81.126 137.198H78.3203C77.7702 137.198 77.2962 137.253 76.8984 137.363C76.5007 137.473 76.1748 137.63 75.9209 137.833C75.667 138.036 75.4766 138.282 75.3496 138.569C75.2311 138.849 75.1719 139.166 75.1719 139.521C75.1719 139.767 75.21 140.004 75.2861 140.232C75.3623 140.452 75.485 140.651 75.6543 140.829C75.8236 140.998 76.0436 141.134 76.3145 141.235C76.5853 141.337 76.9154 141.388 77.3047 141.388C77.8125 141.388 78.3923 141.235 79.0439 140.931C79.7041 140.618 80.3981 140.127 81.126 139.458V137.198ZM91.8154 126.877H88.0449V125.062H94.0498V141.159H97.8457V143H87.626V141.159H91.8154V126.877Z" fill="#00BD36"/>
<path d="M64.75 94.5L68.3301 87H59.6699L63.25 94.5H64.75ZM63.4697 124.53C63.7626 124.823 64.2374 124.823 64.5303 124.53L69.3033 119.757C69.5962 119.464 69.5962 118.99 69.3033 118.697C69.0104 118.404 68.5355 118.404 68.2426 118.697L64 122.939L59.7574 118.697C59.4645 118.404 58.9896 118.404 58.6967 118.697C58.4038 118.99 58.4038 119.464 58.6967 119.757L63.4697 124.53ZM63.25 93.75V124H64.75V93.75H63.25Z" fill="#00BD36"/>
</g>
<defs>
<clipPath id="clip0_6294_1573">
<rect width="847" height="150" fill="white"/>
</clipPath>
</defs>
</svg>
