<svg width="1083" height="346" viewBox="0 0 1083 346" fill="none" xmlns="http://www.w3.org/2000/svg">
<g clip-path="url(#clip0_6184_2298)">
<rect width="1083" height="346" fill="white"/>
<path d="M32.373 112.877H28.6025V111.062H34.6074V127.159H38.4033V129H28.1836V127.159H32.373V112.877ZM53.0918 121.954C53.0918 122.267 53.0876 122.53 53.0791 122.741C53.0706 122.953 53.0579 123.152 53.041 123.338H44.0908C44.0908 124.641 44.4548 125.644 45.1826 126.347C45.9105 127.041 46.96 127.388 48.3311 127.388C48.7035 127.388 49.0758 127.375 49.4482 127.35C49.8206 127.316 50.1803 127.273 50.5273 127.223C50.8743 127.172 51.2044 127.117 51.5176 127.058C51.8392 126.99 52.1354 126.918 52.4062 126.842V128.657C51.8053 128.826 51.124 128.962 50.3623 129.063C49.609 129.174 48.8262 129.229 48.0137 129.229C46.9219 129.229 45.9824 129.08 45.1953 128.784C44.4082 128.488 43.7607 128.061 43.2529 127.502C42.7536 126.935 42.3812 126.245 42.1357 125.433C41.8988 124.612 41.7803 123.685 41.7803 122.652C41.7803 121.755 41.9072 120.909 42.1611 120.113C42.4235 119.309 42.8001 118.607 43.291 118.006C43.7904 117.396 44.3997 116.914 45.1191 116.559C45.8385 116.203 46.6553 116.025 47.5693 116.025C48.458 116.025 49.2451 116.165 49.9307 116.444C50.6162 116.724 51.1917 117.121 51.6572 117.638C52.1312 118.146 52.4867 118.768 52.7236 119.504C52.9691 120.232 53.0918 121.049 53.0918 121.954ZM50.7939 121.637C50.8193 121.07 50.7643 120.553 50.6289 120.088C50.4935 119.614 50.2819 119.208 49.9941 118.869C49.7148 118.531 49.3636 118.268 48.9404 118.082C48.5173 117.887 48.0264 117.79 47.4678 117.79C46.9854 117.79 46.5452 117.883 46.1475 118.069C45.7497 118.256 45.4069 118.518 45.1191 118.856C44.8314 119.195 44.5986 119.601 44.4209 120.075C44.2432 120.549 44.1331 121.07 44.0908 121.637H50.7939ZM67.9326 113.118C66.7731 112.873 65.7744 112.75 64.9365 112.75C62.9476 112.75 61.9531 113.791 61.9531 115.873V118.107H67.5391V119.948H61.9531V129H59.7061V119.948H55.6055V118.107H59.7061V116C59.7061 112.606 61.4749 110.909 65.0127 110.909C65.8929 110.909 66.8662 111.011 67.9326 111.214V113.118ZM81.1865 128.822C80.6872 128.949 80.1709 129.038 79.6377 129.089C79.1045 129.148 78.5628 129.178 78.0127 129.178C76.4131 129.178 75.2197 128.818 74.4326 128.099C73.6455 127.371 73.252 126.258 73.252 124.76V118.107H69.6846V116.254H73.252V112.75L75.4609 112.179V116.254H81.1865V118.107H75.4609V124.582C75.4609 125.496 75.7021 126.182 76.1846 126.639C76.6755 127.087 77.3949 127.312 78.3428 127.312C78.749 127.312 79.1934 127.282 79.6758 127.223C80.1582 127.155 80.6618 127.053 81.1865 126.918V128.822ZM97.4746 134.205H83.1797V132.377H97.4746V134.205ZM108.596 129V119.847C108.596 119.449 108.579 119.123 108.545 118.869C108.52 118.615 108.473 118.416 108.405 118.272C108.346 118.12 108.266 118.014 108.164 117.955C108.071 117.896 107.952 117.866 107.809 117.866C107.639 117.866 107.483 117.917 107.339 118.019C107.195 118.12 107.038 118.285 106.869 118.514C106.708 118.742 106.526 119.047 106.323 119.428C106.129 119.8 105.896 120.261 105.625 120.812V129H103.606V120.088C103.606 119.622 103.59 119.246 103.556 118.958C103.53 118.67 103.484 118.446 103.416 118.285C103.357 118.124 103.276 118.014 103.175 117.955C103.073 117.896 102.951 117.866 102.807 117.866C102.654 117.866 102.51 117.909 102.375 117.993C102.24 118.078 102.087 118.23 101.918 118.45C101.757 118.67 101.575 118.971 101.372 119.352C101.169 119.732 100.928 120.219 100.648 120.812V129H98.6172V116.254H100.306L100.407 118.679C100.627 118.196 100.839 117.786 101.042 117.447C101.254 117.109 101.469 116.838 101.689 116.635C101.91 116.423 102.142 116.271 102.388 116.178C102.642 116.076 102.921 116.025 103.226 116.025C103.911 116.025 104.432 116.25 104.787 116.698C105.143 117.147 105.32 117.841 105.32 118.78C105.523 118.34 105.722 117.951 105.917 117.612C106.112 117.265 106.319 116.978 106.539 116.749C106.768 116.512 107.017 116.334 107.288 116.216C107.559 116.089 107.872 116.025 108.228 116.025C109.827 116.025 110.627 117.257 110.627 119.72V129H108.596ZM121.989 129L121.938 127.286C121.244 127.972 120.538 128.467 119.818 128.771C119.107 129.076 118.358 129.229 117.571 129.229C116.843 129.229 116.221 129.135 115.705 128.949C115.189 128.763 114.761 128.509 114.423 128.188C114.093 127.857 113.847 127.472 113.687 127.032C113.534 126.592 113.458 126.114 113.458 125.598C113.458 124.32 113.932 123.321 114.88 122.602C115.836 121.874 117.245 121.51 119.107 121.51H121.748V120.393C121.748 119.639 121.507 119.038 121.024 118.59C120.542 118.133 119.806 117.904 118.815 117.904C118.096 117.904 117.385 117.985 116.683 118.146C115.989 118.306 115.269 118.535 114.524 118.831V116.838C114.804 116.736 115.113 116.639 115.451 116.546C115.798 116.444 116.162 116.355 116.543 116.279C116.924 116.203 117.322 116.144 117.736 116.102C118.151 116.051 118.57 116.025 118.993 116.025C119.763 116.025 120.457 116.11 121.075 116.279C121.693 116.449 122.214 116.707 122.637 117.054C123.068 117.401 123.398 117.837 123.627 118.361C123.855 118.886 123.97 119.504 123.97 120.215V129H121.989ZM121.748 123.198H118.942C118.392 123.198 117.918 123.253 117.521 123.363C117.123 123.473 116.797 123.63 116.543 123.833C116.289 124.036 116.099 124.282 115.972 124.569C115.853 124.849 115.794 125.166 115.794 125.521C115.794 125.767 115.832 126.004 115.908 126.232C115.984 126.452 116.107 126.651 116.276 126.829C116.446 126.998 116.666 127.134 116.937 127.235C117.207 127.337 117.537 127.388 117.927 127.388C118.435 127.388 119.014 127.235 119.666 126.931C120.326 126.618 121.02 126.127 121.748 125.458V123.198ZM138.988 122.398C138.988 123.533 138.827 124.523 138.506 125.369C138.193 126.215 137.757 126.918 137.198 127.477C136.64 128.035 135.979 128.454 135.218 128.733C134.456 129.013 133.631 129.152 132.742 129.152C132.336 129.152 131.93 129.131 131.523 129.089C131.126 129.047 130.719 128.975 130.305 128.873V134.205H128.096V116.254H130.063L130.203 118.387C130.838 117.515 131.515 116.906 132.234 116.559C132.954 116.203 133.732 116.025 134.57 116.025C135.298 116.025 135.937 116.178 136.487 116.482C137.037 116.787 137.499 117.219 137.871 117.777C138.243 118.327 138.523 118.996 138.709 119.783C138.895 120.562 138.988 121.434 138.988 122.398ZM136.729 122.5C136.729 121.831 136.678 121.218 136.576 120.659C136.483 120.101 136.331 119.622 136.119 119.225C135.908 118.827 135.637 118.518 135.307 118.298C134.977 118.069 134.583 117.955 134.126 117.955C133.847 117.955 133.563 118.002 133.275 118.095C132.988 118.179 132.687 118.327 132.374 118.539C132.069 118.742 131.743 119.017 131.396 119.364C131.058 119.703 130.694 120.126 130.305 120.634V126.816C130.711 126.986 131.138 127.121 131.587 127.223C132.035 127.316 132.476 127.362 132.907 127.362C134.101 127.362 135.036 126.96 135.713 126.156C136.39 125.344 136.729 124.125 136.729 122.5Z" fill="black"/>
<rect x="2" y="143" width="166" height="181" rx="9" stroke="black" stroke-width="2"/>
<path d="M85 151.5L85 315.5" stroke="#DEDEDE" stroke-linecap="round"/>
<path d="M37.9062 343H35.6504L33.0039 339.26L30.3867 343H28.1895L31.9883 338.078L28.3652 333.195H30.543L33.1211 336.965L35.6504 333.195H37.75L34.0684 338.117L37.9062 343ZM47.9453 329.201L41.2461 345.1H39.625L46.3242 329.201H47.9453ZM51.4609 333.195H53.0137L53.0625 335.002C53.6419 334.305 54.2116 333.801 54.7715 333.488C55.3379 333.176 55.9076 333.02 56.4805 333.02C57.4961 333.02 58.2643 333.348 58.7852 334.006C59.3125 334.663 59.5566 335.64 59.5176 336.936H57.7988C57.8184 336.076 57.6914 335.454 57.418 335.07C57.151 334.68 56.7572 334.484 56.2363 334.484C56.0085 334.484 55.7773 334.527 55.543 334.611C55.3151 334.689 55.0775 334.82 54.8301 335.002C54.5892 335.178 54.332 335.406 54.0586 335.686C53.7852 335.965 53.4922 336.304 53.1797 336.701V343H51.4609V333.195Z" fill="#666666"/>
<path d="M114.771 329.783C113.88 329.594 113.111 329.5 112.467 329.5C110.937 329.5 110.172 330.301 110.172 331.902V333.621H114.469V335.037H110.172V342H108.443V335.037H105.289V333.621H108.443V332C108.443 329.389 109.804 328.084 112.525 328.084C113.202 328.084 113.951 328.162 114.771 328.318V329.783ZM117.467 332.195H119.02L119.068 334.002C119.648 333.305 120.217 332.801 120.777 332.488C121.344 332.176 121.913 332.02 122.486 332.02C123.502 332.02 124.27 332.348 124.791 333.006C125.318 333.663 125.562 334.64 125.523 335.936H123.805C123.824 335.076 123.697 334.454 123.424 334.07C123.157 333.68 122.763 333.484 122.242 333.484C122.014 333.484 121.783 333.527 121.549 333.611C121.321 333.689 121.083 333.82 120.836 334.002C120.595 334.178 120.338 334.406 120.064 334.686C119.791 334.965 119.498 335.304 119.186 335.701V342H117.467V332.195ZM136.344 336.58C136.344 336.821 136.34 337.023 136.334 337.186C136.327 337.348 136.318 337.501 136.305 337.645H129.42C129.42 338.647 129.7 339.419 130.26 339.959C130.82 340.493 131.627 340.76 132.682 340.76C132.968 340.76 133.255 340.75 133.541 340.73C133.827 340.704 134.104 340.672 134.371 340.633C134.638 340.594 134.892 340.551 135.133 340.506C135.38 340.454 135.608 340.398 135.816 340.34V341.736C135.354 341.867 134.83 341.971 134.244 342.049C133.665 342.133 133.062 342.176 132.438 342.176C131.598 342.176 130.875 342.062 130.27 341.834C129.664 341.606 129.166 341.277 128.775 340.848C128.391 340.411 128.105 339.881 127.916 339.256C127.734 338.624 127.643 337.911 127.643 337.117C127.643 336.427 127.74 335.776 127.936 335.164C128.137 334.546 128.427 334.005 128.805 333.543C129.189 333.074 129.658 332.703 130.211 332.43C130.764 332.156 131.393 332.02 132.096 332.02C132.779 332.02 133.385 332.127 133.912 332.342C134.439 332.557 134.882 332.863 135.24 333.26C135.605 333.65 135.878 334.129 136.061 334.695C136.249 335.255 136.344 335.883 136.344 336.58ZM134.576 336.336C134.596 335.9 134.553 335.503 134.449 335.145C134.345 334.78 134.182 334.467 133.961 334.207C133.746 333.947 133.476 333.745 133.15 333.602C132.825 333.452 132.447 333.377 132.018 333.377C131.646 333.377 131.308 333.449 131.002 333.592C130.696 333.735 130.432 333.937 130.211 334.197C129.99 334.458 129.811 334.77 129.674 335.135C129.537 335.499 129.452 335.9 129.42 336.336H134.576ZM138.561 337.303C138.561 336.6 138.652 335.932 138.834 335.301C139.023 334.669 139.309 334.116 139.693 333.641C140.084 333.159 140.582 332.778 141.188 332.498C141.793 332.218 142.516 332.078 143.355 332.078C143.688 332.078 144.016 332.104 144.342 332.156C144.667 332.208 145.012 332.29 145.377 332.4L146.881 332.02V346.004H145.172V342.303L145.26 340.203C144.335 341.518 143.235 342.176 141.959 342.176C141.386 342.176 140.888 342.059 140.465 341.824C140.042 341.59 139.687 341.258 139.4 340.828C139.12 340.398 138.909 339.884 138.766 339.285C138.629 338.686 138.561 338.025 138.561 337.303ZM140.299 337.195C140.299 337.742 140.338 338.234 140.416 338.67C140.501 339.106 140.624 339.477 140.787 339.783C140.956 340.083 141.165 340.314 141.412 340.477C141.666 340.639 141.962 340.721 142.301 340.721C142.73 340.721 143.183 340.529 143.658 340.145C144.14 339.76 144.645 339.191 145.172 338.436V333.885C144.911 333.761 144.615 333.66 144.283 333.582C143.958 333.504 143.609 333.465 143.238 333.465C142.281 333.465 141.552 333.781 141.051 334.412C140.549 335.044 140.299 335.971 140.299 337.195Z" fill="#666666"/>
<path d="M219.225 116.254H221.243L221.307 118.603C222.06 117.697 222.8 117.041 223.528 116.635C224.265 116.229 225.005 116.025 225.75 116.025C227.07 116.025 228.069 116.453 228.746 117.308C229.432 118.162 229.749 119.432 229.698 121.116H227.464C227.489 119.999 227.324 119.191 226.969 118.691C226.622 118.184 226.11 117.93 225.433 117.93C225.136 117.93 224.836 117.985 224.531 118.095C224.235 118.196 223.926 118.366 223.604 118.603C223.291 118.831 222.957 119.127 222.602 119.491C222.246 119.855 221.865 120.295 221.459 120.812V129H219.225V116.254ZM237.341 118.082H233.57V116.254H239.575V127.159H243.371V129H233.151V127.159H237.341V118.082ZM238.115 110.909C238.361 110.909 238.589 110.956 238.801 111.049C239.012 111.133 239.194 111.256 239.347 111.417C239.507 111.578 239.63 111.764 239.715 111.976C239.808 112.179 239.854 112.403 239.854 112.648C239.854 112.885 239.808 113.11 239.715 113.321C239.63 113.533 239.507 113.719 239.347 113.88C239.194 114.041 239.012 114.168 238.801 114.261C238.589 114.345 238.361 114.388 238.115 114.388C237.87 114.388 237.641 114.345 237.43 114.261C237.218 114.168 237.032 114.041 236.871 113.88C236.719 113.719 236.596 113.533 236.503 113.321C236.418 113.11 236.376 112.885 236.376 112.648C236.376 112.403 236.418 112.179 236.503 111.976C236.596 111.764 236.719 111.578 236.871 111.417C237.032 111.256 237.218 111.133 237.43 111.049C237.641 110.956 237.87 110.909 238.115 110.909ZM256.473 118.057C256.71 118.353 256.892 118.7 257.019 119.098C257.154 119.487 257.222 119.91 257.222 120.367C257.222 121.027 257.099 121.632 256.854 122.183C256.617 122.724 256.278 123.19 255.838 123.579C255.398 123.968 254.869 124.273 254.251 124.493C253.642 124.705 252.969 124.811 252.232 124.811C251.699 124.811 251.2 124.756 250.734 124.646C250.269 124.527 249.901 124.383 249.63 124.214C249.469 124.451 249.334 124.675 249.224 124.887C249.114 125.098 249.059 125.335 249.059 125.598C249.059 125.919 249.211 126.186 249.516 126.397C249.829 126.609 250.239 126.723 250.747 126.74L254.099 126.867C254.733 126.884 255.317 126.965 255.851 127.108C256.392 127.252 256.854 127.46 257.234 127.73C257.624 128.001 257.924 128.336 258.136 128.733C258.356 129.131 258.466 129.592 258.466 130.117C258.466 130.684 258.343 131.222 258.098 131.729C257.852 132.237 257.471 132.682 256.955 133.062C256.447 133.452 255.8 133.761 255.013 133.989C254.226 134.218 253.29 134.332 252.207 134.332C251.174 134.332 250.294 134.247 249.566 134.078C248.847 133.917 248.255 133.689 247.789 133.393C247.324 133.105 246.985 132.758 246.773 132.352C246.562 131.954 246.456 131.514 246.456 131.031C246.456 130.413 246.6 129.872 246.888 129.406C247.175 128.941 247.62 128.492 248.221 128.061C248.001 127.959 247.81 127.832 247.649 127.68C247.489 127.527 247.357 127.362 247.256 127.185C247.154 126.998 247.078 126.804 247.027 126.601C246.977 126.397 246.951 126.199 246.951 126.004C246.951 125.454 247.078 124.95 247.332 124.493C247.594 124.036 247.903 123.604 248.259 123.198C248.098 123.004 247.954 122.813 247.827 122.627C247.709 122.441 247.603 122.242 247.51 122.03C247.425 121.81 247.357 121.577 247.307 121.332C247.264 121.078 247.243 120.79 247.243 120.469C247.243 119.809 247.362 119.208 247.599 118.666C247.844 118.116 248.183 117.646 248.614 117.257C249.054 116.868 249.579 116.567 250.188 116.355C250.806 116.135 251.488 116.025 252.232 116.025C252.546 116.025 252.846 116.047 253.134 116.089C253.422 116.131 253.675 116.186 253.896 116.254H258.517V118.057H256.473ZM248.805 130.841C248.805 131.442 249.118 131.878 249.744 132.148C250.37 132.428 251.242 132.567 252.359 132.567C253.062 132.567 253.65 132.504 254.124 132.377C254.606 132.25 254.992 132.081 255.279 131.869C255.576 131.666 255.787 131.429 255.914 131.158C256.041 130.896 256.104 130.625 256.104 130.346C256.104 129.829 255.893 129.449 255.47 129.203C255.047 128.958 254.399 128.814 253.527 128.771L250.201 128.657C249.922 128.843 249.689 129.025 249.503 129.203C249.325 129.381 249.186 129.559 249.084 129.736C248.982 129.923 248.91 130.104 248.868 130.282C248.826 130.468 248.805 130.655 248.805 130.841ZM249.478 120.418C249.478 120.824 249.545 121.197 249.681 121.535C249.816 121.874 250.007 122.161 250.252 122.398C250.497 122.635 250.785 122.822 251.115 122.957C251.454 123.084 251.826 123.147 252.232 123.147C252.673 123.147 253.062 123.076 253.4 122.932C253.747 122.779 254.035 122.576 254.264 122.322C254.501 122.068 254.678 121.776 254.797 121.446C254.924 121.116 254.987 120.773 254.987 120.418C254.987 120.012 254.92 119.639 254.784 119.301C254.649 118.962 254.458 118.674 254.213 118.438C253.967 118.201 253.675 118.019 253.337 117.892C253.007 117.756 252.639 117.688 252.232 117.688C251.792 117.688 251.399 117.765 251.052 117.917C250.713 118.069 250.425 118.272 250.188 118.526C249.96 118.772 249.782 119.06 249.655 119.39C249.537 119.72 249.478 120.062 249.478 120.418ZM271.834 129H269.625V120.862C269.625 119.881 269.439 119.148 269.066 118.666C268.702 118.175 268.178 117.93 267.492 117.93C267.196 117.93 266.917 117.972 266.654 118.057C266.4 118.133 266.134 118.272 265.854 118.476C265.575 118.67 265.271 118.937 264.94 119.275C264.61 119.614 264.229 120.037 263.798 120.545V129H261.589V111.062H263.798V116.254L263.722 118.26C264.069 117.845 264.407 117.498 264.737 117.219C265.076 116.931 265.41 116.698 265.74 116.521C266.079 116.343 266.422 116.216 266.769 116.14C267.116 116.063 267.475 116.025 267.848 116.025C269.117 116.025 270.099 116.415 270.793 117.193C271.487 117.964 271.834 119.127 271.834 120.685V129ZM286.154 128.822C285.655 128.949 285.139 129.038 284.605 129.089C284.072 129.148 283.531 129.178 282.98 129.178C281.381 129.178 280.188 128.818 279.4 128.099C278.613 127.371 278.22 126.258 278.22 124.76V118.107H274.652V116.254H278.22V112.75L280.429 112.179V116.254H286.154V118.107H280.429V124.582C280.429 125.496 280.67 126.182 281.152 126.639C281.643 127.087 282.363 127.312 283.311 127.312C283.717 127.312 284.161 127.282 284.644 127.223C285.126 127.155 285.63 127.053 286.154 126.918V128.822ZM302.442 134.205H288.147V132.377H302.442V134.205ZM313.563 129V119.847C313.563 119.449 313.547 119.123 313.513 118.869C313.487 118.615 313.441 118.416 313.373 118.272C313.314 118.12 313.233 118.014 313.132 117.955C313.039 117.896 312.92 117.866 312.776 117.866C312.607 117.866 312.451 117.917 312.307 118.019C312.163 118.12 312.006 118.285 311.837 118.514C311.676 118.742 311.494 119.047 311.291 119.428C311.096 119.8 310.864 120.261 310.593 120.812V129H308.574V120.088C308.574 119.622 308.557 119.246 308.523 118.958C308.498 118.67 308.451 118.446 308.384 118.285C308.325 118.124 308.244 118.014 308.143 117.955C308.041 117.896 307.918 117.866 307.774 117.866C307.622 117.866 307.478 117.909 307.343 117.993C307.207 118.078 307.055 118.23 306.886 118.45C306.725 118.67 306.543 118.971 306.34 119.352C306.137 119.732 305.896 120.219 305.616 120.812V129H303.585V116.254H305.273L305.375 118.679C305.595 118.196 305.807 117.786 306.01 117.447C306.221 117.109 306.437 116.838 306.657 116.635C306.877 116.423 307.11 116.271 307.355 116.178C307.609 116.076 307.889 116.025 308.193 116.025C308.879 116.025 309.399 116.25 309.755 116.698C310.11 117.147 310.288 117.841 310.288 118.78C310.491 118.34 310.69 117.951 310.885 117.612C311.079 117.265 311.287 116.978 311.507 116.749C311.735 116.512 311.985 116.334 312.256 116.216C312.527 116.089 312.84 116.025 313.195 116.025C314.795 116.025 315.595 117.257 315.595 119.72V129H313.563ZM326.957 129L326.906 127.286C326.212 127.972 325.506 128.467 324.786 128.771C324.075 129.076 323.326 129.229 322.539 129.229C321.811 129.229 321.189 129.135 320.673 128.949C320.157 128.763 319.729 128.509 319.391 128.188C319.061 127.857 318.815 127.472 318.654 127.032C318.502 126.592 318.426 126.114 318.426 125.598C318.426 124.32 318.9 123.321 319.848 122.602C320.804 121.874 322.213 121.51 324.075 121.51H326.716V120.393C326.716 119.639 326.475 119.038 325.992 118.59C325.51 118.133 324.773 117.904 323.783 117.904C323.064 117.904 322.353 117.985 321.65 118.146C320.956 118.306 320.237 118.535 319.492 118.831V116.838C319.771 116.736 320.08 116.639 320.419 116.546C320.766 116.444 321.13 116.355 321.511 116.279C321.892 116.203 322.289 116.144 322.704 116.102C323.119 116.051 323.538 116.025 323.961 116.025C324.731 116.025 325.425 116.11 326.043 116.279C326.661 116.449 327.181 116.707 327.604 117.054C328.036 117.401 328.366 117.837 328.595 118.361C328.823 118.886 328.938 119.504 328.938 120.215V129H326.957ZM326.716 123.198H323.91C323.36 123.198 322.886 123.253 322.488 123.363C322.09 123.473 321.765 123.63 321.511 123.833C321.257 124.036 321.066 124.282 320.939 124.569C320.821 124.849 320.762 125.166 320.762 125.521C320.762 125.767 320.8 126.004 320.876 126.232C320.952 126.452 321.075 126.651 321.244 126.829C321.413 126.998 321.633 127.134 321.904 127.235C322.175 127.337 322.505 127.388 322.895 127.388C323.402 127.388 323.982 127.235 324.634 126.931C325.294 126.618 325.988 126.127 326.716 125.458V123.198ZM343.956 122.398C343.956 123.533 343.795 124.523 343.474 125.369C343.16 126.215 342.725 126.918 342.166 127.477C341.607 128.035 340.947 128.454 340.186 128.733C339.424 129.013 338.599 129.152 337.71 129.152C337.304 129.152 336.897 129.131 336.491 129.089C336.093 129.047 335.687 128.975 335.272 128.873V134.205H333.063V116.254H335.031L335.171 118.387C335.806 117.515 336.483 116.906 337.202 116.559C337.922 116.203 338.7 116.025 339.538 116.025C340.266 116.025 340.905 116.178 341.455 116.482C342.005 116.787 342.466 117.219 342.839 117.777C343.211 118.327 343.491 118.996 343.677 119.783C343.863 120.562 343.956 121.434 343.956 122.398ZM341.696 122.5C341.696 121.831 341.646 121.218 341.544 120.659C341.451 120.101 341.299 119.622 341.087 119.225C340.875 118.827 340.604 118.518 340.274 118.298C339.944 118.069 339.551 117.955 339.094 117.955C338.814 117.955 338.531 118.002 338.243 118.095C337.955 118.179 337.655 118.327 337.342 118.539C337.037 118.742 336.711 119.017 336.364 119.364C336.026 119.703 335.662 120.126 335.272 120.634V126.816C335.679 126.986 336.106 127.121 336.555 127.223C337.003 127.316 337.443 127.362 337.875 127.362C339.068 127.362 340.004 126.96 340.681 126.156C341.358 125.344 341.696 124.125 341.696 122.5Z" fill="black"/>
<rect x="199" y="143" width="166" height="181" rx="9" stroke="black" stroke-width="2"/>
<path d="M282 151.5L282 315.5" stroke="#DEDEDE" stroke-linecap="round"/>
<path d="M234.906 343H232.65L230.004 339.26L227.387 343H225.189L228.988 338.078L225.365 333.195H227.543L230.121 336.965L232.65 333.195H234.75L231.068 338.117L234.906 343ZM244.887 334.797L244.223 335.959L241.479 334.143L241.703 337.482H240.307L240.521 334.143L237.719 335.959L237.104 334.816L240.102 333.342L237.104 331.838L237.777 330.695L240.541 332.541L240.307 329.201H241.703L241.459 332.541L244.223 330.676L244.906 331.877L241.898 333.361L244.887 334.797ZM248.461 333.195H250.014L250.062 335.002C250.642 334.305 251.212 333.801 251.771 333.488C252.338 333.176 252.908 333.02 253.48 333.02C254.496 333.02 255.264 333.348 255.785 334.006C256.312 334.663 256.557 335.64 256.518 336.936H254.799C254.818 336.076 254.691 335.454 254.418 335.07C254.151 334.68 253.757 334.484 253.236 334.484C253.008 334.484 252.777 334.527 252.543 334.611C252.315 334.689 252.077 334.82 251.83 335.002C251.589 335.178 251.332 335.406 251.059 335.686C250.785 335.965 250.492 336.304 250.18 336.701V343H248.461V333.195Z" fill="#666666"/>
<path d="M247.766 176H235.153V173.715L240.104 168.793C240.915 167.992 241.574 167.299 242.082 166.713C242.59 166.127 242.985 165.595 243.269 165.116C243.552 164.628 243.742 164.169 243.84 163.739C243.938 163.31 243.986 162.846 243.986 162.348C243.986 161.879 243.923 161.435 243.796 161.015C243.669 160.585 243.474 160.209 243.21 159.887C242.946 159.564 242.604 159.311 242.185 159.125C241.765 158.939 241.262 158.847 240.676 158.847C239.865 158.847 239.128 159.027 238.464 159.389C237.8 159.75 237.189 160.219 236.633 160.795L235.227 159.11C235.949 158.349 236.779 157.738 237.717 157.279C238.664 156.82 239.763 156.591 241.013 156.591C241.862 156.591 242.634 156.718 243.327 156.972C244.03 157.226 244.636 157.592 245.144 158.07C245.651 158.549 246.042 159.135 246.315 159.828C246.599 160.521 246.74 161.303 246.74 162.172C246.74 162.904 246.643 163.583 246.447 164.208C246.252 164.833 245.954 165.458 245.554 166.083C245.163 166.698 244.665 167.338 244.06 168.002C243.464 168.666 242.756 169.394 241.936 170.185L238.464 173.568H247.766V176Z" fill="black"/>
<path d="M331.604 176H319.578V173.627H324.5V159.652L319.915 162.143L318.978 159.975L325.071 156.767H327.327V173.627H331.604V176Z" fill="black"/>
<path d="M49.7656 176H37.1533V173.715L42.1045 168.793C42.915 167.992 43.5742 167.299 44.082 166.713C44.5898 166.127 44.9854 165.595 45.2686 165.116C45.5518 164.628 45.7422 164.169 45.8398 163.739C45.9375 163.31 45.9863 162.846 45.9863 162.348C45.9863 161.879 45.9229 161.435 45.7959 161.015C45.6689 160.585 45.4736 160.209 45.21 159.887C44.9463 159.564 44.6045 159.311 44.1846 159.125C43.7646 158.939 43.2617 158.847 42.6758 158.847C41.8652 158.847 41.1279 159.027 40.4639 159.389C39.7998 159.75 39.1895 160.219 38.6328 160.795L37.2266 159.11C37.9492 158.349 38.7793 157.738 39.7168 157.279C40.6641 156.82 41.7627 156.591 43.0127 156.591C43.8623 156.591 44.6338 156.718 45.3271 156.972C46.0303 157.226 46.6357 157.592 47.1436 158.07C47.6514 158.549 48.042 159.135 48.3154 159.828C48.5986 160.521 48.7402 161.303 48.7402 162.172C48.7402 162.904 48.6426 163.583 48.4473 164.208C48.252 164.833 47.9541 165.458 47.5537 166.083C47.1631 166.698 46.665 167.338 46.0596 168.002C45.4639 168.666 44.7559 169.394 43.9355 170.185L40.4639 173.568H49.7656V176Z" fill="black"/>
<path d="M133.604 176H121.578V173.627H126.5V159.652L121.915 162.143L120.978 159.975L127.071 156.767H129.327V173.627H133.604V176Z" fill="black"/>
<path d="M247.604 221H235.578V218.627H240.5V204.652L235.915 207.143L234.978 204.975L241.071 201.767H243.327V218.627H247.604V221Z" fill="black"/>
<path d="M332.205 211.435C332.205 212.899 332.059 214.237 331.766 215.448C331.473 216.649 331.028 217.685 330.433 218.554C329.837 219.413 329.095 220.082 328.206 220.561C327.327 221.029 326.292 221.264 325.101 221.264C324.075 221.264 323.143 221.073 322.303 220.692C321.463 220.302 320.745 219.706 320.149 218.905C319.554 218.104 319.095 217.084 318.772 215.844C318.45 214.604 318.289 213.134 318.289 211.435C318.289 209.97 318.436 208.632 318.729 207.421C319.031 206.21 319.476 205.175 320.062 204.315C320.657 203.446 321.399 202.777 322.288 202.309C323.177 201.83 324.212 201.591 325.394 201.591C326.419 201.591 327.352 201.786 328.191 202.177C329.031 202.558 329.749 203.153 330.345 203.964C330.94 204.765 331.399 205.785 331.722 207.025C332.044 208.266 332.205 209.735 332.205 211.435ZM329.627 211.522C329.627 211.19 329.612 210.863 329.583 210.541C329.563 210.209 329.539 209.887 329.51 209.574L321.409 215.595C321.556 216.103 321.741 216.571 321.966 217.001C322.19 217.431 322.459 217.802 322.771 218.114C323.094 218.417 323.455 218.656 323.855 218.832C324.266 218.998 324.729 219.081 325.247 219.081C325.911 219.081 326.512 218.92 327.049 218.598C327.596 218.275 328.06 217.797 328.44 217.162C328.821 216.527 329.114 215.741 329.319 214.804C329.524 213.856 329.627 212.763 329.627 211.522ZM320.867 211.347C320.867 211.649 320.867 211.952 320.867 212.255C320.877 212.558 320.896 212.851 320.926 213.134L329.026 207.143C328.88 206.645 328.694 206.19 328.47 205.78C328.245 205.37 327.977 205.019 327.664 204.726C327.352 204.423 326.995 204.188 326.595 204.022C326.194 203.856 325.745 203.773 325.247 203.773C324.583 203.773 323.978 203.935 323.431 204.257C322.894 204.579 322.435 205.062 322.054 205.707C321.673 206.342 321.38 207.133 321.175 208.08C320.97 209.018 320.867 210.106 320.867 211.347Z" fill="black"/>
<path d="M248.718 261.767H245.451V266H242.844V261.767H233.63V259.525L241.789 246.854H245.451V259.525H248.718V261.767ZM242.844 249.315L236.179 259.525H242.844V249.315Z" fill="black"/>
<path d="M331.604 266H319.578V263.627H324.5V249.652L319.915 252.143L318.978 249.975L325.071 246.767H327.327V263.627H331.604V266Z" fill="black"/>
<path d="M247.766 306.195C247.766 307.006 247.6 307.729 247.268 308.363C246.936 308.988 246.472 309.516 245.876 309.945C245.28 310.375 244.577 310.702 243.767 310.927C242.956 311.151 242.077 311.264 241.13 311.264C240.085 311.264 239.162 311.146 238.361 310.912C237.57 310.678 236.906 310.351 236.369 309.931C235.832 309.511 235.427 309.013 235.153 308.437C234.88 307.86 234.743 307.226 234.743 306.532C234.743 305.36 235.07 304.35 235.725 303.5C236.379 302.65 237.39 301.879 238.757 301.186C237.507 300.551 236.594 299.848 236.018 299.076C235.441 298.295 235.153 297.401 235.153 296.396C235.153 295.78 235.28 295.185 235.534 294.608C235.788 294.032 236.169 293.52 236.677 293.07C237.194 292.621 237.839 292.265 238.61 292.001C239.382 291.728 240.29 291.591 241.335 291.591C242.321 291.591 243.186 291.698 243.928 291.913C244.68 292.118 245.31 292.416 245.817 292.807C246.325 293.197 246.706 293.671 246.96 294.228C247.214 294.784 247.341 295.404 247.341 296.088C247.341 297.201 247.028 298.148 246.403 298.93C245.788 299.711 244.909 300.395 243.767 300.98C244.333 301.264 244.86 301.576 245.349 301.918C245.837 302.26 246.262 302.641 246.623 303.061C246.984 303.48 247.263 303.949 247.458 304.467C247.663 304.984 247.766 305.561 247.766 306.195ZM244.733 296.293C244.733 295.424 244.426 294.779 243.811 294.359C243.205 293.93 242.351 293.715 241.247 293.715C240.153 293.715 239.299 293.925 238.684 294.345C238.078 294.765 237.775 295.395 237.775 296.234C237.775 296.615 237.849 296.967 237.995 297.289C238.142 297.611 238.366 297.914 238.669 298.197C238.981 298.48 239.367 298.759 239.826 299.032C240.285 299.306 240.832 299.584 241.467 299.867C242.57 299.35 243.391 298.812 243.928 298.256C244.465 297.689 244.733 297.035 244.733 296.293ZM244.997 306.386C244.997 306.024 244.938 305.673 244.821 305.331C244.704 304.989 244.494 304.652 244.191 304.32C243.889 303.988 243.483 303.656 242.976 303.324C242.468 302.992 241.823 302.65 241.042 302.299C240.378 302.621 239.816 302.943 239.357 303.266C238.908 303.578 238.542 303.9 238.259 304.232C237.985 304.555 237.79 304.892 237.673 305.243C237.556 305.595 237.497 305.966 237.497 306.356C237.497 306.796 237.59 307.187 237.775 307.528C237.971 307.86 238.234 308.144 238.566 308.378C238.898 308.612 239.294 308.788 239.753 308.905C240.212 309.022 240.71 309.081 241.247 309.081C241.765 309.081 242.253 309.027 242.712 308.92C243.171 308.812 243.566 308.651 243.898 308.437C244.24 308.212 244.509 307.934 244.704 307.602C244.899 307.26 244.997 306.854 244.997 306.386Z" fill="black"/>
<path d="M331.766 311H319.153V308.715L324.104 303.793C324.915 302.992 325.574 302.299 326.082 301.713C326.59 301.127 326.985 300.595 327.269 300.116C327.552 299.628 327.742 299.169 327.84 298.739C327.938 298.31 327.986 297.846 327.986 297.348C327.986 296.879 327.923 296.435 327.796 296.015C327.669 295.585 327.474 295.209 327.21 294.887C326.946 294.564 326.604 294.311 326.185 294.125C325.765 293.939 325.262 293.847 324.676 293.847C323.865 293.847 323.128 294.027 322.464 294.389C321.8 294.75 321.189 295.219 320.633 295.795L319.227 294.11C319.949 293.349 320.779 292.738 321.717 292.279C322.664 291.82 323.763 291.591 325.013 291.591C325.862 291.591 326.634 291.718 327.327 291.972C328.03 292.226 328.636 292.592 329.144 293.07C329.651 293.549 330.042 294.135 330.315 294.828C330.599 295.521 330.74 296.303 330.74 297.172C330.74 297.904 330.643 298.583 330.447 299.208C330.252 299.833 329.954 300.458 329.554 301.083C329.163 301.698 328.665 302.338 328.06 303.002C327.464 303.666 326.756 304.394 325.936 305.185L322.464 308.568H331.766V311Z" fill="black"/>
<path d="M313.771 329.783C312.88 329.594 312.111 329.5 311.467 329.5C309.937 329.5 309.172 330.301 309.172 331.902V333.621H313.469V335.037H309.172V342H307.443V335.037H304.289V333.621H307.443V332C307.443 329.389 308.804 328.084 311.525 328.084C312.202 328.084 312.951 328.162 313.771 328.318V329.783ZM316.467 332.195H318.02L318.068 334.002C318.648 333.305 319.217 332.801 319.777 332.488C320.344 332.176 320.913 332.02 321.486 332.02C322.502 332.02 323.27 332.348 323.791 333.006C324.318 333.663 324.562 334.64 324.523 335.936H322.805C322.824 335.076 322.697 334.454 322.424 334.07C322.157 333.68 321.763 333.484 321.242 333.484C321.014 333.484 320.783 333.527 320.549 333.611C320.321 333.689 320.083 333.82 319.836 334.002C319.595 334.178 319.338 334.406 319.064 334.686C318.791 334.965 318.498 335.304 318.186 335.701V342H316.467V332.195ZM335.344 336.58C335.344 336.821 335.34 337.023 335.334 337.186C335.327 337.348 335.318 337.501 335.305 337.645H328.42C328.42 338.647 328.7 339.419 329.26 339.959C329.82 340.493 330.627 340.76 331.682 340.76C331.968 340.76 332.255 340.75 332.541 340.73C332.827 340.704 333.104 340.672 333.371 340.633C333.638 340.594 333.892 340.551 334.133 340.506C334.38 340.454 334.608 340.398 334.816 340.34V341.736C334.354 341.867 333.83 341.971 333.244 342.049C332.665 342.133 332.062 342.176 331.438 342.176C330.598 342.176 329.875 342.062 329.27 341.834C328.664 341.606 328.166 341.277 327.775 340.848C327.391 340.411 327.105 339.881 326.916 339.256C326.734 338.624 326.643 337.911 326.643 337.117C326.643 336.427 326.74 335.776 326.936 335.164C327.137 334.546 327.427 334.005 327.805 333.543C328.189 333.074 328.658 332.703 329.211 332.43C329.764 332.156 330.393 332.02 331.096 332.02C331.779 332.02 332.385 332.127 332.912 332.342C333.439 332.557 333.882 332.863 334.24 333.26C334.605 333.65 334.878 334.129 335.061 334.695C335.249 335.255 335.344 335.883 335.344 336.58ZM333.576 336.336C333.596 335.9 333.553 335.503 333.449 335.145C333.345 334.78 333.182 334.467 332.961 334.207C332.746 333.947 332.476 333.745 332.15 333.602C331.825 333.452 331.447 333.377 331.018 333.377C330.646 333.377 330.308 333.449 330.002 333.592C329.696 333.735 329.432 333.937 329.211 334.197C328.99 334.458 328.811 334.77 328.674 335.135C328.537 335.499 328.452 335.9 328.42 336.336H333.576ZM337.561 337.303C337.561 336.6 337.652 335.932 337.834 335.301C338.023 334.669 338.309 334.116 338.693 333.641C339.084 333.159 339.582 332.778 340.188 332.498C340.793 332.218 341.516 332.078 342.355 332.078C342.688 332.078 343.016 332.104 343.342 332.156C343.667 332.208 344.012 332.29 344.377 332.4L345.881 332.02V346.004H344.172V342.303L344.26 340.203C343.335 341.518 342.235 342.176 340.959 342.176C340.386 342.176 339.888 342.059 339.465 341.824C339.042 341.59 338.687 341.258 338.4 340.828C338.12 340.398 337.909 339.884 337.766 339.285C337.629 338.686 337.561 338.025 337.561 337.303ZM339.299 337.195C339.299 337.742 339.338 338.234 339.416 338.67C339.501 339.106 339.624 339.477 339.787 339.783C339.956 340.083 340.165 340.314 340.412 340.477C340.666 340.639 340.962 340.721 341.301 340.721C341.73 340.721 342.183 340.529 342.658 340.145C343.14 339.76 343.645 339.191 344.172 338.436V333.885C343.911 333.761 343.615 333.66 343.283 333.582C342.958 333.504 342.609 333.465 342.238 333.465C341.281 333.465 340.552 333.781 340.051 334.412C339.549 335.044 339.299 335.971 339.299 337.195Z" fill="#666666"/>
<path d="M346.149 71.8359C346.149 72.5384 346.006 73.1647 345.718 73.7148C345.43 74.2565 345.028 74.7135 344.512 75.0859C343.995 75.4583 343.386 75.7419 342.684 75.9365C341.981 76.1312 341.219 76.2285 340.398 76.2285C339.493 76.2285 338.693 76.127 337.999 75.9238C337.313 75.7207 336.738 75.4372 336.272 75.0732C335.807 74.7093 335.456 74.2777 335.219 73.7783C334.982 73.279 334.863 72.7288 334.863 72.1279C334.863 71.1123 335.147 70.2363 335.714 69.5C336.281 68.7637 337.157 68.0951 338.342 67.4941C337.258 66.944 336.467 66.3346 335.968 65.666C335.468 64.9889 335.219 64.2145 335.219 63.3428C335.219 62.8096 335.329 62.2933 335.549 61.7939C335.769 61.2946 336.099 60.8503 336.539 60.4609C336.988 60.0716 337.546 59.7627 338.215 59.5342C338.883 59.2972 339.671 59.1787 340.576 59.1787C341.431 59.1787 342.18 59.2718 342.823 59.458C343.475 59.6357 344.021 59.8939 344.461 60.2324C344.901 60.571 345.231 60.9814 345.451 61.4639C345.671 61.9463 345.781 62.4837 345.781 63.0762C345.781 64.041 345.51 64.862 344.969 65.5391C344.436 66.2161 343.674 66.8086 342.684 67.3164C343.174 67.5618 343.632 67.8327 344.055 68.1289C344.478 68.4251 344.846 68.7552 345.159 69.1191C345.472 69.4831 345.714 69.8893 345.883 70.3379C346.061 70.7865 346.149 71.2858 346.149 71.8359ZM343.521 63.2539C343.521 62.5007 343.255 61.9421 342.722 61.5781C342.197 61.2057 341.456 61.0195 340.5 61.0195C339.552 61.0195 338.812 61.2015 338.278 61.5654C337.754 61.9294 337.491 62.4753 337.491 63.2031C337.491 63.5332 337.555 63.8379 337.682 64.1172C337.809 64.3965 338.003 64.6589 338.266 64.9043C338.536 65.1497 338.871 65.391 339.269 65.6279C339.666 65.8649 340.14 66.1061 340.69 66.3516C341.647 65.903 342.358 65.4375 342.823 64.9551C343.289 64.4642 343.521 63.8971 343.521 63.2539ZM343.75 72.001C343.75 71.6878 343.699 71.3831 343.598 71.0869C343.496 70.7907 343.314 70.4987 343.052 70.2109C342.789 69.9232 342.438 69.6354 341.998 69.3477C341.558 69.0599 340.999 68.7637 340.322 68.459C339.747 68.7383 339.26 69.0176 338.862 69.2969C338.473 69.5677 338.156 69.847 337.91 70.1348C337.673 70.4141 337.504 70.7061 337.402 71.0107C337.301 71.3154 337.25 71.637 337.25 71.9756C337.25 72.3564 337.33 72.695 337.491 72.9912C337.66 73.279 337.889 73.5244 338.177 73.7275C338.465 73.9307 338.807 74.083 339.205 74.1846C339.603 74.2861 340.035 74.3369 340.5 74.3369C340.949 74.3369 341.372 74.2904 341.77 74.1973C342.167 74.1042 342.51 73.9645 342.798 73.7783C343.094 73.5837 343.327 73.3424 343.496 73.0547C343.665 72.7585 343.75 72.4072 343.75 72.001Z" fill="black"/>
<path d="M31.1494 76H20.2188V74.0195L24.5098 69.7539C25.2122 69.0599 25.7835 68.459 26.2236 67.9512C26.6637 67.4434 27.0065 66.9821 27.252 66.5674C27.4974 66.1442 27.6624 65.7464 27.7471 65.374C27.8317 65.0016 27.874 64.5996 27.874 64.168C27.874 63.7617 27.819 63.3766 27.709 63.0127C27.599 62.6403 27.4297 62.3145 27.2012 62.0352C26.9727 61.7559 26.6764 61.5358 26.3125 61.375C25.9486 61.2142 25.5127 61.1338 25.0049 61.1338C24.3024 61.1338 23.6634 61.2904 23.0879 61.6035C22.5124 61.9167 21.9834 62.3229 21.501 62.8223L20.2822 61.3623C20.9085 60.7021 21.6279 60.1732 22.4404 59.7754C23.2614 59.3776 24.2135 59.1787 25.2969 59.1787C26.0332 59.1787 26.7018 59.2887 27.3027 59.5088C27.9121 59.7288 28.4368 60.0462 28.877 60.4609C29.3171 60.8757 29.6556 61.3835 29.8926 61.9844C30.138 62.5853 30.2607 63.2624 30.2607 64.0156C30.2607 64.6504 30.1761 65.2386 30.0068 65.7803C29.8376 66.3219 29.5794 66.8636 29.2324 67.4053C28.8939 67.9385 28.4622 68.4928 27.9375 69.0684C27.4212 69.6439 26.8076 70.2744 26.0967 70.96L23.0879 73.8926H31.1494V76Z" fill="black"/>
<path d="M426.814 63.2539H428.833L428.896 65.6025C429.65 64.6969 430.39 64.041 431.118 63.6348C431.854 63.2285 432.595 63.0254 433.34 63.0254C434.66 63.0254 435.659 63.4528 436.336 64.3076C437.021 65.1624 437.339 66.432 437.288 68.1162H435.054C435.079 66.999 434.914 66.1908 434.559 65.6914C434.212 65.1836 433.7 64.9297 433.022 64.9297C432.726 64.9297 432.426 64.9847 432.121 65.0947C431.825 65.1963 431.516 65.3656 431.194 65.6025C430.881 65.8311 430.547 66.1273 430.191 66.4912C429.836 66.8551 429.455 67.2952 429.049 67.8115V76H426.814V63.2539ZM465.459 67.7988H454.541V65.9326H465.459V67.7988ZM465.459 72.2168H454.541V70.3506H465.459V72.2168ZM494.239 76H483.309V74.0195L487.6 69.7539C488.302 69.0599 488.873 68.459 489.313 67.9512C489.754 67.4434 490.096 66.9821 490.342 66.5674C490.587 66.1442 490.752 65.7464 490.837 65.374C490.922 65.0016 490.964 64.5996 490.964 64.168C490.964 63.7617 490.909 63.3766 490.799 63.0127C490.689 62.6403 490.52 62.3145 490.291 62.0352C490.062 61.7559 489.766 61.5358 489.402 61.375C489.038 61.2142 488.603 61.1338 488.095 61.1338C487.392 61.1338 486.753 61.2904 486.178 61.6035C485.602 61.9167 485.073 62.3229 484.591 62.8223L483.372 61.3623C483.998 60.7021 484.718 60.1732 485.53 59.7754C486.351 59.3776 487.303 59.1787 488.387 59.1787C489.123 59.1787 489.792 59.2887 490.393 59.5088C491.002 59.7288 491.527 60.0462 491.967 60.4609C492.407 60.8757 492.745 61.3835 492.982 61.9844C493.228 62.5853 493.351 63.2624 493.351 64.0156C493.351 64.6504 493.266 65.2386 493.097 65.7803C492.927 66.3219 492.669 66.8636 492.322 67.4053C491.984 67.9385 491.552 68.4928 491.027 69.0684C490.511 69.6439 489.897 70.2744 489.187 70.96L486.178 73.8926H494.239V76Z" fill="black"/>
<path d="M7.99121 81.2051H1.73242V57.6172H7.99121V59.3945H3.83984V79.4277H7.99121V81.2051Z" fill="black"/>
<path d="M358.009 81.2051H364.268V57.6172H358.009V59.3945H362.16V79.4277H358.009V81.2051Z" fill="black"/>
<path d="M382.374 78.6025C382.806 78.6195 383.225 78.5814 383.631 78.4883C384.037 78.3952 384.393 78.2555 384.697 78.0693C385.01 77.8916 385.26 77.6673 385.446 77.3965C385.632 77.1257 385.726 76.8167 385.726 76.4697C385.726 76.1143 385.662 75.8265 385.535 75.6064C385.417 75.3864 385.281 75.1833 385.129 74.9971C384.977 74.8109 384.837 74.612 384.71 74.4004C384.591 74.1888 384.532 73.9053 384.532 73.5498C384.532 73.3721 384.566 73.1859 384.634 72.9912C384.701 72.7965 384.803 72.6188 384.938 72.458C385.082 72.2972 385.26 72.166 385.472 72.0645C385.692 71.9629 385.95 71.9121 386.246 71.9121C386.542 71.9121 386.826 71.9756 387.097 72.1025C387.376 72.221 387.617 72.4072 387.82 72.6611C388.032 72.915 388.197 73.2324 388.315 73.6133C388.442 73.9941 388.506 74.4427 388.506 74.959C388.506 75.6615 388.375 76.3343 388.112 76.9775C387.858 77.6292 387.473 78.2048 386.957 78.7041C386.449 79.2035 385.81 79.6012 385.04 79.8975C384.278 80.1937 383.39 80.3418 382.374 80.3418V78.6025Z" fill="black"/>
<path d="M94.0098 76H83.5869V73.9434H87.8525V61.832L83.8789 63.9902L83.0664 62.1113L88.3477 59.3311H90.3027V73.9434H94.0098V76Z" fill="black"/>
<path d="M157.149 76H146.219V74.0195L150.51 69.7539C151.212 69.0599 151.784 68.459 152.224 67.9512C152.664 67.4434 153.007 66.9821 153.252 66.5674C153.497 66.1442 153.662 65.7464 153.747 65.374C153.832 65.0016 153.874 64.5996 153.874 64.168C153.874 63.7617 153.819 63.3766 153.709 63.0127C153.599 62.6403 153.43 62.3145 153.201 62.0352C152.973 61.7559 152.676 61.5358 152.312 61.375C151.949 61.2142 151.513 61.1338 151.005 61.1338C150.302 61.1338 149.663 61.2904 149.088 61.6035C148.512 61.9167 147.983 62.3229 147.501 62.8223L146.282 61.3623C146.909 60.7021 147.628 60.1732 148.44 59.7754C149.261 59.3776 150.214 59.1787 151.297 59.1787C152.033 59.1787 152.702 59.2887 153.303 59.5088C153.912 59.7288 154.437 60.0462 154.877 60.4609C155.317 60.8757 155.656 61.3835 155.893 61.9844C156.138 62.5853 156.261 63.2624 156.261 64.0156C156.261 64.6504 156.176 65.2386 156.007 65.7803C155.838 66.3219 155.579 66.8636 155.232 67.4053C154.894 67.9385 154.462 68.4928 153.938 69.0684C153.421 69.6439 152.808 70.2744 152.097 70.96L149.088 73.8926H157.149V76Z" fill="black"/>
<path d="M220.975 72.3311H218.144V76H215.884V72.3311H207.898V70.3887L214.97 59.4072H218.144V70.3887H220.975V72.3311ZM215.884 61.54L210.107 70.3887H215.884V61.54Z" fill="black"/>
<path d="M283.149 71.8359C283.149 72.5384 283.006 73.1647 282.718 73.7148C282.43 74.2565 282.028 74.7135 281.512 75.0859C280.995 75.4583 280.386 75.7419 279.684 75.9365C278.981 76.1312 278.219 76.2285 277.398 76.2285C276.493 76.2285 275.693 76.127 274.999 75.9238C274.313 75.7207 273.738 75.4372 273.272 75.0732C272.807 74.7093 272.456 74.2777 272.219 73.7783C271.982 73.279 271.863 72.7288 271.863 72.1279C271.863 71.1123 272.147 70.2363 272.714 69.5C273.281 68.7637 274.157 68.0951 275.342 67.4941C274.258 66.944 273.467 66.3346 272.968 65.666C272.468 64.9889 272.219 64.2145 272.219 63.3428C272.219 62.8096 272.329 62.2933 272.549 61.7939C272.769 61.2946 273.099 60.8503 273.539 60.4609C273.988 60.0716 274.546 59.7627 275.215 59.5342C275.883 59.2972 276.671 59.1787 277.576 59.1787C278.431 59.1787 279.18 59.2718 279.823 59.458C280.475 59.6357 281.021 59.8939 281.461 60.2324C281.901 60.571 282.231 60.9814 282.451 61.4639C282.671 61.9463 282.781 62.4837 282.781 63.0762C282.781 64.041 282.51 64.862 281.969 65.5391C281.436 66.2161 280.674 66.8086 279.684 67.3164C280.174 67.5618 280.632 67.8327 281.055 68.1289C281.478 68.4251 281.846 68.7552 282.159 69.1191C282.472 69.4831 282.714 69.8893 282.883 70.3379C283.061 70.7865 283.149 71.2858 283.149 71.8359ZM280.521 63.2539C280.521 62.5007 280.255 61.9421 279.722 61.5781C279.197 61.2057 278.456 61.0195 277.5 61.0195C276.552 61.0195 275.812 61.2015 275.278 61.5654C274.754 61.9294 274.491 62.4753 274.491 63.2031C274.491 63.5332 274.555 63.8379 274.682 64.1172C274.809 64.3965 275.003 64.6589 275.266 64.9043C275.536 65.1497 275.871 65.391 276.269 65.6279C276.666 65.8649 277.14 66.1061 277.69 66.3516C278.647 65.903 279.358 65.4375 279.823 64.9551C280.289 64.4642 280.521 63.8971 280.521 63.2539ZM280.75 72.001C280.75 71.6878 280.699 71.3831 280.598 71.0869C280.496 70.7907 280.314 70.4987 280.052 70.2109C279.789 69.9232 279.438 69.6354 278.998 69.3477C278.558 69.0599 277.999 68.7637 277.322 68.459C276.747 68.7383 276.26 69.0176 275.862 69.2969C275.473 69.5677 275.156 69.847 274.91 70.1348C274.673 70.4141 274.504 70.7061 274.402 71.0107C274.301 71.3154 274.25 71.637 274.25 71.9756C274.25 72.3564 274.33 72.695 274.491 72.9912C274.66 73.279 274.889 73.5244 275.177 73.7275C275.465 73.9307 275.807 74.083 276.205 74.1846C276.603 74.2861 277.035 74.3369 277.5 74.3369C277.949 74.3369 278.372 74.2904 278.77 74.1973C279.167 74.1042 279.51 73.9645 279.798 73.7783C280.094 73.5837 280.327 73.3424 280.496 73.0547C280.665 72.7585 280.75 72.4072 280.75 72.001Z" fill="black"/>
<path d="M87.2929 47.7071C87.6834 48.0976 88.3166 48.0976 88.7071 47.7071L95.0711 41.3431C95.4616 40.9526 95.4616 40.3195 95.0711 39.9289C94.6805 39.5384 94.0474 39.5384 93.6569 39.9289L88 45.5858L82.3431 39.9289C81.9526 39.5384 81.3195 39.5384 80.9289 39.9289C80.5384 40.3195 80.5384 40.9526 80.9289 41.3431L87.2929 47.7071ZM87 19L87 47L89 47L89 19L87 19Z" fill="#666666"/>
<path d="M94.373 15H91.4404L88 10.1377L84.5977 15H81.7412L86.6797 8.60156L81.9697 2.25391H84.8008L88.1523 7.1543L91.4404 2.25391H94.1699L89.3838 8.65234L94.373 15Z" fill="#666666"/>
<rect x="399" y="202" width="683" height="68" rx="10" fill="#EDEDED" stroke="#999999" stroke-width="2" stroke-dasharray="10 10"/>
<path d="M427.521 242H424.588L421.147 237.138L417.745 242H414.889L419.827 235.602L415.117 229.254H417.948L421.3 234.154L424.588 229.254H427.317L422.531 235.652L427.521 242ZM446.496 224.062L434.791 242H432.709L444.389 224.062H446.496ZM439.729 227.616C439.729 228.166 439.649 228.678 439.488 229.152C439.327 229.618 439.095 230.024 438.79 230.371C438.494 230.71 438.13 230.98 437.698 231.184C437.275 231.378 436.801 231.476 436.276 231.476C435.76 231.476 435.294 231.395 434.88 231.234C434.473 231.074 434.122 230.837 433.826 230.523C433.538 230.202 433.314 229.808 433.153 229.343C433.001 228.877 432.925 228.34 432.925 227.73C432.925 227.189 433.005 226.685 433.166 226.22C433.327 225.746 433.555 225.335 433.851 224.988C434.156 224.641 434.52 224.37 434.943 224.176C435.375 223.981 435.853 223.884 436.378 223.884C436.894 223.884 437.355 223.964 437.762 224.125C438.176 224.286 438.528 224.523 438.815 224.836C439.111 225.149 439.336 225.538 439.488 226.004C439.649 226.469 439.729 227.007 439.729 227.616ZM437.863 227.68C437.863 226.935 437.728 226.385 437.457 226.029C437.186 225.674 436.809 225.496 436.327 225.496C436.082 225.496 435.861 225.551 435.667 225.661C435.481 225.771 435.32 225.924 435.184 226.118C435.057 226.313 434.96 226.546 434.892 226.816C434.825 227.079 434.791 227.367 434.791 227.68C434.791 228.424 434.926 228.975 435.197 229.33C435.468 229.686 435.845 229.863 436.327 229.863C436.572 229.863 436.788 229.808 436.974 229.698C437.169 229.588 437.33 229.436 437.457 229.241C437.592 229.047 437.694 228.818 437.762 228.556C437.829 228.285 437.863 227.993 437.863 227.68ZM446.293 238.331C446.293 238.881 446.208 239.389 446.039 239.854C445.878 240.32 445.645 240.726 445.341 241.073C445.044 241.42 444.681 241.691 444.249 241.886C443.826 242.08 443.352 242.178 442.827 242.178C442.311 242.178 441.845 242.097 441.431 241.937C441.024 241.776 440.673 241.539 440.377 241.226C440.089 240.912 439.865 240.523 439.704 240.058C439.552 239.584 439.475 239.042 439.475 238.433C439.475 237.891 439.556 237.387 439.717 236.922C439.877 236.448 440.106 236.037 440.402 235.69C440.707 235.343 441.071 235.073 441.494 234.878C441.926 234.683 442.404 234.586 442.929 234.586C443.445 234.586 443.91 234.666 444.325 234.827C444.74 234.988 445.091 235.229 445.379 235.551C445.675 235.864 445.899 236.253 446.052 236.719C446.212 237.184 446.293 237.722 446.293 238.331ZM444.427 238.382C444.427 237.637 444.287 237.087 444.008 236.731C443.737 236.376 443.36 236.198 442.878 236.198C442.632 236.198 442.412 236.253 442.218 236.363C442.031 236.473 441.871 236.626 441.735 236.82C441.608 237.015 441.511 237.248 441.443 237.519C441.375 237.781 441.342 238.069 441.342 238.382C441.342 239.127 441.477 239.677 441.748 240.032C442.019 240.388 442.395 240.565 442.878 240.565C443.123 240.565 443.339 240.51 443.525 240.4C443.72 240.29 443.885 240.138 444.02 239.943C444.156 239.749 444.257 239.52 444.325 239.258C444.393 238.987 444.427 238.695 444.427 238.382ZM453.462 229.254H455.48L455.544 231.603C456.297 230.697 457.037 230.041 457.765 229.635C458.502 229.229 459.242 229.025 459.987 229.025C461.307 229.025 462.306 229.453 462.983 230.308C463.669 231.162 463.986 232.432 463.935 234.116H461.701C461.726 232.999 461.561 232.191 461.206 231.691C460.859 231.184 460.347 230.93 459.67 230.93C459.373 230.93 459.073 230.985 458.768 231.095C458.472 231.196 458.163 231.366 457.841 231.603C457.528 231.831 457.194 232.127 456.839 232.491C456.483 232.855 456.102 233.295 455.696 233.812V242H453.462V229.254ZM487.955 224.062L487.612 237.138H485.657L485.276 224.062H487.955ZM486.622 238.877C486.85 238.877 487.066 238.924 487.269 239.017C487.472 239.101 487.646 239.22 487.79 239.372C487.942 239.524 488.061 239.706 488.145 239.918C488.238 240.121 488.285 240.337 488.285 240.565C488.285 240.794 488.238 241.01 488.145 241.213C488.061 241.416 487.942 241.594 487.79 241.746C487.646 241.89 487.472 242.004 487.269 242.089C487.066 242.182 486.85 242.229 486.622 242.229C486.385 242.229 486.165 242.182 485.962 242.089C485.758 242.004 485.581 241.89 485.428 241.746C485.276 241.594 485.153 241.416 485.06 241.213C484.976 241.01 484.933 240.794 484.933 240.565C484.933 240.337 484.976 240.121 485.06 239.918C485.153 239.706 485.276 239.524 485.428 239.372C485.581 239.22 485.758 239.101 485.962 239.017C486.165 238.924 486.385 238.877 486.622 238.877ZM506.401 233.799H495.483V231.933H506.401V233.799ZM506.401 238.217H495.483V236.351H506.401V238.217ZM535.562 233.71C535.562 234.979 535.435 236.139 535.181 237.188C534.927 238.229 534.542 239.127 534.026 239.88C533.51 240.625 532.867 241.204 532.096 241.619C531.335 242.025 530.438 242.229 529.405 242.229C528.516 242.229 527.708 242.063 526.98 241.733C526.252 241.395 525.63 240.879 525.114 240.185C524.598 239.491 524.2 238.606 523.921 237.531C523.641 236.456 523.502 235.183 523.502 233.71C523.502 232.44 523.629 231.281 523.882 230.231C524.145 229.182 524.53 228.285 525.038 227.54C525.554 226.787 526.197 226.207 526.967 225.801C527.738 225.386 528.635 225.179 529.659 225.179C530.548 225.179 531.356 225.348 532.084 225.687C532.812 226.017 533.434 226.533 533.95 227.235C534.466 227.929 534.864 228.814 535.143 229.889C535.423 230.964 535.562 232.237 535.562 233.71ZM533.328 233.786C533.328 233.498 533.315 233.215 533.29 232.936C533.273 232.648 533.252 232.368 533.226 232.098L526.206 237.315C526.333 237.756 526.494 238.162 526.688 238.534C526.883 238.907 527.116 239.228 527.386 239.499C527.666 239.761 527.979 239.969 528.326 240.121C528.681 240.265 529.083 240.337 529.532 240.337C530.107 240.337 530.628 240.197 531.093 239.918C531.567 239.639 531.969 239.224 532.299 238.674C532.63 238.124 532.883 237.442 533.061 236.63C533.239 235.809 533.328 234.861 533.328 233.786ZM525.736 233.634C525.736 233.896 525.736 234.159 525.736 234.421C525.744 234.683 525.761 234.937 525.787 235.183L532.807 229.99C532.68 229.559 532.52 229.165 532.325 228.81C532.13 228.454 531.897 228.149 531.627 227.896C531.356 227.633 531.047 227.43 530.7 227.286C530.353 227.142 529.964 227.07 529.532 227.07C528.956 227.07 528.432 227.21 527.958 227.489C527.492 227.769 527.094 228.188 526.764 228.746C526.434 229.296 526.18 229.982 526.003 230.803C525.825 231.615 525.736 232.559 525.736 233.634Z" fill="black"/>
<path d="M605.934 241.53C605.358 241.75 604.766 241.911 604.156 242.013C603.555 242.123 602.933 242.178 602.29 242.178C600.276 242.178 598.723 241.632 597.631 240.54C596.548 239.448 596.006 237.853 596.006 235.754C596.006 234.747 596.162 233.833 596.476 233.012C596.789 232.191 597.229 231.488 597.796 230.904C598.363 230.32 599.04 229.872 599.827 229.559C600.614 229.237 601.482 229.076 602.43 229.076C603.09 229.076 603.708 229.123 604.283 229.216C604.859 229.309 605.409 229.461 605.934 229.673V231.78C605.383 231.493 604.821 231.285 604.245 231.158C603.678 231.023 603.09 230.955 602.48 230.955C601.913 230.955 601.376 231.065 600.868 231.285C600.369 231.497 599.929 231.806 599.548 232.212C599.167 232.618 598.867 233.113 598.646 233.697C598.426 234.281 598.316 234.941 598.316 235.678C598.316 237.218 598.689 238.373 599.434 239.144C600.187 239.905 601.228 240.286 602.557 240.286C603.158 240.286 603.737 240.218 604.296 240.083C604.863 239.948 605.409 239.744 605.934 239.474V241.53ZM618.515 242L618.464 240.286C617.77 240.972 617.063 241.467 616.344 241.771C615.633 242.076 614.884 242.229 614.097 242.229C613.369 242.229 612.747 242.135 612.23 241.949C611.714 241.763 611.287 241.509 610.948 241.188C610.618 240.857 610.373 240.472 610.212 240.032C610.06 239.592 609.983 239.114 609.983 238.598C609.983 237.32 610.457 236.321 611.405 235.602C612.362 234.874 613.771 234.51 615.633 234.51H618.273V233.393C618.273 232.639 618.032 232.038 617.55 231.59C617.067 231.133 616.331 230.904 615.341 230.904C614.621 230.904 613.91 230.985 613.208 231.146C612.514 231.306 611.795 231.535 611.05 231.831V229.838C611.329 229.736 611.638 229.639 611.977 229.546C612.324 229.444 612.688 229.355 613.068 229.279C613.449 229.203 613.847 229.144 614.262 229.102C614.676 229.051 615.095 229.025 615.519 229.025C616.289 229.025 616.983 229.11 617.601 229.279C618.218 229.449 618.739 229.707 619.162 230.054C619.594 230.401 619.924 230.837 620.152 231.361C620.381 231.886 620.495 232.504 620.495 233.215V242H618.515ZM618.273 236.198H615.468C614.918 236.198 614.444 236.253 614.046 236.363C613.648 236.473 613.322 236.63 613.068 236.833C612.814 237.036 612.624 237.282 612.497 237.569C612.379 237.849 612.319 238.166 612.319 238.521C612.319 238.767 612.357 239.004 612.434 239.232C612.51 239.452 612.632 239.651 612.802 239.829C612.971 239.998 613.191 240.134 613.462 240.235C613.733 240.337 614.063 240.388 614.452 240.388C614.96 240.388 615.54 240.235 616.191 239.931C616.852 239.618 617.546 239.127 618.273 238.458V236.198ZM624.621 229.254H626.589L626.678 231.311C627.05 230.87 627.41 230.507 627.757 230.219C628.104 229.923 628.442 229.686 628.772 229.508C629.111 229.33 629.454 229.207 629.801 229.14C630.148 229.063 630.507 229.025 630.88 229.025C632.192 229.025 633.182 229.415 633.851 230.193C634.528 230.964 634.866 232.127 634.866 233.685V242H632.657V233.862C632.657 232.864 632.471 232.127 632.099 231.653C631.726 231.171 631.172 230.93 630.436 230.93C630.165 230.93 629.898 230.972 629.636 231.057C629.382 231.133 629.115 231.272 628.836 231.476C628.557 231.67 628.252 231.937 627.922 232.275C627.6 232.614 627.236 233.037 626.83 233.545V242H624.621V229.254ZM639.906 230.587C640.338 230.604 640.757 230.57 641.163 230.485C641.569 230.392 641.925 230.257 642.229 230.079C642.543 229.893 642.792 229.664 642.979 229.394C643.165 229.123 643.258 228.81 643.258 228.454C643.258 228.099 643.194 227.811 643.067 227.591C642.949 227.371 642.813 227.168 642.661 226.981C642.509 226.795 642.369 226.596 642.242 226.385C642.124 226.173 642.064 225.894 642.064 225.547C642.064 225.361 642.098 225.174 642.166 224.988C642.234 224.794 642.335 224.616 642.471 224.455C642.615 224.294 642.792 224.163 643.004 224.062C643.224 223.96 643.482 223.909 643.778 223.909C644.075 223.909 644.358 223.973 644.629 224.1C644.908 224.218 645.149 224.404 645.353 224.658C645.564 224.904 645.729 225.217 645.848 225.598C645.975 225.979 646.038 226.427 646.038 226.943C646.038 227.646 645.907 228.323 645.645 228.975C645.391 229.618 645.006 230.189 644.489 230.688C643.981 231.188 643.342 231.586 642.572 231.882C641.811 232.178 640.922 232.326 639.906 232.326V230.587ZM663.481 241.822C662.982 241.949 662.466 242.038 661.933 242.089C661.399 242.148 660.858 242.178 660.308 242.178C658.708 242.178 657.515 241.818 656.728 241.099C655.94 240.371 655.547 239.258 655.547 237.76V231.107H651.979V229.254H655.547V225.75L657.756 225.179V229.254H663.481V231.107H657.756V237.582C657.756 238.496 657.997 239.182 658.479 239.639C658.97 240.087 659.69 240.312 660.638 240.312C661.044 240.312 661.488 240.282 661.971 240.223C662.453 240.155 662.957 240.053 663.481 239.918V241.822ZM693.112 226.118C691.953 225.873 690.954 225.75 690.116 225.75C688.127 225.75 687.133 226.791 687.133 228.873V231.107H692.719V232.948H687.133V242H684.886V232.948H680.785V231.107H684.886V229C684.886 225.606 686.655 223.909 690.192 223.909C691.073 223.909 692.046 224.011 693.112 224.214V226.118ZM707.191 235.525C707.191 236.516 707.052 237.425 706.772 238.255C706.493 239.076 706.091 239.783 705.566 240.375C705.042 240.959 704.403 241.416 703.649 241.746C702.896 242.068 702.041 242.229 701.085 242.229C700.171 242.229 699.35 242.089 698.622 241.81C697.903 241.522 697.289 241.103 696.781 240.553C696.282 240.003 695.897 239.321 695.626 238.509C695.364 237.696 695.232 236.761 695.232 235.703C695.232 234.713 695.372 233.812 695.651 232.999C695.931 232.178 696.333 231.476 696.857 230.892C697.382 230.299 698.021 229.842 698.774 229.521C699.528 229.19 700.382 229.025 701.339 229.025C702.253 229.025 703.07 229.169 703.789 229.457C704.517 229.736 705.131 230.151 705.63 230.701C706.138 231.243 706.523 231.92 706.785 232.732C707.056 233.545 707.191 234.476 707.191 235.525ZM704.932 235.627C704.932 234.84 704.843 234.154 704.665 233.57C704.496 232.978 704.25 232.487 703.929 232.098C703.607 231.7 703.214 231.404 702.748 231.209C702.291 231.006 701.779 230.904 701.212 230.904C700.552 230.904 699.985 231.035 699.511 231.298C699.045 231.552 698.66 231.895 698.355 232.326C698.059 232.758 697.839 233.261 697.695 233.837C697.56 234.404 697.492 235.001 697.492 235.627C697.492 236.414 697.577 237.104 697.746 237.696C697.924 238.289 698.174 238.784 698.495 239.182C698.817 239.571 699.206 239.867 699.663 240.07C700.12 240.265 700.636 240.362 701.212 240.362C701.872 240.362 702.435 240.235 702.9 239.981C703.374 239.719 703.759 239.372 704.056 238.94C704.36 238.509 704.58 238.009 704.716 237.442C704.86 236.867 704.932 236.262 704.932 235.627ZM710.911 229.254H712.93L712.993 231.603C713.746 230.697 714.487 230.041 715.215 229.635C715.951 229.229 716.692 229.025 717.437 229.025C718.757 229.025 719.756 229.453 720.433 230.308C721.118 231.162 721.436 232.432 721.385 234.116H719.15C719.176 232.999 719.011 232.191 718.655 231.691C718.308 231.184 717.796 230.93 717.119 230.93C716.823 230.93 716.522 230.985 716.218 231.095C715.922 231.196 715.613 231.366 715.291 231.603C714.978 231.831 714.644 232.127 714.288 232.491C713.933 232.855 713.552 233.295 713.146 233.812V242H710.911V229.254ZM733.775 242V232.847C733.775 232.449 733.758 232.123 733.725 231.869C733.699 231.615 733.653 231.416 733.585 231.272C733.526 231.12 733.445 231.014 733.344 230.955C733.251 230.896 733.132 230.866 732.988 230.866C732.819 230.866 732.662 230.917 732.519 231.019C732.375 231.12 732.218 231.285 732.049 231.514C731.888 231.742 731.706 232.047 731.503 232.428C731.308 232.8 731.076 233.261 730.805 233.812V242H728.786V233.088C728.786 232.622 728.769 232.246 728.735 231.958C728.71 231.67 728.663 231.446 728.596 231.285C728.536 231.124 728.456 231.014 728.354 230.955C728.253 230.896 728.13 230.866 727.986 230.866C727.834 230.866 727.69 230.909 727.555 230.993C727.419 231.078 727.267 231.23 727.098 231.45C726.937 231.67 726.755 231.971 726.552 232.352C726.349 232.732 726.107 233.219 725.828 233.812V242H723.797V229.254H725.485L725.587 231.679C725.807 231.196 726.019 230.786 726.222 230.447C726.433 230.109 726.649 229.838 726.869 229.635C727.089 229.423 727.322 229.271 727.567 229.178C727.821 229.076 728.101 229.025 728.405 229.025C729.091 229.025 729.611 229.25 729.967 229.698C730.322 230.147 730.5 230.841 730.5 231.78C730.703 231.34 730.902 230.951 731.097 230.612C731.291 230.265 731.499 229.978 731.719 229.749C731.947 229.512 732.197 229.334 732.468 229.216C732.739 229.089 733.052 229.025 733.407 229.025C735.007 229.025 735.807 230.257 735.807 232.72V242H733.775ZM761.464 242L761.413 240.286C760.719 240.972 760.012 241.467 759.293 241.771C758.582 242.076 757.833 242.229 757.046 242.229C756.318 242.229 755.696 242.135 755.18 241.949C754.663 241.763 754.236 241.509 753.897 241.188C753.567 240.857 753.322 240.472 753.161 240.032C753.009 239.592 752.933 239.114 752.933 238.598C752.933 237.32 753.407 236.321 754.354 235.602C755.311 234.874 756.72 234.51 758.582 234.51H761.223V233.393C761.223 232.639 760.981 232.038 760.499 231.59C760.017 231.133 759.28 230.904 758.29 230.904C757.571 230.904 756.86 230.985 756.157 231.146C755.463 231.306 754.744 231.535 753.999 231.831V229.838C754.278 229.736 754.587 229.639 754.926 229.546C755.273 229.444 755.637 229.355 756.018 229.279C756.398 229.203 756.796 229.144 757.211 229.102C757.626 229.051 758.045 229.025 758.468 229.025C759.238 229.025 759.932 229.11 760.55 229.279C761.168 229.449 761.688 229.707 762.111 230.054C762.543 230.401 762.873 230.837 763.102 231.361C763.33 231.886 763.444 232.504 763.444 233.215V242H761.464ZM761.223 236.198H758.417C757.867 236.198 757.393 236.253 756.995 236.363C756.597 236.473 756.271 236.63 756.018 236.833C755.764 237.036 755.573 237.282 755.446 237.569C755.328 237.849 755.269 238.166 755.269 238.521C755.269 238.767 755.307 239.004 755.383 239.232C755.459 239.452 755.582 239.651 755.751 239.829C755.92 239.998 756.14 240.134 756.411 240.235C756.682 240.337 757.012 240.388 757.401 240.388C757.909 240.388 758.489 240.235 759.141 239.931C759.801 239.618 760.495 239.127 761.223 238.458V236.198ZM792.136 241.822C791.636 241.949 791.12 242.038 790.587 242.089C790.054 242.148 789.512 242.178 788.962 242.178C787.362 242.178 786.169 241.818 785.382 241.099C784.595 240.371 784.201 239.258 784.201 237.76V231.107H780.634V229.254H784.201V225.75L786.41 225.179V229.254H792.136V231.107H786.41V237.582C786.41 238.496 786.651 239.182 787.134 239.639C787.625 240.087 788.344 240.312 789.292 240.312C789.698 240.312 790.143 240.282 790.625 240.223C791.107 240.155 791.611 240.053 792.136 239.918V241.822ZM796.681 229.254H798.699L798.763 231.603C799.516 230.697 800.257 230.041 800.984 229.635C801.721 229.229 802.461 229.025 803.206 229.025C804.526 229.025 805.525 229.453 806.202 230.308C806.888 231.162 807.205 232.432 807.154 234.116H804.92C804.945 232.999 804.78 232.191 804.425 231.691C804.078 231.184 803.566 230.93 802.889 230.93C802.592 230.93 802.292 230.985 801.987 231.095C801.691 231.196 801.382 231.366 801.061 231.603C800.747 231.831 800.413 232.127 800.058 232.491C799.702 232.855 799.321 233.295 798.915 233.812V242H796.681V229.254ZM814.797 231.082H811.026V229.254H817.031V240.159H820.827V242H810.607V240.159H814.797V231.082ZM815.571 223.909C815.817 223.909 816.045 223.956 816.257 224.049C816.468 224.133 816.65 224.256 816.803 224.417C816.964 224.578 817.086 224.764 817.171 224.976C817.264 225.179 817.311 225.403 817.311 225.648C817.311 225.885 817.264 226.11 817.171 226.321C817.086 226.533 816.964 226.719 816.803 226.88C816.65 227.041 816.468 227.168 816.257 227.261C816.045 227.345 815.817 227.388 815.571 227.388C815.326 227.388 815.097 227.345 814.886 227.261C814.674 227.168 814.488 227.041 814.327 226.88C814.175 226.719 814.052 226.533 813.959 226.321C813.874 226.11 813.832 225.885 813.832 225.648C813.832 225.403 813.874 225.179 813.959 224.976C814.052 224.764 814.175 224.578 814.327 224.417C814.488 224.256 814.674 224.133 814.886 224.049C815.097 223.956 815.326 223.909 815.571 223.909ZM835.643 235.398C835.643 236.533 835.482 237.523 835.16 238.369C834.847 239.215 834.411 239.918 833.853 240.477C833.294 241.035 832.634 241.454 831.872 241.733C831.11 242.013 830.285 242.152 829.396 242.152C828.99 242.152 828.584 242.131 828.178 242.089C827.78 242.047 827.374 241.975 826.959 241.873V247.205H824.75V229.254H826.718L826.857 231.387C827.492 230.515 828.169 229.906 828.889 229.559C829.608 229.203 830.387 229.025 831.225 229.025C831.952 229.025 832.591 229.178 833.142 229.482C833.692 229.787 834.153 230.219 834.525 230.777C834.898 231.327 835.177 231.996 835.363 232.783C835.549 233.562 835.643 234.434 835.643 235.398ZM833.383 235.5C833.383 234.831 833.332 234.218 833.23 233.659C833.137 233.101 832.985 232.622 832.773 232.225C832.562 231.827 832.291 231.518 831.961 231.298C831.631 231.069 831.237 230.955 830.78 230.955C830.501 230.955 830.217 231.002 829.93 231.095C829.642 231.179 829.341 231.327 829.028 231.539C828.724 231.742 828.398 232.017 828.051 232.364C827.712 232.703 827.348 233.126 826.959 233.634V239.816C827.365 239.986 827.793 240.121 828.241 240.223C828.69 240.316 829.13 240.362 829.562 240.362C830.755 240.362 831.69 239.96 832.367 239.156C833.044 238.344 833.383 237.125 833.383 235.5ZM843.387 225.877H839.616V224.062H845.621V240.159H849.417V242H839.197V240.159H843.387V225.877ZM864.105 234.954C864.105 235.267 864.101 235.53 864.093 235.741C864.084 235.953 864.072 236.152 864.055 236.338H855.104C855.104 237.641 855.468 238.644 856.196 239.347C856.924 240.041 857.974 240.388 859.345 240.388C859.717 240.388 860.09 240.375 860.462 240.35C860.834 240.316 861.194 240.273 861.541 240.223C861.888 240.172 862.218 240.117 862.531 240.058C862.853 239.99 863.149 239.918 863.42 239.842V241.657C862.819 241.826 862.138 241.962 861.376 242.063C860.623 242.174 859.84 242.229 859.027 242.229C857.936 242.229 856.996 242.08 856.209 241.784C855.422 241.488 854.774 241.061 854.267 240.502C853.767 239.935 853.395 239.245 853.149 238.433C852.912 237.612 852.794 236.685 852.794 235.652C852.794 234.755 852.921 233.909 853.175 233.113C853.437 232.309 853.814 231.607 854.305 231.006C854.804 230.396 855.413 229.914 856.133 229.559C856.852 229.203 857.669 229.025 858.583 229.025C859.472 229.025 860.259 229.165 860.944 229.444C861.63 229.724 862.205 230.121 862.671 230.638C863.145 231.146 863.5 231.768 863.737 232.504C863.983 233.232 864.105 234.049 864.105 234.954ZM861.808 234.637C861.833 234.07 861.778 233.553 861.643 233.088C861.507 232.614 861.296 232.208 861.008 231.869C860.729 231.531 860.377 231.268 859.954 231.082C859.531 230.887 859.04 230.79 858.481 230.79C857.999 230.79 857.559 230.883 857.161 231.069C856.763 231.256 856.421 231.518 856.133 231.856C855.845 232.195 855.612 232.601 855.435 233.075C855.257 233.549 855.147 234.07 855.104 234.637H861.808ZM877.905 241.822C877.406 241.949 876.89 242.038 876.356 242.089C875.823 242.148 875.282 242.178 874.731 242.178C873.132 242.178 871.938 241.818 871.151 241.099C870.364 240.371 869.971 239.258 869.971 237.76V231.107H866.403V229.254H869.971V225.75L872.18 225.179V229.254H877.905V231.107H872.18V237.582C872.18 238.496 872.421 239.182 872.903 239.639C873.394 240.087 874.114 240.312 875.062 240.312C875.468 240.312 875.912 240.282 876.395 240.223C876.877 240.155 877.381 240.053 877.905 239.918V241.822Z" fill="black"/>
<path d="M957.934 241.53C957.358 241.75 956.766 241.911 956.156 242.013C955.555 242.123 954.933 242.178 954.29 242.178C952.276 242.178 950.723 241.632 949.631 240.54C948.548 239.448 948.006 237.853 948.006 235.754C948.006 234.747 948.162 233.833 948.476 233.012C948.789 232.191 949.229 231.488 949.796 230.904C950.363 230.32 951.04 229.872 951.827 229.559C952.614 229.237 953.482 229.076 954.43 229.076C955.09 229.076 955.708 229.123 956.283 229.216C956.859 229.309 957.409 229.461 957.934 229.673V231.78C957.383 231.493 956.821 231.285 956.245 231.158C955.678 231.023 955.09 230.955 954.48 230.955C953.913 230.955 953.376 231.065 952.868 231.285C952.369 231.497 951.929 231.806 951.548 232.212C951.167 232.618 950.867 233.113 950.646 233.697C950.426 234.281 950.316 234.941 950.316 235.678C950.316 237.218 950.689 238.373 951.434 239.144C952.187 239.905 953.228 240.286 954.557 240.286C955.158 240.286 955.737 240.218 956.296 240.083C956.863 239.948 957.409 239.744 957.934 239.474V241.53ZM973.422 235.525C973.422 236.516 973.282 237.425 973.003 238.255C972.724 239.076 972.322 239.783 971.797 240.375C971.272 240.959 970.633 241.416 969.88 241.746C969.127 242.068 968.272 242.229 967.315 242.229C966.401 242.229 965.58 242.089 964.853 241.81C964.133 241.522 963.52 241.103 963.012 240.553C962.512 240.003 962.127 239.321 961.856 238.509C961.594 237.696 961.463 236.761 961.463 235.703C961.463 234.713 961.603 233.812 961.882 232.999C962.161 232.178 962.563 231.476 963.088 230.892C963.613 230.299 964.252 229.842 965.005 229.521C965.758 229.19 966.613 229.025 967.569 229.025C968.483 229.025 969.3 229.169 970.02 229.457C970.747 229.736 971.361 230.151 971.86 230.701C972.368 231.243 972.753 231.92 973.016 232.732C973.286 233.545 973.422 234.476 973.422 235.525ZM971.162 235.627C971.162 234.84 971.073 234.154 970.896 233.57C970.726 232.978 970.481 232.487 970.159 232.098C969.838 231.7 969.444 231.404 968.979 231.209C968.521 231.006 968.009 230.904 967.442 230.904C966.782 230.904 966.215 231.035 965.741 231.298C965.276 231.552 964.891 231.895 964.586 232.326C964.29 232.758 964.07 233.261 963.926 233.837C963.79 234.404 963.723 235.001 963.723 235.627C963.723 236.414 963.807 237.104 963.977 237.696C964.154 238.289 964.404 238.784 964.726 239.182C965.047 239.571 965.437 239.867 965.894 240.07C966.351 240.265 966.867 240.362 967.442 240.362C968.103 240.362 968.665 240.235 969.131 239.981C969.605 239.719 969.99 239.372 970.286 238.94C970.591 238.509 970.811 238.009 970.946 237.442C971.09 236.867 971.162 236.262 971.162 235.627ZM976.621 229.254H978.589L978.678 231.311C979.05 230.87 979.41 230.507 979.757 230.219C980.104 229.923 980.442 229.686 980.772 229.508C981.111 229.33 981.454 229.207 981.801 229.14C982.148 229.063 982.507 229.025 982.88 229.025C984.192 229.025 985.182 229.415 985.851 230.193C986.528 230.964 986.866 232.127 986.866 233.685V242H984.657V233.862C984.657 232.864 984.471 232.127 984.099 231.653C983.726 231.171 983.172 230.93 982.436 230.93C982.165 230.93 981.898 230.972 981.636 231.057C981.382 231.133 981.115 231.272 980.836 231.476C980.557 231.67 980.252 231.937 979.922 232.275C979.6 232.614 979.236 233.037 978.83 233.545V242H976.621V229.254ZM1001.19 241.822C1000.69 241.949 1000.17 242.038 999.638 242.089C999.104 242.148 998.563 242.178 998.013 242.178C996.413 242.178 995.22 241.818 994.433 241.099C993.646 240.371 993.252 239.258 993.252 237.76V231.107H989.685V229.254H993.252V225.75L995.461 225.179V229.254H1001.19V231.107H995.461V237.582C995.461 238.496 995.702 239.182 996.185 239.639C996.675 240.087 997.395 240.312 998.343 240.312C998.749 240.312 999.193 240.282 999.676 240.223C1000.16 240.155 1000.66 240.053 1001.19 239.918V241.822ZM1009.55 231.082H1005.78V229.254H1011.79V240.159H1015.58V242H1005.36V240.159H1009.55V231.082ZM1010.33 223.909C1010.57 223.909 1010.8 223.956 1011.01 224.049C1011.22 224.133 1011.41 224.256 1011.56 224.417C1011.72 224.578 1011.84 224.764 1011.93 224.976C1012.02 225.179 1012.07 225.403 1012.07 225.648C1012.07 225.885 1012.02 226.11 1011.93 226.321C1011.84 226.533 1011.72 226.719 1011.56 226.88C1011.41 227.041 1011.22 227.168 1011.01 227.261C1010.8 227.345 1010.57 227.388 1010.33 227.388C1010.08 227.388 1009.85 227.345 1009.64 227.261C1009.43 227.168 1009.24 227.041 1009.08 226.88C1008.93 226.719 1008.81 226.533 1008.71 226.321C1008.63 226.11 1008.59 225.885 1008.59 225.648C1008.59 225.403 1008.63 225.179 1008.71 224.976C1008.81 224.764 1008.93 224.578 1009.08 224.417C1009.24 224.256 1009.43 224.133 1009.64 224.049C1009.85 223.956 1010.08 223.909 1010.33 223.909ZM1019.51 229.254H1021.47L1021.56 231.311C1021.93 230.87 1022.29 230.507 1022.64 230.219C1022.99 229.923 1023.33 229.686 1023.66 229.508C1024 229.33 1024.34 229.207 1024.69 229.14C1025.03 229.063 1025.39 229.025 1025.76 229.025C1027.08 229.025 1028.07 229.415 1028.74 230.193C1029.41 230.964 1029.75 232.127 1029.75 233.685V242H1027.54V233.862C1027.54 232.864 1027.36 232.127 1026.98 231.653C1026.61 231.171 1026.06 230.93 1025.32 230.93C1025.05 230.93 1024.78 230.972 1024.52 231.057C1024.27 231.133 1024 231.272 1023.72 231.476C1023.44 231.67 1023.14 231.937 1022.81 232.275C1022.49 232.614 1022.12 233.037 1021.71 233.545V242H1019.51V229.254ZM1044.05 242H1042.07L1041.99 239.943C1041.61 240.383 1041.24 240.752 1040.9 241.048C1040.56 241.336 1040.22 241.568 1039.88 241.746C1039.54 241.924 1039.2 242.047 1038.85 242.114C1038.51 242.19 1038.16 242.229 1037.77 242.229C1036.46 242.229 1035.47 241.843 1034.8 241.073C1034.14 240.303 1033.8 239.139 1033.8 237.582V229.254H1036.01V237.404C1036.01 239.359 1036.75 240.337 1038.22 240.337C1038.49 240.337 1038.75 240.299 1039.01 240.223C1039.27 240.138 1039.54 239.998 1039.82 239.804C1040.11 239.601 1040.41 239.33 1040.73 238.991C1041.06 238.653 1041.43 238.225 1041.84 237.709V229.254H1044.05V242ZM1058.86 234.954C1058.86 235.267 1058.86 235.53 1058.85 235.741C1058.84 235.953 1058.83 236.152 1058.81 236.338H1049.86C1049.86 237.641 1050.22 238.644 1050.95 239.347C1051.68 240.041 1052.73 240.388 1054.1 240.388C1054.47 240.388 1054.85 240.375 1055.22 240.35C1055.59 240.316 1055.95 240.273 1056.3 240.223C1056.64 240.172 1056.97 240.117 1057.29 240.058C1057.61 239.99 1057.9 239.918 1058.18 239.842V241.657C1057.57 241.826 1056.89 241.962 1056.13 242.063C1055.38 242.174 1054.6 242.229 1053.78 242.229C1052.69 242.229 1051.75 242.08 1050.96 241.784C1050.18 241.488 1049.53 241.061 1049.02 240.502C1048.52 239.935 1048.15 239.245 1047.91 238.433C1047.67 237.612 1047.55 236.685 1047.55 235.652C1047.55 234.755 1047.68 233.909 1047.93 233.113C1048.19 232.309 1048.57 231.607 1049.06 231.006C1049.56 230.396 1050.17 229.914 1050.89 229.559C1051.61 229.203 1052.42 229.025 1053.34 229.025C1054.23 229.025 1055.01 229.165 1055.7 229.444C1056.39 229.724 1056.96 230.121 1057.43 230.638C1057.9 231.146 1058.26 231.768 1058.49 232.504C1058.74 233.232 1058.86 234.049 1058.86 234.954ZM1056.56 234.637C1056.59 234.07 1056.53 233.553 1056.4 233.088C1056.26 232.614 1056.05 232.208 1055.76 231.869C1055.48 231.531 1055.13 231.268 1054.71 231.082C1054.29 230.887 1053.8 230.79 1053.24 230.79C1052.75 230.79 1052.31 230.883 1051.92 231.069C1051.52 231.256 1051.18 231.518 1050.89 231.856C1050.6 232.195 1050.37 232.601 1050.19 233.075C1050.01 233.549 1049.9 234.07 1049.86 234.637H1056.56Z" fill="black"/>
<path d="M584.207 235.707C584.598 235.317 584.598 234.683 584.207 234.293L577.843 227.929C577.453 227.538 576.819 227.538 576.429 227.929C576.038 228.319 576.038 228.953 576.429 229.343L582.086 235L576.429 240.657C576.038 241.047 576.038 241.681 576.429 242.071C576.819 242.462 577.453 242.462 577.843 242.071L584.207 235.707ZM546 236H583.5V234H546V236Z" fill="black"/>
<path d="M932.207 235.707C932.598 235.317 932.598 234.683 932.207 234.293L925.843 227.929C925.453 227.538 924.819 227.538 924.429 227.929C924.038 228.319 924.038 228.953 924.429 229.343L930.086 235L924.429 240.657C924.038 241.047 924.038 241.681 924.429 242.071C924.819 242.462 925.453 242.462 925.843 242.071L932.207 235.707ZM894 236H931.5V234H894V236Z" fill="black"/>
</g>
<defs>
<clipPath id="clip0_6184_2298">
<rect width="1083" height="346" fill="white"/>
</clipPath>
</defs>
</svg>
