<svg width="609" height="187" viewBox="0 0 609 187" fill="none" xmlns="http://www.w3.org/2000/svg">
<g clip-path="url(#clip0_6288_3033)">
<path d="M55 88L55 163" stroke="#DDDDDD" stroke-width="2" stroke-linecap="round" stroke-dasharray="4 4"/>
<path d="M413 88L413 163" stroke="#DDDDDD" stroke-width="2" stroke-linecap="round" stroke-dasharray="4 4"/>
<path d="M341 44L341 163" stroke="#DDDDDD" stroke-width="2" stroke-linecap="round" stroke-dasharray="4 4"/>
<path d="M556 44L556 163" stroke="#DDDDDD" stroke-width="2" stroke-linecap="round" stroke-dasharray="4 4"/>
<path d="M-0.707107 108.293C-1.09763 108.683 -1.09763 109.317 -0.707107 109.707L5.65685 116.071C6.04738 116.462 6.68054 116.462 7.07107 116.071C7.46159 115.681 7.46159 115.047 7.07107 114.657L1.41421 109L7.07107 103.343C7.46159 102.953 7.46159 102.319 7.07107 101.929C6.68054 101.538 6.04738 101.538 5.65685 101.929L-0.707107 108.293ZM609.707 109.707C610.098 109.317 610.098 108.683 609.707 108.293L603.343 101.929C602.953 101.538 602.319 101.538 601.929 101.929C601.538 102.319 601.538 102.953 601.929 103.343L607.586 109L601.929 114.657C601.538 115.047 601.538 115.681 601.929 116.071C602.319 116.462 602.953 116.462 603.343 116.071L609.707 109.707ZM0 110H609V108H0V110Z" fill="#999999"/>
<path d="M59.1621 129H50.3428V127.26H53.9521V117.012L50.5898 118.838L49.9023 117.248L54.3711 114.896H56.0254V127.26H59.1621V129Z" fill="#999999"/>
<path d="M130.78 129H121.531V127.324L125.162 123.715C125.757 123.128 126.24 122.619 126.612 122.189C126.985 121.76 127.275 121.369 127.482 121.019C127.69 120.66 127.83 120.324 127.901 120.009C127.973 119.694 128.009 119.354 128.009 118.988C128.009 118.645 127.962 118.319 127.869 118.011C127.776 117.696 127.633 117.42 127.439 117.184C127.246 116.947 126.995 116.761 126.688 116.625C126.38 116.489 126.011 116.421 125.581 116.421C124.987 116.421 124.446 116.553 123.959 116.818C123.472 117.083 123.024 117.427 122.616 117.85L121.585 116.614C122.115 116.056 122.724 115.608 123.411 115.271C124.106 114.935 124.911 114.767 125.828 114.767C126.451 114.767 127.017 114.86 127.525 115.046C128.041 115.232 128.485 115.501 128.857 115.852C129.23 116.202 129.516 116.632 129.717 117.141C129.924 117.649 130.028 118.222 130.028 118.859C130.028 119.396 129.957 119.894 129.813 120.353C129.67 120.811 129.452 121.269 129.158 121.728C128.872 122.179 128.507 122.648 128.062 123.135C127.626 123.622 127.106 124.155 126.505 124.735L123.959 127.217H130.78V129Z" fill="#999999"/>
<path d="M202.012 124.735C202.012 125.351 201.886 125.931 201.636 126.476C201.385 127.013 201.009 127.485 200.508 127.894C200.007 128.295 199.376 128.613 198.617 128.85C197.858 129.079 196.974 129.193 195.964 129.193C195.405 129.193 194.904 129.175 194.46 129.14C194.016 129.104 193.601 129.057 193.214 129V127.324C193.658 127.403 194.127 127.464 194.621 127.507C195.115 127.55 195.62 127.571 196.136 127.571C196.838 127.571 197.436 127.51 197.93 127.389C198.431 127.26 198.839 127.077 199.154 126.841C199.469 126.604 199.699 126.318 199.842 125.981C199.985 125.645 200.057 125.265 200.057 124.843C200.057 124.456 199.971 124.119 199.799 123.833C199.627 123.547 199.383 123.307 199.068 123.113C198.76 122.92 198.388 122.777 197.951 122.684C197.521 122.583 197.049 122.533 196.533 122.533H194.933V120.997H196.555C196.977 120.997 197.36 120.943 197.704 120.836C198.055 120.721 198.352 120.56 198.596 120.353C198.846 120.145 199.036 119.891 199.165 119.59C199.301 119.282 199.369 118.935 199.369 118.548C199.369 117.796 199.14 117.248 198.682 116.904C198.223 116.561 197.55 116.389 196.662 116.389C196.189 116.389 195.702 116.435 195.201 116.528C194.7 116.621 194.163 116.761 193.59 116.947V115.314C193.833 115.229 194.091 115.153 194.363 115.089C194.643 115.017 194.918 114.96 195.19 114.917C195.47 114.867 195.745 114.831 196.018 114.81C196.29 114.781 196.551 114.767 196.802 114.767C197.547 114.767 198.202 114.849 198.768 115.014C199.333 115.171 199.806 115.4 200.186 115.701C200.565 116.002 200.852 116.367 201.045 116.797C201.238 117.227 201.335 117.71 201.335 118.247C201.335 119.049 201.127 119.722 200.712 120.267C200.304 120.811 199.742 121.244 199.025 121.566C199.391 121.624 199.749 121.738 200.1 121.91C200.458 122.082 200.776 122.304 201.056 122.576C201.342 122.841 201.571 123.156 201.743 123.521C201.922 123.887 202.012 124.291 202.012 124.735Z" fill="#999999"/>
<path d="M274.979 125.896H272.583V129H270.671V125.896H263.914V124.252L269.897 114.96H272.583V124.252H274.979V125.896ZM270.671 116.765L265.783 124.252H270.671V116.765Z" fill="#999999"/>
<path d="M345.926 124.51C345.926 125.204 345.775 125.838 345.475 126.411C345.174 126.984 344.758 127.478 344.229 127.894C343.706 128.302 343.086 128.62 342.37 128.85C341.654 129.079 340.881 129.193 340.05 129.193C339.842 129.193 339.617 129.186 339.373 129.172C339.137 129.165 338.9 129.15 338.664 129.129C338.428 129.115 338.195 129.097 337.966 129.075C337.744 129.054 337.543 129.029 337.364 129V127.303C337.751 127.396 338.191 127.464 338.686 127.507C339.187 127.55 339.692 127.571 340.2 127.571C340.773 127.571 341.289 127.503 341.747 127.367C342.205 127.231 342.596 127.038 342.918 126.787C343.24 126.529 343.487 126.221 343.659 125.863C343.831 125.498 343.917 125.09 343.917 124.639C343.917 123.765 343.602 123.131 342.972 122.737C342.349 122.336 341.45 122.136 340.275 122.136H337.611V114.96H345.174V116.593H339.373V120.535H340.598C341.271 120.535 341.926 120.596 342.563 120.718C343.201 120.84 343.767 121.054 344.261 121.362C344.762 121.663 345.163 122.071 345.464 122.587C345.772 123.095 345.926 123.736 345.926 124.51Z" fill="#999999"/>
<path d="M417.952 124.553C417.952 125.197 417.834 125.802 417.598 126.368C417.368 126.934 417.039 127.428 416.609 127.851C416.18 128.266 415.66 128.595 415.052 128.839C414.45 129.075 413.781 129.193 413.043 129.193C412.27 129.193 411.586 129.072 410.991 128.828C410.397 128.577 409.899 128.198 409.498 127.689C409.097 127.174 408.793 126.526 408.585 125.745C408.377 124.965 408.273 124.041 408.273 122.974C408.273 122.257 408.32 121.563 408.413 120.89C408.506 120.216 408.66 119.583 408.875 118.988C409.09 118.394 409.376 117.85 409.734 117.355C410.092 116.861 410.536 116.439 411.066 116.088C411.604 115.73 412.234 115.454 412.957 115.261C413.68 115.06 414.518 114.96 415.471 114.96H416.856V116.593H415.353C414.515 116.593 413.788 116.693 413.172 116.894C412.556 117.094 412.04 117.377 411.625 117.742C411.21 118.107 410.891 118.548 410.669 119.063C410.447 119.579 410.307 120.156 410.25 120.793L410.207 121.233C410.658 120.968 411.177 120.757 411.765 120.6C412.359 120.435 413 120.353 413.688 120.353C414.396 120.353 415.016 120.456 415.546 120.664C416.083 120.872 416.527 121.162 416.878 121.534C417.236 121.899 417.505 122.34 417.684 122.855C417.863 123.371 417.952 123.937 417.952 124.553ZM415.997 124.671C415.997 124.241 415.943 123.854 415.836 123.511C415.736 123.16 415.575 122.866 415.353 122.63C415.131 122.386 414.848 122.2 414.504 122.071C414.167 121.935 413.763 121.867 413.29 121.867C413.018 121.867 412.742 121.892 412.463 121.942C412.184 121.993 411.908 122.064 411.636 122.157C411.371 122.243 411.117 122.343 410.873 122.458C410.63 122.573 410.408 122.694 410.207 122.823C410.207 123.747 410.271 124.521 410.4 125.144C410.529 125.759 410.719 126.254 410.97 126.626C411.228 126.998 411.543 127.263 411.915 127.421C412.287 127.578 412.717 127.657 413.204 127.657C413.612 127.657 413.985 127.593 414.321 127.464C414.665 127.328 414.959 127.131 415.202 126.873C415.453 126.615 415.646 126.304 415.782 125.938C415.925 125.566 415.997 125.144 415.997 124.671Z" fill="#999999"/>
<path d="M489.205 116.7L483.318 129H481.181L487.293 116.7H479.709V114.96H489.205V116.7Z" fill="#999999"/>
<path d="M561.28 125.477C561.28 126.071 561.159 126.601 560.915 127.066C560.672 127.525 560.331 127.911 559.895 128.227C559.458 128.542 558.942 128.782 558.348 128.946C557.753 129.111 557.109 129.193 556.414 129.193C555.648 129.193 554.971 129.107 554.384 128.936C553.804 128.764 553.317 128.524 552.923 128.216C552.529 127.908 552.232 127.543 552.031 127.12C551.831 126.698 551.73 126.232 551.73 125.724C551.73 124.864 551.97 124.123 552.45 123.5C552.93 122.877 553.671 122.311 554.674 121.803C553.757 121.337 553.088 120.822 552.665 120.256C552.243 119.683 552.031 119.028 552.031 118.29C552.031 117.839 552.124 117.402 552.311 116.979C552.497 116.557 552.776 116.181 553.148 115.852C553.528 115.522 554.001 115.261 554.566 115.067C555.132 114.867 555.798 114.767 556.564 114.767C557.288 114.767 557.922 114.845 558.466 115.003C559.017 115.153 559.479 115.372 559.852 115.658C560.224 115.945 560.503 116.292 560.689 116.7C560.876 117.108 560.969 117.563 560.969 118.064C560.969 118.881 560.74 119.576 560.281 120.148C559.83 120.721 559.186 121.223 558.348 121.652C558.763 121.86 559.15 122.089 559.508 122.34C559.866 122.59 560.177 122.87 560.442 123.178C560.707 123.486 560.911 123.829 561.055 124.209C561.205 124.589 561.28 125.011 561.28 125.477ZM559.057 118.215C559.057 117.577 558.831 117.105 558.38 116.797C557.936 116.482 557.309 116.324 556.5 116.324C555.698 116.324 555.071 116.478 554.62 116.786C554.176 117.094 553.954 117.556 553.954 118.172C553.954 118.451 554.008 118.709 554.115 118.945C554.223 119.182 554.387 119.404 554.609 119.611C554.839 119.819 555.121 120.023 555.458 120.224C555.795 120.424 556.196 120.628 556.661 120.836C557.47 120.456 558.072 120.062 558.466 119.654C558.86 119.239 559.057 118.759 559.057 118.215ZM559.25 125.616C559.25 125.351 559.207 125.093 559.121 124.843C559.035 124.592 558.881 124.345 558.659 124.102C558.437 123.858 558.14 123.615 557.768 123.371C557.395 123.128 556.923 122.877 556.35 122.619C555.863 122.855 555.451 123.092 555.114 123.328C554.785 123.557 554.516 123.794 554.309 124.037C554.108 124.273 553.965 124.521 553.879 124.778C553.793 125.036 553.75 125.308 553.75 125.595C553.75 125.917 553.818 126.203 553.954 126.454C554.097 126.698 554.291 126.905 554.534 127.077C554.778 127.249 555.068 127.378 555.404 127.464C555.741 127.55 556.106 127.593 556.5 127.593C556.88 127.593 557.238 127.553 557.574 127.475C557.911 127.396 558.201 127.278 558.444 127.12C558.695 126.955 558.892 126.751 559.035 126.508C559.178 126.257 559.25 125.96 559.25 125.616Z" fill="#999999"/>
<line y1="-1.5" x2="216.508" y2="-1.5" transform="matrix(1 0 0.000873107 1 53.9984 79.9712)" stroke="#666666" stroke-width="3"/>
<path d="M54.5946 73V84" stroke="#666666" stroke-width="3" stroke-linecap="round"/>
<path d="M269.004 73V84" stroke="#666666" stroke-width="3" stroke-linecap="round"/>
<line x1="53.9979" y1="172.277" x2="342.002" y2="172.277" stroke="#FF5500" stroke-width="3"/>
<path d="M54.7938 167V178" stroke="#FF5500" stroke-width="3" stroke-linecap="round"/>
<path d="M340.997 167V178" stroke="#FF5500" stroke-width="3" stroke-linecap="round"/>
<line y1="-1.5" x2="144.005" y2="-1.5" transform="matrix(1 0 -0.0039187 0.999992 412.998 173.97)" stroke="#FF5500" stroke-width="3"/>
<path d="M413.396 167V178" stroke="#FF5500" stroke-width="3" stroke-linecap="round"/>
<path d="M556.002 167V178" stroke="#FF5500" stroke-width="3" stroke-linecap="round"/>
<line y1="-1.5" x2="214.985" y2="-1.5" transform="matrix(1 0 0.00076007 1 126.017 44.9)" stroke="#666666" stroke-width="3"/>
<path d="M126.99 38V49" stroke="#666666" stroke-width="3" stroke-linecap="round"/>
<path d="M340.882 38V49" stroke="#666666" stroke-width="3" stroke-linecap="round"/>
<line y1="-1.5" x2="71.8634" y2="-1.5" transform="matrix(1 0 -0.0149673 0.999888 197.137 9.83044)" stroke="#666666" stroke-width="3"/>
<path d="M197 3V14" stroke="#666666" stroke-width="3" stroke-linecap="round"/>
<path d="M268.985 2V13" stroke="#666666" stroke-width="3" stroke-linecap="round"/>
<line y1="-1.5" x2="71.8678" y2="-1.5" transform="matrix(1 0 -0.0140404 0.999901 413.137 81.8304)" stroke="#666666" stroke-width="3"/>
<path d="M413 75V86" stroke="#666666" stroke-width="3" stroke-linecap="round"/>
<path d="M484.99 75V86" stroke="#666666" stroke-width="3" stroke-linecap="round"/>
<line y1="-1.5" x2="70.865" y2="-1.5" transform="matrix(1 0 -0.0138454 0.999904 485.135 44.8304)" stroke="#666666" stroke-width="3"/>
<path d="M485 38V49" stroke="#666666" stroke-width="3" stroke-linecap="round"/>
<path d="M555.986 38V49" stroke="#666666" stroke-width="3" stroke-linecap="round"/>
</g>
<defs>
<clipPath id="clip0_6288_3033">
<rect width="609" height="187" fill="white"/>
</clipPath>
</defs>
</svg>
