<svg width="1038" height="340" viewBox="0 0 1038 340" fill="none" xmlns="http://www.w3.org/2000/svg">
<rect width="1038" height="340" fill="white"/>
<path d="M891.5 103.486C891.492 102.795 890.926 102.242 890.236 102.25L878.986 102.379C878.296 102.387 877.743 102.953 877.751 103.643C877.759 104.333 878.325 104.886 879.015 104.879L889.014 104.764L889.129 114.764C889.137 115.454 889.703 116.007 890.393 115.999C891.083 115.991 891.636 115.425 891.629 114.735L891.5 103.486ZM889.356 102.626L792.106 202.126L793.894 203.874L891.144 104.374L889.356 102.626Z" fill="black"/>
<path d="M246.669 114.556C246.423 113.911 245.701 113.586 245.056 113.831L234.539 117.827C233.894 118.072 233.57 118.794 233.815 119.439C234.06 120.085 234.782 120.409 235.427 120.164L244.775 116.612L248.327 125.961C248.572 126.606 249.294 126.93 249.939 126.685C250.585 126.44 250.909 125.718 250.664 125.073L246.669 114.556ZM244.36 114.488L208.86 193.488L211.14 194.512L246.64 115.512L244.36 114.488Z" fill="black"/>
<path d="M265.581 114.556C265.827 113.911 266.549 113.586 267.194 113.831L277.711 117.827C278.356 118.072 278.68 118.794 278.435 119.439C278.19 120.085 277.468 120.409 276.823 120.164L267.475 116.612L263.923 125.961C263.678 126.606 262.956 126.93 262.311 126.685C261.665 126.44 261.341 125.718 261.586 125.073L265.581 114.556ZM267.89 114.488L303.39 193.488L301.11 194.512L265.61 115.512L267.89 114.488Z" fill="black"/>
<path d="M229.741 106.15C229.824 105.464 229.335 104.842 228.65 104.759L217.481 103.412C216.795 103.329 216.173 103.818 216.09 104.503C216.007 105.189 216.496 105.811 217.181 105.894L227.109 107.091L225.912 117.019C225.829 117.705 226.318 118.327 227.003 118.41C227.689 118.493 228.311 118.004 228.394 117.319L229.741 106.15ZM227.728 105.017L116.228 192.517L117.772 194.483L229.272 106.983L227.728 105.017Z" fill="black"/>
<circle cx="255" cy="81" r="23.75" fill="#FFF4EF" stroke="#FF5500" stroke-width="2.5"/>
<path d="M262.458 80.4346C262.458 81.8994 262.312 83.2373 262.019 84.4482C261.726 85.6494 261.281 86.6846 260.686 87.5537C260.09 88.4131 259.348 89.082 258.459 89.5605C257.58 90.0293 256.545 90.2637 255.354 90.2637C254.328 90.2637 253.396 90.0732 252.556 89.6924C251.716 89.3018 250.998 88.7061 250.402 87.9053C249.807 87.1045 249.348 86.084 249.025 84.8438C248.703 83.6035 248.542 82.1338 248.542 80.4346C248.542 78.9697 248.688 77.6318 248.981 76.4209C249.284 75.21 249.729 74.1748 250.314 73.3154C250.91 72.4463 251.652 71.7773 252.541 71.3086C253.43 70.8301 254.465 70.5908 255.646 70.5908C256.672 70.5908 257.604 70.7861 258.444 71.1768C259.284 71.5576 260.002 72.1533 260.598 72.9639C261.193 73.7646 261.652 74.7852 261.975 76.0254C262.297 77.2656 262.458 78.7354 262.458 80.4346ZM259.88 80.5225C259.88 80.1904 259.865 79.8633 259.836 79.541C259.816 79.209 259.792 78.8867 259.763 78.5742L251.662 84.5947C251.809 85.1025 251.994 85.5713 252.219 86.001C252.443 86.4307 252.712 86.8018 253.024 87.1143C253.347 87.417 253.708 87.6562 254.108 87.832C254.519 87.998 254.982 88.0811 255.5 88.0811C256.164 88.0811 256.765 87.9199 257.302 87.5977C257.849 87.2754 258.312 86.7969 258.693 86.1621C259.074 85.5273 259.367 84.7412 259.572 83.8037C259.777 82.8564 259.88 81.7627 259.88 80.5225ZM251.12 80.3467C251.12 80.6494 251.12 80.9521 251.12 81.2549C251.13 81.5576 251.149 81.8506 251.179 82.1338L259.279 76.1426C259.133 75.6445 258.947 75.1904 258.723 74.7803C258.498 74.3701 258.229 74.0186 257.917 73.7256C257.604 73.4229 257.248 73.1885 256.848 73.0225C256.447 72.8564 255.998 72.7734 255.5 72.7734C254.836 72.7734 254.23 72.9346 253.684 73.2568C253.146 73.5791 252.688 74.0625 252.307 74.707C251.926 75.3418 251.633 76.1328 251.428 77.0801C251.223 78.0176 251.12 79.1064 251.12 80.3467Z" fill="black"/>
<circle cx="117" cy="193" r="23.75" fill="white" stroke="black" stroke-width="2.5"/>
<path d="M124.019 202H111.406V199.715L116.357 194.793C117.168 193.992 117.827 193.299 118.335 192.713C118.843 192.127 119.238 191.595 119.521 191.116C119.805 190.628 119.995 190.169 120.093 189.739C120.19 189.31 120.239 188.846 120.239 188.348C120.239 187.879 120.176 187.435 120.049 187.015C119.922 186.585 119.727 186.209 119.463 185.887C119.199 185.564 118.857 185.311 118.438 185.125C118.018 184.939 117.515 184.847 116.929 184.847C116.118 184.847 115.381 185.027 114.717 185.389C114.053 185.75 113.442 186.219 112.886 186.795L111.479 185.11C112.202 184.349 113.032 183.738 113.97 183.279C114.917 182.82 116.016 182.591 117.266 182.591C118.115 182.591 118.887 182.718 119.58 182.972C120.283 183.226 120.889 183.592 121.396 184.07C121.904 184.549 122.295 185.135 122.568 185.828C122.852 186.521 122.993 187.303 122.993 188.172C122.993 188.904 122.896 189.583 122.7 190.208C122.505 190.833 122.207 191.458 121.807 192.083C121.416 192.698 120.918 193.338 120.312 194.002C119.717 194.666 119.009 195.394 118.188 196.185L114.717 199.568H124.019V202Z" fill="black"/>
<circle cx="209" cy="193" r="23.75" fill="white" stroke="black" stroke-width="2.5"/>
<path d="M215.652 196.185C215.652 197.024 215.481 197.815 215.14 198.558C214.798 199.29 214.285 199.935 213.602 200.491C212.918 201.038 212.059 201.473 211.023 201.795C209.988 202.107 208.782 202.264 207.405 202.264C206.644 202.264 205.96 202.239 205.354 202.19C204.749 202.142 204.183 202.078 203.655 202V199.715C204.261 199.822 204.9 199.905 205.574 199.964C206.248 200.022 206.937 200.052 207.64 200.052C208.597 200.052 209.412 199.969 210.086 199.803C210.77 199.627 211.326 199.378 211.756 199.056C212.186 198.733 212.498 198.343 212.693 197.884C212.889 197.425 212.986 196.907 212.986 196.331C212.986 195.804 212.869 195.345 212.635 194.954C212.4 194.563 212.068 194.236 211.639 193.973C211.219 193.709 210.711 193.514 210.115 193.387C209.529 193.25 208.885 193.182 208.182 193.182H205.999V191.087H208.211C208.787 191.087 209.31 191.014 209.778 190.867C210.257 190.711 210.662 190.491 210.994 190.208C211.336 189.925 211.595 189.578 211.771 189.168C211.956 188.748 212.049 188.274 212.049 187.747C212.049 186.722 211.736 185.975 211.111 185.506C210.486 185.037 209.568 184.803 208.357 184.803C207.713 184.803 207.049 184.866 206.365 184.993C205.682 185.12 204.949 185.311 204.168 185.564V183.338C204.5 183.221 204.852 183.118 205.223 183.03C205.604 182.933 205.979 182.854 206.351 182.796C206.731 182.728 207.107 182.679 207.479 182.649C207.85 182.61 208.206 182.591 208.548 182.591C209.563 182.591 210.457 182.703 211.229 182.928C212 183.143 212.645 183.455 213.162 183.865C213.68 184.275 214.07 184.773 214.334 185.359C214.598 185.945 214.729 186.604 214.729 187.337C214.729 188.431 214.446 189.349 213.88 190.091C213.323 190.833 212.557 191.424 211.58 191.863C212.078 191.941 212.566 192.098 213.045 192.332C213.533 192.566 213.968 192.869 214.349 193.24C214.739 193.602 215.052 194.031 215.286 194.529C215.53 195.027 215.652 195.579 215.652 196.185Z" fill="black"/>
<path d="M216.702 89.3447C216.892 88.6812 216.508 87.9889 215.845 87.7985L205.031 84.6957C204.367 84.5053 203.675 84.8889 203.485 85.5525C203.294 86.2161 203.678 86.9084 204.342 87.0988L213.954 89.8568L211.196 99.4689C211.005 100.133 211.389 100.825 212.053 101.015C212.716 101.206 213.408 100.822 213.599 100.158L216.702 89.3447ZM214.894 87.9066L25.3942 192.907L26.6058 195.093L216.106 90.0934L214.894 87.9066Z" fill="black"/>
<circle cx="25" cy="193" r="23.75" fill="white" stroke="black" stroke-width="2.5"/>
<path d="M31.8574 202H19.8311V199.627H24.7529V185.652L20.168 188.143L19.2305 185.975L25.3242 182.767H27.5801V199.627H31.8574V202Z" fill="black"/>
<circle cx="301" cy="193" r="23.75" fill="white" stroke="black" stroke-width="2.5"/>
<path d="M308.971 197.767H305.704V202H303.097V197.767H293.883V195.525L302.042 182.854H305.704V195.525H308.971V197.767ZM303.097 185.315L296.432 195.525H303.097V185.315Z" fill="black"/>
<path d="M281.758 106.144C281.679 105.458 282.171 104.838 282.856 104.758L294.032 103.467C294.718 103.387 295.338 103.879 295.417 104.565C295.497 105.251 295.005 105.871 294.319 105.95L284.385 107.098L285.533 117.032C285.613 117.718 285.121 118.338 284.435 118.417C283.749 118.497 283.129 118.005 283.05 117.319L281.758 106.144ZM283.777 105.02L394.777 193.02L393.223 194.98L282.223 106.98L283.777 105.02Z" fill="black"/>
<circle cx="25" cy="25" r="23.75" transform="matrix(-1 0 0 1 418 168)" fill="white" stroke="black" stroke-width="2.5"/>
<path d="M399.535 195.877C399.535 196.824 399.33 197.688 398.92 198.47C398.51 199.251 397.943 199.925 397.221 200.491C396.508 201.048 395.663 201.482 394.687 201.795C393.71 202.107 392.655 202.264 391.522 202.264C391.239 202.264 390.932 202.254 390.6 202.234C390.277 202.225 389.955 202.205 389.633 202.176C389.311 202.156 388.993 202.132 388.681 202.103C388.378 202.073 388.104 202.039 387.86 202V199.686C388.388 199.812 388.988 199.905 389.662 199.964C390.346 200.022 391.034 200.052 391.728 200.052C392.509 200.052 393.212 199.959 393.837 199.773C394.462 199.588 394.994 199.324 395.434 198.982C395.873 198.631 396.21 198.211 396.444 197.723C396.679 197.225 396.796 196.668 396.796 196.053C396.796 194.861 396.366 193.997 395.507 193.46C394.657 192.913 393.432 192.64 391.83 192.64H388.197V182.854H398.51V185.081H390.6V190.457H392.27C393.188 190.457 394.081 190.54 394.95 190.706C395.819 190.872 396.591 191.165 397.265 191.585C397.948 191.995 398.495 192.552 398.905 193.255C399.325 193.948 399.535 194.822 399.535 195.877Z" fill="black"/>
<path d="M293.798 88.8439C293.608 88.1802 293.992 87.4882 294.656 87.2982L305.472 84.2028C306.136 84.0129 306.828 84.3969 307.018 85.0606C307.207 85.7244 306.823 86.4164 306.16 86.6063L296.546 89.3578L299.297 98.9718C299.487 99.6355 299.103 100.328 298.439 100.518C297.776 100.707 297.084 100.323 296.894 99.6597L293.798 88.8439ZM295.607 87.407L486.607 193.407L485.393 195.593L294.393 89.593L295.607 87.407Z" fill="black"/>
<circle cx="25" cy="25" r="23.75" transform="matrix(-1 0 0 1 510 168)" fill="white" stroke="black" stroke-width="2.5"/>
<path d="M492.253 195.936C492.253 196.814 492.092 197.64 491.77 198.411C491.457 199.183 491.008 199.856 490.422 200.433C489.836 200.999 489.128 201.448 488.298 201.78C487.478 202.103 486.564 202.264 485.559 202.264C484.504 202.264 483.571 202.098 482.761 201.766C481.95 201.424 481.271 200.906 480.725 200.213C480.178 199.51 479.763 198.626 479.479 197.562C479.196 196.497 479.055 195.237 479.055 193.782C479.055 192.806 479.118 191.858 479.245 190.94C479.372 190.022 479.582 189.158 479.875 188.348C480.168 187.537 480.559 186.795 481.047 186.121C481.535 185.447 482.141 184.871 482.863 184.393C483.596 183.904 484.455 183.528 485.441 183.265C486.428 182.991 487.57 182.854 488.869 182.854H490.759V185.081H488.708C487.565 185.081 486.574 185.218 485.734 185.491C484.895 185.765 484.191 186.15 483.625 186.648C483.059 187.146 482.624 187.747 482.321 188.45C482.019 189.153 481.828 189.939 481.75 190.809L481.691 191.409C482.307 191.048 483.015 190.76 483.815 190.545C484.626 190.32 485.5 190.208 486.438 190.208C487.404 190.208 488.249 190.35 488.972 190.633C489.704 190.916 490.31 191.312 490.788 191.819C491.276 192.317 491.643 192.918 491.887 193.621C492.131 194.324 492.253 195.096 492.253 195.936ZM489.587 196.097C489.587 195.511 489.514 194.983 489.367 194.515C489.23 194.036 489.011 193.636 488.708 193.313C488.405 192.981 488.02 192.728 487.551 192.552C487.092 192.366 486.54 192.273 485.896 192.273C485.524 192.273 485.148 192.308 484.768 192.376C484.387 192.444 484.011 192.542 483.64 192.669C483.278 192.786 482.932 192.923 482.6 193.079C482.268 193.235 481.965 193.401 481.691 193.577C481.691 194.837 481.779 195.892 481.955 196.741C482.131 197.581 482.39 198.255 482.731 198.763C483.083 199.271 483.513 199.632 484.021 199.847C484.528 200.062 485.114 200.169 485.778 200.169C486.335 200.169 486.843 200.081 487.302 199.905C487.771 199.72 488.171 199.451 488.503 199.1C488.845 198.748 489.108 198.323 489.294 197.825C489.489 197.317 489.587 196.741 489.587 196.097Z" fill="black"/>
<path d="M11.9336 21.5303C11.3581 21.7503 10.7656 21.9111 10.1562 22.0127C9.55534 22.1227 8.93327 22.1777 8.29004 22.1777C6.27572 22.1777 4.72266 21.6318 3.63086 20.54C2.54753 19.4482 2.00586 17.8529 2.00586 15.7539C2.00586 14.7467 2.16243 13.8327 2.47559 13.0117C2.78874 12.1908 3.22884 11.4883 3.7959 10.9043C4.36296 10.3203 5.04004 9.87174 5.82715 9.55859C6.61426 9.23698 7.48177 9.07617 8.42969 9.07617C9.08984 9.07617 9.70768 9.12272 10.2832 9.21582C10.8587 9.30892 11.4089 9.46126 11.9336 9.67285V11.7803C11.3835 11.4925 10.8206 11.2852 10.2451 11.1582C9.67806 11.0228 9.08984 10.9551 8.48047 10.9551C7.91341 10.9551 7.37598 11.0651 6.86816 11.2852C6.36882 11.4967 5.92871 11.8057 5.54785 12.2119C5.16699 12.6182 4.86654 13.1133 4.64648 13.6973C4.42643 14.2812 4.31641 14.9414 4.31641 15.6777C4.31641 17.2181 4.6888 18.3734 5.43359 19.1436C6.18685 19.9053 7.22786 20.2861 8.55664 20.2861C9.15755 20.2861 9.7373 20.2184 10.2959 20.083C10.863 19.9476 11.4089 19.7445 11.9336 19.4736V21.5303ZM26.5713 22H24.3623V13.8623C24.3623 12.8805 24.1761 12.1484 23.8037 11.666C23.4398 11.1751 22.915 10.9297 22.2295 10.9297C21.9333 10.9297 21.654 10.972 21.3916 11.0566C21.1377 11.1328 20.8711 11.2725 20.5918 11.4756C20.3125 11.6702 20.0078 11.9368 19.6777 12.2754C19.3477 12.6139 18.9668 13.0371 18.5352 13.5449V22H16.3262V4.06152H18.5352V9.25391L18.459 11.2598C18.806 10.8451 19.1445 10.498 19.4746 10.2188C19.8132 9.93099 20.1475 9.69824 20.4775 9.52051C20.8161 9.34277 21.1589 9.21582 21.5059 9.13965C21.8529 9.06348 22.2126 9.02539 22.585 9.02539C23.8545 9.02539 24.8363 9.41471 25.5303 10.1934C26.2243 10.9635 26.5713 12.1273 26.5713 13.6846V22ZM41.7168 15.5254C41.7168 16.5156 41.5771 17.4255 41.2979 18.2549C41.0186 19.0758 40.6165 19.7826 40.0918 20.375C39.5671 20.959 38.9281 21.416 38.1748 21.7461C37.4215 22.0677 36.5667 22.2285 35.6104 22.2285C34.6963 22.2285 33.8753 22.0889 33.1475 21.8096C32.4281 21.5218 31.8145 21.1029 31.3066 20.5527C30.8073 20.0026 30.4222 19.3213 30.1514 18.5088C29.889 17.6963 29.7578 16.7611 29.7578 15.7031C29.7578 14.7129 29.8975 13.8115 30.1768 12.999C30.4561 12.1781 30.8581 11.4756 31.3828 10.8916C31.9076 10.2992 32.5465 9.84212 33.2998 9.52051C34.0531 9.19043 34.9079 9.02539 35.8643 9.02539C36.7783 9.02539 37.5951 9.16927 38.3145 9.45703C39.0423 9.73633 39.6559 10.151 40.1553 10.7012C40.6631 11.2428 41.0482 11.9199 41.3105 12.7324C41.5814 13.5449 41.7168 14.4759 41.7168 15.5254ZM39.457 15.627C39.457 14.8398 39.3682 14.1543 39.1904 13.5703C39.0212 12.9779 38.7757 12.487 38.4541 12.0977C38.1325 11.6999 37.7389 11.4036 37.2734 11.209C36.8164 11.0059 36.3044 10.9043 35.7373 10.9043C35.0771 10.9043 34.5101 11.0355 34.0361 11.2979C33.5706 11.5518 33.1855 11.8945 32.8809 12.3262C32.5846 12.7578 32.3646 13.2614 32.2207 13.8369C32.0853 14.404 32.0176 15.0007 32.0176 15.627C32.0176 16.4141 32.1022 17.1038 32.2715 17.6963C32.4492 18.2887 32.6989 18.7839 33.0205 19.1816C33.3421 19.571 33.7314 19.8672 34.1885 20.0703C34.6455 20.265 35.1618 20.3623 35.7373 20.3623C36.3975 20.3623 36.9603 20.2354 37.4258 19.9814C37.8997 19.7191 38.2848 19.3721 38.5811 18.9404C38.8857 18.5088 39.1058 18.0094 39.2412 17.4424C39.3851 16.8669 39.457 16.2617 39.457 15.627ZM56.0117 15.5254C56.0117 16.5156 55.8721 17.4255 55.5928 18.2549C55.3135 19.0758 54.9115 19.7826 54.3867 20.375C53.862 20.959 53.223 21.416 52.4697 21.7461C51.7165 22.0677 50.8617 22.2285 49.9053 22.2285C48.9912 22.2285 48.1702 22.0889 47.4424 21.8096C46.723 21.5218 46.1094 21.1029 45.6016 20.5527C45.1022 20.0026 44.7171 19.3213 44.4463 18.5088C44.1839 17.6963 44.0527 16.7611 44.0527 15.7031C44.0527 14.7129 44.1924 13.8115 44.4717 12.999C44.751 12.1781 45.153 11.4756 45.6777 10.8916C46.2025 10.2992 46.8415 9.84212 47.5947 9.52051C48.348 9.19043 49.2028 9.02539 50.1592 9.02539C51.0732 9.02539 51.89 9.16927 52.6094 9.45703C53.3372 9.73633 53.9508 10.151 54.4502 10.7012C54.958 11.2428 55.3431 11.9199 55.6055 12.7324C55.8763 13.5449 56.0117 14.4759 56.0117 15.5254ZM53.752 15.627C53.752 14.8398 53.6631 14.1543 53.4854 13.5703C53.3161 12.9779 53.0706 12.487 52.749 12.0977C52.4274 11.6999 52.0339 11.4036 51.5684 11.209C51.1113 11.0059 50.5993 10.9043 50.0322 10.9043C49.3721 10.9043 48.805 11.0355 48.3311 11.2979C47.8656 11.5518 47.4805 11.8945 47.1758 12.3262C46.8796 12.7578 46.6595 13.2614 46.5156 13.8369C46.3802 14.404 46.3125 15.0007 46.3125 15.627C46.3125 16.4141 46.3971 17.1038 46.5664 17.6963C46.7441 18.2887 46.9938 18.7839 47.3154 19.1816C47.637 19.571 48.0264 19.8672 48.4834 20.0703C48.9404 20.265 49.4567 20.3623 50.0322 20.3623C50.6924 20.3623 51.2552 20.2354 51.7207 19.9814C52.1947 19.7191 52.5798 19.3721 52.876 18.9404C53.1807 18.5088 53.4007 18.0094 53.5361 17.4424C53.68 16.8669 53.752 16.2617 53.752 15.627ZM69.3037 18.5215C69.3037 18.9701 69.2275 19.3721 69.0752 19.7275C68.9229 20.083 68.7155 20.4004 68.4531 20.6797C68.1908 20.9505 67.8861 21.1833 67.5391 21.3779C67.1921 21.5726 66.8197 21.7334 66.4219 21.8604C66.0326 21.9873 65.6305 22.0804 65.2158 22.1396C64.8011 22.1989 64.3949 22.2285 63.9971 22.2285C63.1338 22.2285 62.3382 22.1904 61.6104 22.1143C60.891 22.0381 60.1842 21.9154 59.4902 21.7461V19.7148C60.235 19.9264 60.9756 20.0872 61.7119 20.1973C62.4482 20.3073 63.1803 20.3623 63.9082 20.3623C64.9661 20.3623 65.749 20.2184 66.2568 19.9307C66.7646 19.6429 67.0186 19.2324 67.0186 18.6992C67.0186 18.4707 66.9762 18.2676 66.8916 18.0898C66.8154 17.9036 66.6715 17.7301 66.46 17.5693C66.2484 17.4001 65.9183 17.2266 65.4697 17.0488C65.0296 16.8711 64.4245 16.668 63.6543 16.4395C63.0788 16.2702 62.5456 16.0798 62.0547 15.8682C61.5723 15.6481 61.1533 15.39 60.7979 15.0938C60.4424 14.7975 60.1631 14.4505 59.96 14.0527C59.7568 13.6549 59.6553 13.1852 59.6553 12.6436C59.6553 12.2881 59.7357 11.8988 59.8965 11.4756C60.0658 11.0524 60.3493 10.6589 60.7471 10.2949C61.1449 9.93099 61.6823 9.63053 62.3594 9.39355C63.0365 9.14811 63.8828 9.02539 64.8984 9.02539C65.3978 9.02539 65.9521 9.05501 66.5615 9.11426C67.1709 9.16504 67.8057 9.25814 68.4658 9.39355V11.3613C67.7718 11.1921 67.1117 11.0693 66.4854 10.9932C65.8675 10.9085 65.3301 10.8662 64.873 10.8662C64.3229 10.8662 63.8574 10.9085 63.4766 10.9932C63.1042 11.0778 62.7995 11.1963 62.5625 11.3486C62.334 11.4925 62.1689 11.666 62.0674 11.8691C61.9658 12.0638 61.915 12.2754 61.915 12.5039C61.915 12.7324 61.9574 12.9398 62.042 13.126C62.1351 13.3122 62.3001 13.4941 62.5371 13.6719C62.7826 13.8411 63.1211 14.0146 63.5527 14.1924C63.9844 14.3617 64.5472 14.5479 65.2412 14.751C65.9945 14.971 66.6292 15.2038 67.1455 15.4492C67.6618 15.6862 68.0807 15.9528 68.4023 16.249C68.724 16.5452 68.9525 16.8796 69.0879 17.252C69.2318 17.6243 69.3037 18.0475 69.3037 18.5215ZM84.2715 14.9541C84.2715 15.2673 84.2673 15.5296 84.2588 15.7412C84.2503 15.9528 84.2376 16.1517 84.2207 16.3379H75.2705C75.2705 17.6413 75.6344 18.6442 76.3623 19.3467C77.0902 20.0407 78.1396 20.3877 79.5107 20.3877C79.8831 20.3877 80.2555 20.375 80.6279 20.3496C81.0003 20.3158 81.36 20.2734 81.707 20.2227C82.054 20.1719 82.3841 20.1169 82.6973 20.0576C83.0189 19.9899 83.3151 19.918 83.5859 19.8418V21.6572C82.985 21.8265 82.3037 21.9619 81.542 22.0635C80.7887 22.1735 80.0059 22.2285 79.1934 22.2285C78.1016 22.2285 77.1621 22.0804 76.375 21.7842C75.5879 21.488 74.9404 21.0605 74.4326 20.502C73.9333 19.9349 73.5609 19.2451 73.3154 18.4326C73.0785 17.6117 72.96 16.6849 72.96 15.6523C72.96 14.7552 73.0869 13.9089 73.3408 13.1133C73.6032 12.3092 73.9798 11.6068 74.4707 11.0059C74.9701 10.3965 75.5794 9.91406 76.2988 9.55859C77.0182 9.20312 77.835 9.02539 78.749 9.02539C79.6377 9.02539 80.4248 9.16504 81.1104 9.44434C81.7959 9.72363 82.3714 10.1214 82.8369 10.6377C83.3109 11.1455 83.6663 11.7676 83.9033 12.5039C84.1488 13.2318 84.2715 14.0485 84.2715 14.9541ZM81.9736 14.6367C81.999 14.0697 81.944 13.5534 81.8086 13.0879C81.6732 12.6139 81.4616 12.2077 81.1738 11.8691C80.8945 11.5306 80.5433 11.2682 80.1201 11.082C79.6969 10.8874 79.2061 10.79 78.6475 10.79C78.165 10.79 77.7249 10.8831 77.3271 11.0693C76.9294 11.2555 76.5866 11.5179 76.2988 11.8564C76.0111 12.195 75.7783 12.6012 75.6006 13.0752C75.4229 13.5492 75.3128 14.0697 75.2705 14.6367H81.9736ZM102.616 9.25391H104.635L104.698 11.6025C105.451 10.6969 106.192 10.041 106.92 9.63477C107.656 9.22852 108.397 9.02539 109.142 9.02539C110.462 9.02539 111.461 9.4528 112.138 10.3076C112.823 11.1624 113.141 12.432 113.09 14.1162H110.855C110.881 12.999 110.716 12.1908 110.36 11.6914C110.013 11.1836 109.501 10.9297 108.824 10.9297C108.528 10.9297 108.228 10.9847 107.923 11.0947C107.627 11.1963 107.318 11.3656 106.996 11.6025C106.683 11.8311 106.349 12.1273 105.993 12.4912C105.638 12.8551 105.257 13.2952 104.851 13.8115V22H102.616V9.25391ZM127.156 14.9541C127.156 15.2673 127.152 15.5296 127.144 15.7412C127.135 15.9528 127.122 16.1517 127.105 16.3379H118.155C118.155 17.6413 118.519 18.6442 119.247 19.3467C119.975 20.0407 121.024 20.3877 122.396 20.3877C122.768 20.3877 123.14 20.375 123.513 20.3496C123.885 20.3158 124.245 20.2734 124.592 20.2227C124.939 20.1719 125.269 20.1169 125.582 20.0576C125.904 19.9899 126.2 19.918 126.471 19.8418V21.6572C125.87 21.8265 125.188 21.9619 124.427 22.0635C123.674 22.1735 122.891 22.2285 122.078 22.2285C120.986 22.2285 120.047 22.0804 119.26 21.7842C118.473 21.488 117.825 21.0605 117.317 20.502C116.818 19.9349 116.446 19.2451 116.2 18.4326C115.963 17.6117 115.845 16.6849 115.845 15.6523C115.845 14.7552 115.972 13.9089 116.226 13.1133C116.488 12.3092 116.865 11.6068 117.355 11.0059C117.855 10.3965 118.464 9.91406 119.184 9.55859C119.903 9.20312 120.72 9.02539 121.634 9.02539C122.522 9.02539 123.31 9.16504 123.995 9.44434C124.681 9.72363 125.256 10.1214 125.722 10.6377C126.196 11.1455 126.551 11.7676 126.788 12.5039C127.034 13.2318 127.156 14.0485 127.156 14.9541ZM124.858 14.6367C124.884 14.0697 124.829 13.5534 124.693 13.0879C124.558 12.6139 124.346 12.2077 124.059 11.8691C123.779 11.5306 123.428 11.2682 123.005 11.082C122.582 10.8874 122.091 10.79 121.532 10.79C121.05 10.79 120.61 10.8831 120.212 11.0693C119.814 11.2555 119.471 11.5179 119.184 11.8564C118.896 12.195 118.663 12.6012 118.485 13.0752C118.308 13.5492 118.198 14.0697 118.155 14.6367H124.858ZM141.578 15.3984C141.578 16.5326 141.417 17.5228 141.096 18.3691C140.783 19.2155 140.347 19.918 139.788 20.4766C139.229 21.0352 138.569 21.4541 137.808 21.7334C137.046 22.0127 136.221 22.1523 135.332 22.1523C134.926 22.1523 134.52 22.1312 134.113 22.0889C133.715 22.0465 133.309 21.9746 132.895 21.873V27.2051H130.686V9.25391H132.653L132.793 11.3867C133.428 10.515 134.105 9.9056 134.824 9.55859C135.544 9.20312 136.322 9.02539 137.16 9.02539C137.888 9.02539 138.527 9.17773 139.077 9.48242C139.627 9.78711 140.089 10.2188 140.461 10.7773C140.833 11.3275 141.113 11.9961 141.299 12.7832C141.485 13.5618 141.578 14.4336 141.578 15.3984ZM139.318 15.5C139.318 14.8314 139.268 14.2178 139.166 13.6592C139.073 13.1006 138.921 12.6224 138.709 12.2246C138.497 11.8268 138.227 11.5179 137.896 11.2979C137.566 11.0693 137.173 10.9551 136.716 10.9551C136.437 10.9551 136.153 11.0016 135.865 11.0947C135.577 11.1794 135.277 11.3275 134.964 11.5391C134.659 11.7422 134.333 12.0173 133.986 12.3643C133.648 12.7028 133.284 13.126 132.895 13.6338V19.8164C133.301 19.9857 133.728 20.1211 134.177 20.2227C134.625 20.3158 135.065 20.3623 135.497 20.3623C136.69 20.3623 137.626 19.9603 138.303 19.1562C138.98 18.3438 139.318 17.125 139.318 15.5ZM157.244 27.2051H142.949V25.377H157.244V27.2051ZM170.765 22H167.832L164.392 17.1377L160.989 22H158.133L163.071 15.6016L158.361 9.25391H161.192L164.544 14.1543L167.832 9.25391H170.562L165.775 15.6523L170.765 22ZM178.687 9.02539C178.949 9.02539 179.199 9.0804 179.436 9.19043C179.673 9.29199 179.88 9.43164 180.058 9.60938C180.235 9.78711 180.375 9.99447 180.477 10.2314C180.587 10.4684 180.642 10.7181 180.642 10.9805C180.642 11.2513 180.587 11.5052 180.477 11.7422C180.375 11.9707 180.235 12.1738 180.058 12.3516C179.88 12.5293 179.673 12.6689 179.436 12.7705C179.199 12.8721 178.949 12.9229 178.687 12.9229C178.416 12.9229 178.162 12.8721 177.925 12.7705C177.696 12.6689 177.493 12.5293 177.315 12.3516C177.138 12.1738 176.998 11.9707 176.896 11.7422C176.795 11.5052 176.744 11.2513 176.744 10.9805C176.744 10.7181 176.795 10.4684 176.896 10.2314C176.998 9.99447 177.138 9.78711 177.315 9.60938C177.493 9.43164 177.696 9.29199 177.925 9.19043C178.162 9.0804 178.416 9.02539 178.687 9.02539ZM178.687 18.3311C178.949 18.3311 179.199 18.3861 179.436 18.4961C179.673 18.5977 179.88 18.7373 180.058 18.915C180.235 19.0928 180.375 19.3001 180.477 19.5371C180.587 19.7741 180.642 20.0238 180.642 20.2861C180.642 20.557 180.587 20.8109 180.477 21.0479C180.375 21.2764 180.235 21.4795 180.058 21.6572C179.88 21.835 179.673 21.9746 179.436 22.0762C179.199 22.1777 178.949 22.2285 178.687 22.2285C178.416 22.2285 178.162 22.1777 177.925 22.0762C177.696 21.9746 177.493 21.835 177.315 21.6572C177.138 21.4795 176.998 21.2764 176.896 21.0479C176.795 20.8109 176.744 20.557 176.744 20.2861C176.744 20.0238 176.795 19.7741 176.896 19.5371C176.998 19.3001 177.138 19.0928 177.315 18.915C177.493 18.7373 177.696 18.5977 177.925 18.4961C178.162 18.3861 178.416 18.3311 178.687 18.3311Z" fill="black"/>
<path d="M221.814 30.2539H223.833L223.896 32.6025C224.65 31.6969 225.39 31.041 226.118 30.6348C226.854 30.2285 227.595 30.0254 228.34 30.0254C229.66 30.0254 230.659 30.4528 231.336 31.3076C232.021 32.1624 232.339 33.432 232.288 35.1162H230.054C230.079 33.999 229.914 33.1908 229.559 32.6914C229.212 32.1836 228.7 31.9297 228.022 31.9297C227.726 31.9297 227.426 31.9847 227.121 32.0947C226.825 32.1963 226.516 32.3656 226.194 32.6025C225.881 32.8311 225.547 33.1273 225.191 33.4912C224.836 33.8551 224.455 34.2952 224.049 34.8115V43H221.814V30.2539ZM246.354 35.9541C246.354 36.2673 246.35 36.5296 246.342 36.7412C246.333 36.9528 246.321 37.1517 246.304 37.3379H237.354C237.354 38.6413 237.717 39.6442 238.445 40.3467C239.173 41.0407 240.223 41.3877 241.594 41.3877C241.966 41.3877 242.339 41.375 242.711 41.3496C243.083 41.3158 243.443 41.2734 243.79 41.2227C244.137 41.1719 244.467 41.1169 244.78 41.0576C245.102 40.9899 245.398 40.918 245.669 40.8418V42.6572C245.068 42.8265 244.387 42.9619 243.625 43.0635C242.872 43.1735 242.089 43.2285 241.276 43.2285C240.185 43.2285 239.245 43.0804 238.458 42.7842C237.671 42.488 237.023 42.0605 236.516 41.502C236.016 40.9349 235.644 40.2451 235.398 39.4326C235.161 38.6117 235.043 37.6849 235.043 36.6523C235.043 35.7552 235.17 34.9089 235.424 34.1133C235.686 33.3092 236.063 32.6068 236.554 32.0059C237.053 31.3965 237.662 30.9141 238.382 30.5586C239.101 30.2031 239.918 30.0254 240.832 30.0254C241.721 30.0254 242.508 30.165 243.193 30.4443C243.879 30.7236 244.454 31.1214 244.92 31.6377C245.394 32.1455 245.749 32.7676 245.986 33.5039C246.232 34.2318 246.354 35.0485 246.354 35.9541ZM244.057 35.6367C244.082 35.0697 244.027 34.5534 243.892 34.0879C243.756 33.6139 243.545 33.2077 243.257 32.8691C242.978 32.5306 242.626 32.2682 242.203 32.082C241.78 31.8874 241.289 31.79 240.73 31.79C240.248 31.79 239.808 31.8831 239.41 32.0693C239.012 32.2555 238.67 32.5179 238.382 32.8564C238.094 33.195 237.861 33.6012 237.684 34.0752C237.506 34.5492 237.396 35.0697 237.354 35.6367H244.057ZM260.776 36.3984C260.776 37.5326 260.616 38.5228 260.294 39.3691C259.981 40.2155 259.545 40.918 258.986 41.4766C258.428 42.0352 257.768 42.4541 257.006 42.7334C256.244 43.0127 255.419 43.1523 254.53 43.1523C254.124 43.1523 253.718 43.1312 253.312 43.0889C252.914 43.0465 252.507 42.9746 252.093 42.873V48.2051H249.884V30.2539H251.852L251.991 32.3867C252.626 31.515 253.303 30.9056 254.022 30.5586C254.742 30.2031 255.521 30.0254 256.358 30.0254C257.086 30.0254 257.725 30.1777 258.275 30.4824C258.826 30.7871 259.287 31.2188 259.659 31.7773C260.032 32.3275 260.311 32.9961 260.497 33.7832C260.683 34.5618 260.776 35.4336 260.776 36.3984ZM258.517 36.5C258.517 35.8314 258.466 35.2178 258.364 34.6592C258.271 34.1006 258.119 33.6224 257.907 33.2246C257.696 32.8268 257.425 32.5179 257.095 32.2979C256.765 32.0693 256.371 31.9551 255.914 31.9551C255.635 31.9551 255.351 32.0016 255.063 32.0947C254.776 32.1794 254.475 32.3275 254.162 32.5391C253.857 32.7422 253.532 33.0173 253.185 33.3643C252.846 33.7028 252.482 34.126 252.093 34.6338V40.8164C252.499 40.9857 252.926 41.1211 253.375 41.2227C253.824 41.3158 254.264 41.3623 254.695 41.3623C255.889 41.3623 256.824 40.9603 257.501 40.1562C258.178 39.3438 258.517 38.125 258.517 36.5ZM276.442 48.2051H262.147V46.377H276.442V48.2051ZM289.963 43H287.03L283.59 38.1377L280.188 43H277.331L282.27 36.6016L277.56 30.2539H280.391L283.742 35.1543L287.03 30.2539H289.76L284.974 36.6523L289.963 43Z" fill="#FF5500"/>
<path d="M484.366 222.116C484.854 221.628 485.646 221.628 486.134 222.116L494.089 230.071C494.577 230.559 494.577 231.351 494.089 231.839C493.601 232.327 492.809 232.327 492.321 231.839L485.25 224.768L478.179 231.839C477.691 232.327 476.899 232.327 476.411 231.839C475.923 231.351 475.923 230.559 476.411 230.071L484.366 222.116ZM486.5 223L486.5 315.5L484 315.5L484 223L486.5 223Z" fill="black"/>
<path d="M491.652 316.685C491.652 317.524 491.481 318.315 491.14 319.058C490.798 319.79 490.285 320.435 489.602 320.991C488.918 321.538 488.059 321.973 487.023 322.295C485.988 322.607 484.782 322.764 483.405 322.764C482.644 322.764 481.96 322.739 481.354 322.69C480.749 322.642 480.183 322.578 479.655 322.5V320.215C480.261 320.322 480.9 320.405 481.574 320.464C482.248 320.522 482.937 320.552 483.64 320.552C484.597 320.552 485.412 320.469 486.086 320.303C486.77 320.127 487.326 319.878 487.756 319.556C488.186 319.233 488.498 318.843 488.693 318.384C488.889 317.925 488.986 317.407 488.986 316.831C488.986 316.304 488.869 315.845 488.635 315.454C488.4 315.063 488.068 314.736 487.639 314.473C487.219 314.209 486.711 314.014 486.115 313.887C485.529 313.75 484.885 313.682 484.182 313.682H481.999V311.587H484.211C484.787 311.587 485.31 311.514 485.778 311.367C486.257 311.211 486.662 310.991 486.994 310.708C487.336 310.425 487.595 310.078 487.771 309.668C487.956 309.248 488.049 308.774 488.049 308.247C488.049 307.222 487.736 306.475 487.111 306.006C486.486 305.537 485.568 305.303 484.357 305.303C483.713 305.303 483.049 305.366 482.365 305.493C481.682 305.62 480.949 305.811 480.168 306.064V303.838C480.5 303.721 480.852 303.618 481.223 303.53C481.604 303.433 481.979 303.354 482.351 303.296C482.731 303.228 483.107 303.179 483.479 303.149C483.85 303.11 484.206 303.091 484.548 303.091C485.563 303.091 486.457 303.203 487.229 303.428C488 303.643 488.645 303.955 489.162 304.365C489.68 304.775 490.07 305.273 490.334 305.859C490.598 306.445 490.729 307.104 490.729 307.837C490.729 308.931 490.446 309.849 489.88 310.591C489.323 311.333 488.557 311.924 487.58 312.363C488.078 312.441 488.566 312.598 489.045 312.832C489.533 313.066 489.968 313.369 490.349 313.74C490.739 314.102 491.052 314.531 491.286 315.029C491.53 315.527 491.652 316.079 491.652 316.685Z" fill="black"/>
<circle cx="485" cy="314" r="23.75" fill="white" stroke="black" stroke-width="2.5"/>
<path d="M491.916 307.728L483.889 324.5H480.974L489.309 307.728H478.967V305.354H491.916V307.728Z" fill="black"/>
<circle cx="808" cy="193" r="23.75" fill="white" stroke="black" stroke-width="2.5"/>
<path d="M815.458 192.435C815.458 193.899 815.312 195.237 815.019 196.448C814.726 197.649 814.281 198.685 813.686 199.554C813.09 200.413 812.348 201.082 811.459 201.561C810.58 202.029 809.545 202.264 808.354 202.264C807.328 202.264 806.396 202.073 805.556 201.692C804.716 201.302 803.998 200.706 803.402 199.905C802.807 199.104 802.348 198.084 802.025 196.844C801.703 195.604 801.542 194.134 801.542 192.435C801.542 190.97 801.688 189.632 801.981 188.421C802.284 187.21 802.729 186.175 803.314 185.315C803.91 184.446 804.652 183.777 805.541 183.309C806.43 182.83 807.465 182.591 808.646 182.591C809.672 182.591 810.604 182.786 811.444 183.177C812.284 183.558 813.002 184.153 813.598 184.964C814.193 185.765 814.652 186.785 814.975 188.025C815.297 189.266 815.458 190.735 815.458 192.435ZM812.88 192.522C812.88 192.19 812.865 191.863 812.836 191.541C812.816 191.209 812.792 190.887 812.763 190.574L804.662 196.595C804.809 197.103 804.994 197.571 805.219 198.001C805.443 198.431 805.712 198.802 806.024 199.114C806.347 199.417 806.708 199.656 807.108 199.832C807.519 199.998 807.982 200.081 808.5 200.081C809.164 200.081 809.765 199.92 810.302 199.598C810.849 199.275 811.312 198.797 811.693 198.162C812.074 197.527 812.367 196.741 812.572 195.804C812.777 194.856 812.88 193.763 812.88 192.522ZM804.12 192.347C804.12 192.649 804.12 192.952 804.12 193.255C804.13 193.558 804.149 193.851 804.179 194.134L812.279 188.143C812.133 187.645 811.947 187.19 811.723 186.78C811.498 186.37 811.229 186.019 810.917 185.726C810.604 185.423 810.248 185.188 809.848 185.022C809.447 184.856 808.998 184.773 808.5 184.773C807.836 184.773 807.23 184.935 806.684 185.257C806.146 185.579 805.688 186.062 805.307 186.707C804.926 187.342 804.633 188.133 804.428 189.08C804.223 190.018 804.12 191.106 804.12 192.347Z" fill="black"/>
<circle cx="25" cy="25" r="23.75" transform="matrix(-1 0 0 1 939 56)" fill="#FFF4EF" stroke="#FF5500" stroke-width="2.5"/>
<path d="M921.253 83.9355C921.253 84.8145 921.092 85.6396 920.77 86.4111C920.457 87.1826 920.008 87.8564 919.422 88.4326C918.836 88.999 918.128 89.4482 917.298 89.7803C916.478 90.1025 915.564 90.2637 914.559 90.2637C913.504 90.2637 912.571 90.0977 911.761 89.7656C910.95 89.4238 910.271 88.9062 909.725 88.2129C909.178 87.5098 908.763 86.626 908.479 85.5615C908.196 84.4971 908.055 83.2373 908.055 81.7822C908.055 80.8057 908.118 79.8584 908.245 78.9404C908.372 78.0225 908.582 77.1582 908.875 76.3477C909.168 75.5371 909.559 74.7949 910.047 74.1211C910.535 73.4473 911.141 72.8711 911.863 72.3926C912.596 71.9043 913.455 71.5283 914.441 71.2646C915.428 70.9912 916.57 70.8545 917.869 70.8545H919.759V73.0811H917.708C916.565 73.0811 915.574 73.2178 914.734 73.4912C913.895 73.7646 913.191 74.1504 912.625 74.6484C912.059 75.1465 911.624 75.7471 911.321 76.4502C911.019 77.1533 910.828 77.9395 910.75 78.8086L910.691 79.4092C911.307 79.0479 912.015 78.7598 912.815 78.5449C913.626 78.3203 914.5 78.208 915.438 78.208C916.404 78.208 917.249 78.3496 917.972 78.6328C918.704 78.916 919.31 79.3115 919.788 79.8193C920.276 80.3174 920.643 80.918 920.887 81.6211C921.131 82.3242 921.253 83.0957 921.253 83.9355ZM918.587 84.0967C918.587 83.5107 918.514 82.9834 918.367 82.5146C918.23 82.0361 918.011 81.6357 917.708 81.3135C917.405 80.9814 917.02 80.7275 916.551 80.5518C916.092 80.3662 915.54 80.2734 914.896 80.2734C914.524 80.2734 914.148 80.3076 913.768 80.376C913.387 80.4443 913.011 80.542 912.64 80.6689C912.278 80.7861 911.932 80.9229 911.6 81.0791C911.268 81.2354 910.965 81.4014 910.691 81.5771C910.691 82.8369 910.779 83.8916 910.955 84.7412C911.131 85.5811 911.39 86.2549 911.731 86.7627C912.083 87.2705 912.513 87.6318 913.021 87.8467C913.528 88.0615 914.114 88.1689 914.778 88.1689C915.335 88.1689 915.843 88.0811 916.302 87.9053C916.771 87.7197 917.171 87.4512 917.503 87.0996C917.845 86.748 918.108 86.3232 918.294 85.8252C918.489 85.3174 918.587 84.7412 918.587 84.0967Z" fill="black"/>
<path d="M613.934 21.5303C613.358 21.7503 612.766 21.9111 612.156 22.0127C611.555 22.1227 610.933 22.1777 610.29 22.1777C608.276 22.1777 606.723 21.6318 605.631 20.54C604.548 19.4482 604.006 17.8529 604.006 15.7539C604.006 14.7467 604.162 13.8327 604.476 13.0117C604.789 12.1908 605.229 11.4883 605.796 10.9043C606.363 10.3203 607.04 9.87174 607.827 9.55859C608.614 9.23698 609.482 9.07617 610.43 9.07617C611.09 9.07617 611.708 9.12272 612.283 9.21582C612.859 9.30892 613.409 9.46126 613.934 9.67285V11.7803C613.383 11.4925 612.821 11.2852 612.245 11.1582C611.678 11.0228 611.09 10.9551 610.48 10.9551C609.913 10.9551 609.376 11.0651 608.868 11.2852C608.369 11.4967 607.929 11.8057 607.548 12.2119C607.167 12.6182 606.867 13.1133 606.646 13.6973C606.426 14.2812 606.316 14.9414 606.316 15.6777C606.316 17.2181 606.689 18.3734 607.434 19.1436C608.187 19.9053 609.228 20.2861 610.557 20.2861C611.158 20.2861 611.737 20.2184 612.296 20.083C612.863 19.9476 613.409 19.7445 613.934 19.4736V21.5303ZM628.571 22H626.362V13.8623C626.362 12.8805 626.176 12.1484 625.804 11.666C625.44 11.1751 624.915 10.9297 624.229 10.9297C623.933 10.9297 623.654 10.972 623.392 11.0566C623.138 11.1328 622.871 11.2725 622.592 11.4756C622.312 11.6702 622.008 11.9368 621.678 12.2754C621.348 12.6139 620.967 13.0371 620.535 13.5449V22H618.326V4.06152H620.535V9.25391L620.459 11.2598C620.806 10.8451 621.145 10.498 621.475 10.2188C621.813 9.93099 622.147 9.69824 622.478 9.52051C622.816 9.34277 623.159 9.21582 623.506 9.13965C623.853 9.06348 624.213 9.02539 624.585 9.02539C625.854 9.02539 626.836 9.41471 627.53 10.1934C628.224 10.9635 628.571 12.1273 628.571 13.6846V22ZM643.717 15.5254C643.717 16.5156 643.577 17.4255 643.298 18.2549C643.019 19.0758 642.617 19.7826 642.092 20.375C641.567 20.959 640.928 21.416 640.175 21.7461C639.422 22.0677 638.567 22.2285 637.61 22.2285C636.696 22.2285 635.875 22.0889 635.147 21.8096C634.428 21.5218 633.814 21.1029 633.307 20.5527C632.807 20.0026 632.422 19.3213 632.151 18.5088C631.889 17.6963 631.758 16.7611 631.758 15.7031C631.758 14.7129 631.897 13.8115 632.177 12.999C632.456 12.1781 632.858 11.4756 633.383 10.8916C633.908 10.2992 634.547 9.84212 635.3 9.52051C636.053 9.19043 636.908 9.02539 637.864 9.02539C638.778 9.02539 639.595 9.16927 640.314 9.45703C641.042 9.73633 641.656 10.151 642.155 10.7012C642.663 11.2428 643.048 11.9199 643.311 12.7324C643.581 13.5449 643.717 14.4759 643.717 15.5254ZM641.457 15.627C641.457 14.8398 641.368 14.1543 641.19 13.5703C641.021 12.9779 640.776 12.487 640.454 12.0977C640.132 11.6999 639.739 11.4036 639.273 11.209C638.816 11.0059 638.304 10.9043 637.737 10.9043C637.077 10.9043 636.51 11.0355 636.036 11.2979C635.571 11.5518 635.186 11.8945 634.881 12.3262C634.585 12.7578 634.365 13.2614 634.221 13.8369C634.085 14.404 634.018 15.0007 634.018 15.627C634.018 16.4141 634.102 17.1038 634.271 17.6963C634.449 18.2887 634.699 18.7839 635.021 19.1816C635.342 19.571 635.731 19.8672 636.188 20.0703C636.646 20.265 637.162 20.3623 637.737 20.3623C638.397 20.3623 638.96 20.2354 639.426 19.9814C639.9 19.7191 640.285 19.3721 640.581 18.9404C640.886 18.5088 641.106 18.0094 641.241 17.4424C641.385 16.8669 641.457 16.2617 641.457 15.627ZM658.012 15.5254C658.012 16.5156 657.872 17.4255 657.593 18.2549C657.313 19.0758 656.911 19.7826 656.387 20.375C655.862 20.959 655.223 21.416 654.47 21.7461C653.716 22.0677 652.862 22.2285 651.905 22.2285C650.991 22.2285 650.17 22.0889 649.442 21.8096C648.723 21.5218 648.109 21.1029 647.602 20.5527C647.102 20.0026 646.717 19.3213 646.446 18.5088C646.184 17.6963 646.053 16.7611 646.053 15.7031C646.053 14.7129 646.192 13.8115 646.472 12.999C646.751 12.1781 647.153 11.4756 647.678 10.8916C648.202 10.2992 648.841 9.84212 649.595 9.52051C650.348 9.19043 651.203 9.02539 652.159 9.02539C653.073 9.02539 653.89 9.16927 654.609 9.45703C655.337 9.73633 655.951 10.151 656.45 10.7012C656.958 11.2428 657.343 11.9199 657.605 12.7324C657.876 13.5449 658.012 14.4759 658.012 15.5254ZM655.752 15.627C655.752 14.8398 655.663 14.1543 655.485 13.5703C655.316 12.9779 655.071 12.487 654.749 12.0977C654.427 11.6999 654.034 11.4036 653.568 11.209C653.111 11.0059 652.599 10.9043 652.032 10.9043C651.372 10.9043 650.805 11.0355 650.331 11.2979C649.866 11.5518 649.48 11.8945 649.176 12.3262C648.88 12.7578 648.66 13.2614 648.516 13.8369C648.38 14.404 648.312 15.0007 648.312 15.627C648.312 16.4141 648.397 17.1038 648.566 17.6963C648.744 18.2887 648.994 18.7839 649.315 19.1816C649.637 19.571 650.026 19.8672 650.483 20.0703C650.94 20.265 651.457 20.3623 652.032 20.3623C652.692 20.3623 653.255 20.2354 653.721 19.9814C654.195 19.7191 654.58 19.3721 654.876 18.9404C655.181 18.5088 655.401 18.0094 655.536 17.4424C655.68 16.8669 655.752 16.2617 655.752 15.627ZM671.304 18.5215C671.304 18.9701 671.228 19.3721 671.075 19.7275C670.923 20.083 670.715 20.4004 670.453 20.6797C670.191 20.9505 669.886 21.1833 669.539 21.3779C669.192 21.5726 668.82 21.7334 668.422 21.8604C668.033 21.9873 667.631 22.0804 667.216 22.1396C666.801 22.1989 666.395 22.2285 665.997 22.2285C665.134 22.2285 664.338 22.1904 663.61 22.1143C662.891 22.0381 662.184 21.9154 661.49 21.7461V19.7148C662.235 19.9264 662.976 20.0872 663.712 20.1973C664.448 20.3073 665.18 20.3623 665.908 20.3623C666.966 20.3623 667.749 20.2184 668.257 19.9307C668.765 19.6429 669.019 19.2324 669.019 18.6992C669.019 18.4707 668.976 18.2676 668.892 18.0898C668.815 17.9036 668.672 17.7301 668.46 17.5693C668.248 17.4001 667.918 17.2266 667.47 17.0488C667.03 16.8711 666.424 16.668 665.654 16.4395C665.079 16.2702 664.546 16.0798 664.055 15.8682C663.572 15.6481 663.153 15.39 662.798 15.0938C662.442 14.7975 662.163 14.4505 661.96 14.0527C661.757 13.6549 661.655 13.1852 661.655 12.6436C661.655 12.2881 661.736 11.8988 661.896 11.4756C662.066 11.0524 662.349 10.6589 662.747 10.2949C663.145 9.93099 663.682 9.63053 664.359 9.39355C665.036 9.14811 665.883 9.02539 666.898 9.02539C667.398 9.02539 667.952 9.05501 668.562 9.11426C669.171 9.16504 669.806 9.25814 670.466 9.39355V11.3613C669.772 11.1921 669.112 11.0693 668.485 10.9932C667.868 10.9085 667.33 10.8662 666.873 10.8662C666.323 10.8662 665.857 10.9085 665.477 10.9932C665.104 11.0778 664.799 11.1963 664.562 11.3486C664.334 11.4925 664.169 11.666 664.067 11.8691C663.966 12.0638 663.915 12.2754 663.915 12.5039C663.915 12.7324 663.957 12.9398 664.042 13.126C664.135 13.3122 664.3 13.4941 664.537 13.6719C664.783 13.8411 665.121 14.0146 665.553 14.1924C665.984 14.3617 666.547 14.5479 667.241 14.751C667.994 14.971 668.629 15.2038 669.146 15.4492C669.662 15.6862 670.081 15.9528 670.402 16.249C670.724 16.5452 670.952 16.8796 671.088 17.252C671.232 17.6243 671.304 18.0475 671.304 18.5215ZM686.271 14.9541C686.271 15.2673 686.267 15.5296 686.259 15.7412C686.25 15.9528 686.238 16.1517 686.221 16.3379H677.271C677.271 17.6413 677.634 18.6442 678.362 19.3467C679.09 20.0407 680.14 20.3877 681.511 20.3877C681.883 20.3877 682.256 20.375 682.628 20.3496C683 20.3158 683.36 20.2734 683.707 20.2227C684.054 20.1719 684.384 20.1169 684.697 20.0576C685.019 19.9899 685.315 19.918 685.586 19.8418V21.6572C684.985 21.8265 684.304 21.9619 683.542 22.0635C682.789 22.1735 682.006 22.2285 681.193 22.2285C680.102 22.2285 679.162 22.0804 678.375 21.7842C677.588 21.488 676.94 21.0605 676.433 20.502C675.933 19.9349 675.561 19.2451 675.315 18.4326C675.078 17.6117 674.96 16.6849 674.96 15.6523C674.96 14.7552 675.087 13.9089 675.341 13.1133C675.603 12.3092 675.98 11.6068 676.471 11.0059C676.97 10.3965 677.579 9.91406 678.299 9.55859C679.018 9.20312 679.835 9.02539 680.749 9.02539C681.638 9.02539 682.425 9.16504 683.11 9.44434C683.796 9.72363 684.371 10.1214 684.837 10.6377C685.311 11.1455 685.666 11.7676 685.903 12.5039C686.149 13.2318 686.271 14.0485 686.271 14.9541ZM683.974 14.6367C683.999 14.0697 683.944 13.5534 683.809 13.0879C683.673 12.6139 683.462 12.2077 683.174 11.8691C682.895 11.5306 682.543 11.2682 682.12 11.082C681.697 10.8874 681.206 10.79 680.647 10.79C680.165 10.79 679.725 10.8831 679.327 11.0693C678.929 11.2555 678.587 11.5179 678.299 11.8564C678.011 12.195 677.778 12.6012 677.601 13.0752C677.423 13.5492 677.313 14.0697 677.271 14.6367H683.974ZM704.616 9.25391H706.635L706.698 11.6025C707.451 10.6969 708.192 10.041 708.92 9.63477C709.656 9.22852 710.397 9.02539 711.142 9.02539C712.462 9.02539 713.461 9.4528 714.138 10.3076C714.823 11.1624 715.141 12.432 715.09 14.1162H712.855C712.881 12.999 712.716 12.1908 712.36 11.6914C712.013 11.1836 711.501 10.9297 710.824 10.9297C710.528 10.9297 710.228 10.9847 709.923 11.0947C709.627 11.1963 709.318 11.3656 708.996 11.6025C708.683 11.8311 708.349 12.1273 707.993 12.4912C707.638 12.8551 707.257 13.2952 706.851 13.8115V22H704.616V9.25391ZM729.156 14.9541C729.156 15.2673 729.152 15.5296 729.144 15.7412C729.135 15.9528 729.122 16.1517 729.105 16.3379H720.155C720.155 17.6413 720.519 18.6442 721.247 19.3467C721.975 20.0407 723.024 20.3877 724.396 20.3877C724.768 20.3877 725.14 20.375 725.513 20.3496C725.885 20.3158 726.245 20.2734 726.592 20.2227C726.939 20.1719 727.269 20.1169 727.582 20.0576C727.904 19.9899 728.2 19.918 728.471 19.8418V21.6572C727.87 21.8265 727.188 21.9619 726.427 22.0635C725.674 22.1735 724.891 22.2285 724.078 22.2285C722.986 22.2285 722.047 22.0804 721.26 21.7842C720.473 21.488 719.825 21.0605 719.317 20.502C718.818 19.9349 718.446 19.2451 718.2 18.4326C717.963 17.6117 717.845 16.6849 717.845 15.6523C717.845 14.7552 717.972 13.9089 718.226 13.1133C718.488 12.3092 718.865 11.6068 719.355 11.0059C719.855 10.3965 720.464 9.91406 721.184 9.55859C721.903 9.20312 722.72 9.02539 723.634 9.02539C724.522 9.02539 725.31 9.16504 725.995 9.44434C726.681 9.72363 727.256 10.1214 727.722 10.6377C728.196 11.1455 728.551 11.7676 728.788 12.5039C729.034 13.2318 729.156 14.0485 729.156 14.9541ZM726.858 14.6367C726.884 14.0697 726.829 13.5534 726.693 13.0879C726.558 12.6139 726.346 12.2077 726.059 11.8691C725.779 11.5306 725.428 11.2682 725.005 11.082C724.582 10.8874 724.091 10.79 723.532 10.79C723.05 10.79 722.61 10.8831 722.212 11.0693C721.814 11.2555 721.471 11.5179 721.184 11.8564C720.896 12.195 720.663 12.6012 720.485 13.0752C720.308 13.5492 720.198 14.0697 720.155 14.6367H726.858ZM743.578 15.3984C743.578 16.5326 743.417 17.5228 743.096 18.3691C742.783 19.2155 742.347 19.918 741.788 20.4766C741.229 21.0352 740.569 21.4541 739.808 21.7334C739.046 22.0127 738.221 22.1523 737.332 22.1523C736.926 22.1523 736.52 22.1312 736.113 22.0889C735.715 22.0465 735.309 21.9746 734.895 21.873V27.2051H732.686V9.25391H734.653L734.793 11.3867C735.428 10.515 736.105 9.9056 736.824 9.55859C737.544 9.20312 738.322 9.02539 739.16 9.02539C739.888 9.02539 740.527 9.17773 741.077 9.48242C741.627 9.78711 742.089 10.2188 742.461 10.7773C742.833 11.3275 743.113 11.9961 743.299 12.7832C743.485 13.5618 743.578 14.4336 743.578 15.3984ZM741.318 15.5C741.318 14.8314 741.268 14.2178 741.166 13.6592C741.073 13.1006 740.921 12.6224 740.709 12.2246C740.497 11.8268 740.227 11.5179 739.896 11.2979C739.566 11.0693 739.173 10.9551 738.716 10.9551C738.437 10.9551 738.153 11.0016 737.865 11.0947C737.577 11.1794 737.277 11.3275 736.964 11.5391C736.659 11.7422 736.333 12.0173 735.986 12.3643C735.648 12.7028 735.284 13.126 734.895 13.6338V19.8164C735.301 19.9857 735.728 20.1211 736.177 20.2227C736.625 20.3158 737.065 20.3623 737.497 20.3623C738.69 20.3623 739.626 19.9603 740.303 19.1562C740.98 18.3438 741.318 17.125 741.318 15.5ZM759.244 27.2051H744.949V25.377H759.244V27.2051ZM772.612 9.25391L768.271 20.6543C767.822 21.8138 767.356 22.8125 766.874 23.6504C766.4 24.4883 765.88 25.1738 765.312 25.707C764.745 26.2487 764.123 26.6465 763.446 26.9004C762.769 27.1543 762.012 27.2812 761.174 27.2812C760.954 27.2812 760.755 27.277 760.577 27.2686C760.399 27.2601 760.205 27.2474 759.993 27.2305V25.2246C760.179 25.25 760.382 25.2712 760.603 25.2881C760.823 25.3135 761.055 25.3262 761.301 25.3262C761.707 25.3262 762.084 25.2669 762.431 25.1484C762.786 25.0299 763.12 24.8353 763.434 24.5645C763.747 24.3021 764.047 23.9593 764.335 23.5361C764.623 23.113 764.902 22.6009 765.173 22L760.082 9.25391H762.596L765.82 17.6836L766.468 19.6641L767.204 17.6328L770.188 9.25391H772.612ZM780.687 9.02539C780.949 9.02539 781.199 9.0804 781.436 9.19043C781.673 9.29199 781.88 9.43164 782.058 9.60938C782.235 9.78711 782.375 9.99447 782.477 10.2314C782.587 10.4684 782.642 10.7181 782.642 10.9805C782.642 11.2513 782.587 11.5052 782.477 11.7422C782.375 11.9707 782.235 12.1738 782.058 12.3516C781.88 12.5293 781.673 12.6689 781.436 12.7705C781.199 12.8721 780.949 12.9229 780.687 12.9229C780.416 12.9229 780.162 12.8721 779.925 12.7705C779.696 12.6689 779.493 12.5293 779.315 12.3516C779.138 12.1738 778.998 11.9707 778.896 11.7422C778.795 11.5052 778.744 11.2513 778.744 10.9805C778.744 10.7181 778.795 10.4684 778.896 10.2314C778.998 9.99447 779.138 9.78711 779.315 9.60938C779.493 9.43164 779.696 9.29199 779.925 9.19043C780.162 9.0804 780.416 9.02539 780.687 9.02539ZM780.687 18.3311C780.949 18.3311 781.199 18.3861 781.436 18.4961C781.673 18.5977 781.88 18.7373 782.058 18.915C782.235 19.0928 782.375 19.3001 782.477 19.5371C782.587 19.7741 782.642 20.0238 782.642 20.2861C782.642 20.557 782.587 20.8109 782.477 21.0479C782.375 21.2764 782.235 21.4795 782.058 21.6572C781.88 21.835 781.673 21.9746 781.436 22.0762C781.199 22.1777 780.949 22.2285 780.687 22.2285C780.416 22.2285 780.162 22.1777 779.925 22.0762C779.696 21.9746 779.493 21.835 779.315 21.6572C779.138 21.4795 778.998 21.2764 778.896 21.0479C778.795 20.8109 778.744 20.557 778.744 20.2861C778.744 20.0238 778.795 19.7741 778.896 19.5371C778.998 19.3001 779.138 19.0928 779.315 18.915C779.493 18.7373 779.696 18.5977 779.925 18.4961C780.162 18.3861 780.416 18.3311 780.687 18.3311Z" fill="black"/>
<path d="M879.814 30.2539H881.833L881.896 32.6025C882.65 31.6969 883.39 31.041 884.118 30.6348C884.854 30.2285 885.595 30.0254 886.34 30.0254C887.66 30.0254 888.659 30.4528 889.336 31.3076C890.021 32.1624 890.339 33.432 890.288 35.1162H888.054C888.079 33.999 887.914 33.1908 887.559 32.6914C887.212 32.1836 886.7 31.9297 886.022 31.9297C885.726 31.9297 885.426 31.9847 885.121 32.0947C884.825 32.1963 884.516 32.3656 884.194 32.6025C883.881 32.8311 883.547 33.1273 883.191 33.4912C882.836 33.8551 882.455 34.2952 882.049 34.8115V43H879.814V30.2539ZM904.354 35.9541C904.354 36.2673 904.35 36.5296 904.342 36.7412C904.333 36.9528 904.321 37.1517 904.304 37.3379H895.354C895.354 38.6413 895.717 39.6442 896.445 40.3467C897.173 41.0407 898.223 41.3877 899.594 41.3877C899.966 41.3877 900.339 41.375 900.711 41.3496C901.083 41.3158 901.443 41.2734 901.79 41.2227C902.137 41.1719 902.467 41.1169 902.78 41.0576C903.102 40.9899 903.398 40.918 903.669 40.8418V42.6572C903.068 42.8265 902.387 42.9619 901.625 43.0635C900.872 43.1735 900.089 43.2285 899.276 43.2285C898.185 43.2285 897.245 43.0804 896.458 42.7842C895.671 42.488 895.023 42.0605 894.516 41.502C894.016 40.9349 893.644 40.2451 893.398 39.4326C893.161 38.6117 893.043 37.6849 893.043 36.6523C893.043 35.7552 893.17 34.9089 893.424 34.1133C893.686 33.3092 894.063 32.6068 894.554 32.0059C895.053 31.3965 895.662 30.9141 896.382 30.5586C897.101 30.2031 897.918 30.0254 898.832 30.0254C899.721 30.0254 900.508 30.165 901.193 30.4443C901.879 30.7236 902.454 31.1214 902.92 31.6377C903.394 32.1455 903.749 32.7676 903.986 33.5039C904.232 34.2318 904.354 35.0485 904.354 35.9541ZM902.057 35.6367C902.082 35.0697 902.027 34.5534 901.892 34.0879C901.756 33.6139 901.545 33.2077 901.257 32.8691C900.978 32.5306 900.626 32.2682 900.203 32.082C899.78 31.8874 899.289 31.79 898.73 31.79C898.248 31.79 897.808 31.8831 897.41 32.0693C897.012 32.2555 896.67 32.5179 896.382 32.8564C896.094 33.195 895.861 33.6012 895.684 34.0752C895.506 34.5492 895.396 35.0697 895.354 35.6367H902.057ZM918.776 36.3984C918.776 37.5326 918.616 38.5228 918.294 39.3691C917.981 40.2155 917.545 40.918 916.986 41.4766C916.428 42.0352 915.768 42.4541 915.006 42.7334C914.244 43.0127 913.419 43.1523 912.53 43.1523C912.124 43.1523 911.718 43.1312 911.312 43.0889C910.914 43.0465 910.507 42.9746 910.093 42.873V48.2051H907.884V30.2539H909.852L909.991 32.3867C910.626 31.515 911.303 30.9056 912.022 30.5586C912.742 30.2031 913.521 30.0254 914.358 30.0254C915.086 30.0254 915.725 30.1777 916.275 30.4824C916.826 30.7871 917.287 31.2188 917.659 31.7773C918.032 32.3275 918.311 32.9961 918.497 33.7832C918.683 34.5618 918.776 35.4336 918.776 36.3984ZM916.517 36.5C916.517 35.8314 916.466 35.2178 916.364 34.6592C916.271 34.1006 916.119 33.6224 915.907 33.2246C915.696 32.8268 915.425 32.5179 915.095 32.2979C914.765 32.0693 914.371 31.9551 913.914 31.9551C913.635 31.9551 913.351 32.0016 913.063 32.0947C912.776 32.1794 912.475 32.3275 912.162 32.5391C911.857 32.7422 911.532 33.0173 911.185 33.3643C910.846 33.7028 910.482 34.126 910.093 34.6338V40.8164C910.499 40.9857 910.926 41.1211 911.375 41.2227C911.824 41.3158 912.264 41.3623 912.695 41.3623C913.889 41.3623 914.824 40.9603 915.501 40.1562C916.178 39.3438 916.517 38.125 916.517 36.5ZM934.442 48.2051H920.147V46.377H934.442V48.2051ZM947.811 30.2539L943.469 41.6543C943.02 42.8138 942.555 43.8125 942.072 44.6504C941.598 45.4883 941.078 46.1738 940.511 46.707C939.944 47.2487 939.322 47.6465 938.645 47.9004C937.967 48.1543 937.21 48.2812 936.372 48.2812C936.152 48.2812 935.953 48.277 935.775 48.2686C935.598 48.2601 935.403 48.2474 935.191 48.2305V46.2246C935.378 46.25 935.581 46.2712 935.801 46.2881C936.021 46.3135 936.254 46.3262 936.499 46.3262C936.905 46.3262 937.282 46.2669 937.629 46.1484C937.984 46.0299 938.319 45.8353 938.632 45.5645C938.945 45.3021 939.245 44.9593 939.533 44.5361C939.821 44.113 940.1 43.6009 940.371 43L935.28 30.2539H937.794L941.019 38.6836L941.666 40.6641L942.402 38.6328L945.386 30.2539H947.811Z" fill="#FF5500"/>
<path d="M935.252 103.428C935.292 102.739 935.883 102.212 936.572 102.252L947.803 102.901C948.493 102.94 949.019 103.531 948.979 104.221C948.939 104.91 948.348 105.436 947.659 105.397L937.676 104.82L937.099 114.803C937.06 115.493 936.469 116.019 935.779 115.979C935.09 115.939 934.564 115.348 934.603 114.659L935.252 103.428ZM937.433 102.669L1014.93 189.669L1013.07 191.331L935.567 104.331L937.433 102.669Z" fill="black"/>
<circle cx="1013" cy="193" r="23.75" fill="white" stroke="black" stroke-width="2.5"/>
<path d="M1019.92 186.228L1011.89 203H1008.97L1017.31 186.228H1006.97V183.854H1019.92V186.228Z" fill="black"/>
<path d="M789.233 219.147C789.08 218.481 788.404 218.062 787.723 218.212L776.623 220.654C775.942 220.803 775.514 221.465 775.668 222.131C775.821 222.796 776.497 223.215 777.178 223.065L787.044 220.895L789.264 230.54C789.417 231.206 790.094 231.624 790.775 231.474C791.456 231.324 791.884 230.663 791.731 229.997L789.233 219.147ZM786.932 218.757L724.932 314.563L727.068 315.885L789.068 220.079L786.932 218.757Z" fill="black"/>
<path d="M827.767 219.147C827.92 218.481 828.596 218.062 829.277 218.212L840.377 220.654C841.058 220.803 841.486 221.465 841.332 222.131C841.179 222.796 840.503 223.215 839.822 223.065L829.956 220.895L827.736 230.54C827.583 231.206 826.906 231.624 826.225 231.474C825.544 231.324 825.116 230.663 825.269 229.997L827.767 219.147ZM830.068 218.757L892.068 314.563L889.932 315.885L827.932 220.079L830.068 218.757Z" fill="black"/>
<path d="M807.356 223.921C807.85 223.438 808.65 223.438 809.144 223.921L817.188 231.785C817.682 232.268 817.682 233.05 817.188 233.533C816.695 234.016 815.894 234.016 815.401 233.533L808.25 226.542L801.099 233.533C800.606 234.016 799.805 234.016 799.312 233.533C798.818 233.05 798.818 232.268 799.312 231.785L807.356 223.921ZM809.514 224.795L809.514 315.224L806.986 315.224L806.986 224.795L809.514 224.795Z" fill="black"/>
<path d="M777.261 203.862C777.309 203.181 776.784 202.591 776.088 202.543L764.738 201.773C764.042 201.726 763.438 202.24 763.39 202.921C763.341 203.602 763.867 204.192 764.563 204.239L774.651 204.923L773.951 214.786C773.903 215.467 774.429 216.057 775.125 216.104C775.821 216.151 776.425 215.638 776.474 214.957L777.261 203.862ZM775.17 202.844L644.17 314.292L645.83 316.156L776.83 204.708L775.17 202.844Z" fill="black"/>
<circle cx="644" cy="314" r="23.75" fill="white" stroke="black" stroke-width="2.5"/>
<path d="M650.857 322H638.831V319.627H643.753V305.652L639.168 308.143L638.23 305.975L644.324 302.767H646.58V319.627H650.857V322Z" fill="black"/>
<path d="M836.74 203.875C836.684 203.195 837.203 202.599 837.898 202.544L849.238 201.65C849.934 201.595 850.544 202.102 850.6 202.783C850.656 203.463 850.137 204.059 849.441 204.114L839.362 204.909L840.174 214.763C840.231 215.443 839.712 216.039 839.016 216.094C838.32 216.149 837.711 215.642 837.655 214.961L836.74 203.875ZM838.819 202.835L972.819 314.283L971.181 316.165L837.181 204.717L838.819 202.835Z" fill="black"/>
<circle cx="25" cy="25" r="23.75" transform="matrix(-1 0 0 1 997 289)" fill="white" stroke="black" stroke-width="2.5"/>
<path d="M978.535 315.877C978.535 316.824 978.33 317.688 977.92 318.47C977.51 319.251 976.943 319.925 976.221 320.491C975.508 321.048 974.663 321.482 973.687 321.795C972.71 322.107 971.655 322.264 970.522 322.264C970.239 322.264 969.932 322.254 969.6 322.234C969.277 322.225 968.955 322.205 968.633 322.176C968.311 322.156 967.993 322.132 967.681 322.103C967.378 322.073 967.104 322.039 966.86 322V319.686C967.388 319.812 967.988 319.905 968.662 319.964C969.346 320.022 970.034 320.052 970.728 320.052C971.509 320.052 972.212 319.959 972.837 319.773C973.462 319.588 973.994 319.324 974.434 318.982C974.873 318.631 975.21 318.211 975.444 317.723C975.679 317.225 975.796 316.668 975.796 316.053C975.796 314.861 975.366 313.997 974.507 313.46C973.657 312.913 972.432 312.64 970.83 312.64H967.197V302.854H977.51V305.081H969.6V310.457H971.27C972.188 310.457 973.081 310.54 973.95 310.706C974.819 310.872 975.591 311.165 976.265 311.585C976.948 311.995 977.495 312.552 977.905 313.255C978.325 313.948 978.535 314.822 978.535 315.877Z" fill="black"/>
<circle cx="726" cy="315" r="23.75" fill="white" stroke="black" stroke-width="2.5"/>
<path d="M733.019 323H720.406V320.715L725.357 315.793C726.168 314.992 726.827 314.299 727.335 313.713C727.843 313.127 728.238 312.595 728.521 312.116C728.805 311.628 728.995 311.169 729.093 310.739C729.19 310.31 729.239 309.846 729.239 309.348C729.239 308.879 729.176 308.435 729.049 308.015C728.922 307.585 728.727 307.209 728.463 306.887C728.199 306.564 727.857 306.311 727.438 306.125C727.018 305.939 726.515 305.847 725.929 305.847C725.118 305.847 724.381 306.027 723.717 306.389C723.053 306.75 722.442 307.219 721.886 307.795L720.479 306.11C721.202 305.349 722.032 304.738 722.97 304.279C723.917 303.82 725.016 303.591 726.266 303.591C727.115 303.591 727.887 303.718 728.58 303.972C729.283 304.226 729.889 304.592 730.396 305.07C730.904 305.549 731.295 306.135 731.568 306.828C731.852 307.521 731.993 308.303 731.993 309.172C731.993 309.904 731.896 310.583 731.7 311.208C731.505 311.833 731.207 312.458 730.807 313.083C730.416 313.698 729.918 314.338 729.312 315.002C728.717 315.666 728.009 316.394 727.188 317.185L723.717 320.568H733.019V323Z" fill="black"/>
<path d="M813.652 316.185C813.652 317.024 813.481 317.815 813.14 318.558C812.798 319.29 812.285 319.935 811.602 320.491C810.918 321.038 810.059 321.473 809.023 321.795C807.988 322.107 806.782 322.264 805.405 322.264C804.644 322.264 803.96 322.239 803.354 322.19C802.749 322.142 802.183 322.078 801.655 322V319.715C802.261 319.822 802.9 319.905 803.574 319.964C804.248 320.022 804.937 320.052 805.64 320.052C806.597 320.052 807.412 319.969 808.086 319.803C808.77 319.627 809.326 319.378 809.756 319.056C810.186 318.733 810.498 318.343 810.693 317.884C810.889 317.425 810.986 316.907 810.986 316.331C810.986 315.804 810.869 315.345 810.635 314.954C810.4 314.563 810.068 314.236 809.639 313.973C809.219 313.709 808.711 313.514 808.115 313.387C807.529 313.25 806.885 313.182 806.182 313.182H803.999V311.087H806.211C806.787 311.087 807.31 311.014 807.778 310.867C808.257 310.711 808.662 310.491 808.994 310.208C809.336 309.925 809.595 309.578 809.771 309.168C809.956 308.748 810.049 308.274 810.049 307.747C810.049 306.722 809.736 305.975 809.111 305.506C808.486 305.037 807.568 304.803 806.357 304.803C805.713 304.803 805.049 304.866 804.365 304.993C803.682 305.12 802.949 305.311 802.168 305.564V303.338C802.5 303.221 802.852 303.118 803.223 303.03C803.604 302.933 803.979 302.854 804.351 302.796C804.731 302.728 805.107 302.679 805.479 302.649C805.85 302.61 806.206 302.591 806.548 302.591C807.563 302.591 808.457 302.703 809.229 302.928C810 303.143 810.645 303.455 811.162 303.865C811.68 304.275 812.07 304.773 812.334 305.359C812.598 305.945 812.729 306.604 812.729 307.337C812.729 308.431 812.446 309.349 811.88 310.091C811.323 310.833 810.557 311.424 809.58 311.863C810.078 311.941 810.566 312.098 811.045 312.332C811.533 312.566 811.968 312.869 812.349 313.24C812.739 313.602 813.052 314.031 813.286 314.529C813.53 315.027 813.652 315.579 813.652 316.185Z" fill="black"/>
<circle cx="808" cy="314" r="23.75" fill="white" stroke="black" stroke-width="2.5"/>
<path d="M813.652 317.185C813.652 318.024 813.481 318.815 813.14 319.558C812.798 320.29 812.285 320.935 811.602 321.491C810.918 322.038 810.059 322.473 809.023 322.795C807.988 323.107 806.782 323.264 805.405 323.264C804.644 323.264 803.96 323.239 803.354 323.19C802.749 323.142 802.183 323.078 801.655 323V320.715C802.261 320.822 802.9 320.905 803.574 320.964C804.248 321.022 804.937 321.052 805.64 321.052C806.597 321.052 807.412 320.969 808.086 320.803C808.77 320.627 809.326 320.378 809.756 320.056C810.186 319.733 810.498 319.343 810.693 318.884C810.889 318.425 810.986 317.907 810.986 317.331C810.986 316.804 810.869 316.345 810.635 315.954C810.4 315.563 810.068 315.236 809.639 314.973C809.219 314.709 808.711 314.514 808.115 314.387C807.529 314.25 806.885 314.182 806.182 314.182H803.999V312.087H806.211C806.787 312.087 807.31 312.014 807.778 311.867C808.257 311.711 808.662 311.491 808.994 311.208C809.336 310.925 809.595 310.578 809.771 310.168C809.956 309.748 810.049 309.274 810.049 308.747C810.049 307.722 809.736 306.975 809.111 306.506C808.486 306.037 807.568 305.803 806.357 305.803C805.713 305.803 805.049 305.866 804.365 305.993C803.682 306.12 802.949 306.311 802.168 306.564V304.338C802.5 304.221 802.852 304.118 803.223 304.03C803.604 303.933 803.979 303.854 804.351 303.796C804.731 303.728 805.107 303.679 805.479 303.649C805.85 303.61 806.206 303.591 806.548 303.591C807.563 303.591 808.457 303.703 809.229 303.928C810 304.143 810.645 304.455 811.162 304.865C811.68 305.275 812.07 305.773 812.334 306.359C812.598 306.945 812.729 307.604 812.729 308.337C812.729 309.431 812.446 310.349 811.88 311.091C811.323 311.833 810.557 312.424 809.58 312.863C810.078 312.941 810.566 313.098 811.045 313.332C811.533 313.566 811.968 313.869 812.349 314.24C812.739 314.602 813.052 315.031 813.286 315.529C813.53 316.027 813.652 316.579 813.652 317.185Z" fill="black"/>
<circle cx="25" cy="25" r="23.75" transform="matrix(-1 0 0 1 915 289)" fill="white" stroke="black" stroke-width="2.5"/>
<path d="M896.971 319.767H893.704V324H891.097V319.767H881.883V317.525L890.042 304.854H893.704V317.525H896.971V319.767ZM891.097 307.315L884.432 317.525H891.097V307.315Z" fill="black"/>
</svg>
