<svg width="316" height="230" viewBox="0 0 316 230" fill="none" xmlns="http://www.w3.org/2000/svg">
<g clip-path="url(#clip0_1187_2732)">
<circle cx="156" cy="25" r="23.75" stroke="black" stroke-width="2.5"/>
<path d="M162.535 28.877C162.535 29.8242 162.33 30.6885 161.92 31.4697C161.51 32.251 160.943 32.9248 160.221 33.4912C159.508 34.0479 158.663 34.4824 157.687 34.7949C156.71 35.1074 155.655 35.2637 154.522 35.2637C154.239 35.2637 153.932 35.2539 153.6 35.2344C153.277 35.2246 152.955 35.2051 152.633 35.1758C152.311 35.1562 151.993 35.1318 151.681 35.1025C151.378 35.0732 151.104 35.0391 150.86 35V32.6855C151.388 32.8125 151.988 32.9053 152.662 32.9639C153.346 33.0225 154.034 33.0518 154.728 33.0518C155.509 33.0518 156.212 32.959 156.837 32.7734C157.462 32.5879 157.994 32.3242 158.434 31.9824C158.873 31.6309 159.21 31.2109 159.444 30.7227C159.679 30.2246 159.796 29.668 159.796 29.0527C159.796 27.8613 159.366 26.9971 158.507 26.46C157.657 25.9131 156.432 25.6396 154.83 25.6396H151.197V15.8545H161.51V18.0811H153.6V23.457H155.27C156.188 23.457 157.081 23.54 157.95 23.7061C158.819 23.8721 159.591 24.165 160.265 24.585C160.948 24.9951 161.495 25.5518 161.905 26.2549C162.325 26.9482 162.535 27.8223 162.535 28.877Z" fill="black"/>
<circle cx="75" cy="115" r="23.75" stroke="black" stroke-width="2.5"/>
<circle cx="241" cy="115" r="23.75" stroke="black" stroke-width="2.5"/>
<path d="M81.916 114.351C81.916 116.216 81.6914 117.822 81.2422 119.17C80.793 120.508 80.1289 121.611 79.25 122.48C78.3711 123.34 77.2822 123.975 75.9834 124.385C74.6846 124.795 73.1855 125 71.4863 125H69.8896V122.773H71.6621C72.9219 122.773 74.0107 122.646 74.9287 122.393C75.8467 122.139 76.6084 121.768 77.2139 121.279C77.8291 120.781 78.2979 120.181 78.6201 119.478C78.9424 118.765 79.1426 117.954 79.2207 117.046L79.2793 116.445C78.6641 116.807 77.9561 117.1 77.1553 117.324C76.3545 117.539 75.4854 117.646 74.5479 117.646C73.5811 117.646 72.7314 117.505 71.999 117.222C71.2666 116.938 70.6562 116.543 70.168 116.035C69.6895 115.527 69.3281 114.927 69.084 114.233C68.8398 113.53 68.7178 112.769 68.7178 111.948C68.7178 111.06 68.8789 110.229 69.2012 109.458C69.5234 108.687 69.9727 108.018 70.5488 107.451C71.1348 106.875 71.833 106.421 72.6436 106.089C73.4541 105.757 74.3477 105.591 75.3242 105.591C76.2715 105.591 77.1455 105.747 77.9463 106.06C78.7568 106.372 79.4551 106.88 80.041 107.583C80.627 108.276 81.0859 109.18 81.418 110.293C81.75 111.406 81.916 112.759 81.916 114.351ZM75.207 107.686C74.6602 107.686 74.1523 107.778 73.6836 107.964C73.2246 108.14 72.8242 108.403 72.4824 108.755C72.1504 109.097 71.8867 109.521 71.6914 110.029C71.4961 110.537 71.3984 111.118 71.3984 111.772C71.3984 112.368 71.4668 112.9 71.6035 113.369C71.75 113.838 71.9697 114.238 72.2627 114.57C72.5654 114.893 72.9512 115.142 73.4199 115.317C73.8887 115.493 74.4453 115.581 75.0898 115.581C75.4512 115.581 75.8223 115.547 76.2031 115.479C76.5938 115.41 76.9697 115.317 77.3311 115.2C77.7021 115.083 78.0537 114.946 78.3857 114.79C78.7178 114.634 79.0156 114.468 79.2793 114.292C79.2793 113.032 79.1865 111.982 79.001 111.143C78.8154 110.293 78.5469 109.614 78.1953 109.106C77.8438 108.589 77.4141 108.223 76.9062 108.008C76.4082 107.793 75.8418 107.686 75.207 107.686Z" fill="black"/>
<path d="M247.652 119.185C247.652 120.024 247.481 120.815 247.14 121.558C246.798 122.29 246.285 122.935 245.602 123.491C244.918 124.038 244.059 124.473 243.023 124.795C241.988 125.107 240.782 125.264 239.405 125.264C238.644 125.264 237.96 125.239 237.354 125.19C236.749 125.142 236.183 125.078 235.655 125V122.715C236.261 122.822 236.9 122.905 237.574 122.964C238.248 123.022 238.937 123.052 239.64 123.052C240.597 123.052 241.412 122.969 242.086 122.803C242.77 122.627 243.326 122.378 243.756 122.056C244.186 121.733 244.498 121.343 244.693 120.884C244.889 120.425 244.986 119.907 244.986 119.331C244.986 118.804 244.869 118.345 244.635 117.954C244.4 117.563 244.068 117.236 243.639 116.973C243.219 116.709 242.711 116.514 242.115 116.387C241.529 116.25 240.885 116.182 240.182 116.182H237.999V114.087H240.211C240.787 114.087 241.31 114.014 241.778 113.867C242.257 113.711 242.662 113.491 242.994 113.208C243.336 112.925 243.595 112.578 243.771 112.168C243.956 111.748 244.049 111.274 244.049 110.747C244.049 109.722 243.736 108.975 243.111 108.506C242.486 108.037 241.568 107.803 240.357 107.803C239.713 107.803 239.049 107.866 238.365 107.993C237.682 108.12 236.949 108.311 236.168 108.564V106.338C236.5 106.221 236.852 106.118 237.223 106.03C237.604 105.933 237.979 105.854 238.351 105.796C238.731 105.728 239.107 105.679 239.479 105.649C239.85 105.61 240.206 105.591 240.548 105.591C241.563 105.591 242.457 105.703 243.229 105.928C244 106.143 244.645 106.455 245.162 106.865C245.68 107.275 246.07 107.773 246.334 108.359C246.598 108.945 246.729 109.604 246.729 110.337C246.729 111.431 246.446 112.349 245.88 113.091C245.323 113.833 244.557 114.424 243.58 114.863C244.078 114.941 244.566 115.098 245.045 115.332C245.533 115.566 245.968 115.869 246.349 116.24C246.739 116.602 247.052 117.031 247.286 117.529C247.53 118.027 247.652 118.579 247.652 119.185Z" fill="black"/>
<circle cx="25" cy="25" r="23.75" transform="matrix(-1 0 0 1 316 180)" stroke="black" stroke-width="2.5"/>
<circle cx="25" cy="25" r="23.75" transform="matrix(-1 0 0 1 50 180)" stroke="black" stroke-width="2.5"/>
<path d="M296.916 198.228L288.889 215H285.974L294.309 198.228H283.967V195.854H296.916V198.228Z" fill="black"/>
<path d="M32.0186 214H19.4062V211.715L24.3574 206.793C25.168 205.992 25.8271 205.299 26.335 204.713C26.8428 204.127 27.2383 203.595 27.5215 203.116C27.8047 202.628 27.9951 202.169 28.0928 201.739C28.1904 201.31 28.2393 200.846 28.2393 200.348C28.2393 199.879 28.1758 199.435 28.0488 199.015C27.9219 198.585 27.7266 198.209 27.4629 197.887C27.1992 197.564 26.8574 197.311 26.4375 197.125C26.0176 196.939 25.5146 196.847 24.9287 196.847C24.1182 196.847 23.3809 197.027 22.7168 197.389C22.0527 197.75 21.4424 198.219 20.8857 198.795L19.4795 197.11C20.2021 196.349 21.0322 195.738 21.9697 195.279C22.917 194.82 24.0156 194.591 25.2656 194.591C26.1152 194.591 26.8867 194.718 27.5801 194.972C28.2832 195.226 28.8887 195.592 29.3965 196.07C29.9043 196.549 30.2949 197.135 30.5684 197.828C30.8516 198.521 30.9932 199.303 30.9932 200.172C30.9932 200.904 30.8955 201.583 30.7002 202.208C30.5049 202.833 30.207 203.458 29.8066 204.083C29.416 204.698 28.918 205.338 28.3125 206.002C27.7168 206.666 27.0088 207.394 26.1885 208.185L22.7168 211.568H32.0186V214Z" fill="black"/>
<circle cx="25" cy="25" r="23.75" transform="matrix(-1 0 0 1 216 180)" stroke="black" stroke-width="2.5"/>
<path d="M197.971 210.767H194.704V215H192.097V210.767H182.883V208.525L191.042 195.854H194.704V208.525H197.971V210.767ZM192.097 198.315L185.432 208.525H192.097V198.315Z" fill="black"/>
<line x1="140.884" y1="41.8839" x2="87.8839" y2="94.8839" stroke="black" stroke-width="2.5"/>
<line x1="171.876" y1="42.108" x2="226.876" y2="96.108" stroke="black" stroke-width="2.5"/>
<line y1="-1.25" x2="54.9181" y2="-1.25" transform="matrix(-0.546268 -0.837611 -0.837611 0.546268 282 183)" stroke="black" stroke-width="2.5"/>
<line x1="198.953" y1="182.317" x2="228.953" y2="136.317" stroke="black" stroke-width="2.5"/>
<line x1="31.953" y1="182.317" x2="61.953" y2="136.317" stroke="black" stroke-width="2.5"/>
</g>
<defs>
<clipPath id="clip0_1187_2732">
<rect width="316" height="230" fill="white"/>
</clipPath>
</defs>
</svg>
