<svg width="591" height="363" viewBox="0 0 591 363" fill="none" xmlns="http://www.w3.org/2000/svg">
<g clip-path="url(#clip0_6295_4219)">
<rect width="591" height="363" fill="white"/>
<path opacity="0.5" d="M5.904 161.76C4.76 161.76 3.75467 161.543 2.888 161.11C2.03867 160.677 1.38 160.053 0.912 159.238C0.444 158.406 0.21 157.427 0.21 156.3V152.4C0.21 151.256 0.444 150.277 0.912 149.462C1.38 148.647 2.03867 148.023 2.888 147.59C3.75467 147.157 4.76 146.94 5.904 146.94C7.55067 146.94 8.87667 147.382 9.882 148.266C10.8873 149.15 11.416 150.355 11.468 151.88H9.128C9.076 150.961 8.764 150.259 8.192 149.774C7.63733 149.271 6.87467 149.02 5.904 149.02C4.88133 149.02 4.06667 149.315 3.46 149.904C2.85333 150.476 2.55 151.299 2.55 152.374V156.3C2.55 157.375 2.85333 158.207 3.46 158.796C4.06667 159.385 4.88133 159.68 5.904 159.68C6.87467 159.68 7.63733 159.429 8.192 158.926C8.764 158.423 9.076 157.721 9.128 156.82H11.468C11.416 158.345 10.8873 159.55 9.882 160.434C8.87667 161.318 7.55067 161.76 5.904 161.76ZM20.1418 161.76C18.6338 161.76 17.4465 161.379 16.5798 160.616C15.7132 159.836 15.2798 158.787 15.2798 157.47C15.2798 156.135 15.7132 155.087 16.5798 154.324C17.4465 153.561 18.6165 153.18 20.0898 153.18H24.5098V151.75C24.5098 150.866 24.2412 150.19 23.7038 149.722C23.1838 149.237 22.4385 148.994 21.4678 148.994C20.6185 148.994 19.9078 149.176 19.3358 149.54C18.7638 149.887 18.4345 150.363 18.3478 150.97H16.0078C16.1638 149.739 16.7445 148.76 17.7498 148.032C18.7552 147.304 20.0118 146.94 21.5198 146.94C23.1665 146.94 24.4665 147.365 25.4198 148.214C26.3732 149.063 26.8498 150.216 26.8498 151.672V161.5H24.5618V158.77H24.1718L24.5618 158.38C24.5618 159.42 24.1545 160.243 23.3398 160.85C22.5425 161.457 21.4765 161.76 20.1418 161.76ZM20.7138 159.914C21.8232 159.914 22.7332 159.637 23.4438 159.082C24.1545 158.527 24.5098 157.817 24.5098 156.95V154.922H20.1418C19.3618 154.922 18.7465 155.139 18.2958 155.572C17.8452 156.005 17.6198 156.595 17.6198 157.34C17.6198 158.137 17.8885 158.77 18.4258 159.238C18.9805 159.689 19.7432 159.914 20.7138 159.914ZM31.5717 161.5V147.2H33.9117V149.93H34.4057L33.9117 150.476C33.9117 149.349 34.2497 148.483 34.9257 147.876C35.6017 147.252 36.5377 146.94 37.7337 146.94C39.1724 146.94 40.3164 147.382 41.1657 148.266C42.015 149.15 42.4397 150.355 42.4397 151.88V161.5H40.0997V152.14C40.0997 151.117 39.8224 150.337 39.2677 149.8C38.7304 149.245 37.9937 148.968 37.0577 148.968C36.087 148.968 35.3157 149.263 34.7437 149.852C34.189 150.441 33.9117 151.291 33.9117 152.4V161.5H31.5717ZM51.7375 161.76C50.3162 161.76 49.1635 161.283 48.2795 160.33C47.4129 159.377 46.9795 158.085 46.9795 156.456V152.27C46.9795 150.623 47.4129 149.323 48.2795 148.37C49.1462 147.417 50.2989 146.94 51.7375 146.94C52.9162 146.94 53.8609 147.261 54.5715 147.902C55.2822 148.543 55.6375 149.401 55.6375 150.476L55.1695 149.93H55.6895L55.6375 146.68V142.52H57.9775V161.5H55.6375V158.77H55.1695L55.6375 158.224C55.6375 159.316 55.2822 160.183 54.5715 160.824C53.8609 161.448 52.9162 161.76 51.7375 161.76ZM52.5175 159.732C53.4882 159.732 54.2509 159.429 54.8055 158.822C55.3602 158.215 55.6375 157.375 55.6375 156.3V152.4C55.6375 151.325 55.3602 150.485 54.8055 149.878C54.2509 149.271 53.4882 148.968 52.5175 148.968C51.5295 148.968 50.7495 149.263 50.1775 149.852C49.6055 150.441 49.3195 151.291 49.3195 152.4V156.3C49.3195 157.409 49.6055 158.259 50.1775 158.848C50.7495 159.437 51.5295 159.732 52.5175 159.732ZM62.5694 161.5V159.368H67.6394V149.332H63.2194V147.2H69.9794V159.368H74.7894V161.5H62.5694ZM68.5494 144.626C67.9774 144.626 67.5267 144.479 67.1974 144.184C66.868 143.889 66.7034 143.491 66.7034 142.988C66.7034 142.468 66.868 142.061 67.1974 141.766C67.5267 141.454 67.9774 141.298 68.5494 141.298C69.1214 141.298 69.572 141.454 69.9014 141.766C70.2307 142.061 70.3954 142.468 70.3954 142.988C70.3954 143.491 70.2307 143.889 69.9014 144.184C69.572 144.479 69.1214 144.626 68.5494 144.626ZM83.7492 161.76C82.6226 161.76 81.6346 161.535 80.7852 161.084C79.9532 160.633 79.3032 160.001 78.8352 159.186C78.3846 158.354 78.1592 157.392 78.1592 156.3V152.4C78.1592 151.291 78.3846 150.329 78.8352 149.514C79.3032 148.699 79.9532 148.067 80.7852 147.616C81.6346 147.165 82.6226 146.94 83.7492 146.94C84.8759 146.94 85.8552 147.165 86.6872 147.616C87.5366 148.067 88.1866 148.699 88.6372 149.514C89.1052 150.329 89.3392 151.291 89.3392 152.4V154.922H80.4472V156.3C80.4472 157.427 80.7332 158.293 81.3052 158.9C81.8772 159.489 82.6919 159.784 83.7492 159.784C84.6506 159.784 85.3786 159.628 85.9332 159.316C86.4879 158.987 86.8259 158.501 86.9472 157.86H89.2872C89.1312 159.056 88.5419 160.009 87.5192 160.72C86.5139 161.413 85.2572 161.76 83.7492 161.76ZM87.0512 153.362V152.4C87.0512 151.273 86.7652 150.407 86.1932 149.8C85.6386 149.193 84.8239 148.89 83.7492 148.89C82.6919 148.89 81.8772 149.193 81.3052 149.8C80.7332 150.407 80.4472 151.273 80.4472 152.4V153.154H87.2332L87.0512 153.362ZM98.8971 161.708C97.9264 161.708 97.0771 161.561 96.3491 161.266C95.6384 160.954 95.0664 160.521 94.6331 159.966C94.2171 159.411 93.9657 158.753 93.8791 157.99H96.2191C96.3231 158.493 96.6004 158.891 97.0511 159.186C97.5191 159.481 98.1344 159.628 98.8971 159.628H99.9891C100.908 159.628 101.592 159.446 102.043 159.082C102.494 158.701 102.719 158.198 102.719 157.574C102.719 156.967 102.511 156.491 102.095 156.144C101.696 155.78 101.098 155.537 100.301 155.416L98.3771 155.104C96.9731 154.861 95.9244 154.428 95.2311 153.804C94.5551 153.163 94.2171 152.235 94.2171 151.022C94.2171 149.739 94.6244 148.751 95.4391 148.058C96.2537 147.347 97.4757 146.992 99.1051 146.992H100.093C101.462 146.992 102.563 147.313 103.395 147.954C104.227 148.595 104.73 149.462 104.903 150.554H102.563C102.459 150.103 102.199 149.748 101.783 149.488C101.367 149.211 100.804 149.072 100.093 149.072H99.1051C98.2211 149.072 97.5711 149.237 97.1551 149.566C96.7564 149.895 96.5571 150.389 96.5571 151.048C96.5571 151.637 96.7304 152.071 97.0771 152.348C97.4237 152.625 97.9697 152.825 98.7151 152.946L100.639 153.258C102.182 153.501 103.3 153.951 103.993 154.61C104.704 155.269 105.059 156.222 105.059 157.47C105.059 158.787 104.634 159.827 103.785 160.59C102.953 161.335 101.688 161.708 99.9891 161.708H98.8971Z" fill="black"/>
<path opacity="0.5" d="M312.886 358V343.7H315.174V346.43H315.72L314.966 348.12C314.966 346.577 315.295 345.416 315.954 344.636C316.63 343.839 317.627 343.44 318.944 343.44C320.452 343.44 321.648 343.917 322.532 344.87C323.433 345.806 323.884 347.08 323.884 348.692V349.55H321.544V348.9C321.544 347.773 321.267 346.915 320.712 346.326C320.175 345.719 319.403 345.416 318.398 345.416C317.41 345.416 316.63 345.719 316.058 346.326C315.503 346.933 315.226 347.791 315.226 348.9V358H312.886ZM332.142 358.26C330.634 358.26 329.447 357.879 328.58 357.116C327.713 356.336 327.28 355.287 327.28 353.97C327.28 352.635 327.713 351.587 328.58 350.824C329.447 350.061 330.617 349.68 332.09 349.68H336.51V348.25C336.51 347.366 336.241 346.69 335.704 346.222C335.184 345.737 334.439 345.494 333.468 345.494C332.619 345.494 331.908 345.676 331.336 346.04C330.764 346.387 330.435 346.863 330.348 347.47H328.008C328.164 346.239 328.745 345.26 329.75 344.532C330.755 343.804 332.012 343.44 333.52 343.44C335.167 343.44 336.467 343.865 337.42 344.714C338.373 345.563 338.85 346.716 338.85 348.172V358H336.562V355.27H336.172L336.562 354.88C336.562 355.92 336.155 356.743 335.34 357.35C334.543 357.957 333.477 358.26 332.142 358.26ZM332.714 356.414C333.823 356.414 334.733 356.137 335.444 355.582C336.155 355.027 336.51 354.317 336.51 353.45V351.422H332.142C331.362 351.422 330.747 351.639 330.296 352.072C329.845 352.505 329.62 353.095 329.62 353.84C329.62 354.637 329.889 355.27 330.426 355.738C330.981 356.189 331.743 356.414 332.714 356.414ZM350.54 358C349.309 358 348.347 357.671 347.654 357.012C346.978 356.353 346.64 355.426 346.64 354.23V345.832H342.61V343.7H346.64V339.67H348.98V343.7H354.7V345.832H348.98V354.23C348.98 355.322 349.5 355.868 350.54 355.868H354.44V358H350.54ZM358.98 358V355.868H364.05V345.832H359.63V343.7H366.39V355.868H371.2V358H358.98ZM364.96 341.126C364.388 341.126 363.937 340.979 363.608 340.684C363.278 340.389 363.114 339.991 363.114 339.488C363.114 338.968 363.278 338.561 363.608 338.266C363.937 337.954 364.388 337.798 364.96 337.798C365.532 337.798 365.982 337.954 366.312 338.266C366.641 338.561 366.806 338.968 366.806 339.488C366.806 339.991 366.641 340.389 366.312 340.684C365.982 340.979 365.532 341.126 364.96 341.126ZM374.751 358V343.7H377.091V346.43H377.585L377.091 346.976C377.091 345.849 377.429 344.983 378.105 344.376C378.781 343.752 379.717 343.44 380.913 343.44C382.352 343.44 383.496 343.882 384.345 344.766C385.195 345.65 385.619 346.855 385.619 348.38V358H383.279V348.64C383.279 347.617 383.002 346.837 382.447 346.3C381.91 345.745 381.173 345.468 380.237 345.468C379.267 345.468 378.495 345.763 377.923 346.352C377.369 346.941 377.091 347.791 377.091 348.9V358H374.751ZM392.135 362.68V360.548H396.685C397.413 360.548 397.942 360.383 398.271 360.054C398.618 359.725 398.791 359.213 398.791 358.52V356.7L398.843 354.1H398.375L398.817 353.71C398.817 354.75 398.471 355.573 397.777 356.18C397.084 356.787 396.157 357.09 394.995 357.09C393.522 357.09 392.361 356.613 391.511 355.66C390.662 354.689 390.237 353.389 390.237 351.76V348.744C390.237 347.115 390.662 345.823 391.511 344.87C392.361 343.917 393.522 343.44 394.995 343.44C396.157 343.44 397.084 343.743 397.777 344.35C398.471 344.957 398.817 345.78 398.817 346.82L398.375 346.43H398.817V343.7H401.131V358.52C401.131 359.803 400.733 360.817 399.935 361.562C399.155 362.307 398.063 362.68 396.659 362.68H392.135ZM395.697 355.062C396.668 355.062 397.431 354.759 397.985 354.152C398.54 353.545 398.817 352.705 398.817 351.63V348.9C398.817 347.825 398.54 346.985 397.985 346.378C397.431 345.771 396.668 345.468 395.697 345.468C394.709 345.468 393.938 345.763 393.383 346.352C392.846 346.941 392.577 347.791 392.577 348.9V351.63C392.577 352.739 392.846 353.589 393.383 354.178C393.938 354.767 394.709 355.062 395.697 355.062ZM410.897 358.208C409.926 358.208 409.077 358.061 408.349 357.766C407.638 357.454 407.066 357.021 406.633 356.466C406.217 355.911 405.966 355.253 405.879 354.49H408.219C408.323 354.993 408.6 355.391 409.051 355.686C409.519 355.981 410.134 356.128 410.897 356.128H411.989C412.908 356.128 413.592 355.946 414.043 355.582C414.494 355.201 414.719 354.698 414.719 354.074C414.719 353.467 414.511 352.991 414.095 352.644C413.696 352.28 413.098 352.037 412.301 351.916L410.377 351.604C408.973 351.361 407.924 350.928 407.231 350.304C406.555 349.663 406.217 348.735 406.217 347.522C406.217 346.239 406.624 345.251 407.439 344.558C408.254 343.847 409.476 343.492 411.105 343.492H412.093C413.462 343.492 414.563 343.813 415.395 344.454C416.227 345.095 416.73 345.962 416.903 347.054H414.563C414.459 346.603 414.199 346.248 413.783 345.988C413.367 345.711 412.804 345.572 412.093 345.572H411.105C410.221 345.572 409.571 345.737 409.155 346.066C408.756 346.395 408.557 346.889 408.557 347.548C408.557 348.137 408.73 348.571 409.077 348.848C409.424 349.125 409.97 349.325 410.715 349.446L412.639 349.758C414.182 350.001 415.3 350.451 415.993 351.11C416.704 351.769 417.059 352.722 417.059 353.97C417.059 355.287 416.634 356.327 415.785 357.09C414.953 357.835 413.688 358.208 411.989 358.208H410.897Z" fill="black"/>
<path d="M141 268.5L139.5 268.5L139.5 270L141 270L141 268.5ZM142.061 0.939362C141.475 0.353577 140.525 0.353577 139.939 0.939362L130.393 10.4853C129.808 11.0711 129.808 12.0208 130.393 12.6066C130.979 13.1924 131.929 13.1924 132.515 12.6066L141 4.12134L149.485 12.6066C150.071 13.1924 151.021 13.1924 151.607 12.6066C152.192 12.0208 152.192 11.0711 151.607 10.4853L142.061 0.939362ZM590.061 269.561C590.646 268.975 590.646 268.025 590.061 267.439L580.515 257.893C579.929 257.308 578.979 257.308 578.393 257.893C577.808 258.479 577.808 259.429 578.393 260.015L586.879 268.5L578.393 276.985C577.808 277.571 577.808 278.521 578.393 279.107C578.979 279.692 579.929 279.692 580.515 279.107L590.061 269.561ZM142.5 268.5L142.5 2.00003L139.5 2.00003L139.5 268.5L142.5 268.5ZM141 270L589 270L589 267L141 267L141 270Z" fill="black"/>
<path d="M121.103 265.485C121.103 266.56 120.995 267.541 120.78 268.429C120.565 269.31 120.24 270.069 119.803 270.706C119.366 271.336 118.822 271.827 118.17 272.178C117.525 272.521 116.766 272.693 115.893 272.693C115.141 272.693 114.457 272.554 113.841 272.274C113.225 271.988 112.699 271.551 112.262 270.964C111.825 270.377 111.488 269.628 111.252 268.719C111.016 267.809 110.897 266.731 110.897 265.485C110.897 264.411 111.005 263.43 111.22 262.542C111.442 261.654 111.768 260.895 112.197 260.265C112.634 259.627 113.178 259.137 113.83 258.793C114.482 258.442 115.241 258.267 116.107 258.267C116.859 258.267 117.543 258.41 118.159 258.696C118.775 258.976 119.301 259.412 119.738 260.007C120.175 260.594 120.512 261.342 120.748 262.252C120.984 263.161 121.103 264.239 121.103 265.485ZM119.212 265.55C119.212 265.306 119.201 265.066 119.18 264.83C119.165 264.587 119.147 264.35 119.126 264.121L113.186 268.536C113.293 268.909 113.429 269.252 113.594 269.567C113.758 269.882 113.955 270.155 114.185 270.384C114.421 270.606 114.686 270.781 114.979 270.91C115.28 271.032 115.62 271.093 116 271.093C116.487 271.093 116.927 270.975 117.321 270.738C117.722 270.502 118.062 270.151 118.342 269.686C118.621 269.22 118.836 268.644 118.986 267.956C119.137 267.261 119.212 266.459 119.212 265.55ZM112.788 265.421C112.788 265.643 112.788 265.865 112.788 266.087C112.795 266.309 112.81 266.524 112.831 266.731L118.771 262.338C118.664 261.973 118.528 261.64 118.363 261.339C118.199 261.038 118.002 260.78 117.772 260.565C117.543 260.343 117.282 260.172 116.988 260.05C116.695 259.928 116.365 259.867 116 259.867C115.513 259.867 115.069 259.985 114.668 260.222C114.274 260.458 113.938 260.812 113.658 261.285C113.379 261.751 113.164 262.331 113.014 263.025C112.863 263.713 112.788 264.511 112.788 265.421Z" fill="black"/>
<path opacity="0.5" d="M187.639 318.623C187.639 319.6 187.541 320.492 187.346 321.299C187.15 322.1 186.854 322.79 186.457 323.369C186.06 323.942 185.565 324.388 184.973 324.707C184.387 325.02 183.697 325.176 182.902 325.176C182.219 325.176 181.597 325.049 181.037 324.795C180.477 324.535 179.999 324.137 179.602 323.604C179.204 323.07 178.898 322.389 178.684 321.562C178.469 320.736 178.361 319.756 178.361 318.623C178.361 317.646 178.459 316.755 178.654 315.947C178.856 315.14 179.152 314.45 179.543 313.877C179.94 313.298 180.435 312.852 181.027 312.539C181.62 312.22 182.31 312.061 183.098 312.061C183.781 312.061 184.403 312.191 184.963 312.451C185.523 312.705 186.001 313.102 186.398 313.643C186.796 314.176 187.102 314.857 187.316 315.684C187.531 316.51 187.639 317.49 187.639 318.623ZM185.92 318.682C185.92 318.46 185.91 318.242 185.891 318.027C185.878 317.806 185.861 317.591 185.842 317.383L180.441 321.396C180.539 321.735 180.663 322.048 180.812 322.334C180.962 322.62 181.141 322.868 181.35 323.076C181.564 323.278 181.805 323.438 182.072 323.555C182.346 323.665 182.655 323.721 183 323.721C183.443 323.721 183.843 323.613 184.201 323.398C184.566 323.184 184.875 322.865 185.129 322.441C185.383 322.018 185.578 321.494 185.715 320.869C185.852 320.238 185.92 319.508 185.92 318.682ZM180.08 318.564C180.08 318.766 180.08 318.968 180.08 319.17C180.087 319.372 180.1 319.567 180.119 319.756L185.52 315.762C185.422 315.43 185.298 315.127 185.148 314.854C184.999 314.58 184.82 314.346 184.611 314.15C184.403 313.949 184.165 313.792 183.898 313.682C183.632 313.571 183.332 313.516 183 313.516C182.557 313.516 182.154 313.623 181.789 313.838C181.431 314.053 181.125 314.375 180.871 314.805C180.617 315.228 180.422 315.755 180.285 316.387C180.148 317.012 180.08 317.738 180.08 318.564Z" fill="black"/>
<path opacity="0.5" d="M259.238 325H251.221V323.418H254.502V314.102L251.445 315.762L250.82 314.316L254.883 312.178H256.387V323.418H259.238V325Z" fill="black"/>
<path opacity="0.5" d="M330.346 325H321.938V323.477L325.238 320.195C325.779 319.661 326.218 319.199 326.557 318.809C326.895 318.418 327.159 318.063 327.348 317.744C327.536 317.419 327.663 317.113 327.729 316.826C327.794 316.54 327.826 316.23 327.826 315.898C327.826 315.586 327.784 315.29 327.699 315.01C327.615 314.723 327.484 314.473 327.309 314.258C327.133 314.043 326.905 313.874 326.625 313.75C326.345 313.626 326.01 313.564 325.619 313.564C325.079 313.564 324.587 313.685 324.145 313.926C323.702 314.167 323.295 314.479 322.924 314.863L321.986 313.74C322.468 313.232 323.021 312.826 323.646 312.52C324.278 312.214 325.01 312.061 325.844 312.061C326.41 312.061 326.924 312.145 327.387 312.314C327.855 312.484 328.259 312.728 328.598 313.047C328.936 313.366 329.197 313.757 329.379 314.219C329.568 314.681 329.662 315.202 329.662 315.781C329.662 316.27 329.597 316.722 329.467 317.139C329.337 317.555 329.138 317.972 328.871 318.389C328.611 318.799 328.279 319.225 327.875 319.668C327.478 320.111 327.006 320.596 326.459 321.123L324.145 323.379H330.346V325Z" fill="black"/>
<path opacity="0.5" d="M401.102 321.123C401.102 321.683 400.988 322.21 400.76 322.705C400.532 323.193 400.19 323.623 399.734 323.994C399.279 324.359 398.706 324.648 398.016 324.863C397.326 325.072 396.521 325.176 395.604 325.176C395.096 325.176 394.64 325.16 394.236 325.127C393.833 325.094 393.455 325.052 393.104 325V323.477C393.507 323.548 393.934 323.604 394.383 323.643C394.832 323.682 395.291 323.701 395.76 323.701C396.398 323.701 396.941 323.646 397.391 323.535C397.846 323.418 398.217 323.252 398.504 323.037C398.79 322.822 398.999 322.562 399.129 322.256C399.259 321.95 399.324 321.605 399.324 321.221C399.324 320.869 399.246 320.563 399.09 320.303C398.934 320.042 398.712 319.824 398.426 319.648C398.146 319.473 397.807 319.342 397.41 319.258C397.02 319.167 396.59 319.121 396.121 319.121H394.666V317.725H396.141C396.525 317.725 396.873 317.676 397.186 317.578C397.505 317.474 397.775 317.327 397.996 317.139C398.224 316.95 398.396 316.719 398.514 316.445C398.637 316.165 398.699 315.85 398.699 315.498C398.699 314.814 398.491 314.316 398.074 314.004C397.658 313.691 397.046 313.535 396.238 313.535C395.809 313.535 395.366 313.577 394.91 313.662C394.454 313.747 393.966 313.874 393.445 314.043V312.559C393.667 312.48 393.901 312.412 394.148 312.354C394.402 312.288 394.653 312.236 394.9 312.197C395.154 312.152 395.405 312.119 395.652 312.1C395.9 312.074 396.137 312.061 396.365 312.061C397.042 312.061 397.638 312.135 398.152 312.285C398.667 312.428 399.096 312.637 399.441 312.91C399.786 313.184 400.047 313.516 400.223 313.906C400.398 314.297 400.486 314.736 400.486 315.225C400.486 315.954 400.298 316.566 399.92 317.061C399.549 317.555 399.038 317.949 398.387 318.242C398.719 318.294 399.044 318.398 399.363 318.555C399.689 318.711 399.979 318.913 400.232 319.16C400.493 319.401 400.701 319.688 400.857 320.02C401.02 320.352 401.102 320.719 401.102 321.123Z" fill="black"/>
<path opacity="0.5" d="M472.98 322.178H470.803V325H469.064V322.178H462.922V320.684L468.361 312.236H470.803V320.684H472.98V322.178ZM469.064 313.877L464.621 320.684H469.064V313.877Z" fill="black"/>
<path opacity="0.5" d="M544.023 320.918C544.023 321.549 543.887 322.126 543.613 322.646C543.34 323.167 542.962 323.617 542.48 323.994C542.005 324.365 541.442 324.655 540.791 324.863C540.14 325.072 539.437 325.176 538.682 325.176C538.493 325.176 538.288 325.169 538.066 325.156C537.852 325.15 537.637 325.137 537.422 325.117C537.207 325.104 536.995 325.088 536.787 325.068C536.585 325.049 536.403 325.026 536.24 325V323.457C536.592 323.542 536.992 323.604 537.441 323.643C537.897 323.682 538.356 323.701 538.818 323.701C539.339 323.701 539.808 323.639 540.225 323.516C540.641 323.392 540.996 323.216 541.289 322.988C541.582 322.754 541.807 322.474 541.963 322.148C542.119 321.816 542.197 321.445 542.197 321.035C542.197 320.241 541.911 319.665 541.338 319.307C540.771 318.942 539.954 318.76 538.887 318.76H536.465V312.236H543.34V313.721H538.066V317.305H539.18C539.792 317.305 540.387 317.36 540.967 317.471C541.546 317.581 542.061 317.777 542.51 318.057C542.965 318.33 543.33 318.701 543.604 319.17C543.883 319.632 544.023 320.215 544.023 320.918Z" fill="black"/>
<path d="M157.715 306.705H151.456V283.117H157.715V284.895H153.563V304.928H157.715V306.705ZM189.288 297.831H186.457V301.5H184.197V297.831H176.212V295.889L183.283 284.907H186.457V295.889H189.288V297.831ZM184.197 287.04L178.421 295.889H184.197V287.04ZM259.62 296.46C259.62 297.188 259.472 297.873 259.176 298.517C258.88 299.151 258.435 299.71 257.843 300.192C257.25 300.666 256.506 301.043 255.608 301.322C254.711 301.593 253.666 301.729 252.473 301.729C251.812 301.729 251.22 301.707 250.695 301.665C250.171 301.623 249.68 301.568 249.223 301.5V299.52C249.747 299.613 250.302 299.685 250.886 299.735C251.47 299.786 252.066 299.812 252.676 299.812C253.505 299.812 254.212 299.74 254.796 299.596C255.388 299.443 255.871 299.228 256.243 298.948C256.616 298.669 256.886 298.33 257.056 297.933C257.225 297.535 257.31 297.086 257.31 296.587C257.31 296.13 257.208 295.732 257.005 295.394C256.802 295.055 256.514 294.772 256.142 294.543C255.778 294.314 255.338 294.145 254.821 294.035C254.313 293.917 253.755 293.857 253.146 293.857H251.254V292.042H253.171C253.67 292.042 254.123 291.979 254.529 291.852C254.944 291.716 255.295 291.526 255.583 291.28C255.879 291.035 256.104 290.734 256.256 290.379C256.417 290.015 256.497 289.605 256.497 289.147C256.497 288.259 256.226 287.611 255.685 287.205C255.143 286.799 254.347 286.596 253.298 286.596C252.739 286.596 252.164 286.651 251.571 286.761C250.979 286.871 250.344 287.036 249.667 287.256V285.326C249.955 285.225 250.259 285.136 250.581 285.06C250.911 284.975 251.237 284.907 251.559 284.856C251.889 284.797 252.215 284.755 252.536 284.73C252.858 284.696 253.167 284.679 253.463 284.679C254.343 284.679 255.118 284.776 255.786 284.971C256.455 285.157 257.013 285.428 257.462 285.783C257.91 286.139 258.249 286.57 258.478 287.078C258.706 287.586 258.82 288.157 258.82 288.792C258.82 289.74 258.575 290.536 258.084 291.179C257.602 291.822 256.937 292.334 256.091 292.715C256.522 292.783 256.946 292.918 257.36 293.121C257.784 293.324 258.16 293.587 258.49 293.908C258.829 294.221 259.1 294.594 259.303 295.025C259.514 295.457 259.62 295.935 259.62 296.46ZM331.412 301.5H320.481V299.52L324.772 295.254C325.475 294.56 326.046 293.959 326.486 293.451C326.926 292.943 327.269 292.482 327.515 292.067C327.76 291.644 327.925 291.246 328.01 290.874C328.094 290.502 328.137 290.1 328.137 289.668C328.137 289.262 328.082 288.877 327.972 288.513C327.862 288.14 327.692 287.814 327.464 287.535C327.235 287.256 326.939 287.036 326.575 286.875C326.211 286.714 325.775 286.634 325.268 286.634C324.565 286.634 323.926 286.79 323.351 287.104C322.775 287.417 322.246 287.823 321.764 288.322L320.545 286.862C321.171 286.202 321.891 285.673 322.703 285.275C323.524 284.878 324.476 284.679 325.56 284.679C326.296 284.679 326.965 284.789 327.565 285.009C328.175 285.229 328.7 285.546 329.14 285.961C329.58 286.376 329.918 286.883 330.155 287.484C330.401 288.085 330.523 288.762 330.523 289.516C330.523 290.15 330.439 290.739 330.27 291.28C330.1 291.822 329.842 292.364 329.495 292.905C329.157 293.439 328.725 293.993 328.2 294.568C327.684 295.144 327.07 295.774 326.359 296.46L323.351 299.393H331.412V301.5ZM403.712 297.831H400.881V301.5H398.621V297.831H390.636V295.889L397.707 284.907H400.881V295.889H403.712V297.831ZM398.621 287.04L392.845 295.889H398.621V287.04ZM473.942 296.193C473.942 297.014 473.765 297.763 473.409 298.44C473.054 299.118 472.563 299.702 471.937 300.192C471.319 300.675 470.587 301.051 469.74 301.322C468.894 301.593 467.98 301.729 466.998 301.729C466.753 301.729 466.486 301.72 466.198 301.703C465.919 301.695 465.64 301.678 465.36 301.652C465.081 301.635 464.806 301.614 464.535 301.589C464.273 301.564 464.036 301.534 463.824 301.5V299.494C464.281 299.604 464.802 299.685 465.386 299.735C465.978 299.786 466.575 299.812 467.176 299.812C467.853 299.812 468.462 299.731 469.004 299.57C469.546 299.41 470.007 299.181 470.388 298.885C470.769 298.58 471.061 298.216 471.264 297.793C471.467 297.361 471.568 296.879 471.568 296.346C471.568 295.313 471.196 294.564 470.451 294.099C469.715 293.625 468.653 293.388 467.265 293.388H464.116V284.907H473.054V286.837H466.198V291.496H467.646C468.441 291.496 469.215 291.568 469.969 291.712C470.722 291.856 471.391 292.11 471.975 292.474C472.567 292.829 473.041 293.312 473.396 293.921C473.76 294.522 473.942 295.279 473.942 296.193ZM545.696 301.5H535.273V299.443H539.539V287.332L535.565 289.49L534.753 287.611L540.034 284.831H541.989V299.443H545.696V301.5ZM571.544 306.705H565.285V304.928H569.411V284.895H565.285V283.117H571.544V306.705Z" fill="black"/>
<path d="M120.662 193.5H111.843V191.76H115.452V181.512L112.09 183.338L111.402 181.748L115.871 179.396H117.525V191.76H120.662V193.5Z" fill="black"/>
<path d="M120.78 115.5H111.531V113.824L115.162 110.215C115.757 109.628 116.24 109.119 116.612 108.689C116.985 108.26 117.275 107.869 117.482 107.519C117.69 107.161 117.83 106.824 117.901 106.509C117.973 106.194 118.009 105.854 118.009 105.488C118.009 105.145 117.962 104.819 117.869 104.511C117.776 104.196 117.633 103.92 117.439 103.684C117.246 103.447 116.995 103.261 116.688 103.125C116.38 102.989 116.011 102.921 115.581 102.921C114.987 102.921 114.446 103.053 113.959 103.318C113.472 103.583 113.024 103.927 112.616 104.35L111.585 103.114C112.115 102.556 112.724 102.108 113.411 101.772C114.106 101.435 114.911 101.267 115.828 101.267C116.451 101.267 117.017 101.36 117.525 101.546C118.041 101.732 118.485 102.001 118.857 102.352C119.23 102.703 119.516 103.132 119.717 103.641C119.924 104.149 120.028 104.722 120.028 105.359C120.028 105.897 119.957 106.394 119.813 106.853C119.67 107.311 119.452 107.769 119.158 108.228C118.872 108.679 118.507 109.148 118.062 109.635C117.626 110.122 117.106 110.655 116.505 111.235L113.959 113.717H120.78V115.5Z" fill="black"/>
<path d="M120.512 34.2354C120.512 34.8513 120.386 35.4313 120.136 35.9756C119.885 36.5127 119.509 36.9854 119.008 37.3936C118.507 37.7946 117.876 38.1133 117.117 38.3496C116.358 38.5788 115.474 38.6934 114.464 38.6934C113.905 38.6934 113.404 38.6755 112.96 38.6397C112.516 38.6039 112.101 38.5573 111.714 38.5V36.8242C112.158 36.903 112.627 36.9639 113.121 37.0069C113.615 37.0498 114.12 37.0713 114.636 37.0713C115.338 37.0713 115.936 37.0104 116.43 36.8887C116.931 36.7598 117.339 36.5772 117.654 36.3409C117.969 36.1045 118.199 35.8181 118.342 35.4815C118.485 35.1449 118.557 34.7653 118.557 34.3428C118.557 33.9561 118.471 33.6195 118.299 33.333C118.127 33.0466 117.883 32.8067 117.568 32.6133C117.26 32.42 116.888 32.2767 116.451 32.1836C116.021 32.0834 115.549 32.0332 115.033 32.0332H113.433V30.4971H115.055C115.477 30.4971 115.86 30.4434 116.204 30.336C116.555 30.2214 116.852 30.0603 117.096 29.8526C117.346 29.6449 117.536 29.3907 117.665 29.0899C117.801 28.7819 117.869 28.4346 117.869 28.0479C117.869 27.2959 117.64 26.7481 117.182 26.4043C116.723 26.0606 116.05 25.8887 115.162 25.8887C114.689 25.8887 114.202 25.9353 113.701 26.0284C113.2 26.1214 112.663 26.2611 112.09 26.4473V24.8145C112.333 24.7285 112.591 24.6534 112.863 24.5889C113.143 24.5173 113.418 24.46 113.69 24.417C113.97 24.3669 114.245 24.3311 114.518 24.3096C114.79 24.281 115.051 24.2666 115.302 24.2666C116.047 24.2666 116.702 24.349 117.268 24.5137C117.833 24.6713 118.306 24.9004 118.686 25.2012C119.065 25.502 119.352 25.8672 119.545 26.2969C119.738 26.7266 119.835 27.21 119.835 27.7471C119.835 28.5492 119.627 29.2224 119.212 29.7666C118.804 30.3109 118.242 30.7442 117.525 31.0664C117.891 31.1237 118.249 31.2383 118.6 31.4102C118.958 31.5821 119.276 31.8041 119.556 32.0762C119.842 32.3412 120.071 32.6563 120.243 33.0215C120.422 33.3867 120.512 33.7914 120.512 34.2354Z" fill="black"/>
<circle cx="183.5" cy="188.5" r="4" fill="#FF5500" stroke="#FF5500"/>
<circle cx="255.5" cy="188.5" r="4" fill="#FF5500" stroke="#FF5500"/>
<circle cx="326.5" cy="188.5" r="4" fill="#FF5500" stroke="#FF5500"/>
<circle cx="397.5" cy="188.5" r="4" fill="#FF5500" stroke="#FF5500"/>
<circle cx="470.5" cy="188.5" r="4" fill="#FF5500" stroke="#FF5500"/>
<circle cx="541.5" cy="188.5" r="4" fill="#FF5500" stroke="#FF5500"/>
<path d="M183 188.5H541.5" stroke="#FF5500" stroke-width="2"/>
<path d="M254.345 130.762H251.154V129.215H256.235V138.442H259.447V140H250.8V138.442H254.345V130.762ZM255 124.692C255.208 124.692 255.401 124.732 255.58 124.811C255.759 124.882 255.913 124.986 256.042 125.122C256.178 125.258 256.282 125.416 256.354 125.595C256.432 125.767 256.472 125.956 256.472 126.164C256.472 126.365 256.432 126.554 256.354 126.733C256.282 126.912 256.178 127.07 256.042 127.206C255.913 127.342 255.759 127.45 255.58 127.528C255.401 127.6 255.208 127.636 255 127.636C254.792 127.636 254.599 127.6 254.42 127.528C254.241 127.45 254.083 127.342 253.947 127.206C253.818 127.07 253.715 126.912 253.636 126.733C253.564 126.554 253.528 126.365 253.528 126.164C253.528 125.956 253.564 125.767 253.636 125.595C253.715 125.416 253.818 125.258 253.947 125.122C254.083 124.986 254.241 124.882 254.42 124.811C254.599 124.732 254.792 124.692 255 124.692Z" fill="black"/>
<path d="M254.293 176.707C254.683 177.098 255.317 177.098 255.707 176.707L262.071 170.343C262.462 169.953 262.462 169.319 262.071 168.929C261.681 168.538 261.047 168.538 260.657 168.929L255 174.586L249.343 168.929C248.953 168.538 248.319 168.538 247.929 168.929C247.538 169.319 247.538 169.953 247.929 170.343L254.293 176.707ZM254 146L254 176L256 176L256 146L254 146Z" fill="black"/>
<rect x="241" y="118" width="28" height="28" rx="6" stroke="black" stroke-width="2"/>
<path opacity="0.4" d="M216.633 284.711L226.506 293.017L216.633 301.337L214.362 299.022L221.613 293.046L214.362 287.025L216.633 284.711Z" fill="#FF5500"/>
</g>
<defs>
<clipPath id="clip0_6295_4219">
<rect width="591" height="363" fill="white"/>
</clipPath>
</defs>
</svg>
