<svg width="741" height="28" viewBox="0 0 741 28" fill="none" xmlns="http://www.w3.org/2000/svg">
<g clip-path="url(#clip0_6273_577)">
<rect width="741" height="28" fill="white"/>
<path d="M13.7656 21H1.15332V18.7148L6.10449 13.793C6.91504 12.9922 7.57422 12.2988 8.08203 11.7129C8.58984 11.127 8.98535 10.5947 9.26855 10.1162C9.55176 9.62793 9.74219 9.16895 9.83984 8.73926C9.9375 8.30957 9.98633 7.8457 9.98633 7.34766C9.98633 6.87891 9.92285 6.43457 9.7959 6.01465C9.66895 5.58496 9.47363 5.20898 9.20996 4.88672C8.94629 4.56445 8.60449 4.31055 8.18457 4.125C7.76465 3.93945 7.26172 3.84668 6.67578 3.84668C5.86523 3.84668 5.12793 4.02734 4.46387 4.38867C3.7998 4.75 3.18945 5.21875 2.63281 5.79492L1.22656 4.11035C1.94922 3.34863 2.7793 2.73828 3.7168 2.2793C4.66406 1.82031 5.7627 1.59082 7.0127 1.59082C7.8623 1.59082 8.63379 1.71777 9.32715 1.97168C10.0303 2.22559 10.6357 2.5918 11.1436 3.07031C11.6514 3.54883 12.042 4.13477 12.3154 4.82812C12.5986 5.52148 12.7402 6.30273 12.7402 7.17188C12.7402 7.9043 12.6426 8.58301 12.4473 9.20801C12.252 9.83301 11.9541 10.458 11.5537 11.083C11.1631 11.6982 10.665 12.3379 10.0596 13.002C9.46387 13.666 8.75586 14.3936 7.93555 15.1846L4.46387 18.5684H13.7656V21ZM63.248 16.1953C63.248 17.0059 63.082 17.7285 62.75 18.3633C62.418 18.9883 61.9541 19.5156 61.3584 19.9453C60.7627 20.375 60.0596 20.7021 59.249 20.9268C58.4385 21.1514 57.5596 21.2637 56.6123 21.2637C55.5674 21.2637 54.6445 21.1465 53.8438 20.9121C53.0527 20.6777 52.3887 20.3506 51.8516 19.9307C51.3145 19.5107 50.9092 19.0127 50.6357 18.4365C50.3623 17.8604 50.2256 17.2256 50.2256 16.5322C50.2256 15.3604 50.5527 14.3496 51.207 13.5C51.8613 12.6504 52.8721 11.8789 54.2393 11.1855C52.9893 10.5508 52.0762 9.84766 51.5 9.07617C50.9238 8.29492 50.6357 7.40137 50.6357 6.39551C50.6357 5.78027 50.7627 5.18457 51.0166 4.6084C51.2705 4.03223 51.6514 3.51953 52.1592 3.07031C52.6768 2.62109 53.3213 2.26465 54.0928 2.00098C54.8643 1.72754 55.7725 1.59082 56.8174 1.59082C57.8037 1.59082 58.668 1.69824 59.4102 1.91309C60.1621 2.11816 60.792 2.41602 61.2998 2.80664C61.8076 3.19727 62.1885 3.6709 62.4424 4.22754C62.6963 4.78418 62.8232 5.4043 62.8232 6.08789C62.8232 7.20117 62.5107 8.14844 61.8857 8.92969C61.2705 9.71094 60.3916 10.3945 59.249 10.9805C59.8154 11.2637 60.3428 11.5762 60.8311 11.918C61.3193 12.2598 61.7441 12.6406 62.1055 13.0605C62.4668 13.4805 62.7451 13.9492 62.9404 14.4668C63.1455 14.9844 63.248 15.5605 63.248 16.1953ZM60.2158 6.29297C60.2158 5.42383 59.9082 4.7793 59.293 4.35938C58.6875 3.92969 57.833 3.71484 56.7295 3.71484C55.6357 3.71484 54.7812 3.9248 54.166 4.34473C53.5605 4.76465 53.2578 5.39453 53.2578 6.23438C53.2578 6.61523 53.3311 6.9668 53.4775 7.28906C53.624 7.61133 53.8486 7.91406 54.1514 8.19727C54.4639 8.48047 54.8496 8.75879 55.3086 9.03223C55.7676 9.30566 56.3145 9.58398 56.9492 9.86719C58.0527 9.34961 58.873 8.8125 59.4102 8.25586C59.9473 7.68945 60.2158 7.03516 60.2158 6.29297ZM60.4795 16.3857C60.4795 16.0244 60.4209 15.6729 60.3037 15.3311C60.1865 14.9893 59.9766 14.6523 59.6738 14.3203C59.3711 13.9883 58.9658 13.6562 58.458 13.3242C57.9502 12.9922 57.3057 12.6504 56.5244 12.2988C55.8604 12.6211 55.2988 12.9434 54.8398 13.2656C54.3906 13.5781 54.0244 13.9004 53.7412 14.2324C53.4678 14.5547 53.2725 14.8916 53.1553 15.2432C53.0381 15.5947 52.9795 15.9658 52.9795 16.3564C52.9795 16.7959 53.0723 17.1865 53.2578 17.5283C53.4531 17.8604 53.7168 18.1436 54.0488 18.3779C54.3809 18.6123 54.7764 18.7881 55.2354 18.9053C55.6943 19.0225 56.1924 19.0811 56.7295 19.0811C57.2471 19.0811 57.7354 19.0273 58.1943 18.9199C58.6533 18.8125 59.0488 18.6514 59.3809 18.4365C59.7227 18.2119 59.9912 17.9336 60.1865 17.6016C60.3818 17.2598 60.4795 16.8545 60.4795 16.3857ZM110.592 14.2178H101.832V11.8154H110.592V14.2178ZM162.052 21H150.025V18.627H154.947V4.65234L150.362 7.14258L149.425 4.97461L155.519 1.7666H157.774V18.627H162.052V21ZM212.135 11.4346C212.135 12.8994 211.988 14.2373 211.695 15.4482C211.402 16.6494 210.958 17.6846 210.362 18.5537C209.767 19.4131 209.024 20.082 208.136 20.5605C207.257 21.0293 206.222 21.2637 205.03 21.2637C204.005 21.2637 203.072 21.0732 202.232 20.6924C201.393 20.3018 200.675 19.7061 200.079 18.9053C199.483 18.1045 199.024 17.084 198.702 15.8438C198.38 14.6035 198.219 13.1338 198.219 11.4346C198.219 9.96973 198.365 8.63184 198.658 7.4209C198.961 6.20996 199.405 5.1748 199.991 4.31543C200.587 3.44629 201.329 2.77734 202.218 2.30859C203.106 1.83008 204.142 1.59082 205.323 1.59082C206.349 1.59082 207.281 1.78613 208.121 2.17676C208.961 2.55762 209.679 3.15332 210.274 3.96387C210.87 4.76465 211.329 5.78516 211.651 7.02539C211.974 8.26562 212.135 9.73535 212.135 11.4346ZM209.557 11.5225C209.557 11.1904 209.542 10.8633 209.513 10.541C209.493 10.209 209.469 9.88672 209.439 9.57422L201.339 15.5947C201.485 16.1025 201.671 16.5713 201.896 17.001C202.12 17.4307 202.389 17.8018 202.701 18.1143C203.023 18.417 203.385 18.6562 203.785 18.832C204.195 18.998 204.659 19.0811 205.177 19.0811C205.841 19.0811 206.441 18.9199 206.979 18.5977C207.525 18.2754 207.989 17.7969 208.37 17.1621C208.751 16.5273 209.044 15.7412 209.249 14.8037C209.454 13.8564 209.557 12.7627 209.557 11.5225ZM200.797 11.3467C200.797 11.6494 200.797 11.9521 200.797 12.2549C200.807 12.5576 200.826 12.8506 200.855 13.1338L208.956 7.14258C208.81 6.64453 208.624 6.19043 208.399 5.78027C208.175 5.37012 207.906 5.01855 207.594 4.72559C207.281 4.42285 206.925 4.18848 206.524 4.02246C206.124 3.85645 205.675 3.77344 205.177 3.77344C204.513 3.77344 203.907 3.93457 203.36 4.25684C202.823 4.5791 202.364 5.0625 201.983 5.70703C201.603 6.3418 201.31 7.13281 201.104 8.08008C200.899 9.01758 200.797 10.1064 200.797 11.3467ZM261.676 14.1299H255.919V20.1064H253.399V14.1299H247.643V11.9033H253.399V5.9707H255.919V11.9033H261.676V14.1299ZM310.558 4.22754L302.53 21H299.615L307.95 4.22754H297.608V1.85449H310.558V4.22754ZM315.875 24.0029C316.373 24.0225 316.856 23.9785 317.325 23.8711C317.794 23.7637 318.204 23.6025 318.556 23.3877C318.917 23.1826 319.205 22.9238 319.42 22.6113C319.635 22.2988 319.742 21.9424 319.742 21.542C319.742 21.1318 319.669 20.7998 319.522 20.5459C319.386 20.292 319.229 20.0576 319.054 19.8428C318.878 19.6279 318.717 19.3984 318.57 19.1543C318.434 18.9102 318.365 18.583 318.365 18.1729C318.365 17.9678 318.404 17.7529 318.482 17.5283C318.561 17.3037 318.678 17.0986 318.834 16.9131C319 16.7275 319.205 16.5762 319.449 16.459C319.703 16.3418 320.001 16.2832 320.343 16.2832C320.685 16.2832 321.012 16.3564 321.324 16.5029C321.646 16.6396 321.925 16.8545 322.159 17.1475C322.403 17.4404 322.594 17.8066 322.73 18.2461C322.877 18.6855 322.95 19.2031 322.95 19.7988C322.95 20.6094 322.799 21.3857 322.496 22.1279C322.203 22.8799 321.759 23.5439 321.163 24.1201C320.577 24.6963 319.84 25.1553 318.951 25.4971C318.072 25.8389 317.047 26.0098 315.875 26.0098V24.0029ZM375.86 16.9863C375.86 17.5039 375.772 17.9678 375.597 18.3779C375.421 18.7881 375.182 19.1543 374.879 19.4766C374.576 19.7891 374.225 20.0576 373.824 20.2822C373.424 20.5068 372.994 20.6924 372.535 20.8389C372.086 20.9854 371.622 21.0928 371.144 21.1611C370.665 21.2295 370.196 21.2637 369.737 21.2637C368.741 21.2637 367.823 21.2197 366.983 21.1318C366.153 21.0439 365.338 20.9023 364.537 20.707V18.3633C365.396 18.6074 366.251 18.793 367.101 18.9199C367.95 19.0469 368.795 19.1104 369.635 19.1104C370.855 19.1104 371.759 18.9443 372.345 18.6123C372.931 18.2803 373.224 17.8066 373.224 17.1914C373.224 16.9277 373.175 16.6934 373.077 16.4883C372.989 16.2734 372.823 16.0732 372.579 15.8877C372.335 15.6924 371.954 15.4922 371.437 15.2871C370.929 15.082 370.23 14.8477 369.342 14.584C368.678 14.3887 368.062 14.1689 367.496 13.9248C366.939 13.6709 366.456 13.373 366.046 13.0312C365.636 12.6895 365.313 12.2891 365.079 11.8301C364.845 11.3711 364.728 10.8291 364.728 10.2041C364.728 9.79395 364.82 9.34473 365.006 8.85645C365.201 8.36816 365.528 7.91406 365.987 7.49414C366.446 7.07422 367.066 6.72754 367.848 6.4541C368.629 6.1709 369.605 6.0293 370.777 6.0293C371.354 6.0293 371.993 6.06348 372.696 6.13184C373.399 6.19043 374.132 6.29785 374.894 6.4541V8.72461C374.093 8.5293 373.331 8.3877 372.608 8.2998C371.896 8.20215 371.275 8.15332 370.748 8.15332C370.113 8.15332 369.576 8.20215 369.137 8.2998C368.707 8.39746 368.355 8.53418 368.082 8.70996C367.818 8.87598 367.628 9.07617 367.511 9.31055C367.394 9.53516 367.335 9.7793 367.335 10.043C367.335 10.3066 367.384 10.5459 367.481 10.7607C367.589 10.9756 367.779 11.1855 368.053 11.3906C368.336 11.5859 368.727 11.7861 369.225 11.9912C369.723 12.1865 370.372 12.4014 371.173 12.6357C372.042 12.8896 372.774 13.1582 373.37 13.4414C373.966 13.7148 374.449 14.0225 374.82 14.3643C375.191 14.7061 375.455 15.0918 375.611 15.5215C375.777 15.9512 375.86 16.4395 375.86 16.9863ZM385.719 8.40234H381.368V6.29297H388.297V18.876H392.677V21H380.885V18.876H385.719V8.40234ZM386.612 0.125977C386.896 0.125977 387.159 0.179688 387.403 0.287109C387.647 0.384766 387.857 0.526367 388.033 0.711914C388.219 0.897461 388.36 1.1123 388.458 1.35645C388.565 1.59082 388.619 1.84961 388.619 2.13281C388.619 2.40625 388.565 2.66504 388.458 2.90918C388.36 3.15332 388.219 3.36816 388.033 3.55371C387.857 3.73926 387.647 3.88574 387.403 3.99316C387.159 4.09082 386.896 4.13965 386.612 4.13965C386.329 4.13965 386.065 4.09082 385.821 3.99316C385.577 3.88574 385.362 3.73926 385.177 3.55371C385.001 3.36816 384.859 3.15332 384.752 2.90918C384.654 2.66504 384.605 2.40625 384.605 2.13281C384.605 1.84961 384.654 1.59082 384.752 1.35645C384.859 1.1123 385.001 0.897461 385.177 0.711914C385.362 0.526367 385.577 0.384766 385.821 0.287109C386.065 0.179688 386.329 0.125977 386.612 0.125977ZM407.794 8.37305C408.067 8.71484 408.277 9.11523 408.424 9.57422C408.58 10.0234 408.658 10.5117 408.658 11.0391C408.658 11.8008 408.517 12.499 408.233 13.1338C407.96 13.7588 407.569 14.2959 407.062 14.7451C406.554 15.1943 405.943 15.5459 405.23 15.7998C404.527 16.0439 403.751 16.166 402.901 16.166C402.286 16.166 401.71 16.1025 401.173 15.9756C400.636 15.8389 400.211 15.6729 399.898 15.4775C399.713 15.751 399.557 16.0098 399.43 16.2539C399.303 16.498 399.239 16.7715 399.239 17.0742C399.239 17.4453 399.415 17.7529 399.767 17.9971C400.128 18.2412 400.602 18.373 401.188 18.3926L405.055 18.5391C405.787 18.5586 406.461 18.6514 407.076 18.8174C407.701 18.9834 408.233 19.2227 408.673 19.5352C409.122 19.8477 409.469 20.2334 409.713 20.6924C409.967 21.1514 410.094 21.6836 410.094 22.2891C410.094 22.9434 409.952 23.5635 409.669 24.1494C409.386 24.7354 408.946 25.248 408.351 25.6875C407.765 26.1367 407.018 26.4932 406.109 26.7568C405.201 27.0205 404.122 27.1523 402.872 27.1523C401.681 27.1523 400.665 27.0547 399.825 26.8594C398.995 26.6738 398.312 26.4102 397.774 26.0684C397.237 25.7363 396.847 25.3359 396.603 24.8672C396.358 24.4082 396.236 23.9004 396.236 23.3438C396.236 22.6309 396.402 22.0059 396.734 21.4688C397.066 20.9316 397.579 20.4141 398.272 19.916C398.019 19.7988 397.799 19.6523 397.613 19.4766C397.428 19.3008 397.276 19.1104 397.159 18.9053C397.042 18.6904 396.954 18.4658 396.896 18.2314C396.837 17.9971 396.808 17.7676 396.808 17.543C396.808 16.9082 396.954 16.3271 397.247 15.7998C397.55 15.2725 397.906 14.7744 398.316 14.3057C398.131 14.0811 397.965 13.8613 397.818 13.6465C397.682 13.4316 397.56 13.2021 397.452 12.958C397.354 12.7041 397.276 12.4355 397.218 12.1523C397.169 11.8594 397.145 11.5273 397.145 11.1562C397.145 10.3945 397.281 9.70117 397.555 9.07617C397.838 8.44141 398.229 7.89941 398.727 7.4502C399.234 7.00098 399.84 6.6543 400.543 6.41016C401.256 6.15625 402.042 6.0293 402.901 6.0293C403.263 6.0293 403.609 6.05371 403.941 6.10254C404.273 6.15137 404.566 6.21484 404.82 6.29297H410.152V8.37305H407.794ZM398.946 23.124C398.946 23.8174 399.308 24.3203 400.03 24.6328C400.753 24.9551 401.759 25.1162 403.048 25.1162C403.858 25.1162 404.537 25.043 405.084 24.8965C405.641 24.75 406.085 24.5547 406.417 24.3105C406.759 24.0762 407.003 23.8027 407.149 23.4902C407.296 23.1875 407.369 22.875 407.369 22.5527C407.369 21.957 407.125 21.5176 406.637 21.2344C406.148 20.9512 405.401 20.7852 404.396 20.7363L400.558 20.6045C400.235 20.8193 399.967 21.0293 399.752 21.2344C399.547 21.4395 399.386 21.6445 399.269 21.8496C399.151 22.0645 399.068 22.2744 399.02 22.4795C398.971 22.6943 398.946 22.9092 398.946 23.124ZM399.723 11.0977C399.723 11.5664 399.801 11.9961 399.957 12.3867C400.113 12.7773 400.333 13.1094 400.616 13.3828C400.899 13.6562 401.231 13.8711 401.612 14.0273C402.003 14.1738 402.433 14.2471 402.901 14.2471C403.409 14.2471 403.858 14.1641 404.249 13.998C404.649 13.8223 404.981 13.5879 405.245 13.2949C405.519 13.002 405.724 12.665 405.86 12.2842C406.007 11.9033 406.08 11.5078 406.08 11.0977C406.08 10.6289 406.002 10.1992 405.846 9.80859C405.689 9.41797 405.47 9.08594 405.187 8.8125C404.903 8.53906 404.566 8.3291 404.176 8.18262C403.795 8.02637 403.37 7.94824 402.901 7.94824C402.394 7.94824 401.939 8.03613 401.539 8.21191C401.148 8.3877 400.816 8.62207 400.543 8.91504C400.279 9.19824 400.074 9.53027 399.928 9.91113C399.791 10.292 399.723 10.6875 399.723 11.0977ZM413.697 6.29297H415.968L416.07 8.66602C416.5 8.1582 416.915 7.73828 417.315 7.40625C417.716 7.06445 418.106 6.79102 418.487 6.58594C418.878 6.38086 419.273 6.23926 419.674 6.16113C420.074 6.07324 420.489 6.0293 420.919 6.0293C422.433 6.0293 423.575 6.47852 424.347 7.37695C425.128 8.26562 425.519 9.6084 425.519 11.4053V21H422.97V11.6104C422.97 10.458 422.755 9.6084 422.325 9.06152C421.896 8.50488 421.256 8.22656 420.406 8.22656C420.094 8.22656 419.786 8.27539 419.483 8.37305C419.19 8.46094 418.883 8.62207 418.561 8.85645C418.238 9.08105 417.887 9.38867 417.506 9.7793C417.135 10.1699 416.715 10.6582 416.246 11.2441V21H413.697V6.29297ZM458.888 11.5371H446.29V9.38379H458.888V11.5371ZM458.888 16.6348H446.29V14.4814H458.888V16.6348ZM491.935 21H479.908V18.627H484.83V4.65234L480.245 7.14258L479.308 4.97461L485.401 1.7666H487.657V18.627H491.935V21ZM497.311 24.0029C497.809 24.0225 498.292 23.9785 498.761 23.8711C499.229 23.7637 499.64 23.6025 499.991 23.3877C500.353 23.1826 500.641 22.9238 500.855 22.6113C501.07 22.2988 501.178 21.9424 501.178 21.542C501.178 21.1318 501.104 20.7998 500.958 20.5459C500.821 20.292 500.665 20.0576 500.489 19.8428C500.313 19.6279 500.152 19.3984 500.006 19.1543C499.869 18.9102 499.801 18.583 499.801 18.1729C499.801 17.9678 499.84 17.7529 499.918 17.5283C499.996 17.3037 500.113 17.0986 500.27 16.9131C500.436 16.7275 500.641 16.5762 500.885 16.459C501.139 16.3418 501.437 16.2832 501.778 16.2832C502.12 16.2832 502.447 16.3564 502.76 16.5029C503.082 16.6396 503.36 16.8545 503.595 17.1475C503.839 17.4404 504.029 17.8066 504.166 18.2461C504.312 18.6855 504.386 19.2031 504.386 19.7988C504.386 20.6094 504.234 21.3857 503.932 22.1279C503.639 22.8799 503.194 23.5439 502.599 24.1201C502.013 24.6963 501.275 25.1553 500.387 25.4971C499.508 25.8389 498.482 26.0098 497.311 26.0098V24.0029ZM557.076 20.458C556.412 20.7119 555.729 20.8975 555.025 21.0146C554.332 21.1416 553.614 21.2051 552.872 21.2051C550.548 21.2051 548.756 20.5752 547.496 19.3154C546.246 18.0557 545.621 16.2148 545.621 13.793C545.621 12.6309 545.802 11.5762 546.163 10.6289C546.524 9.68164 547.032 8.87109 547.687 8.19727C548.341 7.52344 549.122 7.00586 550.03 6.64453C550.938 6.27344 551.939 6.08789 553.033 6.08789C553.795 6.08789 554.508 6.1416 555.172 6.24902C555.836 6.35645 556.471 6.53223 557.076 6.77637V9.20801C556.441 8.87598 555.792 8.63672 555.128 8.49023C554.474 8.33398 553.795 8.25586 553.092 8.25586C552.438 8.25586 551.817 8.38281 551.231 8.63672C550.655 8.88086 550.147 9.2373 549.708 9.70605C549.269 10.1748 548.922 10.7461 548.668 11.4199C548.414 12.0938 548.287 12.8555 548.287 13.7051C548.287 15.4824 548.717 16.8154 549.576 17.7041C550.445 18.583 551.646 19.0225 553.18 19.0225C553.873 19.0225 554.542 18.9443 555.187 18.7881C555.841 18.6318 556.471 18.3975 557.076 18.085V20.458ZM573.966 21H571.681L571.593 18.627C571.153 19.1348 570.733 19.5596 570.333 19.9014C569.942 20.2334 569.552 20.502 569.161 20.707C568.771 20.9121 568.375 21.0537 567.975 21.1318C567.584 21.2197 567.169 21.2637 566.729 21.2637C565.216 21.2637 564.073 20.8193 563.302 19.9307C562.53 19.042 562.145 17.6992 562.145 15.9023V6.29297H564.693V15.6973C564.693 17.9531 565.543 19.0811 567.242 19.0811C567.555 19.0811 567.857 19.0371 568.15 18.9492C568.453 18.8516 568.766 18.6904 569.088 18.4658C569.42 18.2314 569.771 17.9189 570.143 17.5283C570.523 17.1377 570.948 16.6445 571.417 16.0488V6.29297H573.966V21ZM579.239 6.29297H581.568L581.642 9.00293C582.511 7.95801 583.365 7.20117 584.205 6.73242C585.055 6.26367 585.909 6.0293 586.769 6.0293C588.292 6.0293 589.444 6.52246 590.226 7.50879C591.017 8.49512 591.383 9.95996 591.324 11.9033H588.746C588.775 10.6143 588.585 9.68164 588.175 9.10547C587.774 8.51953 587.184 8.22656 586.402 8.22656C586.061 8.22656 585.714 8.29004 585.362 8.41699C585.021 8.53418 584.664 8.72949 584.293 9.00293C583.932 9.2666 583.546 9.6084 583.136 10.0283C582.726 10.4482 582.286 10.9561 581.817 11.5518V21H579.239V6.29297ZM595.733 6.29297H598.062L598.136 9.00293C599.005 7.95801 599.859 7.20117 600.699 6.73242C601.549 6.26367 602.403 6.0293 603.263 6.0293C604.786 6.0293 605.938 6.52246 606.72 7.50879C607.511 8.49512 607.877 9.95996 607.818 11.9033H605.24C605.27 10.6143 605.079 9.68164 604.669 9.10547C604.269 8.51953 603.678 8.22656 602.896 8.22656C602.555 8.22656 602.208 8.29004 601.856 8.41699C601.515 8.53418 601.158 8.72949 600.787 9.00293C600.426 9.2666 600.04 9.6084 599.63 10.0283C599.22 10.4482 598.78 10.9561 598.312 11.5518V21H595.733V6.29297ZM625.777 27.0059H609.283V24.8965H625.777V27.0059ZM628.121 6.29297H630.392L630.494 8.66602C630.924 8.1582 631.339 7.73828 631.739 7.40625C632.14 7.06445 632.53 6.79102 632.911 6.58594C633.302 6.38086 633.697 6.23926 634.098 6.16113C634.498 6.07324 634.913 6.0293 635.343 6.0293C636.856 6.0293 637.999 6.47852 638.771 7.37695C639.552 8.26562 639.942 9.6084 639.942 11.4053V21H637.394V11.6104C637.394 10.458 637.179 9.6084 636.749 9.06152C636.319 8.50488 635.68 8.22656 634.83 8.22656C634.518 8.22656 634.21 8.27539 633.907 8.37305C633.614 8.46094 633.307 8.62207 632.984 8.85645C632.662 9.08105 632.311 9.38867 631.93 9.7793C631.559 10.1699 631.139 10.6582 630.67 11.2441V21H628.121V6.29297ZM656.437 21H654.151L654.063 18.627C653.624 19.1348 653.204 19.5596 652.804 19.9014C652.413 20.2334 652.022 20.502 651.632 20.707C651.241 20.9121 650.846 21.0537 650.445 21.1318C650.055 21.2197 649.64 21.2637 649.2 21.2637C647.687 21.2637 646.544 20.8193 645.772 19.9307C645.001 19.042 644.615 17.6992 644.615 15.9023V6.29297H647.164V15.6973C647.164 17.9531 648.014 19.0811 649.713 19.0811C650.025 19.0811 650.328 19.0371 650.621 18.9492C650.924 18.8516 651.236 18.6904 651.559 18.4658C651.891 18.2314 652.242 17.9189 652.613 17.5283C652.994 17.1377 653.419 16.6445 653.888 16.0488V6.29297H656.437V21ZM671.598 21V10.4385C671.598 9.97949 671.578 9.60352 671.539 9.31055C671.51 9.01758 671.456 8.78809 671.378 8.62207C671.31 8.44629 671.217 8.32422 671.1 8.25586C670.992 8.1875 670.855 8.15332 670.689 8.15332C670.494 8.15332 670.313 8.21191 670.147 8.3291C669.981 8.44629 669.801 8.63672 669.605 8.90039C669.42 9.16406 669.21 9.51562 668.976 9.95508C668.751 10.3848 668.482 10.917 668.17 11.5518V21H665.841V10.7168C665.841 10.1797 665.821 9.74512 665.782 9.41309C665.753 9.08105 665.699 8.82227 665.621 8.63672C665.553 8.45117 665.46 8.32422 665.343 8.25586C665.226 8.1875 665.084 8.15332 664.918 8.15332C664.742 8.15332 664.576 8.20215 664.42 8.2998C664.264 8.39746 664.088 8.57324 663.893 8.82715C663.707 9.08105 663.497 9.42773 663.263 9.86719C663.028 10.3066 662.75 10.8682 662.428 11.5518V21H660.084V6.29297H662.032L662.149 9.09082C662.403 8.53418 662.647 8.06055 662.882 7.66992C663.126 7.2793 663.375 6.9668 663.629 6.73242C663.883 6.48828 664.151 6.3125 664.435 6.20508C664.728 6.08789 665.05 6.0293 665.401 6.0293C666.192 6.0293 666.793 6.28809 667.203 6.80566C667.613 7.32324 667.818 8.12402 667.818 9.20801C668.053 8.7002 668.282 8.25098 668.507 7.86035C668.731 7.45996 668.971 7.12793 669.225 6.86426C669.488 6.59082 669.776 6.38574 670.089 6.24902C670.401 6.10254 670.763 6.0293 671.173 6.0293C673.019 6.0293 673.941 7.4502 673.941 10.292V21H671.598ZM706.3 11.5371H693.702V9.38379H706.3V11.5371ZM706.3 16.6348H693.702V14.4814H706.3V16.6348ZM739.947 11.4346C739.947 12.8994 739.801 14.2373 739.508 15.4482C739.215 16.6494 738.771 17.6846 738.175 18.5537C737.579 19.4131 736.837 20.082 735.948 20.5605C735.069 21.0293 734.034 21.2637 732.843 21.2637C731.817 21.2637 730.885 21.0732 730.045 20.6924C729.205 20.3018 728.487 19.7061 727.892 18.9053C727.296 18.1045 726.837 17.084 726.515 15.8438C726.192 14.6035 726.031 13.1338 726.031 11.4346C726.031 9.96973 726.178 8.63184 726.471 7.4209C726.773 6.20996 727.218 5.1748 727.804 4.31543C728.399 3.44629 729.142 2.77734 730.03 2.30859C730.919 1.83008 731.954 1.59082 733.136 1.59082C734.161 1.59082 735.094 1.78613 735.934 2.17676C736.773 2.55762 737.491 3.15332 738.087 3.96387C738.683 4.76465 739.142 5.78516 739.464 7.02539C739.786 8.26562 739.947 9.73535 739.947 11.4346ZM737.369 11.5225C737.369 11.1904 737.354 10.8633 737.325 10.541C737.306 10.209 737.281 9.88672 737.252 9.57422L729.151 15.5947C729.298 16.1025 729.483 16.5713 729.708 17.001C729.933 17.4307 730.201 17.8018 730.514 18.1143C730.836 18.417 731.197 18.6562 731.598 18.832C732.008 18.998 732.472 19.0811 732.989 19.0811C733.653 19.0811 734.254 18.9199 734.791 18.5977C735.338 18.2754 735.802 17.7969 736.183 17.1621C736.563 16.5273 736.856 15.7412 737.062 14.8037C737.267 13.8564 737.369 12.7627 737.369 11.5225ZM728.609 11.3467C728.609 11.6494 728.609 11.9521 728.609 12.2549C728.619 12.5576 728.639 12.8506 728.668 13.1338L736.769 7.14258C736.622 6.64453 736.437 6.19043 736.212 5.78027C735.987 5.37012 735.719 5.01855 735.406 4.72559C735.094 4.42285 734.737 4.18848 734.337 4.02246C733.937 3.85645 733.487 3.77344 732.989 3.77344C732.325 3.77344 731.72 3.93457 731.173 4.25684C730.636 4.5791 730.177 5.0625 729.796 5.70703C729.415 6.3418 729.122 7.13281 728.917 8.08008C728.712 9.01758 728.609 10.1064 728.609 11.3467Z" fill="black"/>
</g>
<defs>
<clipPath id="clip0_6273_577">
<rect width="741" height="28" fill="white"/>
</clipPath>
</defs>
</svg>
