<svg width="361" height="100" viewBox="0 0 361 100" fill="none" xmlns="http://www.w3.org/2000/svg">
<g clip-path="url(#clip0_6255_1575)">
<rect width="361" height="100" fill="white"/>
<rect opacity="0.2" x="186" y="60" width="135" height="38" rx="10" fill="#00B2FF"/>
<path d="M11.7695 85.458C11.1055 85.7119 10.4219 85.8975 9.71875 86.0146C9.02539 86.1416 8.30762 86.2051 7.56543 86.2051C5.24121 86.2051 3.44922 85.5752 2.18945 84.3154C0.939453 83.0557 0.314453 81.2148 0.314453 78.793C0.314453 77.6309 0.495117 76.5762 0.856445 75.6289C1.21777 74.6816 1.72559 73.8711 2.37988 73.1973C3.03418 72.5234 3.81543 72.0059 4.72363 71.6445C5.63184 71.2734 6.63281 71.0879 7.72656 71.0879C8.48828 71.0879 9.20117 71.1416 9.86523 71.249C10.5293 71.3564 11.1641 71.5322 11.7695 71.7764V74.208C11.1348 73.876 10.4854 73.6367 9.82129 73.4902C9.16699 73.334 8.48828 73.2559 7.78516 73.2559C7.13086 73.2559 6.51074 73.3828 5.9248 73.6367C5.34863 73.8809 4.84082 74.2373 4.40137 74.7061C3.96191 75.1748 3.61523 75.7461 3.36133 76.4199C3.10742 77.0938 2.98047 77.8555 2.98047 78.7051C2.98047 80.4824 3.41016 81.8154 4.26953 82.7041C5.13867 83.583 6.33984 84.0225 7.87305 84.0225C8.56641 84.0225 9.23535 83.9443 9.87988 83.7881C10.5342 83.6318 11.1641 83.3975 11.7695 83.085V85.458ZM59.2744 86L59.2158 84.0225C58.415 84.8135 57.5996 85.3848 56.7695 85.7363C55.9492 86.0879 55.085 86.2637 54.1768 86.2637C53.3369 86.2637 52.6191 86.1562 52.0234 85.9414C51.4277 85.7266 50.9346 85.4336 50.5439 85.0625C50.1631 84.6816 49.8799 84.2373 49.6943 83.7295C49.5186 83.2217 49.4307 82.6699 49.4307 82.0742C49.4307 80.5996 49.9775 79.4473 51.0713 78.6172C52.1748 77.7773 53.8008 77.3574 55.9492 77.3574H58.9961V76.0684C58.9961 75.1992 58.7178 74.5059 58.1611 73.9883C57.6045 73.4609 56.7549 73.1973 55.6123 73.1973C54.7822 73.1973 53.9619 73.29 53.1514 73.4756C52.3506 73.6611 51.5205 73.9248 50.6611 74.2666V71.9668C50.9834 71.8496 51.3398 71.7373 51.7305 71.6299C52.1309 71.5127 52.5508 71.4102 52.9902 71.3223C53.4297 71.2344 53.8887 71.166 54.3672 71.1172C54.8457 71.0586 55.3291 71.0293 55.8174 71.0293C56.7061 71.0293 57.5068 71.127 58.2197 71.3223C58.9326 71.5176 59.5332 71.8154 60.0215 72.2158C60.5195 72.6162 60.9004 73.1191 61.1641 73.7246C61.4277 74.3301 61.5596 75.043 61.5596 75.8633V86H59.2744ZM58.9961 79.3057H55.7588C55.124 79.3057 54.5771 79.3691 54.1182 79.4961C53.6592 79.623 53.2832 79.8037 52.9902 80.0381C52.6973 80.2725 52.4775 80.5557 52.3311 80.8877C52.1943 81.21 52.126 81.5762 52.126 81.9863C52.126 82.2695 52.1699 82.543 52.2578 82.8066C52.3457 83.0605 52.4873 83.29 52.6826 83.4951C52.8779 83.6904 53.1318 83.8467 53.4443 83.9639C53.7568 84.0811 54.1377 84.1396 54.5869 84.1396C55.1729 84.1396 55.8418 83.9639 56.5938 83.6123C57.3555 83.251 58.1562 82.6846 58.9961 81.9131V79.3057ZM111.877 78.3828C111.877 79.6035 111.706 80.6973 111.364 81.6641C111.032 82.6211 110.554 83.4365 109.929 84.1104C109.313 84.7744 108.562 85.2871 107.673 85.6484C106.784 86 105.783 86.1758 104.67 86.1758C103.801 86.1758 102.912 86.0928 102.004 85.9268C101.096 85.7607 100.197 85.4971 99.3086 85.1357V65.3018H101.857V71L101.74 73.7246C102.473 72.7383 103.254 72.0449 104.084 71.6445C104.924 71.2344 105.822 71.0293 106.779 71.0293C107.619 71.0293 108.356 71.2051 108.991 71.5566C109.626 71.9082 110.158 72.4062 110.588 73.0508C111.018 73.6855 111.34 74.457 111.555 75.3652C111.77 76.2637 111.877 77.2695 111.877 78.3828ZM109.27 78.5C109.27 77.7285 109.211 77.0205 109.094 76.376C108.986 75.7314 108.811 75.1797 108.566 74.7207C108.322 74.2617 108.01 73.9053 107.629 73.6514C107.248 73.3877 106.794 73.2559 106.267 73.2559C105.944 73.2559 105.617 73.3096 105.285 73.417C104.953 73.5146 104.606 73.6855 104.245 73.9297C103.894 74.1641 103.518 74.4814 103.117 74.8818C102.727 75.2725 102.307 75.7607 101.857 76.3467V83.4805C102.355 83.6758 102.863 83.832 103.381 83.9492C103.898 84.0566 104.392 84.1104 104.86 84.1104C105.446 84.1104 106.003 84.0176 106.53 83.832C107.067 83.6465 107.536 83.3389 107.937 82.9092C108.347 82.4697 108.669 81.8936 108.903 81.1807C109.147 80.458 109.27 79.5645 109.27 78.5ZM160.217 85.458C159.553 85.7119 158.869 85.8975 158.166 86.0146C157.473 86.1416 156.755 86.2051 156.013 86.2051C153.688 86.2051 151.896 85.5752 150.637 84.3154C149.387 83.0557 148.762 81.2148 148.762 78.793C148.762 77.6309 148.942 76.5762 149.304 75.6289C149.665 74.6816 150.173 73.8711 150.827 73.1973C151.481 72.5234 152.263 72.0059 153.171 71.6445C154.079 71.2734 155.08 71.0879 156.174 71.0879C156.936 71.0879 157.648 71.1416 158.312 71.249C158.977 71.3564 159.611 71.5322 160.217 71.7764V74.208C159.582 73.876 158.933 73.6367 158.269 73.4902C157.614 73.334 156.936 73.2559 156.232 73.2559C155.578 73.2559 154.958 73.3828 154.372 73.6367C153.796 73.8809 153.288 74.2373 152.849 74.7061C152.409 75.1748 152.062 75.7461 151.809 76.4199C151.555 77.0938 151.428 77.8555 151.428 78.7051C151.428 80.4824 151.857 81.8154 152.717 82.7041C153.586 83.583 154.787 84.0225 156.32 84.0225C157.014 84.0225 157.683 83.9443 158.327 83.7881C158.981 83.6318 159.611 83.3975 160.217 83.085V85.458ZM197.526 78.9541C197.526 77.7041 197.697 76.5957 198.039 75.6289C198.381 74.6523 198.864 73.832 199.489 73.168C200.124 72.4941 200.881 71.9863 201.76 71.6445C202.648 71.293 203.635 71.1172 204.719 71.1172C205.188 71.1172 205.646 71.1465 206.096 71.2051C206.555 71.2637 207.004 71.3564 207.443 71.4834V65.3018H210.007V86H207.722L207.634 83.2168C206.921 84.252 206.149 85.0186 205.319 85.5166C204.489 86.0146 203.591 86.2637 202.624 86.2637C201.784 86.2637 201.042 86.0879 200.397 85.7363C199.763 85.3848 199.23 84.8916 198.801 84.2568C198.381 83.6123 198.063 82.8408 197.849 81.9424C197.634 81.0439 197.526 80.0479 197.526 78.9541ZM200.134 78.793C200.134 80.5703 200.393 81.8984 200.91 82.7773C201.438 83.6465 202.18 84.0811 203.137 84.0811C203.781 84.0811 204.46 83.793 205.173 83.2168C205.896 82.6406 206.652 81.7861 207.443 80.6533V73.8271C207.023 73.6318 206.56 73.4854 206.052 73.3877C205.544 73.2803 205.041 73.2266 204.543 73.2266C203.156 73.2266 202.072 73.6758 201.291 74.5742C200.52 75.4727 200.134 76.8789 200.134 78.793ZM260.178 77.8701C260.178 78.2314 260.173 78.5342 260.163 78.7783C260.153 79.0225 260.139 79.252 260.119 79.4668H249.792C249.792 80.9707 250.212 82.1279 251.052 82.9385C251.892 83.7393 253.103 84.1396 254.685 84.1396C255.114 84.1396 255.544 84.125 255.974 84.0957C256.403 84.0566 256.818 84.0078 257.219 83.9492C257.619 83.8906 258 83.8271 258.361 83.7588C258.732 83.6807 259.074 83.5977 259.387 83.5098V85.6045C258.693 85.7998 257.907 85.9561 257.028 86.0732C256.159 86.2002 255.256 86.2637 254.318 86.2637C253.059 86.2637 251.975 86.0928 251.066 85.751C250.158 85.4092 249.411 84.916 248.825 84.2715C248.249 83.6172 247.819 82.8213 247.536 81.8838C247.263 80.9365 247.126 79.8672 247.126 78.6758C247.126 77.6406 247.272 76.6641 247.565 75.7461C247.868 74.8184 248.303 74.0078 248.869 73.3145C249.445 72.6113 250.148 72.0547 250.979 71.6445C251.809 71.2344 252.751 71.0293 253.806 71.0293C254.831 71.0293 255.739 71.1904 256.53 71.5127C257.321 71.835 257.985 72.2939 258.522 72.8896C259.069 73.4756 259.479 74.1934 259.753 75.043C260.036 75.8828 260.178 76.8252 260.178 77.8701ZM257.526 77.5039C257.556 76.8496 257.492 76.2539 257.336 75.7168C257.18 75.1699 256.936 74.7012 256.604 74.3105C256.281 73.9199 255.876 73.6172 255.388 73.4023C254.899 73.1777 254.333 73.0654 253.688 73.0654C253.132 73.0654 252.624 73.1729 252.165 73.3877C251.706 73.6025 251.311 73.9053 250.979 74.2959C250.646 74.6865 250.378 75.1553 250.173 75.7021C249.968 76.249 249.841 76.8496 249.792 77.5039H257.526ZM308.664 85.458C308 85.7119 307.316 85.8975 306.613 86.0146C305.92 86.1416 305.202 86.2051 304.46 86.2051C302.136 86.2051 300.344 85.5752 299.084 84.3154C297.834 83.0557 297.209 81.2148 297.209 78.793C297.209 77.6309 297.39 76.5762 297.751 75.6289C298.112 74.6816 298.62 73.8711 299.274 73.1973C299.929 72.5234 300.71 72.0059 301.618 71.6445C302.526 71.2734 303.527 71.0879 304.621 71.0879C305.383 71.0879 306.096 71.1416 306.76 71.249C307.424 71.3564 308.059 71.5322 308.664 71.7764V74.208C308.029 73.876 307.38 73.6367 306.716 73.4902C306.062 73.334 305.383 73.2559 304.68 73.2559C304.025 73.2559 303.405 73.3828 302.819 73.6367C302.243 73.8809 301.735 74.2373 301.296 74.7061C300.856 75.1748 300.51 75.7461 300.256 76.4199C300.002 77.0938 299.875 77.8555 299.875 78.7051C299.875 80.4824 300.305 81.8154 301.164 82.7041C302.033 83.583 303.234 84.0225 304.768 84.0225C305.461 84.0225 306.13 83.9443 306.774 83.7881C307.429 83.6318 308.059 83.3975 308.664 83.085V85.458ZM356.169 86L356.11 84.0225C355.31 84.8135 354.494 85.3848 353.664 85.7363C352.844 86.0879 351.979 86.2637 351.071 86.2637C350.231 86.2637 349.514 86.1562 348.918 85.9414C348.322 85.7266 347.829 85.4336 347.438 85.0625C347.058 84.6816 346.774 84.2373 346.589 83.7295C346.413 83.2217 346.325 82.6699 346.325 82.0742C346.325 80.5996 346.872 79.4473 347.966 78.6172C349.069 77.7773 350.695 77.3574 352.844 77.3574H355.891V76.0684C355.891 75.1992 355.612 74.5059 355.056 73.9883C354.499 73.4609 353.649 73.1973 352.507 73.1973C351.677 73.1973 350.856 73.29 350.046 73.4756C349.245 73.6611 348.415 73.9248 347.556 74.2666V71.9668C347.878 71.8496 348.234 71.7373 348.625 71.6299C349.025 71.5127 349.445 71.4102 349.885 71.3223C350.324 71.2344 350.783 71.166 351.262 71.1172C351.74 71.0586 352.224 71.0293 352.712 71.0293C353.601 71.0293 354.401 71.127 355.114 71.3223C355.827 71.5176 356.428 71.8154 356.916 72.2158C357.414 72.6162 357.795 73.1191 358.059 73.7246C358.322 74.3301 358.454 75.043 358.454 75.8633V86H356.169ZM355.891 79.3057H352.653C352.019 79.3057 351.472 79.3691 351.013 79.4961C350.554 79.623 350.178 79.8037 349.885 80.0381C349.592 80.2725 349.372 80.5557 349.226 80.8877C349.089 81.21 349.021 81.5762 349.021 81.9863C349.021 82.2695 349.064 82.543 349.152 82.8066C349.24 83.0605 349.382 83.29 349.577 83.4951C349.772 83.6904 350.026 83.8467 350.339 83.9639C350.651 84.0811 351.032 84.1396 351.481 84.1396C352.067 84.1396 352.736 83.9639 353.488 83.6123C354.25 83.251 355.051 82.6846 355.891 81.9131V79.3057Z" fill="black"/>
<path d="M146.447 90.9512H162.941V93.0605H146.447V90.9512Z" fill="black"/>
<rect x="268" y="1" width="69" height="28" rx="6" stroke="#666666" stroke-width="2"/>
<path d="M276.973 12.1953H278.525L278.574 14.002C279.154 13.3053 279.723 12.8008 280.283 12.4883C280.85 12.1758 281.419 12.0195 281.992 12.0195C283.008 12.0195 283.776 12.3483 284.297 13.0059C284.824 13.6634 285.068 14.64 285.029 15.9355H283.311C283.33 15.0762 283.203 14.4544 282.93 14.0703C282.663 13.6797 282.269 13.4844 281.748 13.4844C281.52 13.4844 281.289 13.5267 281.055 13.6113C280.827 13.6895 280.589 13.8197 280.342 14.002C280.101 14.1777 279.844 14.4056 279.57 14.6855C279.297 14.9655 279.004 15.304 278.691 15.7012V22H276.973V12.1953ZM290.908 13.6016H288.008V12.1953H292.627V20.584H295.547V22H287.686V20.584H290.908V13.6016ZM291.504 8.08398C291.693 8.08398 291.868 8.11979 292.031 8.19141C292.194 8.25651 292.334 8.35091 292.451 8.47461C292.575 8.59831 292.669 8.74154 292.734 8.9043C292.806 9.06055 292.842 9.23307 292.842 9.42188C292.842 9.60417 292.806 9.77669 292.734 9.93945C292.669 10.1022 292.575 10.2454 292.451 10.3691C292.334 10.4928 292.194 10.5905 292.031 10.6621C291.868 10.7272 291.693 10.7598 291.504 10.7598C291.315 10.7598 291.139 10.7272 290.977 10.6621C290.814 10.5905 290.671 10.4928 290.547 10.3691C290.43 10.2454 290.335 10.1022 290.264 9.93945C290.199 9.77669 290.166 9.60417 290.166 9.42188C290.166 9.23307 290.199 9.06055 290.264 8.9043C290.335 8.74154 290.43 8.59831 290.547 8.47461C290.671 8.35091 290.814 8.25651 290.977 8.19141C291.139 8.11979 291.315 8.08398 291.504 8.08398ZM305.625 13.582C305.807 13.8099 305.947 14.0768 306.045 14.3828C306.149 14.6823 306.201 15.0078 306.201 15.3594C306.201 15.8672 306.107 16.3327 305.918 16.7559C305.736 17.1725 305.475 17.5306 305.137 17.8301C304.798 18.1296 304.391 18.3639 303.916 18.5332C303.447 18.696 302.93 18.7773 302.363 18.7773C301.953 18.7773 301.569 18.735 301.211 18.6504C300.853 18.5592 300.57 18.4486 300.361 18.3184C300.238 18.5007 300.133 18.6732 300.049 18.8359C299.964 18.9987 299.922 19.181 299.922 19.3828C299.922 19.6302 300.039 19.8353 300.273 19.998C300.514 20.1608 300.83 20.2487 301.221 20.2617L303.799 20.3594C304.287 20.3724 304.736 20.4342 305.146 20.5449C305.563 20.6556 305.918 20.8151 306.211 21.0234C306.51 21.2318 306.742 21.4889 306.904 21.7949C307.074 22.1009 307.158 22.4557 307.158 22.8594C307.158 23.2956 307.064 23.709 306.875 24.0996C306.686 24.4902 306.393 24.832 305.996 25.125C305.605 25.4245 305.107 25.6621 304.502 25.8379C303.896 26.0137 303.177 26.1016 302.344 26.1016C301.549 26.1016 300.872 26.0365 300.312 25.9062C299.759 25.7826 299.303 25.6068 298.945 25.3789C298.587 25.1576 298.327 24.8906 298.164 24.5781C298.001 24.2721 297.92 23.9336 297.92 23.5625C297.92 23.0872 298.031 22.6706 298.252 22.3125C298.473 21.9544 298.815 21.6094 299.277 21.2773C299.108 21.1992 298.962 21.1016 298.838 20.9844C298.714 20.8672 298.613 20.7402 298.535 20.6035C298.457 20.4603 298.398 20.3105 298.359 20.1543C298.32 19.998 298.301 19.8451 298.301 19.6953C298.301 19.2721 298.398 18.8848 298.594 18.5332C298.796 18.1816 299.033 17.8496 299.307 17.5371C299.183 17.3874 299.072 17.2409 298.975 17.0977C298.883 16.9544 298.802 16.8014 298.73 16.6387C298.665 16.4694 298.613 16.2904 298.574 16.1016C298.542 15.9062 298.525 15.6849 298.525 15.4375C298.525 14.9297 298.617 14.4674 298.799 14.0508C298.988 13.6276 299.248 13.2663 299.58 12.9668C299.919 12.6673 300.322 12.4362 300.791 12.2734C301.266 12.1042 301.79 12.0195 302.363 12.0195C302.604 12.0195 302.835 12.0358 303.057 12.0684C303.278 12.1009 303.473 12.1432 303.643 12.1953H307.197V13.582H305.625ZM299.727 23.416C299.727 23.8783 299.967 24.2135 300.449 24.4219C300.931 24.6367 301.602 24.7441 302.461 24.7441C303.001 24.7441 303.454 24.6953 303.818 24.5977C304.189 24.5 304.486 24.3698 304.707 24.207C304.935 24.0508 305.098 23.8685 305.195 23.6602C305.293 23.4583 305.342 23.25 305.342 23.0352C305.342 22.638 305.179 22.3451 304.854 22.1562C304.528 21.9674 304.03 21.8568 303.359 21.8242L300.801 21.7363C300.586 21.8796 300.407 22.0195 300.264 22.1562C300.127 22.293 300.02 22.4297 299.941 22.5664C299.863 22.7096 299.808 22.8496 299.775 22.9863C299.743 23.1296 299.727 23.2728 299.727 23.416ZM300.244 15.3984C300.244 15.7109 300.296 15.9974 300.4 16.2578C300.505 16.5182 300.651 16.7396 300.84 16.9219C301.029 17.1042 301.25 17.2474 301.504 17.3516C301.764 17.4492 302.051 17.498 302.363 17.498C302.702 17.498 303.001 17.4427 303.262 17.332C303.529 17.2148 303.75 17.0586 303.926 16.8633C304.108 16.668 304.245 16.4434 304.336 16.1895C304.434 15.9355 304.482 15.6719 304.482 15.3984C304.482 15.0859 304.43 14.7995 304.326 14.5391C304.222 14.2786 304.076 14.0573 303.887 13.875C303.698 13.6927 303.473 13.5527 303.213 13.4551C302.959 13.3509 302.676 13.2988 302.363 13.2988C302.025 13.2988 301.722 13.3574 301.455 13.4746C301.195 13.5918 300.973 13.748 300.791 13.9434C300.615 14.1322 300.479 14.3535 300.381 14.6074C300.29 14.8613 300.244 15.125 300.244 15.3984ZM317.441 22H315.742V15.7402C315.742 14.985 315.599 14.4219 315.312 14.0508C315.033 13.6732 314.629 13.4844 314.102 13.4844C313.874 13.4844 313.659 13.5169 313.457 13.582C313.262 13.6406 313.057 13.748 312.842 13.9043C312.627 14.054 312.393 14.2591 312.139 14.5195C311.885 14.7799 311.592 15.1055 311.26 15.4961V22H309.561V8.20117H311.26V12.1953L311.201 13.7383C311.468 13.4193 311.729 13.1523 311.982 12.9375C312.243 12.7161 312.5 12.5371 312.754 12.4004C313.014 12.2637 313.278 12.166 313.545 12.1074C313.812 12.0488 314.089 12.0195 314.375 12.0195C315.352 12.0195 316.107 12.319 316.641 12.918C317.174 13.5104 317.441 14.4056 317.441 15.6035V22ZM328.457 21.8633C328.073 21.9609 327.676 22.0293 327.266 22.0684C326.855 22.1139 326.439 22.1367 326.016 22.1367C324.785 22.1367 323.867 21.86 323.262 21.3066C322.656 20.7467 322.354 19.8906 322.354 18.7383V13.6211H319.609V12.1953H322.354V9.5L324.053 9.06055V12.1953H328.457V13.6211H324.053V18.6016C324.053 19.3047 324.238 19.832 324.609 20.1836C324.987 20.5286 325.54 20.7012 326.27 20.7012C326.582 20.7012 326.924 20.6784 327.295 20.6328C327.666 20.5807 328.053 20.5026 328.457 20.3984V21.8633Z" fill="#666666"/>
<path d="M301.293 57.7071C301.683 58.0976 302.317 58.0976 302.707 57.7071L309.071 51.3431C309.462 50.9526 309.462 50.3195 309.071 49.9289C308.681 49.5384 308.047 49.5384 307.657 49.9289L302 55.5858L296.343 49.9289C295.953 49.5384 295.319 49.5384 294.929 49.9289C294.538 50.3195 294.538 50.9526 294.929 51.3431L301.293 57.7071ZM301 30L301 57L303 57L303 30L301 30Z" fill="#666666"/>
<rect x="170" y="1" width="69" height="28" rx="6" fill="#FFF4EF" stroke="#FF5500" stroke-width="2"/>
<path d="M187.91 9.59766H185.01V8.20117H189.629V20.584H192.549V22H184.688V20.584H187.91V9.59766ZM203.848 16.5801C203.848 16.821 203.844 17.0228 203.838 17.1855C203.831 17.3483 203.822 17.5013 203.809 17.6445H196.924C196.924 18.6471 197.204 19.4186 197.764 19.959C198.324 20.4928 199.131 20.7598 200.186 20.7598C200.472 20.7598 200.758 20.75 201.045 20.7305C201.331 20.7044 201.608 20.6719 201.875 20.6328C202.142 20.5938 202.396 20.5514 202.637 20.5059C202.884 20.4538 203.112 20.3984 203.32 20.3398V21.7363C202.858 21.8665 202.334 21.9707 201.748 22.0488C201.169 22.1335 200.566 22.1758 199.941 22.1758C199.102 22.1758 198.379 22.0618 197.773 21.834C197.168 21.6061 196.67 21.2773 196.279 20.8477C195.895 20.4115 195.609 19.8809 195.42 19.2559C195.238 18.6243 195.146 17.9115 195.146 17.1172C195.146 16.4271 195.244 15.776 195.439 15.1641C195.641 14.5456 195.931 14.0052 196.309 13.543C196.693 13.0742 197.161 12.7031 197.715 12.4297C198.268 12.1562 198.896 12.0195 199.6 12.0195C200.283 12.0195 200.889 12.127 201.416 12.3418C201.943 12.5566 202.386 12.8626 202.744 13.2598C203.109 13.6504 203.382 14.1289 203.564 14.6953C203.753 15.2552 203.848 15.8835 203.848 16.5801ZM202.08 16.3359C202.1 15.8997 202.057 15.5026 201.953 15.1445C201.849 14.7799 201.686 14.4674 201.465 14.207C201.25 13.9466 200.98 13.7448 200.654 13.6016C200.329 13.4518 199.951 13.377 199.521 13.377C199.15 13.377 198.812 13.4486 198.506 13.5918C198.2 13.735 197.936 13.9368 197.715 14.1973C197.493 14.4577 197.314 14.7702 197.178 15.1348C197.041 15.4993 196.956 15.8997 196.924 16.3359H202.08ZM215.264 9.7832C214.372 9.5944 213.604 9.5 212.959 9.5C211.429 9.5 210.664 10.3008 210.664 11.9023V13.6211H214.961V15.0371H210.664V22H208.936V15.0371H205.781V13.6211H208.936V12C208.936 9.38932 210.296 8.08398 213.018 8.08398C213.695 8.08398 214.443 8.16211 215.264 8.31836V9.7832ZM225.459 21.8633C225.075 21.9609 224.678 22.0293 224.268 22.0684C223.857 22.1139 223.441 22.1367 223.018 22.1367C221.787 22.1367 220.869 21.86 220.264 21.3066C219.658 20.7467 219.355 19.8906 219.355 18.7383V13.6211H216.611V12.1953H219.355V9.5L221.055 9.06055V12.1953H225.459V13.6211H221.055V18.6016C221.055 19.3047 221.24 19.832 221.611 20.1836C221.989 20.5286 222.542 20.7012 223.271 20.7012C223.584 20.7012 223.926 20.6784 224.297 20.6328C224.668 20.5807 225.055 20.5026 225.459 20.3984V21.8633Z" fill="#FF5500"/>
<path d="M203.293 57.7071C203.683 58.0976 204.317 58.0976 204.707 57.7071L211.071 51.3431C211.462 50.9526 211.462 50.3195 211.071 49.9289C210.681 49.5384 210.047 49.5384 209.657 49.9289L204 55.5858L198.343 49.9289C197.953 49.5384 197.319 49.5384 196.929 49.9289C196.538 50.3195 196.538 50.9526 196.929 51.3431L203.293 57.7071ZM203 30L203 57L205 57L205 30L203 30Z" fill="#FF5500"/>
<path d="M62.3095 65.2769C61.91 65.6582 61.8953 66.2912 62.2767 66.6907C62.658 67.0902 63.291 67.1049 63.6905 66.7236L62.3095 65.2769ZM129 49L129 50L129 49ZM198.034 66.9996C198.586 66.9809 199.018 66.5184 198.999 65.9664L198.695 56.9715C198.676 56.4196 198.214 55.9872 197.662 56.0059C197.11 56.0246 196.678 56.4872 196.696 57.0391L196.967 65.0346L188.971 65.305C188.419 65.3237 187.987 65.7863 188.006 66.3383C188.024 66.8902 188.487 67.3226 189.039 67.3039L198.034 66.9996ZM65.0829 65.5857C65.5237 65.2528 65.6112 64.6258 65.2784 64.185C64.9456 63.7443 64.3185 63.6568 63.8777 63.9896L65.0829 65.5857ZM67.1417 61.7714C66.672 62.0621 66.527 62.6784 66.8176 63.148C67.1083 63.6176 67.7246 63.7627 68.1942 63.472L67.1417 61.7714ZM71.4809 61.5914C71.9688 61.3326 72.1545 60.7272 71.8956 60.2394C71.6368 59.7515 71.0315 59.5658 70.5436 59.8246L71.4809 61.5914ZM74.0453 58.0919C73.5439 58.3235 73.3251 58.9176 73.5566 59.419C73.7882 59.9204 74.3824 60.1392 74.8838 59.9076L74.0453 58.0919ZM78.3785 58.3968C78.8905 58.1897 79.1376 57.6068 78.9305 57.0948C78.7233 56.5828 78.1404 56.3357 77.6284 56.5428L78.3785 58.3968ZM81.2607 55.1649C80.7402 55.3499 80.4683 55.9216 80.6532 56.442C80.8381 56.9625 81.4099 57.2344 81.9303 57.0495L81.2607 55.1649ZM85.545 55.8456C86.0723 55.6812 86.3664 55.1205 86.2021 54.5933C86.0377 54.066 85.477 53.7718 84.9498 53.9362L85.545 55.8456ZM88.6845 52.8465C88.1517 52.9917 87.8375 53.5414 87.9827 54.0742C88.1279 54.6071 88.6776 54.9213 89.2104 54.7761L88.6845 52.8465ZM92.9154 53.8335C93.4528 53.7062 93.7852 53.1673 93.6579 52.6299C93.5306 52.0925 92.9918 51.76 92.4543 51.8874L92.9154 53.8335ZM96.2368 51.0538C95.6957 51.1644 95.3467 51.6927 95.4572 52.2338C95.5678 52.7749 96.0961 53.1239 96.6372 53.0134L96.2368 51.0538ZM100.392 52.3036C100.937 52.2088 101.301 51.6909 101.206 51.1468C101.111 50.6027 100.593 50.2385 100.049 50.3332L100.392 52.3036ZM103.883 49.7202C103.336 49.8 102.958 50.3077 103.038 50.8542C103.117 51.4007 103.625 51.779 104.172 51.6992L103.883 49.7202ZM107.967 51.1952C108.516 51.1295 108.907 50.6318 108.841 50.0834C108.775 49.535 108.278 49.1437 107.729 49.2094L107.967 51.1952ZM111.585 48.7955C111.035 48.8478 110.632 49.336 110.684 49.8858C110.736 50.4356 111.224 50.8388 111.774 50.7865L111.585 48.7955ZM115.589 50.4681C116.14 50.4284 116.554 49.9497 116.515 49.3988C116.475 48.848 115.996 48.4336 115.445 48.4732L115.589 50.4681ZM119.309 48.2377C118.757 48.2653 118.333 48.7349 118.36 49.2865C118.388 49.8381 118.858 50.2628 119.409 50.2352L119.309 48.2377ZM123.234 50.0836C123.786 50.0674 124.22 49.6067 124.204 49.0547C124.188 48.5026 123.727 48.0683 123.175 48.0845L123.234 50.0836ZM127.043 48.0094C126.491 48.0147 126.047 48.4667 126.052 49.019C126.058 49.5712 126.51 50.0146 127.062 50.0093L127.043 48.0094ZM131.02 50.0091C131.573 50.014 132.024 49.5704 132.029 49.0181C132.034 48.4659 131.591 48.0141 131.039 48.0091L131.02 50.0091ZM135.065 48.0824C134.513 48.0672 134.053 48.5024 134.038 49.0545C134.023 49.6066 134.458 50.0664 135.01 50.0816L135.065 48.0824ZM138.996 50.2298C139.548 50.2558 140.016 49.8296 140.042 49.2779C140.068 48.7262 139.642 48.258 139.09 48.2321L138.996 50.2298ZM143.113 48.4623C142.562 48.425 142.085 48.8415 142.048 49.3925C142.01 49.9435 142.427 50.4204 142.978 50.4577L143.113 48.4623ZM146.955 50.7697C147.505 50.8189 147.991 50.4129 148.04 49.8628C148.089 49.3127 147.683 48.8269 147.133 48.7776L146.955 50.7697ZM151.15 49.1832C150.601 49.1214 150.106 49.5161 150.044 50.0649C149.982 50.6137 150.377 51.1088 150.926 51.1706L151.15 49.1832ZM154.887 51.6658C155.434 51.7411 155.938 51.3585 156.014 50.8114C156.089 50.2643 155.706 49.7597 155.159 49.6844L154.887 51.6658ZM159.157 50.287C158.612 50.1975 158.098 50.5668 158.008 51.1118C157.919 51.6567 158.288 52.1711 158.833 52.2606L159.157 50.287ZM162.757 52.9606C163.299 53.0653 163.824 52.7105 163.928 52.1682C164.033 51.6259 163.678 51.1015 163.136 50.9969L162.757 52.9606ZM167.087 51.8197C166.548 51.699 166.013 52.038 165.893 52.5769C165.772 53.1158 166.111 53.6506 166.65 53.7714L167.087 51.8197ZM170.515 54.7019C171.05 54.8399 171.595 54.5183 171.733 53.9835C171.871 53.4488 171.549 52.9034 171.015 52.7654L170.515 54.7019ZM174.925 53.8469C174.396 53.6903 173.839 53.9926 173.683 54.5222C173.526 55.0518 173.828 55.6081 174.358 55.7648L174.925 53.8469ZM178.138 56.9603C178.661 57.137 179.229 56.8561 179.405 56.3328C179.582 55.8095 179.301 55.2421 178.778 55.0654L178.138 56.9603ZM182.593 56.4428C182.078 56.2441 181.499 56.5008 181.3 57.0161C181.102 57.5314 181.358 58.1102 181.874 58.3089L182.593 56.4428ZM185.541 59.8219C186.047 60.0449 186.637 59.816 186.86 59.3108C187.083 58.8055 186.854 58.2151 186.349 57.9922L185.541 59.8219ZM190.014 59.7276C189.522 59.4773 188.92 59.6735 188.669 60.1658C188.419 60.6581 188.615 61.2601 189.108 61.5104L190.014 59.7276ZM192.576 63.4166C193.05 63.6993 193.664 63.5439 193.947 63.0695C194.229 62.5951 194.074 61.9813 193.6 61.6985L192.576 63.4166ZM197.033 63.9524C196.587 63.6261 195.962 63.7229 195.635 64.1686C195.309 64.6142 195.406 65.24 195.852 65.5662L197.033 63.9524ZM63 66.0002C63.6905 66.7236 63.6904 66.7236 63.6903 66.7237C63.6903 66.7237 63.6902 66.7238 63.6902 66.7238C63.6901 66.7239 63.69 66.724 63.6899 66.7241C63.6898 66.7242 63.6897 66.7243 63.6896 66.7244C63.6894 66.7246 63.6893 66.7247 63.6894 66.7246C63.6895 66.7245 63.69 66.724 63.691 66.723C63.6931 66.7211 63.697 66.7175 63.7028 66.7121C63.7143 66.7014 63.7333 66.6839 63.76 66.6598C63.8132 66.6117 63.8969 66.5376 64.0118 66.4397C64.2416 66.2439 64.5963 65.9531 65.0829 65.5857L63.8777 63.9896C63.3592 64.3811 62.9738 64.6966 62.7147 64.9174C62.5851 65.0277 62.4872 65.1144 62.4199 65.1751C62.3863 65.2055 62.3604 65.2293 62.342 65.2464C62.3328 65.2549 62.3255 65.2617 62.3201 65.2668C62.3174 65.2694 62.3152 65.2715 62.3134 65.2731C62.3125 65.274 62.3118 65.2747 62.3111 65.2753C62.3108 65.2756 62.3105 65.2759 62.3102 65.2762C62.3101 65.2763 62.31 65.2764 62.3099 65.2765C62.3098 65.2766 62.3097 65.2767 62.3097 65.2767C62.3096 65.2768 62.3095 65.2769 63 66.0002ZM68.1942 63.472C69.1322 62.8915 70.2251 62.2576 71.4809 61.5914L70.5436 59.8246C69.2482 60.5118 68.1169 61.1678 67.1417 61.7714L68.1942 63.472ZM74.8838 59.9076C75.9631 59.4092 77.1271 58.9031 78.3785 58.3968L77.6284 56.5428C76.3472 57.0612 75.1537 57.58 74.0453 58.0919L74.8838 59.9076ZM81.9303 57.0495C83.0753 56.6426 84.2797 56.24 85.545 55.8456L84.9498 53.9362C83.6596 54.3384 82.4304 54.7493 81.2607 55.1649L81.9303 57.0495ZM89.2104 54.7761C90.3989 54.4522 91.6335 54.1371 92.9154 53.8335L92.4543 51.8874C91.1509 52.1961 89.8946 52.5167 88.6845 52.8465L89.2104 54.7761ZM96.6372 53.0134C97.851 52.7654 99.1025 52.5282 100.392 52.3036L100.049 50.3332C98.7404 50.5611 97.4698 50.8019 96.2368 51.0538L96.6372 53.0134ZM104.172 51.6992C105.405 51.5191 106.67 51.3507 107.967 51.1952L107.729 49.2094C106.415 49.3669 105.133 49.5376 103.883 49.7202L104.172 51.6992ZM111.774 50.7865C113.018 50.6681 114.29 50.5616 115.589 50.4681L115.445 48.4732C114.131 48.5679 112.844 48.6756 111.585 48.7955L111.774 50.7865ZM119.409 50.2352C120.66 50.1725 121.934 50.1217 123.234 50.0836L123.175 48.0845C121.862 48.123 120.574 48.1743 119.309 48.2377L119.409 50.2352ZM127.062 50.0093C127.702 50.0031 128.348 50 129 50L129 48C128.342 48 127.69 48.0032 127.043 48.0094L127.062 50.0093ZM129 50C129.679 50 130.353 50.003 131.02 50.0091L131.039 48.0091C130.365 48.0031 129.685 48 129 48L129 50ZM135.01 50.0816C136.364 50.1189 137.693 50.1686 138.996 50.2298L139.09 48.2321C137.774 48.1702 136.432 48.12 135.065 48.0824L135.01 50.0816ZM142.978 50.4577C144.333 50.5493 145.658 50.6537 146.955 50.7697L147.133 48.7776C145.822 48.6603 144.482 48.5549 143.113 48.4623L142.978 50.4577ZM150.926 51.1706C152.28 51.3233 153.6 51.4888 154.887 51.6658L155.159 49.6844C153.856 49.5052 152.52 49.3377 151.15 49.1832L150.926 51.1706ZM158.833 52.2606C160.181 52.482 161.489 52.7159 162.757 52.9606L163.136 50.9969C161.849 50.7486 160.523 50.5114 159.157 50.287L158.833 52.2606ZM166.65 53.7714C167.987 54.071 169.275 54.382 170.515 54.7019L171.015 52.7654C169.754 52.4401 168.445 52.124 167.087 51.8197L166.65 53.7714ZM174.358 55.7648C175.681 56.1562 176.941 56.556 178.138 56.9603L178.778 55.0654C177.557 54.653 176.273 54.2455 174.925 53.8469L174.358 55.7648ZM181.874 58.3089C183.187 58.8155 184.409 59.3223 185.541 59.8219L186.349 57.9922C185.187 57.4797 183.937 56.9608 182.593 56.4428L181.874 58.3089ZM189.108 61.5104C190.434 62.1849 191.587 62.8275 192.576 63.4166L193.6 61.6985C192.573 61.0867 191.381 60.4225 190.014 59.7276L189.108 61.5104ZM195.852 65.5662C196.365 65.942 196.739 66.2397 196.98 66.4402C197.101 66.5404 197.189 66.6164 197.244 66.6656C197.272 66.6902 197.292 66.7081 197.304 66.7191C197.31 66.7246 197.315 66.7283 197.317 66.7303C197.318 66.7313 197.318 66.7318 197.318 66.7319C197.318 66.7319 197.318 66.7319 197.318 66.7317C197.318 66.7316 197.318 66.7315 197.318 66.7313C197.318 66.7313 197.318 66.7312 197.318 66.7311C197.317 66.731 197.317 66.731 197.317 66.7309C197.317 66.7309 197.317 66.7308 198 66.0002C198.683 65.2696 198.683 65.2695 198.683 65.2694C198.683 65.2694 198.683 65.2693 198.682 65.2693C198.682 65.2691 198.682 65.269 198.682 65.2689C198.682 65.2686 198.681 65.2683 198.681 65.268C198.68 65.2674 198.68 65.2666 198.679 65.2658C198.677 65.264 198.674 65.2619 198.672 65.2593C198.666 65.254 198.658 65.247 198.649 65.2383C198.629 65.2208 198.602 65.1964 198.567 65.1653C198.496 65.1031 198.394 65.0143 198.257 64.9013C197.985 64.6753 197.58 64.3526 197.033 63.9524L195.852 65.5662ZM62.3095 65.2769C61.91 65.6582 61.8953 66.2912 62.2767 66.6907C62.658 67.0902 63.291 67.1049 63.6905 66.7236L62.3095 65.2769ZM129 49L129 50L129 49ZM198.034 66.9996C198.586 66.9809 199.018 66.5184 198.999 65.9664L198.695 56.9715C198.676 56.4196 198.214 55.9872 197.662 56.0059C197.11 56.0246 196.678 56.4872 196.696 57.0391L196.967 65.0346L188.971 65.305C188.419 65.3237 187.987 65.7863 188.006 66.3383C188.024 66.8902 188.487 67.3226 189.039 67.3039L198.034 66.9996ZM65.0829 65.5857C65.5237 65.2528 65.6112 64.6258 65.2784 64.185C64.9456 63.7443 64.3185 63.6568 63.8777 63.9896L65.0829 65.5857ZM67.1417 61.7714C66.672 62.0621 66.527 62.6784 66.8176 63.148C67.1083 63.6176 67.7246 63.7627 68.1942 63.472L67.1417 61.7714ZM71.4809 61.5914C71.9688 61.3326 72.1545 60.7272 71.8956 60.2394C71.6368 59.7515 71.0315 59.5658 70.5436 59.8246L71.4809 61.5914ZM74.0453 58.0919C73.5439 58.3235 73.3251 58.9176 73.5566 59.419C73.7882 59.9204 74.3824 60.1392 74.8838 59.9076L74.0453 58.0919ZM78.3785 58.3968C78.8905 58.1897 79.1376 57.6068 78.9305 57.0948C78.7233 56.5828 78.1404 56.3357 77.6284 56.5428L78.3785 58.3968ZM81.2607 55.1649C80.7402 55.3499 80.4683 55.9216 80.6532 56.442C80.8381 56.9625 81.4099 57.2344 81.9303 57.0495L81.2607 55.1649ZM85.545 55.8456C86.0723 55.6812 86.3664 55.1205 86.2021 54.5933C86.0377 54.066 85.477 53.7718 84.9498 53.9362L85.545 55.8456ZM88.6845 52.8465C88.1517 52.9917 87.8375 53.5414 87.9827 54.0742C88.1279 54.6071 88.6776 54.9213 89.2104 54.7761L88.6845 52.8465ZM92.9154 53.8335C93.4528 53.7062 93.7852 53.1673 93.6579 52.6299C93.5306 52.0925 92.9918 51.76 92.4543 51.8874L92.9154 53.8335ZM96.2368 51.0538C95.6957 51.1644 95.3467 51.6927 95.4572 52.2338C95.5678 52.7749 96.0961 53.1239 96.6372 53.0134L96.2368 51.0538ZM100.392 52.3036C100.937 52.2088 101.301 51.6909 101.206 51.1468C101.111 50.6027 100.593 50.2385 100.049 50.3332L100.392 52.3036ZM103.883 49.7202C103.336 49.8 102.958 50.3077 103.038 50.8542C103.117 51.4007 103.625 51.779 104.172 51.6992L103.883 49.7202ZM107.967 51.1952C108.516 51.1295 108.907 50.6318 108.841 50.0834C108.775 49.535 108.278 49.1437 107.729 49.2094L107.967 51.1952ZM111.585 48.7955C111.035 48.8478 110.632 49.336 110.684 49.8858C110.736 50.4356 111.224 50.8388 111.774 50.7865L111.585 48.7955ZM115.589 50.4681C116.14 50.4284 116.554 49.9497 116.515 49.3988C116.475 48.848 115.996 48.4336 115.445 48.4732L115.589 50.4681ZM119.309 48.2377C118.757 48.2653 118.333 48.7349 118.36 49.2865C118.388 49.8381 118.858 50.2628 119.409 50.2352L119.309 48.2377ZM123.234 50.0836C123.786 50.0674 124.22 49.6067 124.204 49.0547C124.188 48.5026 123.727 48.0683 123.175 48.0845L123.234 50.0836ZM127.043 48.0094C126.491 48.0147 126.047 48.4667 126.052 49.019C126.058 49.5712 126.51 50.0146 127.062 50.0093L127.043 48.0094ZM131.02 50.0091C131.573 50.014 132.024 49.5704 132.029 49.0181C132.034 48.4659 131.591 48.0141 131.039 48.0091L131.02 50.0091ZM135.065 48.0824C134.513 48.0672 134.053 48.5024 134.038 49.0545C134.023 49.6066 134.458 50.0664 135.01 50.0816L135.065 48.0824ZM138.996 50.2298C139.548 50.2558 140.016 49.8296 140.042 49.2779C140.068 48.7262 139.642 48.258 139.09 48.2321L138.996 50.2298ZM143.113 48.4623C142.562 48.425 142.085 48.8415 142.048 49.3925C142.01 49.9435 142.427 50.4204 142.978 50.4577L143.113 48.4623ZM146.955 50.7697C147.505 50.8189 147.991 50.4129 148.04 49.8628C148.089 49.3127 147.683 48.8269 147.133 48.7776L146.955 50.7697ZM151.15 49.1832C150.601 49.1214 150.106 49.5161 150.044 50.0649C149.982 50.6137 150.377 51.1088 150.926 51.1706L151.15 49.1832ZM154.887 51.6658C155.434 51.7411 155.938 51.3585 156.014 50.8114C156.089 50.2643 155.706 49.7597 155.159 49.6844L154.887 51.6658ZM159.157 50.287C158.612 50.1975 158.098 50.5668 158.008 51.1118C157.919 51.6567 158.288 52.1711 158.833 52.2606L159.157 50.287ZM162.757 52.9606C163.299 53.0653 163.824 52.7105 163.928 52.1682C164.033 51.6259 163.678 51.1015 163.136 50.9969L162.757 52.9606ZM167.087 51.8197C166.548 51.699 166.013 52.038 165.893 52.5769C165.772 53.1158 166.111 53.6506 166.65 53.7714L167.087 51.8197ZM170.515 54.7019C171.05 54.8399 171.595 54.5183 171.733 53.9835C171.871 53.4488 171.549 52.9034 171.015 52.7654L170.515 54.7019ZM174.925 53.8469C174.396 53.6903 173.839 53.9926 173.683 54.5222C173.526 55.0518 173.828 55.6081 174.358 55.7648L174.925 53.8469ZM178.138 56.9603C178.661 57.137 179.229 56.8561 179.405 56.3328C179.582 55.8095 179.301 55.2421 178.778 55.0654L178.138 56.9603ZM182.593 56.4428C182.078 56.2441 181.499 56.5008 181.3 57.0161C181.102 57.5314 181.358 58.1102 181.874 58.3089L182.593 56.4428ZM185.541 59.8219C186.047 60.0449 186.637 59.816 186.86 59.3108C187.083 58.8055 186.854 58.2151 186.349 57.9922L185.541 59.8219ZM190.014 59.7276C189.522 59.4773 188.92 59.6735 188.669 60.1658C188.419 60.6581 188.615 61.2601 189.108 61.5104L190.014 59.7276ZM192.576 63.4166C193.05 63.6993 193.664 63.5439 193.947 63.0695C194.229 62.5951 194.074 61.9813 193.6 61.6985L192.576 63.4166ZM197.033 63.9524C196.587 63.6261 195.962 63.7229 195.635 64.1686C195.309 64.6142 195.406 65.24 195.852 65.5662L197.033 63.9524ZM63 66.0002C63.6905 66.7236 63.6904 66.7236 63.6903 66.7237C63.6903 66.7237 63.6902 66.7238 63.6902 66.7238C63.6901 66.7239 63.69 66.724 63.6899 66.7241C63.6898 66.7242 63.6897 66.7243 63.6896 66.7244C63.6894 66.7246 63.6893 66.7247 63.6894 66.7246C63.6895 66.7245 63.69 66.724 63.691 66.723C63.6931 66.7211 63.697 66.7175 63.7028 66.7121C63.7143 66.7014 63.7333 66.6839 63.76 66.6598C63.8132 66.6117 63.8969 66.5376 64.0118 66.4397C64.2416 66.2439 64.5963 65.9531 65.0829 65.5857L63.8777 63.9896C63.3592 64.3811 62.9738 64.6966 62.7147 64.9174C62.5851 65.0277 62.4872 65.1144 62.4199 65.1751C62.3863 65.2055 62.3604 65.2293 62.342 65.2464C62.3328 65.2549 62.3255 65.2617 62.3201 65.2668C62.3174 65.2694 62.3152 65.2715 62.3134 65.2731C62.3125 65.274 62.3118 65.2747 62.3111 65.2753C62.3108 65.2756 62.3105 65.2759 62.3102 65.2762C62.3101 65.2763 62.31 65.2764 62.3099 65.2765C62.3098 65.2766 62.3097 65.2767 62.3097 65.2767C62.3096 65.2768 62.3095 65.2769 63 66.0002ZM68.1942 63.472C69.1322 62.8915 70.2251 62.2576 71.4809 61.5914L70.5436 59.8246C69.2482 60.5118 68.1169 61.1678 67.1417 61.7714L68.1942 63.472ZM74.8838 59.9076C75.9631 59.4092 77.1271 58.9031 78.3785 58.3968L77.6284 56.5428C76.3472 57.0612 75.1537 57.58 74.0453 58.0919L74.8838 59.9076ZM81.9303 57.0495C83.0753 56.6426 84.2797 56.24 85.545 55.8456L84.9498 53.9362C83.6596 54.3384 82.4304 54.7493 81.2607 55.1649L81.9303 57.0495ZM89.2104 54.7761C90.3989 54.4522 91.6335 54.1371 92.9154 53.8335L92.4543 51.8874C91.1509 52.1961 89.8946 52.5167 88.6845 52.8465L89.2104 54.7761ZM96.6372 53.0134C97.851 52.7654 99.1025 52.5282 100.392 52.3036L100.049 50.3332C98.7404 50.5611 97.4698 50.8019 96.2368 51.0538L96.6372 53.0134ZM104.172 51.6992C105.405 51.5191 106.67 51.3507 107.967 51.1952L107.729 49.2094C106.415 49.3669 105.133 49.5376 103.883 49.7202L104.172 51.6992ZM111.774 50.7865C113.018 50.6681 114.29 50.5616 115.589 50.4681L115.445 48.4732C114.131 48.5679 112.844 48.6756 111.585 48.7955L111.774 50.7865ZM119.409 50.2352C120.66 50.1725 121.934 50.1217 123.234 50.0836L123.175 48.0845C121.862 48.123 120.574 48.1743 119.309 48.2377L119.409 50.2352ZM127.062 50.0093C127.702 50.0031 128.348 50 129 50L129 48C128.342 48 127.69 48.0032 127.043 48.0094L127.062 50.0093ZM129 50C129.679 50 130.353 50.003 131.02 50.0091L131.039 48.0091C130.365 48.0031 129.685 48 129 48L129 50ZM135.01 50.0816C136.364 50.1189 137.693 50.1686 138.996 50.2298L139.09 48.2321C137.774 48.1702 136.432 48.12 135.065 48.0824L135.01 50.0816ZM142.978 50.4577C144.333 50.5493 145.658 50.6537 146.955 50.7697L147.133 48.7776C145.822 48.6603 144.482 48.5549 143.113 48.4623L142.978 50.4577ZM150.926 51.1706C152.28 51.3233 153.6 51.4888 154.887 51.6658L155.159 49.6844C153.856 49.5052 152.52 49.3377 151.15 49.1832L150.926 51.1706ZM158.833 52.2606C160.181 52.482 161.489 52.7159 162.757 52.9606L163.136 50.9969C161.849 50.7486 160.523 50.5114 159.157 50.287L158.833 52.2606ZM166.65 53.7714C167.987 54.071 169.275 54.382 170.515 54.7019L171.015 52.7654C169.754 52.4401 168.445 52.124 167.087 51.8197L166.65 53.7714ZM174.358 55.7648C175.681 56.1562 176.941 56.556 178.138 56.9603L178.778 55.0654C177.557 54.653 176.273 54.2455 174.925 53.8469L174.358 55.7648ZM181.874 58.3089C183.187 58.8155 184.409 59.3223 185.541 59.8219L186.349 57.9922C185.187 57.4797 183.937 56.9608 182.593 56.4428L181.874 58.3089ZM189.108 61.5104C190.434 62.1849 191.587 62.8275 192.576 63.4166L193.6 61.6985C192.573 61.0867 191.381 60.4225 190.014 59.7276L189.108 61.5104ZM195.852 65.5662C196.365 65.942 196.739 66.2397 196.98 66.4402C197.101 66.5404 197.189 66.6164 197.244 66.6656C197.272 66.6902 197.292 66.7081 197.304 66.7191C197.31 66.7246 197.315 66.7283 197.317 66.7303C197.318 66.7313 197.318 66.7318 197.318 66.7319C197.318 66.7319 197.318 66.7319 197.318 66.7317C197.318 66.7316 197.318 66.7315 197.318 66.7313C197.318 66.7313 197.318 66.7312 197.318 66.7311C197.317 66.731 197.317 66.731 197.317 66.7309C197.317 66.7309 197.317 66.7308 198 66.0002C198.683 65.2696 198.683 65.2695 198.683 65.2694C198.683 65.2694 198.683 65.2693 198.682 65.2693C198.682 65.2691 198.682 65.269 198.682 65.2689C198.682 65.2686 198.681 65.2683 198.681 65.268C198.68 65.2674 198.68 65.2666 198.679 65.2658C198.677 65.264 198.674 65.2619 198.672 65.2593C198.666 65.254 198.658 65.247 198.649 65.2383C198.629 65.2208 198.602 65.1964 198.567 65.1653C198.496 65.1031 198.394 65.0143 198.257 64.9013C197.985 64.6753 197.58 64.3526 197.033 63.9524L195.852 65.5662Z" fill="#FF5500"/>
</g>
<defs>
<clipPath id="clip0_6255_1575">
<rect width="361" height="100" fill="white"/>
</clipPath>
</defs>
</svg>
