<svg width="1240" height="181" viewBox="0 0 1240 181" fill="none" xmlns="http://www.w3.org/2000/svg">
<g clip-path="url(#clip0_6255_1710)">
<rect width="1240" height="181" fill="white"/>
<rect opacity="0.2" x="58.5" y="87" width="31" height="31" rx="10" fill="#00B2FF"/>
<path d="M77.792 110L77.7334 108.022C76.9326 108.813 76.1172 109.385 75.2871 109.736C74.4668 110.088 73.6025 110.264 72.6943 110.264C71.8545 110.264 71.1367 110.156 70.541 109.941C69.9453 109.727 69.4521 109.434 69.0615 109.062C68.6807 108.682 68.3975 108.237 68.2119 107.729C68.0361 107.222 67.9482 106.67 67.9482 106.074C67.9482 104.6 68.4951 103.447 69.5889 102.617C70.6924 101.777 72.3184 101.357 74.4668 101.357H77.5137V100.068C77.5137 99.1992 77.2354 98.5059 76.6787 97.9883C76.1221 97.4609 75.2725 97.1973 74.1299 97.1973C73.2998 97.1973 72.4795 97.29 71.6689 97.4756C70.8682 97.6611 70.0381 97.9248 69.1787 98.2666V95.9668C69.501 95.8496 69.8574 95.7373 70.248 95.6299C70.6484 95.5127 71.0684 95.4102 71.5078 95.3223C71.9473 95.2344 72.4062 95.166 72.8848 95.1172C73.3633 95.0586 73.8467 95.0293 74.335 95.0293C75.2236 95.0293 76.0244 95.127 76.7373 95.3223C77.4502 95.5176 78.0508 95.8154 78.5391 96.2158C79.0371 96.6162 79.418 97.1191 79.6816 97.7246C79.9453 98.3301 80.0771 99.043 80.0771 99.8633V110H77.792ZM77.5137 103.306H74.2764C73.6416 103.306 73.0947 103.369 72.6357 103.496C72.1768 103.623 71.8008 103.804 71.5078 104.038C71.2148 104.272 70.9951 104.556 70.8486 104.888C70.7119 105.21 70.6436 105.576 70.6436 105.986C70.6436 106.27 70.6875 106.543 70.7754 106.807C70.8633 107.061 71.0049 107.29 71.2002 107.495C71.3955 107.69 71.6494 107.847 71.9619 107.964C72.2744 108.081 72.6553 108.14 73.1045 108.14C73.6904 108.14 74.3594 107.964 75.1113 107.612C75.873 107.251 76.6738 106.685 77.5137 105.913V103.306ZM127.274 110L127.216 108.022C126.415 108.813 125.6 109.385 124.77 109.736C123.949 110.088 123.085 110.264 122.177 110.264C121.337 110.264 120.619 110.156 120.023 109.941C119.428 109.727 118.935 109.434 118.544 109.062C118.163 108.682 117.88 108.237 117.694 107.729C117.519 107.222 117.431 106.67 117.431 106.074C117.431 104.6 117.978 103.447 119.071 102.617C120.175 101.777 121.801 101.357 123.949 101.357H126.996V100.068C126.996 99.1992 126.718 98.5059 126.161 97.9883C125.604 97.4609 124.755 97.1973 123.612 97.1973C122.782 97.1973 121.962 97.29 121.151 97.4756C120.351 97.6611 119.521 97.9248 118.661 98.2666V95.9668C118.983 95.8496 119.34 95.7373 119.73 95.6299C120.131 95.5127 120.551 95.4102 120.99 95.3223C121.43 95.2344 121.889 95.166 122.367 95.1172C122.846 95.0586 123.329 95.0293 123.817 95.0293C124.706 95.0293 125.507 95.127 126.22 95.3223C126.933 95.5176 127.533 95.8154 128.021 96.2158C128.52 96.6162 128.9 97.1191 129.164 97.7246C129.428 98.3301 129.56 99.043 129.56 99.8633V110H127.274ZM126.996 103.306H123.759C123.124 103.306 122.577 103.369 122.118 103.496C121.659 103.623 121.283 103.804 120.99 104.038C120.697 104.272 120.478 104.556 120.331 104.888C120.194 105.21 120.126 105.576 120.126 105.986C120.126 106.27 120.17 106.543 120.258 106.807C120.346 107.061 120.487 107.29 120.683 107.495C120.878 107.69 121.132 107.847 121.444 107.964C121.757 108.081 122.138 108.14 122.587 108.14C123.173 108.14 123.842 107.964 124.594 107.612C125.355 107.251 126.156 106.685 126.996 105.913V103.306ZM179.877 102.383C179.877 103.604 179.706 104.697 179.364 105.664C179.032 106.621 178.554 107.437 177.929 108.11C177.313 108.774 176.562 109.287 175.673 109.648C174.784 110 173.783 110.176 172.67 110.176C171.801 110.176 170.912 110.093 170.004 109.927C169.096 109.761 168.197 109.497 167.309 109.136V89.3018H169.857V95L169.74 97.7246C170.473 96.7383 171.254 96.0449 172.084 95.6445C172.924 95.2344 173.822 95.0293 174.779 95.0293C175.619 95.0293 176.356 95.2051 176.991 95.5566C177.626 95.9082 178.158 96.4062 178.588 97.0508C179.018 97.6855 179.34 98.457 179.555 99.3652C179.77 100.264 179.877 101.27 179.877 102.383ZM177.27 102.5C177.27 101.729 177.211 101.021 177.094 100.376C176.986 99.7314 176.811 99.1797 176.566 98.7207C176.322 98.2617 176.01 97.9053 175.629 97.6514C175.248 97.3877 174.794 97.2559 174.267 97.2559C173.944 97.2559 173.617 97.3096 173.285 97.417C172.953 97.5146 172.606 97.6855 172.245 97.9297C171.894 98.1641 171.518 98.4814 171.117 98.8818C170.727 99.2725 170.307 99.7607 169.857 100.347V107.48C170.355 107.676 170.863 107.832 171.381 107.949C171.898 108.057 172.392 108.11 172.86 108.11C173.446 108.11 174.003 108.018 174.53 107.832C175.067 107.646 175.536 107.339 175.937 106.909C176.347 106.47 176.669 105.894 176.903 105.181C177.147 104.458 177.27 103.564 177.27 102.5ZM228.217 109.458C227.553 109.712 226.869 109.897 226.166 110.015C225.473 110.142 224.755 110.205 224.013 110.205C221.688 110.205 219.896 109.575 218.637 108.315C217.387 107.056 216.762 105.215 216.762 102.793C216.762 101.631 216.942 100.576 217.304 99.6289C217.665 98.6816 218.173 97.8711 218.827 97.1973C219.481 96.5234 220.263 96.0059 221.171 95.6445C222.079 95.2734 223.08 95.0879 224.174 95.0879C224.936 95.0879 225.648 95.1416 226.312 95.249C226.977 95.3564 227.611 95.5322 228.217 95.7764V98.208C227.582 97.876 226.933 97.6367 226.269 97.4902C225.614 97.334 224.936 97.2559 224.232 97.2559C223.578 97.2559 222.958 97.3828 222.372 97.6367C221.796 97.8809 221.288 98.2373 220.849 98.7061C220.409 99.1748 220.062 99.7461 219.809 100.42C219.555 101.094 219.428 101.855 219.428 102.705C219.428 104.482 219.857 105.815 220.717 106.704C221.586 107.583 222.787 108.022 224.32 108.022C225.014 108.022 225.683 107.944 226.327 107.788C226.981 107.632 227.611 107.397 228.217 107.085V109.458ZM265.526 102.954C265.526 101.704 265.697 100.596 266.039 99.6289C266.381 98.6523 266.864 97.832 267.489 97.168C268.124 96.4941 268.881 95.9863 269.76 95.6445C270.648 95.293 271.635 95.1172 272.719 95.1172C273.188 95.1172 273.646 95.1465 274.096 95.2051C274.555 95.2637 275.004 95.3564 275.443 95.4834V89.3018H278.007V110H275.722L275.634 107.217C274.921 108.252 274.149 109.019 273.319 109.517C272.489 110.015 271.591 110.264 270.624 110.264C269.784 110.264 269.042 110.088 268.397 109.736C267.763 109.385 267.23 108.892 266.801 108.257C266.381 107.612 266.063 106.841 265.849 105.942C265.634 105.044 265.526 104.048 265.526 102.954ZM268.134 102.793C268.134 104.57 268.393 105.898 268.91 106.777C269.438 107.646 270.18 108.081 271.137 108.081C271.781 108.081 272.46 107.793 273.173 107.217C273.896 106.641 274.652 105.786 275.443 104.653V97.8271C275.023 97.6318 274.56 97.4854 274.052 97.3877C273.544 97.2803 273.041 97.2266 272.543 97.2266C271.156 97.2266 270.072 97.6758 269.291 98.5742C268.52 99.4727 268.134 100.879 268.134 102.793ZM327.182 109.458C326.518 109.712 325.834 109.897 325.131 110.015C324.438 110.142 323.72 110.205 322.978 110.205C320.653 110.205 318.861 109.575 317.602 108.315C316.352 107.056 315.727 105.215 315.727 102.793C315.727 101.631 315.907 100.576 316.269 99.6289C316.63 98.6816 317.138 97.8711 317.792 97.1973C318.446 96.5234 319.228 96.0059 320.136 95.6445C321.044 95.2734 322.045 95.0879 323.139 95.0879C323.9 95.0879 324.613 95.1416 325.277 95.249C325.941 95.3564 326.576 95.5322 327.182 95.7764V98.208C326.547 97.876 325.897 97.6367 325.233 97.4902C324.579 97.334 323.9 97.2559 323.197 97.2559C322.543 97.2559 321.923 97.3828 321.337 97.6367C320.761 97.8809 320.253 98.2373 319.813 98.7061C319.374 99.1748 319.027 99.7461 318.773 100.42C318.52 101.094 318.393 101.855 318.393 102.705C318.393 104.482 318.822 105.815 319.682 106.704C320.551 107.583 321.752 108.022 323.285 108.022C323.979 108.022 324.647 107.944 325.292 107.788C325.946 107.632 326.576 107.397 327.182 107.085V109.458ZM376.664 109.458C376 109.712 375.316 109.897 374.613 110.015C373.92 110.142 373.202 110.205 372.46 110.205C370.136 110.205 368.344 109.575 367.084 108.315C365.834 107.056 365.209 105.215 365.209 102.793C365.209 101.631 365.39 100.576 365.751 99.6289C366.112 98.6816 366.62 97.8711 367.274 97.1973C367.929 96.5234 368.71 96.0059 369.618 95.6445C370.526 95.2734 371.527 95.0879 372.621 95.0879C373.383 95.0879 374.096 95.1416 374.76 95.249C375.424 95.3564 376.059 95.5322 376.664 95.7764V98.208C376.029 97.876 375.38 97.6367 374.716 97.4902C374.062 97.334 373.383 97.2559 372.68 97.2559C372.025 97.2559 371.405 97.3828 370.819 97.6367C370.243 97.8809 369.735 98.2373 369.296 98.7061C368.856 99.1748 368.51 99.7461 368.256 100.42C368.002 101.094 367.875 101.855 367.875 102.705C367.875 104.482 368.305 105.815 369.164 106.704C370.033 107.583 371.234 108.022 372.768 108.022C373.461 108.022 374.13 107.944 374.774 107.788C375.429 107.632 376.059 107.397 376.664 107.085V109.458ZM424.169 110L424.11 108.022C423.31 108.813 422.494 109.385 421.664 109.736C420.844 110.088 419.979 110.264 419.071 110.264C418.231 110.264 417.514 110.156 416.918 109.941C416.322 109.727 415.829 109.434 415.438 109.062C415.058 108.682 414.774 108.237 414.589 107.729C414.413 107.222 414.325 106.67 414.325 106.074C414.325 104.6 414.872 103.447 415.966 102.617C417.069 101.777 418.695 101.357 420.844 101.357H423.891V100.068C423.891 99.1992 423.612 98.5059 423.056 97.9883C422.499 97.4609 421.649 97.1973 420.507 97.1973C419.677 97.1973 418.856 97.29 418.046 97.4756C417.245 97.6611 416.415 97.9248 415.556 98.2666V95.9668C415.878 95.8496 416.234 95.7373 416.625 95.6299C417.025 95.5127 417.445 95.4102 417.885 95.3223C418.324 95.2344 418.783 95.166 419.262 95.1172C419.74 95.0586 420.224 95.0293 420.712 95.0293C421.601 95.0293 422.401 95.127 423.114 95.3223C423.827 95.5176 424.428 95.8154 424.916 96.2158C425.414 96.6162 425.795 97.1191 426.059 97.7246C426.322 98.3301 426.454 99.043 426.454 99.8633V110H424.169ZM423.891 103.306H420.653C420.019 103.306 419.472 103.369 419.013 103.496C418.554 103.623 418.178 103.804 417.885 104.038C417.592 104.272 417.372 104.556 417.226 104.888C417.089 105.21 417.021 105.576 417.021 105.986C417.021 106.27 417.064 106.543 417.152 106.807C417.24 107.061 417.382 107.29 417.577 107.495C417.772 107.69 418.026 107.847 418.339 107.964C418.651 108.081 419.032 108.14 419.481 108.14C420.067 108.14 420.736 107.964 421.488 107.612C422.25 107.251 423.051 106.685 423.891 105.913V103.306Z" fill="black"/>
<path d="M68.9995 86.0943C69.5518 86.0943 69.9995 85.6466 69.9995 85.0943L69.9996 76.0943C69.9996 75.542 69.5519 75.0943 68.9996 75.0943C68.4473 75.0943 67.9996 75.542 67.9996 76.0943L67.9995 84.0943L59.9995 84.0942C59.4472 84.0942 58.9995 84.5419 58.9995 85.0942C58.9995 85.6465 59.4472 86.0942 59.9995 86.0942L68.9995 86.0943ZM41.2928 58.8013L68.2924 85.8014L69.7066 84.3872L42.707 57.3871L41.2928 58.8013Z" fill="#666666"/>
<path d="M78 85C78 85.5523 78.4477 86 79 86L88 86C88.5523 86 89 85.5523 89 85C89 84.4477 88.5523 84 88 84L80 84L80 76C80 75.4477 79.5523 75 79 75C78.4477 75 78 75.4477 78 76L78 85ZM105.293 57.2929L78.2929 84.2929L79.7071 85.7071L106.707 58.7071L105.293 57.2929Z" fill="#666666"/>
<path d="M18.9102 38.5977H16.0098V37.2012H20.6289V49.584H23.5488V51H15.6875V49.584H18.9102V38.5977ZM34.8477 45.5801C34.8477 45.821 34.8444 46.0228 34.8379 46.1855C34.8314 46.3483 34.8216 46.5013 34.8086 46.6445H27.9238C27.9238 47.6471 28.2038 48.4186 28.7637 48.959C29.3236 49.4928 30.1309 49.7598 31.1855 49.7598C31.472 49.7598 31.7585 49.75 32.0449 49.7305C32.3314 49.7044 32.6081 49.6719 32.875 49.6328C33.1419 49.5938 33.3958 49.5514 33.6367 49.5059C33.8841 49.4538 34.112 49.3984 34.3203 49.3398V50.7363C33.8581 50.8665 33.334 50.9707 32.748 51.0488C32.1686 51.1335 31.5664 51.1758 30.9414 51.1758C30.1016 51.1758 29.3789 51.0618 28.7734 50.834C28.168 50.6061 27.6699 50.2773 27.2793 49.8477C26.8952 49.4115 26.6087 48.8809 26.4199 48.2559C26.2376 47.6243 26.1465 46.9115 26.1465 46.1172C26.1465 45.4271 26.2441 44.776 26.4395 44.1641C26.6413 43.5456 26.931 43.0052 27.3086 42.543C27.6927 42.0742 28.1615 41.7031 28.7148 41.4297C29.2682 41.1562 29.8965 41.0195 30.5996 41.0195C31.2832 41.0195 31.8887 41.127 32.416 41.3418C32.9434 41.5566 33.3861 41.8626 33.7441 42.2598C34.1087 42.6504 34.3822 43.1289 34.5645 43.6953C34.7533 44.2552 34.8477 44.8835 34.8477 45.5801ZM33.0801 45.3359C33.0996 44.8997 33.0573 44.5026 32.9531 44.1445C32.849 43.7799 32.6862 43.4674 32.4648 43.207C32.25 42.9466 31.9798 42.7448 31.6543 42.6016C31.3288 42.4518 30.9512 42.377 30.5215 42.377C30.1504 42.377 29.8118 42.4486 29.5059 42.5918C29.1999 42.735 28.9362 42.9368 28.7148 43.1973C28.4935 43.4577 28.3145 43.7702 28.1777 44.1348C28.041 44.4993 27.9564 44.8997 27.9238 45.3359H33.0801ZM46.2637 38.7832C45.3717 38.5944 44.6035 38.5 43.959 38.5C42.429 38.5 41.6641 39.3008 41.6641 40.9023V42.6211H45.9609V44.0371H41.6641V51H39.9355V44.0371H36.7812V42.6211H39.9355V41C39.9355 38.3893 41.2962 37.084 44.0176 37.084C44.6947 37.084 45.4434 37.1621 46.2637 37.3184V38.7832ZM56.459 50.8633C56.0749 50.9609 55.6777 51.0293 55.2676 51.0684C54.8574 51.1139 54.4408 51.1367 54.0176 51.1367C52.7871 51.1367 51.8691 50.86 51.2637 50.3066C50.6582 49.7467 50.3555 48.8906 50.3555 47.7383V42.6211H47.6113V41.1953H50.3555V38.5L52.0547 38.0605V41.1953H56.459V42.6211H52.0547V47.6016C52.0547 48.3047 52.2402 48.832 52.6113 49.1836C52.9889 49.5286 53.5423 49.7012 54.2715 49.7012C54.584 49.7012 54.9258 49.6784 55.2969 49.6328C55.668 49.5807 56.0553 49.5026 56.459 49.3984V50.8633Z" fill="#666666"/>
<path d="M85.9727 41.1953H87.5254L87.5742 43.002C88.1536 42.3053 88.7233 41.8008 89.2832 41.4883C89.8496 41.1758 90.4193 41.0195 90.9922 41.0195C92.0078 41.0195 92.776 41.3483 93.2969 42.0059C93.8242 42.6634 94.0684 43.64 94.0293 44.9355H92.3105C92.3301 44.0762 92.2031 43.4544 91.9297 43.0703C91.6628 42.6797 91.2689 42.4844 90.748 42.4844C90.5202 42.4844 90.2891 42.5267 90.0547 42.6113C89.8268 42.6895 89.5892 42.8197 89.3418 43.002C89.1009 43.1777 88.8438 43.4056 88.5703 43.6855C88.2969 43.9655 88.0039 44.304 87.6914 44.7012V51H85.9727V41.1953ZM99.9082 42.6016H97.0078V41.1953H101.627V49.584H104.547V51H96.6855V49.584H99.9082V42.6016ZM100.504 37.084C100.693 37.084 100.868 37.1198 101.031 37.1914C101.194 37.2565 101.334 37.3509 101.451 37.4746C101.575 37.5983 101.669 37.7415 101.734 37.9043C101.806 38.0605 101.842 38.2331 101.842 38.4219C101.842 38.6042 101.806 38.7767 101.734 38.9395C101.669 39.1022 101.575 39.2454 101.451 39.3691C101.334 39.4928 101.194 39.5905 101.031 39.6621C100.868 39.7272 100.693 39.7598 100.504 39.7598C100.315 39.7598 100.139 39.7272 99.9766 39.6621C99.8138 39.5905 99.6706 39.4928 99.5469 39.3691C99.4297 39.2454 99.3353 39.1022 99.2637 38.9395C99.1986 38.7767 99.166 38.6042 99.166 38.4219C99.166 38.2331 99.1986 38.0605 99.2637 37.9043C99.3353 37.7415 99.4297 37.5983 99.5469 37.4746C99.6706 37.3509 99.8138 37.2565 99.9766 37.1914C100.139 37.1198 100.315 37.084 100.504 37.084ZM114.625 42.582C114.807 42.8099 114.947 43.0768 115.045 43.3828C115.149 43.6823 115.201 44.0078 115.201 44.3594C115.201 44.8672 115.107 45.3327 114.918 45.7559C114.736 46.1725 114.475 46.5306 114.137 46.8301C113.798 47.1296 113.391 47.3639 112.916 47.5332C112.447 47.696 111.93 47.7773 111.363 47.7773C110.953 47.7773 110.569 47.735 110.211 47.6504C109.853 47.5592 109.57 47.4486 109.361 47.3184C109.238 47.5007 109.133 47.6732 109.049 47.8359C108.964 47.9987 108.922 48.181 108.922 48.3828C108.922 48.6302 109.039 48.8353 109.273 48.998C109.514 49.1608 109.83 49.2487 110.221 49.2617L112.799 49.3594C113.287 49.3724 113.736 49.4342 114.146 49.5449C114.563 49.6556 114.918 49.8151 115.211 50.0234C115.51 50.2318 115.742 50.4889 115.904 50.7949C116.074 51.1009 116.158 51.4557 116.158 51.8594C116.158 52.2956 116.064 52.709 115.875 53.0996C115.686 53.4902 115.393 53.832 114.996 54.125C114.605 54.4245 114.107 54.6621 113.502 54.8379C112.896 55.0137 112.177 55.1016 111.344 55.1016C110.549 55.1016 109.872 55.0365 109.312 54.9062C108.759 54.7826 108.303 54.6068 107.945 54.3789C107.587 54.1576 107.327 53.8906 107.164 53.5781C107.001 53.2721 106.92 52.9336 106.92 52.5625C106.92 52.0872 107.031 51.6706 107.252 51.3125C107.473 50.9544 107.815 50.6094 108.277 50.2773C108.108 50.1992 107.962 50.1016 107.838 49.9844C107.714 49.8672 107.613 49.7402 107.535 49.6035C107.457 49.4603 107.398 49.3105 107.359 49.1543C107.32 48.998 107.301 48.8451 107.301 48.6953C107.301 48.2721 107.398 47.8848 107.594 47.5332C107.796 47.1816 108.033 46.8496 108.307 46.5371C108.183 46.3874 108.072 46.2409 107.975 46.0977C107.883 45.9544 107.802 45.8014 107.73 45.6387C107.665 45.4694 107.613 45.2904 107.574 45.1016C107.542 44.9062 107.525 44.6849 107.525 44.4375C107.525 43.9297 107.617 43.4674 107.799 43.0508C107.988 42.6276 108.248 42.2663 108.58 41.9668C108.919 41.6673 109.322 41.4362 109.791 41.2734C110.266 41.1042 110.79 41.0195 111.363 41.0195C111.604 41.0195 111.835 41.0358 112.057 41.0684C112.278 41.1009 112.473 41.1432 112.643 41.1953H116.197V42.582H114.625ZM108.727 52.416C108.727 52.8783 108.967 53.2135 109.449 53.4219C109.931 53.6367 110.602 53.7441 111.461 53.7441C112.001 53.7441 112.454 53.6953 112.818 53.5977C113.189 53.5 113.486 53.3698 113.707 53.207C113.935 53.0508 114.098 52.8685 114.195 52.6602C114.293 52.4583 114.342 52.25 114.342 52.0352C114.342 51.638 114.179 51.3451 113.854 51.1562C113.528 50.9674 113.03 50.8568 112.359 50.8242L109.801 50.7363C109.586 50.8796 109.407 51.0195 109.264 51.1562C109.127 51.293 109.02 51.4297 108.941 51.5664C108.863 51.7096 108.808 51.8496 108.775 51.9863C108.743 52.1296 108.727 52.2728 108.727 52.416ZM109.244 44.3984C109.244 44.7109 109.296 44.9974 109.4 45.2578C109.505 45.5182 109.651 45.7396 109.84 45.9219C110.029 46.1042 110.25 46.2474 110.504 46.3516C110.764 46.4492 111.051 46.498 111.363 46.498C111.702 46.498 112.001 46.4427 112.262 46.332C112.529 46.2148 112.75 46.0586 112.926 45.8633C113.108 45.668 113.245 45.4434 113.336 45.1895C113.434 44.9355 113.482 44.6719 113.482 44.3984C113.482 44.0859 113.43 43.7995 113.326 43.5391C113.222 43.2786 113.076 43.0573 112.887 42.875C112.698 42.6927 112.473 42.5527 112.213 42.4551C111.959 42.3509 111.676 42.2988 111.363 42.2988C111.025 42.2988 110.722 42.3574 110.455 42.4746C110.195 42.5918 109.973 42.748 109.791 42.9434C109.615 43.1322 109.479 43.3535 109.381 43.6074C109.29 43.8613 109.244 44.125 109.244 44.3984ZM126.441 51H124.742V44.7402C124.742 43.985 124.599 43.4219 124.312 43.0508C124.033 42.6732 123.629 42.4844 123.102 42.4844C122.874 42.4844 122.659 42.5169 122.457 42.582C122.262 42.6406 122.057 42.748 121.842 42.9043C121.627 43.054 121.393 43.2591 121.139 43.5195C120.885 43.7799 120.592 44.1055 120.26 44.4961V51H118.561V37.2012H120.26V41.1953L120.201 42.7383C120.468 42.4193 120.729 42.1523 120.982 41.9375C121.243 41.7161 121.5 41.5371 121.754 41.4004C122.014 41.2637 122.278 41.166 122.545 41.1074C122.812 41.0488 123.089 41.0195 123.375 41.0195C124.352 41.0195 125.107 41.319 125.641 41.918C126.174 42.5104 126.441 43.4056 126.441 44.6035V51ZM137.457 50.8633C137.073 50.9609 136.676 51.0293 136.266 51.0684C135.855 51.1139 135.439 51.1367 135.016 51.1367C133.785 51.1367 132.867 50.86 132.262 50.3066C131.656 49.7467 131.354 48.8906 131.354 47.7383V42.6211H128.609V41.1953H131.354V38.5L133.053 38.0605V41.1953H137.457V42.6211H133.053V47.6016C133.053 48.3047 133.238 48.832 133.609 49.1836C133.987 49.5286 134.54 49.7012 135.27 49.7012C135.582 49.7012 135.924 49.6784 136.295 49.6328C136.666 49.5807 137.053 49.5026 137.457 49.3984V50.8633Z" fill="#666666"/>
<rect x="1" y="30" width="69" height="28" rx="6" stroke="#666666" stroke-width="2"/>
<rect x="77" y="30" width="69" height="28" rx="6" stroke="#666666" stroke-width="2"/>
<rect x="466" y="15" width="773" height="165" rx="9" fill="#EDEDED" stroke="#ADADAD" stroke-width="2" stroke-dasharray="8 8"/>
<path d="M500.276 55H498.067V46.8623C498.067 45.8805 497.881 45.1484 497.509 44.666C497.145 44.1751 496.62 43.9297 495.935 43.9297C495.638 43.9297 495.359 43.972 495.097 44.0566C494.843 44.1328 494.576 44.2725 494.297 44.4756C494.018 44.6702 493.713 44.9368 493.383 45.2754C493.053 45.6139 492.672 46.0371 492.24 46.5449V55H490.031V37.0615H492.24V42.2539L492.164 44.2598C492.511 43.8451 492.85 43.498 493.18 43.2188C493.518 42.931 493.853 42.6982 494.183 42.5205C494.521 42.3428 494.864 42.2158 495.211 42.1396C495.558 42.0635 495.918 42.0254 496.29 42.0254C497.56 42.0254 498.541 42.4147 499.235 43.1934C499.929 43.9635 500.276 45.1273 500.276 46.6846V55ZM508.668 44.082H504.897V42.2539H510.902V53.1592H514.698V55H504.479V53.1592H508.668V44.082ZM509.442 36.9092C509.688 36.9092 509.916 36.9557 510.128 37.0488C510.34 37.1335 510.521 37.2562 510.674 37.417C510.835 37.5778 510.957 37.764 511.042 37.9756C511.135 38.1787 511.182 38.403 511.182 38.6484C511.182 38.8854 511.135 39.1097 511.042 39.3213C510.957 39.5329 510.835 39.7191 510.674 39.8799C510.521 40.0407 510.34 40.1676 510.128 40.2607C509.916 40.3454 509.688 40.3877 509.442 40.3877C509.197 40.3877 508.968 40.3454 508.757 40.2607C508.545 40.1676 508.359 40.0407 508.198 39.8799C508.046 39.7191 507.923 39.5329 507.83 39.3213C507.745 39.1097 507.703 38.8854 507.703 38.6484C507.703 38.403 507.745 38.1787 507.83 37.9756C507.923 37.764 508.046 37.5778 508.198 37.417C508.359 37.2562 508.545 37.1335 508.757 37.0488C508.968 36.9557 509.197 36.9092 509.442 36.9092ZM527.8 44.0566C528.037 44.3529 528.219 44.6999 528.346 45.0977C528.481 45.487 528.549 45.9102 528.549 46.3672C528.549 47.0273 528.426 47.6325 528.181 48.1826C527.944 48.7243 527.605 49.1898 527.165 49.5791C526.725 49.9684 526.196 50.2731 525.578 50.4932C524.969 50.7048 524.296 50.8105 523.56 50.8105C523.026 50.8105 522.527 50.7555 522.062 50.6455C521.596 50.527 521.228 50.3831 520.957 50.2139C520.796 50.4508 520.661 50.6751 520.551 50.8867C520.441 51.0983 520.386 51.3353 520.386 51.5977C520.386 51.9193 520.538 52.1859 520.843 52.3975C521.156 52.609 521.566 52.7233 522.074 52.7402L525.426 52.8672C526.061 52.8841 526.645 52.9645 527.178 53.1084C527.719 53.2523 528.181 53.4596 528.562 53.7305C528.951 54.0013 529.251 54.3356 529.463 54.7334C529.683 55.1312 529.793 55.5924 529.793 56.1172C529.793 56.6842 529.67 57.2217 529.425 57.7295C529.179 58.2373 528.799 58.6816 528.282 59.0625C527.774 59.4518 527.127 59.7607 526.34 59.9893C525.553 60.2178 524.618 60.332 523.534 60.332C522.502 60.332 521.621 60.2474 520.894 60.0781C520.174 59.9173 519.582 59.6888 519.116 59.3926C518.651 59.1048 518.312 58.7578 518.101 58.3516C517.889 57.9538 517.783 57.5137 517.783 57.0312C517.783 56.4134 517.927 55.8717 518.215 55.4062C518.503 54.9408 518.947 54.4922 519.548 54.0605C519.328 53.959 519.137 53.832 518.977 53.6797C518.816 53.5273 518.685 53.3623 518.583 53.1846C518.481 52.9984 518.405 52.8037 518.354 52.6006C518.304 52.3975 518.278 52.1986 518.278 52.0039C518.278 51.4538 518.405 50.9502 518.659 50.4932C518.922 50.0361 519.23 49.6045 519.586 49.1982C519.425 49.0036 519.281 48.8132 519.154 48.627C519.036 48.4408 518.93 48.2419 518.837 48.0303C518.752 47.8102 518.685 47.5775 518.634 47.332C518.591 47.0781 518.57 46.7904 518.57 46.4688C518.57 45.8086 518.689 45.2077 518.926 44.666C519.171 44.1159 519.51 43.6462 519.941 43.2568C520.382 42.8675 520.906 42.5671 521.516 42.3555C522.133 42.1354 522.815 42.0254 523.56 42.0254C523.873 42.0254 524.173 42.0465 524.461 42.0889C524.749 42.1312 525.003 42.1862 525.223 42.2539H529.844V44.0566H527.8ZM520.132 56.8408C520.132 57.4417 520.445 57.8776 521.071 58.1484C521.698 58.4277 522.569 58.5674 523.687 58.5674C524.389 58.5674 524.977 58.5039 525.451 58.377C525.934 58.25 526.319 58.0807 526.606 57.8691C526.903 57.666 527.114 57.429 527.241 57.1582C527.368 56.8958 527.432 56.625 527.432 56.3457C527.432 55.8294 527.22 55.4486 526.797 55.2031C526.374 54.9577 525.726 54.8138 524.854 54.7715L521.528 54.6572C521.249 54.8434 521.016 55.0254 520.83 55.2031C520.652 55.3809 520.513 55.5586 520.411 55.7363C520.31 55.9225 520.238 56.1045 520.195 56.2822C520.153 56.4684 520.132 56.6546 520.132 56.8408ZM520.805 46.418C520.805 46.8242 520.872 47.1966 521.008 47.5352C521.143 47.8737 521.334 48.1615 521.579 48.3984C521.825 48.6354 522.112 48.8216 522.442 48.957C522.781 49.084 523.153 49.1475 523.56 49.1475C524 49.1475 524.389 49.0755 524.728 48.9316C525.075 48.7793 525.362 48.5762 525.591 48.3223C525.828 48.0684 526.006 47.7764 526.124 47.4463C526.251 47.1162 526.314 46.7734 526.314 46.418C526.314 46.0117 526.247 45.6393 526.111 45.3008C525.976 44.9622 525.785 44.6745 525.54 44.4375C525.295 44.2005 525.003 44.0186 524.664 43.8916C524.334 43.7562 523.966 43.6885 523.56 43.6885C523.119 43.6885 522.726 43.7646 522.379 43.917C522.04 44.0693 521.753 44.2725 521.516 44.5264C521.287 44.7718 521.109 45.0596 520.982 45.3896C520.864 45.7197 520.805 46.0625 520.805 46.418ZM543.161 55H540.952V46.8623C540.952 45.8805 540.766 45.1484 540.394 44.666C540.03 44.1751 539.505 43.9297 538.819 43.9297C538.523 43.9297 538.244 43.972 537.981 44.0566C537.728 44.1328 537.461 44.2725 537.182 44.4756C536.902 44.6702 536.598 44.9368 536.268 45.2754C535.938 45.6139 535.557 46.0371 535.125 46.5449V55H532.916V37.0615H535.125V42.2539L535.049 44.2598C535.396 43.8451 535.734 43.498 536.064 43.2188C536.403 42.931 536.737 42.6982 537.067 42.5205C537.406 42.3428 537.749 42.2158 538.096 42.1396C538.443 42.0635 538.802 42.0254 539.175 42.0254C540.444 42.0254 541.426 42.4147 542.12 43.1934C542.814 43.9635 543.161 45.1273 543.161 46.6846V55ZM557.977 47.9541C557.977 48.2673 557.972 48.5296 557.964 48.7412C557.955 48.9528 557.943 49.1517 557.926 49.3379H548.976C548.976 50.6413 549.34 51.6442 550.067 52.3467C550.795 53.0407 551.845 53.3877 553.216 53.3877C553.588 53.3877 553.961 53.375 554.333 53.3496C554.705 53.3158 555.065 53.2734 555.412 53.2227C555.759 53.1719 556.089 53.1169 556.402 53.0576C556.724 52.9899 557.02 52.918 557.291 52.8418V54.6572C556.69 54.8265 556.009 54.9619 555.247 55.0635C554.494 55.1735 553.711 55.2285 552.898 55.2285C551.807 55.2285 550.867 55.0804 550.08 54.7842C549.293 54.488 548.646 54.0605 548.138 53.502C547.638 52.9349 547.266 52.2451 547.021 51.4326C546.784 50.6117 546.665 49.6849 546.665 48.6523C546.665 47.7552 546.792 46.9089 547.046 46.1133C547.308 45.3092 547.685 44.6068 548.176 44.0059C548.675 43.3965 549.285 42.9141 550.004 42.5586C550.723 42.2031 551.54 42.0254 552.454 42.0254C553.343 42.0254 554.13 42.165 554.815 42.4443C555.501 42.7236 556.076 43.1214 556.542 43.6377C557.016 44.1455 557.371 44.7676 557.608 45.5039C557.854 46.2318 557.977 47.0485 557.977 47.9541ZM555.679 47.6367C555.704 47.0697 555.649 46.5534 555.514 46.0879C555.378 45.6139 555.167 45.2077 554.879 44.8691C554.6 44.5306 554.248 44.2682 553.825 44.082C553.402 43.8874 552.911 43.79 552.353 43.79C551.87 43.79 551.43 43.8831 551.032 44.0693C550.634 44.2555 550.292 44.5179 550.004 44.8564C549.716 45.195 549.483 45.6012 549.306 46.0752C549.128 46.5492 549.018 47.0697 548.976 47.6367H555.679ZM571.599 51.5215C571.599 51.9701 571.522 52.3721 571.37 52.7275C571.218 53.083 571.01 53.4004 570.748 53.6797C570.486 53.9505 570.181 54.1833 569.834 54.3779C569.487 54.5726 569.115 54.7334 568.717 54.8604C568.327 54.9873 567.925 55.0804 567.511 55.1396C567.096 55.1989 566.69 55.2285 566.292 55.2285C565.429 55.2285 564.633 55.1904 563.905 55.1143C563.186 55.0381 562.479 54.9154 561.785 54.7461V52.7148C562.53 52.9264 563.271 53.0872 564.007 53.1973C564.743 53.3073 565.475 53.3623 566.203 53.3623C567.261 53.3623 568.044 53.2184 568.552 52.9307C569.06 52.6429 569.313 52.2324 569.313 51.6992C569.313 51.4707 569.271 51.2676 569.187 51.0898C569.11 50.9036 568.966 50.7301 568.755 50.5693C568.543 50.4001 568.213 50.2266 567.765 50.0488C567.325 49.8711 566.719 49.668 565.949 49.4395C565.374 49.2702 564.84 49.0798 564.35 48.8682C563.867 48.6481 563.448 48.39 563.093 48.0938C562.737 47.7975 562.458 47.4505 562.255 47.0527C562.052 46.6549 561.95 46.1852 561.95 45.6436C561.95 45.2881 562.031 44.8988 562.191 44.4756C562.361 44.0524 562.644 43.6589 563.042 43.2949C563.44 42.931 563.977 42.6305 564.654 42.3936C565.331 42.1481 566.178 42.0254 567.193 42.0254C567.693 42.0254 568.247 42.055 568.856 42.1143C569.466 42.165 570.101 42.2581 570.761 42.3936V44.3613C570.067 44.1921 569.407 44.0693 568.78 43.9932C568.162 43.9085 567.625 43.8662 567.168 43.8662C566.618 43.8662 566.152 43.9085 565.771 43.9932C565.399 44.0778 565.094 44.1963 564.857 44.3486C564.629 44.4925 564.464 44.666 564.362 44.8691C564.261 45.0638 564.21 45.2754 564.21 45.5039C564.21 45.7324 564.252 45.9398 564.337 46.126C564.43 46.3122 564.595 46.4941 564.832 46.6719C565.077 46.8411 565.416 47.0146 565.848 47.1924C566.279 47.3617 566.842 47.5479 567.536 47.751C568.289 47.971 568.924 48.2038 569.44 48.4492C569.957 48.6862 570.376 48.9528 570.697 49.249C571.019 49.5452 571.247 49.8796 571.383 50.252C571.527 50.6243 571.599 51.0475 571.599 51.5215ZM586.071 54.8223C585.572 54.9492 585.056 55.0381 584.522 55.0889C583.989 55.1481 583.448 55.1777 582.897 55.1777C581.298 55.1777 580.104 54.818 579.317 54.0986C578.53 53.3708 578.137 52.2578 578.137 50.7598V44.1074H574.569V42.2539H578.137V38.75L580.346 38.1787V42.2539H586.071V44.1074H580.346V50.582C580.346 51.4961 580.587 52.1816 581.069 52.6387C581.56 53.0872 582.28 53.3115 583.228 53.3115C583.634 53.3115 584.078 53.2819 584.561 53.2227C585.043 53.1549 585.547 53.0534 586.071 52.918V54.8223ZM602.359 60.2051H588.064V58.377H602.359V60.2051ZM615.702 39.1182C614.543 38.8727 613.544 38.75 612.706 38.75C610.717 38.75 609.723 39.791 609.723 41.873V44.1074H615.309V45.9482H609.723V55H607.476V45.9482H603.375V44.1074H607.476V42C607.476 38.6061 609.244 36.9092 612.782 36.9092C613.662 36.9092 614.636 37.0107 615.702 37.2139V39.1182ZM619.206 42.2539H621.225L621.288 44.6025C622.041 43.6969 622.782 43.041 623.51 42.6348C624.246 42.2285 624.987 42.0254 625.731 42.0254C627.052 42.0254 628.05 42.4528 628.728 43.3076C629.413 44.1624 629.73 45.432 629.68 47.1162H627.445C627.471 45.999 627.306 45.1908 626.95 44.6914C626.603 44.1836 626.091 43.9297 625.414 43.9297C625.118 43.9297 624.817 43.9847 624.513 44.0947C624.216 44.1963 623.908 44.3656 623.586 44.6025C623.273 44.8311 622.938 45.1273 622.583 45.4912C622.228 45.8551 621.847 46.2952 621.44 46.8115V55H619.206V42.2539ZM643.746 47.9541C643.746 48.2673 643.742 48.5296 643.733 48.7412C643.725 48.9528 643.712 49.1517 643.695 49.3379H634.745C634.745 50.6413 635.109 51.6442 635.837 52.3467C636.565 53.0407 637.614 53.3877 638.985 53.3877C639.358 53.3877 639.73 53.375 640.103 53.3496C640.475 53.3158 640.835 53.2734 641.182 53.2227C641.529 53.1719 641.859 53.1169 642.172 53.0576C642.493 52.9899 642.79 52.918 643.061 52.8418V54.6572C642.46 54.8265 641.778 54.9619 641.017 55.0635C640.263 55.1735 639.48 55.2285 638.668 55.2285C637.576 55.2285 636.637 55.0804 635.85 54.7842C635.062 54.488 634.415 54.0605 633.907 53.502C633.408 52.9349 633.035 52.2451 632.79 51.4326C632.553 50.6117 632.435 49.6849 632.435 48.6523C632.435 47.7552 632.562 46.9089 632.815 46.1133C633.078 45.3092 633.454 44.6068 633.945 44.0059C634.445 43.3965 635.054 42.9141 635.773 42.5586C636.493 42.2031 637.31 42.0254 638.224 42.0254C639.112 42.0254 639.899 42.165 640.585 42.4443C641.271 42.7236 641.846 43.1214 642.312 43.6377C642.785 44.1455 643.141 44.7676 643.378 45.5039C643.623 46.2318 643.746 47.0485 643.746 47.9541ZM641.448 47.6367C641.474 47.0697 641.419 46.5534 641.283 46.0879C641.148 45.6139 640.936 45.2077 640.648 44.8691C640.369 44.5306 640.018 44.2682 639.595 44.082C639.172 43.8874 638.681 43.79 638.122 43.79C637.64 43.79 637.2 43.8831 636.802 44.0693C636.404 44.2555 636.061 44.5179 635.773 44.8564C635.486 45.195 635.253 45.6012 635.075 46.0752C634.897 46.5492 634.787 47.0697 634.745 47.6367H641.448ZM646.628 48.8936C646.628 47.9795 646.746 47.112 646.983 46.291C647.229 45.4701 647.601 44.7507 648.101 44.1328C648.608 43.5065 649.256 43.0114 650.043 42.6475C650.83 42.2835 651.77 42.1016 652.861 42.1016C653.293 42.1016 653.72 42.1354 654.144 42.2031C654.567 42.2708 655.015 42.3766 655.489 42.5205L657.444 42.0254V60.2051H655.223V55.3936L655.337 52.6641C654.135 54.3737 652.705 55.2285 651.046 55.2285C650.301 55.2285 649.654 55.0762 649.104 54.7715C648.553 54.4668 648.092 54.0352 647.72 53.4766C647.356 52.918 647.081 52.2493 646.895 51.4707C646.717 50.6921 646.628 49.833 646.628 48.8936ZM648.888 48.7539C648.888 49.4648 648.938 50.1038 649.04 50.6709C649.15 51.238 649.311 51.7204 649.522 52.1182C649.743 52.5075 650.013 52.8079 650.335 53.0195C650.665 53.2311 651.05 53.3369 651.49 53.3369C652.049 53.3369 652.637 53.0872 653.255 52.5879C653.881 52.0885 654.537 51.348 655.223 50.3662V44.4502C654.884 44.2894 654.499 44.1582 654.067 44.0566C653.644 43.9551 653.191 43.9043 652.709 43.9043C651.465 43.9043 650.517 44.3148 649.865 45.1357C649.214 45.9567 648.888 47.1628 648.888 48.7539ZM686.44 46.7988H675.522V44.9326H686.44V46.7988ZM686.44 51.2168H675.522V49.3506H686.44V51.2168ZM715.081 55H704.658V52.9434H708.924V40.832L704.95 42.9902L704.138 41.1113L709.419 38.3311H711.374V52.9434H715.081V55ZM490.031 76.2539H491.999L492.088 78.3105C492.46 77.8704 492.82 77.5065 493.167 77.2188C493.514 76.9225 493.853 76.6855 494.183 76.5078C494.521 76.3301 494.864 76.2074 495.211 76.1396C495.558 76.0635 495.918 76.0254 496.29 76.0254C497.602 76.0254 498.592 76.4147 499.261 77.1934C499.938 77.9635 500.276 79.1273 500.276 80.6846V89H498.067V80.8623C498.067 79.8636 497.881 79.1273 497.509 78.6533C497.136 78.1709 496.582 77.9297 495.846 77.9297C495.575 77.9297 495.308 77.972 495.046 78.0566C494.792 78.1328 494.525 78.2725 494.246 78.4756C493.967 78.6702 493.662 78.9368 493.332 79.2754C493.01 79.6139 492.646 80.0371 492.24 80.5449V89H490.031V76.2539ZM514.571 89H512.591L512.515 86.9434C512.134 87.3835 511.77 87.7516 511.423 88.0479C511.084 88.3356 510.746 88.5684 510.407 88.7461C510.069 88.9238 509.726 89.0465 509.379 89.1143C509.04 89.1904 508.681 89.2285 508.3 89.2285C506.988 89.2285 505.998 88.8434 505.329 88.0732C504.66 87.3031 504.326 86.1393 504.326 84.582V76.2539H506.535V84.4043C506.535 86.3594 507.271 87.3369 508.744 87.3369C509.015 87.3369 509.277 87.2988 509.531 87.2227C509.794 87.138 510.064 86.9984 510.344 86.8037C510.632 86.6006 510.936 86.3298 511.258 85.9912C511.588 85.6527 511.956 85.2253 512.362 84.709V76.2539H514.571V89ZM527.711 89V79.8467C527.711 79.4489 527.694 79.123 527.66 78.8691C527.635 78.6152 527.588 78.4163 527.521 78.2725C527.461 78.1201 527.381 78.0143 527.279 77.9551C527.186 77.8958 527.068 77.8662 526.924 77.8662C526.755 77.8662 526.598 77.917 526.454 78.0186C526.31 78.1201 526.154 78.2852 525.984 78.5137C525.824 78.7422 525.642 79.0469 525.438 79.4277C525.244 79.8001 525.011 80.2614 524.74 80.8115V89H522.722V80.0879C522.722 79.6224 522.705 79.2458 522.671 78.958C522.646 78.6702 522.599 78.446 522.531 78.2852C522.472 78.1243 522.392 78.0143 522.29 77.9551C522.188 77.8958 522.066 77.8662 521.922 77.8662C521.77 77.8662 521.626 77.9085 521.49 77.9932C521.355 78.0778 521.202 78.2301 521.033 78.4502C520.872 78.6702 520.69 78.9707 520.487 79.3516C520.284 79.7324 520.043 80.2191 519.764 80.8115V89H517.732V76.2539H519.421L519.522 78.6787C519.743 78.1963 519.954 77.7858 520.157 77.4473C520.369 77.1087 520.585 76.8379 520.805 76.6348C521.025 76.4232 521.257 76.2708 521.503 76.1777C521.757 76.0762 522.036 76.0254 522.341 76.0254C523.026 76.0254 523.547 76.2497 523.902 76.6982C524.258 77.1468 524.436 77.8408 524.436 78.7803C524.639 78.3402 524.838 77.9508 525.032 77.6123C525.227 77.2653 525.434 76.9775 525.654 76.749C525.883 76.512 526.132 76.3343 526.403 76.2158C526.674 76.0889 526.987 76.0254 527.343 76.0254C528.942 76.0254 529.742 77.2568 529.742 79.7197V89H527.711ZM545.18 94.2051H530.885V92.377H545.18V94.2051ZM557.113 88.5303C556.538 88.7503 555.945 88.9111 555.336 89.0127C554.735 89.1227 554.113 89.1777 553.47 89.1777C551.455 89.1777 549.902 88.6318 548.811 87.54C547.727 86.4482 547.186 84.8529 547.186 82.7539C547.186 81.7467 547.342 80.8327 547.655 80.0117C547.968 79.1908 548.409 78.4883 548.976 77.9043C549.543 77.3203 550.22 76.8717 551.007 76.5586C551.794 76.237 552.661 76.0762 553.609 76.0762C554.27 76.0762 554.887 76.1227 555.463 76.2158C556.038 76.3089 556.589 76.4613 557.113 76.6729V78.7803C556.563 78.4925 556 78.2852 555.425 78.1582C554.858 78.0228 554.27 77.9551 553.66 77.9551C553.093 77.9551 552.556 78.0651 552.048 78.2852C551.549 78.4967 551.108 78.8057 550.728 79.2119C550.347 79.6182 550.046 80.1133 549.826 80.6973C549.606 81.2812 549.496 81.9414 549.496 82.6777C549.496 84.2181 549.868 85.3734 550.613 86.1436C551.367 86.9053 552.408 87.2861 553.736 87.2861C554.337 87.2861 554.917 87.2184 555.476 87.083C556.043 86.9476 556.589 86.7445 557.113 86.4736V88.5303ZM571.751 89H569.542V80.8623C569.542 79.8805 569.356 79.1484 568.983 78.666C568.619 78.1751 568.095 77.9297 567.409 77.9297C567.113 77.9297 566.834 77.972 566.571 78.0566C566.317 78.1328 566.051 78.2725 565.771 78.4756C565.492 78.6702 565.188 78.9368 564.857 79.2754C564.527 79.6139 564.146 80.0371 563.715 80.5449V89H561.506V71.0615H563.715V76.2539L563.639 78.2598C563.986 77.8451 564.324 77.498 564.654 77.2188C564.993 76.931 565.327 76.6982 565.657 76.5205C565.996 76.3428 566.339 76.2158 566.686 76.1396C567.033 76.0635 567.392 76.0254 567.765 76.0254C569.034 76.0254 570.016 76.4147 570.71 77.1934C571.404 77.9635 571.751 79.1273 571.751 80.6846V89ZM583.989 89L583.938 87.2861C583.244 87.9717 582.538 88.4668 581.818 88.7715C581.107 89.0762 580.358 89.2285 579.571 89.2285C578.843 89.2285 578.221 89.1354 577.705 88.9492C577.189 88.763 576.761 88.5091 576.423 88.1875C576.093 87.8574 575.847 87.4723 575.687 87.0322C575.534 86.5921 575.458 86.1139 575.458 85.5977C575.458 84.3197 575.932 83.321 576.88 82.6016C577.836 81.8737 579.245 81.5098 581.107 81.5098H583.748V80.3926C583.748 79.6393 583.507 79.0384 583.024 78.5898C582.542 78.1328 581.806 77.9043 580.815 77.9043C580.096 77.9043 579.385 77.9847 578.683 78.1455C577.989 78.3063 577.269 78.5348 576.524 78.8311V76.8379C576.804 76.7363 577.113 76.639 577.451 76.5459C577.798 76.4443 578.162 76.3555 578.543 76.2793C578.924 76.2031 579.322 76.1439 579.736 76.1016C580.151 76.0508 580.57 76.0254 580.993 76.0254C581.763 76.0254 582.457 76.11 583.075 76.2793C583.693 76.4486 584.214 76.7067 584.637 77.0537C585.068 77.4007 585.398 77.8366 585.627 78.3613C585.855 78.8861 585.97 79.5039 585.97 80.2148V89H583.989ZM583.748 83.1982H580.942C580.392 83.1982 579.918 83.2533 579.521 83.3633C579.123 83.4733 578.797 83.6299 578.543 83.833C578.289 84.0361 578.099 84.2816 577.972 84.5693C577.853 84.8486 577.794 85.166 577.794 85.5215C577.794 85.7669 577.832 86.0039 577.908 86.2324C577.984 86.4525 578.107 86.6514 578.276 86.8291C578.446 86.9984 578.666 87.1338 578.937 87.2354C579.207 87.3369 579.537 87.3877 579.927 87.3877C580.435 87.3877 581.014 87.2354 581.666 86.9307C582.326 86.6175 583.02 86.1266 583.748 85.458V83.1982ZM590.616 76.2539H592.635L592.698 78.6025C593.451 77.6969 594.192 77.041 594.92 76.6348C595.656 76.2285 596.397 76.0254 597.142 76.0254C598.462 76.0254 599.461 76.4528 600.138 77.3076C600.823 78.1624 601.141 79.432 601.09 81.1162H598.855C598.881 79.999 598.716 79.1908 598.36 78.6914C598.013 78.1836 597.501 77.9297 596.824 77.9297C596.528 77.9297 596.228 77.9847 595.923 78.0947C595.627 78.1963 595.318 78.3656 594.996 78.6025C594.683 78.8311 594.349 79.1273 593.993 79.4912C593.638 79.8551 593.257 80.2952 592.851 80.8115V89H590.616V76.2539ZM614.483 85.5215C614.483 85.9701 614.407 86.3721 614.255 86.7275C614.103 87.083 613.895 87.4004 613.633 87.6797C613.37 87.9505 613.066 88.1833 612.719 88.3779C612.372 88.5726 611.999 88.7334 611.602 88.8604C611.212 88.9873 610.81 89.0804 610.396 89.1396C609.981 89.1989 609.575 89.2285 609.177 89.2285C608.313 89.2285 607.518 89.1904 606.79 89.1143C606.071 89.0381 605.364 88.9154 604.67 88.7461V86.7148C605.415 86.9264 606.155 87.0872 606.892 87.1973C607.628 87.3073 608.36 87.3623 609.088 87.3623C610.146 87.3623 610.929 87.2184 611.437 86.9307C611.944 86.6429 612.198 86.2324 612.198 85.6992C612.198 85.4707 612.156 85.2676 612.071 85.0898C611.995 84.9036 611.851 84.7301 611.64 84.5693C611.428 84.4001 611.098 84.2266 610.649 84.0488C610.209 83.8711 609.604 83.668 608.834 83.4395C608.258 83.2702 607.725 83.0798 607.234 82.8682C606.752 82.6481 606.333 82.39 605.978 82.0938C605.622 81.7975 605.343 81.4505 605.14 81.0527C604.937 80.6549 604.835 80.1852 604.835 79.6436C604.835 79.2881 604.915 78.8988 605.076 78.4756C605.245 78.0524 605.529 77.6589 605.927 77.2949C606.325 76.931 606.862 76.6305 607.539 76.3936C608.216 76.1481 609.062 76.0254 610.078 76.0254C610.577 76.0254 611.132 76.055 611.741 76.1143C612.351 76.165 612.985 76.2581 613.646 76.3936V78.3613C612.951 78.1921 612.291 78.0693 611.665 77.9932C611.047 77.9085 610.51 77.8662 610.053 77.8662C609.503 77.8662 609.037 77.9085 608.656 77.9932C608.284 78.0778 607.979 78.1963 607.742 78.3486C607.514 78.4925 607.349 78.666 607.247 78.8691C607.146 79.0638 607.095 79.2754 607.095 79.5039C607.095 79.7324 607.137 79.9398 607.222 80.126C607.315 80.3122 607.48 80.4941 607.717 80.6719C607.962 80.8411 608.301 81.0146 608.732 81.1924C609.164 81.3617 609.727 81.5479 610.421 81.751C611.174 81.971 611.809 82.2038 612.325 82.4492C612.841 82.6862 613.26 82.9528 613.582 83.249C613.904 83.5452 614.132 83.8796 614.268 84.252C614.411 84.6243 614.483 85.0475 614.483 85.5215ZM630.949 94.2051H616.654V92.377H630.949V94.2051ZM643.251 88.8223C642.752 88.9492 642.235 89.0381 641.702 89.0889C641.169 89.1481 640.627 89.1777 640.077 89.1777C638.478 89.1777 637.284 88.818 636.497 88.0986C635.71 87.3708 635.316 86.2578 635.316 84.7598V78.1074H631.749V76.2539H635.316V72.75L637.525 72.1787V76.2539H643.251V78.1074H637.525V84.582C637.525 85.4961 637.767 86.1816 638.249 86.6387C638.74 87.0872 639.459 87.3115 640.407 87.3115C640.813 87.3115 641.258 87.2819 641.74 87.2227C642.223 87.1549 642.726 87.0534 643.251 86.918V88.8223ZM658.371 82.5254C658.371 83.5156 658.231 84.4255 657.952 85.2549C657.673 86.0758 657.271 86.7826 656.746 87.375C656.221 87.959 655.582 88.416 654.829 88.7461C654.076 89.0677 653.221 89.2285 652.265 89.2285C651.351 89.2285 650.53 89.0889 649.802 88.8096C649.082 88.5218 648.469 88.1029 647.961 87.5527C647.462 87.0026 647.076 86.3213 646.806 85.5088C646.543 84.6963 646.412 83.7611 646.412 82.7031C646.412 81.7129 646.552 80.8115 646.831 79.999C647.11 79.1781 647.512 78.4756 648.037 77.8916C648.562 77.2992 649.201 76.8421 649.954 76.5205C650.707 76.1904 651.562 76.0254 652.519 76.0254C653.433 76.0254 654.249 76.1693 654.969 76.457C655.697 76.7363 656.31 77.151 656.81 77.7012C657.317 78.2428 657.702 78.9199 657.965 79.7324C658.236 80.5449 658.371 81.4759 658.371 82.5254ZM656.111 82.627C656.111 81.8398 656.022 81.1543 655.845 80.5703C655.675 79.9779 655.43 79.487 655.108 79.0977C654.787 78.6999 654.393 78.4036 653.928 78.209C653.471 78.0059 652.959 77.9043 652.392 77.9043C651.731 77.9043 651.164 78.0355 650.69 78.2979C650.225 78.5518 649.84 78.8945 649.535 79.3262C649.239 79.7578 649.019 80.2614 648.875 80.8369C648.74 81.404 648.672 82.0007 648.672 82.627C648.672 83.4141 648.757 84.1038 648.926 84.6963C649.104 85.2887 649.353 85.7839 649.675 86.1816C649.996 86.571 650.386 86.8672 650.843 87.0703C651.3 87.265 651.816 87.3623 652.392 87.3623C653.052 87.3623 653.615 87.2354 654.08 86.9814C654.554 86.7191 654.939 86.3721 655.235 85.9404C655.54 85.5088 655.76 85.0094 655.896 84.4424C656.039 83.8669 656.111 83.2617 656.111 82.627ZM673.834 94.2051H659.539V92.377H673.834V94.2051ZM676.386 76.2539H678.404L678.468 78.6025C679.221 77.6969 679.962 77.041 680.689 76.6348C681.426 76.2285 682.166 76.0254 682.911 76.0254C684.231 76.0254 685.23 76.4528 685.907 77.3076C686.593 78.1624 686.91 79.432 686.859 81.1162H684.625C684.65 79.999 684.485 79.1908 684.13 78.6914C683.783 78.1836 683.271 77.9297 682.594 77.9297C682.298 77.9297 681.997 77.9847 681.692 78.0947C681.396 78.1963 681.087 78.3656 680.766 78.6025C680.452 78.8311 680.118 79.1273 679.763 79.4912C679.407 79.8551 679.026 80.2952 678.62 80.8115V89H676.386V76.2539ZM700.926 81.9541C700.926 82.2673 700.922 82.5296 700.913 82.7412C700.905 82.9528 700.892 83.1517 700.875 83.3379H691.925C691.925 84.6413 692.289 85.6442 693.017 86.3467C693.744 87.0407 694.794 87.3877 696.165 87.3877C696.537 87.3877 696.91 87.375 697.282 87.3496C697.655 87.3158 698.014 87.2734 698.361 87.2227C698.708 87.1719 699.038 87.1169 699.352 87.0576C699.673 86.9899 699.969 86.918 700.24 86.8418V88.6572C699.639 88.8265 698.958 88.9619 698.196 89.0635C697.443 89.1735 696.66 89.2285 695.848 89.2285C694.756 89.2285 693.816 89.0804 693.029 88.7842C692.242 88.488 691.595 88.0605 691.087 87.502C690.588 86.9349 690.215 86.2451 689.97 85.4326C689.733 84.6117 689.614 83.6849 689.614 82.6523C689.614 81.7552 689.741 80.9089 689.995 80.1133C690.257 79.3092 690.634 78.6068 691.125 78.0059C691.624 77.3965 692.234 76.9141 692.953 76.5586C693.673 76.2031 694.489 76.0254 695.403 76.0254C696.292 76.0254 697.079 76.165 697.765 76.4443C698.45 76.7236 699.026 77.1214 699.491 77.6377C699.965 78.1455 700.321 78.7676 700.558 79.5039C700.803 80.2318 700.926 81.0485 700.926 81.9541ZM698.628 81.6367C698.653 81.0697 698.598 80.5534 698.463 80.0879C698.327 79.6139 698.116 79.2077 697.828 78.8691C697.549 78.5306 697.198 78.2682 696.774 78.082C696.351 77.8874 695.86 77.79 695.302 77.79C694.819 77.79 694.379 77.8831 693.981 78.0693C693.584 78.2555 693.241 78.5179 692.953 78.8564C692.665 79.195 692.433 79.6012 692.255 80.0752C692.077 80.5492 691.967 81.0697 691.925 81.6367H698.628ZM715.348 82.3984C715.348 83.5326 715.187 84.5228 714.865 85.3691C714.552 86.2155 714.116 86.918 713.558 87.4766C712.999 88.0352 712.339 88.4541 711.577 88.7334C710.815 89.0127 709.99 89.1523 709.102 89.1523C708.695 89.1523 708.289 89.1312 707.883 89.0889C707.485 89.0465 707.079 88.9746 706.664 88.873V94.2051H704.455V76.2539H706.423L706.562 78.3867C707.197 77.515 707.874 76.9056 708.594 76.5586C709.313 76.2031 710.092 76.0254 710.93 76.0254C711.658 76.0254 712.297 76.1777 712.847 76.4824C713.397 76.7871 713.858 77.2188 714.23 77.7773C714.603 78.3275 714.882 78.9961 715.068 79.7832C715.255 80.5618 715.348 81.4336 715.348 82.3984ZM713.088 82.5C713.088 81.8314 713.037 81.2178 712.936 80.6592C712.842 80.1006 712.69 79.6224 712.479 79.2246C712.267 78.8268 711.996 78.5179 711.666 78.2979C711.336 78.0693 710.942 77.9551 710.485 77.9551C710.206 77.9551 709.923 78.0016 709.635 78.0947C709.347 78.1794 709.047 78.3275 708.733 78.5391C708.429 78.7422 708.103 79.0173 707.756 79.3643C707.417 79.7028 707.053 80.126 706.664 80.6338V86.8164C707.07 86.9857 707.498 87.1211 707.946 87.2227C708.395 87.3158 708.835 87.3623 709.267 87.3623C710.46 87.3623 711.395 86.9603 712.072 86.1562C712.749 85.3438 713.088 84.125 713.088 82.5ZM723.092 72.877H719.321V71.0615H725.326V87.1592H729.122V89H718.902V87.1592H723.092V72.877ZM741.233 89L741.183 87.2861C740.489 87.9717 739.782 88.4668 739.062 88.7715C738.352 89.0762 737.603 89.2285 736.815 89.2285C736.088 89.2285 735.465 89.1354 734.949 88.9492C734.433 88.763 734.006 88.5091 733.667 88.1875C733.337 87.8574 733.091 87.4723 732.931 87.0322C732.778 86.5921 732.702 86.1139 732.702 85.5977C732.702 84.3197 733.176 83.321 734.124 82.6016C735.08 81.8737 736.49 81.5098 738.352 81.5098H740.992V80.3926C740.992 79.6393 740.751 79.0384 740.269 78.5898C739.786 78.1328 739.05 77.9043 738.06 77.9043C737.34 77.9043 736.629 77.9847 735.927 78.1455C735.233 78.3063 734.513 78.5348 733.769 78.8311V76.8379C734.048 76.7363 734.357 76.639 734.695 76.5459C735.042 76.4443 735.406 76.3555 735.787 76.2793C736.168 76.2031 736.566 76.1439 736.98 76.1016C737.395 76.0508 737.814 76.0254 738.237 76.0254C739.007 76.0254 739.701 76.11 740.319 76.2793C740.937 76.4486 741.458 76.7067 741.881 77.0537C742.312 77.4007 742.643 77.8366 742.871 78.3613C743.1 78.8861 743.214 79.5039 743.214 80.2148V89H741.233ZM740.992 83.1982H738.187C737.636 83.1982 737.162 83.2533 736.765 83.3633C736.367 83.4733 736.041 83.6299 735.787 83.833C735.533 84.0361 735.343 84.2816 735.216 84.5693C735.097 84.8486 735.038 85.166 735.038 85.5215C735.038 85.7669 735.076 86.0039 735.152 86.2324C735.229 86.4525 735.351 86.6514 735.521 86.8291C735.69 86.9984 735.91 87.1338 736.181 87.2354C736.451 87.3369 736.782 87.3877 737.171 87.3877C737.679 87.3877 738.258 87.2354 738.91 86.9307C739.57 86.6175 740.264 86.1266 740.992 85.458V83.1982ZM757.242 88.5303C756.667 88.7503 756.074 88.9111 755.465 89.0127C754.864 89.1227 754.242 89.1777 753.599 89.1777C751.584 89.1777 750.031 88.6318 748.939 87.54C747.856 86.4482 747.314 84.8529 747.314 82.7539C747.314 81.7467 747.471 80.8327 747.784 80.0117C748.097 79.1908 748.537 78.4883 749.104 77.9043C749.672 77.3203 750.349 76.8717 751.136 76.5586C751.923 76.237 752.79 76.0762 753.738 76.0762C754.398 76.0762 755.016 76.1227 755.592 76.2158C756.167 76.3089 756.717 76.4613 757.242 76.6729V78.7803C756.692 78.4925 756.129 78.2852 755.554 78.1582C754.987 78.0228 754.398 77.9551 753.789 77.9551C753.222 77.9551 752.685 78.0651 752.177 78.2852C751.677 78.4967 751.237 78.8057 750.856 79.2119C750.476 79.6182 750.175 80.1133 749.955 80.6973C749.735 81.2812 749.625 81.9414 749.625 82.6777C749.625 84.2181 749.997 85.3734 750.742 86.1436C751.495 86.9053 752.536 87.2861 753.865 87.2861C754.466 87.2861 755.046 87.2184 755.604 87.083C756.172 86.9476 756.717 86.7445 757.242 86.4736V88.5303ZM772.4 81.9541C772.4 82.2673 772.396 82.5296 772.388 82.7412C772.379 82.9528 772.367 83.1517 772.35 83.3379H763.399C763.399 84.6413 763.763 85.6442 764.491 86.3467C765.219 87.0407 766.269 87.3877 767.64 87.3877C768.012 87.3877 768.384 87.375 768.757 87.3496C769.129 87.3158 769.489 87.2734 769.836 87.2227C770.183 87.1719 770.513 87.1169 770.826 87.0576C771.148 86.9899 771.444 86.918 771.715 86.8418V88.6572C771.114 88.8265 770.433 88.9619 769.671 89.0635C768.918 89.1735 768.135 89.2285 767.322 89.2285C766.23 89.2285 765.291 89.0804 764.504 88.7842C763.717 88.488 763.069 88.0605 762.562 87.502C762.062 86.9349 761.69 86.2451 761.444 85.4326C761.207 84.6117 761.089 83.6849 761.089 82.6523C761.089 81.7552 761.216 80.9089 761.47 80.1133C761.732 79.3092 762.109 78.6068 762.6 78.0059C763.099 77.3965 763.708 76.9141 764.428 76.5586C765.147 76.2031 765.964 76.0254 766.878 76.0254C767.767 76.0254 768.554 76.165 769.239 76.4443C769.925 76.7236 770.5 77.1214 770.966 77.6377C771.44 78.1455 771.795 78.7676 772.032 79.5039C772.278 80.2318 772.4 81.0485 772.4 81.9541ZM770.103 81.6367C770.128 81.0697 770.073 80.5534 769.938 80.0879C769.802 79.6139 769.59 79.2077 769.303 78.8691C769.023 78.5306 768.672 78.2682 768.249 78.082C767.826 77.8874 767.335 77.79 766.776 77.79C766.294 77.79 765.854 77.8831 765.456 78.0693C765.058 78.2555 764.715 78.5179 764.428 78.8564C764.14 79.195 763.907 79.6012 763.729 80.0752C763.552 80.5492 763.442 81.0697 763.399 81.6367H770.103ZM800.8 80.7988H789.882V78.9326H800.8V80.7988ZM800.8 85.2168H789.882V83.3506H800.8V85.2168ZM830.621 76.2539L828.768 89H826.089L824.248 83.668L823.88 82.373L823.461 83.7441L821.696 89H819.094L817.253 76.2539H819.411L820.478 84.9121L820.706 86.8418L821.252 85.1533L823.105 79.4277H824.692L826.686 85.0771L827.257 86.7656L827.447 84.9756L828.438 76.2539H830.621ZM837.451 78.082H833.681V76.2539H839.686V87.1592H843.481V89H833.262V87.1592H837.451V78.082ZM838.226 70.9092C838.471 70.9092 838.7 70.9557 838.911 71.0488C839.123 71.1335 839.305 71.2562 839.457 71.417C839.618 71.5778 839.741 71.764 839.825 71.9756C839.918 72.1787 839.965 72.403 839.965 72.6484C839.965 72.8854 839.918 73.1097 839.825 73.3213C839.741 73.5329 839.618 73.7191 839.457 73.8799C839.305 74.0407 839.123 74.1676 838.911 74.2607C838.7 74.3454 838.471 74.3877 838.226 74.3877C837.98 74.3877 837.752 74.3454 837.54 74.2607C837.328 74.1676 837.142 74.0407 836.981 73.8799C836.829 73.7191 836.706 73.5329 836.613 73.3213C836.529 73.1097 836.486 72.8854 836.486 72.6484C836.486 72.403 836.529 72.1787 836.613 71.9756C836.706 71.764 836.829 71.5778 836.981 71.417C837.142 71.2562 837.328 71.1335 837.54 71.0488C837.752 70.9557 837.98 70.9092 838.226 70.9092ZM847.404 76.2539H849.372L849.461 78.3105C849.833 77.8704 850.193 77.5065 850.54 77.2188C850.887 76.9225 851.226 76.6855 851.556 76.5078C851.894 76.3301 852.237 76.2074 852.584 76.1396C852.931 76.0635 853.291 76.0254 853.663 76.0254C854.975 76.0254 855.965 76.4147 856.634 77.1934C857.311 77.9635 857.649 79.1273 857.649 80.6846V89H855.44V80.8623C855.44 79.8636 855.254 79.1273 854.882 78.6533C854.509 78.1709 853.955 77.9297 853.219 77.9297C852.948 77.9297 852.681 77.972 852.419 78.0566C852.165 78.1328 851.898 78.2725 851.619 78.4756C851.34 78.6702 851.035 78.9368 850.705 79.2754C850.383 79.6139 850.02 80.0371 849.613 80.5449V89H847.404V76.2539ZM861.052 82.8936C861.052 81.8102 861.2 80.8496 861.496 80.0117C861.792 79.1654 862.211 78.4544 862.753 77.8789C863.303 77.2949 863.959 76.8548 864.721 76.5586C865.491 76.2539 866.346 76.1016 867.285 76.1016C867.691 76.1016 868.089 76.127 868.479 76.1777C868.876 76.2285 869.266 76.3089 869.646 76.4189V71.0615H871.868V89H869.888L869.812 86.5879C869.194 87.485 868.525 88.1494 867.806 88.5811C867.086 89.0127 866.308 89.2285 865.47 89.2285C864.742 89.2285 864.099 89.0762 863.54 88.7715C862.99 88.4668 862.529 88.0394 862.156 87.4893C861.792 86.9307 861.517 86.262 861.331 85.4834C861.145 84.7048 861.052 83.8415 861.052 82.8936ZM863.312 82.7539C863.312 84.2943 863.536 85.4453 863.984 86.207C864.441 86.9603 865.085 87.3369 865.914 87.3369C866.473 87.3369 867.061 87.0872 867.679 86.5879C868.305 86.0885 868.961 85.348 869.646 84.3662V78.4502C869.283 78.2809 868.881 78.154 868.44 78.0693C868 77.9762 867.564 77.9297 867.133 77.9297C865.931 77.9297 864.992 78.319 864.314 79.0977C863.646 79.8763 863.312 81.0951 863.312 82.7539ZM887.09 82.5254C887.09 83.5156 886.95 84.4255 886.671 85.2549C886.392 86.0758 885.99 86.7826 885.465 87.375C884.94 87.959 884.301 88.416 883.548 88.7461C882.795 89.0677 881.94 89.2285 880.983 89.2285C880.069 89.2285 879.248 89.0889 878.521 88.8096C877.801 88.5218 877.188 88.1029 876.68 87.5527C876.18 87.0026 875.795 86.3213 875.524 85.5088C875.262 84.6963 875.131 83.7611 875.131 82.7031C875.131 81.7129 875.271 80.8115 875.55 79.999C875.829 79.1781 876.231 78.4756 876.756 77.8916C877.281 77.2992 877.92 76.8421 878.673 76.5205C879.426 76.1904 880.281 76.0254 881.237 76.0254C882.151 76.0254 882.968 76.1693 883.688 76.457C884.415 76.7363 885.029 77.151 885.528 77.7012C886.036 78.2428 886.421 78.9199 886.684 79.7324C886.954 80.5449 887.09 81.4759 887.09 82.5254ZM884.83 82.627C884.83 81.8398 884.741 81.1543 884.563 80.5703C884.394 79.9779 884.149 79.487 883.827 79.0977C883.506 78.6999 883.112 78.4036 882.646 78.209C882.189 78.0059 881.677 77.9043 881.11 77.9043C880.45 77.9043 879.883 78.0355 879.409 78.2979C878.944 78.5518 878.559 78.8945 878.254 79.3262C877.958 79.7578 877.738 80.2614 877.594 80.8369C877.458 81.404 877.391 82.0007 877.391 82.627C877.391 83.4141 877.475 84.1038 877.645 84.6963C877.822 85.2887 878.072 85.7839 878.394 86.1816C878.715 86.571 879.104 86.8672 879.562 87.0703C880.019 87.265 880.535 87.3623 881.11 87.3623C881.771 87.3623 882.333 87.2354 882.799 86.9814C883.273 86.7191 883.658 86.3721 883.954 85.9404C884.259 85.5088 884.479 85.0094 884.614 84.4424C884.758 83.8669 884.83 83.2617 884.83 82.627ZM902.096 76.2539L900.242 89H897.563L895.723 83.668L895.354 82.373L894.936 83.7441L893.171 89H890.568L888.728 76.2539H890.886L891.952 84.9121L892.181 86.8418L892.727 85.1533L894.58 79.4277H896.167L898.16 85.0771L898.731 86.7656L898.922 84.9756L899.912 76.2539H902.096ZM916.848 94.2051H902.553V92.377H916.848V94.2051ZM923.221 72.877H919.45V71.0615H925.455V87.1592H929.251V89H919.031V87.1592H923.221V72.877ZM943.939 81.9541C943.939 82.2673 943.935 82.5296 943.927 82.7412C943.918 82.9528 943.906 83.1517 943.889 83.3379H934.938C934.938 84.6413 935.302 85.6442 936.03 86.3467C936.758 87.0407 937.808 87.3877 939.179 87.3877C939.551 87.3877 939.924 87.375 940.296 87.3496C940.668 87.3158 941.028 87.2734 941.375 87.2227C941.722 87.1719 942.052 87.1169 942.365 87.0576C942.687 86.9899 942.983 86.918 943.254 86.8418V88.6572C942.653 88.8265 941.972 88.9619 941.21 89.0635C940.457 89.1735 939.674 89.2285 938.861 89.2285C937.77 89.2285 936.83 89.0804 936.043 88.7842C935.256 88.488 934.608 88.0605 934.101 87.502C933.601 86.9349 933.229 86.2451 932.983 85.4326C932.746 84.6117 932.628 83.6849 932.628 82.6523C932.628 81.7552 932.755 80.9089 933.009 80.1133C933.271 79.3092 933.648 78.6068 934.139 78.0059C934.638 77.3965 935.247 76.9141 935.967 76.5586C936.686 76.2031 937.503 76.0254 938.417 76.0254C939.306 76.0254 940.093 76.165 940.778 76.4443C941.464 76.7236 942.039 77.1214 942.505 77.6377C942.979 78.1455 943.334 78.7676 943.571 79.5039C943.817 80.2318 943.939 81.0485 943.939 81.9541ZM941.642 81.6367C941.667 81.0697 941.612 80.5534 941.477 80.0879C941.341 79.6139 941.13 79.2077 940.842 78.8691C940.562 78.5306 940.211 78.2682 939.788 78.082C939.365 77.8874 938.874 77.79 938.315 77.79C937.833 77.79 937.393 77.8831 936.995 78.0693C936.597 78.2555 936.255 78.5179 935.967 78.8564C935.679 79.195 935.446 79.6012 935.269 80.0752C935.091 80.5492 934.981 81.0697 934.938 81.6367H941.642ZM947.469 76.2539H949.437L949.525 78.3105C949.898 77.8704 950.257 77.5065 950.604 77.2188C950.951 76.9225 951.29 76.6855 951.62 76.5078C951.959 76.3301 952.301 76.2074 952.648 76.1396C952.995 76.0635 953.355 76.0254 953.728 76.0254C955.039 76.0254 956.03 76.4147 956.698 77.1934C957.375 77.9635 957.714 79.1273 957.714 80.6846V89H955.505V80.8623C955.505 79.8636 955.319 79.1273 954.946 78.6533C954.574 78.1709 954.02 77.9297 953.283 77.9297C953.012 77.9297 952.746 77.972 952.483 78.0566C952.229 78.1328 951.963 78.2725 951.684 78.4756C951.404 78.6702 951.1 78.9368 950.77 79.2754C950.448 79.6139 950.084 80.0371 949.678 80.5449V89H947.469V76.2539ZM970.942 78.0566C971.179 78.3529 971.361 78.6999 971.488 79.0977C971.624 79.487 971.691 79.9102 971.691 80.3672C971.691 81.0273 971.569 81.6325 971.323 82.1826C971.086 82.7243 970.748 83.1898 970.308 83.5791C969.868 83.9684 969.339 84.2731 968.721 84.4932C968.111 84.7048 967.438 84.8105 966.702 84.8105C966.169 84.8105 965.67 84.7555 965.204 84.6455C964.739 84.527 964.37 84.3831 964.1 84.2139C963.939 84.4508 963.803 84.6751 963.693 84.8867C963.583 85.0983 963.528 85.3353 963.528 85.5977C963.528 85.9193 963.681 86.1859 963.985 86.3975C964.299 86.609 964.709 86.7233 965.217 86.7402L968.568 86.8672C969.203 86.8841 969.787 86.9645 970.32 87.1084C970.862 87.2523 971.323 87.4596 971.704 87.7305C972.093 88.0013 972.394 88.3356 972.605 88.7334C972.826 89.1312 972.936 89.5924 972.936 90.1172C972.936 90.6842 972.813 91.2217 972.567 91.7295C972.322 92.2373 971.941 92.6816 971.425 93.0625C970.917 93.4518 970.27 93.7607 969.482 93.9893C968.695 94.2178 967.76 94.332 966.677 94.332C965.644 94.332 964.764 94.2474 964.036 94.0781C963.317 93.9173 962.724 93.6888 962.259 93.3926C961.793 93.1048 961.455 92.7578 961.243 92.3516C961.032 91.9538 960.926 91.5137 960.926 91.0312C960.926 90.4134 961.07 89.8717 961.357 89.4062C961.645 88.9408 962.09 88.4922 962.69 88.0605C962.47 87.959 962.28 87.832 962.119 87.6797C961.958 87.5273 961.827 87.3623 961.726 87.1846C961.624 86.9984 961.548 86.8037 961.497 86.6006C961.446 86.3975 961.421 86.1986 961.421 86.0039C961.421 85.4538 961.548 84.9502 961.802 84.4932C962.064 84.0361 962.373 83.6045 962.729 83.1982C962.568 83.0036 962.424 82.8132 962.297 82.627C962.178 82.4408 962.073 82.2419 961.979 82.0303C961.895 81.8102 961.827 81.5775 961.776 81.332C961.734 81.0781 961.713 80.7904 961.713 80.4688C961.713 79.8086 961.831 79.2077 962.068 78.666C962.314 78.1159 962.652 77.6462 963.084 77.2568C963.524 76.8675 964.049 76.5671 964.658 76.3555C965.276 76.1354 965.957 76.0254 966.702 76.0254C967.015 76.0254 967.316 76.0465 967.604 76.0889C967.891 76.1312 968.145 76.1862 968.365 76.2539H972.986V78.0566H970.942ZM963.274 90.8408C963.274 91.4417 963.588 91.8776 964.214 92.1484C964.84 92.4277 965.712 92.5674 966.829 92.5674C967.532 92.5674 968.12 92.5039 968.594 92.377C969.076 92.25 969.461 92.0807 969.749 91.8691C970.045 91.666 970.257 91.429 970.384 91.1582C970.511 90.8958 970.574 90.625 970.574 90.3457C970.574 89.8294 970.363 89.4486 969.939 89.2031C969.516 88.9577 968.869 88.8138 967.997 88.7715L964.671 88.6572C964.392 88.8434 964.159 89.0254 963.973 89.2031C963.795 89.3809 963.655 89.5586 963.554 89.7363C963.452 89.9225 963.38 90.1045 963.338 90.2822C963.296 90.4684 963.274 90.6546 963.274 90.8408ZM963.947 80.418C963.947 80.8242 964.015 81.1966 964.15 81.5352C964.286 81.8737 964.476 82.1615 964.722 82.3984C964.967 82.6354 965.255 82.8216 965.585 82.957C965.924 83.084 966.296 83.1475 966.702 83.1475C967.142 83.1475 967.532 83.0755 967.87 82.9316C968.217 82.7793 968.505 82.5762 968.733 82.3223C968.97 82.0684 969.148 81.7764 969.267 81.4463C969.394 81.1162 969.457 80.7734 969.457 80.418C969.457 80.0117 969.389 79.6393 969.254 79.3008C969.118 78.9622 968.928 78.6745 968.683 78.4375C968.437 78.2005 968.145 78.0186 967.807 77.8916C967.477 77.7562 967.108 77.6885 966.702 77.6885C966.262 77.6885 965.868 77.7646 965.521 77.917C965.183 78.0693 964.895 78.2725 964.658 78.5264C964.43 78.7718 964.252 79.0596 964.125 79.3896C964.007 79.7197 963.947 80.0625 963.947 80.418ZM986.329 88.8223C985.83 88.9492 985.313 89.0381 984.78 89.0889C984.247 89.1481 983.705 89.1777 983.155 89.1777C981.556 89.1777 980.362 88.818 979.575 88.0986C978.788 87.3708 978.395 86.2578 978.395 84.7598V78.1074H974.827V76.2539H978.395V72.75L980.604 72.1787V76.2539H986.329V78.1074H980.604V84.582C980.604 85.4961 980.845 86.1816 981.327 86.6387C981.818 87.0872 982.537 87.3115 983.485 87.3115C983.892 87.3115 984.336 87.2819 984.818 87.2227C985.301 87.1549 985.804 87.0534 986.329 86.918V88.8223ZM1000.6 89H998.39V80.8623C998.39 79.8805 998.203 79.1484 997.831 78.666C997.467 78.1751 996.942 77.9297 996.257 77.9297C995.961 77.9297 995.681 77.972 995.419 78.0566C995.165 78.1328 994.898 78.2725 994.619 78.4756C994.34 78.6702 994.035 78.9368 993.705 79.2754C993.375 79.6139 992.994 80.0371 992.562 80.5449V89H990.354V71.0615H992.562V76.2539L992.486 78.2598C992.833 77.8451 993.172 77.498 993.502 77.2188C993.84 76.931 994.175 76.6982 994.505 76.5205C994.843 76.3428 995.186 76.2158 995.533 76.1396C995.88 76.0635 996.24 76.0254 996.612 76.0254C997.882 76.0254 998.864 76.4147 999.558 77.1934C1000.25 77.9635 1000.6 79.1273 1000.6 80.6846V89ZM1027.86 83.1221H1020.26V81.04H1027.86V83.1221ZM1057.78 89H1055.57V80.8623C1055.57 79.8805 1055.38 79.1484 1055.01 78.666C1054.65 78.1751 1054.12 77.9297 1053.44 77.9297C1053.14 77.9297 1052.86 77.972 1052.6 78.0566C1052.34 78.1328 1052.08 78.2725 1051.8 78.4756C1051.52 78.6702 1051.21 78.9368 1050.88 79.2754C1050.55 79.6139 1050.17 80.0371 1049.74 80.5449V89H1047.53V71.0615H1049.74V76.2539L1049.67 78.2598C1050.01 77.8451 1050.35 77.498 1050.68 77.2188C1051.02 76.931 1051.35 76.6982 1051.68 76.5205C1052.02 76.3428 1052.37 76.2158 1052.71 76.1396C1053.06 76.0635 1053.42 76.0254 1053.79 76.0254C1055.06 76.0254 1056.04 76.4147 1056.74 77.1934C1057.43 77.9635 1057.78 79.1273 1057.78 80.6846V89ZM1066.17 78.082H1062.4V76.2539H1068.4V87.1592H1072.2V89H1061.98V87.1592H1066.17V78.082ZM1066.94 70.9092C1067.19 70.9092 1067.42 70.9557 1067.63 71.0488C1067.84 71.1335 1068.02 71.2562 1068.18 71.417C1068.34 71.5778 1068.46 71.764 1068.54 71.9756C1068.64 72.1787 1068.68 72.403 1068.68 72.6484C1068.68 72.8854 1068.64 73.1097 1068.54 73.3213C1068.46 73.5329 1068.34 73.7191 1068.18 73.8799C1068.02 74.0407 1067.84 74.1676 1067.63 74.2607C1067.42 74.3454 1067.19 74.3877 1066.94 74.3877C1066.7 74.3877 1066.47 74.3454 1066.26 74.2607C1066.05 74.1676 1065.86 74.0407 1065.7 73.8799C1065.55 73.7191 1065.43 73.5329 1065.33 73.3213C1065.25 73.1097 1065.21 72.8854 1065.21 72.6484C1065.21 72.403 1065.25 72.1787 1065.33 71.9756C1065.43 71.764 1065.55 71.5778 1065.7 71.417C1065.86 71.2562 1066.05 71.1335 1066.26 71.0488C1066.47 70.9557 1066.7 70.9092 1066.94 70.9092ZM1085.3 78.0566C1085.54 78.3529 1085.72 78.6999 1085.85 79.0977C1085.98 79.487 1086.05 79.9102 1086.05 80.3672C1086.05 81.0273 1085.93 81.6325 1085.68 82.1826C1085.45 82.7243 1085.11 83.1898 1084.67 83.5791C1084.23 83.9684 1083.7 84.2731 1083.08 84.4932C1082.47 84.7048 1081.8 84.8105 1081.06 84.8105C1080.53 84.8105 1080.03 84.7555 1079.56 84.6455C1079.1 84.527 1078.73 84.3831 1078.46 84.2139C1078.3 84.4508 1078.16 84.6751 1078.05 84.8867C1077.94 85.0983 1077.89 85.3353 1077.89 85.5977C1077.89 85.9193 1078.04 86.1859 1078.34 86.3975C1078.66 86.609 1079.07 86.7233 1079.58 86.7402L1082.93 86.8672C1083.56 86.8841 1084.15 86.9645 1084.68 87.1084C1085.22 87.2523 1085.68 87.4596 1086.06 87.7305C1086.45 88.0013 1086.75 88.3356 1086.96 88.7334C1087.18 89.1312 1087.29 89.5924 1087.29 90.1172C1087.29 90.6842 1087.17 91.2217 1086.93 91.7295C1086.68 92.2373 1086.3 92.6816 1085.78 93.0625C1085.28 93.4518 1084.63 93.7607 1083.84 93.9893C1083.05 94.2178 1082.12 94.332 1081.04 94.332C1080 94.332 1079.12 94.2474 1078.4 94.0781C1077.68 93.9173 1077.08 93.6888 1076.62 93.3926C1076.15 93.1048 1075.81 92.7578 1075.6 92.3516C1075.39 91.9538 1075.29 91.5137 1075.29 91.0312C1075.29 90.4134 1075.43 89.8717 1075.72 89.4062C1076 88.9408 1076.45 88.4922 1077.05 88.0605C1076.83 87.959 1076.64 87.832 1076.48 87.6797C1076.32 87.5273 1076.19 87.3623 1076.08 87.1846C1075.98 86.9984 1075.91 86.8037 1075.86 86.6006C1075.81 86.3975 1075.78 86.1986 1075.78 86.0039C1075.78 85.4538 1075.91 84.9502 1076.16 84.4932C1076.42 84.0361 1076.73 83.6045 1077.09 83.1982C1076.93 83.0036 1076.78 82.8132 1076.66 82.627C1076.54 82.4408 1076.43 82.2419 1076.34 82.0303C1076.25 81.8102 1076.19 81.5775 1076.14 81.332C1076.09 81.0781 1076.07 80.7904 1076.07 80.4688C1076.07 79.8086 1076.19 79.2077 1076.43 78.666C1076.67 78.1159 1077.01 77.6462 1077.44 77.2568C1077.88 76.8675 1078.41 76.5671 1079.02 76.3555C1079.64 76.1354 1080.32 76.0254 1081.06 76.0254C1081.37 76.0254 1081.68 76.0465 1081.96 76.0889C1082.25 76.1312 1082.5 76.1862 1082.72 76.2539H1087.35V78.0566H1085.3ZM1077.63 90.8408C1077.63 91.4417 1077.95 91.8776 1078.57 92.1484C1079.2 92.4277 1080.07 92.5674 1081.19 92.5674C1081.89 92.5674 1082.48 92.5039 1082.95 92.377C1083.44 92.25 1083.82 92.0807 1084.11 91.8691C1084.4 91.666 1084.62 91.429 1084.74 91.1582C1084.87 90.8958 1084.93 90.625 1084.93 90.3457C1084.93 89.8294 1084.72 89.4486 1084.3 89.2031C1083.88 88.9577 1083.23 88.8138 1082.36 88.7715L1079.03 88.6572C1078.75 88.8434 1078.52 89.0254 1078.33 89.2031C1078.15 89.3809 1078.01 89.5586 1077.91 89.7363C1077.81 89.9225 1077.74 90.1045 1077.7 90.2822C1077.65 90.4684 1077.63 90.6546 1077.63 90.8408ZM1078.31 80.418C1078.31 80.8242 1078.37 81.1966 1078.51 81.5352C1078.65 81.8737 1078.84 82.1615 1079.08 82.3984C1079.33 82.6354 1079.61 82.8216 1079.94 82.957C1080.28 83.084 1080.66 83.1475 1081.06 83.1475C1081.5 83.1475 1081.89 83.0755 1082.23 82.9316C1082.58 82.7793 1082.86 82.5762 1083.09 82.3223C1083.33 82.0684 1083.51 81.7764 1083.63 81.4463C1083.75 81.1162 1083.82 80.7734 1083.82 80.418C1083.82 80.0117 1083.75 79.6393 1083.61 79.3008C1083.48 78.9622 1083.29 78.6745 1083.04 78.4375C1082.8 78.2005 1082.5 78.0186 1082.17 77.8916C1081.84 77.7562 1081.47 77.6885 1081.06 77.6885C1080.62 77.6885 1080.23 77.7646 1079.88 77.917C1079.54 78.0693 1079.25 78.2725 1079.02 78.5264C1078.79 78.7718 1078.61 79.0596 1078.48 79.3896C1078.37 79.7197 1078.31 80.0625 1078.31 80.418ZM1100.66 89H1098.45V80.8623C1098.45 79.8805 1098.27 79.1484 1097.9 78.666C1097.53 78.1751 1097.01 77.9297 1096.32 77.9297C1096.03 77.9297 1095.75 77.972 1095.48 78.0566C1095.23 78.1328 1094.96 78.2725 1094.68 78.4756C1094.4 78.6702 1094.1 78.9368 1093.77 79.2754C1093.44 79.6139 1093.06 80.0371 1092.63 80.5449V89H1090.42V71.0615H1092.63V76.2539L1092.55 78.2598C1092.9 77.8451 1093.24 77.498 1093.57 77.2188C1093.9 76.931 1094.24 76.6982 1094.57 76.5205C1094.91 76.3428 1095.25 76.2158 1095.6 76.1396C1095.94 76.0635 1096.3 76.0254 1096.68 76.0254C1097.95 76.0254 1098.93 76.4147 1099.62 77.1934C1100.32 77.9635 1100.66 79.1273 1100.66 80.6846V89ZM1115.48 81.9541C1115.48 82.2673 1115.47 82.5296 1115.47 82.7412C1115.46 82.9528 1115.44 83.1517 1115.43 83.3379H1106.48C1106.48 84.6413 1106.84 85.6442 1107.57 86.3467C1108.3 87.0407 1109.35 87.3877 1110.72 87.3877C1111.09 87.3877 1111.46 87.375 1111.83 87.3496C1112.21 87.3158 1112.57 87.2734 1112.91 87.2227C1113.26 87.1719 1113.59 87.1169 1113.9 87.0576C1114.23 86.9899 1114.52 86.918 1114.79 86.8418V88.6572C1114.19 88.8265 1113.51 88.9619 1112.75 89.0635C1112 89.1735 1111.21 89.2285 1110.4 89.2285C1109.31 89.2285 1108.37 89.0804 1107.58 88.7842C1106.79 88.488 1106.15 88.0605 1105.64 87.502C1105.14 86.9349 1104.77 86.2451 1104.52 85.4326C1104.29 84.6117 1104.17 83.6849 1104.17 82.6523C1104.17 81.7552 1104.29 80.9089 1104.55 80.1133C1104.81 79.3092 1105.19 78.6068 1105.68 78.0059C1106.18 77.3965 1106.79 76.9141 1107.51 76.5586C1108.23 76.2031 1109.04 76.0254 1109.96 76.0254C1110.84 76.0254 1111.63 76.165 1112.32 76.4443C1113 76.7236 1113.58 77.1214 1114.04 77.6377C1114.52 78.1455 1114.87 78.7676 1115.11 79.5039C1115.36 80.2318 1115.48 81.0485 1115.48 81.9541ZM1113.18 81.6367C1113.21 81.0697 1113.15 80.5534 1113.02 80.0879C1112.88 79.6139 1112.67 79.2077 1112.38 78.8691C1112.1 78.5306 1111.75 78.2682 1111.33 78.082C1110.9 77.8874 1110.41 77.79 1109.85 77.79C1109.37 77.79 1108.93 77.8831 1108.53 78.0693C1108.14 78.2555 1107.79 78.5179 1107.51 78.8564C1107.22 79.195 1106.99 79.6012 1106.81 80.0752C1106.63 80.5492 1106.52 81.0697 1106.48 81.6367H1113.18ZM1129.1 85.5215C1129.1 85.9701 1129.02 86.3721 1128.87 86.7275C1128.72 87.083 1128.51 87.4004 1128.25 87.6797C1127.99 87.9505 1127.68 88.1833 1127.34 88.3779C1126.99 88.5726 1126.62 88.7334 1126.22 88.8604C1125.83 88.9873 1125.43 89.0804 1125.01 89.1396C1124.6 89.1989 1124.19 89.2285 1123.79 89.2285C1122.93 89.2285 1122.14 89.1904 1121.41 89.1143C1120.69 89.0381 1119.98 88.9154 1119.29 88.7461V86.7148C1120.03 86.9264 1120.77 87.0872 1121.51 87.1973C1122.25 87.3073 1122.98 87.3623 1123.71 87.3623C1124.76 87.3623 1125.55 87.2184 1126.05 86.9307C1126.56 86.6429 1126.82 86.2324 1126.82 85.6992C1126.82 85.4707 1126.77 85.2676 1126.69 85.0898C1126.61 84.9036 1126.47 84.7301 1126.26 84.5693C1126.05 84.4001 1125.72 84.2266 1125.27 84.0488C1124.83 83.8711 1124.22 83.668 1123.45 83.4395C1122.88 83.2702 1122.34 83.0798 1121.85 82.8682C1121.37 82.6481 1120.95 82.39 1120.59 82.0938C1120.24 81.7975 1119.96 81.4505 1119.76 81.0527C1119.55 80.6549 1119.45 80.1852 1119.45 79.6436C1119.45 79.2881 1119.53 78.8988 1119.69 78.4756C1119.86 78.0524 1120.15 77.6589 1120.54 77.2949C1120.94 76.931 1121.48 76.6305 1122.16 76.3936C1122.83 76.1481 1123.68 76.0254 1124.7 76.0254C1125.19 76.0254 1125.75 76.055 1126.36 76.1143C1126.97 76.165 1127.6 76.2581 1128.26 76.3936V78.3613C1127.57 78.1921 1126.91 78.0693 1126.28 77.9932C1125.66 77.9085 1125.13 77.8662 1124.67 77.8662C1124.12 77.8662 1123.65 77.9085 1123.27 77.9932C1122.9 78.0778 1122.6 78.1963 1122.36 78.3486C1122.13 78.4925 1121.97 78.666 1121.86 78.8691C1121.76 79.0638 1121.71 79.2754 1121.71 79.5039C1121.71 79.7324 1121.75 79.9398 1121.84 80.126C1121.93 80.3122 1122.1 80.4941 1122.33 80.6719C1122.58 80.8411 1122.92 81.0146 1123.35 81.1924C1123.78 81.3617 1124.34 81.5479 1125.04 81.751C1125.79 81.971 1126.43 82.2038 1126.94 82.4492C1127.46 82.6862 1127.88 82.9528 1128.2 83.249C1128.52 83.5452 1128.75 83.8796 1128.88 84.252C1129.03 84.6243 1129.1 85.0475 1129.1 85.5215ZM1143.57 88.8223C1143.07 88.9492 1142.56 89.0381 1142.02 89.0889C1141.49 89.1481 1140.95 89.1777 1140.4 89.1777C1138.8 89.1777 1137.61 88.818 1136.82 88.0986C1136.03 87.3708 1135.64 86.2578 1135.64 84.7598V78.1074H1132.07V76.2539H1135.64V72.75L1137.85 72.1787V76.2539H1143.57V78.1074H1137.85V84.582C1137.85 85.4961 1138.09 86.1816 1138.57 86.6387C1139.06 87.0872 1139.78 87.3115 1140.73 87.3115C1141.14 87.3115 1141.58 87.2819 1142.06 87.2227C1142.54 87.1549 1143.05 87.0534 1143.57 86.918V88.8223ZM1159.86 94.2051H1145.57V92.377H1159.86V94.2051ZM1173.2 73.1182C1172.04 72.8727 1171.05 72.75 1170.21 72.75C1168.22 72.75 1167.22 73.791 1167.22 75.873V78.1074H1172.81V79.9482H1167.22V89H1164.98V79.9482H1160.88V78.1074H1164.98V76C1164.98 72.6061 1166.75 70.9092 1170.28 70.9092C1171.16 70.9092 1172.14 71.0107 1173.2 71.2139V73.1182ZM1176.71 76.2539H1178.73L1178.79 78.6025C1179.54 77.6969 1180.28 77.041 1181.01 76.6348C1181.75 76.2285 1182.49 76.0254 1183.23 76.0254C1184.55 76.0254 1185.55 76.4528 1186.23 77.3076C1186.92 78.1624 1187.23 79.432 1187.18 81.1162H1184.95C1184.97 79.999 1184.81 79.1908 1184.45 78.6914C1184.11 78.1836 1183.59 77.9297 1182.92 77.9297C1182.62 77.9297 1182.32 77.9847 1182.01 78.0947C1181.72 78.1963 1181.41 78.3656 1181.09 78.6025C1180.77 78.8311 1180.44 79.1273 1180.08 79.4912C1179.73 79.8551 1179.35 80.2952 1178.94 80.8115V89H1176.71V76.2539ZM1201.25 81.9541C1201.25 82.2673 1201.24 82.5296 1201.24 82.7412C1201.23 82.9528 1201.21 83.1517 1201.2 83.3379H1192.25C1192.25 84.6413 1192.61 85.6442 1193.34 86.3467C1194.07 87.0407 1195.12 87.3877 1196.49 87.3877C1196.86 87.3877 1197.23 87.375 1197.6 87.3496C1197.98 87.3158 1198.34 87.2734 1198.68 87.2227C1199.03 87.1719 1199.36 87.1169 1199.67 87.0576C1200 86.9899 1200.29 86.918 1200.56 86.8418V88.6572C1199.96 88.8265 1199.28 88.9619 1198.52 89.0635C1197.77 89.1735 1196.98 89.2285 1196.17 89.2285C1195.08 89.2285 1194.14 89.0804 1193.35 88.7842C1192.56 88.488 1191.92 88.0605 1191.41 87.502C1190.91 86.9349 1190.54 86.2451 1190.29 85.4326C1190.06 84.6117 1189.94 83.6849 1189.94 82.6523C1189.94 81.7552 1190.06 80.9089 1190.32 80.1133C1190.58 79.3092 1190.96 78.6068 1191.45 78.0059C1191.95 77.3965 1192.56 76.9141 1193.28 76.5586C1193.99 76.2031 1194.81 76.0254 1195.73 76.0254C1196.61 76.0254 1197.4 76.165 1198.09 76.4443C1198.77 76.7236 1199.35 77.1214 1199.81 77.6377C1200.29 78.1455 1200.64 78.7676 1200.88 79.5039C1201.13 80.2318 1201.25 81.0485 1201.25 81.9541ZM1198.95 81.6367C1198.98 81.0697 1198.92 80.5534 1198.79 80.0879C1198.65 79.6139 1198.44 79.2077 1198.15 78.8691C1197.87 78.5306 1197.52 78.2682 1197.1 78.082C1196.67 77.8874 1196.18 77.79 1195.62 77.79C1195.14 77.79 1194.7 77.8831 1194.3 78.0693C1193.91 78.2555 1193.56 78.5179 1193.28 78.8564C1192.99 79.195 1192.75 79.6012 1192.58 80.0752C1192.4 80.5492 1192.29 81.0697 1192.25 81.6367H1198.95ZM1204.13 82.8936C1204.13 81.9795 1204.25 81.112 1204.49 80.291C1204.73 79.4701 1205.1 78.7507 1205.6 78.1328C1206.11 77.5065 1206.76 77.0114 1207.54 76.6475C1208.33 76.2835 1209.27 76.1016 1210.36 76.1016C1210.79 76.1016 1211.22 76.1354 1211.65 76.2031C1212.07 76.2708 1212.52 76.3766 1212.99 76.5205L1214.95 76.0254V94.2051H1212.72V89.3936L1212.84 86.6641C1211.64 88.3737 1210.21 89.2285 1208.55 89.2285C1207.8 89.2285 1207.16 89.0762 1206.61 88.7715C1206.06 88.4668 1205.59 88.0352 1205.22 87.4766C1204.86 86.918 1204.58 86.2493 1204.4 85.4707C1204.22 84.6921 1204.13 83.833 1204.13 82.8936ZM1206.39 82.7539C1206.39 83.4648 1206.44 84.1038 1206.54 84.6709C1206.65 85.238 1206.81 85.7204 1207.02 86.1182C1207.24 86.5075 1207.52 86.8079 1207.84 87.0195C1208.17 87.2311 1208.55 87.3369 1208.99 87.3369C1209.55 87.3369 1210.14 87.0872 1210.76 86.5879C1211.38 86.0885 1212.04 85.348 1212.72 84.3662V78.4502C1212.39 78.2894 1212 78.1582 1211.57 78.0566C1211.15 77.9551 1210.69 77.9043 1210.21 77.9043C1208.97 77.9043 1208.02 78.3148 1207.37 79.1357C1206.72 79.9567 1206.39 81.1628 1206.39 82.7539ZM800.8 114.799H789.882V112.933H800.8V114.799ZM800.8 119.217H789.882V117.351H800.8V119.217ZM829.44 123H819.018V120.943H823.283V108.832L819.31 110.99L818.497 109.111L823.778 106.331H825.733V120.943H829.44V123ZM856.316 117.122H848.725V115.04H856.316V117.122ZM886.62 123H876.197V120.943H880.463V108.832L876.489 110.99L875.677 109.111L880.958 106.331H882.913V120.943H886.62V123ZM800.8 148.799H789.882V146.933H800.8V148.799ZM800.8 153.217H789.882V151.351H800.8V153.217ZM829.961 148.71C829.961 149.979 829.834 151.139 829.58 152.188C829.326 153.229 828.941 154.127 828.425 154.88C827.909 155.625 827.265 156.204 826.495 156.619C825.733 157.025 824.836 157.229 823.804 157.229C822.915 157.229 822.107 157.063 821.379 156.733C820.651 156.395 820.029 155.879 819.513 155.185C818.996 154.491 818.599 153.606 818.319 152.531C818.04 151.456 817.9 150.183 817.9 148.71C817.9 147.44 818.027 146.281 818.281 145.231C818.544 144.182 818.929 143.285 819.437 142.54C819.953 141.787 820.596 141.207 821.366 140.801C822.136 140.386 823.034 140.179 824.058 140.179C824.946 140.179 825.755 140.348 826.482 140.687C827.21 141.017 827.832 141.533 828.349 142.235C828.865 142.929 829.263 143.814 829.542 144.889C829.821 145.964 829.961 147.237 829.961 148.71ZM827.727 148.786C827.727 148.498 827.714 148.215 827.688 147.936C827.672 147.648 827.65 147.368 827.625 147.098L820.604 152.315C820.731 152.756 820.892 153.162 821.087 153.534C821.282 153.907 821.514 154.228 821.785 154.499C822.064 154.761 822.378 154.969 822.725 155.121C823.08 155.265 823.482 155.337 823.931 155.337C824.506 155.337 825.027 155.197 825.492 154.918C825.966 154.639 826.368 154.224 826.698 153.674C827.028 153.124 827.282 152.442 827.46 151.63C827.638 150.809 827.727 149.861 827.727 148.786ZM820.135 148.634C820.135 148.896 820.135 149.159 820.135 149.421C820.143 149.683 820.16 149.937 820.186 150.183L827.206 144.99C827.079 144.559 826.918 144.165 826.724 143.81C826.529 143.454 826.296 143.149 826.025 142.896C825.755 142.633 825.446 142.43 825.099 142.286C824.752 142.142 824.362 142.07 823.931 142.07C823.355 142.07 822.83 142.21 822.356 142.489C821.891 142.769 821.493 143.188 821.163 143.746C820.833 144.296 820.579 144.982 820.401 145.803C820.224 146.615 820.135 147.559 820.135 148.634ZM857.205 151.516L855.961 153.001L847.455 147.123L855.961 141.245L857.205 142.73L850.489 147.123L857.205 151.516ZM857.979 157H847.062V155.159H857.979V157ZM887.458 157H884.424L878.482 150.17V157H876.273V139.062H878.482V150.081L884.208 144.254H887.128L881.148 150.132L887.458 157Z" fill="black"/>
<path d="M903 150C902.448 150 902 150.448 902 151C902 151.552 902.448 152 903 152V150ZM961.707 151.707C962.098 151.317 962.098 150.683 961.707 150.293L955.343 143.929C954.953 143.538 954.319 143.538 953.929 143.929C953.538 144.319 953.538 144.953 953.929 145.343L959.586 151L953.929 156.657C953.538 157.047 953.538 157.681 953.929 158.071C954.319 158.462 954.953 158.462 955.343 158.071L961.707 151.707ZM903 152H961V150H903V152Z" fill="black"/>
<path d="M989.797 149.954C989.797 150.267 989.793 150.53 989.784 150.741C989.776 150.953 989.763 151.152 989.746 151.338H980.796C980.796 152.641 981.16 153.644 981.888 154.347C982.616 155.041 983.665 155.388 985.036 155.388C985.409 155.388 985.781 155.375 986.153 155.35C986.526 155.316 986.885 155.273 987.232 155.223C987.579 155.172 987.91 155.117 988.223 155.058C988.544 154.99 988.84 154.918 989.111 154.842V156.657C988.51 156.826 987.829 156.962 987.067 157.063C986.314 157.174 985.531 157.229 984.719 157.229C983.627 157.229 982.688 157.08 981.9 156.784C981.113 156.488 980.466 156.061 979.958 155.502C979.459 154.935 979.086 154.245 978.841 153.433C978.604 152.612 978.485 151.685 978.485 150.652C978.485 149.755 978.612 148.909 978.866 148.113C979.129 147.309 979.505 146.607 979.996 146.006C980.495 145.396 981.105 144.914 981.824 144.559C982.544 144.203 983.36 144.025 984.274 144.025C985.163 144.025 985.95 144.165 986.636 144.444C987.321 144.724 987.897 145.121 988.362 145.638C988.836 146.146 989.192 146.768 989.429 147.504C989.674 148.232 989.797 149.049 989.797 149.954ZM987.499 149.637C987.524 149.07 987.469 148.553 987.334 148.088C987.199 147.614 986.987 147.208 986.699 146.869C986.42 146.531 986.069 146.268 985.646 146.082C985.222 145.887 984.731 145.79 984.173 145.79C983.69 145.79 983.25 145.883 982.853 146.069C982.455 146.256 982.112 146.518 981.824 146.856C981.536 147.195 981.304 147.601 981.126 148.075C980.948 148.549 980.838 149.07 980.796 149.637H987.499ZM1004.82 157H1001.88L998.442 152.138L995.04 157H992.184L997.122 150.602L992.412 144.254H995.243L998.595 149.154L1001.88 144.254H1004.61L999.826 150.652L1004.82 157ZM1018.51 150.398C1018.51 151.533 1018.35 152.523 1018.03 153.369C1017.72 154.215 1017.28 154.918 1016.72 155.477C1016.17 156.035 1015.5 156.454 1014.74 156.733C1013.98 157.013 1013.16 157.152 1012.27 157.152C1011.86 157.152 1011.46 157.131 1011.05 157.089C1010.65 157.047 1010.24 156.975 1009.83 156.873V162.205H1007.62V144.254H1009.59L1009.73 146.387C1010.36 145.515 1011.04 144.906 1011.76 144.559C1012.48 144.203 1013.26 144.025 1014.1 144.025C1014.82 144.025 1015.46 144.178 1016.01 144.482C1016.56 144.787 1017.02 145.219 1017.4 145.777C1017.77 146.327 1018.05 146.996 1018.23 147.783C1018.42 148.562 1018.51 149.434 1018.51 150.398ZM1016.25 150.5C1016.25 149.831 1016.2 149.218 1016.1 148.659C1016.01 148.101 1015.86 147.622 1015.64 147.225C1015.43 146.827 1015.16 146.518 1014.83 146.298C1014.5 146.069 1014.11 145.955 1013.65 145.955C1013.37 145.955 1013.09 146.002 1012.8 146.095C1012.51 146.179 1012.21 146.327 1011.9 146.539C1011.59 146.742 1011.27 147.017 1010.92 147.364C1010.58 147.703 1010.22 148.126 1009.83 148.634V154.816C1010.24 154.986 1010.66 155.121 1011.11 155.223C1011.56 155.316 1012 155.362 1012.43 155.362C1013.63 155.362 1014.56 154.96 1015.24 154.156C1015.92 153.344 1016.25 152.125 1016.25 150.5ZM1030.1 157L1030.05 155.286C1029.36 155.972 1028.65 156.467 1027.93 156.771C1027.22 157.076 1026.47 157.229 1025.69 157.229C1024.96 157.229 1024.34 157.135 1023.82 156.949C1023.3 156.763 1022.88 156.509 1022.54 156.188C1022.21 155.857 1021.96 155.472 1021.8 155.032C1021.65 154.592 1021.57 154.114 1021.57 153.598C1021.57 152.32 1022.05 151.321 1023 150.602C1023.95 149.874 1025.36 149.51 1027.22 149.51H1029.86V148.393C1029.86 147.639 1029.62 147.038 1029.14 146.59C1028.66 146.133 1027.92 145.904 1026.93 145.904C1026.21 145.904 1025.5 145.985 1024.8 146.146C1024.1 146.306 1023.38 146.535 1022.64 146.831V144.838C1022.92 144.736 1023.23 144.639 1023.57 144.546C1023.91 144.444 1024.28 144.355 1024.66 144.279C1025.04 144.203 1025.44 144.144 1025.85 144.102C1026.27 144.051 1026.69 144.025 1027.11 144.025C1027.88 144.025 1028.57 144.11 1029.19 144.279C1029.81 144.449 1030.33 144.707 1030.75 145.054C1031.18 145.401 1031.51 145.837 1031.74 146.361C1031.97 146.886 1032.08 147.504 1032.08 148.215V157H1030.1ZM1029.86 151.198H1027.06C1026.51 151.198 1026.03 151.253 1025.64 151.363C1025.24 151.473 1024.91 151.63 1024.66 151.833C1024.4 152.036 1024.21 152.282 1024.09 152.569C1023.97 152.849 1023.91 153.166 1023.91 153.521C1023.91 153.767 1023.95 154.004 1024.02 154.232C1024.1 154.452 1024.22 154.651 1024.39 154.829C1024.56 154.998 1024.78 155.134 1025.05 155.235C1025.32 155.337 1025.65 155.388 1026.04 155.388C1026.55 155.388 1027.13 155.235 1027.78 154.931C1028.44 154.618 1029.14 154.127 1029.86 153.458V151.198ZM1036.21 144.254H1038.18L1038.27 146.311C1038.64 145.87 1039 145.507 1039.35 145.219C1039.69 144.923 1040.03 144.686 1040.36 144.508C1040.7 144.33 1041.04 144.207 1041.39 144.14C1041.74 144.063 1042.1 144.025 1042.47 144.025C1043.78 144.025 1044.77 144.415 1045.44 145.193C1046.12 145.964 1046.46 147.127 1046.46 148.685V157H1044.25V148.862C1044.25 147.864 1044.06 147.127 1043.69 146.653C1043.32 146.171 1042.76 145.93 1042.03 145.93C1041.75 145.93 1041.49 145.972 1041.23 146.057C1040.97 146.133 1040.71 146.272 1040.43 146.476C1040.15 146.67 1039.84 146.937 1039.51 147.275C1039.19 147.614 1038.83 148.037 1038.42 148.545V157H1036.21V144.254ZM1049.86 150.894C1049.86 149.81 1050.01 148.85 1050.3 148.012C1050.6 147.165 1051.02 146.454 1051.56 145.879C1052.11 145.295 1052.77 144.855 1053.53 144.559C1054.3 144.254 1055.15 144.102 1056.09 144.102C1056.5 144.102 1056.9 144.127 1057.29 144.178C1057.68 144.229 1058.07 144.309 1058.45 144.419V139.062H1060.67V157H1058.69L1058.62 154.588C1058 155.485 1057.33 156.149 1056.61 156.581C1055.89 157.013 1055.11 157.229 1054.28 157.229C1053.55 157.229 1052.91 157.076 1052.35 156.771C1051.8 156.467 1051.34 156.039 1050.96 155.489C1050.6 154.931 1050.32 154.262 1050.14 153.483C1049.95 152.705 1049.86 151.841 1049.86 150.894ZM1052.12 150.754C1052.12 152.294 1052.34 153.445 1052.79 154.207C1053.25 154.96 1053.89 155.337 1054.72 155.337C1055.28 155.337 1055.87 155.087 1056.49 154.588C1057.11 154.089 1057.77 153.348 1058.45 152.366V146.45C1058.09 146.281 1057.69 146.154 1057.25 146.069C1056.81 145.976 1056.37 145.93 1055.94 145.93C1054.74 145.93 1053.8 146.319 1053.12 147.098C1052.45 147.876 1052.12 149.095 1052.12 150.754Z" fill="black"/>
<path d="M13.5713 21H10.0703L3.21484 13.1191V21H0.666016V0.301758H3.21484V13.0166L9.82129 6.29297H13.1904L6.29102 13.0752L13.5713 21ZM45.5342 11.5371H32.9365V9.38379H45.5342V11.5371ZM45.5342 16.6348H32.9365V14.4814H45.5342V16.6348ZM78.7422 21H66.1299V18.7148L71.0811 13.793C71.8916 12.9922 72.5508 12.2988 73.0586 11.7129C73.5664 11.127 73.9619 10.5947 74.2451 10.1162C74.5283 9.62793 74.7188 9.16895 74.8164 8.73926C74.9141 8.30957 74.9629 7.8457 74.9629 7.34766C74.9629 6.87891 74.8994 6.43457 74.7725 6.01465C74.6455 5.58496 74.4502 5.20898 74.1865 4.88672C73.9229 4.56445 73.5811 4.31055 73.1611 4.125C72.7412 3.93945 72.2383 3.84668 71.6523 3.84668C70.8418 3.84668 70.1045 4.02734 69.4404 4.38867C68.7764 4.75 68.166 5.21875 67.6094 5.79492L66.2031 4.11035C66.9258 3.34863 67.7559 2.73828 68.6934 2.2793C69.6406 1.82031 70.7393 1.59082 71.9893 1.59082C72.8389 1.59082 73.6104 1.71777 74.3037 1.97168C75.0068 2.22559 75.6123 2.5918 76.1201 3.07031C76.6279 3.54883 77.0186 4.13477 77.292 4.82812C77.5752 5.52148 77.7168 6.30273 77.7168 7.17188C77.7168 7.9043 77.6191 8.58301 77.4238 9.20801C77.2285 9.83301 76.9307 10.458 76.5303 11.083C76.1396 11.6982 75.6416 12.3379 75.0361 13.002C74.4404 13.666 73.7324 14.3936 72.9121 15.1846L69.4404 18.5684H78.7422V21Z" fill="black"/>
</g>
<defs>
<clipPath id="clip0_6255_1710">
<rect width="1240" height="181" fill="white"/>
</clipPath>
</defs>
</svg>
