<svg width="1104" height="233" viewBox="0 0 1104 233" fill="none" xmlns="http://www.w3.org/2000/svg">
<g clip-path="url(#clip0_6288_2522)">
<rect width="1104" height="233" fill="white"/>
<rect opacity="0.2" x="245" y="61" width="150" height="39" rx="6" fill="#00B2FF"/>
<path d="M262.404 12.6016H259.504V11.1953H264.123V19.584H267.043V21H259.182V19.584H262.404V12.6016ZM263 7.08398C263.189 7.08398 263.365 7.11979 263.527 7.19141C263.69 7.25651 263.83 7.35091 263.947 7.47461C264.071 7.59831 264.165 7.74154 264.23 7.9043C264.302 8.06055 264.338 8.23307 264.338 8.42188C264.338 8.60417 264.302 8.77669 264.23 8.93945C264.165 9.10221 264.071 9.24544 263.947 9.36914C263.83 9.49284 263.69 9.59049 263.527 9.66211C263.365 9.72721 263.189 9.75977 263 9.75977C262.811 9.75977 262.635 9.72721 262.473 9.66211C262.31 9.59049 262.167 9.49284 262.043 9.36914C261.926 9.24544 261.831 9.10221 261.76 8.93945C261.695 8.77669 261.662 8.60417 261.662 8.42188C261.662 8.23307 261.695 8.06055 261.76 7.9043C261.831 7.74154 261.926 7.59831 262.043 7.47461C262.167 7.35091 262.31 7.25651 262.473 7.19141C262.635 7.11979 262.811 7.08398 263 7.08398Z" fill="black"/>
<path d="M262.293 57.7071C262.683 58.0976 263.317 58.0976 263.707 57.7071L270.071 51.3431C270.462 50.9526 270.462 50.3195 270.071 49.9289C269.681 49.5384 269.047 49.5384 268.657 49.9289L263 55.5858L257.343 49.9289C256.953 49.5384 256.319 49.5384 255.929 49.9289C255.538 50.3195 255.538 50.9526 255.929 51.3431L262.293 57.7071ZM262 30L262 57L264 57L264 30L262 30Z" fill="black"/>
<rect x="249" y="1" width="28" height="28" rx="6" stroke="black" stroke-width="2"/>
<path d="M11.4951 89H8.46094L2.51953 82.1699V89H0.310547V71.0615H2.51953V82.0811L8.24512 76.2539H11.165L5.18555 82.1318L11.4951 89ZM23.2383 83.1221H15.6465V81.04H23.2383V83.1221ZM38.7139 85.5215C38.7139 85.9701 38.6377 86.3721 38.4854 86.7275C38.333 87.083 38.1257 87.4004 37.8633 87.6797C37.6009 87.9505 37.2962 88.1833 36.9492 88.3779C36.6022 88.5726 36.2298 88.7334 35.832 88.8604C35.4427 88.9873 35.0407 89.0804 34.626 89.1396C34.2113 89.1989 33.805 89.2285 33.4072 89.2285C32.5439 89.2285 31.7484 89.1904 31.0205 89.1143C30.3011 89.0381 29.5944 88.9154 28.9004 88.7461V86.7148C29.6452 86.9264 30.3857 87.0872 31.1221 87.1973C31.8584 87.3073 32.5905 87.3623 33.3184 87.3623C34.3763 87.3623 35.1592 87.2184 35.667 86.9307C36.1748 86.6429 36.4287 86.2324 36.4287 85.6992C36.4287 85.4707 36.3864 85.2676 36.3018 85.0898C36.2256 84.9036 36.0817 84.7301 35.8701 84.5693C35.6585 84.4001 35.3285 84.2266 34.8799 84.0488C34.4398 83.8711 33.8346 83.668 33.0645 83.4395C32.4889 83.2702 31.9557 83.0798 31.4648 82.8682C30.9824 82.6481 30.5635 82.39 30.208 82.0938C29.8525 81.7975 29.5732 81.4505 29.3701 81.0527C29.167 80.6549 29.0654 80.1852 29.0654 79.6436C29.0654 79.2881 29.1458 78.8988 29.3066 78.4756C29.4759 78.0524 29.7594 77.6589 30.1572 77.2949C30.555 76.931 31.0924 76.6305 31.7695 76.3936C32.4466 76.1481 33.293 76.0254 34.3086 76.0254C34.8079 76.0254 35.3623 76.055 35.9717 76.1143C36.5811 76.165 37.2158 76.2581 37.876 76.3936V78.3613C37.182 78.1921 36.5218 78.0693 35.8955 77.9932C35.2777 77.9085 34.7402 77.8662 34.2832 77.8662C33.7331 77.8662 33.2676 77.9085 32.8867 77.9932C32.5143 78.0778 32.2096 78.1963 31.9727 78.3486C31.7441 78.4925 31.5791 78.666 31.4775 78.8691C31.376 79.0638 31.3252 79.2754 31.3252 79.5039C31.3252 79.7324 31.3675 79.9398 31.4521 80.126C31.5452 80.3122 31.7103 80.4941 31.9473 80.6719C32.1927 80.8411 32.5312 81.0146 32.9629 81.1924C33.3945 81.3617 33.9574 81.5479 34.6514 81.751C35.4046 81.971 36.0394 82.2038 36.5557 82.4492C37.0719 82.6862 37.4909 82.9528 37.8125 83.249C38.1341 83.5452 38.3626 83.8796 38.498 84.252C38.6419 84.6243 38.7139 85.0475 38.7139 85.5215ZM54.0117 82.5254C54.0117 83.5156 53.8721 84.4255 53.5928 85.2549C53.3135 86.0758 52.9115 86.7826 52.3867 87.375C51.862 87.959 51.223 88.416 50.4697 88.7461C49.7165 89.0677 48.8617 89.2285 47.9053 89.2285C46.9912 89.2285 46.1702 89.0889 45.4424 88.8096C44.723 88.5218 44.1094 88.1029 43.6016 87.5527C43.1022 87.0026 42.7171 86.3213 42.4463 85.5088C42.1839 84.6963 42.0527 83.7611 42.0527 82.7031C42.0527 81.7129 42.1924 80.8115 42.4717 79.999C42.751 79.1781 43.153 78.4756 43.6777 77.8916C44.2025 77.2992 44.8415 76.8421 45.5947 76.5205C46.348 76.1904 47.2028 76.0254 48.1592 76.0254C49.0732 76.0254 49.89 76.1693 50.6094 76.457C51.3372 76.7363 51.9508 77.151 52.4502 77.7012C52.958 78.2428 53.3431 78.9199 53.6055 79.7324C53.8763 80.5449 54.0117 81.4759 54.0117 82.5254ZM51.752 82.627C51.752 81.8398 51.6631 81.1543 51.4854 80.5703C51.3161 79.9779 51.0706 79.487 50.749 79.0977C50.4274 78.6999 50.0339 78.4036 49.5684 78.209C49.1113 78.0059 48.5993 77.9043 48.0322 77.9043C47.3721 77.9043 46.805 78.0355 46.3311 78.2979C45.8656 78.5518 45.4805 78.8945 45.1758 79.3262C44.8796 79.7578 44.6595 80.2614 44.5156 80.8369C44.3802 81.404 44.3125 82.0007 44.3125 82.627C44.3125 83.4141 44.3971 84.1038 44.5664 84.6963C44.7441 85.2887 44.9938 85.7839 45.3154 86.1816C45.637 86.571 46.0264 86.8672 46.4834 87.0703C46.9404 87.265 47.4567 87.3623 48.0322 87.3623C48.6924 87.3623 49.2552 87.2354 49.7207 86.9814C50.1947 86.7191 50.5798 86.3721 50.876 85.9404C51.1807 85.5088 51.4007 85.0094 51.5361 84.4424C51.68 83.8669 51.752 83.2617 51.752 82.627ZM57.7314 76.2539H59.75L59.8135 78.6025C60.5667 77.6969 61.3073 77.041 62.0352 76.6348C62.7715 76.2285 63.512 76.0254 64.2568 76.0254C65.5771 76.0254 66.5758 76.4528 67.2529 77.3076C67.9385 78.1624 68.2559 79.432 68.2051 81.1162H65.9707C65.9961 79.999 65.8311 79.1908 65.4756 78.6914C65.1286 78.1836 64.6165 77.9297 63.9395 77.9297C63.6432 77.9297 63.3428 77.9847 63.0381 78.0947C62.7419 78.1963 62.4329 78.3656 62.1113 78.6025C61.7982 78.8311 61.4639 79.1273 61.1084 79.4912C60.7529 79.8551 60.3721 80.2952 59.9658 80.8115V89H57.7314V76.2539ZM81.7764 88.8223C81.277 88.9492 80.7607 89.0381 80.2275 89.0889C79.6943 89.1481 79.1527 89.1777 78.6025 89.1777C77.0029 89.1777 75.8096 88.818 75.0225 88.0986C74.2354 87.3708 73.8418 86.2578 73.8418 84.7598V78.1074H70.2744V76.2539H73.8418V72.75L76.0508 72.1787V76.2539H81.7764V78.1074H76.0508V84.582C76.0508 85.4961 76.292 86.1816 76.7744 86.6387C77.2653 87.0872 77.9847 87.3115 78.9326 87.3115C79.3389 87.3115 79.7832 87.2819 80.2656 87.2227C80.748 87.1549 81.2516 87.0534 81.7764 86.918V88.8223ZM96.5664 81.9541C96.5664 82.2673 96.5622 82.5296 96.5537 82.7412C96.5452 82.9528 96.5326 83.1517 96.5156 83.3379H87.5654C87.5654 84.6413 87.9294 85.6442 88.6572 86.3467C89.3851 87.0407 90.4346 87.3877 91.8057 87.3877C92.1781 87.3877 92.5505 87.375 92.9229 87.3496C93.2952 87.3158 93.6549 87.2734 94.002 87.2227C94.349 87.1719 94.679 87.1169 94.9922 87.0576C95.3138 86.9899 95.61 86.918 95.8809 86.8418V88.6572C95.2799 88.8265 94.5986 88.9619 93.8369 89.0635C93.0837 89.1735 92.3008 89.2285 91.4883 89.2285C90.3965 89.2285 89.457 89.0804 88.6699 88.7842C87.8828 88.488 87.2354 88.0605 86.7275 87.502C86.2282 86.9349 85.8558 86.2451 85.6104 85.4326C85.3734 84.6117 85.2549 83.6849 85.2549 82.6523C85.2549 81.7552 85.3818 80.9089 85.6357 80.1133C85.8981 79.3092 86.2747 78.6068 86.7656 78.0059C87.265 77.3965 87.8743 76.9141 88.5938 76.5586C89.3132 76.2031 90.1299 76.0254 91.0439 76.0254C91.9326 76.0254 92.7197 76.165 93.4053 76.4443C94.0908 76.7236 94.6663 77.1214 95.1318 77.6377C95.6058 78.1455 95.9613 78.7676 96.1982 79.5039C96.4437 80.2318 96.5664 81.0485 96.5664 81.9541ZM94.2686 81.6367C94.2939 81.0697 94.2389 80.5534 94.1035 80.0879C93.9681 79.6139 93.7565 79.2077 93.4688 78.8691C93.1895 78.5306 92.8382 78.2682 92.415 78.082C91.9919 77.8874 91.501 77.79 90.9424 77.79C90.46 77.79 90.0199 77.8831 89.6221 78.0693C89.2243 78.2555 88.8815 78.5179 88.5938 78.8564C88.306 79.195 88.0732 79.6012 87.8955 80.0752C87.7178 80.5492 87.6077 81.0697 87.5654 81.6367H94.2686ZM99.4482 82.8936C99.4482 81.8102 99.5964 80.8496 99.8926 80.0117C100.189 79.1654 100.608 78.4544 101.149 77.8789C101.7 77.2949 102.355 76.8548 103.117 76.5586C103.887 76.2539 104.742 76.1016 105.682 76.1016C106.088 76.1016 106.486 76.127 106.875 76.1777C107.273 76.2285 107.662 76.3089 108.043 76.4189V71.0615H110.265V89H108.284L108.208 86.5879C107.59 87.485 106.922 88.1494 106.202 88.5811C105.483 89.0127 104.704 89.2285 103.866 89.2285C103.138 89.2285 102.495 89.0762 101.937 88.7715C101.386 88.4668 100.925 88.0394 100.553 87.4893C100.189 86.9307 99.9137 86.262 99.7275 85.4834C99.5413 84.7048 99.4482 83.8415 99.4482 82.8936ZM101.708 82.7539C101.708 84.2943 101.932 85.4453 102.381 86.207C102.838 86.9603 103.481 87.3369 104.311 87.3369C104.869 87.3369 105.457 87.0872 106.075 86.5879C106.701 86.0885 107.357 85.348 108.043 84.3662V78.4502C107.679 78.2809 107.277 78.154 106.837 78.0693C106.397 77.9762 105.961 77.9297 105.529 77.9297C104.327 77.9297 103.388 78.319 102.711 79.0977C102.042 79.8763 101.708 81.0951 101.708 82.7539ZM136.874 89L136.823 87.2861C136.129 87.9717 135.423 88.4668 134.703 88.7715C133.992 89.0762 133.243 89.2285 132.456 89.2285C131.728 89.2285 131.106 89.1354 130.59 88.9492C130.074 88.763 129.646 88.5091 129.308 88.1875C128.978 87.8574 128.732 87.4723 128.571 87.0322C128.419 86.5921 128.343 86.1139 128.343 85.5977C128.343 84.3197 128.817 83.321 129.765 82.6016C130.721 81.8737 132.13 81.5098 133.992 81.5098H136.633V80.3926C136.633 79.6393 136.392 79.0384 135.909 78.5898C135.427 78.1328 134.69 77.9043 133.7 77.9043C132.981 77.9043 132.27 77.9847 131.567 78.1455C130.873 78.3063 130.154 78.5348 129.409 78.8311V76.8379C129.688 76.7363 129.997 76.639 130.336 76.5459C130.683 76.4443 131.047 76.3555 131.428 76.2793C131.809 76.2031 132.206 76.1439 132.621 76.1016C133.036 76.0508 133.455 76.0254 133.878 76.0254C134.648 76.0254 135.342 76.11 135.96 76.2793C136.578 76.4486 137.098 76.7067 137.521 77.0537C137.953 77.4007 138.283 77.8366 138.512 78.3613C138.74 78.8861 138.854 79.5039 138.854 80.2148V89H136.874ZM136.633 83.1982H133.827C133.277 83.1982 132.803 83.2533 132.405 83.3633C132.007 83.4733 131.682 83.6299 131.428 83.833C131.174 84.0361 130.983 84.2816 130.856 84.5693C130.738 84.8486 130.679 85.166 130.679 85.5215C130.679 85.7669 130.717 86.0039 130.793 86.2324C130.869 86.4525 130.992 86.6514 131.161 86.8291C131.33 86.9984 131.55 87.1338 131.821 87.2354C132.092 87.3369 132.422 87.3877 132.812 87.3877C133.319 87.3877 133.899 87.2354 134.551 86.9307C135.211 86.6175 135.905 86.1266 136.633 85.458V83.1982ZM143.501 76.2539H145.52L145.583 78.6025C146.336 77.6969 147.077 77.041 147.805 76.6348C148.541 76.2285 149.282 76.0254 150.026 76.0254C151.347 76.0254 152.345 76.4528 153.022 77.3076C153.708 78.1624 154.025 79.432 153.975 81.1162H151.74C151.766 79.999 151.601 79.1908 151.245 78.6914C150.898 78.1836 150.386 77.9297 149.709 77.9297C149.413 77.9297 149.112 77.9847 148.808 78.0947C148.511 78.1963 148.202 78.3656 147.881 78.6025C147.568 78.8311 147.233 79.1273 146.878 79.4912C146.522 79.8551 146.142 80.2952 145.735 80.8115V89H143.501V76.2539ZM157.796 76.2539H159.814L159.878 78.6025C160.631 77.6969 161.372 77.041 162.1 76.6348C162.836 76.2285 163.576 76.0254 164.321 76.0254C165.642 76.0254 166.64 76.4528 167.317 77.3076C168.003 78.1624 168.32 79.432 168.27 81.1162H166.035C166.061 79.999 165.896 79.1908 165.54 78.6914C165.193 78.1836 164.681 77.9297 164.004 77.9297C163.708 77.9297 163.407 77.9847 163.103 78.0947C162.806 78.1963 162.497 78.3656 162.176 78.6025C161.863 78.8311 161.528 79.1273 161.173 79.4912C160.817 79.8551 160.437 80.2952 160.03 80.8115V89H157.796V76.2539ZM179.759 89L179.708 87.2861C179.014 87.9717 178.307 88.4668 177.588 88.7715C176.877 89.0762 176.128 89.2285 175.341 89.2285C174.613 89.2285 173.991 89.1354 173.475 88.9492C172.958 88.763 172.531 88.5091 172.192 88.1875C171.862 87.8574 171.617 87.4723 171.456 87.0322C171.304 86.5921 171.228 86.1139 171.228 85.5977C171.228 84.3197 171.701 83.321 172.649 82.6016C173.606 81.8737 175.015 81.5098 176.877 81.5098H179.518V80.3926C179.518 79.6393 179.276 79.0384 178.794 78.5898C178.312 78.1328 177.575 77.9043 176.585 77.9043C175.866 77.9043 175.155 77.9847 174.452 78.1455C173.758 78.3063 173.039 78.5348 172.294 78.8311V76.8379C172.573 76.7363 172.882 76.639 173.221 76.5459C173.568 76.4443 173.932 76.3555 174.312 76.2793C174.693 76.2031 175.091 76.1439 175.506 76.1016C175.921 76.0508 176.34 76.0254 176.763 76.0254C177.533 76.0254 178.227 76.11 178.845 76.2793C179.463 76.4486 179.983 76.7067 180.406 77.0537C180.838 77.4007 181.168 77.8366 181.396 78.3613C181.625 78.8861 181.739 79.5039 181.739 80.2148V89H179.759ZM179.518 83.1982H176.712C176.162 83.1982 175.688 83.2533 175.29 83.3633C174.892 83.4733 174.566 83.6299 174.312 83.833C174.059 84.0361 173.868 84.2816 173.741 84.5693C173.623 84.8486 173.563 85.166 173.563 85.5215C173.563 85.7669 173.602 86.0039 173.678 86.2324C173.754 86.4525 173.877 86.6514 174.046 86.8291C174.215 86.9984 174.435 87.1338 174.706 87.2354C174.977 87.3369 175.307 87.3877 175.696 87.3877C176.204 87.3877 176.784 87.2354 177.436 86.9307C178.096 86.6175 178.79 86.1266 179.518 85.458V83.1982ZM197.202 76.2539L192.86 87.6543C192.412 88.8138 191.946 89.8125 191.464 90.6504C190.99 91.4883 190.469 92.1738 189.902 92.707C189.335 93.2487 188.713 93.6465 188.036 93.9004C187.359 94.1543 186.602 94.2812 185.764 94.2812C185.544 94.2812 185.345 94.277 185.167 94.2686C184.989 94.2601 184.795 94.2474 184.583 94.2305V92.2246C184.769 92.25 184.972 92.2712 185.192 92.2881C185.412 92.3135 185.645 92.3262 185.891 92.3262C186.297 92.3262 186.674 92.2669 187.021 92.1484C187.376 92.0299 187.71 91.8353 188.023 91.5645C188.337 91.3021 188.637 90.9593 188.925 90.5361C189.213 90.113 189.492 89.6009 189.763 89L184.672 76.2539H187.186L190.41 84.6836L191.058 86.6641L191.794 84.6328L194.777 76.2539H197.202ZM205.276 76.0254C205.539 76.0254 205.788 76.0804 206.025 76.1904C206.262 76.292 206.47 76.4316 206.647 76.6094C206.825 76.7871 206.965 76.9945 207.066 77.2314C207.176 77.4684 207.231 77.7181 207.231 77.9805C207.231 78.2513 207.176 78.5052 207.066 78.7422C206.965 78.9707 206.825 79.1738 206.647 79.3516C206.47 79.5293 206.262 79.6689 206.025 79.7705C205.788 79.8721 205.539 79.9229 205.276 79.9229C205.006 79.9229 204.752 79.8721 204.515 79.7705C204.286 79.6689 204.083 79.5293 203.905 79.3516C203.728 79.1738 203.588 78.9707 203.486 78.7422C203.385 78.5052 203.334 78.2513 203.334 77.9805C203.334 77.7181 203.385 77.4684 203.486 77.2314C203.588 76.9945 203.728 76.7871 203.905 76.6094C204.083 76.4316 204.286 76.292 204.515 76.1904C204.752 76.0804 205.006 76.0254 205.276 76.0254ZM205.276 85.3311C205.539 85.3311 205.788 85.3861 206.025 85.4961C206.262 85.5977 206.47 85.7373 206.647 85.915C206.825 86.0928 206.965 86.3001 207.066 86.5371C207.176 86.7741 207.231 87.0238 207.231 87.2861C207.231 87.557 207.176 87.8109 207.066 88.0479C206.965 88.2764 206.825 88.4795 206.647 88.6572C206.47 88.835 206.262 88.9746 206.025 89.0762C205.788 89.1777 205.539 89.2285 205.276 89.2285C205.006 89.2285 204.752 89.1777 204.515 89.0762C204.286 88.9746 204.083 88.835 203.905 88.6572C203.728 88.4795 203.588 88.2764 203.486 88.0479C203.385 87.8109 203.334 87.557 203.334 87.2861C203.334 87.0238 203.385 86.7741 203.486 86.5371C203.588 86.3001 203.728 86.0928 203.905 85.915C204.083 85.7373 204.286 85.5977 204.515 85.4961C204.752 85.3861 205.006 85.3311 205.276 85.3311ZM237.357 94.2051H231.099V70.6172H237.357V72.3945H233.206V92.4277H237.357V94.2051ZM267.687 83.6934C267.687 84.5143 267.509 85.2633 267.153 85.9404C266.798 86.6175 266.307 87.2015 265.681 87.6924C265.063 88.1748 264.331 88.5514 263.484 88.8223C262.638 89.0931 261.724 89.2285 260.742 89.2285C260.497 89.2285 260.23 89.2201 259.942 89.2031C259.663 89.1947 259.384 89.1777 259.104 89.1523C258.825 89.1354 258.55 89.1143 258.279 89.0889C258.017 89.0635 257.78 89.0339 257.568 89V86.9941C258.025 87.1042 258.546 87.1846 259.13 87.2354C259.722 87.2861 260.319 87.3115 260.92 87.3115C261.597 87.3115 262.206 87.2311 262.748 87.0703C263.29 86.9095 263.751 86.681 264.132 86.3848C264.513 86.0801 264.805 85.7161 265.008 85.293C265.211 84.8613 265.312 84.3789 265.312 83.8457C265.312 82.8132 264.94 82.0641 264.195 81.5986C263.459 81.1247 262.397 80.8877 261.009 80.8877H257.86V72.4072H266.798V74.3369H259.942V78.9961H261.39C262.185 78.9961 262.96 79.068 263.713 79.2119C264.466 79.3558 265.135 79.6097 265.719 79.9736C266.311 80.3291 266.785 80.8115 267.141 81.4209C267.505 82.0218 267.687 82.7793 267.687 83.6934ZM325.146 89H314.723V86.9434H318.988V74.832L315.015 76.9902L314.202 75.1113L319.483 72.3311H321.438V86.9434H325.146V89ZM382.376 79.7705C382.376 81.387 382.181 82.7793 381.792 83.9473C381.403 85.1068 380.827 86.0632 380.065 86.8164C379.304 87.5612 378.36 88.1113 377.234 88.4668C376.109 88.8223 374.81 89 373.337 89H371.953V87.0703H373.489C374.581 87.0703 375.525 86.9603 376.32 86.7402C377.116 86.5202 377.776 86.1986 378.301 85.7754C378.834 85.3438 379.24 84.8232 379.52 84.2139C379.799 83.596 379.972 82.8936 380.04 82.1064L380.091 81.5859C379.558 81.8991 378.944 82.153 378.25 82.3477C377.556 82.5339 376.803 82.627 375.99 82.627C375.152 82.627 374.416 82.5042 373.781 82.2588C373.146 82.0133 372.618 81.6706 372.194 81.2305C371.78 80.7904 371.466 80.2699 371.255 79.6689C371.043 79.0596 370.938 78.3994 370.938 77.6885C370.938 76.9183 371.077 76.1989 371.356 75.5303C371.636 74.8617 372.025 74.2819 372.524 73.791C373.032 73.2917 373.637 72.8981 374.34 72.6104C375.042 72.3226 375.817 72.1787 376.663 72.1787C377.484 72.1787 378.242 72.3141 378.936 72.585C379.638 72.8558 380.243 73.2959 380.751 73.9053C381.259 74.5062 381.657 75.2891 381.944 76.2539C382.232 77.2188 382.376 78.391 382.376 79.7705ZM376.562 73.9941C376.088 73.9941 375.647 74.0745 375.241 74.2354C374.843 74.3877 374.496 74.6162 374.2 74.9209C373.912 75.2171 373.684 75.5853 373.515 76.0254C373.345 76.4655 373.261 76.9691 373.261 77.5361C373.261 78.0524 373.32 78.5137 373.438 78.9199C373.565 79.3262 373.756 79.6732 374.01 79.9609C374.272 80.2402 374.606 80.4561 375.013 80.6084C375.419 80.7607 375.901 80.8369 376.46 80.8369C376.773 80.8369 377.095 80.8073 377.425 80.748C377.763 80.6888 378.089 80.6084 378.402 80.5068C378.724 80.4053 379.029 80.2868 379.316 80.1514C379.604 80.016 379.862 79.8721 380.091 79.7197C380.091 78.6279 380.01 77.7181 379.85 76.9902C379.689 76.2539 379.456 75.6657 379.151 75.2256C378.847 74.777 378.474 74.4596 378.034 74.2734C377.603 74.0872 377.112 73.9941 376.562 73.9941ZM440.47 85.3311H437.639V89H435.379V85.3311H427.394V83.3887L434.465 72.4072H437.639V83.3887H440.47V85.3311ZM435.379 74.54L429.603 83.3887H435.379V74.54ZM496.735 74.4639L489.778 89H487.252L494.476 74.4639H485.513V72.4072H496.735V74.4639ZM549.444 89H539.021V86.9434H543.287V74.832L539.313 76.9902L538.501 75.1113L543.782 72.3311H545.737V86.9434H549.444V89ZM564.26 80.71C564.26 81.9795 564.133 83.139 563.879 84.1885C563.625 85.2295 563.24 86.1266 562.724 86.8799C562.207 87.6247 561.564 88.2044 560.794 88.6191C560.032 89.0254 559.135 89.2285 558.102 89.2285C557.214 89.2285 556.406 89.0635 555.678 88.7334C554.95 88.3949 554.328 87.8786 553.811 87.1846C553.295 86.4906 552.897 85.6061 552.618 84.5312C552.339 83.4564 552.199 82.1826 552.199 80.71C552.199 79.4404 552.326 78.2809 552.58 77.2314C552.842 76.182 553.227 75.2848 553.735 74.54C554.252 73.7868 554.895 73.207 555.665 72.8008C556.435 72.3861 557.332 72.1787 558.356 72.1787C559.245 72.1787 560.053 72.348 560.781 72.6865C561.509 73.0166 562.131 73.5329 562.647 74.2354C563.164 74.9294 563.561 75.8138 563.841 76.8887C564.12 77.9635 564.26 79.2373 564.26 80.71ZM562.025 80.7861C562.025 80.4984 562.013 80.2148 561.987 79.9355C561.97 79.6478 561.949 79.3685 561.924 79.0977L554.903 84.3154C555.03 84.7555 555.191 85.1618 555.386 85.5342C555.58 85.9066 555.813 86.2282 556.084 86.499C556.363 86.7614 556.676 86.9688 557.023 87.1211C557.379 87.265 557.781 87.3369 558.229 87.3369C558.805 87.3369 559.325 87.1973 559.791 86.918C560.265 86.6387 560.667 86.224 560.997 85.6738C561.327 85.1237 561.581 84.4424 561.759 83.6299C561.936 82.8089 562.025 81.861 562.025 80.7861ZM554.434 80.6338C554.434 80.8962 554.434 81.1585 554.434 81.4209C554.442 81.6833 554.459 81.9372 554.484 82.1826L561.505 76.9902C561.378 76.5586 561.217 76.165 561.022 75.8096C560.828 75.4541 560.595 75.1494 560.324 74.8955C560.053 74.6331 559.744 74.43 559.397 74.2861C559.05 74.1423 558.661 74.0703 558.229 74.0703C557.654 74.0703 557.129 74.21 556.655 74.4893C556.19 74.7686 555.792 75.1875 555.462 75.7461C555.132 76.2962 554.878 76.9818 554.7 77.8027C554.522 78.6152 554.434 79.5589 554.434 80.6338ZM589.587 94.2051H583.328V92.4277H587.454V72.3945H583.328V70.6172H589.587V94.2051Z" fill="black"/>
<path d="M378 108L263 108" stroke="#00B2FF" stroke-width="2"/>
<path d="M267.883 127.71C267.883 128.979 267.756 130.139 267.502 131.188C267.248 132.229 266.863 133.127 266.347 133.88C265.83 134.625 265.187 135.204 264.417 135.619C263.655 136.025 262.758 136.229 261.726 136.229C260.837 136.229 260.029 136.063 259.301 135.733C258.573 135.395 257.951 134.879 257.435 134.185C256.918 133.491 256.521 132.606 256.241 131.531C255.962 130.456 255.822 129.183 255.822 127.71C255.822 126.44 255.949 125.281 256.203 124.231C256.465 123.182 256.851 122.285 257.358 121.54C257.875 120.787 258.518 120.207 259.288 119.801C260.058 119.386 260.955 119.179 261.979 119.179C262.868 119.179 263.676 119.348 264.404 119.687C265.132 120.017 265.754 120.533 266.271 121.235C266.787 121.929 267.185 122.814 267.464 123.889C267.743 124.964 267.883 126.237 267.883 127.71ZM265.648 127.786C265.648 127.498 265.636 127.215 265.61 126.936C265.593 126.648 265.572 126.368 265.547 126.098L258.526 131.315C258.653 131.756 258.814 132.162 259.009 132.534C259.203 132.907 259.436 133.228 259.707 133.499C259.986 133.761 260.299 133.969 260.646 134.121C261.002 134.265 261.404 134.337 261.853 134.337C262.428 134.337 262.949 134.197 263.414 133.918C263.888 133.639 264.29 133.224 264.62 132.674C264.95 132.124 265.204 131.442 265.382 130.63C265.56 129.809 265.648 128.861 265.648 127.786ZM258.057 127.634C258.057 127.896 258.057 128.159 258.057 128.421C258.065 128.683 258.082 128.937 258.107 129.183L265.128 123.99C265.001 123.559 264.84 123.165 264.646 122.81C264.451 122.454 264.218 122.149 263.947 121.896C263.676 121.633 263.368 121.43 263.021 121.286C262.674 121.142 262.284 121.07 261.853 121.07C261.277 121.07 260.752 121.21 260.278 121.489C259.813 121.769 259.415 122.188 259.085 122.746C258.755 123.296 258.501 123.982 258.323 124.803C258.146 125.615 258.057 126.559 258.057 127.634Z" fill="#00B2FF"/>
<path d="M363.293 127.71C363.293 128.979 363.166 130.139 362.912 131.188C362.658 132.229 362.273 133.127 361.757 133.88C361.241 134.625 360.597 135.204 359.827 135.619C359.065 136.025 358.168 136.229 357.136 136.229C356.247 136.229 355.439 136.063 354.711 135.733C353.983 135.395 353.361 134.879 352.845 134.185C352.328 133.491 351.931 132.606 351.651 131.531C351.372 130.456 351.232 129.183 351.232 127.71C351.232 126.44 351.359 125.281 351.613 124.231C351.876 123.182 352.261 122.285 352.769 121.54C353.285 120.787 353.928 120.207 354.698 119.801C355.468 119.386 356.366 119.179 357.39 119.179C358.278 119.179 359.087 119.348 359.814 119.687C360.542 120.017 361.164 120.533 361.681 121.235C362.197 121.929 362.595 122.814 362.874 123.889C363.153 124.964 363.293 126.237 363.293 127.71ZM361.059 127.786C361.059 127.498 361.046 127.215 361.021 126.936C361.004 126.648 360.982 126.368 360.957 126.098L353.937 131.315C354.063 131.756 354.224 132.162 354.419 132.534C354.614 132.907 354.846 133.228 355.117 133.499C355.396 133.761 355.71 133.969 356.057 134.121C356.412 134.265 356.814 134.337 357.263 134.337C357.838 134.337 358.359 134.197 358.824 133.918C359.298 133.639 359.7 133.224 360.03 132.674C360.36 132.124 360.614 131.442 360.792 130.63C360.97 129.809 361.059 128.861 361.059 127.786ZM353.467 127.634C353.467 127.896 353.467 128.159 353.467 128.421C353.475 128.683 353.492 128.937 353.518 129.183L360.538 123.99C360.411 123.559 360.25 123.165 360.056 122.81C359.861 122.454 359.628 122.149 359.357 121.896C359.087 121.633 358.778 121.43 358.431 121.286C358.084 121.142 357.694 121.07 357.263 121.07C356.687 121.07 356.162 121.21 355.688 121.489C355.223 121.769 354.825 122.188 354.495 122.746C354.165 123.296 353.911 123.982 353.733 124.803C353.556 125.615 353.467 126.559 353.467 127.634ZM384.139 130.046H379.149V135.226H376.966V130.046H371.977V128.116H376.966V122.975H379.149V128.116H384.139V130.046ZM405.2 136H402.166L396.225 129.17V136H394.016V118.062H396.225V129.081L401.95 123.254H404.87L398.891 129.132L405.2 136Z" fill="#00B2FF"/>
<path d="M263 102V115" stroke="#00B2FF" stroke-width="2"/>
<path d="M378 102V115" stroke="#00B2FF" stroke-width="2"/>
<rect x="652" y="60" width="450" height="47" rx="10" fill="#EDEDED" stroke="#999999" stroke-width="2" stroke-dasharray="10 10"/>
<circle opacity="0.3" cx="1016" cy="83" r="12" fill="#FF5500"/>
<path d="M678.191 87.7891C678.191 88.2031 678.121 88.5742 677.98 88.9023C677.84 89.2305 677.648 89.5234 677.406 89.7812C677.164 90.0312 676.883 90.2461 676.562 90.4258C676.242 90.6055 675.898 90.7539 675.531 90.8711C675.172 90.9883 674.801 91.0742 674.418 91.1289C674.035 91.1836 673.66 91.2109 673.293 91.2109C672.496 91.2109 671.762 91.1758 671.09 91.1055C670.426 91.0352 669.773 90.9219 669.133 90.7656V88.8906C669.82 89.0859 670.504 89.2344 671.184 89.3359C671.863 89.4375 672.539 89.4883 673.211 89.4883C674.188 89.4883 674.91 89.3555 675.379 89.0898C675.848 88.8242 676.082 88.4453 676.082 87.9531C676.082 87.7422 676.043 87.5547 675.965 87.3906C675.895 87.2188 675.762 87.0586 675.566 86.9102C675.371 86.7539 675.066 86.5938 674.652 86.4297C674.246 86.2656 673.688 86.0781 672.977 85.8672C672.445 85.7109 671.953 85.5352 671.5 85.3398C671.055 85.1367 670.668 84.8984 670.34 84.625C670.012 84.3516 669.754 84.0312 669.566 83.6641C669.379 83.2969 669.285 82.8633 669.285 82.3633C669.285 82.0352 669.359 81.6758 669.508 81.2852C669.664 80.8945 669.926 80.5312 670.293 80.1953C670.66 79.8594 671.156 79.582 671.781 79.3633C672.406 79.1367 673.188 79.0234 674.125 79.0234C674.586 79.0234 675.098 79.0508 675.66 79.1055C676.223 79.1523 676.809 79.2383 677.418 79.3633V81.1797C676.777 81.0234 676.168 80.9102 675.59 80.8398C675.02 80.7617 674.523 80.7227 674.102 80.7227C673.594 80.7227 673.164 80.7617 672.812 80.8398C672.469 80.918 672.188 81.0273 671.969 81.168C671.758 81.3008 671.605 81.4609 671.512 81.6484C671.418 81.8281 671.371 82.0234 671.371 82.2344C671.371 82.4453 671.41 82.6367 671.488 82.8086C671.574 82.9805 671.727 83.1484 671.945 83.3125C672.172 83.4688 672.484 83.6289 672.883 83.793C673.281 83.9492 673.801 84.1211 674.441 84.3086C675.137 84.5117 675.723 84.7266 676.199 84.9531C676.676 85.1719 677.062 85.418 677.359 85.6914C677.656 85.9648 677.867 86.2734 677.992 86.6172C678.125 86.9609 678.191 87.3516 678.191 87.7891ZM692.969 79.2344L691.258 91H688.785L687.086 86.0781L686.746 84.8828L686.359 86.1484L684.73 91H682.328L680.629 79.2344H682.621L683.605 87.2266L683.816 89.0078L684.32 87.4492L686.031 82.1641H687.496L689.336 87.3789L689.863 88.9375L690.039 87.2852L690.953 79.2344H692.969ZM702.824 91L702.777 89.418C702.137 90.0508 701.484 90.5078 700.82 90.7891C700.164 91.0703 699.473 91.2109 698.746 91.2109C698.074 91.2109 697.5 91.125 697.023 90.9531C696.547 90.7812 696.152 90.5469 695.84 90.25C695.535 89.9453 695.309 89.5898 695.16 89.1836C695.02 88.7773 694.949 88.3359 694.949 87.8594C694.949 86.6797 695.387 85.7578 696.262 85.0938C697.145 84.4219 698.445 84.0859 700.164 84.0859H702.602V83.0547C702.602 82.3594 702.379 81.8047 701.934 81.3906C701.488 80.9688 700.809 80.7578 699.895 80.7578C699.23 80.7578 698.574 80.832 697.926 80.9805C697.285 81.1289 696.621 81.3398 695.934 81.6133V79.7734C696.191 79.6797 696.477 79.5898 696.789 79.5039C697.109 79.4102 697.445 79.3281 697.797 79.2578C698.148 79.1875 698.516 79.1328 698.898 79.0938C699.281 79.0469 699.668 79.0234 700.059 79.0234C700.77 79.0234 701.41 79.1016 701.98 79.2578C702.551 79.4141 703.031 79.6523 703.422 79.9727C703.82 80.293 704.125 80.6953 704.336 81.1797C704.547 81.6641 704.652 82.2344 704.652 82.8906V91H702.824ZM702.602 85.6445H700.012C699.504 85.6445 699.066 85.6953 698.699 85.7969C698.332 85.8984 698.031 86.043 697.797 86.2305C697.562 86.418 697.387 86.6445 697.27 86.9102C697.16 87.168 697.105 87.4609 697.105 87.7891C697.105 88.0156 697.141 88.2344 697.211 88.4453C697.281 88.6484 697.395 88.832 697.551 88.9961C697.707 89.1523 697.91 89.2773 698.16 89.3711C698.41 89.4648 698.715 89.5117 699.074 89.5117C699.543 89.5117 700.078 89.3711 700.68 89.0898C701.289 88.8008 701.93 88.3477 702.602 87.7305V85.6445ZM718.516 84.9062C718.516 85.9531 718.367 86.8672 718.07 87.6484C717.781 88.4297 717.379 89.0781 716.863 89.5938C716.348 90.1094 715.738 90.4961 715.035 90.7539C714.332 91.0117 713.57 91.1406 712.75 91.1406C712.375 91.1406 712 91.1211 711.625 91.082C711.258 91.043 710.883 90.9766 710.5 90.8828V95.8047H708.461V79.2344H710.277L710.406 81.2031C710.992 80.3984 711.617 79.8359 712.281 79.5156C712.945 79.1875 713.664 79.0234 714.438 79.0234C715.109 79.0234 715.699 79.1641 716.207 79.4453C716.715 79.7266 717.141 80.125 717.484 80.6406C717.828 81.1484 718.086 81.7656 718.258 82.4922C718.43 83.2109 718.516 84.0156 718.516 84.9062ZM716.43 85C716.43 84.3828 716.383 83.8164 716.289 83.3008C716.203 82.7852 716.062 82.3438 715.867 81.9766C715.672 81.6094 715.422 81.3242 715.117 81.1211C714.812 80.9102 714.449 80.8047 714.027 80.8047C713.77 80.8047 713.508 80.8477 713.242 80.9336C712.977 81.0117 712.699 81.1484 712.41 81.3438C712.129 81.5312 711.828 81.7852 711.508 82.1055C711.195 82.418 710.859 82.8086 710.5 83.2773V88.9844C710.875 89.1406 711.27 89.2656 711.684 89.3594C712.098 89.4453 712.504 89.4883 712.902 89.4883C714.004 89.4883 714.867 89.1172 715.492 88.375C716.117 87.625 716.43 86.5 716.43 85ZM734.852 79.2344H736.668L736.75 81.1328C737.094 80.7266 737.426 80.3906 737.746 80.125C738.066 79.8516 738.379 79.6328 738.684 79.4688C738.996 79.3047 739.312 79.1914 739.633 79.1289C739.953 79.0586 740.285 79.0234 740.629 79.0234C741.84 79.0234 742.754 79.3828 743.371 80.1016C743.996 80.8125 744.309 81.8867 744.309 83.3242V91H742.27V83.4883C742.27 82.5664 742.098 81.8867 741.754 81.4492C741.41 81.0039 740.898 80.7812 740.219 80.7812C739.969 80.7812 739.723 80.8203 739.48 80.8984C739.246 80.9688 739 81.0977 738.742 81.2852C738.484 81.4648 738.203 81.7109 737.898 82.0234C737.602 82.3359 737.266 82.7266 736.891 83.1953V91H734.852V79.2344ZM757.504 91H755.676L755.605 89.1016C755.254 89.5078 754.918 89.8477 754.598 90.1211C754.285 90.3867 753.973 90.6016 753.66 90.7656C753.348 90.9297 753.031 91.043 752.711 91.1055C752.398 91.1758 752.066 91.2109 751.715 91.2109C750.504 91.2109 749.59 90.8555 748.973 90.1445C748.355 89.4336 748.047 88.3594 748.047 86.9219V79.2344H750.086V86.7578C750.086 88.5625 750.766 89.4648 752.125 89.4648C752.375 89.4648 752.617 89.4297 752.852 89.3594C753.094 89.2812 753.344 89.1523 753.602 88.9727C753.867 88.7852 754.148 88.5352 754.445 88.2227C754.75 87.9102 755.09 87.5156 755.465 87.0391V79.2344H757.504V91ZM769.633 91V82.5508C769.633 82.1836 769.617 81.8828 769.586 81.6484C769.562 81.4141 769.52 81.2305 769.457 81.0977C769.402 80.957 769.328 80.8594 769.234 80.8047C769.148 80.75 769.039 80.7227 768.906 80.7227C768.75 80.7227 768.605 80.7695 768.473 80.8633C768.34 80.957 768.195 81.1094 768.039 81.3203C767.891 81.5312 767.723 81.8125 767.535 82.1641C767.355 82.5078 767.141 82.9336 766.891 83.4414V91H765.027V82.7734C765.027 82.3438 765.012 81.9961 764.98 81.7305C764.957 81.4648 764.914 81.2578 764.852 81.1094C764.797 80.9609 764.723 80.8594 764.629 80.8047C764.535 80.75 764.422 80.7227 764.289 80.7227C764.148 80.7227 764.016 80.7617 763.891 80.8398C763.766 80.918 763.625 81.0586 763.469 81.2617C763.32 81.4648 763.152 81.7422 762.965 82.0938C762.777 82.4453 762.555 82.8945 762.297 83.4414V91H760.422V79.2344H761.98L762.074 81.4727C762.277 81.0273 762.473 80.6484 762.66 80.3359C762.855 80.0234 763.055 79.7734 763.258 79.5859C763.461 79.3906 763.676 79.25 763.902 79.1641C764.137 79.0703 764.395 79.0234 764.676 79.0234C765.309 79.0234 765.789 79.2305 766.117 79.6445C766.445 80.0586 766.609 80.6992 766.609 81.5664C766.797 81.1602 766.98 80.8008 767.16 80.4883C767.34 80.168 767.531 79.9023 767.734 79.6914C767.945 79.4727 768.176 79.3086 768.426 79.1992C768.676 79.082 768.965 79.0234 769.293 79.0234C770.77 79.0234 771.508 80.1602 771.508 82.4336V91H769.633ZM783.754 87.7891C783.754 88.2031 783.684 88.5742 783.543 88.9023C783.402 89.2305 783.211 89.5234 782.969 89.7812C782.727 90.0312 782.445 90.2461 782.125 90.4258C781.805 90.6055 781.461 90.7539 781.094 90.8711C780.734 90.9883 780.363 91.0742 779.98 91.1289C779.598 91.1836 779.223 91.2109 778.855 91.2109C778.059 91.2109 777.324 91.1758 776.652 91.1055C775.988 91.0352 775.336 90.9219 774.695 90.7656V88.8906C775.383 89.0859 776.066 89.2344 776.746 89.3359C777.426 89.4375 778.102 89.4883 778.773 89.4883C779.75 89.4883 780.473 89.3555 780.941 89.0898C781.41 88.8242 781.645 88.4453 781.645 87.9531C781.645 87.7422 781.605 87.5547 781.527 87.3906C781.457 87.2188 781.324 87.0586 781.129 86.9102C780.934 86.7539 780.629 86.5938 780.215 86.4297C779.809 86.2656 779.25 86.0781 778.539 85.8672C778.008 85.7109 777.516 85.5352 777.062 85.3398C776.617 85.1367 776.23 84.8984 775.902 84.625C775.574 84.3516 775.316 84.0312 775.129 83.6641C774.941 83.2969 774.848 82.8633 774.848 82.3633C774.848 82.0352 774.922 81.6758 775.07 81.2852C775.227 80.8945 775.488 80.5312 775.855 80.1953C776.223 79.8594 776.719 79.582 777.344 79.3633C777.969 79.1367 778.75 79.0234 779.688 79.0234C780.148 79.0234 780.66 79.0508 781.223 79.1055C781.785 79.1523 782.371 79.2383 782.98 79.3633V81.1797C782.34 81.0234 781.73 80.9102 781.152 80.8398C780.582 80.7617 780.086 80.7227 779.664 80.7227C779.156 80.7227 778.727 80.7617 778.375 80.8398C778.031 80.918 777.75 81.0273 777.531 81.168C777.32 81.3008 777.168 81.4609 777.074 81.6484C776.98 81.8281 776.934 82.0234 776.934 82.2344C776.934 82.4453 776.973 82.6367 777.051 82.8086C777.137 82.9805 777.289 83.1484 777.508 83.3125C777.734 83.4688 778.047 83.6289 778.445 83.793C778.844 83.9492 779.363 84.1211 780.004 84.3086C780.699 84.5117 781.285 84.7266 781.762 84.9531C782.238 85.1719 782.625 85.418 782.922 85.6914C783.219 85.9648 783.43 86.2734 783.555 86.6172C783.688 86.9609 783.754 87.3516 783.754 87.7891ZM795.578 95.8047H789.801V74.0312H795.578V75.6719H791.746V94.1641H795.578V95.8047ZM804.836 80.9219H801.355V79.2344H806.898V89.3008H810.402V91H800.969V89.3008H804.836V80.9219ZM805.551 74.3008C805.777 74.3008 805.988 74.3438 806.184 74.4297C806.379 74.5078 806.547 74.6211 806.688 74.7695C806.836 74.918 806.949 75.0898 807.027 75.2852C807.113 75.4727 807.156 75.6797 807.156 75.9062C807.156 76.125 807.113 76.332 807.027 76.5273C806.949 76.7227 806.836 76.8945 806.688 77.043C806.547 77.1914 806.379 77.3086 806.184 77.3945C805.988 77.4727 805.777 77.5117 805.551 77.5117C805.324 77.5117 805.113 77.4727 804.918 77.3945C804.723 77.3086 804.551 77.1914 804.402 77.043C804.262 76.8945 804.148 76.7227 804.062 76.5273C803.984 76.332 803.945 76.125 803.945 75.9062C803.945 75.6797 803.984 75.4727 804.062 75.2852C804.148 75.0898 804.262 74.918 804.402 74.7695C804.551 74.6211 804.723 74.5078 804.918 74.4297C805.113 74.3438 805.324 74.3008 805.551 74.3008ZM821.301 95.8047H815.523V94.1641H819.332V75.6719H815.523V74.0312H821.301V95.8047ZM851.312 79.2344L849.602 91H847.129L845.43 86.0781L845.09 84.8828L844.703 86.1484L843.074 91H840.672L838.973 79.2344H840.965L841.949 87.2266L842.16 89.0078L842.664 87.4492L844.375 82.1641H845.84L847.68 87.3789L848.207 88.9375L848.383 87.2852L849.297 79.2344H851.312ZM857.617 80.9219H854.137V79.2344H859.68V89.3008H863.184V91H853.75V89.3008H857.617V80.9219ZM858.332 74.3008C858.559 74.3008 858.77 74.3438 858.965 74.4297C859.16 74.5078 859.328 74.6211 859.469 74.7695C859.617 74.918 859.73 75.0898 859.809 75.2852C859.895 75.4727 859.938 75.6797 859.938 75.9062C859.938 76.125 859.895 76.332 859.809 76.5273C859.73 76.7227 859.617 76.8945 859.469 77.043C859.328 77.1914 859.16 77.3086 858.965 77.3945C858.77 77.4727 858.559 77.5117 858.332 77.5117C858.105 77.5117 857.895 77.4727 857.699 77.3945C857.504 77.3086 857.332 77.1914 857.184 77.043C857.043 76.8945 856.93 76.7227 856.844 76.5273C856.766 76.332 856.727 76.125 856.727 75.9062C856.727 75.6797 856.766 75.4727 856.844 75.2852C856.93 75.0898 857.043 74.918 857.184 74.7695C857.332 74.6211 857.504 74.5078 857.699 74.4297C857.895 74.3438 858.105 74.3008 858.332 74.3008ZM876.285 90.8359C875.824 90.9531 875.348 91.0352 874.855 91.082C874.363 91.1367 873.863 91.1641 873.355 91.1641C871.879 91.1641 870.777 90.832 870.051 90.168C869.324 89.4961 868.961 88.4688 868.961 87.0859V80.9453H865.668V79.2344H868.961V76L871 75.4727V79.2344H876.285V80.9453H871V86.9219C871 87.7656 871.223 88.3984 871.668 88.8203C872.121 89.2344 872.785 89.4414 873.66 89.4414C874.035 89.4414 874.445 89.4141 874.891 89.3594C875.336 89.2969 875.801 89.2031 876.285 89.0781V90.8359ZM889.457 91H887.418V83.4883C887.418 82.582 887.246 81.9062 886.902 81.4609C886.566 81.0078 886.082 80.7812 885.449 80.7812C885.176 80.7812 884.918 80.8203 884.676 80.8984C884.441 80.9688 884.195 81.0977 883.938 81.2852C883.68 81.4648 883.398 81.7109 883.094 82.0234C882.789 82.3359 882.438 82.7266 882.039 83.1953V91H880V74.4414H882.039V79.2344L881.969 81.0859C882.289 80.7031 882.602 80.3828 882.906 80.125C883.219 79.8594 883.527 79.6445 883.832 79.4805C884.145 79.3164 884.461 79.1992 884.781 79.1289C885.102 79.0586 885.434 79.0234 885.777 79.0234C886.949 79.0234 887.855 79.3828 888.496 80.1016C889.137 80.8125 889.457 81.8867 889.457 83.3242V91ZM914.781 91V82.5508C914.781 82.1836 914.766 81.8828 914.734 81.6484C914.711 81.4141 914.668 81.2305 914.605 81.0977C914.551 80.957 914.477 80.8594 914.383 80.8047C914.297 80.75 914.188 80.7227 914.055 80.7227C913.898 80.7227 913.754 80.7695 913.621 80.8633C913.488 80.957 913.344 81.1094 913.188 81.3203C913.039 81.5312 912.871 81.8125 912.684 82.1641C912.504 82.5078 912.289 82.9336 912.039 83.4414V91H910.176V82.7734C910.176 82.3438 910.16 81.9961 910.129 81.7305C910.105 81.4648 910.062 81.2578 910 81.1094C909.945 80.9609 909.871 80.8594 909.777 80.8047C909.684 80.75 909.57 80.7227 909.438 80.7227C909.297 80.7227 909.164 80.7617 909.039 80.8398C908.914 80.918 908.773 81.0586 908.617 81.2617C908.469 81.4648 908.301 81.7422 908.113 82.0938C907.926 82.4453 907.703 82.8945 907.445 83.4414V91H905.57V79.2344H907.129L907.223 81.4727C907.426 81.0273 907.621 80.6484 907.809 80.3359C908.004 80.0234 908.203 79.7734 908.406 79.5859C908.609 79.3906 908.824 79.25 909.051 79.1641C909.285 79.0703 909.543 79.0234 909.824 79.0234C910.457 79.0234 910.938 79.2305 911.266 79.6445C911.594 80.0586 911.758 80.6992 911.758 81.5664C911.945 81.1602 912.129 80.8008 912.309 80.4883C912.488 80.168 912.68 79.9023 912.883 79.6914C913.094 79.4727 913.324 79.3086 913.574 79.1992C913.824 79.082 914.113 79.0234 914.441 79.0234C915.918 79.0234 916.656 80.1602 916.656 82.4336V91H914.781ZM923.594 80.9219H920.113V79.2344H925.656V89.3008H929.16V91H919.727V89.3008H923.594V80.9219ZM924.309 74.3008C924.535 74.3008 924.746 74.3438 924.941 74.4297C925.137 74.5078 925.305 74.6211 925.445 74.7695C925.594 74.918 925.707 75.0898 925.785 75.2852C925.871 75.4727 925.914 75.6797 925.914 75.9062C925.914 76.125 925.871 76.332 925.785 76.5273C925.707 76.7227 925.594 76.8945 925.445 77.043C925.305 77.1914 925.137 77.3086 924.941 77.3945C924.746 77.4727 924.535 77.5117 924.309 77.5117C924.082 77.5117 923.871 77.4727 923.676 77.3945C923.48 77.3086 923.309 77.1914 923.16 77.043C923.02 76.8945 922.906 76.7227 922.82 76.5273C922.742 76.332 922.703 76.125 922.703 75.9062C922.703 75.6797 922.742 75.4727 922.82 75.2852C922.906 75.0898 923.02 74.918 923.16 74.7695C923.309 74.6211 923.48 74.5078 923.676 74.4297C923.871 74.3438 924.082 74.3008 924.309 74.3008ZM932.781 79.2344H934.598L934.68 81.1328C935.023 80.7266 935.355 80.3906 935.676 80.125C935.996 79.8516 936.309 79.6328 936.613 79.4688C936.926 79.3047 937.242 79.1914 937.562 79.1289C937.883 79.0586 938.215 79.0234 938.559 79.0234C939.77 79.0234 940.684 79.3828 941.301 80.1016C941.926 80.8125 942.238 81.8867 942.238 83.3242V91H940.199V83.4883C940.199 82.5664 940.027 81.8867 939.684 81.4492C939.34 81.0039 938.828 80.7812 938.148 80.7812C937.898 80.7812 937.652 80.8203 937.41 80.8984C937.176 80.9688 936.93 81.0977 936.672 81.2852C936.414 81.4648 936.133 81.7109 935.828 82.0234C935.531 82.3359 935.195 82.7266 934.82 83.1953V91H932.781V79.2344ZM953.02 95.9219C949.418 92.5859 947.617 88.8984 947.617 84.8594C947.617 83.9141 947.711 82.9727 947.898 82.0352C948.094 81.0898 948.402 80.1445 948.824 79.1992C949.254 78.2539 949.816 77.3086 950.512 76.3633C951.215 75.418 952.066 74.4805 953.066 73.5508L954.25 74.7578C951.219 77.75 949.703 81.0664 949.703 84.707C949.703 86.5195 950.086 88.2617 950.852 89.9336C951.617 91.6055 952.75 93.1836 954.25 94.668L953.02 95.9219ZM967.117 95.8047H961.34V74.0312H967.117V75.6719H963.285V94.1641H967.117V95.8047ZM981.918 86.1016C981.918 86.8594 981.754 87.5508 981.426 88.1758C981.098 88.8008 980.645 89.3398 980.066 89.793C979.496 90.2383 978.82 90.5859 978.039 90.8359C977.258 91.0859 976.414 91.2109 975.508 91.2109C975.281 91.2109 975.035 91.2031 974.77 91.1875C974.512 91.1797 974.254 91.1641 973.996 91.1406C973.738 91.125 973.484 91.1055 973.234 91.082C972.992 91.0586 972.773 91.0312 972.578 91V89.1484C973 89.25 973.48 89.3242 974.02 89.3711C974.566 89.418 975.117 89.4414 975.672 89.4414C976.297 89.4414 976.859 89.3672 977.359 89.2188C977.859 89.0703 978.285 88.8594 978.637 88.5859C978.988 88.3047 979.258 87.9688 979.445 87.5781C979.633 87.1797 979.727 86.7344 979.727 86.2422C979.727 85.2891 979.383 84.5977 978.695 84.168C978.016 83.7305 977.035 83.5117 975.754 83.5117H972.848V75.6836H981.098V77.4648H974.77V81.7656H976.105C976.84 81.7656 977.555 81.832 978.25 81.9648C978.945 82.0977 979.562 82.332 980.102 82.668C980.648 82.9961 981.086 83.4414 981.414 84.0039C981.75 84.5586 981.918 85.2578 981.918 86.1016ZM1021.76 91H1012.14V89.1016H1016.08V77.9219L1012.41 79.9141L1011.66 78.1797L1016.54 75.6133H1018.34V89.1016H1021.76V91ZM1061.39 82.4805C1061.39 83.9727 1061.21 85.2578 1060.86 86.3359C1060.5 87.4062 1059.96 88.2891 1059.26 88.9844C1058.56 89.6719 1057.69 90.1797 1056.65 90.5078C1055.61 90.8359 1054.41 91 1053.05 91H1051.77V89.2188H1053.19C1054.2 89.2188 1055.07 89.1172 1055.8 88.9141C1056.54 88.7109 1057.15 88.4141 1057.63 88.0234C1058.12 87.625 1058.5 87.1445 1058.76 86.582C1059.02 86.0117 1059.18 85.3633 1059.24 84.6367L1059.29 84.1562C1058.79 84.4453 1058.23 84.6797 1057.59 84.8594C1056.95 85.0312 1056.25 85.1172 1055.5 85.1172C1054.73 85.1172 1054.05 85.0039 1053.46 84.7773C1052.88 84.5508 1052.39 84.2344 1052 83.8281C1051.61 83.4219 1051.32 82.9414 1051.13 82.3867C1050.93 81.8242 1050.84 81.2148 1050.84 80.5586C1050.84 79.8477 1050.96 79.1836 1051.22 78.5664C1051.48 77.9492 1051.84 77.4141 1052.3 76.9609C1052.77 76.5 1053.33 76.1367 1053.98 75.8711C1054.62 75.6055 1055.34 75.4727 1056.12 75.4727C1056.88 75.4727 1057.58 75.5977 1058.22 75.8477C1058.87 76.0977 1059.43 76.5039 1059.89 77.0664C1060.36 77.6211 1060.73 78.3438 1061 79.2344C1061.26 80.125 1061.39 81.207 1061.39 82.4805ZM1056.03 77.1484C1055.59 77.1484 1055.18 77.2227 1054.81 77.3711C1054.44 77.5117 1054.12 77.7227 1053.85 78.0039C1053.58 78.2773 1053.37 78.6172 1053.21 79.0234C1053.06 79.4297 1052.98 79.8945 1052.98 80.418C1052.98 80.8945 1053.04 81.3203 1053.14 81.6953C1053.26 82.0703 1053.44 82.3906 1053.67 82.6562C1053.91 82.9141 1054.22 83.1133 1054.6 83.2539C1054.97 83.3945 1055.42 83.4648 1055.93 83.4648C1056.22 83.4648 1056.52 83.4375 1056.82 83.3828C1057.14 83.3281 1057.44 83.2539 1057.73 83.1602C1058.02 83.0664 1058.3 82.957 1058.57 82.832C1058.84 82.707 1059.07 82.5742 1059.29 82.4336C1059.29 81.4258 1059.21 80.5859 1059.06 79.9141C1058.91 79.2344 1058.7 78.6914 1058.42 78.2852C1058.14 77.8711 1057.79 77.5781 1057.39 77.4062C1056.99 77.2344 1056.54 77.1484 1056.03 77.1484ZM1072.01 95.8047H1066.23V94.1641H1070.04V75.6719H1066.23V74.0312H1072.01V95.8047ZM1080.33 73.5508C1083.93 76.8867 1085.73 80.5977 1085.73 84.6836C1085.73 85.5273 1085.65 86.4023 1085.48 87.3086C1085.3 88.2148 1085.01 89.1445 1084.6 90.0977C1084.18 91.043 1083.62 92.0039 1082.92 92.9805C1082.23 93.957 1081.35 94.9375 1080.29 95.9219L1079.1 94.7148C1080.62 93.207 1081.76 91.6328 1082.51 89.9922C1083.26 88.3516 1083.64 86.6328 1083.64 84.8359C1083.64 81.1172 1082.12 77.7734 1079.1 74.8047L1080.33 73.5508Z" fill="black"/>
<path d="M599.727 92.6025C600.158 92.6195 600.577 92.5814 600.983 92.4883C601.39 92.3952 601.745 92.2555 602.05 92.0693C602.363 91.8916 602.613 91.6673 602.799 91.3965C602.985 91.1257 603.078 90.8167 603.078 90.4697C603.078 90.1143 603.015 89.8265 602.888 89.6064C602.769 89.3864 602.634 89.1833 602.481 88.9971C602.329 88.8109 602.189 88.612 602.062 88.4004C601.944 88.1888 601.885 87.9053 601.885 87.5498C601.885 87.3721 601.919 87.1859 601.986 86.9912C602.054 86.7965 602.156 86.6188 602.291 86.458C602.435 86.2972 602.613 86.166 602.824 86.0645C603.044 85.9629 603.302 85.9121 603.599 85.9121C603.895 85.9121 604.178 85.9756 604.449 86.1025C604.729 86.221 604.97 86.4072 605.173 86.6611C605.384 86.915 605.549 87.2324 605.668 87.6133C605.795 87.9941 605.858 88.4427 605.858 88.959C605.858 89.6615 605.727 90.3343 605.465 90.9775C605.211 91.6292 604.826 92.2048 604.31 92.7041C603.802 93.2035 603.163 93.6012 602.393 93.8975C601.631 94.1937 600.742 94.3418 599.727 94.3418V92.6025Z" fill="black"/>
<rect opacity="0.2" x="245" y="152" width="150" height="39" rx="6" fill="#00B2FF"/>
<path d="M12.4951 179H9.46094L3.51953 172.17V179H1.31055V161.062H3.51953V172.081L9.24512 166.254H12.165L6.18555 172.132L12.4951 179ZM24.2383 173.122H16.6465V171.04H24.2383V173.122ZM39.7139 175.521C39.7139 175.97 39.6377 176.372 39.4854 176.728C39.333 177.083 39.1257 177.4 38.8633 177.68C38.6009 177.951 38.2962 178.183 37.9492 178.378C37.6022 178.573 37.2298 178.733 36.832 178.86C36.4427 178.987 36.0407 179.08 35.626 179.14C35.2113 179.199 34.805 179.229 34.4072 179.229C33.5439 179.229 32.7484 179.19 32.0205 179.114C31.3011 179.038 30.5944 178.915 29.9004 178.746V176.715C30.6452 176.926 31.3857 177.087 32.1221 177.197C32.8584 177.307 33.5905 177.362 34.3184 177.362C35.3763 177.362 36.1592 177.218 36.667 176.931C37.1748 176.643 37.4287 176.232 37.4287 175.699C37.4287 175.471 37.3864 175.268 37.3018 175.09C37.2256 174.904 37.0817 174.73 36.8701 174.569C36.6585 174.4 36.3285 174.227 35.8799 174.049C35.4398 173.871 34.8346 173.668 34.0645 173.439C33.4889 173.27 32.9557 173.08 32.4648 172.868C31.9824 172.648 31.5635 172.39 31.208 172.094C30.8525 171.798 30.5732 171.451 30.3701 171.053C30.167 170.655 30.0654 170.185 30.0654 169.644C30.0654 169.288 30.1458 168.899 30.3066 168.476C30.4759 168.052 30.7594 167.659 31.1572 167.295C31.555 166.931 32.0924 166.631 32.7695 166.394C33.4466 166.148 34.293 166.025 35.3086 166.025C35.8079 166.025 36.3623 166.055 36.9717 166.114C37.5811 166.165 38.2158 166.258 38.876 166.394V168.361C38.182 168.192 37.5218 168.069 36.8955 167.993C36.2777 167.909 35.7402 167.866 35.2832 167.866C34.7331 167.866 34.2676 167.909 33.8867 167.993C33.5143 168.078 33.2096 168.196 32.9727 168.349C32.7441 168.493 32.5791 168.666 32.4775 168.869C32.376 169.064 32.3252 169.275 32.3252 169.504C32.3252 169.732 32.3675 169.94 32.4521 170.126C32.5452 170.312 32.7103 170.494 32.9473 170.672C33.1927 170.841 33.5312 171.015 33.9629 171.192C34.3945 171.362 34.9574 171.548 35.6514 171.751C36.4046 171.971 37.0394 172.204 37.5557 172.449C38.0719 172.686 38.4909 172.953 38.8125 173.249C39.1341 173.545 39.3626 173.88 39.498 174.252C39.6419 174.624 39.7139 175.048 39.7139 175.521ZM55.0117 172.525C55.0117 173.516 54.8721 174.425 54.5928 175.255C54.3135 176.076 53.9115 176.783 53.3867 177.375C52.862 177.959 52.223 178.416 51.4697 178.746C50.7165 179.068 49.8617 179.229 48.9053 179.229C47.9912 179.229 47.1702 179.089 46.4424 178.81C45.723 178.522 45.1094 178.103 44.6016 177.553C44.1022 177.003 43.7171 176.321 43.4463 175.509C43.1839 174.696 43.0527 173.761 43.0527 172.703C43.0527 171.713 43.1924 170.812 43.4717 169.999C43.751 169.178 44.153 168.476 44.6777 167.892C45.2025 167.299 45.8415 166.842 46.5947 166.521C47.348 166.19 48.2028 166.025 49.1592 166.025C50.0732 166.025 50.89 166.169 51.6094 166.457C52.3372 166.736 52.9508 167.151 53.4502 167.701C53.958 168.243 54.3431 168.92 54.6055 169.732C54.8763 170.545 55.0117 171.476 55.0117 172.525ZM52.752 172.627C52.752 171.84 52.6631 171.154 52.4854 170.57C52.3161 169.978 52.0706 169.487 51.749 169.098C51.4274 168.7 51.0339 168.404 50.5684 168.209C50.1113 168.006 49.5993 167.904 49.0322 167.904C48.3721 167.904 47.805 168.035 47.3311 168.298C46.8656 168.552 46.4805 168.895 46.1758 169.326C45.8796 169.758 45.6595 170.261 45.5156 170.837C45.3802 171.404 45.3125 172.001 45.3125 172.627C45.3125 173.414 45.3971 174.104 45.5664 174.696C45.7441 175.289 45.9938 175.784 46.3154 176.182C46.637 176.571 47.0264 176.867 47.4834 177.07C47.9404 177.265 48.4567 177.362 49.0322 177.362C49.6924 177.362 50.2552 177.235 50.7207 176.981C51.1947 176.719 51.5798 176.372 51.876 175.94C52.1807 175.509 52.4007 175.009 52.5361 174.442C52.68 173.867 52.752 173.262 52.752 172.627ZM58.7314 166.254H60.75L60.8135 168.603C61.5667 167.697 62.3073 167.041 63.0352 166.635C63.7715 166.229 64.512 166.025 65.2568 166.025C66.5771 166.025 67.5758 166.453 68.2529 167.308C68.9385 168.162 69.2559 169.432 69.2051 171.116H66.9707C66.9961 169.999 66.8311 169.191 66.4756 168.691C66.1286 168.184 65.6165 167.93 64.9395 167.93C64.6432 167.93 64.3428 167.985 64.0381 168.095C63.7419 168.196 63.4329 168.366 63.1113 168.603C62.7982 168.831 62.4639 169.127 62.1084 169.491C61.7529 169.855 61.3721 170.295 60.9658 170.812V179H58.7314V166.254ZM82.7764 178.822C82.277 178.949 81.7607 179.038 81.2275 179.089C80.6943 179.148 80.1527 179.178 79.6025 179.178C78.0029 179.178 76.8096 178.818 76.0225 178.099C75.2354 177.371 74.8418 176.258 74.8418 174.76V168.107H71.2744V166.254H74.8418V162.75L77.0508 162.179V166.254H82.7764V168.107H77.0508V174.582C77.0508 175.496 77.292 176.182 77.7744 176.639C78.2653 177.087 78.9847 177.312 79.9326 177.312C80.3389 177.312 80.7832 177.282 81.2656 177.223C81.748 177.155 82.2516 177.053 82.7764 176.918V178.822ZM97.5664 171.954C97.5664 172.267 97.5622 172.53 97.5537 172.741C97.5452 172.953 97.5326 173.152 97.5156 173.338H88.5654C88.5654 174.641 88.9294 175.644 89.6572 176.347C90.3851 177.041 91.4346 177.388 92.8057 177.388C93.1781 177.388 93.5505 177.375 93.9229 177.35C94.2952 177.316 94.6549 177.273 95.002 177.223C95.349 177.172 95.679 177.117 95.9922 177.058C96.3138 176.99 96.61 176.918 96.8809 176.842V178.657C96.2799 178.826 95.5986 178.962 94.8369 179.063C94.0837 179.174 93.3008 179.229 92.4883 179.229C91.3965 179.229 90.457 179.08 89.6699 178.784C88.8828 178.488 88.2354 178.061 87.7275 177.502C87.2282 176.935 86.8558 176.245 86.6104 175.433C86.3734 174.612 86.2549 173.685 86.2549 172.652C86.2549 171.755 86.3818 170.909 86.6357 170.113C86.8981 169.309 87.2747 168.607 87.7656 168.006C88.265 167.396 88.8743 166.914 89.5938 166.559C90.3132 166.203 91.1299 166.025 92.0439 166.025C92.9326 166.025 93.7197 166.165 94.4053 166.444C95.0908 166.724 95.6663 167.121 96.1318 167.638C96.6058 168.146 96.9613 168.768 97.1982 169.504C97.4437 170.232 97.5664 171.049 97.5664 171.954ZM95.2686 171.637C95.2939 171.07 95.2389 170.553 95.1035 170.088C94.9681 169.614 94.7565 169.208 94.4688 168.869C94.1895 168.531 93.8382 168.268 93.415 168.082C92.9919 167.887 92.501 167.79 91.9424 167.79C91.46 167.79 91.0199 167.883 90.6221 168.069C90.2243 168.256 89.8815 168.518 89.5938 168.856C89.306 169.195 89.0732 169.601 88.8955 170.075C88.7178 170.549 88.6077 171.07 88.5654 171.637H95.2686ZM100.448 172.894C100.448 171.81 100.596 170.85 100.893 170.012C101.189 169.165 101.608 168.454 102.149 167.879C102.7 167.295 103.355 166.855 104.117 166.559C104.887 166.254 105.742 166.102 106.682 166.102C107.088 166.102 107.486 166.127 107.875 166.178C108.273 166.229 108.662 166.309 109.043 166.419V161.062H111.265V179H109.284L109.208 176.588C108.59 177.485 107.922 178.149 107.202 178.581C106.483 179.013 105.704 179.229 104.866 179.229C104.138 179.229 103.495 179.076 102.937 178.771C102.386 178.467 101.925 178.039 101.553 177.489C101.189 176.931 100.914 176.262 100.728 175.483C100.541 174.705 100.448 173.841 100.448 172.894ZM102.708 172.754C102.708 174.294 102.932 175.445 103.381 176.207C103.838 176.96 104.481 177.337 105.311 177.337C105.869 177.337 106.457 177.087 107.075 176.588C107.701 176.089 108.357 175.348 109.043 174.366V168.45C108.679 168.281 108.277 168.154 107.837 168.069C107.397 167.976 106.961 167.93 106.529 167.93C105.327 167.93 104.388 168.319 103.711 169.098C103.042 169.876 102.708 171.095 102.708 172.754ZM137.874 179L137.823 177.286C137.129 177.972 136.423 178.467 135.703 178.771C134.992 179.076 134.243 179.229 133.456 179.229C132.728 179.229 132.106 179.135 131.59 178.949C131.074 178.763 130.646 178.509 130.308 178.188C129.978 177.857 129.732 177.472 129.571 177.032C129.419 176.592 129.343 176.114 129.343 175.598C129.343 174.32 129.817 173.321 130.765 172.602C131.721 171.874 133.13 171.51 134.992 171.51H137.633V170.393C137.633 169.639 137.392 169.038 136.909 168.59C136.427 168.133 135.69 167.904 134.7 167.904C133.981 167.904 133.27 167.985 132.567 168.146C131.873 168.306 131.154 168.535 130.409 168.831V166.838C130.688 166.736 130.997 166.639 131.336 166.546C131.683 166.444 132.047 166.355 132.428 166.279C132.809 166.203 133.206 166.144 133.621 166.102C134.036 166.051 134.455 166.025 134.878 166.025C135.648 166.025 136.342 166.11 136.96 166.279C137.578 166.449 138.098 166.707 138.521 167.054C138.953 167.401 139.283 167.837 139.512 168.361C139.74 168.886 139.854 169.504 139.854 170.215V179H137.874ZM137.633 173.198H134.827C134.277 173.198 133.803 173.253 133.405 173.363C133.007 173.473 132.682 173.63 132.428 173.833C132.174 174.036 131.983 174.282 131.856 174.569C131.738 174.849 131.679 175.166 131.679 175.521C131.679 175.767 131.717 176.004 131.793 176.232C131.869 176.452 131.992 176.651 132.161 176.829C132.33 176.998 132.55 177.134 132.821 177.235C133.092 177.337 133.422 177.388 133.812 177.388C134.319 177.388 134.899 177.235 135.551 176.931C136.211 176.618 136.905 176.127 137.633 175.458V173.198ZM144.501 166.254H146.52L146.583 168.603C147.336 167.697 148.077 167.041 148.805 166.635C149.541 166.229 150.282 166.025 151.026 166.025C152.347 166.025 153.345 166.453 154.022 167.308C154.708 168.162 155.025 169.432 154.975 171.116H152.74C152.766 169.999 152.601 169.191 152.245 168.691C151.898 168.184 151.386 167.93 150.709 167.93C150.413 167.93 150.112 167.985 149.808 168.095C149.511 168.196 149.202 168.366 148.881 168.603C148.568 168.831 148.233 169.127 147.878 169.491C147.522 169.855 147.142 170.295 146.735 170.812V179H144.501V166.254ZM158.796 166.254H160.814L160.878 168.603C161.631 167.697 162.372 167.041 163.1 166.635C163.836 166.229 164.576 166.025 165.321 166.025C166.642 166.025 167.64 166.453 168.317 167.308C169.003 168.162 169.32 169.432 169.27 171.116H167.035C167.061 169.999 166.896 169.191 166.54 168.691C166.193 168.184 165.681 167.93 165.004 167.93C164.708 167.93 164.407 167.985 164.103 168.095C163.806 168.196 163.497 168.366 163.176 168.603C162.863 168.831 162.528 169.127 162.173 169.491C161.817 169.855 161.437 170.295 161.03 170.812V179H158.796V166.254ZM180.759 179L180.708 177.286C180.014 177.972 179.307 178.467 178.588 178.771C177.877 179.076 177.128 179.229 176.341 179.229C175.613 179.229 174.991 179.135 174.475 178.949C173.958 178.763 173.531 178.509 173.192 178.188C172.862 177.857 172.617 177.472 172.456 177.032C172.304 176.592 172.228 176.114 172.228 175.598C172.228 174.32 172.701 173.321 173.649 172.602C174.606 171.874 176.015 171.51 177.877 171.51H180.518V170.393C180.518 169.639 180.276 169.038 179.794 168.59C179.312 168.133 178.575 167.904 177.585 167.904C176.866 167.904 176.155 167.985 175.452 168.146C174.758 168.306 174.039 168.535 173.294 168.831V166.838C173.573 166.736 173.882 166.639 174.221 166.546C174.568 166.444 174.932 166.355 175.312 166.279C175.693 166.203 176.091 166.144 176.506 166.102C176.921 166.051 177.34 166.025 177.763 166.025C178.533 166.025 179.227 166.11 179.845 166.279C180.463 166.449 180.983 166.707 181.406 167.054C181.838 167.401 182.168 167.837 182.396 168.361C182.625 168.886 182.739 169.504 182.739 170.215V179H180.759ZM180.518 173.198H177.712C177.162 173.198 176.688 173.253 176.29 173.363C175.892 173.473 175.566 173.63 175.312 173.833C175.059 174.036 174.868 174.282 174.741 174.569C174.623 174.849 174.563 175.166 174.563 175.521C174.563 175.767 174.602 176.004 174.678 176.232C174.754 176.452 174.877 176.651 175.046 176.829C175.215 176.998 175.435 177.134 175.706 177.235C175.977 177.337 176.307 177.388 176.696 177.388C177.204 177.388 177.784 177.235 178.436 176.931C179.096 176.618 179.79 176.127 180.518 175.458V173.198ZM198.202 166.254L193.86 177.654C193.412 178.814 192.946 179.812 192.464 180.65C191.99 181.488 191.469 182.174 190.902 182.707C190.335 183.249 189.713 183.646 189.036 183.9C188.359 184.154 187.602 184.281 186.764 184.281C186.544 184.281 186.345 184.277 186.167 184.269C185.989 184.26 185.795 184.247 185.583 184.23V182.225C185.769 182.25 185.972 182.271 186.192 182.288C186.412 182.313 186.645 182.326 186.891 182.326C187.297 182.326 187.674 182.267 188.021 182.148C188.376 182.03 188.71 181.835 189.023 181.564C189.337 181.302 189.637 180.959 189.925 180.536C190.213 180.113 190.492 179.601 190.763 179L185.672 166.254H188.186L191.41 174.684L192.058 176.664L192.794 174.633L195.777 166.254H198.202ZM206.276 166.025C206.539 166.025 206.788 166.08 207.025 166.19C207.262 166.292 207.47 166.432 207.647 166.609C207.825 166.787 207.965 166.994 208.066 167.231C208.176 167.468 208.231 167.718 208.231 167.98C208.231 168.251 208.176 168.505 208.066 168.742C207.965 168.971 207.825 169.174 207.647 169.352C207.47 169.529 207.262 169.669 207.025 169.771C206.788 169.872 206.539 169.923 206.276 169.923C206.006 169.923 205.752 169.872 205.515 169.771C205.286 169.669 205.083 169.529 204.905 169.352C204.728 169.174 204.588 168.971 204.486 168.742C204.385 168.505 204.334 168.251 204.334 167.98C204.334 167.718 204.385 167.468 204.486 167.231C204.588 166.994 204.728 166.787 204.905 166.609C205.083 166.432 205.286 166.292 205.515 166.19C205.752 166.08 206.006 166.025 206.276 166.025ZM206.276 175.331C206.539 175.331 206.788 175.386 207.025 175.496C207.262 175.598 207.47 175.737 207.647 175.915C207.825 176.093 207.965 176.3 208.066 176.537C208.176 176.774 208.231 177.024 208.231 177.286C208.231 177.557 208.176 177.811 208.066 178.048C207.965 178.276 207.825 178.479 207.647 178.657C207.47 178.835 207.262 178.975 207.025 179.076C206.788 179.178 206.539 179.229 206.276 179.229C206.006 179.229 205.752 179.178 205.515 179.076C205.286 178.975 205.083 178.835 204.905 178.657C204.728 178.479 204.588 178.276 204.486 178.048C204.385 177.811 204.334 177.557 204.334 177.286C204.334 177.024 204.385 176.774 204.486 176.537C204.588 176.3 204.728 176.093 204.905 175.915C205.083 175.737 205.286 175.598 205.515 175.496C205.752 175.386 206.006 175.331 206.276 175.331ZM238.357 184.205H232.099V160.617H238.357V162.395H234.206V182.428H238.357V184.205ZM268.966 179H258.543V176.943H262.809V164.832L258.835 166.99L258.022 165.111L263.304 162.331H265.259V176.943H268.966V179ZM325.866 173.693C325.866 174.514 325.688 175.263 325.333 175.94C324.978 176.618 324.487 177.201 323.86 177.692C323.243 178.175 322.51 178.551 321.664 178.822C320.818 179.093 319.904 179.229 318.922 179.229C318.676 179.229 318.41 179.22 318.122 179.203C317.843 179.195 317.563 179.178 317.284 179.152C317.005 179.135 316.73 179.114 316.459 179.089C316.197 179.063 315.96 179.034 315.748 179V176.994C316.205 177.104 316.726 177.185 317.31 177.235C317.902 177.286 318.499 177.312 319.1 177.312C319.777 177.312 320.386 177.231 320.928 177.07C321.469 176.91 321.931 176.681 322.312 176.385C322.692 176.08 322.984 175.716 323.188 175.293C323.391 174.861 323.492 174.379 323.492 173.846C323.492 172.813 323.12 172.064 322.375 171.599C321.639 171.125 320.576 170.888 319.188 170.888H316.04V162.407H324.978V164.337H318.122V168.996H319.569C320.365 168.996 321.139 169.068 321.893 169.212C322.646 169.356 323.314 169.61 323.898 169.974C324.491 170.329 324.965 170.812 325.32 171.421C325.684 172.022 325.866 172.779 325.866 173.693ZM383.376 169.771C383.376 171.387 383.181 172.779 382.792 173.947C382.403 175.107 381.827 176.063 381.065 176.816C380.304 177.561 379.36 178.111 378.234 178.467C377.109 178.822 375.81 179 374.337 179H372.953V177.07H374.489C375.581 177.07 376.525 176.96 377.32 176.74C378.116 176.52 378.776 176.199 379.301 175.775C379.834 175.344 380.24 174.823 380.52 174.214C380.799 173.596 380.972 172.894 381.04 172.106L381.091 171.586C380.558 171.899 379.944 172.153 379.25 172.348C378.556 172.534 377.803 172.627 376.99 172.627C376.152 172.627 375.416 172.504 374.781 172.259C374.146 172.013 373.618 171.671 373.194 171.23C372.78 170.79 372.466 170.27 372.255 169.669C372.043 169.06 371.938 168.399 371.938 167.688C371.938 166.918 372.077 166.199 372.356 165.53C372.636 164.862 373.025 164.282 373.524 163.791C374.032 163.292 374.637 162.898 375.34 162.61C376.042 162.323 376.817 162.179 377.663 162.179C378.484 162.179 379.242 162.314 379.936 162.585C380.638 162.856 381.243 163.296 381.751 163.905C382.259 164.506 382.657 165.289 382.944 166.254C383.232 167.219 383.376 168.391 383.376 169.771ZM377.562 163.994C377.088 163.994 376.647 164.075 376.241 164.235C375.843 164.388 375.496 164.616 375.2 164.921C374.912 165.217 374.684 165.585 374.515 166.025C374.345 166.465 374.261 166.969 374.261 167.536C374.261 168.052 374.32 168.514 374.438 168.92C374.565 169.326 374.756 169.673 375.01 169.961C375.272 170.24 375.606 170.456 376.013 170.608C376.419 170.761 376.901 170.837 377.46 170.837C377.773 170.837 378.095 170.807 378.425 170.748C378.763 170.689 379.089 170.608 379.402 170.507C379.724 170.405 380.029 170.287 380.316 170.151C380.604 170.016 380.862 169.872 381.091 169.72C381.091 168.628 381.01 167.718 380.85 166.99C380.689 166.254 380.456 165.666 380.151 165.226C379.847 164.777 379.474 164.46 379.034 164.273C378.603 164.087 378.112 163.994 377.562 163.994ZM441.47 175.331H438.639V179H436.379V175.331H428.394V173.389L435.465 162.407H438.639V173.389H441.47V175.331ZM436.379 164.54L430.603 173.389H436.379V164.54ZM497.735 164.464L490.778 179H488.252L495.476 164.464H486.513V162.407H497.735V164.464ZM550.444 179H540.021V176.943H544.287V164.832L540.313 166.99L539.501 165.111L544.782 162.331H546.737V176.943H550.444V179ZM565.26 170.71C565.26 171.979 565.133 173.139 564.879 174.188C564.625 175.229 564.24 176.127 563.724 176.88C563.207 177.625 562.564 178.204 561.794 178.619C561.032 179.025 560.135 179.229 559.102 179.229C558.214 179.229 557.406 179.063 556.678 178.733C555.95 178.395 555.328 177.879 554.811 177.185C554.295 176.491 553.897 175.606 553.618 174.531C553.339 173.456 553.199 172.183 553.199 170.71C553.199 169.44 553.326 168.281 553.58 167.231C553.842 166.182 554.227 165.285 554.735 164.54C555.252 163.787 555.895 163.207 556.665 162.801C557.435 162.386 558.332 162.179 559.356 162.179C560.245 162.179 561.053 162.348 561.781 162.687C562.509 163.017 563.131 163.533 563.647 164.235C564.164 164.929 564.561 165.814 564.841 166.889C565.12 167.964 565.26 169.237 565.26 170.71ZM563.025 170.786C563.025 170.498 563.013 170.215 562.987 169.936C562.97 169.648 562.949 169.368 562.924 169.098L555.903 174.315C556.03 174.756 556.191 175.162 556.386 175.534C556.58 175.907 556.813 176.228 557.084 176.499C557.363 176.761 557.676 176.969 558.023 177.121C558.379 177.265 558.781 177.337 559.229 177.337C559.805 177.337 560.325 177.197 560.791 176.918C561.265 176.639 561.667 176.224 561.997 175.674C562.327 175.124 562.581 174.442 562.759 173.63C562.936 172.809 563.025 171.861 563.025 170.786ZM555.434 170.634C555.434 170.896 555.434 171.159 555.434 171.421C555.442 171.683 555.459 171.937 555.484 172.183L562.505 166.99C562.378 166.559 562.217 166.165 562.022 165.81C561.828 165.454 561.595 165.149 561.324 164.896C561.053 164.633 560.744 164.43 560.397 164.286C560.05 164.142 559.661 164.07 559.229 164.07C558.654 164.07 558.129 164.21 557.655 164.489C557.19 164.769 556.792 165.188 556.462 165.746C556.132 166.296 555.878 166.982 555.7 167.803C555.522 168.615 555.434 169.559 555.434 170.634ZM590.587 184.205H584.328V182.428H588.454V162.395H584.328V160.617H590.587V184.205Z" fill="black"/>
<path opacity="0.5" d="M254.592 223.521C254.592 223.97 254.516 224.372 254.363 224.728C254.211 225.083 254.004 225.4 253.741 225.68C253.479 225.951 253.174 226.183 252.827 226.378C252.48 226.573 252.108 226.733 251.71 226.86C251.321 226.987 250.919 227.08 250.504 227.14C250.089 227.199 249.683 227.229 249.285 227.229C248.422 227.229 247.626 227.19 246.898 227.114C246.179 227.038 245.472 226.915 244.778 226.746V224.715C245.523 224.926 246.264 225.087 247 225.197C247.736 225.307 248.468 225.362 249.196 225.362C250.254 225.362 251.037 225.218 251.545 224.931C252.053 224.643 252.307 224.232 252.307 223.699C252.307 223.471 252.264 223.268 252.18 223.09C252.104 222.904 251.96 222.73 251.748 222.569C251.536 222.4 251.206 222.227 250.758 222.049C250.318 221.871 249.713 221.668 248.942 221.439C248.367 221.27 247.834 221.08 247.343 220.868C246.86 220.648 246.441 220.39 246.086 220.094C245.73 219.798 245.451 219.451 245.248 219.053C245.045 218.655 244.943 218.185 244.943 217.644C244.943 217.288 245.024 216.899 245.185 216.476C245.354 216.052 245.637 215.659 246.035 215.295C246.433 214.931 246.97 214.631 247.647 214.394C248.325 214.148 249.171 214.025 250.187 214.025C250.686 214.025 251.24 214.055 251.85 214.114C252.459 214.165 253.094 214.258 253.754 214.394V216.361C253.06 216.192 252.4 216.069 251.773 215.993C251.156 215.909 250.618 215.866 250.161 215.866C249.611 215.866 249.146 215.909 248.765 215.993C248.392 216.078 248.088 216.196 247.851 216.349C247.622 216.493 247.457 216.666 247.355 216.869C247.254 217.064 247.203 217.275 247.203 217.504C247.203 217.732 247.245 217.94 247.33 218.126C247.423 218.312 247.588 218.494 247.825 218.672C248.071 218.841 248.409 219.015 248.841 219.192C249.272 219.362 249.835 219.548 250.529 219.751C251.283 219.971 251.917 220.204 252.434 220.449C252.95 220.686 253.369 220.953 253.69 221.249C254.012 221.545 254.241 221.88 254.376 222.252C254.52 222.624 254.592 223.048 254.592 223.521ZM270.601 214.254L268.747 227H266.068L264.228 221.668L263.859 220.373L263.44 221.744L261.676 227H259.073L257.232 214.254H259.391L260.457 222.912L260.686 224.842L261.231 223.153L263.085 217.428H264.672L266.665 223.077L267.236 224.766L267.427 222.976L268.417 214.254H270.601ZM281.277 227L281.227 225.286C280.533 225.972 279.826 226.467 279.106 226.771C278.396 227.076 277.646 227.229 276.859 227.229C276.132 227.229 275.509 227.135 274.993 226.949C274.477 226.763 274.049 226.509 273.711 226.188C273.381 225.857 273.135 225.472 272.975 225.032C272.822 224.592 272.746 224.114 272.746 223.598C272.746 222.32 273.22 221.321 274.168 220.602C275.124 219.874 276.534 219.51 278.396 219.51H281.036V218.393C281.036 217.639 280.795 217.038 280.312 216.59C279.83 216.133 279.094 215.904 278.104 215.904C277.384 215.904 276.673 215.985 275.971 216.146C275.277 216.306 274.557 216.535 273.812 216.831V214.838C274.092 214.736 274.401 214.639 274.739 214.546C275.086 214.444 275.45 214.355 275.831 214.279C276.212 214.203 276.61 214.144 277.024 214.102C277.439 214.051 277.858 214.025 278.281 214.025C279.051 214.025 279.745 214.11 280.363 214.279C280.981 214.449 281.502 214.707 281.925 215.054C282.356 215.401 282.687 215.837 282.915 216.361C283.144 216.886 283.258 217.504 283.258 218.215V227H281.277ZM281.036 221.198H278.23C277.68 221.198 277.206 221.253 276.809 221.363C276.411 221.473 276.085 221.63 275.831 221.833C275.577 222.036 275.387 222.282 275.26 222.569C275.141 222.849 275.082 223.166 275.082 223.521C275.082 223.767 275.12 224.004 275.196 224.232C275.272 224.452 275.395 224.651 275.564 224.829C275.734 224.998 275.954 225.134 276.225 225.235C276.495 225.337 276.826 225.388 277.215 225.388C277.723 225.388 278.302 225.235 278.954 224.931C279.614 224.618 280.308 224.127 281.036 223.458V221.198ZM298.276 220.398C298.276 221.533 298.116 222.523 297.794 223.369C297.481 224.215 297.045 224.918 296.486 225.477C295.928 226.035 295.268 226.454 294.506 226.733C293.744 227.013 292.919 227.152 292.03 227.152C291.624 227.152 291.218 227.131 290.812 227.089C290.414 227.047 290.007 226.975 289.593 226.873V232.205H287.384V214.254H289.352L289.491 216.387C290.126 215.515 290.803 214.906 291.522 214.559C292.242 214.203 293.021 214.025 293.858 214.025C294.586 214.025 295.225 214.178 295.775 214.482C296.326 214.787 296.787 215.219 297.159 215.777C297.532 216.327 297.811 216.996 297.997 217.783C298.183 218.562 298.276 219.434 298.276 220.398ZM296.017 220.5C296.017 219.831 295.966 219.218 295.864 218.659C295.771 218.101 295.619 217.622 295.407 217.225C295.196 216.827 294.925 216.518 294.595 216.298C294.265 216.069 293.871 215.955 293.414 215.955C293.135 215.955 292.851 216.002 292.563 216.095C292.276 216.179 291.975 216.327 291.662 216.539C291.357 216.742 291.032 217.017 290.685 217.364C290.346 217.703 289.982 218.126 289.593 218.634V224.816C289.999 224.986 290.426 225.121 290.875 225.223C291.324 225.316 291.764 225.362 292.195 225.362C293.389 225.362 294.324 224.96 295.001 224.156C295.678 223.344 296.017 222.125 296.017 220.5ZM312.571 220.398C312.571 221.533 312.41 222.523 312.089 223.369C311.776 224.215 311.34 224.918 310.781 225.477C310.223 226.035 309.562 226.454 308.801 226.733C308.039 227.013 307.214 227.152 306.325 227.152C305.919 227.152 305.513 227.131 305.106 227.089C304.709 227.047 304.302 226.975 303.888 226.873V232.205H301.679V214.254H303.646L303.786 216.387C304.421 215.515 305.098 214.906 305.817 214.559C306.537 214.203 307.315 214.025 308.153 214.025C308.881 214.025 309.52 214.178 310.07 214.482C310.62 214.787 311.082 215.219 311.454 215.777C311.826 216.327 312.106 216.996 312.292 217.783C312.478 218.562 312.571 219.434 312.571 220.398ZM310.312 220.5C310.312 219.831 310.261 219.218 310.159 218.659C310.066 218.101 309.914 217.622 309.702 217.225C309.491 216.827 309.22 216.518 308.89 216.298C308.56 216.069 308.166 215.955 307.709 215.955C307.43 215.955 307.146 216.002 306.858 216.095C306.571 216.179 306.27 216.327 305.957 216.539C305.652 216.742 305.326 217.017 304.979 217.364C304.641 217.703 304.277 218.126 303.888 218.634V224.816C304.294 224.986 304.721 225.121 305.17 225.223C305.618 225.316 306.059 225.362 306.49 225.362C307.684 225.362 308.619 224.96 309.296 224.156C309.973 223.344 310.312 222.125 310.312 220.5ZM326.739 219.954C326.739 220.267 326.735 220.53 326.727 220.741C326.718 220.953 326.705 221.152 326.688 221.338H317.738C317.738 222.641 318.102 223.644 318.83 224.347C319.558 225.041 320.607 225.388 321.979 225.388C322.351 225.388 322.723 225.375 323.096 225.35C323.468 225.316 323.828 225.273 324.175 225.223C324.522 225.172 324.852 225.117 325.165 225.058C325.487 224.99 325.783 224.918 326.054 224.842V226.657C325.453 226.826 324.771 226.962 324.01 227.063C323.257 227.174 322.474 227.229 321.661 227.229C320.569 227.229 319.63 227.08 318.843 226.784C318.056 226.488 317.408 226.061 316.9 225.502C316.401 224.935 316.029 224.245 315.783 223.433C315.546 222.612 315.428 221.685 315.428 220.652C315.428 219.755 315.555 218.909 315.809 218.113C316.071 217.309 316.448 216.607 316.938 216.006C317.438 215.396 318.047 214.914 318.767 214.559C319.486 214.203 320.303 214.025 321.217 214.025C322.105 214.025 322.893 214.165 323.578 214.444C324.264 214.724 324.839 215.121 325.305 215.638C325.779 216.146 326.134 216.768 326.371 217.504C326.617 218.232 326.739 219.049 326.739 219.954ZM324.441 219.637C324.467 219.07 324.412 218.553 324.276 218.088C324.141 217.614 323.929 217.208 323.642 216.869C323.362 216.531 323.011 216.268 322.588 216.082C322.165 215.887 321.674 215.79 321.115 215.79C320.633 215.79 320.193 215.883 319.795 216.069C319.397 216.256 319.054 216.518 318.767 216.856C318.479 217.195 318.246 217.601 318.068 218.075C317.891 218.549 317.781 219.07 317.738 219.637H324.441ZM329.621 220.894C329.621 219.81 329.769 218.85 330.065 218.012C330.362 217.165 330.781 216.454 331.322 215.879C331.872 215.295 332.528 214.855 333.29 214.559C334.06 214.254 334.915 214.102 335.854 214.102C336.261 214.102 336.659 214.127 337.048 214.178C337.446 214.229 337.835 214.309 338.216 214.419V209.062H340.438V227H338.457L338.381 224.588C337.763 225.485 337.094 226.149 336.375 226.581C335.656 227.013 334.877 227.229 334.039 227.229C333.311 227.229 332.668 227.076 332.109 226.771C331.559 226.467 331.098 226.039 330.726 225.489C330.362 224.931 330.087 224.262 329.9 223.483C329.714 222.705 329.621 221.841 329.621 220.894ZM331.881 220.754C331.881 222.294 332.105 223.445 332.554 224.207C333.011 224.96 333.654 225.337 334.483 225.337C335.042 225.337 335.63 225.087 336.248 224.588C336.874 224.089 337.53 223.348 338.216 222.366V216.45C337.852 216.281 337.45 216.154 337.01 216.069C336.57 215.976 336.134 215.93 335.702 215.93C334.5 215.93 333.561 216.319 332.884 217.098C332.215 217.876 331.881 219.095 331.881 220.754Z" fill="black"/>
<path d="M318.999 196.968C318.982 196.416 318.52 195.983 317.968 196.001L308.972 196.29C308.42 196.308 307.987 196.77 308.005 197.322C308.023 197.874 308.485 198.307 309.037 198.289L317.033 198.032L317.29 206.028C317.308 206.58 317.77 207.013 318.322 206.995C318.874 206.977 319.307 206.515 319.289 205.963L318.999 196.968ZM263.032 196.001C262.48 195.983 262.018 196.416 262.001 196.968L261.711 205.963C261.693 206.515 262.126 206.977 262.678 206.995C263.23 207.013 263.692 206.58 263.71 206.028L263.967 198.032L271.963 198.289C272.515 198.307 272.977 197.874 272.995 197.322C273.013 196.77 272.58 196.308 272.028 196.29L263.032 196.001ZM317.27 196.316C310.507 203.53 300.425 207.06 290.331 206.999C280.235 206.938 270.264 203.286 263.73 196.316L262.27 197.684C269.253 205.131 279.79 208.936 290.319 208.999C300.85 209.063 311.51 205.384 318.73 197.684L317.27 196.316Z" fill="black" fill-opacity="0.5"/>
</g>
<defs>
<clipPath id="clip0_6288_2522">
<rect width="1104" height="233" fill="white"/>
</clipPath>
</defs>
</svg>
