<svg width="1236" height="145" viewBox="0 0 1236 145" fill="none" xmlns="http://www.w3.org/2000/svg">
<rect width="1236" height="145" fill="white"/>
<rect x="1" y="55" width="69" height="28" rx="6" fill="#FFF4EF" stroke="#FF5500" stroke-width="2"/>
<rect x="89" y="55" width="69" height="28" rx="6" fill="#FFF4EF" stroke="#FF5500" stroke-width="2"/>
<rect x="360" y="54" width="69" height="28" rx="6" fill="#FFF4EF" stroke="#FF5500" stroke-width="2"/>
<rect x="448" y="54" width="69" height="28" rx="6" fill="#FFF4EF" stroke="#FF5500" stroke-width="2"/>
<rect x="718" y="54" width="69" height="28" rx="6" fill="#FFF4EF" stroke="#FF5500" stroke-width="2"/>
<rect x="806" y="54" width="69" height="28" rx="6" fill="#FFF4EF" stroke="#FF5500" stroke-width="2"/>
<rect x="1078" y="54" width="69" height="28" rx="6" fill="#FFF4EF" stroke="#FF5500" stroke-width="2"/>
<rect x="1166" y="54" width="69" height="28" rx="6" fill="#FFF4EF" stroke="#FF5500" stroke-width="2"/>
<path d="M12.3535 12.3965H8.00293V10.3018H14.9316V28.876H19.3115V31H7.51953V28.876H12.3535V12.3965ZM36.2598 22.8701C36.2598 23.2314 36.2549 23.5342 36.2451 23.7783C36.2354 24.0225 36.2207 24.252 36.2012 24.4668H25.874C25.874 25.9707 26.2939 27.1279 27.1338 27.9385C27.9736 28.7393 29.1846 29.1396 30.7666 29.1396C31.1963 29.1396 31.626 29.125 32.0557 29.0957C32.4854 29.0566 32.9004 29.0078 33.3008 28.9492C33.7012 28.8906 34.082 28.8271 34.4434 28.7588C34.8145 28.6807 35.1562 28.5977 35.4688 28.5098V30.6045C34.7754 30.7998 33.9893 30.9561 33.1104 31.0732C32.2412 31.2002 31.3379 31.2637 30.4004 31.2637C29.1406 31.2637 28.0566 31.0928 27.1484 30.751C26.2402 30.4092 25.4932 29.916 24.9072 29.2715C24.3311 28.6172 23.9014 27.8213 23.6182 26.8838C23.3447 25.9365 23.208 24.8672 23.208 23.6758C23.208 22.6406 23.3545 21.6641 23.6475 20.7461C23.9502 19.8184 24.3848 19.0078 24.9512 18.3145C25.5273 17.6113 26.2305 17.0547 27.0605 16.6445C27.8906 16.2344 28.833 16.0293 29.8877 16.0293C30.9131 16.0293 31.8213 16.1904 32.6123 16.5127C33.4033 16.835 34.0674 17.2939 34.6045 17.8896C35.1514 18.4756 35.5615 19.1934 35.835 20.043C36.1182 20.8828 36.2598 21.8252 36.2598 22.8701ZM33.6084 22.5039C33.6377 21.8496 33.5742 21.2539 33.418 20.7168C33.2617 20.1699 33.0176 19.7012 32.6855 19.3105C32.3633 18.9199 31.958 18.6172 31.4697 18.4023C30.9814 18.1777 30.415 18.0654 29.7705 18.0654C29.2139 18.0654 28.7061 18.1729 28.2471 18.3877C27.7881 18.6025 27.3926 18.9053 27.0605 19.2959C26.7285 19.6865 26.46 20.1553 26.2549 20.7021C26.0498 21.249 25.9229 21.8496 25.874 22.5039H33.6084ZM40.332 16.293H42.6025L42.7051 18.666C43.1348 18.1582 43.5498 17.7383 43.9502 17.4062C44.3506 17.0645 44.7412 16.791 45.1221 16.5859C45.5127 16.3809 45.9082 16.2393 46.3086 16.1611C46.709 16.0732 47.124 16.0293 47.5537 16.0293C49.0674 16.0293 50.21 16.4785 50.9814 17.377C51.7627 18.2656 52.1533 19.6084 52.1533 21.4053V31H49.6045V21.6104C49.6045 20.458 49.3896 19.6084 48.96 19.0615C48.5303 18.5049 47.8906 18.2266 47.041 18.2266C46.7285 18.2266 46.4209 18.2754 46.1182 18.373C45.8252 18.4609 45.5176 18.6221 45.1953 18.8564C44.873 19.0811 44.5215 19.3887 44.1406 19.7793C43.7695 20.1699 43.3496 20.6582 42.8809 21.2441V31H40.332V16.293ZM70.9766 37.0059H54.4824V34.8965H70.9766V37.0059ZM85.1709 30.7949C84.5947 30.9414 83.999 31.0439 83.3838 31.1025C82.7686 31.1709 82.1436 31.2051 81.5088 31.2051C79.6631 31.2051 78.2861 30.79 77.3779 29.96C76.4697 29.1201 76.0156 27.8359 76.0156 26.1074V18.4316H71.8994V16.293H76.0156V12.25L78.5645 11.5908V16.293H85.1709V18.4316H78.5645V25.9023C78.5645 26.957 78.8428 27.748 79.3994 28.2754C79.9658 28.793 80.7959 29.0518 81.8896 29.0518C82.3584 29.0518 82.8711 29.0176 83.4277 28.9492C83.9844 28.8711 84.5654 28.7539 85.1709 28.5977V30.7949ZM118.511 21.5371H105.913V19.3838H118.511V21.5371ZM118.511 26.6348H105.913V24.4814H118.511V26.6348ZM151.353 25.1846C151.353 26.0244 151.182 26.8154 150.84 27.5576C150.498 28.29 149.985 28.9346 149.302 29.4912C148.618 30.0381 147.759 30.4727 146.724 30.7949C145.688 31.1074 144.482 31.2637 143.105 31.2637C142.344 31.2637 141.66 31.2393 141.055 31.1904C140.449 31.1416 139.883 31.0781 139.355 31V28.7148C139.961 28.8223 140.601 28.9053 141.274 28.9639C141.948 29.0225 142.637 29.0518 143.34 29.0518C144.297 29.0518 145.112 28.9688 145.786 28.8027C146.47 28.627 147.026 28.3779 147.456 28.0557C147.886 27.7334 148.198 27.3428 148.394 26.8838C148.589 26.4248 148.687 25.9072 148.687 25.3311C148.687 24.8037 148.569 24.3447 148.335 23.9541C148.101 23.5635 147.769 23.2363 147.339 22.9727C146.919 22.709 146.411 22.5137 145.815 22.3867C145.229 22.25 144.585 22.1816 143.882 22.1816H141.699V20.0869H143.911C144.487 20.0869 145.01 20.0137 145.479 19.8672C145.957 19.7109 146.362 19.4912 146.694 19.208C147.036 18.9248 147.295 18.5781 147.471 18.168C147.656 17.748 147.749 17.2744 147.749 16.7471C147.749 15.7217 147.437 14.9746 146.812 14.5059C146.187 14.0371 145.269 13.8027 144.058 13.8027C143.413 13.8027 142.749 13.8662 142.065 13.9932C141.382 14.1201 140.649 14.3105 139.868 14.5645V12.3379C140.2 12.2207 140.552 12.1182 140.923 12.0303C141.304 11.9326 141.68 11.8545 142.051 11.7959C142.432 11.7275 142.808 11.6787 143.179 11.6494C143.55 11.6104 143.906 11.5908 144.248 11.5908C145.264 11.5908 146.157 11.7031 146.929 11.9277C147.7 12.1426 148.345 12.4551 148.862 12.8652C149.38 13.2754 149.771 13.7734 150.034 14.3594C150.298 14.9453 150.43 15.6045 150.43 16.3369C150.43 17.4307 150.146 18.3486 149.58 19.0908C149.023 19.833 148.257 20.4238 147.28 20.8633C147.778 20.9414 148.267 21.0977 148.745 21.332C149.233 21.5664 149.668 21.8691 150.049 22.2402C150.439 22.6016 150.752 23.0312 150.986 23.5293C151.23 24.0273 151.353 24.5791 151.353 25.1846Z" fill="black"/>
<rect opacity="0.2" x="19" y="113" width="121" height="31" rx="10" fill="#00B2FF"/>
<rect opacity="0.2" x="379" y="113" width="121" height="31" rx="10" fill="#00B2FF"/>
<path d="M317.707 128.707C318.098 128.317 318.098 127.683 317.707 127.293L311.343 120.929C310.953 120.538 310.319 120.538 309.929 120.929C309.538 121.319 309.538 121.953 309.929 122.343L315.586 128L309.929 133.657C309.538 134.047 309.538 134.681 309.929 135.071C310.319 135.462 310.953 135.462 311.343 135.071L317.707 128.707ZM290 129H317V127H290V129Z" fill="#787878"/>
<path d="M632.707 128.707C633.098 128.317 633.098 127.683 632.707 127.293L626.343 120.929C625.953 120.538 625.319 120.538 624.929 120.929C624.538 121.319 624.538 121.953 624.929 122.343L630.586 128L624.929 133.657C624.538 134.047 624.538 134.681 624.929 135.071C625.319 135.462 625.953 135.462 626.343 135.071L632.707 128.707ZM605 129H632V127H605V129Z" fill="#787878"/>
<path d="M40.0225 137.458C39.3584 137.712 38.6748 137.897 37.9717 138.015C37.2783 138.142 36.5605 138.205 35.8184 138.205C33.4941 138.205 31.7021 137.575 30.4424 136.315C29.1924 135.056 28.5674 133.215 28.5674 130.793C28.5674 129.631 28.748 128.576 29.1094 127.629C29.4707 126.682 29.9785 125.871 30.6328 125.197C31.2871 124.523 32.0684 124.006 32.9766 123.645C33.8848 123.273 34.8857 123.088 35.9795 123.088C36.7412 123.088 37.4541 123.142 38.1182 123.249C38.7822 123.356 39.417 123.532 40.0225 123.776V126.208C39.3877 125.876 38.7383 125.637 38.0742 125.49C37.4199 125.334 36.7412 125.256 36.0381 125.256C35.3838 125.256 34.7637 125.383 34.1777 125.637C33.6016 125.881 33.0938 126.237 32.6543 126.706C32.2148 127.175 31.8682 127.746 31.6143 128.42C31.3604 129.094 31.2334 129.855 31.2334 130.705C31.2334 132.482 31.6631 133.815 32.5225 134.704C33.3916 135.583 34.5928 136.022 36.126 136.022C36.8193 136.022 37.4883 135.944 38.1328 135.788C38.7871 135.632 39.417 135.397 40.0225 135.085V137.458Z" fill="black"/>
<path d="M82.5449 138L82.4863 136.022C81.6855 136.813 80.8701 137.385 80.04 137.736C79.2197 138.088 78.3555 138.264 77.4473 138.264C76.6074 138.264 75.8896 138.156 75.2939 137.941C74.6982 137.727 74.2051 137.434 73.8145 137.062C73.4336 136.682 73.1504 136.237 72.9648 135.729C72.7891 135.222 72.7012 134.67 72.7012 134.074C72.7012 132.6 73.248 131.447 74.3418 130.617C75.4453 129.777 77.0713 129.357 79.2197 129.357H82.2666V128.068C82.2666 127.199 81.9883 126.506 81.4316 125.988C80.875 125.461 80.0254 125.197 78.8828 125.197C78.0527 125.197 77.2324 125.29 76.4219 125.476C75.6211 125.661 74.791 125.925 73.9316 126.267V123.967C74.2539 123.85 74.6104 123.737 75.001 123.63C75.4014 123.513 75.8213 123.41 76.2607 123.322C76.7002 123.234 77.1592 123.166 77.6377 123.117C78.1162 123.059 78.5996 123.029 79.0879 123.029C79.9766 123.029 80.7773 123.127 81.4902 123.322C82.2031 123.518 82.8037 123.815 83.292 124.216C83.79 124.616 84.1709 125.119 84.4346 125.725C84.6982 126.33 84.8301 127.043 84.8301 127.863V138H82.5449ZM82.2666 131.306H79.0293C78.3945 131.306 77.8477 131.369 77.3887 131.496C76.9297 131.623 76.5537 131.804 76.2607 132.038C75.9678 132.272 75.748 132.556 75.6016 132.888C75.4648 133.21 75.3965 133.576 75.3965 133.986C75.3965 134.27 75.4404 134.543 75.5283 134.807C75.6162 135.061 75.7578 135.29 75.9531 135.495C76.1484 135.69 76.4023 135.847 76.7148 135.964C77.0273 136.081 77.4082 136.14 77.8574 136.14C78.4434 136.14 79.1123 135.964 79.8643 135.612C80.626 135.251 81.4268 134.685 82.2666 133.913V131.306Z" fill="black"/>
<path d="M127.545 138L127.486 136.022C126.686 136.813 125.87 137.385 125.04 137.736C124.22 138.088 123.355 138.264 122.447 138.264C121.607 138.264 120.89 138.156 120.294 137.941C119.698 137.727 119.205 137.434 118.814 137.062C118.434 136.682 118.15 136.237 117.965 135.729C117.789 135.222 117.701 134.67 117.701 134.074C117.701 132.6 118.248 131.447 119.342 130.617C120.445 129.777 122.071 129.357 124.22 129.357H127.267V128.068C127.267 127.199 126.988 126.506 126.432 125.988C125.875 125.461 125.025 125.197 123.883 125.197C123.053 125.197 122.232 125.29 121.422 125.476C120.621 125.661 119.791 125.925 118.932 126.267V123.967C119.254 123.85 119.61 123.737 120.001 123.63C120.401 123.513 120.821 123.41 121.261 123.322C121.7 123.234 122.159 123.166 122.638 123.117C123.116 123.059 123.6 123.029 124.088 123.029C124.977 123.029 125.777 123.127 126.49 123.322C127.203 123.518 127.804 123.815 128.292 124.216C128.79 124.616 129.171 125.119 129.435 125.725C129.698 126.33 129.83 127.043 129.83 127.863V138H127.545ZM127.267 131.306H124.029C123.395 131.306 122.848 131.369 122.389 131.496C121.93 131.623 121.554 131.804 121.261 132.038C120.968 132.272 120.748 132.556 120.602 132.888C120.465 133.21 120.396 133.576 120.396 133.986C120.396 134.27 120.44 134.543 120.528 134.807C120.616 135.061 120.758 135.29 120.953 135.495C121.148 135.69 121.402 135.847 121.715 135.964C122.027 136.081 122.408 136.14 122.857 136.14C123.443 136.14 124.112 135.964 124.864 135.612C125.626 135.251 126.427 134.685 127.267 133.913V131.306Z" fill="black"/>
<path d="M176.165 130.383C176.165 131.604 175.994 132.697 175.652 133.664C175.32 134.621 174.842 135.437 174.217 136.11C173.602 136.774 172.85 137.287 171.961 137.648C171.072 138 170.071 138.176 168.958 138.176C168.089 138.176 167.2 138.093 166.292 137.927C165.384 137.761 164.485 137.497 163.597 137.136V117.302H166.146V123L166.028 125.725C166.761 124.738 167.542 124.045 168.372 123.645C169.212 123.234 170.11 123.029 171.067 123.029C171.907 123.029 172.645 123.205 173.279 123.557C173.914 123.908 174.446 124.406 174.876 125.051C175.306 125.686 175.628 126.457 175.843 127.365C176.058 128.264 176.165 129.27 176.165 130.383ZM173.558 130.5C173.558 129.729 173.499 129.021 173.382 128.376C173.274 127.731 173.099 127.18 172.854 126.721C172.61 126.262 172.298 125.905 171.917 125.651C171.536 125.388 171.082 125.256 170.555 125.256C170.232 125.256 169.905 125.31 169.573 125.417C169.241 125.515 168.895 125.686 168.533 125.93C168.182 126.164 167.806 126.481 167.405 126.882C167.015 127.272 166.595 127.761 166.146 128.347V135.48C166.644 135.676 167.151 135.832 167.669 135.949C168.187 136.057 168.68 136.11 169.148 136.11C169.734 136.11 170.291 136.018 170.818 135.832C171.355 135.646 171.824 135.339 172.225 134.909C172.635 134.47 172.957 133.894 173.191 133.181C173.436 132.458 173.558 131.564 173.558 130.5Z" fill="black"/>
<path d="M217.545 138L217.486 136.022C216.686 136.813 215.87 137.385 215.04 137.736C214.22 138.088 213.355 138.264 212.447 138.264C211.607 138.264 210.89 138.156 210.294 137.941C209.698 137.727 209.205 137.434 208.814 137.062C208.434 136.682 208.15 136.237 207.965 135.729C207.789 135.222 207.701 134.67 207.701 134.074C207.701 132.6 208.248 131.447 209.342 130.617C210.445 129.777 212.071 129.357 214.22 129.357H217.267V128.068C217.267 127.199 216.988 126.506 216.432 125.988C215.875 125.461 215.025 125.197 213.883 125.197C213.053 125.197 212.232 125.29 211.422 125.476C210.621 125.661 209.791 125.925 208.932 126.267V123.967C209.254 123.85 209.61 123.737 210.001 123.63C210.401 123.513 210.821 123.41 211.261 123.322C211.7 123.234 212.159 123.166 212.638 123.117C213.116 123.059 213.6 123.029 214.088 123.029C214.977 123.029 215.777 123.127 216.49 123.322C217.203 123.518 217.804 123.815 218.292 124.216C218.79 124.616 219.171 125.119 219.435 125.725C219.698 126.33 219.83 127.043 219.83 127.863V138H217.545ZM217.267 131.306H214.029C213.395 131.306 212.848 131.369 212.389 131.496C211.93 131.623 211.554 131.804 211.261 132.038C210.968 132.272 210.748 132.556 210.602 132.888C210.465 133.21 210.396 133.576 210.396 133.986C210.396 134.27 210.44 134.543 210.528 134.807C210.616 135.061 210.758 135.29 210.953 135.495C211.148 135.69 211.402 135.847 211.715 135.964C212.027 136.081 212.408 136.14 212.857 136.14C213.443 136.14 214.112 135.964 214.864 135.612C215.626 135.251 216.427 134.685 217.267 133.913V131.306Z" fill="black"/>
<path d="M265.665 130.383C265.665 131.604 265.494 132.697 265.152 133.664C264.82 134.621 264.342 135.437 263.717 136.11C263.102 136.774 262.35 137.287 261.461 137.648C260.572 138 259.571 138.176 258.458 138.176C257.589 138.176 256.7 138.093 255.792 137.927C254.884 137.761 253.985 137.497 253.097 137.136V117.302H255.646V123L255.528 125.725C256.261 124.738 257.042 124.045 257.872 123.645C258.712 123.234 259.61 123.029 260.567 123.029C261.407 123.029 262.145 123.205 262.779 123.557C263.414 123.908 263.946 124.406 264.376 125.051C264.806 125.686 265.128 126.457 265.343 127.365C265.558 128.264 265.665 129.27 265.665 130.383ZM263.058 130.5C263.058 129.729 262.999 129.021 262.882 128.376C262.774 127.731 262.599 127.18 262.354 126.721C262.11 126.262 261.798 125.905 261.417 125.651C261.036 125.388 260.582 125.256 260.055 125.256C259.732 125.256 259.405 125.31 259.073 125.417C258.741 125.515 258.395 125.686 258.033 125.93C257.682 126.164 257.306 126.481 256.905 126.882C256.515 127.272 256.095 127.761 255.646 128.347V135.48C256.144 135.676 256.651 135.832 257.169 135.949C257.687 136.057 258.18 136.11 258.648 136.11C259.234 136.11 259.791 136.018 260.318 135.832C260.855 135.646 261.324 135.339 261.725 134.909C262.135 134.47 262.457 133.894 262.691 133.181C262.936 132.458 263.058 131.564 263.058 130.5Z" fill="black"/>
<path d="M355.022 137.458C354.358 137.712 353.675 137.897 352.972 138.015C352.278 138.142 351.561 138.205 350.818 138.205C348.494 138.205 346.702 137.575 345.442 136.315C344.192 135.056 343.567 133.215 343.567 130.793C343.567 129.631 343.748 128.576 344.109 127.629C344.471 126.682 344.979 125.871 345.633 125.197C346.287 124.523 347.068 124.006 347.977 123.645C348.885 123.273 349.886 123.088 350.979 123.088C351.741 123.088 352.454 123.142 353.118 123.249C353.782 123.356 354.417 123.532 355.022 123.776V126.208C354.388 125.876 353.738 125.637 353.074 125.49C352.42 125.334 351.741 125.256 351.038 125.256C350.384 125.256 349.764 125.383 349.178 125.637C348.602 125.881 348.094 126.237 347.654 126.706C347.215 127.175 346.868 127.746 346.614 128.42C346.36 129.094 346.233 129.855 346.233 130.705C346.233 132.482 346.663 133.815 347.522 134.704C348.392 135.583 349.593 136.022 351.126 136.022C351.819 136.022 352.488 135.944 353.133 135.788C353.787 135.632 354.417 135.397 355.022 135.085V137.458Z" fill="black"/>
<path d="M397.545 138L397.486 136.022C396.686 136.813 395.87 137.385 395.04 137.736C394.22 138.088 393.355 138.264 392.447 138.264C391.607 138.264 390.89 138.156 390.294 137.941C389.698 137.727 389.205 137.434 388.814 137.062C388.434 136.682 388.15 136.237 387.965 135.729C387.789 135.222 387.701 134.67 387.701 134.074C387.701 132.6 388.248 131.447 389.342 130.617C390.445 129.777 392.071 129.357 394.22 129.357H397.267V128.068C397.267 127.199 396.988 126.506 396.432 125.988C395.875 125.461 395.025 125.197 393.883 125.197C393.053 125.197 392.232 125.29 391.422 125.476C390.621 125.661 389.791 125.925 388.932 126.267V123.967C389.254 123.85 389.61 123.737 390.001 123.63C390.401 123.513 390.821 123.41 391.261 123.322C391.7 123.234 392.159 123.166 392.638 123.117C393.116 123.059 393.6 123.029 394.088 123.029C394.977 123.029 395.777 123.127 396.49 123.322C397.203 123.518 397.804 123.815 398.292 124.216C398.79 124.616 399.171 125.119 399.435 125.725C399.698 126.33 399.83 127.043 399.83 127.863V138H397.545ZM397.267 131.306H394.029C393.395 131.306 392.848 131.369 392.389 131.496C391.93 131.623 391.554 131.804 391.261 132.038C390.968 132.272 390.748 132.556 390.602 132.888C390.465 133.21 390.396 133.576 390.396 133.986C390.396 134.27 390.44 134.543 390.528 134.807C390.616 135.061 390.758 135.29 390.953 135.495C391.148 135.69 391.402 135.847 391.715 135.964C392.027 136.081 392.408 136.14 392.857 136.14C393.443 136.14 394.112 135.964 394.864 135.612C395.626 135.251 396.427 134.685 397.267 133.913V131.306Z" fill="black"/>
<path d="M442.545 138L442.486 136.022C441.686 136.813 440.87 137.385 440.04 137.736C439.22 138.088 438.355 138.264 437.447 138.264C436.607 138.264 435.89 138.156 435.294 137.941C434.698 137.727 434.205 137.434 433.814 137.062C433.434 136.682 433.15 136.237 432.965 135.729C432.789 135.222 432.701 134.67 432.701 134.074C432.701 132.6 433.248 131.447 434.342 130.617C435.445 129.777 437.071 129.357 439.22 129.357H442.267V128.068C442.267 127.199 441.988 126.506 441.432 125.988C440.875 125.461 440.025 125.197 438.883 125.197C438.053 125.197 437.232 125.29 436.422 125.476C435.621 125.661 434.791 125.925 433.932 126.267V123.967C434.254 123.85 434.61 123.737 435.001 123.63C435.401 123.513 435.821 123.41 436.261 123.322C436.7 123.234 437.159 123.166 437.638 123.117C438.116 123.059 438.6 123.029 439.088 123.029C439.977 123.029 440.777 123.127 441.49 123.322C442.203 123.518 442.804 123.815 443.292 124.216C443.79 124.616 444.171 125.119 444.435 125.725C444.698 126.33 444.83 127.043 444.83 127.863V138H442.545ZM442.267 131.306H439.029C438.395 131.306 437.848 131.369 437.389 131.496C436.93 131.623 436.554 131.804 436.261 132.038C435.968 132.272 435.748 132.556 435.602 132.888C435.465 133.21 435.396 133.576 435.396 133.986C435.396 134.27 435.44 134.543 435.528 134.807C435.616 135.061 435.758 135.29 435.953 135.495C436.148 135.69 436.402 135.847 436.715 135.964C437.027 136.081 437.408 136.14 437.857 136.14C438.443 136.14 439.112 135.964 439.864 135.612C440.626 135.251 441.427 134.685 442.267 133.913V131.306Z" fill="black"/>
<path d="M491.165 130.383C491.165 131.604 490.994 132.697 490.652 133.664C490.32 134.621 489.842 135.437 489.217 136.11C488.602 136.774 487.85 137.287 486.961 137.648C486.072 138 485.071 138.176 483.958 138.176C483.089 138.176 482.2 138.093 481.292 137.927C480.384 137.761 479.485 137.497 478.597 137.136V117.302H481.146V123L481.028 125.725C481.761 124.738 482.542 124.045 483.372 123.645C484.212 123.234 485.11 123.029 486.067 123.029C486.907 123.029 487.645 123.205 488.279 123.557C488.914 123.908 489.446 124.406 489.876 125.051C490.306 125.686 490.628 126.457 490.843 127.365C491.058 128.264 491.165 129.27 491.165 130.383ZM488.558 130.5C488.558 129.729 488.499 129.021 488.382 128.376C488.274 127.731 488.099 127.18 487.854 126.721C487.61 126.262 487.298 125.905 486.917 125.651C486.536 125.388 486.082 125.256 485.555 125.256C485.232 125.256 484.905 125.31 484.573 125.417C484.241 125.515 483.895 125.686 483.533 125.93C483.182 126.164 482.806 126.481 482.405 126.882C482.015 127.272 481.595 127.761 481.146 128.347V135.48C481.644 135.676 482.151 135.832 482.669 135.949C483.187 136.057 483.68 136.11 484.148 136.11C484.734 136.11 485.291 136.018 485.818 135.832C486.355 135.646 486.824 135.339 487.225 134.909C487.635 134.47 487.957 133.894 488.191 133.181C488.436 132.458 488.558 131.564 488.558 130.5Z" fill="black"/>
<rect opacity="0.2" x="737" y="113" width="121" height="31" rx="10" fill="#00B2FF"/>
<path d="M532.545 138L532.486 136.022C531.686 136.813 530.87 137.385 530.04 137.736C529.22 138.088 528.355 138.264 527.447 138.264C526.607 138.264 525.89 138.156 525.294 137.941C524.698 137.727 524.205 137.434 523.814 137.062C523.434 136.682 523.15 136.237 522.965 135.729C522.789 135.222 522.701 134.67 522.701 134.074C522.701 132.6 523.248 131.447 524.342 130.617C525.445 129.777 527.071 129.357 529.22 129.357H532.267V128.068C532.267 127.199 531.988 126.506 531.432 125.988C530.875 125.461 530.025 125.197 528.883 125.197C528.053 125.197 527.232 125.29 526.422 125.476C525.621 125.661 524.791 125.925 523.932 126.267V123.967C524.254 123.85 524.61 123.737 525.001 123.63C525.401 123.513 525.821 123.41 526.261 123.322C526.7 123.234 527.159 123.166 527.638 123.117C528.116 123.059 528.6 123.029 529.088 123.029C529.977 123.029 530.777 123.127 531.49 123.322C532.203 123.518 532.804 123.815 533.292 124.216C533.79 124.616 534.171 125.119 534.435 125.725C534.698 126.33 534.83 127.043 534.83 127.863V138H532.545ZM532.267 131.306H529.029C528.395 131.306 527.848 131.369 527.389 131.496C526.93 131.623 526.554 131.804 526.261 132.038C525.968 132.272 525.748 132.556 525.602 132.888C525.465 133.21 525.396 133.576 525.396 133.986C525.396 134.27 525.44 134.543 525.528 134.807C525.616 135.061 525.758 135.29 525.953 135.495C526.148 135.69 526.402 135.847 526.715 135.964C527.027 136.081 527.408 136.14 527.857 136.14C528.443 136.14 529.112 135.964 529.864 135.612C530.626 135.251 531.427 134.685 532.267 133.913V131.306Z" fill="black"/>
<path d="M580.665 130.383C580.665 131.604 580.494 132.697 580.152 133.664C579.82 134.621 579.342 135.437 578.717 136.11C578.102 136.774 577.35 137.287 576.461 137.648C575.572 138 574.571 138.176 573.458 138.176C572.589 138.176 571.7 138.093 570.792 137.927C569.884 137.761 568.985 137.497 568.097 137.136V117.302H570.646V123L570.528 125.725C571.261 124.738 572.042 124.045 572.872 123.645C573.712 123.234 574.61 123.029 575.567 123.029C576.407 123.029 577.145 123.205 577.779 123.557C578.414 123.908 578.946 124.406 579.376 125.051C579.806 125.686 580.128 126.457 580.343 127.365C580.558 128.264 580.665 129.27 580.665 130.383ZM578.058 130.5C578.058 129.729 577.999 129.021 577.882 128.376C577.774 127.731 577.599 127.18 577.354 126.721C577.11 126.262 576.798 125.905 576.417 125.651C576.036 125.388 575.582 125.256 575.055 125.256C574.732 125.256 574.405 125.31 574.073 125.417C573.741 125.515 573.395 125.686 573.033 125.93C572.682 126.164 572.306 126.481 571.905 126.882C571.515 127.272 571.095 127.761 570.646 128.347V135.48C571.144 135.676 571.651 135.832 572.169 135.949C572.687 136.057 573.18 136.11 573.648 136.11C574.234 136.11 574.791 136.018 575.318 135.832C575.855 135.646 576.324 135.339 576.725 134.909C577.135 134.47 577.457 133.894 577.691 133.181C577.936 132.458 578.058 131.564 578.058 130.5Z" fill="black"/>
<path d="M945.707 128.707C946.098 128.317 946.098 127.683 945.707 127.293L939.343 120.929C938.953 120.538 938.319 120.538 937.929 120.929C937.538 121.319 937.538 121.953 937.929 122.343L943.586 128L937.929 133.657C937.538 134.047 937.538 134.681 937.929 135.071C938.319 135.462 938.953 135.462 939.343 135.071L945.707 128.707ZM918 129H945V127H918V129Z" fill="#787878"/>
<path d="M668.022 137.458C667.358 137.712 666.675 137.897 665.972 138.015C665.278 138.142 664.561 138.205 663.818 138.205C661.494 138.205 659.702 137.575 658.442 136.315C657.192 135.056 656.567 133.215 656.567 130.793C656.567 129.631 656.748 128.576 657.109 127.629C657.471 126.682 657.979 125.871 658.633 125.197C659.287 124.523 660.068 124.006 660.977 123.645C661.885 123.273 662.886 123.088 663.979 123.088C664.741 123.088 665.454 123.142 666.118 123.249C666.782 123.356 667.417 123.532 668.022 123.776V126.208C667.388 125.876 666.738 125.637 666.074 125.49C665.42 125.334 664.741 125.256 664.038 125.256C663.384 125.256 662.764 125.383 662.178 125.637C661.602 125.881 661.094 126.237 660.654 126.706C660.215 127.175 659.868 127.746 659.614 128.42C659.36 129.094 659.233 129.855 659.233 130.705C659.233 132.482 659.663 133.815 660.522 134.704C661.392 135.583 662.593 136.022 664.126 136.022C664.819 136.022 665.488 135.944 666.133 135.788C666.787 135.632 667.417 135.397 668.022 135.085V137.458Z" fill="black"/>
<rect opacity="0.2" x="1097" y="113" width="121" height="31" rx="10" fill="#00B2FF"/>
<path d="M710.545 138L710.486 136.022C709.686 136.813 708.87 137.385 708.04 137.736C707.22 138.088 706.355 138.264 705.447 138.264C704.607 138.264 703.89 138.156 703.294 137.941C702.698 137.727 702.205 137.434 701.814 137.062C701.434 136.682 701.15 136.237 700.965 135.729C700.789 135.222 700.701 134.67 700.701 134.074C700.701 132.6 701.248 131.447 702.342 130.617C703.445 129.777 705.071 129.357 707.22 129.357H710.267V128.068C710.267 127.199 709.988 126.506 709.432 125.988C708.875 125.461 708.025 125.197 706.883 125.197C706.053 125.197 705.232 125.29 704.422 125.476C703.621 125.661 702.791 125.925 701.932 126.267V123.967C702.254 123.85 702.61 123.737 703.001 123.63C703.401 123.513 703.821 123.41 704.261 123.322C704.7 123.234 705.159 123.166 705.638 123.117C706.116 123.059 706.6 123.029 707.088 123.029C707.977 123.029 708.777 123.127 709.49 123.322C710.203 123.518 710.804 123.815 711.292 124.216C711.79 124.616 712.171 125.119 712.435 125.725C712.698 126.33 712.83 127.043 712.83 127.863V138H710.545ZM710.267 131.306H707.029C706.395 131.306 705.848 131.369 705.389 131.496C704.93 131.623 704.554 131.804 704.261 132.038C703.968 132.272 703.748 132.556 703.602 132.888C703.465 133.21 703.396 133.576 703.396 133.986C703.396 134.27 703.44 134.543 703.528 134.807C703.616 135.061 703.758 135.29 703.953 135.495C704.148 135.69 704.402 135.847 704.715 135.964C705.027 136.081 705.408 136.14 705.857 136.14C706.443 136.14 707.112 135.964 707.864 135.612C708.626 135.251 709.427 134.685 710.267 133.913V131.306Z" fill="black"/>
<path d="M755.545 138L755.486 136.022C754.686 136.813 753.87 137.385 753.04 137.736C752.22 138.088 751.355 138.264 750.447 138.264C749.607 138.264 748.89 138.156 748.294 137.941C747.698 137.727 747.205 137.434 746.814 137.062C746.434 136.682 746.15 136.237 745.965 135.729C745.789 135.222 745.701 134.67 745.701 134.074C745.701 132.6 746.248 131.447 747.342 130.617C748.445 129.777 750.071 129.357 752.22 129.357H755.267V128.068C755.267 127.199 754.988 126.506 754.432 125.988C753.875 125.461 753.025 125.197 751.883 125.197C751.053 125.197 750.232 125.29 749.422 125.476C748.621 125.661 747.791 125.925 746.932 126.267V123.967C747.254 123.85 747.61 123.737 748.001 123.63C748.401 123.513 748.821 123.41 749.261 123.322C749.7 123.234 750.159 123.166 750.638 123.117C751.116 123.059 751.6 123.029 752.088 123.029C752.977 123.029 753.777 123.127 754.49 123.322C755.203 123.518 755.804 123.815 756.292 124.216C756.79 124.616 757.171 125.119 757.435 125.725C757.698 126.33 757.83 127.043 757.83 127.863V138H755.545ZM755.267 131.306H752.029C751.395 131.306 750.848 131.369 750.389 131.496C749.93 131.623 749.554 131.804 749.261 132.038C748.968 132.272 748.748 132.556 748.602 132.888C748.465 133.21 748.396 133.576 748.396 133.986C748.396 134.27 748.44 134.543 748.528 134.807C748.616 135.061 748.758 135.29 748.953 135.495C749.148 135.69 749.402 135.847 749.715 135.964C750.027 136.081 750.408 136.14 750.857 136.14C751.443 136.14 752.112 135.964 752.864 135.612C753.626 135.251 754.427 134.685 755.267 133.913V131.306Z" fill="black"/>
<path d="M804.165 130.383C804.165 131.604 803.994 132.697 803.652 133.664C803.32 134.621 802.842 135.437 802.217 136.11C801.602 136.774 800.85 137.287 799.961 137.648C799.072 138 798.071 138.176 796.958 138.176C796.089 138.176 795.2 138.093 794.292 137.927C793.384 137.761 792.485 137.497 791.597 137.136V117.302H794.146V123L794.028 125.725C794.761 124.738 795.542 124.045 796.372 123.645C797.212 123.234 798.11 123.029 799.067 123.029C799.907 123.029 800.645 123.205 801.279 123.557C801.914 123.908 802.446 124.406 802.876 125.051C803.306 125.686 803.628 126.457 803.843 127.365C804.058 128.264 804.165 129.27 804.165 130.383ZM801.558 130.5C801.558 129.729 801.499 129.021 801.382 128.376C801.274 127.731 801.099 127.18 800.854 126.721C800.61 126.262 800.298 125.905 799.917 125.651C799.536 125.388 799.082 125.256 798.555 125.256C798.232 125.256 797.905 125.31 797.573 125.417C797.241 125.515 796.895 125.686 796.533 125.93C796.182 126.164 795.806 126.481 795.405 126.882C795.015 127.272 794.595 127.761 794.146 128.347V135.48C794.644 135.676 795.151 135.832 795.669 135.949C796.187 136.057 796.68 136.11 797.148 136.11C797.734 136.11 798.291 136.018 798.818 135.832C799.355 135.646 799.824 135.339 800.225 134.909C800.635 134.47 800.957 133.894 801.191 133.181C801.436 132.458 801.558 131.564 801.558 130.5Z" fill="black"/>
<path d="M845.545 138L845.486 136.022C844.686 136.813 843.87 137.385 843.04 137.736C842.22 138.088 841.355 138.264 840.447 138.264C839.607 138.264 838.89 138.156 838.294 137.941C837.698 137.727 837.205 137.434 836.814 137.062C836.434 136.682 836.15 136.237 835.965 135.729C835.789 135.222 835.701 134.67 835.701 134.074C835.701 132.6 836.248 131.447 837.342 130.617C838.445 129.777 840.071 129.357 842.22 129.357H845.267V128.068C845.267 127.199 844.988 126.506 844.432 125.988C843.875 125.461 843.025 125.197 841.883 125.197C841.053 125.197 840.232 125.29 839.422 125.476C838.621 125.661 837.791 125.925 836.932 126.267V123.967C837.254 123.85 837.61 123.737 838.001 123.63C838.401 123.513 838.821 123.41 839.261 123.322C839.7 123.234 840.159 123.166 840.638 123.117C841.116 123.059 841.6 123.029 842.088 123.029C842.977 123.029 843.777 123.127 844.49 123.322C845.203 123.518 845.804 123.815 846.292 124.216C846.79 124.616 847.171 125.119 847.435 125.725C847.698 126.33 847.83 127.043 847.83 127.863V138H845.545ZM845.267 131.306H842.029C841.395 131.306 840.848 131.369 840.389 131.496C839.93 131.623 839.554 131.804 839.261 132.038C838.968 132.272 838.748 132.556 838.602 132.888C838.465 133.21 838.396 133.576 838.396 133.986C838.396 134.27 838.44 134.543 838.528 134.807C838.616 135.061 838.758 135.29 838.953 135.495C839.148 135.69 839.402 135.847 839.715 135.964C840.027 136.081 840.408 136.14 840.857 136.14C841.443 136.14 842.112 135.964 842.864 135.612C843.626 135.251 844.427 134.685 845.267 133.913V131.306Z" fill="black"/>
<path d="M893.665 130.383C893.665 131.604 893.494 132.697 893.152 133.664C892.82 134.621 892.342 135.437 891.717 136.11C891.102 136.774 890.35 137.287 889.461 137.648C888.572 138 887.571 138.176 886.458 138.176C885.589 138.176 884.7 138.093 883.792 137.927C882.884 137.761 881.985 137.497 881.097 137.136V117.302H883.646V123L883.528 125.725C884.261 124.738 885.042 124.045 885.872 123.645C886.712 123.234 887.61 123.029 888.567 123.029C889.407 123.029 890.145 123.205 890.779 123.557C891.414 123.908 891.946 124.406 892.376 125.051C892.806 125.686 893.128 126.457 893.343 127.365C893.558 128.264 893.665 129.27 893.665 130.383ZM891.058 130.5C891.058 129.729 890.999 129.021 890.882 128.376C890.774 127.731 890.599 127.18 890.354 126.721C890.11 126.262 889.798 125.905 889.417 125.651C889.036 125.388 888.582 125.256 888.055 125.256C887.732 125.256 887.405 125.31 887.073 125.417C886.741 125.515 886.395 125.686 886.033 125.93C885.682 126.164 885.306 126.481 884.905 126.882C884.515 127.272 884.095 127.761 883.646 128.347V135.48C884.144 135.676 884.651 135.832 885.169 135.949C885.687 136.057 886.18 136.11 886.648 136.11C887.234 136.11 887.791 136.018 888.318 135.832C888.855 135.646 889.324 135.339 889.725 134.909C890.135 134.47 890.457 133.894 890.691 133.181C890.936 132.458 891.058 131.564 891.058 130.5Z" fill="black"/>
<path d="M983.022 137.458C982.358 137.712 981.675 137.897 980.972 138.015C980.278 138.142 979.561 138.205 978.818 138.205C976.494 138.205 974.702 137.575 973.442 136.315C972.192 135.056 971.567 133.215 971.567 130.793C971.567 129.631 971.748 128.576 972.109 127.629C972.471 126.682 972.979 125.871 973.633 125.197C974.287 124.523 975.068 124.006 975.977 123.645C976.885 123.273 977.886 123.088 978.979 123.088C979.741 123.088 980.454 123.142 981.118 123.249C981.782 123.356 982.417 123.532 983.022 123.776V126.208C982.388 125.876 981.738 125.637 981.074 125.49C980.42 125.334 979.741 125.256 979.038 125.256C978.384 125.256 977.764 125.383 977.178 125.637C976.602 125.881 976.094 126.237 975.654 126.706C975.215 127.175 974.868 127.746 974.614 128.42C974.36 129.094 974.233 129.855 974.233 130.705C974.233 132.482 974.663 133.815 975.522 134.704C976.392 135.583 977.593 136.022 979.126 136.022C979.819 136.022 980.488 135.944 981.133 135.788C981.787 135.632 982.417 135.397 983.022 135.085V137.458Z" fill="black"/>
<path d="M1025.54 138L1025.49 136.022C1024.69 136.813 1023.87 137.385 1023.04 137.736C1022.22 138.088 1021.36 138.264 1020.45 138.264C1019.61 138.264 1018.89 138.156 1018.29 137.941C1017.7 137.727 1017.21 137.434 1016.81 137.062C1016.43 136.682 1016.15 136.237 1015.96 135.729C1015.79 135.222 1015.7 134.67 1015.7 134.074C1015.7 132.6 1016.25 131.447 1017.34 130.617C1018.45 129.777 1020.07 129.357 1022.22 129.357H1025.27V128.068C1025.27 127.199 1024.99 126.506 1024.43 125.988C1023.88 125.461 1023.03 125.197 1021.88 125.197C1021.05 125.197 1020.23 125.29 1019.42 125.476C1018.62 125.661 1017.79 125.925 1016.93 126.267V123.967C1017.25 123.85 1017.61 123.737 1018 123.63C1018.4 123.513 1018.82 123.41 1019.26 123.322C1019.7 123.234 1020.16 123.166 1020.64 123.117C1021.12 123.059 1021.6 123.029 1022.09 123.029C1022.98 123.029 1023.78 123.127 1024.49 123.322C1025.2 123.518 1025.8 123.815 1026.29 124.216C1026.79 124.616 1027.17 125.119 1027.43 125.725C1027.7 126.33 1027.83 127.043 1027.83 127.863V138H1025.54ZM1025.27 131.306H1022.03C1021.39 131.306 1020.85 131.369 1020.39 131.496C1019.93 131.623 1019.55 131.804 1019.26 132.038C1018.97 132.272 1018.75 132.556 1018.6 132.888C1018.46 133.21 1018.4 133.576 1018.4 133.986C1018.4 134.27 1018.44 134.543 1018.53 134.807C1018.62 135.061 1018.76 135.29 1018.95 135.495C1019.15 135.69 1019.4 135.847 1019.71 135.964C1020.03 136.081 1020.41 136.14 1020.86 136.14C1021.44 136.14 1022.11 135.964 1022.86 135.612C1023.63 135.251 1024.43 134.685 1025.27 133.913V131.306Z" fill="black"/>
<path d="M1070.54 138L1070.49 136.022C1069.69 136.813 1068.87 137.385 1068.04 137.736C1067.22 138.088 1066.36 138.264 1065.45 138.264C1064.61 138.264 1063.89 138.156 1063.29 137.941C1062.7 137.727 1062.21 137.434 1061.81 137.062C1061.43 136.682 1061.15 136.237 1060.96 135.729C1060.79 135.222 1060.7 134.67 1060.7 134.074C1060.7 132.6 1061.25 131.447 1062.34 130.617C1063.45 129.777 1065.07 129.357 1067.22 129.357H1070.27V128.068C1070.27 127.199 1069.99 126.506 1069.43 125.988C1068.88 125.461 1068.03 125.197 1066.88 125.197C1066.05 125.197 1065.23 125.29 1064.42 125.476C1063.62 125.661 1062.79 125.925 1061.93 126.267V123.967C1062.25 123.85 1062.61 123.737 1063 123.63C1063.4 123.513 1063.82 123.41 1064.26 123.322C1064.7 123.234 1065.16 123.166 1065.64 123.117C1066.12 123.059 1066.6 123.029 1067.09 123.029C1067.98 123.029 1068.78 123.127 1069.49 123.322C1070.2 123.518 1070.8 123.815 1071.29 124.216C1071.79 124.616 1072.17 125.119 1072.43 125.725C1072.7 126.33 1072.83 127.043 1072.83 127.863V138H1070.54ZM1070.27 131.306H1067.03C1066.39 131.306 1065.85 131.369 1065.39 131.496C1064.93 131.623 1064.55 131.804 1064.26 132.038C1063.97 132.272 1063.75 132.556 1063.6 132.888C1063.46 133.21 1063.4 133.576 1063.4 133.986C1063.4 134.27 1063.44 134.543 1063.53 134.807C1063.62 135.061 1063.76 135.29 1063.95 135.495C1064.15 135.69 1064.4 135.847 1064.71 135.964C1065.03 136.081 1065.41 136.14 1065.86 136.14C1066.44 136.14 1067.11 135.964 1067.86 135.612C1068.63 135.251 1069.43 134.685 1070.27 133.913V131.306Z" fill="black"/>
<path d="M1119.17 130.383C1119.17 131.604 1118.99 132.697 1118.65 133.664C1118.32 134.621 1117.84 135.437 1117.22 136.11C1116.6 136.774 1115.85 137.287 1114.96 137.648C1114.07 138 1113.07 138.176 1111.96 138.176C1111.09 138.176 1110.2 138.093 1109.29 137.927C1108.38 137.761 1107.49 137.497 1106.6 137.136V117.302H1109.15V123L1109.03 125.725C1109.76 124.738 1110.54 124.045 1111.37 123.645C1112.21 123.234 1113.11 123.029 1114.07 123.029C1114.91 123.029 1115.64 123.205 1116.28 123.557C1116.91 123.908 1117.45 124.406 1117.88 125.051C1118.31 125.686 1118.63 126.457 1118.84 127.365C1119.06 128.264 1119.17 129.27 1119.17 130.383ZM1116.56 130.5C1116.56 129.729 1116.5 129.021 1116.38 128.376C1116.27 127.731 1116.1 127.18 1115.85 126.721C1115.61 126.262 1115.3 125.905 1114.92 125.651C1114.54 125.388 1114.08 125.256 1113.55 125.256C1113.23 125.256 1112.91 125.31 1112.57 125.417C1112.24 125.515 1111.89 125.686 1111.53 125.93C1111.18 126.164 1110.81 126.481 1110.41 126.882C1110.01 127.272 1109.59 127.761 1109.15 128.347V135.48C1109.64 135.676 1110.15 135.832 1110.67 135.949C1111.19 136.057 1111.68 136.11 1112.15 136.11C1112.73 136.11 1113.29 136.018 1113.82 135.832C1114.36 135.646 1114.82 135.339 1115.22 134.909C1115.63 134.47 1115.96 133.894 1116.19 133.181C1116.44 132.458 1116.56 131.564 1116.56 130.5Z" fill="black"/>
<path d="M1160.54 138L1160.49 136.022C1159.69 136.813 1158.87 137.385 1158.04 137.736C1157.22 138.088 1156.36 138.264 1155.45 138.264C1154.61 138.264 1153.89 138.156 1153.29 137.941C1152.7 137.727 1152.21 137.434 1151.81 137.062C1151.43 136.682 1151.15 136.237 1150.96 135.729C1150.79 135.222 1150.7 134.67 1150.7 134.074C1150.7 132.6 1151.25 131.447 1152.34 130.617C1153.45 129.777 1155.07 129.357 1157.22 129.357H1160.27V128.068C1160.27 127.199 1159.99 126.506 1159.43 125.988C1158.88 125.461 1158.03 125.197 1156.88 125.197C1156.05 125.197 1155.23 125.29 1154.42 125.476C1153.62 125.661 1152.79 125.925 1151.93 126.267V123.967C1152.25 123.85 1152.61 123.737 1153 123.63C1153.4 123.513 1153.82 123.41 1154.26 123.322C1154.7 123.234 1155.16 123.166 1155.64 123.117C1156.12 123.059 1156.6 123.029 1157.09 123.029C1157.98 123.029 1158.78 123.127 1159.49 123.322C1160.2 123.518 1160.8 123.815 1161.29 124.216C1161.79 124.616 1162.17 125.119 1162.43 125.725C1162.7 126.33 1162.83 127.043 1162.83 127.863V138H1160.54ZM1160.27 131.306H1157.03C1156.39 131.306 1155.85 131.369 1155.39 131.496C1154.93 131.623 1154.55 131.804 1154.26 132.038C1153.97 132.272 1153.75 132.556 1153.6 132.888C1153.46 133.21 1153.4 133.576 1153.4 133.986C1153.4 134.27 1153.44 134.543 1153.53 134.807C1153.62 135.061 1153.76 135.29 1153.95 135.495C1154.15 135.69 1154.4 135.847 1154.71 135.964C1155.03 136.081 1155.41 136.14 1155.86 136.14C1156.44 136.14 1157.11 135.964 1157.86 135.612C1158.63 135.251 1159.43 134.685 1160.27 133.913V131.306Z" fill="black"/>
<path d="M1208.67 130.383C1208.67 131.604 1208.49 132.697 1208.15 133.664C1207.82 134.621 1207.34 135.437 1206.72 136.11C1206.1 136.774 1205.35 137.287 1204.46 137.648C1203.57 138 1202.57 138.176 1201.46 138.176C1200.59 138.176 1199.7 138.093 1198.79 137.927C1197.88 137.761 1196.99 137.497 1196.1 137.136V117.302H1198.65V123L1198.53 125.725C1199.26 124.738 1200.04 124.045 1200.87 123.645C1201.71 123.234 1202.61 123.029 1203.57 123.029C1204.41 123.029 1205.14 123.205 1205.78 123.557C1206.41 123.908 1206.95 124.406 1207.38 125.051C1207.81 125.686 1208.13 126.457 1208.34 127.365C1208.56 128.264 1208.67 129.27 1208.67 130.383ZM1206.06 130.5C1206.06 129.729 1206 129.021 1205.88 128.376C1205.77 127.731 1205.6 127.18 1205.35 126.721C1205.11 126.262 1204.8 125.905 1204.42 125.651C1204.04 125.388 1203.58 125.256 1203.05 125.256C1202.73 125.256 1202.41 125.31 1202.07 125.417C1201.74 125.515 1201.39 125.686 1201.03 125.93C1200.68 126.164 1200.31 126.481 1199.91 126.882C1199.51 127.272 1199.09 127.761 1198.65 128.347V135.48C1199.14 135.676 1199.65 135.832 1200.17 135.949C1200.69 136.057 1201.18 136.11 1201.65 136.11C1202.23 136.11 1202.79 136.018 1203.32 135.832C1203.86 135.646 1204.32 135.339 1204.72 134.909C1205.13 134.47 1205.46 133.894 1205.69 133.181C1205.94 132.458 1206.06 131.564 1206.06 130.5Z" fill="black"/>
<path d="M17.9102 63.5977H15.0098V62.2012H19.6289V74.584H22.5488V76H14.6875V74.584H17.9102V63.5977ZM33.8477 70.5801C33.8477 70.821 33.8444 71.0228 33.8379 71.1855C33.8314 71.3483 33.8216 71.5013 33.8086 71.6445H26.9238C26.9238 72.6471 27.2038 73.4186 27.7637 73.959C28.3236 74.4928 29.1309 74.7598 30.1855 74.7598C30.472 74.7598 30.7585 74.75 31.0449 74.7305C31.3314 74.7044 31.6081 74.6719 31.875 74.6328C32.1419 74.5938 32.3958 74.5514 32.6367 74.5059C32.8841 74.4538 33.112 74.3984 33.3203 74.3398V75.7363C32.8581 75.8665 32.334 75.9707 31.748 76.0488C31.1686 76.1335 30.5664 76.1758 29.9414 76.1758C29.1016 76.1758 28.3789 76.0618 27.7734 75.834C27.168 75.6061 26.6699 75.2773 26.2793 74.8477C25.8952 74.4115 25.6087 73.8809 25.4199 73.2559C25.2376 72.6243 25.1465 71.9115 25.1465 71.1172C25.1465 70.4271 25.2441 69.776 25.4395 69.1641C25.6413 68.5456 25.931 68.0052 26.3086 67.543C26.6927 67.0742 27.1615 66.7031 27.7148 66.4297C28.2682 66.1562 28.8965 66.0195 29.5996 66.0195C30.2832 66.0195 30.8887 66.127 31.416 66.3418C31.9434 66.5566 32.3861 66.8626 32.7441 67.2598C33.1087 67.6504 33.3822 68.1289 33.5645 68.6953C33.7533 69.2552 33.8477 69.8835 33.8477 70.5801ZM32.0801 70.3359C32.0996 69.8997 32.0573 69.5026 31.9531 69.1445C31.849 68.7799 31.6862 68.4674 31.4648 68.207C31.25 67.9466 30.9798 67.7448 30.6543 67.6016C30.3288 67.4518 29.9512 67.377 29.5215 67.377C29.1504 67.377 28.8118 67.4486 28.5059 67.5918C28.1999 67.735 27.9362 67.9368 27.7148 68.1973C27.4935 68.4577 27.3145 68.7702 27.1777 69.1348C27.041 69.4993 26.9564 69.8997 26.9238 70.3359H32.0801ZM45.2637 63.7832C44.3717 63.5944 43.6035 63.5 42.959 63.5C41.429 63.5 40.6641 64.3008 40.6641 65.9023V67.6211H44.9609V69.0371H40.6641V76H38.9355V69.0371H35.7812V67.6211H38.9355V66C38.9355 63.3893 40.2962 62.084 43.0176 62.084C43.6947 62.084 44.4434 62.1621 45.2637 62.3184V63.7832ZM55.459 75.8633C55.0749 75.9609 54.6777 76.0293 54.2676 76.0684C53.8574 76.1139 53.4408 76.1367 53.0176 76.1367C51.7871 76.1367 50.8691 75.86 50.2637 75.3066C49.6582 74.7467 49.3555 73.8906 49.3555 72.7383V67.6211H46.6113V66.1953H49.3555V63.5L51.0547 63.0605V66.1953H55.459V67.6211H51.0547V72.6016C51.0547 73.3047 51.2402 73.832 51.6113 74.1836C51.9889 74.5286 52.5423 74.7012 53.2715 74.7012C53.584 74.7012 53.9258 74.6784 54.2969 74.6328C54.668 74.5807 55.0553 74.5026 55.459 74.3984V75.8633Z" fill="#FF5500"/>
<path d="M98.9727 66.1953H100.525L100.574 68.002C101.154 67.3053 101.723 66.8008 102.283 66.4883C102.85 66.1758 103.419 66.0195 103.992 66.0195C105.008 66.0195 105.776 66.3483 106.297 67.0059C106.824 67.6634 107.068 68.64 107.029 69.9355H105.311C105.33 69.0762 105.203 68.4544 104.93 68.0703C104.663 67.6797 104.269 67.4844 103.748 67.4844C103.52 67.4844 103.289 67.5267 103.055 67.6113C102.827 67.6895 102.589 67.8197 102.342 68.002C102.101 68.1777 101.844 68.4056 101.57 68.6855C101.297 68.9655 101.004 69.304 100.691 69.7012V76H98.9727V66.1953ZM112.908 67.6016H110.008V66.1953H114.627V74.584H117.547V76H109.686V74.584H112.908V67.6016ZM113.504 62.084C113.693 62.084 113.868 62.1198 114.031 62.1914C114.194 62.2565 114.334 62.3509 114.451 62.4746C114.575 62.5983 114.669 62.7415 114.734 62.9043C114.806 63.0605 114.842 63.2331 114.842 63.4219C114.842 63.6042 114.806 63.7767 114.734 63.9395C114.669 64.1022 114.575 64.2454 114.451 64.3691C114.334 64.4928 114.194 64.5905 114.031 64.6621C113.868 64.7272 113.693 64.7598 113.504 64.7598C113.315 64.7598 113.139 64.7272 112.977 64.6621C112.814 64.5905 112.671 64.4928 112.547 64.3691C112.43 64.2454 112.335 64.1022 112.264 63.9395C112.199 63.7767 112.166 63.6042 112.166 63.4219C112.166 63.2331 112.199 63.0605 112.264 62.9043C112.335 62.7415 112.43 62.5983 112.547 62.4746C112.671 62.3509 112.814 62.2565 112.977 62.1914C113.139 62.1198 113.315 62.084 113.504 62.084ZM127.625 67.582C127.807 67.8099 127.947 68.0768 128.045 68.3828C128.149 68.6823 128.201 69.0078 128.201 69.3594C128.201 69.8672 128.107 70.3327 127.918 70.7559C127.736 71.1725 127.475 71.5306 127.137 71.8301C126.798 72.1296 126.391 72.3639 125.916 72.5332C125.447 72.696 124.93 72.7773 124.363 72.7773C123.953 72.7773 123.569 72.735 123.211 72.6504C122.853 72.5592 122.57 72.4486 122.361 72.3184C122.238 72.5007 122.133 72.6732 122.049 72.8359C121.964 72.9987 121.922 73.181 121.922 73.3828C121.922 73.6302 122.039 73.8353 122.273 73.998C122.514 74.1608 122.83 74.2487 123.221 74.2617L125.799 74.3594C126.287 74.3724 126.736 74.4342 127.146 74.5449C127.563 74.6556 127.918 74.8151 128.211 75.0234C128.51 75.2318 128.742 75.4889 128.904 75.7949C129.074 76.1009 129.158 76.4557 129.158 76.8594C129.158 77.2956 129.064 77.709 128.875 78.0996C128.686 78.4902 128.393 78.832 127.996 79.125C127.605 79.4245 127.107 79.6621 126.502 79.8379C125.896 80.0137 125.177 80.1016 124.344 80.1016C123.549 80.1016 122.872 80.0365 122.312 79.9062C121.759 79.7826 121.303 79.6068 120.945 79.3789C120.587 79.1576 120.327 78.8906 120.164 78.5781C120.001 78.2721 119.92 77.9336 119.92 77.5625C119.92 77.0872 120.031 76.6706 120.252 76.3125C120.473 75.9544 120.815 75.6094 121.277 75.2773C121.108 75.1992 120.962 75.1016 120.838 74.9844C120.714 74.8672 120.613 74.7402 120.535 74.6035C120.457 74.4603 120.398 74.3105 120.359 74.1543C120.32 73.998 120.301 73.8451 120.301 73.6953C120.301 73.2721 120.398 72.8848 120.594 72.5332C120.796 72.1816 121.033 71.8496 121.307 71.5371C121.183 71.3874 121.072 71.2409 120.975 71.0977C120.883 70.9544 120.802 70.8014 120.73 70.6387C120.665 70.4694 120.613 70.2904 120.574 70.1016C120.542 69.9062 120.525 69.6849 120.525 69.4375C120.525 68.9297 120.617 68.4674 120.799 68.0508C120.988 67.6276 121.248 67.2663 121.58 66.9668C121.919 66.6673 122.322 66.4362 122.791 66.2734C123.266 66.1042 123.79 66.0195 124.363 66.0195C124.604 66.0195 124.835 66.0358 125.057 66.0684C125.278 66.1009 125.473 66.1432 125.643 66.1953H129.197V67.582H127.625ZM121.727 77.416C121.727 77.8783 121.967 78.2135 122.449 78.4219C122.931 78.6367 123.602 78.7441 124.461 78.7441C125.001 78.7441 125.454 78.6953 125.818 78.5977C126.189 78.5 126.486 78.3698 126.707 78.207C126.935 78.0508 127.098 77.8685 127.195 77.6602C127.293 77.4583 127.342 77.25 127.342 77.0352C127.342 76.638 127.179 76.3451 126.854 76.1562C126.528 75.9674 126.03 75.8568 125.359 75.8242L122.801 75.7363C122.586 75.8796 122.407 76.0195 122.264 76.1562C122.127 76.293 122.02 76.4297 121.941 76.5664C121.863 76.7096 121.808 76.8496 121.775 76.9863C121.743 77.1296 121.727 77.2728 121.727 77.416ZM122.244 69.3984C122.244 69.7109 122.296 69.9974 122.4 70.2578C122.505 70.5182 122.651 70.7396 122.84 70.9219C123.029 71.1042 123.25 71.2474 123.504 71.3516C123.764 71.4492 124.051 71.498 124.363 71.498C124.702 71.498 125.001 71.4427 125.262 71.332C125.529 71.2148 125.75 71.0586 125.926 70.8633C126.108 70.668 126.245 70.4434 126.336 70.1895C126.434 69.9355 126.482 69.6719 126.482 69.3984C126.482 69.0859 126.43 68.7995 126.326 68.5391C126.222 68.2786 126.076 68.0573 125.887 67.875C125.698 67.6927 125.473 67.5527 125.213 67.4551C124.959 67.3509 124.676 67.2988 124.363 67.2988C124.025 67.2988 123.722 67.3574 123.455 67.4746C123.195 67.5918 122.973 67.748 122.791 67.9434C122.615 68.1322 122.479 68.3535 122.381 68.6074C122.29 68.8613 122.244 69.125 122.244 69.3984ZM139.441 76H137.742V69.7402C137.742 68.985 137.599 68.4219 137.312 68.0508C137.033 67.6732 136.629 67.4844 136.102 67.4844C135.874 67.4844 135.659 67.5169 135.457 67.582C135.262 67.6406 135.057 67.748 134.842 67.9043C134.627 68.054 134.393 68.2591 134.139 68.5195C133.885 68.7799 133.592 69.1055 133.26 69.4961V76H131.561V62.2012H133.26V66.1953L133.201 67.7383C133.468 67.4193 133.729 67.1523 133.982 66.9375C134.243 66.7161 134.5 66.5371 134.754 66.4004C135.014 66.2637 135.278 66.166 135.545 66.1074C135.812 66.0488 136.089 66.0195 136.375 66.0195C137.352 66.0195 138.107 66.319 138.641 66.918C139.174 67.5104 139.441 68.4056 139.441 69.6035V76ZM150.457 75.8633C150.073 75.9609 149.676 76.0293 149.266 76.0684C148.855 76.1139 148.439 76.1367 148.016 76.1367C146.785 76.1367 145.867 75.86 145.262 75.3066C144.656 74.7467 144.354 73.8906 144.354 72.7383V67.6211H141.609V66.1953H144.354V63.5L146.053 63.0605V66.1953H150.457V67.6211H146.053V72.6016C146.053 73.3047 146.238 73.832 146.609 74.1836C146.987 74.5286 147.54 74.7012 148.27 74.7012C148.582 74.7012 148.924 74.6784 149.295 74.6328C149.666 74.5807 150.053 74.5026 150.457 74.3984V75.8633Z" fill="#FF5500"/>
<path d="M34.2929 111.707C34.6834 112.098 35.3166 112.098 35.7071 111.707L42.0711 105.343C42.4616 104.953 42.4616 104.319 42.0711 103.929C41.6805 103.538 41.0474 103.538 40.6569 103.929L35 109.586L29.3431 103.929C28.9526 103.538 28.3195 103.538 27.9289 103.929C27.5384 104.319 27.5384 104.953 27.9289 105.343L34.2929 111.707ZM34 84L34 111L36 111L36 84L34 84Z" fill="#FF5500"/>
<path d="M123.293 111.707C123.683 112.098 124.317 112.098 124.707 111.707L131.071 105.343C131.462 104.953 131.462 104.319 131.071 103.929C130.681 103.538 130.047 103.538 129.657 103.929L124 109.586L118.343 103.929C117.953 103.538 117.319 103.538 116.929 103.929C116.538 104.319 116.538 104.953 116.929 105.343L123.293 111.707ZM123 84L123 111L125 111L125 84L123 84Z" fill="#FF5500"/>
<path d="M376.91 62.5977H374.01V61.2012H378.629V73.584H381.549V75H373.688V73.584H376.91V62.5977ZM392.848 69.5801C392.848 69.821 392.844 70.0228 392.838 70.1855C392.831 70.3483 392.822 70.5013 392.809 70.6445H385.924C385.924 71.6471 386.204 72.4186 386.764 72.959C387.324 73.4928 388.131 73.7598 389.186 73.7598C389.472 73.7598 389.758 73.75 390.045 73.7305C390.331 73.7044 390.608 73.6719 390.875 73.6328C391.142 73.5938 391.396 73.5514 391.637 73.5059C391.884 73.4538 392.112 73.3984 392.32 73.3398V74.7363C391.858 74.8665 391.334 74.9707 390.748 75.0488C390.169 75.1335 389.566 75.1758 388.941 75.1758C388.102 75.1758 387.379 75.0618 386.773 74.834C386.168 74.6061 385.67 74.2773 385.279 73.8477C384.895 73.4115 384.609 72.8809 384.42 72.2559C384.238 71.6243 384.146 70.9115 384.146 70.1172C384.146 69.4271 384.244 68.776 384.439 68.1641C384.641 67.5456 384.931 67.0052 385.309 66.543C385.693 66.0742 386.161 65.7031 386.715 65.4297C387.268 65.1562 387.896 65.0195 388.6 65.0195C389.283 65.0195 389.889 65.127 390.416 65.3418C390.943 65.5566 391.386 65.8626 391.744 66.2598C392.109 66.6504 392.382 67.1289 392.564 67.6953C392.753 68.2552 392.848 68.8835 392.848 69.5801ZM391.08 69.3359C391.1 68.8997 391.057 68.5026 390.953 68.1445C390.849 67.7799 390.686 67.4674 390.465 67.207C390.25 66.9466 389.98 66.7448 389.654 66.6016C389.329 66.4518 388.951 66.377 388.521 66.377C388.15 66.377 387.812 66.4486 387.506 66.5918C387.2 66.735 386.936 66.9368 386.715 67.1973C386.493 67.4577 386.314 67.7702 386.178 68.1348C386.041 68.4993 385.956 68.8997 385.924 69.3359H391.08ZM404.264 62.7832C403.372 62.5944 402.604 62.5 401.959 62.5C400.429 62.5 399.664 63.3008 399.664 64.9023V66.6211H403.961V68.0371H399.664V75H397.936V68.0371H394.781V66.6211H397.936V65C397.936 62.3893 399.296 61.084 402.018 61.084C402.695 61.084 403.443 61.1621 404.264 61.3184V62.7832ZM414.459 74.8633C414.075 74.9609 413.678 75.0293 413.268 75.0684C412.857 75.1139 412.441 75.1367 412.018 75.1367C410.787 75.1367 409.869 74.86 409.264 74.3066C408.658 73.7467 408.355 72.8906 408.355 71.7383V66.6211H405.611V65.1953H408.355V62.5L410.055 62.0605V65.1953H414.459V66.6211H410.055V71.6016C410.055 72.3047 410.24 72.832 410.611 73.1836C410.989 73.5286 411.542 73.7012 412.271 73.7012C412.584 73.7012 412.926 73.6784 413.297 73.6328C413.668 73.5807 414.055 73.5026 414.459 73.3984V74.8633Z" fill="#FF5500"/>
<path d="M457.973 65.1953H459.525L459.574 67.002C460.154 66.3053 460.723 65.8008 461.283 65.4883C461.85 65.1758 462.419 65.0195 462.992 65.0195C464.008 65.0195 464.776 65.3483 465.297 66.0059C465.824 66.6634 466.068 67.64 466.029 68.9355H464.311C464.33 68.0762 464.203 67.4544 463.93 67.0703C463.663 66.6797 463.269 66.4844 462.748 66.4844C462.52 66.4844 462.289 66.5267 462.055 66.6113C461.827 66.6895 461.589 66.8197 461.342 67.002C461.101 67.1777 460.844 67.4056 460.57 67.6855C460.297 67.9655 460.004 68.304 459.691 68.7012V75H457.973V65.1953ZM471.908 66.6016H469.008V65.1953H473.627V73.584H476.547V75H468.686V73.584H471.908V66.6016ZM472.504 61.084C472.693 61.084 472.868 61.1198 473.031 61.1914C473.194 61.2565 473.334 61.3509 473.451 61.4746C473.575 61.5983 473.669 61.7415 473.734 61.9043C473.806 62.0605 473.842 62.2331 473.842 62.4219C473.842 62.6042 473.806 62.7767 473.734 62.9395C473.669 63.1022 473.575 63.2454 473.451 63.3691C473.334 63.4928 473.194 63.5905 473.031 63.6621C472.868 63.7272 472.693 63.7598 472.504 63.7598C472.315 63.7598 472.139 63.7272 471.977 63.6621C471.814 63.5905 471.671 63.4928 471.547 63.3691C471.43 63.2454 471.335 63.1022 471.264 62.9395C471.199 62.7767 471.166 62.6042 471.166 62.4219C471.166 62.2331 471.199 62.0605 471.264 61.9043C471.335 61.7415 471.43 61.5983 471.547 61.4746C471.671 61.3509 471.814 61.2565 471.977 61.1914C472.139 61.1198 472.315 61.084 472.504 61.084ZM486.625 66.582C486.807 66.8099 486.947 67.0768 487.045 67.3828C487.149 67.6823 487.201 68.0078 487.201 68.3594C487.201 68.8672 487.107 69.3327 486.918 69.7559C486.736 70.1725 486.475 70.5306 486.137 70.8301C485.798 71.1296 485.391 71.3639 484.916 71.5332C484.447 71.696 483.93 71.7773 483.363 71.7773C482.953 71.7773 482.569 71.735 482.211 71.6504C481.853 71.5592 481.57 71.4486 481.361 71.3184C481.238 71.5007 481.133 71.6732 481.049 71.8359C480.964 71.9987 480.922 72.181 480.922 72.3828C480.922 72.6302 481.039 72.8353 481.273 72.998C481.514 73.1608 481.83 73.2487 482.221 73.2617L484.799 73.3594C485.287 73.3724 485.736 73.4342 486.146 73.5449C486.563 73.6556 486.918 73.8151 487.211 74.0234C487.51 74.2318 487.742 74.4889 487.904 74.7949C488.074 75.1009 488.158 75.4557 488.158 75.8594C488.158 76.2956 488.064 76.709 487.875 77.0996C487.686 77.4902 487.393 77.832 486.996 78.125C486.605 78.4245 486.107 78.6621 485.502 78.8379C484.896 79.0137 484.177 79.1016 483.344 79.1016C482.549 79.1016 481.872 79.0365 481.312 78.9062C480.759 78.7826 480.303 78.6068 479.945 78.3789C479.587 78.1576 479.327 77.8906 479.164 77.5781C479.001 77.2721 478.92 76.9336 478.92 76.5625C478.92 76.0872 479.031 75.6706 479.252 75.3125C479.473 74.9544 479.815 74.6094 480.277 74.2773C480.108 74.1992 479.962 74.1016 479.838 73.9844C479.714 73.8672 479.613 73.7402 479.535 73.6035C479.457 73.4603 479.398 73.3105 479.359 73.1543C479.32 72.998 479.301 72.8451 479.301 72.6953C479.301 72.2721 479.398 71.8848 479.594 71.5332C479.796 71.1816 480.033 70.8496 480.307 70.5371C480.183 70.3874 480.072 70.2409 479.975 70.0977C479.883 69.9544 479.802 69.8014 479.73 69.6387C479.665 69.4694 479.613 69.2904 479.574 69.1016C479.542 68.9062 479.525 68.6849 479.525 68.4375C479.525 67.9297 479.617 67.4674 479.799 67.0508C479.988 66.6276 480.248 66.2663 480.58 65.9668C480.919 65.6673 481.322 65.4362 481.791 65.2734C482.266 65.1042 482.79 65.0195 483.363 65.0195C483.604 65.0195 483.835 65.0358 484.057 65.0684C484.278 65.1009 484.473 65.1432 484.643 65.1953H488.197V66.582H486.625ZM480.727 76.416C480.727 76.8783 480.967 77.2135 481.449 77.4219C481.931 77.6367 482.602 77.7441 483.461 77.7441C484.001 77.7441 484.454 77.6953 484.818 77.5977C485.189 77.5 485.486 77.3698 485.707 77.207C485.935 77.0508 486.098 76.8685 486.195 76.6602C486.293 76.4583 486.342 76.25 486.342 76.0352C486.342 75.638 486.179 75.3451 485.854 75.1562C485.528 74.9674 485.03 74.8568 484.359 74.8242L481.801 74.7363C481.586 74.8796 481.407 75.0195 481.264 75.1562C481.127 75.293 481.02 75.4297 480.941 75.5664C480.863 75.7096 480.808 75.8496 480.775 75.9863C480.743 76.1296 480.727 76.2728 480.727 76.416ZM481.244 68.3984C481.244 68.7109 481.296 68.9974 481.4 69.2578C481.505 69.5182 481.651 69.7396 481.84 69.9219C482.029 70.1042 482.25 70.2474 482.504 70.3516C482.764 70.4492 483.051 70.498 483.363 70.498C483.702 70.498 484.001 70.4427 484.262 70.332C484.529 70.2148 484.75 70.0586 484.926 69.8633C485.108 69.668 485.245 69.4434 485.336 69.1895C485.434 68.9355 485.482 68.6719 485.482 68.3984C485.482 68.0859 485.43 67.7995 485.326 67.5391C485.222 67.2786 485.076 67.0573 484.887 66.875C484.698 66.6927 484.473 66.5527 484.213 66.4551C483.959 66.3509 483.676 66.2988 483.363 66.2988C483.025 66.2988 482.722 66.3574 482.455 66.4746C482.195 66.5918 481.973 66.748 481.791 66.9434C481.615 67.1322 481.479 67.3535 481.381 67.6074C481.29 67.8613 481.244 68.125 481.244 68.3984ZM498.441 75H496.742V68.7402C496.742 67.985 496.599 67.4219 496.312 67.0508C496.033 66.6732 495.629 66.4844 495.102 66.4844C494.874 66.4844 494.659 66.5169 494.457 66.582C494.262 66.6406 494.057 66.748 493.842 66.9043C493.627 67.054 493.393 67.2591 493.139 67.5195C492.885 67.7799 492.592 68.1055 492.26 68.4961V75H490.561V61.2012H492.26V65.1953L492.201 66.7383C492.468 66.4193 492.729 66.1523 492.982 65.9375C493.243 65.7161 493.5 65.5371 493.754 65.4004C494.014 65.2637 494.278 65.166 494.545 65.1074C494.812 65.0488 495.089 65.0195 495.375 65.0195C496.352 65.0195 497.107 65.319 497.641 65.918C498.174 66.5104 498.441 67.4056 498.441 68.6035V75ZM509.457 74.8633C509.073 74.9609 508.676 75.0293 508.266 75.0684C507.855 75.1139 507.439 75.1367 507.016 75.1367C505.785 75.1367 504.867 74.86 504.262 74.3066C503.656 73.7467 503.354 72.8906 503.354 71.7383V66.6211H500.609V65.1953H503.354V62.5L505.053 62.0605V65.1953H509.457V66.6211H505.053V71.6016C505.053 72.3047 505.238 72.832 505.609 73.1836C505.987 73.5286 506.54 73.7012 507.27 73.7012C507.582 73.7012 507.924 73.6784 508.295 73.6328C508.666 73.5807 509.053 73.5026 509.457 73.3984V74.8633Z" fill="#FF5500"/>
<path d="M393.293 110.707C393.683 111.098 394.317 111.098 394.707 110.707L401.071 104.343C401.462 103.953 401.462 103.319 401.071 102.929C400.681 102.538 400.047 102.538 399.657 102.929L394 108.586L388.343 102.929C387.953 102.538 387.319 102.538 386.929 102.929C386.538 103.319 386.538 103.953 386.929 104.343L393.293 110.707ZM393 83L393 110L395 110L395 83L393 83Z" fill="#FF5500"/>
<path d="M482.293 110.707C482.683 111.098 483.317 111.098 483.707 110.707L490.071 104.343C490.462 103.953 490.462 103.319 490.071 102.929C489.681 102.538 489.047 102.538 488.657 102.929L483 108.586L477.343 102.929C476.953 102.538 476.319 102.538 475.929 102.929C475.538 103.319 475.538 103.953 475.929 104.343L482.293 110.707ZM482 83L482 110L484 110L484 83L482 83Z" fill="#FF5500"/>
<path d="M734.91 62.5977H732.01V61.2012H736.629V73.584H739.549V75H731.688V73.584H734.91V62.5977ZM750.848 69.5801C750.848 69.821 750.844 70.0228 750.838 70.1855C750.831 70.3483 750.822 70.5013 750.809 70.6445H743.924C743.924 71.6471 744.204 72.4186 744.764 72.959C745.324 73.4928 746.131 73.7598 747.186 73.7598C747.472 73.7598 747.758 73.75 748.045 73.7305C748.331 73.7044 748.608 73.6719 748.875 73.6328C749.142 73.5938 749.396 73.5514 749.637 73.5059C749.884 73.4538 750.112 73.3984 750.32 73.3398V74.7363C749.858 74.8665 749.334 74.9707 748.748 75.0488C748.169 75.1335 747.566 75.1758 746.941 75.1758C746.102 75.1758 745.379 75.0618 744.773 74.834C744.168 74.6061 743.67 74.2773 743.279 73.8477C742.895 73.4115 742.609 72.8809 742.42 72.2559C742.238 71.6243 742.146 70.9115 742.146 70.1172C742.146 69.4271 742.244 68.776 742.439 68.1641C742.641 67.5456 742.931 67.0052 743.309 66.543C743.693 66.0742 744.161 65.7031 744.715 65.4297C745.268 65.1562 745.896 65.0195 746.6 65.0195C747.283 65.0195 747.889 65.127 748.416 65.3418C748.943 65.5566 749.386 65.8626 749.744 66.2598C750.109 66.6504 750.382 67.1289 750.564 67.6953C750.753 68.2552 750.848 68.8835 750.848 69.5801ZM749.08 69.3359C749.1 68.8997 749.057 68.5026 748.953 68.1445C748.849 67.7799 748.686 67.4674 748.465 67.207C748.25 66.9466 747.98 66.7448 747.654 66.6016C747.329 66.4518 746.951 66.377 746.521 66.377C746.15 66.377 745.812 66.4486 745.506 66.5918C745.2 66.735 744.936 66.9368 744.715 67.1973C744.493 67.4577 744.314 67.7702 744.178 68.1348C744.041 68.4993 743.956 68.8997 743.924 69.3359H749.08ZM762.264 62.7832C761.372 62.5944 760.604 62.5 759.959 62.5C758.429 62.5 757.664 63.3008 757.664 64.9023V66.6211H761.961V68.0371H757.664V75H755.936V68.0371H752.781V66.6211H755.936V65C755.936 62.3893 757.296 61.084 760.018 61.084C760.695 61.084 761.443 61.1621 762.264 61.3184V62.7832ZM772.459 74.8633C772.075 74.9609 771.678 75.0293 771.268 75.0684C770.857 75.1139 770.441 75.1367 770.018 75.1367C768.787 75.1367 767.869 74.86 767.264 74.3066C766.658 73.7467 766.355 72.8906 766.355 71.7383V66.6211H763.611V65.1953H766.355V62.5L768.055 62.0605V65.1953H772.459V66.6211H768.055V71.6016C768.055 72.3047 768.24 72.832 768.611 73.1836C768.989 73.5286 769.542 73.7012 770.271 73.7012C770.584 73.7012 770.926 73.6784 771.297 73.6328C771.668 73.5807 772.055 73.5026 772.459 73.3984V74.8633Z" fill="#FF5500"/>
<path d="M815.973 65.1953H817.525L817.574 67.002C818.154 66.3053 818.723 65.8008 819.283 65.4883C819.85 65.1758 820.419 65.0195 820.992 65.0195C822.008 65.0195 822.776 65.3483 823.297 66.0059C823.824 66.6634 824.068 67.64 824.029 68.9355H822.311C822.33 68.0762 822.203 67.4544 821.93 67.0703C821.663 66.6797 821.269 66.4844 820.748 66.4844C820.52 66.4844 820.289 66.5267 820.055 66.6113C819.827 66.6895 819.589 66.8197 819.342 67.002C819.101 67.1777 818.844 67.4056 818.57 67.6855C818.297 67.9655 818.004 68.304 817.691 68.7012V75H815.973V65.1953ZM829.908 66.6016H827.008V65.1953H831.627V73.584H834.547V75H826.686V73.584H829.908V66.6016ZM830.504 61.084C830.693 61.084 830.868 61.1198 831.031 61.1914C831.194 61.2565 831.334 61.3509 831.451 61.4746C831.575 61.5983 831.669 61.7415 831.734 61.9043C831.806 62.0605 831.842 62.2331 831.842 62.4219C831.842 62.6042 831.806 62.7767 831.734 62.9395C831.669 63.1022 831.575 63.2454 831.451 63.3691C831.334 63.4928 831.194 63.5905 831.031 63.6621C830.868 63.7272 830.693 63.7598 830.504 63.7598C830.315 63.7598 830.139 63.7272 829.977 63.6621C829.814 63.5905 829.671 63.4928 829.547 63.3691C829.43 63.2454 829.335 63.1022 829.264 62.9395C829.199 62.7767 829.166 62.6042 829.166 62.4219C829.166 62.2331 829.199 62.0605 829.264 61.9043C829.335 61.7415 829.43 61.5983 829.547 61.4746C829.671 61.3509 829.814 61.2565 829.977 61.1914C830.139 61.1198 830.315 61.084 830.504 61.084ZM844.625 66.582C844.807 66.8099 844.947 67.0768 845.045 67.3828C845.149 67.6823 845.201 68.0078 845.201 68.3594C845.201 68.8672 845.107 69.3327 844.918 69.7559C844.736 70.1725 844.475 70.5306 844.137 70.8301C843.798 71.1296 843.391 71.3639 842.916 71.5332C842.447 71.696 841.93 71.7773 841.363 71.7773C840.953 71.7773 840.569 71.735 840.211 71.6504C839.853 71.5592 839.57 71.4486 839.361 71.3184C839.238 71.5007 839.133 71.6732 839.049 71.8359C838.964 71.9987 838.922 72.181 838.922 72.3828C838.922 72.6302 839.039 72.8353 839.273 72.998C839.514 73.1608 839.83 73.2487 840.221 73.2617L842.799 73.3594C843.287 73.3724 843.736 73.4342 844.146 73.5449C844.563 73.6556 844.918 73.8151 845.211 74.0234C845.51 74.2318 845.742 74.4889 845.904 74.7949C846.074 75.1009 846.158 75.4557 846.158 75.8594C846.158 76.2956 846.064 76.709 845.875 77.0996C845.686 77.4902 845.393 77.832 844.996 78.125C844.605 78.4245 844.107 78.6621 843.502 78.8379C842.896 79.0137 842.177 79.1016 841.344 79.1016C840.549 79.1016 839.872 79.0365 839.312 78.9062C838.759 78.7826 838.303 78.6068 837.945 78.3789C837.587 78.1576 837.327 77.8906 837.164 77.5781C837.001 77.2721 836.92 76.9336 836.92 76.5625C836.92 76.0872 837.031 75.6706 837.252 75.3125C837.473 74.9544 837.815 74.6094 838.277 74.2773C838.108 74.1992 837.962 74.1016 837.838 73.9844C837.714 73.8672 837.613 73.7402 837.535 73.6035C837.457 73.4603 837.398 73.3105 837.359 73.1543C837.32 72.998 837.301 72.8451 837.301 72.6953C837.301 72.2721 837.398 71.8848 837.594 71.5332C837.796 71.1816 838.033 70.8496 838.307 70.5371C838.183 70.3874 838.072 70.2409 837.975 70.0977C837.883 69.9544 837.802 69.8014 837.73 69.6387C837.665 69.4694 837.613 69.2904 837.574 69.1016C837.542 68.9062 837.525 68.6849 837.525 68.4375C837.525 67.9297 837.617 67.4674 837.799 67.0508C837.988 66.6276 838.248 66.2663 838.58 65.9668C838.919 65.6673 839.322 65.4362 839.791 65.2734C840.266 65.1042 840.79 65.0195 841.363 65.0195C841.604 65.0195 841.835 65.0358 842.057 65.0684C842.278 65.1009 842.473 65.1432 842.643 65.1953H846.197V66.582H844.625ZM838.727 76.416C838.727 76.8783 838.967 77.2135 839.449 77.4219C839.931 77.6367 840.602 77.7441 841.461 77.7441C842.001 77.7441 842.454 77.6953 842.818 77.5977C843.189 77.5 843.486 77.3698 843.707 77.207C843.935 77.0508 844.098 76.8685 844.195 76.6602C844.293 76.4583 844.342 76.25 844.342 76.0352C844.342 75.638 844.179 75.3451 843.854 75.1562C843.528 74.9674 843.03 74.8568 842.359 74.8242L839.801 74.7363C839.586 74.8796 839.407 75.0195 839.264 75.1562C839.127 75.293 839.02 75.4297 838.941 75.5664C838.863 75.7096 838.808 75.8496 838.775 75.9863C838.743 76.1296 838.727 76.2728 838.727 76.416ZM839.244 68.3984C839.244 68.7109 839.296 68.9974 839.4 69.2578C839.505 69.5182 839.651 69.7396 839.84 69.9219C840.029 70.1042 840.25 70.2474 840.504 70.3516C840.764 70.4492 841.051 70.498 841.363 70.498C841.702 70.498 842.001 70.4427 842.262 70.332C842.529 70.2148 842.75 70.0586 842.926 69.8633C843.108 69.668 843.245 69.4434 843.336 69.1895C843.434 68.9355 843.482 68.6719 843.482 68.3984C843.482 68.0859 843.43 67.7995 843.326 67.5391C843.222 67.2786 843.076 67.0573 842.887 66.875C842.698 66.6927 842.473 66.5527 842.213 66.4551C841.959 66.3509 841.676 66.2988 841.363 66.2988C841.025 66.2988 840.722 66.3574 840.455 66.4746C840.195 66.5918 839.973 66.748 839.791 66.9434C839.615 67.1322 839.479 67.3535 839.381 67.6074C839.29 67.8613 839.244 68.125 839.244 68.3984ZM856.441 75H854.742V68.7402C854.742 67.985 854.599 67.4219 854.312 67.0508C854.033 66.6732 853.629 66.4844 853.102 66.4844C852.874 66.4844 852.659 66.5169 852.457 66.582C852.262 66.6406 852.057 66.748 851.842 66.9043C851.627 67.054 851.393 67.2591 851.139 67.5195C850.885 67.7799 850.592 68.1055 850.26 68.4961V75H848.561V61.2012H850.26V65.1953L850.201 66.7383C850.468 66.4193 850.729 66.1523 850.982 65.9375C851.243 65.7161 851.5 65.5371 851.754 65.4004C852.014 65.2637 852.278 65.166 852.545 65.1074C852.812 65.0488 853.089 65.0195 853.375 65.0195C854.352 65.0195 855.107 65.319 855.641 65.918C856.174 66.5104 856.441 67.4056 856.441 68.6035V75ZM867.457 74.8633C867.073 74.9609 866.676 75.0293 866.266 75.0684C865.855 75.1139 865.439 75.1367 865.016 75.1367C863.785 75.1367 862.867 74.86 862.262 74.3066C861.656 73.7467 861.354 72.8906 861.354 71.7383V66.6211H858.609V65.1953H861.354V62.5L863.053 62.0605V65.1953H867.457V66.6211H863.053V71.6016C863.053 72.3047 863.238 72.832 863.609 73.1836C863.987 73.5286 864.54 73.7012 865.27 73.7012C865.582 73.7012 865.924 73.6784 866.295 73.6328C866.666 73.5807 867.053 73.5026 867.457 73.3984V74.8633Z" fill="#FF5500"/>
<path d="M751.293 110.707C751.683 111.098 752.317 111.098 752.707 110.707L759.071 104.343C759.462 103.953 759.462 103.319 759.071 102.929C758.681 102.538 758.047 102.538 757.657 102.929L752 108.586L746.343 102.929C745.953 102.538 745.319 102.538 744.929 102.929C744.538 103.319 744.538 103.953 744.929 104.343L751.293 110.707ZM751 83L751 110L753 110L753 83L751 83Z" fill="#FF5500"/>
<path d="M840.293 110.707C840.683 111.098 841.317 111.098 841.707 110.707L848.071 104.343C848.462 103.953 848.462 103.319 848.071 102.929C847.681 102.538 847.047 102.538 846.657 102.929L841 108.586L835.343 102.929C834.953 102.538 834.319 102.538 833.929 102.929C833.538 103.319 833.538 103.953 833.929 104.343L840.293 110.707ZM840 83L840 110L842 110L842 83L840 83Z" fill="#FF5500"/>
<path d="M1094.91 62.5977H1092.01V61.2012H1096.63V73.584H1099.55V75H1091.69V73.584H1094.91V62.5977ZM1110.85 69.5801C1110.85 69.821 1110.84 70.0228 1110.84 70.1855C1110.83 70.3483 1110.82 70.5013 1110.81 70.6445H1103.92C1103.92 71.6471 1104.2 72.4186 1104.76 72.959C1105.32 73.4928 1106.13 73.7598 1107.19 73.7598C1107.47 73.7598 1107.76 73.75 1108.04 73.7305C1108.33 73.7044 1108.61 73.6719 1108.88 73.6328C1109.14 73.5938 1109.4 73.5514 1109.64 73.5059C1109.88 73.4538 1110.11 73.3984 1110.32 73.3398V74.7363C1109.86 74.8665 1109.33 74.9707 1108.75 75.0488C1108.17 75.1335 1107.57 75.1758 1106.94 75.1758C1106.1 75.1758 1105.38 75.0618 1104.77 74.834C1104.17 74.6061 1103.67 74.2773 1103.28 73.8477C1102.9 73.4115 1102.61 72.8809 1102.42 72.2559C1102.24 71.6243 1102.15 70.9115 1102.15 70.1172C1102.15 69.4271 1102.24 68.776 1102.44 68.1641C1102.64 67.5456 1102.93 67.0052 1103.31 66.543C1103.69 66.0742 1104.16 65.7031 1104.71 65.4297C1105.27 65.1562 1105.9 65.0195 1106.6 65.0195C1107.28 65.0195 1107.89 65.127 1108.42 65.3418C1108.94 65.5566 1109.39 65.8626 1109.74 66.2598C1110.11 66.6504 1110.38 67.1289 1110.56 67.6953C1110.75 68.2552 1110.85 68.8835 1110.85 69.5801ZM1109.08 69.3359C1109.1 68.8997 1109.06 68.5026 1108.95 68.1445C1108.85 67.7799 1108.69 67.4674 1108.46 67.207C1108.25 66.9466 1107.98 66.7448 1107.65 66.6016C1107.33 66.4518 1106.95 66.377 1106.52 66.377C1106.15 66.377 1105.81 66.4486 1105.51 66.5918C1105.2 66.735 1104.94 66.9368 1104.71 67.1973C1104.49 67.4577 1104.31 67.7702 1104.18 68.1348C1104.04 68.4993 1103.96 68.8997 1103.92 69.3359H1109.08ZM1122.26 62.7832C1121.37 62.5944 1120.6 62.5 1119.96 62.5C1118.43 62.5 1117.66 63.3008 1117.66 64.9023V66.6211H1121.96V68.0371H1117.66V75H1115.94V68.0371H1112.78V66.6211H1115.94V65C1115.94 62.3893 1117.3 61.084 1120.02 61.084C1120.69 61.084 1121.44 61.1621 1122.26 61.3184V62.7832ZM1132.46 74.8633C1132.07 74.9609 1131.68 75.0293 1131.27 75.0684C1130.86 75.1139 1130.44 75.1367 1130.02 75.1367C1128.79 75.1367 1127.87 74.86 1127.26 74.3066C1126.66 73.7467 1126.36 72.8906 1126.36 71.7383V66.6211H1123.61V65.1953H1126.36V62.5L1128.05 62.0605V65.1953H1132.46V66.6211H1128.05V71.6016C1128.05 72.3047 1128.24 72.832 1128.61 73.1836C1128.99 73.5286 1129.54 73.7012 1130.27 73.7012C1130.58 73.7012 1130.93 73.6784 1131.3 73.6328C1131.67 73.5807 1132.06 73.5026 1132.46 73.3984V74.8633Z" fill="#FF5500"/>
<path d="M1175.97 65.1953H1177.53L1177.57 67.002C1178.15 66.3053 1178.72 65.8008 1179.28 65.4883C1179.85 65.1758 1180.42 65.0195 1180.99 65.0195C1182.01 65.0195 1182.78 65.3483 1183.3 66.0059C1183.82 66.6634 1184.07 67.64 1184.03 68.9355H1182.31C1182.33 68.0762 1182.2 67.4544 1181.93 67.0703C1181.66 66.6797 1181.27 66.4844 1180.75 66.4844C1180.52 66.4844 1180.29 66.5267 1180.05 66.6113C1179.83 66.6895 1179.59 66.8197 1179.34 67.002C1179.1 67.1777 1178.84 67.4056 1178.57 67.6855C1178.3 67.9655 1178 68.304 1177.69 68.7012V75H1175.97V65.1953ZM1189.91 66.6016H1187.01V65.1953H1191.63V73.584H1194.55V75H1186.69V73.584H1189.91V66.6016ZM1190.5 61.084C1190.69 61.084 1190.87 61.1198 1191.03 61.1914C1191.19 61.2565 1191.33 61.3509 1191.45 61.4746C1191.57 61.5983 1191.67 61.7415 1191.73 61.9043C1191.81 62.0605 1191.84 62.2331 1191.84 62.4219C1191.84 62.6042 1191.81 62.7767 1191.73 62.9395C1191.67 63.1022 1191.57 63.2454 1191.45 63.3691C1191.33 63.4928 1191.19 63.5905 1191.03 63.6621C1190.87 63.7272 1190.69 63.7598 1190.5 63.7598C1190.32 63.7598 1190.14 63.7272 1189.98 63.6621C1189.81 63.5905 1189.67 63.4928 1189.55 63.3691C1189.43 63.2454 1189.34 63.1022 1189.26 62.9395C1189.2 62.7767 1189.17 62.6042 1189.17 62.4219C1189.17 62.2331 1189.2 62.0605 1189.26 61.9043C1189.34 61.7415 1189.43 61.5983 1189.55 61.4746C1189.67 61.3509 1189.81 61.2565 1189.98 61.1914C1190.14 61.1198 1190.32 61.084 1190.5 61.084ZM1204.62 66.582C1204.81 66.8099 1204.95 67.0768 1205.04 67.3828C1205.15 67.6823 1205.2 68.0078 1205.2 68.3594C1205.2 68.8672 1205.11 69.3327 1204.92 69.7559C1204.74 70.1725 1204.48 70.5306 1204.14 70.8301C1203.8 71.1296 1203.39 71.3639 1202.92 71.5332C1202.45 71.696 1201.93 71.7773 1201.36 71.7773C1200.95 71.7773 1200.57 71.735 1200.21 71.6504C1199.85 71.5592 1199.57 71.4486 1199.36 71.3184C1199.24 71.5007 1199.13 71.6732 1199.05 71.8359C1198.96 71.9987 1198.92 72.181 1198.92 72.3828C1198.92 72.6302 1199.04 72.8353 1199.27 72.998C1199.51 73.1608 1199.83 73.2487 1200.22 73.2617L1202.8 73.3594C1203.29 73.3724 1203.74 73.4342 1204.15 73.5449C1204.56 73.6556 1204.92 73.8151 1205.21 74.0234C1205.51 74.2318 1205.74 74.4889 1205.9 74.7949C1206.07 75.1009 1206.16 75.4557 1206.16 75.8594C1206.16 76.2956 1206.06 76.709 1205.88 77.0996C1205.69 77.4902 1205.39 77.832 1205 78.125C1204.61 78.4245 1204.11 78.6621 1203.5 78.8379C1202.9 79.0137 1202.18 79.1016 1201.34 79.1016C1200.55 79.1016 1199.87 79.0365 1199.31 78.9062C1198.76 78.7826 1198.3 78.6068 1197.95 78.3789C1197.59 78.1576 1197.33 77.8906 1197.16 77.5781C1197 77.2721 1196.92 76.9336 1196.92 76.5625C1196.92 76.0872 1197.03 75.6706 1197.25 75.3125C1197.47 74.9544 1197.82 74.6094 1198.28 74.2773C1198.11 74.1992 1197.96 74.1016 1197.84 73.9844C1197.71 73.8672 1197.61 73.7402 1197.54 73.6035C1197.46 73.4603 1197.4 73.3105 1197.36 73.1543C1197.32 72.998 1197.3 72.8451 1197.3 72.6953C1197.3 72.2721 1197.4 71.8848 1197.59 71.5332C1197.8 71.1816 1198.03 70.8496 1198.31 70.5371C1198.18 70.3874 1198.07 70.2409 1197.97 70.0977C1197.88 69.9544 1197.8 69.8014 1197.73 69.6387C1197.67 69.4694 1197.61 69.2904 1197.57 69.1016C1197.54 68.9062 1197.53 68.6849 1197.53 68.4375C1197.53 67.9297 1197.62 67.4674 1197.8 67.0508C1197.99 66.6276 1198.25 66.2663 1198.58 65.9668C1198.92 65.6673 1199.32 65.4362 1199.79 65.2734C1200.27 65.1042 1200.79 65.0195 1201.36 65.0195C1201.6 65.0195 1201.84 65.0358 1202.06 65.0684C1202.28 65.1009 1202.47 65.1432 1202.64 65.1953H1206.2V66.582H1204.62ZM1198.73 76.416C1198.73 76.8783 1198.97 77.2135 1199.45 77.4219C1199.93 77.6367 1200.6 77.7441 1201.46 77.7441C1202 77.7441 1202.45 77.6953 1202.82 77.5977C1203.19 77.5 1203.49 77.3698 1203.71 77.207C1203.93 77.0508 1204.1 76.8685 1204.2 76.6602C1204.29 76.4583 1204.34 76.25 1204.34 76.0352C1204.34 75.638 1204.18 75.3451 1203.85 75.1562C1203.53 74.9674 1203.03 74.8568 1202.36 74.8242L1199.8 74.7363C1199.59 74.8796 1199.41 75.0195 1199.26 75.1562C1199.13 75.293 1199.02 75.4297 1198.94 75.5664C1198.86 75.7096 1198.81 75.8496 1198.78 75.9863C1198.74 76.1296 1198.73 76.2728 1198.73 76.416ZM1199.24 68.3984C1199.24 68.7109 1199.3 68.9974 1199.4 69.2578C1199.5 69.5182 1199.65 69.7396 1199.84 69.9219C1200.03 70.1042 1200.25 70.2474 1200.5 70.3516C1200.76 70.4492 1201.05 70.498 1201.36 70.498C1201.7 70.498 1202 70.4427 1202.26 70.332C1202.53 70.2148 1202.75 70.0586 1202.93 69.8633C1203.11 69.668 1203.24 69.4434 1203.34 69.1895C1203.43 68.9355 1203.48 68.6719 1203.48 68.3984C1203.48 68.0859 1203.43 67.7995 1203.33 67.5391C1203.22 67.2786 1203.08 67.0573 1202.89 66.875C1202.7 66.6927 1202.47 66.5527 1202.21 66.4551C1201.96 66.3509 1201.68 66.2988 1201.36 66.2988C1201.02 66.2988 1200.72 66.3574 1200.46 66.4746C1200.19 66.5918 1199.97 66.748 1199.79 66.9434C1199.62 67.1322 1199.48 67.3535 1199.38 67.6074C1199.29 67.8613 1199.24 68.125 1199.24 68.3984ZM1216.44 75H1214.74V68.7402C1214.74 67.985 1214.6 67.4219 1214.31 67.0508C1214.03 66.6732 1213.63 66.4844 1213.1 66.4844C1212.87 66.4844 1212.66 66.5169 1212.46 66.582C1212.26 66.6406 1212.06 66.748 1211.84 66.9043C1211.63 67.054 1211.39 67.2591 1211.14 67.5195C1210.88 67.7799 1210.59 68.1055 1210.26 68.4961V75H1208.56V61.2012H1210.26V65.1953L1210.2 66.7383C1210.47 66.4193 1210.73 66.1523 1210.98 65.9375C1211.24 65.7161 1211.5 65.5371 1211.75 65.4004C1212.01 65.2637 1212.28 65.166 1212.54 65.1074C1212.81 65.0488 1213.09 65.0195 1213.38 65.0195C1214.35 65.0195 1215.11 65.319 1215.64 65.918C1216.17 66.5104 1216.44 67.4056 1216.44 68.6035V75ZM1227.46 74.8633C1227.07 74.9609 1226.68 75.0293 1226.27 75.0684C1225.86 75.1139 1225.44 75.1367 1225.02 75.1367C1223.79 75.1367 1222.87 74.86 1222.26 74.3066C1221.66 73.7467 1221.35 72.8906 1221.35 71.7383V66.6211H1218.61V65.1953H1221.35V62.5L1223.05 62.0605V65.1953H1227.46V66.6211H1223.05V71.6016C1223.05 72.3047 1223.24 72.832 1223.61 73.1836C1223.99 73.5286 1224.54 73.7012 1225.27 73.7012C1225.58 73.7012 1225.92 73.6784 1226.29 73.6328C1226.67 73.5807 1227.05 73.5026 1227.46 73.3984V74.8633Z" fill="#FF5500"/>
<path d="M1111.29 110.707C1111.68 111.098 1112.32 111.098 1112.71 110.707L1119.07 104.343C1119.46 103.953 1119.46 103.319 1119.07 102.929C1118.68 102.538 1118.05 102.538 1117.66 102.929L1112 108.586L1106.34 102.929C1105.95 102.538 1105.32 102.538 1104.93 102.929C1104.54 103.319 1104.54 103.953 1104.93 104.343L1111.29 110.707ZM1111 83L1111 110L1113 110L1113 83L1111 83Z" fill="#FF5500"/>
<path d="M1200.29 110.707C1200.68 111.098 1201.32 111.098 1201.71 110.707L1208.07 104.343C1208.46 103.953 1208.46 103.319 1208.07 102.929C1207.68 102.538 1207.05 102.538 1206.66 102.929L1201 108.586L1195.34 102.929C1194.95 102.538 1194.32 102.538 1193.93 102.929C1193.54 103.319 1193.54 103.953 1193.93 104.343L1200.29 110.707ZM1200 83L1200 110L1202 110L1202 83L1200 83Z" fill="#FF5500"/>
</svg>
