<svg width="375" height="73" viewBox="0 0 375 73" fill="none" xmlns="http://www.w3.org/2000/svg">
<g clip-path="url(#clip0_6254_536)">
<circle cx="25" cy="48" r="24" stroke="black" stroke-width="2"/>
<circle cx="241" cy="48" r="24" fill="#EAFFF0" stroke="#00BD36" stroke-width="2"/>
<path d="M31.6045 58H19.5781V55.627H24.5V41.6523L19.915 44.1426L18.9775 41.9746L25.0713 38.7666H27.3271V55.627H31.6045V58Z" fill="black"/>
<circle cx="133" cy="48" r="24" stroke="black" stroke-width="2"/>
<path d="M139.766 58H127.153V55.7148L132.104 50.793C132.915 49.9922 133.574 49.2988 134.082 48.7129C134.59 48.127 134.985 47.5947 135.269 47.1162C135.552 46.6279 135.742 46.1689 135.84 45.7393C135.938 45.3096 135.986 44.8457 135.986 44.3477C135.986 43.8789 135.923 43.4346 135.796 43.0146C135.669 42.585 135.474 42.209 135.21 41.8867C134.946 41.5645 134.604 41.3105 134.185 41.125C133.765 40.9395 133.262 40.8467 132.676 40.8467C131.865 40.8467 131.128 41.0273 130.464 41.3887C129.8 41.75 129.189 42.2188 128.633 42.7949L127.227 41.1104C127.949 40.3486 128.779 39.7383 129.717 39.2793C130.664 38.8203 131.763 38.5908 133.013 38.5908C133.862 38.5908 134.634 38.7178 135.327 38.9717C136.03 39.2256 136.636 39.5918 137.144 40.0703C137.651 40.5488 138.042 41.1348 138.315 41.8281C138.599 42.5215 138.74 43.3027 138.74 44.1719C138.74 44.9043 138.643 45.583 138.447 46.208C138.252 46.833 137.954 47.458 137.554 48.083C137.163 48.6982 136.665 49.3379 136.06 50.002C135.464 50.666 134.756 51.3936 133.936 52.1846L130.464 55.5684H139.766V58Z" fill="black"/>
<circle cx="349" cy="48" r="24" stroke="black" stroke-width="2"/>
<path d="M355.663 41.2275L347.636 58H344.721L353.056 41.2275H342.714V38.8545H355.663V41.2275Z" fill="black"/>
<path d="M104.707 48.7071C105.098 48.3166 105.098 47.6834 104.707 47.2929L98.3431 40.9289C97.9526 40.5384 97.3195 40.5384 96.9289 40.9289C96.5384 41.3195 96.5384 41.9526 96.9289 42.3431L102.586 48L96.9289 53.6569C96.5384 54.0474 96.5384 54.6805 96.9289 55.0711C97.3195 55.4616 97.9526 55.4616 98.3431 55.0711L104.707 48.7071ZM50 49L104 49L104 47L50 47L50 49Z" fill="black"/>
<path d="M212.707 48.7071C213.098 48.3166 213.098 47.6834 212.707 47.2929L206.343 40.9289C205.953 40.5384 205.319 40.5384 204.929 40.9289C204.538 41.3195 204.538 41.9526 204.929 42.3431L210.586 48L204.929 53.6569C204.538 54.0474 204.538 54.6805 204.929 55.0711C205.319 55.4616 205.953 55.4616 206.343 55.0711L212.707 48.7071ZM158 49L212 49L212 47L158 47L158 49Z" fill="black"/>
<path d="M320.707 48.7071C321.098 48.3166 321.098 47.6834 320.707 47.2929L314.343 40.9289C313.953 40.5384 313.319 40.5384 312.929 40.9289C312.538 41.3195 312.538 41.9526 312.929 42.3431L318.586 48L312.929 53.6569C312.538 54.0474 312.538 54.6805 312.929 55.0711C313.319 55.4616 313.953 55.4616 314.343 55.0711L320.707 48.7071ZM266 49L320 49L320 47L266 47L266 49Z" fill="black"/>
<path d="M247.718 53.7666H244.451V58H241.844V53.7666H232.63V51.5254L240.789 38.8545H244.451V51.5254H247.718V53.7666ZM241.844 41.3154L235.179 51.5254H241.844V41.3154Z" fill="black"/>
<path d="M230.179 19V9.84668C230.179 9.44889 230.162 9.12305 230.128 8.86914C230.103 8.61523 230.056 8.41634 229.988 8.27246C229.929 8.12012 229.849 8.01432 229.747 7.95508C229.654 7.89583 229.535 7.86621 229.392 7.86621C229.222 7.86621 229.066 7.91699 228.922 8.01855C228.778 8.12012 228.621 8.28516 228.452 8.51367C228.291 8.74219 228.109 9.04688 227.906 9.42773C227.712 9.80013 227.479 10.2614 227.208 10.8115V19H225.189V10.0879C225.189 9.6224 225.173 9.24577 225.139 8.95801C225.113 8.67025 225.067 8.44596 224.999 8.28516C224.94 8.12435 224.859 8.01432 224.758 7.95508C224.656 7.89583 224.534 7.86621 224.39 7.86621C224.237 7.86621 224.093 7.90853 223.958 7.99316C223.823 8.0778 223.67 8.23014 223.501 8.4502C223.34 8.67025 223.158 8.9707 222.955 9.35156C222.752 9.73242 222.511 10.2191 222.231 10.8115V19H220.2V6.25391H221.889L221.99 8.67871C222.21 8.19629 222.422 7.78581 222.625 7.44727C222.837 7.10872 223.052 6.83789 223.272 6.63477C223.493 6.42318 223.725 6.27083 223.971 6.17773C224.225 6.07617 224.504 6.02539 224.809 6.02539C225.494 6.02539 226.015 6.24967 226.37 6.69824C226.726 7.14681 226.903 7.84082 226.903 8.78027C227.106 8.34017 227.305 7.95085 227.5 7.6123C227.695 7.2653 227.902 6.97754 228.122 6.74902C228.351 6.51204 228.6 6.33431 228.871 6.21582C229.142 6.08887 229.455 6.02539 229.811 6.02539C231.41 6.02539 232.21 7.25684 232.21 9.71973V19H230.179ZM239.726 8.08203H235.955V6.25391H241.96V17.1592H245.756V19H235.536V17.1592H239.726V8.08203ZM240.5 0.90918C240.745 0.90918 240.974 0.955729 241.186 1.04883C241.397 1.13346 241.579 1.25618 241.731 1.41699C241.892 1.5778 242.015 1.764 242.1 1.97559C242.193 2.17871 242.239 2.40299 242.239 2.64844C242.239 2.88542 242.193 3.1097 242.1 3.32129C242.015 3.53288 241.892 3.71908 241.731 3.87988C241.579 4.04069 241.397 4.16764 241.186 4.26074C240.974 4.34538 240.745 4.3877 240.5 4.3877C240.255 4.3877 240.026 4.34538 239.814 4.26074C239.603 4.16764 239.417 4.04069 239.256 3.87988C239.104 3.71908 238.981 3.53288 238.888 3.32129C238.803 3.1097 238.761 2.88542 238.761 2.64844C238.761 2.40299 238.803 2.17871 238.888 1.97559C238.981 1.764 239.104 1.5778 239.256 1.41699C239.417 1.25618 239.603 1.13346 239.814 1.04883C240.026 0.955729 240.255 0.90918 240.5 0.90918ZM249.031 12.8936C249.031 11.8102 249.179 10.8496 249.476 10.0117C249.772 9.16536 250.191 8.45443 250.732 7.87891C251.283 7.29492 251.938 6.85482 252.7 6.55859C253.47 6.25391 254.325 6.10156 255.265 6.10156C255.671 6.10156 256.069 6.12695 256.458 6.17773C256.856 6.22852 257.245 6.30892 257.626 6.41895V1.06152H259.848V19H257.867L257.791 16.5879C257.173 17.485 256.505 18.1494 255.785 18.5811C255.066 19.0127 254.287 19.2285 253.449 19.2285C252.721 19.2285 252.078 19.0762 251.52 18.7715C250.969 18.4668 250.508 18.0394 250.136 17.4893C249.772 16.9307 249.497 16.262 249.311 15.4834C249.124 14.7048 249.031 13.8415 249.031 12.8936ZM251.291 12.7539C251.291 14.2943 251.515 15.4453 251.964 16.207C252.421 16.9603 253.064 17.3369 253.894 17.3369C254.452 17.3369 255.04 17.0872 255.658 16.5879C256.285 16.0885 256.94 15.348 257.626 14.3662V8.4502C257.262 8.28092 256.86 8.15397 256.42 8.06934C255.98 7.97624 255.544 7.92969 255.112 7.92969C253.91 7.92969 252.971 8.31901 252.294 9.09766C251.625 9.8763 251.291 11.0951 251.291 12.7539Z" fill="#00BD36"/>
</g>
<defs>
<clipPath id="clip0_6254_536">
<rect width="375" height="73" fill="white"/>
</clipPath>
</defs>
</svg>
