<svg width="557" height="196" viewBox="0 0 557 196" fill="none" xmlns="http://www.w3.org/2000/svg">
<g clip-path="url(#clip0_6273_960)">
<rect width="557" height="196" fill="white"/>
<path d="M76 31L76 144C76 155.046 84.9543 164 96 164H165C176.046 164 185 155.046 185 144V31" stroke="black" stroke-width="2" stroke-linecap="round"/>
<path d="M49.8799 181.954C49.8799 182.267 49.8757 182.53 49.8672 182.741C49.8587 182.953 49.846 183.152 49.8291 183.338H40.8789C40.8789 184.641 41.2428 185.644 41.9707 186.347C42.6986 187.041 43.748 187.388 45.1191 187.388C45.4915 187.388 45.8639 187.375 46.2363 187.35C46.6087 187.316 46.9684 187.273 47.3154 187.223C47.6624 187.172 47.9925 187.117 48.3057 187.058C48.6273 186.99 48.9235 186.918 49.1943 186.842V188.657C48.5934 188.826 47.9121 188.962 47.1504 189.063C46.3971 189.174 45.6143 189.229 44.8018 189.229C43.71 189.229 42.7705 189.08 41.9834 188.784C41.1963 188.488 40.5488 188.061 40.041 187.502C39.5417 186.935 39.1693 186.245 38.9238 185.433C38.6868 184.612 38.5684 183.685 38.5684 182.652C38.5684 181.755 38.6953 180.909 38.9492 180.113C39.2116 179.309 39.5882 178.607 40.0791 178.006C40.5785 177.396 41.1878 176.914 41.9072 176.559C42.6266 176.203 43.4434 176.025 44.3574 176.025C45.2461 176.025 46.0332 176.165 46.7188 176.444C47.4043 176.724 47.9798 177.121 48.4453 177.638C48.9193 178.146 49.2747 178.768 49.5117 179.504C49.7572 180.232 49.8799 181.049 49.8799 181.954ZM47.582 181.637C47.6074 181.07 47.5524 180.553 47.417 180.088C47.2816 179.614 47.07 179.208 46.7822 178.869C46.5029 178.531 46.1517 178.268 45.7285 178.082C45.3053 177.887 44.8145 177.79 44.2559 177.79C43.7734 177.79 43.3333 177.883 42.9355 178.069C42.5378 178.256 42.195 178.518 41.9072 178.856C41.6195 179.195 41.3867 179.601 41.209 180.075C41.0312 180.549 40.9212 181.07 40.8789 181.637H47.582ZM53.4092 176.254H55.377L55.4658 178.311C55.8382 177.87 56.1979 177.507 56.5449 177.219C56.8919 176.923 57.2305 176.686 57.5605 176.508C57.8991 176.33 58.2419 176.207 58.5889 176.14C58.9359 176.063 59.2956 176.025 59.668 176.025C60.9798 176.025 61.9701 176.415 62.6387 177.193C63.3158 177.964 63.6543 179.127 63.6543 180.685V189H61.4453V180.862C61.4453 179.864 61.2591 179.127 60.8867 178.653C60.5143 178.171 59.96 177.93 59.2236 177.93C58.9528 177.93 58.6862 177.972 58.4238 178.057C58.1699 178.133 57.9033 178.272 57.624 178.476C57.3447 178.67 57.04 178.937 56.71 179.275C56.3883 179.614 56.0244 180.037 55.6182 180.545V189H53.4092V176.254ZM67.0566 182.894C67.0566 181.979 67.1751 181.112 67.4121 180.291C67.6576 179.47 68.0299 178.751 68.5293 178.133C69.0371 177.507 69.6846 177.011 70.4717 176.647C71.2588 176.284 72.1982 176.102 73.29 176.102C73.7217 176.102 74.1491 176.135 74.5723 176.203C74.9954 176.271 75.444 176.377 75.918 176.521L77.873 176.025V194.205H75.6514V189.394L75.7656 186.664C74.5638 188.374 73.1335 189.229 71.4746 189.229C70.7298 189.229 70.0824 189.076 69.5322 188.771C68.9821 188.467 68.5208 188.035 68.1484 187.477C67.7845 186.918 67.5094 186.249 67.3232 185.471C67.1455 184.692 67.0566 183.833 67.0566 182.894ZM69.3164 182.754C69.3164 183.465 69.3672 184.104 69.4688 184.671C69.5788 185.238 69.7396 185.72 69.9512 186.118C70.1712 186.507 70.4421 186.808 70.7637 187.02C71.0938 187.231 71.4788 187.337 71.9189 187.337C72.4775 187.337 73.0658 187.087 73.6836 186.588C74.3099 186.089 74.9658 185.348 75.6514 184.366V178.45C75.3128 178.289 74.9277 178.158 74.4961 178.057C74.0729 177.955 73.6201 177.904 73.1377 177.904C71.8936 177.904 70.9456 178.315 70.2939 179.136C69.6423 179.957 69.3164 181.163 69.3164 182.754ZM92.2441 189H90.2637L90.1875 186.943C89.8066 187.383 89.4427 187.752 89.0957 188.048C88.7572 188.336 88.4186 188.568 88.0801 188.746C87.7415 188.924 87.3988 189.047 87.0518 189.114C86.7132 189.19 86.3535 189.229 85.9727 189.229C84.6608 189.229 83.6706 188.843 83.002 188.073C82.3333 187.303 81.999 186.139 81.999 184.582V176.254H84.208V184.404C84.208 186.359 84.9443 187.337 86.417 187.337C86.6878 187.337 86.9502 187.299 87.2041 187.223C87.4665 187.138 87.7373 186.998 88.0166 186.804C88.3044 186.601 88.609 186.33 88.9307 185.991C89.2607 185.653 89.6289 185.225 90.0352 184.709V176.254H92.2441V189ZM107.06 181.954C107.06 182.267 107.055 182.53 107.047 182.741C107.038 182.953 107.026 183.152 107.009 183.338H98.0586C98.0586 184.641 98.4225 185.644 99.1504 186.347C99.8783 187.041 100.928 187.388 102.299 187.388C102.671 187.388 103.044 187.375 103.416 187.35C103.788 187.316 104.148 187.273 104.495 187.223C104.842 187.172 105.172 187.117 105.485 187.058C105.807 186.99 106.103 186.918 106.374 186.842V188.657C105.773 188.826 105.092 188.962 104.33 189.063C103.577 189.174 102.794 189.229 101.981 189.229C100.89 189.229 99.9502 189.08 99.1631 188.784C98.376 188.488 97.7285 188.061 97.2207 187.502C96.7214 186.935 96.349 186.245 96.1035 185.433C95.8665 184.612 95.748 183.685 95.748 182.652C95.748 181.755 95.875 180.909 96.1289 180.113C96.3913 179.309 96.7679 178.607 97.2588 178.006C97.7581 177.396 98.3675 176.914 99.0869 176.559C99.8063 176.203 100.623 176.025 101.537 176.025C102.426 176.025 103.213 176.165 103.898 176.444C104.584 176.724 105.16 177.121 105.625 177.638C106.099 178.146 106.454 178.768 106.691 179.504C106.937 180.232 107.06 181.049 107.06 181.954ZM104.762 181.637C104.787 181.07 104.732 180.553 104.597 180.088C104.461 179.614 104.25 179.208 103.962 178.869C103.683 178.531 103.331 178.268 102.908 178.082C102.485 177.887 101.994 177.79 101.436 177.79C100.953 177.79 100.513 177.883 100.115 178.069C99.7174 178.256 99.3747 178.518 99.0869 178.856C98.7992 179.195 98.5664 179.601 98.3887 180.075C98.2109 180.549 98.1009 181.07 98.0586 181.637H104.762ZM120.834 189H118.854L118.777 186.943C118.396 187.383 118.033 187.752 117.686 188.048C117.347 188.336 117.008 188.568 116.67 188.746C116.331 188.924 115.989 189.047 115.642 189.114C115.303 189.19 114.943 189.229 114.562 189.229C113.251 189.229 112.26 188.843 111.592 188.073C110.923 187.303 110.589 186.139 110.589 184.582V176.254H112.798V184.404C112.798 186.359 113.534 187.337 115.007 187.337C115.278 187.337 115.54 187.299 115.794 187.223C116.056 187.138 116.327 186.998 116.606 186.804C116.894 186.601 117.199 186.33 117.521 185.991C117.851 185.653 118.219 185.225 118.625 184.709V176.254H120.834V189ZM135.649 181.954C135.649 182.267 135.645 182.53 135.637 182.741C135.628 182.953 135.616 183.152 135.599 183.338H126.648C126.648 184.641 127.012 185.644 127.74 186.347C128.468 187.041 129.518 187.388 130.889 187.388C131.261 187.388 131.633 187.375 132.006 187.35C132.378 187.316 132.738 187.273 133.085 187.223C133.432 187.172 133.762 187.117 134.075 187.058C134.397 186.99 134.693 186.918 134.964 186.842V188.657C134.363 188.826 133.682 188.962 132.92 189.063C132.167 189.174 131.384 189.229 130.571 189.229C129.479 189.229 128.54 189.08 127.753 188.784C126.966 188.488 126.318 188.061 125.811 187.502C125.311 186.935 124.939 186.245 124.693 185.433C124.456 184.612 124.338 183.685 124.338 182.652C124.338 181.755 124.465 180.909 124.719 180.113C124.981 179.309 125.358 178.607 125.849 178.006C126.348 177.396 126.957 176.914 127.677 176.559C128.396 176.203 129.213 176.025 130.127 176.025C131.016 176.025 131.803 176.165 132.488 176.444C133.174 176.724 133.749 177.121 134.215 177.638C134.689 178.146 135.044 178.768 135.281 179.504C135.527 180.232 135.649 181.049 135.649 181.954ZM133.352 181.637C133.377 181.07 133.322 180.553 133.187 180.088C133.051 179.614 132.84 179.208 132.552 178.869C132.272 178.531 131.921 178.268 131.498 178.082C131.075 177.887 130.584 177.79 130.025 177.79C129.543 177.79 129.103 177.883 128.705 178.069C128.307 178.256 127.965 178.518 127.677 178.856C127.389 179.195 127.156 179.601 126.979 180.075C126.801 180.549 126.691 181.07 126.648 181.637H133.352ZM151.442 194.205H137.147V192.377H151.442V194.205ZM163.566 185.521C163.566 185.97 163.49 186.372 163.338 186.728C163.186 187.083 162.978 187.4 162.716 187.68C162.453 187.951 162.149 188.183 161.802 188.378C161.455 188.573 161.082 188.733 160.685 188.86C160.295 188.987 159.893 189.08 159.479 189.14C159.064 189.199 158.658 189.229 158.26 189.229C157.396 189.229 156.601 189.19 155.873 189.114C155.154 189.038 154.447 188.915 153.753 188.746V186.715C154.498 186.926 155.238 187.087 155.975 187.197C156.711 187.307 157.443 187.362 158.171 187.362C159.229 187.362 160.012 187.218 160.52 186.931C161.027 186.643 161.281 186.232 161.281 185.699C161.281 185.471 161.239 185.268 161.154 185.09C161.078 184.904 160.934 184.73 160.723 184.569C160.511 184.4 160.181 184.227 159.732 184.049C159.292 183.871 158.687 183.668 157.917 183.439C157.341 183.27 156.808 183.08 156.317 182.868C155.835 182.648 155.416 182.39 155.061 182.094C154.705 181.798 154.426 181.451 154.223 181.053C154.02 180.655 153.918 180.185 153.918 179.644C153.918 179.288 153.998 178.899 154.159 178.476C154.328 178.052 154.612 177.659 155.01 177.295C155.408 176.931 155.945 176.631 156.622 176.394C157.299 176.148 158.146 176.025 159.161 176.025C159.66 176.025 160.215 176.055 160.824 176.114C161.434 176.165 162.068 176.258 162.729 176.394V178.361C162.035 178.192 161.374 178.069 160.748 177.993C160.13 177.909 159.593 177.866 159.136 177.866C158.586 177.866 158.12 177.909 157.739 177.993C157.367 178.078 157.062 178.196 156.825 178.349C156.597 178.493 156.432 178.666 156.33 178.869C156.229 179.064 156.178 179.275 156.178 179.504C156.178 179.732 156.22 179.94 156.305 180.126C156.398 180.312 156.563 180.494 156.8 180.672C157.045 180.841 157.384 181.015 157.815 181.192C158.247 181.362 158.81 181.548 159.504 181.751C160.257 181.971 160.892 182.204 161.408 182.449C161.924 182.686 162.343 182.953 162.665 183.249C162.987 183.545 163.215 183.88 163.351 184.252C163.494 184.624 163.566 185.048 163.566 185.521ZM178.039 188.822C177.54 188.949 177.023 189.038 176.49 189.089C175.957 189.148 175.415 189.178 174.865 189.178C173.266 189.178 172.072 188.818 171.285 188.099C170.498 187.371 170.104 186.258 170.104 184.76V178.107H166.537V176.254H170.104V172.75L172.313 172.179V176.254H178.039V178.107H172.313V184.582C172.313 185.496 172.555 186.182 173.037 186.639C173.528 187.087 174.247 187.312 175.195 187.312C175.602 187.312 176.046 187.282 176.528 187.223C177.011 187.155 177.514 187.053 178.039 186.918V188.822ZM190.252 189L190.201 187.286C189.507 187.972 188.8 188.467 188.081 188.771C187.37 189.076 186.621 189.229 185.834 189.229C185.106 189.229 184.484 189.135 183.968 188.949C183.451 188.763 183.024 188.509 182.686 188.188C182.355 187.857 182.11 187.472 181.949 187.032C181.797 186.592 181.721 186.114 181.721 185.598C181.721 184.32 182.195 183.321 183.143 182.602C184.099 181.874 185.508 181.51 187.37 181.51H190.011V180.393C190.011 179.639 189.77 179.038 189.287 178.59C188.805 178.133 188.068 177.904 187.078 177.904C186.359 177.904 185.648 177.985 184.945 178.146C184.251 178.306 183.532 178.535 182.787 178.831V176.838C183.066 176.736 183.375 176.639 183.714 176.546C184.061 176.444 184.425 176.355 184.806 176.279C185.187 176.203 185.584 176.144 185.999 176.102C186.414 176.051 186.833 176.025 187.256 176.025C188.026 176.025 188.72 176.11 189.338 176.279C189.956 176.449 190.476 176.707 190.899 177.054C191.331 177.401 191.661 177.837 191.89 178.361C192.118 178.886 192.232 179.504 192.232 180.215V189H190.252ZM190.011 183.198H187.205C186.655 183.198 186.181 183.253 185.783 183.363C185.385 183.473 185.06 183.63 184.806 183.833C184.552 184.036 184.361 184.282 184.234 184.569C184.116 184.849 184.057 185.166 184.057 185.521C184.057 185.767 184.095 186.004 184.171 186.232C184.247 186.452 184.37 186.651 184.539 186.829C184.708 186.998 184.928 187.134 185.199 187.235C185.47 187.337 185.8 187.388 186.189 187.388C186.697 187.388 187.277 187.235 187.929 186.931C188.589 186.618 189.283 186.127 190.011 185.458V183.198ZM206.261 188.53C205.685 188.75 205.093 188.911 204.483 189.013C203.882 189.123 203.26 189.178 202.617 189.178C200.603 189.178 199.05 188.632 197.958 187.54C196.875 186.448 196.333 184.853 196.333 182.754C196.333 181.747 196.49 180.833 196.803 180.012C197.116 179.191 197.556 178.488 198.123 177.904C198.69 177.32 199.367 176.872 200.154 176.559C200.941 176.237 201.809 176.076 202.757 176.076C203.417 176.076 204.035 176.123 204.61 176.216C205.186 176.309 205.736 176.461 206.261 176.673V178.78C205.711 178.493 205.148 178.285 204.572 178.158C204.005 178.023 203.417 177.955 202.808 177.955C202.241 177.955 201.703 178.065 201.195 178.285C200.696 178.497 200.256 178.806 199.875 179.212C199.494 179.618 199.194 180.113 198.974 180.697C198.754 181.281 198.644 181.941 198.644 182.678C198.644 184.218 199.016 185.373 199.761 186.144C200.514 186.905 201.555 187.286 202.884 187.286C203.485 187.286 204.064 187.218 204.623 187.083C205.19 186.948 205.736 186.744 206.261 186.474V188.53ZM222.117 189H219.083L213.142 182.17V189H210.933V171.062H213.142V182.081L218.867 176.254H221.787L215.808 182.132L222.117 189Z" fill="black"/>
<path d="M136.01 147H125.587V144.943H129.853V132.832L125.879 134.99L125.066 133.111L130.348 130.331H132.303V144.943H136.01V147Z" fill="black"/>
<path d="M206 139C206.552 139 207 138.552 207 138C207 137.448 206.552 137 206 137L206 139ZM146.293 137.293C145.902 137.683 145.902 138.317 146.293 138.707L152.657 145.071C153.047 145.462 153.681 145.462 154.071 145.071C154.462 144.68 154.462 144.047 154.071 143.657L148.414 138L154.071 132.343C154.462 131.953 154.462 131.319 154.071 130.929C153.681 130.538 153.047 130.538 152.657 130.929L146.293 137.293ZM206 137L147 137L147 139L206 139L206 137Z" fill="#00B2FF"/>
<path d="M34.4092 144.85C33.9867 144.957 33.5498 145.032 33.0986 145.075C32.6475 145.125 32.1891 145.15 31.7236 145.15C30.3701 145.15 29.3604 144.846 28.6943 144.237C28.0283 143.621 27.6953 142.68 27.6953 141.412V135.783H24.6768V134.215H27.6953V131.25L29.5645 130.767V134.215H34.4092V135.783H29.5645V141.262C29.5645 142.035 29.7686 142.615 30.1768 143.002C30.5921 143.382 31.2008 143.571 32.0029 143.571C32.3467 143.571 32.7227 143.546 33.1309 143.496C33.5391 143.439 33.9652 143.353 34.4092 143.238V144.85ZM47.2031 139.521C47.2031 140.359 47.085 141.129 46.8486 141.831C46.6123 142.526 46.2721 143.124 45.8281 143.625C45.3841 144.119 44.8434 144.506 44.2061 144.785C43.5687 145.057 42.8454 145.193 42.0361 145.193C41.2627 145.193 40.568 145.075 39.9521 144.839C39.3434 144.595 38.8242 144.241 38.3945 143.775C37.972 143.31 37.6462 142.733 37.417 142.046C37.195 141.358 37.084 140.567 37.084 139.672C37.084 138.834 37.2021 138.071 37.4385 137.384C37.6748 136.689 38.015 136.095 38.459 135.601C38.903 135.099 39.4437 134.713 40.0811 134.44C40.7184 134.161 41.4417 134.021 42.251 134.021C43.0244 134.021 43.7155 134.143 44.3242 134.387C44.9401 134.623 45.4593 134.974 45.8818 135.439C46.3115 135.898 46.6374 136.471 46.8594 137.158C47.0885 137.846 47.2031 138.633 47.2031 139.521ZM45.291 139.607C45.291 138.941 45.2158 138.361 45.0654 137.867C44.9222 137.366 44.7145 136.951 44.4424 136.621C44.1702 136.285 43.8372 136.034 43.4434 135.869C43.0566 135.697 42.6234 135.611 42.1436 135.611C41.585 135.611 41.1051 135.722 40.7041 135.944C40.3102 136.159 39.9844 136.449 39.7266 136.814C39.4759 137.18 39.2897 137.606 39.168 138.093C39.0534 138.573 38.9961 139.077 38.9961 139.607C38.9961 140.273 39.0677 140.857 39.2109 141.358C39.3613 141.86 39.5726 142.279 39.8447 142.615C40.1169 142.945 40.4463 143.195 40.833 143.367C41.2197 143.532 41.6566 143.614 42.1436 143.614C42.7021 143.614 43.1784 143.507 43.5723 143.292C43.9733 143.07 44.2992 142.776 44.5498 142.411C44.8076 142.046 44.9938 141.623 45.1084 141.144C45.2301 140.657 45.291 140.145 45.291 139.607ZM59.127 139.414C59.127 140.374 58.9909 141.212 58.7188 141.928C58.4538 142.644 58.085 143.238 57.6123 143.711C57.1396 144.184 56.5811 144.538 55.9365 144.774C55.292 145.011 54.5938 145.129 53.8418 145.129C53.498 145.129 53.1543 145.111 52.8105 145.075C52.474 145.039 52.1302 144.979 51.7793 144.893V149.404H49.9102V134.215H51.5752L51.6934 136.02C52.2305 135.282 52.8034 134.766 53.4121 134.473C54.0208 134.172 54.6797 134.021 55.3887 134.021C56.0046 134.021 56.5452 134.15 57.0107 134.408C57.4762 134.666 57.8665 135.031 58.1816 135.504C58.4967 135.969 58.7331 136.535 58.8906 137.201C59.0482 137.86 59.127 138.598 59.127 139.414ZM57.2148 139.5C57.2148 138.934 57.1719 138.415 57.0859 137.942C57.0072 137.47 56.8783 137.065 56.6992 136.729C56.5202 136.392 56.291 136.131 56.0117 135.944C55.7324 135.751 55.3994 135.654 55.0127 135.654C54.7764 135.654 54.5365 135.694 54.293 135.772C54.0495 135.844 53.7952 135.969 53.5303 136.148C53.2725 136.32 52.9967 136.553 52.7031 136.847C52.4167 137.133 52.1087 137.491 51.7793 137.921V143.152C52.123 143.296 52.4847 143.41 52.8643 143.496C53.2438 143.575 53.6162 143.614 53.9814 143.614C54.9912 143.614 55.7826 143.274 56.3555 142.594C56.9284 141.906 57.2148 140.875 57.2148 139.5ZM66.335 134.021C66.557 134.021 66.7682 134.068 66.9688 134.161C67.1693 134.247 67.3447 134.365 67.4951 134.516C67.6455 134.666 67.7637 134.841 67.8496 135.042C67.9427 135.243 67.9893 135.454 67.9893 135.676C67.9893 135.905 67.9427 136.12 67.8496 136.32C67.7637 136.514 67.6455 136.686 67.4951 136.836C67.3447 136.986 67.1693 137.104 66.9688 137.19C66.7682 137.276 66.557 137.319 66.335 137.319C66.1058 137.319 65.891 137.276 65.6904 137.19C65.4971 137.104 65.3252 136.986 65.1748 136.836C65.0244 136.686 64.9062 136.514 64.8203 136.32C64.7344 136.12 64.6914 135.905 64.6914 135.676C64.6914 135.454 64.7344 135.243 64.8203 135.042C64.9062 134.841 65.0244 134.666 65.1748 134.516C65.3252 134.365 65.4971 134.247 65.6904 134.161C65.891 134.068 66.1058 134.021 66.335 134.021ZM66.335 141.896C66.557 141.896 66.7682 141.942 66.9688 142.035C67.1693 142.121 67.3447 142.239 67.4951 142.39C67.6455 142.54 67.7637 142.715 67.8496 142.916C67.9427 143.117 67.9893 143.328 67.9893 143.55C67.9893 143.779 67.9427 143.994 67.8496 144.194C67.7637 144.388 67.6455 144.56 67.4951 144.71C67.3447 144.86 67.1693 144.979 66.9688 145.064C66.7682 145.15 66.557 145.193 66.335 145.193C66.1058 145.193 65.891 145.15 65.6904 145.064C65.4971 144.979 65.3252 144.86 65.1748 144.71C65.0244 144.56 64.9062 144.388 64.8203 144.194C64.7344 143.994 64.6914 143.779 64.6914 143.55C64.6914 143.328 64.7344 143.117 64.8203 142.916C64.9062 142.715 65.0244 142.54 65.1748 142.39C65.3252 142.239 65.4971 142.121 65.6904 142.035C65.891 141.942 66.1058 141.896 66.335 141.896Z" fill="#666666"/>
<path d="M12.7969 12.9541C12.7969 13.2673 12.7926 13.5296 12.7842 13.7412C12.7757 13.9528 12.763 14.1517 12.7461 14.3379H3.7959C3.7959 15.6413 4.15983 16.6442 4.8877 17.3467C5.61556 18.0407 6.66504 18.3877 8.03613 18.3877C8.40853 18.3877 8.78092 18.375 9.15332 18.3496C9.52572 18.3158 9.88542 18.2734 10.2324 18.2227C10.5794 18.1719 10.9095 18.1169 11.2227 18.0576C11.5443 17.9899 11.8405 17.918 12.1113 17.8418V19.6572C11.5104 19.8265 10.8291 19.9619 10.0674 20.0635C9.31413 20.1735 8.53125 20.2285 7.71875 20.2285C6.62695 20.2285 5.6875 20.0804 4.90039 19.7842C4.11328 19.488 3.46582 19.0605 2.95801 18.502C2.45866 17.9349 2.08626 17.2451 1.84082 16.4326C1.60384 15.6117 1.48535 14.6849 1.48535 13.6523C1.48535 12.7552 1.6123 11.9089 1.86621 11.1133C2.12858 10.3092 2.50521 9.60677 2.99609 9.00586C3.49544 8.39648 4.10482 7.91406 4.82422 7.55859C5.54362 7.20312 6.36035 7.02539 7.27441 7.02539C8.16309 7.02539 8.9502 7.16504 9.63574 7.44434C10.3213 7.72363 10.8968 8.12142 11.3623 8.6377C11.8363 9.14551 12.1917 9.76758 12.4287 10.5039C12.6742 11.2318 12.7969 12.0485 12.7969 12.9541ZM10.499 12.6367C10.5244 12.0697 10.4694 11.5534 10.334 11.0879C10.1986 10.6139 9.98698 10.2077 9.69922 9.86914C9.41992 9.5306 9.06868 9.26823 8.64551 9.08203C8.22233 8.88737 7.73145 8.79004 7.17285 8.79004C6.69043 8.79004 6.25033 8.88314 5.85254 9.06934C5.45475 9.25553 5.11198 9.5179 4.82422 9.85645C4.53646 10.195 4.30371 10.6012 4.12598 11.0752C3.94824 11.5492 3.83822 12.0697 3.7959 12.6367H10.499ZM16.3262 7.25391H18.2939L18.3828 9.31055C18.7552 8.87044 19.1149 8.50651 19.4619 8.21875C19.8089 7.92253 20.1475 7.68555 20.4775 7.50781C20.8161 7.33008 21.1589 7.20736 21.5059 7.13965C21.8529 7.06348 22.2126 7.02539 22.585 7.02539C23.8968 7.02539 24.887 7.41471 25.5557 8.19336C26.2327 8.96354 26.5713 10.1273 26.5713 11.6846V20H24.3623V11.8623C24.3623 10.8636 24.1761 10.1273 23.8037 9.65332C23.4313 9.1709 22.877 8.92969 22.1406 8.92969C21.8698 8.92969 21.6032 8.97201 21.3408 9.05664C21.0869 9.13281 20.8203 9.27246 20.541 9.47559C20.2617 9.67025 19.957 9.93685 19.627 10.2754C19.3053 10.6139 18.9414 11.0371 18.5352 11.5449V20H16.3262V7.25391ZM29.9736 13.8936C29.9736 12.9795 30.0921 12.112 30.3291 11.291C30.5745 10.4701 30.9469 9.75065 31.4463 9.13281C31.9541 8.50651 32.6016 8.01139 33.3887 7.64746C34.1758 7.28353 35.1152 7.10156 36.207 7.10156C36.6387 7.10156 37.0661 7.13542 37.4893 7.20312C37.9124 7.27083 38.361 7.37663 38.835 7.52051L40.79 7.02539V25.2051H38.5684V20.3936L38.6826 17.6641C37.4808 19.3737 36.0505 20.2285 34.3916 20.2285C33.6468 20.2285 32.9993 20.0762 32.4492 19.7715C31.8991 19.4668 31.4378 19.0352 31.0654 18.4766C30.7015 17.918 30.4264 17.2493 30.2402 16.4707C30.0625 15.6921 29.9736 14.833 29.9736 13.8936ZM32.2334 13.7539C32.2334 14.4648 32.2842 15.1038 32.3857 15.6709C32.4958 16.238 32.6566 16.7204 32.8682 17.1182C33.0882 17.5075 33.359 17.8079 33.6807 18.0195C34.0107 18.2311 34.3958 18.3369 34.8359 18.3369C35.3945 18.3369 35.9827 18.0872 36.6006 17.5879C37.2269 17.0885 37.8828 16.348 38.5684 15.3662V9.4502C38.2298 9.28939 37.8447 9.1582 37.4131 9.05664C36.9899 8.95508 36.5371 8.9043 36.0547 8.9043C34.8105 8.9043 33.8626 9.31478 33.2109 10.1357C32.5592 10.9567 32.2334 12.1628 32.2334 13.7539ZM55.1611 20H53.1807L53.1045 17.9434C52.7236 18.3835 52.3597 18.7516 52.0127 19.0479C51.6742 19.3356 51.3356 19.5684 50.9971 19.7461C50.6585 19.9238 50.3158 20.0465 49.9688 20.1143C49.6302 20.1904 49.2705 20.2285 48.8896 20.2285C47.5778 20.2285 46.5876 19.8434 45.9189 19.0732C45.2503 18.3031 44.916 17.1393 44.916 15.582V7.25391H47.125V15.4043C47.125 17.3594 47.8613 18.3369 49.334 18.3369C49.6048 18.3369 49.8672 18.2988 50.1211 18.2227C50.3835 18.138 50.6543 17.9984 50.9336 17.8037C51.2214 17.6006 51.526 17.3298 51.8477 16.9912C52.1777 16.6527 52.5459 16.2253 52.9521 15.709V7.25391H55.1611V20ZM69.9766 12.9541C69.9766 13.2673 69.9723 13.5296 69.9639 13.7412C69.9554 13.9528 69.9427 14.1517 69.9258 14.3379H60.9756C60.9756 15.6413 61.3395 16.6442 62.0674 17.3467C62.7952 18.0407 63.8447 18.3877 65.2158 18.3877C65.5882 18.3877 65.9606 18.375 66.333 18.3496C66.7054 18.3158 67.0651 18.2734 67.4121 18.2227C67.7591 18.1719 68.0892 18.1169 68.4023 18.0576C68.724 17.9899 69.0202 17.918 69.291 17.8418V19.6572C68.6901 19.8265 68.0088 19.9619 67.2471 20.0635C66.4938 20.1735 65.7109 20.2285 64.8984 20.2285C63.8066 20.2285 62.8672 20.0804 62.0801 19.7842C61.293 19.488 60.6455 19.0605 60.1377 18.502C59.6383 17.9349 59.266 17.2451 59.0205 16.4326C58.7835 15.6117 58.665 14.6849 58.665 13.6523C58.665 12.7552 58.792 11.9089 59.0459 11.1133C59.3083 10.3092 59.6849 9.60677 60.1758 9.00586C60.6751 8.39648 61.2845 7.91406 62.0039 7.55859C62.7233 7.20312 63.54 7.02539 64.4541 7.02539C65.3428 7.02539 66.1299 7.16504 66.8154 7.44434C67.501 7.72363 68.0765 8.12142 68.542 8.6377C69.016 9.14551 69.3714 9.76758 69.6084 10.5039C69.8538 11.2318 69.9766 12.0485 69.9766 12.9541ZM67.6787 12.6367C67.7041 12.0697 67.6491 11.5534 67.5137 11.0879C67.3783 10.6139 67.1667 10.2077 66.8789 9.86914C66.5996 9.5306 66.2484 9.26823 65.8252 9.08203C65.402 8.88737 64.9111 8.79004 64.3525 8.79004C63.8701 8.79004 63.43 8.88314 63.0322 9.06934C62.6344 9.25553 62.2917 9.5179 62.0039 9.85645C61.7161 10.195 61.4834 10.6012 61.3057 11.0752C61.1279 11.5492 61.0179 12.0697 60.9756 12.6367H67.6787ZM83.751 20H81.7705L81.6943 17.9434C81.3135 18.3835 80.9495 18.7516 80.6025 19.0479C80.264 19.3356 79.9255 19.5684 79.5869 19.7461C79.2484 19.9238 78.9056 20.0465 78.5586 20.1143C78.2201 20.1904 77.8604 20.2285 77.4795 20.2285C76.1676 20.2285 75.1774 19.8434 74.5088 19.0732C73.8402 18.3031 73.5059 17.1393 73.5059 15.582V7.25391H75.7148V15.4043C75.7148 17.3594 76.4512 18.3369 77.9238 18.3369C78.1947 18.3369 78.457 18.2988 78.7109 18.2227C78.9733 18.138 79.2441 17.9984 79.5234 17.8037C79.8112 17.6006 80.1159 17.3298 80.4375 16.9912C80.7676 16.6527 81.1357 16.2253 81.542 15.709V7.25391H83.751V20ZM98.5664 12.9541C98.5664 13.2673 98.5622 13.5296 98.5537 13.7412C98.5452 13.9528 98.5326 14.1517 98.5156 14.3379H89.5654C89.5654 15.6413 89.9294 16.6442 90.6572 17.3467C91.3851 18.0407 92.4346 18.3877 93.8057 18.3877C94.1781 18.3877 94.5505 18.375 94.9229 18.3496C95.2952 18.3158 95.6549 18.2734 96.002 18.2227C96.349 18.1719 96.679 18.1169 96.9922 18.0576C97.3138 17.9899 97.61 17.918 97.8809 17.8418V19.6572C97.2799 19.8265 96.5986 19.9619 95.8369 20.0635C95.0837 20.1735 94.3008 20.2285 93.4883 20.2285C92.3965 20.2285 91.457 20.0804 90.6699 19.7842C89.8828 19.488 89.2354 19.0605 88.7275 18.502C88.2282 17.9349 87.8558 17.2451 87.6104 16.4326C87.3734 15.6117 87.2549 14.6849 87.2549 13.6523C87.2549 12.7552 87.3818 11.9089 87.6357 11.1133C87.8981 10.3092 88.2747 9.60677 88.7656 9.00586C89.265 8.39648 89.8743 7.91406 90.5938 7.55859C91.3132 7.20312 92.1299 7.02539 93.0439 7.02539C93.9326 7.02539 94.7197 7.16504 95.4053 7.44434C96.0908 7.72363 96.6663 8.12142 97.1318 8.6377C97.6058 9.14551 97.9613 9.76758 98.1982 10.5039C98.4437 11.2318 98.5664 12.0485 98.5664 12.9541ZM96.2686 12.6367C96.2939 12.0697 96.2389 11.5534 96.1035 11.0879C95.9681 10.6139 95.7565 10.2077 95.4688 9.86914C95.1895 9.5306 94.8382 9.26823 94.415 9.08203C93.9919 8.88737 93.501 8.79004 92.9424 8.79004C92.46 8.79004 92.0199 8.88314 91.6221 9.06934C91.2243 9.25553 90.8815 9.5179 90.5938 9.85645C90.306 10.195 90.0732 10.6012 89.8955 11.0752C89.7178 11.5492 89.6077 12.0697 89.5654 12.6367H96.2686ZM109.726 25.332C105.824 21.7181 103.873 17.7233 103.873 13.3477C103.873 12.3236 103.975 11.3037 104.178 10.2881C104.389 9.264 104.724 8.23991 105.181 7.21582C105.646 6.19173 106.256 5.16764 107.009 4.14355C107.771 3.11947 108.693 2.10384 109.776 1.09668L111.059 2.4043C107.775 5.64583 106.133 9.23861 106.133 13.1826C106.133 15.1462 106.548 17.0335 107.377 18.8447C108.206 20.6559 109.434 22.3656 111.059 23.9736L109.726 25.332ZM127.017 20H116.594V17.9434H120.859V5.83203L116.886 7.99023L116.073 6.11133L121.354 3.33105H123.31V17.9434H127.017V20ZM133.288 1.09668C137.19 4.71061 139.141 8.73079 139.141 13.1572C139.141 14.0713 139.048 15.0192 138.861 16.001C138.675 16.9827 138.358 17.9899 137.909 19.0225C137.461 20.0465 136.855 21.0876 136.094 22.1455C135.34 23.2035 134.388 24.2656 133.237 25.332L131.955 24.0244C133.605 22.391 134.837 20.6855 135.649 18.9082C136.462 17.1309 136.868 15.2689 136.868 13.3223C136.868 9.29362 135.23 5.67122 131.955 2.45508L133.288 1.09668ZM150.097 7.02539C150.359 7.02539 150.609 7.0804 150.846 7.19043C151.083 7.29199 151.29 7.43164 151.468 7.60938C151.646 7.78711 151.785 7.99447 151.887 8.23145C151.997 8.46842 152.052 8.7181 152.052 8.98047C152.052 9.2513 151.997 9.50521 151.887 9.74219C151.785 9.9707 151.646 10.1738 151.468 10.3516C151.29 10.5293 151.083 10.6689 150.846 10.7705C150.609 10.8721 150.359 10.9229 150.097 10.9229C149.826 10.9229 149.572 10.8721 149.335 10.7705C149.106 10.6689 148.903 10.5293 148.726 10.3516C148.548 10.1738 148.408 9.9707 148.307 9.74219C148.205 9.50521 148.154 9.2513 148.154 8.98047C148.154 8.7181 148.205 8.46842 148.307 8.23145C148.408 7.99447 148.548 7.78711 148.726 7.60938C148.903 7.43164 149.106 7.29199 149.335 7.19043C149.572 7.0804 149.826 7.02539 150.097 7.02539ZM150.097 16.3311C150.359 16.3311 150.609 16.3861 150.846 16.4961C151.083 16.5977 151.29 16.7373 151.468 16.915C151.646 17.0928 151.785 17.3001 151.887 17.5371C151.997 17.7741 152.052 18.0238 152.052 18.2861C152.052 18.557 151.997 18.8109 151.887 19.0479C151.785 19.2764 151.646 19.4795 151.468 19.6572C151.29 19.835 151.083 19.9746 150.846 20.0762C150.609 20.1777 150.359 20.2285 150.097 20.2285C149.826 20.2285 149.572 20.1777 149.335 20.0762C149.106 19.9746 148.903 19.835 148.726 19.6572C148.548 19.4795 148.408 19.2764 148.307 19.0479C148.205 18.8109 148.154 18.557 148.154 18.2861C148.154 18.0238 148.205 17.7741 148.307 17.5371C148.408 17.3001 148.548 17.0928 148.726 16.915C148.903 16.7373 149.106 16.5977 149.335 16.4961C149.572 16.3861 149.826 16.3311 150.097 16.3311Z" fill="black"/>
<path d="M220.924 138.398C220.924 139.533 220.763 140.523 220.441 141.369C220.128 142.215 219.692 142.918 219.134 143.477C218.575 144.035 217.915 144.454 217.153 144.733C216.392 145.013 215.566 145.152 214.678 145.152C214.271 145.152 213.865 145.131 213.459 145.089C213.061 145.047 212.655 144.975 212.24 144.873V150.205H210.031V132.254H211.999L212.139 134.387C212.773 133.515 213.451 132.906 214.17 132.559C214.889 132.203 215.668 132.025 216.506 132.025C217.234 132.025 217.873 132.178 218.423 132.482C218.973 132.787 219.434 133.219 219.807 133.777C220.179 134.327 220.458 134.996 220.645 135.783C220.831 136.562 220.924 137.434 220.924 138.398ZM218.664 138.5C218.664 137.831 218.613 137.218 218.512 136.659C218.419 136.101 218.266 135.622 218.055 135.225C217.843 134.827 217.572 134.518 217.242 134.298C216.912 134.069 216.519 133.955 216.062 133.955C215.782 133.955 215.499 134.002 215.211 134.095C214.923 134.179 214.623 134.327 214.31 134.539C214.005 134.742 213.679 135.017 213.332 135.364C212.993 135.703 212.63 136.126 212.24 136.634V142.816C212.646 142.986 213.074 143.121 213.522 143.223C213.971 143.316 214.411 143.362 214.843 143.362C216.036 143.362 216.971 142.96 217.648 142.156C218.326 141.344 218.664 140.125 218.664 138.5ZM234.571 145H232.591L232.515 142.943C232.134 143.383 231.77 143.752 231.423 144.048C231.084 144.336 230.746 144.568 230.407 144.746C230.069 144.924 229.726 145.047 229.379 145.114C229.04 145.19 228.681 145.229 228.3 145.229C226.988 145.229 225.998 144.843 225.329 144.073C224.66 143.303 224.326 142.139 224.326 140.582V132.254H226.535V140.404C226.535 142.359 227.271 143.337 228.744 143.337C229.015 143.337 229.277 143.299 229.531 143.223C229.794 143.138 230.064 142.998 230.344 142.804C230.632 142.601 230.936 142.33 231.258 141.991C231.588 141.653 231.956 141.225 232.362 140.709V132.254H234.571V145ZM248.714 141.521C248.714 141.97 248.638 142.372 248.485 142.728C248.333 143.083 248.126 143.4 247.863 143.68C247.601 143.951 247.296 144.183 246.949 144.378C246.602 144.573 246.23 144.733 245.832 144.86C245.443 144.987 245.041 145.08 244.626 145.14C244.211 145.199 243.805 145.229 243.407 145.229C242.544 145.229 241.748 145.19 241.021 145.114C240.301 145.038 239.594 144.915 238.9 144.746V142.715C239.645 142.926 240.386 143.087 241.122 143.197C241.858 143.307 242.59 143.362 243.318 143.362C244.376 143.362 245.159 143.218 245.667 142.931C246.175 142.643 246.429 142.232 246.429 141.699C246.429 141.471 246.386 141.268 246.302 141.09C246.226 140.904 246.082 140.73 245.87 140.569C245.659 140.4 245.328 140.227 244.88 140.049C244.44 139.871 243.835 139.668 243.064 139.439C242.489 139.27 241.956 139.08 241.465 138.868C240.982 138.648 240.563 138.39 240.208 138.094C239.853 137.798 239.573 137.451 239.37 137.053C239.167 136.655 239.065 136.185 239.065 135.644C239.065 135.288 239.146 134.899 239.307 134.476C239.476 134.052 239.759 133.659 240.157 133.295C240.555 132.931 241.092 132.631 241.77 132.394C242.447 132.148 243.293 132.025 244.309 132.025C244.808 132.025 245.362 132.055 245.972 132.114C246.581 132.165 247.216 132.258 247.876 132.394V134.361C247.182 134.192 246.522 134.069 245.896 133.993C245.278 133.909 244.74 133.866 244.283 133.866C243.733 133.866 243.268 133.909 242.887 133.993C242.514 134.078 242.21 134.196 241.973 134.349C241.744 134.493 241.579 134.666 241.478 134.869C241.376 135.064 241.325 135.275 241.325 135.504C241.325 135.732 241.368 135.94 241.452 136.126C241.545 136.312 241.71 136.494 241.947 136.672C242.193 136.841 242.531 137.015 242.963 137.192C243.395 137.362 243.957 137.548 244.651 137.751C245.405 137.971 246.039 138.204 246.556 138.449C247.072 138.686 247.491 138.953 247.812 139.249C248.134 139.545 248.363 139.88 248.498 140.252C248.642 140.624 248.714 141.048 248.714 141.521ZM263.161 145H260.952V136.862C260.952 135.881 260.766 135.148 260.394 134.666C260.03 134.175 259.505 133.93 258.819 133.93C258.523 133.93 258.244 133.972 257.981 134.057C257.728 134.133 257.461 134.272 257.182 134.476C256.902 134.67 256.598 134.937 256.268 135.275C255.938 135.614 255.557 136.037 255.125 136.545V145H252.916V127.062H255.125V132.254L255.049 134.26C255.396 133.845 255.734 133.498 256.064 133.219C256.403 132.931 256.737 132.698 257.067 132.521C257.406 132.343 257.749 132.216 258.096 132.14C258.443 132.063 258.802 132.025 259.175 132.025C260.444 132.025 261.426 132.415 262.12 133.193C262.814 133.964 263.161 135.127 263.161 136.685V145ZM274.841 150.332C270.939 146.718 268.988 142.723 268.988 138.348C268.988 137.324 269.09 136.304 269.293 135.288C269.505 134.264 269.839 133.24 270.296 132.216C270.761 131.192 271.371 130.168 272.124 129.144C272.886 128.119 273.808 127.104 274.892 126.097L276.174 127.404C272.89 130.646 271.248 134.239 271.248 138.183C271.248 140.146 271.663 142.034 272.492 143.845C273.322 145.656 274.549 147.366 276.174 148.974L274.841 150.332ZM292.132 145H281.709V142.943H285.975V130.832L282.001 132.99L281.188 131.111L286.47 128.331H288.425V142.943H292.132V145ZM298.403 126.097C302.305 129.711 304.256 133.731 304.256 138.157C304.256 139.071 304.163 140.019 303.977 141.001C303.79 141.983 303.473 142.99 303.024 144.022C302.576 145.047 301.971 146.088 301.209 147.146C300.456 148.203 299.504 149.266 298.353 150.332L297.07 149.024C298.721 147.391 299.952 145.686 300.765 143.908C301.577 142.131 301.983 140.269 301.983 138.322C301.983 134.294 300.346 130.671 297.07 127.455L298.403 126.097Z" fill="#00B2FF"/>
<path d="M410 31L410 144C410 155.046 418.954 164 430 164H499C510.046 164 519 155.046 519 144V31" stroke="black" stroke-width="2" stroke-linecap="round"/>
<path d="M372.467 182.894C372.467 181.81 372.615 180.85 372.911 180.012C373.207 179.165 373.626 178.454 374.168 177.879C374.718 177.295 375.374 176.855 376.136 176.559C376.906 176.254 377.761 176.102 378.7 176.102C379.106 176.102 379.504 176.127 379.894 176.178C380.291 176.229 380.681 176.309 381.062 176.419V171.062H383.283V189H381.303L381.227 186.588C380.609 187.485 379.94 188.149 379.221 188.581C378.501 189.013 377.723 189.229 376.885 189.229C376.157 189.229 375.514 189.076 374.955 188.771C374.405 188.467 373.944 188.039 373.571 187.489C373.207 186.931 372.932 186.262 372.746 185.483C372.56 184.705 372.467 183.841 372.467 182.894ZM374.727 182.754C374.727 184.294 374.951 185.445 375.399 186.207C375.856 186.96 376.5 187.337 377.329 187.337C377.888 187.337 378.476 187.087 379.094 186.588C379.72 186.089 380.376 185.348 381.062 184.366V178.45C380.698 178.281 380.296 178.154 379.855 178.069C379.415 177.976 378.979 177.93 378.548 177.93C377.346 177.93 376.407 178.319 375.729 179.098C375.061 179.876 374.727 181.095 374.727 182.754ZM398.175 181.954C398.175 182.267 398.171 182.53 398.162 182.741C398.154 182.953 398.141 183.152 398.124 183.338H389.174C389.174 184.641 389.538 185.644 390.266 186.347C390.993 187.041 392.043 187.388 393.414 187.388C393.786 187.388 394.159 187.375 394.531 187.35C394.904 187.316 395.263 187.273 395.61 187.223C395.957 187.172 396.287 187.117 396.601 187.058C396.922 186.99 397.218 186.918 397.489 186.842V188.657C396.888 188.826 396.207 188.962 395.445 189.063C394.692 189.174 393.909 189.229 393.097 189.229C392.005 189.229 391.065 189.08 390.278 188.784C389.491 188.488 388.844 188.061 388.336 187.502C387.837 186.935 387.464 186.245 387.219 185.433C386.982 184.612 386.863 183.685 386.863 182.652C386.863 181.755 386.99 180.909 387.244 180.113C387.507 179.309 387.883 178.607 388.374 178.006C388.873 177.396 389.483 176.914 390.202 176.559C390.922 176.203 391.738 176.025 392.652 176.025C393.541 176.025 394.328 176.165 395.014 176.444C395.699 176.724 396.275 177.121 396.74 177.638C397.214 178.146 397.57 178.768 397.807 179.504C398.052 180.232 398.175 181.049 398.175 181.954ZM395.877 181.637C395.902 181.07 395.847 180.553 395.712 180.088C395.576 179.614 395.365 179.208 395.077 178.869C394.798 178.531 394.447 178.268 394.023 178.082C393.6 177.887 393.109 177.79 392.551 177.79C392.068 177.79 391.628 177.883 391.23 178.069C390.833 178.256 390.49 178.518 390.202 178.856C389.914 179.195 389.682 179.601 389.504 180.075C389.326 180.549 389.216 181.07 389.174 181.637H395.877ZM401.057 182.894C401.057 181.979 401.175 181.112 401.412 180.291C401.658 179.47 402.03 178.751 402.529 178.133C403.037 177.507 403.685 177.011 404.472 176.647C405.259 176.284 406.198 176.102 407.29 176.102C407.722 176.102 408.149 176.135 408.572 176.203C408.995 176.271 409.444 176.377 409.918 176.521L411.873 176.025V194.205H409.651V189.394L409.766 186.664C408.564 188.374 407.133 189.229 405.475 189.229C404.73 189.229 404.082 189.076 403.532 188.771C402.982 188.467 402.521 188.035 402.148 187.477C401.785 186.918 401.509 186.249 401.323 185.471C401.146 184.692 401.057 183.833 401.057 182.894ZM403.316 182.754C403.316 183.465 403.367 184.104 403.469 184.671C403.579 185.238 403.74 185.72 403.951 186.118C404.171 186.507 404.442 186.808 404.764 187.02C405.094 187.231 405.479 187.337 405.919 187.337C406.478 187.337 407.066 187.087 407.684 186.588C408.31 186.089 408.966 185.348 409.651 184.366V178.45C409.313 178.289 408.928 178.158 408.496 178.057C408.073 177.955 407.62 177.904 407.138 177.904C405.894 177.904 404.946 178.315 404.294 179.136C403.642 179.957 403.316 181.163 403.316 182.754ZM426.244 189H424.264L424.188 186.943C423.807 187.383 423.443 187.752 423.096 188.048C422.757 188.336 422.419 188.568 422.08 188.746C421.742 188.924 421.399 189.047 421.052 189.114C420.713 189.19 420.354 189.229 419.973 189.229C418.661 189.229 417.671 188.843 417.002 188.073C416.333 187.303 415.999 186.139 415.999 184.582V176.254H418.208V184.404C418.208 186.359 418.944 187.337 420.417 187.337C420.688 187.337 420.95 187.299 421.204 187.223C421.466 187.138 421.737 186.998 422.017 186.804C422.304 186.601 422.609 186.33 422.931 185.991C423.261 185.653 423.629 185.225 424.035 184.709V176.254H426.244V189ZM441.06 181.954C441.06 182.267 441.055 182.53 441.047 182.741C441.038 182.953 441.026 183.152 441.009 183.338H432.059C432.059 184.641 432.423 185.644 433.15 186.347C433.878 187.041 434.928 187.388 436.299 187.388C436.671 187.388 437.044 187.375 437.416 187.35C437.788 187.316 438.148 187.273 438.495 187.223C438.842 187.172 439.172 187.117 439.485 187.058C439.807 186.99 440.103 186.918 440.374 186.842V188.657C439.773 188.826 439.092 188.962 438.33 189.063C437.577 189.174 436.794 189.229 435.981 189.229C434.89 189.229 433.95 189.08 433.163 188.784C432.376 188.488 431.729 188.061 431.221 187.502C430.721 186.935 430.349 186.245 430.104 185.433C429.867 184.612 429.748 183.685 429.748 182.652C429.748 181.755 429.875 180.909 430.129 180.113C430.391 179.309 430.768 178.607 431.259 178.006C431.758 177.396 432.368 176.914 433.087 176.559C433.806 176.203 434.623 176.025 435.537 176.025C436.426 176.025 437.213 176.165 437.898 176.444C438.584 176.724 439.16 177.121 439.625 177.638C440.099 178.146 440.454 178.768 440.691 179.504C440.937 180.232 441.06 181.049 441.06 181.954ZM438.762 181.637C438.787 181.07 438.732 180.553 438.597 180.088C438.461 179.614 438.25 179.208 437.962 178.869C437.683 178.531 437.331 178.268 436.908 178.082C436.485 177.887 435.994 177.79 435.436 177.79C434.953 177.79 434.513 177.883 434.115 178.069C433.717 178.256 433.375 178.518 433.087 178.856C432.799 179.195 432.566 179.601 432.389 180.075C432.211 180.549 432.101 181.07 432.059 181.637H438.762ZM454.834 189H452.854L452.777 186.943C452.396 187.383 452.033 187.752 451.686 188.048C451.347 188.336 451.008 188.568 450.67 188.746C450.331 188.924 449.989 189.047 449.642 189.114C449.303 189.19 448.943 189.229 448.562 189.229C447.251 189.229 446.26 188.843 445.592 188.073C444.923 187.303 444.589 186.139 444.589 184.582V176.254H446.798V184.404C446.798 186.359 447.534 187.337 449.007 187.337C449.278 187.337 449.54 187.299 449.794 187.223C450.056 187.138 450.327 186.998 450.606 186.804C450.894 186.601 451.199 186.33 451.521 185.991C451.851 185.653 452.219 185.225 452.625 184.709V176.254H454.834V189ZM469.649 181.954C469.649 182.267 469.645 182.53 469.637 182.741C469.628 182.953 469.616 183.152 469.599 183.338H460.648C460.648 184.641 461.012 185.644 461.74 186.347C462.468 187.041 463.518 187.388 464.889 187.388C465.261 187.388 465.633 187.375 466.006 187.35C466.378 187.316 466.738 187.273 467.085 187.223C467.432 187.172 467.762 187.117 468.075 187.058C468.397 186.99 468.693 186.918 468.964 186.842V188.657C468.363 188.826 467.682 188.962 466.92 189.063C466.167 189.174 465.384 189.229 464.571 189.229C463.479 189.229 462.54 189.08 461.753 188.784C460.966 188.488 460.318 188.061 459.811 187.502C459.311 186.935 458.939 186.245 458.693 185.433C458.456 184.612 458.338 183.685 458.338 182.652C458.338 181.755 458.465 180.909 458.719 180.113C458.981 179.309 459.358 178.607 459.849 178.006C460.348 177.396 460.957 176.914 461.677 176.559C462.396 176.203 463.213 176.025 464.127 176.025C465.016 176.025 465.803 176.165 466.488 176.444C467.174 176.724 467.749 177.121 468.215 177.638C468.689 178.146 469.044 178.768 469.281 179.504C469.527 180.232 469.649 181.049 469.649 181.954ZM467.352 181.637C467.377 181.07 467.322 180.553 467.187 180.088C467.051 179.614 466.84 179.208 466.552 178.869C466.272 178.531 465.921 178.268 465.498 178.082C465.075 177.887 464.584 177.79 464.025 177.79C463.543 177.79 463.103 177.883 462.705 178.069C462.307 178.256 461.965 178.518 461.677 178.856C461.389 179.195 461.156 179.601 460.979 180.075C460.801 180.549 460.691 181.07 460.648 181.637H467.352ZM485.442 194.205H471.147V192.377H485.442V194.205ZM497.566 185.521C497.566 185.97 497.49 186.372 497.338 186.728C497.186 187.083 496.978 187.4 496.716 187.68C496.453 187.951 496.149 188.183 495.802 188.378C495.455 188.573 495.082 188.733 494.685 188.86C494.295 188.987 493.893 189.08 493.479 189.14C493.064 189.199 492.658 189.229 492.26 189.229C491.396 189.229 490.601 189.19 489.873 189.114C489.154 189.038 488.447 188.915 487.753 188.746V186.715C488.498 186.926 489.238 187.087 489.975 187.197C490.711 187.307 491.443 187.362 492.171 187.362C493.229 187.362 494.012 187.218 494.52 186.931C495.027 186.643 495.281 186.232 495.281 185.699C495.281 185.471 495.239 185.268 495.154 185.09C495.078 184.904 494.934 184.73 494.723 184.569C494.511 184.4 494.181 184.227 493.732 184.049C493.292 183.871 492.687 183.668 491.917 183.439C491.341 183.27 490.808 183.08 490.317 182.868C489.835 182.648 489.416 182.39 489.061 182.094C488.705 181.798 488.426 181.451 488.223 181.053C488.02 180.655 487.918 180.185 487.918 179.644C487.918 179.288 487.998 178.899 488.159 178.476C488.328 178.052 488.612 177.659 489.01 177.295C489.408 176.931 489.945 176.631 490.622 176.394C491.299 176.148 492.146 176.025 493.161 176.025C493.66 176.025 494.215 176.055 494.824 176.114C495.434 176.165 496.068 176.258 496.729 176.394V178.361C496.035 178.192 495.374 178.069 494.748 177.993C494.13 177.909 493.593 177.866 493.136 177.866C492.586 177.866 492.12 177.909 491.739 177.993C491.367 178.078 491.062 178.196 490.825 178.349C490.597 178.493 490.432 178.666 490.33 178.869C490.229 179.064 490.178 179.275 490.178 179.504C490.178 179.732 490.22 179.94 490.305 180.126C490.398 180.312 490.563 180.494 490.8 180.672C491.045 180.841 491.384 181.015 491.815 181.192C492.247 181.362 492.81 181.548 493.504 181.751C494.257 181.971 494.892 182.204 495.408 182.449C495.924 182.686 496.343 182.953 496.665 183.249C496.987 183.545 497.215 183.88 497.351 184.252C497.494 184.624 497.566 185.048 497.566 185.521ZM512.039 188.822C511.54 188.949 511.023 189.038 510.49 189.089C509.957 189.148 509.415 189.178 508.865 189.178C507.266 189.178 506.072 188.818 505.285 188.099C504.498 187.371 504.104 186.258 504.104 184.76V178.107H500.537V176.254H504.104V172.75L506.313 172.179V176.254H512.039V178.107H506.313V184.582C506.313 185.496 506.555 186.182 507.037 186.639C507.528 187.087 508.247 187.312 509.195 187.312C509.602 187.312 510.046 187.282 510.528 187.223C511.011 187.155 511.514 187.053 512.039 186.918V188.822ZM524.252 189L524.201 187.286C523.507 187.972 522.8 188.467 522.081 188.771C521.37 189.076 520.621 189.229 519.834 189.229C519.106 189.229 518.484 189.135 517.968 188.949C517.451 188.763 517.024 188.509 516.686 188.188C516.355 187.857 516.11 187.472 515.949 187.032C515.797 186.592 515.721 186.114 515.721 185.598C515.721 184.32 516.195 183.321 517.143 182.602C518.099 181.874 519.508 181.51 521.37 181.51H524.011V180.393C524.011 179.639 523.77 179.038 523.287 178.59C522.805 178.133 522.068 177.904 521.078 177.904C520.359 177.904 519.648 177.985 518.945 178.146C518.251 178.306 517.532 178.535 516.787 178.831V176.838C517.066 176.736 517.375 176.639 517.714 176.546C518.061 176.444 518.425 176.355 518.806 176.279C519.187 176.203 519.584 176.144 519.999 176.102C520.414 176.051 520.833 176.025 521.256 176.025C522.026 176.025 522.72 176.11 523.338 176.279C523.956 176.449 524.476 176.707 524.899 177.054C525.331 177.401 525.661 177.837 525.89 178.361C526.118 178.886 526.232 179.504 526.232 180.215V189H524.252ZM524.011 183.198H521.205C520.655 183.198 520.181 183.253 519.783 183.363C519.385 183.473 519.06 183.63 518.806 183.833C518.552 184.036 518.361 184.282 518.234 184.569C518.116 184.849 518.057 185.166 518.057 185.521C518.057 185.767 518.095 186.004 518.171 186.232C518.247 186.452 518.37 186.651 518.539 186.829C518.708 186.998 518.928 187.134 519.199 187.235C519.47 187.337 519.8 187.388 520.189 187.388C520.697 187.388 521.277 187.235 521.929 186.931C522.589 186.618 523.283 186.127 524.011 185.458V183.198ZM540.261 188.53C539.685 188.75 539.093 188.911 538.483 189.013C537.882 189.123 537.26 189.178 536.617 189.178C534.603 189.178 533.05 188.632 531.958 187.54C530.875 186.448 530.333 184.853 530.333 182.754C530.333 181.747 530.49 180.833 530.803 180.012C531.116 179.191 531.556 178.488 532.123 177.904C532.69 177.32 533.367 176.872 534.154 176.559C534.941 176.237 535.809 176.076 536.757 176.076C537.417 176.076 538.035 176.123 538.61 176.216C539.186 176.309 539.736 176.461 540.261 176.673V178.78C539.711 178.493 539.148 178.285 538.572 178.158C538.005 178.023 537.417 177.955 536.808 177.955C536.241 177.955 535.703 178.065 535.195 178.285C534.696 178.497 534.256 178.806 533.875 179.212C533.494 179.618 533.194 180.113 532.974 180.697C532.754 181.281 532.644 181.941 532.644 182.678C532.644 184.218 533.016 185.373 533.761 186.144C534.514 186.905 535.555 187.286 536.884 187.286C537.485 187.286 538.064 187.218 538.623 187.083C539.19 186.948 539.736 186.744 540.261 186.474V188.53ZM556.117 189H553.083L547.142 182.17V189H544.933V171.062H547.142V182.081L552.867 176.254H555.787L549.808 182.132L556.117 189Z" fill="black"/>
</g>
<defs>
<clipPath id="clip0_6273_960">
<rect width="557" height="196" fill="white"/>
</clipPath>
</defs>
</svg>
