<svg width="1006" height="139" viewBox="0 0 1006 139" fill="none" xmlns="http://www.w3.org/2000/svg">
<rect width="1006" height="139" fill="white"/>
<rect x="492" y="1" width="62" height="28" rx="6" fill="#FFF4EF" stroke="#FF5500" stroke-width="2"/>
<rect x="246" y="1" width="62" height="28" rx="6" fill="#F2FBFF" stroke="#00B2FF" stroke-width="2"/>
<circle cx="32" cy="84" r="23.75" stroke="black" stroke-width="2.5"/>
<path d="M38.6523 88.1846C38.6523 89.0244 38.4814 89.8154 38.1396 90.5576C37.7979 91.29 37.2852 91.9346 36.6016 92.4912C35.918 93.0381 35.0586 93.4727 34.0234 93.7949C32.9883 94.1074 31.7822 94.2637 30.4053 94.2637C29.6436 94.2637 28.96 94.2393 28.3545 94.1904C27.749 94.1416 27.1826 94.0781 26.6553 94V91.7148C27.2607 91.8223 27.9004 91.9053 28.5742 91.9639C29.248 92.0225 29.9365 92.0518 30.6396 92.0518C31.5967 92.0518 32.4121 91.9688 33.0859 91.8027C33.7695 91.627 34.3262 91.3779 34.7559 91.0557C35.1855 90.7334 35.498 90.3428 35.6934 89.8838C35.8887 89.4248 35.9863 88.9072 35.9863 88.3311C35.9863 87.8037 35.8691 87.3447 35.6348 86.9541C35.4004 86.5635 35.0684 86.2363 34.6387 85.9727C34.2188 85.709 33.7109 85.5137 33.1152 85.3867C32.5293 85.25 31.8848 85.1816 31.1816 85.1816H28.999V83.0869H31.2109C31.7871 83.0869 32.3096 83.0137 32.7783 82.8672C33.2568 82.7109 33.6621 82.4912 33.9941 82.208C34.3359 81.9248 34.5947 81.5781 34.7705 81.168C34.9561 80.748 35.0488 80.2744 35.0488 79.7471C35.0488 78.7217 34.7363 77.9746 34.1113 77.5059C33.4863 77.0371 32.5684 76.8027 31.3574 76.8027C30.7129 76.8027 30.0488 76.8662 29.3652 76.9932C28.6816 77.1201 27.9492 77.3105 27.168 77.5645V75.3379C27.5 75.2207 27.8516 75.1182 28.2227 75.0303C28.6035 74.9326 28.9795 74.8545 29.3506 74.7959C29.7314 74.7275 30.1074 74.6787 30.4785 74.6494C30.8496 74.6104 31.2061 74.5908 31.5479 74.5908C32.5635 74.5908 33.457 74.7031 34.2285 74.9277C35 75.1426 35.6445 75.4551 36.1621 75.8652C36.6797 76.2754 37.0703 76.7734 37.334 77.3594C37.5977 77.9453 37.7295 78.6045 37.7295 79.3369C37.7295 80.4307 37.4463 81.3486 36.8799 82.0908C36.3232 82.833 35.5566 83.4238 34.5801 83.8633C35.0781 83.9414 35.5664 84.0977 36.0449 84.332C36.5332 84.5664 36.9678 84.8691 37.3486 85.2402C37.7393 85.6016 38.0518 86.0312 38.2861 86.5293C38.5303 87.0273 38.6523 87.5791 38.6523 88.1846Z" fill="black"/>
<path d="M126.884 84.8839C127.372 84.3957 127.372 83.6043 126.884 83.1161L118.929 75.1612C118.441 74.673 117.649 74.673 117.161 75.1612C116.673 75.6493 116.673 76.4408 117.161 76.9289L124.232 84L117.161 91.0711C116.673 91.5592 116.673 92.3507 117.161 92.8388C117.649 93.327 118.441 93.327 118.929 92.8388L126.884 84.8839ZM56 85.25H126V82.75H56V85.25Z" fill="black"/>
<circle cx="154" cy="84" r="23.75" stroke="black" stroke-width="2.5"/>
<path d="M161.019 94H148.406V91.7148L153.357 86.793C154.168 85.9922 154.827 85.2988 155.335 84.7129C155.843 84.127 156.238 83.5947 156.521 83.1162C156.805 82.6279 156.995 82.1689 157.093 81.7393C157.19 81.3096 157.239 80.8457 157.239 80.3477C157.239 79.8789 157.176 79.4346 157.049 79.0146C156.922 78.585 156.727 78.209 156.463 77.8867C156.199 77.5645 155.857 77.3105 155.438 77.125C155.018 76.9395 154.515 76.8467 153.929 76.8467C153.118 76.8467 152.381 77.0273 151.717 77.3887C151.053 77.75 150.442 78.2188 149.886 78.7949L148.479 77.1104C149.202 76.3486 150.032 75.7383 150.97 75.2793C151.917 74.8203 153.016 74.5908 154.266 74.5908C155.115 74.5908 155.887 74.7178 156.58 74.9717C157.283 75.2256 157.889 75.5918 158.396 76.0703C158.904 76.5488 159.295 77.1348 159.568 77.8281C159.852 78.5215 159.993 79.3027 159.993 80.1719C159.993 80.9043 159.896 81.583 159.7 82.208C159.505 82.833 159.207 83.458 158.807 84.083C158.416 84.6982 157.918 85.3379 157.312 86.002C156.717 86.666 156.009 87.3936 155.188 88.1846L151.717 91.5684H161.019V94Z" fill="black"/>
<path d="M249.884 84.8839C250.372 84.3957 250.372 83.6043 249.884 83.1161L241.929 75.1612C241.441 74.673 240.649 74.673 240.161 75.1612C239.673 75.6493 239.673 76.4408 240.161 76.9289L247.232 84L240.161 91.0711C239.673 91.5592 239.673 92.3507 240.161 92.8388C240.649 93.327 241.441 93.327 241.929 92.8388L249.884 84.8839ZM179 85.25H249V82.75H179V85.25Z" fill="black"/>
<circle cx="277" cy="84" r="23.75" stroke="black" stroke-width="2.5"/>
<path d="M283.971 89.7666H280.704V94H278.097V89.7666H268.883V87.5254L277.042 74.8545H280.704V87.5254H283.971V89.7666ZM278.097 77.3154L271.432 87.5254H278.097V77.3154Z" fill="black"/>
<path d="M372.884 84.8839C373.372 84.3957 373.372 83.6043 372.884 83.1161L364.929 75.1612C364.441 74.673 363.649 74.673 363.161 75.1612C362.673 75.6493 362.673 76.4408 363.161 76.9289L370.232 84L363.161 91.0711C362.673 91.5592 362.673 92.3507 363.161 92.8388C363.649 93.327 364.441 93.327 364.929 92.8388L372.884 84.8839ZM302 85.25H372V82.75H302V85.25Z" fill="black"/>
<circle cx="400" cy="84" r="23.75" fill="white" stroke="black" stroke-width="2.5"/>
<path d="M406.535 87.877C406.535 88.8242 406.33 89.6885 405.92 90.4697C405.51 91.251 404.943 91.9248 404.221 92.4912C403.508 93.0479 402.663 93.4824 401.687 93.7949C400.71 94.1074 399.655 94.2637 398.522 94.2637C398.239 94.2637 397.932 94.2539 397.6 94.2344C397.277 94.2246 396.955 94.2051 396.633 94.1758C396.311 94.1562 395.993 94.1318 395.681 94.1025C395.378 94.0732 395.104 94.0391 394.86 94V91.6855C395.388 91.8125 395.988 91.9053 396.662 91.9639C397.346 92.0225 398.034 92.0518 398.728 92.0518C399.509 92.0518 400.212 91.959 400.837 91.7734C401.462 91.5879 401.994 91.3242 402.434 90.9824C402.873 90.6309 403.21 90.2109 403.444 89.7227C403.679 89.2246 403.796 88.668 403.796 88.0527C403.796 86.8613 403.366 85.9971 402.507 85.46C401.657 84.9131 400.432 84.6396 398.83 84.6396H395.197V74.8545H405.51V77.0811H397.6V82.457H399.27C400.188 82.457 401.081 82.54 401.95 82.7061C402.819 82.8721 403.591 83.165 404.265 83.585C404.948 83.9951 405.495 84.5518 405.905 85.2549C406.325 85.9482 406.535 86.8223 406.535 87.877Z" fill="black"/>
<path d="M495.884 84.8839C496.372 84.3957 496.372 83.6043 495.884 83.1161L487.929 75.1612C487.441 74.673 486.649 74.673 486.161 75.1612C485.673 75.6493 485.673 76.4408 486.161 76.9289L493.232 84L486.161 91.0711C485.673 91.5592 485.673 92.3507 486.161 92.8388C486.649 93.327 487.441 93.327 487.929 92.8388L495.884 84.8839ZM425 85.25H495V82.75H425V85.25Z" fill="black"/>
<circle cx="523" cy="84" r="23.75" fill="white" stroke="black" stroke-width="2.5"/>
<path d="M529.857 94H517.831V91.627H522.753V77.6523L518.168 80.1426L517.23 77.9746L523.324 74.7666H525.58V91.627H529.857V94Z" fill="black"/>
<path d="M155.116 119.212C154.681 118.872 154.053 118.949 153.712 119.384C153.372 119.819 153.449 120.447 153.884 120.788L155.116 119.212ZM266 114C266 113.448 265.552 113 265 113H256C255.448 113 255 113.448 255 114C255 114.552 255.448 115 256 115H264V123C264 123.552 264.448 124 265 124C265.552 124 266 123.552 266 123V114ZM155.509 122.014C155.955 122.34 156.58 122.242 156.906 121.796C157.231 121.349 157.133 120.724 156.687 120.398L155.509 122.014ZM159.96 122.637C159.496 122.338 158.877 122.473 158.578 122.938C158.28 123.402 158.415 124.021 158.879 124.319L159.96 122.637ZM162.368 126.433C162.848 126.707 163.459 126.541 163.733 126.061C164.007 125.582 163.84 124.971 163.361 124.697L162.368 126.433ZM166.869 126.593C166.377 126.342 165.775 126.537 165.524 127.029C165.273 127.521 165.468 128.123 165.959 128.374L166.869 126.593ZM169.618 130.141C170.121 130.371 170.714 130.149 170.943 129.647C171.172 129.144 170.951 128.551 170.448 128.322L169.618 130.141ZM174.107 129.897C173.596 129.69 173.012 129.936 172.805 130.448C172.597 130.96 172.844 131.543 173.356 131.751L174.107 129.897ZM177.16 133.202C177.68 133.388 178.252 133.117 178.438 132.597C178.624 132.078 178.354 131.505 177.834 131.319L177.16 133.202ZM181.617 132.585C181.09 132.421 180.529 132.715 180.365 133.242C180.201 133.769 180.495 134.33 181.022 134.495L181.617 132.585ZM184.929 135.624C185.462 135.767 186.01 135.449 186.153 134.916C186.295 134.382 185.978 133.834 185.444 133.692L184.929 135.624ZM189.313 134.638C188.774 134.518 188.24 134.858 188.12 135.397C188 135.936 188.34 136.47 188.879 136.59L189.313 134.638ZM192.868 137.388C193.412 137.485 193.931 137.122 194.028 136.578C194.125 136.035 193.762 135.516 193.218 135.419L192.868 137.388ZM197.154 136.031C196.606 135.958 196.103 136.343 196.031 136.89C195.958 137.438 196.342 137.94 196.89 138.013L197.154 136.031ZM200.936 138.461C201.487 138.509 201.972 138.102 202.02 137.552C202.068 137.002 201.662 136.517 201.111 136.468L200.936 138.461ZM205.084 136.726C204.532 136.703 204.066 137.132 204.043 137.683C204.02 138.235 204.449 138.701 205.001 138.724L205.084 136.726ZM209.074 138.798C209.626 138.795 210.071 138.345 210.068 137.793C210.065 137.24 209.615 136.795 209.063 136.798L209.074 138.798ZM213.039 136.68C212.487 136.71 212.065 137.181 212.094 137.733C212.124 138.284 212.595 138.707 213.147 138.677L213.039 136.68ZM217.21 138.356C217.76 138.299 218.159 137.807 218.101 137.258C218.044 136.709 217.552 136.31 217.003 136.367L217.21 138.356ZM220.945 135.855C220.4 135.94 220.026 136.451 220.111 136.997C220.196 137.543 220.708 137.916 221.253 137.831L220.945 135.855ZM225.265 137.099C225.806 136.986 226.152 136.456 226.039 135.915C225.926 135.375 225.396 135.028 224.855 135.142L225.265 137.099ZM228.721 134.225C228.187 134.367 227.869 134.914 228.011 135.448C228.152 135.982 228.7 136.3 229.233 136.159L228.721 134.225ZM233.147 135.01C233.672 134.84 233.961 134.276 233.791 133.751C233.622 133.225 233.058 132.937 232.532 133.106L233.147 135.01ZM236.278 131.786C235.762 131.983 235.504 132.561 235.702 133.077C235.899 133.593 236.477 133.851 236.993 133.654L236.278 131.786ZM240.762 132.095C241.266 131.87 241.493 131.279 241.269 130.775C241.044 130.27 240.453 130.043 239.948 130.268L240.762 132.095ZM243.534 128.557C243.042 128.808 242.846 129.41 243.097 129.902C243.348 130.394 243.95 130.59 244.442 130.339L243.534 128.557ZM248.025 128.392C248.504 128.116 248.667 127.504 248.391 127.026C248.115 126.548 247.504 126.384 247.025 126.66L248.025 128.392ZM250.417 124.584C249.953 124.884 249.821 125.503 250.121 125.967C250.421 126.43 251.04 126.563 251.504 126.263L250.417 124.584ZM254.872 123.959C255.32 123.636 255.422 123.012 255.099 122.563C254.776 122.115 254.151 122.014 253.703 122.337L254.872 123.959ZM256.878 119.93C256.446 120.274 256.375 120.903 256.719 121.335C257.063 121.767 257.692 121.838 258.124 121.494L256.878 119.93ZM261.241 118.889C261.657 118.525 261.699 117.894 261.335 117.478C260.971 117.062 260.339 117.021 259.924 117.384L261.241 118.889ZM262.855 114.7C262.456 115.082 262.442 115.715 262.824 116.114C263.206 116.513 263.839 116.527 264.238 116.145L262.855 114.7ZM153.884 120.788C154.407 121.197 154.949 121.606 155.509 122.014L156.687 120.398C156.145 120.003 155.621 119.607 155.116 119.212L153.884 120.788ZM158.879 124.319C159.99 125.033 161.155 125.739 162.368 126.433L163.361 124.697C162.176 124.02 161.042 123.331 159.96 122.637L158.879 124.319ZM165.959 128.374C167.142 128.978 168.363 129.568 169.618 130.141L170.448 128.322C169.219 127.761 168.025 127.184 166.869 126.593L165.959 128.374ZM173.356 131.751C174.596 132.254 175.864 132.739 177.16 133.202L177.834 131.319C176.565 130.865 175.322 130.39 174.107 129.897L173.356 131.751ZM181.022 134.495C182.303 134.894 183.606 135.271 184.929 135.624L185.444 133.692C184.148 133.346 182.872 132.976 181.617 132.585L181.022 134.495ZM188.879 136.59C190.192 136.882 191.523 137.149 192.868 137.388L193.218 135.419C191.901 135.185 190.599 134.923 189.313 134.638L188.879 136.59ZM196.89 138.013C198.226 138.191 199.576 138.341 200.936 138.461L201.111 136.468C199.781 136.351 198.461 136.205 197.154 136.031L196.89 138.013ZM205.001 138.724C206.349 138.78 207.708 138.806 209.074 138.798L209.063 136.798C207.729 136.806 206.402 136.781 205.084 136.726L205.001 138.724ZM213.147 138.677C214.496 138.604 215.851 138.498 217.21 138.356L217.003 136.367C215.677 136.505 214.355 136.609 213.039 136.68L213.147 138.677ZM221.253 137.831C222.588 137.623 223.926 137.38 225.265 137.099L224.855 135.142C223.55 135.415 222.246 135.652 220.945 135.855L221.253 137.831ZM229.233 136.159C230.538 135.813 231.843 135.43 233.147 135.01L232.532 133.106C231.263 133.516 229.992 133.889 228.721 134.225L229.233 136.159ZM236.993 133.654C238.252 133.172 239.508 132.653 240.762 132.095L239.948 130.268C238.728 130.811 237.504 131.317 236.278 131.786L236.993 133.654ZM244.442 130.339C245.641 129.727 246.836 129.079 248.025 128.392L247.025 126.66C245.866 127.33 244.701 127.962 243.534 128.557L244.442 130.339ZM251.504 126.263C252.633 125.532 253.756 124.764 254.872 123.959L253.703 122.337C252.613 123.122 251.518 123.871 250.417 124.584L251.504 126.263ZM258.124 121.494C259.17 120.66 260.209 119.793 261.241 118.889L259.924 117.384C258.915 118.268 257.899 119.116 256.878 119.93L258.124 121.494ZM264.238 116.145C264.729 115.674 265.219 115.195 265.707 114.707L264.293 113.293C263.815 113.771 263.336 114.24 262.855 114.7L264.238 116.145Z" fill="#00B2FF"/>
<path d="M282.616 119.212C282.181 118.872 281.553 118.949 281.212 119.384C280.872 119.819 280.949 120.447 281.384 120.788L282.616 119.212ZM393.5 114C393.5 113.448 393.052 113 392.5 113H383.5C382.948 113 382.5 113.448 382.5 114C382.5 114.552 382.948 115 383.5 115H391.5V123C391.5 123.552 391.948 124 392.5 124C393.052 124 393.5 123.552 393.5 123V114ZM284.917 123.355C285.375 123.665 285.996 123.545 286.306 123.088C286.616 122.631 286.496 122.009 286.039 121.699L284.917 123.355ZM293.352 126.065C292.864 125.807 292.259 125.995 292.001 126.483C291.743 126.972 291.93 127.576 292.419 127.834L293.352 126.065ZM300.318 131.53C300.828 131.741 301.413 131.498 301.624 130.988C301.834 130.477 301.591 129.892 301.081 129.682L300.318 131.53ZM309.117 132.585C308.59 132.421 308.029 132.715 307.865 133.242C307.701 133.77 307.995 134.33 308.522 134.495L309.117 132.585ZM316.945 136.714C317.485 136.831 318.017 136.487 318.134 135.948C318.25 135.408 317.907 134.876 317.367 134.759L316.945 136.714ZM325.784 136.174C325.235 136.108 324.737 136.499 324.671 137.047C324.605 137.596 324.996 138.094 325.545 138.16L325.784 136.174ZM334.251 138.78C334.803 138.791 335.26 138.353 335.272 137.801C335.284 137.249 334.846 136.792 334.294 136.78L334.251 138.78ZM342.807 136.525C342.257 136.571 341.848 137.054 341.893 137.604C341.938 138.154 342.421 138.564 342.972 138.518L342.807 136.525ZM351.622 137.33C352.164 137.225 352.519 136.7 352.413 136.158C352.308 135.615 351.784 135.261 351.241 135.366L351.622 137.33ZM359.491 133.279C358.964 133.444 358.671 134.006 358.837 134.533C359.002 135.059 359.564 135.352 360.091 135.187L359.491 133.279ZM368.262 132.095C368.766 131.87 368.993 131.279 368.769 130.775C368.544 130.27 367.953 130.043 367.449 130.268L368.262 132.095ZM375.015 126.375C374.539 126.654 374.38 127.267 374.659 127.743C374.939 128.22 375.552 128.379 376.028 128.099L375.015 126.375ZM383.306 123.277C383.749 122.948 383.842 122.322 383.513 121.878C383.184 121.435 382.557 121.342 382.114 121.671L383.306 123.277ZM388.698 116.247C388.29 116.618 388.26 117.251 388.632 117.659C389.004 118.068 389.636 118.097 390.045 117.726L388.698 116.247ZM281.384 120.788C282.482 121.646 283.661 122.505 284.917 123.355L286.039 121.699C284.819 120.873 283.676 120.041 282.616 119.212L281.384 120.788ZM292.419 127.834C294.885 129.135 297.527 130.379 300.318 131.53L301.081 129.682C298.347 128.554 295.763 127.337 293.352 126.065L292.419 127.834ZM308.522 134.495C311.236 135.341 314.05 136.089 316.945 136.714L317.367 134.759C314.533 134.147 311.776 133.414 309.117 132.585L308.522 134.495ZM325.545 138.16C328.396 138.503 331.303 138.716 334.251 138.78L334.294 136.78C331.414 136.718 328.572 136.509 325.784 136.174L325.545 138.16ZM342.972 138.518C345.837 138.282 348.725 137.892 351.622 137.33L351.241 135.366C348.418 135.914 345.602 136.295 342.807 136.525L342.972 138.518ZM360.091 135.187C362.822 134.328 365.549 133.302 368.262 132.095L367.449 130.268C364.807 131.444 362.151 132.443 359.491 133.279L360.091 135.187ZM376.028 128.099C378.479 126.66 380.908 125.056 383.306 123.277L382.114 121.671C379.773 123.407 377.404 124.971 375.015 126.375L376.028 128.099ZM390.045 117.726C391.107 116.758 392.162 115.752 393.207 114.707L391.793 113.293C390.769 114.316 389.738 115.301 388.698 116.247L390.045 117.726Z" fill="#FF5500"/>
<path d="M405.616 119.212C405.181 118.872 404.553 118.949 404.212 119.384C403.872 119.819 403.949 120.447 404.384 120.788L405.616 119.212ZM516.5 114C516.5 113.448 516.052 113 515.5 113H506.5C505.948 113 505.5 113.448 505.5 114C505.5 114.552 505.948 115 506.5 115H514.5V123C514.5 123.552 514.948 124 515.5 124C516.052 124 516.5 123.552 516.5 123V114ZM407.917 123.355C408.375 123.665 408.996 123.545 409.306 123.088C409.616 122.631 409.496 122.009 409.039 121.699L407.917 123.355ZM416.352 126.065C415.864 125.807 415.259 125.995 415.001 126.483C414.743 126.972 414.93 127.576 415.419 127.834L416.352 126.065ZM423.318 131.53C423.828 131.741 424.413 131.498 424.624 130.988C424.834 130.477 424.591 129.892 424.081 129.682L423.318 131.53ZM432.117 132.585C431.59 132.421 431.029 132.715 430.865 133.242C430.701 133.77 430.995 134.33 431.522 134.495L432.117 132.585ZM439.945 136.714C440.485 136.831 441.017 136.487 441.134 135.948C441.25 135.408 440.907 134.876 440.367 134.759L439.945 136.714ZM448.784 136.174C448.235 136.108 447.737 136.499 447.671 137.047C447.605 137.596 447.996 138.094 448.545 138.16L448.784 136.174ZM457.251 138.78C457.803 138.791 458.26 138.353 458.272 137.801C458.284 137.249 457.846 136.792 457.294 136.78L457.251 138.78ZM465.807 136.525C465.257 136.571 464.848 137.054 464.893 137.604C464.938 138.154 465.421 138.564 465.972 138.518L465.807 136.525ZM474.622 137.33C475.164 137.225 475.519 136.7 475.413 136.158C475.308 135.615 474.784 135.261 474.241 135.366L474.622 137.33ZM482.491 133.279C481.964 133.444 481.671 134.006 481.837 134.533C482.002 135.059 482.564 135.352 483.091 135.187L482.491 133.279ZM491.262 132.095C491.766 131.87 491.993 131.279 491.769 130.775C491.544 130.27 490.953 130.043 490.449 130.268L491.262 132.095ZM498.015 126.375C497.539 126.654 497.38 127.267 497.659 127.743C497.939 128.22 498.552 128.379 499.028 128.099L498.015 126.375ZM506.306 123.277C506.749 122.948 506.842 122.322 506.513 121.878C506.184 121.435 505.557 121.342 505.114 121.671L506.306 123.277ZM511.698 116.247C511.29 116.618 511.26 117.251 511.632 117.659C512.004 118.068 512.636 118.097 513.045 117.726L511.698 116.247ZM404.384 120.788C405.482 121.646 406.661 122.505 407.917 123.355L409.039 121.699C407.819 120.873 406.676 120.041 405.616 119.212L404.384 120.788ZM415.419 127.834C417.885 129.135 420.527 130.379 423.318 131.53L424.081 129.682C421.347 128.554 418.763 127.337 416.352 126.065L415.419 127.834ZM431.522 134.495C434.236 135.341 437.05 136.089 439.945 136.714L440.367 134.759C437.533 134.147 434.776 133.414 432.117 132.585L431.522 134.495ZM448.545 138.16C451.396 138.503 454.303 138.716 457.251 138.78L457.294 136.78C454.414 136.718 451.572 136.509 448.784 136.174L448.545 138.16ZM465.972 138.518C468.837 138.282 471.725 137.892 474.622 137.33L474.241 135.366C471.418 135.914 468.602 136.295 465.807 136.525L465.972 138.518ZM483.091 135.187C485.822 134.328 488.549 133.302 491.262 132.095L490.449 130.268C487.807 131.444 485.151 132.443 482.491 133.279L483.091 135.187ZM499.028 128.099C501.479 126.66 503.908 125.056 506.306 123.277L505.114 121.671C502.773 123.407 500.404 124.971 498.015 126.375L499.028 128.099ZM513.045 117.726C514.107 116.758 515.162 115.752 516.207 114.707L514.793 113.293C513.769 114.316 512.738 115.301 511.698 116.247L513.045 117.726Z" fill="#FF5500"/>
<rect x="586" y="53" width="418" height="56" rx="10" fill="#EDEDED" stroke="#999999" stroke-width="2" stroke-dasharray="10 10"/>
<path d="M617.343 74.1182C616.183 73.8727 615.185 73.75 614.347 73.75C612.358 73.75 611.363 74.791 611.363 76.873V79.1074H616.949V80.9482H611.363V90H609.116V80.9482H605.016V79.1074H609.116V77C609.116 73.6061 610.885 71.9092 614.423 71.9092C615.303 71.9092 616.276 72.0107 617.343 72.2139V74.1182ZM628.515 90L628.464 88.2861C627.77 88.9717 627.063 89.4668 626.344 89.7715C625.633 90.0762 624.884 90.2285 624.097 90.2285C623.369 90.2285 622.747 90.1354 622.23 89.9492C621.714 89.763 621.287 89.5091 620.948 89.1875C620.618 88.8574 620.373 88.4723 620.212 88.0322C620.06 87.5921 619.983 87.1139 619.983 86.5977C619.983 85.3197 620.457 84.321 621.405 83.6016C622.362 82.8737 623.771 82.5098 625.633 82.5098H628.273V81.3926C628.273 80.6393 628.032 80.0384 627.55 79.5898C627.067 79.1328 626.331 78.9043 625.341 78.9043C624.621 78.9043 623.91 78.9847 623.208 79.1455C622.514 79.3063 621.795 79.5348 621.05 79.8311V77.8379C621.329 77.7363 621.638 77.639 621.977 77.5459C622.324 77.4443 622.688 77.3555 623.068 77.2793C623.449 77.2031 623.847 77.1439 624.262 77.1016C624.676 77.0508 625.095 77.0254 625.519 77.0254C626.289 77.0254 626.983 77.11 627.601 77.2793C628.218 77.4486 628.739 77.7067 629.162 78.0537C629.594 78.4007 629.924 78.8366 630.152 79.3613C630.381 79.8861 630.495 80.5039 630.495 81.2148V90H628.515ZM628.273 84.1982H625.468C624.918 84.1982 624.444 84.2533 624.046 84.3633C623.648 84.4733 623.322 84.6299 623.068 84.833C622.814 85.0361 622.624 85.2816 622.497 85.5693C622.379 85.8486 622.319 86.166 622.319 86.5215C622.319 86.7669 622.357 87.0039 622.434 87.2324C622.51 87.4525 622.632 87.6514 622.802 87.8291C622.971 87.9984 623.191 88.1338 623.462 88.2354C623.733 88.3369 624.063 88.3877 624.452 88.3877C624.96 88.3877 625.54 88.2354 626.191 87.9307C626.852 87.6175 627.546 87.1266 628.273 86.458V84.1982ZM644.714 86.5215C644.714 86.9701 644.638 87.3721 644.485 87.7275C644.333 88.083 644.126 88.4004 643.863 88.6797C643.601 88.9505 643.296 89.1833 642.949 89.3779C642.602 89.5726 642.23 89.7334 641.832 89.8604C641.443 89.9873 641.041 90.0804 640.626 90.1396C640.211 90.1989 639.805 90.2285 639.407 90.2285C638.544 90.2285 637.748 90.1904 637.021 90.1143C636.301 90.0381 635.594 89.9154 634.9 89.7461V87.7148C635.645 87.9264 636.386 88.0872 637.122 88.1973C637.858 88.3073 638.59 88.3623 639.318 88.3623C640.376 88.3623 641.159 88.2184 641.667 87.9307C642.175 87.6429 642.429 87.2324 642.429 86.6992C642.429 86.4707 642.386 86.2676 642.302 86.0898C642.226 85.9036 642.082 85.7301 641.87 85.5693C641.659 85.4001 641.328 85.2266 640.88 85.0488C640.44 84.8711 639.835 84.668 639.064 84.4395C638.489 84.2702 637.956 84.0798 637.465 83.8682C636.982 83.6481 636.563 83.39 636.208 83.0938C635.853 82.7975 635.573 82.4505 635.37 82.0527C635.167 81.6549 635.065 81.1852 635.065 80.6436C635.065 80.2881 635.146 79.8988 635.307 79.4756C635.476 79.0524 635.759 78.6589 636.157 78.2949C636.555 77.931 637.092 77.6305 637.77 77.3936C638.447 77.1481 639.293 77.0254 640.309 77.0254C640.808 77.0254 641.362 77.055 641.972 77.1143C642.581 77.165 643.216 77.2581 643.876 77.3936V79.3613C643.182 79.1921 642.522 79.0693 641.896 78.9932C641.278 78.9085 640.74 78.8662 640.283 78.8662C639.733 78.8662 639.268 78.9085 638.887 78.9932C638.514 79.0778 638.21 79.1963 637.973 79.3486C637.744 79.4925 637.579 79.666 637.478 79.8691C637.376 80.0638 637.325 80.2754 637.325 80.5039C637.325 80.7324 637.368 80.9398 637.452 81.126C637.545 81.3122 637.71 81.4941 637.947 81.6719C638.193 81.8411 638.531 82.0146 638.963 82.1924C639.395 82.3617 639.957 82.5479 640.651 82.751C641.405 82.971 642.039 83.2038 642.556 83.4492C643.072 83.6862 643.491 83.9528 643.812 84.249C644.134 84.5452 644.363 84.8796 644.498 85.252C644.642 85.6243 644.714 86.0475 644.714 86.5215ZM659.187 89.8223C658.687 89.9492 658.171 90.0381 657.638 90.0889C657.104 90.1481 656.563 90.1777 656.013 90.1777C654.413 90.1777 653.22 89.818 652.433 89.0986C651.646 88.3708 651.252 87.2578 651.252 85.7598V79.1074H647.685V77.2539H651.252V73.75L653.461 73.1787V77.2539H659.187V79.1074H653.461V85.582C653.461 86.4961 653.702 87.1816 654.185 87.6387C654.675 88.0872 655.395 88.3115 656.343 88.3115C656.749 88.3115 657.193 88.2819 657.676 88.2227C658.158 88.1549 658.662 88.0534 659.187 87.918V89.8223ZM668.226 86.001C668.513 86.001 668.784 86.056 669.038 86.166C669.3 86.276 669.525 86.4284 669.711 86.623C669.906 86.8177 670.058 87.0462 670.168 87.3086C670.278 87.5625 670.333 87.8376 670.333 88.1338C670.333 88.4215 670.278 88.6924 670.168 88.9463C670.058 89.2002 669.906 89.4245 669.711 89.6191C669.525 89.8053 669.3 89.9535 669.038 90.0635C668.784 90.1735 668.513 90.2285 668.226 90.2285C667.929 90.2285 667.654 90.1735 667.4 90.0635C667.146 89.9535 666.922 89.8053 666.728 89.6191C666.541 89.4245 666.393 89.2002 666.283 88.9463C666.173 88.6924 666.118 88.4215 666.118 88.1338C666.118 87.8376 666.173 87.5625 666.283 87.3086C666.393 87.0462 666.541 86.8177 666.728 86.623C666.922 86.4284 667.146 86.276 667.4 86.166C667.654 86.056 667.929 86.001 668.226 86.001ZM677.506 77.2539H679.474L679.562 79.3105C679.935 78.8704 680.295 78.5065 680.642 78.2188C680.989 77.9225 681.327 77.6855 681.657 77.5078C681.996 77.3301 682.339 77.2074 682.686 77.1396C683.033 77.0635 683.392 77.0254 683.765 77.0254C685.076 77.0254 686.067 77.4147 686.735 78.1934C687.412 78.9635 687.751 80.1273 687.751 81.6846V90H685.542V81.8623C685.542 80.8636 685.356 80.1273 684.983 79.6533C684.611 79.1709 684.057 78.9297 683.32 78.9297C683.049 78.9297 682.783 78.972 682.521 79.0566C682.267 79.1328 682 79.2725 681.721 79.4756C681.441 79.6702 681.137 79.9368 680.807 80.2754C680.485 80.6139 680.121 81.0371 679.715 81.5449V90H677.506V77.2539ZM702.566 82.9541C702.566 83.2673 702.562 83.5296 702.554 83.7412C702.545 83.9528 702.533 84.1517 702.516 84.3379H693.565C693.565 85.6413 693.929 86.6442 694.657 87.3467C695.385 88.0407 696.435 88.3877 697.806 88.3877C698.178 88.3877 698.55 88.375 698.923 88.3496C699.295 88.3158 699.655 88.2734 700.002 88.2227C700.349 88.1719 700.679 88.1169 700.992 88.0576C701.314 87.9899 701.61 87.918 701.881 87.8418V89.6572C701.28 89.8265 700.599 89.9619 699.837 90.0635C699.084 90.1735 698.301 90.2285 697.488 90.2285C696.396 90.2285 695.457 90.0804 694.67 89.7842C693.883 89.488 693.235 89.0605 692.728 88.502C692.228 87.9349 691.856 87.2451 691.61 86.4326C691.373 85.6117 691.255 84.6849 691.255 83.6523C691.255 82.7552 691.382 81.9089 691.636 81.1133C691.898 80.3092 692.275 79.6068 692.766 79.0059C693.265 78.3965 693.874 77.9141 694.594 77.5586C695.313 77.2031 696.13 77.0254 697.044 77.0254C697.933 77.0254 698.72 77.165 699.405 77.4443C700.091 77.7236 700.666 78.1214 701.132 78.6377C701.606 79.1455 701.961 79.7676 702.198 80.5039C702.444 81.2318 702.566 82.0485 702.566 82.9541ZM700.269 82.6367C700.294 82.0697 700.239 81.5534 700.104 81.0879C699.968 80.6139 699.757 80.2077 699.469 79.8691C699.189 79.5306 698.838 79.2682 698.415 79.082C697.992 78.8874 697.501 78.79 696.942 78.79C696.46 78.79 696.02 78.8831 695.622 79.0693C695.224 79.2555 694.882 79.5179 694.594 79.8564C694.306 80.195 694.073 80.6012 693.896 81.0752C693.718 81.5492 693.608 82.0697 693.565 82.6367H700.269ZM717.585 90H714.652L711.212 85.1377L707.81 90H704.953L709.892 83.6016L705.182 77.2539H708.013L711.364 82.1543L714.652 77.2539H717.382L712.596 83.6523L717.585 90ZM730.661 89.8223C730.162 89.9492 729.646 90.0381 729.112 90.0889C728.579 90.1481 728.037 90.1777 727.487 90.1777C725.888 90.1777 724.694 89.818 723.907 89.0986C723.12 88.3708 722.727 87.2578 722.727 85.7598V79.1074H719.159V77.2539H722.727V73.75L724.936 73.1787V77.2539H730.661V79.1074H724.936V85.582C724.936 86.4961 725.177 87.1816 725.659 87.6387C726.15 88.0872 726.869 88.3115 727.817 88.3115C728.224 88.3115 728.668 88.2819 729.15 88.2227C729.633 88.1549 730.136 88.0534 730.661 87.918V89.8223ZM759.556 81.7988H748.638V79.9326H759.556V81.7988ZM759.556 86.2168H748.638V84.3506H759.556V86.2168ZM773.851 81.7988H762.933V79.9326H773.851V81.7988ZM773.851 86.2168H762.933V84.3506H773.851V86.2168ZM791.865 77.2539H793.833L793.922 79.3105C794.294 78.8704 794.654 78.5065 795.001 78.2188C795.348 77.9225 795.687 77.6855 796.017 77.5078C796.355 77.3301 796.698 77.2074 797.045 77.1396C797.392 77.0635 797.752 77.0254 798.124 77.0254C799.436 77.0254 800.426 77.4147 801.095 78.1934C801.772 78.9635 802.11 80.1273 802.11 81.6846V90H799.901V81.8623C799.901 80.8636 799.715 80.1273 799.343 79.6533C798.97 79.1709 798.416 78.9297 797.68 78.9297C797.409 78.9297 797.142 78.972 796.88 79.0566C796.626 79.1328 796.359 79.2725 796.08 79.4756C795.801 79.6702 795.496 79.9368 795.166 80.2754C794.844 80.6139 794.48 81.0371 794.074 81.5449V90H791.865V77.2539ZM816.405 90H814.425L814.349 87.9434C813.968 88.3835 813.604 88.7516 813.257 89.0479C812.918 89.3356 812.58 89.5684 812.241 89.7461C811.903 89.9238 811.56 90.0465 811.213 90.1143C810.874 90.1904 810.515 90.2285 810.134 90.2285C808.822 90.2285 807.832 89.8434 807.163 89.0732C806.494 88.3031 806.16 87.1393 806.16 85.582V77.2539H808.369V85.4043C808.369 87.3594 809.105 88.3369 810.578 88.3369C810.849 88.3369 811.111 88.2988 811.365 88.2227C811.628 88.138 811.898 87.9984 812.178 87.8037C812.465 87.6006 812.77 87.3298 813.092 86.9912C813.422 86.6527 813.79 86.2253 814.196 85.709V77.2539H816.405V90ZM824.797 73.877H821.026V72.0615H827.031V88.1592H830.827V90H820.607V88.1592H824.797V73.877ZM839.092 73.877H835.321V72.0615H841.326V88.1592H845.122V90H834.902V88.1592H839.092V73.877Z" fill="black"/>
<path d="M900.207 82.7071C900.598 82.3166 900.598 81.6834 900.207 81.2929L893.843 74.9289C893.453 74.5384 892.819 74.5384 892.429 74.9289C892.038 75.3195 892.038 75.9526 892.429 76.3431L898.086 82L892.429 87.6569C892.038 88.0474 892.038 88.6805 892.429 89.0711C892.819 89.4616 893.453 89.4616 893.843 89.0711L900.207 82.7071ZM859 83H899.5V81H859V83Z" fill="black"/>
<path d="M925.924 83.3984C925.924 84.4564 925.776 85.4043 925.479 86.2422C925.192 87.0716 924.777 87.7783 924.235 88.3623C923.702 88.9378 923.05 89.3822 922.28 89.6953C921.51 90 920.643 90.1523 919.678 90.1523C918.924 90.1523 918.154 90.0804 917.367 89.9365C916.58 89.7926 915.801 89.5641 915.031 89.251V72.0615H917.24V77L917.139 79.3613C917.773 78.5065 918.451 77.9056 919.17 77.5586C919.898 77.2031 920.676 77.0254 921.506 77.0254C922.234 77.0254 922.873 77.1777 923.423 77.4824C923.973 77.7871 924.434 78.2188 924.807 78.7773C925.179 79.3275 925.458 79.9961 925.645 80.7832C925.831 81.5618 925.924 82.4336 925.924 83.3984ZM923.664 83.5C923.664 82.8314 923.613 82.2178 923.512 81.6592C923.419 81.1006 923.266 80.6224 923.055 80.2246C922.843 79.8268 922.572 79.5179 922.242 79.2979C921.912 79.0693 921.519 78.9551 921.062 78.9551C920.782 78.9551 920.499 79.0016 920.211 79.0947C919.923 79.1794 919.623 79.3275 919.31 79.5391C919.005 79.7422 918.679 80.0173 918.332 80.3643C917.993 80.7028 917.63 81.126 917.24 81.6338V87.8164C917.672 87.9857 918.112 88.1211 918.561 88.2227C919.009 88.3158 919.437 88.3623 919.843 88.3623C920.351 88.3623 920.833 88.2819 921.29 88.1211C921.756 87.9603 922.162 87.6937 922.509 87.3213C922.864 86.9404 923.144 86.4411 923.347 85.8232C923.558 85.1969 923.664 84.4225 923.664 83.5ZM929.847 77.2539H931.865L931.929 79.6025C932.682 78.6969 933.423 78.041 934.15 77.6348C934.887 77.2285 935.627 77.0254 936.372 77.0254C937.692 77.0254 938.691 77.4528 939.368 78.3076C940.054 79.1624 940.371 80.432 940.32 82.1162H938.086C938.111 80.999 937.946 80.1908 937.591 79.6914C937.244 79.1836 936.732 78.9297 936.055 78.9297C935.758 78.9297 935.458 78.9847 935.153 79.0947C934.857 79.1963 934.548 79.3656 934.227 79.6025C933.913 79.8311 933.579 80.1273 933.224 80.4912C932.868 80.8551 932.487 81.2952 932.081 81.8115V90H929.847V77.2539ZM954.387 82.9541C954.387 83.2673 954.382 83.5296 954.374 83.7412C954.366 83.9528 954.353 84.1517 954.336 84.3379H945.386C945.386 85.6413 945.75 86.6442 946.478 87.3467C947.205 88.0407 948.255 88.3877 949.626 88.3877C949.998 88.3877 950.371 88.375 950.743 88.3496C951.116 88.3158 951.475 88.2734 951.822 88.2227C952.169 88.1719 952.499 88.1169 952.812 88.0576C953.134 87.9899 953.43 87.918 953.701 87.8418V89.6572C953.1 89.8265 952.419 89.9619 951.657 90.0635C950.904 90.1735 950.121 90.2285 949.309 90.2285C948.217 90.2285 947.277 90.0804 946.49 89.7842C945.703 89.488 945.056 89.0605 944.548 88.502C944.049 87.9349 943.676 87.2451 943.431 86.4326C943.194 85.6117 943.075 84.6849 943.075 83.6523C943.075 82.7552 943.202 81.9089 943.456 81.1133C943.718 80.3092 944.095 79.6068 944.586 79.0059C945.085 78.3965 945.695 77.9141 946.414 77.5586C947.133 77.2031 947.95 77.0254 948.864 77.0254C949.753 77.0254 950.54 77.165 951.226 77.4443C951.911 77.7236 952.487 78.1214 952.952 78.6377C953.426 79.1455 953.782 79.7676 954.019 80.5039C954.264 81.2318 954.387 82.0485 954.387 82.9541ZM952.089 82.6367C952.114 82.0697 952.059 81.5534 951.924 81.0879C951.788 80.6139 951.577 80.2077 951.289 79.8691C951.01 79.5306 950.659 79.2682 950.235 79.082C949.812 78.8874 949.321 78.79 948.763 78.79C948.28 78.79 947.84 78.8831 947.442 79.0693C947.045 79.2555 946.702 79.5179 946.414 79.8564C946.126 80.195 945.894 80.6012 945.716 81.0752C945.538 81.5492 945.428 82.0697 945.386 82.6367H952.089ZM966.104 90L966.054 88.2861C965.36 88.9717 964.653 89.4668 963.934 89.7715C963.223 90.0762 962.474 90.2285 961.687 90.2285C960.959 90.2285 960.337 90.1354 959.82 89.9492C959.304 89.763 958.877 89.5091 958.538 89.1875C958.208 88.8574 957.963 88.4723 957.802 88.0322C957.649 87.5921 957.573 87.1139 957.573 86.5977C957.573 85.3197 958.047 84.321 958.995 83.6016C959.951 82.8737 961.361 82.5098 963.223 82.5098H965.863V81.3926C965.863 80.6393 965.622 80.0384 965.14 79.5898C964.657 79.1328 963.921 78.9043 962.931 78.9043C962.211 78.9043 961.5 78.9847 960.798 79.1455C960.104 79.3063 959.384 79.5348 958.64 79.8311V77.8379C958.919 77.7363 959.228 77.639 959.566 77.5459C959.913 77.4443 960.277 77.3555 960.658 77.2793C961.039 77.2031 961.437 77.1439 961.852 77.1016C962.266 77.0508 962.685 77.0254 963.108 77.0254C963.879 77.0254 964.573 77.11 965.19 77.2793C965.808 77.4486 966.329 77.7067 966.752 78.0537C967.184 78.4007 967.514 78.8366 967.742 79.3613C967.971 79.8861 968.085 80.5039 968.085 81.2148V90H966.104ZM965.863 84.1982H963.058C962.507 84.1982 962.034 84.2533 961.636 84.3633C961.238 84.4733 960.912 84.6299 960.658 84.833C960.404 85.0361 960.214 85.2816 960.087 85.5693C959.968 85.8486 959.909 86.166 959.909 86.5215C959.909 86.7669 959.947 87.0039 960.023 87.2324C960.1 87.4525 960.222 87.6514 960.392 87.8291C960.561 87.9984 960.781 88.1338 961.052 88.2354C961.323 88.3369 961.653 88.3877 962.042 88.3877C962.55 88.3877 963.13 88.2354 963.781 87.9307C964.441 87.6175 965.135 87.1266 965.863 86.458V84.1982ZM983.675 90H980.641L974.699 83.1699V90H972.49V72.0615H974.699V83.0811L980.425 77.2539H983.345L977.365 83.1318L983.675 90Z" fill="black"/>
<path d="M276.293 57.7071C276.683 58.0976 277.317 58.0976 277.707 57.7071L284.071 51.3431C284.462 50.9526 284.462 50.3195 284.071 49.9289C283.681 49.5384 283.047 49.5384 282.657 49.9289L277 55.5858L271.343 49.9289C270.953 49.5384 270.319 49.5384 269.929 49.9289C269.538 50.3195 269.538 50.9526 269.929 51.3431L276.293 57.7071ZM276 30L276 57L278 57L278 30L276 30Z" fill="#00B2FF"/>
<path d="M522.293 57.7071C522.683 58.0976 523.317 58.0976 523.707 57.7071L530.071 51.3431C530.462 50.9526 530.462 50.3195 530.071 49.9289C529.681 49.5384 529.047 49.5384 528.657 49.9289L523 55.5858L517.343 49.9289C516.953 49.5384 516.319 49.5384 515.929 49.9289C515.538 50.3195 515.538 50.9526 515.929 51.3431L522.293 57.7071ZM522 30L522 57L524 57L524 30L522 30Z" fill="#FF5500"/>
<path d="M264.334 19.3242C264.334 19.6693 264.275 19.9785 264.158 20.252C264.041 20.5254 263.882 20.7695 263.68 20.9844C263.478 21.1927 263.243 21.3717 262.977 21.5215C262.71 21.6712 262.423 21.7949 262.117 21.8926C261.818 21.9902 261.508 22.0618 261.189 22.1074C260.87 22.153 260.558 22.1758 260.252 22.1758C259.588 22.1758 258.976 22.1465 258.416 22.0879C257.863 22.0293 257.319 21.9349 256.785 21.8047V20.2422C257.358 20.4049 257.928 20.5286 258.494 20.6133C259.061 20.6979 259.624 20.7402 260.184 20.7402C260.997 20.7402 261.6 20.6296 261.99 20.4082C262.381 20.1868 262.576 19.8711 262.576 19.4609C262.576 19.2852 262.544 19.1289 262.479 18.9922C262.42 18.849 262.309 18.7155 262.146 18.5918C261.984 18.4616 261.73 18.3281 261.385 18.1914C261.046 18.0547 260.581 17.8984 259.988 17.7227C259.546 17.5924 259.135 17.446 258.758 17.2832C258.387 17.1139 258.064 16.9154 257.791 16.6875C257.518 16.4596 257.303 16.1927 257.146 15.8867C256.99 15.5807 256.912 15.2194 256.912 14.8027C256.912 14.5293 256.974 14.2298 257.098 13.9043C257.228 13.5788 257.446 13.276 257.752 12.9961C258.058 12.7161 258.471 12.485 258.992 12.3027C259.513 12.1139 260.164 12.0195 260.945 12.0195C261.329 12.0195 261.756 12.0423 262.225 12.0879C262.693 12.127 263.182 12.1986 263.689 12.3027V13.8164C263.156 13.6862 262.648 13.5918 262.166 13.5332C261.691 13.4681 261.277 13.4355 260.926 13.4355C260.503 13.4355 260.145 13.4681 259.852 13.5332C259.565 13.5983 259.331 13.6895 259.148 13.8066C258.973 13.9173 258.846 14.0508 258.768 14.207C258.689 14.3568 258.65 14.5195 258.65 14.6953C258.65 14.8711 258.683 15.0306 258.748 15.1738C258.82 15.3171 258.947 15.457 259.129 15.5938C259.318 15.724 259.578 15.8574 259.91 15.9941C260.242 16.1243 260.675 16.2676 261.209 16.4238C261.788 16.5931 262.277 16.7721 262.674 16.9609C263.071 17.1432 263.393 17.3483 263.641 17.5762C263.888 17.804 264.064 18.0612 264.168 18.3477C264.279 18.6341 264.334 18.9596 264.334 19.3242ZM270.906 9.59766H268.006V8.20117H272.625V20.584H275.545V22H267.684V20.584H270.906V9.59766ZM287.098 17.0195C287.098 17.7812 286.99 18.4811 286.775 19.1191C286.561 19.7507 286.251 20.2943 285.848 20.75C285.444 21.1992 284.952 21.5508 284.373 21.8047C283.794 22.0521 283.136 22.1758 282.4 22.1758C281.697 22.1758 281.066 22.0684 280.506 21.8535C279.952 21.6322 279.48 21.3099 279.09 20.8867C278.706 20.4635 278.41 19.9395 278.201 19.3145C277.999 18.6895 277.898 17.9701 277.898 17.1562C277.898 16.3945 278.006 15.7012 278.221 15.0762C278.436 14.4447 278.745 13.9043 279.148 13.4551C279.552 12.9993 280.044 12.6478 280.623 12.4004C281.202 12.1465 281.86 12.0195 282.596 12.0195C283.299 12.0195 283.927 12.1302 284.48 12.3516C285.04 12.5664 285.512 12.8854 285.896 13.3086C286.287 13.7253 286.583 14.2461 286.785 14.8711C286.993 15.4961 287.098 16.2122 287.098 17.0195ZM285.359 17.0977C285.359 16.4922 285.291 15.9648 285.154 15.5156C285.024 15.0599 284.835 14.6823 284.588 14.3828C284.34 14.0768 284.038 13.849 283.68 13.6992C283.328 13.543 282.934 13.4648 282.498 13.4648C281.99 13.4648 281.554 13.5658 281.189 13.7676C280.831 13.9629 280.535 14.2266 280.301 14.5586C280.073 14.8906 279.904 15.278 279.793 15.7207C279.689 16.1569 279.637 16.6159 279.637 17.0977C279.637 17.7031 279.702 18.2337 279.832 18.6895C279.969 19.1452 280.161 19.526 280.408 19.832C280.656 20.1315 280.955 20.3594 281.307 20.5156C281.658 20.6654 282.055 20.7402 282.498 20.7402C283.006 20.7402 283.439 20.6426 283.797 20.4473C284.161 20.2454 284.458 19.9785 284.686 19.6465C284.92 19.3145 285.089 18.9303 285.193 18.4941C285.304 18.0514 285.359 17.5859 285.359 17.0977ZM298.641 12.1953L297.215 22H295.154L293.738 17.8984L293.455 16.9023L293.133 17.957L291.775 22H289.773L288.357 12.1953H290.018L290.838 18.8555L291.014 20.3398L291.434 19.041L292.859 14.6367H294.08L295.613 18.9824L296.053 20.2812L296.199 18.9043L296.961 12.1953H298.641Z" fill="#00B2FF"/>
<path d="M511.271 9.7832C510.38 9.5944 509.611 9.5 508.967 9.5C507.437 9.5 506.672 10.3008 506.672 11.9023V13.6211H510.969V15.0371H506.672V22H504.943V15.0371H501.789V13.6211H504.943V12C504.943 9.38932 506.304 8.08398 509.025 8.08398C509.702 8.08398 510.451 8.16211 511.271 8.31836V9.7832ZM519.865 22L519.826 20.6816C519.292 21.209 518.749 21.5898 518.195 21.8242C517.648 22.0586 517.072 22.1758 516.467 22.1758C515.907 22.1758 515.428 22.1042 515.031 21.9609C514.634 21.8177 514.305 21.6224 514.045 21.375C513.791 21.1211 513.602 20.8249 513.479 20.4863C513.361 20.1478 513.303 19.7799 513.303 19.3828C513.303 18.3997 513.667 17.6315 514.396 17.0781C515.132 16.5182 516.216 16.2383 517.648 16.2383H519.68V15.3789C519.68 14.7995 519.494 14.3372 519.123 13.9922C518.752 13.6406 518.186 13.4648 517.424 13.4648C516.87 13.4648 516.324 13.5267 515.783 13.6504C515.249 13.7741 514.696 13.9499 514.123 14.1777V12.6445C514.338 12.5664 514.576 12.4915 514.836 12.4199C515.103 12.3418 515.383 12.2734 515.676 12.2148C515.969 12.1562 516.275 12.1107 516.594 12.0781C516.913 12.0391 517.235 12.0195 517.561 12.0195C518.153 12.0195 518.687 12.0846 519.162 12.2148C519.637 12.3451 520.038 12.5436 520.363 12.8105C520.695 13.0775 520.949 13.4128 521.125 13.8164C521.301 14.2201 521.389 14.6953 521.389 15.2422V22H519.865ZM519.68 17.5371H517.521C517.098 17.5371 516.734 17.5794 516.428 17.6641C516.122 17.7487 515.871 17.8691 515.676 18.0254C515.48 18.1816 515.334 18.3704 515.236 18.5918C515.145 18.8066 515.1 19.0508 515.1 19.3242C515.1 19.513 515.129 19.6953 515.188 19.8711C515.246 20.0404 515.34 20.1934 515.471 20.3301C515.601 20.4603 515.77 20.5645 515.979 20.6426C516.187 20.7207 516.441 20.7598 516.74 20.7598C517.131 20.7598 517.577 20.6426 518.078 20.4082C518.586 20.1673 519.12 19.7897 519.68 19.2754V17.5371ZM532.326 19.3242C532.326 19.6693 532.268 19.9785 532.15 20.252C532.033 20.5254 531.874 20.7695 531.672 20.9844C531.47 21.1927 531.236 21.3717 530.969 21.5215C530.702 21.6712 530.415 21.7949 530.109 21.8926C529.81 21.9902 529.501 22.0618 529.182 22.1074C528.863 22.153 528.55 22.1758 528.244 22.1758C527.58 22.1758 526.968 22.1465 526.408 22.0879C525.855 22.0293 525.311 21.9349 524.777 21.8047V20.2422C525.35 20.4049 525.92 20.5286 526.486 20.6133C527.053 20.6979 527.616 20.7402 528.176 20.7402C528.99 20.7402 529.592 20.6296 529.982 20.4082C530.373 20.1868 530.568 19.8711 530.568 19.4609C530.568 19.2852 530.536 19.1289 530.471 18.9922C530.412 18.849 530.301 18.7155 530.139 18.5918C529.976 18.4616 529.722 18.3281 529.377 18.1914C529.038 18.0547 528.573 17.8984 527.98 17.7227C527.538 17.5924 527.128 17.446 526.75 17.2832C526.379 17.1139 526.057 16.9154 525.783 16.6875C525.51 16.4596 525.295 16.1927 525.139 15.8867C524.982 15.5807 524.904 15.2194 524.904 14.8027C524.904 14.5293 524.966 14.2298 525.09 13.9043C525.22 13.5788 525.438 13.276 525.744 12.9961C526.05 12.7161 526.464 12.485 526.984 12.3027C527.505 12.1139 528.156 12.0195 528.938 12.0195C529.322 12.0195 529.748 12.0423 530.217 12.0879C530.686 12.127 531.174 12.1986 531.682 12.3027V13.8164C531.148 13.6862 530.64 13.5918 530.158 13.5332C529.683 13.4681 529.27 13.4355 528.918 13.4355C528.495 13.4355 528.137 13.4681 527.844 13.5332C527.557 13.5983 527.323 13.6895 527.141 13.8066C526.965 13.9173 526.838 14.0508 526.76 14.207C526.682 14.3568 526.643 14.5195 526.643 14.6953C526.643 14.8711 526.675 15.0306 526.74 15.1738C526.812 15.3171 526.939 15.457 527.121 15.5938C527.31 15.724 527.57 15.8574 527.902 15.9941C528.234 16.1243 528.667 16.2676 529.201 16.4238C529.781 16.5931 530.269 16.7721 530.666 16.9609C531.063 17.1432 531.385 17.3483 531.633 17.5762C531.88 17.804 532.056 18.0612 532.16 18.3477C532.271 18.6341 532.326 18.9596 532.326 19.3242ZM543.459 21.8633C543.075 21.9609 542.678 22.0293 542.268 22.0684C541.857 22.1139 541.441 22.1367 541.018 22.1367C539.787 22.1367 538.869 21.86 538.264 21.3066C537.658 20.7467 537.355 19.8906 537.355 18.7383V13.6211H534.611V12.1953H537.355V9.5L539.055 9.06055V12.1953H543.459V13.6211H539.055V18.6016C539.055 19.3047 539.24 19.832 539.611 20.1836C539.989 20.5286 540.542 20.7012 541.271 20.7012C541.584 20.7012 541.926 20.6784 542.297 20.6328C542.668 20.5807 543.055 20.5026 543.459 20.3984V21.8633Z" fill="#FF5500"/>
</svg>
