<svg width="1025" height="281" viewBox="0 0 1025 281" fill="none" xmlns="http://www.w3.org/2000/svg">
<g clip-path="url(#clip0_6289_6095)">
<rect width="1025" height="281" fill="white"/>
<circle cx="231" cy="32" r="23.75" fill="white" stroke="black" stroke-width="2.5"/>
<path d="M237.857 40H225.831V37.627H230.753V23.6523L226.168 26.1426L225.23 23.9746L231.324 20.7666H233.58V37.627H237.857V40Z" fill="black"/>
<circle cx="148" cy="121.957" r="23.75" fill="white" stroke="black" stroke-width="2.5"/>
<circle cx="316" cy="121.957" r="23.75" fill="white" stroke="black" stroke-width="2.5"/>
<path d="M155.019 129.957H142.406V127.672L147.357 122.75C148.168 121.95 148.827 121.256 149.335 120.67C149.843 120.084 150.238 119.552 150.521 119.074C150.805 118.585 150.995 118.126 151.093 117.697C151.19 117.267 151.239 116.803 151.239 116.305C151.239 115.836 151.176 115.392 151.049 114.972C150.922 114.542 150.727 114.166 150.463 113.844C150.199 113.522 149.857 113.268 149.438 113.082C149.018 112.897 148.515 112.804 147.929 112.804C147.118 112.804 146.381 112.985 145.717 113.346C145.053 113.707 144.442 114.176 143.886 114.752L142.479 113.068C143.202 112.306 144.032 111.696 144.97 111.237C145.917 110.778 147.016 110.548 148.266 110.548C149.115 110.548 149.887 110.675 150.58 110.929C151.283 111.183 151.889 111.549 152.396 112.028C152.904 112.506 153.295 113.092 153.568 113.785C153.852 114.479 153.993 115.26 153.993 116.129C153.993 116.862 153.896 117.54 153.7 118.165C153.505 118.79 153.207 119.415 152.807 120.04C152.416 120.656 151.918 121.295 151.312 121.959C150.717 122.623 150.009 123.351 149.188 124.142L145.717 127.526H155.019V129.957Z" fill="black"/>
<path d="M322.652 124.142C322.652 124.982 322.481 125.773 322.14 126.515C321.798 127.247 321.285 127.892 320.602 128.449C319.918 128.995 319.059 129.43 318.023 129.752C316.988 130.065 315.782 130.221 314.405 130.221C313.644 130.221 312.96 130.197 312.354 130.148C311.749 130.099 311.183 130.035 310.655 129.957V127.672C311.261 127.78 311.9 127.863 312.574 127.921C313.248 127.98 313.937 128.009 314.64 128.009C315.597 128.009 316.412 127.926 317.086 127.76C317.77 127.584 318.326 127.335 318.756 127.013C319.186 126.691 319.498 126.3 319.693 125.841C319.889 125.382 319.986 124.865 319.986 124.288C319.986 123.761 319.869 123.302 319.635 122.911C319.4 122.521 319.068 122.194 318.639 121.93C318.219 121.666 317.711 121.471 317.115 121.344C316.529 121.207 315.885 121.139 315.182 121.139H312.999V119.044H315.211C315.787 119.044 316.31 118.971 316.778 118.825C317.257 118.668 317.662 118.449 317.994 118.165C318.336 117.882 318.595 117.535 318.771 117.125C318.956 116.705 319.049 116.232 319.049 115.704C319.049 114.679 318.736 113.932 318.111 113.463C317.486 112.994 316.568 112.76 315.357 112.76C314.713 112.76 314.049 112.824 313.365 112.951C312.682 113.077 311.949 113.268 311.168 113.522V111.295C311.5 111.178 311.852 111.076 312.223 110.988C312.604 110.89 312.979 110.812 313.351 110.753C313.731 110.685 314.107 110.636 314.479 110.607C314.85 110.568 315.206 110.548 315.548 110.548C316.563 110.548 317.457 110.66 318.229 110.885C319 111.1 319.645 111.412 320.162 111.823C320.68 112.233 321.07 112.731 321.334 113.317C321.598 113.903 321.729 114.562 321.729 115.294C321.729 116.388 321.446 117.306 320.88 118.048C320.323 118.79 319.557 119.381 318.58 119.821C319.078 119.899 319.566 120.055 320.045 120.289C320.533 120.524 320.968 120.826 321.349 121.198C321.739 121.559 322.052 121.989 322.286 122.487C322.53 122.985 322.652 123.536 322.652 124.142Z" fill="black"/>
<line x1="215.884" y1="48.8412" x2="162.884" y2="101.841" stroke="black" stroke-width="2.5"/>
<line x1="246.876" y1="49.0654" x2="301.876" y2="103.065" stroke="black" stroke-width="2.5"/>
<path d="M9.50488 128H-0.0419922V111.407H2.25586V126.07H9.50488V128ZM24.0918 120.954C24.0918 121.267 24.0876 121.53 24.0791 121.741C24.0706 121.953 24.0579 122.152 24.041 122.338H15.0908C15.0908 123.641 15.4548 124.644 16.1826 125.347C16.9105 126.041 17.96 126.388 19.3311 126.388C19.7035 126.388 20.0758 126.375 20.4482 126.35C20.8206 126.316 21.1803 126.273 21.5273 126.223C21.8743 126.172 22.2044 126.117 22.5176 126.058C22.8392 125.99 23.1354 125.918 23.4062 125.842V127.657C22.8053 127.826 22.124 127.962 21.3623 128.063C20.609 128.174 19.8262 128.229 19.0137 128.229C17.9219 128.229 16.9824 128.08 16.1953 127.784C15.4082 127.488 14.7607 127.061 14.2529 126.502C13.7536 125.935 13.3812 125.245 13.1357 124.433C12.8988 123.612 12.7803 122.685 12.7803 121.652C12.7803 120.755 12.9072 119.909 13.1611 119.113C13.4235 118.309 13.8001 117.607 14.291 117.006C14.7904 116.396 15.3997 115.914 16.1191 115.559C16.8385 115.203 17.6553 115.025 18.5693 115.025C19.458 115.025 20.2451 115.165 20.9307 115.444C21.6162 115.724 22.1917 116.121 22.6572 116.638C23.1312 117.146 23.4867 117.768 23.7236 118.504C23.9691 119.232 24.0918 120.049 24.0918 120.954ZM21.7939 120.637C21.8193 120.07 21.7643 119.553 21.6289 119.088C21.4935 118.614 21.2819 118.208 20.9941 117.869C20.7148 117.531 20.3636 117.268 19.9404 117.082C19.5173 116.887 19.0264 116.79 18.4678 116.79C17.9854 116.79 17.5452 116.883 17.1475 117.069C16.7497 117.256 16.4069 117.518 16.1191 117.856C15.8314 118.195 15.5986 118.601 15.4209 119.075C15.2432 119.549 15.1331 120.07 15.0908 120.637H21.7939ZM26.4277 115.254H28.9414L32.0645 123.684L32.7373 125.74L33.4355 123.633L36.5332 115.254H38.958L33.9561 128H31.417L26.4277 115.254ZM52.6816 120.954C52.6816 121.267 52.6774 121.53 52.6689 121.741C52.6605 121.953 52.6478 122.152 52.6309 122.338H43.6807C43.6807 123.641 44.0446 124.644 44.7725 125.347C45.5003 126.041 46.5498 126.388 47.9209 126.388C48.2933 126.388 48.6657 126.375 49.0381 126.35C49.4105 126.316 49.7702 126.273 50.1172 126.223C50.4642 126.172 50.7943 126.117 51.1074 126.058C51.429 125.99 51.7253 125.918 51.9961 125.842V127.657C51.3952 127.826 50.7139 127.962 49.9521 128.063C49.1989 128.174 48.416 128.229 47.6035 128.229C46.5117 128.229 45.5723 128.08 44.7852 127.784C43.998 127.488 43.3506 127.061 42.8428 126.502C42.3434 125.935 41.971 125.245 41.7256 124.433C41.4886 123.612 41.3701 122.685 41.3701 121.652C41.3701 120.755 41.4971 119.909 41.751 119.113C42.0133 118.309 42.39 117.607 42.8809 117.006C43.3802 116.396 43.9896 115.914 44.709 115.559C45.4284 115.203 46.2451 115.025 47.1592 115.025C48.0479 115.025 48.835 115.165 49.5205 115.444C50.2061 115.724 50.7816 116.121 51.2471 116.638C51.721 117.146 52.0765 117.768 52.3135 118.504C52.5589 119.232 52.6816 120.049 52.6816 120.954ZM50.3838 120.637C50.4092 120.07 50.3542 119.553 50.2188 119.088C50.0833 118.614 49.8717 118.208 49.584 117.869C49.3047 117.531 48.9535 117.268 48.5303 117.082C48.1071 116.887 47.6162 116.79 47.0576 116.79C46.5752 116.79 46.1351 116.883 45.7373 117.069C45.3395 117.256 44.9967 117.518 44.709 117.856C44.4212 118.195 44.1885 118.601 44.0107 119.075C43.833 119.549 43.723 120.07 43.6807 120.637H50.3838ZM60.5527 111.877H56.7822V110.062H62.7871V126.159H66.583V128H56.3633V126.159H60.5527V111.877ZM95.5664 128H84.6357V126.02L88.9268 121.754C89.6292 121.06 90.2005 120.459 90.6406 119.951C91.0807 119.443 91.4235 118.982 91.6689 118.567C91.9144 118.144 92.0794 117.746 92.1641 117.374C92.2487 117.002 92.291 116.6 92.291 116.168C92.291 115.762 92.236 115.377 92.126 115.013C92.016 114.64 91.8467 114.314 91.6182 114.035C91.3896 113.756 91.0934 113.536 90.7295 113.375C90.3656 113.214 89.9297 113.134 89.4219 113.134C88.7194 113.134 88.0804 113.29 87.5049 113.604C86.9294 113.917 86.4004 114.323 85.918 114.822L84.6992 113.362C85.3255 112.702 86.0449 112.173 86.8574 111.775C87.6784 111.378 88.6305 111.179 89.7139 111.179C90.4502 111.179 91.1188 111.289 91.7197 111.509C92.3291 111.729 92.8538 112.046 93.2939 112.461C93.734 112.876 94.0726 113.383 94.3096 113.984C94.555 114.585 94.6777 115.262 94.6777 116.016C94.6777 116.65 94.5931 117.239 94.4238 117.78C94.2546 118.322 93.9964 118.864 93.6494 119.405C93.3109 119.938 92.8792 120.493 92.3545 121.068C91.8382 121.644 91.2246 122.274 90.5137 122.96L87.5049 125.893H95.5664V128ZM104.212 115.025C104.474 115.025 104.724 115.08 104.961 115.19C105.198 115.292 105.405 115.432 105.583 115.609C105.761 115.787 105.9 115.994 106.002 116.231C106.112 116.468 106.167 116.718 106.167 116.98C106.167 117.251 106.112 117.505 106.002 117.742C105.9 117.971 105.761 118.174 105.583 118.352C105.405 118.529 105.198 118.669 104.961 118.771C104.724 118.872 104.474 118.923 104.212 118.923C103.941 118.923 103.687 118.872 103.45 118.771C103.222 118.669 103.019 118.529 102.841 118.352C102.663 118.174 102.523 117.971 102.422 117.742C102.32 117.505 102.27 117.251 102.27 116.98C102.27 116.718 102.32 116.468 102.422 116.231C102.523 115.994 102.663 115.787 102.841 115.609C103.019 115.432 103.222 115.292 103.45 115.19C103.687 115.08 103.941 115.025 104.212 115.025ZM104.212 124.331C104.474 124.331 104.724 124.386 104.961 124.496C105.198 124.598 105.405 124.737 105.583 124.915C105.761 125.093 105.9 125.3 106.002 125.537C106.112 125.774 106.167 126.024 106.167 126.286C106.167 126.557 106.112 126.811 106.002 127.048C105.9 127.276 105.761 127.479 105.583 127.657C105.405 127.835 105.198 127.975 104.961 128.076C104.724 128.178 104.474 128.229 104.212 128.229C103.941 128.229 103.687 128.178 103.45 128.076C103.222 127.975 103.019 127.835 102.841 127.657C102.663 127.479 102.523 127.276 102.422 127.048C102.32 126.811 102.27 126.557 102.27 126.286C102.27 126.024 102.32 125.774 102.422 125.537C102.523 125.3 102.663 125.093 102.841 124.915C103.019 124.737 103.222 124.598 103.45 124.496C103.687 124.386 103.941 124.331 104.212 124.331Z" fill="#777777"/>
<g style="mix-blend-mode:multiply">
<rect x="120" y="93" width="225" height="57" rx="10" fill="#FF5500" fill-opacity="0.1"/>
</g>
<circle cx="98" cy="212" r="23.75" fill="#EDEDED" stroke="#999999" stroke-width="2.5"/>
<path d="M104.971 215.767H101.704V220H99.0967V215.767H89.8828V213.525L98.042 200.854H101.704V213.525H104.971V215.767ZM99.0967 203.315L92.4316 213.525H99.0967V203.315Z" fill="black"/>
<circle cx="198" cy="212" r="23.75" fill="#EDEDED" stroke="#999999" stroke-width="2.5"/>
<path d="M204.535 213.877C204.535 214.824 204.33 215.688 203.92 216.47C203.51 217.251 202.943 217.925 202.221 218.491C201.508 219.048 200.663 219.482 199.687 219.795C198.71 220.107 197.655 220.264 196.522 220.264C196.239 220.264 195.932 220.254 195.6 220.234C195.277 220.225 194.955 220.205 194.633 220.176C194.311 220.156 193.993 220.132 193.681 220.103C193.378 220.073 193.104 220.039 192.86 220V217.686C193.388 217.812 193.988 217.905 194.662 217.964C195.346 218.022 196.034 218.052 196.728 218.052C197.509 218.052 198.212 217.959 198.837 217.773C199.462 217.588 199.994 217.324 200.434 216.982C200.873 216.631 201.21 216.211 201.444 215.723C201.679 215.225 201.796 214.668 201.796 214.053C201.796 212.861 201.366 211.997 200.507 211.46C199.657 210.913 198.432 210.64 196.83 210.64H193.197V200.854H203.51V203.081H195.6V208.457H197.27C198.188 208.457 199.081 208.54 199.95 208.706C200.819 208.872 201.591 209.165 202.265 209.585C202.948 209.995 203.495 210.552 203.905 211.255C204.325 211.948 204.535 212.822 204.535 213.877Z" fill="black"/>
<line x1="105.953" y1="189.317" x2="135.953" y2="143.317" stroke="black" stroke-width="2.5"/>
<line y1="-1.25" x2="54.9181" y2="-1.25" transform="matrix(-0.546268 -0.837611 -0.837611 0.546268 189 190)" stroke="black" stroke-width="2.5"/>
<circle cx="25" cy="25" r="23.75" transform="matrix(-1 0 0 1 290 187)" fill="white" stroke="black" stroke-width="2.5"/>
<path d="M271.253 213.936C271.253 214.814 271.092 215.64 270.77 216.411C270.457 217.183 270.008 217.856 269.422 218.433C268.836 218.999 268.128 219.448 267.298 219.78C266.478 220.103 265.564 220.264 264.559 220.264C263.504 220.264 262.571 220.098 261.761 219.766C260.95 219.424 260.271 218.906 259.725 218.213C259.178 217.51 258.763 216.626 258.479 215.562C258.196 214.497 258.055 213.237 258.055 211.782C258.055 210.806 258.118 209.858 258.245 208.94C258.372 208.022 258.582 207.158 258.875 206.348C259.168 205.537 259.559 204.795 260.047 204.121C260.535 203.447 261.141 202.871 261.863 202.393C262.596 201.904 263.455 201.528 264.441 201.265C265.428 200.991 266.57 200.854 267.869 200.854H269.759V203.081H267.708C266.565 203.081 265.574 203.218 264.734 203.491C263.895 203.765 263.191 204.15 262.625 204.648C262.059 205.146 261.624 205.747 261.321 206.45C261.019 207.153 260.828 207.939 260.75 208.809L260.691 209.409C261.307 209.048 262.015 208.76 262.815 208.545C263.626 208.32 264.5 208.208 265.438 208.208C266.404 208.208 267.249 208.35 267.972 208.633C268.704 208.916 269.31 209.312 269.788 209.819C270.276 210.317 270.643 210.918 270.887 211.621C271.131 212.324 271.253 213.096 271.253 213.936ZM268.587 214.097C268.587 213.511 268.514 212.983 268.367 212.515C268.23 212.036 268.011 211.636 267.708 211.313C267.405 210.981 267.02 210.728 266.551 210.552C266.092 210.366 265.54 210.273 264.896 210.273C264.524 210.273 264.148 210.308 263.768 210.376C263.387 210.444 263.011 210.542 262.64 210.669C262.278 210.786 261.932 210.923 261.6 211.079C261.268 211.235 260.965 211.401 260.691 211.577C260.691 212.837 260.779 213.892 260.955 214.741C261.131 215.581 261.39 216.255 261.731 216.763C262.083 217.271 262.513 217.632 263.021 217.847C263.528 218.062 264.114 218.169 264.778 218.169C265.335 218.169 265.843 218.081 266.302 217.905C266.771 217.72 267.171 217.451 267.503 217.1C267.845 216.748 268.108 216.323 268.294 215.825C268.489 215.317 268.587 214.741 268.587 214.097Z" fill="black"/>
<line x1="271.953" y1="189.317" x2="301.953" y2="143.317" stroke="black" stroke-width="2.5"/>
<circle cx="534" cy="119" r="23.75" fill="white" stroke="black" stroke-width="2.5"/>
<path d="M541.019 126H528.406V123.715L533.357 118.793C534.168 117.992 534.827 117.299 535.335 116.713C535.843 116.127 536.238 115.595 536.521 115.116C536.805 114.628 536.995 114.169 537.093 113.739C537.19 113.31 537.239 112.846 537.239 112.348C537.239 111.879 537.176 111.435 537.049 111.015C536.922 110.585 536.727 110.209 536.463 109.887C536.199 109.564 535.857 109.311 535.438 109.125C535.018 108.939 534.515 108.847 533.929 108.847C533.118 108.847 532.381 109.027 531.717 109.389C531.053 109.75 530.442 110.219 529.886 110.795L528.479 109.11C529.202 108.349 530.032 107.738 530.97 107.279C531.917 106.82 533.016 106.591 534.266 106.591C535.115 106.591 535.887 106.718 536.58 106.972C537.283 107.226 537.889 107.592 538.396 108.07C538.904 108.549 539.295 109.135 539.568 109.828C539.852 110.521 539.993 111.303 539.993 112.172C539.993 112.904 539.896 113.583 539.7 114.208C539.505 114.833 539.207 115.458 538.807 116.083C538.416 116.698 537.918 117.338 537.312 118.002C536.717 118.666 536.009 119.394 535.188 120.185L531.717 123.568H541.019V126Z" fill="black"/>
<circle cx="671" cy="119" r="23.75" fill="white" stroke="black" stroke-width="2.5"/>
<path d="M677.652 121.185C677.652 122.024 677.481 122.815 677.14 123.558C676.798 124.29 676.285 124.935 675.602 125.491C674.918 126.038 674.059 126.473 673.023 126.795C671.988 127.107 670.782 127.264 669.405 127.264C668.644 127.264 667.96 127.239 667.354 127.19C666.749 127.142 666.183 127.078 665.655 127V124.715C666.261 124.822 666.9 124.905 667.574 124.964C668.248 125.022 668.937 125.052 669.64 125.052C670.597 125.052 671.412 124.969 672.086 124.803C672.77 124.627 673.326 124.378 673.756 124.056C674.186 123.733 674.498 123.343 674.693 122.884C674.889 122.425 674.986 121.907 674.986 121.331C674.986 120.804 674.869 120.345 674.635 119.954C674.4 119.563 674.068 119.236 673.639 118.973C673.219 118.709 672.711 118.514 672.115 118.387C671.529 118.25 670.885 118.182 670.182 118.182H667.999V116.087H670.211C670.787 116.087 671.31 116.014 671.778 115.867C672.257 115.711 672.662 115.491 672.994 115.208C673.336 114.925 673.595 114.578 673.771 114.168C673.956 113.748 674.049 113.274 674.049 112.747C674.049 111.722 673.736 110.975 673.111 110.506C672.486 110.037 671.568 109.803 670.357 109.803C669.713 109.803 669.049 109.866 668.365 109.993C667.682 110.12 666.949 110.311 666.168 110.564V108.338C666.5 108.221 666.852 108.118 667.223 108.03C667.604 107.933 667.979 107.854 668.351 107.796C668.731 107.728 669.107 107.679 669.479 107.649C669.85 107.61 670.206 107.591 670.548 107.591C671.563 107.591 672.457 107.703 673.229 107.928C674 108.143 674.645 108.455 675.162 108.865C675.68 109.275 676.07 109.773 676.334 110.359C676.598 110.945 676.729 111.604 676.729 112.337C676.729 113.431 676.446 114.349 675.88 115.091C675.323 115.833 674.557 116.424 673.58 116.863C674.078 116.941 674.566 117.098 675.045 117.332C675.533 117.566 675.968 117.869 676.349 118.24C676.739 118.602 677.052 119.031 677.286 119.529C677.53 120.027 677.652 120.579 677.652 121.185Z" fill="black"/>
<circle cx="808" cy="119" r="23.75" fill="white" stroke="#00B2FF" stroke-width="2.5" stroke-dasharray="8 8"/>
<path d="M814.971 122.767H811.704V127H809.097V122.767H799.883V120.525L808.042 107.854H811.704V120.525H814.971V122.767ZM809.097 110.315L802.432 120.525H809.097V110.315Z" fill="black"/>
<circle cx="945" cy="119" r="23.75" fill="white" stroke="#00B2FF" stroke-width="2.5" stroke-dasharray="8 8"/>
<path d="M950.535 120.877C950.535 121.824 950.33 122.688 949.92 123.47C949.51 124.251 948.943 124.925 948.221 125.491C947.508 126.048 946.663 126.482 945.687 126.795C944.71 127.107 943.655 127.264 942.522 127.264C942.239 127.264 941.932 127.254 941.6 127.234C941.277 127.225 940.955 127.205 940.633 127.176C940.311 127.156 939.993 127.132 939.681 127.103C939.378 127.073 939.104 127.039 938.86 127V124.686C939.388 124.812 939.988 124.905 940.662 124.964C941.346 125.022 942.034 125.052 942.728 125.052C943.509 125.052 944.212 124.959 944.837 124.773C945.462 124.588 945.994 124.324 946.434 123.982C946.873 123.631 947.21 123.211 947.444 122.723C947.679 122.225 947.796 121.668 947.796 121.053C947.796 119.861 947.366 118.997 946.507 118.46C945.657 117.913 944.432 117.64 942.83 117.64H939.197V107.854H949.51V110.081H941.6V115.457H943.27C944.188 115.457 945.081 115.54 945.95 115.706C946.819 115.872 947.591 116.165 948.265 116.585C948.948 116.995 949.495 117.552 949.905 118.255C950.325 118.948 950.535 119.822 950.535 120.877Z" fill="black"/>
<path d="M371.384 123.894C371.384 122.979 371.502 122.112 371.739 121.291C371.985 120.47 372.357 119.751 372.856 119.133C373.364 118.507 374.012 118.011 374.799 117.647C375.586 117.284 376.525 117.102 377.617 117.102C378.049 117.102 378.476 117.135 378.899 117.203C379.323 117.271 379.771 117.377 380.245 117.521L382.2 117.025V135.205H379.979V130.394L380.093 127.664C378.891 129.374 377.461 130.229 375.802 130.229C375.057 130.229 374.41 130.076 373.859 129.771C373.309 129.467 372.848 129.035 372.476 128.477C372.112 127.918 371.837 127.249 371.65 126.471C371.473 125.692 371.384 124.833 371.384 123.894ZM373.644 123.754C373.644 124.465 373.694 125.104 373.796 125.671C373.906 126.238 374.067 126.72 374.278 127.118C374.498 127.507 374.769 127.808 375.091 128.02C375.421 128.231 375.806 128.337 376.246 128.337C376.805 128.337 377.393 128.087 378.011 127.588C378.637 127.089 379.293 126.348 379.979 125.366V119.45C379.64 119.289 379.255 119.158 378.823 119.057C378.4 118.955 377.947 118.904 377.465 118.904C376.221 118.904 375.273 119.315 374.621 120.136C373.969 120.957 373.644 122.163 373.644 123.754ZM396.571 130H394.591L394.515 127.943C394.134 128.383 393.77 128.752 393.423 129.048C393.084 129.336 392.746 129.568 392.407 129.746C392.069 129.924 391.726 130.047 391.379 130.114C391.04 130.19 390.681 130.229 390.3 130.229C388.988 130.229 387.998 129.843 387.329 129.073C386.66 128.303 386.326 127.139 386.326 125.582V117.254H388.535V125.404C388.535 127.359 389.271 128.337 390.744 128.337C391.015 128.337 391.277 128.299 391.531 128.223C391.794 128.138 392.064 127.998 392.344 127.804C392.632 127.601 392.936 127.33 393.258 126.991C393.588 126.653 393.956 126.225 394.362 125.709V117.254H396.571V130ZM411.387 122.954C411.387 123.267 411.382 123.53 411.374 123.741C411.366 123.953 411.353 124.152 411.336 124.338H402.386C402.386 125.641 402.75 126.644 403.478 127.347C404.205 128.041 405.255 128.388 406.626 128.388C406.998 128.388 407.371 128.375 407.743 128.35C408.116 128.316 408.475 128.273 408.822 128.223C409.169 128.172 409.499 128.117 409.812 128.058C410.134 127.99 410.43 127.918 410.701 127.842V129.657C410.1 129.826 409.419 129.962 408.657 130.063C407.904 130.174 407.121 130.229 406.309 130.229C405.217 130.229 404.277 130.08 403.49 129.784C402.703 129.488 402.056 129.061 401.548 128.502C401.049 127.935 400.676 127.245 400.431 126.433C400.194 125.612 400.075 124.685 400.075 123.652C400.075 122.755 400.202 121.909 400.456 121.113C400.718 120.309 401.095 119.607 401.586 119.006C402.085 118.396 402.695 117.914 403.414 117.559C404.133 117.203 404.95 117.025 405.864 117.025C406.753 117.025 407.54 117.165 408.226 117.444C408.911 117.724 409.487 118.121 409.952 118.638C410.426 119.146 410.782 119.768 411.019 120.504C411.264 121.232 411.387 122.049 411.387 122.954ZM409.089 122.637C409.114 122.07 409.059 121.553 408.924 121.088C408.788 120.614 408.577 120.208 408.289 119.869C408.01 119.531 407.659 119.268 407.235 119.082C406.812 118.887 406.321 118.79 405.763 118.79C405.28 118.79 404.84 118.883 404.442 119.069C404.045 119.256 403.702 119.518 403.414 119.856C403.126 120.195 402.894 120.601 402.716 121.075C402.538 121.549 402.428 122.07 402.386 122.637H409.089ZM425.161 130H423.181L423.104 127.943C422.724 128.383 422.36 128.752 422.013 129.048C421.674 129.336 421.336 129.568 420.997 129.746C420.659 129.924 420.316 130.047 419.969 130.114C419.63 130.19 419.271 130.229 418.89 130.229C417.578 130.229 416.588 129.843 415.919 129.073C415.25 128.303 414.916 127.139 414.916 125.582V117.254H417.125V125.404C417.125 127.359 417.861 128.337 419.334 128.337C419.605 128.337 419.867 128.299 420.121 128.223C420.383 128.138 420.654 127.998 420.934 127.804C421.221 127.601 421.526 127.33 421.848 126.991C422.178 126.653 422.546 126.225 422.952 125.709V117.254H425.161V130ZM439.977 122.954C439.977 123.267 439.972 123.53 439.964 123.741C439.955 123.953 439.943 124.152 439.926 124.338H430.976C430.976 125.641 431.34 126.644 432.067 127.347C432.795 128.041 433.845 128.388 435.216 128.388C435.588 128.388 435.961 128.375 436.333 128.35C436.705 128.316 437.065 128.273 437.412 128.223C437.759 128.172 438.089 128.117 438.402 128.058C438.724 127.99 439.02 127.918 439.291 127.842V129.657C438.69 129.826 438.009 129.962 437.247 130.063C436.494 130.174 435.711 130.229 434.898 130.229C433.807 130.229 432.867 130.08 432.08 129.784C431.293 129.488 430.646 129.061 430.138 128.502C429.638 127.935 429.266 127.245 429.021 126.433C428.784 125.612 428.665 124.685 428.665 123.652C428.665 122.755 428.792 121.909 429.046 121.113C429.308 120.309 429.685 119.607 430.176 119.006C430.675 118.396 431.285 117.914 432.004 117.559C432.723 117.203 433.54 117.025 434.454 117.025C435.343 117.025 436.13 117.165 436.815 117.444C437.501 117.724 438.076 118.121 438.542 118.638C439.016 119.146 439.371 119.768 439.608 120.504C439.854 121.232 439.977 122.049 439.977 122.954ZM437.679 122.637C437.704 122.07 437.649 121.553 437.514 121.088C437.378 120.614 437.167 120.208 436.879 119.869C436.6 119.531 436.248 119.268 435.825 119.082C435.402 118.887 434.911 118.79 434.353 118.79C433.87 118.79 433.43 118.883 433.032 119.069C432.634 119.256 432.292 119.518 432.004 119.856C431.716 120.195 431.483 120.601 431.306 121.075C431.128 121.549 431.018 122.07 430.976 122.637H437.679ZM468.376 121.799H457.458V119.933H468.376V121.799ZM468.376 126.217H457.458V124.351H468.376V126.217ZM494.998 135.205H488.739V111.617H494.998V113.395H490.847V133.428H494.998V135.205ZM994.597 135.205H988.338V133.428H992.464V113.395H988.338V111.617H994.597V135.205Z" fill="black"/>
<path d="M808 54C808 53.4477 807.552 53 807 53C806.448 53 806 53.4477 806 54L808 54ZM806.293 88.7071C806.683 89.0976 807.317 89.0976 807.707 88.7071L814.071 82.3431C814.462 81.9526 814.462 81.3195 814.071 80.9289C813.681 80.5384 813.047 80.5384 812.657 80.9289L807 86.5858L801.343 80.9289C800.953 80.5384 800.319 80.5384 799.929 80.9289C799.538 81.3195 799.538 81.9526 799.929 82.3431L806.293 88.7071ZM806 54L806 88L808 88L808 54L806 54Z" fill="#00B2FF"/>
<path d="M535 71C535 70.4477 534.552 70 534 70C533.448 70 533 70.4477 533 71L535 71ZM533.293 159.707C533.683 160.098 534.317 160.098 534.707 159.707L541.071 153.343C541.462 152.953 541.462 152.319 541.071 151.929C540.681 151.538 540.047 151.538 539.657 151.929L534 157.586L528.343 151.929C527.953 151.538 527.319 151.538 526.929 151.929C526.538 152.319 526.538 152.953 526.929 153.343L533.293 159.707ZM533 71L533 159L535 159L535 71L533 71Z" fill="#FF0000"/>
<path d="M783.834 10.3984C783.834 11.5326 783.673 12.5228 783.352 13.3691C783.038 14.2155 782.603 14.918 782.044 15.4766C781.485 16.0352 780.825 16.4541 780.063 16.7334C779.302 17.0127 778.477 17.1523 777.588 17.1523C777.182 17.1523 776.775 17.1312 776.369 17.0889C775.971 17.0465 775.565 16.9746 775.15 16.873V22.2051H772.941V4.25391H774.909L775.049 6.38672C775.684 5.51497 776.361 4.9056 777.08 4.55859C777.799 4.20312 778.578 4.02539 779.416 4.02539C780.144 4.02539 780.783 4.17773 781.333 4.48242C781.883 4.78711 782.344 5.21875 782.717 5.77734C783.089 6.32747 783.368 6.99609 783.555 7.7832C783.741 8.56185 783.834 9.43359 783.834 10.3984ZM781.574 10.5C781.574 9.83138 781.523 9.21777 781.422 8.65918C781.329 8.10059 781.176 7.6224 780.965 7.22461C780.753 6.82682 780.482 6.5179 780.152 6.29785C779.822 6.06934 779.429 5.95508 778.972 5.95508C778.692 5.95508 778.409 6.00163 778.121 6.09473C777.833 6.17936 777.533 6.32747 777.22 6.53906C776.915 6.74219 776.589 7.01725 776.242 7.36426C775.904 7.7028 775.54 8.12598 775.15 8.63379V14.8164C775.557 14.9857 775.984 15.1211 776.433 15.2227C776.881 15.3158 777.321 15.3623 777.753 15.3623C778.946 15.3623 779.882 14.9603 780.559 14.1562C781.236 13.3438 781.574 12.125 781.574 10.5ZM797.481 17H795.501L795.425 14.9434C795.044 15.3835 794.68 15.7516 794.333 16.0479C793.994 16.3356 793.656 16.5684 793.317 16.7461C792.979 16.9238 792.636 17.0465 792.289 17.1143C791.951 17.1904 791.591 17.2285 791.21 17.2285C789.898 17.2285 788.908 16.8434 788.239 16.0732C787.571 15.3031 787.236 14.1393 787.236 12.582V4.25391H789.445V12.4043C789.445 14.3594 790.182 15.3369 791.654 15.3369C791.925 15.3369 792.188 15.2988 792.441 15.2227C792.704 15.138 792.975 14.9984 793.254 14.8037C793.542 14.6006 793.846 14.3298 794.168 13.9912C794.498 13.6527 794.866 13.2253 795.272 12.709V4.25391H797.481V17ZM811.624 13.5215C811.624 13.9701 811.548 14.3721 811.396 14.7275C811.243 15.083 811.036 15.4004 810.773 15.6797C810.511 15.9505 810.206 16.1833 809.859 16.3779C809.512 16.5726 809.14 16.7334 808.742 16.8604C808.353 16.9873 807.951 17.0804 807.536 17.1396C807.121 17.1989 806.715 17.2285 806.317 17.2285C805.454 17.2285 804.659 17.1904 803.931 17.1143C803.211 17.0381 802.505 16.9154 801.811 16.7461V14.7148C802.555 14.9264 803.296 15.0872 804.032 15.1973C804.769 15.3073 805.501 15.3623 806.229 15.3623C807.286 15.3623 808.069 15.2184 808.577 14.9307C809.085 14.6429 809.339 14.2324 809.339 13.6992C809.339 13.4707 809.297 13.2676 809.212 13.0898C809.136 12.9036 808.992 12.7301 808.78 12.5693C808.569 12.4001 808.239 12.2266 807.79 12.0488C807.35 11.8711 806.745 11.668 805.975 11.4395C805.399 11.2702 804.866 11.0798 804.375 10.8682C803.893 10.6481 803.474 10.39 803.118 10.0938C802.763 9.79753 802.483 9.45052 802.28 9.05273C802.077 8.65495 801.976 8.18522 801.976 7.64355C801.976 7.28809 802.056 6.89876 802.217 6.47559C802.386 6.05241 802.67 5.65885 803.067 5.29492C803.465 4.93099 804.003 4.63053 804.68 4.39355C805.357 4.14811 806.203 4.02539 807.219 4.02539C807.718 4.02539 808.272 4.05501 808.882 4.11426C809.491 4.16504 810.126 4.25814 810.786 4.39355V6.36133C810.092 6.19206 809.432 6.06934 808.806 5.99316C808.188 5.90853 807.65 5.86621 807.193 5.86621C806.643 5.86621 806.178 5.90853 805.797 5.99316C805.424 6.0778 805.12 6.19629 804.883 6.34863C804.654 6.49251 804.489 6.66602 804.388 6.86914C804.286 7.0638 804.235 7.27539 804.235 7.50391C804.235 7.73242 804.278 7.93978 804.362 8.12598C804.455 8.31217 804.62 8.49414 804.857 8.67188C805.103 8.84115 805.441 9.01465 805.873 9.19238C806.305 9.36165 806.868 9.54785 807.562 9.75098C808.315 9.97103 808.95 10.2038 809.466 10.4492C809.982 10.6862 810.401 10.9528 810.723 11.249C811.044 11.5452 811.273 11.8796 811.408 12.252C811.552 12.6243 811.624 13.0475 811.624 13.5215ZM826.071 17H823.862V8.8623C823.862 7.88053 823.676 7.14844 823.304 6.66602C822.94 6.17513 822.415 5.92969 821.729 5.92969C821.433 5.92969 821.154 5.97201 820.892 6.05664C820.638 6.13281 820.371 6.27246 820.092 6.47559C819.812 6.67025 819.508 6.93685 819.178 7.27539C818.848 7.61393 818.467 8.03711 818.035 8.54492V17H815.826V-0.938477H818.035V4.25391L817.959 6.25977C818.306 5.84505 818.645 5.49805 818.975 5.21875C819.313 4.93099 819.647 4.69824 819.978 4.52051C820.316 4.34277 820.659 4.21582 821.006 4.13965C821.353 4.06348 821.713 4.02539 822.085 4.02539C823.354 4.02539 824.336 4.41471 825.03 5.19336C825.724 5.96354 826.071 7.12728 826.071 8.68457V17ZM737.204 31.2539H739.172L739.261 33.3105C739.633 32.8704 739.993 32.5065 740.34 32.2188C740.687 31.9225 741.025 31.6855 741.355 31.5078C741.694 31.3301 742.037 31.2074 742.384 31.1396C742.731 31.0635 743.09 31.0254 743.463 31.0254C744.775 31.0254 745.765 31.4147 746.434 32.1934C747.111 32.9635 747.449 34.1273 747.449 35.6846V44H745.24V35.8623C745.24 34.8636 745.054 34.1273 744.682 33.6533C744.309 33.1709 743.755 32.9297 743.019 32.9297C742.748 32.9297 742.481 32.972 742.219 33.0566C741.965 33.1328 741.698 33.2725 741.419 33.4756C741.14 33.6702 740.835 33.9368 740.505 34.2754C740.183 34.6139 739.819 35.0371 739.413 35.5449V44H737.204V31.2539ZM762.595 37.5254C762.595 38.5156 762.455 39.4255 762.176 40.2549C761.896 41.0758 761.494 41.7826 760.97 42.375C760.445 42.959 759.806 43.416 759.053 43.7461C758.299 44.0677 757.445 44.2285 756.488 44.2285C755.574 44.2285 754.753 44.0889 754.025 43.8096C753.306 43.5218 752.692 43.1029 752.185 42.5527C751.685 42.0026 751.3 41.3213 751.029 40.5088C750.767 39.6963 750.636 38.7611 750.636 37.7031C750.636 36.7129 750.775 35.8115 751.055 34.999C751.334 34.1781 751.736 33.4756 752.261 32.8916C752.785 32.2992 753.424 31.8421 754.178 31.5205C754.931 31.1904 755.786 31.0254 756.742 31.0254C757.656 31.0254 758.473 31.1693 759.192 31.457C759.92 31.7363 760.534 32.151 761.033 32.7012C761.541 33.2428 761.926 33.9199 762.188 34.7324C762.459 35.5449 762.595 36.4759 762.595 37.5254ZM760.335 37.627C760.335 36.8398 760.246 36.1543 760.068 35.5703C759.899 34.9779 759.654 34.487 759.332 34.0977C759.01 33.6999 758.617 33.4036 758.151 33.209C757.694 33.0059 757.182 32.9043 756.615 32.9043C755.955 32.9043 755.388 33.0355 754.914 33.2979C754.449 33.5518 754.063 33.8945 753.759 34.3262C753.463 34.7578 753.243 35.2614 753.099 35.8369C752.963 36.404 752.896 37.0007 752.896 37.627C752.896 38.4141 752.98 39.1038 753.149 39.6963C753.327 40.2887 753.577 40.7839 753.898 41.1816C754.22 41.571 754.609 41.8672 755.066 42.0703C755.523 42.265 756.04 42.3623 756.615 42.3623C757.275 42.3623 757.838 42.2354 758.304 41.9814C758.778 41.7191 759.163 41.3721 759.459 40.9404C759.764 40.5088 759.984 40.0094 760.119 39.4424C760.263 38.8669 760.335 38.2617 760.335 37.627ZM765.146 37.8936C765.146 36.8102 765.295 35.8496 765.591 35.0117C765.887 34.1654 766.306 33.4544 766.848 32.8789C767.398 32.2949 768.054 31.8548 768.815 31.5586C769.586 31.2539 770.44 31.1016 771.38 31.1016C771.786 31.1016 772.184 31.127 772.573 31.1777C772.971 31.2285 773.36 31.3089 773.741 31.4189V26.0615H775.963V44H773.982L773.906 41.5879C773.288 42.485 772.62 43.1494 771.9 43.5811C771.181 44.0127 770.402 44.2285 769.564 44.2285C768.837 44.2285 768.193 44.0762 767.635 43.7715C767.085 43.4668 766.623 43.0394 766.251 42.4893C765.887 41.9307 765.612 41.262 765.426 40.4834C765.24 39.7048 765.146 38.8415 765.146 37.8936ZM767.406 37.7539C767.406 39.2943 767.631 40.4453 768.079 41.207C768.536 41.9603 769.179 42.3369 770.009 42.3369C770.567 42.3369 771.156 42.0872 771.773 41.5879C772.4 41.0885 773.056 40.348 773.741 39.3662V33.4502C773.377 33.2809 772.975 33.154 772.535 33.0693C772.095 32.9762 771.659 32.9297 771.228 32.9297C770.026 32.9297 769.086 33.319 768.409 34.0977C767.741 34.8763 767.406 36.0951 767.406 37.7539ZM790.854 36.9541C790.854 37.2673 790.85 37.5296 790.842 37.7412C790.833 37.9528 790.821 38.1517 790.804 38.3379H781.854C781.854 39.6413 782.217 40.6442 782.945 41.3467C783.673 42.0407 784.723 42.3877 786.094 42.3877C786.466 42.3877 786.839 42.375 787.211 42.3496C787.583 42.3158 787.943 42.2734 788.29 42.2227C788.637 42.1719 788.967 42.1169 789.28 42.0576C789.602 41.9899 789.898 41.918 790.169 41.8418V43.6572C789.568 43.8265 788.887 43.9619 788.125 44.0635C787.372 44.1735 786.589 44.2285 785.776 44.2285C784.685 44.2285 783.745 44.0804 782.958 43.7842C782.171 43.488 781.523 43.0605 781.016 42.502C780.516 41.9349 780.144 41.2451 779.898 40.4326C779.661 39.6117 779.543 38.6849 779.543 37.6523C779.543 36.7552 779.67 35.9089 779.924 35.1133C780.186 34.3092 780.563 33.6068 781.054 33.0059C781.553 32.3965 782.162 31.9141 782.882 31.5586C783.601 31.2031 784.418 31.0254 785.332 31.0254C786.221 31.0254 787.008 31.165 787.693 31.4443C788.379 31.7236 788.954 32.1214 789.42 32.6377C789.894 33.1455 790.249 33.7676 790.486 34.5039C790.732 35.2318 790.854 36.0485 790.854 36.9541ZM788.557 36.6367C788.582 36.0697 788.527 35.5534 788.392 35.0879C788.256 34.6139 788.045 34.2077 787.757 33.8691C787.478 33.5306 787.126 33.2682 786.703 33.082C786.28 32.8874 785.789 32.79 785.23 32.79C784.748 32.79 784.308 32.8831 783.91 33.0693C783.512 33.2555 783.17 33.5179 782.882 33.8564C782.594 34.195 782.361 34.6012 782.184 35.0752C782.006 35.5492 781.896 36.0697 781.854 36.6367H788.557ZM799.398 40.001C799.686 40.001 799.957 40.056 800.211 40.166C800.473 40.276 800.698 40.4284 800.884 40.623C801.078 40.8177 801.231 41.0462 801.341 41.3086C801.451 41.5625 801.506 41.8376 801.506 42.1338C801.506 42.4215 801.451 42.6924 801.341 42.9463C801.231 43.2002 801.078 43.4245 800.884 43.6191C800.698 43.8053 800.473 43.9535 800.211 44.0635C799.957 44.1735 799.686 44.2285 799.398 44.2285C799.102 44.2285 798.827 44.1735 798.573 44.0635C798.319 43.9535 798.095 43.8053 797.9 43.6191C797.714 43.4245 797.566 43.2002 797.456 42.9463C797.346 42.6924 797.291 42.4215 797.291 42.1338C797.291 41.8376 797.346 41.5625 797.456 41.3086C797.566 41.0462 797.714 40.8177 797.9 40.623C798.095 40.4284 798.319 40.276 798.573 40.166C798.827 40.056 799.102 40.001 799.398 40.001ZM813.021 27.877H809.25V26.0615H815.255V42.1592H819.051V44H808.831V42.1592H813.021V27.877ZM833.739 36.9541C833.739 37.2673 833.735 37.5296 833.727 37.7412C833.718 37.9528 833.705 38.1517 833.688 38.3379H824.738C824.738 39.6413 825.102 40.6442 825.83 41.3467C826.558 42.0407 827.607 42.3877 828.979 42.3877C829.351 42.3877 829.723 42.375 830.096 42.3496C830.468 42.3158 830.828 42.2734 831.175 42.2227C831.522 42.1719 831.852 42.1169 832.165 42.0576C832.487 41.9899 832.783 41.918 833.054 41.8418V43.6572C832.453 43.8265 831.771 43.9619 831.01 44.0635C830.257 44.1735 829.474 44.2285 828.661 44.2285C827.569 44.2285 826.63 44.0804 825.843 43.7842C825.056 43.488 824.408 43.0605 823.9 42.502C823.401 41.9349 823.029 41.2451 822.783 40.4326C822.546 39.6117 822.428 38.6849 822.428 37.6523C822.428 36.7552 822.555 35.9089 822.809 35.1133C823.071 34.3092 823.448 33.6068 823.938 33.0059C824.438 32.3965 825.047 31.9141 825.767 31.5586C826.486 31.2031 827.303 31.0254 828.217 31.0254C829.105 31.0254 829.893 31.165 830.578 31.4443C831.264 31.7236 831.839 32.1214 832.305 32.6377C832.779 33.1455 833.134 33.7676 833.371 34.5039C833.617 35.2318 833.739 36.0485 833.739 36.9541ZM831.441 36.6367C831.467 36.0697 831.412 35.5534 831.276 35.0879C831.141 34.6139 830.929 34.2077 830.642 33.8691C830.362 33.5306 830.011 33.2682 829.588 33.082C829.165 32.8874 828.674 32.79 828.115 32.79C827.633 32.79 827.193 32.8831 826.795 33.0693C826.397 33.2555 826.054 33.5179 825.767 33.8564C825.479 34.195 825.246 34.6012 825.068 35.0752C824.891 35.5492 824.781 36.0697 824.738 36.6367H831.441ZM848.58 28.1182C847.421 27.8727 846.422 27.75 845.584 27.75C843.595 27.75 842.601 28.791 842.601 30.873V33.1074H848.187V34.9482H842.601V44H840.354V34.9482H836.253V33.1074H840.354V31C840.354 27.6061 842.122 25.9092 845.66 25.9092C846.54 25.9092 847.514 26.0107 848.58 26.2139V28.1182ZM861.834 43.8223C861.335 43.9492 860.818 44.0381 860.285 44.0889C859.752 44.1481 859.21 44.1777 858.66 44.1777C857.061 44.1777 855.867 43.818 855.08 43.0986C854.293 42.3708 853.899 41.2578 853.899 39.7598V33.1074H850.332V31.2539H853.899V27.75L856.108 27.1787V31.2539H861.834V33.1074H856.108V39.582C856.108 40.4961 856.35 41.1816 856.832 41.6387C857.323 42.0872 858.042 42.3115 858.99 42.3115C859.396 42.3115 859.841 42.2819 860.323 42.2227C860.806 42.1549 861.309 42.0534 861.834 41.918V43.8223Z" fill="#00B2FF"/>
<path d="M945 54C945 53.4477 944.552 53 944 53C943.448 53 943 53.4477 943 54L945 54ZM943.293 88.7071C943.683 89.0976 944.317 89.0976 944.707 88.7071L951.071 82.3431C951.462 81.9526 951.462 81.3195 951.071 80.9289C950.681 80.5384 950.047 80.5384 949.657 80.9289L944 86.5858L938.343 80.9289C937.953 80.5384 937.319 80.5384 936.929 80.9289C936.538 81.3195 936.538 81.9526 936.929 82.3431L943.293 88.7071ZM943 54L943 88L945 88L945 54L943 54Z" fill="#00B2FF"/>
<path d="M939.834 10.3984C939.834 11.5326 939.673 12.5228 939.352 13.3691C939.038 14.2155 938.603 14.918 938.044 15.4766C937.485 16.0352 936.825 16.4541 936.063 16.7334C935.302 17.0127 934.477 17.1523 933.588 17.1523C933.182 17.1523 932.775 17.1312 932.369 17.0889C931.971 17.0465 931.565 16.9746 931.15 16.873V22.2051H928.941V4.25391H930.909L931.049 6.38672C931.684 5.51497 932.361 4.9056 933.08 4.55859C933.799 4.20312 934.578 4.02539 935.416 4.02539C936.144 4.02539 936.783 4.17773 937.333 4.48242C937.883 4.78711 938.344 5.21875 938.717 5.77734C939.089 6.32747 939.368 6.99609 939.555 7.7832C939.741 8.56185 939.834 9.43359 939.834 10.3984ZM937.574 10.5C937.574 9.83138 937.523 9.21777 937.422 8.65918C937.329 8.10059 937.176 7.6224 936.965 7.22461C936.753 6.82682 936.482 6.5179 936.152 6.29785C935.822 6.06934 935.429 5.95508 934.972 5.95508C934.692 5.95508 934.409 6.00163 934.121 6.09473C933.833 6.17936 933.533 6.32747 933.22 6.53906C932.915 6.74219 932.589 7.01725 932.242 7.36426C931.904 7.7028 931.54 8.12598 931.15 8.63379V14.8164C931.557 14.9857 931.984 15.1211 932.433 15.2227C932.881 15.3158 933.321 15.3623 933.753 15.3623C934.946 15.3623 935.882 14.9603 936.559 14.1562C937.236 13.3438 937.574 12.125 937.574 10.5ZM953.481 17H951.501L951.425 14.9434C951.044 15.3835 950.68 15.7516 950.333 16.0479C949.994 16.3356 949.656 16.5684 949.317 16.7461C948.979 16.9238 948.636 17.0465 948.289 17.1143C947.951 17.1904 947.591 17.2285 947.21 17.2285C945.898 17.2285 944.908 16.8434 944.239 16.0732C943.571 15.3031 943.236 14.1393 943.236 12.582V4.25391H945.445V12.4043C945.445 14.3594 946.182 15.3369 947.654 15.3369C947.925 15.3369 948.188 15.2988 948.441 15.2227C948.704 15.138 948.975 14.9984 949.254 14.8037C949.542 14.6006 949.846 14.3298 950.168 13.9912C950.498 13.6527 950.866 13.2253 951.272 12.709V4.25391H953.481V17ZM967.624 13.5215C967.624 13.9701 967.548 14.3721 967.396 14.7275C967.243 15.083 967.036 15.4004 966.773 15.6797C966.511 15.9505 966.206 16.1833 965.859 16.3779C965.512 16.5726 965.14 16.7334 964.742 16.8604C964.353 16.9873 963.951 17.0804 963.536 17.1396C963.121 17.1989 962.715 17.2285 962.317 17.2285C961.454 17.2285 960.659 17.1904 959.931 17.1143C959.211 17.0381 958.505 16.9154 957.811 16.7461V14.7148C958.555 14.9264 959.296 15.0872 960.032 15.1973C960.769 15.3073 961.501 15.3623 962.229 15.3623C963.286 15.3623 964.069 15.2184 964.577 14.9307C965.085 14.6429 965.339 14.2324 965.339 13.6992C965.339 13.4707 965.297 13.2676 965.212 13.0898C965.136 12.9036 964.992 12.7301 964.78 12.5693C964.569 12.4001 964.239 12.2266 963.79 12.0488C963.35 11.8711 962.745 11.668 961.975 11.4395C961.399 11.2702 960.866 11.0798 960.375 10.8682C959.893 10.6481 959.474 10.39 959.118 10.0938C958.763 9.79753 958.483 9.45052 958.28 9.05273C958.077 8.65495 957.976 8.18522 957.976 7.64355C957.976 7.28809 958.056 6.89876 958.217 6.47559C958.386 6.05241 958.67 5.65885 959.067 5.29492C959.465 4.93099 960.003 4.63053 960.68 4.39355C961.357 4.14811 962.203 4.02539 963.219 4.02539C963.718 4.02539 964.272 4.05501 964.882 4.11426C965.491 4.16504 966.126 4.25814 966.786 4.39355V6.36133C966.092 6.19206 965.432 6.06934 964.806 5.99316C964.188 5.90853 963.65 5.86621 963.193 5.86621C962.643 5.86621 962.178 5.90853 961.797 5.99316C961.424 6.0778 961.12 6.19629 960.883 6.34863C960.654 6.49251 960.489 6.66602 960.388 6.86914C960.286 7.0638 960.235 7.27539 960.235 7.50391C960.235 7.73242 960.278 7.93978 960.362 8.12598C960.455 8.31217 960.62 8.49414 960.857 8.67188C961.103 8.84115 961.441 9.01465 961.873 9.19238C962.305 9.36165 962.868 9.54785 963.562 9.75098C964.315 9.97103 964.95 10.2038 965.466 10.4492C965.982 10.6862 966.401 10.9528 966.723 11.249C967.044 11.5452 967.273 11.8796 967.408 12.252C967.552 12.6243 967.624 13.0475 967.624 13.5215ZM982.071 17H979.862V8.8623C979.862 7.88053 979.676 7.14844 979.304 6.66602C978.94 6.17513 978.415 5.92969 977.729 5.92969C977.433 5.92969 977.154 5.97201 976.892 6.05664C976.638 6.13281 976.371 6.27246 976.092 6.47559C975.812 6.67025 975.508 6.93685 975.178 7.27539C974.848 7.61393 974.467 8.03711 974.035 8.54492V17H971.826V-0.938477H974.035V4.25391L973.959 6.25977C974.306 5.84505 974.645 5.49805 974.975 5.21875C975.313 4.93099 975.647 4.69824 975.978 4.52051C976.316 4.34277 976.659 4.21582 977.006 4.13965C977.353 4.06348 977.713 4.02539 978.085 4.02539C979.354 4.02539 980.336 4.41471 981.03 5.19336C981.724 5.96354 982.071 7.12728 982.071 8.68457V17ZM886.057 31.2539H888.024L888.113 33.3105C888.486 32.8704 888.845 32.5065 889.192 32.2188C889.539 31.9225 889.878 31.6855 890.208 31.5078C890.547 31.3301 890.889 31.2074 891.236 31.1396C891.583 31.0635 891.943 31.0254 892.315 31.0254C893.627 31.0254 894.618 31.4147 895.286 32.1934C895.963 32.9635 896.302 34.1273 896.302 35.6846V44H894.093V35.8623C894.093 34.8636 893.907 34.1273 893.534 33.6533C893.162 33.1709 892.607 32.9297 891.871 32.9297C891.6 32.9297 891.334 32.972 891.071 33.0566C890.817 33.1328 890.551 33.2725 890.271 33.4756C889.992 33.6702 889.688 33.9368 889.357 34.2754C889.036 34.6139 888.672 35.0371 888.266 35.5449V44H886.057V31.2539ZM911.447 37.5254C911.447 38.5156 911.308 39.4255 911.028 40.2549C910.749 41.0758 910.347 41.7826 909.822 42.375C909.298 42.959 908.659 43.416 907.905 43.7461C907.152 44.0677 906.297 44.2285 905.341 44.2285C904.427 44.2285 903.606 44.0889 902.878 43.8096C902.159 43.5218 901.545 43.1029 901.037 42.5527C900.538 42.0026 900.153 41.3213 899.882 40.5088C899.619 39.6963 899.488 38.7611 899.488 37.7031C899.488 36.7129 899.628 35.8115 899.907 34.999C900.187 34.1781 900.589 33.4756 901.113 32.8916C901.638 32.2992 902.277 31.8421 903.03 31.5205C903.784 31.1904 904.638 31.0254 905.595 31.0254C906.509 31.0254 907.326 31.1693 908.045 31.457C908.773 31.7363 909.386 32.151 909.886 32.7012C910.394 33.2428 910.779 33.9199 911.041 34.7324C911.312 35.5449 911.447 36.4759 911.447 37.5254ZM909.188 37.627C909.188 36.8398 909.099 36.1543 908.921 35.5703C908.752 34.9779 908.506 34.487 908.185 34.0977C907.863 33.6999 907.469 33.4036 907.004 33.209C906.547 33.0059 906.035 32.9043 905.468 32.9043C904.808 32.9043 904.241 33.0355 903.767 33.2979C903.301 33.5518 902.916 33.8945 902.611 34.3262C902.315 34.7578 902.095 35.2614 901.951 35.8369C901.816 36.404 901.748 37.0007 901.748 37.627C901.748 38.4141 901.833 39.1038 902.002 39.6963C902.18 40.2887 902.429 40.7839 902.751 41.1816C903.073 41.571 903.462 41.8672 903.919 42.0703C904.376 42.265 904.892 42.3623 905.468 42.3623C906.128 42.3623 906.691 42.2354 907.156 41.9814C907.63 41.7191 908.015 41.3721 908.312 40.9404C908.616 40.5088 908.836 40.0094 908.972 39.4424C909.116 38.8669 909.188 38.2617 909.188 37.627ZM913.999 37.8936C913.999 36.8102 914.147 35.8496 914.443 35.0117C914.74 34.1654 915.159 33.4544 915.7 32.8789C916.25 32.2949 916.906 31.8548 917.668 31.5586C918.438 31.2539 919.293 31.1016 920.232 31.1016C920.639 31.1016 921.036 31.127 921.426 31.1777C921.824 31.2285 922.213 31.3089 922.594 31.4189V26.0615H924.815V44H922.835L922.759 41.5879C922.141 42.485 921.472 43.1494 920.753 43.5811C920.034 44.0127 919.255 44.2285 918.417 44.2285C917.689 44.2285 917.046 44.0762 916.487 43.7715C915.937 43.4668 915.476 43.0394 915.104 42.4893C914.74 41.9307 914.465 41.262 914.278 40.4834C914.092 39.7048 913.999 38.8415 913.999 37.8936ZM916.259 37.7539C916.259 39.2943 916.483 40.4453 916.932 41.207C917.389 41.9603 918.032 42.3369 918.861 42.3369C919.42 42.3369 920.008 42.0872 920.626 41.5879C921.252 41.0885 921.908 40.348 922.594 39.3662V33.4502C922.23 33.2809 921.828 33.154 921.388 33.0693C920.948 32.9762 920.512 32.9297 920.08 32.9297C918.878 32.9297 917.939 33.319 917.262 34.0977C916.593 34.8763 916.259 36.0951 916.259 37.7539ZM939.707 36.9541C939.707 37.2673 939.703 37.5296 939.694 37.7412C939.686 37.9528 939.673 38.1517 939.656 38.3379H930.706C930.706 39.6413 931.07 40.6442 931.798 41.3467C932.526 42.0407 933.575 42.3877 934.946 42.3877C935.319 42.3877 935.691 42.375 936.063 42.3496C936.436 42.3158 936.796 42.2734 937.143 42.2227C937.49 42.1719 937.82 42.1169 938.133 42.0576C938.454 41.9899 938.751 41.918 939.021 41.8418V43.6572C938.421 43.8265 937.739 43.9619 936.978 44.0635C936.224 44.1735 935.441 44.2285 934.629 44.2285C933.537 44.2285 932.598 44.0804 931.811 43.7842C931.023 43.488 930.376 43.0605 929.868 42.502C929.369 41.9349 928.996 41.2451 928.751 40.4326C928.514 39.6117 928.396 38.6849 928.396 37.6523C928.396 36.7552 928.522 35.9089 928.776 35.1133C929.039 34.3092 929.415 33.6068 929.906 33.0059C930.406 32.3965 931.015 31.9141 931.734 31.5586C932.454 31.2031 933.271 31.0254 934.185 31.0254C935.073 31.0254 935.86 31.165 936.546 31.4443C937.231 31.7236 937.807 32.1214 938.272 32.6377C938.746 33.1455 939.102 33.7676 939.339 34.5039C939.584 35.2318 939.707 36.0485 939.707 36.9541ZM937.409 36.6367C937.435 36.0697 937.38 35.5534 937.244 35.0879C937.109 34.6139 936.897 34.2077 936.609 33.8691C936.33 33.5306 935.979 33.2682 935.556 33.082C935.132 32.8874 934.642 32.79 934.083 32.79C933.601 32.79 933.16 32.8831 932.763 33.0693C932.365 33.2555 932.022 33.5179 931.734 33.8564C931.447 34.195 931.214 34.6012 931.036 35.0752C930.858 35.5492 930.748 36.0697 930.706 36.6367H937.409ZM948.251 40.001C948.539 40.001 948.81 40.056 949.063 40.166C949.326 40.276 949.55 40.4284 949.736 40.623C949.931 40.8177 950.083 41.0462 950.193 41.3086C950.303 41.5625 950.358 41.8376 950.358 42.1338C950.358 42.4215 950.303 42.6924 950.193 42.9463C950.083 43.2002 949.931 43.4245 949.736 43.6191C949.55 43.8053 949.326 43.9535 949.063 44.0635C948.81 44.1735 948.539 44.2285 948.251 44.2285C947.955 44.2285 947.68 44.1735 947.426 44.0635C947.172 43.9535 946.948 43.8053 946.753 43.6191C946.567 43.4245 946.419 43.2002 946.309 42.9463C946.199 42.6924 946.144 42.4215 946.144 42.1338C946.144 41.8376 946.199 41.5625 946.309 41.3086C946.419 41.0462 946.567 40.8177 946.753 40.623C946.948 40.4284 947.172 40.276 947.426 40.166C947.68 40.056 947.955 40.001 948.251 40.001ZM958.052 31.2539H960.07L960.134 33.6025C960.887 32.6969 961.628 32.041 962.355 31.6348C963.092 31.2285 963.832 31.0254 964.577 31.0254C965.897 31.0254 966.896 31.4528 967.573 32.3076C968.259 33.1624 968.576 34.432 968.525 36.1162H966.291C966.316 34.999 966.151 34.1908 965.796 33.6914C965.449 33.1836 964.937 32.9297 964.26 32.9297C963.964 32.9297 963.663 32.9847 963.358 33.0947C963.062 33.1963 962.753 33.3656 962.432 33.6025C962.118 33.8311 961.784 34.1273 961.429 34.4912C961.073 34.8551 960.692 35.2952 960.286 35.8115V44H958.052V31.2539ZM976.168 33.082H972.397V31.2539H978.402V42.1592H982.198V44H971.979V42.1592H976.168V33.082ZM976.942 25.9092C977.188 25.9092 977.416 25.9557 977.628 26.0488C977.84 26.1335 978.021 26.2562 978.174 26.417C978.335 26.5778 978.457 26.764 978.542 26.9756C978.635 27.1787 978.682 27.403 978.682 27.6484C978.682 27.8854 978.635 28.1097 978.542 28.3213C978.457 28.5329 978.335 28.7191 978.174 28.8799C978.021 29.0407 977.84 29.1676 977.628 29.2607C977.416 29.3454 977.188 29.3877 976.942 29.3877C976.697 29.3877 976.468 29.3454 976.257 29.2607C976.045 29.1676 975.859 29.0407 975.698 28.8799C975.546 28.7191 975.423 28.5329 975.33 28.3213C975.245 28.1097 975.203 27.8854 975.203 27.6484C975.203 27.403 975.245 27.1787 975.33 26.9756C975.423 26.764 975.546 26.5778 975.698 26.417C975.859 26.2562 976.045 26.1335 976.257 26.0488C976.468 25.9557 976.697 25.9092 976.942 25.9092ZM995.3 33.0566C995.537 33.3529 995.719 33.6999 995.846 34.0977C995.981 34.487 996.049 34.9102 996.049 35.3672C996.049 36.0273 995.926 36.6325 995.681 37.1826C995.444 37.7243 995.105 38.1898 994.665 38.5791C994.225 38.9684 993.696 39.2731 993.078 39.4932C992.469 39.7048 991.796 39.8105 991.06 39.8105C990.526 39.8105 990.027 39.7555 989.562 39.6455C989.096 39.527 988.728 39.3831 988.457 39.2139C988.296 39.4508 988.161 39.6751 988.051 39.8867C987.941 40.0983 987.886 40.3353 987.886 40.5977C987.886 40.9193 988.038 41.1859 988.343 41.3975C988.656 41.609 989.066 41.7233 989.574 41.7402L992.926 41.8672C993.561 41.8841 994.145 41.9645 994.678 42.1084C995.219 42.2523 995.681 42.4596 996.062 42.7305C996.451 43.0013 996.751 43.3356 996.963 43.7334C997.183 44.1312 997.293 44.5924 997.293 45.1172C997.293 45.6842 997.17 46.2217 996.925 46.7295C996.679 47.2373 996.299 47.6816 995.782 48.0625C995.274 48.4518 994.627 48.7607 993.84 48.9893C993.053 49.2178 992.118 49.332 991.034 49.332C990.002 49.332 989.121 49.2474 988.394 49.0781C987.674 48.9173 987.082 48.6888 986.616 48.3926C986.151 48.1048 985.812 47.7578 985.601 47.3516C985.389 46.9538 985.283 46.5137 985.283 46.0312C985.283 45.4134 985.427 44.8717 985.715 44.4062C986.003 43.9408 986.447 43.4922 987.048 43.0605C986.828 42.959 986.637 42.832 986.477 42.6797C986.316 42.5273 986.185 42.3623 986.083 42.1846C985.981 41.9984 985.905 41.8037 985.854 41.6006C985.804 41.3975 985.778 41.1986 985.778 41.0039C985.778 40.4538 985.905 39.9502 986.159 39.4932C986.422 39.0361 986.73 38.6045 987.086 38.1982C986.925 38.0036 986.781 37.8132 986.654 37.627C986.536 37.4408 986.43 37.2419 986.337 37.0303C986.252 36.8102 986.185 36.5775 986.134 36.332C986.091 36.0781 986.07 35.7904 986.07 35.4688C986.07 34.8086 986.189 34.2077 986.426 33.666C986.671 33.1159 987.01 32.6462 987.441 32.2568C987.882 31.8675 988.406 31.5671 989.016 31.3555C989.633 31.1354 990.315 31.0254 991.06 31.0254C991.373 31.0254 991.673 31.0465 991.961 31.0889C992.249 31.1312 992.503 31.1862 992.723 31.2539H997.344V33.0566H995.3ZM987.632 45.8408C987.632 46.4417 987.945 46.8776 988.571 47.1484C989.198 47.4277 990.069 47.5674 991.187 47.5674C991.889 47.5674 992.477 47.5039 992.951 47.377C993.434 47.25 993.819 47.0807 994.106 46.8691C994.403 46.666 994.614 46.429 994.741 46.1582C994.868 45.8958 994.932 45.625 994.932 45.3457C994.932 44.8294 994.72 44.4486 994.297 44.2031C993.874 43.9577 993.226 43.8138 992.354 43.7715L989.028 43.6572C988.749 43.8434 988.516 44.0254 988.33 44.2031C988.152 44.3809 988.013 44.5586 987.911 44.7363C987.81 44.9225 987.738 45.1045 987.695 45.2822C987.653 45.4684 987.632 45.6546 987.632 45.8408ZM988.305 35.418C988.305 35.8242 988.372 36.1966 988.508 36.5352C988.643 36.8737 988.834 37.1615 989.079 37.3984C989.325 37.6354 989.612 37.8216 989.942 37.957C990.281 38.084 990.653 38.1475 991.06 38.1475C991.5 38.1475 991.889 38.0755 992.228 37.9316C992.575 37.7793 992.862 37.5762 993.091 37.3223C993.328 37.0684 993.506 36.7764 993.624 36.4463C993.751 36.1162 993.814 35.7734 993.814 35.418C993.814 35.0117 993.747 34.6393 993.611 34.3008C993.476 33.9622 993.285 33.6745 993.04 33.4375C992.795 33.2005 992.503 33.0186 992.164 32.8916C991.834 32.7562 991.466 32.6885 991.06 32.6885C990.619 32.6885 990.226 32.7646 989.879 32.917C989.54 33.0693 989.253 33.2725 989.016 33.5264C988.787 33.7718 988.609 34.0596 988.482 34.3896C988.364 34.7197 988.305 35.0625 988.305 35.418ZM1010.66 44H1008.45V35.8623C1008.45 34.8805 1008.27 34.1484 1007.89 33.666C1007.53 33.1751 1007 32.9297 1006.32 32.9297C1006.02 32.9297 1005.74 32.972 1005.48 33.0566C1005.23 33.1328 1004.96 33.2725 1004.68 33.4756C1004.4 33.6702 1004.1 33.9368 1003.77 34.2754C1003.44 34.6139 1003.06 35.0371 1002.62 35.5449V44H1000.42V26.0615H1002.62V31.2539L1002.55 33.2598C1002.9 32.8451 1003.23 32.498 1003.56 32.2188C1003.9 31.931 1004.24 31.6982 1004.57 31.5205C1004.91 31.3428 1005.25 31.2158 1005.6 31.1396C1005.94 31.0635 1006.3 31.0254 1006.67 31.0254C1007.94 31.0254 1008.93 31.4147 1009.62 32.1934C1010.31 32.9635 1010.66 34.1273 1010.66 35.6846V44ZM1024.98 43.8223C1024.48 43.9492 1023.97 44.0381 1023.43 44.0889C1022.9 44.1481 1022.36 44.1777 1021.81 44.1777C1020.21 44.1777 1019.01 43.818 1018.23 43.0986C1017.44 42.3708 1017.05 41.2578 1017.05 39.7598V33.1074H1013.48V31.2539H1017.05V27.75L1019.26 27.1787V31.2539H1024.98V33.1074H1019.26V39.582C1019.26 40.4961 1019.5 41.1816 1019.98 41.6387C1020.47 42.0872 1021.19 42.3115 1022.14 42.3115C1022.54 42.3115 1022.99 42.2819 1023.47 42.2227C1023.95 42.1549 1024.46 42.0534 1024.98 41.918V43.8223Z" fill="#00B2FF"/>
<path d="M422.172 176.254H424.14L424.229 178.311C424.601 177.87 424.961 177.507 425.308 177.219C425.655 176.923 425.993 176.686 426.323 176.508C426.662 176.33 427.005 176.207 427.352 176.14C427.699 176.063 428.058 176.025 428.431 176.025C429.743 176.025 430.733 176.415 431.401 177.193C432.078 177.964 432.417 179.127 432.417 180.685V189H430.208V180.862C430.208 179.864 430.022 179.127 429.649 178.653C429.277 178.171 428.723 177.93 427.986 177.93C427.715 177.93 427.449 177.972 427.187 178.057C426.933 178.133 426.666 178.272 426.387 178.476C426.107 178.67 425.803 178.937 425.473 179.275C425.151 179.614 424.787 180.037 424.381 180.545V189H422.172V176.254ZM447.562 182.525C447.562 183.516 447.423 184.425 447.144 185.255C446.864 186.076 446.462 186.783 445.938 187.375C445.413 187.959 444.774 188.416 444.021 188.746C443.267 189.068 442.412 189.229 441.456 189.229C440.542 189.229 439.721 189.089 438.993 188.81C438.274 188.522 437.66 188.103 437.152 187.553C436.653 187.003 436.268 186.321 435.997 185.509C435.735 184.696 435.604 183.761 435.604 182.703C435.604 181.713 435.743 180.812 436.022 179.999C436.302 179.178 436.704 178.476 437.229 177.892C437.753 177.299 438.392 176.842 439.146 176.521C439.899 176.19 440.754 176.025 441.71 176.025C442.624 176.025 443.441 176.169 444.16 176.457C444.888 176.736 445.502 177.151 446.001 177.701C446.509 178.243 446.894 178.92 447.156 179.732C447.427 180.545 447.562 181.476 447.562 182.525ZM445.303 182.627C445.303 181.84 445.214 181.154 445.036 180.57C444.867 179.978 444.621 179.487 444.3 179.098C443.978 178.7 443.585 178.404 443.119 178.209C442.662 178.006 442.15 177.904 441.583 177.904C440.923 177.904 440.356 178.035 439.882 178.298C439.416 178.552 439.031 178.895 438.727 179.326C438.43 179.758 438.21 180.261 438.066 180.837C437.931 181.404 437.863 182.001 437.863 182.627C437.863 183.414 437.948 184.104 438.117 184.696C438.295 185.289 438.545 185.784 438.866 186.182C439.188 186.571 439.577 186.867 440.034 187.07C440.491 187.265 441.007 187.362 441.583 187.362C442.243 187.362 442.806 187.235 443.271 186.981C443.745 186.719 444.131 186.372 444.427 185.94C444.731 185.509 444.951 185.009 445.087 184.442C445.231 183.867 445.303 183.262 445.303 182.627ZM450.114 182.894C450.114 181.81 450.262 180.85 450.559 180.012C450.855 179.165 451.274 178.454 451.815 177.879C452.366 177.295 453.021 176.855 453.783 176.559C454.553 176.254 455.408 176.102 456.348 176.102C456.754 176.102 457.152 176.127 457.541 176.178C457.939 176.229 458.328 176.309 458.709 176.419V171.062H460.931V189H458.95L458.874 186.588C458.256 187.485 457.588 188.149 456.868 188.581C456.149 189.013 455.37 189.229 454.532 189.229C453.804 189.229 453.161 189.076 452.603 188.771C452.052 188.467 451.591 188.039 451.219 187.489C450.855 186.931 450.58 186.262 450.394 185.483C450.207 184.705 450.114 183.841 450.114 182.894ZM452.374 182.754C452.374 184.294 452.598 185.445 453.047 186.207C453.504 186.96 454.147 187.337 454.977 187.337C455.535 187.337 456.123 187.087 456.741 186.588C457.368 186.089 458.023 185.348 458.709 184.366V178.45C458.345 178.281 457.943 178.154 457.503 178.069C457.063 177.976 456.627 177.93 456.195 177.93C454.993 177.93 454.054 178.319 453.377 179.098C452.708 179.876 452.374 181.095 452.374 182.754ZM475.822 181.954C475.822 182.267 475.818 182.53 475.81 182.741C475.801 182.953 475.788 183.152 475.771 183.338H466.821C466.821 184.641 467.185 185.644 467.913 186.347C468.641 187.041 469.69 187.388 471.062 187.388C471.434 187.388 471.806 187.375 472.179 187.35C472.551 187.316 472.911 187.273 473.258 187.223C473.605 187.172 473.935 187.117 474.248 187.058C474.57 186.99 474.866 186.918 475.137 186.842V188.657C474.536 188.826 473.854 188.962 473.093 189.063C472.34 189.174 471.557 189.229 470.744 189.229C469.652 189.229 468.713 189.08 467.926 188.784C467.139 188.488 466.491 188.061 465.983 187.502C465.484 186.935 465.112 186.245 464.866 185.433C464.629 184.612 464.511 183.685 464.511 182.652C464.511 181.755 464.638 180.909 464.892 180.113C465.154 179.309 465.531 178.607 466.021 178.006C466.521 177.396 467.13 176.914 467.85 176.559C468.569 176.203 469.386 176.025 470.3 176.025C471.188 176.025 471.976 176.165 472.661 176.444C473.347 176.724 473.922 177.121 474.388 177.638C474.862 178.146 475.217 178.768 475.454 179.504C475.7 180.232 475.822 181.049 475.822 181.954ZM473.524 181.637C473.55 181.07 473.495 180.553 473.359 180.088C473.224 179.614 473.012 179.208 472.725 178.869C472.445 178.531 472.094 178.268 471.671 178.082C471.248 177.887 470.757 177.79 470.198 177.79C469.716 177.79 469.276 177.883 468.878 178.069C468.48 178.256 468.137 178.518 467.85 178.856C467.562 179.195 467.329 179.601 467.151 180.075C466.974 180.549 466.864 181.07 466.821 181.637H473.524ZM504.222 180.799H493.304V178.933H504.222V180.799ZM504.222 185.217H493.304V183.351H504.222V185.217ZM521.589 182.894C521.589 181.979 521.707 181.112 521.944 180.291C522.19 179.47 522.562 178.751 523.062 178.133C523.569 177.507 524.217 177.011 525.004 176.647C525.791 176.284 526.73 176.102 527.822 176.102C528.254 176.102 528.681 176.135 529.104 176.203C529.528 176.271 529.976 176.377 530.45 176.521L532.405 176.025V194.205H530.184V189.394L530.298 186.664C529.096 188.374 527.666 189.229 526.007 189.229C525.262 189.229 524.615 189.076 524.064 188.771C523.514 188.467 523.053 188.035 522.681 187.477C522.317 186.918 522.042 186.249 521.855 185.471C521.678 184.692 521.589 183.833 521.589 182.894ZM523.849 182.754C523.849 183.465 523.899 184.104 524.001 184.671C524.111 185.238 524.272 185.72 524.483 186.118C524.703 186.507 524.974 186.808 525.296 187.02C525.626 187.231 526.011 187.337 526.451 187.337C527.01 187.337 527.598 187.087 528.216 186.588C528.842 186.089 529.498 185.348 530.184 184.366V178.45C529.845 178.289 529.46 178.158 529.028 178.057C528.605 177.955 528.152 177.904 527.67 177.904C526.426 177.904 525.478 178.315 524.826 179.136C524.174 179.957 523.849 181.163 523.849 182.754ZM546.776 189H544.796L544.72 186.943C544.339 187.383 543.975 187.752 543.628 188.048C543.289 188.336 542.951 188.568 542.612 188.746C542.274 188.924 541.931 189.047 541.584 189.114C541.245 189.19 540.886 189.229 540.505 189.229C539.193 189.229 538.203 188.843 537.534 188.073C536.866 187.303 536.531 186.139 536.531 184.582V176.254H538.74V184.404C538.74 186.359 539.477 187.337 540.949 187.337C541.22 187.337 541.482 187.299 541.736 187.223C541.999 187.138 542.27 186.998 542.549 186.804C542.837 186.601 543.141 186.33 543.463 185.991C543.793 185.653 544.161 185.225 544.567 184.709V176.254H546.776V189ZM561.592 181.954C561.592 182.267 561.588 182.53 561.579 182.741C561.571 182.953 561.558 183.152 561.541 183.338H552.591C552.591 184.641 552.955 185.644 553.683 186.347C554.41 187.041 555.46 187.388 556.831 187.388C557.203 187.388 557.576 187.375 557.948 187.35C558.321 187.316 558.68 187.273 559.027 187.223C559.374 187.172 559.704 187.117 560.018 187.058C560.339 186.99 560.635 186.918 560.906 186.842V188.657C560.305 188.826 559.624 188.962 558.862 189.063C558.109 189.174 557.326 189.229 556.514 189.229C555.422 189.229 554.482 189.08 553.695 188.784C552.908 188.488 552.261 188.061 551.753 187.502C551.254 186.935 550.881 186.245 550.636 185.433C550.399 184.612 550.28 183.685 550.28 182.652C550.28 181.755 550.407 180.909 550.661 180.113C550.924 179.309 551.3 178.607 551.791 178.006C552.29 177.396 552.9 176.914 553.619 176.559C554.339 176.203 555.155 176.025 556.069 176.025C556.958 176.025 557.745 176.165 558.431 176.444C559.116 176.724 559.692 177.121 560.157 177.638C560.631 178.146 560.987 178.768 561.224 179.504C561.469 180.232 561.592 181.049 561.592 181.954ZM559.294 181.637C559.319 181.07 559.264 180.553 559.129 180.088C558.993 179.614 558.782 179.208 558.494 178.869C558.215 178.531 557.864 178.268 557.44 178.082C557.017 177.887 556.526 177.79 555.968 177.79C555.485 177.79 555.045 177.883 554.647 178.069C554.25 178.256 553.907 178.518 553.619 178.856C553.331 179.195 553.099 179.601 552.921 180.075C552.743 180.549 552.633 181.07 552.591 181.637H559.294ZM575.366 189H573.386L573.31 186.943C572.929 187.383 572.565 187.752 572.218 188.048C571.879 188.336 571.541 188.568 571.202 188.746C570.864 188.924 570.521 189.047 570.174 189.114C569.835 189.19 569.476 189.229 569.095 189.229C567.783 189.229 566.793 188.843 566.124 188.073C565.455 187.303 565.121 186.139 565.121 184.582V176.254H567.33V184.404C567.33 186.359 568.066 187.337 569.539 187.337C569.81 187.337 570.072 187.299 570.326 187.223C570.589 187.138 570.859 186.998 571.139 186.804C571.426 186.601 571.731 186.33 572.053 185.991C572.383 185.653 572.751 185.225 573.157 184.709V176.254H575.366V189ZM590.182 181.954C590.182 182.267 590.177 182.53 590.169 182.741C590.16 182.953 590.148 183.152 590.131 183.338H581.181C581.181 184.641 581.545 185.644 582.272 186.347C583 187.041 584.05 187.388 585.421 187.388C585.793 187.388 586.166 187.375 586.538 187.35C586.91 187.316 587.27 187.273 587.617 187.223C587.964 187.172 588.294 187.117 588.607 187.058C588.929 186.99 589.225 186.918 589.496 186.842V188.657C588.895 188.826 588.214 188.962 587.452 189.063C586.699 189.174 585.916 189.229 585.104 189.229C584.012 189.229 583.072 189.08 582.285 188.784C581.498 188.488 580.851 188.061 580.343 187.502C579.843 186.935 579.471 186.245 579.226 185.433C578.989 184.612 578.87 183.685 578.87 182.652C578.87 181.755 578.997 180.909 579.251 180.113C579.513 179.309 579.89 178.607 580.381 178.006C580.88 177.396 581.49 176.914 582.209 176.559C582.928 176.203 583.745 176.025 584.659 176.025C585.548 176.025 586.335 176.165 587.021 176.444C587.706 176.724 588.282 177.121 588.747 177.638C589.221 178.146 589.576 178.768 589.813 179.504C590.059 180.232 590.182 181.049 590.182 181.954ZM587.884 181.637C587.909 181.07 587.854 180.553 587.719 180.088C587.583 179.614 587.372 179.208 587.084 178.869C586.805 178.531 586.453 178.268 586.03 178.082C585.607 177.887 585.116 177.79 584.558 177.79C584.075 177.79 583.635 177.883 583.237 178.069C582.84 178.256 582.497 178.518 582.209 178.856C581.921 179.195 581.688 179.601 581.511 180.075C581.333 180.549 581.223 181.07 581.181 181.637H587.884ZM598.726 185.001C599.013 185.001 599.284 185.056 599.538 185.166C599.8 185.276 600.025 185.428 600.211 185.623C600.406 185.818 600.558 186.046 600.668 186.309C600.778 186.562 600.833 186.838 600.833 187.134C600.833 187.422 600.778 187.692 600.668 187.946C600.558 188.2 600.406 188.424 600.211 188.619C600.025 188.805 599.8 188.953 599.538 189.063C599.284 189.174 599.013 189.229 598.726 189.229C598.429 189.229 598.154 189.174 597.9 189.063C597.646 188.953 597.422 188.805 597.228 188.619C597.041 188.424 596.893 188.2 596.783 187.946C596.673 187.692 596.618 187.422 596.618 187.134C596.618 186.838 596.673 186.562 596.783 186.309C596.893 186.046 597.041 185.818 597.228 185.623C597.422 185.428 597.646 185.276 597.9 185.166C598.154 185.056 598.429 185.001 598.726 185.001ZM618.898 182.398C618.898 183.533 618.738 184.523 618.416 185.369C618.103 186.215 617.667 186.918 617.108 187.477C616.55 188.035 615.89 188.454 615.128 188.733C614.366 189.013 613.541 189.152 612.652 189.152C612.246 189.152 611.84 189.131 611.434 189.089C611.036 189.047 610.63 188.975 610.215 188.873V194.205H608.006V176.254H609.974L610.113 178.387C610.748 177.515 611.425 176.906 612.145 176.559C612.864 176.203 613.643 176.025 614.48 176.025C615.208 176.025 615.847 176.178 616.397 176.482C616.948 176.787 617.409 177.219 617.781 177.777C618.154 178.327 618.433 178.996 618.619 179.783C618.805 180.562 618.898 181.434 618.898 182.398ZM616.639 182.5C616.639 181.831 616.588 181.218 616.486 180.659C616.393 180.101 616.241 179.622 616.029 179.225C615.818 178.827 615.547 178.518 615.217 178.298C614.887 178.069 614.493 177.955 614.036 177.955C613.757 177.955 613.473 178.002 613.186 178.095C612.898 178.179 612.597 178.327 612.284 178.539C611.979 178.742 611.654 179.017 611.307 179.364C610.968 179.703 610.604 180.126 610.215 180.634V186.816C610.621 186.986 611.049 187.121 611.497 187.223C611.946 187.316 612.386 187.362 612.817 187.362C614.011 187.362 614.946 186.96 615.623 186.156C616.3 185.344 616.639 184.125 616.639 182.5ZM633.396 182.525C633.396 183.516 633.257 184.425 632.978 185.255C632.698 186.076 632.296 186.783 631.771 187.375C631.247 187.959 630.608 188.416 629.854 188.746C629.101 189.068 628.246 189.229 627.29 189.229C626.376 189.229 625.555 189.089 624.827 188.81C624.108 188.522 623.494 188.103 622.986 187.553C622.487 187.003 622.102 186.321 621.831 185.509C621.569 184.696 621.438 183.761 621.438 182.703C621.438 181.713 621.577 180.812 621.856 179.999C622.136 179.178 622.538 178.476 623.062 177.892C623.587 177.299 624.226 176.842 624.979 176.521C625.733 176.19 626.588 176.025 627.544 176.025C628.458 176.025 629.275 176.169 629.994 176.457C630.722 176.736 631.336 177.151 631.835 177.701C632.343 178.243 632.728 178.92 632.99 179.732C633.261 180.545 633.396 181.476 633.396 182.525ZM631.137 182.627C631.137 181.84 631.048 181.154 630.87 180.57C630.701 179.978 630.455 179.487 630.134 179.098C629.812 178.7 629.419 178.404 628.953 178.209C628.496 178.006 627.984 177.904 627.417 177.904C626.757 177.904 626.19 178.035 625.716 178.298C625.25 178.552 624.865 178.895 624.561 179.326C624.264 179.758 624.044 180.261 623.9 180.837C623.765 181.404 623.697 182.001 623.697 182.627C623.697 183.414 623.782 184.104 623.951 184.696C624.129 185.289 624.379 185.784 624.7 186.182C625.022 186.571 625.411 186.867 625.868 187.07C626.325 187.265 626.841 187.362 627.417 187.362C628.077 187.362 628.64 187.235 629.105 186.981C629.579 186.719 629.965 186.372 630.261 185.94C630.565 185.509 630.785 185.009 630.921 184.442C631.065 183.867 631.137 183.262 631.137 182.627ZM647.488 182.398C647.488 183.533 647.327 184.523 647.006 185.369C646.693 186.215 646.257 186.918 645.698 187.477C645.14 188.035 644.479 188.454 643.718 188.733C642.956 189.013 642.131 189.152 641.242 189.152C640.836 189.152 640.43 189.131 640.023 189.089C639.626 189.047 639.219 188.975 638.805 188.873V194.205H636.596V176.254H638.563L638.703 178.387C639.338 177.515 640.015 176.906 640.734 176.559C641.454 176.203 642.232 176.025 643.07 176.025C643.798 176.025 644.437 176.178 644.987 176.482C645.537 176.787 645.999 177.219 646.371 177.777C646.743 178.327 647.023 178.996 647.209 179.783C647.395 180.562 647.488 181.434 647.488 182.398ZM645.229 182.5C645.229 181.831 645.178 181.218 645.076 180.659C644.983 180.101 644.831 179.622 644.619 179.225C644.408 178.827 644.137 178.518 643.807 178.298C643.477 178.069 643.083 177.955 642.626 177.955C642.347 177.955 642.063 178.002 641.775 178.095C641.488 178.179 641.187 178.327 640.874 178.539C640.569 178.742 640.243 179.017 639.896 179.364C639.558 179.703 639.194 180.126 638.805 180.634V186.816C639.211 186.986 639.638 187.121 640.087 187.223C640.535 187.316 640.976 187.362 641.407 187.362C642.601 187.362 643.536 186.96 644.213 186.156C644.89 185.344 645.229 184.125 645.229 182.5Z" fill="#FF0000"/>
<line x1="55.6358" y1="279.27" x2="84.2702" y2="235.364" stroke="black" stroke-width="2.5" stroke-linecap="round" stroke-dasharray="8 8"/>
<line x1="1.25" y1="-1.25" x2="53.6681" y2="-1.25" transform="matrix(-0.546268 -0.837611 -0.837611 0.546268 138 281)" stroke="black" stroke-width="2.5" stroke-linecap="round" stroke-dasharray="8 8"/>
<line x1="1.25" y1="-1.25" x2="53.6681" y2="-1.25" transform="matrix(-0.546268 -0.837611 -0.837611 0.546268 238 281)" stroke="black" stroke-width="2.5" stroke-linecap="round" stroke-dasharray="8 8"/>
<path d="M214 123C214.552 123 215 122.552 215 122C215 121.448 214.552 121 214 121V123ZM175.293 121.293C174.902 121.683 174.902 122.317 175.293 122.707L181.657 129.071C182.047 129.462 182.681 129.462 183.071 129.071C183.462 128.681 183.462 128.047 183.071 127.657L177.414 122L183.071 116.343C183.462 115.953 183.462 115.319 183.071 114.929C182.681 114.538 182.047 114.538 181.657 114.929L175.293 121.293ZM214 121H176V123H214V121Z" fill="#666666"/>
<rect x="215" y="108" width="69" height="28" rx="6" stroke="#666666" stroke-width="2"/>
<path d="M224.984 118.234H226.801L226.883 120.133C227.227 119.727 227.559 119.391 227.879 119.125C228.199 118.852 228.512 118.633 228.816 118.469C229.129 118.305 229.445 118.191 229.766 118.129C230.086 118.059 230.418 118.023 230.762 118.023C231.973 118.023 232.887 118.383 233.504 119.102C234.129 119.812 234.441 120.887 234.441 122.324V130H232.402V122.488C232.402 121.566 232.23 120.887 231.887 120.449C231.543 120.004 231.031 119.781 230.352 119.781C230.102 119.781 229.855 119.82 229.613 119.898C229.379 119.969 229.133 120.098 228.875 120.285C228.617 120.465 228.336 120.711 228.031 121.023C227.734 121.336 227.398 121.727 227.023 122.195V130H224.984V118.234ZM248.422 124.023C248.422 124.938 248.293 125.777 248.035 126.543C247.777 127.301 247.406 127.953 246.922 128.5C246.438 129.039 245.848 129.461 245.152 129.766C244.457 130.062 243.668 130.211 242.785 130.211C241.941 130.211 241.184 130.082 240.512 129.824C239.848 129.559 239.281 129.172 238.812 128.664C238.352 128.156 237.996 127.527 237.746 126.777C237.504 126.027 237.383 125.164 237.383 124.188C237.383 123.273 237.512 122.441 237.77 121.691C238.027 120.934 238.398 120.285 238.883 119.746C239.367 119.199 239.957 118.777 240.652 118.48C241.348 118.176 242.137 118.023 243.02 118.023C243.863 118.023 244.617 118.156 245.281 118.422C245.953 118.68 246.52 119.062 246.98 119.57C247.449 120.07 247.805 120.695 248.047 121.445C248.297 122.195 248.422 123.055 248.422 124.023ZM246.336 124.117C246.336 123.391 246.254 122.758 246.09 122.219C245.934 121.672 245.707 121.219 245.41 120.859C245.113 120.492 244.75 120.219 244.32 120.039C243.898 119.852 243.426 119.758 242.902 119.758C242.293 119.758 241.77 119.879 241.332 120.121C240.902 120.355 240.547 120.672 240.266 121.07C239.992 121.469 239.789 121.934 239.656 122.465C239.531 122.988 239.469 123.539 239.469 124.117C239.469 124.844 239.547 125.48 239.703 126.027C239.867 126.574 240.098 127.031 240.395 127.398C240.691 127.758 241.051 128.031 241.473 128.219C241.895 128.398 242.371 128.488 242.902 128.488C243.512 128.488 244.031 128.371 244.461 128.137C244.898 127.895 245.254 127.574 245.527 127.176C245.809 126.777 246.012 126.316 246.137 125.793C246.27 125.262 246.336 124.703 246.336 124.117ZM250.777 124.363C250.777 123.363 250.914 122.477 251.188 121.703C251.461 120.922 251.848 120.266 252.348 119.734C252.855 119.195 253.461 118.789 254.164 118.516C254.875 118.234 255.664 118.094 256.531 118.094C256.906 118.094 257.273 118.117 257.633 118.164C258 118.211 258.359 118.285 258.711 118.387V113.441H260.762V130H258.934L258.863 127.773C258.293 128.602 257.676 129.215 257.012 129.613C256.348 130.012 255.629 130.211 254.855 130.211C254.184 130.211 253.59 130.07 253.074 129.789C252.566 129.508 252.141 129.113 251.797 128.605C251.461 128.09 251.207 127.473 251.035 126.754C250.863 126.035 250.777 125.238 250.777 124.363ZM252.863 124.234C252.863 125.656 253.07 126.719 253.484 127.422C253.906 128.117 254.5 128.465 255.266 128.465C255.781 128.465 256.324 128.234 256.895 127.773C257.473 127.312 258.078 126.629 258.711 125.723V120.262C258.375 120.105 258.004 119.988 257.598 119.91C257.191 119.824 256.789 119.781 256.391 119.781C255.281 119.781 254.414 120.141 253.789 120.859C253.172 121.578 252.863 122.703 252.863 124.234ZM274.508 123.496C274.508 123.785 274.504 124.027 274.496 124.223C274.488 124.418 274.477 124.602 274.461 124.773H266.199C266.199 125.977 266.535 126.902 267.207 127.551C267.879 128.191 268.848 128.512 270.113 128.512C270.457 128.512 270.801 128.5 271.145 128.477C271.488 128.445 271.82 128.406 272.141 128.359C272.461 128.312 272.766 128.262 273.055 128.207C273.352 128.145 273.625 128.078 273.875 128.008V129.684C273.32 129.84 272.691 129.965 271.988 130.059C271.293 130.16 270.57 130.211 269.82 130.211C268.812 130.211 267.945 130.074 267.219 129.801C266.492 129.527 265.895 129.133 265.426 128.617C264.965 128.094 264.621 127.457 264.395 126.707C264.176 125.949 264.066 125.094 264.066 124.141C264.066 123.312 264.184 122.531 264.418 121.797C264.66 121.055 265.008 120.406 265.461 119.852C265.922 119.289 266.484 118.844 267.148 118.516C267.812 118.188 268.566 118.023 269.41 118.023C270.23 118.023 270.957 118.152 271.59 118.41C272.223 118.668 272.754 119.035 273.184 119.512C273.621 119.98 273.949 120.555 274.168 121.234C274.395 121.906 274.508 122.66 274.508 123.496ZM272.387 123.203C272.41 122.68 272.359 122.203 272.234 121.773C272.109 121.336 271.914 120.961 271.648 120.648C271.391 120.336 271.066 120.094 270.676 119.922C270.285 119.742 269.832 119.652 269.316 119.652C268.871 119.652 268.465 119.738 268.098 119.91C267.73 120.082 267.414 120.324 267.148 120.637C266.883 120.949 266.668 121.324 266.504 121.762C266.34 122.199 266.238 122.68 266.199 123.203H272.387Z" fill="#666666"/>
</g>
<defs>
<clipPath id="clip0_6289_6095">
<rect width="1025" height="281" fill="white"/>
</clipPath>
</defs>
</svg>
