<svg width="550" height="381" viewBox="0 0 550 381" fill="none" xmlns="http://www.w3.org/2000/svg">
<g clip-path="url(#clip0_6296_7747)">
<rect width="550" height="381" fill="white"/>
<path d="M31 351.5H30L30 352.5L31 352.5L31 351.5ZM31.7071 23.2929C31.3166 22.9024 30.6834 22.9024 30.2929 23.2929L23.9289 29.6569C23.5384 30.0474 23.5384 30.6805 23.9289 31.0711C24.3195 31.4616 24.9526 31.4616 25.3431 31.0711L31 25.4142L36.6569 31.0711C37.0474 31.4616 37.6805 31.4616 38.0711 31.0711C38.4616 30.6805 38.4616 30.0474 38.0711 29.6569L31.7071 23.2929ZM371.207 352.207C371.598 351.817 371.598 351.183 371.207 350.793L364.843 344.429C364.453 344.038 363.819 344.038 363.429 344.429C363.038 344.819 363.038 345.453 363.429 345.843L369.086 351.5L363.429 357.157C363.038 357.547 363.038 358.181 363.429 358.571C363.819 358.962 364.453 358.962 364.843 358.571L371.207 352.207ZM32 351.5L32 24L30 24L30 351.5H32ZM31 352.5L370.5 352.5L370.5 350.5L31 350.5L31 352.5Z" fill="black"/>
<path opacity="0.5" d="M11.1025 351.985C11.1025 353.06 10.9951 354.041 10.7803 354.929C10.5654 355.81 10.2396 356.569 9.80273 357.206C9.36589 357.836 8.82161 358.327 8.16992 358.678C7.52539 359.021 6.76628 359.193 5.89258 359.193C5.14062 359.193 4.45671 359.054 3.84082 358.774C3.22493 358.488 2.69857 358.051 2.26172 357.464C1.82487 356.877 1.48828 356.128 1.25195 355.219C1.01562 354.309 0.897461 353.231 0.897461 351.985C0.897461 350.911 1.00488 349.93 1.21973 349.042C1.44173 348.154 1.76758 347.395 2.19727 346.765C2.63411 346.127 3.17839 345.637 3.83008 345.293C4.48177 344.942 5.24089 344.767 6.10742 344.767C6.85938 344.767 7.54329 344.91 8.15918 345.196C8.77507 345.476 9.30143 345.912 9.73828 346.507C10.1751 347.094 10.5117 347.842 10.748 348.752C10.9844 349.661 11.1025 350.739 11.1025 351.985ZM9.21191 352.05C9.21191 351.806 9.20117 351.566 9.17969 351.33C9.16536 351.087 9.14746 350.85 9.12598 350.621L3.18555 355.036C3.29297 355.409 3.42904 355.752 3.59375 356.067C3.75846 356.382 3.9554 356.655 4.18457 356.884C4.4209 357.106 4.68587 357.281 4.97949 357.41C5.28027 357.532 5.62044 357.593 6 357.593C6.48698 357.593 6.92741 357.475 7.32129 357.238C7.72233 357.002 8.0625 356.651 8.3418 356.186C8.62109 355.72 8.83594 355.144 8.98633 354.456C9.13672 353.761 9.21191 352.959 9.21191 352.05ZM2.78809 351.921C2.78809 352.143 2.78809 352.365 2.78809 352.587C2.79525 352.809 2.80957 353.024 2.83105 353.231L8.77148 348.838C8.66406 348.473 8.52799 348.14 8.36328 347.839C8.19857 347.538 8.00163 347.28 7.77246 347.065C7.54329 346.843 7.2819 346.672 6.98828 346.55C6.69466 346.428 6.36523 346.367 6 346.367C5.51302 346.367 5.06901 346.485 4.66797 346.722C4.27409 346.958 3.9375 347.312 3.6582 347.785C3.37891 348.251 3.16406 348.831 3.01367 349.525C2.86328 350.213 2.78809 351.011 2.78809 351.921Z" fill="black"/>
<path opacity="0.5" d="M10.6621 281.5H1.84277V279.76H5.45215V269.512L2.08984 271.338L1.40234 269.748L5.87109 267.396H7.52539V279.76H10.6621V281.5Z" fill="black"/>
<path opacity="0.5" d="M10.7803 204.5H1.53125V202.824L5.16211 199.215C5.75651 198.628 6.23991 198.119 6.6123 197.689C6.9847 197.26 7.27474 196.869 7.48242 196.519C7.6901 196.16 7.82975 195.824 7.90137 195.509C7.97298 195.194 8.00879 194.854 8.00879 194.488C8.00879 194.145 7.96224 193.819 7.86914 193.511C7.77604 193.196 7.63281 192.92 7.43945 192.684C7.24609 192.447 6.99544 192.261 6.6875 192.125C6.37956 191.989 6.01074 191.921 5.58105 191.921C4.98665 191.921 4.44596 192.053 3.95898 192.318C3.47201 192.583 3.02441 192.927 2.61621 193.35L1.58496 192.114C2.11491 191.556 2.72363 191.108 3.41113 190.771C4.10579 190.435 4.91146 190.267 5.82812 190.267C6.45117 190.267 7.01693 190.36 7.52539 190.546C8.04102 190.732 8.48503 191.001 8.85742 191.352C9.22982 191.702 9.51628 192.132 9.7168 192.641C9.92448 193.149 10.0283 193.722 10.0283 194.359C10.0283 194.896 9.95671 195.394 9.81348 195.853C9.67025 196.311 9.45182 196.769 9.1582 197.228C8.87174 197.679 8.50651 198.148 8.0625 198.635C7.62565 199.122 7.10645 199.655 6.50488 200.235L3.95898 202.717H10.7803V204.5Z" fill="black"/>
<path opacity="0.5" d="M10.5117 123.235C10.5117 123.851 10.3864 124.431 10.1357 124.976C9.88509 125.513 9.50911 125.985 9.00781 126.394C8.50651 126.795 7.8763 127.113 7.11719 127.35C6.35807 127.579 5.47363 127.693 4.46387 127.693C3.90527 127.693 3.40397 127.675 2.95996 127.64C2.51595 127.604 2.10059 127.557 1.71387 127.5V125.824C2.15788 125.903 2.62695 125.964 3.12109 126.007C3.61523 126.05 4.12012 126.071 4.63574 126.071C5.33757 126.071 5.93555 126.01 6.42969 125.889C6.93099 125.76 7.33919 125.577 7.6543 125.341C7.9694 125.104 8.19857 124.818 8.3418 124.481C8.48503 124.145 8.55664 123.765 8.55664 123.343C8.55664 122.956 8.4707 122.619 8.29883 122.333C8.12695 122.047 7.88346 121.807 7.56836 121.613C7.26042 121.42 6.88802 121.277 6.45117 121.184C6.02148 121.083 5.54883 121.033 5.0332 121.033H3.43262V119.497H5.05469C5.47721 119.497 5.86035 119.443 6.2041 119.336C6.55501 119.221 6.85221 119.06 7.0957 118.853C7.34635 118.645 7.53613 118.391 7.66504 118.09C7.80111 117.782 7.86914 117.435 7.86914 117.048C7.86914 116.296 7.63997 115.748 7.18164 115.404C6.72331 115.061 6.05013 114.889 5.16211 114.889C4.68945 114.889 4.20247 114.935 3.70117 115.028C3.19987 115.121 2.66276 115.261 2.08984 115.447V113.814C2.33333 113.729 2.59115 113.653 2.86328 113.589C3.14258 113.517 3.41829 113.46 3.69043 113.417C3.96973 113.367 4.24544 113.331 4.51758 113.31C4.78971 113.281 5.05111 113.267 5.30176 113.267C6.04655 113.267 6.70182 113.349 7.26758 113.514C7.83333 113.671 8.30599 113.9 8.68555 114.201C9.0651 114.502 9.35156 114.867 9.54492 115.297C9.73828 115.727 9.83496 116.21 9.83496 116.747C9.83496 117.549 9.62728 118.222 9.21191 118.767C8.80371 119.311 8.24154 119.744 7.52539 120.066C7.89062 120.124 8.2487 120.238 8.59961 120.41C8.95768 120.582 9.27637 120.804 9.55566 121.076C9.84212 121.341 10.0713 121.656 10.2432 122.021C10.4222 122.387 10.5117 122.791 10.5117 123.235Z" fill="black"/>
<path opacity="0.5" d="M10.5117 123.235C10.5117 123.851 10.3864 124.431 10.1357 124.976C9.88509 125.513 9.50911 125.985 9.00781 126.394C8.50651 126.795 7.8763 127.113 7.11719 127.35C6.35807 127.579 5.47363 127.693 4.46387 127.693C3.90527 127.693 3.40397 127.675 2.95996 127.64C2.51595 127.604 2.10059 127.557 1.71387 127.5V125.824C2.15788 125.903 2.62695 125.964 3.12109 126.007C3.61523 126.05 4.12012 126.071 4.63574 126.071C5.33757 126.071 5.93555 126.01 6.42969 125.889C6.93099 125.76 7.33919 125.577 7.6543 125.341C7.9694 125.104 8.19857 124.818 8.3418 124.481C8.48503 124.145 8.55664 123.765 8.55664 123.343C8.55664 122.956 8.4707 122.619 8.29883 122.333C8.12695 122.047 7.88346 121.807 7.56836 121.613C7.26042 121.42 6.88802 121.277 6.45117 121.184C6.02148 121.083 5.54883 121.033 5.0332 121.033H3.43262V119.497H5.05469C5.47721 119.497 5.86035 119.443 6.2041 119.336C6.55501 119.221 6.85221 119.06 7.0957 118.853C7.34635 118.645 7.53613 118.391 7.66504 118.09C7.80111 117.782 7.86914 117.435 7.86914 117.048C7.86914 116.296 7.63997 115.748 7.18164 115.404C6.72331 115.061 6.05013 114.889 5.16211 114.889C4.68945 114.889 4.20247 114.935 3.70117 115.028C3.19987 115.121 2.66276 115.261 2.08984 115.447V113.814C2.33333 113.729 2.59115 113.653 2.86328 113.589C3.14258 113.517 3.41829 113.46 3.69043 113.417C3.96973 113.367 4.24544 113.331 4.51758 113.31C4.78971 113.281 5.05111 113.267 5.30176 113.267C6.04655 113.267 6.70182 113.349 7.26758 113.514C7.83333 113.671 8.30599 113.9 8.68555 114.201C9.0651 114.502 9.35156 114.867 9.54492 115.297C9.73828 115.727 9.83496 116.21 9.83496 116.747C9.83496 117.549 9.62728 118.222 9.21191 118.767C8.80371 119.311 8.24154 119.744 7.52539 120.066C7.89062 120.124 8.2487 120.238 8.59961 120.41C8.95768 120.582 9.27637 120.804 9.55566 121.076C9.84212 121.341 10.0713 121.656 10.2432 122.021C10.4222 122.387 10.5117 122.791 10.5117 123.235Z" fill="black"/>
<circle cx="105.5" cy="273.5" r="4.5" fill="black"/>
<circle cx="105.5" cy="122.5" r="4.5" fill="black"/>
<circle cx="183.5" cy="197.5" r="4.5" fill="black"/>
<circle cx="261.5" cy="273.5" r="4.5" fill="black"/>
<circle cx="260.5" cy="122.5" r="4.5" fill="black"/>
<circle cx="338.5" cy="44.5" r="4.5" fill="black"/>
<path opacity="0.6" d="M105.5 273.5L339 44.5" stroke="black" stroke-width="3"/>
<path opacity="0.09" d="M105.5 273.5L339 44.5" stroke="#FF5500" stroke-width="27" stroke-linecap="round"/>
<path opacity="0.5" d="M11.4785 46.8955H9.08301V50H7.1709V46.8955H0.414062V45.252L6.39746 35.96H9.08301V45.252H11.4785V46.8955ZM7.1709 37.7646L2.2832 45.252H7.1709V37.7646Z" fill="black"/>
<path opacity="0.5" d="M33.6025 372.485C33.6025 373.56 33.4951 374.541 33.2803 375.429C33.0654 376.31 32.7396 377.069 32.3027 377.706C31.8659 378.336 31.3216 378.827 30.6699 379.178C30.0254 379.521 29.2663 379.693 28.3926 379.693C27.6406 379.693 26.9567 379.554 26.3408 379.274C25.7249 378.988 25.1986 378.551 24.7617 377.964C24.3249 377.377 23.9883 376.628 23.752 375.719C23.5156 374.809 23.3975 373.731 23.3975 372.485C23.3975 371.411 23.5049 370.43 23.7197 369.542C23.9417 368.654 24.2676 367.895 24.6973 367.265C25.1341 366.627 25.6784 366.137 26.3301 365.793C26.9818 365.442 27.7409 365.267 28.6074 365.267C29.3594 365.267 30.0433 365.41 30.6592 365.696C31.2751 365.976 31.8014 366.412 32.2383 367.007C32.6751 367.594 33.0117 368.342 33.248 369.252C33.4844 370.161 33.6025 371.239 33.6025 372.485ZM31.7119 372.55C31.7119 372.306 31.7012 372.066 31.6797 371.83C31.6654 371.587 31.6475 371.35 31.626 371.121L25.6855 375.536C25.793 375.909 25.929 376.252 26.0938 376.567C26.2585 376.882 26.4554 377.155 26.6846 377.384C26.9209 377.606 27.1859 377.781 27.4795 377.91C27.7803 378.032 28.1204 378.093 28.5 378.093C28.987 378.093 29.4274 377.975 29.8213 377.738C30.2223 377.502 30.5625 377.151 30.8418 376.686C31.1211 376.22 31.3359 375.644 31.4863 374.956C31.6367 374.261 31.7119 373.459 31.7119 372.55ZM25.2881 372.421C25.2881 372.643 25.2881 372.865 25.2881 373.087C25.2952 373.309 25.3096 373.524 25.3311 373.731L31.2715 369.338C31.1641 368.973 31.028 368.64 30.8633 368.339C30.6986 368.038 30.5016 367.78 30.2725 367.565C30.0433 367.343 29.7819 367.172 29.4883 367.05C29.1947 366.928 28.8652 366.867 28.5 366.867C28.013 366.867 27.569 366.985 27.168 367.222C26.7741 367.458 26.4375 367.812 26.1582 368.285C25.8789 368.751 25.6641 369.331 25.5137 370.025C25.3633 370.713 25.2881 371.511 25.2881 372.421Z" fill="black"/>
<path opacity="0.5" d="M110.662 379.5H101.843V377.76H105.452V367.512L102.09 369.338L101.402 367.748L105.871 365.396H107.525V377.76H110.662V379.5Z" fill="black"/>
<path opacity="0.5" d="M188.78 380.5H179.531V378.824L183.162 375.215C183.757 374.628 184.24 374.119 184.612 373.689C184.985 373.26 185.275 372.869 185.482 372.519C185.69 372.16 185.83 371.824 185.901 371.509C185.973 371.194 186.009 370.854 186.009 370.488C186.009 370.145 185.962 369.819 185.869 369.511C185.776 369.196 185.633 368.92 185.439 368.684C185.246 368.447 184.995 368.261 184.688 368.125C184.38 367.989 184.011 367.921 183.581 367.921C182.987 367.921 182.446 368.053 181.959 368.318C181.472 368.583 181.024 368.927 180.616 369.35L179.585 368.114C180.115 367.556 180.724 367.108 181.411 366.771C182.106 366.435 182.911 366.267 183.828 366.267C184.451 366.267 185.017 366.36 185.525 366.546C186.041 366.732 186.485 367.001 186.857 367.352C187.23 367.702 187.516 368.132 187.717 368.641C187.924 369.149 188.028 369.722 188.028 370.359C188.028 370.896 187.957 371.394 187.813 371.853C187.67 372.311 187.452 372.769 187.158 373.228C186.872 373.679 186.507 374.148 186.062 374.635C185.626 375.122 185.106 375.655 184.505 376.235L181.959 378.717H188.78V380.5Z" fill="black"/>
<path opacity="0.5" d="M266.512 376.235C266.512 376.851 266.386 377.431 266.136 377.976C265.885 378.513 265.509 378.985 265.008 379.394C264.507 379.795 263.876 380.113 263.117 380.35C262.358 380.579 261.474 380.693 260.464 380.693C259.905 380.693 259.404 380.675 258.96 380.64C258.516 380.604 258.101 380.557 257.714 380.5V378.824C258.158 378.903 258.627 378.964 259.121 379.007C259.615 379.05 260.12 379.071 260.636 379.071C261.338 379.071 261.936 379.01 262.43 378.889C262.931 378.76 263.339 378.577 263.654 378.341C263.969 378.104 264.199 377.818 264.342 377.481C264.485 377.145 264.557 376.765 264.557 376.343C264.557 375.956 264.471 375.619 264.299 375.333C264.127 375.047 263.883 374.807 263.568 374.613C263.26 374.42 262.888 374.277 262.451 374.184C262.021 374.083 261.549 374.033 261.033 374.033H259.433V372.497H261.055C261.477 372.497 261.86 372.443 262.204 372.336C262.555 372.221 262.852 372.06 263.096 371.853C263.346 371.645 263.536 371.391 263.665 371.09C263.801 370.782 263.869 370.435 263.869 370.048C263.869 369.296 263.64 368.748 263.182 368.404C262.723 368.061 262.05 367.889 261.162 367.889C260.689 367.889 260.202 367.935 259.701 368.028C259.2 368.121 258.663 368.261 258.09 368.447V366.814C258.333 366.729 258.591 366.653 258.863 366.589C259.143 366.517 259.418 366.46 259.69 366.417C259.97 366.367 260.245 366.331 260.518 366.31C260.79 366.281 261.051 366.267 261.302 366.267C262.047 366.267 262.702 366.349 263.268 366.514C263.833 366.671 264.306 366.9 264.686 367.201C265.065 367.502 265.352 367.867 265.545 368.297C265.738 368.727 265.835 369.21 265.835 369.747C265.835 370.549 265.627 371.222 265.212 371.767C264.804 372.311 264.242 372.744 263.525 373.066C263.891 373.124 264.249 373.238 264.6 373.41C264.958 373.582 265.276 373.804 265.556 374.076C265.842 374.341 266.071 374.656 266.243 375.021C266.422 375.387 266.512 375.791 266.512 376.235Z" fill="black"/>
<path opacity="0.5" d="M343.979 377.396H341.583V380.5H339.671V377.396H332.914V375.752L338.897 366.46H341.583V375.752H343.979V377.396ZM339.671 368.265L334.783 375.752H339.671V368.265Z" fill="black"/>
<path opacity="0.6" d="M391.393 357H388.911L386 352.886L383.121 357H380.704L384.883 351.586L380.897 346.215H383.293L386.129 350.361L388.911 346.215H391.221L387.171 351.629L391.393 357Z" fill="black"/>
<path opacity="0.6" d="M36.2637 0.214844L32.5898 9.86133C32.2103 10.8424 31.8164 11.6875 31.4082 12.3965C31.0072 13.1055 30.5667 13.6855 30.0869 14.1367C29.6071 14.5951 29.0807 14.9316 28.5078 15.1465C27.9349 15.3613 27.2939 15.4688 26.585 15.4688C26.3988 15.4688 26.2305 15.4652 26.0801 15.458C25.9297 15.4508 25.765 15.4401 25.5859 15.4258V13.7285C25.7435 13.75 25.9154 13.7679 26.1016 13.7822C26.2878 13.8037 26.4847 13.8145 26.6924 13.8145C27.0361 13.8145 27.3548 13.7643 27.6484 13.6641C27.9492 13.5638 28.2321 13.3991 28.4971 13.1699C28.762 12.9479 29.0163 12.6579 29.2598 12.2998C29.5033 11.9417 29.7396 11.5085 29.9688 11L25.6611 0.214844H27.7881L30.5166 7.34766L31.0645 9.02344L31.6875 7.30469L34.2119 0.214844H36.2637Z" fill="black"/>
<path d="M288.22 203L288.169 201.286C287.475 201.972 286.768 202.467 286.049 202.771C285.338 203.076 284.589 203.229 283.802 203.229C283.074 203.229 282.452 203.135 281.936 202.949C281.419 202.763 280.992 202.509 280.653 202.188C280.323 201.857 280.078 201.472 279.917 201.032C279.765 200.592 279.688 200.114 279.688 199.598C279.688 198.32 280.162 197.321 281.11 196.602C282.067 195.874 283.476 195.51 285.338 195.51H287.979V194.393C287.979 193.639 287.737 193.038 287.255 192.59C286.772 192.133 286.036 191.904 285.046 191.904C284.326 191.904 283.616 191.985 282.913 192.146C282.219 192.306 281.5 192.535 280.755 192.831V190.838C281.034 190.736 281.343 190.639 281.682 190.546C282.029 190.444 282.393 190.355 282.773 190.279C283.154 190.203 283.552 190.144 283.967 190.102C284.382 190.051 284.8 190.025 285.224 190.025C285.994 190.025 286.688 190.11 287.306 190.279C287.924 190.449 288.444 190.707 288.867 191.054C289.299 191.401 289.629 191.837 289.857 192.361C290.086 192.886 290.2 193.504 290.2 194.215V203H288.22ZM287.979 197.198H285.173C284.623 197.198 284.149 197.253 283.751 197.363C283.353 197.473 283.027 197.63 282.773 197.833C282.52 198.036 282.329 198.282 282.202 198.569C282.084 198.849 282.024 199.166 282.024 199.521C282.024 199.767 282.062 200.004 282.139 200.232C282.215 200.452 282.338 200.651 282.507 200.829C282.676 200.998 282.896 201.134 283.167 201.235C283.438 201.337 283.768 201.388 284.157 201.388C284.665 201.388 285.245 201.235 285.896 200.931C286.557 200.618 287.251 200.127 287.979 199.458V197.198ZM298.668 186.877H294.897V185.062H300.902V201.159H304.698V203H294.479V201.159H298.668V186.877ZM312.963 186.877H309.192V185.062H315.197V201.159H318.993V203H308.773V201.159H312.963V186.877ZM348.104 196.398C348.104 197.533 347.943 198.523 347.621 199.369C347.308 200.215 346.872 200.918 346.313 201.477C345.755 202.035 345.095 202.454 344.333 202.733C343.571 203.013 342.746 203.152 341.857 203.152C341.451 203.152 341.045 203.131 340.639 203.089C340.241 203.047 339.835 202.975 339.42 202.873V208.205H337.211V190.254H339.179L339.318 192.387C339.953 191.515 340.63 190.906 341.35 190.559C342.069 190.203 342.848 190.025 343.686 190.025C344.413 190.025 345.052 190.178 345.603 190.482C346.153 190.787 346.614 191.219 346.986 191.777C347.359 192.327 347.638 192.996 347.824 193.783C348.01 194.562 348.104 195.434 348.104 196.398ZM345.844 196.5C345.844 195.831 345.793 195.218 345.691 194.659C345.598 194.101 345.446 193.622 345.234 193.225C345.023 192.827 344.752 192.518 344.422 192.298C344.092 192.069 343.698 191.955 343.241 191.955C342.962 191.955 342.678 192.002 342.391 192.095C342.103 192.179 341.802 192.327 341.489 192.539C341.185 192.742 340.859 193.017 340.512 193.364C340.173 193.703 339.809 194.126 339.42 194.634V200.816C339.826 200.986 340.254 201.121 340.702 201.223C341.151 201.316 341.591 201.362 342.022 201.362C343.216 201.362 344.151 200.96 344.828 200.156C345.505 199.344 345.844 198.125 345.844 196.5ZM359.694 203L359.644 201.286C358.95 201.972 358.243 202.467 357.523 202.771C356.812 203.076 356.063 203.229 355.276 203.229C354.549 203.229 353.926 203.135 353.41 202.949C352.894 202.763 352.466 202.509 352.128 202.188C351.798 201.857 351.552 201.472 351.392 201.032C351.239 200.592 351.163 200.114 351.163 199.598C351.163 198.32 351.637 197.321 352.585 196.602C353.541 195.874 354.951 195.51 356.812 195.51H359.453V194.393C359.453 193.639 359.212 193.038 358.729 192.59C358.247 192.133 357.511 191.904 356.521 191.904C355.801 191.904 355.09 191.985 354.388 192.146C353.694 192.306 352.974 192.535 352.229 192.831V190.838C352.509 190.736 352.818 190.639 353.156 190.546C353.503 190.444 353.867 190.355 354.248 190.279C354.629 190.203 355.027 190.144 355.441 190.102C355.856 190.051 356.275 190.025 356.698 190.025C357.468 190.025 358.162 190.11 358.78 190.279C359.398 190.449 359.919 190.707 360.342 191.054C360.773 191.401 361.104 191.837 361.332 192.361C361.561 192.886 361.675 193.504 361.675 194.215V203H359.694ZM359.453 197.198H356.647C356.097 197.198 355.623 197.253 355.226 197.363C354.828 197.473 354.502 197.63 354.248 197.833C353.994 198.036 353.804 198.282 353.677 198.569C353.558 198.849 353.499 199.166 353.499 199.521C353.499 199.767 353.537 200.004 353.613 200.232C353.689 200.452 353.812 200.651 353.981 200.829C354.151 200.998 354.371 201.134 354.642 201.235C354.912 201.337 355.243 201.388 355.632 201.388C356.14 201.388 356.719 201.235 357.371 200.931C358.031 200.618 358.725 200.127 359.453 199.458V197.198ZM370.143 192.082H366.372V190.254H372.377V201.159H376.173V203H365.953V201.159H370.143V192.082ZM370.917 184.909C371.162 184.909 371.391 184.956 371.603 185.049C371.814 185.133 371.996 185.256 372.148 185.417C372.309 185.578 372.432 185.764 372.517 185.976C372.61 186.179 372.656 186.403 372.656 186.648C372.656 186.885 372.61 187.11 372.517 187.321C372.432 187.533 372.309 187.719 372.148 187.88C371.996 188.041 371.814 188.168 371.603 188.261C371.391 188.345 371.162 188.388 370.917 188.388C370.672 188.388 370.443 188.345 370.231 188.261C370.02 188.168 369.834 188.041 369.673 187.88C369.521 187.719 369.398 187.533 369.305 187.321C369.22 187.11 369.178 186.885 369.178 186.648C369.178 186.403 369.22 186.179 369.305 185.976C369.398 185.764 369.521 185.578 369.673 185.417C369.834 185.256 370.02 185.133 370.231 185.049C370.443 184.956 370.672 184.909 370.917 184.909ZM380.616 190.254H382.635L382.698 192.603C383.451 191.697 384.192 191.041 384.92 190.635C385.656 190.229 386.397 190.025 387.142 190.025C388.462 190.025 389.461 190.453 390.138 191.308C390.823 192.162 391.141 193.432 391.09 195.116H388.855C388.881 193.999 388.716 193.191 388.36 192.691C388.013 192.184 387.501 191.93 386.824 191.93C386.528 191.93 386.228 191.985 385.923 192.095C385.627 192.196 385.318 192.366 384.996 192.603C384.683 192.831 384.349 193.127 383.993 193.491C383.638 193.855 383.257 194.295 382.851 194.812V203H380.616V190.254ZM404.483 199.521C404.483 199.97 404.407 200.372 404.255 200.728C404.103 201.083 403.895 201.4 403.633 201.68C403.37 201.951 403.066 202.183 402.719 202.378C402.372 202.573 401.999 202.733 401.602 202.86C401.212 202.987 400.81 203.08 400.396 203.14C399.981 203.199 399.575 203.229 399.177 203.229C398.313 203.229 397.518 203.19 396.79 203.114C396.071 203.038 395.364 202.915 394.67 202.746V200.715C395.415 200.926 396.155 201.087 396.892 201.197C397.628 201.307 398.36 201.362 399.088 201.362C400.146 201.362 400.929 201.218 401.437 200.931C401.944 200.643 402.198 200.232 402.198 199.699C402.198 199.471 402.156 199.268 402.071 199.09C401.995 198.904 401.851 198.73 401.64 198.569C401.428 198.4 401.098 198.227 400.649 198.049C400.209 197.871 399.604 197.668 398.834 197.439C398.258 197.27 397.725 197.08 397.234 196.868C396.752 196.648 396.333 196.39 395.978 196.094C395.622 195.798 395.343 195.451 395.14 195.053C394.937 194.655 394.835 194.185 394.835 193.644C394.835 193.288 394.915 192.899 395.076 192.476C395.245 192.052 395.529 191.659 395.927 191.295C396.325 190.931 396.862 190.631 397.539 190.394C398.216 190.148 399.062 190.025 400.078 190.025C400.577 190.025 401.132 190.055 401.741 190.114C402.351 190.165 402.985 190.258 403.646 190.394V192.361C402.951 192.192 402.291 192.069 401.665 191.993C401.047 191.909 400.51 191.866 400.053 191.866C399.503 191.866 399.037 191.909 398.656 191.993C398.284 192.078 397.979 192.196 397.742 192.349C397.514 192.493 397.349 192.666 397.247 192.869C397.146 193.064 397.095 193.275 397.095 193.504C397.095 193.732 397.137 193.94 397.222 194.126C397.315 194.312 397.48 194.494 397.717 194.672C397.962 194.841 398.301 195.015 398.732 195.192C399.164 195.362 399.727 195.548 400.421 195.751C401.174 195.971 401.809 196.204 402.325 196.449C402.841 196.686 403.26 196.953 403.582 197.249C403.904 197.545 404.132 197.88 404.268 198.252C404.411 198.624 404.483 199.048 404.483 199.521ZM434.076 196.525C434.076 197.516 433.937 198.425 433.657 199.255C433.378 200.076 432.976 200.783 432.451 201.375C431.926 201.959 431.287 202.416 430.534 202.746C429.781 203.068 428.926 203.229 427.97 203.229C427.056 203.229 426.235 203.089 425.507 202.81C424.787 202.522 424.174 202.103 423.666 201.553C423.167 201.003 422.782 200.321 422.511 199.509C422.248 198.696 422.117 197.761 422.117 196.703C422.117 195.713 422.257 194.812 422.536 193.999C422.815 193.178 423.217 192.476 423.742 191.892C424.267 191.299 424.906 190.842 425.659 190.521C426.412 190.19 427.267 190.025 428.224 190.025C429.138 190.025 429.954 190.169 430.674 190.457C431.402 190.736 432.015 191.151 432.515 191.701C433.022 192.243 433.408 192.92 433.67 193.732C433.941 194.545 434.076 195.476 434.076 196.525ZM431.816 196.627C431.816 195.84 431.728 195.154 431.55 194.57C431.381 193.978 431.135 193.487 430.813 193.098C430.492 192.7 430.098 192.404 429.633 192.209C429.176 192.006 428.664 191.904 428.097 191.904C427.437 191.904 426.869 192.035 426.396 192.298C425.93 192.552 425.545 192.895 425.24 193.326C424.944 193.758 424.724 194.261 424.58 194.837C424.445 195.404 424.377 196.001 424.377 196.627C424.377 197.414 424.462 198.104 424.631 198.696C424.809 199.289 425.058 199.784 425.38 200.182C425.701 200.571 426.091 200.867 426.548 201.07C427.005 201.265 427.521 201.362 428.097 201.362C428.757 201.362 429.32 201.235 429.785 200.981C430.259 200.719 430.644 200.372 430.94 199.94C431.245 199.509 431.465 199.009 431.601 198.442C431.744 197.867 431.816 197.262 431.816 196.627ZM448.587 187.118C447.427 186.873 446.429 186.75 445.591 186.75C443.602 186.75 442.607 187.791 442.607 189.873V192.107H448.193V193.948H442.607V203H440.36V193.948H436.26V192.107H440.36V190C440.36 186.606 442.129 184.909 445.667 184.909C446.547 184.909 447.521 185.011 448.587 185.214V187.118ZM476.758 196.398C476.758 197.533 476.597 198.523 476.275 199.369C475.962 200.215 475.526 200.918 474.968 201.477C474.409 202.035 473.749 202.454 472.987 202.733C472.226 203.013 471.4 203.152 470.512 203.152C470.105 203.152 469.699 203.131 469.293 203.089C468.895 203.047 468.489 202.975 468.074 202.873V208.205H465.865V190.254H467.833L467.973 192.387C468.607 191.515 469.285 190.906 470.004 190.559C470.723 190.203 471.502 190.025 472.34 190.025C473.068 190.025 473.707 190.178 474.257 190.482C474.807 190.787 475.268 191.219 475.641 191.777C476.013 192.327 476.292 192.996 476.479 193.783C476.665 194.562 476.758 195.434 476.758 196.398ZM474.498 196.5C474.498 195.831 474.447 195.218 474.346 194.659C474.253 194.101 474.1 193.622 473.889 193.225C473.677 192.827 473.406 192.518 473.076 192.298C472.746 192.069 472.353 191.955 471.896 191.955C471.616 191.955 471.333 192.002 471.045 192.095C470.757 192.179 470.457 192.327 470.144 192.539C469.839 192.742 469.513 193.017 469.166 193.364C468.827 193.703 468.464 194.126 468.074 194.634V200.816C468.48 200.986 468.908 201.121 469.356 201.223C469.805 201.316 470.245 201.362 470.677 201.362C471.87 201.362 472.805 200.96 473.482 200.156C474.16 199.344 474.498 198.125 474.498 196.5ZM491.256 196.525C491.256 197.516 491.116 198.425 490.837 199.255C490.558 200.076 490.156 200.783 489.631 201.375C489.106 201.959 488.467 202.416 487.714 202.746C486.961 203.068 486.106 203.229 485.149 203.229C484.235 203.229 483.414 203.089 482.687 202.81C481.967 202.522 481.354 202.103 480.846 201.553C480.346 201.003 479.961 200.321 479.69 199.509C479.428 198.696 479.297 197.761 479.297 196.703C479.297 195.713 479.437 194.812 479.716 193.999C479.995 193.178 480.397 192.476 480.922 191.892C481.447 191.299 482.086 190.842 482.839 190.521C483.592 190.19 484.447 190.025 485.403 190.025C486.317 190.025 487.134 190.169 487.854 190.457C488.581 190.736 489.195 191.151 489.694 191.701C490.202 192.243 490.587 192.92 490.85 193.732C491.12 194.545 491.256 195.476 491.256 196.525ZM488.996 196.627C488.996 195.84 488.907 195.154 488.729 194.57C488.56 193.978 488.315 193.487 487.993 193.098C487.672 192.7 487.278 192.404 486.812 192.209C486.355 192.006 485.843 191.904 485.276 191.904C484.616 191.904 484.049 192.035 483.575 192.298C483.11 192.552 482.725 192.895 482.42 193.326C482.124 193.758 481.904 194.261 481.76 194.837C481.624 195.404 481.557 196.001 481.557 196.627C481.557 197.414 481.641 198.104 481.811 198.696C481.988 199.289 482.238 199.784 482.56 200.182C482.881 200.571 483.271 200.867 483.728 201.07C484.185 201.265 484.701 201.362 485.276 201.362C485.937 201.362 486.499 201.235 486.965 200.981C487.439 200.719 487.824 200.372 488.12 199.94C488.425 199.509 488.645 199.009 488.78 198.442C488.924 197.867 488.996 197.262 488.996 196.627ZM498.797 192.082H495.026V190.254H501.031V201.159H504.827V203H494.607V201.159H498.797V192.082ZM499.571 184.909C499.817 184.909 500.045 184.956 500.257 185.049C500.468 185.133 500.65 185.256 500.803 185.417C500.964 185.578 501.086 185.764 501.171 185.976C501.264 186.179 501.311 186.403 501.311 186.648C501.311 186.885 501.264 187.11 501.171 187.321C501.086 187.533 500.964 187.719 500.803 187.88C500.65 188.041 500.468 188.168 500.257 188.261C500.045 188.345 499.817 188.388 499.571 188.388C499.326 188.388 499.097 188.345 498.886 188.261C498.674 188.168 498.488 188.041 498.327 187.88C498.175 187.719 498.052 187.533 497.959 187.321C497.874 187.11 497.832 186.885 497.832 186.648C497.832 186.403 497.874 186.179 497.959 185.976C498.052 185.764 498.175 185.578 498.327 185.417C498.488 185.256 498.674 185.133 498.886 185.049C499.097 184.956 499.326 184.909 499.571 184.909ZM508.75 190.254H510.718L510.807 192.311C511.179 191.87 511.539 191.507 511.886 191.219C512.233 190.923 512.571 190.686 512.901 190.508C513.24 190.33 513.583 190.207 513.93 190.14C514.277 190.063 514.636 190.025 515.009 190.025C516.321 190.025 517.311 190.415 517.979 191.193C518.657 191.964 518.995 193.127 518.995 194.685V203H516.786V194.862C516.786 193.864 516.6 193.127 516.228 192.653C515.855 192.171 515.301 191.93 514.564 191.93C514.294 191.93 514.027 191.972 513.765 192.057C513.511 192.133 513.244 192.272 512.965 192.476C512.686 192.67 512.381 192.937 512.051 193.275C511.729 193.614 511.365 194.037 510.959 194.545V203H508.75V190.254ZM533.315 202.822C532.816 202.949 532.3 203.038 531.767 203.089C531.233 203.148 530.692 203.178 530.142 203.178C528.542 203.178 527.349 202.818 526.562 202.099C525.774 201.371 525.381 200.258 525.381 198.76V192.107H521.813V190.254H525.381V186.75L527.59 186.179V190.254H533.315V192.107H527.59V198.582C527.59 199.496 527.831 200.182 528.313 200.639C528.804 201.087 529.524 201.312 530.472 201.312C530.878 201.312 531.322 201.282 531.805 201.223C532.287 201.155 532.791 201.053 533.315 200.918V202.822ZM547.433 199.521C547.433 199.97 547.356 200.372 547.204 200.728C547.052 201.083 546.844 201.4 546.582 201.68C546.32 201.951 546.015 202.183 545.668 202.378C545.321 202.573 544.949 202.733 544.551 202.86C544.161 202.987 543.759 203.08 543.345 203.14C542.93 203.199 542.524 203.229 542.126 203.229C541.263 203.229 540.467 203.19 539.739 203.114C539.02 203.038 538.313 202.915 537.619 202.746V200.715C538.364 200.926 539.104 201.087 539.841 201.197C540.577 201.307 541.309 201.362 542.037 201.362C543.095 201.362 543.878 201.218 544.386 200.931C544.894 200.643 545.147 200.232 545.147 199.699C545.147 199.471 545.105 199.268 545.021 199.09C544.944 198.904 544.8 198.73 544.589 198.569C544.377 198.4 544.047 198.227 543.599 198.049C543.159 197.871 542.553 197.668 541.783 197.439C541.208 197.27 540.674 197.08 540.184 196.868C539.701 196.648 539.282 196.39 538.927 196.094C538.571 195.798 538.292 195.451 538.089 195.053C537.886 194.655 537.784 194.185 537.784 193.644C537.784 193.288 537.865 192.899 538.025 192.476C538.195 192.052 538.478 191.659 538.876 191.295C539.274 190.931 539.811 190.631 540.488 190.394C541.165 190.148 542.012 190.025 543.027 190.025C543.527 190.025 544.081 190.055 544.69 190.114C545.3 190.165 545.935 190.258 546.595 190.394V192.361C545.901 192.192 545.241 192.069 544.614 191.993C543.996 191.909 543.459 191.866 543.002 191.866C542.452 191.866 541.986 191.909 541.605 191.993C541.233 192.078 540.928 192.196 540.691 192.349C540.463 192.493 540.298 192.666 540.196 192.869C540.095 193.064 540.044 193.275 540.044 193.504C540.044 193.732 540.086 193.94 540.171 194.126C540.264 194.312 540.429 194.494 540.666 194.672C540.911 194.841 541.25 195.015 541.682 195.192C542.113 195.362 542.676 195.548 543.37 195.751C544.123 195.971 544.758 196.204 545.274 196.449C545.791 196.686 546.21 196.953 546.531 197.249C546.853 197.545 547.081 197.88 547.217 198.252C547.361 198.624 547.433 199.048 547.433 199.521ZM290.276 229H288.067V220.862C288.067 219.881 287.881 219.148 287.509 218.666C287.145 218.175 286.62 217.93 285.935 217.93C285.638 217.93 285.359 217.972 285.097 218.057C284.843 218.133 284.576 218.272 284.297 218.476C284.018 218.67 283.713 218.937 283.383 219.275C283.053 219.614 282.672 220.037 282.24 220.545V229H280.031V211.062H282.24V216.254L282.164 218.26C282.511 217.845 282.85 217.498 283.18 217.219C283.518 216.931 283.853 216.698 284.183 216.521C284.521 216.343 284.864 216.216 285.211 216.14C285.558 216.063 285.918 216.025 286.29 216.025C287.56 216.025 288.541 216.415 289.235 217.193C289.929 217.964 290.276 219.127 290.276 220.685V229ZM302.515 229L302.464 227.286C301.77 227.972 301.063 228.467 300.344 228.771C299.633 229.076 298.884 229.229 298.097 229.229C297.369 229.229 296.747 229.135 296.23 228.949C295.714 228.763 295.287 228.509 294.948 228.188C294.618 227.857 294.373 227.472 294.212 227.032C294.06 226.592 293.983 226.114 293.983 225.598C293.983 224.32 294.457 223.321 295.405 222.602C296.362 221.874 297.771 221.51 299.633 221.51H302.273V220.393C302.273 219.639 302.032 219.038 301.55 218.59C301.067 218.133 300.331 217.904 299.341 217.904C298.621 217.904 297.91 217.985 297.208 218.146C296.514 218.306 295.795 218.535 295.05 218.831V216.838C295.329 216.736 295.638 216.639 295.977 216.546C296.324 216.444 296.688 216.355 297.068 216.279C297.449 216.203 297.847 216.144 298.262 216.102C298.676 216.051 299.095 216.025 299.519 216.025C300.289 216.025 300.983 216.11 301.601 216.279C302.218 216.449 302.739 216.707 303.162 217.054C303.594 217.401 303.924 217.837 304.152 218.361C304.381 218.886 304.495 219.504 304.495 220.215V229H302.515ZM302.273 223.198H299.468C298.918 223.198 298.444 223.253 298.046 223.363C297.648 223.473 297.322 223.63 297.068 223.833C296.814 224.036 296.624 224.282 296.497 224.569C296.379 224.849 296.319 225.166 296.319 225.521C296.319 225.767 296.357 226.004 296.434 226.232C296.51 226.452 296.632 226.651 296.802 226.829C296.971 226.998 297.191 227.134 297.462 227.235C297.733 227.337 298.063 227.388 298.452 227.388C298.96 227.388 299.54 227.235 300.191 226.931C300.852 226.618 301.546 226.127 302.273 225.458V223.198ZM307.428 216.254H309.941L313.064 224.684L313.737 226.74L314.436 224.633L317.533 216.254H319.958L314.956 229H312.417L307.428 216.254ZM333.682 221.954C333.682 222.267 333.677 222.53 333.669 222.741C333.66 222.953 333.648 223.152 333.631 223.338H324.681C324.681 224.641 325.045 225.644 325.772 226.347C326.5 227.041 327.55 227.388 328.921 227.388C329.293 227.388 329.666 227.375 330.038 227.35C330.41 227.316 330.77 227.273 331.117 227.223C331.464 227.172 331.794 227.117 332.107 227.058C332.429 226.99 332.725 226.918 332.996 226.842V228.657C332.395 228.826 331.714 228.962 330.952 229.063C330.199 229.174 329.416 229.229 328.604 229.229C327.512 229.229 326.572 229.08 325.785 228.784C324.998 228.488 324.351 228.061 323.843 227.502C323.343 226.935 322.971 226.245 322.726 225.433C322.489 224.612 322.37 223.685 322.37 222.652C322.37 221.755 322.497 220.909 322.751 220.113C323.013 219.309 323.39 218.607 323.881 218.006C324.38 217.396 324.99 216.914 325.709 216.559C326.428 216.203 327.245 216.025 328.159 216.025C329.048 216.025 329.835 216.165 330.521 216.444C331.206 216.724 331.782 217.121 332.247 217.638C332.721 218.146 333.076 218.768 333.313 219.504C333.559 220.232 333.682 221.049 333.682 221.954ZM331.384 221.637C331.409 221.07 331.354 220.553 331.219 220.088C331.083 219.614 330.872 219.208 330.584 218.869C330.305 218.531 329.953 218.268 329.53 218.082C329.107 217.887 328.616 217.79 328.058 217.79C327.575 217.79 327.135 217.883 326.737 218.069C326.34 218.256 325.997 218.518 325.709 218.856C325.421 219.195 325.188 219.601 325.011 220.075C324.833 220.549 324.723 221.07 324.681 221.637H331.384ZM359.694 229L359.644 227.286C358.95 227.972 358.243 228.467 357.523 228.771C356.812 229.076 356.063 229.229 355.276 229.229C354.549 229.229 353.926 229.135 353.41 228.949C352.894 228.763 352.466 228.509 352.128 228.188C351.798 227.857 351.552 227.472 351.392 227.032C351.239 226.592 351.163 226.114 351.163 225.598C351.163 224.32 351.637 223.321 352.585 222.602C353.541 221.874 354.951 221.51 356.812 221.51H359.453V220.393C359.453 219.639 359.212 219.038 358.729 218.59C358.247 218.133 357.511 217.904 356.521 217.904C355.801 217.904 355.09 217.985 354.388 218.146C353.694 218.306 352.974 218.535 352.229 218.831V216.838C352.509 216.736 352.818 216.639 353.156 216.546C353.503 216.444 353.867 216.355 354.248 216.279C354.629 216.203 355.027 216.144 355.441 216.102C355.856 216.051 356.275 216.025 356.698 216.025C357.468 216.025 358.162 216.11 358.78 216.279C359.398 216.449 359.919 216.707 360.342 217.054C360.773 217.401 361.104 217.837 361.332 218.361C361.561 218.886 361.675 219.504 361.675 220.215V229H359.694ZM359.453 223.198H356.647C356.097 223.198 355.623 223.253 355.226 223.363C354.828 223.473 354.502 223.63 354.248 223.833C353.994 224.036 353.804 224.282 353.677 224.569C353.558 224.849 353.499 225.166 353.499 225.521C353.499 225.767 353.537 226.004 353.613 226.232C353.689 226.452 353.812 226.651 353.981 226.829C354.151 226.998 354.371 227.134 354.642 227.235C354.912 227.337 355.243 227.388 355.632 227.388C356.14 227.388 356.719 227.235 357.371 226.931C358.031 226.618 358.725 226.127 359.453 225.458V223.198ZM390.188 225.521C390.188 225.97 390.112 226.372 389.96 226.728C389.808 227.083 389.6 227.4 389.338 227.68C389.076 227.951 388.771 228.183 388.424 228.378C388.077 228.573 387.704 228.733 387.307 228.86C386.917 228.987 386.515 229.08 386.101 229.14C385.686 229.199 385.28 229.229 384.882 229.229C384.019 229.229 383.223 229.19 382.495 229.114C381.776 229.038 381.069 228.915 380.375 228.746V226.715C381.12 226.926 381.86 227.087 382.597 227.197C383.333 227.307 384.065 227.362 384.793 227.362C385.851 227.362 386.634 227.218 387.142 226.931C387.649 226.643 387.903 226.232 387.903 225.699C387.903 225.471 387.861 225.268 387.776 225.09C387.7 224.904 387.556 224.73 387.345 224.569C387.133 224.4 386.803 224.227 386.354 224.049C385.914 223.871 385.309 223.668 384.539 223.439C383.964 223.27 383.43 223.08 382.939 222.868C382.457 222.648 382.038 222.39 381.683 222.094C381.327 221.798 381.048 221.451 380.845 221.053C380.642 220.655 380.54 220.185 380.54 219.644C380.54 219.288 380.62 218.899 380.781 218.476C380.951 218.052 381.234 217.659 381.632 217.295C382.03 216.931 382.567 216.631 383.244 216.394C383.921 216.148 384.768 216.025 385.783 216.025C386.283 216.025 386.837 216.055 387.446 216.114C388.056 216.165 388.69 216.258 389.351 216.394V218.361C388.657 218.192 387.996 218.069 387.37 217.993C386.752 217.909 386.215 217.866 385.758 217.866C385.208 217.866 384.742 217.909 384.361 217.993C383.989 218.078 383.684 218.196 383.447 218.349C383.219 218.493 383.054 218.666 382.952 218.869C382.851 219.064 382.8 219.275 382.8 219.504C382.8 219.732 382.842 219.94 382.927 220.126C383.02 220.312 383.185 220.494 383.422 220.672C383.667 220.841 384.006 221.015 384.438 221.192C384.869 221.362 385.432 221.548 386.126 221.751C386.879 221.971 387.514 222.204 388.03 222.449C388.547 222.686 388.965 222.953 389.287 223.249C389.609 223.545 389.837 223.88 389.973 224.252C390.117 224.624 390.188 225.048 390.188 225.521ZM398.732 212.877H394.962V211.062H400.967V227.159H404.763V229H394.543V227.159H398.732V212.877ZM419.781 222.525C419.781 223.516 419.642 224.425 419.362 225.255C419.083 226.076 418.681 226.783 418.156 227.375C417.632 227.959 416.993 228.416 416.239 228.746C415.486 229.068 414.631 229.229 413.675 229.229C412.761 229.229 411.94 229.089 411.212 228.81C410.493 228.522 409.879 228.103 409.371 227.553C408.872 227.003 408.487 226.321 408.216 225.509C407.953 224.696 407.822 223.761 407.822 222.703C407.822 221.713 407.962 220.812 408.241 219.999C408.521 219.178 408.923 218.476 409.447 217.892C409.972 217.299 410.611 216.842 411.364 216.521C412.118 216.19 412.972 216.025 413.929 216.025C414.843 216.025 415.66 216.169 416.379 216.457C417.107 216.736 417.72 217.151 418.22 217.701C418.728 218.243 419.113 218.92 419.375 219.732C419.646 220.545 419.781 221.476 419.781 222.525ZM417.521 222.627C417.521 221.84 417.433 221.154 417.255 220.57C417.086 219.978 416.84 219.487 416.519 219.098C416.197 218.7 415.803 218.404 415.338 218.209C414.881 218.006 414.369 217.904 413.802 217.904C413.142 217.904 412.575 218.035 412.101 218.298C411.635 218.552 411.25 218.895 410.945 219.326C410.649 219.758 410.429 220.261 410.285 220.837C410.15 221.404 410.082 222.001 410.082 222.627C410.082 223.414 410.167 224.104 410.336 224.696C410.514 225.289 410.763 225.784 411.085 226.182C411.407 226.571 411.796 226.867 412.253 227.07C412.71 227.265 413.226 227.362 413.802 227.362C414.462 227.362 415.025 227.235 415.49 226.981C415.964 226.719 416.349 226.372 416.646 225.94C416.95 225.509 417.17 225.009 417.306 224.442C417.45 223.867 417.521 223.262 417.521 222.627ZM433.873 222.398C433.873 223.533 433.712 224.523 433.391 225.369C433.077 226.215 432.642 226.918 432.083 227.477C431.524 228.035 430.864 228.454 430.103 228.733C429.341 229.013 428.516 229.152 427.627 229.152C427.221 229.152 426.814 229.131 426.408 229.089C426.01 229.047 425.604 228.975 425.189 228.873V234.205H422.98V216.254H424.948L425.088 218.387C425.723 217.515 426.4 216.906 427.119 216.559C427.839 216.203 428.617 216.025 429.455 216.025C430.183 216.025 430.822 216.178 431.372 216.482C431.922 216.787 432.383 217.219 432.756 217.777C433.128 218.327 433.408 218.996 433.594 219.783C433.78 220.562 433.873 221.434 433.873 222.398ZM431.613 222.5C431.613 221.831 431.562 221.218 431.461 220.659C431.368 220.101 431.215 219.622 431.004 219.225C430.792 218.827 430.521 218.518 430.191 218.298C429.861 218.069 429.468 217.955 429.011 217.955C428.731 217.955 428.448 218.002 428.16 218.095C427.872 218.179 427.572 218.327 427.259 218.539C426.954 218.742 426.628 219.017 426.281 219.364C425.943 219.703 425.579 220.126 425.189 220.634V226.816C425.596 226.986 426.023 227.121 426.472 227.223C426.92 227.316 427.36 227.362 427.792 227.362C428.985 227.362 429.921 226.96 430.598 226.156C431.275 225.344 431.613 224.125 431.613 222.5ZM448.041 221.954C448.041 222.267 448.037 222.53 448.028 222.741C448.02 222.953 448.007 223.152 447.99 223.338H439.04C439.04 224.641 439.404 225.644 440.132 226.347C440.86 227.041 441.909 227.388 443.28 227.388C443.653 227.388 444.025 227.375 444.397 227.35C444.77 227.316 445.13 227.273 445.477 227.223C445.824 227.172 446.154 227.117 446.467 227.058C446.788 226.99 447.085 226.918 447.355 226.842V228.657C446.755 228.826 446.073 228.962 445.312 229.063C444.558 229.174 443.775 229.229 442.963 229.229C441.871 229.229 440.932 229.08 440.145 228.784C439.357 228.488 438.71 228.061 438.202 227.502C437.703 226.935 437.33 226.245 437.085 225.433C436.848 224.612 436.729 223.685 436.729 222.652C436.729 221.755 436.856 220.909 437.11 220.113C437.373 219.309 437.749 218.607 438.24 218.006C438.74 217.396 439.349 216.914 440.068 216.559C440.788 216.203 441.604 216.025 442.519 216.025C443.407 216.025 444.194 216.165 444.88 216.444C445.565 216.724 446.141 217.121 446.606 217.638C447.08 218.146 447.436 218.768 447.673 219.504C447.918 220.232 448.041 221.049 448.041 221.954ZM445.743 221.637C445.769 221.07 445.714 220.553 445.578 220.088C445.443 219.614 445.231 219.208 444.943 218.869C444.664 218.531 444.313 218.268 443.89 218.082C443.466 217.887 442.976 217.79 442.417 217.79C441.935 217.79 441.494 217.883 441.097 218.069C440.699 218.256 440.356 218.518 440.068 218.856C439.781 219.195 439.548 219.601 439.37 220.075C439.192 220.549 439.082 221.07 439.04 221.637H445.743ZM476.961 222.525C476.961 223.516 476.821 224.425 476.542 225.255C476.263 226.076 475.861 226.783 475.336 227.375C474.811 227.959 474.172 228.416 473.419 228.746C472.666 229.068 471.811 229.229 470.854 229.229C469.94 229.229 469.119 229.089 468.392 228.81C467.672 228.522 467.059 228.103 466.551 227.553C466.051 227.003 465.666 226.321 465.396 225.509C465.133 224.696 465.002 223.761 465.002 222.703C465.002 221.713 465.142 220.812 465.421 219.999C465.7 219.178 466.102 218.476 466.627 217.892C467.152 217.299 467.791 216.842 468.544 216.521C469.297 216.19 470.152 216.025 471.108 216.025C472.022 216.025 472.839 216.169 473.559 216.457C474.286 216.736 474.9 217.151 475.399 217.701C475.907 218.243 476.292 218.92 476.555 219.732C476.826 220.545 476.961 221.476 476.961 222.525ZM474.701 222.627C474.701 221.84 474.612 221.154 474.435 220.57C474.265 219.978 474.02 219.487 473.698 219.098C473.377 218.7 472.983 218.404 472.518 218.209C472.061 218.006 471.549 217.904 470.981 217.904C470.321 217.904 469.754 218.035 469.28 218.298C468.815 218.552 468.43 218.895 468.125 219.326C467.829 219.758 467.609 220.261 467.465 220.837C467.329 221.404 467.262 222.001 467.262 222.627C467.262 223.414 467.346 224.104 467.516 224.696C467.693 225.289 467.943 225.784 468.265 226.182C468.586 226.571 468.976 226.867 469.433 227.07C469.89 227.265 470.406 227.362 470.981 227.362C471.642 227.362 472.204 227.235 472.67 226.981C473.144 226.719 473.529 226.372 473.825 225.94C474.13 225.509 474.35 225.009 474.485 224.442C474.629 223.867 474.701 223.262 474.701 222.627ZM491.472 213.118C490.312 212.873 489.313 212.75 488.476 212.75C486.487 212.75 485.492 213.791 485.492 215.873V218.107H491.078V219.948H485.492V229H483.245V219.948H479.145V218.107H483.245V216C483.245 212.606 485.014 210.909 488.552 210.909C489.432 210.909 490.405 211.011 491.472 211.214V213.118ZM519.376 229H508.953V226.943H513.219V214.832L509.245 216.99L508.433 215.111L513.714 212.331H515.669V226.943H519.376V229Z" fill="black"/>
<path d="M267.5 196L258.133 189.248L256.969 200.736L267.5 196ZM239.5 174.976C239.35 181.287 243.273 192.734 258.328 196.069L258.76 194.116C244.815 191.027 241.368 180.571 241.5 175.024L239.5 174.976Z" fill="#666666"/>
</g>
<defs>
<clipPath id="clip0_6296_7747">
<rect width="550" height="381" fill="white"/>
</clipPath>
</defs>
</svg>
