<svg width="630" height="332" viewBox="0 0 630 332" fill="none" xmlns="http://www.w3.org/2000/svg">
<g clip-path="url(#clip0_6289_6954)">
<rect width="630" height="332" fill="white"/>
<circle cx="242.5" cy="25" r="23.75" fill="white" stroke="black" stroke-width="2.5"/>
<path d="M323 115C322.448 115 322 115.448 322 116C322 116.552 322.448 117 323 117V115ZM362.707 116.707C363.098 116.317 363.098 115.683 362.707 115.293L356.343 108.929C355.953 108.538 355.319 108.538 354.929 108.929C354.538 109.319 354.538 109.953 354.929 110.343L360.586 116L354.929 121.657C354.538 122.047 354.538 122.681 354.929 123.071C355.319 123.462 355.953 123.462 356.343 123.071L362.707 116.707ZM323 117H362V115H323V117Z" fill="#666666"/>
<path d="M249.357 33H237.331V30.627H242.253V16.6523L237.668 19.1426L236.73 16.9746L242.824 13.7666H245.08V30.627H249.357V33Z" fill="black"/>
<circle cx="94" cy="115" r="23.75" fill="white" stroke="black" stroke-width="2.5"/>
<circle cx="391" cy="116" r="23.75" fill="white" stroke="black" stroke-width="2.5"/>
<path d="M101.019 123H88.4062V120.715L93.3574 115.793C94.168 114.992 94.8271 114.299 95.335 113.713C95.8428 113.127 96.2383 112.595 96.5215 112.116C96.8047 111.628 96.9951 111.169 97.0928 110.739C97.1904 110.31 97.2393 109.846 97.2393 109.348C97.2393 108.879 97.1758 108.435 97.0488 108.015C96.9219 107.585 96.7266 107.209 96.4629 106.887C96.1992 106.564 95.8574 106.311 95.4375 106.125C95.0176 105.939 94.5146 105.847 93.9287 105.847C93.1182 105.847 92.3809 106.027 91.7168 106.389C91.0527 106.75 90.4424 107.219 89.8857 107.795L88.4795 106.11C89.2021 105.349 90.0322 104.738 90.9697 104.279C91.917 103.82 93.0156 103.591 94.2656 103.591C95.1152 103.591 95.8867 103.718 96.5801 103.972C97.2832 104.226 97.8887 104.592 98.3965 105.07C98.9043 105.549 99.2949 106.135 99.5684 106.828C99.8516 107.521 99.9932 108.303 99.9932 109.172C99.9932 109.904 99.8955 110.583 99.7002 111.208C99.5049 111.833 99.207 112.458 98.8066 113.083C98.416 113.698 97.918 114.338 97.3125 115.002C96.7168 115.666 96.0088 116.394 95.1885 117.185L91.7168 120.568H101.019V123Z" fill="black"/>
<path d="M397.652 119.185C397.652 120.024 397.481 120.815 397.14 121.558C396.798 122.29 396.285 122.935 395.602 123.491C394.918 124.038 394.059 124.473 393.023 124.795C391.988 125.107 390.782 125.264 389.405 125.264C388.644 125.264 387.96 125.239 387.354 125.19C386.749 125.142 386.183 125.078 385.655 125V122.715C386.261 122.822 386.9 122.905 387.574 122.964C388.248 123.022 388.937 123.052 389.64 123.052C390.597 123.052 391.412 122.969 392.086 122.803C392.77 122.627 393.326 122.378 393.756 122.056C394.186 121.733 394.498 121.343 394.693 120.884C394.889 120.425 394.986 119.907 394.986 119.331C394.986 118.804 394.869 118.345 394.635 117.954C394.4 117.563 394.068 117.236 393.639 116.973C393.219 116.709 392.711 116.514 392.115 116.387C391.529 116.25 390.885 116.182 390.182 116.182H387.999V114.087H390.211C390.787 114.087 391.31 114.014 391.778 113.867C392.257 113.711 392.662 113.491 392.994 113.208C393.336 112.925 393.595 112.578 393.771 112.168C393.956 111.748 394.049 111.274 394.049 110.747C394.049 109.722 393.736 108.975 393.111 108.506C392.486 108.037 391.568 107.803 390.357 107.803C389.713 107.803 389.049 107.866 388.365 107.993C387.682 108.12 386.949 108.311 386.168 108.564V106.338C386.5 106.221 386.852 106.118 387.223 106.03C387.604 105.933 387.979 105.854 388.351 105.796C388.731 105.728 389.107 105.679 389.479 105.649C389.85 105.61 390.206 105.591 390.548 105.591C391.563 105.591 392.457 105.703 393.229 105.928C394 106.143 394.645 106.455 395.162 106.865C395.68 107.275 396.07 107.773 396.334 108.359C396.598 108.945 396.729 109.604 396.729 110.337C396.729 111.431 396.446 112.349 395.88 113.091C395.323 113.833 394.557 114.424 393.58 114.863C394.078 114.941 394.566 115.098 395.045 115.332C395.533 115.566 395.968 115.869 396.349 116.24C396.739 116.602 397.052 117.031 397.286 117.529C397.53 118.027 397.652 118.579 397.652 119.185Z" fill="black"/>
<circle cx="25" cy="205" r="23.75" fill="white" stroke="black" stroke-width="2.5"/>
<path d="M31.9707 209.767H28.7041V214H26.0967V209.767H16.8828V207.525L25.042 194.854H28.7041V207.525H31.9707V209.767ZM26.0967 197.315L19.4316 207.525H26.0967V197.315Z" fill="black"/>
<circle cx="166" cy="205" r="23.75" fill="white" stroke="black" stroke-width="2.5"/>
<path d="M171.535 207.877C171.535 208.824 171.33 209.688 170.92 210.47C170.51 211.251 169.943 211.925 169.221 212.491C168.508 213.048 167.663 213.482 166.687 213.795C165.71 214.107 164.655 214.264 163.522 214.264C163.239 214.264 162.932 214.254 162.6 214.234C162.277 214.225 161.955 214.205 161.633 214.176C161.311 214.156 160.993 214.132 160.681 214.103C160.378 214.073 160.104 214.039 159.86 214V211.686C160.388 211.812 160.988 211.905 161.662 211.964C162.346 212.022 163.034 212.052 163.728 212.052C164.509 212.052 165.212 211.959 165.837 211.773C166.462 211.588 166.994 211.324 167.434 210.982C167.873 210.631 168.21 210.211 168.444 209.723C168.679 209.225 168.796 208.668 168.796 208.053C168.796 206.861 168.366 205.997 167.507 205.46C166.657 204.913 165.432 204.64 163.83 204.64H160.197V194.854H170.51V197.081H162.6V202.457H164.27C165.188 202.457 166.081 202.54 166.95 202.706C167.819 202.872 168.591 203.165 169.265 203.585C169.948 203.995 170.495 204.552 170.905 205.255C171.325 205.948 171.535 206.822 171.535 207.877Z" fill="black"/>
<path d="M220 33.5L106.5 93.5" stroke="black" stroke-width="2.5"/>
<path d="M266 33.5L379.5 93.5" stroke="black" stroke-width="2.5"/>
<path d="M29.5 181.5L73 126.5" stroke="black" stroke-width="2.5"/>
<circle cx="322" cy="205" r="23.75" fill="white" stroke="black" stroke-width="2.5"/>
<path d="M328.253 207.936C328.253 208.814 328.092 209.64 327.77 210.411C327.457 211.183 327.008 211.856 326.422 212.433C325.836 212.999 325.128 213.448 324.298 213.78C323.478 214.103 322.564 214.264 321.559 214.264C320.504 214.264 319.571 214.098 318.761 213.766C317.95 213.424 317.271 212.906 316.725 212.213C316.178 211.51 315.763 210.626 315.479 209.562C315.196 208.497 315.055 207.237 315.055 205.782C315.055 204.806 315.118 203.858 315.245 202.94C315.372 202.022 315.582 201.158 315.875 200.348C316.168 199.537 316.559 198.795 317.047 198.121C317.535 197.447 318.141 196.871 318.863 196.393C319.596 195.904 320.455 195.528 321.441 195.265C322.428 194.991 323.57 194.854 324.869 194.854H326.759V197.081H324.708C323.565 197.081 322.574 197.218 321.734 197.491C320.895 197.765 320.191 198.15 319.625 198.648C319.059 199.146 318.624 199.747 318.321 200.45C318.019 201.153 317.828 201.939 317.75 202.809L317.691 203.409C318.307 203.048 319.015 202.76 319.815 202.545C320.626 202.32 321.5 202.208 322.438 202.208C323.404 202.208 324.249 202.35 324.972 202.633C325.704 202.916 326.31 203.312 326.788 203.819C327.276 204.317 327.643 204.918 327.887 205.621C328.131 206.324 328.253 207.096 328.253 207.936ZM325.587 208.097C325.587 207.511 325.514 206.983 325.367 206.515C325.23 206.036 325.011 205.636 324.708 205.313C324.405 204.981 324.02 204.728 323.551 204.552C323.092 204.366 322.54 204.273 321.896 204.273C321.524 204.273 321.148 204.308 320.768 204.376C320.387 204.444 320.011 204.542 319.64 204.669C319.278 204.786 318.932 204.923 318.6 205.079C318.268 205.235 317.965 205.401 317.691 205.577C317.691 206.837 317.779 207.892 317.955 208.741C318.131 209.581 318.39 210.255 318.731 210.763C319.083 211.271 319.513 211.632 320.021 211.847C320.528 212.062 321.114 212.169 321.778 212.169C322.335 212.169 322.843 212.081 323.302 211.905C323.771 211.72 324.171 211.451 324.503 211.1C324.845 210.748 325.108 210.323 325.294 209.825C325.489 209.317 325.587 208.741 325.587 208.097Z" fill="black"/>
<path d="M157.5 181.5L114 126.5" stroke="black" stroke-width="2.5"/>
<path d="M450.5 188.491L407 133.491" stroke="black" stroke-width="2.5"/>
<circle cx="461" cy="205" r="23.75" fill="white" stroke="black" stroke-width="2.5"/>
<path d="M467.916 197.228L459.889 214H456.974L465.309 197.228H454.967V194.854H467.916V197.228Z" fill="black"/>
<circle cx="254" cy="297.991" r="23.75" fill="white" stroke="black" stroke-width="2.5"/>
<path d="M260.019 302.187C260.019 302.997 259.853 303.72 259.521 304.355C259.188 304.98 258.725 305.507 258.129 305.937C257.533 306.366 256.83 306.693 256.02 306.918C255.209 307.143 254.33 307.255 253.383 307.255C252.338 307.255 251.415 307.138 250.614 306.903C249.823 306.669 249.159 306.342 248.622 305.922C248.085 305.502 247.68 305.004 247.406 304.428C247.133 303.852 246.996 303.217 246.996 302.524C246.996 301.352 247.323 300.341 247.978 299.491C248.632 298.642 249.643 297.87 251.01 297.177C249.76 296.542 248.847 295.839 248.271 295.068C247.694 294.286 247.406 293.393 247.406 292.387C247.406 291.772 247.533 291.176 247.787 290.6C248.041 290.024 248.422 289.511 248.93 289.062C249.447 288.612 250.092 288.256 250.863 287.992C251.635 287.719 252.543 287.582 253.588 287.582C254.574 287.582 255.438 287.69 256.181 287.904C256.933 288.109 257.562 288.407 258.07 288.798C258.578 289.189 258.959 289.662 259.213 290.219C259.467 290.776 259.594 291.396 259.594 292.079C259.594 293.193 259.281 294.14 258.656 294.921C258.041 295.702 257.162 296.386 256.02 296.972C256.586 297.255 257.113 297.568 257.602 297.909C258.09 298.251 258.515 298.632 258.876 299.052C259.237 299.472 259.516 299.941 259.711 300.458C259.916 300.976 260.019 301.552 260.019 302.187ZM256.986 292.284C256.986 291.415 256.679 290.771 256.063 290.351C255.458 289.921 254.604 289.706 253.5 289.706C252.406 289.706 251.552 289.916 250.937 290.336C250.331 290.756 250.028 291.386 250.028 292.226C250.028 292.607 250.102 292.958 250.248 293.28C250.395 293.603 250.619 293.905 250.922 294.189C251.234 294.472 251.62 294.75 252.079 295.024C252.538 295.297 253.085 295.575 253.72 295.859C254.823 295.341 255.644 294.804 256.181 294.247C256.718 293.681 256.986 293.026 256.986 292.284ZM257.25 302.377C257.25 302.016 257.191 301.664 257.074 301.322C256.957 300.981 256.747 300.644 256.444 300.312C256.142 299.98 255.736 299.648 255.229 299.316C254.721 298.984 254.076 298.642 253.295 298.29C252.631 298.612 252.069 298.935 251.61 299.257C251.161 299.569 250.795 299.892 250.512 300.224C250.238 300.546 250.043 300.883 249.926 301.234C249.809 301.586 249.75 301.957 249.75 302.348C249.75 302.787 249.843 303.178 250.028 303.52C250.224 303.852 250.487 304.135 250.819 304.369C251.151 304.604 251.547 304.779 252.006 304.897C252.465 305.014 252.963 305.072 253.5 305.072C254.018 305.072 254.506 305.019 254.965 304.911C255.424 304.804 255.819 304.643 256.151 304.428C256.493 304.203 256.762 303.925 256.957 303.593C257.152 303.251 257.25 302.846 257.25 302.377Z" fill="black"/>
<path d="M268.5 278.5L307.5 225" stroke="black" stroke-width="2.5"/>
<path d="M338 187.38L377 133.88" stroke="black" stroke-width="2.5"/>
<path d="M379.5 279.491L336 224.491" stroke="black" stroke-width="2.5"/>
<circle cx="393" cy="297.991" r="23.75" fill="white" stroke="black" stroke-width="2.5"/>
<path d="M399.916 296.342C399.916 298.207 399.691 299.814 399.242 301.161C398.793 302.499 398.129 303.603 397.25 304.472C396.371 305.331 395.282 305.966 393.983 306.376C392.685 306.786 391.186 306.991 389.486 306.991H387.89V304.765H389.662C390.922 304.765 392.011 304.638 392.929 304.384C393.847 304.13 394.608 303.759 395.214 303.271C395.829 302.773 396.298 302.172 396.62 301.469C396.942 300.756 397.143 299.945 397.221 299.037L397.279 298.437C396.664 298.798 395.956 299.091 395.155 299.316C394.354 299.53 393.485 299.638 392.548 299.638C391.581 299.638 390.731 299.496 389.999 299.213C389.267 298.93 388.656 298.534 388.168 298.026C387.689 297.519 387.328 296.918 387.084 296.225C386.84 295.522 386.718 294.76 386.718 293.94C386.718 293.051 386.879 292.221 387.201 291.449C387.523 290.678 387.973 290.009 388.549 289.443C389.135 288.866 389.833 288.412 390.644 288.08C391.454 287.748 392.348 287.582 393.324 287.582C394.271 287.582 395.146 287.738 395.946 288.051C396.757 288.363 397.455 288.871 398.041 289.574C398.627 290.268 399.086 291.171 399.418 292.284C399.75 293.398 399.916 294.75 399.916 296.342ZM393.207 289.677C392.66 289.677 392.152 289.77 391.684 289.955C391.225 290.131 390.824 290.395 390.482 290.746C390.15 291.088 389.887 291.513 389.691 292.021C389.496 292.528 389.398 293.109 389.398 293.764C389.398 294.359 389.467 294.892 389.604 295.36C389.75 295.829 389.97 296.23 390.263 296.562C390.565 296.884 390.951 297.133 391.42 297.309C391.889 297.484 392.445 297.572 393.09 297.572C393.451 297.572 393.822 297.538 394.203 297.47C394.594 297.401 394.97 297.309 395.331 297.192C395.702 297.074 396.054 296.938 396.386 296.781C396.718 296.625 397.016 296.459 397.279 296.283C397.279 295.024 397.187 293.974 397.001 293.134C396.815 292.284 396.547 291.606 396.195 291.098C395.844 290.58 395.414 290.214 394.906 289.999C394.408 289.784 393.842 289.677 393.207 289.677Z" fill="black"/>
<path d="M381.031 36.2539H382.999L383.088 38.3105C383.46 37.8704 383.82 37.5065 384.167 37.2188C384.514 36.9225 384.853 36.6855 385.183 36.5078C385.521 36.3301 385.864 36.2074 386.211 36.1396C386.558 36.0635 386.918 36.0254 387.29 36.0254C388.602 36.0254 389.592 36.4147 390.261 37.1934C390.938 37.9635 391.276 39.1273 391.276 40.6846V49H389.067V40.8623C389.067 39.8636 388.881 39.1273 388.509 38.6533C388.136 38.1709 387.582 37.9297 386.846 37.9297C386.575 37.9297 386.308 37.972 386.046 38.0566C385.792 38.1328 385.525 38.2725 385.246 38.4756C384.967 38.6702 384.662 38.9368 384.332 39.2754C384.01 39.6139 383.646 40.0371 383.24 40.5449V49H381.031V36.2539ZM406.422 42.5254C406.422 43.5156 406.282 44.4255 406.003 45.2549C405.724 46.0758 405.322 46.7826 404.797 47.375C404.272 47.959 403.633 48.416 402.88 48.7461C402.127 49.0677 401.272 49.2285 400.315 49.2285C399.401 49.2285 398.58 49.0889 397.853 48.8096C397.133 48.5218 396.52 48.1029 396.012 47.5527C395.512 47.0026 395.127 46.3213 394.856 45.5088C394.594 44.6963 394.463 43.7611 394.463 42.7031C394.463 41.7129 394.603 40.8115 394.882 39.999C395.161 39.1781 395.563 38.4756 396.088 37.8916C396.613 37.2992 397.252 36.8421 398.005 36.5205C398.758 36.1904 399.613 36.0254 400.569 36.0254C401.483 36.0254 402.3 36.1693 403.02 36.457C403.747 36.7363 404.361 37.151 404.86 37.7012C405.368 38.2428 405.753 38.9199 406.016 39.7324C406.286 40.5449 406.422 41.4759 406.422 42.5254ZM404.162 42.627C404.162 41.8398 404.073 41.1543 403.896 40.5703C403.726 39.9779 403.481 39.487 403.159 39.0977C402.838 38.6999 402.444 38.4036 401.979 38.209C401.521 38.0059 401.009 37.9043 400.442 37.9043C399.782 37.9043 399.215 38.0355 398.741 38.2979C398.276 38.5518 397.891 38.8945 397.586 39.3262C397.29 39.7578 397.07 40.2614 396.926 40.8369C396.79 41.404 396.723 42.0007 396.723 42.627C396.723 43.4141 396.807 44.1038 396.977 44.6963C397.154 45.2887 397.404 45.7839 397.726 46.1816C398.047 46.571 398.437 46.8672 398.894 47.0703C399.351 47.265 399.867 47.3623 400.442 47.3623C401.103 47.3623 401.665 47.2354 402.131 46.9814C402.605 46.7191 402.99 46.3721 403.286 45.9404C403.591 45.5088 403.811 45.0094 403.946 44.4424C404.09 43.8669 404.162 43.2617 404.162 42.627ZM408.974 42.8936C408.974 41.8102 409.122 40.8496 409.418 40.0117C409.714 39.1654 410.133 38.4544 410.675 37.8789C411.225 37.2949 411.881 36.8548 412.643 36.5586C413.413 36.2539 414.268 36.1016 415.207 36.1016C415.613 36.1016 416.011 36.127 416.4 36.1777C416.798 36.2285 417.188 36.3089 417.568 36.4189V31.0615H419.79V49H417.81L417.733 46.5879C417.116 47.485 416.447 48.1494 415.728 48.5811C415.008 49.0127 414.229 49.2285 413.392 49.2285C412.664 49.2285 412.021 49.0762 411.462 48.7715C410.912 48.4668 410.451 48.0394 410.078 47.4893C409.714 46.9307 409.439 46.262 409.253 45.4834C409.067 44.7048 408.974 43.8415 408.974 42.8936ZM411.233 42.7539C411.233 44.2943 411.458 45.4453 411.906 46.207C412.363 46.9603 413.007 47.3369 413.836 47.3369C414.395 47.3369 414.983 47.0872 415.601 46.5879C416.227 46.0885 416.883 45.348 417.568 44.3662V38.4502C417.204 38.2809 416.802 38.154 416.362 38.0693C415.922 37.9762 415.486 37.9297 415.055 37.9297C413.853 37.9297 412.913 38.319 412.236 39.0977C411.568 39.8763 411.233 41.0951 411.233 42.7539ZM434.682 41.9541C434.682 42.2673 434.677 42.5296 434.669 42.7412C434.66 42.9528 434.648 43.1517 434.631 43.3379H425.681C425.681 44.6413 426.045 45.6442 426.772 46.3467C427.5 47.0407 428.55 47.3877 429.921 47.3877C430.293 47.3877 430.666 47.375 431.038 47.3496C431.41 47.3158 431.77 47.2734 432.117 47.2227C432.464 47.1719 432.794 47.1169 433.107 47.0576C433.429 46.9899 433.725 46.918 433.996 46.8418V48.6572C433.395 48.8265 432.714 48.9619 431.952 49.0635C431.199 49.1735 430.416 49.2285 429.604 49.2285C428.512 49.2285 427.572 49.0804 426.785 48.7842C425.998 48.488 425.351 48.0605 424.843 47.502C424.343 46.9349 423.971 46.2451 423.726 45.4326C423.489 44.6117 423.37 43.6849 423.37 42.6523C423.37 41.7552 423.497 40.9089 423.751 40.1133C424.013 39.3092 424.39 38.6068 424.881 38.0059C425.38 37.3965 425.99 36.9141 426.709 36.5586C427.428 36.2031 428.245 36.0254 429.159 36.0254C430.048 36.0254 430.835 36.165 431.521 36.4443C432.206 36.7236 432.782 37.1214 433.247 37.6377C433.721 38.1455 434.076 38.7676 434.313 39.5039C434.559 40.2318 434.682 41.0485 434.682 41.9541ZM432.384 41.6367C432.409 41.0697 432.354 40.5534 432.219 40.0879C432.083 39.6139 431.872 39.2077 431.584 38.8691C431.305 38.5306 430.953 38.2682 430.53 38.082C430.107 37.8874 429.616 37.79 429.058 37.79C428.575 37.79 428.135 37.8831 427.737 38.0693C427.34 38.2555 426.997 38.5179 426.709 38.8564C426.421 39.195 426.188 39.6012 426.011 40.0752C425.833 40.5492 425.723 41.0697 425.681 41.6367H432.384ZM462.954 43.96C462.954 44.6878 462.806 45.3734 462.51 46.0166C462.214 46.6514 461.769 47.21 461.177 47.6924C460.584 48.1663 459.84 48.543 458.942 48.8223C458.045 49.0931 457 49.2285 455.807 49.2285C455.146 49.2285 454.554 49.2074 454.029 49.165C453.505 49.1227 453.014 49.0677 452.557 49V47.0195C453.081 47.1126 453.636 47.1846 454.22 47.2354C454.804 47.2861 455.4 47.3115 456.01 47.3115C456.839 47.3115 457.546 47.2396 458.13 47.0957C458.722 46.9434 459.205 46.7275 459.577 46.4482C459.95 46.1689 460.22 45.8304 460.39 45.4326C460.559 45.0348 460.644 44.5863 460.644 44.0869C460.644 43.6299 460.542 43.2321 460.339 42.8936C460.136 42.555 459.848 42.2715 459.476 42.043C459.112 41.8145 458.672 41.6452 458.155 41.5352C457.647 41.4167 457.089 41.3574 456.479 41.3574H454.588V39.542H456.505C457.004 39.542 457.457 39.4785 457.863 39.3516C458.278 39.2161 458.629 39.0257 458.917 38.7803C459.213 38.5348 459.438 38.2344 459.59 37.8789C459.751 37.515 459.831 37.1045 459.831 36.6475C459.831 35.7588 459.56 35.1113 459.019 34.7051C458.477 34.2988 457.681 34.0957 456.632 34.0957C456.073 34.0957 455.498 34.1507 454.905 34.2607C454.313 34.3708 453.678 34.5358 453.001 34.7559V32.8262C453.289 32.7246 453.593 32.6357 453.915 32.5596C454.245 32.4749 454.571 32.4072 454.893 32.3564C455.223 32.2972 455.549 32.2549 455.87 32.2295C456.192 32.1956 456.501 32.1787 456.797 32.1787C457.677 32.1787 458.451 32.276 459.12 32.4707C459.789 32.6569 460.347 32.9277 460.796 33.2832C461.244 33.6387 461.583 34.0703 461.812 34.5781C462.04 35.0859 462.154 35.6572 462.154 36.292C462.154 37.2399 461.909 38.0355 461.418 38.6787C460.936 39.3219 460.271 39.834 459.425 40.2148C459.856 40.2826 460.28 40.418 460.694 40.6211C461.118 40.8242 461.494 41.0866 461.824 41.4082C462.163 41.7214 462.434 42.0938 462.637 42.5254C462.848 42.957 462.954 43.4352 462.954 43.96ZM485.438 38.082H481.667V36.2539H487.672V47.1592H491.468V49H481.248V47.1592H485.438V38.082ZM486.212 30.9092C486.457 30.9092 486.686 30.9557 486.897 31.0488C487.109 31.1335 487.291 31.2562 487.443 31.417C487.604 31.5778 487.727 31.764 487.812 31.9756C487.905 32.1787 487.951 32.403 487.951 32.6484C487.951 32.8854 487.905 33.1097 487.812 33.3213C487.727 33.5329 487.604 33.7191 487.443 33.8799C487.291 34.0407 487.109 34.1676 486.897 34.2607C486.686 34.3454 486.457 34.3877 486.212 34.3877C485.966 34.3877 485.738 34.3454 485.526 34.2607C485.315 34.1676 485.129 34.0407 484.968 33.8799C484.815 33.7191 484.693 33.5329 484.6 33.3213C484.515 33.1097 484.473 32.8854 484.473 32.6484C484.473 32.403 484.515 32.1787 484.6 31.9756C484.693 31.764 484.815 31.5778 484.968 31.417C485.129 31.2562 485.315 31.1335 485.526 31.0488C485.738 30.9557 485.966 30.9092 486.212 30.9092ZM505.483 45.5215C505.483 45.9701 505.407 46.3721 505.255 46.7275C505.103 47.083 504.895 47.4004 504.633 47.6797C504.37 47.9505 504.066 48.1833 503.719 48.3779C503.372 48.5726 502.999 48.7334 502.602 48.8604C502.212 48.9873 501.81 49.0804 501.396 49.1396C500.981 49.1989 500.575 49.2285 500.177 49.2285C499.313 49.2285 498.518 49.1904 497.79 49.1143C497.071 49.0381 496.364 48.9154 495.67 48.7461V46.7148C496.415 46.9264 497.155 47.0872 497.892 47.1973C498.628 47.3073 499.36 47.3623 500.088 47.3623C501.146 47.3623 501.929 47.2184 502.437 46.9307C502.944 46.6429 503.198 46.2324 503.198 45.6992C503.198 45.4707 503.156 45.2676 503.071 45.0898C502.995 44.9036 502.851 44.7301 502.64 44.5693C502.428 44.4001 502.098 44.2266 501.649 44.0488C501.209 43.8711 500.604 43.668 499.834 43.4395C499.258 43.2702 498.725 43.0798 498.234 42.8682C497.752 42.6481 497.333 42.39 496.978 42.0938C496.622 41.7975 496.343 41.4505 496.14 41.0527C495.937 40.6549 495.835 40.1852 495.835 39.6436C495.835 39.2881 495.915 38.8988 496.076 38.4756C496.245 38.0524 496.529 37.6589 496.927 37.2949C497.325 36.931 497.862 36.6305 498.539 36.3936C499.216 36.1481 500.062 36.0254 501.078 36.0254C501.577 36.0254 502.132 36.055 502.741 36.1143C503.351 36.165 503.985 36.2581 504.646 36.3936V38.3613C503.951 38.1921 503.291 38.0693 502.665 37.9932C502.047 37.9085 501.51 37.8662 501.053 37.8662C500.503 37.8662 500.037 37.9085 499.656 37.9932C499.284 38.0778 498.979 38.1963 498.742 38.3486C498.514 38.4925 498.349 38.666 498.247 38.8691C498.146 39.0638 498.095 39.2754 498.095 39.5039C498.095 39.7324 498.137 39.9398 498.222 40.126C498.315 40.3122 498.48 40.4941 498.717 40.6719C498.962 40.8411 499.301 41.0146 499.732 41.1924C500.164 41.3617 500.727 41.5479 501.421 41.751C502.174 41.971 502.809 42.2038 503.325 42.4492C503.841 42.6862 504.26 42.9528 504.582 43.249C504.904 43.5452 505.132 43.8796 505.268 44.252C505.411 44.6243 505.483 45.0475 505.483 45.5215ZM532.169 49L532.118 47.2861C531.424 47.9717 530.717 48.4668 529.998 48.7715C529.287 49.0762 528.538 49.2285 527.751 49.2285C527.023 49.2285 526.401 49.1354 525.885 48.9492C525.368 48.763 524.941 48.5091 524.603 48.1875C524.272 47.8574 524.027 47.4723 523.866 47.0322C523.714 46.5921 523.638 46.1139 523.638 45.5977C523.638 44.3197 524.112 43.321 525.06 42.6016C526.016 41.8737 527.425 41.5098 529.287 41.5098H531.928V40.3926C531.928 39.6393 531.687 39.0384 531.204 38.5898C530.722 38.1328 529.985 37.9043 528.995 37.9043C528.276 37.9043 527.565 37.9847 526.862 38.1455C526.168 38.3063 525.449 38.5348 524.704 38.8311V36.8379C524.983 36.7363 525.292 36.639 525.631 36.5459C525.978 36.4443 526.342 36.3555 526.723 36.2793C527.104 36.2031 527.501 36.1439 527.916 36.1016C528.331 36.0508 528.75 36.0254 529.173 36.0254C529.943 36.0254 530.637 36.11 531.255 36.2793C531.873 36.4486 532.393 36.7067 532.816 37.0537C533.248 37.4007 533.578 37.8366 533.807 38.3613C534.035 38.8861 534.149 39.5039 534.149 40.2148V49H532.169ZM531.928 43.1982H529.122C528.572 43.1982 528.098 43.2533 527.7 43.3633C527.302 43.4733 526.977 43.6299 526.723 43.833C526.469 44.0361 526.278 44.2816 526.151 44.5693C526.033 44.8486 525.974 45.166 525.974 45.5215C525.974 45.7669 526.012 46.0039 526.088 46.2324C526.164 46.4525 526.287 46.6514 526.456 46.8291C526.625 46.9984 526.845 47.1338 527.116 47.2354C527.387 47.3369 527.717 47.3877 528.106 47.3877C528.614 47.3877 529.194 47.2354 529.846 46.9307C530.506 46.6175 531.2 46.1266 531.928 45.458V43.1982ZM538.275 36.2539H540.243L540.332 38.3105C540.704 37.8704 541.064 37.5065 541.411 37.2188C541.758 36.9225 542.097 36.6855 542.427 36.5078C542.765 36.3301 543.108 36.2074 543.455 36.1396C543.802 36.0635 544.162 36.0254 544.534 36.0254C545.846 36.0254 546.836 36.4147 547.505 37.1934C548.182 37.9635 548.521 39.1273 548.521 40.6846V49H546.312V40.8623C546.312 39.8636 546.125 39.1273 545.753 38.6533C545.381 38.1709 544.826 37.9297 544.09 37.9297C543.819 37.9297 543.552 37.972 543.29 38.0566C543.036 38.1328 542.77 38.2725 542.49 38.4756C542.211 38.6702 541.906 38.9368 541.576 39.2754C541.255 39.6139 540.891 40.0371 540.484 40.5449V49H538.275V36.2539ZM389.22 71L389.169 69.2861C388.475 69.9717 387.768 70.4668 387.049 70.7715C386.338 71.0762 385.589 71.2285 384.802 71.2285C384.074 71.2285 383.452 71.1354 382.936 70.9492C382.419 70.763 381.992 70.5091 381.653 70.1875C381.323 69.8574 381.078 69.4723 380.917 69.0322C380.765 68.5921 380.688 68.1139 380.688 67.5977C380.688 66.3197 381.162 65.321 382.11 64.6016C383.067 63.8737 384.476 63.5098 386.338 63.5098H388.979V62.3926C388.979 61.6393 388.737 61.0384 388.255 60.5898C387.772 60.1328 387.036 59.9043 386.046 59.9043C385.326 59.9043 384.616 59.9847 383.913 60.1455C383.219 60.3063 382.5 60.5348 381.755 60.8311V58.8379C382.034 58.7363 382.343 58.639 382.682 58.5459C383.029 58.4443 383.393 58.3555 383.773 58.2793C384.154 58.2031 384.552 58.1439 384.967 58.1016C385.382 58.0508 385.8 58.0254 386.224 58.0254C386.994 58.0254 387.688 58.11 388.306 58.2793C388.924 58.4486 389.444 58.7067 389.867 59.0537C390.299 59.4007 390.629 59.8366 390.857 60.3613C391.086 60.8861 391.2 61.5039 391.2 62.2148V71H389.22ZM388.979 65.1982H386.173C385.623 65.1982 385.149 65.2533 384.751 65.3633C384.353 65.4733 384.027 65.6299 383.773 65.833C383.52 66.0361 383.329 66.2816 383.202 66.5693C383.084 66.8486 383.024 67.166 383.024 67.5215C383.024 67.7669 383.062 68.0039 383.139 68.2324C383.215 68.4525 383.338 68.6514 383.507 68.8291C383.676 68.9984 383.896 69.1338 384.167 69.2354C384.438 69.3369 384.768 69.3877 385.157 69.3877C385.665 69.3877 386.245 69.2354 386.896 68.9307C387.557 68.6175 388.251 68.1266 388.979 67.458V65.1982ZM395.326 58.2539H397.294L397.383 60.3105C397.755 59.8704 398.115 59.5065 398.462 59.2188C398.809 58.9225 399.147 58.6855 399.478 58.5078C399.816 58.3301 400.159 58.2074 400.506 58.1396C400.853 58.0635 401.213 58.0254 401.585 58.0254C402.897 58.0254 403.887 58.4147 404.556 59.1934C405.233 59.9635 405.571 61.1273 405.571 62.6846V71H403.362V62.8623C403.362 61.8636 403.176 61.1273 402.804 60.6533C402.431 60.1709 401.877 59.9297 401.141 59.9297C400.87 59.9297 400.603 59.972 400.341 60.0566C400.087 60.1328 399.82 60.2725 399.541 60.4756C399.262 60.6702 398.957 60.9368 398.627 61.2754C398.305 61.6139 397.941 62.0371 397.535 62.5449V71H395.326V58.2539ZM419.523 70.5303C418.948 70.7503 418.355 70.9111 417.746 71.0127C417.145 71.1227 416.523 71.1777 415.88 71.1777C413.866 71.1777 412.312 70.6318 411.221 69.54C410.137 68.4482 409.596 66.8529 409.596 64.7539C409.596 63.7467 409.752 62.8327 410.065 62.0117C410.379 61.1908 410.819 60.4883 411.386 59.9043C411.953 59.3203 412.63 58.8717 413.417 58.5586C414.204 58.237 415.072 58.0762 416.02 58.0762C416.68 58.0762 417.298 58.1227 417.873 58.2158C418.449 58.3089 418.999 58.4613 419.523 58.6729V60.7803C418.973 60.4925 418.41 60.2852 417.835 60.1582C417.268 60.0228 416.68 59.9551 416.07 59.9551C415.503 59.9551 414.966 60.0651 414.458 60.2852C413.959 60.4967 413.519 60.8057 413.138 61.2119C412.757 61.6182 412.456 62.1133 412.236 62.6973C412.016 63.2812 411.906 63.9414 411.906 64.6777C411.906 66.2181 412.279 67.3734 413.023 68.1436C413.777 68.9053 414.818 69.2861 416.146 69.2861C416.747 69.2861 417.327 69.2184 417.886 69.083C418.453 68.9476 418.999 68.7445 419.523 68.4736V70.5303ZM434.682 63.9541C434.682 64.2673 434.677 64.5296 434.669 64.7412C434.66 64.9528 434.648 65.1517 434.631 65.3379H425.681C425.681 66.6413 426.045 67.6442 426.772 68.3467C427.5 69.0407 428.55 69.3877 429.921 69.3877C430.293 69.3877 430.666 69.375 431.038 69.3496C431.41 69.3158 431.77 69.2734 432.117 69.2227C432.464 69.1719 432.794 69.1169 433.107 69.0576C433.429 68.9899 433.725 68.918 433.996 68.8418V70.6572C433.395 70.8265 432.714 70.9619 431.952 71.0635C431.199 71.1735 430.416 71.2285 429.604 71.2285C428.512 71.2285 427.572 71.0804 426.785 70.7842C425.998 70.488 425.351 70.0605 424.843 69.502C424.343 68.9349 423.971 68.2451 423.726 67.4326C423.489 66.6117 423.37 65.6849 423.37 64.6523C423.37 63.7552 423.497 62.9089 423.751 62.1133C424.013 61.3092 424.39 60.6068 424.881 60.0059C425.38 59.3965 425.99 58.9141 426.709 58.5586C427.428 58.2031 428.245 58.0254 429.159 58.0254C430.048 58.0254 430.835 58.165 431.521 58.4443C432.206 58.7236 432.782 59.1214 433.247 59.6377C433.721 60.1455 434.076 60.7676 434.313 61.5039C434.559 62.2318 434.682 63.0485 434.682 63.9541ZM432.384 63.6367C432.409 63.0697 432.354 62.5534 432.219 62.0879C432.083 61.6139 431.872 61.2077 431.584 60.8691C431.305 60.5306 430.953 60.2682 430.53 60.082C430.107 59.8874 429.616 59.79 429.058 59.79C428.575 59.79 428.135 59.8831 427.737 60.0693C427.34 60.2555 426.997 60.5179 426.709 60.8564C426.421 61.195 426.188 61.6012 426.011 62.0752C425.833 62.5492 425.723 63.0697 425.681 63.6367H432.384ZM448.304 67.5215C448.304 67.9701 448.228 68.3721 448.075 68.7275C447.923 69.083 447.715 69.4004 447.453 69.6797C447.191 69.9505 446.886 70.1833 446.539 70.3779C446.192 70.5726 445.82 70.7334 445.422 70.8604C445.033 70.9873 444.631 71.0804 444.216 71.1396C443.801 71.1989 443.395 71.2285 442.997 71.2285C442.134 71.2285 441.338 71.1904 440.61 71.1143C439.891 71.0381 439.184 70.9154 438.49 70.7461V68.7148C439.235 68.9264 439.976 69.0872 440.712 69.1973C441.448 69.3073 442.18 69.3623 442.908 69.3623C443.966 69.3623 444.749 69.2184 445.257 68.9307C445.765 68.6429 446.019 68.2324 446.019 67.6992C446.019 67.4707 445.976 67.2676 445.892 67.0898C445.815 66.9036 445.672 66.7301 445.46 66.5693C445.248 66.4001 444.918 66.2266 444.47 66.0488C444.03 65.8711 443.424 65.668 442.654 65.4395C442.079 65.2702 441.546 65.0798 441.055 64.8682C440.572 64.6481 440.153 64.39 439.798 64.0938C439.442 63.7975 439.163 63.4505 438.96 63.0527C438.757 62.6549 438.655 62.1852 438.655 61.6436C438.655 61.2881 438.736 60.8988 438.896 60.4756C439.066 60.0524 439.349 59.6589 439.747 59.2949C440.145 58.931 440.682 58.6305 441.359 58.3936C442.036 58.1481 442.883 58.0254 443.898 58.0254C444.398 58.0254 444.952 58.055 445.562 58.1143C446.171 58.165 446.806 58.2581 447.466 58.3936V60.3613C446.772 60.1921 446.112 60.0693 445.485 59.9932C444.868 59.9085 444.33 59.8662 443.873 59.8662C443.323 59.8662 442.857 59.9085 442.477 59.9932C442.104 60.0778 441.799 60.1963 441.562 60.3486C441.334 60.4925 441.169 60.666 441.067 60.8691C440.966 61.0638 440.915 61.2754 440.915 61.5039C440.915 61.7324 440.957 61.9398 441.042 62.126C441.135 62.3122 441.3 62.4941 441.537 62.6719C441.783 62.8411 442.121 63.0146 442.553 63.1924C442.984 63.3617 443.547 63.5479 444.241 63.751C444.994 63.971 445.629 64.2038 446.146 64.4492C446.662 64.6862 447.081 64.9528 447.402 65.249C447.724 65.5452 447.952 65.8796 448.088 66.252C448.232 66.6243 448.304 67.0475 448.304 67.5215ZM462.776 70.8223C462.277 70.9492 461.761 71.0381 461.228 71.0889C460.694 71.1481 460.153 71.1777 459.603 71.1777C458.003 71.1777 456.81 70.818 456.022 70.0986C455.235 69.3708 454.842 68.2578 454.842 66.7598V60.1074H451.274V58.2539H454.842V54.75L457.051 54.1787V58.2539H462.776V60.1074H457.051V66.582C457.051 67.4961 457.292 68.1816 457.774 68.6387C458.265 69.0872 458.985 69.3115 459.933 69.3115C460.339 69.3115 460.783 69.2819 461.266 69.2227C461.748 69.1549 462.252 69.0534 462.776 68.918V70.8223ZM477.896 64.5254C477.896 65.5156 477.757 66.4255 477.478 67.2549C477.198 68.0758 476.796 68.7826 476.271 69.375C475.747 69.959 475.108 70.416 474.354 70.7461C473.601 71.0677 472.746 71.2285 471.79 71.2285C470.876 71.2285 470.055 71.0889 469.327 70.8096C468.608 70.5218 467.994 70.1029 467.486 69.5527C466.987 69.0026 466.602 68.3213 466.331 67.5088C466.069 66.6963 465.938 65.7611 465.938 64.7031C465.938 63.7129 466.077 62.8115 466.356 61.999C466.636 61.1781 467.038 60.4756 467.562 59.8916C468.087 59.2992 468.726 58.8421 469.479 58.5205C470.233 58.1904 471.088 58.0254 472.044 58.0254C472.958 58.0254 473.775 58.1693 474.494 58.457C475.222 58.7363 475.836 59.151 476.335 59.7012C476.843 60.2428 477.228 60.9199 477.49 61.7324C477.761 62.5449 477.896 63.4759 477.896 64.5254ZM475.637 64.627C475.637 63.8398 475.548 63.1543 475.37 62.5703C475.201 61.9779 474.955 61.487 474.634 61.0977C474.312 60.6999 473.919 60.4036 473.453 60.209C472.996 60.0059 472.484 59.9043 471.917 59.9043C471.257 59.9043 470.69 60.0355 470.216 60.2979C469.75 60.5518 469.365 60.8945 469.061 61.3262C468.764 61.7578 468.544 62.2614 468.4 62.8369C468.265 63.404 468.197 64.0007 468.197 64.627C468.197 65.4141 468.282 66.1038 468.451 66.6963C468.629 67.2887 468.879 67.7839 469.2 68.1816C469.522 68.571 469.911 68.8672 470.368 69.0703C470.825 69.265 471.341 69.3623 471.917 69.3623C472.577 69.3623 473.14 69.2354 473.605 68.9814C474.079 68.7191 474.465 68.3721 474.761 67.9404C475.065 67.5088 475.285 67.0094 475.421 66.4424C475.565 65.8669 475.637 65.2617 475.637 64.627ZM481.616 58.2539H483.635L483.698 60.6025C484.451 59.6969 485.192 59.041 485.92 58.6348C486.656 58.2285 487.397 58.0254 488.142 58.0254C489.462 58.0254 490.461 58.4528 491.138 59.3076C491.823 60.1624 492.141 61.432 492.09 63.1162H489.855C489.881 61.999 489.716 61.1908 489.36 60.6914C489.013 60.1836 488.501 59.9297 487.824 59.9297C487.528 59.9297 487.228 59.9847 486.923 60.0947C486.627 60.1963 486.318 60.3656 485.996 60.6025C485.683 60.8311 485.349 61.1273 484.993 61.4912C484.638 61.8551 484.257 62.2952 483.851 62.8115V71H481.616V58.2539ZM514.027 60.082H510.257V58.2539H516.262V69.1592H520.058V71H509.838V69.1592H514.027V60.082ZM514.802 52.9092C515.047 52.9092 515.276 52.9557 515.487 53.0488C515.699 53.1335 515.881 53.2562 516.033 53.417C516.194 53.5778 516.317 53.764 516.401 53.9756C516.494 54.1787 516.541 54.403 516.541 54.6484C516.541 54.8854 516.494 55.1097 516.401 55.3213C516.317 55.5329 516.194 55.7191 516.033 55.8799C515.881 56.0407 515.699 56.1676 515.487 56.2607C515.276 56.3454 515.047 56.3877 514.802 56.3877C514.556 56.3877 514.328 56.3454 514.116 56.2607C513.905 56.1676 513.718 56.0407 513.558 55.8799C513.405 55.7191 513.283 55.5329 513.189 55.3213C513.105 55.1097 513.062 54.8854 513.062 54.6484C513.062 54.403 513.105 54.1787 513.189 53.9756C513.283 53.764 513.405 53.5778 513.558 53.417C513.718 53.2562 513.905 53.1335 514.116 53.0488C514.328 52.9557 514.556 52.9092 514.802 52.9092ZM535.292 55.1182C534.132 54.8727 533.134 54.75 532.296 54.75C530.307 54.75 529.312 55.791 529.312 57.873V60.1074H534.898V61.9482H529.312V71H527.065V61.9482H522.965V60.1074H527.065V58C527.065 54.6061 528.834 52.9092 532.372 52.9092C533.252 52.9092 534.226 53.0107 535.292 53.2139V55.1182ZM543.392 58.0254C543.654 58.0254 543.904 58.0804 544.141 58.1904C544.378 58.292 544.585 58.4316 544.763 58.6094C544.94 58.7871 545.08 58.9945 545.182 59.2314C545.292 59.4684 545.347 59.7181 545.347 59.9805C545.347 60.2513 545.292 60.5052 545.182 60.7422C545.08 60.9707 544.94 61.1738 544.763 61.3516C544.585 61.5293 544.378 61.6689 544.141 61.7705C543.904 61.8721 543.654 61.9229 543.392 61.9229C543.121 61.9229 542.867 61.8721 542.63 61.7705C542.401 61.6689 542.198 61.5293 542.021 61.3516C541.843 61.1738 541.703 60.9707 541.602 60.7422C541.5 60.5052 541.449 60.2513 541.449 59.9805C541.449 59.7181 541.5 59.4684 541.602 59.2314C541.703 58.9945 541.843 58.7871 542.021 58.6094C542.198 58.4316 542.401 58.292 542.63 58.1904C542.867 58.0804 543.121 58.0254 543.392 58.0254ZM543.392 67.3311C543.654 67.3311 543.904 67.3861 544.141 67.4961C544.378 67.5977 544.585 67.7373 544.763 67.915C544.94 68.0928 545.08 68.3001 545.182 68.5371C545.292 68.7741 545.347 69.0238 545.347 69.2861C545.347 69.557 545.292 69.8109 545.182 70.0479C545.08 70.2764 544.94 70.4795 544.763 70.6572C544.585 70.835 544.378 70.9746 544.141 71.0762C543.904 71.1777 543.654 71.2285 543.392 71.2285C543.121 71.2285 542.867 71.1777 542.63 71.0762C542.401 70.9746 542.198 70.835 542.021 70.6572C541.843 70.4795 541.703 70.2764 541.602 70.0479C541.5 69.8109 541.449 69.557 541.449 69.2861C541.449 69.0238 541.5 68.7741 541.602 68.5371C541.703 68.3001 541.843 68.0928 542.021 67.915C542.198 67.7373 542.401 67.5977 542.63 67.4961C542.867 67.3861 543.121 67.3311 543.392 67.3311Z" fill="#666666"/>
<path d="M470.924 89.3984C470.924 90.4564 470.776 91.4043 470.479 92.2422C470.192 93.0716 469.777 93.7783 469.235 94.3623C468.702 94.9378 468.05 95.3822 467.28 95.6953C466.51 96 465.643 96.1523 464.678 96.1523C463.924 96.1523 463.154 96.0804 462.367 95.9365C461.58 95.7926 460.801 95.5641 460.031 95.251V78.0615H462.24V83L462.139 85.3613C462.773 84.5065 463.451 83.9056 464.17 83.5586C464.898 83.2031 465.676 83.0254 466.506 83.0254C467.234 83.0254 467.873 83.1777 468.423 83.4824C468.973 83.7871 469.434 84.2188 469.807 84.7773C470.179 85.3275 470.458 85.9961 470.645 86.7832C470.831 87.5618 470.924 88.4336 470.924 89.3984ZM468.664 89.5C468.664 88.8314 468.613 88.2178 468.512 87.6592C468.419 87.1006 468.266 86.6224 468.055 86.2246C467.843 85.8268 467.572 85.5179 467.242 85.2979C466.912 85.0693 466.519 84.9551 466.062 84.9551C465.782 84.9551 465.499 85.0016 465.211 85.0947C464.923 85.1794 464.623 85.3275 464.31 85.5391C464.005 85.7422 463.679 86.0173 463.332 86.3643C462.993 86.7028 462.63 87.126 462.24 87.6338V93.8164C462.672 93.9857 463.112 94.1211 463.561 94.2227C464.009 94.3158 464.437 94.3623 464.843 94.3623C465.351 94.3623 465.833 94.2819 466.29 94.1211C466.756 93.9603 467.162 93.6937 467.509 93.3213C467.864 92.9404 468.144 92.4411 468.347 91.8232C468.558 91.1969 468.664 90.4225 468.664 89.5ZM485.422 89.5254C485.422 90.5156 485.282 91.4255 485.003 92.2549C484.724 93.0758 484.322 93.7826 483.797 94.375C483.272 94.959 482.633 95.416 481.88 95.7461C481.127 96.0677 480.272 96.2285 479.315 96.2285C478.401 96.2285 477.58 96.0889 476.853 95.8096C476.133 95.5218 475.52 95.1029 475.012 94.5527C474.512 94.0026 474.127 93.3213 473.856 92.5088C473.594 91.6963 473.463 90.7611 473.463 89.7031C473.463 88.7129 473.603 87.8115 473.882 86.999C474.161 86.1781 474.563 85.4756 475.088 84.8916C475.613 84.2992 476.252 83.8421 477.005 83.5205C477.758 83.1904 478.613 83.0254 479.569 83.0254C480.483 83.0254 481.3 83.1693 482.02 83.457C482.747 83.7363 483.361 84.151 483.86 84.7012C484.368 85.2428 484.753 85.9199 485.016 86.7324C485.286 87.5449 485.422 88.4759 485.422 89.5254ZM483.162 89.627C483.162 88.8398 483.073 88.1543 482.896 87.5703C482.726 86.9779 482.481 86.487 482.159 86.0977C481.838 85.6999 481.444 85.4036 480.979 85.209C480.521 85.0059 480.009 84.9043 479.442 84.9043C478.782 84.9043 478.215 85.0355 477.741 85.2979C477.276 85.5518 476.891 85.8945 476.586 86.3262C476.29 86.7578 476.07 87.2614 475.926 87.8369C475.79 88.404 475.723 89.0007 475.723 89.627C475.723 90.4141 475.807 91.1038 475.977 91.6963C476.154 92.2887 476.404 92.7839 476.726 93.1816C477.047 93.571 477.437 93.8672 477.894 94.0703C478.351 94.265 478.867 94.3623 479.442 94.3623C480.103 94.3623 480.665 94.2354 481.131 93.9814C481.605 93.7191 481.99 93.3721 482.286 92.9404C482.591 92.5088 482.811 92.0094 482.946 91.4424C483.09 90.8669 483.162 90.2617 483.162 89.627ZM498.892 95.8223C498.392 95.9492 497.876 96.0381 497.343 96.0889C496.81 96.1481 496.268 96.1777 495.718 96.1777C494.118 96.1777 492.925 95.818 492.138 95.0986C491.351 94.3708 490.957 93.2578 490.957 91.7598V85.1074H487.39V83.2539H490.957V79.75L493.166 79.1787V83.2539H498.892V85.1074H493.166V91.582C493.166 92.4961 493.407 93.1816 493.89 93.6387C494.381 94.0872 495.1 94.3115 496.048 94.3115C496.454 94.3115 496.898 94.2819 497.381 94.2227C497.863 94.1549 498.367 94.0534 498.892 93.918V95.8223ZM513.161 96H510.952V87.8623C510.952 86.8805 510.766 86.1484 510.394 85.666C510.03 85.1751 509.505 84.9297 508.819 84.9297C508.523 84.9297 508.244 84.972 507.981 85.0566C507.728 85.1328 507.461 85.2725 507.182 85.4756C506.902 85.6702 506.598 85.9368 506.268 86.2754C505.938 86.6139 505.557 87.0371 505.125 87.5449V96H502.916V78.0615H505.125V83.2539L505.049 85.2598C505.396 84.8451 505.734 84.498 506.064 84.2188C506.403 83.931 506.737 83.6982 507.067 83.5205C507.406 83.3428 507.749 83.2158 508.096 83.1396C508.443 83.0635 508.802 83.0254 509.175 83.0254C510.444 83.0254 511.426 83.4147 512.12 84.1934C512.814 84.9635 513.161 86.1273 513.161 87.6846V96ZM542.398 89.3984C542.398 90.5326 542.238 91.5228 541.916 92.3691C541.603 93.2155 541.167 93.918 540.608 94.4766C540.05 95.0352 539.39 95.4541 538.628 95.7334C537.866 96.0127 537.041 96.1523 536.152 96.1523C535.746 96.1523 535.34 96.1312 534.934 96.0889C534.536 96.0465 534.13 95.9746 533.715 95.873V101.205H531.506V83.2539H533.474L533.613 85.3867C534.248 84.515 534.925 83.9056 535.645 83.5586C536.364 83.2031 537.143 83.0254 537.98 83.0254C538.708 83.0254 539.347 83.1777 539.897 83.4824C540.448 83.7871 540.909 84.2188 541.281 84.7773C541.654 85.3275 541.933 85.9961 542.119 86.7832C542.305 87.5618 542.398 88.4336 542.398 89.3984ZM540.139 89.5C540.139 88.8314 540.088 88.2178 539.986 87.6592C539.893 87.1006 539.741 86.6224 539.529 86.2246C539.318 85.8268 539.047 85.5179 538.717 85.2979C538.387 85.0693 537.993 84.9551 537.536 84.9551C537.257 84.9551 536.973 85.0016 536.686 85.0947C536.398 85.1794 536.097 85.3275 535.784 85.5391C535.479 85.7422 535.154 86.0173 534.807 86.3643C534.468 86.7028 534.104 87.126 533.715 87.6338V93.8164C534.121 93.9857 534.549 94.1211 534.997 94.2227C535.446 94.3158 535.886 94.3623 536.317 94.3623C537.511 94.3623 538.446 93.9603 539.123 93.1562C539.8 92.3438 540.139 91.125 540.139 89.5ZM568.284 96L568.233 94.2861C567.539 94.9717 566.833 95.4668 566.113 95.7715C565.402 96.0762 564.653 96.2285 563.866 96.2285C563.138 96.2285 562.516 96.1354 562 95.9492C561.484 95.763 561.056 95.5091 560.718 95.1875C560.388 94.8574 560.142 94.4723 559.981 94.0322C559.829 93.5921 559.753 93.1139 559.753 92.5977C559.753 91.3197 560.227 90.321 561.175 89.6016C562.131 88.8737 563.54 88.5098 565.402 88.5098H568.043V87.3926C568.043 86.6393 567.802 86.0384 567.319 85.5898C566.837 85.1328 566.101 84.9043 565.11 84.9043C564.391 84.9043 563.68 84.9847 562.978 85.1455C562.284 85.3063 561.564 85.5348 560.819 85.8311V83.8379C561.099 83.7363 561.408 83.639 561.746 83.5459C562.093 83.4443 562.457 83.3555 562.838 83.2793C563.219 83.2031 563.617 83.1439 564.031 83.1016C564.446 83.0508 564.865 83.0254 565.288 83.0254C566.058 83.0254 566.752 83.11 567.37 83.2793C567.988 83.4486 568.508 83.7067 568.932 84.0537C569.363 84.4007 569.693 84.8366 569.922 85.3613C570.15 85.8861 570.265 86.5039 570.265 87.2148V96H568.284ZM568.043 90.1982H565.237C564.687 90.1982 564.213 90.2533 563.815 90.3633C563.418 90.4733 563.092 90.6299 562.838 90.833C562.584 91.0361 562.394 91.2816 562.267 91.5693C562.148 91.8486 562.089 92.166 562.089 92.5215C562.089 92.7669 562.127 93.0039 562.203 93.2324C562.279 93.4525 562.402 93.6514 562.571 93.8291C562.741 93.9984 562.961 94.1338 563.231 94.2354C563.502 94.3369 563.832 94.3877 564.222 94.3877C564.729 94.3877 565.309 94.2354 565.961 93.9307C566.621 93.6175 567.315 93.1266 568.043 92.458V90.1982ZM574.391 83.2539H576.358L576.447 85.3105C576.82 84.8704 577.179 84.5065 577.526 84.2188C577.873 83.9225 578.212 83.6855 578.542 83.5078C578.881 83.3301 579.223 83.2074 579.57 83.1396C579.917 83.0635 580.277 83.0254 580.649 83.0254C581.961 83.0254 582.951 83.4147 583.62 84.1934C584.297 84.9635 584.636 86.1273 584.636 87.6846V96H582.427V87.8623C582.427 86.8636 582.241 86.1273 581.868 85.6533C581.496 85.1709 580.941 84.9297 580.205 84.9297C579.934 84.9297 579.668 84.972 579.405 85.0566C579.151 85.1328 578.885 85.2725 578.605 85.4756C578.326 85.6702 578.021 85.9368 577.691 86.2754C577.37 86.6139 577.006 87.0371 576.6 87.5449V96H574.391V83.2539ZM588.038 89.8936C588.038 88.8102 588.186 87.8496 588.482 87.0117C588.779 86.1654 589.198 85.4544 589.739 84.8789C590.289 84.2949 590.945 83.8548 591.707 83.5586C592.477 83.2539 593.332 83.1016 594.271 83.1016C594.678 83.1016 595.076 83.127 595.465 83.1777C595.863 83.2285 596.252 83.3089 596.633 83.4189V78.0615H598.854V96H596.874L596.798 93.5879C596.18 94.485 595.511 95.1494 594.792 95.5811C594.073 96.0127 593.294 96.2285 592.456 96.2285C591.728 96.2285 591.085 96.0762 590.526 95.7715C589.976 95.4668 589.515 95.0394 589.143 94.4893C588.779 93.9307 588.504 93.262 588.317 92.4834C588.131 91.7048 588.038 90.8415 588.038 89.8936ZM590.298 89.7539C590.298 91.2943 590.522 92.4453 590.971 93.207C591.428 93.9603 592.071 94.3369 592.9 94.3369C593.459 94.3369 594.047 94.0872 594.665 93.5879C595.291 93.0885 595.947 92.348 596.633 91.3662V85.4502C596.269 85.2809 595.867 85.154 595.427 85.0693C594.987 84.9762 594.551 84.9297 594.119 84.9297C592.917 84.9297 591.978 85.319 591.301 86.0977C590.632 86.8763 590.298 88.0951 590.298 89.7539ZM616.628 89.8936C616.628 88.9795 616.746 88.112 616.983 87.291C617.229 86.4701 617.601 85.7507 618.101 85.1328C618.608 84.5065 619.256 84.0114 620.043 83.6475C620.83 83.2835 621.77 83.1016 622.861 83.1016C623.293 83.1016 623.72 83.1354 624.144 83.2031C624.567 83.2708 625.015 83.3766 625.489 83.5205L627.444 83.0254V101.205H625.223V96.3936L625.337 93.6641C624.135 95.3737 622.705 96.2285 621.046 96.2285C620.301 96.2285 619.654 96.0762 619.104 95.7715C618.553 95.4668 618.092 95.0352 617.72 94.4766C617.356 93.918 617.081 93.2493 616.895 92.4707C616.717 91.6921 616.628 90.833 616.628 89.8936ZM618.888 89.7539C618.888 90.4648 618.938 91.1038 619.04 91.6709C619.15 92.238 619.311 92.7204 619.522 93.1182C619.743 93.5075 620.013 93.8079 620.335 94.0195C620.665 94.2311 621.05 94.3369 621.49 94.3369C622.049 94.3369 622.637 94.0872 623.255 93.5879C623.881 93.0885 624.537 92.348 625.223 91.3662V85.4502C624.884 85.2894 624.499 85.1582 624.067 85.0566C623.644 84.9551 623.191 84.9043 622.709 84.9043C621.465 84.9043 620.517 85.3148 619.865 86.1357C619.214 86.9567 618.888 88.1628 618.888 89.7539ZM468.22 118L468.169 116.286C467.475 116.972 466.768 117.467 466.049 117.771C465.338 118.076 464.589 118.229 463.802 118.229C463.074 118.229 462.452 118.135 461.936 117.949C461.419 117.763 460.992 117.509 460.653 117.188C460.323 116.857 460.078 116.472 459.917 116.032C459.765 115.592 459.688 115.114 459.688 114.598C459.688 113.32 460.162 112.321 461.11 111.602C462.067 110.874 463.476 110.51 465.338 110.51H467.979V109.393C467.979 108.639 467.737 108.038 467.255 107.59C466.772 107.133 466.036 106.904 465.046 106.904C464.326 106.904 463.616 106.985 462.913 107.146C462.219 107.306 461.5 107.535 460.755 107.831V105.838C461.034 105.736 461.343 105.639 461.682 105.546C462.029 105.444 462.393 105.355 462.773 105.279C463.154 105.203 463.552 105.144 463.967 105.102C464.382 105.051 464.8 105.025 465.224 105.025C465.994 105.025 466.688 105.11 467.306 105.279C467.924 105.449 468.444 105.707 468.867 106.054C469.299 106.401 469.629 106.837 469.857 107.361C470.086 107.886 470.2 108.504 470.2 109.215V118H468.22ZM467.979 112.198H465.173C464.623 112.198 464.149 112.253 463.751 112.363C463.353 112.473 463.027 112.63 462.773 112.833C462.52 113.036 462.329 113.282 462.202 113.569C462.084 113.849 462.024 114.166 462.024 114.521C462.024 114.767 462.062 115.004 462.139 115.232C462.215 115.452 462.338 115.651 462.507 115.829C462.676 115.998 462.896 116.134 463.167 116.235C463.438 116.337 463.768 116.388 464.157 116.388C464.665 116.388 465.245 116.235 465.896 115.931C466.557 115.618 467.251 115.127 467.979 114.458V112.198ZM474.847 105.254H476.865L476.929 107.603C477.682 106.697 478.423 106.041 479.15 105.635C479.887 105.229 480.627 105.025 481.372 105.025C482.692 105.025 483.691 105.453 484.368 106.308C485.054 107.162 485.371 108.432 485.32 110.116H483.086C483.111 108.999 482.946 108.191 482.591 107.691C482.244 107.184 481.732 106.93 481.055 106.93C480.758 106.93 480.458 106.985 480.153 107.095C479.857 107.196 479.548 107.366 479.227 107.603C478.913 107.831 478.579 108.127 478.224 108.491C477.868 108.855 477.487 109.295 477.081 109.812V118H474.847V105.254ZM499.387 110.954C499.387 111.267 499.382 111.53 499.374 111.741C499.366 111.953 499.353 112.152 499.336 112.338H490.386C490.386 113.641 490.75 114.644 491.478 115.347C492.205 116.041 493.255 116.388 494.626 116.388C494.998 116.388 495.371 116.375 495.743 116.35C496.116 116.316 496.475 116.273 496.822 116.223C497.169 116.172 497.499 116.117 497.812 116.058C498.134 115.99 498.43 115.918 498.701 115.842V117.657C498.1 117.826 497.419 117.962 496.657 118.063C495.904 118.174 495.121 118.229 494.309 118.229C493.217 118.229 492.277 118.08 491.49 117.784C490.703 117.488 490.056 117.061 489.548 116.502C489.049 115.935 488.676 115.245 488.431 114.433C488.194 113.612 488.075 112.685 488.075 111.652C488.075 110.755 488.202 109.909 488.456 109.113C488.718 108.309 489.095 107.607 489.586 107.006C490.085 106.396 490.695 105.914 491.414 105.559C492.133 105.203 492.95 105.025 493.864 105.025C494.753 105.025 495.54 105.165 496.226 105.444C496.911 105.724 497.487 106.121 497.952 106.638C498.426 107.146 498.782 107.768 499.019 108.504C499.264 109.232 499.387 110.049 499.387 110.954ZM497.089 110.637C497.114 110.07 497.059 109.553 496.924 109.088C496.788 108.614 496.577 108.208 496.289 107.869C496.01 107.531 495.659 107.268 495.235 107.082C494.812 106.887 494.321 106.79 493.763 106.79C493.28 106.79 492.84 106.883 492.442 107.069C492.045 107.256 491.702 107.518 491.414 107.856C491.126 108.195 490.894 108.601 490.716 109.075C490.538 109.549 490.428 110.07 490.386 110.637H497.089ZM521.553 107.082H517.782V105.254H523.787V116.159H527.583V118H517.363V116.159H521.553V107.082ZM522.327 99.9092C522.573 99.9092 522.801 99.9557 523.013 100.049C523.224 100.133 523.406 100.256 523.559 100.417C523.719 100.578 523.842 100.764 523.927 100.976C524.02 101.179 524.066 101.403 524.066 101.648C524.066 101.885 524.02 102.11 523.927 102.321C523.842 102.533 523.719 102.719 523.559 102.88C523.406 103.041 523.224 103.168 523.013 103.261C522.801 103.345 522.573 103.388 522.327 103.388C522.082 103.388 521.853 103.345 521.642 103.261C521.43 103.168 521.244 103.041 521.083 102.88C520.931 102.719 520.808 102.533 520.715 102.321C520.63 102.11 520.588 101.885 520.588 101.648C520.588 101.403 520.63 101.179 520.715 100.976C520.808 100.764 520.931 100.578 521.083 100.417C521.244 100.256 521.43 100.133 521.642 100.049C521.853 99.9557 522.082 99.9092 522.327 99.9092ZM531.506 105.254H533.474L533.562 107.311C533.935 106.87 534.295 106.507 534.642 106.219C534.989 105.923 535.327 105.686 535.657 105.508C535.996 105.33 536.339 105.207 536.686 105.14C537.033 105.063 537.392 105.025 537.765 105.025C539.076 105.025 540.067 105.415 540.735 106.193C541.412 106.964 541.751 108.127 541.751 109.685V118H539.542V109.862C539.542 108.864 539.356 108.127 538.983 107.653C538.611 107.171 538.057 106.93 537.32 106.93C537.049 106.93 536.783 106.972 536.521 107.057C536.267 107.133 536 107.272 535.721 107.476C535.441 107.67 535.137 107.937 534.807 108.275C534.485 108.614 534.121 109.037 533.715 109.545V118H531.506V105.254ZM570.366 117.822C569.867 117.949 569.351 118.038 568.817 118.089C568.284 118.148 567.743 118.178 567.192 118.178C565.593 118.178 564.399 117.818 563.612 117.099C562.825 116.371 562.432 115.258 562.432 113.76V107.107H558.864V105.254H562.432V101.75L564.641 101.179V105.254H570.366V107.107H564.641V113.582C564.641 114.496 564.882 115.182 565.364 115.639C565.855 116.087 566.575 116.312 567.522 116.312C567.929 116.312 568.373 116.282 568.855 116.223C569.338 116.155 569.841 116.053 570.366 115.918V117.822ZM584.636 118H582.427V109.862C582.427 108.881 582.241 108.148 581.868 107.666C581.504 107.175 580.979 106.93 580.294 106.93C579.998 106.93 579.718 106.972 579.456 107.057C579.202 107.133 578.936 107.272 578.656 107.476C578.377 107.67 578.072 107.937 577.742 108.275C577.412 108.614 577.031 109.037 576.6 109.545V118H574.391V100.062H576.6V105.254L576.523 107.26C576.87 106.845 577.209 106.498 577.539 106.219C577.878 105.931 578.212 105.698 578.542 105.521C578.881 105.343 579.223 105.216 579.57 105.14C579.917 105.063 580.277 105.025 580.649 105.025C581.919 105.025 582.901 105.415 583.595 106.193C584.289 106.964 584.636 108.127 584.636 109.685V118ZM593.027 107.082H589.257V105.254H595.262V116.159H599.058V118H588.838V116.159H593.027V107.082ZM593.802 99.9092C594.047 99.9092 594.276 99.9557 594.487 100.049C594.699 100.133 594.881 100.256 595.033 100.417C595.194 100.578 595.317 100.764 595.401 100.976C595.494 101.179 595.541 101.403 595.541 101.648C595.541 101.885 595.494 102.11 595.401 102.321C595.317 102.533 595.194 102.719 595.033 102.88C594.881 103.041 594.699 103.168 594.487 103.261C594.276 103.345 594.047 103.388 593.802 103.388C593.556 103.388 593.328 103.345 593.116 103.261C592.905 103.168 592.718 103.041 592.558 102.88C592.405 102.719 592.283 102.533 592.189 102.321C592.105 102.11 592.062 101.885 592.062 101.648C592.062 101.403 592.105 101.179 592.189 100.976C592.283 100.764 592.405 100.578 592.558 100.417C592.718 100.256 592.905 100.133 593.116 100.049C593.328 99.9557 593.556 99.9092 593.802 99.9092ZM613.073 114.521C613.073 114.97 612.997 115.372 612.845 115.728C612.692 116.083 612.485 116.4 612.223 116.68C611.96 116.951 611.656 117.183 611.309 117.378C610.962 117.573 610.589 117.733 610.191 117.86C609.802 117.987 609.4 118.08 608.985 118.14C608.571 118.199 608.164 118.229 607.767 118.229C606.903 118.229 606.108 118.19 605.38 118.114C604.66 118.038 603.954 117.915 603.26 117.746V115.715C604.005 115.926 604.745 116.087 605.481 116.197C606.218 116.307 606.95 116.362 607.678 116.362C608.736 116.362 609.519 116.218 610.026 115.931C610.534 115.643 610.788 115.232 610.788 114.699C610.788 114.471 610.746 114.268 610.661 114.09C610.585 113.904 610.441 113.73 610.229 113.569C610.018 113.4 609.688 113.227 609.239 113.049C608.799 112.871 608.194 112.668 607.424 112.439C606.848 112.27 606.315 112.08 605.824 111.868C605.342 111.648 604.923 111.39 604.567 111.094C604.212 110.798 603.933 110.451 603.729 110.053C603.526 109.655 603.425 109.185 603.425 108.644C603.425 108.288 603.505 107.899 603.666 107.476C603.835 107.052 604.119 106.659 604.517 106.295C604.914 105.931 605.452 105.631 606.129 105.394C606.806 105.148 607.652 105.025 608.668 105.025C609.167 105.025 609.722 105.055 610.331 105.114C610.94 105.165 611.575 105.258 612.235 105.394V107.361C611.541 107.192 610.881 107.069 610.255 106.993C609.637 106.909 609.1 106.866 608.643 106.866C608.092 106.866 607.627 106.909 607.246 106.993C606.874 107.078 606.569 107.196 606.332 107.349C606.104 107.493 605.938 107.666 605.837 107.869C605.735 108.064 605.685 108.275 605.685 108.504C605.685 108.732 605.727 108.94 605.812 109.126C605.905 109.312 606.07 109.494 606.307 109.672C606.552 109.841 606.891 110.015 607.322 110.192C607.754 110.362 608.317 110.548 609.011 110.751C609.764 110.971 610.399 111.204 610.915 111.449C611.431 111.686 611.85 111.953 612.172 112.249C612.493 112.545 612.722 112.88 612.857 113.252C613.001 113.624 613.073 114.048 613.073 114.521ZM470.124 136.521C470.124 136.97 470.048 137.372 469.896 137.728C469.743 138.083 469.536 138.4 469.273 138.68C469.011 138.951 468.706 139.183 468.359 139.378C468.012 139.573 467.64 139.733 467.242 139.86C466.853 139.987 466.451 140.08 466.036 140.14C465.621 140.199 465.215 140.229 464.817 140.229C463.954 140.229 463.159 140.19 462.431 140.114C461.711 140.038 461.005 139.915 460.311 139.746V137.715C461.055 137.926 461.796 138.087 462.532 138.197C463.269 138.307 464.001 138.362 464.729 138.362C465.786 138.362 466.569 138.218 467.077 137.931C467.585 137.643 467.839 137.232 467.839 136.699C467.839 136.471 467.797 136.268 467.712 136.09C467.636 135.904 467.492 135.73 467.28 135.569C467.069 135.4 466.739 135.227 466.29 135.049C465.85 134.871 465.245 134.668 464.475 134.439C463.899 134.27 463.366 134.08 462.875 133.868C462.393 133.648 461.974 133.39 461.618 133.094C461.263 132.798 460.983 132.451 460.78 132.053C460.577 131.655 460.476 131.185 460.476 130.644C460.476 130.288 460.556 129.899 460.717 129.476C460.886 129.052 461.17 128.659 461.567 128.295C461.965 127.931 462.503 127.631 463.18 127.394C463.857 127.148 464.703 127.025 465.719 127.025C466.218 127.025 466.772 127.055 467.382 127.114C467.991 127.165 468.626 127.258 469.286 127.394V129.361C468.592 129.192 467.932 129.069 467.306 128.993C466.688 128.909 466.15 128.866 465.693 128.866C465.143 128.866 464.678 128.909 464.297 128.993C463.924 129.078 463.62 129.196 463.383 129.349C463.154 129.493 462.989 129.666 462.888 129.869C462.786 130.064 462.735 130.275 462.735 130.504C462.735 130.732 462.778 130.94 462.862 131.126C462.955 131.312 463.12 131.494 463.357 131.672C463.603 131.841 463.941 132.015 464.373 132.192C464.805 132.362 465.368 132.548 466.062 132.751C466.815 132.971 467.45 133.204 467.966 133.449C468.482 133.686 468.901 133.953 469.223 134.249C469.544 134.545 469.773 134.88 469.908 135.252C470.052 135.624 470.124 136.048 470.124 136.521ZM484.571 140H482.591L482.515 137.943C482.134 138.383 481.77 138.752 481.423 139.048C481.084 139.336 480.746 139.568 480.407 139.746C480.069 139.924 479.726 140.047 479.379 140.114C479.04 140.19 478.681 140.229 478.3 140.229C476.988 140.229 475.998 139.843 475.329 139.073C474.66 138.303 474.326 137.139 474.326 135.582V127.254H476.535V135.404C476.535 137.359 477.271 138.337 478.744 138.337C479.015 138.337 479.277 138.299 479.531 138.223C479.794 138.138 480.064 137.998 480.344 137.804C480.632 137.601 480.936 137.33 481.258 136.991C481.588 136.653 481.956 136.225 482.362 135.709V127.254H484.571V140ZM499.514 133.398C499.514 134.456 499.366 135.404 499.069 136.242C498.782 137.072 498.367 137.778 497.825 138.362C497.292 138.938 496.64 139.382 495.87 139.695C495.1 140 494.232 140.152 493.268 140.152C492.514 140.152 491.744 140.08 490.957 139.937C490.17 139.793 489.391 139.564 488.621 139.251V122.062H490.83V127L490.729 129.361C491.363 128.507 492.04 127.906 492.76 127.559C493.488 127.203 494.266 127.025 495.096 127.025C495.824 127.025 496.463 127.178 497.013 127.482C497.563 127.787 498.024 128.219 498.396 128.777C498.769 129.327 499.048 129.996 499.234 130.783C499.421 131.562 499.514 132.434 499.514 133.398ZM497.254 133.5C497.254 132.831 497.203 132.218 497.102 131.659C497.008 131.101 496.856 130.622 496.645 130.225C496.433 129.827 496.162 129.518 495.832 129.298C495.502 129.069 495.108 128.955 494.651 128.955C494.372 128.955 494.089 129.002 493.801 129.095C493.513 129.179 493.213 129.327 492.899 129.539C492.595 129.742 492.269 130.017 491.922 130.364C491.583 130.703 491.219 131.126 490.83 131.634V137.816C491.262 137.986 491.702 138.121 492.15 138.223C492.599 138.316 493.026 138.362 493.433 138.362C493.94 138.362 494.423 138.282 494.88 138.121C495.345 137.96 495.752 137.694 496.099 137.321C496.454 136.94 496.733 136.441 496.937 135.823C497.148 135.197 497.254 134.423 497.254 133.5ZM513.187 139.822C512.687 139.949 512.171 140.038 511.638 140.089C511.104 140.148 510.563 140.178 510.013 140.178C508.413 140.178 507.22 139.818 506.433 139.099C505.646 138.371 505.252 137.258 505.252 135.76V129.107H501.685V127.254H505.252V123.75L507.461 123.179V127.254H513.187V129.107H507.461V135.582C507.461 136.496 507.702 137.182 508.185 137.639C508.675 138.087 509.395 138.312 510.343 138.312C510.749 138.312 511.193 138.282 511.676 138.223C512.158 138.155 512.662 138.053 513.187 137.918V139.822ZM517.731 127.254H519.75L519.813 129.603C520.567 128.697 521.307 128.041 522.035 127.635C522.771 127.229 523.512 127.025 524.257 127.025C525.577 127.025 526.576 127.453 527.253 128.308C527.938 129.162 528.256 130.432 528.205 132.116H525.971C525.996 130.999 525.831 130.191 525.476 129.691C525.129 129.184 524.617 128.93 523.939 128.93C523.643 128.93 523.343 128.985 523.038 129.095C522.742 129.196 522.433 129.366 522.111 129.603C521.798 129.831 521.464 130.127 521.108 130.491C520.753 130.855 520.372 131.295 519.966 131.812V140H517.731V127.254ZM542.271 132.954C542.271 133.267 542.267 133.53 542.259 133.741C542.25 133.953 542.238 134.152 542.221 134.338H533.271C533.271 135.641 533.634 136.644 534.362 137.347C535.09 138.041 536.14 138.388 537.511 138.388C537.883 138.388 538.256 138.375 538.628 138.35C539 138.316 539.36 138.273 539.707 138.223C540.054 138.172 540.384 138.117 540.697 138.058C541.019 137.99 541.315 137.918 541.586 137.842V139.657C540.985 139.826 540.304 139.962 539.542 140.063C538.789 140.174 538.006 140.229 537.193 140.229C536.102 140.229 535.162 140.08 534.375 139.784C533.588 139.488 532.94 139.061 532.433 138.502C531.933 137.935 531.561 137.245 531.315 136.433C531.078 135.612 530.96 134.685 530.96 133.652C530.96 132.755 531.087 131.909 531.341 131.113C531.603 130.309 531.98 129.607 532.471 129.006C532.97 128.396 533.579 127.914 534.299 127.559C535.018 127.203 535.835 127.025 536.749 127.025C537.638 127.025 538.425 127.165 539.11 127.444C539.796 127.724 540.371 128.121 540.837 128.638C541.311 129.146 541.666 129.768 541.903 130.504C542.149 131.232 542.271 132.049 542.271 132.954ZM539.974 132.637C539.999 132.07 539.944 131.553 539.809 131.088C539.673 130.614 539.462 130.208 539.174 129.869C538.895 129.531 538.543 129.268 538.12 129.082C537.697 128.887 537.206 128.79 536.647 128.79C536.165 128.79 535.725 128.883 535.327 129.069C534.929 129.256 534.587 129.518 534.299 129.856C534.011 130.195 533.778 130.601 533.601 131.075C533.423 131.549 533.313 132.07 533.271 132.637H539.974ZM556.566 132.954C556.566 133.267 556.562 133.53 556.554 133.741C556.545 133.953 556.533 134.152 556.516 134.338H547.565C547.565 135.641 547.929 136.644 548.657 137.347C549.385 138.041 550.435 138.388 551.806 138.388C552.178 138.388 552.55 138.375 552.923 138.35C553.295 138.316 553.655 138.273 554.002 138.223C554.349 138.172 554.679 138.117 554.992 138.058C555.314 137.99 555.61 137.918 555.881 137.842V139.657C555.28 139.826 554.599 139.962 553.837 140.063C553.084 140.174 552.301 140.229 551.488 140.229C550.396 140.229 549.457 140.08 548.67 139.784C547.883 139.488 547.235 139.061 546.728 138.502C546.228 137.935 545.856 137.245 545.61 136.433C545.373 135.612 545.255 134.685 545.255 133.652C545.255 132.755 545.382 131.909 545.636 131.113C545.898 130.309 546.275 129.607 546.766 129.006C547.265 128.396 547.874 127.914 548.594 127.559C549.313 127.203 550.13 127.025 551.044 127.025C551.933 127.025 552.72 127.165 553.405 127.444C554.091 127.724 554.666 128.121 555.132 128.638C555.606 129.146 555.961 129.768 556.198 130.504C556.444 131.232 556.566 132.049 556.566 132.954ZM554.269 132.637C554.294 132.07 554.239 131.553 554.104 131.088C553.968 130.614 553.757 130.208 553.469 129.869C553.189 129.531 552.838 129.268 552.415 129.082C551.992 128.887 551.501 128.79 550.942 128.79C550.46 128.79 550.02 128.883 549.622 129.069C549.224 129.256 548.882 129.518 548.594 129.856C548.306 130.195 548.073 130.601 547.896 131.075C547.718 131.549 547.608 132.07 547.565 132.637H554.269Z" fill="#FF5500"/>
<g style="mix-blend-mode:darken">
<rect x="386.216" y="71" width="62.4261" height="294.169" rx="31.2131" transform="rotate(37.0441 386.216 71)" fill="#FFE0D1"/>
</g>
<g style="mix-blend-mode:darken">
<rect x="289.784" y="215.759" width="62.4261" height="160.149" rx="31.2131" transform="rotate(-37.3586 289.784 215.759)" fill="#FFE0D1"/>
</g>
<g style="mix-blend-mode:darken">
<path d="M359 122.88L415.5 94L486.86 187.485C497.319 201.187 494.691 220.774 480.989 231.235C467.287 241.695 447.699 239.067 437.238 225.365L359 122.88Z" fill="#FFE0D1"/>
</g>
<path d="M267.57 113.195H269.084L269.152 114.777C269.439 114.439 269.715 114.159 269.982 113.938C270.249 113.71 270.51 113.527 270.764 113.391C271.024 113.254 271.288 113.16 271.555 113.107C271.822 113.049 272.098 113.02 272.385 113.02C273.394 113.02 274.156 113.319 274.67 113.918C275.191 114.51 275.451 115.406 275.451 116.604V123H273.752V116.74C273.752 115.972 273.609 115.406 273.322 115.041C273.036 114.67 272.609 114.484 272.043 114.484C271.835 114.484 271.63 114.517 271.428 114.582C271.232 114.641 271.027 114.748 270.812 114.904C270.598 115.054 270.363 115.259 270.109 115.52C269.862 115.78 269.582 116.105 269.27 116.496V123H267.57V113.195ZM287.102 118.02C287.102 118.781 286.994 119.481 286.779 120.119C286.564 120.751 286.255 121.294 285.852 121.75C285.448 122.199 284.956 122.551 284.377 122.805C283.798 123.052 283.14 123.176 282.404 123.176C281.701 123.176 281.07 123.068 280.51 122.854C279.956 122.632 279.484 122.31 279.094 121.887C278.71 121.464 278.413 120.939 278.205 120.314C278.003 119.689 277.902 118.97 277.902 118.156C277.902 117.395 278.01 116.701 278.225 116.076C278.439 115.445 278.749 114.904 279.152 114.455C279.556 113.999 280.048 113.648 280.627 113.4C281.206 113.146 281.864 113.02 282.6 113.02C283.303 113.02 283.931 113.13 284.484 113.352C285.044 113.566 285.516 113.885 285.9 114.309C286.291 114.725 286.587 115.246 286.789 115.871C286.997 116.496 287.102 117.212 287.102 118.02ZM285.363 118.098C285.363 117.492 285.295 116.965 285.158 116.516C285.028 116.06 284.839 115.682 284.592 115.383C284.344 115.077 284.042 114.849 283.684 114.699C283.332 114.543 282.938 114.465 282.502 114.465C281.994 114.465 281.558 114.566 281.193 114.768C280.835 114.963 280.539 115.227 280.305 115.559C280.077 115.891 279.908 116.278 279.797 116.721C279.693 117.157 279.641 117.616 279.641 118.098C279.641 118.703 279.706 119.234 279.836 119.689C279.973 120.145 280.165 120.526 280.412 120.832C280.66 121.132 280.959 121.359 281.311 121.516C281.662 121.665 282.059 121.74 282.502 121.74C283.01 121.74 283.443 121.643 283.801 121.447C284.165 121.245 284.462 120.979 284.689 120.646C284.924 120.314 285.093 119.93 285.197 119.494C285.308 119.051 285.363 118.586 285.363 118.098ZM289.064 118.303C289.064 117.469 289.178 116.73 289.406 116.086C289.634 115.435 289.956 114.888 290.373 114.445C290.796 113.996 291.301 113.658 291.887 113.43C292.479 113.195 293.137 113.078 293.859 113.078C294.172 113.078 294.478 113.098 294.777 113.137C295.083 113.176 295.383 113.238 295.676 113.322V109.201H297.385V123H295.861L295.803 121.145C295.327 121.835 294.813 122.346 294.26 122.678C293.706 123.01 293.107 123.176 292.463 123.176C291.903 123.176 291.408 123.059 290.979 122.824C290.555 122.59 290.201 122.261 289.914 121.838C289.634 121.408 289.423 120.894 289.279 120.295C289.136 119.696 289.064 119.032 289.064 118.303ZM290.803 118.195C290.803 119.38 290.975 120.266 291.32 120.852C291.672 121.431 292.167 121.721 292.805 121.721C293.234 121.721 293.687 121.529 294.162 121.145C294.644 120.76 295.148 120.191 295.676 119.436V114.885C295.396 114.755 295.087 114.657 294.748 114.592C294.41 114.52 294.074 114.484 293.742 114.484C292.818 114.484 292.095 114.784 291.574 115.383C291.06 115.982 290.803 116.919 290.803 118.195ZM308.84 117.58C308.84 117.821 308.837 118.023 308.83 118.186C308.824 118.348 308.814 118.501 308.801 118.645H301.916C301.916 119.647 302.196 120.419 302.756 120.959C303.316 121.493 304.123 121.76 305.178 121.76C305.464 121.76 305.751 121.75 306.037 121.73C306.324 121.704 306.6 121.672 306.867 121.633C307.134 121.594 307.388 121.551 307.629 121.506C307.876 121.454 308.104 121.398 308.312 121.34V122.736C307.85 122.867 307.326 122.971 306.74 123.049C306.161 123.133 305.559 123.176 304.934 123.176C304.094 123.176 303.371 123.062 302.766 122.834C302.16 122.606 301.662 122.277 301.271 121.848C300.887 121.411 300.601 120.881 300.412 120.256C300.23 119.624 300.139 118.911 300.139 118.117C300.139 117.427 300.236 116.776 300.432 116.164C300.633 115.546 300.923 115.005 301.301 114.543C301.685 114.074 302.154 113.703 302.707 113.43C303.26 113.156 303.889 113.02 304.592 113.02C305.275 113.02 305.881 113.127 306.408 113.342C306.936 113.557 307.378 113.863 307.736 114.26C308.101 114.65 308.374 115.129 308.557 115.695C308.745 116.255 308.84 116.883 308.84 117.58ZM307.072 117.336C307.092 116.9 307.049 116.503 306.945 116.145C306.841 115.78 306.678 115.467 306.457 115.207C306.242 114.947 305.972 114.745 305.646 114.602C305.321 114.452 304.943 114.377 304.514 114.377C304.143 114.377 303.804 114.449 303.498 114.592C303.192 114.735 302.928 114.937 302.707 115.197C302.486 115.458 302.307 115.77 302.17 116.135C302.033 116.499 301.949 116.9 301.916 117.336H307.072Z" fill="#666666"/>
<rect x="253" y="102" width="69" height="28" rx="6" stroke="#666666" stroke-width="2"/>
</g>
<defs>
<clipPath id="clip0_6289_6954">
<rect width="630" height="332" fill="white"/>
</clipPath>
</defs>
</svg>
