<svg width="707" height="250" viewBox="0 0 707 250" fill="none" xmlns="http://www.w3.org/2000/svg">
<g clip-path="url(#clip0_6265_3152)">
<rect width="707" height="250" fill="white"/>
<rect x="285" y="55" width="30" height="30" rx="15" fill="#00B2FF" fill-opacity="0.33"/>
<rect x="348" y="55" width="30" height="30" rx="15" fill="#FF5500" fill-opacity="0.33"/>
<rect x="348" y="119" width="30" height="30" rx="15" fill="#FF5500" fill-opacity="0.33"/>
<path d="M241.53 69.71C241.53 70.9795 241.403 72.139 241.149 73.1885C240.896 74.2295 240.51 75.1266 239.994 75.8799C239.478 76.6247 238.835 77.2044 238.064 77.6191C237.303 78.0254 236.406 78.2285 235.373 78.2285C234.484 78.2285 233.676 78.0635 232.948 77.7334C232.22 77.3949 231.598 76.8786 231.082 76.1846C230.566 75.4906 230.168 74.6061 229.889 73.5312C229.609 72.4564 229.47 71.1826 229.47 69.71C229.47 68.4404 229.597 67.2809 229.851 66.2314C230.113 65.182 230.498 64.2848 231.006 63.54C231.522 62.7868 232.165 62.207 232.936 61.8008C233.706 61.3861 234.603 61.1787 235.627 61.1787C236.516 61.1787 237.324 61.348 238.052 61.6865C238.78 62.0166 239.402 62.5329 239.918 63.2354C240.434 63.9294 240.832 64.8138 241.111 65.8887C241.391 66.9635 241.53 68.2373 241.53 69.71ZM239.296 69.7861C239.296 69.4984 239.283 69.2148 239.258 68.9355C239.241 68.6478 239.22 68.3685 239.194 68.0977L232.174 73.3154C232.301 73.7555 232.462 74.1618 232.656 74.5342C232.851 74.9066 233.084 75.2282 233.354 75.499C233.634 75.7614 233.947 75.9688 234.294 76.1211C234.649 76.265 235.051 76.3369 235.5 76.3369C236.076 76.3369 236.596 76.1973 237.062 75.918C237.535 75.6387 237.938 75.224 238.268 74.6738C238.598 74.1237 238.852 73.4424 239.029 72.6299C239.207 71.8089 239.296 70.861 239.296 69.7861ZM231.704 69.6338C231.704 69.8962 231.704 70.1585 231.704 70.4209C231.713 70.6833 231.729 70.9372 231.755 71.1826L238.775 65.9902C238.648 65.5586 238.488 65.165 238.293 64.8096C238.098 64.4541 237.866 64.1494 237.595 63.8955C237.324 63.6331 237.015 63.43 236.668 63.2861C236.321 63.1423 235.932 63.0703 235.5 63.0703C234.924 63.0703 234.4 63.21 233.926 63.4893C233.46 63.7686 233.062 64.1875 232.732 64.7461C232.402 65.2962 232.148 65.9818 231.971 66.8027C231.793 67.6152 231.704 68.5589 231.704 69.6338Z" fill="black"/>
<path d="M306.149 78H295.219V76.0195L299.51 71.7539C300.212 71.0599 300.784 70.459 301.224 69.9512C301.664 69.4434 302.007 68.9821 302.252 68.5674C302.497 68.1442 302.662 67.7464 302.747 67.374C302.832 67.0016 302.874 66.5996 302.874 66.168C302.874 65.7617 302.819 65.3766 302.709 65.0127C302.599 64.6403 302.43 64.3145 302.201 64.0352C301.973 63.7559 301.676 63.5358 301.312 63.375C300.949 63.2142 300.513 63.1338 300.005 63.1338C299.302 63.1338 298.663 63.2904 298.088 63.6035C297.512 63.9167 296.983 64.3229 296.501 64.8223L295.282 63.3623C295.909 62.7021 296.628 62.1732 297.44 61.7754C298.261 61.3776 299.214 61.1787 300.297 61.1787C301.033 61.1787 301.702 61.2887 302.303 61.5088C302.912 61.7288 303.437 62.0462 303.877 62.4609C304.317 62.8757 304.656 63.3835 304.893 63.9844C305.138 64.5853 305.261 65.2624 305.261 66.0156C305.261 66.6504 305.176 67.2386 305.007 67.7803C304.838 68.3219 304.579 68.8636 304.232 69.4053C303.894 69.9385 303.462 70.4928 302.938 71.0684C302.421 71.6439 301.808 72.2744 301.097 72.96L298.088 75.8926H306.149V78Z" fill="black"/>
<path d="M368.73 72.6934C368.73 73.5143 368.553 74.2633 368.197 74.9404C367.842 75.6175 367.351 76.2015 366.725 76.6924C366.107 77.1748 365.375 77.5514 364.528 77.8223C363.682 78.0931 362.768 78.2285 361.786 78.2285C361.541 78.2285 361.274 78.2201 360.986 78.2031C360.707 78.1947 360.428 78.1777 360.148 78.1523C359.869 78.1354 359.594 78.1143 359.323 78.0889C359.061 78.0635 358.824 78.0339 358.612 78V75.9941C359.069 76.1042 359.59 76.1846 360.174 76.2354C360.766 76.2861 361.363 76.3115 361.964 76.3115C362.641 76.3115 363.25 76.2311 363.792 76.0703C364.334 75.9095 364.795 75.681 365.176 75.3848C365.557 75.0801 365.849 74.7161 366.052 74.293C366.255 73.8613 366.356 73.3789 366.356 72.8457C366.356 71.8132 365.984 71.0641 365.239 70.5986C364.503 70.1247 363.441 69.8877 362.053 69.8877H358.904V61.4072H367.842V63.3369H360.986V67.9961H362.434C363.229 67.9961 364.004 68.068 364.757 68.2119C365.51 68.3558 366.179 68.6097 366.763 68.9736C367.355 69.3291 367.829 69.8115 368.185 70.4209C368.549 71.0218 368.73 71.7793 368.73 72.6934Z" fill="black"/>
<path d="M434.353 72.7441C434.353 73.5059 434.213 74.221 433.934 74.8896C433.663 75.5583 433.273 76.1423 432.766 76.6416C432.258 77.1325 431.644 77.5218 430.925 77.8096C430.214 78.0889 429.423 78.2285 428.551 78.2285C427.637 78.2285 426.828 78.0846 426.126 77.7969C425.424 77.5007 424.835 77.0521 424.361 76.4512C423.887 75.8418 423.528 75.0758 423.282 74.1533C423.037 73.2308 422.914 72.139 422.914 70.8779C422.914 70.0316 422.969 69.2106 423.079 68.415C423.189 67.6195 423.371 66.8704 423.625 66.168C423.879 65.4655 424.217 64.8223 424.641 64.2383C425.064 63.6543 425.589 63.1549 426.215 62.7402C426.85 62.3171 427.594 61.9912 428.449 61.7627C429.304 61.5257 430.294 61.4072 431.42 61.4072H433.058V63.3369H431.28C430.29 63.3369 429.431 63.4554 428.703 63.6924C427.975 63.9294 427.366 64.2637 426.875 64.6953C426.384 65.127 426.007 65.6475 425.745 66.2568C425.483 66.8662 425.318 67.5475 425.25 68.3008L425.199 68.8213C425.732 68.5081 426.346 68.2585 427.04 68.0723C427.743 67.8776 428.5 67.7803 429.312 67.7803C430.15 67.7803 430.882 67.903 431.509 68.1484C432.144 68.3939 432.668 68.7367 433.083 69.1768C433.506 69.6084 433.824 70.1289 434.035 70.7383C434.247 71.3477 434.353 72.0163 434.353 72.7441ZM432.042 72.8838C432.042 72.376 431.979 71.9189 431.852 71.5127C431.733 71.098 431.543 70.751 431.28 70.4717C431.018 70.1839 430.684 69.9639 430.277 69.8115C429.88 69.6507 429.401 69.5703 428.843 69.5703C428.521 69.5703 428.195 69.5999 427.865 69.6592C427.535 69.7184 427.209 69.8031 426.888 69.9131C426.575 70.0146 426.274 70.1331 425.986 70.2686C425.699 70.404 425.436 70.5479 425.199 70.7002C425.199 71.792 425.275 72.7061 425.428 73.4424C425.58 74.1702 425.804 74.7542 426.101 75.1943C426.405 75.6344 426.778 75.9476 427.218 76.1338C427.658 76.32 428.166 76.4131 428.741 76.4131C429.224 76.4131 429.664 76.3369 430.062 76.1846C430.468 76.0238 430.815 75.791 431.103 75.4863C431.399 75.1816 431.627 74.8135 431.788 74.3818C431.957 73.9417 432.042 73.4424 432.042 72.8838Z" fill="black"/>
<path d="M497.149 73.8359C497.149 74.5384 497.006 75.1647 496.718 75.7148C496.43 76.2565 496.028 76.7135 495.512 77.0859C494.995 77.4583 494.386 77.7419 493.684 77.9365C492.981 78.1312 492.219 78.2285 491.398 78.2285C490.493 78.2285 489.693 78.127 488.999 77.9238C488.313 77.7207 487.738 77.4372 487.272 77.0732C486.807 76.7093 486.456 76.2777 486.219 75.7783C485.982 75.279 485.863 74.7288 485.863 74.1279C485.863 73.1123 486.147 72.2363 486.714 71.5C487.281 70.7637 488.157 70.0951 489.342 69.4941C488.258 68.944 487.467 68.3346 486.968 67.666C486.468 66.9889 486.219 66.2145 486.219 65.3428C486.219 64.8096 486.329 64.2933 486.549 63.7939C486.769 63.2946 487.099 62.8503 487.539 62.4609C487.988 62.0716 488.546 61.7627 489.215 61.5342C489.883 61.2972 490.671 61.1787 491.576 61.1787C492.431 61.1787 493.18 61.2718 493.823 61.458C494.475 61.6357 495.021 61.8939 495.461 62.2324C495.901 62.571 496.231 62.9814 496.451 63.4639C496.671 63.9463 496.781 64.4837 496.781 65.0762C496.781 66.041 496.51 66.862 495.969 67.5391C495.436 68.2161 494.674 68.8086 493.684 69.3164C494.174 69.5618 494.632 69.8327 495.055 70.1289C495.478 70.4251 495.846 70.7552 496.159 71.1191C496.472 71.4831 496.714 71.8893 496.883 72.3379C497.061 72.7865 497.149 73.2858 497.149 73.8359ZM494.521 65.2539C494.521 64.5007 494.255 63.9421 493.722 63.5781C493.197 63.2057 492.456 63.0195 491.5 63.0195C490.552 63.0195 489.812 63.2015 489.278 63.5654C488.754 63.9294 488.491 64.4753 488.491 65.2031C488.491 65.5332 488.555 65.8379 488.682 66.1172C488.809 66.3965 489.003 66.6589 489.266 66.9043C489.536 67.1497 489.871 67.391 490.269 67.6279C490.666 67.8649 491.14 68.1061 491.69 68.3516C492.647 67.903 493.358 67.4375 493.823 66.9551C494.289 66.4642 494.521 65.8971 494.521 65.2539ZM494.75 74.001C494.75 73.6878 494.699 73.3831 494.598 73.0869C494.496 72.7907 494.314 72.4987 494.052 72.2109C493.789 71.9232 493.438 71.6354 492.998 71.3477C492.558 71.0599 491.999 70.7637 491.322 70.459C490.747 70.7383 490.26 71.0176 489.862 71.2969C489.473 71.5677 489.156 71.847 488.91 72.1348C488.673 72.4141 488.504 72.7061 488.402 73.0107C488.301 73.3154 488.25 73.637 488.25 73.9756C488.25 74.3564 488.33 74.695 488.491 74.9912C488.66 75.279 488.889 75.5244 489.177 75.7275C489.465 75.9307 489.807 76.083 490.205 76.1846C490.603 76.2861 491.035 76.3369 491.5 76.3369C491.949 76.3369 492.372 76.2904 492.77 76.1973C493.167 76.1042 493.51 75.9645 493.798 75.7783C494.094 75.5837 494.327 75.3424 494.496 75.0547C494.665 74.7585 494.75 74.4072 494.75 74.001Z" fill="black"/>
<path d="M205.639 83.2051H199.38V59.6172H205.639V61.3945H201.487V81.4277H205.639V83.2051Z" fill="black"/>
<rect x="285" y="119" width="30" height="30" rx="15" fill="#00B2FF" fill-opacity="0.33"/>
<rect x="474" y="218" width="30" height="30" rx="15" fill="#FF5500" fill-opacity="0.33"/>
<rect x="408" y="218" width="30" height="30" rx="15" fill="#00B2FF" fill-opacity="0.33"/>
<path d="M241.53 133.71C241.53 134.979 241.403 136.139 241.149 137.188C240.896 138.229 240.51 139.127 239.994 139.88C239.478 140.625 238.835 141.204 238.064 141.619C237.303 142.025 236.406 142.229 235.373 142.229C234.484 142.229 233.676 142.063 232.948 141.733C232.22 141.395 231.598 140.879 231.082 140.185C230.566 139.491 230.168 138.606 229.889 137.531C229.609 136.456 229.47 135.183 229.47 133.71C229.47 132.44 229.597 131.281 229.851 130.231C230.113 129.182 230.498 128.285 231.006 127.54C231.522 126.787 232.165 126.207 232.936 125.801C233.706 125.386 234.603 125.179 235.627 125.179C236.516 125.179 237.324 125.348 238.052 125.687C238.78 126.017 239.402 126.533 239.918 127.235C240.434 127.929 240.832 128.814 241.111 129.889C241.391 130.964 241.53 132.237 241.53 133.71ZM239.296 133.786C239.296 133.498 239.283 133.215 239.258 132.936C239.241 132.648 239.22 132.368 239.194 132.098L232.174 137.315C232.301 137.756 232.462 138.162 232.656 138.534C232.851 138.907 233.084 139.228 233.354 139.499C233.634 139.761 233.947 139.969 234.294 140.121C234.649 140.265 235.051 140.337 235.5 140.337C236.076 140.337 236.596 140.197 237.062 139.918C237.535 139.639 237.938 139.224 238.268 138.674C238.598 138.124 238.852 137.442 239.029 136.63C239.207 135.809 239.296 134.861 239.296 133.786ZM231.704 133.634C231.704 133.896 231.704 134.159 231.704 134.421C231.713 134.683 231.729 134.937 231.755 135.183L238.775 129.99C238.648 129.559 238.488 129.165 238.293 128.81C238.098 128.454 237.866 128.149 237.595 127.896C237.324 127.633 237.015 127.43 236.668 127.286C236.321 127.142 235.932 127.07 235.5 127.07C234.924 127.07 234.4 127.21 233.926 127.489C233.46 127.769 233.062 128.188 232.732 128.746C232.402 129.296 232.148 129.982 231.971 130.803C231.793 131.615 231.704 132.559 231.704 133.634Z" fill="black"/>
<path d="M305.832 136.96C305.832 137.688 305.684 138.373 305.388 139.017C305.091 139.651 304.647 140.21 304.055 140.692C303.462 141.166 302.717 141.543 301.82 141.822C300.923 142.093 299.878 142.229 298.685 142.229C298.024 142.229 297.432 142.207 296.907 142.165C296.382 142.123 295.892 142.068 295.435 142V140.02C295.959 140.113 296.514 140.185 297.098 140.235C297.682 140.286 298.278 140.312 298.888 140.312C299.717 140.312 300.424 140.24 301.008 140.096C301.6 139.943 302.083 139.728 302.455 139.448C302.827 139.169 303.098 138.83 303.268 138.433C303.437 138.035 303.521 137.586 303.521 137.087C303.521 136.63 303.42 136.232 303.217 135.894C303.014 135.555 302.726 135.271 302.354 135.043C301.99 134.814 301.549 134.645 301.033 134.535C300.525 134.417 299.967 134.357 299.357 134.357H297.466V132.542H299.383C299.882 132.542 300.335 132.479 300.741 132.352C301.156 132.216 301.507 132.026 301.795 131.78C302.091 131.535 302.315 131.234 302.468 130.879C302.629 130.515 302.709 130.104 302.709 129.647C302.709 128.759 302.438 128.111 301.896 127.705C301.355 127.299 300.559 127.096 299.51 127.096C298.951 127.096 298.376 127.151 297.783 127.261C297.191 127.371 296.556 127.536 295.879 127.756V125.826C296.167 125.725 296.471 125.636 296.793 125.56C297.123 125.475 297.449 125.407 297.771 125.356C298.101 125.297 298.426 125.255 298.748 125.229C299.07 125.196 299.379 125.179 299.675 125.179C300.555 125.179 301.329 125.276 301.998 125.471C302.667 125.657 303.225 125.928 303.674 126.283C304.122 126.639 304.461 127.07 304.689 127.578C304.918 128.086 305.032 128.657 305.032 129.292C305.032 130.24 304.787 131.035 304.296 131.679C303.813 132.322 303.149 132.834 302.303 133.215C302.734 133.283 303.158 133.418 303.572 133.621C303.995 133.824 304.372 134.087 304.702 134.408C305.041 134.721 305.312 135.094 305.515 135.525C305.726 135.957 305.832 136.435 305.832 136.96Z" fill="black"/>
<path d="M369.061 127.464L362.104 142H359.577L366.801 127.464H357.838V125.407H369.061V127.464Z" fill="black"/>
<path d="M205.639 147.205H199.38V123.617H205.639V125.395H201.487V145.428H205.639V147.205Z" fill="black"/>
<path d="M526.915 83.2051H520.656V81.4277H524.782V61.3945H520.656V59.6172H526.915V83.2051Z" fill="black"/>
<path d="M398.915 147.205H392.656V145.428H396.782V125.395H392.656V123.617H398.915V147.205Z" fill="black"/>
<path d="M381.935 24.9006C382.432 24.6604 382.641 24.0626 382.401 23.5653C382.16 23.0679 381.563 22.8593 381.065 23.0994L381.935 24.9006ZM362.676 50.5673C362.99 51.0221 363.612 51.1368 364.067 50.8235L371.479 45.7178C371.934 45.4044 372.048 44.7818 371.735 44.3269C371.422 43.8721 370.799 43.7574 370.344 44.0707L363.756 48.6092L359.218 42.0211C358.904 41.5663 358.282 41.4516 357.827 41.7649C357.372 42.0782 357.257 42.7009 357.571 43.1557L362.676 50.5673ZM381.065 23.0994C373.525 26.7396 368.895 33.4703 366.16 39.1939C364.788 42.0653 363.88 44.7112 363.314 46.6404C363.031 47.6057 362.833 48.3937 362.705 48.9434C362.641 49.2183 362.594 49.4337 362.564 49.5821C362.548 49.6563 362.537 49.7138 362.529 49.7535C362.525 49.7734 362.522 49.7889 362.52 49.7998C362.519 49.8053 362.518 49.8096 362.518 49.8128C362.517 49.8144 362.517 49.8157 362.517 49.8167C362.517 49.8172 362.517 49.8177 362.517 49.818C362.517 49.8184 362.517 49.8188 363.5 50C364.483 50.1812 364.483 50.1814 364.483 50.1816C364.483 50.1816 364.483 50.1817 364.483 50.1816C364.483 50.1814 364.483 50.181 364.484 50.1803C364.484 50.1789 364.484 50.1763 364.485 50.1726C364.486 50.1652 364.489 50.1533 364.492 50.137C364.498 50.1045 364.508 50.0544 364.522 49.9877C364.55 49.8544 364.593 49.6548 364.653 49.3965C364.773 48.8797 364.962 48.1287 365.233 47.2034C365.776 45.3513 366.649 42.8097 367.965 40.0561C370.605 34.5297 374.975 28.2604 381.935 24.9006L381.065 23.0994Z" fill="#FF5500"/>
<path d="M333 58L333 150" stroke="black" stroke-opacity="0.5" stroke-width="2"/>
<path d="M361.527 16.5215C361.527 16.9701 361.451 17.3721 361.299 17.7275C361.146 18.083 360.939 18.4004 360.677 18.6797C360.414 18.9505 360.11 19.1833 359.763 19.3779C359.416 19.5726 359.043 19.7334 358.646 19.8604C358.256 19.9873 357.854 20.0804 357.439 20.1396C357.025 20.1989 356.618 20.2285 356.221 20.2285C355.357 20.2285 354.562 20.1904 353.834 20.1143C353.115 20.0381 352.408 19.9154 351.714 19.7461V17.7148C352.459 17.9264 353.199 18.0872 353.936 18.1973C354.672 18.3073 355.404 18.3623 356.132 18.3623C357.19 18.3623 357.973 18.2184 358.48 17.9307C358.988 17.6429 359.242 17.2324 359.242 16.6992C359.242 16.4707 359.2 16.2676 359.115 16.0898C359.039 15.9036 358.895 15.7301 358.684 15.5693C358.472 15.4001 358.142 15.2266 357.693 15.0488C357.253 14.8711 356.648 14.668 355.878 14.4395C355.302 14.2702 354.769 14.0798 354.278 13.8682C353.796 13.6481 353.377 13.39 353.021 13.0938C352.666 12.7975 352.387 12.4505 352.184 12.0527C351.98 11.6549 351.879 11.1852 351.879 10.6436C351.879 10.2881 351.959 9.89876 352.12 9.47559C352.289 9.05241 352.573 8.65885 352.971 8.29492C353.368 7.93099 353.906 7.63053 354.583 7.39355C355.26 7.14811 356.106 7.02539 357.122 7.02539C357.621 7.02539 358.176 7.05501 358.785 7.11426C359.395 7.16504 360.029 7.25814 360.689 7.39355V9.36133C359.995 9.19206 359.335 9.06934 358.709 8.99316C358.091 8.90853 357.554 8.86621 357.097 8.86621C356.547 8.86621 356.081 8.90853 355.7 8.99316C355.328 9.0778 355.023 9.19629 354.786 9.34863C354.558 9.49251 354.393 9.66602 354.291 9.86914C354.189 10.0638 354.139 10.2754 354.139 10.5039C354.139 10.7324 354.181 10.9398 354.266 11.126C354.359 11.3122 354.524 11.4941 354.761 11.6719C355.006 11.8411 355.345 12.0146 355.776 12.1924C356.208 12.3617 356.771 12.5479 357.465 12.751C358.218 12.971 358.853 13.2038 359.369 13.4492C359.885 13.6862 360.304 13.9528 360.626 14.249C360.948 14.5452 361.176 14.8796 361.312 15.252C361.455 15.6243 361.527 16.0475 361.527 16.5215ZM374.819 20V10.8467C374.819 10.4489 374.802 10.123 374.769 9.86914C374.743 9.61523 374.697 9.41634 374.629 9.27246C374.57 9.12012 374.489 9.01432 374.388 8.95508C374.295 8.89583 374.176 8.86621 374.032 8.86621C373.863 8.86621 373.706 8.91699 373.562 9.01855C373.419 9.12012 373.262 9.28516 373.093 9.51367C372.932 9.74219 372.75 10.0469 372.547 10.4277C372.352 10.8001 372.119 11.2614 371.849 11.8115V20H369.83V11.0879C369.83 10.6224 369.813 10.2458 369.779 9.95801C369.754 9.67025 369.707 9.44596 369.64 9.28516C369.58 9.12435 369.5 9.01432 369.398 8.95508C369.297 8.89583 369.174 8.86621 369.03 8.86621C368.878 8.86621 368.734 8.90853 368.599 8.99316C368.463 9.0778 368.311 9.23014 368.142 9.4502C367.981 9.67025 367.799 9.9707 367.596 10.3516C367.393 10.7324 367.151 11.2191 366.872 11.8115V20H364.841V7.25391H366.529L366.631 9.67871C366.851 9.19629 367.062 8.78581 367.266 8.44727C367.477 8.10872 367.693 7.83789 367.913 7.63477C368.133 7.42318 368.366 7.27083 368.611 7.17773C368.865 7.07617 369.145 7.02539 369.449 7.02539C370.135 7.02539 370.655 7.24967 371.011 7.69824C371.366 8.14681 371.544 8.84082 371.544 9.78027C371.747 9.34017 371.946 8.95085 372.141 8.6123C372.335 8.2653 372.543 7.97754 372.763 7.74902C372.991 7.51204 373.241 7.33431 373.512 7.21582C373.783 7.08887 374.096 7.02539 374.451 7.02539C376.051 7.02539 376.851 8.25684 376.851 10.7197V20H374.819ZM388.213 20L388.162 18.2861C387.468 18.9717 386.761 19.4668 386.042 19.7715C385.331 20.0762 384.582 20.2285 383.795 20.2285C383.067 20.2285 382.445 20.1354 381.929 19.9492C381.412 19.763 380.985 19.5091 380.646 19.1875C380.316 18.8574 380.071 18.4723 379.91 18.0322C379.758 17.5921 379.682 17.1139 379.682 16.5977C379.682 15.3197 380.156 14.321 381.104 13.6016C382.06 12.8737 383.469 12.5098 385.331 12.5098H387.972V11.3926C387.972 10.6393 387.73 10.0384 387.248 9.58984C386.766 9.13281 386.029 8.9043 385.039 8.9043C384.32 8.9043 383.609 8.9847 382.906 9.14551C382.212 9.30632 381.493 9.53483 380.748 9.83105V7.83789C381.027 7.73633 381.336 7.639 381.675 7.5459C382.022 7.44434 382.386 7.35547 382.767 7.2793C383.147 7.20312 383.545 7.14388 383.96 7.10156C384.375 7.05078 384.794 7.02539 385.217 7.02539C385.987 7.02539 386.681 7.11003 387.299 7.2793C387.917 7.44857 388.437 7.70671 388.86 8.05371C389.292 8.40072 389.622 8.83659 389.851 9.36133C390.079 9.88607 390.193 10.5039 390.193 11.2148V20H388.213ZM387.972 14.1982H385.166C384.616 14.1982 384.142 14.2533 383.744 14.3633C383.346 14.4733 383.021 14.6299 382.767 14.833C382.513 15.0361 382.322 15.2816 382.195 15.5693C382.077 15.8486 382.018 16.166 382.018 16.5215C382.018 16.7669 382.056 17.0039 382.132 17.2324C382.208 17.4525 382.331 17.6514 382.5 17.8291C382.669 17.9984 382.889 18.1338 383.16 18.2354C383.431 18.3369 383.761 18.3877 384.15 18.3877C384.658 18.3877 385.238 18.2354 385.89 17.9307C386.55 17.6175 387.244 17.1266 387.972 16.458V14.1982ZM398.661 3.87695H394.891V2.06152H400.896V18.1592H404.691V20H394.472V18.1592H398.661V3.87695ZM412.956 3.87695H409.186V2.06152H415.19V18.1592H418.986V20H408.767V18.1592H412.956V3.87695ZM433.675 12.9541C433.675 13.2673 433.671 13.5296 433.662 13.7412C433.654 13.9528 433.641 14.1517 433.624 14.3379H424.674C424.674 15.6413 425.038 16.6442 425.766 17.3467C426.493 18.0407 427.543 18.3877 428.914 18.3877C429.286 18.3877 429.659 18.375 430.031 18.3496C430.404 18.3158 430.763 18.2734 431.11 18.2227C431.457 18.1719 431.787 18.1169 432.101 18.0576C432.422 17.9899 432.718 17.918 432.989 17.8418V19.6572C432.388 19.8265 431.707 19.9619 430.945 20.0635C430.192 20.1735 429.409 20.2285 428.597 20.2285C427.505 20.2285 426.565 20.0804 425.778 19.7842C424.991 19.488 424.344 19.0605 423.836 18.502C423.337 17.9349 422.964 17.2451 422.719 16.4326C422.482 15.6117 422.363 14.6849 422.363 13.6523C422.363 12.7552 422.49 11.9089 422.744 11.1133C423.007 10.3092 423.383 9.60677 423.874 9.00586C424.373 8.39648 424.983 7.91406 425.702 7.55859C426.422 7.20312 427.238 7.02539 428.152 7.02539C429.041 7.02539 429.828 7.16504 430.514 7.44434C431.199 7.72363 431.775 8.12142 432.24 8.6377C432.714 9.14551 433.07 9.76758 433.307 10.5039C433.552 11.2318 433.675 12.0485 433.675 12.9541ZM431.377 12.6367C431.402 12.0697 431.347 11.5534 431.212 11.0879C431.076 10.6139 430.865 10.2077 430.577 9.86914C430.298 9.5306 429.947 9.26823 429.523 9.08203C429.1 8.88737 428.609 8.79004 428.051 8.79004C427.568 8.79004 427.128 8.88314 426.73 9.06934C426.333 9.25553 425.99 9.5179 425.702 9.85645C425.414 10.195 425.182 10.6012 425.004 11.0752C424.826 11.5492 424.716 12.0697 424.674 12.6367H431.377ZM447.297 16.5215C447.297 16.9701 447.221 17.3721 447.068 17.7275C446.916 18.083 446.709 18.4004 446.446 18.6797C446.184 18.9505 445.879 19.1833 445.532 19.3779C445.185 19.5726 444.813 19.7334 444.415 19.8604C444.026 19.9873 443.624 20.0804 443.209 20.1396C442.794 20.1989 442.388 20.2285 441.99 20.2285C441.127 20.2285 440.331 20.1904 439.604 20.1143C438.884 20.0381 438.177 19.9154 437.483 19.7461V17.7148C438.228 17.9264 438.969 18.0872 439.705 18.1973C440.441 18.3073 441.174 18.3623 441.901 18.3623C442.959 18.3623 443.742 18.2184 444.25 17.9307C444.758 17.6429 445.012 17.2324 445.012 16.6992C445.012 16.4707 444.969 16.2676 444.885 16.0898C444.809 15.9036 444.665 15.7301 444.453 15.5693C444.242 15.4001 443.911 15.2266 443.463 15.0488C443.023 14.8711 442.418 14.668 441.647 14.4395C441.072 14.2702 440.539 14.0798 440.048 13.8682C439.565 13.6481 439.146 13.39 438.791 13.0938C438.436 12.7975 438.156 12.4505 437.953 12.0527C437.75 11.6549 437.648 11.1852 437.648 10.6436C437.648 10.2881 437.729 9.89876 437.89 9.47559C438.059 9.05241 438.342 8.65885 438.74 8.29492C439.138 7.93099 439.675 7.63053 440.353 7.39355C441.03 7.14811 441.876 7.02539 442.892 7.02539C443.391 7.02539 443.945 7.05501 444.555 7.11426C445.164 7.16504 445.799 7.25814 446.459 7.39355V9.36133C445.765 9.19206 445.105 9.06934 444.479 8.99316C443.861 8.90853 443.323 8.86621 442.866 8.86621C442.316 8.86621 441.851 8.90853 441.47 8.99316C441.097 9.0778 440.793 9.19629 440.556 9.34863C440.327 9.49251 440.162 9.66602 440.061 9.86914C439.959 10.0638 439.908 10.2754 439.908 10.5039C439.908 10.7324 439.951 10.9398 440.035 11.126C440.128 11.3122 440.293 11.4941 440.53 11.6719C440.776 11.8411 441.114 12.0146 441.546 12.1924C441.978 12.3617 442.54 12.5479 443.234 12.751C443.988 12.971 444.622 13.2038 445.139 13.4492C445.655 13.6862 446.074 13.9528 446.396 14.249C446.717 14.5452 446.946 14.8796 447.081 15.252C447.225 15.6243 447.297 16.0475 447.297 16.5215ZM461.77 19.8223C461.27 19.9492 460.754 20.0381 460.221 20.0889C459.688 20.1481 459.146 20.1777 458.596 20.1777C456.996 20.1777 455.803 19.818 455.016 19.0986C454.229 18.3708 453.835 17.2578 453.835 15.7598V9.10742H450.268V7.25391H453.835V3.75L456.044 3.17871V7.25391H461.77V9.10742H456.044V15.582C456.044 16.4961 456.285 17.1816 456.768 17.6387C457.258 18.0872 457.978 18.3115 458.926 18.3115C459.332 18.3115 459.776 18.2819 460.259 18.2227C460.741 18.1549 461.245 18.0534 461.77 17.918V19.8223ZM491.185 13.5254C491.185 14.5156 491.045 15.4255 490.766 16.2549C490.486 17.0758 490.084 17.7826 489.56 18.375C489.035 18.959 488.396 19.416 487.643 19.7461C486.889 20.0677 486.035 20.2285 485.078 20.2285C484.164 20.2285 483.343 20.0889 482.615 19.8096C481.896 19.5218 481.282 19.1029 480.774 18.5527C480.275 18.0026 479.89 17.3213 479.619 16.5088C479.357 15.6963 479.226 14.7611 479.226 13.7031C479.226 12.7129 479.365 11.8115 479.645 10.999C479.924 10.1781 480.326 9.47559 480.851 8.8916C481.375 8.29915 482.014 7.84212 482.768 7.52051C483.521 7.19043 484.376 7.02539 485.332 7.02539C486.246 7.02539 487.063 7.16927 487.782 7.45703C488.51 7.73633 489.124 8.15104 489.623 8.70117C490.131 9.24284 490.516 9.91992 490.778 10.7324C491.049 11.5449 491.185 12.4759 491.185 13.5254ZM488.925 13.627C488.925 12.8398 488.836 12.1543 488.658 11.5703C488.489 10.9779 488.243 10.487 487.922 10.0977C487.6 9.69987 487.207 9.40365 486.741 9.20898C486.284 9.00586 485.772 8.9043 485.205 8.9043C484.545 8.9043 483.978 9.03548 483.504 9.29785C483.038 9.55176 482.653 9.89453 482.349 10.3262C482.052 10.7578 481.832 11.2614 481.688 11.8369C481.553 12.404 481.485 13.0007 481.485 13.627C481.485 14.4141 481.57 15.1038 481.739 15.6963C481.917 16.2887 482.167 16.7839 482.488 17.1816C482.81 17.571 483.199 17.8672 483.656 18.0703C484.113 18.265 484.63 18.3623 485.205 18.3623C485.865 18.3623 486.428 18.2354 486.894 17.9814C487.368 17.7191 487.753 17.3721 488.049 16.9404C488.354 16.5088 488.574 16.0094 488.709 15.4424C488.853 14.8669 488.925 14.2617 488.925 13.627ZM494.384 7.25391H496.352L496.44 9.31055C496.813 8.87044 497.173 8.50651 497.52 8.21875C497.867 7.92253 498.205 7.68555 498.535 7.50781C498.874 7.33008 499.216 7.20736 499.563 7.13965C499.91 7.06348 500.27 7.02539 500.643 7.02539C501.954 7.02539 502.945 7.41471 503.613 8.19336C504.29 8.96354 504.629 10.1273 504.629 11.6846V20H502.42V11.8623C502.42 10.8636 502.234 10.1273 501.861 9.65332C501.489 9.1709 500.935 8.92969 500.198 8.92969C499.927 8.92969 499.661 8.97201 499.398 9.05664C499.145 9.13281 498.878 9.27246 498.599 9.47559C498.319 9.67025 498.015 9.93685 497.685 10.2754C497.363 10.6139 496.999 11.0371 496.593 11.5449V20H494.384V7.25391ZM533.244 19.8223C532.745 19.9492 532.229 20.0381 531.695 20.0889C531.162 20.1481 530.62 20.1777 530.07 20.1777C528.471 20.1777 527.277 19.818 526.49 19.0986C525.703 18.3708 525.31 17.2578 525.31 15.7598V9.10742H521.742V7.25391H525.31V3.75L527.519 3.17871V7.25391H533.244V9.10742H527.519V15.582C527.519 16.4961 527.76 17.1816 528.242 17.6387C528.733 18.0872 529.452 18.3115 530.4 18.3115C530.807 18.3115 531.251 18.2819 531.733 18.2227C532.216 18.1549 532.719 18.0534 533.244 17.918V19.8223ZM547.514 20H545.305V11.8623C545.305 10.8805 545.118 10.1484 544.746 9.66602C544.382 9.17513 543.857 8.92969 543.172 8.92969C542.876 8.92969 542.596 8.97201 542.334 9.05664C542.08 9.13281 541.813 9.27246 541.534 9.47559C541.255 9.67025 540.95 9.93685 540.62 10.2754C540.29 10.6139 539.909 11.0371 539.478 11.5449V20H537.269V2.06152H539.478V7.25391L539.401 9.25977C539.748 8.84505 540.087 8.49805 540.417 8.21875C540.756 7.93099 541.09 7.69824 541.42 7.52051C541.758 7.34277 542.101 7.21582 542.448 7.13965C542.795 7.06348 543.155 7.02539 543.527 7.02539C544.797 7.02539 545.779 7.41471 546.473 8.19336C547.167 8.96354 547.514 10.1273 547.514 11.6846V20ZM562.329 12.9541C562.329 13.2673 562.325 13.5296 562.316 13.7412C562.308 13.9528 562.295 14.1517 562.278 14.3379H553.328C553.328 15.6413 553.692 16.6442 554.42 17.3467C555.148 18.0407 556.197 18.3877 557.568 18.3877C557.941 18.3877 558.313 18.375 558.686 18.3496C559.058 18.3158 559.418 18.2734 559.765 18.2227C560.112 18.1719 560.442 18.1169 560.755 18.0576C561.076 17.9899 561.373 17.918 561.644 17.8418V19.6572C561.043 19.8265 560.361 19.9619 559.6 20.0635C558.846 20.1735 558.063 20.2285 557.251 20.2285C556.159 20.2285 555.22 20.0804 554.433 19.7842C553.646 19.488 552.998 19.0605 552.49 18.502C551.991 17.9349 551.618 17.2451 551.373 16.4326C551.136 15.6117 551.018 14.6849 551.018 13.6523C551.018 12.7552 551.145 11.9089 551.398 11.1133C551.661 10.3092 552.037 9.60677 552.528 9.00586C553.028 8.39648 553.637 7.91406 554.356 7.55859C555.076 7.20312 555.893 7.02539 556.807 7.02539C557.695 7.02539 558.482 7.16504 559.168 7.44434C559.854 7.72363 560.429 8.12142 560.895 8.6377C561.368 9.14551 561.724 9.76758 561.961 10.5039C562.206 11.2318 562.329 12.0485 562.329 12.9541ZM560.031 12.6367C560.057 12.0697 560.002 11.5534 559.866 11.0879C559.731 10.6139 559.519 10.2077 559.231 9.86914C558.952 9.5306 558.601 9.26823 558.178 9.08203C557.755 8.88737 557.264 8.79004 556.705 8.79004C556.223 8.79004 555.783 8.88314 555.385 9.06934C554.987 9.25553 554.644 9.5179 554.356 9.85645C554.069 10.195 553.836 10.6012 553.658 11.0752C553.48 11.5492 553.37 12.0697 553.328 12.6367H560.031ZM580.674 7.25391H582.692L582.756 9.60254C583.509 8.69694 584.25 8.04102 584.978 7.63477C585.714 7.22852 586.454 7.02539 587.199 7.02539C588.52 7.02539 589.518 7.4528 590.195 8.30762C590.881 9.16243 591.198 10.432 591.147 12.1162H588.913C588.938 10.999 588.773 10.1908 588.418 9.69141C588.071 9.18359 587.559 8.92969 586.882 8.92969C586.586 8.92969 586.285 8.9847 585.98 9.09473C585.684 9.19629 585.375 9.36556 585.054 9.60254C584.741 9.83105 584.406 10.1273 584.051 10.4912C583.695 10.8551 583.314 11.2952 582.908 11.8115V20H580.674V7.25391ZM598.79 9.08203H595.02V7.25391H601.024V18.1592H604.82V20H594.601V18.1592H598.79V9.08203ZM599.564 1.90918C599.81 1.90918 600.038 1.95573 600.25 2.04883C600.462 2.13346 600.644 2.25618 600.796 2.41699C600.957 2.5778 601.079 2.764 601.164 2.97559C601.257 3.17871 601.304 3.40299 601.304 3.64844C601.304 3.88542 601.257 4.1097 601.164 4.32129C601.079 4.53288 600.957 4.71908 600.796 4.87988C600.644 5.04069 600.462 5.16764 600.25 5.26074C600.038 5.34538 599.81 5.3877 599.564 5.3877C599.319 5.3877 599.09 5.34538 598.879 5.26074C598.667 5.16764 598.481 5.04069 598.32 4.87988C598.168 4.71908 598.045 4.53288 597.952 4.32129C597.868 4.1097 597.825 3.88542 597.825 3.64844C597.825 3.40299 597.868 3.17871 597.952 2.97559C598.045 2.764 598.168 2.5778 598.32 2.41699C598.481 2.25618 598.667 2.13346 598.879 2.04883C599.09 1.95573 599.319 1.90918 599.564 1.90918ZM617.922 9.05664C618.159 9.35286 618.341 9.69987 618.468 10.0977C618.603 10.487 618.671 10.9102 618.671 11.3672C618.671 12.0273 618.548 12.6325 618.303 13.1826C618.066 13.7243 617.727 14.1898 617.287 14.5791C616.847 14.9684 616.318 15.2731 615.7 15.4932C615.091 15.7048 614.418 15.8105 613.682 15.8105C613.148 15.8105 612.649 15.7555 612.184 15.6455C611.718 15.527 611.35 15.3831 611.079 15.2139C610.918 15.4508 610.783 15.6751 610.673 15.8867C610.563 16.0983 610.508 16.3353 610.508 16.5977C610.508 16.9193 610.66 17.1859 610.965 17.3975C611.278 17.609 611.688 17.7233 612.196 17.7402L615.548 17.8672C616.183 17.8841 616.767 17.9645 617.3 18.1084C617.841 18.2523 618.303 18.4596 618.684 18.7305C619.073 19.0013 619.373 19.3356 619.585 19.7334C619.805 20.1312 619.915 20.5924 619.915 21.1172C619.915 21.6842 619.792 22.2217 619.547 22.7295C619.301 23.2373 618.921 23.6816 618.404 24.0625C617.896 24.4518 617.249 24.7607 616.462 24.9893C615.675 25.2178 614.74 25.332 613.656 25.332C612.624 25.332 611.743 25.2474 611.016 25.0781C610.296 24.9173 609.704 24.6888 609.238 24.3926C608.773 24.1048 608.434 23.7578 608.223 23.3516C608.011 22.9538 607.905 22.5137 607.905 22.0312C607.905 21.4134 608.049 20.8717 608.337 20.4062C608.625 19.9408 609.069 19.4922 609.67 19.0605C609.45 18.959 609.259 18.832 609.099 18.6797C608.938 18.5273 608.807 18.3623 608.705 18.1846C608.604 17.9984 608.527 17.8037 608.477 17.6006C608.426 17.3975 608.4 17.1986 608.4 17.0039C608.4 16.4538 608.527 15.9502 608.781 15.4932C609.044 15.0361 609.353 14.6045 609.708 14.1982C609.547 14.0036 609.403 13.8132 609.276 13.627C609.158 13.4408 609.052 13.2419 608.959 13.0303C608.874 12.8102 608.807 12.5775 608.756 12.332C608.714 12.0781 608.692 11.7904 608.692 11.4688C608.692 10.8086 608.811 10.2077 609.048 9.66602C609.293 9.11589 609.632 8.64616 610.063 8.25684C610.504 7.86751 611.028 7.56706 611.638 7.35547C612.256 7.13542 612.937 7.02539 613.682 7.02539C613.995 7.02539 614.295 7.04655 614.583 7.08887C614.871 7.13118 615.125 7.1862 615.345 7.25391H619.966V9.05664H617.922ZM610.254 21.8408C610.254 22.4417 610.567 22.8776 611.193 23.1484C611.82 23.4277 612.691 23.5674 613.809 23.5674C614.511 23.5674 615.099 23.5039 615.573 23.377C616.056 23.25 616.441 23.0807 616.729 22.8691C617.025 22.666 617.236 22.429 617.363 22.1582C617.49 21.8958 617.554 21.625 617.554 21.3457C617.554 20.8294 617.342 20.4486 616.919 20.2031C616.496 19.9577 615.848 19.8138 614.977 19.7715L611.65 19.6572C611.371 19.8434 611.138 20.0254 610.952 20.2031C610.774 20.3809 610.635 20.5586 610.533 20.7363C610.432 20.9225 610.36 21.1045 610.317 21.2822C610.275 21.4684 610.254 21.6546 610.254 21.8408ZM610.927 11.418C610.927 11.8242 610.994 12.1966 611.13 12.5352C611.265 12.8737 611.456 13.1615 611.701 13.3984C611.947 13.6354 612.234 13.8216 612.564 13.957C612.903 14.084 613.275 14.1475 613.682 14.1475C614.122 14.1475 614.511 14.0755 614.85 13.9316C615.197 13.7793 615.484 13.5762 615.713 13.3223C615.95 13.0684 616.128 12.7764 616.246 12.4463C616.373 12.1162 616.437 11.7734 616.437 11.418C616.437 11.0117 616.369 10.6393 616.233 10.3008C616.098 9.96224 615.908 9.67448 615.662 9.4375C615.417 9.20052 615.125 9.01855 614.786 8.8916C614.456 8.75618 614.088 8.68848 613.682 8.68848C613.242 8.68848 612.848 8.76465 612.501 8.91699C612.162 9.06934 611.875 9.27246 611.638 9.52637C611.409 9.77181 611.231 10.0596 611.104 10.3896C610.986 10.7197 610.927 11.0625 610.927 11.418ZM633.283 20H631.074V11.8623C631.074 10.8805 630.888 10.1484 630.516 9.66602C630.152 9.17513 629.627 8.92969 628.941 8.92969C628.645 8.92969 628.366 8.97201 628.104 9.05664C627.85 9.13281 627.583 9.27246 627.304 9.47559C627.024 9.67025 626.72 9.93685 626.39 10.2754C626.06 10.6139 625.679 11.0371 625.247 11.5449V20H623.038V2.06152H625.247V7.25391L625.171 9.25977C625.518 8.84505 625.856 8.49805 626.187 8.21875C626.525 7.93099 626.859 7.69824 627.189 7.52051C627.528 7.34277 627.871 7.21582 628.218 7.13965C628.565 7.06348 628.924 7.02539 629.297 7.02539C630.566 7.02539 631.548 7.41471 632.242 8.19336C632.936 8.96354 633.283 10.1273 633.283 11.6846V20ZM647.604 19.8223C647.104 19.9492 646.588 20.0381 646.055 20.0889C645.521 20.1481 644.98 20.1777 644.43 20.1777C642.83 20.1777 641.637 19.818 640.85 19.0986C640.062 18.3708 639.669 17.2578 639.669 15.7598V9.10742H636.102V7.25391H639.669V3.75L641.878 3.17871V7.25391H647.604V9.10742H641.878V15.582C641.878 16.4961 642.119 17.1816 642.602 17.6387C643.092 18.0872 643.812 18.3115 644.76 18.3115C645.166 18.3115 645.61 18.2819 646.093 18.2227C646.575 18.1549 647.079 18.0534 647.604 17.918V19.8223Z" fill="#FF5500"/>
<path d="M272.741 176.534C272.208 176.677 271.891 177.225 272.034 177.759C272.177 178.292 272.725 178.609 273.259 178.466L272.741 176.534ZM295.435 154.739C295.153 154.264 294.539 154.108 294.065 154.39L286.327 158.987C285.852 159.269 285.696 159.883 285.978 160.358C286.26 160.833 286.874 160.989 287.349 160.707L294.226 156.62L298.313 163.498C298.595 163.973 299.208 164.129 299.683 163.847C300.158 163.565 300.314 162.951 300.032 162.477L295.435 154.739ZM273.259 178.466C282.107 176.095 287.682 170.33 291.028 165.206C292.702 162.643 293.827 160.229 294.534 158.453C294.888 157.565 295.139 156.834 295.302 156.321C295.383 156.065 295.443 155.863 295.482 155.723C295.502 155.653 295.517 155.599 295.528 155.561C295.533 155.542 295.537 155.527 295.539 155.516C295.541 155.511 295.542 155.506 295.543 155.503C295.543 155.502 295.544 155.5 295.544 155.499C295.544 155.499 295.544 155.498 295.544 155.498C295.544 155.497 295.544 155.497 294.575 155.25C293.606 155.003 293.606 155.003 293.606 155.003C293.606 155.003 293.606 155.002 293.606 155.002C293.606 155.002 293.606 155.003 293.606 155.003C293.606 155.004 293.605 155.006 293.605 155.01C293.603 155.016 293.6 155.026 293.596 155.041C293.588 155.07 293.576 155.115 293.559 155.176C293.524 155.297 293.471 155.48 293.396 155.716C293.246 156.188 293.011 156.873 292.676 157.713C292.007 159.394 290.939 161.685 289.354 164.112C286.181 168.97 280.969 174.33 272.741 176.534L273.259 178.466Z" fill="#00B2FF"/>
<path d="M34.5713 183.877H30.8008V182.062H36.8057V198.159H40.6016V200H30.3818V198.159H34.5713V183.877ZM52.7129 200L52.6621 198.286C51.9681 198.972 51.2614 199.467 50.542 199.771C49.8311 200.076 49.082 200.229 48.2949 200.229C47.5671 200.229 46.945 200.135 46.4287 199.949C45.9124 199.763 45.485 199.509 45.1465 199.188C44.8164 198.857 44.571 198.472 44.4102 198.032C44.2578 197.592 44.1816 197.114 44.1816 196.598C44.1816 195.32 44.6556 194.321 45.6035 193.602C46.5599 192.874 47.9691 192.51 49.8311 192.51H52.4717V191.393C52.4717 190.639 52.2305 190.038 51.748 189.59C51.2656 189.133 50.5293 188.904 49.5391 188.904C48.8197 188.904 48.1087 188.985 47.4062 189.146C46.7122 189.306 45.9928 189.535 45.248 189.831V187.838C45.5273 187.736 45.8363 187.639 46.1748 187.546C46.5218 187.444 46.8857 187.355 47.2666 187.279C47.6475 187.203 48.0452 187.144 48.46 187.102C48.8747 187.051 49.2936 187.025 49.7168 187.025C50.487 187.025 51.181 187.11 51.7988 187.279C52.4167 187.449 52.9372 187.707 53.3604 188.054C53.792 188.401 54.1221 188.837 54.3506 189.361C54.5791 189.886 54.6934 190.504 54.6934 191.215V200H52.7129ZM52.4717 194.198H49.666C49.1159 194.198 48.6419 194.253 48.2441 194.363C47.8464 194.473 47.5205 194.63 47.2666 194.833C47.0127 195.036 46.8223 195.282 46.6953 195.569C46.5768 195.849 46.5176 196.166 46.5176 196.521C46.5176 196.767 46.5557 197.004 46.6318 197.232C46.708 197.452 46.8307 197.651 47 197.829C47.1693 197.998 47.3893 198.134 47.6602 198.235C47.931 198.337 48.2611 198.388 48.6504 198.388C49.1582 198.388 49.738 198.235 50.3896 197.931C51.0498 197.618 51.7438 197.127 52.4717 196.458V194.198ZM59.3398 187.254H61.3584L61.4219 189.603C62.1751 188.697 62.9157 188.041 63.6436 187.635C64.3799 187.229 65.1204 187.025 65.8652 187.025C67.1855 187.025 68.1842 187.453 68.8613 188.308C69.5469 189.162 69.8643 190.432 69.8135 192.116H67.5791C67.6045 190.999 67.4395 190.191 67.084 189.691C66.737 189.184 66.2249 188.93 65.5479 188.93C65.2516 188.93 64.9512 188.985 64.6465 189.095C64.3503 189.196 64.0413 189.366 63.7197 189.603C63.4066 189.831 63.0723 190.127 62.7168 190.491C62.3613 190.855 61.9805 191.295 61.5742 191.812V200H59.3398V187.254ZM82.293 189.057C82.5299 189.353 82.7119 189.7 82.8389 190.098C82.9743 190.487 83.042 190.91 83.042 191.367C83.042 192.027 82.9193 192.632 82.6738 193.183C82.4368 193.724 82.0983 194.19 81.6582 194.579C81.2181 194.968 80.6891 195.273 80.0713 195.493C79.4619 195.705 78.7891 195.811 78.0527 195.811C77.5195 195.811 77.0202 195.756 76.5547 195.646C76.0892 195.527 75.721 195.383 75.4502 195.214C75.2894 195.451 75.154 195.675 75.0439 195.887C74.9339 196.098 74.8789 196.335 74.8789 196.598C74.8789 196.919 75.0312 197.186 75.3359 197.397C75.6491 197.609 76.0596 197.723 76.5674 197.74L79.9189 197.867C80.5537 197.884 81.1377 197.965 81.6709 198.108C82.2126 198.252 82.6738 198.46 83.0547 198.73C83.444 199.001 83.7445 199.336 83.9561 199.733C84.1761 200.131 84.2861 200.592 84.2861 201.117C84.2861 201.684 84.1634 202.222 83.918 202.729C83.6725 203.237 83.2917 203.682 82.7754 204.062C82.2676 204.452 81.6201 204.761 80.833 204.989C80.0459 205.218 79.1107 205.332 78.0273 205.332C76.9948 205.332 76.1146 205.247 75.3867 205.078C74.6673 204.917 74.0749 204.689 73.6094 204.393C73.1439 204.105 72.8053 203.758 72.5938 203.352C72.3822 202.954 72.2764 202.514 72.2764 202.031C72.2764 201.413 72.4202 200.872 72.708 200.406C72.9958 199.941 73.4401 199.492 74.041 199.061C73.821 198.959 73.6305 198.832 73.4697 198.68C73.3089 198.527 73.1777 198.362 73.0762 198.185C72.9746 197.998 72.8984 197.804 72.8477 197.601C72.7969 197.397 72.7715 197.199 72.7715 197.004C72.7715 196.454 72.8984 195.95 73.1523 195.493C73.4147 195.036 73.7236 194.604 74.0791 194.198C73.9183 194.004 73.7744 193.813 73.6475 193.627C73.529 193.441 73.4232 193.242 73.3301 193.03C73.2454 192.81 73.1777 192.577 73.127 192.332C73.0846 192.078 73.0635 191.79 73.0635 191.469C73.0635 190.809 73.182 190.208 73.4189 189.666C73.6644 189.116 74.0029 188.646 74.4346 188.257C74.8747 187.868 75.3994 187.567 76.0088 187.355C76.6266 187.135 77.3079 187.025 78.0527 187.025C78.3659 187.025 78.6663 187.047 78.9541 187.089C79.2419 187.131 79.4958 187.186 79.7158 187.254H84.3369V189.057H82.293ZM74.625 201.841C74.625 202.442 74.9382 202.878 75.5645 203.148C76.1908 203.428 77.0625 203.567 78.1797 203.567C78.8822 203.567 79.4704 203.504 79.9443 203.377C80.4268 203.25 80.8118 203.081 81.0996 202.869C81.3958 202.666 81.6074 202.429 81.7344 202.158C81.8613 201.896 81.9248 201.625 81.9248 201.346C81.9248 200.829 81.7132 200.449 81.29 200.203C80.8669 199.958 80.2194 199.814 79.3477 199.771L76.0215 199.657C75.7422 199.843 75.5094 200.025 75.3232 200.203C75.1455 200.381 75.0059 200.559 74.9043 200.736C74.8027 200.923 74.7308 201.104 74.6885 201.282C74.6462 201.468 74.625 201.655 74.625 201.841ZM75.2979 191.418C75.2979 191.824 75.3656 192.197 75.501 192.535C75.6364 192.874 75.8268 193.161 76.0723 193.398C76.3177 193.635 76.6055 193.822 76.9355 193.957C77.2741 194.084 77.6465 194.147 78.0527 194.147C78.4928 194.147 78.8822 194.076 79.2207 193.932C79.5677 193.779 79.8555 193.576 80.084 193.322C80.321 193.068 80.4987 192.776 80.6172 192.446C80.7441 192.116 80.8076 191.773 80.8076 191.418C80.8076 191.012 80.7399 190.639 80.6045 190.301C80.4691 189.962 80.2786 189.674 80.0332 189.438C79.7878 189.201 79.4958 189.019 79.1572 188.892C78.8271 188.756 78.459 188.688 78.0527 188.688C77.6126 188.688 77.2191 188.765 76.8721 188.917C76.5335 189.069 76.2458 189.272 76.0088 189.526C75.7803 189.772 75.6025 190.06 75.4756 190.39C75.3571 190.72 75.2979 191.062 75.2979 191.418ZM98.1748 192.954C98.1748 193.267 98.1706 193.53 98.1621 193.741C98.1536 193.953 98.141 194.152 98.124 194.338H89.1738C89.1738 195.641 89.5378 196.644 90.2656 197.347C90.9935 198.041 92.043 198.388 93.4141 198.388C93.7865 198.388 94.1589 198.375 94.5312 198.35C94.9036 198.316 95.2633 198.273 95.6104 198.223C95.9574 198.172 96.2874 198.117 96.6006 198.058C96.9222 197.99 97.2184 197.918 97.4893 197.842V199.657C96.8883 199.826 96.207 199.962 95.4453 200.063C94.6921 200.174 93.9092 200.229 93.0967 200.229C92.0049 200.229 91.0654 200.08 90.2783 199.784C89.4912 199.488 88.8438 199.061 88.3359 198.502C87.8366 197.935 87.4642 197.245 87.2188 196.433C86.9818 195.612 86.8633 194.685 86.8633 193.652C86.8633 192.755 86.9902 191.909 87.2441 191.113C87.5065 190.309 87.8831 189.607 88.374 189.006C88.8734 188.396 89.4827 187.914 90.2021 187.559C90.9215 187.203 91.7383 187.025 92.6523 187.025C93.541 187.025 94.3281 187.165 95.0137 187.444C95.6992 187.724 96.2747 188.121 96.7402 188.638C97.2142 189.146 97.5697 189.768 97.8066 190.504C98.0521 191.232 98.1748 192.049 98.1748 192.954ZM95.877 192.637C95.9023 192.07 95.8473 191.553 95.7119 191.088C95.5765 190.614 95.3649 190.208 95.0771 189.869C94.7979 189.531 94.4466 189.268 94.0234 189.082C93.6003 188.887 93.1094 188.79 92.5508 188.79C92.0684 188.79 91.6283 188.883 91.2305 189.069C90.8327 189.256 90.4899 189.518 90.2021 189.856C89.9144 190.195 89.6816 190.601 89.5039 191.075C89.3262 191.549 89.2161 192.07 89.1738 192.637H95.877ZM111.797 196.521C111.797 196.97 111.721 197.372 111.568 197.728C111.416 198.083 111.209 198.4 110.946 198.68C110.684 198.951 110.379 199.183 110.032 199.378C109.685 199.573 109.313 199.733 108.915 199.86C108.526 199.987 108.124 200.08 107.709 200.14C107.294 200.199 106.888 200.229 106.49 200.229C105.627 200.229 104.831 200.19 104.104 200.114C103.384 200.038 102.677 199.915 101.983 199.746V197.715C102.728 197.926 103.469 198.087 104.205 198.197C104.941 198.307 105.674 198.362 106.401 198.362C107.459 198.362 108.242 198.218 108.75 197.931C109.258 197.643 109.512 197.232 109.512 196.699C109.512 196.471 109.469 196.268 109.385 196.09C109.309 195.904 109.165 195.73 108.953 195.569C108.742 195.4 108.411 195.227 107.963 195.049C107.523 194.871 106.918 194.668 106.147 194.439C105.572 194.27 105.039 194.08 104.548 193.868C104.065 193.648 103.646 193.39 103.291 193.094C102.936 192.798 102.656 192.451 102.453 192.053C102.25 191.655 102.148 191.185 102.148 190.644C102.148 190.288 102.229 189.899 102.39 189.476C102.559 189.052 102.842 188.659 103.24 188.295C103.638 187.931 104.175 187.631 104.853 187.394C105.53 187.148 106.376 187.025 107.392 187.025C107.891 187.025 108.445 187.055 109.055 187.114C109.664 187.165 110.299 187.258 110.959 187.394V189.361C110.265 189.192 109.605 189.069 108.979 188.993C108.361 188.909 107.823 188.866 107.366 188.866C106.816 188.866 106.351 188.909 105.97 188.993C105.597 189.078 105.293 189.196 105.056 189.349C104.827 189.493 104.662 189.666 104.561 189.869C104.459 190.064 104.408 190.275 104.408 190.504C104.408 190.732 104.451 190.94 104.535 191.126C104.628 191.312 104.793 191.494 105.03 191.672C105.276 191.841 105.614 192.015 106.046 192.192C106.478 192.362 107.04 192.548 107.734 192.751C108.488 192.971 109.122 193.204 109.639 193.449C110.155 193.686 110.574 193.953 110.896 194.249C111.217 194.545 111.446 194.88 111.581 195.252C111.725 195.624 111.797 196.048 111.797 196.521ZM126.27 199.822C125.77 199.949 125.254 200.038 124.721 200.089C124.188 200.148 123.646 200.178 123.096 200.178C121.496 200.178 120.303 199.818 119.516 199.099C118.729 198.371 118.335 197.258 118.335 195.76V189.107H114.768V187.254H118.335V183.75L120.544 183.179V187.254H126.27V189.107H120.544V195.582C120.544 196.496 120.785 197.182 121.268 197.639C121.758 198.087 122.478 198.312 123.426 198.312C123.832 198.312 124.276 198.282 124.759 198.223C125.241 198.155 125.745 198.053 126.27 197.918V199.822ZM155.685 193.525C155.685 194.516 155.545 195.425 155.266 196.255C154.986 197.076 154.584 197.783 154.06 198.375C153.535 198.959 152.896 199.416 152.143 199.746C151.389 200.068 150.535 200.229 149.578 200.229C148.664 200.229 147.843 200.089 147.115 199.81C146.396 199.522 145.782 199.103 145.274 198.553C144.775 198.003 144.39 197.321 144.119 196.509C143.857 195.696 143.726 194.761 143.726 193.703C143.726 192.713 143.865 191.812 144.145 190.999C144.424 190.178 144.826 189.476 145.351 188.892C145.875 188.299 146.514 187.842 147.268 187.521C148.021 187.19 148.876 187.025 149.832 187.025C150.746 187.025 151.563 187.169 152.282 187.457C153.01 187.736 153.624 188.151 154.123 188.701C154.631 189.243 155.016 189.92 155.278 190.732C155.549 191.545 155.685 192.476 155.685 193.525ZM153.425 193.627C153.425 192.84 153.336 192.154 153.158 191.57C152.989 190.978 152.743 190.487 152.422 190.098C152.1 189.7 151.707 189.404 151.241 189.209C150.784 189.006 150.272 188.904 149.705 188.904C149.045 188.904 148.478 189.035 148.004 189.298C147.538 189.552 147.153 189.895 146.849 190.326C146.552 190.758 146.332 191.261 146.188 191.837C146.053 192.404 145.985 193.001 145.985 193.627C145.985 194.414 146.07 195.104 146.239 195.696C146.417 196.289 146.667 196.784 146.988 197.182C147.31 197.571 147.699 197.867 148.156 198.07C148.613 198.265 149.13 198.362 149.705 198.362C150.365 198.362 150.928 198.235 151.394 197.981C151.868 197.719 152.253 197.372 152.549 196.94C152.854 196.509 153.074 196.009 153.209 195.442C153.353 194.867 153.425 194.262 153.425 193.627ZM158.884 187.254H160.852L160.94 189.311C161.313 188.87 161.673 188.507 162.02 188.219C162.367 187.923 162.705 187.686 163.035 187.508C163.374 187.33 163.716 187.207 164.063 187.14C164.41 187.063 164.77 187.025 165.143 187.025C166.454 187.025 167.445 187.415 168.113 188.193C168.79 188.964 169.129 190.127 169.129 191.685V200H166.92V191.862C166.92 190.864 166.734 190.127 166.361 189.653C165.989 189.171 165.435 188.93 164.698 188.93C164.427 188.93 164.161 188.972 163.898 189.057C163.645 189.133 163.378 189.272 163.099 189.476C162.819 189.67 162.515 189.937 162.185 190.275C161.863 190.614 161.499 191.037 161.093 191.545V200H158.884V187.254ZM197.744 199.822C197.245 199.949 196.729 200.038 196.195 200.089C195.662 200.148 195.12 200.178 194.57 200.178C192.971 200.178 191.777 199.818 190.99 199.099C190.203 198.371 189.81 197.258 189.81 195.76V189.107H186.242V187.254H189.81V183.75L192.019 183.179V187.254H197.744V189.107H192.019V195.582C192.019 196.496 192.26 197.182 192.742 197.639C193.233 198.087 193.952 198.312 194.9 198.312C195.307 198.312 195.751 198.282 196.233 198.223C196.716 198.155 197.219 198.053 197.744 197.918V199.822ZM212.014 200H209.805V191.862C209.805 190.881 209.618 190.148 209.246 189.666C208.882 189.175 208.357 188.93 207.672 188.93C207.376 188.93 207.096 188.972 206.834 189.057C206.58 189.133 206.313 189.272 206.034 189.476C205.755 189.67 205.45 189.937 205.12 190.275C204.79 190.614 204.409 191.037 203.978 191.545V200H201.769V182.062H203.978V187.254L203.901 189.26C204.248 188.845 204.587 188.498 204.917 188.219C205.256 187.931 205.59 187.698 205.92 187.521C206.258 187.343 206.601 187.216 206.948 187.14C207.295 187.063 207.655 187.025 208.027 187.025C209.297 187.025 210.279 187.415 210.973 188.193C211.667 188.964 212.014 190.127 212.014 191.685V200ZM226.829 192.954C226.829 193.267 226.825 193.53 226.816 193.741C226.808 193.953 226.795 194.152 226.778 194.338H217.828C217.828 195.641 218.192 196.644 218.92 197.347C219.648 198.041 220.697 198.388 222.068 198.388C222.441 198.388 222.813 198.375 223.186 198.35C223.558 198.316 223.918 198.273 224.265 198.223C224.612 198.172 224.942 198.117 225.255 198.058C225.576 197.99 225.873 197.918 226.144 197.842V199.657C225.543 199.826 224.861 199.962 224.1 200.063C223.346 200.174 222.563 200.229 221.751 200.229C220.659 200.229 219.72 200.08 218.933 199.784C218.146 199.488 217.498 199.061 216.99 198.502C216.491 197.935 216.118 197.245 215.873 196.433C215.636 195.612 215.518 194.685 215.518 193.652C215.518 192.755 215.645 191.909 215.898 191.113C216.161 190.309 216.537 189.607 217.028 189.006C217.528 188.396 218.137 187.914 218.856 187.559C219.576 187.203 220.393 187.025 221.307 187.025C222.195 187.025 222.982 187.165 223.668 187.444C224.354 187.724 224.929 188.121 225.395 188.638C225.868 189.146 226.224 189.768 226.461 190.504C226.706 191.232 226.829 192.049 226.829 192.954ZM224.531 192.637C224.557 192.07 224.502 191.553 224.366 191.088C224.231 190.614 224.019 190.208 223.731 189.869C223.452 189.531 223.101 189.268 222.678 189.082C222.255 188.887 221.764 188.79 221.205 188.79C220.723 188.79 220.283 188.883 219.885 189.069C219.487 189.256 219.144 189.518 218.856 189.856C218.569 190.195 218.336 190.601 218.158 191.075C217.98 191.549 217.87 192.07 217.828 192.637H224.531ZM248.995 183.877H245.225V182.062H251.229V198.159H255.025V200H244.806V198.159H248.995V183.877ZM269.714 192.954C269.714 193.267 269.71 193.53 269.701 193.741C269.693 193.953 269.68 194.152 269.663 194.338H260.713C260.713 195.641 261.077 196.644 261.805 197.347C262.533 198.041 263.582 198.388 264.953 198.388C265.326 198.388 265.698 198.375 266.07 198.35C266.443 198.316 266.802 198.273 267.149 198.223C267.496 198.172 267.826 198.117 268.14 198.058C268.461 197.99 268.757 197.918 269.028 197.842V199.657C268.427 199.826 267.746 199.962 266.984 200.063C266.231 200.174 265.448 200.229 264.636 200.229C263.544 200.229 262.604 200.08 261.817 199.784C261.03 199.488 260.383 199.061 259.875 198.502C259.376 197.935 259.003 197.245 258.758 196.433C258.521 195.612 258.402 194.685 258.402 193.652C258.402 192.755 258.529 191.909 258.783 191.113C259.046 190.309 259.422 189.607 259.913 189.006C260.412 188.396 261.022 187.914 261.741 187.559C262.461 187.203 263.277 187.025 264.191 187.025C265.08 187.025 265.867 187.165 266.553 187.444C267.238 187.724 267.814 188.121 268.279 188.638C268.753 189.146 269.109 189.768 269.346 190.504C269.591 191.232 269.714 192.049 269.714 192.954ZM267.416 192.637C267.441 192.07 267.386 191.553 267.251 191.088C267.116 190.614 266.904 190.208 266.616 189.869C266.337 189.531 265.986 189.268 265.562 189.082C265.139 188.887 264.648 188.79 264.09 188.79C263.607 188.79 263.167 188.883 262.77 189.069C262.372 189.256 262.029 189.518 261.741 189.856C261.453 190.195 261.221 190.601 261.043 191.075C260.865 191.549 260.755 192.07 260.713 192.637H267.416ZM284.555 184.118C283.395 183.873 282.396 183.75 281.559 183.75C279.57 183.75 278.575 184.791 278.575 186.873V189.107H284.161V190.948H278.575V200H276.328V190.948H272.228V189.107H276.328V187C276.328 183.606 278.097 181.909 281.635 181.909C282.515 181.909 283.488 182.011 284.555 182.214V184.118ZM297.809 199.822C297.309 199.949 296.793 200.038 296.26 200.089C295.727 200.148 295.185 200.178 294.635 200.178C293.035 200.178 291.842 199.818 291.055 199.099C290.268 198.371 289.874 197.258 289.874 195.76V189.107H286.307V187.254H289.874V183.75L292.083 183.179V187.254H297.809V189.107H292.083V195.582C292.083 196.496 292.324 197.182 292.807 197.639C293.298 198.087 294.017 198.312 294.965 198.312C295.371 198.312 295.815 198.282 296.298 198.223C296.78 198.155 297.284 198.053 297.809 197.918V199.822Z" fill="#00B2FF"/>
<path d="M560.353 235.744C560.353 236.506 560.213 237.221 559.934 237.89C559.663 238.558 559.273 239.142 558.766 239.642C558.258 240.132 557.644 240.522 556.925 240.81C556.214 241.089 555.423 241.229 554.551 241.229C553.637 241.229 552.828 241.085 552.126 240.797C551.424 240.501 550.835 240.052 550.361 239.451C549.887 238.842 549.528 238.076 549.282 237.153C549.037 236.231 548.914 235.139 548.914 233.878C548.914 233.032 548.969 232.211 549.079 231.415C549.189 230.619 549.371 229.87 549.625 229.168C549.879 228.465 550.217 227.822 550.641 227.238C551.064 226.654 551.589 226.155 552.215 225.74C552.85 225.317 553.594 224.991 554.449 224.763C555.304 224.526 556.294 224.407 557.42 224.407H559.058V226.337H557.28C556.29 226.337 555.431 226.455 554.703 226.692C553.975 226.929 553.366 227.264 552.875 227.695C552.384 228.127 552.007 228.647 551.745 229.257C551.483 229.866 551.318 230.548 551.25 231.301L551.199 231.821C551.732 231.508 552.346 231.258 553.04 231.072C553.743 230.878 554.5 230.78 555.312 230.78C556.15 230.78 556.882 230.903 557.509 231.148C558.144 231.394 558.668 231.737 559.083 232.177C559.506 232.608 559.824 233.129 560.035 233.738C560.247 234.348 560.353 235.016 560.353 235.744ZM558.042 235.884C558.042 235.376 557.979 234.919 557.852 234.513C557.733 234.098 557.543 233.751 557.28 233.472C557.018 233.184 556.684 232.964 556.277 232.812C555.88 232.651 555.401 232.57 554.843 232.57C554.521 232.57 554.195 232.6 553.865 232.659C553.535 232.718 553.209 232.803 552.888 232.913C552.575 233.015 552.274 233.133 551.986 233.269C551.699 233.404 551.436 233.548 551.199 233.7C551.199 234.792 551.275 235.706 551.428 236.442C551.58 237.17 551.804 237.754 552.101 238.194C552.405 238.634 552.778 238.948 553.218 239.134C553.658 239.32 554.166 239.413 554.741 239.413C555.224 239.413 555.664 239.337 556.062 239.185C556.468 239.024 556.815 238.791 557.103 238.486C557.399 238.182 557.627 237.813 557.788 237.382C557.957 236.942 558.042 236.442 558.042 235.884Z" fill="black"/>
<path d="M624.061 226.464L617.104 241H614.577L621.801 226.464H612.838V224.407H624.061V226.464Z" fill="black"/>
<path d="M688.149 236.836C688.149 237.538 688.006 238.165 687.718 238.715C687.43 239.257 687.028 239.714 686.512 240.086C685.995 240.458 685.386 240.742 684.684 240.937C683.981 241.131 683.219 241.229 682.398 241.229C681.493 241.229 680.693 241.127 679.999 240.924C679.313 240.721 678.738 240.437 678.272 240.073C677.807 239.709 677.456 239.278 677.219 238.778C676.982 238.279 676.863 237.729 676.863 237.128C676.863 236.112 677.147 235.236 677.714 234.5C678.281 233.764 679.157 233.095 680.342 232.494C679.258 231.944 678.467 231.335 677.968 230.666C677.468 229.989 677.219 229.215 677.219 228.343C677.219 227.81 677.329 227.293 677.549 226.794C677.769 226.295 678.099 225.85 678.539 225.461C678.988 225.072 679.546 224.763 680.215 224.534C680.883 224.297 681.671 224.179 682.576 224.179C683.431 224.179 684.18 224.272 684.823 224.458C685.475 224.636 686.021 224.894 686.461 225.232C686.901 225.571 687.231 225.981 687.451 226.464C687.671 226.946 687.781 227.484 687.781 228.076C687.781 229.041 687.51 229.862 686.969 230.539C686.436 231.216 685.674 231.809 684.684 232.316C685.174 232.562 685.632 232.833 686.055 233.129C686.478 233.425 686.846 233.755 687.159 234.119C687.472 234.483 687.714 234.889 687.883 235.338C688.061 235.786 688.149 236.286 688.149 236.836ZM685.521 228.254C685.521 227.501 685.255 226.942 684.722 226.578C684.197 226.206 683.456 226.02 682.5 226.02C681.552 226.02 680.812 226.201 680.278 226.565C679.754 226.929 679.491 227.475 679.491 228.203C679.491 228.533 679.555 228.838 679.682 229.117C679.809 229.396 680.003 229.659 680.266 229.904C680.536 230.15 680.871 230.391 681.269 230.628C681.666 230.865 682.14 231.106 682.69 231.352C683.647 230.903 684.358 230.438 684.823 229.955C685.289 229.464 685.521 228.897 685.521 228.254ZM685.75 237.001C685.75 236.688 685.699 236.383 685.598 236.087C685.496 235.791 685.314 235.499 685.052 235.211C684.789 234.923 684.438 234.635 683.998 234.348C683.558 234.06 682.999 233.764 682.322 233.459C681.747 233.738 681.26 234.018 680.862 234.297C680.473 234.568 680.156 234.847 679.91 235.135C679.673 235.414 679.504 235.706 679.402 236.011C679.301 236.315 679.25 236.637 679.25 236.976C679.25 237.356 679.33 237.695 679.491 237.991C679.66 238.279 679.889 238.524 680.177 238.728C680.465 238.931 680.807 239.083 681.205 239.185C681.603 239.286 682.035 239.337 682.5 239.337C682.949 239.337 683.372 239.29 683.77 239.197C684.167 239.104 684.51 238.965 684.798 238.778C685.094 238.584 685.327 238.342 685.496 238.055C685.665 237.758 685.75 237.407 685.75 237.001Z" fill="black"/>
<path d="M231.53 232.71C231.53 233.979 231.403 235.139 231.149 236.188C230.896 237.229 230.51 238.127 229.994 238.88C229.478 239.625 228.835 240.204 228.064 240.619C227.303 241.025 226.406 241.229 225.373 241.229C224.484 241.229 223.676 241.063 222.948 240.733C222.22 240.395 221.598 239.879 221.082 239.185C220.566 238.491 220.168 237.606 219.889 236.531C219.609 235.456 219.47 234.183 219.47 232.71C219.47 231.44 219.597 230.281 219.851 229.231C220.113 228.182 220.498 227.285 221.006 226.54C221.522 225.787 222.165 225.207 222.936 224.801C223.706 224.386 224.603 224.179 225.627 224.179C226.516 224.179 227.324 224.348 228.052 224.687C228.78 225.017 229.402 225.533 229.918 226.235C230.434 226.929 230.832 227.814 231.111 228.889C231.391 229.964 231.53 231.237 231.53 232.71ZM229.296 232.786C229.296 232.498 229.283 232.215 229.258 231.936C229.241 231.648 229.22 231.368 229.194 231.098L222.174 236.315C222.301 236.756 222.462 237.162 222.656 237.534C222.851 237.907 223.084 238.228 223.354 238.499C223.634 238.761 223.947 238.969 224.294 239.121C224.649 239.265 225.051 239.337 225.5 239.337C226.076 239.337 226.596 239.197 227.062 238.918C227.535 238.639 227.938 238.224 228.268 237.674C228.598 237.124 228.852 236.442 229.029 235.63C229.207 234.809 229.296 233.861 229.296 232.786ZM221.704 232.634C221.704 232.896 221.704 233.159 221.704 233.421C221.713 233.683 221.729 233.937 221.755 234.183L228.775 228.99C228.648 228.559 228.488 228.165 228.293 227.81C228.098 227.454 227.866 227.149 227.595 226.896C227.324 226.633 227.015 226.43 226.668 226.286C226.321 226.142 225.932 226.07 225.5 226.07C224.924 226.07 224.4 226.21 223.926 226.489C223.46 226.769 223.062 227.188 222.732 227.746C222.402 228.296 222.148 228.982 221.971 229.803C221.793 230.615 221.704 231.559 221.704 232.634Z" fill="black"/>
<path d="M208.528 248.006H201.307V220.789H208.528V222.84H203.738V245.955H208.528V248.006Z" fill="black"/>
<path d="M698.472 248.006H705.693V220.789H698.472V222.84H703.262V245.955H698.472V248.006Z" fill="black"/>
<path d="M297.01 241H286.587V238.943H290.853V226.832L286.879 228.99L286.066 227.111L291.348 224.331H293.303V238.943H297.01V241Z" fill="black"/>
<path d="M363.149 241H352.219V239.02L356.51 234.754C357.212 234.06 357.784 233.459 358.224 232.951C358.664 232.443 359.007 231.982 359.252 231.567C359.497 231.144 359.662 230.746 359.747 230.374C359.832 230.002 359.874 229.6 359.874 229.168C359.874 228.762 359.819 228.377 359.709 228.013C359.599 227.64 359.43 227.314 359.201 227.035C358.973 226.756 358.676 226.536 358.312 226.375C357.949 226.214 357.513 226.134 357.005 226.134C356.302 226.134 355.663 226.29 355.088 226.604C354.512 226.917 353.983 227.323 353.501 227.822L352.282 226.362C352.909 225.702 353.628 225.173 354.44 224.775C355.261 224.378 356.214 224.179 357.297 224.179C358.033 224.179 358.702 224.289 359.303 224.509C359.912 224.729 360.437 225.046 360.877 225.461C361.317 225.876 361.656 226.383 361.893 226.984C362.138 227.585 362.261 228.262 362.261 229.016C362.261 229.65 362.176 230.239 362.007 230.78C361.838 231.322 361.579 231.864 361.232 232.405C360.894 232.938 360.462 233.493 359.938 234.068C359.421 234.644 358.808 235.274 358.097 235.96L355.088 238.893H363.149V241Z" fill="black"/>
<path d="M428.832 235.96C428.832 236.688 428.684 237.373 428.388 238.017C428.091 238.651 427.647 239.21 427.055 239.692C426.462 240.166 425.717 240.543 424.82 240.822C423.923 241.093 422.878 241.229 421.685 241.229C421.024 241.229 420.432 241.207 419.907 241.165C419.382 241.123 418.892 241.068 418.435 241V239.02C418.959 239.113 419.514 239.185 420.098 239.235C420.682 239.286 421.278 239.312 421.888 239.312C422.717 239.312 423.424 239.24 424.008 239.096C424.6 238.943 425.083 238.728 425.455 238.448C425.827 238.169 426.098 237.83 426.268 237.433C426.437 237.035 426.521 236.586 426.521 236.087C426.521 235.63 426.42 235.232 426.217 234.894C426.014 234.555 425.726 234.271 425.354 234.043C424.99 233.814 424.549 233.645 424.033 233.535C423.525 233.417 422.967 233.357 422.357 233.357H420.466V231.542H422.383C422.882 231.542 423.335 231.479 423.741 231.352C424.156 231.216 424.507 231.026 424.795 230.78C425.091 230.535 425.315 230.234 425.468 229.879C425.629 229.515 425.709 229.104 425.709 228.647C425.709 227.759 425.438 227.111 424.896 226.705C424.355 226.299 423.559 226.096 422.51 226.096C421.951 226.096 421.376 226.151 420.783 226.261C420.191 226.371 419.556 226.536 418.879 226.756V224.826C419.167 224.725 419.471 224.636 419.793 224.56C420.123 224.475 420.449 224.407 420.771 224.356C421.101 224.297 421.426 224.255 421.748 224.229C422.07 224.196 422.379 224.179 422.675 224.179C423.555 224.179 424.329 224.276 424.998 224.471C425.667 224.657 426.225 224.928 426.674 225.283C427.122 225.639 427.461 226.07 427.689 226.578C427.918 227.086 428.032 227.657 428.032 228.292C428.032 229.24 427.787 230.035 427.296 230.679C426.813 231.322 426.149 231.834 425.303 232.215C425.734 232.283 426.158 232.418 426.572 232.621C426.995 232.824 427.372 233.087 427.702 233.408C428.041 233.721 428.312 234.094 428.515 234.525C428.726 234.957 428.832 235.435 428.832 235.96Z" fill="black"/>
<path d="M494.73 235.693C494.73 236.514 494.553 237.263 494.197 237.94C493.842 238.618 493.351 239.201 492.725 239.692C492.107 240.175 491.375 240.551 490.528 240.822C489.682 241.093 488.768 241.229 487.786 241.229C487.541 241.229 487.274 241.22 486.986 241.203C486.707 241.195 486.428 241.178 486.148 241.152C485.869 241.135 485.594 241.114 485.323 241.089C485.061 241.063 484.824 241.034 484.612 241V238.994C485.069 239.104 485.59 239.185 486.174 239.235C486.766 239.286 487.363 239.312 487.964 239.312C488.641 239.312 489.25 239.231 489.792 239.07C490.334 238.91 490.795 238.681 491.176 238.385C491.557 238.08 491.849 237.716 492.052 237.293C492.255 236.861 492.356 236.379 492.356 235.846C492.356 234.813 491.984 234.064 491.239 233.599C490.503 233.125 489.441 232.888 488.053 232.888H484.904V224.407H493.842V226.337H486.986V230.996H488.434C489.229 230.996 490.004 231.068 490.757 231.212C491.51 231.356 492.179 231.61 492.763 231.974C493.355 232.329 493.829 232.812 494.185 233.421C494.549 234.022 494.73 234.779 494.73 235.693Z" fill="black"/>
<path d="M11.1211 244V234.847C11.1211 234.449 11.1042 234.123 11.0703 233.869C11.0449 233.615 10.9984 233.416 10.9307 233.272C10.8714 233.12 10.791 233.014 10.6895 232.955C10.5964 232.896 10.4779 232.866 10.334 232.866C10.1647 232.866 10.0081 232.917 9.86426 233.019C9.72038 233.12 9.5638 233.285 9.39453 233.514C9.23372 233.742 9.05176 234.047 8.84863 234.428C8.65397 234.8 8.42122 235.261 8.15039 235.812V244H6.13184V235.088C6.13184 234.622 6.11491 234.246 6.08105 233.958C6.05566 233.67 6.00911 233.446 5.94141 233.285C5.88216 233.124 5.80176 233.014 5.7002 232.955C5.59863 232.896 5.47591 232.866 5.33203 232.866C5.17969 232.866 5.03581 232.909 4.90039 232.993C4.76497 233.078 4.61263 233.23 4.44336 233.45C4.28255 233.67 4.10059 233.971 3.89746 234.352C3.69434 234.732 3.45312 235.219 3.17383 235.812V244H1.14258V231.254H2.83105L2.93262 233.679C3.15267 233.196 3.36426 232.786 3.56738 232.447C3.77897 232.109 3.99479 231.838 4.21484 231.635C4.4349 231.423 4.66764 231.271 4.91309 231.178C5.16699 231.076 5.44629 231.025 5.75098 231.025C6.43652 231.025 6.95703 231.25 7.3125 231.698C7.66797 232.147 7.8457 232.841 7.8457 233.78C8.04883 233.34 8.24772 232.951 8.44238 232.612C8.63704 232.265 8.8444 231.978 9.06445 231.749C9.29297 231.512 9.54264 231.334 9.81348 231.216C10.0843 231.089 10.3975 231.025 10.7529 231.025C12.3525 231.025 13.1523 232.257 13.1523 234.72V244H11.1211ZM27.0918 236.954C27.0918 237.267 27.0876 237.53 27.0791 237.741C27.0706 237.953 27.0579 238.152 27.041 238.338H18.0908C18.0908 239.641 18.4548 240.644 19.1826 241.347C19.9105 242.041 20.96 242.388 22.3311 242.388C22.7035 242.388 23.0758 242.375 23.4482 242.35C23.8206 242.316 24.1803 242.273 24.5273 242.223C24.8743 242.172 25.2044 242.117 25.5176 242.058C25.8392 241.99 26.1354 241.918 26.4062 241.842V243.657C25.8053 243.826 25.124 243.962 24.3623 244.063C23.609 244.174 22.8262 244.229 22.0137 244.229C20.9219 244.229 19.9824 244.08 19.1953 243.784C18.4082 243.488 17.7607 243.061 17.2529 242.502C16.7536 241.935 16.3812 241.245 16.1357 240.433C15.8988 239.612 15.7803 238.685 15.7803 237.652C15.7803 236.755 15.9072 235.909 16.1611 235.113C16.4235 234.309 16.8001 233.607 17.291 233.006C17.7904 232.396 18.3997 231.914 19.1191 231.559C19.8385 231.203 20.6553 231.025 21.5693 231.025C22.458 231.025 23.2451 231.165 23.9307 231.444C24.6162 231.724 25.1917 232.121 25.6572 232.638C26.1312 233.146 26.4867 233.768 26.7236 234.504C26.9691 235.232 27.0918 236.049 27.0918 236.954ZM24.7939 236.637C24.8193 236.07 24.7643 235.553 24.6289 235.088C24.4935 234.614 24.2819 234.208 23.9941 233.869C23.7148 233.531 23.3636 233.268 22.9404 233.082C22.5173 232.887 22.0264 232.79 21.4678 232.79C20.9854 232.79 20.5452 232.883 20.1475 233.069C19.7497 233.256 19.4069 233.518 19.1191 233.856C18.8314 234.195 18.5986 234.601 18.4209 235.075C18.2432 235.549 18.1331 236.07 18.0908 236.637H24.7939ZM31.1416 231.254H33.1602L33.2236 233.603C33.9769 232.697 34.7174 232.041 35.4453 231.635C36.1816 231.229 36.9222 231.025 37.667 231.025C38.9873 231.025 39.986 231.453 40.6631 232.308C41.3486 233.162 41.666 234.432 41.6152 236.116H39.3809C39.4062 234.999 39.2412 234.191 38.8857 233.691C38.5387 233.184 38.0267 232.93 37.3496 232.93C37.0534 232.93 36.7529 232.985 36.4482 233.095C36.152 233.196 35.8431 233.366 35.5215 233.603C35.2083 233.831 34.874 234.127 34.5186 234.491C34.1631 234.855 33.7822 235.295 33.376 235.812V244H31.1416V231.254ZM54.0947 233.057C54.3317 233.353 54.5137 233.7 54.6406 234.098C54.776 234.487 54.8438 234.91 54.8438 235.367C54.8438 236.027 54.721 236.632 54.4756 237.183C54.2386 237.724 53.9001 238.19 53.46 238.579C53.0199 238.968 52.4909 239.273 51.873 239.493C51.2637 239.705 50.5908 239.811 49.8545 239.811C49.3213 239.811 48.8219 239.756 48.3564 239.646C47.891 239.527 47.5228 239.383 47.252 239.214C47.0911 239.451 46.9557 239.675 46.8457 239.887C46.7357 240.098 46.6807 240.335 46.6807 240.598C46.6807 240.919 46.833 241.186 47.1377 241.397C47.4508 241.609 47.8613 241.723 48.3691 241.74L51.7207 241.867C52.3555 241.884 52.9395 241.965 53.4727 242.108C54.0143 242.252 54.4756 242.46 54.8564 242.73C55.2458 243.001 55.5462 243.336 55.7578 243.733C55.9779 244.131 56.0879 244.592 56.0879 245.117C56.0879 245.684 55.9652 246.222 55.7197 246.729C55.4743 247.237 55.0934 247.682 54.5771 248.062C54.0693 248.452 53.4219 248.761 52.6348 248.989C51.8477 249.218 50.9124 249.332 49.8291 249.332C48.7965 249.332 47.9163 249.247 47.1885 249.078C46.4691 248.917 45.8766 248.689 45.4111 248.393C44.9456 248.105 44.6071 247.758 44.3955 247.352C44.1839 246.954 44.0781 246.514 44.0781 246.031C44.0781 245.413 44.222 244.872 44.5098 244.406C44.7975 243.941 45.2419 243.492 45.8428 243.061C45.6227 242.959 45.4323 242.832 45.2715 242.68C45.1107 242.527 44.9795 242.362 44.8779 242.185C44.7764 241.998 44.7002 241.804 44.6494 241.601C44.5986 241.397 44.5732 241.199 44.5732 241.004C44.5732 240.454 44.7002 239.95 44.9541 239.493C45.2165 239.036 45.5254 238.604 45.8809 238.198C45.7201 238.004 45.5762 237.813 45.4492 237.627C45.3307 237.441 45.2249 237.242 45.1318 237.03C45.0472 236.81 44.9795 236.577 44.9287 236.332C44.8864 236.078 44.8652 235.79 44.8652 235.469C44.8652 234.809 44.9837 234.208 45.2207 233.666C45.4661 233.116 45.8047 232.646 46.2363 232.257C46.6764 231.868 47.2012 231.567 47.8105 231.355C48.4284 231.135 49.1097 231.025 49.8545 231.025C50.1676 231.025 50.4681 231.047 50.7559 231.089C51.0436 231.131 51.2975 231.186 51.5176 231.254H56.1387V233.057H54.0947ZM46.4268 245.841C46.4268 246.442 46.7399 246.878 47.3662 247.148C47.9925 247.428 48.8643 247.567 49.9814 247.567C50.6839 247.567 51.2721 247.504 51.7461 247.377C52.2285 247.25 52.6136 247.081 52.9014 246.869C53.1976 246.666 53.4092 246.429 53.5361 246.158C53.6631 245.896 53.7266 245.625 53.7266 245.346C53.7266 244.829 53.515 244.449 53.0918 244.203C52.6686 243.958 52.0212 243.814 51.1494 243.771L47.8232 243.657C47.5439 243.843 47.3112 244.025 47.125 244.203C46.9473 244.381 46.8076 244.559 46.7061 244.736C46.6045 244.923 46.5326 245.104 46.4902 245.282C46.4479 245.468 46.4268 245.655 46.4268 245.841ZM47.0996 235.418C47.0996 235.824 47.1673 236.197 47.3027 236.535C47.4382 236.874 47.6286 237.161 47.874 237.398C48.1195 237.635 48.4072 237.822 48.7373 237.957C49.0758 238.084 49.4482 238.147 49.8545 238.147C50.2946 238.147 50.6839 238.076 51.0225 237.932C51.3695 237.779 51.6572 237.576 51.8857 237.322C52.1227 237.068 52.3005 236.776 52.4189 236.446C52.5459 236.116 52.6094 235.773 52.6094 235.418C52.6094 235.012 52.5417 234.639 52.4062 234.301C52.2708 233.962 52.0804 233.674 51.835 233.438C51.5895 233.201 51.2975 233.019 50.959 232.892C50.6289 232.756 50.2607 232.688 49.8545 232.688C49.4144 232.688 49.0208 232.765 48.6738 232.917C48.3353 233.069 48.0475 233.272 47.8105 233.526C47.582 233.772 47.4043 234.06 47.2773 234.39C47.1589 234.72 47.0996 235.062 47.0996 235.418ZM69.9766 236.954C69.9766 237.267 69.9723 237.53 69.9639 237.741C69.9554 237.953 69.9427 238.152 69.9258 238.338H60.9756C60.9756 239.641 61.3395 240.644 62.0674 241.347C62.7952 242.041 63.8447 242.388 65.2158 242.388C65.5882 242.388 65.9606 242.375 66.333 242.35C66.7054 242.316 67.0651 242.273 67.4121 242.223C67.7591 242.172 68.0892 242.117 68.4023 242.058C68.724 241.99 69.0202 241.918 69.291 241.842V243.657C68.6901 243.826 68.0088 243.962 67.2471 244.063C66.4938 244.174 65.7109 244.229 64.8984 244.229C63.8066 244.229 62.8672 244.08 62.0801 243.784C61.293 243.488 60.6455 243.061 60.1377 242.502C59.6383 241.935 59.266 241.245 59.0205 240.433C58.7835 239.612 58.665 238.685 58.665 237.652C58.665 236.755 58.792 235.909 59.0459 235.113C59.3083 234.309 59.6849 233.607 60.1758 233.006C60.6751 232.396 61.2845 231.914 62.0039 231.559C62.7233 231.203 63.54 231.025 64.4541 231.025C65.3428 231.025 66.1299 231.165 66.8154 231.444C67.501 231.724 68.0765 232.121 68.542 232.638C69.016 233.146 69.3714 233.768 69.6084 234.504C69.8538 235.232 69.9766 236.049 69.9766 236.954ZM67.6787 236.637C67.7041 236.07 67.6491 235.553 67.5137 235.088C67.3783 234.614 67.1667 234.208 66.8789 233.869C66.5996 233.531 66.2484 233.268 65.8252 233.082C65.402 232.887 64.9111 232.79 64.3525 232.79C63.8701 232.79 63.43 232.883 63.0322 233.069C62.6344 233.256 62.2917 233.518 62.0039 233.856C61.7161 234.195 61.4834 234.601 61.3057 235.075C61.1279 235.549 61.0179 236.07 60.9756 236.637H67.6787ZM72.8584 237.894C72.8584 236.81 73.0065 235.85 73.3027 235.012C73.599 234.165 74.0179 233.454 74.5596 232.879C75.1097 232.295 75.7656 231.855 76.5273 231.559C77.2975 231.254 78.1523 231.102 79.0918 231.102C79.498 231.102 79.8958 231.127 80.2852 231.178C80.6829 231.229 81.0723 231.309 81.4531 231.419V226.062H83.6748V244H81.6943L81.6182 241.588C81.0003 242.485 80.3317 243.149 79.6123 243.581C78.8929 244.013 78.1143 244.229 77.2764 244.229C76.5485 244.229 75.9053 244.076 75.3467 243.771C74.7965 243.467 74.3353 243.039 73.9629 242.489C73.599 241.931 73.3239 241.262 73.1377 240.483C72.9515 239.705 72.8584 238.841 72.8584 237.894ZM75.1182 237.754C75.1182 239.294 75.3424 240.445 75.791 241.207C76.248 241.96 76.8913 242.337 77.7207 242.337C78.2793 242.337 78.8675 242.087 79.4854 241.588C80.1117 241.089 80.7676 240.348 81.4531 239.366V233.45C81.0892 233.281 80.6872 233.154 80.2471 233.069C79.807 232.976 79.3711 232.93 78.9395 232.93C77.7376 232.93 76.7982 233.319 76.1211 234.098C75.4525 234.876 75.1182 236.095 75.1182 237.754ZM110.284 244L110.233 242.286C109.539 242.972 108.833 243.467 108.113 243.771C107.402 244.076 106.653 244.229 105.866 244.229C105.138 244.229 104.516 244.135 104 243.949C103.484 243.763 103.056 243.509 102.718 243.188C102.388 242.857 102.142 242.472 101.981 242.032C101.829 241.592 101.753 241.114 101.753 240.598C101.753 239.32 102.227 238.321 103.175 237.602C104.131 236.874 105.54 236.51 107.402 236.51H110.043V235.393C110.043 234.639 109.802 234.038 109.319 233.59C108.837 233.133 108.101 232.904 107.11 232.904C106.391 232.904 105.68 232.985 104.978 233.146C104.284 233.306 103.564 233.535 102.819 233.831V231.838C103.099 231.736 103.408 231.639 103.746 231.546C104.093 231.444 104.457 231.355 104.838 231.279C105.219 231.203 105.617 231.144 106.031 231.102C106.446 231.051 106.865 231.025 107.288 231.025C108.058 231.025 108.752 231.11 109.37 231.279C109.988 231.449 110.508 231.707 110.932 232.054C111.363 232.401 111.693 232.837 111.922 233.361C112.15 233.886 112.265 234.504 112.265 235.215V244H110.284ZM110.043 238.198H107.237C106.687 238.198 106.213 238.253 105.815 238.363C105.418 238.473 105.092 238.63 104.838 238.833C104.584 239.036 104.394 239.282 104.267 239.569C104.148 239.849 104.089 240.166 104.089 240.521C104.089 240.767 104.127 241.004 104.203 241.232C104.279 241.452 104.402 241.651 104.571 241.829C104.741 241.998 104.961 242.134 105.231 242.235C105.502 242.337 105.832 242.388 106.222 242.388C106.729 242.388 107.309 242.235 107.961 241.931C108.621 241.618 109.315 241.127 110.043 240.458V238.198ZM116.911 231.254H118.93L118.993 233.603C119.746 232.697 120.487 232.041 121.215 231.635C121.951 231.229 122.692 231.025 123.437 231.025C124.757 231.025 125.756 231.453 126.433 232.308C127.118 233.162 127.436 234.432 127.385 236.116H125.15C125.176 234.999 125.011 234.191 124.655 233.691C124.308 233.184 123.796 232.93 123.119 232.93C122.823 232.93 122.522 232.985 122.218 233.095C121.922 233.196 121.613 233.366 121.291 233.603C120.978 233.831 120.644 234.127 120.288 234.491C119.933 234.855 119.552 235.295 119.146 235.812V244H116.911V231.254ZM131.206 231.254H133.225L133.288 233.603C134.041 232.697 134.782 232.041 135.51 231.635C136.246 231.229 136.987 231.025 137.731 231.025C139.052 231.025 140.05 231.453 140.728 232.308C141.413 233.162 141.73 234.432 141.68 236.116H139.445C139.471 234.999 139.306 234.191 138.95 233.691C138.603 233.184 138.091 232.93 137.414 232.93C137.118 232.93 136.817 232.985 136.513 233.095C136.216 233.196 135.908 233.366 135.586 233.603C135.273 233.831 134.938 234.127 134.583 234.491C134.228 234.855 133.847 235.295 133.44 235.812V244H131.206V231.254ZM153.169 244L153.118 242.286C152.424 242.972 151.717 243.467 150.998 243.771C150.287 244.076 149.538 244.229 148.751 244.229C148.023 244.229 147.401 244.135 146.885 243.949C146.368 243.763 145.941 243.509 145.603 243.188C145.272 242.857 145.027 242.472 144.866 242.032C144.714 241.592 144.638 241.114 144.638 240.598C144.638 239.32 145.112 238.321 146.06 237.602C147.016 236.874 148.425 236.51 150.287 236.51H152.928V235.393C152.928 234.639 152.687 234.038 152.204 233.59C151.722 233.133 150.985 232.904 149.995 232.904C149.276 232.904 148.565 232.985 147.862 233.146C147.168 233.306 146.449 233.535 145.704 233.831V231.838C145.983 231.736 146.292 231.639 146.631 231.546C146.978 231.444 147.342 231.355 147.723 231.279C148.104 231.203 148.501 231.144 148.916 231.102C149.331 231.051 149.75 231.025 150.173 231.025C150.943 231.025 151.637 231.11 152.255 231.279C152.873 231.449 153.393 231.707 153.816 232.054C154.248 232.401 154.578 232.837 154.807 233.361C155.035 233.886 155.149 234.504 155.149 235.215V244H153.169ZM152.928 238.198H150.122C149.572 238.198 149.098 238.253 148.7 238.363C148.302 238.473 147.977 238.63 147.723 238.833C147.469 239.036 147.278 239.282 147.151 239.569C147.033 239.849 146.974 240.166 146.974 240.521C146.974 240.767 147.012 241.004 147.088 241.232C147.164 241.452 147.287 241.651 147.456 241.829C147.625 241.998 147.845 242.134 148.116 242.235C148.387 242.337 148.717 242.388 149.106 242.388C149.614 242.388 150.194 242.235 150.846 241.931C151.506 241.618 152.2 241.127 152.928 240.458V238.198ZM170.612 231.254L166.271 242.654C165.822 243.814 165.356 244.812 164.874 245.65C164.4 246.488 163.88 247.174 163.312 247.707C162.745 248.249 162.123 248.646 161.446 248.9C160.769 249.154 160.012 249.281 159.174 249.281C158.954 249.281 158.755 249.277 158.577 249.269C158.399 249.26 158.205 249.247 157.993 249.23V247.225C158.179 247.25 158.382 247.271 158.603 247.288C158.823 247.313 159.055 247.326 159.301 247.326C159.707 247.326 160.084 247.267 160.431 247.148C160.786 247.03 161.12 246.835 161.434 246.564C161.747 246.302 162.047 245.959 162.335 245.536C162.623 245.113 162.902 244.601 163.173 244L158.082 231.254H160.596L163.82 239.684L164.468 241.664L165.204 239.633L168.188 231.254H170.612ZM178.687 231.025C178.949 231.025 179.199 231.08 179.436 231.19C179.673 231.292 179.88 231.432 180.058 231.609C180.235 231.787 180.375 231.994 180.477 232.231C180.587 232.468 180.642 232.718 180.642 232.98C180.642 233.251 180.587 233.505 180.477 233.742C180.375 233.971 180.235 234.174 180.058 234.352C179.88 234.529 179.673 234.669 179.436 234.771C179.199 234.872 178.949 234.923 178.687 234.923C178.416 234.923 178.162 234.872 177.925 234.771C177.696 234.669 177.493 234.529 177.315 234.352C177.138 234.174 176.998 233.971 176.896 233.742C176.795 233.505 176.744 233.251 176.744 232.98C176.744 232.718 176.795 232.468 176.896 232.231C176.998 231.994 177.138 231.787 177.315 231.609C177.493 231.432 177.696 231.292 177.925 231.19C178.162 231.08 178.416 231.025 178.687 231.025ZM178.687 240.331C178.949 240.331 179.199 240.386 179.436 240.496C179.673 240.598 179.88 240.737 180.058 240.915C180.235 241.093 180.375 241.3 180.477 241.537C180.587 241.774 180.642 242.024 180.642 242.286C180.642 242.557 180.587 242.811 180.477 243.048C180.375 243.276 180.235 243.479 180.058 243.657C179.88 243.835 179.673 243.975 179.436 244.076C179.199 244.178 178.949 244.229 178.687 244.229C178.416 244.229 178.162 244.178 177.925 244.076C177.696 243.975 177.493 243.835 177.315 243.657C177.138 243.479 176.998 243.276 176.896 243.048C176.795 242.811 176.744 242.557 176.744 242.286C176.744 242.024 176.795 241.774 176.896 241.537C176.998 241.3 177.138 241.093 177.315 240.915C177.493 240.737 177.696 240.598 177.925 240.496C178.162 240.386 178.416 240.331 178.687 240.331Z" fill="black" fill-opacity="0.9"/>
</g>
<defs>
<clipPath id="clip0_6265_3152">
<rect width="707" height="250" fill="white"/>
</clipPath>
</defs>
</svg>
