<svg width="587" height="241" viewBox="0 0 587 241" fill="none" xmlns="http://www.w3.org/2000/svg">
<g clip-path="url(#clip0_6296_5815)">
<rect width="587" height="241" fill="white"/>
<rect opacity="0.2" x="532" y="201" width="38" height="38" rx="19" fill="#FF5500"/>
<rect opacity="0.2" x="268" y="201" width="38" height="38" rx="19" fill="#FF5500"/>
<rect opacity="0.2" x="132" y="201" width="112" height="38" rx="19" fill="#FF5500"/>
<rect opacity="0.2" x="330" y="201" width="177" height="38" rx="19" fill="#FF5500"/>
<path d="M-0.65625 12.293H1.61426L1.7168 14.666C2.14648 14.1582 2.56152 13.7383 2.96191 13.4062C3.3623 13.0645 3.75293 12.791 4.13379 12.5859C4.52441 12.3809 4.91992 12.2393 5.32031 12.1611C5.7207 12.0732 6.13574 12.0293 6.56543 12.0293C8.0791 12.0293 9.22168 12.4785 9.99316 13.377C10.7744 14.2656 11.165 15.6084 11.165 17.4053V27H8.61621V17.6104C8.61621 16.458 8.40137 15.6084 7.97168 15.0615C7.54199 14.5049 6.90234 14.2266 6.05273 14.2266C5.74023 14.2266 5.43262 14.2754 5.12988 14.373C4.83691 14.4609 4.5293 14.6221 4.20703 14.8564C3.88477 15.0811 3.5332 15.3887 3.15234 15.7793C2.78125 16.1699 2.36133 16.6582 1.89258 17.2441V27H-0.65625V12.293ZM27.6592 27H25.374L25.2861 24.627C24.8467 25.1348 24.4268 25.5596 24.0264 25.9014C23.6357 26.2334 23.2451 26.502 22.8545 26.707C22.4639 26.9121 22.0684 27.0537 21.668 27.1318C21.2773 27.2197 20.8623 27.2637 20.4229 27.2637C18.9092 27.2637 17.7666 26.8193 16.9951 25.9307C16.2236 25.042 15.8379 23.6992 15.8379 21.9023V12.293H18.3867V21.6973C18.3867 23.9531 19.2363 25.0811 20.9355 25.0811C21.248 25.0811 21.5508 25.0371 21.8438 24.9492C22.1465 24.8516 22.459 24.6904 22.7812 24.4658C23.1133 24.2314 23.4648 23.9189 23.8359 23.5283C24.2168 23.1377 24.6416 22.6445 25.1104 22.0488V12.293H27.6592V27ZM42.8203 27V16.4385C42.8203 15.9795 42.8008 15.6035 42.7617 15.3105C42.7324 15.0176 42.6787 14.7881 42.6006 14.6221C42.5322 14.4463 42.4395 14.3242 42.3223 14.2559C42.2148 14.1875 42.0781 14.1533 41.9121 14.1533C41.7168 14.1533 41.5361 14.2119 41.3701 14.3291C41.2041 14.4463 41.0234 14.6367 40.8281 14.9004C40.6426 15.1641 40.4326 15.5156 40.1982 15.9551C39.9736 16.3848 39.7051 16.917 39.3926 17.5518V27H37.0635V16.7168C37.0635 16.1797 37.0439 15.7451 37.0049 15.4131C36.9756 15.0811 36.9219 14.8223 36.8438 14.6367C36.7754 14.4512 36.6826 14.3242 36.5654 14.2559C36.4482 14.1875 36.3066 14.1533 36.1406 14.1533C35.9648 14.1533 35.7988 14.2021 35.6426 14.2998C35.4863 14.3975 35.3105 14.5732 35.1152 14.8271C34.9297 15.0811 34.7197 15.4277 34.4854 15.8672C34.251 16.3066 33.9727 16.8682 33.6504 17.5518V27H31.3066V12.293H33.2549L33.3721 15.0908C33.626 14.5342 33.8701 14.0605 34.1045 13.6699C34.3486 13.2793 34.5977 12.9668 34.8516 12.7324C35.1055 12.4883 35.374 12.3125 35.6572 12.2051C35.9502 12.0879 36.2725 12.0293 36.624 12.0293C37.415 12.0293 38.0156 12.2881 38.4258 12.8057C38.8359 13.3232 39.041 14.124 39.041 15.208C39.2754 14.7002 39.5049 14.251 39.7295 13.8604C39.9541 13.46 40.1934 13.1279 40.4473 12.8643C40.7109 12.5908 40.999 12.3857 41.3115 12.249C41.624 12.1025 41.9854 12.0293 42.3955 12.0293C44.2412 12.0293 45.1641 13.4502 45.1641 16.292V27H42.8203ZM60.4717 22.9863C60.4717 23.5039 60.3838 23.9678 60.208 24.3779C60.0322 24.7881 59.793 25.1543 59.4902 25.4766C59.1875 25.7891 58.8359 26.0576 58.4355 26.2822C58.0352 26.5068 57.6055 26.6924 57.1465 26.8389C56.6973 26.9854 56.2334 27.0928 55.7549 27.1611C55.2764 27.2295 54.8076 27.2637 54.3486 27.2637C53.3525 27.2637 52.4346 27.2197 51.5947 27.1318C50.7646 27.0439 49.9492 26.9023 49.1484 26.707V24.3633C50.0078 24.6074 50.8623 24.793 51.7119 24.9199C52.5615 25.0469 53.4062 25.1104 54.2461 25.1104C55.4668 25.1104 56.3701 24.9443 56.9561 24.6123C57.542 24.2803 57.835 23.8066 57.835 23.1914C57.835 22.9277 57.7861 22.6934 57.6885 22.4883C57.6006 22.2734 57.4346 22.0732 57.1904 21.8877C56.9463 21.6924 56.5654 21.4922 56.0479 21.2871C55.54 21.082 54.8418 20.8477 53.9531 20.584C53.2891 20.3887 52.6738 20.1689 52.1074 19.9248C51.5508 19.6709 51.0674 19.373 50.6572 19.0312C50.2471 18.6895 49.9248 18.2891 49.6904 17.8301C49.4561 17.3711 49.3389 16.8291 49.3389 16.2041C49.3389 15.7939 49.4316 15.3447 49.6172 14.8564C49.8125 14.3682 50.1396 13.9141 50.5986 13.4941C51.0576 13.0742 51.6777 12.7275 52.459 12.4541C53.2402 12.1709 54.2168 12.0293 55.3887 12.0293C55.9648 12.0293 56.6045 12.0635 57.3076 12.1318C58.0107 12.1904 58.7432 12.2979 59.5049 12.4541V14.7246C58.7041 14.5293 57.9424 14.3877 57.2197 14.2998C56.5068 14.2021 55.8867 14.1533 55.3594 14.1533C54.7246 14.1533 54.1875 14.2021 53.748 14.2998C53.3184 14.3975 52.9668 14.5342 52.6934 14.71C52.4297 14.876 52.2393 15.0762 52.1221 15.3105C52.0049 15.5352 51.9463 15.7793 51.9463 16.043C51.9463 16.3066 51.9951 16.5459 52.0928 16.7607C52.2002 16.9756 52.3906 17.1855 52.6641 17.3906C52.9473 17.5859 53.3379 17.7861 53.8359 17.9912C54.334 18.1865 54.9834 18.4014 55.7842 18.6357C56.6533 18.8896 57.3857 19.1582 57.9814 19.4414C58.5771 19.7148 59.0605 20.0225 59.4316 20.3643C59.8027 20.7061 60.0664 21.0918 60.2227 21.5215C60.3887 21.9512 60.4717 22.4395 60.4717 22.9863ZM94.0166 17.5371H81.4189V15.3838H94.0166V17.5371ZM94.0166 22.6348H81.4189V20.4814H94.0166V22.6348ZM124.734 33.0059H117.513V5.78906H124.734V7.83984H119.944V30.9551H124.734V33.0059ZM160.213 27H147.601V24.7148L152.552 19.793C153.362 18.9922 154.021 18.2988 154.529 17.7129C155.037 17.127 155.433 16.5947 155.716 16.1162C155.999 15.6279 156.189 15.1689 156.287 14.7393C156.385 14.3096 156.434 13.8457 156.434 13.3477C156.434 12.8789 156.37 12.4346 156.243 12.0146C156.116 11.585 155.921 11.209 155.657 10.8867C155.394 10.5645 155.052 10.3105 154.632 10.125C154.212 9.93945 153.709 9.84668 153.123 9.84668C152.312 9.84668 151.575 10.0273 150.911 10.3887C150.247 10.75 149.637 11.2188 149.08 11.7949L147.674 10.1104C148.396 9.34863 149.227 8.73828 150.164 8.2793C151.111 7.82031 152.21 7.59082 153.46 7.59082C154.31 7.59082 155.081 7.71777 155.774 7.97168C156.478 8.22559 157.083 8.5918 157.591 9.07031C158.099 9.54883 158.489 10.1348 158.763 10.8281C159.046 11.5215 159.188 12.3027 159.188 13.1719C159.188 13.9043 159.09 14.583 158.895 15.208C158.699 15.833 158.401 16.458 158.001 17.083C157.61 17.6982 157.112 18.3379 156.507 19.002C155.911 19.666 155.203 20.3936 154.383 21.1846L150.911 24.5684H160.213V27ZM226.028 27H214.002V24.627H218.924V10.6523L214.339 13.1426L213.401 10.9746L219.495 7.7666H221.751V24.627H226.028V27ZM292.605 17.4346C292.605 18.8994 292.459 20.2373 292.166 21.4482C291.873 22.6494 291.429 23.6846 290.833 24.5537C290.237 25.4131 289.495 26.082 288.606 26.5605C287.728 27.0293 286.692 27.2637 285.501 27.2637C284.476 27.2637 283.543 27.0732 282.703 26.6924C281.863 26.3018 281.146 25.7061 280.55 24.9053C279.954 24.1045 279.495 23.084 279.173 21.8438C278.851 20.6035 278.689 19.1338 278.689 17.4346C278.689 15.9697 278.836 14.6318 279.129 13.4209C279.432 12.21 279.876 11.1748 280.462 10.3154C281.058 9.44629 281.8 8.77734 282.688 8.30859C283.577 7.83008 284.612 7.59082 285.794 7.59082C286.819 7.59082 287.752 7.78613 288.592 8.17676C289.432 8.55762 290.149 9.15332 290.745 9.96387C291.341 10.7646 291.8 11.7852 292.122 13.0254C292.444 14.2656 292.605 15.7354 292.605 17.4346ZM290.027 17.5225C290.027 17.1904 290.013 16.8633 289.983 16.541C289.964 16.209 289.939 15.8867 289.91 15.5742L281.81 21.5947C281.956 22.1025 282.142 22.5713 282.366 23.001C282.591 23.4307 282.859 23.8018 283.172 24.1143C283.494 24.417 283.855 24.6562 284.256 24.832C284.666 24.998 285.13 25.0811 285.647 25.0811C286.312 25.0811 286.912 24.9199 287.449 24.5977C287.996 24.2754 288.46 23.7969 288.841 23.1621C289.222 22.5273 289.515 21.7412 289.72 20.8037C289.925 19.8564 290.027 18.7627 290.027 17.5225ZM281.268 17.3467C281.268 17.6494 281.268 17.9521 281.268 18.2549C281.277 18.5576 281.297 18.8506 281.326 19.1338L289.427 13.1426C289.28 12.6445 289.095 12.1904 288.87 11.7803C288.646 11.3701 288.377 11.0186 288.064 10.7256C287.752 10.4229 287.396 10.1885 286.995 10.0225C286.595 9.85645 286.146 9.77344 285.647 9.77344C284.983 9.77344 284.378 9.93457 283.831 10.2568C283.294 10.5791 282.835 11.0625 282.454 11.707C282.073 12.3418 281.78 13.1328 281.575 14.0801C281.37 15.0176 281.268 16.1064 281.268 17.3467ZM358.582 17.4346C358.582 18.8994 358.436 20.2373 358.143 21.4482C357.85 22.6494 357.405 23.6846 356.81 24.5537C356.214 25.4131 355.472 26.082 354.583 26.5605C353.704 27.0293 352.669 27.2637 351.478 27.2637C350.452 27.2637 349.52 27.0732 348.68 26.6924C347.84 26.3018 347.122 25.7061 346.526 24.9053C345.931 24.1045 345.472 23.084 345.149 21.8438C344.827 20.6035 344.666 19.1338 344.666 17.4346C344.666 15.9697 344.812 14.6318 345.105 13.4209C345.408 12.21 345.853 11.1748 346.438 10.3154C347.034 9.44629 347.776 8.77734 348.665 8.30859C349.554 7.83008 350.589 7.59082 351.771 7.59082C352.796 7.59082 353.729 7.78613 354.568 8.17676C355.408 8.55762 356.126 9.15332 356.722 9.96387C357.317 10.7646 357.776 11.7852 358.099 13.0254C358.421 14.2656 358.582 15.7354 358.582 17.4346ZM356.004 17.5225C356.004 17.1904 355.989 16.8633 355.96 16.541C355.94 16.209 355.916 15.8867 355.887 15.5742L347.786 21.5947C347.933 22.1025 348.118 22.5713 348.343 23.001C348.567 23.4307 348.836 23.8018 349.148 24.1143C349.471 24.417 349.832 24.6562 350.232 24.832C350.643 24.998 351.106 25.0811 351.624 25.0811C352.288 25.0811 352.889 24.9199 353.426 24.5977C353.973 24.2754 354.437 23.7969 354.817 23.1621C355.198 22.5273 355.491 21.7412 355.696 20.8037C355.901 19.8564 356.004 18.7627 356.004 17.5225ZM347.244 17.3467C347.244 17.6494 347.244 17.9521 347.244 18.2549C347.254 18.5576 347.273 18.8506 347.303 19.1338L355.403 13.1426C355.257 12.6445 355.071 12.1904 354.847 11.7803C354.622 11.3701 354.354 11.0186 354.041 10.7256C353.729 10.4229 353.372 10.1885 352.972 10.0225C352.571 9.85645 352.122 9.77344 351.624 9.77344C350.96 9.77344 350.354 9.93457 349.808 10.2568C349.271 10.5791 348.812 11.0625 348.431 11.707C348.05 12.3418 347.757 13.1328 347.552 14.0801C347.347 15.0176 347.244 16.1064 347.244 17.3467ZM424.119 27H411.507V24.7148L416.458 19.793C417.269 18.9922 417.928 18.2988 418.436 17.7129C418.943 17.127 419.339 16.5947 419.622 16.1162C419.905 15.6279 420.096 15.1689 420.193 14.7393C420.291 14.3096 420.34 13.8457 420.34 13.3477C420.34 12.8789 420.276 12.4346 420.149 12.0146C420.022 11.585 419.827 11.209 419.563 10.8867C419.3 10.5645 418.958 10.3105 418.538 10.125C418.118 9.93945 417.615 9.84668 417.029 9.84668C416.219 9.84668 415.481 10.0273 414.817 10.3887C414.153 10.75 413.543 11.2188 412.986 11.7949L411.58 10.1104C412.303 9.34863 413.133 8.73828 414.07 8.2793C415.018 7.82031 416.116 7.59082 417.366 7.59082C418.216 7.59082 418.987 7.71777 419.681 7.97168C420.384 8.22559 420.989 8.5918 421.497 9.07031C422.005 9.54883 422.396 10.1348 422.669 10.8281C422.952 11.5215 423.094 12.3027 423.094 13.1719C423.094 13.9043 422.996 14.583 422.801 15.208C422.605 15.833 422.308 16.458 421.907 17.083C421.517 17.6982 421.019 18.3379 420.413 19.002C419.817 19.666 419.109 20.3936 418.289 21.1846L414.817 24.5684H424.119V27ZM491.048 22.7666H487.781V27H485.174V22.7666H475.96V20.5254L484.119 7.85449H487.781V20.5254H491.048V22.7666ZM485.174 10.3154L478.509 20.5254H485.174V10.3154ZM556.072 27H543.46V24.7148L548.411 19.793C549.222 18.9922 549.881 18.2988 550.389 17.7129C550.896 17.127 551.292 16.5947 551.575 16.1162C551.858 15.6279 552.049 15.1689 552.146 14.7393C552.244 14.3096 552.293 13.8457 552.293 13.3477C552.293 12.8789 552.229 12.4346 552.103 12.0146C551.976 11.585 551.78 11.209 551.517 10.8867C551.253 10.5645 550.911 10.3105 550.491 10.125C550.071 9.93945 549.568 9.84668 548.982 9.84668C548.172 9.84668 547.435 10.0273 546.771 10.3887C546.106 10.75 545.496 11.2188 544.939 11.7949L543.533 10.1104C544.256 9.34863 545.086 8.73828 546.023 8.2793C546.971 7.82031 548.069 7.59082 549.319 7.59082C550.169 7.59082 550.94 7.71777 551.634 7.97168C552.337 8.22559 552.942 8.5918 553.45 9.07031C553.958 9.54883 554.349 10.1348 554.622 10.8281C554.905 11.5215 555.047 12.3027 555.047 13.1719C555.047 13.9043 554.949 14.583 554.754 15.208C554.559 15.833 554.261 16.458 553.86 17.083C553.47 17.6982 552.972 18.3379 552.366 19.002C551.771 19.666 551.062 20.3936 550.242 21.1846L546.771 24.5684H556.072V27ZM585.735 33.0059H578.514V30.9551H583.274V7.83984H578.514V5.78906H585.735V33.0059Z" fill="black"/>
<path d="M17.6494 214.293H19.9785L20.0518 217.003C20.9209 215.958 21.7754 215.201 22.6152 214.732C23.4648 214.264 24.3193 214.029 25.1787 214.029C26.7021 214.029 27.8545 214.522 28.6357 215.509C29.4268 216.495 29.793 217.96 29.7344 219.903H27.1562C27.1855 218.614 26.9951 217.682 26.585 217.105C26.1846 216.52 25.5938 216.227 24.8125 216.227C24.4707 216.227 24.124 216.29 23.7725 216.417C23.4307 216.534 23.0742 216.729 22.7031 217.003C22.3418 217.267 21.9561 217.608 21.5459 218.028C21.1357 218.448 20.6963 218.956 20.2275 219.552V229H17.6494V214.293ZM45.9648 220.87C45.9648 221.231 45.96 221.534 45.9502 221.778C45.9404 222.022 45.9258 222.252 45.9062 222.467H35.5791C35.5791 223.971 35.999 225.128 36.8389 225.938C37.6787 226.739 38.8896 227.14 40.4717 227.14C40.9014 227.14 41.3311 227.125 41.7607 227.096C42.1904 227.057 42.6055 227.008 43.0059 226.949C43.4062 226.891 43.7871 226.827 44.1484 226.759C44.5195 226.681 44.8613 226.598 45.1738 226.51V228.604C44.4805 228.8 43.6943 228.956 42.8154 229.073C41.9463 229.2 41.043 229.264 40.1055 229.264C38.8457 229.264 37.7617 229.093 36.8535 228.751C35.9453 228.409 35.1982 227.916 34.6123 227.271C34.0361 226.617 33.6064 225.821 33.3232 224.884C33.0498 223.937 32.9131 222.867 32.9131 221.676C32.9131 220.641 33.0596 219.664 33.3525 218.746C33.6553 217.818 34.0898 217.008 34.6562 216.314C35.2324 215.611 35.9355 215.055 36.7656 214.645C37.5957 214.234 38.5381 214.029 39.5928 214.029C40.6182 214.029 41.5264 214.19 42.3174 214.513C43.1084 214.835 43.7725 215.294 44.3096 215.89C44.8564 216.476 45.2666 217.193 45.54 218.043C45.8232 218.883 45.9648 219.825 45.9648 220.87ZM43.3135 220.504C43.3428 219.85 43.2793 219.254 43.123 218.717C42.9668 218.17 42.7227 217.701 42.3906 217.311C42.0684 216.92 41.6631 216.617 41.1748 216.402C40.6865 216.178 40.1201 216.065 39.4756 216.065C38.9189 216.065 38.4111 216.173 37.9521 216.388C37.4932 216.603 37.0977 216.905 36.7656 217.296C36.4336 217.687 36.165 218.155 35.96 218.702C35.7549 219.249 35.6279 219.85 35.5791 220.504H43.3135ZM61.6826 224.986C61.6826 225.504 61.5947 225.968 61.4189 226.378C61.2432 226.788 61.0039 227.154 60.7012 227.477C60.3984 227.789 60.0469 228.058 59.6465 228.282C59.2461 228.507 58.8164 228.692 58.3574 228.839C57.9082 228.985 57.4443 229.093 56.9658 229.161C56.4873 229.229 56.0186 229.264 55.5596 229.264C54.5635 229.264 53.6455 229.22 52.8057 229.132C51.9756 229.044 51.1602 228.902 50.3594 228.707V226.363C51.2188 226.607 52.0732 226.793 52.9229 226.92C53.7725 227.047 54.6172 227.11 55.457 227.11C56.6777 227.11 57.5811 226.944 58.167 226.612C58.7529 226.28 59.0459 225.807 59.0459 225.191C59.0459 224.928 58.9971 224.693 58.8994 224.488C58.8115 224.273 58.6455 224.073 58.4014 223.888C58.1572 223.692 57.7764 223.492 57.2588 223.287C56.751 223.082 56.0527 222.848 55.1641 222.584C54.5 222.389 53.8848 222.169 53.3184 221.925C52.7617 221.671 52.2783 221.373 51.8682 221.031C51.458 220.689 51.1357 220.289 50.9014 219.83C50.667 219.371 50.5498 218.829 50.5498 218.204C50.5498 217.794 50.6426 217.345 50.8281 216.856C51.0234 216.368 51.3506 215.914 51.8096 215.494C52.2686 215.074 52.8887 214.728 53.6699 214.454C54.4512 214.171 55.4277 214.029 56.5996 214.029C57.1758 214.029 57.8154 214.063 58.5186 214.132C59.2217 214.19 59.9541 214.298 60.7158 214.454V216.725C59.915 216.529 59.1533 216.388 58.4307 216.3C57.7178 216.202 57.0977 216.153 56.5703 216.153C55.9355 216.153 55.3984 216.202 54.959 216.3C54.5293 216.397 54.1777 216.534 53.9043 216.71C53.6406 216.876 53.4502 217.076 53.333 217.311C53.2158 217.535 53.1572 217.779 53.1572 218.043C53.1572 218.307 53.2061 218.546 53.3037 218.761C53.4111 218.976 53.6016 219.186 53.875 219.391C54.1582 219.586 54.5488 219.786 55.0469 219.991C55.5449 220.187 56.1943 220.401 56.9951 220.636C57.8643 220.89 58.5967 221.158 59.1924 221.441C59.7881 221.715 60.2715 222.022 60.6426 222.364C61.0137 222.706 61.2773 223.092 61.4336 223.521C61.5996 223.951 61.6826 224.439 61.6826 224.986ZM95.2275 219.537H82.6299V217.384H95.2275V219.537ZM95.2275 224.635H82.6299V222.481H95.2275V224.635ZM125.945 235.006H118.724V207.789H125.945V209.84H121.155V232.955H125.945V235.006ZM161.863 219.435C161.863 220.899 161.717 222.237 161.424 223.448C161.131 224.649 160.687 225.685 160.091 226.554C159.495 227.413 158.753 228.082 157.864 228.561C156.985 229.029 155.95 229.264 154.759 229.264C153.733 229.264 152.801 229.073 151.961 228.692C151.121 228.302 150.403 227.706 149.808 226.905C149.212 226.104 148.753 225.084 148.431 223.844C148.108 222.604 147.947 221.134 147.947 219.435C147.947 217.97 148.094 216.632 148.387 215.421C148.689 214.21 149.134 213.175 149.72 212.315C150.315 211.446 151.058 210.777 151.946 210.309C152.835 209.83 153.87 209.591 155.052 209.591C156.077 209.591 157.01 209.786 157.85 210.177C158.689 210.558 159.407 211.153 160.003 211.964C160.599 212.765 161.058 213.785 161.38 215.025C161.702 216.266 161.863 217.735 161.863 219.435ZM159.285 219.522C159.285 219.19 159.271 218.863 159.241 218.541C159.222 218.209 159.197 217.887 159.168 217.574L151.067 223.595C151.214 224.103 151.399 224.571 151.624 225.001C151.849 225.431 152.117 225.802 152.43 226.114C152.752 226.417 153.113 226.656 153.514 226.832C153.924 226.998 154.388 227.081 154.905 227.081C155.569 227.081 156.17 226.92 156.707 226.598C157.254 226.275 157.718 225.797 158.099 225.162C158.479 224.527 158.772 223.741 158.978 222.804C159.183 221.856 159.285 220.763 159.285 219.522ZM150.525 219.347C150.525 219.649 150.525 219.952 150.525 220.255C150.535 220.558 150.555 220.851 150.584 221.134L158.685 215.143C158.538 214.645 158.353 214.19 158.128 213.78C157.903 213.37 157.635 213.019 157.322 212.726C157.01 212.423 156.653 212.188 156.253 212.022C155.853 211.856 155.403 211.773 154.905 211.773C154.241 211.773 153.636 211.935 153.089 212.257C152.552 212.579 152.093 213.062 151.712 213.707C151.331 214.342 151.038 215.133 150.833 216.08C150.628 217.018 150.525 218.106 150.525 219.347ZM227.84 219.435C227.84 220.899 227.693 222.237 227.4 223.448C227.107 224.649 226.663 225.685 226.067 226.554C225.472 227.413 224.729 228.082 223.841 228.561C222.962 229.029 221.927 229.264 220.735 229.264C219.71 229.264 218.777 229.073 217.938 228.692C217.098 228.302 216.38 227.706 215.784 226.905C215.188 226.104 214.729 225.084 214.407 223.844C214.085 222.604 213.924 221.134 213.924 219.435C213.924 217.97 214.07 216.632 214.363 215.421C214.666 214.21 215.11 213.175 215.696 212.315C216.292 211.446 217.034 210.777 217.923 210.309C218.812 209.83 219.847 209.591 221.028 209.591C222.054 209.591 222.986 209.786 223.826 210.177C224.666 210.558 225.384 211.153 225.979 211.964C226.575 212.765 227.034 213.785 227.356 215.025C227.679 216.266 227.84 217.735 227.84 219.435ZM225.262 219.522C225.262 219.19 225.247 218.863 225.218 218.541C225.198 218.209 225.174 217.887 225.145 217.574L217.044 223.595C217.19 224.103 217.376 224.571 217.601 225.001C217.825 225.431 218.094 225.802 218.406 226.114C218.729 226.417 219.09 226.656 219.49 226.832C219.9 226.998 220.364 227.081 220.882 227.081C221.546 227.081 222.146 226.92 222.684 226.598C223.23 226.275 223.694 225.797 224.075 225.162C224.456 224.527 224.749 223.741 224.954 222.804C225.159 221.856 225.262 220.763 225.262 219.522ZM216.502 219.347C216.502 219.649 216.502 219.952 216.502 220.255C216.512 220.558 216.531 220.851 216.561 221.134L224.661 215.143C224.515 214.645 224.329 214.19 224.104 213.78C223.88 213.37 223.611 213.019 223.299 212.726C222.986 212.423 222.63 212.188 222.229 212.022C221.829 211.856 221.38 211.773 220.882 211.773C220.218 211.773 219.612 211.935 219.065 212.257C218.528 212.579 218.069 213.062 217.688 213.707C217.308 214.342 217.015 215.133 216.81 216.08C216.604 217.018 216.502 218.106 216.502 219.347ZM293.216 229H281.189V226.627H286.111V212.652L281.526 215.143L280.589 212.975L286.683 209.767H288.938V226.627H293.216V229ZM359.354 229H346.741V226.715L351.692 221.793C352.503 220.992 353.162 220.299 353.67 219.713C354.178 219.127 354.573 218.595 354.856 218.116C355.14 217.628 355.33 217.169 355.428 216.739C355.525 216.31 355.574 215.846 355.574 215.348C355.574 214.879 355.511 214.435 355.384 214.015C355.257 213.585 355.062 213.209 354.798 212.887C354.534 212.564 354.192 212.311 353.772 212.125C353.353 211.939 352.85 211.847 352.264 211.847C351.453 211.847 350.716 212.027 350.052 212.389C349.388 212.75 348.777 213.219 348.221 213.795L346.814 212.11C347.537 211.349 348.367 210.738 349.305 210.279C350.252 209.82 351.351 209.591 352.601 209.591C353.45 209.591 354.222 209.718 354.915 209.972C355.618 210.226 356.224 210.592 356.731 211.07C357.239 211.549 357.63 212.135 357.903 212.828C358.187 213.521 358.328 214.303 358.328 215.172C358.328 215.904 358.23 216.583 358.035 217.208C357.84 217.833 357.542 218.458 357.142 219.083C356.751 219.698 356.253 220.338 355.647 221.002C355.052 221.666 354.344 222.394 353.523 223.185L350.052 226.568H359.354V229ZM425.33 229H412.718V226.715L417.669 221.793C418.479 220.992 419.139 220.299 419.646 219.713C420.154 219.127 420.55 218.595 420.833 218.116C421.116 217.628 421.307 217.169 421.404 216.739C421.502 216.31 421.551 215.846 421.551 215.348C421.551 214.879 421.487 214.435 421.36 214.015C421.233 213.585 421.038 213.209 420.774 212.887C420.511 212.564 420.169 212.311 419.749 212.125C419.329 211.939 418.826 211.847 418.24 211.847C417.43 211.847 416.692 212.027 416.028 212.389C415.364 212.75 414.754 213.219 414.197 213.795L412.791 212.11C413.514 211.349 414.344 210.738 415.281 210.279C416.229 209.82 417.327 209.591 418.577 209.591C419.427 209.591 420.198 209.718 420.892 209.972C421.595 210.226 422.2 210.592 422.708 211.07C423.216 211.549 423.606 212.135 423.88 212.828C424.163 213.521 424.305 214.303 424.305 215.172C424.305 215.904 424.207 216.583 424.012 217.208C423.816 217.833 423.519 218.458 423.118 219.083C422.728 219.698 422.229 220.338 421.624 221.002C421.028 221.666 420.32 222.394 419.5 223.185L416.028 226.568H425.33V229ZM491.307 229H478.694V226.715L483.646 221.793C484.456 220.992 485.115 220.299 485.623 219.713C486.131 219.127 486.526 218.595 486.81 218.116C487.093 217.628 487.283 217.169 487.381 216.739C487.479 216.31 487.527 215.846 487.527 215.348C487.527 214.879 487.464 214.435 487.337 214.015C487.21 213.585 487.015 213.209 486.751 212.887C486.487 212.564 486.146 212.311 485.726 212.125C485.306 211.939 484.803 211.847 484.217 211.847C483.406 211.847 482.669 212.027 482.005 212.389C481.341 212.75 480.73 213.219 480.174 213.795L478.768 212.11C479.49 211.349 480.32 210.738 481.258 210.279C482.205 209.82 483.304 209.591 484.554 209.591C485.403 209.591 486.175 209.718 486.868 209.972C487.571 210.226 488.177 210.592 488.685 211.07C489.192 211.549 489.583 212.135 489.856 212.828C490.14 213.521 490.281 214.303 490.281 215.172C490.281 215.904 490.184 216.583 489.988 217.208C489.793 217.833 489.495 218.458 489.095 219.083C488.704 219.698 488.206 220.338 487.601 221.002C487.005 221.666 486.297 222.394 485.477 223.185L482.005 226.568H491.307V229ZM558.235 224.767H554.969V229H552.361V224.767H543.147V222.525L551.307 209.854H554.969V222.525H558.235V224.767ZM552.361 212.315L545.696 222.525H552.361V212.315ZM586.946 235.006H579.725V232.955H584.485V209.84H579.725V207.789H586.946V235.006Z" fill="black"/>
<path d="M61.8574 113.458C61.1934 113.712 60.5098 113.897 59.8066 114.015C59.1133 114.142 58.3955 114.205 57.6533 114.205C55.3291 114.205 53.5371 113.575 52.2773 112.315C51.0273 111.056 50.4023 109.215 50.4023 106.793C50.4023 105.631 50.583 104.576 50.9443 103.629C51.3057 102.682 51.8135 101.871 52.4678 101.197C53.1221 100.523 53.9033 100.006 54.8115 99.6445C55.7197 99.2734 56.7207 99.0879 57.8145 99.0879C58.5762 99.0879 59.2891 99.1416 59.9531 99.249C60.6172 99.3564 61.252 99.5322 61.8574 99.7764V102.208C61.2227 101.876 60.5732 101.637 59.9092 101.49C59.2549 101.334 58.5762 101.256 57.873 101.256C57.2188 101.256 56.5986 101.383 56.0127 101.637C55.4365 101.881 54.9287 102.237 54.4893 102.706C54.0498 103.175 53.7031 103.746 53.4492 104.42C53.1953 105.094 53.0684 105.855 53.0684 106.705C53.0684 108.482 53.498 109.815 54.3574 110.704C55.2266 111.583 56.4277 112.022 57.9609 112.022C58.6543 112.022 59.3232 111.944 59.9678 111.788C60.6221 111.632 61.252 111.397 61.8574 111.085V113.458ZM79.7285 106.529C79.7285 107.672 79.5674 108.722 79.2451 109.679C78.9229 110.626 78.459 111.441 77.8535 112.125C77.248 112.799 76.5107 113.326 75.6416 113.707C74.7725 114.078 73.7861 114.264 72.6826 114.264C71.6279 114.264 70.6807 114.103 69.8408 113.78C69.0107 113.448 68.3027 112.965 67.7168 112.33C67.1406 111.695 66.6963 110.909 66.3838 109.972C66.0811 109.034 65.9297 107.955 65.9297 106.734C65.9297 105.592 66.0908 104.552 66.4131 103.614C66.7354 102.667 67.1992 101.856 67.8047 101.183C68.4102 100.499 69.1475 99.9717 70.0166 99.6006C70.8857 99.2197 71.8721 99.0293 72.9756 99.0293C74.0303 99.0293 74.9727 99.1953 75.8027 99.5273C76.6426 99.8496 77.3506 100.328 77.9268 100.963C78.5127 101.588 78.957 102.369 79.2598 103.307C79.5723 104.244 79.7285 105.318 79.7285 106.529ZM77.1211 106.646C77.1211 105.738 77.0186 104.947 76.8135 104.273C76.6182 103.59 76.335 103.023 75.9639 102.574C75.5928 102.115 75.1387 101.773 74.6016 101.549C74.0742 101.314 73.4834 101.197 72.8291 101.197C72.0674 101.197 71.4131 101.349 70.8662 101.651C70.3291 101.944 69.8848 102.34 69.5332 102.838C69.1914 103.336 68.9375 103.917 68.7715 104.581C68.6152 105.235 68.5371 105.924 68.5371 106.646C68.5371 107.555 68.6348 108.351 68.8301 109.034C69.0352 109.718 69.3232 110.289 69.6943 110.748C70.0654 111.197 70.5146 111.539 71.042 111.773C71.5693 111.998 72.165 112.11 72.8291 112.11C73.5908 112.11 74.2402 111.964 74.7773 111.671C75.3242 111.368 75.7686 110.968 76.1104 110.47C76.4619 109.972 76.7158 109.396 76.8721 108.741C77.0381 108.077 77.1211 107.379 77.1211 106.646ZM95.2412 114H92.9561L92.8682 111.627C92.4287 112.135 92.0088 112.56 91.6084 112.901C91.2178 113.233 90.8271 113.502 90.4365 113.707C90.0459 113.912 89.6504 114.054 89.25 114.132C88.8594 114.22 88.4443 114.264 88.0049 114.264C86.4912 114.264 85.3486 113.819 84.5771 112.931C83.8057 112.042 83.4199 110.699 83.4199 108.902V99.293H85.9688V108.697C85.9688 110.953 86.8184 112.081 88.5176 112.081C88.8301 112.081 89.1328 112.037 89.4258 111.949C89.7285 111.852 90.041 111.69 90.3633 111.466C90.6953 111.231 91.0469 110.919 91.418 110.528C91.7988 110.138 92.2236 109.645 92.6924 109.049V99.293H95.2412V114ZM99.9141 99.293H102.185L102.287 101.666C102.717 101.158 103.132 100.738 103.532 100.406C103.933 100.064 104.323 99.791 104.704 99.5859C105.095 99.3809 105.49 99.2393 105.891 99.1611C106.291 99.0732 106.706 99.0293 107.136 99.0293C108.649 99.0293 109.792 99.4785 110.563 100.377C111.345 101.266 111.735 102.608 111.735 104.405V114H109.187V104.61C109.187 103.458 108.972 102.608 108.542 102.062C108.112 101.505 107.473 101.227 106.623 101.227C106.311 101.227 106.003 101.275 105.7 101.373C105.407 101.461 105.1 101.622 104.777 101.856C104.455 102.081 104.104 102.389 103.723 102.779C103.352 103.17 102.932 103.658 102.463 104.244V114H99.9141V99.293ZM128.259 113.795C127.683 113.941 127.087 114.044 126.472 114.103C125.856 114.171 125.231 114.205 124.597 114.205C122.751 114.205 121.374 113.79 120.466 112.96C119.558 112.12 119.104 110.836 119.104 109.107V101.432H114.987V99.293H119.104V95.25L121.652 94.5908V99.293H128.259V101.432H121.652V108.902C121.652 109.957 121.931 110.748 122.487 111.275C123.054 111.793 123.884 112.052 124.978 112.052C125.446 112.052 125.959 112.018 126.516 111.949C127.072 111.871 127.653 111.754 128.259 111.598V113.795ZM144.548 109.986C144.548 110.504 144.46 110.968 144.284 111.378C144.108 111.788 143.869 112.154 143.566 112.477C143.264 112.789 142.912 113.058 142.512 113.282C142.111 113.507 141.682 113.692 141.223 113.839C140.773 113.985 140.31 114.093 139.831 114.161C139.353 114.229 138.884 114.264 138.425 114.264C137.429 114.264 136.511 114.22 135.671 114.132C134.841 114.044 134.025 113.902 133.225 113.707V111.363C134.084 111.607 134.938 111.793 135.788 111.92C136.638 112.047 137.482 112.11 138.322 112.11C139.543 112.11 140.446 111.944 141.032 111.612C141.618 111.28 141.911 110.807 141.911 110.191C141.911 109.928 141.862 109.693 141.765 109.488C141.677 109.273 141.511 109.073 141.267 108.888C141.022 108.692 140.642 108.492 140.124 108.287C139.616 108.082 138.918 107.848 138.029 107.584C137.365 107.389 136.75 107.169 136.184 106.925C135.627 106.671 135.144 106.373 134.733 106.031C134.323 105.689 134.001 105.289 133.767 104.83C133.532 104.371 133.415 103.829 133.415 103.204C133.415 102.794 133.508 102.345 133.693 101.856C133.889 101.368 134.216 100.914 134.675 100.494C135.134 100.074 135.754 99.7275 136.535 99.4541C137.316 99.1709 138.293 99.0293 139.465 99.0293C140.041 99.0293 140.681 99.0635 141.384 99.1318C142.087 99.1904 142.819 99.2979 143.581 99.4541V101.725C142.78 101.529 142.019 101.388 141.296 101.3C140.583 101.202 139.963 101.153 139.436 101.153C138.801 101.153 138.264 101.202 137.824 101.3C137.395 101.397 137.043 101.534 136.77 101.71C136.506 101.876 136.315 102.076 136.198 102.311C136.081 102.535 136.022 102.779 136.022 103.043C136.022 103.307 136.071 103.546 136.169 103.761C136.276 103.976 136.467 104.186 136.74 104.391C137.023 104.586 137.414 104.786 137.912 104.991C138.41 105.187 139.06 105.401 139.86 105.636C140.729 105.89 141.462 106.158 142.058 106.441C142.653 106.715 143.137 107.022 143.508 107.364C143.879 107.706 144.143 108.092 144.299 108.521C144.465 108.951 144.548 109.439 144.548 109.986ZM178.093 104.537H165.495V102.384H178.093V104.537ZM178.093 109.635H165.495V107.481H178.093V109.635ZM208.811 120.006H201.589V92.7891H208.811V94.8398H204.021V117.955H208.811V120.006ZM244.289 114H231.677V111.715L236.628 106.793C237.438 105.992 238.098 105.299 238.605 104.713C239.113 104.127 239.509 103.595 239.792 103.116C240.075 102.628 240.266 102.169 240.363 101.739C240.461 101.31 240.51 100.846 240.51 100.348C240.51 99.8789 240.446 99.4346 240.319 99.0146C240.192 98.585 239.997 98.209 239.733 97.8867C239.47 97.5645 239.128 97.3105 238.708 97.125C238.288 96.9395 237.785 96.8467 237.199 96.8467C236.389 96.8467 235.651 97.0273 234.987 97.3887C234.323 97.75 233.713 98.2188 233.156 98.7949L231.75 97.1104C232.473 96.3486 233.303 95.7383 234.24 95.2793C235.188 94.8203 236.286 94.5908 237.536 94.5908C238.386 94.5908 239.157 94.7178 239.851 94.9717C240.554 95.2256 241.159 95.5918 241.667 96.0703C242.175 96.5488 242.565 97.1348 242.839 97.8281C243.122 98.5215 243.264 99.3027 243.264 100.172C243.264 100.904 243.166 101.583 242.971 102.208C242.775 102.833 242.478 103.458 242.077 104.083C241.687 104.698 241.188 105.338 240.583 106.002C239.987 106.666 239.279 107.394 238.459 108.185L234.987 111.568H244.289V114ZM310.104 114H298.078V111.627H303V97.6523L298.415 100.143L297.478 97.9746L303.571 94.7666H305.827V111.627H310.104V114ZM375.876 108.185C375.876 109.024 375.705 109.815 375.363 110.558C375.021 111.29 374.509 111.935 373.825 112.491C373.142 113.038 372.282 113.473 371.247 113.795C370.212 114.107 369.006 114.264 367.629 114.264C366.867 114.264 366.184 114.239 365.578 114.19C364.973 114.142 364.406 114.078 363.879 114V111.715C364.484 111.822 365.124 111.905 365.798 111.964C366.472 112.022 367.16 112.052 367.863 112.052C368.82 112.052 369.636 111.969 370.31 111.803C370.993 111.627 371.55 111.378 371.979 111.056C372.409 110.733 372.722 110.343 372.917 109.884C373.112 109.425 373.21 108.907 373.21 108.331C373.21 107.804 373.093 107.345 372.858 106.954C372.624 106.563 372.292 106.236 371.862 105.973C371.442 105.709 370.935 105.514 370.339 105.387C369.753 105.25 369.108 105.182 368.405 105.182H366.223V103.087H368.435C369.011 103.087 369.533 103.014 370.002 102.867C370.48 102.711 370.886 102.491 371.218 102.208C371.56 101.925 371.818 101.578 371.994 101.168C372.18 100.748 372.272 100.274 372.272 99.7471C372.272 98.7217 371.96 97.9746 371.335 97.5059C370.71 97.0371 369.792 96.8027 368.581 96.8027C367.937 96.8027 367.272 96.8662 366.589 96.9932C365.905 97.1201 365.173 97.3105 364.392 97.5645V95.3379C364.724 95.2207 365.075 95.1182 365.446 95.0303C365.827 94.9326 366.203 94.8545 366.574 94.7959C366.955 94.7275 367.331 94.6787 367.702 94.6494C368.073 94.6104 368.43 94.5908 368.771 94.5908C369.787 94.5908 370.681 94.7031 371.452 94.9277C372.224 95.1426 372.868 95.4551 373.386 95.8652C373.903 96.2754 374.294 96.7734 374.558 97.3594C374.821 97.9453 374.953 98.6045 374.953 99.3369C374.953 100.431 374.67 101.349 374.104 102.091C373.547 102.833 372.78 103.424 371.804 103.863C372.302 103.941 372.79 104.098 373.269 104.332C373.757 104.566 374.191 104.869 374.572 105.24C374.963 105.602 375.275 106.031 375.51 106.529C375.754 107.027 375.876 107.579 375.876 108.185ZM442.658 104.435C442.658 105.899 442.512 107.237 442.219 108.448C441.926 109.649 441.481 110.685 440.886 111.554C440.29 112.413 439.548 113.082 438.659 113.561C437.78 114.029 436.745 114.264 435.554 114.264C434.528 114.264 433.596 114.073 432.756 113.692C431.916 113.302 431.198 112.706 430.603 111.905C430.007 111.104 429.548 110.084 429.226 108.844C428.903 107.604 428.742 106.134 428.742 104.435C428.742 102.97 428.889 101.632 429.182 100.421C429.484 99.21 429.929 98.1748 430.515 97.3154C431.11 96.4463 431.853 95.7773 432.741 95.3086C433.63 94.8301 434.665 94.5908 435.847 94.5908C436.872 94.5908 437.805 94.7861 438.645 95.1768C439.484 95.5576 440.202 96.1533 440.798 96.9639C441.394 97.7646 441.853 98.7852 442.175 100.025C442.497 101.266 442.658 102.735 442.658 104.435ZM440.08 104.522C440.08 104.19 440.065 103.863 440.036 103.541C440.017 103.209 439.992 102.887 439.963 102.574L431.862 108.595C432.009 109.103 432.194 109.571 432.419 110.001C432.644 110.431 432.912 110.802 433.225 111.114C433.547 111.417 433.908 111.656 434.309 111.832C434.719 111.998 435.183 112.081 435.7 112.081C436.364 112.081 436.965 111.92 437.502 111.598C438.049 111.275 438.513 110.797 438.894 110.162C439.274 109.527 439.567 108.741 439.772 107.804C439.978 106.856 440.08 105.763 440.08 104.522ZM431.32 104.347C431.32 104.649 431.32 104.952 431.32 105.255C431.33 105.558 431.35 105.851 431.379 106.134L439.479 100.143C439.333 99.6445 439.147 99.1904 438.923 98.7803C438.698 98.3701 438.43 98.0186 438.117 97.7256C437.805 97.4229 437.448 97.1885 437.048 97.0225C436.647 96.8564 436.198 96.7734 435.7 96.7734C435.036 96.7734 434.431 96.9346 433.884 97.2568C433.347 97.5791 432.888 98.0625 432.507 98.707C432.126 99.3418 431.833 100.133 431.628 101.08C431.423 102.018 431.32 103.106 431.32 104.347ZM508.034 114H496.008V111.627H500.93V97.6523L496.345 100.143L495.407 97.9746L501.501 94.7666H503.757V111.627H508.034V114ZM537.858 120.006H530.637V117.955H535.397V94.8398H530.637V92.7891H537.858V120.006Z" fill="black"/>
<path d="M586 49L586 57L120 57L120 49" stroke="#797979" stroke-width="2" stroke-linecap="round"/>
<path d="M353 68L358.774 58L347.226 58L353 68ZM352 57L352 59L354 59L354 57L352 57Z" fill="#797979"/>
<path opacity="0.5" d="M244.012 130.667C244.012 131.79 243.899 132.815 243.675 133.744C243.45 134.665 243.11 135.458 242.653 136.125C242.196 136.783 241.627 137.296 240.946 137.663C240.272 138.022 239.478 138.202 238.565 138.202C237.779 138.202 237.064 138.056 236.42 137.764C235.776 137.465 235.226 137.008 234.769 136.394C234.312 135.78 233.96 134.998 233.713 134.047C233.466 133.096 233.343 131.969 233.343 130.667C233.343 129.543 233.455 128.518 233.68 127.589C233.912 126.661 234.252 125.867 234.702 125.208C235.158 124.542 235.727 124.029 236.409 123.67C237.09 123.303 237.884 123.12 238.79 123.12C239.576 123.12 240.291 123.269 240.935 123.569C241.578 123.861 242.129 124.318 242.585 124.939C243.042 125.553 243.394 126.335 243.641 127.286C243.888 128.237 244.012 129.364 244.012 130.667ZM242.035 130.734C242.035 130.479 242.024 130.229 242.001 129.981C241.986 129.727 241.968 129.48 241.945 129.24L235.735 133.856C235.847 134.245 235.989 134.605 236.162 134.934C236.334 135.264 236.54 135.548 236.779 135.788C237.026 136.02 237.303 136.203 237.61 136.338C237.925 136.465 238.28 136.529 238.677 136.529C239.186 136.529 239.647 136.405 240.059 136.158C240.478 135.911 240.833 135.544 241.125 135.058C241.417 134.571 241.642 133.968 241.799 133.25C241.957 132.523 242.035 131.685 242.035 130.734ZM235.319 130.599C235.319 130.831 235.319 131.063 235.319 131.295C235.327 131.528 235.342 131.752 235.364 131.969L241.575 127.376C241.462 126.994 241.32 126.646 241.148 126.332C240.976 126.017 240.77 125.748 240.53 125.523C240.291 125.291 240.017 125.111 239.71 124.984C239.403 124.857 239.059 124.793 238.677 124.793C238.168 124.793 237.704 124.917 237.285 125.164C236.873 125.411 236.521 125.781 236.229 126.275C235.937 126.762 235.712 127.368 235.555 128.095C235.398 128.813 235.319 129.648 235.319 130.599Z" fill="black"/>
<path opacity="0.5" d="M309.551 138H300.331V136.181H304.104V125.467L300.589 127.376L299.871 125.714L304.542 123.254H306.272V136.181H309.551V138Z" fill="black"/>
<path opacity="0.5" d="M375.675 138H366.005V136.248L369.801 132.475C370.423 131.861 370.928 131.329 371.317 130.88C371.707 130.431 372.01 130.023 372.227 129.656C372.444 129.281 372.59 128.93 372.665 128.6C372.74 128.271 372.777 127.915 372.777 127.533C372.777 127.174 372.729 126.833 372.631 126.511C372.534 126.182 372.384 125.894 372.182 125.646C371.98 125.399 371.718 125.205 371.396 125.062C371.074 124.92 370.688 124.849 370.239 124.849C369.618 124.849 369.053 124.988 368.543 125.265C368.034 125.542 367.566 125.901 367.14 126.343L366.062 125.051C366.616 124.467 367.252 123.999 367.971 123.647C368.697 123.296 369.539 123.12 370.498 123.12C371.149 123.12 371.74 123.217 372.272 123.412C372.811 123.606 373.275 123.887 373.665 124.254C374.054 124.621 374.353 125.07 374.563 125.602C374.78 126.133 374.889 126.732 374.889 127.398C374.889 127.96 374.814 128.48 374.664 128.959C374.514 129.439 374.286 129.918 373.979 130.397C373.68 130.869 373.298 131.359 372.833 131.868C372.377 132.377 371.834 132.935 371.205 133.542L368.543 136.136H375.675V138Z" fill="black"/>
<path opacity="0.5" d="M441.394 133.542C441.394 134.185 441.263 134.792 441.001 135.361C440.739 135.922 440.346 136.417 439.822 136.843C439.298 137.263 438.639 137.596 437.845 137.843C437.052 138.082 436.127 138.202 435.071 138.202C434.487 138.202 433.963 138.183 433.499 138.146C433.035 138.109 432.601 138.06 432.196 138V136.248C432.66 136.33 433.151 136.394 433.667 136.439C434.184 136.484 434.712 136.506 435.251 136.506C435.985 136.506 436.61 136.443 437.126 136.315C437.651 136.181 438.077 135.99 438.407 135.743C438.736 135.496 438.976 135.196 439.125 134.844C439.275 134.492 439.35 134.096 439.35 133.654C439.35 133.25 439.26 132.898 439.081 132.598C438.901 132.299 438.646 132.048 438.317 131.846C437.995 131.644 437.606 131.494 437.149 131.396C436.7 131.292 436.206 131.239 435.667 131.239H433.993V129.633H435.689C436.131 129.633 436.531 129.577 436.891 129.465C437.257 129.345 437.568 129.177 437.823 128.959C438.085 128.742 438.283 128.477 438.418 128.162C438.56 127.84 438.631 127.477 438.631 127.073C438.631 126.287 438.392 125.714 437.913 125.354C437.433 124.995 436.73 124.815 435.801 124.815C435.307 124.815 434.798 124.864 434.274 124.961C433.75 125.059 433.188 125.205 432.589 125.399V123.692C432.844 123.603 433.113 123.524 433.398 123.457C433.69 123.382 433.978 123.322 434.263 123.277C434.555 123.224 434.843 123.187 435.127 123.165C435.412 123.135 435.685 123.12 435.947 123.12C436.726 123.12 437.411 123.206 438.002 123.378C438.594 123.543 439.088 123.782 439.485 124.097C439.882 124.411 440.181 124.793 440.383 125.242C440.585 125.691 440.687 126.197 440.687 126.758C440.687 127.597 440.469 128.301 440.035 128.87C439.608 129.439 439.021 129.892 438.272 130.229C438.654 130.288 439.028 130.408 439.395 130.588C439.769 130.768 440.103 131 440.395 131.284C440.694 131.561 440.934 131.891 441.113 132.272C441.3 132.654 441.394 133.077 441.394 133.542Z" fill="black"/>
<path opacity="0.5" d="M507.405 134.754H504.9V138H502.901V134.754H495.837V133.036L502.093 123.322H504.9V133.036H507.405V134.754ZM502.901 125.208L497.792 133.036H502.901V125.208Z" fill="black"/>
<path d="M158.182 193.075C158.499 193.527 159.123 193.636 159.575 193.318L166.94 188.145C167.392 187.828 167.501 187.204 167.183 186.752C166.866 186.3 166.242 186.191 165.79 186.509L159.244 191.107L154.645 184.56C154.328 184.108 153.704 183.999 153.252 184.317C152.8 184.634 152.691 185.258 153.009 185.71L158.182 193.075ZM236.716 144.541C227.324 147.322 218.224 149.076 209.69 150.794C201.18 152.507 193.207 154.187 186.181 156.823C179.139 159.465 172.993 163.086 168.153 168.713C163.311 174.341 159.837 181.904 158.015 192.328L159.985 192.672C161.76 182.517 165.114 175.312 169.669 170.017C174.225 164.72 180.047 161.26 186.884 158.696C193.736 156.125 201.553 154.471 210.085 152.754C218.593 151.042 227.788 149.27 237.284 146.459L236.716 144.541Z" fill="#FF5500"/>
<path d="M237.894 145.948C238.141 145.454 237.942 144.854 237.448 144.606C236.954 144.359 236.354 144.558 236.106 145.052L237.894 145.948ZM221.281 192.695C221.665 193.092 222.298 193.103 222.695 192.719L229.167 186.465C229.564 186.081 229.575 185.448 229.191 185.051C228.807 184.654 228.174 184.643 227.777 185.027L222.024 190.586L216.465 184.833C216.081 184.436 215.448 184.425 215.051 184.809C214.654 185.193 214.643 185.826 215.027 186.223L221.281 192.695ZM236.106 145.052C234.115 149.024 232.217 152.414 230.458 155.683C228.704 158.941 227.096 162.066 225.726 165.448C222.973 172.239 221.205 179.998 221 191.983L223 192.017C223.201 180.239 224.933 172.728 227.579 166.199C228.908 162.921 230.474 159.874 232.219 156.63C233.959 153.396 235.885 149.955 237.894 145.948L236.106 145.052Z" fill="#FF5500"/>
<path d="M305.999 144.964C305.979 144.412 305.516 143.981 304.964 144.001C304.412 144.021 303.981 144.484 304.001 145.036L305.999 144.964ZM287.293 192.707C287.683 193.098 288.317 193.098 288.707 192.707L295.071 186.343C295.462 185.953 295.462 185.319 295.071 184.929C294.681 184.538 294.047 184.538 293.657 184.929L288 190.586L282.343 184.929C281.953 184.538 281.319 184.538 280.929 184.929C280.538 185.319 280.538 185.953 280.929 186.343L287.293 192.707ZM304.001 145.036C304.247 151.817 303.319 156.089 301.861 159.177C300.398 162.274 298.368 164.267 296.163 166.501C293.964 168.729 291.635 171.159 289.885 175.04C288.138 178.914 287 184.156 287 192H289C289 184.344 290.112 179.403 291.708 175.862C293.302 172.328 295.41 170.11 297.586 167.906C299.756 165.707 302.038 163.484 303.669 160.031C305.305 156.568 306.253 151.954 305.999 144.964L304.001 145.036Z" fill="#FF5500"/>
<path d="M353.278 192.692C353.66 193.091 354.293 193.104 354.692 192.722L361.192 186.497C361.59 186.115 361.604 185.482 361.222 185.083C360.84 184.684 360.207 184.671 359.808 185.053L354.031 190.586L348.497 184.808C348.115 184.41 347.482 184.396 347.083 184.778C346.684 185.16 346.671 185.793 347.053 186.192L353.278 192.692ZM370.185 144.921C365.186 151.958 360.989 157.377 358.013 164.194C355.022 171.046 353.275 179.267 353 191.978L355 192.022C355.271 179.48 356.99 171.536 359.846 164.994C362.717 158.417 366.748 153.212 371.815 146.079L370.185 144.921Z" fill="#FF5500"/>
<path d="M417.953 192.837C418.415 193.139 419.035 193.009 419.337 192.547L424.262 185.015C424.564 184.552 424.435 183.933 423.972 183.63C423.51 183.328 422.891 183.458 422.588 183.92L418.21 190.616L411.515 186.238C411.052 185.936 410.433 186.065 410.13 186.528C409.828 186.99 409.958 187.609 410.42 187.912L417.953 192.837ZM370.106 145.947C376.505 158.747 387.521 165.128 397.238 170.921C407.06 176.777 415.375 181.95 417.521 192.205L419.479 191.795C417.125 180.55 407.94 174.973 398.262 169.204C388.479 163.372 377.995 157.253 371.894 145.053L370.106 145.947Z" fill="#FF5500"/>
<path d="M502.996 145.408C502.945 144.858 502.458 144.453 501.908 144.504C501.358 144.555 500.953 145.042 501.004 145.592L502.996 145.408ZM548.961 192.842C549.426 193.14 550.045 193.004 550.342 192.539L555.194 184.959C555.492 184.494 555.356 183.875 554.891 183.577C554.426 183.28 553.807 183.415 553.509 183.881L549.197 190.619L542.459 186.306C541.994 186.008 541.375 186.144 541.077 186.609C540.78 187.074 540.915 187.693 541.381 187.991L548.961 192.842ZM501.004 145.592C501.775 153.946 504.821 159.326 509.122 163.102C513.373 166.832 518.785 168.931 524.118 170.873C529.513 172.837 534.819 174.64 539.206 177.741C543.535 180.802 546.97 185.136 548.523 192.214L550.477 191.786C548.81 184.192 545.072 179.44 540.36 176.108C535.705 172.818 530.102 170.923 524.802 168.994C519.439 167.041 514.372 165.048 510.441 161.598C506.562 158.193 503.725 153.304 502.996 145.408L501.004 145.592Z" fill="#FF5500"/>
<path d="M371.641 144.732C371.217 144.378 370.586 144.435 370.232 144.859C369.878 145.283 369.935 145.914 370.359 146.268L371.641 144.732ZM483.045 193.39C483.537 193.642 484.139 193.447 484.39 192.955L488.487 184.942C488.739 184.45 488.544 183.848 488.052 183.596C487.56 183.345 486.958 183.54 486.707 184.031L483.065 191.154L475.942 187.513C475.45 187.261 474.848 187.456 474.596 187.948C474.345 188.44 474.54 189.042 475.031 189.293L483.045 193.39ZM370.359 146.268C393.404 165.514 418.1 165.566 438.587 166.72C448.88 167.299 458.016 168.15 465.517 171.685C472.938 175.182 478.844 181.353 482.549 192.808L484.451 192.192C480.598 180.276 474.349 173.636 466.369 169.876C458.468 166.153 448.955 165.3 438.7 164.723C418.091 163.562 394.096 163.486 371.641 144.732L370.359 146.268Z" fill="#FF5500"/>
</g>
<defs>
<clipPath id="clip0_6296_5815">
<rect width="587" height="241" fill="white"/>
</clipPath>
</defs>
</svg>
