<svg width="900" height="153" viewBox="0 0 900 153" fill="none" xmlns="http://www.w3.org/2000/svg">
<g clip-path="url(#clip0_6295_1806)">
<rect width="900" height="153" fill="white"/>
<rect opacity="0.2" x="417" y="71" width="48" height="38" rx="19" fill="#FF5500"/>
<path d="M21.2754 105.006H14.0537V77.7891H21.2754V79.8398H16.4854V102.955H21.2754V105.006ZM56.3877 93.1846C56.3877 94.0244 56.2168 94.8154 55.875 95.5576C55.5332 96.29 55.0205 96.9346 54.3369 97.4912C53.6533 98.0381 52.7939 98.4727 51.7588 98.7949C50.7236 99.1074 49.5176 99.2637 48.1406 99.2637C47.3789 99.2637 46.6953 99.2393 46.0898 99.1904C45.4844 99.1416 44.918 99.0781 44.3906 99V96.7148C44.9961 96.8223 45.6357 96.9053 46.3096 96.9639C46.9834 97.0225 47.6719 97.0518 48.375 97.0518C49.332 97.0518 50.1475 96.9688 50.8213 96.8027C51.5049 96.627 52.0615 96.3779 52.4912 96.0557C52.9209 95.7334 53.2334 95.3428 53.4287 94.8838C53.624 94.4248 53.7217 93.9072 53.7217 93.3311C53.7217 92.8037 53.6045 92.3447 53.3701 91.9541C53.1357 91.5635 52.8037 91.2363 52.374 90.9727C51.9541 90.709 51.4463 90.5137 50.8506 90.3867C50.2646 90.25 49.6201 90.1816 48.917 90.1816H46.7344V88.0869H48.9463C49.5225 88.0869 50.0449 88.0137 50.5137 87.8672C50.9922 87.7109 51.3975 87.4912 51.7295 87.208C52.0713 86.9248 52.3301 86.5781 52.5059 86.168C52.6914 85.748 52.7842 85.2744 52.7842 84.7471C52.7842 83.7217 52.4717 82.9746 51.8467 82.5059C51.2217 82.0371 50.3037 81.8027 49.0928 81.8027C48.4482 81.8027 47.7842 81.8662 47.1006 81.9932C46.417 82.1201 45.6846 82.3105 44.9033 82.5645V80.3379C45.2354 80.2207 45.5869 80.1182 45.958 80.0303C46.3389 79.9326 46.7148 79.8545 47.0859 79.7959C47.4668 79.7275 47.8428 79.6787 48.2139 79.6494C48.585 79.6104 48.9414 79.5908 49.2832 79.5908C50.2988 79.5908 51.1924 79.7031 51.9639 79.9277C52.7354 80.1426 53.3799 80.4551 53.8975 80.8652C54.415 81.2754 54.8057 81.7734 55.0693 82.3594C55.333 82.9453 55.4648 83.6045 55.4648 84.3369C55.4648 85.4307 55.1816 86.3486 54.6152 87.0908C54.0586 87.833 53.292 88.4238 52.3154 88.8633C52.8135 88.9414 53.3018 89.0977 53.7803 89.332C54.2686 89.5664 54.7031 89.8691 55.084 90.2402C55.4746 90.6016 55.7871 91.0312 56.0215 91.5293C56.2656 92.0273 56.3877 92.5791 56.3877 93.1846ZM122.569 99H110.543V96.627H115.465V82.6523L110.88 85.1426L109.942 82.9746L116.036 79.7666H118.292V96.627H122.569V99ZM170.074 92.2178H161.314V89.8154H170.074V92.2178ZM188.941 92.9355C188.941 93.8145 188.78 94.6396 188.458 95.4111C188.146 96.1826 187.696 96.8564 187.11 97.4326C186.524 97.999 185.816 98.4482 184.986 98.7803C184.166 99.1025 183.253 99.2637 182.247 99.2637C181.192 99.2637 180.26 99.0977 179.449 98.7656C178.639 98.4238 177.96 97.9062 177.413 97.2129C176.866 96.5098 176.451 95.626 176.168 94.5615C175.885 93.4971 175.743 92.2373 175.743 90.7822C175.743 89.8057 175.807 88.8584 175.934 87.9404C176.061 87.0225 176.271 86.1582 176.563 85.3477C176.856 84.5371 177.247 83.7949 177.735 83.1211C178.224 82.4473 178.829 81.8711 179.552 81.3926C180.284 80.9043 181.144 80.5283 182.13 80.2646C183.116 79.9912 184.259 79.8545 185.558 79.8545H187.447V82.0811H185.396C184.254 82.0811 183.263 82.2178 182.423 82.4912C181.583 82.7646 180.88 83.1504 180.313 83.6484C179.747 84.1465 179.312 84.7471 179.01 85.4502C178.707 86.1533 178.517 86.9395 178.438 87.8086L178.38 88.4092C178.995 88.0479 179.703 87.7598 180.504 87.5449C181.314 87.3203 182.188 87.208 183.126 87.208C184.093 87.208 184.938 87.3496 185.66 87.6328C186.393 87.916 186.998 88.3115 187.477 88.8193C187.965 89.3174 188.331 89.918 188.575 90.6211C188.819 91.3242 188.941 92.0957 188.941 92.9355ZM186.275 93.0967C186.275 92.5107 186.202 91.9834 186.056 91.5146C185.919 91.0361 185.699 90.6357 185.396 90.3135C185.094 89.9814 184.708 89.7275 184.239 89.5518C183.78 89.3662 183.229 89.2734 182.584 89.2734C182.213 89.2734 181.837 89.3076 181.456 89.376C181.075 89.4443 180.699 89.542 180.328 89.6689C179.967 89.7861 179.62 89.9229 179.288 90.0791C178.956 90.2354 178.653 90.4014 178.38 90.5771C178.38 91.8369 178.468 92.8916 178.644 93.7412C178.819 94.5811 179.078 95.2549 179.42 95.7627C179.771 96.2705 180.201 96.6318 180.709 96.8467C181.217 97.0615 181.803 97.1689 182.467 97.1689C183.023 97.1689 183.531 97.0811 183.99 96.9053C184.459 96.7197 184.859 96.4512 185.191 96.0996C185.533 95.748 185.797 95.3232 185.982 94.8252C186.178 94.3174 186.275 93.7412 186.275 93.0967ZM254.684 99H242.071V96.7148L247.022 91.793C247.833 90.9922 248.492 90.2988 249 89.7129C249.508 89.127 249.903 88.5947 250.187 88.1162C250.47 87.6279 250.66 87.1689 250.758 86.7393C250.855 86.3096 250.904 85.8457 250.904 85.3477C250.904 84.8789 250.841 84.4346 250.714 84.0146C250.587 83.585 250.392 83.209 250.128 82.8867C249.864 82.5645 249.522 82.3105 249.103 82.125C248.683 81.9395 248.18 81.8467 247.594 81.8467C246.783 81.8467 246.046 82.0273 245.382 82.3887C244.718 82.75 244.107 83.2188 243.551 83.7949L242.145 82.1104C242.867 81.3486 243.697 80.7383 244.635 80.2793C245.582 79.8203 246.681 79.5908 247.931 79.5908C248.78 79.5908 249.552 79.7178 250.245 79.9717C250.948 80.2256 251.554 80.5918 252.062 81.0703C252.569 81.5488 252.96 82.1348 253.233 82.8281C253.517 83.5215 253.658 84.3027 253.658 85.1719C253.658 85.9043 253.561 86.583 253.365 87.208C253.17 87.833 252.872 88.458 252.472 89.083C252.081 89.6982 251.583 90.3379 250.978 91.002C250.382 91.666 249.674 92.3936 248.854 93.1846L245.382 96.5684H254.684V99ZM302.027 92.2178H293.268V89.8154H302.027V92.2178ZM320.499 99H308.473V96.627H313.395V82.6523L308.81 85.1426L307.872 82.9746L313.966 79.7666H316.222V96.627H320.499V99ZM387.589 94.7666H384.322V99H381.715V94.7666H372.501V92.5254L380.66 79.8545H384.322V92.5254H387.589V94.7666ZM381.715 82.3154L375.05 92.5254H381.715V82.3154ZM433.98 92.2178H425.221V89.8154H433.98V92.2178ZM452.511 88.3506C452.511 90.2158 452.286 91.8223 451.837 93.1699C451.388 94.5078 450.724 95.6113 449.845 96.4805C448.966 97.3398 447.877 97.9746 446.578 98.3848C445.279 98.7949 443.78 99 442.081 99H440.484V96.7734H442.257C443.517 96.7734 444.605 96.6465 445.523 96.3926C446.441 96.1387 447.203 95.7676 447.809 95.2793C448.424 94.7812 448.893 94.1807 449.215 93.4775C449.537 92.7646 449.737 91.9541 449.815 91.0459L449.874 90.4453C449.259 90.8066 448.551 91.0996 447.75 91.3242C446.949 91.5391 446.08 91.6465 445.143 91.6465C444.176 91.6465 443.326 91.5049 442.594 91.2217C441.861 90.9385 441.251 90.543 440.763 90.0352C440.284 89.5273 439.923 88.9268 439.679 88.2334C439.435 87.5303 439.312 86.7686 439.312 85.9482C439.312 85.0596 439.474 84.2295 439.796 83.458C440.118 82.6865 440.567 82.0176 441.144 81.4512C441.729 80.875 442.428 80.4209 443.238 80.0889C444.049 79.7568 444.942 79.5908 445.919 79.5908C446.866 79.5908 447.74 79.7471 448.541 80.0596C449.352 80.3721 450.05 80.8799 450.636 81.583C451.222 82.2764 451.681 83.1797 452.013 84.293C452.345 85.4062 452.511 86.7588 452.511 88.3506ZM445.802 81.6855C445.255 81.6855 444.747 81.7783 444.278 81.9639C443.819 82.1396 443.419 82.4033 443.077 82.7549C442.745 83.0967 442.481 83.5215 442.286 84.0293C442.091 84.5371 441.993 85.1182 441.993 85.7725C441.993 86.3682 442.062 86.9004 442.198 87.3691C442.345 87.8379 442.564 88.2383 442.857 88.5703C443.16 88.8926 443.546 89.1416 444.015 89.3174C444.483 89.4932 445.04 89.5811 445.685 89.5811C446.046 89.5811 446.417 89.5469 446.798 89.4785C447.188 89.4102 447.564 89.3174 447.926 89.2002C448.297 89.083 448.648 88.9463 448.98 88.79C449.312 88.6338 449.61 88.4678 449.874 88.292C449.874 87.0322 449.781 85.9824 449.596 85.1426C449.41 84.293 449.142 83.6143 448.79 83.1064C448.438 82.5889 448.009 82.2227 447.501 82.0078C447.003 81.793 446.437 81.6855 445.802 81.6855ZM482.276 105.006H475.055V102.955H479.815V79.8398H475.055V77.7891H482.276V105.006Z" fill="black"/>
<path opacity="0.5" d="M55.1025 119.985C55.1025 121.06 54.9951 122.041 54.7803 122.929C54.5654 123.81 54.2396 124.569 53.8027 125.206C53.3659 125.836 52.8216 126.327 52.1699 126.678C51.5254 127.021 50.7663 127.193 49.8926 127.193C49.1406 127.193 48.4567 127.054 47.8408 126.774C47.2249 126.488 46.6986 126.051 46.2617 125.464C45.8249 124.877 45.4883 124.128 45.252 123.219C45.0156 122.309 44.8975 121.231 44.8975 119.985C44.8975 118.911 45.0049 117.93 45.2197 117.042C45.4417 116.154 45.7676 115.395 46.1973 114.765C46.6341 114.127 47.1784 113.637 47.8301 113.293C48.4818 112.942 49.2409 112.767 50.1074 112.767C50.8594 112.767 51.5433 112.91 52.1592 113.196C52.7751 113.476 53.3014 113.912 53.7383 114.507C54.1751 115.094 54.5117 115.842 54.748 116.752C54.9844 117.661 55.1025 118.739 55.1025 119.985ZM53.2119 120.05C53.2119 119.806 53.2012 119.566 53.1797 119.33C53.1654 119.087 53.1475 118.85 53.126 118.621L47.1855 123.036C47.293 123.409 47.429 123.752 47.5938 124.067C47.7585 124.382 47.9554 124.655 48.1846 124.884C48.4209 125.106 48.6859 125.281 48.9795 125.41C49.2803 125.532 49.6204 125.593 50 125.593C50.487 125.593 50.9274 125.475 51.3213 125.238C51.7223 125.002 52.0625 124.651 52.3418 124.186C52.6211 123.72 52.8359 123.144 52.9863 122.456C53.1367 121.761 53.2119 120.959 53.2119 120.05ZM46.7881 119.921C46.7881 120.143 46.7881 120.365 46.7881 120.587C46.7952 120.809 46.8096 121.024 46.8311 121.231L52.7715 116.838C52.6641 116.473 52.528 116.14 52.3633 115.839C52.1986 115.538 52.0016 115.28 51.7725 115.065C51.5433 114.843 51.2819 114.672 50.9883 114.55C50.6947 114.428 50.3652 114.367 50 114.367C49.513 114.367 49.069 114.485 48.668 114.722C48.2741 114.958 47.9375 115.312 47.6582 115.785C47.3789 116.251 47.1641 116.831 47.0137 117.525C46.8633 118.213 46.7881 119.011 46.7881 119.921Z" fill="black"/>
<path opacity="0.5" d="M120.662 127H111.843V125.26H115.452V115.012L112.09 116.838L111.402 115.248L115.871 112.896H117.525V125.26H120.662V127Z" fill="black"/>
<path opacity="0.5" d="M186.78 127H177.531V125.324L181.162 121.715C181.757 121.128 182.24 120.619 182.612 120.189C182.985 119.76 183.275 119.369 183.482 119.019C183.69 118.66 183.83 118.324 183.901 118.009C183.973 117.694 184.009 117.354 184.009 116.988C184.009 116.645 183.962 116.319 183.869 116.011C183.776 115.696 183.633 115.42 183.439 115.184C183.246 114.947 182.995 114.761 182.688 114.625C182.38 114.489 182.011 114.421 181.581 114.421C180.987 114.421 180.446 114.553 179.959 114.818C179.472 115.083 179.024 115.427 178.616 115.85L177.585 114.614C178.115 114.056 178.724 113.608 179.411 113.271C180.106 112.935 180.911 112.767 181.828 112.767C182.451 112.767 183.017 112.86 183.525 113.046C184.041 113.232 184.485 113.501 184.857 113.852C185.23 114.202 185.516 114.632 185.717 115.141C185.924 115.649 186.028 116.222 186.028 116.859C186.028 117.396 185.957 117.894 185.813 118.353C185.67 118.811 185.452 119.269 185.158 119.728C184.872 120.179 184.507 120.648 184.062 121.135C183.626 121.622 183.106 122.155 182.505 122.735L179.959 125.217H186.78V127Z" fill="black"/>
<path opacity="0.5" d="M252.512 122.735C252.512 123.351 252.386 123.931 252.136 124.476C251.885 125.013 251.509 125.485 251.008 125.894C250.507 126.295 249.876 126.613 249.117 126.85C248.358 127.079 247.474 127.193 246.464 127.193C245.905 127.193 245.404 127.175 244.96 127.14C244.516 127.104 244.101 127.057 243.714 127V125.324C244.158 125.403 244.627 125.464 245.121 125.507C245.615 125.55 246.12 125.571 246.636 125.571C247.338 125.571 247.936 125.51 248.43 125.389C248.931 125.26 249.339 125.077 249.654 124.841C249.969 124.604 250.199 124.318 250.342 123.981C250.485 123.645 250.557 123.265 250.557 122.843C250.557 122.456 250.471 122.119 250.299 121.833C250.127 121.547 249.883 121.307 249.568 121.113C249.26 120.92 248.888 120.777 248.451 120.684C248.021 120.583 247.549 120.533 247.033 120.533H245.433V118.997H247.055C247.477 118.997 247.86 118.943 248.204 118.836C248.555 118.721 248.852 118.56 249.096 118.353C249.346 118.145 249.536 117.891 249.665 117.59C249.801 117.282 249.869 116.935 249.869 116.548C249.869 115.796 249.64 115.248 249.182 114.904C248.723 114.561 248.05 114.389 247.162 114.389C246.689 114.389 246.202 114.435 245.701 114.528C245.2 114.621 244.663 114.761 244.09 114.947V113.314C244.333 113.229 244.591 113.153 244.863 113.089C245.143 113.017 245.418 112.96 245.69 112.917C245.97 112.867 246.245 112.831 246.518 112.81C246.79 112.781 247.051 112.767 247.302 112.767C248.047 112.767 248.702 112.849 249.268 113.014C249.833 113.171 250.306 113.4 250.686 113.701C251.065 114.002 251.352 114.367 251.545 114.797C251.738 115.227 251.835 115.71 251.835 116.247C251.835 117.049 251.627 117.722 251.212 118.267C250.804 118.811 250.242 119.244 249.525 119.566C249.891 119.624 250.249 119.738 250.6 119.91C250.958 120.082 251.276 120.304 251.556 120.576C251.842 120.841 252.071 121.156 252.243 121.521C252.422 121.887 252.512 122.291 252.512 122.735Z" fill="black"/>
<path opacity="0.5" d="M319.479 123.896H317.083V127H315.171V123.896H308.414V122.252L314.397 112.96H317.083V122.252H319.479V123.896ZM315.171 114.765L310.283 122.252H315.171V114.765Z" fill="black"/>
<path opacity="0.5" d="M385.426 122.51C385.426 123.204 385.275 123.838 384.975 124.411C384.674 124.984 384.258 125.478 383.729 125.894C383.206 126.302 382.586 126.62 381.87 126.85C381.154 127.079 380.381 127.193 379.55 127.193C379.342 127.193 379.117 127.186 378.873 127.172C378.637 127.165 378.4 127.15 378.164 127.129C377.928 127.115 377.695 127.097 377.466 127.075C377.244 127.054 377.043 127.029 376.864 127V125.303C377.251 125.396 377.691 125.464 378.186 125.507C378.687 125.55 379.192 125.571 379.7 125.571C380.273 125.571 380.789 125.503 381.247 125.367C381.705 125.231 382.096 125.038 382.418 124.787C382.74 124.529 382.987 124.221 383.159 123.863C383.331 123.498 383.417 123.09 383.417 122.639C383.417 121.765 383.102 121.131 382.472 120.737C381.849 120.336 380.95 120.136 379.775 120.136H377.111V112.96H384.674V114.593H378.873V118.535H380.098C380.771 118.535 381.426 118.596 382.063 118.718C382.701 118.84 383.267 119.054 383.761 119.362C384.262 119.663 384.663 120.071 384.964 120.587C385.272 121.095 385.426 121.736 385.426 122.51Z" fill="black"/>
<path opacity="0.5" d="M450.952 122.553C450.952 123.197 450.834 123.802 450.598 124.368C450.368 124.934 450.039 125.428 449.609 125.851C449.18 126.266 448.66 126.595 448.052 126.839C447.45 127.075 446.781 127.193 446.043 127.193C445.27 127.193 444.586 127.072 443.991 126.828C443.397 126.577 442.899 126.198 442.498 125.689C442.097 125.174 441.793 124.526 441.585 123.745C441.377 122.965 441.273 122.041 441.273 120.974C441.273 120.257 441.32 119.563 441.413 118.89C441.506 118.216 441.66 117.583 441.875 116.988C442.09 116.394 442.376 115.85 442.734 115.355C443.092 114.861 443.536 114.439 444.066 114.088C444.604 113.73 445.234 113.454 445.957 113.261C446.68 113.06 447.518 112.96 448.471 112.96H449.856V114.593H448.353C447.515 114.593 446.788 114.693 446.172 114.894C445.556 115.094 445.04 115.377 444.625 115.742C444.21 116.107 443.891 116.548 443.669 117.063C443.447 117.579 443.307 118.156 443.25 118.793L443.207 119.233C443.658 118.968 444.177 118.757 444.765 118.6C445.359 118.435 446 118.353 446.688 118.353C447.396 118.353 448.016 118.456 448.546 118.664C449.083 118.872 449.527 119.162 449.878 119.534C450.236 119.899 450.505 120.34 450.684 120.855C450.863 121.371 450.952 121.937 450.952 122.553ZM448.997 122.671C448.997 122.241 448.943 121.854 448.836 121.511C448.736 121.16 448.575 120.866 448.353 120.63C448.131 120.386 447.848 120.2 447.504 120.071C447.167 119.935 446.763 119.867 446.29 119.867C446.018 119.867 445.742 119.892 445.463 119.942C445.184 119.993 444.908 120.064 444.636 120.157C444.371 120.243 444.117 120.343 443.873 120.458C443.63 120.573 443.408 120.694 443.207 120.823C443.207 121.747 443.271 122.521 443.4 123.144C443.529 123.759 443.719 124.254 443.97 124.626C444.228 124.998 444.543 125.263 444.915 125.421C445.287 125.578 445.717 125.657 446.204 125.657C446.612 125.657 446.985 125.593 447.321 125.464C447.665 125.328 447.959 125.131 448.202 124.873C448.453 124.615 448.646 124.304 448.782 123.938C448.925 123.566 448.997 123.144 448.997 122.671Z" fill="black"/>
<path d="M542.121 98V88.8467C542.121 88.4489 542.104 88.123 542.07 87.8691C542.045 87.6152 541.998 87.4163 541.931 87.2725C541.871 87.1201 541.791 87.0143 541.689 86.9551C541.596 86.8958 541.478 86.8662 541.334 86.8662C541.165 86.8662 541.008 86.917 540.864 87.0186C540.72 87.1201 540.564 87.2852 540.395 87.5137C540.234 87.7422 540.052 88.0469 539.849 88.4277C539.654 88.8001 539.421 89.2614 539.15 89.8115V98H537.132V89.0879C537.132 88.6224 537.115 88.2458 537.081 87.958C537.056 87.6702 537.009 87.446 536.941 87.2852C536.882 87.1243 536.802 87.0143 536.7 86.9551C536.599 86.8958 536.476 86.8662 536.332 86.8662C536.18 86.8662 536.036 86.9085 535.9 86.9932C535.765 87.0778 535.613 87.2301 535.443 87.4502C535.283 87.6702 535.101 87.9707 534.897 88.3516C534.694 88.7324 534.453 89.2191 534.174 89.8115V98H532.143V85.2539H533.831L533.933 87.6787C534.153 87.1963 534.364 86.7858 534.567 86.4473C534.779 86.1087 534.995 85.8379 535.215 85.6348C535.435 85.4232 535.668 85.2708 535.913 85.1777C536.167 85.0762 536.446 85.0254 536.751 85.0254C537.437 85.0254 537.957 85.2497 538.312 85.6982C538.668 86.1468 538.846 86.8408 538.846 87.7803C539.049 87.3402 539.248 86.9508 539.442 86.6123C539.637 86.2653 539.844 85.9775 540.064 85.749C540.293 85.512 540.543 85.3343 540.813 85.2158C541.084 85.0889 541.397 85.0254 541.753 85.0254C543.353 85.0254 544.152 86.2568 544.152 88.7197V98H542.121ZM555.515 98L555.464 96.2861C554.77 96.9717 554.063 97.4668 553.344 97.7715C552.633 98.0762 551.884 98.2285 551.097 98.2285C550.369 98.2285 549.747 98.1354 549.23 97.9492C548.714 97.763 548.287 97.5091 547.948 97.1875C547.618 96.8574 547.373 96.4723 547.212 96.0322C547.06 95.5921 546.983 95.1139 546.983 94.5977C546.983 93.3197 547.457 92.321 548.405 91.6016C549.362 90.8737 550.771 90.5098 552.633 90.5098H555.273V89.3926C555.273 88.6393 555.032 88.0384 554.55 87.5898C554.067 87.1328 553.331 86.9043 552.341 86.9043C551.621 86.9043 550.91 86.9847 550.208 87.1455C549.514 87.3063 548.795 87.5348 548.05 87.8311V85.8379C548.329 85.7363 548.638 85.639 548.977 85.5459C549.324 85.4443 549.688 85.3555 550.068 85.2793C550.449 85.2031 550.847 85.1439 551.262 85.1016C551.676 85.0508 552.095 85.0254 552.519 85.0254C553.289 85.0254 553.983 85.11 554.601 85.2793C555.218 85.4486 555.739 85.7067 556.162 86.0537C556.594 86.4007 556.924 86.8366 557.152 87.3613C557.381 87.8861 557.495 88.5039 557.495 89.2148V98H555.515ZM555.273 92.1982H552.468C551.918 92.1982 551.444 92.2533 551.046 92.3633C550.648 92.4733 550.322 92.6299 550.068 92.833C549.814 93.0361 549.624 93.2816 549.497 93.5693C549.379 93.8486 549.319 94.166 549.319 94.5215C549.319 94.7669 549.357 95.0039 549.434 95.2324C549.51 95.4525 549.632 95.6514 549.802 95.8291C549.971 95.9984 550.191 96.1338 550.462 96.2354C550.733 96.3369 551.063 96.3877 551.452 96.3877C551.96 96.3877 552.54 96.2354 553.191 95.9307C553.852 95.6175 554.546 95.1266 555.273 94.458V92.1982ZM573.11 98H570.178L566.737 93.1377L563.335 98H560.479L565.417 91.6016L560.707 85.2539H563.538L566.89 90.1543L570.178 85.2539H572.907L568.121 91.6523L573.11 98ZM588.18 103.205H573.885V101.377H588.18V103.205ZM600.304 94.5215C600.304 94.9701 600.228 95.3721 600.075 95.7275C599.923 96.083 599.715 96.4004 599.453 96.6797C599.191 96.9505 598.886 97.1833 598.539 97.3779C598.192 97.5726 597.82 97.7334 597.422 97.8604C597.033 97.9873 596.631 98.0804 596.216 98.1396C595.801 98.1989 595.395 98.2285 594.997 98.2285C594.134 98.2285 593.338 98.1904 592.61 98.1143C591.891 98.0381 591.184 97.9154 590.49 97.7461V95.7148C591.235 95.9264 591.976 96.0872 592.712 96.1973C593.448 96.3073 594.18 96.3623 594.908 96.3623C595.966 96.3623 596.749 96.2184 597.257 95.9307C597.765 95.6429 598.019 95.2324 598.019 94.6992C598.019 94.4707 597.976 94.2676 597.892 94.0898C597.815 93.9036 597.672 93.7301 597.46 93.5693C597.248 93.4001 596.918 93.2266 596.47 93.0488C596.03 92.8711 595.424 92.668 594.654 92.4395C594.079 92.2702 593.546 92.0798 593.055 91.8682C592.572 91.6481 592.153 91.39 591.798 91.0938C591.442 90.7975 591.163 90.4505 590.96 90.0527C590.757 89.6549 590.655 89.1852 590.655 88.6436C590.655 88.2881 590.736 87.8988 590.896 87.4756C591.066 87.0524 591.349 86.6589 591.747 86.2949C592.145 85.931 592.682 85.6305 593.359 85.3936C594.036 85.1481 594.883 85.0254 595.898 85.0254C596.398 85.0254 596.952 85.055 597.562 85.1143C598.171 85.165 598.806 85.2581 599.466 85.3936V87.3613C598.772 87.1921 598.112 87.0693 597.485 86.9932C596.868 86.9085 596.33 86.8662 595.873 86.8662C595.323 86.8662 594.857 86.9085 594.477 86.9932C594.104 87.0778 593.799 87.1963 593.562 87.3486C593.334 87.4925 593.169 87.666 593.067 87.8691C592.966 88.0638 592.915 88.2754 592.915 88.5039C592.915 88.7324 592.957 88.9398 593.042 89.126C593.135 89.3122 593.3 89.4941 593.537 89.6719C593.783 89.8411 594.121 90.0146 594.553 90.1924C594.984 90.3617 595.547 90.5479 596.241 90.751C596.994 90.971 597.629 91.2038 598.146 91.4492C598.662 91.6862 599.081 91.9528 599.402 92.249C599.724 92.5452 599.952 92.8796 600.088 93.252C600.232 93.6243 600.304 94.0475 600.304 94.5215ZM614.751 98H612.771L612.694 95.9434C612.313 96.3835 611.95 96.7516 611.603 97.0479C611.264 97.3356 610.925 97.5684 610.587 97.7461C610.248 97.9238 609.906 98.0465 609.559 98.1143C609.22 98.1904 608.86 98.2285 608.479 98.2285C607.168 98.2285 606.177 97.8434 605.509 97.0732C604.84 96.3031 604.506 95.1393 604.506 93.582V85.2539H606.715V93.4043C606.715 95.3594 607.451 96.3369 608.924 96.3369C609.195 96.3369 609.457 96.2988 609.711 96.2227C609.973 96.138 610.244 95.9984 610.523 95.8037C610.811 95.6006 611.116 95.3298 611.438 94.9912C611.768 94.6527 612.136 94.2253 612.542 93.709V85.2539H614.751V98ZM629.693 91.3984C629.693 92.4564 629.545 93.4043 629.249 94.2422C628.961 95.0716 628.547 95.7783 628.005 96.3623C627.472 96.9378 626.82 97.3822 626.05 97.6953C625.28 98 624.412 98.1523 623.447 98.1523C622.694 98.1523 621.924 98.0804 621.137 97.9365C620.35 97.7926 619.571 97.5641 618.801 97.251V80.0615H621.01V85L620.908 87.3613C621.543 86.5065 622.22 85.9056 622.939 85.5586C623.667 85.2031 624.446 85.0254 625.275 85.0254C626.003 85.0254 626.642 85.1777 627.192 85.4824C627.743 85.7871 628.204 86.2188 628.576 86.7773C628.949 87.3275 629.228 87.9961 629.414 88.7832C629.6 89.5618 629.693 90.4336 629.693 91.3984ZM627.434 91.5C627.434 90.8314 627.383 90.2178 627.281 89.6592C627.188 89.1006 627.036 88.6224 626.824 88.2246C626.613 87.8268 626.342 87.5179 626.012 87.2979C625.682 87.0693 625.288 86.9551 624.831 86.9551C624.552 86.9551 624.268 87.0016 623.98 87.0947C623.693 87.1794 623.392 87.3275 623.079 87.5391C622.774 87.7422 622.449 88.0173 622.102 88.3643C621.763 88.7028 621.399 89.126 621.01 89.6338V95.8164C621.441 95.9857 621.882 96.1211 622.33 96.2227C622.779 96.3158 623.206 96.3623 623.612 96.3623C624.12 96.3623 624.603 96.2819 625.06 96.1211C625.525 95.9603 625.931 95.6937 626.278 95.3213C626.634 94.9404 626.913 94.4411 627.116 93.8232C627.328 93.1969 627.434 92.4225 627.434 91.5ZM641.284 98L641.233 96.2861C640.539 96.9717 639.833 97.4668 639.113 97.7715C638.402 98.0762 637.653 98.2285 636.866 98.2285C636.138 98.2285 635.516 98.1354 635 97.9492C634.484 97.763 634.056 97.5091 633.718 97.1875C633.388 96.8574 633.142 96.4723 632.981 96.0322C632.829 95.5921 632.753 95.1139 632.753 94.5977C632.753 93.3197 633.227 92.321 634.175 91.6016C635.131 90.8737 636.54 90.5098 638.402 90.5098H641.043V89.3926C641.043 88.6393 640.802 88.0384 640.319 87.5898C639.837 87.1328 639.101 86.9043 638.11 86.9043C637.391 86.9043 636.68 86.9847 635.978 87.1455C635.284 87.3063 634.564 87.5348 633.819 87.8311V85.8379C634.099 85.7363 634.408 85.639 634.746 85.5459C635.093 85.4443 635.457 85.3555 635.838 85.2793C636.219 85.2031 636.617 85.1439 637.031 85.1016C637.446 85.0508 637.865 85.0254 638.288 85.0254C639.058 85.0254 639.752 85.11 640.37 85.2793C640.988 85.4486 641.508 85.7067 641.932 86.0537C642.363 86.4007 642.693 86.8366 642.922 87.3613C643.15 87.8861 643.265 88.5039 643.265 89.2148V98H641.284ZM641.043 92.1982H638.237C637.687 92.1982 637.213 92.2533 636.815 92.3633C636.418 92.4733 636.092 92.6299 635.838 92.833C635.584 93.0361 635.394 93.2816 635.267 93.5693C635.148 93.8486 635.089 94.166 635.089 94.5215C635.089 94.7669 635.127 95.0039 635.203 95.2324C635.279 95.4525 635.402 95.6514 635.571 95.8291C635.741 95.9984 635.961 96.1338 636.231 96.2354C636.502 96.3369 636.832 96.3877 637.222 96.3877C637.729 96.3877 638.309 96.2354 638.961 95.9307C639.621 95.6175 640.315 95.1266 641.043 94.458V92.1982ZM647.911 85.2539H649.93L649.993 87.6025C650.746 86.6969 651.487 86.041 652.215 85.6348C652.951 85.2285 653.692 85.0254 654.437 85.0254C655.757 85.0254 656.756 85.4528 657.433 86.3076C658.118 87.1624 658.436 88.432 658.385 90.1162H656.15C656.176 88.999 656.011 88.1908 655.655 87.6914C655.308 87.1836 654.796 86.9297 654.119 86.9297C653.823 86.9297 653.522 86.9847 653.218 87.0947C652.922 87.1963 652.613 87.3656 652.291 87.6025C651.978 87.8311 651.644 88.1273 651.288 88.4912C650.933 88.8551 650.552 89.2952 650.146 89.8115V98H647.911V85.2539ZM662.206 85.2539H664.225L664.288 87.6025C665.041 86.6969 665.782 86.041 666.51 85.6348C667.246 85.2285 667.987 85.0254 668.731 85.0254C670.052 85.0254 671.05 85.4528 671.728 86.3076C672.413 87.1624 672.73 88.432 672.68 90.1162H670.445C670.471 88.999 670.306 88.1908 669.95 87.6914C669.603 87.1836 669.091 86.9297 668.414 86.9297C668.118 86.9297 667.817 86.9847 667.513 87.0947C667.216 87.1963 666.908 87.3656 666.586 87.6025C666.273 87.8311 665.938 88.1273 665.583 88.4912C665.228 88.8551 664.847 89.2952 664.44 89.8115V98H662.206V85.2539ZM684.169 98L684.118 96.2861C683.424 96.9717 682.717 97.4668 681.998 97.7715C681.287 98.0762 680.538 98.2285 679.751 98.2285C679.023 98.2285 678.401 98.1354 677.885 97.9492C677.368 97.763 676.941 97.5091 676.603 97.1875C676.272 96.8574 676.027 96.4723 675.866 96.0322C675.714 95.5921 675.638 95.1139 675.638 94.5977C675.638 93.3197 676.112 92.321 677.06 91.6016C678.016 90.8737 679.425 90.5098 681.287 90.5098H683.928V89.3926C683.928 88.6393 683.687 88.0384 683.204 87.5898C682.722 87.1328 681.985 86.9043 680.995 86.9043C680.276 86.9043 679.565 86.9847 678.862 87.1455C678.168 87.3063 677.449 87.5348 676.704 87.8311V85.8379C676.983 85.7363 677.292 85.639 677.631 85.5459C677.978 85.4443 678.342 85.3555 678.723 85.2793C679.104 85.2031 679.501 85.1439 679.916 85.1016C680.331 85.0508 680.75 85.0254 681.173 85.0254C681.943 85.0254 682.637 85.11 683.255 85.2793C683.873 85.4486 684.393 85.7067 684.816 86.0537C685.248 86.4007 685.578 86.8366 685.807 87.3613C686.035 87.8861 686.149 88.5039 686.149 89.2148V98H684.169ZM683.928 92.1982H681.122C680.572 92.1982 680.098 92.2533 679.7 92.3633C679.302 92.4733 678.977 92.6299 678.723 92.833C678.469 93.0361 678.278 93.2816 678.151 93.5693C678.033 93.8486 677.974 94.166 677.974 94.5215C677.974 94.7669 678.012 95.0039 678.088 95.2324C678.164 95.4525 678.287 95.6514 678.456 95.8291C678.625 95.9984 678.845 96.1338 679.116 96.2354C679.387 96.3369 679.717 96.3877 680.106 96.3877C680.614 96.3877 681.194 96.2354 681.846 95.9307C682.506 95.6175 683.2 95.1266 683.928 94.458V92.1982ZM701.612 85.2539L697.271 96.6543C696.822 97.8138 696.356 98.8125 695.874 99.6504C695.4 100.488 694.88 101.174 694.312 101.707C693.745 102.249 693.123 102.646 692.446 102.9C691.769 103.154 691.012 103.281 690.174 103.281C689.954 103.281 689.755 103.277 689.577 103.269C689.399 103.26 689.205 103.247 688.993 103.23V101.225C689.179 101.25 689.382 101.271 689.603 101.288C689.823 101.313 690.055 101.326 690.301 101.326C690.707 101.326 691.084 101.267 691.431 101.148C691.786 101.03 692.12 100.835 692.434 100.564C692.747 100.302 693.047 99.9593 693.335 99.5361C693.623 99.113 693.902 98.6009 694.173 98L689.082 85.2539H691.596L694.82 93.6836L695.468 95.6641L696.204 93.6328L699.188 85.2539H701.612ZM712.2 103.332C708.299 99.7181 706.348 95.7233 706.348 91.3477C706.348 90.3236 706.449 89.3037 706.652 88.2881C706.864 87.264 707.198 86.2399 707.655 85.2158C708.121 84.1917 708.73 83.1676 709.483 82.1436C710.245 81.1195 711.168 80.1038 712.251 79.0967L713.533 80.4043C710.249 83.6458 708.607 87.2386 708.607 91.1826C708.607 93.1462 709.022 95.0335 709.852 96.8447C710.681 98.6559 711.908 100.366 713.533 101.974L712.2 103.332ZM723.207 87.082H719.437V85.2539H725.441V96.1592H729.237V98H719.018V96.1592H723.207V87.082ZM723.981 79.9092C724.227 79.9092 724.455 79.9557 724.667 80.0488C724.879 80.1335 725.061 80.2562 725.213 80.417C725.374 80.5778 725.496 80.764 725.581 80.9756C725.674 81.1787 725.721 81.403 725.721 81.6484C725.721 81.8854 725.674 82.1097 725.581 82.3213C725.496 82.5329 725.374 82.7191 725.213 82.8799C725.061 83.0407 724.879 83.1676 724.667 83.2607C724.455 83.3454 724.227 83.3877 723.981 83.3877C723.736 83.3877 723.507 83.3454 723.296 83.2607C723.084 83.1676 722.898 83.0407 722.737 82.8799C722.585 82.7191 722.462 82.5329 722.369 82.3213C722.285 82.1097 722.242 81.8854 722.242 81.6484C722.242 81.403 722.285 81.1787 722.369 80.9756C722.462 80.764 722.585 80.5778 722.737 80.417C722.898 80.2562 723.084 80.1335 723.296 80.0488C723.507 79.9557 723.736 79.9092 723.981 79.9092ZM756.367 92.1221H748.775V90.04H756.367V92.1221ZM786.671 98H776.248V95.9434H780.514V83.832L776.54 85.9902L775.728 84.1113L781.009 81.3311H782.964V95.9434H786.671V98ZM792.942 79.0967C796.844 82.7106 798.795 86.7308 798.795 91.1572C798.795 92.0713 798.702 93.0192 798.516 94.001C798.329 94.9827 798.012 95.9899 797.563 97.0225C797.115 98.0465 796.51 99.0876 795.748 100.146C794.995 101.203 794.043 102.266 792.892 103.332L791.609 102.024C793.26 100.391 794.491 98.6855 795.304 96.9082C796.116 95.1309 796.522 93.2689 796.522 91.3223C796.522 87.2936 794.885 83.6712 791.609 80.4551L792.942 79.0967ZM830.127 92.0459H825.138V97.2256H822.954V92.0459H817.965V90.1162H822.954V84.9746H825.138V90.1162H830.127V92.0459ZM855.149 103.332C851.248 99.7181 849.297 95.7233 849.297 91.3477C849.297 90.3236 849.398 89.3037 849.602 88.2881C849.813 87.264 850.147 86.2399 850.604 85.2158C851.07 84.1917 851.679 83.1676 852.433 82.1436C853.194 81.1195 854.117 80.1038 855.2 79.0967L856.482 80.4043C853.199 83.6458 851.557 87.2386 851.557 91.1826C851.557 93.1462 851.971 95.0335 852.801 96.8447C853.63 98.6559 854.857 100.366 856.482 101.974L855.149 103.332ZM870.727 92.1221H863.135V90.04H870.727V92.1221ZM886.786 88.7705C886.786 90.387 886.591 91.7793 886.202 92.9473C885.813 94.1068 885.237 95.0632 884.476 95.8164C883.714 96.5612 882.77 97.1113 881.645 97.4668C880.519 97.8223 879.22 98 877.747 98H876.363V96.0703H877.899C878.991 96.0703 879.935 95.9603 880.73 95.7402C881.526 95.5202 882.186 95.1986 882.711 94.7754C883.244 94.3438 883.65 93.8232 883.93 93.2139C884.209 92.596 884.382 91.8936 884.45 91.1064L884.501 90.5859C883.968 90.8991 883.354 91.153 882.66 91.3477C881.966 91.5339 881.213 91.627 880.4 91.627C879.562 91.627 878.826 91.5042 878.191 91.2588C877.557 91.0133 877.028 90.6706 876.604 90.2305C876.19 89.7904 875.877 89.2699 875.665 88.6689C875.453 88.0596 875.348 87.3994 875.348 86.6885C875.348 85.9183 875.487 85.1989 875.767 84.5303C876.046 83.8617 876.435 83.2819 876.935 82.791C877.442 82.2917 878.048 81.8981 878.75 81.6104C879.452 81.3226 880.227 81.1787 881.073 81.1787C881.894 81.1787 882.652 81.3141 883.346 81.585C884.048 81.8558 884.653 82.2959 885.161 82.9053C885.669 83.5062 886.067 84.2891 886.354 85.2539C886.642 86.2188 886.786 87.391 886.786 88.7705ZM880.972 82.9941C880.498 82.9941 880.058 83.0745 879.651 83.2354C879.254 83.3877 878.907 83.6162 878.61 83.9209C878.323 84.2171 878.094 84.5853 877.925 85.0254C877.756 85.4655 877.671 85.9691 877.671 86.5361C877.671 87.0524 877.73 87.5137 877.849 87.9199C877.976 88.3262 878.166 88.6732 878.42 88.9609C878.682 89.2402 879.017 89.4561 879.423 89.6084C879.829 89.7607 880.312 89.8369 880.87 89.8369C881.183 89.8369 881.505 89.8073 881.835 89.748C882.174 89.6888 882.499 89.6084 882.812 89.5068C883.134 89.4053 883.439 89.2868 883.727 89.1514C884.014 89.016 884.272 88.8721 884.501 88.7197C884.501 87.6279 884.421 86.7181 884.26 85.9902C884.099 85.2539 883.866 84.6657 883.562 84.2256C883.257 83.777 882.884 83.4596 882.444 83.2734C882.013 83.0872 881.522 82.9941 880.972 82.9941ZM893.007 79.0967C896.909 82.7106 898.859 86.7308 898.859 91.1572C898.859 92.0713 898.766 93.0192 898.58 94.001C898.394 94.9827 898.076 95.9899 897.628 97.0225C897.179 98.0465 896.574 99.0876 895.812 100.146C895.059 101.203 894.107 102.266 892.956 103.332L891.674 102.024C893.324 100.391 894.556 98.6855 895.368 96.9082C896.181 95.1309 896.587 93.2689 896.587 91.3223C896.587 87.2936 894.949 83.6712 891.674 80.4551L893.007 79.0967Z" fill="black"/>
<path d="M445.904 21.6016H443.004V20.1953H447.623V28.584H450.543V30H442.682V28.584H445.904V21.6016ZM446.5 16.084C446.689 16.084 446.865 16.1198 447.027 16.1914C447.19 16.2565 447.33 16.3509 447.447 16.4746C447.571 16.5983 447.665 16.7415 447.73 16.9043C447.802 17.0605 447.838 17.2331 447.838 17.4219C447.838 17.6042 447.802 17.7767 447.73 17.9395C447.665 18.1022 447.571 18.2454 447.447 18.3691C447.33 18.4928 447.19 18.5905 447.027 18.6621C446.865 18.7272 446.689 18.7598 446.5 18.7598C446.311 18.7598 446.135 18.7272 445.973 18.6621C445.81 18.5905 445.667 18.4928 445.543 18.3691C445.426 18.2454 445.331 18.1022 445.26 17.9395C445.195 17.7767 445.162 17.6042 445.162 17.4219C445.162 17.2331 445.195 17.0605 445.26 16.9043C445.331 16.7415 445.426 16.5983 445.543 16.4746C445.667 16.3509 445.81 16.2565 445.973 16.1914C446.135 16.1198 446.311 16.084 446.5 16.084Z" fill="black"/>
<path d="M445.293 65.7071C445.683 66.0976 446.317 66.0976 446.707 65.7071L453.071 59.3431C453.462 58.9526 453.462 58.3195 453.071 57.9289C452.681 57.5384 452.047 57.5384 451.657 57.9289L446 63.5858L440.343 57.9289C439.953 57.5384 439.319 57.5384 438.929 57.9289C438.538 58.3195 438.538 58.9526 438.929 59.3431L445.293 65.7071ZM445 38L445 65L447 65L447 38L445 38Z" fill="black"/>
<rect x="432" y="9" width="28" height="28" rx="6" stroke="black" stroke-width="2"/>
<rect x="1" y="1" width="407" height="151" rx="9" stroke="black" stroke-width="2"/>
</g>
<defs>
<clipPath id="clip0_6295_1806">
<rect width="900" height="153" fill="white"/>
</clipPath>
</defs>
</svg>
