<svg width="523" height="129" viewBox="0 0 523 129" fill="none" xmlns="http://www.w3.org/2000/svg">
<g clip-path="url(#clip0_3248_6998)">
<rect width="523" height="129" fill="white"/>
<rect x="198" y="1" width="69" height="28" rx="6" fill="#FFF4EF" stroke="#FF5500" stroke-width="2"/>
<rect x="453" y="1" width="69" height="28" rx="6" fill="#FFF4EF" stroke="#FF5500" stroke-width="2"/>
<circle opacity="0.3" cx="403" cy="78" r="13" fill="#00BD36"/>
<path d="M237.832 80.96C237.832 81.6878 237.684 82.3734 237.388 83.0166C237.091 83.6514 236.647 84.21 236.055 84.6924C235.462 85.1663 234.717 85.543 233.82 85.8223C232.923 86.0931 231.878 86.2285 230.685 86.2285C230.024 86.2285 229.432 86.2074 228.907 86.165C228.382 86.1227 227.892 86.0677 227.435 86V84.0195C227.959 84.1126 228.514 84.1846 229.098 84.2354C229.682 84.2861 230.278 84.3115 230.888 84.3115C231.717 84.3115 232.424 84.2396 233.008 84.0957C233.6 83.9434 234.083 83.7275 234.455 83.4482C234.827 83.1689 235.098 82.8304 235.268 82.4326C235.437 82.0348 235.521 81.5863 235.521 81.0869C235.521 80.6299 235.42 80.2321 235.217 79.8936C235.014 79.555 234.726 79.2715 234.354 79.043C233.99 78.8145 233.549 78.6452 233.033 78.5352C232.525 78.4167 231.967 78.3574 231.357 78.3574H229.466V76.542H231.383C231.882 76.542 232.335 76.4785 232.741 76.3516C233.156 76.2161 233.507 76.0257 233.795 75.7803C234.091 75.5348 234.315 75.2344 234.468 74.8789C234.629 74.515 234.709 74.1045 234.709 73.6475C234.709 72.7588 234.438 72.1113 233.896 71.7051C233.355 71.2988 232.559 71.0957 231.51 71.0957C230.951 71.0957 230.376 71.1507 229.783 71.2607C229.191 71.3708 228.556 71.5358 227.879 71.7559V69.8262C228.167 69.7246 228.471 69.6357 228.793 69.5596C229.123 69.4749 229.449 69.4072 229.771 69.3564C230.101 69.2972 230.426 69.2549 230.748 69.2295C231.07 69.1956 231.379 69.1787 231.675 69.1787C232.555 69.1787 233.329 69.276 233.998 69.4707C234.667 69.6569 235.225 69.9277 235.674 70.2832C236.122 70.6387 236.461 71.0703 236.689 71.5781C236.918 72.0859 237.032 72.6572 237.032 73.292C237.032 74.2399 236.787 75.0355 236.296 75.6787C235.813 76.3219 235.149 76.834 234.303 77.2148C234.734 77.2826 235.158 77.418 235.572 77.6211C235.995 77.8242 236.372 78.0866 236.702 78.4082C237.041 78.7214 237.312 79.0938 237.515 79.5254C237.726 79.957 237.832 80.4352 237.832 80.96Z" fill="black"/>
<path d="M208.991 91.2051H202.732V67.6172H208.991V69.3945H204.84V89.4277H208.991V91.2051Z" fill="black"/>
<path d="M509.009 91.2051H515.268V67.6172H509.009V69.3945H513.16V89.4277H509.009V91.2051Z" fill="black"/>
<path d="M323.975 82.3311H321.144V86H318.884V82.3311H310.898V80.3887L317.97 69.4072H321.144V80.3887H323.975V82.3311ZM318.884 71.54L313.107 80.3887H318.884V71.54Z" fill="black"/>
<path d="M408.353 80.7441C408.353 81.5059 408.213 82.221 407.934 82.8896C407.663 83.5583 407.273 84.1423 406.766 84.6416C406.258 85.1325 405.644 85.5218 404.925 85.8096C404.214 86.0889 403.423 86.2285 402.551 86.2285C401.637 86.2285 400.828 86.0846 400.126 85.7969C399.424 85.5007 398.835 85.0521 398.361 84.4512C397.887 83.8418 397.528 83.0758 397.282 82.1533C397.037 81.2308 396.914 80.139 396.914 78.8779C396.914 78.0316 396.969 77.2106 397.079 76.415C397.189 75.6195 397.371 74.8704 397.625 74.168C397.879 73.4655 398.217 72.8223 398.641 72.2383C399.064 71.6543 399.589 71.1549 400.215 70.7402C400.85 70.3171 401.594 69.9912 402.449 69.7627C403.304 69.5257 404.294 69.4072 405.42 69.4072H407.058V71.3369H405.28C404.29 71.3369 403.431 71.4554 402.703 71.6924C401.975 71.9294 401.366 72.2637 400.875 72.6953C400.384 73.127 400.007 73.6475 399.745 74.2568C399.483 74.8662 399.318 75.5475 399.25 76.3008L399.199 76.8213C399.732 76.5081 400.346 76.2585 401.04 76.0723C401.743 75.8776 402.5 75.7803 403.312 75.7803C404.15 75.7803 404.882 75.903 405.509 76.1484C406.144 76.3939 406.668 76.7367 407.083 77.1768C407.506 77.6084 407.824 78.1289 408.035 78.7383C408.247 79.3477 408.353 80.0163 408.353 80.7441ZM406.042 80.8838C406.042 80.376 405.979 79.9189 405.852 79.5127C405.733 79.098 405.543 78.751 405.28 78.4717C405.018 78.1839 404.684 77.9639 404.277 77.8115C403.88 77.6507 403.401 77.5703 402.843 77.5703C402.521 77.5703 402.195 77.5999 401.865 77.6592C401.535 77.7184 401.209 77.8031 400.888 77.9131C400.575 78.0146 400.274 78.1331 399.986 78.2686C399.699 78.404 399.436 78.5479 399.199 78.7002C399.199 79.792 399.275 80.7061 399.428 81.4424C399.58 82.1702 399.804 82.7542 400.101 83.1943C400.405 83.6344 400.778 83.9476 401.218 84.1338C401.658 84.32 402.166 84.4131 402.741 84.4131C403.224 84.4131 403.664 84.3369 404.062 84.1846C404.468 84.0238 404.815 83.791 405.103 83.4863C405.399 83.1816 405.627 82.8135 405.788 82.3818C405.957 81.9417 406.042 81.4424 406.042 80.8838Z" fill="black"/>
<path d="M486.362 86H475.939V83.9434H480.205V71.832L476.231 73.9902L475.419 72.1113L480.7 69.3311H482.655V83.9434H486.362V86ZM501.178 77.71C501.178 78.9795 501.051 80.139 500.797 81.1885C500.543 82.2295 500.158 83.1266 499.642 83.8799C499.125 84.6247 498.482 85.2044 497.712 85.6191C496.95 86.0254 496.053 86.2285 495.021 86.2285C494.132 86.2285 493.324 86.0635 492.596 85.7334C491.868 85.3949 491.246 84.8786 490.729 84.1846C490.213 83.4906 489.815 82.6061 489.536 81.5312C489.257 80.4564 489.117 79.1826 489.117 77.71C489.117 76.4404 489.244 75.2809 489.498 74.2314C489.76 73.182 490.146 72.2848 490.653 71.54C491.17 70.7868 491.813 70.207 492.583 69.8008C493.353 69.3861 494.25 69.1787 495.274 69.1787C496.163 69.1787 496.971 69.348 497.699 69.6865C498.427 70.0166 499.049 70.5329 499.565 71.2354C500.082 71.9294 500.479 72.8138 500.759 73.8887C501.038 74.9635 501.178 76.2373 501.178 77.71ZM498.943 77.7861C498.943 77.4984 498.931 77.2148 498.905 76.9355C498.888 76.6478 498.867 76.3685 498.842 76.0977L491.821 81.3154C491.948 81.7555 492.109 82.1618 492.304 82.5342C492.498 82.9066 492.731 83.2282 493.002 83.499C493.281 83.7614 493.594 83.9688 493.941 84.1211C494.297 84.265 494.699 84.3369 495.147 84.3369C495.723 84.3369 496.243 84.1973 496.709 83.918C497.183 83.6387 497.585 83.224 497.915 82.6738C498.245 82.1237 498.499 81.4424 498.677 80.6299C498.854 79.8089 498.943 78.861 498.943 77.7861ZM491.352 77.6338C491.352 77.8962 491.352 78.1585 491.352 78.4209C491.36 78.6833 491.377 78.9372 491.402 79.1826L498.423 73.9902C498.296 73.5586 498.135 73.165 497.94 72.8096C497.746 72.4541 497.513 72.1494 497.242 71.8955C496.971 71.6331 496.662 71.43 496.315 71.2861C495.968 71.1423 495.579 71.0703 495.147 71.0703C494.572 71.0703 494.047 71.21 493.573 71.4893C493.108 71.7686 492.71 72.1875 492.38 72.7461C492.05 73.2962 491.796 73.9818 491.618 74.8027C491.44 75.6152 491.352 76.5589 491.352 77.6338Z" fill="black"/>
<path d="M237.139 108.623C237.139 109.6 237.041 110.492 236.846 111.299C236.65 112.1 236.354 112.79 235.957 113.369C235.56 113.942 235.065 114.388 234.473 114.707C233.887 115.02 233.197 115.176 232.402 115.176C231.719 115.176 231.097 115.049 230.537 114.795C229.977 114.535 229.499 114.137 229.102 113.604C228.704 113.07 228.398 112.389 228.184 111.562C227.969 110.736 227.861 109.756 227.861 108.623C227.861 107.646 227.959 106.755 228.154 105.947C228.356 105.14 228.652 104.45 229.043 103.877C229.44 103.298 229.935 102.852 230.527 102.539C231.12 102.22 231.81 102.061 232.598 102.061C233.281 102.061 233.903 102.191 234.463 102.451C235.023 102.705 235.501 103.102 235.898 103.643C236.296 104.176 236.602 104.857 236.816 105.684C237.031 106.51 237.139 107.49 237.139 108.623ZM235.42 108.682C235.42 108.46 235.41 108.242 235.391 108.027C235.378 107.806 235.361 107.591 235.342 107.383L229.941 111.396C230.039 111.735 230.163 112.048 230.312 112.334C230.462 112.62 230.641 112.868 230.85 113.076C231.064 113.278 231.305 113.438 231.572 113.555C231.846 113.665 232.155 113.721 232.5 113.721C232.943 113.721 233.343 113.613 233.701 113.398C234.066 113.184 234.375 112.865 234.629 112.441C234.883 112.018 235.078 111.494 235.215 110.869C235.352 110.238 235.42 109.508 235.42 108.682ZM229.58 108.564C229.58 108.766 229.58 108.968 229.58 109.17C229.587 109.372 229.6 109.567 229.619 109.756L235.02 105.762C234.922 105.43 234.798 105.127 234.648 104.854C234.499 104.58 234.32 104.346 234.111 104.15C233.903 103.949 233.665 103.792 233.398 103.682C233.132 103.571 232.832 103.516 232.5 103.516C232.057 103.516 231.654 103.623 231.289 103.838C230.931 104.053 230.625 104.375 230.371 104.805C230.117 105.228 229.922 105.755 229.785 106.387C229.648 107.012 229.58 107.738 229.58 108.564Z" fill="black" fill-opacity="0.5"/>
<path d="M321.738 115H313.721V113.418H317.002V104.102L313.945 105.762L313.32 104.316L317.383 102.178H318.887V113.418H321.738V115Z" fill="black" fill-opacity="0.5"/>
<path d="M406.846 115H398.438V113.477L401.738 110.195C402.279 109.661 402.718 109.199 403.057 108.809C403.395 108.418 403.659 108.063 403.848 107.744C404.036 107.419 404.163 107.113 404.229 106.826C404.294 106.54 404.326 106.23 404.326 105.898C404.326 105.586 404.284 105.29 404.199 105.01C404.115 104.723 403.984 104.473 403.809 104.258C403.633 104.043 403.405 103.874 403.125 103.75C402.845 103.626 402.51 103.564 402.119 103.564C401.579 103.564 401.087 103.685 400.645 103.926C400.202 104.167 399.795 104.479 399.424 104.863L398.486 103.74C398.968 103.232 399.521 102.826 400.146 102.52C400.778 102.214 401.51 102.061 402.344 102.061C402.91 102.061 403.424 102.145 403.887 102.314C404.355 102.484 404.759 102.728 405.098 103.047C405.436 103.366 405.697 103.757 405.879 104.219C406.068 104.681 406.162 105.202 406.162 105.781C406.162 106.27 406.097 106.722 405.967 107.139C405.837 107.555 405.638 107.972 405.371 108.389C405.111 108.799 404.779 109.225 404.375 109.668C403.978 110.111 403.506 110.596 402.959 111.123L400.645 113.379H406.846V115Z" fill="black" fill-opacity="0.5"/>
<path d="M492.102 111.123C492.102 111.683 491.988 112.21 491.76 112.705C491.532 113.193 491.19 113.623 490.734 113.994C490.279 114.359 489.706 114.648 489.016 114.863C488.326 115.072 487.521 115.176 486.604 115.176C486.096 115.176 485.64 115.16 485.236 115.127C484.833 115.094 484.455 115.052 484.104 115V113.477C484.507 113.548 484.934 113.604 485.383 113.643C485.832 113.682 486.291 113.701 486.76 113.701C487.398 113.701 487.941 113.646 488.391 113.535C488.846 113.418 489.217 113.252 489.504 113.037C489.79 112.822 489.999 112.562 490.129 112.256C490.259 111.95 490.324 111.605 490.324 111.221C490.324 110.869 490.246 110.563 490.09 110.303C489.934 110.042 489.712 109.824 489.426 109.648C489.146 109.473 488.807 109.342 488.41 109.258C488.02 109.167 487.59 109.121 487.121 109.121H485.666V107.725H487.141C487.525 107.725 487.873 107.676 488.186 107.578C488.505 107.474 488.775 107.327 488.996 107.139C489.224 106.95 489.396 106.719 489.514 106.445C489.637 106.165 489.699 105.85 489.699 105.498C489.699 104.814 489.491 104.316 489.074 104.004C488.658 103.691 488.046 103.535 487.238 103.535C486.809 103.535 486.366 103.577 485.91 103.662C485.454 103.747 484.966 103.874 484.445 104.043V102.559C484.667 102.48 484.901 102.412 485.148 102.354C485.402 102.288 485.653 102.236 485.9 102.197C486.154 102.152 486.405 102.119 486.652 102.1C486.9 102.074 487.137 102.061 487.365 102.061C488.042 102.061 488.638 102.135 489.152 102.285C489.667 102.428 490.096 102.637 490.441 102.91C490.786 103.184 491.047 103.516 491.223 103.906C491.398 104.297 491.486 104.736 491.486 105.225C491.486 105.954 491.298 106.566 490.92 107.061C490.549 107.555 490.038 107.949 489.387 108.242C489.719 108.294 490.044 108.398 490.363 108.555C490.689 108.711 490.979 108.913 491.232 109.16C491.493 109.401 491.701 109.688 491.857 110.02C492.02 110.352 492.102 110.719 492.102 111.123Z" fill="black" fill-opacity="0.5"/>
<path d="M11.0898 79.3984C11.0898 80.5326 10.929 81.5228 10.6074 82.3691C10.2943 83.2155 9.8584 83.918 9.2998 84.4766C8.74121 85.0352 8.08105 85.4541 7.31934 85.7334C6.55762 86.0127 5.73242 86.1523 4.84375 86.1523C4.4375 86.1523 4.03125 86.1312 3.625 86.0889C3.22721 86.0465 2.82096 85.9746 2.40625 85.873V91.2051H0.197266V73.2539H2.16504L2.30469 75.3867C2.93945 74.515 3.61654 73.9056 4.33594 73.5586C5.05534 73.2031 5.83398 73.0254 6.67188 73.0254C7.39974 73.0254 8.03874 73.1777 8.58887 73.4824C9.139 73.7871 9.60026 74.2188 9.97266 74.7773C10.3451 75.3275 10.6243 75.9961 10.8105 76.7832C10.9967 77.5618 11.0898 78.4336 11.0898 79.3984ZM8.83008 79.5C8.83008 78.8314 8.7793 78.2178 8.67773 77.6592C8.58464 77.1006 8.43229 76.6224 8.2207 76.2246C8.00911 75.8268 7.73828 75.5179 7.4082 75.2979C7.07812 75.0693 6.68457 74.9551 6.22754 74.9551C5.94824 74.9551 5.66471 75.0016 5.37695 75.0947C5.08919 75.1794 4.78874 75.3275 4.47559 75.5391C4.1709 75.7422 3.84505 76.0173 3.49805 76.3643C3.15951 76.7028 2.79557 77.126 2.40625 77.6338V83.8164C2.8125 83.9857 3.23991 84.1211 3.68848 84.2227C4.13704 84.3158 4.57715 84.3623 5.00879 84.3623C6.20215 84.3623 7.13737 83.9603 7.81445 83.1562C8.49154 82.3438 8.83008 81.125 8.83008 79.5ZM15.0127 73.2539H17.0312L17.0947 75.6025C17.848 74.6969 18.5885 74.041 19.3164 73.6348C20.0527 73.2285 20.7933 73.0254 21.5381 73.0254C22.8584 73.0254 23.8571 73.4528 24.5342 74.3076C25.2197 75.1624 25.5371 76.432 25.4863 78.1162H23.252C23.2773 76.999 23.1123 76.1908 22.7568 75.6914C22.4098 75.1836 21.8978 74.9297 21.2207 74.9297C20.9245 74.9297 20.624 74.9847 20.3193 75.0947C20.0231 75.1963 19.7142 75.3656 19.3926 75.6025C19.0794 75.8311 18.7451 76.1273 18.3896 76.4912C18.0342 76.8551 17.6533 77.2952 17.2471 77.8115V86H15.0127V73.2539ZM39.5527 78.9541C39.5527 79.2673 39.5485 79.5296 39.54 79.7412C39.5316 79.9528 39.5189 80.1517 39.502 80.3379H30.5518C30.5518 81.6413 30.9157 82.6442 31.6436 83.3467C32.3714 84.0407 33.4209 84.3877 34.792 84.3877C35.1644 84.3877 35.5368 84.375 35.9092 84.3496C36.2816 84.3158 36.6413 84.2734 36.9883 84.2227C37.3353 84.1719 37.6654 84.1169 37.9785 84.0576C38.3001 83.9899 38.5964 83.918 38.8672 83.8418V85.6572C38.2663 85.8265 37.585 85.9619 36.8232 86.0635C36.07 86.1735 35.2871 86.2285 34.4746 86.2285C33.3828 86.2285 32.4434 86.0804 31.6562 85.7842C30.8691 85.488 30.2217 85.0605 29.7139 84.502C29.2145 83.9349 28.8421 83.2451 28.5967 82.4326C28.3597 81.6117 28.2412 80.6849 28.2412 79.6523C28.2412 78.7552 28.3682 77.9089 28.6221 77.1133C28.8844 76.3092 29.2611 75.6068 29.752 75.0059C30.2513 74.3965 30.8607 73.9141 31.5801 73.5586C32.2995 73.2031 33.1162 73.0254 34.0303 73.0254C34.9189 73.0254 35.7061 73.165 36.3916 73.4443C37.0771 73.7236 37.6527 74.1214 38.1182 74.6377C38.5921 75.1455 38.9476 75.7676 39.1846 76.5039C39.43 77.2318 39.5527 78.0485 39.5527 78.9541ZM37.2549 78.6367C37.2803 78.0697 37.2253 77.5534 37.0898 77.0879C36.9544 76.6139 36.7428 76.2077 36.4551 75.8691C36.1758 75.5306 35.8245 75.2682 35.4014 75.082C34.9782 74.8874 34.4873 74.79 33.9287 74.79C33.4463 74.79 33.0062 74.8831 32.6084 75.0693C32.2106 75.2555 31.8678 75.5179 31.5801 75.8564C31.2923 76.195 31.0596 76.6012 30.8818 77.0752C30.7041 77.5492 30.5941 78.0697 30.5518 78.6367H37.2549ZM54.3936 70.1182C53.234 69.8727 52.2354 69.75 51.3975 69.75C49.4085 69.75 48.4141 70.791 48.4141 72.873V75.1074H54V76.9482H48.4141V86H46.167V76.9482H42.0664V75.1074H46.167V73C46.167 69.6061 47.9359 67.9092 51.4736 67.9092C52.3538 67.9092 53.3271 68.0107 54.3936 68.2139V70.1182ZM61.7188 75.082H57.9482V73.2539H63.9531V84.1592H67.749V86H57.5293V84.1592H61.7188V75.082ZM62.4932 67.9092C62.7386 67.9092 62.9671 67.9557 63.1787 68.0488C63.3903 68.1335 63.5723 68.2562 63.7246 68.417C63.8854 68.5778 64.0081 68.764 64.0928 68.9756C64.1859 69.1787 64.2324 69.403 64.2324 69.6484C64.2324 69.8854 64.1859 70.1097 64.0928 70.3213C64.0081 70.5329 63.8854 70.7191 63.7246 70.8799C63.5723 71.0407 63.3903 71.1676 63.1787 71.2607C62.9671 71.3454 62.7386 71.3877 62.4932 71.3877C62.2477 71.3877 62.0192 71.3454 61.8076 71.2607C61.596 71.1676 61.4098 71.0407 61.249 70.8799C61.0967 70.7191 60.974 70.5329 60.8809 70.3213C60.7962 70.1097 60.7539 69.8854 60.7539 69.6484C60.7539 69.403 60.7962 69.1787 60.8809 68.9756C60.974 68.764 61.0967 68.5778 61.249 68.417C61.4098 68.2562 61.596 68.1335 61.8076 68.0488C62.0192 67.9557 62.2477 67.9092 62.4932 67.9092ZM83.1611 86H80.2285L76.7881 81.1377L73.3857 86H70.5293L75.4678 79.6016L70.7578 73.2539H73.5889L76.9404 78.1543L80.2285 73.2539H82.958L78.1719 79.6523L83.1611 86ZM98.2305 91.2051H83.9355V89.377H98.2305V91.2051ZM110.354 82.5215C110.354 82.9701 110.278 83.3721 110.126 83.7275C109.974 84.083 109.766 84.4004 109.504 84.6797C109.242 84.9505 108.937 85.1833 108.59 85.3779C108.243 85.5726 107.87 85.7334 107.473 85.8604C107.083 85.9873 106.681 86.0804 106.267 86.1396C105.852 86.1989 105.446 86.2285 105.048 86.2285C104.185 86.2285 103.389 86.1904 102.661 86.1143C101.942 86.0381 101.235 85.9154 100.541 85.7461V83.7148C101.286 83.9264 102.026 84.0872 102.763 84.1973C103.499 84.3073 104.231 84.3623 104.959 84.3623C106.017 84.3623 106.8 84.2184 107.308 83.9307C107.815 83.6429 108.069 83.2324 108.069 82.6992C108.069 82.4707 108.027 82.2676 107.942 82.0898C107.866 81.9036 107.722 81.7301 107.511 81.5693C107.299 81.4001 106.969 81.2266 106.521 81.0488C106.08 80.8711 105.475 80.668 104.705 80.4395C104.13 80.2702 103.596 80.0798 103.105 79.8682C102.623 79.6481 102.204 79.39 101.849 79.0938C101.493 78.7975 101.214 78.4505 101.011 78.0527C100.808 77.6549 100.706 77.1852 100.706 76.6436C100.706 76.2881 100.786 75.8988 100.947 75.4756C101.117 75.0524 101.4 74.6589 101.798 74.2949C102.196 73.931 102.733 73.6305 103.41 73.3936C104.087 73.1481 104.934 73.0254 105.949 73.0254C106.449 73.0254 107.003 73.055 107.612 73.1143C108.222 73.165 108.856 73.2581 109.517 73.3936V75.3613C108.823 75.1921 108.162 75.0693 107.536 74.9932C106.918 74.9085 106.381 74.8662 105.924 74.8662C105.374 74.8662 104.908 74.9085 104.527 74.9932C104.155 75.0778 103.85 75.1963 103.613 75.3486C103.385 75.4925 103.22 75.666 103.118 75.8691C103.017 76.0638 102.966 76.2754 102.966 76.5039C102.966 76.7324 103.008 76.9398 103.093 77.126C103.186 77.3122 103.351 77.4941 103.588 77.6719C103.833 77.8411 104.172 78.0146 104.604 78.1924C105.035 78.3617 105.598 78.5479 106.292 78.751C107.045 78.971 107.68 79.2038 108.196 79.4492C108.713 79.6862 109.132 79.9528 109.453 80.249C109.775 80.5452 110.003 80.8796 110.139 81.252C110.283 81.6243 110.354 82.0475 110.354 82.5215ZM124.802 86H122.821L122.745 83.9434C122.364 84.3835 122 84.7516 121.653 85.0479C121.315 85.3356 120.976 85.5684 120.638 85.7461C120.299 85.9238 119.956 86.0465 119.609 86.1143C119.271 86.1904 118.911 86.2285 118.53 86.2285C117.218 86.2285 116.228 85.8434 115.56 85.0732C114.891 84.3031 114.557 83.1393 114.557 81.582V73.2539H116.766V81.4043C116.766 83.3594 117.502 84.3369 118.975 84.3369C119.245 84.3369 119.508 84.2988 119.762 84.2227C120.024 84.138 120.295 83.9984 120.574 83.8037C120.862 83.6006 121.167 83.3298 121.488 82.9912C121.818 82.6527 122.187 82.2253 122.593 81.709V73.2539H124.802V86ZM137.941 86V76.8467C137.941 76.4489 137.924 76.123 137.891 75.8691C137.865 75.6152 137.819 75.4163 137.751 75.2725C137.692 75.1201 137.611 75.0143 137.51 74.9551C137.417 74.8958 137.298 74.8662 137.154 74.8662C136.985 74.8662 136.828 74.917 136.685 75.0186C136.541 75.1201 136.384 75.2852 136.215 75.5137C136.054 75.7422 135.872 76.0469 135.669 76.4277C135.474 76.8001 135.242 77.2614 134.971 77.8115V86H132.952V77.0879C132.952 76.6224 132.935 76.2458 132.901 75.958C132.876 75.6702 132.829 75.446 132.762 75.2852C132.702 75.1243 132.622 75.0143 132.521 74.9551C132.419 74.8958 132.296 74.8662 132.152 74.8662C132 74.8662 131.856 74.9085 131.721 74.9932C131.585 75.0778 131.433 75.2301 131.264 75.4502C131.103 75.6702 130.921 75.9707 130.718 76.3516C130.515 76.7324 130.273 77.2191 129.994 77.8115V86H127.963V73.2539H129.651L129.753 75.6787C129.973 75.1963 130.185 74.7858 130.388 74.4473C130.599 74.1087 130.815 73.8379 131.035 73.6348C131.255 73.4232 131.488 73.2708 131.733 73.1777C131.987 73.0762 132.267 73.0254 132.571 73.0254C133.257 73.0254 133.777 73.2497 134.133 73.6982C134.488 74.1468 134.666 74.8408 134.666 75.7803C134.869 75.3402 135.068 74.9508 135.263 74.6123C135.457 74.2653 135.665 73.9775 135.885 73.749C136.113 73.512 136.363 73.3343 136.634 73.2158C136.905 73.0889 137.218 73.0254 137.573 73.0254C139.173 73.0254 139.973 74.2568 139.973 76.7197V86H137.941ZM153.239 82.5215C153.239 82.9701 153.163 83.3721 153.011 83.7275C152.858 84.083 152.651 84.4004 152.389 84.6797C152.126 84.9505 151.822 85.1833 151.475 85.3779C151.128 85.5726 150.755 85.7334 150.357 85.8604C149.968 85.9873 149.566 86.0804 149.151 86.1396C148.737 86.1989 148.33 86.2285 147.933 86.2285C147.069 86.2285 146.274 86.1904 145.546 86.1143C144.826 86.0381 144.12 85.9154 143.426 85.7461V83.7148C144.171 83.9264 144.911 84.0872 145.647 84.1973C146.384 84.3073 147.116 84.3623 147.844 84.3623C148.902 84.3623 149.685 84.2184 150.192 83.9307C150.7 83.6429 150.954 83.2324 150.954 82.6992C150.954 82.4707 150.912 82.2676 150.827 82.0898C150.751 81.9036 150.607 81.7301 150.396 81.5693C150.184 81.4001 149.854 81.2266 149.405 81.0488C148.965 80.8711 148.36 80.668 147.59 80.4395C147.014 80.2702 146.481 80.0798 145.99 79.8682C145.508 79.6481 145.089 79.39 144.733 79.0938C144.378 78.7975 144.099 78.4505 143.896 78.0527C143.692 77.6549 143.591 77.1852 143.591 76.6436C143.591 76.2881 143.671 75.8988 143.832 75.4756C144.001 75.0524 144.285 74.6589 144.683 74.2949C145.08 73.931 145.618 73.6305 146.295 73.3936C146.972 73.1481 147.818 73.0254 148.834 73.0254C149.333 73.0254 149.888 73.055 150.497 73.1143C151.106 73.165 151.741 73.2581 152.401 73.3936V75.3613C151.707 75.1921 151.047 75.0693 150.421 74.9932C149.803 74.9085 149.266 74.8662 148.809 74.8662C148.258 74.8662 147.793 74.9085 147.412 74.9932C147.04 75.0778 146.735 75.1963 146.498 75.3486C146.27 75.4925 146.104 75.666 146.003 75.8691C145.901 76.0638 145.851 76.2754 145.851 76.5039C145.851 76.7324 145.893 76.9398 145.978 77.126C146.071 77.3122 146.236 77.4941 146.473 77.6719C146.718 77.8411 147.057 78.0146 147.488 78.1924C147.92 78.3617 148.483 78.5479 149.177 78.751C149.93 78.971 150.565 79.2038 151.081 79.4492C151.597 79.6862 152.016 79.9528 152.338 80.249C152.66 80.5452 152.888 80.8796 153.023 81.252C153.167 81.6243 153.239 82.0475 153.239 82.5215ZM182.312 77.7988H171.394V75.9326H182.312V77.7988ZM182.312 82.2168H171.394V80.3506H182.312V82.2168Z" fill="black"/>
<path d="M215.91 9.59766H213.01V8.20117H217.629V20.584H220.549V22H212.688V20.584H215.91V9.59766ZM231.848 16.5801C231.848 16.821 231.844 17.0228 231.838 17.1855C231.831 17.3483 231.822 17.5013 231.809 17.6445H224.924C224.924 18.6471 225.204 19.4186 225.764 19.959C226.324 20.4928 227.131 20.7598 228.186 20.7598C228.472 20.7598 228.758 20.75 229.045 20.7305C229.331 20.7044 229.608 20.6719 229.875 20.6328C230.142 20.5938 230.396 20.5514 230.637 20.5059C230.884 20.4538 231.112 20.3984 231.32 20.3398V21.7363C230.858 21.8665 230.334 21.9707 229.748 22.0488C229.169 22.1335 228.566 22.1758 227.941 22.1758C227.102 22.1758 226.379 22.0618 225.773 21.834C225.168 21.6061 224.67 21.2773 224.279 20.8477C223.895 20.4115 223.609 19.8809 223.42 19.2559C223.238 18.6243 223.146 17.9115 223.146 17.1172C223.146 16.4271 223.244 15.776 223.439 15.1641C223.641 14.5456 223.931 14.0052 224.309 13.543C224.693 13.0742 225.161 12.7031 225.715 12.4297C226.268 12.1562 226.896 12.0195 227.6 12.0195C228.283 12.0195 228.889 12.127 229.416 12.3418C229.943 12.5566 230.386 12.8626 230.744 13.2598C231.109 13.6504 231.382 14.1289 231.564 14.6953C231.753 15.2552 231.848 15.8835 231.848 16.5801ZM230.08 16.3359C230.1 15.8997 230.057 15.5026 229.953 15.1445C229.849 14.7799 229.686 14.4674 229.465 14.207C229.25 13.9466 228.98 13.7448 228.654 13.6016C228.329 13.4518 227.951 13.377 227.521 13.377C227.15 13.377 226.812 13.4486 226.506 13.5918C226.2 13.735 225.936 13.9368 225.715 14.1973C225.493 14.4577 225.314 14.7702 225.178 15.1348C225.041 15.4993 224.956 15.8997 224.924 16.3359H230.08ZM243.264 9.7832C242.372 9.5944 241.604 9.5 240.959 9.5C239.429 9.5 238.664 10.3008 238.664 11.9023V13.6211H242.961V15.0371H238.664V22H236.936V15.0371H233.781V13.6211H236.936V12C236.936 9.38932 238.296 8.08398 241.018 8.08398C241.695 8.08398 242.443 8.16211 243.264 8.31836V9.7832ZM253.459 21.8633C253.075 21.9609 252.678 22.0293 252.268 22.0684C251.857 22.1139 251.441 22.1367 251.018 22.1367C249.787 22.1367 248.869 21.86 248.264 21.3066C247.658 20.7467 247.355 19.8906 247.355 18.7383V13.6211H244.611V12.1953H247.355V9.5L249.055 9.06055V12.1953H253.459V13.6211H249.055V18.6016C249.055 19.3047 249.24 19.832 249.611 20.1836C249.989 20.5286 250.542 20.7012 251.271 20.7012C251.584 20.7012 251.926 20.6784 252.297 20.6328C252.668 20.5807 253.055 20.5026 253.459 20.3984V21.8633Z" fill="#FF5500"/>
<path d="M461.973 11.1953H463.525L463.574 13.002C464.154 12.3053 464.723 11.8008 465.283 11.4883C465.85 11.1758 466.419 11.0195 466.992 11.0195C468.008 11.0195 468.776 11.3483 469.297 12.0059C469.824 12.6634 470.068 13.64 470.029 14.9355H468.311C468.33 14.0762 468.203 13.4544 467.93 13.0703C467.663 12.6797 467.269 12.4844 466.748 12.4844C466.52 12.4844 466.289 12.5267 466.055 12.6113C465.827 12.6895 465.589 12.8197 465.342 13.002C465.101 13.1777 464.844 13.4056 464.57 13.6855C464.297 13.9655 464.004 14.304 463.691 14.7012V21H461.973V11.1953ZM475.908 12.6016H473.008V11.1953H477.627V19.584H480.547V21H472.686V19.584H475.908V12.6016ZM476.504 7.08398C476.693 7.08398 476.868 7.11979 477.031 7.19141C477.194 7.25651 477.334 7.35091 477.451 7.47461C477.575 7.59831 477.669 7.74154 477.734 7.9043C477.806 8.06055 477.842 8.23307 477.842 8.42188C477.842 8.60417 477.806 8.77669 477.734 8.93945C477.669 9.10221 477.575 9.24544 477.451 9.36914C477.334 9.49284 477.194 9.59049 477.031 9.66211C476.868 9.72721 476.693 9.75977 476.504 9.75977C476.315 9.75977 476.139 9.72721 475.977 9.66211C475.814 9.59049 475.671 9.49284 475.547 9.36914C475.43 9.24544 475.335 9.10221 475.264 8.93945C475.199 8.77669 475.166 8.60417 475.166 8.42188C475.166 8.23307 475.199 8.06055 475.264 7.9043C475.335 7.74154 475.43 7.59831 475.547 7.47461C475.671 7.35091 475.814 7.25651 475.977 7.19141C476.139 7.11979 476.315 7.08398 476.504 7.08398ZM490.625 12.582C490.807 12.8099 490.947 13.0768 491.045 13.3828C491.149 13.6823 491.201 14.0078 491.201 14.3594C491.201 14.8672 491.107 15.3327 490.918 15.7559C490.736 16.1725 490.475 16.5306 490.137 16.8301C489.798 17.1296 489.391 17.3639 488.916 17.5332C488.447 17.696 487.93 17.7773 487.363 17.7773C486.953 17.7773 486.569 17.735 486.211 17.6504C485.853 17.5592 485.57 17.4486 485.361 17.3184C485.238 17.5007 485.133 17.6732 485.049 17.8359C484.964 17.9987 484.922 18.181 484.922 18.3828C484.922 18.6302 485.039 18.8353 485.273 18.998C485.514 19.1608 485.83 19.2487 486.221 19.2617L488.799 19.3594C489.287 19.3724 489.736 19.4342 490.146 19.5449C490.563 19.6556 490.918 19.8151 491.211 20.0234C491.51 20.2318 491.742 20.4889 491.904 20.7949C492.074 21.1009 492.158 21.4557 492.158 21.8594C492.158 22.2956 492.064 22.709 491.875 23.0996C491.686 23.4902 491.393 23.832 490.996 24.125C490.605 24.4245 490.107 24.6621 489.502 24.8379C488.896 25.0137 488.177 25.1016 487.344 25.1016C486.549 25.1016 485.872 25.0365 485.312 24.9062C484.759 24.7826 484.303 24.6068 483.945 24.3789C483.587 24.1576 483.327 23.8906 483.164 23.5781C483.001 23.2721 482.92 22.9336 482.92 22.5625C482.92 22.0872 483.031 21.6706 483.252 21.3125C483.473 20.9544 483.815 20.6094 484.277 20.2773C484.108 20.1992 483.962 20.1016 483.838 19.9844C483.714 19.8672 483.613 19.7402 483.535 19.6035C483.457 19.4603 483.398 19.3105 483.359 19.1543C483.32 18.998 483.301 18.8451 483.301 18.6953C483.301 18.2721 483.398 17.8848 483.594 17.5332C483.796 17.1816 484.033 16.8496 484.307 16.5371C484.183 16.3874 484.072 16.2409 483.975 16.0977C483.883 15.9544 483.802 15.8014 483.73 15.6387C483.665 15.4694 483.613 15.2904 483.574 15.1016C483.542 14.9062 483.525 14.6849 483.525 14.4375C483.525 13.9297 483.617 13.4674 483.799 13.0508C483.988 12.6276 484.248 12.2663 484.58 11.9668C484.919 11.6673 485.322 11.4362 485.791 11.2734C486.266 11.1042 486.79 11.0195 487.363 11.0195C487.604 11.0195 487.835 11.0358 488.057 11.0684C488.278 11.1009 488.473 11.1432 488.643 11.1953H492.197V12.582H490.625ZM484.727 22.416C484.727 22.8783 484.967 23.2135 485.449 23.4219C485.931 23.6367 486.602 23.7441 487.461 23.7441C488.001 23.7441 488.454 23.6953 488.818 23.5977C489.189 23.5 489.486 23.3698 489.707 23.207C489.935 23.0508 490.098 22.8685 490.195 22.6602C490.293 22.4583 490.342 22.25 490.342 22.0352C490.342 21.638 490.179 21.3451 489.854 21.1562C489.528 20.9674 489.03 20.8568 488.359 20.8242L485.801 20.7363C485.586 20.8796 485.407 21.0195 485.264 21.1562C485.127 21.293 485.02 21.4297 484.941 21.5664C484.863 21.7096 484.808 21.8496 484.775 21.9863C484.743 22.1296 484.727 22.2728 484.727 22.416ZM485.244 14.3984C485.244 14.7109 485.296 14.9974 485.4 15.2578C485.505 15.5182 485.651 15.7396 485.84 15.9219C486.029 16.1042 486.25 16.2474 486.504 16.3516C486.764 16.4492 487.051 16.498 487.363 16.498C487.702 16.498 488.001 16.4427 488.262 16.332C488.529 16.2148 488.75 16.0586 488.926 15.8633C489.108 15.668 489.245 15.4434 489.336 15.1895C489.434 14.9355 489.482 14.6719 489.482 14.3984C489.482 14.0859 489.43 13.7995 489.326 13.5391C489.222 13.2786 489.076 13.0573 488.887 12.875C488.698 12.6927 488.473 12.5527 488.213 12.4551C487.959 12.3509 487.676 12.2988 487.363 12.2988C487.025 12.2988 486.722 12.3574 486.455 12.4746C486.195 12.5918 485.973 12.748 485.791 12.9434C485.615 13.1322 485.479 13.3535 485.381 13.6074C485.29 13.8613 485.244 14.125 485.244 14.3984ZM502.441 21H500.742V14.7402C500.742 13.985 500.599 13.4219 500.312 13.0508C500.033 12.6732 499.629 12.4844 499.102 12.4844C498.874 12.4844 498.659 12.5169 498.457 12.582C498.262 12.6406 498.057 12.748 497.842 12.9043C497.627 13.054 497.393 13.2591 497.139 13.5195C496.885 13.7799 496.592 14.1055 496.26 14.4961V21H494.561V7.20117H496.26V11.1953L496.201 12.7383C496.468 12.4193 496.729 12.1523 496.982 11.9375C497.243 11.7161 497.5 11.5371 497.754 11.4004C498.014 11.2637 498.278 11.166 498.545 11.1074C498.812 11.0488 499.089 11.0195 499.375 11.0195C500.352 11.0195 501.107 11.319 501.641 11.918C502.174 12.5104 502.441 13.4056 502.441 14.6035V21ZM513.457 20.8633C513.073 20.9609 512.676 21.0293 512.266 21.0684C511.855 21.1139 511.439 21.1367 511.016 21.1367C509.785 21.1367 508.867 20.86 508.262 20.3066C507.656 19.7467 507.354 18.8906 507.354 17.7383V12.6211H504.609V11.1953H507.354V8.5L509.053 8.06055V11.1953H513.457V12.6211H509.053V17.6016C509.053 18.3047 509.238 18.832 509.609 19.1836C509.987 19.5286 510.54 19.7012 511.27 19.7012C511.582 19.7012 511.924 19.6784 512.295 19.6328C512.666 19.5807 513.053 19.5026 513.457 19.3984V20.8633Z" fill="#FF5500"/>
<path d="M231.293 57.7071C231.683 58.0976 232.317 58.0976 232.707 57.7071L239.071 51.3431C239.462 50.9526 239.462 50.3195 239.071 49.9289C238.681 49.5384 238.047 49.5384 237.657 49.9289L232 55.5858L226.343 49.9289C225.953 49.5384 225.319 49.5384 224.929 49.9289C224.538 50.3195 224.538 50.9526 224.929 51.3431L231.293 57.7071ZM231 30L231 57L233 57L233 30L231 30Z" fill="#FF5500"/>
<path d="M486.293 57.7071C486.683 58.0976 487.317 58.0976 487.707 57.7071L494.071 51.3431C494.462 50.9526 494.462 50.3195 494.071 49.9289C493.681 49.5384 493.047 49.5384 492.657 49.9289L487 55.5858L481.343 49.9289C480.953 49.5384 480.319 49.5384 479.929 49.9289C479.538 50.3195 479.538 50.9526 479.929 51.3431L486.293 57.7071ZM486 30L486 57L488 57L488 30L486 30Z" fill="#FF5500"/>
<path d="M12.3018 122.822C11.8024 122.949 11.2861 123.038 10.7529 123.089C10.2197 123.148 9.67806 123.178 9.12793 123.178C7.52832 123.178 6.33496 122.818 5.54785 122.099C4.76074 121.371 4.36719 120.258 4.36719 118.76V112.107H0.799805V110.254H4.36719V106.75L6.57617 106.179V110.254H12.3018V112.107H6.57617V118.582C6.57617 119.496 6.81738 120.182 7.2998 120.639C7.79069 121.087 8.51009 121.312 9.45801 121.312C9.86426 121.312 10.3086 121.282 10.791 121.223C11.2734 121.155 11.777 121.053 12.3018 120.918V122.822ZM24.5146 123L24.4639 121.286C23.7699 121.972 23.0632 122.467 22.3438 122.771C21.6328 123.076 20.8838 123.229 20.0967 123.229C19.3688 123.229 18.7467 123.135 18.2305 122.949C17.7142 122.763 17.2868 122.509 16.9482 122.188C16.6182 121.857 16.3727 121.472 16.2119 121.032C16.0596 120.592 15.9834 120.114 15.9834 119.598C15.9834 118.32 16.4574 117.321 17.4053 116.602C18.3617 115.874 19.7708 115.51 21.6328 115.51H24.2734V114.393C24.2734 113.639 24.0322 113.038 23.5498 112.59C23.0674 112.133 22.3311 111.904 21.3408 111.904C20.6214 111.904 19.9105 111.985 19.208 112.146C18.514 112.306 17.7946 112.535 17.0498 112.831V110.838C17.3291 110.736 17.638 110.639 17.9766 110.546C18.3236 110.444 18.6875 110.355 19.0684 110.279C19.4492 110.203 19.847 110.144 20.2617 110.102C20.6764 110.051 21.0954 110.025 21.5186 110.025C22.2887 110.025 22.9827 110.11 23.6006 110.279C24.2184 110.449 24.7389 110.707 25.1621 111.054C25.5938 111.401 25.9238 111.837 26.1523 112.361C26.3809 112.886 26.4951 113.504 26.4951 114.215V123H24.5146ZM24.2734 117.198H21.4678C20.9176 117.198 20.4437 117.253 20.0459 117.363C19.6481 117.473 19.3223 117.63 19.0684 117.833C18.8145 118.036 18.624 118.282 18.4971 118.569C18.3786 118.849 18.3193 119.166 18.3193 119.521C18.3193 119.767 18.3574 120.004 18.4336 120.232C18.5098 120.452 18.6325 120.651 18.8018 120.829C18.971 120.998 19.1911 121.134 19.4619 121.235C19.7327 121.337 20.0628 121.388 20.4521 121.388C20.96 121.388 21.5397 121.235 22.1914 120.931C22.8516 120.618 23.5456 120.127 24.2734 119.458V117.198ZM31.1416 110.254H33.1602L33.2236 112.603C33.9769 111.697 34.7174 111.041 35.4453 110.635C36.1816 110.229 36.9222 110.025 37.667 110.025C38.9873 110.025 39.986 110.453 40.6631 111.308C41.3486 112.162 41.666 113.432 41.6152 115.116H39.3809C39.4062 113.999 39.2412 113.191 38.8857 112.691C38.5387 112.184 38.0267 111.93 37.3496 111.93C37.0534 111.93 36.7529 111.985 36.4482 112.095C36.152 112.196 35.8431 112.366 35.5215 112.603C35.2083 112.831 34.874 113.127 34.5186 113.491C34.1631 113.855 33.7822 114.295 33.376 114.812V123H31.1416V110.254ZM54.0947 112.057C54.3317 112.353 54.5137 112.7 54.6406 113.098C54.776 113.487 54.8438 113.91 54.8438 114.367C54.8438 115.027 54.721 115.632 54.4756 116.183C54.2386 116.724 53.9001 117.19 53.46 117.579C53.0199 117.968 52.4909 118.273 51.873 118.493C51.2637 118.705 50.5908 118.811 49.8545 118.811C49.3213 118.811 48.8219 118.756 48.3564 118.646C47.891 118.527 47.5228 118.383 47.252 118.214C47.0911 118.451 46.9557 118.675 46.8457 118.887C46.7357 119.098 46.6807 119.335 46.6807 119.598C46.6807 119.919 46.833 120.186 47.1377 120.397C47.4508 120.609 47.8613 120.723 48.3691 120.74L51.7207 120.867C52.3555 120.884 52.9395 120.965 53.4727 121.108C54.0143 121.252 54.4756 121.46 54.8564 121.73C55.2458 122.001 55.5462 122.336 55.7578 122.733C55.9779 123.131 56.0879 123.592 56.0879 124.117C56.0879 124.684 55.9652 125.222 55.7197 125.729C55.4743 126.237 55.0934 126.682 54.5771 127.062C54.0693 127.452 53.4219 127.761 52.6348 127.989C51.8477 128.218 50.9124 128.332 49.8291 128.332C48.7965 128.332 47.9163 128.247 47.1885 128.078C46.4691 127.917 45.8766 127.689 45.4111 127.393C44.9456 127.105 44.6071 126.758 44.3955 126.352C44.1839 125.954 44.0781 125.514 44.0781 125.031C44.0781 124.413 44.222 123.872 44.5098 123.406C44.7975 122.941 45.2419 122.492 45.8428 122.061C45.6227 121.959 45.4323 121.832 45.2715 121.68C45.1107 121.527 44.9795 121.362 44.8779 121.185C44.7764 120.998 44.7002 120.804 44.6494 120.601C44.5986 120.397 44.5732 120.199 44.5732 120.004C44.5732 119.454 44.7002 118.95 44.9541 118.493C45.2165 118.036 45.5254 117.604 45.8809 117.198C45.7201 117.004 45.5762 116.813 45.4492 116.627C45.3307 116.441 45.2249 116.242 45.1318 116.03C45.0472 115.81 44.9795 115.577 44.9287 115.332C44.8864 115.078 44.8652 114.79 44.8652 114.469C44.8652 113.809 44.9837 113.208 45.2207 112.666C45.4661 112.116 45.8047 111.646 46.2363 111.257C46.6764 110.868 47.2012 110.567 47.8105 110.355C48.4284 110.135 49.1097 110.025 49.8545 110.025C50.1676 110.025 50.4681 110.047 50.7559 110.089C51.0436 110.131 51.2975 110.186 51.5176 110.254H56.1387V112.057H54.0947ZM46.4268 124.841C46.4268 125.442 46.7399 125.878 47.3662 126.148C47.9925 126.428 48.8643 126.567 49.9814 126.567C50.6839 126.567 51.2721 126.504 51.7461 126.377C52.2285 126.25 52.6136 126.081 52.9014 125.869C53.1976 125.666 53.4092 125.429 53.5361 125.158C53.6631 124.896 53.7266 124.625 53.7266 124.346C53.7266 123.829 53.515 123.449 53.0918 123.203C52.6686 122.958 52.0212 122.814 51.1494 122.771L47.8232 122.657C47.5439 122.843 47.3112 123.025 47.125 123.203C46.9473 123.381 46.8076 123.559 46.7061 123.736C46.6045 123.923 46.5326 124.104 46.4902 124.282C46.4479 124.468 46.4268 124.655 46.4268 124.841ZM47.0996 114.418C47.0996 114.824 47.1673 115.197 47.3027 115.535C47.4382 115.874 47.6286 116.161 47.874 116.398C48.1195 116.635 48.4072 116.822 48.7373 116.957C49.0758 117.084 49.4482 117.147 49.8545 117.147C50.2946 117.147 50.6839 117.076 51.0225 116.932C51.3695 116.779 51.6572 116.576 51.8857 116.322C52.1227 116.068 52.3005 115.776 52.4189 115.446C52.5459 115.116 52.6094 114.773 52.6094 114.418C52.6094 114.012 52.5417 113.639 52.4062 113.301C52.2708 112.962 52.0804 112.674 51.835 112.438C51.5895 112.201 51.2975 112.019 50.959 111.892C50.6289 111.756 50.2607 111.688 49.8545 111.688C49.4144 111.688 49.0208 111.765 48.6738 111.917C48.3353 112.069 48.0475 112.272 47.8105 112.526C47.582 112.772 47.4043 113.06 47.2773 113.39C47.1589 113.72 47.0996 114.062 47.0996 114.418ZM69.9766 115.954C69.9766 116.267 69.9723 116.53 69.9639 116.741C69.9554 116.953 69.9427 117.152 69.9258 117.338H60.9756C60.9756 118.641 61.3395 119.644 62.0674 120.347C62.7952 121.041 63.8447 121.388 65.2158 121.388C65.5882 121.388 65.9606 121.375 66.333 121.35C66.7054 121.316 67.0651 121.273 67.4121 121.223C67.7591 121.172 68.0892 121.117 68.4023 121.058C68.724 120.99 69.0202 120.918 69.291 120.842V122.657C68.6901 122.826 68.0088 122.962 67.2471 123.063C66.4938 123.174 65.7109 123.229 64.8984 123.229C63.8066 123.229 62.8672 123.08 62.0801 122.784C61.293 122.488 60.6455 122.061 60.1377 121.502C59.6383 120.935 59.266 120.245 59.0205 119.433C58.7835 118.612 58.665 117.685 58.665 116.652C58.665 115.755 58.792 114.909 59.0459 114.113C59.3083 113.309 59.6849 112.607 60.1758 112.006C60.6751 111.396 61.2845 110.914 62.0039 110.559C62.7233 110.203 63.54 110.025 64.4541 110.025C65.3428 110.025 66.1299 110.165 66.8154 110.444C67.501 110.724 68.0765 111.121 68.542 111.638C69.016 112.146 69.3714 112.768 69.6084 113.504C69.8538 114.232 69.9766 115.049 69.9766 115.954ZM67.6787 115.637C67.7041 115.07 67.6491 114.553 67.5137 114.088C67.3783 113.614 67.1667 113.208 66.8789 112.869C66.5996 112.531 66.2484 112.268 65.8252 112.082C65.402 111.887 64.9111 111.79 64.3525 111.79C63.8701 111.79 63.43 111.883 63.0322 112.069C62.6344 112.256 62.2917 112.518 62.0039 112.856C61.7161 113.195 61.4834 113.601 61.3057 114.075C61.1279 114.549 61.0179 115.07 60.9756 115.637H67.6787ZM83.7764 122.822C83.277 122.949 82.7607 123.038 82.2275 123.089C81.6943 123.148 81.1527 123.178 80.6025 123.178C79.0029 123.178 77.8096 122.818 77.0225 122.099C76.2354 121.371 75.8418 120.258 75.8418 118.76V112.107H72.2744V110.254H75.8418V106.75L78.0508 106.179V110.254H83.7764V112.107H78.0508V118.582C78.0508 119.496 78.292 120.182 78.7744 120.639C79.2653 121.087 79.9847 121.312 80.9326 121.312C81.3389 121.312 81.7832 121.282 82.2656 121.223C82.748 121.155 83.2516 121.053 83.7764 120.918V122.822ZM112.671 114.799H101.753V112.933H112.671V114.799ZM112.671 119.217H101.753V117.351H112.671V119.217ZM141.032 117.693C141.032 118.514 140.854 119.263 140.499 119.94C140.144 120.618 139.653 121.201 139.026 121.692C138.409 122.175 137.676 122.551 136.83 122.822C135.984 123.093 135.07 123.229 134.088 123.229C133.842 123.229 133.576 123.22 133.288 123.203C133.009 123.195 132.729 123.178 132.45 123.152C132.171 123.135 131.896 123.114 131.625 123.089C131.363 123.063 131.126 123.034 130.914 123V120.994C131.371 121.104 131.892 121.185 132.476 121.235C133.068 121.286 133.665 121.312 134.266 121.312C134.943 121.312 135.552 121.231 136.094 121.07C136.635 120.91 137.097 120.681 137.478 120.385C137.858 120.08 138.15 119.716 138.354 119.293C138.557 118.861 138.658 118.379 138.658 117.846C138.658 116.813 138.286 116.064 137.541 115.599C136.805 115.125 135.743 114.888 134.354 114.888H131.206V106.407H140.144V108.337H133.288V112.996H134.735C135.531 112.996 136.305 113.068 137.059 113.212C137.812 113.356 138.48 113.61 139.064 113.974C139.657 114.329 140.131 114.812 140.486 115.421C140.85 116.022 141.032 116.779 141.032 117.693Z" fill="black"/>
</g>
<defs>
<clipPath id="clip0_3248_6998">
<rect width="523" height="129" fill="white"/>
</clipPath>
</defs>
</svg>
