<svg width="584" height="119" viewBox="0 0 584 119" fill="none" xmlns="http://www.w3.org/2000/svg">
<g clip-path="url(#clip0_6264_2383)">
<rect width="584" height="119" fill="white"/>
<path d="M42.0186 81.1953C42.0186 82.0059 41.8525 82.7285 41.5205 83.3633C41.1885 83.9883 40.7246 84.5156 40.1289 84.9453C39.5332 85.375 38.8301 85.7021 38.0195 85.9268C37.209 86.1514 36.3301 86.2637 35.3828 86.2637C34.3379 86.2637 33.415 86.1465 32.6143 85.9121C31.8232 85.6777 31.1592 85.3506 30.6221 84.9307C30.085 84.5107 29.6797 84.0127 29.4062 83.4365C29.1328 82.8604 28.9961 82.2256 28.9961 81.5322C28.9961 80.3604 29.3232 79.3496 29.9775 78.5C30.6318 77.6504 31.6426 76.8789 33.0098 76.1855C31.7598 75.5508 30.8467 74.8477 30.2705 74.0762C29.6943 73.2949 29.4062 72.4014 29.4062 71.3955C29.4062 70.7803 29.5332 70.1846 29.7871 69.6084C30.041 69.0322 30.4219 68.5195 30.9297 68.0703C31.4473 67.6211 32.0918 67.2646 32.8633 67.001C33.6348 66.7275 34.543 66.5908 35.5879 66.5908C36.5742 66.5908 37.4385 66.6982 38.1807 66.9131C38.9326 67.1182 39.5625 67.416 40.0703 67.8066C40.5781 68.1973 40.959 68.6709 41.2129 69.2275C41.4668 69.7842 41.5938 70.4043 41.5938 71.0879C41.5938 72.2012 41.2812 73.1484 40.6562 73.9297C40.041 74.7109 39.1621 75.3945 38.0195 75.9805C38.5859 76.2637 39.1133 76.5762 39.6016 76.918C40.0898 77.2598 40.5146 77.6406 40.876 78.0605C41.2373 78.4805 41.5156 78.9492 41.7109 79.4668C41.916 79.9844 42.0186 80.5605 42.0186 81.1953ZM38.9863 71.293C38.9863 70.4238 38.6787 69.7793 38.0635 69.3594C37.458 68.9297 36.6035 68.7148 35.5 68.7148C34.4062 68.7148 33.5518 68.9248 32.9365 69.3447C32.3311 69.7646 32.0283 70.3945 32.0283 71.2344C32.0283 71.6152 32.1016 71.9668 32.248 72.2891C32.3945 72.6113 32.6191 72.9141 32.9219 73.1973C33.2344 73.4805 33.6201 73.7588 34.0791 74.0322C34.5381 74.3057 35.085 74.584 35.7197 74.8672C36.8232 74.3496 37.6436 73.8125 38.1807 73.2559C38.7178 72.6895 38.9863 72.0352 38.9863 71.293ZM39.25 81.3857C39.25 81.0244 39.1914 80.6729 39.0742 80.3311C38.957 79.9893 38.7471 79.6523 38.4443 79.3203C38.1416 78.9883 37.7363 78.6562 37.2285 78.3242C36.7207 77.9922 36.0762 77.6504 35.2949 77.2988C34.6309 77.6211 34.0693 77.9434 33.6104 78.2656C33.1611 78.5781 32.7949 78.9004 32.5117 79.2324C32.2383 79.5547 32.043 79.8916 31.9258 80.2432C31.8086 80.5947 31.75 80.9658 31.75 81.3564C31.75 81.7959 31.8428 82.1865 32.0283 82.5283C32.2236 82.8604 32.4873 83.1436 32.8193 83.3779C33.1514 83.6123 33.5469 83.7881 34.0059 83.9053C34.4648 84.0225 34.9629 84.0811 35.5 84.0811C36.0176 84.0811 36.5059 84.0273 36.9648 83.9199C37.4238 83.8125 37.8193 83.6514 38.1514 83.4365C38.4932 83.2119 38.7617 82.9336 38.957 82.6016C39.1523 82.2598 39.25 81.8545 39.25 81.3857Z" fill="#DADADA"/>
<path d="M106.916 75.3506C106.916 77.2158 106.691 78.8223 106.242 80.1699C105.793 81.5078 105.129 82.6113 104.25 83.4805C103.371 84.3398 102.282 84.9746 100.983 85.3848C99.6846 85.7949 98.1855 86 96.4863 86H94.8896V83.7734H96.6621C97.9219 83.7734 99.0107 83.6465 99.9287 83.3926C100.847 83.1387 101.608 82.7676 102.214 82.2793C102.829 81.7812 103.298 81.1807 103.62 80.4775C103.942 79.7646 104.143 78.9541 104.221 78.0459L104.279 77.4453C103.664 77.8066 102.956 78.0996 102.155 78.3242C101.354 78.5391 100.485 78.6465 99.5479 78.6465C98.5811 78.6465 97.7314 78.5049 96.999 78.2217C96.2666 77.9385 95.6562 77.543 95.168 77.0352C94.6895 76.5273 94.3281 75.9268 94.084 75.2334C93.8398 74.5303 93.7178 73.7686 93.7178 72.9482C93.7178 72.0596 93.8789 71.2295 94.2012 70.458C94.5234 69.6865 94.9727 69.0176 95.5488 68.4512C96.1348 67.875 96.833 67.4209 97.6436 67.0889C98.4541 66.7568 99.3477 66.5908 100.324 66.5908C101.271 66.5908 102.146 66.7471 102.946 67.0596C103.757 67.3721 104.455 67.8799 105.041 68.583C105.627 69.2764 106.086 70.1797 106.418 71.293C106.75 72.4062 106.916 73.7588 106.916 75.3506ZM100.207 68.6855C99.6602 68.6855 99.1523 68.7783 98.6836 68.9639C98.2246 69.1396 97.8242 69.4033 97.4824 69.7549C97.1504 70.0967 96.8867 70.5215 96.6914 71.0293C96.4961 71.5371 96.3984 72.1182 96.3984 72.7725C96.3984 73.3682 96.4668 73.9004 96.6035 74.3691C96.75 74.8379 96.9697 75.2383 97.2627 75.5703C97.5654 75.8926 97.9512 76.1416 98.4199 76.3174C98.8887 76.4932 99.4453 76.5811 100.09 76.5811C100.451 76.5811 100.822 76.5469 101.203 76.4785C101.594 76.4102 101.97 76.3174 102.331 76.2002C102.702 76.083 103.054 75.9463 103.386 75.79C103.718 75.6338 104.016 75.4678 104.279 75.292C104.279 74.0322 104.187 72.9824 104.001 72.1426C103.815 71.293 103.547 70.6143 103.195 70.1064C102.844 69.5889 102.414 69.2227 101.906 69.0078C101.408 68.793 100.842 68.6855 100.207 68.6855Z" fill="#DADADA"/>
<path d="M169.857 86H157.831V83.627H162.753V69.6523L158.168 72.1426L157.23 69.9746L163.324 66.7666H165.58V83.627H169.857V86Z" fill="black"/>
<path d="M235.019 86H222.406V83.7148L227.357 78.793C228.168 77.9922 228.827 77.2988 229.335 76.7129C229.843 76.127 230.238 75.5947 230.521 75.1162C230.805 74.6279 230.995 74.1689 231.093 73.7393C231.19 73.3096 231.239 72.8457 231.239 72.3477C231.239 71.8789 231.176 71.4346 231.049 71.0146C230.922 70.585 230.727 70.209 230.463 69.8867C230.199 69.5645 229.857 69.3105 229.438 69.125C229.018 68.9395 228.515 68.8467 227.929 68.8467C227.118 68.8467 226.381 69.0273 225.717 69.3887C225.053 69.75 224.442 70.2188 223.886 70.7949L222.479 69.1104C223.202 68.3486 224.032 67.7383 224.97 67.2793C225.917 66.8203 227.016 66.5908 228.266 66.5908C229.115 66.5908 229.887 66.7178 230.58 66.9717C231.283 67.2256 231.889 67.5918 232.396 68.0703C232.904 68.5488 233.295 69.1348 233.568 69.8281C233.852 70.5215 233.993 71.3027 233.993 72.1719C233.993 72.9043 233.896 73.583 233.7 74.208C233.505 74.833 233.207 75.458 232.807 76.083C232.416 76.6982 231.918 77.3379 231.312 78.002C230.717 78.666 230.009 79.3936 229.188 80.1846L225.717 83.5684H235.019V86Z" fill="black"/>
<path d="M297.652 80.1846C297.652 81.0244 297.481 81.8154 297.14 82.5576C296.798 83.29 296.285 83.9346 295.602 84.4912C294.918 85.0381 294.059 85.4727 293.023 85.7949C291.988 86.1074 290.782 86.2637 289.405 86.2637C288.644 86.2637 287.96 86.2393 287.354 86.1904C286.749 86.1416 286.183 86.0781 285.655 86V83.7148C286.261 83.8223 286.9 83.9053 287.574 83.9639C288.248 84.0225 288.937 84.0518 289.64 84.0518C290.597 84.0518 291.412 83.9688 292.086 83.8027C292.77 83.627 293.326 83.3779 293.756 83.0557C294.186 82.7334 294.498 82.3428 294.693 81.8838C294.889 81.4248 294.986 80.9072 294.986 80.3311C294.986 79.8037 294.869 79.3447 294.635 78.9541C294.4 78.5635 294.068 78.2363 293.639 77.9727C293.219 77.709 292.711 77.5137 292.115 77.3867C291.529 77.25 290.885 77.1816 290.182 77.1816H287.999V75.0869H290.211C290.787 75.0869 291.31 75.0137 291.778 74.8672C292.257 74.7109 292.662 74.4912 292.994 74.208C293.336 73.9248 293.595 73.5781 293.771 73.168C293.956 72.748 294.049 72.2744 294.049 71.7471C294.049 70.7217 293.736 69.9746 293.111 69.5059C292.486 69.0371 291.568 68.8027 290.357 68.8027C289.713 68.8027 289.049 68.8662 288.365 68.9932C287.682 69.1201 286.949 69.3105 286.168 69.5645V67.3379C286.5 67.2207 286.852 67.1182 287.223 67.0303C287.604 66.9326 287.979 66.8545 288.351 66.7959C288.731 66.7275 289.107 66.6787 289.479 66.6494C289.85 66.6104 290.206 66.5908 290.548 66.5908C291.563 66.5908 292.457 66.7031 293.229 66.9277C294 67.1426 294.645 67.4551 295.162 67.8652C295.68 68.2754 296.07 68.7734 296.334 69.3594C296.598 69.9453 296.729 70.6045 296.729 71.3369C296.729 72.4307 296.446 73.3486 295.88 74.0908C295.323 74.833 294.557 75.4238 293.58 75.8633C294.078 75.9414 294.566 76.0977 295.045 76.332C295.533 76.5664 295.968 76.8691 296.349 77.2402C296.739 77.6016 297.052 78.0312 297.286 78.5293C297.53 79.0273 297.652 79.5791 297.652 80.1846Z" fill="#DADADA"/>
<path d="M362.971 81.7666H359.704V86H357.097V81.7666H347.883V79.5254L356.042 66.8545H359.704V79.5254H362.971V81.7666ZM357.097 69.3154L350.432 79.5254H357.097V69.3154Z" fill="#DADADA"/>
<path d="M425.535 79.877C425.535 80.8242 425.33 81.6885 424.92 82.4697C424.51 83.251 423.943 83.9248 423.221 84.4912C422.508 85.0479 421.663 85.4824 420.687 85.7949C419.71 86.1074 418.655 86.2637 417.522 86.2637C417.239 86.2637 416.932 86.2539 416.6 86.2344C416.277 86.2246 415.955 86.2051 415.633 86.1758C415.311 86.1562 414.993 86.1318 414.681 86.1025C414.378 86.0732 414.104 86.0391 413.86 86V83.6855C414.388 83.8125 414.988 83.9053 415.662 83.9639C416.346 84.0225 417.034 84.0518 417.728 84.0518C418.509 84.0518 419.212 83.959 419.837 83.7734C420.462 83.5879 420.994 83.3242 421.434 82.9824C421.873 82.6309 422.21 82.2109 422.444 81.7227C422.679 81.2246 422.796 80.668 422.796 80.0527C422.796 78.8613 422.366 77.9971 421.507 77.46C420.657 76.9131 419.432 76.6396 417.83 76.6396H414.197V66.8545H424.51V69.0811H416.6V74.457H418.27C419.188 74.457 420.081 74.54 420.95 74.7061C421.819 74.8721 422.591 75.165 423.265 75.585C423.948 75.9951 424.495 76.5518 424.905 77.2549C425.325 77.9482 425.535 78.8223 425.535 79.877Z" fill="#DADADA"/>
<path d="M7.27539 92.0059H0.0537109V64.7891H7.27539V66.8398H2.48535V89.9551H7.27539V92.0059Z" fill="black"/>
<path d="M583.44 92.0059H576.219V89.9551H580.979V66.8398H576.219V64.7891H583.44V92.0059Z" fill="black"/>
<path opacity="0.5" d="M40.6025 111.985C40.6025 113.06 40.4951 114.041 40.2803 114.929C40.0654 115.81 39.7396 116.569 39.3027 117.206C38.8659 117.836 38.3216 118.327 37.6699 118.678C37.0254 119.021 36.2663 119.193 35.3926 119.193C34.6406 119.193 33.9567 119.054 33.3408 118.774C32.7249 118.488 32.1986 118.051 31.7617 117.464C31.3249 116.877 30.9883 116.128 30.752 115.219C30.5156 114.309 30.3975 113.231 30.3975 111.985C30.3975 110.911 30.5049 109.93 30.7197 109.042C30.9417 108.154 31.2676 107.395 31.6973 106.765C32.1341 106.127 32.6784 105.637 33.3301 105.293C33.9818 104.942 34.7409 104.767 35.6074 104.767C36.3594 104.767 37.0433 104.91 37.6592 105.196C38.2751 105.476 38.8014 105.912 39.2383 106.507C39.6751 107.094 40.0117 107.842 40.248 108.752C40.4844 109.661 40.6025 110.739 40.6025 111.985ZM38.7119 112.05C38.7119 111.806 38.7012 111.566 38.6797 111.33C38.6654 111.087 38.6475 110.85 38.626 110.621L32.6855 115.036C32.793 115.409 32.929 115.752 33.0938 116.067C33.2585 116.382 33.4554 116.655 33.6846 116.884C33.9209 117.106 34.1859 117.281 34.4795 117.41C34.7803 117.532 35.1204 117.593 35.5 117.593C35.987 117.593 36.4274 117.475 36.8213 117.238C37.2223 117.002 37.5625 116.651 37.8418 116.186C38.1211 115.72 38.3359 115.144 38.4863 114.456C38.6367 113.761 38.7119 112.959 38.7119 112.05ZM32.2881 111.921C32.2881 112.143 32.2881 112.365 32.2881 112.587C32.2952 112.809 32.3096 113.024 32.3311 113.231L38.2715 108.838C38.1641 108.473 38.028 108.14 37.8633 107.839C37.6986 107.538 37.5016 107.28 37.2725 107.065C37.0433 106.843 36.7819 106.672 36.4883 106.55C36.1947 106.428 35.8652 106.367 35.5 106.367C35.013 106.367 34.569 106.485 34.168 106.722C33.7741 106.958 33.4375 107.312 33.1582 107.785C32.8789 108.251 32.6641 108.831 32.5137 109.525C32.3633 110.213 32.2881 111.011 32.2881 111.921Z" fill="#C2C2C2"/>
<path opacity="0.5" d="M105.162 119H96.3428V117.26H99.9521V107.012L96.5898 108.838L95.9023 107.248L100.371 104.896H102.025V117.26H105.162V119Z" fill="#C2C2C2"/>
<path opacity="0.5" d="M168.28 119H159.031V117.324L162.662 113.715C163.257 113.128 163.74 112.619 164.112 112.189C164.485 111.76 164.775 111.369 164.982 111.019C165.19 110.66 165.33 110.324 165.401 110.009C165.473 109.694 165.509 109.354 165.509 108.988C165.509 108.645 165.462 108.319 165.369 108.011C165.276 107.696 165.133 107.42 164.939 107.184C164.746 106.947 164.495 106.761 164.188 106.625C163.88 106.489 163.511 106.421 163.081 106.421C162.487 106.421 161.946 106.553 161.459 106.818C160.972 107.083 160.524 107.427 160.116 107.85L159.085 106.614C159.615 106.056 160.224 105.608 160.911 105.271C161.606 104.935 162.411 104.767 163.328 104.767C163.951 104.767 164.517 104.86 165.025 105.046C165.541 105.232 165.985 105.501 166.357 105.852C166.73 106.202 167.016 106.632 167.217 107.141C167.424 107.649 167.528 108.222 167.528 108.859C167.528 109.396 167.457 109.894 167.313 110.353C167.17 110.811 166.952 111.269 166.658 111.728C166.372 112.179 166.007 112.648 165.562 113.135C165.126 113.622 164.606 114.155 164.005 114.735L161.459 117.217H168.28V119Z" fill="black"/>
<path opacity="0.5" d="M233.012 114.735C233.012 115.351 232.886 115.931 232.636 116.476C232.385 117.013 232.009 117.485 231.508 117.894C231.007 118.295 230.376 118.613 229.617 118.85C228.858 119.079 227.974 119.193 226.964 119.193C226.405 119.193 225.904 119.175 225.46 119.14C225.016 119.104 224.601 119.057 224.214 119V117.324C224.658 117.403 225.127 117.464 225.621 117.507C226.115 117.55 226.62 117.571 227.136 117.571C227.838 117.571 228.436 117.51 228.93 117.389C229.431 117.26 229.839 117.077 230.154 116.841C230.469 116.604 230.699 116.318 230.842 115.981C230.985 115.645 231.057 115.265 231.057 114.843C231.057 114.456 230.971 114.119 230.799 113.833C230.627 113.547 230.383 113.307 230.068 113.113C229.76 112.92 229.388 112.777 228.951 112.684C228.521 112.583 228.049 112.533 227.533 112.533H225.933V110.997H227.555C227.977 110.997 228.36 110.943 228.704 110.836C229.055 110.721 229.352 110.56 229.596 110.353C229.846 110.145 230.036 109.891 230.165 109.59C230.301 109.282 230.369 108.935 230.369 108.548C230.369 107.796 230.14 107.248 229.682 106.904C229.223 106.561 228.55 106.389 227.662 106.389C227.189 106.389 226.702 106.435 226.201 106.528C225.7 106.621 225.163 106.761 224.59 106.947V105.314C224.833 105.229 225.091 105.153 225.363 105.089C225.643 105.017 225.918 104.96 226.19 104.917C226.47 104.867 226.745 104.831 227.018 104.81C227.29 104.781 227.551 104.767 227.802 104.767C228.547 104.767 229.202 104.849 229.768 105.014C230.333 105.171 230.806 105.4 231.186 105.701C231.565 106.002 231.852 106.367 232.045 106.797C232.238 107.227 232.335 107.71 232.335 108.247C232.335 109.049 232.127 109.722 231.712 110.267C231.304 110.811 230.742 111.244 230.025 111.566C230.391 111.624 230.749 111.738 231.1 111.91C231.458 112.082 231.776 112.304 232.056 112.576C232.342 112.841 232.571 113.156 232.743 113.521C232.922 113.887 233.012 114.291 233.012 114.735Z" fill="black"/>
<path opacity="0.5" d="M296.979 115.896H294.583V119H292.671V115.896H285.914V114.252L291.897 104.96H294.583V114.252H296.979V115.896ZM292.671 106.765L287.783 114.252H292.671V106.765Z" fill="#C2C2C2"/>
<path opacity="0.5" d="M359.926 114.51C359.926 115.204 359.775 115.838 359.475 116.411C359.174 116.984 358.758 117.478 358.229 117.894C357.706 118.302 357.086 118.62 356.37 118.85C355.654 119.079 354.881 119.193 354.05 119.193C353.842 119.193 353.617 119.186 353.373 119.172C353.137 119.165 352.9 119.15 352.664 119.129C352.428 119.115 352.195 119.097 351.966 119.075C351.744 119.054 351.543 119.029 351.364 119V117.303C351.751 117.396 352.191 117.464 352.686 117.507C353.187 117.55 353.692 117.571 354.2 117.571C354.773 117.571 355.289 117.503 355.747 117.367C356.205 117.231 356.596 117.038 356.918 116.787C357.24 116.529 357.487 116.221 357.659 115.863C357.831 115.498 357.917 115.09 357.917 114.639C357.917 113.765 357.602 113.131 356.972 112.737C356.349 112.336 355.45 112.136 354.275 112.136H351.611V104.96H359.174V106.593H353.373V110.535H354.598C355.271 110.535 355.926 110.596 356.563 110.718C357.201 110.84 357.767 111.054 358.261 111.362C358.762 111.663 359.163 112.071 359.464 112.587C359.772 113.095 359.926 113.736 359.926 114.51Z" fill="#C2C2C2"/>
<path opacity="0.5" d="M424.452 114.553C424.452 115.197 424.334 115.802 424.098 116.368C423.868 116.934 423.539 117.428 423.109 117.851C422.68 118.266 422.16 118.595 421.552 118.839C420.95 119.075 420.281 119.193 419.543 119.193C418.77 119.193 418.086 119.072 417.491 118.828C416.897 118.577 416.399 118.198 415.998 117.689C415.597 117.174 415.293 116.526 415.085 115.745C414.877 114.965 414.773 114.041 414.773 112.974C414.773 112.257 414.82 111.563 414.913 110.89C415.006 110.216 415.16 109.583 415.375 108.988C415.59 108.394 415.876 107.85 416.234 107.355C416.592 106.861 417.036 106.439 417.566 106.088C418.104 105.73 418.734 105.454 419.457 105.261C420.18 105.06 421.018 104.96 421.971 104.96H423.356V106.593H421.853C421.015 106.593 420.288 106.693 419.672 106.894C419.056 107.094 418.54 107.377 418.125 107.742C417.71 108.107 417.391 108.548 417.169 109.063C416.947 109.579 416.807 110.156 416.75 110.793L416.707 111.233C417.158 110.968 417.677 110.757 418.265 110.6C418.859 110.435 419.5 110.353 420.188 110.353C420.896 110.353 421.516 110.456 422.046 110.664C422.583 110.872 423.027 111.162 423.378 111.534C423.736 111.899 424.005 112.34 424.184 112.855C424.363 113.371 424.452 113.937 424.452 114.553ZM422.497 114.671C422.497 114.241 422.443 113.854 422.336 113.511C422.236 113.16 422.075 112.866 421.853 112.63C421.631 112.386 421.348 112.2 421.004 112.071C420.667 111.935 420.263 111.867 419.79 111.867C419.518 111.867 419.242 111.892 418.963 111.942C418.684 111.993 418.408 112.064 418.136 112.157C417.871 112.243 417.617 112.343 417.373 112.458C417.13 112.573 416.908 112.694 416.707 112.823C416.707 113.747 416.771 114.521 416.9 115.144C417.029 115.759 417.219 116.254 417.47 116.626C417.728 116.998 418.043 117.263 418.415 117.421C418.787 117.578 419.217 117.657 419.704 117.657C420.112 117.657 420.485 117.593 420.821 117.464C421.165 117.328 421.459 117.131 421.702 116.873C421.953 116.615 422.146 116.304 422.282 115.938C422.425 115.566 422.497 115.144 422.497 114.671Z" fill="#C2C2C2"/>
<path d="M490.253 79.9355C490.253 80.8145 490.092 81.6396 489.77 82.4111C489.457 83.1826 489.008 83.8564 488.422 84.4326C487.836 84.999 487.128 85.4482 486.298 85.7803C485.478 86.1025 484.564 86.2637 483.559 86.2637C482.504 86.2637 481.571 86.0977 480.761 85.7656C479.95 85.4238 479.271 84.9062 478.725 84.2129C478.178 83.5098 477.763 82.626 477.479 81.5615C477.196 80.4971 477.055 79.2373 477.055 77.7822C477.055 76.8057 477.118 75.8584 477.245 74.9404C477.372 74.0225 477.582 73.1582 477.875 72.3477C478.168 71.5371 478.559 70.7949 479.047 70.1211C479.535 69.4473 480.141 68.8711 480.863 68.3926C481.596 67.9043 482.455 67.5283 483.441 67.2646C484.428 66.9912 485.57 66.8545 486.869 66.8545H488.759V69.0811H486.708C485.565 69.0811 484.574 69.2178 483.734 69.4912C482.895 69.7646 482.191 70.1504 481.625 70.6484C481.059 71.1465 480.624 71.7471 480.321 72.4502C480.019 73.1533 479.828 73.9395 479.75 74.8086L479.691 75.4092C480.307 75.0479 481.015 74.7598 481.815 74.5449C482.626 74.3203 483.5 74.208 484.438 74.208C485.404 74.208 486.249 74.3496 486.972 74.6328C487.704 74.916 488.31 75.3115 488.788 75.8193C489.276 76.3174 489.643 76.918 489.887 77.6211C490.131 78.3242 490.253 79.0957 490.253 79.9355ZM487.587 80.0967C487.587 79.5107 487.514 78.9834 487.367 78.5146C487.23 78.0361 487.011 77.6357 486.708 77.3135C486.405 76.9814 486.02 76.7275 485.551 76.5518C485.092 76.3662 484.54 76.2734 483.896 76.2734C483.524 76.2734 483.148 76.3076 482.768 76.376C482.387 76.4443 482.011 76.542 481.64 76.6689C481.278 76.7861 480.932 76.9229 480.6 77.0791C480.268 77.2354 479.965 77.4014 479.691 77.5771C479.691 78.8369 479.779 79.8916 479.955 80.7412C480.131 81.5811 480.39 82.2549 480.731 82.7627C481.083 83.2705 481.513 83.6318 482.021 83.8467C482.528 84.0615 483.114 84.1689 483.778 84.1689C484.335 84.1689 484.843 84.0811 485.302 83.9053C485.771 83.7197 486.171 83.4512 486.503 83.0996C486.845 82.748 487.108 82.3232 487.294 81.8252C487.489 81.3174 487.587 80.7412 487.587 80.0967Z" fill="#DADADA"/>
<path d="M553.916 69.2275L545.889 86H542.974L551.309 69.2275H540.967V66.8545H553.916V69.2275Z" fill="#DADADA"/>
<path opacity="0.5" d="M488.205 106.7L482.318 119H480.181L486.293 106.7H478.709V104.96H488.205V106.7Z" fill="#C2C2C2"/>
<path opacity="0.5" d="M552.28 115.477C552.28 116.071 552.159 116.601 551.915 117.066C551.672 117.525 551.331 117.911 550.895 118.227C550.458 118.542 549.942 118.782 549.348 118.946C548.753 119.111 548.109 119.193 547.414 119.193C546.648 119.193 545.971 119.107 545.384 118.936C544.804 118.764 544.317 118.524 543.923 118.216C543.529 117.908 543.232 117.543 543.031 117.12C542.831 116.698 542.73 116.232 542.73 115.724C542.73 114.864 542.97 114.123 543.45 113.5C543.93 112.877 544.671 112.311 545.674 111.803C544.757 111.337 544.088 110.822 543.665 110.256C543.243 109.683 543.031 109.028 543.031 108.29C543.031 107.839 543.124 107.402 543.311 106.979C543.497 106.557 543.776 106.181 544.148 105.852C544.528 105.522 545.001 105.261 545.566 105.067C546.132 104.867 546.798 104.767 547.564 104.767C548.288 104.767 548.922 104.845 549.466 105.003C550.017 105.153 550.479 105.372 550.852 105.658C551.224 105.945 551.503 106.292 551.689 106.7C551.876 107.108 551.969 107.563 551.969 108.064C551.969 108.881 551.74 109.576 551.281 110.148C550.83 110.721 550.186 111.223 549.348 111.652C549.763 111.86 550.15 112.089 550.508 112.34C550.866 112.59 551.177 112.87 551.442 113.178C551.707 113.486 551.911 113.829 552.055 114.209C552.205 114.589 552.28 115.011 552.28 115.477ZM550.057 108.215C550.057 107.577 549.831 107.105 549.38 106.797C548.936 106.482 548.309 106.324 547.5 106.324C546.698 106.324 546.071 106.478 545.62 106.786C545.176 107.094 544.954 107.556 544.954 108.172C544.954 108.451 545.008 108.709 545.115 108.945C545.223 109.182 545.387 109.404 545.609 109.611C545.839 109.819 546.121 110.023 546.458 110.224C546.795 110.424 547.196 110.628 547.661 110.836C548.47 110.456 549.072 110.062 549.466 109.654C549.86 109.239 550.057 108.759 550.057 108.215ZM550.25 115.616C550.25 115.351 550.207 115.093 550.121 114.843C550.035 114.592 549.881 114.345 549.659 114.102C549.437 113.858 549.14 113.615 548.768 113.371C548.395 113.128 547.923 112.877 547.35 112.619C546.863 112.855 546.451 113.092 546.114 113.328C545.785 113.557 545.516 113.794 545.309 114.037C545.108 114.273 544.965 114.521 544.879 114.778C544.793 115.036 544.75 115.308 544.75 115.595C544.75 115.917 544.818 116.203 544.954 116.454C545.097 116.698 545.291 116.905 545.534 117.077C545.778 117.249 546.068 117.378 546.404 117.464C546.741 117.55 547.106 117.593 547.5 117.593C547.88 117.593 548.238 117.553 548.574 117.475C548.911 117.396 549.201 117.278 549.444 117.12C549.695 116.955 549.892 116.751 550.035 116.508C550.178 116.257 550.25 115.96 550.25 115.616Z" fill="#C2C2C2"/>
<path d="M269 78L567 78" stroke="#DADADA"/>
<path d="M15 78L124 78" stroke="#DADADA"/>
<path d="M106.91 10.5977H104.01V9.20117H108.629V21.584H111.549V23H103.688V21.584H106.91V10.5977ZM122.848 17.5801C122.848 17.821 122.844 18.0228 122.838 18.1855C122.831 18.3483 122.822 18.5013 122.809 18.6445H115.924C115.924 19.6471 116.204 20.4186 116.764 20.959C117.324 21.4928 118.131 21.7598 119.186 21.7598C119.472 21.7598 119.758 21.75 120.045 21.7305C120.331 21.7044 120.608 21.6719 120.875 21.6328C121.142 21.5938 121.396 21.5514 121.637 21.5059C121.884 21.4538 122.112 21.3984 122.32 21.3398V22.7363C121.858 22.8665 121.334 22.9707 120.748 23.0488C120.169 23.1335 119.566 23.1758 118.941 23.1758C118.102 23.1758 117.379 23.0618 116.773 22.834C116.168 22.6061 115.67 22.2773 115.279 21.8477C114.895 21.4115 114.609 20.8809 114.42 20.2559C114.238 19.6243 114.146 18.9115 114.146 18.1172C114.146 17.4271 114.244 16.776 114.439 16.1641C114.641 15.5456 114.931 15.0052 115.309 14.543C115.693 14.0742 116.161 13.7031 116.715 13.4297C117.268 13.1562 117.896 13.0195 118.6 13.0195C119.283 13.0195 119.889 13.127 120.416 13.3418C120.943 13.5566 121.386 13.8626 121.744 14.2598C122.109 14.6504 122.382 15.1289 122.564 15.6953C122.753 16.2552 122.848 16.8835 122.848 17.5801ZM121.08 17.3359C121.1 16.8997 121.057 16.5026 120.953 16.1445C120.849 15.7799 120.686 15.4674 120.465 15.207C120.25 14.9466 119.98 14.7448 119.654 14.6016C119.329 14.4518 118.951 14.377 118.521 14.377C118.15 14.377 117.812 14.4486 117.506 14.5918C117.2 14.735 116.936 14.9368 116.715 15.1973C116.493 15.4577 116.314 15.7702 116.178 16.1348C116.041 16.4993 115.956 16.8997 115.924 17.3359H121.08ZM134.264 10.7832C133.372 10.5944 132.604 10.5 131.959 10.5C130.429 10.5 129.664 11.3008 129.664 12.9023V14.6211H133.961V16.0371H129.664V23H127.936V16.0371H124.781V14.6211H127.936V13C127.936 10.3893 129.296 9.08398 132.018 9.08398C132.695 9.08398 133.443 9.16211 134.264 9.31836V10.7832ZM144.459 22.8633C144.075 22.9609 143.678 23.0293 143.268 23.0684C142.857 23.1139 142.441 23.1367 142.018 23.1367C140.787 23.1367 139.869 22.86 139.264 22.3066C138.658 21.7467 138.355 20.8906 138.355 19.7383V14.6211H135.611V13.1953H138.355V10.5L140.055 10.0605V13.1953H144.459V14.6211H140.055V19.6016C140.055 20.3047 140.24 20.832 140.611 21.1836C140.989 21.5286 141.542 21.7012 142.271 21.7012C142.584 21.7012 142.926 21.6784 143.297 21.6328C143.668 21.5807 144.055 21.5026 144.459 21.3984V22.8633Z" fill="#666666"/>
<path d="M223.973 13.1953H225.525L225.574 15.002C226.154 14.3053 226.723 13.8008 227.283 13.4883C227.85 13.1758 228.419 13.0195 228.992 13.0195C230.008 13.0195 230.776 13.3483 231.297 14.0059C231.824 14.6634 232.068 15.64 232.029 16.9355H230.311C230.33 16.0762 230.203 15.4544 229.93 15.0703C229.663 14.6797 229.269 14.4844 228.748 14.4844C228.52 14.4844 228.289 14.5267 228.055 14.6113C227.827 14.6895 227.589 14.8197 227.342 15.002C227.101 15.1777 226.844 15.4056 226.57 15.6855C226.297 15.9655 226.004 16.304 225.691 16.7012V23H223.973V13.1953ZM237.908 14.6016H235.008V13.1953H239.627V21.584H242.547V23H234.686V21.584H237.908V14.6016ZM238.504 9.08398C238.693 9.08398 238.868 9.11979 239.031 9.19141C239.194 9.25651 239.334 9.35091 239.451 9.47461C239.575 9.59831 239.669 9.74154 239.734 9.9043C239.806 10.0605 239.842 10.2331 239.842 10.4219C239.842 10.6042 239.806 10.7767 239.734 10.9395C239.669 11.1022 239.575 11.2454 239.451 11.3691C239.334 11.4928 239.194 11.5905 239.031 11.6621C238.868 11.7272 238.693 11.7598 238.504 11.7598C238.315 11.7598 238.139 11.7272 237.977 11.6621C237.814 11.5905 237.671 11.4928 237.547 11.3691C237.43 11.2454 237.335 11.1022 237.264 10.9395C237.199 10.7767 237.166 10.6042 237.166 10.4219C237.166 10.2331 237.199 10.0605 237.264 9.9043C237.335 9.74154 237.43 9.59831 237.547 9.47461C237.671 9.35091 237.814 9.25651 237.977 9.19141C238.139 9.11979 238.315 9.08398 238.504 9.08398ZM252.625 14.582C252.807 14.8099 252.947 15.0768 253.045 15.3828C253.149 15.6823 253.201 16.0078 253.201 16.3594C253.201 16.8672 253.107 17.3327 252.918 17.7559C252.736 18.1725 252.475 18.5306 252.137 18.8301C251.798 19.1296 251.391 19.3639 250.916 19.5332C250.447 19.696 249.93 19.7773 249.363 19.7773C248.953 19.7773 248.569 19.735 248.211 19.6504C247.853 19.5592 247.57 19.4486 247.361 19.3184C247.238 19.5007 247.133 19.6732 247.049 19.8359C246.964 19.9987 246.922 20.181 246.922 20.3828C246.922 20.6302 247.039 20.8353 247.273 20.998C247.514 21.1608 247.83 21.2487 248.221 21.2617L250.799 21.3594C251.287 21.3724 251.736 21.4342 252.146 21.5449C252.563 21.6556 252.918 21.8151 253.211 22.0234C253.51 22.2318 253.742 22.4889 253.904 22.7949C254.074 23.1009 254.158 23.4557 254.158 23.8594C254.158 24.2956 254.064 24.709 253.875 25.0996C253.686 25.4902 253.393 25.832 252.996 26.125C252.605 26.4245 252.107 26.6621 251.502 26.8379C250.896 27.0137 250.177 27.1016 249.344 27.1016C248.549 27.1016 247.872 27.0365 247.312 26.9062C246.759 26.7826 246.303 26.6068 245.945 26.3789C245.587 26.1576 245.327 25.8906 245.164 25.5781C245.001 25.2721 244.92 24.9336 244.92 24.5625C244.92 24.0872 245.031 23.6706 245.252 23.3125C245.473 22.9544 245.815 22.6094 246.277 22.2773C246.108 22.1992 245.962 22.1016 245.838 21.9844C245.714 21.8672 245.613 21.7402 245.535 21.6035C245.457 21.4603 245.398 21.3105 245.359 21.1543C245.32 20.998 245.301 20.8451 245.301 20.6953C245.301 20.2721 245.398 19.8848 245.594 19.5332C245.796 19.1816 246.033 18.8496 246.307 18.5371C246.183 18.3874 246.072 18.2409 245.975 18.0977C245.883 17.9544 245.802 17.8014 245.73 17.6387C245.665 17.4694 245.613 17.2904 245.574 17.1016C245.542 16.9062 245.525 16.6849 245.525 16.4375C245.525 15.9297 245.617 15.4674 245.799 15.0508C245.988 14.6276 246.248 14.2663 246.58 13.9668C246.919 13.6673 247.322 13.4362 247.791 13.2734C248.266 13.1042 248.79 13.0195 249.363 13.0195C249.604 13.0195 249.835 13.0358 250.057 13.0684C250.278 13.1009 250.473 13.1432 250.643 13.1953H254.197V14.582H252.625ZM246.727 24.416C246.727 24.8783 246.967 25.2135 247.449 25.4219C247.931 25.6367 248.602 25.7441 249.461 25.7441C250.001 25.7441 250.454 25.6953 250.818 25.5977C251.189 25.5 251.486 25.3698 251.707 25.207C251.935 25.0508 252.098 24.8685 252.195 24.6602C252.293 24.4583 252.342 24.25 252.342 24.0352C252.342 23.638 252.179 23.3451 251.854 23.1562C251.528 22.9674 251.03 22.8568 250.359 22.8242L247.801 22.7363C247.586 22.8796 247.407 23.0195 247.264 23.1562C247.127 23.293 247.02 23.4297 246.941 23.5664C246.863 23.7096 246.808 23.8496 246.775 23.9863C246.743 24.1296 246.727 24.2728 246.727 24.416ZM247.244 16.3984C247.244 16.7109 247.296 16.9974 247.4 17.2578C247.505 17.5182 247.651 17.7396 247.84 17.9219C248.029 18.1042 248.25 18.2474 248.504 18.3516C248.764 18.4492 249.051 18.498 249.363 18.498C249.702 18.498 250.001 18.4427 250.262 18.332C250.529 18.2148 250.75 18.0586 250.926 17.8633C251.108 17.668 251.245 17.4434 251.336 17.1895C251.434 16.9355 251.482 16.6719 251.482 16.3984C251.482 16.0859 251.43 15.7995 251.326 15.5391C251.222 15.2786 251.076 15.0573 250.887 14.875C250.698 14.6927 250.473 14.5527 250.213 14.4551C249.959 14.3509 249.676 14.2988 249.363 14.2988C249.025 14.2988 248.722 14.3574 248.455 14.4746C248.195 14.5918 247.973 14.748 247.791 14.9434C247.615 15.1322 247.479 15.3535 247.381 15.6074C247.29 15.8613 247.244 16.125 247.244 16.3984ZM264.441 23H262.742V16.7402C262.742 15.985 262.599 15.4219 262.312 15.0508C262.033 14.6732 261.629 14.4844 261.102 14.4844C260.874 14.4844 260.659 14.5169 260.457 14.582C260.262 14.6406 260.057 14.748 259.842 14.9043C259.627 15.054 259.393 15.2591 259.139 15.5195C258.885 15.7799 258.592 16.1055 258.26 16.4961V23H256.561V9.20117H258.26V13.1953L258.201 14.7383C258.468 14.4193 258.729 14.1523 258.982 13.9375C259.243 13.7161 259.5 13.5371 259.754 13.4004C260.014 13.2637 260.278 13.166 260.545 13.1074C260.812 13.0488 261.089 13.0195 261.375 13.0195C262.352 13.0195 263.107 13.319 263.641 13.918C264.174 14.5104 264.441 15.4056 264.441 16.6035V23ZM275.457 22.8633C275.073 22.9609 274.676 23.0293 274.266 23.0684C273.855 23.1139 273.439 23.1367 273.016 23.1367C271.785 23.1367 270.867 22.86 270.262 22.3066C269.656 21.7467 269.354 20.8906 269.354 19.7383V14.6211H266.609V13.1953H269.354V10.5L271.053 10.0605V13.1953H275.457V14.6211H271.053V19.6016C271.053 20.3047 271.238 20.832 271.609 21.1836C271.987 21.5286 272.54 21.7012 273.27 21.7012C273.582 21.7012 273.924 21.6784 274.295 21.6328C274.666 21.5807 275.053 21.5026 275.457 21.3984V22.8633Z" fill="#666666"/>
<path d="M152.746 59.9671C153.28 60.1076 153.827 59.7886 153.967 59.2545L156.258 50.5508C156.398 50.0167 156.079 49.4698 155.545 49.3293C155.011 49.1887 154.464 49.5077 154.323 50.0418L152.287 57.7784L144.551 55.7425C144.017 55.6019 143.47 55.921 143.329 56.4551C143.189 56.9892 143.508 57.5361 144.042 57.6766L152.746 59.9671ZM134.636 29.5039L152.136 59.5039L153.864 58.4961L136.364 28.4961L134.636 29.5039Z" fill="#666666"/>
<path d="M227.754 59.9671C227.22 60.1076 226.673 59.7886 226.533 59.2545L224.242 50.5508C224.102 50.0167 224.421 49.4698 224.955 49.3293C225.489 49.1887 226.036 49.5077 226.177 50.0418L228.213 57.7784L235.949 55.7425C236.483 55.6019 237.03 55.921 237.171 56.4551C237.311 56.9892 236.992 57.5361 236.458 57.6766L227.754 59.9671ZM245.864 29.5039L228.364 59.5039L226.636 58.4961L244.136 28.4961L245.864 29.5039Z" fill="#666666"/>
<rect x="90" y="1" width="69" height="28" rx="6" stroke="#666666" stroke-width="2"/>
<path d="M168.538 59.7747C168.69 60.3058 169.244 60.6132 169.775 60.4615L178.428 57.989C178.959 57.8373 179.267 57.2838 179.115 56.7528C178.964 56.2218 178.41 55.9143 177.879 56.066L170.187 58.2638L167.989 50.5716C167.837 50.0405 167.284 49.733 166.753 49.8848C166.222 50.0365 165.914 50.59 166.066 51.121L168.538 59.7747ZM186.126 27.5144L168.626 59.0144L170.374 59.9856L187.874 28.4856L186.126 27.5144Z" fill="#00B2FF"/>
<rect x="215" y="1" width="69" height="28" rx="6" stroke="#666666" stroke-width="2"/>
<rect x="162" y="1" width="50" height="28" rx="6" fill="#F2FBFF" stroke="#00B2FF" stroke-width="2"/>
<path d="M180.061 23V15.959C180.061 15.653 180.048 15.4023 180.021 15.207C180.002 15.0117 179.966 14.8587 179.914 14.748C179.868 14.6309 179.807 14.5495 179.729 14.5039C179.657 14.4583 179.566 14.4355 179.455 14.4355C179.325 14.4355 179.204 14.4746 179.094 14.5527C178.983 14.6309 178.863 14.7578 178.732 14.9336C178.609 15.1094 178.469 15.3438 178.312 15.6367C178.163 15.9232 177.984 16.278 177.775 16.7012V23H176.223V16.1445C176.223 15.7865 176.21 15.4967 176.184 15.2754C176.164 15.054 176.128 14.8815 176.076 14.7578C176.031 14.6341 175.969 14.5495 175.891 14.5039C175.812 14.4583 175.718 14.4355 175.607 14.4355C175.49 14.4355 175.38 14.4681 175.275 14.5332C175.171 14.5983 175.054 14.7155 174.924 14.8848C174.8 15.054 174.66 15.2852 174.504 15.5781C174.348 15.8711 174.162 16.2454 173.947 16.7012V23H172.385V13.1953H173.684L173.762 15.0605C173.931 14.6895 174.094 14.3737 174.25 14.1133C174.413 13.8529 174.579 13.6445 174.748 13.4883C174.917 13.3255 175.096 13.2083 175.285 13.1367C175.48 13.0586 175.695 13.0195 175.93 13.0195C176.457 13.0195 176.857 13.1921 177.131 13.5371C177.404 13.8822 177.541 14.416 177.541 15.1387C177.697 14.8001 177.85 14.5007 178 14.2402C178.15 13.9733 178.309 13.752 178.479 13.5762C178.654 13.3939 178.846 13.2572 179.055 13.166C179.263 13.0684 179.504 13.0195 179.777 13.0195C181.008 13.0195 181.623 13.9668 181.623 15.8613V23H180.061ZM187.404 14.6016H184.504V13.1953H189.123V21.584H192.043V23H184.182V21.584H187.404V14.6016ZM188 9.08398C188.189 9.08398 188.365 9.11979 188.527 9.19141C188.69 9.25651 188.83 9.35091 188.947 9.47461C189.071 9.59831 189.165 9.74154 189.23 9.9043C189.302 10.0605 189.338 10.2331 189.338 10.4219C189.338 10.6042 189.302 10.7767 189.23 10.9395C189.165 11.1022 189.071 11.2454 188.947 11.3691C188.83 11.4928 188.69 11.5905 188.527 11.6621C188.365 11.7272 188.189 11.7598 188 11.7598C187.811 11.7598 187.635 11.7272 187.473 11.6621C187.31 11.5905 187.167 11.4928 187.043 11.3691C186.926 11.2454 186.831 11.1022 186.76 10.9395C186.695 10.7767 186.662 10.6042 186.662 10.4219C186.662 10.2331 186.695 10.0605 186.76 9.9043C186.831 9.74154 186.926 9.59831 187.043 9.47461C187.167 9.35091 187.31 9.25651 187.473 9.19141C187.635 9.11979 187.811 9.08398 188 9.08398ZM194.562 18.3027C194.562 17.4694 194.676 16.7305 194.904 16.0859C195.132 15.4349 195.454 14.888 195.871 14.4453C196.294 13.9961 196.799 13.6576 197.385 13.4297C197.977 13.1953 198.635 13.0781 199.357 13.0781C199.67 13.0781 199.976 13.0977 200.275 13.1367C200.581 13.1758 200.881 13.2376 201.174 13.3223V9.20117H202.883V23H201.359L201.301 21.1445C200.826 21.8346 200.311 22.3457 199.758 22.6777C199.204 23.0098 198.605 23.1758 197.961 23.1758C197.401 23.1758 196.906 23.0586 196.477 22.8242C196.053 22.5898 195.699 22.2611 195.412 21.8379C195.132 21.4082 194.921 20.8939 194.777 20.2949C194.634 19.696 194.562 19.0319 194.562 18.3027ZM196.301 18.1953C196.301 19.3802 196.473 20.2656 196.818 20.8516C197.17 21.431 197.665 21.7207 198.303 21.7207C198.732 21.7207 199.185 21.5286 199.66 21.1445C200.142 20.7604 200.646 20.1908 201.174 19.4355V14.8848C200.894 14.7546 200.585 14.6569 200.246 14.5918C199.908 14.5202 199.572 14.4844 199.24 14.4844C198.316 14.4844 197.593 14.7839 197.072 15.3828C196.558 15.9818 196.301 16.9193 196.301 18.1953Z" fill="#00B2FF"/>
</g>
<defs>
<clipPath id="clip0_6264_2383">
<rect width="584" height="119" fill="white"/>
</clipPath>
</defs>
</svg>
