<svg width="123" height="122" viewBox="0 0 123 122" fill="none" xmlns="http://www.w3.org/2000/svg">
<g clip-path="url(#clip0_1503_1053)">
<path d="M120.209 122H0L123 0V119.209C123 120.751 121.751 122 120.209 122Z" fill="#14BB57"/>
<path d="M120.209 122H0L123 0V119.209C123 120.751 121.751 122 120.209 122Z" fill="url(#paint0_linear_1503_1053)"/>
<path d="M1.69922 120.254L123 0.300781C112.255 3.86324 100.938 5.37802 89.6343 4.7665L24.1375 1.22305C14.8754 0.721961 7.09036 8.09722 7.09036 17.3729V85.8791C7.09036 95.2203 5.87648 104.522 3.47921 113.55L1.69922 120.254Z" fill="url(#paint1_linear_1503_1053)"/>
<path d="M72.1387 39.7441L70.5962 32.5838V18.5814C70.5962 15.4989 68.0973 13 65.0148 13H6.58146C3.49895 13 1.00008 15.4989 1.00008 18.5814V31.0415C1.00008 34.124 3.49895 36.6229 6.58147 36.6229H65.7759L72.1387 39.7441Z" fill="black"/>
<path d="M13.9489 27.124H9.84686L9.14686 29H7.18686L11.1489 19.34H12.6469L16.6089 29H14.6489L13.9489 27.124ZM13.3749 25.598L11.8909 21.664L10.4209 25.598H13.3749ZM20.3142 29.084C19.3248 29.084 18.5548 28.8833 18.0042 28.482C17.4535 28.0713 17.1782 27.4973 17.1782 26.76V26.718H18.8022V26.746C18.8022 27.0353 18.9375 27.264 19.2082 27.432C19.4788 27.6 19.8802 27.684 20.4122 27.684C20.9068 27.684 21.2802 27.614 21.5322 27.474C21.7935 27.334 21.9242 27.1287 21.9242 26.858C21.9242 26.634 21.8308 26.4613 21.6442 26.34C21.4668 26.2187 21.1728 26.1347 20.7622 26.088L19.6842 25.962C18.8628 25.8593 18.2562 25.6447 17.8642 25.318C17.4815 24.982 17.2902 24.506 17.2902 23.89C17.2902 23.1713 17.5608 22.616 18.1022 22.224C18.6435 21.832 19.3855 21.636 20.3282 21.636C21.2988 21.636 22.0595 21.832 22.6102 22.224C23.1608 22.616 23.4362 23.1573 23.4362 23.848V23.904H21.8262V23.862C21.8262 23.582 21.7002 23.3673 21.4482 23.218C21.1962 23.0687 20.8182 22.994 20.3142 22.994C19.8382 22.994 19.4835 23.064 19.2502 23.204C19.0262 23.3347 18.9142 23.526 18.9142 23.778C18.9142 23.9833 18.9935 24.1467 19.1522 24.268C19.3108 24.3893 19.5768 24.4687 19.9502 24.506L21.1122 24.646C21.9522 24.7393 22.5728 24.9633 22.9742 25.318C23.3755 25.6633 23.5762 26.1393 23.5762 26.746C23.5762 27.502 23.2822 28.0807 22.6942 28.482C22.1155 28.8833 21.3222 29.084 20.3142 29.084ZM27.5573 25.738L26.5213 26.746V29H24.7853V19.34H26.5213V24.8L29.4753 21.72H31.7013L28.7753 24.562L31.9113 29H29.7133L27.5573 25.738ZM42.1266 27.124H38.0246L37.3246 29H35.3646L39.3266 19.34H40.8246L44.7866 29H42.8266L42.1266 27.124ZM41.5526 25.598L40.0686 21.664L38.5986 25.598H41.5526ZM48.0159 29C47.1946 29 46.5832 28.8087 46.1819 28.426C45.7899 28.034 45.5939 27.4413 45.5939 26.648V19.34H47.3299V26.536C47.3299 26.8907 47.3999 27.1427 47.5399 27.292C47.6892 27.432 47.9506 27.502 48.3239 27.502H48.9819V29H48.0159ZM51.4695 25.836V25.864C51.4695 27.0307 52.0668 27.614 53.2615 27.614C53.6628 27.614 53.9895 27.5393 54.2415 27.39C54.5028 27.2407 54.6522 27.0307 54.6895 26.76L54.7035 26.718H56.3975V26.802C56.3508 27.502 56.0382 28.0667 55.4595 28.496C54.8902 28.916 54.1342 29.126 53.1915 29.126C52.1182 29.126 51.2735 28.832 50.6575 28.244C50.0508 27.656 49.7475 26.7973 49.7475 25.668V25.038C49.7475 23.9273 50.0462 23.078 50.6435 22.49C51.2408 21.8927 52.0622 21.594 53.1075 21.594C54.1528 21.594 54.9742 21.888 55.5715 22.476C56.1688 23.064 56.4675 23.904 56.4675 24.996V25.836H51.4695ZM53.1075 23.078C52.0808 23.078 51.5348 23.6007 51.4695 24.646H54.7315V24.548C54.7315 24.0627 54.5822 23.6987 54.2835 23.456C53.9942 23.204 53.6022 23.078 53.1075 23.078ZM61.8577 29L60.2197 26.564L58.7077 29H56.8037L59.3237 25.248L56.9437 21.72H58.8477L60.3317 23.932L61.7177 21.72H63.6077L61.1857 25.206L63.7477 29H61.8577Z" fill="white"/>
<mask id="path-5-outside-1_1503_1053" maskUnits="userSpaceOnUse" x="40.6016" y="33.0002" width="80" height="89" fill="black">
<rect fill="white" x="40.6016" y="33.0002" width="80" height="89"/>
<path d="M83.0922 35.0002C94.3626 35.0002 103.499 44.137 103.499 55.4075V74.5413C105.126 75.4425 106.562 76.7519 107.642 78.4436L118.649 95.6907C121.035 99.4298 117.322 104.067 113.152 102.556L110.586 101.626L112.045 103.169C113.945 105.179 112.507 108.486 109.742 108.466L94.6049 108.358V116.628C94.6049 118.651 92.9647 120.291 90.9418 120.291C88.919 120.291 87.2797 118.651 87.2797 116.628V108.306L82.3676 108.272C82.3083 108.271 82.2511 108.265 82.1957 108.256H81.5228V116.628C81.5228 118.651 79.8826 120.291 77.8597 120.291C75.8369 120.291 74.1976 118.651 74.1976 116.628V108.256H73.1508C67.3711 108.256 62.686 103.571 62.6859 97.7913V95.719C59.4017 95.3046 56.3015 93.4982 54.3578 90.4524L43.351 73.2053C40.9649 69.4662 44.6776 64.8294 48.848 66.3401L62.6859 71.3528V67.4426H57.2914C57.0916 67.4424 56.9302 67.2801 56.9301 67.0803C56.9301 63.2434 59.3167 59.9661 62.6859 58.6467V55.4075C62.6859 44.1371 71.8218 35.0004 83.0922 35.0002Z"/>
</mask>
<path d="M83.0922 35.0002C94.3626 35.0002 103.499 44.137 103.499 55.4075V74.5413C105.126 75.4425 106.562 76.7519 107.642 78.4436L118.649 95.6907C121.035 99.4298 117.322 104.067 113.152 102.556L110.586 101.626L112.045 103.169C113.945 105.179 112.507 108.486 109.742 108.466L94.6049 108.358V116.628C94.6049 118.651 92.9647 120.291 90.9418 120.291C88.919 120.291 87.2797 118.651 87.2797 116.628V108.306L82.3676 108.272C82.3083 108.271 82.2511 108.265 82.1957 108.256H81.5228V116.628C81.5228 118.651 79.8826 120.291 77.8597 120.291C75.8369 120.291 74.1976 118.651 74.1976 116.628V108.256H73.1508C67.3711 108.256 62.686 103.571 62.6859 97.7913V95.719C59.4017 95.3046 56.3015 93.4982 54.3578 90.4524L43.351 73.2053C40.9649 69.4662 44.6776 64.8294 48.848 66.3401L62.6859 71.3528V67.4426H57.2914C57.0916 67.4424 56.9302 67.2801 56.9301 67.0803C56.9301 63.2434 59.3167 59.9661 62.6859 58.6467V55.4075C62.6859 44.1371 71.8218 35.0004 83.0922 35.0002Z" fill="#008F38"/>
<path d="M83.0922 35.0002V33.9537H83.0922L83.0922 35.0002ZM103.499 74.5413H102.453V75.1578L102.992 75.4566L103.499 74.5413ZM107.642 78.4436L108.524 77.8806V77.8806L107.642 78.4436ZM118.649 95.6907L119.531 95.1277L119.531 95.1277L118.649 95.6907ZM113.152 102.556L112.795 103.54L112.795 103.54L113.152 102.556ZM110.586 101.626L110.943 100.642L109.826 102.345L110.586 101.626ZM112.045 103.169L112.806 102.45L112.806 102.45L112.045 103.169ZM109.742 108.466L109.734 109.513H109.734L109.742 108.466ZM94.6049 108.358L94.6124 107.311L93.5583 107.304V108.358H94.6049ZM90.9418 120.291L90.9417 121.338H90.9418V120.291ZM87.2797 108.306H88.3262V107.267L87.2869 107.259L87.2797 108.306ZM82.3676 108.272L82.3601 109.318H82.3603L82.3676 108.272ZM82.1957 108.256L82.3678 107.224L82.2823 107.21H82.1957V108.256ZM81.5228 108.256V107.21H80.4763V108.256H81.5228ZM77.8597 120.291L77.8597 121.338H77.8597V120.291ZM74.1976 108.256H75.2441V107.21H74.1976V108.256ZM62.6859 97.7913H61.6394V97.7913L62.6859 97.7913ZM62.6859 95.719H63.7324V94.7962L62.8169 94.6807L62.6859 95.719ZM54.3578 90.4524L55.24 89.8894L55.24 89.8894L54.3578 90.4524ZM43.351 73.2053L42.4688 73.7683L42.4688 73.7683L43.351 73.2053ZM48.848 66.3401L48.4916 67.324L48.848 66.3401ZM62.6859 71.3528L62.3295 72.3367L63.7324 72.8449V71.3528H62.6859ZM62.6859 67.4426H63.7324V66.3961H62.6859V67.4426ZM57.2914 67.4426L57.2901 68.4891H57.2914V67.4426ZM56.9301 67.0803H55.8835V67.0811L56.9301 67.0803ZM62.6859 58.6467L63.0675 59.6212L63.7324 59.3608V58.6467H62.6859ZM83.0922 35.0002V36.0468C93.7847 36.0468 102.453 44.715 102.453 55.4075H103.499H104.546C104.546 43.559 94.9406 33.9537 83.0922 33.9537V35.0002ZM103.499 55.4075H102.453V74.5413H103.499H104.546V55.4075H103.499ZM103.499 74.5413L102.992 75.4566C104.47 76.2755 105.776 77.4654 106.76 79.0066L107.642 78.4436L108.524 77.8806C107.349 76.0385 105.782 74.6094 104.007 73.6259L103.499 74.5413ZM107.642 78.4436L106.76 79.0066L117.767 96.2537L118.649 95.6907L119.531 95.1277L108.524 77.8806L107.642 78.4436ZM118.649 95.6907L117.767 96.2536C119.615 99.1502 116.739 102.742 113.508 101.572L113.152 102.556L112.795 103.54C117.905 105.391 122.455 99.7094 119.531 95.1277L118.649 95.6907ZM113.152 102.556L113.508 101.572L110.943 100.642L110.586 101.626L110.23 102.61L112.795 103.54L113.152 102.556ZM110.586 101.626L109.826 102.345L111.285 103.888L112.045 103.169L112.806 102.45L111.347 100.907L110.586 101.626ZM112.045 103.169L111.285 103.888C112.551 105.228 111.593 107.433 109.749 107.42L109.742 108.466L109.734 109.513C113.421 109.539 115.339 105.129 112.806 102.45L112.045 103.169ZM109.742 108.466L109.749 107.42L94.6124 107.311L94.6049 108.358L94.5974 109.404L109.734 109.513L109.742 108.466ZM94.6049 108.358H93.5583V116.628H94.6049H95.6514V108.358H94.6049ZM94.6049 116.628H93.5583C93.5583 118.073 92.3867 119.245 90.9418 119.245V120.291V121.338C93.5426 121.338 95.6514 119.229 95.6514 116.628H94.6049ZM90.9418 120.291L90.9418 119.245C89.4973 119.245 88.3262 118.073 88.3262 116.628H87.2797H86.2332C86.2332 119.229 88.3407 121.338 90.9417 121.338L90.9418 120.291ZM87.2797 116.628H88.3262V108.306H87.2797H86.2332V116.628H87.2797ZM87.2797 108.306L87.2869 107.259L82.3748 107.225L82.3676 108.272L82.3603 109.318L87.2724 109.352L87.2797 108.306ZM82.3676 108.272L82.3751 107.225C82.3813 107.225 82.38 107.226 82.3678 107.224L82.1957 108.256L82.0236 109.288C82.1222 109.305 82.2354 109.317 82.3601 109.318L82.3676 108.272ZM82.1957 108.256V107.21H81.5228V108.256V109.303H82.1957V108.256ZM81.5228 108.256H80.4763V116.628H81.5228H82.5693V108.256H81.5228ZM81.5228 116.628H80.4763C80.4763 118.073 79.3047 119.245 77.8597 119.245V120.291V121.338C80.4606 121.338 82.5693 119.229 82.5693 116.628H81.5228ZM77.8597 120.291L77.8598 119.245C76.4152 119.245 75.2441 118.073 75.2441 116.628H74.1976H73.1511C73.1511 119.229 75.2586 121.338 77.8597 121.338L77.8597 120.291ZM74.1976 116.628H75.2441V108.256H74.1976H73.1511V116.628H74.1976ZM74.1976 108.256V107.21H73.1508V108.256V109.303H74.1976V108.256ZM73.1508 108.256V107.21C67.949 107.21 63.7325 102.993 63.7324 97.7913L62.6859 97.7913L61.6394 97.7913C61.6394 104.149 66.7931 109.303 73.1508 109.303V108.256ZM62.6859 97.7913H63.7324V95.719H62.6859H61.6394V97.7913H62.6859ZM62.6859 95.719L62.8169 94.6807C59.8259 94.3033 57.0082 92.6603 55.24 89.8894L54.3578 90.4524L53.4756 91.0154C55.5948 94.3362 58.9775 96.3059 62.5549 96.7573L62.6859 95.719ZM54.3578 90.4524L55.24 89.8894L44.2331 72.6423L43.351 73.2053L42.4688 73.7683L53.4756 91.0154L54.3578 90.4524ZM43.351 73.2053L44.2331 72.6424C42.3848 69.7458 45.261 66.1538 48.4916 67.324L48.848 66.3401L49.2045 65.3561C44.0943 63.505 39.5451 69.1867 42.4688 73.7683L43.351 73.2053ZM48.848 66.3401L48.4916 67.324L62.3295 72.3367L62.6859 71.3528L63.0423 70.3688L49.2045 65.3561L48.848 66.3401ZM62.6859 71.3528H63.7324V67.4426H62.6859H61.6394V71.3528H62.6859ZM62.6859 67.4426V66.3961H57.2914V67.4426V68.4891H62.6859V67.4426ZM57.2914 67.4426L57.2926 66.3961C57.6731 66.3966 57.9763 66.7052 57.9766 67.0795L56.9301 67.0803L55.8835 67.0811C55.8841 67.855 56.5101 68.4882 57.2901 68.4891L57.2914 67.4426ZM56.9301 67.0803H57.9766C57.9766 63.6889 60.0854 60.789 63.0675 59.6212L62.6859 58.6467L62.3043 57.6723C58.5479 59.1433 55.8835 62.798 55.8835 67.0803H56.9301ZM62.6859 58.6467H63.7324V55.4075H62.6859H61.6394V58.6467H62.6859ZM62.6859 55.4075H63.7324C63.7324 44.715 72.3998 36.0469 83.0922 36.0468L83.0922 35.0002L83.0922 33.9537C71.2438 33.9539 61.6394 43.5592 61.6394 55.4075H62.6859Z" fill="black" mask="url(#path-5-outside-1_1503_1053)"/>
<rect x="74.1973" y="104.593" width="7.32558" height="15.6977" rx="3.66279" fill="#FFC300"/>
<rect x="87.2793" y="104.593" width="7.32558" height="15.6977" rx="3.66279" fill="#FFC300"/>
<path d="M109.742 108.465L82.3678 108.271C81.4945 108.265 81.0125 107.255 81.5569 106.572L96.2248 88.177C96.6214 87.6797 97.3663 87.6482 97.8034 88.1104L112.045 103.169C113.945 105.178 112.507 108.485 109.742 108.465Z" fill="#0AB74E"/>
<path d="M48.8479 66.3402L68.0845 73.3085C76.5465 76.3739 78.4444 87.4903 71.4787 93.1895C66.1033 97.5876 58.0938 96.3071 54.3576 90.4523L43.3512 73.2052C40.965 69.4661 44.6775 64.8295 48.8479 66.3402Z" fill="#008F38"/>
<path d="M62.6865 55.4072C62.6865 44.1367 71.823 35.0002 83.0935 35.0002C94.364 35.0002 103.5 44.1368 103.5 55.4072V107.21C103.5 107.788 103.032 108.256 102.454 108.256H73.1516C67.3719 108.256 62.6865 103.571 62.6865 97.7909V55.4072Z" fill="#0AB74E"/>
<rect x="74.1973" y="61.6863" width="5.75581" height="15.1744" rx="2.87791" fill="#9C1B0A"/>
<rect x="83.0928" y="48.6047" width="4.18605" height="11.5116" rx="2.09302" fill="black"/>
<rect x="71.0586" y="48.6047" width="4.18605" height="11.5116" rx="2.09302" fill="black"/>
<path d="M56.9307 67.0798C56.9307 62.0781 60.9853 58.0234 65.987 58.0234H79.0684C79.5575 58.0234 79.9539 58.4199 79.9539 58.9089V65.349C79.9539 66.505 79.0168 67.442 77.8609 67.442H57.2929C57.0929 67.442 56.9307 67.2799 56.9307 67.0798Z" fill="#FFC300"/>
<path d="M69.4883 72.9161C69.4883 72.7827 69.5964 72.6746 69.7298 72.6746H79.8303C79.8983 72.6746 79.9534 72.7297 79.9534 72.7977V73.7211C79.9534 76.6109 77.6107 78.9536 74.7208 78.9536C71.831 78.9536 69.4883 76.6109 69.4883 73.7211V72.9161Z" fill="#FFC300"/>
<path d="M113.152 102.556L93.9155 95.5872C85.4535 92.5219 83.5556 81.4054 90.5213 75.7062C95.8967 71.3082 103.906 72.5887 107.642 78.4434L118.649 95.6906C121.035 99.4297 117.322 104.066 113.152 102.556Z" fill="#008F38"/>
</g>
<defs>
<linearGradient id="paint0_linear_1503_1053" x1="42.3667" y1="70.4889" x2="95.2206" y2="125.142" gradientUnits="userSpaceOnUse">
<stop stop-color="#454545"/>
<stop offset="0.395983" stop-color="#454545" stop-opacity="0.3"/>
<stop offset="1" stop-color="#F9F9F9" stop-opacity="0"/>
</linearGradient>
<linearGradient id="paint1_linear_1503_1053" x1="15.1771" y1="8.3875" x2="65.0452" y2="59.6034" gradientUnits="userSpaceOnUse">
<stop stop-color="#EEEEEE"/>
<stop offset="0.697023" stop-color="#E9E9E9"/>
<stop offset="0.892677" stop-color="#BBBBBB"/>
<stop offset="1" stop-color="#D6D6D6"/>
</linearGradient>
<clipPath id="clip0_1503_1053">
<rect width="123" height="122" fill="white"/>
</clipPath>
</defs>
</svg>
