<svg width="594" height="304" viewBox="0 0 594 304" fill="none" xmlns="http://www.w3.org/2000/svg">
<rect width="594" height="304" fill="white"/>
<rect x="2.5" y="2.5" width="167" height="299" rx="29.5" fill="white" stroke="black"/>
<rect x="213.5" y="2.5" width="167" height="299" rx="29.5" fill="white" stroke="black"/>
<rect x="424.5" y="2.5" width="167" height="299" rx="29.5" fill="white" stroke="black"/>
<rect x="6.5" y="6.5" width="159" height="291" rx="25.5" fill="white" stroke="#AEAEAE"/>
<rect x="217.5" y="6.5" width="159" height="291" rx="25.5" fill="white" stroke="#AEAEAE"/>
<rect x="428.5" y="6.5" width="159" height="291" rx="25.5" fill="white" stroke="#AEAEAE"/>
<rect x="15.5" y="15.5" width="140" height="68" rx="9.5" fill="white" stroke="black" stroke-dasharray="2 2"/>
<rect x="15.5" y="110.5" width="140" height="68" rx="9.5" fill="white" stroke="black" stroke-dasharray="2 2"/>
<rect x="226.5" y="70.5" width="140" height="68" rx="9.5" fill="white" stroke="black" stroke-dasharray="2 2"/>
<rect x="439.5" y="152.5" width="140" height="53" rx="9.5" fill="white" stroke="black" stroke-dasharray="2 2"/>
<rect x="439.5" y="214.5" width="140" height="53" rx="9.5" fill="white" stroke="black" stroke-dasharray="2 2"/>
<rect x="226.5" y="145.5" width="140" height="68" rx="9.5" fill="white" stroke="black" stroke-dasharray="2 2"/>
<rect x="226.5" y="220.5" width="140" height="68" rx="9.5" fill="white" stroke="black" stroke-dasharray="2 2"/>
<rect x="15.5" y="187.5" width="140" height="68" rx="9.5" fill="white" stroke="black" stroke-dasharray="2 2"/>
<g clip-path="url(#clip0_3_1696)">
<path d="M137 169.793L131.283 163.906C130.782 163.415 130.45 162.776 130.336 162.083C130.222 161.39 130.332 160.679 130.649 160.052C130.894 159.578 131.247 159.167 131.679 158.854C132.111 158.541 132.611 158.333 133.139 158.249C133.666 158.164 134.206 158.205 134.714 158.368C135.223 158.53 135.686 158.81 136.067 159.185L137 160.036L137.933 159.185C138.314 158.81 138.777 158.531 139.286 158.368C139.794 158.206 140.334 158.165 140.861 158.249C141.388 158.334 141.888 158.541 142.321 158.854C142.753 159.167 143.106 159.578 143.351 160.052C143.668 160.679 143.778 161.39 143.664 162.083C143.55 162.776 143.218 163.415 142.717 163.906L137 169.793Z" stroke="black" stroke-linecap="round" stroke-linejoin="round"/>
</g>
<g clip-path="url(#clip1_3_1696)">
<path d="M348 129.793L342.283 123.906C341.782 123.415 341.45 122.776 341.336 122.083C341.222 121.39 341.332 120.679 341.649 120.052C341.894 119.578 342.247 119.167 342.679 118.854C343.111 118.541 343.611 118.333 344.139 118.249C344.666 118.164 345.206 118.205 345.714 118.368C346.223 118.53 346.686 118.81 347.067 119.185L348 120.036L348.933 119.185C349.314 118.81 349.777 118.531 350.286 118.368C350.794 118.206 351.334 118.165 351.861 118.249C352.388 118.334 352.888 118.541 353.321 118.854C353.753 119.167 354.106 119.578 354.351 120.052C354.668 120.679 354.778 121.39 354.664 122.083C354.55 122.776 354.218 123.415 353.717 123.906L348 129.793Z" stroke="black" stroke-linecap="round" stroke-linejoin="round"/>
</g>
<g clip-path="url(#clip2_3_1696)">
<path d="M348 204.793L342.283 198.906C341.782 198.415 341.45 197.776 341.336 197.083C341.222 196.39 341.332 195.679 341.649 195.052C341.894 194.578 342.247 194.167 342.679 193.854C343.111 193.541 343.611 193.333 344.139 193.249C344.666 193.164 345.206 193.205 345.714 193.368C346.223 193.53 346.686 193.81 347.067 194.185L348 195.036L348.933 194.185C349.314 193.81 349.777 193.531 350.286 193.368C350.794 193.206 351.334 193.165 351.861 193.249C352.388 193.334 352.888 193.541 353.321 193.854C353.753 194.167 354.106 194.578 354.351 195.052C354.668 195.679 354.778 196.39 354.664 197.083C354.55 197.776 354.218 198.415 353.717 198.906L348 204.793Z" stroke="black" stroke-linecap="round" stroke-linejoin="round"/>
</g>
<g clip-path="url(#clip3_3_1696)">
<path d="M348 279.793L342.283 273.906C341.782 273.415 341.45 272.776 341.336 272.083C341.222 271.39 341.332 270.679 341.649 270.052C341.894 269.578 342.247 269.167 342.679 268.854C343.111 268.541 343.611 268.333 344.139 268.249C344.666 268.164 345.206 268.205 345.714 268.368C346.223 268.53 346.686 268.81 347.067 269.185L348 270.036L348.933 269.185C349.314 268.81 349.777 268.531 350.286 268.368C350.794 268.206 351.334 268.165 351.861 268.249C352.388 268.334 352.888 268.541 353.321 268.854C353.753 269.167 354.106 269.578 354.351 270.052C354.668 270.679 354.778 271.39 354.664 272.083C354.55 272.776 354.218 273.415 353.717 273.906L348 279.793Z" stroke="black" stroke-linecap="round" stroke-linejoin="round"/>
</g>
<g clip-path="url(#clip4_3_1696)">
<path d="M137 246.793L131.283 240.906C130.782 240.415 130.45 239.776 130.336 239.083C130.222 238.39 130.332 237.679 130.649 237.052C130.894 236.578 131.247 236.167 131.679 235.854C132.111 235.541 132.611 235.333 133.139 235.249C133.666 235.164 134.206 235.205 134.714 235.368C135.223 235.53 135.686 235.81 136.067 236.185L137 237.036L137.933 236.185C138.314 235.81 138.777 235.531 139.286 235.368C139.794 235.206 140.334 235.165 140.861 235.249C141.388 235.334 141.888 235.541 142.321 235.854C142.753 236.167 143.106 236.578 143.351 237.052C143.668 237.679 143.778 238.39 143.664 239.083C143.55 239.776 143.218 240.415 142.717 240.906L137 246.793Z" stroke="black" stroke-linecap="round" stroke-linejoin="round"/>
</g>
<path d="M14.9258 101V92.4102H17.8848C18.5527 92.4102 19.0625 92.4512 19.4141 92.5332C19.9062 92.6465 20.3262 92.8516 20.6738 93.1484C21.127 93.5312 21.4648 94.0215 21.6875 94.6191C21.9141 95.2129 22.0273 95.8926 22.0273 96.6582C22.0273 97.3105 21.9512 97.8887 21.7988 98.3926C21.6465 98.8965 21.4512 99.3145 21.2129 99.6465C20.9746 99.9746 20.7129 100.234 20.4277 100.426C20.1465 100.613 19.8047 100.756 19.4023 100.854C19.0039 100.951 18.5449 101 18.0254 101H14.9258ZM16.0625 99.9863H17.8965C18.4629 99.9863 18.9062 99.9336 19.2266 99.8281C19.5508 99.7227 19.8086 99.5742 20 99.3828C20.2695 99.1133 20.4785 98.752 20.627 98.2988C20.7793 97.8418 20.8555 97.2891 20.8555 96.6406C20.8555 95.7422 20.707 95.0527 20.4102 94.5723C20.1172 94.0879 19.7598 93.7637 19.3379 93.5996C19.0332 93.4824 18.543 93.4238 17.8672 93.4238H16.0625V99.9863ZM23.4688 93.623V92.4102H24.5234V93.623H23.4688ZM23.4688 101V94.7773H24.5234V101H23.4688ZM25.7129 99.1426L26.7559 98.9785C26.8145 99.3965 26.9766 99.7168 27.2422 99.9395C27.5117 100.162 27.8867 100.273 28.3672 100.273C28.8516 100.273 29.2109 100.176 29.4453 99.9805C29.6797 99.7812 29.7969 99.5488 29.7969 99.2832C29.7969 99.0449 29.6934 98.8574 29.4863 98.7207C29.3418 98.627 28.9824 98.5078 28.4082 98.3633C27.6348 98.168 27.0977 98 26.7969 97.8594C26.5 97.7148 26.2734 97.5176 26.1172 97.2676C25.9648 97.0137 25.8887 96.7344 25.8887 96.4297C25.8887 96.1523 25.9512 95.8965 26.0762 95.6621C26.2051 95.4238 26.3789 95.2266 26.5977 95.0703C26.7617 94.9492 26.9844 94.8477 27.2656 94.7656C27.5508 94.6797 27.8555 94.6367 28.1797 94.6367C28.668 94.6367 29.0957 94.707 29.4629 94.8477C29.834 94.9883 30.1074 95.1797 30.2832 95.4219C30.459 95.6602 30.5801 95.9805 30.6465 96.3828L29.6152 96.5234C29.5684 96.2031 29.4316 95.9531 29.2051 95.7734C28.9824 95.5938 28.666 95.5039 28.2559 95.5039C27.7715 95.5039 27.4258 95.584 27.2188 95.7441C27.0117 95.9043 26.9082 96.0918 26.9082 96.3066C26.9082 96.4434 26.9512 96.5664 27.0371 96.6758C27.123 96.7891 27.2578 96.8828 27.4414 96.957C27.5469 96.9961 27.8574 97.0859 28.373 97.2266C29.1191 97.4258 29.6387 97.5898 29.9316 97.7188C30.2285 97.8438 30.4609 98.0273 30.6289 98.2695C30.7969 98.5117 30.8809 98.8125 30.8809 99.1719C30.8809 99.5234 30.7773 99.8555 30.5703 100.168C30.3672 100.477 30.0723 100.717 29.6855 100.889C29.2988 101.057 28.8613 101.141 28.373 101.141C27.5645 101.141 26.9473 100.973 26.5215 100.637C26.0996 100.301 25.8301 99.8027 25.7129 99.1426ZM36.1953 98.7207L37.2324 98.8555C37.1191 99.5703 36.8281 100.131 36.3594 100.537C35.8945 100.939 35.3223 101.141 34.6426 101.141C33.791 101.141 33.1055 100.863 32.5859 100.309C32.0703 99.75 31.8125 98.9512 31.8125 97.9121C31.8125 97.2402 31.9238 96.6523 32.1465 96.1484C32.3691 95.6445 32.707 95.2676 33.1602 95.0176C33.6172 94.7637 34.1133 94.6367 34.6484 94.6367C35.3242 94.6367 35.877 94.8086 36.3066 95.1523C36.7363 95.4922 37.0117 95.9766 37.1328 96.6055L36.1074 96.7637C36.0098 96.3457 35.8359 96.0312 35.5859 95.8203C35.3398 95.6094 35.041 95.5039 34.6895 95.5039C34.1582 95.5039 33.7266 95.6953 33.3945 96.0781C33.0625 96.457 32.8965 97.0586 32.8965 97.8828C32.8965 98.7188 33.0566 99.3262 33.377 99.7051C33.6973 100.084 34.1152 100.273 34.6309 100.273C35.0449 100.273 35.3906 100.146 35.668 99.8926C35.9453 99.6387 36.1211 99.248 36.1953 98.7207ZM37.7422 97.8887C37.7422 96.7363 38.0625 95.8828 38.7031 95.3281C39.2383 94.8672 39.8906 94.6367 40.6602 94.6367C41.5156 94.6367 42.2148 94.918 42.7578 95.4805C43.3008 96.0391 43.5723 96.8125 43.5723 97.8008C43.5723 98.6016 43.4512 99.2324 43.209 99.6934C42.9707 100.15 42.6211 100.506 42.1602 100.76C41.7031 101.014 41.2031 101.141 40.6602 101.141C39.7891 101.141 39.084 100.861 38.5449 100.303C38.0098 99.7441 37.7422 98.9395 37.7422 97.8887ZM38.8262 97.8887C38.8262 98.6855 39 99.2832 39.3477 99.6816C39.6953 100.076 40.1328 100.273 40.6602 100.273C41.1836 100.273 41.6191 100.074 41.9668 99.6758C42.3145 99.2773 42.4883 98.6699 42.4883 97.8535C42.4883 97.084 42.3125 96.502 41.9609 96.1074C41.6133 95.709 41.1797 95.5098 40.6602 95.5098C40.1328 95.5098 39.6953 95.707 39.3477 96.1016C39 96.4961 38.8262 97.0918 38.8262 97.8887ZM46.543 101L44.1758 94.7773H45.2891L46.625 98.5039C46.7695 98.9062 46.9023 99.3242 47.0234 99.7578C47.1172 99.4297 47.248 99.0352 47.416 98.5742L48.7988 94.7773H49.8828L47.5273 101H46.543ZM55.0742 98.9961L56.1641 99.1309C55.9922 99.7676 55.6738 100.262 55.209 100.613C54.7441 100.965 54.1504 101.141 53.4277 101.141C52.5176 101.141 51.7949 100.861 51.2598 100.303C50.7285 99.7402 50.4629 98.9531 50.4629 97.9414C50.4629 96.8945 50.7324 96.082 51.2715 95.5039C51.8105 94.9258 52.5098 94.6367 53.3691 94.6367C54.2012 94.6367 54.8809 94.9199 55.4082 95.4863C55.9355 96.0527 56.1992 96.8496 56.1992 97.877C56.1992 97.9395 56.1973 98.0332 56.1934 98.1582H51.5527C51.5918 98.8418 51.7852 99.3652 52.1328 99.7285C52.4805 100.092 52.9141 100.273 53.4336 100.273C53.8203 100.273 54.1504 100.172 54.4238 99.9688C54.6973 99.7656 54.9141 99.4414 55.0742 98.9961ZM51.6113 97.291H55.0859C55.0391 96.7676 54.9062 96.375 54.6875 96.1133C54.3516 95.707 53.916 95.5039 53.3809 95.5039C52.8965 95.5039 52.4883 95.666 52.1562 95.9902C51.8281 96.3145 51.6465 96.748 51.6113 97.291ZM57.4824 101V94.7773H58.4316V95.7207C58.6738 95.2793 58.8965 94.9883 59.0996 94.8477C59.3066 94.707 59.5332 94.6367 59.7793 94.6367C60.1348 94.6367 60.4961 94.75 60.8633 94.9766L60.5 95.9551C60.2422 95.8027 59.9844 95.7266 59.7266 95.7266C59.4961 95.7266 59.2891 95.7969 59.1055 95.9375C58.9219 96.0742 58.791 96.2656 58.7129 96.5117C58.5957 96.8867 58.5371 97.2969 58.5371 97.7422V101H57.4824ZM65.082 101V95.5977H64.1504V94.7773H65.082V94.1152C65.082 93.6973 65.1191 93.3867 65.1934 93.1836C65.2949 92.9102 65.4727 92.6895 65.7266 92.5215C65.9844 92.3496 66.3438 92.2637 66.8047 92.2637C67.1016 92.2637 67.4297 92.2988 67.7891 92.3691L67.6309 93.2891C67.4121 93.25 67.2051 93.2305 67.0098 93.2305C66.6895 93.2305 66.4629 93.2988 66.3301 93.4355C66.1973 93.5723 66.1309 93.8281 66.1309 94.2031V94.7773H67.3438V95.5977H66.1309V101H65.082ZM72.4297 98.9961L73.5195 99.1309C73.3477 99.7676 73.0293 100.262 72.5645 100.613C72.0996 100.965 71.5059 101.141 70.7832 101.141C69.873 101.141 69.1504 100.861 68.6152 100.303C68.084 99.7402 67.8184 98.9531 67.8184 97.9414C67.8184 96.8945 68.0879 96.082 68.627 95.5039C69.166 94.9258 69.8652 94.6367 70.7246 94.6367C71.5566 94.6367 72.2363 94.9199 72.7637 95.4863C73.291 96.0527 73.5547 96.8496 73.5547 97.877C73.5547 97.9395 73.5527 98.0332 73.5488 98.1582H68.9082C68.9473 98.8418 69.1406 99.3652 69.4883 99.7285C69.8359 100.092 70.2695 100.273 70.7891 100.273C71.1758 100.273 71.5059 100.172 71.7793 99.9688C72.0527 99.7656 72.2695 99.4414 72.4297 98.9961ZM68.9668 97.291H72.4414C72.3945 96.7676 72.2617 96.375 72.043 96.1133C71.707 95.707 71.2715 95.5039 70.7363 95.5039C70.252 95.5039 69.8438 95.666 69.5117 95.9902C69.1836 96.3145 69.002 96.748 68.9668 97.291ZM78.9102 100.232C78.5195 100.564 78.1426 100.799 77.7793 100.936C77.4199 101.072 77.0332 101.141 76.6191 101.141C75.9355 101.141 75.4102 100.975 75.043 100.643C74.6758 100.307 74.4922 99.8789 74.4922 99.3594C74.4922 99.0547 74.5605 98.7773 74.6973 98.5273C74.8379 98.2734 75.0195 98.0703 75.2422 97.918C75.4688 97.7656 75.7227 97.6504 76.0039 97.5723C76.2109 97.5176 76.5234 97.4648 76.9414 97.4141C77.793 97.3125 78.4199 97.1914 78.8223 97.0508C78.8262 96.9062 78.8281 96.8145 78.8281 96.7754C78.8281 96.3457 78.7285 96.043 78.5293 95.8672C78.2598 95.6289 77.8594 95.5098 77.3281 95.5098C76.832 95.5098 76.4648 95.5977 76.2266 95.7734C75.9922 95.9453 75.8184 96.252 75.7051 96.6934L74.6738 96.5527C74.7676 96.1113 74.9219 95.7559 75.1367 95.4863C75.3516 95.2129 75.6621 95.0039 76.0684 94.8594C76.4746 94.7109 76.9453 94.6367 77.4805 94.6367C78.0117 94.6367 78.4434 94.6992 78.7754 94.8242C79.1074 94.9492 79.3516 95.1074 79.5078 95.2988C79.6641 95.4863 79.7734 95.7246 79.8359 96.0137C79.8711 96.1934 79.8887 96.5176 79.8887 96.9863V98.3926C79.8887 99.373 79.9102 99.9941 79.9531 100.256C80 100.514 80.0898 100.762 80.2227 101H79.1211C79.0117 100.781 78.9414 100.525 78.9102 100.232ZM78.8223 97.877C78.4395 98.0332 77.8652 98.166 77.0996 98.2754C76.666 98.3379 76.3594 98.4082 76.1797 98.4863C76 98.5645 75.8613 98.6797 75.7637 98.832C75.666 98.9805 75.6172 99.1465 75.6172 99.3301C75.6172 99.6113 75.7227 99.8457 75.9336 100.033C76.1484 100.221 76.4609 100.314 76.8711 100.314C77.2773 100.314 77.6387 100.227 77.9551 100.051C78.2715 99.8711 78.5039 99.627 78.6523 99.3184C78.7656 99.0801 78.8223 98.7285 78.8223 98.2637V97.877ZM83.832 100.057L83.9844 100.988C83.6875 101.051 83.4219 101.082 83.1875 101.082C82.8047 101.082 82.5078 101.021 82.2969 100.9C82.0859 100.779 81.9375 100.621 81.8516 100.426C81.7656 100.227 81.7227 99.8105 81.7227 99.1777V95.5977H80.9492V94.7773H81.7227V93.2363L82.7715 92.6035V94.7773H83.832V95.5977H82.7715V99.2363C82.7715 99.5371 82.7891 99.7305 82.8242 99.8164C82.8633 99.9023 82.9238 99.9707 83.0059 100.021C83.0918 100.072 83.2129 100.098 83.3691 100.098C83.4863 100.098 83.6406 100.084 83.832 100.057ZM88.9473 101V100.086C88.4629 100.789 87.8047 101.141 86.9727 101.141C86.6055 101.141 86.2617 101.07 85.9414 100.93C85.625 100.789 85.3887 100.613 85.2324 100.402C85.0801 100.188 84.9727 99.9258 84.9102 99.6172C84.8672 99.4102 84.8457 99.082 84.8457 98.6328V94.7773H85.9004V98.2285C85.9004 98.7793 85.9219 99.1504 85.9648 99.3418C86.0312 99.6191 86.1719 99.8379 86.3867 99.998C86.6016 100.154 86.8672 100.232 87.1836 100.232C87.5 100.232 87.7969 100.152 88.0742 99.9922C88.3516 99.8281 88.5469 99.6074 88.6602 99.3301C88.7773 99.0488 88.8359 98.6426 88.8359 98.1113V94.7773H89.8906V101H88.9473ZM91.5371 101V94.7773H92.4863V95.7207C92.7285 95.2793 92.9512 94.9883 93.1543 94.8477C93.3613 94.707 93.5879 94.6367 93.834 94.6367C94.1895 94.6367 94.5508 94.75 94.918 94.9766L94.5547 95.9551C94.2969 95.8027 94.0391 95.7266 93.7812 95.7266C93.5508 95.7266 93.3438 95.7969 93.1602 95.9375C92.9766 96.0742 92.8457 96.2656 92.7676 96.5117C92.6504 96.8867 92.5918 97.2969 92.5918 97.7422V101H91.5371ZM99.8047 98.9961L100.895 99.1309C100.723 99.7676 100.404 100.262 99.9395 100.613C99.4746 100.965 98.8809 101.141 98.1582 101.141C97.248 101.141 96.5254 100.861 95.9902 100.303C95.459 99.7402 95.1934 98.9531 95.1934 97.9414C95.1934 96.8945 95.4629 96.082 96.002 95.5039C96.541 94.9258 97.2402 94.6367 98.0996 94.6367C98.9316 94.6367 99.6113 94.9199 100.139 95.4863C100.666 96.0527 100.93 96.8496 100.93 97.877C100.93 97.9395 100.928 98.0332 100.924 98.1582H96.2832C96.3223 98.8418 96.5156 99.3652 96.8633 99.7285C97.2109 100.092 97.6445 100.273 98.1641 100.273C98.5508 100.273 98.8809 100.172 99.1543 99.9688C99.4277 99.7656 99.6445 99.4414 99.8047 98.9961ZM96.3418 97.291H99.8164C99.7695 96.7676 99.6367 96.375 99.418 96.1133C99.082 95.707 98.6465 95.5039 98.1113 95.5039C97.627 95.5039 97.2188 95.666 96.8867 95.9902C96.5586 96.3145 96.377 96.748 96.3418 97.291ZM106.262 101V100.215C105.867 100.832 105.287 101.141 104.521 101.141C104.025 101.141 103.568 101.004 103.15 100.73C102.736 100.457 102.414 100.076 102.184 99.5879C101.957 99.0957 101.844 98.5312 101.844 97.8945C101.844 97.2734 101.947 96.7109 102.154 96.207C102.361 95.6992 102.672 95.3105 103.086 95.041C103.5 94.7715 103.963 94.6367 104.475 94.6367C104.85 94.6367 105.184 94.7168 105.477 94.877C105.77 95.0332 106.008 95.2383 106.191 95.4922V92.4102H107.24V101H106.262ZM102.928 97.8945C102.928 98.6914 103.096 99.2871 103.432 99.6816C103.768 100.076 104.164 100.273 104.621 100.273C105.082 100.273 105.473 100.086 105.793 99.7109C106.117 99.332 106.279 98.7559 106.279 97.9824C106.279 97.1309 106.115 96.5059 105.787 96.1074C105.459 95.709 105.055 95.5098 104.574 95.5098C104.105 95.5098 103.713 95.7012 103.396 96.084C103.084 96.4668 102.928 97.0703 102.928 97.8945ZM112.244 101V92.4102H113.299V95.4922C113.791 94.9219 114.412 94.6367 115.162 94.6367C115.623 94.6367 116.023 94.7285 116.363 94.9121C116.703 95.0918 116.945 95.3418 117.09 95.6621C117.238 95.9824 117.312 96.4473 117.312 97.0566V101H116.258V97.0566C116.258 96.5293 116.143 96.1465 115.912 95.9082C115.686 95.666 115.363 95.5449 114.945 95.5449C114.633 95.5449 114.338 95.627 114.061 95.791C113.787 95.9512 113.592 96.1699 113.475 96.4473C113.357 96.7246 113.299 97.1074 113.299 97.5957V101H112.244ZM118.531 97.8887C118.531 96.7363 118.852 95.8828 119.492 95.3281C120.027 94.8672 120.68 94.6367 121.449 94.6367C122.305 94.6367 123.004 94.918 123.547 95.4805C124.09 96.0391 124.361 96.8125 124.361 97.8008C124.361 98.6016 124.24 99.2324 123.998 99.6934C123.76 100.15 123.41 100.506 122.949 100.76C122.492 101.014 121.992 101.141 121.449 101.141C120.578 101.141 119.873 100.861 119.334 100.303C118.799 99.7441 118.531 98.9395 118.531 97.8887ZM119.615 97.8887C119.615 98.6855 119.789 99.2832 120.137 99.6816C120.484 100.076 120.922 100.273 121.449 100.273C121.973 100.273 122.408 100.074 122.756 99.6758C123.104 99.2773 123.277 98.6699 123.277 97.8535C123.277 97.084 123.102 96.502 122.75 96.1074C122.402 95.709 121.969 95.5098 121.449 95.5098C120.922 95.5098 120.484 95.707 120.137 96.1016C119.789 96.4961 119.615 97.0918 119.615 97.8887ZM127.906 100.057L128.059 100.988C127.762 101.051 127.496 101.082 127.262 101.082C126.879 101.082 126.582 101.021 126.371 100.9C126.16 100.779 126.012 100.621 125.926 100.426C125.84 100.227 125.797 99.8105 125.797 99.1777V95.5977H125.023V94.7773H125.797V93.2363L126.846 92.6035V94.7773H127.906V95.5977H126.846V99.2363C126.846 99.5371 126.863 99.7305 126.898 99.8164C126.938 99.9023 126.998 99.9707 127.08 100.021C127.166 100.072 127.287 100.098 127.443 100.098C127.561 100.098 127.715 100.084 127.906 100.057ZM133.203 98.9961L134.293 99.1309C134.121 99.7676 133.803 100.262 133.338 100.613C132.873 100.965 132.279 101.141 131.557 101.141C130.646 101.141 129.924 100.861 129.389 100.303C128.857 99.7402 128.592 98.9531 128.592 97.9414C128.592 96.8945 128.861 96.082 129.4 95.5039C129.939 94.9258 130.639 94.6367 131.498 94.6367C132.33 94.6367 133.01 94.9199 133.537 95.4863C134.064 96.0527 134.328 96.8496 134.328 97.877C134.328 97.9395 134.326 98.0332 134.322 98.1582H129.682C129.721 98.8418 129.914 99.3652 130.262 99.7285C130.609 100.092 131.043 100.273 131.562 100.273C131.949 100.273 132.279 100.172 132.553 99.9688C132.826 99.7656 133.043 99.4414 133.203 98.9961ZM129.74 97.291H133.215C133.168 96.7676 133.035 96.375 132.816 96.1133C132.48 95.707 132.045 95.5039 131.51 95.5039C131.025 95.5039 130.617 95.666 130.285 95.9902C129.957 96.3145 129.775 96.748 129.74 97.291ZM135.6 101V92.4102H136.654V101H135.6ZM137.873 99.1426L138.916 98.9785C138.975 99.3965 139.137 99.7168 139.402 99.9395C139.672 100.162 140.047 100.273 140.527 100.273C141.012 100.273 141.371 100.176 141.605 99.9805C141.84 99.7812 141.957 99.5488 141.957 99.2832C141.957 99.0449 141.854 98.8574 141.646 98.7207C141.502 98.627 141.143 98.5078 140.568 98.3633C139.795 98.168 139.258 98 138.957 97.8594C138.66 97.7148 138.434 97.5176 138.277 97.2676C138.125 97.0137 138.049 96.7344 138.049 96.4297C138.049 96.1523 138.111 95.8965 138.236 95.6621C138.365 95.4238 138.539 95.2266 138.758 95.0703C138.922 94.9492 139.145 94.8477 139.426 94.7656C139.711 94.6797 140.016 94.6367 140.34 94.6367C140.828 94.6367 141.256 94.707 141.623 94.8477C141.994 94.9883 142.268 95.1797 142.443 95.4219C142.619 95.6602 142.74 95.9805 142.807 96.3828L141.775 96.5234C141.729 96.2031 141.592 95.9531 141.365 95.7734C141.143 95.5938 140.826 95.5039 140.416 95.5039C139.932 95.5039 139.586 95.584 139.379 95.7441C139.172 95.9043 139.068 96.0918 139.068 96.3066C139.068 96.4434 139.111 96.5664 139.197 96.6758C139.283 96.7891 139.418 96.8828 139.602 96.957C139.707 96.9961 140.018 97.0859 140.533 97.2266C141.279 97.4258 141.799 97.5898 142.092 97.7188C142.389 97.8438 142.621 98.0273 142.789 98.2695C142.957 98.5117 143.041 98.8125 143.041 99.1719C143.041 99.5234 142.938 99.8555 142.73 100.168C142.527 100.477 142.232 100.717 141.846 100.889C141.459 101.057 141.021 101.141 140.533 101.141C139.725 101.141 139.107 100.973 138.682 100.637C138.26 100.301 137.99 99.8027 137.873 99.1426Z" fill="black"/>
<path d="M234.346 31V27.3613L231.035 22.4102H232.418L234.111 25C234.424 25.4844 234.715 25.9688 234.984 26.4531C235.242 26.0039 235.555 25.498 235.922 24.9355L237.586 22.4102H238.91L235.482 27.3613V31H234.346ZM238.301 27.8887C238.301 26.7363 238.621 25.8828 239.262 25.3281C239.797 24.8672 240.449 24.6367 241.219 24.6367C242.074 24.6367 242.773 24.918 243.316 25.4805C243.859 26.0391 244.131 26.8125 244.131 27.8008C244.131 28.6016 244.01 29.2324 243.768 29.6934C243.529 30.1504 243.18 30.5059 242.719 30.7598C242.262 31.0137 241.762 31.1406 241.219 31.1406C240.348 31.1406 239.643 30.8613 239.104 30.3027C238.568 29.7441 238.301 28.9395 238.301 27.8887ZM239.385 27.8887C239.385 28.6855 239.559 29.2832 239.906 29.6816C240.254 30.0762 240.691 30.2734 241.219 30.2734C241.742 30.2734 242.178 30.0742 242.525 29.6758C242.873 29.2773 243.047 28.6699 243.047 27.8535C243.047 27.084 242.871 26.502 242.52 26.1074C242.172 25.709 241.738 25.5098 241.219 25.5098C240.691 25.5098 240.254 25.707 239.906 26.1016C239.559 26.4961 239.385 27.0918 239.385 27.8887ZM249.451 31V30.0859C248.967 30.7891 248.309 31.1406 247.477 31.1406C247.109 31.1406 246.766 31.0703 246.445 30.9297C246.129 30.7891 245.893 30.6133 245.736 30.4023C245.584 30.1875 245.477 29.9258 245.414 29.6172C245.371 29.4102 245.35 29.082 245.35 28.6328V24.7773H246.404V28.2285C246.404 28.7793 246.426 29.1504 246.469 29.3418C246.535 29.6191 246.676 29.8379 246.891 29.998C247.105 30.1543 247.371 30.2324 247.688 30.2324C248.004 30.2324 248.301 30.1523 248.578 29.9922C248.855 29.8281 249.051 29.6074 249.164 29.3301C249.281 29.0488 249.34 28.6426 249.34 28.1113V24.7773H250.395V31H249.451ZM252.041 31V24.7773H252.99V25.7207C253.232 25.2793 253.455 24.9883 253.658 24.8477C253.865 24.707 254.092 24.6367 254.338 24.6367C254.693 24.6367 255.055 24.75 255.422 24.9766L255.059 25.9551C254.801 25.8027 254.543 25.7266 254.285 25.7266C254.055 25.7266 253.848 25.7969 253.664 25.9375C253.48 26.0742 253.35 26.2656 253.271 26.5117C253.154 26.8867 253.096 27.2969 253.096 27.7422V31H252.041ZM258.967 29.1426L260.01 28.9785C260.068 29.3965 260.23 29.7168 260.496 29.9395C260.766 30.1621 261.141 30.2734 261.621 30.2734C262.105 30.2734 262.465 30.1758 262.699 29.9805C262.934 29.7812 263.051 29.5488 263.051 29.2832C263.051 29.0449 262.947 28.8574 262.74 28.7207C262.596 28.627 262.236 28.5078 261.662 28.3633C260.889 28.168 260.352 28 260.051 27.8594C259.754 27.7148 259.527 27.5176 259.371 27.2676C259.219 27.0137 259.143 26.7344 259.143 26.4297C259.143 26.1523 259.205 25.8965 259.33 25.6621C259.459 25.4238 259.633 25.2266 259.852 25.0703C260.016 24.9492 260.238 24.8477 260.52 24.7656C260.805 24.6797 261.109 24.6367 261.434 24.6367C261.922 24.6367 262.35 24.707 262.717 24.8477C263.088 24.9883 263.361 25.1797 263.537 25.4219C263.713 25.6602 263.834 25.9805 263.9 26.3828L262.869 26.5234C262.822 26.2031 262.686 25.9531 262.459 25.7734C262.236 25.5938 261.92 25.5039 261.51 25.5039C261.025 25.5039 260.68 25.584 260.473 25.7441C260.266 25.9043 260.162 26.0918 260.162 26.3066C260.162 26.4434 260.205 26.5664 260.291 26.6758C260.377 26.7891 260.512 26.8828 260.695 26.957C260.801 26.9961 261.111 27.0859 261.627 27.2266C262.373 27.4258 262.893 27.5898 263.186 27.7188C263.482 27.8438 263.715 28.0273 263.883 28.2695C264.051 28.5117 264.135 28.8125 264.135 29.1719C264.135 29.5234 264.031 29.8555 263.824 30.168C263.621 30.4766 263.326 30.7168 262.939 30.8887C262.553 31.0566 262.115 31.1406 261.627 31.1406C260.818 31.1406 260.201 30.9727 259.775 30.6367C259.354 30.3008 259.084 29.8027 258.967 29.1426ZM269.648 28.9961L270.738 29.1309C270.566 29.7676 270.248 30.2617 269.783 30.6133C269.318 30.9648 268.725 31.1406 268.002 31.1406C267.092 31.1406 266.369 30.8613 265.834 30.3027C265.303 29.7402 265.037 28.9531 265.037 27.9414C265.037 26.8945 265.307 26.082 265.846 25.5039C266.385 24.9258 267.084 24.6367 267.943 24.6367C268.775 24.6367 269.455 24.9199 269.982 25.4863C270.51 26.0527 270.773 26.8496 270.773 27.877C270.773 27.9395 270.771 28.0332 270.768 28.1582H266.127C266.166 28.8418 266.359 29.3652 266.707 29.7285C267.055 30.0918 267.488 30.2734 268.008 30.2734C268.395 30.2734 268.725 30.1719 268.998 29.9688C269.271 29.7656 269.488 29.4414 269.648 28.9961ZM266.186 27.291H269.66C269.613 26.7676 269.48 26.375 269.262 26.1133C268.926 25.707 268.49 25.5039 267.955 25.5039C267.471 25.5039 267.062 25.666 266.73 25.9902C266.402 26.3145 266.221 26.748 266.186 27.291ZM276.129 30.2324C275.738 30.5645 275.361 30.7988 274.998 30.9355C274.639 31.0723 274.252 31.1406 273.838 31.1406C273.154 31.1406 272.629 30.9746 272.262 30.6426C271.895 30.3066 271.711 29.8789 271.711 29.3594C271.711 29.0547 271.779 28.7773 271.916 28.5273C272.057 28.2734 272.238 28.0703 272.461 27.918C272.688 27.7656 272.941 27.6504 273.223 27.5723C273.43 27.5176 273.742 27.4648 274.16 27.4141C275.012 27.3125 275.639 27.1914 276.041 27.0508C276.045 26.9062 276.047 26.8145 276.047 26.7754C276.047 26.3457 275.947 26.043 275.748 25.8672C275.479 25.6289 275.078 25.5098 274.547 25.5098C274.051 25.5098 273.684 25.5977 273.445 25.7734C273.211 25.9453 273.037 26.252 272.924 26.6934L271.893 26.5527C271.986 26.1113 272.141 25.7559 272.355 25.4863C272.57 25.2129 272.881 25.0039 273.287 24.8594C273.693 24.7109 274.164 24.6367 274.699 24.6367C275.23 24.6367 275.662 24.6992 275.994 24.8242C276.326 24.9492 276.57 25.1074 276.727 25.2988C276.883 25.4863 276.992 25.7246 277.055 26.0137C277.09 26.1934 277.107 26.5176 277.107 26.9863V28.3926C277.107 29.373 277.129 29.9941 277.172 30.2559C277.219 30.5137 277.309 30.7617 277.441 31H276.34C276.23 30.7812 276.16 30.5254 276.129 30.2324ZM276.041 27.877C275.658 28.0332 275.084 28.166 274.318 28.2754C273.885 28.3379 273.578 28.4082 273.398 28.4863C273.219 28.5645 273.08 28.6797 272.982 28.832C272.885 28.9805 272.836 29.1465 272.836 29.3301C272.836 29.6113 272.941 29.8457 273.152 30.0332C273.367 30.2207 273.68 30.3145 274.09 30.3145C274.496 30.3145 274.857 30.2266 275.174 30.0508C275.49 29.8711 275.723 29.627 275.871 29.3184C275.984 29.0801 276.041 28.7285 276.041 28.2637V27.877ZM278.736 31V24.7773H279.686V25.7207C279.928 25.2793 280.15 24.9883 280.354 24.8477C280.561 24.707 280.787 24.6367 281.033 24.6367C281.389 24.6367 281.75 24.75 282.117 24.9766L281.754 25.9551C281.496 25.8027 281.238 25.7266 280.98 25.7266C280.75 25.7266 280.543 25.7969 280.359 25.9375C280.176 26.0742 280.045 26.2656 279.967 26.5117C279.85 26.8867 279.791 27.2969 279.791 27.7422V31H278.736ZM286.805 28.7207L287.842 28.8555C287.729 29.5703 287.438 30.1309 286.969 30.5371C286.504 30.9395 285.932 31.1406 285.252 31.1406C284.4 31.1406 283.715 30.8633 283.195 30.3086C282.68 29.75 282.422 28.9512 282.422 27.9121C282.422 27.2402 282.533 26.6523 282.756 26.1484C282.979 25.6445 283.316 25.2676 283.77 25.0176C284.227 24.7637 284.723 24.6367 285.258 24.6367C285.934 24.6367 286.486 24.8086 286.916 25.1523C287.346 25.4922 287.621 25.9766 287.742 26.6055L286.717 26.7637C286.619 26.3457 286.445 26.0312 286.195 25.8203C285.949 25.6094 285.65 25.5039 285.299 25.5039C284.768 25.5039 284.336 25.6953 284.004 26.0781C283.672 26.457 283.506 27.0586 283.506 27.8828C283.506 28.7188 283.666 29.3262 283.986 29.7051C284.307 30.084 284.725 30.2734 285.24 30.2734C285.654 30.2734 286 30.1465 286.277 29.8926C286.555 29.6387 286.73 29.248 286.805 28.7207ZM288.744 31V22.4102H289.799V25.4922C290.291 24.9219 290.912 24.6367 291.662 24.6367C292.123 24.6367 292.523 24.7285 292.863 24.9121C293.203 25.0918 293.445 25.3418 293.59 25.6621C293.738 25.9824 293.812 26.4473 293.812 27.0566V31H292.758V27.0566C292.758 26.5293 292.643 26.1465 292.412 25.9082C292.186 25.666 291.863 25.5449 291.445 25.5449C291.133 25.5449 290.838 25.627 290.561 25.791C290.287 25.9512 290.092 26.1699 289.975 26.4473C289.857 26.7246 289.799 27.1074 289.799 27.5957V31H288.744Z" fill="black"/>
<path d="M444.961 31V22.4102H446.098V25.9375H450.562V22.4102H451.699V31H450.562V26.9512H446.098V31H444.961ZM453.07 27.8887C453.07 26.7363 453.391 25.8828 454.031 25.3281C454.566 24.8672 455.219 24.6367 455.988 24.6367C456.844 24.6367 457.543 24.918 458.086 25.4805C458.629 26.0391 458.9 26.8125 458.9 27.8008C458.9 28.6016 458.779 29.2324 458.537 29.6934C458.299 30.1504 457.949 30.5059 457.488 30.7598C457.031 31.0137 456.531 31.1406 455.988 31.1406C455.117 31.1406 454.412 30.8613 453.873 30.3027C453.338 29.7441 453.07 28.9395 453.07 27.8887ZM454.154 27.8887C454.154 28.6855 454.328 29.2832 454.676 29.6816C455.023 30.0762 455.461 30.2734 455.988 30.2734C456.512 30.2734 456.947 30.0742 457.295 29.6758C457.643 29.2773 457.816 28.6699 457.816 27.8535C457.816 27.084 457.641 26.502 457.289 26.1074C456.941 25.709 456.508 25.5098 455.988 25.5098C455.461 25.5098 455.023 25.707 454.676 26.1016C454.328 26.4961 454.154 27.0918 454.154 27.8887ZM462.445 30.0566L462.598 30.9883C462.301 31.0508 462.035 31.082 461.801 31.082C461.418 31.082 461.121 31.0215 460.91 30.9004C460.699 30.7793 460.551 30.6211 460.465 30.4258C460.379 30.2266 460.336 29.8105 460.336 29.1777V25.5977H459.562V24.7773H460.336V23.2363L461.385 22.6035V24.7773H462.445V25.5977H461.385V29.2363C461.385 29.5371 461.402 29.7305 461.438 29.8164C461.477 29.9023 461.537 29.9707 461.619 30.0215C461.705 30.0723 461.826 30.0977 461.982 30.0977C462.1 30.0977 462.254 30.084 462.445 30.0566ZM467.742 28.9961L468.832 29.1309C468.66 29.7676 468.342 30.2617 467.877 30.6133C467.412 30.9648 466.818 31.1406 466.096 31.1406C465.186 31.1406 464.463 30.8613 463.928 30.3027C463.396 29.7402 463.131 28.9531 463.131 27.9414C463.131 26.8945 463.4 26.082 463.939 25.5039C464.479 24.9258 465.178 24.6367 466.037 24.6367C466.869 24.6367 467.549 24.9199 468.076 25.4863C468.604 26.0527 468.867 26.8496 468.867 27.877C468.867 27.9395 468.865 28.0332 468.861 28.1582H464.221C464.26 28.8418 464.453 29.3652 464.801 29.7285C465.148 30.0918 465.582 30.2734 466.102 30.2734C466.488 30.2734 466.818 30.1719 467.092 29.9688C467.365 29.7656 467.582 29.4414 467.742 28.9961ZM464.279 27.291H467.754C467.707 26.7676 467.574 26.375 467.355 26.1133C467.02 25.707 466.584 25.5039 466.049 25.5039C465.564 25.5039 465.156 25.666 464.824 25.9902C464.496 26.3145 464.314 26.748 464.279 27.291ZM470.139 31V22.4102H471.193V31H470.139ZM476.174 31V24.7773H477.123V25.6621C477.58 24.9785 478.24 24.6367 479.104 24.6367C479.479 24.6367 479.822 24.7051 480.135 24.8418C480.451 24.9746 480.688 25.1504 480.844 25.3691C481 25.5879 481.109 25.8477 481.172 26.1484C481.211 26.3438 481.23 26.6855 481.23 27.1738V31H480.176V27.2148C480.176 26.7852 480.135 26.4648 480.053 26.2539C479.971 26.0391 479.824 25.8691 479.613 25.7441C479.406 25.6152 479.162 25.5508 478.881 25.5508C478.432 25.5508 478.043 25.6934 477.715 25.9785C477.391 26.2637 477.229 26.8047 477.229 27.6016V31H476.174ZM486.914 30.2324C486.523 30.5645 486.146 30.7988 485.783 30.9355C485.424 31.0723 485.037 31.1406 484.623 31.1406C483.939 31.1406 483.414 30.9746 483.047 30.6426C482.68 30.3066 482.496 29.8789 482.496 29.3594C482.496 29.0547 482.564 28.7773 482.701 28.5273C482.842 28.2734 483.023 28.0703 483.246 27.918C483.473 27.7656 483.727 27.6504 484.008 27.5723C484.215 27.5176 484.527 27.4648 484.945 27.4141C485.797 27.3125 486.424 27.1914 486.826 27.0508C486.83 26.9062 486.832 26.8145 486.832 26.7754C486.832 26.3457 486.732 26.043 486.533 25.8672C486.264 25.6289 485.863 25.5098 485.332 25.5098C484.836 25.5098 484.469 25.5977 484.23 25.7734C483.996 25.9453 483.822 26.252 483.709 26.6934L482.678 26.5527C482.771 26.1113 482.926 25.7559 483.141 25.4863C483.355 25.2129 483.666 25.0039 484.072 24.8594C484.479 24.7109 484.949 24.6367 485.484 24.6367C486.016 24.6367 486.447 24.6992 486.779 24.8242C487.111 24.9492 487.355 25.1074 487.512 25.2988C487.668 25.4863 487.777 25.7246 487.84 26.0137C487.875 26.1934 487.893 26.5176 487.893 26.9863V28.3926C487.893 29.373 487.914 29.9941 487.957 30.2559C488.004 30.5137 488.094 30.7617 488.227 31H487.125C487.016 30.7812 486.945 30.5254 486.914 30.2324ZM486.826 27.877C486.443 28.0332 485.869 28.166 485.104 28.2754C484.67 28.3379 484.363 28.4082 484.184 28.4863C484.004 28.5645 483.865 28.6797 483.768 28.832C483.67 28.9805 483.621 29.1465 483.621 29.3301C483.621 29.6113 483.727 29.8457 483.938 30.0332C484.152 30.2207 484.465 30.3145 484.875 30.3145C485.281 30.3145 485.643 30.2266 485.959 30.0508C486.275 29.8711 486.508 29.627 486.656 29.3184C486.77 29.0801 486.826 28.7285 486.826 28.2637V27.877ZM489.533 31V24.7773H490.477V25.6504C490.672 25.3457 490.932 25.1016 491.256 24.918C491.58 24.7305 491.949 24.6367 492.363 24.6367C492.824 24.6367 493.201 24.7324 493.494 24.9238C493.791 25.1152 494 25.3828 494.121 25.7266C494.613 25 495.254 24.6367 496.043 24.6367C496.66 24.6367 497.135 24.8086 497.467 25.1523C497.799 25.4922 497.965 26.0176 497.965 26.7285V31H496.916V27.0801C496.916 26.6582 496.881 26.3555 496.811 26.1719C496.744 25.9844 496.621 25.834 496.441 25.7207C496.262 25.6074 496.051 25.5508 495.809 25.5508C495.371 25.5508 495.008 25.6973 494.719 25.9902C494.43 26.2793 494.285 26.7441 494.285 27.3848V31H493.23V26.957C493.23 26.4883 493.145 26.1367 492.973 25.9023C492.801 25.668 492.52 25.5508 492.129 25.5508C491.832 25.5508 491.557 25.6289 491.303 25.7852C491.053 25.9414 490.871 26.1699 490.758 26.4707C490.645 26.7715 490.588 27.2051 490.588 27.7715V31H489.533ZM503.789 28.9961L504.879 29.1309C504.707 29.7676 504.389 30.2617 503.924 30.6133C503.459 30.9648 502.865 31.1406 502.143 31.1406C501.232 31.1406 500.51 30.8613 499.975 30.3027C499.443 29.7402 499.178 28.9531 499.178 27.9414C499.178 26.8945 499.447 26.082 499.986 25.5039C500.525 24.9258 501.225 24.6367 502.084 24.6367C502.916 24.6367 503.596 24.9199 504.123 25.4863C504.65 26.0527 504.914 26.8496 504.914 27.877C504.914 27.9395 504.912 28.0332 504.908 28.1582H500.268C500.307 28.8418 500.5 29.3652 500.848 29.7285C501.195 30.0918 501.629 30.2734 502.148 30.2734C502.535 30.2734 502.865 30.1719 503.139 29.9688C503.412 29.7656 503.629 29.4414 503.789 28.9961ZM500.326 27.291H503.801C503.754 26.7676 503.621 26.375 503.402 26.1133C503.066 25.707 502.631 25.5039 502.096 25.5039C501.611 25.5039 501.203 25.666 500.871 25.9902C500.543 26.3145 500.361 26.748 500.326 27.291Z" fill="black"/>
<path d="M443.982 95L447.281 86.4102H448.506L452.021 95H450.727L449.725 92.3984H446.133L445.189 95H443.982ZM446.461 91.4727H449.373L448.477 89.0938C448.203 88.3711 448 87.7773 447.867 87.3125C447.758 87.8633 447.604 88.4102 447.404 88.9531L446.461 91.4727ZM452.795 95V88.7773H453.738V89.6504C453.934 89.3457 454.193 89.1016 454.518 88.918C454.842 88.7305 455.211 88.6367 455.625 88.6367C456.086 88.6367 456.463 88.7324 456.756 88.9238C457.053 89.1152 457.262 89.3828 457.383 89.7266C457.875 89 458.516 88.6367 459.305 88.6367C459.922 88.6367 460.396 88.8086 460.729 89.1523C461.061 89.4922 461.227 90.0176 461.227 90.7285V95H460.178V91.0801C460.178 90.6582 460.143 90.3555 460.072 90.1719C460.006 89.9844 459.883 89.834 459.703 89.7207C459.523 89.6074 459.312 89.5508 459.07 89.5508C458.633 89.5508 458.27 89.6973 457.98 89.9902C457.691 90.2793 457.547 90.7441 457.547 91.3848V95H456.492V90.957C456.492 90.4883 456.406 90.1367 456.234 89.9023C456.062 89.668 455.781 89.5508 455.391 89.5508C455.094 89.5508 454.818 89.6289 454.564 89.7852C454.314 89.9414 454.133 90.1699 454.02 90.4707C453.906 90.7715 453.85 91.2051 453.85 91.7715V95H452.795ZM467.051 92.9961L468.141 93.1309C467.969 93.7676 467.65 94.2617 467.186 94.6133C466.721 94.9648 466.127 95.1406 465.404 95.1406C464.494 95.1406 463.771 94.8613 463.236 94.3027C462.705 93.7402 462.439 92.9531 462.439 91.9414C462.439 90.8945 462.709 90.082 463.248 89.5039C463.787 88.9258 464.486 88.6367 465.346 88.6367C466.178 88.6367 466.857 88.9199 467.385 89.4863C467.912 90.0527 468.176 90.8496 468.176 91.877C468.176 91.9395 468.174 92.0332 468.17 92.1582H463.529C463.568 92.8418 463.762 93.3652 464.109 93.7285C464.457 94.0918 464.891 94.2734 465.41 94.2734C465.797 94.2734 466.127 94.1719 466.4 93.9688C466.674 93.7656 466.891 93.4414 467.051 92.9961ZM463.588 91.291H467.062C467.016 90.7676 466.883 90.375 466.664 90.1133C466.328 89.707 465.893 89.5039 465.357 89.5039C464.873 89.5039 464.465 89.666 464.133 89.9902C463.805 90.3145 463.623 90.748 463.588 91.291ZM469.471 95V88.7773H470.42V89.6621C470.877 88.9785 471.537 88.6367 472.4 88.6367C472.775 88.6367 473.119 88.7051 473.432 88.8418C473.748 88.9746 473.984 89.1504 474.141 89.3691C474.297 89.5879 474.406 89.8477 474.469 90.1484C474.508 90.3438 474.527 90.6855 474.527 91.1738V95H473.473V91.2148C473.473 90.7852 473.432 90.4648 473.35 90.2539C473.268 90.0391 473.121 89.8691 472.91 89.7441C472.703 89.6152 472.459 89.5508 472.178 89.5508C471.729 89.5508 471.34 89.6934 471.012 89.9785C470.688 90.2637 470.525 90.8047 470.525 91.6016V95H469.471ZM476.156 87.623V86.4102H477.211V87.623H476.156ZM476.156 95V88.7773H477.211V95H476.156ZM481.125 94.0566L481.277 94.9883C480.98 95.0508 480.715 95.082 480.48 95.082C480.098 95.082 479.801 95.0215 479.59 94.9004C479.379 94.7793 479.23 94.6211 479.145 94.4258C479.059 94.2266 479.016 93.8105 479.016 93.1777V89.5977H478.242V88.7773H479.016V87.2363L480.064 86.6035V88.7773H481.125V89.5977H480.064V93.2363C480.064 93.5371 480.082 93.7305 480.117 93.8164C480.156 93.9023 480.217 93.9707 480.299 94.0215C480.385 94.0723 480.506 94.0977 480.662 94.0977C480.779 94.0977 480.934 94.084 481.125 94.0566ZM482.168 87.623V86.4102H483.223V87.623H482.168ZM482.168 95V88.7773H483.223V95H482.168ZM489.094 92.9961L490.184 93.1309C490.012 93.7676 489.693 94.2617 489.229 94.6133C488.764 94.9648 488.17 95.1406 487.447 95.1406C486.537 95.1406 485.814 94.8613 485.279 94.3027C484.748 93.7402 484.482 92.9531 484.482 91.9414C484.482 90.8945 484.752 90.082 485.291 89.5039C485.83 88.9258 486.529 88.6367 487.389 88.6367C488.221 88.6367 488.9 88.9199 489.428 89.4863C489.955 90.0527 490.219 90.8496 490.219 91.877C490.219 91.9395 490.217 92.0332 490.213 92.1582H485.572C485.611 92.8418 485.805 93.3652 486.152 93.7285C486.5 94.0918 486.934 94.2734 487.453 94.2734C487.84 94.2734 488.17 94.1719 488.443 93.9688C488.717 93.7656 488.934 93.4414 489.094 92.9961ZM485.631 91.291H489.105C489.059 90.7676 488.926 90.375 488.707 90.1133C488.371 89.707 487.936 89.5039 487.4 89.5039C486.916 89.5039 486.508 89.666 486.176 89.9902C485.848 90.3145 485.666 90.748 485.631 91.291ZM491.092 93.1426L492.135 92.9785C492.193 93.3965 492.355 93.7168 492.621 93.9395C492.891 94.1621 493.266 94.2734 493.746 94.2734C494.23 94.2734 494.59 94.1758 494.824 93.9805C495.059 93.7812 495.176 93.5488 495.176 93.2832C495.176 93.0449 495.072 92.8574 494.865 92.7207C494.721 92.627 494.361 92.5078 493.787 92.3633C493.014 92.168 492.477 92 492.176 91.8594C491.879 91.7148 491.652 91.5176 491.496 91.2676C491.344 91.0137 491.268 90.7344 491.268 90.4297C491.268 90.1523 491.33 89.8965 491.455 89.6621C491.584 89.4238 491.758 89.2266 491.977 89.0703C492.141 88.9492 492.363 88.8477 492.645 88.7656C492.93 88.6797 493.234 88.6367 493.559 88.6367C494.047 88.6367 494.475 88.707 494.842 88.8477C495.213 88.9883 495.486 89.1797 495.662 89.4219C495.838 89.6602 495.959 89.9805 496.025 90.3828L494.994 90.5234C494.947 90.2031 494.811 89.9531 494.584 89.7734C494.361 89.5938 494.045 89.5039 493.635 89.5039C493.15 89.5039 492.805 89.584 492.598 89.7441C492.391 89.9043 492.287 90.0918 492.287 90.3066C492.287 90.4434 492.33 90.5664 492.416 90.6758C492.502 90.7891 492.637 90.8828 492.82 90.957C492.926 90.9961 493.236 91.0859 493.752 91.2266C494.498 91.4258 495.018 91.5898 495.311 91.7188C495.607 91.8438 495.84 92.0273 496.008 92.2695C496.176 92.5117 496.26 92.8125 496.26 93.1719C496.26 93.5234 496.156 93.8555 495.949 94.168C495.746 94.4766 495.451 94.7168 495.064 94.8887C494.678 95.0566 494.24 95.1406 493.752 95.1406C492.943 95.1406 492.326 94.9727 491.9 94.6367C491.479 94.3008 491.209 93.8027 491.092 93.1426Z" fill="black"/>
<path d="M443.982 144L447.281 135.41H448.506L452.021 144H450.727L449.725 141.398H446.133L445.189 144H443.982ZM446.461 140.473H449.373L448.477 138.094C448.203 137.371 448 136.777 447.867 136.312C447.758 136.863 447.604 137.41 447.404 137.953L446.461 140.473ZM454.301 144L451.934 137.777H453.047L454.383 141.504C454.527 141.906 454.66 142.324 454.781 142.758C454.875 142.43 455.006 142.035 455.174 141.574L456.557 137.777H457.641L455.285 144H454.301ZM462.633 143.232C462.242 143.564 461.865 143.799 461.502 143.936C461.143 144.072 460.756 144.141 460.342 144.141C459.658 144.141 459.133 143.975 458.766 143.643C458.398 143.307 458.215 142.879 458.215 142.359C458.215 142.055 458.283 141.777 458.42 141.527C458.561 141.273 458.742 141.07 458.965 140.918C459.191 140.766 459.445 140.65 459.727 140.572C459.934 140.518 460.246 140.465 460.664 140.414C461.516 140.312 462.143 140.191 462.545 140.051C462.549 139.906 462.551 139.814 462.551 139.775C462.551 139.346 462.451 139.043 462.252 138.867C461.982 138.629 461.582 138.51 461.051 138.51C460.555 138.51 460.188 138.598 459.949 138.773C459.715 138.945 459.541 139.252 459.428 139.693L458.396 139.553C458.49 139.111 458.645 138.756 458.859 138.486C459.074 138.213 459.385 138.004 459.791 137.859C460.197 137.711 460.668 137.637 461.203 137.637C461.734 137.637 462.166 137.699 462.498 137.824C462.83 137.949 463.074 138.107 463.23 138.299C463.387 138.486 463.496 138.725 463.559 139.014C463.594 139.193 463.611 139.518 463.611 139.986V141.393C463.611 142.373 463.633 142.994 463.676 143.256C463.723 143.514 463.812 143.762 463.945 144H462.844C462.734 143.781 462.664 143.525 462.633 143.232ZM462.545 140.877C462.162 141.033 461.588 141.166 460.822 141.275C460.389 141.338 460.082 141.408 459.902 141.486C459.723 141.564 459.584 141.68 459.486 141.832C459.389 141.98 459.34 142.146 459.34 142.33C459.34 142.611 459.445 142.846 459.656 143.033C459.871 143.221 460.184 143.314 460.594 143.314C461 143.314 461.361 143.227 461.678 143.051C461.994 142.871 462.227 142.627 462.375 142.318C462.488 142.08 462.545 141.729 462.545 141.264V140.877ZM465.258 136.623V135.41H466.312V136.623H465.258ZM465.258 144V137.777H466.312V144H465.258ZM467.9 144V135.41H468.955V144H467.9ZM474.656 143.232C474.266 143.564 473.889 143.799 473.525 143.936C473.166 144.072 472.779 144.141 472.365 144.141C471.682 144.141 471.156 143.975 470.789 143.643C470.422 143.307 470.238 142.879 470.238 142.359C470.238 142.055 470.307 141.777 470.443 141.527C470.584 141.273 470.766 141.07 470.988 140.918C471.215 140.766 471.469 140.65 471.75 140.572C471.957 140.518 472.27 140.465 472.688 140.414C473.539 140.312 474.166 140.191 474.568 140.051C474.572 139.906 474.574 139.814 474.574 139.775C474.574 139.346 474.475 139.043 474.275 138.867C474.006 138.629 473.605 138.51 473.074 138.51C472.578 138.51 472.211 138.598 471.973 138.773C471.738 138.945 471.564 139.252 471.451 139.693L470.42 139.553C470.514 139.111 470.668 138.756 470.883 138.486C471.098 138.213 471.408 138.004 471.814 137.859C472.221 137.711 472.691 137.637 473.227 137.637C473.758 137.637 474.189 137.699 474.521 137.824C474.854 137.949 475.098 138.107 475.254 138.299C475.41 138.486 475.52 138.725 475.582 139.014C475.617 139.193 475.635 139.518 475.635 139.986V141.393C475.635 142.373 475.656 142.994 475.699 143.256C475.746 143.514 475.836 143.762 475.969 144H474.867C474.758 143.781 474.688 143.525 474.656 143.232ZM474.568 140.877C474.186 141.033 473.611 141.166 472.846 141.275C472.412 141.338 472.105 141.408 471.926 141.486C471.746 141.564 471.607 141.68 471.51 141.832C471.412 141.98 471.363 142.146 471.363 142.33C471.363 142.611 471.469 142.846 471.68 143.033C471.895 143.221 472.207 143.314 472.617 143.314C473.023 143.314 473.385 143.227 473.701 143.051C474.018 142.871 474.25 142.627 474.398 142.318C474.512 142.08 474.568 141.729 474.568 141.264V140.877ZM478.248 144H477.27V135.41H478.324V138.475C478.77 137.916 479.338 137.637 480.029 137.637C480.412 137.637 480.773 137.715 481.113 137.871C481.457 138.023 481.738 138.24 481.957 138.521C482.18 138.799 482.354 139.135 482.479 139.529C482.604 139.924 482.666 140.346 482.666 140.795C482.666 141.861 482.402 142.686 481.875 143.268C481.348 143.85 480.715 144.141 479.977 144.141C479.242 144.141 478.666 143.834 478.248 143.221V144ZM478.236 140.842C478.236 141.588 478.338 142.127 478.541 142.459C478.873 143.002 479.322 143.273 479.889 143.273C480.35 143.273 480.748 143.074 481.084 142.676C481.42 142.273 481.588 141.676 481.588 140.883C481.588 140.07 481.426 139.471 481.102 139.084C480.781 138.697 480.393 138.504 479.936 138.504C479.475 138.504 479.076 138.705 478.74 139.107C478.404 139.506 478.236 140.084 478.236 140.842ZM483.932 144V135.41H484.986V144H483.932ZM490.887 141.996L491.977 142.131C491.805 142.768 491.486 143.262 491.021 143.613C490.557 143.965 489.963 144.141 489.24 144.141C488.33 144.141 487.607 143.861 487.072 143.303C486.541 142.74 486.275 141.953 486.275 140.941C486.275 139.895 486.545 139.082 487.084 138.504C487.623 137.926 488.322 137.637 489.182 137.637C490.014 137.637 490.693 137.92 491.221 138.486C491.748 139.053 492.012 139.85 492.012 140.877C492.012 140.939 492.01 141.033 492.006 141.158H487.365C487.404 141.842 487.598 142.365 487.945 142.729C488.293 143.092 488.727 143.273 489.246 143.273C489.633 143.273 489.963 143.172 490.236 142.969C490.51 142.766 490.727 142.441 490.887 141.996ZM487.424 140.291H490.898C490.852 139.768 490.719 139.375 490.5 139.113C490.164 138.707 489.729 138.504 489.193 138.504C488.709 138.504 488.301 138.666 487.969 138.99C487.641 139.314 487.459 139.748 487.424 140.291ZM496.635 144V137.777H497.584V138.721C497.826 138.279 498.049 137.988 498.252 137.848C498.459 137.707 498.686 137.637 498.932 137.637C499.287 137.637 499.648 137.75 500.016 137.977L499.652 138.955C499.395 138.803 499.137 138.727 498.879 138.727C498.648 138.727 498.441 138.797 498.258 138.938C498.074 139.074 497.943 139.266 497.865 139.512C497.748 139.887 497.689 140.297 497.689 140.742V144H496.635ZM500.25 140.889C500.25 139.736 500.57 138.883 501.211 138.328C501.746 137.867 502.398 137.637 503.168 137.637C504.023 137.637 504.723 137.918 505.266 138.48C505.809 139.039 506.08 139.812 506.08 140.801C506.08 141.602 505.959 142.232 505.717 142.693C505.479 143.15 505.129 143.506 504.668 143.76C504.211 144.014 503.711 144.141 503.168 144.141C502.297 144.141 501.592 143.861 501.053 143.303C500.518 142.744 500.25 141.939 500.25 140.889ZM501.334 140.889C501.334 141.686 501.508 142.283 501.855 142.682C502.203 143.076 502.641 143.273 503.168 143.273C503.691 143.273 504.127 143.074 504.475 142.676C504.822 142.277 504.996 141.67 504.996 140.854C504.996 140.084 504.82 139.502 504.469 139.107C504.121 138.709 503.688 138.51 503.168 138.51C502.641 138.51 502.203 138.707 501.855 139.102C501.508 139.496 501.334 140.092 501.334 140.889ZM506.93 140.889C506.93 139.736 507.25 138.883 507.891 138.328C508.426 137.867 509.078 137.637 509.848 137.637C510.703 137.637 511.402 137.918 511.945 138.48C512.488 139.039 512.76 139.812 512.76 140.801C512.76 141.602 512.639 142.232 512.396 142.693C512.158 143.15 511.809 143.506 511.348 143.76C510.891 144.014 510.391 144.141 509.848 144.141C508.977 144.141 508.271 143.861 507.732 143.303C507.197 142.744 506.93 141.939 506.93 140.889ZM508.014 140.889C508.014 141.686 508.188 142.283 508.535 142.682C508.883 143.076 509.32 143.273 509.848 143.273C510.371 143.273 510.807 143.074 511.154 142.676C511.502 142.277 511.676 141.67 511.676 140.854C511.676 140.084 511.5 139.502 511.148 139.107C510.801 138.709 510.367 138.51 509.848 138.51C509.32 138.51 508.883 138.707 508.535 139.102C508.188 139.496 508.014 140.092 508.014 140.889ZM514.002 144V137.777H514.945V138.65C515.141 138.346 515.4 138.102 515.725 137.918C516.049 137.73 516.418 137.637 516.832 137.637C517.293 137.637 517.67 137.732 517.963 137.924C518.26 138.115 518.469 138.383 518.59 138.727C519.082 138 519.723 137.637 520.512 137.637C521.129 137.637 521.604 137.809 521.936 138.152C522.268 138.492 522.434 139.018 522.434 139.729V144H521.385V140.08C521.385 139.658 521.35 139.355 521.279 139.172C521.213 138.984 521.09 138.834 520.91 138.721C520.73 138.607 520.52 138.551 520.277 138.551C519.84 138.551 519.477 138.697 519.188 138.99C518.898 139.279 518.754 139.744 518.754 140.385V144H517.699V139.957C517.699 139.488 517.613 139.137 517.441 138.902C517.27 138.668 516.988 138.551 516.598 138.551C516.301 138.551 516.025 138.629 515.771 138.785C515.521 138.941 515.34 139.17 515.227 139.471C515.113 139.771 515.057 140.205 515.057 140.771V144H514.002ZM523.576 142.143L524.619 141.979C524.678 142.396 524.84 142.717 525.105 142.939C525.375 143.162 525.75 143.273 526.23 143.273C526.715 143.273 527.074 143.176 527.309 142.98C527.543 142.781 527.66 142.549 527.66 142.283C527.66 142.045 527.557 141.857 527.35 141.721C527.205 141.627 526.846 141.508 526.271 141.363C525.498 141.168 524.961 141 524.66 140.859C524.363 140.715 524.137 140.518 523.98 140.268C523.828 140.014 523.752 139.734 523.752 139.43C523.752 139.152 523.814 138.896 523.939 138.662C524.068 138.424 524.242 138.227 524.461 138.07C524.625 137.949 524.848 137.848 525.129 137.766C525.414 137.68 525.719 137.637 526.043 137.637C526.531 137.637 526.959 137.707 527.326 137.848C527.697 137.988 527.971 138.18 528.146 138.422C528.322 138.66 528.443 138.98 528.51 139.383L527.479 139.523C527.432 139.203 527.295 138.953 527.068 138.773C526.846 138.594 526.529 138.504 526.119 138.504C525.635 138.504 525.289 138.584 525.082 138.744C524.875 138.904 524.771 139.092 524.771 139.307C524.771 139.443 524.814 139.566 524.9 139.676C524.986 139.789 525.121 139.883 525.305 139.957C525.41 139.996 525.721 140.086 526.236 140.227C526.982 140.426 527.502 140.59 527.795 140.719C528.092 140.844 528.324 141.027 528.492 141.27C528.66 141.512 528.744 141.812 528.744 142.172C528.744 142.523 528.641 142.855 528.434 143.168C528.23 143.477 527.936 143.717 527.549 143.889C527.162 144.057 526.725 144.141 526.236 144.141C525.428 144.141 524.811 143.973 524.385 143.637C523.963 143.301 523.693 142.803 523.576 142.143Z" fill="black"/>
<rect x="513.5" y="180.5" width="60" height="17" rx="8.5" fill="white"/>
<rect x="513.5" y="180.5" width="60" height="17" rx="8.5" stroke="#7F7F7F"/>
<path d="M530.379 193V184.41H533.602C534.258 184.41 534.783 184.498 535.178 184.674C535.576 184.846 535.887 185.113 536.109 185.477C536.336 185.836 536.449 186.213 536.449 186.607C536.449 186.975 536.35 187.32 536.15 187.645C535.951 187.969 535.65 188.23 535.248 188.43C535.768 188.582 536.166 188.842 536.443 189.209C536.725 189.576 536.865 190.01 536.865 190.51C536.865 190.912 536.779 191.287 536.607 191.635C536.439 191.979 536.23 192.244 535.98 192.432C535.73 192.619 535.416 192.762 535.037 192.859C534.662 192.953 534.201 193 533.654 193H530.379ZM531.516 188.02H533.373C533.877 188.02 534.238 187.986 534.457 187.92C534.746 187.834 534.963 187.691 535.107 187.492C535.256 187.293 535.33 187.043 535.33 186.742C535.33 186.457 535.262 186.207 535.125 185.992C534.988 185.773 534.793 185.625 534.539 185.547C534.285 185.465 533.85 185.424 533.232 185.424H531.516V188.02ZM531.516 191.986H533.654C534.021 191.986 534.279 191.973 534.428 191.945C534.689 191.898 534.908 191.82 535.084 191.711C535.26 191.602 535.404 191.443 535.518 191.236C535.631 191.025 535.688 190.783 535.688 190.51C535.688 190.189 535.605 189.912 535.441 189.678C535.277 189.439 535.049 189.273 534.756 189.18C534.467 189.082 534.049 189.033 533.502 189.033H531.516V191.986ZM537.902 189.889C537.902 188.736 538.223 187.883 538.863 187.328C539.398 186.867 540.051 186.637 540.82 186.637C541.676 186.637 542.375 186.918 542.918 187.48C543.461 188.039 543.732 188.812 543.732 189.801C543.732 190.602 543.611 191.232 543.369 191.693C543.131 192.15 542.781 192.506 542.32 192.76C541.863 193.014 541.363 193.141 540.82 193.141C539.949 193.141 539.244 192.861 538.705 192.303C538.17 191.744 537.902 190.939 537.902 189.889ZM538.986 189.889C538.986 190.686 539.16 191.283 539.508 191.682C539.855 192.076 540.293 192.273 540.82 192.273C541.344 192.273 541.779 192.074 542.127 191.676C542.475 191.277 542.648 190.67 542.648 189.854C542.648 189.084 542.473 188.502 542.121 188.107C541.773 187.709 541.34 187.51 540.82 187.51C540.293 187.51 539.855 187.707 539.508 188.102C539.16 188.496 538.986 189.092 538.986 189.889ZM544.582 189.889C544.582 188.736 544.902 187.883 545.543 187.328C546.078 186.867 546.73 186.637 547.5 186.637C548.355 186.637 549.055 186.918 549.598 187.48C550.141 188.039 550.412 188.812 550.412 189.801C550.412 190.602 550.291 191.232 550.049 191.693C549.811 192.15 549.461 192.506 549 192.76C548.543 193.014 548.043 193.141 547.5 193.141C546.629 193.141 545.924 192.861 545.385 192.303C544.85 191.744 544.582 190.939 544.582 189.889ZM545.666 189.889C545.666 190.686 545.84 191.283 546.188 191.682C546.535 192.076 546.973 192.273 547.5 192.273C548.023 192.273 548.459 192.074 548.807 191.676C549.154 191.277 549.328 190.67 549.328 189.854C549.328 189.084 549.152 188.502 548.801 188.107C548.453 187.709 548.02 187.51 547.5 187.51C546.973 187.51 546.535 187.707 546.188 188.102C545.84 188.496 545.666 189.092 545.666 189.889ZM551.66 193V184.41H552.715V189.309L555.211 186.777H556.576L554.197 189.086L556.816 193H555.516L553.459 189.818L552.715 190.533V193H551.66Z" fill="black"/>
<rect x="513.5" y="242.5" width="60" height="17" rx="8.5" fill="white"/>
<rect x="513.5" y="242.5" width="60" height="17" rx="8.5" stroke="#7F7F7F"/>
<path d="M530.379 255V246.41H533.602C534.258 246.41 534.783 246.498 535.178 246.674C535.576 246.846 535.887 247.113 536.109 247.477C536.336 247.836 536.449 248.213 536.449 248.607C536.449 248.975 536.35 249.32 536.15 249.645C535.951 249.969 535.65 250.23 535.248 250.43C535.768 250.582 536.166 250.842 536.443 251.209C536.725 251.576 536.865 252.01 536.865 252.51C536.865 252.912 536.779 253.287 536.607 253.635C536.439 253.979 536.23 254.244 535.98 254.432C535.73 254.619 535.416 254.762 535.037 254.859C534.662 254.953 534.201 255 533.654 255H530.379ZM531.516 250.02H533.373C533.877 250.02 534.238 249.986 534.457 249.92C534.746 249.834 534.963 249.691 535.107 249.492C535.256 249.293 535.33 249.043 535.33 248.742C535.33 248.457 535.262 248.207 535.125 247.992C534.988 247.773 534.793 247.625 534.539 247.547C534.285 247.465 533.85 247.424 533.232 247.424H531.516V250.02ZM531.516 253.986H533.654C534.021 253.986 534.279 253.973 534.428 253.945C534.689 253.898 534.908 253.82 535.084 253.711C535.26 253.602 535.404 253.443 535.518 253.236C535.631 253.025 535.688 252.783 535.688 252.51C535.688 252.189 535.605 251.912 535.441 251.678C535.277 251.439 535.049 251.273 534.756 251.18C534.467 251.082 534.049 251.033 533.502 251.033H531.516V253.986ZM537.902 251.889C537.902 250.736 538.223 249.883 538.863 249.328C539.398 248.867 540.051 248.637 540.82 248.637C541.676 248.637 542.375 248.918 542.918 249.48C543.461 250.039 543.732 250.812 543.732 251.801C543.732 252.602 543.611 253.232 543.369 253.693C543.131 254.15 542.781 254.506 542.32 254.76C541.863 255.014 541.363 255.141 540.82 255.141C539.949 255.141 539.244 254.861 538.705 254.303C538.17 253.744 537.902 252.939 537.902 251.889ZM538.986 251.889C538.986 252.686 539.16 253.283 539.508 253.682C539.855 254.076 540.293 254.273 540.82 254.273C541.344 254.273 541.779 254.074 542.127 253.676C542.475 253.277 542.648 252.67 542.648 251.854C542.648 251.084 542.473 250.502 542.121 250.107C541.773 249.709 541.34 249.51 540.82 249.51C540.293 249.51 539.855 249.707 539.508 250.102C539.16 250.496 538.986 251.092 538.986 251.889ZM544.582 251.889C544.582 250.736 544.902 249.883 545.543 249.328C546.078 248.867 546.73 248.637 547.5 248.637C548.355 248.637 549.055 248.918 549.598 249.48C550.141 250.039 550.412 250.812 550.412 251.801C550.412 252.602 550.291 253.232 550.049 253.693C549.811 254.15 549.461 254.506 549 254.76C548.543 255.014 548.043 255.141 547.5 255.141C546.629 255.141 545.924 254.861 545.385 254.303C544.85 253.744 544.582 252.939 544.582 251.889ZM545.666 251.889C545.666 252.686 545.84 253.283 546.188 253.682C546.535 254.076 546.973 254.273 547.5 254.273C548.023 254.273 548.459 254.074 548.807 253.676C549.154 253.277 549.328 252.67 549.328 251.854C549.328 251.084 549.152 250.502 548.801 250.107C548.453 249.709 548.02 249.51 547.5 249.51C546.973 249.51 546.535 249.707 546.188 250.102C545.84 250.496 545.666 251.092 545.666 251.889ZM551.66 255V246.41H552.715V251.309L555.211 248.777H556.576L554.197 251.086L556.816 255H555.516L553.459 251.818L552.715 252.533V255H551.66Z" fill="black"/>
<path d="M424.283 73.0458C424.511 72.8896 424.569 72.5784 424.412 72.3507L421.867 68.6399C421.711 68.4121 421.399 68.3542 421.172 68.5104C420.944 68.6666 420.886 68.9778 421.042 69.2055L423.305 72.504L420.006 74.7667C419.779 74.923 419.721 75.2342 419.877 75.4619C420.033 75.6896 420.344 75.7476 420.572 75.5914L424.283 73.0458ZM345.333 106C345.333 107.473 346.527 108.667 348 108.667C349.473 108.667 350.667 107.473 350.667 106C350.667 104.527 349.473 103.333 348 103.333C346.527 103.333 345.333 104.527 345.333 106ZM424 72.6335L424.092 72.142C414.578 70.37 407.421 69.5588 402.036 69.5031C396.659 69.4475 393.001 70.144 390.52 71.4314C388.008 72.7346 386.739 74.6242 386.113 76.8338C385.496 79.007 385.5 81.4991 385.5 84.0085C385.5 89.0901 385.479 94.3562 380.917 98.4226C376.316 102.524 366.986 105.5 348 105.5V106V106.5C367.014 106.5 376.684 103.536 381.583 99.1691C386.521 94.7676 386.5 89.0378 386.5 84.0085C386.5 81.4623 386.504 79.12 387.075 77.1067C387.636 75.1296 388.742 73.4804 390.98 72.319C393.249 71.1418 396.716 70.4481 402.026 70.503C407.329 70.5579 414.422 71.3582 423.908 73.1251L424 72.6335Z" fill="black"/>
<rect x="20.5" y="49.5" width="130" height="27" rx="13.5" fill="white" stroke="#7F7F7F"/>
<path d="M67.0195 64.2402L68.0918 64.1465C68.1426 64.5762 68.2598 64.9297 68.4434 65.207C68.6309 65.4805 68.9199 65.7031 69.3105 65.875C69.7012 66.043 70.1406 66.127 70.6289 66.127C71.0625 66.127 71.4453 66.0625 71.7773 65.9336C72.1094 65.8047 72.3555 65.6289 72.5156 65.4062C72.6797 65.1797 72.7617 64.9336 72.7617 64.668C72.7617 64.3984 72.6836 64.1641 72.5273 63.9648C72.3711 63.7617 72.1133 63.5918 71.7539 63.4551C71.5234 63.3652 71.0137 63.2266 70.2246 63.0391C69.4355 62.8477 68.8828 62.668 68.5664 62.5C68.1562 62.2852 67.8496 62.0195 67.6465 61.7031C67.4473 61.3828 67.3477 61.0254 67.3477 60.6309C67.3477 60.1973 67.4707 59.793 67.7168 59.418C67.9629 59.0391 68.3223 58.752 68.7949 58.5566C69.2676 58.3613 69.793 58.2637 70.3711 58.2637C71.0078 58.2637 71.5684 58.3672 72.0527 58.5742C72.541 58.7773 72.916 59.0781 73.1777 59.4766C73.4395 59.875 73.5801 60.3262 73.5996 60.8301L72.5098 60.9121C72.4512 60.3691 72.252 59.959 71.9121 59.6816C71.5762 59.4043 71.0781 59.2656 70.418 59.2656C69.7305 59.2656 69.2285 59.3926 68.9121 59.6465C68.5996 59.8965 68.4434 60.1992 68.4434 60.5547C68.4434 60.8633 68.5547 61.1172 68.7773 61.3164C68.9961 61.5156 69.5664 61.7207 70.4883 61.9316C71.4141 62.1387 72.0488 62.3203 72.3926 62.4766C72.8926 62.707 73.2617 63 73.5 63.3555C73.7383 63.707 73.8574 64.1133 73.8574 64.5742C73.8574 65.0312 73.7266 65.4629 73.4648 65.8691C73.2031 66.2715 72.8262 66.5859 72.334 66.8125C71.8457 67.0352 71.2949 67.1465 70.6816 67.1465C69.9043 67.1465 69.252 67.0332 68.7246 66.8066C68.2012 66.5801 67.7891 66.2402 67.4883 65.7871C67.1914 65.3301 67.0352 64.8145 67.0195 64.2402ZM79.5352 64.9961L80.625 65.1309C80.4531 65.7676 80.1348 66.2617 79.6699 66.6133C79.2051 66.9648 78.6113 67.1406 77.8887 67.1406C76.9785 67.1406 76.2559 66.8613 75.7207 66.3027C75.1895 65.7402 74.9238 64.9531 74.9238 63.9414C74.9238 62.8945 75.1934 62.082 75.7324 61.5039C76.2715 60.9258 76.9707 60.6367 77.8301 60.6367C78.6621 60.6367 79.3418 60.9199 79.8691 61.4863C80.3965 62.0527 80.6602 62.8496 80.6602 63.877C80.6602 63.9395 80.6582 64.0332 80.6543 64.1582H76.0137C76.0527 64.8418 76.2461 65.3652 76.5938 65.7285C76.9414 66.0918 77.375 66.2734 77.8945 66.2734C78.2812 66.2734 78.6113 66.1719 78.8848 65.9688C79.1582 65.7656 79.375 65.4414 79.5352 64.9961ZM76.0723 63.291H79.5469C79.5 62.7676 79.3672 62.375 79.1484 62.1133C78.8125 61.707 78.377 61.5039 77.8418 61.5039C77.3574 61.5039 76.9492 61.666 76.6172 61.9902C76.2891 62.3145 76.1074 62.748 76.0723 63.291ZM86.0156 66.2324C85.625 66.5645 85.248 66.7988 84.8848 66.9355C84.5254 67.0723 84.1387 67.1406 83.7246 67.1406C83.041 67.1406 82.5156 66.9746 82.1484 66.6426C81.7812 66.3066 81.5977 65.8789 81.5977 65.3594C81.5977 65.0547 81.666 64.7773 81.8027 64.5273C81.9434 64.2734 82.125 64.0703 82.3477 63.918C82.5742 63.7656 82.8281 63.6504 83.1094 63.5723C83.3164 63.5176 83.6289 63.4648 84.0469 63.4141C84.8984 63.3125 85.5254 63.1914 85.9277 63.0508C85.9316 62.9062 85.9336 62.8145 85.9336 62.7754C85.9336 62.3457 85.834 62.043 85.6348 61.8672C85.3652 61.6289 84.9648 61.5098 84.4336 61.5098C83.9375 61.5098 83.5703 61.5977 83.332 61.7734C83.0977 61.9453 82.9238 62.252 82.8105 62.6934L81.7793 62.5527C81.873 62.1113 82.0273 61.7559 82.2422 61.4863C82.457 61.2129 82.7676 61.0039 83.1738 60.8594C83.5801 60.7109 84.0508 60.6367 84.5859 60.6367C85.1172 60.6367 85.5488 60.6992 85.8809 60.8242C86.2129 60.9492 86.457 61.1074 86.6133 61.2988C86.7695 61.4863 86.8789 61.7246 86.9414 62.0137C86.9766 62.1934 86.9941 62.5176 86.9941 62.9863V64.3926C86.9941 65.373 87.0156 65.9941 87.0586 66.2559C87.1055 66.5137 87.1953 66.7617 87.3281 67H86.2266C86.1172 66.7812 86.0469 66.5254 86.0156 66.2324ZM85.9277 63.877C85.5449 64.0332 84.9707 64.166 84.2051 64.2754C83.7715 64.3379 83.4648 64.4082 83.2852 64.4863C83.1055 64.5645 82.9668 64.6797 82.8691 64.832C82.7715 64.9805 82.7227 65.1465 82.7227 65.3301C82.7227 65.6113 82.8281 65.8457 83.0391 66.0332C83.2539 66.2207 83.5664 66.3145 83.9766 66.3145C84.3828 66.3145 84.7441 66.2266 85.0605 66.0508C85.377 65.8711 85.6094 65.627 85.7578 65.3184C85.8711 65.0801 85.9277 64.7285 85.9277 64.2637V63.877ZM88.623 67V60.7773H89.5723V61.7207C89.8145 61.2793 90.0371 60.9883 90.2402 60.8477C90.4473 60.707 90.6738 60.6367 90.9199 60.6367C91.2754 60.6367 91.6367 60.75 92.0039 60.9766L91.6406 61.9551C91.3828 61.8027 91.125 61.7266 90.8672 61.7266C90.6367 61.7266 90.4297 61.7969 90.2461 61.9375C90.0625 62.0742 89.9316 62.2656 89.8535 62.5117C89.7363 62.8867 89.6777 63.2969 89.6777 63.7422V67H88.623ZM96.6914 64.7207L97.7285 64.8555C97.6152 65.5703 97.3242 66.1309 96.8555 66.5371C96.3906 66.9395 95.8184 67.1406 95.1387 67.1406C94.2871 67.1406 93.6016 66.8633 93.082 66.3086C92.5664 65.75 92.3086 64.9512 92.3086 63.9121C92.3086 63.2402 92.4199 62.6523 92.6426 62.1484C92.8652 61.6445 93.2031 61.2676 93.6562 61.0176C94.1133 60.7637 94.6094 60.6367 95.1445 60.6367C95.8203 60.6367 96.373 60.8086 96.8027 61.1523C97.2324 61.4922 97.5078 61.9766 97.6289 62.6055L96.6035 62.7637C96.5059 62.3457 96.332 62.0312 96.082 61.8203C95.8359 61.6094 95.5371 61.5039 95.1855 61.5039C94.6543 61.5039 94.2227 61.6953 93.8906 62.0781C93.5586 62.457 93.3926 63.0586 93.3926 63.8828C93.3926 64.7188 93.5527 65.3262 93.873 65.7051C94.1934 66.084 94.6113 66.2734 95.127 66.2734C95.541 66.2734 95.8867 66.1465 96.1641 65.8926C96.4414 65.6387 96.6172 65.248 96.6914 64.7207ZM98.6309 67V58.4102H99.6855V61.4922C100.178 60.9219 100.799 60.6367 101.549 60.6367C102.01 60.6367 102.41 60.7285 102.75 60.9121C103.09 61.0918 103.332 61.3418 103.477 61.6621C103.625 61.9824 103.699 62.4473 103.699 63.0566V67H102.645V63.0566C102.645 62.5293 102.529 62.1465 102.299 61.9082C102.072 61.666 101.75 61.5449 101.332 61.5449C101.02 61.5449 100.725 61.627 100.447 61.791C100.174 61.9512 99.9785 62.1699 99.8613 62.4473C99.7441 62.7246 99.6855 63.1074 99.6855 63.5957V67H98.6309Z" fill="black"/>
<rect x="23.5" y="22.5" width="127" height="7" rx="1.5" fill="#D9D9D9" stroke="#7F7F7F"/>
<rect x="233.5" y="40.5" width="127" height="7" rx="1.5" fill="#D9D9D9" stroke="#7F7F7F"/>
<rect x="446.5" y="40.5" width="127" height="7" rx="1.5" fill="#D9D9D9" stroke="#7F7F7F"/>
<rect x="446.5" y="67.5" width="127" height="7" rx="1.5" fill="#D9D9D9" stroke="#7F7F7F"/>
<rect x="446.5" y="101.5" width="127" height="7" rx="1.5" fill="#D9D9D9" stroke="#7F7F7F"/>
<rect x="446.5" y="115.5" width="127" height="7" rx="1.5" fill="#D9D9D9" stroke="#7F7F7F"/>
<rect x="23.5" y="35.5" width="60" height="7" rx="1.5" fill="#D9D9D9" stroke="#7F7F7F"/>
<rect x="233.5" y="53.5" width="60" height="7" rx="1.5" fill="#D9D9D9" stroke="#7F7F7F"/>
<rect x="446.5" y="53.5" width="60" height="7" rx="1.5" fill="#D9D9D9" stroke="#7F7F7F"/>
<rect x="90.5" y="35.5" width="60" height="7" rx="1.5" fill="#D9D9D9" stroke="#7F7F7F"/>
<rect x="300.5" y="53.5" width="60" height="7" rx="1.5" fill="#D9D9D9" stroke="#7F7F7F"/>
<rect x="513.5" y="53.5" width="60" height="7" rx="1.5" fill="#D9D9D9" stroke="#7F7F7F"/>
<rect x="61.5" y="121.5" width="89" height="7" rx="1.5" fill="#D9D9D9" stroke="#7F7F7F"/>
<rect x="272.5" y="81.5" width="89" height="7" rx="1.5" fill="#D9D9D9" stroke="#7F7F7F"/>
<rect x="485.5" y="163.5" width="89" height="7" rx="1.5" fill="#D9D9D9" stroke="#7F7F7F"/>
<rect x="485.5" y="225.5" width="89" height="7" rx="1.5" fill="#D9D9D9" stroke="#7F7F7F"/>
<rect x="272.5" y="156.5" width="89" height="7" rx="1.5" fill="#D9D9D9" stroke="#7F7F7F"/>
<rect x="272.5" y="231.5" width="89" height="7" rx="1.5" fill="#D9D9D9" stroke="#7F7F7F"/>
<rect x="61.5" y="198.5" width="89" height="7" rx="1.5" fill="#D9D9D9" stroke="#7F7F7F"/>
<rect x="61.5" y="135.5" width="61" height="7" rx="1.5" fill="#D9D9D9" stroke="#7F7F7F"/>
<rect x="272.5" y="95.5" width="61" height="7" rx="1.5" fill="#D9D9D9" stroke="#7F7F7F"/>
<rect x="272.5" y="170.5" width="61" height="7" rx="1.5" fill="#D9D9D9" stroke="#7F7F7F"/>
<rect x="272.5" y="245.5" width="61" height="7" rx="1.5" fill="#D9D9D9" stroke="#7F7F7F"/>
<rect x="61.5" y="212.5" width="61" height="7" rx="1.5" fill="#D9D9D9" stroke="#7F7F7F"/>
<rect x="61.5" y="149.5" width="61" height="7" rx="1.5" fill="#D9D9D9" stroke="#7F7F7F"/>
<rect x="272.5" y="109.5" width="61" height="7" rx="1.5" fill="#D9D9D9" stroke="#7F7F7F"/>
<rect x="272.5" y="184.5" width="61" height="7" rx="1.5" fill="#D9D9D9" stroke="#7F7F7F"/>
<rect x="272.5" y="259.5" width="61" height="7" rx="1.5" fill="#D9D9D9" stroke="#7F7F7F"/>
<rect x="61.5" y="226.5" width="61" height="7" rx="1.5" fill="#D9D9D9" stroke="#7F7F7F"/>
<rect x="23.5" y="119.5" width="30" height="49" rx="1.5" fill="#D9D9D9" stroke="#7F7F7F"/>
<rect x="234.5" y="79.5" width="30" height="49" rx="1.5" fill="#D9D9D9" stroke="#7F7F7F"/>
<rect x="447.5" y="161.5" width="30" height="36" rx="1.5" fill="#D9D9D9" stroke="#7F7F7F"/>
<rect x="447.5" y="223.5" width="30" height="36" rx="1.5" fill="#D9D9D9" stroke="#7F7F7F"/>
<rect x="234.5" y="154.5" width="30" height="49" rx="1.5" fill="#D9D9D9" stroke="#7F7F7F"/>
<rect x="234.5" y="229.5" width="30" height="49" rx="1.5" fill="#D9D9D9" stroke="#7F7F7F"/>
<rect x="23.5" y="196.5" width="30" height="49" rx="1.5" fill="#D9D9D9" stroke="#7F7F7F"/>
<path d="M213.314 45.3892C213.529 45.216 213.563 44.9012 213.389 44.6862L210.567 41.1813C210.394 40.9663 210.079 40.9323 209.864 41.1055C209.649 41.2787 209.615 41.5935 209.788 41.8085L212.297 44.9239L209.182 47.4328C208.966 47.606 208.933 47.9207 209.106 48.1358C209.279 48.3509 209.594 48.3848 209.809 48.2116L213.314 45.3892ZM141.333 64.9998C141.333 66.4725 142.527 67.6664 144 67.6664C145.473 67.6664 146.667 66.4725 146.667 64.9998C146.667 63.527 145.473 62.3331 144 62.3331C142.527 62.3331 141.333 63.527 141.333 64.9998ZM213 44.9998L213.054 44.5026C200.3 43.1271 193.467 43.6724 189.441 45.3425C185.348 47.0405 184.197 49.8931 182.743 52.7077C182.015 54.1173 181.209 55.5314 179.928 56.8765C178.649 58.219 176.878 59.512 174.204 60.6406C168.837 62.9056 159.856 64.4998 144 64.4998V64.9998V65.4998C159.894 65.4998 169.038 63.9064 174.593 61.5619C177.379 60.3859 179.269 59.0187 180.652 57.5662C182.033 56.1164 182.891 54.6007 183.632 53.1666C185.116 50.2937 186.121 47.8025 189.824 46.2662C193.595 44.7019 200.2 44.1223 212.946 45.4969L213 44.9998Z" fill="black"/>
<defs>
<clipPath id="clip0_3_1696">
<rect width="14" height="14" fill="white" transform="translate(130 157)"/>
</clipPath>
<clipPath id="clip1_3_1696">
<rect width="14" height="14" fill="white" transform="translate(341 117)"/>
</clipPath>
<clipPath id="clip2_3_1696">
<rect width="14" height="14" fill="white" transform="translate(341 192)"/>
</clipPath>
<clipPath id="clip3_3_1696">
<rect width="14" height="14" fill="white" transform="translate(341 267)"/>
</clipPath>
<clipPath id="clip4_3_1696">
<rect width="14" height="14" fill="white" transform="translate(130 234)"/>
</clipPath>
</defs>
</svg>
