<svg width="478" height="245" viewBox="0 0 478 245" fill="none" xmlns="http://www.w3.org/2000/svg">
<rect width="478" height="245" fill="white"/>
<path d="M22 21.5H456C466.77 21.5 475.5 30.2304 475.5 41V223C475.5 233.77 466.77 242.5 456 242.5H22C11.2304 242.5 2.5 233.77 2.5 223V41C2.5 30.2304 11.2304 21.5 22 21.5Z" fill="white" stroke="black"/>
<rect opacity="0.3" x="9.5" y="30.5" width="460" height="204" rx="13.5" stroke="black" stroke-dasharray="2 2"/>
<path d="M180 77.5H273C274.933 77.5 276.5 79.067 276.5 81V133C276.5 134.933 274.933 136.5 273 136.5H180C178.067 136.5 176.5 134.933 176.5 133V81C176.5 79.067 178.067 77.5 180 77.5Z" fill="white"/>
<path d="M180 77.5H273C274.933 77.5 276.5 79.067 276.5 81V133C276.5 134.933 274.933 136.5 273 136.5H180C178.067 136.5 176.5 134.933 176.5 133V81C176.5 79.067 178.067 77.5 180 77.5Z" stroke="black"/>
<path d="M221.893 104L225.769 98.7773L222.351 93.9785H223.93L225.748 96.5488C226.126 97.082 226.395 97.4922 226.555 97.7793C226.778 97.4147 227.042 97.0342 227.348 96.6377L229.364 93.9785H230.807L227.286 98.7021L231.08 104H229.439L226.917 100.425C226.776 100.22 226.63 99.9964 226.479 99.7549C226.256 100.119 226.097 100.37 226.001 100.507L223.485 104H221.893ZM194.118 120V109.979H198.562C199.455 109.979 200.134 110.07 200.599 110.252C201.063 110.43 201.435 110.746 201.713 111.202C201.991 111.658 202.13 112.161 202.13 112.713C202.13 113.424 201.9 114.023 201.439 114.511C200.979 114.998 200.268 115.308 199.307 115.44C199.658 115.609 199.924 115.775 200.106 115.939C200.494 116.295 200.861 116.739 201.207 117.272L202.95 120H201.282L199.956 117.915C199.569 117.313 199.25 116.853 198.999 116.534C198.748 116.215 198.523 115.992 198.322 115.864C198.126 115.737 197.926 115.648 197.721 115.598C197.57 115.566 197.324 115.55 196.982 115.55H195.444V120H194.118ZM195.444 114.401H198.295C198.901 114.401 199.375 114.34 199.717 114.217C200.059 114.089 200.318 113.889 200.496 113.615C200.674 113.337 200.763 113.036 200.763 112.713C200.763 112.239 200.59 111.849 200.243 111.544C199.901 111.239 199.359 111.086 198.616 111.086H195.444V114.401ZM209.027 117.662L210.299 117.819C210.098 118.562 209.727 119.139 209.185 119.549C208.642 119.959 207.95 120.164 207.106 120.164C206.045 120.164 205.201 119.838 204.577 119.187C203.957 118.53 203.647 117.612 203.647 116.432C203.647 115.21 203.962 114.262 204.591 113.588C205.22 112.913 206.035 112.576 207.038 112.576C208.009 112.576 208.802 112.907 209.417 113.567C210.032 114.228 210.34 115.158 210.34 116.356C210.34 116.429 210.338 116.539 210.333 116.685H204.919C204.965 117.482 205.19 118.093 205.596 118.517C206.001 118.94 206.507 119.152 207.113 119.152C207.564 119.152 207.95 119.034 208.269 118.797C208.588 118.56 208.84 118.182 209.027 117.662ZM204.987 115.673H209.041C208.986 115.062 208.831 114.604 208.576 114.299C208.184 113.825 207.676 113.588 207.052 113.588C206.487 113.588 206.01 113.777 205.623 114.155C205.24 114.534 205.028 115.039 204.987 115.673ZM211.851 122.782V112.74H212.972V113.684C213.236 113.314 213.535 113.039 213.867 112.856C214.2 112.67 214.603 112.576 215.077 112.576C215.697 112.576 216.244 112.736 216.718 113.055C217.192 113.374 217.549 113.825 217.791 114.408C218.033 114.987 218.153 115.623 218.153 116.315C218.153 117.058 218.019 117.728 217.75 118.325C217.486 118.918 217.098 119.373 216.588 119.692C216.082 120.007 215.549 120.164 214.988 120.164C214.578 120.164 214.209 120.077 213.881 119.904C213.557 119.731 213.291 119.512 213.081 119.248V122.782H211.851ZM212.965 116.411C212.965 117.345 213.154 118.036 213.532 118.482C213.91 118.929 214.368 119.152 214.906 119.152C215.453 119.152 215.92 118.922 216.308 118.462C216.7 117.997 216.896 117.279 216.896 116.309C216.896 115.383 216.704 114.691 216.321 114.23C215.943 113.77 215.49 113.54 214.961 113.54C214.437 113.54 213.972 113.786 213.566 114.278C213.165 114.766 212.965 115.477 212.965 116.411ZM219.186 116.37C219.186 115.026 219.559 114.03 220.307 113.383C220.931 112.845 221.692 112.576 222.59 112.576C223.588 112.576 224.404 112.904 225.037 113.561C225.671 114.212 225.987 115.115 225.987 116.268C225.987 117.202 225.846 117.938 225.563 118.476C225.285 119.009 224.878 119.424 224.34 119.72C223.807 120.016 223.223 120.164 222.59 120.164C221.574 120.164 220.751 119.838 220.122 119.187C219.498 118.535 219.186 117.596 219.186 116.37ZM220.45 116.37C220.45 117.3 220.653 117.997 221.059 118.462C221.464 118.922 221.975 119.152 222.59 119.152C223.201 119.152 223.709 118.92 224.114 118.455C224.52 117.99 224.723 117.282 224.723 116.329C224.723 115.431 224.518 114.752 224.107 114.292C223.702 113.827 223.196 113.595 222.59 113.595C221.975 113.595 221.464 113.825 221.059 114.285C220.653 114.745 220.45 115.44 220.45 116.37ZM226.944 117.833L228.161 117.642C228.229 118.129 228.419 118.503 228.729 118.763C229.043 119.022 229.48 119.152 230.041 119.152C230.606 119.152 231.025 119.038 231.299 118.811C231.572 118.578 231.709 118.307 231.709 117.997C231.709 117.719 231.588 117.5 231.347 117.341C231.178 117.231 230.759 117.092 230.089 116.924C229.187 116.696 228.56 116.5 228.209 116.336C227.863 116.167 227.598 115.937 227.416 115.646C227.238 115.349 227.149 115.023 227.149 114.668C227.149 114.344 227.222 114.046 227.368 113.772C227.519 113.494 227.721 113.264 227.977 113.082C228.168 112.941 228.428 112.822 228.756 112.727C229.089 112.626 229.444 112.576 229.822 112.576C230.392 112.576 230.891 112.658 231.319 112.822C231.752 112.986 232.071 113.21 232.276 113.492C232.481 113.77 232.623 114.144 232.7 114.613L231.497 114.777C231.442 114.404 231.283 114.112 231.019 113.902C230.759 113.693 230.39 113.588 229.911 113.588C229.346 113.588 228.943 113.681 228.701 113.868C228.46 114.055 228.339 114.274 228.339 114.524C228.339 114.684 228.389 114.827 228.489 114.955C228.59 115.087 228.747 115.197 228.961 115.283C229.084 115.329 229.446 115.434 230.048 115.598C230.918 115.83 231.524 116.021 231.866 116.172C232.213 116.318 232.484 116.532 232.68 116.814C232.876 117.097 232.974 117.448 232.974 117.867C232.974 118.277 232.853 118.665 232.611 119.029C232.374 119.389 232.03 119.67 231.579 119.87C231.128 120.066 230.618 120.164 230.048 120.164C229.104 120.164 228.384 119.968 227.888 119.576C227.396 119.184 227.081 118.603 226.944 117.833ZM234.443 111.394V109.979H235.674V111.394H234.443ZM234.443 120V112.74H235.674V120H234.443ZM240.24 118.899L240.418 119.986C240.072 120.059 239.762 120.096 239.488 120.096C239.042 120.096 238.695 120.025 238.449 119.884C238.203 119.743 238.03 119.558 237.93 119.33C237.829 119.098 237.779 118.612 237.779 117.874V113.697H236.877V112.74H237.779V110.942L239.003 110.204V112.74H240.24V113.697H239.003V117.942C239.003 118.293 239.023 118.519 239.064 118.619C239.11 118.719 239.181 118.799 239.276 118.858C239.377 118.918 239.518 118.947 239.7 118.947C239.837 118.947 240.017 118.931 240.24 118.899ZM240.992 116.37C240.992 115.026 241.366 114.03 242.113 113.383C242.738 112.845 243.499 112.576 244.396 112.576C245.395 112.576 246.21 112.904 246.844 113.561C247.477 114.212 247.794 115.115 247.794 116.268C247.794 117.202 247.653 117.938 247.37 118.476C247.092 119.009 246.684 119.424 246.146 119.72C245.613 120.016 245.03 120.164 244.396 120.164C243.38 120.164 242.558 119.838 241.929 119.187C241.304 118.535 240.992 117.596 240.992 116.37ZM242.257 116.37C242.257 117.3 242.46 117.997 242.865 118.462C243.271 118.922 243.781 119.152 244.396 119.152C245.007 119.152 245.515 118.92 245.921 118.455C246.326 117.99 246.529 117.282 246.529 116.329C246.529 115.431 246.324 114.752 245.914 114.292C245.508 113.827 245.003 113.595 244.396 113.595C243.781 113.595 243.271 113.825 242.865 114.285C242.46 114.745 242.257 115.44 242.257 116.37ZM249.229 120V112.74H250.337V113.841C250.619 113.326 250.879 112.986 251.116 112.822C251.358 112.658 251.622 112.576 251.909 112.576C252.324 112.576 252.745 112.708 253.174 112.973L252.75 114.114C252.449 113.937 252.148 113.848 251.848 113.848C251.579 113.848 251.337 113.93 251.123 114.094C250.909 114.253 250.756 114.477 250.665 114.764C250.528 115.201 250.46 115.68 250.46 116.199V120H249.229ZM253.851 122.796L253.714 121.641C253.983 121.714 254.217 121.75 254.418 121.75C254.691 121.75 254.91 121.704 255.074 121.613C255.238 121.522 255.373 121.395 255.478 121.23C255.555 121.107 255.68 120.802 255.854 120.314C255.876 120.246 255.913 120.146 255.963 120.014L253.208 112.74H254.534L256.045 116.944C256.241 117.478 256.416 118.038 256.571 118.626C256.713 118.061 256.881 117.509 257.077 116.972L258.629 112.74H259.859L257.098 120.123C256.801 120.921 256.571 121.47 256.407 121.771C256.188 122.176 255.938 122.472 255.655 122.659C255.373 122.851 255.035 122.946 254.644 122.946C254.407 122.946 254.142 122.896 253.851 122.796Z" fill="black"/>
<path d="M125 162.5H218C219.933 162.5 221.5 164.067 221.5 166V218C221.5 219.933 219.933 221.5 218 221.5H125C123.067 221.5 121.5 219.933 121.5 218V166C121.5 164.067 123.067 162.5 125 162.5Z" fill="white"/>
<path d="M125 162.5H218C219.933 162.5 221.5 164.067 221.5 166V218C221.5 219.933 219.933 221.5 218 221.5H125C123.067 221.5 121.5 219.933 121.5 218V166C121.5 164.067 123.067 162.5 125 162.5Z" stroke="black"/>
<path d="M148.196 189L152.072 183.777L148.654 178.979H150.233L152.052 181.549C152.43 182.082 152.699 182.492 152.858 182.779C153.082 182.415 153.346 182.034 153.651 181.638L155.668 178.979H157.11L153.59 183.702L157.384 189H155.743L153.221 185.425C153.079 185.22 152.934 184.996 152.783 184.755C152.56 185.119 152.4 185.37 152.305 185.507L149.789 189H148.196ZM162.395 189V178.979H163.721V187.817H168.656V189H162.395ZM169.627 185.37C169.627 184.026 170.001 183.03 170.748 182.383C171.372 181.845 172.133 181.576 173.031 181.576C174.029 181.576 174.845 181.904 175.479 182.561C176.112 183.212 176.429 184.115 176.429 185.268C176.429 186.202 176.287 186.938 176.005 187.476C175.727 188.009 175.319 188.424 174.781 188.72C174.248 189.016 173.665 189.164 173.031 189.164C172.015 189.164 171.192 188.838 170.563 188.187C169.939 187.535 169.627 186.596 169.627 185.37ZM170.892 185.37C170.892 186.3 171.094 186.997 171.5 187.462C171.906 187.922 172.416 188.152 173.031 188.152C173.642 188.152 174.15 187.92 174.556 187.455C174.961 186.99 175.164 186.282 175.164 185.329C175.164 184.431 174.959 183.752 174.549 183.292C174.143 182.827 173.637 182.595 173.031 182.595C172.416 182.595 171.906 182.825 171.5 183.285C171.094 183.745 170.892 184.44 170.892 185.37ZM182.615 186.341L183.825 186.498C183.693 187.332 183.354 187.986 182.807 188.46C182.264 188.929 181.597 189.164 180.804 189.164C179.81 189.164 179.01 188.84 178.404 188.193C177.803 187.542 177.502 186.61 177.502 185.397C177.502 184.614 177.632 183.928 177.892 183.34C178.151 182.752 178.546 182.312 179.074 182.021C179.607 181.724 180.186 181.576 180.811 181.576C181.599 181.576 182.244 181.777 182.745 182.178C183.246 182.574 183.568 183.139 183.709 183.873L182.513 184.058C182.399 183.57 182.196 183.203 181.904 182.957C181.617 182.711 181.269 182.588 180.858 182.588C180.239 182.588 179.735 182.811 179.348 183.258C178.96 183.7 178.767 184.402 178.767 185.363C178.767 186.339 178.953 187.047 179.327 187.489C179.701 187.931 180.188 188.152 180.79 188.152C181.273 188.152 181.676 188.004 182 187.708C182.324 187.412 182.529 186.956 182.615 186.341ZM189.615 188.104C189.16 188.492 188.72 188.765 188.296 188.925C187.877 189.084 187.425 189.164 186.942 189.164C186.145 189.164 185.532 188.97 185.104 188.583C184.675 188.191 184.461 187.692 184.461 187.086C184.461 186.73 184.541 186.407 184.7 186.115C184.864 185.819 185.076 185.582 185.336 185.404C185.6 185.227 185.896 185.092 186.225 185.001C186.466 184.937 186.831 184.876 187.318 184.816C188.312 184.698 189.043 184.557 189.513 184.393C189.517 184.224 189.52 184.117 189.52 184.071C189.52 183.57 189.403 183.217 189.171 183.012C188.856 182.734 188.389 182.595 187.77 182.595C187.191 182.595 186.762 182.697 186.484 182.902C186.211 183.103 186.008 183.461 185.876 183.976L184.673 183.812C184.782 183.297 184.962 182.882 185.213 182.567C185.464 182.248 185.826 182.005 186.3 181.836C186.774 181.663 187.323 181.576 187.947 181.576C188.567 181.576 189.071 181.649 189.458 181.795C189.845 181.941 190.13 182.125 190.312 182.349C190.495 182.567 190.622 182.845 190.695 183.183C190.736 183.392 190.757 183.771 190.757 184.317V185.958C190.757 187.102 190.782 187.826 190.832 188.132C190.887 188.433 190.992 188.722 191.146 189H189.861C189.734 188.745 189.652 188.446 189.615 188.104ZM189.513 185.356C189.066 185.539 188.396 185.694 187.503 185.821C186.997 185.894 186.639 185.976 186.43 186.067C186.22 186.159 186.058 186.293 185.944 186.471C185.83 186.644 185.773 186.838 185.773 187.052C185.773 187.38 185.896 187.653 186.143 187.872C186.393 188.091 186.758 188.2 187.236 188.2C187.71 188.2 188.132 188.098 188.501 187.893C188.87 187.683 189.141 187.398 189.314 187.038C189.447 186.76 189.513 186.35 189.513 185.808V185.356ZM192.644 189V178.979H193.874V189H192.644ZM135.591 205V194.979H139.043C139.822 194.979 140.417 195.026 140.827 195.122C141.401 195.254 141.891 195.493 142.297 195.84C142.826 196.286 143.22 196.858 143.479 197.556C143.744 198.248 143.876 199.041 143.876 199.935C143.876 200.696 143.787 201.37 143.609 201.958C143.432 202.546 143.204 203.034 142.926 203.421C142.648 203.804 142.342 204.107 142.01 204.33C141.682 204.549 141.283 204.715 140.813 204.829C140.349 204.943 139.813 205 139.207 205H135.591ZM136.917 203.817H139.057C139.717 203.817 140.235 203.756 140.608 203.633C140.987 203.51 141.287 203.337 141.511 203.113C141.825 202.799 142.069 202.377 142.242 201.849C142.42 201.315 142.509 200.671 142.509 199.914C142.509 198.866 142.336 198.062 141.989 197.501C141.647 196.936 141.23 196.558 140.738 196.366C140.383 196.229 139.811 196.161 139.022 196.161H136.917V203.817ZM150.288 204.104C149.832 204.492 149.393 204.765 148.969 204.925C148.549 205.084 148.098 205.164 147.615 205.164C146.818 205.164 146.205 204.97 145.776 204.583C145.348 204.191 145.134 203.692 145.134 203.086C145.134 202.73 145.214 202.407 145.373 202.115C145.537 201.819 145.749 201.582 146.009 201.404C146.273 201.227 146.569 201.092 146.897 201.001C147.139 200.937 147.504 200.876 147.991 200.816C148.985 200.698 149.716 200.557 150.186 200.393C150.19 200.224 150.192 200.117 150.192 200.071C150.192 199.57 150.076 199.217 149.844 199.012C149.529 198.734 149.062 198.595 148.442 198.595C147.864 198.595 147.435 198.697 147.157 198.902C146.884 199.103 146.681 199.461 146.549 199.976L145.346 199.812C145.455 199.297 145.635 198.882 145.886 198.567C146.136 198.248 146.499 198.005 146.973 197.836C147.447 197.663 147.996 197.576 148.62 197.576C149.24 197.576 149.743 197.649 150.131 197.795C150.518 197.941 150.803 198.125 150.985 198.349C151.168 198.567 151.295 198.845 151.368 199.183C151.409 199.392 151.43 199.771 151.43 200.317V201.958C151.43 203.102 151.455 203.826 151.505 204.132C151.56 204.433 151.664 204.722 151.819 205H150.534C150.407 204.745 150.325 204.446 150.288 204.104ZM150.186 201.356C149.739 201.539 149.069 201.694 148.176 201.821C147.67 201.894 147.312 201.976 147.103 202.067C146.893 202.159 146.731 202.293 146.617 202.471C146.503 202.644 146.446 202.838 146.446 203.052C146.446 203.38 146.569 203.653 146.815 203.872C147.066 204.091 147.431 204.2 147.909 204.2C148.383 204.2 148.805 204.098 149.174 203.893C149.543 203.683 149.814 203.398 149.987 203.038C150.119 202.76 150.186 202.35 150.186 201.808V201.356ZM156.03 203.899L156.208 204.986C155.862 205.059 155.552 205.096 155.278 205.096C154.832 205.096 154.485 205.025 154.239 204.884C153.993 204.743 153.82 204.558 153.72 204.33C153.619 204.098 153.569 203.612 153.569 202.874V198.697H152.667V197.74H153.569V195.942L154.793 195.204V197.74H156.03V198.697H154.793V202.942C154.793 203.293 154.813 203.519 154.854 203.619C154.9 203.719 154.971 203.799 155.066 203.858C155.167 203.918 155.308 203.947 155.49 203.947C155.627 203.947 155.807 203.931 156.03 203.899ZM161.978 204.104C161.522 204.492 161.082 204.765 160.658 204.925C160.239 205.084 159.788 205.164 159.305 205.164C158.507 205.164 157.894 204.97 157.466 204.583C157.037 204.191 156.823 203.692 156.823 203.086C156.823 202.73 156.903 202.407 157.062 202.115C157.227 201.819 157.438 201.582 157.698 201.404C157.963 201.227 158.259 201.092 158.587 201.001C158.828 200.937 159.193 200.876 159.681 200.816C160.674 200.698 161.406 200.557 161.875 200.393C161.88 200.224 161.882 200.117 161.882 200.071C161.882 199.57 161.766 199.217 161.533 199.012C161.219 198.734 160.752 198.595 160.132 198.595C159.553 198.595 159.125 198.697 158.847 198.902C158.573 199.103 158.37 199.461 158.238 199.976L157.035 199.812C157.145 199.297 157.325 198.882 157.575 198.567C157.826 198.248 158.188 198.005 158.662 197.836C159.136 197.663 159.685 197.576 160.31 197.576C160.929 197.576 161.433 197.649 161.82 197.795C162.208 197.941 162.493 198.125 162.675 198.349C162.857 198.567 162.985 198.845 163.058 199.183C163.099 199.392 163.119 199.771 163.119 200.317V201.958C163.119 203.102 163.144 203.826 163.194 204.132C163.249 204.433 163.354 204.722 163.509 205H162.224C162.096 204.745 162.014 204.446 161.978 204.104ZM161.875 201.356C161.428 201.539 160.758 201.694 159.865 201.821C159.359 201.894 159.002 201.976 158.792 202.067C158.582 202.159 158.421 202.293 158.307 202.471C158.193 202.644 158.136 202.838 158.136 203.052C158.136 203.38 158.259 203.653 158.505 203.872C158.756 204.091 159.12 204.2 159.599 204.2C160.073 204.2 160.494 204.098 160.863 203.893C161.232 203.683 161.504 203.398 161.677 203.038C161.809 202.76 161.875 202.35 161.875 201.808V201.356ZM164.739 201.78L165.99 201.671C166.049 202.172 166.186 202.585 166.4 202.908C166.619 203.227 166.956 203.487 167.412 203.688C167.868 203.883 168.381 203.981 168.95 203.981C169.456 203.981 169.903 203.906 170.29 203.756C170.677 203.605 170.965 203.4 171.151 203.141C171.343 202.876 171.438 202.589 171.438 202.279C171.438 201.965 171.347 201.691 171.165 201.459C170.983 201.222 170.682 201.024 170.263 200.864C169.994 200.759 169.399 200.598 168.479 200.379C167.558 200.156 166.913 199.946 166.544 199.75C166.065 199.499 165.708 199.189 165.471 198.82C165.238 198.447 165.122 198.03 165.122 197.569C165.122 197.063 165.266 196.592 165.553 196.154C165.84 195.712 166.259 195.377 166.811 195.149C167.362 194.922 167.975 194.808 168.649 194.808C169.392 194.808 170.046 194.928 170.611 195.17C171.181 195.407 171.618 195.758 171.924 196.223C172.229 196.688 172.393 197.214 172.416 197.802L171.145 197.897C171.076 197.264 170.844 196.785 170.447 196.462C170.055 196.138 169.474 195.977 168.704 195.977C167.902 195.977 167.316 196.125 166.947 196.421C166.583 196.713 166.4 197.066 166.4 197.48C166.4 197.84 166.53 198.137 166.79 198.369C167.045 198.602 167.711 198.841 168.786 199.087C169.866 199.328 170.607 199.54 171.008 199.723C171.591 199.992 172.022 200.333 172.3 200.748C172.578 201.158 172.717 201.632 172.717 202.17C172.717 202.703 172.564 203.207 172.259 203.681C171.953 204.15 171.514 204.517 170.939 204.781C170.37 205.041 169.727 205.171 169.012 205.171C168.105 205.171 167.344 205.039 166.729 204.774C166.118 204.51 165.637 204.114 165.286 203.585C164.94 203.052 164.757 202.45 164.739 201.78ZM173.913 201.37C173.913 200.026 174.287 199.03 175.034 198.383C175.659 197.845 176.42 197.576 177.317 197.576C178.315 197.576 179.131 197.904 179.765 198.561C180.398 199.212 180.715 200.115 180.715 201.268C180.715 202.202 180.574 202.938 180.291 203.476C180.013 204.009 179.605 204.424 179.067 204.72C178.534 205.016 177.951 205.164 177.317 205.164C176.301 205.164 175.479 204.838 174.85 204.187C174.225 203.535 173.913 202.596 173.913 201.37ZM175.178 201.37C175.178 202.3 175.381 202.997 175.786 203.462C176.192 203.922 176.702 204.152 177.317 204.152C177.928 204.152 178.436 203.92 178.842 203.455C179.247 202.99 179.45 202.282 179.45 201.329C179.45 200.431 179.245 199.752 178.835 199.292C178.429 198.827 177.924 198.595 177.317 198.595C176.702 198.595 176.192 198.825 175.786 199.285C175.381 199.745 175.178 200.44 175.178 201.37ZM186.922 205V203.934C186.357 204.754 185.589 205.164 184.618 205.164C184.19 205.164 183.789 205.082 183.415 204.918C183.046 204.754 182.77 204.549 182.588 204.303C182.41 204.052 182.285 203.747 182.212 203.387C182.162 203.145 182.137 202.762 182.137 202.238V197.74H183.367V201.767C183.367 202.409 183.392 202.842 183.442 203.065C183.52 203.389 183.684 203.644 183.935 203.831C184.185 204.013 184.495 204.104 184.864 204.104C185.233 204.104 185.58 204.011 185.903 203.824C186.227 203.633 186.455 203.375 186.587 203.052C186.724 202.724 186.792 202.25 186.792 201.63V197.74H188.022V205H186.922ZM189.943 205V197.74H191.051V198.841C191.333 198.326 191.593 197.986 191.83 197.822C192.072 197.658 192.336 197.576 192.623 197.576C193.038 197.576 193.459 197.708 193.888 197.973L193.464 199.114C193.163 198.937 192.862 198.848 192.562 198.848C192.293 198.848 192.051 198.93 191.837 199.094C191.623 199.253 191.47 199.477 191.379 199.764C191.242 200.201 191.174 200.68 191.174 201.199V205H189.943ZM199.356 202.341L200.566 202.498C200.434 203.332 200.095 203.986 199.548 204.46C199.006 204.929 198.338 205.164 197.545 205.164C196.551 205.164 195.752 204.84 195.146 204.193C194.544 203.542 194.243 202.61 194.243 201.397C194.243 200.614 194.373 199.928 194.633 199.34C194.893 198.752 195.287 198.312 195.815 198.021C196.349 197.724 196.927 197.576 197.552 197.576C198.34 197.576 198.985 197.777 199.486 198.178C199.988 198.574 200.309 199.139 200.45 199.873L199.254 200.058C199.14 199.57 198.937 199.203 198.646 198.957C198.358 198.711 198.01 198.588 197.6 198.588C196.98 198.588 196.476 198.811 196.089 199.258C195.701 199.7 195.508 200.402 195.508 201.363C195.508 202.339 195.695 203.047 196.068 203.489C196.442 203.931 196.93 204.152 197.531 204.152C198.014 204.152 198.418 204.004 198.741 203.708C199.065 203.412 199.27 202.956 199.356 202.341ZM206.589 202.662L207.86 202.819C207.66 203.562 207.288 204.139 206.746 204.549C206.204 204.959 205.511 205.164 204.668 205.164C203.606 205.164 202.763 204.838 202.139 204.187C201.519 203.53 201.209 202.612 201.209 201.432C201.209 200.21 201.523 199.262 202.152 198.588C202.781 197.913 203.597 197.576 204.6 197.576C205.57 197.576 206.363 197.907 206.979 198.567C207.594 199.228 207.901 200.158 207.901 201.356C207.901 201.429 207.899 201.539 207.895 201.685H202.48C202.526 202.482 202.752 203.093 203.157 203.517C203.563 203.94 204.069 204.152 204.675 204.152C205.126 204.152 205.511 204.034 205.83 203.797C206.149 203.56 206.402 203.182 206.589 202.662ZM202.549 200.673H206.603C206.548 200.062 206.393 199.604 206.138 199.299C205.746 198.825 205.238 198.588 204.613 198.588C204.048 198.588 203.572 198.777 203.185 199.155C202.802 199.534 202.59 200.039 202.549 200.673Z" fill="black"/>
<path d="M234 162.5H327C328.933 162.5 330.5 164.067 330.5 166V218C330.5 219.933 328.933 221.5 327 221.5H234C232.067 221.5 230.5 219.933 230.5 218V166C230.5 164.067 232.067 162.5 234 162.5Z" fill="white"/>
<path d="M234 162.5H327C328.933 162.5 330.5 164.067 330.5 166V218C330.5 219.933 328.933 221.5 327 221.5H234C232.067 221.5 230.5 219.933 230.5 218V166C230.5 164.067 232.067 162.5 234 162.5Z" stroke="black"/>
<path d="M249.417 189L253.293 183.777L249.875 178.979H251.454L253.272 181.549C253.651 182.082 253.92 182.492 254.079 182.779C254.302 182.415 254.567 182.034 254.872 181.638L256.889 178.979H258.331L254.811 183.702L258.604 189H256.964L254.441 185.425C254.3 185.22 254.154 184.996 254.004 184.755C253.781 185.119 253.621 185.37 253.525 185.507L251.01 189H249.417ZM263.69 189V178.979H268.134C269.027 178.979 269.706 179.07 270.171 179.252C270.636 179.43 271.007 179.746 271.285 180.202C271.563 180.658 271.702 181.161 271.702 181.713C271.702 182.424 271.472 183.023 271.012 183.511C270.551 183.998 269.84 184.308 268.879 184.44C269.23 184.609 269.496 184.775 269.679 184.939C270.066 185.295 270.433 185.739 270.779 186.272L272.522 189H270.854L269.528 186.915C269.141 186.313 268.822 185.853 268.571 185.534C268.321 185.215 268.095 184.992 267.895 184.864C267.699 184.737 267.498 184.648 267.293 184.598C267.143 184.566 266.896 184.55 266.555 184.55H265.017V189H263.69ZM265.017 183.401H267.867C268.473 183.401 268.947 183.34 269.289 183.217C269.631 183.089 269.891 182.889 270.068 182.615C270.246 182.337 270.335 182.036 270.335 181.713C270.335 181.239 270.162 180.849 269.815 180.544C269.474 180.239 268.931 180.086 268.188 180.086H265.017V183.401ZM278.6 186.662L279.871 186.819C279.671 187.562 279.299 188.139 278.757 188.549C278.215 188.959 277.522 189.164 276.679 189.164C275.617 189.164 274.774 188.838 274.149 188.187C273.53 187.53 273.22 186.612 273.22 185.432C273.22 184.21 273.534 183.262 274.163 182.588C274.792 181.913 275.608 181.576 276.61 181.576C277.581 181.576 278.374 181.907 278.989 182.567C279.604 183.228 279.912 184.158 279.912 185.356C279.912 185.429 279.91 185.539 279.905 185.685H274.491C274.537 186.482 274.762 187.093 275.168 187.517C275.574 187.94 276.079 188.152 276.686 188.152C277.137 188.152 277.522 188.034 277.841 187.797C278.16 187.56 278.413 187.182 278.6 186.662ZM274.56 184.673H278.613C278.559 184.062 278.404 183.604 278.148 183.299C277.757 182.825 277.248 182.588 276.624 182.588C276.059 182.588 275.583 182.777 275.195 183.155C274.812 183.534 274.601 184.039 274.56 184.673ZM281.423 189V181.74H282.523V182.759C282.751 182.403 283.054 182.118 283.433 181.904C283.811 181.686 284.242 181.576 284.725 181.576C285.262 181.576 285.702 181.688 286.044 181.911C286.39 182.134 286.634 182.447 286.775 182.848C287.35 182 288.097 181.576 289.018 181.576C289.738 181.576 290.291 181.777 290.679 182.178C291.066 182.574 291.26 183.187 291.26 184.017V189H290.036V184.427C290.036 183.935 289.995 183.581 289.913 183.367C289.836 183.148 289.692 182.973 289.482 182.841C289.273 182.709 289.027 182.643 288.744 182.643C288.234 182.643 287.81 182.813 287.473 183.155C287.135 183.493 286.967 184.035 286.967 184.782V189H285.736V184.283C285.736 183.736 285.636 183.326 285.436 183.053C285.235 182.779 284.907 182.643 284.451 182.643C284.105 182.643 283.784 182.734 283.487 182.916C283.196 183.098 282.984 183.365 282.852 183.716C282.719 184.067 282.653 184.573 282.653 185.233V189H281.423ZM292.627 185.37C292.627 184.026 293.001 183.03 293.748 182.383C294.372 181.845 295.133 181.576 296.031 181.576C297.029 181.576 297.845 181.904 298.479 182.561C299.112 183.212 299.429 184.115 299.429 185.268C299.429 186.202 299.287 186.938 299.005 187.476C298.727 188.009 298.319 188.424 297.781 188.72C297.248 189.016 296.665 189.164 296.031 189.164C295.015 189.164 294.192 188.838 293.563 188.187C292.939 187.535 292.627 186.596 292.627 185.37ZM293.892 185.37C293.892 186.3 294.094 186.997 294.5 187.462C294.906 187.922 295.416 188.152 296.031 188.152C296.642 188.152 297.15 187.92 297.556 187.455C297.961 186.99 298.164 186.282 298.164 185.329C298.164 184.431 297.959 183.752 297.549 183.292C297.143 182.827 296.637 182.595 296.031 182.595C295.416 182.595 294.906 182.825 294.5 183.285C294.094 183.745 293.892 184.44 293.892 185.37ZM303.564 187.899L303.742 188.986C303.396 189.059 303.086 189.096 302.812 189.096C302.366 189.096 302.02 189.025 301.773 188.884C301.527 188.743 301.354 188.558 301.254 188.33C301.154 188.098 301.104 187.612 301.104 186.874V182.697H300.201V181.74H301.104V179.942L302.327 179.204V181.74H303.564V182.697H302.327V186.942C302.327 187.293 302.348 187.519 302.389 187.619C302.434 187.719 302.505 187.799 302.601 187.858C302.701 187.918 302.842 187.947 303.024 187.947C303.161 187.947 303.341 187.931 303.564 187.899ZM309.744 186.662L311.016 186.819C310.815 187.562 310.444 188.139 309.901 188.549C309.359 188.959 308.666 189.164 307.823 189.164C306.761 189.164 305.918 188.838 305.294 188.187C304.674 187.53 304.364 186.612 304.364 185.432C304.364 184.21 304.679 183.262 305.308 182.588C305.937 181.913 306.752 181.576 307.755 181.576C308.726 181.576 309.519 181.907 310.134 182.567C310.749 183.228 311.057 184.158 311.057 185.356C311.057 185.429 311.054 185.539 311.05 185.685H305.636C305.681 186.482 305.907 187.093 306.312 187.517C306.718 187.94 307.224 188.152 307.83 188.152C308.281 188.152 308.666 188.034 308.985 187.797C309.304 187.56 309.557 187.182 309.744 186.662ZM305.704 184.673H309.758C309.703 184.062 309.548 183.604 309.293 183.299C308.901 182.825 308.393 182.588 307.769 182.588C307.203 182.588 306.727 182.777 306.34 183.155C305.957 183.534 305.745 184.039 305.704 184.673ZM244.591 205V194.979H248.043C248.822 194.979 249.417 195.026 249.827 195.122C250.401 195.254 250.891 195.493 251.297 195.84C251.826 196.286 252.22 196.858 252.479 197.556C252.744 198.248 252.876 199.041 252.876 199.935C252.876 200.696 252.787 201.37 252.609 201.958C252.432 202.546 252.204 203.034 251.926 203.421C251.648 203.804 251.342 204.107 251.01 204.33C250.682 204.549 250.283 204.715 249.813 204.829C249.349 204.943 248.813 205 248.207 205H244.591ZM245.917 203.817H248.057C248.717 203.817 249.235 203.756 249.608 203.633C249.987 203.51 250.287 203.337 250.511 203.113C250.825 202.799 251.069 202.377 251.242 201.849C251.42 201.315 251.509 200.671 251.509 199.914C251.509 198.866 251.336 198.062 250.989 197.501C250.647 196.936 250.23 196.558 249.738 196.366C249.383 196.229 248.811 196.161 248.022 196.161H245.917V203.817ZM259.288 204.104C258.832 204.492 258.393 204.765 257.969 204.925C257.549 205.084 257.098 205.164 256.615 205.164C255.818 205.164 255.205 204.97 254.776 204.583C254.348 204.191 254.134 203.692 254.134 203.086C254.134 202.73 254.214 202.407 254.373 202.115C254.537 201.819 254.749 201.582 255.009 201.404C255.273 201.227 255.569 201.092 255.897 201.001C256.139 200.937 256.504 200.876 256.991 200.816C257.985 200.698 258.716 200.557 259.186 200.393C259.19 200.224 259.192 200.117 259.192 200.071C259.192 199.57 259.076 199.217 258.844 199.012C258.529 198.734 258.062 198.595 257.442 198.595C256.864 198.595 256.435 198.697 256.157 198.902C255.884 199.103 255.681 199.461 255.549 199.976L254.346 199.812C254.455 199.297 254.635 198.882 254.886 198.567C255.136 198.248 255.499 198.005 255.973 197.836C256.447 197.663 256.996 197.576 257.62 197.576C258.24 197.576 258.743 197.649 259.131 197.795C259.518 197.941 259.803 198.125 259.985 198.349C260.168 198.567 260.295 198.845 260.368 199.183C260.409 199.392 260.43 199.771 260.43 200.317V201.958C260.43 203.102 260.455 203.826 260.505 204.132C260.56 204.433 260.664 204.722 260.819 205H259.534C259.407 204.745 259.325 204.446 259.288 204.104ZM259.186 201.356C258.739 201.539 258.069 201.694 257.176 201.821C256.67 201.894 256.312 201.976 256.103 202.067C255.893 202.159 255.731 202.293 255.617 202.471C255.503 202.644 255.446 202.838 255.446 203.052C255.446 203.38 255.569 203.653 255.815 203.872C256.066 204.091 256.431 204.2 256.909 204.2C257.383 204.2 257.805 204.098 258.174 203.893C258.543 203.683 258.814 203.398 258.987 203.038C259.119 202.76 259.186 202.35 259.186 201.808V201.356ZM265.03 203.899L265.208 204.986C264.862 205.059 264.552 205.096 264.278 205.096C263.832 205.096 263.485 205.025 263.239 204.884C262.993 204.743 262.82 204.558 262.72 204.33C262.619 204.098 262.569 203.612 262.569 202.874V198.697H261.667V197.74H262.569V195.942L263.793 195.204V197.74H265.03V198.697H263.793V202.942C263.793 203.293 263.813 203.519 263.854 203.619C263.9 203.719 263.971 203.799 264.066 203.858C264.167 203.918 264.308 203.947 264.49 203.947C264.627 203.947 264.807 203.931 265.03 203.899ZM270.978 204.104C270.522 204.492 270.082 204.765 269.658 204.925C269.239 205.084 268.788 205.164 268.305 205.164C267.507 205.164 266.894 204.97 266.466 204.583C266.037 204.191 265.823 203.692 265.823 203.086C265.823 202.73 265.903 202.407 266.062 202.115C266.227 201.819 266.438 201.582 266.698 201.404C266.963 201.227 267.259 201.092 267.587 201.001C267.828 200.937 268.193 200.876 268.681 200.816C269.674 200.698 270.406 200.557 270.875 200.393C270.88 200.224 270.882 200.117 270.882 200.071C270.882 199.57 270.766 199.217 270.533 199.012C270.219 198.734 269.752 198.595 269.132 198.595C268.553 198.595 268.125 198.697 267.847 198.902C267.573 199.103 267.37 199.461 267.238 199.976L266.035 199.812C266.145 199.297 266.325 198.882 266.575 198.567C266.826 198.248 267.188 198.005 267.662 197.836C268.136 197.663 268.685 197.576 269.31 197.576C269.929 197.576 270.433 197.649 270.82 197.795C271.208 197.941 271.493 198.125 271.675 198.349C271.857 198.567 271.985 198.845 272.058 199.183C272.099 199.392 272.119 199.771 272.119 200.317V201.958C272.119 203.102 272.144 203.826 272.194 204.132C272.249 204.433 272.354 204.722 272.509 205H271.224C271.096 204.745 271.014 204.446 270.978 204.104ZM270.875 201.356C270.428 201.539 269.758 201.694 268.865 201.821C268.359 201.894 268.002 201.976 267.792 202.067C267.582 202.159 267.421 202.293 267.307 202.471C267.193 202.644 267.136 202.838 267.136 203.052C267.136 203.38 267.259 203.653 267.505 203.872C267.756 204.091 268.12 204.2 268.599 204.2C269.073 204.2 269.494 204.098 269.863 203.893C270.232 203.683 270.504 203.398 270.677 203.038C270.809 202.76 270.875 202.35 270.875 201.808V201.356ZM273.739 201.78L274.99 201.671C275.049 202.172 275.186 202.585 275.4 202.908C275.619 203.227 275.956 203.487 276.412 203.688C276.868 203.883 277.381 203.981 277.95 203.981C278.456 203.981 278.903 203.906 279.29 203.756C279.677 203.605 279.965 203.4 280.151 203.141C280.343 202.876 280.438 202.589 280.438 202.279C280.438 201.965 280.347 201.691 280.165 201.459C279.983 201.222 279.682 201.024 279.263 200.864C278.994 200.759 278.399 200.598 277.479 200.379C276.558 200.156 275.913 199.946 275.544 199.75C275.065 199.499 274.708 199.189 274.471 198.82C274.238 198.447 274.122 198.03 274.122 197.569C274.122 197.063 274.266 196.592 274.553 196.154C274.84 195.712 275.259 195.377 275.811 195.149C276.362 194.922 276.975 194.808 277.649 194.808C278.392 194.808 279.046 194.928 279.611 195.17C280.181 195.407 280.618 195.758 280.924 196.223C281.229 196.688 281.393 197.214 281.416 197.802L280.145 197.897C280.076 197.264 279.844 196.785 279.447 196.462C279.055 196.138 278.474 195.977 277.704 195.977C276.902 195.977 276.316 196.125 275.947 196.421C275.583 196.713 275.4 197.066 275.4 197.48C275.4 197.84 275.53 198.137 275.79 198.369C276.045 198.602 276.711 198.841 277.786 199.087C278.866 199.328 279.607 199.54 280.008 199.723C280.591 199.992 281.022 200.333 281.3 200.748C281.578 201.158 281.717 201.632 281.717 202.17C281.717 202.703 281.564 203.207 281.259 203.681C280.953 204.15 280.514 204.517 279.939 204.781C279.37 205.041 278.727 205.171 278.012 205.171C277.105 205.171 276.344 205.039 275.729 204.774C275.118 204.51 274.637 204.114 274.286 203.585C273.94 203.052 273.757 202.45 273.739 201.78ZM282.913 201.37C282.913 200.026 283.287 199.03 284.034 198.383C284.659 197.845 285.42 197.576 286.317 197.576C287.315 197.576 288.131 197.904 288.765 198.561C289.398 199.212 289.715 200.115 289.715 201.268C289.715 202.202 289.574 202.938 289.291 203.476C289.013 204.009 288.605 204.424 288.067 204.72C287.534 205.016 286.951 205.164 286.317 205.164C285.301 205.164 284.479 204.838 283.85 204.187C283.225 203.535 282.913 202.596 282.913 201.37ZM284.178 201.37C284.178 202.3 284.381 202.997 284.786 203.462C285.192 203.922 285.702 204.152 286.317 204.152C286.928 204.152 287.436 203.92 287.842 203.455C288.247 202.99 288.45 202.282 288.45 201.329C288.45 200.431 288.245 199.752 287.835 199.292C287.429 198.827 286.924 198.595 286.317 198.595C285.702 198.595 285.192 198.825 284.786 199.285C284.381 199.745 284.178 200.44 284.178 201.37ZM295.922 205V203.934C295.357 204.754 294.589 205.164 293.618 205.164C293.19 205.164 292.789 205.082 292.415 204.918C292.046 204.754 291.77 204.549 291.588 204.303C291.41 204.052 291.285 203.747 291.212 203.387C291.162 203.145 291.137 202.762 291.137 202.238V197.74H292.367V201.767C292.367 202.409 292.392 202.842 292.442 203.065C292.52 203.389 292.684 203.644 292.935 203.831C293.185 204.013 293.495 204.104 293.864 204.104C294.233 204.104 294.58 204.011 294.903 203.824C295.227 203.633 295.455 203.375 295.587 203.052C295.724 202.724 295.792 202.25 295.792 201.63V197.74H297.022V205H295.922ZM298.943 205V197.74H300.051V198.841C300.333 198.326 300.593 197.986 300.83 197.822C301.072 197.658 301.336 197.576 301.623 197.576C302.038 197.576 302.459 197.708 302.888 197.973L302.464 199.114C302.163 198.937 301.862 198.848 301.562 198.848C301.293 198.848 301.051 198.93 300.837 199.094C300.623 199.253 300.47 199.477 300.379 199.764C300.242 200.201 300.174 200.68 300.174 201.199V205H298.943ZM308.356 202.341L309.566 202.498C309.434 203.332 309.095 203.986 308.548 204.46C308.006 204.929 307.338 205.164 306.545 205.164C305.551 205.164 304.752 204.84 304.146 204.193C303.544 203.542 303.243 202.61 303.243 201.397C303.243 200.614 303.373 199.928 303.633 199.34C303.893 198.752 304.287 198.312 304.815 198.021C305.349 197.724 305.927 197.576 306.552 197.576C307.34 197.576 307.985 197.777 308.486 198.178C308.988 198.574 309.309 199.139 309.45 199.873L308.254 200.058C308.14 199.57 307.937 199.203 307.646 198.957C307.358 198.711 307.01 198.588 306.6 198.588C305.98 198.588 305.476 198.811 305.089 199.258C304.701 199.7 304.508 200.402 304.508 201.363C304.508 202.339 304.695 203.047 305.068 203.489C305.442 203.931 305.93 204.152 306.531 204.152C307.014 204.152 307.418 204.004 307.741 203.708C308.065 203.412 308.27 202.956 308.356 202.341ZM315.589 202.662L316.86 202.819C316.66 203.562 316.288 204.139 315.746 204.549C315.204 204.959 314.511 205.164 313.668 205.164C312.606 205.164 311.763 204.838 311.139 204.187C310.519 203.53 310.209 202.612 310.209 201.432C310.209 200.21 310.523 199.262 311.152 198.588C311.781 197.913 312.597 197.576 313.6 197.576C314.57 197.576 315.363 197.907 315.979 198.567C316.594 199.228 316.901 200.158 316.901 201.356C316.901 201.429 316.899 201.539 316.895 201.685H311.48C311.526 202.482 311.752 203.093 312.157 203.517C312.563 203.94 313.069 204.152 313.675 204.152C314.126 204.152 314.511 204.034 314.83 203.797C315.149 203.56 315.402 203.182 315.589 202.662ZM311.549 200.673H315.603C315.548 200.062 315.393 199.604 315.138 199.299C314.746 198.825 314.238 198.588 313.613 198.588C313.048 198.588 312.572 198.777 312.185 199.155C311.802 199.534 311.59 200.039 311.549 200.673Z" fill="black"/>
<path d="M353 162.5H446C447.933 162.5 449.5 164.067 449.5 166V218C449.5 219.933 447.933 221.5 446 221.5H353C351.067 221.5 349.5 219.933 349.5 218V166C349.5 164.067 351.067 162.5 353 162.5Z" fill="white"/>
<path d="M353 162.5H446C447.933 162.5 449.5 164.067 449.5 166V218C449.5 219.933 447.933 221.5 446 221.5H353C351.067 221.5 349.5 219.933 349.5 218V166C349.5 164.067 351.067 162.5 353 162.5Z" stroke="black"/>
<path d="M380.168 189V184.755L376.306 178.979H377.919L379.895 182C380.259 182.565 380.599 183.13 380.913 183.695C381.214 183.171 381.578 182.581 382.007 181.925L383.948 178.979H385.493L381.494 184.755V189H380.168ZM390.265 189V178.979H391.591V187.817H396.526V189H390.265ZM397.497 185.37C397.497 184.026 397.871 183.03 398.618 182.383C399.243 181.845 400.004 181.576 400.901 181.576C401.899 181.576 402.715 181.904 403.349 182.561C403.982 183.212 404.299 184.115 404.299 185.268C404.299 186.202 404.158 186.938 403.875 187.476C403.597 188.009 403.189 188.424 402.651 188.72C402.118 189.016 401.535 189.164 400.901 189.164C399.885 189.164 399.062 188.838 398.434 188.187C397.809 187.535 397.497 186.596 397.497 185.37ZM398.762 185.37C398.762 186.3 398.965 186.997 399.37 187.462C399.776 187.922 400.286 188.152 400.901 188.152C401.512 188.152 402.02 187.92 402.426 187.455C402.831 186.99 403.034 186.282 403.034 185.329C403.034 184.431 402.829 183.752 402.419 183.292C402.013 182.827 401.507 182.595 400.901 182.595C400.286 182.595 399.776 182.825 399.37 183.285C398.965 183.745 398.762 184.44 398.762 185.37ZM410.485 186.341L411.695 186.498C411.563 187.332 411.224 187.986 410.677 188.46C410.134 188.929 409.467 189.164 408.674 189.164C407.68 189.164 406.881 188.84 406.274 188.193C405.673 187.542 405.372 186.61 405.372 185.397C405.372 184.614 405.502 183.928 405.762 183.34C406.021 182.752 406.416 182.312 406.944 182.021C407.478 181.724 408.056 181.576 408.681 181.576C409.469 181.576 410.114 181.777 410.615 182.178C411.117 182.574 411.438 183.139 411.579 183.873L410.383 184.058C410.269 183.57 410.066 183.203 409.774 182.957C409.487 182.711 409.139 182.588 408.729 182.588C408.109 182.588 407.605 182.811 407.218 183.258C406.83 183.7 406.637 184.402 406.637 185.363C406.637 186.339 406.824 187.047 407.197 187.489C407.571 187.931 408.059 188.152 408.66 188.152C409.143 188.152 409.547 188.004 409.87 187.708C410.194 187.412 410.399 186.956 410.485 186.341ZM417.485 188.104C417.03 188.492 416.59 188.765 416.166 188.925C415.747 189.084 415.296 189.164 414.812 189.164C414.015 189.164 413.402 188.97 412.974 188.583C412.545 188.191 412.331 187.692 412.331 187.086C412.331 186.73 412.411 186.407 412.57 186.115C412.734 185.819 412.946 185.582 413.206 185.404C413.47 185.227 413.767 185.092 414.095 185.001C414.336 184.937 414.701 184.876 415.188 184.816C416.182 184.698 416.913 184.557 417.383 184.393C417.387 184.224 417.39 184.117 417.39 184.071C417.39 183.57 417.273 183.217 417.041 183.012C416.727 182.734 416.259 182.595 415.64 182.595C415.061 182.595 414.632 182.697 414.354 182.902C414.081 183.103 413.878 183.461 413.746 183.976L412.543 183.812C412.652 183.297 412.832 182.882 413.083 182.567C413.334 182.248 413.696 182.005 414.17 181.836C414.644 181.663 415.193 181.576 415.817 181.576C416.437 181.576 416.941 181.649 417.328 181.795C417.715 181.941 418 182.125 418.183 182.349C418.365 182.567 418.493 182.845 418.565 183.183C418.606 183.392 418.627 183.771 418.627 184.317V185.958C418.627 187.102 418.652 187.826 418.702 188.132C418.757 188.433 418.862 188.722 419.017 189H417.731C417.604 188.745 417.522 188.446 417.485 188.104ZM417.383 185.356C416.936 185.539 416.266 185.694 415.373 185.821C414.867 185.894 414.509 185.976 414.3 186.067C414.09 186.159 413.928 186.293 413.814 186.471C413.701 186.644 413.644 186.838 413.644 187.052C413.644 187.38 413.767 187.653 414.013 187.872C414.263 188.091 414.628 188.2 415.106 188.2C415.58 188.2 416.002 188.098 416.371 187.893C416.74 187.683 417.011 187.398 417.185 187.038C417.317 186.76 417.383 186.35 417.383 185.808V185.356ZM420.514 189V178.979H421.744V189H420.514ZM363.591 205V194.979H367.043C367.822 194.979 368.417 195.026 368.827 195.122C369.401 195.254 369.891 195.493 370.297 195.84C370.826 196.286 371.22 196.858 371.479 197.556C371.744 198.248 371.876 199.041 371.876 199.935C371.876 200.696 371.787 201.37 371.609 201.958C371.432 202.546 371.204 203.034 370.926 203.421C370.648 203.804 370.342 204.107 370.01 204.33C369.682 204.549 369.283 204.715 368.813 204.829C368.349 204.943 367.813 205 367.207 205H363.591ZM364.917 203.817H367.057C367.717 203.817 368.235 203.756 368.608 203.633C368.987 203.51 369.287 203.337 369.511 203.113C369.825 202.799 370.069 202.377 370.242 201.849C370.42 201.315 370.509 200.671 370.509 199.914C370.509 198.866 370.336 198.062 369.989 197.501C369.647 196.936 369.23 196.558 368.738 196.366C368.383 196.229 367.811 196.161 367.022 196.161H364.917V203.817ZM378.288 204.104C377.832 204.492 377.393 204.765 376.969 204.925C376.549 205.084 376.098 205.164 375.615 205.164C374.818 205.164 374.205 204.97 373.776 204.583C373.348 204.191 373.134 203.692 373.134 203.086C373.134 202.73 373.214 202.407 373.373 202.115C373.537 201.819 373.749 201.582 374.009 201.404C374.273 201.227 374.569 201.092 374.897 201.001C375.139 200.937 375.504 200.876 375.991 200.816C376.985 200.698 377.716 200.557 378.186 200.393C378.19 200.224 378.192 200.117 378.192 200.071C378.192 199.57 378.076 199.217 377.844 199.012C377.529 198.734 377.062 198.595 376.442 198.595C375.864 198.595 375.435 198.697 375.157 198.902C374.884 199.103 374.681 199.461 374.549 199.976L373.346 199.812C373.455 199.297 373.635 198.882 373.886 198.567C374.136 198.248 374.499 198.005 374.973 197.836C375.447 197.663 375.996 197.576 376.62 197.576C377.24 197.576 377.743 197.649 378.131 197.795C378.518 197.941 378.803 198.125 378.985 198.349C379.168 198.567 379.295 198.845 379.368 199.183C379.409 199.392 379.43 199.771 379.43 200.317V201.958C379.43 203.102 379.455 203.826 379.505 204.132C379.56 204.433 379.664 204.722 379.819 205H378.534C378.407 204.745 378.325 204.446 378.288 204.104ZM378.186 201.356C377.739 201.539 377.069 201.694 376.176 201.821C375.67 201.894 375.312 201.976 375.103 202.067C374.893 202.159 374.731 202.293 374.617 202.471C374.503 202.644 374.446 202.838 374.446 203.052C374.446 203.38 374.569 203.653 374.815 203.872C375.066 204.091 375.431 204.2 375.909 204.2C376.383 204.2 376.805 204.098 377.174 203.893C377.543 203.683 377.814 203.398 377.987 203.038C378.119 202.76 378.186 202.35 378.186 201.808V201.356ZM384.03 203.899L384.208 204.986C383.862 205.059 383.552 205.096 383.278 205.096C382.832 205.096 382.485 205.025 382.239 204.884C381.993 204.743 381.82 204.558 381.72 204.33C381.619 204.098 381.569 203.612 381.569 202.874V198.697H380.667V197.74H381.569V195.942L382.793 195.204V197.74H384.03V198.697H382.793V202.942C382.793 203.293 382.813 203.519 382.854 203.619C382.9 203.719 382.971 203.799 383.066 203.858C383.167 203.918 383.308 203.947 383.49 203.947C383.627 203.947 383.807 203.931 384.03 203.899ZM389.978 204.104C389.522 204.492 389.082 204.765 388.658 204.925C388.239 205.084 387.788 205.164 387.305 205.164C386.507 205.164 385.894 204.97 385.466 204.583C385.037 204.191 384.823 203.692 384.823 203.086C384.823 202.73 384.903 202.407 385.062 202.115C385.227 201.819 385.438 201.582 385.698 201.404C385.963 201.227 386.259 201.092 386.587 201.001C386.828 200.937 387.193 200.876 387.681 200.816C388.674 200.698 389.406 200.557 389.875 200.393C389.88 200.224 389.882 200.117 389.882 200.071C389.882 199.57 389.766 199.217 389.533 199.012C389.219 198.734 388.752 198.595 388.132 198.595C387.553 198.595 387.125 198.697 386.847 198.902C386.573 199.103 386.37 199.461 386.238 199.976L385.035 199.812C385.145 199.297 385.325 198.882 385.575 198.567C385.826 198.248 386.188 198.005 386.662 197.836C387.136 197.663 387.685 197.576 388.31 197.576C388.929 197.576 389.433 197.649 389.82 197.795C390.208 197.941 390.493 198.125 390.675 198.349C390.857 198.567 390.985 198.845 391.058 199.183C391.099 199.392 391.119 199.771 391.119 200.317V201.958C391.119 203.102 391.144 203.826 391.194 204.132C391.249 204.433 391.354 204.722 391.509 205H390.224C390.096 204.745 390.014 204.446 389.978 204.104ZM389.875 201.356C389.428 201.539 388.758 201.694 387.865 201.821C387.359 201.894 387.002 201.976 386.792 202.067C386.582 202.159 386.421 202.293 386.307 202.471C386.193 202.644 386.136 202.838 386.136 203.052C386.136 203.38 386.259 203.653 386.505 203.872C386.756 204.091 387.12 204.2 387.599 204.2C388.073 204.2 388.494 204.098 388.863 203.893C389.232 203.683 389.504 203.398 389.677 203.038C389.809 202.76 389.875 202.35 389.875 201.808V201.356ZM392.739 201.78L393.99 201.671C394.049 202.172 394.186 202.585 394.4 202.908C394.619 203.227 394.956 203.487 395.412 203.688C395.868 203.883 396.381 203.981 396.95 203.981C397.456 203.981 397.903 203.906 398.29 203.756C398.677 203.605 398.965 203.4 399.151 203.141C399.343 202.876 399.438 202.589 399.438 202.279C399.438 201.965 399.347 201.691 399.165 201.459C398.983 201.222 398.682 201.024 398.263 200.864C397.994 200.759 397.399 200.598 396.479 200.379C395.558 200.156 394.913 199.946 394.544 199.75C394.065 199.499 393.708 199.189 393.471 198.82C393.238 198.447 393.122 198.03 393.122 197.569C393.122 197.063 393.266 196.592 393.553 196.154C393.84 195.712 394.259 195.377 394.811 195.149C395.362 194.922 395.975 194.808 396.649 194.808C397.392 194.808 398.046 194.928 398.611 195.17C399.181 195.407 399.618 195.758 399.924 196.223C400.229 196.688 400.393 197.214 400.416 197.802L399.145 197.897C399.076 197.264 398.844 196.785 398.447 196.462C398.055 196.138 397.474 195.977 396.704 195.977C395.902 195.977 395.316 196.125 394.947 196.421C394.583 196.713 394.4 197.066 394.4 197.48C394.4 197.84 394.53 198.137 394.79 198.369C395.045 198.602 395.711 198.841 396.786 199.087C397.866 199.328 398.607 199.54 399.008 199.723C399.591 199.992 400.022 200.333 400.3 200.748C400.578 201.158 400.717 201.632 400.717 202.17C400.717 202.703 400.564 203.207 400.259 203.681C399.953 204.15 399.514 204.517 398.939 204.781C398.37 205.041 397.727 205.171 397.012 205.171C396.105 205.171 395.344 205.039 394.729 204.774C394.118 204.51 393.637 204.114 393.286 203.585C392.94 203.052 392.757 202.45 392.739 201.78ZM401.913 201.37C401.913 200.026 402.287 199.03 403.034 198.383C403.659 197.845 404.42 197.576 405.317 197.576C406.315 197.576 407.131 197.904 407.765 198.561C408.398 199.212 408.715 200.115 408.715 201.268C408.715 202.202 408.574 202.938 408.291 203.476C408.013 204.009 407.605 204.424 407.067 204.72C406.534 205.016 405.951 205.164 405.317 205.164C404.301 205.164 403.479 204.838 402.85 204.187C402.225 203.535 401.913 202.596 401.913 201.37ZM403.178 201.37C403.178 202.3 403.381 202.997 403.786 203.462C404.192 203.922 404.702 204.152 405.317 204.152C405.928 204.152 406.436 203.92 406.842 203.455C407.247 202.99 407.45 202.282 407.45 201.329C407.45 200.431 407.245 199.752 406.835 199.292C406.429 198.827 405.924 198.595 405.317 198.595C404.702 198.595 404.192 198.825 403.786 199.285C403.381 199.745 403.178 200.44 403.178 201.37ZM414.922 205V203.934C414.357 204.754 413.589 205.164 412.618 205.164C412.19 205.164 411.789 205.082 411.415 204.918C411.046 204.754 410.77 204.549 410.588 204.303C410.41 204.052 410.285 203.747 410.212 203.387C410.162 203.145 410.137 202.762 410.137 202.238V197.74H411.367V201.767C411.367 202.409 411.392 202.842 411.442 203.065C411.52 203.389 411.684 203.644 411.935 203.831C412.185 204.013 412.495 204.104 412.864 204.104C413.233 204.104 413.58 204.011 413.903 203.824C414.227 203.633 414.455 203.375 414.587 203.052C414.724 202.724 414.792 202.25 414.792 201.63V197.74H416.022V205H414.922ZM417.943 205V197.74H419.051V198.841C419.333 198.326 419.593 197.986 419.83 197.822C420.072 197.658 420.336 197.576 420.623 197.576C421.038 197.576 421.459 197.708 421.888 197.973L421.464 199.114C421.163 198.937 420.862 198.848 420.562 198.848C420.293 198.848 420.051 198.93 419.837 199.094C419.623 199.253 419.47 199.477 419.379 199.764C419.242 200.201 419.174 200.68 419.174 201.199V205H417.943ZM427.356 202.341L428.566 202.498C428.434 203.332 428.095 203.986 427.548 204.46C427.006 204.929 426.338 205.164 425.545 205.164C424.551 205.164 423.752 204.84 423.146 204.193C422.544 203.542 422.243 202.61 422.243 201.397C422.243 200.614 422.373 199.928 422.633 199.34C422.893 198.752 423.287 198.312 423.815 198.021C424.349 197.724 424.927 197.576 425.552 197.576C426.34 197.576 426.985 197.777 427.486 198.178C427.988 198.574 428.309 199.139 428.45 199.873L427.254 200.058C427.14 199.57 426.937 199.203 426.646 198.957C426.358 198.711 426.01 198.588 425.6 198.588C424.98 198.588 424.476 198.811 424.089 199.258C423.701 199.7 423.508 200.402 423.508 201.363C423.508 202.339 423.695 203.047 424.068 203.489C424.442 203.931 424.93 204.152 425.531 204.152C426.014 204.152 426.418 204.004 426.741 203.708C427.065 203.412 427.27 202.956 427.356 202.341ZM434.589 202.662L435.86 202.819C435.66 203.562 435.288 204.139 434.746 204.549C434.204 204.959 433.511 205.164 432.668 205.164C431.606 205.164 430.763 204.838 430.139 204.187C429.519 203.53 429.209 202.612 429.209 201.432C429.209 200.21 429.523 199.262 430.152 198.588C430.781 197.913 431.597 197.576 432.6 197.576C433.57 197.576 434.363 197.907 434.979 198.567C435.594 199.228 435.901 200.158 435.901 201.356C435.901 201.429 435.899 201.539 435.895 201.685H430.48C430.526 202.482 430.752 203.093 431.157 203.517C431.563 203.94 432.069 204.152 432.675 204.152C433.126 204.152 433.511 204.034 433.83 203.797C434.149 203.56 434.402 203.182 434.589 202.662ZM430.549 200.673H434.603C434.548 200.062 434.393 199.604 434.138 199.299C433.746 198.825 433.238 198.588 432.613 198.588C432.048 198.588 431.572 198.777 431.185 199.155C430.802 199.534 430.59 200.039 430.549 200.673Z" fill="black"/>
<path d="M353 77.5H446C447.933 77.5 449.5 79.067 449.5 81V133C449.5 134.933 447.933 136.5 446 136.5H353C351.067 136.5 349.5 134.933 349.5 133V81C349.5 79.067 351.067 77.5 353 77.5Z" fill="white"/>
<path d="M353 77.5H446C447.933 77.5 449.5 79.067 449.5 81V133C449.5 134.933 447.933 136.5 446 136.5H353C351.067 136.5 349.5 134.933 349.5 133V81C349.5 79.067 351.067 77.5 353 77.5Z" stroke="black"/>
<path d="M398.734 104V99.7549L394.872 93.9785H396.485L398.461 97C398.826 97.5651 399.165 98.1302 399.479 98.6953C399.78 98.1712 400.145 97.5811 400.573 96.9248L402.515 93.9785H404.06L400.061 99.7549V104H398.734ZM367.118 120V109.979H371.562C372.455 109.979 373.134 110.07 373.599 110.252C374.063 110.43 374.435 110.746 374.713 111.202C374.991 111.658 375.13 112.161 375.13 112.713C375.13 113.424 374.9 114.023 374.439 114.511C373.979 114.998 373.268 115.308 372.307 115.44C372.658 115.609 372.924 115.775 373.106 115.939C373.494 116.295 373.861 116.739 374.207 117.272L375.95 120H374.282L372.956 117.915C372.569 117.313 372.25 116.853 371.999 116.534C371.748 116.215 371.523 115.992 371.322 115.864C371.126 115.737 370.926 115.648 370.721 115.598C370.57 115.566 370.324 115.55 369.982 115.55H368.444V120H367.118ZM368.444 114.401H371.295C371.901 114.401 372.375 114.34 372.717 114.217C373.059 114.089 373.318 113.889 373.496 113.615C373.674 113.337 373.763 113.036 373.763 112.713C373.763 112.239 373.59 111.849 373.243 111.544C372.901 111.239 372.359 111.086 371.616 111.086H368.444V114.401ZM382.027 117.662L383.299 117.819C383.098 118.562 382.727 119.139 382.185 119.549C381.642 119.959 380.95 120.164 380.106 120.164C379.045 120.164 378.201 119.838 377.577 119.187C376.957 118.53 376.647 117.612 376.647 116.432C376.647 115.21 376.962 114.262 377.591 113.588C378.22 112.913 379.035 112.576 380.038 112.576C381.009 112.576 381.802 112.907 382.417 113.567C383.032 114.228 383.34 115.158 383.34 116.356C383.34 116.429 383.338 116.539 383.333 116.685H377.919C377.965 117.482 378.19 118.093 378.596 118.517C379.001 118.94 379.507 119.152 380.113 119.152C380.564 119.152 380.95 119.034 381.269 118.797C381.588 118.56 381.84 118.182 382.027 117.662ZM377.987 115.673H382.041C381.986 115.062 381.831 114.604 381.576 114.299C381.184 113.825 380.676 113.588 380.052 113.588C379.487 113.588 379.01 113.777 378.623 114.155C378.24 114.534 378.028 115.039 377.987 115.673ZM384.851 122.782V112.74H385.972V113.684C386.236 113.314 386.535 113.039 386.867 112.856C387.2 112.67 387.603 112.576 388.077 112.576C388.697 112.576 389.244 112.736 389.718 113.055C390.192 113.374 390.549 113.825 390.791 114.408C391.033 114.987 391.153 115.623 391.153 116.315C391.153 117.058 391.019 117.728 390.75 118.325C390.486 118.918 390.098 119.373 389.588 119.692C389.082 120.007 388.549 120.164 387.988 120.164C387.578 120.164 387.209 120.077 386.881 119.904C386.557 119.731 386.291 119.512 386.081 119.248V122.782H384.851ZM385.965 116.411C385.965 117.345 386.154 118.036 386.532 118.482C386.91 118.929 387.368 119.152 387.906 119.152C388.453 119.152 388.92 118.922 389.308 118.462C389.7 117.997 389.896 117.279 389.896 116.309C389.896 115.383 389.704 114.691 389.321 114.23C388.943 113.77 388.49 113.54 387.961 113.54C387.437 113.54 386.972 113.786 386.566 114.278C386.165 114.766 385.965 115.477 385.965 116.411ZM392.186 116.37C392.186 115.026 392.559 114.03 393.307 113.383C393.931 112.845 394.692 112.576 395.59 112.576C396.588 112.576 397.404 112.904 398.037 113.561C398.671 114.212 398.987 115.115 398.987 116.268C398.987 117.202 398.846 117.938 398.563 118.476C398.285 119.009 397.878 119.424 397.34 119.72C396.807 120.016 396.223 120.164 395.59 120.164C394.574 120.164 393.751 119.838 393.122 119.187C392.498 118.535 392.186 117.596 392.186 116.37ZM393.45 116.37C393.45 117.3 393.653 117.997 394.059 118.462C394.464 118.922 394.975 119.152 395.59 119.152C396.201 119.152 396.709 118.92 397.114 118.455C397.52 117.99 397.723 117.282 397.723 116.329C397.723 115.431 397.518 114.752 397.107 114.292C396.702 113.827 396.196 113.595 395.59 113.595C394.975 113.595 394.464 113.825 394.059 114.285C393.653 114.745 393.45 115.44 393.45 116.37ZM399.944 117.833L401.161 117.642C401.229 118.129 401.419 118.503 401.729 118.763C402.043 119.022 402.48 119.152 403.041 119.152C403.606 119.152 404.025 119.038 404.299 118.811C404.572 118.578 404.709 118.307 404.709 117.997C404.709 117.719 404.588 117.5 404.347 117.341C404.178 117.231 403.759 117.092 403.089 116.924C402.187 116.696 401.56 116.5 401.209 116.336C400.863 116.167 400.598 115.937 400.416 115.646C400.238 115.349 400.149 115.023 400.149 114.668C400.149 114.344 400.222 114.046 400.368 113.772C400.519 113.494 400.721 113.264 400.977 113.082C401.168 112.941 401.428 112.822 401.756 112.727C402.089 112.626 402.444 112.576 402.822 112.576C403.392 112.576 403.891 112.658 404.319 112.822C404.752 112.986 405.071 113.21 405.276 113.492C405.481 113.77 405.623 114.144 405.7 114.613L404.497 114.777C404.442 114.404 404.283 114.112 404.019 113.902C403.759 113.693 403.39 113.588 402.911 113.588C402.346 113.588 401.943 113.681 401.701 113.868C401.46 114.055 401.339 114.274 401.339 114.524C401.339 114.684 401.389 114.827 401.489 114.955C401.59 115.087 401.747 115.197 401.961 115.283C402.084 115.329 402.446 115.434 403.048 115.598C403.918 115.83 404.524 116.021 404.866 116.172C405.213 116.318 405.484 116.532 405.68 116.814C405.876 117.097 405.974 117.448 405.974 117.867C405.974 118.277 405.853 118.665 405.611 119.029C405.374 119.389 405.03 119.67 404.579 119.87C404.128 120.066 403.618 120.164 403.048 120.164C402.104 120.164 401.384 119.968 400.888 119.576C400.396 119.184 400.081 118.603 399.944 117.833ZM407.443 111.394V109.979H408.674V111.394H407.443ZM407.443 120V112.74H408.674V120H407.443ZM413.24 118.899L413.418 119.986C413.072 120.059 412.762 120.096 412.488 120.096C412.042 120.096 411.695 120.025 411.449 119.884C411.203 119.743 411.03 119.558 410.93 119.33C410.829 119.098 410.779 118.612 410.779 117.874V113.697H409.877V112.74H410.779V110.942L412.003 110.204V112.74H413.24V113.697H412.003V117.942C412.003 118.293 412.023 118.519 412.064 118.619C412.11 118.719 412.181 118.799 412.276 118.858C412.377 118.918 412.518 118.947 412.7 118.947C412.837 118.947 413.017 118.931 413.24 118.899ZM413.992 116.37C413.992 115.026 414.366 114.03 415.113 113.383C415.738 112.845 416.499 112.576 417.396 112.576C418.395 112.576 419.21 112.904 419.844 113.561C420.477 114.212 420.794 115.115 420.794 116.268C420.794 117.202 420.653 117.938 420.37 118.476C420.092 119.009 419.684 119.424 419.146 119.72C418.613 120.016 418.03 120.164 417.396 120.164C416.38 120.164 415.558 119.838 414.929 119.187C414.304 118.535 413.992 117.596 413.992 116.37ZM415.257 116.37C415.257 117.3 415.46 117.997 415.865 118.462C416.271 118.922 416.781 119.152 417.396 119.152C418.007 119.152 418.515 118.92 418.921 118.455C419.326 117.99 419.529 117.282 419.529 116.329C419.529 115.431 419.324 114.752 418.914 114.292C418.508 113.827 418.003 113.595 417.396 113.595C416.781 113.595 416.271 113.825 415.865 114.285C415.46 114.745 415.257 115.44 415.257 116.37ZM422.229 120V112.74H423.337V113.841C423.619 113.326 423.879 112.986 424.116 112.822C424.358 112.658 424.622 112.576 424.909 112.576C425.324 112.576 425.745 112.708 426.174 112.973L425.75 114.114C425.449 113.937 425.148 113.848 424.848 113.848C424.579 113.848 424.337 113.93 424.123 114.094C423.909 114.253 423.756 114.477 423.665 114.764C423.528 115.201 423.46 115.68 423.46 116.199V120H422.229ZM426.851 122.796L426.714 121.641C426.983 121.714 427.217 121.75 427.418 121.75C427.691 121.75 427.91 121.704 428.074 121.613C428.238 121.522 428.373 121.395 428.478 121.23C428.555 121.107 428.68 120.802 428.854 120.314C428.876 120.246 428.913 120.146 428.963 120.014L426.208 112.74H427.534L429.045 116.944C429.241 117.478 429.416 118.038 429.571 118.626C429.713 118.061 429.881 117.509 430.077 116.972L431.629 112.74H432.859L430.098 120.123C429.801 120.921 429.571 121.47 429.407 121.771C429.188 122.176 428.938 122.472 428.655 122.659C428.373 122.851 428.035 122.946 427.644 122.946C427.407 122.946 427.142 122.896 426.851 122.796Z" fill="black"/>
<path d="M30.6875 9.8418L32.3691 10.375C32.1113 11.3125 31.6816 12.0098 31.0801 12.4668C30.4824 12.9199 29.7227 13.1465 28.8008 13.1465C27.6602 13.1465 26.7227 12.7578 25.9883 11.9805C25.2539 11.1992 24.8867 10.1328 24.8867 8.78125C24.8867 7.35156 25.2559 6.24219 25.9941 5.45312C26.7324 4.66016 27.7031 4.26367 28.9062 4.26367C29.957 4.26367 30.8105 4.57422 31.4668 5.19531C31.8574 5.5625 32.1504 6.08984 32.3457 6.77734L30.6289 7.1875C30.5273 6.74219 30.3145 6.39062 29.9902 6.13281C29.6699 5.875 29.2793 5.74609 28.8184 5.74609C28.1816 5.74609 27.6641 5.97461 27.2656 6.43164C26.8711 6.88867 26.6738 7.62891 26.6738 8.65234C26.6738 9.73828 26.8691 10.5117 27.2598 10.9727C27.6504 11.4336 28.1582 11.6641 28.7832 11.6641C29.2441 11.6641 29.6406 11.5176 29.9727 11.2246C30.3047 10.9316 30.543 10.4707 30.6875 9.8418ZM33.8516 13V4.41016H35.498V13H33.8516ZM37.1914 5.93359V4.41016H38.8379V5.93359H37.1914ZM37.1914 13V6.77734H38.8379V13H37.1914ZM44.1348 11.0195L45.7754 11.2949C45.5645 11.8965 45.2305 12.3555 44.7734 12.6719C44.3203 12.9844 43.752 13.1406 43.0684 13.1406C41.9863 13.1406 41.1855 12.7871 40.666 12.0801C40.2559 11.5137 40.0508 10.7988 40.0508 9.93555C40.0508 8.9043 40.3203 8.09766 40.8594 7.51562C41.3984 6.92969 42.0801 6.63672 42.9043 6.63672C43.8301 6.63672 44.5605 6.94336 45.0957 7.55664C45.6309 8.16602 45.8867 9.10156 45.8633 10.3633H41.7383C41.75 10.8516 41.8828 11.2324 42.1367 11.5059C42.3906 11.7754 42.707 11.9102 43.0859 11.9102C43.3438 11.9102 43.5605 11.8398 43.7363 11.6992C43.9121 11.5586 44.0449 11.332 44.1348 11.0195ZM44.2285 9.35547C44.2168 8.87891 44.0938 8.51758 43.8594 8.27148C43.625 8.02148 43.3398 7.89648 43.0039 7.89648C42.6445 7.89648 42.3477 8.02734 42.1133 8.28906C41.8789 8.55078 41.7637 8.90625 41.7676 9.35547H44.2285ZM52.8711 13H51.2246V9.82422C51.2246 9.15234 51.1895 8.71875 51.1191 8.52344C51.0488 8.32422 50.9336 8.16992 50.7734 8.06055C50.6172 7.95117 50.4277 7.89648 50.2051 7.89648C49.9199 7.89648 49.6641 7.97461 49.4375 8.13086C49.2109 8.28711 49.0547 8.49414 48.9688 8.75195C48.8867 9.00977 48.8457 9.48633 48.8457 10.1816V13H47.1992V6.77734H48.7285V7.69141C49.2715 6.98828 49.9551 6.63672 50.7793 6.63672C51.1426 6.63672 51.4746 6.70312 51.7754 6.83594C52.0762 6.96484 52.3027 7.13086 52.4551 7.33398C52.6113 7.53711 52.7188 7.76758 52.7773 8.02539C52.8398 8.2832 52.8711 8.65234 52.8711 9.13281V13ZM57.4004 6.77734V8.08984H56.2754V10.5977C56.2754 11.1055 56.2852 11.4023 56.3047 11.4883C56.3281 11.5703 56.377 11.6387 56.4512 11.6934C56.5293 11.748 56.623 11.7754 56.7324 11.7754C56.8848 11.7754 57.1055 11.7227 57.3945 11.6172L57.5352 12.8945C57.1523 13.0586 56.7188 13.1406 56.2344 13.1406C55.9375 13.1406 55.6699 13.0918 55.4316 12.9941C55.1934 12.8926 55.0176 12.7637 54.9043 12.6074C54.7949 12.4473 54.7188 12.2324 54.6758 11.9629C54.6406 11.7715 54.623 11.3848 54.623 10.8027V8.08984H53.8672V6.77734H54.623V5.54102L56.2754 4.58008V6.77734H57.4004Z" fill="black"/>
<path d="M25.1562 68.4102H28.3262C29.041 68.4102 29.5859 68.4648 29.9609 68.5742C30.4648 68.7227 30.8965 68.9863 31.2559 69.3652C31.6152 69.7441 31.8887 70.209 32.0762 70.7598C32.2637 71.3066 32.3574 71.9824 32.3574 72.7871C32.3574 73.4941 32.2695 74.1035 32.0938 74.6152C31.8789 75.2402 31.5723 75.7461 31.1738 76.1328C30.873 76.4258 30.4668 76.6543 29.9551 76.8184C29.5723 76.9395 29.0605 77 28.4199 77H25.1562V68.4102ZM26.8906 69.8633V75.5527H28.1855C28.6699 75.5527 29.0195 75.5254 29.2344 75.4707C29.5156 75.4004 29.748 75.2812 29.9316 75.1133C30.1191 74.9453 30.2715 74.6699 30.3887 74.2871C30.5059 73.9004 30.5645 73.375 30.5645 72.7109C30.5645 72.0469 30.5059 71.5371 30.3887 71.1816C30.2715 70.8262 30.1074 70.5488 29.8965 70.3496C29.6855 70.1504 29.418 70.0156 29.0938 69.9453C28.8516 69.8906 28.377 69.8633 27.6699 69.8633H26.8906ZM35.0527 72.6758L33.5586 72.4062C33.7266 71.8047 34.0156 71.3594 34.4258 71.0703C34.8359 70.7812 35.4453 70.6367 36.2539 70.6367C36.9883 70.6367 37.5352 70.7246 37.8945 70.9004C38.2539 71.0723 38.5059 71.293 38.6504 71.5625C38.7988 71.8281 38.873 72.3184 38.873 73.0332L38.8555 74.9551C38.8555 75.502 38.8809 75.9062 38.9316 76.168C38.9863 76.4258 39.0859 76.7031 39.2305 77H37.6016C37.5586 76.8906 37.5059 76.7285 37.4434 76.5137C37.416 76.416 37.3965 76.3516 37.3848 76.3203C37.1035 76.5938 36.8027 76.7988 36.4824 76.9355C36.1621 77.0723 35.8203 77.1406 35.457 77.1406C34.8164 77.1406 34.3105 76.9668 33.9395 76.6191C33.5723 76.2715 33.3887 75.832 33.3887 75.3008C33.3887 74.9492 33.4727 74.6367 33.6406 74.3633C33.8086 74.0859 34.043 73.875 34.3438 73.7305C34.6484 73.582 35.0859 73.4531 35.6562 73.3438C36.4258 73.1992 36.959 73.0645 37.2559 72.9395V72.7754C37.2559 72.459 37.1777 72.2344 37.0215 72.1016C36.8652 71.9648 36.5703 71.8965 36.1367 71.8965C35.8438 71.8965 35.6152 71.9551 35.4512 72.0723C35.2871 72.1855 35.1543 72.3867 35.0527 72.6758ZM37.2559 74.0117C37.0449 74.082 36.7109 74.166 36.2539 74.2637C35.7969 74.3613 35.498 74.457 35.3574 74.5508C35.1426 74.7031 35.0352 74.8965 35.0352 75.1309C35.0352 75.3613 35.1211 75.5605 35.293 75.7285C35.4648 75.8965 35.6836 75.9805 35.9492 75.9805C36.2461 75.9805 36.5293 75.8828 36.7988 75.6875C36.998 75.5391 37.1289 75.3574 37.1914 75.1426C37.2344 75.002 37.2559 74.7344 37.2559 74.3398V74.0117ZM43.3555 70.7773V72.0898H42.2305V74.5977C42.2305 75.1055 42.2402 75.4023 42.2598 75.4883C42.2832 75.5703 42.332 75.6387 42.4062 75.6934C42.4844 75.748 42.5781 75.7754 42.6875 75.7754C42.8398 75.7754 43.0605 75.7227 43.3496 75.6172L43.4902 76.8945C43.1074 77.0586 42.6738 77.1406 42.1895 77.1406C41.8926 77.1406 41.625 77.0918 41.3867 76.9941C41.1484 76.8926 40.9727 76.7637 40.8594 76.6074C40.75 76.4473 40.6738 76.2324 40.6309 75.9629C40.5957 75.7715 40.5781 75.3848 40.5781 74.8027V72.0898H39.8223V70.7773H40.5781V69.541L42.2305 68.5801V70.7773H43.3555ZM45.7285 72.6758L44.2344 72.4062C44.4023 71.8047 44.6914 71.3594 45.1016 71.0703C45.5117 70.7812 46.1211 70.6367 46.9297 70.6367C47.6641 70.6367 48.2109 70.7246 48.5703 70.9004C48.9297 71.0723 49.1816 71.293 49.3262 71.5625C49.4746 71.8281 49.5488 72.3184 49.5488 73.0332L49.5312 74.9551C49.5312 75.502 49.5566 75.9062 49.6074 76.168C49.6621 76.4258 49.7617 76.7031 49.9062 77H48.2773C48.2344 76.8906 48.1816 76.7285 48.1191 76.5137C48.0918 76.416 48.0723 76.3516 48.0605 76.3203C47.7793 76.5938 47.4785 76.7988 47.1582 76.9355C46.8379 77.0723 46.4961 77.1406 46.1328 77.1406C45.4922 77.1406 44.9863 76.9668 44.6152 76.6191C44.248 76.2715 44.0645 75.832 44.0645 75.3008C44.0645 74.9492 44.1484 74.6367 44.3164 74.3633C44.4844 74.0859 44.7188 73.875 45.0195 73.7305C45.3242 73.582 45.7617 73.4531 46.332 73.3438C47.1016 73.1992 47.6348 73.0645 47.9316 72.9395V72.7754C47.9316 72.459 47.8535 72.2344 47.6973 72.1016C47.541 71.9648 47.2461 71.8965 46.8125 71.8965C46.5195 71.8965 46.291 71.9551 46.127 72.0723C45.9629 72.1855 45.8301 72.3867 45.7285 72.6758ZM47.9316 74.0117C47.7207 74.082 47.3867 74.166 46.9297 74.2637C46.4727 74.3613 46.1738 74.457 46.0332 74.5508C45.8184 74.7031 45.7109 74.8965 45.7109 75.1309C45.7109 75.3613 45.7969 75.5605 45.9688 75.7285C46.1406 75.8965 46.3594 75.9805 46.625 75.9805C46.9219 75.9805 47.2051 75.8828 47.4746 75.6875C47.6738 75.5391 47.8047 75.3574 47.8672 75.1426C47.9102 75.002 47.9316 74.7344 47.9316 74.3398V74.0117ZM54.5176 77V68.4102H56.1641V77H54.5176ZM59.0879 72.6758L57.5938 72.4062C57.7617 71.8047 58.0508 71.3594 58.4609 71.0703C58.8711 70.7812 59.4805 70.6367 60.2891 70.6367C61.0234 70.6367 61.5703 70.7246 61.9297 70.9004C62.2891 71.0723 62.541 71.293 62.6855 71.5625C62.834 71.8281 62.9082 72.3184 62.9082 73.0332L62.8906 74.9551C62.8906 75.502 62.916 75.9062 62.9668 76.168C63.0215 76.4258 63.1211 76.7031 63.2656 77H61.6367C61.5938 76.8906 61.541 76.7285 61.4785 76.5137C61.4512 76.416 61.4316 76.3516 61.4199 76.3203C61.1387 76.5938 60.8379 76.7988 60.5176 76.9355C60.1973 77.0723 59.8555 77.1406 59.4922 77.1406C58.8516 77.1406 58.3457 76.9668 57.9746 76.6191C57.6074 76.2715 57.4238 75.832 57.4238 75.3008C57.4238 74.9492 57.5078 74.6367 57.6758 74.3633C57.8438 74.0859 58.0781 73.875 58.3789 73.7305C58.6836 73.582 59.1211 73.4531 59.6914 73.3438C60.4609 73.1992 60.9941 73.0645 61.291 72.9395V72.7754C61.291 72.459 61.2129 72.2344 61.0566 72.1016C60.9004 71.9648 60.6055 71.8965 60.1719 71.8965C59.8789 71.8965 59.6504 71.9551 59.4863 72.0723C59.3223 72.1855 59.1895 72.3867 59.0879 72.6758ZM61.291 74.0117C61.0801 74.082 60.7461 74.166 60.2891 74.2637C59.832 74.3613 59.5332 74.457 59.3926 74.5508C59.1777 74.7031 59.0703 74.8965 59.0703 75.1309C59.0703 75.3613 59.1562 75.5605 59.3281 75.7285C59.5 75.8965 59.7188 75.9805 59.9844 75.9805C60.2812 75.9805 60.5645 75.8828 60.834 75.6875C61.0332 75.5391 61.1641 75.3574 61.2266 75.1426C61.2695 75.002 61.291 74.7344 61.291 74.3398V74.0117ZM63.7578 70.7773H65.5098L66.998 75.1953L68.4512 70.7773H70.1562L67.959 76.7656L67.5664 77.8496C67.4219 78.2129 67.2832 78.4902 67.1504 78.6816C67.0215 78.873 66.8711 79.0273 66.6992 79.1445C66.5312 79.2656 66.3223 79.3594 66.0723 79.4258C65.8262 79.4922 65.5469 79.5254 65.2344 79.5254C64.918 79.5254 64.6074 79.4922 64.3027 79.4258L64.1562 78.1367C64.4141 78.1875 64.6465 78.2129 64.8535 78.2129C65.2363 78.2129 65.5195 78.0996 65.7031 77.873C65.8867 77.6504 66.0273 77.3652 66.125 77.0176L63.7578 70.7773ZM74.8203 75.0195L76.4609 75.2949C76.25 75.8965 75.916 76.3555 75.459 76.6719C75.0059 76.9844 74.4375 77.1406 73.7539 77.1406C72.6719 77.1406 71.8711 76.7871 71.3516 76.0801C70.9414 75.5137 70.7363 74.7988 70.7363 73.9355C70.7363 72.9043 71.0059 72.0977 71.5449 71.5156C72.084 70.9297 72.7656 70.6367 73.5898 70.6367C74.5156 70.6367 75.2461 70.9434 75.7812 71.5566C76.3164 72.166 76.5723 73.1016 76.5488 74.3633H72.4238C72.4355 74.8516 72.5684 75.2324 72.8223 75.5059C73.0762 75.7754 73.3926 75.9102 73.7715 75.9102C74.0293 75.9102 74.2461 75.8398 74.4219 75.6992C74.5977 75.5586 74.7305 75.332 74.8203 75.0195ZM74.9141 73.3555C74.9023 72.8789 74.7793 72.5176 74.5449 72.2715C74.3105 72.0215 74.0254 71.8965 73.6895 71.8965C73.3301 71.8965 73.0332 72.0273 72.7988 72.2891C72.5645 72.5508 72.4492 72.9062 72.4531 73.3555H74.9141ZM79.4727 77H77.8262V70.7773H79.3555V71.6621C79.6172 71.2441 79.8516 70.9688 80.0586 70.8359C80.2695 70.7031 80.5078 70.6367 80.7734 70.6367C81.1484 70.6367 81.5098 70.7402 81.8574 70.9473L81.3477 72.3828C81.0703 72.2031 80.8125 72.1133 80.5742 72.1133C80.3438 72.1133 80.1484 72.1777 79.9883 72.3066C79.8281 72.4316 79.7012 72.6602 79.6074 72.9922C79.5176 73.3242 79.4727 74.0195 79.4727 75.0781V77Z" fill="black"/>
<path d="M22 27.5H456C457.933 27.5 459.5 29.067 459.5 31V55C459.5 56.933 457.933 58.5 456 58.5H22C20.067 58.5 18.5 56.933 18.5 55V31C18.5 29.067 20.067 27.5 22 27.5Z" fill="#E9E9E9"/>
<path d="M22 27.5H456C457.933 27.5 459.5 29.067 459.5 31V55C459.5 56.933 457.933 58.5 456 58.5H22C20.067 58.5 18.5 56.933 18.5 55V31C18.5 29.067 20.067 27.5 22 27.5Z" stroke="black"/>
<path d="M172.698 48V37.9785H176.15C176.93 37.9785 177.524 38.0264 177.935 38.1221C178.509 38.2542 178.999 38.4935 179.404 38.8398C179.933 39.2865 180.327 39.8584 180.587 40.5557C180.851 41.2484 180.983 42.0413 180.983 42.9346C180.983 43.6956 180.895 44.3701 180.717 44.958C180.539 45.5459 180.311 46.0335 180.033 46.4209C179.755 46.8037 179.45 47.1068 179.117 47.3301C178.789 47.5488 178.39 47.7152 177.921 47.8291C177.456 47.943 176.921 48 176.314 48H172.698ZM174.024 46.8174H176.164C176.825 46.8174 177.342 46.7559 177.716 46.6328C178.094 46.5098 178.395 46.3366 178.618 46.1133C178.933 45.7988 179.176 45.3773 179.35 44.8486C179.527 44.3154 179.616 43.6706 179.616 42.9141C179.616 41.8659 179.443 41.0615 179.097 40.501C178.755 39.9359 178.338 39.5576 177.846 39.3662C177.49 39.2295 176.918 39.1611 176.13 39.1611H174.024V46.8174ZM187.628 45.6621L188.899 45.8193C188.699 46.5622 188.327 47.1387 187.785 47.5488C187.243 47.959 186.55 48.1641 185.707 48.1641C184.645 48.1641 183.802 47.8382 183.178 47.1865C182.558 46.5303 182.248 45.612 182.248 44.4316C182.248 43.2103 182.562 42.2624 183.191 41.5879C183.82 40.9134 184.636 40.5762 185.639 40.5762C186.609 40.5762 187.402 40.9066 188.018 41.5674C188.633 42.2282 188.94 43.1579 188.94 44.3564C188.94 44.4294 188.938 44.5387 188.934 44.6846H183.52C183.565 45.4821 183.791 46.0928 184.196 46.5166C184.602 46.9404 185.108 47.1523 185.714 47.1523C186.165 47.1523 186.55 47.0339 186.869 46.7969C187.188 46.5599 187.441 46.1816 187.628 45.6621ZM183.588 43.6729H187.642C187.587 43.0622 187.432 42.6042 187.177 42.2988C186.785 41.8249 186.277 41.5879 185.652 41.5879C185.087 41.5879 184.611 41.777 184.224 42.1553C183.841 42.5335 183.629 43.0394 183.588 43.6729ZM190.451 50.7822V40.7402H191.572V41.6836C191.837 41.3145 192.135 41.0387 192.468 40.8564C192.8 40.6696 193.204 40.5762 193.678 40.5762C194.298 40.5762 194.844 40.7357 195.318 41.0547C195.792 41.3737 196.15 41.8249 196.392 42.4082C196.633 42.987 196.754 43.6227 196.754 44.3154C196.754 45.0583 196.619 45.7282 196.351 46.3252C196.086 46.9176 195.699 47.3734 195.188 47.6924C194.683 48.0068 194.149 48.1641 193.589 48.1641C193.179 48.1641 192.81 48.0775 192.481 47.9043C192.158 47.7311 191.891 47.5124 191.682 47.248V50.7822H190.451ZM191.565 44.4111C191.565 45.3454 191.755 46.0358 192.133 46.4824C192.511 46.929 192.969 47.1523 193.507 47.1523C194.054 47.1523 194.521 46.9222 194.908 46.4619C195.3 45.9971 195.496 45.2793 195.496 44.3086C195.496 43.3835 195.305 42.6908 194.922 42.2305C194.544 41.7702 194.09 41.54 193.562 41.54C193.037 41.54 192.573 41.7861 192.167 42.2783C191.766 42.766 191.565 43.4769 191.565 44.4111ZM203.214 45.6621L204.485 45.8193C204.285 46.5622 203.913 47.1387 203.371 47.5488C202.829 47.959 202.136 48.1641 201.293 48.1641C200.231 48.1641 199.388 47.8382 198.764 47.1865C198.144 46.5303 197.834 45.612 197.834 44.4316C197.834 43.2103 198.148 42.2624 198.777 41.5879C199.406 40.9134 200.222 40.5762 201.225 40.5762C202.195 40.5762 202.988 40.9066 203.604 41.5674C204.219 42.2282 204.526 43.1579 204.526 44.3564C204.526 44.4294 204.524 44.5387 204.52 44.6846H199.105C199.151 45.4821 199.377 46.0928 199.782 46.5166C200.188 46.9404 200.694 47.1523 201.3 47.1523C201.751 47.1523 202.136 47.0339 202.455 46.7969C202.774 46.5599 203.027 46.1816 203.214 45.6621ZM199.174 43.6729H203.228C203.173 43.0622 203.018 42.6042 202.763 42.2988C202.371 41.8249 201.863 41.5879 201.238 41.5879C200.673 41.5879 200.197 41.777 199.81 42.1553C199.427 42.5335 199.215 43.0394 199.174 43.6729ZM206.037 48V40.7402H207.145V41.7725C207.678 40.9749 208.448 40.5762 209.455 40.5762C209.893 40.5762 210.294 40.6559 210.658 40.8154C211.027 40.9704 211.303 41.1755 211.485 41.4307C211.668 41.6859 211.795 41.9889 211.868 42.3398C211.914 42.5677 211.937 42.9665 211.937 43.5361V48H210.706V43.584C210.706 43.0827 210.658 42.709 210.562 42.4629C210.467 42.2122 210.296 42.014 210.05 41.8682C209.808 41.7178 209.523 41.6426 209.195 41.6426C208.671 41.6426 208.218 41.8089 207.835 42.1416C207.457 42.4743 207.268 43.1055 207.268 44.0352V48H206.037ZM218.54 48V47.084C218.08 47.804 217.403 48.1641 216.51 48.1641C215.931 48.1641 215.398 48.0046 214.91 47.6855C214.427 47.3665 214.051 46.9222 213.782 46.3525C213.518 45.7783 213.386 45.1198 213.386 44.377C213.386 43.6523 213.507 42.9961 213.748 42.4082C213.99 41.8158 214.352 41.3623 214.835 41.0479C215.318 40.7334 215.858 40.5762 216.455 40.5762C216.893 40.5762 217.282 40.6696 217.624 40.8564C217.966 41.0387 218.244 41.278 218.458 41.5742V37.9785H219.682V48H218.54ZM214.65 44.377C214.65 45.3066 214.846 46.0016 215.238 46.4619C215.63 46.9222 216.093 47.1523 216.626 47.1523C217.164 47.1523 217.619 46.9336 217.993 46.4961C218.371 46.054 218.561 45.3818 218.561 44.4795C218.561 43.486 218.369 42.7568 217.986 42.292C217.604 41.8271 217.132 41.5947 216.571 41.5947C216.024 41.5947 215.566 41.818 215.197 42.2646C214.833 42.7113 214.65 43.4154 214.65 44.377ZM226.593 45.6621L227.864 45.8193C227.664 46.5622 227.292 47.1387 226.75 47.5488C226.208 47.959 225.515 48.1641 224.672 48.1641C223.61 48.1641 222.767 47.8382 222.143 47.1865C221.523 46.5303 221.213 45.612 221.213 44.4316C221.213 43.2103 221.527 42.2624 222.156 41.5879C222.785 40.9134 223.601 40.5762 224.604 40.5762C225.574 40.5762 226.367 40.9066 226.982 41.5674C227.598 42.2282 227.905 43.1579 227.905 44.3564C227.905 44.4294 227.903 44.5387 227.898 44.6846H222.484C222.53 45.4821 222.756 46.0928 223.161 46.5166C223.567 46.9404 224.073 47.1523 224.679 47.1523C225.13 47.1523 225.515 47.0339 225.834 46.7969C226.153 46.5599 226.406 46.1816 226.593 45.6621ZM222.553 43.6729H226.606C226.552 43.0622 226.397 42.6042 226.142 42.2988C225.75 41.8249 225.242 41.5879 224.617 41.5879C224.052 41.5879 223.576 41.777 223.188 42.1553C222.806 42.5335 222.594 43.0394 222.553 43.6729ZM229.416 48V40.7402H230.523V41.7725C231.057 40.9749 231.827 40.5762 232.834 40.5762C233.271 40.5762 233.673 40.6559 234.037 40.8154C234.406 40.9704 234.682 41.1755 234.864 41.4307C235.047 41.6859 235.174 41.9889 235.247 42.3398C235.293 42.5677 235.315 42.9665 235.315 43.5361V48H234.085V43.584C234.085 43.0827 234.037 42.709 233.941 42.4629C233.846 42.2122 233.675 42.014 233.429 41.8682C233.187 41.7178 232.902 41.6426 232.574 41.6426C232.05 41.6426 231.597 41.8089 231.214 42.1416C230.836 42.4743 230.646 43.1055 230.646 44.0352V48H229.416ZM241.946 45.3408L243.156 45.498C243.024 46.332 242.685 46.986 242.138 47.46C241.595 47.9294 240.928 48.1641 240.135 48.1641C239.141 48.1641 238.341 47.8405 237.735 47.1934C237.134 46.5417 236.833 45.6097 236.833 44.3975C236.833 43.6136 236.963 42.9277 237.223 42.3398C237.482 41.752 237.877 41.3122 238.405 41.0205C238.938 40.7243 239.517 40.5762 240.142 40.5762C240.93 40.5762 241.575 40.7767 242.076 41.1777C242.577 41.5742 242.899 42.1393 243.04 42.873L241.844 43.0576C241.73 42.57 241.527 42.2031 241.235 41.957C240.948 41.7109 240.6 41.5879 240.189 41.5879C239.57 41.5879 239.066 41.8112 238.679 42.2578C238.291 42.6999 238.098 43.4017 238.098 44.3633C238.098 45.3385 238.285 46.0472 238.658 46.4893C239.032 46.9313 239.52 47.1523 240.121 47.1523C240.604 47.1523 241.007 47.0042 241.331 46.708C241.655 46.4118 241.86 45.9561 241.946 45.3408ZM244.154 50.7959L244.018 49.6406C244.286 49.7135 244.521 49.75 244.722 49.75C244.995 49.75 245.214 49.7044 245.378 49.6133C245.542 49.5221 245.676 49.3945 245.781 49.2305C245.859 49.1074 245.984 48.8021 246.157 48.3145C246.18 48.2461 246.216 48.1458 246.267 48.0137L243.512 40.7402H244.838L246.349 44.9443C246.545 45.4775 246.72 46.0381 246.875 46.626C247.016 46.0609 247.185 45.5094 247.381 44.9717L248.933 40.7402H250.163L247.401 48.123C247.105 48.9206 246.875 49.4697 246.711 49.7705C246.492 50.1761 246.242 50.4723 245.959 50.6592C245.676 50.8506 245.339 50.9463 244.947 50.9463C244.71 50.9463 244.446 50.8962 244.154 50.7959ZM255.488 48V37.9785H256.814V48H255.488ZM259.002 48V40.7402H260.109V41.7725C260.643 40.9749 261.413 40.5762 262.42 40.5762C262.857 40.5762 263.258 40.6559 263.623 40.8154C263.992 40.9704 264.268 41.1755 264.45 41.4307C264.632 41.6859 264.76 41.9889 264.833 42.3398C264.879 42.5677 264.901 42.9665 264.901 43.5361V48H263.671V43.584C263.671 43.0827 263.623 42.709 263.527 42.4629C263.432 42.2122 263.261 42.014 263.015 41.8682C262.773 41.7178 262.488 41.6426 262.16 41.6426C261.636 41.6426 261.183 41.8089 260.8 42.1416C260.422 42.4743 260.232 43.1055 260.232 44.0352V48H259.002ZM266.788 39.4072V37.9785H268.019V39.4072H266.788ZM265.229 50.8164L265.462 49.7705C265.708 49.8343 265.902 49.8662 266.043 49.8662C266.294 49.8662 266.48 49.7819 266.604 49.6133C266.727 49.4492 266.788 49.0345 266.788 48.3691V40.7402H268.019V48.3965C268.019 49.2897 267.902 49.9118 267.67 50.2627C267.374 50.7184 266.882 50.9463 266.193 50.9463C265.861 50.9463 265.539 50.903 265.229 50.8164ZM274.882 45.6621L276.153 45.8193C275.953 46.5622 275.581 47.1387 275.039 47.5488C274.497 47.959 273.804 48.1641 272.961 48.1641C271.899 48.1641 271.056 47.8382 270.432 47.1865C269.812 46.5303 269.502 45.612 269.502 44.4316C269.502 43.2103 269.816 42.2624 270.445 41.5879C271.074 40.9134 271.89 40.5762 272.893 40.5762C273.863 40.5762 274.656 40.9066 275.271 41.5674C275.887 42.2282 276.194 43.1579 276.194 44.3564C276.194 44.4294 276.192 44.5387 276.188 44.6846H270.773C270.819 45.4821 271.045 46.0928 271.45 46.5166C271.856 46.9404 272.362 47.1523 272.968 47.1523C273.419 47.1523 273.804 47.0339 274.123 46.7969C274.442 46.5599 274.695 46.1816 274.882 45.6621ZM270.842 43.6729H274.896C274.841 43.0622 274.686 42.6042 274.431 42.2988C274.039 41.8249 273.531 41.5879 272.906 41.5879C272.341 41.5879 271.865 41.777 271.478 42.1553C271.095 42.5335 270.883 43.0394 270.842 43.6729ZM282.442 45.3408L283.652 45.498C283.52 46.332 283.181 46.986 282.634 47.46C282.091 47.9294 281.424 48.1641 280.631 48.1641C279.637 48.1641 278.838 47.8405 278.231 47.1934C277.63 46.5417 277.329 45.6097 277.329 44.3975C277.329 43.6136 277.459 42.9277 277.719 42.3398C277.979 41.752 278.373 41.3122 278.901 41.0205C279.435 40.7243 280.013 40.5762 280.638 40.5762C281.426 40.5762 282.071 40.7767 282.572 41.1777C283.074 41.5742 283.395 42.1393 283.536 42.873L282.34 43.0576C282.226 42.57 282.023 42.2031 281.731 41.957C281.444 41.7109 281.096 41.5879 280.686 41.5879C280.066 41.5879 279.562 41.8112 279.175 42.2578C278.787 42.6999 278.594 43.4017 278.594 44.3633C278.594 45.3385 278.781 46.0472 279.154 46.4893C279.528 46.9313 280.016 47.1523 280.617 47.1523C281.1 47.1523 281.504 47.0042 281.827 46.708C282.151 46.4118 282.356 45.9561 282.442 45.3408ZM287.392 46.8994L287.569 47.9863C287.223 48.0592 286.913 48.0957 286.64 48.0957C286.193 48.0957 285.847 48.0251 285.601 47.8838C285.354 47.7425 285.181 47.5579 285.081 47.3301C284.981 47.0977 284.931 46.6123 284.931 45.874V41.6973H284.028V40.7402H284.931V38.9424L286.154 38.2041V40.7402H287.392V41.6973H286.154V45.9424C286.154 46.2933 286.175 46.5189 286.216 46.6191C286.261 46.7194 286.332 46.7992 286.428 46.8584C286.528 46.9176 286.669 46.9473 286.852 46.9473C286.988 46.9473 287.168 46.9313 287.392 46.8994ZM288.608 39.3936V37.9785H289.839V39.3936H288.608ZM288.608 48V40.7402H289.839V48H288.608ZM291.261 44.3701C291.261 43.0257 291.634 42.0299 292.382 41.3828C293.006 40.8451 293.767 40.5762 294.665 40.5762C295.663 40.5762 296.479 40.9043 297.112 41.5605C297.746 42.2122 298.062 43.1146 298.062 44.2676C298.062 45.2018 297.921 45.9378 297.639 46.4756C297.361 47.0088 296.953 47.4235 296.415 47.7197C295.882 48.016 295.299 48.1641 294.665 48.1641C293.649 48.1641 292.826 47.8382 292.197 47.1865C291.573 46.5348 291.261 45.596 291.261 44.3701ZM292.525 44.3701C292.525 45.2998 292.728 45.9971 293.134 46.4619C293.539 46.9222 294.05 47.1523 294.665 47.1523C295.276 47.1523 295.784 46.9199 296.189 46.4551C296.595 45.9902 296.798 45.2816 296.798 44.3291C296.798 43.4313 296.593 42.7523 296.183 42.292C295.777 41.8271 295.271 41.5947 294.665 41.5947C294.05 41.5947 293.539 41.8249 293.134 42.2852C292.728 42.7454 292.525 43.4404 292.525 44.3701ZM299.512 48V40.7402H300.619V41.7725C301.152 40.9749 301.923 40.5762 302.93 40.5762C303.367 40.5762 303.768 40.6559 304.133 40.8154C304.502 40.9704 304.778 41.1755 304.96 41.4307C305.142 41.6859 305.27 41.9889 305.343 42.3398C305.388 42.5677 305.411 42.9665 305.411 43.5361V48H304.181V43.584C304.181 43.0827 304.133 42.709 304.037 42.4629C303.941 42.2122 303.771 42.014 303.524 41.8682C303.283 41.7178 302.998 41.6426 302.67 41.6426C302.146 41.6426 301.692 41.8089 301.31 42.1416C300.931 42.4743 300.742 43.1055 300.742 44.0352V48H299.512Z" fill="black"/>
<mask id="path-17-inside-1_3_2459" fill="white">
<path d="M100 201C100 207.075 81.6437 212 59 212C36.3563 212 18 207.075 18 201V184C18 181.791 19.7909 180 22 180H96C98.2091 180 100 181.791 100 184V201Z"/>
</mask>
<path d="M100 201C100 207.075 81.6437 212 59 212C36.3563 212 18 207.075 18 201V184C18 181.791 19.7909 180 22 180H96C98.2091 180 100 181.791 100 184V201Z" fill="white"/>
<path d="M100 201H99C99 201.981 98.2443 203.167 96.2424 204.437C94.289 205.676 91.3961 206.829 87.7322 207.812C80.4191 209.774 70.2603 211 59 211V212V213C70.3834 213 80.7246 211.763 88.2505 209.744C92.0062 208.736 95.1176 207.519 97.3137 206.126C99.4612 204.764 101 203.056 101 201H100ZM59 212V211C47.7397 211 37.5809 209.774 30.2678 207.812C26.6039 206.829 23.711 205.676 21.7576 204.437C19.7557 203.167 19 201.981 19 201H18H17C17 203.056 18.5388 204.764 20.6863 206.126C22.8824 207.519 25.9938 208.736 29.7495 209.744C37.2754 211.763 47.6166 213 59 213V212ZM18 201H19V184H18H17V201H18ZM22 180V181H96V180V179H22V180ZM100 184H99V201H100H101V184H100ZM96 180V181C97.6569 181 99 182.343 99 184H100H101C101 181.239 98.7614 179 96 179V180ZM18 184H19C19 182.343 20.3431 181 22 181V180V179C19.2386 179 17 181.239 17 184H18Z" fill="black" mask="url(#path-17-inside-1_3_2459)"/>
<path d="M59 171.5C70.2909 171.5 80.495 172.729 87.8613 174.705C91.548 175.694 94.4957 176.863 96.5098 178.141C98.5481 179.434 99.5 180.75 99.5 182C99.5 183.25 98.5481 184.566 96.5098 185.859C94.4957 187.137 91.548 188.306 87.8613 189.295C80.495 191.271 70.2909 192.5 59 192.5C47.7091 192.5 37.505 191.271 30.1387 189.295C26.452 188.306 23.5043 187.137 21.4902 185.859C19.4519 184.566 18.5 183.25 18.5 182C18.5 180.75 19.4519 179.434 21.4902 178.141C23.5043 176.863 26.452 175.694 30.1387 174.705C37.505 172.729 47.7091 171.5 59 171.5Z" fill="white" stroke="black"/>
<path d="M43.2168 207L47.0928 201.777L43.6748 196.979H45.2539L47.0723 199.549C47.4505 200.082 47.7194 200.492 47.8789 200.779C48.1022 200.415 48.3665 200.034 48.6719 199.638L50.6885 196.979H52.1309L48.6104 201.702L52.4043 207H50.7637L48.2412 203.425C48.0999 203.22 47.9541 202.996 47.8037 202.755C47.5804 203.119 47.4209 203.37 47.3252 203.507L44.8096 207H43.2168ZM57.4697 207V196.979H60.9219C61.7012 196.979 62.2959 197.026 62.7061 197.122C63.2803 197.254 63.7702 197.493 64.1758 197.84C64.7044 198.286 65.0986 198.858 65.3584 199.556C65.6227 200.248 65.7549 201.041 65.7549 201.935C65.7549 202.696 65.666 203.37 65.4883 203.958C65.3105 204.546 65.0827 205.034 64.8047 205.421C64.5267 205.804 64.2214 206.107 63.8887 206.33C63.5605 206.549 63.1618 206.715 62.6924 206.829C62.2275 206.943 61.6921 207 61.0859 207H57.4697ZM58.7959 205.817H60.9355C61.5964 205.817 62.1136 205.756 62.4873 205.633C62.8656 205.51 63.1663 205.337 63.3896 205.113C63.7041 204.799 63.9479 204.377 64.1211 203.849C64.2988 203.315 64.3877 202.671 64.3877 201.914C64.3877 200.866 64.2145 200.062 63.8682 199.501C63.5264 198.936 63.1094 198.558 62.6172 198.366C62.2617 198.229 61.6898 198.161 60.9014 198.161H58.7959V205.817ZM67.5322 207V196.979H71.292C72.0576 196.979 72.6706 197.081 73.1309 197.286C73.5957 197.487 73.958 197.799 74.2178 198.223C74.4821 198.642 74.6143 199.082 74.6143 199.542C74.6143 199.97 74.498 200.374 74.2656 200.752C74.0332 201.13 73.6823 201.436 73.2129 201.668C73.819 201.846 74.2839 202.149 74.6074 202.577C74.9355 203.006 75.0996 203.511 75.0996 204.095C75.0996 204.564 74.9993 205.002 74.7988 205.407C74.6029 205.808 74.359 206.118 74.0674 206.337C73.7757 206.556 73.4089 206.722 72.9668 206.836C72.5293 206.945 71.9915 207 71.3535 207H67.5322ZM68.8584 201.189H71.0254C71.6133 201.189 72.0348 201.151 72.29 201.073C72.6273 200.973 72.8802 200.807 73.0488 200.574C73.222 200.342 73.3086 200.05 73.3086 199.699C73.3086 199.367 73.2288 199.075 73.0693 198.824C72.9098 198.569 72.682 198.396 72.3857 198.305C72.0895 198.209 71.5814 198.161 70.8613 198.161H68.8584V201.189ZM68.8584 205.817H71.3535C71.7819 205.817 72.0827 205.801 72.2559 205.77C72.5612 205.715 72.8164 205.624 73.0215 205.496C73.2266 205.368 73.3952 205.184 73.5273 204.942C73.6595 204.696 73.7256 204.414 73.7256 204.095C73.7256 203.721 73.6299 203.397 73.4385 203.124C73.2471 202.846 72.9805 202.652 72.6387 202.543C72.3014 202.429 71.8138 202.372 71.1758 202.372H68.8584V205.817Z" fill="black"/>
<path d="M226.5 77C226.5 77.2761 226.724 77.5 227 77.5C227.276 77.5 227.5 77.2761 227.5 77H226.5ZM227.354 58.6464C227.158 58.4512 226.842 58.4512 226.646 58.6464L223.464 61.8284C223.269 62.0237 223.269 62.3403 223.464 62.5355C223.66 62.7308 223.976 62.7308 224.172 62.5355L227 59.7071L229.828 62.5355C230.024 62.7308 230.34 62.7308 230.536 62.5355C230.731 62.3403 230.731 62.0237 230.536 61.8284L227.354 58.6464ZM227 77H227.5V59H227H226.5V77H227Z" fill="black"/>
<path d="M399.5 77C399.5 77.2761 399.724 77.5 400 77.5C400.276 77.5 400.5 77.2761 400.5 77H399.5ZM400.354 58.6464C400.158 58.4512 399.842 58.4512 399.646 58.6464L396.464 61.8284C396.269 62.0237 396.269 62.3403 396.464 62.5355C396.66 62.7308 396.976 62.7308 397.172 62.5355L400 59.7071L402.828 62.5355C403.024 62.7308 403.34 62.7308 403.536 62.5355C403.731 62.3403 403.731 62.0237 403.536 61.8284L400.354 58.6464ZM400 77H400.5V59H400H399.5V77H400Z" fill="black"/>
<path d="M399.5 162C399.5 162.276 399.724 162.5 400 162.5C400.276 162.5 400.5 162.276 400.5 162H399.5ZM400.354 136.646C400.158 136.451 399.842 136.451 399.646 136.646L396.464 139.828C396.269 140.024 396.269 140.34 396.464 140.536C396.66 140.731 396.976 140.731 397.172 140.536L400 137.707L402.828 140.536C403.024 140.731 403.34 140.731 403.536 140.536C403.731 140.34 403.731 140.024 403.536 139.828L400.354 136.646ZM400 162H400.5V137H400H399.5V162H400Z" fill="black"/>
<path d="M100 191.5C99.7239 191.5 99.5 191.724 99.5 192C99.5 192.276 99.7239 192.5 100 192.5L100 191.5ZM121.354 192.354C121.549 192.158 121.549 191.842 121.354 191.646L118.172 188.464C117.976 188.269 117.66 188.269 117.464 188.464C117.269 188.66 117.269 188.976 117.464 189.172L120.293 192L117.464 194.828C117.269 195.024 117.269 195.34 117.464 195.536C117.66 195.731 117.976 195.731 118.172 195.536L121.354 192.354ZM100 192L100 192.5L121 192.5L121 192L121 191.5L100 191.5L100 192Z" fill="black"/>
<path d="M152.5 162C152.5 162.276 152.724 162.5 153 162.5C153.276 162.5 153.5 162.276 153.5 162H152.5ZM176.354 107.354C176.549 107.158 176.549 106.842 176.354 106.646L173.172 103.464C172.976 103.269 172.66 103.269 172.464 103.464C172.269 103.66 172.269 103.976 172.464 104.172L175.293 107L172.464 109.828C172.269 110.024 172.269 110.34 172.464 110.536C172.66 110.731 172.976 110.731 173.172 110.536L176.354 107.354ZM153 162H153.5V113H153H152.5V162H153ZM159 107V107.5H176V107V106.5H159V107ZM153 113H153.5C153.5 109.962 155.962 107.5 159 107.5V107V106.5C155.41 106.5 152.5 109.41 152.5 113H153Z" fill="black"/>
<path d="M295.5 162C295.5 162.276 295.724 162.5 296 162.5C296.276 162.5 296.5 162.276 296.5 162H295.5ZM276.646 106.646C276.451 106.842 276.451 107.158 276.646 107.354L279.828 110.536C280.024 110.731 280.34 110.731 280.536 110.536C280.731 110.34 280.731 110.024 280.536 109.828L277.707 107L280.536 104.172C280.731 103.976 280.731 103.66 280.536 103.464C280.34 103.269 280.024 103.269 279.828 103.464L276.646 106.646ZM296 162H296.5V113H296H295.5V162H296ZM290 107V106.5H277V107V107.5H290V107ZM296 113H296.5C296.5 109.41 293.59 106.5 290 106.5V107V107.5C293.038 107.5 295.5 109.962 295.5 113H296Z" fill="black"/>
</svg>
