<svg width="482" height="118" viewBox="0 0 482 118" fill="none" xmlns="http://www.w3.org/2000/svg">
<g clip-path="url(#clip0_3_2142)">
<rect width="482" height="118" fill="white"/>
<path d="M6 2.5H117C118.933 2.5 120.5 4.067 120.5 6V58C120.5 59.933 118.933 61.5 117 61.5H6C4.067 61.5 2.5 59.933 2.5 58V6C2.5 4.067 4.067 2.5 6 2.5Z" fill="white"/>
<path d="M6 2.5H117C118.933 2.5 120.5 4.067 120.5 6V58C120.5 59.933 118.933 61.5 117 61.5H6C4.067 61.5 2.5 59.933 2.5 58V6C2.5 4.067 4.067 2.5 6 2.5Z" stroke="black"/>
<path d="M23.1846 33.7803L24.4355 33.6709C24.4948 34.1722 24.6315 34.5846 24.8457 34.9082C25.0645 35.2272 25.4017 35.487 25.8574 35.6875C26.3132 35.8835 26.8258 35.9814 27.3955 35.9814C27.9014 35.9814 28.348 35.9062 28.7354 35.7559C29.1227 35.6055 29.4098 35.4004 29.5967 35.1406C29.7881 34.8763 29.8838 34.5892 29.8838 34.2793C29.8838 33.9648 29.7926 33.6914 29.6104 33.459C29.4281 33.222 29.1273 33.0238 28.708 32.8643C28.4391 32.7594 27.8444 32.5977 26.9238 32.3789C26.0033 32.1556 25.3584 31.946 24.9893 31.75C24.5107 31.4993 24.153 31.1895 23.916 30.8203C23.6836 30.4466 23.5674 30.0296 23.5674 29.5693C23.5674 29.0635 23.7109 28.5918 23.998 28.1543C24.2852 27.7122 24.7044 27.3773 25.2559 27.1494C25.8073 26.9215 26.4202 26.8076 27.0947 26.8076C27.8376 26.8076 28.4915 26.9284 29.0566 27.1699C29.6263 27.4069 30.0638 27.7578 30.3691 28.2227C30.6745 28.6875 30.8385 29.2139 30.8613 29.8018L29.5898 29.8975C29.5215 29.264 29.2891 28.7855 28.8926 28.4619C28.5007 28.1383 27.9196 27.9766 27.1494 27.9766C26.3473 27.9766 25.7617 28.1247 25.3926 28.4209C25.028 28.7126 24.8457 29.0658 24.8457 29.4805C24.8457 29.8405 24.9756 30.1367 25.2354 30.3691C25.4906 30.6016 26.1559 30.8408 27.2314 31.0869C28.3115 31.3285 29.0521 31.5404 29.4531 31.7227C30.0365 31.9915 30.4671 32.3333 30.7451 32.748C31.0231 33.1582 31.1621 33.6322 31.1621 34.1699C31.1621 34.7031 31.0094 35.2067 30.7041 35.6807C30.3988 36.1501 29.959 36.5169 29.3848 36.7812C28.8151 37.041 28.1725 37.1709 27.457 37.1709C26.5501 37.1709 25.7891 37.0387 25.1738 36.7744C24.5632 36.5101 24.0824 36.1136 23.7314 35.585C23.3851 35.0518 23.2028 34.4502 23.1846 33.7803ZM35.5029 35.8994L35.6807 36.9863C35.3343 37.0592 35.0244 37.0957 34.751 37.0957C34.3044 37.0957 33.958 37.0251 33.7119 36.8838C33.4658 36.7425 33.2926 36.5579 33.1924 36.3301C33.0921 36.0977 33.042 35.6123 33.042 34.874V30.6973H32.1396V29.7402H33.042V27.9424L34.2656 27.2041V29.7402H35.5029V30.6973H34.2656V34.9424C34.2656 35.2933 34.2861 35.5189 34.3271 35.6191C34.3727 35.7194 34.4434 35.7992 34.5391 35.8584C34.6393 35.9176 34.7806 35.9473 34.9629 35.9473C35.0996 35.9473 35.2796 35.9313 35.5029 35.8994ZM41.4502 36.1045C40.9945 36.4919 40.5547 36.7653 40.1309 36.9248C39.7116 37.0843 39.2604 37.1641 38.7773 37.1641C37.9798 37.1641 37.3669 36.9704 36.9385 36.583C36.5101 36.1911 36.2959 35.6921 36.2959 35.0859C36.2959 34.7305 36.3757 34.4069 36.5352 34.1152C36.6992 33.819 36.9111 33.582 37.1709 33.4043C37.4352 33.2266 37.7314 33.0921 38.0596 33.001C38.3011 32.9372 38.6657 32.8757 39.1533 32.8164C40.1468 32.6979 40.8783 32.5566 41.3477 32.3926C41.3522 32.224 41.3545 32.1169 41.3545 32.0713C41.3545 31.57 41.2383 31.2168 41.0059 31.0117C40.6914 30.7337 40.2243 30.5947 39.6045 30.5947C39.0257 30.5947 38.5973 30.6973 38.3193 30.9023C38.0459 31.1029 37.8431 31.4606 37.7109 31.9756L36.5078 31.8115C36.6172 31.2965 36.7972 30.8818 37.0479 30.5674C37.2985 30.2484 37.6608 30.0046 38.1348 29.8359C38.6087 29.6628 39.1579 29.5762 39.7822 29.5762C40.402 29.5762 40.9056 29.6491 41.293 29.7949C41.6803 29.9408 41.9652 30.1253 42.1475 30.3486C42.3298 30.5674 42.4574 30.8454 42.5303 31.1826C42.5713 31.3923 42.5918 31.7705 42.5918 32.3174V33.958C42.5918 35.1019 42.6169 35.8265 42.667 36.1318C42.7217 36.4326 42.8265 36.722 42.9814 37H41.6963C41.5687 36.7448 41.4867 36.4463 41.4502 36.1045ZM41.3477 33.3564C40.901 33.5387 40.2311 33.6937 39.3379 33.8213C38.832 33.8942 38.4743 33.9762 38.2646 34.0674C38.055 34.1585 37.8932 34.293 37.7793 34.4707C37.6654 34.6439 37.6084 34.8376 37.6084 35.0518C37.6084 35.3799 37.7314 35.6533 37.9775 35.8721C38.2282 36.0908 38.5928 36.2002 39.0713 36.2002C39.5452 36.2002 39.9668 36.0977 40.3359 35.8926C40.7051 35.6829 40.9762 35.3981 41.1494 35.0381C41.2816 34.7601 41.3477 34.3499 41.3477 33.8076V33.3564ZM47.1924 35.8994L47.3701 36.9863C47.0238 37.0592 46.7139 37.0957 46.4404 37.0957C45.9938 37.0957 45.6475 37.0251 45.4014 36.8838C45.1553 36.7425 44.9821 36.5579 44.8818 36.3301C44.7816 36.0977 44.7314 35.6123 44.7314 34.874V30.6973H43.8291V29.7402H44.7314V27.9424L45.9551 27.2041V29.7402H47.1924V30.6973H45.9551V34.9424C45.9551 35.2933 45.9756 35.5189 46.0166 35.6191C46.0622 35.7194 46.1328 35.7992 46.2285 35.8584C46.3288 35.9176 46.4701 35.9473 46.6523 35.9473C46.7891 35.9473 46.9691 35.9313 47.1924 35.8994ZM53.3721 34.6621L54.6436 34.8193C54.443 35.5622 54.0716 36.1387 53.5293 36.5488C52.987 36.959 52.2943 37.1641 51.4512 37.1641C50.3893 37.1641 49.5462 36.8382 48.9219 36.1865C48.3021 35.5303 47.9922 34.612 47.9922 33.4316C47.9922 32.2103 48.3066 31.2624 48.9355 30.5879C49.5645 29.9134 50.3802 29.5762 51.3828 29.5762C52.3535 29.5762 53.1465 29.9066 53.7617 30.5674C54.377 31.2282 54.6846 32.1579 54.6846 33.3564C54.6846 33.4294 54.6823 33.5387 54.6777 33.6846H49.2637C49.3092 34.4821 49.5348 35.0928 49.9404 35.5166C50.346 35.9404 50.8519 36.1523 51.458 36.1523C51.9092 36.1523 52.2943 36.0339 52.6133 35.7969C52.9323 35.5599 53.1852 35.1816 53.3721 34.6621ZM49.332 32.6729H53.3857C53.3311 32.0622 53.1761 31.6042 52.9209 31.2988C52.529 30.8249 52.0208 30.5879 51.3965 30.5879C50.8314 30.5879 50.3551 30.777 49.9678 31.1553C49.585 31.5335 49.373 32.0394 49.332 32.6729ZM60.29 37V26.9785H61.6162V31.0938H66.8252V26.9785H68.1514V37H66.8252V32.2764H61.6162V37H60.29ZM69.751 33.3701C69.751 32.0257 70.1247 31.0299 70.8721 30.3828C71.4964 29.8451 72.2575 29.5762 73.1553 29.5762C74.1533 29.5762 74.9691 29.9043 75.6025 30.5605C76.236 31.2122 76.5527 32.1146 76.5527 33.2676C76.5527 34.2018 76.4115 34.9378 76.1289 35.4756C75.8509 36.0088 75.443 36.4235 74.9053 36.7197C74.3721 37.016 73.7887 37.1641 73.1553 37.1641C72.139 37.1641 71.3164 36.8382 70.6875 36.1865C70.0632 35.5348 69.751 34.596 69.751 33.3701ZM71.0156 33.3701C71.0156 34.2998 71.2184 34.9971 71.624 35.4619C72.0296 35.9222 72.54 36.1523 73.1553 36.1523C73.766 36.1523 74.2741 35.9199 74.6797 35.4551C75.0853 34.9902 75.2881 34.2816 75.2881 33.3291C75.2881 32.4313 75.083 31.7523 74.6729 31.292C74.2673 30.8271 73.7614 30.5947 73.1553 30.5947C72.54 30.5947 72.0296 30.8249 71.624 31.2852C71.2184 31.7454 71.0156 32.4404 71.0156 33.3701ZM77.9746 37V26.9785H79.2051V37H77.9746ZM85.8291 37V36.084C85.3688 36.804 84.6921 37.1641 83.7988 37.1641C83.2201 37.1641 82.6868 37.0046 82.1992 36.6855C81.7161 36.3665 81.3402 35.9222 81.0713 35.3525C80.807 34.7783 80.6748 34.1198 80.6748 33.377C80.6748 32.6523 80.7956 31.9961 81.0371 31.4082C81.2786 30.8158 81.641 30.3623 82.124 30.0479C82.6071 29.7334 83.1471 29.5762 83.7441 29.5762C84.1816 29.5762 84.5713 29.6696 84.9131 29.8564C85.2549 30.0387 85.5329 30.278 85.7471 30.5742V26.9785H86.9707V37H85.8291ZM81.9395 33.377C81.9395 34.3066 82.1354 35.0016 82.5273 35.4619C82.9193 35.9222 83.3818 36.1523 83.915 36.1523C84.4528 36.1523 84.9085 35.9336 85.2822 35.4961C85.6605 35.054 85.8496 34.3818 85.8496 33.4795C85.8496 32.486 85.6582 31.7568 85.2754 31.292C84.8926 30.8271 84.4209 30.5947 83.8604 30.5947C83.3135 30.5947 82.8555 30.818 82.4863 31.2646C82.1217 31.7113 81.9395 32.4154 81.9395 33.377ZM93.8818 34.6621L95.1533 34.8193C94.9528 35.5622 94.5814 36.1387 94.0391 36.5488C93.4967 36.959 92.804 37.1641 91.9609 37.1641C90.8991 37.1641 90.056 36.8382 89.4316 36.1865C88.8118 35.5303 88.502 34.612 88.502 33.4316C88.502 32.2103 88.8164 31.2624 89.4453 30.5879C90.0742 29.9134 90.89 29.5762 91.8926 29.5762C92.8633 29.5762 93.6562 29.9066 94.2715 30.5674C94.8867 31.2282 95.1943 32.1579 95.1943 33.3564C95.1943 33.4294 95.1921 33.5387 95.1875 33.6846H89.7734C89.819 34.4821 90.0446 35.0928 90.4502 35.5166C90.8558 35.9404 91.3617 36.1523 91.9678 36.1523C92.4189 36.1523 92.804 36.0339 93.123 35.7969C93.4421 35.5599 93.695 35.1816 93.8818 34.6621ZM89.8418 32.6729H93.8955C93.8408 32.0622 93.6859 31.6042 93.4307 31.2988C93.0387 30.8249 92.5306 30.5879 91.9062 30.5879C91.3411 30.5879 90.8649 30.777 90.4775 31.1553C90.0947 31.5335 89.8828 32.0394 89.8418 32.6729ZM96.6914 37V29.7402H97.7988V30.8408C98.0814 30.3258 98.3411 29.9863 98.5781 29.8223C98.8197 29.6582 99.084 29.5762 99.3711 29.5762C99.7858 29.5762 100.207 29.7083 100.636 29.9727L100.212 31.1143C99.9111 30.9365 99.6104 30.8477 99.3096 30.8477C99.0407 30.8477 98.7992 30.9297 98.585 31.0938C98.3708 31.2533 98.2181 31.4766 98.127 31.7637C97.9902 32.2012 97.9219 32.6797 97.9219 33.1992V37H96.6914Z" fill="black"/>
<path d="M365 2.5H476C477.933 2.5 479.5 4.067 479.5 6V58C479.5 59.933 477.933 61.5 476 61.5H365C363.067 61.5 361.5 59.933 361.5 58V6C361.5 4.067 363.067 2.5 365 2.5Z" fill="white"/>
<path d="M365 2.5H476C477.933 2.5 479.5 4.067 479.5 6V58C479.5 59.933 477.933 61.5 476 61.5H365C363.067 61.5 361.5 59.933 361.5 58V6C361.5 4.067 363.067 2.5 365 2.5Z" stroke="black"/>
<path d="M421.149 26.9785H422.476V32.7686C422.476 33.7757 422.362 34.5755 422.134 35.168C421.906 35.7604 421.493 36.2435 420.896 36.6172C420.304 36.9863 419.525 37.1709 418.559 37.1709C417.62 37.1709 416.852 37.0091 416.255 36.6855C415.658 36.362 415.232 35.8949 414.977 35.2842C414.721 34.6689 414.594 33.8304 414.594 32.7686V26.9785H415.92V32.7617C415.92 33.6322 416 34.2747 416.159 34.6895C416.323 35.0996 416.601 35.4163 416.993 35.6396C417.39 35.863 417.873 35.9746 418.442 35.9746C419.418 35.9746 420.113 35.7536 420.527 35.3115C420.942 34.8695 421.149 34.0195 421.149 32.7617V26.9785ZM424.916 37V26.9785H426.242V37H424.916Z" fill="black"/>
<path d="M212.37 24V13.9785H215.822C216.602 13.9785 217.196 14.0264 217.606 14.1221C218.181 14.2542 218.671 14.4935 219.076 14.8398C219.605 15.2865 219.999 15.8584 220.259 16.5557C220.523 17.2484 220.655 18.0413 220.655 18.9346C220.655 19.6956 220.566 20.3701 220.389 20.958C220.211 21.5459 219.983 22.0335 219.705 22.4209C219.427 22.8037 219.122 23.1068 218.789 23.3301C218.461 23.5488 218.062 23.7152 217.593 23.8291C217.128 23.943 216.592 24 215.986 24H212.37ZM213.696 22.8174H215.836C216.497 22.8174 217.014 22.7559 217.388 22.6328C217.766 22.5098 218.067 22.3366 218.29 22.1133C218.604 21.7988 218.848 21.3773 219.021 20.8486C219.199 20.3154 219.288 19.6706 219.288 18.9141C219.288 17.8659 219.115 17.0615 218.769 16.501C218.427 15.9359 218.01 15.5576 217.518 15.3662C217.162 15.2295 216.59 15.1611 215.802 15.1611H213.696V22.8174ZM227.067 23.1045C226.612 23.4919 226.172 23.7653 225.748 23.9248C225.329 24.0843 224.878 24.1641 224.395 24.1641C223.597 24.1641 222.984 23.9704 222.556 23.583C222.127 23.1911 221.913 22.6921 221.913 22.0859C221.913 21.7305 221.993 21.4069 222.152 21.1152C222.316 20.819 222.528 20.582 222.788 20.4043C223.052 20.2266 223.349 20.0921 223.677 20.001C223.918 19.9372 224.283 19.8757 224.771 19.8164C225.764 19.6979 226.495 19.5566 226.965 19.3926C226.969 19.224 226.972 19.1169 226.972 19.0713C226.972 18.57 226.855 18.2168 226.623 18.0117C226.309 17.7337 225.841 17.5947 225.222 17.5947C224.643 17.5947 224.215 17.6973 223.937 17.9023C223.663 18.1029 223.46 18.4606 223.328 18.9756L222.125 18.8115C222.234 18.2965 222.414 17.8818 222.665 17.5674C222.916 17.2484 223.278 17.0046 223.752 16.8359C224.226 16.6628 224.775 16.5762 225.399 16.5762C226.019 16.5762 226.523 16.6491 226.91 16.7949C227.298 16.9408 227.582 17.1253 227.765 17.3486C227.947 17.5674 228.075 17.8454 228.147 18.1826C228.188 18.3923 228.209 18.7705 228.209 19.3174V20.958C228.209 22.1019 228.234 22.8265 228.284 23.1318C228.339 23.4326 228.444 23.722 228.599 24H227.313C227.186 23.7448 227.104 23.4463 227.067 23.1045ZM226.965 20.3564C226.518 20.5387 225.848 20.6937 224.955 20.8213C224.449 20.8942 224.091 20.9762 223.882 21.0674C223.672 21.1585 223.51 21.293 223.396 21.4707C223.283 21.6439 223.226 21.8376 223.226 22.0518C223.226 22.3799 223.349 22.6533 223.595 22.8721C223.845 23.0908 224.21 23.2002 224.688 23.2002C225.162 23.2002 225.584 23.0977 225.953 22.8926C226.322 22.6829 226.593 22.3981 226.767 22.0381C226.899 21.7601 226.965 21.3499 226.965 20.8076V20.3564ZM232.81 22.8994L232.987 23.9863C232.641 24.0592 232.331 24.0957 232.058 24.0957C231.611 24.0957 231.265 24.0251 231.019 23.8838C230.772 23.7425 230.599 23.5579 230.499 23.3301C230.399 23.0977 230.349 22.6123 230.349 21.874V17.6973H229.446V16.7402H230.349V14.9424L231.572 14.2041V16.7402H232.81V17.6973H231.572V21.9424C231.572 22.2933 231.593 22.5189 231.634 22.6191C231.679 22.7194 231.75 22.7992 231.846 22.8584C231.946 22.9176 232.087 22.9473 232.27 22.9473C232.406 22.9473 232.586 22.9313 232.81 22.8994ZM238.757 23.1045C238.301 23.4919 237.861 23.7653 237.438 23.9248C237.018 24.0843 236.567 24.1641 236.084 24.1641C235.286 24.1641 234.674 23.9704 234.245 23.583C233.817 23.1911 233.603 22.6921 233.603 22.0859C233.603 21.7305 233.682 21.4069 233.842 21.1152C234.006 20.819 234.218 20.582 234.478 20.4043C234.742 20.2266 235.038 20.0921 235.366 20.001C235.608 19.9372 235.972 19.8757 236.46 19.8164C237.453 19.6979 238.185 19.5566 238.654 19.3926C238.659 19.224 238.661 19.1169 238.661 19.0713C238.661 18.57 238.545 18.2168 238.312 18.0117C237.998 17.7337 237.531 17.5947 236.911 17.5947C236.332 17.5947 235.904 17.6973 235.626 17.9023C235.353 18.1029 235.15 18.4606 235.018 18.9756L233.814 18.8115C233.924 18.2965 234.104 17.8818 234.354 17.5674C234.605 17.2484 234.967 17.0046 235.441 16.8359C235.915 16.6628 236.465 16.5762 237.089 16.5762C237.709 16.5762 238.212 16.6491 238.6 16.7949C238.987 16.9408 239.272 17.1253 239.454 17.3486C239.636 17.5674 239.764 17.8454 239.837 18.1826C239.878 18.3923 239.898 18.7705 239.898 19.3174V20.958C239.898 22.1019 239.924 22.8265 239.974 23.1318C240.028 23.4326 240.133 23.722 240.288 24H239.003C238.875 23.7448 238.793 23.4463 238.757 23.1045ZM238.654 20.3564C238.208 20.5387 237.538 20.6937 236.645 20.8213C236.139 20.8942 235.781 20.9762 235.571 21.0674C235.362 21.1585 235.2 21.293 235.086 21.4707C234.972 21.6439 234.915 21.8376 234.915 22.0518C234.915 22.3799 235.038 22.6533 235.284 22.8721C235.535 23.0908 235.899 23.2002 236.378 23.2002C236.852 23.2002 237.273 23.0977 237.643 22.8926C238.012 22.6829 238.283 22.3981 238.456 22.0381C238.588 21.7601 238.654 21.3499 238.654 20.8076V20.3564ZM246.003 24V17.6973H244.916V16.7402H246.003V15.9678C246.003 15.4801 246.046 15.1178 246.133 14.8809C246.251 14.5618 246.459 14.3044 246.755 14.1084C247.056 13.9079 247.475 13.8076 248.013 13.8076C248.359 13.8076 248.742 13.8486 249.161 13.9307L248.977 15.0039C248.721 14.9583 248.48 14.9355 248.252 14.9355C247.878 14.9355 247.614 15.0153 247.459 15.1748C247.304 15.3343 247.227 15.6328 247.227 16.0703V16.7402H248.642V17.6973H247.227V24H246.003ZM249.578 24V13.9785H250.809V24H249.578ZM252.265 20.3701C252.265 19.0257 252.638 18.0299 253.386 17.3828C254.01 16.8451 254.771 16.5762 255.669 16.5762C256.667 16.5762 257.483 16.9043 258.116 17.5605C258.75 18.2122 259.066 19.1146 259.066 20.2676C259.066 21.2018 258.925 21.9378 258.643 22.4756C258.365 23.0088 257.957 23.4235 257.419 23.7197C256.886 24.016 256.302 24.1641 255.669 24.1641C254.653 24.1641 253.83 23.8382 253.201 23.1865C252.577 22.5348 252.265 21.596 252.265 20.3701ZM253.529 20.3701C253.529 21.2998 253.732 21.9971 254.138 22.4619C254.543 22.9222 255.054 23.1523 255.669 23.1523C256.28 23.1523 256.788 22.9199 257.193 22.4551C257.599 21.9902 257.802 21.2816 257.802 20.3291C257.802 19.4313 257.597 18.7523 257.187 18.292C256.781 17.8271 256.275 17.5947 255.669 17.5947C255.054 17.5947 254.543 17.8249 254.138 18.2852C253.732 18.7454 253.529 19.4404 253.529 20.3701ZM261.855 24L259.634 16.7402H260.905L262.061 20.9307L262.491 22.4893C262.509 22.4118 262.635 21.9128 262.867 20.9922L264.022 16.7402H265.287L266.374 20.9512L266.736 22.3389L267.153 20.9375L268.397 16.7402H269.594L267.324 24H266.046L264.891 19.6523L264.61 18.415L263.141 24H261.855Z" fill="black"/>
<path d="M203.298 107V96.9785H206.75C207.529 96.9785 208.124 97.0264 208.534 97.1221C209.108 97.2542 209.598 97.4935 210.004 97.8398C210.533 98.2865 210.927 98.8584 211.187 99.5557C211.451 100.248 211.583 101.041 211.583 101.935C211.583 102.696 211.494 103.37 211.316 103.958C211.139 104.546 210.911 105.034 210.633 105.421C210.355 105.804 210.049 106.107 209.717 106.33C209.389 106.549 208.99 106.715 208.521 106.829C208.056 106.943 207.52 107 206.914 107H203.298ZM204.624 105.817H206.764C207.424 105.817 207.942 105.756 208.315 105.633C208.694 105.51 208.994 105.337 209.218 105.113C209.532 104.799 209.776 104.377 209.949 103.849C210.127 103.315 210.216 102.671 210.216 101.914C210.216 100.866 210.043 100.062 209.696 99.501C209.354 98.9359 208.938 98.5576 208.445 98.3662C208.09 98.2295 207.518 98.1611 206.729 98.1611H204.624V105.817ZM218.228 104.662L219.499 104.819C219.299 105.562 218.927 106.139 218.385 106.549C217.842 106.959 217.15 107.164 216.307 107.164C215.245 107.164 214.402 106.838 213.777 106.187C213.158 105.53 212.848 104.612 212.848 103.432C212.848 102.21 213.162 101.262 213.791 100.588C214.42 99.9134 215.236 99.5762 216.238 99.5762C217.209 99.5762 218.002 99.9066 218.617 100.567C219.232 101.228 219.54 102.158 219.54 103.356C219.54 103.429 219.538 103.539 219.533 103.685H214.119C214.165 104.482 214.39 105.093 214.796 105.517C215.201 105.94 215.707 106.152 216.313 106.152C216.765 106.152 217.15 106.034 217.469 105.797C217.788 105.56 218.041 105.182 218.228 104.662ZM214.188 102.673H218.241C218.187 102.062 218.032 101.604 217.776 101.299C217.384 100.825 216.876 100.588 216.252 100.588C215.687 100.588 215.211 100.777 214.823 101.155C214.44 101.534 214.229 102.039 214.188 102.673ZM221.051 109.782V99.7402H222.172V100.684C222.436 100.314 222.735 100.039 223.067 99.8564C223.4 99.6696 223.803 99.5762 224.277 99.5762C224.897 99.5762 225.444 99.7357 225.918 100.055C226.392 100.374 226.75 100.825 226.991 101.408C227.233 101.987 227.354 102.623 227.354 103.315C227.354 104.058 227.219 104.728 226.95 105.325C226.686 105.918 226.299 106.373 225.788 106.692C225.282 107.007 224.749 107.164 224.188 107.164C223.778 107.164 223.409 107.077 223.081 106.904C222.757 106.731 222.491 106.512 222.281 106.248V109.782H221.051ZM222.165 103.411C222.165 104.345 222.354 105.036 222.732 105.482C223.111 105.929 223.569 106.152 224.106 106.152C224.653 106.152 225.12 105.922 225.508 105.462C225.9 104.997 226.096 104.279 226.096 103.309C226.096 102.383 225.904 101.691 225.521 101.23C225.143 100.77 224.69 100.54 224.161 100.54C223.637 100.54 223.172 100.786 222.767 101.278C222.366 101.766 222.165 102.477 222.165 103.411ZM233.813 104.662L235.085 104.819C234.884 105.562 234.513 106.139 233.971 106.549C233.428 106.959 232.736 107.164 231.893 107.164C230.831 107.164 229.988 106.838 229.363 106.187C228.743 105.53 228.434 104.612 228.434 103.432C228.434 102.21 228.748 101.262 229.377 100.588C230.006 99.9134 230.822 99.5762 231.824 99.5762C232.795 99.5762 233.588 99.9066 234.203 100.567C234.818 101.228 235.126 102.158 235.126 103.356C235.126 103.429 235.124 103.539 235.119 103.685H229.705C229.751 104.482 229.976 105.093 230.382 105.517C230.787 105.94 231.293 106.152 231.899 106.152C232.351 106.152 232.736 106.034 233.055 105.797C233.374 105.56 233.627 105.182 233.813 104.662ZM229.773 102.673H233.827C233.772 102.062 233.618 101.604 233.362 101.299C232.97 100.825 232.462 100.588 231.838 100.588C231.273 100.588 230.797 100.777 230.409 101.155C230.026 101.534 229.814 102.039 229.773 102.673ZM236.637 107V99.7402H237.744V100.772C238.277 99.9749 239.048 99.5762 240.055 99.5762C240.492 99.5762 240.893 99.6559 241.258 99.8154C241.627 99.9704 241.903 100.175 242.085 100.431C242.267 100.686 242.395 100.989 242.468 101.34C242.513 101.568 242.536 101.966 242.536 102.536V107H241.306V102.584C241.306 102.083 241.258 101.709 241.162 101.463C241.066 101.212 240.896 101.014 240.649 100.868C240.408 100.718 240.123 100.643 239.795 100.643C239.271 100.643 238.817 100.809 238.435 101.142C238.056 101.474 237.867 102.105 237.867 103.035V107H236.637ZM249.14 107V106.084C248.679 106.804 248.003 107.164 247.109 107.164C246.531 107.164 245.997 107.005 245.51 106.686C245.027 106.367 244.651 105.922 244.382 105.353C244.118 104.778 243.985 104.12 243.985 103.377C243.985 102.652 244.106 101.996 244.348 101.408C244.589 100.816 244.951 100.362 245.435 100.048C245.918 99.7334 246.458 99.5762 247.055 99.5762C247.492 99.5762 247.882 99.6696 248.224 99.8564C248.565 100.039 248.843 100.278 249.058 100.574V96.9785H250.281V107H249.14ZM245.25 103.377C245.25 104.307 245.446 105.002 245.838 105.462C246.23 105.922 246.692 106.152 247.226 106.152C247.763 106.152 248.219 105.934 248.593 105.496C248.971 105.054 249.16 104.382 249.16 103.479C249.16 102.486 248.969 101.757 248.586 101.292C248.203 100.827 247.731 100.595 247.171 100.595C246.624 100.595 246.166 100.818 245.797 101.265C245.432 101.711 245.25 102.415 245.25 103.377ZM251.73 104.833L252.947 104.642C253.016 105.129 253.205 105.503 253.515 105.763C253.829 106.022 254.267 106.152 254.827 106.152C255.392 106.152 255.812 106.038 256.085 105.811C256.358 105.578 256.495 105.307 256.495 104.997C256.495 104.719 256.374 104.5 256.133 104.341C255.964 104.231 255.545 104.092 254.875 103.924C253.973 103.696 253.346 103.5 252.995 103.336C252.649 103.167 252.384 102.937 252.202 102.646C252.024 102.349 251.936 102.023 251.936 101.668C251.936 101.344 252.008 101.046 252.154 100.772C252.305 100.494 252.507 100.264 252.763 100.082C252.954 99.9408 253.214 99.8223 253.542 99.7266C253.875 99.6263 254.23 99.5762 254.608 99.5762C255.178 99.5762 255.677 99.6582 256.105 99.8223C256.538 99.9863 256.857 100.21 257.062 100.492C257.268 100.77 257.409 101.144 257.486 101.613L256.283 101.777C256.229 101.404 256.069 101.112 255.805 100.902C255.545 100.693 255.176 100.588 254.697 100.588C254.132 100.588 253.729 100.681 253.487 100.868C253.246 101.055 253.125 101.274 253.125 101.524C253.125 101.684 253.175 101.827 253.275 101.955C253.376 102.087 253.533 102.197 253.747 102.283C253.87 102.329 254.232 102.434 254.834 102.598C255.704 102.83 256.311 103.021 256.652 103.172C256.999 103.318 257.27 103.532 257.466 103.814C257.662 104.097 257.76 104.448 257.76 104.867C257.76 105.277 257.639 105.665 257.397 106.029C257.16 106.389 256.816 106.67 256.365 106.87C255.914 107.066 255.404 107.164 254.834 107.164C253.891 107.164 253.171 106.968 252.674 106.576C252.182 106.184 251.867 105.603 251.73 104.833ZM262.661 103.37C262.661 102.026 263.035 101.03 263.782 100.383C264.407 99.8451 265.168 99.5762 266.065 99.5762C267.063 99.5762 267.879 99.9043 268.513 100.561C269.146 101.212 269.463 102.115 269.463 103.268C269.463 104.202 269.322 104.938 269.039 105.476C268.761 106.009 268.353 106.424 267.815 106.72C267.282 107.016 266.699 107.164 266.065 107.164C265.049 107.164 264.227 106.838 263.598 106.187C262.973 105.535 262.661 104.596 262.661 103.37ZM263.926 103.37C263.926 104.3 264.129 104.997 264.534 105.462C264.94 105.922 265.45 106.152 266.065 106.152C266.676 106.152 267.184 105.92 267.59 105.455C267.995 104.99 268.198 104.282 268.198 103.329C268.198 102.431 267.993 101.752 267.583 101.292C267.177 100.827 266.672 100.595 266.065 100.595C265.45 100.595 264.94 100.825 264.534 101.285C264.129 101.745 263.926 102.44 263.926 103.37ZM270.912 107V99.7402H272.02V100.772C272.553 99.9749 273.323 99.5762 274.33 99.5762C274.768 99.5762 275.169 99.6559 275.533 99.8154C275.902 99.9704 276.178 100.175 276.36 100.431C276.543 100.686 276.67 100.989 276.743 101.34C276.789 101.568 276.812 101.966 276.812 102.536V107H275.581V102.584C275.581 102.083 275.533 101.709 275.438 101.463C275.342 101.212 275.171 101.014 274.925 100.868C274.683 100.718 274.398 100.643 274.07 100.643C273.546 100.643 273.093 100.809 272.71 101.142C272.332 101.474 272.143 102.105 272.143 103.035V107H270.912Z" fill="black"/>
<path d="M121 31.5C120.724 31.5 120.5 31.7239 120.5 32C120.5 32.2761 120.724 32.5 121 32.5V31.5ZM361.354 32.3536C361.549 32.1583 361.549 31.8417 361.354 31.6464L358.172 28.4645C357.976 28.2692 357.66 28.2692 357.464 28.4645C357.269 28.6597 357.269 28.9763 357.464 29.1716L360.293 32L357.464 34.8284C357.269 35.0237 357.269 35.3403 357.464 35.5355C357.66 35.7308 357.976 35.7308 358.172 35.5355L361.354 32.3536ZM121 32V32.5H361V32V31.5H121V32Z" fill="black"/>
<path d="M421.5 62C421.5 61.7239 421.276 61.5 421 61.5C420.724 61.5 420.5 61.7239 420.5 62H421.5ZM62.3536 61.6464C62.1583 61.4512 61.8417 61.4512 61.6464 61.6464L58.4645 64.8284C58.2692 65.0237 58.2692 65.3403 58.4645 65.5355C58.6597 65.7308 58.9763 65.7308 59.1716 65.5355L62 62.7071L64.8284 65.5355C65.0237 65.7308 65.3403 65.7308 65.5355 65.5355C65.7308 65.3403 65.7308 65.0237 65.5355 64.8284L62.3536 61.6464ZM62 62H61.5V62.9545H62H62.5V62H62ZM62 64.8636H61.5V66.7727H62H62.5V64.8636H62ZM62 68.6818H61.5V70.5909H62H62.5V68.6818H62ZM62 72.5H61.5V74.4091H62H62.5V72.5H62ZM62 76.3182H61.5V78.2273H62H62.5V76.3182H62ZM62 80.1364H61.5V82.0455H62H62.5V80.1364H62ZM62 83.9545H61.5V85.8636H62H62.5V83.9545H62ZM62 87.7727H61.5V89.6818H62H62.5V87.7727H62ZM62 91.5909H61.5V93.5H62H62.5V91.5909H62ZM62 95.4091H61.5V97.3182H62H62.5V95.4091H62ZM62 99.2273H61.5V101.136H62H62.5V99.2273H62ZM62 103.045H61.5V104H62H62.5V103.045H62ZM62 104H61.5C61.5 104.33 61.5128 104.657 61.538 104.981L62.0365 104.942L62.535 104.904C62.5118 104.606 62.5 104.304 62.5 104H62ZM62.329 106.803L61.8428 106.919C61.9965 107.562 62.1999 108.185 62.4487 108.785L62.9106 108.593L63.3724 108.402C63.1437 107.85 62.9567 107.277 62.8153 106.686L62.329 106.803ZM63.7668 110.271L63.3407 110.532C63.6842 111.092 64.0704 111.622 64.4949 112.118L64.8749 111.793L65.255 111.469C64.8643 111.012 64.5089 110.524 64.1928 110.009L63.7668 110.271ZM66.2065 113.125L65.8816 113.505C66.3781 113.93 66.9083 114.316 67.4676 114.659L67.7293 114.233L67.9909 113.807C67.4763 113.491 66.9884 113.136 66.5314 112.745L66.2065 113.125ZM69.4065 115.089L69.215 115.551C69.8149 115.8 70.4384 116.003 71.0811 116.157L71.1974 115.671L71.3138 115.185C70.7228 115.043 70.1496 114.856 69.5981 114.628L69.4065 115.089ZM73.0576 115.964L73.0188 116.462C73.3427 116.487 73.6699 116.5 74 116.5V116V115.5C73.6958 115.5 73.3944 115.488 73.0963 115.465L73.0576 115.964ZM74 116V116.5H74.997V116V115.5H74V116ZM76.9911 116V116.5H78.9851V116V115.5H76.9911V116ZM80.9792 116V116.5H82.9732V116V115.5H80.9792V116ZM84.9673 116V116.5H86.9613V116V115.5H84.9673V116ZM88.9554 116V116.5H90.9494V116V115.5H88.9554V116ZM92.9434 116V116.5H94.9375V116V115.5H92.9434V116ZM96.9315 116V116.5H98.9256V116V115.5H96.9315V116ZM100.92 116V116.5H102.914V116V115.5H100.92V116ZM104.908 116V116.5H106.902V116V115.5H104.908V116ZM108.896 116V116.5H110.89V116V115.5H108.896V116ZM112.884 116V116.5H114.878V116V115.5H112.884V116ZM116.872 116V116.5H118.866V116V115.5H116.872V116ZM120.86 116V116.5H122.854V116V115.5H120.86V116ZM124.848 116V116.5H126.842V116V115.5H124.848V116ZM128.836 116V116.5H130.83V116V115.5H128.836V116ZM132.824 116V116.5H134.818V116V115.5H132.824V116ZM136.813 116V116.5H138.807V116V115.5H136.813V116ZM140.801 116V116.5H142.795V116V115.5H140.801V116ZM144.789 116V116.5H146.783V116V115.5H144.789V116ZM148.777 116V116.5H150.771V116V115.5H148.777V116ZM152.765 116V116.5H154.759V116V115.5H152.765V116ZM156.753 116V116.5H158.747V116V115.5H156.753V116ZM160.741 116V116.5H162.735V116V115.5H160.741V116ZM164.729 116V116.5H166.723V116V115.5H164.729V116ZM168.717 116V116.5H170.711V116V115.5H168.717V116ZM172.705 116V116.5H174.699V116V115.5H172.705V116ZM176.693 116V116.5H178.688V116V115.5H176.693V116ZM180.682 116V116.5H182.676V116V115.5H180.682V116ZM184.67 116V116.5H186.664V116V115.5H184.67V116ZM188.658 116V116.5H190.652V116V115.5H188.658V116ZM192.646 116V116.5H194.64V116V115.5H192.646V116ZM196.634 116V116.5H198.628V116V115.5H196.634V116ZM200.622 116V116.5H202.616V116V115.5H200.622V116ZM204.61 116V116.5H206.604V116V115.5H204.61V116ZM208.598 116V116.5H210.592V116V115.5H208.598V116ZM212.586 116V116.5H214.58V116V115.5H212.586V116ZM216.574 116V116.5H218.569V116V115.5H216.574V116ZM220.563 116V116.5H222.557V116V115.5H220.563V116ZM224.551 116V116.5H226.545V116V115.5H224.551V116ZM228.539 116V116.5H230.533V116V115.5H228.539V116ZM232.527 116V116.5H234.521V116V115.5H232.527V116ZM236.515 116V116.5H238.509V116V115.5H236.515V116ZM240.503 116V116.5H242.497V116V115.5H240.503V116ZM244.491 116V116.5H246.485V116V115.5H244.491V116ZM248.479 116V116.5H250.473V116V115.5H248.479V116ZM252.467 116V116.5H254.461V116V115.5H252.467V116ZM256.455 116V116.5H258.449V116V115.5H256.455V116ZM260.444 116V116.5H262.438V116V115.5H260.444V116ZM264.432 116V116.5H266.426V116V115.5H264.432V116ZM268.42 116V116.5H270.414V116V115.5H268.42V116ZM272.408 116V116.5H274.402V116V115.5H272.408V116ZM276.396 116V116.5H278.39V116V115.5H276.396V116ZM280.384 116V116.5H282.378V116V115.5H280.384V116ZM284.372 116V116.5H286.366V116V115.5H284.372V116ZM288.36 116V116.5H290.354V116V115.5H288.36V116ZM292.348 116V116.5H294.342V116V115.5H292.348V116ZM296.336 116V116.5H298.33V116V115.5H296.336V116ZM300.325 116V116.5H302.319V116V115.5H300.325V116ZM304.313 116V116.5H306.307V116V115.5H304.313V116ZM308.301 116V116.5H310.295V116V115.5H308.301V116ZM312.289 116V116.5H314.283V116V115.5H312.289V116ZM316.277 116V116.5H318.271V116V115.5H316.277V116ZM320.265 116V116.5H322.259V116V115.5H320.265V116ZM324.253 116V116.5H326.247V116V115.5H324.253V116ZM328.241 116V116.5H330.235V116V115.5H328.241V116ZM332.229 116V116.5H334.223V116V115.5H332.229V116ZM336.217 116V116.5H338.211V116V115.5H336.217V116ZM340.206 116V116.5H342.2V116V115.5H340.206V116ZM344.194 116V116.5H346.188V116V115.5H344.194V116ZM348.182 116V116.5H350.176V116V115.5H348.182V116ZM352.17 116V116.5H354.164V116V115.5H352.17V116ZM356.158 116V116.5H358.152V116V115.5H356.158V116ZM360.146 116V116.5H362.14V116V115.5H360.146V116ZM364.134 116V116.5H366.128V116V115.5H364.134V116ZM368.122 116V116.5H370.116V116V115.5H368.122V116ZM372.11 116V116.5H374.104V116V115.5H372.11V116ZM376.098 116V116.5H378.092V116V115.5H376.098V116ZM380.086 116V116.5H382.081V116V115.5H380.086V116ZM384.075 116V116.5H386.069V116V115.5H384.075V116ZM388.063 116V116.5H390.057V116V115.5H388.063V116ZM392.051 116V116.5H394.045V116V115.5H392.051V116ZM396.039 116V116.5H398.033V116V115.5H396.039V116ZM400.027 116V116.5H402.021V116V115.5H400.027V116ZM404.015 116V116.5H406.009V116V115.5H404.015V116ZM408.003 116V116.5H409V116V115.5H408.003V116ZM409 116V116.5C409.33 116.5 409.657 116.487 409.981 116.462L409.942 115.964L409.904 115.465C409.606 115.488 409.304 115.5 409 115.5V116ZM411.803 115.671L411.919 116.157C412.562 116.003 413.185 115.8 413.785 115.551L413.593 115.089L413.402 114.628C412.85 114.856 412.277 115.043 411.686 115.185L411.803 115.671ZM415.271 114.233L415.532 114.659C416.092 114.316 416.622 113.93 417.118 113.505L416.793 113.125L416.469 112.745C416.012 113.136 415.524 113.491 415.009 113.807L415.271 114.233ZM418.125 111.793L418.505 112.118C418.93 111.622 419.316 111.092 419.659 110.532L419.233 110.271L418.807 110.009C418.491 110.524 418.136 111.012 417.745 111.469L418.125 111.793ZM420.089 108.593L420.551 108.785C420.8 108.185 421.003 107.562 421.157 106.919L420.671 106.803L420.185 106.686C420.043 107.277 419.856 107.85 419.628 108.402L420.089 108.593ZM420.964 104.942L421.462 104.981C421.487 104.657 421.5 104.33 421.5 104H421H420.5C420.5 104.304 420.488 104.606 420.465 104.904L420.964 104.942ZM421 104H421.5V103.045H421H420.5V104H421ZM421 101.136H421.5V99.2273H421H420.5V101.136H421ZM421 97.3182H421.5V95.4091H421H420.5V97.3182H421ZM421 93.5H421.5V91.5909H421H420.5V93.5H421ZM421 89.6818H421.5V87.7727H421H420.5V89.6818H421ZM421 85.8636H421.5V83.9545H421H420.5V85.8636H421ZM421 82.0455H421.5V80.1364H421H420.5V82.0455H421ZM421 78.2273H421.5V76.3182H421H420.5V78.2273H421ZM421 74.4091H421.5V72.5H421H420.5V74.4091H421ZM421 70.5909H421.5V68.6818H421H420.5V70.5909H421ZM421 66.7727H421.5V64.8636H421H420.5V66.7727H421ZM421 62.9545H421.5V62H421H420.5V62.9545H421Z" fill="black"/>
</g>
<defs>
<clipPath id="clip0_3_2142">
<rect width="482" height="118" fill="white"/>
</clipPath>
</defs>
</svg>
