<svg xmlns="http://www.w3.org/2000/svg" xmlns:xlink="http://www.w3.org/1999/xlink" contentStyleType="text/css" data-diagram-type="CLASS" height="2028.125px" preserveAspectRatio="none" style="width:2671px;height:2028px;background:#FFFFFF;" version="1.1" viewBox="0 0 2671 2028" width="2671.875px" zoomAndPan="magnify"><defs/><g><!--class ElevatorSystem--><g class="entity" data-entity="ElevatorSystem" data-source-line="6" data-uid="ent0002" id="entity_ElevatorSystem"><rect fill="#FFFFFF" height="404.6387" rx="7.8125" ry="7.8125" style="stroke:#181818;stroke-width:1.5625;" width="1236.3312" x="750.0938" y="21.875"/><ellipse cx="1182.7445" cy="71.875" fill="#C2C2C2" rx="34.375" ry="34.375" style="stroke:#181818;stroke-width:3.125;"/><path d="M1192.0219,89.502 Q1190.2152,90.4297 1188.2133,90.8691 Q1186.2113,91.3574 1184.014,91.3574 Q1176.2015,91.3574 1172.0511,86.2305 Q1167.9496,81.0547 1167.9496,71.2891 Q1167.9496,61.5234 1172.0511,56.3477 Q1176.2015,51.1719 1184.014,51.1719 Q1186.2113,51.1719 1188.2133,51.6602 Q1190.264,52.1484 1192.0219,53.0762 L1192.0219,61.5723 Q1190.0687,59.7656 1188.2133,58.9355 Q1186.3578,58.0566 1184.4047,58.0566 Q1180.2054,58.0566 1178.057,61.4258 Q1175.9086,64.7461 1175.9086,71.2891 Q1175.9086,77.832 1178.057,81.2012 Q1180.2054,84.5215 1184.4047,84.5215 Q1186.3578,84.5215 1188.2133,83.6914 Q1190.0687,82.8125 1192.0219,81.0059 L1192.0219,89.502 Z " fill="#000000"/><text fill="#000000" font-family="sans-serif" font-size="43.75" lengthAdjust="spacing" textLength="344.4672" x="1246.807" y="87.0209">ElevatorSystem</text><line style="stroke:#181818;stroke-width:1.5625;" x1="753.2188" x2="1983.2999" y1="121.875" y2="121.875"/><rect fill="none" height="18.75" style="stroke:#595959;stroke-width:3.125;" width="18.75" x="775.0938" y="155.1514"/><text fill="#000000" font-family="sans-serif" font-size="43.75" lengthAdjust="spacing" textLength="623.7579" x="812.5937" y="174.9847">List&lt;ElevatorCar&gt; elevators</text><rect fill="none" height="18.75" style="stroke:#595959;stroke-width:3.125;" width="18.75" x="775.0938" y="206.0791"/><text fill="#000000" font-family="sans-serif" font-size="43.75" lengthAdjust="spacing" textLength="789.7858" x="812.5937" y="225.9125">ElevatorDispatch dispatchController</text><line style="stroke:#181818;stroke-width:1.5625;" x1="753.2188" x2="1983.2999" y1="248.7305" y2="248.7305"/><ellipse cx="784.4688" cy="291.3818" fill="#A6A6A6" rx="9.375" ry="9.375" style="stroke:#545454;stroke-width:3.125;"/><text fill="#000000" font-family="sans-serif" font-size="43.75" lengthAdjust="spacing" textLength="1015.094" x="812.5937" y="301.8402">List&lt;ElevatorStatus&gt; getAllElevatorStatuses()</text><ellipse cx="784.4688" cy="342.3096" fill="#A6A6A6" rx="9.375" ry="9.375" style="stroke:#545454;stroke-width:3.125;"/><text fill="#000000" font-family="sans-serif" font-size="43.75" lengthAdjust="spacing" textLength="1155.0812" x="812.5937" y="352.7679">requestElevator(int currentFloor, Direction direction)</text><ellipse cx="784.4688" cy="393.2373" fill="#A6A6A6" rx="9.375" ry="9.375" style="stroke:#545454;stroke-width:3.125;"/><text fill="#000000" font-family="sans-serif" font-size="43.75" lengthAdjust="spacing" textLength="1065.1245" x="812.5937" y="403.6957">selectFloor(ElevatorCar car, int destinationFloor)</text></g><!--class ElevatorDispatch--><g class="entity" data-entity="ElevatorDispatch" data-source-line="14" data-uid="ent0003" id="entity_ElevatorDispatch"><rect fill="#FFFFFF" height="302.7832" rx="7.8125" ry="7.8125" style="stroke:#181818;stroke-width:1.5625;" width="1172.0734" x="241.625" y="718.9688"/><ellipse cx="627.6418" cy="768.9688" fill="#C2C2C2" rx="34.375" ry="34.375" style="stroke:#181818;stroke-width:3.125;"/><path d="M636.9192,786.5957 Q635.1125,787.5234 633.1106,787.9629 Q631.1086,788.4512 628.9114,788.4512 Q621.0989,788.4512 616.9485,783.3242 Q612.8469,778.1484 612.8469,768.3828 Q612.8469,758.6172 616.9485,753.4414 Q621.0989,748.2656 628.9114,748.2656 Q631.1086,748.2656 633.1106,748.7539 Q635.1614,749.2422 636.9192,750.1699 L636.9192,758.666 Q634.9661,756.8594 633.1106,756.0293 Q631.2551,755.1504 629.302,755.1504 Q625.1028,755.1504 622.9543,758.5195 Q620.8059,761.8398 620.8059,768.3828 Q620.8059,774.9258 622.9543,778.2949 Q625.1028,781.6152 629.302,781.6152 Q631.2551,781.6152 633.1106,780.7852 Q634.9661,779.9063 636.9192,778.0996 L636.9192,786.5957 Z " fill="#000000"/><text fill="#000000" font-family="sans-serif" font-size="43.75" lengthAdjust="spacing" textLength="373.4772" x="691.7043" y="784.1146">ElevatorDispatch</text><line style="stroke:#181818;stroke-width:1.5625;" x1="244.75" x2="1410.5734" y1="818.9688" y2="818.9688"/><rect fill="none" height="18.75" style="stroke:#595959;stroke-width:3.125;" width="18.75" x="266.625" y="852.2451"/><text fill="#000000" font-family="sans-serif" font-size="43.75" lengthAdjust="spacing" textLength="643.6462" x="304.125" y="872.0785">DispatchingStrategy strategy</text><line style="stroke:#181818;stroke-width:1.5625;" x1="244.75" x2="1410.5734" y1="894.8965" y2="894.8965"/><ellipse cx="276" cy="963.0117" fill="#A6A6A6" rx="9.375" ry="9.375" style="stroke:#545454;stroke-width:3.125;"/><text fill="#000000" font-family="sans-serif" font-size="43.75" lengthAdjust="spacing" textLength="1076.9165" x="304.125" y="948.0062">dispatchElevatorCar(int floor, Direction direction,</text><text fill="#000000" font-family="sans-serif" font-size="43.75" lengthAdjust="spacing" textLength="640.8264" x="318.0319" y="998.934">List&lt;ElevatorCar&gt; elevators)</text></g><!--class DispatchingStrategy--><g class="entity" data-entity="DispatchingStrategy" data-source-line="19" data-uid="ent0004" id="entity_DispatchingStrategy"><rect fill="#FFFFFF" height="251.8555" rx="7.8125" ry="7.8125" style="stroke:#181818;stroke-width:1.5625;" width="1331.778" x="152.375" y="1389.7188"/><ellipse cx="581.3514" cy="1439.7188" fill="#B1B1B1" rx="34.375" ry="34.375" style="stroke:#181818;stroke-width:3.125;"/><path d="M568.6073,1426.4863 L568.6073,1419.748 L591.703,1419.748 L591.703,1426.4863 L583.9882,1426.4863 L583.9882,1451.7305 L591.703,1451.7305 L591.703,1458.4688 L568.6073,1458.4688 L568.6073,1451.7305 L576.3221,1451.7305 L576.3221,1426.4863 L568.6073,1426.4863 Z " fill="#000000"/><text fill="#000000" font-family="sans-serif" font-size="43.75" font-style="italic" lengthAdjust="spacing" textLength="447.2626" x="645.4139" y="1454.8646">DispatchingStrategy</text><line style="stroke:#181818;stroke-width:1.5625;" x1="155.5" x2="1481.028" y1="1489.7188" y2="1489.7188"/><line style="stroke:#181818;stroke-width:1.5625;" x1="155.5" x2="1481.028" y1="1514.7188" y2="1514.7188"/><ellipse cx="186.75" cy="1582.834" fill="#A6A6A6" rx="9.375" ry="9.375" style="stroke:#545454;stroke-width:3.125;"/><text fill="#000000" font-family="sans-serif" font-size="43.75" lengthAdjust="spacing" textLength="1236.6211" x="214.875" y="1567.8285">ElevatorCar selectElevator(List&lt;ElevatorCar&gt; elevators,</text><text fill="#000000" font-family="sans-serif" font-size="43.75" lengthAdjust="spacing" textLength="620.105" x="228.7819" y="1618.7562">int floor, Direction direction)</text></g><!--class ElevatorCar--><g class="entity" data-entity="ElevatorCar" data-source-line="23" data-uid="ent0005" id="entity_ElevatorCar"><rect fill="#FFFFFF" height="506.4941" rx="7.8125" ry="7.8125" style="stroke:#181818;stroke-width:1.5625;" width="781.72" x="1527.4063" y="617.125"/><ellipse cx="1776.6509" cy="667.125" fill="#C2C2C2" rx="34.375" ry="34.375" style="stroke:#181818;stroke-width:3.125;"/><path d="M1785.9283,684.752 Q1784.1216,685.6797 1782.1197,686.1191 Q1780.1177,686.6074 1777.9205,686.6074 Q1770.108,686.6074 1765.9576,681.4805 Q1761.856,676.3047 1761.856,666.5391 Q1761.856,656.7734 1765.9576,651.5977 Q1770.108,646.4219 1777.9205,646.4219 Q1780.1177,646.4219 1782.1197,646.9102 Q1784.1705,647.3984 1785.9283,648.3262 L1785.9283,656.8223 Q1783.9752,655.0156 1782.1197,654.1855 Q1780.2642,653.3066 1778.3111,653.3066 Q1774.1119,653.3066 1771.9634,656.6758 Q1769.815,659.9961 1769.815,666.5391 Q1769.815,673.082 1771.9634,676.4512 Q1774.1119,679.7715 1778.3111,679.7715 Q1780.2642,679.7715 1782.1197,678.9414 Q1783.9752,678.0625 1785.9283,676.2559 L1785.9283,684.752 Z " fill="#000000"/><text fill="#000000" font-family="sans-serif" font-size="43.75" lengthAdjust="spacing" textLength="256.6681" x="1840.7134" y="682.2709">ElevatorCar</text><line style="stroke:#181818;stroke-width:1.5625;" x1="1530.5313" x2="2306.0012" y1="717.125" y2="717.125"/><rect fill="none" height="18.75" style="stroke:#595959;stroke-width:3.125;" width="18.75" x="1552.4063" y="750.4014"/><text fill="#000000" font-family="sans-serif" font-size="43.75" lengthAdjust="spacing" textLength="469.0735" x="1589.9063" y="770.2347">ElevatorStatus status</text><rect fill="none" height="18.75" style="stroke:#595959;stroke-width:3.125;" width="18.75" x="1552.4063" y="801.3291"/><text fill="#000000" font-family="sans-serif" font-size="43.75" lengthAdjust="spacing" textLength="653.7506" x="1589.9063" y="821.1625">Queue&lt;Integer&gt; targetFloors</text><line style="stroke:#181818;stroke-width:1.5625;" x1="1530.5313" x2="2306.0012" y1="843.9805" y2="843.9805"/><ellipse cx="1561.7813" cy="886.6318" fill="#A6A6A6" rx="9.375" ry="9.375" style="stroke:#545454;stroke-width:3.125;"/><text fill="#000000" font-family="sans-serif" font-size="43.75" lengthAdjust="spacing" textLength="640.1428" x="1589.9063" y="897.0902">ElevatorCar(int startingFloor)</text><ellipse cx="1561.7813" cy="937.5596" fill="#A6A6A6" rx="9.375" ry="9.375" style="stroke:#545454;stroke-width:3.125;"/><text fill="#000000" font-family="sans-serif" font-size="43.75" lengthAdjust="spacing" textLength="580.0293" x="1589.9063" y="948.0179">ElevatorStatus getStatus()</text><ellipse cx="1561.7813" cy="988.4873" fill="#A6A6A6" rx="9.375" ry="9.375" style="stroke:#545454;stroke-width:3.125;"/><text fill="#000000" font-family="sans-serif" font-size="43.75" lengthAdjust="spacing" textLength="681.5216" x="1589.9063" y="998.9457">void addFloorRequest(int floor)</text><ellipse cx="1561.7813" cy="1039.415" fill="#A6A6A6" rx="9.375" ry="9.375" style="stroke:#545454;stroke-width:3.125;"/><text fill="#000000" font-family="sans-serif" font-size="43.75" lengthAdjust="spacing" textLength="337.6526" x="1589.9063" y="1049.8734">boolean isIdle()</text><ellipse cx="1561.7813" cy="1090.3428" fill="#A6A6A6" rx="9.375" ry="9.375" style="stroke:#545454;stroke-width:3.125;"/><text fill="#000000" font-family="sans-serif" font-size="43.75" lengthAdjust="spacing" textLength="700.47" x="1589.9063" y="1100.8011">updateDirection(int targetFloor)</text></g><!--class ElevatorStatus--><g class="entity" data-entity="ElevatorStatus" data-source-line="33" data-uid="ent0006" id="entity_ElevatorStatus"><rect fill="#FFFFFF" height="251.8555" rx="7.8125" ry="7.8125" style="stroke:#181818;stroke-width:1.5625;" width="651.9226" x="1592.3125" y="1389.7188"/><ellipse cx="1744.6257" cy="1439.7188" fill="#C2C2C2" rx="34.375" ry="34.375" style="stroke:#181818;stroke-width:3.125;"/><path d="M1753.9031,1457.3457 Q1752.0964,1458.2734 1750.0945,1458.7129 Q1748.0925,1459.2012 1745.8953,1459.2012 Q1738.0828,1459.2012 1733.9324,1454.0742 Q1729.8308,1448.8984 1729.8308,1439.1328 Q1729.8308,1429.3672 1733.9324,1424.1914 Q1738.0828,1419.0156 1745.8953,1419.0156 Q1748.0925,1419.0156 1750.0945,1419.5039 Q1752.1453,1419.9922 1753.9031,1420.9199 L1753.9031,1429.416 Q1751.95,1427.6094 1750.0945,1426.7793 Q1748.239,1425.9004 1746.2859,1425.9004 Q1742.0867,1425.9004 1739.9382,1429.2695 Q1737.7898,1432.5898 1737.7898,1439.1328 Q1737.7898,1445.6758 1739.9382,1449.0449 Q1742.0867,1452.3652 1746.2859,1452.3652 Q1748.239,1452.3652 1750.0945,1451.5352 Q1751.95,1450.6563 1753.9031,1448.8496 L1753.9031,1457.3457 Z " fill="#000000"/><text fill="#000000" font-family="sans-serif" font-size="43.75" lengthAdjust="spacing" textLength="320.7336" x="1808.6882" y="1454.8646">ElevatorStatus</text><line style="stroke:#181818;stroke-width:1.5625;" x1="1595.4375" x2="2241.1101" y1="1489.7188" y2="1489.7188"/><rect fill="none" height="18.75" style="stroke:#595959;stroke-width:3.125;" width="18.75" x="1617.3125" y="1522.9951"/><text fill="#000000" font-family="sans-serif" font-size="43.75" lengthAdjust="spacing" textLength="339.3402" x="1654.8125" y="1542.8285">int currentFloor</text><rect fill="none" height="18.75" style="stroke:#595959;stroke-width:3.125;" width="18.75" x="1617.3125" y="1573.9229"/><text fill="#000000" font-family="sans-serif" font-size="43.75" lengthAdjust="spacing" textLength="570.6726" x="1654.8125" y="1593.7562">Direction currentDirection</text><line style="stroke:#181818;stroke-width:1.5625;" x1="1595.4375" x2="2241.1101" y1="1616.5742" y2="1616.5742"/></g><!--class Direction--><g class="entity" data-entity="Direction" data-source-line="38" data-uid="ent0007" id="entity_Direction"><rect fill="#FFFFFF" height="302.7832" rx="7.8125" ry="7.8125" style="stroke:#181818;stroke-width:1.5625;" width="298.6053" x="2353.3438" y="1364.25"/><ellipse cx="2400.2188" cy="1414.25" fill="#ABABAB" rx="34.375" ry="34.375" style="stroke:#181818;stroke-width:3.125;"/><path d="M2413.0605,1433 L2388.9395,1433 L2388.9395,1394.2793 L2413.0605,1394.2793 L2413.0605,1401.0176 L2396.6055,1401.0176 L2396.6055,1409.3672 L2411.498,1409.3672 L2411.498,1416.1055 L2396.6055,1416.1055 L2396.6055,1426.2617 L2413.0605,1426.2617 L2413.0605,1433 Z " fill="#000000"/><text fill="#000000" font-family="sans-serif" font-size="43.75" lengthAdjust="spacing" textLength="198.6053" x="2443.9688" y="1429.3959">Direction</text><line style="stroke:#181818;stroke-width:1.5625;" x1="2356.4688" x2="2648.8241" y1="1464.25" y2="1464.25"/><text fill="#000000" font-family="sans-serif" font-size="43.75" lengthAdjust="spacing" textLength="58.4045" x="2372.0938" y="1517.3597">UP</text><text fill="#000000" font-family="sans-serif" font-size="43.75" lengthAdjust="spacing" textLength="144.1101" x="2372.0938" y="1568.2875">DOWN</text><text fill="#000000" font-family="sans-serif" font-size="43.75" lengthAdjust="spacing" textLength="98.6084" x="2372.0938" y="1619.2152">IDLE</text><line style="stroke:#181818;stroke-width:1.5625;" x1="2356.4688" x2="2648.8241" y1="1642.0332" y2="1642.0332"/></g><!--class FirstComeFirstServeStrategy--><g class="entity" data-entity="FirstComeFirstServeStrategy" data-source-line="49" data-uid="ent0013" id="entity_FirstComeFirstServeStrategy"><rect fill="#FFFFFF" height="150" rx="7.8125" ry="7.8125" style="stroke:#181818;stroke-width:1.5625;" width="730.2948" x="21.875" y="1857.6563"/><ellipse cx="68.75" cy="1907.6563" fill="#C2C2C2" rx="34.375" ry="34.375" style="stroke:#181818;stroke-width:3.125;"/><path d="M78.0273,1925.2832 Q76.2207,1926.2109 74.2188,1926.6504 Q72.2168,1927.1387 70.0195,1927.1387 Q62.207,1927.1387 58.0566,1922.0117 Q53.9551,1916.8359 53.9551,1907.0703 Q53.9551,1897.3047 58.0566,1892.1289 Q62.207,1886.9531 70.0195,1886.9531 Q72.2168,1886.9531 74.2188,1887.4414 Q76.2695,1887.9297 78.0273,1888.8574 L78.0273,1897.3535 Q76.0742,1895.5469 74.2188,1894.7168 Q72.3633,1893.8379 70.4102,1893.8379 Q66.2109,1893.8379 64.0625,1897.207 Q61.9141,1900.5273 61.9141,1907.0703 Q61.9141,1913.6133 64.0625,1916.9824 Q66.2109,1920.3027 70.4102,1920.3027 Q72.3633,1920.3027 74.2188,1919.4727 Q76.0742,1918.5938 78.0273,1916.7871 L78.0273,1925.2832 Z " fill="#000000"/><text fill="#000000" font-family="sans-serif" font-size="43.75" lengthAdjust="spacing" textLength="630.2948" x="112.5" y="1922.8021">FirstComeFirstServeStrategy</text><line style="stroke:#181818;stroke-width:1.5625;" x1="25" x2="749.0448" y1="1957.6563" y2="1957.6563"/><line style="stroke:#181818;stroke-width:1.5625;" x1="25" x2="749.0448" y1="1982.6563" y2="1982.6563"/></g><!--class ShortestSeekTimeFirstStrategy--><g class="entity" data-entity="ShortestSeekTimeFirstStrategy" data-source-line="50" data-uid="ent0015" id="entity_ShortestSeekTimeFirstStrategy"><rect fill="#FFFFFF" height="150" rx="7.8125" ry="7.8125" style="stroke:#181818;stroke-width:1.5625;" width="782.3334" x="861.4688" y="1857.6563"/><ellipse cx="908.3438" cy="1907.6563" fill="#C2C2C2" rx="34.375" ry="34.375" style="stroke:#181818;stroke-width:3.125;"/><path d="M917.6211,1925.2832 Q915.8145,1926.2109 913.8125,1926.6504 Q911.8105,1927.1387 909.6133,1927.1387 Q901.8008,1927.1387 897.6504,1922.0117 Q893.5488,1916.8359 893.5488,1907.0703 Q893.5488,1897.3047 897.6504,1892.1289 Q901.8008,1886.9531 909.6133,1886.9531 Q911.8105,1886.9531 913.8125,1887.4414 Q915.8633,1887.9297 917.6211,1888.8574 L917.6211,1897.3535 Q915.668,1895.5469 913.8125,1894.7168 Q911.957,1893.8379 910.0039,1893.8379 Q905.8047,1893.8379 903.6563,1897.207 Q901.5078,1900.5273 901.5078,1907.0703 Q901.5078,1913.6133 903.6563,1916.9824 Q905.8047,1920.3027 910.0039,1920.3027 Q911.957,1920.3027 913.8125,1919.4727 Q915.668,1918.5938 917.6211,1916.7871 L917.6211,1925.2832 Z " fill="#000000"/><text fill="#000000" font-family="sans-serif" font-size="43.75" lengthAdjust="spacing" textLength="682.3334" x="952.0938" y="1922.8021">ShortestSeekTimeFirstStrategy</text><line style="stroke:#181818;stroke-width:1.5625;" x1="864.5938" x2="1640.6771" y1="1957.6563" y2="1957.6563"/><line style="stroke:#181818;stroke-width:1.5625;" x1="864.5938" x2="1640.6771" y1="1982.6563" y2="1982.6563"/></g><!--link ElevatorCar to Direction--><g class="link" data-entity-1="ElevatorCar" data-entity-2="Direction" data-source-line="44" data-uid="lnk8" id="link_ElevatorCar_Direction"><path codeLine="44" d="M2148.4063,1125.125 C2222.1875,1205.8125 2288.8467,1278.7257 2353.6592,1349.6007" fill="none" id="ElevatorCar-to-Direction" style="stroke:#181818;stroke-width:3.125;"/><polygon fill="#181818" points="2366.3125,1363.4375,2356.5572,1334.2468,2355.7681,1351.9068,2338.1081,1351.1178,2366.3125,1363.4375" style="stroke:#181818;stroke-width:3.125;"/></g><!--reverse link ElevatorCar to ElevatorStatus--><g class="link" data-entity-1="ElevatorCar" data-entity-2="ElevatorStatus" data-source-line="45" data-uid="lnk9" id="link_ElevatorCar_ElevatorStatus"><path codeLine="45" d="M1918.2813,1162.625 C1918.2813,1253.0938 1918.2813,1313.6563 1918.2813,1388.5" fill="none" id="ElevatorCar-backto-ElevatorStatus" style="stroke:#181818;stroke-width:3.125;"/><polygon fill="#181818" points="1918.2813,1125.125,1905.7813,1143.875,1918.2813,1162.625,1930.7813,1143.875,1918.2813,1125.125" style="stroke:#181818;stroke-width:3.125;"/></g><!--reverse link ElevatorSystem to ElevatorCar--><g class="link" data-entity-1="ElevatorSystem" data-entity-2="ElevatorCar" data-source-line="46" data-uid="lnk10" id="link_ElevatorSystem_ElevatorCar"><path codeLine="46" d="M1565.2214,456.4729 C1616.5652,516.2229 1649.0625,554 1702.7813,616.5313" fill="none" id="ElevatorSystem-backto-ElevatorCar" style="stroke:#181818;stroke-width:3.125;"/><polygon fill="#181818" points="1540.7813,428.0313,1543.5208,450.3988,1565.2214,456.4729,1562.4819,434.1053,1540.7813,428.0313" style="stroke:#181818;stroke-width:3.125;"/></g><!--reverse link ElevatorSystem to ElevatorDispatch--><g class="link" data-entity-1="ElevatorSystem" data-entity-2="ElevatorDispatch" data-source-line="47" data-uid="lnk11" id="link_ElevatorSystem_ElevatorDispatch"><path codeLine="47" d="M1174.4925,456.6817 C1095.2425,550.5255 1026.6563,631.6875 953.7188,718.0313" fill="none" id="ElevatorSystem-backto-ElevatorDispatch" style="stroke:#181818;stroke-width:3.125;"/><polygon fill="#181818" points="1198.6875,428.0313,1177.0398,434.2915,1174.4925,456.6817,1196.1402,450.4215,1198.6875,428.0313" style="stroke:#181818;stroke-width:3.125;"/></g><!--link ElevatorDispatch to DispatchingStrategy--><g class="link" data-entity-1="ElevatorDispatch" data-entity-2="DispatchingStrategy" data-source-line="48" data-uid="lnk12" id="link_ElevatorDispatch_DispatchingStrategy"><path codeLine="48" d="M825.4375,1023.3125 C823.8125,1134.3438 821.9,1265.1583 820.3687,1369.5645" fill="none" id="ElevatorDispatch-to-DispatchingStrategy" style="stroke:#181818;stroke-width:3.125;"/><polygon fill="#181818" points="820.0938,1388.3125,833.0049,1360.3738,820.3229,1372.6892,808.0075,1360.0072,820.0938,1388.3125" style="stroke:#181818;stroke-width:3.125;"/><text fill="#000000" font-family="sans-serif" font-size="40.625" lengthAdjust="spacing" textLength="93.0725" x="827.6563" y="1258.209">uses</text></g><!--reverse link DispatchingStrategy to FirstComeFirstServeStrategy--><g class="link" data-entity-1="DispatchingStrategy" data-entity-2="FirstComeFirstServeStrategy" data-source-line="49" data-uid="lnk14" id="link_DispatchingStrategy_FirstComeFirstServeStrategy"><path codeLine="49" d="M646.993,1681.9255 C573.618,1751.8317 525.3125,1797.8125 463.25,1856.9375" fill="none" id="DispatchingStrategy-backto-FirstComeFirstServeStrategy" style="stroke:#181818;stroke-width:3.125;stroke-dasharray:7.0,7.0;"/><polygon fill="none" points="687.7188,1643.125,634.0595,1668.3502,659.9265,1695.5007,687.7188,1643.125" style="stroke:#181818;stroke-width:3.125;"/></g><!--reverse link DispatchingStrategy to ShortestSeekTimeFirstStrategy--><g class="link" data-entity-1="DispatchingStrategy" data-entity-2="ShortestSeekTimeFirstStrategy" data-source-line="50" data-uid="lnk16" id="link_DispatchingStrategy_ShortestSeekTimeFirstStrategy"><path codeLine="50" d="M990.6465,1681.7785 C1064.5527,1751.6848 1113.375,1797.8125 1175.875,1856.9375" fill="none" id="DispatchingStrategy-backto-ShortestSeekTimeFirstStrategy" style="stroke:#181818;stroke-width:3.125;stroke-dasharray:7.0,7.0;"/><polygon fill="none" points="949.7813,1643.125,977.762,1695.4003,1003.531,1668.1568,949.7813,1643.125" style="stroke:#181818;stroke-width:3.125;"/></g><!--SRC=[XLHDRzim3BtxLn3O9LsRei1kGn1WIneWGB4lRzXb5rLY7I6ob59IW2BRVvyaIwxZfgalPiJtoCSdEdOhzOuHQw4rsl0DcHR1aSVAzfbxnhSD6Q_5mYX3y6wLdW62AsRjvpTXOYVXmyrDLIKyt2hSCsUeVh8EMpXK49uft4dhPYMtO3G7p3ziHfJaKjeTStm38WSBenqPfP0IylAuLksOytOE3RfFIXsVefrSP0xXeqVhIduYjGFkYL2xbJA6hc0f2RcJHeV6EIfa6xJo3ZSPp02S1Lwi949fgLda9DH5zM_iHpzMSQGSIDtKZfZ3vWbi3dBVui2WPnB-yAhYA_YZptcTX8KII0-CuqaDXznyE6XdG6_UcGP9m7cD9yo9FGwZFUYkC5WINpdttQF7sJheRp1qTOp2jIV7RNMaEDaKg1IkfSbNSZak7RXTD8d9lP42c109_QDRbsUt8-BU68KiZ6VNGc4Y-Pq8hlL39ln0rObHS-yoxNWF- -KejkLaVn0helRj0DBL-lKjlPPVVtz9mNfvTnl1Gu-dq_apxoZpVZfslXfzoKD4O9nBbxMgNYn_9-3bqds4-BLMfrAplzVNi99atIByZQMWHjfZ0RnEgZU674OuRd_AmisG_m00]--></g></svg>