<svg xmlns="http://www.w3.org/2000/svg" xmlns:xlink="http://www.w3.org/1999/xlink" contentStyleType="text/css" data-diagram-type="CLASS" height="468.75px" preserveAspectRatio="none" style="width:668px;height:468px;background:#FFFFFF;" version="1.1" viewBox="0 0 668 468" width="668.75px" zoomAndPan="magnify"><defs/><g><!--class LockerSize--><g class="entity" data-entity="LockerSize" data-source-line="6" data-uid="ent0002" id="entity_LockerSize"><rect fill="#FFFFFF" height="404.6387" rx="7.8125" ry="7.8125" style="stroke:#181818;stroke-width:1.5625;" width="606.0364" x="21.875" y="21.875"/><ellipse cx="193.9911" cy="71.875" fill="#ABABAB" rx="34.375" ry="34.375" style="stroke:#181818;stroke-width:3.125;"/><path d="M206.8329,90.625 L182.7118,90.625 L182.7118,51.9043 L206.8329,51.9043 L206.8329,58.6426 L190.3778,58.6426 L190.3778,66.9922 L205.2704,66.9922 L205.2704,73.7305 L190.3778,73.7305 L190.3778,83.8867 L206.8329,83.8867 L206.8329,90.625 Z " fill="#000000"/><text fill="#000000" font-family="sans-serif" font-size="43.75" lengthAdjust="spacing" textLength="235.2417" x="258.0536" y="87.0209">LockerSize</text><line style="stroke:#181818;stroke-width:1.5625;" x1="25" x2="624.7864" y1="121.875" y2="121.875"/><rect fill="none" height="18.75" style="stroke:#595959;stroke-width:3.125;" width="18.75" x="46.875" y="155.1514"/><text fill="#000000" font-family="sans-serif" font-size="43.75" lengthAdjust="spacing" textLength="358.374" x="84.375" y="174.9847">String sizeName</text><rect fill="none" height="18.75" style="stroke:#595959;stroke-width:3.125;" width="18.75" x="46.875" y="206.0791"/><text fill="#000000" font-family="sans-serif" font-size="43.75" lengthAdjust="spacing" textLength="524.7864" x="84.375" y="225.9125">BigDecimal dailyCharge</text><rect fill="none" height="18.75" style="stroke:#595959;stroke-width:3.125;" width="18.75" x="46.875" y="257.0068"/><text fill="#000000" font-family="sans-serif" font-size="43.75" lengthAdjust="spacing" textLength="382.8339" x="84.375" y="276.8402">BigDecimal width</text><rect fill="none" height="18.75" style="stroke:#595959;stroke-width:3.125;" width="18.75" x="46.875" y="307.9346"/><text fill="#000000" font-family="sans-serif" font-size="43.75" lengthAdjust="spacing" textLength="401.6968" x="84.375" y="327.7679">BigDecimal height</text><rect fill="none" height="18.75" style="stroke:#595959;stroke-width:3.125;" width="18.75" x="46.875" y="358.8623"/><text fill="#000000" font-family="sans-serif" font-size="43.75" lengthAdjust="spacing" textLength="389.5844" x="84.375" y="378.6957">BigDecimal depth</text><line style="stroke:#181818;stroke-width:1.5625;" x1="25" x2="624.7864" y1="401.5137" y2="401.5137"/></g><!--SRC=[XOn12i8m44NtESM0Qw7W3Lfn9MvwWZ4Pag59fanIHCMx6qH4iE1Rll_uPU8yesA295biK4a4LHSovRESqKvUPSbka2WAcyEBhy96BAN_cxcPOTTrnb1U4Xp5JgGZtmZk1XfR6Ajozb2QEs6Yj-tPxybomWWEELw7WEfNnWkx6dvr8FQXhdpHtFB74m00]--></g></svg>