<svg xmlns="http://www.w3.org/2000/svg" xmlns:xlink="http://www.w3.org/1999/xlink" contentStyleType="text/css" data-diagram-type="CLASS" height="265.625px" preserveAspectRatio="none" style="width:1059px;height:265px;background:#FFFFFF;" version="1.1" viewBox="0 0 1059 265" width="1059.375px" zoomAndPan="magnify"><defs/><g><!--class FileSearch--><g class="entity" data-entity="FileSearch" data-source-line="6" data-uid="ent0002" id="entity_FileSearch"><rect fill="#FFFFFF" height="200.9277" rx="7.8125" ry="7.8125" style="stroke:#181818;stroke-width:1.5625;" width="995.343" x="21.875" y="21.875"/><ellipse cx="392.4362" cy="71.875" fill="#C2C2C2" rx="34.375" ry="34.375" style="stroke:#181818;stroke-width:3.125;"/><path d="M401.7136,89.502 Q399.9069,90.4297 397.905,90.8691 Q395.903,91.3574 393.7057,91.3574 Q385.8932,91.3574 381.7429,86.2305 Q377.6413,81.0547 377.6413,71.2891 Q377.6413,61.5234 381.7429,56.3477 Q385.8932,51.1719 393.7057,51.1719 Q395.903,51.1719 397.905,51.6602 Q399.9557,52.1484 401.7136,53.0762 L401.7136,61.5723 Q399.7604,59.7656 397.905,58.9355 Q396.0495,58.0566 394.0964,58.0566 Q389.8972,58.0566 387.7487,61.4258 Q385.6003,64.7461 385.6003,71.2891 Q385.6003,77.832 387.7487,81.2012 Q389.8972,84.5215 394.0964,84.5215 Q396.0495,84.5215 397.905,83.6914 Q399.7604,82.8125 401.7136,81.0059 L401.7136,89.502 Z " fill="#000000"/><text fill="#000000" font-family="sans-serif" font-size="43.75" lengthAdjust="spacing" textLength="227.6581" x="456.4987" y="87.0209">FileSearch</text><line style="stroke:#181818;stroke-width:1.5625;" x1="25" x2="1014.093" y1="121.875" y2="121.875"/><line style="stroke:#181818;stroke-width:1.5625;" x1="25" x2="1014.093" y1="146.875" y2="146.875"/><ellipse cx="56.25" cy="189.5264" fill="#A6A6A6" rx="9.375" ry="9.375" style="stroke:#545454;stroke-width:3.125;"/><text fill="#000000" font-family="sans-serif" font-size="43.75" lengthAdjust="spacing" textLength="914.093" x="84.375" y="199.9847">List&lt;File&gt; search(File, FileSearchCriteria)</text></g><!--SRC=[AyxEp2j8B4hCLSZDpyjFpYZApqrLA2agJUKgXiia9IPdfnVbb-QbEEVdv1SfABk10PAAv9p4uc8dWifI2Z8LZ0qCkBWKW02iHy4jCoSrE3MnA3b3eHei30BQ2ZwPnIKs83axXMAmh0Q8euEatBaeioIrA3DH4woh5W00]--></g></svg>