<svg xmlns="http://www.w3.org/2000/svg" xmlns:xlink="http://www.w3.org/1999/xlink" contentStyleType="text/css" data-diagram-type="CLASS" height="365.625px" preserveAspectRatio="none" style="width:612px;height:365px;background:#FFFFFF;" version="1.1" viewBox="0 0 612 365" width="612.5px" zoomAndPan="magnify"><defs/><g><!--class Movie--><g class="entity" data-entity="Movie" data-source-line="6" data-uid="ent0002" id="entity_Movie"><rect fill="#FFFFFF" height="302.7832" rx="7.8125" ry="7.8125" style="stroke:#181818;stroke-width:1.5625;" width="549.1486" x="21.875" y="21.875"/><ellipse cx="218.4296" cy="71.875" fill="#C2C2C2" rx="34.375" ry="34.375" style="stroke:#181818;stroke-width:3.125;"/><path d="M227.7069,89.502 Q225.9003,90.4297 223.8983,90.8691 Q221.8964,91.3574 219.6991,91.3574 Q211.8866,91.3574 207.7362,86.2305 Q203.6346,81.0547 203.6346,71.2891 Q203.6346,61.5234 207.7362,56.3477 Q211.8866,51.1719 219.6991,51.1719 Q221.8964,51.1719 223.8983,51.6602 Q225.9491,52.1484 227.7069,53.0762 L227.7069,61.5723 Q225.7538,59.7656 223.8983,58.9355 Q222.0428,58.0566 220.0897,58.0566 Q215.8905,58.0566 213.7421,61.4258 Q211.5936,64.7461 211.5936,71.2891 Q211.5936,77.832 213.7421,81.2012 Q215.8905,84.5215 220.0897,84.5215 Q222.0428,84.5215 223.8983,83.6914 Q225.7538,82.8125 227.7069,81.0059 L227.7069,89.502 Z " fill="#000000"/><text fill="#000000" font-family="sans-serif" font-size="43.75" lengthAdjust="spacing" textLength="129.4769" x="282.4921" y="87.0209">Movie</text><line style="stroke:#181818;stroke-width:1.5625;" x1="25" x2="567.8986" y1="121.875" y2="121.875"/><rect fill="none" height="18.75" style="stroke:#595959;stroke-width:3.125;" width="18.75" x="46.875" y="155.1514"/><text fill="#000000" font-family="sans-serif" font-size="43.75" lengthAdjust="spacing" textLength="230.0079" x="84.375" y="174.9847">String title</text><rect fill="none" height="18.75" style="stroke:#595959;stroke-width:3.125;" width="18.75" x="46.875" y="206.0791"/><text fill="#000000" font-family="sans-serif" font-size="43.75" lengthAdjust="spacing" textLength="271.7926" x="84.375" y="225.9125">String genre</text><rect fill="none" height="18.75" style="stroke:#595959;stroke-width:3.125;" width="18.75" x="46.875" y="257.0068"/><text fill="#000000" font-family="sans-serif" font-size="43.75" lengthAdjust="spacing" textLength="467.8986" x="84.375" y="276.8402">int durationInMinutes</text><line style="stroke:#181818;stroke-width:1.5625;" x1="25" x2="567.8986" y1="299.6582" y2="299.6582"/></g><!--SRC=[XOf12W8n303lUKN0ix3W3rmGFEp95zGsrB1jigIf5_7loiAAdfpZpBIPPGaMAbOLZJVJIkZM2TgdN4ESiscND6fHmzrfvUk89RHs_BkbXV4m303hZvFUcV01-6QF5pUMZCvUw5Tb4jiKYsFg5fnLpZAnTAS6pnS0]--></g></svg>