<svg width="466" height="291" viewBox="0 0 466 291" fill="none" xmlns="http://www.w3.org/2000/svg">
<rect width="466" height="291" fill="#EAEAEA"/>
<path d="M166.596 31.752C166.596 31.6667 166.596 31.528 166.596 31.336C166.618 31.1227 166.639 30.6747 166.66 29.992C166.682 29.3093 166.703 28.2853 166.724 26.92C166.746 25.5547 166.767 23.656 166.788 21.224C166.788 20.712 166.799 20.1573 166.82 19.56C166.863 18.9627 166.927 18.3973 167.012 17.864C167.119 17.3307 167.258 16.872 167.428 16.488C167.599 16.0827 167.812 15.8373 168.068 15.752C168.815 15.5173 169.594 15.3467 170.404 15.24C171.215 15.112 171.93 15.048 172.548 15.048C172.847 15.048 173.167 15.112 173.508 15.24C173.871 15.368 174.202 15.5493 174.5 15.784C174.82 16.0187 175.076 16.3173 175.268 16.68C175.482 17.0213 175.588 17.416 175.588 17.864C175.588 18.5467 175.482 19.1333 175.268 19.624C175.076 20.1147 174.874 20.52 174.66 20.84C175.727 21.2453 176.591 21.8747 177.252 22.728C177.914 23.56 178.244 24.648 178.244 25.992C178.244 27.2293 178.01 28.296 177.54 29.192C177.071 30.0667 176.442 30.792 175.652 31.368C174.884 31.944 173.988 32.3707 172.964 32.648C171.94 32.9253 170.874 33.064 169.764 33.064C169.679 33.064 169.594 33.0533 169.508 33.032C169.444 33.0107 169.348 33 169.22 33C169.071 33 168.922 33.0427 168.772 33.128C168.623 33.2347 168.463 33.288 168.292 33.288C168.143 33.288 167.972 33.256 167.78 33.192C167.588 33.128 167.396 33.032 167.204 32.904C167.034 32.776 166.884 32.616 166.756 32.424C166.65 32.232 166.596 32.008 166.596 31.752ZM168.836 20.968C168.922 20.968 169.018 20.968 169.124 20.968C169.231 20.9467 169.391 20.9147 169.604 20.872C169.839 20.808 170.148 20.712 170.532 20.584C170.916 20.456 171.439 20.2747 172.1 20.04C172.25 19.9547 172.41 19.848 172.58 19.72C172.751 19.592 172.911 19.4533 173.06 19.304C173.21 19.1333 173.338 18.9733 173.444 18.824C173.551 18.6533 173.604 18.4827 173.604 18.312C173.604 18.1413 173.434 18.0133 173.092 17.928C172.751 17.8427 172.292 17.8 171.716 17.8C171.567 17.8 171.332 17.8213 171.012 17.864C170.714 17.8853 170.404 17.928 170.084 17.992C169.786 18.056 169.519 18.1413 169.284 18.248C169.05 18.3547 168.932 18.4933 168.932 18.664L168.836 20.968ZM168.932 30.12C169.658 30.056 170.447 29.992 171.3 29.928C172.175 29.864 172.975 29.704 173.7 29.448C174.447 29.1707 175.066 28.7547 175.556 28.2C176.047 27.6453 176.292 26.8453 176.292 25.8C176.292 25.352 176.164 24.9573 175.908 24.616C175.674 24.2747 175.354 23.9867 174.948 23.752C174.564 23.5173 174.127 23.3467 173.636 23.24C173.146 23.112 172.666 23.048 172.196 23.048C171.962 23.048 171.727 23.1013 171.492 23.208C171.279 23.2933 171.044 23.4 170.788 23.528C170.532 23.656 170.244 23.784 169.924 23.912C169.604 24.0187 169.242 24.0933 168.836 24.136C168.836 24.3067 168.826 24.552 168.804 24.872C168.804 25.1707 168.804 25.4053 168.804 25.576V26.856C168.804 27.4107 168.804 27.9547 168.804 28.488C168.826 29.0213 168.868 29.5653 168.932 30.12ZM181.785 32.04C181.785 31.464 181.806 30.9093 181.849 30.376C181.891 29.8427 181.966 29.1067 182.073 28.168C182.073 26.6533 182.03 25.1493 181.945 23.656C181.881 22.1413 181.849 20.6267 181.849 19.112C181.849 17.6613 181.902 16.6373 182.009 16.04C182.115 15.4213 182.393 15.112 182.841 15.112C183.118 15.112 183.374 15.2827 183.609 15.624C183.865 15.9653 183.993 16.36 183.993 16.808C183.993 17.0213 183.993 17.2027 183.993 17.352C183.993 17.5013 183.982 17.6613 183.961 17.832C183.961 17.9813 183.95 18.152 183.929 18.344C183.907 18.536 183.886 18.76 183.865 19.016C183.865 19.6987 183.865 20.4027 183.865 21.128C183.865 21.832 183.875 22.536 183.897 23.24L184.057 29.864C184.995 29.9067 185.891 29.9493 186.745 29.992C187.598 30.0347 188.515 30.056 189.497 30.056C189.539 30.056 189.593 30.056 189.657 30.056C189.721 30.056 189.806 30.0453 189.913 30.024C190.041 30.0027 190.201 29.9813 190.393 29.96C190.606 29.9173 190.883 29.8747 191.225 29.832C191.502 29.8533 191.737 30.0347 191.929 30.376C192.121 30.696 192.217 31.0693 192.217 31.496C192.217 31.688 192.174 31.88 192.089 32.072C192.025 32.264 191.929 32.4453 191.801 32.616C191.694 32.7653 191.566 32.8933 191.417 33C191.289 33.1067 191.161 33.16 191.033 33.16C190.35 33.16 189.635 33.128 188.889 33.064C188.142 33.0213 187.342 33 186.489 33C186.147 33 185.795 33.0213 185.433 33.064C185.091 33.128 184.718 33.16 184.313 33.16C184.27 33.16 184.206 33.16 184.121 33.16C184.057 33.16 183.95 33.1493 183.801 33.128C183.673 33.128 183.481 33.1173 183.225 33.096C182.99 33.0747 182.681 33.0427 182.297 33C182.147 33 182.019 32.9573 181.913 32.872C181.827 32.7653 181.785 32.488 181.785 32.04ZM194.014 32.008C194.014 31.6453 194.057 31.304 194.142 30.984C194.249 30.6427 194.377 30.3333 194.526 30.056C194.697 29.5867 194.878 29.0533 195.07 28.456C195.262 27.8587 195.497 27.176 195.774 26.408C195.753 26.344 195.742 26.2693 195.742 26.184C195.742 26.0987 195.742 26.0347 195.742 25.992C195.742 25.5653 195.796 25.2133 195.902 24.936C196.009 24.6373 196.233 24.3813 196.574 24.168L199.358 17.64C199.486 17.384 199.625 17.096 199.774 16.776C199.924 16.456 200.084 16.168 200.254 15.912C200.425 15.6347 200.606 15.4 200.798 15.208C200.99 15.016 201.193 14.92 201.406 14.92C202.004 14.92 202.548 15.2613 203.038 15.944C203.529 16.6053 203.977 17.448 204.382 18.472C204.809 19.496 205.193 20.6267 205.534 21.864C205.876 23.1013 206.185 24.2853 206.462 25.416C206.761 26.5253 207.028 27.5067 207.262 28.36C207.518 29.2133 207.764 29.7787 207.998 30.056C208.148 30.248 208.276 30.408 208.382 30.536C208.489 30.6427 208.574 30.76 208.638 30.888C208.702 30.9947 208.745 31.1333 208.766 31.304C208.809 31.4533 208.83 31.656 208.83 31.912C208.83 32.2533 208.777 32.52 208.67 32.712C208.564 32.8827 208.436 33.0107 208.286 33.096C208.158 33.2027 208.009 33.2667 207.838 33.288C207.689 33.3093 207.561 33.32 207.454 33.32C207.241 33.32 207.038 33.2027 206.846 32.968C206.654 32.712 206.473 32.4133 206.302 32.072C206.153 31.7307 206.014 31.368 205.886 30.984C205.78 30.6 205.694 30.2693 205.63 29.992C205.46 29.3947 205.31 28.904 205.182 28.52C205.076 28.136 204.958 27.8373 204.83 27.624C204.724 27.4107 204.585 27.2613 204.414 27.176C204.265 27.0907 204.052 27.048 203.774 27.048H198.398C198.249 27.048 198.121 27.0587 198.014 27.08C197.929 27.1013 197.844 27.1653 197.758 27.272C197.694 27.3573 197.63 27.4853 197.566 27.656C197.502 27.8267 197.417 28.0613 197.31 28.36L196.318 31.208C196.276 31.6347 196.201 31.976 196.094 32.232C195.988 32.488 195.86 32.6907 195.71 32.84C195.582 32.968 195.454 33.0533 195.326 33.096C195.198 33.16 195.113 33.192 195.07 33.192C194.729 33.192 194.462 33.1173 194.27 32.968C194.1 32.7973 194.014 32.4773 194.014 32.008ZM198.846 24.072C199.465 24.0933 200.02 24.1147 200.51 24.136C201.001 24.136 201.524 24.136 202.078 24.136C202.334 24.136 202.601 24.136 202.878 24.136C203.156 24.136 203.454 24.1253 203.774 24.104C203.625 23.6773 203.433 23.1867 203.198 22.632C202.985 22.056 202.74 21.48 202.462 20.904L201.278 18.376C201.172 18.44 201.012 18.696 200.798 19.144C200.585 19.592 200.35 20.1147 200.094 20.712C199.86 21.3093 199.625 21.9173 199.39 22.536C199.156 23.1547 198.974 23.6667 198.846 24.072ZM211.771 26.28C211.771 25.256 211.888 24.264 212.123 23.304C212.358 22.344 212.646 21.384 212.987 20.424C213.179 19.8693 213.467 19.2827 213.851 18.664C214.235 18.024 214.694 17.4373 215.227 16.904C215.76 16.3493 216.336 15.8907 216.955 15.528C217.595 15.1653 218.256 14.984 218.939 14.984C219.536 14.984 220.134 15.0907 220.731 15.304C221.328 15.5173 221.851 15.8373 222.299 16.264C222.768 16.6693 223.142 17.192 223.419 17.832C223.718 18.4507 223.867 19.1653 223.867 19.976C223.867 20.168 223.835 20.392 223.771 20.648C223.728 20.8827 223.654 21.1173 223.547 21.352C223.462 21.5653 223.334 21.7467 223.163 21.896C222.992 22.0453 222.8 22.12 222.587 22.12C222.288 22.12 222.086 22.0133 221.979 21.8C221.894 21.5867 221.84 21.32 221.819 21C221.798 20.6587 221.766 20.3067 221.723 19.944C221.702 19.56 221.606 19.208 221.435 18.888C221.264 18.5467 220.987 18.2693 220.603 18.056C220.24 17.8427 219.696 17.736 218.971 17.736C218.374 17.736 217.83 17.896 217.339 18.216C216.848 18.536 216.411 18.952 216.027 19.464C215.664 19.9547 215.344 20.52 215.067 21.16C214.79 21.7787 214.566 22.408 214.395 23.048C214.224 23.6667 214.096 24.264 214.011 24.84C213.926 25.416 213.883 25.8853 213.883 26.248C213.883 26.9307 214.011 27.528 214.267 28.04C214.544 28.552 214.896 28.9893 215.323 29.352C215.771 29.7147 216.262 29.992 216.795 30.184C217.35 30.3547 217.915 30.44 218.491 30.44C218.768 30.44 219.099 30.4293 219.483 30.408C219.867 30.3867 220.262 30.344 220.667 30.28C221.072 30.216 221.467 30.1413 221.851 30.056C222.235 29.9707 222.576 29.864 222.875 29.736C223.216 29.4373 223.472 29.2133 223.643 29.064C223.814 28.9147 223.952 28.84 224.059 28.84C224.358 28.84 224.603 28.9787 224.795 29.256C224.987 29.5333 225.083 29.8853 225.083 30.312C225.083 30.8667 224.859 31.336 224.411 31.72C223.984 32.0827 223.451 32.3813 222.811 32.616C222.171 32.8293 221.478 32.9787 220.731 33.064C219.984 33.1707 219.312 33.224 218.715 33.224C217.883 33.224 217.051 33.128 216.219 32.936C215.408 32.744 214.672 32.392 214.011 31.88C213.35 31.368 212.806 30.664 212.379 29.768C211.974 28.8507 211.771 27.688 211.771 26.28ZM228.448 25.384C228.49 23.9333 228.522 22.4933 228.544 21.064C228.565 19.6133 228.608 18.1413 228.672 16.648C228.693 16.3067 228.778 15.9547 228.928 15.592C229.077 15.2293 229.344 15.048 229.728 15.048C229.941 15.048 230.144 15.1653 230.336 15.4C230.549 15.6133 230.656 15.9653 230.656 16.456L230.464 21.352V22.28C230.464 22.4507 230.464 22.6213 230.464 22.792C230.464 22.9413 230.474 23.0373 230.496 23.08C230.73 22.6747 231.018 22.28 231.36 21.896C231.701 21.512 232.01 21.1067 232.288 20.68C232.48 20.2747 232.661 19.9653 232.832 19.752C233.024 19.5173 233.269 19.3787 233.568 19.336C233.845 18.952 234.058 18.6533 234.208 18.44C234.378 18.2053 234.506 18.024 234.592 17.896C234.698 17.7467 234.794 17.6187 234.88 17.512C234.965 17.4053 235.082 17.2667 235.232 17.096C235.424 16.8613 235.584 16.6373 235.712 16.424C235.861 16.1893 236.01 15.976 236.16 15.784C236.309 15.592 236.48 15.4427 236.672 15.336C236.864 15.208 237.109 15.144 237.408 15.144C237.536 15.144 237.696 15.24 237.888 15.432C238.08 15.624 238.176 15.9653 238.176 16.456C238.176 17.0107 238.08 17.4693 237.888 17.832C237.696 18.1733 237.45 18.5147 237.152 18.856C236.853 19.176 236.501 19.528 236.096 19.912C235.69 20.2747 235.285 20.7547 234.88 21.352C235.157 21.8427 235.413 22.344 235.648 22.856C235.882 23.3467 236.117 23.8373 236.352 24.328L237.952 27.72C238.122 28.104 238.314 28.5307 238.528 29C238.762 29.448 238.976 29.9067 239.168 30.376C239.36 30.8453 239.52 31.2933 239.648 31.72C239.797 32.1253 239.872 32.4667 239.872 32.744C239.872 33.2347 239.786 33.6507 239.616 33.992C239.445 34.3547 239.125 34.536 238.656 34.536C238.506 34.536 238.357 34.44 238.208 34.248C238.08 34.056 237.941 33.8 237.792 33.48C237.664 33.1813 237.536 32.8507 237.408 32.488C237.28 32.1253 237.152 31.7733 237.024 31.432C236.938 31.1973 236.8 30.8667 236.608 30.44C236.437 29.992 236.234 29.5013 236 28.968C235.786 28.4133 235.541 27.848 235.264 27.272C235.008 26.6747 234.752 26.1093 234.496 25.576C234.261 25.0427 234.037 24.5733 233.824 24.168C233.61 23.7413 233.429 23.4213 233.28 23.208C233.066 23.4213 232.832 23.6773 232.576 23.976C232.32 24.2747 232.064 24.584 231.808 24.904C231.573 25.2027 231.338 25.512 231.104 25.832C230.89 26.1307 230.709 26.3867 230.56 26.6C230.538 27.4533 230.549 28.1467 230.592 28.68C230.634 29.192 230.666 29.6827 230.688 30.152L230.752 32.04C230.773 32.4667 230.656 32.7867 230.4 33C230.144 33.2347 229.898 33.352 229.664 33.352C229.365 33.352 229.12 33.2667 228.928 33.096C228.757 32.9253 228.618 32.7013 228.512 32.424C228.426 32.1253 228.373 31.784 228.352 31.4C228.33 31.016 228.32 30.6107 228.32 30.184L228.448 25.384ZM241.757 30.92C241.757 30.7493 241.778 30.568 241.821 30.376C241.885 30.1627 241.96 29.9707 242.045 29.8C242.152 29.6293 242.28 29.4907 242.429 29.384C242.578 29.256 242.749 29.192 242.941 29.192C243.112 29.192 243.261 29.256 243.389 29.384C243.538 29.4907 243.688 29.6187 243.837 29.768C243.986 29.9173 244.146 30.056 244.317 30.184C244.509 30.2907 244.733 30.344 244.989 30.344C245.416 30.344 245.842 30.2693 246.269 30.12C246.717 29.9493 247.112 29.7253 247.453 29.448C247.816 29.1493 248.104 28.8187 248.317 28.456C248.552 28.0933 248.669 27.6987 248.669 27.272C248.669 25.5867 248.68 23.9547 248.701 22.376C248.744 20.7973 248.765 19.08 248.765 17.224C248.765 16.968 248.786 16.7227 248.829 16.488C248.872 16.232 248.936 15.9973 249.021 15.784C249.128 15.5707 249.256 15.4 249.405 15.272C249.576 15.144 249.778 15.08 250.013 15.08C250.418 15.08 250.674 15.432 250.781 16.136C250.909 16.84 250.973 17.7147 250.973 18.76C250.973 19.3787 250.962 20.0293 250.941 20.712C250.92 21.3947 250.909 22.0773 250.909 22.76C250.909 23.2507 250.888 23.8373 250.845 24.52C250.824 25.2027 250.781 25.8747 250.717 26.536C250.653 27.1973 250.578 27.7947 250.493 28.328C250.429 28.8613 250.354 29.2027 250.269 29.352C249.544 30.76 248.701 31.7627 247.741 32.36C246.802 32.9573 245.757 33.256 244.605 33.256C244.392 33.256 244.125 33.224 243.805 33.16C243.485 33.096 243.165 32.9787 242.845 32.808C242.546 32.6373 242.29 32.4027 242.077 32.104C241.864 31.8053 241.757 31.4107 241.757 30.92ZM253.733 32.008C253.733 31.6453 253.776 31.304 253.861 30.984C253.968 30.6427 254.096 30.3333 254.245 30.056C254.416 29.5867 254.597 29.0533 254.789 28.456C254.981 27.8587 255.216 27.176 255.493 26.408C255.472 26.344 255.461 26.2693 255.461 26.184C255.461 26.0987 255.461 26.0347 255.461 25.992C255.461 25.5653 255.514 25.2133 255.621 24.936C255.728 24.6373 255.952 24.3813 256.293 24.168L259.077 17.64C259.205 17.384 259.344 17.096 259.493 16.776C259.642 16.456 259.802 16.168 259.973 15.912C260.144 15.6347 260.325 15.4 260.517 15.208C260.709 15.016 260.912 14.92 261.125 14.92C261.722 14.92 262.266 15.2613 262.757 15.944C263.248 16.6053 263.696 17.448 264.101 18.472C264.528 19.496 264.912 20.6267 265.253 21.864C265.594 23.1013 265.904 24.2853 266.181 25.416C266.48 26.5253 266.746 27.5067 266.981 28.36C267.237 29.2133 267.482 29.7787 267.717 30.056C267.866 30.248 267.994 30.408 268.101 30.536C268.208 30.6427 268.293 30.76 268.357 30.888C268.421 30.9947 268.464 31.1333 268.485 31.304C268.528 31.4533 268.549 31.656 268.549 31.912C268.549 32.2533 268.496 32.52 268.389 32.712C268.282 32.8827 268.154 33.0107 268.005 33.096C267.877 33.2027 267.728 33.2667 267.557 33.288C267.408 33.3093 267.28 33.32 267.173 33.32C266.96 33.32 266.757 33.2027 266.565 32.968C266.373 32.712 266.192 32.4133 266.021 32.072C265.872 31.7307 265.733 31.368 265.605 30.984C265.498 30.6 265.413 30.2693 265.349 29.992C265.178 29.3947 265.029 28.904 264.901 28.52C264.794 28.136 264.677 27.8373 264.549 27.624C264.442 27.4107 264.304 27.2613 264.133 27.176C263.984 27.0907 263.77 27.048 263.493 27.048H258.117C257.968 27.048 257.84 27.0587 257.733 27.08C257.648 27.1013 257.562 27.1653 257.477 27.272C257.413 27.3573 257.349 27.4853 257.285 27.656C257.221 27.8267 257.136 28.0613 257.029 28.36L256.037 31.208C255.994 31.6347 255.92 31.976 255.813 32.232C255.706 32.488 255.578 32.6907 255.429 32.84C255.301 32.968 255.173 33.0533 255.045 33.096C254.917 33.16 254.832 33.192 254.789 33.192C254.448 33.192 254.181 33.1173 253.989 32.968C253.818 32.7973 253.733 32.4773 253.733 32.008ZM258.565 24.072C259.184 24.0933 259.738 24.1147 260.229 24.136C260.72 24.136 261.242 24.136 261.797 24.136C262.053 24.136 262.32 24.136 262.597 24.136C262.874 24.136 263.173 24.1253 263.493 24.104C263.344 23.6773 263.152 23.1867 262.917 22.632C262.704 22.056 262.458 21.48 262.181 20.904L260.997 18.376C260.89 18.44 260.73 18.696 260.517 19.144C260.304 19.592 260.069 20.1147 259.813 20.712C259.578 21.3093 259.344 21.9173 259.109 22.536C258.874 23.1547 258.693 23.6667 258.565 24.072ZM271.49 26.28C271.49 25.256 271.607 24.264 271.842 23.304C272.077 22.344 272.365 21.384 272.706 20.424C272.898 19.8693 273.186 19.2827 273.57 18.664C273.954 18.024 274.413 17.4373 274.946 16.904C275.479 16.3493 276.055 15.8907 276.674 15.528C277.314 15.1653 277.975 14.984 278.658 14.984C279.255 14.984 279.853 15.0907 280.45 15.304C281.047 15.5173 281.57 15.8373 282.018 16.264C282.487 16.6693 282.861 17.192 283.138 17.832C283.437 18.4507 283.586 19.1653 283.586 19.976C283.586 20.168 283.554 20.392 283.49 20.648C283.447 20.8827 283.373 21.1173 283.266 21.352C283.181 21.5653 283.053 21.7467 282.882 21.896C282.711 22.0453 282.519 22.12 282.306 22.12C282.007 22.12 281.805 22.0133 281.698 21.8C281.613 21.5867 281.559 21.32 281.538 21C281.517 20.6587 281.485 20.3067 281.442 19.944C281.421 19.56 281.325 19.208 281.154 18.888C280.983 18.5467 280.706 18.2693 280.322 18.056C279.959 17.8427 279.415 17.736 278.69 17.736C278.093 17.736 277.549 17.896 277.058 18.216C276.567 18.536 276.13 18.952 275.746 19.464C275.383 19.9547 275.063 20.52 274.786 21.16C274.509 21.7787 274.285 22.408 274.114 23.048C273.943 23.6667 273.815 24.264 273.73 24.84C273.645 25.416 273.602 25.8853 273.602 26.248C273.602 26.9307 273.73 27.528 273.986 28.04C274.263 28.552 274.615 28.9893 275.042 29.352C275.49 29.7147 275.981 29.992 276.514 30.184C277.069 30.3547 277.634 30.44 278.21 30.44C278.487 30.44 278.818 30.4293 279.202 30.408C279.586 30.3867 279.981 30.344 280.386 30.28C280.791 30.216 281.186 30.1413 281.57 30.056C281.954 29.9707 282.295 29.864 282.594 29.736C282.935 29.4373 283.191 29.2133 283.362 29.064C283.533 28.9147 283.671 28.84 283.778 28.84C284.077 28.84 284.322 28.9787 284.514 29.256C284.706 29.5333 284.802 29.8853 284.802 30.312C284.802 30.8667 284.578 31.336 284.13 31.72C283.703 32.0827 283.17 32.3813 282.53 32.616C281.89 32.8293 281.197 32.9787 280.45 33.064C279.703 33.1707 279.031 33.224 278.434 33.224C277.602 33.224 276.77 33.128 275.938 32.936C275.127 32.744 274.391 32.392 273.73 31.88C273.069 31.368 272.525 30.664 272.098 29.768C271.693 28.8507 271.49 27.688 271.49 26.28ZM288.166 25.384C288.209 23.9333 288.241 22.4933 288.262 21.064C288.284 19.6133 288.326 18.1413 288.39 16.648C288.412 16.3067 288.497 15.9547 288.646 15.592C288.796 15.2293 289.062 15.048 289.446 15.048C289.66 15.048 289.862 15.1653 290.054 15.4C290.268 15.6133 290.374 15.9653 290.374 16.456L290.182 21.352V22.28C290.182 22.4507 290.182 22.6213 290.182 22.792C290.182 22.9413 290.193 23.0373 290.214 23.08C290.449 22.6747 290.737 22.28 291.078 21.896C291.42 21.512 291.729 21.1067 292.006 20.68C292.198 20.2747 292.38 19.9653 292.55 19.752C292.742 19.5173 292.988 19.3787 293.286 19.336C293.564 18.952 293.777 18.6533 293.926 18.44C294.097 18.2053 294.225 18.024 294.31 17.896C294.417 17.7467 294.513 17.6187 294.598 17.512C294.684 17.4053 294.801 17.2667 294.95 17.096C295.142 16.8613 295.302 16.6373 295.43 16.424C295.58 16.1893 295.729 15.976 295.878 15.784C296.028 15.592 296.198 15.4427 296.39 15.336C296.582 15.208 296.828 15.144 297.126 15.144C297.254 15.144 297.414 15.24 297.606 15.432C297.798 15.624 297.894 15.9653 297.894 16.456C297.894 17.0107 297.798 17.4693 297.606 17.832C297.414 18.1733 297.169 18.5147 296.87 18.856C296.572 19.176 296.22 19.528 295.814 19.912C295.409 20.2747 295.004 20.7547 294.598 21.352C294.876 21.8427 295.132 22.344 295.366 22.856C295.601 23.3467 295.836 23.8373 296.07 24.328L297.67 27.72C297.841 28.104 298.033 28.5307 298.246 29C298.481 29.448 298.694 29.9067 298.886 30.376C299.078 30.8453 299.238 31.2933 299.366 31.72C299.516 32.1253 299.59 32.4667 299.59 32.744C299.59 33.2347 299.505 33.6507 299.334 33.992C299.164 34.3547 298.844 34.536 298.374 34.536C298.225 34.536 298.076 34.44 297.926 34.248C297.798 34.056 297.66 33.8 297.51 33.48C297.382 33.1813 297.254 32.8507 297.126 32.488C296.998 32.1253 296.87 31.7733 296.742 31.432C296.657 31.1973 296.518 30.8667 296.326 30.44C296.156 29.992 295.953 29.5013 295.718 28.968C295.505 28.4133 295.26 27.848 294.982 27.272C294.726 26.6747 294.47 26.1093 294.214 25.576C293.98 25.0427 293.756 24.5733 293.542 24.168C293.329 23.7413 293.148 23.4213 292.998 23.208C292.785 23.4213 292.55 23.6773 292.294 23.976C292.038 24.2747 291.782 24.584 291.526 24.904C291.292 25.2027 291.057 25.512 290.822 25.832C290.609 26.1307 290.428 26.3867 290.278 26.6C290.257 27.4533 290.268 28.1467 290.31 28.68C290.353 29.192 290.385 29.6827 290.406 30.152L290.47 32.04C290.492 32.4667 290.374 32.7867 290.118 33C289.862 33.2347 289.617 33.352 289.382 33.352C289.084 33.352 288.838 33.2667 288.646 33.096C288.476 32.9253 288.337 32.7013 288.23 32.424C288.145 32.1253 288.092 31.784 288.07 31.4C288.049 31.016 288.038 30.6107 288.038 30.184L288.166 25.384Z" fill="black"/>
<path d="M205.438 146.16C205.278 146.16 205.145 146.087 205.038 145.94C204.931 145.78 204.845 145.587 204.778 145.36C204.725 145.12 204.685 144.873 204.658 144.62C204.645 144.353 204.638 144.12 204.638 143.92L204.778 136.36C204.778 136.027 204.818 135.76 204.898 135.56C204.991 135.347 205.105 135.187 205.238 135.08C205.371 134.973 205.511 134.9 205.658 134.86C205.818 134.82 205.971 134.8 206.118 134.8H207.458C208.018 134.8 208.625 134.94 209.278 135.22C209.945 135.5 210.558 135.9 211.118 136.42C211.691 136.94 212.165 137.573 212.538 138.32C212.925 139.053 213.118 139.873 213.118 140.78C213.118 141.687 212.925 142.473 212.538 143.14C212.151 143.807 211.671 144.36 211.098 144.8C210.538 145.227 209.925 145.547 209.258 145.76C208.605 145.96 208.005 146.06 207.458 146.06C207.285 146.06 207.045 146.053 206.738 146.04C206.431 146.027 206.171 146 205.958 145.96C205.838 146.013 205.725 146.06 205.618 146.1C205.525 146.14 205.465 146.16 205.438 146.16ZM206.178 144.2C206.205 144.227 206.265 144.247 206.358 144.26C206.465 144.26 206.578 144.26 206.698 144.26H207.778C208.178 144.26 208.611 144.2 209.078 144.08C209.545 143.96 209.971 143.773 210.358 143.52C210.758 143.267 211.085 142.94 211.338 142.54C211.605 142.127 211.738 141.627 211.738 141.04C211.738 140.4 211.611 139.807 211.358 139.26C211.118 138.7 210.805 138.213 210.418 137.8C210.031 137.387 209.591 137.06 209.098 136.82C208.618 136.58 208.131 136.46 207.638 136.46C207.558 136.46 207.451 136.46 207.318 136.46C207.185 136.46 207.045 136.467 206.898 136.48C206.751 136.48 206.605 136.487 206.458 136.5C206.325 136.513 206.211 136.527 206.118 136.54C206.065 136.82 206.025 137.12 205.998 137.44C205.985 137.76 205.978 138.067 205.978 138.36V139.92C205.978 140.267 205.978 140.633 205.978 141.02C205.991 141.407 206.005 141.793 206.018 142.18C206.031 142.553 206.051 142.92 206.078 143.28C206.105 143.627 206.138 143.933 206.178 144.2ZM215.15 140.86C215.15 140.753 215.13 140.647 215.09 140.54C215.064 140.433 215.05 140.313 215.05 140.18C215.05 140.127 215.057 140.053 215.07 139.96C215.097 139.867 215.13 139.767 215.17 139.66C215.157 139.393 215.144 138.953 215.13 138.34C215.13 137.727 215.13 137.067 215.13 136.36C215.13 136.187 215.13 136.007 215.13 135.82C215.144 135.62 215.17 135.44 215.21 135.28C215.264 135.12 215.337 134.987 215.43 134.88C215.524 134.773 215.664 134.72 215.85 134.72C216.05 134.72 216.237 134.747 216.41 134.8C216.597 134.853 216.797 134.88 217.01 134.88C217.304 134.88 217.644 134.88 218.03 134.88C218.417 134.867 218.81 134.86 219.21 134.86C219.624 134.86 220.024 134.86 220.41 134.86C220.797 134.847 221.137 134.84 221.43 134.84C221.83 134.84 222.104 134.88 222.25 134.96C222.41 135.04 222.49 135.273 222.49 135.66C222.49 135.887 222.43 136.113 222.31 136.34C222.19 136.553 222.044 136.66 221.87 136.66C220.977 136.66 220.21 136.66 219.57 136.66C218.944 136.647 218.41 136.64 217.97 136.64C217.544 136.627 217.204 136.62 216.95 136.62C216.697 136.607 216.497 136.6 216.35 136.6C216.35 136.747 216.344 136.94 216.33 137.18C216.33 137.42 216.33 137.673 216.33 137.94C216.33 138.193 216.324 138.44 216.31 138.68C216.31 138.92 216.31 139.12 216.31 139.28L219.75 139.24C219.937 139.24 220.097 139.313 220.23 139.46C220.364 139.593 220.43 139.827 220.43 140.16C220.43 140.213 220.417 140.293 220.39 140.4C220.377 140.493 220.344 140.593 220.29 140.7C220.25 140.793 220.19 140.88 220.11 140.96C220.03 141.027 219.937 141.06 219.83 141.06C219.324 141.06 218.89 141.06 218.53 141.06C218.17 141.06 217.864 141.06 217.61 141.06C217.37 141.047 217.17 141.04 217.01 141.04C216.864 141.04 216.744 141.04 216.65 141.04C216.477 141.04 216.37 141.047 216.33 141.06L216.39 144.02C217.19 144.02 218.004 144.047 218.83 144.1C219.657 144.14 220.51 144.16 221.39 144.16C221.657 144.16 221.824 144.273 221.89 144.5C221.97 144.727 222.01 144.973 222.01 145.24C222.01 145.613 221.91 145.867 221.71 146C221.51 146.133 221.284 146.2 221.03 146.2C220.777 146.2 220.55 146.187 220.35 146.16C220.15 146.147 219.937 146.127 219.71 146.1C219.484 146.087 219.21 146.067 218.89 146.04C218.57 146.027 218.164 146.02 217.67 146.02C217.39 146.02 217.104 146.033 216.81 146.06C216.517 146.1 216.204 146.12 215.87 146.12C215.644 146.12 215.45 146.013 215.29 145.8C215.144 145.573 215.077 145.287 215.09 144.94L215.15 140.86ZM223.532 145.38C223.532 145.153 223.559 144.94 223.612 144.74C223.679 144.527 223.759 144.333 223.852 144.16C223.959 143.867 224.072 143.533 224.192 143.16C224.312 142.787 224.459 142.36 224.632 141.88C224.619 141.84 224.612 141.793 224.612 141.74C224.612 141.687 224.612 141.647 224.612 141.62C224.612 141.353 224.646 141.133 224.712 140.96C224.779 140.773 224.919 140.613 225.132 140.48L226.872 136.4C226.952 136.24 227.039 136.06 227.132 135.86C227.226 135.66 227.326 135.48 227.432 135.32C227.539 135.147 227.652 135 227.772 134.88C227.892 134.76 228.019 134.7 228.152 134.7C228.526 134.7 228.866 134.913 229.172 135.34C229.479 135.753 229.759 136.28 230.012 136.92C230.279 137.56 230.519 138.267 230.732 139.04C230.946 139.813 231.139 140.553 231.312 141.26C231.499 141.953 231.666 142.567 231.812 143.1C231.972 143.633 232.126 143.987 232.272 144.16C232.366 144.28 232.446 144.38 232.512 144.46C232.579 144.527 232.632 144.6 232.672 144.68C232.712 144.747 232.739 144.833 232.752 144.94C232.779 145.033 232.792 145.16 232.792 145.32C232.792 145.533 232.759 145.7 232.692 145.82C232.626 145.927 232.546 146.007 232.452 146.06C232.372 146.127 232.279 146.167 232.172 146.18C232.079 146.193 231.999 146.2 231.932 146.2C231.799 146.2 231.672 146.127 231.552 145.98C231.432 145.82 231.319 145.633 231.212 145.42C231.119 145.207 231.032 144.98 230.952 144.74C230.886 144.5 230.832 144.293 230.792 144.12C230.686 143.747 230.592 143.44 230.512 143.2C230.446 142.96 230.372 142.773 230.292 142.64C230.226 142.507 230.139 142.413 230.032 142.36C229.939 142.307 229.806 142.28 229.632 142.28H226.272C226.179 142.28 226.099 142.287 226.032 142.3C225.979 142.313 225.926 142.353 225.872 142.42C225.832 142.473 225.792 142.553 225.752 142.66C225.712 142.767 225.659 142.913 225.592 143.1L224.972 144.88C224.946 145.147 224.899 145.36 224.832 145.52C224.766 145.68 224.686 145.807 224.592 145.9C224.512 145.98 224.432 146.033 224.352 146.06C224.272 146.1 224.219 146.12 224.192 146.12C223.979 146.12 223.812 146.073 223.692 145.98C223.586 145.873 223.532 145.673 223.532 145.38ZM226.552 140.42C226.939 140.433 227.286 140.447 227.592 140.46C227.899 140.46 228.226 140.46 228.572 140.46C228.732 140.46 228.899 140.46 229.072 140.46C229.246 140.46 229.432 140.453 229.632 140.44C229.539 140.173 229.419 139.867 229.272 139.52C229.139 139.16 228.986 138.8 228.812 138.44L228.072 136.86C228.006 136.9 227.906 137.06 227.772 137.34C227.639 137.62 227.492 137.947 227.332 138.32C227.186 138.693 227.039 139.073 226.892 139.46C226.746 139.847 226.632 140.167 226.552 140.42ZM234.99 145.4C234.99 145.04 235.004 144.693 235.03 144.36C235.057 144.027 235.104 143.567 235.17 142.98C235.17 142.033 235.144 141.093 235.09 140.16C235.05 139.213 235.03 138.267 235.03 137.32C235.03 136.413 235.064 135.773 235.13 135.4C235.197 135.013 235.37 134.82 235.65 134.82C235.824 134.82 235.984 134.927 236.13 135.14C236.29 135.353 236.37 135.6 236.37 135.88C236.37 136.013 236.37 136.127 236.37 136.22C236.37 136.313 236.364 136.413 236.35 136.52C236.35 136.613 236.344 136.72 236.33 136.84C236.317 136.96 236.304 137.1 236.29 137.26C236.29 137.687 236.29 138.127 236.29 138.58C236.29 139.02 236.297 139.46 236.31 139.9L236.41 144.04C236.997 144.067 237.557 144.093 238.09 144.12C238.624 144.147 239.197 144.16 239.81 144.16C239.837 144.16 239.87 144.16 239.91 144.16C239.95 144.16 240.004 144.153 240.07 144.14C240.15 144.127 240.25 144.113 240.37 144.1C240.504 144.073 240.677 144.047 240.89 144.02C241.064 144.033 241.21 144.147 241.33 144.36C241.45 144.56 241.51 144.793 241.51 145.06C241.51 145.18 241.484 145.3 241.43 145.42C241.39 145.54 241.33 145.653 241.25 145.76C241.184 145.853 241.104 145.933 241.01 146C240.93 146.067 240.85 146.1 240.77 146.1C240.344 146.1 239.897 146.08 239.43 146.04C238.964 146.013 238.464 146 237.93 146C237.717 146 237.497 146.013 237.27 146.04C237.057 146.08 236.824 146.1 236.57 146.1C236.544 146.1 236.504 146.1 236.45 146.1C236.41 146.1 236.344 146.093 236.25 146.08C236.17 146.08 236.05 146.073 235.89 146.06C235.744 146.047 235.55 146.027 235.31 146C235.217 146 235.137 145.973 235.07 145.92C235.017 145.853 234.99 145.68 234.99 145.4ZM243.334 140.86C243.334 140.753 243.314 140.647 243.274 140.54C243.247 140.433 243.234 140.313 243.234 140.18C243.234 140.127 243.241 140.053 243.254 139.96C243.281 139.867 243.314 139.767 243.354 139.66C243.341 139.393 243.327 138.953 243.314 138.34C243.314 137.727 243.314 137.067 243.314 136.36C243.314 136.187 243.314 136.007 243.314 135.82C243.327 135.62 243.354 135.44 243.394 135.28C243.447 135.12 243.521 134.987 243.614 134.88C243.707 134.773 243.847 134.72 244.034 134.72C244.234 134.72 244.421 134.747 244.594 134.8C244.781 134.853 244.981 134.88 245.194 134.88C245.487 134.88 245.827 134.88 246.214 134.88C246.601 134.867 246.994 134.86 247.394 134.86C247.807 134.86 248.207 134.86 248.594 134.86C248.981 134.847 249.321 134.84 249.614 134.84C250.014 134.84 250.287 134.88 250.434 134.96C250.594 135.04 250.674 135.273 250.674 135.66C250.674 135.887 250.614 136.113 250.494 136.34C250.374 136.553 250.227 136.66 250.054 136.66C249.161 136.66 248.394 136.66 247.754 136.66C247.127 136.647 246.594 136.64 246.154 136.64C245.727 136.627 245.387 136.62 245.134 136.62C244.881 136.607 244.681 136.6 244.534 136.6C244.534 136.747 244.527 136.94 244.514 137.18C244.514 137.42 244.514 137.673 244.514 137.94C244.514 138.193 244.507 138.44 244.494 138.68C244.494 138.92 244.494 139.12 244.494 139.28L247.934 139.24C248.121 139.24 248.281 139.313 248.414 139.46C248.547 139.593 248.614 139.827 248.614 140.16C248.614 140.213 248.601 140.293 248.574 140.4C248.561 140.493 248.527 140.593 248.474 140.7C248.434 140.793 248.374 140.88 248.294 140.96C248.214 141.027 248.121 141.06 248.014 141.06C247.507 141.06 247.074 141.06 246.714 141.06C246.354 141.06 246.047 141.06 245.794 141.06C245.554 141.047 245.354 141.04 245.194 141.04C245.047 141.04 244.927 141.04 244.834 141.04C244.661 141.04 244.554 141.047 244.514 141.06L244.574 144.02C245.374 144.02 246.187 144.047 247.014 144.1C247.841 144.14 248.694 144.16 249.574 144.16C249.841 144.16 250.007 144.273 250.074 144.5C250.154 144.727 250.194 144.973 250.194 145.24C250.194 145.613 250.094 145.867 249.894 146C249.694 146.133 249.467 146.2 249.214 146.2C248.961 146.2 248.734 146.187 248.534 146.16C248.334 146.147 248.121 146.127 247.894 146.1C247.667 146.087 247.394 146.067 247.074 146.04C246.754 146.027 246.347 146.02 245.854 146.02C245.574 146.02 245.287 146.033 244.994 146.06C244.701 146.1 244.387 146.12 244.054 146.12C243.827 146.12 243.634 146.013 243.474 145.8C243.327 145.573 243.261 145.287 243.274 144.94L243.334 140.86ZM252.516 145.06C252.516 144.927 252.529 144.787 252.556 144.64C252.583 144.48 252.596 144.333 252.596 144.2C252.596 143.92 252.543 143.333 252.436 142.44C252.343 141.547 252.296 140.433 252.296 139.1C252.296 138.887 252.296 138.653 252.296 138.4C252.309 138.133 252.336 137.88 252.376 137.64C252.416 137.387 252.469 137.153 252.536 136.94C252.603 136.727 252.696 136.553 252.816 136.42C253.323 135.94 253.849 135.56 254.396 135.28C254.956 134.987 255.543 134.84 256.156 134.84C256.463 134.84 256.763 134.893 257.056 135C257.363 135.093 257.636 135.247 257.876 135.46C258.116 135.673 258.309 135.94 258.456 136.26C258.603 136.58 258.676 136.967 258.676 137.42C258.676 137.98 258.549 138.433 258.296 138.78C258.056 139.127 257.783 139.393 257.476 139.58C257.969 139.753 258.363 140 258.656 140.32C258.963 140.627 259.196 140.993 259.356 141.42C259.516 141.833 259.616 142.293 259.656 142.8C259.709 143.307 259.736 143.847 259.736 144.42C259.736 144.687 259.723 144.953 259.696 145.22C259.683 145.473 259.649 145.7 259.596 145.9C259.543 146.1 259.463 146.26 259.356 146.38C259.263 146.5 259.136 146.56 258.976 146.56C258.723 146.56 258.556 146.447 258.476 146.22C258.409 146.007 258.376 145.747 258.376 145.44V145.22C258.376 144.993 258.376 144.767 258.376 144.54C258.389 144.3 258.396 144.067 258.396 143.84C258.396 143.573 258.389 143.313 258.376 143.06C258.363 142.793 258.329 142.527 258.276 142.26C258.156 142.02 257.983 141.813 257.756 141.64C257.543 141.467 257.296 141.327 257.016 141.22C256.749 141.113 256.469 141.04 256.176 141C255.883 140.947 255.609 140.92 255.356 140.92C255.289 140.92 255.189 140.933 255.056 140.96C254.923 140.987 254.776 141.027 254.616 141.08C254.456 141.12 254.289 141.167 254.116 141.22C253.956 141.273 253.816 141.327 253.696 141.38C253.696 141.647 253.709 141.953 253.736 142.3C253.763 142.647 253.789 143 253.816 143.36C253.856 143.707 253.896 144.047 253.936 144.38C253.976 144.7 254.023 144.973 254.076 145.2C254.076 145.493 253.983 145.727 253.796 145.9C253.623 146.06 253.423 146.14 253.196 146.14C253.009 146.14 252.849 146.027 252.716 145.8C252.583 145.573 252.516 145.327 252.516 145.06ZM253.596 139.44C253.929 139.373 254.316 139.28 254.756 139.16C255.209 139.027 255.629 138.88 256.016 138.72C256.403 138.547 256.729 138.367 256.996 138.18C257.276 137.993 257.416 137.807 257.416 137.62C257.416 137.18 257.269 136.887 256.976 136.74C256.696 136.58 256.396 136.5 256.076 136.5C255.836 136.5 255.569 136.533 255.276 136.6C254.996 136.667 254.729 136.767 254.476 136.9C254.223 137.02 254.003 137.173 253.816 137.36C253.643 137.533 253.556 137.727 253.556 137.94C253.556 138.047 253.549 138.147 253.536 138.24C253.536 138.333 253.536 138.427 253.536 138.52C253.536 138.853 253.556 139.16 253.596 139.44Z" fill="black"/>
<path d="M220.151 273.32C220.165 272.987 220.251 272.573 220.411 272.08C220.585 271.573 220.791 271.1 221.031 270.66C221.085 270.567 221.145 270.453 221.211 270.32C221.291 270.173 221.331 270.093 221.331 270.08C221.331 270.053 221.318 270.007 221.291 269.94C221.278 269.86 221.258 269.793 221.231 269.74C221.165 269.647 221.051 269.46 220.891 269.18C220.731 268.9 220.538 268.567 220.311 268.18C220.098 267.793 219.871 267.373 219.631 266.92C219.405 266.467 219.191 266.033 218.991 265.62C218.805 265.193 218.645 264.807 218.511 264.46C218.391 264.1 218.331 263.82 218.331 263.62C218.331 263.42 218.378 263.24 218.471 263.08C218.578 262.92 218.705 262.84 218.851 262.84C218.958 262.84 219.045 262.873 219.111 262.94C219.191 262.993 219.285 263.113 219.391 263.3C219.445 263.393 219.538 263.567 219.671 263.82C219.805 264.073 219.958 264.373 220.131 264.72C220.305 265.053 220.491 265.413 220.691 265.8C220.891 266.173 221.085 266.54 221.271 266.9C221.458 267.26 221.631 267.593 221.791 267.9C221.951 268.193 222.085 268.42 222.191 268.58L222.991 266.94C223.231 266.46 223.458 265.973 223.671 265.48C223.898 264.973 224.118 264.513 224.331 264.1C224.558 263.687 224.778 263.353 224.991 263.1C225.205 262.833 225.418 262.7 225.631 262.7C225.778 262.7 225.885 262.78 225.951 262.94C226.031 263.087 226.071 263.26 226.071 263.46C226.071 263.553 226.025 263.673 225.931 263.82C225.838 263.967 225.698 264.26 225.511 264.7C225.378 265.007 225.205 265.387 224.991 265.84C224.778 266.293 224.545 266.787 224.291 267.32C224.038 267.84 223.771 268.387 223.491 268.96C223.225 269.533 222.958 270.093 222.691 270.64C222.438 271.187 222.205 271.707 221.991 272.2C221.778 272.68 221.605 273.1 221.471 273.46C221.458 273.513 221.431 273.587 221.391 273.68C221.351 273.773 221.305 273.867 221.251 273.96C221.211 274.04 221.165 274.107 221.111 274.16C221.058 274.227 221.005 274.26 220.951 274.26C220.898 274.26 220.825 274.233 220.731 274.18C220.651 274.127 220.565 274.06 220.471 273.98C220.391 273.887 220.318 273.787 220.251 273.68C220.185 273.56 220.151 273.44 220.151 273.32ZM226.576 268.58C226.589 267.527 226.736 266.633 227.016 265.9C227.309 265.167 227.689 264.573 228.156 264.12C228.636 263.653 229.169 263.313 229.756 263.1C230.356 262.887 230.962 262.78 231.576 262.78C232.989 262.78 234.082 263.287 234.856 264.3C235.629 265.313 236.016 266.713 236.016 268.5C236.016 269.34 235.882 270.113 235.616 270.82C235.349 271.513 234.996 272.113 234.556 272.62C234.116 273.113 233.609 273.5 233.036 273.78C232.476 274.06 231.889 274.2 231.276 274.2C230.636 274.2 230.029 274.033 229.456 273.7C228.896 273.353 228.402 272.913 227.976 272.38C227.549 271.833 227.209 271.227 226.956 270.56C226.702 269.893 226.576 269.233 226.576 268.58ZM231.196 272.44C231.662 272.44 232.109 272.36 232.536 272.2C232.976 272.027 233.362 271.78 233.696 271.46C234.029 271.127 234.296 270.72 234.496 270.24C234.696 269.76 234.796 269.2 234.796 268.56C234.796 267.933 234.716 267.373 234.556 266.88C234.409 266.373 234.196 265.947 233.916 265.6C233.649 265.24 233.322 264.967 232.936 264.78C232.562 264.593 232.156 264.5 231.716 264.5C231.222 264.5 230.742 264.58 230.276 264.74C229.809 264.887 229.389 265.12 229.016 265.44C228.656 265.76 228.362 266.16 228.136 266.64C227.922 267.12 227.816 267.68 227.816 268.32C227.816 268.813 227.909 269.307 228.096 269.8C228.282 270.293 228.529 270.733 228.836 271.12C229.156 271.507 229.516 271.827 229.916 272.08C230.329 272.32 230.756 272.44 231.196 272.44ZM241.28 274.24C240.693 274.24 240.213 274.06 239.84 273.7C239.467 273.34 239.173 272.887 238.96 272.34C238.747 271.78 238.6 271.16 238.52 270.48C238.44 269.8 238.4 269.14 238.4 268.5V268.22C238.4 267.953 238.4 267.64 238.4 267.28C238.413 266.907 238.433 266.52 238.46 266.12C238.487 265.72 238.52 265.327 238.56 264.94C238.613 264.54 238.68 264.187 238.76 263.88C238.853 263.573 238.96 263.327 239.08 263.14C239.213 262.94 239.367 262.84 239.54 262.84C239.727 262.84 239.853 262.92 239.92 263.08C240 263.227 240.04 263.413 240.04 263.64C240.04 263.933 240.02 264.28 239.98 264.68C239.953 265.08 239.913 265.493 239.86 265.92C239.82 266.333 239.78 266.74 239.74 267.14C239.713 267.54 239.7 267.88 239.7 268.16C239.7 268.64 239.713 269.133 239.74 269.64C239.78 270.147 239.86 270.613 239.98 271.04C240.113 271.467 240.3 271.82 240.54 272.1C240.78 272.367 241.1 272.5 241.5 272.5C242.18 272.5 242.733 272.32 243.16 271.96C243.6 271.6 243.84 271.087 243.88 270.42L244.16 265.8C244.213 264.653 244.32 263.853 244.48 263.4C244.653 262.933 244.893 262.7 245.2 262.7C245.347 262.7 245.467 262.807 245.56 263.02C245.653 263.22 245.7 263.48 245.7 263.8C245.7 263.827 245.693 263.853 245.68 263.88C245.68 263.893 245.68 263.913 245.68 263.94L245.64 264.34C245.573 264.62 245.513 264.98 245.46 265.42C245.407 265.86 245.36 266.347 245.32 266.88C245.28 267.4 245.247 267.947 245.22 268.52C245.207 269.093 245.2 269.653 245.2 270.2C245.2 270.787 245.227 271.36 245.28 271.92C245.347 272.467 245.38 272.953 245.38 273.38C245.38 273.607 245.307 273.787 245.16 273.92C245.027 274.053 244.84 274.12 244.6 274.12C244.387 274.12 244.227 274.027 244.12 273.84C244.013 273.64 243.953 273.287 243.94 272.78C243.767 273.033 243.567 273.253 243.34 273.44C243.113 273.613 242.88 273.76 242.64 273.88C242.4 274 242.16 274.087 241.92 274.14C241.68 274.207 241.467 274.24 241.28 274.24Z" fill="black"/>
<rect x="169" y="49" width="58" height="73" rx="5" fill="#EDEDED" stroke="black" stroke-width="2"/>
<rect x="239" y="49" width="58" height="73" rx="5" fill="white" stroke="black" stroke-width="2"/>
<rect x="153.248" y="159.248" width="72.5044" height="90.9254" rx="6.23903" fill="white" stroke="black" stroke-width="2.49561"/>
<rect x="240.248" y="159.248" width="72.5044" height="90.9254" rx="6.23903" fill="white" stroke="black" stroke-width="2.49561"/>
<path d="M280.812 211.188C280.108 211.188 279.413 211.033 278.776 210.735C278.138 210.437 277.573 210.003 277.122 209.464C277.735 210.854 278.463 212.191 279.297 213.461C279.615 213.942 279.269 214.625 278.695 214.625H273.305C272.729 214.625 272.383 213.942 272.702 213.461C273.537 212.191 274.264 210.854 274.878 209.464C274.353 210.091 273.677 210.574 272.913 210.867C272.149 211.161 271.324 211.255 270.514 211.14C269.704 211.026 268.936 210.707 268.284 210.214C267.632 209.72 267.116 209.069 266.785 208.32C266.454 207.572 266.32 206.752 266.394 205.938C266.469 205.123 266.749 204.341 267.21 203.665C267.671 202.989 268.296 202.442 269.027 202.074C269.758 201.707 270.571 201.533 271.388 201.567C271.174 200.849 271.13 200.09 271.261 199.352C271.392 198.614 271.693 197.917 272.141 197.316C272.589 196.715 273.171 196.226 273.841 195.89C274.511 195.554 275.25 195.379 276 195.379C276.749 195.379 277.488 195.554 278.158 195.89C278.828 196.226 279.41 196.715 279.858 197.316C280.306 197.917 280.608 198.614 280.738 199.352C280.869 200.09 280.826 200.849 280.611 201.567C281.251 201.54 281.89 201.642 282.49 201.865C283.09 202.089 283.639 202.43 284.106 202.868C284.573 203.306 284.947 203.834 285.207 204.419C285.468 205.004 285.609 205.635 285.622 206.275C285.635 206.915 285.521 207.551 285.285 208.147C285.05 208.742 284.697 209.284 284.249 209.742C283.801 210.2 283.267 210.563 282.677 210.811C282.086 211.06 281.452 211.188 280.812 211.188Z" fill="black"/>
<g clip-path="url(#clip0_3_84)">
<path d="M258.625 194.375C258.241 194.375 257.862 194.291 257.514 194.128C257.166 193.966 256.858 193.729 256.612 193.434C256.947 194.193 257.343 194.922 257.798 195.615C257.972 195.877 257.783 196.25 257.47 196.25H254.53C254.216 196.25 254.027 195.877 254.201 195.615C254.656 194.922 255.053 194.193 255.388 193.434C255.102 193.777 254.733 194.04 254.316 194.2C253.9 194.36 253.449 194.412 253.008 194.349C252.566 194.287 252.147 194.113 251.791 193.844C251.435 193.574 251.154 193.219 250.974 192.811C250.793 192.403 250.72 191.956 250.761 191.511C250.801 191.067 250.954 190.64 251.206 190.272C251.457 189.903 251.798 189.604 252.197 189.404C252.595 189.204 253.039 189.109 253.484 189.127C253.368 188.735 253.344 188.322 253.415 187.919C253.486 187.517 253.651 187.136 253.895 186.808C254.139 186.48 254.457 186.214 254.822 186.031C255.188 185.847 255.591 185.752 256 185.752C256.409 185.752 256.812 185.847 257.177 186.031C257.543 186.214 257.86 186.48 258.105 186.808C258.349 187.136 258.513 187.517 258.585 187.919C258.656 188.322 258.632 188.735 258.515 189.127C258.864 189.113 259.213 189.168 259.54 189.29C259.867 189.412 260.167 189.598 260.422 189.837C260.676 190.076 260.88 190.364 261.022 190.683C261.164 191.002 261.241 191.346 261.249 191.695C261.256 192.044 261.193 192.392 261.065 192.716C260.936 193.041 260.744 193.337 260.5 193.586C260.255 193.836 259.964 194.034 259.642 194.17C259.32 194.305 258.974 194.375 258.625 194.375Z" fill="black"/>
</g>
<rect x="248.657" y="73" width="5.21337" height="5.21337" rx="1" transform="rotate(45 248.657 73)" fill="black"/>
<rect x="267.687" y="74.0596" width="16.4428" height="16.4428" rx="2" transform="rotate(45 267.687 74.0596)" fill="black"/>
<mask id="mask0_3_84" style="mask-type:alpha" maskUnits="userSpaceOnUse" x="176" y="55" width="44" height="61">
<rect x="176" y="55" width="44" height="61" rx="4" fill="#AFAFAF"/>
</mask>
<g mask="url(#mask0_3_84)">
<rect x="176" y="55" width="44" height="61" rx="4" fill="#AFAFAF"/>
<rect x="174.313" y="52" width="8" height="8" transform="rotate(45 174.313 52)" fill="#858585"/>
<rect x="174.313" y="63" width="8" height="8" transform="rotate(45 174.313 63)" fill="#858585"/>
<rect x="174.313" y="74" width="8" height="8" transform="rotate(45 174.313 74)" fill="#858585"/>
<rect x="174.313" y="85" width="8" height="8" transform="rotate(45 174.313 85)" fill="#858585"/>
<rect x="174.313" y="96" width="8" height="8" transform="rotate(45 174.313 96)" fill="#858585"/>
<rect x="174.313" y="107" width="8" height="8" transform="rotate(45 174.313 107)" fill="#858585"/>
<rect x="185.97" y="52" width="8" height="8" transform="rotate(45 185.97 52)" fill="#858585"/>
<rect x="185.97" y="63" width="8" height="8" transform="rotate(45 185.97 63)" fill="#858585"/>
<rect x="185.97" y="74" width="8" height="8" transform="rotate(45 185.97 74)" fill="#858585"/>
<rect x="185.97" y="85" width="8" height="8" transform="rotate(45 185.97 85)" fill="#858585"/>
<rect x="185.97" y="96" width="8" height="8" transform="rotate(45 185.97 96)" fill="#858585"/>
<rect x="185.97" y="107" width="8" height="8" transform="rotate(45 185.97 107)" fill="#858585"/>
<rect x="197.627" y="52" width="8" height="8" transform="rotate(45 197.627 52)" fill="#858585"/>
<rect x="197.627" y="63" width="8" height="8" transform="rotate(45 197.627 63)" fill="#858585"/>
<rect x="197.627" y="74" width="8" height="8" transform="rotate(45 197.627 74)" fill="#858585"/>
<rect x="197.627" y="85" width="8" height="8" transform="rotate(45 197.627 85)" fill="#858585"/>
<rect x="197.627" y="96" width="8" height="8" transform="rotate(45 197.627 96)" fill="#858585"/>
<rect x="197.627" y="107" width="8" height="8" transform="rotate(45 197.627 107)" fill="#858585"/>
<rect x="209.284" y="52" width="8" height="8" transform="rotate(45 209.284 52)" fill="#858585"/>
<rect x="209.284" y="63" width="8" height="8" transform="rotate(45 209.284 63)" fill="#858585"/>
<rect x="209.284" y="74" width="8" height="8" transform="rotate(45 209.284 74)" fill="#858585"/>
<rect x="209.284" y="85" width="8" height="8" transform="rotate(45 209.284 85)" fill="#858585"/>
<rect x="209.284" y="96" width="8" height="8" transform="rotate(45 209.284 96)" fill="#858585"/>
<rect x="209.284" y="107" width="8" height="8" transform="rotate(45 209.284 107)" fill="#858585"/>
<rect x="220.94" y="52" width="8" height="8" transform="rotate(45 220.94 52)" fill="#858585"/>
<rect x="220.94" y="63" width="8" height="8" transform="rotate(45 220.94 63)" fill="#858585"/>
<rect x="220.94" y="74" width="8" height="8" transform="rotate(45 220.94 74)" fill="#858585"/>
<rect x="220.94" y="85" width="8" height="8" transform="rotate(45 220.94 85)" fill="#858585"/>
<rect x="220.94" y="96" width="8" height="8" transform="rotate(45 220.94 96)" fill="#858585"/>
<rect x="220.94" y="107" width="8" height="8" transform="rotate(45 220.94 107)" fill="#858585"/>
</g>
<path d="M249.013 71.2C248.013 71.2 247.146 71.0267 246.413 70.68C245.693 70.3333 245.126 69.8467 244.713 69.22C244.313 68.5933 244.113 67.8867 244.113 67.1C244.113 66.4467 244.24 65.8533 244.493 65.32C244.746 64.7867 245.106 64.34 245.573 63.98C246.053 63.6067 246.613 63.3467 247.253 63.2L247.193 63.86C246.66 63.7267 246.206 63.4933 245.833 63.16C245.46 62.8267 245.18 62.4333 244.993 61.98C244.806 61.5133 244.713 61.0333 244.713 60.54C244.713 59.78 244.893 59.1133 245.253 58.54C245.626 57.9667 246.133 57.52 246.773 57.2C247.426 56.88 248.173 56.72 249.013 56.72C249.853 56.72 250.593 56.88 251.233 57.2C251.873 57.52 252.373 57.9667 252.733 58.54C253.106 59.1133 253.293 59.78 253.293 60.54C253.293 61.0333 253.2 61.5133 253.013 61.98C252.826 62.4333 252.546 62.8267 252.173 63.16C251.813 63.4933 251.36 63.7267 250.813 63.86L250.753 63.2C251.406 63.3467 251.966 63.6067 252.433 63.98C252.9 64.34 253.26 64.7867 253.513 65.32C253.766 65.8533 253.893 66.4467 253.893 67.1C253.893 67.8867 253.693 68.5933 253.293 69.22C252.893 69.8467 252.326 70.3333 251.593 70.68C250.86 71.0267 250 71.2 249.013 71.2ZM249.013 68.82C249.453 68.82 249.846 68.7333 250.193 68.56C250.54 68.3733 250.806 68.12 250.993 67.8C251.193 67.48 251.293 67.12 251.293 66.72C251.293 66.3067 251.193 65.9467 250.993 65.64C250.806 65.32 250.54 65.0733 250.193 64.9C249.846 64.7133 249.453 64.62 249.013 64.62C248.56 64.62 248.16 64.7133 247.813 64.9C247.48 65.0733 247.213 65.32 247.013 65.64C246.813 65.9467 246.713 66.3067 246.713 66.72C246.713 67.12 246.813 67.48 247.013 67.8C247.213 68.12 247.48 68.3733 247.813 68.56C248.16 68.7333 248.56 68.82 249.013 68.82ZM249.013 62.56C249.533 62.56 249.96 62.3933 250.293 62.06C250.626 61.7267 250.793 61.3 250.793 60.78C250.793 60.2467 250.626 59.8133 250.293 59.48C249.96 59.1467 249.533 58.98 249.013 58.98C248.493 58.98 248.06 59.1467 247.713 59.48C247.38 59.8133 247.213 60.24 247.213 60.76C247.213 61.2933 247.38 61.7267 247.713 62.06C248.06 62.3933 248.493 62.56 249.013 62.56Z" fill="black"/>
<path d="M162.447 181V166.94H165.127V181H162.447ZM159.687 169.3V166.94H164.927V169.3H159.687ZM173.21 181.2C172.104 181.2 171.104 180.9 170.21 180.3C169.317 179.7 168.604 178.853 168.07 177.76C167.55 176.667 167.29 175.393 167.29 173.94C167.29 172.487 167.55 171.22 168.07 170.14C168.59 169.06 169.29 168.22 170.17 167.62C171.064 167.02 172.057 166.72 173.15 166.72C174.27 166.72 175.27 167.02 176.15 167.62C177.044 168.22 177.75 169.067 178.27 170.16C178.79 171.24 179.05 172.513 179.05 173.98C179.05 175.433 178.79 176.707 178.27 177.8C177.75 178.88 177.05 179.72 176.17 180.32C175.29 180.907 174.304 181.2 173.21 181.2ZM173.17 178.74C173.81 178.74 174.364 178.56 174.83 178.2C175.297 177.84 175.657 177.307 175.91 176.6C176.177 175.893 176.31 175.013 176.31 173.96C176.31 172.907 176.177 172.027 175.91 171.32C175.657 170.613 175.29 170.087 174.81 169.74C174.344 169.38 173.79 169.2 173.15 169.2C172.524 169.2 171.977 169.38 171.51 169.74C171.044 170.087 170.677 170.613 170.41 171.32C170.157 172.013 170.03 172.887 170.03 173.94C170.03 175.007 170.157 175.893 170.41 176.6C170.677 177.307 171.044 177.84 171.51 178.2C171.977 178.56 172.53 178.74 173.17 178.74Z" fill="black"/>
<path d="M215.553 230V244.06H212.873V230H215.553ZM218.313 241.7V244.06H213.073V241.7H218.313ZM204.79 229.8C205.896 229.8 206.896 230.1 207.79 230.7C208.683 231.3 209.396 232.147 209.93 233.24C210.45 234.333 210.71 235.607 210.71 237.06C210.71 238.513 210.45 239.78 209.93 240.86C209.41 241.94 208.71 242.78 207.83 243.38C206.936 243.98 205.943 244.28 204.85 244.28C203.73 244.28 202.73 243.98 201.85 243.38C200.956 242.78 200.25 241.933 199.73 240.84C199.21 239.76 198.95 238.487 198.95 237.02C198.95 235.567 199.21 234.293 199.73 233.2C200.25 232.12 200.95 231.28 201.83 230.68C202.71 230.093 203.696 229.8 204.79 229.8ZM204.83 232.26C204.19 232.26 203.636 232.44 203.17 232.8C202.703 233.16 202.343 233.693 202.09 234.4C201.823 235.107 201.69 235.987 201.69 237.04C201.69 238.093 201.823 238.973 202.09 239.68C202.343 240.387 202.71 240.913 203.19 241.26C203.656 241.62 204.21 241.8 204.85 241.8C205.476 241.8 206.023 241.62 206.49 241.26C206.956 240.913 207.323 240.387 207.59 239.68C207.843 238.987 207.97 238.113 207.97 237.06C207.97 235.993 207.843 235.107 207.59 234.4C207.323 233.693 206.956 233.16 206.49 232.8C206.023 232.44 205.47 232.26 204.83 232.26Z" fill="black"/>
<path d="M249.752 181L255.412 166.94H257.632L263.272 181H260.372L256.012 169.46H257.012L252.592 181H249.752ZM252.752 178.38V176.1H260.312V178.38H252.752Z" fill="black"/>
<path d="M170.184 197.246C169.723 197.797 169.103 198.193 168.409 198.379C167.715 198.566 166.981 198.535 166.305 198.289C165.63 198.044 165.046 197.597 164.634 197.008C164.221 196.42 164 195.719 164 195C164 193.398 165.14 192.367 166.66 190.992C167.986 189.792 169.602 188.33 171 186C172.398 188.33 174.014 189.792 175.34 190.992C176.86 192.367 178 193.398 178 195C178 195.719 177.779 196.42 177.366 197.008C176.954 197.597 176.37 198.044 175.695 198.289C175.019 198.535 174.285 198.566 173.591 198.379C172.897 198.193 172.277 197.797 171.816 197.246C172.262 198.257 172.791 199.229 173.398 200.153C173.629 200.503 173.378 201 172.96 201H169.04C168.621 201 168.37 200.503 168.602 200.153C169.209 199.229 169.738 198.257 170.184 197.246Z" fill="black"/>
<path d="M206.184 180.246C205.723 180.797 205.103 181.193 204.409 181.379C203.715 181.566 202.981 181.535 202.305 181.289C201.63 181.044 201.046 180.597 200.634 180.008C200.221 179.42 200 178.719 200 178C200 176.398 201.14 175.367 202.66 173.992C203.986 172.792 205.602 171.33 207 169C208.398 171.33 210.014 172.792 211.34 173.992C212.86 175.367 214 176.398 214 178C214 178.719 213.779 179.42 213.366 180.008C212.954 180.597 212.37 181.044 211.695 181.289C211.019 181.535 210.285 181.566 209.591 181.379C208.897 181.193 208.277 180.797 207.816 180.246C208.262 181.257 208.791 182.229 209.398 183.153C209.629 183.503 209.378 184 208.96 184H205.04C204.621 184 204.37 183.503 204.602 183.153C205.209 182.229 205.738 181.257 206.184 180.246Z" fill="black"/>
<path d="M206.184 201.246C205.723 201.797 205.103 202.193 204.409 202.379C203.715 202.566 202.981 202.535 202.305 202.289C201.63 202.044 201.046 201.597 200.634 201.008C200.221 200.42 200 199.719 200 199C200 197.398 201.14 196.367 202.66 194.992C203.986 193.792 205.602 192.33 207 190C208.398 192.33 210.014 193.792 211.34 194.992C212.86 196.367 214 197.398 214 199C214 199.719 213.779 200.42 213.366 201.008C212.954 201.597 212.37 202.044 211.695 202.289C211.019 202.535 210.285 202.566 209.591 202.379C208.897 202.193 208.277 201.797 207.816 201.246C208.262 202.257 208.791 203.229 209.398 204.153C209.629 204.503 209.378 205 208.96 205H205.04C204.621 205 204.37 204.503 204.602 204.153C205.209 203.229 205.738 202.257 206.184 201.246Z" fill="black"/>
<path d="M206.184 215.754C205.723 215.203 205.103 214.807 204.409 214.621C203.715 214.434 202.981 214.465 202.305 214.711C201.63 214.956 201.046 215.403 200.634 215.992C200.221 216.58 200 217.281 200 218C200 219.602 201.14 220.633 202.66 222.008C203.986 223.208 205.602 224.67 207 227C208.398 224.67 210.014 223.208 211.34 222.008C212.86 220.633 214 219.602 214 218C214 217.281 213.779 216.58 213.366 215.992C212.954 215.403 212.37 214.956 211.695 214.711C211.019 214.465 210.285 214.434 209.591 214.621C208.897 214.807 208.277 215.203 207.816 215.754C208.262 214.743 208.791 213.771 209.398 212.847C209.629 212.497 209.378 212 208.96 212H205.04C204.621 212 204.37 212.497 204.602 212.847C205.209 213.771 205.738 214.743 206.184 215.754Z" fill="black"/>
<path d="M188.184 185.246C187.723 185.797 187.103 186.193 186.409 186.379C185.715 186.566 184.981 186.535 184.305 186.289C183.63 186.044 183.046 185.597 182.634 185.008C182.221 184.42 182 183.719 182 183C182 181.398 183.14 180.367 184.66 178.992C185.986 177.792 187.602 176.33 189 174C190.398 176.33 192.014 177.792 193.34 178.992C194.86 180.367 196 181.398 196 183C196 183.719 195.779 184.42 195.366 185.008C194.954 185.597 194.37 186.044 193.695 186.289C193.019 186.535 192.285 186.566 191.591 186.379C190.897 186.193 190.277 185.797 189.816 185.246C190.262 186.257 190.791 187.229 191.398 188.153C191.629 188.503 191.378 189 190.96 189H187.04C186.621 189 186.37 188.503 186.602 188.153C187.209 187.229 187.738 186.257 188.184 185.246Z" fill="black"/>
<path d="M188.184 222.754C187.723 222.203 187.103 221.807 186.409 221.621C185.715 221.434 184.981 221.465 184.305 221.711C183.63 221.956 183.046 222.403 182.634 222.992C182.221 223.58 182 224.281 182 225C182 226.602 183.14 227.633 184.66 229.008C185.986 230.208 187.602 231.67 189 234C190.398 231.67 192.014 230.208 193.34 229.008C194.86 227.633 196 226.602 196 225C196 224.281 195.779 223.58 195.366 222.992C194.954 222.403 194.37 221.956 193.695 221.711C193.019 221.465 192.285 221.434 191.591 221.621C190.897 221.807 190.277 222.203 189.816 222.754C190.262 221.743 190.791 220.771 191.398 219.847C191.629 219.497 191.378 219 190.96 219H187.04C186.621 219 186.37 219.497 186.602 219.847C187.209 220.771 187.738 221.743 188.184 222.754Z" fill="black"/>
<path d="M170.184 216.246C169.723 216.797 169.103 217.193 168.409 217.379C167.715 217.566 166.981 217.535 166.305 217.289C165.63 217.044 165.046 216.597 164.634 216.008C164.221 215.42 164 214.719 164 214C164 212.398 165.14 211.367 166.66 209.992C167.986 208.792 169.602 207.33 171 205C172.398 207.33 174.014 208.792 175.34 209.992C176.86 211.367 178 212.398 178 214C178 214.719 177.779 215.42 177.366 216.008C176.954 216.597 176.37 217.044 175.695 217.289C175.019 217.535 174.285 217.566 173.591 217.379C172.897 217.193 172.277 216.797 171.816 216.246C172.262 217.257 172.791 218.229 173.398 219.153C173.629 219.503 173.378 220 172.96 220H169.04C168.621 220 168.37 219.503 168.602 219.153C169.209 218.229 169.738 217.257 170.184 216.246Z" fill="black"/>
<path d="M170.184 228.754C169.723 228.203 169.103 227.807 168.409 227.621C167.715 227.434 166.981 227.465 166.305 227.711C165.63 227.956 165.046 228.403 164.634 228.992C164.221 229.58 164 230.281 164 231C164 232.602 165.14 233.633 166.66 235.008C167.986 236.208 169.602 237.67 171 240C172.398 237.67 174.014 236.208 175.34 235.008C176.86 233.633 178 232.602 178 231C178 230.281 177.779 229.58 177.366 228.992C176.954 228.403 176.37 227.956 175.695 227.711C175.019 227.465 174.285 227.434 173.591 227.621C172.897 227.807 172.277 228.203 171.816 228.754C172.262 227.743 172.791 226.771 173.398 225.847C173.629 225.497 173.378 225 172.96 225H169.04C168.621 225 168.37 225.497 168.602 225.847C169.209 226.771 169.738 227.743 170.184 228.754Z" fill="black"/>
<defs>
<clipPath id="clip0_3_84">
<rect width="12" height="12" fill="white" transform="translate(250 185)"/>
</clipPath>
</defs>
</svg>
