<svg xmlns="http://www.w3.org/2000/svg" xmlns:xlink="http://www.w3.org/1999/xlink" contentStyleType="text/css" data-diagram-type="CLASS" height="671.875px" preserveAspectRatio="none" style="width:875px;height:671px;background:#FFFFFF;" version="1.1" viewBox="0 0 875 671" width="875px" zoomAndPan="magnify"><defs/><g><!--class Game--><g class="entity" data-entity="Game" data-source-line="6" data-uid="ent0002" id="entity_Game"><rect fill="#FFFFFF" height="608.3496" rx="7.8125" ry="7.8125" style="stroke:#181818;stroke-width:1.5625;" width="809.8114" x="21.875" y="21.875"/><ellipse cx="348.3765" cy="71.875" fill="#C2C2C2" rx="34.375" ry="34.375" style="stroke:#181818;stroke-width:3.125;"/><path d="M357.6538,89.502 Q355.8472,90.4297 353.8452,90.8691 Q351.8433,91.3574 349.646,91.3574 Q341.8335,91.3574 337.6831,86.2305 Q333.5815,81.0547 333.5815,71.2891 Q333.5815,61.5234 337.6831,56.3477 Q341.8335,51.1719 349.646,51.1719 Q351.8433,51.1719 353.8452,51.6602 Q355.896,52.1484 357.6538,53.0762 L357.6538,61.5723 Q355.7007,59.7656 353.8452,58.9355 Q351.9897,58.0566 350.0366,58.0566 Q345.8374,58.0566 343.689,61.4258 Q341.5405,64.7461 341.5405,71.2891 Q341.5405,77.832 343.689,81.2012 Q345.8374,84.5215 350.0366,84.5215 Q351.9897,84.5215 353.8452,83.6914 Q355.7007,82.8125 357.6538,81.0059 L357.6538,89.502 Z " fill="#000000"/><text fill="#000000" font-family="sans-serif" font-size="43.75" lengthAdjust="spacing" textLength="130.246" x="412.439" y="87.0209">Game</text><line style="stroke:#181818;stroke-width:1.5625;" x1="25" x2="828.5614" y1="121.875" y2="121.875"/><rect fill="none" height="18.75" style="stroke:#595959;stroke-width:3.125;" width="18.75" x="46.875" y="155.1514"/><text fill="#000000" font-family="sans-serif" font-size="43.75" lengthAdjust="spacing" textLength="270.3613" x="84.375" y="174.9847">Board board</text><rect fill="none" height="18.75" style="stroke:#595959;stroke-width:3.125;" width="18.75" x="46.875" y="206.0791"/><text fill="#000000" font-family="sans-serif" font-size="43.75" lengthAdjust="spacing" textLength="587.5488" x="84.375" y="225.9125">ScoreTracker scoreTracker</text><rect fill="none" height="18.75" style="stroke:#595959;stroke-width:3.125;" width="18.75" x="46.875" y="257.0068"/><text fill="#000000" font-family="sans-serif" font-size="43.75" lengthAdjust="spacing" textLength="344.5099" x="84.375" y="276.8402">Player[] players</text><rect fill="none" height="18.75" style="stroke:#595959;stroke-width:3.125;" width="18.75" x="46.875" y="307.9346"/><text fill="#000000" font-family="sans-serif" font-size="43.75" lengthAdjust="spacing" textLength="487.851" x="84.375" y="327.7679">int currentPlayerIndex</text><line style="stroke:#181818;stroke-width:1.5625;" x1="25" x2="828.5614" y1="350.5859" y2="350.5859"/><ellipse cx="56.25" cy="393.2373" fill="#A6A6A6" rx="9.375" ry="9.375" style="stroke:#545454;stroke-width:3.125;"/><text fill="#000000" font-family="sans-serif" font-size="43.75" lengthAdjust="spacing" textLength="661.8042" x="84.375" y="403.6957">startNewGame(Player, Player)</text><ellipse cx="56.25" cy="444.165" fill="#A6A6A6" rx="9.375" ry="9.375" style="stroke:#545454;stroke-width:3.125;"/><text fill="#000000" font-family="sans-serif" font-size="43.75" lengthAdjust="spacing" textLength="578.9825" x="84.375" y="454.6234">makeMove(int, int, Player)</text><ellipse cx="56.25" cy="495.0928" fill="#A6A6A6" rx="9.375" ry="9.375" style="stroke:#545454;stroke-width:3.125;"/><text fill="#000000" font-family="sans-serif" font-size="43.75" lengthAdjust="spacing" textLength="728.5614" x="84.375" y="505.5511">GameCondition getGameStatus()</text><ellipse cx="56.25" cy="546.0205" fill="#A6A6A6" rx="9.375" ry="9.375" style="stroke:#545454;stroke-width:3.125;"/><text fill="#000000" font-family="sans-serif" font-size="43.75" lengthAdjust="spacing" textLength="558.2184" x="84.375" y="556.4789">Player getCurrentPlayer()</text><ellipse cx="56.25" cy="596.9482" fill="#A6A6A6" rx="9.375" ry="9.375" style="stroke:#545454;stroke-width:3.125;"/><text fill="#000000" font-family="sans-serif" font-size="43.75" lengthAdjust="spacing" textLength="698.5046" x="84.375" y="607.4066">ScoreTracker getScoreTracker()</text></g><!--SRC=[XO_DQiCm383lUGh1BXdjeD0tQA1ZXur1ToizgBReJ18hoChQCVhkyqzRqbDza2rzdoKxjCuFADX3pvxDjt1Fe39I5MvaZwOz28_UDjonmDCwhubXEWnXzL2pWuFbOb5LsOTNZBF-AeZhPSKe5lOfbiB6iD2Nn9ua42P9mPyT_f9iTp3aGoXLvnNCA49UY_3cBPqocmL5qGywfgbreNCe-tCnUcpfdN-eZctcaCCTJpSRzjQfOmy7qbJOAEeOwejI_CIQwJEk-EvJKPhcqJd_0m00]--></g></svg>