<svg xmlns="http://www.w3.org/2000/svg" xmlns:xlink="http://www.w3.org/1999/xlink" contentStyleType="text/css" data-diagram-type="CLASS" height="468.75px" preserveAspectRatio="none" style="width:618px;height:468px;background:#FFFFFF;" version="1.1" viewBox="0 0 618 468" width="618.75px" zoomAndPan="magnify"><defs/><g><!--class Rack--><g class="entity" data-entity="Rack" data-source-line="7" data-uid="ent0002" id="entity_Rack"><rect fill="#FFFFFF" height="404.6387" rx="7.8125" ry="7.8125" style="stroke:#181818;stroke-width:1.5625;" width="555.9418" x="21.875" y="21.875"/><ellipse cx="233.2657" cy="71.875" fill="#C2C2C2" rx="34.375" ry="34.375" style="stroke:#181818;stroke-width:3.125;"/><path d="M242.543,89.502 Q240.7364,90.4297 238.7344,90.8691 Q236.7325,91.3574 234.5352,91.3574 Q226.7227,91.3574 222.5723,86.2305 Q218.4708,81.0547 218.4708,71.2891 Q218.4708,61.5234 222.5723,56.3477 Q226.7227,51.1719 234.5352,51.1719 Q236.7325,51.1719 238.7344,51.6602 Q240.7852,52.1484 242.543,53.0762 L242.543,61.5723 Q240.5899,59.7656 238.7344,58.9355 Q236.879,58.0566 234.9258,58.0566 Q230.7266,58.0566 228.5782,61.4258 Q226.4297,64.7461 226.4297,71.2891 Q226.4297,77.832 228.5782,81.2012 Q230.7266,84.5215 234.9258,84.5215 Q236.879,84.5215 238.7344,83.6914 Q240.5899,82.8125 242.543,81.0059 L242.543,89.502 Z " fill="#000000"/><text fill="#000000" font-family="sans-serif" font-size="43.75" lengthAdjust="spacing" textLength="106.5979" x="297.3282" y="87.0209">Rack</text><line style="stroke:#181818;stroke-width:1.5625;" x1="25" x2="574.6918" y1="121.875" y2="121.875"/><rect fill="none" height="18.75" style="stroke:#595959;stroke-width:3.125;" width="18.75" x="46.875" y="155.1514"/><text fill="#000000" font-family="sans-serif" font-size="43.75" lengthAdjust="spacing" textLength="350.6622" x="84.375" y="174.9847">String rackCode</text><rect fill="none" height="18.75" style="stroke:#595959;stroke-width:3.125;" width="18.75" x="46.875" y="206.0791"/><text fill="#000000" font-family="sans-serif" font-size="43.75" lengthAdjust="spacing" textLength="350.9827" x="84.375" y="225.9125">Product product</text><rect fill="none" height="18.75" style="stroke:#595959;stroke-width:3.125;" width="18.75" x="46.875" y="257.0068"/><text fill="#000000" font-family="sans-serif" font-size="43.75" lengthAdjust="spacing" textLength="194.3756" x="84.375" y="276.8402">int count</text><line style="stroke:#181818;stroke-width:1.5625;" x1="25" x2="574.6918" y1="299.6582" y2="299.6582"/><ellipse cx="56.25" cy="342.3096" fill="#A6A6A6" rx="9.375" ry="9.375" style="stroke:#545454;stroke-width:3.125;"/><text fill="#000000" font-family="sans-serif" font-size="43.75" lengthAdjust="spacing" textLength="455.5725" x="84.375" y="352.7679">Product getProduct()</text><ellipse cx="56.25" cy="393.2373" fill="#A6A6A6" rx="9.375" ry="9.375" style="stroke:#545454;stroke-width:3.125;"/><text fill="#000000" font-family="sans-serif" font-size="43.75" lengthAdjust="spacing" textLength="474.6918" x="84.375" y="403.6957">int getProductCount()</text></g><!--SRC=[XOt12W8X54NtViM5DaK40_r10wsZli1KJ6RqoLDNG_-UMapjSlFUE_TSJ9CBKRBqy1H8FPYyGUPYH5gJkrIJPIf1ZpGJOtFkxyTGiqpfz5VJqU4u34A8Ni2rDh08u81RPXSik9AHjEdimgIBoeZlsPaB6Qh-qQxzQbYJF-jsruEcVU7O2ZLvlW00]--></g></svg>