<svg xmlns="http://www.w3.org/2000/svg" xmlns:xlink="http://www.w3.org/1999/xlink" contentStyleType="text/css" data-diagram-type="CLASS" height="681.25px" preserveAspectRatio="none" style="width:2140px;height:681px;background:#FFFFFF;" version="1.1" viewBox="0 0 2140 681" width="2140.625px" zoomAndPan="magnify"><defs/><g><!--class PricingStrategy--><g class="entity" data-entity="PricingStrategy" data-source-line="6" data-uid="ent0002" id="entity_PricingStrategy"><rect fill="#FFFFFF" height="200.9277" rx="7.8125" ry="7.8125" style="stroke:#181818;stroke-width:1.5625;" width="556.9672" x="687.5" y="47.3437"/><ellipse cx="788.951" cy="97.3437" fill="#B1B1B1" rx="34.375" ry="34.375" style="stroke:#181818;stroke-width:3.125;"/><path d="M776.2068,84.1113 L776.2068,77.373 L799.3025,77.373 L799.3025,84.1113 L791.5877,84.1113 L791.5877,109.3555 L799.3025,109.3555 L799.3025,116.0937 L776.2068,116.0937 L776.2068,109.3555 L783.9217,109.3555 L783.9217,84.1113 L776.2068,84.1113 Z " fill="#000000"/><text fill="#000000" font-family="sans-serif" font-size="43.75" font-style="italic" lengthAdjust="spacing" textLength="335.6873" x="844.8289" y="112.4896">PricingStrategy</text><line style="stroke:#181818;stroke-width:1.5625;" x1="690.625" x2="1241.3422" y1="147.3437" y2="147.3437"/><line style="stroke:#181818;stroke-width:1.5625;" x1="690.625" x2="1241.3422" y1="172.3437" y2="172.3437"/><ellipse cx="721.875" cy="214.9951" fill="#A6A6A6" rx="9.375" ry="9.375" style="stroke:#545454;stroke-width:3.125;"/><text fill="#000000" font-family="sans-serif" font-size="43.75" lengthAdjust="spacing" textLength="475.7172" x="750" y="225.4535">BigDecimal getPrice()</text></g><!--class NormalRate--><g class="entity" data-entity="NormalRate" data-source-line="10" data-uid="ent0003" id="entity_NormalRate"><rect fill="#FFFFFF" height="200.9277" rx="7.8125" ry="7.8125" style="stroke:#181818;stroke-width:1.5625;" width="556.9672" x="21.875" y="461.2187"/><ellipse cx="157.2311" cy="511.2187" fill="#C2C2C2" rx="34.375" ry="34.375" style="stroke:#181818;stroke-width:3.125;"/><path d="M166.5085,528.8457 Q164.7018,529.7734 162.6999,530.2129 Q160.6979,530.7012 158.5007,530.7012 Q150.6882,530.7012 146.5378,525.5742 Q142.4362,520.3984 142.4362,510.6328 Q142.4362,500.8672 146.5378,495.6914 Q150.6882,490.5156 158.5007,490.5156 Q160.6979,490.5156 162.6999,491.0039 Q164.7507,491.4922 166.5085,492.4199 L166.5085,500.916 Q164.5554,499.1094 162.6999,498.2793 Q160.8444,497.4004 158.8913,497.4004 Q154.6921,497.4004 152.5436,500.7695 Q150.3952,504.0898 150.3952,510.6328 Q150.3952,517.1758 152.5436,520.5449 Q154.6921,523.8652 158.8913,523.8652 Q160.8444,523.8652 162.6999,523.0352 Q164.5554,522.1562 166.5085,520.3496 L166.5085,528.8457 Z " fill="#000000"/><text fill="#000000" font-family="sans-serif" font-size="43.75" lengthAdjust="spacing" textLength="260.3424" x="220.6436" y="526.3646">NormalRate</text><line style="stroke:#181818;stroke-width:1.5625;" x1="25" x2="575.7172" y1="561.2187" y2="561.2187"/><line style="stroke:#181818;stroke-width:1.5625;" x1="25" x2="575.7172" y1="586.2187" y2="586.2187"/><ellipse cx="56.25" cy="628.8701" fill="#A6A6A6" rx="9.375" ry="9.375" style="stroke:#545454;stroke-width:3.125;"/><text fill="#000000" font-family="sans-serif" font-size="43.75" lengthAdjust="spacing" textLength="475.7172" x="84.375" y="639.3285">BigDecimal getPrice()</text></g><!--class PremiumRate--><g class="entity" data-entity="PremiumRate" data-source-line="14" data-uid="ent0005" id="entity_PremiumRate"><rect fill="#FFFFFF" height="200.9277" rx="7.8125" ry="7.8125" style="stroke:#181818;stroke-width:1.5625;" width="556.9672" x="687.5" y="461.2187"/><ellipse cx="806.0526" cy="511.2187" fill="#C2C2C2" rx="34.375" ry="34.375" style="stroke:#181818;stroke-width:3.125;"/><path d="M815.3299,528.8457 Q813.5233,529.7734 811.5213,530.2129 Q809.5193,530.7012 807.3221,530.7012 Q799.5096,530.7012 795.3592,525.5742 Q791.2576,520.3984 791.2576,510.6328 Q791.2576,500.8672 795.3592,495.6914 Q799.5096,490.5156 807.3221,490.5156 Q809.5193,490.5156 811.5213,491.0039 Q813.5721,491.4922 815.3299,492.4199 L815.3299,500.916 Q813.3768,499.1094 811.5213,498.2793 Q809.6658,497.4004 807.7127,497.4004 Q803.5135,497.4004 801.3651,500.7695 Q799.2166,504.0898 799.2166,510.6328 Q799.2166,517.1758 801.3651,520.5449 Q803.5135,523.8652 807.7127,523.8652 Q809.6658,523.8652 811.5213,523.0352 Q813.3768,522.1562 815.3299,520.3496 L815.3299,528.8457 Z " fill="#000000"/><text fill="#000000" font-family="sans-serif" font-size="43.75" lengthAdjust="spacing" textLength="297.6837" x="865.7309" y="526.3646">PremiumRate</text><line style="stroke:#181818;stroke-width:1.5625;" x1="690.625" x2="1241.3422" y1="561.2187" y2="561.2187"/><line style="stroke:#181818;stroke-width:1.5625;" x1="690.625" x2="1241.3422" y1="586.2187" y2="586.2187"/><ellipse cx="721.875" cy="628.8701" fill="#A6A6A6" rx="9.375" ry="9.375" style="stroke:#545454;stroke-width:3.125;"/><text fill="#000000" font-family="sans-serif" font-size="43.75" lengthAdjust="spacing" textLength="475.7172" x="750" y="639.3285">BigDecimal getPrice()</text></g><!--class VIPRate--><g class="entity" data-entity="VIPRate" data-source-line="18" data-uid="ent0007" id="entity_VIPRate"><rect fill="#FFFFFF" height="200.9277" rx="7.8125" ry="7.8125" style="stroke:#181818;stroke-width:1.5625;" width="556.9672" x="1353.125" y="461.2187"/><ellipse cx="1533.0811" cy="511.2187" fill="#C2C2C2" rx="34.375" ry="34.375" style="stroke:#181818;stroke-width:3.125;"/><path d="M1542.3584,528.8457 Q1540.5518,529.7734 1538.5498,530.2129 Q1536.5479,530.7012 1534.3506,530.7012 Q1526.5381,530.7012 1522.3877,525.5742 Q1518.2861,520.3984 1518.2861,510.6328 Q1518.2861,500.8672 1522.3877,495.6914 Q1526.5381,490.5156 1534.3506,490.5156 Q1536.5479,490.5156 1538.5498,491.0039 Q1540.6006,491.4922 1542.3584,492.4199 L1542.3584,500.916 Q1540.4053,499.1094 1538.5498,498.2793 Q1536.6943,497.4004 1534.7412,497.4004 Q1530.542,497.4004 1528.3936,500.7695 Q1526.2451,504.0898 1526.2451,510.6328 Q1526.2451,517.1758 1528.3936,520.5449 Q1530.542,523.8652 1534.7412,523.8652 Q1536.6943,523.8652 1538.5498,523.0352 Q1540.4053,522.1562 1542.3584,520.3496 L1542.3584,528.8457 Z " fill="#000000"/><text fill="#000000" font-family="sans-serif" font-size="43.75" lengthAdjust="spacing" textLength="170.4926" x="1597.1436" y="526.3646">VIPRate</text><line style="stroke:#181818;stroke-width:1.5625;" x1="1356.25" x2="1906.9672" y1="561.2187" y2="561.2187"/><line style="stroke:#181818;stroke-width:1.5625;" x1="1356.25" x2="1906.9672" y1="586.2187" y2="586.2187"/><ellipse cx="1387.5" cy="628.8701" fill="#A6A6A6" rx="9.375" ry="9.375" style="stroke:#545454;stroke-width:3.125;"/><text fill="#000000" font-family="sans-serif" font-size="43.75" lengthAdjust="spacing" textLength="475.7172" x="1415.625" y="639.3285">BigDecimal getPrice()</text></g><!--class Seat--><g class="entity" data-entity="Seat" data-source-line="22" data-uid="ent0009" id="entity_Seat"><rect fill="#FFFFFF" height="251.8555" rx="7.8125" ry="7.8125" style="stroke:#181818;stroke-width:1.5625;" width="767.9199" x="1353.9063" y="21.875"/><ellipse cx="1675.2594" cy="71.875" fill="#C2C2C2" rx="34.375" ry="34.375" style="stroke:#181818;stroke-width:3.125;"/><path d="M1684.5367,89.502 Q1682.7301,90.4297 1680.7281,90.8691 Q1678.7262,91.3574 1676.5289,91.3574 Q1668.7164,91.3574 1664.566,86.2305 Q1660.4645,81.0547 1660.4645,71.2891 Q1660.4645,61.5234 1664.566,56.3477 Q1668.7164,51.1719 1676.5289,51.1719 Q1678.7262,51.1719 1680.7281,51.6602 Q1682.7789,52.1484 1684.5367,53.0762 L1684.5367,61.5723 Q1682.5836,59.7656 1680.7281,58.9355 Q1678.8727,58.0566 1676.9196,58.0566 Q1672.7203,58.0566 1670.5719,61.4258 Q1668.4235,64.7461 1668.4235,71.2891 Q1668.4235,77.832 1670.5719,81.2012 Q1672.7203,84.5215 1676.9196,84.5215 Q1678.8727,84.5215 1680.7281,83.6914 Q1682.5836,82.8125 1684.5367,81.0059 L1684.5367,89.502 Z " fill="#000000"/><text fill="#000000" font-family="sans-serif" font-size="43.75" lengthAdjust="spacing" textLength="98.6511" x="1739.3219" y="87.0209">Seat</text><line style="stroke:#181818;stroke-width:1.5625;" x1="1357.0313" x2="2118.7012" y1="121.875" y2="121.875"/><rect fill="none" height="18.75" style="stroke:#595959;stroke-width:3.125;" width="18.75" x="1378.9063" y="155.1514"/><text fill="#000000" font-family="sans-serif" font-size="43.75" lengthAdjust="spacing" textLength="413.8947" x="1416.4063" y="174.9847">String seatNumber</text><rect fill="none" height="18.75" style="stroke:#595959;stroke-width:3.125;" width="18.75" x="1378.9063" y="206.0791"/><text fill="#000000" font-family="sans-serif" font-size="43.75" lengthAdjust="spacing" textLength="686.6699" x="1416.4063" y="225.9125">PricingStrategy pricingStrategy</text><line style="stroke:#181818;stroke-width:1.5625;" x1="1357.0313" x2="2118.7012" y1="248.7305" y2="248.7305"/></g><!--reverse link PricingStrategy to NormalRate--><g class="link" data-entity-1="PricingStrategy" data-entity-2="NormalRate" data-source-line="11" data-uid="lnk4" id="link_PricingStrategy_NormalRate"><path d="M756.8808,278.9811 C652.6308,342.8561 565.3438,396.2812 461.1563,460.0937" fill="none" id="PricingStrategy-backto-NormalRate" style="stroke:#181818;stroke-width:3.125;stroke-dasharray:7.0,7.0;"/><polygon fill="none" points="804.8438,249.5937,747.085,262.9935,766.6766,294.9688,804.8438,249.5937" style="stroke:#181818;stroke-width:3.125;"/></g><!--reverse link PricingStrategy to PremiumRate--><g class="link" data-entity-1="PricingStrategy" data-entity-2="PremiumRate" data-source-line="15" data-uid="lnk6" id="link_PricingStrategy_PremiumRate"><path d="M965.9688,305.8437 C965.9688,369.9375 965.9688,396.875 965.9688,460.8125" fill="none" id="PricingStrategy-backto-PremiumRate" style="stroke:#181818;stroke-width:3.125;stroke-dasharray:7.0,7.0;"/><polygon fill="none" points="965.9688,249.5937,947.2188,305.8437,984.7188,305.8437,965.9688,249.5937" style="stroke:#181818;stroke-width:3.125;"/></g><!--reverse link PricingStrategy to VIPRate--><g class="link" data-entity-1="PricingStrategy" data-entity-2="VIPRate" data-source-line="19" data-uid="lnk8" id="link_PricingStrategy_VIPRate"><path d="M1175.088,278.9811 C1279.338,342.8561 1366.5938,396.2812 1470.8125,460.0937" fill="none" id="PricingStrategy-backto-VIPRate" style="stroke:#181818;stroke-width:3.125;stroke-dasharray:7.0,7.0;"/><polygon fill="none" points="1127.125,249.5937,1165.2922,294.9688,1184.8837,262.9935,1127.125,249.5937" style="stroke:#181818;stroke-width:3.125;"/></g><!--SRC=[hOrD2i8m48NtESM06qM4WZTG4ToKOi5zZ6CSx2HXaYv4UdTZAQ9k1EdRpVlv9bx91IsQWRtpvYAU4PAqgE8hEMfpjU9RTrhxnWjCjhtU6gRHCQv-raw1O5aKIf5BA6Tj42eXGyxMINH2UuExWgmvhCXkq13h1YocPmkdCzKfrR-2qakEzda3nA51HfVYlx1AaAdbaMY7NJKIgKQTXku2yZWZ86QlRFc8ClZVxF1vg-u1]--></g></svg>