<svg xmlns="http://www.w3.org/2000/svg" xmlns:xlink="http://www.w3.org/1999/xlink" contentStyleType="text/css" data-diagram-type="CLASS" height="1225px" preserveAspectRatio="none" style="width:2150px;height:1225px;background:#FFFFFF;" version="1.1" viewBox="0 0 2150 1225" width="2150px" zoomAndPan="magnify"><defs/><g><!--class Predicate--><g class="entity" data-entity="Predicate" data-source-line="6" data-uid="ent0002" id="entity_Predicate"><rect fill="#FFFFFF" height="200.9277" rx="7.8125" ry="7.8125" style="stroke:#181818;stroke-width:1.5625;" width="549.0417" x="492.9062" y="21.875"/><ellipse cx="651.0728" cy="71.875" fill="#B1B1B1" rx="34.375" ry="34.375" style="stroke:#181818;stroke-width:3.125;"/><path d="M638.3286,58.6426 L638.3286,51.9043 L661.4243,51.9043 L661.4243,58.6426 L653.7095,58.6426 L653.7095,83.8867 L661.4243,83.8867 L661.4243,90.625 L638.3286,90.625 L638.3286,83.8867 L646.0435,83.8867 L646.0435,58.6426 L638.3286,58.6426 Z " fill="#000000"/><text fill="#000000" font-family="sans-serif" font-size="43.75" font-style="italic" lengthAdjust="spacing" textLength="206.1462" x="715.1353" y="87.0209">Predicate</text><line style="stroke:#181818;stroke-width:1.5625;" x1="496.0312" x2="1038.823" y1="121.875" y2="121.875"/><line style="stroke:#181818;stroke-width:1.5625;" x1="496.0312" x2="1038.823" y1="146.875" y2="146.875"/><ellipse cx="527.2813" cy="189.5264" fill="#A6A6A6" rx="9.375" ry="9.375" style="stroke:#545454;stroke-width:3.125;"/><text fill="#000000" font-family="sans-serif" font-size="43.75" lengthAdjust="spacing" textLength="467.7917" x="555.4063" y="199.9847">boolean isMatch(File)</text></g><!--class SimplePredicate--><g class="entity" data-entity="SimplePredicate" data-source-line="10" data-uid="ent0003" id="entity_SimplePredicate"><rect fill="#FFFFFF" height="353.7109" rx="7.8125" ry="7.8125" style="stroke:#181818;stroke-width:1.5625;" width="741.0889" x="21.875" y="410.3125"/><ellipse cx="201.3718" cy="460.3125" fill="#C2C2C2" rx="34.375" ry="34.375" style="stroke:#181818;stroke-width:3.125;"/><path d="M210.6491,477.9395 Q208.8425,478.8672 206.8405,479.3066 Q204.8386,479.7949 202.6413,479.7949 Q194.8288,479.7949 190.6784,474.668 Q186.5768,469.4922 186.5768,459.7266 Q186.5768,449.9609 190.6784,444.7852 Q194.8288,439.6094 202.6413,439.6094 Q204.8386,439.6094 206.8405,440.0977 Q208.8913,440.5859 210.6491,441.5137 L210.6491,450.0098 Q208.696,448.2031 206.8405,447.373 Q204.985,446.4941 203.0319,446.4941 Q198.8327,446.4941 196.6843,449.8633 Q194.5358,453.1836 194.5358,459.7266 Q194.5358,466.2695 196.6843,469.6387 Q198.8327,472.959 203.0319,472.959 Q204.985,472.959 206.8405,472.1289 Q208.696,471.25 210.6491,469.4434 L210.6491,477.9395 Z " fill="#000000"/><text fill="#000000" font-family="sans-serif" font-size="43.75" lengthAdjust="spacing" textLength="355.5328" x="265.4343" y="475.4584">SimplePredicate</text><line style="stroke:#181818;stroke-width:1.5625;" x1="25" x2="759.8389" y1="510.3125" y2="510.3125"/><rect fill="none" height="18.75" style="stroke:#595959;stroke-width:3.125;" width="18.75" x="46.875" y="543.5889"/><text fill="#000000" font-family="sans-serif" font-size="43.75" lengthAdjust="spacing" textLength="604.1473" x="84.375" y="563.4222">FileAttribute attributeName</text><rect fill="none" height="18.75" style="stroke:#595959;stroke-width:3.125;" width="18.75" x="46.875" y="594.5166"/><text fill="#000000" font-family="sans-serif" font-size="43.75" lengthAdjust="spacing" textLength="659.8389" x="84.375" y="614.35">ComparisonOperator operator</text><rect fill="none" height="18.75" style="stroke:#595959;stroke-width:3.125;" width="18.75" x="46.875" y="645.4443"/><text fill="#000000" font-family="sans-serif" font-size="43.75" lengthAdjust="spacing" textLength="471.402" x="84.375" y="665.2777">String expectedValue</text><line style="stroke:#181818;stroke-width:1.5625;" x1="25" x2="759.8389" y1="688.0957" y2="688.0957"/><ellipse cx="56.25" cy="730.7471" fill="#A6A6A6" rx="9.375" ry="9.375" style="stroke:#545454;stroke-width:3.125;"/><text fill="#000000" font-family="sans-serif" font-size="43.75" lengthAdjust="spacing" textLength="467.7917" x="84.375" y="741.2054">boolean isMatch(File)</text></g><!--class CompositePredicate--><g class="entity" data-entity="CompositePredicate" data-source-line="17" data-uid="ent0004" id="entity_CompositePredicate"><rect fill="#FFFFFF" height="150" rx="7.8125" ry="7.8125" style="stroke:#181818;stroke-width:1.5625;" width="539.6362" x="872.5938" y="512.1563"/><ellipse cx="919.4688" cy="562.1563" fill="#B1B1B1" rx="34.375" ry="34.375" style="stroke:#181818;stroke-width:3.125;"/><path d="M906.7246,548.9238 L906.7246,542.1855 L929.8203,542.1855 L929.8203,548.9238 L922.1055,548.9238 L922.1055,574.168 L929.8203,574.168 L929.8203,580.9063 L906.7246,580.9063 L906.7246,574.168 L914.4395,574.168 L914.4395,548.9238 L906.7246,548.9238 Z " fill="#000000"/><text fill="#000000" font-family="sans-serif" font-size="43.75" font-style="italic" lengthAdjust="spacing" textLength="439.6362" x="963.2188" y="577.3021">CompositePredicate</text><line style="stroke:#181818;stroke-width:1.5625;" x1="875.7188" x2="1409.105" y1="612.1563" y2="612.1563"/><line style="stroke:#181818;stroke-width:1.5625;" x1="875.7188" x2="1409.105" y1="637.1563" y2="637.1563"/></g><!--class AndPredicate--><g class="entity" data-entity="AndPredicate" data-source-line="20" data-uid="ent0005" id="entity_AndPredicate"><rect fill="#FFFFFF" height="251.8555" rx="7.8125" ry="7.8125" style="stroke:#181818;stroke-width:1.5625;" width="655.6396" x="48.9688" y="951.5312"/><ellipse cx="217.7203" cy="1001.5312" fill="#C2C2C2" rx="34.375" ry="34.375" style="stroke:#181818;stroke-width:3.125;"/><path d="M226.9976,1019.1582 Q225.191,1020.0859 223.189,1020.5254 Q221.1871,1021.0137 218.9898,1021.0137 Q211.1773,1021.0137 207.0269,1015.8867 Q202.9254,1010.7109 202.9254,1000.9453 Q202.9254,991.1797 207.0269,986.0039 Q211.1773,980.8281 218.9898,980.8281 Q221.1871,980.8281 223.189,981.3164 Q225.2398,981.8047 226.9976,982.7324 L226.9976,991.2285 Q225.0445,989.4219 223.189,988.5918 Q221.3336,987.7129 219.3804,987.7129 Q215.1812,987.7129 213.0328,991.082 Q210.8843,994.4023 210.8843,1000.9453 Q210.8843,1007.4883 213.0328,1010.8574 Q215.1812,1014.1777 219.3804,1014.1777 Q221.3336,1014.1777 223.189,1013.3477 Q225.0445,1012.4687 226.9976,1010.6621 L226.9976,1019.1582 Z " fill="#000000"/><text fill="#000000" font-family="sans-serif" font-size="43.75" lengthAdjust="spacing" textLength="291.5741" x="281.7828" y="1016.6771">AndPredicate</text><line style="stroke:#181818;stroke-width:1.5625;" x1="52.0938" x2="701.4834" y1="1051.5312" y2="1051.5312"/><rect fill="none" height="18.75" style="stroke:#595959;stroke-width:3.125;" width="18.75" x="73.9688" y="1084.8076"/><text fill="#000000" font-family="sans-serif" font-size="43.75" lengthAdjust="spacing" textLength="574.3896" x="111.4688" y="1104.641">List&lt;Predicate&gt; operands</text><line style="stroke:#181818;stroke-width:1.5625;" x1="52.0938" x2="701.4834" y1="1127.459" y2="1127.459"/><ellipse cx="83.3438" cy="1170.1104" fill="#A6A6A6" rx="9.375" ry="9.375" style="stroke:#545454;stroke-width:3.125;"/><text fill="#000000" font-family="sans-serif" font-size="43.75" lengthAdjust="spacing" textLength="467.7917" x="111.4688" y="1180.5687">boolean isMatch(File)</text></g><!--class OrPredicate--><g class="entity" data-entity="OrPredicate" data-source-line="25" data-uid="ent0006" id="entity_OrPredicate"><rect fill="#FFFFFF" height="251.8555" rx="7.8125" ry="7.8125" style="stroke:#181818;stroke-width:1.5625;" width="655.6396" x="814.5937" y="951.5312"/><ellipse cx="999.8477" cy="1001.5312" fill="#C2C2C2" rx="34.375" ry="34.375" style="stroke:#181818;stroke-width:3.125;"/><path d="M1009.125,1019.1582 Q1007.3184,1020.0859 1005.3164,1020.5254 Q1003.3145,1021.0137 1001.1172,1021.0137 Q993.3047,1021.0137 989.1543,1015.8867 Q985.0527,1010.7109 985.0527,1000.9453 Q985.0527,991.1797 989.1543,986.0039 Q993.3047,980.8281 1001.1172,980.8281 Q1003.3145,980.8281 1005.3164,981.3164 Q1007.3672,981.8047 1009.125,982.7324 L1009.125,991.2285 Q1007.1719,989.4219 1005.3164,988.5918 Q1003.4609,987.7129 1001.5078,987.7129 Q997.3086,987.7129 995.1602,991.082 Q993.0117,994.4023 993.0117,1000.9453 Q993.0117,1007.4883 995.1602,1010.8574 Q997.3086,1014.1777 1001.5078,1014.1777 Q1003.4609,1014.1777 1005.3164,1013.3477 Q1007.1719,1012.4687 1009.125,1010.6621 L1009.125,1019.1582 Z " fill="#000000"/><text fill="#000000" font-family="sans-serif" font-size="43.75" lengthAdjust="spacing" textLength="258.5693" x="1063.9102" y="1016.6771">OrPredicate</text><line style="stroke:#181818;stroke-width:1.5625;" x1="817.7187" x2="1467.1084" y1="1051.5312" y2="1051.5312"/><rect fill="none" height="18.75" style="stroke:#595959;stroke-width:3.125;" width="18.75" x="839.5937" y="1084.8076"/><text fill="#000000" font-family="sans-serif" font-size="43.75" lengthAdjust="spacing" textLength="574.3896" x="877.0937" y="1104.641">List&lt;Predicate&gt; operands</text><line style="stroke:#181818;stroke-width:1.5625;" x1="817.7187" x2="1467.1084" y1="1127.459" y2="1127.459"/><ellipse cx="848.9687" cy="1170.1104" fill="#A6A6A6" rx="9.375" ry="9.375" style="stroke:#545454;stroke-width:3.125;"/><text fill="#000000" font-family="sans-serif" font-size="43.75" lengthAdjust="spacing" textLength="467.7917" x="877.0937" y="1180.5687">boolean isMatch(File)</text></g><!--class NotPredicate--><g class="entity" data-entity="NotPredicate" data-source-line="30" data-uid="ent0007" id="entity_NotPredicate"><rect fill="#FFFFFF" height="251.8555" rx="7.8125" ry="7.8125" style="stroke:#181818;stroke-width:1.5625;" width="549.0417" x="1580.4063" y="951.5312"/><ellipse cx="1702.0927" cy="1001.5312" fill="#C2C2C2" rx="34.375" ry="34.375" style="stroke:#181818;stroke-width:3.125;"/><path d="M1711.37,1019.1582 Q1709.5634,1020.0859 1707.5614,1020.5254 Q1705.5594,1021.0137 1703.3622,1021.0137 Q1695.5497,1021.0137 1691.3993,1015.8867 Q1687.2977,1010.7109 1687.2977,1000.9453 Q1687.2977,991.1797 1691.3993,986.0039 Q1695.5497,980.8281 1703.3622,980.8281 Q1705.5594,980.8281 1707.5614,981.3164 Q1709.6122,981.8047 1711.37,982.7324 L1711.37,991.2285 Q1709.4169,989.4219 1707.5614,988.5918 Q1705.7059,987.7129 1703.7528,987.7129 Q1699.5536,987.7129 1697.4052,991.082 Q1695.2567,994.4023 1695.2567,1000.9453 Q1695.2567,1007.4883 1697.4052,1010.8574 Q1699.5536,1014.1777 1703.7528,1014.1777 Q1705.7059,1014.1777 1707.5614,1013.3477 Q1709.4169,1012.4687 1711.37,1010.6621 L1711.37,1019.1582 Z " fill="#000000"/><text fill="#000000" font-family="sans-serif" font-size="43.75" lengthAdjust="spacing" textLength="282.7942" x="1762.4674" y="1016.6771">NotPredicate</text><line style="stroke:#181818;stroke-width:1.5625;" x1="1583.5313" x2="2126.323" y1="1051.5312" y2="1051.5312"/><rect fill="none" height="18.75" style="stroke:#595959;stroke-width:3.125;" width="18.75" x="1605.4063" y="1084.8076"/><text fill="#000000" font-family="sans-serif" font-size="43.75" lengthAdjust="spacing" textLength="401.8036" x="1642.9063" y="1104.641">Predicate operand</text><line style="stroke:#181818;stroke-width:1.5625;" x1="1583.5313" x2="2126.323" y1="1127.459" y2="1127.459"/><ellipse cx="1614.7813" cy="1170.1104" fill="#A6A6A6" rx="9.375" ry="9.375" style="stroke:#545454;stroke-width:3.125;"/><text fill="#000000" font-family="sans-serif" font-size="43.75" lengthAdjust="spacing" textLength="467.7917" x="1642.9063" y="1180.5687">boolean isMatch(File)</text></g><!--reverse link Predicate to SimplePredicate--><g class="link" data-entity-1="Predicate" data-entity-2="SimplePredicate" data-source-line="36" data-uid="lnk8" id="link_Predicate_SimplePredicate"><path codeLine="36" d="M651.3519,267.3811 C607.2269,321.3186 586.8438,346.2813 535.5313,409.0312" fill="none" id="Predicate-backto-SimplePredicate" style="stroke:#181818;stroke-width:3.125;stroke-dasharray:7.0,7.0;"/><polygon fill="none" points="686.9688,223.8438,636.8394,255.5088,665.8643,279.2534,686.9688,223.8438" style="stroke:#181818;stroke-width:3.125;"/></g><!--reverse link Predicate to CompositePredicate--><g class="link" data-entity-1="Predicate" data-entity-2="CompositePredicate" data-source-line="37" data-uid="lnk9" id="link_Predicate_CompositePredicate"><path codeLine="37" d="M883.4869,267.3852 C954.0806,353.6977 1019.5,433.7188 1083,511.375" fill="none" id="Predicate-backto-CompositePredicate" style="stroke:#181818;stroke-width:3.125;"/><polygon fill="none" points="847.875,223.8438,868.9731,279.2558,898.0007,255.5145,847.875,223.8438" style="stroke:#181818;stroke-width:3.125;"/></g><!--reverse link CompositePredicate to AndPredicate--><g class="link" data-entity-1="CompositePredicate" data-entity-2="AndPredicate" data-source-line="38" data-uid="lnk10" id="link_CompositePredicate_AndPredicate"><path codeLine="38" d="M979.4235,693.3397 C859.111,769.4022 715.9688,859.875 572.1563,950.8125" fill="none" id="CompositePredicate-backto-AndPredicate" style="stroke:#181818;stroke-width:3.125;stroke-dasharray:7.0,7.0;"/><polygon fill="none" points="1026.9688,663.2812,969.404,677.4913,989.443,709.1881,1026.9688,663.2812" style="stroke:#181818;stroke-width:3.125;"/></g><!--reverse link CompositePredicate to OrPredicate--><g class="link" data-entity-1="CompositePredicate" data-entity-2="OrPredicate" data-source-line="39" data-uid="lnk11" id="link_CompositePredicate_OrPredicate"><path codeLine="39" d="M1142.4063,719 C1142.4063,794.9688 1142.4063,859.4375 1142.4063,950.5313" fill="none" id="CompositePredicate-backto-OrPredicate" style="stroke:#181818;stroke-width:3.125;stroke-dasharray:7.0,7.0;"/><polygon fill="none" points="1142.4063,662.75,1123.6563,719,1161.1563,719,1142.4063,662.75" style="stroke:#181818;stroke-width:3.125;"/></g><!--reverse link CompositePredicate to NotPredicate--><g class="link" data-entity-1="CompositePredicate" data-entity-2="NotPredicate" data-source-line="40" data-uid="lnk12" id="link_CompositePredicate_NotPredicate"><path codeLine="40" d="M1295.6207,694.3618 C1407.4332,770.3305 1538.5938,859.4375 1672.7188,950.5313" fill="none" id="CompositePredicate-backto-NotPredicate" style="stroke:#181818;stroke-width:3.125;stroke-dasharray:7.0,7.0;"/><polygon fill="none" points="1249.0938,662.75,1285.0834,709.8708,1306.158,678.8528,1249.0938,662.75" style="stroke:#181818;stroke-width:3.125;"/></g><!--SRC=[hL71JiCm3BtdAonn0Q5EaxXEI6FIJh0XJUBk9cQBbiHLuaf8mB_JbT6cg0KE-EJuFJy_E-beGuKHFNWEh0-HFO74cbJga1BrSH-v3cR5ZYDShDl86DfXIdU_qanbuMO-Lye6eVYCck0nah4QXU1LmJckeMHsX05iUa3HXykrTNJLukzAjSDWPttbQAozW1DzAH9jMJS8VcKRz9InLkmRMpPns5OKKHhBV4uorgvf3dkWbugqa7b2LzDVdVPhdcPniZ8mtEso32Ql5t1laoowqksdhs2IcXhOIMtZVobjM8PI_UiiyfE6wjcBjzdi-tSDuA8OkOyQELchb1zhafITOPAJB_W1]--></g></svg>