<svg width="466" height="291" viewBox="0 0 466 291" fill="none" xmlns="http://www.w3.org/2000/svg">
<g clip-path="url(#clip0_3_2870)">
<rect width="466" height="291" fill="#DADADA"/>
<path d="M58 26.5L-19.5 -9.5" stroke="black" stroke-width="2"/>
<path d="M410 26.5L487.5 -9.5" stroke="black" stroke-width="2"/>
<rect x="56" y="26" width="354" height="181" rx="1" fill="#909090" stroke="black" stroke-width="2"/>
<g filter="url(#filter0_i_3_2870)">
<path d="M77.6569 197.479C77.6569 191.071 82.8512 185.877 89.2586 185.877H110.722C117.129 185.877 122.323 191.071 122.323 197.479V224.743C122.323 225.383 121.804 225.903 121.163 225.903H78.8171C78.1764 225.903 77.6569 225.383 77.6569 224.743V197.479Z" fill="#B0B0B0"/>
</g>
<path d="M89.2585 186.877H110.721C116.576 186.877 121.323 191.623 121.323 197.479V224.742C121.323 224.831 121.251 224.902 121.163 224.902H78.8171C78.7286 224.902 78.6569 224.831 78.6569 224.742V197.479C78.657 191.623 83.4035 186.877 89.2585 186.877Z" stroke="black" stroke-width="2"/>
<g filter="url(#filter1_i_3_2870)">
<path d="M30.5047 197.479C30.5047 191.071 35.6989 185.877 42.1063 185.877H63.5694C69.9768 185.877 75.1711 191.071 75.1711 197.479V224.743C75.1711 225.383 74.6516 225.903 74.0109 225.903H31.6648C31.0241 225.903 30.5047 225.383 30.5047 224.743V197.479Z" fill="#B0B0B0"/>
</g>
<path d="M42.1062 186.877H63.5691C69.4242 186.877 74.1706 191.623 74.1707 197.479V224.742C74.1707 224.831 74.099 224.902 74.0105 224.902H31.6648C31.5764 224.902 31.5047 224.831 31.5047 224.742V197.479C31.5047 191.623 36.2512 186.877 42.1062 186.877Z" stroke="black" stroke-width="2"/>
<g filter="url(#filter2_i_3_2870)">
<path d="M-16.6481 197.479C-16.6481 191.072 -11.4538 185.877 -5.0464 185.877H16.4167C22.8241 185.877 28.0183 191.072 28.0183 197.479V224.743C28.0183 225.384 27.4989 225.903 26.8582 225.903H-15.4879C-16.1286 225.903 -16.6481 225.384 -16.6481 224.743V197.479Z" fill="#B0B0B0"/>
</g>
<path d="M-5.04651 186.877H16.4164C22.2715 186.877 27.0179 191.624 27.0179 197.479V224.743C27.0179 224.831 26.9462 224.903 26.8578 224.903H-15.4879C-15.5764 224.903 -15.6481 224.831 -15.6481 224.743V197.479C-15.648 191.624 -10.9016 186.877 -5.04651 186.877Z" stroke="black" stroke-width="2"/>
<g filter="url(#filter3_i_3_2870)">
<path d="M125.224 197.479C125.224 191.071 130.418 185.877 136.826 185.877H158.289C164.696 185.877 169.89 191.071 169.89 197.479V224.743C169.89 225.383 169.371 225.903 168.73 225.903H126.384C125.743 225.903 125.224 225.383 125.224 224.743V197.479Z" fill="#B0B0B0"/>
</g>
<path d="M136.825 186.877H158.288C164.143 186.877 168.89 191.623 168.89 197.479V224.742C168.89 224.831 168.818 224.902 168.73 224.902H126.384C126.296 224.902 126.224 224.831 126.224 224.742V197.479C126.224 191.623 130.97 186.877 136.825 186.877Z" stroke="black" stroke-width="2"/>
<g filter="url(#filter4_i_3_2870)">
<path d="M172.791 197.479C172.791 191.071 177.985 185.877 184.393 185.877H205.856C212.263 185.877 217.457 191.071 217.457 197.479V224.743C217.457 225.383 216.938 225.903 216.297 225.903H173.951C173.31 225.903 172.791 225.383 172.791 224.743V197.479Z" fill="#B0B0B0"/>
</g>
<path d="M184.392 186.877H205.855C211.71 186.877 216.457 191.623 216.457 197.479V224.742C216.457 224.831 216.385 224.902 216.297 224.902H173.951C173.863 224.902 173.791 224.831 173.791 224.742V197.479C173.791 191.623 178.537 186.877 184.392 186.877Z" stroke="black" stroke-width="2"/>
<g filter="url(#filter5_i_3_2870)">
<path d="M220.358 197.479C220.358 191.071 225.552 185.877 231.959 185.877H253.423C259.83 185.877 265.024 191.071 265.024 197.479V224.743C265.024 225.383 264.505 225.903 263.864 225.903H221.518C220.877 225.903 220.358 225.383 220.358 224.743V197.479Z" fill="#B0B0B0"/>
</g>
<path d="M231.959 186.877H253.422C259.277 186.877 264.024 191.623 264.024 197.479V224.742C264.024 224.831 263.952 224.902 263.864 224.902H221.518C221.43 224.902 221.358 224.831 221.358 224.742V197.479C221.358 191.623 226.104 186.877 231.959 186.877Z" stroke="black" stroke-width="2"/>
<g filter="url(#filter6_i_3_2870)">
<path d="M267.925 197.479C267.925 191.071 273.119 185.877 279.526 185.877H300.99C307.397 185.877 312.591 191.071 312.591 197.479V224.743C312.591 225.383 312.072 225.903 311.431 225.903H269.085C268.444 225.903 267.925 225.383 267.925 224.743V197.479Z" fill="#B0B0B0"/>
</g>
<path d="M279.526 186.877H300.989C306.844 186.877 311.591 191.623 311.591 197.479V224.742C311.591 224.831 311.519 224.902 311.431 224.902H269.085C268.996 224.902 268.925 224.831 268.925 224.742V197.479C268.925 191.623 273.671 186.877 279.526 186.877Z" stroke="black" stroke-width="2"/>
<g filter="url(#filter7_i_3_2870)">
<path d="M315.491 197.479C315.491 191.071 320.685 185.877 327.093 185.877H348.556C354.963 185.877 360.157 191.071 360.157 197.479V224.743C360.157 225.383 359.638 225.903 358.997 225.903H316.651C316.01 225.903 315.491 225.383 315.491 224.743V197.479Z" fill="#B0B0B0"/>
</g>
<path d="M327.092 186.877H348.555C354.41 186.877 359.157 191.623 359.157 197.479V224.742C359.157 224.831 359.085 224.902 358.997 224.902H316.651C316.563 224.902 316.491 224.831 316.491 224.742V197.479C316.491 191.623 321.237 186.877 327.092 186.877Z" stroke="black" stroke-width="2"/>
<g filter="url(#filter8_i_3_2870)">
<path d="M363.058 197.479C363.058 191.071 368.252 185.877 374.659 185.877H396.123C402.53 185.877 407.724 191.071 407.724 197.479V224.743C407.724 225.383 407.205 225.903 406.564 225.903H364.218C363.577 225.903 363.058 225.383 363.058 224.743V197.479Z" fill="#B0B0B0"/>
</g>
<path d="M374.659 186.877H396.122C401.977 186.877 406.724 191.623 406.724 197.479V224.742C406.724 224.831 406.652 224.902 406.564 224.902H364.218C364.129 224.902 364.058 224.831 364.058 224.742V197.479C364.058 191.623 368.804 186.877 374.659 186.877Z" stroke="black" stroke-width="2"/>
<g filter="url(#filter9_i_3_2870)">
<path d="M410.816 197.479C410.816 191.071 416.011 185.877 422.418 185.877H443.881C450.289 185.877 455.483 191.071 455.483 197.479V224.743C455.483 225.383 454.963 225.903 454.323 225.903H411.977C411.336 225.903 410.816 225.383 410.816 224.743V197.479Z" fill="#B0B0B0"/>
</g>
<path d="M422.418 186.877H443.881C449.736 186.877 454.482 191.623 454.482 197.479V224.742C454.482 224.831 454.411 224.902 454.322 224.902H411.977C411.888 224.902 411.816 224.831 411.816 224.742V197.479C411.816 191.623 416.563 186.877 422.418 186.877Z" stroke="black" stroke-width="2"/>
<g filter="url(#filter10_i_3_2870)">
<path d="M458.575 197.479C458.575 191.071 463.769 185.877 470.177 185.877H491.64C498.047 185.877 503.241 191.071 503.241 197.479V224.743C503.241 225.383 502.722 225.903 502.081 225.903H459.735C459.094 225.903 458.575 225.383 458.575 224.743V197.479Z" fill="#B0B0B0"/>
</g>
<path d="M470.177 186.877H491.639C497.495 186.877 502.241 191.623 502.241 197.479V224.742C502.241 224.831 502.169 224.902 502.081 224.902H459.735C459.647 224.902 459.575 224.831 459.575 224.742V197.479C459.575 191.623 464.322 186.877 470.177 186.877Z" stroke="black" stroke-width="2"/>
<g filter="url(#filter11_i_3_2870)">
<path d="M22 216.619C22 208.33 28.7197 201.61 37.0088 201.61H64.775C73.0642 201.61 79.7838 208.33 79.7838 216.619V259.499C79.7838 260.328 79.1119 261 78.283 261H23.5009C22.672 261 22 260.328 22 259.499V216.619Z" fill="#B0B0B0"/>
</g>
<path d="M37.0088 202.61H64.7754C72.5121 202.611 78.7842 208.882 78.7842 216.619V259.499C78.7842 259.776 78.5597 260 78.2832 260H23.501C23.2243 260 23 259.776 23 259.499V216.619C23 208.882 29.2719 202.61 37.0088 202.61Z" stroke="black" stroke-width="2"/>
<g filter="url(#filter12_i_3_2870)">
<path d="M-39 216.619C-39 208.33 -32.2803 201.61 -23.9912 201.61H3.77504C12.0642 201.61 18.7838 208.33 18.7838 216.619V259.499C18.7838 260.328 18.1119 261 17.283 261H-37.4991C-38.328 261 -39 260.328 -39 259.499V216.619Z" fill="#B0B0B0"/>
</g>
<path d="M-23.9912 202.61H3.77539C11.5121 202.611 17.7842 208.882 17.7842 216.619V259.499C17.7842 259.776 17.5597 260 17.2832 260H-37.499C-37.7757 260 -38 259.776 -38 259.499V216.619C-38 208.882 -31.7281 202.61 -23.9912 202.61Z" stroke="black" stroke-width="2"/>
<g filter="url(#filter13_i_3_2870)">
<path d="M83.5361 216.619C83.5361 208.33 90.2558 201.61 98.5449 201.61H126.311C134.6 201.61 141.32 208.33 141.32 216.619V259.499C141.32 260.328 140.648 261 139.819 261H85.037C84.2081 261 83.5361 260.328 83.5361 259.499V216.619Z" fill="#B0B0B0"/>
</g>
<path d="M98.5449 202.61H126.312C134.048 202.611 140.32 208.882 140.32 216.619V259.499C140.32 259.776 140.096 260 139.819 260H85.0371C84.7605 260 84.5361 259.776 84.5361 259.499V216.619C84.5361 208.882 90.8081 202.61 98.5449 202.61Z" stroke="black" stroke-width="2"/>
<g filter="url(#filter14_i_3_2870)">
<path d="M145.072 216.619C145.072 208.33 151.792 201.61 160.081 201.61H187.847C196.136 201.61 202.856 208.33 202.856 216.619V259.499C202.856 260.328 202.184 261 201.355 261H146.573C145.744 261 145.072 260.328 145.072 259.499V216.619Z" fill="#B0B0B0"/>
</g>
<path d="M160.081 202.61H187.848C195.584 202.611 201.856 208.882 201.856 216.619V259.499C201.856 259.776 201.632 260 201.355 260H146.573C146.297 260 146.072 259.776 146.072 259.499V216.619C146.072 208.882 152.344 202.61 160.081 202.61Z" stroke="black" stroke-width="2"/>
<g filter="url(#filter15_i_3_2870)">
<path d="M206.608 216.619C206.608 208.33 213.328 201.61 221.617 201.61H249.383C257.673 201.61 264.392 208.33 264.392 216.619V259.499C264.392 260.328 263.72 261 262.891 261H208.109C207.28 261 206.608 260.328 206.608 259.499V216.619Z" fill="#B0B0B0"/>
</g>
<path d="M221.617 202.61H249.384C257.12 202.611 263.393 208.882 263.393 216.619V259.499C263.393 259.776 263.168 260 262.892 260H208.109C207.833 260 207.608 259.776 207.608 259.499V216.619C207.608 208.882 213.88 202.61 221.617 202.61Z" stroke="black" stroke-width="2"/>
<g filter="url(#filter16_i_3_2870)">
<path d="M268.145 216.619C268.145 208.33 274.864 201.61 283.153 201.61H310.92C319.209 201.61 325.928 208.33 325.928 216.619V259.499C325.928 260.328 325.256 261 324.427 261H269.645C268.816 261 268.145 260.328 268.145 259.499V216.619Z" fill="#B0B0B0"/>
</g>
<path d="M283.153 202.61H310.92C318.657 202.611 324.929 208.882 324.929 216.619V259.499C324.929 259.776 324.704 260 324.428 260H269.646C269.369 260 269.145 259.776 269.145 259.499V216.619C269.145 208.882 275.416 202.61 283.153 202.61Z" stroke="black" stroke-width="2"/>
<g filter="url(#filter17_i_3_2870)">
<path d="M329.68 216.619C329.68 208.33 336.399 201.61 344.688 201.61H372.455C380.744 201.61 387.464 208.33 387.464 216.619V259.499C387.464 260.328 386.792 261 385.963 261H331.181C330.352 261 329.68 260.328 329.68 259.499V216.619Z" fill="#B0B0B0"/>
</g>
<path d="M344.688 202.61H372.455C380.192 202.611 386.464 208.882 386.464 216.619V259.499C386.464 259.776 386.239 260 385.963 260H331.181C330.904 260 330.68 259.776 330.68 259.499V216.619C330.68 208.882 336.952 202.61 344.688 202.61Z" stroke="black" stroke-width="2"/>
<g filter="url(#filter18_i_3_2870)">
<path d="M391.216 216.619C391.216 208.33 397.935 201.61 406.225 201.61H433.991C442.28 201.61 449 208.33 449 216.619V259.499C449 260.328 448.328 261 447.499 261H392.717C391.888 261 391.216 260.328 391.216 259.499V216.619Z" fill="#B0B0B0"/>
</g>
<path d="M406.225 202.61H433.991C441.728 202.611 448 208.882 448 216.619V259.499C448 259.776 447.776 260 447.499 260H392.717C392.44 260 392.216 259.776 392.216 259.499V216.619C392.216 208.882 398.488 202.61 406.225 202.61Z" stroke="black" stroke-width="2"/>
<g filter="url(#filter19_i_3_2870)">
<path d="M453 216.619C453 208.33 459.72 201.61 468.009 201.61H495.775C504.064 201.61 510.784 208.33 510.784 216.619V259.499C510.784 260.328 510.112 261 509.283 261H454.501C453.672 261 453 260.328 453 259.499V216.619Z" fill="#B0B0B0"/>
</g>
<path d="M468.009 202.61H495.775C503.512 202.611 509.784 208.882 509.784 216.619V259.499C509.784 259.776 509.56 260 509.283 260H454.501C454.224 260 454 259.776 454 259.499V216.619C454 208.882 460.272 202.61 468.009 202.61Z" stroke="black" stroke-width="2"/>
<g filter="url(#filter20_i_3_2870)">
<path d="M-19 241.988C-19 232.456 -11.2732 224.729 -1.74165 224.729H30.1863C39.7178 224.729 47.4446 232.456 47.4446 241.988V289.274C47.4446 290.227 46.672 291 45.7188 291H-17.2742C-18.2273 291 -19 290.227 -19 289.274V241.988Z" fill="#B0B0B0"/>
</g>
<path d="M-1.74121 225.729H30.1865C39.1657 225.73 46.4443 233.009 46.4443 241.988V289.274C46.4442 289.675 46.1195 290 45.7188 290H-17.2744C-17.6751 290 -17.9999 289.675 -18 289.274V241.988C-18 233.009 -10.7204 225.729 -1.74121 225.729Z" stroke="black" stroke-width="2"/>
<g filter="url(#filter21_i_3_2870)">
<path d="M51.7593 241.988C51.7593 232.456 59.4861 224.729 69.0176 224.729H100.946C110.477 224.729 118.204 232.456 118.204 241.988V289.274C118.204 290.227 117.431 291 116.478 291H53.4851C52.532 291 51.7593 290.227 51.7593 289.274V241.988Z" fill="#B0B0B0"/>
</g>
<path d="M69.0181 225.729H100.946C109.925 225.73 117.204 233.009 117.204 241.988V289.274C117.203 289.675 116.879 290 116.478 290H53.4849C53.0842 290 52.7594 289.675 52.7593 289.274V241.988C52.7593 233.009 60.0388 225.729 69.0181 225.729Z" stroke="black" stroke-width="2"/>
<g filter="url(#filter22_i_3_2870)">
<path d="M122.519 241.988C122.519 232.456 130.245 224.729 139.777 224.729H171.705C181.236 224.729 188.963 232.456 188.963 241.988V289.274C188.963 290.227 188.191 291 187.237 291H124.244C123.291 291 122.519 290.227 122.519 289.274V241.988Z" fill="#B0B0B0"/>
</g>
<path d="M139.777 225.729H171.705C180.684 225.73 187.963 233.009 187.963 241.988V289.274C187.963 289.675 187.638 290 187.237 290H124.244C123.843 290 123.519 289.675 123.519 289.274V241.988C123.519 233.009 130.798 225.729 139.777 225.729Z" stroke="black" stroke-width="2"/>
<g filter="url(#filter23_i_3_2870)">
<path d="M193.278 241.988C193.278 232.456 201.005 224.729 210.536 224.729H242.464C251.996 224.729 259.722 232.456 259.722 241.988V289.274C259.722 290.227 258.95 291 257.997 291H195.004C194.051 291 193.278 290.227 193.278 289.274V241.988Z" fill="#B0B0B0"/>
</g>
<path d="M210.537 225.729H242.464C251.443 225.73 258.722 233.009 258.722 241.988V289.274C258.722 289.675 258.397 290 257.997 290H195.003C194.603 290 194.278 289.675 194.278 289.274V241.988C194.278 233.009 201.557 225.729 210.537 225.729Z" stroke="black" stroke-width="2"/>
<g filter="url(#filter24_i_3_2870)">
<path d="M264.037 241.988C264.037 232.456 271.764 224.729 281.295 224.729H313.223C322.755 224.729 330.482 232.456 330.482 241.988V289.274C330.482 290.227 329.709 291 328.756 291H265.763C264.81 291 264.037 290.227 264.037 289.274V241.988Z" fill="#B0B0B0"/>
</g>
<path d="M281.296 225.729H313.224C322.203 225.73 329.481 233.009 329.481 241.988V289.274C329.481 289.675 329.157 290 328.756 290H265.763C265.362 290 265.037 289.675 265.037 289.274V241.988C265.037 233.009 272.317 225.729 281.296 225.729Z" stroke="black" stroke-width="2"/>
<g filter="url(#filter25_i_3_2870)">
<path d="M334.796 241.988C334.796 232.456 342.523 224.729 352.054 224.729H383.982C393.514 224.729 401.241 232.456 401.241 241.988V289.274C401.241 290.227 400.468 291 399.515 291H336.522C335.569 291 334.796 290.227 334.796 289.274V241.988Z" fill="#B0B0B0"/>
</g>
<path d="M352.055 225.729H383.982C392.962 225.73 400.24 233.009 400.24 241.988V289.274C400.24 289.675 399.915 290 399.515 290H336.521C336.121 290 335.796 289.675 335.796 289.274V241.988C335.796 233.009 343.075 225.729 352.055 225.729Z" stroke="black" stroke-width="2"/>
<g filter="url(#filter26_i_3_2870)">
<path d="M405.555 241.988C405.555 232.456 413.282 224.729 422.814 224.729H454.741C464.273 224.729 472 232.456 472 241.988V289.274C472 290.227 471.227 291 470.274 291H407.281C406.328 291 405.555 290.227 405.555 289.274V241.988Z" fill="#B0B0B0"/>
</g>
<path d="M422.814 225.729H454.742C463.721 225.73 471 233.009 471 241.988V289.274C470.999 289.675 470.675 290 470.274 290H407.281C406.88 290 406.555 289.675 406.555 289.274V241.988C406.555 233.009 413.835 225.729 422.814 225.729Z" stroke="black" stroke-width="2"/>
<g filter="url(#filter27_i_3_2870)">
<path d="M-8 275C-8 263.954 0.954306 255 12 255H49C60.0457 255 69 263.954 69 275V322C69 323.105 68.1046 324 67 324H-6C-7.10457 324 -8 323.105 -8 322V275Z" fill="#B0B0B0"/>
</g>
<path d="M12 256H49C59.4934 256 68 264.507 68 275V322C68 322.552 67.5523 323 67 323H-6C-6.55228 323 -7 322.552 -7 322V275C-7 264.507 1.50659 256 12 256Z" stroke="black" stroke-width="2"/>
<g filter="url(#filter28_i_3_2870)">
<path d="M74 275C74 263.954 82.9543 255 94 255H131C142.046 255 151 263.954 151 275V322C151 323.105 150.105 324 149 324H76C74.8954 324 74 323.105 74 322V275Z" fill="#B0B0B0"/>
</g>
<path d="M94 256H131C141.493 256 150 264.507 150 275V322C150 322.552 149.552 323 149 323H76C75.4477 323 75 322.552 75 322V275C75 264.507 83.5066 256 94 256Z" stroke="black" stroke-width="2"/>
<g filter="url(#filter29_i_3_2870)">
<path d="M156 275C156 263.954 164.954 255 176 255H213C224.046 255 233 263.954 233 275V322C233 323.105 232.105 324 231 324H158C156.895 324 156 323.105 156 322V275Z" fill="#B0B0B0"/>
</g>
<path d="M176 256H213C223.493 256 232 264.507 232 275V322C232 322.552 231.552 323 231 323H158C157.448 323 157 322.552 157 322V275C157 264.507 165.507 256 176 256Z" stroke="black" stroke-width="2"/>
<g filter="url(#filter30_i_3_2870)">
<path d="M238 275C238 263.954 246.954 255 258 255H295C306.046 255 315 263.954 315 275V322C315 323.105 314.105 324 313 324H240C238.895 324 238 323.105 238 322V275Z" fill="#B0B0B0"/>
</g>
<path d="M258 256H295C305.493 256 314 264.507 314 275V322C314 322.552 313.552 323 313 323H240C239.448 323 239 322.552 239 322V275C239 264.507 247.507 256 258 256Z" stroke="black" stroke-width="2"/>
<g filter="url(#filter31_i_3_2870)">
<path d="M320 275C320 263.954 328.954 255 340 255H377C388.046 255 397 263.954 397 275V322C397 323.105 396.105 324 395 324H322C320.895 324 320 323.105 320 322V275Z" fill="#B0B0B0"/>
</g>
<path d="M340 256H377C387.493 256 396 264.507 396 275V322C396 322.552 395.552 323 395 323H322C321.448 323 321 322.552 321 322V275C321 264.507 329.507 256 340 256Z" stroke="black" stroke-width="2"/>
<g filter="url(#filter32_i_3_2870)">
<path d="M402 275C402 263.954 410.954 255 422 255H459C470.046 255 479 263.954 479 275V322C479 323.105 478.105 324 477 324H404C402.895 324 402 323.105 402 322V275Z" fill="#B0B0B0"/>
</g>
<path d="M422 256H459C469.493 256 478 264.507 478 275V322C478 322.552 477.552 323 477 323H404C403.448 323 403 322.552 403 322V275C403 264.507 411.507 256 422 256Z" stroke="black" stroke-width="2"/>
<path d="M457.826 21.8854L428.626 31.4734C426.81 32.0699 425.67 33.8683 425.905 35.7656L432.16 86.2571C432.365 87.9078 433.569 89.2597 435.186 89.6523L467.035 97.387C467.344 97.4621 467.661 97.5 467.979 97.5H493C495.209 97.5 497 95.7091 497 93.5V35.5063C497 33.7255 495.823 32.1592 494.112 31.6641L460.187 21.8435C459.414 21.6197 458.591 21.6343 457.826 21.8854Z" fill="#ABABAB" stroke="black" stroke-width="2"/>
<path d="M11.1736 22.3854L40.3736 31.9734C42.1901 32.5699 43.3305 34.3683 43.0954 36.2656L36.8398 86.7571C36.6353 88.4078 35.4306 89.7597 33.8142 90.1523L1.96523 97.887C1.65618 97.9621 1.33928 98 1.02124 98H-24C-26.2091 98 -28 96.2091 -28 94V36.0063C-28 34.2255 -26.8228 32.6592 -25.1122 32.1641L8.81348 22.3435C9.58648 22.1197 10.409 22.1343 11.1736 22.3854Z" fill="#ABABAB" stroke="black" stroke-width="2"/>
<path d="M460 23.5L466.5 97" stroke="black" stroke-width="2"/>
<path d="M9 24L2.5 97.5" stroke="black" stroke-width="2"/>
<path d="M444.335 41.5146C446.859 41.4061 449.291 42.9431 451.167 45.6763C453.038 48.4026 454.305 52.2569 454.491 56.5924C454.677 60.9279 453.746 64.8767 452.116 67.7535C450.481 70.6376 448.19 72.3775 445.665 72.486C443.141 72.5945 440.709 71.0575 438.833 68.3243C436.962 65.598 435.695 61.7436 435.509 57.4081C435.322 53.0726 436.254 49.1238 437.884 46.247C439.519 43.363 441.81 41.623 444.335 41.5146Z" fill="#5C5C5C" stroke="black"/>
<path d="M24.6655 42.0146C22.141 41.9061 19.7091 43.4431 17.8331 46.1763C15.9617 48.9026 14.6951 52.7569 14.5088 57.0924C14.3225 61.4279 15.2538 65.3767 16.8844 68.2535C18.5191 71.1376 20.8101 72.8775 23.3346 72.986C25.8591 73.0945 28.291 71.5575 30.1671 68.8243C32.0384 66.098 33.305 62.2436 33.4913 57.9081C33.6776 53.5726 32.7463 49.6238 31.1157 46.747C29.481 43.863 27.19 42.123 24.6655 42.0146Z" fill="#5C5C5C" stroke="black"/>
<ellipse cx="3.99639" cy="6.39422" rx="3.99639" ry="6.39422" transform="matrix(0.999078 -0.0429307 -0.0429307 -0.999078 441.282 63.5605)" fill="#080808"/>
<ellipse cx="24.0001" cy="57.5007" rx="3.99639" ry="6.39422" transform="rotate(-177.539 24.0001 57.5007)" fill="#080808"/>
</g>
<defs>
<filter id="filter0_i_3_2870" x="77.6569" y="185.877" width="44.6664" height="40.0259" filterUnits="userSpaceOnUse" color-interpolation-filters="sRGB">
<feFlood flood-opacity="0" result="BackgroundImageFix"/>
<feBlend mode="normal" in="SourceGraphic" in2="BackgroundImageFix" result="shape"/>
<feColorMatrix in="SourceAlpha" type="matrix" values="0 0 0 0 0 0 0 0 0 0 0 0 0 0 0 0 0 0 127 0" result="hardAlpha"/>
<feOffset dy="5.22075"/>
<feComposite in2="hardAlpha" operator="arithmetic" k2="-1" k3="1"/>
<feColorMatrix type="matrix" values="0 0 0 0 0.829177 0 0 0 0 0.829177 0 0 0 0 0.829177 0 0 0 1 0"/>
<feBlend mode="normal" in2="shape" result="effect1_innerShadow_3_2870"/>
</filter>
<filter id="filter1_i_3_2870" x="30.5047" y="185.877" width="44.6664" height="40.0259" filterUnits="userSpaceOnUse" color-interpolation-filters="sRGB">
<feFlood flood-opacity="0" result="BackgroundImageFix"/>
<feBlend mode="normal" in="SourceGraphic" in2="BackgroundImageFix" result="shape"/>
<feColorMatrix in="SourceAlpha" type="matrix" values="0 0 0 0 0 0 0 0 0 0 0 0 0 0 0 0 0 0 127 0" result="hardAlpha"/>
<feOffset dy="5.22075"/>
<feComposite in2="hardAlpha" operator="arithmetic" k2="-1" k3="1"/>
<feColorMatrix type="matrix" values="0 0 0 0 0.829177 0 0 0 0 0.829177 0 0 0 0 0.829177 0 0 0 1 0"/>
<feBlend mode="normal" in2="shape" result="effect1_innerShadow_3_2870"/>
</filter>
<filter id="filter2_i_3_2870" x="-16.6481" y="185.877" width="44.6664" height="40.0259" filterUnits="userSpaceOnUse" color-interpolation-filters="sRGB">
<feFlood flood-opacity="0" result="BackgroundImageFix"/>
<feBlend mode="normal" in="SourceGraphic" in2="BackgroundImageFix" result="shape"/>
<feColorMatrix in="SourceAlpha" type="matrix" values="0 0 0 0 0 0 0 0 0 0 0 0 0 0 0 0 0 0 127 0" result="hardAlpha"/>
<feOffset dy="5.22075"/>
<feComposite in2="hardAlpha" operator="arithmetic" k2="-1" k3="1"/>
<feColorMatrix type="matrix" values="0 0 0 0 0.829177 0 0 0 0 0.829177 0 0 0 0 0.829177 0 0 0 1 0"/>
<feBlend mode="normal" in2="shape" result="effect1_innerShadow_3_2870"/>
</filter>
<filter id="filter3_i_3_2870" x="125.224" y="185.877" width="44.6664" height="40.0259" filterUnits="userSpaceOnUse" color-interpolation-filters="sRGB">
<feFlood flood-opacity="0" result="BackgroundImageFix"/>
<feBlend mode="normal" in="SourceGraphic" in2="BackgroundImageFix" result="shape"/>
<feColorMatrix in="SourceAlpha" type="matrix" values="0 0 0 0 0 0 0 0 0 0 0 0 0 0 0 0 0 0 127 0" result="hardAlpha"/>
<feOffset dy="5.22075"/>
<feComposite in2="hardAlpha" operator="arithmetic" k2="-1" k3="1"/>
<feColorMatrix type="matrix" values="0 0 0 0 0.829177 0 0 0 0 0.829177 0 0 0 0 0.829177 0 0 0 1 0"/>
<feBlend mode="normal" in2="shape" result="effect1_innerShadow_3_2870"/>
</filter>
<filter id="filter4_i_3_2870" x="172.791" y="185.877" width="44.6664" height="40.0259" filterUnits="userSpaceOnUse" color-interpolation-filters="sRGB">
<feFlood flood-opacity="0" result="BackgroundImageFix"/>
<feBlend mode="normal" in="SourceGraphic" in2="BackgroundImageFix" result="shape"/>
<feColorMatrix in="SourceAlpha" type="matrix" values="0 0 0 0 0 0 0 0 0 0 0 0 0 0 0 0 0 0 127 0" result="hardAlpha"/>
<feOffset dy="5.22075"/>
<feComposite in2="hardAlpha" operator="arithmetic" k2="-1" k3="1"/>
<feColorMatrix type="matrix" values="0 0 0 0 0.829177 0 0 0 0 0.829177 0 0 0 0 0.829177 0 0 0 1 0"/>
<feBlend mode="normal" in2="shape" result="effect1_innerShadow_3_2870"/>
</filter>
<filter id="filter5_i_3_2870" x="220.358" y="185.877" width="44.6664" height="40.0259" filterUnits="userSpaceOnUse" color-interpolation-filters="sRGB">
<feFlood flood-opacity="0" result="BackgroundImageFix"/>
<feBlend mode="normal" in="SourceGraphic" in2="BackgroundImageFix" result="shape"/>
<feColorMatrix in="SourceAlpha" type="matrix" values="0 0 0 0 0 0 0 0 0 0 0 0 0 0 0 0 0 0 127 0" result="hardAlpha"/>
<feOffset dy="5.22075"/>
<feComposite in2="hardAlpha" operator="arithmetic" k2="-1" k3="1"/>
<feColorMatrix type="matrix" values="0 0 0 0 0.829177 0 0 0 0 0.829177 0 0 0 0 0.829177 0 0 0 1 0"/>
<feBlend mode="normal" in2="shape" result="effect1_innerShadow_3_2870"/>
</filter>
<filter id="filter6_i_3_2870" x="267.925" y="185.877" width="44.6664" height="40.0259" filterUnits="userSpaceOnUse" color-interpolation-filters="sRGB">
<feFlood flood-opacity="0" result="BackgroundImageFix"/>
<feBlend mode="normal" in="SourceGraphic" in2="BackgroundImageFix" result="shape"/>
<feColorMatrix in="SourceAlpha" type="matrix" values="0 0 0 0 0 0 0 0 0 0 0 0 0 0 0 0 0 0 127 0" result="hardAlpha"/>
<feOffset dy="5.22075"/>
<feComposite in2="hardAlpha" operator="arithmetic" k2="-1" k3="1"/>
<feColorMatrix type="matrix" values="0 0 0 0 0.829177 0 0 0 0 0.829177 0 0 0 0 0.829177 0 0 0 1 0"/>
<feBlend mode="normal" in2="shape" result="effect1_innerShadow_3_2870"/>
</filter>
<filter id="filter7_i_3_2870" x="315.491" y="185.877" width="44.6664" height="40.0259" filterUnits="userSpaceOnUse" color-interpolation-filters="sRGB">
<feFlood flood-opacity="0" result="BackgroundImageFix"/>
<feBlend mode="normal" in="SourceGraphic" in2="BackgroundImageFix" result="shape"/>
<feColorMatrix in="SourceAlpha" type="matrix" values="0 0 0 0 0 0 0 0 0 0 0 0 0 0 0 0 0 0 127 0" result="hardAlpha"/>
<feOffset dy="5.22075"/>
<feComposite in2="hardAlpha" operator="arithmetic" k2="-1" k3="1"/>
<feColorMatrix type="matrix" values="0 0 0 0 0.829177 0 0 0 0 0.829177 0 0 0 0 0.829177 0 0 0 1 0"/>
<feBlend mode="normal" in2="shape" result="effect1_innerShadow_3_2870"/>
</filter>
<filter id="filter8_i_3_2870" x="363.058" y="185.877" width="44.6664" height="40.0259" filterUnits="userSpaceOnUse" color-interpolation-filters="sRGB">
<feFlood flood-opacity="0" result="BackgroundImageFix"/>
<feBlend mode="normal" in="SourceGraphic" in2="BackgroundImageFix" result="shape"/>
<feColorMatrix in="SourceAlpha" type="matrix" values="0 0 0 0 0 0 0 0 0 0 0 0 0 0 0 0 0 0 127 0" result="hardAlpha"/>
<feOffset dy="5.22075"/>
<feComposite in2="hardAlpha" operator="arithmetic" k2="-1" k3="1"/>
<feColorMatrix type="matrix" values="0 0 0 0 0.829177 0 0 0 0 0.829177 0 0 0 0 0.829177 0 0 0 1 0"/>
<feBlend mode="normal" in2="shape" result="effect1_innerShadow_3_2870"/>
</filter>
<filter id="filter9_i_3_2870" x="410.816" y="185.877" width="44.6664" height="40.0259" filterUnits="userSpaceOnUse" color-interpolation-filters="sRGB">
<feFlood flood-opacity="0" result="BackgroundImageFix"/>
<feBlend mode="normal" in="SourceGraphic" in2="BackgroundImageFix" result="shape"/>
<feColorMatrix in="SourceAlpha" type="matrix" values="0 0 0 0 0 0 0 0 0 0 0 0 0 0 0 0 0 0 127 0" result="hardAlpha"/>
<feOffset dy="5.22075"/>
<feComposite in2="hardAlpha" operator="arithmetic" k2="-1" k3="1"/>
<feColorMatrix type="matrix" values="0 0 0 0 0.829177 0 0 0 0 0.829177 0 0 0 0 0.829177 0 0 0 1 0"/>
<feBlend mode="normal" in2="shape" result="effect1_innerShadow_3_2870"/>
</filter>
<filter id="filter10_i_3_2870" x="458.575" y="185.877" width="44.6664" height="40.0259" filterUnits="userSpaceOnUse" color-interpolation-filters="sRGB">
<feFlood flood-opacity="0" result="BackgroundImageFix"/>
<feBlend mode="normal" in="SourceGraphic" in2="BackgroundImageFix" result="shape"/>
<feColorMatrix in="SourceAlpha" type="matrix" values="0 0 0 0 0 0 0 0 0 0 0 0 0 0 0 0 0 0 127 0" result="hardAlpha"/>
<feOffset dy="5.22075"/>
<feComposite in2="hardAlpha" operator="arithmetic" k2="-1" k3="1"/>
<feColorMatrix type="matrix" values="0 0 0 0 0.829177 0 0 0 0 0.829177 0 0 0 0 0.829177 0 0 0 1 0"/>
<feBlend mode="normal" in2="shape" result="effect1_innerShadow_3_2870"/>
</filter>
<filter id="filter11_i_3_2870" x="22" y="201.61" width="57.7838" height="59.3896" filterUnits="userSpaceOnUse" color-interpolation-filters="sRGB">
<feFlood flood-opacity="0" result="BackgroundImageFix"/>
<feBlend mode="normal" in="SourceGraphic" in2="BackgroundImageFix" result="shape"/>
<feColorMatrix in="SourceAlpha" type="matrix" values="0 0 0 0 0 0 0 0 0 0 0 0 0 0 0 0 0 0 127 0" result="hardAlpha"/>
<feOffset dy="6.75395"/>
<feComposite in2="hardAlpha" operator="arithmetic" k2="-1" k3="1"/>
<feColorMatrix type="matrix" values="0 0 0 0 0.829177 0 0 0 0 0.829177 0 0 0 0 0.829177 0 0 0 1 0"/>
<feBlend mode="normal" in2="shape" result="effect1_innerShadow_3_2870"/>
</filter>
<filter id="filter12_i_3_2870" x="-39" y="201.61" width="57.7838" height="59.3896" filterUnits="userSpaceOnUse" color-interpolation-filters="sRGB">
<feFlood flood-opacity="0" result="BackgroundImageFix"/>
<feBlend mode="normal" in="SourceGraphic" in2="BackgroundImageFix" result="shape"/>
<feColorMatrix in="SourceAlpha" type="matrix" values="0 0 0 0 0 0 0 0 0 0 0 0 0 0 0 0 0 0 127 0" result="hardAlpha"/>
<feOffset dy="6.75395"/>
<feComposite in2="hardAlpha" operator="arithmetic" k2="-1" k3="1"/>
<feColorMatrix type="matrix" values="0 0 0 0 0.829177 0 0 0 0 0.829177 0 0 0 0 0.829177 0 0 0 1 0"/>
<feBlend mode="normal" in2="shape" result="effect1_innerShadow_3_2870"/>
</filter>
<filter id="filter13_i_3_2870" x="83.5361" y="201.61" width="57.7838" height="59.3896" filterUnits="userSpaceOnUse" color-interpolation-filters="sRGB">
<feFlood flood-opacity="0" result="BackgroundImageFix"/>
<feBlend mode="normal" in="SourceGraphic" in2="BackgroundImageFix" result="shape"/>
<feColorMatrix in="SourceAlpha" type="matrix" values="0 0 0 0 0 0 0 0 0 0 0 0 0 0 0 0 0 0 127 0" result="hardAlpha"/>
<feOffset dy="6.75395"/>
<feComposite in2="hardAlpha" operator="arithmetic" k2="-1" k3="1"/>
<feColorMatrix type="matrix" values="0 0 0 0 0.829177 0 0 0 0 0.829177 0 0 0 0 0.829177 0 0 0 1 0"/>
<feBlend mode="normal" in2="shape" result="effect1_innerShadow_3_2870"/>
</filter>
<filter id="filter14_i_3_2870" x="145.072" y="201.61" width="57.7838" height="59.3896" filterUnits="userSpaceOnUse" color-interpolation-filters="sRGB">
<feFlood flood-opacity="0" result="BackgroundImageFix"/>
<feBlend mode="normal" in="SourceGraphic" in2="BackgroundImageFix" result="shape"/>
<feColorMatrix in="SourceAlpha" type="matrix" values="0 0 0 0 0 0 0 0 0 0 0 0 0 0 0 0 0 0 127 0" result="hardAlpha"/>
<feOffset dy="6.75395"/>
<feComposite in2="hardAlpha" operator="arithmetic" k2="-1" k3="1"/>
<feColorMatrix type="matrix" values="0 0 0 0 0.829177 0 0 0 0 0.829177 0 0 0 0 0.829177 0 0 0 1 0"/>
<feBlend mode="normal" in2="shape" result="effect1_innerShadow_3_2870"/>
</filter>
<filter id="filter15_i_3_2870" x="206.608" y="201.61" width="57.7838" height="59.3896" filterUnits="userSpaceOnUse" color-interpolation-filters="sRGB">
<feFlood flood-opacity="0" result="BackgroundImageFix"/>
<feBlend mode="normal" in="SourceGraphic" in2="BackgroundImageFix" result="shape"/>
<feColorMatrix in="SourceAlpha" type="matrix" values="0 0 0 0 0 0 0 0 0 0 0 0 0 0 0 0 0 0 127 0" result="hardAlpha"/>
<feOffset dy="6.75395"/>
<feComposite in2="hardAlpha" operator="arithmetic" k2="-1" k3="1"/>
<feColorMatrix type="matrix" values="0 0 0 0 0.829177 0 0 0 0 0.829177 0 0 0 0 0.829177 0 0 0 1 0"/>
<feBlend mode="normal" in2="shape" result="effect1_innerShadow_3_2870"/>
</filter>
<filter id="filter16_i_3_2870" x="268.145" y="201.61" width="57.7838" height="59.3896" filterUnits="userSpaceOnUse" color-interpolation-filters="sRGB">
<feFlood flood-opacity="0" result="BackgroundImageFix"/>
<feBlend mode="normal" in="SourceGraphic" in2="BackgroundImageFix" result="shape"/>
<feColorMatrix in="SourceAlpha" type="matrix" values="0 0 0 0 0 0 0 0 0 0 0 0 0 0 0 0 0 0 127 0" result="hardAlpha"/>
<feOffset dy="6.75395"/>
<feComposite in2="hardAlpha" operator="arithmetic" k2="-1" k3="1"/>
<feColorMatrix type="matrix" values="0 0 0 0 0.829177 0 0 0 0 0.829177 0 0 0 0 0.829177 0 0 0 1 0"/>
<feBlend mode="normal" in2="shape" result="effect1_innerShadow_3_2870"/>
</filter>
<filter id="filter17_i_3_2870" x="329.68" y="201.61" width="57.7838" height="59.3896" filterUnits="userSpaceOnUse" color-interpolation-filters="sRGB">
<feFlood flood-opacity="0" result="BackgroundImageFix"/>
<feBlend mode="normal" in="SourceGraphic" in2="BackgroundImageFix" result="shape"/>
<feColorMatrix in="SourceAlpha" type="matrix" values="0 0 0 0 0 0 0 0 0 0 0 0 0 0 0 0 0 0 127 0" result="hardAlpha"/>
<feOffset dy="6.75395"/>
<feComposite in2="hardAlpha" operator="arithmetic" k2="-1" k3="1"/>
<feColorMatrix type="matrix" values="0 0 0 0 0.829177 0 0 0 0 0.829177 0 0 0 0 0.829177 0 0 0 1 0"/>
<feBlend mode="normal" in2="shape" result="effect1_innerShadow_3_2870"/>
</filter>
<filter id="filter18_i_3_2870" x="391.216" y="201.61" width="57.7838" height="59.3896" filterUnits="userSpaceOnUse" color-interpolation-filters="sRGB">
<feFlood flood-opacity="0" result="BackgroundImageFix"/>
<feBlend mode="normal" in="SourceGraphic" in2="BackgroundImageFix" result="shape"/>
<feColorMatrix in="SourceAlpha" type="matrix" values="0 0 0 0 0 0 0 0 0 0 0 0 0 0 0 0 0 0 127 0" result="hardAlpha"/>
<feOffset dy="6.75395"/>
<feComposite in2="hardAlpha" operator="arithmetic" k2="-1" k3="1"/>
<feColorMatrix type="matrix" values="0 0 0 0 0.829177 0 0 0 0 0.829177 0 0 0 0 0.829177 0 0 0 1 0"/>
<feBlend mode="normal" in2="shape" result="effect1_innerShadow_3_2870"/>
</filter>
<filter id="filter19_i_3_2870" x="453" y="201.61" width="57.7838" height="59.3896" filterUnits="userSpaceOnUse" color-interpolation-filters="sRGB">
<feFlood flood-opacity="0" result="BackgroundImageFix"/>
<feBlend mode="normal" in="SourceGraphic" in2="BackgroundImageFix" result="shape"/>
<feColorMatrix in="SourceAlpha" type="matrix" values="0 0 0 0 0 0 0 0 0 0 0 0 0 0 0 0 0 0 127 0" result="hardAlpha"/>
<feOffset dy="6.75395"/>
<feComposite in2="hardAlpha" operator="arithmetic" k2="-1" k3="1"/>
<feColorMatrix type="matrix" values="0 0 0 0 0.829177 0 0 0 0 0.829177 0 0 0 0 0.829177 0 0 0 1 0"/>
<feBlend mode="normal" in2="shape" result="effect1_innerShadow_3_2870"/>
</filter>
<filter id="filter20_i_3_2870" x="-19" y="224.729" width="66.4446" height="66.2705" filterUnits="userSpaceOnUse" color-interpolation-filters="sRGB">
<feFlood flood-opacity="0" result="BackgroundImageFix"/>
<feBlend mode="normal" in="SourceGraphic" in2="BackgroundImageFix" result="shape"/>
<feColorMatrix in="SourceAlpha" type="matrix" values="0 0 0 0 0 0 0 0 0 0 0 0 0 0 0 0 0 0 127 0" result="hardAlpha"/>
<feOffset dy="7.76626"/>
<feComposite in2="hardAlpha" operator="arithmetic" k2="-1" k3="1"/>
<feColorMatrix type="matrix" values="0 0 0 0 0.829177 0 0 0 0 0.829177 0 0 0 0 0.829177 0 0 0 1 0"/>
<feBlend mode="normal" in2="shape" result="effect1_innerShadow_3_2870"/>
</filter>
<filter id="filter21_i_3_2870" x="51.7593" y="224.729" width="66.4446" height="66.2705" filterUnits="userSpaceOnUse" color-interpolation-filters="sRGB">
<feFlood flood-opacity="0" result="BackgroundImageFix"/>
<feBlend mode="normal" in="SourceGraphic" in2="BackgroundImageFix" result="shape"/>
<feColorMatrix in="SourceAlpha" type="matrix" values="0 0 0 0 0 0 0 0 0 0 0 0 0 0 0 0 0 0 127 0" result="hardAlpha"/>
<feOffset dy="7.76626"/>
<feComposite in2="hardAlpha" operator="arithmetic" k2="-1" k3="1"/>
<feColorMatrix type="matrix" values="0 0 0 0 0.829177 0 0 0 0 0.829177 0 0 0 0 0.829177 0 0 0 1 0"/>
<feBlend mode="normal" in2="shape" result="effect1_innerShadow_3_2870"/>
</filter>
<filter id="filter22_i_3_2870" x="122.519" y="224.729" width="66.4446" height="66.2705" filterUnits="userSpaceOnUse" color-interpolation-filters="sRGB">
<feFlood flood-opacity="0" result="BackgroundImageFix"/>
<feBlend mode="normal" in="SourceGraphic" in2="BackgroundImageFix" result="shape"/>
<feColorMatrix in="SourceAlpha" type="matrix" values="0 0 0 0 0 0 0 0 0 0 0 0 0 0 0 0 0 0 127 0" result="hardAlpha"/>
<feOffset dy="7.76626"/>
<feComposite in2="hardAlpha" operator="arithmetic" k2="-1" k3="1"/>
<feColorMatrix type="matrix" values="0 0 0 0 0.829177 0 0 0 0 0.829177 0 0 0 0 0.829177 0 0 0 1 0"/>
<feBlend mode="normal" in2="shape" result="effect1_innerShadow_3_2870"/>
</filter>
<filter id="filter23_i_3_2870" x="193.278" y="224.729" width="66.4446" height="66.2705" filterUnits="userSpaceOnUse" color-interpolation-filters="sRGB">
<feFlood flood-opacity="0" result="BackgroundImageFix"/>
<feBlend mode="normal" in="SourceGraphic" in2="BackgroundImageFix" result="shape"/>
<feColorMatrix in="SourceAlpha" type="matrix" values="0 0 0 0 0 0 0 0 0 0 0 0 0 0 0 0 0 0 127 0" result="hardAlpha"/>
<feOffset dy="7.76626"/>
<feComposite in2="hardAlpha" operator="arithmetic" k2="-1" k3="1"/>
<feColorMatrix type="matrix" values="0 0 0 0 0.829177 0 0 0 0 0.829177 0 0 0 0 0.829177 0 0 0 1 0"/>
<feBlend mode="normal" in2="shape" result="effect1_innerShadow_3_2870"/>
</filter>
<filter id="filter24_i_3_2870" x="264.037" y="224.729" width="66.4446" height="66.2705" filterUnits="userSpaceOnUse" color-interpolation-filters="sRGB">
<feFlood flood-opacity="0" result="BackgroundImageFix"/>
<feBlend mode="normal" in="SourceGraphic" in2="BackgroundImageFix" result="shape"/>
<feColorMatrix in="SourceAlpha" type="matrix" values="0 0 0 0 0 0 0 0 0 0 0 0 0 0 0 0 0 0 127 0" result="hardAlpha"/>
<feOffset dy="7.76626"/>
<feComposite in2="hardAlpha" operator="arithmetic" k2="-1" k3="1"/>
<feColorMatrix type="matrix" values="0 0 0 0 0.829177 0 0 0 0 0.829177 0 0 0 0 0.829177 0 0 0 1 0"/>
<feBlend mode="normal" in2="shape" result="effect1_innerShadow_3_2870"/>
</filter>
<filter id="filter25_i_3_2870" x="334.796" y="224.729" width="66.4446" height="66.2705" filterUnits="userSpaceOnUse" color-interpolation-filters="sRGB">
<feFlood flood-opacity="0" result="BackgroundImageFix"/>
<feBlend mode="normal" in="SourceGraphic" in2="BackgroundImageFix" result="shape"/>
<feColorMatrix in="SourceAlpha" type="matrix" values="0 0 0 0 0 0 0 0 0 0 0 0 0 0 0 0 0 0 127 0" result="hardAlpha"/>
<feOffset dy="7.76626"/>
<feComposite in2="hardAlpha" operator="arithmetic" k2="-1" k3="1"/>
<feColorMatrix type="matrix" values="0 0 0 0 0.829177 0 0 0 0 0.829177 0 0 0 0 0.829177 0 0 0 1 0"/>
<feBlend mode="normal" in2="shape" result="effect1_innerShadow_3_2870"/>
</filter>
<filter id="filter26_i_3_2870" x="405.555" y="224.729" width="66.4446" height="66.2705" filterUnits="userSpaceOnUse" color-interpolation-filters="sRGB">
<feFlood flood-opacity="0" result="BackgroundImageFix"/>
<feBlend mode="normal" in="SourceGraphic" in2="BackgroundImageFix" result="shape"/>
<feColorMatrix in="SourceAlpha" type="matrix" values="0 0 0 0 0 0 0 0 0 0 0 0 0 0 0 0 0 0 127 0" result="hardAlpha"/>
<feOffset dy="7.76626"/>
<feComposite in2="hardAlpha" operator="arithmetic" k2="-1" k3="1"/>
<feColorMatrix type="matrix" values="0 0 0 0 0.829177 0 0 0 0 0.829177 0 0 0 0 0.829177 0 0 0 1 0"/>
<feBlend mode="normal" in2="shape" result="effect1_innerShadow_3_2870"/>
</filter>
<filter id="filter27_i_3_2870" x="-8" y="255" width="77" height="69" filterUnits="userSpaceOnUse" color-interpolation-filters="sRGB">
<feFlood flood-opacity="0" result="BackgroundImageFix"/>
<feBlend mode="normal" in="SourceGraphic" in2="BackgroundImageFix" result="shape"/>
<feColorMatrix in="SourceAlpha" type="matrix" values="0 0 0 0 0 0 0 0 0 0 0 0 0 0 0 0 0 0 127 0" result="hardAlpha"/>
<feOffset dy="9"/>
<feComposite in2="hardAlpha" operator="arithmetic" k2="-1" k3="1"/>
<feColorMatrix type="matrix" values="0 0 0 0 0.829177 0 0 0 0 0.829177 0 0 0 0 0.829177 0 0 0 1 0"/>
<feBlend mode="normal" in2="shape" result="effect1_innerShadow_3_2870"/>
</filter>
<filter id="filter28_i_3_2870" x="74" y="255" width="77" height="69" filterUnits="userSpaceOnUse" color-interpolation-filters="sRGB">
<feFlood flood-opacity="0" result="BackgroundImageFix"/>
<feBlend mode="normal" in="SourceGraphic" in2="BackgroundImageFix" result="shape"/>
<feColorMatrix in="SourceAlpha" type="matrix" values="0 0 0 0 0 0 0 0 0 0 0 0 0 0 0 0 0 0 127 0" result="hardAlpha"/>
<feOffset dy="9"/>
<feComposite in2="hardAlpha" operator="arithmetic" k2="-1" k3="1"/>
<feColorMatrix type="matrix" values="0 0 0 0 0.829177 0 0 0 0 0.829177 0 0 0 0 0.829177 0 0 0 1 0"/>
<feBlend mode="normal" in2="shape" result="effect1_innerShadow_3_2870"/>
</filter>
<filter id="filter29_i_3_2870" x="156" y="255" width="77" height="69" filterUnits="userSpaceOnUse" color-interpolation-filters="sRGB">
<feFlood flood-opacity="0" result="BackgroundImageFix"/>
<feBlend mode="normal" in="SourceGraphic" in2="BackgroundImageFix" result="shape"/>
<feColorMatrix in="SourceAlpha" type="matrix" values="0 0 0 0 0 0 0 0 0 0 0 0 0 0 0 0 0 0 127 0" result="hardAlpha"/>
<feOffset dy="9"/>
<feComposite in2="hardAlpha" operator="arithmetic" k2="-1" k3="1"/>
<feColorMatrix type="matrix" values="0 0 0 0 0.829177 0 0 0 0 0.829177 0 0 0 0 0.829177 0 0 0 1 0"/>
<feBlend mode="normal" in2="shape" result="effect1_innerShadow_3_2870"/>
</filter>
<filter id="filter30_i_3_2870" x="238" y="255" width="77" height="69" filterUnits="userSpaceOnUse" color-interpolation-filters="sRGB">
<feFlood flood-opacity="0" result="BackgroundImageFix"/>
<feBlend mode="normal" in="SourceGraphic" in2="BackgroundImageFix" result="shape"/>
<feColorMatrix in="SourceAlpha" type="matrix" values="0 0 0 0 0 0 0 0 0 0 0 0 0 0 0 0 0 0 127 0" result="hardAlpha"/>
<feOffset dy="9"/>
<feComposite in2="hardAlpha" operator="arithmetic" k2="-1" k3="1"/>
<feColorMatrix type="matrix" values="0 0 0 0 0.829177 0 0 0 0 0.829177 0 0 0 0 0.829177 0 0 0 1 0"/>
<feBlend mode="normal" in2="shape" result="effect1_innerShadow_3_2870"/>
</filter>
<filter id="filter31_i_3_2870" x="320" y="255" width="77" height="69" filterUnits="userSpaceOnUse" color-interpolation-filters="sRGB">
<feFlood flood-opacity="0" result="BackgroundImageFix"/>
<feBlend mode="normal" in="SourceGraphic" in2="BackgroundImageFix" result="shape"/>
<feColorMatrix in="SourceAlpha" type="matrix" values="0 0 0 0 0 0 0 0 0 0 0 0 0 0 0 0 0 0 127 0" result="hardAlpha"/>
<feOffset dy="9"/>
<feComposite in2="hardAlpha" operator="arithmetic" k2="-1" k3="1"/>
<feColorMatrix type="matrix" values="0 0 0 0 0.829177 0 0 0 0 0.829177 0 0 0 0 0.829177 0 0 0 1 0"/>
<feBlend mode="normal" in2="shape" result="effect1_innerShadow_3_2870"/>
</filter>
<filter id="filter32_i_3_2870" x="402" y="255" width="77" height="69" filterUnits="userSpaceOnUse" color-interpolation-filters="sRGB">
<feFlood flood-opacity="0" result="BackgroundImageFix"/>
<feBlend mode="normal" in="SourceGraphic" in2="BackgroundImageFix" result="shape"/>
<feColorMatrix in="SourceAlpha" type="matrix" values="0 0 0 0 0 0 0 0 0 0 0 0 0 0 0 0 0 0 127 0" result="hardAlpha"/>
<feOffset dy="9"/>
<feComposite in2="hardAlpha" operator="arithmetic" k2="-1" k3="1"/>
<feColorMatrix type="matrix" values="0 0 0 0 0.829177 0 0 0 0 0.829177 0 0 0 0 0.829177 0 0 0 1 0"/>
<feBlend mode="normal" in2="shape" result="effect1_innerShadow_3_2870"/>
</filter>
<clipPath id="clip0_3_2870">
<rect width="466" height="291" fill="white"/>
</clipPath>
</defs>
</svg>
