<svg xmlns="http://www.w3.org/2000/svg" xmlns:xlink="http://www.w3.org/1999/xlink" contentStyleType="text/css" data-diagram-type="CLASS" height="531.25px" preserveAspectRatio="none" style="width:2196px;height:531px;background:#FFFFFF;" version="1.1" viewBox="0 0 2196 531" width="2196.875px" zoomAndPan="magnify"><defs/><g><!--class ATMMachine--><g class="entity" data-entity="ATMMachine" data-source-line="6" data-uid="ent0002" id="entity_ATMMachine"><rect fill="#FFFFFF" height="150" rx="7.8125" ry="7.8125" style="stroke:#181818;stroke-width:1.5625;" width="377.5391" x="906.5" y="21.875"/><ellipse cx="953.375" cy="71.875" fill="#C2C2C2" rx="34.375" ry="34.375" style="stroke:#181818;stroke-width:3.125;"/><path d="M962.6523,89.502 Q960.8457,90.4297 958.8438,90.8691 Q956.8418,91.3574 954.6445,91.3574 Q946.832,91.3574 942.6816,86.2305 Q938.5801,81.0547 938.5801,71.2891 Q938.5801,61.5234 942.6816,56.3477 Q946.832,51.1719 954.6445,51.1719 Q956.8418,51.1719 958.8438,51.6602 Q960.8945,52.1484 962.6523,53.0762 L962.6523,61.5723 Q960.6992,59.7656 958.8438,58.9355 Q956.9883,58.0566 955.0352,58.0566 Q950.8359,58.0566 948.6875,61.4258 Q946.5391,64.7461 946.5391,71.2891 Q946.5391,77.832 948.6875,81.2012 Q950.8359,84.5215 955.0352,84.5215 Q956.9883,84.5215 958.8438,83.6914 Q960.6992,82.8125 962.6523,81.0059 L962.6523,89.502 Z " fill="#000000"/><text fill="#000000" font-family="sans-serif" font-size="43.75" lengthAdjust="spacing" textLength="277.5391" x="997.125" y="87.0209">ATMMachine</text><line style="stroke:#181818;stroke-width:1.5625;" x1="909.625" x2="1280.9141" y1="121.875" y2="121.875"/><line style="stroke:#181818;stroke-width:1.5625;" x1="909.625" x2="1280.9141" y1="146.875" y2="146.875"/></g><!--class CardProcessor--><g class="entity" data-entity="CardProcessor" data-source-line="8" data-uid="ent0003" id="entity_CardProcessor"><rect fill="#FFFFFF" height="150" rx="7.8125" ry="7.8125" style="stroke:#181818;stroke-width:1.5625;" width="415.564" x="21.875" y="359.375"/><ellipse cx="68.75" cy="409.375" fill="#B1B1B1" rx="34.375" ry="34.375" style="stroke:#181818;stroke-width:3.125;"/><path d="M56.0059,396.1426 L56.0059,389.4043 L79.1016,389.4043 L79.1016,396.1426 L71.3867,396.1426 L71.3867,421.3867 L79.1016,421.3867 L79.1016,428.125 L56.0059,428.125 L56.0059,421.3867 L63.7207,421.3867 L63.7207,396.1426 L56.0059,396.1426 Z " fill="#000000"/><text fill="#000000" font-family="sans-serif" font-size="43.75" font-style="italic" lengthAdjust="spacing" textLength="315.564" x="112.5" y="424.5209">CardProcessor</text><line style="stroke:#181818;stroke-width:1.5625;" x1="25" x2="434.314" y1="459.375" y2="459.375"/><line style="stroke:#181818;stroke-width:1.5625;" x1="25" x2="434.314" y1="484.375" y2="484.375"/></g><!--class Keypad--><g class="entity" data-entity="Keypad" data-source-line="9" data-uid="ent0004" id="entity_Keypad"><rect fill="#FFFFFF" height="150" rx="7.8125" ry="7.8125" style="stroke:#181818;stroke-width:1.5625;" width="263.8489" x="547.7188" y="359.375"/><ellipse cx="594.5938" cy="409.375" fill="#B1B1B1" rx="34.375" ry="34.375" style="stroke:#181818;stroke-width:3.125;"/><path d="M581.8496,396.1426 L581.8496,389.4043 L604.9453,389.4043 L604.9453,396.1426 L597.2305,396.1426 L597.2305,421.3867 L604.9453,421.3867 L604.9453,428.125 L581.8496,428.125 L581.8496,421.3867 L589.5645,421.3867 L589.5645,396.1426 L581.8496,396.1426 Z " fill="#000000"/><text fill="#000000" font-family="sans-serif" font-size="43.75" font-style="italic" lengthAdjust="spacing" textLength="163.8489" x="638.3438" y="424.5209">Keypad</text><line style="stroke:#181818;stroke-width:1.5625;" x1="550.8438" x2="808.4426" y1="459.375" y2="459.375"/><line style="stroke:#181818;stroke-width:1.5625;" x1="550.8438" x2="808.4426" y1="484.375" y2="484.375"/></g><!--class DepositBox--><g class="entity" data-entity="DepositBox" data-source-line="10" data-uid="ent0005" id="entity_DepositBox"><rect fill="#FFFFFF" height="150" rx="7.8125" ry="7.8125" style="stroke:#181818;stroke-width:1.5625;" width="349.9176" x="920.3125" y="359.375"/><ellipse cx="967.1875" cy="409.375" fill="#B1B1B1" rx="34.375" ry="34.375" style="stroke:#181818;stroke-width:3.125;"/><path d="M954.4434,396.1426 L954.4434,389.4043 L977.5391,389.4043 L977.5391,396.1426 L969.8242,396.1426 L969.8242,421.3867 L977.5391,421.3867 L977.5391,428.125 L954.4434,428.125 L954.4434,421.3867 L962.1582,421.3867 L962.1582,396.1426 L954.4434,396.1426 Z " fill="#000000"/><text fill="#000000" font-family="sans-serif" font-size="43.75" font-style="italic" lengthAdjust="spacing" textLength="249.9176" x="1010.9375" y="424.5209">DepositBox</text><line style="stroke:#181818;stroke-width:1.5625;" x1="923.4375" x2="1267.1051" y1="459.375" y2="459.375"/><line style="stroke:#181818;stroke-width:1.5625;" x1="923.4375" x2="1267.1051" y1="484.375" y2="484.375"/></g><!--class CashDispenser--><g class="entity" data-entity="CashDispenser" data-source-line="11" data-uid="ent0006" id="entity_CashDispenser"><rect fill="#FFFFFF" height="150" rx="7.8125" ry="7.8125" style="stroke:#181818;stroke-width:1.5625;" width="426.6296" x="1378.8438" y="359.375"/><ellipse cx="1425.7188" cy="409.375" fill="#B1B1B1" rx="34.375" ry="34.375" style="stroke:#181818;stroke-width:3.125;"/><path d="M1412.9746,396.1426 L1412.9746,389.4043 L1436.0703,389.4043 L1436.0703,396.1426 L1428.3555,396.1426 L1428.3555,421.3867 L1436.0703,421.3867 L1436.0703,428.125 L1412.9746,428.125 L1412.9746,421.3867 L1420.6895,421.3867 L1420.6895,396.1426 L1412.9746,396.1426 Z " fill="#000000"/><text fill="#000000" font-family="sans-serif" font-size="43.75" font-style="italic" lengthAdjust="spacing" textLength="326.6296" x="1469.4688" y="424.5209">CashDispenser</text><line style="stroke:#181818;stroke-width:1.5625;" x1="1381.9688" x2="1802.3484" y1="459.375" y2="459.375"/><line style="stroke:#181818;stroke-width:1.5625;" x1="1381.9688" x2="1802.3484" y1="484.375" y2="484.375"/></g><!--class Display--><g class="entity" data-entity="Display" data-source-line="13" data-uid="ent0007" id="entity_Display"><rect fill="#FFFFFF" height="150" rx="7.8125" ry="7.8125" style="stroke:#181818;stroke-width:1.5625;" width="261.264" x="1914.6563" y="359.375"/><ellipse cx="1961.5313" cy="409.375" fill="#B1B1B1" rx="34.375" ry="34.375" style="stroke:#181818;stroke-width:3.125;"/><path d="M1948.7871,396.1426 L1948.7871,389.4043 L1971.8828,389.4043 L1971.8828,396.1426 L1964.168,396.1426 L1964.168,421.3867 L1971.8828,421.3867 L1971.8828,428.125 L1948.7871,428.125 L1948.7871,421.3867 L1956.502,421.3867 L1956.502,396.1426 L1948.7871,396.1426 Z " fill="#000000"/><text fill="#000000" font-family="sans-serif" font-size="43.75" font-style="italic" lengthAdjust="spacing" textLength="161.264" x="2005.2813" y="424.5209">Display</text><line style="stroke:#181818;stroke-width:1.5625;" x1="1917.7813" x2="2172.7953" y1="459.375" y2="459.375"/><line style="stroke:#181818;stroke-width:1.5625;" x1="1917.7813" x2="2172.7953" y1="484.375" y2="484.375"/></g><!--reverse link ATMMachine to Keypad--><g class="link" data-entity-1="ATMMachine" data-entity-2="Keypad" data-source-line="15" data-uid="lnk8" id="link_ATMMachine_Keypad"><path codeLine="15" d="M974.7438,196.0684 C905.4626,251.3184 839.9063,303.5313 770.6563,358.7188" fill="none" id="ATMMachine-backto-Keypad" style="stroke:#181818;stroke-width:3.125;"/><polygon fill="#181818" points="1004.0625,172.6875,981.6095,174.605,974.7438,196.0684,997.1968,194.1508,1004.0625,172.6875" style="stroke:#181818;stroke-width:3.125;"/></g><!--reverse link ATMMachine to CardProcessor--><g class="link" data-entity-1="ATMMachine" data-entity-2="CardProcessor" data-source-line="17" data-uid="lnk9" id="link_ATMMachine_CardProcessor"><path codeLine="17" d="M870.2891,186.0895 C726.4766,241.1208 564.75,303.0313 420.6875,358.1563" fill="none" id="ATMMachine-backto-CardProcessor" style="stroke:#181818;stroke-width:3.125;"/><polygon fill="#181818" points="905.3125,172.6875,883.3335,167.7141,870.2891,186.0895,892.2682,191.063,905.3125,172.6875" style="stroke:#181818;stroke-width:3.125;"/></g><!--reverse link ATMMachine to DepositBox--><g class="link" data-entity-1="ATMMachine" data-entity-2="DepositBox" data-source-line="19" data-uid="lnk10" id="link_ATMMachine_DepositBox"><path codeLine="19" d="M1095.2813,210.1875 C1095.2813,265.4375 1095.2813,303.5313 1095.2813,358.7188" fill="none" id="ATMMachine-backto-DepositBox" style="stroke:#181818;stroke-width:3.125;"/><polygon fill="#181818" points="1095.2813,172.6875,1082.7813,191.4375,1095.2813,210.1875,1107.7813,191.4375,1095.2813,172.6875" style="stroke:#181818;stroke-width:3.125;"/></g><!--reverse link ATMMachine to CashDispenser--><g class="link" data-entity-1="ATMMachine" data-entity-2="CashDispenser" data-source-line="21" data-uid="lnk11" id="link_ATMMachine_CashDispenser"><path codeLine="21" d="M1235.5162,193.486 C1318.0787,248.5173 1399.8125,303.0313 1482.5,358.1563" fill="none" id="ATMMachine-backto-CashDispenser" style="stroke:#181818;stroke-width:3.125;"/><polygon fill="#181818" points="1204.3125,172.6875,1212.9815,193.488,1235.5162,193.486,1226.8472,172.6855,1204.3125,172.6875" style="stroke:#181818;stroke-width:3.125;"/></g><!--reverse link ATMMachine to Display--><g class="link" data-entity-1="ATMMachine" data-entity-2="Display" data-source-line="23" data-uid="lnk12" id="link_ATMMachine_Display"><path codeLine="23" d="M1320.5289,173.3104 C1475.9664,224.4354 1665.75,288.3125 1860.9063,359.375 C1878.0313,365.5938 1895.9375,372.3438 1913.625,379.0938" fill="none" id="ATMMachine-backto-Display" style="stroke:#181818;stroke-width:3.125;"/><polygon fill="#181818" points="1284.9063,161.5937,1298.812,179.3263,1320.5289,173.3104,1306.6231,155.5779,1284.9063,161.5937" style="stroke:#181818;stroke-width:3.125;"/></g><!--SRC=[XOxD2e904CVlynGBtG91w0bIwH92XrvWsfroKNUM6OLy-yYeLZiqnz_ylxJr8Q9WRteER1lXdimW8u5-FXUqxKru3AxaZiLi3lCb2jkXQl5Nvg8tkpm7cFLcVwvhj8qF1E33G795IwP4SITXIwei2J_I5D4beAB8weU2xmktDfNNI459qjWdx702-BQQRPQzOzTukMBzJQf_ZOi1Q-DhnGC0]--></g></svg>