<svg xmlns="http://www.w3.org/2000/svg" xmlns:xlink="http://www.w3.org/1999/xlink" contentStyleType="text/css" data-diagram-type="CLASS" height="600px" preserveAspectRatio="none" style="width:1581px;height:600px;background:#FFFFFF;" version="1.1" viewBox="0 0 1581 600" width="1581.25px" zoomAndPan="magnify"><defs/><g><!--class FileAttribute--><g class="entity" data-entity="FileAttribute" data-source-line="6" data-uid="ent0002" id="entity_FileAttribute"><rect fill="#FFFFFF" height="353.7109" rx="7.8125" ry="7.8125" style="stroke:#181818;stroke-width:1.5625;" width="397.2626" x="21.875" y="123.75"/><ellipse cx="80.8652" cy="173.75" fill="#ABABAB" rx="34.375" ry="34.375" style="stroke:#181818;stroke-width:3.125;"/><path d="M93.707,192.5 L69.5859,192.5 L69.5859,153.7793 L93.707,153.7793 L93.707,160.5176 L77.2519,160.5176 L77.2519,168.8672 L92.1445,168.8672 L92.1445,175.6055 L77.2519,175.6055 L77.2519,185.7617 L93.707,185.7617 L93.707,192.5 Z " fill="#000000"/><text fill="#000000" font-family="sans-serif" font-size="43.75" lengthAdjust="spacing" textLength="270.34" x="127.3074" y="188.8959">FileAttribute</text><line style="stroke:#181818;stroke-width:1.5625;" x1="25" x2="416.0126" y1="223.75" y2="223.75"/><ellipse cx="56.25" cy="266.4014" fill="none" rx="9.375" ry="9.375" style="stroke:#545454;stroke-width:3.125;"/><text fill="#000000" font-family="sans-serif" font-size="43.75" lengthAdjust="spacing" textLength="316.0126" x="84.375" y="276.8597">IS_DIRECTORY</text><ellipse cx="56.25" cy="317.3291" fill="none" rx="9.375" ry="9.375" style="stroke:#545454;stroke-width:3.125;"/><text fill="#000000" font-family="sans-serif" font-size="43.75" lengthAdjust="spacing" textLength="98.288" x="84.375" y="327.7875">SIZE</text><ellipse cx="56.25" cy="368.2568" fill="none" rx="9.375" ry="9.375" style="stroke:#545454;stroke-width:3.125;"/><text fill="#000000" font-family="sans-serif" font-size="43.75" lengthAdjust="spacing" textLength="168.4631" x="84.375" y="378.7152">OWNER</text><ellipse cx="56.25" cy="419.1846" fill="none" rx="9.375" ry="9.375" style="stroke:#545454;stroke-width:3.125;"/><text fill="#000000" font-family="sans-serif" font-size="43.75" lengthAdjust="spacing" textLength="218.1305" x="84.375" y="429.6429">FILENAME</text><line style="stroke:#181818;stroke-width:1.5625;" x1="25" x2="416.0126" y1="452.4609" y2="452.4609"/></g><!--class File--><g class="entity" data-entity="File" data-source-line="13" data-uid="ent0003" id="entity_File"><rect fill="#FFFFFF" height="557.4219" rx="7.8125" ry="7.8125" style="stroke:#181818;stroke-width:1.5625;" width="1031.8939" x="529.5625" y="21.875"/><ellipse cx="994.0324" cy="71.875" fill="#C2C2C2" rx="34.375" ry="34.375" style="stroke:#181818;stroke-width:3.125;"/><path d="M1003.3098,89.502 Q1001.5031,90.4297 999.5012,90.8691 Q997.4992,91.3574 995.3019,91.3574 Q987.4894,91.3574 983.3391,86.2305 Q979.2375,81.0547 979.2375,71.2891 Q979.2375,61.5234 983.3391,56.3477 Q987.4894,51.1719 995.3019,51.1719 Q997.4992,51.1719 999.5012,51.6602 Q1001.5519,52.1484 1003.3098,53.0762 L1003.3098,61.5723 Q1001.3566,59.7656 999.5012,58.9355 Q997.6457,58.0566 995.6926,58.0566 Q991.4933,58.0566 989.3449,61.4258 Q987.1965,64.7461 987.1965,71.2891 Q987.1965,77.832 989.3449,81.2012 Q991.4933,84.5215 995.6926,84.5215 Q997.6457,84.5215 999.5012,83.6914 Q1001.3566,82.8125 1003.3098,81.0059 L1003.3098,89.502 Z " fill="#000000"/><text fill="#000000" font-family="sans-serif" font-size="43.75" lengthAdjust="spacing" textLength="76.3916" x="1058.0949" y="87.0209">File</text><line style="stroke:#181818;stroke-width:1.5625;" x1="532.6875" x2="1558.3314" y1="121.875" y2="121.875"/><rect fill="none" height="18.75" style="stroke:#595959;stroke-width:3.125;" width="18.75" x="554.5625" y="155.1514"/><text fill="#000000" font-family="sans-serif" font-size="43.75" lengthAdjust="spacing" textLength="426.3702" x="592.0625" y="174.9847">boolean isDirectory</text><rect fill="none" height="18.75" style="stroke:#595959;stroke-width:3.125;" width="18.75" x="554.5625" y="206.0791"/><text fill="#000000" font-family="sans-serif" font-size="43.75" lengthAdjust="spacing" textLength="155.7739" x="592.0625" y="225.9125">int size</text><rect fill="none" height="18.75" style="stroke:#595959;stroke-width:3.125;" width="18.75" x="554.5625" y="257.0068"/><text fill="#000000" font-family="sans-serif" font-size="43.75" lengthAdjust="spacing" textLength="279.6539" x="592.0625" y="276.8402">String owner</text><rect fill="none" height="18.75" style="stroke:#595959;stroke-width:3.125;" width="18.75" x="554.5625" y="307.9346"/><text fill="#000000" font-family="sans-serif" font-size="43.75" lengthAdjust="spacing" textLength="335.1746" x="592.0625" y="327.7679">String filename</text><rect fill="none" height="18.75" style="stroke:#595959;stroke-width:3.125;" width="18.75" x="554.5625" y="358.8623"/><text fill="#000000" font-family="sans-serif" font-size="43.75" lengthAdjust="spacing" textLength="387.1063" x="592.0625" y="378.6957">Set&lt;File&gt; entries</text><line style="stroke:#181818;stroke-width:1.5625;" x1="532.6875" x2="1558.3314" y1="401.5137" y2="401.5137"/><ellipse cx="563.9375" cy="444.165" fill="#A6A6A6" rx="9.375" ry="9.375" style="stroke:#545454;stroke-width:3.125;"/><text fill="#000000" font-family="sans-serif" font-size="43.75" lengthAdjust="spacing" textLength="950.6439" x="592.0625" y="454.6234">Object extract(FileAttribute attributeName)</text><ellipse cx="563.9375" cy="495.0928" fill="#A6A6A6" rx="9.375" ry="9.375" style="stroke:#545454;stroke-width:3.125;"/><text fill="#000000" font-family="sans-serif" font-size="43.75" lengthAdjust="spacing" textLength="438.8672" x="592.0625" y="505.5511">addEntry(File entry)</text><ellipse cx="563.9375" cy="546.0205" fill="#A6A6A6" rx="9.375" ry="9.375" style="stroke:#545454;stroke-width:3.125;"/><text fill="#000000" font-family="sans-serif" font-size="43.75" lengthAdjust="spacing" textLength="493.811" x="592.0625" y="556.4789">Set&lt;File&gt; getEntries()</text></g><!--SRC=[XOv1IyGm48Nl-HK3NdOHOS6h2Ejk2WLjeHL4BvAcOutRP9OaHQliVtSIqTMJkUJDp7lVJDWPjrTUMR3aI3zxiWZHJoZ2pwHJUZTucbo_eP4yd1Jv_NBeKOLmzQ-jtniuNws4G3TPACo8wnYzwQQ8y25E0ShsSLisSdDRD_UfRii7cVxwhf9D4aLvBQlrZHG78VBIJE7m6NH48oe79coDHnt9pzmrBa8mxyYovLLk07frw8_b4-UTijc0yIBXBW4T3p7mnhfxOHRWM_HAnyNVczMtgXYmPBVgUydHEVioPKxj8tZ0AB_OYwKuV080]--></g></svg>